{
    "mood": "relaxed",
    "instruments": {
        "Trumpet": [
            {
                "start_time": 0.2090909,
                "end_time": 0.4090909,
                "pitch": 64,
                "velocity": 101,
                "duration": 0.2,
                "tempo": 120.0
            },
            {
                "start_time": 0.4090909,
                "end_time": 0.8090909,
                "pitch": 62,
                "velocity": 101,
                "duration": 0.4,
                "tempo": 120.0
            },
            {
                "start_time": 0.8090909,
                "end_time": 1.0068182,
                "pitch": 64,
                "velocity": 101,
                "duration": 0.1977273,
                "tempo": 120.0
            },
            {
                "start_time": 1.0068182,
                "end_time": 1.4022727,
                "pitch": 62,
                "velocity": 101,
                "duration": 0.3954545,
                "tempo": 120.0
            },
            {
                "start_time": 1.4022727,
                "end_time": 1.7727273,
                "pitch": 64,
                "velocity": 101,
                "duration": 0.3704545,
                "tempo": 120.0
            },
            {
                "start_time": 1.7727273,
                "end_time": 1.975,
                "pitch": 64,
                "velocity": 101,
                "duration": 0.2022727,
                "tempo": 120.0
            },
            {
                "start_time": 1.975,
                "end_time": 2.3454545,
                "pitch": 62,
                "velocity": 101,
                "duration": 0.3704545,
                "tempo": 120.0
            },
            {
                "start_time": 2.3454545,
                "end_time": 2.5454545,
                "pitch": 65,
                "velocity": 101,
                "duration": 0.2,
                "tempo": 120.0
            },
            {
                "start_time": 2.5454545,
                "end_time": 2.9454545,
                "pitch": 64,
                "velocity": 101,
                "duration": 0.4,
                "tempo": 120.0
            },
            {
                "start_time": 2.9454545,
                "end_time": 3.3454545,
                "pitch": 62,
                "velocity": 101,
                "duration": 0.4,
                "tempo": 120.0
            },
            {
                "start_time": 3.3454545,
                "end_time": 3.5477273,
                "pitch": 62,
                "velocity": 101,
                "duration": 0.2022727,
                "tempo": 120.0
            },
            {
                "start_time": 3.5477273,
                "end_time": 3.9181818,
                "pitch": 60,
                "velocity": 101,
                "duration": 0.3704545,
                "tempo": 120.0
            },
            {
                "start_time": 3.9181818,
                "end_time": 4.1022727,
                "pitch": 62,
                "velocity": 101,
                "duration": 0.1840909,
                "tempo": 120.0
            },
            {
                "start_time": 4.1022727,
                "end_time": 4.4886364,
                "pitch": 60,
                "velocity": 101,
                "duration": 0.3863636,
                "tempo": 120.0
            },
            {
                "start_time": 4.4886364,
                "end_time": 4.8886364,
                "pitch": 62,
                "velocity": 101,
                "duration": 0.4,
                "tempo": 120.0
            },
            {
                "start_time": 4.8886364,
                "end_time": 5.0909091,
                "pitch": 62,
                "velocity": 101,
                "duration": 0.2022727,
                "tempo": 120.0
            },
            {
                "start_time": 5.0909091,
                "end_time": 5.4931818,
                "pitch": 60,
                "velocity": 101,
                "duration": 0.4022727,
                "tempo": 120.0
            },
            {
                "start_time": 5.4931818,
                "end_time": 5.6931818,
                "pitch": 65,
                "velocity": 101,
                "duration": 0.2,
                "tempo": 120.0
            },
            {
                "start_time": 5.6931818,
                "end_time": 6.0545455,
                "pitch": 64,
                "velocity": 101,
                "duration": 0.3613636,
                "tempo": 120.0
            },
            {
                "start_time": 6.0545455,
                "end_time": 7.2204545,
                "pitch": 60,
                "velocity": 101,
                "duration": 1.1659091,
                "tempo": 120.0
            },
            {
                "start_time": 7.2204545,
                "end_time": 7.6272727,
                "pitch": 64,
                "velocity": 101,
                "duration": 0.4068182,
                "tempo": 120.0
            },
            {
                "start_time": 7.6272727,
                "end_time": 8.3818182,
                "pitch": 62,
                "velocity": 101,
                "duration": 0.7545455,
                "tempo": 120.0
            },
            {
                "start_time": 8.3818182,
                "end_time": 9.3727273,
                "pitch": 59,
                "velocity": 101,
                "duration": 0.9909091,
                "tempo": 120.0
            },
            {
                "start_time": 9.3727273,
                "end_time": 9.5727273,
                "pitch": 60,
                "velocity": 101,
                "duration": 0.2,
                "tempo": 120.0
            },
            {
                "start_time": 9.5727273,
                "end_time": 9.775,
                "pitch": 60,
                "velocity": 101,
                "duration": 0.2022727,
                "tempo": 120.0
            },
            {
                "start_time": 9.775,
                "end_time": 10.1772727,
                "pitch": 59,
                "velocity": 101,
                "duration": 0.4022727,
                "tempo": 120.0
            },
            {
                "start_time": 10.1772727,
                "end_time": 10.3477273,
                "pitch": 60,
                "velocity": 101,
                "duration": 0.1704545,
                "tempo": 120.0
            },
            {
                "start_time": 10.3477273,
                "end_time": 10.7318182,
                "pitch": 59,
                "velocity": 101,
                "duration": 0.3840909,
                "tempo": 120.0
            },
            {
                "start_time": 10.7318182,
                "end_time": 11.1181818,
                "pitch": 60,
                "velocity": 101,
                "duration": 0.3863636,
                "tempo": 120.0
            },
            {
                "start_time": 11.1181818,
                "end_time": 11.3204545,
                "pitch": 60,
                "velocity": 101,
                "duration": 0.2022727,
                "tempo": 120.0
            },
            {
                "start_time": 11.3204545,
                "end_time": 11.7204545,
                "pitch": 59,
                "velocity": 101,
                "duration": 0.4,
                "tempo": 120.0
            },
            {
                "start_time": 11.7204545,
                "end_time": 11.9227273,
                "pitch": 60,
                "velocity": 101,
                "duration": 0.2022727,
                "tempo": 120.0
            },
            {
                "start_time": 11.9227273,
                "end_time": 12.4954545,
                "pitch": 62,
                "velocity": 101,
                "duration": 0.5727273,
                "tempo": 120.0
            },
            {
                "start_time": 12.4954545,
                "end_time": 12.6704545,
                "pitch": 64,
                "velocity": 101,
                "duration": 0.175,
                "tempo": 120.0
            },
            {
                "start_time": 12.6704545,
                "end_time": 12.8568182,
                "pitch": 64,
                "velocity": 101,
                "duration": 0.1863636,
                "tempo": 120.0
            },
            {
                "start_time": 12.8568182,
                "end_time": 13.2590909,
                "pitch": 62,
                "velocity": 101,
                "duration": 0.4022727,
                "tempo": 120.0
            },
            {
                "start_time": 13.2681818,
                "end_time": 13.4704545,
                "pitch": 64,
                "velocity": 101,
                "duration": 0.2022727,
                "tempo": 120.0
            },
            {
                "start_time": 13.4704545,
                "end_time": 13.8727273,
                "pitch": 62,
                "velocity": 101,
                "duration": 0.4022727,
                "tempo": 120.0
            },
            {
                "start_time": 13.8727273,
                "end_time": 14.275,
                "pitch": 64,
                "velocity": 101,
                "duration": 0.4022727,
                "tempo": 120.0
            },
            {
                "start_time": 14.275,
                "end_time": 14.4363636,
                "pitch": 64,
                "velocity": 101,
                "duration": 0.1613636,
                "tempo": 120.0
            },
            {
                "start_time": 14.4363636,
                "end_time": 14.8068182,
                "pitch": 62,
                "velocity": 101,
                "duration": 0.3704545,
                "tempo": 120.0
            },
            {
                "start_time": 14.8068182,
                "end_time": 15.0090909,
                "pitch": 65,
                "velocity": 101,
                "duration": 0.2022727,
                "tempo": 120.0
            },
            {
                "start_time": 15.0090909,
                "end_time": 15.4045455,
                "pitch": 64,
                "velocity": 101,
                "duration": 0.3954545,
                "tempo": 120.0
            },
            {
                "start_time": 15.4045455,
                "end_time": 15.8022727,
                "pitch": 62,
                "velocity": 101,
                "duration": 0.3977273,
                "tempo": 120.0
            },
            {
                "start_time": 15.8022727,
                "end_time": 16.0022727,
                "pitch": 62,
                "velocity": 101,
                "duration": 0.2,
                "tempo": 120.0
            },
            {
                "start_time": 16.0022727,
                "end_time": 16.4045455,
                "pitch": 60,
                "velocity": 101,
                "duration": 0.4022727,
                "tempo": 120.0
            },
            {
                "start_time": 16.4045455,
                "end_time": 16.575,
                "pitch": 62,
                "velocity": 101,
                "duration": 0.1704545,
                "tempo": 120.0
            },
            {
                "start_time": 16.575,
                "end_time": 16.9590909,
                "pitch": 60,
                "velocity": 101,
                "duration": 0.3840909,
                "tempo": 120.0
            },
            {
                "start_time": 16.9590909,
                "end_time": 17.3454545,
                "pitch": 62,
                "velocity": 101,
                "duration": 0.3863636,
                "tempo": 120.0
            },
            {
                "start_time": 17.3454545,
                "end_time": 17.5477273,
                "pitch": 62,
                "velocity": 101,
                "duration": 0.2022727,
                "tempo": 120.0
            },
            {
                "start_time": 17.5477273,
                "end_time": 17.9477273,
                "pitch": 60,
                "velocity": 101,
                "duration": 0.4,
                "tempo": 120.0
            },
            {
                "start_time": 17.9477273,
                "end_time": 18.1477273,
                "pitch": 65,
                "velocity": 101,
                "duration": 0.2,
                "tempo": 120.0
            },
            {
                "start_time": 18.1477273,
                "end_time": 18.5477273,
                "pitch": 64,
                "velocity": 101,
                "duration": 0.4,
                "tempo": 120.0
            },
            {
                "start_time": 18.5477273,
                "end_time": 19.6909091,
                "pitch": 64,
                "velocity": 101,
                "duration": 1.1431818,
                "tempo": 120.0
            },
            {
                "start_time": 19.6909091,
                "end_time": 20.0909091,
                "pitch": 65,
                "velocity": 101,
                "duration": 0.4,
                "tempo": 120.0
            },
            {
                "start_time": 20.0909091,
                "end_time": 20.85,
                "pitch": 64,
                "velocity": 101,
                "duration": 0.7590909,
                "tempo": 120.0
            },
            {
                "start_time": 20.85,
                "end_time": 21.8159091,
                "pitch": 60,
                "velocity": 101,
                "duration": 0.9659091,
                "tempo": 120.0
            },
            {
                "start_time": 21.8159091,
                "end_time": 22.0204545,
                "pitch": 64,
                "velocity": 101,
                "duration": 0.2045455,
                "tempo": 120.0
            },
            {
                "start_time": 22.0204545,
                "end_time": 22.2272727,
                "pitch": 64,
                "velocity": 101,
                "duration": 0.2068182,
                "tempo": 120.0
            },
            {
                "start_time": 22.2272727,
                "end_time": 22.6272727,
                "pitch": 62,
                "velocity": 101,
                "duration": 0.4,
                "tempo": 120.0
            },
            {
                "start_time": 22.6272727,
                "end_time": 22.8227273,
                "pitch": 64,
                "velocity": 101,
                "duration": 0.1954545,
                "tempo": 120.0
            },
            {
                "start_time": 22.8227273,
                "end_time": 23.175,
                "pitch": 62,
                "velocity": 101,
                "duration": 0.3522727,
                "tempo": 120.0
            },
            {
                "start_time": 23.175,
                "end_time": 23.5590909,
                "pitch": 64,
                "velocity": 101,
                "duration": 0.3840909,
                "tempo": 120.0
            },
            {
                "start_time": 23.5590909,
                "end_time": 23.7590909,
                "pitch": 64,
                "velocity": 101,
                "duration": 0.2,
                "tempo": 120.0
            },
            {
                "start_time": 23.7590909,
                "end_time": 24.1636364,
                "pitch": 62,
                "velocity": 101,
                "duration": 0.4045455,
                "tempo": 120.0
            },
            {
                "start_time": 24.1636364,
                "end_time": 24.3636364,
                "pitch": 64,
                "velocity": 101,
                "duration": 0.2,
                "tempo": 120.0
            },
            {
                "start_time": 24.3636364,
                "end_time": 24.9340909,
                "pitch": 59,
                "velocity": 101,
                "duration": 0.5704545,
                "tempo": 120.0
            },
            {
                "start_time": 24.9340909,
                "end_time": 25.1204545,
                "pitch": 60,
                "velocity": 101,
                "duration": 0.1863636,
                "tempo": 120.0
            },
            {
                "start_time": 25.1204545,
                "end_time": 25.3045455,
                "pitch": 60,
                "velocity": 101,
                "duration": 0.1840909,
                "tempo": 120.0
            },
            {
                "start_time": 25.3045455,
                "end_time": 25.5068182,
                "pitch": 60,
                "velocity": 101,
                "duration": 0.2022727,
                "tempo": 120.0
            },
            {
                "start_time": 25.5068182,
                "end_time": 25.7090909,
                "pitch": 60,
                "velocity": 101,
                "duration": 0.2022727,
                "tempo": 120.0
            },
            {
                "start_time": 25.7090909,
                "end_time": 25.9090909,
                "pitch": 60,
                "velocity": 101,
                "duration": 0.2,
                "tempo": 120.0
            },
            {
                "start_time": 25.9090909,
                "end_time": 26.1090909,
                "pitch": 60,
                "velocity": 101,
                "duration": 0.2,
                "tempo": 120.0
            },
            {
                "start_time": 26.1090909,
                "end_time": 26.3090909,
                "pitch": 60,
                "velocity": 101,
                "duration": 0.2,
                "tempo": 120.0
            },
            {
                "start_time": 26.3090909,
                "end_time": 26.5113636,
                "pitch": 60,
                "velocity": 101,
                "duration": 0.2022727,
                "tempo": 120.0
            },
            {
                "start_time": 26.5113636,
                "end_time": 26.7113636,
                "pitch": 62,
                "velocity": 101,
                "duration": 0.2,
                "tempo": 120.0
            },
            {
                "start_time": 26.7113636,
                "end_time": 26.9113636,
                "pitch": 62,
                "velocity": 101,
                "duration": 0.2,
                "tempo": 120.0
            },
            {
                "start_time": 26.9113636,
                "end_time": 27.0818182,
                "pitch": 62,
                "velocity": 101,
                "duration": 0.1704545,
                "tempo": 120.0
            },
            {
                "start_time": 27.0818182,
                "end_time": 27.2704545,
                "pitch": 62,
                "velocity": 101,
                "duration": 0.1886364,
                "tempo": 120.0
            },
            {
                "start_time": 27.2704545,
                "end_time": 27.4568182,
                "pitch": 62,
                "velocity": 101,
                "duration": 0.1863636,
                "tempo": 120.0
            },
            {
                "start_time": 27.4568182,
                "end_time": 27.6409091,
                "pitch": 62,
                "velocity": 101,
                "duration": 0.1840909,
                "tempo": 120.0
            },
            {
                "start_time": 27.6409091,
                "end_time": 27.8409091,
                "pitch": 62,
                "velocity": 101,
                "duration": 0.2,
                "tempo": 120.0
            },
            {
                "start_time": 27.8409091,
                "end_time": 28.0522727,
                "pitch": 62,
                "velocity": 101,
                "duration": 0.2113636,
                "tempo": 120.0
            },
            {
                "start_time": 28.0522727,
                "end_time": 28.2431818,
                "pitch": 62,
                "velocity": 101,
                "duration": 0.1909091,
                "tempo": 120.0
            },
            {
                "start_time": 28.2431818,
                "end_time": 28.4431818,
                "pitch": 62,
                "velocity": 101,
                "duration": 0.2,
                "tempo": 120.0
            },
            {
                "start_time": 28.4431818,
                "end_time": 28.6431818,
                "pitch": 62,
                "velocity": 101,
                "duration": 0.2,
                "tempo": 120.0
            },
            {
                "start_time": 28.6431818,
                "end_time": 28.8545455,
                "pitch": 62,
                "velocity": 101,
                "duration": 0.2113636,
                "tempo": 120.0
            },
            {
                "start_time": 28.8545455,
                "end_time": 29.0409091,
                "pitch": 62,
                "velocity": 101,
                "duration": 0.1863636,
                "tempo": 120.0
            },
            {
                "start_time": 29.0409091,
                "end_time": 29.2068182,
                "pitch": 62,
                "velocity": 101,
                "duration": 0.1659091,
                "tempo": 120.0
            },
            {
                "start_time": 29.2068182,
                "end_time": 29.3909091,
                "pitch": 62,
                "velocity": 101,
                "duration": 0.1840909,
                "tempo": 120.0
            },
            {
                "start_time": 29.3909091,
                "end_time": 29.5772727,
                "pitch": 62,
                "velocity": 101,
                "duration": 0.1863636,
                "tempo": 120.0
            },
            {
                "start_time": 29.5772727,
                "end_time": 29.7772727,
                "pitch": 64,
                "velocity": 101,
                "duration": 0.2,
                "tempo": 120.0
            },
            {
                "start_time": 29.7772727,
                "end_time": 29.9772727,
                "pitch": 64,
                "velocity": 101,
                "duration": 0.2,
                "tempo": 120.0
            },
            {
                "start_time": 29.9772727,
                "end_time": 30.1795455,
                "pitch": 64,
                "velocity": 101,
                "duration": 0.2022727,
                "tempo": 120.0
            },
            {
                "start_time": 30.1795455,
                "end_time": 30.3795455,
                "pitch": 64,
                "velocity": 101,
                "duration": 0.2,
                "tempo": 120.0
            },
            {
                "start_time": 30.3795455,
                "end_time": 30.5795455,
                "pitch": 64,
                "velocity": 101,
                "duration": 0.2,
                "tempo": 120.0
            },
            {
                "start_time": 30.5795455,
                "end_time": 30.7795455,
                "pitch": 64,
                "velocity": 101,
                "duration": 0.2,
                "tempo": 120.0
            },
            {
                "start_time": 30.7795455,
                "end_time": 30.9795455,
                "pitch": 64,
                "velocity": 101,
                "duration": 0.2,
                "tempo": 120.0
            },
            {
                "start_time": 30.9795455,
                "end_time": 31.1795455,
                "pitch": 64,
                "velocity": 101,
                "duration": 0.2,
                "tempo": 120.0
            },
            {
                "start_time": 31.1795455,
                "end_time": 31.35,
                "pitch": 60,
                "velocity": 101,
                "duration": 0.1704545,
                "tempo": 120.0
            },
            {
                "start_time": 31.35,
                "end_time": 31.5522727,
                "pitch": 60,
                "velocity": 101,
                "duration": 0.2022727,
                "tempo": 120.0
            },
            {
                "start_time": 31.5522727,
                "end_time": 31.7363636,
                "pitch": 60,
                "velocity": 101,
                "duration": 0.1840909,
                "tempo": 120.0
            },
            {
                "start_time": 31.7363636,
                "end_time": 31.9227273,
                "pitch": 60,
                "velocity": 101,
                "duration": 0.1863636,
                "tempo": 120.0
            },
            {
                "start_time": 31.9227273,
                "end_time": 32.1227273,
                "pitch": 60,
                "velocity": 101,
                "duration": 0.2,
                "tempo": 120.0
            },
            {
                "start_time": 32.1227273,
                "end_time": 32.3227273,
                "pitch": 60,
                "velocity": 101,
                "duration": 0.2,
                "tempo": 120.0
            },
            {
                "start_time": 32.3227273,
                "end_time": 32.5227273,
                "pitch": 60,
                "velocity": 101,
                "duration": 0.2,
                "tempo": 120.0
            },
            {
                "start_time": 32.5227273,
                "end_time": 32.7227273,
                "pitch": 60,
                "velocity": 101,
                "duration": 0.2,
                "tempo": 120.0
            },
            {
                "start_time": 32.7227273,
                "end_time": 32.9227273,
                "pitch": 60,
                "velocity": 101,
                "duration": 0.2,
                "tempo": 120.0
            },
            {
                "start_time": 32.9227273,
                "end_time": 33.1227273,
                "pitch": 60,
                "velocity": 101,
                "duration": 0.2,
                "tempo": 120.0
            },
            {
                "start_time": 33.1227273,
                "end_time": 33.325,
                "pitch": 60,
                "velocity": 101,
                "duration": 0.2022727,
                "tempo": 120.0
            },
            {
                "start_time": 33.325,
                "end_time": 33.4954545,
                "pitch": 60,
                "velocity": 101,
                "duration": 0.1704545,
                "tempo": 120.0
            },
            {
                "start_time": 33.4954545,
                "end_time": 33.6795455,
                "pitch": 60,
                "velocity": 101,
                "duration": 0.1840909,
                "tempo": 120.0
            },
            {
                "start_time": 33.6795455,
                "end_time": 33.8659091,
                "pitch": 60,
                "velocity": 101,
                "duration": 0.1863636,
                "tempo": 120.0
            },
            {
                "start_time": 33.8659091,
                "end_time": 34.0659091,
                "pitch": 60,
                "velocity": 101,
                "duration": 0.2,
                "tempo": 120.0
            },
            {
                "start_time": 34.0659091,
                "end_time": 34.2659091,
                "pitch": 60,
                "velocity": 101,
                "duration": 0.2,
                "tempo": 120.0
            },
            {
                "start_time": 34.2659091,
                "end_time": 34.4659091,
                "pitch": 62,
                "velocity": 101,
                "duration": 0.2,
                "tempo": 120.0
            },
            {
                "start_time": 34.4659091,
                "end_time": 34.6659091,
                "pitch": 62,
                "velocity": 101,
                "duration": 0.2,
                "tempo": 120.0
            },
            {
                "start_time": 34.6659091,
                "end_time": 34.8659091,
                "pitch": 62,
                "velocity": 101,
                "duration": 0.2,
                "tempo": 120.0
            },
            {
                "start_time": 34.8659091,
                "end_time": 35.0681818,
                "pitch": 62,
                "velocity": 101,
                "duration": 0.2022727,
                "tempo": 120.0
            },
            {
                "start_time": 35.0681818,
                "end_time": 35.2681818,
                "pitch": 62,
                "velocity": 101,
                "duration": 0.2,
                "tempo": 120.0
            },
            {
                "start_time": 35.2681818,
                "end_time": 35.4681818,
                "pitch": 62,
                "velocity": 101,
                "duration": 0.2,
                "tempo": 120.0
            },
            {
                "start_time": 35.4681818,
                "end_time": 35.6272727,
                "pitch": 62,
                "velocity": 101,
                "duration": 0.1590909,
                "tempo": 120.0
            },
            {
                "start_time": 35.6272727,
                "end_time": 35.8272727,
                "pitch": 62,
                "velocity": 101,
                "duration": 0.2,
                "tempo": 120.0
            },
            {
                "start_time": 35.8272727,
                "end_time": 36.0136364,
                "pitch": 59,
                "velocity": 101,
                "duration": 0.1863636,
                "tempo": 120.0
            },
            {
                "start_time": 36.0136364,
                "end_time": 36.2,
                "pitch": 59,
                "velocity": 101,
                "duration": 0.1863636,
                "tempo": 120.0
            },
            {
                "start_time": 36.2,
                "end_time": 36.3954545,
                "pitch": 59,
                "velocity": 101,
                "duration": 0.1954545,
                "tempo": 120.0
            },
            {
                "start_time": 36.3954545,
                "end_time": 36.5909091,
                "pitch": 62,
                "velocity": 101,
                "duration": 0.1954545,
                "tempo": 120.0
            },
            {
                "start_time": 36.5909091,
                "end_time": 36.7909091,
                "pitch": 62,
                "velocity": 101,
                "duration": 0.2,
                "tempo": 120.0
            },
            {
                "start_time": 36.7909091,
                "end_time": 36.9909091,
                "pitch": 62,
                "velocity": 101,
                "duration": 0.2,
                "tempo": 120.0
            },
            {
                "start_time": 36.9909091,
                "end_time": 37.1977273,
                "pitch": 62,
                "velocity": 101,
                "duration": 0.2068182,
                "tempo": 120.0
            },
            {
                "start_time": 37.1977273,
                "end_time": 37.4022727,
                "pitch": 62,
                "velocity": 101,
                "duration": 0.2045455,
                "tempo": 120.0
            },
            {
                "start_time": 37.4022727,
                "end_time": 37.5681818,
                "pitch": 64,
                "velocity": 101,
                "duration": 0.1659091,
                "tempo": 120.0
            },
            {
                "start_time": 37.5681818,
                "end_time": 37.7659091,
                "pitch": 65,
                "velocity": 101,
                "duration": 0.1977273,
                "tempo": 120.0
            },
            {
                "start_time": 37.7659091,
                "end_time": 37.95,
                "pitch": 67,
                "velocity": 101,
                "duration": 0.1840909,
                "tempo": 120.0
            },
            {
                "start_time": 37.95,
                "end_time": 38.1363636,
                "pitch": 64,
                "velocity": 101,
                "duration": 0.1863636,
                "tempo": 120.0
            },
            {
                "start_time": 38.1363636,
                "end_time": 38.3363636,
                "pitch": 65,
                "velocity": 101,
                "duration": 0.2,
                "tempo": 120.0
            },
            {
                "start_time": 38.3363636,
                "end_time": 38.5363636,
                "pitch": 67,
                "velocity": 101,
                "duration": 0.2,
                "tempo": 120.0
            },
            {
                "start_time": 38.5363636,
                "end_time": 38.7363636,
                "pitch": 64,
                "velocity": 101,
                "duration": 0.2,
                "tempo": 120.0
            },
            {
                "start_time": 38.7363636,
                "end_time": 38.9386364,
                "pitch": 65,
                "velocity": 101,
                "duration": 0.2022727,
                "tempo": 120.0
            },
            {
                "start_time": 38.9386364,
                "end_time": 39.1386364,
                "pitch": 67,
                "velocity": 101,
                "duration": 0.2,
                "tempo": 120.0
            },
            {
                "start_time": 39.1386364,
                "end_time": 39.3386364,
                "pitch": 64,
                "velocity": 101,
                "duration": 0.2,
                "tempo": 120.0
            },
            {
                "start_time": 39.3386364,
                "end_time": 39.5386364,
                "pitch": 65,
                "velocity": 101,
                "duration": 0.2,
                "tempo": 120.0
            },
            {
                "start_time": 39.5386364,
                "end_time": 39.7068182,
                "pitch": 67,
                "velocity": 101,
                "duration": 0.1681818,
                "tempo": 120.0
            },
            {
                "start_time": 39.7068182,
                "end_time": 39.8931818,
                "pitch": 64,
                "velocity": 101,
                "duration": 0.1863636,
                "tempo": 120.0
            },
            {
                "start_time": 39.8931818,
                "end_time": 40.0772727,
                "pitch": 65,
                "velocity": 101,
                "duration": 0.1840909,
                "tempo": 120.0
            },
            {
                "start_time": 40.0772727,
                "end_time": 40.2795455,
                "pitch": 67,
                "velocity": 101,
                "duration": 0.2022727,
                "tempo": 120.0
            },
            {
                "start_time": 40.2795455,
                "end_time": 40.4818182,
                "pitch": 64,
                "velocity": 101,
                "duration": 0.2022727,
                "tempo": 120.0
            },
            {
                "start_time": 40.4818182,
                "end_time": 40.6818182,
                "pitch": 61,
                "velocity": 101,
                "duration": 0.2,
                "tempo": 120.0
            },
            {
                "start_time": 40.6818182,
                "end_time": 40.8818182,
                "pitch": 62,
                "velocity": 101,
                "duration": 0.2,
                "tempo": 120.0
            },
            {
                "start_time": 40.8818182,
                "end_time": 41.0818182,
                "pitch": 64,
                "velocity": 101,
                "duration": 0.2,
                "tempo": 120.0
            },
            {
                "start_time": 41.0818182,
                "end_time": 41.2818182,
                "pitch": 61,
                "velocity": 101,
                "duration": 0.2,
                "tempo": 120.0
            },
            {
                "start_time": 41.2818182,
                "end_time": 41.4818182,
                "pitch": 62,
                "velocity": 101,
                "duration": 0.2,
                "tempo": 120.0
            },
            {
                "start_time": 41.4818182,
                "end_time": 41.6818182,
                "pitch": 64,
                "velocity": 101,
                "duration": 0.2,
                "tempo": 120.0
            },
            {
                "start_time": 41.6818182,
                "end_time": 41.8409091,
                "pitch": 61,
                "velocity": 101,
                "duration": 0.1590909,
                "tempo": 120.0
            },
            {
                "start_time": 41.8409091,
                "end_time": 42.0409091,
                "pitch": 62,
                "velocity": 101,
                "duration": 0.2,
                "tempo": 120.0
            },
            {
                "start_time": 42.0409091,
                "end_time": 42.2272727,
                "pitch": 64,
                "velocity": 101,
                "duration": 0.1863636,
                "tempo": 120.0
            },
            {
                "start_time": 42.2272727,
                "end_time": 42.4113636,
                "pitch": 65,
                "velocity": 101,
                "duration": 0.1840909,
                "tempo": 120.0
            },
            {
                "start_time": 42.4113636,
                "end_time": 42.6113636,
                "pitch": 67,
                "velocity": 101,
                "duration": 0.2,
                "tempo": 120.0
            },
            {
                "start_time": 42.6113636,
                "end_time": 42.8113636,
                "pitch": 64,
                "velocity": 101,
                "duration": 0.2,
                "tempo": 120.0
            },
            {
                "start_time": 42.8113636,
                "end_time": 43.0113636,
                "pitch": 65,
                "velocity": 101,
                "duration": 0.2,
                "tempo": 120.0
            },
            {
                "start_time": 43.0113636,
                "end_time": 43.2113636,
                "pitch": 67,
                "velocity": 101,
                "duration": 0.2,
                "tempo": 120.0
            },
            {
                "start_time": 43.2113636,
                "end_time": 43.4113636,
                "pitch": 64,
                "velocity": 101,
                "duration": 0.2,
                "tempo": 120.0
            },
            {
                "start_time": 43.4113636,
                "end_time": 43.6113636,
                "pitch": 67,
                "velocity": 101,
                "duration": 0.2,
                "tempo": 120.0
            },
            {
                "start_time": 43.6113636,
                "end_time": 43.8068182,
                "pitch": 62,
                "velocity": 101,
                "duration": 0.1954545,
                "tempo": 120.0
            },
            {
                "start_time": 43.8068182,
                "end_time": 43.975,
                "pitch": 64,
                "velocity": 101,
                "duration": 0.1681818,
                "tempo": 120.0
            },
            {
                "start_time": 43.975,
                "end_time": 44.1590909,
                "pitch": 65,
                "velocity": 101,
                "duration": 0.1840909,
                "tempo": 120.0
            },
            {
                "start_time": 44.1590909,
                "end_time": 44.3454545,
                "pitch": 62,
                "velocity": 101,
                "duration": 0.1863636,
                "tempo": 120.0
            },
            {
                "start_time": 44.3454545,
                "end_time": 44.5454545,
                "pitch": 64,
                "velocity": 101,
                "duration": 0.2,
                "tempo": 120.0
            },
            {
                "start_time": 44.5454545,
                "end_time": 44.7454545,
                "pitch": 65,
                "velocity": 101,
                "duration": 0.2,
                "tempo": 120.0
            },
            {
                "start_time": 44.7454545,
                "end_time": 44.9454545,
                "pitch": 62,
                "velocity": 101,
                "duration": 0.2,
                "tempo": 120.0
            },
            {
                "start_time": 44.9454545,
                "end_time": 45.1454545,
                "pitch": 64,
                "velocity": 101,
                "duration": 0.2,
                "tempo": 120.0
            },
            {
                "start_time": 45.1454545,
                "end_time": 45.3454545,
                "pitch": 65,
                "velocity": 101,
                "duration": 0.2,
                "tempo": 120.0
            },
            {
                "start_time": 45.3454545,
                "end_time": 45.5454545,
                "pitch": 62,
                "velocity": 101,
                "duration": 0.2,
                "tempo": 120.0
            },
            {
                "start_time": 45.5454545,
                "end_time": 45.7454545,
                "pitch": 64,
                "velocity": 101,
                "duration": 0.2,
                "tempo": 120.0
            },
            {
                "start_time": 45.7454545,
                "end_time": 45.9454545,
                "pitch": 65,
                "velocity": 101,
                "duration": 0.2,
                "tempo": 120.0
            },
            {
                "start_time": 45.9454545,
                "end_time": 46.1159091,
                "pitch": 62,
                "velocity": 101,
                "duration": 0.1704545,
                "tempo": 120.0
            },
            {
                "start_time": 46.1159091,
                "end_time": 46.3159091,
                "pitch": 64,
                "velocity": 101,
                "duration": 0.2,
                "tempo": 120.0
            },
            {
                "start_time": 46.3159091,
                "end_time": 46.5022727,
                "pitch": 65,
                "velocity": 101,
                "duration": 0.1863636,
                "tempo": 120.0
            },
            {
                "start_time": 46.5022727,
                "end_time": 46.6863636,
                "pitch": 62,
                "velocity": 101,
                "duration": 0.1840909,
                "tempo": 120.0
            },
            {
                "start_time": 46.6863636,
                "end_time": 46.8863636,
                "pitch": 59,
                "velocity": 101,
                "duration": 0.2,
                "tempo": 120.0
            },
            {
                "start_time": 46.8863636,
                "end_time": 47.0863636,
                "pitch": 60,
                "velocity": 101,
                "duration": 0.2,
                "tempo": 120.0
            },
            {
                "start_time": 47.0863636,
                "end_time": 47.2863636,
                "pitch": 62,
                "velocity": 101,
                "duration": 0.2,
                "tempo": 120.0
            },
            {
                "start_time": 47.2863636,
                "end_time": 47.4863636,
                "pitch": 59,
                "velocity": 101,
                "duration": 0.2,
                "tempo": 120.0
            },
            {
                "start_time": 47.4863636,
                "end_time": 47.6886364,
                "pitch": 60,
                "velocity": 101,
                "duration": 0.2022727,
                "tempo": 120.0
            },
            {
                "start_time": 47.6886364,
                "end_time": 47.8909091,
                "pitch": 62,
                "velocity": 101,
                "duration": 0.2022727,
                "tempo": 120.0
            },
            {
                "start_time": 47.8909091,
                "end_time": 48.0909091,
                "pitch": 59,
                "velocity": 101,
                "duration": 0.2,
                "tempo": 120.0
            },
            {
                "start_time": 48.0909091,
                "end_time": 48.2590909,
                "pitch": 60,
                "velocity": 101,
                "duration": 0.1681818,
                "tempo": 120.0
            },
            {
                "start_time": 48.2590909,
                "end_time": 48.4454545,
                "pitch": 62,
                "velocity": 101,
                "duration": 0.1863636,
                "tempo": 120.0
            },
            {
                "start_time": 48.4454545,
                "end_time": 48.6295455,
                "pitch": 59,
                "velocity": 101,
                "duration": 0.1840909,
                "tempo": 120.0
            },
            {
                "start_time": 48.6295455,
                "end_time": 48.8295455,
                "pitch": 60,
                "velocity": 101,
                "duration": 0.2,
                "tempo": 120.0
            },
            {
                "start_time": 48.8295455,
                "end_time": 49.0295455,
                "pitch": 62,
                "velocity": 101,
                "duration": 0.2,
                "tempo": 120.0
            },
            {
                "start_time": 49.0295455,
                "end_time": 49.2295455,
                "pitch": 59,
                "velocity": 101,
                "duration": 0.2,
                "tempo": 120.0
            },
            {
                "start_time": 49.2295455,
                "end_time": 49.4295455,
                "pitch": 60,
                "velocity": 101,
                "duration": 0.2,
                "tempo": 120.0
            },
            {
                "start_time": 49.4295455,
                "end_time": 49.6318182,
                "pitch": 62,
                "velocity": 101,
                "duration": 0.2022727,
                "tempo": 120.0
            },
            {
                "start_time": 49.6318182,
                "end_time": 49.8340909,
                "pitch": 59,
                "velocity": 101,
                "duration": 0.2022727,
                "tempo": 120.0
            },
            {
                "start_time": 49.8340909,
                "end_time": 50.0340909,
                "pitch": 53,
                "velocity": 101,
                "duration": 0.2,
                "tempo": 120.0
            },
            {
                "start_time": 50.0340909,
                "end_time": 50.1931818,
                "pitch": 55,
                "velocity": 101,
                "duration": 0.1590909,
                "tempo": 120.0
            },
            {
                "start_time": 50.1931818,
                "end_time": 50.3795455,
                "pitch": 57,
                "velocity": 101,
                "duration": 0.1863636,
                "tempo": 120.0
            },
            {
                "start_time": 50.3795455,
                "end_time": 50.5636364,
                "pitch": 53,
                "velocity": 101,
                "duration": 0.1840909,
                "tempo": 120.0
            },
            {
                "start_time": 50.5636364,
                "end_time": 50.7613636,
                "pitch": 55,
                "velocity": 101,
                "duration": 0.1977273,
                "tempo": 120.0
            },
            {
                "start_time": 50.7613636,
                "end_time": 50.9568182,
                "pitch": 57,
                "velocity": 101,
                "duration": 0.1954545,
                "tempo": 120.0
            },
            {
                "start_time": 50.9568182,
                "end_time": 51.1613636,
                "pitch": 53,
                "velocity": 101,
                "duration": 0.2045455,
                "tempo": 120.0
            },
            {
                "start_time": 51.1613636,
                "end_time": 51.3659091,
                "pitch": 55,
                "velocity": 101,
                "duration": 0.2045455,
                "tempo": 120.0
            },
            {
                "start_time": 51.3659091,
                "end_time": 51.5681818,
                "pitch": 55,
                "velocity": 101,
                "duration": 0.2022727,
                "tempo": 120.0
            },
            {
                "start_time": 51.5681818,
                "end_time": 51.7681818,
                "pitch": 57,
                "velocity": 101,
                "duration": 0.2,
                "tempo": 120.0
            },
            {
                "start_time": 51.7681818,
                "end_time": 51.9636364,
                "pitch": 59,
                "velocity": 101,
                "duration": 0.1954545,
                "tempo": 120.0
            },
            {
                "start_time": 51.9636364,
                "end_time": 52.1590909,
                "pitch": 55,
                "velocity": 101,
                "duration": 0.1954545,
                "tempo": 120.0
            },
            {
                "start_time": 52.1590909,
                "end_time": 52.3295455,
                "pitch": 57,
                "velocity": 101,
                "duration": 0.1704545,
                "tempo": 120.0
            },
            {
                "start_time": 52.3295455,
                "end_time": 52.5295455,
                "pitch": 59,
                "velocity": 101,
                "duration": 0.2,
                "tempo": 120.0
            },
            {
                "start_time": 52.5295455,
                "end_time": 52.7136364,
                "pitch": 55,
                "velocity": 101,
                "duration": 0.1840909,
                "tempo": 120.0
            },
            {
                "start_time": 52.7136364,
                "end_time": 52.9,
                "pitch": 59,
                "velocity": 101,
                "duration": 0.1863636,
                "tempo": 120.0
            },
            {
                "start_time": 52.9,
                "end_time": 53.1,
                "pitch": 56,
                "velocity": 101,
                "duration": 0.2,
                "tempo": 120.0
            },
            {
                "start_time": 53.1,
                "end_time": 53.3022727,
                "pitch": 57,
                "velocity": 101,
                "duration": 0.2022727,
                "tempo": 120.0
            },
            {
                "start_time": 53.3022727,
                "end_time": 53.5022727,
                "pitch": 59,
                "velocity": 101,
                "duration": 0.2,
                "tempo": 120.0
            },
            {
                "start_time": 53.5022727,
                "end_time": 53.7022727,
                "pitch": 56,
                "velocity": 101,
                "duration": 0.2,
                "tempo": 120.0
            },
            {
                "start_time": 53.7022727,
                "end_time": 53.9022727,
                "pitch": 57,
                "velocity": 101,
                "duration": 0.2,
                "tempo": 120.0
            },
            {
                "start_time": 53.9022727,
                "end_time": 54.1022727,
                "pitch": 59,
                "velocity": 101,
                "duration": 0.2,
                "tempo": 120.0
            },
            {
                "start_time": 54.1022727,
                "end_time": 54.3022727,
                "pitch": 56,
                "velocity": 101,
                "duration": 0.2,
                "tempo": 120.0
            },
            {
                "start_time": 54.3022727,
                "end_time": 54.4727273,
                "pitch": 59,
                "velocity": 101,
                "duration": 0.1704545,
                "tempo": 120.0
            },
            {
                "start_time": 54.4727273,
                "end_time": 54.6568182,
                "pitch": 57,
                "velocity": 101,
                "duration": 0.1840909,
                "tempo": 120.0
            },
            {
                "start_time": 54.6568182,
                "end_time": 54.8431818,
                "pitch": 59,
                "velocity": 101,
                "duration": 0.1863636,
                "tempo": 120.0
            },
            {
                "start_time": 54.8431818,
                "end_time": 55.0431818,
                "pitch": 60,
                "velocity": 101,
                "duration": 0.2,
                "tempo": 120.0
            },
            {
                "start_time": 55.0431818,
                "end_time": 55.2454545,
                "pitch": 57,
                "velocity": 101,
                "duration": 0.2022727,
                "tempo": 120.0
            },
            {
                "start_time": 55.2454545,
                "end_time": 55.4454545,
                "pitch": 64,
                "velocity": 101,
                "duration": 0.2,
                "tempo": 120.0
            },
            {
                "start_time": 55.4454545,
                "end_time": 55.6454545,
                "pitch": 62,
                "velocity": 101,
                "duration": 0.2,
                "tempo": 120.0
            },
            {
                "start_time": 55.6454545,
                "end_time": 55.8454545,
                "pitch": 60,
                "velocity": 101,
                "duration": 0.2,
                "tempo": 120.0
            },
            {
                "start_time": 55.8454545,
                "end_time": 56.0454545,
                "pitch": 55,
                "velocity": 101,
                "duration": 0.2,
                "tempo": 120.0
            },
            {
                "start_time": 56.0454545,
                "end_time": 56.2454545,
                "pitch": 53,
                "velocity": 101,
                "duration": 0.2,
                "tempo": 120.0
            },
            {
                "start_time": 56.2454545,
                "end_time": 56.4454545,
                "pitch": 55,
                "velocity": 101,
                "duration": 0.2,
                "tempo": 120.0
            },
            {
                "start_time": 56.4454545,
                "end_time": 56.6045455,
                "pitch": 57,
                "velocity": 101,
                "duration": 0.1590909,
                "tempo": 120.0
            },
            {
                "start_time": 56.6045455,
                "end_time": 56.8045455,
                "pitch": 53,
                "velocity": 101,
                "duration": 0.2,
                "tempo": 120.0
            },
            {
                "start_time": 56.8045455,
                "end_time": 56.9909091,
                "pitch": 55,
                "velocity": 101,
                "duration": 0.1863636,
                "tempo": 120.0
            },
            {
                "start_time": 56.9909091,
                "end_time": 57.1772727,
                "pitch": 57,
                "velocity": 101,
                "duration": 0.1863636,
                "tempo": 120.0
            },
            {
                "start_time": 57.1772727,
                "end_time": 57.375,
                "pitch": 53,
                "velocity": 101,
                "duration": 0.1977273,
                "tempo": 120.0
            },
            {
                "start_time": 57.375,
                "end_time": 57.575,
                "pitch": 57,
                "velocity": 101,
                "duration": 0.2,
                "tempo": 120.0
            },
            {
                "start_time": 57.575,
                "end_time": 57.775,
                "pitch": 55,
                "velocity": 101,
                "duration": 0.2,
                "tempo": 120.0
            },
            {
                "start_time": 57.775,
                "end_time": 57.975,
                "pitch": 57,
                "velocity": 101,
                "duration": 0.2,
                "tempo": 120.0
            },
            {
                "start_time": 57.975,
                "end_time": 58.175,
                "pitch": 59,
                "velocity": 101,
                "duration": 0.2,
                "tempo": 120.0
            },
            {
                "start_time": 58.175,
                "end_time": 58.375,
                "pitch": 55,
                "velocity": 101,
                "duration": 0.2,
                "tempo": 120.0
            },
            {
                "start_time": 58.375,
                "end_time": 58.5727273,
                "pitch": 57,
                "velocity": 101,
                "duration": 0.1977273,
                "tempo": 120.0
            },
            {
                "start_time": 58.5727273,
                "end_time": 58.7386364,
                "pitch": 59,
                "velocity": 101,
                "duration": 0.1659091,
                "tempo": 120.0
            },
            {
                "start_time": 58.7386364,
                "end_time": 58.9227273,
                "pitch": 55,
                "velocity": 101,
                "duration": 0.1840909,
                "tempo": 120.0
            },
            {
                "start_time": 58.9227273,
                "end_time": 59.1090909,
                "pitch": 62,
                "velocity": 101,
                "duration": 0.1863636,
                "tempo": 120.0
            },
            {
                "start_time": 59.1090909,
                "end_time": 59.3090909,
                "pitch": 60,
                "velocity": 101,
                "duration": 0.2,
                "tempo": 120.0
            },
            {
                "start_time": 59.3090909,
                "end_time": 59.5090909,
                "pitch": 60,
                "velocity": 101,
                "duration": 0.2,
                "tempo": 120.0
            },
            {
                "start_time": 59.5090909,
                "end_time": 59.7090909,
                "pitch": 60,
                "velocity": 101,
                "duration": 0.2,
                "tempo": 120.0
            },
            {
                "start_time": 59.7090909,
                "end_time": 59.9090909,
                "pitch": 60,
                "velocity": 101,
                "duration": 0.2,
                "tempo": 120.0
            },
            {
                "start_time": 59.9090909,
                "end_time": 60.1090909,
                "pitch": 59,
                "velocity": 101,
                "duration": 0.2,
                "tempo": 120.0
            },
            {
                "start_time": 60.1090909,
                "end_time": 60.3090909,
                "pitch": 59,
                "velocity": 101,
                "duration": 0.2,
                "tempo": 120.0
            },
            {
                "start_time": 60.3090909,
                "end_time": 60.5090909,
                "pitch": 59,
                "velocity": 101,
                "duration": 0.2,
                "tempo": 120.0
            },
            {
                "start_time": 60.5090909,
                "end_time": 60.7113636,
                "pitch": 59,
                "velocity": 101,
                "duration": 0.2022727,
                "tempo": 120.0
            },
            {
                "start_time": 60.7113636,
                "end_time": 60.8818182,
                "pitch": 57,
                "velocity": 101,
                "duration": 0.1704545,
                "tempo": 120.0
            },
            {
                "start_time": 60.8818182,
                "end_time": 61.0818182,
                "pitch": 57,
                "velocity": 101,
                "duration": 0.2,
                "tempo": 120.0
            },
            {
                "start_time": 61.0818182,
                "end_time": 61.2659091,
                "pitch": 57,
                "velocity": 101,
                "duration": 0.1840909,
                "tempo": 120.0
            },
            {
                "start_time": 61.2659091,
                "end_time": 61.4522727,
                "pitch": 57,
                "velocity": 101,
                "duration": 0.1863636,
                "tempo": 120.0
            },
            {
                "start_time": 61.4522727,
                "end_time": 61.6522727,
                "pitch": 59,
                "velocity": 101,
                "duration": 0.2,
                "tempo": 120.0
            },
            {
                "start_time": 61.6522727,
                "end_time": 61.8522727,
                "pitch": 59,
                "velocity": 101,
                "duration": 0.2,
                "tempo": 120.0
            },
            {
                "start_time": 61.8522727,
                "end_time": 62.0522727,
                "pitch": 59,
                "velocity": 101,
                "duration": 0.2,
                "tempo": 120.0
            },
            {
                "start_time": 62.0522727,
                "end_time": 62.2522727,
                "pitch": 59,
                "velocity": 101,
                "duration": 0.2,
                "tempo": 120.0
            },
            {
                "start_time": 62.2522727,
                "end_time": 62.4522727,
                "pitch": 64,
                "velocity": 101,
                "duration": 0.2,
                "tempo": 120.0
            },
            {
                "start_time": 62.4522727,
                "end_time": 62.6545455,
                "pitch": 64,
                "velocity": 101,
                "duration": 0.2022727,
                "tempo": 120.0
            }
        ],
        "Electric Guitar (clean)": [
            {
                "start_time": 0.2090909,
                "end_time": 0.4090909,
                "pitch": 48,
                "velocity": 80,
                "duration": 0.2,
                "tempo": 120.0
            },
            {
                "start_time": 0.4090909,
                "end_time": 0.6090909,
                "pitch": 48,
                "velocity": 80,
                "duration": 0.2,
                "tempo": 120.0
            },
            {
                "start_time": 0.6090909,
                "end_time": 0.8090909,
                "pitch": 48,
                "velocity": 80,
                "duration": 0.2,
                "tempo": 120.0
            },
            {
                "start_time": 0.8090909,
                "end_time": 1.0068182,
                "pitch": 48,
                "velocity": 80,
                "duration": 0.1977273,
                "tempo": 120.0
            },
            {
                "start_time": 1.0068182,
                "end_time": 1.2022727,
                "pitch": 48,
                "velocity": 80,
                "duration": 0.1954545,
                "tempo": 120.0
            },
            {
                "start_time": 1.2022727,
                "end_time": 1.4022727,
                "pitch": 48,
                "velocity": 80,
                "duration": 0.2,
                "tempo": 120.0
            },
            {
                "start_time": 1.4022727,
                "end_time": 1.7727273,
                "pitch": 47,
                "velocity": 80,
                "duration": 0.3704545,
                "tempo": 120.0
            },
            {
                "start_time": 1.7727273,
                "end_time": 1.975,
                "pitch": 47,
                "velocity": 80,
                "duration": 0.2022727,
                "tempo": 120.0
            },
            {
                "start_time": 1.975,
                "end_time": 2.1590909,
                "pitch": 47,
                "velocity": 80,
                "duration": 0.1840909,
                "tempo": 120.0
            },
            {
                "start_time": 2.1590909,
                "end_time": 2.3454545,
                "pitch": 47,
                "velocity": 80,
                "duration": 0.1863636,
                "tempo": 120.0
            },
            {
                "start_time": 2.3454545,
                "end_time": 2.5454545,
                "pitch": 47,
                "velocity": 80,
                "duration": 0.2,
                "tempo": 120.0
            },
            {
                "start_time": 2.5454545,
                "end_time": 2.7454545,
                "pitch": 47,
                "velocity": 80,
                "duration": 0.2,
                "tempo": 120.0
            },
            {
                "start_time": 2.7454545,
                "end_time": 2.9454545,
                "pitch": 47,
                "velocity": 80,
                "duration": 0.2,
                "tempo": 120.0
            },
            {
                "start_time": 2.9454545,
                "end_time": 3.3454545,
                "pitch": 45,
                "velocity": 80,
                "duration": 0.4,
                "tempo": 120.0
            },
            {
                "start_time": 3.3454545,
                "end_time": 3.5477273,
                "pitch": 45,
                "velocity": 80,
                "duration": 0.2022727,
                "tempo": 120.0
            },
            {
                "start_time": 3.5477273,
                "end_time": 3.7477273,
                "pitch": 45,
                "velocity": 80,
                "duration": 0.2,
                "tempo": 120.0
            },
            {
                "start_time": 3.7477273,
                "end_time": 3.9181818,
                "pitch": 45,
                "velocity": 80,
                "duration": 0.1704545,
                "tempo": 120.0
            },
            {
                "start_time": 3.9181818,
                "end_time": 4.1022727,
                "pitch": 45,
                "velocity": 80,
                "duration": 0.1840909,
                "tempo": 120.0
            },
            {
                "start_time": 4.1022727,
                "end_time": 4.2886364,
                "pitch": 45,
                "velocity": 80,
                "duration": 0.1863636,
                "tempo": 120.0
            },
            {
                "start_time": 4.2886364,
                "end_time": 4.4886364,
                "pitch": 45,
                "velocity": 80,
                "duration": 0.2,
                "tempo": 120.0
            },
            {
                "start_time": 4.4886364,
                "end_time": 4.8886364,
                "pitch": 43,
                "velocity": 80,
                "duration": 0.4,
                "tempo": 120.0
            },
            {
                "start_time": 4.8886364,
                "end_time": 5.0909091,
                "pitch": 43,
                "velocity": 80,
                "duration": 0.2022727,
                "tempo": 120.0
            },
            {
                "start_time": 5.0909091,
                "end_time": 5.2931818,
                "pitch": 43,
                "velocity": 80,
                "duration": 0.2022727,
                "tempo": 120.0
            },
            {
                "start_time": 5.2931818,
                "end_time": 5.6931818,
                "pitch": 44,
                "velocity": 80,
                "duration": 0.4,
                "tempo": 120.0
            },
            {
                "start_time": 5.6931818,
                "end_time": 5.8931818,
                "pitch": 44,
                "velocity": 80,
                "duration": 0.2,
                "tempo": 120.0
            },
            {
                "start_time": 5.8931818,
                "end_time": 6.0636364,
                "pitch": 44,
                "velocity": 80,
                "duration": 0.1704545,
                "tempo": 120.0
            },
            {
                "start_time": 6.0636364,
                "end_time": 6.4363636,
                "pitch": 45,
                "velocity": 80,
                "duration": 0.3727273,
                "tempo": 120.0
            },
            {
                "start_time": 6.4363636,
                "end_time": 6.6181818,
                "pitch": 45,
                "velocity": 80,
                "duration": 0.1818182,
                "tempo": 120.0
            },
            {
                "start_time": 6.6181818,
                "end_time": 6.8181818,
                "pitch": 45,
                "velocity": 80,
                "duration": 0.2,
                "tempo": 120.0
            },
            {
                "start_time": 6.8181818,
                "end_time": 7.0204545,
                "pitch": 45,
                "velocity": 80,
                "duration": 0.2022727,
                "tempo": 120.0
            },
            {
                "start_time": 7.0204545,
                "end_time": 7.2318182,
                "pitch": 45,
                "velocity": 80,
                "duration": 0.2113636,
                "tempo": 120.0
            },
            {
                "start_time": 7.2318182,
                "end_time": 7.4227273,
                "pitch": 45,
                "velocity": 80,
                "duration": 0.1909091,
                "tempo": 120.0
            },
            {
                "start_time": 7.4227273,
                "end_time": 7.6386364,
                "pitch": 45,
                "velocity": 80,
                "duration": 0.2159091,
                "tempo": 120.0
            },
            {
                "start_time": 7.6386364,
                "end_time": 8.0295455,
                "pitch": 50,
                "velocity": 80,
                "duration": 0.3909091,
                "tempo": 120.0
            },
            {
                "start_time": 8.0295455,
                "end_time": 8.1954545,
                "pitch": 50,
                "velocity": 80,
                "duration": 0.1659091,
                "tempo": 120.0
            },
            {
                "start_time": 8.1954545,
                "end_time": 8.3818182,
                "pitch": 50,
                "velocity": 80,
                "duration": 0.1863636,
                "tempo": 120.0
            },
            {
                "start_time": 8.3818182,
                "end_time": 8.5659091,
                "pitch": 50,
                "velocity": 80,
                "duration": 0.1840909,
                "tempo": 120.0
            },
            {
                "start_time": 8.5659091,
                "end_time": 8.7681818,
                "pitch": 50,
                "velocity": 80,
                "duration": 0.2022727,
                "tempo": 120.0
            },
            {
                "start_time": 8.7681818,
                "end_time": 8.9681818,
                "pitch": 50,
                "velocity": 80,
                "duration": 0.2,
                "tempo": 120.0
            },
            {
                "start_time": 8.9681818,
                "end_time": 9.1704545,
                "pitch": 50,
                "velocity": 80,
                "duration": 0.2022727,
                "tempo": 120.0
            },
            {
                "start_time": 9.1704545,
                "end_time": 9.3727273,
                "pitch": 50,
                "velocity": 80,
                "duration": 0.2022727,
                "tempo": 120.0
            },
            {
                "start_time": 9.3727273,
                "end_time": 9.5727273,
                "pitch": 43,
                "velocity": 80,
                "duration": 0.2,
                "tempo": 120.0
            },
            {
                "start_time": 9.5727273,
                "end_time": 9.775,
                "pitch": 43,
                "velocity": 80,
                "duration": 0.2022727,
                "tempo": 120.0
            },
            {
                "start_time": 9.775,
                "end_time": 9.975,
                "pitch": 43,
                "velocity": 80,
                "duration": 0.2,
                "tempo": 120.0
            },
            {
                "start_time": 9.975,
                "end_time": 10.1772727,
                "pitch": 43,
                "velocity": 80,
                "duration": 0.2022727,
                "tempo": 120.0
            },
            {
                "start_time": 10.1772727,
                "end_time": 10.3477273,
                "pitch": 43,
                "velocity": 80,
                "duration": 0.1704545,
                "tempo": 120.0
            },
            {
                "start_time": 10.3477273,
                "end_time": 10.5477273,
                "pitch": 43,
                "velocity": 80,
                "duration": 0.2,
                "tempo": 120.0
            },
            {
                "start_time": 10.5477273,
                "end_time": 10.7318182,
                "pitch": 43,
                "velocity": 80,
                "duration": 0.1840909,
                "tempo": 120.0
            },
            {
                "start_time": 10.7318182,
                "end_time": 10.9181818,
                "pitch": 43,
                "velocity": 80,
                "duration": 0.1863636,
                "tempo": 120.0
            },
            {
                "start_time": 10.9181818,
                "end_time": 11.1181818,
                "pitch": 43,
                "velocity": 80,
                "duration": 0.2,
                "tempo": 120.0
            },
            {
                "start_time": 11.1181818,
                "end_time": 11.3204545,
                "pitch": 43,
                "velocity": 80,
                "duration": 0.2022727,
                "tempo": 120.0
            },
            {
                "start_time": 11.3204545,
                "end_time": 11.5204545,
                "pitch": 43,
                "velocity": 80,
                "duration": 0.2,
                "tempo": 120.0
            },
            {
                "start_time": 11.5204545,
                "end_time": 11.7204545,
                "pitch": 47,
                "velocity": 80,
                "duration": 0.2,
                "tempo": 120.0
            },
            {
                "start_time": 11.7204545,
                "end_time": 11.9227273,
                "pitch": 47,
                "velocity": 80,
                "duration": 0.2022727,
                "tempo": 120.0
            },
            {
                "start_time": 11.9227273,
                "end_time": 12.1227273,
                "pitch": 47,
                "velocity": 80,
                "duration": 0.2,
                "tempo": 120.0
            },
            {
                "start_time": 12.1227273,
                "end_time": 12.2840909,
                "pitch": 50,
                "velocity": 80,
                "duration": 0.1613636,
                "tempo": 120.0
            },
            {
                "start_time": 12.2840909,
                "end_time": 12.4954545,
                "pitch": 50,
                "velocity": 80,
                "duration": 0.2113636,
                "tempo": 120.0
            },
            {
                "start_time": 12.4954545,
                "end_time": 12.6818182,
                "pitch": 48,
                "velocity": 80,
                "duration": 0.1863636,
                "tempo": 120.0
            },
            {
                "start_time": 12.6818182,
                "end_time": 12.8659091,
                "pitch": 48,
                "velocity": 80,
                "duration": 0.1840909,
                "tempo": 120.0
            },
            {
                "start_time": 12.8659091,
                "end_time": 13.0568182,
                "pitch": 48,
                "velocity": 80,
                "duration": 0.1909091,
                "tempo": 120.0
            },
            {
                "start_time": 13.0681818,
                "end_time": 13.2681818,
                "pitch": 48,
                "velocity": 80,
                "duration": 0.2,
                "tempo": 120.0
            },
            {
                "start_time": 13.2681818,
                "end_time": 13.4704545,
                "pitch": 48,
                "velocity": 80,
                "duration": 0.2022727,
                "tempo": 120.0
            },
            {
                "start_time": 13.4704545,
                "end_time": 13.6704545,
                "pitch": 48,
                "velocity": 80,
                "duration": 0.2,
                "tempo": 120.0
            },
            {
                "start_time": 13.6704545,
                "end_time": 13.8727273,
                "pitch": 48,
                "velocity": 80,
                "duration": 0.2022727,
                "tempo": 120.0
            },
            {
                "start_time": 13.8727273,
                "end_time": 14.275,
                "pitch": 47,
                "velocity": 80,
                "duration": 0.4022727,
                "tempo": 120.0
            },
            {
                "start_time": 14.275,
                "end_time": 14.4363636,
                "pitch": 47,
                "velocity": 80,
                "duration": 0.1613636,
                "tempo": 120.0
            },
            {
                "start_time": 14.4363636,
                "end_time": 14.6227273,
                "pitch": 47,
                "velocity": 80,
                "duration": 0.1863636,
                "tempo": 120.0
            },
            {
                "start_time": 14.6227273,
                "end_time": 14.8068182,
                "pitch": 47,
                "velocity": 80,
                "duration": 0.1840909,
                "tempo": 120.0
            },
            {
                "start_time": 14.8068182,
                "end_time": 15.0090909,
                "pitch": 47,
                "velocity": 80,
                "duration": 0.2022727,
                "tempo": 120.0
            },
            {
                "start_time": 15.0090909,
                "end_time": 15.2090909,
                "pitch": 47,
                "velocity": 80,
                "duration": 0.2,
                "tempo": 120.0
            },
            {
                "start_time": 15.2090909,
                "end_time": 15.4045455,
                "pitch": 47,
                "velocity": 80,
                "duration": 0.1954545,
                "tempo": 120.0
            },
            {
                "start_time": 15.4045455,
                "end_time": 15.8022727,
                "pitch": 45,
                "velocity": 80,
                "duration": 0.3977273,
                "tempo": 120.0
            },
            {
                "start_time": 15.8022727,
                "end_time": 16.0022727,
                "pitch": 45,
                "velocity": 80,
                "duration": 0.2,
                "tempo": 120.0
            },
            {
                "start_time": 16.0022727,
                "end_time": 16.2022727,
                "pitch": 45,
                "velocity": 80,
                "duration": 0.2,
                "tempo": 120.0
            },
            {
                "start_time": 16.2022727,
                "end_time": 16.4045455,
                "pitch": 45,
                "velocity": 80,
                "duration": 0.2022727,
                "tempo": 120.0
            },
            {
                "start_time": 16.4045455,
                "end_time": 16.575,
                "pitch": 45,
                "velocity": 80,
                "duration": 0.1704545,
                "tempo": 120.0
            },
            {
                "start_time": 16.575,
                "end_time": 16.775,
                "pitch": 45,
                "velocity": 80,
                "duration": 0.2,
                "tempo": 120.0
            },
            {
                "start_time": 16.775,
                "end_time": 16.9590909,
                "pitch": 45,
                "velocity": 80,
                "duration": 0.1840909,
                "tempo": 120.0
            },
            {
                "start_time": 16.9590909,
                "end_time": 17.3454545,
                "pitch": 43,
                "velocity": 80,
                "duration": 0.3863636,
                "tempo": 120.0
            },
            {
                "start_time": 17.3454545,
                "end_time": 17.5477273,
                "pitch": 43,
                "velocity": 80,
                "duration": 0.2022727,
                "tempo": 120.0
            },
            {
                "start_time": 17.5477273,
                "end_time": 17.7477273,
                "pitch": 43,
                "velocity": 80,
                "duration": 0.2,
                "tempo": 120.0
            },
            {
                "start_time": 17.7477273,
                "end_time": 18.1477273,
                "pitch": 44,
                "velocity": 80,
                "duration": 0.4,
                "tempo": 120.0
            },
            {
                "start_time": 18.1477273,
                "end_time": 18.3477273,
                "pitch": 44,
                "velocity": 80,
                "duration": 0.2,
                "tempo": 120.0
            },
            {
                "start_time": 18.3477273,
                "end_time": 18.5477273,
                "pitch": 44,
                "velocity": 80,
                "duration": 0.2,
                "tempo": 120.0
            },
            {
                "start_time": 18.5477273,
                "end_time": 18.7204545,
                "pitch": 44,
                "velocity": 80,
                "duration": 0.1727273,
                "tempo": 120.0
            },
            {
                "start_time": 18.7204545,
                "end_time": 18.9045455,
                "pitch": 45,
                "velocity": 80,
                "duration": 0.1840909,
                "tempo": 120.0
            },
            {
                "start_time": 18.9045455,
                "end_time": 19.0909091,
                "pitch": 45,
                "velocity": 80,
                "duration": 0.1863636,
                "tempo": 120.0
            },
            {
                "start_time": 19.0909091,
                "end_time": 19.2909091,
                "pitch": 45,
                "velocity": 80,
                "duration": 0.2,
                "tempo": 120.0
            },
            {
                "start_time": 19.2909091,
                "end_time": 19.4909091,
                "pitch": 45,
                "velocity": 80,
                "duration": 0.2,
                "tempo": 120.0
            },
            {
                "start_time": 19.4909091,
                "end_time": 19.6909091,
                "pitch": 45,
                "velocity": 80,
                "duration": 0.2,
                "tempo": 120.0
            },
            {
                "start_time": 19.6909091,
                "end_time": 19.8909091,
                "pitch": 45,
                "velocity": 80,
                "duration": 0.2,
                "tempo": 120.0
            },
            {
                "start_time": 19.8909091,
                "end_time": 20.0909091,
                "pitch": 45,
                "velocity": 80,
                "duration": 0.2,
                "tempo": 120.0
            },
            {
                "start_time": 20.0909091,
                "end_time": 20.4931818,
                "pitch": 50,
                "velocity": 80,
                "duration": 0.4022727,
                "tempo": 120.0
            },
            {
                "start_time": 20.4931818,
                "end_time": 20.6931818,
                "pitch": 50,
                "velocity": 80,
                "duration": 0.2,
                "tempo": 120.0
            },
            {
                "start_time": 20.6931818,
                "end_time": 20.85,
                "pitch": 50,
                "velocity": 80,
                "duration": 0.1568182,
                "tempo": 120.0
            },
            {
                "start_time": 20.85,
                "end_time": 21.0454545,
                "pitch": 50,
                "velocity": 80,
                "duration": 0.1954545,
                "tempo": 120.0
            },
            {
                "start_time": 21.0454545,
                "end_time": 21.2318182,
                "pitch": 50,
                "velocity": 80,
                "duration": 0.1863636,
                "tempo": 120.0
            },
            {
                "start_time": 21.2318182,
                "end_time": 21.4159091,
                "pitch": 50,
                "velocity": 80,
                "duration": 0.1840909,
                "tempo": 120.0
            },
            {
                "start_time": 21.4159091,
                "end_time": 21.6159091,
                "pitch": 50,
                "velocity": 80,
                "duration": 0.2,
                "tempo": 120.0
            },
            {
                "start_time": 21.6159091,
                "end_time": 21.825,
                "pitch": 50,
                "velocity": 80,
                "duration": 0.2090909,
                "tempo": 120.0
            },
            {
                "start_time": 21.825,
                "end_time": 22.0204545,
                "pitch": 43,
                "velocity": 80,
                "duration": 0.1954545,
                "tempo": 120.0
            },
            {
                "start_time": 22.0204545,
                "end_time": 22.2272727,
                "pitch": 43,
                "velocity": 80,
                "duration": 0.2068182,
                "tempo": 120.0
            },
            {
                "start_time": 22.2272727,
                "end_time": 22.4272727,
                "pitch": 43,
                "velocity": 80,
                "duration": 0.2,
                "tempo": 120.0
            },
            {
                "start_time": 22.4272727,
                "end_time": 22.6272727,
                "pitch": 43,
                "velocity": 80,
                "duration": 0.2,
                "tempo": 120.0
            },
            {
                "start_time": 22.6272727,
                "end_time": 22.8318182,
                "pitch": 43,
                "velocity": 80,
                "duration": 0.2045455,
                "tempo": 120.0
            },
            {
                "start_time": 22.8318182,
                "end_time": 22.9886364,
                "pitch": 43,
                "velocity": 80,
                "duration": 0.1568182,
                "tempo": 120.0
            },
            {
                "start_time": 22.9886364,
                "end_time": 23.175,
                "pitch": 43,
                "velocity": 80,
                "duration": 0.1863636,
                "tempo": 120.0
            },
            {
                "start_time": 23.175,
                "end_time": 23.3590909,
                "pitch": 43,
                "velocity": 80,
                "duration": 0.1840909,
                "tempo": 120.0
            },
            {
                "start_time": 23.3590909,
                "end_time": 23.5590909,
                "pitch": 43,
                "velocity": 80,
                "duration": 0.2,
                "tempo": 120.0
            },
            {
                "start_time": 23.5590909,
                "end_time": 23.7590909,
                "pitch": 43,
                "velocity": 80,
                "duration": 0.2,
                "tempo": 120.0
            },
            {
                "start_time": 23.7590909,
                "end_time": 23.9613636,
                "pitch": 43,
                "velocity": 80,
                "duration": 0.2022727,
                "tempo": 120.0
            },
            {
                "start_time": 23.9613636,
                "end_time": 24.1636364,
                "pitch": 47,
                "velocity": 80,
                "duration": 0.2022727,
                "tempo": 120.0
            },
            {
                "start_time": 24.1636364,
                "end_time": 24.3636364,
                "pitch": 47,
                "velocity": 80,
                "duration": 0.2,
                "tempo": 120.0
            },
            {
                "start_time": 24.3636364,
                "end_time": 24.5636364,
                "pitch": 47,
                "velocity": 80,
                "duration": 0.2,
                "tempo": 120.0
            },
            {
                "start_time": 24.5636364,
                "end_time": 24.7636364,
                "pitch": 50,
                "velocity": 80,
                "duration": 0.2,
                "tempo": 120.0
            },
            {
                "start_time": 24.7636364,
                "end_time": 24.9340909,
                "pitch": 50,
                "velocity": 80,
                "duration": 0.1704545,
                "tempo": 120.0
            },
            {
                "start_time": 24.9340909,
                "end_time": 25.7090909,
                "pitch": 41,
                "velocity": 80,
                "duration": 0.775,
                "tempo": 120.0
            },
            {
                "start_time": 26.1090909,
                "end_time": 26.3090909,
                "pitch": 41,
                "velocity": 80,
                "duration": 0.2,
                "tempo": 120.0
            },
            {
                "start_time": 26.3090909,
                "end_time": 27.2704545,
                "pitch": 43,
                "velocity": 80,
                "duration": 0.9613636,
                "tempo": 120.0
            },
            {
                "start_time": 27.6522727,
                "end_time": 27.8522727,
                "pitch": 43,
                "velocity": 80,
                "duration": 0.2,
                "tempo": 120.0
            },
            {
                "start_time": 27.8522727,
                "end_time": 28.8545455,
                "pitch": 44,
                "velocity": 80,
                "duration": 1.0022727,
                "tempo": 120.0
            },
            {
                "start_time": 29.2068182,
                "end_time": 29.3909091,
                "pitch": 44,
                "velocity": 80,
                "duration": 0.1840909,
                "tempo": 120.0
            },
            {
                "start_time": 29.3909091,
                "end_time": 29.5772727,
                "pitch": 45,
                "velocity": 80,
                "duration": 0.1863636,
                "tempo": 120.0
            },
            {
                "start_time": 29.5772727,
                "end_time": 29.9772727,
                "pitch": 45,
                "velocity": 80,
                "duration": 0.4,
                "tempo": 120.0
            },
            {
                "start_time": 30.1795455,
                "end_time": 30.7795455,
                "pitch": 43,
                "velocity": 80,
                "duration": 0.6,
                "tempo": 120.0
            },
            {
                "start_time": 31.1795455,
                "end_time": 31.7363636,
                "pitch": 41,
                "velocity": 80,
                "duration": 0.5568182,
                "tempo": 120.0
            },
            {
                "start_time": 31.7363636,
                "end_time": 32.3227273,
                "pitch": 38,
                "velocity": 80,
                "duration": 0.5863636,
                "tempo": 120.0
            },
            {
                "start_time": 32.3227273,
                "end_time": 32.7227273,
                "pitch": 41,
                "velocity": 80,
                "duration": 0.4,
                "tempo": 120.0
            },
            {
                "start_time": 32.7227273,
                "end_time": 33.325,
                "pitch": 40,
                "velocity": 80,
                "duration": 0.6022727,
                "tempo": 120.0
            },
            {
                "start_time": 33.325,
                "end_time": 33.8659091,
                "pitch": 36,
                "velocity": 80,
                "duration": 0.5409091,
                "tempo": 120.0
            },
            {
                "start_time": 33.8659091,
                "end_time": 34.2659091,
                "pitch": 40,
                "velocity": 80,
                "duration": 0.4,
                "tempo": 120.0
            },
            {
                "start_time": 34.2659091,
                "end_time": 34.8659091,
                "pitch": 41,
                "velocity": 80,
                "duration": 0.6,
                "tempo": 120.0
            },
            {
                "start_time": 34.8659091,
                "end_time": 35.4681818,
                "pitch": 38,
                "velocity": 80,
                "duration": 0.6022727,
                "tempo": 120.0
            },
            {
                "start_time": 35.4681818,
                "end_time": 35.8272727,
                "pitch": 41,
                "velocity": 80,
                "duration": 0.3590909,
                "tempo": 120.0
            },
            {
                "start_time": 35.8272727,
                "end_time": 36.3954545,
                "pitch": 43,
                "velocity": 80,
                "duration": 0.5681818,
                "tempo": 120.0
            },
            {
                "start_time": 36.3954545,
                "end_time": 36.9909091,
                "pitch": 47,
                "velocity": 80,
                "duration": 0.5954545,
                "tempo": 120.0
            },
            {
                "start_time": 36.9909091,
                "end_time": 37.4022727,
                "pitch": 50,
                "velocity": 80,
                "duration": 0.4113636,
                "tempo": 120.0
            },
            {
                "start_time": 37.4022727,
                "end_time": 37.4113636,
                "pitch": 48,
                "velocity": 80,
                "duration": 0.0090909,
                "tempo": 120.0
            },
            {
                "start_time": 37.4113636,
                "end_time": 37.5681818,
                "pitch": 48,
                "velocity": 80,
                "duration": 0.1568182,
                "tempo": 120.0
            },
            {
                "start_time": 37.5681818,
                "end_time": 37.7659091,
                "pitch": 48,
                "velocity": 80,
                "duration": 0.1977273,
                "tempo": 120.0
            },
            {
                "start_time": 37.7659091,
                "end_time": 37.95,
                "pitch": 48,
                "velocity": 80,
                "duration": 0.1840909,
                "tempo": 120.0
            },
            {
                "start_time": 37.95,
                "end_time": 38.1363636,
                "pitch": 48,
                "velocity": 80,
                "duration": 0.1863636,
                "tempo": 120.0
            },
            {
                "start_time": 38.1363636,
                "end_time": 38.3363636,
                "pitch": 48,
                "velocity": 80,
                "duration": 0.2,
                "tempo": 120.0
            },
            {
                "start_time": 38.3363636,
                "end_time": 38.5363636,
                "pitch": 48,
                "velocity": 80,
                "duration": 0.2,
                "tempo": 120.0
            },
            {
                "start_time": 38.5363636,
                "end_time": 38.7363636,
                "pitch": 48,
                "velocity": 80,
                "duration": 0.2,
                "tempo": 120.0
            },
            {
                "start_time": 38.7363636,
                "end_time": 38.9386364,
                "pitch": 48,
                "velocity": 80,
                "duration": 0.2022727,
                "tempo": 120.0
            },
            {
                "start_time": 38.9386364,
                "end_time": 39.1386364,
                "pitch": 47,
                "velocity": 80,
                "duration": 0.2,
                "tempo": 120.0
            },
            {
                "start_time": 39.1386364,
                "end_time": 39.3386364,
                "pitch": 47,
                "velocity": 80,
                "duration": 0.2,
                "tempo": 120.0
            },
            {
                "start_time": 39.3386364,
                "end_time": 39.5386364,
                "pitch": 47,
                "velocity": 80,
                "duration": 0.2,
                "tempo": 120.0
            },
            {
                "start_time": 39.5386364,
                "end_time": 39.7068182,
                "pitch": 47,
                "velocity": 80,
                "duration": 0.1681818,
                "tempo": 120.0
            },
            {
                "start_time": 39.7068182,
                "end_time": 39.8931818,
                "pitch": 47,
                "velocity": 80,
                "duration": 0.1863636,
                "tempo": 120.0
            },
            {
                "start_time": 39.8931818,
                "end_time": 40.0772727,
                "pitch": 47,
                "velocity": 80,
                "duration": 0.1840909,
                "tempo": 120.0
            },
            {
                "start_time": 40.0772727,
                "end_time": 40.2795455,
                "pitch": 47,
                "velocity": 80,
                "duration": 0.2022727,
                "tempo": 120.0
            },
            {
                "start_time": 40.2795455,
                "end_time": 40.4818182,
                "pitch": 47,
                "velocity": 80,
                "duration": 0.2022727,
                "tempo": 120.0
            },
            {
                "start_time": 40.4818182,
                "end_time": 40.6818182,
                "pitch": 46,
                "velocity": 80,
                "duration": 0.2,
                "tempo": 120.0
            },
            {
                "start_time": 40.6818182,
                "end_time": 40.8818182,
                "pitch": 46,
                "velocity": 80,
                "duration": 0.2,
                "tempo": 120.0
            },
            {
                "start_time": 40.8818182,
                "end_time": 41.0818182,
                "pitch": 46,
                "velocity": 80,
                "duration": 0.2,
                "tempo": 120.0
            },
            {
                "start_time": 41.0818182,
                "end_time": 41.2818182,
                "pitch": 46,
                "velocity": 80,
                "duration": 0.2,
                "tempo": 120.0
            },
            {
                "start_time": 41.2818182,
                "end_time": 41.4818182,
                "pitch": 46,
                "velocity": 80,
                "duration": 0.2,
                "tempo": 120.0
            },
            {
                "start_time": 41.4818182,
                "end_time": 41.6818182,
                "pitch": 46,
                "velocity": 80,
                "duration": 0.2,
                "tempo": 120.0
            },
            {
                "start_time": 41.6818182,
                "end_time": 41.8409091,
                "pitch": 46,
                "velocity": 80,
                "duration": 0.1590909,
                "tempo": 120.0
            },
            {
                "start_time": 41.8409091,
                "end_time": 42.05,
                "pitch": 46,
                "velocity": 80,
                "duration": 0.2090909,
                "tempo": 120.0
            },
            {
                "start_time": 42.05,
                "end_time": 42.2272727,
                "pitch": 45,
                "velocity": 80,
                "duration": 0.1772727,
                "tempo": 120.0
            },
            {
                "start_time": 42.2272727,
                "end_time": 42.4113636,
                "pitch": 45,
                "velocity": 80,
                "duration": 0.1840909,
                "tempo": 120.0
            },
            {
                "start_time": 42.6204545,
                "end_time": 42.8113636,
                "pitch": 47,
                "velocity": 80,
                "duration": 0.1909091,
                "tempo": 120.0
            },
            {
                "start_time": 43.0204545,
                "end_time": 43.6204545,
                "pitch": 49,
                "velocity": 80,
                "duration": 0.6,
                "tempo": 120.0
            },
            {
                "start_time": 43.6204545,
                "end_time": 43.8068182,
                "pitch": 50,
                "velocity": 80,
                "duration": 0.1863636,
                "tempo": 120.0
            },
            {
                "start_time": 43.8181818,
                "end_time": 43.975,
                "pitch": 50,
                "velocity": 80,
                "duration": 0.1568182,
                "tempo": 120.0
            },
            {
                "start_time": 43.975,
                "end_time": 44.1590909,
                "pitch": 50,
                "velocity": 80,
                "duration": 0.1840909,
                "tempo": 120.0
            },
            {
                "start_time": 44.1590909,
                "end_time": 44.3454545,
                "pitch": 50,
                "velocity": 80,
                "duration": 0.1863636,
                "tempo": 120.0
            },
            {
                "start_time": 44.3454545,
                "end_time": 44.5454545,
                "pitch": 50,
                "velocity": 80,
                "duration": 0.2,
                "tempo": 120.0
            },
            {
                "start_time": 44.5454545,
                "end_time": 44.7454545,
                "pitch": 50,
                "velocity": 80,
                "duration": 0.2,
                "tempo": 120.0
            },
            {
                "start_time": 44.7454545,
                "end_time": 44.9454545,
                "pitch": 50,
                "velocity": 80,
                "duration": 0.2,
                "tempo": 120.0
            },
            {
                "start_time": 44.9454545,
                "end_time": 45.1454545,
                "pitch": 50,
                "velocity": 80,
                "duration": 0.2,
                "tempo": 120.0
            },
            {
                "start_time": 45.1454545,
                "end_time": 45.3454545,
                "pitch": 48,
                "velocity": 80,
                "duration": 0.2,
                "tempo": 120.0
            },
            {
                "start_time": 45.3454545,
                "end_time": 45.5454545,
                "pitch": 48,
                "velocity": 80,
                "duration": 0.2,
                "tempo": 120.0
            },
            {
                "start_time": 45.5454545,
                "end_time": 45.7454545,
                "pitch": 48,
                "velocity": 80,
                "duration": 0.2,
                "tempo": 120.0
            },
            {
                "start_time": 45.7454545,
                "end_time": 45.9454545,
                "pitch": 48,
                "velocity": 80,
                "duration": 0.2,
                "tempo": 120.0
            },
            {
                "start_time": 45.9454545,
                "end_time": 46.1159091,
                "pitch": 48,
                "velocity": 80,
                "duration": 0.1704545,
                "tempo": 120.0
            },
            {
                "start_time": 46.1159091,
                "end_time": 46.3159091,
                "pitch": 48,
                "velocity": 80,
                "duration": 0.2,
                "tempo": 120.0
            },
            {
                "start_time": 46.3159091,
                "end_time": 46.5022727,
                "pitch": 48,
                "velocity": 80,
                "duration": 0.1863636,
                "tempo": 120.0
            },
            {
                "start_time": 46.5022727,
                "end_time": 46.6863636,
                "pitch": 48,
                "velocity": 80,
                "duration": 0.1840909,
                "tempo": 120.0
            },
            {
                "start_time": 46.6863636,
                "end_time": 46.8863636,
                "pitch": 47,
                "velocity": 80,
                "duration": 0.2,
                "tempo": 120.0
            },
            {
                "start_time": 46.8863636,
                "end_time": 47.0863636,
                "pitch": 47,
                "velocity": 80,
                "duration": 0.2,
                "tempo": 120.0
            },
            {
                "start_time": 47.0863636,
                "end_time": 47.2863636,
                "pitch": 47,
                "velocity": 80,
                "duration": 0.2,
                "tempo": 120.0
            },
            {
                "start_time": 47.2863636,
                "end_time": 47.4863636,
                "pitch": 47,
                "velocity": 80,
                "duration": 0.2,
                "tempo": 120.0
            },
            {
                "start_time": 47.4863636,
                "end_time": 47.6886364,
                "pitch": 47,
                "velocity": 80,
                "duration": 0.2022727,
                "tempo": 120.0
            },
            {
                "start_time": 47.6886364,
                "end_time": 47.8909091,
                "pitch": 47,
                "velocity": 80,
                "duration": 0.2022727,
                "tempo": 120.0
            },
            {
                "start_time": 47.8909091,
                "end_time": 48.0909091,
                "pitch": 47,
                "velocity": 80,
                "duration": 0.2,
                "tempo": 120.0
            },
            {
                "start_time": 48.0909091,
                "end_time": 48.2590909,
                "pitch": 47,
                "velocity": 80,
                "duration": 0.1681818,
                "tempo": 120.0
            },
            {
                "start_time": 48.2590909,
                "end_time": 48.4454545,
                "pitch": 43,
                "velocity": 80,
                "duration": 0.1863636,
                "tempo": 120.0
            },
            {
                "start_time": 48.4454545,
                "end_time": 48.6295455,
                "pitch": 43,
                "velocity": 80,
                "duration": 0.1840909,
                "tempo": 120.0
            },
            {
                "start_time": 48.6295455,
                "end_time": 48.8295455,
                "pitch": 43,
                "velocity": 80,
                "duration": 0.2,
                "tempo": 120.0
            },
            {
                "start_time": 48.8295455,
                "end_time": 49.0295455,
                "pitch": 43,
                "velocity": 80,
                "duration": 0.2,
                "tempo": 120.0
            },
            {
                "start_time": 49.0295455,
                "end_time": 49.2295455,
                "pitch": 43,
                "velocity": 80,
                "duration": 0.2,
                "tempo": 120.0
            },
            {
                "start_time": 49.2295455,
                "end_time": 49.4295455,
                "pitch": 43,
                "velocity": 80,
                "duration": 0.2,
                "tempo": 120.0
            },
            {
                "start_time": 49.4295455,
                "end_time": 49.6318182,
                "pitch": 43,
                "velocity": 80,
                "duration": 0.2022727,
                "tempo": 120.0
            },
            {
                "start_time": 49.6318182,
                "end_time": 49.8340909,
                "pitch": 43,
                "velocity": 80,
                "duration": 0.2022727,
                "tempo": 120.0
            },
            {
                "start_time": 49.8340909,
                "end_time": 50.0340909,
                "pitch": 41,
                "velocity": 80,
                "duration": 0.2,
                "tempo": 120.0
            },
            {
                "start_time": 50.0340909,
                "end_time": 50.1931818,
                "pitch": 41,
                "velocity": 80,
                "duration": 0.1590909,
                "tempo": 120.0
            },
            {
                "start_time": 50.1931818,
                "end_time": 50.3795455,
                "pitch": 41,
                "velocity": 80,
                "duration": 0.1863636,
                "tempo": 120.0
            },
            {
                "start_time": 50.3795455,
                "end_time": 50.5636364,
                "pitch": 41,
                "velocity": 80,
                "duration": 0.1840909,
                "tempo": 120.0
            },
            {
                "start_time": 50.5636364,
                "end_time": 50.7613636,
                "pitch": 41,
                "velocity": 80,
                "duration": 0.1977273,
                "tempo": 120.0
            },
            {
                "start_time": 50.7613636,
                "end_time": 50.9568182,
                "pitch": 41,
                "velocity": 80,
                "duration": 0.1954545,
                "tempo": 120.0
            },
            {
                "start_time": 50.9568182,
                "end_time": 51.1613636,
                "pitch": 41,
                "velocity": 80,
                "duration": 0.2045455,
                "tempo": 120.0
            },
            {
                "start_time": 51.1613636,
                "end_time": 51.3659091,
                "pitch": 41,
                "velocity": 80,
                "duration": 0.2045455,
                "tempo": 120.0
            },
            {
                "start_time": 51.3659091,
                "end_time": 51.5681818,
                "pitch": 43,
                "velocity": 80,
                "duration": 0.2022727,
                "tempo": 120.0
            },
            {
                "start_time": 51.5681818,
                "end_time": 51.7681818,
                "pitch": 43,
                "velocity": 80,
                "duration": 0.2,
                "tempo": 120.0
            },
            {
                "start_time": 51.7681818,
                "end_time": 51.9636364,
                "pitch": 43,
                "velocity": 80,
                "duration": 0.1954545,
                "tempo": 120.0
            },
            {
                "start_time": 51.9636364,
                "end_time": 52.1590909,
                "pitch": 43,
                "velocity": 80,
                "duration": 0.1954545,
                "tempo": 120.0
            },
            {
                "start_time": 52.1590909,
                "end_time": 52.3295455,
                "pitch": 43,
                "velocity": 80,
                "duration": 0.1704545,
                "tempo": 120.0
            },
            {
                "start_time": 52.3295455,
                "end_time": 52.5295455,
                "pitch": 43,
                "velocity": 80,
                "duration": 0.2,
                "tempo": 120.0
            },
            {
                "start_time": 52.5295455,
                "end_time": 52.7136364,
                "pitch": 43,
                "velocity": 80,
                "duration": 0.1840909,
                "tempo": 120.0
            },
            {
                "start_time": 52.7136364,
                "end_time": 52.9,
                "pitch": 43,
                "velocity": 80,
                "duration": 0.1863636,
                "tempo": 120.0
            },
            {
                "start_time": 52.9,
                "end_time": 53.1,
                "pitch": 40,
                "velocity": 80,
                "duration": 0.2,
                "tempo": 120.0
            },
            {
                "start_time": 53.1,
                "end_time": 53.3022727,
                "pitch": 40,
                "velocity": 80,
                "duration": 0.2022727,
                "tempo": 120.0
            },
            {
                "start_time": 53.3022727,
                "end_time": 53.5022727,
                "pitch": 40,
                "velocity": 80,
                "duration": 0.2,
                "tempo": 120.0
            },
            {
                "start_time": 53.5022727,
                "end_time": 53.7022727,
                "pitch": 40,
                "velocity": 80,
                "duration": 0.2,
                "tempo": 120.0
            },
            {
                "start_time": 53.7022727,
                "end_time": 53.9022727,
                "pitch": 40,
                "velocity": 80,
                "duration": 0.2,
                "tempo": 120.0
            },
            {
                "start_time": 53.9022727,
                "end_time": 54.1022727,
                "pitch": 40,
                "velocity": 80,
                "duration": 0.2,
                "tempo": 120.0
            },
            {
                "start_time": 54.1022727,
                "end_time": 54.3022727,
                "pitch": 40,
                "velocity": 80,
                "duration": 0.2,
                "tempo": 120.0
            },
            {
                "start_time": 54.3022727,
                "end_time": 54.4727273,
                "pitch": 40,
                "velocity": 80,
                "duration": 0.1704545,
                "tempo": 120.0
            },
            {
                "start_time": 54.4727273,
                "end_time": 54.6568182,
                "pitch": 45,
                "velocity": 80,
                "duration": 0.1840909,
                "tempo": 120.0
            },
            {
                "start_time": 54.6568182,
                "end_time": 54.8431818,
                "pitch": 45,
                "velocity": 80,
                "duration": 0.1863636,
                "tempo": 120.0
            },
            {
                "start_time": 54.8431818,
                "end_time": 55.0431818,
                "pitch": 45,
                "velocity": 80,
                "duration": 0.2,
                "tempo": 120.0
            },
            {
                "start_time": 55.0431818,
                "end_time": 55.2454545,
                "pitch": 45,
                "velocity": 80,
                "duration": 0.2022727,
                "tempo": 120.0
            },
            {
                "start_time": 55.2454545,
                "end_time": 55.4454545,
                "pitch": 43,
                "velocity": 80,
                "duration": 0.2,
                "tempo": 120.0
            },
            {
                "start_time": 55.4454545,
                "end_time": 55.6454545,
                "pitch": 43,
                "velocity": 80,
                "duration": 0.2,
                "tempo": 120.0
            },
            {
                "start_time": 55.6454545,
                "end_time": 55.8454545,
                "pitch": 43,
                "velocity": 80,
                "duration": 0.2,
                "tempo": 120.0
            },
            {
                "start_time": 55.8454545,
                "end_time": 56.0454545,
                "pitch": 43,
                "velocity": 80,
                "duration": 0.2,
                "tempo": 120.0
            },
            {
                "start_time": 56.0454545,
                "end_time": 56.2454545,
                "pitch": 41,
                "velocity": 80,
                "duration": 0.2,
                "tempo": 120.0
            },
            {
                "start_time": 56.2454545,
                "end_time": 56.4454545,
                "pitch": 41,
                "velocity": 80,
                "duration": 0.2,
                "tempo": 120.0
            },
            {
                "start_time": 56.4454545,
                "end_time": 56.6045455,
                "pitch": 41,
                "velocity": 80,
                "duration": 0.1590909,
                "tempo": 120.0
            },
            {
                "start_time": 56.6045455,
                "end_time": 56.8045455,
                "pitch": 41,
                "velocity": 80,
                "duration": 0.2,
                "tempo": 120.0
            },
            {
                "start_time": 56.8045455,
                "end_time": 57.0,
                "pitch": 41,
                "velocity": 80,
                "duration": 0.1954545,
                "tempo": 120.0
            },
            {
                "start_time": 57.0,
                "end_time": 57.1772727,
                "pitch": 41,
                "velocity": 80,
                "duration": 0.1772727,
                "tempo": 120.0
            },
            {
                "start_time": 57.1772727,
                "end_time": 57.3863636,
                "pitch": 41,
                "velocity": 80,
                "duration": 0.2090909,
                "tempo": 120.0
            },
            {
                "start_time": 57.3863636,
                "end_time": 57.575,
                "pitch": 41,
                "velocity": 80,
                "duration": 0.1886364,
                "tempo": 120.0
            },
            {
                "start_time": 57.575,
                "end_time": 57.775,
                "pitch": 43,
                "velocity": 80,
                "duration": 0.2,
                "tempo": 120.0
            },
            {
                "start_time": 57.775,
                "end_time": 57.975,
                "pitch": 43,
                "velocity": 80,
                "duration": 0.2,
                "tempo": 120.0
            },
            {
                "start_time": 57.975,
                "end_time": 58.175,
                "pitch": 43,
                "velocity": 80,
                "duration": 0.2,
                "tempo": 120.0
            },
            {
                "start_time": 58.175,
                "end_time": 58.375,
                "pitch": 43,
                "velocity": 80,
                "duration": 0.2,
                "tempo": 120.0
            },
            {
                "start_time": 58.375,
                "end_time": 58.5818182,
                "pitch": 43,
                "velocity": 80,
                "duration": 0.2068182,
                "tempo": 120.0
            },
            {
                "start_time": 58.5818182,
                "end_time": 58.7386364,
                "pitch": 43,
                "velocity": 80,
                "duration": 0.1568182,
                "tempo": 120.0
            },
            {
                "start_time": 58.7386364,
                "end_time": 58.9227273,
                "pitch": 43,
                "velocity": 80,
                "duration": 0.1840909,
                "tempo": 120.0
            },
            {
                "start_time": 58.9227273,
                "end_time": 59.1090909,
                "pitch": 43,
                "velocity": 80,
                "duration": 0.1863636,
                "tempo": 120.0
            },
            {
                "start_time": 59.1090909,
                "end_time": 59.3090909,
                "pitch": 48,
                "velocity": 80,
                "duration": 0.2,
                "tempo": 120.0
            },
            {
                "start_time": 59.3090909,
                "end_time": 59.5090909,
                "pitch": 48,
                "velocity": 80,
                "duration": 0.2,
                "tempo": 120.0
            },
            {
                "start_time": 59.5090909,
                "end_time": 59.7090909,
                "pitch": 48,
                "velocity": 80,
                "duration": 0.2,
                "tempo": 120.0
            },
            {
                "start_time": 59.7090909,
                "end_time": 59.9090909,
                "pitch": 48,
                "velocity": 80,
                "duration": 0.2,
                "tempo": 120.0
            },
            {
                "start_time": 59.9090909,
                "end_time": 60.1090909,
                "pitch": 48,
                "velocity": 80,
                "duration": 0.2,
                "tempo": 120.0
            },
            {
                "start_time": 60.1090909,
                "end_time": 60.3090909,
                "pitch": 48,
                "velocity": 80,
                "duration": 0.2,
                "tempo": 120.0
            },
            {
                "start_time": 60.3090909,
                "end_time": 60.5090909,
                "pitch": 48,
                "velocity": 80,
                "duration": 0.2,
                "tempo": 120.0
            },
            {
                "start_time": 60.5090909,
                "end_time": 60.7113636,
                "pitch": 48,
                "velocity": 80,
                "duration": 0.2022727,
                "tempo": 120.0
            },
            {
                "start_time": 60.7113636,
                "end_time": 60.8818182,
                "pitch": 48,
                "velocity": 80,
                "duration": 0.1704545,
                "tempo": 120.0
            },
            {
                "start_time": 60.8818182,
                "end_time": 61.0818182,
                "pitch": 48,
                "velocity": 80,
                "duration": 0.2,
                "tempo": 120.0
            },
            {
                "start_time": 61.0818182,
                "end_time": 61.2659091,
                "pitch": 48,
                "velocity": 80,
                "duration": 0.1840909,
                "tempo": 120.0
            },
            {
                "start_time": 61.2659091,
                "end_time": 61.4522727,
                "pitch": 48,
                "velocity": 80,
                "duration": 0.1863636,
                "tempo": 120.0
            },
            {
                "start_time": 61.4522727,
                "end_time": 61.6522727,
                "pitch": 48,
                "velocity": 80,
                "duration": 0.2,
                "tempo": 120.0
            },
            {
                "start_time": 61.6522727,
                "end_time": 61.8522727,
                "pitch": 48,
                "velocity": 80,
                "duration": 0.2,
                "tempo": 120.0
            },
            {
                "start_time": 61.8522727,
                "end_time": 62.0522727,
                "pitch": 48,
                "velocity": 80,
                "duration": 0.2,
                "tempo": 120.0
            },
            {
                "start_time": 62.0522727,
                "end_time": 62.2522727,
                "pitch": 48,
                "velocity": 80,
                "duration": 0.2,
                "tempo": 120.0
            },
            {
                "start_time": 62.2522727,
                "end_time": 62.4522727,
                "pitch": 48,
                "velocity": 80,
                "duration": 0.2,
                "tempo": 120.0
            },
            {
                "start_time": 62.4522727,
                "end_time": 62.6545455,
                "pitch": 48,
                "velocity": 80,
                "duration": 0.2022727,
                "tempo": 120.0
            }
        ],
        "Vibraphone": [
            {
                "start_time": 0.2090909,
                "end_time": 0.4090909,
                "pitch": 72,
                "velocity": 80,
                "duration": 0.2,
                "tempo": 120.0
            },
            {
                "start_time": 0.4090909,
                "end_time": 0.8090909,
                "pitch": 71,
                "velocity": 80,
                "duration": 0.4,
                "tempo": 120.0
            },
            {
                "start_time": 0.8090909,
                "end_time": 1.0068182,
                "pitch": 72,
                "velocity": 80,
                "duration": 0.1977273,
                "tempo": 120.0
            },
            {
                "start_time": 1.0068182,
                "end_time": 1.4022727,
                "pitch": 71,
                "velocity": 80,
                "duration": 0.3954545,
                "tempo": 120.0
            },
            {
                "start_time": 1.4022727,
                "end_time": 1.6022727,
                "pitch": 72,
                "velocity": 80,
                "duration": 0.2,
                "tempo": 120.0
            },
            {
                "start_time": 1.6022727,
                "end_time": 1.7727273,
                "pitch": 72,
                "velocity": 80,
                "duration": 0.1704545,
                "tempo": 120.0
            },
            {
                "start_time": 1.7727273,
                "end_time": 1.975,
                "pitch": 72,
                "velocity": 80,
                "duration": 0.2022727,
                "tempo": 120.0
            },
            {
                "start_time": 1.975,
                "end_time": 2.3454545,
                "pitch": 71,
                "velocity": 80,
                "duration": 0.3704545,
                "tempo": 120.0
            },
            {
                "start_time": 2.3454545,
                "end_time": 2.5454545,
                "pitch": 74,
                "velocity": 80,
                "duration": 0.2,
                "tempo": 120.0
            },
            {
                "start_time": 2.5454545,
                "end_time": 2.9454545,
                "pitch": 72,
                "velocity": 80,
                "duration": 0.4,
                "tempo": 120.0
            },
            {
                "start_time": 2.9454545,
                "end_time": 3.3454545,
                "pitch": 71,
                "velocity": 80,
                "duration": 0.4,
                "tempo": 120.0
            },
            {
                "start_time": 3.3454545,
                "end_time": 3.5477273,
                "pitch": 71,
                "velocity": 80,
                "duration": 0.2022727,
                "tempo": 120.0
            },
            {
                "start_time": 3.5477273,
                "end_time": 3.9181818,
                "pitch": 69,
                "velocity": 80,
                "duration": 0.3704545,
                "tempo": 120.0
            },
            {
                "start_time": 3.9181818,
                "end_time": 4.1022727,
                "pitch": 71,
                "velocity": 80,
                "duration": 0.1840909,
                "tempo": 120.0
            },
            {
                "start_time": 4.1022727,
                "end_time": 4.4886364,
                "pitch": 69,
                "velocity": 80,
                "duration": 0.3863636,
                "tempo": 120.0
            },
            {
                "start_time": 4.4886364,
                "end_time": 4.8886364,
                "pitch": 71,
                "velocity": 80,
                "duration": 0.4,
                "tempo": 120.0
            },
            {
                "start_time": 4.8886364,
                "end_time": 5.0909091,
                "pitch": 71,
                "velocity": 80,
                "duration": 0.2022727,
                "tempo": 120.0
            },
            {
                "start_time": 5.0909091,
                "end_time": 5.4931818,
                "pitch": 69,
                "velocity": 80,
                "duration": 0.4022727,
                "tempo": 120.0
            },
            {
                "start_time": 5.4931818,
                "end_time": 5.6931818,
                "pitch": 74,
                "velocity": 80,
                "duration": 0.2,
                "tempo": 120.0
            },
            {
                "start_time": 5.6931818,
                "end_time": 6.0545455,
                "pitch": 72,
                "velocity": 80,
                "duration": 0.3613636,
                "tempo": 120.0
            },
            {
                "start_time": 6.0636364,
                "end_time": 7.2318182,
                "pitch": 69,
                "velocity": 80,
                "duration": 1.1681818,
                "tempo": 120.0
            },
            {
                "start_time": 7.2318182,
                "end_time": 7.6386364,
                "pitch": 72,
                "velocity": 80,
                "duration": 0.4068182,
                "tempo": 120.0
            },
            {
                "start_time": 7.6386364,
                "end_time": 8.3818182,
                "pitch": 71,
                "velocity": 80,
                "duration": 0.7431818,
                "tempo": 120.0
            },
            {
                "start_time": 8.3818182,
                "end_time": 9.3727273,
                "pitch": 67,
                "velocity": 80,
                "duration": 0.9909091,
                "tempo": 120.0
            },
            {
                "start_time": 9.3727273,
                "end_time": 9.5727273,
                "pitch": 69,
                "velocity": 80,
                "duration": 0.2,
                "tempo": 120.0
            },
            {
                "start_time": 9.5727273,
                "end_time": 9.775,
                "pitch": 69,
                "velocity": 80,
                "duration": 0.2022727,
                "tempo": 120.0
            },
            {
                "start_time": 9.775,
                "end_time": 10.1772727,
                "pitch": 67,
                "velocity": 80,
                "duration": 0.4022727,
                "tempo": 120.0
            },
            {
                "start_time": 10.1772727,
                "end_time": 10.3477273,
                "pitch": 69,
                "velocity": 80,
                "duration": 0.1704545,
                "tempo": 120.0
            },
            {
                "start_time": 10.3477273,
                "end_time": 10.7318182,
                "pitch": 67,
                "velocity": 80,
                "duration": 0.3840909,
                "tempo": 120.0
            },
            {
                "start_time": 10.7318182,
                "end_time": 11.1181818,
                "pitch": 69,
                "velocity": 80,
                "duration": 0.3863636,
                "tempo": 120.0
            },
            {
                "start_time": 11.1181818,
                "end_time": 11.3204545,
                "pitch": 69,
                "velocity": 80,
                "duration": 0.2022727,
                "tempo": 120.0
            },
            {
                "start_time": 11.3204545,
                "end_time": 11.7204545,
                "pitch": 67,
                "velocity": 80,
                "duration": 0.4,
                "tempo": 120.0
            },
            {
                "start_time": 11.7204545,
                "end_time": 11.9227273,
                "pitch": 69,
                "velocity": 80,
                "duration": 0.2022727,
                "tempo": 120.0
            },
            {
                "start_time": 11.9227273,
                "end_time": 12.4954545,
                "pitch": 71,
                "velocity": 80,
                "duration": 0.5727273,
                "tempo": 120.0
            },
            {
                "start_time": 12.4954545,
                "end_time": 12.6818182,
                "pitch": 72,
                "velocity": 80,
                "duration": 0.1863636,
                "tempo": 120.0
            },
            {
                "start_time": 12.6818182,
                "end_time": 12.8659091,
                "pitch": 72,
                "velocity": 80,
                "duration": 0.1840909,
                "tempo": 120.0
            },
            {
                "start_time": 12.8659091,
                "end_time": 13.2681818,
                "pitch": 71,
                "velocity": 80,
                "duration": 0.4022727,
                "tempo": 120.0
            },
            {
                "start_time": 13.2681818,
                "end_time": 13.4704545,
                "pitch": 72,
                "velocity": 80,
                "duration": 0.2022727,
                "tempo": 120.0
            },
            {
                "start_time": 13.4704545,
                "end_time": 13.8727273,
                "pitch": 71,
                "velocity": 80,
                "duration": 0.4022727,
                "tempo": 120.0
            },
            {
                "start_time": 13.8727273,
                "end_time": 14.275,
                "pitch": 72,
                "velocity": 80,
                "duration": 0.4022727,
                "tempo": 120.0
            },
            {
                "start_time": 14.275,
                "end_time": 14.4363636,
                "pitch": 72,
                "velocity": 80,
                "duration": 0.1613636,
                "tempo": 120.0
            },
            {
                "start_time": 14.4363636,
                "end_time": 14.8068182,
                "pitch": 71,
                "velocity": 80,
                "duration": 0.3704545,
                "tempo": 120.0
            },
            {
                "start_time": 14.8068182,
                "end_time": 15.0090909,
                "pitch": 74,
                "velocity": 80,
                "duration": 0.2022727,
                "tempo": 120.0
            },
            {
                "start_time": 15.0090909,
                "end_time": 15.4045455,
                "pitch": 72,
                "velocity": 80,
                "duration": 0.3954545,
                "tempo": 120.0
            },
            {
                "start_time": 15.4045455,
                "end_time": 15.8022727,
                "pitch": 71,
                "velocity": 80,
                "duration": 0.3977273,
                "tempo": 120.0
            },
            {
                "start_time": 15.8022727,
                "end_time": 16.0022727,
                "pitch": 71,
                "velocity": 80,
                "duration": 0.2,
                "tempo": 120.0
            },
            {
                "start_time": 16.0022727,
                "end_time": 16.4045455,
                "pitch": 69,
                "velocity": 80,
                "duration": 0.4022727,
                "tempo": 120.0
            },
            {
                "start_time": 16.4045455,
                "end_time": 16.575,
                "pitch": 71,
                "velocity": 80,
                "duration": 0.1704545,
                "tempo": 120.0
            },
            {
                "start_time": 16.575,
                "end_time": 16.9590909,
                "pitch": 69,
                "velocity": 80,
                "duration": 0.3840909,
                "tempo": 120.0
            },
            {
                "start_time": 16.9590909,
                "end_time": 17.3454545,
                "pitch": 71,
                "velocity": 80,
                "duration": 0.3863636,
                "tempo": 120.0
            },
            {
                "start_time": 17.3454545,
                "end_time": 17.5477273,
                "pitch": 71,
                "velocity": 80,
                "duration": 0.2022727,
                "tempo": 120.0
            },
            {
                "start_time": 17.5477273,
                "end_time": 17.9477273,
                "pitch": 69,
                "velocity": 80,
                "duration": 0.4,
                "tempo": 120.0
            },
            {
                "start_time": 17.9477273,
                "end_time": 18.1477273,
                "pitch": 74,
                "velocity": 80,
                "duration": 0.2,
                "tempo": 120.0
            },
            {
                "start_time": 18.1477273,
                "end_time": 18.5477273,
                "pitch": 72,
                "velocity": 80,
                "duration": 0.4,
                "tempo": 120.0
            },
            {
                "start_time": 18.5477273,
                "end_time": 19.6909091,
                "pitch": 72,
                "velocity": 80,
                "duration": 1.1431818,
                "tempo": 120.0
            },
            {
                "start_time": 19.6909091,
                "end_time": 20.0909091,
                "pitch": 74,
                "velocity": 80,
                "duration": 0.4,
                "tempo": 120.0
            },
            {
                "start_time": 20.0909091,
                "end_time": 20.85,
                "pitch": 72,
                "velocity": 80,
                "duration": 0.7590909,
                "tempo": 120.0
            },
            {
                "start_time": 20.85,
                "end_time": 21.8159091,
                "pitch": 69,
                "velocity": 80,
                "duration": 0.9659091,
                "tempo": 120.0
            },
            {
                "start_time": 21.8159091,
                "end_time": 22.0204545,
                "pitch": 72,
                "velocity": 80,
                "duration": 0.2045455,
                "tempo": 120.0
            },
            {
                "start_time": 22.0204545,
                "end_time": 22.2272727,
                "pitch": 72,
                "velocity": 80,
                "duration": 0.2068182,
                "tempo": 120.0
            },
            {
                "start_time": 22.2272727,
                "end_time": 22.6272727,
                "pitch": 71,
                "velocity": 80,
                "duration": 0.4,
                "tempo": 120.0
            },
            {
                "start_time": 22.6272727,
                "end_time": 22.8227273,
                "pitch": 72,
                "velocity": 80,
                "duration": 0.1954545,
                "tempo": 120.0
            },
            {
                "start_time": 22.8227273,
                "end_time": 23.175,
                "pitch": 71,
                "velocity": 80,
                "duration": 0.3522727,
                "tempo": 120.0
            },
            {
                "start_time": 23.175,
                "end_time": 23.5590909,
                "pitch": 72,
                "velocity": 80,
                "duration": 0.3840909,
                "tempo": 120.0
            },
            {
                "start_time": 23.5590909,
                "end_time": 23.7590909,
                "pitch": 72,
                "velocity": 80,
                "duration": 0.2,
                "tempo": 120.0
            },
            {
                "start_time": 23.7590909,
                "end_time": 24.1636364,
                "pitch": 71,
                "velocity": 80,
                "duration": 0.4045455,
                "tempo": 120.0
            },
            {
                "start_time": 24.1636364,
                "end_time": 24.3636364,
                "pitch": 72,
                "velocity": 80,
                "duration": 0.2,
                "tempo": 120.0
            },
            {
                "start_time": 24.3636364,
                "end_time": 24.9340909,
                "pitch": 67,
                "velocity": 80,
                "duration": 0.5704545,
                "tempo": 120.0
            },
            {
                "start_time": 24.9340909,
                "end_time": 25.3045455,
                "pitch": 69,
                "velocity": 80,
                "duration": 0.3704545,
                "tempo": 120.0
            },
            {
                "start_time": 26.1090909,
                "end_time": 26.3090909,
                "pitch": 69,
                "velocity": 80,
                "duration": 0.2,
                "tempo": 120.0
            },
            {
                "start_time": 26.3090909,
                "end_time": 26.5113636,
                "pitch": 71,
                "velocity": 80,
                "duration": 0.2022727,
                "tempo": 120.0
            },
            {
                "start_time": 27.6522727,
                "end_time": 27.8522727,
                "pitch": 71,
                "velocity": 80,
                "duration": 0.2,
                "tempo": 120.0
            },
            {
                "start_time": 27.8522727,
                "end_time": 28.0522727,
                "pitch": 71,
                "velocity": 80,
                "duration": 0.2,
                "tempo": 120.0
            },
            {
                "start_time": 29.2068182,
                "end_time": 29.3909091,
                "pitch": 71,
                "velocity": 80,
                "duration": 0.1840909,
                "tempo": 120.0
            },
            {
                "start_time": 29.3909091,
                "end_time": 29.9772727,
                "pitch": 72,
                "velocity": 80,
                "duration": 0.5863636,
                "tempo": 120.0
            },
            {
                "start_time": 30.1795455,
                "end_time": 30.5795455,
                "pitch": 71,
                "velocity": 80,
                "duration": 0.4,
                "tempo": 120.0
            },
            {
                "start_time": 31.1795455,
                "end_time": 31.35,
                "pitch": 69,
                "velocity": 80,
                "duration": 0.1704545,
                "tempo": 120.0
            },
            {
                "start_time": 31.35,
                "end_time": 31.5522727,
                "pitch": 69,
                "velocity": 80,
                "duration": 0.2022727,
                "tempo": 120.0
            },
            {
                "start_time": 31.5522727,
                "end_time": 31.7363636,
                "pitch": 69,
                "velocity": 80,
                "duration": 0.1840909,
                "tempo": 120.0
            },
            {
                "start_time": 31.7363636,
                "end_time": 31.9227273,
                "pitch": 65,
                "velocity": 80,
                "duration": 0.1863636,
                "tempo": 120.0
            },
            {
                "start_time": 31.9227273,
                "end_time": 32.1227273,
                "pitch": 65,
                "velocity": 80,
                "duration": 0.2,
                "tempo": 120.0
            },
            {
                "start_time": 32.1227273,
                "end_time": 32.3227273,
                "pitch": 65,
                "velocity": 80,
                "duration": 0.2,
                "tempo": 120.0
            },
            {
                "start_time": 32.3227273,
                "end_time": 32.5227273,
                "pitch": 69,
                "velocity": 80,
                "duration": 0.2,
                "tempo": 120.0
            },
            {
                "start_time": 32.5227273,
                "end_time": 32.7227273,
                "pitch": 69,
                "velocity": 80,
                "duration": 0.2,
                "tempo": 120.0
            },
            {
                "start_time": 32.7227273,
                "end_time": 32.9227273,
                "pitch": 67,
                "velocity": 80,
                "duration": 0.2,
                "tempo": 120.0
            },
            {
                "start_time": 32.9227273,
                "end_time": 33.1227273,
                "pitch": 67,
                "velocity": 80,
                "duration": 0.2,
                "tempo": 120.0
            },
            {
                "start_time": 33.1227273,
                "end_time": 33.325,
                "pitch": 67,
                "velocity": 80,
                "duration": 0.2022727,
                "tempo": 120.0
            },
            {
                "start_time": 33.325,
                "end_time": 33.4954545,
                "pitch": 64,
                "velocity": 80,
                "duration": 0.1704545,
                "tempo": 120.0
            },
            {
                "start_time": 33.4954545,
                "end_time": 33.6795455,
                "pitch": 64,
                "velocity": 80,
                "duration": 0.1840909,
                "tempo": 120.0
            },
            {
                "start_time": 33.6795455,
                "end_time": 33.8659091,
                "pitch": 64,
                "velocity": 80,
                "duration": 0.1863636,
                "tempo": 120.0
            },
            {
                "start_time": 33.8659091,
                "end_time": 34.0659091,
                "pitch": 67,
                "velocity": 80,
                "duration": 0.2,
                "tempo": 120.0
            },
            {
                "start_time": 34.0659091,
                "end_time": 34.2659091,
                "pitch": 67,
                "velocity": 80,
                "duration": 0.2,
                "tempo": 120.0
            },
            {
                "start_time": 34.2659091,
                "end_time": 34.4659091,
                "pitch": 69,
                "velocity": 80,
                "duration": 0.2,
                "tempo": 120.0
            },
            {
                "start_time": 34.4659091,
                "end_time": 34.6659091,
                "pitch": 69,
                "velocity": 80,
                "duration": 0.2,
                "tempo": 120.0
            },
            {
                "start_time": 34.6659091,
                "end_time": 34.8659091,
                "pitch": 69,
                "velocity": 80,
                "duration": 0.2,
                "tempo": 120.0
            },
            {
                "start_time": 34.8659091,
                "end_time": 35.0681818,
                "pitch": 65,
                "velocity": 80,
                "duration": 0.2022727,
                "tempo": 120.0
            },
            {
                "start_time": 35.0681818,
                "end_time": 35.2681818,
                "pitch": 65,
                "velocity": 80,
                "duration": 0.2,
                "tempo": 120.0
            },
            {
                "start_time": 35.2681818,
                "end_time": 35.4681818,
                "pitch": 65,
                "velocity": 80,
                "duration": 0.2,
                "tempo": 120.0
            },
            {
                "start_time": 35.4681818,
                "end_time": 35.6272727,
                "pitch": 69,
                "velocity": 80,
                "duration": 0.1590909,
                "tempo": 120.0
            },
            {
                "start_time": 35.6272727,
                "end_time": 35.8272727,
                "pitch": 69,
                "velocity": 80,
                "duration": 0.2,
                "tempo": 120.0
            },
            {
                "start_time": 35.8272727,
                "end_time": 36.0136364,
                "pitch": 74,
                "velocity": 80,
                "duration": 0.1863636,
                "tempo": 120.0
            },
            {
                "start_time": 36.0136364,
                "end_time": 36.2,
                "pitch": 74,
                "velocity": 80,
                "duration": 0.1863636,
                "tempo": 120.0
            },
            {
                "start_time": 36.2,
                "end_time": 36.3954545,
                "pitch": 74,
                "velocity": 80,
                "duration": 0.1954545,
                "tempo": 120.0
            },
            {
                "start_time": 36.3954545,
                "end_time": 36.5909091,
                "pitch": 71,
                "velocity": 80,
                "duration": 0.1954545,
                "tempo": 120.0
            },
            {
                "start_time": 36.5909091,
                "end_time": 36.7909091,
                "pitch": 71,
                "velocity": 80,
                "duration": 0.2,
                "tempo": 120.0
            },
            {
                "start_time": 36.7909091,
                "end_time": 36.9909091,
                "pitch": 71,
                "velocity": 80,
                "duration": 0.2,
                "tempo": 120.0
            },
            {
                "start_time": 36.9909091,
                "end_time": 37.1977273,
                "pitch": 67,
                "velocity": 80,
                "duration": 0.2068182,
                "tempo": 120.0
            },
            {
                "start_time": 37.1977273,
                "end_time": 37.4022727,
                "pitch": 67,
                "velocity": 80,
                "duration": 0.2045455,
                "tempo": 120.0
            },
            {
                "start_time": 37.4022727,
                "end_time": 38.5363636,
                "pitch": 84,
                "velocity": 80,
                "duration": 1.1340909,
                "tempo": 120.0
            },
            {
                "start_time": 38.5363636,
                "end_time": 38.7363636,
                "pitch": 81,
                "velocity": 80,
                "duration": 0.2,
                "tempo": 120.0
            },
            {
                "start_time": 38.7363636,
                "end_time": 39.7068182,
                "pitch": 88,
                "velocity": 80,
                "duration": 0.9704545,
                "tempo": 120.0
            },
            {
                "start_time": 39.7068182,
                "end_time": 39.9477273,
                "pitch": 86,
                "velocity": 80,
                "duration": 0.2409091,
                "tempo": 120.0
            },
            {
                "start_time": 39.9477273,
                "end_time": 40.2090909,
                "pitch": 85,
                "velocity": 80,
                "duration": 0.2613636,
                "tempo": 120.0
            },
            {
                "start_time": 40.2090909,
                "end_time": 40.4818182,
                "pitch": 83,
                "velocity": 80,
                "duration": 0.2727273,
                "tempo": 120.0
            },
            {
                "start_time": 40.4818182,
                "end_time": 42.05,
                "pitch": 82,
                "velocity": 80,
                "duration": 1.5681818,
                "tempo": 120.0
            },
            {
                "start_time": 42.05,
                "end_time": 42.6204545,
                "pitch": 82,
                "velocity": 80,
                "duration": 0.5704545,
                "tempo": 120.0
            },
            {
                "start_time": 42.6204545,
                "end_time": 43.0204545,
                "pitch": 83,
                "velocity": 80,
                "duration": 0.4,
                "tempo": 120.0
            },
            {
                "start_time": 43.0204545,
                "end_time": 43.6204545,
                "pitch": 85,
                "velocity": 80,
                "duration": 0.6,
                "tempo": 120.0
            },
            {
                "start_time": 43.6204545,
                "end_time": 44.5454545,
                "pitch": 86,
                "velocity": 80,
                "duration": 0.925,
                "tempo": 120.0
            },
            {
                "start_time": 44.5454545,
                "end_time": 44.7454545,
                "pitch": 83,
                "velocity": 80,
                "duration": 0.2,
                "tempo": 120.0
            },
            {
                "start_time": 44.7454545,
                "end_time": 44.9454545,
                "pitch": 84,
                "velocity": 80,
                "duration": 0.2,
                "tempo": 120.0
            },
            {
                "start_time": 44.9454545,
                "end_time": 45.9454545,
                "pitch": 86,
                "velocity": 80,
                "duration": 1.0,
                "tempo": 120.0
            },
            {
                "start_time": 45.9454545,
                "end_time": 46.6863636,
                "pitch": 83,
                "velocity": 80,
                "duration": 0.7409091,
                "tempo": 120.0
            },
            {
                "start_time": 46.6863636,
                "end_time": 48.0909091,
                "pitch": 79,
                "velocity": 80,
                "duration": 1.4045455,
                "tempo": 120.0
            },
            {
                "start_time": 48.0909091,
                "end_time": 49.8340909,
                "pitch": 83,
                "velocity": 80,
                "duration": 1.7431818,
                "tempo": 120.0
            },
            {
                "start_time": 49.8340909,
                "end_time": 50.7613636,
                "pitch": 77,
                "velocity": 80,
                "duration": 0.9272727,
                "tempo": 120.0
            },
            {
                "start_time": 50.7613636,
                "end_time": 50.9568182,
                "pitch": 77,
                "velocity": 80,
                "duration": 0.1954545,
                "tempo": 120.0
            },
            {
                "start_time": 50.9568182,
                "end_time": 51.1613636,
                "pitch": 79,
                "velocity": 80,
                "duration": 0.2045455,
                "tempo": 120.0
            },
            {
                "start_time": 51.1613636,
                "end_time": 51.3659091,
                "pitch": 81,
                "velocity": 80,
                "duration": 0.2045455,
                "tempo": 120.0
            },
            {
                "start_time": 51.3659091,
                "end_time": 52.1590909,
                "pitch": 79,
                "velocity": 80,
                "duration": 0.7931818,
                "tempo": 120.0
            },
            {
                "start_time": 52.1590909,
                "end_time": 52.9,
                "pitch": 74,
                "velocity": 80,
                "duration": 0.7409091,
                "tempo": 120.0
            },
            {
                "start_time": 52.9,
                "end_time": 53.9022727,
                "pitch": 76,
                "velocity": 80,
                "duration": 1.0022727,
                "tempo": 120.0
            },
            {
                "start_time": 53.9022727,
                "end_time": 54.1022727,
                "pitch": 76,
                "velocity": 80,
                "duration": 0.2,
                "tempo": 120.0
            },
            {
                "start_time": 54.1022727,
                "end_time": 54.3022727,
                "pitch": 76,
                "velocity": 80,
                "duration": 0.2,
                "tempo": 120.0
            },
            {
                "start_time": 54.3022727,
                "end_time": 54.4727273,
                "pitch": 76,
                "velocity": 80,
                "duration": 0.1704545,
                "tempo": 120.0
            },
            {
                "start_time": 54.4727273,
                "end_time": 54.6568182,
                "pitch": 83,
                "velocity": 80,
                "duration": 0.1840909,
                "tempo": 120.0
            },
            {
                "start_time": 54.6568182,
                "end_time": 55.4454545,
                "pitch": 81,
                "velocity": 80,
                "duration": 0.7886364,
                "tempo": 120.0
            },
            {
                "start_time": 55.4454545,
                "end_time": 55.6454545,
                "pitch": 81,
                "velocity": 80,
                "duration": 0.2,
                "tempo": 120.0
            },
            {
                "start_time": 55.6454545,
                "end_time": 55.8454545,
                "pitch": 83,
                "velocity": 80,
                "duration": 0.2,
                "tempo": 120.0
            },
            {
                "start_time": 55.8454545,
                "end_time": 56.9909091,
                "pitch": 84,
                "velocity": 80,
                "duration": 1.1454545,
                "tempo": 120.0
            },
            {
                "start_time": 56.9909091,
                "end_time": 57.375,
                "pitch": 86,
                "velocity": 80,
                "duration": 0.3840909,
                "tempo": 120.0
            },
            {
                "start_time": 57.3863636,
                "end_time": 58.5818182,
                "pitch": 83,
                "velocity": 80,
                "duration": 1.1954545,
                "tempo": 120.0
            },
            {
                "start_time": 58.5818182,
                "end_time": 58.7386364,
                "pitch": 81,
                "velocity": 80,
                "duration": 0.1568182,
                "tempo": 120.0
            },
            {
                "start_time": 58.7386364,
                "end_time": 58.9227273,
                "pitch": 79,
                "velocity": 80,
                "duration": 0.1840909,
                "tempo": 120.0
            },
            {
                "start_time": 58.9227273,
                "end_time": 62.2522727,
                "pitch": 79,
                "velocity": 80,
                "duration": 3.3295455,
                "tempo": 120.0
            },
            {
                "start_time": 62.2522727,
                "end_time": 62.4522727,
                "pitch": 72,
                "velocity": 80,
                "duration": 0.2,
                "tempo": 120.0
            },
            {
                "start_time": 62.4522727,
                "end_time": 62.6545455,
                "pitch": 72,
                "velocity": 80,
                "duration": 0.2022727,
                "tempo": 120.0
            }
        ]
    }
}