{
    "mood": "relaxed",
    "instruments": {
        "Acoustic Grand Piano": [
            {
                "start_time": 0.0022727,
                "end_time": 0.0636364,
                "pitch": 79,
                "velocity": 51,
                "duration": 0.0613636,
                "tempo": 120.0
            },
            {
                "start_time": 0.0636364,
                "end_time": 0.6227273,
                "pitch": 81,
                "velocity": 51,
                "duration": 0.5590909,
                "tempo": 120.0
            },
            {
                "start_time": 0.6227273,
                "end_time": 0.825,
                "pitch": 81,
                "velocity": 51,
                "duration": 0.2022727,
                "tempo": 120.0
            },
            {
                "start_time": 0.825,
                "end_time": 1.0295455,
                "pitch": 81,
                "velocity": 51,
                "duration": 0.2045455,
                "tempo": 120.0
            },
            {
                "start_time": 1.0295455,
                "end_time": 1.2340909,
                "pitch": 78,
                "velocity": 51,
                "duration": 0.2045455,
                "tempo": 120.0
            },
            {
                "start_time": 1.2340909,
                "end_time": 1.8363636,
                "pitch": 81,
                "velocity": 51,
                "duration": 0.6022727,
                "tempo": 120.0
            },
            {
                "start_time": 1.8363636,
                "end_time": 2.0363636,
                "pitch": 81,
                "velocity": 51,
                "duration": 0.2,
                "tempo": 120.0
            },
            {
                "start_time": 2.0363636,
                "end_time": 2.2386364,
                "pitch": 83,
                "velocity": 51,
                "duration": 0.2022727,
                "tempo": 120.0
            },
            {
                "start_time": 2.2386364,
                "end_time": 2.4431818,
                "pitch": 85,
                "velocity": 51,
                "duration": 0.2045455,
                "tempo": 120.0
            },
            {
                "start_time": 2.4431818,
                "end_time": 2.7454545,
                "pitch": 85,
                "velocity": 51,
                "duration": 0.3022727,
                "tempo": 120.0
            },
            {
                "start_time": 2.7454545,
                "end_time": 3.0477273,
                "pitch": 78,
                "velocity": 51,
                "duration": 0.3022727,
                "tempo": 120.0
            },
            {
                "start_time": 1.2340909,
                "end_time": 3.0477273,
                "pitch": 90,
                "velocity": 51,
                "duration": 1.8136364,
                "tempo": 120.0
            },
            {
                "start_time": 3.0477273,
                "end_time": 3.2477273,
                "pitch": 80,
                "velocity": 51,
                "duration": 0.2,
                "tempo": 120.0
            },
            {
                "start_time": 3.2477273,
                "end_time": 3.4477273,
                "pitch": 80,
                "velocity": 51,
                "duration": 0.2,
                "tempo": 120.0
            },
            {
                "start_time": 2.0363636,
                "end_time": 3.4477273,
                "pitch": 81,
                "velocity": 51,
                "duration": 1.4113636,
                "tempo": 120.0
            },
            {
                "start_time": 2.2386364,
                "end_time": 3.65,
                "pitch": 83,
                "velocity": 51,
                "duration": 1.4113636,
                "tempo": 120.0
            },
            {
                "start_time": 3.4477273,
                "end_time": 3.65,
                "pitch": 83,
                "velocity": 51,
                "duration": 0.2022727,
                "tempo": 120.0
            }
        ],
        "Vibraphone": [
            {
                "start_time": 0.0022727,
                "end_time": 0.0636364,
                "pitch": 67,
                "velocity": 64,
                "duration": 0.0613636,
                "tempo": 120.0
            },
            {
                "start_time": 0.0636364,
                "end_time": 0.6227273,
                "pitch": 69,
                "velocity": 64,
                "duration": 0.5590909,
                "tempo": 120.0
            },
            {
                "start_time": 0.6227273,
                "end_time": 0.825,
                "pitch": 69,
                "velocity": 64,
                "duration": 0.2022727,
                "tempo": 120.0
            },
            {
                "start_time": 0.825,
                "end_time": 1.0295455,
                "pitch": 69,
                "velocity": 64,
                "duration": 0.2045455,
                "tempo": 120.0
            },
            {
                "start_time": 1.0295455,
                "end_time": 1.2340909,
                "pitch": 66,
                "velocity": 64,
                "duration": 0.2045455,
                "tempo": 120.0
            },
            {
                "start_time": 1.2340909,
                "end_time": 1.8363636,
                "pitch": 69,
                "velocity": 64,
                "duration": 0.6022727,
                "tempo": 120.0
            },
            {
                "start_time": 1.8363636,
                "end_time": 2.0386364,
                "pitch": 69,
                "velocity": 64,
                "duration": 0.2022727,
                "tempo": 120.0
            },
            {
                "start_time": 2.0386364,
                "end_time": 2.1045455,
                "pitch": 69,
                "velocity": 64,
                "duration": 0.0659091,
                "tempo": 120.0
            },
            {
                "start_time": 2.1045455,
                "end_time": 2.2386364,
                "pitch": 71,
                "velocity": 64,
                "duration": 0.1340909,
                "tempo": 120.0
            },
            {
                "start_time": 2.2409091,
                "end_time": 2.4431818,
                "pitch": 73,
                "velocity": 64,
                "duration": 0.2022727,
                "tempo": 120.0
            },
            {
                "start_time": 2.4431818,
                "end_time": 2.7454545,
                "pitch": 73,
                "velocity": 64,
                "duration": 0.3022727,
                "tempo": 120.0
            },
            {
                "start_time": 2.7454545,
                "end_time": 3.0477273,
                "pitch": 66,
                "velocity": 64,
                "duration": 0.3022727,
                "tempo": 120.0
            },
            {
                "start_time": 1.2340909,
                "end_time": 3.0477273,
                "pitch": 78,
                "velocity": 64,
                "duration": 1.8136364,
                "tempo": 120.0
            },
            {
                "start_time": 3.0477273,
                "end_time": 3.2477273,
                "pitch": 68,
                "velocity": 64,
                "duration": 0.2,
                "tempo": 120.0
            },
            {
                "start_time": 3.2477273,
                "end_time": 3.4477273,
                "pitch": 68,
                "velocity": 64,
                "duration": 0.2,
                "tempo": 120.0
            },
            {
                "start_time": 3.4477273,
                "end_time": 3.5136364,
                "pitch": 69,
                "velocity": 64,
                "duration": 0.0659091,
                "tempo": 120.0
            },
            {
                "start_time": 2.2409091,
                "end_time": 3.65,
                "pitch": 71,
                "velocity": 64,
                "duration": 1.4090909,
                "tempo": 120.0
            },
            {
                "start_time": 3.5136364,
                "end_time": 3.65,
                "pitch": 71,
                "velocity": 64,
                "duration": 0.1363636,
                "tempo": 120.0
            }
        ],
        "Acoustic Bass": [
            {
                "start_time": 0.0045455,
                "end_time": 0.3181818,
                "pitch": 45,
                "velocity": 51,
                "duration": 0.3136364,
                "tempo": 120.0
            },
            {
                "start_time": 0.3181818,
                "end_time": 0.6227273,
                "pitch": 45,
                "velocity": 51,
                "duration": 0.3045455,
                "tempo": 120.0
            },
            {
                "start_time": 0.6227273,
                "end_time": 0.9272727,
                "pitch": 45,
                "velocity": 51,
                "duration": 0.3045455,
                "tempo": 120.0
            },
            {
                "start_time": 0.9272727,
                "end_time": 1.2363636,
                "pitch": 45,
                "velocity": 51,
                "duration": 0.3090909,
                "tempo": 120.0
            },
            {
                "start_time": 1.2363636,
                "end_time": 1.5340909,
                "pitch": 42,
                "velocity": 51,
                "duration": 0.2977273,
                "tempo": 120.0
            },
            {
                "start_time": 1.5340909,
                "end_time": 1.8363636,
                "pitch": 42,
                "velocity": 51,
                "duration": 0.3022727,
                "tempo": 120.0
            },
            {
                "start_time": 1.8363636,
                "end_time": 2.1386364,
                "pitch": 42,
                "velocity": 51,
                "duration": 0.3022727,
                "tempo": 120.0
            },
            {
                "start_time": 2.1386364,
                "end_time": 2.4431818,
                "pitch": 42,
                "velocity": 51,
                "duration": 0.3045455,
                "tempo": 120.0
            },
            {
                "start_time": 2.4431818,
                "end_time": 2.7454545,
                "pitch": 38,
                "velocity": 51,
                "duration": 0.3022727,
                "tempo": 120.0
            },
            {
                "start_time": 2.7454545,
                "end_time": 3.05,
                "pitch": 38,
                "velocity": 51,
                "duration": 0.3045455,
                "tempo": 120.0
            },
            {
                "start_time": 3.05,
                "end_time": 3.35,
                "pitch": 40,
                "velocity": 51,
                "duration": 0.3,
                "tempo": 120.0
            },
            {
                "start_time": 3.35,
                "end_time": 3.65,
                "pitch": 40,
                "velocity": 51,
                "duration": 0.3,
                "tempo": 120.0
            }
        ]
    }
}