{
    "mood": "relaxed",
    "instruments": {
        "Vibraphone": [
            {
                "start_time": 62.5227273,
                "end_time": 65.6159091,
                "pitch": 72,
                "velocity": 40,
                "duration": 3.0931818,
                "tempo": 120.0
            },
            {
                "start_time": 66.0454545,
                "end_time": 67.5295455,
                "pitch": 0,
                "velocity": 127,
                "duration": 1.4840909,
                "tempo": 120.0
            }
        ],
        "Trumpet": [
            {
                "start_time": 30.1363636,
                "end_time": 30.5090909,
                "pitch": 68,
                "velocity": 80,
                "duration": 0.3727273,
                "tempo": 120.0
            },
            {
                "start_time": 30.5704545,
                "end_time": 30.9363636,
                "pitch": 69,
                "velocity": 80,
                "duration": 0.3659091,
                "tempo": 120.0
            },
            {
                "start_time": 30.9954545,
                "end_time": 31.3704545,
                "pitch": 71,
                "velocity": 80,
                "duration": 0.375,
                "tempo": 120.0
            },
            {
                "start_time": 31.4318182,
                "end_time": 32.3613636,
                "pitch": 72,
                "velocity": 80,
                "duration": 0.9295455,
                "tempo": 120.0
            },
            {
                "start_time": 32.4954545,
                "end_time": 32.6659091,
                "pitch": 71,
                "velocity": 80,
                "duration": 0.1704545,
                "tempo": 120.0
            },
            {
                "start_time": 32.7045455,
                "end_time": 32.8863636,
                "pitch": 72,
                "velocity": 80,
                "duration": 0.1818182,
                "tempo": 120.0
            },
            {
                "start_time": 32.9272727,
                "end_time": 33.1068182,
                "pitch": 74,
                "velocity": 80,
                "duration": 0.1795455,
                "tempo": 120.0
            },
            {
                "start_time": 33.1522727,
                "end_time": 33.7022727,
                "pitch": 76,
                "velocity": 80,
                "duration": 0.55,
                "tempo": 120.0
            },
            {
                "start_time": 33.7931818,
                "end_time": 34.3409091,
                "pitch": 69,
                "velocity": 80,
                "duration": 0.5477273,
                "tempo": 120.0
            },
            {
                "start_time": 34.425,
                "end_time": 34.8045455,
                "pitch": 76,
                "velocity": 80,
                "duration": 0.3795455,
                "tempo": 120.0
            },
            {
                "start_time": 34.8659091,
                "end_time": 35.2318182,
                "pitch": 74,
                "velocity": 80,
                "duration": 0.3659091,
                "tempo": 120.0
            },
            {
                "start_time": 35.2886364,
                "end_time": 35.4636364,
                "pitch": 72,
                "velocity": 80,
                "duration": 0.175,
                "tempo": 120.0
            },
            {
                "start_time": 35.5090909,
                "end_time": 36.0590909,
                "pitch": 71,
                "velocity": 80,
                "duration": 0.55,
                "tempo": 120.0
            },
            {
                "start_time": 36.1522727,
                "end_time": 36.5272727,
                "pitch": 77,
                "velocity": 80,
                "duration": 0.375,
                "tempo": 120.0
            },
            {
                "start_time": 36.5863636,
                "end_time": 36.9522727,
                "pitch": 76,
                "velocity": 80,
                "duration": 0.3659091,
                "tempo": 120.0
            },
            {
                "start_time": 37.0113636,
                "end_time": 37.1863636,
                "pitch": 74,
                "velocity": 80,
                "duration": 0.175,
                "tempo": 120.0
            },
            {
                "start_time": 37.2340909,
                "end_time": 37.6204545,
                "pitch": 72,
                "velocity": 80,
                "duration": 0.3863636,
                "tempo": 120.0
            },
            {
                "start_time": 37.6795455,
                "end_time": 37.8568182,
                "pitch": 71,
                "velocity": 80,
                "duration": 0.1772727,
                "tempo": 120.0
            },
            {
                "start_time": 37.8977273,
                "end_time": 38.0727273,
                "pitch": 72,
                "velocity": 80,
                "duration": 0.175,
                "tempo": 120.0
            },
            {
                "start_time": 38.1136364,
                "end_time": 38.2909091,
                "pitch": 74,
                "velocity": 80,
                "duration": 0.1772727,
                "tempo": 120.0
            },
            {
                "start_time": 38.3386364,
                "end_time": 38.725,
                "pitch": 76,
                "velocity": 80,
                "duration": 0.3863636,
                "tempo": 120.0
            },
            {
                "start_time": 38.7818182,
                "end_time": 38.9613636,
                "pitch": 77,
                "velocity": 80,
                "duration": 0.1795455,
                "tempo": 120.0
            },
            {
                "start_time": 39.0022727,
                "end_time": 39.1772727,
                "pitch": 76,
                "velocity": 80,
                "duration": 0.175,
                "tempo": 120.0
            },
            {
                "start_time": 39.2136364,
                "end_time": 39.4295455,
                "pitch": 76,
                "velocity": 4,
                "duration": 0.2159091,
                "tempo": 120.0
            },
            {
                "start_time": 39.4295455,
                "end_time": 39.6045455,
                "pitch": 72,
                "velocity": 4,
                "duration": 0.175,
                "tempo": 120.0
            },
            {
                "start_time": 39.4295455,
                "end_time": 39.6045455,
                "pitch": 72,
                "velocity": 80,
                "duration": 0.175,
                "tempo": 120.0
            },
            {
                "start_time": 39.6409091,
                "end_time": 39.8590909,
                "pitch": 72,
                "velocity": 4,
                "duration": 0.2181818,
                "tempo": 120.0
            },
            {
                "start_time": 39.8590909,
                "end_time": 41.1659091,
                "pitch": 69,
                "velocity": 4,
                "duration": 1.3068182,
                "tempo": 120.0
            },
            {
                "start_time": 39.8590909,
                "end_time": 41.1659091,
                "pitch": 69,
                "velocity": 80,
                "duration": 1.3068182,
                "tempo": 120.0
            },
            {
                "start_time": 41.3545455,
                "end_time": 41.5340909,
                "pitch": 72,
                "velocity": 80,
                "duration": 0.1795455,
                "tempo": 120.0
            },
            {
                "start_time": 41.575,
                "end_time": 41.7522727,
                "pitch": 74,
                "velocity": 80,
                "duration": 0.1772727,
                "tempo": 120.0
            },
            {
                "start_time": 41.7977273,
                "end_time": 42.1772727,
                "pitch": 76,
                "velocity": 80,
                "duration": 0.3795455,
                "tempo": 120.0
            },
            {
                "start_time": 42.2340909,
                "end_time": 42.4068182,
                "pitch": 77,
                "velocity": 80,
                "duration": 0.1727273,
                "tempo": 120.0
            },
            {
                "start_time": 42.4477273,
                "end_time": 42.6136364,
                "pitch": 76,
                "velocity": 80,
                "duration": 0.1659091,
                "tempo": 120.0
            },
            {
                "start_time": 42.6522727,
                "end_time": 42.8727273,
                "pitch": 76,
                "velocity": 4,
                "duration": 0.2204545,
                "tempo": 120.0
            },
            {
                "start_time": 42.8727273,
                "end_time": 43.0477273,
                "pitch": 72,
                "velocity": 4,
                "duration": 0.175,
                "tempo": 120.0
            },
            {
                "start_time": 42.875,
                "end_time": 43.0477273,
                "pitch": 72,
                "velocity": 80,
                "duration": 0.1727273,
                "tempo": 120.0
            },
            {
                "start_time": 43.0886364,
                "end_time": 43.3090909,
                "pitch": 72,
                "velocity": 4,
                "duration": 0.2204545,
                "tempo": 120.0
            },
            {
                "start_time": 43.3113636,
                "end_time": 44.9954545,
                "pitch": 79,
                "velocity": 80,
                "duration": 1.6840909,
                "tempo": 120.0
            }
        ],
        "Flute": [
            {
                "start_time": 17.4704545,
                "end_time": 18.9886364,
                "pitch": 64,
                "velocity": 80,
                "duration": 1.5181818,
                "tempo": 120.0
            },
            {
                "start_time": 19.2159091,
                "end_time": 20.7340909,
                "pitch": 62,
                "velocity": 80,
                "duration": 1.5181818,
                "tempo": 120.0
            },
            {
                "start_time": 20.9636364,
                "end_time": 22.4818182,
                "pitch": 62,
                "velocity": 80,
                "duration": 1.5181818,
                "tempo": 120.0
            },
            {
                "start_time": 22.7113636,
                "end_time": 24.2363636,
                "pitch": 61,
                "velocity": 80,
                "duration": 1.525,
                "tempo": 120.0
            },
            {
                "start_time": 24.4727273,
                "end_time": 27.4954545,
                "pitch": 62,
                "velocity": 80,
                "duration": 3.0227273,
                "tempo": 120.0
            },
            {
                "start_time": 27.9295455,
                "end_time": 29.2613636,
                "pitch": 69,
                "velocity": 80,
                "duration": 1.3318182,
                "tempo": 120.0
            },
            {
                "start_time": 29.4613636,
                "end_time": 30.0386364,
                "pitch": 68,
                "velocity": 80,
                "duration": 0.5772727,
                "tempo": 120.0
            },
            {
                "start_time": 30.1363636,
                "end_time": 30.3477273,
                "pitch": 68,
                "velocity": 4,
                "duration": 0.2113636,
                "tempo": 120.0
            },
            {
                "start_time": 30.3477273,
                "end_time": 30.7227273,
                "pitch": 76,
                "velocity": 4,
                "duration": 0.375,
                "tempo": 120.0
            },
            {
                "start_time": 30.3477273,
                "end_time": 30.7227273,
                "pitch": 76,
                "velocity": 51,
                "duration": 0.375,
                "tempo": 120.0
            },
            {
                "start_time": 30.7772727,
                "end_time": 31.1522727,
                "pitch": 76,
                "velocity": 51,
                "duration": 0.375,
                "tempo": 120.0
            },
            {
                "start_time": 31.2090909,
                "end_time": 31.5840909,
                "pitch": 76,
                "velocity": 51,
                "duration": 0.375,
                "tempo": 120.0
            },
            {
                "start_time": 31.6409091,
                "end_time": 33.9022727,
                "pitch": 81,
                "velocity": 51,
                "duration": 2.2613636,
                "tempo": 120.0
            },
            {
                "start_time": 34.2136364,
                "end_time": 34.9704545,
                "pitch": 77,
                "velocity": 51,
                "duration": 0.7568182,
                "tempo": 120.0
            },
            {
                "start_time": 35.075,
                "end_time": 35.8295455,
                "pitch": 80,
                "velocity": 51,
                "duration": 0.7545455,
                "tempo": 120.0
            },
            {
                "start_time": 35.9340909,
                "end_time": 36.3090909,
                "pitch": 81,
                "velocity": 51,
                "duration": 0.375,
                "tempo": 120.0
            },
            {
                "start_time": 36.3659091,
                "end_time": 36.7409091,
                "pitch": 83,
                "velocity": 51,
                "duration": 0.375,
                "tempo": 120.0
            },
            {
                "start_time": 36.7977273,
                "end_time": 37.1704545,
                "pitch": 84,
                "velocity": 51,
                "duration": 0.3727273,
                "tempo": 120.0
            },
            {
                "start_time": 37.2363636,
                "end_time": 37.4204545,
                "pitch": 83,
                "velocity": 51,
                "duration": 0.1840909,
                "tempo": 120.0
            },
            {
                "start_time": 37.4590909,
                "end_time": 38.425,
                "pitch": 81,
                "velocity": 51,
                "duration": 0.9659091,
                "tempo": 120.0
            },
            {
                "start_time": 38.5636364,
                "end_time": 39.8818182,
                "pitch": 81,
                "velocity": 51,
                "duration": 1.3181818,
                "tempo": 120.0
            },
            {
                "start_time": 40.0704545,
                "end_time": 41.7681818,
                "pitch": 77,
                "velocity": 51,
                "duration": 1.6977273,
                "tempo": 120.0
            },
            {
                "start_time": 42.0113636,
                "end_time": 42.5659091,
                "pitch": 84,
                "velocity": 51,
                "duration": 0.5545455,
                "tempo": 120.0
            },
            {
                "start_time": 42.6522727,
                "end_time": 42.8295455,
                "pitch": 84,
                "velocity": 51,
                "duration": 0.1772727,
                "tempo": 120.0
            },
            {
                "start_time": 42.875,
                "end_time": 43.0886364,
                "pitch": 84,
                "velocity": 4,
                "duration": 0.2136364,
                "tempo": 120.0
            },
            {
                "start_time": 43.0886364,
                "end_time": 43.2659091,
                "pitch": 84,
                "velocity": 51,
                "duration": 0.1772727,
                "tempo": 120.0
            },
            {
                "start_time": 43.3113636,
                "end_time": 43.5227273,
                "pitch": 84,
                "velocity": 4,
                "duration": 0.2113636,
                "tempo": 120.0
            },
            {
                "start_time": 43.5227273,
                "end_time": 43.6931818,
                "pitch": 83,
                "velocity": 51,
                "duration": 0.1704545,
                "tempo": 120.0
            }
        ],
        "Acoustic Guitar (nylon)": [
            {
                "start_time": 43.7318182,
                "end_time": 43.9022727,
                "pitch": 71,
                "velocity": 80,
                "duration": 0.1704545,
                "tempo": 120.0
            },
            {
                "start_time": 43.9409091,
                "end_time": 44.1181818,
                "pitch": 72,
                "velocity": 80,
                "duration": 0.1772727,
                "tempo": 120.0
            },
            {
                "start_time": 44.1590909,
                "end_time": 44.3340909,
                "pitch": 74,
                "velocity": 80,
                "duration": 0.175,
                "tempo": 120.0
            },
            {
                "start_time": 44.3772727,
                "end_time": 44.5477273,
                "pitch": 76,
                "velocity": 80,
                "duration": 0.1704545,
                "tempo": 120.0
            },
            {
                "start_time": 44.5886364,
                "end_time": 44.7613636,
                "pitch": 77,
                "velocity": 80,
                "duration": 0.1727273,
                "tempo": 120.0
            },
            {
                "start_time": 44.8022727,
                "end_time": 44.9772727,
                "pitch": 79,
                "velocity": 80,
                "duration": 0.175,
                "tempo": 120.0
            },
            {
                "start_time": 45.0204545,
                "end_time": 45.1954545,
                "pitch": 81,
                "velocity": 80,
                "duration": 0.175,
                "tempo": 120.0
            }
        ],
        "Acoustic Bass": [
            {
                "start_time": 0.0113636,
                "end_time": 0.2113636,
                "pitch": 0,
                "velocity": 4,
                "duration": 0.2,
                "tempo": 120.0
            },
            {
                "start_time": 0.2113636,
                "end_time": 0.7613636,
                "pitch": 36,
                "velocity": 101,
                "duration": 0.55,
                "tempo": 120.0
            },
            {
                "start_time": 0.8454545,
                "end_time": 1.0181818,
                "pitch": 43,
                "velocity": 101,
                "duration": 0.1727273,
                "tempo": 120.0
            },
            {
                "start_time": 1.0522727,
                "end_time": 1.2340909,
                "pitch": 50,
                "velocity": 101,
                "duration": 0.1818182,
                "tempo": 120.0
            },
            {
                "start_time": 1.2704545,
                "end_time": 1.4522727,
                "pitch": 48,
                "velocity": 101,
                "duration": 0.1818182,
                "tempo": 120.0
            },
            {
                "start_time": 1.4931818,
                "end_time": 1.6704545,
                "pitch": 50,
                "velocity": 101,
                "duration": 0.1772727,
                "tempo": 120.0
            },
            {
                "start_time": 1.7090909,
                "end_time": 2.6409091,
                "pitch": 53,
                "velocity": 101,
                "duration": 0.9318182,
                "tempo": 120.0
            },
            {
                "start_time": 2.775,
                "end_time": 2.9954545,
                "pitch": 53,
                "velocity": 4,
                "duration": 0.2204545,
                "tempo": 120.0
            },
            {
                "start_time": 2.9954545,
                "end_time": 3.1659091,
                "pitch": 36,
                "velocity": 101,
                "duration": 0.1704545,
                "tempo": 120.0
            },
            {
                "start_time": 3.2068182,
                "end_time": 3.6,
                "pitch": 35,
                "velocity": 101,
                "duration": 0.3931818,
                "tempo": 120.0
            },
            {
                "start_time": 3.6636364,
                "end_time": 4.2022727,
                "pitch": 33,
                "velocity": 101,
                "duration": 0.5386364,
                "tempo": 120.0
            },
            {
                "start_time": 4.2977273,
                "end_time": 4.4704545,
                "pitch": 40,
                "velocity": 101,
                "duration": 0.1727273,
                "tempo": 120.0
            },
            {
                "start_time": 4.5136364,
                "end_time": 4.6840909,
                "pitch": 47,
                "velocity": 101,
                "duration": 0.1704545,
                "tempo": 120.0
            },
            {
                "start_time": 4.7204545,
                "end_time": 4.8977273,
                "pitch": 45,
                "velocity": 101,
                "duration": 0.1772727,
                "tempo": 120.0
            },
            {
                "start_time": 4.9318182,
                "end_time": 5.1113636,
                "pitch": 47,
                "velocity": 101,
                "duration": 0.1795455,
                "tempo": 120.0
            },
            {
                "start_time": 2.9954545,
                "end_time": 6.0772727,
                "pitch": 48,
                "velocity": 4,
                "duration": 3.0818182,
                "tempo": 120.0
            },
            {
                "start_time": 5.1454545,
                "end_time": 6.0772727,
                "pitch": 48,
                "velocity": 101,
                "duration": 0.9318182,
                "tempo": 120.0
            },
            {
                "start_time": 6.2136364,
                "end_time": 6.4363636,
                "pitch": 48,
                "velocity": 4,
                "duration": 0.2227273,
                "tempo": 120.0
            },
            {
                "start_time": 6.4363636,
                "end_time": 6.9931818,
                "pitch": 33,
                "velocity": 101,
                "duration": 0.5568182,
                "tempo": 120.0
            },
            {
                "start_time": 7.0954545,
                "end_time": 8.8,
                "pitch": 29,
                "velocity": 101,
                "duration": 1.7045455,
                "tempo": 120.0
            },
            {
                "start_time": 9.0363636,
                "end_time": 9.2181818,
                "pitch": 29,
                "velocity": 101,
                "duration": 0.1818182,
                "tempo": 120.0
            },
            {
                "start_time": 9.2545455,
                "end_time": 9.4318182,
                "pitch": 36,
                "velocity": 101,
                "duration": 0.1772727,
                "tempo": 120.0
            },
            {
                "start_time": 9.4681818,
                "end_time": 10.0295455,
                "pitch": 41,
                "velocity": 101,
                "duration": 0.5613636,
                "tempo": 120.0
            },
            {
                "start_time": 10.1204545,
                "end_time": 10.5068182,
                "pitch": 29,
                "velocity": 101,
                "duration": 0.3863636,
                "tempo": 120.0
            },
            {
                "start_time": 10.575,
                "end_time": 11.525,
                "pitch": 31,
                "velocity": 101,
                "duration": 0.95,
                "tempo": 120.0
            },
            {
                "start_time": 11.6613636,
                "end_time": 11.8295455,
                "pitch": 31,
                "velocity": 101,
                "duration": 0.1681818,
                "tempo": 120.0
            },
            {
                "start_time": 11.8681818,
                "end_time": 12.0454545,
                "pitch": 50,
                "velocity": 101,
                "duration": 0.1772727,
                "tempo": 120.0
            },
            {
                "start_time": 12.0886364,
                "end_time": 13.0136364,
                "pitch": 55,
                "velocity": 101,
                "duration": 0.925,
                "tempo": 120.0
            },
            {
                "start_time": 13.1568182,
                "end_time": 13.5318182,
                "pitch": 50,
                "velocity": 101,
                "duration": 0.375,
                "tempo": 120.0
            },
            {
                "start_time": 13.5863636,
                "end_time": 13.9681818,
                "pitch": 38,
                "velocity": 101,
                "duration": 0.3818182,
                "tempo": 120.0
            },
            {
                "start_time": 14.0318182,
                "end_time": 17.025,
                "pitch": 36,
                "velocity": 101,
                "duration": 2.9931818,
                "tempo": 120.0
            },
            {
                "start_time": 17.4704545,
                "end_time": 18.6181818,
                "pitch": 36,
                "velocity": 101,
                "duration": 1.1477273,
                "tempo": 120.0
            },
            {
                "start_time": 18.7727273,
                "end_time": 19.15,
                "pitch": 36,
                "velocity": 101,
                "duration": 0.3772727,
                "tempo": 120.0
            },
            {
                "start_time": 19.2159091,
                "end_time": 20.3659091,
                "pitch": 35,
                "velocity": 101,
                "duration": 1.15,
                "tempo": 120.0
            },
            {
                "start_time": 20.5181818,
                "end_time": 20.8977273,
                "pitch": 35,
                "velocity": 101,
                "duration": 0.3795455,
                "tempo": 120.0
            },
            {
                "start_time": 20.9636364,
                "end_time": 22.1136364,
                "pitch": 34,
                "velocity": 101,
                "duration": 1.15,
                "tempo": 120.0
            },
            {
                "start_time": 22.2659091,
                "end_time": 22.6454545,
                "pitch": 34,
                "velocity": 101,
                "duration": 0.3795455,
                "tempo": 120.0
            },
            {
                "start_time": 22.7113636,
                "end_time": 23.8613636,
                "pitch": 33,
                "velocity": 101,
                "duration": 1.15,
                "tempo": 120.0
            },
            {
                "start_time": 24.0159091,
                "end_time": 24.4022727,
                "pitch": 33,
                "velocity": 101,
                "duration": 0.3863636,
                "tempo": 120.0
            },
            {
                "start_time": 24.4727273,
                "end_time": 25.6159091,
                "pitch": 38,
                "velocity": 101,
                "duration": 1.1431818,
                "tempo": 120.0
            },
            {
                "start_time": 25.7727273,
                "end_time": 26.1522727,
                "pitch": 38,
                "velocity": 101,
                "duration": 0.3795455,
                "tempo": 120.0
            },
            {
                "start_time": 26.2068182,
                "end_time": 27.3318182,
                "pitch": 35,
                "velocity": 101,
                "duration": 1.125,
                "tempo": 120.0
            },
            {
                "start_time": 27.4840909,
                "end_time": 27.8636364,
                "pitch": 35,
                "velocity": 101,
                "duration": 0.3795455,
                "tempo": 120.0
            },
            {
                "start_time": 27.9295455,
                "end_time": 29.2613636,
                "pitch": 40,
                "velocity": 101,
                "duration": 1.3318182,
                "tempo": 120.0
            },
            {
                "start_time": 29.4613636,
                "end_time": 30.0386364,
                "pitch": 40,
                "velocity": 101,
                "duration": 0.5772727,
                "tempo": 120.0
            },
            {
                "start_time": 30.1363636,
                "end_time": 30.5090909,
                "pitch": 28,
                "velocity": 101,
                "duration": 0.3727273,
                "tempo": 120.0
            },
            {
                "start_time": 30.5704545,
                "end_time": 30.9363636,
                "pitch": 30,
                "velocity": 101,
                "duration": 0.3659091,
                "tempo": 120.0
            },
            {
                "start_time": 30.9954545,
                "end_time": 31.3704545,
                "pitch": 32,
                "velocity": 101,
                "duration": 0.375,
                "tempo": 120.0
            },
            {
                "start_time": 31.4318182,
                "end_time": 31.6,
                "pitch": 33,
                "velocity": 101,
                "duration": 0.1681818,
                "tempo": 120.0
            },
            {
                "start_time": 31.6409091,
                "end_time": 31.8136364,
                "pitch": 40,
                "velocity": 101,
                "duration": 0.1727273,
                "tempo": 120.0
            },
            {
                "start_time": 31.8477273,
                "end_time": 32.0295455,
                "pitch": 47,
                "velocity": 101,
                "duration": 0.1818182,
                "tempo": 120.0
            },
            {
                "start_time": 32.0659091,
                "end_time": 33.0045455,
                "pitch": 48,
                "velocity": 101,
                "duration": 0.9386364,
                "tempo": 120.0
            },
            {
                "start_time": 33.1522727,
                "end_time": 33.3227273,
                "pitch": 29,
                "velocity": 101,
                "duration": 0.1704545,
                "tempo": 120.0
            },
            {
                "start_time": 33.3613636,
                "end_time": 33.5363636,
                "pitch": 36,
                "velocity": 101,
                "duration": 0.175,
                "tempo": 120.0
            },
            {
                "start_time": 33.5704545,
                "end_time": 33.7522727,
                "pitch": 43,
                "velocity": 101,
                "duration": 0.1818182,
                "tempo": 120.0
            },
            {
                "start_time": 6.4363636,
                "end_time": 34.7204545,
                "pitch": 45,
                "velocity": 4,
                "duration": 28.2840909,
                "tempo": 120.0
            },
            {
                "start_time": 33.7931818,
                "end_time": 34.7204545,
                "pitch": 45,
                "velocity": 101,
                "duration": 0.9272727,
                "tempo": 120.0
            },
            {
                "start_time": 34.8659091,
                "end_time": 35.0340909,
                "pitch": 28,
                "velocity": 101,
                "duration": 0.1681818,
                "tempo": 120.0
            },
            {
                "start_time": 35.075,
                "end_time": 35.2477273,
                "pitch": 35,
                "velocity": 101,
                "duration": 0.1727273,
                "tempo": 120.0
            },
            {
                "start_time": 35.2886364,
                "end_time": 35.4636364,
                "pitch": 41,
                "velocity": 101,
                "duration": 0.175,
                "tempo": 120.0
            },
            {
                "start_time": 35.5090909,
                "end_time": 35.8795455,
                "pitch": 43,
                "velocity": 101,
                "duration": 0.3704545,
                "tempo": 120.0
            },
            {
                "start_time": 35.9340909,
                "end_time": 36.1090909,
                "pitch": 28,
                "velocity": 101,
                "duration": 0.175,
                "tempo": 120.0
            },
            {
                "start_time": 36.1522727,
                "end_time": 36.325,
                "pitch": 41,
                "velocity": 101,
                "duration": 0.1727273,
                "tempo": 120.0
            },
            {
                "start_time": 36.3681818,
                "end_time": 36.5431818,
                "pitch": 28,
                "velocity": 101,
                "duration": 0.175,
                "tempo": 120.0
            },
            {
                "start_time": 36.5863636,
                "end_time": 36.7568182,
                "pitch": 33,
                "velocity": 101,
                "duration": 0.1704545,
                "tempo": 120.0
            },
            {
                "start_time": 36.7977273,
                "end_time": 36.9704545,
                "pitch": 40,
                "velocity": 101,
                "duration": 0.1727273,
                "tempo": 120.0
            },
            {
                "start_time": 37.0113636,
                "end_time": 37.1863636,
                "pitch": 47,
                "velocity": 101,
                "duration": 0.175,
                "tempo": 120.0
            },
            {
                "start_time": 37.2363636,
                "end_time": 37.6204545,
                "pitch": 48,
                "velocity": 101,
                "duration": 0.3840909,
                "tempo": 120.0
            },
            {
                "start_time": 37.6795455,
                "end_time": 38.2409091,
                "pitch": 36,
                "velocity": 101,
                "duration": 0.5613636,
                "tempo": 120.0
            },
            {
                "start_time": 38.3386364,
                "end_time": 40.6090909,
                "pitch": 29,
                "velocity": 101,
                "duration": 2.2704545,
                "tempo": 120.0
            },
            {
                "start_time": 40.9181818,
                "end_time": 41.6840909,
                "pitch": 29,
                "velocity": 101,
                "duration": 0.7659091,
                "tempo": 120.0
            },
            {
                "start_time": 41.7977273,
                "end_time": 42.7295455,
                "pitch": 31,
                "velocity": 101,
                "duration": 0.9318182,
                "tempo": 120.0
            },
            {
                "start_time": 42.875,
                "end_time": 43.0477273,
                "pitch": 31,
                "velocity": 101,
                "duration": 0.1727273,
                "tempo": 120.0
            },
            {
                "start_time": 43.0886364,
                "end_time": 43.2659091,
                "pitch": 26,
                "velocity": 101,
                "duration": 0.1772727,
                "tempo": 120.0
            },
            {
                "start_time": 43.3113636,
                "end_time": 44.9954545,
                "pitch": 31,
                "velocity": 101,
                "duration": 1.6840909,
                "tempo": 120.0
            },
            {
                "start_time": 45.2431818,
                "end_time": 45.8045455,
                "pitch": 36,
                "velocity": 101,
                "duration": 0.5613636,
                "tempo": 120.0
            },
            {
                "start_time": 45.8909091,
                "end_time": 46.0727273,
                "pitch": 43,
                "velocity": 101,
                "duration": 0.1818182,
                "tempo": 120.0
            },
            {
                "start_time": 46.1090909,
                "end_time": 46.2909091,
                "pitch": 50,
                "velocity": 101,
                "duration": 0.1818182,
                "tempo": 120.0
            },
            {
                "start_time": 46.3272727,
                "end_time": 46.5090909,
                "pitch": 48,
                "velocity": 101,
                "duration": 0.1818182,
                "tempo": 120.0
            },
            {
                "start_time": 46.55,
                "end_time": 46.725,
                "pitch": 50,
                "velocity": 101,
                "duration": 0.175,
                "tempo": 120.0
            },
            {
                "start_time": 46.7659091,
                "end_time": 47.6977273,
                "pitch": 53,
                "velocity": 101,
                "duration": 0.9318182,
                "tempo": 120.0
            },
            {
                "start_time": 47.8318182,
                "end_time": 48.0522727,
                "pitch": 53,
                "velocity": 4,
                "duration": 0.2204545,
                "tempo": 120.0
            },
            {
                "start_time": 48.0522727,
                "end_time": 48.2227273,
                "pitch": 36,
                "velocity": 101,
                "duration": 0.1704545,
                "tempo": 120.0
            },
            {
                "start_time": 48.2613636,
                "end_time": 48.6477273,
                "pitch": 35,
                "velocity": 101,
                "duration": 0.3863636,
                "tempo": 120.0
            },
            {
                "start_time": 48.7090909,
                "end_time": 49.2568182,
                "pitch": 33,
                "velocity": 101,
                "duration": 0.5477273,
                "tempo": 120.0
            },
            {
                "start_time": 49.35,
                "end_time": 49.5181818,
                "pitch": 40,
                "velocity": 101,
                "duration": 0.1681818,
                "tempo": 120.0
            },
            {
                "start_time": 49.5590909,
                "end_time": 49.7318182,
                "pitch": 47,
                "velocity": 101,
                "duration": 0.1727273,
                "tempo": 120.0
            },
            {
                "start_time": 49.7659091,
                "end_time": 49.9431818,
                "pitch": 45,
                "velocity": 101,
                "duration": 0.1772727,
                "tempo": 120.0
            },
            {
                "start_time": 49.9795455,
                "end_time": 50.1613636,
                "pitch": 47,
                "velocity": 101,
                "duration": 0.1818182,
                "tempo": 120.0
            },
            {
                "start_time": 48.0522727,
                "end_time": 51.1318182,
                "pitch": 48,
                "velocity": 4,
                "duration": 3.0795455,
                "tempo": 120.0
            },
            {
                "start_time": 50.1977273,
                "end_time": 51.1318182,
                "pitch": 48,
                "velocity": 101,
                "duration": 0.9340909,
                "tempo": 120.0
            },
            {
                "start_time": 51.2681818,
                "end_time": 51.4909091,
                "pitch": 48,
                "velocity": 4,
                "duration": 0.2227273,
                "tempo": 120.0
            },
            {
                "start_time": 51.4909091,
                "end_time": 52.05,
                "pitch": 33,
                "velocity": 101,
                "duration": 0.5590909,
                "tempo": 120.0
            },
            {
                "start_time": 52.15,
                "end_time": 53.8659091,
                "pitch": 29,
                "velocity": 101,
                "duration": 1.7159091,
                "tempo": 120.0
            },
            {
                "start_time": 54.0977273,
                "end_time": 54.275,
                "pitch": 29,
                "velocity": 101,
                "duration": 0.1772727,
                "tempo": 120.0
            },
            {
                "start_time": 54.3113636,
                "end_time": 54.4886364,
                "pitch": 36,
                "velocity": 101,
                "duration": 0.1772727,
                "tempo": 120.0
            },
            {
                "start_time": 54.5227273,
                "end_time": 55.4704545,
                "pitch": 41,
                "velocity": 101,
                "duration": 0.9477273,
                "tempo": 120.0
            },
            {
                "start_time": 55.6204545,
                "end_time": 56.5727273,
                "pitch": 43,
                "velocity": 101,
                "duration": 0.9522727,
                "tempo": 120.0
            },
            {
                "start_time": 56.7113636,
                "end_time": 56.8840909,
                "pitch": 43,
                "velocity": 101,
                "duration": 0.1727273,
                "tempo": 120.0
            },
            {
                "start_time": 56.9227273,
                "end_time": 57.0977273,
                "pitch": 50,
                "velocity": 101,
                "duration": 0.175,
                "tempo": 120.0
            },
            {
                "start_time": 57.1386364,
                "end_time": 58.8454545,
                "pitch": 55,
                "velocity": 101,
                "duration": 1.7068182,
                "tempo": 120.0
            },
            {
                "start_time": 59.0818182,
                "end_time": 59.2545455,
                "pitch": 24,
                "velocity": 101,
                "duration": 0.1727273,
                "tempo": 120.0
            },
            {
                "start_time": 59.2931818,
                "end_time": 59.4681818,
                "pitch": 28,
                "velocity": 101,
                "duration": 0.175,
                "tempo": 120.0
            },
            {
                "start_time": 59.5022727,
                "end_time": 59.6863636,
                "pitch": 31,
                "velocity": 101,
                "duration": 0.1840909,
                "tempo": 120.0
            },
            {
                "start_time": 59.725,
                "end_time": 59.9090909,
                "pitch": 35,
                "velocity": 101,
                "duration": 0.1840909,
                "tempo": 120.0
            },
            {
                "start_time": 59.95,
                "end_time": 62.1909091,
                "pitch": 36,
                "velocity": 101,
                "duration": 2.2409091,
                "tempo": 120.0
            }
        ]
    }
}