{
    "mood": "relaxed",
    "instruments": {
        "Vibraphone": [
            {
                "start_time": 0.0,
                "end_time": 0.0954545,
                "pitch": 71,
                "velocity": 64,
                "duration": 0.0954545,
                "tempo": 120.0
            },
            {
                "start_time": 0.1295455,
                "end_time": 0.2295455,
                "pitch": 76,
                "velocity": 64,
                "duration": 0.1,
                "tempo": 120.0
            },
            {
                "start_time": 0.2636364,
                "end_time": 0.3636364,
                "pitch": 83,
                "velocity": 64,
                "duration": 0.1,
                "tempo": 120.0
            },
            {
                "start_time": 0.1295455,
                "end_time": 0.3977273,
                "pitch": 56,
                "velocity": 64,
                "duration": 0.2681818,
                "tempo": 120.0
            },
            {
                "start_time": 0.3977273,
                "end_time": 0.4977273,
                "pitch": 76,
                "velocity": 64,
                "duration": 0.1,
                "tempo": 120.0
            },
            {
                "start_time": 0.5318182,
                "end_time": 0.6318182,
                "pitch": 71,
                "velocity": 64,
                "duration": 0.1,
                "tempo": 120.0
            },
            {
                "start_time": 0.3977273,
                "end_time": 0.6636364,
                "pitch": 56,
                "velocity": 64,
                "duration": 0.2659091,
                "tempo": 120.0
            },
            {
                "start_time": 0.6636364,
                "end_time": 0.7636364,
                "pitch": 76,
                "velocity": 64,
                "duration": 0.1,
                "tempo": 120.0
            },
            {
                "start_time": 0.2636364,
                "end_time": 0.7977273,
                "pitch": 90,
                "velocity": 64,
                "duration": 0.5340909,
                "tempo": 120.0
            },
            {
                "start_time": 0.7977273,
                "end_time": 0.8977273,
                "pitch": 83,
                "velocity": 64,
                "duration": 0.1,
                "tempo": 120.0
            },
            {
                "start_time": 0.6636364,
                "end_time": 0.9318182,
                "pitch": 56,
                "velocity": 64,
                "duration": 0.2681818,
                "tempo": 120.0
            },
            {
                "start_time": 0.9318182,
                "end_time": 1.0318182,
                "pitch": 76,
                "velocity": 64,
                "duration": 0.1,
                "tempo": 120.0
            },
            {
                "start_time": 0.5318182,
                "end_time": 1.0659091,
                "pitch": 78,
                "velocity": 64,
                "duration": 0.5340909,
                "tempo": 120.0
            },
            {
                "start_time": 1.0659091,
                "end_time": 1.1659091,
                "pitch": 71,
                "velocity": 64,
                "duration": 0.1,
                "tempo": 120.0
            },
            {
                "start_time": 0.9318182,
                "end_time": 1.2,
                "pitch": 56,
                "velocity": 64,
                "duration": 0.2681818,
                "tempo": 120.0
            },
            {
                "start_time": 1.2,
                "end_time": 1.3,
                "pitch": 76,
                "velocity": 64,
                "duration": 0.1,
                "tempo": 120.0
            },
            {
                "start_time": 0.7977273,
                "end_time": 1.3340909,
                "pitch": 90,
                "velocity": 64,
                "duration": 0.5363636,
                "tempo": 120.0
            },
            {
                "start_time": 1.3340909,
                "end_time": 1.4340909,
                "pitch": 83,
                "velocity": 64,
                "duration": 0.1,
                "tempo": 120.0
            },
            {
                "start_time": 1.2,
                "end_time": 1.4681818,
                "pitch": 56,
                "velocity": 64,
                "duration": 0.2681818,
                "tempo": 120.0
            },
            {
                "start_time": 1.4681818,
                "end_time": 1.5681818,
                "pitch": 76,
                "velocity": 64,
                "duration": 0.1,
                "tempo": 120.0
            },
            {
                "start_time": 1.0659091,
                "end_time": 1.6,
                "pitch": 78,
                "velocity": 64,
                "duration": 0.5340909,
                "tempo": 120.0
            },
            {
                "start_time": 1.6,
                "end_time": 1.7,
                "pitch": 71,
                "velocity": 64,
                "duration": 0.1,
                "tempo": 120.0
            },
            {
                "start_time": 1.4681818,
                "end_time": 1.7340909,
                "pitch": 56,
                "velocity": 64,
                "duration": 0.2659091,
                "tempo": 120.0
            },
            {
                "start_time": 1.7340909,
                "end_time": 1.8340909,
                "pitch": 76,
                "velocity": 64,
                "duration": 0.1,
                "tempo": 120.0
            },
            {
                "start_time": 1.3340909,
                "end_time": 1.8681818,
                "pitch": 90,
                "velocity": 64,
                "duration": 0.5340909,
                "tempo": 120.0
            },
            {
                "start_time": 1.8681818,
                "end_time": 1.9681818,
                "pitch": 83,
                "velocity": 64,
                "duration": 0.1,
                "tempo": 120.0
            },
            {
                "start_time": 1.7340909,
                "end_time": 2.0022727,
                "pitch": 56,
                "velocity": 64,
                "duration": 0.2681818,
                "tempo": 120.0
            },
            {
                "start_time": 2.0022727,
                "end_time": 2.1022727,
                "pitch": 76,
                "velocity": 64,
                "duration": 0.1,
                "tempo": 120.0
            },
            {
                "start_time": 1.6,
                "end_time": 2.1363636,
                "pitch": 78,
                "velocity": 64,
                "duration": 0.5363636,
                "tempo": 120.0
            },
            {
                "start_time": 2.1363636,
                "end_time": 2.2386364,
                "pitch": 69,
                "velocity": 64,
                "duration": 0.1022727,
                "tempo": 120.0
            },
            {
                "start_time": 2.2727273,
                "end_time": 2.3727273,
                "pitch": 76,
                "velocity": 64,
                "duration": 0.1,
                "tempo": 120.0
            },
            {
                "start_time": 1.8681818,
                "end_time": 2.4090909,
                "pitch": 90,
                "velocity": 64,
                "duration": 0.5409091,
                "tempo": 120.0
            },
            {
                "start_time": 2.4090909,
                "end_time": 2.5090909,
                "pitch": 81,
                "velocity": 64,
                "duration": 0.1,
                "tempo": 120.0
            },
            {
                "start_time": 2.2727273,
                "end_time": 2.5454545,
                "pitch": 43,
                "velocity": 64,
                "duration": 0.2727273,
                "tempo": 120.0
            },
            {
                "start_time": 2.5454545,
                "end_time": 2.6454545,
                "pitch": 76,
                "velocity": 64,
                "duration": 0.1,
                "tempo": 120.0
            },
            {
                "start_time": 2.1363636,
                "end_time": 2.6818182,
                "pitch": 78,
                "velocity": 64,
                "duration": 0.5454545,
                "tempo": 120.0
            },
            {
                "start_time": 2.6795455,
                "end_time": 2.6818182,
                "pitch": 78,
                "velocity": 64,
                "duration": 0.0022727,
                "tempo": 120.0
            },
            {
                "start_time": 2.6818182,
                "end_time": 2.7818182,
                "pitch": 69,
                "velocity": 64,
                "duration": 0.1,
                "tempo": 120.0
            },
            {
                "start_time": 2.5454545,
                "end_time": 2.8159091,
                "pitch": 43,
                "velocity": 64,
                "duration": 0.2704545,
                "tempo": 120.0
            },
            {
                "start_time": 2.8159091,
                "end_time": 2.9181818,
                "pitch": 76,
                "velocity": 64,
                "duration": 0.1022727,
                "tempo": 120.0
            },
            {
                "start_time": 2.4090909,
                "end_time": 2.9522727,
                "pitch": 90,
                "velocity": 64,
                "duration": 0.5431818,
                "tempo": 120.0
            },
            {
                "start_time": 2.9522727,
                "end_time": 3.0545455,
                "pitch": 81,
                "velocity": 64,
                "duration": 0.1022727,
                "tempo": 120.0
            },
            {
                "start_time": 2.8159091,
                "end_time": 3.0886364,
                "pitch": 43,
                "velocity": 64,
                "duration": 0.2727273,
                "tempo": 120.0
            },
            {
                "start_time": 3.0886364,
                "end_time": 3.1909091,
                "pitch": 76,
                "velocity": 64,
                "duration": 0.1022727,
                "tempo": 120.0
            },
            {
                "start_time": 3.225,
                "end_time": 3.325,
                "pitch": 69,
                "velocity": 64,
                "duration": 0.1,
                "tempo": 120.0
            },
            {
                "start_time": 3.0886364,
                "end_time": 3.3590909,
                "pitch": 43,
                "velocity": 64,
                "duration": 0.2704545,
                "tempo": 120.0
            },
            {
                "start_time": 3.3590909,
                "end_time": 3.4590909,
                "pitch": 76,
                "velocity": 64,
                "duration": 0.1,
                "tempo": 120.0
            },
            {
                "start_time": 2.9522727,
                "end_time": 3.4931818,
                "pitch": 90,
                "velocity": 64,
                "duration": 0.5409091,
                "tempo": 120.0
            },
            {
                "start_time": 3.4931818,
                "end_time": 3.5931818,
                "pitch": 81,
                "velocity": 64,
                "duration": 0.1,
                "tempo": 120.0
            },
            {
                "start_time": 3.3590909,
                "end_time": 3.6272727,
                "pitch": 43,
                "velocity": 64,
                "duration": 0.2681818,
                "tempo": 120.0
            },
            {
                "start_time": 3.6272727,
                "end_time": 3.7272727,
                "pitch": 76,
                "velocity": 64,
                "duration": 0.1,
                "tempo": 120.0
            },
            {
                "start_time": 3.225,
                "end_time": 3.7613636,
                "pitch": 78,
                "velocity": 64,
                "duration": 0.5363636,
                "tempo": 120.0
            },
            {
                "start_time": 3.7613636,
                "end_time": 3.8613636,
                "pitch": 69,
                "velocity": 64,
                "duration": 0.1,
                "tempo": 120.0
            },
            {
                "start_time": 3.6272727,
                "end_time": 3.8954545,
                "pitch": 43,
                "velocity": 64,
                "duration": 0.2681818,
                "tempo": 120.0
            },
            {
                "start_time": 3.8954545,
                "end_time": 3.9954545,
                "pitch": 74,
                "velocity": 64,
                "duration": 0.1,
                "tempo": 120.0
            },
            {
                "start_time": 4.0272727,
                "end_time": 4.1272727,
                "pitch": 81,
                "velocity": 64,
                "duration": 0.1,
                "tempo": 120.0
            },
            {
                "start_time": 4.1613636,
                "end_time": 4.2613636,
                "pitch": 86,
                "velocity": 64,
                "duration": 0.1,
                "tempo": 120.0
            },
            {
                "start_time": 4.2954545,
                "end_time": 4.3977273,
                "pitch": 92,
                "velocity": 64,
                "duration": 0.1022727,
                "tempo": 120.0
            },
            {
                "start_time": 3.8954545,
                "end_time": 4.4318182,
                "pitch": 43,
                "velocity": 64,
                "duration": 0.5363636,
                "tempo": 120.0
            },
            {
                "start_time": 3.4931818,
                "end_time": 4.5340909,
                "pitch": 90,
                "velocity": 64,
                "duration": 1.0409091,
                "tempo": 120.0
            },
            {
                "start_time": 4.4318182,
                "end_time": 4.5340909,
                "pitch": 90,
                "velocity": 64,
                "duration": 0.1022727,
                "tempo": 120.0
            },
            {
                "start_time": 4.5681818,
                "end_time": 4.6704545,
                "pitch": 90,
                "velocity": 64,
                "duration": 0.1022727,
                "tempo": 120.0
            },
            {
                "start_time": 4.7045455,
                "end_time": 4.8068182,
                "pitch": 83,
                "velocity": 64,
                "duration": 0.1022727,
                "tempo": 120.0
            },
            {
                "start_time": 4.8409091,
                "end_time": 4.9386364,
                "pitch": 80,
                "velocity": 64,
                "duration": 0.0977273,
                "tempo": 120.0
            },
            {
                "start_time": 3.7613636,
                "end_time": 5.0704545,
                "pitch": 78,
                "velocity": 64,
                "duration": 1.3090909,
                "tempo": 120.0
            },
            {
                "start_time": 4.9727273,
                "end_time": 5.0704545,
                "pitch": 78,
                "velocity": 64,
                "duration": 0.0977273,
                "tempo": 120.0
            },
            {
                "start_time": 5.1022727,
                "end_time": 5.2022727,
                "pitch": 78,
                "velocity": 64,
                "duration": 0.1,
                "tempo": 120.0
            },
            {
                "start_time": 5.2340909,
                "end_time": 5.3340909,
                "pitch": 71,
                "velocity": 64,
                "duration": 0.1,
                "tempo": 120.0
            },
            {
                "start_time": 5.3659091,
                "end_time": 6.4022727,
                "pitch": 64,
                "velocity": 64,
                "duration": 1.0363636,
                "tempo": 120.0
            }
        ],
        "Acoustic Bass": [
            {
                "start_time": 0.0022727,
                "end_time": 1.0659091,
                "pitch": 40,
                "velocity": 80,
                "duration": 1.0636364,
                "tempo": 120.0
            },
            {
                "start_time": 1.0659091,
                "end_time": 2.1363636,
                "pitch": 38,
                "velocity": 80,
                "duration": 1.0704545,
                "tempo": 120.0
            },
            {
                "start_time": 2.1363636,
                "end_time": 3.225,
                "pitch": 38,
                "velocity": 80,
                "duration": 1.0886364,
                "tempo": 120.0
            },
            {
                "start_time": 3.225,
                "end_time": 3.7613636,
                "pitch": 37,
                "velocity": 80,
                "duration": 0.5363636,
                "tempo": 120.0
            },
            {
                "start_time": 3.7613636,
                "end_time": 4.2954545,
                "pitch": 38,
                "velocity": 80,
                "duration": 0.5340909,
                "tempo": 120.0
            },
            {
                "start_time": 1.0659091,
                "end_time": 6.4363636,
                "pitch": 40,
                "velocity": 80,
                "duration": 5.3704545,
                "tempo": 120.0
            },
            {
                "start_time": 4.2954545,
                "end_time": 6.4363636,
                "pitch": 40,
                "velocity": 80,
                "duration": 2.1409091,
                "tempo": 120.0
            }
        ],
        "Trumpet": [
            {
                "start_time": 0.5340909,
                "end_time": 0.7659091,
                "pitch": 71,
                "velocity": 51,
                "duration": 0.2318182,
                "tempo": 120.0
            },
            {
                "start_time": 0.8,
                "end_time": 1.0318182,
                "pitch": 76,
                "velocity": 51,
                "duration": 0.2318182,
                "tempo": 120.0
            },
            {
                "start_time": 1.0681818,
                "end_time": 1.3,
                "pitch": 76,
                "velocity": 51,
                "duration": 0.2318182,
                "tempo": 120.0
            },
            {
                "start_time": 1.3363636,
                "end_time": 1.5681818,
                "pitch": 80,
                "velocity": 51,
                "duration": 0.2318182,
                "tempo": 120.0
            },
            {
                "start_time": 1.6045455,
                "end_time": 1.8363636,
                "pitch": 76,
                "velocity": 51,
                "duration": 0.2318182,
                "tempo": 120.0
            },
            {
                "start_time": 1.8704545,
                "end_time": 2.1022727,
                "pitch": 76,
                "velocity": 51,
                "duration": 0.2318182,
                "tempo": 120.0
            },
            {
                "start_time": 1.3363636,
                "end_time": 2.1386364,
                "pitch": 91,
                "velocity": 51,
                "duration": 0.8022727,
                "tempo": 120.0
            },
            {
                "start_time": 2.1386364,
                "end_time": 2.375,
                "pitch": 80,
                "velocity": 51,
                "duration": 0.2363636,
                "tempo": 120.0
            },
            {
                "start_time": 2.4113636,
                "end_time": 3.1909091,
                "pitch": 80,
                "velocity": 51,
                "duration": 0.7795455,
                "tempo": 120.0
            },
            {
                "start_time": 3.2272727,
                "end_time": 3.3272727,
                "pitch": 81,
                "velocity": 51,
                "duration": 0.1,
                "tempo": 120.0
            },
            {
                "start_time": 1.6045455,
                "end_time": 3.3613636,
                "pitch": 33,
                "velocity": 51,
                "duration": 1.7568182,
                "tempo": 120.0
            },
            {
                "start_time": 3.3613636,
                "end_time": 3.4590909,
                "pitch": 78,
                "velocity": 51,
                "duration": 0.0977273,
                "tempo": 120.0
            },
            {
                "start_time": 2.1386364,
                "end_time": 3.4954545,
                "pitch": 91,
                "velocity": 51,
                "duration": 1.3568182,
                "tempo": 120.0
            },
            {
                "start_time": 3.4954545,
                "end_time": 3.7272727,
                "pitch": 79,
                "velocity": 51,
                "duration": 0.2318182,
                "tempo": 120.0
            },
            {
                "start_time": 3.7636364,
                "end_time": 3.9954545,
                "pitch": 78,
                "velocity": 51,
                "duration": 0.2318182,
                "tempo": 120.0
            },
            {
                "start_time": 4.0318182,
                "end_time": 4.2636364,
                "pitch": 78,
                "velocity": 51,
                "duration": 0.2318182,
                "tempo": 120.0
            },
            {
                "start_time": 4.2977273,
                "end_time": 4.5340909,
                "pitch": 74,
                "velocity": 51,
                "duration": 0.2363636,
                "tempo": 120.0
            },
            {
                "start_time": 4.5681818,
                "end_time": 4.5704545,
                "pitch": 74,
                "velocity": 51,
                "duration": 0.0022727,
                "tempo": 120.0
            },
            {
                "start_time": 4.2977273,
                "end_time": 6.1363636,
                "pitch": 76,
                "velocity": 51,
                "duration": 1.8386364,
                "tempo": 120.0
            },
            {
                "start_time": 4.5704545,
                "end_time": 6.1363636,
                "pitch": 76,
                "velocity": 51,
                "duration": 1.5659091,
                "tempo": 120.0
            }
        ],
        "French Horn": [
            {
                "start_time": 0.0068182,
                "end_time": 0.4977273,
                "pitch": 55,
                "velocity": 64,
                "duration": 0.4909091,
                "tempo": 120.0
            },
            {
                "start_time": 0.5340909,
                "end_time": 1.0340909,
                "pitch": 47,
                "velocity": 64,
                "duration": 0.5,
                "tempo": 120.0
            },
            {
                "start_time": 1.0704545,
                "end_time": 1.5681818,
                "pitch": 50,
                "velocity": 64,
                "duration": 0.4977273,
                "tempo": 120.0
            },
            {
                "start_time": 1.6045455,
                "end_time": 2.1045455,
                "pitch": 45,
                "velocity": 64,
                "duration": 0.5,
                "tempo": 120.0
            },
            {
                "start_time": 2.1409091,
                "end_time": 2.6477273,
                "pitch": 49,
                "velocity": 64,
                "duration": 0.5068182,
                "tempo": 120.0
            },
            {
                "start_time": 2.6840909,
                "end_time": 3.1931818,
                "pitch": 47,
                "velocity": 64,
                "duration": 0.5090909,
                "tempo": 120.0
            },
            {
                "start_time": 3.2295455,
                "end_time": 3.7272727,
                "pitch": 43,
                "velocity": 64,
                "duration": 0.4977273,
                "tempo": 120.0
            },
            {
                "start_time": 3.7659091,
                "end_time": 4.2636364,
                "pitch": 43,
                "velocity": 64,
                "duration": 0.4977273,
                "tempo": 120.0
            },
            {
                "start_time": 3.2295455,
                "end_time": 6.4045455,
                "pitch": 47,
                "velocity": 64,
                "duration": 3.175,
                "tempo": 120.0
            },
            {
                "start_time": 4.3,
                "end_time": 6.4045455,
                "pitch": 47,
                "velocity": 64,
                "duration": 2.1045455,
                "tempo": 120.0
            }
        ],
        "Flute": [
            {
                "start_time": 0.0090909,
                "end_time": 1.0340909,
                "pitch": 83,
                "velocity": 80,
                "duration": 1.025,
                "tempo": 120.0
            },
            {
                "start_time": 1.0704545,
                "end_time": 3.1931818,
                "pitch": 88,
                "velocity": 80,
                "duration": 2.1227273,
                "tempo": 120.0
            },
            {
                "start_time": 3.2295455,
                "end_time": 4.2636364,
                "pitch": 86,
                "velocity": 80,
                "duration": 1.0340909,
                "tempo": 120.0
            },
            {
                "start_time": 3.2295455,
                "end_time": 6.4045455,
                "pitch": 88,
                "velocity": 80,
                "duration": 3.175,
                "tempo": 120.0
            },
            {
                "start_time": 4.3,
                "end_time": 6.4045455,
                "pitch": 88,
                "velocity": 80,
                "duration": 2.1045455,
                "tempo": 120.0
            }
        ]
    }
}