{
    "mood": "relaxed",
    "instruments": {
        "Electric Piano 1": [
            {
                "start_time": 0.0886364,
                "end_time": 0.2272727,
                "pitch": 28,
                "velocity": 127,
                "duration": 0.1386364,
                "tempo": 120.0
            },
            {
                "start_time": 0.2272727,
                "end_time": 0.3681818,
                "pitch": 28,
                "velocity": 127,
                "duration": 0.1409091,
                "tempo": 120.0
            },
            {
                "start_time": 0.3681818,
                "end_time": 0.5068182,
                "pitch": 40,
                "velocity": 127,
                "duration": 0.1386364,
                "tempo": 120.0
            },
            {
                "start_time": 0.5068182,
                "end_time": 0.6477273,
                "pitch": 40,
                "velocity": 127,
                "duration": 0.1409091,
                "tempo": 120.0
            },
            {
                "start_time": 0.6477273,
                "end_time": 0.7863636,
                "pitch": 28,
                "velocity": 127,
                "duration": 0.1386364,
                "tempo": 120.0
            },
            {
                "start_time": 0.7863636,
                "end_time": 0.9272727,
                "pitch": 28,
                "velocity": 127,
                "duration": 0.1409091,
                "tempo": 120.0
            },
            {
                "start_time": 0.9272727,
                "end_time": 1.0659091,
                "pitch": 40,
                "velocity": 127,
                "duration": 0.1386364,
                "tempo": 120.0
            },
            {
                "start_time": 1.0659091,
                "end_time": 1.2068182,
                "pitch": 40,
                "velocity": 127,
                "duration": 0.1409091,
                "tempo": 120.0
            },
            {
                "start_time": 1.2068182,
                "end_time": 1.3454545,
                "pitch": 28,
                "velocity": 127,
                "duration": 0.1386364,
                "tempo": 120.0
            },
            {
                "start_time": 1.3454545,
                "end_time": 1.4863636,
                "pitch": 28,
                "velocity": 127,
                "duration": 0.1409091,
                "tempo": 120.0
            },
            {
                "start_time": 1.4863636,
                "end_time": 1.625,
                "pitch": 40,
                "velocity": 127,
                "duration": 0.1386364,
                "tempo": 120.0
            },
            {
                "start_time": 1.625,
                "end_time": 1.7636364,
                "pitch": 40,
                "velocity": 127,
                "duration": 0.1386364,
                "tempo": 120.0
            },
            {
                "start_time": 1.7636364,
                "end_time": 1.9045455,
                "pitch": 28,
                "velocity": 127,
                "duration": 0.1409091,
                "tempo": 120.0
            },
            {
                "start_time": 1.9045455,
                "end_time": 2.0431818,
                "pitch": 28,
                "velocity": 127,
                "duration": 0.1386364,
                "tempo": 120.0
            },
            {
                "start_time": 2.0431818,
                "end_time": 2.1840909,
                "pitch": 40,
                "velocity": 127,
                "duration": 0.1409091,
                "tempo": 120.0
            },
            {
                "start_time": 2.1840909,
                "end_time": 2.3227273,
                "pitch": 40,
                "velocity": 127,
                "duration": 0.1386364,
                "tempo": 120.0
            },
            {
                "start_time": 2.3227273,
                "end_time": 2.4636364,
                "pitch": 26,
                "velocity": 127,
                "duration": 0.1409091,
                "tempo": 120.0
            },
            {
                "start_time": 2.4636364,
                "end_time": 2.6022727,
                "pitch": 26,
                "velocity": 127,
                "duration": 0.1386364,
                "tempo": 120.0
            },
            {
                "start_time": 2.6022727,
                "end_time": 2.7431818,
                "pitch": 38,
                "velocity": 127,
                "duration": 0.1409091,
                "tempo": 120.0
            },
            {
                "start_time": 2.7431818,
                "end_time": 2.8818182,
                "pitch": 38,
                "velocity": 127,
                "duration": 0.1386364,
                "tempo": 120.0
            },
            {
                "start_time": 2.8818182,
                "end_time": 3.0204545,
                "pitch": 26,
                "velocity": 127,
                "duration": 0.1386364,
                "tempo": 120.0
            },
            {
                "start_time": 3.0204545,
                "end_time": 3.1568182,
                "pitch": 26,
                "velocity": 127,
                "duration": 0.1363636,
                "tempo": 120.0
            },
            {
                "start_time": 3.1568182,
                "end_time": 3.2931818,
                "pitch": 38,
                "velocity": 127,
                "duration": 0.1363636,
                "tempo": 120.0
            },
            {
                "start_time": 3.2931818,
                "end_time": 3.4318182,
                "pitch": 38,
                "velocity": 127,
                "duration": 0.1386364,
                "tempo": 120.0
            },
            {
                "start_time": 3.4318182,
                "end_time": 3.5727273,
                "pitch": 26,
                "velocity": 127,
                "duration": 0.1409091,
                "tempo": 120.0
            },
            {
                "start_time": 3.5727273,
                "end_time": 3.7159091,
                "pitch": 26,
                "velocity": 127,
                "duration": 0.1431818,
                "tempo": 120.0
            },
            {
                "start_time": 3.7159091,
                "end_time": 3.8568182,
                "pitch": 38,
                "velocity": 127,
                "duration": 0.1409091,
                "tempo": 120.0
            },
            {
                "start_time": 3.8568182,
                "end_time": 4.0,
                "pitch": 38,
                "velocity": 127,
                "duration": 0.1431818,
                "tempo": 120.0
            },
            {
                "start_time": 4.0,
                "end_time": 4.1363636,
                "pitch": 26,
                "velocity": 127,
                "duration": 0.1363636,
                "tempo": 120.0
            },
            {
                "start_time": 4.1363636,
                "end_time": 4.275,
                "pitch": 26,
                "velocity": 127,
                "duration": 0.1386364,
                "tempo": 120.0
            },
            {
                "start_time": 4.275,
                "end_time": 4.4113636,
                "pitch": 38,
                "velocity": 127,
                "duration": 0.1363636,
                "tempo": 120.0
            },
            {
                "start_time": 4.4113636,
                "end_time": 4.5477273,
                "pitch": 38,
                "velocity": 127,
                "duration": 0.1363636,
                "tempo": 120.0
            },
            {
                "start_time": 4.5477273,
                "end_time": 4.6886364,
                "pitch": 21,
                "velocity": 127,
                "duration": 0.1409091,
                "tempo": 120.0
            },
            {
                "start_time": 4.6886364,
                "end_time": 4.8272727,
                "pitch": 21,
                "velocity": 127,
                "duration": 0.1386364,
                "tempo": 120.0
            },
            {
                "start_time": 4.8272727,
                "end_time": 4.9681818,
                "pitch": 33,
                "velocity": 127,
                "duration": 0.1409091,
                "tempo": 120.0
            },
            {
                "start_time": 4.9681818,
                "end_time": 5.1068182,
                "pitch": 33,
                "velocity": 127,
                "duration": 0.1386364,
                "tempo": 120.0
            },
            {
                "start_time": 5.1068182,
                "end_time": 5.2477273,
                "pitch": 21,
                "velocity": 127,
                "duration": 0.1409091,
                "tempo": 120.0
            },
            {
                "start_time": 5.2477273,
                "end_time": 5.3863636,
                "pitch": 21,
                "velocity": 127,
                "duration": 0.1386364,
                "tempo": 120.0
            },
            {
                "start_time": 5.3863636,
                "end_time": 5.5272727,
                "pitch": 33,
                "velocity": 127,
                "duration": 0.1409091,
                "tempo": 120.0
            },
            {
                "start_time": 5.5272727,
                "end_time": 5.6659091,
                "pitch": 33,
                "velocity": 127,
                "duration": 0.1386364,
                "tempo": 120.0
            },
            {
                "start_time": 5.6659091,
                "end_time": 5.8068182,
                "pitch": 21,
                "velocity": 127,
                "duration": 0.1409091,
                "tempo": 120.0
            },
            {
                "start_time": 5.8068182,
                "end_time": 5.9454545,
                "pitch": 21,
                "velocity": 127,
                "duration": 0.1386364,
                "tempo": 120.0
            },
            {
                "start_time": 5.9454545,
                "end_time": 6.0863636,
                "pitch": 33,
                "velocity": 127,
                "duration": 0.1409091,
                "tempo": 120.0
            },
            {
                "start_time": 6.0863636,
                "end_time": 6.225,
                "pitch": 33,
                "velocity": 127,
                "duration": 0.1386364,
                "tempo": 120.0
            },
            {
                "start_time": 6.225,
                "end_time": 6.3636364,
                "pitch": 21,
                "velocity": 127,
                "duration": 0.1386364,
                "tempo": 120.0
            },
            {
                "start_time": 6.3636364,
                "end_time": 6.5,
                "pitch": 21,
                "velocity": 127,
                "duration": 0.1363636,
                "tempo": 120.0
            },
            {
                "start_time": 6.5,
                "end_time": 6.6363636,
                "pitch": 33,
                "velocity": 127,
                "duration": 0.1363636,
                "tempo": 120.0
            },
            {
                "start_time": 6.6363636,
                "end_time": 6.7727273,
                "pitch": 33,
                "velocity": 127,
                "duration": 0.1363636,
                "tempo": 120.0
            },
            {
                "start_time": 6.7727273,
                "end_time": 6.9136364,
                "pitch": 24,
                "velocity": 127,
                "duration": 0.1409091,
                "tempo": 120.0
            },
            {
                "start_time": 6.9136364,
                "end_time": 7.0522727,
                "pitch": 24,
                "velocity": 127,
                "duration": 0.1386364,
                "tempo": 120.0
            },
            {
                "start_time": 7.0522727,
                "end_time": 7.1931818,
                "pitch": 36,
                "velocity": 127,
                "duration": 0.1409091,
                "tempo": 120.0
            },
            {
                "start_time": 7.1931818,
                "end_time": 7.3318182,
                "pitch": 36,
                "velocity": 127,
                "duration": 0.1386364,
                "tempo": 120.0
            },
            {
                "start_time": 7.3318182,
                "end_time": 7.4727273,
                "pitch": 24,
                "velocity": 127,
                "duration": 0.1409091,
                "tempo": 120.0
            },
            {
                "start_time": 7.4727273,
                "end_time": 7.6113636,
                "pitch": 24,
                "velocity": 127,
                "duration": 0.1386364,
                "tempo": 120.0
            },
            {
                "start_time": 7.6113636,
                "end_time": 7.7522727,
                "pitch": 36,
                "velocity": 127,
                "duration": 0.1409091,
                "tempo": 120.0
            },
            {
                "start_time": 7.7522727,
                "end_time": 7.8909091,
                "pitch": 36,
                "velocity": 127,
                "duration": 0.1386364,
                "tempo": 120.0
            },
            {
                "start_time": 7.8909091,
                "end_time": 8.0340909,
                "pitch": 26,
                "velocity": 127,
                "duration": 0.1431818,
                "tempo": 120.0
            },
            {
                "start_time": 8.0340909,
                "end_time": 8.175,
                "pitch": 26,
                "velocity": 127,
                "duration": 0.1409091,
                "tempo": 120.0
            },
            {
                "start_time": 8.175,
                "end_time": 8.3181818,
                "pitch": 38,
                "velocity": 127,
                "duration": 0.1431818,
                "tempo": 120.0
            },
            {
                "start_time": 8.3181818,
                "end_time": 8.4613636,
                "pitch": 38,
                "velocity": 127,
                "duration": 0.1431818,
                "tempo": 120.0
            },
            {
                "start_time": 8.4613636,
                "end_time": 8.5977273,
                "pitch": 26,
                "velocity": 127,
                "duration": 0.1363636,
                "tempo": 120.0
            },
            {
                "start_time": 8.5977273,
                "end_time": 8.7363636,
                "pitch": 26,
                "velocity": 127,
                "duration": 0.1386364,
                "tempo": 120.0
            },
            {
                "start_time": 8.7363636,
                "end_time": 8.8727273,
                "pitch": 38,
                "velocity": 127,
                "duration": 0.1363636,
                "tempo": 120.0
            },
            {
                "start_time": 8.8727273,
                "end_time": 9.0090909,
                "pitch": 38,
                "velocity": 127,
                "duration": 0.1363636,
                "tempo": 120.0
            },
            {
                "start_time": 9.0090909,
                "end_time": 9.15,
                "pitch": 28,
                "velocity": 127,
                "duration": 0.1409091,
                "tempo": 120.0
            },
            {
                "start_time": 9.15,
                "end_time": 9.2886364,
                "pitch": 28,
                "velocity": 127,
                "duration": 0.1386364,
                "tempo": 120.0
            },
            {
                "start_time": 6.7727273,
                "end_time": 9.4295455,
                "pitch": 40,
                "velocity": 127,
                "duration": 2.6568182,
                "tempo": 120.0
            },
            {
                "start_time": 9.2886364,
                "end_time": 9.4295455,
                "pitch": 40,
                "velocity": 127,
                "duration": 0.1409091,
                "tempo": 120.0
            },
            {
                "start_time": 9.4295455,
                "end_time": 9.5681818,
                "pitch": 40,
                "velocity": 127,
                "duration": 0.1386364,
                "tempo": 120.0
            },
            {
                "start_time": 9.5681818,
                "end_time": 9.7068182,
                "pitch": 28,
                "velocity": 127,
                "duration": 0.1386364,
                "tempo": 120.0
            },
            {
                "start_time": 9.7068182,
                "end_time": 9.8431818,
                "pitch": 28,
                "velocity": 127,
                "duration": 0.1363636,
                "tempo": 120.0
            },
            {
                "start_time": 9.8431818,
                "end_time": 9.9795455,
                "pitch": 40,
                "velocity": 127,
                "duration": 0.1363636,
                "tempo": 120.0
            },
            {
                "start_time": 9.9795455,
                "end_time": 10.1159091,
                "pitch": 40,
                "velocity": 127,
                "duration": 0.1363636,
                "tempo": 120.0
            },
            {
                "start_time": 10.1181818,
                "end_time": 10.2568182,
                "pitch": 28,
                "velocity": 127,
                "duration": 0.1386364,
                "tempo": 120.0
            },
            {
                "start_time": 10.2568182,
                "end_time": 10.3977273,
                "pitch": 28,
                "velocity": 127,
                "duration": 0.1409091,
                "tempo": 120.0
            },
            {
                "start_time": 10.3977273,
                "end_time": 10.5363636,
                "pitch": 40,
                "velocity": 127,
                "duration": 0.1386364,
                "tempo": 120.0
            },
            {
                "start_time": 10.5363636,
                "end_time": 10.6772727,
                "pitch": 40,
                "velocity": 127,
                "duration": 0.1409091,
                "tempo": 120.0
            },
            {
                "start_time": 10.6772727,
                "end_time": 10.8159091,
                "pitch": 28,
                "velocity": 127,
                "duration": 0.1386364,
                "tempo": 120.0
            },
            {
                "start_time": 10.8159091,
                "end_time": 10.9545455,
                "pitch": 28,
                "velocity": 127,
                "duration": 0.1386364,
                "tempo": 120.0
            },
            {
                "start_time": 10.9545455,
                "end_time": 11.0954545,
                "pitch": 40,
                "velocity": 127,
                "duration": 0.1409091,
                "tempo": 120.0
            },
            {
                "start_time": 11.0954545,
                "end_time": 11.2340909,
                "pitch": 40,
                "velocity": 127,
                "duration": 0.1386364,
                "tempo": 120.0
            },
            {
                "start_time": 11.2340909,
                "end_time": 11.375,
                "pitch": 26,
                "velocity": 127,
                "duration": 0.1409091,
                "tempo": 120.0
            },
            {
                "start_time": 11.375,
                "end_time": 11.5136364,
                "pitch": 26,
                "velocity": 127,
                "duration": 0.1386364,
                "tempo": 120.0
            },
            {
                "start_time": 11.5136364,
                "end_time": 11.6545455,
                "pitch": 38,
                "velocity": 127,
                "duration": 0.1409091,
                "tempo": 120.0
            },
            {
                "start_time": 11.6545455,
                "end_time": 11.7931818,
                "pitch": 38,
                "velocity": 127,
                "duration": 0.1386364,
                "tempo": 120.0
            },
            {
                "start_time": 11.7931818,
                "end_time": 11.9340909,
                "pitch": 26,
                "velocity": 127,
                "duration": 0.1409091,
                "tempo": 120.0
            },
            {
                "start_time": 11.9340909,
                "end_time": 12.0727273,
                "pitch": 26,
                "velocity": 127,
                "duration": 0.1386364,
                "tempo": 120.0
            },
            {
                "start_time": 12.0727273,
                "end_time": 12.2136364,
                "pitch": 38,
                "velocity": 127,
                "duration": 0.1409091,
                "tempo": 120.0
            },
            {
                "start_time": 12.2136364,
                "end_time": 12.3522727,
                "pitch": 38,
                "velocity": 127,
                "duration": 0.1386364,
                "tempo": 120.0
            },
            {
                "start_time": 12.3522727,
                "end_time": 12.4931818,
                "pitch": 26,
                "velocity": 127,
                "duration": 0.1409091,
                "tempo": 120.0
            },
            {
                "start_time": 12.4931818,
                "end_time": 12.6318182,
                "pitch": 26,
                "velocity": 127,
                "duration": 0.1386364,
                "tempo": 120.0
            },
            {
                "start_time": 12.6318182,
                "end_time": 12.7727273,
                "pitch": 38,
                "velocity": 127,
                "duration": 0.1409091,
                "tempo": 120.0
            },
            {
                "start_time": 12.7727273,
                "end_time": 12.9113636,
                "pitch": 38,
                "velocity": 127,
                "duration": 0.1386364,
                "tempo": 120.0
            },
            {
                "start_time": 12.9113636,
                "end_time": 13.0477273,
                "pitch": 26,
                "velocity": 127,
                "duration": 0.1363636,
                "tempo": 120.0
            },
            {
                "start_time": 13.0477273,
                "end_time": 13.1863636,
                "pitch": 26,
                "velocity": 127,
                "duration": 0.1386364,
                "tempo": 120.0
            },
            {
                "start_time": 13.1863636,
                "end_time": 13.3227273,
                "pitch": 38,
                "velocity": 127,
                "duration": 0.1363636,
                "tempo": 120.0
            },
            {
                "start_time": 4.5477273,
                "end_time": 13.4590909,
                "pitch": 7,
                "velocity": 127,
                "duration": 8.9113636,
                "tempo": 120.0
            },
            {
                "start_time": 13.3227273,
                "end_time": 13.4590909,
                "pitch": 38,
                "velocity": 127,
                "duration": 0.1363636,
                "tempo": 120.0
            },
            {
                "start_time": 13.4590909,
                "end_time": 13.6,
                "pitch": 21,
                "velocity": 127,
                "duration": 0.1409091,
                "tempo": 120.0
            },
            {
                "start_time": 13.6,
                "end_time": 13.7386364,
                "pitch": 21,
                "velocity": 127,
                "duration": 0.1386364,
                "tempo": 120.0
            },
            {
                "start_time": 13.7386364,
                "end_time": 13.8795455,
                "pitch": 33,
                "velocity": 127,
                "duration": 0.1409091,
                "tempo": 120.0
            },
            {
                "start_time": 13.8795455,
                "end_time": 14.0181818,
                "pitch": 33,
                "velocity": 127,
                "duration": 0.1386364,
                "tempo": 120.0
            },
            {
                "start_time": 14.0181818,
                "end_time": 14.1590909,
                "pitch": 21,
                "velocity": 127,
                "duration": 0.1409091,
                "tempo": 120.0
            },
            {
                "start_time": 14.1590909,
                "end_time": 14.2977273,
                "pitch": 21,
                "velocity": 127,
                "duration": 0.1386364,
                "tempo": 120.0
            },
            {
                "start_time": 14.2977273,
                "end_time": 14.4386364,
                "pitch": 33,
                "velocity": 127,
                "duration": 0.1409091,
                "tempo": 120.0
            },
            {
                "start_time": 14.4386364,
                "end_time": 14.5772727,
                "pitch": 33,
                "velocity": 127,
                "duration": 0.1386364,
                "tempo": 120.0
            },
            {
                "start_time": 14.5772727,
                "end_time": 14.7181818,
                "pitch": 21,
                "velocity": 127,
                "duration": 0.1409091,
                "tempo": 120.0
            },
            {
                "start_time": 14.7181818,
                "end_time": 14.8568182,
                "pitch": 21,
                "velocity": 127,
                "duration": 0.1386364,
                "tempo": 120.0
            },
            {
                "start_time": 14.8568182,
                "end_time": 14.9977273,
                "pitch": 33,
                "velocity": 127,
                "duration": 0.1409091,
                "tempo": 120.0
            },
            {
                "start_time": 14.9977273,
                "end_time": 15.1363636,
                "pitch": 33,
                "velocity": 127,
                "duration": 0.1386364,
                "tempo": 120.0
            },
            {
                "start_time": 15.1363636,
                "end_time": 15.2772727,
                "pitch": 21,
                "velocity": 127,
                "duration": 0.1409091,
                "tempo": 120.0
            },
            {
                "start_time": 15.2772727,
                "end_time": 15.4159091,
                "pitch": 21,
                "velocity": 127,
                "duration": 0.1386364,
                "tempo": 120.0
            },
            {
                "start_time": 15.4159091,
                "end_time": 15.5568182,
                "pitch": 33,
                "velocity": 127,
                "duration": 0.1409091,
                "tempo": 120.0
            },
            {
                "start_time": 15.5568182,
                "end_time": 15.6954545,
                "pitch": 33,
                "velocity": 127,
                "duration": 0.1386364,
                "tempo": 120.0
            },
            {
                "start_time": 15.6954545,
                "end_time": 15.8318182,
                "pitch": 24,
                "velocity": 127,
                "duration": 0.1363636,
                "tempo": 120.0
            },
            {
                "start_time": 15.8318182,
                "end_time": 15.9704545,
                "pitch": 24,
                "velocity": 127,
                "duration": 0.1386364,
                "tempo": 120.0
            },
            {
                "start_time": 15.9704545,
                "end_time": 16.1068182,
                "pitch": 36,
                "velocity": 127,
                "duration": 0.1363636,
                "tempo": 120.0
            },
            {
                "start_time": 16.1068182,
                "end_time": 16.2431818,
                "pitch": 36,
                "velocity": 127,
                "duration": 0.1363636,
                "tempo": 120.0
            },
            {
                "start_time": 16.2431818,
                "end_time": 16.3840909,
                "pitch": 24,
                "velocity": 127,
                "duration": 0.1409091,
                "tempo": 120.0
            },
            {
                "start_time": 16.3840909,
                "end_time": 16.5227273,
                "pitch": 24,
                "velocity": 127,
                "duration": 0.1386364,
                "tempo": 120.0
            },
            {
                "start_time": 16.5227273,
                "end_time": 16.6636364,
                "pitch": 36,
                "velocity": 127,
                "duration": 0.1409091,
                "tempo": 120.0
            },
            {
                "start_time": 16.6636364,
                "end_time": 16.8022727,
                "pitch": 36,
                "velocity": 127,
                "duration": 0.1386364,
                "tempo": 120.0
            },
            {
                "start_time": 16.8022727,
                "end_time": 16.9431818,
                "pitch": 24,
                "velocity": 127,
                "duration": 0.1409091,
                "tempo": 120.0
            },
            {
                "start_time": 16.9431818,
                "end_time": 17.0818182,
                "pitch": 24,
                "velocity": 127,
                "duration": 0.1386364,
                "tempo": 120.0
            },
            {
                "start_time": 17.0818182,
                "end_time": 17.2227273,
                "pitch": 36,
                "velocity": 127,
                "duration": 0.1409091,
                "tempo": 120.0
            },
            {
                "start_time": 17.2227273,
                "end_time": 17.3613636,
                "pitch": 36,
                "velocity": 127,
                "duration": 0.1386364,
                "tempo": 120.0
            },
            {
                "start_time": 17.3613636,
                "end_time": 17.5022727,
                "pitch": 24,
                "velocity": 127,
                "duration": 0.1409091,
                "tempo": 120.0
            },
            {
                "start_time": 17.5022727,
                "end_time": 17.6409091,
                "pitch": 24,
                "velocity": 127,
                "duration": 0.1386364,
                "tempo": 120.0
            },
            {
                "start_time": 17.6409091,
                "end_time": 17.7818182,
                "pitch": 36,
                "velocity": 127,
                "duration": 0.1409091,
                "tempo": 120.0
            },
            {
                "start_time": 17.7818182,
                "end_time": 17.9204545,
                "pitch": 36,
                "velocity": 127,
                "duration": 0.1386364,
                "tempo": 120.0
            }
        ],
        "Lead 2 (sawtooth)": [
            {
                "start_time": 0.2272727,
                "end_time": 2.4636364,
                "pitch": 64,
                "velocity": 51,
                "duration": 2.2363636,
                "tempo": 120.0
            },
            {
                "start_time": 2.4636364,
                "end_time": 4.6886364,
                "pitch": 62,
                "velocity": 51,
                "duration": 2.225,
                "tempo": 120.0
            },
            {
                "start_time": 4.6886364,
                "end_time": 6.9136364,
                "pitch": 61,
                "velocity": 51,
                "duration": 2.225,
                "tempo": 120.0
            },
            {
                "start_time": 6.9136364,
                "end_time": 7.3340909,
                "pitch": 64,
                "velocity": 51,
                "duration": 0.4204545,
                "tempo": 120.0
            },
            {
                "start_time": 6.9136364,
                "end_time": 7.3340909,
                "pitch": 64,
                "velocity": 51,
                "duration": 0.4204545,
                "tempo": 120.0
            },
            {
                "start_time": 7.3340909,
                "end_time": 7.4727273,
                "pitch": 64,
                "velocity": 51,
                "duration": 0.1386364,
                "tempo": 120.0
            },
            {
                "start_time": 7.7522727,
                "end_time": 8.0340909,
                "pitch": 64,
                "velocity": 51,
                "duration": 0.2818182,
                "tempo": 120.0
            },
            {
                "start_time": 8.0340909,
                "end_time": 8.4613636,
                "pitch": 66,
                "velocity": 51,
                "duration": 0.4272727,
                "tempo": 120.0
            },
            {
                "start_time": 8.0340909,
                "end_time": 8.4613636,
                "pitch": 66,
                "velocity": 51,
                "duration": 0.4272727,
                "tempo": 120.0
            },
            {
                "start_time": 8.4613636,
                "end_time": 8.5977273,
                "pitch": 66,
                "velocity": 51,
                "duration": 0.1363636,
                "tempo": 120.0
            },
            {
                "start_time": 8.8727273,
                "end_time": 9.15,
                "pitch": 66,
                "velocity": 51,
                "duration": 0.2772727,
                "tempo": 120.0
            },
            {
                "start_time": 9.15,
                "end_time": 11.375,
                "pitch": 68,
                "velocity": 51,
                "duration": 2.225,
                "tempo": 120.0
            },
            {
                "start_time": 11.375,
                "end_time": 13.6,
                "pitch": 71,
                "velocity": 51,
                "duration": 2.225,
                "tempo": 120.0
            },
            {
                "start_time": 11.375,
                "end_time": 13.6,
                "pitch": 71,
                "velocity": 51,
                "duration": 2.225,
                "tempo": 120.0
            },
            {
                "start_time": 13.6,
                "end_time": 14.4386364,
                "pitch": 69,
                "velocity": 51,
                "duration": 0.8386364,
                "tempo": 120.0
            },
            {
                "start_time": 13.6,
                "end_time": 14.4386364,
                "pitch": 69,
                "velocity": 51,
                "duration": 0.8386364,
                "tempo": 120.0
            },
            {
                "start_time": 14.4386364,
                "end_time": 15.2772727,
                "pitch": 64,
                "velocity": 51,
                "duration": 0.8386364,
                "tempo": 120.0
            },
            {
                "start_time": 15.2772727,
                "end_time": 15.8340909,
                "pitch": 66,
                "velocity": 51,
                "duration": 0.5568182,
                "tempo": 120.0
            },
            {
                "start_time": 15.2772727,
                "end_time": 15.8340909,
                "pitch": 66,
                "velocity": 51,
                "duration": 0.5568182,
                "tempo": 120.0
            },
            {
                "start_time": 15.8340909,
                "end_time": 16.9431818,
                "pitch": 64,
                "velocity": 51,
                "duration": 1.1090909,
                "tempo": 120.0
            },
            {
                "start_time": 15.8340909,
                "end_time": 16.9431818,
                "pitch": 64,
                "velocity": 51,
                "duration": 1.1090909,
                "tempo": 120.0
            },
            {
                "start_time": 16.9431818,
                "end_time": 17.9204545,
                "pitch": 66,
                "velocity": 51,
                "duration": 0.9772727,
                "tempo": 120.0
            },
            {
                "start_time": 16.9431818,
                "end_time": 17.9204545,
                "pitch": 66,
                "velocity": 51,
                "duration": 0.9772727,
                "tempo": 120.0
            }
        ],
        "Acoustic Guitar (nylon)": [
            {
                "start_time": 0.0886364,
                "end_time": 1.9045455,
                "pitch": 64,
                "velocity": 127,
                "duration": 1.8159091,
                "tempo": 120.0
            },
            {
                "start_time": 1.9045455,
                "end_time": 2.0431818,
                "pitch": 59,
                "velocity": 127,
                "duration": 0.1386364,
                "tempo": 120.0
            },
            {
                "start_time": 2.0431818,
                "end_time": 2.0454545,
                "pitch": 66,
                "velocity": 127,
                "duration": 0.0022727,
                "tempo": 120.0
            },
            {
                "start_time": 2.0454545,
                "end_time": 2.1840909,
                "pitch": 64,
                "velocity": 127,
                "duration": 0.1386364,
                "tempo": 120.0
            },
            {
                "start_time": 2.1840909,
                "end_time": 2.325,
                "pitch": 69,
                "velocity": 127,
                "duration": 0.1409091,
                "tempo": 120.0
            },
            {
                "start_time": 2.325,
                "end_time": 3.1568182,
                "pitch": 68,
                "velocity": 127,
                "duration": 0.8318182,
                "tempo": 120.0
            },
            {
                "start_time": 3.1568182,
                "end_time": 3.4318182,
                "pitch": 64,
                "velocity": 127,
                "duration": 0.275,
                "tempo": 120.0
            },
            {
                "start_time": 3.4318182,
                "end_time": 4.0,
                "pitch": 66,
                "velocity": 127,
                "duration": 0.5681818,
                "tempo": 120.0
            },
            {
                "start_time": 3.4318182,
                "end_time": 4.0,
                "pitch": 66,
                "velocity": 127,
                "duration": 0.5681818,
                "tempo": 120.0
            },
            {
                "start_time": 4.0,
                "end_time": 4.55,
                "pitch": 68,
                "velocity": 127,
                "duration": 0.55,
                "tempo": 120.0
            },
            {
                "start_time": 4.55,
                "end_time": 4.9681818,
                "pitch": 71,
                "velocity": 127,
                "duration": 0.4181818,
                "tempo": 120.0
            },
            {
                "start_time": 4.55,
                "end_time": 4.9681818,
                "pitch": 71,
                "velocity": 127,
                "duration": 0.4181818,
                "tempo": 120.0
            },
            {
                "start_time": 4.9681818,
                "end_time": 5.3863636,
                "pitch": 69,
                "velocity": 127,
                "duration": 0.4181818,
                "tempo": 120.0
            },
            {
                "start_time": 4.9681818,
                "end_time": 5.3863636,
                "pitch": 69,
                "velocity": 127,
                "duration": 0.4181818,
                "tempo": 120.0
            },
            {
                "start_time": 5.3863636,
                "end_time": 6.5,
                "pitch": 64,
                "velocity": 127,
                "duration": 1.1136364,
                "tempo": 120.0
            },
            {
                "start_time": 6.5,
                "end_time": 6.775,
                "pitch": 61,
                "velocity": 127,
                "duration": 0.275,
                "tempo": 120.0
            },
            {
                "start_time": 6.5,
                "end_time": 6.775,
                "pitch": 61,
                "velocity": 127,
                "duration": 0.275,
                "tempo": 120.0
            },
            {
                "start_time": 6.775,
                "end_time": 7.1931818,
                "pitch": 71,
                "velocity": 127,
                "duration": 0.4181818,
                "tempo": 120.0
            },
            {
                "start_time": 7.1931818,
                "end_time": 7.6136364,
                "pitch": 69,
                "velocity": 127,
                "duration": 0.4204545,
                "tempo": 120.0
            },
            {
                "start_time": 7.1931818,
                "end_time": 7.6136364,
                "pitch": 69,
                "velocity": 127,
                "duration": 0.4204545,
                "tempo": 120.0
            },
            {
                "start_time": 7.6136364,
                "end_time": 8.0545455,
                "pitch": 67,
                "velocity": 127,
                "duration": 0.4409091,
                "tempo": 120.0
            },
            {
                "start_time": 8.0545455,
                "end_time": 8.1772727,
                "pitch": 67,
                "velocity": 127,
                "duration": 0.1227273,
                "tempo": 120.0
            },
            {
                "start_time": 8.1772727,
                "end_time": 8.4613636,
                "pitch": 66,
                "velocity": 127,
                "duration": 0.2840909,
                "tempo": 120.0
            },
            {
                "start_time": 8.4613636,
                "end_time": 8.7363636,
                "pitch": 67,
                "velocity": 127,
                "duration": 0.275,
                "tempo": 120.0
            },
            {
                "start_time": 8.7363636,
                "end_time": 9.0113636,
                "pitch": 69,
                "velocity": 127,
                "duration": 0.275,
                "tempo": 120.0
            },
            {
                "start_time": 9.0113636,
                "end_time": 9.8431818,
                "pitch": 71,
                "velocity": 127,
                "duration": 0.8318182,
                "tempo": 120.0
            },
            {
                "start_time": 9.0113636,
                "end_time": 9.8431818,
                "pitch": 71,
                "velocity": 127,
                "duration": 0.8318182,
                "tempo": 120.0
            },
            {
                "start_time": 9.8431818,
                "end_time": 11.2363636,
                "pitch": 76,
                "velocity": 127,
                "duration": 1.3931818,
                "tempo": 120.0
            },
            {
                "start_time": 11.2363636,
                "end_time": 11.7931818,
                "pitch": 71,
                "velocity": 127,
                "duration": 0.5568182,
                "tempo": 120.0
            },
            {
                "start_time": 6.775,
                "end_time": 12.0727273,
                "pitch": 44,
                "velocity": 127,
                "duration": 5.2977273,
                "tempo": 120.0
            },
            {
                "start_time": 11.7931818,
                "end_time": 12.0727273,
                "pitch": 76,
                "velocity": 127,
                "duration": 0.2795455,
                "tempo": 120.0
            },
            {
                "start_time": 12.0727273,
                "end_time": 12.6318182,
                "pitch": 81,
                "velocity": 127,
                "duration": 0.5590909,
                "tempo": 120.0
            },
            {
                "start_time": 12.6318182,
                "end_time": 12.9113636,
                "pitch": 80,
                "velocity": 127,
                "duration": 0.2795455,
                "tempo": 120.0
            },
            {
                "start_time": 5.3863636,
                "end_time": 13.1863636,
                "pitch": 78,
                "velocity": 127,
                "duration": 7.8,
                "tempo": 120.0
            },
            {
                "start_time": 12.9113636,
                "end_time": 13.1863636,
                "pitch": 78,
                "velocity": 127,
                "duration": 0.275,
                "tempo": 120.0
            },
            {
                "start_time": 13.1863636,
                "end_time": 13.4613636,
                "pitch": 80,
                "velocity": 127,
                "duration": 0.275,
                "tempo": 120.0
            },
            {
                "start_time": 13.4613636,
                "end_time": 13.8795455,
                "pitch": 83,
                "velocity": 127,
                "duration": 0.4181818,
                "tempo": 120.0
            },
            {
                "start_time": 13.4613636,
                "end_time": 13.8795455,
                "pitch": 83,
                "velocity": 127,
                "duration": 0.4181818,
                "tempo": 120.0
            },
            {
                "start_time": 13.8795455,
                "end_time": 14.3,
                "pitch": 81,
                "velocity": 127,
                "duration": 0.4204545,
                "tempo": 120.0
            },
            {
                "start_time": 13.8795455,
                "end_time": 14.3,
                "pitch": 81,
                "velocity": 127,
                "duration": 0.4204545,
                "tempo": 120.0
            },
            {
                "start_time": 14.3,
                "end_time": 15.1363636,
                "pitch": 76,
                "velocity": 127,
                "duration": 0.8363636,
                "tempo": 120.0
            },
            {
                "start_time": 15.1363636,
                "end_time": 15.6954545,
                "pitch": 78,
                "velocity": 127,
                "duration": 0.5590909,
                "tempo": 120.0
            },
            {
                "start_time": 8.1772727,
                "end_time": 16.1272727,
                "pitch": 79,
                "velocity": 127,
                "duration": 7.95,
                "tempo": 120.0
            },
            {
                "start_time": 15.6954545,
                "end_time": 16.1272727,
                "pitch": 79,
                "velocity": 127,
                "duration": 0.4318182,
                "tempo": 120.0
            },
            {
                "start_time": 12.9113636,
                "end_time": 16.1272727,
                "pitch": 91,
                "velocity": 127,
                "duration": 3.2159091,
                "tempo": 120.0
            },
            {
                "start_time": 16.1272727,
                "end_time": 16.2454545,
                "pitch": 79,
                "velocity": 127,
                "duration": 0.1181818,
                "tempo": 120.0
            },
            {
                "start_time": 16.2454545,
                "end_time": 16.8045455,
                "pitch": 78,
                "velocity": 127,
                "duration": 0.5590909,
                "tempo": 120.0
            },
            {
                "start_time": 16.8045455,
                "end_time": 17.3613636,
                "pitch": 76,
                "velocity": 127,
                "duration": 0.5568182,
                "tempo": 120.0
            },
            {
                "start_time": 16.8045455,
                "end_time": 17.3613636,
                "pitch": 76,
                "velocity": 127,
                "duration": 0.5568182,
                "tempo": 120.0
            },
            {
                "start_time": 17.3613636,
                "end_time": 17.9204545,
                "pitch": 72,
                "velocity": 127,
                "duration": 0.5590909,
                "tempo": 120.0
            },
            {
                "start_time": 17.3613636,
                "end_time": 17.9204545,
                "pitch": 72,
                "velocity": 127,
                "duration": 0.5590909,
                "tempo": 120.0
            }
        ]
    }
}