{
    "mood": "relaxed",
    "instruments": {
        "Acoustic Grand Piano": [
            {
                "start_time": 0.2386364,
                "end_time": 0.6386364,
                "pitch": 73,
                "velocity": 40,
                "duration": 0.4,
                "tempo": 120.0
            },
            {
                "start_time": 0.2386364,
                "end_time": 0.6386364,
                "pitch": 73,
                "velocity": 40,
                "duration": 0.4,
                "tempo": 120.0
            },
            {
                "start_time": 0.6386364,
                "end_time": 1.0454545,
                "pitch": 73,
                "velocity": 40,
                "duration": 0.4068182,
                "tempo": 120.0
            },
            {
                "start_time": 1.0454545,
                "end_time": 1.4522727,
                "pitch": 73,
                "velocity": 40,
                "duration": 0.4068182,
                "tempo": 120.0
            },
            {
                "start_time": 1.4522727,
                "end_time": 1.6522727,
                "pitch": 73,
                "velocity": 40,
                "duration": 0.2,
                "tempo": 120.0
            },
            {
                "start_time": 1.6522727,
                "end_time": 1.8568182,
                "pitch": 73,
                "velocity": 40,
                "duration": 0.2045455,
                "tempo": 120.0
            },
            {
                "start_time": 1.8568182,
                "end_time": 2.2568182,
                "pitch": 76,
                "velocity": 40,
                "duration": 0.4,
                "tempo": 120.0
            },
            {
                "start_time": 2.2568182,
                "end_time": 2.6545455,
                "pitch": 69,
                "velocity": 40,
                "duration": 0.3977273,
                "tempo": 120.0
            },
            {
                "start_time": 2.6545455,
                "end_time": 2.8545455,
                "pitch": 69,
                "velocity": 40,
                "duration": 0.2,
                "tempo": 120.0
            },
            {
                "start_time": 2.8545455,
                "end_time": 3.0545455,
                "pitch": 69,
                "velocity": 40,
                "duration": 0.2,
                "tempo": 120.0
            },
            {
                "start_time": 3.0545455,
                "end_time": 3.4545455,
                "pitch": 68,
                "velocity": 40,
                "duration": 0.4,
                "tempo": 120.0
            },
            {
                "start_time": 3.4545455,
                "end_time": 3.8568182,
                "pitch": 66,
                "velocity": 40,
                "duration": 0.4022727,
                "tempo": 120.0
            },
            {
                "start_time": 3.8568182,
                "end_time": 4.2568182,
                "pitch": 71,
                "velocity": 40,
                "duration": 0.4,
                "tempo": 120.0
            },
            {
                "start_time": 4.2568182,
                "end_time": 4.6590909,
                "pitch": 71,
                "velocity": 40,
                "duration": 0.4022727,
                "tempo": 120.0
            },
            {
                "start_time": 4.6590909,
                "end_time": 4.8590909,
                "pitch": 71,
                "velocity": 40,
                "duration": 0.2,
                "tempo": 120.0
            },
            {
                "start_time": 4.8590909,
                "end_time": 4.875,
                "pitch": 71,
                "velocity": 40,
                "duration": 0.0159091,
                "tempo": 120.0
            },
            {
                "start_time": 4.875,
                "end_time": 5.0590909,
                "pitch": 69,
                "velocity": 40,
                "duration": 0.1840909,
                "tempo": 120.0
            },
            {
                "start_time": 5.0590909,
                "end_time": 5.4613636,
                "pitch": 69,
                "velocity": 40,
                "duration": 0.4022727,
                "tempo": 120.0
            },
            {
                "start_time": 5.4613636,
                "end_time": 5.6636364,
                "pitch": 68,
                "velocity": 40,
                "duration": 0.2022727,
                "tempo": 120.0
            },
            {
                "start_time": 5.6636364,
                "end_time": 5.8613636,
                "pitch": 71,
                "velocity": 40,
                "duration": 0.1977273,
                "tempo": 120.0
            },
            {
                "start_time": 1.8568182,
                "end_time": 6.6590909,
                "pitch": 74,
                "velocity": 40,
                "duration": 4.8022727,
                "tempo": 120.0
            },
            {
                "start_time": 5.8613636,
                "end_time": 6.6590909,
                "pitch": 74,
                "velocity": 40,
                "duration": 0.7977273,
                "tempo": 120.0
            },
            {
                "start_time": 6.6590909,
                "end_time": 7.0590909,
                "pitch": 74,
                "velocity": 40,
                "duration": 0.4,
                "tempo": 120.0
            },
            {
                "start_time": 7.0590909,
                "end_time": 7.4613636,
                "pitch": 73,
                "velocity": 40,
                "duration": 0.4022727,
                "tempo": 120.0
            },
            {
                "start_time": 7.4613636,
                "end_time": 7.8681818,
                "pitch": 73,
                "velocity": 40,
                "duration": 0.4068182,
                "tempo": 120.0
            },
            {
                "start_time": 7.8681818,
                "end_time": 8.0681818,
                "pitch": 73,
                "velocity": 40,
                "duration": 0.2,
                "tempo": 120.0
            },
            {
                "start_time": 8.0681818,
                "end_time": 8.2681818,
                "pitch": 73,
                "velocity": 40,
                "duration": 0.2,
                "tempo": 120.0
            },
            {
                "start_time": 2.2568182,
                "end_time": 8.6681818,
                "pitch": 76,
                "velocity": 40,
                "duration": 6.4113636,
                "tempo": 120.0
            },
            {
                "start_time": 8.2681818,
                "end_time": 8.6681818,
                "pitch": 76,
                "velocity": 40,
                "duration": 0.4,
                "tempo": 120.0
            },
            {
                "start_time": 8.6681818,
                "end_time": 9.0727273,
                "pitch": 69,
                "velocity": 40,
                "duration": 0.4045455,
                "tempo": 120.0
            },
            {
                "start_time": 9.0727273,
                "end_time": 9.2727273,
                "pitch": 69,
                "velocity": 40,
                "duration": 0.2,
                "tempo": 120.0
            },
            {
                "start_time": 9.2727273,
                "end_time": 9.475,
                "pitch": 69,
                "velocity": 40,
                "duration": 0.2022727,
                "tempo": 120.0
            },
            {
                "start_time": 3.4545455,
                "end_time": 9.8772727,
                "pitch": 57,
                "velocity": 40,
                "duration": 6.4227273,
                "tempo": 120.0
            },
            {
                "start_time": 5.6636364,
                "end_time": 9.8772727,
                "pitch": 68,
                "velocity": 40,
                "duration": 4.2136364,
                "tempo": 120.0
            },
            {
                "start_time": 9.475,
                "end_time": 9.8772727,
                "pitch": 68,
                "velocity": 40,
                "duration": 0.4022727,
                "tempo": 120.0
            },
            {
                "start_time": 9.8772727,
                "end_time": 10.2795455,
                "pitch": 66,
                "velocity": 40,
                "duration": 0.4022727,
                "tempo": 120.0
            },
            {
                "start_time": 3.8568182,
                "end_time": 10.2795455,
                "pitch": 78,
                "velocity": 40,
                "duration": 6.4227273,
                "tempo": 120.0
            },
            {
                "start_time": 5.8613636,
                "end_time": 10.4795455,
                "pitch": 71,
                "velocity": 40,
                "duration": 4.6181818,
                "tempo": 120.0
            },
            {
                "start_time": 10.2795455,
                "end_time": 10.4795455,
                "pitch": 71,
                "velocity": 40,
                "duration": 0.2,
                "tempo": 120.0
            },
            {
                "start_time": 10.4795455,
                "end_time": 10.4931818,
                "pitch": 71,
                "velocity": 40,
                "duration": 0.0136364,
                "tempo": 120.0
            },
            {
                "start_time": 10.4931818,
                "end_time": 10.6795455,
                "pitch": 69,
                "velocity": 40,
                "duration": 0.1863636,
                "tempo": 120.0
            },
            {
                "start_time": 10.6795455,
                "end_time": 11.0818182,
                "pitch": 69,
                "velocity": 40,
                "duration": 0.4022727,
                "tempo": 120.0
            },
            {
                "start_time": 11.0818182,
                "end_time": 11.4840909,
                "pitch": 64,
                "velocity": 40,
                "duration": 0.4022727,
                "tempo": 120.0
            },
            {
                "start_time": 8.6681818,
                "end_time": 11.4840909,
                "pitch": 76,
                "velocity": 40,
                "duration": 2.8159091,
                "tempo": 120.0
            },
            {
                "start_time": 11.4840909,
                "end_time": 13.0931818,
                "pitch": 69,
                "velocity": 40,
                "duration": 1.6090909,
                "tempo": 120.0
            },
            {
                "start_time": 13.0931818,
                "end_time": 13.4954545,
                "pitch": 73,
                "velocity": 40,
                "duration": 0.4022727,
                "tempo": 120.0
            },
            {
                "start_time": 13.4954545,
                "end_time": 13.9,
                "pitch": 73,
                "velocity": 40,
                "duration": 0.4045455,
                "tempo": 120.0
            },
            {
                "start_time": 13.9,
                "end_time": 14.3,
                "pitch": 73,
                "velocity": 40,
                "duration": 0.4,
                "tempo": 120.0
            },
            {
                "start_time": 14.3022727,
                "end_time": 14.5022727,
                "pitch": 73,
                "velocity": 40,
                "duration": 0.2,
                "tempo": 120.0
            },
            {
                "start_time": 14.5022727,
                "end_time": 14.7,
                "pitch": 73,
                "velocity": 40,
                "duration": 0.1977273,
                "tempo": 120.0
            },
            {
                "start_time": 8.2681818,
                "end_time": 14.7,
                "pitch": 74,
                "velocity": 40,
                "duration": 6.4318182,
                "tempo": 120.0
            },
            {
                "start_time": 11.4840909,
                "end_time": 15.1022727,
                "pitch": 76,
                "velocity": 40,
                "duration": 3.6181818,
                "tempo": 120.0
            },
            {
                "start_time": 14.7,
                "end_time": 15.1022727,
                "pitch": 76,
                "velocity": 40,
                "duration": 0.4022727,
                "tempo": 120.0
            },
            {
                "start_time": 13.0931818,
                "end_time": 15.5068182,
                "pitch": 69,
                "velocity": 40,
                "duration": 2.4136364,
                "tempo": 120.0
            },
            {
                "start_time": 15.1022727,
                "end_time": 15.5068182,
                "pitch": 69,
                "velocity": 40,
                "duration": 0.4045455,
                "tempo": 120.0
            },
            {
                "start_time": 15.5068182,
                "end_time": 15.7090909,
                "pitch": 69,
                "velocity": 40,
                "duration": 0.2022727,
                "tempo": 120.0
            },
            {
                "start_time": 15.7090909,
                "end_time": 15.9090909,
                "pitch": 69,
                "velocity": 40,
                "duration": 0.2,
                "tempo": 120.0
            },
            {
                "start_time": 9.8772727,
                "end_time": 16.3090909,
                "pitch": 57,
                "velocity": 40,
                "duration": 6.4318182,
                "tempo": 120.0
            },
            {
                "start_time": 15.9090909,
                "end_time": 16.3090909,
                "pitch": 68,
                "velocity": 40,
                "duration": 0.4,
                "tempo": 120.0
            },
            {
                "start_time": 16.3090909,
                "end_time": 16.7136364,
                "pitch": 66,
                "velocity": 40,
                "duration": 0.4045455,
                "tempo": 120.0
            },
            {
                "start_time": 10.2795455,
                "end_time": 16.7136364,
                "pitch": 78,
                "velocity": 40,
                "duration": 6.4340909,
                "tempo": 120.0
            },
            {
                "start_time": 16.7136364,
                "end_time": 16.9136364,
                "pitch": 71,
                "velocity": 40,
                "duration": 0.2,
                "tempo": 120.0
            },
            {
                "start_time": 14.7,
                "end_time": 17.1136364,
                "pitch": 74,
                "velocity": 40,
                "duration": 2.4136364,
                "tempo": 120.0
            },
            {
                "start_time": 16.9136364,
                "end_time": 17.1136364,
                "pitch": 74,
                "velocity": 40,
                "duration": 0.2,
                "tempo": 120.0
            },
            {
                "start_time": 17.1136364,
                "end_time": 17.5136364,
                "pitch": 74,
                "velocity": 40,
                "duration": 0.4,
                "tempo": 120.0
            },
            {
                "start_time": 16.9136364,
                "end_time": 17.9136364,
                "pitch": 71,
                "velocity": 40,
                "duration": 1.0,
                "tempo": 120.0
            },
            {
                "start_time": 17.5136364,
                "end_time": 17.9136364,
                "pitch": 71,
                "velocity": 40,
                "duration": 0.4,
                "tempo": 120.0
            },
            {
                "start_time": 17.9136364,
                "end_time": 18.3159091,
                "pitch": 68,
                "velocity": 40,
                "duration": 0.4022727,
                "tempo": 120.0
            },
            {
                "start_time": 18.3159091,
                "end_time": 18.5159091,
                "pitch": 68,
                "velocity": 40,
                "duration": 0.2,
                "tempo": 120.0
            },
            {
                "start_time": 17.9136364,
                "end_time": 18.7159091,
                "pitch": 71,
                "velocity": 40,
                "duration": 0.8022727,
                "tempo": 120.0
            },
            {
                "start_time": 18.5159091,
                "end_time": 18.7159091,
                "pitch": 71,
                "velocity": 40,
                "duration": 0.2,
                "tempo": 120.0
            },
            {
                "start_time": 18.7159091,
                "end_time": 19.525,
                "pitch": 64,
                "velocity": 40,
                "duration": 0.8090909,
                "tempo": 120.0
            },
            {
                "start_time": 19.525,
                "end_time": 19.5886364,
                "pitch": 64,
                "velocity": 40,
                "duration": 0.0636364,
                "tempo": 120.0
            },
            {
                "start_time": 19.5886364,
                "end_time": 19.9227273,
                "pitch": 66,
                "velocity": 40,
                "duration": 0.3340909,
                "tempo": 120.0
            },
            {
                "start_time": 19.9227273,
                "end_time": 20.3227273,
                "pitch": 66,
                "velocity": 40,
                "duration": 0.4,
                "tempo": 120.0
            },
            {
                "start_time": 16.7136364,
                "end_time": 20.3227273,
                "pitch": 78,
                "velocity": 40,
                "duration": 3.6090909,
                "tempo": 120.0
            },
            {
                "start_time": 20.3227273,
                "end_time": 20.725,
                "pitch": 74,
                "velocity": 40,
                "duration": 0.4022727,
                "tempo": 120.0
            },
            {
                "start_time": 20.725,
                "end_time": 20.9272727,
                "pitch": 74,
                "velocity": 40,
                "duration": 0.2022727,
                "tempo": 120.0
            },
            {
                "start_time": 17.5136364,
                "end_time": 21.1272727,
                "pitch": 73,
                "velocity": 40,
                "duration": 3.6136364,
                "tempo": 120.0
            },
            {
                "start_time": 20.9272727,
                "end_time": 21.1272727,
                "pitch": 73,
                "velocity": 40,
                "duration": 0.2,
                "tempo": 120.0
            },
            {
                "start_time": 21.1272727,
                "end_time": 21.5272727,
                "pitch": 74,
                "velocity": 40,
                "duration": 0.4,
                "tempo": 120.0
            },
            {
                "start_time": 21.5272727,
                "end_time": 21.7272727,
                "pitch": 71,
                "velocity": 40,
                "duration": 0.2,
                "tempo": 120.0
            },
            {
                "start_time": 21.5272727,
                "end_time": 21.9272727,
                "pitch": 73,
                "velocity": 40,
                "duration": 0.4,
                "tempo": 120.0
            },
            {
                "start_time": 21.7272727,
                "end_time": 21.9272727,
                "pitch": 73,
                "velocity": 40,
                "duration": 0.2,
                "tempo": 120.0
            },
            {
                "start_time": 21.9272727,
                "end_time": 22.7318182,
                "pitch": 69,
                "velocity": 40,
                "duration": 0.8045455,
                "tempo": 120.0
            },
            {
                "start_time": 22.7318182,
                "end_time": 22.8136364,
                "pitch": 69,
                "velocity": 40,
                "duration": 0.0818182,
                "tempo": 120.0
            },
            {
                "start_time": 21.7272727,
                "end_time": 22.9318182,
                "pitch": 71,
                "velocity": 40,
                "duration": 1.2045455,
                "tempo": 120.0
            },
            {
                "start_time": 22.8136364,
                "end_time": 22.9318182,
                "pitch": 71,
                "velocity": 40,
                "duration": 0.1181818,
                "tempo": 120.0
            },
            {
                "start_time": 21.9272727,
                "end_time": 23.1340909,
                "pitch": 73,
                "velocity": 40,
                "duration": 1.2068182,
                "tempo": 120.0
            },
            {
                "start_time": 22.9318182,
                "end_time": 23.1340909,
                "pitch": 73,
                "velocity": 40,
                "duration": 0.2022727,
                "tempo": 120.0
            },
            {
                "start_time": 23.1340909,
                "end_time": 23.3340909,
                "pitch": 73,
                "velocity": 40,
                "duration": 0.2,
                "tempo": 120.0
            },
            {
                "start_time": 18.5159091,
                "end_time": 23.5318182,
                "pitch": 68,
                "velocity": 40,
                "duration": 5.0159091,
                "tempo": 120.0
            },
            {
                "start_time": 23.3340909,
                "end_time": 23.5318182,
                "pitch": 68,
                "velocity": 40,
                "duration": 0.1977273,
                "tempo": 120.0
            },
            {
                "start_time": 22.9318182,
                "end_time": 23.9340909,
                "pitch": 71,
                "velocity": 40,
                "duration": 1.0022727,
                "tempo": 120.0
            },
            {
                "start_time": 23.5318182,
                "end_time": 23.9340909,
                "pitch": 71,
                "velocity": 40,
                "duration": 0.4022727,
                "tempo": 120.0
            },
            {
                "start_time": 23.5318182,
                "end_time": 24.3340909,
                "pitch": 68,
                "velocity": 40,
                "duration": 0.8022727,
                "tempo": 120.0
            },
            {
                "start_time": 23.9340909,
                "end_time": 24.3340909,
                "pitch": 68,
                "velocity": 40,
                "duration": 0.4,
                "tempo": 120.0
            },
            {
                "start_time": 16.3090909,
                "end_time": 25.9295455,
                "pitch": 57,
                "velocity": 40,
                "duration": 9.6204545,
                "tempo": 120.0
            },
            {
                "start_time": 24.3340909,
                "end_time": 25.9295455,
                "pitch": 68,
                "velocity": 40,
                "duration": 1.5954545,
                "tempo": 120.0
            },
            {
                "start_time": 25.9295455,
                "end_time": 26.1295455,
                "pitch": 66,
                "velocity": 40,
                "duration": 0.2,
                "tempo": 120.0
            },
            {
                "start_time": 20.3227273,
                "end_time": 26.1295455,
                "pitch": 78,
                "velocity": 40,
                "duration": 5.8068182,
                "tempo": 120.0
            },
            {
                "start_time": 23.3340909,
                "end_time": 26.3295455,
                "pitch": 74,
                "velocity": 40,
                "duration": 2.9954545,
                "tempo": 120.0
            },
            {
                "start_time": 26.1295455,
                "end_time": 26.3295455,
                "pitch": 74,
                "velocity": 40,
                "duration": 0.2,
                "tempo": 120.0
            },
            {
                "start_time": 23.9340909,
                "end_time": 26.5340909,
                "pitch": 71,
                "velocity": 40,
                "duration": 2.6,
                "tempo": 120.0
            },
            {
                "start_time": 26.3318182,
                "end_time": 26.5340909,
                "pitch": 71,
                "velocity": 40,
                "duration": 0.2022727,
                "tempo": 120.0
            },
            {
                "start_time": 26.5340909,
                "end_time": 26.7386364,
                "pitch": 68,
                "velocity": 40,
                "duration": 0.2045455,
                "tempo": 120.0
            },
            {
                "start_time": 11.0818182,
                "end_time": 26.9431818,
                "pitch": 56,
                "velocity": 40,
                "duration": 15.8613636,
                "tempo": 120.0
            },
            {
                "start_time": 26.7386364,
                "end_time": 26.9431818,
                "pitch": 68,
                "velocity": 40,
                "duration": 0.2045455,
                "tempo": 120.0
            },
            {
                "start_time": 26.9431818,
                "end_time": 27.1431818,
                "pitch": 64,
                "velocity": 40,
                "duration": 0.2,
                "tempo": 120.0
            },
            {
                "start_time": 15.1022727,
                "end_time": 27.1431818,
                "pitch": 76,
                "velocity": 40,
                "duration": 12.0409091,
                "tempo": 120.0
            },
            {
                "start_time": 27.1431818,
                "end_time": 27.3431818,
                "pitch": 68,
                "velocity": 40,
                "duration": 0.2,
                "tempo": 120.0
            },
            {
                "start_time": 18.7159091,
                "end_time": 27.5431818,
                "pitch": 59,
                "velocity": 40,
                "duration": 8.8272727,
                "tempo": 120.0
            },
            {
                "start_time": 26.5340909,
                "end_time": 27.5431818,
                "pitch": 71,
                "velocity": 40,
                "duration": 1.0090909,
                "tempo": 120.0
            },
            {
                "start_time": 27.3431818,
                "end_time": 27.5431818,
                "pitch": 71,
                "velocity": 40,
                "duration": 0.2,
                "tempo": 120.0
            },
            {
                "start_time": 27.5431818,
                "end_time": 27.7431818,
                "pitch": 64,
                "velocity": 40,
                "duration": 0.2,
                "tempo": 120.0
            },
            {
                "start_time": 27.1431818,
                "end_time": 27.7431818,
                "pitch": 76,
                "velocity": 40,
                "duration": 0.6,
                "tempo": 120.0
            },
            {
                "start_time": 27.7431818,
                "end_time": 27.9386364,
                "pitch": 73,
                "velocity": 40,
                "duration": 0.1954545,
                "tempo": 120.0
            },
            {
                "start_time": 27.9386364,
                "end_time": 28.1363636,
                "pitch": 71,
                "velocity": 40,
                "duration": 0.1977273,
                "tempo": 120.0
            },
            {
                "start_time": 28.1363636,
                "end_time": 28.15,
                "pitch": 71,
                "velocity": 40,
                "duration": 0.0136364,
                "tempo": 120.0
            },
            {
                "start_time": 28.15,
                "end_time": 28.3363636,
                "pitch": 69,
                "velocity": 40,
                "duration": 0.1863636,
                "tempo": 120.0
            },
            {
                "start_time": 28.3363636,
                "end_time": 28.5386364,
                "pitch": 69,
                "velocity": 40,
                "duration": 0.2022727,
                "tempo": 120.0
            },
            {
                "start_time": 27.3431818,
                "end_time": 28.7431818,
                "pitch": 68,
                "velocity": 40,
                "duration": 1.4,
                "tempo": 120.0
            },
            {
                "start_time": 28.5386364,
                "end_time": 28.7431818,
                "pitch": 68,
                "velocity": 40,
                "duration": 0.2045455,
                "tempo": 120.0
            },
            {
                "start_time": 28.7431818,
                "end_time": 28.8113636,
                "pitch": 69,
                "velocity": 40,
                "duration": 0.0681818,
                "tempo": 120.0
            },
            {
                "start_time": 27.5431818,
                "end_time": 28.95,
                "pitch": 59,
                "velocity": 40,
                "duration": 1.4068182,
                "tempo": 120.0
            },
            {
                "start_time": 28.8113636,
                "end_time": 28.95,
                "pitch": 71,
                "velocity": 40,
                "duration": 0.1386364,
                "tempo": 120.0
            },
            {
                "start_time": 28.95,
                "end_time": 29.15,
                "pitch": 64,
                "velocity": 40,
                "duration": 0.2,
                "tempo": 120.0
            },
            {
                "start_time": 27.7431818,
                "end_time": 29.15,
                "pitch": 76,
                "velocity": 40,
                "duration": 1.4068182,
                "tempo": 120.0
            },
            {
                "start_time": 27.9386364,
                "end_time": 29.35,
                "pitch": 73,
                "velocity": 40,
                "duration": 1.4113636,
                "tempo": 120.0
            },
            {
                "start_time": 29.15,
                "end_time": 29.35,
                "pitch": 73,
                "velocity": 40,
                "duration": 0.2,
                "tempo": 120.0
            },
            {
                "start_time": 25.9295455,
                "end_time": 29.55,
                "pitch": 57,
                "velocity": 40,
                "duration": 3.6204545,
                "tempo": 120.0
            },
            {
                "start_time": 29.35,
                "end_time": 29.55,
                "pitch": 69,
                "velocity": 40,
                "duration": 0.2,
                "tempo": 120.0
            },
            {
                "start_time": 29.55,
                "end_time": 29.75,
                "pitch": 66,
                "velocity": 40,
                "duration": 0.2,
                "tempo": 120.0
            },
            {
                "start_time": 26.1295455,
                "end_time": 29.75,
                "pitch": 78,
                "velocity": 40,
                "duration": 3.6204545,
                "tempo": 120.0
            },
            {
                "start_time": 26.3318182,
                "end_time": 29.95,
                "pitch": 74,
                "velocity": 40,
                "duration": 3.6181818,
                "tempo": 120.0
            },
            {
                "start_time": 29.75,
                "end_time": 29.95,
                "pitch": 74,
                "velocity": 40,
                "duration": 0.2,
                "tempo": 120.0
            },
            {
                "start_time": 29.35,
                "end_time": 30.3522727,
                "pitch": 73,
                "velocity": 40,
                "duration": 1.0022727,
                "tempo": 120.0
            },
            {
                "start_time": 29.95,
                "end_time": 30.3522727,
                "pitch": 74,
                "velocity": 40,
                "duration": 0.4022727,
                "tempo": 120.0
            },
            {
                "start_time": 30.3522727,
                "end_time": 30.7545455,
                "pitch": 71,
                "velocity": 40,
                "duration": 0.4022727,
                "tempo": 120.0
            },
            {
                "start_time": 30.7545455,
                "end_time": 30.9545455,
                "pitch": 71,
                "velocity": 40,
                "duration": 0.2,
                "tempo": 120.0
            },
            {
                "start_time": 26.9431818,
                "end_time": 31.1545455,
                "pitch": 56,
                "velocity": 40,
                "duration": 4.2113636,
                "tempo": 120.0
            },
            {
                "start_time": 30.9545455,
                "end_time": 31.1545455,
                "pitch": 68,
                "velocity": 40,
                "duration": 0.2,
                "tempo": 120.0
            },
            {
                "start_time": 31.1545455,
                "end_time": 31.3568182,
                "pitch": 64,
                "velocity": 40,
                "duration": 0.2022727,
                "tempo": 120.0
            },
            {
                "start_time": 29.15,
                "end_time": 31.3568182,
                "pitch": 76,
                "velocity": 40,
                "duration": 2.2068182,
                "tempo": 120.0
            },
            {
                "start_time": 30.3522727,
                "end_time": 31.5545455,
                "pitch": 73,
                "velocity": 40,
                "duration": 1.2022727,
                "tempo": 120.0
            },
            {
                "start_time": 31.3568182,
                "end_time": 31.5545455,
                "pitch": 73,
                "velocity": 40,
                "duration": 0.1977273,
                "tempo": 120.0
            },
            {
                "start_time": 30.9545455,
                "end_time": 31.9568182,
                "pitch": 71,
                "velocity": 40,
                "duration": 1.0022727,
                "tempo": 120.0
            },
            {
                "start_time": 31.5545455,
                "end_time": 31.9568182,
                "pitch": 71,
                "velocity": 40,
                "duration": 0.4022727,
                "tempo": 120.0
            },
            {
                "start_time": 31.9568182,
                "end_time": 32.3590909,
                "pitch": 69,
                "velocity": 40,
                "duration": 0.4022727,
                "tempo": 120.0
            },
            {
                "start_time": 31.5545455,
                "end_time": 32.5590909,
                "pitch": 73,
                "velocity": 40,
                "duration": 1.0045455,
                "tempo": 120.0
            },
            {
                "start_time": 32.3590909,
                "end_time": 32.5590909,
                "pitch": 73,
                "velocity": 40,
                "duration": 0.2,
                "tempo": 120.0
            },
            {
                "start_time": 32.5590909,
                "end_time": 32.7590909,
                "pitch": 73,
                "velocity": 40,
                "duration": 0.2,
                "tempo": 120.0
            },
            {
                "start_time": 31.3568182,
                "end_time": 32.9590909,
                "pitch": 76,
                "velocity": 40,
                "duration": 1.6022727,
                "tempo": 120.0
            },
            {
                "start_time": 32.7590909,
                "end_time": 32.9590909,
                "pitch": 76,
                "velocity": 40,
                "duration": 0.2,
                "tempo": 120.0
            },
            {
                "start_time": 32.3590909,
                "end_time": 33.1590909,
                "pitch": 69,
                "velocity": 40,
                "duration": 0.8,
                "tempo": 120.0
            },
            {
                "start_time": 32.9590909,
                "end_time": 33.1590909,
                "pitch": 69,
                "velocity": 40,
                "duration": 0.2,
                "tempo": 120.0
            },
            {
                "start_time": 33.1590909,
                "end_time": 33.225,
                "pitch": 69,
                "velocity": 40,
                "duration": 0.0659091,
                "tempo": 120.0
            },
            {
                "start_time": 31.9568182,
                "end_time": 33.3613636,
                "pitch": 71,
                "velocity": 40,
                "duration": 1.4045455,
                "tempo": 120.0
            },
            {
                "start_time": 33.225,
                "end_time": 33.3613636,
                "pitch": 71,
                "velocity": 40,
                "duration": 0.1363636,
                "tempo": 120.0
            },
            {
                "start_time": 33.3613636,
                "end_time": 33.425,
                "pitch": 79,
                "velocity": 40,
                "duration": 0.0636364,
                "tempo": 120.0
            },
            {
                "start_time": 33.425,
                "end_time": 33.5613636,
                "pitch": 79,
                "velocity": 40,
                "duration": 0.1363636,
                "tempo": 120.0
            },
            {
                "start_time": 33.5613636,
                "end_time": 33.575,
                "pitch": 79,
                "velocity": 40,
                "duration": 0.0136364,
                "tempo": 120.0
            },
            {
                "start_time": 33.575,
                "end_time": 33.7613636,
                "pitch": 77,
                "velocity": 40,
                "duration": 0.1863636,
                "tempo": 120.0
            },
            {
                "start_time": 32.9590909,
                "end_time": 33.9613636,
                "pitch": 76,
                "velocity": 40,
                "duration": 1.0022727,
                "tempo": 120.0
            },
            {
                "start_time": 33.7613636,
                "end_time": 33.9613636,
                "pitch": 77,
                "velocity": 40,
                "duration": 0.2,
                "tempo": 120.0
            },
            {
                "start_time": 33.9613636,
                "end_time": 34.1613636,
                "pitch": 71,
                "velocity": 40,
                "duration": 0.2,
                "tempo": 120.0
            },
            {
                "start_time": 34.1613636,
                "end_time": 34.3613636,
                "pitch": 68,
                "velocity": 40,
                "duration": 0.2,
                "tempo": 120.0
            },
            {
                "start_time": 34.1613636,
                "end_time": 34.5613636,
                "pitch": 71,
                "velocity": 40,
                "duration": 0.4,
                "tempo": 120.0
            },
            {
                "start_time": 34.3613636,
                "end_time": 34.5613636,
                "pitch": 71,
                "velocity": 40,
                "duration": 0.2,
                "tempo": 120.0
            },
            {
                "start_time": 32.7590909,
                "end_time": 34.7590909,
                "pitch": 74,
                "velocity": 40,
                "duration": 2.0,
                "tempo": 120.0
            },
            {
                "start_time": 34.5613636,
                "end_time": 34.7590909,
                "pitch": 74,
                "velocity": 40,
                "duration": 0.1977273,
                "tempo": 120.0
            },
            {
                "start_time": 29.75,
                "end_time": 35.5568182,
                "pitch": 78,
                "velocity": 40,
                "duration": 5.8068182,
                "tempo": 120.0
            },
            {
                "start_time": 34.7590909,
                "end_time": 35.5568182,
                "pitch": 78,
                "velocity": 40,
                "duration": 0.7977273,
                "tempo": 120.0
            },
            {
                "start_time": 35.5568182,
                "end_time": 35.7636364,
                "pitch": 78,
                "velocity": 40,
                "duration": 0.2068182,
                "tempo": 120.0
            },
            {
                "start_time": 34.7590909,
                "end_time": 35.9636364,
                "pitch": 74,
                "velocity": 40,
                "duration": 1.2045455,
                "tempo": 120.0
            },
            {
                "start_time": 35.7636364,
                "end_time": 35.9636364,
                "pitch": 74,
                "velocity": 40,
                "duration": 0.2,
                "tempo": 120.0
            },
            {
                "start_time": 34.5613636,
                "end_time": 36.1636364,
                "pitch": 71,
                "velocity": 40,
                "duration": 1.6022727,
                "tempo": 120.0
            },
            {
                "start_time": 35.9636364,
                "end_time": 36.1636364,
                "pitch": 71,
                "velocity": 40,
                "duration": 0.2,
                "tempo": 120.0
            },
            {
                "start_time": 36.1636364,
                "end_time": 36.3636364,
                "pitch": 73,
                "velocity": 40,
                "duration": 0.2,
                "tempo": 120.0
            },
            {
                "start_time": 36.3636364,
                "end_time": 36.7636364,
                "pitch": 73,
                "velocity": 40,
                "duration": 0.4,
                "tempo": 120.0
            },
            {
                "start_time": 35.9636364,
                "end_time": 36.7636364,
                "pitch": 74,
                "velocity": 40,
                "duration": 0.8,
                "tempo": 120.0
            },
            {
                "start_time": 36.1636364,
                "end_time": 36.9636364,
                "pitch": 71,
                "velocity": 40,
                "duration": 0.8,
                "tempo": 120.0
            },
            {
                "start_time": 36.7636364,
                "end_time": 36.9636364,
                "pitch": 71,
                "velocity": 40,
                "duration": 0.2,
                "tempo": 120.0
            },
            {
                "start_time": 34.3613636,
                "end_time": 37.1636364,
                "pitch": 68,
                "velocity": 40,
                "duration": 2.8022727,
                "tempo": 120.0
            },
            {
                "start_time": 36.9636364,
                "end_time": 37.1636364,
                "pitch": 68,
                "velocity": 40,
                "duration": 0.2,
                "tempo": 120.0
            },
            {
                "start_time": 29.55,
                "end_time": 64.4181818,
                "pitch": 57,
                "velocity": 40,
                "duration": 34.8681818,
                "tempo": 120.0
            },
            {
                "start_time": 37.1636364,
                "end_time": 64.4181818,
                "pitch": 68,
                "velocity": 40,
                "duration": 27.2545455,
                "tempo": 120.0
            },
            {
                "start_time": 64.4181818,
                "end_time": 65.0227273,
                "pitch": 64,
                "velocity": 40,
                "duration": 0.6045455,
                "tempo": 120.0
            },
            {
                "start_time": 65.0227273,
                "end_time": 65.2272727,
                "pitch": 64,
                "velocity": 40,
                "duration": 0.2045455,
                "tempo": 120.0
            },
            {
                "start_time": 65.2272727,
                "end_time": 65.2931818,
                "pitch": 64,
                "velocity": 40,
                "duration": 0.0659091,
                "tempo": 120.0
            },
            {
                "start_time": 65.2931818,
                "end_time": 65.4318182,
                "pitch": 66,
                "velocity": 40,
                "duration": 0.1386364,
                "tempo": 120.0
            },
            {
                "start_time": 65.4318182,
                "end_time": 65.4477273,
                "pitch": 66,
                "velocity": 40,
                "duration": 0.0159091,
                "tempo": 120.0
            },
            {
                "start_time": 65.4477273,
                "end_time": 65.6272727,
                "pitch": 64,
                "velocity": 40,
                "duration": 0.1795455,
                "tempo": 120.0
            },
            {
                "start_time": 65.6272727,
                "end_time": 65.825,
                "pitch": 62,
                "velocity": 40,
                "duration": 0.1977273,
                "tempo": 120.0
            },
            {
                "start_time": 65.825,
                "end_time": 66.0295455,
                "pitch": 62,
                "velocity": 40,
                "duration": 0.2045455,
                "tempo": 120.0
            },
            {
                "start_time": 66.0295455,
                "end_time": 66.2363636,
                "pitch": 61,
                "velocity": 40,
                "duration": 0.2068182,
                "tempo": 120.0
            },
            {
                "start_time": 28.95,
                "end_time": 66.4363636,
                "pitch": 59,
                "velocity": 40,
                "duration": 37.4863636,
                "tempo": 120.0
            },
            {
                "start_time": 66.2363636,
                "end_time": 66.4363636,
                "pitch": 59,
                "velocity": 40,
                "duration": 0.2,
                "tempo": 120.0
            },
            {
                "start_time": 31.1545455,
                "end_time": 66.6386364,
                "pitch": 56,
                "velocity": 40,
                "duration": 35.4840909,
                "tempo": 120.0
            },
            {
                "start_time": 66.4363636,
                "end_time": 66.6386364,
                "pitch": 56,
                "velocity": 40,
                "duration": 0.2022727,
                "tempo": 120.0
            },
            {
                "start_time": 66.6386364,
                "end_time": 66.8363636,
                "pitch": 66,
                "velocity": 40,
                "duration": 0.1977273,
                "tempo": 120.0
            },
            {
                "start_time": 66.8386364,
                "end_time": 66.8522727,
                "pitch": 66,
                "velocity": 40,
                "duration": 0.0136364,
                "tempo": 120.0
            },
            {
                "start_time": 65.6272727,
                "end_time": 67.2386364,
                "pitch": 64,
                "velocity": 40,
                "duration": 1.6113636,
                "tempo": 120.0
            },
            {
                "start_time": 66.8522727,
                "end_time": 67.2386364,
                "pitch": 64,
                "velocity": 40,
                "duration": 0.3863636,
                "tempo": 120.0
            },
            {
                "start_time": 66.2363636,
                "end_time": 67.6409091,
                "pitch": 62,
                "velocity": 40,
                "duration": 1.4045455,
                "tempo": 120.0
            },
            {
                "start_time": 67.2386364,
                "end_time": 67.6409091,
                "pitch": 62,
                "velocity": 40,
                "duration": 0.4022727,
                "tempo": 120.0
            },
            {
                "start_time": 67.6409091,
                "end_time": 68.2340909,
                "pitch": 66,
                "velocity": 40,
                "duration": 0.5931818,
                "tempo": 120.0
            },
            {
                "start_time": 68.2340909,
                "end_time": 68.4386364,
                "pitch": 66,
                "velocity": 40,
                "duration": 0.2045455,
                "tempo": 120.0
            },
            {
                "start_time": 35.7636364,
                "end_time": 68.4386364,
                "pitch": 78,
                "velocity": 40,
                "duration": 32.675,
                "tempo": 120.0
            },
            {
                "start_time": 66.6386364,
                "end_time": 68.6454545,
                "pitch": 56,
                "velocity": 40,
                "duration": 2.0068182,
                "tempo": 120.0
            },
            {
                "start_time": 68.4386364,
                "end_time": 68.6454545,
                "pitch": 68,
                "velocity": 40,
                "duration": 0.2068182,
                "tempo": 120.0
            },
            {
                "start_time": 67.2386364,
                "end_time": 68.8431818,
                "pitch": 64,
                "velocity": 40,
                "duration": 1.6045455,
                "tempo": 120.0
            },
            {
                "start_time": 68.6454545,
                "end_time": 68.8431818,
                "pitch": 64,
                "velocity": 40,
                "duration": 0.1977273,
                "tempo": 120.0
            },
            {
                "start_time": 68.8431818,
                "end_time": 69.0454545,
                "pitch": 61,
                "velocity": 40,
                "duration": 0.2022727,
                "tempo": 120.0
            },
            {
                "start_time": 69.0454545,
                "end_time": 69.2454545,
                "pitch": 69,
                "velocity": 40,
                "duration": 0.2,
                "tempo": 120.0
            },
            {
                "start_time": 0.2386364,
                "end_time": 69.3113636,
                "pitch": 67,
                "velocity": 40,
                "duration": 69.0727273,
                "tempo": 120.0
            },
            {
                "start_time": 69.2454545,
                "end_time": 69.3113636,
                "pitch": 67,
                "velocity": 40,
                "duration": 0.0659091,
                "tempo": 120.0
            },
            {
                "start_time": 69.3113636,
                "end_time": 69.4454545,
                "pitch": 67,
                "velocity": 40,
                "duration": 0.1340909,
                "tempo": 120.0
            },
            {
                "start_time": 69.3113636,
                "end_time": 69.4454545,
                "pitch": 79,
                "velocity": 40,
                "duration": 0.1340909,
                "tempo": 120.0
            },
            {
                "start_time": 69.4454545,
                "end_time": 69.575,
                "pitch": 67,
                "velocity": 40,
                "duration": 0.1295455,
                "tempo": 120.0
            },
            {
                "start_time": 69.4454545,
                "end_time": 69.575,
                "pitch": 79,
                "velocity": 40,
                "duration": 0.1295455,
                "tempo": 120.0
            },
            {
                "start_time": 69.575,
                "end_time": 69.7068182,
                "pitch": 67,
                "velocity": 40,
                "duration": 0.1318182,
                "tempo": 120.0
            },
            {
                "start_time": 69.575,
                "end_time": 69.7068182,
                "pitch": 79,
                "velocity": 40,
                "duration": 0.1318182,
                "tempo": 120.0
            },
            {
                "start_time": 69.7068182,
                "end_time": 69.8386364,
                "pitch": 67,
                "velocity": 40,
                "duration": 0.1318182,
                "tempo": 120.0
            },
            {
                "start_time": 69.8386364,
                "end_time": 69.9045455,
                "pitch": 67,
                "velocity": 40,
                "duration": 0.0659091,
                "tempo": 120.0
            },
            {
                "start_time": 69.7068182,
                "end_time": 69.9045455,
                "pitch": 79,
                "velocity": 40,
                "duration": 0.1977273,
                "tempo": 120.0
            },
            {
                "start_time": 69.9045455,
                "end_time": 70.0431818,
                "pitch": 67,
                "velocity": 40,
                "duration": 0.1386364,
                "tempo": 120.0
            },
            {
                "start_time": 69.9045455,
                "end_time": 70.0431818,
                "pitch": 79,
                "velocity": 40,
                "duration": 0.1386364,
                "tempo": 120.0
            },
            {
                "start_time": 70.0431818,
                "end_time": 70.25,
                "pitch": 70,
                "velocity": 40,
                "duration": 0.2068182,
                "tempo": 120.0
            },
            {
                "start_time": 70.25,
                "end_time": 70.3136364,
                "pitch": 67,
                "velocity": 40,
                "duration": 0.0636364,
                "tempo": 120.0
            },
            {
                "start_time": 70.0431818,
                "end_time": 70.3136364,
                "pitch": 79,
                "velocity": 40,
                "duration": 0.2704545,
                "tempo": 120.0
            },
            {
                "start_time": 70.3136364,
                "end_time": 70.4454545,
                "pitch": 67,
                "velocity": 40,
                "duration": 0.1318182,
                "tempo": 120.0
            },
            {
                "start_time": 70.4454545,
                "end_time": 70.6409091,
                "pitch": 63,
                "velocity": 40,
                "duration": 0.1954545,
                "tempo": 120.0
            },
            {
                "start_time": 70.6409091,
                "end_time": 70.8454545,
                "pitch": 61,
                "velocity": 40,
                "duration": 0.2045455,
                "tempo": 120.0
            },
            {
                "start_time": 70.8454545,
                "end_time": 71.2522727,
                "pitch": 61,
                "velocity": 40,
                "duration": 0.4068182,
                "tempo": 120.0
            },
            {
                "start_time": 71.2522727,
                "end_time": 71.4545455,
                "pitch": 61,
                "velocity": 40,
                "duration": 0.2022727,
                "tempo": 120.0
            },
            {
                "start_time": 67.6409091,
                "end_time": 71.4545455,
                "pitch": 62,
                "velocity": 40,
                "duration": 3.8136364,
                "tempo": 120.0
            },
            {
                "start_time": 68.8431818,
                "end_time": 71.6545455,
                "pitch": 64,
                "velocity": 40,
                "duration": 2.8113636,
                "tempo": 120.0
            },
            {
                "start_time": 71.4545455,
                "end_time": 71.6545455,
                "pitch": 64,
                "velocity": 40,
                "duration": 0.2,
                "tempo": 120.0
            },
            {
                "start_time": 33.3613636,
                "end_time": 71.7204545,
                "pitch": 55,
                "velocity": 40,
                "duration": 38.3590909,
                "tempo": 120.0
            },
            {
                "start_time": 71.6545455,
                "end_time": 71.7204545,
                "pitch": 55,
                "velocity": 40,
                "duration": 0.0659091,
                "tempo": 120.0
            },
            {
                "start_time": 70.4454545,
                "end_time": 71.7204545,
                "pitch": 67,
                "velocity": 40,
                "duration": 1.275,
                "tempo": 120.0
            },
            {
                "start_time": 71.7204545,
                "end_time": 71.7863636,
                "pitch": 55,
                "velocity": 40,
                "duration": 0.0659091,
                "tempo": 120.0
            },
            {
                "start_time": 71.7863636,
                "end_time": 71.8545455,
                "pitch": 55,
                "velocity": 40,
                "duration": 0.0681818,
                "tempo": 120.0
            },
            {
                "start_time": 71.8545455,
                "end_time": 72.0568182,
                "pitch": 55,
                "velocity": 40,
                "duration": 0.2022727,
                "tempo": 120.0
            },
            {
                "start_time": 71.4545455,
                "end_time": 72.2568182,
                "pitch": 62,
                "velocity": 40,
                "duration": 0.8022727,
                "tempo": 120.0
            },
            {
                "start_time": 72.0568182,
                "end_time": 72.2568182,
                "pitch": 62,
                "velocity": 40,
                "duration": 0.2,
                "tempo": 120.0
            },
            {
                "start_time": 72.2568182,
                "end_time": 72.4590909,
                "pitch": 62,
                "velocity": 40,
                "duration": 0.2022727,
                "tempo": 120.0
            },
            {
                "start_time": 66.4363636,
                "end_time": 72.8613636,
                "pitch": 59,
                "velocity": 40,
                "duration": 6.425,
                "tempo": 120.0
            },
            {
                "start_time": 72.4590909,
                "end_time": 72.8613636,
                "pitch": 59,
                "velocity": 40,
                "duration": 0.4022727,
                "tempo": 120.0
            },
            {
                "start_time": 72.8613636,
                "end_time": 73.0613636,
                "pitch": 62,
                "velocity": 40,
                "duration": 0.2,
                "tempo": 120.0
            },
            {
                "start_time": 72.0568182,
                "end_time": 73.2613636,
                "pitch": 66,
                "velocity": 40,
                "duration": 1.2045455,
                "tempo": 120.0
            },
            {
                "start_time": 73.0613636,
                "end_time": 73.2613636,
                "pitch": 66,
                "velocity": 40,
                "duration": 0.2,
                "tempo": 120.0
            },
            {
                "start_time": 68.4386364,
                "end_time": 73.2613636,
                "pitch": 78,
                "velocity": 40,
                "duration": 4.8227273,
                "tempo": 120.0
            },
            {
                "start_time": 73.2613636,
                "end_time": 73.6613636,
                "pitch": 69,
                "velocity": 40,
                "duration": 0.4,
                "tempo": 120.0
            },
            {
                "start_time": 68.6454545,
                "end_time": 74.0636364,
                "pitch": 56,
                "velocity": 40,
                "duration": 5.4181818,
                "tempo": 120.0
            },
            {
                "start_time": 73.6613636,
                "end_time": 74.0636364,
                "pitch": 69,
                "velocity": 40,
                "duration": 0.4022727,
                "tempo": 120.0
            },
            {
                "start_time": 72.8613636,
                "end_time": 74.2659091,
                "pitch": 59,
                "velocity": 40,
                "duration": 1.4045455,
                "tempo": 120.0
            },
            {
                "start_time": 74.0636364,
                "end_time": 74.2659091,
                "pitch": 59,
                "velocity": 40,
                "duration": 0.2022727,
                "tempo": 120.0
            },
            {
                "start_time": 74.2659091,
                "end_time": 74.4681818,
                "pitch": 64,
                "velocity": 40,
                "duration": 0.2022727,
                "tempo": 120.0
            },
            {
                "start_time": 33.9613636,
                "end_time": 74.4681818,
                "pitch": 76,
                "velocity": 40,
                "duration": 40.5068182,
                "tempo": 120.0
            },
            {
                "start_time": 36.9636364,
                "end_time": 74.6681818,
                "pitch": 71,
                "velocity": 40,
                "duration": 37.7045455,
                "tempo": 120.0
            },
            {
                "start_time": 74.4681818,
                "end_time": 74.6681818,
                "pitch": 71,
                "velocity": 40,
                "duration": 0.2,
                "tempo": 120.0
            },
            {
                "start_time": 74.6681818,
                "end_time": 74.8681818,
                "pitch": 68,
                "velocity": 40,
                "duration": 0.2,
                "tempo": 120.0
            },
            {
                "start_time": 64.4181818,
                "end_time": 75.0681818,
                "pitch": 57,
                "velocity": 40,
                "duration": 10.65,
                "tempo": 120.0
            },
            {
                "start_time": 74.8681818,
                "end_time": 75.0681818,
                "pitch": 68,
                "velocity": 40,
                "duration": 0.2,
                "tempo": 120.0
            },
            {
                "start_time": 75.0681818,
                "end_time": 75.2704545,
                "pitch": 66,
                "velocity": 40,
                "duration": 0.2022727,
                "tempo": 120.0
            },
            {
                "start_time": 75.2704545,
                "end_time": 75.2840909,
                "pitch": 66,
                "velocity": 40,
                "duration": 0.0136364,
                "tempo": 120.0
            },
            {
                "start_time": 75.2840909,
                "end_time": 75.4704545,
                "pitch": 64,
                "velocity": 40,
                "duration": 0.1863636,
                "tempo": 120.0
            },
            {
                "start_time": 73.0613636,
                "end_time": 75.6704545,
                "pitch": 62,
                "velocity": 40,
                "duration": 2.6090909,
                "tempo": 120.0
            },
            {
                "start_time": 75.4727273,
                "end_time": 75.6704545,
                "pitch": 62,
                "velocity": 40,
                "duration": 0.1977273,
                "tempo": 120.0
            },
            {
                "start_time": 72.4590909,
                "end_time": 76.475,
                "pitch": 61,
                "velocity": 40,
                "duration": 4.0159091,
                "tempo": 120.0
            },
            {
                "start_time": 75.6704545,
                "end_time": 76.475,
                "pitch": 62,
                "velocity": 40,
                "duration": 0.8045455,
                "tempo": 120.0
            },
            {
                "start_time": 74.2659091,
                "end_time": 77.2727273,
                "pitch": 59,
                "velocity": 40,
                "duration": 3.0068182,
                "tempo": 120.0
            },
            {
                "start_time": 76.475,
                "end_time": 77.2727273,
                "pitch": 59,
                "velocity": 40,
                "duration": 0.7977273,
                "tempo": 120.0
            },
            {
                "start_time": 75.4727273,
                "end_time": 77.8795455,
                "pitch": 64,
                "velocity": 40,
                "duration": 2.4068182,
                "tempo": 120.0
            },
            {
                "start_time": 77.2727273,
                "end_time": 77.8795455,
                "pitch": 64,
                "velocity": 40,
                "duration": 0.6068182,
                "tempo": 120.0
            },
            {
                "start_time": 77.8795455,
                "end_time": 78.0795455,
                "pitch": 64,
                "velocity": 40,
                "duration": 0.2,
                "tempo": 120.0
            },
            {
                "start_time": 78.0795455,
                "end_time": 78.1454545,
                "pitch": 64,
                "velocity": 40,
                "duration": 0.0659091,
                "tempo": 120.0
            },
            {
                "start_time": 78.1454545,
                "end_time": 78.2818182,
                "pitch": 66,
                "velocity": 40,
                "duration": 0.1363636,
                "tempo": 120.0
            },
            {
                "start_time": 78.2818182,
                "end_time": 78.2954545,
                "pitch": 66,
                "velocity": 40,
                "duration": 0.0136364,
                "tempo": 120.0
            },
            {
                "start_time": 78.2954545,
                "end_time": 78.4818182,
                "pitch": 64,
                "velocity": 40,
                "duration": 0.1863636,
                "tempo": 120.0
            },
            {
                "start_time": 78.4818182,
                "end_time": 78.4840909,
                "pitch": 64,
                "velocity": 40,
                "duration": 0.0022727,
                "tempo": 120.0
            },
            {
                "start_time": 78.4840909,
                "end_time": 78.6840909,
                "pitch": 62,
                "velocity": 40,
                "duration": 0.2,
                "tempo": 120.0
            },
            {
                "start_time": 78.6840909,
                "end_time": 78.8840909,
                "pitch": 62,
                "velocity": 40,
                "duration": 0.2,
                "tempo": 120.0
            },
            {
                "start_time": 76.475,
                "end_time": 79.2863636,
                "pitch": 61,
                "velocity": 40,
                "duration": 2.8113636,
                "tempo": 120.0
            },
            {
                "start_time": 78.8840909,
                "end_time": 79.2863636,
                "pitch": 61,
                "velocity": 40,
                "duration": 0.4022727,
                "tempo": 120.0
            },
            {
                "start_time": 77.2727273,
                "end_time": 79.4886364,
                "pitch": 59,
                "velocity": 40,
                "duration": 2.2159091,
                "tempo": 120.0
            },
            {
                "start_time": 79.2863636,
                "end_time": 79.4886364,
                "pitch": 59,
                "velocity": 40,
                "duration": 0.2022727,
                "tempo": 120.0
            },
            {
                "start_time": 79.4886364,
                "end_time": 79.6863636,
                "pitch": 61,
                "velocity": 40,
                "duration": 0.1977273,
                "tempo": 120.0
            },
            {
                "start_time": 79.6863636,
                "end_time": 80.4909091,
                "pitch": 61,
                "velocity": 40,
                "duration": 0.8045455,
                "tempo": 120.0
            },
            {
                "start_time": 79.2863636,
                "end_time": 80.4909091,
                "pitch": 62,
                "velocity": 40,
                "duration": 1.2045455,
                "tempo": 120.0
            },
            {
                "start_time": 80.4909091,
                "end_time": 81.0863636,
                "pitch": 66,
                "velocity": 40,
                "duration": 0.5954545,
                "tempo": 120.0
            },
            {
                "start_time": 80.4909091,
                "end_time": 81.2909091,
                "pitch": 62,
                "velocity": 40,
                "duration": 0.8,
                "tempo": 120.0
            },
            {
                "start_time": 81.0863636,
                "end_time": 81.2909091,
                "pitch": 62,
                "velocity": 40,
                "duration": 0.2045455,
                "tempo": 120.0
            },
            {
                "start_time": 79.4886364,
                "end_time": 81.4954545,
                "pitch": 59,
                "velocity": 40,
                "duration": 2.0068182,
                "tempo": 120.0
            },
            {
                "start_time": 81.2909091,
                "end_time": 81.4954545,
                "pitch": 59,
                "velocity": 40,
                "duration": 0.2045455,
                "tempo": 120.0
            },
            {
                "start_time": 74.0636364,
                "end_time": 81.6954545,
                "pitch": 56,
                "velocity": 40,
                "duration": 7.6318182,
                "tempo": 120.0
            },
            {
                "start_time": 81.4954545,
                "end_time": 81.6954545,
                "pitch": 56,
                "velocity": 40,
                "duration": 0.2,
                "tempo": 120.0
            },
            {
                "start_time": 81.6954545,
                "end_time": 81.8954545,
                "pitch": 64,
                "velocity": 40,
                "duration": 0.2,
                "tempo": 120.0
            },
            {
                "start_time": 81.8954545,
                "end_time": 82.0954545,
                "pitch": 64,
                "velocity": 40,
                "duration": 0.2,
                "tempo": 120.0
            },
            {
                "start_time": 82.0954545,
                "end_time": 83.6977273,
                "pitch": 61,
                "velocity": 40,
                "duration": 1.6022727,
                "tempo": 120.0
            },
            {
                "start_time": 83.6977273,
                "end_time": 84.2954545,
                "pitch": 47,
                "velocity": 40,
                "duration": 0.5977273,
                "tempo": 120.0
            },
            {
                "start_time": 84.2954545,
                "end_time": 84.5,
                "pitch": 47,
                "velocity": 40,
                "duration": 0.2045455,
                "tempo": 120.0
            },
            {
                "start_time": 84.5,
                "end_time": 84.7068182,
                "pitch": 50,
                "velocity": 40,
                "duration": 0.2068182,
                "tempo": 120.0
            },
            {
                "start_time": 84.7068182,
                "end_time": 84.7704545,
                "pitch": 55,
                "velocity": 40,
                "duration": 0.0636364,
                "tempo": 120.0
            },
            {
                "start_time": 71.7204545,
                "end_time": 84.7704545,
                "pitch": 67,
                "velocity": 40,
                "duration": 13.05,
                "tempo": 120.0
            },
            {
                "start_time": 71.7863636,
                "end_time": 84.8386364,
                "pitch": 0,
                "velocity": 40,
                "duration": 13.0522727,
                "tempo": 120.0
            },
            {
                "start_time": 84.7704545,
                "end_time": 84.8386364,
                "pitch": 55,
                "velocity": 40,
                "duration": 0.0681818,
                "tempo": 120.0
            },
            {
                "start_time": 84.8386364,
                "end_time": 84.9068182,
                "pitch": 55,
                "velocity": 40,
                "duration": 0.0681818,
                "tempo": 120.0
            },
            {
                "start_time": 84.7704545,
                "end_time": 84.9068182,
                "pitch": 67,
                "velocity": 40,
                "duration": 0.1363636,
                "tempo": 120.0
            },
            {
                "start_time": 81.4954545,
                "end_time": 85.1068182,
                "pitch": 59,
                "velocity": 40,
                "duration": 3.6113636,
                "tempo": 120.0
            },
            {
                "start_time": 84.9068182,
                "end_time": 85.1068182,
                "pitch": 59,
                "velocity": 40,
                "duration": 0.2,
                "tempo": 120.0
            },
            {
                "start_time": 81.2909091,
                "end_time": 85.3068182,
                "pitch": 62,
                "velocity": 40,
                "duration": 4.0159091,
                "tempo": 120.0
            },
            {
                "start_time": 85.1068182,
                "end_time": 85.3068182,
                "pitch": 62,
                "velocity": 40,
                "duration": 0.2,
                "tempo": 120.0
            },
            {
                "start_time": 85.3068182,
                "end_time": 85.5090909,
                "pitch": 62,
                "velocity": 40,
                "duration": 0.2022727,
                "tempo": 120.0
            },
            {
                "start_time": 75.0681818,
                "end_time": 85.7090909,
                "pitch": 57,
                "velocity": 40,
                "duration": 10.6409091,
                "tempo": 120.0
            },
            {
                "start_time": 85.5090909,
                "end_time": 85.7090909,
                "pitch": 57,
                "velocity": 40,
                "duration": 0.2,
                "tempo": 120.0
            },
            {
                "start_time": 85.7090909,
                "end_time": 85.9090909,
                "pitch": 54,
                "velocity": 40,
                "duration": 0.2,
                "tempo": 120.0
            },
            {
                "start_time": 85.9090909,
                "end_time": 85.975,
                "pitch": 53,
                "velocity": 40,
                "duration": 0.0659091,
                "tempo": 120.0
            },
            {
                "start_time": 84.9068182,
                "end_time": 85.975,
                "pitch": 67,
                "velocity": 40,
                "duration": 1.0681818,
                "tempo": 120.0
            },
            {
                "start_time": 84.8386364,
                "end_time": 86.0409091,
                "pitch": 0,
                "velocity": 40,
                "duration": 1.2022727,
                "tempo": 120.0
            },
            {
                "start_time": 85.975,
                "end_time": 86.0409091,
                "pitch": 55,
                "velocity": 40,
                "duration": 0.0659091,
                "tempo": 120.0
            },
            {
                "start_time": 86.0409091,
                "end_time": 86.1090909,
                "pitch": 55,
                "velocity": 40,
                "duration": 0.0681818,
                "tempo": 120.0
            },
            {
                "start_time": 85.975,
                "end_time": 86.1090909,
                "pitch": 67,
                "velocity": 40,
                "duration": 0.1340909,
                "tempo": 120.0
            },
            {
                "start_time": 86.1090909,
                "end_time": 86.9090909,
                "pitch": 57,
                "velocity": 40,
                "duration": 0.8,
                "tempo": 120.0
            },
            {
                "start_time": 86.9090909,
                "end_time": 86.975,
                "pitch": 57,
                "velocity": 40,
                "duration": 0.0659091,
                "tempo": 120.0
            },
            {
                "start_time": 85.1068182,
                "end_time": 87.1159091,
                "pitch": 59,
                "velocity": 40,
                "duration": 2.0090909,
                "tempo": 120.0
            },
            {
                "start_time": 86.975,
                "end_time": 87.1159091,
                "pitch": 59,
                "velocity": 40,
                "duration": 0.1409091,
                "tempo": 120.0
            },
            {
                "start_time": 85.5090909,
                "end_time": 87.3159091,
                "pitch": 61,
                "velocity": 40,
                "duration": 1.8068182,
                "tempo": 120.0
            },
            {
                "start_time": 87.1159091,
                "end_time": 87.3159091,
                "pitch": 61,
                "velocity": 40,
                "duration": 0.2,
                "tempo": 120.0
            },
            {
                "start_time": 87.3159091,
                "end_time": 87.5181818,
                "pitch": 61,
                "velocity": 40,
                "duration": 0.2022727,
                "tempo": 120.0
            },
            {
                "start_time": 87.5181818,
                "end_time": 87.7159091,
                "pitch": 57,
                "velocity": 40,
                "duration": 0.1977273,
                "tempo": 120.0
            },
            {
                "start_time": 87.7159091,
                "end_time": 87.7181818,
                "pitch": 17,
                "velocity": 40,
                "duration": 0.0022727,
                "tempo": 120.0
            },
            {
                "start_time": 87.7181818,
                "end_time": 87.7818182,
                "pitch": 55,
                "velocity": 40,
                "duration": 0.0636364,
                "tempo": 120.0
            },
            {
                "start_time": 86.1090909,
                "end_time": 87.7818182,
                "pitch": 67,
                "velocity": 40,
                "duration": 1.6727273,
                "tempo": 120.0
            },
            {
                "start_time": 86.0409091,
                "end_time": 87.85,
                "pitch": 0,
                "velocity": 40,
                "duration": 1.8090909,
                "tempo": 120.0
            },
            {
                "start_time": 87.7818182,
                "end_time": 87.85,
                "pitch": 55,
                "velocity": 40,
                "duration": 0.0681818,
                "tempo": 120.0
            },
            {
                "start_time": 87.85,
                "end_time": 87.9181818,
                "pitch": 55,
                "velocity": 40,
                "duration": 0.0681818,
                "tempo": 120.0
            },
            {
                "start_time": 87.9181818,
                "end_time": 87.9818182,
                "pitch": 55,
                "velocity": 40,
                "duration": 0.0636364,
                "tempo": 120.0
            },
            {
                "start_time": 87.7818182,
                "end_time": 87.9818182,
                "pitch": 67,
                "velocity": 40,
                "duration": 0.2,
                "tempo": 120.0
            },
            {
                "start_time": 87.85,
                "end_time": 88.05,
                "pitch": 0,
                "velocity": 40,
                "duration": 0.2,
                "tempo": 120.0
            },
            {
                "start_time": 87.9818182,
                "end_time": 88.05,
                "pitch": 55,
                "velocity": 40,
                "duration": 0.0681818,
                "tempo": 120.0
            },
            {
                "start_time": 88.05,
                "end_time": 88.1181818,
                "pitch": 55,
                "velocity": 40,
                "duration": 0.0681818,
                "tempo": 120.0
            },
            {
                "start_time": 87.9818182,
                "end_time": 88.1181818,
                "pitch": 67,
                "velocity": 40,
                "duration": 0.1363636,
                "tempo": 120.0
            },
            {
                "start_time": 87.1159091,
                "end_time": 88.3204545,
                "pitch": 59,
                "velocity": 40,
                "duration": 1.2045455,
                "tempo": 120.0
            },
            {
                "start_time": 88.1181818,
                "end_time": 88.3204545,
                "pitch": 59,
                "velocity": 40,
                "duration": 0.2022727,
                "tempo": 120.0
            },
            {
                "start_time": 88.3204545,
                "end_time": 88.5204545,
                "pitch": 61,
                "velocity": 40,
                "duration": 0.2,
                "tempo": 120.0
            },
            {
                "start_time": 88.5204545,
                "end_time": 90.1159091,
                "pitch": 61,
                "velocity": 40,
                "duration": 1.5954545,
                "tempo": 120.0
            },
            {
                "start_time": 87.5181818,
                "end_time": 90.1159091,
                "pitch": 62,
                "velocity": 40,
                "duration": 2.5977273,
                "tempo": 120.0
            },
            {
                "start_time": 81.0863636,
                "end_time": 90.3159091,
                "pitch": 66,
                "velocity": 40,
                "duration": 9.2295455,
                "tempo": 120.0
            },
            {
                "start_time": 90.1159091,
                "end_time": 90.3159091,
                "pitch": 66,
                "velocity": 40,
                "duration": 0.2,
                "tempo": 120.0
            },
            {
                "start_time": 88.1181818,
                "end_time": 90.3840909,
                "pitch": 67,
                "velocity": 40,
                "duration": 2.2659091,
                "tempo": 120.0
            },
            {
                "start_time": 90.3159091,
                "end_time": 90.3840909,
                "pitch": 67,
                "velocity": 40,
                "duration": 0.0681818,
                "tempo": 120.0
            },
            {
                "start_time": 70.3136364,
                "end_time": 90.3840909,
                "pitch": 79,
                "velocity": 40,
                "duration": 20.0704545,
                "tempo": 120.0
            },
            {
                "start_time": 90.3840909,
                "end_time": 90.5204545,
                "pitch": 67,
                "velocity": 40,
                "duration": 0.1363636,
                "tempo": 120.0
            },
            {
                "start_time": 90.3840909,
                "end_time": 90.5204545,
                "pitch": 79,
                "velocity": 40,
                "duration": 0.1363636,
                "tempo": 120.0
            },
            {
                "start_time": 90.5204545,
                "end_time": 90.9227273,
                "pitch": 69,
                "velocity": 40,
                "duration": 0.4022727,
                "tempo": 120.0
            },
            {
                "start_time": 90.9227273,
                "end_time": 91.1181818,
                "pitch": 66,
                "velocity": 40,
                "duration": 0.1954545,
                "tempo": 120.0
            },
            {
                "start_time": 90.1159091,
                "end_time": 91.725,
                "pitch": 62,
                "velocity": 40,
                "duration": 1.6090909,
                "tempo": 120.0
            },
            {
                "start_time": 91.1181818,
                "end_time": 91.725,
                "pitch": 62,
                "velocity": 40,
                "duration": 0.6068182,
                "tempo": 120.0
            },
            {
                "start_time": 91.725,
                "end_time": 91.9295455,
                "pitch": 62,
                "velocity": 40,
                "duration": 0.2045455,
                "tempo": 120.0
            },
            {
                "start_time": 91.9295455,
                "end_time": 92.125,
                "pitch": 61,
                "velocity": 40,
                "duration": 0.1954545,
                "tempo": 120.0
            },
            {
                "start_time": 82.0954545,
                "end_time": 92.5227273,
                "pitch": 64,
                "velocity": 40,
                "duration": 10.4272727,
                "tempo": 120.0
            },
            {
                "start_time": 92.125,
                "end_time": 92.5227273,
                "pitch": 64,
                "velocity": 40,
                "duration": 0.3977273,
                "tempo": 120.0
            },
            {
                "start_time": 92.5227273,
                "end_time": 92.725,
                "pitch": 61,
                "velocity": 40,
                "duration": 0.2022727,
                "tempo": 120.0
            },
            {
                "start_time": 90.9227273,
                "end_time": 93.3340909,
                "pitch": 57,
                "velocity": 40,
                "duration": 2.4113636,
                "tempo": 120.0
            },
            {
                "start_time": 92.725,
                "end_time": 93.3340909,
                "pitch": 57,
                "velocity": 40,
                "duration": 0.6090909,
                "tempo": 120.0
            },
            {
                "start_time": 93.3340909,
                "end_time": 93.4,
                "pitch": 57,
                "velocity": 40,
                "duration": 0.0659091,
                "tempo": 120.0
            },
            {
                "start_time": 88.3204545,
                "end_time": 93.5409091,
                "pitch": 59,
                "velocity": 40,
                "duration": 5.2204545,
                "tempo": 120.0
            },
            {
                "start_time": 93.4,
                "end_time": 93.5409091,
                "pitch": 59,
                "velocity": 40,
                "duration": 0.1409091,
                "tempo": 120.0
            },
            {
                "start_time": 93.5409091,
                "end_time": 93.6045455,
                "pitch": 55,
                "velocity": 40,
                "duration": 0.0636364,
                "tempo": 120.0
            },
            {
                "start_time": 88.05,
                "end_time": 93.6704545,
                "pitch": 0,
                "velocity": 40,
                "duration": 5.6204545,
                "tempo": 120.0
            },
            {
                "start_time": 93.6045455,
                "end_time": 93.6704545,
                "pitch": 55,
                "velocity": 40,
                "duration": 0.0659091,
                "tempo": 120.0
            },
            {
                "start_time": 93.6704545,
                "end_time": 93.7409091,
                "pitch": 55,
                "velocity": 40,
                "duration": 0.0704545,
                "tempo": 120.0
            },
            {
                "start_time": 93.6045455,
                "end_time": 93.7409091,
                "pitch": 67,
                "velocity": 40,
                "duration": 0.1363636,
                "tempo": 120.0
            },
            {
                "start_time": 93.7409091,
                "end_time": 93.9409091,
                "pitch": 59,
                "velocity": 40,
                "duration": 0.2,
                "tempo": 120.0
            },
            {
                "start_time": 92.125,
                "end_time": 94.1409091,
                "pitch": 62,
                "velocity": 40,
                "duration": 2.0159091,
                "tempo": 120.0
            },
            {
                "start_time": 93.9409091,
                "end_time": 94.1409091,
                "pitch": 62,
                "velocity": 40,
                "duration": 0.2,
                "tempo": 120.0
            },
            {
                "start_time": 93.7409091,
                "end_time": 94.2068182,
                "pitch": 67,
                "velocity": 40,
                "duration": 0.4659091,
                "tempo": 120.0
            },
            {
                "start_time": 94.1409091,
                "end_time": 94.2068182,
                "pitch": 67,
                "velocity": 40,
                "duration": 0.0659091,
                "tempo": 120.0
            },
            {
                "start_time": 90.5204545,
                "end_time": 94.2068182,
                "pitch": 79,
                "velocity": 40,
                "duration": 3.6863636,
                "tempo": 120.0
            },
            {
                "start_time": 94.2068182,
                "end_time": 94.3431818,
                "pitch": 67,
                "velocity": 40,
                "duration": 0.1363636,
                "tempo": 120.0
            },
            {
                "start_time": 91.1181818,
                "end_time": 94.5454545,
                "pitch": 66,
                "velocity": 40,
                "duration": 3.4272727,
                "tempo": 120.0
            },
            {
                "start_time": 94.3431818,
                "end_time": 94.5454545,
                "pitch": 67,
                "velocity": 40,
                "duration": 0.2022727,
                "tempo": 120.0
            },
            {
                "start_time": 94.5454545,
                "end_time": 94.7454545,
                "pitch": 62,
                "velocity": 40,
                "duration": 0.2,
                "tempo": 120.0
            },
            {
                "start_time": 92.5227273,
                "end_time": 94.9454545,
                "pitch": 64,
                "velocity": 40,
                "duration": 2.4227273,
                "tempo": 120.0
            },
            {
                "start_time": 94.7454545,
                "end_time": 94.9454545,
                "pitch": 64,
                "velocity": 40,
                "duration": 0.2,
                "tempo": 120.0
            },
            {
                "start_time": 94.9454545,
                "end_time": 95.1454545,
                "pitch": 60,
                "velocity": 40,
                "duration": 0.2,
                "tempo": 120.0
            },
            {
                "start_time": 94.7454545,
                "end_time": 95.3454545,
                "pitch": 62,
                "velocity": 40,
                "duration": 0.6,
                "tempo": 120.0
            },
            {
                "start_time": 95.1454545,
                "end_time": 95.3454545,
                "pitch": 62,
                "velocity": 40,
                "duration": 0.2,
                "tempo": 120.0
            },
            {
                "start_time": 95.3454545,
                "end_time": 95.5477273,
                "pitch": 57,
                "velocity": 40,
                "duration": 0.2022727,
                "tempo": 120.0
            },
            {
                "start_time": 95.5477273,
                "end_time": 95.6136364,
                "pitch": 57,
                "velocity": 40,
                "duration": 0.0659091,
                "tempo": 120.0
            },
            {
                "start_time": 93.9409091,
                "end_time": 95.7477273,
                "pitch": 59,
                "velocity": 40,
                "duration": 1.8068182,
                "tempo": 120.0
            },
            {
                "start_time": 95.6136364,
                "end_time": 95.7477273,
                "pitch": 59,
                "velocity": 40,
                "duration": 0.1340909,
                "tempo": 120.0
            },
            {
                "start_time": 95.7477273,
                "end_time": 95.7613636,
                "pitch": 59,
                "velocity": 40,
                "duration": 0.0136364,
                "tempo": 120.0
            },
            {
                "start_time": 95.7613636,
                "end_time": 95.9477273,
                "pitch": 57,
                "velocity": 40,
                "duration": 0.1863636,
                "tempo": 120.0
            },
            {
                "start_time": 95.9477273,
                "end_time": 96.0136364,
                "pitch": 57,
                "velocity": 40,
                "duration": 0.0659091,
                "tempo": 120.0
            },
            {
                "start_time": 93.5409091,
                "end_time": 96.1477273,
                "pitch": 31,
                "velocity": 40,
                "duration": 2.6068182,
                "tempo": 120.0
            },
            {
                "start_time": 96.0136364,
                "end_time": 96.1477273,
                "pitch": 59,
                "velocity": 40,
                "duration": 0.1340909,
                "tempo": 120.0
            },
            {
                "start_time": 94.1409091,
                "end_time": 96.2136364,
                "pitch": 55,
                "velocity": 40,
                "duration": 2.0727273,
                "tempo": 120.0
            },
            {
                "start_time": 96.1477273,
                "end_time": 96.2136364,
                "pitch": 55,
                "velocity": 40,
                "duration": 0.0659091,
                "tempo": 120.0
            },
            {
                "start_time": 93.6704545,
                "end_time": 96.2818182,
                "pitch": 0,
                "velocity": 40,
                "duration": 2.6113636,
                "tempo": 120.0
            },
            {
                "start_time": 96.2136364,
                "end_time": 96.2818182,
                "pitch": 55,
                "velocity": 40,
                "duration": 0.0681818,
                "tempo": 120.0
            },
            {
                "start_time": 96.2818182,
                "end_time": 96.35,
                "pitch": 55,
                "velocity": 40,
                "duration": 0.0681818,
                "tempo": 120.0
            },
            {
                "start_time": 96.2136364,
                "end_time": 96.35,
                "pitch": 67,
                "velocity": 40,
                "duration": 0.1363636,
                "tempo": 120.0
            },
            {
                "start_time": 96.2818182,
                "end_time": 96.4159091,
                "pitch": 0,
                "velocity": 40,
                "duration": 0.1340909,
                "tempo": 120.0
            },
            {
                "start_time": 96.35,
                "end_time": 96.4159091,
                "pitch": 55,
                "velocity": 40,
                "duration": 0.0659091,
                "tempo": 120.0
            },
            {
                "start_time": 96.4159091,
                "end_time": 96.4818182,
                "pitch": 55,
                "velocity": 40,
                "duration": 0.0659091,
                "tempo": 120.0
            },
            {
                "start_time": 96.35,
                "end_time": 96.4818182,
                "pitch": 67,
                "velocity": 40,
                "duration": 0.1318182,
                "tempo": 120.0
            },
            {
                "start_time": 96.4818182,
                "end_time": 96.5522727,
                "pitch": 55,
                "velocity": 40,
                "duration": 0.0704545,
                "tempo": 120.0
            },
            {
                "start_time": 90.3159091,
                "end_time": 96.7522727,
                "pitch": 65,
                "velocity": 40,
                "duration": 6.4363636,
                "tempo": 120.0
            },
            {
                "start_time": 94.5454545,
                "end_time": 96.7522727,
                "pitch": 66,
                "velocity": 40,
                "duration": 2.2068182,
                "tempo": 120.0
            },
            {
                "start_time": 96.5522727,
                "end_time": 96.7522727,
                "pitch": 66,
                "velocity": 40,
                "duration": 0.2,
                "tempo": 120.0
            },
            {
                "start_time": 96.4818182,
                "end_time": 96.8181818,
                "pitch": 67,
                "velocity": 40,
                "duration": 0.3363636,
                "tempo": 120.0
            },
            {
                "start_time": 96.7522727,
                "end_time": 96.8181818,
                "pitch": 67,
                "velocity": 40,
                "duration": 0.0659091,
                "tempo": 120.0
            },
            {
                "start_time": 94.2068182,
                "end_time": 96.8181818,
                "pitch": 79,
                "velocity": 40,
                "duration": 2.6113636,
                "tempo": 120.0
            },
            {
                "start_time": 96.8181818,
                "end_time": 96.9522727,
                "pitch": 67,
                "velocity": 40,
                "duration": 0.1340909,
                "tempo": 120.0
            },
            {
                "start_time": 96.8181818,
                "end_time": 96.9522727,
                "pitch": 79,
                "velocity": 40,
                "duration": 0.1340909,
                "tempo": 120.0
            },
            {
                "start_time": 96.9522727,
                "end_time": 97.3545455,
                "pitch": 69,
                "velocity": 40,
                "duration": 0.4022727,
                "tempo": 120.0
            },
            {
                "start_time": 97.3545455,
                "end_time": 97.5545455,
                "pitch": 66,
                "velocity": 40,
                "duration": 0.2,
                "tempo": 120.0
            },
            {
                "start_time": 95.3454545,
                "end_time": 98.1522727,
                "pitch": 62,
                "velocity": 40,
                "duration": 2.8068182,
                "tempo": 120.0
            },
            {
                "start_time": 97.5545455,
                "end_time": 98.1522727,
                "pitch": 62,
                "velocity": 40,
                "duration": 0.5977273,
                "tempo": 120.0
            },
            {
                "start_time": 98.1522727,
                "end_time": 98.3590909,
                "pitch": 62,
                "velocity": 40,
                "duration": 0.2068182,
                "tempo": 120.0
            },
            {
                "start_time": 92.725,
                "end_time": 98.5590909,
                "pitch": 61,
                "velocity": 40,
                "duration": 5.8340909,
                "tempo": 120.0
            },
            {
                "start_time": 98.3590909,
                "end_time": 98.5590909,
                "pitch": 61,
                "velocity": 40,
                "duration": 0.2,
                "tempo": 120.0
            },
            {
                "start_time": 95.1454545,
                "end_time": 98.9613636,
                "pitch": 60,
                "velocity": 40,
                "duration": 3.8159091,
                "tempo": 120.0
            },
            {
                "start_time": 94.9454545,
                "end_time": 98.9613636,
                "pitch": 64,
                "velocity": 40,
                "duration": 4.0159091,
                "tempo": 120.0
            },
            {
                "start_time": 98.5590909,
                "end_time": 98.9613636,
                "pitch": 64,
                "velocity": 40,
                "duration": 0.4022727,
                "tempo": 120.0
            },
            {
                "start_time": 98.9613636,
                "end_time": 99.025,
                "pitch": 67,
                "velocity": 40,
                "duration": 0.0636364,
                "tempo": 120.0
            },
            {
                "start_time": 96.9522727,
                "end_time": 99.025,
                "pitch": 79,
                "velocity": 40,
                "duration": 2.0727273,
                "tempo": 120.0
            },
            {
                "start_time": 99.025,
                "end_time": 99.1590909,
                "pitch": 67,
                "velocity": 40,
                "duration": 0.1340909,
                "tempo": 120.0
            },
            {
                "start_time": 99.1590909,
                "end_time": 99.7636364,
                "pitch": 67,
                "velocity": 40,
                "duration": 0.6045455,
                "tempo": 120.0
            },
            {
                "start_time": 97.5545455,
                "end_time": 99.7659091,
                "pitch": 66,
                "velocity": 40,
                "duration": 2.2113636,
                "tempo": 120.0
            },
            {
                "start_time": 99.7636364,
                "end_time": 99.7659091,
                "pitch": 66,
                "velocity": 40,
                "duration": 0.0022727,
                "tempo": 120.0
            },
            {
                "start_time": 97.3545455,
                "end_time": 99.9636364,
                "pitch": 57,
                "velocity": 40,
                "duration": 2.6090909,
                "tempo": 120.0
            },
            {
                "start_time": 99.7659091,
                "end_time": 99.9636364,
                "pitch": 57,
                "velocity": 40,
                "duration": 0.1977273,
                "tempo": 120.0
            },
            {
                "start_time": 99.9636364,
                "end_time": 100.1659091,
                "pitch": 64,
                "velocity": 40,
                "duration": 0.2022727,
                "tempo": 120.0
            },
            {
                "start_time": 74.4681818,
                "end_time": 100.1659091,
                "pitch": 76,
                "velocity": 40,
                "duration": 25.6977273,
                "tempo": 120.0
            },
            {
                "start_time": 69.2454545,
                "end_time": 100.3681818,
                "pitch": 30,
                "velocity": 40,
                "duration": 31.1227273,
                "tempo": 120.0
            },
            {
                "start_time": 100.1659091,
                "end_time": 100.3681818,
                "pitch": 69,
                "velocity": 40,
                "duration": 0.2022727,
                "tempo": 120.0
            },
            {
                "start_time": 100.3681818,
                "end_time": 100.4318182,
                "pitch": 67,
                "velocity": 40,
                "duration": 0.0636364,
                "tempo": 120.0
            },
            {
                "start_time": 99.025,
                "end_time": 100.4318182,
                "pitch": 79,
                "velocity": 40,
                "duration": 1.4068182,
                "tempo": 120.0
            },
            {
                "start_time": 100.4318182,
                "end_time": 100.5681818,
                "pitch": 67,
                "velocity": 40,
                "duration": 0.1363636,
                "tempo": 120.0
            },
            {
                "start_time": 100.5681818,
                "end_time": 100.7704545,
                "pitch": 67,
                "velocity": 40,
                "duration": 0.2022727,
                "tempo": 120.0
            },
            {
                "start_time": 99.9636364,
                "end_time": 100.9704545,
                "pitch": 57,
                "velocity": 40,
                "duration": 1.0068182,
                "tempo": 120.0
            },
            {
                "start_time": 100.7704545,
                "end_time": 100.9704545,
                "pitch": 57,
                "velocity": 40,
                "duration": 0.2,
                "tempo": 120.0
            },
            {
                "start_time": 98.5590909,
                "end_time": 101.1704545,
                "pitch": 62,
                "velocity": 40,
                "duration": 2.6113636,
                "tempo": 120.0
            },
            {
                "start_time": 100.9704545,
                "end_time": 101.1704545,
                "pitch": 62,
                "velocity": 40,
                "duration": 0.2,
                "tempo": 120.0
            },
            {
                "start_time": 71.6545455,
                "end_time": 101.3704545,
                "pitch": 48,
                "velocity": 40,
                "duration": 29.7159091,
                "tempo": 120.0
            },
            {
                "start_time": 101.1704545,
                "end_time": 101.3704545,
                "pitch": 64,
                "velocity": 40,
                "duration": 0.2,
                "tempo": 120.0
            },
            {
                "start_time": 96.5522727,
                "end_time": 101.4363636,
                "pitch": 55,
                "velocity": 40,
                "duration": 4.8840909,
                "tempo": 120.0
            },
            {
                "start_time": 101.3704545,
                "end_time": 101.4363636,
                "pitch": 55,
                "velocity": 40,
                "duration": 0.0659091,
                "tempo": 120.0
            },
            {
                "start_time": 96.4159091,
                "end_time": 101.5022727,
                "pitch": 0,
                "velocity": 40,
                "duration": 5.0863636,
                "tempo": 120.0
            },
            {
                "start_time": 101.4363636,
                "end_time": 101.5022727,
                "pitch": 55,
                "velocity": 40,
                "duration": 0.0659091,
                "tempo": 120.0
            },
            {
                "start_time": 101.5022727,
                "end_time": 101.5727273,
                "pitch": 55,
                "velocity": 40,
                "duration": 0.0704545,
                "tempo": 120.0
            },
            {
                "start_time": 101.4363636,
                "end_time": 101.5727273,
                "pitch": 67,
                "velocity": 40,
                "duration": 0.1363636,
                "tempo": 120.0
            },
            {
                "start_time": 101.5727273,
                "end_time": 101.7727273,
                "pitch": 61,
                "velocity": 40,
                "duration": 0.2,
                "tempo": 120.0
            },
            {
                "start_time": 101.7727273,
                "end_time": 101.9727273,
                "pitch": 61,
                "velocity": 40,
                "duration": 0.2,
                "tempo": 120.0
            },
            {
                "start_time": 101.1704545,
                "end_time": 101.9727273,
                "pitch": 62,
                "velocity": 40,
                "duration": 0.8022727,
                "tempo": 120.0
            },
            {
                "start_time": 100.9704545,
                "end_time": 102.1727273,
                "pitch": 57,
                "velocity": 40,
                "duration": 1.2022727,
                "tempo": 120.0
            },
            {
                "start_time": 101.9727273,
                "end_time": 102.1727273,
                "pitch": 57,
                "velocity": 40,
                "duration": 0.2,
                "tempo": 120.0
            },
            {
                "start_time": 102.1727273,
                "end_time": 102.375,
                "pitch": 64,
                "velocity": 40,
                "duration": 0.2022727,
                "tempo": 120.0
            },
            {
                "start_time": 101.9727273,
                "end_time": 102.5772727,
                "pitch": 62,
                "velocity": 40,
                "duration": 0.6045455,
                "tempo": 120.0
            },
            {
                "start_time": 102.375,
                "end_time": 102.5772727,
                "pitch": 62,
                "velocity": 40,
                "duration": 0.2022727,
                "tempo": 120.0
            },
            {
                "start_time": 100.3681818,
                "end_time": 102.7772727,
                "pitch": 30,
                "velocity": 40,
                "duration": 2.4090909,
                "tempo": 120.0
            },
            {
                "start_time": 102.1727273,
                "end_time": 102.7772727,
                "pitch": 57,
                "velocity": 40,
                "duration": 0.6045455,
                "tempo": 120.0
            },
            {
                "start_time": 102.5772727,
                "end_time": 102.7772727,
                "pitch": 57,
                "velocity": 40,
                "duration": 0.2,
                "tempo": 120.0
            },
            {
                "start_time": 101.5727273,
                "end_time": 102.8431818,
                "pitch": 67,
                "velocity": 40,
                "duration": 1.2704545,
                "tempo": 120.0
            },
            {
                "start_time": 102.7772727,
                "end_time": 102.8431818,
                "pitch": 67,
                "velocity": 40,
                "duration": 0.0659091,
                "tempo": 120.0
            },
            {
                "start_time": 100.4318182,
                "end_time": 102.8431818,
                "pitch": 79,
                "velocity": 40,
                "duration": 2.4113636,
                "tempo": 120.0
            },
            {
                "start_time": 102.8431818,
                "end_time": 102.9772727,
                "pitch": 67,
                "velocity": 40,
                "duration": 0.1340909,
                "tempo": 120.0
            },
            {
                "start_time": 102.8431818,
                "end_time": 102.9772727,
                "pitch": 79,
                "velocity": 40,
                "duration": 0.1340909,
                "tempo": 120.0
            },
            {
                "start_time": 102.9772727,
                "end_time": 103.1772727,
                "pitch": 72,
                "velocity": 40,
                "duration": 0.2,
                "tempo": 120.0
            },
            {
                "start_time": 103.1772727,
                "end_time": 103.3795455,
                "pitch": 69,
                "velocity": 40,
                "duration": 0.2022727,
                "tempo": 120.0
            },
            {
                "start_time": 100.7704545,
                "end_time": 103.5795455,
                "pitch": 66,
                "velocity": 40,
                "duration": 2.8090909,
                "tempo": 120.0
            },
            {
                "start_time": 103.3795455,
                "end_time": 103.5795455,
                "pitch": 66,
                "velocity": 40,
                "duration": 0.2,
                "tempo": 120.0
            },
            {
                "start_time": 102.5772727,
                "end_time": 103.7818182,
                "pitch": 62,
                "velocity": 40,
                "duration": 1.2045455,
                "tempo": 120.0
            },
            {
                "start_time": 103.5795455,
                "end_time": 103.7818182,
                "pitch": 62,
                "velocity": 40,
                "duration": 0.2022727,
                "tempo": 120.0
            },
            {
                "start_time": 103.7818182,
                "end_time": 103.9818182,
                "pitch": 62,
                "velocity": 40,
                "duration": 0.2,
                "tempo": 120.0
            },
            {
                "start_time": 103.9818182,
                "end_time": 104.1818182,
                "pitch": 61,
                "velocity": 40,
                "duration": 0.2,
                "tempo": 120.0
            },
            {
                "start_time": 36.7636364,
                "end_time": 104.1818182,
                "pitch": 74,
                "velocity": 40,
                "duration": 67.4181818,
                "tempo": 120.0
            },
            {
                "start_time": 103.1772727,
                "end_time": 104.3840909,
                "pitch": 72,
                "velocity": 40,
                "duration": 1.2068182,
                "tempo": 120.0
            },
            {
                "start_time": 104.1818182,
                "end_time": 104.3840909,
                "pitch": 72,
                "velocity": 40,
                "duration": 0.2022727,
                "tempo": 120.0
            },
            {
                "start_time": 103.3795455,
                "end_time": 104.5840909,
                "pitch": 57,
                "velocity": 40,
                "duration": 1.2045455,
                "tempo": 120.0
            },
            {
                "start_time": 104.3840909,
                "end_time": 104.5840909,
                "pitch": 69,
                "velocity": 40,
                "duration": 0.2,
                "tempo": 120.0
            },
            {
                "start_time": 103.5795455,
                "end_time": 104.7863636,
                "pitch": 66,
                "velocity": 40,
                "duration": 1.2068182,
                "tempo": 120.0
            },
            {
                "start_time": 104.5840909,
                "end_time": 104.7863636,
                "pitch": 66,
                "velocity": 40,
                "duration": 0.2022727,
                "tempo": 120.0
            },
            {
                "start_time": 73.2613636,
                "end_time": 104.7863636,
                "pitch": 78,
                "velocity": 40,
                "duration": 31.525,
                "tempo": 120.0
            },
            {
                "start_time": 104.7863636,
                "end_time": 104.9863636,
                "pitch": 69,
                "velocity": 40,
                "duration": 0.2,
                "tempo": 120.0
            },
            {
                "start_time": 104.3840909,
                "end_time": 105.1863636,
                "pitch": 72,
                "velocity": 40,
                "duration": 0.8022727,
                "tempo": 120.0
            },
            {
                "start_time": 104.9863636,
                "end_time": 105.1863636,
                "pitch": 72,
                "velocity": 40,
                "duration": 0.2,
                "tempo": 120.0
            },
            {
                "start_time": 104.5840909,
                "end_time": 105.3886364,
                "pitch": 57,
                "velocity": 40,
                "duration": 0.8045455,
                "tempo": 120.0
            },
            {
                "start_time": 104.9863636,
                "end_time": 105.3886364,
                "pitch": 69,
                "velocity": 40,
                "duration": 0.4022727,
                "tempo": 120.0
            },
            {
                "start_time": 105.1863636,
                "end_time": 105.3886364,
                "pitch": 69,
                "velocity": 40,
                "duration": 0.2022727,
                "tempo": 120.0
            },
            {
                "start_time": 105.3886364,
                "end_time": 105.5886364,
                "pitch": 66,
                "velocity": 40,
                "duration": 0.2,
                "tempo": 120.0
            },
            {
                "start_time": 104.7863636,
                "end_time": 105.5886364,
                "pitch": 78,
                "velocity": 40,
                "duration": 0.8022727,
                "tempo": 120.0
            },
            {
                "start_time": 105.3886364,
                "end_time": 105.7886364,
                "pitch": 57,
                "velocity": 40,
                "duration": 0.4,
                "tempo": 120.0
            },
            {
                "start_time": 105.5886364,
                "end_time": 105.7886364,
                "pitch": 69,
                "velocity": 40,
                "duration": 0.2,
                "tempo": 120.0
            },
            {
                "start_time": 105.7886364,
                "end_time": 105.9886364,
                "pitch": 66,
                "velocity": 40,
                "duration": 0.2,
                "tempo": 120.0
            },
            {
                "start_time": 105.9886364,
                "end_time": 106.1909091,
                "pitch": 62,
                "velocity": 40,
                "duration": 0.2022727,
                "tempo": 120.0
            },
            {
                "start_time": 106.1909091,
                "end_time": 106.3909091,
                "pitch": 62,
                "velocity": 40,
                "duration": 0.2,
                "tempo": 120.0
            },
            {
                "start_time": 69.0454545,
                "end_time": 106.3909091,
                "pitch": 73,
                "velocity": 40,
                "duration": 37.3454545,
                "tempo": 120.0
            },
            {
                "start_time": 102.7772727,
                "end_time": 106.5931818,
                "pitch": 30,
                "velocity": 40,
                "duration": 3.8159091,
                "tempo": 120.0
            },
            {
                "start_time": 106.3909091,
                "end_time": 106.5931818,
                "pitch": 69,
                "velocity": 40,
                "duration": 0.2022727,
                "tempo": 120.0
            },
            {
                "start_time": 106.5931818,
                "end_time": 106.6568182,
                "pitch": 67,
                "velocity": 40,
                "duration": 0.0636364,
                "tempo": 120.0
            },
            {
                "start_time": 102.9772727,
                "end_time": 106.6568182,
                "pitch": 79,
                "velocity": 40,
                "duration": 3.6795455,
                "tempo": 120.0
            },
            {
                "start_time": 106.6568182,
                "end_time": 106.7931818,
                "pitch": 67,
                "velocity": 40,
                "duration": 0.1363636,
                "tempo": 120.0
            },
            {
                "start_time": 102.375,
                "end_time": 106.9931818,
                "pitch": 64,
                "velocity": 40,
                "duration": 4.6181818,
                "tempo": 120.0
            },
            {
                "start_time": 106.7931818,
                "end_time": 106.9931818,
                "pitch": 64,
                "velocity": 40,
                "duration": 0.2,
                "tempo": 120.0
            },
            {
                "start_time": 106.9931818,
                "end_time": 107.0590909,
                "pitch": 64,
                "velocity": 40,
                "duration": 0.0659091,
                "tempo": 120.0
            },
            {
                "start_time": 105.9886364,
                "end_time": 107.1931818,
                "pitch": 66,
                "velocity": 40,
                "duration": 1.2045455,
                "tempo": 120.0
            },
            {
                "start_time": 107.0590909,
                "end_time": 107.1931818,
                "pitch": 66,
                "velocity": 40,
                "duration": 0.1340909,
                "tempo": 120.0
            },
            {
                "start_time": 107.1931818,
                "end_time": 107.3954545,
                "pitch": 62,
                "velocity": 40,
                "duration": 0.2022727,
                "tempo": 120.0
            },
            {
                "start_time": 104.1818182,
                "end_time": 107.3954545,
                "pitch": 74,
                "velocity": 40,
                "duration": 3.2136364,
                "tempo": 120.0
            },
            {
                "start_time": 105.7886364,
                "end_time": 107.5977273,
                "pitch": 57,
                "velocity": 40,
                "duration": 1.8090909,
                "tempo": 120.0
            },
            {
                "start_time": 107.3954545,
                "end_time": 107.5977273,
                "pitch": 69,
                "velocity": 40,
                "duration": 0.2022727,
                "tempo": 120.0
            },
            {
                "start_time": 107.1931818,
                "end_time": 107.7977273,
                "pitch": 66,
                "velocity": 40,
                "duration": 0.6045455,
                "tempo": 120.0
            },
            {
                "start_time": 107.5977273,
                "end_time": 107.7977273,
                "pitch": 66,
                "velocity": 40,
                "duration": 0.2,
                "tempo": 120.0
            },
            {
                "start_time": 107.7977273,
                "end_time": 107.9977273,
                "pitch": 59,
                "velocity": 40,
                "duration": 0.2,
                "tempo": 120.0
            },
            {
                "start_time": 107.9977273,
                "end_time": 108.1977273,
                "pitch": 64,
                "velocity": 40,
                "duration": 0.2,
                "tempo": 120.0
            },
            {
                "start_time": 108.1977273,
                "end_time": 108.4,
                "pitch": 61,
                "velocity": 40,
                "duration": 0.2022727,
                "tempo": 120.0
            },
            {
                "start_time": 106.3909091,
                "end_time": 108.4,
                "pitch": 73,
                "velocity": 40,
                "duration": 2.0090909,
                "tempo": 120.0
            },
            {
                "start_time": 107.5977273,
                "end_time": 108.6,
                "pitch": 57,
                "velocity": 40,
                "duration": 1.0022727,
                "tempo": 120.0
            },
            {
                "start_time": 108.4,
                "end_time": 108.6,
                "pitch": 69,
                "velocity": 40,
                "duration": 0.2,
                "tempo": 120.0
            },
            {
                "start_time": 107.7977273,
                "end_time": 108.8022727,
                "pitch": 66,
                "velocity": 40,
                "duration": 1.0045455,
                "tempo": 120.0
            },
            {
                "start_time": 108.6,
                "end_time": 108.8022727,
                "pitch": 66,
                "velocity": 40,
                "duration": 0.2022727,
                "tempo": 120.0
            },
            {
                "start_time": 108.8022727,
                "end_time": 109.0022727,
                "pitch": 62,
                "velocity": 40,
                "duration": 0.2,
                "tempo": 120.0
            },
            {
                "start_time": 106.7931818,
                "end_time": 109.0659091,
                "pitch": 67,
                "velocity": 40,
                "duration": 2.2727273,
                "tempo": 120.0
            },
            {
                "start_time": 109.0022727,
                "end_time": 109.0659091,
                "pitch": 67,
                "velocity": 40,
                "duration": 0.0636364,
                "tempo": 120.0
            },
            {
                "start_time": 106.6568182,
                "end_time": 109.0659091,
                "pitch": 79,
                "velocity": 40,
                "duration": 2.4090909,
                "tempo": 120.0
            },
            {
                "start_time": 109.0659091,
                "end_time": 109.2022727,
                "pitch": 67,
                "velocity": 40,
                "duration": 0.1363636,
                "tempo": 120.0
            },
            {
                "start_time": 109.2022727,
                "end_time": 109.4045455,
                "pitch": 61,
                "velocity": 40,
                "duration": 0.2022727,
                "tempo": 120.0
            },
            {
                "start_time": 105.1863636,
                "end_time": 109.6045455,
                "pitch": 72,
                "velocity": 40,
                "duration": 4.4181818,
                "tempo": 120.0
            },
            {
                "start_time": 108.4,
                "end_time": 109.6045455,
                "pitch": 73,
                "velocity": 40,
                "duration": 1.2045455,
                "tempo": 120.0
            },
            {
                "start_time": 109.4045455,
                "end_time": 109.6045455,
                "pitch": 73,
                "velocity": 40,
                "duration": 0.2,
                "tempo": 120.0
            },
            {
                "start_time": 108.6,
                "end_time": 109.8045455,
                "pitch": 57,
                "velocity": 40,
                "duration": 1.2045455,
                "tempo": 120.0
            },
            {
                "start_time": 109.6045455,
                "end_time": 109.8045455,
                "pitch": 69,
                "velocity": 40,
                "duration": 0.2,
                "tempo": 120.0
            },
            {
                "start_time": 108.8022727,
                "end_time": 110.0045455,
                "pitch": 66,
                "velocity": 40,
                "duration": 1.2022727,
                "tempo": 120.0
            },
            {
                "start_time": 109.8045455,
                "end_time": 110.0045455,
                "pitch": 66,
                "velocity": 40,
                "duration": 0.2,
                "tempo": 120.0
            },
            {
                "start_time": 110.0045455,
                "end_time": 110.2068182,
                "pitch": 62,
                "velocity": 40,
                "duration": 0.2022727,
                "tempo": 120.0
            },
            {
                "start_time": 110.2068182,
                "end_time": 110.4068182,
                "pitch": 62,
                "velocity": 40,
                "duration": 0.2,
                "tempo": 120.0
            },
            {
                "start_time": 108.1977273,
                "end_time": 110.6090909,
                "pitch": 64,
                "velocity": 40,
                "duration": 2.4113636,
                "tempo": 120.0
            },
            {
                "start_time": 110.4068182,
                "end_time": 110.6090909,
                "pitch": 64,
                "velocity": 40,
                "duration": 0.2022727,
                "tempo": 120.0
            },
            {
                "start_time": 100.1659091,
                "end_time": 110.6090909,
                "pitch": 76,
                "velocity": 40,
                "duration": 10.4431818,
                "tempo": 120.0
            },
            {
                "start_time": 109.6045455,
                "end_time": 110.8113636,
                "pitch": 72,
                "velocity": 40,
                "duration": 1.2068182,
                "tempo": 120.0
            },
            {
                "start_time": 110.6090909,
                "end_time": 110.8113636,
                "pitch": 72,
                "velocity": 40,
                "duration": 0.2022727,
                "tempo": 120.0
            },
            {
                "start_time": 106.5931818,
                "end_time": 111.0113636,
                "pitch": 30,
                "velocity": 40,
                "duration": 4.4181818,
                "tempo": 120.0
            },
            {
                "start_time": 110.8113636,
                "end_time": 111.0113636,
                "pitch": 69,
                "velocity": 40,
                "duration": 0.2,
                "tempo": 120.0
            },
            {
                "start_time": 109.2022727,
                "end_time": 111.075,
                "pitch": 67,
                "velocity": 40,
                "duration": 1.8727273,
                "tempo": 120.0
            },
            {
                "start_time": 111.0113636,
                "end_time": 111.075,
                "pitch": 67,
                "velocity": 40,
                "duration": 0.0636364,
                "tempo": 120.0
            },
            {
                "start_time": 109.0659091,
                "end_time": 111.075,
                "pitch": 79,
                "velocity": 40,
                "duration": 2.0090909,
                "tempo": 120.0
            },
            {
                "start_time": 111.075,
                "end_time": 111.2113636,
                "pitch": 67,
                "velocity": 40,
                "duration": 0.1363636,
                "tempo": 120.0
            },
            {
                "start_time": 111.075,
                "end_time": 111.2113636,
                "pitch": 79,
                "velocity": 40,
                "duration": 0.1363636,
                "tempo": 120.0
            },
            {
                "start_time": 84.7068182,
                "end_time": 111.4113636,
                "pitch": 43,
                "velocity": 40,
                "duration": 26.7045455,
                "tempo": 120.0
            },
            {
                "start_time": 74.6681818,
                "end_time": 111.4113636,
                "pitch": 71,
                "velocity": 40,
                "duration": 36.7431818,
                "tempo": 120.0
            },
            {
                "start_time": 111.2113636,
                "end_time": 111.4113636,
                "pitch": 71,
                "velocity": 40,
                "duration": 0.2,
                "tempo": 120.0
            },
            {
                "start_time": 111.4113636,
                "end_time": 111.4772727,
                "pitch": 67,
                "velocity": 40,
                "duration": 0.0659091,
                "tempo": 120.0
            },
            {
                "start_time": 111.2113636,
                "end_time": 111.4772727,
                "pitch": 79,
                "velocity": 40,
                "duration": 0.2659091,
                "tempo": 120.0
            },
            {
                "start_time": 111.4772727,
                "end_time": 111.6136364,
                "pitch": 67,
                "velocity": 40,
                "duration": 0.1363636,
                "tempo": 120.0
            },
            {
                "start_time": 111.6136364,
                "end_time": 111.8136364,
                "pitch": 64,
                "velocity": 40,
                "duration": 0.2,
                "tempo": 120.0
            },
            {
                "start_time": 111.8136364,
                "end_time": 111.8772727,
                "pitch": 64,
                "velocity": 40,
                "duration": 0.0636364,
                "tempo": 120.0
            },
            {
                "start_time": 110.0045455,
                "end_time": 112.0136364,
                "pitch": 66,
                "velocity": 40,
                "duration": 2.0090909,
                "tempo": 120.0
            },
            {
                "start_time": 111.8772727,
                "end_time": 112.0136364,
                "pitch": 66,
                "velocity": 40,
                "duration": 0.1363636,
                "tempo": 120.0
            },
            {
                "start_time": 105.5886364,
                "end_time": 112.0136364,
                "pitch": 78,
                "velocity": 40,
                "duration": 6.425,
                "tempo": 120.0
            },
            {
                "start_time": 109.8045455,
                "end_time": 112.2136364,
                "pitch": 57,
                "velocity": 40,
                "duration": 2.4090909,
                "tempo": 120.0
            },
            {
                "start_time": 112.0136364,
                "end_time": 112.2136364,
                "pitch": 69,
                "velocity": 40,
                "duration": 0.2,
                "tempo": 120.0
            },
            {
                "start_time": 112.2136364,
                "end_time": 112.4159091,
                "pitch": 66,
                "velocity": 40,
                "duration": 0.2022727,
                "tempo": 120.0
            },
            {
                "start_time": 109.0022727,
                "end_time": 112.6181818,
                "pitch": 55,
                "velocity": 40,
                "duration": 3.6159091,
                "tempo": 120.0
            },
            {
                "start_time": 112.4159091,
                "end_time": 112.6181818,
                "pitch": 62,
                "velocity": 40,
                "duration": 0.2022727,
                "tempo": 120.0
            },
            {
                "start_time": 111.6136364,
                "end_time": 112.6818182,
                "pitch": 67,
                "velocity": 40,
                "duration": 1.0681818,
                "tempo": 120.0
            },
            {
                "start_time": 112.6181818,
                "end_time": 112.6818182,
                "pitch": 67,
                "velocity": 40,
                "duration": 0.0636364,
                "tempo": 120.0
            },
            {
                "start_time": 111.4772727,
                "end_time": 112.6818182,
                "pitch": 79,
                "velocity": 40,
                "duration": 1.2045455,
                "tempo": 120.0
            },
            {
                "start_time": 112.6818182,
                "end_time": 112.8181818,
                "pitch": 67,
                "velocity": 40,
                "duration": 0.1363636,
                "tempo": 120.0
            },
            {
                "start_time": 112.8181818,
                "end_time": 113.0181818,
                "pitch": 64,
                "velocity": 40,
                "duration": 0.2,
                "tempo": 120.0
            },
            {
                "start_time": 110.6090909,
                "end_time": 113.0181818,
                "pitch": 76,
                "velocity": 40,
                "duration": 2.4090909,
                "tempo": 120.0
            },
            {
                "start_time": 111.4113636,
                "end_time": 113.2181818,
                "pitch": 43,
                "velocity": 40,
                "duration": 1.8068182,
                "tempo": 120.0
            },
            {
                "start_time": 113.0181818,
                "end_time": 113.2181818,
                "pitch": 71,
                "velocity": 40,
                "duration": 0.2,
                "tempo": 120.0
            },
            {
                "start_time": 112.8181818,
                "end_time": 113.2818182,
                "pitch": 67,
                "velocity": 40,
                "duration": 0.4636364,
                "tempo": 120.0
            },
            {
                "start_time": 113.2181818,
                "end_time": 113.2818182,
                "pitch": 67,
                "velocity": 40,
                "duration": 0.0636364,
                "tempo": 120.0
            },
            {
                "start_time": 112.6818182,
                "end_time": 113.2840909,
                "pitch": 79,
                "velocity": 40,
                "duration": 0.6022727,
                "tempo": 120.0
            },
            {
                "start_time": 113.2818182,
                "end_time": 113.2840909,
                "pitch": 79,
                "velocity": 40,
                "duration": 0.0022727,
                "tempo": 120.0
            },
            {
                "start_time": 113.2840909,
                "end_time": 113.4204545,
                "pitch": 67,
                "velocity": 40,
                "duration": 0.1363636,
                "tempo": 120.0
            },
            {
                "start_time": 113.4204545,
                "end_time": 113.6204545,
                "pitch": 64,
                "velocity": 40,
                "duration": 0.2,
                "tempo": 120.0
            },
            {
                "start_time": 113.0181818,
                "end_time": 113.6204545,
                "pitch": 76,
                "velocity": 40,
                "duration": 0.6022727,
                "tempo": 120.0
            },
            {
                "start_time": 112.2136364,
                "end_time": 113.8204545,
                "pitch": 57,
                "velocity": 40,
                "duration": 1.6068182,
                "tempo": 120.0
            },
            {
                "start_time": 113.6204545,
                "end_time": 113.8204545,
                "pitch": 69,
                "velocity": 40,
                "duration": 0.2,
                "tempo": 120.0
            },
            {
                "start_time": 112.4159091,
                "end_time": 114.0204545,
                "pitch": 66,
                "velocity": 40,
                "duration": 1.6045455,
                "tempo": 120.0
            },
            {
                "start_time": 113.8204545,
                "end_time": 114.0204545,
                "pitch": 66,
                "velocity": 40,
                "duration": 0.2,
                "tempo": 120.0
            },
            {
                "start_time": 114.0204545,
                "end_time": 114.2204545,
                "pitch": 62,
                "velocity": 40,
                "duration": 0.2,
                "tempo": 120.0
            },
            {
                "start_time": 98.9613636,
                "end_time": 114.4227273,
                "pitch": 60,
                "velocity": 40,
                "duration": 15.4613636,
                "tempo": 120.0
            },
            {
                "start_time": 114.2204545,
                "end_time": 114.4227273,
                "pitch": 64,
                "velocity": 40,
                "duration": 0.2022727,
                "tempo": 120.0
            },
            {
                "start_time": 113.4204545,
                "end_time": 114.4886364,
                "pitch": 67,
                "velocity": 40,
                "duration": 1.0681818,
                "tempo": 120.0
            },
            {
                "start_time": 114.4227273,
                "end_time": 114.4886364,
                "pitch": 67,
                "velocity": 40,
                "duration": 0.0659091,
                "tempo": 120.0
            },
            {
                "start_time": 114.4886364,
                "end_time": 114.625,
                "pitch": 67,
                "velocity": 40,
                "duration": 0.1363636,
                "tempo": 120.0
            },
            {
                "start_time": 114.625,
                "end_time": 114.825,
                "pitch": 64,
                "velocity": 40,
                "duration": 0.2,
                "tempo": 120.0
            },
            {
                "start_time": 110.4068182,
                "end_time": 115.025,
                "pitch": 61,
                "velocity": 40,
                "duration": 4.6181818,
                "tempo": 120.0
            },
            {
                "start_time": 114.825,
                "end_time": 115.025,
                "pitch": 61,
                "velocity": 40,
                "duration": 0.2,
                "tempo": 120.0
            },
            {
                "start_time": 115.025,
                "end_time": 115.8227273,
                "pitch": 61,
                "velocity": 40,
                "duration": 0.7977273,
                "tempo": 120.0
            },
            {
                "start_time": 114.2204545,
                "end_time": 116.0272727,
                "pitch": 62,
                "velocity": 40,
                "duration": 1.8068182,
                "tempo": 120.0
            },
            {
                "start_time": 115.8227273,
                "end_time": 116.0272727,
                "pitch": 62,
                "velocity": 40,
                "duration": 0.2045455,
                "tempo": 120.0
            },
            {
                "start_time": 116.0272727,
                "end_time": 116.2227273,
                "pitch": 61,
                "velocity": 40,
                "duration": 0.1954545,
                "tempo": 120.0
            },
            {
                "start_time": 114.825,
                "end_time": 116.625,
                "pitch": 64,
                "velocity": 40,
                "duration": 1.8,
                "tempo": 120.0
            },
            {
                "start_time": 116.2227273,
                "end_time": 116.625,
                "pitch": 64,
                "velocity": 40,
                "duration": 0.4022727,
                "tempo": 120.0
            },
            {
                "start_time": 116.625,
                "end_time": 116.8295455,
                "pitch": 61,
                "velocity": 40,
                "duration": 0.2045455,
                "tempo": 120.0
            },
            {
                "start_time": 85.7090909,
                "end_time": 117.4318182,
                "pitch": 45,
                "velocity": 40,
                "duration": 31.7227273,
                "tempo": 120.0
            },
            {
                "start_time": 113.8204545,
                "end_time": 117.4318182,
                "pitch": 57,
                "velocity": 40,
                "duration": 3.6113636,
                "tempo": 120.0
            },
            {
                "start_time": 116.8295455,
                "end_time": 117.4318182,
                "pitch": 57,
                "velocity": 40,
                "duration": 0.6022727,
                "tempo": 120.0
            },
            {
                "start_time": 117.4318182,
                "end_time": 117.6340909,
                "pitch": 54,
                "velocity": 40,
                "duration": 0.2022727,
                "tempo": 120.0
            },
            {
                "start_time": 117.6340909,
                "end_time": 117.6977273,
                "pitch": 53,
                "velocity": 40,
                "duration": 0.0636364,
                "tempo": 120.0
            },
            {
                "start_time": 114.625,
                "end_time": 117.7,
                "pitch": 67,
                "velocity": 40,
                "duration": 3.075,
                "tempo": 120.0
            },
            {
                "start_time": 117.6977273,
                "end_time": 117.7,
                "pitch": 67,
                "velocity": 40,
                "duration": 0.0022727,
                "tempo": 120.0
            },
            {
                "start_time": 101.5022727,
                "end_time": 117.7659091,
                "pitch": 0,
                "velocity": 40,
                "duration": 16.2636364,
                "tempo": 120.0
            },
            {
                "start_time": 112.6181818,
                "end_time": 117.7659091,
                "pitch": 55,
                "velocity": 40,
                "duration": 5.1477273,
                "tempo": 120.0
            },
            {
                "start_time": 117.7,
                "end_time": 117.7659091,
                "pitch": 55,
                "velocity": 40,
                "duration": 0.0659091,
                "tempo": 120.0
            },
            {
                "start_time": 117.7659091,
                "end_time": 117.8340909,
                "pitch": 55,
                "velocity": 40,
                "duration": 0.0681818,
                "tempo": 120.0
            },
            {
                "start_time": 107.9977273,
                "end_time": 118.2363636,
                "pitch": 59,
                "velocity": 40,
                "duration": 10.2386364,
                "tempo": 120.0
            },
            {
                "start_time": 117.8340909,
                "end_time": 118.2363636,
                "pitch": 59,
                "velocity": 40,
                "duration": 0.4022727,
                "tempo": 120.0
            },
            {
                "start_time": 117.4318182,
                "end_time": 118.4363636,
                "pitch": 45,
                "velocity": 40,
                "duration": 1.0045455,
                "tempo": 120.0
            },
            {
                "start_time": 118.2363636,
                "end_time": 118.4363636,
                "pitch": 57,
                "velocity": 40,
                "duration": 0.2,
                "tempo": 120.0
            },
            {
                "start_time": 118.4363636,
                "end_time": 119.0340909,
                "pitch": 54,
                "velocity": 40,
                "duration": 0.5977273,
                "tempo": 120.0
            },
            {
                "start_time": 96.7522727,
                "end_time": 119.2409091,
                "pitch": 65,
                "velocity": 40,
                "duration": 22.4886364,
                "tempo": 120.0
            },
            {
                "start_time": 114.0204545,
                "end_time": 119.2409091,
                "pitch": 66,
                "velocity": 40,
                "duration": 5.2204545,
                "tempo": 120.0
            },
            {
                "start_time": 119.0340909,
                "end_time": 119.2409091,
                "pitch": 66,
                "velocity": 40,
                "duration": 0.2068182,
                "tempo": 120.0
            },
            {
                "start_time": 117.8340909,
                "end_time": 119.3045455,
                "pitch": 67,
                "velocity": 40,
                "duration": 1.4704545,
                "tempo": 120.0
            },
            {
                "start_time": 119.2409091,
                "end_time": 119.3045455,
                "pitch": 67,
                "velocity": 40,
                "duration": 0.0636364,
                "tempo": 120.0
            },
            {
                "start_time": 114.4886364,
                "end_time": 119.3045455,
                "pitch": 79,
                "velocity": 40,
                "duration": 4.8159091,
                "tempo": 120.0
            },
            {
                "start_time": 119.3045455,
                "end_time": 119.4409091,
                "pitch": 67,
                "velocity": 40,
                "duration": 0.1363636,
                "tempo": 120.0
            },
            {
                "start_time": 119.3045455,
                "end_time": 119.4409091,
                "pitch": 79,
                "velocity": 40,
                "duration": 0.1363636,
                "tempo": 120.0
            },
            {
                "start_time": 119.4409091,
                "end_time": 119.8431818,
                "pitch": 69,
                "velocity": 40,
                "duration": 0.4022727,
                "tempo": 120.0
            },
            {
                "start_time": 119.8431818,
                "end_time": 120.0431818,
                "pitch": 69,
                "velocity": 40,
                "duration": 0.2,
                "tempo": 120.0
            },
            {
                "start_time": 120.0431818,
                "end_time": 120.1068182,
                "pitch": 69,
                "velocity": 40,
                "duration": 0.0636364,
                "tempo": 120.0
            },
            {
                "start_time": 120.1068182,
                "end_time": 120.2431818,
                "pitch": 71,
                "velocity": 40,
                "duration": 0.1363636,
                "tempo": 120.0
            },
            {
                "start_time": 120.2431818,
                "end_time": 120.6477273,
                "pitch": 73,
                "velocity": 40,
                "duration": 0.4045455,
                "tempo": 120.0
            },
            {
                "start_time": 120.6477273,
                "end_time": 120.8477273,
                "pitch": 73,
                "velocity": 40,
                "duration": 0.2,
                "tempo": 120.0
            },
            {
                "start_time": 107.3954545,
                "end_time": 121.0477273,
                "pitch": 74,
                "velocity": 40,
                "duration": 13.6522727,
                "tempo": 120.0
            },
            {
                "start_time": 120.8477273,
                "end_time": 121.0477273,
                "pitch": 74,
                "velocity": 40,
                "duration": 0.2,
                "tempo": 120.0
            },
            {
                "start_time": 121.0477273,
                "end_time": 121.2477273,
                "pitch": 69,
                "velocity": 40,
                "duration": 0.2,
                "tempo": 120.0
            },
            {
                "start_time": 121.2477273,
                "end_time": 121.3136364,
                "pitch": 69,
                "velocity": 40,
                "duration": 0.0659091,
                "tempo": 120.0
            },
            {
                "start_time": 113.2181818,
                "end_time": 121.4477273,
                "pitch": 43,
                "velocity": 40,
                "duration": 8.2295455,
                "tempo": 120.0
            },
            {
                "start_time": 120.2431818,
                "end_time": 121.4477273,
                "pitch": 71,
                "velocity": 40,
                "duration": 1.2045455,
                "tempo": 120.0
            },
            {
                "start_time": 121.3136364,
                "end_time": 121.4477273,
                "pitch": 71,
                "velocity": 40,
                "duration": 0.1340909,
                "tempo": 120.0
            },
            {
                "start_time": 121.4477273,
                "end_time": 121.5136364,
                "pitch": 67,
                "velocity": 40,
                "duration": 0.0659091,
                "tempo": 120.0
            },
            {
                "start_time": 119.4409091,
                "end_time": 121.5136364,
                "pitch": 79,
                "velocity": 40,
                "duration": 2.0727273,
                "tempo": 120.0
            },
            {
                "start_time": 121.5136364,
                "end_time": 121.6477273,
                "pitch": 67,
                "velocity": 40,
                "duration": 0.1340909,
                "tempo": 120.0
            },
            {
                "start_time": 121.5136364,
                "end_time": 121.6477273,
                "pitch": 79,
                "velocity": 40,
                "duration": 0.1340909,
                "tempo": 120.0
            },
            {
                "start_time": 121.6477273,
                "end_time": 121.7795455,
                "pitch": 67,
                "velocity": 40,
                "duration": 0.1318182,
                "tempo": 120.0
            },
            {
                "start_time": 121.6477273,
                "end_time": 121.7795455,
                "pitch": 79,
                "velocity": 40,
                "duration": 0.1318182,
                "tempo": 120.0
            },
            {
                "start_time": 121.7795455,
                "end_time": 121.9090909,
                "pitch": 67,
                "velocity": 40,
                "duration": 0.1295455,
                "tempo": 120.0
            },
            {
                "start_time": 121.7795455,
                "end_time": 121.9090909,
                "pitch": 79,
                "velocity": 40,
                "duration": 0.1295455,
                "tempo": 120.0
            },
            {
                "start_time": 121.9090909,
                "end_time": 122.0431818,
                "pitch": 67,
                "velocity": 40,
                "duration": 0.1340909,
                "tempo": 120.0
            },
            {
                "start_time": 121.9090909,
                "end_time": 122.0431818,
                "pitch": 79,
                "velocity": 40,
                "duration": 0.1340909,
                "tempo": 120.0
            },
            {
                "start_time": 122.0431818,
                "end_time": 122.1772727,
                "pitch": 67,
                "velocity": 40,
                "duration": 0.1340909,
                "tempo": 120.0
            },
            {
                "start_time": 122.0431818,
                "end_time": 122.1772727,
                "pitch": 79,
                "velocity": 40,
                "duration": 0.1340909,
                "tempo": 120.0
            },
            {
                "start_time": 122.1772727,
                "end_time": 122.2477273,
                "pitch": 67,
                "velocity": 40,
                "duration": 0.0704545,
                "tempo": 120.0
            },
            {
                "start_time": 116.8295455,
                "end_time": 122.4545455,
                "pitch": 61,
                "velocity": 40,
                "duration": 5.625,
                "tempo": 120.0
            },
            {
                "start_time": 122.2477273,
                "end_time": 122.4545455,
                "pitch": 61,
                "velocity": 40,
                "duration": 0.2068182,
                "tempo": 120.0
            },
            {
                "start_time": 122.4545455,
                "end_time": 122.6545455,
                "pitch": 61,
                "velocity": 40,
                "duration": 0.2,
                "tempo": 120.0
            },
            {
                "start_time": 116.2227273,
                "end_time": 122.6545455,
                "pitch": 62,
                "velocity": 40,
                "duration": 6.4318182,
                "tempo": 120.0
            },
            {
                "start_time": 116.625,
                "end_time": 123.0568182,
                "pitch": 64,
                "velocity": 40,
                "duration": 6.4318182,
                "tempo": 120.0
            },
            {
                "start_time": 122.6545455,
                "end_time": 123.0568182,
                "pitch": 64,
                "velocity": 40,
                "duration": 0.4022727,
                "tempo": 120.0
            },
            {
                "start_time": 123.0568182,
                "end_time": 123.2545455,
                "pitch": 61,
                "velocity": 40,
                "duration": 0.1977273,
                "tempo": 120.0
            },
            {
                "start_time": 123.2545455,
                "end_time": 123.8590909,
                "pitch": 57,
                "velocity": 40,
                "duration": 0.6045455,
                "tempo": 120.0
            },
            {
                "start_time": 123.8590909,
                "end_time": 124.0590909,
                "pitch": 57,
                "velocity": 40,
                "duration": 0.2,
                "tempo": 120.0
            },
            {
                "start_time": 81.6954545,
                "end_time": 124.2590909,
                "pitch": 56,
                "velocity": 40,
                "duration": 42.5636364,
                "tempo": 120.0
            },
            {
                "start_time": 124.0590909,
                "end_time": 124.2590909,
                "pitch": 56,
                "velocity": 40,
                "duration": 0.2,
                "tempo": 120.0
            },
            {
                "start_time": 124.2590909,
                "end_time": 124.325,
                "pitch": 57,
                "velocity": 40,
                "duration": 0.0659091,
                "tempo": 120.0
            },
            {
                "start_time": 118.2363636,
                "end_time": 124.6636364,
                "pitch": 59,
                "velocity": 40,
                "duration": 6.4272727,
                "tempo": 120.0
            },
            {
                "start_time": 124.325,
                "end_time": 124.6636364,
                "pitch": 59,
                "velocity": 40,
                "duration": 0.3386364,
                "tempo": 120.0
            },
            {
                "start_time": 124.6636364,
                "end_time": 124.8636364,
                "pitch": 57,
                "velocity": 40,
                "duration": 0.2,
                "tempo": 120.0
            },
            {
                "start_time": 124.8636364,
                "end_time": 125.4659091,
                "pitch": 57,
                "velocity": 40,
                "duration": 0.6022727,
                "tempo": 120.0
            },
            {
                "start_time": 122.6545455,
                "end_time": 125.6659091,
                "pitch": 62,
                "velocity": 40,
                "duration": 3.0113636,
                "tempo": 120.0
            },
            {
                "start_time": 125.4659091,
                "end_time": 125.6659091,
                "pitch": 62,
                "velocity": 40,
                "duration": 0.2,
                "tempo": 120.0
            },
            {
                "start_time": 125.6659091,
                "end_time": 125.8659091,
                "pitch": 74,
                "velocity": 40,
                "duration": 0.2,
                "tempo": 120.0
            },
            {
                "start_time": 121.4477273,
                "end_time": 126.0659091,
                "pitch": 43,
                "velocity": 40,
                "duration": 4.6181818,
                "tempo": 120.0
            },
            {
                "start_time": 125.8659091,
                "end_time": 126.0659091,
                "pitch": 71,
                "velocity": 40,
                "duration": 0.2,
                "tempo": 120.0
            },
            {
                "start_time": 126.0659091,
                "end_time": 126.1318182,
                "pitch": 67,
                "velocity": 40,
                "duration": 0.0659091,
                "tempo": 120.0
            },
            {
                "start_time": 122.1772727,
                "end_time": 126.1318182,
                "pitch": 79,
                "velocity": 40,
                "duration": 3.9545455,
                "tempo": 120.0
            },
            {
                "start_time": 126.1318182,
                "end_time": 126.2681818,
                "pitch": 67,
                "velocity": 40,
                "duration": 0.1363636,
                "tempo": 120.0
            },
            {
                "start_time": 126.2681818,
                "end_time": 126.4704545,
                "pitch": 67,
                "velocity": 40,
                "duration": 0.2022727,
                "tempo": 120.0
            },
            {
                "start_time": 112.0136364,
                "end_time": 126.4704545,
                "pitch": 78,
                "velocity": 40,
                "duration": 14.4568182,
                "tempo": 120.0
            },
            {
                "start_time": 126.4704545,
                "end_time": 126.6704545,
                "pitch": 69,
                "velocity": 40,
                "duration": 0.2,
                "tempo": 120.0
            },
            {
                "start_time": 110.8113636,
                "end_time": 126.8727273,
                "pitch": 72,
                "velocity": 40,
                "duration": 16.0613636,
                "tempo": 120.0
            },
            {
                "start_time": 126.6704545,
                "end_time": 126.8727273,
                "pitch": 72,
                "velocity": 40,
                "duration": 0.2022727,
                "tempo": 120.0
            },
            {
                "start_time": 126.6704545,
                "end_time": 127.0704545,
                "pitch": 69,
                "velocity": 40,
                "duration": 0.4,
                "tempo": 120.0
            },
            {
                "start_time": 126.8727273,
                "end_time": 127.0704545,
                "pitch": 69,
                "velocity": 40,
                "duration": 0.1977273,
                "tempo": 120.0
            },
            {
                "start_time": 127.0704545,
                "end_time": 127.4727273,
                "pitch": 66,
                "velocity": 40,
                "duration": 0.4022727,
                "tempo": 120.0
            },
            {
                "start_time": 126.4704545,
                "end_time": 127.4727273,
                "pitch": 78,
                "velocity": 40,
                "duration": 1.0022727,
                "tempo": 120.0
            },
            {
                "start_time": 127.4727273,
                "end_time": 127.8727273,
                "pitch": 71,
                "velocity": 40,
                "duration": 0.4,
                "tempo": 120.0
            },
            {
                "start_time": 127.8727273,
                "end_time": 127.9386364,
                "pitch": 67,
                "velocity": 40,
                "duration": 0.0659091,
                "tempo": 120.0
            },
            {
                "start_time": 126.1318182,
                "end_time": 127.9386364,
                "pitch": 79,
                "velocity": 40,
                "duration": 1.8068182,
                "tempo": 120.0
            },
            {
                "start_time": 127.9386364,
                "end_time": 128.0727273,
                "pitch": 67,
                "velocity": 40,
                "duration": 0.1340909,
                "tempo": 120.0
            },
            {
                "start_time": 127.9386364,
                "end_time": 128.0727273,
                "pitch": 79,
                "velocity": 40,
                "duration": 0.1340909,
                "tempo": 120.0
            },
            {
                "start_time": 128.0727273,
                "end_time": 128.2022727,
                "pitch": 67,
                "velocity": 40,
                "duration": 0.1295455,
                "tempo": 120.0
            },
            {
                "start_time": 128.0727273,
                "end_time": 128.2022727,
                "pitch": 79,
                "velocity": 40,
                "duration": 0.1295455,
                "tempo": 120.0
            },
            {
                "start_time": 128.2022727,
                "end_time": 128.3340909,
                "pitch": 67,
                "velocity": 40,
                "duration": 0.1318182,
                "tempo": 120.0
            },
            {
                "start_time": 128.2022727,
                "end_time": 128.3340909,
                "pitch": 79,
                "velocity": 40,
                "duration": 0.1318182,
                "tempo": 120.0
            },
            {
                "start_time": 128.3340909,
                "end_time": 128.4681818,
                "pitch": 67,
                "velocity": 40,
                "duration": 0.1340909,
                "tempo": 120.0
            },
            {
                "start_time": 128.3340909,
                "end_time": 128.4681818,
                "pitch": 79,
                "velocity": 40,
                "duration": 0.1340909,
                "tempo": 120.0
            },
            {
                "start_time": 128.4681818,
                "end_time": 128.6022727,
                "pitch": 67,
                "velocity": 40,
                "duration": 0.1340909,
                "tempo": 120.0
            },
            {
                "start_time": 128.4681818,
                "end_time": 128.6022727,
                "pitch": 79,
                "velocity": 40,
                "duration": 0.1340909,
                "tempo": 120.0
            },
            {
                "start_time": 128.6022727,
                "end_time": 128.6704545,
                "pitch": 67,
                "velocity": 40,
                "duration": 0.0681818,
                "tempo": 120.0
            },
            {
                "start_time": 121.0477273,
                "end_time": 128.6727273,
                "pitch": 73,
                "velocity": 40,
                "duration": 7.625,
                "tempo": 120.0
            },
            {
                "start_time": 128.6704545,
                "end_time": 128.6727273,
                "pitch": 73,
                "velocity": 40,
                "duration": 0.0022727,
                "tempo": 120.0
            }
        ],
        "Violin": [
            {
                "start_time": 0.0386364,
                "end_time": 0.2386364,
                "pitch": 69,
                "velocity": 64,
                "duration": 0.2,
                "tempo": 120.0
            },
            {
                "start_time": 0.2386364,
                "end_time": 0.8409091,
                "pitch": 69,
                "velocity": 64,
                "duration": 0.6022727,
                "tempo": 120.0
            },
            {
                "start_time": 1.0477273,
                "end_time": 1.2522727,
                "pitch": 73,
                "velocity": 64,
                "duration": 0.2045455,
                "tempo": 120.0
            },
            {
                "start_time": 1.0477273,
                "end_time": 1.4522727,
                "pitch": 69,
                "velocity": 64,
                "duration": 0.4045455,
                "tempo": 120.0
            },
            {
                "start_time": 1.2522727,
                "end_time": 1.4522727,
                "pitch": 69,
                "velocity": 64,
                "duration": 0.2,
                "tempo": 120.0
            },
            {
                "start_time": 1.4522727,
                "end_time": 1.6522727,
                "pitch": 66,
                "velocity": 64,
                "duration": 0.2,
                "tempo": 120.0
            },
            {
                "start_time": 1.2522727,
                "end_time": 2.0636364,
                "pitch": 73,
                "velocity": 64,
                "duration": 0.8113636,
                "tempo": 120.0
            },
            {
                "start_time": 1.6545455,
                "end_time": 2.0636364,
                "pitch": 73,
                "velocity": 64,
                "duration": 0.4090909,
                "tempo": 120.0
            },
            {
                "start_time": 2.0636364,
                "end_time": 2.4545455,
                "pitch": 71,
                "velocity": 64,
                "duration": 0.3909091,
                "tempo": 120.0
            },
            {
                "start_time": 2.4545455,
                "end_time": 2.8568182,
                "pitch": 71,
                "velocity": 64,
                "duration": 0.4022727,
                "tempo": 120.0
            },
            {
                "start_time": 2.8568182,
                "end_time": 3.2545455,
                "pitch": 74,
                "velocity": 64,
                "duration": 0.3977273,
                "tempo": 120.0
            },
            {
                "start_time": 3.2545455,
                "end_time": 3.6568182,
                "pitch": 74,
                "velocity": 64,
                "duration": 0.4022727,
                "tempo": 120.0
            },
            {
                "start_time": 3.6568182,
                "end_time": 4.0568182,
                "pitch": 71,
                "velocity": 64,
                "duration": 0.4,
                "tempo": 120.0
            },
            {
                "start_time": 4.0568182,
                "end_time": 4.4568182,
                "pitch": 68,
                "velocity": 64,
                "duration": 0.4,
                "tempo": 120.0
            },
            {
                "start_time": 4.0568182,
                "end_time": 4.8613636,
                "pitch": 71,
                "velocity": 64,
                "duration": 0.8045455,
                "tempo": 120.0
            },
            {
                "start_time": 4.4568182,
                "end_time": 4.8613636,
                "pitch": 71,
                "velocity": 64,
                "duration": 0.4045455,
                "tempo": 120.0
            },
            {
                "start_time": 4.8613636,
                "end_time": 5.2613636,
                "pitch": 71,
                "velocity": 64,
                "duration": 0.4,
                "tempo": 120.0
            },
            {
                "start_time": 4.4568182,
                "end_time": 5.6636364,
                "pitch": 68,
                "velocity": 64,
                "duration": 1.2068182,
                "tempo": 120.0
            },
            {
                "start_time": 5.2613636,
                "end_time": 5.6636364,
                "pitch": 68,
                "velocity": 64,
                "duration": 0.4022727,
                "tempo": 120.0
            },
            {
                "start_time": 5.6636364,
                "end_time": 6.4545455,
                "pitch": 76,
                "velocity": 64,
                "duration": 0.7909091,
                "tempo": 120.0
            },
            {
                "start_time": 2.0636364,
                "end_time": 7.2568182,
                "pitch": 73,
                "velocity": 64,
                "duration": 5.1931818,
                "tempo": 120.0
            },
            {
                "start_time": 6.4545455,
                "end_time": 7.2568182,
                "pitch": 73,
                "velocity": 64,
                "duration": 0.8022727,
                "tempo": 120.0
            },
            {
                "start_time": 7.4636364,
                "end_time": 7.6704545,
                "pitch": 73,
                "velocity": 64,
                "duration": 0.2068182,
                "tempo": 120.0
            },
            {
                "start_time": 2.8568182,
                "end_time": 7.8704545,
                "pitch": 69,
                "velocity": 64,
                "duration": 5.0136364,
                "tempo": 120.0
            },
            {
                "start_time": 7.6704545,
                "end_time": 7.8704545,
                "pitch": 69,
                "velocity": 64,
                "duration": 0.2,
                "tempo": 120.0
            },
            {
                "start_time": 7.6704545,
                "end_time": 8.0704545,
                "pitch": 73,
                "velocity": 64,
                "duration": 0.4,
                "tempo": 120.0
            },
            {
                "start_time": 7.8704545,
                "end_time": 8.0704545,
                "pitch": 73,
                "velocity": 64,
                "duration": 0.2,
                "tempo": 120.0
            },
            {
                "start_time": 6.4545455,
                "end_time": 8.4681818,
                "pitch": 76,
                "velocity": 64,
                "duration": 2.0136364,
                "tempo": 120.0
            },
            {
                "start_time": 8.0704545,
                "end_time": 8.4681818,
                "pitch": 76,
                "velocity": 64,
                "duration": 0.3977273,
                "tempo": 120.0
            },
            {
                "start_time": 8.0704545,
                "end_time": 8.8704545,
                "pitch": 73,
                "velocity": 64,
                "duration": 0.8,
                "tempo": 120.0
            },
            {
                "start_time": 8.4681818,
                "end_time": 8.8704545,
                "pitch": 73,
                "velocity": 64,
                "duration": 0.4022727,
                "tempo": 120.0
            },
            {
                "start_time": 8.8704545,
                "end_time": 9.275,
                "pitch": 73,
                "velocity": 64,
                "duration": 0.4045455,
                "tempo": 120.0
            },
            {
                "start_time": 7.8704545,
                "end_time": 9.6772727,
                "pitch": 69,
                "velocity": 64,
                "duration": 1.8068182,
                "tempo": 120.0
            },
            {
                "start_time": 9.275,
                "end_time": 9.6772727,
                "pitch": 69,
                "velocity": 64,
                "duration": 0.4022727,
                "tempo": 120.0
            },
            {
                "start_time": 9.6772727,
                "end_time": 10.4795455,
                "pitch": 69,
                "velocity": 64,
                "duration": 0.8022727,
                "tempo": 120.0
            },
            {
                "start_time": 10.4795455,
                "end_time": 10.8818182,
                "pitch": 69,
                "velocity": 64,
                "duration": 0.4022727,
                "tempo": 120.0
            },
            {
                "start_time": 5.2613636,
                "end_time": 10.8818182,
                "pitch": 71,
                "velocity": 64,
                "duration": 5.6204545,
                "tempo": 120.0
            },
            {
                "start_time": 5.6636364,
                "end_time": 11.2840909,
                "pitch": 68,
                "velocity": 64,
                "duration": 5.6204545,
                "tempo": 120.0
            },
            {
                "start_time": 10.8818182,
                "end_time": 11.2840909,
                "pitch": 68,
                "velocity": 64,
                "duration": 0.4022727,
                "tempo": 120.0
            },
            {
                "start_time": 9.275,
                "end_time": 12.0909091,
                "pitch": 73,
                "velocity": 64,
                "duration": 2.8159091,
                "tempo": 120.0
            },
            {
                "start_time": 11.2840909,
                "end_time": 12.0909091,
                "pitch": 73,
                "velocity": 64,
                "duration": 0.8068182,
                "tempo": 120.0
            },
            {
                "start_time": 12.0909091,
                "end_time": 12.8931818,
                "pitch": 66,
                "velocity": 64,
                "duration": 0.8022727,
                "tempo": 120.0
            },
            {
                "start_time": 1.6545455,
                "end_time": 12.8931818,
                "pitch": 78,
                "velocity": 64,
                "duration": 11.2386364,
                "tempo": 120.0
            },
            {
                "start_time": 12.8931818,
                "end_time": 13.6977273,
                "pitch": 73,
                "velocity": 64,
                "duration": 0.8045455,
                "tempo": 120.0
            },
            {
                "start_time": 13.6977273,
                "end_time": 13.9,
                "pitch": 73,
                "velocity": 64,
                "duration": 0.2022727,
                "tempo": 120.0
            },
            {
                "start_time": 1.4522727,
                "end_time": 14.1022727,
                "pitch": 57,
                "velocity": 64,
                "duration": 12.65,
                "tempo": 120.0
            },
            {
                "start_time": 13.9,
                "end_time": 14.1022727,
                "pitch": 69,
                "velocity": 64,
                "duration": 0.2022727,
                "tempo": 120.0
            },
            {
                "start_time": 14.1022727,
                "end_time": 14.3022727,
                "pitch": 66,
                "velocity": 64,
                "duration": 0.2,
                "tempo": 120.0
            },
            {
                "start_time": 12.8931818,
                "end_time": 14.3022727,
                "pitch": 78,
                "velocity": 64,
                "duration": 1.4090909,
                "tempo": 120.0
            },
            {
                "start_time": 8.4681818,
                "end_time": 14.5022727,
                "pitch": 76,
                "velocity": 64,
                "duration": 6.0340909,
                "tempo": 120.0
            },
            {
                "start_time": 14.3022727,
                "end_time": 14.5022727,
                "pitch": 76,
                "velocity": 64,
                "duration": 0.2,
                "tempo": 120.0
            },
            {
                "start_time": 13.9,
                "end_time": 15.3068182,
                "pitch": 73,
                "velocity": 64,
                "duration": 1.4068182,
                "tempo": 120.0
            },
            {
                "start_time": 14.5022727,
                "end_time": 15.3068182,
                "pitch": 73,
                "velocity": 64,
                "duration": 0.8045455,
                "tempo": 120.0
            },
            {
                "start_time": 15.3068182,
                "end_time": 16.1113636,
                "pitch": 69,
                "velocity": 64,
                "duration": 0.8045455,
                "tempo": 120.0
            },
            {
                "start_time": 16.1113636,
                "end_time": 16.5113636,
                "pitch": 69,
                "velocity": 64,
                "duration": 0.4,
                "tempo": 120.0
            },
            {
                "start_time": 10.8818182,
                "end_time": 16.5113636,
                "pitch": 71,
                "velocity": 64,
                "duration": 5.6295455,
                "tempo": 120.0
            },
            {
                "start_time": 11.2840909,
                "end_time": 16.9159091,
                "pitch": 68,
                "velocity": 64,
                "duration": 5.6318182,
                "tempo": 120.0
            },
            {
                "start_time": 16.5113636,
                "end_time": 16.9159091,
                "pitch": 68,
                "velocity": 64,
                "duration": 0.4045455,
                "tempo": 120.0
            },
            {
                "start_time": 14.5022727,
                "end_time": 17.3136364,
                "pitch": 76,
                "velocity": 64,
                "duration": 2.8113636,
                "tempo": 120.0
            },
            {
                "start_time": 16.9159091,
                "end_time": 17.3136364,
                "pitch": 76,
                "velocity": 64,
                "duration": 0.3977273,
                "tempo": 120.0
            },
            {
                "start_time": 3.6568182,
                "end_time": 17.7136364,
                "pitch": 74,
                "velocity": 64,
                "duration": 14.0568182,
                "tempo": 120.0
            },
            {
                "start_time": 17.3136364,
                "end_time": 17.7136364,
                "pitch": 74,
                "velocity": 64,
                "duration": 0.4,
                "tempo": 120.0
            },
            {
                "start_time": 17.7136364,
                "end_time": 18.5181818,
                "pitch": 74,
                "velocity": 64,
                "duration": 0.8045455,
                "tempo": 120.0
            },
            {
                "start_time": 15.3068182,
                "end_time": 19.3295455,
                "pitch": 73,
                "velocity": 64,
                "duration": 4.0227273,
                "tempo": 120.0
            },
            {
                "start_time": 18.5181818,
                "end_time": 19.3295455,
                "pitch": 73,
                "velocity": 64,
                "duration": 0.8113636,
                "tempo": 120.0
            },
            {
                "start_time": 19.3295455,
                "end_time": 20.125,
                "pitch": 69,
                "velocity": 64,
                "duration": 0.7954545,
                "tempo": 120.0
            },
            {
                "start_time": 14.3022727,
                "end_time": 20.9295455,
                "pitch": 78,
                "velocity": 64,
                "duration": 6.6272727,
                "tempo": 120.0
            },
            {
                "start_time": 20.125,
                "end_time": 20.9295455,
                "pitch": 78,
                "velocity": 64,
                "duration": 0.8045455,
                "tempo": 120.0
            },
            {
                "start_time": 19.3295455,
                "end_time": 21.7295455,
                "pitch": 73,
                "velocity": 64,
                "duration": 2.4,
                "tempo": 120.0
            },
            {
                "start_time": 20.9295455,
                "end_time": 21.7295455,
                "pitch": 73,
                "velocity": 64,
                "duration": 0.8,
                "tempo": 120.0
            },
            {
                "start_time": 20.125,
                "end_time": 22.5318182,
                "pitch": 69,
                "velocity": 64,
                "duration": 2.4068182,
                "tempo": 120.0
            },
            {
                "start_time": 21.7295455,
                "end_time": 22.5318182,
                "pitch": 69,
                "velocity": 64,
                "duration": 0.8022727,
                "tempo": 120.0
            },
            {
                "start_time": 17.3136364,
                "end_time": 23.1340909,
                "pitch": 76,
                "velocity": 64,
                "duration": 5.8204545,
                "tempo": 120.0
            },
            {
                "start_time": 22.5318182,
                "end_time": 23.1340909,
                "pitch": 76,
                "velocity": 64,
                "duration": 0.6022727,
                "tempo": 120.0
            },
            {
                "start_time": 16.9159091,
                "end_time": 23.3340909,
                "pitch": 68,
                "velocity": 64,
                "duration": 6.4181818,
                "tempo": 120.0
            },
            {
                "start_time": 23.1340909,
                "end_time": 23.3340909,
                "pitch": 68,
                "velocity": 64,
                "duration": 0.2,
                "tempo": 120.0
            },
            {
                "start_time": 16.5113636,
                "end_time": 23.7340909,
                "pitch": 71,
                "velocity": 64,
                "duration": 7.2227273,
                "tempo": 120.0
            },
            {
                "start_time": 23.3340909,
                "end_time": 23.7340909,
                "pitch": 71,
                "velocity": 64,
                "duration": 0.4,
                "tempo": 120.0
            },
            {
                "start_time": 23.7340909,
                "end_time": 24.1363636,
                "pitch": 74,
                "velocity": 64,
                "duration": 0.4022727,
                "tempo": 120.0
            },
            {
                "start_time": 24.1363636,
                "end_time": 26.5340909,
                "pitch": 74,
                "velocity": 64,
                "duration": 2.3977273,
                "tempo": 120.0
            },
            {
                "start_time": 21.7295455,
                "end_time": 42.5727273,
                "pitch": 73,
                "velocity": 64,
                "duration": 20.8431818,
                "tempo": 120.0
            },
            {
                "start_time": 41.7704545,
                "end_time": 42.5727273,
                "pitch": 73,
                "velocity": 64,
                "duration": 0.8022727,
                "tempo": 120.0
            },
            {
                "start_time": 23.7340909,
                "end_time": 42.9840909,
                "pitch": 71,
                "velocity": 64,
                "duration": 19.25,
                "tempo": 120.0
            },
            {
                "start_time": 42.5727273,
                "end_time": 42.9840909,
                "pitch": 71,
                "velocity": 64,
                "duration": 0.4113636,
                "tempo": 120.0
            },
            {
                "start_time": 23.3340909,
                "end_time": 43.3863636,
                "pitch": 68,
                "velocity": 64,
                "duration": 20.0522727,
                "tempo": 120.0
            },
            {
                "start_time": 42.9840909,
                "end_time": 43.3863636,
                "pitch": 68,
                "velocity": 64,
                "duration": 0.4022727,
                "tempo": 120.0
            },
            {
                "start_time": 42.9840909,
                "end_time": 44.1772727,
                "pitch": 71,
                "velocity": 64,
                "duration": 1.1931818,
                "tempo": 120.0
            },
            {
                "start_time": 43.3863636,
                "end_time": 44.1772727,
                "pitch": 71,
                "velocity": 64,
                "duration": 0.7909091,
                "tempo": 120.0
            },
            {
                "start_time": 22.5318182,
                "end_time": 44.3840909,
                "pitch": 69,
                "velocity": 64,
                "duration": 21.8522727,
                "tempo": 120.0
            },
            {
                "start_time": 44.1772727,
                "end_time": 44.3840909,
                "pitch": 71,
                "velocity": 64,
                "duration": 0.2068182,
                "tempo": 120.0
            },
            {
                "start_time": 42.5727273,
                "end_time": 44.5886364,
                "pitch": 74,
                "velocity": 64,
                "duration": 2.0159091,
                "tempo": 120.0
            },
            {
                "start_time": 44.3840909,
                "end_time": 44.5886364,
                "pitch": 74,
                "velocity": 64,
                "duration": 0.2045455,
                "tempo": 120.0
            },
            {
                "start_time": 44.5886364,
                "end_time": 44.7886364,
                "pitch": 79,
                "velocity": 64,
                "duration": 0.2,
                "tempo": 120.0
            },
            {
                "start_time": 44.7886364,
                "end_time": 44.9909091,
                "pitch": 79,
                "velocity": 64,
                "duration": 0.2022727,
                "tempo": 120.0
            },
            {
                "start_time": 44.3840909,
                "end_time": 45.7931818,
                "pitch": 69,
                "velocity": 64,
                "duration": 1.4090909,
                "tempo": 120.0
            },
            {
                "start_time": 44.9909091,
                "end_time": 45.7931818,
                "pitch": 69,
                "velocity": 64,
                "duration": 0.8022727,
                "tempo": 120.0
            },
            {
                "start_time": 45.7931818,
                "end_time": 46.5840909,
                "pitch": 74,
                "velocity": 64,
                "duration": 0.7909091,
                "tempo": 120.0
            },
            {
                "start_time": 46.5840909,
                "end_time": 47.3863636,
                "pitch": 69,
                "velocity": 64,
                "duration": 0.8022727,
                "tempo": 120.0
            },
            {
                "start_time": 47.3863636,
                "end_time": 48.1909091,
                "pitch": 69,
                "velocity": 64,
                "duration": 0.8045455,
                "tempo": 120.0
            },
            {
                "start_time": 43.3863636,
                "end_time": 48.6,
                "pitch": 68,
                "velocity": 64,
                "duration": 5.2136364,
                "tempo": 120.0
            },
            {
                "start_time": 48.1909091,
                "end_time": 48.6,
                "pitch": 68,
                "velocity": 64,
                "duration": 0.4090909,
                "tempo": 120.0
            },
            {
                "start_time": 48.6,
                "end_time": 48.6022727,
                "pitch": 69,
                "velocity": 64,
                "duration": 0.0022727,
                "tempo": 120.0
            },
            {
                "start_time": 46.5840909,
                "end_time": 49.0,
                "pitch": 74,
                "velocity": 64,
                "duration": 2.4159091,
                "tempo": 120.0
            },
            {
                "start_time": 48.6022727,
                "end_time": 49.0,
                "pitch": 74,
                "velocity": 64,
                "duration": 0.3977273,
                "tempo": 120.0
            },
            {
                "start_time": 49.0,
                "end_time": 49.4045455,
                "pitch": 74,
                "velocity": 64,
                "duration": 0.4045455,
                "tempo": 120.0
            },
            {
                "start_time": 23.1340909,
                "end_time": 49.8045455,
                "pitch": 76,
                "velocity": 64,
                "duration": 26.6704545,
                "tempo": 120.0
            },
            {
                "start_time": 49.4045455,
                "end_time": 49.8045455,
                "pitch": 76,
                "velocity": 64,
                "duration": 0.4,
                "tempo": 120.0
            },
            {
                "start_time": 49.8045455,
                "end_time": 50.2045455,
                "pitch": 76,
                "velocity": 64,
                "duration": 0.4,
                "tempo": 120.0
            },
            {
                "start_time": 49.4045455,
                "end_time": 50.6045455,
                "pitch": 73,
                "velocity": 64,
                "duration": 1.2,
                "tempo": 120.0
            },
            {
                "start_time": 50.2045455,
                "end_time": 50.6045455,
                "pitch": 73,
                "velocity": 64,
                "duration": 0.4,
                "tempo": 120.0
            },
            {
                "start_time": 50.2045455,
                "end_time": 51.0022727,
                "pitch": 76,
                "velocity": 64,
                "duration": 0.7977273,
                "tempo": 120.0
            },
            {
                "start_time": 50.6045455,
                "end_time": 51.0022727,
                "pitch": 76,
                "velocity": 64,
                "duration": 0.3977273,
                "tempo": 120.0
            },
            {
                "start_time": 50.6045455,
                "end_time": 51.1977273,
                "pitch": 73,
                "velocity": 64,
                "duration": 0.5931818,
                "tempo": 120.0
            },
            {
                "start_time": 51.0022727,
                "end_time": 51.1977273,
                "pitch": 73,
                "velocity": 64,
                "duration": 0.1954545,
                "tempo": 120.0
            },
            {
                "start_time": 51.1977273,
                "end_time": 51.3954545,
                "pitch": 69,
                "velocity": 64,
                "duration": 0.1977273,
                "tempo": 120.0
            },
            {
                "start_time": 51.3954545,
                "end_time": 51.8068182,
                "pitch": 69,
                "velocity": 64,
                "duration": 0.4113636,
                "tempo": 120.0
            },
            {
                "start_time": 45.7931818,
                "end_time": 52.2068182,
                "pitch": 71,
                "velocity": 64,
                "duration": 6.4136364,
                "tempo": 120.0
            },
            {
                "start_time": 51.8068182,
                "end_time": 52.2068182,
                "pitch": 71,
                "velocity": 64,
                "duration": 0.4,
                "tempo": 120.0
            },
            {
                "start_time": 52.2068182,
                "end_time": 52.6045455,
                "pitch": 68,
                "velocity": 64,
                "duration": 0.3977273,
                "tempo": 120.0
            },
            {
                "start_time": 51.0022727,
                "end_time": 53.0068182,
                "pitch": 76,
                "velocity": 64,
                "duration": 2.0045455,
                "tempo": 120.0
            },
            {
                "start_time": 52.6045455,
                "end_time": 53.0068182,
                "pitch": 76,
                "velocity": 64,
                "duration": 0.4022727,
                "tempo": 120.0
            },
            {
                "start_time": 53.0068182,
                "end_time": 53.4090909,
                "pitch": 76,
                "velocity": 64,
                "duration": 0.4022727,
                "tempo": 120.0
            },
            {
                "start_time": 53.4090909,
                "end_time": 53.8090909,
                "pitch": 76,
                "velocity": 64,
                "duration": 0.4,
                "tempo": 120.0
            },
            {
                "start_time": 51.1977273,
                "end_time": 54.2090909,
                "pitch": 73,
                "velocity": 64,
                "duration": 3.0113636,
                "tempo": 120.0
            },
            {
                "start_time": 53.8090909,
                "end_time": 54.2090909,
                "pitch": 73,
                "velocity": 64,
                "duration": 0.4,
                "tempo": 120.0
            },
            {
                "start_time": 54.2090909,
                "end_time": 54.4045455,
                "pitch": 73,
                "velocity": 64,
                "duration": 0.1954545,
                "tempo": 120.0
            },
            {
                "start_time": 53.8090909,
                "end_time": 54.6022727,
                "pitch": 76,
                "velocity": 64,
                "duration": 0.7931818,
                "tempo": 120.0
            },
            {
                "start_time": 54.4045455,
                "end_time": 54.6022727,
                "pitch": 76,
                "velocity": 64,
                "duration": 0.1977273,
                "tempo": 120.0
            },
            {
                "start_time": 54.6022727,
                "end_time": 55.4045455,
                "pitch": 76,
                "velocity": 64,
                "duration": 0.8022727,
                "tempo": 120.0
            },
            {
                "start_time": 55.4045455,
                "end_time": 55.6090909,
                "pitch": 74,
                "velocity": 64,
                "duration": 0.2045455,
                "tempo": 120.0
            },
            {
                "start_time": 54.4045455,
                "end_time": 55.8159091,
                "pitch": 73,
                "velocity": 64,
                "duration": 1.4113636,
                "tempo": 120.0
            },
            {
                "start_time": 55.6090909,
                "end_time": 55.8159091,
                "pitch": 74,
                "velocity": 64,
                "duration": 0.2068182,
                "tempo": 120.0
            },
            {
                "start_time": 52.2068182,
                "end_time": 56.2159091,
                "pitch": 71,
                "velocity": 64,
                "duration": 4.0090909,
                "tempo": 120.0
            },
            {
                "start_time": 55.8159091,
                "end_time": 56.2159091,
                "pitch": 71,
                "velocity": 64,
                "duration": 0.4,
                "tempo": 120.0
            },
            {
                "start_time": 56.2159091,
                "end_time": 56.6136364,
                "pitch": 71,
                "velocity": 64,
                "duration": 0.3977273,
                "tempo": 120.0
            },
            {
                "start_time": 52.6045455,
                "end_time": 57.0136364,
                "pitch": 68,
                "velocity": 64,
                "duration": 4.4090909,
                "tempo": 120.0
            },
            {
                "start_time": 56.6136364,
                "end_time": 57.0136364,
                "pitch": 68,
                "velocity": 64,
                "duration": 0.4,
                "tempo": 120.0
            },
            {
                "start_time": 55.8159091,
                "end_time": 57.4181818,
                "pitch": 73,
                "velocity": 64,
                "duration": 1.6022727,
                "tempo": 120.0
            },
            {
                "start_time": 57.0136364,
                "end_time": 57.4181818,
                "pitch": 73,
                "velocity": 64,
                "duration": 0.4045455,
                "tempo": 120.0
            },
            {
                "start_time": 56.6136364,
                "end_time": 57.8181818,
                "pitch": 71,
                "velocity": 64,
                "duration": 1.2045455,
                "tempo": 120.0
            },
            {
                "start_time": 57.4181818,
                "end_time": 57.8181818,
                "pitch": 71,
                "velocity": 64,
                "duration": 0.4,
                "tempo": 120.0
            },
            {
                "start_time": 57.8181818,
                "end_time": 58.0181818,
                "pitch": 83,
                "velocity": 64,
                "duration": 0.2,
                "tempo": 120.0
            },
            {
                "start_time": 20.9295455,
                "end_time": 58.4136364,
                "pitch": 78,
                "velocity": 64,
                "duration": 37.4840909,
                "tempo": 120.0
            },
            {
                "start_time": 58.2181818,
                "end_time": 58.4136364,
                "pitch": 78,
                "velocity": 64,
                "duration": 0.1954545,
                "tempo": 120.0
            },
            {
                "start_time": 58.2181818,
                "end_time": 58.8159091,
                "pitch": 69,
                "velocity": 64,
                "duration": 0.5977273,
                "tempo": 120.0
            },
            {
                "start_time": 58.6090909,
                "end_time": 58.8159091,
                "pitch": 69,
                "velocity": 64,
                "duration": 0.2068182,
                "tempo": 120.0
            },
            {
                "start_time": 59.0204545,
                "end_time": 59.2227273,
                "pitch": 72,
                "velocity": 64,
                "duration": 0.2022727,
                "tempo": 120.0
            },
            {
                "start_time": 59.4227273,
                "end_time": 59.8227273,
                "pitch": 70,
                "velocity": 64,
                "duration": 0.4,
                "tempo": 120.0
            },
            {
                "start_time": 57.4181818,
                "end_time": 60.2227273,
                "pitch": 73,
                "velocity": 64,
                "duration": 2.8045455,
                "tempo": 120.0
            },
            {
                "start_time": 59.8227273,
                "end_time": 60.2227273,
                "pitch": 73,
                "velocity": 64,
                "duration": 0.4,
                "tempo": 120.0
            },
            {
                "start_time": 60.2227273,
                "end_time": 60.6227273,
                "pitch": 79,
                "velocity": 64,
                "duration": 0.4,
                "tempo": 120.0
            },
            {
                "start_time": 60.6227273,
                "end_time": 61.0227273,
                "pitch": 82,
                "velocity": 64,
                "duration": 0.4,
                "tempo": 120.0
            },
            {
                "start_time": 59.8227273,
                "end_time": 61.2227273,
                "pitch": 70,
                "velocity": 64,
                "duration": 1.4,
                "tempo": 120.0
            },
            {
                "start_time": 61.0227273,
                "end_time": 61.2227273,
                "pitch": 70,
                "velocity": 64,
                "duration": 0.2,
                "tempo": 120.0
            },
            {
                "start_time": 59.0204545,
                "end_time": 61.425,
                "pitch": 69,
                "velocity": 64,
                "duration": 2.4045455,
                "tempo": 120.0
            },
            {
                "start_time": 55.4045455,
                "end_time": 61.625,
                "pitch": 76,
                "velocity": 64,
                "duration": 6.2204545,
                "tempo": 120.0
            },
            {
                "start_time": 61.425,
                "end_time": 61.625,
                "pitch": 76,
                "velocity": 64,
                "duration": 0.2,
                "tempo": 120.0
            },
            {
                "start_time": 61.825,
                "end_time": 62.025,
                "pitch": 73,
                "velocity": 64,
                "duration": 0.2,
                "tempo": 120.0
            },
            {
                "start_time": 12.0909091,
                "end_time": 62.225,
                "pitch": 61,
                "velocity": 64,
                "duration": 50.1340909,
                "tempo": 120.0
            },
            {
                "start_time": 62.225,
                "end_time": 62.425,
                "pitch": 66,
                "velocity": 64,
                "duration": 0.2,
                "tempo": 120.0
            },
            {
                "start_time": 58.6090909,
                "end_time": 62.625,
                "pitch": 78,
                "velocity": 64,
                "duration": 4.0159091,
                "tempo": 120.0
            },
            {
                "start_time": 61.425,
                "end_time": 65.0227273,
                "pitch": 69,
                "velocity": 64,
                "duration": 3.5977273,
                "tempo": 120.0
            },
            {
                "start_time": 62.625,
                "end_time": 65.0227273,
                "pitch": 69,
                "velocity": 64,
                "duration": 2.3977273,
                "tempo": 120.0
            },
            {
                "start_time": 65.825,
                "end_time": 66.2363636,
                "pitch": 69,
                "velocity": 64,
                "duration": 0.4113636,
                "tempo": 120.0
            },
            {
                "start_time": 66.2363636,
                "end_time": 66.6386364,
                "pitch": 66,
                "velocity": 64,
                "duration": 0.4022727,
                "tempo": 120.0
            },
            {
                "start_time": 62.625,
                "end_time": 66.6386364,
                "pitch": 78,
                "velocity": 64,
                "duration": 4.0136364,
                "tempo": 120.0
            },
            {
                "start_time": 66.6386364,
                "end_time": 67.0386364,
                "pitch": 73,
                "velocity": 64,
                "duration": 0.4,
                "tempo": 120.0
            },
            {
                "start_time": 60.2227273,
                "end_time": 67.4409091,
                "pitch": 85,
                "velocity": 64,
                "duration": 7.2181818,
                "tempo": 120.0
            },
            {
                "start_time": 67.4409091,
                "end_time": 68.2340909,
                "pitch": 81,
                "velocity": 64,
                "duration": 0.7931818,
                "tempo": 120.0
            },
            {
                "start_time": 61.825,
                "end_time": 68.6454545,
                "pitch": 76,
                "velocity": 64,
                "duration": 6.8204545,
                "tempo": 120.0
            },
            {
                "start_time": 68.2340909,
                "end_time": 68.6454545,
                "pitch": 76,
                "velocity": 64,
                "duration": 0.4113636,
                "tempo": 120.0
            },
            {
                "start_time": 68.6454545,
                "end_time": 69.0454545,
                "pitch": 73,
                "velocity": 64,
                "duration": 0.4,
                "tempo": 120.0
            },
            {
                "start_time": 67.4409091,
                "end_time": 69.0454545,
                "pitch": 85,
                "velocity": 64,
                "duration": 1.6045455,
                "tempo": 120.0
            },
            {
                "start_time": 69.0454545,
                "end_time": 69.8386364,
                "pitch": 82,
                "velocity": 64,
                "duration": 0.7931818,
                "tempo": 120.0
            },
            {
                "start_time": 0.0386364,
                "end_time": 70.25,
                "pitch": 67,
                "velocity": 64,
                "duration": 70.2113636,
                "tempo": 120.0
            },
            {
                "start_time": 60.6227273,
                "end_time": 70.25,
                "pitch": 79,
                "velocity": 64,
                "duration": 9.6272727,
                "tempo": 120.0
            },
            {
                "start_time": 69.8386364,
                "end_time": 70.25,
                "pitch": 79,
                "velocity": 64,
                "duration": 0.4113636,
                "tempo": 120.0
            },
            {
                "start_time": 70.25,
                "end_time": 70.6431818,
                "pitch": 75,
                "velocity": 64,
                "duration": 0.3931818,
                "tempo": 120.0
            },
            {
                "start_time": 68.2340909,
                "end_time": 71.0522727,
                "pitch": 69,
                "velocity": 64,
                "duration": 2.8181818,
                "tempo": 120.0
            },
            {
                "start_time": 70.6431818,
                "end_time": 71.0522727,
                "pitch": 81,
                "velocity": 64,
                "duration": 0.4090909,
                "tempo": 120.0
            },
            {
                "start_time": 68.6454545,
                "end_time": 71.4568182,
                "pitch": 76,
                "velocity": 64,
                "duration": 2.8113636,
                "tempo": 120.0
            },
            {
                "start_time": 71.0522727,
                "end_time": 71.4568182,
                "pitch": 76,
                "velocity": 64,
                "duration": 0.4045455,
                "tempo": 120.0
            },
            {
                "start_time": 70.25,
                "end_time": 71.8568182,
                "pitch": 67,
                "velocity": 64,
                "duration": 1.6068182,
                "tempo": 120.0
            },
            {
                "start_time": 71.4568182,
                "end_time": 71.8568182,
                "pitch": 79,
                "velocity": 64,
                "duration": 0.4,
                "tempo": 120.0
            },
            {
                "start_time": 71.8568182,
                "end_time": 72.2590909,
                "pitch": 74,
                "velocity": 64,
                "duration": 0.4022727,
                "tempo": 120.0
            },
            {
                "start_time": 72.2590909,
                "end_time": 72.6613636,
                "pitch": 74,
                "velocity": 64,
                "duration": 0.4022727,
                "tempo": 120.0
            },
            {
                "start_time": 72.6613636,
                "end_time": 73.0613636,
                "pitch": 71,
                "velocity": 64,
                "duration": 0.4,
                "tempo": 120.0
            },
            {
                "start_time": 73.0613636,
                "end_time": 73.8636364,
                "pitch": 83,
                "velocity": 64,
                "duration": 0.8022727,
                "tempo": 120.0
            },
            {
                "start_time": 71.0522727,
                "end_time": 74.2659091,
                "pitch": 69,
                "velocity": 64,
                "duration": 3.2136364,
                "tempo": 120.0
            },
            {
                "start_time": 73.8636364,
                "end_time": 74.2659091,
                "pitch": 69,
                "velocity": 64,
                "duration": 0.4022727,
                "tempo": 120.0
            },
            {
                "start_time": 57.0136364,
                "end_time": 74.6704545,
                "pitch": 68,
                "velocity": 64,
                "duration": 17.6568182,
                "tempo": 120.0
            },
            {
                "start_time": 74.2659091,
                "end_time": 74.6704545,
                "pitch": 68,
                "velocity": 64,
                "duration": 0.4045455,
                "tempo": 120.0
            },
            {
                "start_time": 74.2659091,
                "end_time": 75.0704545,
                "pitch": 71,
                "velocity": 64,
                "duration": 0.8045455,
                "tempo": 120.0
            },
            {
                "start_time": 74.6704545,
                "end_time": 75.0704545,
                "pitch": 71,
                "velocity": 64,
                "duration": 0.4,
                "tempo": 120.0
            },
            {
                "start_time": 75.0704545,
                "end_time": 75.4727273,
                "pitch": 76,
                "velocity": 64,
                "duration": 0.4022727,
                "tempo": 120.0
            },
            {
                "start_time": 66.6386364,
                "end_time": 76.275,
                "pitch": 78,
                "velocity": 64,
                "duration": 9.6363636,
                "tempo": 120.0
            },
            {
                "start_time": 75.4727273,
                "end_time": 76.275,
                "pitch": 78,
                "velocity": 64,
                "duration": 0.8022727,
                "tempo": 120.0
            },
            {
                "start_time": 75.4727273,
                "end_time": 77.0681818,
                "pitch": 76,
                "velocity": 64,
                "duration": 1.5954545,
                "tempo": 120.0
            },
            {
                "start_time": 76.275,
                "end_time": 77.0681818,
                "pitch": 76,
                "velocity": 64,
                "duration": 0.7931818,
                "tempo": 120.0
            },
            {
                "start_time": 71.4568182,
                "end_time": 77.0681818,
                "pitch": 88,
                "velocity": 64,
                "duration": 5.6113636,
                "tempo": 120.0
            },
            {
                "start_time": 77.0681818,
                "end_time": 77.4795455,
                "pitch": 81,
                "velocity": 64,
                "duration": 0.4113636,
                "tempo": 120.0
            },
            {
                "start_time": 77.4795455,
                "end_time": 77.8795455,
                "pitch": 69,
                "velocity": 64,
                "duration": 0.4,
                "tempo": 120.0
            },
            {
                "start_time": 77.8795455,
                "end_time": 78.2818182,
                "pitch": 76,
                "velocity": 64,
                "duration": 0.4022727,
                "tempo": 120.0
            },
            {
                "start_time": 78.2818182,
                "end_time": 78.2840909,
                "pitch": 76,
                "velocity": 64,
                "duration": 0.0022727,
                "tempo": 120.0
            },
            {
                "start_time": 78.2840909,
                "end_time": 78.6863636,
                "pitch": 73,
                "velocity": 64,
                "duration": 0.4022727,
                "tempo": 120.0
            },
            {
                "start_time": 75.0704545,
                "end_time": 79.0840909,
                "pitch": 71,
                "velocity": 64,
                "duration": 4.0136364,
                "tempo": 120.0
            },
            {
                "start_time": 78.6863636,
                "end_time": 79.0840909,
                "pitch": 71,
                "velocity": 64,
                "duration": 0.3977273,
                "tempo": 120.0
            },
            {
                "start_time": 74.6704545,
                "end_time": 79.4886364,
                "pitch": 68,
                "velocity": 64,
                "duration": 4.8181818,
                "tempo": 120.0
            },
            {
                "start_time": 79.0840909,
                "end_time": 79.4886364,
                "pitch": 68,
                "velocity": 64,
                "duration": 0.4045455,
                "tempo": 120.0
            },
            {
                "start_time": 79.4886364,
                "end_time": 79.8863636,
                "pitch": 76,
                "velocity": 64,
                "duration": 0.3977273,
                "tempo": 120.0
            },
            {
                "start_time": 79.0840909,
                "end_time": 80.2909091,
                "pitch": 71,
                "velocity": 64,
                "duration": 1.2068182,
                "tempo": 120.0
            },
            {
                "start_time": 79.8863636,
                "end_time": 80.2909091,
                "pitch": 71,
                "velocity": 64,
                "duration": 0.4045455,
                "tempo": 120.0
            },
            {
                "start_time": 80.2909091,
                "end_time": 80.8886364,
                "pitch": 71,
                "velocity": 64,
                "duration": 0.5977273,
                "tempo": 120.0
            },
            {
                "start_time": 77.8795455,
                "end_time": 81.0863636,
                "pitch": 69,
                "velocity": 64,
                "duration": 3.2068182,
                "tempo": 120.0
            },
            {
                "start_time": 80.8886364,
                "end_time": 81.0863636,
                "pitch": 69,
                "velocity": 64,
                "duration": 0.1977273,
                "tempo": 120.0
            },
            {
                "start_time": 81.0863636,
                "end_time": 81.2909091,
                "pitch": 66,
                "velocity": 64,
                "duration": 0.2045455,
                "tempo": 120.0
            },
            {
                "start_time": 81.2909091,
                "end_time": 81.4977273,
                "pitch": 62,
                "velocity": 64,
                "duration": 0.2068182,
                "tempo": 120.0
            },
            {
                "start_time": 72.6613636,
                "end_time": 81.4977273,
                "pitch": 74,
                "velocity": 64,
                "duration": 8.8363636,
                "tempo": 120.0
            },
            {
                "start_time": 81.4977273,
                "end_time": 81.8954545,
                "pitch": 69,
                "velocity": 64,
                "duration": 0.3977273,
                "tempo": 120.0
            },
            {
                "start_time": 79.8863636,
                "end_time": 82.2977273,
                "pitch": 76,
                "velocity": 64,
                "duration": 2.4113636,
                "tempo": 120.0
            },
            {
                "start_time": 81.8977273,
                "end_time": 82.2977273,
                "pitch": 76,
                "velocity": 64,
                "duration": 0.4,
                "tempo": 120.0
            },
            {
                "start_time": 78.6863636,
                "end_time": 82.5,
                "pitch": 73,
                "velocity": 64,
                "duration": 3.8136364,
                "tempo": 120.0
            },
            {
                "start_time": 82.2977273,
                "end_time": 82.5,
                "pitch": 73,
                "velocity": 64,
                "duration": 0.2022727,
                "tempo": 120.0
            },
            {
                "start_time": 81.8977273,
                "end_time": 82.7022727,
                "pitch": 69,
                "velocity": 64,
                "duration": 0.8045455,
                "tempo": 120.0
            },
            {
                "start_time": 82.5,
                "end_time": 82.7022727,
                "pitch": 69,
                "velocity": 64,
                "duration": 0.2022727,
                "tempo": 120.0
            },
            {
                "start_time": 82.7022727,
                "end_time": 82.9022727,
                "pitch": 81,
                "velocity": 64,
                "duration": 0.2,
                "tempo": 120.0
            },
            {
                "start_time": 69.0454545,
                "end_time": 83.6977273,
                "pitch": 85,
                "velocity": 64,
                "duration": 14.6522727,
                "tempo": 120.0
            },
            {
                "start_time": 82.9022727,
                "end_time": 83.6977273,
                "pitch": 85,
                "velocity": 64,
                "duration": 0.7954545,
                "tempo": 120.0
            },
            {
                "start_time": 82.5,
                "end_time": 85.1068182,
                "pitch": 73,
                "velocity": 64,
                "duration": 2.6068182,
                "tempo": 120.0
            },
            {
                "start_time": 14.1022727,
                "end_time": 85.5090909,
                "pitch": 57,
                "velocity": 64,
                "duration": 71.4068182,
                "tempo": 120.0
            },
            {
                "start_time": 85.1068182,
                "end_time": 85.5090909,
                "pitch": 69,
                "velocity": 64,
                "duration": 0.4022727,
                "tempo": 120.0
            },
            {
                "start_time": 81.2909091,
                "end_time": 85.9113636,
                "pitch": 66,
                "velocity": 64,
                "duration": 4.6204545,
                "tempo": 120.0
            },
            {
                "start_time": 85.5090909,
                "end_time": 85.9113636,
                "pitch": 66,
                "velocity": 64,
                "duration": 0.4022727,
                "tempo": 120.0
            },
            {
                "start_time": 76.275,
                "end_time": 85.9113636,
                "pitch": 78,
                "velocity": 64,
                "duration": 9.6363636,
                "tempo": 120.0
            },
            {
                "start_time": 81.4977273,
                "end_time": 86.7045455,
                "pitch": 74,
                "velocity": 64,
                "duration": 5.2068182,
                "tempo": 120.0
            },
            {
                "start_time": 85.9113636,
                "end_time": 86.7045455,
                "pitch": 74,
                "velocity": 64,
                "duration": 0.7931818,
                "tempo": 120.0
            },
            {
                "start_time": 82.2977273,
                "end_time": 87.1159091,
                "pitch": 76,
                "velocity": 64,
                "duration": 4.8181818,
                "tempo": 120.0
            },
            {
                "start_time": 86.7045455,
                "end_time": 87.1159091,
                "pitch": 76,
                "velocity": 64,
                "duration": 0.4113636,
                "tempo": 120.0
            },
            {
                "start_time": 85.1068182,
                "end_time": 87.5181818,
                "pitch": 73,
                "velocity": 64,
                "duration": 2.4113636,
                "tempo": 120.0
            },
            {
                "start_time": 87.1159091,
                "end_time": 87.5181818,
                "pitch": 73,
                "velocity": 64,
                "duration": 0.4022727,
                "tempo": 120.0
            },
            {
                "start_time": 87.5181818,
                "end_time": 87.9181818,
                "pitch": 71,
                "velocity": 64,
                "duration": 0.4,
                "tempo": 120.0
            },
            {
                "start_time": 87.1159091,
                "end_time": 88.3204545,
                "pitch": 76,
                "velocity": 64,
                "duration": 1.2045455,
                "tempo": 120.0
            },
            {
                "start_time": 87.9181818,
                "end_time": 88.3204545,
                "pitch": 76,
                "velocity": 64,
                "duration": 0.4022727,
                "tempo": 120.0
            },
            {
                "start_time": 85.9113636,
                "end_time": 90.7272727,
                "pitch": 78,
                "velocity": 64,
                "duration": 4.8159091,
                "tempo": 120.0
            },
            {
                "start_time": 88.3204545,
                "end_time": 90.7272727,
                "pitch": 78,
                "velocity": 64,
                "duration": 2.4068182,
                "tempo": 120.0
            },
            {
                "start_time": 86.7045455,
                "end_time": 93.3363636,
                "pitch": 74,
                "velocity": 64,
                "duration": 6.6318182,
                "tempo": 120.0
            },
            {
                "start_time": 93.1295455,
                "end_time": 93.3363636,
                "pitch": 74,
                "velocity": 64,
                "duration": 0.2068182,
                "tempo": 120.0
            },
            {
                "start_time": 87.9181818,
                "end_time": 93.5409091,
                "pitch": 71,
                "velocity": 64,
                "duration": 5.6227273,
                "tempo": 120.0
            },
            {
                "start_time": 93.3363636,
                "end_time": 93.5409091,
                "pitch": 71,
                "velocity": 64,
                "duration": 0.2045455,
                "tempo": 120.0
            },
            {
                "start_time": 71.8568182,
                "end_time": 93.7409091,
                "pitch": 67,
                "velocity": 64,
                "duration": 21.8840909,
                "tempo": 120.0
            },
            {
                "start_time": 93.5409091,
                "end_time": 93.7409091,
                "pitch": 67,
                "velocity": 64,
                "duration": 0.2,
                "tempo": 120.0
            },
            {
                "start_time": 93.5409091,
                "end_time": 93.9409091,
                "pitch": 71,
                "velocity": 64,
                "duration": 0.4,
                "tempo": 120.0
            },
            {
                "start_time": 93.7409091,
                "end_time": 93.9409091,
                "pitch": 71,
                "velocity": 64,
                "duration": 0.2,
                "tempo": 120.0
            },
            {
                "start_time": 79.4886364,
                "end_time": 94.1431818,
                "pitch": 68,
                "velocity": 64,
                "duration": 14.6545455,
                "tempo": 120.0
            },
            {
                "start_time": 93.9409091,
                "end_time": 94.1431818,
                "pitch": 68,
                "velocity": 64,
                "duration": 0.2022727,
                "tempo": 120.0
            },
            {
                "start_time": 93.9409091,
                "end_time": 94.3431818,
                "pitch": 71,
                "velocity": 64,
                "duration": 0.4022727,
                "tempo": 120.0
            },
            {
                "start_time": 94.1431818,
                "end_time": 94.3431818,
                "pitch": 71,
                "velocity": 64,
                "duration": 0.2,
                "tempo": 120.0
            },
            {
                "start_time": 88.3204545,
                "end_time": 94.5454545,
                "pitch": 76,
                "velocity": 64,
                "duration": 6.225,
                "tempo": 120.0
            },
            {
                "start_time": 94.3431818,
                "end_time": 94.5454545,
                "pitch": 76,
                "velocity": 64,
                "duration": 0.2022727,
                "tempo": 120.0
            },
            {
                "start_time": 93.3363636,
                "end_time": 94.7477273,
                "pitch": 74,
                "velocity": 64,
                "duration": 1.4113636,
                "tempo": 120.0
            },
            {
                "start_time": 94.5454545,
                "end_time": 94.7477273,
                "pitch": 74,
                "velocity": 64,
                "duration": 0.2022727,
                "tempo": 120.0
            },
            {
                "start_time": 59.4227273,
                "end_time": 95.1454545,
                "pitch": 72,
                "velocity": 64,
                "duration": 35.7227273,
                "tempo": 120.0
            },
            {
                "start_time": 94.7477273,
                "end_time": 95.1454545,
                "pitch": 74,
                "velocity": 64,
                "duration": 0.3977273,
                "tempo": 120.0
            },
            {
                "start_time": 85.5090909,
                "end_time": 95.55,
                "pitch": 57,
                "velocity": 64,
                "duration": 10.0409091,
                "tempo": 120.0
            },
            {
                "start_time": 95.1454545,
                "end_time": 95.55,
                "pitch": 69,
                "velocity": 64,
                "duration": 0.4045455,
                "tempo": 120.0
            },
            {
                "start_time": 95.55,
                "end_time": 95.95,
                "pitch": 66,
                "velocity": 64,
                "duration": 0.4,
                "tempo": 120.0
            },
            {
                "start_time": 93.1295455,
                "end_time": 95.95,
                "pitch": 78,
                "velocity": 64,
                "duration": 2.8204545,
                "tempo": 120.0
            },
            {
                "start_time": 93.7409091,
                "end_time": 96.35,
                "pitch": 67,
                "velocity": 64,
                "duration": 2.6090909,
                "tempo": 120.0
            },
            {
                "start_time": 95.95,
                "end_time": 96.35,
                "pitch": 67,
                "velocity": 64,
                "duration": 0.4,
                "tempo": 120.0
            },
            {
                "start_time": 99.5636364,
                "end_time": 99.7659091,
                "pitch": 74,
                "velocity": 64,
                "duration": 0.2022727,
                "tempo": 120.0
            },
            {
                "start_time": 94.5454545,
                "end_time": 99.9659091,
                "pitch": 76,
                "velocity": 64,
                "duration": 5.4204545,
                "tempo": 120.0
            },
            {
                "start_time": 99.7659091,
                "end_time": 99.9659091,
                "pitch": 76,
                "velocity": 64,
                "duration": 0.2,
                "tempo": 120.0
            },
            {
                "start_time": 87.5181818,
                "end_time": 100.1659091,
                "pitch": 73,
                "velocity": 64,
                "duration": 12.6477273,
                "tempo": 120.0
            },
            {
                "start_time": 99.9659091,
                "end_time": 100.1659091,
                "pitch": 73,
                "velocity": 64,
                "duration": 0.2,
                "tempo": 120.0
            },
            {
                "start_time": 95.55,
                "end_time": 100.3681818,
                "pitch": 57,
                "velocity": 64,
                "duration": 4.8181818,
                "tempo": 120.0
            },
            {
                "start_time": 100.1659091,
                "end_time": 100.3681818,
                "pitch": 69,
                "velocity": 64,
                "duration": 0.2022727,
                "tempo": 120.0
            },
            {
                "start_time": 100.3681818,
                "end_time": 100.7704545,
                "pitch": 66,
                "velocity": 64,
                "duration": 0.4022727,
                "tempo": 120.0
            },
            {
                "start_time": 95.95,
                "end_time": 100.7704545,
                "pitch": 78,
                "velocity": 64,
                "duration": 4.8204545,
                "tempo": 120.0
            },
            {
                "start_time": 100.7704545,
                "end_time": 101.1704545,
                "pitch": 69,
                "velocity": 64,
                "duration": 0.4,
                "tempo": 120.0
            },
            {
                "start_time": 101.1704545,
                "end_time": 101.5727273,
                "pitch": 69,
                "velocity": 64,
                "duration": 0.4022727,
                "tempo": 120.0
            },
            {
                "start_time": 94.3431818,
                "end_time": 101.5727273,
                "pitch": 71,
                "velocity": 64,
                "duration": 7.2295455,
                "tempo": 120.0
            },
            {
                "start_time": 94.1431818,
                "end_time": 101.9727273,
                "pitch": 68,
                "velocity": 64,
                "duration": 7.8295455,
                "tempo": 120.0
            },
            {
                "start_time": 101.5727273,
                "end_time": 101.9727273,
                "pitch": 68,
                "velocity": 64,
                "duration": 0.4,
                "tempo": 120.0
            },
            {
                "start_time": 101.9727273,
                "end_time": 102.375,
                "pitch": 68,
                "velocity": 64,
                "duration": 0.4022727,
                "tempo": 120.0
            },
            {
                "start_time": 100.1659091,
                "end_time": 102.7795455,
                "pitch": 73,
                "velocity": 64,
                "duration": 2.6136364,
                "tempo": 120.0
            },
            {
                "start_time": 102.375,
                "end_time": 102.7795455,
                "pitch": 73,
                "velocity": 64,
                "duration": 0.4045455,
                "tempo": 120.0
            },
            {
                "start_time": 102.7795455,
                "end_time": 102.9795455,
                "pitch": 73,
                "velocity": 64,
                "duration": 0.2,
                "tempo": 120.0
            },
            {
                "start_time": 99.7659091,
                "end_time": 102.9795455,
                "pitch": 74,
                "velocity": 64,
                "duration": 3.2136364,
                "tempo": 120.0
            },
            {
                "start_time": 99.9659091,
                "end_time": 103.1795455,
                "pitch": 76,
                "velocity": 64,
                "duration": 3.2136364,
                "tempo": 120.0
            },
            {
                "start_time": 102.9795455,
                "end_time": 103.1795455,
                "pitch": 76,
                "velocity": 64,
                "duration": 0.2,
                "tempo": 120.0
            },
            {
                "start_time": 103.1795455,
                "end_time": 103.3795455,
                "pitch": 66,
                "velocity": 64,
                "duration": 0.2,
                "tempo": 120.0
            },
            {
                "start_time": 103.5818182,
                "end_time": 103.7818182,
                "pitch": 66,
                "velocity": 64,
                "duration": 0.2,
                "tempo": 120.0
            },
            {
                "start_time": 100.7704545,
                "end_time": 103.7818182,
                "pitch": 78,
                "velocity": 64,
                "duration": 3.0113636,
                "tempo": 120.0
            },
            {
                "start_time": 102.375,
                "end_time": 103.9818182,
                "pitch": 69,
                "velocity": 64,
                "duration": 1.6068182,
                "tempo": 120.0
            },
            {
                "start_time": 103.7818182,
                "end_time": 103.9818182,
                "pitch": 69,
                "velocity": 64,
                "duration": 0.2,
                "tempo": 120.0
            },
            {
                "start_time": 102.9795455,
                "end_time": 104.1840909,
                "pitch": 74,
                "velocity": 64,
                "duration": 1.2045455,
                "tempo": 120.0
            },
            {
                "start_time": 103.9818182,
                "end_time": 104.1840909,
                "pitch": 74,
                "velocity": 64,
                "duration": 0.2022727,
                "tempo": 120.0
            },
            {
                "start_time": 103.7818182,
                "end_time": 104.3840909,
                "pitch": 78,
                "velocity": 64,
                "duration": 0.6022727,
                "tempo": 120.0
            },
            {
                "start_time": 104.1840909,
                "end_time": 104.3840909,
                "pitch": 78,
                "velocity": 64,
                "duration": 0.2,
                "tempo": 120.0
            },
            {
                "start_time": 103.9818182,
                "end_time": 104.5863636,
                "pitch": 69,
                "velocity": 64,
                "duration": 0.6045455,
                "tempo": 120.0
            },
            {
                "start_time": 104.3840909,
                "end_time": 104.5863636,
                "pitch": 69,
                "velocity": 64,
                "duration": 0.2022727,
                "tempo": 120.0
            },
            {
                "start_time": 104.1840909,
                "end_time": 104.7863636,
                "pitch": 74,
                "velocity": 64,
                "duration": 0.6022727,
                "tempo": 120.0
            },
            {
                "start_time": 104.5863636,
                "end_time": 104.7863636,
                "pitch": 74,
                "velocity": 64,
                "duration": 0.2,
                "tempo": 120.0
            },
            {
                "start_time": 62.225,
                "end_time": 104.9863636,
                "pitch": 61,
                "velocity": 64,
                "duration": 42.7613636,
                "tempo": 120.0
            },
            {
                "start_time": 104.7863636,
                "end_time": 104.9863636,
                "pitch": 62,
                "velocity": 64,
                "duration": 0.2,
                "tempo": 120.0
            },
            {
                "start_time": 104.9863636,
                "end_time": 105.1863636,
                "pitch": 66,
                "velocity": 64,
                "duration": 0.2,
                "tempo": 120.0
            },
            {
                "start_time": 104.3840909,
                "end_time": 105.1863636,
                "pitch": 78,
                "velocity": 64,
                "duration": 0.8022727,
                "tempo": 120.0
            },
            {
                "start_time": 105.1863636,
                "end_time": 105.3886364,
                "pitch": 74,
                "velocity": 64,
                "duration": 0.2022727,
                "tempo": 120.0
            },
            {
                "start_time": 104.5863636,
                "end_time": 105.5886364,
                "pitch": 69,
                "velocity": 64,
                "duration": 1.0022727,
                "tempo": 120.0
            },
            {
                "start_time": 105.3886364,
                "end_time": 105.5886364,
                "pitch": 69,
                "velocity": 64,
                "duration": 0.2,
                "tempo": 120.0
            },
            {
                "start_time": 100.3681818,
                "end_time": 105.5909091,
                "pitch": 57,
                "velocity": 64,
                "duration": 5.2227273,
                "tempo": 120.0
            },
            {
                "start_time": 105.5909091,
                "end_time": 105.7886364,
                "pitch": 66,
                "velocity": 64,
                "duration": 0.1977273,
                "tempo": 120.0
            },
            {
                "start_time": 105.1863636,
                "end_time": 105.7909091,
                "pitch": 78,
                "velocity": 64,
                "duration": 0.6045455,
                "tempo": 120.0
            },
            {
                "start_time": 105.3886364,
                "end_time": 105.9886364,
                "pitch": 74,
                "velocity": 64,
                "duration": 0.6,
                "tempo": 120.0
            },
            {
                "start_time": 105.7909091,
                "end_time": 105.9886364,
                "pitch": 74,
                "velocity": 64,
                "duration": 0.1977273,
                "tempo": 120.0
            },
            {
                "start_time": 105.9886364,
                "end_time": 106.1909091,
                "pitch": 76,
                "velocity": 64,
                "duration": 0.2022727,
                "tempo": 120.0
            },
            {
                "start_time": 106.1909091,
                "end_time": 106.3931818,
                "pitch": 73,
                "velocity": 64,
                "duration": 0.2022727,
                "tempo": 120.0
            },
            {
                "start_time": 106.3931818,
                "end_time": 106.5931818,
                "pitch": 69,
                "velocity": 64,
                "duration": 0.2,
                "tempo": 120.0
            },
            {
                "start_time": 106.5931818,
                "end_time": 106.7954545,
                "pitch": 69,
                "velocity": 64,
                "duration": 0.2022727,
                "tempo": 120.0
            },
            {
                "start_time": 106.7954545,
                "end_time": 106.9954545,
                "pitch": 69,
                "velocity": 64,
                "duration": 0.2,
                "tempo": 120.0
            },
            {
                "start_time": 101.5727273,
                "end_time": 106.9954545,
                "pitch": 71,
                "velocity": 64,
                "duration": 5.4227273,
                "tempo": 120.0
            },
            {
                "start_time": 99.5636364,
                "end_time": 107.1954545,
                "pitch": 67,
                "velocity": 64,
                "duration": 7.6318182,
                "tempo": 120.0
            },
            {
                "start_time": 106.9954545,
                "end_time": 107.1954545,
                "pitch": 67,
                "velocity": 64,
                "duration": 0.2,
                "tempo": 120.0
            },
            {
                "start_time": 105.9886364,
                "end_time": 107.3954545,
                "pitch": 74,
                "velocity": 64,
                "duration": 1.4068182,
                "tempo": 120.0
            },
            {
                "start_time": 107.1954545,
                "end_time": 107.3954545,
                "pitch": 74,
                "velocity": 64,
                "duration": 0.2,
                "tempo": 120.0
            },
            {
                "start_time": 81.0863636,
                "end_time": 107.5977273,
                "pitch": 59,
                "velocity": 64,
                "duration": 26.5113636,
                "tempo": 120.0
            },
            {
                "start_time": 106.9954545,
                "end_time": 107.5977273,
                "pitch": 71,
                "velocity": 64,
                "duration": 0.6022727,
                "tempo": 120.0
            },
            {
                "start_time": 107.3954545,
                "end_time": 107.5977273,
                "pitch": 71,
                "velocity": 64,
                "duration": 0.2022727,
                "tempo": 120.0
            },
            {
                "start_time": 103.1795455,
                "end_time": 107.7977273,
                "pitch": 64,
                "velocity": 64,
                "duration": 4.6181818,
                "tempo": 120.0
            },
            {
                "start_time": 107.5977273,
                "end_time": 107.7977273,
                "pitch": 64,
                "velocity": 64,
                "duration": 0.2,
                "tempo": 120.0
            },
            {
                "start_time": 107.7977273,
                "end_time": 107.9977273,
                "pitch": 66,
                "velocity": 64,
                "duration": 0.2,
                "tempo": 120.0
            },
            {
                "start_time": 105.7909091,
                "end_time": 107.9977273,
                "pitch": 78,
                "velocity": 64,
                "duration": 2.2068182,
                "tempo": 120.0
            },
            {
                "start_time": 106.3931818,
                "end_time": 108.2,
                "pitch": 73,
                "velocity": 64,
                "duration": 1.8068182,
                "tempo": 120.0
            },
            {
                "start_time": 107.9977273,
                "end_time": 108.2,
                "pitch": 73,
                "velocity": 64,
                "duration": 0.2022727,
                "tempo": 120.0
            },
            {
                "start_time": 105.5909091,
                "end_time": 108.4,
                "pitch": 57,
                "velocity": 64,
                "duration": 2.8090909,
                "tempo": 120.0
            },
            {
                "start_time": 108.2,
                "end_time": 108.4,
                "pitch": 69,
                "velocity": 64,
                "duration": 0.2,
                "tempo": 120.0
            },
            {
                "start_time": 108.4,
                "end_time": 108.6022727,
                "pitch": 62,
                "velocity": 64,
                "duration": 0.2022727,
                "tempo": 120.0
            },
            {
                "start_time": 108.6022727,
                "end_time": 108.8022727,
                "pitch": 66,
                "velocity": 64,
                "duration": 0.2,
                "tempo": 120.0
            },
            {
                "start_time": 107.9977273,
                "end_time": 108.8022727,
                "pitch": 78,
                "velocity": 64,
                "duration": 0.8045455,
                "tempo": 120.0
            },
            {
                "start_time": 108.2,
                "end_time": 109.0022727,
                "pitch": 73,
                "velocity": 64,
                "duration": 0.8022727,
                "tempo": 120.0
            },
            {
                "start_time": 108.8022727,
                "end_time": 109.0022727,
                "pitch": 73,
                "velocity": 64,
                "duration": 0.2,
                "tempo": 120.0
            },
            {
                "start_time": 107.1954545,
                "end_time": 109.2022727,
                "pitch": 67,
                "velocity": 64,
                "duration": 2.0068182,
                "tempo": 120.0
            },
            {
                "start_time": 109.0022727,
                "end_time": 109.2022727,
                "pitch": 67,
                "velocity": 64,
                "duration": 0.2,
                "tempo": 120.0
            },
            {
                "start_time": 109.2022727,
                "end_time": 109.4045455,
                "pitch": 66,
                "velocity": 64,
                "duration": 0.2022727,
                "tempo": 120.0
            },
            {
                "start_time": 108.6022727,
                "end_time": 109.6068182,
                "pitch": 62,
                "velocity": 64,
                "duration": 1.0045455,
                "tempo": 120.0
            },
            {
                "start_time": 109.4045455,
                "end_time": 109.6068182,
                "pitch": 62,
                "velocity": 64,
                "duration": 0.2022727,
                "tempo": 120.0
            },
            {
                "start_time": 107.3954545,
                "end_time": 109.6068182,
                "pitch": 74,
                "velocity": 64,
                "duration": 2.2113636,
                "tempo": 120.0
            },
            {
                "start_time": 109.6068182,
                "end_time": 109.8068182,
                "pitch": 69,
                "velocity": 64,
                "duration": 0.2,
                "tempo": 120.0
            },
            {
                "start_time": 109.8068182,
                "end_time": 110.0068182,
                "pitch": 69,
                "velocity": 64,
                "duration": 0.2,
                "tempo": 120.0
            },
            {
                "start_time": 110.0068182,
                "end_time": 110.2068182,
                "pitch": 69,
                "velocity": 64,
                "duration": 0.2,
                "tempo": 120.0
            },
            {
                "start_time": 108.4,
                "end_time": 110.4090909,
                "pitch": 57,
                "velocity": 64,
                "duration": 2.0090909,
                "tempo": 120.0
            },
            {
                "start_time": 110.2068182,
                "end_time": 110.4090909,
                "pitch": 67,
                "velocity": 64,
                "duration": 0.2022727,
                "tempo": 120.0
            },
            {
                "start_time": 107.7977273,
                "end_time": 110.6090909,
                "pitch": 64,
                "velocity": 64,
                "duration": 2.8113636,
                "tempo": 120.0
            },
            {
                "start_time": 110.4090909,
                "end_time": 110.6090909,
                "pitch": 64,
                "velocity": 64,
                "duration": 0.2,
                "tempo": 120.0
            },
            {
                "start_time": 109.4045455,
                "end_time": 110.8113636,
                "pitch": 66,
                "velocity": 64,
                "duration": 1.4068182,
                "tempo": 120.0
            },
            {
                "start_time": 110.6090909,
                "end_time": 110.8113636,
                "pitch": 66,
                "velocity": 64,
                "duration": 0.2022727,
                "tempo": 120.0
            },
            {
                "start_time": 108.8022727,
                "end_time": 110.8113636,
                "pitch": 78,
                "velocity": 64,
                "duration": 2.0090909,
                "tempo": 120.0
            },
            {
                "start_time": 110.8113636,
                "end_time": 111.0113636,
                "pitch": 67,
                "velocity": 64,
                "duration": 0.2,
                "tempo": 120.0
            },
            {
                "start_time": 111.0113636,
                "end_time": 111.2113636,
                "pitch": 71,
                "velocity": 64,
                "duration": 0.2,
                "tempo": 120.0
            },
            {
                "start_time": 111.0113636,
                "end_time": 111.4136364,
                "pitch": 67,
                "velocity": 64,
                "duration": 0.4022727,
                "tempo": 120.0
            },
            {
                "start_time": 111.2113636,
                "end_time": 111.4136364,
                "pitch": 67,
                "velocity": 64,
                "duration": 0.2022727,
                "tempo": 120.0
            },
            {
                "start_time": 109.0022727,
                "end_time": 111.6136364,
                "pitch": 73,
                "velocity": 64,
                "duration": 2.6113636,
                "tempo": 120.0
            },
            {
                "start_time": 111.4136364,
                "end_time": 111.6136364,
                "pitch": 73,
                "velocity": 64,
                "duration": 0.2,
                "tempo": 120.0
            },
            {
                "start_time": 111.6136364,
                "end_time": 111.8136364,
                "pitch": 69,
                "velocity": 64,
                "duration": 0.2,
                "tempo": 120.0
            },
            {
                "start_time": 110.4090909,
                "end_time": 112.0136364,
                "pitch": 57,
                "velocity": 64,
                "duration": 1.6045455,
                "tempo": 120.0
            },
            {
                "start_time": 111.8136364,
                "end_time": 112.0136364,
                "pitch": 69,
                "velocity": 64,
                "duration": 0.2,
                "tempo": 120.0
            },
            {
                "start_time": 112.0136364,
                "end_time": 112.2159091,
                "pitch": 66,
                "velocity": 64,
                "duration": 0.2022727,
                "tempo": 120.0
            },
            {
                "start_time": 112.2159091,
                "end_time": 112.4159091,
                "pitch": 66,
                "velocity": 64,
                "duration": 0.2,
                "tempo": 120.0
            },
            {
                "start_time": 110.8113636,
                "end_time": 112.4159091,
                "pitch": 78,
                "velocity": 64,
                "duration": 1.6045455,
                "tempo": 120.0
            },
            {
                "start_time": 111.6136364,
                "end_time": 112.6181818,
                "pitch": 73,
                "velocity": 64,
                "duration": 1.0045455,
                "tempo": 120.0
            },
            {
                "start_time": 112.4159091,
                "end_time": 112.6181818,
                "pitch": 73,
                "velocity": 64,
                "duration": 0.2022727,
                "tempo": 120.0
            },
            {
                "start_time": 111.2113636,
                "end_time": 112.8181818,
                "pitch": 71,
                "velocity": 64,
                "duration": 1.6068182,
                "tempo": 120.0
            },
            {
                "start_time": 112.6181818,
                "end_time": 112.8181818,
                "pitch": 71,
                "velocity": 64,
                "duration": 0.2,
                "tempo": 120.0
            },
            {
                "start_time": 112.8181818,
                "end_time": 113.0181818,
                "pitch": 71,
                "velocity": 64,
                "duration": 0.2,
                "tempo": 120.0
            },
            {
                "start_time": 111.4136364,
                "end_time": 113.2181818,
                "pitch": 67,
                "velocity": 64,
                "duration": 1.8045455,
                "tempo": 120.0
            },
            {
                "start_time": 113.0181818,
                "end_time": 113.2181818,
                "pitch": 67,
                "velocity": 64,
                "duration": 0.2,
                "tempo": 120.0
            },
            {
                "start_time": 112.0136364,
                "end_time": 113.4204545,
                "pitch": 57,
                "velocity": 64,
                "duration": 1.4068182,
                "tempo": 120.0
            },
            {
                "start_time": 113.2181818,
                "end_time": 113.4204545,
                "pitch": 67,
                "velocity": 64,
                "duration": 0.2022727,
                "tempo": 120.0
            },
            {
                "start_time": 113.4204545,
                "end_time": 113.6227273,
                "pitch": 66,
                "velocity": 64,
                "duration": 0.2022727,
                "tempo": 120.0
            },
            {
                "start_time": 113.6227273,
                "end_time": 113.8227273,
                "pitch": 66,
                "velocity": 64,
                "duration": 0.2,
                "tempo": 120.0
            },
            {
                "start_time": 113.8227273,
                "end_time": 114.0227273,
                "pitch": 62,
                "velocity": 64,
                "duration": 0.2,
                "tempo": 120.0
            },
            {
                "start_time": 109.6068182,
                "end_time": 114.0227273,
                "pitch": 74,
                "velocity": 64,
                "duration": 4.4159091,
                "tempo": 120.0
            },
            {
                "start_time": 106.1909091,
                "end_time": 114.425,
                "pitch": 76,
                "velocity": 64,
                "duration": 8.2340909,
                "tempo": 120.0
            },
            {
                "start_time": 114.0227273,
                "end_time": 114.425,
                "pitch": 76,
                "velocity": 64,
                "duration": 0.4022727,
                "tempo": 120.0
            },
            {
                "start_time": 112.6181818,
                "end_time": 114.8272727,
                "pitch": 73,
                "velocity": 64,
                "duration": 2.2090909,
                "tempo": 120.0
            },
            {
                "start_time": 114.425,
                "end_time": 114.8272727,
                "pitch": 73,
                "velocity": 64,
                "duration": 0.4022727,
                "tempo": 120.0
            },
            {
                "start_time": 114.8272727,
                "end_time": 115.6181818,
                "pitch": 69,
                "velocity": 64,
                "duration": 0.7909091,
                "tempo": 120.0
            },
            {
                "start_time": 113.4204545,
                "end_time": 117.6363636,
                "pitch": 57,
                "velocity": 64,
                "duration": 4.2159091,
                "tempo": 120.0
            },
            {
                "start_time": 117.2318182,
                "end_time": 117.6363636,
                "pitch": 69,
                "velocity": 64,
                "duration": 0.4045455,
                "tempo": 120.0
            },
            {
                "start_time": 113.8227273,
                "end_time": 118.0340909,
                "pitch": 66,
                "velocity": 64,
                "duration": 4.2113636,
                "tempo": 120.0
            },
            {
                "start_time": 117.6363636,
                "end_time": 118.0340909,
                "pitch": 66,
                "velocity": 64,
                "duration": 0.3977273,
                "tempo": 120.0
            },
            {
                "start_time": 112.4159091,
                "end_time": 118.0340909,
                "pitch": 78,
                "velocity": 64,
                "duration": 5.6181818,
                "tempo": 120.0
            },
            {
                "start_time": 114.8272727,
                "end_time": 118.2363636,
                "pitch": 73,
                "velocity": 64,
                "duration": 3.4090909,
                "tempo": 120.0
            },
            {
                "start_time": 118.0340909,
                "end_time": 118.2363636,
                "pitch": 73,
                "velocity": 64,
                "duration": 0.2022727,
                "tempo": 120.0
            },
            {
                "start_time": 118.2363636,
                "end_time": 118.8295455,
                "pitch": 69,
                "velocity": 64,
                "duration": 0.5931818,
                "tempo": 120.0
            },
            {
                "start_time": 117.6363636,
                "end_time": 119.2409091,
                "pitch": 57,
                "velocity": 64,
                "duration": 1.6045455,
                "tempo": 120.0
            },
            {
                "start_time": 118.8295455,
                "end_time": 119.2409091,
                "pitch": 69,
                "velocity": 64,
                "duration": 0.4113636,
                "tempo": 120.0
            },
            {
                "start_time": 119.2409091,
                "end_time": 119.6431818,
                "pitch": 62,
                "velocity": 64,
                "duration": 0.4022727,
                "tempo": 120.0
            },
            {
                "start_time": 114.0227273,
                "end_time": 119.6431818,
                "pitch": 74,
                "velocity": 64,
                "duration": 5.6204545,
                "tempo": 120.0
            },
            {
                "start_time": 113.0181818,
                "end_time": 120.0431818,
                "pitch": 71,
                "velocity": 64,
                "duration": 7.025,
                "tempo": 120.0
            },
            {
                "start_time": 119.6431818,
                "end_time": 120.0431818,
                "pitch": 71,
                "velocity": 64,
                "duration": 0.4,
                "tempo": 120.0
            },
            {
                "start_time": 120.0431818,
                "end_time": 120.4454545,
                "pitch": 67,
                "velocity": 64,
                "duration": 0.4022727,
                "tempo": 120.0
            },
            {
                "start_time": 120.4454545,
                "end_time": 120.6477273,
                "pitch": 67,
                "velocity": 64,
                "duration": 0.2022727,
                "tempo": 120.0
            },
            {
                "start_time": 119.6431818,
                "end_time": 120.85,
                "pitch": 74,
                "velocity": 64,
                "duration": 1.2068182,
                "tempo": 120.0
            },
            {
                "start_time": 120.6477273,
                "end_time": 120.85,
                "pitch": 74,
                "velocity": 64,
                "duration": 0.2022727,
                "tempo": 120.0
            },
            {
                "start_time": 120.85,
                "end_time": 121.05,
                "pitch": 74,
                "velocity": 64,
                "duration": 0.2,
                "tempo": 120.0
            },
            {
                "start_time": 118.2363636,
                "end_time": 121.25,
                "pitch": 73,
                "velocity": 64,
                "duration": 3.0136364,
                "tempo": 120.0
            },
            {
                "start_time": 121.05,
                "end_time": 121.25,
                "pitch": 73,
                "velocity": 64,
                "duration": 0.2,
                "tempo": 120.0
            },
            {
                "start_time": 120.0431818,
                "end_time": 122.0431818,
                "pitch": 71,
                "velocity": 64,
                "duration": 2.0,
                "tempo": 120.0
            },
            {
                "start_time": 121.25,
                "end_time": 122.0431818,
                "pitch": 71,
                "velocity": 64,
                "duration": 0.7931818,
                "tempo": 120.0
            },
            {
                "start_time": 114.425,
                "end_time": 122.4545455,
                "pitch": 76,
                "velocity": 64,
                "duration": 8.0295455,
                "tempo": 120.0
            },
            {
                "start_time": 122.0431818,
                "end_time": 122.4545455,
                "pitch": 76,
                "velocity": 64,
                "duration": 0.4113636,
                "tempo": 120.0
            },
            {
                "start_time": 120.6477273,
                "end_time": 122.8568182,
                "pitch": 69,
                "velocity": 64,
                "duration": 2.2090909,
                "tempo": 120.0
            },
            {
                "start_time": 122.4545455,
                "end_time": 122.8568182,
                "pitch": 69,
                "velocity": 64,
                "duration": 0.4022727,
                "tempo": 120.0
            },
            {
                "start_time": 122.8568182,
                "end_time": 123.6590909,
                "pitch": 73,
                "velocity": 64,
                "duration": 0.8022727,
                "tempo": 120.0
            },
            {
                "start_time": 122.0431818,
                "end_time": 124.0590909,
                "pitch": 71,
                "velocity": 64,
                "duration": 2.0159091,
                "tempo": 120.0
            },
            {
                "start_time": 123.6590909,
                "end_time": 124.0590909,
                "pitch": 71,
                "velocity": 64,
                "duration": 0.4,
                "tempo": 120.0
            },
            {
                "start_time": 121.25,
                "end_time": 124.4613636,
                "pitch": 74,
                "velocity": 64,
                "duration": 3.2113636,
                "tempo": 120.0
            },
            {
                "start_time": 124.0590909,
                "end_time": 124.4613636,
                "pitch": 74,
                "velocity": 64,
                "duration": 0.4022727,
                "tempo": 120.0
            },
            {
                "start_time": 123.6590909,
                "end_time": 125.2636364,
                "pitch": 73,
                "velocity": 64,
                "duration": 1.6045455,
                "tempo": 120.0
            },
            {
                "start_time": 124.4613636,
                "end_time": 125.2636364,
                "pitch": 74,
                "velocity": 64,
                "duration": 0.8022727,
                "tempo": 120.0
            },
            {
                "start_time": 124.0590909,
                "end_time": 125.6681818,
                "pitch": 71,
                "velocity": 64,
                "duration": 1.6090909,
                "tempo": 120.0
            },
            {
                "start_time": 125.2636364,
                "end_time": 125.6681818,
                "pitch": 71,
                "velocity": 64,
                "duration": 0.4045455,
                "tempo": 120.0
            },
            {
                "start_time": 125.6681818,
                "end_time": 126.0681818,
                "pitch": 67,
                "velocity": 64,
                "duration": 0.4,
                "tempo": 120.0
            },
            {
                "start_time": 126.0681818,
                "end_time": 126.4704545,
                "pitch": 67,
                "velocity": 64,
                "duration": 0.4022727,
                "tempo": 120.0
            },
            {
                "start_time": 122.8568182,
                "end_time": 126.4704545,
                "pitch": 69,
                "velocity": 64,
                "duration": 3.6136364,
                "tempo": 120.0
            },
            {
                "start_time": 126.4704545,
                "end_time": 126.8727273,
                "pitch": 74,
                "velocity": 64,
                "duration": 0.4022727,
                "tempo": 120.0
            },
            {
                "start_time": 126.4704545,
                "end_time": 127.2727273,
                "pitch": 69,
                "velocity": 64,
                "duration": 0.8022727,
                "tempo": 120.0
            },
            {
                "start_time": 126.8727273,
                "end_time": 127.2727273,
                "pitch": 69,
                "velocity": 64,
                "duration": 0.4,
                "tempo": 120.0
            },
            {
                "start_time": 126.8727273,
                "end_time": 127.675,
                "pitch": 74,
                "velocity": 64,
                "duration": 0.8022727,
                "tempo": 120.0
            },
            {
                "start_time": 127.2727273,
                "end_time": 127.675,
                "pitch": 74,
                "velocity": 64,
                "duration": 0.4022727,
                "tempo": 120.0
            },
            {
                "start_time": 125.6681818,
                "end_time": 128.4681818,
                "pitch": 71,
                "velocity": 64,
                "duration": 2.8,
                "tempo": 120.0
            },
            {
                "start_time": 127.675,
                "end_time": 128.4681818,
                "pitch": 71,
                "velocity": 64,
                "duration": 0.7931818,
                "tempo": 120.0
            },
            {
                "start_time": 128.4681818,
                "end_time": 128.6727273,
                "pitch": 71,
                "velocity": 64,
                "duration": 0.2045455,
                "tempo": 120.0
            }
        ],
        "Harpsichord": [
            {
                "start_time": 28.95,
                "end_time": 28.9522727,
                "pitch": 73,
                "velocity": 64,
                "duration": 0.0022727,
                "tempo": 120.0
            },
            {
                "start_time": 28.9522727,
                "end_time": 29.1522727,
                "pitch": 69,
                "velocity": 64,
                "duration": 0.2,
                "tempo": 120.0
            },
            {
                "start_time": 29.1522727,
                "end_time": 29.3522727,
                "pitch": 66,
                "velocity": 64,
                "duration": 0.2,
                "tempo": 120.0
            },
            {
                "start_time": 29.3522727,
                "end_time": 29.7522727,
                "pitch": 69,
                "velocity": 64,
                "duration": 0.4,
                "tempo": 120.0
            },
            {
                "start_time": 29.7522727,
                "end_time": 30.1545455,
                "pitch": 69,
                "velocity": 64,
                "duration": 0.4022727,
                "tempo": 120.0
            },
            {
                "start_time": 30.1545455,
                "end_time": 30.5545455,
                "pitch": 67,
                "velocity": 64,
                "duration": 0.4,
                "tempo": 120.0
            },
            {
                "start_time": 30.1545455,
                "end_time": 31.3568182,
                "pitch": 71,
                "velocity": 64,
                "duration": 1.2022727,
                "tempo": 120.0
            },
            {
                "start_time": 30.5545455,
                "end_time": 31.3568182,
                "pitch": 71,
                "velocity": 64,
                "duration": 0.8022727,
                "tempo": 120.0
            },
            {
                "start_time": 31.3568182,
                "end_time": 32.1590909,
                "pitch": 73,
                "velocity": 64,
                "duration": 0.8022727,
                "tempo": 120.0
            },
            {
                "start_time": 29.1522727,
                "end_time": 32.5590909,
                "pitch": 57,
                "velocity": 64,
                "duration": 3.4068182,
                "tempo": 120.0
            },
            {
                "start_time": 32.1590909,
                "end_time": 32.5590909,
                "pitch": 69,
                "velocity": 64,
                "duration": 0.4,
                "tempo": 120.0
            },
            {
                "start_time": 32.5590909,
                "end_time": 32.9590909,
                "pitch": 66,
                "velocity": 64,
                "duration": 0.4,
                "tempo": 120.0
            },
            {
                "start_time": 29.3522727,
                "end_time": 32.9590909,
                "pitch": 78,
                "velocity": 64,
                "duration": 3.6068182,
                "tempo": 120.0
            },
            {
                "start_time": 32.9590909,
                "end_time": 33.3613636,
                "pitch": 74,
                "velocity": 64,
                "duration": 0.4022727,
                "tempo": 120.0
            },
            {
                "start_time": 32.1590909,
                "end_time": 33.7613636,
                "pitch": 73,
                "velocity": 64,
                "duration": 1.6022727,
                "tempo": 120.0
            },
            {
                "start_time": 33.3613636,
                "end_time": 33.7613636,
                "pitch": 74,
                "velocity": 64,
                "duration": 0.4,
                "tempo": 120.0
            },
            {
                "start_time": 33.7613636,
                "end_time": 34.1613636,
                "pitch": 68,
                "velocity": 64,
                "duration": 0.4,
                "tempo": 120.0
            },
            {
                "start_time": 34.1613636,
                "end_time": 34.3613636,
                "pitch": 68,
                "velocity": 64,
                "duration": 0.2,
                "tempo": 120.0
            },
            {
                "start_time": 34.3613636,
                "end_time": 34.5613636,
                "pitch": 64,
                "velocity": 64,
                "duration": 0.2,
                "tempo": 120.0
            },
            {
                "start_time": 31.3568182,
                "end_time": 35.3522727,
                "pitch": 71,
                "velocity": 64,
                "duration": 3.9954545,
                "tempo": 120.0
            },
            {
                "start_time": 34.5613636,
                "end_time": 35.3522727,
                "pitch": 71,
                "velocity": 64,
                "duration": 0.7909091,
                "tempo": 120.0
            },
            {
                "start_time": 32.9590909,
                "end_time": 35.7636364,
                "pitch": 78,
                "velocity": 64,
                "duration": 2.8045455,
                "tempo": 120.0
            },
            {
                "start_time": 35.3522727,
                "end_time": 35.7636364,
                "pitch": 78,
                "velocity": 64,
                "duration": 0.4113636,
                "tempo": 120.0
            },
            {
                "start_time": 35.7636364,
                "end_time": 36.1636364,
                "pitch": 74,
                "velocity": 64,
                "duration": 0.4,
                "tempo": 120.0
            },
            {
                "start_time": 32.5590909,
                "end_time": 36.5636364,
                "pitch": 57,
                "velocity": 64,
                "duration": 4.0045455,
                "tempo": 120.0
            },
            {
                "start_time": 36.1636364,
                "end_time": 36.5636364,
                "pitch": 69,
                "velocity": 64,
                "duration": 0.4,
                "tempo": 120.0
            },
            {
                "start_time": 36.5636364,
                "end_time": 36.9636364,
                "pitch": 66,
                "velocity": 64,
                "duration": 0.4,
                "tempo": 120.0
            },
            {
                "start_time": 35.7636364,
                "end_time": 36.9636364,
                "pitch": 78,
                "velocity": 64,
                "duration": 1.2,
                "tempo": 120.0
            },
            {
                "start_time": 35.3522727,
                "end_time": 38.5613636,
                "pitch": 71,
                "velocity": 64,
                "duration": 3.2090909,
                "tempo": 120.0
            },
            {
                "start_time": 36.9636364,
                "end_time": 38.5613636,
                "pitch": 71,
                "velocity": 64,
                "duration": 1.5977273,
                "tempo": 120.0
            },
            {
                "start_time": 38.5613636,
                "end_time": 39.3636364,
                "pitch": 71,
                "velocity": 64,
                "duration": 0.8022727,
                "tempo": 120.0
            },
            {
                "start_time": 39.3636364,
                "end_time": 39.775,
                "pitch": 69,
                "velocity": 64,
                "duration": 0.4113636,
                "tempo": 120.0
            },
            {
                "start_time": 39.775,
                "end_time": 40.175,
                "pitch": 69,
                "velocity": 64,
                "duration": 0.4,
                "tempo": 120.0
            },
            {
                "start_time": 33.7613636,
                "end_time": 40.9863636,
                "pitch": 73,
                "velocity": 64,
                "duration": 7.225,
                "tempo": 120.0
            },
            {
                "start_time": 40.175,
                "end_time": 40.9863636,
                "pitch": 73,
                "velocity": 64,
                "duration": 0.8113636,
                "tempo": 120.0
            }
        ]
    }
}