{
    "mood": "relaxed",
    "instruments": {
        "Church Organ": [
            {
                "start_time": 0.0090909,
                "end_time": 1.7772727,
                "pitch": 79,
                "velocity": 80,
                "duration": 1.7681818,
                "tempo": 120.0
            },
            {
                "start_time": 1.7931818,
                "end_time": 2.3886364,
                "pitch": 76,
                "velocity": 80,
                "duration": 0.5954545,
                "tempo": 120.0
            },
            {
                "start_time": 2.4045455,
                "end_time": 2.9704545,
                "pitch": 77,
                "velocity": 80,
                "duration": 0.5659091,
                "tempo": 120.0
            },
            {
                "start_time": 2.9863636,
                "end_time": 3.5818182,
                "pitch": 79,
                "velocity": 80,
                "duration": 0.5954545,
                "tempo": 120.0
            },
            {
                "start_time": 3.5977273,
                "end_time": 4.1772727,
                "pitch": 72,
                "velocity": 80,
                "duration": 0.5795455,
                "tempo": 120.0
            },
            {
                "start_time": 4.1931818,
                "end_time": 4.7886364,
                "pitch": 82,
                "velocity": 80,
                "duration": 0.5954545,
                "tempo": 120.0
            },
            {
                "start_time": 4.8045455,
                "end_time": 6.6,
                "pitch": 84,
                "velocity": 80,
                "duration": 1.7954545,
                "tempo": 120.0
            },
            {
                "start_time": 6.6181818,
                "end_time": 7.2068182,
                "pitch": 82,
                "velocity": 80,
                "duration": 0.5886364,
                "tempo": 120.0
            },
            {
                "start_time": 7.2227273,
                "end_time": 9.6318182,
                "pitch": 81,
                "velocity": 80,
                "duration": 2.4090909,
                "tempo": 120.0
            },
            {
                "start_time": 9.6477273,
                "end_time": 11.4318182,
                "pitch": 77,
                "velocity": 80,
                "duration": 1.7840909,
                "tempo": 120.0
            },
            {
                "start_time": 11.4477273,
                "end_time": 12.0318182,
                "pitch": 79,
                "velocity": 80,
                "duration": 0.5840909,
                "tempo": 120.0
            },
            {
                "start_time": 12.0477273,
                "end_time": 13.2363636,
                "pitch": 82,
                "velocity": 80,
                "duration": 1.1886364,
                "tempo": 120.0
            },
            {
                "start_time": 13.2545455,
                "end_time": 13.8318182,
                "pitch": 81,
                "velocity": 80,
                "duration": 0.5772727,
                "tempo": 120.0
            },
            {
                "start_time": 13.8477273,
                "end_time": 14.4431818,
                "pitch": 82,
                "velocity": 80,
                "duration": 0.5954545,
                "tempo": 120.0
            },
            {
                "start_time": 14.4590909,
                "end_time": 16.25,
                "pitch": 79,
                "velocity": 80,
                "duration": 1.7909091,
                "tempo": 120.0
            },
            {
                "start_time": 16.2659091,
                "end_time": 16.8613636,
                "pitch": 77,
                "velocity": 80,
                "duration": 0.5954545,
                "tempo": 120.0
            },
            {
                "start_time": 16.8772727,
                "end_time": 19.275,
                "pitch": 79,
                "velocity": 80,
                "duration": 2.3977273,
                "tempo": 120.0
            },
            {
                "start_time": 19.2909091,
                "end_time": 21.075,
                "pitch": 79,
                "velocity": 80,
                "duration": 1.7840909,
                "tempo": 120.0
            },
            {
                "start_time": 21.0909091,
                "end_time": 21.6863636,
                "pitch": 76,
                "velocity": 80,
                "duration": 0.5954545,
                "tempo": 120.0
            },
            {
                "start_time": 21.7022727,
                "end_time": 22.2681818,
                "pitch": 77,
                "velocity": 80,
                "duration": 0.5659091,
                "tempo": 120.0
            },
            {
                "start_time": 22.2840909,
                "end_time": 22.8795455,
                "pitch": 79,
                "velocity": 80,
                "duration": 0.5954545,
                "tempo": 120.0
            },
            {
                "start_time": 22.8977273,
                "end_time": 23.475,
                "pitch": 72,
                "velocity": 80,
                "duration": 0.5772727,
                "tempo": 120.0
            },
            {
                "start_time": 23.4909091,
                "end_time": 24.0863636,
                "pitch": 82,
                "velocity": 80,
                "duration": 0.5954545,
                "tempo": 120.0
            },
            {
                "start_time": 24.1022727,
                "end_time": 25.8977273,
                "pitch": 84,
                "velocity": 80,
                "duration": 1.7954545,
                "tempo": 120.0
            },
            {
                "start_time": 25.9159091,
                "end_time": 26.5113636,
                "pitch": 82,
                "velocity": 80,
                "duration": 0.5954545,
                "tempo": 120.0
            },
            {
                "start_time": 26.5272727,
                "end_time": 28.9113636,
                "pitch": 81,
                "velocity": 80,
                "duration": 2.3840909,
                "tempo": 120.0
            },
            {
                "start_time": 28.9272727,
                "end_time": 31.3227273,
                "pitch": 77,
                "velocity": 80,
                "duration": 2.3954545,
                "tempo": 120.0
            },
            {
                "start_time": 31.3409091,
                "end_time": 32.5295455,
                "pitch": 82,
                "velocity": 80,
                "duration": 1.1886364,
                "tempo": 120.0
            },
            {
                "start_time": 32.5454545,
                "end_time": 33.1227273,
                "pitch": 81,
                "velocity": 80,
                "duration": 0.5772727,
                "tempo": 120.0
            },
            {
                "start_time": 33.1409091,
                "end_time": 33.7340909,
                "pitch": 82,
                "velocity": 80,
                "duration": 0.5931818,
                "tempo": 120.0
            },
            {
                "start_time": 33.7522727,
                "end_time": 36.1659091,
                "pitch": 81,
                "velocity": 80,
                "duration": 2.4136364,
                "tempo": 120.0
            },
            {
                "start_time": 36.1818182,
                "end_time": 38.5727273,
                "pitch": 79,
                "velocity": 80,
                "duration": 2.3909091,
                "tempo": 120.0
            },
            {
                "start_time": 38.5886364,
                "end_time": 40.3840909,
                "pitch": 83,
                "velocity": 80,
                "duration": 1.7954545,
                "tempo": 120.0
            },
            {
                "start_time": 40.4,
                "end_time": 40.9954545,
                "pitch": 83,
                "velocity": 80,
                "duration": 0.5954545,
                "tempo": 120.0
            },
            {
                "start_time": 41.0113636,
                "end_time": 41.5795455,
                "pitch": 81,
                "velocity": 80,
                "duration": 0.5681818,
                "tempo": 120.0
            },
            {
                "start_time": 41.5954545,
                "end_time": 42.1909091,
                "pitch": 83,
                "velocity": 80,
                "duration": 0.5954545,
                "tempo": 120.0
            },
            {
                "start_time": 42.2068182,
                "end_time": 42.7840909,
                "pitch": 79,
                "velocity": 80,
                "duration": 0.5772727,
                "tempo": 120.0
            },
            {
                "start_time": 42.8,
                "end_time": 43.4090909,
                "pitch": 86,
                "velocity": 80,
                "duration": 0.6090909,
                "tempo": 120.0
            },
            {
                "start_time": 43.425,
                "end_time": 45.2090909,
                "pitch": 83,
                "velocity": 80,
                "duration": 1.7840909,
                "tempo": 120.0
            },
            {
                "start_time": 45.225,
                "end_time": 45.8204545,
                "pitch": 79,
                "velocity": 80,
                "duration": 0.5954545,
                "tempo": 120.0
            },
            {
                "start_time": 45.8363636,
                "end_time": 46.4159091,
                "pitch": 81,
                "velocity": 80,
                "duration": 0.5795455,
                "tempo": 120.0
            },
            {
                "start_time": 46.4318182,
                "end_time": 47.0204545,
                "pitch": 83,
                "velocity": 80,
                "duration": 0.5886364,
                "tempo": 120.0
            },
            {
                "start_time": 47.0386364,
                "end_time": 48.2386364,
                "pitch": 79,
                "velocity": 80,
                "duration": 1.2,
                "tempo": 120.0
            },
            {
                "start_time": 48.2545455,
                "end_time": 50.6454545,
                "pitch": 80,
                "velocity": 80,
                "duration": 2.3909091,
                "tempo": 120.0
            },
            {
                "start_time": 50.6613636,
                "end_time": 51.8568182,
                "pitch": 83,
                "velocity": 80,
                "duration": 1.1954545,
                "tempo": 120.0
            },
            {
                "start_time": 51.8727273,
                "end_time": 53.0636364,
                "pitch": 79,
                "velocity": 80,
                "duration": 1.1909091,
                "tempo": 120.0
            },
            {
                "start_time": 53.0795455,
                "end_time": 55.475,
                "pitch": 84,
                "velocity": 80,
                "duration": 2.3954545,
                "tempo": 120.0
            }
        ],
        "Acoustic Bass": [
            {
                "start_time": 0.0204545,
                "end_time": 2.3886364,
                "pitch": 48,
                "velocity": 40,
                "duration": 2.3681818,
                "tempo": 120.0
            },
            {
                "start_time": 4.8045455,
                "end_time": 7.2068182,
                "pitch": 45,
                "velocity": 40,
                "duration": 2.4022727,
                "tempo": 120.0
            },
            {
                "start_time": 8.4295455,
                "end_time": 9.0181818,
                "pitch": 43,
                "velocity": 40,
                "duration": 0.5886364,
                "tempo": 120.0
            },
            {
                "start_time": 9.0363636,
                "end_time": 9.6318182,
                "pitch": 45,
                "velocity": 40,
                "duration": 0.5954545,
                "tempo": 120.0
            },
            {
                "start_time": 9.6477273,
                "end_time": 12.0318182,
                "pitch": 46,
                "velocity": 40,
                "duration": 2.3840909,
                "tempo": 120.0
            },
            {
                "start_time": 13.2545455,
                "end_time": 13.8318182,
                "pitch": 45,
                "velocity": 40,
                "duration": 0.5772727,
                "tempo": 120.0
            },
            {
                "start_time": 13.8477273,
                "end_time": 14.4431818,
                "pitch": 46,
                "velocity": 40,
                "duration": 0.5954545,
                "tempo": 120.0
            },
            {
                "start_time": 14.4590909,
                "end_time": 17.4431818,
                "pitch": 48,
                "velocity": 40,
                "duration": 2.9840909,
                "tempo": 120.0
            },
            {
                "start_time": 17.4590909,
                "end_time": 18.0681818,
                "pitch": 40,
                "velocity": 40,
                "duration": 0.6090909,
                "tempo": 120.0
            },
            {
                "start_time": 18.0840909,
                "end_time": 18.6681818,
                "pitch": 41,
                "velocity": 40,
                "duration": 0.5840909,
                "tempo": 120.0
            },
            {
                "start_time": 18.6840909,
                "end_time": 19.275,
                "pitch": 43,
                "velocity": 40,
                "duration": 0.5909091,
                "tempo": 120.0
            },
            {
                "start_time": 19.2909091,
                "end_time": 21.6863636,
                "pitch": 48,
                "velocity": 40,
                "duration": 2.3954545,
                "tempo": 120.0
            },
            {
                "start_time": 23.4909091,
                "end_time": 24.0863636,
                "pitch": 48,
                "velocity": 40,
                "duration": 0.5954545,
                "tempo": 120.0
            },
            {
                "start_time": 24.1022727,
                "end_time": 26.5113636,
                "pitch": 45,
                "velocity": 40,
                "duration": 2.4090909,
                "tempo": 120.0
            },
            {
                "start_time": 28.3227273,
                "end_time": 28.9113636,
                "pitch": 45,
                "velocity": 40,
                "duration": 0.5886364,
                "tempo": 120.0
            },
            {
                "start_time": 28.9272727,
                "end_time": 31.3227273,
                "pitch": 46,
                "velocity": 40,
                "duration": 2.3954545,
                "tempo": 120.0
            },
            {
                "start_time": 32.5454545,
                "end_time": 33.1227273,
                "pitch": 45,
                "velocity": 40,
                "duration": 0.5772727,
                "tempo": 120.0
            },
            {
                "start_time": 33.1409091,
                "end_time": 33.7340909,
                "pitch": 46,
                "velocity": 40,
                "duration": 0.5931818,
                "tempo": 120.0
            },
            {
                "start_time": 33.7522727,
                "end_time": 34.9522727,
                "pitch": 48,
                "velocity": 40,
                "duration": 1.2,
                "tempo": 120.0
            },
            {
                "start_time": 34.9704545,
                "end_time": 36.1659091,
                "pitch": 43,
                "velocity": 40,
                "duration": 1.1954545,
                "tempo": 120.0
            },
            {
                "start_time": 36.1818182,
                "end_time": 38.5727273,
                "pitch": 40,
                "velocity": 40,
                "duration": 2.3909091,
                "tempo": 120.0
            },
            {
                "start_time": 38.5886364,
                "end_time": 38.6227273,
                "pitch": 40,
                "velocity": 40,
                "duration": 0.0340909,
                "tempo": 120.0
            },
            {
                "start_time": 38.6386364,
                "end_time": 40.9954545,
                "pitch": 40,
                "velocity": 40,
                "duration": 2.3568182,
                "tempo": 120.0
            },
            {
                "start_time": 42.2068182,
                "end_time": 42.7840909,
                "pitch": 38,
                "velocity": 40,
                "duration": 0.5772727,
                "tempo": 120.0
            },
            {
                "start_time": 42.8,
                "end_time": 43.4090909,
                "pitch": 43,
                "velocity": 40,
                "duration": 0.6090909,
                "tempo": 120.0
            },
            {
                "start_time": 43.425,
                "end_time": 45.8204545,
                "pitch": 41,
                "velocity": 40,
                "duration": 2.3954545,
                "tempo": 120.0
            },
            {
                "start_time": 45.8363636,
                "end_time": 47.0204545,
                "pitch": 48,
                "velocity": 40,
                "duration": 1.1840909,
                "tempo": 120.0
            },
            {
                "start_time": 47.0386364,
                "end_time": 48.2386364,
                "pitch": 41,
                "velocity": 40,
                "duration": 1.2,
                "tempo": 120.0
            },
            {
                "start_time": 48.2545455,
                "end_time": 50.6454545,
                "pitch": 44,
                "velocity": 40,
                "duration": 2.3909091,
                "tempo": 120.0
            },
            {
                "start_time": 50.6613636,
                "end_time": 53.0636364,
                "pitch": 39,
                "velocity": 40,
                "duration": 2.4022727,
                "tempo": 120.0
            },
            {
                "start_time": 53.0795455,
                "end_time": 55.475,
                "pitch": 48,
                "velocity": 40,
                "duration": 2.3954545,
                "tempo": 120.0
            }
        ]
    }
}