{
    "mood": "relaxed",
    "instruments": {
        "Vibraphone": [
            {
                "start_time": 0.0136364,
                "end_time": 0.2477273,
                "pitch": 52,
                "velocity": 80,
                "duration": 0.2340909,
                "tempo": 120.0
            },
            {
                "start_time": 0.2477273,
                "end_time": 0.4818182,
                "pitch": 59,
                "velocity": 80,
                "duration": 0.2340909,
                "tempo": 120.0
            },
            {
                "start_time": 0.4818182,
                "end_time": 0.7113636,
                "pitch": 64,
                "velocity": 80,
                "duration": 0.2295455,
                "tempo": 120.0
            },
            {
                "start_time": 0.7113636,
                "end_time": 1.175,
                "pitch": 68,
                "velocity": 80,
                "duration": 0.4636364,
                "tempo": 120.0
            },
            {
                "start_time": 1.175,
                "end_time": 1.4090909,
                "pitch": 64,
                "velocity": 80,
                "duration": 0.2340909,
                "tempo": 120.0
            },
            {
                "start_time": 1.4090909,
                "end_time": 1.6454545,
                "pitch": 59,
                "velocity": 80,
                "duration": 0.2363636,
                "tempo": 120.0
            },
            {
                "start_time": 1.6454545,
                "end_time": 1.8795455,
                "pitch": 64,
                "velocity": 80,
                "duration": 0.2340909,
                "tempo": 120.0
            },
            {
                "start_time": 1.8795455,
                "end_time": 2.1136364,
                "pitch": 52,
                "velocity": 80,
                "duration": 0.2340909,
                "tempo": 120.0
            },
            {
                "start_time": 2.1136364,
                "end_time": 2.3477273,
                "pitch": 59,
                "velocity": 80,
                "duration": 0.2340909,
                "tempo": 120.0
            },
            {
                "start_time": 2.3477273,
                "end_time": 2.5772727,
                "pitch": 64,
                "velocity": 80,
                "duration": 0.2295455,
                "tempo": 120.0
            },
            {
                "start_time": 2.5772727,
                "end_time": 3.0409091,
                "pitch": 68,
                "velocity": 80,
                "duration": 0.4636364,
                "tempo": 120.0
            },
            {
                "start_time": 3.0409091,
                "end_time": 3.275,
                "pitch": 64,
                "velocity": 80,
                "duration": 0.2340909,
                "tempo": 120.0
            },
            {
                "start_time": 3.275,
                "end_time": 3.5090909,
                "pitch": 59,
                "velocity": 80,
                "duration": 0.2340909,
                "tempo": 120.0
            },
            {
                "start_time": 3.5090909,
                "end_time": 3.7431818,
                "pitch": 64,
                "velocity": 80,
                "duration": 0.2340909,
                "tempo": 120.0
            },
            {
                "start_time": 3.7431818,
                "end_time": 3.9727273,
                "pitch": 49,
                "velocity": 80,
                "duration": 0.2295455,
                "tempo": 120.0
            },
            {
                "start_time": 3.9727273,
                "end_time": 4.2022727,
                "pitch": 61,
                "velocity": 80,
                "duration": 0.2295455,
                "tempo": 120.0
            },
            {
                "start_time": 4.2022727,
                "end_time": 4.4363636,
                "pitch": 64,
                "velocity": 80,
                "duration": 0.2340909,
                "tempo": 120.0
            },
            {
                "start_time": 4.4363636,
                "end_time": 4.9,
                "pitch": 68,
                "velocity": 80,
                "duration": 0.4636364,
                "tempo": 120.0
            },
            {
                "start_time": 4.9,
                "end_time": 5.1295455,
                "pitch": 64,
                "velocity": 80,
                "duration": 0.2295455,
                "tempo": 120.0
            },
            {
                "start_time": 5.1295455,
                "end_time": 5.3636364,
                "pitch": 59,
                "velocity": 80,
                "duration": 0.2340909,
                "tempo": 120.0
            },
            {
                "start_time": 5.3636364,
                "end_time": 5.5977273,
                "pitch": 64,
                "velocity": 80,
                "duration": 0.2340909,
                "tempo": 120.0
            },
            {
                "start_time": 5.5977273,
                "end_time": 5.8318182,
                "pitch": 47,
                "velocity": 80,
                "duration": 0.2340909,
                "tempo": 120.0
            },
            {
                "start_time": 5.8318182,
                "end_time": 6.0681818,
                "pitch": 59,
                "velocity": 80,
                "duration": 0.2363636,
                "tempo": 120.0
            },
            {
                "start_time": 6.0681818,
                "end_time": 6.2954545,
                "pitch": 64,
                "velocity": 80,
                "duration": 0.2272727,
                "tempo": 120.0
            },
            {
                "start_time": 6.2954545,
                "end_time": 6.7272727,
                "pitch": 68,
                "velocity": 80,
                "duration": 0.4318182,
                "tempo": 120.0
            },
            {
                "start_time": 6.7272727,
                "end_time": 6.9454545,
                "pitch": 64,
                "velocity": 80,
                "duration": 0.2181818,
                "tempo": 120.0
            },
            {
                "start_time": 6.9454545,
                "end_time": 7.1863636,
                "pitch": 59,
                "velocity": 80,
                "duration": 0.2409091,
                "tempo": 120.0
            },
            {
                "start_time": 7.1863636,
                "end_time": 7.4272727,
                "pitch": 64,
                "velocity": 80,
                "duration": 0.2409091,
                "tempo": 120.0
            },
            {
                "start_time": 7.4272727,
                "end_time": 7.6613636,
                "pitch": 45,
                "velocity": 80,
                "duration": 0.2340909,
                "tempo": 120.0
            },
            {
                "start_time": 7.6613636,
                "end_time": 7.8954545,
                "pitch": 45,
                "velocity": 80,
                "duration": 0.2340909,
                "tempo": 120.0
            },
            {
                "start_time": 7.8954545,
                "end_time": 8.1295455,
                "pitch": 45,
                "velocity": 80,
                "duration": 0.2340909,
                "tempo": 120.0
            },
            {
                "start_time": 8.1295455,
                "end_time": 8.3636364,
                "pitch": 45,
                "velocity": 80,
                "duration": 0.2340909,
                "tempo": 120.0
            },
            {
                "start_time": 8.3636364,
                "end_time": 8.5886364,
                "pitch": 45,
                "velocity": 80,
                "duration": 0.225,
                "tempo": 120.0
            },
            {
                "start_time": 8.5886364,
                "end_time": 8.8113636,
                "pitch": 45,
                "velocity": 80,
                "duration": 0.2227273,
                "tempo": 120.0
            },
            {
                "start_time": 8.8113636,
                "end_time": 9.05,
                "pitch": 45,
                "velocity": 80,
                "duration": 0.2386364,
                "tempo": 120.0
            },
            {
                "start_time": 9.05,
                "end_time": 9.2863636,
                "pitch": 45,
                "velocity": 80,
                "duration": 0.2363636,
                "tempo": 120.0
            },
            {
                "start_time": 9.2863636,
                "end_time": 9.5068182,
                "pitch": 45,
                "velocity": 80,
                "duration": 0.2204545,
                "tempo": 120.0
            },
            {
                "start_time": 9.5068182,
                "end_time": 9.725,
                "pitch": 45,
                "velocity": 80,
                "duration": 0.2181818,
                "tempo": 120.0
            },
            {
                "start_time": 9.725,
                "end_time": 9.9681818,
                "pitch": 45,
                "velocity": 80,
                "duration": 0.2431818,
                "tempo": 120.0
            },
            {
                "start_time": 9.9681818,
                "end_time": 10.2113636,
                "pitch": 45,
                "velocity": 80,
                "duration": 0.2431818,
                "tempo": 120.0
            },
            {
                "start_time": 10.2113636,
                "end_time": 10.4363636,
                "pitch": 45,
                "velocity": 80,
                "duration": 0.225,
                "tempo": 120.0
            },
            {
                "start_time": 10.4363636,
                "end_time": 10.6590909,
                "pitch": 45,
                "velocity": 80,
                "duration": 0.2227273,
                "tempo": 120.0
            },
            {
                "start_time": 10.6590909,
                "end_time": 10.9,
                "pitch": 45,
                "velocity": 80,
                "duration": 0.2409091,
                "tempo": 120.0
            },
            {
                "start_time": 10.9,
                "end_time": 11.1409091,
                "pitch": 45,
                "velocity": 80,
                "duration": 0.2409091,
                "tempo": 120.0
            },
            {
                "start_time": 11.1409091,
                "end_time": 11.375,
                "pitch": 47,
                "velocity": 80,
                "duration": 0.2340909,
                "tempo": 120.0
            },
            {
                "start_time": 11.375,
                "end_time": 11.6090909,
                "pitch": 47,
                "velocity": 80,
                "duration": 0.2340909,
                "tempo": 120.0
            },
            {
                "start_time": 11.6090909,
                "end_time": 11.8431818,
                "pitch": 47,
                "velocity": 80,
                "duration": 0.2340909,
                "tempo": 120.0
            },
            {
                "start_time": 11.8431818,
                "end_time": 12.0772727,
                "pitch": 47,
                "velocity": 80,
                "duration": 0.2340909,
                "tempo": 120.0
            },
            {
                "start_time": 12.0772727,
                "end_time": 12.3068182,
                "pitch": 47,
                "velocity": 80,
                "duration": 0.2295455,
                "tempo": 120.0
            },
            {
                "start_time": 12.3068182,
                "end_time": 12.5363636,
                "pitch": 47,
                "velocity": 80,
                "duration": 0.2295455,
                "tempo": 120.0
            },
            {
                "start_time": 12.5363636,
                "end_time": 12.7545455,
                "pitch": 47,
                "velocity": 80,
                "duration": 0.2181818,
                "tempo": 120.0
            },
            {
                "start_time": 12.7545455,
                "end_time": 12.9886364,
                "pitch": 47,
                "velocity": 80,
                "duration": 0.2340909,
                "tempo": 120.0
            },
            {
                "start_time": 12.9886364,
                "end_time": 13.2113636,
                "pitch": 47,
                "velocity": 80,
                "duration": 0.2227273,
                "tempo": 120.0
            },
            {
                "start_time": 13.2113636,
                "end_time": 13.4363636,
                "pitch": 47,
                "velocity": 80,
                "duration": 0.225,
                "tempo": 120.0
            },
            {
                "start_time": 13.4363636,
                "end_time": 13.6704545,
                "pitch": 47,
                "velocity": 80,
                "duration": 0.2340909,
                "tempo": 120.0
            },
            {
                "start_time": 13.6704545,
                "end_time": 13.9045455,
                "pitch": 49,
                "velocity": 80,
                "duration": 0.2340909,
                "tempo": 120.0
            },
            {
                "start_time": 13.9045455,
                "end_time": 14.1386364,
                "pitch": 51,
                "velocity": 80,
                "duration": 0.2340909,
                "tempo": 120.0
            },
            {
                "start_time": 14.1386364,
                "end_time": 14.375,
                "pitch": 51,
                "velocity": 80,
                "duration": 0.2363636,
                "tempo": 120.0
            },
            {
                "start_time": 14.375,
                "end_time": 14.6022727,
                "pitch": 51,
                "velocity": 80,
                "duration": 0.2272727,
                "tempo": 120.0
            },
            {
                "start_time": 14.6022727,
                "end_time": 14.8318182,
                "pitch": 52,
                "velocity": 80,
                "duration": 0.2295455,
                "tempo": 120.0
            },
            {
                "start_time": 14.8318182,
                "end_time": 14.8477273,
                "pitch": 52,
                "velocity": 80,
                "duration": 0.0159091,
                "tempo": 120.0
            }
        ]
    }
}