{
    "mood": "relaxed",
    "instruments": {
        "Clarinet": [
            {
                "start_time": 0.35,
                "end_time": 0.5659091,
                "pitch": 67,
                "velocity": 40,
                "duration": 0.2159091,
                "tempo": 120.0
            },
            {
                "start_time": 0.5840909,
                "end_time": 0.7840909,
                "pitch": 67,
                "velocity": 40,
                "duration": 0.2,
                "tempo": 120.0
            },
            {
                "start_time": 0.7840909,
                "end_time": 1.0204545,
                "pitch": 69,
                "velocity": 40,
                "duration": 0.2363636,
                "tempo": 120.0
            },
            {
                "start_time": 1.0204545,
                "end_time": 1.2272727,
                "pitch": 71,
                "velocity": 40,
                "duration": 0.2068182,
                "tempo": 120.0
            },
            {
                "start_time": 1.2272727,
                "end_time": 2.1045455,
                "pitch": 72,
                "velocity": 40,
                "duration": 0.8772727,
                "tempo": 120.0
            },
            {
                "start_time": 2.1045455,
                "end_time": 2.7340909,
                "pitch": 74,
                "velocity": 40,
                "duration": 0.6295455,
                "tempo": 120.0
            },
            {
                "start_time": 2.7340909,
                "end_time": 2.9681818,
                "pitch": 76,
                "velocity": 40,
                "duration": 0.2340909,
                "tempo": 120.0
            },
            {
                "start_time": 2.9681818,
                "end_time": 3.8113636,
                "pitch": 72,
                "velocity": 40,
                "duration": 0.8431818,
                "tempo": 120.0
            },
            {
                "start_time": 3.8295455,
                "end_time": 4.4681818,
                "pitch": 72,
                "velocity": 40,
                "duration": 0.6386364,
                "tempo": 120.0
            },
            {
                "start_time": 4.4681818,
                "end_time": 4.5840909,
                "pitch": 72,
                "velocity": 40,
                "duration": 0.1159091,
                "tempo": 120.0
            },
            {
                "start_time": 4.5840909,
                "end_time": 4.6863636,
                "pitch": 71,
                "velocity": 40,
                "duration": 0.1022727,
                "tempo": 120.0
            },
            {
                "start_time": 4.6863636,
                "end_time": 5.1136364,
                "pitch": 69,
                "velocity": 40,
                "duration": 0.4272727,
                "tempo": 120.0
            },
            {
                "start_time": 5.1136364,
                "end_time": 5.5477273,
                "pitch": 71,
                "velocity": 40,
                "duration": 0.4340909,
                "tempo": 120.0
            },
            {
                "start_time": 5.5477273,
                "end_time": 6.1840909,
                "pitch": 71,
                "velocity": 40,
                "duration": 0.6363636,
                "tempo": 120.0
            },
            {
                "start_time": 6.1840909,
                "end_time": 6.4227273,
                "pitch": 71,
                "velocity": 40,
                "duration": 0.2386364,
                "tempo": 120.0
            },
            {
                "start_time": 6.4227273,
                "end_time": 7.3,
                "pitch": 69,
                "velocity": 40,
                "duration": 0.8772727,
                "tempo": 120.0
            },
            {
                "start_time": 7.3,
                "end_time": 7.5022727,
                "pitch": 69,
                "velocity": 40,
                "duration": 0.2022727,
                "tempo": 120.0
            },
            {
                "start_time": 7.5022727,
                "end_time": 7.7090909,
                "pitch": 67,
                "velocity": 40,
                "duration": 0.2068182,
                "tempo": 120.0
            },
            {
                "start_time": 7.725,
                "end_time": 7.9204545,
                "pitch": 69,
                "velocity": 40,
                "duration": 0.1954545,
                "tempo": 120.0
            },
            {
                "start_time": 7.9204545,
                "end_time": 8.1545455,
                "pitch": 71,
                "velocity": 40,
                "duration": 0.2340909,
                "tempo": 120.0
            },
            {
                "start_time": 8.1545455,
                "end_time": 9.0,
                "pitch": 72,
                "velocity": 40,
                "duration": 0.8454545,
                "tempo": 120.0
            },
            {
                "start_time": 9.0,
                "end_time": 9.6681818,
                "pitch": 74,
                "velocity": 40,
                "duration": 0.6681818,
                "tempo": 120.0
            },
            {
                "start_time": 9.6681818,
                "end_time": 9.8636364,
                "pitch": 76,
                "velocity": 40,
                "duration": 0.1954545,
                "tempo": 120.0
            },
            {
                "start_time": 9.8636364,
                "end_time": 10.7386364,
                "pitch": 72,
                "velocity": 40,
                "duration": 0.875,
                "tempo": 120.0
            },
            {
                "start_time": 10.7386364,
                "end_time": 11.3704545,
                "pitch": 79,
                "velocity": 40,
                "duration": 0.6318182,
                "tempo": 120.0
            },
            {
                "start_time": 11.3704545,
                "end_time": 11.5113636,
                "pitch": 77,
                "velocity": 40,
                "duration": 0.1409091,
                "tempo": 120.0
            },
            {
                "start_time": 11.5113636,
                "end_time": 11.6159091,
                "pitch": 77,
                "velocity": 40,
                "duration": 0.1045455,
                "tempo": 120.0
            },
            {
                "start_time": 11.6159091,
                "end_time": 12.0568182,
                "pitch": 74,
                "velocity": 40,
                "duration": 0.4409091,
                "tempo": 120.0
            },
            {
                "start_time": 12.0568182,
                "end_time": 12.4840909,
                "pitch": 74,
                "velocity": 40,
                "duration": 0.4272727,
                "tempo": 120.0
            },
            {
                "start_time": 12.4840909,
                "end_time": 13.325,
                "pitch": 72,
                "velocity": 40,
                "duration": 0.8409091,
                "tempo": 120.0
            },
            {
                "start_time": 13.325,
                "end_time": 14.1954545,
                "pitch": 72,
                "velocity": 40,
                "duration": 0.8704545,
                "tempo": 120.0
            },
            {
                "start_time": 14.2136364,
                "end_time": 15.0613636,
                "pitch": 79,
                "velocity": 40,
                "duration": 0.8477273,
                "tempo": 120.0
            },
            {
                "start_time": 15.0613636,
                "end_time": 15.4931818,
                "pitch": 74,
                "velocity": 40,
                "duration": 0.4318182,
                "tempo": 120.0
            },
            {
                "start_time": 15.4931818,
                "end_time": 15.9340909,
                "pitch": 79,
                "velocity": 40,
                "duration": 0.4409091,
                "tempo": 120.0
            },
            {
                "start_time": 15.9340909,
                "end_time": 16.7977273,
                "pitch": 79,
                "velocity": 40,
                "duration": 0.8636364,
                "tempo": 120.0
            },
            {
                "start_time": 16.7977273,
                "end_time": 17.6409091,
                "pitch": 77,
                "velocity": 40,
                "duration": 0.8431818,
                "tempo": 120.0
            },
            {
                "start_time": 17.6409091,
                "end_time": 18.0772727,
                "pitch": 84,
                "velocity": 40,
                "duration": 0.4363636,
                "tempo": 120.0
            },
            {
                "start_time": 18.0772727,
                "end_time": 18.5136364,
                "pitch": 84,
                "velocity": 40,
                "duration": 0.4363636,
                "tempo": 120.0
            },
            {
                "start_time": 18.5136364,
                "end_time": 18.9477273,
                "pitch": 83,
                "velocity": 40,
                "duration": 0.4340909,
                "tempo": 120.0
            },
            {
                "start_time": 18.9477273,
                "end_time": 19.3772727,
                "pitch": 81,
                "velocity": 40,
                "duration": 0.4295455,
                "tempo": 120.0
            },
            {
                "start_time": 19.3931818,
                "end_time": 20.25,
                "pitch": 83,
                "velocity": 40,
                "duration": 0.8568182,
                "tempo": 120.0
            },
            {
                "start_time": 20.25,
                "end_time": 21.1227273,
                "pitch": 83,
                "velocity": 40,
                "duration": 0.8727273,
                "tempo": 120.0
            },
            {
                "start_time": 21.1227273,
                "end_time": 21.9795455,
                "pitch": 81,
                "velocity": 40,
                "duration": 0.8568182,
                "tempo": 120.0
            },
            {
                "start_time": 21.9795455,
                "end_time": 22.3909091,
                "pitch": 74,
                "velocity": 40,
                "duration": 0.4113636,
                "tempo": 120.0
            },
            {
                "start_time": 22.3909091,
                "end_time": 22.8295455,
                "pitch": 79,
                "velocity": 40,
                "duration": 0.4386364,
                "tempo": 120.0
            },
            {
                "start_time": 22.8295455,
                "end_time": 23.7045455,
                "pitch": 79,
                "velocity": 40,
                "duration": 0.875,
                "tempo": 120.0
            },
            {
                "start_time": 23.7045455,
                "end_time": 24.5636364,
                "pitch": 77,
                "velocity": 40,
                "duration": 0.8590909,
                "tempo": 120.0
            },
            {
                "start_time": 24.5636364,
                "end_time": 24.9954545,
                "pitch": 84,
                "velocity": 40,
                "duration": 0.4318182,
                "tempo": 120.0
            },
            {
                "start_time": 24.9954545,
                "end_time": 25.4340909,
                "pitch": 84,
                "velocity": 40,
                "duration": 0.4386364,
                "tempo": 120.0
            },
            {
                "start_time": 25.4340909,
                "end_time": 25.8795455,
                "pitch": 83,
                "velocity": 40,
                "duration": 0.4454545,
                "tempo": 120.0
            },
            {
                "start_time": 25.8795455,
                "end_time": 26.3,
                "pitch": 81,
                "velocity": 40,
                "duration": 0.4204545,
                "tempo": 120.0
            },
            {
                "start_time": 26.3,
                "end_time": 27.7113636,
                "pitch": 79,
                "velocity": 40,
                "duration": 1.4113636,
                "tempo": 120.0
            }
        ],
        "Acoustic Bass": [
            {
                "start_time": 0.0318182,
                "end_time": 0.1318182,
                "pitch": 43,
                "velocity": 101,
                "duration": 0.1,
                "tempo": 120.0
            },
            {
                "start_time": 0.1318182,
                "end_time": 0.2318182,
                "pitch": 43,
                "velocity": 101,
                "duration": 0.1,
                "tempo": 120.0
            },
            {
                "start_time": 0.2318182,
                "end_time": 0.35,
                "pitch": 55,
                "velocity": 101,
                "duration": 0.1181818,
                "tempo": 120.0
            },
            {
                "start_time": 0.35,
                "end_time": 0.45,
                "pitch": 43,
                "velocity": 101,
                "duration": 0.1,
                "tempo": 120.0
            },
            {
                "start_time": 0.45,
                "end_time": 0.5659091,
                "pitch": 43,
                "velocity": 101,
                "duration": 0.1159091,
                "tempo": 120.0
            },
            {
                "start_time": 0.5659091,
                "end_time": 0.6681818,
                "pitch": 43,
                "velocity": 101,
                "duration": 0.1022727,
                "tempo": 120.0
            },
            {
                "start_time": 0.6681818,
                "end_time": 0.7840909,
                "pitch": 55,
                "velocity": 101,
                "duration": 0.1159091,
                "tempo": 120.0
            },
            {
                "start_time": 0.7840909,
                "end_time": 0.9022727,
                "pitch": 43,
                "velocity": 101,
                "duration": 0.1181818,
                "tempo": 120.0
            },
            {
                "start_time": 0.9022727,
                "end_time": 1.0045455,
                "pitch": 43,
                "velocity": 101,
                "duration": 0.1022727,
                "tempo": 120.0
            },
            {
                "start_time": 1.0045455,
                "end_time": 1.1068182,
                "pitch": 43,
                "velocity": 101,
                "duration": 0.1022727,
                "tempo": 120.0
            },
            {
                "start_time": 1.1068182,
                "end_time": 1.2090909,
                "pitch": 55,
                "velocity": 101,
                "duration": 0.1022727,
                "tempo": 120.0
            },
            {
                "start_time": 1.2090909,
                "end_time": 1.3295455,
                "pitch": 43,
                "velocity": 101,
                "duration": 0.1204545,
                "tempo": 120.0
            },
            {
                "start_time": 1.3454545,
                "end_time": 1.4272727,
                "pitch": 43,
                "velocity": 101,
                "duration": 0.0818182,
                "tempo": 120.0
            },
            {
                "start_time": 1.4272727,
                "end_time": 1.5409091,
                "pitch": 43,
                "velocity": 101,
                "duration": 0.1136364,
                "tempo": 120.0
            },
            {
                "start_time": 1.5409091,
                "end_time": 1.6409091,
                "pitch": 55,
                "velocity": 101,
                "duration": 0.1,
                "tempo": 120.0
            },
            {
                "start_time": 1.6409091,
                "end_time": 1.7704545,
                "pitch": 43,
                "velocity": 101,
                "duration": 0.1295455,
                "tempo": 120.0
            },
            {
                "start_time": 1.7704545,
                "end_time": 1.8590909,
                "pitch": 41,
                "velocity": 101,
                "duration": 0.0886364,
                "tempo": 120.0
            },
            {
                "start_time": 1.8590909,
                "end_time": 1.9818182,
                "pitch": 41,
                "velocity": 101,
                "duration": 0.1227273,
                "tempo": 120.0
            },
            {
                "start_time": 1.9818182,
                "end_time": 2.0863636,
                "pitch": 53,
                "velocity": 101,
                "duration": 0.1045455,
                "tempo": 120.0
            },
            {
                "start_time": 2.0863636,
                "end_time": 2.2090909,
                "pitch": 41,
                "velocity": 101,
                "duration": 0.1227273,
                "tempo": 120.0
            },
            {
                "start_time": 2.2090909,
                "end_time": 2.3068182,
                "pitch": 41,
                "velocity": 101,
                "duration": 0.0977273,
                "tempo": 120.0
            },
            {
                "start_time": 2.3068182,
                "end_time": 2.4227273,
                "pitch": 41,
                "velocity": 101,
                "duration": 0.1159091,
                "tempo": 120.0
            },
            {
                "start_time": 2.4227273,
                "end_time": 2.5204545,
                "pitch": 53,
                "velocity": 101,
                "duration": 0.0977273,
                "tempo": 120.0
            },
            {
                "start_time": 2.5204545,
                "end_time": 2.6340909,
                "pitch": 41,
                "velocity": 101,
                "duration": 0.1136364,
                "tempo": 120.0
            },
            {
                "start_time": 2.6340909,
                "end_time": 2.7340909,
                "pitch": 41,
                "velocity": 101,
                "duration": 0.1,
                "tempo": 120.0
            },
            {
                "start_time": 2.7340909,
                "end_time": 2.8363636,
                "pitch": 41,
                "velocity": 101,
                "duration": 0.1022727,
                "tempo": 120.0
            },
            {
                "start_time": 2.8363636,
                "end_time": 2.9522727,
                "pitch": 53,
                "velocity": 101,
                "duration": 0.1159091,
                "tempo": 120.0
            },
            {
                "start_time": 2.9522727,
                "end_time": 3.0522727,
                "pitch": 41,
                "velocity": 101,
                "duration": 0.1,
                "tempo": 120.0
            },
            {
                "start_time": 3.0522727,
                "end_time": 3.1704545,
                "pitch": 41,
                "velocity": 101,
                "duration": 0.1181818,
                "tempo": 120.0
            },
            {
                "start_time": 3.1704545,
                "end_time": 3.2704545,
                "pitch": 41,
                "velocity": 101,
                "duration": 0.1,
                "tempo": 120.0
            },
            {
                "start_time": 3.2704545,
                "end_time": 3.3886364,
                "pitch": 53,
                "velocity": 101,
                "duration": 0.1181818,
                "tempo": 120.0
            },
            {
                "start_time": 3.3886364,
                "end_time": 3.5045455,
                "pitch": 41,
                "velocity": 101,
                "duration": 0.1159091,
                "tempo": 120.0
            },
            {
                "start_time": 3.5045455,
                "end_time": 3.5909091,
                "pitch": 41,
                "velocity": 101,
                "duration": 0.0863636,
                "tempo": 120.0
            },
            {
                "start_time": 3.5909091,
                "end_time": 3.7090909,
                "pitch": 40,
                "velocity": 101,
                "duration": 0.1181818,
                "tempo": 120.0
            },
            {
                "start_time": 3.7090909,
                "end_time": 3.8113636,
                "pitch": 52,
                "velocity": 101,
                "duration": 0.1022727,
                "tempo": 120.0
            },
            {
                "start_time": 3.8113636,
                "end_time": 3.9318182,
                "pitch": 40,
                "velocity": 101,
                "duration": 0.1204545,
                "tempo": 120.0
            },
            {
                "start_time": 3.9318182,
                "end_time": 4.0340909,
                "pitch": 40,
                "velocity": 101,
                "duration": 0.1022727,
                "tempo": 120.0
            },
            {
                "start_time": 4.0340909,
                "end_time": 4.15,
                "pitch": 40,
                "velocity": 101,
                "duration": 0.1159091,
                "tempo": 120.0
            },
            {
                "start_time": 4.15,
                "end_time": 4.25,
                "pitch": 52,
                "velocity": 101,
                "duration": 0.1,
                "tempo": 120.0
            },
            {
                "start_time": 4.25,
                "end_time": 4.3840909,
                "pitch": 40,
                "velocity": 101,
                "duration": 0.1340909,
                "tempo": 120.0
            },
            {
                "start_time": 4.3840909,
                "end_time": 4.4681818,
                "pitch": 40,
                "velocity": 101,
                "duration": 0.0840909,
                "tempo": 120.0
            },
            {
                "start_time": 4.4681818,
                "end_time": 4.5840909,
                "pitch": 40,
                "velocity": 101,
                "duration": 0.1159091,
                "tempo": 120.0
            },
            {
                "start_time": 4.5840909,
                "end_time": 4.6863636,
                "pitch": 52,
                "velocity": 101,
                "duration": 0.1022727,
                "tempo": 120.0
            },
            {
                "start_time": 4.6863636,
                "end_time": 4.8022727,
                "pitch": 40,
                "velocity": 101,
                "duration": 0.1159091,
                "tempo": 120.0
            },
            {
                "start_time": 4.8022727,
                "end_time": 4.9,
                "pitch": 40,
                "velocity": 101,
                "duration": 0.0977273,
                "tempo": 120.0
            },
            {
                "start_time": 4.9,
                "end_time": 5.0,
                "pitch": 40,
                "velocity": 101,
                "duration": 0.1,
                "tempo": 120.0
            },
            {
                "start_time": 5.0,
                "end_time": 5.1136364,
                "pitch": 52,
                "velocity": 101,
                "duration": 0.1136364,
                "tempo": 120.0
            },
            {
                "start_time": 5.1136364,
                "end_time": 5.2295455,
                "pitch": 40,
                "velocity": 101,
                "duration": 0.1159091,
                "tempo": 120.0
            },
            {
                "start_time": 5.2295455,
                "end_time": 5.3295455,
                "pitch": 38,
                "velocity": 101,
                "duration": 0.1,
                "tempo": 120.0
            },
            {
                "start_time": 5.3295455,
                "end_time": 5.4295455,
                "pitch": 38,
                "velocity": 101,
                "duration": 0.1,
                "tempo": 120.0
            },
            {
                "start_time": 5.4295455,
                "end_time": 5.5477273,
                "pitch": 50,
                "velocity": 101,
                "duration": 0.1181818,
                "tempo": 120.0
            },
            {
                "start_time": 5.5477273,
                "end_time": 5.6636364,
                "pitch": 38,
                "velocity": 101,
                "duration": 0.1159091,
                "tempo": 120.0
            },
            {
                "start_time": 5.6636364,
                "end_time": 5.7636364,
                "pitch": 38,
                "velocity": 101,
                "duration": 0.1,
                "tempo": 120.0
            },
            {
                "start_time": 5.7636364,
                "end_time": 5.8818182,
                "pitch": 38,
                "velocity": 101,
                "duration": 0.1181818,
                "tempo": 120.0
            },
            {
                "start_time": 5.8818182,
                "end_time": 5.9659091,
                "pitch": 50,
                "velocity": 101,
                "duration": 0.0840909,
                "tempo": 120.0
            },
            {
                "start_time": 5.9659091,
                "end_time": 6.0977273,
                "pitch": 38,
                "velocity": 101,
                "duration": 0.1318182,
                "tempo": 120.0
            },
            {
                "start_time": 6.0977273,
                "end_time": 6.1840909,
                "pitch": 38,
                "velocity": 101,
                "duration": 0.0863636,
                "tempo": 120.0
            },
            {
                "start_time": 6.1840909,
                "end_time": 6.3045455,
                "pitch": 38,
                "velocity": 101,
                "duration": 0.1204545,
                "tempo": 120.0
            },
            {
                "start_time": 6.3045455,
                "end_time": 6.4068182,
                "pitch": 50,
                "velocity": 101,
                "duration": 0.1022727,
                "tempo": 120.0
            },
            {
                "start_time": 6.4068182,
                "end_time": 6.5431818,
                "pitch": 38,
                "velocity": 101,
                "duration": 0.1363636,
                "tempo": 120.0
            },
            {
                "start_time": 6.5431818,
                "end_time": 6.625,
                "pitch": 38,
                "velocity": 101,
                "duration": 0.0818182,
                "tempo": 120.0
            },
            {
                "start_time": 6.625,
                "end_time": 6.7386364,
                "pitch": 38,
                "velocity": 101,
                "duration": 0.1136364,
                "tempo": 120.0
            },
            {
                "start_time": 6.7386364,
                "end_time": 6.8386364,
                "pitch": 50,
                "velocity": 101,
                "duration": 0.1,
                "tempo": 120.0
            },
            {
                "start_time": 6.8386364,
                "end_time": 6.9681818,
                "pitch": 38,
                "velocity": 101,
                "duration": 0.1295455,
                "tempo": 120.0
            },
            {
                "start_time": 6.9681818,
                "end_time": 7.0568182,
                "pitch": 43,
                "velocity": 101,
                "duration": 0.0886364,
                "tempo": 120.0
            },
            {
                "start_time": 7.0568182,
                "end_time": 7.1613636,
                "pitch": 43,
                "velocity": 101,
                "duration": 0.1045455,
                "tempo": 120.0
            },
            {
                "start_time": 7.1613636,
                "end_time": 7.2840909,
                "pitch": 55,
                "velocity": 101,
                "duration": 0.1227273,
                "tempo": 120.0
            },
            {
                "start_time": 7.2840909,
                "end_time": 7.4045455,
                "pitch": 43,
                "velocity": 101,
                "duration": 0.1204545,
                "tempo": 120.0
            },
            {
                "start_time": 7.4045455,
                "end_time": 7.5022727,
                "pitch": 43,
                "velocity": 101,
                "duration": 0.0977273,
                "tempo": 120.0
            },
            {
                "start_time": 7.5022727,
                "end_time": 7.5977273,
                "pitch": 43,
                "velocity": 101,
                "duration": 0.0954545,
                "tempo": 120.0
            },
            {
                "start_time": 7.5977273,
                "end_time": 7.7090909,
                "pitch": 55,
                "velocity": 101,
                "duration": 0.1113636,
                "tempo": 120.0
            },
            {
                "start_time": 7.7090909,
                "end_time": 7.8204545,
                "pitch": 43,
                "velocity": 101,
                "duration": 0.1113636,
                "tempo": 120.0
            },
            {
                "start_time": 7.8204545,
                "end_time": 7.9204545,
                "pitch": 43,
                "velocity": 101,
                "duration": 0.1,
                "tempo": 120.0
            },
            {
                "start_time": 7.9204545,
                "end_time": 8.0204545,
                "pitch": 43,
                "velocity": 101,
                "duration": 0.1,
                "tempo": 120.0
            },
            {
                "start_time": 8.0204545,
                "end_time": 8.1386364,
                "pitch": 55,
                "velocity": 101,
                "duration": 0.1181818,
                "tempo": 120.0
            },
            {
                "start_time": 8.1386364,
                "end_time": 8.2545455,
                "pitch": 43,
                "velocity": 101,
                "duration": 0.1159091,
                "tempo": 120.0
            },
            {
                "start_time": 8.2545455,
                "end_time": 8.3409091,
                "pitch": 43,
                "velocity": 101,
                "duration": 0.0863636,
                "tempo": 120.0
            },
            {
                "start_time": 8.3409091,
                "end_time": 8.4613636,
                "pitch": 43,
                "velocity": 101,
                "duration": 0.1204545,
                "tempo": 120.0
            },
            {
                "start_time": 8.4613636,
                "end_time": 8.5636364,
                "pitch": 55,
                "velocity": 101,
                "duration": 0.1022727,
                "tempo": 120.0
            },
            {
                "start_time": 8.5636364,
                "end_time": 8.7,
                "pitch": 43,
                "velocity": 101,
                "duration": 0.1363636,
                "tempo": 120.0
            },
            {
                "start_time": 8.7,
                "end_time": 8.7840909,
                "pitch": 41,
                "velocity": 101,
                "duration": 0.0840909,
                "tempo": 120.0
            },
            {
                "start_time": 8.7840909,
                "end_time": 8.9,
                "pitch": 41,
                "velocity": 101,
                "duration": 0.1159091,
                "tempo": 120.0
            },
            {
                "start_time": 8.9,
                "end_time": 9.0,
                "pitch": 53,
                "velocity": 101,
                "duration": 0.1,
                "tempo": 120.0
            },
            {
                "start_time": 9.0,
                "end_time": 9.1181818,
                "pitch": 41,
                "velocity": 101,
                "duration": 0.1181818,
                "tempo": 120.0
            },
            {
                "start_time": 9.1181818,
                "end_time": 9.2181818,
                "pitch": 41,
                "velocity": 101,
                "duration": 0.1,
                "tempo": 120.0
            },
            {
                "start_time": 9.2181818,
                "end_time": 9.3522727,
                "pitch": 41,
                "velocity": 101,
                "duration": 0.1340909,
                "tempo": 120.0
            },
            {
                "start_time": 9.3522727,
                "end_time": 9.4363636,
                "pitch": 53,
                "velocity": 101,
                "duration": 0.0840909,
                "tempo": 120.0
            },
            {
                "start_time": 9.4363636,
                "end_time": 9.5522727,
                "pitch": 41,
                "velocity": 101,
                "duration": 0.1159091,
                "tempo": 120.0
            },
            {
                "start_time": 9.5522727,
                "end_time": 9.6522727,
                "pitch": 41,
                "velocity": 101,
                "duration": 0.1,
                "tempo": 120.0
            },
            {
                "start_time": 9.6522727,
                "end_time": 9.75,
                "pitch": 41,
                "velocity": 101,
                "duration": 0.0977273,
                "tempo": 120.0
            },
            {
                "start_time": 9.75,
                "end_time": 9.8636364,
                "pitch": 53,
                "velocity": 101,
                "duration": 0.1136364,
                "tempo": 120.0
            },
            {
                "start_time": 9.8636364,
                "end_time": 9.9636364,
                "pitch": 41,
                "velocity": 101,
                "duration": 0.1,
                "tempo": 120.0
            },
            {
                "start_time": 9.9636364,
                "end_time": 10.0795455,
                "pitch": 41,
                "velocity": 101,
                "duration": 0.1159091,
                "tempo": 120.0
            },
            {
                "start_time": 10.0795455,
                "end_time": 10.1795455,
                "pitch": 41,
                "velocity": 101,
                "duration": 0.1,
                "tempo": 120.0
            },
            {
                "start_time": 10.1795455,
                "end_time": 10.2977273,
                "pitch": 53,
                "velocity": 101,
                "duration": 0.1181818,
                "tempo": 120.0
            },
            {
                "start_time": 10.2977273,
                "end_time": 10.4136364,
                "pitch": 41,
                "velocity": 101,
                "duration": 0.1159091,
                "tempo": 120.0
            },
            {
                "start_time": 10.4136364,
                "end_time": 10.5159091,
                "pitch": 41,
                "velocity": 101,
                "duration": 0.1022727,
                "tempo": 120.0
            },
            {
                "start_time": 10.5159091,
                "end_time": 10.6181818,
                "pitch": 40,
                "velocity": 101,
                "duration": 0.1022727,
                "tempo": 120.0
            },
            {
                "start_time": 10.6181818,
                "end_time": 10.7227273,
                "pitch": 52,
                "velocity": 101,
                "duration": 0.1045455,
                "tempo": 120.0
            },
            {
                "start_time": 10.7227273,
                "end_time": 10.8409091,
                "pitch": 40,
                "velocity": 101,
                "duration": 0.1181818,
                "tempo": 120.0
            },
            {
                "start_time": 10.8409091,
                "end_time": 10.9409091,
                "pitch": 40,
                "velocity": 101,
                "duration": 0.1,
                "tempo": 120.0
            },
            {
                "start_time": 10.9409091,
                "end_time": 11.0545455,
                "pitch": 40,
                "velocity": 101,
                "duration": 0.1136364,
                "tempo": 120.0
            },
            {
                "start_time": 11.0545455,
                "end_time": 11.1522727,
                "pitch": 52,
                "velocity": 101,
                "duration": 0.0977273,
                "tempo": 120.0
            },
            {
                "start_time": 11.1522727,
                "end_time": 11.2840909,
                "pitch": 40,
                "velocity": 101,
                "duration": 0.1318182,
                "tempo": 120.0
            },
            {
                "start_time": 11.2840909,
                "end_time": 11.3704545,
                "pitch": 40,
                "velocity": 101,
                "duration": 0.0863636,
                "tempo": 120.0
            },
            {
                "start_time": 11.3704545,
                "end_time": 11.4931818,
                "pitch": 40,
                "velocity": 101,
                "duration": 0.1227273,
                "tempo": 120.0
            },
            {
                "start_time": 11.4931818,
                "end_time": 11.5977273,
                "pitch": 52,
                "velocity": 101,
                "duration": 0.1045455,
                "tempo": 120.0
            },
            {
                "start_time": 11.5977273,
                "end_time": 11.7386364,
                "pitch": 40,
                "velocity": 101,
                "duration": 0.1409091,
                "tempo": 120.0
            },
            {
                "start_time": 11.7386364,
                "end_time": 11.8227273,
                "pitch": 40,
                "velocity": 101,
                "duration": 0.0840909,
                "tempo": 120.0
            },
            {
                "start_time": 11.8227273,
                "end_time": 11.9227273,
                "pitch": 40,
                "velocity": 101,
                "duration": 0.1,
                "tempo": 120.0
            },
            {
                "start_time": 11.9227273,
                "end_time": 12.0386364,
                "pitch": 52,
                "velocity": 101,
                "duration": 0.1159091,
                "tempo": 120.0
            },
            {
                "start_time": 12.0386364,
                "end_time": 12.1568182,
                "pitch": 40,
                "velocity": 101,
                "duration": 0.1181818,
                "tempo": 120.0
            },
            {
                "start_time": 12.1568182,
                "end_time": 12.2545455,
                "pitch": 38,
                "velocity": 101,
                "duration": 0.0977273,
                "tempo": 120.0
            },
            {
                "start_time": 12.2545455,
                "end_time": 12.3545455,
                "pitch": 38,
                "velocity": 101,
                "duration": 0.1,
                "tempo": 120.0
            },
            {
                "start_time": 12.3545455,
                "end_time": 12.4681818,
                "pitch": 50,
                "velocity": 101,
                "duration": 0.1136364,
                "tempo": 120.0
            },
            {
                "start_time": 12.4681818,
                "end_time": 12.5659091,
                "pitch": 38,
                "velocity": 101,
                "duration": 0.0977273,
                "tempo": 120.0
            },
            {
                "start_time": 12.5659091,
                "end_time": 12.6840909,
                "pitch": 38,
                "velocity": 101,
                "duration": 0.1181818,
                "tempo": 120.0
            },
            {
                "start_time": 12.6840909,
                "end_time": 12.7840909,
                "pitch": 38,
                "velocity": 101,
                "duration": 0.1,
                "tempo": 120.0
            },
            {
                "start_time": 12.7840909,
                "end_time": 12.8840909,
                "pitch": 50,
                "velocity": 101,
                "duration": 0.1,
                "tempo": 120.0
            },
            {
                "start_time": 12.8840909,
                "end_time": 13.0181818,
                "pitch": 38,
                "velocity": 101,
                "duration": 0.1340909,
                "tempo": 120.0
            },
            {
                "start_time": 13.0181818,
                "end_time": 13.1022727,
                "pitch": 38,
                "velocity": 101,
                "duration": 0.0840909,
                "tempo": 120.0
            },
            {
                "start_time": 13.1022727,
                "end_time": 13.2227273,
                "pitch": 38,
                "velocity": 101,
                "duration": 0.1204545,
                "tempo": 120.0
            },
            {
                "start_time": 13.2227273,
                "end_time": 13.325,
                "pitch": 50,
                "velocity": 101,
                "duration": 0.1022727,
                "tempo": 120.0
            },
            {
                "start_time": 13.325,
                "end_time": 13.4454545,
                "pitch": 38,
                "velocity": 101,
                "duration": 0.1204545,
                "tempo": 120.0
            },
            {
                "start_time": 13.4454545,
                "end_time": 13.5431818,
                "pitch": 38,
                "velocity": 101,
                "duration": 0.0977273,
                "tempo": 120.0
            },
            {
                "start_time": 13.5431818,
                "end_time": 13.6590909,
                "pitch": 38,
                "velocity": 101,
                "duration": 0.1159091,
                "tempo": 120.0
            },
            {
                "start_time": 13.6590909,
                "end_time": 13.7568182,
                "pitch": 50,
                "velocity": 101,
                "duration": 0.0977273,
                "tempo": 120.0
            },
            {
                "start_time": 13.7568182,
                "end_time": 13.8886364,
                "pitch": 38,
                "velocity": 101,
                "duration": 0.1318182,
                "tempo": 120.0
            },
            {
                "start_time": 13.8886364,
                "end_time": 13.9727273,
                "pitch": 43,
                "velocity": 101,
                "duration": 0.0840909,
                "tempo": 120.0
            },
            {
                "start_time": 13.9727273,
                "end_time": 14.075,
                "pitch": 43,
                "velocity": 101,
                "duration": 0.1022727,
                "tempo": 120.0
            },
            {
                "start_time": 14.075,
                "end_time": 14.1954545,
                "pitch": 55,
                "velocity": 101,
                "duration": 0.1204545,
                "tempo": 120.0
            },
            {
                "start_time": 14.1954545,
                "end_time": 14.2977273,
                "pitch": 43,
                "velocity": 101,
                "duration": 0.1022727,
                "tempo": 120.0
            },
            {
                "start_time": 14.2977273,
                "end_time": 14.4113636,
                "pitch": 43,
                "velocity": 101,
                "duration": 0.1136364,
                "tempo": 120.0
            },
            {
                "start_time": 14.4113636,
                "end_time": 14.5068182,
                "pitch": 43,
                "velocity": 101,
                "duration": 0.0954545,
                "tempo": 120.0
            },
            {
                "start_time": 14.5068182,
                "end_time": 14.6181818,
                "pitch": 55,
                "velocity": 101,
                "duration": 0.1113636,
                "tempo": 120.0
            },
            {
                "start_time": 14.6181818,
                "end_time": 14.7295455,
                "pitch": 43,
                "velocity": 101,
                "duration": 0.1113636,
                "tempo": 120.0
            },
            {
                "start_time": 14.7295455,
                "end_time": 14.8340909,
                "pitch": 43,
                "velocity": 101,
                "duration": 0.1045455,
                "tempo": 120.0
            },
            {
                "start_time": 14.8340909,
                "end_time": 14.9386364,
                "pitch": 43,
                "velocity": 101,
                "duration": 0.1045455,
                "tempo": 120.0
            },
            {
                "start_time": 14.9386364,
                "end_time": 15.0613636,
                "pitch": 55,
                "velocity": 101,
                "duration": 0.1227273,
                "tempo": 120.0
            },
            {
                "start_time": 15.0613636,
                "end_time": 15.1818182,
                "pitch": 43,
                "velocity": 101,
                "duration": 0.1204545,
                "tempo": 120.0
            },
            {
                "start_time": 15.1818182,
                "end_time": 15.2659091,
                "pitch": 43,
                "velocity": 101,
                "duration": 0.0840909,
                "tempo": 120.0
            },
            {
                "start_time": 15.2659091,
                "end_time": 15.3795455,
                "pitch": 43,
                "velocity": 101,
                "duration": 0.1136364,
                "tempo": 120.0
            },
            {
                "start_time": 15.3795455,
                "end_time": 15.4772727,
                "pitch": 55,
                "velocity": 101,
                "duration": 0.0977273,
                "tempo": 120.0
            },
            {
                "start_time": 15.4772727,
                "end_time": 15.6090909,
                "pitch": 43,
                "velocity": 101,
                "duration": 0.1318182,
                "tempo": 120.0
            },
            {
                "start_time": 15.6090909,
                "end_time": 15.6931818,
                "pitch": 41,
                "velocity": 101,
                "duration": 0.0840909,
                "tempo": 120.0
            },
            {
                "start_time": 15.6931818,
                "end_time": 15.8136364,
                "pitch": 41,
                "velocity": 101,
                "duration": 0.1204545,
                "tempo": 120.0
            },
            {
                "start_time": 15.8136364,
                "end_time": 15.9159091,
                "pitch": 53,
                "velocity": 101,
                "duration": 0.1022727,
                "tempo": 120.0
            },
            {
                "start_time": 15.9159091,
                "end_time": 16.0363636,
                "pitch": 41,
                "velocity": 101,
                "duration": 0.1204545,
                "tempo": 120.0
            },
            {
                "start_time": 16.0522727,
                "end_time": 16.1340909,
                "pitch": 41,
                "velocity": 101,
                "duration": 0.0818182,
                "tempo": 120.0
            },
            {
                "start_time": 16.1340909,
                "end_time": 16.25,
                "pitch": 41,
                "velocity": 101,
                "duration": 0.1159091,
                "tempo": 120.0
            },
            {
                "start_time": 16.25,
                "end_time": 16.3477273,
                "pitch": 53,
                "velocity": 101,
                "duration": 0.0977273,
                "tempo": 120.0
            },
            {
                "start_time": 16.3477273,
                "end_time": 16.4613636,
                "pitch": 41,
                "velocity": 101,
                "duration": 0.1136364,
                "tempo": 120.0
            },
            {
                "start_time": 16.4613636,
                "end_time": 16.5636364,
                "pitch": 41,
                "velocity": 101,
                "duration": 0.1022727,
                "tempo": 120.0
            },
            {
                "start_time": 16.5636364,
                "end_time": 16.6636364,
                "pitch": 41,
                "velocity": 101,
                "duration": 0.1,
                "tempo": 120.0
            },
            {
                "start_time": 16.6636364,
                "end_time": 16.7795455,
                "pitch": 53,
                "velocity": 101,
                "duration": 0.1159091,
                "tempo": 120.0
            },
            {
                "start_time": 16.7795455,
                "end_time": 16.8977273,
                "pitch": 41,
                "velocity": 101,
                "duration": 0.1181818,
                "tempo": 120.0
            },
            {
                "start_time": 16.8977273,
                "end_time": 16.9977273,
                "pitch": 41,
                "velocity": 101,
                "duration": 0.1,
                "tempo": 120.0
            },
            {
                "start_time": 16.9977273,
                "end_time": 17.0977273,
                "pitch": 41,
                "velocity": 101,
                "duration": 0.1,
                "tempo": 120.0
            },
            {
                "start_time": 17.0977273,
                "end_time": 17.2159091,
                "pitch": 53,
                "velocity": 101,
                "duration": 0.1181818,
                "tempo": 120.0
            },
            {
                "start_time": 17.2159091,
                "end_time": 17.3318182,
                "pitch": 41,
                "velocity": 101,
                "duration": 0.1159091,
                "tempo": 120.0
            },
            {
                "start_time": 17.3318182,
                "end_time": 17.4340909,
                "pitch": 41,
                "velocity": 101,
                "duration": 0.1022727,
                "tempo": 120.0
            },
            {
                "start_time": 17.4340909,
                "end_time": 17.5363636,
                "pitch": 40,
                "velocity": 101,
                "duration": 0.1022727,
                "tempo": 120.0
            },
            {
                "start_time": 17.5363636,
                "end_time": 17.6409091,
                "pitch": 52,
                "velocity": 101,
                "duration": 0.1045455,
                "tempo": 120.0
            },
            {
                "start_time": 17.6409091,
                "end_time": 17.7772727,
                "pitch": 40,
                "velocity": 101,
                "duration": 0.1363636,
                "tempo": 120.0
            },
            {
                "start_time": 17.7772727,
                "end_time": 17.8613636,
                "pitch": 40,
                "velocity": 101,
                "duration": 0.0840909,
                "tempo": 120.0
            },
            {
                "start_time": 17.8613636,
                "end_time": 17.9772727,
                "pitch": 40,
                "velocity": 101,
                "duration": 0.1159091,
                "tempo": 120.0
            },
            {
                "start_time": 17.9772727,
                "end_time": 18.0772727,
                "pitch": 52,
                "velocity": 101,
                "duration": 0.1,
                "tempo": 120.0
            },
            {
                "start_time": 18.0772727,
                "end_time": 18.2113636,
                "pitch": 40,
                "velocity": 101,
                "duration": 0.1340909,
                "tempo": 120.0
            },
            {
                "start_time": 18.2113636,
                "end_time": 18.2954545,
                "pitch": 40,
                "velocity": 101,
                "duration": 0.0840909,
                "tempo": 120.0
            },
            {
                "start_time": 18.2954545,
                "end_time": 18.4136364,
                "pitch": 40,
                "velocity": 101,
                "duration": 0.1181818,
                "tempo": 120.0
            },
            {
                "start_time": 18.4136364,
                "end_time": 18.5136364,
                "pitch": 52,
                "velocity": 101,
                "duration": 0.1,
                "tempo": 120.0
            },
            {
                "start_time": 18.5136364,
                "end_time": 18.6477273,
                "pitch": 40,
                "velocity": 101,
                "duration": 0.1340909,
                "tempo": 120.0
            },
            {
                "start_time": 18.6477273,
                "end_time": 18.7318182,
                "pitch": 40,
                "velocity": 101,
                "duration": 0.0840909,
                "tempo": 120.0
            },
            {
                "start_time": 18.7318182,
                "end_time": 18.8318182,
                "pitch": 40,
                "velocity": 101,
                "duration": 0.1,
                "tempo": 120.0
            },
            {
                "start_time": 18.8318182,
                "end_time": 18.9477273,
                "pitch": 52,
                "velocity": 101,
                "duration": 0.1159091,
                "tempo": 120.0
            },
            {
                "start_time": 18.9477273,
                "end_time": 19.0659091,
                "pitch": 40,
                "velocity": 101,
                "duration": 0.1181818,
                "tempo": 120.0
            },
            {
                "start_time": 19.0659091,
                "end_time": 19.1636364,
                "pitch": 38,
                "velocity": 101,
                "duration": 0.0977273,
                "tempo": 120.0
            },
            {
                "start_time": 19.1636364,
                "end_time": 19.2613636,
                "pitch": 38,
                "velocity": 101,
                "duration": 0.0977273,
                "tempo": 120.0
            },
            {
                "start_time": 19.2613636,
                "end_time": 19.3772727,
                "pitch": 50,
                "velocity": 101,
                "duration": 0.1159091,
                "tempo": 120.0
            },
            {
                "start_time": 19.3772727,
                "end_time": 19.4909091,
                "pitch": 38,
                "velocity": 101,
                "duration": 0.1136364,
                "tempo": 120.0
            },
            {
                "start_time": 19.4909091,
                "end_time": 19.5886364,
                "pitch": 38,
                "velocity": 101,
                "duration": 0.0977273,
                "tempo": 120.0
            },
            {
                "start_time": 19.5886364,
                "end_time": 19.6886364,
                "pitch": 38,
                "velocity": 101,
                "duration": 0.1,
                "tempo": 120.0
            },
            {
                "start_time": 19.6886364,
                "end_time": 19.8022727,
                "pitch": 50,
                "velocity": 101,
                "duration": 0.1136364,
                "tempo": 120.0
            },
            {
                "start_time": 19.8022727,
                "end_time": 19.9181818,
                "pitch": 38,
                "velocity": 101,
                "duration": 0.1159091,
                "tempo": 120.0
            },
            {
                "start_time": 19.9181818,
                "end_time": 20.0045455,
                "pitch": 38,
                "velocity": 101,
                "duration": 0.0863636,
                "tempo": 120.0
            },
            {
                "start_time": 20.0045455,
                "end_time": 20.1272727,
                "pitch": 38,
                "velocity": 101,
                "duration": 0.1227273,
                "tempo": 120.0
            },
            {
                "start_time": 20.1272727,
                "end_time": 20.2318182,
                "pitch": 50,
                "velocity": 101,
                "duration": 0.1045455,
                "tempo": 120.0
            },
            {
                "start_time": 20.2318182,
                "end_time": 20.3704545,
                "pitch": 38,
                "velocity": 101,
                "duration": 0.1386364,
                "tempo": 120.0
            },
            {
                "start_time": 20.3704545,
                "end_time": 20.4522727,
                "pitch": 38,
                "velocity": 101,
                "duration": 0.0818182,
                "tempo": 120.0
            },
            {
                "start_time": 20.4522727,
                "end_time": 20.5681818,
                "pitch": 38,
                "velocity": 101,
                "duration": 0.1159091,
                "tempo": 120.0
            },
            {
                "start_time": 20.5681818,
                "end_time": 20.6659091,
                "pitch": 50,
                "velocity": 101,
                "duration": 0.0977273,
                "tempo": 120.0
            },
            {
                "start_time": 20.6659091,
                "end_time": 20.7977273,
                "pitch": 38,
                "velocity": 101,
                "duration": 0.1318182,
                "tempo": 120.0
            },
            {
                "start_time": 20.7977273,
                "end_time": 20.8818182,
                "pitch": 43,
                "velocity": 101,
                "duration": 0.0840909,
                "tempo": 120.0
            },
            {
                "start_time": 20.8818182,
                "end_time": 21.0022727,
                "pitch": 43,
                "velocity": 101,
                "duration": 0.1204545,
                "tempo": 120.0
            },
            {
                "start_time": 21.0022727,
                "end_time": 21.1045455,
                "pitch": 55,
                "velocity": 101,
                "duration": 0.1022727,
                "tempo": 120.0
            },
            {
                "start_time": 21.1045455,
                "end_time": 21.2068182,
                "pitch": 43,
                "velocity": 101,
                "duration": 0.1022727,
                "tempo": 120.0
            },
            {
                "start_time": 21.2068182,
                "end_time": 21.3204545,
                "pitch": 43,
                "velocity": 101,
                "duration": 0.1136364,
                "tempo": 120.0
            },
            {
                "start_time": 21.3204545,
                "end_time": 21.4159091,
                "pitch": 43,
                "velocity": 101,
                "duration": 0.0954545,
                "tempo": 120.0
            },
            {
                "start_time": 21.4159091,
                "end_time": 21.5272727,
                "pitch": 55,
                "velocity": 101,
                "duration": 0.1113636,
                "tempo": 120.0
            },
            {
                "start_time": 21.5272727,
                "end_time": 21.6386364,
                "pitch": 43,
                "velocity": 101,
                "duration": 0.1113636,
                "tempo": 120.0
            },
            {
                "start_time": 21.6386364,
                "end_time": 21.7409091,
                "pitch": 43,
                "velocity": 101,
                "duration": 0.1022727,
                "tempo": 120.0
            },
            {
                "start_time": 21.7409091,
                "end_time": 21.8431818,
                "pitch": 43,
                "velocity": 101,
                "duration": 0.1022727,
                "tempo": 120.0
            },
            {
                "start_time": 21.8431818,
                "end_time": 21.9636364,
                "pitch": 55,
                "velocity": 101,
                "duration": 0.1204545,
                "tempo": 120.0
            },
            {
                "start_time": 21.9636364,
                "end_time": 22.0818182,
                "pitch": 43,
                "velocity": 101,
                "duration": 0.1181818,
                "tempo": 120.0
            },
            {
                "start_time": 22.0818182,
                "end_time": 22.1863636,
                "pitch": 43,
                "velocity": 101,
                "duration": 0.1045455,
                "tempo": 120.0
            },
            {
                "start_time": 22.1863636,
                "end_time": 22.2886364,
                "pitch": 43,
                "velocity": 101,
                "duration": 0.1022727,
                "tempo": 120.0
            },
            {
                "start_time": 22.2886364,
                "end_time": 22.3909091,
                "pitch": 55,
                "velocity": 101,
                "duration": 0.1022727,
                "tempo": 120.0
            },
            {
                "start_time": 22.3909091,
                "end_time": 22.5272727,
                "pitch": 43,
                "velocity": 101,
                "duration": 0.1363636,
                "tempo": 120.0
            },
            {
                "start_time": 22.5272727,
                "end_time": 22.6113636,
                "pitch": 41,
                "velocity": 101,
                "duration": 0.0840909,
                "tempo": 120.0
            },
            {
                "start_time": 22.6113636,
                "end_time": 22.7295455,
                "pitch": 41,
                "velocity": 101,
                "duration": 0.1181818,
                "tempo": 120.0
            },
            {
                "start_time": 22.7295455,
                "end_time": 22.8295455,
                "pitch": 53,
                "velocity": 101,
                "duration": 0.1,
                "tempo": 120.0
            },
            {
                "start_time": 22.8295455,
                "end_time": 22.9636364,
                "pitch": 41,
                "velocity": 101,
                "duration": 0.1340909,
                "tempo": 120.0
            },
            {
                "start_time": 22.9636364,
                "end_time": 23.0454545,
                "pitch": 41,
                "velocity": 101,
                "duration": 0.0818182,
                "tempo": 120.0
            },
            {
                "start_time": 23.0454545,
                "end_time": 23.1636364,
                "pitch": 41,
                "velocity": 101,
                "duration": 0.1181818,
                "tempo": 120.0
            },
            {
                "start_time": 23.1636364,
                "end_time": 23.2636364,
                "pitch": 53,
                "velocity": 101,
                "duration": 0.1,
                "tempo": 120.0
            },
            {
                "start_time": 23.2636364,
                "end_time": 23.3977273,
                "pitch": 41,
                "velocity": 101,
                "duration": 0.1340909,
                "tempo": 120.0
            },
            {
                "start_time": 23.3977273,
                "end_time": 23.4840909,
                "pitch": 41,
                "velocity": 101,
                "duration": 0.0863636,
                "tempo": 120.0
            },
            {
                "start_time": 23.4840909,
                "end_time": 23.5863636,
                "pitch": 41,
                "velocity": 101,
                "duration": 0.1022727,
                "tempo": 120.0
            },
            {
                "start_time": 23.5863636,
                "end_time": 23.7045455,
                "pitch": 53,
                "velocity": 101,
                "duration": 0.1181818,
                "tempo": 120.0
            },
            {
                "start_time": 23.7045455,
                "end_time": 23.825,
                "pitch": 41,
                "velocity": 101,
                "duration": 0.1204545,
                "tempo": 120.0
            },
            {
                "start_time": 23.825,
                "end_time": 23.9204545,
                "pitch": 41,
                "velocity": 101,
                "duration": 0.0954545,
                "tempo": 120.0
            },
            {
                "start_time": 23.9204545,
                "end_time": 24.0159091,
                "pitch": 41,
                "velocity": 101,
                "duration": 0.0954545,
                "tempo": 120.0
            },
            {
                "start_time": 24.0159091,
                "end_time": 24.1272727,
                "pitch": 53,
                "velocity": 101,
                "duration": 0.1113636,
                "tempo": 120.0
            },
            {
                "start_time": 24.1272727,
                "end_time": 24.2386364,
                "pitch": 41,
                "velocity": 101,
                "duration": 0.1113636,
                "tempo": 120.0
            },
            {
                "start_time": 24.2386364,
                "end_time": 24.3409091,
                "pitch": 41,
                "velocity": 101,
                "duration": 0.1022727,
                "tempo": 120.0
            },
            {
                "start_time": 24.3409091,
                "end_time": 24.4431818,
                "pitch": 40,
                "velocity": 101,
                "duration": 0.1022727,
                "tempo": 120.0
            },
            {
                "start_time": 24.4431818,
                "end_time": 24.5636364,
                "pitch": 52,
                "velocity": 101,
                "duration": 0.1204545,
                "tempo": 120.0
            },
            {
                "start_time": 24.5636364,
                "end_time": 24.6659091,
                "pitch": 40,
                "velocity": 101,
                "duration": 0.1022727,
                "tempo": 120.0
            },
            {
                "start_time": 24.6840909,
                "end_time": 24.7659091,
                "pitch": 40,
                "velocity": 101,
                "duration": 0.0818182,
                "tempo": 120.0
            },
            {
                "start_time": 24.7659091,
                "end_time": 24.8795455,
                "pitch": 40,
                "velocity": 101,
                "duration": 0.1136364,
                "tempo": 120.0
            },
            {
                "start_time": 24.8795455,
                "end_time": 24.9772727,
                "pitch": 52,
                "velocity": 101,
                "duration": 0.0977273,
                "tempo": 120.0
            },
            {
                "start_time": 24.9772727,
                "end_time": 25.1090909,
                "pitch": 40,
                "velocity": 101,
                "duration": 0.1318182,
                "tempo": 120.0
            },
            {
                "start_time": 25.1090909,
                "end_time": 25.1954545,
                "pitch": 40,
                "velocity": 101,
                "duration": 0.0863636,
                "tempo": 120.0
            },
            {
                "start_time": 25.1954545,
                "end_time": 25.3136364,
                "pitch": 40,
                "velocity": 101,
                "duration": 0.1181818,
                "tempo": 120.0
            },
            {
                "start_time": 25.3136364,
                "end_time": 25.4181818,
                "pitch": 52,
                "velocity": 101,
                "duration": 0.1045455,
                "tempo": 120.0
            },
            {
                "start_time": 25.4181818,
                "end_time": 25.5545455,
                "pitch": 40,
                "velocity": 101,
                "duration": 0.1363636,
                "tempo": 120.0
            },
            {
                "start_time": 25.5545455,
                "end_time": 25.6386364,
                "pitch": 40,
                "velocity": 101,
                "duration": 0.0840909,
                "tempo": 120.0
            },
            {
                "start_time": 25.6386364,
                "end_time": 25.7409091,
                "pitch": 40,
                "velocity": 101,
                "duration": 0.1022727,
                "tempo": 120.0
            },
            {
                "start_time": 25.7409091,
                "end_time": 25.8613636,
                "pitch": 52,
                "velocity": 101,
                "duration": 0.1204545,
                "tempo": 120.0
            },
            {
                "start_time": 25.8613636,
                "end_time": 25.9818182,
                "pitch": 40,
                "velocity": 101,
                "duration": 0.1204545,
                "tempo": 120.0
            },
            {
                "start_time": 25.9818182,
                "end_time": 26.0772727,
                "pitch": 38,
                "velocity": 101,
                "duration": 0.0954545,
                "tempo": 120.0
            },
            {
                "start_time": 26.0772727,
                "end_time": 26.1727273,
                "pitch": 38,
                "velocity": 101,
                "duration": 0.0954545,
                "tempo": 120.0
            },
            {
                "start_time": 26.1727273,
                "end_time": 26.2840909,
                "pitch": 50,
                "velocity": 101,
                "duration": 0.1113636,
                "tempo": 120.0
            },
            {
                "start_time": 26.2840909,
                "end_time": 26.3795455,
                "pitch": 38,
                "velocity": 101,
                "duration": 0.0954545,
                "tempo": 120.0
            },
            {
                "start_time": 26.3795455,
                "end_time": 26.4954545,
                "pitch": 38,
                "velocity": 101,
                "duration": 0.1159091,
                "tempo": 120.0
            },
            {
                "start_time": 26.4954545,
                "end_time": 26.5977273,
                "pitch": 38,
                "velocity": 101,
                "duration": 0.1022727,
                "tempo": 120.0
            },
            {
                "start_time": 26.5977273,
                "end_time": 26.7136364,
                "pitch": 50,
                "velocity": 101,
                "duration": 0.1159091,
                "tempo": 120.0
            },
            {
                "start_time": 26.7136364,
                "end_time": 26.8318182,
                "pitch": 38,
                "velocity": 101,
                "duration": 0.1181818,
                "tempo": 120.0
            },
            {
                "start_time": 26.8318182,
                "end_time": 26.9159091,
                "pitch": 38,
                "velocity": 101,
                "duration": 0.0840909,
                "tempo": 120.0
            },
            {
                "start_time": 26.9159091,
                "end_time": 27.0363636,
                "pitch": 38,
                "velocity": 101,
                "duration": 0.1204545,
                "tempo": 120.0
            },
            {
                "start_time": 27.0363636,
                "end_time": 27.1386364,
                "pitch": 50,
                "velocity": 101,
                "duration": 0.1022727,
                "tempo": 120.0
            },
            {
                "start_time": 27.1386364,
                "end_time": 27.2590909,
                "pitch": 38,
                "velocity": 101,
                "duration": 0.1204545,
                "tempo": 120.0
            },
            {
                "start_time": 27.2590909,
                "end_time": 27.3590909,
                "pitch": 38,
                "velocity": 101,
                "duration": 0.1,
                "tempo": 120.0
            },
            {
                "start_time": 27.3590909,
                "end_time": 27.4772727,
                "pitch": 38,
                "velocity": 101,
                "duration": 0.1181818,
                "tempo": 120.0
            },
            {
                "start_time": 27.4772727,
                "end_time": 27.5772727,
                "pitch": 50,
                "velocity": 101,
                "duration": 0.1,
                "tempo": 120.0
            },
            {
                "start_time": 27.5772727,
                "end_time": 27.7113636,
                "pitch": 38,
                "velocity": 101,
                "duration": 0.1340909,
                "tempo": 120.0
            }
        ]
    }
}