{
    "mood": "relaxed",
    "instruments": {
        "Church Organ": [
            {
                "start_time": 0.0,
                "end_time": 1.1340909,
                "pitch": 65,
                "velocity": 101,
                "duration": 1.1340909,
                "tempo": 120.0
            },
            {
                "start_time": 1.15,
                "end_time": 1.3840909,
                "pitch": 65,
                "velocity": 101,
                "duration": 0.2340909,
                "tempo": 120.0
            },
            {
                "start_time": 1.4,
                "end_time": 1.7659091,
                "pitch": 66,
                "velocity": 101,
                "duration": 0.3659091,
                "tempo": 120.0
            },
            {
                "start_time": 1.7840909,
                "end_time": 1.8840909,
                "pitch": 65,
                "velocity": 101,
                "duration": 0.1,
                "tempo": 120.0
            },
            {
                "start_time": 1.9,
                "end_time": 3.1340909,
                "pitch": 68,
                "velocity": 101,
                "duration": 1.2340909,
                "tempo": 120.0
            },
            {
                "start_time": 3.15,
                "end_time": 3.3840909,
                "pitch": 68,
                "velocity": 101,
                "duration": 0.2340909,
                "tempo": 120.0
            },
            {
                "start_time": 3.4,
                "end_time": 3.6340909,
                "pitch": 70,
                "velocity": 101,
                "duration": 0.2340909,
                "tempo": 120.0
            },
            {
                "start_time": 3.65,
                "end_time": 3.8840909,
                "pitch": 68,
                "velocity": 101,
                "duration": 0.2340909,
                "tempo": 120.0
            },
            {
                "start_time": 3.9,
                "end_time": 5.1340909,
                "pitch": 73,
                "velocity": 101,
                "duration": 1.2340909,
                "tempo": 120.0
            },
            {
                "start_time": 5.15,
                "end_time": 5.3840909,
                "pitch": 73,
                "velocity": 101,
                "duration": 0.2340909,
                "tempo": 120.0
            },
            {
                "start_time": 5.4,
                "end_time": 5.6340909,
                "pitch": 75,
                "velocity": 101,
                "duration": 0.2340909,
                "tempo": 120.0
            },
            {
                "start_time": 5.65,
                "end_time": 5.8840909,
                "pitch": 73,
                "velocity": 101,
                "duration": 0.2340909,
                "tempo": 120.0
            },
            {
                "start_time": 5.9,
                "end_time": 6.1340909,
                "pitch": 72,
                "velocity": 101,
                "duration": 0.2340909,
                "tempo": 120.0
            },
            {
                "start_time": 6.15,
                "end_time": 6.3840909,
                "pitch": 70,
                "velocity": 101,
                "duration": 0.2340909,
                "tempo": 120.0
            },
            {
                "start_time": 6.4,
                "end_time": 7.8840909,
                "pitch": 68,
                "velocity": 101,
                "duration": 1.4840909,
                "tempo": 120.0
            },
            {
                "start_time": 7.9,
                "end_time": 9.1340909,
                "pitch": 66,
                "velocity": 101,
                "duration": 1.2340909,
                "tempo": 120.0
            },
            {
                "start_time": 9.15,
                "end_time": 9.3840909,
                "pitch": 66,
                "velocity": 101,
                "duration": 0.2340909,
                "tempo": 120.0
            },
            {
                "start_time": 9.4,
                "end_time": 9.6340909,
                "pitch": 68,
                "velocity": 101,
                "duration": 0.2340909,
                "tempo": 120.0
            },
            {
                "start_time": 9.65,
                "end_time": 9.8840909,
                "pitch": 66,
                "velocity": 101,
                "duration": 0.2340909,
                "tempo": 120.0
            },
            {
                "start_time": 9.9,
                "end_time": 11.1340909,
                "pitch": 68,
                "velocity": 101,
                "duration": 1.2340909,
                "tempo": 120.0
            },
            {
                "start_time": 11.15,
                "end_time": 11.3840909,
                "pitch": 68,
                "velocity": 101,
                "duration": 0.2340909,
                "tempo": 120.0
            },
            {
                "start_time": 11.4,
                "end_time": 11.6340909,
                "pitch": 70,
                "velocity": 101,
                "duration": 0.2340909,
                "tempo": 120.0
            },
            {
                "start_time": 11.65,
                "end_time": 11.8840909,
                "pitch": 68,
                "velocity": 101,
                "duration": 0.2340909,
                "tempo": 120.0
            },
            {
                "start_time": 11.9,
                "end_time": 13.1340909,
                "pitch": 70,
                "velocity": 101,
                "duration": 1.2340909,
                "tempo": 120.0
            },
            {
                "start_time": 13.15,
                "end_time": 13.3840909,
                "pitch": 70,
                "velocity": 101,
                "duration": 0.2340909,
                "tempo": 120.0
            },
            {
                "start_time": 13.4,
                "end_time": 13.6340909,
                "pitch": 72,
                "velocity": 101,
                "duration": 0.2340909,
                "tempo": 120.0
            },
            {
                "start_time": 13.65,
                "end_time": 13.8840909,
                "pitch": 73,
                "velocity": 101,
                "duration": 0.2340909,
                "tempo": 120.0
            },
            {
                "start_time": 13.9,
                "end_time": 14.8840909,
                "pitch": 74,
                "velocity": 101,
                "duration": 0.9840909,
                "tempo": 120.0
            },
            {
                "start_time": 14.9,
                "end_time": 15.8840909,
                "pitch": 75,
                "velocity": 101,
                "duration": 0.9840909,
                "tempo": 120.0
            },
            {
                "start_time": 15.9,
                "end_time": 17.1340909,
                "pitch": 65,
                "velocity": 101,
                "duration": 1.2340909,
                "tempo": 120.0
            },
            {
                "start_time": 17.15,
                "end_time": 17.3840909,
                "pitch": 65,
                "velocity": 101,
                "duration": 0.2340909,
                "tempo": 120.0
            },
            {
                "start_time": 17.4,
                "end_time": 17.7659091,
                "pitch": 66,
                "velocity": 101,
                "duration": 0.3659091,
                "tempo": 120.0
            },
            {
                "start_time": 17.7840909,
                "end_time": 17.8840909,
                "pitch": 65,
                "velocity": 101,
                "duration": 0.1,
                "tempo": 120.0
            },
            {
                "start_time": 17.9,
                "end_time": 19.1340909,
                "pitch": 68,
                "velocity": 101,
                "duration": 1.2340909,
                "tempo": 120.0
            },
            {
                "start_time": 19.15,
                "end_time": 19.3840909,
                "pitch": 68,
                "velocity": 101,
                "duration": 0.2340909,
                "tempo": 120.0
            },
            {
                "start_time": 19.4,
                "end_time": 19.6340909,
                "pitch": 70,
                "velocity": 101,
                "duration": 0.2340909,
                "tempo": 120.0
            },
            {
                "start_time": 19.65,
                "end_time": 19.8840909,
                "pitch": 68,
                "velocity": 101,
                "duration": 0.2340909,
                "tempo": 120.0
            },
            {
                "start_time": 19.9,
                "end_time": 21.1340909,
                "pitch": 73,
                "velocity": 101,
                "duration": 1.2340909,
                "tempo": 120.0
            },
            {
                "start_time": 21.15,
                "end_time": 21.3840909,
                "pitch": 73,
                "velocity": 101,
                "duration": 0.2340909,
                "tempo": 120.0
            },
            {
                "start_time": 21.4,
                "end_time": 21.6340909,
                "pitch": 75,
                "velocity": 101,
                "duration": 0.2340909,
                "tempo": 120.0
            },
            {
                "start_time": 21.65,
                "end_time": 21.8840909,
                "pitch": 73,
                "velocity": 101,
                "duration": 0.2340909,
                "tempo": 120.0
            },
            {
                "start_time": 21.9,
                "end_time": 22.1340909,
                "pitch": 72,
                "velocity": 101,
                "duration": 0.2340909,
                "tempo": 120.0
            },
            {
                "start_time": 22.15,
                "end_time": 22.3840909,
                "pitch": 70,
                "velocity": 101,
                "duration": 0.2340909,
                "tempo": 120.0
            },
            {
                "start_time": 22.4,
                "end_time": 23.8840909,
                "pitch": 68,
                "velocity": 101,
                "duration": 1.4840909,
                "tempo": 120.0
            },
            {
                "start_time": 23.9,
                "end_time": 24.8840909,
                "pitch": 78,
                "velocity": 101,
                "duration": 0.9840909,
                "tempo": 120.0
            },
            {
                "start_time": 24.9,
                "end_time": 25.3840909,
                "pitch": 70,
                "velocity": 101,
                "duration": 0.4840909,
                "tempo": 120.0
            },
            {
                "start_time": 25.4,
                "end_time": 25.8840909,
                "pitch": 78,
                "velocity": 101,
                "duration": 0.4840909,
                "tempo": 120.0
            },
            {
                "start_time": 25.9,
                "end_time": 26.8840909,
                "pitch": 79,
                "velocity": 101,
                "duration": 0.9840909,
                "tempo": 120.0
            },
            {
                "start_time": 26.9,
                "end_time": 27.2659091,
                "pitch": 80,
                "velocity": 101,
                "duration": 0.3659091,
                "tempo": 120.0
            },
            {
                "start_time": 27.4,
                "end_time": 27.8840909,
                "pitch": 73,
                "velocity": 101,
                "duration": 0.4840909,
                "tempo": 120.0
            },
            {
                "start_time": 27.9,
                "end_time": 28.8840909,
                "pitch": 77,
                "velocity": 101,
                "duration": 0.9840909,
                "tempo": 120.0
            },
            {
                "start_time": 28.9,
                "end_time": 29.6340909,
                "pitch": 75,
                "velocity": 101,
                "duration": 0.7340909,
                "tempo": 120.0
            },
            {
                "start_time": 29.65,
                "end_time": 29.8840909,
                "pitch": 73,
                "velocity": 101,
                "duration": 0.2340909,
                "tempo": 120.0
            },
            {
                "start_time": 29.9,
                "end_time": 31.8886364,
                "pitch": 73,
                "velocity": 101,
                "duration": 1.9886364,
                "tempo": 120.0
            },
            {
                "start_time": 31.9045455,
                "end_time": 33.1386364,
                "pitch": 71,
                "velocity": 101,
                "duration": 1.2340909,
                "tempo": 120.0
            },
            {
                "start_time": 33.1545455,
                "end_time": 33.3886364,
                "pitch": 71,
                "velocity": 101,
                "duration": 0.2340909,
                "tempo": 120.0
            },
            {
                "start_time": 33.4045455,
                "end_time": 33.6386364,
                "pitch": 73,
                "velocity": 101,
                "duration": 0.2340909,
                "tempo": 120.0
            },
            {
                "start_time": 33.6545455,
                "end_time": 33.8886364,
                "pitch": 75,
                "velocity": 101,
                "duration": 0.2340909,
                "tempo": 120.0
            },
            {
                "start_time": 33.9045455,
                "end_time": 35.1386364,
                "pitch": 77,
                "velocity": 101,
                "duration": 1.2340909,
                "tempo": 120.0
            },
            {
                "start_time": 35.1545455,
                "end_time": 35.3886364,
                "pitch": 77,
                "velocity": 101,
                "duration": 0.2340909,
                "tempo": 120.0
            },
            {
                "start_time": 35.4045455,
                "end_time": 35.6386364,
                "pitch": 78,
                "velocity": 101,
                "duration": 0.2340909,
                "tempo": 120.0
            },
            {
                "start_time": 35.6545455,
                "end_time": 35.8886364,
                "pitch": 80,
                "velocity": 101,
                "duration": 0.2340909,
                "tempo": 120.0
            },
            {
                "start_time": 35.9045455,
                "end_time": 37.1386364,
                "pitch": 78,
                "velocity": 101,
                "duration": 1.2340909,
                "tempo": 120.0
            },
            {
                "start_time": 37.1545455,
                "end_time": 37.3886364,
                "pitch": 80,
                "velocity": 101,
                "duration": 0.2340909,
                "tempo": 120.0
            },
            {
                "start_time": 37.4045455,
                "end_time": 37.6386364,
                "pitch": 78,
                "velocity": 101,
                "duration": 0.2340909,
                "tempo": 120.0
            },
            {
                "start_time": 37.6545455,
                "end_time": 37.8886364,
                "pitch": 77,
                "velocity": 101,
                "duration": 0.2340909,
                "tempo": 120.0
            },
            {
                "start_time": 37.9045455,
                "end_time": 38.1386364,
                "pitch": 78,
                "velocity": 101,
                "duration": 0.2340909,
                "tempo": 120.0
            },
            {
                "start_time": 38.1545455,
                "end_time": 38.3886364,
                "pitch": 77,
                "velocity": 101,
                "duration": 0.2340909,
                "tempo": 120.0
            },
            {
                "start_time": 38.4045455,
                "end_time": 39.8886364,
                "pitch": 75,
                "velocity": 101,
                "duration": 1.4840909,
                "tempo": 120.0
            },
            {
                "start_time": 39.9045455,
                "end_time": 41.1386364,
                "pitch": 71,
                "velocity": 101,
                "duration": 1.2340909,
                "tempo": 120.0
            },
            {
                "start_time": 41.1545455,
                "end_time": 41.3886364,
                "pitch": 71,
                "velocity": 101,
                "duration": 0.2340909,
                "tempo": 120.0
            },
            {
                "start_time": 41.4045455,
                "end_time": 41.6386364,
                "pitch": 73,
                "velocity": 101,
                "duration": 0.2340909,
                "tempo": 120.0
            },
            {
                "start_time": 41.6545455,
                "end_time": 41.8886364,
                "pitch": 75,
                "velocity": 101,
                "duration": 0.2340909,
                "tempo": 120.0
            },
            {
                "start_time": 41.9045455,
                "end_time": 43.1386364,
                "pitch": 77,
                "velocity": 101,
                "duration": 1.2340909,
                "tempo": 120.0
            },
            {
                "start_time": 43.1545455,
                "end_time": 43.3886364,
                "pitch": 77,
                "velocity": 101,
                "duration": 0.2340909,
                "tempo": 120.0
            },
            {
                "start_time": 43.4045455,
                "end_time": 43.6386364,
                "pitch": 78,
                "velocity": 101,
                "duration": 0.2340909,
                "tempo": 120.0
            },
            {
                "start_time": 43.6545455,
                "end_time": 43.8886364,
                "pitch": 79,
                "velocity": 101,
                "duration": 0.2340909,
                "tempo": 120.0
            },
            {
                "start_time": 43.9045455,
                "end_time": 44.8886364,
                "pitch": 79,
                "velocity": 101,
                "duration": 0.9840909,
                "tempo": 120.0
            },
            {
                "start_time": 44.9045455,
                "end_time": 45.8886364,
                "pitch": 80,
                "velocity": 101,
                "duration": 0.9840909,
                "tempo": 120.0
            },
            {
                "start_time": 47.9090909,
                "end_time": 49.1431818,
                "pitch": 65,
                "velocity": 101,
                "duration": 1.2340909,
                "tempo": 120.0
            },
            {
                "start_time": 49.1590909,
                "end_time": 49.3931818,
                "pitch": 65,
                "velocity": 101,
                "duration": 0.2340909,
                "tempo": 120.0
            },
            {
                "start_time": 49.4090909,
                "end_time": 49.775,
                "pitch": 66,
                "velocity": 101,
                "duration": 0.3659091,
                "tempo": 120.0
            },
            {
                "start_time": 49.7931818,
                "end_time": 49.8931818,
                "pitch": 65,
                "velocity": 101,
                "duration": 0.1,
                "tempo": 120.0
            },
            {
                "start_time": 49.9090909,
                "end_time": 51.1431818,
                "pitch": 68,
                "velocity": 101,
                "duration": 1.2340909,
                "tempo": 120.0
            },
            {
                "start_time": 51.1590909,
                "end_time": 51.3931818,
                "pitch": 68,
                "velocity": 101,
                "duration": 0.2340909,
                "tempo": 120.0
            },
            {
                "start_time": 51.4090909,
                "end_time": 51.6431818,
                "pitch": 70,
                "velocity": 101,
                "duration": 0.2340909,
                "tempo": 120.0
            },
            {
                "start_time": 51.6590909,
                "end_time": 51.8931818,
                "pitch": 68,
                "velocity": 101,
                "duration": 0.2340909,
                "tempo": 120.0
            },
            {
                "start_time": 51.9090909,
                "end_time": 53.1431818,
                "pitch": 73,
                "velocity": 101,
                "duration": 1.2340909,
                "tempo": 120.0
            },
            {
                "start_time": 53.1590909,
                "end_time": 53.3931818,
                "pitch": 73,
                "velocity": 101,
                "duration": 0.2340909,
                "tempo": 120.0
            },
            {
                "start_time": 53.4090909,
                "end_time": 53.6431818,
                "pitch": 75,
                "velocity": 101,
                "duration": 0.2340909,
                "tempo": 120.0
            },
            {
                "start_time": 53.6590909,
                "end_time": 53.8931818,
                "pitch": 73,
                "velocity": 101,
                "duration": 0.2340909,
                "tempo": 120.0
            },
            {
                "start_time": 53.9090909,
                "end_time": 54.1431818,
                "pitch": 72,
                "velocity": 101,
                "duration": 0.2340909,
                "tempo": 120.0
            },
            {
                "start_time": 54.1590909,
                "end_time": 54.3931818,
                "pitch": 70,
                "velocity": 101,
                "duration": 0.2340909,
                "tempo": 120.0
            },
            {
                "start_time": 54.4090909,
                "end_time": 55.8931818,
                "pitch": 68,
                "velocity": 101,
                "duration": 1.4840909,
                "tempo": 120.0
            },
            {
                "start_time": 55.9090909,
                "end_time": 57.1431818,
                "pitch": 66,
                "velocity": 101,
                "duration": 1.2340909,
                "tempo": 120.0
            },
            {
                "start_time": 57.1590909,
                "end_time": 57.3931818,
                "pitch": 66,
                "velocity": 101,
                "duration": 0.2340909,
                "tempo": 120.0
            },
            {
                "start_time": 57.4090909,
                "end_time": 57.6431818,
                "pitch": 68,
                "velocity": 101,
                "duration": 0.2340909,
                "tempo": 120.0
            },
            {
                "start_time": 57.6590909,
                "end_time": 57.8931818,
                "pitch": 66,
                "velocity": 101,
                "duration": 0.2340909,
                "tempo": 120.0
            },
            {
                "start_time": 57.9090909,
                "end_time": 59.1431818,
                "pitch": 68,
                "velocity": 101,
                "duration": 1.2340909,
                "tempo": 120.0
            },
            {
                "start_time": 59.1590909,
                "end_time": 59.3931818,
                "pitch": 68,
                "velocity": 101,
                "duration": 0.2340909,
                "tempo": 120.0
            },
            {
                "start_time": 59.4090909,
                "end_time": 59.6431818,
                "pitch": 70,
                "velocity": 101,
                "duration": 0.2340909,
                "tempo": 120.0
            },
            {
                "start_time": 59.6590909,
                "end_time": 59.8931818,
                "pitch": 68,
                "velocity": 101,
                "duration": 0.2340909,
                "tempo": 120.0
            },
            {
                "start_time": 59.9090909,
                "end_time": 61.1431818,
                "pitch": 70,
                "velocity": 101,
                "duration": 1.2340909,
                "tempo": 120.0
            },
            {
                "start_time": 61.1590909,
                "end_time": 61.3931818,
                "pitch": 70,
                "velocity": 101,
                "duration": 0.2340909,
                "tempo": 120.0
            },
            {
                "start_time": 61.4090909,
                "end_time": 61.6431818,
                "pitch": 72,
                "velocity": 101,
                "duration": 0.2340909,
                "tempo": 120.0
            },
            {
                "start_time": 61.6590909,
                "end_time": 61.8931818,
                "pitch": 73,
                "velocity": 101,
                "duration": 0.2340909,
                "tempo": 120.0
            },
            {
                "start_time": 61.9090909,
                "end_time": 62.8931818,
                "pitch": 74,
                "velocity": 101,
                "duration": 0.9840909,
                "tempo": 120.0
            },
            {
                "start_time": 62.9090909,
                "end_time": 63.8931818,
                "pitch": 75,
                "velocity": 101,
                "duration": 0.9840909,
                "tempo": 120.0
            },
            {
                "start_time": 63.9090909,
                "end_time": 65.1431818,
                "pitch": 65,
                "velocity": 101,
                "duration": 1.2340909,
                "tempo": 120.0
            },
            {
                "start_time": 65.1590909,
                "end_time": 65.3931818,
                "pitch": 65,
                "velocity": 101,
                "duration": 0.2340909,
                "tempo": 120.0
            },
            {
                "start_time": 65.4090909,
                "end_time": 65.775,
                "pitch": 66,
                "velocity": 101,
                "duration": 0.3659091,
                "tempo": 120.0
            },
            {
                "start_time": 65.7931818,
                "end_time": 65.8931818,
                "pitch": 65,
                "velocity": 101,
                "duration": 0.1,
                "tempo": 120.0
            },
            {
                "start_time": 65.9090909,
                "end_time": 67.1431818,
                "pitch": 68,
                "velocity": 101,
                "duration": 1.2340909,
                "tempo": 120.0
            },
            {
                "start_time": 67.1590909,
                "end_time": 67.3931818,
                "pitch": 68,
                "velocity": 101,
                "duration": 0.2340909,
                "tempo": 120.0
            },
            {
                "start_time": 67.4090909,
                "end_time": 67.6431818,
                "pitch": 70,
                "velocity": 101,
                "duration": 0.2340909,
                "tempo": 120.0
            },
            {
                "start_time": 67.6590909,
                "end_time": 67.8931818,
                "pitch": 68,
                "velocity": 101,
                "duration": 0.2340909,
                "tempo": 120.0
            },
            {
                "start_time": 67.9090909,
                "end_time": 69.1431818,
                "pitch": 73,
                "velocity": 101,
                "duration": 1.2340909,
                "tempo": 120.0
            },
            {
                "start_time": 69.1590909,
                "end_time": 69.3931818,
                "pitch": 73,
                "velocity": 101,
                "duration": 0.2340909,
                "tempo": 120.0
            },
            {
                "start_time": 69.4090909,
                "end_time": 69.6431818,
                "pitch": 75,
                "velocity": 101,
                "duration": 0.2340909,
                "tempo": 120.0
            },
            {
                "start_time": 69.6590909,
                "end_time": 69.8931818,
                "pitch": 73,
                "velocity": 101,
                "duration": 0.2340909,
                "tempo": 120.0
            },
            {
                "start_time": 69.9090909,
                "end_time": 70.1431818,
                "pitch": 72,
                "velocity": 101,
                "duration": 0.2340909,
                "tempo": 120.0
            },
            {
                "start_time": 70.1590909,
                "end_time": 70.3931818,
                "pitch": 70,
                "velocity": 101,
                "duration": 0.2340909,
                "tempo": 120.0
            },
            {
                "start_time": 70.4090909,
                "end_time": 71.8931818,
                "pitch": 68,
                "velocity": 101,
                "duration": 1.4840909,
                "tempo": 120.0
            },
            {
                "start_time": 71.9090909,
                "end_time": 72.8931818,
                "pitch": 78,
                "velocity": 101,
                "duration": 0.9840909,
                "tempo": 120.0
            },
            {
                "start_time": 72.9090909,
                "end_time": 73.3931818,
                "pitch": 70,
                "velocity": 101,
                "duration": 0.4840909,
                "tempo": 120.0
            },
            {
                "start_time": 73.4090909,
                "end_time": 73.8931818,
                "pitch": 78,
                "velocity": 101,
                "duration": 0.4840909,
                "tempo": 120.0
            },
            {
                "start_time": 73.9090909,
                "end_time": 74.8931818,
                "pitch": 79,
                "velocity": 101,
                "duration": 0.9840909,
                "tempo": 120.0
            },
            {
                "start_time": 74.9090909,
                "end_time": 75.275,
                "pitch": 80,
                "velocity": 101,
                "duration": 0.3659091,
                "tempo": 120.0
            },
            {
                "start_time": 75.4090909,
                "end_time": 75.8931818,
                "pitch": 73,
                "velocity": 101,
                "duration": 0.4840909,
                "tempo": 120.0
            },
            {
                "start_time": 75.9090909,
                "end_time": 76.8931818,
                "pitch": 77,
                "velocity": 101,
                "duration": 0.9840909,
                "tempo": 120.0
            },
            {
                "start_time": 76.9090909,
                "end_time": 77.6431818,
                "pitch": 75,
                "velocity": 101,
                "duration": 0.7340909,
                "tempo": 120.0
            },
            {
                "start_time": 77.6590909,
                "end_time": 77.8931818,
                "pitch": 73,
                "velocity": 101,
                "duration": 0.2340909,
                "tempo": 120.0
            },
            {
                "start_time": 77.9090909,
                "end_time": 79.8954545,
                "pitch": 73,
                "velocity": 101,
                "duration": 1.9863636,
                "tempo": 120.0
            },
            {
                "start_time": 79.9136364,
                "end_time": 81.8954545,
                "pitch": 70,
                "velocity": 101,
                "duration": 1.9818182,
                "tempo": 120.0
            },
            {
                "start_time": 81.9136364,
                "end_time": 83.8954545,
                "pitch": 68,
                "velocity": 101,
                "duration": 1.9818182,
                "tempo": 120.0
            },
            {
                "start_time": 83.9136364,
                "end_time": 85.8954545,
                "pitch": 66,
                "velocity": 101,
                "duration": 1.9818182,
                "tempo": 120.0
            },
            {
                "start_time": 85.9136364,
                "end_time": 87.9,
                "pitch": 68,
                "velocity": 101,
                "duration": 1.9863636,
                "tempo": 120.0
            },
            {
                "start_time": 87.9181818,
                "end_time": 89.9045455,
                "pitch": 70,
                "velocity": 101,
                "duration": 1.9863636,
                "tempo": 120.0
            },
            {
                "start_time": 89.9227273,
                "end_time": 91.9045455,
                "pitch": 68,
                "velocity": 101,
                "duration": 1.9818182,
                "tempo": 120.0
            },
            {
                "start_time": 91.9227273,
                "end_time": 93.9090909,
                "pitch": 66,
                "velocity": 101,
                "duration": 1.9863636,
                "tempo": 120.0
            },
            {
                "start_time": 93.9272727,
                "end_time": 94.2931818,
                "pitch": 80,
                "velocity": 101,
                "duration": 0.3659091,
                "tempo": 120.0
            },
            {
                "start_time": 94.3090909,
                "end_time": 94.4090909,
                "pitch": 80,
                "velocity": 101,
                "duration": 0.1,
                "tempo": 120.0
            },
            {
                "start_time": 94.4272727,
                "end_time": 94.7931818,
                "pitch": 80,
                "velocity": 101,
                "duration": 0.3659091,
                "tempo": 120.0
            },
            {
                "start_time": 94.8090909,
                "end_time": 94.9090909,
                "pitch": 77,
                "velocity": 101,
                "duration": 0.1,
                "tempo": 120.0
            },
            {
                "start_time": 94.9272727,
                "end_time": 95.2931818,
                "pitch": 77,
                "velocity": 101,
                "duration": 0.3659091,
                "tempo": 120.0
            },
            {
                "start_time": 95.3090909,
                "end_time": 95.4090909,
                "pitch": 73,
                "velocity": 101,
                "duration": 0.1,
                "tempo": 120.0
            },
            {
                "start_time": 95.4272727,
                "end_time": 95.7931818,
                "pitch": 73,
                "velocity": 101,
                "duration": 0.3659091,
                "tempo": 120.0
            },
            {
                "start_time": 95.8090909,
                "end_time": 95.9090909,
                "pitch": 68,
                "velocity": 101,
                "duration": 0.1,
                "tempo": 120.0
            },
            {
                "start_time": 95.9272727,
                "end_time": 96.9090909,
                "pitch": 66,
                "velocity": 101,
                "duration": 0.9818182,
                "tempo": 120.0
            },
            {
                "start_time": 96.9272727,
                "end_time": 97.6590909,
                "pitch": 68,
                "velocity": 101,
                "duration": 0.7318182,
                "tempo": 120.0
            },
            {
                "start_time": 97.6772727,
                "end_time": 97.9090909,
                "pitch": 73,
                "velocity": 101,
                "duration": 0.2318182,
                "tempo": 120.0
            },
            {
                "start_time": 97.9272727,
                "end_time": 98.9090909,
                "pitch": 78,
                "velocity": 101,
                "duration": 0.9818182,
                "tempo": 120.0
            },
            {
                "start_time": 98.9272727,
                "end_time": 99.9090909,
                "pitch": 66,
                "velocity": 101,
                "duration": 0.9818182,
                "tempo": 120.0
            },
            {
                "start_time": 99.9272727,
                "end_time": 100.9090909,
                "pitch": 71,
                "velocity": 101,
                "duration": 0.9818182,
                "tempo": 120.0
            },
            {
                "start_time": 100.9272727,
                "end_time": 101.6590909,
                "pitch": 70,
                "velocity": 101,
                "duration": 0.7318182,
                "tempo": 120.0
            },
            {
                "start_time": 101.6772727,
                "end_time": 101.9090909,
                "pitch": 73,
                "velocity": 101,
                "duration": 0.2318182,
                "tempo": 120.0
            },
            {
                "start_time": 101.9272727,
                "end_time": 103.6590909,
                "pitch": 71,
                "velocity": 101,
                "duration": 1.7318182,
                "tempo": 120.0
            },
            {
                "start_time": 103.6772727,
                "end_time": 103.9090909,
                "pitch": 68,
                "velocity": 101,
                "duration": 0.2318182,
                "tempo": 120.0
            },
            {
                "start_time": 103.9272727,
                "end_time": 105.4090909,
                "pitch": 70,
                "velocity": 101,
                "duration": 1.4818182,
                "tempo": 120.0
            },
            {
                "start_time": 105.4272727,
                "end_time": 105.5772727,
                "pitch": 70,
                "velocity": 101,
                "duration": 0.15,
                "tempo": 120.0
            },
            {
                "start_time": 105.5931818,
                "end_time": 105.7431818,
                "pitch": 71,
                "velocity": 101,
                "duration": 0.15,
                "tempo": 120.0
            },
            {
                "start_time": 105.7590909,
                "end_time": 105.9090909,
                "pitch": 73,
                "velocity": 101,
                "duration": 0.15,
                "tempo": 120.0
            },
            {
                "start_time": 105.9272727,
                "end_time": 106.9090909,
                "pitch": 78,
                "velocity": 101,
                "duration": 0.9818182,
                "tempo": 120.0
            },
            {
                "start_time": 106.9272727,
                "end_time": 107.9090909,
                "pitch": 66,
                "velocity": 101,
                "duration": 0.9818182,
                "tempo": 120.0
            },
            {
                "start_time": 107.9272727,
                "end_time": 108.9090909,
                "pitch": 71,
                "velocity": 101,
                "duration": 0.9818182,
                "tempo": 120.0
            },
            {
                "start_time": 108.9272727,
                "end_time": 109.4090909,
                "pitch": 73,
                "velocity": 101,
                "duration": 0.4818182,
                "tempo": 120.0
            },
            {
                "start_time": 109.4272727,
                "end_time": 109.9090909,
                "pitch": 71,
                "velocity": 101,
                "duration": 0.4818182,
                "tempo": 120.0
            },
            {
                "start_time": 109.9272727,
                "end_time": 111.9090909,
                "pitch": 70,
                "velocity": 101,
                "duration": 1.9818182,
                "tempo": 120.0
            },
            {
                "start_time": 111.9272727,
                "end_time": 112.9090909,
                "pitch": 70,
                "velocity": 101,
                "duration": 0.9818182,
                "tempo": 120.0
            },
            {
                "start_time": 112.9272727,
                "end_time": 113.6590909,
                "pitch": 65,
                "velocity": 101,
                "duration": 0.7318182,
                "tempo": 120.0
            },
            {
                "start_time": 113.6772727,
                "end_time": 113.9090909,
                "pitch": 66,
                "velocity": 101,
                "duration": 0.2318182,
                "tempo": 120.0
            },
            {
                "start_time": 113.9272727,
                "end_time": 115.9090909,
                "pitch": 75,
                "velocity": 101,
                "duration": 1.9818182,
                "tempo": 120.0
            },
            {
                "start_time": 115.9272727,
                "end_time": 116.9090909,
                "pitch": 80,
                "velocity": 101,
                "duration": 0.9818182,
                "tempo": 120.0
            },
            {
                "start_time": 116.9272727,
                "end_time": 117.6590909,
                "pitch": 75,
                "velocity": 101,
                "duration": 0.7318182,
                "tempo": 120.0
            },
            {
                "start_time": 117.6772727,
                "end_time": 117.9090909,
                "pitch": 78,
                "velocity": 101,
                "duration": 0.2318182,
                "tempo": 120.0
            },
            {
                "start_time": 117.9272727,
                "end_time": 119.9090909,
                "pitch": 77,
                "velocity": 101,
                "duration": 1.9818182,
                "tempo": 120.0
            },
            {
                "start_time": 119.9272727,
                "end_time": 120.6590909,
                "pitch": 70,
                "velocity": 101,
                "duration": 0.7318182,
                "tempo": 120.0
            },
            {
                "start_time": 120.6772727,
                "end_time": 120.9090909,
                "pitch": 70,
                "velocity": 101,
                "duration": 0.2318182,
                "tempo": 120.0
            },
            {
                "start_time": 120.9272727,
                "end_time": 121.6590909,
                "pitch": 70,
                "velocity": 101,
                "duration": 0.7318182,
                "tempo": 120.0
            },
            {
                "start_time": 121.6772727,
                "end_time": 121.9090909,
                "pitch": 70,
                "velocity": 101,
                "duration": 0.2318182,
                "tempo": 120.0
            },
            {
                "start_time": 121.9272727,
                "end_time": 122.6590909,
                "pitch": 70,
                "velocity": 101,
                "duration": 0.7318182,
                "tempo": 120.0
            },
            {
                "start_time": 122.6772727,
                "end_time": 122.9090909,
                "pitch": 70,
                "velocity": 101,
                "duration": 0.2318182,
                "tempo": 120.0
            },
            {
                "start_time": 122.9272727,
                "end_time": 123.9090909,
                "pitch": 78,
                "velocity": 101,
                "duration": 0.9818182,
                "tempo": 120.0
            },
            {
                "start_time": 123.9272727,
                "end_time": 124.9090909,
                "pitch": 77,
                "velocity": 101,
                "duration": 0.9818182,
                "tempo": 120.0
            },
            {
                "start_time": 124.9272727,
                "end_time": 125.9090909,
                "pitch": 73,
                "velocity": 101,
                "duration": 0.9818182,
                "tempo": 120.0
            }
        ],
        "Acoustic Bass": [
            {
                "start_time": 0.0,
                "end_time": 0.2931818,
                "pitch": 49,
                "velocity": 64,
                "duration": 0.2931818,
                "tempo": 120.0
            },
            {
                "start_time": 0.3068182,
                "end_time": 0.6340909,
                "pitch": 49,
                "velocity": 64,
                "duration": 0.3272727,
                "tempo": 120.0
            },
            {
                "start_time": 0.65,
                "end_time": 0.8840909,
                "pitch": 49,
                "velocity": 64,
                "duration": 0.2340909,
                "tempo": 120.0
            },
            {
                "start_time": 1.15,
                "end_time": 1.3840909,
                "pitch": 49,
                "velocity": 64,
                "duration": 0.2340909,
                "tempo": 120.0
            },
            {
                "start_time": 1.4,
                "end_time": 1.8840909,
                "pitch": 49,
                "velocity": 64,
                "duration": 0.4840909,
                "tempo": 120.0
            },
            {
                "start_time": 1.9,
                "end_time": 2.2659091,
                "pitch": 48,
                "velocity": 64,
                "duration": 0.3659091,
                "tempo": 120.0
            },
            {
                "start_time": 2.2840909,
                "end_time": 2.6340909,
                "pitch": 48,
                "velocity": 64,
                "duration": 0.35,
                "tempo": 120.0
            },
            {
                "start_time": 2.65,
                "end_time": 2.8840909,
                "pitch": 48,
                "velocity": 64,
                "duration": 0.2340909,
                "tempo": 120.0
            },
            {
                "start_time": 3.15,
                "end_time": 3.3840909,
                "pitch": 48,
                "velocity": 64,
                "duration": 0.2340909,
                "tempo": 120.0
            },
            {
                "start_time": 3.4,
                "end_time": 3.8840909,
                "pitch": 48,
                "velocity": 64,
                "duration": 0.4840909,
                "tempo": 120.0
            },
            {
                "start_time": 3.9,
                "end_time": 4.2659091,
                "pitch": 46,
                "velocity": 64,
                "duration": 0.3659091,
                "tempo": 120.0
            },
            {
                "start_time": 4.2840909,
                "end_time": 4.6340909,
                "pitch": 46,
                "velocity": 64,
                "duration": 0.35,
                "tempo": 120.0
            },
            {
                "start_time": 4.65,
                "end_time": 4.8840909,
                "pitch": 46,
                "velocity": 64,
                "duration": 0.2340909,
                "tempo": 120.0
            },
            {
                "start_time": 5.15,
                "end_time": 5.3840909,
                "pitch": 46,
                "velocity": 64,
                "duration": 0.2340909,
                "tempo": 120.0
            },
            {
                "start_time": 5.4,
                "end_time": 5.8840909,
                "pitch": 46,
                "velocity": 64,
                "duration": 0.4840909,
                "tempo": 120.0
            },
            {
                "start_time": 5.9,
                "end_time": 6.2659091,
                "pitch": 44,
                "velocity": 64,
                "duration": 0.3659091,
                "tempo": 120.0
            },
            {
                "start_time": 6.2840909,
                "end_time": 6.6340909,
                "pitch": 44,
                "velocity": 64,
                "duration": 0.35,
                "tempo": 120.0
            },
            {
                "start_time": 6.65,
                "end_time": 6.8840909,
                "pitch": 44,
                "velocity": 64,
                "duration": 0.2340909,
                "tempo": 120.0
            },
            {
                "start_time": 7.15,
                "end_time": 7.3840909,
                "pitch": 44,
                "velocity": 64,
                "duration": 0.2340909,
                "tempo": 120.0
            },
            {
                "start_time": 7.4,
                "end_time": 7.8840909,
                "pitch": 44,
                "velocity": 64,
                "duration": 0.4840909,
                "tempo": 120.0
            },
            {
                "start_time": 7.9,
                "end_time": 8.2659091,
                "pitch": 42,
                "velocity": 64,
                "duration": 0.3659091,
                "tempo": 120.0
            },
            {
                "start_time": 8.2840909,
                "end_time": 8.6340909,
                "pitch": 42,
                "velocity": 64,
                "duration": 0.35,
                "tempo": 120.0
            },
            {
                "start_time": 8.65,
                "end_time": 8.8840909,
                "pitch": 42,
                "velocity": 64,
                "duration": 0.2340909,
                "tempo": 120.0
            },
            {
                "start_time": 9.15,
                "end_time": 9.3840909,
                "pitch": 42,
                "velocity": 64,
                "duration": 0.2340909,
                "tempo": 120.0
            },
            {
                "start_time": 9.4,
                "end_time": 9.8840909,
                "pitch": 42,
                "velocity": 64,
                "duration": 0.4840909,
                "tempo": 120.0
            },
            {
                "start_time": 9.9,
                "end_time": 10.2659091,
                "pitch": 41,
                "velocity": 64,
                "duration": 0.3659091,
                "tempo": 120.0
            },
            {
                "start_time": 10.2840909,
                "end_time": 10.6340909,
                "pitch": 41,
                "velocity": 64,
                "duration": 0.35,
                "tempo": 120.0
            },
            {
                "start_time": 10.65,
                "end_time": 10.8840909,
                "pitch": 41,
                "velocity": 64,
                "duration": 0.2340909,
                "tempo": 120.0
            },
            {
                "start_time": 11.15,
                "end_time": 11.3840909,
                "pitch": 41,
                "velocity": 64,
                "duration": 0.2340909,
                "tempo": 120.0
            },
            {
                "start_time": 11.4,
                "end_time": 11.8840909,
                "pitch": 41,
                "velocity": 64,
                "duration": 0.4840909,
                "tempo": 120.0
            },
            {
                "start_time": 11.9,
                "end_time": 12.2659091,
                "pitch": 42,
                "velocity": 64,
                "duration": 0.3659091,
                "tempo": 120.0
            },
            {
                "start_time": 12.2840909,
                "end_time": 12.6340909,
                "pitch": 42,
                "velocity": 64,
                "duration": 0.35,
                "tempo": 120.0
            },
            {
                "start_time": 12.65,
                "end_time": 12.8840909,
                "pitch": 42,
                "velocity": 64,
                "duration": 0.2340909,
                "tempo": 120.0
            },
            {
                "start_time": 13.15,
                "end_time": 13.3840909,
                "pitch": 42,
                "velocity": 64,
                "duration": 0.2340909,
                "tempo": 120.0
            },
            {
                "start_time": 13.4,
                "end_time": 13.8840909,
                "pitch": 42,
                "velocity": 64,
                "duration": 0.4840909,
                "tempo": 120.0
            },
            {
                "start_time": 13.9,
                "end_time": 14.2659091,
                "pitch": 44,
                "velocity": 64,
                "duration": 0.3659091,
                "tempo": 120.0
            },
            {
                "start_time": 14.2840909,
                "end_time": 14.6340909,
                "pitch": 44,
                "velocity": 64,
                "duration": 0.35,
                "tempo": 120.0
            },
            {
                "start_time": 14.65,
                "end_time": 14.8840909,
                "pitch": 44,
                "velocity": 64,
                "duration": 0.2340909,
                "tempo": 120.0
            },
            {
                "start_time": 15.15,
                "end_time": 15.3840909,
                "pitch": 44,
                "velocity": 64,
                "duration": 0.2340909,
                "tempo": 120.0
            },
            {
                "start_time": 15.4,
                "end_time": 15.8840909,
                "pitch": 44,
                "velocity": 64,
                "duration": 0.4840909,
                "tempo": 120.0
            },
            {
                "start_time": 15.9,
                "end_time": 16.2659091,
                "pitch": 49,
                "velocity": 64,
                "duration": 0.3659091,
                "tempo": 120.0
            },
            {
                "start_time": 16.2840909,
                "end_time": 16.6340909,
                "pitch": 49,
                "velocity": 64,
                "duration": 0.35,
                "tempo": 120.0
            },
            {
                "start_time": 16.65,
                "end_time": 16.8840909,
                "pitch": 49,
                "velocity": 64,
                "duration": 0.2340909,
                "tempo": 120.0
            },
            {
                "start_time": 17.15,
                "end_time": 17.3840909,
                "pitch": 49,
                "velocity": 64,
                "duration": 0.2340909,
                "tempo": 120.0
            },
            {
                "start_time": 17.4,
                "end_time": 17.8840909,
                "pitch": 49,
                "velocity": 64,
                "duration": 0.4840909,
                "tempo": 120.0
            },
            {
                "start_time": 17.9,
                "end_time": 18.2659091,
                "pitch": 48,
                "velocity": 64,
                "duration": 0.3659091,
                "tempo": 120.0
            },
            {
                "start_time": 18.2840909,
                "end_time": 18.6340909,
                "pitch": 48,
                "velocity": 64,
                "duration": 0.35,
                "tempo": 120.0
            },
            {
                "start_time": 18.65,
                "end_time": 18.8840909,
                "pitch": 48,
                "velocity": 64,
                "duration": 0.2340909,
                "tempo": 120.0
            },
            {
                "start_time": 19.15,
                "end_time": 19.3840909,
                "pitch": 48,
                "velocity": 64,
                "duration": 0.2340909,
                "tempo": 120.0
            },
            {
                "start_time": 19.4,
                "end_time": 19.8840909,
                "pitch": 48,
                "velocity": 64,
                "duration": 0.4840909,
                "tempo": 120.0
            },
            {
                "start_time": 19.9,
                "end_time": 20.2659091,
                "pitch": 46,
                "velocity": 64,
                "duration": 0.3659091,
                "tempo": 120.0
            },
            {
                "start_time": 20.2840909,
                "end_time": 20.6340909,
                "pitch": 46,
                "velocity": 64,
                "duration": 0.35,
                "tempo": 120.0
            },
            {
                "start_time": 20.65,
                "end_time": 20.8840909,
                "pitch": 46,
                "velocity": 64,
                "duration": 0.2340909,
                "tempo": 120.0
            },
            {
                "start_time": 21.15,
                "end_time": 21.3840909,
                "pitch": 46,
                "velocity": 64,
                "duration": 0.2340909,
                "tempo": 120.0
            },
            {
                "start_time": 21.4,
                "end_time": 21.8840909,
                "pitch": 46,
                "velocity": 64,
                "duration": 0.4840909,
                "tempo": 120.0
            },
            {
                "start_time": 21.9,
                "end_time": 22.2659091,
                "pitch": 44,
                "velocity": 64,
                "duration": 0.3659091,
                "tempo": 120.0
            },
            {
                "start_time": 22.2840909,
                "end_time": 22.6340909,
                "pitch": 44,
                "velocity": 64,
                "duration": 0.35,
                "tempo": 120.0
            },
            {
                "start_time": 22.65,
                "end_time": 22.8840909,
                "pitch": 44,
                "velocity": 64,
                "duration": 0.2340909,
                "tempo": 120.0
            },
            {
                "start_time": 23.15,
                "end_time": 23.3840909,
                "pitch": 44,
                "velocity": 64,
                "duration": 0.2340909,
                "tempo": 120.0
            },
            {
                "start_time": 23.4,
                "end_time": 23.8840909,
                "pitch": 44,
                "velocity": 64,
                "duration": 0.4840909,
                "tempo": 120.0
            },
            {
                "start_time": 23.9,
                "end_time": 24.2659091,
                "pitch": 42,
                "velocity": 64,
                "duration": 0.3659091,
                "tempo": 120.0
            },
            {
                "start_time": 24.2840909,
                "end_time": 24.6340909,
                "pitch": 42,
                "velocity": 64,
                "duration": 0.35,
                "tempo": 120.0
            },
            {
                "start_time": 24.65,
                "end_time": 24.8840909,
                "pitch": 42,
                "velocity": 64,
                "duration": 0.2340909,
                "tempo": 120.0
            },
            {
                "start_time": 25.15,
                "end_time": 25.3840909,
                "pitch": 42,
                "velocity": 64,
                "duration": 0.2340909,
                "tempo": 120.0
            },
            {
                "start_time": 25.4,
                "end_time": 25.8840909,
                "pitch": 42,
                "velocity": 64,
                "duration": 0.4840909,
                "tempo": 120.0
            },
            {
                "start_time": 25.9,
                "end_time": 26.2659091,
                "pitch": 41,
                "velocity": 64,
                "duration": 0.3659091,
                "tempo": 120.0
            },
            {
                "start_time": 26.2840909,
                "end_time": 26.6340909,
                "pitch": 41,
                "velocity": 64,
                "duration": 0.35,
                "tempo": 120.0
            },
            {
                "start_time": 26.65,
                "end_time": 26.8840909,
                "pitch": 41,
                "velocity": 64,
                "duration": 0.2340909,
                "tempo": 120.0
            },
            {
                "start_time": 27.15,
                "end_time": 27.3840909,
                "pitch": 41,
                "velocity": 64,
                "duration": 0.2340909,
                "tempo": 120.0
            },
            {
                "start_time": 27.4,
                "end_time": 27.8840909,
                "pitch": 41,
                "velocity": 64,
                "duration": 0.4840909,
                "tempo": 120.0
            },
            {
                "start_time": 27.9,
                "end_time": 28.2659091,
                "pitch": 44,
                "velocity": 64,
                "duration": 0.3659091,
                "tempo": 120.0
            },
            {
                "start_time": 28.2840909,
                "end_time": 28.6340909,
                "pitch": 44,
                "velocity": 64,
                "duration": 0.35,
                "tempo": 120.0
            },
            {
                "start_time": 28.65,
                "end_time": 28.8840909,
                "pitch": 44,
                "velocity": 64,
                "duration": 0.2340909,
                "tempo": 120.0
            },
            {
                "start_time": 29.15,
                "end_time": 29.3840909,
                "pitch": 44,
                "velocity": 64,
                "duration": 0.2340909,
                "tempo": 120.0
            },
            {
                "start_time": 29.4,
                "end_time": 29.8840909,
                "pitch": 44,
                "velocity": 64,
                "duration": 0.4840909,
                "tempo": 120.0
            },
            {
                "start_time": 29.9,
                "end_time": 30.275,
                "pitch": 49,
                "velocity": 64,
                "duration": 0.375,
                "tempo": 120.0
            },
            {
                "start_time": 30.2931818,
                "end_time": 30.6431818,
                "pitch": 49,
                "velocity": 64,
                "duration": 0.35,
                "tempo": 120.0
            },
            {
                "start_time": 30.6590909,
                "end_time": 30.8886364,
                "pitch": 49,
                "velocity": 64,
                "duration": 0.2295455,
                "tempo": 120.0
            },
            {
                "start_time": 31.1545455,
                "end_time": 31.3886364,
                "pitch": 49,
                "velocity": 64,
                "duration": 0.2340909,
                "tempo": 120.0
            },
            {
                "start_time": 31.4045455,
                "end_time": 31.8886364,
                "pitch": 49,
                "velocity": 64,
                "duration": 0.4840909,
                "tempo": 120.0
            },
            {
                "start_time": 31.9045455,
                "end_time": 32.2704545,
                "pitch": 44,
                "velocity": 64,
                "duration": 0.3659091,
                "tempo": 120.0
            },
            {
                "start_time": 32.2886364,
                "end_time": 32.6386364,
                "pitch": 44,
                "velocity": 64,
                "duration": 0.35,
                "tempo": 120.0
            },
            {
                "start_time": 32.6545455,
                "end_time": 32.8886364,
                "pitch": 44,
                "velocity": 64,
                "duration": 0.2340909,
                "tempo": 120.0
            },
            {
                "start_time": 33.1545455,
                "end_time": 33.3886364,
                "pitch": 44,
                "velocity": 64,
                "duration": 0.2340909,
                "tempo": 120.0
            },
            {
                "start_time": 33.4045455,
                "end_time": 33.8886364,
                "pitch": 44,
                "velocity": 64,
                "duration": 0.4840909,
                "tempo": 120.0
            },
            {
                "start_time": 33.9045455,
                "end_time": 34.2704545,
                "pitch": 44,
                "velocity": 64,
                "duration": 0.3659091,
                "tempo": 120.0
            },
            {
                "start_time": 34.2886364,
                "end_time": 34.6386364,
                "pitch": 44,
                "velocity": 64,
                "duration": 0.35,
                "tempo": 120.0
            },
            {
                "start_time": 34.6545455,
                "end_time": 34.8886364,
                "pitch": 44,
                "velocity": 64,
                "duration": 0.2340909,
                "tempo": 120.0
            },
            {
                "start_time": 35.1545455,
                "end_time": 35.3886364,
                "pitch": 44,
                "velocity": 64,
                "duration": 0.2340909,
                "tempo": 120.0
            },
            {
                "start_time": 35.4045455,
                "end_time": 35.8886364,
                "pitch": 44,
                "velocity": 64,
                "duration": 0.4840909,
                "tempo": 120.0
            },
            {
                "start_time": 35.9045455,
                "end_time": 36.2704545,
                "pitch": 39,
                "velocity": 64,
                "duration": 0.3659091,
                "tempo": 120.0
            },
            {
                "start_time": 36.2886364,
                "end_time": 36.6386364,
                "pitch": 39,
                "velocity": 64,
                "duration": 0.35,
                "tempo": 120.0
            },
            {
                "start_time": 36.6545455,
                "end_time": 36.8886364,
                "pitch": 39,
                "velocity": 64,
                "duration": 0.2340909,
                "tempo": 120.0
            },
            {
                "start_time": 37.1545455,
                "end_time": 37.3886364,
                "pitch": 39,
                "velocity": 64,
                "duration": 0.2340909,
                "tempo": 120.0
            },
            {
                "start_time": 37.4045455,
                "end_time": 37.8886364,
                "pitch": 39,
                "velocity": 64,
                "duration": 0.4840909,
                "tempo": 120.0
            },
            {
                "start_time": 37.9045455,
                "end_time": 38.2704545,
                "pitch": 39,
                "velocity": 64,
                "duration": 0.3659091,
                "tempo": 120.0
            },
            {
                "start_time": 38.2886364,
                "end_time": 38.6386364,
                "pitch": 39,
                "velocity": 64,
                "duration": 0.35,
                "tempo": 120.0
            },
            {
                "start_time": 38.6545455,
                "end_time": 38.8886364,
                "pitch": 39,
                "velocity": 64,
                "duration": 0.2340909,
                "tempo": 120.0
            },
            {
                "start_time": 39.1545455,
                "end_time": 39.3886364,
                "pitch": 39,
                "velocity": 64,
                "duration": 0.2340909,
                "tempo": 120.0
            },
            {
                "start_time": 39.4045455,
                "end_time": 39.8886364,
                "pitch": 39,
                "velocity": 64,
                "duration": 0.4840909,
                "tempo": 120.0
            },
            {
                "start_time": 39.9045455,
                "end_time": 40.2704545,
                "pitch": 44,
                "velocity": 64,
                "duration": 0.3659091,
                "tempo": 120.0
            },
            {
                "start_time": 40.2886364,
                "end_time": 40.6386364,
                "pitch": 44,
                "velocity": 64,
                "duration": 0.35,
                "tempo": 120.0
            },
            {
                "start_time": 40.6545455,
                "end_time": 40.8886364,
                "pitch": 44,
                "velocity": 64,
                "duration": 0.2340909,
                "tempo": 120.0
            },
            {
                "start_time": 41.1545455,
                "end_time": 41.3886364,
                "pitch": 44,
                "velocity": 64,
                "duration": 0.2340909,
                "tempo": 120.0
            },
            {
                "start_time": 41.4045455,
                "end_time": 41.8886364,
                "pitch": 44,
                "velocity": 64,
                "duration": 0.4840909,
                "tempo": 120.0
            },
            {
                "start_time": 41.9045455,
                "end_time": 42.2704545,
                "pitch": 44,
                "velocity": 64,
                "duration": 0.3659091,
                "tempo": 120.0
            },
            {
                "start_time": 42.2886364,
                "end_time": 42.6386364,
                "pitch": 44,
                "velocity": 64,
                "duration": 0.35,
                "tempo": 120.0
            },
            {
                "start_time": 42.6545455,
                "end_time": 42.8886364,
                "pitch": 44,
                "velocity": 64,
                "duration": 0.2340909,
                "tempo": 120.0
            },
            {
                "start_time": 43.1545455,
                "end_time": 43.3886364,
                "pitch": 44,
                "velocity": 64,
                "duration": 0.2340909,
                "tempo": 120.0
            },
            {
                "start_time": 43.4045455,
                "end_time": 43.8886364,
                "pitch": 44,
                "velocity": 64,
                "duration": 0.4840909,
                "tempo": 120.0
            },
            {
                "start_time": 43.9045455,
                "end_time": 44.2704545,
                "pitch": 44,
                "velocity": 64,
                "duration": 0.3659091,
                "tempo": 120.0
            },
            {
                "start_time": 44.2886364,
                "end_time": 44.6386364,
                "pitch": 44,
                "velocity": 64,
                "duration": 0.35,
                "tempo": 120.0
            },
            {
                "start_time": 44.6545455,
                "end_time": 44.8886364,
                "pitch": 44,
                "velocity": 64,
                "duration": 0.2340909,
                "tempo": 120.0
            },
            {
                "start_time": 45.1545455,
                "end_time": 45.3886364,
                "pitch": 44,
                "velocity": 64,
                "duration": 0.2340909,
                "tempo": 120.0
            },
            {
                "start_time": 45.4045455,
                "end_time": 45.8886364,
                "pitch": 44,
                "velocity": 64,
                "duration": 0.4840909,
                "tempo": 120.0
            },
            {
                "start_time": 45.9045455,
                "end_time": 46.2795455,
                "pitch": 49,
                "velocity": 64,
                "duration": 0.375,
                "tempo": 120.0
            },
            {
                "start_time": 46.2977273,
                "end_time": 46.6454545,
                "pitch": 49,
                "velocity": 64,
                "duration": 0.3477273,
                "tempo": 120.0
            },
            {
                "start_time": 46.6636364,
                "end_time": 46.8931818,
                "pitch": 49,
                "velocity": 64,
                "duration": 0.2295455,
                "tempo": 120.0
            },
            {
                "start_time": 47.1590909,
                "end_time": 47.3931818,
                "pitch": 49,
                "velocity": 64,
                "duration": 0.2340909,
                "tempo": 120.0
            },
            {
                "start_time": 47.4090909,
                "end_time": 47.8931818,
                "pitch": 49,
                "velocity": 64,
                "duration": 0.4840909,
                "tempo": 120.0
            },
            {
                "start_time": 47.9090909,
                "end_time": 48.275,
                "pitch": 49,
                "velocity": 64,
                "duration": 0.3659091,
                "tempo": 120.0
            },
            {
                "start_time": 48.2931818,
                "end_time": 48.6431818,
                "pitch": 49,
                "velocity": 64,
                "duration": 0.35,
                "tempo": 120.0
            },
            {
                "start_time": 48.6590909,
                "end_time": 48.8931818,
                "pitch": 49,
                "velocity": 64,
                "duration": 0.2340909,
                "tempo": 120.0
            },
            {
                "start_time": 49.1590909,
                "end_time": 49.3931818,
                "pitch": 49,
                "velocity": 64,
                "duration": 0.2340909,
                "tempo": 120.0
            },
            {
                "start_time": 49.4090909,
                "end_time": 49.8931818,
                "pitch": 49,
                "velocity": 64,
                "duration": 0.4840909,
                "tempo": 120.0
            },
            {
                "start_time": 49.9090909,
                "end_time": 50.275,
                "pitch": 48,
                "velocity": 64,
                "duration": 0.3659091,
                "tempo": 120.0
            },
            {
                "start_time": 50.2931818,
                "end_time": 50.6431818,
                "pitch": 48,
                "velocity": 64,
                "duration": 0.35,
                "tempo": 120.0
            },
            {
                "start_time": 50.6590909,
                "end_time": 50.8931818,
                "pitch": 48,
                "velocity": 64,
                "duration": 0.2340909,
                "tempo": 120.0
            },
            {
                "start_time": 51.1590909,
                "end_time": 51.3931818,
                "pitch": 48,
                "velocity": 64,
                "duration": 0.2340909,
                "tempo": 120.0
            },
            {
                "start_time": 51.4090909,
                "end_time": 51.8931818,
                "pitch": 48,
                "velocity": 64,
                "duration": 0.4840909,
                "tempo": 120.0
            },
            {
                "start_time": 51.9090909,
                "end_time": 52.275,
                "pitch": 46,
                "velocity": 64,
                "duration": 0.3659091,
                "tempo": 120.0
            },
            {
                "start_time": 52.2931818,
                "end_time": 52.6431818,
                "pitch": 46,
                "velocity": 64,
                "duration": 0.35,
                "tempo": 120.0
            },
            {
                "start_time": 52.6590909,
                "end_time": 52.8931818,
                "pitch": 46,
                "velocity": 64,
                "duration": 0.2340909,
                "tempo": 120.0
            },
            {
                "start_time": 53.1590909,
                "end_time": 53.3931818,
                "pitch": 46,
                "velocity": 64,
                "duration": 0.2340909,
                "tempo": 120.0
            },
            {
                "start_time": 53.4090909,
                "end_time": 53.8931818,
                "pitch": 46,
                "velocity": 64,
                "duration": 0.4840909,
                "tempo": 120.0
            },
            {
                "start_time": 53.9090909,
                "end_time": 54.275,
                "pitch": 44,
                "velocity": 64,
                "duration": 0.3659091,
                "tempo": 120.0
            },
            {
                "start_time": 54.2931818,
                "end_time": 54.6431818,
                "pitch": 44,
                "velocity": 64,
                "duration": 0.35,
                "tempo": 120.0
            },
            {
                "start_time": 54.6590909,
                "end_time": 54.8931818,
                "pitch": 44,
                "velocity": 64,
                "duration": 0.2340909,
                "tempo": 120.0
            },
            {
                "start_time": 55.1590909,
                "end_time": 55.3931818,
                "pitch": 44,
                "velocity": 64,
                "duration": 0.2340909,
                "tempo": 120.0
            },
            {
                "start_time": 55.4090909,
                "end_time": 55.8931818,
                "pitch": 44,
                "velocity": 64,
                "duration": 0.4840909,
                "tempo": 120.0
            },
            {
                "start_time": 55.9090909,
                "end_time": 56.275,
                "pitch": 42,
                "velocity": 64,
                "duration": 0.3659091,
                "tempo": 120.0
            },
            {
                "start_time": 56.2931818,
                "end_time": 56.6431818,
                "pitch": 42,
                "velocity": 64,
                "duration": 0.35,
                "tempo": 120.0
            },
            {
                "start_time": 56.6590909,
                "end_time": 56.8931818,
                "pitch": 42,
                "velocity": 64,
                "duration": 0.2340909,
                "tempo": 120.0
            },
            {
                "start_time": 57.1590909,
                "end_time": 57.3931818,
                "pitch": 42,
                "velocity": 64,
                "duration": 0.2340909,
                "tempo": 120.0
            },
            {
                "start_time": 57.4090909,
                "end_time": 57.8931818,
                "pitch": 42,
                "velocity": 64,
                "duration": 0.4840909,
                "tempo": 120.0
            },
            {
                "start_time": 57.9090909,
                "end_time": 58.275,
                "pitch": 41,
                "velocity": 64,
                "duration": 0.3659091,
                "tempo": 120.0
            },
            {
                "start_time": 58.2931818,
                "end_time": 58.6431818,
                "pitch": 41,
                "velocity": 64,
                "duration": 0.35,
                "tempo": 120.0
            },
            {
                "start_time": 58.6590909,
                "end_time": 58.8931818,
                "pitch": 41,
                "velocity": 64,
                "duration": 0.2340909,
                "tempo": 120.0
            },
            {
                "start_time": 59.1590909,
                "end_time": 59.3931818,
                "pitch": 41,
                "velocity": 64,
                "duration": 0.2340909,
                "tempo": 120.0
            },
            {
                "start_time": 59.4090909,
                "end_time": 59.8931818,
                "pitch": 41,
                "velocity": 64,
                "duration": 0.4840909,
                "tempo": 120.0
            },
            {
                "start_time": 59.9090909,
                "end_time": 60.275,
                "pitch": 42,
                "velocity": 64,
                "duration": 0.3659091,
                "tempo": 120.0
            },
            {
                "start_time": 60.2931818,
                "end_time": 60.6431818,
                "pitch": 42,
                "velocity": 64,
                "duration": 0.35,
                "tempo": 120.0
            },
            {
                "start_time": 60.6590909,
                "end_time": 60.8931818,
                "pitch": 42,
                "velocity": 64,
                "duration": 0.2340909,
                "tempo": 120.0
            },
            {
                "start_time": 61.1590909,
                "end_time": 61.3931818,
                "pitch": 42,
                "velocity": 64,
                "duration": 0.2340909,
                "tempo": 120.0
            },
            {
                "start_time": 61.4090909,
                "end_time": 61.8931818,
                "pitch": 42,
                "velocity": 64,
                "duration": 0.4840909,
                "tempo": 120.0
            },
            {
                "start_time": 61.9090909,
                "end_time": 62.275,
                "pitch": 44,
                "velocity": 64,
                "duration": 0.3659091,
                "tempo": 120.0
            },
            {
                "start_time": 62.2931818,
                "end_time": 62.6431818,
                "pitch": 44,
                "velocity": 64,
                "duration": 0.35,
                "tempo": 120.0
            },
            {
                "start_time": 62.6590909,
                "end_time": 62.8931818,
                "pitch": 44,
                "velocity": 64,
                "duration": 0.2340909,
                "tempo": 120.0
            },
            {
                "start_time": 63.1590909,
                "end_time": 63.3931818,
                "pitch": 44,
                "velocity": 64,
                "duration": 0.2340909,
                "tempo": 120.0
            },
            {
                "start_time": 63.4090909,
                "end_time": 63.8931818,
                "pitch": 44,
                "velocity": 64,
                "duration": 0.4840909,
                "tempo": 120.0
            },
            {
                "start_time": 63.9090909,
                "end_time": 64.275,
                "pitch": 49,
                "velocity": 64,
                "duration": 0.3659091,
                "tempo": 120.0
            },
            {
                "start_time": 64.2931818,
                "end_time": 64.6431818,
                "pitch": 49,
                "velocity": 64,
                "duration": 0.35,
                "tempo": 120.0
            },
            {
                "start_time": 64.6590909,
                "end_time": 64.8931818,
                "pitch": 49,
                "velocity": 64,
                "duration": 0.2340909,
                "tempo": 120.0
            },
            {
                "start_time": 65.1590909,
                "end_time": 65.3931818,
                "pitch": 49,
                "velocity": 64,
                "duration": 0.2340909,
                "tempo": 120.0
            },
            {
                "start_time": 65.4090909,
                "end_time": 65.8931818,
                "pitch": 49,
                "velocity": 64,
                "duration": 0.4840909,
                "tempo": 120.0
            },
            {
                "start_time": 65.9090909,
                "end_time": 66.275,
                "pitch": 48,
                "velocity": 64,
                "duration": 0.3659091,
                "tempo": 120.0
            },
            {
                "start_time": 66.2931818,
                "end_time": 66.6431818,
                "pitch": 48,
                "velocity": 64,
                "duration": 0.35,
                "tempo": 120.0
            },
            {
                "start_time": 66.6590909,
                "end_time": 66.8931818,
                "pitch": 48,
                "velocity": 64,
                "duration": 0.2340909,
                "tempo": 120.0
            },
            {
                "start_time": 67.1590909,
                "end_time": 67.3931818,
                "pitch": 48,
                "velocity": 64,
                "duration": 0.2340909,
                "tempo": 120.0
            },
            {
                "start_time": 67.4090909,
                "end_time": 67.8931818,
                "pitch": 48,
                "velocity": 64,
                "duration": 0.4840909,
                "tempo": 120.0
            },
            {
                "start_time": 67.9090909,
                "end_time": 68.275,
                "pitch": 46,
                "velocity": 64,
                "duration": 0.3659091,
                "tempo": 120.0
            },
            {
                "start_time": 68.2931818,
                "end_time": 68.6431818,
                "pitch": 46,
                "velocity": 64,
                "duration": 0.35,
                "tempo": 120.0
            },
            {
                "start_time": 68.6590909,
                "end_time": 68.8931818,
                "pitch": 46,
                "velocity": 64,
                "duration": 0.2340909,
                "tempo": 120.0
            },
            {
                "start_time": 69.1590909,
                "end_time": 69.3931818,
                "pitch": 46,
                "velocity": 64,
                "duration": 0.2340909,
                "tempo": 120.0
            },
            {
                "start_time": 69.4090909,
                "end_time": 69.8931818,
                "pitch": 46,
                "velocity": 64,
                "duration": 0.4840909,
                "tempo": 120.0
            },
            {
                "start_time": 69.9090909,
                "end_time": 70.275,
                "pitch": 44,
                "velocity": 64,
                "duration": 0.3659091,
                "tempo": 120.0
            },
            {
                "start_time": 70.2931818,
                "end_time": 70.6431818,
                "pitch": 44,
                "velocity": 64,
                "duration": 0.35,
                "tempo": 120.0
            },
            {
                "start_time": 70.6590909,
                "end_time": 70.8931818,
                "pitch": 44,
                "velocity": 64,
                "duration": 0.2340909,
                "tempo": 120.0
            },
            {
                "start_time": 71.1590909,
                "end_time": 71.3931818,
                "pitch": 44,
                "velocity": 64,
                "duration": 0.2340909,
                "tempo": 120.0
            },
            {
                "start_time": 71.4090909,
                "end_time": 71.8931818,
                "pitch": 44,
                "velocity": 64,
                "duration": 0.4840909,
                "tempo": 120.0
            },
            {
                "start_time": 71.9090909,
                "end_time": 72.275,
                "pitch": 42,
                "velocity": 64,
                "duration": 0.3659091,
                "tempo": 120.0
            },
            {
                "start_time": 72.2931818,
                "end_time": 72.6431818,
                "pitch": 42,
                "velocity": 64,
                "duration": 0.35,
                "tempo": 120.0
            },
            {
                "start_time": 72.6590909,
                "end_time": 72.8931818,
                "pitch": 42,
                "velocity": 64,
                "duration": 0.2340909,
                "tempo": 120.0
            },
            {
                "start_time": 73.1590909,
                "end_time": 73.3931818,
                "pitch": 42,
                "velocity": 64,
                "duration": 0.2340909,
                "tempo": 120.0
            },
            {
                "start_time": 73.4090909,
                "end_time": 73.8931818,
                "pitch": 42,
                "velocity": 64,
                "duration": 0.4840909,
                "tempo": 120.0
            },
            {
                "start_time": 73.9090909,
                "end_time": 74.275,
                "pitch": 41,
                "velocity": 64,
                "duration": 0.3659091,
                "tempo": 120.0
            },
            {
                "start_time": 74.2931818,
                "end_time": 74.6431818,
                "pitch": 41,
                "velocity": 64,
                "duration": 0.35,
                "tempo": 120.0
            },
            {
                "start_time": 74.6590909,
                "end_time": 74.8931818,
                "pitch": 41,
                "velocity": 64,
                "duration": 0.2340909,
                "tempo": 120.0
            },
            {
                "start_time": 75.1590909,
                "end_time": 75.3931818,
                "pitch": 41,
                "velocity": 64,
                "duration": 0.2340909,
                "tempo": 120.0
            },
            {
                "start_time": 75.4090909,
                "end_time": 75.8931818,
                "pitch": 41,
                "velocity": 64,
                "duration": 0.4840909,
                "tempo": 120.0
            },
            {
                "start_time": 75.9090909,
                "end_time": 76.275,
                "pitch": 44,
                "velocity": 64,
                "duration": 0.3659091,
                "tempo": 120.0
            },
            {
                "start_time": 76.2931818,
                "end_time": 76.6431818,
                "pitch": 44,
                "velocity": 64,
                "duration": 0.35,
                "tempo": 120.0
            },
            {
                "start_time": 76.6590909,
                "end_time": 76.8931818,
                "pitch": 44,
                "velocity": 64,
                "duration": 0.2340909,
                "tempo": 120.0
            },
            {
                "start_time": 77.1590909,
                "end_time": 77.3931818,
                "pitch": 44,
                "velocity": 64,
                "duration": 0.2340909,
                "tempo": 120.0
            },
            {
                "start_time": 77.4090909,
                "end_time": 77.8931818,
                "pitch": 44,
                "velocity": 64,
                "duration": 0.4840909,
                "tempo": 120.0
            },
            {
                "start_time": 77.9090909,
                "end_time": 78.2840909,
                "pitch": 49,
                "velocity": 64,
                "duration": 0.375,
                "tempo": 120.0
            },
            {
                "start_time": 78.3022727,
                "end_time": 78.65,
                "pitch": 49,
                "velocity": 64,
                "duration": 0.3477273,
                "tempo": 120.0
            },
            {
                "start_time": 78.6681818,
                "end_time": 78.8977273,
                "pitch": 49,
                "velocity": 64,
                "duration": 0.2295455,
                "tempo": 120.0
            },
            {
                "start_time": 79.1636364,
                "end_time": 79.3954545,
                "pitch": 49,
                "velocity": 64,
                "duration": 0.2318182,
                "tempo": 120.0
            },
            {
                "start_time": 79.4136364,
                "end_time": 79.8954545,
                "pitch": 49,
                "velocity": 64,
                "duration": 0.4818182,
                "tempo": 120.0
            },
            {
                "start_time": 79.9136364,
                "end_time": 80.2795455,
                "pitch": 49,
                "velocity": 64,
                "duration": 0.3659091,
                "tempo": 120.0
            },
            {
                "start_time": 80.2954545,
                "end_time": 80.6454545,
                "pitch": 49,
                "velocity": 64,
                "duration": 0.35,
                "tempo": 120.0
            },
            {
                "start_time": 80.6636364,
                "end_time": 80.8954545,
                "pitch": 49,
                "velocity": 64,
                "duration": 0.2318182,
                "tempo": 120.0
            },
            {
                "start_time": 81.1636364,
                "end_time": 81.3954545,
                "pitch": 49,
                "velocity": 64,
                "duration": 0.2318182,
                "tempo": 120.0
            },
            {
                "start_time": 81.4136364,
                "end_time": 81.8954545,
                "pitch": 49,
                "velocity": 64,
                "duration": 0.4818182,
                "tempo": 120.0
            },
            {
                "start_time": 81.9136364,
                "end_time": 82.2795455,
                "pitch": 49,
                "velocity": 64,
                "duration": 0.3659091,
                "tempo": 120.0
            },
            {
                "start_time": 82.2954545,
                "end_time": 82.6454545,
                "pitch": 49,
                "velocity": 64,
                "duration": 0.35,
                "tempo": 120.0
            },
            {
                "start_time": 82.6636364,
                "end_time": 82.8954545,
                "pitch": 49,
                "velocity": 64,
                "duration": 0.2318182,
                "tempo": 120.0
            },
            {
                "start_time": 83.1636364,
                "end_time": 83.3954545,
                "pitch": 49,
                "velocity": 64,
                "duration": 0.2318182,
                "tempo": 120.0
            },
            {
                "start_time": 83.4136364,
                "end_time": 83.8954545,
                "pitch": 49,
                "velocity": 64,
                "duration": 0.4818182,
                "tempo": 120.0
            },
            {
                "start_time": 83.9136364,
                "end_time": 84.2795455,
                "pitch": 49,
                "velocity": 64,
                "duration": 0.3659091,
                "tempo": 120.0
            },
            {
                "start_time": 84.2954545,
                "end_time": 84.6454545,
                "pitch": 49,
                "velocity": 64,
                "duration": 0.35,
                "tempo": 120.0
            },
            {
                "start_time": 84.6636364,
                "end_time": 84.8954545,
                "pitch": 49,
                "velocity": 64,
                "duration": 0.2318182,
                "tempo": 120.0
            },
            {
                "start_time": 85.1636364,
                "end_time": 85.3954545,
                "pitch": 49,
                "velocity": 64,
                "duration": 0.2318182,
                "tempo": 120.0
            },
            {
                "start_time": 85.4136364,
                "end_time": 85.8954545,
                "pitch": 49,
                "velocity": 64,
                "duration": 0.4818182,
                "tempo": 120.0
            },
            {
                "start_time": 85.9136364,
                "end_time": 86.2795455,
                "pitch": 49,
                "velocity": 64,
                "duration": 0.3659091,
                "tempo": 120.0
            },
            {
                "start_time": 86.2954545,
                "end_time": 86.6454545,
                "pitch": 49,
                "velocity": 64,
                "duration": 0.35,
                "tempo": 120.0
            },
            {
                "start_time": 86.6636364,
                "end_time": 86.8954545,
                "pitch": 49,
                "velocity": 64,
                "duration": 0.2318182,
                "tempo": 120.0
            },
            {
                "start_time": 87.1681818,
                "end_time": 87.4090909,
                "pitch": 49,
                "velocity": 64,
                "duration": 0.2409091,
                "tempo": 120.0
            },
            {
                "start_time": 87.425,
                "end_time": 87.9,
                "pitch": 49,
                "velocity": 64,
                "duration": 0.475,
                "tempo": 120.0
            },
            {
                "start_time": 87.9181818,
                "end_time": 88.2840909,
                "pitch": 49,
                "velocity": 64,
                "duration": 0.3659091,
                "tempo": 120.0
            },
            {
                "start_time": 88.3,
                "end_time": 88.65,
                "pitch": 49,
                "velocity": 64,
                "duration": 0.35,
                "tempo": 120.0
            },
            {
                "start_time": 88.6681818,
                "end_time": 88.9,
                "pitch": 49,
                "velocity": 64,
                "duration": 0.2318182,
                "tempo": 120.0
            },
            {
                "start_time": 89.1727273,
                "end_time": 89.4136364,
                "pitch": 49,
                "velocity": 64,
                "duration": 0.2409091,
                "tempo": 120.0
            },
            {
                "start_time": 89.4295455,
                "end_time": 89.9045455,
                "pitch": 49,
                "velocity": 64,
                "duration": 0.475,
                "tempo": 120.0
            },
            {
                "start_time": 89.9227273,
                "end_time": 90.2886364,
                "pitch": 49,
                "velocity": 64,
                "duration": 0.3659091,
                "tempo": 120.0
            },
            {
                "start_time": 90.3045455,
                "end_time": 90.6545455,
                "pitch": 49,
                "velocity": 64,
                "duration": 0.35,
                "tempo": 120.0
            },
            {
                "start_time": 90.6727273,
                "end_time": 90.9045455,
                "pitch": 49,
                "velocity": 64,
                "duration": 0.2318182,
                "tempo": 120.0
            },
            {
                "start_time": 91.1727273,
                "end_time": 91.4045455,
                "pitch": 49,
                "velocity": 64,
                "duration": 0.2318182,
                "tempo": 120.0
            },
            {
                "start_time": 91.4227273,
                "end_time": 91.9045455,
                "pitch": 49,
                "velocity": 64,
                "duration": 0.4818182,
                "tempo": 120.0
            },
            {
                "start_time": 91.9227273,
                "end_time": 92.2886364,
                "pitch": 49,
                "velocity": 64,
                "duration": 0.3659091,
                "tempo": 120.0
            },
            {
                "start_time": 92.3045455,
                "end_time": 92.6545455,
                "pitch": 49,
                "velocity": 64,
                "duration": 0.35,
                "tempo": 120.0
            },
            {
                "start_time": 92.6727273,
                "end_time": 92.9045455,
                "pitch": 49,
                "velocity": 64,
                "duration": 0.2318182,
                "tempo": 120.0
            },
            {
                "start_time": 93.1772727,
                "end_time": 93.4181818,
                "pitch": 49,
                "velocity": 64,
                "duration": 0.2409091,
                "tempo": 120.0
            },
            {
                "start_time": 93.4340909,
                "end_time": 93.9090909,
                "pitch": 49,
                "velocity": 64,
                "duration": 0.475,
                "tempo": 120.0
            },
            {
                "start_time": 93.9272727,
                "end_time": 94.2931818,
                "pitch": 49,
                "velocity": 64,
                "duration": 0.3659091,
                "tempo": 120.0
            },
            {
                "start_time": 94.3090909,
                "end_time": 94.6590909,
                "pitch": 49,
                "velocity": 64,
                "duration": 0.35,
                "tempo": 120.0
            },
            {
                "start_time": 94.6772727,
                "end_time": 94.9090909,
                "pitch": 49,
                "velocity": 64,
                "duration": 0.2318182,
                "tempo": 120.0
            },
            {
                "start_time": 95.1772727,
                "end_time": 95.4090909,
                "pitch": 49,
                "velocity": 64,
                "duration": 0.2318182,
                "tempo": 120.0
            },
            {
                "start_time": 95.4272727,
                "end_time": 95.9090909,
                "pitch": 49,
                "velocity": 64,
                "duration": 0.4818182,
                "tempo": 120.0
            },
            {
                "start_time": 95.9272727,
                "end_time": 96.2931818,
                "pitch": 42,
                "velocity": 64,
                "duration": 0.3659091,
                "tempo": 120.0
            },
            {
                "start_time": 96.3090909,
                "end_time": 96.4090909,
                "pitch": 42,
                "velocity": 64,
                "duration": 0.1,
                "tempo": 120.0
            },
            {
                "start_time": 96.4272727,
                "end_time": 96.6590909,
                "pitch": 49,
                "velocity": 64,
                "duration": 0.2318182,
                "tempo": 120.0
            },
            {
                "start_time": 96.6772727,
                "end_time": 96.9090909,
                "pitch": 54,
                "velocity": 64,
                "duration": 0.2318182,
                "tempo": 120.0
            },
            {
                "start_time": 96.9272727,
                "end_time": 97.2931818,
                "pitch": 41,
                "velocity": 64,
                "duration": 0.3659091,
                "tempo": 120.0
            },
            {
                "start_time": 97.3090909,
                "end_time": 97.4090909,
                "pitch": 41,
                "velocity": 64,
                "duration": 0.1,
                "tempo": 120.0
            },
            {
                "start_time": 97.4272727,
                "end_time": 97.6590909,
                "pitch": 49,
                "velocity": 64,
                "duration": 0.2318182,
                "tempo": 120.0
            },
            {
                "start_time": 97.6772727,
                "end_time": 97.9090909,
                "pitch": 53,
                "velocity": 64,
                "duration": 0.2318182,
                "tempo": 120.0
            },
            {
                "start_time": 97.9272727,
                "end_time": 98.2931818,
                "pitch": 39,
                "velocity": 64,
                "duration": 0.3659091,
                "tempo": 120.0
            },
            {
                "start_time": 98.3090909,
                "end_time": 98.4090909,
                "pitch": 39,
                "velocity": 64,
                "duration": 0.1,
                "tempo": 120.0
            },
            {
                "start_time": 98.4272727,
                "end_time": 98.6590909,
                "pitch": 46,
                "velocity": 64,
                "duration": 0.2318182,
                "tempo": 120.0
            },
            {
                "start_time": 98.6772727,
                "end_time": 98.9090909,
                "pitch": 51,
                "velocity": 64,
                "duration": 0.2318182,
                "tempo": 120.0
            },
            {
                "start_time": 98.9272727,
                "end_time": 99.2931818,
                "pitch": 37,
                "velocity": 64,
                "duration": 0.3659091,
                "tempo": 120.0
            },
            {
                "start_time": 99.3090909,
                "end_time": 99.4090909,
                "pitch": 37,
                "velocity": 64,
                "duration": 0.1,
                "tempo": 120.0
            },
            {
                "start_time": 99.4272727,
                "end_time": 99.6590909,
                "pitch": 46,
                "velocity": 64,
                "duration": 0.2318182,
                "tempo": 120.0
            },
            {
                "start_time": 99.6772727,
                "end_time": 99.9090909,
                "pitch": 49,
                "velocity": 64,
                "duration": 0.2318182,
                "tempo": 120.0
            },
            {
                "start_time": 99.9272727,
                "end_time": 100.2931818,
                "pitch": 44,
                "velocity": 64,
                "duration": 0.3659091,
                "tempo": 120.0
            },
            {
                "start_time": 100.3090909,
                "end_time": 100.4090909,
                "pitch": 44,
                "velocity": 64,
                "duration": 0.1,
                "tempo": 120.0
            },
            {
                "start_time": 100.4272727,
                "end_time": 100.6590909,
                "pitch": 51,
                "velocity": 64,
                "duration": 0.2318182,
                "tempo": 120.0
            },
            {
                "start_time": 100.6772727,
                "end_time": 100.9090909,
                "pitch": 56,
                "velocity": 64,
                "duration": 0.2318182,
                "tempo": 120.0
            },
            {
                "start_time": 100.9272727,
                "end_time": 101.2931818,
                "pitch": 43,
                "velocity": 64,
                "duration": 0.3659091,
                "tempo": 120.0
            },
            {
                "start_time": 101.3090909,
                "end_time": 101.4090909,
                "pitch": 43,
                "velocity": 64,
                "duration": 0.1,
                "tempo": 120.0
            },
            {
                "start_time": 101.4272727,
                "end_time": 101.6590909,
                "pitch": 51,
                "velocity": 64,
                "duration": 0.2318182,
                "tempo": 120.0
            },
            {
                "start_time": 101.6772727,
                "end_time": 101.9090909,
                "pitch": 55,
                "velocity": 64,
                "duration": 0.2318182,
                "tempo": 120.0
            },
            {
                "start_time": 101.9272727,
                "end_time": 102.2931818,
                "pitch": 42,
                "velocity": 64,
                "duration": 0.3659091,
                "tempo": 120.0
            },
            {
                "start_time": 102.3090909,
                "end_time": 102.4090909,
                "pitch": 42,
                "velocity": 64,
                "duration": 0.1,
                "tempo": 120.0
            },
            {
                "start_time": 102.4272727,
                "end_time": 102.6590909,
                "pitch": 51,
                "velocity": 64,
                "duration": 0.2318182,
                "tempo": 120.0
            },
            {
                "start_time": 102.6772727,
                "end_time": 102.9090909,
                "pitch": 54,
                "velocity": 64,
                "duration": 0.2318182,
                "tempo": 120.0
            },
            {
                "start_time": 102.9272727,
                "end_time": 103.2931818,
                "pitch": 41,
                "velocity": 64,
                "duration": 0.3659091,
                "tempo": 120.0
            },
            {
                "start_time": 103.3090909,
                "end_time": 103.4090909,
                "pitch": 41,
                "velocity": 64,
                "duration": 0.1,
                "tempo": 120.0
            },
            {
                "start_time": 103.4272727,
                "end_time": 103.6590909,
                "pitch": 49,
                "velocity": 64,
                "duration": 0.2318182,
                "tempo": 120.0
            },
            {
                "start_time": 103.6772727,
                "end_time": 103.9090909,
                "pitch": 53,
                "velocity": 64,
                "duration": 0.2318182,
                "tempo": 120.0
            },
            {
                "start_time": 103.9272727,
                "end_time": 104.2931818,
                "pitch": 42,
                "velocity": 64,
                "duration": 0.3659091,
                "tempo": 120.0
            },
            {
                "start_time": 104.3090909,
                "end_time": 104.4090909,
                "pitch": 42,
                "velocity": 64,
                "duration": 0.1,
                "tempo": 120.0
            },
            {
                "start_time": 104.4272727,
                "end_time": 104.6590909,
                "pitch": 49,
                "velocity": 64,
                "duration": 0.2318182,
                "tempo": 120.0
            },
            {
                "start_time": 104.6772727,
                "end_time": 104.9090909,
                "pitch": 54,
                "velocity": 64,
                "duration": 0.2318182,
                "tempo": 120.0
            },
            {
                "start_time": 104.9272727,
                "end_time": 105.2931818,
                "pitch": 41,
                "velocity": 64,
                "duration": 0.3659091,
                "tempo": 120.0
            },
            {
                "start_time": 105.3090909,
                "end_time": 105.4090909,
                "pitch": 41,
                "velocity": 64,
                "duration": 0.1,
                "tempo": 120.0
            },
            {
                "start_time": 105.4272727,
                "end_time": 105.6590909,
                "pitch": 49,
                "velocity": 64,
                "duration": 0.2318182,
                "tempo": 120.0
            },
            {
                "start_time": 105.6772727,
                "end_time": 105.9090909,
                "pitch": 53,
                "velocity": 64,
                "duration": 0.2318182,
                "tempo": 120.0
            },
            {
                "start_time": 105.9272727,
                "end_time": 106.2931818,
                "pitch": 39,
                "velocity": 64,
                "duration": 0.3659091,
                "tempo": 120.0
            },
            {
                "start_time": 106.3090909,
                "end_time": 106.4090909,
                "pitch": 39,
                "velocity": 64,
                "duration": 0.1,
                "tempo": 120.0
            },
            {
                "start_time": 106.4272727,
                "end_time": 106.6590909,
                "pitch": 46,
                "velocity": 64,
                "duration": 0.2318182,
                "tempo": 120.0
            },
            {
                "start_time": 106.6772727,
                "end_time": 106.9090909,
                "pitch": 51,
                "velocity": 64,
                "duration": 0.2318182,
                "tempo": 120.0
            },
            {
                "start_time": 106.9272727,
                "end_time": 107.2931818,
                "pitch": 37,
                "velocity": 64,
                "duration": 0.3659091,
                "tempo": 120.0
            },
            {
                "start_time": 107.3090909,
                "end_time": 107.4090909,
                "pitch": 37,
                "velocity": 64,
                "duration": 0.1,
                "tempo": 120.0
            },
            {
                "start_time": 107.4272727,
                "end_time": 107.6590909,
                "pitch": 46,
                "velocity": 64,
                "duration": 0.2318182,
                "tempo": 120.0
            },
            {
                "start_time": 107.6772727,
                "end_time": 107.9090909,
                "pitch": 49,
                "velocity": 64,
                "duration": 0.2318182,
                "tempo": 120.0
            },
            {
                "start_time": 107.9272727,
                "end_time": 108.2931818,
                "pitch": 47,
                "velocity": 64,
                "duration": 0.3659091,
                "tempo": 120.0
            },
            {
                "start_time": 108.3090909,
                "end_time": 108.4090909,
                "pitch": 47,
                "velocity": 64,
                "duration": 0.1,
                "tempo": 120.0
            },
            {
                "start_time": 108.4272727,
                "end_time": 108.6590909,
                "pitch": 42,
                "velocity": 64,
                "duration": 0.2318182,
                "tempo": 120.0
            },
            {
                "start_time": 108.6772727,
                "end_time": 108.9090909,
                "pitch": 47,
                "velocity": 64,
                "duration": 0.2318182,
                "tempo": 120.0
            },
            {
                "start_time": 108.9272727,
                "end_time": 109.2931818,
                "pitch": 37,
                "velocity": 64,
                "duration": 0.3659091,
                "tempo": 120.0
            },
            {
                "start_time": 109.3090909,
                "end_time": 109.4090909,
                "pitch": 37,
                "velocity": 64,
                "duration": 0.1,
                "tempo": 120.0
            },
            {
                "start_time": 109.4272727,
                "end_time": 109.6590909,
                "pitch": 44,
                "velocity": 64,
                "duration": 0.2318182,
                "tempo": 120.0
            },
            {
                "start_time": 109.6772727,
                "end_time": 109.9090909,
                "pitch": 49,
                "velocity": 64,
                "duration": 0.2318182,
                "tempo": 120.0
            },
            {
                "start_time": 109.9272727,
                "end_time": 110.2931818,
                "pitch": 42,
                "velocity": 64,
                "duration": 0.3659091,
                "tempo": 120.0
            },
            {
                "start_time": 110.3090909,
                "end_time": 110.4090909,
                "pitch": 42,
                "velocity": 64,
                "duration": 0.1,
                "tempo": 120.0
            },
            {
                "start_time": 110.4272727,
                "end_time": 110.6590909,
                "pitch": 49,
                "velocity": 64,
                "duration": 0.2318182,
                "tempo": 120.0
            },
            {
                "start_time": 110.6772727,
                "end_time": 110.9090909,
                "pitch": 54,
                "velocity": 64,
                "duration": 0.2318182,
                "tempo": 120.0
            },
            {
                "start_time": 110.9272727,
                "end_time": 111.2931818,
                "pitch": 41,
                "velocity": 64,
                "duration": 0.3659091,
                "tempo": 120.0
            },
            {
                "start_time": 111.3090909,
                "end_time": 111.4090909,
                "pitch": 41,
                "velocity": 64,
                "duration": 0.1,
                "tempo": 120.0
            },
            {
                "start_time": 111.4272727,
                "end_time": 111.6590909,
                "pitch": 49,
                "velocity": 64,
                "duration": 0.2318182,
                "tempo": 120.0
            },
            {
                "start_time": 111.6772727,
                "end_time": 111.9090909,
                "pitch": 52,
                "velocity": 64,
                "duration": 0.2318182,
                "tempo": 120.0
            },
            {
                "start_time": 111.9272727,
                "end_time": 112.2931818,
                "pitch": 39,
                "velocity": 64,
                "duration": 0.3659091,
                "tempo": 120.0
            },
            {
                "start_time": 112.3090909,
                "end_time": 112.4090909,
                "pitch": 39,
                "velocity": 64,
                "duration": 0.1,
                "tempo": 120.0
            },
            {
                "start_time": 112.4272727,
                "end_time": 112.6590909,
                "pitch": 46,
                "velocity": 64,
                "duration": 0.2318182,
                "tempo": 120.0
            },
            {
                "start_time": 112.6772727,
                "end_time": 112.9090909,
                "pitch": 51,
                "velocity": 64,
                "duration": 0.2318182,
                "tempo": 120.0
            },
            {
                "start_time": 112.9272727,
                "end_time": 113.2931818,
                "pitch": 38,
                "velocity": 64,
                "duration": 0.3659091,
                "tempo": 120.0
            },
            {
                "start_time": 113.3090909,
                "end_time": 113.4090909,
                "pitch": 38,
                "velocity": 64,
                "duration": 0.1,
                "tempo": 120.0
            },
            {
                "start_time": 113.4272727,
                "end_time": 113.6590909,
                "pitch": 46,
                "velocity": 64,
                "duration": 0.2318182,
                "tempo": 120.0
            },
            {
                "start_time": 113.6772727,
                "end_time": 113.9090909,
                "pitch": 50,
                "velocity": 64,
                "duration": 0.2318182,
                "tempo": 120.0
            },
            {
                "start_time": 113.9272727,
                "end_time": 114.2931818,
                "pitch": 37,
                "velocity": 64,
                "duration": 0.3659091,
                "tempo": 120.0
            },
            {
                "start_time": 114.3090909,
                "end_time": 114.4090909,
                "pitch": 37,
                "velocity": 64,
                "duration": 0.1,
                "tempo": 120.0
            },
            {
                "start_time": 114.4272727,
                "end_time": 114.6590909,
                "pitch": 46,
                "velocity": 64,
                "duration": 0.2318182,
                "tempo": 120.0
            },
            {
                "start_time": 114.6772727,
                "end_time": 114.9090909,
                "pitch": 49,
                "velocity": 64,
                "duration": 0.2318182,
                "tempo": 120.0
            },
            {
                "start_time": 114.9272727,
                "end_time": 115.2931818,
                "pitch": 36,
                "velocity": 64,
                "duration": 0.3659091,
                "tempo": 120.0
            },
            {
                "start_time": 115.3090909,
                "end_time": 115.4090909,
                "pitch": 36,
                "velocity": 64,
                "duration": 0.1,
                "tempo": 120.0
            },
            {
                "start_time": 115.4272727,
                "end_time": 115.6590909,
                "pitch": 46,
                "velocity": 64,
                "duration": 0.2318182,
                "tempo": 120.0
            },
            {
                "start_time": 115.6772727,
                "end_time": 115.9090909,
                "pitch": 48,
                "velocity": 64,
                "duration": 0.2318182,
                "tempo": 120.0
            },
            {
                "start_time": 115.9272727,
                "end_time": 116.2931818,
                "pitch": 47,
                "velocity": 64,
                "duration": 0.3659091,
                "tempo": 120.0
            },
            {
                "start_time": 116.3090909,
                "end_time": 116.4090909,
                "pitch": 47,
                "velocity": 64,
                "duration": 0.1,
                "tempo": 120.0
            },
            {
                "start_time": 116.4272727,
                "end_time": 116.6590909,
                "pitch": 42,
                "velocity": 64,
                "duration": 0.2318182,
                "tempo": 120.0
            },
            {
                "start_time": 116.6772727,
                "end_time": 116.9090909,
                "pitch": 47,
                "velocity": 64,
                "duration": 0.2318182,
                "tempo": 120.0
            },
            {
                "start_time": 116.9272727,
                "end_time": 117.2931818,
                "pitch": 48,
                "velocity": 64,
                "duration": 0.3659091,
                "tempo": 120.0
            },
            {
                "start_time": 117.3090909,
                "end_time": 117.4090909,
                "pitch": 48,
                "velocity": 64,
                "duration": 0.1,
                "tempo": 120.0
            },
            {
                "start_time": 117.4272727,
                "end_time": 117.6590909,
                "pitch": 44,
                "velocity": 64,
                "duration": 0.2318182,
                "tempo": 120.0
            },
            {
                "start_time": 117.6772727,
                "end_time": 117.9090909,
                "pitch": 47,
                "velocity": 64,
                "duration": 0.2318182,
                "tempo": 120.0
            },
            {
                "start_time": 117.9272727,
                "end_time": 118.2931818,
                "pitch": 37,
                "velocity": 64,
                "duration": 0.3659091,
                "tempo": 120.0
            },
            {
                "start_time": 118.3090909,
                "end_time": 118.4090909,
                "pitch": 37,
                "velocity": 64,
                "duration": 0.1,
                "tempo": 120.0
            },
            {
                "start_time": 118.4272727,
                "end_time": 118.6590909,
                "pitch": 44,
                "velocity": 64,
                "duration": 0.2318182,
                "tempo": 120.0
            },
            {
                "start_time": 118.6772727,
                "end_time": 118.9090909,
                "pitch": 49,
                "velocity": 64,
                "duration": 0.2318182,
                "tempo": 120.0
            },
            {
                "start_time": 118.9272727,
                "end_time": 119.2931818,
                "pitch": 38,
                "velocity": 64,
                "duration": 0.3659091,
                "tempo": 120.0
            },
            {
                "start_time": 119.3090909,
                "end_time": 119.4090909,
                "pitch": 38,
                "velocity": 64,
                "duration": 0.1,
                "tempo": 120.0
            },
            {
                "start_time": 119.4272727,
                "end_time": 119.6590909,
                "pitch": 46,
                "velocity": 64,
                "duration": 0.2318182,
                "tempo": 120.0
            },
            {
                "start_time": 119.6772727,
                "end_time": 119.9090909,
                "pitch": 50,
                "velocity": 64,
                "duration": 0.2318182,
                "tempo": 120.0
            },
            {
                "start_time": 119.9272727,
                "end_time": 120.2931818,
                "pitch": 39,
                "velocity": 64,
                "duration": 0.3659091,
                "tempo": 120.0
            },
            {
                "start_time": 120.3090909,
                "end_time": 120.4090909,
                "pitch": 39,
                "velocity": 64,
                "duration": 0.1,
                "tempo": 120.0
            },
            {
                "start_time": 120.4272727,
                "end_time": 120.6590909,
                "pitch": 46,
                "velocity": 64,
                "duration": 0.2318182,
                "tempo": 120.0
            },
            {
                "start_time": 120.6772727,
                "end_time": 120.9090909,
                "pitch": 51,
                "velocity": 64,
                "duration": 0.2318182,
                "tempo": 120.0
            },
            {
                "start_time": 120.9272727,
                "end_time": 121.2931818,
                "pitch": 37,
                "velocity": 64,
                "duration": 0.3659091,
                "tempo": 120.0
            },
            {
                "start_time": 121.3090909,
                "end_time": 121.4090909,
                "pitch": 37,
                "velocity": 64,
                "duration": 0.1,
                "tempo": 120.0
            },
            {
                "start_time": 121.4272727,
                "end_time": 121.6590909,
                "pitch": 46,
                "velocity": 64,
                "duration": 0.2318182,
                "tempo": 120.0
            },
            {
                "start_time": 121.6772727,
                "end_time": 121.9090909,
                "pitch": 51,
                "velocity": 64,
                "duration": 0.2318182,
                "tempo": 120.0
            },
            {
                "start_time": 121.9272727,
                "end_time": 122.2931818,
                "pitch": 35,
                "velocity": 64,
                "duration": 0.3659091,
                "tempo": 120.0
            },
            {
                "start_time": 122.3090909,
                "end_time": 122.4090909,
                "pitch": 35,
                "velocity": 64,
                "duration": 0.1,
                "tempo": 120.0
            },
            {
                "start_time": 122.4272727,
                "end_time": 122.6590909,
                "pitch": 42,
                "velocity": 64,
                "duration": 0.2318182,
                "tempo": 120.0
            },
            {
                "start_time": 122.6772727,
                "end_time": 122.9090909,
                "pitch": 51,
                "velocity": 64,
                "duration": 0.2318182,
                "tempo": 120.0
            },
            {
                "start_time": 122.9272727,
                "end_time": 123.2931818,
                "pitch": 47,
                "velocity": 64,
                "duration": 0.3659091,
                "tempo": 120.0
            },
            {
                "start_time": 123.3090909,
                "end_time": 123.4090909,
                "pitch": 47,
                "velocity": 64,
                "duration": 0.1,
                "tempo": 120.0
            },
            {
                "start_time": 123.4272727,
                "end_time": 123.6590909,
                "pitch": 42,
                "velocity": 64,
                "duration": 0.2318182,
                "tempo": 120.0
            },
            {
                "start_time": 123.6772727,
                "end_time": 123.9090909,
                "pitch": 47,
                "velocity": 64,
                "duration": 0.2318182,
                "tempo": 120.0
            },
            {
                "start_time": 123.9272727,
                "end_time": 124.2931818,
                "pitch": 37,
                "velocity": 64,
                "duration": 0.3659091,
                "tempo": 120.0
            },
            {
                "start_time": 124.3090909,
                "end_time": 124.4090909,
                "pitch": 37,
                "velocity": 64,
                "duration": 0.1,
                "tempo": 120.0
            },
            {
                "start_time": 124.4272727,
                "end_time": 124.6590909,
                "pitch": 44,
                "velocity": 64,
                "duration": 0.2318182,
                "tempo": 120.0
            },
            {
                "start_time": 124.6772727,
                "end_time": 124.9090909,
                "pitch": 49,
                "velocity": 64,
                "duration": 0.2318182,
                "tempo": 120.0
            },
            {
                "start_time": 124.9272727,
                "end_time": 125.2931818,
                "pitch": 37,
                "velocity": 64,
                "duration": 0.3659091,
                "tempo": 120.0
            },
            {
                "start_time": 125.3090909,
                "end_time": 125.4090909,
                "pitch": 37,
                "velocity": 64,
                "duration": 0.1,
                "tempo": 120.0
            },
            {
                "start_time": 125.4272727,
                "end_time": 125.6590909,
                "pitch": 44,
                "velocity": 64,
                "duration": 0.2318182,
                "tempo": 120.0
            },
            {
                "start_time": 125.6772727,
                "end_time": 125.9090909,
                "pitch": 49,
                "velocity": 64,
                "duration": 0.2318182,
                "tempo": 120.0
            }
        ],
        "Acoustic Guitar (nylon)": [
            {
                "start_time": 0.2,
                "end_time": 0.2931818,
                "pitch": 61,
                "velocity": 64,
                "duration": 0.0931818,
                "tempo": 120.0
            },
            {
                "start_time": 0.3068182,
                "end_time": 0.3863636,
                "pitch": 56,
                "velocity": 64,
                "duration": 0.0795455,
                "tempo": 120.0
            },
            {
                "start_time": 0.5340909,
                "end_time": 0.6340909,
                "pitch": 61,
                "velocity": 64,
                "duration": 0.1,
                "tempo": 120.0
            },
            {
                "start_time": 0.65,
                "end_time": 0.7659091,
                "pitch": 56,
                "velocity": 64,
                "duration": 0.1159091,
                "tempo": 120.0
            },
            {
                "start_time": 0.9,
                "end_time": 1.0159091,
                "pitch": 61,
                "velocity": 64,
                "duration": 0.1159091,
                "tempo": 120.0
            },
            {
                "start_time": 1.0340909,
                "end_time": 1.1340909,
                "pitch": 56,
                "velocity": 64,
                "duration": 0.1,
                "tempo": 120.0
            },
            {
                "start_time": 1.2840909,
                "end_time": 1.3840909,
                "pitch": 61,
                "velocity": 64,
                "duration": 0.1,
                "tempo": 120.0
            },
            {
                "start_time": 1.4,
                "end_time": 1.5159091,
                "pitch": 56,
                "velocity": 64,
                "duration": 0.1159091,
                "tempo": 120.0
            },
            {
                "start_time": 1.65,
                "end_time": 1.7659091,
                "pitch": 61,
                "velocity": 64,
                "duration": 0.1159091,
                "tempo": 120.0
            },
            {
                "start_time": 2.15,
                "end_time": 2.2659091,
                "pitch": 60,
                "velocity": 64,
                "duration": 0.1159091,
                "tempo": 120.0
            },
            {
                "start_time": 2.2840909,
                "end_time": 2.3840909,
                "pitch": 56,
                "velocity": 64,
                "duration": 0.1,
                "tempo": 120.0
            },
            {
                "start_time": 2.5340909,
                "end_time": 2.6340909,
                "pitch": 60,
                "velocity": 64,
                "duration": 0.1,
                "tempo": 120.0
            },
            {
                "start_time": 2.65,
                "end_time": 2.7659091,
                "pitch": 56,
                "velocity": 64,
                "duration": 0.1159091,
                "tempo": 120.0
            },
            {
                "start_time": 2.9,
                "end_time": 3.0159091,
                "pitch": 60,
                "velocity": 64,
                "duration": 0.1159091,
                "tempo": 120.0
            },
            {
                "start_time": 3.0340909,
                "end_time": 3.1340909,
                "pitch": 56,
                "velocity": 64,
                "duration": 0.1,
                "tempo": 120.0
            },
            {
                "start_time": 3.2840909,
                "end_time": 3.3840909,
                "pitch": 60,
                "velocity": 64,
                "duration": 0.1,
                "tempo": 120.0
            },
            {
                "start_time": 3.4,
                "end_time": 3.5159091,
                "pitch": 56,
                "velocity": 64,
                "duration": 0.1159091,
                "tempo": 120.0
            },
            {
                "start_time": 3.65,
                "end_time": 3.7659091,
                "pitch": 60,
                "velocity": 64,
                "duration": 0.1159091,
                "tempo": 120.0
            },
            {
                "start_time": 4.15,
                "end_time": 4.2659091,
                "pitch": 58,
                "velocity": 64,
                "duration": 0.1159091,
                "tempo": 120.0
            },
            {
                "start_time": 4.2840909,
                "end_time": 4.3840909,
                "pitch": 53,
                "velocity": 64,
                "duration": 0.1,
                "tempo": 120.0
            },
            {
                "start_time": 4.5340909,
                "end_time": 4.6340909,
                "pitch": 58,
                "velocity": 64,
                "duration": 0.1,
                "tempo": 120.0
            },
            {
                "start_time": 4.65,
                "end_time": 4.7659091,
                "pitch": 53,
                "velocity": 64,
                "duration": 0.1159091,
                "tempo": 120.0
            },
            {
                "start_time": 4.9,
                "end_time": 5.0159091,
                "pitch": 58,
                "velocity": 64,
                "duration": 0.1159091,
                "tempo": 120.0
            },
            {
                "start_time": 5.0340909,
                "end_time": 5.1340909,
                "pitch": 53,
                "velocity": 64,
                "duration": 0.1,
                "tempo": 120.0
            },
            {
                "start_time": 5.2840909,
                "end_time": 5.3840909,
                "pitch": 58,
                "velocity": 64,
                "duration": 0.1,
                "tempo": 120.0
            },
            {
                "start_time": 5.4,
                "end_time": 5.5159091,
                "pitch": 53,
                "velocity": 64,
                "duration": 0.1159091,
                "tempo": 120.0
            },
            {
                "start_time": 5.65,
                "end_time": 5.7659091,
                "pitch": 58,
                "velocity": 64,
                "duration": 0.1159091,
                "tempo": 120.0
            },
            {
                "start_time": 6.15,
                "end_time": 6.2659091,
                "pitch": 56,
                "velocity": 64,
                "duration": 0.1159091,
                "tempo": 120.0
            },
            {
                "start_time": 6.2840909,
                "end_time": 6.3840909,
                "pitch": 51,
                "velocity": 64,
                "duration": 0.1,
                "tempo": 120.0
            },
            {
                "start_time": 6.5340909,
                "end_time": 6.6340909,
                "pitch": 56,
                "velocity": 64,
                "duration": 0.1,
                "tempo": 120.0
            },
            {
                "start_time": 6.65,
                "end_time": 6.7659091,
                "pitch": 51,
                "velocity": 64,
                "duration": 0.1159091,
                "tempo": 120.0
            },
            {
                "start_time": 6.9,
                "end_time": 7.0159091,
                "pitch": 56,
                "velocity": 64,
                "duration": 0.1159091,
                "tempo": 120.0
            },
            {
                "start_time": 7.0340909,
                "end_time": 7.1340909,
                "pitch": 51,
                "velocity": 64,
                "duration": 0.1,
                "tempo": 120.0
            },
            {
                "start_time": 7.2840909,
                "end_time": 7.3840909,
                "pitch": 56,
                "velocity": 64,
                "duration": 0.1,
                "tempo": 120.0
            },
            {
                "start_time": 7.4,
                "end_time": 7.5159091,
                "pitch": 51,
                "velocity": 64,
                "duration": 0.1159091,
                "tempo": 120.0
            },
            {
                "start_time": 7.65,
                "end_time": 7.7659091,
                "pitch": 56,
                "velocity": 64,
                "duration": 0.1159091,
                "tempo": 120.0
            },
            {
                "start_time": 8.15,
                "end_time": 8.2659091,
                "pitch": 54,
                "velocity": 64,
                "duration": 0.1159091,
                "tempo": 120.0
            },
            {
                "start_time": 8.2840909,
                "end_time": 8.3840909,
                "pitch": 49,
                "velocity": 64,
                "duration": 0.1,
                "tempo": 120.0
            },
            {
                "start_time": 8.5340909,
                "end_time": 8.6340909,
                "pitch": 54,
                "velocity": 64,
                "duration": 0.1,
                "tempo": 120.0
            },
            {
                "start_time": 8.65,
                "end_time": 8.7659091,
                "pitch": 49,
                "velocity": 64,
                "duration": 0.1159091,
                "tempo": 120.0
            },
            {
                "start_time": 8.9,
                "end_time": 9.0159091,
                "pitch": 54,
                "velocity": 64,
                "duration": 0.1159091,
                "tempo": 120.0
            },
            {
                "start_time": 9.0340909,
                "end_time": 9.1340909,
                "pitch": 49,
                "velocity": 64,
                "duration": 0.1,
                "tempo": 120.0
            },
            {
                "start_time": 9.2840909,
                "end_time": 9.3840909,
                "pitch": 54,
                "velocity": 64,
                "duration": 0.1,
                "tempo": 120.0
            },
            {
                "start_time": 9.4,
                "end_time": 9.5159091,
                "pitch": 49,
                "velocity": 64,
                "duration": 0.1159091,
                "tempo": 120.0
            },
            {
                "start_time": 9.65,
                "end_time": 9.7659091,
                "pitch": 54,
                "velocity": 64,
                "duration": 0.1159091,
                "tempo": 120.0
            },
            {
                "start_time": 10.15,
                "end_time": 10.2659091,
                "pitch": 56,
                "velocity": 64,
                "duration": 0.1159091,
                "tempo": 120.0
            },
            {
                "start_time": 10.2840909,
                "end_time": 10.3840909,
                "pitch": 56,
                "velocity": 64,
                "duration": 0.1,
                "tempo": 120.0
            },
            {
                "start_time": 10.5340909,
                "end_time": 10.6340909,
                "pitch": 56,
                "velocity": 64,
                "duration": 0.1,
                "tempo": 120.0
            },
            {
                "start_time": 10.65,
                "end_time": 10.7659091,
                "pitch": 56,
                "velocity": 64,
                "duration": 0.1159091,
                "tempo": 120.0
            },
            {
                "start_time": 10.9,
                "end_time": 11.0159091,
                "pitch": 56,
                "velocity": 64,
                "duration": 0.1159091,
                "tempo": 120.0
            },
            {
                "start_time": 11.0340909,
                "end_time": 11.1340909,
                "pitch": 56,
                "velocity": 64,
                "duration": 0.1,
                "tempo": 120.0
            },
            {
                "start_time": 11.2840909,
                "end_time": 11.3840909,
                "pitch": 56,
                "velocity": 64,
                "duration": 0.1,
                "tempo": 120.0
            },
            {
                "start_time": 11.4,
                "end_time": 11.5159091,
                "pitch": 56,
                "velocity": 64,
                "duration": 0.1159091,
                "tempo": 120.0
            },
            {
                "start_time": 11.65,
                "end_time": 11.7659091,
                "pitch": 56,
                "velocity": 64,
                "duration": 0.1159091,
                "tempo": 120.0
            },
            {
                "start_time": 12.15,
                "end_time": 12.2659091,
                "pitch": 58,
                "velocity": 64,
                "duration": 0.1159091,
                "tempo": 120.0
            },
            {
                "start_time": 12.2840909,
                "end_time": 12.3840909,
                "pitch": 58,
                "velocity": 64,
                "duration": 0.1,
                "tempo": 120.0
            },
            {
                "start_time": 12.5340909,
                "end_time": 12.6340909,
                "pitch": 58,
                "velocity": 64,
                "duration": 0.1,
                "tempo": 120.0
            },
            {
                "start_time": 12.65,
                "end_time": 12.7659091,
                "pitch": 58,
                "velocity": 64,
                "duration": 0.1159091,
                "tempo": 120.0
            },
            {
                "start_time": 12.9,
                "end_time": 13.0159091,
                "pitch": 58,
                "velocity": 64,
                "duration": 0.1159091,
                "tempo": 120.0
            },
            {
                "start_time": 13.0340909,
                "end_time": 13.1340909,
                "pitch": 58,
                "velocity": 64,
                "duration": 0.1,
                "tempo": 120.0
            },
            {
                "start_time": 13.2840909,
                "end_time": 13.3840909,
                "pitch": 58,
                "velocity": 64,
                "duration": 0.1,
                "tempo": 120.0
            },
            {
                "start_time": 13.4,
                "end_time": 13.5159091,
                "pitch": 58,
                "velocity": 64,
                "duration": 0.1159091,
                "tempo": 120.0
            },
            {
                "start_time": 13.65,
                "end_time": 13.7659091,
                "pitch": 58,
                "velocity": 64,
                "duration": 0.1159091,
                "tempo": 120.0
            },
            {
                "start_time": 14.15,
                "end_time": 14.2659091,
                "pitch": 63,
                "velocity": 64,
                "duration": 0.1159091,
                "tempo": 120.0
            },
            {
                "start_time": 14.2840909,
                "end_time": 14.3840909,
                "pitch": 60,
                "velocity": 64,
                "duration": 0.1,
                "tempo": 120.0
            },
            {
                "start_time": 14.5340909,
                "end_time": 14.6340909,
                "pitch": 63,
                "velocity": 64,
                "duration": 0.1,
                "tempo": 120.0
            },
            {
                "start_time": 14.65,
                "end_time": 14.7659091,
                "pitch": 60,
                "velocity": 64,
                "duration": 0.1159091,
                "tempo": 120.0
            },
            {
                "start_time": 14.9,
                "end_time": 15.0159091,
                "pitch": 63,
                "velocity": 64,
                "duration": 0.1159091,
                "tempo": 120.0
            },
            {
                "start_time": 15.0340909,
                "end_time": 15.1340909,
                "pitch": 60,
                "velocity": 64,
                "duration": 0.1,
                "tempo": 120.0
            },
            {
                "start_time": 15.2840909,
                "end_time": 15.3840909,
                "pitch": 63,
                "velocity": 64,
                "duration": 0.1,
                "tempo": 120.0
            },
            {
                "start_time": 15.4,
                "end_time": 15.5159091,
                "pitch": 60,
                "velocity": 64,
                "duration": 0.1159091,
                "tempo": 120.0
            },
            {
                "start_time": 15.65,
                "end_time": 15.7659091,
                "pitch": 63,
                "velocity": 64,
                "duration": 0.1159091,
                "tempo": 120.0
            },
            {
                "start_time": 16.15,
                "end_time": 16.2659091,
                "pitch": 61,
                "velocity": 64,
                "duration": 0.1159091,
                "tempo": 120.0
            },
            {
                "start_time": 16.2840909,
                "end_time": 16.3840909,
                "pitch": 56,
                "velocity": 64,
                "duration": 0.1,
                "tempo": 120.0
            },
            {
                "start_time": 16.5340909,
                "end_time": 16.6340909,
                "pitch": 61,
                "velocity": 64,
                "duration": 0.1,
                "tempo": 120.0
            },
            {
                "start_time": 16.65,
                "end_time": 16.7659091,
                "pitch": 56,
                "velocity": 64,
                "duration": 0.1159091,
                "tempo": 120.0
            },
            {
                "start_time": 16.9,
                "end_time": 17.0159091,
                "pitch": 61,
                "velocity": 64,
                "duration": 0.1159091,
                "tempo": 120.0
            },
            {
                "start_time": 17.0340909,
                "end_time": 17.1340909,
                "pitch": 56,
                "velocity": 64,
                "duration": 0.1,
                "tempo": 120.0
            },
            {
                "start_time": 17.2840909,
                "end_time": 17.3840909,
                "pitch": 61,
                "velocity": 64,
                "duration": 0.1,
                "tempo": 120.0
            },
            {
                "start_time": 17.4,
                "end_time": 17.5159091,
                "pitch": 56,
                "velocity": 64,
                "duration": 0.1159091,
                "tempo": 120.0
            },
            {
                "start_time": 17.65,
                "end_time": 17.7659091,
                "pitch": 61,
                "velocity": 64,
                "duration": 0.1159091,
                "tempo": 120.0
            },
            {
                "start_time": 18.15,
                "end_time": 18.2659091,
                "pitch": 60,
                "velocity": 64,
                "duration": 0.1159091,
                "tempo": 120.0
            },
            {
                "start_time": 18.2840909,
                "end_time": 18.3840909,
                "pitch": 56,
                "velocity": 64,
                "duration": 0.1,
                "tempo": 120.0
            },
            {
                "start_time": 18.5340909,
                "end_time": 18.6340909,
                "pitch": 60,
                "velocity": 64,
                "duration": 0.1,
                "tempo": 120.0
            },
            {
                "start_time": 18.65,
                "end_time": 18.7659091,
                "pitch": 56,
                "velocity": 64,
                "duration": 0.1159091,
                "tempo": 120.0
            },
            {
                "start_time": 18.9,
                "end_time": 19.0159091,
                "pitch": 60,
                "velocity": 64,
                "duration": 0.1159091,
                "tempo": 120.0
            },
            {
                "start_time": 19.0340909,
                "end_time": 19.1340909,
                "pitch": 56,
                "velocity": 64,
                "duration": 0.1,
                "tempo": 120.0
            },
            {
                "start_time": 19.2840909,
                "end_time": 19.3840909,
                "pitch": 60,
                "velocity": 64,
                "duration": 0.1,
                "tempo": 120.0
            },
            {
                "start_time": 19.4,
                "end_time": 19.5159091,
                "pitch": 56,
                "velocity": 64,
                "duration": 0.1159091,
                "tempo": 120.0
            },
            {
                "start_time": 19.65,
                "end_time": 19.7659091,
                "pitch": 60,
                "velocity": 64,
                "duration": 0.1159091,
                "tempo": 120.0
            },
            {
                "start_time": 20.15,
                "end_time": 20.2659091,
                "pitch": 58,
                "velocity": 64,
                "duration": 0.1159091,
                "tempo": 120.0
            },
            {
                "start_time": 20.2840909,
                "end_time": 20.3840909,
                "pitch": 53,
                "velocity": 64,
                "duration": 0.1,
                "tempo": 120.0
            },
            {
                "start_time": 20.5340909,
                "end_time": 20.6340909,
                "pitch": 58,
                "velocity": 64,
                "duration": 0.1,
                "tempo": 120.0
            },
            {
                "start_time": 20.65,
                "end_time": 20.7659091,
                "pitch": 53,
                "velocity": 64,
                "duration": 0.1159091,
                "tempo": 120.0
            },
            {
                "start_time": 20.9,
                "end_time": 21.0159091,
                "pitch": 58,
                "velocity": 64,
                "duration": 0.1159091,
                "tempo": 120.0
            },
            {
                "start_time": 21.0340909,
                "end_time": 21.1340909,
                "pitch": 53,
                "velocity": 64,
                "duration": 0.1,
                "tempo": 120.0
            },
            {
                "start_time": 21.2840909,
                "end_time": 21.3840909,
                "pitch": 58,
                "velocity": 64,
                "duration": 0.1,
                "tempo": 120.0
            },
            {
                "start_time": 21.4,
                "end_time": 21.5159091,
                "pitch": 53,
                "velocity": 64,
                "duration": 0.1159091,
                "tempo": 120.0
            },
            {
                "start_time": 21.65,
                "end_time": 21.7659091,
                "pitch": 58,
                "velocity": 64,
                "duration": 0.1159091,
                "tempo": 120.0
            },
            {
                "start_time": 22.15,
                "end_time": 22.2659091,
                "pitch": 56,
                "velocity": 64,
                "duration": 0.1159091,
                "tempo": 120.0
            },
            {
                "start_time": 22.2840909,
                "end_time": 22.3840909,
                "pitch": 51,
                "velocity": 64,
                "duration": 0.1,
                "tempo": 120.0
            },
            {
                "start_time": 22.5340909,
                "end_time": 22.6340909,
                "pitch": 56,
                "velocity": 64,
                "duration": 0.1,
                "tempo": 120.0
            },
            {
                "start_time": 22.65,
                "end_time": 22.7659091,
                "pitch": 51,
                "velocity": 64,
                "duration": 0.1159091,
                "tempo": 120.0
            },
            {
                "start_time": 22.9,
                "end_time": 23.0159091,
                "pitch": 56,
                "velocity": 64,
                "duration": 0.1159091,
                "tempo": 120.0
            },
            {
                "start_time": 23.0340909,
                "end_time": 23.1340909,
                "pitch": 51,
                "velocity": 64,
                "duration": 0.1,
                "tempo": 120.0
            },
            {
                "start_time": 23.2840909,
                "end_time": 23.3840909,
                "pitch": 56,
                "velocity": 64,
                "duration": 0.1,
                "tempo": 120.0
            },
            {
                "start_time": 23.4,
                "end_time": 23.5159091,
                "pitch": 51,
                "velocity": 64,
                "duration": 0.1159091,
                "tempo": 120.0
            },
            {
                "start_time": 23.65,
                "end_time": 23.7659091,
                "pitch": 56,
                "velocity": 64,
                "duration": 0.1159091,
                "tempo": 120.0
            },
            {
                "start_time": 24.15,
                "end_time": 24.2659091,
                "pitch": 54,
                "velocity": 64,
                "duration": 0.1159091,
                "tempo": 120.0
            },
            {
                "start_time": 24.2840909,
                "end_time": 24.3840909,
                "pitch": 54,
                "velocity": 64,
                "duration": 0.1,
                "tempo": 120.0
            },
            {
                "start_time": 24.5340909,
                "end_time": 24.6340909,
                "pitch": 54,
                "velocity": 64,
                "duration": 0.1,
                "tempo": 120.0
            },
            {
                "start_time": 24.65,
                "end_time": 24.7659091,
                "pitch": 54,
                "velocity": 64,
                "duration": 0.1159091,
                "tempo": 120.0
            },
            {
                "start_time": 24.9,
                "end_time": 25.0159091,
                "pitch": 54,
                "velocity": 64,
                "duration": 0.1159091,
                "tempo": 120.0
            },
            {
                "start_time": 25.0340909,
                "end_time": 25.1340909,
                "pitch": 54,
                "velocity": 64,
                "duration": 0.1,
                "tempo": 120.0
            },
            {
                "start_time": 25.2840909,
                "end_time": 25.3840909,
                "pitch": 54,
                "velocity": 64,
                "duration": 0.1,
                "tempo": 120.0
            },
            {
                "start_time": 25.4,
                "end_time": 25.5159091,
                "pitch": 54,
                "velocity": 64,
                "duration": 0.1159091,
                "tempo": 120.0
            },
            {
                "start_time": 25.65,
                "end_time": 25.7659091,
                "pitch": 54,
                "velocity": 64,
                "duration": 0.1159091,
                "tempo": 120.0
            },
            {
                "start_time": 26.15,
                "end_time": 26.2659091,
                "pitch": 56,
                "velocity": 64,
                "duration": 0.1159091,
                "tempo": 120.0
            },
            {
                "start_time": 26.2840909,
                "end_time": 26.3840909,
                "pitch": 56,
                "velocity": 64,
                "duration": 0.1,
                "tempo": 120.0
            },
            {
                "start_time": 26.5340909,
                "end_time": 26.6340909,
                "pitch": 56,
                "velocity": 64,
                "duration": 0.1,
                "tempo": 120.0
            },
            {
                "start_time": 26.65,
                "end_time": 26.7659091,
                "pitch": 56,
                "velocity": 64,
                "duration": 0.1159091,
                "tempo": 120.0
            },
            {
                "start_time": 26.9,
                "end_time": 27.0159091,
                "pitch": 56,
                "velocity": 64,
                "duration": 0.1159091,
                "tempo": 120.0
            },
            {
                "start_time": 27.0340909,
                "end_time": 27.1340909,
                "pitch": 56,
                "velocity": 64,
                "duration": 0.1,
                "tempo": 120.0
            },
            {
                "start_time": 27.2840909,
                "end_time": 27.3840909,
                "pitch": 56,
                "velocity": 64,
                "duration": 0.1,
                "tempo": 120.0
            },
            {
                "start_time": 27.4,
                "end_time": 27.5159091,
                "pitch": 56,
                "velocity": 64,
                "duration": 0.1159091,
                "tempo": 120.0
            },
            {
                "start_time": 27.65,
                "end_time": 27.7659091,
                "pitch": 56,
                "velocity": 64,
                "duration": 0.1159091,
                "tempo": 120.0
            },
            {
                "start_time": 28.15,
                "end_time": 28.2659091,
                "pitch": 56,
                "velocity": 64,
                "duration": 0.1159091,
                "tempo": 120.0
            },
            {
                "start_time": 28.2840909,
                "end_time": 28.3840909,
                "pitch": 56,
                "velocity": 64,
                "duration": 0.1,
                "tempo": 120.0
            },
            {
                "start_time": 28.5340909,
                "end_time": 28.6340909,
                "pitch": 56,
                "velocity": 64,
                "duration": 0.1,
                "tempo": 120.0
            },
            {
                "start_time": 28.65,
                "end_time": 28.7659091,
                "pitch": 56,
                "velocity": 64,
                "duration": 0.1159091,
                "tempo": 120.0
            },
            {
                "start_time": 28.9,
                "end_time": 29.0159091,
                "pitch": 56,
                "velocity": 64,
                "duration": 0.1159091,
                "tempo": 120.0
            },
            {
                "start_time": 29.0340909,
                "end_time": 29.1340909,
                "pitch": 56,
                "velocity": 64,
                "duration": 0.1,
                "tempo": 120.0
            },
            {
                "start_time": 29.2840909,
                "end_time": 29.3840909,
                "pitch": 56,
                "velocity": 64,
                "duration": 0.1,
                "tempo": 120.0
            },
            {
                "start_time": 29.4,
                "end_time": 29.5159091,
                "pitch": 56,
                "velocity": 64,
                "duration": 0.1159091,
                "tempo": 120.0
            },
            {
                "start_time": 29.65,
                "end_time": 29.7659091,
                "pitch": 56,
                "velocity": 64,
                "duration": 0.1159091,
                "tempo": 120.0
            },
            {
                "start_time": 30.1568182,
                "end_time": 30.275,
                "pitch": 61,
                "velocity": 64,
                "duration": 0.1181818,
                "tempo": 120.0
            },
            {
                "start_time": 30.2931818,
                "end_time": 30.3954545,
                "pitch": 58,
                "velocity": 64,
                "duration": 0.1022727,
                "tempo": 120.0
            },
            {
                "start_time": 30.5431818,
                "end_time": 30.6431818,
                "pitch": 61,
                "velocity": 64,
                "duration": 0.1,
                "tempo": 120.0
            },
            {
                "start_time": 30.6590909,
                "end_time": 30.7727273,
                "pitch": 58,
                "velocity": 64,
                "duration": 0.1136364,
                "tempo": 120.0
            },
            {
                "start_time": 30.9045455,
                "end_time": 31.8886364,
                "pitch": 56,
                "velocity": 64,
                "duration": 0.9840909,
                "tempo": 120.0
            },
            {
                "start_time": 32.1545455,
                "end_time": 32.2704545,
                "pitch": 56,
                "velocity": 64,
                "duration": 0.1159091,
                "tempo": 120.0
            },
            {
                "start_time": 32.2886364,
                "end_time": 32.3886364,
                "pitch": 51,
                "velocity": 64,
                "duration": 0.1,
                "tempo": 120.0
            },
            {
                "start_time": 32.5386364,
                "end_time": 32.6386364,
                "pitch": 56,
                "velocity": 64,
                "duration": 0.1,
                "tempo": 120.0
            },
            {
                "start_time": 32.6545455,
                "end_time": 32.7704545,
                "pitch": 51,
                "velocity": 64,
                "duration": 0.1159091,
                "tempo": 120.0
            },
            {
                "start_time": 32.9045455,
                "end_time": 33.0204545,
                "pitch": 56,
                "velocity": 64,
                "duration": 0.1159091,
                "tempo": 120.0
            },
            {
                "start_time": 33.0386364,
                "end_time": 33.1386364,
                "pitch": 51,
                "velocity": 64,
                "duration": 0.1,
                "tempo": 120.0
            },
            {
                "start_time": 33.2886364,
                "end_time": 33.3886364,
                "pitch": 56,
                "velocity": 64,
                "duration": 0.1,
                "tempo": 120.0
            },
            {
                "start_time": 33.4045455,
                "end_time": 33.5204545,
                "pitch": 51,
                "velocity": 64,
                "duration": 0.1159091,
                "tempo": 120.0
            },
            {
                "start_time": 33.6545455,
                "end_time": 33.7704545,
                "pitch": 56,
                "velocity": 64,
                "duration": 0.1159091,
                "tempo": 120.0
            },
            {
                "start_time": 34.1545455,
                "end_time": 34.2704545,
                "pitch": 53,
                "velocity": 64,
                "duration": 0.1159091,
                "tempo": 120.0
            },
            {
                "start_time": 34.2886364,
                "end_time": 34.3886364,
                "pitch": 53,
                "velocity": 64,
                "duration": 0.1,
                "tempo": 120.0
            },
            {
                "start_time": 34.5386364,
                "end_time": 34.6386364,
                "pitch": 53,
                "velocity": 64,
                "duration": 0.1,
                "tempo": 120.0
            },
            {
                "start_time": 34.6545455,
                "end_time": 34.7704545,
                "pitch": 53,
                "velocity": 64,
                "duration": 0.1159091,
                "tempo": 120.0
            },
            {
                "start_time": 34.9045455,
                "end_time": 35.0204545,
                "pitch": 53,
                "velocity": 64,
                "duration": 0.1159091,
                "tempo": 120.0
            },
            {
                "start_time": 35.0386364,
                "end_time": 35.1386364,
                "pitch": 53,
                "velocity": 64,
                "duration": 0.1,
                "tempo": 120.0
            },
            {
                "start_time": 35.2886364,
                "end_time": 35.3886364,
                "pitch": 53,
                "velocity": 64,
                "duration": 0.1,
                "tempo": 120.0
            },
            {
                "start_time": 35.4045455,
                "end_time": 35.5204545,
                "pitch": 53,
                "velocity": 64,
                "duration": 0.1159091,
                "tempo": 120.0
            },
            {
                "start_time": 35.6545455,
                "end_time": 35.7704545,
                "pitch": 53,
                "velocity": 64,
                "duration": 0.1159091,
                "tempo": 120.0
            },
            {
                "start_time": 36.1545455,
                "end_time": 36.2704545,
                "pitch": 51,
                "velocity": 64,
                "duration": 0.1159091,
                "tempo": 120.0
            },
            {
                "start_time": 36.2886364,
                "end_time": 36.3886364,
                "pitch": 51,
                "velocity": 64,
                "duration": 0.1,
                "tempo": 120.0
            },
            {
                "start_time": 36.5386364,
                "end_time": 36.6386364,
                "pitch": 51,
                "velocity": 64,
                "duration": 0.1,
                "tempo": 120.0
            },
            {
                "start_time": 36.6545455,
                "end_time": 36.7704545,
                "pitch": 51,
                "velocity": 64,
                "duration": 0.1159091,
                "tempo": 120.0
            },
            {
                "start_time": 36.9045455,
                "end_time": 37.0204545,
                "pitch": 51,
                "velocity": 64,
                "duration": 0.1159091,
                "tempo": 120.0
            },
            {
                "start_time": 37.0386364,
                "end_time": 37.1386364,
                "pitch": 51,
                "velocity": 64,
                "duration": 0.1,
                "tempo": 120.0
            },
            {
                "start_time": 37.2886364,
                "end_time": 37.3886364,
                "pitch": 51,
                "velocity": 64,
                "duration": 0.1,
                "tempo": 120.0
            },
            {
                "start_time": 37.4045455,
                "end_time": 37.5204545,
                "pitch": 51,
                "velocity": 64,
                "duration": 0.1159091,
                "tempo": 120.0
            },
            {
                "start_time": 37.6545455,
                "end_time": 37.7704545,
                "pitch": 51,
                "velocity": 64,
                "duration": 0.1159091,
                "tempo": 120.0
            },
            {
                "start_time": 38.1545455,
                "end_time": 38.2704545,
                "pitch": 63,
                "velocity": 64,
                "duration": 0.1159091,
                "tempo": 120.0
            },
            {
                "start_time": 38.2886364,
                "end_time": 38.3886364,
                "pitch": 58,
                "velocity": 64,
                "duration": 0.1,
                "tempo": 120.0
            },
            {
                "start_time": 38.5386364,
                "end_time": 38.6386364,
                "pitch": 63,
                "velocity": 64,
                "duration": 0.1,
                "tempo": 120.0
            },
            {
                "start_time": 38.6545455,
                "end_time": 38.7704545,
                "pitch": 58,
                "velocity": 64,
                "duration": 0.1159091,
                "tempo": 120.0
            },
            {
                "start_time": 38.9045455,
                "end_time": 39.0204545,
                "pitch": 63,
                "velocity": 64,
                "duration": 0.1159091,
                "tempo": 120.0
            },
            {
                "start_time": 39.0386364,
                "end_time": 39.1386364,
                "pitch": 58,
                "velocity": 64,
                "duration": 0.1,
                "tempo": 120.0
            },
            {
                "start_time": 39.2886364,
                "end_time": 39.3886364,
                "pitch": 63,
                "velocity": 64,
                "duration": 0.1,
                "tempo": 120.0
            },
            {
                "start_time": 39.4045455,
                "end_time": 39.5204545,
                "pitch": 58,
                "velocity": 64,
                "duration": 0.1159091,
                "tempo": 120.0
            },
            {
                "start_time": 39.6545455,
                "end_time": 39.7704545,
                "pitch": 63,
                "velocity": 64,
                "duration": 0.1159091,
                "tempo": 120.0
            },
            {
                "start_time": 40.1545455,
                "end_time": 40.2704545,
                "pitch": 56,
                "velocity": 64,
                "duration": 0.1159091,
                "tempo": 120.0
            },
            {
                "start_time": 40.2886364,
                "end_time": 40.3886364,
                "pitch": 51,
                "velocity": 64,
                "duration": 0.1,
                "tempo": 120.0
            },
            {
                "start_time": 40.5386364,
                "end_time": 40.6386364,
                "pitch": 56,
                "velocity": 64,
                "duration": 0.1,
                "tempo": 120.0
            },
            {
                "start_time": 40.6545455,
                "end_time": 40.7704545,
                "pitch": 51,
                "velocity": 64,
                "duration": 0.1159091,
                "tempo": 120.0
            },
            {
                "start_time": 40.9045455,
                "end_time": 41.0204545,
                "pitch": 56,
                "velocity": 64,
                "duration": 0.1159091,
                "tempo": 120.0
            },
            {
                "start_time": 41.0386364,
                "end_time": 41.1386364,
                "pitch": 51,
                "velocity": 64,
                "duration": 0.1,
                "tempo": 120.0
            },
            {
                "start_time": 41.2886364,
                "end_time": 41.3886364,
                "pitch": 56,
                "velocity": 64,
                "duration": 0.1,
                "tempo": 120.0
            },
            {
                "start_time": 41.4045455,
                "end_time": 41.5204545,
                "pitch": 51,
                "velocity": 64,
                "duration": 0.1159091,
                "tempo": 120.0
            },
            {
                "start_time": 41.6545455,
                "end_time": 41.7704545,
                "pitch": 56,
                "velocity": 64,
                "duration": 0.1159091,
                "tempo": 120.0
            },
            {
                "start_time": 42.1545455,
                "end_time": 42.2704545,
                "pitch": 56,
                "velocity": 64,
                "duration": 0.1159091,
                "tempo": 120.0
            },
            {
                "start_time": 42.2886364,
                "end_time": 42.3886364,
                "pitch": 51,
                "velocity": 64,
                "duration": 0.1,
                "tempo": 120.0
            },
            {
                "start_time": 42.5386364,
                "end_time": 42.6386364,
                "pitch": 56,
                "velocity": 64,
                "duration": 0.1,
                "tempo": 120.0
            },
            {
                "start_time": 42.6545455,
                "end_time": 42.7704545,
                "pitch": 51,
                "velocity": 64,
                "duration": 0.1159091,
                "tempo": 120.0
            },
            {
                "start_time": 42.9045455,
                "end_time": 43.0204545,
                "pitch": 56,
                "velocity": 64,
                "duration": 0.1159091,
                "tempo": 120.0
            },
            {
                "start_time": 43.0386364,
                "end_time": 43.1386364,
                "pitch": 51,
                "velocity": 64,
                "duration": 0.1,
                "tempo": 120.0
            },
            {
                "start_time": 43.2886364,
                "end_time": 43.3886364,
                "pitch": 56,
                "velocity": 64,
                "duration": 0.1,
                "tempo": 120.0
            },
            {
                "start_time": 43.4045455,
                "end_time": 43.5204545,
                "pitch": 51,
                "velocity": 64,
                "duration": 0.1159091,
                "tempo": 120.0
            },
            {
                "start_time": 43.6545455,
                "end_time": 43.7704545,
                "pitch": 56,
                "velocity": 64,
                "duration": 0.1159091,
                "tempo": 120.0
            },
            {
                "start_time": 44.1545455,
                "end_time": 44.2704545,
                "pitch": 56,
                "velocity": 64,
                "duration": 0.1159091,
                "tempo": 120.0
            },
            {
                "start_time": 44.2886364,
                "end_time": 44.3886364,
                "pitch": 53,
                "velocity": 64,
                "duration": 0.1,
                "tempo": 120.0
            },
            {
                "start_time": 44.5386364,
                "end_time": 44.6386364,
                "pitch": 56,
                "velocity": 64,
                "duration": 0.1,
                "tempo": 120.0
            },
            {
                "start_time": 44.6545455,
                "end_time": 44.7704545,
                "pitch": 53,
                "velocity": 64,
                "duration": 0.1159091,
                "tempo": 120.0
            },
            {
                "start_time": 44.9045455,
                "end_time": 45.0204545,
                "pitch": 56,
                "velocity": 64,
                "duration": 0.1159091,
                "tempo": 120.0
            },
            {
                "start_time": 45.0386364,
                "end_time": 45.1386364,
                "pitch": 53,
                "velocity": 64,
                "duration": 0.1,
                "tempo": 120.0
            },
            {
                "start_time": 45.2886364,
                "end_time": 45.3886364,
                "pitch": 56,
                "velocity": 64,
                "duration": 0.1,
                "tempo": 120.0
            },
            {
                "start_time": 45.4045455,
                "end_time": 45.5204545,
                "pitch": 53,
                "velocity": 64,
                "duration": 0.1159091,
                "tempo": 120.0
            },
            {
                "start_time": 45.6545455,
                "end_time": 45.7704545,
                "pitch": 56,
                "velocity": 64,
                "duration": 0.1159091,
                "tempo": 120.0
            },
            {
                "start_time": 46.2977273,
                "end_time": 46.4,
                "pitch": 61,
                "velocity": 64,
                "duration": 0.1022727,
                "tempo": 120.0
            },
            {
                "start_time": 46.4159091,
                "end_time": 46.7772727,
                "pitch": 61,
                "velocity": 64,
                "duration": 0.3613636,
                "tempo": 120.0
            },
            {
                "start_time": 46.7931818,
                "end_time": 46.8931818,
                "pitch": 56,
                "velocity": 64,
                "duration": 0.1,
                "tempo": 120.0
            },
            {
                "start_time": 46.9090909,
                "end_time": 47.275,
                "pitch": 56,
                "velocity": 64,
                "duration": 0.3659091,
                "tempo": 120.0
            },
            {
                "start_time": 47.2931818,
                "end_time": 47.3931818,
                "pitch": 53,
                "velocity": 64,
                "duration": 0.1,
                "tempo": 120.0
            },
            {
                "start_time": 47.4090909,
                "end_time": 47.6431818,
                "pitch": 53,
                "velocity": 64,
                "duration": 0.2340909,
                "tempo": 120.0
            },
            {
                "start_time": 47.6590909,
                "end_time": 47.8931818,
                "pitch": 49,
                "velocity": 64,
                "duration": 0.2340909,
                "tempo": 120.0
            },
            {
                "start_time": 48.1590909,
                "end_time": 48.275,
                "pitch": 61,
                "velocity": 64,
                "duration": 0.1159091,
                "tempo": 120.0
            },
            {
                "start_time": 48.2931818,
                "end_time": 48.3931818,
                "pitch": 56,
                "velocity": 64,
                "duration": 0.1,
                "tempo": 120.0
            },
            {
                "start_time": 48.5431818,
                "end_time": 48.6431818,
                "pitch": 61,
                "velocity": 64,
                "duration": 0.1,
                "tempo": 120.0
            },
            {
                "start_time": 48.6590909,
                "end_time": 48.775,
                "pitch": 56,
                "velocity": 64,
                "duration": 0.1159091,
                "tempo": 120.0
            },
            {
                "start_time": 48.9090909,
                "end_time": 49.025,
                "pitch": 61,
                "velocity": 64,
                "duration": 0.1159091,
                "tempo": 120.0
            },
            {
                "start_time": 49.0431818,
                "end_time": 49.1431818,
                "pitch": 56,
                "velocity": 64,
                "duration": 0.1,
                "tempo": 120.0
            },
            {
                "start_time": 49.2931818,
                "end_time": 49.3931818,
                "pitch": 61,
                "velocity": 64,
                "duration": 0.1,
                "tempo": 120.0
            },
            {
                "start_time": 49.4090909,
                "end_time": 49.525,
                "pitch": 56,
                "velocity": 64,
                "duration": 0.1159091,
                "tempo": 120.0
            },
            {
                "start_time": 49.6590909,
                "end_time": 49.775,
                "pitch": 61,
                "velocity": 64,
                "duration": 0.1159091,
                "tempo": 120.0
            },
            {
                "start_time": 50.1590909,
                "end_time": 50.275,
                "pitch": 60,
                "velocity": 64,
                "duration": 0.1159091,
                "tempo": 120.0
            },
            {
                "start_time": 50.2931818,
                "end_time": 50.3931818,
                "pitch": 56,
                "velocity": 64,
                "duration": 0.1,
                "tempo": 120.0
            },
            {
                "start_time": 50.5431818,
                "end_time": 50.6431818,
                "pitch": 60,
                "velocity": 64,
                "duration": 0.1,
                "tempo": 120.0
            },
            {
                "start_time": 50.6590909,
                "end_time": 50.775,
                "pitch": 56,
                "velocity": 64,
                "duration": 0.1159091,
                "tempo": 120.0
            },
            {
                "start_time": 50.9090909,
                "end_time": 51.025,
                "pitch": 60,
                "velocity": 64,
                "duration": 0.1159091,
                "tempo": 120.0
            },
            {
                "start_time": 51.0431818,
                "end_time": 51.1431818,
                "pitch": 56,
                "velocity": 64,
                "duration": 0.1,
                "tempo": 120.0
            },
            {
                "start_time": 51.2931818,
                "end_time": 51.3931818,
                "pitch": 60,
                "velocity": 64,
                "duration": 0.1,
                "tempo": 120.0
            },
            {
                "start_time": 51.4090909,
                "end_time": 51.525,
                "pitch": 56,
                "velocity": 64,
                "duration": 0.1159091,
                "tempo": 120.0
            },
            {
                "start_time": 51.6590909,
                "end_time": 51.775,
                "pitch": 60,
                "velocity": 64,
                "duration": 0.1159091,
                "tempo": 120.0
            },
            {
                "start_time": 52.1590909,
                "end_time": 52.275,
                "pitch": 58,
                "velocity": 64,
                "duration": 0.1159091,
                "tempo": 120.0
            },
            {
                "start_time": 52.2931818,
                "end_time": 52.3931818,
                "pitch": 53,
                "velocity": 64,
                "duration": 0.1,
                "tempo": 120.0
            },
            {
                "start_time": 52.5431818,
                "end_time": 52.6431818,
                "pitch": 58,
                "velocity": 64,
                "duration": 0.1,
                "tempo": 120.0
            },
            {
                "start_time": 52.6590909,
                "end_time": 52.775,
                "pitch": 53,
                "velocity": 64,
                "duration": 0.1159091,
                "tempo": 120.0
            },
            {
                "start_time": 52.9090909,
                "end_time": 53.025,
                "pitch": 58,
                "velocity": 64,
                "duration": 0.1159091,
                "tempo": 120.0
            },
            {
                "start_time": 53.0431818,
                "end_time": 53.1431818,
                "pitch": 53,
                "velocity": 64,
                "duration": 0.1,
                "tempo": 120.0
            },
            {
                "start_time": 53.2931818,
                "end_time": 53.3931818,
                "pitch": 58,
                "velocity": 64,
                "duration": 0.1,
                "tempo": 120.0
            },
            {
                "start_time": 53.4090909,
                "end_time": 53.525,
                "pitch": 53,
                "velocity": 64,
                "duration": 0.1159091,
                "tempo": 120.0
            },
            {
                "start_time": 53.6590909,
                "end_time": 53.775,
                "pitch": 58,
                "velocity": 64,
                "duration": 0.1159091,
                "tempo": 120.0
            },
            {
                "start_time": 54.1590909,
                "end_time": 54.275,
                "pitch": 56,
                "velocity": 64,
                "duration": 0.1159091,
                "tempo": 120.0
            },
            {
                "start_time": 54.2931818,
                "end_time": 54.3931818,
                "pitch": 51,
                "velocity": 64,
                "duration": 0.1,
                "tempo": 120.0
            },
            {
                "start_time": 54.5431818,
                "end_time": 54.6431818,
                "pitch": 56,
                "velocity": 64,
                "duration": 0.1,
                "tempo": 120.0
            },
            {
                "start_time": 54.6590909,
                "end_time": 54.775,
                "pitch": 51,
                "velocity": 64,
                "duration": 0.1159091,
                "tempo": 120.0
            },
            {
                "start_time": 54.9090909,
                "end_time": 55.025,
                "pitch": 56,
                "velocity": 64,
                "duration": 0.1159091,
                "tempo": 120.0
            },
            {
                "start_time": 55.0431818,
                "end_time": 55.1431818,
                "pitch": 51,
                "velocity": 64,
                "duration": 0.1,
                "tempo": 120.0
            },
            {
                "start_time": 55.2931818,
                "end_time": 55.3931818,
                "pitch": 56,
                "velocity": 64,
                "duration": 0.1,
                "tempo": 120.0
            },
            {
                "start_time": 55.4090909,
                "end_time": 55.525,
                "pitch": 51,
                "velocity": 64,
                "duration": 0.1159091,
                "tempo": 120.0
            },
            {
                "start_time": 55.6590909,
                "end_time": 55.775,
                "pitch": 56,
                "velocity": 64,
                "duration": 0.1159091,
                "tempo": 120.0
            },
            {
                "start_time": 56.1590909,
                "end_time": 56.275,
                "pitch": 54,
                "velocity": 64,
                "duration": 0.1159091,
                "tempo": 120.0
            },
            {
                "start_time": 56.2931818,
                "end_time": 56.3931818,
                "pitch": 49,
                "velocity": 64,
                "duration": 0.1,
                "tempo": 120.0
            },
            {
                "start_time": 56.5431818,
                "end_time": 56.6431818,
                "pitch": 54,
                "velocity": 64,
                "duration": 0.1,
                "tempo": 120.0
            },
            {
                "start_time": 56.6590909,
                "end_time": 56.775,
                "pitch": 49,
                "velocity": 64,
                "duration": 0.1159091,
                "tempo": 120.0
            },
            {
                "start_time": 56.9090909,
                "end_time": 57.025,
                "pitch": 54,
                "velocity": 64,
                "duration": 0.1159091,
                "tempo": 120.0
            },
            {
                "start_time": 57.0431818,
                "end_time": 57.1431818,
                "pitch": 49,
                "velocity": 64,
                "duration": 0.1,
                "tempo": 120.0
            },
            {
                "start_time": 57.2931818,
                "end_time": 57.3931818,
                "pitch": 54,
                "velocity": 64,
                "duration": 0.1,
                "tempo": 120.0
            },
            {
                "start_time": 57.4090909,
                "end_time": 57.525,
                "pitch": 49,
                "velocity": 64,
                "duration": 0.1159091,
                "tempo": 120.0
            },
            {
                "start_time": 57.6590909,
                "end_time": 57.775,
                "pitch": 54,
                "velocity": 64,
                "duration": 0.1159091,
                "tempo": 120.0
            },
            {
                "start_time": 58.1590909,
                "end_time": 58.275,
                "pitch": 56,
                "velocity": 64,
                "duration": 0.1159091,
                "tempo": 120.0
            },
            {
                "start_time": 58.2931818,
                "end_time": 58.3931818,
                "pitch": 56,
                "velocity": 64,
                "duration": 0.1,
                "tempo": 120.0
            },
            {
                "start_time": 58.5431818,
                "end_time": 58.6431818,
                "pitch": 56,
                "velocity": 64,
                "duration": 0.1,
                "tempo": 120.0
            },
            {
                "start_time": 58.6590909,
                "end_time": 58.775,
                "pitch": 56,
                "velocity": 64,
                "duration": 0.1159091,
                "tempo": 120.0
            },
            {
                "start_time": 58.9090909,
                "end_time": 59.025,
                "pitch": 56,
                "velocity": 64,
                "duration": 0.1159091,
                "tempo": 120.0
            },
            {
                "start_time": 59.0431818,
                "end_time": 59.1431818,
                "pitch": 56,
                "velocity": 64,
                "duration": 0.1,
                "tempo": 120.0
            },
            {
                "start_time": 59.2931818,
                "end_time": 59.3931818,
                "pitch": 56,
                "velocity": 64,
                "duration": 0.1,
                "tempo": 120.0
            },
            {
                "start_time": 59.4090909,
                "end_time": 59.525,
                "pitch": 56,
                "velocity": 64,
                "duration": 0.1159091,
                "tempo": 120.0
            },
            {
                "start_time": 59.6590909,
                "end_time": 59.775,
                "pitch": 56,
                "velocity": 64,
                "duration": 0.1159091,
                "tempo": 120.0
            },
            {
                "start_time": 60.1590909,
                "end_time": 60.275,
                "pitch": 58,
                "velocity": 64,
                "duration": 0.1159091,
                "tempo": 120.0
            },
            {
                "start_time": 60.2931818,
                "end_time": 60.3931818,
                "pitch": 58,
                "velocity": 64,
                "duration": 0.1,
                "tempo": 120.0
            },
            {
                "start_time": 60.5431818,
                "end_time": 60.6431818,
                "pitch": 58,
                "velocity": 64,
                "duration": 0.1,
                "tempo": 120.0
            },
            {
                "start_time": 60.6590909,
                "end_time": 60.775,
                "pitch": 58,
                "velocity": 64,
                "duration": 0.1159091,
                "tempo": 120.0
            },
            {
                "start_time": 60.9090909,
                "end_time": 61.025,
                "pitch": 58,
                "velocity": 64,
                "duration": 0.1159091,
                "tempo": 120.0
            },
            {
                "start_time": 61.0431818,
                "end_time": 61.1431818,
                "pitch": 58,
                "velocity": 64,
                "duration": 0.1,
                "tempo": 120.0
            },
            {
                "start_time": 61.2931818,
                "end_time": 61.3931818,
                "pitch": 58,
                "velocity": 64,
                "duration": 0.1,
                "tempo": 120.0
            },
            {
                "start_time": 61.4090909,
                "end_time": 61.525,
                "pitch": 58,
                "velocity": 64,
                "duration": 0.1159091,
                "tempo": 120.0
            },
            {
                "start_time": 61.6590909,
                "end_time": 61.775,
                "pitch": 58,
                "velocity": 64,
                "duration": 0.1159091,
                "tempo": 120.0
            },
            {
                "start_time": 62.1590909,
                "end_time": 62.275,
                "pitch": 63,
                "velocity": 64,
                "duration": 0.1159091,
                "tempo": 120.0
            },
            {
                "start_time": 62.2931818,
                "end_time": 62.3931818,
                "pitch": 60,
                "velocity": 64,
                "duration": 0.1,
                "tempo": 120.0
            },
            {
                "start_time": 62.5431818,
                "end_time": 62.6431818,
                "pitch": 63,
                "velocity": 64,
                "duration": 0.1,
                "tempo": 120.0
            },
            {
                "start_time": 62.6590909,
                "end_time": 62.775,
                "pitch": 60,
                "velocity": 64,
                "duration": 0.1159091,
                "tempo": 120.0
            },
            {
                "start_time": 62.9090909,
                "end_time": 63.025,
                "pitch": 63,
                "velocity": 64,
                "duration": 0.1159091,
                "tempo": 120.0
            },
            {
                "start_time": 63.0431818,
                "end_time": 63.1431818,
                "pitch": 60,
                "velocity": 64,
                "duration": 0.1,
                "tempo": 120.0
            },
            {
                "start_time": 63.2931818,
                "end_time": 63.3931818,
                "pitch": 63,
                "velocity": 64,
                "duration": 0.1,
                "tempo": 120.0
            },
            {
                "start_time": 63.4090909,
                "end_time": 63.525,
                "pitch": 60,
                "velocity": 64,
                "duration": 0.1159091,
                "tempo": 120.0
            },
            {
                "start_time": 63.6590909,
                "end_time": 63.775,
                "pitch": 63,
                "velocity": 64,
                "duration": 0.1159091,
                "tempo": 120.0
            },
            {
                "start_time": 64.1590909,
                "end_time": 64.275,
                "pitch": 61,
                "velocity": 64,
                "duration": 0.1159091,
                "tempo": 120.0
            },
            {
                "start_time": 64.2931818,
                "end_time": 64.3931818,
                "pitch": 56,
                "velocity": 64,
                "duration": 0.1,
                "tempo": 120.0
            },
            {
                "start_time": 64.5431818,
                "end_time": 64.6431818,
                "pitch": 61,
                "velocity": 64,
                "duration": 0.1,
                "tempo": 120.0
            },
            {
                "start_time": 64.6590909,
                "end_time": 64.775,
                "pitch": 56,
                "velocity": 64,
                "duration": 0.1159091,
                "tempo": 120.0
            },
            {
                "start_time": 64.9090909,
                "end_time": 65.025,
                "pitch": 61,
                "velocity": 64,
                "duration": 0.1159091,
                "tempo": 120.0
            },
            {
                "start_time": 65.0431818,
                "end_time": 65.1431818,
                "pitch": 56,
                "velocity": 64,
                "duration": 0.1,
                "tempo": 120.0
            },
            {
                "start_time": 65.2931818,
                "end_time": 65.3931818,
                "pitch": 61,
                "velocity": 64,
                "duration": 0.1,
                "tempo": 120.0
            },
            {
                "start_time": 65.4090909,
                "end_time": 65.525,
                "pitch": 56,
                "velocity": 64,
                "duration": 0.1159091,
                "tempo": 120.0
            },
            {
                "start_time": 65.6590909,
                "end_time": 65.775,
                "pitch": 61,
                "velocity": 64,
                "duration": 0.1159091,
                "tempo": 120.0
            },
            {
                "start_time": 66.1590909,
                "end_time": 66.275,
                "pitch": 60,
                "velocity": 64,
                "duration": 0.1159091,
                "tempo": 120.0
            },
            {
                "start_time": 66.2931818,
                "end_time": 66.3931818,
                "pitch": 56,
                "velocity": 64,
                "duration": 0.1,
                "tempo": 120.0
            },
            {
                "start_time": 66.5431818,
                "end_time": 66.6431818,
                "pitch": 60,
                "velocity": 64,
                "duration": 0.1,
                "tempo": 120.0
            },
            {
                "start_time": 66.6590909,
                "end_time": 66.775,
                "pitch": 56,
                "velocity": 64,
                "duration": 0.1159091,
                "tempo": 120.0
            },
            {
                "start_time": 66.9090909,
                "end_time": 67.025,
                "pitch": 60,
                "velocity": 64,
                "duration": 0.1159091,
                "tempo": 120.0
            },
            {
                "start_time": 67.0431818,
                "end_time": 67.1431818,
                "pitch": 56,
                "velocity": 64,
                "duration": 0.1,
                "tempo": 120.0
            },
            {
                "start_time": 67.2931818,
                "end_time": 67.3931818,
                "pitch": 60,
                "velocity": 64,
                "duration": 0.1,
                "tempo": 120.0
            },
            {
                "start_time": 67.4090909,
                "end_time": 67.525,
                "pitch": 56,
                "velocity": 64,
                "duration": 0.1159091,
                "tempo": 120.0
            },
            {
                "start_time": 67.6590909,
                "end_time": 67.775,
                "pitch": 60,
                "velocity": 64,
                "duration": 0.1159091,
                "tempo": 120.0
            },
            {
                "start_time": 68.1590909,
                "end_time": 68.275,
                "pitch": 58,
                "velocity": 64,
                "duration": 0.1159091,
                "tempo": 120.0
            },
            {
                "start_time": 68.2931818,
                "end_time": 68.3931818,
                "pitch": 53,
                "velocity": 64,
                "duration": 0.1,
                "tempo": 120.0
            },
            {
                "start_time": 68.5431818,
                "end_time": 68.6431818,
                "pitch": 58,
                "velocity": 64,
                "duration": 0.1,
                "tempo": 120.0
            },
            {
                "start_time": 68.6590909,
                "end_time": 68.775,
                "pitch": 53,
                "velocity": 64,
                "duration": 0.1159091,
                "tempo": 120.0
            },
            {
                "start_time": 68.9090909,
                "end_time": 69.025,
                "pitch": 58,
                "velocity": 64,
                "duration": 0.1159091,
                "tempo": 120.0
            },
            {
                "start_time": 69.0431818,
                "end_time": 69.1431818,
                "pitch": 53,
                "velocity": 64,
                "duration": 0.1,
                "tempo": 120.0
            },
            {
                "start_time": 69.2931818,
                "end_time": 69.3931818,
                "pitch": 58,
                "velocity": 64,
                "duration": 0.1,
                "tempo": 120.0
            },
            {
                "start_time": 69.4090909,
                "end_time": 69.525,
                "pitch": 53,
                "velocity": 64,
                "duration": 0.1159091,
                "tempo": 120.0
            },
            {
                "start_time": 69.6590909,
                "end_time": 69.775,
                "pitch": 58,
                "velocity": 64,
                "duration": 0.1159091,
                "tempo": 120.0
            },
            {
                "start_time": 70.1590909,
                "end_time": 70.275,
                "pitch": 56,
                "velocity": 64,
                "duration": 0.1159091,
                "tempo": 120.0
            },
            {
                "start_time": 70.2931818,
                "end_time": 70.3931818,
                "pitch": 51,
                "velocity": 64,
                "duration": 0.1,
                "tempo": 120.0
            },
            {
                "start_time": 70.5431818,
                "end_time": 70.6431818,
                "pitch": 56,
                "velocity": 64,
                "duration": 0.1,
                "tempo": 120.0
            },
            {
                "start_time": 70.6590909,
                "end_time": 70.775,
                "pitch": 51,
                "velocity": 64,
                "duration": 0.1159091,
                "tempo": 120.0
            },
            {
                "start_time": 70.9090909,
                "end_time": 71.025,
                "pitch": 56,
                "velocity": 64,
                "duration": 0.1159091,
                "tempo": 120.0
            },
            {
                "start_time": 71.0431818,
                "end_time": 71.1431818,
                "pitch": 51,
                "velocity": 64,
                "duration": 0.1,
                "tempo": 120.0
            },
            {
                "start_time": 71.2931818,
                "end_time": 71.3931818,
                "pitch": 56,
                "velocity": 64,
                "duration": 0.1,
                "tempo": 120.0
            },
            {
                "start_time": 71.4090909,
                "end_time": 71.525,
                "pitch": 51,
                "velocity": 64,
                "duration": 0.1159091,
                "tempo": 120.0
            },
            {
                "start_time": 71.6590909,
                "end_time": 71.775,
                "pitch": 56,
                "velocity": 64,
                "duration": 0.1159091,
                "tempo": 120.0
            },
            {
                "start_time": 72.1590909,
                "end_time": 72.275,
                "pitch": 54,
                "velocity": 64,
                "duration": 0.1159091,
                "tempo": 120.0
            },
            {
                "start_time": 72.2931818,
                "end_time": 72.3931818,
                "pitch": 54,
                "velocity": 64,
                "duration": 0.1,
                "tempo": 120.0
            },
            {
                "start_time": 72.5431818,
                "end_time": 72.6431818,
                "pitch": 54,
                "velocity": 64,
                "duration": 0.1,
                "tempo": 120.0
            },
            {
                "start_time": 72.6590909,
                "end_time": 72.775,
                "pitch": 54,
                "velocity": 64,
                "duration": 0.1159091,
                "tempo": 120.0
            },
            {
                "start_time": 72.9090909,
                "end_time": 73.025,
                "pitch": 54,
                "velocity": 64,
                "duration": 0.1159091,
                "tempo": 120.0
            },
            {
                "start_time": 73.0431818,
                "end_time": 73.1431818,
                "pitch": 54,
                "velocity": 64,
                "duration": 0.1,
                "tempo": 120.0
            },
            {
                "start_time": 73.2931818,
                "end_time": 73.3931818,
                "pitch": 54,
                "velocity": 64,
                "duration": 0.1,
                "tempo": 120.0
            },
            {
                "start_time": 73.4090909,
                "end_time": 73.525,
                "pitch": 54,
                "velocity": 64,
                "duration": 0.1159091,
                "tempo": 120.0
            },
            {
                "start_time": 73.6590909,
                "end_time": 73.775,
                "pitch": 54,
                "velocity": 64,
                "duration": 0.1159091,
                "tempo": 120.0
            },
            {
                "start_time": 74.1590909,
                "end_time": 74.275,
                "pitch": 56,
                "velocity": 64,
                "duration": 0.1159091,
                "tempo": 120.0
            },
            {
                "start_time": 74.2931818,
                "end_time": 74.3931818,
                "pitch": 56,
                "velocity": 64,
                "duration": 0.1,
                "tempo": 120.0
            },
            {
                "start_time": 74.5431818,
                "end_time": 74.6431818,
                "pitch": 56,
                "velocity": 64,
                "duration": 0.1,
                "tempo": 120.0
            },
            {
                "start_time": 74.6590909,
                "end_time": 74.775,
                "pitch": 56,
                "velocity": 64,
                "duration": 0.1159091,
                "tempo": 120.0
            },
            {
                "start_time": 74.9090909,
                "end_time": 75.025,
                "pitch": 56,
                "velocity": 64,
                "duration": 0.1159091,
                "tempo": 120.0
            },
            {
                "start_time": 75.0431818,
                "end_time": 75.1431818,
                "pitch": 56,
                "velocity": 64,
                "duration": 0.1,
                "tempo": 120.0
            },
            {
                "start_time": 75.2931818,
                "end_time": 75.3931818,
                "pitch": 56,
                "velocity": 64,
                "duration": 0.1,
                "tempo": 120.0
            },
            {
                "start_time": 75.4090909,
                "end_time": 75.525,
                "pitch": 56,
                "velocity": 64,
                "duration": 0.1159091,
                "tempo": 120.0
            },
            {
                "start_time": 75.6590909,
                "end_time": 75.775,
                "pitch": 56,
                "velocity": 64,
                "duration": 0.1159091,
                "tempo": 120.0
            },
            {
                "start_time": 76.1590909,
                "end_time": 76.275,
                "pitch": 56,
                "velocity": 64,
                "duration": 0.1159091,
                "tempo": 120.0
            },
            {
                "start_time": 76.2931818,
                "end_time": 76.3931818,
                "pitch": 56,
                "velocity": 64,
                "duration": 0.1,
                "tempo": 120.0
            },
            {
                "start_time": 76.5431818,
                "end_time": 76.6431818,
                "pitch": 56,
                "velocity": 64,
                "duration": 0.1,
                "tempo": 120.0
            },
            {
                "start_time": 76.6590909,
                "end_time": 76.775,
                "pitch": 56,
                "velocity": 64,
                "duration": 0.1159091,
                "tempo": 120.0
            },
            {
                "start_time": 76.9090909,
                "end_time": 77.025,
                "pitch": 56,
                "velocity": 64,
                "duration": 0.1159091,
                "tempo": 120.0
            },
            {
                "start_time": 77.0431818,
                "end_time": 77.1431818,
                "pitch": 56,
                "velocity": 64,
                "duration": 0.1,
                "tempo": 120.0
            },
            {
                "start_time": 77.2931818,
                "end_time": 77.3931818,
                "pitch": 56,
                "velocity": 64,
                "duration": 0.1,
                "tempo": 120.0
            },
            {
                "start_time": 77.4090909,
                "end_time": 77.525,
                "pitch": 56,
                "velocity": 64,
                "duration": 0.1159091,
                "tempo": 120.0
            },
            {
                "start_time": 77.6590909,
                "end_time": 77.775,
                "pitch": 56,
                "velocity": 64,
                "duration": 0.1159091,
                "tempo": 120.0
            },
            {
                "start_time": 78.1659091,
                "end_time": 78.2840909,
                "pitch": 61,
                "velocity": 64,
                "duration": 0.1181818,
                "tempo": 120.0
            },
            {
                "start_time": 78.3022727,
                "end_time": 78.4045455,
                "pitch": 58,
                "velocity": 64,
                "duration": 0.1022727,
                "tempo": 120.0
            },
            {
                "start_time": 78.5522727,
                "end_time": 78.65,
                "pitch": 61,
                "velocity": 64,
                "duration": 0.0977273,
                "tempo": 120.0
            },
            {
                "start_time": 78.6681818,
                "end_time": 78.7818182,
                "pitch": 58,
                "velocity": 64,
                "duration": 0.1136364,
                "tempo": 120.0
            },
            {
                "start_time": 78.9136364,
                "end_time": 79.8954545,
                "pitch": 56,
                "velocity": 64,
                "duration": 0.9818182,
                "tempo": 120.0
            },
            {
                "start_time": 79.9136364,
                "end_time": 81.8954545,
                "pitch": 58,
                "velocity": 64,
                "duration": 1.9818182,
                "tempo": 120.0
            },
            {
                "start_time": 81.9136364,
                "end_time": 83.8954545,
                "pitch": 56,
                "velocity": 64,
                "duration": 1.9818182,
                "tempo": 120.0
            },
            {
                "start_time": 83.9136364,
                "end_time": 85.8954545,
                "pitch": 54,
                "velocity": 64,
                "duration": 1.9818182,
                "tempo": 120.0
            },
            {
                "start_time": 85.9136364,
                "end_time": 87.9,
                "pitch": 56,
                "velocity": 64,
                "duration": 1.9863636,
                "tempo": 120.0
            },
            {
                "start_time": 87.9181818,
                "end_time": 89.9045455,
                "pitch": 58,
                "velocity": 64,
                "duration": 1.9863636,
                "tempo": 120.0
            },
            {
                "start_time": 89.9227273,
                "end_time": 91.9045455,
                "pitch": 56,
                "velocity": 64,
                "duration": 1.9818182,
                "tempo": 120.0
            },
            {
                "start_time": 91.9227273,
                "end_time": 93.9090909,
                "pitch": 54,
                "velocity": 64,
                "duration": 1.9863636,
                "tempo": 120.0
            },
            {
                "start_time": 93.9272727,
                "end_time": 94.2931818,
                "pitch": 56,
                "velocity": 64,
                "duration": 0.3659091,
                "tempo": 120.0
            },
            {
                "start_time": 94.3090909,
                "end_time": 94.4090909,
                "pitch": 56,
                "velocity": 64,
                "duration": 0.1,
                "tempo": 120.0
            },
            {
                "start_time": 94.4272727,
                "end_time": 94.7931818,
                "pitch": 56,
                "velocity": 64,
                "duration": 0.3659091,
                "tempo": 120.0
            },
            {
                "start_time": 94.8090909,
                "end_time": 94.9090909,
                "pitch": 53,
                "velocity": 64,
                "duration": 0.1,
                "tempo": 120.0
            },
            {
                "start_time": 94.9272727,
                "end_time": 95.2931818,
                "pitch": 53,
                "velocity": 64,
                "duration": 0.3659091,
                "tempo": 120.0
            },
            {
                "start_time": 95.3090909,
                "end_time": 95.4090909,
                "pitch": 49,
                "velocity": 64,
                "duration": 0.1,
                "tempo": 120.0
            },
            {
                "start_time": 95.4272727,
                "end_time": 95.7931818,
                "pitch": 49,
                "velocity": 64,
                "duration": 0.3659091,
                "tempo": 120.0
            },
            {
                "start_time": 95.8090909,
                "end_time": 95.9090909,
                "pitch": 44,
                "velocity": 64,
                "duration": 0.1,
                "tempo": 120.0
            }
        ],
        "French Horn": [
            {
                "start_time": 0.0,
                "end_time": 1.8840909,
                "pitch": 65,
                "velocity": 51,
                "duration": 1.8840909,
                "tempo": 120.0
            },
            {
                "start_time": 1.9,
                "end_time": 3.8840909,
                "pitch": 75,
                "velocity": 51,
                "duration": 1.9840909,
                "tempo": 120.0
            },
            {
                "start_time": 3.9,
                "end_time": 5.8840909,
                "pitch": 73,
                "velocity": 51,
                "duration": 1.9840909,
                "tempo": 120.0
            },
            {
                "start_time": 7.9,
                "end_time": 9.8840909,
                "pitch": 58,
                "velocity": 51,
                "duration": 1.9840909,
                "tempo": 120.0
            },
            {
                "start_time": 9.9,
                "end_time": 11.8840909,
                "pitch": 56,
                "velocity": 51,
                "duration": 1.9840909,
                "tempo": 120.0
            },
            {
                "start_time": 11.9,
                "end_time": 13.8840909,
                "pitch": 58,
                "velocity": 51,
                "duration": 1.9840909,
                "tempo": 120.0
            },
            {
                "start_time": 15.9,
                "end_time": 17.8840909,
                "pitch": 65,
                "velocity": 51,
                "duration": 1.9840909,
                "tempo": 120.0
            },
            {
                "start_time": 17.9,
                "end_time": 19.8840909,
                "pitch": 75,
                "velocity": 51,
                "duration": 1.9840909,
                "tempo": 120.0
            },
            {
                "start_time": 19.9,
                "end_time": 21.8840909,
                "pitch": 73,
                "velocity": 51,
                "duration": 1.9840909,
                "tempo": 120.0
            },
            {
                "start_time": 23.9,
                "end_time": 25.8840909,
                "pitch": 58,
                "velocity": 51,
                "duration": 1.9840909,
                "tempo": 120.0
            },
            {
                "start_time": 25.9,
                "end_time": 27.8840909,
                "pitch": 56,
                "velocity": 51,
                "duration": 1.9840909,
                "tempo": 120.0
            },
            {
                "start_time": 27.9,
                "end_time": 28.8840909,
                "pitch": 65,
                "velocity": 51,
                "duration": 0.9840909,
                "tempo": 120.0
            },
            {
                "start_time": 28.9,
                "end_time": 29.6340909,
                "pitch": 63,
                "velocity": 51,
                "duration": 0.7340909,
                "tempo": 120.0
            },
            {
                "start_time": 29.65,
                "end_time": 29.8840909,
                "pitch": 65,
                "velocity": 51,
                "duration": 0.2340909,
                "tempo": 120.0
            },
            {
                "start_time": 29.9,
                "end_time": 31.8886364,
                "pitch": 65,
                "velocity": 51,
                "duration": 1.9886364,
                "tempo": 120.0
            },
            {
                "start_time": 31.9045455,
                "end_time": 33.8886364,
                "pitch": 63,
                "velocity": 51,
                "duration": 1.9840909,
                "tempo": 120.0
            },
            {
                "start_time": 33.9045455,
                "end_time": 35.8886364,
                "pitch": 62,
                "velocity": 51,
                "duration": 1.9840909,
                "tempo": 120.0
            },
            {
                "start_time": 35.9045455,
                "end_time": 37.8886364,
                "pitch": 63,
                "velocity": 51,
                "duration": 1.9840909,
                "tempo": 120.0
            },
            {
                "start_time": 39.9045455,
                "end_time": 41.8886364,
                "pitch": 63,
                "velocity": 51,
                "duration": 1.9840909,
                "tempo": 120.0
            },
            {
                "start_time": 41.9045455,
                "end_time": 43.8886364,
                "pitch": 63,
                "velocity": 51,
                "duration": 1.9840909,
                "tempo": 120.0
            },
            {
                "start_time": 43.9045455,
                "end_time": 45.8886364,
                "pitch": 61,
                "velocity": 51,
                "duration": 1.9840909,
                "tempo": 120.0
            },
            {
                "start_time": 47.9090909,
                "end_time": 49.8931818,
                "pitch": 65,
                "velocity": 51,
                "duration": 1.9840909,
                "tempo": 120.0
            },
            {
                "start_time": 49.9090909,
                "end_time": 51.8931818,
                "pitch": 75,
                "velocity": 51,
                "duration": 1.9840909,
                "tempo": 120.0
            },
            {
                "start_time": 51.9090909,
                "end_time": 53.8931818,
                "pitch": 73,
                "velocity": 51,
                "duration": 1.9840909,
                "tempo": 120.0
            },
            {
                "start_time": 55.9090909,
                "end_time": 57.8931818,
                "pitch": 58,
                "velocity": 51,
                "duration": 1.9840909,
                "tempo": 120.0
            },
            {
                "start_time": 57.9090909,
                "end_time": 59.8931818,
                "pitch": 56,
                "velocity": 51,
                "duration": 1.9840909,
                "tempo": 120.0
            },
            {
                "start_time": 59.9090909,
                "end_time": 61.8931818,
                "pitch": 58,
                "velocity": 51,
                "duration": 1.9840909,
                "tempo": 120.0
            },
            {
                "start_time": 63.9090909,
                "end_time": 65.8931818,
                "pitch": 65,
                "velocity": 51,
                "duration": 1.9840909,
                "tempo": 120.0
            },
            {
                "start_time": 65.9090909,
                "end_time": 67.8931818,
                "pitch": 75,
                "velocity": 51,
                "duration": 1.9840909,
                "tempo": 120.0
            },
            {
                "start_time": 67.9090909,
                "end_time": 69.8931818,
                "pitch": 73,
                "velocity": 51,
                "duration": 1.9840909,
                "tempo": 120.0
            },
            {
                "start_time": 71.9090909,
                "end_time": 73.8931818,
                "pitch": 58,
                "velocity": 51,
                "duration": 1.9840909,
                "tempo": 120.0
            },
            {
                "start_time": 73.9090909,
                "end_time": 75.8931818,
                "pitch": 56,
                "velocity": 51,
                "duration": 1.9840909,
                "tempo": 120.0
            },
            {
                "start_time": 75.9090909,
                "end_time": 76.8931818,
                "pitch": 65,
                "velocity": 51,
                "duration": 0.9840909,
                "tempo": 120.0
            },
            {
                "start_time": 76.9090909,
                "end_time": 77.6431818,
                "pitch": 63,
                "velocity": 51,
                "duration": 0.7340909,
                "tempo": 120.0
            },
            {
                "start_time": 77.6590909,
                "end_time": 77.8931818,
                "pitch": 65,
                "velocity": 51,
                "duration": 0.2340909,
                "tempo": 120.0
            },
            {
                "start_time": 77.9090909,
                "end_time": 79.8954545,
                "pitch": 65,
                "velocity": 51,
                "duration": 1.9863636,
                "tempo": 120.0
            },
            {
                "start_time": 79.9136364,
                "end_time": 81.8954545,
                "pitch": 61,
                "velocity": 51,
                "duration": 1.9818182,
                "tempo": 120.0
            },
            {
                "start_time": 81.9136364,
                "end_time": 83.8954545,
                "pitch": 60,
                "velocity": 51,
                "duration": 1.9818182,
                "tempo": 120.0
            },
            {
                "start_time": 83.9136364,
                "end_time": 85.8954545,
                "pitch": 58,
                "velocity": 51,
                "duration": 1.9818182,
                "tempo": 120.0
            },
            {
                "start_time": 85.9136364,
                "end_time": 87.9,
                "pitch": 60,
                "velocity": 51,
                "duration": 1.9863636,
                "tempo": 120.0
            },
            {
                "start_time": 87.9181818,
                "end_time": 89.9045455,
                "pitch": 61,
                "velocity": 51,
                "duration": 1.9863636,
                "tempo": 120.0
            },
            {
                "start_time": 89.9227273,
                "end_time": 91.9045455,
                "pitch": 60,
                "velocity": 51,
                "duration": 1.9818182,
                "tempo": 120.0
            },
            {
                "start_time": 91.9227273,
                "end_time": 93.9090909,
                "pitch": 58,
                "velocity": 51,
                "duration": 1.9863636,
                "tempo": 120.0
            },
            {
                "start_time": 93.9272727,
                "end_time": 94.2931818,
                "pitch": 68,
                "velocity": 51,
                "duration": 0.3659091,
                "tempo": 120.0
            },
            {
                "start_time": 94.3090909,
                "end_time": 94.4090909,
                "pitch": 68,
                "velocity": 51,
                "duration": 0.1,
                "tempo": 120.0
            },
            {
                "start_time": 94.4272727,
                "end_time": 94.7931818,
                "pitch": 68,
                "velocity": 51,
                "duration": 0.3659091,
                "tempo": 120.0
            },
            {
                "start_time": 94.8090909,
                "end_time": 94.9090909,
                "pitch": 65,
                "velocity": 51,
                "duration": 0.1,
                "tempo": 120.0
            },
            {
                "start_time": 94.9272727,
                "end_time": 95.2931818,
                "pitch": 65,
                "velocity": 51,
                "duration": 0.3659091,
                "tempo": 120.0
            },
            {
                "start_time": 95.3090909,
                "end_time": 95.4090909,
                "pitch": 61,
                "velocity": 51,
                "duration": 0.1,
                "tempo": 120.0
            },
            {
                "start_time": 95.4272727,
                "end_time": 95.7931818,
                "pitch": 61,
                "velocity": 51,
                "duration": 0.3659091,
                "tempo": 120.0
            },
            {
                "start_time": 95.8090909,
                "end_time": 95.9090909,
                "pitch": 56,
                "velocity": 51,
                "duration": 0.1,
                "tempo": 120.0
            }
        ],
        "Acoustic Grand Piano": [
            {
                "start_time": 6.2840909,
                "end_time": 6.3840909,
                "pitch": 80,
                "velocity": 51,
                "duration": 0.1,
                "tempo": 120.0
            },
            {
                "start_time": 6.4,
                "end_time": 6.7659091,
                "pitch": 80,
                "velocity": 51,
                "duration": 0.3659091,
                "tempo": 120.0
            },
            {
                "start_time": 6.7840909,
                "end_time": 6.8840909,
                "pitch": 75,
                "velocity": 51,
                "duration": 0.1,
                "tempo": 120.0
            },
            {
                "start_time": 6.9,
                "end_time": 7.2659091,
                "pitch": 75,
                "velocity": 51,
                "duration": 0.3659091,
                "tempo": 120.0
            },
            {
                "start_time": 7.2840909,
                "end_time": 7.3840909,
                "pitch": 72,
                "velocity": 51,
                "duration": 0.1,
                "tempo": 120.0
            },
            {
                "start_time": 7.4,
                "end_time": 7.6340909,
                "pitch": 72,
                "velocity": 51,
                "duration": 0.2340909,
                "tempo": 120.0
            },
            {
                "start_time": 7.65,
                "end_time": 7.8840909,
                "pitch": 68,
                "velocity": 51,
                "duration": 0.2340909,
                "tempo": 120.0
            },
            {
                "start_time": 14.2840909,
                "end_time": 14.3840909,
                "pitch": 84,
                "velocity": 51,
                "duration": 0.1,
                "tempo": 120.0
            },
            {
                "start_time": 14.4,
                "end_time": 14.7659091,
                "pitch": 84,
                "velocity": 51,
                "duration": 0.3659091,
                "tempo": 120.0
            },
            {
                "start_time": 14.7840909,
                "end_time": 14.8840909,
                "pitch": 80,
                "velocity": 51,
                "duration": 0.1,
                "tempo": 120.0
            },
            {
                "start_time": 14.9,
                "end_time": 15.2659091,
                "pitch": 80,
                "velocity": 51,
                "duration": 0.3659091,
                "tempo": 120.0
            },
            {
                "start_time": 15.2840909,
                "end_time": 15.3840909,
                "pitch": 75,
                "velocity": 51,
                "duration": 0.1,
                "tempo": 120.0
            },
            {
                "start_time": 15.4,
                "end_time": 15.6340909,
                "pitch": 75,
                "velocity": 51,
                "duration": 0.2340909,
                "tempo": 120.0
            },
            {
                "start_time": 15.65,
                "end_time": 15.8840909,
                "pitch": 72,
                "velocity": 51,
                "duration": 0.2340909,
                "tempo": 120.0
            },
            {
                "start_time": 22.2840909,
                "end_time": 22.3840909,
                "pitch": 80,
                "velocity": 51,
                "duration": 0.1,
                "tempo": 120.0
            },
            {
                "start_time": 22.4,
                "end_time": 22.7659091,
                "pitch": 80,
                "velocity": 51,
                "duration": 0.3659091,
                "tempo": 120.0
            },
            {
                "start_time": 22.7840909,
                "end_time": 22.8840909,
                "pitch": 75,
                "velocity": 51,
                "duration": 0.1,
                "tempo": 120.0
            },
            {
                "start_time": 22.9,
                "end_time": 23.2659091,
                "pitch": 75,
                "velocity": 51,
                "duration": 0.3659091,
                "tempo": 120.0
            },
            {
                "start_time": 23.2840909,
                "end_time": 23.3840909,
                "pitch": 72,
                "velocity": 51,
                "duration": 0.1,
                "tempo": 120.0
            },
            {
                "start_time": 23.4,
                "end_time": 23.6340909,
                "pitch": 72,
                "velocity": 51,
                "duration": 0.2340909,
                "tempo": 120.0
            },
            {
                "start_time": 23.65,
                "end_time": 23.8840909,
                "pitch": 68,
                "velocity": 51,
                "duration": 0.2340909,
                "tempo": 120.0
            },
            {
                "start_time": 38.2886364,
                "end_time": 38.3886364,
                "pitch": 78,
                "velocity": 51,
                "duration": 0.1,
                "tempo": 120.0
            },
            {
                "start_time": 38.4045455,
                "end_time": 38.7704545,
                "pitch": 78,
                "velocity": 51,
                "duration": 0.3659091,
                "tempo": 120.0
            },
            {
                "start_time": 38.7886364,
                "end_time": 38.8886364,
                "pitch": 75,
                "velocity": 51,
                "duration": 0.1,
                "tempo": 120.0
            },
            {
                "start_time": 38.9045455,
                "end_time": 39.2704545,
                "pitch": 75,
                "velocity": 51,
                "duration": 0.3659091,
                "tempo": 120.0
            },
            {
                "start_time": 39.2886364,
                "end_time": 39.3886364,
                "pitch": 70,
                "velocity": 51,
                "duration": 0.1,
                "tempo": 120.0
            },
            {
                "start_time": 39.4045455,
                "end_time": 39.6386364,
                "pitch": 70,
                "velocity": 51,
                "duration": 0.2340909,
                "tempo": 120.0
            },
            {
                "start_time": 39.6545455,
                "end_time": 39.8886364,
                "pitch": 66,
                "velocity": 51,
                "duration": 0.2340909,
                "tempo": 120.0
            },
            {
                "start_time": 46.2977273,
                "end_time": 46.4,
                "pitch": 77,
                "velocity": 51,
                "duration": 0.1022727,
                "tempo": 120.0
            },
            {
                "start_time": 46.4159091,
                "end_time": 46.7772727,
                "pitch": 77,
                "velocity": 51,
                "duration": 0.3613636,
                "tempo": 120.0
            },
            {
                "start_time": 46.7931818,
                "end_time": 46.8931818,
                "pitch": 73,
                "velocity": 51,
                "duration": 0.1,
                "tempo": 120.0
            },
            {
                "start_time": 46.9090909,
                "end_time": 47.275,
                "pitch": 73,
                "velocity": 51,
                "duration": 0.3659091,
                "tempo": 120.0
            },
            {
                "start_time": 47.2931818,
                "end_time": 47.3931818,
                "pitch": 68,
                "velocity": 51,
                "duration": 0.1,
                "tempo": 120.0
            },
            {
                "start_time": 47.4090909,
                "end_time": 47.6431818,
                "pitch": 68,
                "velocity": 51,
                "duration": 0.2340909,
                "tempo": 120.0
            },
            {
                "start_time": 47.6590909,
                "end_time": 47.8931818,
                "pitch": 65,
                "velocity": 51,
                "duration": 0.2340909,
                "tempo": 120.0
            },
            {
                "start_time": 54.2931818,
                "end_time": 54.3931818,
                "pitch": 80,
                "velocity": 51,
                "duration": 0.1,
                "tempo": 120.0
            },
            {
                "start_time": 54.4090909,
                "end_time": 54.775,
                "pitch": 80,
                "velocity": 51,
                "duration": 0.3659091,
                "tempo": 120.0
            },
            {
                "start_time": 54.7931818,
                "end_time": 54.8931818,
                "pitch": 75,
                "velocity": 51,
                "duration": 0.1,
                "tempo": 120.0
            },
            {
                "start_time": 54.9090909,
                "end_time": 55.275,
                "pitch": 75,
                "velocity": 51,
                "duration": 0.3659091,
                "tempo": 120.0
            },
            {
                "start_time": 55.2931818,
                "end_time": 55.3931818,
                "pitch": 72,
                "velocity": 51,
                "duration": 0.1,
                "tempo": 120.0
            },
            {
                "start_time": 55.4090909,
                "end_time": 55.6431818,
                "pitch": 72,
                "velocity": 51,
                "duration": 0.2340909,
                "tempo": 120.0
            },
            {
                "start_time": 55.6590909,
                "end_time": 55.8931818,
                "pitch": 68,
                "velocity": 51,
                "duration": 0.2340909,
                "tempo": 120.0
            },
            {
                "start_time": 62.2931818,
                "end_time": 62.3931818,
                "pitch": 84,
                "velocity": 51,
                "duration": 0.1,
                "tempo": 120.0
            },
            {
                "start_time": 62.4090909,
                "end_time": 62.775,
                "pitch": 84,
                "velocity": 51,
                "duration": 0.3659091,
                "tempo": 120.0
            },
            {
                "start_time": 62.7931818,
                "end_time": 62.8931818,
                "pitch": 80,
                "velocity": 51,
                "duration": 0.1,
                "tempo": 120.0
            },
            {
                "start_time": 62.9090909,
                "end_time": 63.275,
                "pitch": 80,
                "velocity": 51,
                "duration": 0.3659091,
                "tempo": 120.0
            },
            {
                "start_time": 63.2931818,
                "end_time": 63.3931818,
                "pitch": 75,
                "velocity": 51,
                "duration": 0.1,
                "tempo": 120.0
            },
            {
                "start_time": 63.4090909,
                "end_time": 63.6431818,
                "pitch": 75,
                "velocity": 51,
                "duration": 0.2340909,
                "tempo": 120.0
            },
            {
                "start_time": 63.6590909,
                "end_time": 63.8931818,
                "pitch": 72,
                "velocity": 51,
                "duration": 0.2340909,
                "tempo": 120.0
            },
            {
                "start_time": 70.2931818,
                "end_time": 70.3931818,
                "pitch": 80,
                "velocity": 51,
                "duration": 0.1,
                "tempo": 120.0
            },
            {
                "start_time": 70.4090909,
                "end_time": 70.775,
                "pitch": 80,
                "velocity": 51,
                "duration": 0.3659091,
                "tempo": 120.0
            },
            {
                "start_time": 70.7931818,
                "end_time": 70.8931818,
                "pitch": 75,
                "velocity": 51,
                "duration": 0.1,
                "tempo": 120.0
            },
            {
                "start_time": 70.9090909,
                "end_time": 71.275,
                "pitch": 75,
                "velocity": 51,
                "duration": 0.3659091,
                "tempo": 120.0
            },
            {
                "start_time": 71.2931818,
                "end_time": 71.3931818,
                "pitch": 72,
                "velocity": 51,
                "duration": 0.1,
                "tempo": 120.0
            },
            {
                "start_time": 71.4090909,
                "end_time": 71.6431818,
                "pitch": 72,
                "velocity": 51,
                "duration": 0.2340909,
                "tempo": 120.0
            },
            {
                "start_time": 71.6590909,
                "end_time": 71.8931818,
                "pitch": 68,
                "velocity": 51,
                "duration": 0.2340909,
                "tempo": 120.0
            },
            {
                "start_time": 95.9272727,
                "end_time": 96.2931818,
                "pitch": 58,
                "velocity": 51,
                "duration": 0.3659091,
                "tempo": 120.0
            },
            {
                "start_time": 96.3090909,
                "end_time": 96.6590909,
                "pitch": 58,
                "velocity": 51,
                "duration": 0.35,
                "tempo": 120.0
            },
            {
                "start_time": 96.6772727,
                "end_time": 96.9090909,
                "pitch": 58,
                "velocity": 51,
                "duration": 0.2318182,
                "tempo": 120.0
            },
            {
                "start_time": 96.9272727,
                "end_time": 97.2931818,
                "pitch": 56,
                "velocity": 51,
                "duration": 0.3659091,
                "tempo": 120.0
            },
            {
                "start_time": 97.3090909,
                "end_time": 97.6590909,
                "pitch": 56,
                "velocity": 51,
                "duration": 0.35,
                "tempo": 120.0
            },
            {
                "start_time": 97.6772727,
                "end_time": 97.9090909,
                "pitch": 56,
                "velocity": 51,
                "duration": 0.2318182,
                "tempo": 120.0
            },
            {
                "start_time": 97.9272727,
                "end_time": 98.2931818,
                "pitch": 58,
                "velocity": 51,
                "duration": 0.3659091,
                "tempo": 120.0
            },
            {
                "start_time": 98.3090909,
                "end_time": 98.6590909,
                "pitch": 58,
                "velocity": 51,
                "duration": 0.35,
                "tempo": 120.0
            },
            {
                "start_time": 98.6772727,
                "end_time": 98.9090909,
                "pitch": 58,
                "velocity": 51,
                "duration": 0.2318182,
                "tempo": 120.0
            },
            {
                "start_time": 98.9272727,
                "end_time": 99.2931818,
                "pitch": 58,
                "velocity": 51,
                "duration": 0.3659091,
                "tempo": 120.0
            },
            {
                "start_time": 99.3090909,
                "end_time": 99.6590909,
                "pitch": 58,
                "velocity": 51,
                "duration": 0.35,
                "tempo": 120.0
            },
            {
                "start_time": 99.6772727,
                "end_time": 99.9090909,
                "pitch": 58,
                "velocity": 51,
                "duration": 0.2318182,
                "tempo": 120.0
            },
            {
                "start_time": 99.9272727,
                "end_time": 100.2931818,
                "pitch": 59,
                "velocity": 51,
                "duration": 0.3659091,
                "tempo": 120.0
            },
            {
                "start_time": 100.3090909,
                "end_time": 100.6590909,
                "pitch": 59,
                "velocity": 51,
                "duration": 0.35,
                "tempo": 120.0
            },
            {
                "start_time": 100.6772727,
                "end_time": 100.9090909,
                "pitch": 59,
                "velocity": 51,
                "duration": 0.2318182,
                "tempo": 120.0
            },
            {
                "start_time": 100.9272727,
                "end_time": 101.2931818,
                "pitch": 61,
                "velocity": 51,
                "duration": 0.3659091,
                "tempo": 120.0
            },
            {
                "start_time": 101.3090909,
                "end_time": 101.6590909,
                "pitch": 61,
                "velocity": 51,
                "duration": 0.35,
                "tempo": 120.0
            },
            {
                "start_time": 101.6772727,
                "end_time": 101.9090909,
                "pitch": 61,
                "velocity": 51,
                "duration": 0.2318182,
                "tempo": 120.0
            },
            {
                "start_time": 101.9272727,
                "end_time": 102.2931818,
                "pitch": 63,
                "velocity": 51,
                "duration": 0.3659091,
                "tempo": 120.0
            },
            {
                "start_time": 102.3090909,
                "end_time": 102.6590909,
                "pitch": 63,
                "velocity": 51,
                "duration": 0.35,
                "tempo": 120.0
            },
            {
                "start_time": 102.6772727,
                "end_time": 102.9090909,
                "pitch": 63,
                "velocity": 51,
                "duration": 0.2318182,
                "tempo": 120.0
            },
            {
                "start_time": 102.9272727,
                "end_time": 103.2931818,
                "pitch": 56,
                "velocity": 51,
                "duration": 0.3659091,
                "tempo": 120.0
            },
            {
                "start_time": 103.3090909,
                "end_time": 103.6590909,
                "pitch": 56,
                "velocity": 51,
                "duration": 0.35,
                "tempo": 120.0
            },
            {
                "start_time": 103.6772727,
                "end_time": 103.9090909,
                "pitch": 56,
                "velocity": 51,
                "duration": 0.2318182,
                "tempo": 120.0
            },
            {
                "start_time": 103.9272727,
                "end_time": 104.2931818,
                "pitch": 58,
                "velocity": 51,
                "duration": 0.3659091,
                "tempo": 120.0
            },
            {
                "start_time": 104.3090909,
                "end_time": 104.6590909,
                "pitch": 58,
                "velocity": 51,
                "duration": 0.35,
                "tempo": 120.0
            },
            {
                "start_time": 104.6772727,
                "end_time": 104.9090909,
                "pitch": 58,
                "velocity": 51,
                "duration": 0.2318182,
                "tempo": 120.0
            },
            {
                "start_time": 104.9272727,
                "end_time": 105.2931818,
                "pitch": 56,
                "velocity": 51,
                "duration": 0.3659091,
                "tempo": 120.0
            },
            {
                "start_time": 105.3090909,
                "end_time": 105.6590909,
                "pitch": 56,
                "velocity": 51,
                "duration": 0.35,
                "tempo": 120.0
            },
            {
                "start_time": 105.6772727,
                "end_time": 105.9090909,
                "pitch": 56,
                "velocity": 51,
                "duration": 0.2318182,
                "tempo": 120.0
            },
            {
                "start_time": 105.9272727,
                "end_time": 106.2931818,
                "pitch": 58,
                "velocity": 51,
                "duration": 0.3659091,
                "tempo": 120.0
            },
            {
                "start_time": 106.3090909,
                "end_time": 106.6590909,
                "pitch": 58,
                "velocity": 51,
                "duration": 0.35,
                "tempo": 120.0
            },
            {
                "start_time": 106.6772727,
                "end_time": 106.9090909,
                "pitch": 58,
                "velocity": 51,
                "duration": 0.2318182,
                "tempo": 120.0
            },
            {
                "start_time": 106.9272727,
                "end_time": 107.2931818,
                "pitch": 58,
                "velocity": 51,
                "duration": 0.3659091,
                "tempo": 120.0
            },
            {
                "start_time": 107.3090909,
                "end_time": 107.6590909,
                "pitch": 58,
                "velocity": 51,
                "duration": 0.35,
                "tempo": 120.0
            },
            {
                "start_time": 107.6772727,
                "end_time": 107.9090909,
                "pitch": 58,
                "velocity": 51,
                "duration": 0.2318182,
                "tempo": 120.0
            },
            {
                "start_time": 107.9272727,
                "end_time": 108.2931818,
                "pitch": 59,
                "velocity": 51,
                "duration": 0.3659091,
                "tempo": 120.0
            },
            {
                "start_time": 108.3090909,
                "end_time": 108.6590909,
                "pitch": 59,
                "velocity": 51,
                "duration": 0.35,
                "tempo": 120.0
            },
            {
                "start_time": 108.6772727,
                "end_time": 108.9090909,
                "pitch": 59,
                "velocity": 51,
                "duration": 0.2318182,
                "tempo": 120.0
            },
            {
                "start_time": 108.9272727,
                "end_time": 109.2931818,
                "pitch": 53,
                "velocity": 51,
                "duration": 0.3659091,
                "tempo": 120.0
            },
            {
                "start_time": 109.3090909,
                "end_time": 109.6590909,
                "pitch": 53,
                "velocity": 51,
                "duration": 0.35,
                "tempo": 120.0
            },
            {
                "start_time": 109.6772727,
                "end_time": 109.9090909,
                "pitch": 53,
                "velocity": 51,
                "duration": 0.2318182,
                "tempo": 120.0
            },
            {
                "start_time": 109.9272727,
                "end_time": 110.2931818,
                "pitch": 58,
                "velocity": 51,
                "duration": 0.3659091,
                "tempo": 120.0
            },
            {
                "start_time": 110.3090909,
                "end_time": 110.6590909,
                "pitch": 58,
                "velocity": 51,
                "duration": 0.35,
                "tempo": 120.0
            },
            {
                "start_time": 110.6772727,
                "end_time": 110.9090909,
                "pitch": 58,
                "velocity": 51,
                "duration": 0.2318182,
                "tempo": 120.0
            },
            {
                "start_time": 110.9272727,
                "end_time": 111.2931818,
                "pitch": 58,
                "velocity": 51,
                "duration": 0.3659091,
                "tempo": 120.0
            },
            {
                "start_time": 111.3090909,
                "end_time": 111.6590909,
                "pitch": 58,
                "velocity": 51,
                "duration": 0.35,
                "tempo": 120.0
            },
            {
                "start_time": 111.6772727,
                "end_time": 111.9090909,
                "pitch": 58,
                "velocity": 51,
                "duration": 0.2318182,
                "tempo": 120.0
            },
            {
                "start_time": 111.9272727,
                "end_time": 112.2931818,
                "pitch": 58,
                "velocity": 51,
                "duration": 0.3659091,
                "tempo": 120.0
            },
            {
                "start_time": 112.3090909,
                "end_time": 112.6590909,
                "pitch": 58,
                "velocity": 51,
                "duration": 0.35,
                "tempo": 120.0
            },
            {
                "start_time": 112.6772727,
                "end_time": 112.9090909,
                "pitch": 58,
                "velocity": 51,
                "duration": 0.2318182,
                "tempo": 120.0
            },
            {
                "start_time": 112.9272727,
                "end_time": 113.2931818,
                "pitch": 58,
                "velocity": 51,
                "duration": 0.3659091,
                "tempo": 120.0
            },
            {
                "start_time": 113.3090909,
                "end_time": 113.6590909,
                "pitch": 58,
                "velocity": 51,
                "duration": 0.35,
                "tempo": 120.0
            },
            {
                "start_time": 113.6772727,
                "end_time": 113.9090909,
                "pitch": 58,
                "velocity": 51,
                "duration": 0.2318182,
                "tempo": 120.0
            },
            {
                "start_time": 113.9272727,
                "end_time": 114.2931818,
                "pitch": 58,
                "velocity": 51,
                "duration": 0.3659091,
                "tempo": 120.0
            },
            {
                "start_time": 114.3090909,
                "end_time": 114.6590909,
                "pitch": 58,
                "velocity": 51,
                "duration": 0.35,
                "tempo": 120.0
            },
            {
                "start_time": 114.6772727,
                "end_time": 114.9090909,
                "pitch": 58,
                "velocity": 51,
                "duration": 0.2318182,
                "tempo": 120.0
            },
            {
                "start_time": 114.9272727,
                "end_time": 115.2931818,
                "pitch": 58,
                "velocity": 51,
                "duration": 0.3659091,
                "tempo": 120.0
            },
            {
                "start_time": 115.3090909,
                "end_time": 115.6590909,
                "pitch": 58,
                "velocity": 51,
                "duration": 0.35,
                "tempo": 120.0
            },
            {
                "start_time": 115.6772727,
                "end_time": 115.9090909,
                "pitch": 58,
                "velocity": 51,
                "duration": 0.2318182,
                "tempo": 120.0
            },
            {
                "start_time": 115.9272727,
                "end_time": 116.2931818,
                "pitch": 58,
                "velocity": 51,
                "duration": 0.3659091,
                "tempo": 120.0
            },
            {
                "start_time": 116.3090909,
                "end_time": 116.6590909,
                "pitch": 58,
                "velocity": 51,
                "duration": 0.35,
                "tempo": 120.0
            },
            {
                "start_time": 116.6772727,
                "end_time": 116.9090909,
                "pitch": 58,
                "velocity": 51,
                "duration": 0.2318182,
                "tempo": 120.0
            },
            {
                "start_time": 116.9272727,
                "end_time": 117.2931818,
                "pitch": 58,
                "velocity": 51,
                "duration": 0.3659091,
                "tempo": 120.0
            },
            {
                "start_time": 117.3090909,
                "end_time": 117.6590909,
                "pitch": 58,
                "velocity": 51,
                "duration": 0.35,
                "tempo": 120.0
            },
            {
                "start_time": 117.6772727,
                "end_time": 117.9090909,
                "pitch": 58,
                "velocity": 51,
                "duration": 0.2318182,
                "tempo": 120.0
            },
            {
                "start_time": 117.9272727,
                "end_time": 118.2931818,
                "pitch": 56,
                "velocity": 51,
                "duration": 0.3659091,
                "tempo": 120.0
            },
            {
                "start_time": 118.3090909,
                "end_time": 118.6590909,
                "pitch": 56,
                "velocity": 51,
                "duration": 0.35,
                "tempo": 120.0
            },
            {
                "start_time": 118.6772727,
                "end_time": 118.9090909,
                "pitch": 56,
                "velocity": 51,
                "duration": 0.2318182,
                "tempo": 120.0
            },
            {
                "start_time": 118.9272727,
                "end_time": 119.2931818,
                "pitch": 56,
                "velocity": 51,
                "duration": 0.3659091,
                "tempo": 120.0
            },
            {
                "start_time": 119.3090909,
                "end_time": 119.6590909,
                "pitch": 56,
                "velocity": 51,
                "duration": 0.35,
                "tempo": 120.0
            },
            {
                "start_time": 119.6772727,
                "end_time": 119.9090909,
                "pitch": 56,
                "velocity": 51,
                "duration": 0.2318182,
                "tempo": 120.0
            },
            {
                "start_time": 119.9272727,
                "end_time": 120.2931818,
                "pitch": 54,
                "velocity": 51,
                "duration": 0.3659091,
                "tempo": 120.0
            },
            {
                "start_time": 120.3090909,
                "end_time": 120.6590909,
                "pitch": 54,
                "velocity": 51,
                "duration": 0.35,
                "tempo": 120.0
            },
            {
                "start_time": 120.6772727,
                "end_time": 120.9090909,
                "pitch": 54,
                "velocity": 51,
                "duration": 0.2318182,
                "tempo": 120.0
            },
            {
                "start_time": 120.9272727,
                "end_time": 121.2931818,
                "pitch": 54,
                "velocity": 51,
                "duration": 0.3659091,
                "tempo": 120.0
            },
            {
                "start_time": 121.3090909,
                "end_time": 121.6590909,
                "pitch": 54,
                "velocity": 51,
                "duration": 0.35,
                "tempo": 120.0
            },
            {
                "start_time": 121.6772727,
                "end_time": 121.9090909,
                "pitch": 54,
                "velocity": 51,
                "duration": 0.2318182,
                "tempo": 120.0
            },
            {
                "start_time": 121.9272727,
                "end_time": 122.2931818,
                "pitch": 54,
                "velocity": 51,
                "duration": 0.3659091,
                "tempo": 120.0
            },
            {
                "start_time": 122.3090909,
                "end_time": 122.6590909,
                "pitch": 54,
                "velocity": 51,
                "duration": 0.35,
                "tempo": 120.0
            },
            {
                "start_time": 122.6772727,
                "end_time": 122.9090909,
                "pitch": 54,
                "velocity": 51,
                "duration": 0.2318182,
                "tempo": 120.0
            },
            {
                "start_time": 122.9272727,
                "end_time": 123.2931818,
                "pitch": 54,
                "velocity": 51,
                "duration": 0.3659091,
                "tempo": 120.0
            },
            {
                "start_time": 123.3090909,
                "end_time": 123.6590909,
                "pitch": 54,
                "velocity": 51,
                "duration": 0.35,
                "tempo": 120.0
            },
            {
                "start_time": 123.6772727,
                "end_time": 123.9090909,
                "pitch": 54,
                "velocity": 51,
                "duration": 0.2318182,
                "tempo": 120.0
            },
            {
                "start_time": 123.9272727,
                "end_time": 124.2931818,
                "pitch": 53,
                "velocity": 51,
                "duration": 0.3659091,
                "tempo": 120.0
            },
            {
                "start_time": 124.3090909,
                "end_time": 124.6590909,
                "pitch": 53,
                "velocity": 51,
                "duration": 0.35,
                "tempo": 120.0
            },
            {
                "start_time": 124.6772727,
                "end_time": 124.9090909,
                "pitch": 53,
                "velocity": 51,
                "duration": 0.2318182,
                "tempo": 120.0
            },
            {
                "start_time": 124.9272727,
                "end_time": 125.2931818,
                "pitch": 53,
                "velocity": 51,
                "duration": 0.3659091,
                "tempo": 120.0
            },
            {
                "start_time": 125.3090909,
                "end_time": 125.6590909,
                "pitch": 53,
                "velocity": 51,
                "duration": 0.35,
                "tempo": 120.0
            },
            {
                "start_time": 125.6772727,
                "end_time": 125.9090909,
                "pitch": 53,
                "velocity": 51,
                "duration": 0.2318182,
                "tempo": 120.0
            }
        ],
        "Violin": [
            {
                "start_time": 95.9272727,
                "end_time": 96.9090909,
                "pitch": 78,
                "velocity": 64,
                "duration": 0.9818182,
                "tempo": 120.0
            },
            {
                "start_time": 96.9272727,
                "end_time": 97.6590909,
                "pitch": 80,
                "velocity": 64,
                "duration": 0.7318182,
                "tempo": 120.0
            },
            {
                "start_time": 97.6772727,
                "end_time": 97.9090909,
                "pitch": 85,
                "velocity": 64,
                "duration": 0.2318182,
                "tempo": 120.0
            },
            {
                "start_time": 97.9272727,
                "end_time": 98.9090909,
                "pitch": 90,
                "velocity": 64,
                "duration": 0.9818182,
                "tempo": 120.0
            },
            {
                "start_time": 98.9272727,
                "end_time": 99.9090909,
                "pitch": 78,
                "velocity": 64,
                "duration": 0.9818182,
                "tempo": 120.0
            },
            {
                "start_time": 99.9272727,
                "end_time": 100.9090909,
                "pitch": 83,
                "velocity": 64,
                "duration": 0.9818182,
                "tempo": 120.0
            },
            {
                "start_time": 100.9272727,
                "end_time": 101.6590909,
                "pitch": 82,
                "velocity": 64,
                "duration": 0.7318182,
                "tempo": 120.0
            },
            {
                "start_time": 101.6772727,
                "end_time": 101.9090909,
                "pitch": 85,
                "velocity": 64,
                "duration": 0.2318182,
                "tempo": 120.0
            },
            {
                "start_time": 101.9272727,
                "end_time": 103.6590909,
                "pitch": 83,
                "velocity": 64,
                "duration": 1.7318182,
                "tempo": 120.0
            },
            {
                "start_time": 103.6772727,
                "end_time": 103.9090909,
                "pitch": 80,
                "velocity": 64,
                "duration": 0.2318182,
                "tempo": 120.0
            },
            {
                "start_time": 103.9272727,
                "end_time": 105.4090909,
                "pitch": 82,
                "velocity": 64,
                "duration": 1.4818182,
                "tempo": 120.0
            },
            {
                "start_time": 105.4272727,
                "end_time": 105.5772727,
                "pitch": 82,
                "velocity": 64,
                "duration": 0.15,
                "tempo": 120.0
            },
            {
                "start_time": 105.5931818,
                "end_time": 105.7431818,
                "pitch": 83,
                "velocity": 64,
                "duration": 0.15,
                "tempo": 120.0
            },
            {
                "start_time": 105.7590909,
                "end_time": 105.9090909,
                "pitch": 85,
                "velocity": 64,
                "duration": 0.15,
                "tempo": 120.0
            },
            {
                "start_time": 105.9272727,
                "end_time": 106.9090909,
                "pitch": 90,
                "velocity": 64,
                "duration": 0.9818182,
                "tempo": 120.0
            },
            {
                "start_time": 106.9272727,
                "end_time": 107.9090909,
                "pitch": 78,
                "velocity": 64,
                "duration": 0.9818182,
                "tempo": 120.0
            },
            {
                "start_time": 107.9272727,
                "end_time": 108.9090909,
                "pitch": 83,
                "velocity": 64,
                "duration": 0.9818182,
                "tempo": 120.0
            },
            {
                "start_time": 108.9272727,
                "end_time": 109.4090909,
                "pitch": 85,
                "velocity": 64,
                "duration": 0.4818182,
                "tempo": 120.0
            },
            {
                "start_time": 109.4272727,
                "end_time": 109.9090909,
                "pitch": 83,
                "velocity": 64,
                "duration": 0.4818182,
                "tempo": 120.0
            },
            {
                "start_time": 109.9272727,
                "end_time": 111.9090909,
                "pitch": 82,
                "velocity": 64,
                "duration": 1.9818182,
                "tempo": 120.0
            },
            {
                "start_time": 111.9272727,
                "end_time": 112.9090909,
                "pitch": 82,
                "velocity": 64,
                "duration": 0.9818182,
                "tempo": 120.0
            },
            {
                "start_time": 112.9272727,
                "end_time": 113.6590909,
                "pitch": 77,
                "velocity": 64,
                "duration": 0.7318182,
                "tempo": 120.0
            },
            {
                "start_time": 113.6772727,
                "end_time": 113.9090909,
                "pitch": 78,
                "velocity": 64,
                "duration": 0.2318182,
                "tempo": 120.0
            },
            {
                "start_time": 113.9272727,
                "end_time": 115.9090909,
                "pitch": 87,
                "velocity": 64,
                "duration": 1.9818182,
                "tempo": 120.0
            },
            {
                "start_time": 115.9272727,
                "end_time": 116.9090909,
                "pitch": 92,
                "velocity": 64,
                "duration": 0.9818182,
                "tempo": 120.0
            },
            {
                "start_time": 116.9272727,
                "end_time": 117.6590909,
                "pitch": 87,
                "velocity": 64,
                "duration": 0.7318182,
                "tempo": 120.0
            },
            {
                "start_time": 117.6772727,
                "end_time": 117.9090909,
                "pitch": 90,
                "velocity": 64,
                "duration": 0.2318182,
                "tempo": 120.0
            },
            {
                "start_time": 117.9272727,
                "end_time": 119.9090909,
                "pitch": 89,
                "velocity": 64,
                "duration": 1.9818182,
                "tempo": 120.0
            },
            {
                "start_time": 119.9272727,
                "end_time": 120.6590909,
                "pitch": 82,
                "velocity": 64,
                "duration": 0.7318182,
                "tempo": 120.0
            },
            {
                "start_time": 120.6772727,
                "end_time": 120.9090909,
                "pitch": 82,
                "velocity": 64,
                "duration": 0.2318182,
                "tempo": 120.0
            },
            {
                "start_time": 120.9272727,
                "end_time": 121.6590909,
                "pitch": 82,
                "velocity": 64,
                "duration": 0.7318182,
                "tempo": 120.0
            },
            {
                "start_time": 121.6772727,
                "end_time": 121.9090909,
                "pitch": 82,
                "velocity": 64,
                "duration": 0.2318182,
                "tempo": 120.0
            },
            {
                "start_time": 121.9272727,
                "end_time": 122.6590909,
                "pitch": 82,
                "velocity": 64,
                "duration": 0.7318182,
                "tempo": 120.0
            },
            {
                "start_time": 122.6772727,
                "end_time": 122.9090909,
                "pitch": 82,
                "velocity": 64,
                "duration": 0.2318182,
                "tempo": 120.0
            },
            {
                "start_time": 122.9272727,
                "end_time": 123.9090909,
                "pitch": 90,
                "velocity": 64,
                "duration": 0.9818182,
                "tempo": 120.0
            },
            {
                "start_time": 123.9272727,
                "end_time": 124.9090909,
                "pitch": 89,
                "velocity": 64,
                "duration": 0.9818182,
                "tempo": 120.0
            },
            {
                "start_time": 124.9272727,
                "end_time": 125.9090909,
                "pitch": 85,
                "velocity": 64,
                "duration": 0.9818182,
                "tempo": 120.0
            }
        ]
    }
}