{
    "mood": "relaxed",
    "instruments": {
        "Trumpet": [
            {
                "start_time": 0.0,
                "end_time": 1.1840909,
                "pitch": 68,
                "velocity": 80,
                "duration": 1.1840909,
                "tempo": 120.0
            },
            {
                "start_time": 1.2,
                "end_time": 1.9863636,
                "pitch": 67,
                "velocity": 80,
                "duration": 0.7863636,
                "tempo": 120.0
            },
            {
                "start_time": 2.0022727,
                "end_time": 2.1863636,
                "pitch": 63,
                "velocity": 80,
                "duration": 0.1840909,
                "tempo": 120.0
            },
            {
                "start_time": 2.2022727,
                "end_time": 2.3863636,
                "pitch": 65,
                "velocity": 80,
                "duration": 0.1840909,
                "tempo": 120.0
            },
            {
                "start_time": 2.4022727,
                "end_time": 3.5886364,
                "pitch": 67,
                "velocity": 80,
                "duration": 1.1863636,
                "tempo": 120.0
            },
            {
                "start_time": 3.6045455,
                "end_time": 4.7909091,
                "pitch": 61,
                "velocity": 80,
                "duration": 1.1863636,
                "tempo": 120.0
            },
            {
                "start_time": 4.8090909,
                "end_time": 5.5931818,
                "pitch": 63,
                "velocity": 80,
                "duration": 0.7840909,
                "tempo": 120.0
            },
            {
                "start_time": 5.6113636,
                "end_time": 5.9931818,
                "pitch": 67,
                "velocity": 80,
                "duration": 0.3818182,
                "tempo": 120.0
            },
            {
                "start_time": 6.0113636,
                "end_time": 6.8,
                "pitch": 65,
                "velocity": 80,
                "duration": 0.7886364,
                "tempo": 120.0
            },
            {
                "start_time": 6.8159091,
                "end_time": 7.2,
                "pitch": 63,
                "velocity": 80,
                "duration": 0.3840909,
                "tempo": 120.0
            },
            {
                "start_time": 7.2159091,
                "end_time": 8.0022727,
                "pitch": 60,
                "velocity": 80,
                "duration": 0.7863636,
                "tempo": 120.0
            },
            {
                "start_time": 8.0181818,
                "end_time": 8.2022727,
                "pitch": 60,
                "velocity": 80,
                "duration": 0.1840909,
                "tempo": 120.0
            },
            {
                "start_time": 8.2204545,
                "end_time": 8.4045455,
                "pitch": 61,
                "velocity": 80,
                "duration": 0.1840909,
                "tempo": 120.0
            },
            {
                "start_time": 8.4204545,
                "end_time": 9.6090909,
                "pitch": 63,
                "velocity": 80,
                "duration": 1.1886364,
                "tempo": 120.0
            },
            {
                "start_time": 9.6272727,
                "end_time": 10.8181818,
                "pitch": 68,
                "velocity": 80,
                "duration": 1.1909091,
                "tempo": 120.0
            },
            {
                "start_time": 10.8340909,
                "end_time": 11.6204545,
                "pitch": 67,
                "velocity": 80,
                "duration": 0.7863636,
                "tempo": 120.0
            },
            {
                "start_time": 11.6386364,
                "end_time": 11.8227273,
                "pitch": 63,
                "velocity": 80,
                "duration": 0.1840909,
                "tempo": 120.0
            },
            {
                "start_time": 11.8386364,
                "end_time": 12.0227273,
                "pitch": 65,
                "velocity": 80,
                "duration": 0.1840909,
                "tempo": 120.0
            },
            {
                "start_time": 12.0409091,
                "end_time": 12.8295455,
                "pitch": 67,
                "velocity": 80,
                "duration": 0.7886364,
                "tempo": 120.0
            },
            {
                "start_time": 12.8454545,
                "end_time": 13.2318182,
                "pitch": 61,
                "velocity": 80,
                "duration": 0.3863636,
                "tempo": 120.0
            },
            {
                "start_time": 13.2477273,
                "end_time": 14.4363636,
                "pitch": 61,
                "velocity": 80,
                "duration": 1.1886364,
                "tempo": 120.0
            },
            {
                "start_time": 14.4545455,
                "end_time": 15.2431818,
                "pitch": 63,
                "velocity": 80,
                "duration": 0.7886364,
                "tempo": 120.0
            },
            {
                "start_time": 15.2590909,
                "end_time": 15.6431818,
                "pitch": 67,
                "velocity": 80,
                "duration": 0.3840909,
                "tempo": 120.0
            },
            {
                "start_time": 15.6590909,
                "end_time": 16.4477273,
                "pitch": 70,
                "velocity": 80,
                "duration": 0.7886364,
                "tempo": 120.0
            },
            {
                "start_time": 16.4636364,
                "end_time": 16.8477273,
                "pitch": 65,
                "velocity": 80,
                "duration": 0.3840909,
                "tempo": 120.0
            },
            {
                "start_time": 16.8636364,
                "end_time": 18.0522727,
                "pitch": 68,
                "velocity": 80,
                "duration": 1.1886364,
                "tempo": 120.0
            }
        ],
        "Harpsichord": [
            {
                "start_time": 0.0,
                "end_time": 1.6840909,
                "pitch": 72,
                "velocity": 80,
                "duration": 1.6840909,
                "tempo": 120.0
            },
            {
                "start_time": 4.0045455,
                "end_time": 4.3886364,
                "pitch": 70,
                "velocity": 80,
                "duration": 0.3840909,
                "tempo": 120.0
            },
            {
                "start_time": 4.4045455,
                "end_time": 4.7909091,
                "pitch": 72,
                "velocity": 80,
                "duration": 0.3863636,
                "tempo": 120.0
            },
            {
                "start_time": 4.8090909,
                "end_time": 6.8,
                "pitch": 73,
                "velocity": 80,
                "duration": 1.9909091,
                "tempo": 120.0
            },
            {
                "start_time": 8.825,
                "end_time": 9.2090909,
                "pitch": 73,
                "velocity": 80,
                "duration": 0.3840909,
                "tempo": 120.0
            },
            {
                "start_time": 9.2272727,
                "end_time": 9.6090909,
                "pitch": 72,
                "velocity": 80,
                "duration": 0.3818182,
                "tempo": 120.0
            },
            {
                "start_time": 9.6272727,
                "end_time": 10.8181818,
                "pitch": 72,
                "velocity": 80,
                "duration": 1.1909091,
                "tempo": 120.0
            },
            {
                "start_time": 10.8340909,
                "end_time": 12.0227273,
                "pitch": 70,
                "velocity": 80,
                "duration": 1.1886364,
                "tempo": 120.0
            },
            {
                "start_time": 12.0409091,
                "end_time": 13.2318182,
                "pitch": 67,
                "velocity": 80,
                "duration": 1.1909091,
                "tempo": 120.0
            },
            {
                "start_time": 13.2477273,
                "end_time": 14.4363636,
                "pitch": 68,
                "velocity": 80,
                "duration": 1.1886364,
                "tempo": 120.0
            },
            {
                "start_time": 14.4545455,
                "end_time": 15.6431818,
                "pitch": 72,
                "velocity": 80,
                "duration": 1.1886364,
                "tempo": 120.0
            },
            {
                "start_time": 15.6590909,
                "end_time": 16.8477273,
                "pitch": 73,
                "velocity": 80,
                "duration": 1.1886364,
                "tempo": 120.0
            },
            {
                "start_time": 16.8636364,
                "end_time": 18.0204545,
                "pitch": 72,
                "velocity": 80,
                "duration": 1.1568182,
                "tempo": 120.0
            }
        ],
        "Church Organ": [
            {
                "start_time": 0.0,
                "end_time": 0.3840909,
                "pitch": 44,
                "velocity": 51,
                "duration": 0.3840909,
                "tempo": 120.0
            },
            {
                "start_time": 0.4,
                "end_time": 0.7840909,
                "pitch": 44,
                "velocity": 51,
                "duration": 0.3840909,
                "tempo": 120.0
            },
            {
                "start_time": 1.2,
                "end_time": 1.9863636,
                "pitch": 44,
                "velocity": 51,
                "duration": 0.7863636,
                "tempo": 120.0
            },
            {
                "start_time": 2.0022727,
                "end_time": 2.3863636,
                "pitch": 39,
                "velocity": 51,
                "duration": 0.3840909,
                "tempo": 120.0
            },
            {
                "start_time": 2.4022727,
                "end_time": 2.7863636,
                "pitch": 37,
                "velocity": 51,
                "duration": 0.3840909,
                "tempo": 120.0
            },
            {
                "start_time": 3.2022727,
                "end_time": 3.5886364,
                "pitch": 37,
                "velocity": 51,
                "duration": 0.3863636,
                "tempo": 120.0
            },
            {
                "start_time": 3.6045455,
                "end_time": 3.9886364,
                "pitch": 37,
                "velocity": 51,
                "duration": 0.3840909,
                "tempo": 120.0
            },
            {
                "start_time": 4.8090909,
                "end_time": 5.1909091,
                "pitch": 39,
                "velocity": 51,
                "duration": 0.3818182,
                "tempo": 120.0
            },
            {
                "start_time": 5.2090909,
                "end_time": 5.5931818,
                "pitch": 39,
                "velocity": 51,
                "duration": 0.3840909,
                "tempo": 120.0
            },
            {
                "start_time": 6.0113636,
                "end_time": 6.3977273,
                "pitch": 39,
                "velocity": 51,
                "duration": 0.3863636,
                "tempo": 120.0
            },
            {
                "start_time": 6.4136364,
                "end_time": 6.8,
                "pitch": 39,
                "velocity": 51,
                "duration": 0.3863636,
                "tempo": 120.0
            },
            {
                "start_time": 7.2159091,
                "end_time": 7.6022727,
                "pitch": 36,
                "velocity": 51,
                "duration": 0.3863636,
                "tempo": 120.0
            },
            {
                "start_time": 7.6181818,
                "end_time": 8.0022727,
                "pitch": 36,
                "velocity": 51,
                "duration": 0.3840909,
                "tempo": 120.0
            },
            {
                "start_time": 8.4204545,
                "end_time": 8.8068182,
                "pitch": 39,
                "velocity": 51,
                "duration": 0.3863636,
                "tempo": 120.0
            },
            {
                "start_time": 8.825,
                "end_time": 9.6090909,
                "pitch": 39,
                "velocity": 51,
                "duration": 0.7840909,
                "tempo": 120.0
            },
            {
                "start_time": 9.6272727,
                "end_time": 10.0136364,
                "pitch": 44,
                "velocity": 51,
                "duration": 0.3863636,
                "tempo": 120.0
            },
            {
                "start_time": 10.0295455,
                "end_time": 10.4159091,
                "pitch": 44,
                "velocity": 51,
                "duration": 0.3863636,
                "tempo": 120.0
            },
            {
                "start_time": 10.8340909,
                "end_time": 11.6204545,
                "pitch": 44,
                "velocity": 51,
                "duration": 0.7863636,
                "tempo": 120.0
            },
            {
                "start_time": 11.6386364,
                "end_time": 12.0227273,
                "pitch": 39,
                "velocity": 51,
                "duration": 0.3840909,
                "tempo": 120.0
            },
            {
                "start_time": 12.0409091,
                "end_time": 12.4272727,
                "pitch": 37,
                "velocity": 51,
                "duration": 0.3863636,
                "tempo": 120.0
            },
            {
                "start_time": 12.8454545,
                "end_time": 13.2318182,
                "pitch": 37,
                "velocity": 51,
                "duration": 0.3863636,
                "tempo": 120.0
            },
            {
                "start_time": 13.2477273,
                "end_time": 13.6318182,
                "pitch": 37,
                "velocity": 51,
                "duration": 0.3840909,
                "tempo": 120.0
            },
            {
                "start_time": 14.4545455,
                "end_time": 14.8386364,
                "pitch": 39,
                "velocity": 51,
                "duration": 0.3840909,
                "tempo": 120.0
            },
            {
                "start_time": 14.8568182,
                "end_time": 15.2431818,
                "pitch": 39,
                "velocity": 51,
                "duration": 0.3863636,
                "tempo": 120.0
            },
            {
                "start_time": 15.6590909,
                "end_time": 16.0454545,
                "pitch": 39,
                "velocity": 51,
                "duration": 0.3863636,
                "tempo": 120.0
            },
            {
                "start_time": 16.0613636,
                "end_time": 16.4477273,
                "pitch": 39,
                "velocity": 51,
                "duration": 0.3863636,
                "tempo": 120.0
            },
            {
                "start_time": 16.4636364,
                "end_time": 16.6477273,
                "pitch": 39,
                "velocity": 51,
                "duration": 0.1840909,
                "tempo": 120.0
            },
            {
                "start_time": 16.6636364,
                "end_time": 16.8477273,
                "pitch": 41,
                "velocity": 51,
                "duration": 0.1840909,
                "tempo": 120.0
            },
            {
                "start_time": 16.8636364,
                "end_time": 17.25,
                "pitch": 44,
                "velocity": 51,
                "duration": 0.3863636,
                "tempo": 120.0
            },
            {
                "start_time": 17.2681818,
                "end_time": 17.65,
                "pitch": 44,
                "velocity": 51,
                "duration": 0.3818182,
                "tempo": 120.0
            },
            {
                "start_time": 17.6681818,
                "end_time": 18.0522727,
                "pitch": 44,
                "velocity": 51,
                "duration": 0.3840909,
                "tempo": 120.0
            },
            {
                "start_time": 18.0704545,
                "end_time": 19.2568182,
                "pitch": 44,
                "velocity": 51,
                "duration": 1.1863636,
                "tempo": 120.0
            }
        ]
    }
}