{
    "mood": "relaxed",
    "instruments": {
        "Harpsichord": [
            {
                "start_time": 0.0090909,
                "end_time": 0.3590909,
                "pitch": 50,
                "velocity": 40,
                "duration": 0.35,
                "tempo": 120.0
            },
            {
                "start_time": 0.375,
                "end_time": 0.7113636,
                "pitch": 55,
                "velocity": 40,
                "duration": 0.3363636,
                "tempo": 120.0
            },
            {
                "start_time": 0.7272727,
                "end_time": 1.0795455,
                "pitch": 57,
                "velocity": 40,
                "duration": 0.3522727,
                "tempo": 120.0
            },
            {
                "start_time": 1.0954545,
                "end_time": 1.4295455,
                "pitch": 61,
                "velocity": 40,
                "duration": 0.3340909,
                "tempo": 120.0
            },
            {
                "start_time": 1.4636364,
                "end_time": 1.8022727,
                "pitch": 62,
                "velocity": 40,
                "duration": 0.3386364,
                "tempo": 120.0
            },
            {
                "start_time": 1.8204545,
                "end_time": 2.175,
                "pitch": 61,
                "velocity": 40,
                "duration": 0.3545455,
                "tempo": 120.0
            },
            {
                "start_time": 2.1909091,
                "end_time": 2.5272727,
                "pitch": 55,
                "velocity": 40,
                "duration": 0.3363636,
                "tempo": 120.0
            },
            {
                "start_time": 2.5431818,
                "end_time": 2.8954545,
                "pitch": 57,
                "velocity": 40,
                "duration": 0.3522727,
                "tempo": 120.0
            },
            {
                "start_time": 2.9113636,
                "end_time": 3.25,
                "pitch": 50,
                "velocity": 40,
                "duration": 0.3386364,
                "tempo": 120.0
            },
            {
                "start_time": 3.2840909,
                "end_time": 3.6227273,
                "pitch": 55,
                "velocity": 40,
                "duration": 0.3386364,
                "tempo": 120.0
            },
            {
                "start_time": 3.6409091,
                "end_time": 3.9863636,
                "pitch": 57,
                "velocity": 40,
                "duration": 0.3454545,
                "tempo": 120.0
            },
            {
                "start_time": 4.0045455,
                "end_time": 4.3340909,
                "pitch": 61,
                "velocity": 40,
                "duration": 0.3295455,
                "tempo": 120.0
            },
            {
                "start_time": 4.3522727,
                "end_time": 4.6977273,
                "pitch": 62,
                "velocity": 40,
                "duration": 0.3454545,
                "tempo": 120.0
            },
            {
                "start_time": 4.7159091,
                "end_time": 5.0454545,
                "pitch": 61,
                "velocity": 40,
                "duration": 0.3295455,
                "tempo": 120.0
            },
            {
                "start_time": 5.0795455,
                "end_time": 5.4181818,
                "pitch": 55,
                "velocity": 40,
                "duration": 0.3386364,
                "tempo": 120.0
            },
            {
                "start_time": 5.4340909,
                "end_time": 5.7909091,
                "pitch": 57,
                "velocity": 40,
                "duration": 0.3568182,
                "tempo": 120.0
            },
            {
                "start_time": 5.8068182,
                "end_time": 6.1454545,
                "pitch": 50,
                "velocity": 40,
                "duration": 0.3386364,
                "tempo": 120.0
            },
            {
                "start_time": 6.1636364,
                "end_time": 6.5181818,
                "pitch": 55,
                "velocity": 40,
                "duration": 0.3545455,
                "tempo": 120.0
            },
            {
                "start_time": 6.5363636,
                "end_time": 6.8659091,
                "pitch": 57,
                "velocity": 40,
                "duration": 0.3295455,
                "tempo": 120.0
            },
            {
                "start_time": 6.9,
                "end_time": 7.2295455,
                "pitch": 61,
                "velocity": 40,
                "duration": 0.3295455,
                "tempo": 120.0
            },
            {
                "start_time": 7.2477273,
                "end_time": 7.5977273,
                "pitch": 62,
                "velocity": 40,
                "duration": 0.35,
                "tempo": 120.0
            },
            {
                "start_time": 7.6136364,
                "end_time": 7.95,
                "pitch": 61,
                "velocity": 40,
                "duration": 0.3363636,
                "tempo": 120.0
            },
            {
                "start_time": 7.9659091,
                "end_time": 8.3181818,
                "pitch": 55,
                "velocity": 40,
                "duration": 0.3522727,
                "tempo": 120.0
            },
            {
                "start_time": 8.3340909,
                "end_time": 8.6681818,
                "pitch": 57,
                "velocity": 40,
                "duration": 0.3340909,
                "tempo": 120.0
            },
            {
                "start_time": 8.7022727,
                "end_time": 9.0409091,
                "pitch": 50,
                "velocity": 40,
                "duration": 0.3386364,
                "tempo": 120.0
            },
            {
                "start_time": 9.0568182,
                "end_time": 9.4136364,
                "pitch": 55,
                "velocity": 40,
                "duration": 0.3568182,
                "tempo": 120.0
            },
            {
                "start_time": 9.4295455,
                "end_time": 9.7659091,
                "pitch": 57,
                "velocity": 40,
                "duration": 0.3363636,
                "tempo": 120.0
            },
            {
                "start_time": 9.7818182,
                "end_time": 10.1340909,
                "pitch": 61,
                "velocity": 40,
                "duration": 0.3522727,
                "tempo": 120.0
            },
            {
                "start_time": 10.15,
                "end_time": 10.4772727,
                "pitch": 62,
                "velocity": 40,
                "duration": 0.3272727,
                "tempo": 120.0
            },
            {
                "start_time": 10.5090909,
                "end_time": 10.8363636,
                "pitch": 61,
                "velocity": 40,
                "duration": 0.3272727,
                "tempo": 120.0
            },
            {
                "start_time": 10.8522727,
                "end_time": 11.2090909,
                "pitch": 55,
                "velocity": 40,
                "duration": 0.3568182,
                "tempo": 120.0
            },
            {
                "start_time": 11.225,
                "end_time": 11.5636364,
                "pitch": 57,
                "velocity": 40,
                "duration": 0.3386364,
                "tempo": 120.0
            },
            {
                "start_time": 11.5818182,
                "end_time": 13.0022727,
                "pitch": 66,
                "velocity": 40,
                "duration": 1.4204545,
                "tempo": 120.0
            }
        ],
        "Oboe": [
            {
                "start_time": 0.0090909,
                "end_time": 0.0590909,
                "pitch": 58,
                "velocity": 40,
                "duration": 0.05,
                "tempo": 120.0
            },
            {
                "start_time": 0.075,
                "end_time": 1.1295455,
                "pitch": 69,
                "velocity": 40,
                "duration": 1.0545455,
                "tempo": 120.0
            },
            {
                "start_time": 1.1613636,
                "end_time": 1.8704545,
                "pitch": 67,
                "velocity": 40,
                "duration": 0.7090909,
                "tempo": 120.0
            },
            {
                "start_time": 1.8863636,
                "end_time": 2.0386364,
                "pitch": 66,
                "velocity": 40,
                "duration": 0.1522727,
                "tempo": 120.0
            },
            {
                "start_time": 2.0727273,
                "end_time": 2.225,
                "pitch": 67,
                "velocity": 40,
                "duration": 0.1522727,
                "tempo": 120.0
            },
            {
                "start_time": 2.2431818,
                "end_time": 2.5931818,
                "pitch": 66,
                "velocity": 40,
                "duration": 0.35,
                "tempo": 120.0
            },
            {
                "start_time": 2.6113636,
                "end_time": 2.9454545,
                "pitch": 62,
                "velocity": 40,
                "duration": 0.3340909,
                "tempo": 120.0
            },
            {
                "start_time": 2.9795455,
                "end_time": 3.3181818,
                "pitch": 66,
                "velocity": 40,
                "duration": 0.3386364,
                "tempo": 120.0
            },
            {
                "start_time": 3.3340909,
                "end_time": 3.6886364,
                "pitch": 67,
                "velocity": 40,
                "duration": 0.3545455,
                "tempo": 120.0
            },
            {
                "start_time": 3.7068182,
                "end_time": 4.0363636,
                "pitch": 69,
                "velocity": 40,
                "duration": 0.3295455,
                "tempo": 120.0
            },
            {
                "start_time": 4.0545455,
                "end_time": 4.4,
                "pitch": 73,
                "velocity": 40,
                "duration": 0.3454545,
                "tempo": 120.0
            },
            {
                "start_time": 4.4181818,
                "end_time": 4.7477273,
                "pitch": 74,
                "velocity": 40,
                "duration": 0.3295455,
                "tempo": 120.0
            },
            {
                "start_time": 4.7818182,
                "end_time": 5.1136364,
                "pitch": 73,
                "velocity": 40,
                "duration": 0.3318182,
                "tempo": 120.0
            },
            {
                "start_time": 5.1295455,
                "end_time": 5.4840909,
                "pitch": 67,
                "velocity": 40,
                "duration": 0.3545455,
                "tempo": 120.0
            },
            {
                "start_time": 5.5022727,
                "end_time": 5.8409091,
                "pitch": 69,
                "velocity": 40,
                "duration": 0.3386364,
                "tempo": 120.0
            },
            {
                "start_time": 5.8568182,
                "end_time": 6.9318182,
                "pitch": 69,
                "velocity": 40,
                "duration": 1.075,
                "tempo": 120.0
            },
            {
                "start_time": 6.95,
                "end_time": 7.6477273,
                "pitch": 67,
                "velocity": 40,
                "duration": 0.6977273,
                "tempo": 120.0
            },
            {
                "start_time": 7.6659091,
                "end_time": 7.8318182,
                "pitch": 66,
                "velocity": 40,
                "duration": 0.1659091,
                "tempo": 120.0
            },
            {
                "start_time": 7.85,
                "end_time": 8.0159091,
                "pitch": 67,
                "velocity": 40,
                "duration": 0.1659091,
                "tempo": 120.0
            },
            {
                "start_time": 8.0340909,
                "end_time": 8.3681818,
                "pitch": 66,
                "velocity": 40,
                "duration": 0.3340909,
                "tempo": 120.0
            },
            {
                "start_time": 8.4022727,
                "end_time": 8.7363636,
                "pitch": 62,
                "velocity": 40,
                "duration": 0.3340909,
                "tempo": 120.0
            },
            {
                "start_time": 8.7522727,
                "end_time": 9.4636364,
                "pitch": 66,
                "velocity": 40,
                "duration": 0.7113636,
                "tempo": 120.0
            },
            {
                "start_time": 9.4818182,
                "end_time": 9.8318182,
                "pitch": 67,
                "velocity": 40,
                "duration": 0.35,
                "tempo": 120.0
            },
            {
                "start_time": 9.85,
                "end_time": 10.5431818,
                "pitch": 69,
                "velocity": 40,
                "duration": 0.6931818,
                "tempo": 120.0
            },
            {
                "start_time": 10.5590909,
                "end_time": 10.9022727,
                "pitch": 73,
                "velocity": 40,
                "duration": 0.3431818,
                "tempo": 120.0
            },
            {
                "start_time": 10.9204545,
                "end_time": 11.6318182,
                "pitch": 74,
                "velocity": 40,
                "duration": 0.7113636,
                "tempo": 120.0
            },
            {
                "start_time": 11.6477273,
                "end_time": 13.0022727,
                "pitch": 69,
                "velocity": 40,
                "duration": 1.3545455,
                "tempo": 120.0
            }
        ]
    }
}