{
    "mood": "relaxed",
    "instruments": {
        "Vibraphone": [
            {
                "start_time": 0.0,
                "end_time": 0.35,
                "pitch": 70,
                "velocity": 80,
                "duration": 0.35,
                "tempo": 120.0
            },
            {
                "start_time": 0.3840909,
                "end_time": 0.7568182,
                "pitch": 65,
                "velocity": 80,
                "duration": 0.3727273,
                "tempo": 120.0
            },
            {
                "start_time": 0.7909091,
                "end_time": 1.1613636,
                "pitch": 70,
                "velocity": 80,
                "duration": 0.3704545,
                "tempo": 120.0
            },
            {
                "start_time": 1.1954545,
                "end_time": 1.5659091,
                "pitch": 72,
                "velocity": 80,
                "duration": 0.3704545,
                "tempo": 120.0
            },
            {
                "start_time": 1.6,
                "end_time": 1.9704545,
                "pitch": 74,
                "velocity": 80,
                "duration": 0.3704545,
                "tempo": 120.0
            },
            {
                "start_time": 2.0045455,
                "end_time": 2.3772727,
                "pitch": 70,
                "velocity": 80,
                "duration": 0.3727273,
                "tempo": 120.0
            },
            {
                "start_time": 2.4090909,
                "end_time": 2.7818182,
                "pitch": 74,
                "velocity": 80,
                "duration": 0.3727273,
                "tempo": 120.0
            },
            {
                "start_time": 2.8159091,
                "end_time": 3.1863636,
                "pitch": 77,
                "velocity": 80,
                "duration": 0.3704545,
                "tempo": 120.0
            },
            {
                "start_time": 3.2204545,
                "end_time": 3.7272727,
                "pitch": 81,
                "velocity": 80,
                "duration": 0.5068182,
                "tempo": 120.0
            },
            {
                "start_time": 3.7613636,
                "end_time": 4.2659091,
                "pitch": 76,
                "velocity": 80,
                "duration": 0.5045455,
                "tempo": 120.0
            },
            {
                "start_time": 4.3,
                "end_time": 4.9431818,
                "pitch": 74,
                "velocity": 80,
                "duration": 0.6431818,
                "tempo": 120.0
            },
            {
                "start_time": 4.9772727,
                "end_time": 5.6363636,
                "pitch": 71,
                "velocity": 80,
                "duration": 0.6590909,
                "tempo": 120.0
            },
            {
                "start_time": 5.6704545,
                "end_time": 7.7681818,
                "pitch": 73,
                "velocity": 80,
                "duration": 2.0977273,
                "tempo": 120.0
            }
        ],
        "Acoustic Bass": [
            {
                "start_time": 0.0,
                "end_time": 3.1863636,
                "pitch": 31,
                "velocity": 80,
                "duration": 3.1863636,
                "tempo": 120.0
            },
            {
                "start_time": 3.2204545,
                "end_time": 7.7681818,
                "pitch": 33,
                "velocity": 80,
                "duration": 4.5477273,
                "tempo": 120.0
            }
        ],
        "Flute": [
            {
                "start_time": 0.0159091,
                "end_time": 1.5659091,
                "pitch": 50,
                "velocity": 51,
                "duration": 1.55,
                "tempo": 120.0
            },
            {
                "start_time": 1.6,
                "end_time": 3.1863636,
                "pitch": 58,
                "velocity": 51,
                "duration": 1.5863636,
                "tempo": 120.0
            },
            {
                "start_time": 3.2204545,
                "end_time": 7.7681818,
                "pitch": 52,
                "velocity": 51,
                "duration": 4.5477273,
                "tempo": 120.0
            }
        ],
        "Trumpet": [
            {
                "start_time": 0.0159091,
                "end_time": 1.5659091,
                "pitch": 58,
                "velocity": 51,
                "duration": 1.55,
                "tempo": 120.0
            },
            {
                "start_time": 1.6,
                "end_time": 3.1863636,
                "pitch": 62,
                "velocity": 51,
                "duration": 1.5863636,
                "tempo": 120.0
            },
            {
                "start_time": 3.2204545,
                "end_time": 7.7681818,
                "pitch": 61,
                "velocity": 51,
                "duration": 4.5477273,
                "tempo": 120.0
            }
        ],
        "Oboe": [
            {
                "start_time": 0.0159091,
                "end_time": 1.5659091,
                "pitch": 53,
                "velocity": 51,
                "duration": 1.55,
                "tempo": 120.0
            },
            {
                "start_time": 1.6,
                "end_time": 3.1863636,
                "pitch": 53,
                "velocity": 51,
                "duration": 1.5863636,
                "tempo": 120.0
            },
            {
                "start_time": 3.2204545,
                "end_time": 6.4681818,
                "pitch": 57,
                "velocity": 51,
                "duration": 3.2477273,
                "tempo": 120.0
            }
        ]
    }
}