{
    "mood": "relaxed",
    "instruments": {
        "Vibraphone": [
            {
                "start_time": 0.0159091,
                "end_time": 0.0840909,
                "pitch": 63,
                "velocity": 51,
                "duration": 0.0681818,
                "tempo": 120.0
            },
            {
                "start_time": 0.5159091,
                "end_time": 0.9840909,
                "pitch": 75,
                "velocity": 51,
                "duration": 0.4681818,
                "tempo": 120.0
            },
            {
                "start_time": 1.05,
                "end_time": 1.7727273,
                "pitch": 70,
                "velocity": 51,
                "duration": 0.7227273,
                "tempo": 120.0
            },
            {
                "start_time": 1.8386364,
                "end_time": 2.3659091,
                "pitch": 66,
                "velocity": 51,
                "duration": 0.5272727,
                "tempo": 120.0
            },
            {
                "start_time": 2.3659091,
                "end_time": 2.5681818,
                "pitch": 66,
                "velocity": 51,
                "duration": 0.2022727,
                "tempo": 120.0
            },
            {
                "start_time": 2.6363636,
                "end_time": 3.3795455,
                "pitch": 68,
                "velocity": 51,
                "duration": 0.7431818,
                "tempo": 120.0
            },
            {
                "start_time": 3.4454545,
                "end_time": 4.1863636,
                "pitch": 66,
                "velocity": 51,
                "duration": 0.7409091,
                "tempo": 120.0
            },
            {
                "start_time": 4.2545455,
                "end_time": 4.9863636,
                "pitch": 63,
                "velocity": 51,
                "duration": 0.7318182,
                "tempo": 120.0
            },
            {
                "start_time": 5.0545455,
                "end_time": 5.7863636,
                "pitch": 65,
                "velocity": 51,
                "duration": 0.7318182,
                "tempo": 120.0
            },
            {
                "start_time": 5.8545455,
                "end_time": 6.5863636,
                "pitch": 66,
                "velocity": 51,
                "duration": 0.7318182,
                "tempo": 120.0
            },
            {
                "start_time": 6.6545455,
                "end_time": 7.3886364,
                "pitch": 63,
                "velocity": 51,
                "duration": 0.7340909,
                "tempo": 120.0
            },
            {
                "start_time": 7.4568182,
                "end_time": 8.2,
                "pitch": 59,
                "velocity": 51,
                "duration": 0.7431818,
                "tempo": 120.0
            },
            {
                "start_time": 8.2681818,
                "end_time": 9.0090909,
                "pitch": 63,
                "velocity": 51,
                "duration": 0.7409091,
                "tempo": 120.0
            },
            {
                "start_time": 9.075,
                "end_time": 9.8090909,
                "pitch": 68,
                "velocity": 51,
                "duration": 0.7340909,
                "tempo": 120.0
            },
            {
                "start_time": 9.875,
                "end_time": 10.6090909,
                "pitch": 65,
                "velocity": 51,
                "duration": 0.7340909,
                "tempo": 120.0
            },
            {
                "start_time": 10.675,
                "end_time": 11.4090909,
                "pitch": 61,
                "velocity": 51,
                "duration": 0.7340909,
                "tempo": 120.0
            },
            {
                "start_time": 11.475,
                "end_time": 12.2090909,
                "pitch": 65,
                "velocity": 51,
                "duration": 0.7340909,
                "tempo": 120.0
            },
            {
                "start_time": 13.075,
                "end_time": 13.8090909,
                "pitch": 75,
                "velocity": 51,
                "duration": 0.7340909,
                "tempo": 120.0
            },
            {
                "start_time": 13.875,
                "end_time": 14.6090909,
                "pitch": 70,
                "velocity": 51,
                "duration": 0.7340909,
                "tempo": 120.0
            },
            {
                "start_time": 14.675,
                "end_time": 15.4113636,
                "pitch": 66,
                "velocity": 51,
                "duration": 0.7363636,
                "tempo": 120.0
            },
            {
                "start_time": 15.4795455,
                "end_time": 16.2227273,
                "pitch": 68,
                "velocity": 51,
                "duration": 0.7431818,
                "tempo": 120.0
            },
            {
                "start_time": 16.2886364,
                "end_time": 17.0295455,
                "pitch": 66,
                "velocity": 51,
                "duration": 0.7409091,
                "tempo": 120.0
            },
            {
                "start_time": 17.0977273,
                "end_time": 17.8295455,
                "pitch": 63,
                "velocity": 51,
                "duration": 0.7318182,
                "tempo": 120.0
            },
            {
                "start_time": 17.8977273,
                "end_time": 18.6340909,
                "pitch": 65,
                "velocity": 51,
                "duration": 0.7363636,
                "tempo": 120.0
            },
            {
                "start_time": 19.525,
                "end_time": 20.2704545,
                "pitch": 75,
                "velocity": 51,
                "duration": 0.7454545,
                "tempo": 120.0
            },
            {
                "start_time": 20.3363636,
                "end_time": 21.0590909,
                "pitch": 70,
                "velocity": 51,
                "duration": 0.7227273,
                "tempo": 120.0
            },
            {
                "start_time": 21.125,
                "end_time": 21.8545455,
                "pitch": 66,
                "velocity": 51,
                "duration": 0.7295455,
                "tempo": 120.0
            },
            {
                "start_time": 21.9204545,
                "end_time": 22.6659091,
                "pitch": 68,
                "velocity": 51,
                "duration": 0.7454545,
                "tempo": 120.0
            },
            {
                "start_time": 22.7318182,
                "end_time": 23.4727273,
                "pitch": 72,
                "velocity": 51,
                "duration": 0.7409091,
                "tempo": 120.0
            },
            {
                "start_time": 23.5386364,
                "end_time": 24.2727273,
                "pitch": 75,
                "velocity": 51,
                "duration": 0.7340909,
                "tempo": 120.0
            },
            {
                "start_time": 24.3386364,
                "end_time": 25.0727273,
                "pitch": 80,
                "velocity": 51,
                "duration": 0.7340909,
                "tempo": 120.0
            },
            {
                "start_time": 25.9386364,
                "end_time": 26.675,
                "pitch": 75,
                "velocity": 51,
                "duration": 0.7363636,
                "tempo": 120.0
            },
            {
                "start_time": 26.7431818,
                "end_time": 27.4863636,
                "pitch": 70,
                "velocity": 51,
                "duration": 0.7431818,
                "tempo": 120.0
            },
            {
                "start_time": 27.5545455,
                "end_time": 28.0954545,
                "pitch": 66,
                "velocity": 51,
                "duration": 0.5409091,
                "tempo": 120.0
            }
        ],
        "Acoustic Bass": [
            {
                "start_time": 0.0,
                "end_time": 2.3,
                "pitch": 27,
                "velocity": 64,
                "duration": 2.3,
                "tempo": 120.0
            },
            {
                "start_time": 2.3659091,
                "end_time": 5.5204545,
                "pitch": 32,
                "velocity": 64,
                "duration": 3.1545455,
                "tempo": 120.0
            },
            {
                "start_time": 5.5863636,
                "end_time": 8.7409091,
                "pitch": 35,
                "velocity": 64,
                "duration": 3.1545455,
                "tempo": 120.0
            },
            {
                "start_time": 8.8090909,
                "end_time": 11.9409091,
                "pitch": 37,
                "velocity": 64,
                "duration": 3.1318182,
                "tempo": 120.0
            },
            {
                "start_time": 12.0090909,
                "end_time": 15.1409091,
                "pitch": 27,
                "velocity": 64,
                "duration": 3.1318182,
                "tempo": 120.0
            },
            {
                "start_time": 15.2090909,
                "end_time": 18.3636364,
                "pitch": 32,
                "velocity": 64,
                "duration": 3.1545455,
                "tempo": 120.0
            },
            {
                "start_time": 18.4295455,
                "end_time": 21.5863636,
                "pitch": 27,
                "velocity": 64,
                "duration": 3.1568182,
                "tempo": 120.0
            },
            {
                "start_time": 21.6522727,
                "end_time": 24.8068182,
                "pitch": 32,
                "velocity": 64,
                "duration": 3.1545455,
                "tempo": 120.0
            },
            {
                "start_time": 24.8727273,
                "end_time": 28.0272727,
                "pitch": 27,
                "velocity": 64,
                "duration": 3.1545455,
                "tempo": 120.0
            }
        ]
    }
}