{
    "track_id": "06 Staff Roll_11",
    "mood": "relaxed",
    "instruments": {
        "Lead 1 (square)": [
            {
                "pitch": 0,
                "velocity": 0,
                "duration": 0.0023,
                "tempo": 0
            },
            {
                "pitch": 69,
                "velocity": 7,
                "duration": 0.2932,
                "tempo": 120.0
            },
            {
                "pitch": 0,
                "velocity": 0,
                "duration": 0.0023,
                "tempo": 0
            },
            {
                "pitch": 70,
                "velocity": 7,
                "duration": 0.2977,
                "tempo": 120.0
            },
            {
                "pitch": 0,
                "velocity": 0,
                "duration": 0.0023,
                "tempo": 0
            },
            {
                "pitch": 69,
                "velocity": 7,
                "duration": 0.2909,
                "tempo": 120.0
            },
            {
                "pitch": 67,
                "velocity": 7,
                "duration": 0.3773,
                "tempo": 120.0
            },
            {
                "pitch": 67,
                "velocity": 7,
                "duration": 0.0159,
                "tempo": 120.0
            },
            {
                "pitch": 67,
                "velocity": 7,
                "duration": 0.1205,
                "tempo": 120.0
            },
            {
                "pitch": 79,
                "velocity": 7,
                "duration": 0.1364,
                "tempo": 120.0
            },
            {
                "pitch": 55,
                "velocity": 7,
                "duration": 0.1705,
                "tempo": 120.0
            },
            {
                "pitch": 67,
                "velocity": 7,
                "duration": 0.05,
                "tempo": 120.0
            },
            {
                "pitch": 67,
                "velocity": 7,
                "duration": 0.1182,
                "tempo": 120.0
            },
            {
                "pitch": 79,
                "velocity": 7,
                "duration": 0.1705,
                "tempo": 120.0
            },
            {
                "pitch": 79,
                "velocity": 7,
                "duration": 0.0023,
                "tempo": 120.0
            },
            {
                "pitch": 55,
                "velocity": 7,
                "duration": 0.1705,
                "tempo": 120.0
            },
            {
                "pitch": 67,
                "velocity": 7,
                "duration": 0.05,
                "tempo": 120.0
            },
            {
                "pitch": 67,
                "velocity": 7,
                "duration": 0.1182,
                "tempo": 120.0
            },
            {
                "pitch": 55,
                "velocity": 7,
                "duration": 0.1705,
                "tempo": 120.0
            },
            {
                "pitch": 67,
                "velocity": 7,
                "duration": 0.0523,
                "tempo": 120.0
            },
            {
                "pitch": 67,
                "velocity": 7,
                "duration": 0.1182,
                "tempo": 120.0
            },
            {
                "pitch": 79,
                "velocity": 7,
                "duration": 0.1705,
                "tempo": 120.0
            },
            {
                "pitch": 55,
                "velocity": 7,
                "duration": 0.1682,
                "tempo": 120.0
            },
            {
                "pitch": 67,
                "velocity": 7,
                "duration": 0.05,
                "tempo": 120.0
            },
            {
                "pitch": 67,
                "velocity": 7,
                "duration": 0.1182,
                "tempo": 120.0
            },
            {
                "pitch": 79,
                "velocity": 7,
                "duration": 0.1682,
                "tempo": 120.0
            },
            {
                "pitch": 55,
                "velocity": 7,
                "duration": 0.1682,
                "tempo": 120.0
            },
            {
                "pitch": 67,
                "velocity": 7,
                "duration": 0.05,
                "tempo": 120.0
            },
            {
                "pitch": 67,
                "velocity": 7,
                "duration": 0.1182,
                "tempo": 120.0
            },
            {
                "pitch": 79,
                "velocity": 7,
                "duration": 0.1682,
                "tempo": 120.0
            },
            {
                "pitch": 55,
                "velocity": 7,
                "duration": 0.1682,
                "tempo": 120.0
            },
            {
                "pitch": 67,
                "velocity": 7,
                "duration": 0.05,
                "tempo": 120.0
            },
            {
                "pitch": 67,
                "velocity": 7,
                "duration": 0.1023,
                "tempo": 120.0
            },
            {
                "pitch": 67,
                "velocity": 7,
                "duration": 0.3864,
                "tempo": 120.0
            },
            {
                "pitch": 79,
                "velocity": 7,
                "duration": 0.5409,
                "tempo": 120.0
            },
            {
                "pitch": 79,
                "velocity": 7,
                "duration": 0.0023,
                "tempo": 120.0
            },
            {
                "pitch": 55,
                "velocity": 7,
                "duration": 0.5227,
                "tempo": 120.0
            },
            {
                "pitch": 67,
                "velocity": 7,
                "duration": 0.0318,
                "tempo": 120.0
            },
            {
                "pitch": 67,
                "velocity": 7,
                "duration": 0.1182,
                "tempo": 120.0
            },
            {
                "pitch": 67,
                "velocity": 7,
                "duration": 0.05,
                "tempo": 120.0
            },
            {
                "pitch": 55,
                "velocity": 7,
                "duration": 0.1705,
                "tempo": 120.0
            },
            {
                "pitch": 55,
                "velocity": 7,
                "duration": 0.0023,
                "tempo": 120.0
            },
            {
                "pitch": 67,
                "velocity": 7,
                "duration": 0.1136,
                "tempo": 120.0
            },
            {
                "pitch": 79,
                "velocity": 7,
                "duration": 0.1659,
                "tempo": 120.0
            },
            {
                "pitch": 67,
                "velocity": 7,
                "duration": 0.05,
                "tempo": 120.0
            },
            {
                "pitch": 67,
                "velocity": 7,
                "duration": 0.1159,
                "tempo": 120.0
            },
            {
                "pitch": 79,
                "velocity": 7,
                "duration": 0.1659,
                "tempo": 120.0
            },
            {
                "pitch": 67,
                "velocity": 7,
                "duration": 0.0318,
                "tempo": 120.0
            },
            {
                "pitch": 0,
                "velocity": 0,
                "duration": 0.0023,
                "tempo": 0
            },
            {
                "pitch": 65,
                "velocity": 7,
                "duration": 1.5227,
                "tempo": 120.0
            },
            {
                "pitch": 69,
                "velocity": 7,
                "duration": 0.2955,
                "tempo": 120.0
            },
            {
                "pitch": 0,
                "velocity": 0,
                "duration": 0.0023,
                "tempo": 0
            },
            {
                "pitch": 70,
                "velocity": 7,
                "duration": 0.2955,
                "tempo": 120.0
            },
            {
                "pitch": 0,
                "velocity": 0,
                "duration": 0.0023,
                "tempo": 0
            },
            {
                "pitch": 69,
                "velocity": 7,
                "duration": 0.3045,
                "tempo": 120.0
            },
            {
                "pitch": 0,
                "velocity": 0,
                "duration": 0.0023,
                "tempo": 0
            },
            {
                "pitch": 67,
                "velocity": 7,
                "duration": 0.4386,
                "tempo": 120.0
            },
            {
                "pitch": 79,
                "velocity": 7,
                "duration": 2.8977,
                "tempo": 120.0
            },
            {
                "pitch": 55,
                "velocity": 7,
                "duration": 3.0636,
                "tempo": 120.0
            },
            {
                "pitch": 67,
                "velocity": 7,
                "duration": 0.05,
                "tempo": 120.0
            },
            {
                "pitch": 67,
                "velocity": 7,
                "duration": 0.1182,
                "tempo": 120.0
            },
            {
                "pitch": 79,
                "velocity": 7,
                "duration": 0.1682,
                "tempo": 120.0
            },
            {
                "pitch": 55,
                "velocity": 7,
                "duration": 0.1682,
                "tempo": 120.0
            },
            {
                "pitch": 67,
                "velocity": 7,
                "duration": 0.05,
                "tempo": 120.0
            },
            {
                "pitch": 67,
                "velocity": 7,
                "duration": 0.1159,
                "tempo": 120.0
            },
            {
                "pitch": 79,
                "velocity": 7,
                "duration": 0.1659,
                "tempo": 120.0
            },
            {
                "pitch": 55,
                "velocity": 7,
                "duration": 0.1659,
                "tempo": 120.0
            },
            {
                "pitch": 67,
                "velocity": 7,
                "duration": 0.05,
                "tempo": 120.0
            },
            {
                "pitch": 67,
                "velocity": 7,
                "duration": 0.0818,
                "tempo": 120.0
            },
            {
                "pitch": 0,
                "velocity": 0,
                "duration": 0.0023,
                "tempo": 0
            },
            {
                "pitch": 72,
                "velocity": 7,
                "duration": 0.6045,
                "tempo": 120.0
            },
            {
                "pitch": 0,
                "velocity": 0,
                "duration": 0.0023,
                "tempo": 0
            },
            {
                "pitch": 67,
                "velocity": 7,
                "duration": 0.4659,
                "tempo": 120.0
            },
            {
                "pitch": 79,
                "velocity": 7,
                "duration": 1.2068,
                "tempo": 120.0
            },
            {
                "pitch": 55,
                "velocity": 7,
                "duration": 1.2068,
                "tempo": 120.0
            },
            {
                "pitch": 67,
                "velocity": 7,
                "duration": 0.05,
                "tempo": 120.0
            },
            {
                "pitch": 67,
                "velocity": 7,
                "duration": 0.1182,
                "tempo": 120.0
            },
            {
                "pitch": 79,
                "velocity": 7,
                "duration": 0.1682,
                "tempo": 120.0
            },
            {
                "pitch": 55,
                "velocity": 7,
                "duration": 0.1682,
                "tempo": 120.0
            },
            {
                "pitch": 67,
                "velocity": 7,
                "duration": 0.05,
                "tempo": 120.0
            },
            {
                "pitch": 67,
                "velocity": 7,
                "duration": 0.1182,
                "tempo": 120.0
            },
            {
                "pitch": 79,
                "velocity": 7,
                "duration": 0.1682,
                "tempo": 120.0
            },
            {
                "pitch": 55,
                "velocity": 7,
                "duration": 0.1682,
                "tempo": 120.0
            },
            {
                "pitch": 67,
                "velocity": 7,
                "duration": 0.05,
                "tempo": 120.0
            },
            {
                "pitch": 67,
                "velocity": 7,
                "duration": 0.05,
                "tempo": 120.0
            },
            {
                "pitch": 0,
                "velocity": 0,
                "duration": 0.0023,
                "tempo": 0
            },
            {
                "pitch": 65,
                "velocity": 7,
                "duration": 1.5023,
                "tempo": 120.0
            },
            {
                "pitch": 0,
                "velocity": 0,
                "duration": 0.0023,
                "tempo": 0
            },
            {
                "pitch": 65,
                "velocity": 7,
                "duration": 0.2977,
                "tempo": 120.0
            },
            {
                "pitch": 0,
                "velocity": 0,
                "duration": 0.0023,
                "tempo": 0
            },
            {
                "pitch": 62,
                "velocity": 7,
                "duration": 0.3,
                "tempo": 120.0
            },
            {
                "pitch": 64,
                "velocity": 7,
                "duration": 0.3068,
                "tempo": 120.0
            },
            {
                "pitch": 67,
                "velocity": 7,
                "duration": 0.3909,
                "tempo": 120.0
            },
            {
                "pitch": 79,
                "velocity": 7,
                "duration": 2.9045,
                "tempo": 120.0
            },
            {
                "pitch": 55,
                "velocity": 7,
                "duration": 2.8864,
                "tempo": 120.0
            },
            {
                "pitch": 67,
                "velocity": 7,
                "duration": 0.0318,
                "tempo": 120.0
            },
            {
                "pitch": 67,
                "velocity": 7,
                "duration": 0.1182,
                "tempo": 120.0
            },
            {
                "pitch": 79,
                "velocity": 7,
                "duration": 0.15,
                "tempo": 120.0
            },
            {
                "pitch": 55,
                "velocity": 7,
                "duration": 0.1682,
                "tempo": 120.0
            },
            {
                "pitch": 67,
                "velocity": 7,
                "duration": 0.05,
                "tempo": 120.0
            },
            {
                "pitch": 67,
                "velocity": 7,
                "duration": 0.1159,
                "tempo": 120.0
            },
            {
                "pitch": 79,
                "velocity": 7,
                "duration": 0.1659,
                "tempo": 120.0
            },
            {
                "pitch": 55,
                "velocity": 7,
                "duration": 0.1659,
                "tempo": 120.0
            },
            {
                "pitch": 67,
                "velocity": 7,
                "duration": 0.05,
                "tempo": 120.0
            },
            {
                "pitch": 67,
                "velocity": 7,
                "duration": 0.1159,
                "tempo": 120.0
            },
            {
                "pitch": 79,
                "velocity": 7,
                "duration": 0.1682,
                "tempo": 120.0
            },
            {
                "pitch": 79,
                "velocity": 7,
                "duration": 0.0023,
                "tempo": 120.0
            },
            {
                "pitch": 67,
                "velocity": 7,
                "duration": 0.0318,
                "tempo": 120.0
            },
            {
                "pitch": 0,
                "velocity": 0,
                "duration": 0.0023,
                "tempo": 0
            },
            {
                "pitch": 72,
                "velocity": 7,
                "duration": 0.5977,
                "tempo": 120.0
            },
            {
                "pitch": 0,
                "velocity": 0,
                "duration": 0.0023,
                "tempo": 0
            },
            {
                "pitch": 67,
                "velocity": 7,
                "duration": 0.3955,
                "tempo": 120.0
            },
            {
                "pitch": 55,
                "velocity": 7,
                "duration": 1.1977,
                "tempo": 120.0
            },
            {
                "pitch": 67,
                "velocity": 7,
                "duration": 0.05,
                "tempo": 120.0
            },
            {
                "pitch": 67,
                "velocity": 7,
                "duration": 0.1159,
                "tempo": 120.0
            },
            {
                "pitch": 79,
                "velocity": 7,
                "duration": 0.1659,
                "tempo": 120.0
            },
            {
                "pitch": 55,
                "velocity": 7,
                "duration": 0.1659,
                "tempo": 120.0
            },
            {
                "pitch": 67,
                "velocity": 7,
                "duration": 0.05,
                "tempo": 120.0
            },
            {
                "pitch": 67,
                "velocity": 7,
                "duration": 0.1159,
                "tempo": 120.0
            },
            {
                "pitch": 79,
                "velocity": 7,
                "duration": 0.1659,
                "tempo": 120.0
            },
            {
                "pitch": 55,
                "velocity": 7,
                "duration": 0.1659,
                "tempo": 120.0
            },
            {
                "pitch": 67,
                "velocity": 7,
                "duration": 0.05,
                "tempo": 120.0
            },
            {
                "pitch": 67,
                "velocity": 7,
                "duration": 0.1159,
                "tempo": 120.0
            },
            {
                "pitch": 0,
                "velocity": 0,
                "duration": 0.0023,
                "tempo": 0
            },
            {
                "pitch": 69,
                "velocity": 7,
                "duration": 0.9114,
                "tempo": 120.0
            },
            {
                "pitch": 0,
                "velocity": 0,
                "duration": 0.0023,
                "tempo": 0
            },
            {
                "pitch": 65,
                "velocity": 7,
                "duration": 0.5977,
                "tempo": 120.0
            },
            {
                "pitch": 0,
                "velocity": 0,
                "duration": 0.0023,
                "tempo": 0
            },
            {
                "pitch": 69,
                "velocity": 7,
                "duration": 1.2,
                "tempo": 120.0
            },
            {
                "pitch": 0,
                "velocity": 0,
                "duration": 0.0023,
                "tempo": 0
            },
            {
                "pitch": 72,
                "velocity": 7,
                "duration": 0.3,
                "tempo": 120.0
            },
            {
                "pitch": 0,
                "velocity": 0,
                "duration": 0.0023,
                "tempo": 0
            },
            {
                "pitch": 70,
                "velocity": 7,
                "duration": 0.3023,
                "tempo": 120.0
            },
            {
                "pitch": 0,
                "velocity": 0,
                "duration": 0.0023,
                "tempo": 0
            },
            {
                "pitch": 65,
                "velocity": 7,
                "duration": 0.2977,
                "tempo": 120.0
            },
            {
                "pitch": 0,
                "velocity": 0,
                "duration": 0.0023,
                "tempo": 0
            },
            {
                "pitch": 62,
                "velocity": 7,
                "duration": 0.2977,
                "tempo": 120.0
            },
            {
                "pitch": 0,
                "velocity": 0,
                "duration": 0.0023,
                "tempo": 0
            },
            {
                "pitch": 65,
                "velocity": 7,
                "duration": 2.1136,
                "tempo": 120.0
            },
            {
                "pitch": 0,
                "velocity": 0,
                "duration": 0.0023,
                "tempo": 0
            },
            {
                "pitch": 67,
                "velocity": 7,
                "duration": 0.4159,
                "tempo": 120.0
            },
            {
                "pitch": 79,
                "velocity": 7,
                "duration": 6.6227,
                "tempo": 120.0
            },
            {
                "pitch": 55,
                "velocity": 7,
                "duration": 6.625,
                "tempo": 120.0
            },
            {
                "pitch": 67,
                "velocity": 7,
                "duration": 0.0523,
                "tempo": 120.0
            },
            {
                "pitch": 67,
                "velocity": 7,
                "duration": 0.1159,
                "tempo": 120.0
            },
            {
                "pitch": 79,
                "velocity": 7,
                "duration": 0.1705,
                "tempo": 120.0
            },
            {
                "pitch": 79,
                "velocity": 7,
                "duration": 0.0023,
                "tempo": 120.0
            },
            {
                "pitch": 55,
                "velocity": 7,
                "duration": 0.1682,
                "tempo": 120.0
            },
            {
                "pitch": 67,
                "velocity": 7,
                "duration": 0.05,
                "tempo": 120.0
            },
            {
                "pitch": 67,
                "velocity": 7,
                "duration": 0.1182,
                "tempo": 120.0
            },
            {
                "pitch": 55,
                "velocity": 7,
                "duration": 0.1682,
                "tempo": 120.0
            },
            {
                "pitch": 67,
                "velocity": 7,
                "duration": 0.05,
                "tempo": 120.0
            },
            {
                "pitch": 67,
                "velocity": 7,
                "duration": 0.1182,
                "tempo": 120.0
            },
            {
                "pitch": 79,
                "velocity": 7,
                "duration": 0.1682,
                "tempo": 120.0
            },
            {
                "pitch": 55,
                "velocity": 7,
                "duration": 0.1682,
                "tempo": 120.0
            },
            {
                "pitch": 67,
                "velocity": 7,
                "duration": 0.05,
                "tempo": 120.0
            },
            {
                "pitch": 67,
                "velocity": 7,
                "duration": 0.1159,
                "tempo": 120.0
            },
            {
                "pitch": 79,
                "velocity": 7,
                "duration": 0.1659,
                "tempo": 120.0
            },
            {
                "pitch": 55,
                "velocity": 7,
                "duration": 0.1659,
                "tempo": 120.0
            },
            {
                "pitch": 67,
                "velocity": 7,
                "duration": 0.05,
                "tempo": 120.0
            },
            {
                "pitch": 67,
                "velocity": 7,
                "duration": 0.1182,
                "tempo": 120.0
            },
            {
                "pitch": 79,
                "velocity": 7,
                "duration": 0.1682,
                "tempo": 120.0
            },
            {
                "pitch": 55,
                "velocity": 7,
                "duration": 0.1682,
                "tempo": 120.0
            },
            {
                "pitch": 67,
                "velocity": 7,
                "duration": 0.05,
                "tempo": 120.0
            },
            {
                "pitch": 67,
                "velocity": 7,
                "duration": 0.1159,
                "tempo": 120.0
            },
            {
                "pitch": 79,
                "velocity": 7,
                "duration": 0.1659,
                "tempo": 120.0
            },
            {
                "pitch": 55,
                "velocity": 7,
                "duration": 0.1659,
                "tempo": 120.0
            },
            {
                "pitch": 67,
                "velocity": 7,
                "duration": 0.05,
                "tempo": 120.0
            },
            {
                "pitch": 67,
                "velocity": 7,
                "duration": 0.1182,
                "tempo": 120.0
            },
            {
                "pitch": 79,
                "velocity": 7,
                "duration": 0.1682,
                "tempo": 120.0
            },
            {
                "pitch": 55,
                "velocity": 7,
                "duration": 0.1705,
                "tempo": 120.0
            },
            {
                "pitch": 67,
                "velocity": 7,
                "duration": 0.0523,
                "tempo": 120.0
            },
            {
                "pitch": 67,
                "velocity": 7,
                "duration": 0.1182,
                "tempo": 120.0
            },
            {
                "pitch": 79,
                "velocity": 7,
                "duration": 0.1705,
                "tempo": 120.0
            },
            {
                "pitch": 55,
                "velocity": 7,
                "duration": 0.1705,
                "tempo": 120.0
            },
            {
                "pitch": 67,
                "velocity": 7,
                "duration": 0.0523,
                "tempo": 120.0
            },
            {
                "pitch": 67,
                "velocity": 7,
                "duration": 0.1182,
                "tempo": 120.0
            },
            {
                "pitch": 79,
                "velocity": 7,
                "duration": 0.1705,
                "tempo": 120.0
            },
            {
                "pitch": 67,
                "velocity": 7,
                "duration": 0.05,
                "tempo": 120.0
            },
            {
                "pitch": 55,
                "velocity": 7,
                "duration": 0.1705,
                "tempo": 120.0
            },
            {
                "pitch": 55,
                "velocity": 7,
                "duration": 0.0023,
                "tempo": 120.0
            },
            {
                "pitch": 67,
                "velocity": 7,
                "duration": 0.1182,
                "tempo": 120.0
            },
            {
                "pitch": 79,
                "velocity": 7,
                "duration": 0.1705,
                "tempo": 120.0
            },
            {
                "pitch": 67,
                "velocity": 7,
                "duration": 0.05,
                "tempo": 120.0
            },
            {
                "pitch": 67,
                "velocity": 7,
                "duration": 0.1182,
                "tempo": 120.0
            },
            {
                "pitch": 79,
                "velocity": 7,
                "duration": 0.1682,
                "tempo": 120.0
            },
            {
                "pitch": 55,
                "velocity": 7,
                "duration": 0.1682,
                "tempo": 120.0
            },
            {
                "pitch": 67,
                "velocity": 7,
                "duration": 0.05,
                "tempo": 120.0
            },
            {
                "pitch": 67,
                "velocity": 7,
                "duration": 0.1159,
                "tempo": 120.0
            },
            {
                "pitch": 79,
                "velocity": 7,
                "duration": 0.1659,
                "tempo": 120.0
            },
            {
                "pitch": 55,
                "velocity": 7,
                "duration": 0.1659,
                "tempo": 120.0
            },
            {
                "pitch": 67,
                "velocity": 7,
                "duration": 0.05,
                "tempo": 120.0
            },
            {
                "pitch": 67,
                "velocity": 7,
                "duration": 0.1159,
                "tempo": 120.0
            },
            {
                "pitch": 79,
                "velocity": 7,
                "duration": 0.1659,
                "tempo": 120.0
            },
            {
                "pitch": 55,
                "velocity": 7,
                "duration": 0.1659,
                "tempo": 120.0
            },
            {
                "pitch": 67,
                "velocity": 7,
                "duration": 0.05,
                "tempo": 120.0
            },
            {
                "pitch": 67,
                "velocity": 7,
                "duration": 0.0682,
                "tempo": 120.0
            },
            {
                "pitch": 0,
                "velocity": 0,
                "duration": 79.8773,
                "tempo": 0
            },
            {
                "pitch": 69,
                "velocity": 7,
                "duration": 0.0068,
                "tempo": 120.0
            }
        ],
        "Lead 2 (sawtooth)": [
            {
                "pitch": 0,
                "velocity": 0,
                "duration": 0.0045,
                "tempo": 0
            },
            {
                "pitch": 62,
                "velocity": 7,
                "duration": 0.8886,
                "tempo": 120.0
            },
            {
                "pitch": 60,
                "velocity": 7,
                "duration": 1.5114,
                "tempo": 120.0
            },
            {
                "pitch": 0,
                "velocity": 0,
                "duration": 0.0023,
                "tempo": 0
            },
            {
                "pitch": 60,
                "velocity": 7,
                "duration": 0.9023,
                "tempo": 120.0
            },
            {
                "pitch": 60,
                "velocity": 7,
                "duration": 1.5227,
                "tempo": 120.0
            },
            {
                "pitch": 0,
                "velocity": 0,
                "duration": 0.0023,
                "tempo": 0
            },
            {
                "pitch": 62,
                "velocity": 7,
                "duration": 0.9,
                "tempo": 120.0
            },
            {
                "pitch": 60,
                "velocity": 7,
                "duration": 1.5136,
                "tempo": 120.0
            },
            {
                "pitch": 60,
                "velocity": 7,
                "duration": 0.9045,
                "tempo": 120.0
            },
            {
                "pitch": 60,
                "velocity": 7,
                "duration": 1.5045,
                "tempo": 120.0
            },
            {
                "pitch": 57,
                "velocity": 7,
                "duration": 0.9068,
                "tempo": 120.0
            },
            {
                "pitch": 0,
                "velocity": 0,
                "duration": 0.0023,
                "tempo": 0
            },
            {
                "pitch": 55,
                "velocity": 7,
                "duration": 1.5068,
                "tempo": 120.0
            },
            {
                "pitch": 61,
                "velocity": 7,
                "duration": 0.8955,
                "tempo": 120.0
            },
            {
                "pitch": 60,
                "velocity": 7,
                "duration": 1.5136,
                "tempo": 120.0
            },
            {
                "pitch": 57,
                "velocity": 7,
                "duration": 2.4091,
                "tempo": 120.0
            },
            {
                "pitch": 60,
                "velocity": 7,
                "duration": 2.1136,
                "tempo": 120.0
            },
            {
                "pitch": 0,
                "velocity": 0,
                "duration": 0.0023,
                "tempo": 0
            },
            {
                "pitch": 60,
                "velocity": 7,
                "duration": 2.7205,
                "tempo": 120.0
            },
            {
                "pitch": 60,
                "velocity": 7,
                "duration": 2.4205,
                "tempo": 120.0
            },
            {
                "pitch": 60,
                "velocity": 7,
                "duration": 2.4159,
                "tempo": 120.0
            },
            {
                "pitch": 60,
                "velocity": 7,
                "duration": 2.4136,
                "tempo": 120.0
            },
            {
                "pitch": 0,
                "velocity": 0,
                "duration": 0.0023,
                "tempo": 0
            },
            {
                "pitch": 58,
                "velocity": 7,
                "duration": 0.9114,
                "tempo": 120.0
            },
            {
                "pitch": 0,
                "velocity": 0,
                "duration": 0.0023,
                "tempo": 0
            },
            {
                "pitch": 58,
                "velocity": 7,
                "duration": 0.9114,
                "tempo": 120.0
            },
            {
                "pitch": 57,
                "velocity": 7,
                "duration": 0.6,
                "tempo": 120.0
            },
            {
                "pitch": 0,
                "velocity": 0,
                "duration": 0.0023,
                "tempo": 0
            },
            {
                "pitch": 55,
                "velocity": 7,
                "duration": 2.4205,
                "tempo": 120.0
            },
            {
                "pitch": 60,
                "velocity": 7,
                "duration": 0.6068,
                "tempo": 120.0
            },
            {
                "pitch": 60,
                "velocity": 7,
                "duration": 0.6068,
                "tempo": 120.0
            },
            {
                "pitch": 60,
                "velocity": 7,
                "duration": 0.6068,
                "tempo": 120.0
            },
            {
                "pitch": 65,
                "velocity": 7,
                "duration": 0.6068,
                "tempo": 120.0
            },
            {
                "pitch": 0,
                "velocity": 0,
                "duration": 0.0023,
                "tempo": 0
            },
            {
                "pitch": 62,
                "velocity": 7,
                "duration": 2.425,
                "tempo": 120.0
            },
            {
                "pitch": 0,
                "velocity": 0,
                "duration": 0.0023,
                "tempo": 0
            },
            {
                "pitch": 58,
                "velocity": 7,
                "duration": 0.9091,
                "tempo": 120.0
            },
            {
                "pitch": 58,
                "velocity": 7,
                "duration": 1.5114,
                "tempo": 120.0
            },
            {
                "pitch": 60,
                "velocity": 7,
                "duration": 2.4205,
                "tempo": 120.0
            },
            {
                "pitch": 60,
                "velocity": 7,
                "duration": 2.4341,
                "tempo": 120.0
            },
            {
                "pitch": 60,
                "velocity": 7,
                "duration": 2.4205,
                "tempo": 120.0
            },
            {
                "pitch": 58,
                "velocity": 7,
                "duration": 0.9091,
                "tempo": 120.0
            },
            {
                "pitch": 0,
                "velocity": 0,
                "duration": 0.0023,
                "tempo": 0
            },
            {
                "pitch": 58,
                "velocity": 7,
                "duration": 0.9091,
                "tempo": 120.0
            },
            {
                "pitch": 57,
                "velocity": 7,
                "duration": 0.6,
                "tempo": 120.0
            },
            {
                "pitch": 0,
                "velocity": 0,
                "duration": 0.0023,
                "tempo": 0
            },
            {
                "pitch": 55,
                "velocity": 7,
                "duration": 2.4318,
                "tempo": 120.0
            },
            {
                "pitch": 60,
                "velocity": 7,
                "duration": 0.6068,
                "tempo": 120.0
            },
            {
                "pitch": 0,
                "velocity": 0,
                "duration": 0.0023,
                "tempo": 0
            },
            {
                "pitch": 60,
                "velocity": 7,
                "duration": 0.5977,
                "tempo": 120.0
            },
            {
                "pitch": 0,
                "velocity": 0,
                "duration": 0.0023,
                "tempo": 0
            },
            {
                "pitch": 60,
                "velocity": 7,
                "duration": 0.6068,
                "tempo": 120.0
            },
            {
                "pitch": 65,
                "velocity": 7,
                "duration": 0.6068,
                "tempo": 120.0
            },
            {
                "pitch": 62,
                "velocity": 7,
                "duration": 0.9091,
                "tempo": 120.0
            },
            {
                "pitch": 58,
                "velocity": 7,
                "duration": 1.5114,
                "tempo": 120.0
            },
            {
                "pitch": 60,
                "velocity": 7,
                "duration": 0.9091,
                "tempo": 120.0
            },
            {
                "pitch": 0,
                "velocity": 0,
                "duration": 0.0023,
                "tempo": 0
            },
            {
                "pitch": 60,
                "velocity": 7,
                "duration": 1.5227,
                "tempo": 120.0
            },
            {
                "pitch": 62,
                "velocity": 7,
                "duration": 0.9068,
                "tempo": 120.0
            },
            {
                "pitch": 57,
                "velocity": 7,
                "duration": 1.5159,
                "tempo": 120.0
            },
            {
                "pitch": 60,
                "velocity": 7,
                "duration": 0.9091,
                "tempo": 120.0
            },
            {
                "pitch": 0,
                "velocity": 0,
                "duration": 0.0023,
                "tempo": 0
            },
            {
                "pitch": 60,
                "velocity": 7,
                "duration": 0.6023,
                "tempo": 120.0
            },
            {
                "pitch": 60,
                "velocity": 7,
                "duration": 0.9068,
                "tempo": 120.0
            },
            {
                "pitch": 0,
                "velocity": 0,
                "duration": 0.0023,
                "tempo": 0
            },
            {
                "pitch": 60,
                "velocity": 7,
                "duration": 0.8977,
                "tempo": 120.0
            },
            {
                "pitch": 0,
                "velocity": 0,
                "duration": 0.0023,
                "tempo": 0
            },
            {
                "pitch": 60,
                "velocity": 7,
                "duration": 1.5068,
                "tempo": 120.0
            },
            {
                "pitch": 0,
                "velocity": 0,
                "duration": 0.0023,
                "tempo": 0
            },
            {
                "pitch": 60,
                "velocity": 7,
                "duration": 0.9136,
                "tempo": 120.0
            },
            {
                "pitch": 0,
                "velocity": 0,
                "duration": 0.0023,
                "tempo": 0
            },
            {
                "pitch": 60,
                "velocity": 7,
                "duration": 0.6023,
                "tempo": 120.0
            },
            {
                "pitch": 0,
                "velocity": 0,
                "duration": 0.0023,
                "tempo": 0
            },
            {
                "pitch": 60,
                "velocity": 7,
                "duration": 0.9,
                "tempo": 120.0
            },
            {
                "pitch": 62,
                "velocity": 7,
                "duration": 0.9068,
                "tempo": 120.0
            },
            {
                "pitch": 58,
                "velocity": 7,
                "duration": 1.5068,
                "tempo": 120.0
            },
            {
                "pitch": 0,
                "velocity": 0,
                "duration": 0.0023,
                "tempo": 0
            },
            {
                "pitch": 60,
                "velocity": 7,
                "duration": 0.9023,
                "tempo": 120.0
            },
            {
                "pitch": 0,
                "velocity": 0,
                "duration": 0.0023,
                "tempo": 0
            },
            {
                "pitch": 57,
                "velocity": 7,
                "duration": 1.5091,
                "tempo": 120.0
            },
            {
                "pitch": 57,
                "velocity": 7,
                "duration": 2.425,
                "tempo": 120.0
            },
            {
                "pitch": 0,
                "velocity": 0,
                "duration": 0.0023,
                "tempo": 0
            },
            {
                "pitch": 60,
                "velocity": 7,
                "duration": 2.1023,
                "tempo": 120.0
            },
            {
                "pitch": 0,
                "velocity": 0,
                "duration": 0.0023,
                "tempo": 0
            },
            {
                "pitch": 58,
                "velocity": 7,
                "duration": 2.7159,
                "tempo": 120.0
            },
            {
                "pitch": 48,
                "velocity": 7,
                "duration": 0.9068,
                "tempo": 120.0
            },
            {
                "pitch": 48,
                "velocity": 7,
                "duration": 1.5136,
                "tempo": 120.0
            },
            {
                "pitch": 48,
                "velocity": 7,
                "duration": 0.9068,
                "tempo": 120.0
            },
            {
                "pitch": 0,
                "velocity": 0,
                "duration": 0.0023,
                "tempo": 0
            },
            {
                "pitch": 48,
                "velocity": 7,
                "duration": 1.5068,
                "tempo": 120.0
            },
            {
                "pitch": 48,
                "velocity": 7,
                "duration": 0.9023,
                "tempo": 120.0
            },
            {
                "pitch": 54,
                "velocity": 7,
                "duration": 1.5068,
                "tempo": 120.0
            },
            {
                "pitch": 50,
                "velocity": 7,
                "duration": 0.9068,
                "tempo": 120.0
            },
            {
                "pitch": 50,
                "velocity": 7,
                "duration": 1.5205,
                "tempo": 120.0
            },
            {
                "pitch": 46,
                "velocity": 7,
                "duration": 0.9023,
                "tempo": 120.0
            },
            {
                "pitch": 0,
                "velocity": 0,
                "duration": 0.0023,
                "tempo": 0
            },
            {
                "pitch": 52,
                "velocity": 7,
                "duration": 1.5045,
                "tempo": 120.0
            },
            {
                "pitch": 48,
                "velocity": 7,
                "duration": 0.9068,
                "tempo": 120.0
            },
            {
                "pitch": 48,
                "velocity": 7,
                "duration": 1.5068,
                "tempo": 120.0
            },
            {
                "pitch": 0,
                "velocity": 0,
                "duration": 0.0023,
                "tempo": 0
            },
            {
                "pitch": 46,
                "velocity": 7,
                "duration": 0.9023,
                "tempo": 120.0
            },
            {
                "pitch": 0,
                "velocity": 0,
                "duration": 0.0023,
                "tempo": 0
            },
            {
                "pitch": 46,
                "velocity": 7,
                "duration": 1.5159,
                "tempo": 120.0
            },
            {
                "pitch": 45,
                "velocity": 7,
                "duration": 2.4114,
                "tempo": 120.0
            }
        ],
        "Synth Bass 1": [
            {
                "pitch": 0,
                "velocity": 0,
                "duration": 62.0182,
                "tempo": 0
            },
            {
                "pitch": 66,
                "velocity": 1,
                "duration": 0.0159,
                "tempo": 120.0
            },
            {
                "pitch": 67,
                "velocity": 1,
                "duration": 0.2864,
                "tempo": 120.0
            },
            {
                "pitch": 0,
                "velocity": 0,
                "duration": 0.0023,
                "tempo": 0
            },
            {
                "pitch": 68,
                "velocity": 1,
                "duration": 0.3,
                "tempo": 120.0
            },
            {
                "pitch": 0,
                "velocity": 0,
                "duration": 0.0045,
                "tempo": 0
            },
            {
                "pitch": 68,
                "velocity": 1,
                "duration": 0.3,
                "tempo": 120.0
            },
            {
                "pitch": 0,
                "velocity": 0,
                "duration": 0.0023,
                "tempo": 0
            },
            {
                "pitch": 68,
                "velocity": 1,
                "duration": 0.0318,
                "tempo": 120.0
            },
            {
                "pitch": 71,
                "velocity": 1,
                "duration": 0.5727,
                "tempo": 120.0
            },
            {
                "pitch": 0,
                "velocity": 0,
                "duration": 0.0023,
                "tempo": 0
            },
            {
                "pitch": 71,
                "velocity": 1,
                "duration": 0.3,
                "tempo": 120.0
            },
            {
                "pitch": 0,
                "velocity": 0,
                "duration": 0.0045,
                "tempo": 0
            },
            {
                "pitch": 69,
                "velocity": 1,
                "duration": 0.6,
                "tempo": 120.0
            },
            {
                "pitch": 0,
                "velocity": 0,
                "duration": 0.0023,
                "tempo": 0
            },
            {
                "pitch": 68,
                "velocity": 1,
                "duration": 0.3841,
                "tempo": 120.0
            },
            {
                "pitch": 55,
                "velocity": 1,
                "duration": 2.8432,
                "tempo": 120.0
            },
            {
                "pitch": 67,
                "velocity": 1,
                "duration": 0.05,
                "tempo": 120.0
            },
            {
                "pitch": 67,
                "velocity": 1,
                "duration": 0.1182,
                "tempo": 120.0
            },
            {
                "pitch": 79,
                "velocity": 1,
                "duration": 0.1682,
                "tempo": 120.0
            },
            {
                "pitch": 55,
                "velocity": 1,
                "duration": 0.1705,
                "tempo": 120.0
            },
            {
                "pitch": 67,
                "velocity": 1,
                "duration": 0.0523,
                "tempo": 120.0
            },
            {
                "pitch": 67,
                "velocity": 1,
                "duration": 0.1159,
                "tempo": 120.0
            },
            {
                "pitch": 79,
                "velocity": 1,
                "duration": 0.1682,
                "tempo": 120.0
            },
            {
                "pitch": 55,
                "velocity": 1,
                "duration": 0.1682,
                "tempo": 120.0
            },
            {
                "pitch": 67,
                "velocity": 1,
                "duration": 0.0523,
                "tempo": 120.0
            },
            {
                "pitch": 67,
                "velocity": 1,
                "duration": 0.1182,
                "tempo": 120.0
            },
            {
                "pitch": 79,
                "velocity": 1,
                "duration": 0.1705,
                "tempo": 120.0
            },
            {
                "pitch": 67,
                "velocity": 1,
                "duration": 0.0136,
                "tempo": 120.0
            },
            {
                "pitch": 0,
                "velocity": 0,
                "duration": 0.0023,
                "tempo": 0
            },
            {
                "pitch": 68,
                "velocity": 1,
                "duration": 0.3,
                "tempo": 120.0
            },
            {
                "pitch": 0,
                "velocity": 0,
                "duration": 0.0023,
                "tempo": 0
            },
            {
                "pitch": 69,
                "velocity": 1,
                "duration": 0.2977,
                "tempo": 120.0
            },
            {
                "pitch": 0,
                "velocity": 0,
                "duration": 0.0023,
                "tempo": 0
            },
            {
                "pitch": 68,
                "velocity": 1,
                "duration": 0.2977,
                "tempo": 120.0
            },
            {
                "pitch": 0,
                "velocity": 0,
                "duration": 0.0023,
                "tempo": 0
            },
            {
                "pitch": 68,
                "velocity": 1,
                "duration": 0.6023,
                "tempo": 120.0
            },
            {
                "pitch": 0,
                "velocity": 0,
                "duration": 0.0023,
                "tempo": 0
            },
            {
                "pitch": 68,
                "velocity": 1,
                "duration": 0.0159,
                "tempo": 120.0
            },
            {
                "pitch": 79,
                "velocity": 1,
                "duration": 1.5386,
                "tempo": 120.0
            },
            {
                "pitch": 67,
                "velocity": 1,
                "duration": 0.3523,
                "tempo": 120.0
            },
            {
                "pitch": 65,
                "velocity": 1,
                "duration": 0.5318,
                "tempo": 120.0
            },
            {
                "pitch": 55,
                "velocity": 1,
                "duration": 2.5591,
                "tempo": 120.0
            },
            {
                "pitch": 66,
                "velocity": 1,
                "duration": 0.0159,
                "tempo": 120.0
            },
            {
                "pitch": 67,
                "velocity": 1,
                "duration": 0.0341,
                "tempo": 120.0
            },
            {
                "pitch": 70,
                "velocity": 1,
                "duration": 0.0341,
                "tempo": 120.0
            },
            {
                "pitch": 72,
                "velocity": 1,
                "duration": 0.5273,
                "tempo": 120.0
            },
            {
                "pitch": 0,
                "velocity": 0,
                "duration": 0.0023,
                "tempo": 0
            },
            {
                "pitch": 71,
                "velocity": 1,
                "duration": 0.3023,
                "tempo": 120.0
            },
            {
                "pitch": 0,
                "velocity": 0,
                "duration": 0.0023,
                "tempo": 0
            },
            {
                "pitch": 69,
                "velocity": 1,
                "duration": 0.6,
                "tempo": 120.0
            },
            {
                "pitch": 0,
                "velocity": 0,
                "duration": 0.0023,
                "tempo": 0
            },
            {
                "pitch": 68,
                "velocity": 1,
                "duration": 0.3341,
                "tempo": 120.0
            },
            {
                "pitch": 79,
                "velocity": 1,
                "duration": 2.7409,
                "tempo": 120.0
            },
            {
                "pitch": 55,
                "velocity": 1,
                "duration": 1.8886,
                "tempo": 120.0
            },
            {
                "pitch": 67,
                "velocity": 1,
                "duration": 0.05,
                "tempo": 120.0
            },
            {
                "pitch": 67,
                "velocity": 1,
                "duration": 0.1159,
                "tempo": 120.0
            },
            {
                "pitch": 79,
                "velocity": 1,
                "duration": 0.1659,
                "tempo": 120.0
            },
            {
                "pitch": 55,
                "velocity": 1,
                "duration": 0.1659,
                "tempo": 120.0
            },
            {
                "pitch": 67,
                "velocity": 1,
                "duration": 0.05,
                "tempo": 120.0
            },
            {
                "pitch": 67,
                "velocity": 1,
                "duration": 0.1182,
                "tempo": 120.0
            },
            {
                "pitch": 79,
                "velocity": 1,
                "duration": 0.1682,
                "tempo": 120.0
            },
            {
                "pitch": 55,
                "velocity": 1,
                "duration": 0.1682,
                "tempo": 120.0
            },
            {
                "pitch": 67,
                "velocity": 1,
                "duration": 0.05,
                "tempo": 120.0
            },
            {
                "pitch": 67,
                "velocity": 1,
                "duration": 0.1159,
                "tempo": 120.0
            },
            {
                "pitch": 79,
                "velocity": 1,
                "duration": 0.1659,
                "tempo": 120.0
            },
            {
                "pitch": 55,
                "velocity": 1,
                "duration": 0.1659,
                "tempo": 120.0
            },
            {
                "pitch": 67,
                "velocity": 1,
                "duration": 0.05,
                "tempo": 120.0
            },
            {
                "pitch": 67,
                "velocity": 1,
                "duration": 0.0159,
                "tempo": 120.0
            },
            {
                "pitch": 0,
                "velocity": 0,
                "duration": 0.0023,
                "tempo": 0
            },
            {
                "pitch": 68,
                "velocity": 1,
                "duration": 0.3,
                "tempo": 120.0
            },
            {
                "pitch": 0,
                "velocity": 0,
                "duration": 0.0023,
                "tempo": 0
            },
            {
                "pitch": 71,
                "velocity": 1,
                "duration": 0.3023,
                "tempo": 120.0
            },
            {
                "pitch": 0,
                "velocity": 0,
                "duration": 0.0023,
                "tempo": 0
            },
            {
                "pitch": 71,
                "velocity": 1,
                "duration": 0.2977,
                "tempo": 120.0
            },
            {
                "pitch": 0,
                "velocity": 0,
                "duration": 0.0023,
                "tempo": 0
            },
            {
                "pitch": 69,
                "velocity": 1,
                "duration": 0.3841,
                "tempo": 120.0
            },
            {
                "pitch": 79,
                "velocity": 1,
                "duration": 1.3591,
                "tempo": 120.0
            },
            {
                "pitch": 55,
                "velocity": 1,
                "duration": 1.3591,
                "tempo": 120.0
            },
            {
                "pitch": 67,
                "velocity": 1,
                "duration": 0.05,
                "tempo": 120.0
            },
            {
                "pitch": 67,
                "velocity": 1,
                "duration": 0.1182,
                "tempo": 120.0
            },
            {
                "pitch": 79,
                "velocity": 1,
                "duration": 0.1682,
                "tempo": 120.0
            },
            {
                "pitch": 55,
                "velocity": 1,
                "duration": 0.1682,
                "tempo": 120.0
            },
            {
                "pitch": 67,
                "velocity": 1,
                "duration": 0.05,
                "tempo": 120.0
            },
            {
                "pitch": 67,
                "velocity": 1,
                "duration": 0.1182,
                "tempo": 120.0
            },
            {
                "pitch": 79,
                "velocity": 1,
                "duration": 0.1682,
                "tempo": 120.0
            },
            {
                "pitch": 55,
                "velocity": 1,
                "duration": 0.1682,
                "tempo": 120.0
            },
            {
                "pitch": 67,
                "velocity": 1,
                "duration": 0.05,
                "tempo": 120.0
            },
            {
                "pitch": 67,
                "velocity": 1,
                "duration": 0.1182,
                "tempo": 120.0
            },
            {
                "pitch": 79,
                "velocity": 1,
                "duration": 0.1682,
                "tempo": 120.0
            },
            {
                "pitch": 67,
                "velocity": 1,
                "duration": 0.0159,
                "tempo": 120.0
            },
            {
                "pitch": 0,
                "velocity": 0,
                "duration": 0.0023,
                "tempo": 0
            },
            {
                "pitch": 68,
                "velocity": 1,
                "duration": 0.0318,
                "tempo": 120.0
            },
            {
                "pitch": 71,
                "velocity": 1,
                "duration": 0.5659,
                "tempo": 120.0
            },
            {
                "pitch": 0,
                "velocity": 0,
                "duration": 0.0023,
                "tempo": 0
            },
            {
                "pitch": 72,
                "velocity": 1,
                "duration": 0.3,
                "tempo": 120.0
            },
            {
                "pitch": 0,
                "velocity": 0,
                "duration": 0.0023,
                "tempo": 0
            },
            {
                "pitch": 73,
                "velocity": 1,
                "duration": 0.2977,
                "tempo": 120.0
            },
            {
                "pitch": 0,
                "velocity": 0,
                "duration": 0.0023,
                "tempo": 0
            },
            {
                "pitch": 73,
                "velocity": 1,
                "duration": 0.3,
                "tempo": 120.0
            },
            {
                "pitch": 0,
                "velocity": 0,
                "duration": 0.0023,
                "tempo": 0
            },
            {
                "pitch": 71,
                "velocity": 1,
                "duration": 0.3523,
                "tempo": 120.0
            },
            {
                "pitch": 69,
                "velocity": 1,
                "duration": 0.55,
                "tempo": 120.0
            },
            {
                "pitch": 0,
                "velocity": 0,
                "duration": 0.0023,
                "tempo": 0
            },
            {
                "pitch": 70,
                "velocity": 1,
                "duration": 0.3864,
                "tempo": 120.0
            },
            {
                "pitch": 72,
                "velocity": 1,
                "duration": 0.2182,
                "tempo": 120.0
            },
            {
                "pitch": 0,
                "velocity": 0,
                "duration": 0.0023,
                "tempo": 0
            },
            {
                "pitch": 70,
                "velocity": 1,
                "duration": 1.5159,
                "tempo": 120.0
            },
            {
                "pitch": 0,
                "velocity": 0,
                "duration": 0.0023,
                "tempo": 0
            },
            {
                "pitch": 68,
                "velocity": 1,
                "duration": 0.0136,
                "tempo": 120.0
            },
            {
                "pitch": 66,
                "velocity": 1,
                "duration": 0.0341,
                "tempo": 120.0
            },
            {
                "pitch": 63,
                "velocity": 1,
                "duration": 0.2477,
                "tempo": 120.0
            },
            {
                "pitch": 55,
                "velocity": 1,
                "duration": 5.0023,
                "tempo": 120.0
            },
            {
                "pitch": 64,
                "velocity": 1,
                "duration": 0.0341,
                "tempo": 120.0
            },
            {
                "pitch": 67,
                "velocity": 1,
                "duration": 0.0318,
                "tempo": 120.0
            },
            {
                "pitch": 71,
                "velocity": 1,
                "duration": 0.2386,
                "tempo": 120.0
            },
            {
                "pitch": 0,
                "velocity": 0,
                "duration": 0.0023,
                "tempo": 0
            },
            {
                "pitch": 70,
                "velocity": 1,
                "duration": 0.3,
                "tempo": 120.0
            },
            {
                "pitch": 0,
                "velocity": 0,
                "duration": 0.0023,
                "tempo": 0
            },
            {
                "pitch": 69,
                "velocity": 1,
                "duration": 0.0341,
                "tempo": 120.0
            },
            {
                "pitch": 79,
                "velocity": 1,
                "duration": 5.4932,
                "tempo": 120.0
            },
            {
                "pitch": 67,
                "velocity": 1,
                "duration": 2.0682,
                "tempo": 120.0
            },
            {
                "pitch": 55,
                "velocity": 1,
                "duration": 2.6955,
                "tempo": 120.0
            },
            {
                "pitch": 66,
                "velocity": 1,
                "duration": 0.0159,
                "tempo": 120.0
            },
            {
                "pitch": 67,
                "velocity": 1,
                "duration": 0.4023,
                "tempo": 120.0
            },
            {
                "pitch": 79,
                "velocity": 1,
                "duration": 2.4886,
                "tempo": 120.0
            },
            {
                "pitch": 55,
                "velocity": 1,
                "duration": 0.4523,
                "tempo": 120.0
            },
            {
                "pitch": 67,
                "velocity": 1,
                "duration": 0.05,
                "tempo": 120.0
            },
            {
                "pitch": 67,
                "velocity": 1,
                "duration": 0.1182,
                "tempo": 120.0
            },
            {
                "pitch": 79,
                "velocity": 1,
                "duration": 0.1682,
                "tempo": 120.0
            },
            {
                "pitch": 67,
                "velocity": 1,
                "duration": 0.05,
                "tempo": 120.0
            },
            {
                "pitch": 55,
                "velocity": 1,
                "duration": 0.1705,
                "tempo": 120.0
            },
            {
                "pitch": 55,
                "velocity": 1,
                "duration": 0.0023,
                "tempo": 120.0
            },
            {
                "pitch": 67,
                "velocity": 1,
                "duration": 0.1159,
                "tempo": 120.0
            },
            {
                "pitch": 79,
                "velocity": 1,
                "duration": 0.1682,
                "tempo": 120.0
            },
            {
                "pitch": 67,
                "velocity": 1,
                "duration": 0.0523,
                "tempo": 120.0
            },
            {
                "pitch": 67,
                "velocity": 1,
                "duration": 0.1159,
                "tempo": 120.0
            },
            {
                "pitch": 79,
                "velocity": 1,
                "duration": 0.1705,
                "tempo": 120.0
            },
            {
                "pitch": 79,
                "velocity": 1,
                "duration": 0.0023,
                "tempo": 120.0
            },
            {
                "pitch": 67,
                "velocity": 1,
                "duration": 0.0477,
                "tempo": 120.0
            },
            {
                "pitch": 55,
                "velocity": 1,
                "duration": 0.1682,
                "tempo": 120.0
            },
            {
                "pitch": 55,
                "velocity": 1,
                "duration": 0.0023,
                "tempo": 120.0
            },
            {
                "pitch": 67,
                "velocity": 1,
                "duration": 0.1159,
                "tempo": 120.0
            },
            {
                "pitch": 67,
                "velocity": 1,
                "duration": 0.05,
                "tempo": 120.0
            },
            {
                "pitch": 67,
                "velocity": 1,
                "duration": 0.1159,
                "tempo": 120.0
            },
            {
                "pitch": 79,
                "velocity": 1,
                "duration": 0.1659,
                "tempo": 120.0
            },
            {
                "pitch": 55,
                "velocity": 1,
                "duration": 0.1659,
                "tempo": 120.0
            },
            {
                "pitch": 67,
                "velocity": 1,
                "duration": 0.05,
                "tempo": 120.0
            },
            {
                "pitch": 67,
                "velocity": 1,
                "duration": 0.1182,
                "tempo": 120.0
            },
            {
                "pitch": 79,
                "velocity": 1,
                "duration": 0.1682,
                "tempo": 120.0
            },
            {
                "pitch": 55,
                "velocity": 1,
                "duration": 0.1682,
                "tempo": 120.0
            },
            {
                "pitch": 67,
                "velocity": 1,
                "duration": 0.05,
                "tempo": 120.0
            },
            {
                "pitch": 67,
                "velocity": 1,
                "duration": 0.1182,
                "tempo": 120.0
            },
            {
                "pitch": 79,
                "velocity": 1,
                "duration": 0.1682,
                "tempo": 120.0
            },
            {
                "pitch": 55,
                "velocity": 1,
                "duration": 0.1682,
                "tempo": 120.0
            },
            {
                "pitch": 67,
                "velocity": 1,
                "duration": 0.05,
                "tempo": 120.0
            },
            {
                "pitch": 67,
                "velocity": 1,
                "duration": 0.1182,
                "tempo": 120.0
            },
            {
                "pitch": 79,
                "velocity": 1,
                "duration": 0.1682,
                "tempo": 120.0
            },
            {
                "pitch": 55,
                "velocity": 1,
                "duration": 0.1682,
                "tempo": 120.0
            },
            {
                "pitch": 67,
                "velocity": 1,
                "duration": 0.05,
                "tempo": 120.0
            },
            {
                "pitch": 67,
                "velocity": 1,
                "duration": 0.1182,
                "tempo": 120.0
            },
            {
                "pitch": 79,
                "velocity": 1,
                "duration": 0.1682,
                "tempo": 120.0
            },
            {
                "pitch": 55,
                "velocity": 1,
                "duration": 0.1682,
                "tempo": 120.0
            },
            {
                "pitch": 67,
                "velocity": 1,
                "duration": 0.05,
                "tempo": 120.0
            },
            {
                "pitch": 67,
                "velocity": 1,
                "duration": 0.1182,
                "tempo": 120.0
            },
            {
                "pitch": 79,
                "velocity": 1,
                "duration": 0.1682,
                "tempo": 120.0
            },
            {
                "pitch": 55,
                "velocity": 1,
                "duration": 0.1682,
                "tempo": 120.0
            },
            {
                "pitch": 67,
                "velocity": 1,
                "duration": 0.05,
                "tempo": 120.0
            },
            {
                "pitch": 67,
                "velocity": 1,
                "duration": 0.1182,
                "tempo": 120.0
            },
            {
                "pitch": 79,
                "velocity": 1,
                "duration": 0.1682,
                "tempo": 120.0
            },
            {
                "pitch": 55,
                "velocity": 1,
                "duration": 0.1682,
                "tempo": 120.0
            },
            {
                "pitch": 67,
                "velocity": 1,
                "duration": 0.05,
                "tempo": 120.0
            },
            {
                "pitch": 67,
                "velocity": 1,
                "duration": 0.1159,
                "tempo": 120.0
            },
            {
                "pitch": 79,
                "velocity": 1,
                "duration": 0.1659,
                "tempo": 120.0
            },
            {
                "pitch": 55,
                "velocity": 1,
                "duration": 0.1659,
                "tempo": 120.0
            },
            {
                "pitch": 67,
                "velocity": 1,
                "duration": 0.05,
                "tempo": 120.0
            },
            {
                "pitch": 67,
                "velocity": 1,
                "duration": 0.1159,
                "tempo": 120.0
            },
            {
                "pitch": 79,
                "velocity": 1,
                "duration": 0.1659,
                "tempo": 120.0
            },
            {
                "pitch": 55,
                "velocity": 1,
                "duration": 0.1659,
                "tempo": 120.0
            },
            {
                "pitch": 67,
                "velocity": 1,
                "duration": 0.05,
                "tempo": 120.0
            },
            {
                "pitch": 67,
                "velocity": 1,
                "duration": 0.0659,
                "tempo": 120.0
            }
        ],
        "Acoustic Grand Piano": [
            {
                "pitch": 0,
                "velocity": 0,
                "duration": 101.6091,
                "tempo": 0
            },
            {
                "pitch": 108,
                "velocity": 15,
                "duration": 0.1,
                "tempo": 120.0
            }
        ]
    }
}