{
    "track_id": "Columns (FM) - 06 - Boy Wonder_11",
    "mood": "relaxed",
    "instruments": {
        "Lead 1 (square)": [
            {
                "pitch": 86,
                "velocity": 7,
                "duration": 1.6659,
                "tempo": 120.0
            },
            {
                "pitch": 90,
                "velocity": 7,
                "duration": 0.55,
                "tempo": 120.0
            },
            {
                "pitch": 88,
                "velocity": 7,
                "duration": 0.5591,
                "tempo": 120.0
            },
            {
                "pitch": 91,
                "velocity": 7,
                "duration": 0.5409,
                "tempo": 120.0
            },
            {
                "pitch": 91,
                "velocity": 7,
                "duration": 0.55,
                "tempo": 120.0
            },
            {
                "pitch": 86,
                "velocity": 7,
                "duration": 2.7523,
                "tempo": 120.0
            },
            {
                "pitch": 86,
                "velocity": 7,
                "duration": 0.5523,
                "tempo": 120.0
            },
            {
                "pitch": 88,
                "velocity": 7,
                "duration": 0.5568,
                "tempo": 120.0
            },
            {
                "pitch": 90,
                "velocity": 7,
                "duration": 3.3023,
                "tempo": 120.0
            },
            {
                "pitch": 90,
                "velocity": 7,
                "duration": 0.5432,
                "tempo": 120.0
            },
            {
                "pitch": 85,
                "velocity": 7,
                "duration": 0.55,
                "tempo": 120.0
            },
            {
                "pitch": 85,
                "velocity": 7,
                "duration": 0.5614,
                "tempo": 120.0
            },
            {
                "pitch": 86,
                "velocity": 7,
                "duration": 2.2114,
                "tempo": 120.0
            },
            {
                "pitch": 88,
                "velocity": 7,
                "duration": 2.7432,
                "tempo": 120.0
            },
            {
                "pitch": 88,
                "velocity": 7,
                "duration": 1.0886,
                "tempo": 120.0
            },
            {
                "pitch": 100,
                "velocity": 7,
                "duration": 4.9432,
                "tempo": 120.0
            },
            {
                "pitch": 97,
                "velocity": 7,
                "duration": 0.5523,
                "tempo": 120.0
            },
            {
                "pitch": 97,
                "velocity": 7,
                "duration": 0.55,
                "tempo": 120.0
            },
            {
                "pitch": 91,
                "velocity": 7,
                "duration": 0.55,
                "tempo": 120.0
            },
            {
                "pitch": 95,
                "velocity": 7,
                "duration": 0.5614,
                "tempo": 120.0
            },
            {
                "pitch": 100,
                "velocity": 7,
                "duration": 2.7636,
                "tempo": 120.0
            },
            {
                "pitch": 100,
                "velocity": 7,
                "duration": 0.55,
                "tempo": 120.0
            },
            {
                "pitch": 98,
                "velocity": 7,
                "duration": 2.2114,
                "tempo": 120.0
            },
            {
                "pitch": 100,
                "velocity": 7,
                "duration": 0.55,
                "tempo": 120.0
            },
            {
                "pitch": 93,
                "velocity": 7,
                "duration": 0.5386,
                "tempo": 120.0
            },
            {
                "pitch": 79,
                "velocity": 7,
                "duration": 12.1227,
                "tempo": 120.0
            },
            {
                "pitch": 93,
                "velocity": 7,
                "duration": 0.5523,
                "tempo": 120.0
            },
            {
                "pitch": 90,
                "velocity": 7,
                "duration": 7.1659,
                "tempo": 120.0
            },
            {
                "pitch": 90,
                "velocity": 7,
                "duration": 0.5614,
                "tempo": 120.0
            },
            {
                "pitch": 88,
                "velocity": 7,
                "duration": 0.55,
                "tempo": 120.0
            },
            {
                "pitch": 93,
                "velocity": 7,
                "duration": 0.5477,
                "tempo": 120.0
            },
            {
                "pitch": 97,
                "velocity": 7,
                "duration": 0.5409,
                "tempo": 120.0
            },
            {
                "pitch": 91,
                "velocity": 7,
                "duration": 5.5136,
                "tempo": 120.0
            },
            {
                "pitch": 103,
                "velocity": 7,
                "duration": 0.5614,
                "tempo": 120.0
            },
            {
                "pitch": 102,
                "velocity": 7,
                "duration": 0.5409,
                "tempo": 120.0
            },
            {
                "pitch": 100,
                "velocity": 7,
                "duration": 2.75,
                "tempo": 120.0
            },
            {
                "pitch": 100,
                "velocity": 7,
                "duration": 0.5591,
                "tempo": 120.0
            },
            {
                "pitch": 97,
                "velocity": 7,
                "duration": 0.5523,
                "tempo": 120.0
            },
            {
                "pitch": 97,
                "velocity": 7,
                "duration": 0.5386,
                "tempo": 120.0
            },
            {
                "pitch": 98,
                "velocity": 7,
                "duration": 6.6114,
                "tempo": 120.0
            },
            {
                "pitch": 98,
                "velocity": 7,
                "duration": 0.5682,
                "tempo": 120.0
            },
            {
                "pitch": 100,
                "velocity": 7,
                "duration": 1.6591,
                "tempo": 120.0
            },
            {
                "pitch": 79,
                "velocity": 7,
                "duration": 6.0909,
                "tempo": 120.0
            },
            {
                "pitch": 91,
                "velocity": 7,
                "duration": 3.3295,
                "tempo": 120.0
            },
            {
                "pitch": 91,
                "velocity": 7,
                "duration": 0.5705,
                "tempo": 120.0
            },
            {
                "pitch": 88,
                "velocity": 7,
                "duration": 0.5523,
                "tempo": 120.0
            },
            {
                "pitch": 100,
                "velocity": 7,
                "duration": 1.6727,
                "tempo": 120.0
            },
            {
                "pitch": 100,
                "velocity": 7,
                "duration": 0.55,
                "tempo": 120.0
            },
            {
                "pitch": 98,
                "velocity": 7,
                "duration": 0.55,
                "tempo": 120.0
            },
            {
                "pitch": 95,
                "velocity": 7,
                "duration": 11.0545,
                "tempo": 120.0
            },
            {
                "pitch": 95,
                "velocity": 7,
                "duration": 1.1205,
                "tempo": 120.0
            },
            {
                "pitch": 95,
                "velocity": 7,
                "duration": 0.5295,
                "tempo": 120.0
            },
            {
                "pitch": 79,
                "velocity": 7,
                "duration": 3.8545,
                "tempo": 120.0
            },
            {
                "pitch": 93,
                "velocity": 7,
                "duration": 8.2864,
                "tempo": 120.0
            },
            {
                "pitch": 93,
                "velocity": 7,
                "duration": 0.5523,
                "tempo": 120.0
            },
            {
                "pitch": 85,
                "velocity": 7,
                "duration": 0.55,
                "tempo": 120.0
            },
            {
                "pitch": 85,
                "velocity": 7,
                "duration": 0.55,
                "tempo": 120.0
            },
            {
                "pitch": 86,
                "velocity": 7,
                "duration": 16.5386,
                "tempo": 120.0
            },
            {
                "pitch": 90,
                "velocity": 7,
                "duration": 11.0341,
                "tempo": 120.0
            },
            {
                "pitch": 90,
                "velocity": 7,
                "duration": 0.55,
                "tempo": 120.0
            },
            {
                "pitch": 102,
                "velocity": 7,
                "duration": 8.2932,
                "tempo": 120.0
            },
            {
                "pitch": 93,
                "velocity": 7,
                "duration": 0.5523,
                "tempo": 120.0
            },
            {
                "pitch": 98,
                "velocity": 7,
                "duration": 1.1182,
                "tempo": 120.0
            },
            {
                "pitch": 98,
                "velocity": 7,
                "duration": 0.5318,
                "tempo": 120.0
            },
            {
                "pitch": 100,
                "velocity": 7,
                "duration": 0.5523,
                "tempo": 120.0
            },
            {
                "pitch": 91,
                "velocity": 7,
                "duration": 0.5477,
                "tempo": 120.0
            },
            {
                "pitch": 95,
                "velocity": 7,
                "duration": 0.5523,
                "tempo": 120.0
            },
            {
                "pitch": 100,
                "velocity": 7,
                "duration": 0.55,
                "tempo": 120.0
            },
            {
                "pitch": 100,
                "velocity": 7,
                "duration": 0.55,
                "tempo": 120.0
            },
            {
                "pitch": 97,
                "velocity": 7,
                "duration": 9.9091,
                "tempo": 120.0
            },
            {
                "pitch": 98,
                "velocity": 7,
                "duration": 3.3023,
                "tempo": 120.0
            },
            {
                "pitch": 98,
                "velocity": 7,
                "duration": 1.1023,
                "tempo": 120.0
            },
            {
                "pitch": 81,
                "velocity": 7,
                "duration": 27.0182,
                "tempo": 120.0
            },
            {
                "pitch": 93,
                "velocity": 7,
                "duration": 6.6136,
                "tempo": 120.0
            },
            {
                "pitch": 93,
                "velocity": 7,
                "duration": 1.1091,
                "tempo": 120.0
            },
            {
                "pitch": 86,
                "velocity": 7,
                "duration": 9.8977,
                "tempo": 120.0
            },
            {
                "pitch": 86,
                "velocity": 7,
                "duration": 2.1818,
                "tempo": 120.0
            },
            {
                "pitch": 91,
                "velocity": 7,
                "duration": 8.2773,
                "tempo": 120.0
            },
            {
                "pitch": 91,
                "velocity": 7,
                "duration": 2.2318,
                "tempo": 120.0
            }
        ],
        "Lead 2 (sawtooth)": [
            {
                "pitch": 74,
                "velocity": 5,
                "duration": 1.6659,
                "tempo": 120.0
            },
            {
                "pitch": 78,
                "velocity": 5,
                "duration": 0.55,
                "tempo": 120.0
            },
            {
                "pitch": 79,
                "velocity": 5,
                "duration": 0.5591,
                "tempo": 120.0
            },
            {
                "pitch": 85,
                "velocity": 5,
                "duration": 0.5409,
                "tempo": 120.0
            },
            {
                "pitch": 81,
                "velocity": 5,
                "duration": 0.55,
                "tempo": 120.0
            },
            {
                "pitch": 78,
                "velocity": 5,
                "duration": 0.5523,
                "tempo": 120.0
            },
            {
                "pitch": 90,
                "velocity": 5,
                "duration": 2.2023,
                "tempo": 120.0
            },
            {
                "pitch": 81,
                "velocity": 5,
                "duration": 1.0977,
                "tempo": 120.0
            },
            {
                "pitch": 67,
                "velocity": 5,
                "duration": 6.0682,
                "tempo": 120.0
            },
            {
                "pitch": 81,
                "velocity": 5,
                "duration": 0.5523,
                "tempo": 120.0
            },
            {
                "pitch": 78,
                "velocity": 5,
                "duration": 0.5614,
                "tempo": 120.0
            },
            {
                "pitch": 76,
                "velocity": 5,
                "duration": 0.5477,
                "tempo": 120.0
            },
            {
                "pitch": 80,
                "velocity": 5,
                "duration": 0.5409,
                "tempo": 120.0
            },
            {
                "pitch": 80,
                "velocity": 5,
                "duration": 0.55,
                "tempo": 120.0
            },
            {
                "pitch": 81,
                "velocity": 5,
                "duration": 0.5523,
                "tempo": 120.0
            },
            {
                "pitch": 76,
                "velocity": 5,
                "duration": 1.1114,
                "tempo": 120.0
            },
            {
                "pitch": 88,
                "velocity": 5,
                "duration": 2.7545,
                "tempo": 120.0
            },
            {
                "pitch": 83,
                "velocity": 5,
                "duration": 0.55,
                "tempo": 120.0
            },
            {
                "pitch": 85,
                "velocity": 5,
                "duration": 7.7159,
                "tempo": 120.0
            },
            {
                "pitch": 85,
                "velocity": 5,
                "duration": 0.55,
                "tempo": 120.0
            },
            {
                "pitch": 69,
                "velocity": 5,
                "duration": 8.2568,
                "tempo": 120.0
            },
            {
                "pitch": 81,
                "velocity": 5,
                "duration": 1.0909,
                "tempo": 120.0
            },
            {
                "pitch": 78,
                "velocity": 5,
                "duration": 6.0545,
                "tempo": 120.0
            },
            {
                "pitch": 78,
                "velocity": 5,
                "duration": 0.5614,
                "tempo": 120.0
            },
            {
                "pitch": 90,
                "velocity": 5,
                "duration": 8.2659,
                "tempo": 120.0
            },
            {
                "pitch": 67,
                "velocity": 5,
                "duration": 7.1659,
                "tempo": 120.0
            },
            {
                "pitch": 79,
                "velocity": 5,
                "duration": 10.4591,
                "tempo": 120.0
            },
            {
                "pitch": 79,
                "velocity": 5,
                "duration": 0.55,
                "tempo": 120.0
            },
            {
                "pitch": 74,
                "velocity": 5,
                "duration": 12.6568,
                "tempo": 120.0
            },
            {
                "pitch": 74,
                "velocity": 5,
                "duration": 1.0886,
                "tempo": 120.0
            },
            {
                "pitch": 74,
                "velocity": 5,
                "duration": 1.1023,
                "tempo": 120.0
            },
            {
                "pitch": 83,
                "velocity": 5,
                "duration": 6.0545,
                "tempo": 120.0
            },
            {
                "pitch": 83,
                "velocity": 5,
                "duration": 1.1114,
                "tempo": 120.0
            },
            {
                "pitch": 79,
                "velocity": 5,
                "duration": 1.1068,
                "tempo": 120.0
            },
            {
                "pitch": 67,
                "velocity": 5,
                "duration": 5.5318,
                "tempo": 120.0
            },
            {
                "pitch": 79,
                "velocity": 5,
                "duration": 1.1227,
                "tempo": 120.0
            },
            {
                "pitch": 74,
                "velocity": 5,
                "duration": 0.55,
                "tempo": 120.0
            },
            {
                "pitch": 76,
                "velocity": 5,
                "duration": 0.55,
                "tempo": 120.0
            },
            {
                "pitch": 88,
                "velocity": 5,
                "duration": 9.9341,
                "tempo": 120.0
            },
            {
                "pitch": 83,
                "velocity": 5,
                "duration": 4.45,
                "tempo": 120.0
            },
            {
                "pitch": 83,
                "velocity": 5,
                "duration": 1.1205,
                "tempo": 120.0
            },
            {
                "pitch": 69,
                "velocity": 5,
                "duration": 9.9455,
                "tempo": 120.0
            },
            {
                "pitch": 83,
                "velocity": 5,
                "duration": 1.0818,
                "tempo": 120.0
            },
            {
                "pitch": 78,
                "velocity": 5,
                "duration": 1.1,
                "tempo": 120.0
            },
            {
                "pitch": 76,
                "velocity": 5,
                "duration": 1.1023,
                "tempo": 120.0
            },
            {
                "pitch": 74,
                "velocity": 5,
                "duration": 6.0727,
                "tempo": 120.0
            },
            {
                "pitch": 74,
                "velocity": 5,
                "duration": 1.1182,
                "tempo": 120.0
            },
            {
                "pitch": 76,
                "velocity": 5,
                "duration": 1.65,
                "tempo": 120.0
            },
            {
                "pitch": 76,
                "velocity": 5,
                "duration": 0.5318,
                "tempo": 120.0
            },
            {
                "pitch": 78,
                "velocity": 5,
                "duration": 3.3023,
                "tempo": 120.0
            },
            {
                "pitch": 78,
                "velocity": 5,
                "duration": 0.55,
                "tempo": 120.0
            },
            {
                "pitch": 78,
                "velocity": 5,
                "duration": 0.0023,
                "tempo": 120.0
            },
            {
                "pitch": 76,
                "velocity": 5,
                "duration": 1.6523,
                "tempo": 120.0
            },
            {
                "pitch": 76,
                "velocity": 5,
                "duration": 1.1,
                "tempo": 120.0
            },
            {
                "pitch": 88,
                "velocity": 5,
                "duration": 7.7068,
                "tempo": 120.0
            },
            {
                "pitch": 79,
                "velocity": 5,
                "duration": 1.1,
                "tempo": 120.0
            },
            {
                "pitch": 69,
                "velocity": 5,
                "duration": 7.1523,
                "tempo": 120.0
            },
            {
                "pitch": 79,
                "velocity": 5,
                "duration": 0.5477,
                "tempo": 120.0
            },
            {
                "pitch": 78,
                "velocity": 5,
                "duration": 0.5523,
                "tempo": 120.0
            },
            {
                "pitch": 76,
                "velocity": 5,
                "duration": 1.1114,
                "tempo": 120.0
            },
            {
                "pitch": 88,
                "velocity": 5,
                "duration": 3.3114,
                "tempo": 120.0
            },
            {
                "pitch": 83,
                "velocity": 5,
                "duration": 2.1818,
                "tempo": 120.0
            },
            {
                "pitch": 86,
                "velocity": 5,
                "duration": 19.8705,
                "tempo": 120.0
            },
            {
                "pitch": 86,
                "velocity": 5,
                "duration": 2.2295,
                "tempo": 120.0
            }
        ],
        "Synth Bass 1": [
            {
                "pitch": 62,
                "velocity": 1,
                "duration": 1.6659,
                "tempo": 120.0
            },
            {
                "pitch": 66,
                "velocity": 1,
                "duration": 0.55,
                "tempo": 120.0
            },
            {
                "pitch": 66,
                "velocity": 1,
                "duration": 0.0136,
                "tempo": 120.0
            },
            {
                "pitch": 64,
                "velocity": 1,
                "duration": 0.5455,
                "tempo": 120.0
            },
            {
                "pitch": 67,
                "velocity": 1,
                "duration": 0.0636,
                "tempo": 120.0
            },
            {
                "pitch": 67,
                "velocity": 1,
                "duration": 0.1318,
                "tempo": 120.0
            },
            {
                "pitch": 79,
                "velocity": 1,
                "duration": 0.1318,
                "tempo": 120.0
            },
            {
                "pitch": 67,
                "velocity": 1,
                "duration": 0.1295,
                "tempo": 120.0
            },
            {
                "pitch": 79,
                "velocity": 1,
                "duration": 0.1295,
                "tempo": 120.0
            },
            {
                "pitch": 67,
                "velocity": 1,
                "duration": 0.1318,
                "tempo": 120.0
            },
            {
                "pitch": 79,
                "velocity": 1,
                "duration": 0.1318,
                "tempo": 120.0
            },
            {
                "pitch": 67,
                "velocity": 1,
                "duration": 0.0841,
                "tempo": 120.0
            },
            {
                "pitch": 79,
                "velocity": 1,
                "duration": 0.0841,
                "tempo": 120.0
            },
            {
                "pitch": 69,
                "velocity": 1,
                "duration": 0.55,
                "tempo": 120.0
            },
            {
                "pitch": 62,
                "velocity": 1,
                "duration": 2.7523,
                "tempo": 120.0
            },
            {
                "pitch": 62,
                "velocity": 1,
                "duration": 0.5523,
                "tempo": 120.0
            },
            {
                "pitch": 64,
                "velocity": 1,
                "duration": 0.5568,
                "tempo": 120.0
            },
            {
                "pitch": 64,
                "velocity": 1,
                "duration": 0.0659,
                "tempo": 120.0
            },
            {
                "pitch": 66,
                "velocity": 1,
                "duration": 0.4773,
                "tempo": 120.0
            },
            {
                "pitch": 61,
                "velocity": 1,
                "duration": 0.55,
                "tempo": 120.0
            },
            {
                "pitch": 61,
                "velocity": 1,
                "duration": 0.5614,
                "tempo": 120.0
            },
            {
                "pitch": 62,
                "velocity": 1,
                "duration": 2.2114,
                "tempo": 120.0
            },
            {
                "pitch": 64,
                "velocity": 1,
                "duration": 1.0886,
                "tempo": 120.0
            },
            {
                "pitch": 73,
                "velocity": 1,
                "duration": 0.5523,
                "tempo": 120.0
            },
            {
                "pitch": 55,
                "velocity": 1,
                "duration": 8.8205,
                "tempo": 120.0
            },
            {
                "pitch": 73,
                "velocity": 1,
                "duration": 0.55,
                "tempo": 120.0
            },
            {
                "pitch": 67,
                "velocity": 1,
                "duration": 0.0636,
                "tempo": 120.0
            },
            {
                "pitch": 79,
                "velocity": 1,
                "duration": 5.5682,
                "tempo": 120.0
            },
            {
                "pitch": 67,
                "velocity": 1,
                "duration": 0.1341,
                "tempo": 120.0
            },
            {
                "pitch": 79,
                "velocity": 1,
                "duration": 0.1341,
                "tempo": 120.0
            },
            {
                "pitch": 67,
                "velocity": 1,
                "duration": 0.1318,
                "tempo": 120.0
            },
            {
                "pitch": 79,
                "velocity": 1,
                "duration": 0.1318,
                "tempo": 120.0
            },
            {
                "pitch": 67,
                "velocity": 1,
                "duration": 0.1341,
                "tempo": 120.0
            },
            {
                "pitch": 79,
                "velocity": 1,
                "duration": 0.1341,
                "tempo": 120.0
            },
            {
                "pitch": 67,
                "velocity": 1,
                "duration": 0.0864,
                "tempo": 120.0
            },
            {
                "pitch": 79,
                "velocity": 1,
                "duration": 0.0864,
                "tempo": 120.0
            },
            {
                "pitch": 71,
                "velocity": 1,
                "duration": 0.5614,
                "tempo": 120.0
            },
            {
                "pitch": 76,
                "velocity": 1,
                "duration": 2.7636,
                "tempo": 120.0
            },
            {
                "pitch": 76,
                "velocity": 1,
                "duration": 0.55,
                "tempo": 120.0
            },
            {
                "pitch": 74,
                "velocity": 1,
                "duration": 0.55,
                "tempo": 120.0
            },
            {
                "pitch": 69,
                "velocity": 1,
                "duration": 0.5386,
                "tempo": 120.0
            },
            {
                "pitch": 67,
                "velocity": 1,
                "duration": 0.0659,
                "tempo": 120.0
            },
            {
                "pitch": 79,
                "velocity": 1,
                "duration": 2.2659,
                "tempo": 120.0
            },
            {
                "pitch": 67,
                "velocity": 1,
                "duration": 0.1341,
                "tempo": 120.0
            },
            {
                "pitch": 79,
                "velocity": 1,
                "duration": 0.1341,
                "tempo": 120.0
            },
            {
                "pitch": 67,
                "velocity": 1,
                "duration": 0.1318,
                "tempo": 120.0
            },
            {
                "pitch": 79,
                "velocity": 1,
                "duration": 0.1318,
                "tempo": 120.0
            },
            {
                "pitch": 67,
                "velocity": 1,
                "duration": 0.1341,
                "tempo": 120.0
            },
            {
                "pitch": 79,
                "velocity": 1,
                "duration": 0.1341,
                "tempo": 120.0
            },
            {
                "pitch": 67,
                "velocity": 1,
                "duration": 0.0864,
                "tempo": 120.0
            },
            {
                "pitch": 67,
                "velocity": 1,
                "duration": 0.5614,
                "tempo": 120.0
            },
            {
                "pitch": 66,
                "velocity": 1,
                "duration": 7.1795,
                "tempo": 120.0
            },
            {
                "pitch": 66,
                "velocity": 1,
                "duration": 0.0136,
                "tempo": 120.0
            },
            {
                "pitch": 64,
                "velocity": 1,
                "duration": 0.5364,
                "tempo": 120.0
            },
            {
                "pitch": 76,
                "velocity": 1,
                "duration": 2.7523,
                "tempo": 120.0
            },
            {
                "pitch": 69,
                "velocity": 1,
                "duration": 0.5477,
                "tempo": 120.0
            },
            {
                "pitch": 73,
                "velocity": 1,
                "duration": 0.5409,
                "tempo": 120.0
            },
            {
                "pitch": 63,
                "velocity": 1,
                "duration": 0.0023,
                "tempo": 120.0
            },
            {
                "pitch": 79,
                "velocity": 1,
                "duration": 2.3523,
                "tempo": 120.0
            },
            {
                "pitch": 79,
                "velocity": 1,
                "duration": 0.0636,
                "tempo": 120.0
            },
            {
                "pitch": 79,
                "velocity": 1,
                "duration": 0.1364,
                "tempo": 120.0
            },
            {
                "pitch": 91,
                "velocity": 1,
                "duration": 0.1364,
                "tempo": 120.0
            },
            {
                "pitch": 79,
                "velocity": 1,
                "duration": 0.1364,
                "tempo": 120.0
            },
            {
                "pitch": 91,
                "velocity": 1,
                "duration": 0.1364,
                "tempo": 120.0
            },
            {
                "pitch": 79,
                "velocity": 1,
                "duration": 0.1364,
                "tempo": 120.0
            },
            {
                "pitch": 91,
                "velocity": 1,
                "duration": 0.1364,
                "tempo": 120.0
            },
            {
                "pitch": 79,
                "velocity": 1,
                "duration": 0.0864,
                "tempo": 120.0
            },
            {
                "pitch": 79,
                "velocity": 1,
                "duration": 0.5409,
                "tempo": 120.0
            },
            {
                "pitch": 78,
                "velocity": 1,
                "duration": 0.0136,
                "tempo": 120.0
            },
            {
                "pitch": 76,
                "velocity": 1,
                "duration": 2.75,
                "tempo": 120.0
            },
            {
                "pitch": 76,
                "velocity": 1,
                "duration": 0.5455,
                "tempo": 120.0
            },
            {
                "pitch": 73,
                "velocity": 1,
                "duration": 0.5523,
                "tempo": 120.0
            },
            {
                "pitch": 73,
                "velocity": 1,
                "duration": 0.5386,
                "tempo": 120.0
            },
            {
                "pitch": 74,
                "velocity": 1,
                "duration": 6.0432,
                "tempo": 120.0
            },
            {
                "pitch": 60,
                "velocity": 1,
                "duration": 14.8682,
                "tempo": 120.0
            },
            {
                "pitch": 76,
                "velocity": 1,
                "duration": 1.6591,
                "tempo": 120.0
            },
            {
                "pitch": 76,
                "velocity": 1,
                "duration": 0.5682,
                "tempo": 120.0
            },
            {
                "pitch": 67,
                "velocity": 1,
                "duration": 0.0659,
                "tempo": 120.0
            },
            {
                "pitch": 67,
                "velocity": 1,
                "duration": 0.1386,
                "tempo": 120.0
            },
            {
                "pitch": 79,
                "velocity": 1,
                "duration": 0.1386,
                "tempo": 120.0
            },
            {
                "pitch": 67,
                "velocity": 1,
                "duration": 0.1386,
                "tempo": 120.0
            },
            {
                "pitch": 79,
                "velocity": 1,
                "duration": 0.1386,
                "tempo": 120.0
            },
            {
                "pitch": 67,
                "velocity": 1,
                "duration": 0.1386,
                "tempo": 120.0
            },
            {
                "pitch": 79,
                "velocity": 1,
                "duration": 0.1386,
                "tempo": 120.0
            },
            {
                "pitch": 67,
                "velocity": 1,
                "duration": 0.0886,
                "tempo": 120.0
            },
            {
                "pitch": 64,
                "velocity": 1,
                "duration": 0.5523,
                "tempo": 120.0
            },
            {
                "pitch": 74,
                "velocity": 1,
                "duration": 2.2409,
                "tempo": 120.0
            },
            {
                "pitch": 74,
                "velocity": 1,
                "duration": 0.55,
                "tempo": 120.0
            },
            {
                "pitch": 74,
                "velocity": 1,
                "duration": 0.55,
                "tempo": 120.0
            },
            {
                "pitch": 71,
                "velocity": 1,
                "duration": 11.0545,
                "tempo": 120.0
            },
            {
                "pitch": 71,
                "velocity": 1,
                "duration": 1.1205,
                "tempo": 120.0
            },
            {
                "pitch": 71,
                "velocity": 1,
                "duration": 0.0136,
                "tempo": 120.0
            },
            {
                "pitch": 30,
                "velocity": 1,
                "duration": 9.9477,
                "tempo": 120.0
            },
            {
                "pitch": 69,
                "velocity": 1,
                "duration": 7.7364,
                "tempo": 120.0
            },
            {
                "pitch": 69,
                "velocity": 1,
                "duration": 0.5182,
                "tempo": 120.0
            },
            {
                "pitch": 67,
                "velocity": 1,
                "duration": 3.3682,
                "tempo": 120.0
            },
            {
                "pitch": 67,
                "velocity": 1,
                "duration": 0.0636,
                "tempo": 120.0
            },
            {
                "pitch": 79,
                "velocity": 1,
                "duration": 3.4568,
                "tempo": 120.0
            },
            {
                "pitch": 67,
                "velocity": 1,
                "duration": 0.1341,
                "tempo": 120.0
            },
            {
                "pitch": 79,
                "velocity": 1,
                "duration": 0.1341,
                "tempo": 120.0
            },
            {
                "pitch": 67,
                "velocity": 1,
                "duration": 0.1318,
                "tempo": 120.0
            },
            {
                "pitch": 79,
                "velocity": 1,
                "duration": 0.1318,
                "tempo": 120.0
            },
            {
                "pitch": 67,
                "velocity": 1,
                "duration": 0.1341,
                "tempo": 120.0
            },
            {
                "pitch": 79,
                "velocity": 1,
                "duration": 0.1341,
                "tempo": 120.0
            },
            {
                "pitch": 67,
                "velocity": 1,
                "duration": 0.0864,
                "tempo": 120.0
            },
            {
                "pitch": 61,
                "velocity": 1,
                "duration": 0.55,
                "tempo": 120.0
            },
            {
                "pitch": 61,
                "velocity": 1,
                "duration": 0.55,
                "tempo": 120.0
            },
            {
                "pitch": 62,
                "velocity": 1,
                "duration": 16.5386,
                "tempo": 120.0
            },
            {
                "pitch": 66,
                "velocity": 1,
                "duration": 0.55,
                "tempo": 120.0
            },
            {
                "pitch": 69,
                "velocity": 1,
                "duration": 0.5523,
                "tempo": 120.0
            },
            {
                "pitch": 74,
                "velocity": 1,
                "duration": 1.1182,
                "tempo": 120.0
            },
            {
                "pitch": 76,
                "velocity": 1,
                "duration": 7.1545,
                "tempo": 120.0
            },
            {
                "pitch": 76,
                "velocity": 1,
                "duration": 0.5318,
                "tempo": 120.0
            },
            {
                "pitch": 55,
                "velocity": 1,
                "duration": 17.6523,
                "tempo": 120.0
            },
            {
                "pitch": 74,
                "velocity": 1,
                "duration": 1.0841,
                "tempo": 120.0
            },
            {
                "pitch": 74,
                "velocity": 1,
                "duration": 0.5523,
                "tempo": 120.0
            },
            {
                "pitch": 67,
                "velocity": 1,
                "duration": 4.4682,
                "tempo": 120.0
            },
            {
                "pitch": 67,
                "velocity": 1,
                "duration": 0.0636,
                "tempo": 120.0
            },
            {
                "pitch": 79,
                "velocity": 1,
                "duration": 4.5545,
                "tempo": 120.0
            },
            {
                "pitch": 67,
                "velocity": 1,
                "duration": 0.1318,
                "tempo": 120.0
            },
            {
                "pitch": 79,
                "velocity": 1,
                "duration": 0.1318,
                "tempo": 120.0
            },
            {
                "pitch": 67,
                "velocity": 1,
                "duration": 0.1341,
                "tempo": 120.0
            },
            {
                "pitch": 79,
                "velocity": 1,
                "duration": 0.1341,
                "tempo": 120.0
            },
            {
                "pitch": 67,
                "velocity": 1,
                "duration": 0.1341,
                "tempo": 120.0
            },
            {
                "pitch": 79,
                "velocity": 1,
                "duration": 0.1341,
                "tempo": 120.0
            },
            {
                "pitch": 67,
                "velocity": 1,
                "duration": 0.0841,
                "tempo": 120.0
            },
            {
                "pitch": 79,
                "velocity": 1,
                "duration": 0.0841,
                "tempo": 120.0
            },
            {
                "pitch": 71,
                "velocity": 1,
                "duration": 0.5523,
                "tempo": 120.0
            },
            {
                "pitch": 76,
                "velocity": 1,
                "duration": 2.2023,
                "tempo": 120.0
            },
            {
                "pitch": 76,
                "velocity": 1,
                "duration": 0.55,
                "tempo": 120.0
            },
            {
                "pitch": 74,
                "velocity": 1,
                "duration": 0.55,
                "tempo": 120.0
            },
            {
                "pitch": 73,
                "velocity": 1,
                "duration": 9.9091,
                "tempo": 120.0
            },
            {
                "pitch": 74,
                "velocity": 1,
                "duration": 1.1023,
                "tempo": 120.0
            },
            {
                "pitch": 57,
                "velocity": 1,
                "duration": 27.0182,
                "tempo": 120.0
            },
            {
                "pitch": 69,
                "velocity": 1,
                "duration": 6.6136,
                "tempo": 120.0
            },
            {
                "pitch": 69,
                "velocity": 1,
                "duration": 1.1091,
                "tempo": 120.0
            },
            {
                "pitch": 55,
                "velocity": 1,
                "duration": 6.5932,
                "tempo": 120.0
            },
            {
                "pitch": 62,
                "velocity": 1,
                "duration": 9.8977,
                "tempo": 120.0
            },
            {
                "pitch": 62,
                "velocity": 1,
                "duration": 2.1818,
                "tempo": 120.0
            },
            {
                "pitch": 67,
                "velocity": 1,
                "duration": 0.0659,
                "tempo": 120.0
            },
            {
                "pitch": 79,
                "velocity": 1,
                "duration": 6.1114,
                "tempo": 120.0
            },
            {
                "pitch": 67,
                "velocity": 1,
                "duration": 0.1341,
                "tempo": 120.0
            },
            {
                "pitch": 79,
                "velocity": 1,
                "duration": 0.1341,
                "tempo": 120.0
            },
            {
                "pitch": 67,
                "velocity": 1,
                "duration": 0.1364,
                "tempo": 120.0
            },
            {
                "pitch": 79,
                "velocity": 1,
                "duration": 0.1364,
                "tempo": 120.0
            },
            {
                "pitch": 67,
                "velocity": 1,
                "duration": 0.1364,
                "tempo": 120.0
            },
            {
                "pitch": 79,
                "velocity": 1,
                "duration": 0.1364,
                "tempo": 120.0
            },
            {
                "pitch": 67,
                "velocity": 1,
                "duration": 0.1364,
                "tempo": 120.0
            },
            {
                "pitch": 79,
                "velocity": 1,
                "duration": 0.1364,
                "tempo": 120.0
            },
            {
                "pitch": 67,
                "velocity": 1,
                "duration": 0.1432,
                "tempo": 120.0
            },
            {
                "pitch": 79,
                "velocity": 1,
                "duration": 0.1432,
                "tempo": 120.0
            },
            {
                "pitch": 67,
                "velocity": 1,
                "duration": 0.1409,
                "tempo": 120.0
            },
            {
                "pitch": 79,
                "velocity": 1,
                "duration": 0.1409,
                "tempo": 120.0
            },
            {
                "pitch": 67,
                "velocity": 1,
                "duration": 0.1409,
                "tempo": 120.0
            },
            {
                "pitch": 79,
                "velocity": 1,
                "duration": 0.1409,
                "tempo": 120.0
            },
            {
                "pitch": 67,
                "velocity": 1,
                "duration": 0.1386,
                "tempo": 120.0
            },
            {
                "pitch": 79,
                "velocity": 1,
                "duration": 0.1386,
                "tempo": 120.0
            },
            {
                "pitch": 67,
                "velocity": 1,
                "duration": 0.1273,
                "tempo": 120.0
            },
            {
                "pitch": 79,
                "velocity": 1,
                "duration": 0.1273,
                "tempo": 120.0
            },
            {
                "pitch": 67,
                "velocity": 1,
                "duration": 0.1295,
                "tempo": 120.0
            },
            {
                "pitch": 79,
                "velocity": 1,
                "duration": 0.1295,
                "tempo": 120.0
            },
            {
                "pitch": 67,
                "velocity": 1,
                "duration": 0.1295,
                "tempo": 120.0
            },
            {
                "pitch": 79,
                "velocity": 1,
                "duration": 0.1295,
                "tempo": 120.0
            },
            {
                "pitch": 67,
                "velocity": 1,
                "duration": 0.1295,
                "tempo": 120.0
            },
            {
                "pitch": 79,
                "velocity": 1,
                "duration": 0.1295,
                "tempo": 120.0
            },
            {
                "pitch": 67,
                "velocity": 1,
                "duration": 0.1295,
                "tempo": 120.0
            },
            {
                "pitch": 79,
                "velocity": 1,
                "duration": 0.1295,
                "tempo": 120.0
            },
            {
                "pitch": 67,
                "velocity": 1,
                "duration": 0.1318,
                "tempo": 120.0
            },
            {
                "pitch": 79,
                "velocity": 1,
                "duration": 0.1318,
                "tempo": 120.0
            },
            {
                "pitch": 67,
                "velocity": 1,
                "duration": 0.1318,
                "tempo": 120.0
            },
            {
                "pitch": 79,
                "velocity": 1,
                "duration": 0.1318,
                "tempo": 120.0
            },
            {
                "pitch": 67,
                "velocity": 1,
                "duration": 0.1295,
                "tempo": 120.0
            },
            {
                "pitch": 79,
                "velocity": 1,
                "duration": 0.1295,
                "tempo": 120.0
            },
            {
                "pitch": 67,
                "velocity": 1,
                "duration": 0.0205,
                "tempo": 120.0
            },
            {
                "pitch": 67,
                "velocity": 1,
                "duration": 0.0818,
                "tempo": 120.0
            }
        ],
        "Acoustic Grand Piano": [
            {
                "pitch": 0,
                "velocity": 0,
                "duration": 35.3795,
                "tempo": 0
            },
            {
                "pitch": 108,
                "velocity": 15,
                "duration": 0.1,
                "tempo": 120.0
            }
        ]
    }
}