{
    "track_id": "Columns (FM) - 02 - Quagmire_6",
    "mood": "relaxed",
    "instruments": {
        "Lead 1 (square)": [
            {
                "pitch": 45,
                "velocity": 8,
                "duration": 0.1977,
                "tempo": 120.0
            },
            {
                "pitch": 45,
                "velocity": 8,
                "duration": 0.2,
                "tempo": 120.0
            },
            {
                "pitch": 45,
                "velocity": 8,
                "duration": 0.1841,
                "tempo": 120.0
            },
            {
                "pitch": 45,
                "velocity": 8,
                "duration": 1.175,
                "tempo": 120.0
            },
            {
                "pitch": 45,
                "velocity": 8,
                "duration": 0.5955,
                "tempo": 120.0
            },
            {
                "pitch": 38,
                "velocity": 8,
                "duration": 0.5909,
                "tempo": 120.0
            },
            {
                "pitch": 38,
                "velocity": 8,
                "duration": 0.5864,
                "tempo": 120.0
            }
        ],
        "Lead 2 (sawtooth)": [
            {
                "pitch": 0,
                "velocity": 0,
                "duration": 0.2955,
                "tempo": 0
            },
            {
                "pitch": 55,
                "velocity": 5,
                "duration": 0.0659,
                "tempo": 120.0
            },
            {
                "pitch": 57,
                "velocity": 5,
                "duration": 0.1182,
                "tempo": 120.0
            },
            {
                "pitch": 55,
                "velocity": 5,
                "duration": 0.0659,
                "tempo": 120.0
            },
            {
                "pitch": 55,
                "velocity": 5,
                "duration": 0.0659,
                "tempo": 120.0
            },
            {
                "pitch": 0,
                "velocity": 0,
                "duration": 0.0023,
                "tempo": 0
            },
            {
                "pitch": 55,
                "velocity": 5,
                "duration": 0.0682,
                "tempo": 120.0
            },
            {
                "pitch": 67,
                "velocity": 5,
                "duration": 0.1364,
                "tempo": 120.0
            },
            {
                "pitch": 57,
                "velocity": 5,
                "duration": 0.1909,
                "tempo": 120.0
            },
            {
                "pitch": 64,
                "velocity": 5,
                "duration": 1.1705,
                "tempo": 120.0
            },
            {
                "pitch": 67,
                "velocity": 5,
                "duration": 1.4295,
                "tempo": 120.0
            },
            {
                "pitch": 67,
                "velocity": 5,
                "duration": 0.0682,
                "tempo": 120.0
            },
            {
                "pitch": 67,
                "velocity": 5,
                "duration": 0.1364,
                "tempo": 120.0
            },
            {
                "pitch": 79,
                "velocity": 5,
                "duration": 0.1364,
                "tempo": 120.0
            },
            {
                "pitch": 67,
                "velocity": 5,
                "duration": 0.1364,
                "tempo": 120.0
            },
            {
                "pitch": 79,
                "velocity": 5,
                "duration": 0.1364,
                "tempo": 120.0
            },
            {
                "pitch": 67,
                "velocity": 5,
                "duration": 0.1386,
                "tempo": 120.0
            },
            {
                "pitch": 79,
                "velocity": 5,
                "duration": 0.1386,
                "tempo": 120.0
            },
            {
                "pitch": 67,
                "velocity": 5,
                "duration": 0.1227,
                "tempo": 120.0
            },
            {
                "pitch": 67,
                "velocity": 5,
                "duration": 0.5795,
                "tempo": 120.0
            },
            {
                "pitch": 62,
                "velocity": 5,
                "duration": 0.5909,
                "tempo": 120.0
            }
        ],
        "Synth Bass 1": [
            {
                "pitch": 57,
                "velocity": 1,
                "duration": 0.1977,
                "tempo": 120.0
            },
            {
                "pitch": 57,
                "velocity": 1,
                "duration": 0.2,
                "tempo": 120.0
            },
            {
                "pitch": 57,
                "velocity": 1,
                "duration": 0.1841,
                "tempo": 120.0
            },
            {
                "pitch": 57,
                "velocity": 1,
                "duration": 1.175,
                "tempo": 120.0
            },
            {
                "pitch": 57,
                "velocity": 1,
                "duration": 0.5955,
                "tempo": 120.0
            },
            {
                "pitch": 50,
                "velocity": 1,
                "duration": 0.5909,
                "tempo": 120.0
            },
            {
                "pitch": 50,
                "velocity": 1,
                "duration": 0.5864,
                "tempo": 120.0
            }
        ],
        "Acoustic Grand Piano": [
            {
                "pitch": 0,
                "velocity": 0,
                "duration": 3.8159,
                "tempo": 0
            },
            {
                "pitch": 108,
                "velocity": 15,
                "duration": 0.1,
                "tempo": 120.0
            }
        ]
    }
}