{
    "track_id": "Power Strike, Aleste (FM) - 14 - Again_2",
    "mood": "relaxed",
    "instruments": {
        "Lead 1 (square)": [
            {
                "pitch": 0,
                "velocity": 0,
                "duration": 2.3114,
                "tempo": 0
            },
            {
                "pitch": 59,
                "velocity": 10,
                "duration": 2.65,
                "tempo": 120.0
            },
            {
                "pitch": 57,
                "velocity": 10,
                "duration": 2.5864,
                "tempo": 120.0
            },
            {
                "pitch": 55,
                "velocity": 10,
                "duration": 0.0477,
                "tempo": 120.0
            },
            {
                "pitch": 55,
                "velocity": 10,
                "duration": 0.0636,
                "tempo": 120.0
            },
            {
                "pitch": 55,
                "velocity": 10,
                "duration": 0.0659,
                "tempo": 120.0
            },
            {
                "pitch": 55,
                "velocity": 10,
                "duration": 0.0636,
                "tempo": 120.0
            },
            {
                "pitch": 55,
                "velocity": 10,
                "duration": 0.0636,
                "tempo": 120.0
            },
            {
                "pitch": 55,
                "velocity": 10,
                "duration": 0.0636,
                "tempo": 120.0
            },
            {
                "pitch": 55,
                "velocity": 10,
                "duration": 0.0659,
                "tempo": 120.0
            },
            {
                "pitch": 55,
                "velocity": 10,
                "duration": 0.0636,
                "tempo": 120.0
            },
            {
                "pitch": 55,
                "velocity": 10,
                "duration": 0.0636,
                "tempo": 120.0
            },
            {
                "pitch": 55,
                "velocity": 10,
                "duration": 0.0636,
                "tempo": 120.0
            },
            {
                "pitch": 55,
                "velocity": 10,
                "duration": 0.0636,
                "tempo": 120.0
            },
            {
                "pitch": 55,
                "velocity": 10,
                "duration": 0.0614,
                "tempo": 120.0
            },
            {
                "pitch": 55,
                "velocity": 10,
                "duration": 0.0614,
                "tempo": 120.0
            },
            {
                "pitch": 55,
                "velocity": 10,
                "duration": 0.0636,
                "tempo": 120.0
            },
            {
                "pitch": 55,
                "velocity": 10,
                "duration": 0.0614,
                "tempo": 120.0
            },
            {
                "pitch": 55,
                "velocity": 10,
                "duration": 0.0614,
                "tempo": 120.0
            },
            {
                "pitch": 55,
                "velocity": 10,
                "duration": 0.0636,
                "tempo": 120.0
            },
            {
                "pitch": 55,
                "velocity": 10,
                "duration": 0.0614,
                "tempo": 120.0
            },
            {
                "pitch": 55,
                "velocity": 10,
                "duration": 0.0614,
                "tempo": 120.0
            },
            {
                "pitch": 55,
                "velocity": 10,
                "duration": 0.0773,
                "tempo": 120.0
            },
            {
                "pitch": 55,
                "velocity": 10,
                "duration": 0.05,
                "tempo": 120.0
            },
            {
                "pitch": 55,
                "velocity": 10,
                "duration": 0.0636,
                "tempo": 120.0
            },
            {
                "pitch": 55,
                "velocity": 10,
                "duration": 0.0659,
                "tempo": 120.0
            },
            {
                "pitch": 55,
                "velocity": 10,
                "duration": 0.0659,
                "tempo": 120.0
            },
            {
                "pitch": 55,
                "velocity": 10,
                "duration": 0.0636,
                "tempo": 120.0
            },
            {
                "pitch": 55,
                "velocity": 10,
                "duration": 0.0659,
                "tempo": 120.0
            },
            {
                "pitch": 55,
                "velocity": 10,
                "duration": 0.0636,
                "tempo": 120.0
            },
            {
                "pitch": 55,
                "velocity": 10,
                "duration": 0.0659,
                "tempo": 120.0
            },
            {
                "pitch": 55,
                "velocity": 10,
                "duration": 0.0636,
                "tempo": 120.0
            },
            {
                "pitch": 55,
                "velocity": 10,
                "duration": 0.0818,
                "tempo": 120.0
            },
            {
                "pitch": 55,
                "velocity": 10,
                "duration": 0.0477,
                "tempo": 120.0
            },
            {
                "pitch": 55,
                "velocity": 10,
                "duration": 0.0659,
                "tempo": 120.0
            },
            {
                "pitch": 55,
                "velocity": 10,
                "duration": 0.0636,
                "tempo": 120.0
            },
            {
                "pitch": 55,
                "velocity": 10,
                "duration": 0.0636,
                "tempo": 120.0
            },
            {
                "pitch": 55,
                "velocity": 10,
                "duration": 0.0636,
                "tempo": 120.0
            },
            {
                "pitch": 55,
                "velocity": 10,
                "duration": 0.0659,
                "tempo": 120.0
            },
            {
                "pitch": 55,
                "velocity": 10,
                "duration": 0.0636,
                "tempo": 120.0
            },
            {
                "pitch": 55,
                "velocity": 10,
                "duration": 0.0636,
                "tempo": 120.0
            },
            {
                "pitch": 55,
                "velocity": 10,
                "duration": 0.0636,
                "tempo": 120.0
            },
            {
                "pitch": 55,
                "velocity": 10,
                "duration": 0.0659,
                "tempo": 120.0
            },
            {
                "pitch": 55,
                "velocity": 10,
                "duration": 0.0318,
                "tempo": 120.0
            },
            {
                "pitch": 55,
                "velocity": 10,
                "duration": 2.5682,
                "tempo": 120.0
            },
            {
                "pitch": 59,
                "velocity": 10,
                "duration": 2.8182,
                "tempo": 120.0
            },
            {
                "pitch": 57,
                "velocity": 10,
                "duration": 3.1591,
                "tempo": 120.0
            }
        ],
        "Lead 2 (sawtooth)": [
            {
                "pitch": 0,
                "velocity": 0,
                "duration": 2.3114,
                "tempo": 0
            },
            {
                "pitch": 55,
                "velocity": 12,
                "duration": 0.0545,
                "tempo": 120.0
            },
            {
                "pitch": 55,
                "velocity": 12,
                "duration": 0.075,
                "tempo": 120.0
            },
            {
                "pitch": 55,
                "velocity": 12,
                "duration": 0.075,
                "tempo": 120.0
            },
            {
                "pitch": 55,
                "velocity": 12,
                "duration": 0.0727,
                "tempo": 120.0
            },
            {
                "pitch": 55,
                "velocity": 12,
                "duration": 0.075,
                "tempo": 120.0
            },
            {
                "pitch": 55,
                "velocity": 12,
                "duration": 0.075,
                "tempo": 120.0
            },
            {
                "pitch": 55,
                "velocity": 12,
                "duration": 0.0727,
                "tempo": 120.0
            },
            {
                "pitch": 55,
                "velocity": 12,
                "duration": 0.075,
                "tempo": 120.0
            },
            {
                "pitch": 55,
                "velocity": 12,
                "duration": 0.075,
                "tempo": 120.0
            },
            {
                "pitch": 55,
                "velocity": 12,
                "duration": 0.0727,
                "tempo": 120.0
            },
            {
                "pitch": 55,
                "velocity": 12,
                "duration": 0.0614,
                "tempo": 120.0
            },
            {
                "pitch": 55,
                "velocity": 12,
                "duration": 0.0636,
                "tempo": 120.0
            },
            {
                "pitch": 55,
                "velocity": 12,
                "duration": 0.0614,
                "tempo": 120.0
            },
            {
                "pitch": 55,
                "velocity": 12,
                "duration": 0.0614,
                "tempo": 120.0
            },
            {
                "pitch": 55,
                "velocity": 12,
                "duration": 0.0636,
                "tempo": 120.0
            },
            {
                "pitch": 55,
                "velocity": 12,
                "duration": 0.0614,
                "tempo": 120.0
            },
            {
                "pitch": 55,
                "velocity": 12,
                "duration": 0.0614,
                "tempo": 120.0
            },
            {
                "pitch": 55,
                "velocity": 12,
                "duration": 0.0636,
                "tempo": 120.0
            },
            {
                "pitch": 55,
                "velocity": 12,
                "duration": 0.0614,
                "tempo": 120.0
            },
            {
                "pitch": 55,
                "velocity": 12,
                "duration": 0.0773,
                "tempo": 120.0
            },
            {
                "pitch": 48,
                "velocity": 12,
                "duration": 0.65,
                "tempo": 120.0
            },
            {
                "pitch": 52,
                "velocity": 12,
                "duration": 0.6409,
                "tempo": 120.0
            },
            {
                "pitch": 52,
                "velocity": 12,
                "duration": 0.05,
                "tempo": 120.0
            },
            {
                "pitch": 54,
                "velocity": 12,
                "duration": 1.2295,
                "tempo": 120.0
            },
            {
                "pitch": 50,
                "velocity": 12,
                "duration": 1.3068,
                "tempo": 120.0
            },
            {
                "pitch": 52,
                "velocity": 12,
                "duration": 1.2614,
                "tempo": 120.0
            },
            {
                "pitch": 45,
                "velocity": 12,
                "duration": 0.325,
                "tempo": 120.0
            },
            {
                "pitch": 48,
                "velocity": 12,
                "duration": 0.325,
                "tempo": 120.0
            },
            {
                "pitch": 52,
                "velocity": 12,
                "duration": 0.3205,
                "tempo": 120.0
            },
            {
                "pitch": 59,
                "velocity": 12,
                "duration": 0.3386,
                "tempo": 120.0
            },
            {
                "pitch": 50,
                "velocity": 12,
                "duration": 1.2841,
                "tempo": 120.0
            },
            {
                "pitch": 47,
                "velocity": 12,
                "duration": 1.2841,
                "tempo": 120.0
            },
            {
                "pitch": 55,
                "velocity": 12,
                "duration": 0.0477,
                "tempo": 120.0
            },
            {
                "pitch": 55,
                "velocity": 12,
                "duration": 0.0636,
                "tempo": 120.0
            },
            {
                "pitch": 55,
                "velocity": 12,
                "duration": 0.0659,
                "tempo": 120.0
            },
            {
                "pitch": 55,
                "velocity": 12,
                "duration": 0.0636,
                "tempo": 120.0
            },
            {
                "pitch": 55,
                "velocity": 12,
                "duration": 0.0636,
                "tempo": 120.0
            },
            {
                "pitch": 55,
                "velocity": 12,
                "duration": 0.0636,
                "tempo": 120.0
            },
            {
                "pitch": 55,
                "velocity": 12,
                "duration": 0.0659,
                "tempo": 120.0
            },
            {
                "pitch": 55,
                "velocity": 12,
                "duration": 0.0636,
                "tempo": 120.0
            },
            {
                "pitch": 55,
                "velocity": 12,
                "duration": 0.0636,
                "tempo": 120.0
            },
            {
                "pitch": 55,
                "velocity": 12,
                "duration": 0.0636,
                "tempo": 120.0
            },
            {
                "pitch": 55,
                "velocity": 12,
                "duration": 0.0659,
                "tempo": 120.0
            },
            {
                "pitch": 55,
                "velocity": 12,
                "duration": 0.0659,
                "tempo": 120.0
            },
            {
                "pitch": 55,
                "velocity": 12,
                "duration": 0.0682,
                "tempo": 120.0
            },
            {
                "pitch": 55,
                "velocity": 12,
                "duration": 0.0659,
                "tempo": 120.0
            },
            {
                "pitch": 55,
                "velocity": 12,
                "duration": 0.0659,
                "tempo": 120.0
            },
            {
                "pitch": 55,
                "velocity": 12,
                "duration": 0.0659,
                "tempo": 120.0
            },
            {
                "pitch": 55,
                "velocity": 12,
                "duration": 0.0682,
                "tempo": 120.0
            },
            {
                "pitch": 55,
                "velocity": 12,
                "duration": 0.0659,
                "tempo": 120.0
            },
            {
                "pitch": 55,
                "velocity": 12,
                "duration": 0.0659,
                "tempo": 120.0
            },
            {
                "pitch": 55,
                "velocity": 12,
                "duration": 0.0659,
                "tempo": 120.0
            },
            {
                "pitch": 55,
                "velocity": 12,
                "duration": 0.0659,
                "tempo": 120.0
            },
            {
                "pitch": 55,
                "velocity": 12,
                "duration": 0.0682,
                "tempo": 120.0
            },
            {
                "pitch": 55,
                "velocity": 12,
                "duration": 0.0659,
                "tempo": 120.0
            },
            {
                "pitch": 55,
                "velocity": 12,
                "duration": 0.0659,
                "tempo": 120.0
            },
            {
                "pitch": 55,
                "velocity": 12,
                "duration": 0.0659,
                "tempo": 120.0
            },
            {
                "pitch": 55,
                "velocity": 12,
                "duration": 0.0682,
                "tempo": 120.0
            },
            {
                "pitch": 55,
                "velocity": 12,
                "duration": 0.0659,
                "tempo": 120.0
            },
            {
                "pitch": 55,
                "velocity": 12,
                "duration": 0.0659,
                "tempo": 120.0
            },
            {
                "pitch": 55,
                "velocity": 12,
                "duration": 0.0659,
                "tempo": 120.0
            },
            {
                "pitch": 55,
                "velocity": 12,
                "duration": 0.0682,
                "tempo": 120.0
            },
            {
                "pitch": 55,
                "velocity": 12,
                "duration": 0.0659,
                "tempo": 120.0
            },
            {
                "pitch": 55,
                "velocity": 12,
                "duration": 0.0659,
                "tempo": 120.0
            },
            {
                "pitch": 55,
                "velocity": 12,
                "duration": 0.0705,
                "tempo": 120.0
            },
            {
                "pitch": 55,
                "velocity": 12,
                "duration": 0.0705,
                "tempo": 120.0
            },
            {
                "pitch": 55,
                "velocity": 12,
                "duration": 0.0682,
                "tempo": 120.0
            },
            {
                "pitch": 55,
                "velocity": 12,
                "duration": 0.0705,
                "tempo": 120.0
            },
            {
                "pitch": 55,
                "velocity": 12,
                "duration": 0.0705,
                "tempo": 120.0
            },
            {
                "pitch": 55,
                "velocity": 12,
                "duration": 0.0682,
                "tempo": 120.0
            },
            {
                "pitch": 55,
                "velocity": 12,
                "duration": 0.0705,
                "tempo": 120.0
            },
            {
                "pitch": 55,
                "velocity": 12,
                "duration": 0.0705,
                "tempo": 120.0
            },
            {
                "pitch": 55,
                "velocity": 12,
                "duration": 0.0682,
                "tempo": 120.0
            },
            {
                "pitch": 55,
                "velocity": 12,
                "duration": 0.0705,
                "tempo": 120.0
            },
            {
                "pitch": 55,
                "velocity": 12,
                "duration": 0.0341,
                "tempo": 120.0
            },
            {
                "pitch": 55,
                "velocity": 12,
                "duration": 3.1591,
                "tempo": 120.0
            }
        ],
        "Synth Bass 1": [
            {
                "pitch": 86,
                "velocity": 1,
                "duration": 0.3364,
                "tempo": 120.0
            },
            {
                "pitch": 84,
                "velocity": 1,
                "duration": 0.3705,
                "tempo": 120.0
            },
            {
                "pitch": 78,
                "velocity": 1,
                "duration": 0.3864,
                "tempo": 120.0
            },
            {
                "pitch": 81,
                "velocity": 1,
                "duration": 0.4068,
                "tempo": 120.0
            },
            {
                "pitch": 81,
                "velocity": 1,
                "duration": 0.3886,
                "tempo": 120.0
            },
            {
                "pitch": 74,
                "velocity": 1,
                "duration": 0.4227,
                "tempo": 120.0
            },
            {
                "pitch": 76,
                "velocity": 1,
                "duration": 1.0341,
                "tempo": 120.0
            },
            {
                "pitch": 72,
                "velocity": 1,
                "duration": 0.3091,
                "tempo": 120.0
            },
            {
                "pitch": 72,
                "velocity": 1,
                "duration": 0.0159,
                "tempo": 120.0
            },
            {
                "pitch": 76,
                "velocity": 1,
                "duration": 0.6341,
                "tempo": 120.0
            },
            {
                "pitch": 79,
                "velocity": 1,
                "duration": 0.6568,
                "tempo": 120.0
            },
            {
                "pitch": 78,
                "velocity": 1,
                "duration": 1.2636,
                "tempo": 120.0
            },
            {
                "pitch": 78,
                "velocity": 1,
                "duration": 0.0159,
                "tempo": 120.0
            },
            {
                "pitch": 74,
                "velocity": 1,
                "duration": 0.6545,
                "tempo": 120.0
            },
            {
                "pitch": 71,
                "velocity": 1,
                "duration": 0.6523,
                "tempo": 120.0
            },
            {
                "pitch": 71,
                "velocity": 1,
                "duration": 0.9364,
                "tempo": 120.0
            },
            {
                "pitch": 69,
                "velocity": 1,
                "duration": 0.3114,
                "tempo": 120.0
            },
            {
                "pitch": 69,
                "velocity": 1,
                "duration": 0.0136,
                "tempo": 120.0
            },
            {
                "pitch": 72,
                "velocity": 1,
                "duration": 0.6341,
                "tempo": 120.0
            },
            {
                "pitch": 76,
                "velocity": 1,
                "duration": 0.675,
                "tempo": 120.0
            },
            {
                "pitch": 76,
                "velocity": 1,
                "duration": 0.9568,
                "tempo": 120.0
            },
            {
                "pitch": 74,
                "velocity": 1,
                "duration": 0.1568,
                "tempo": 120.0
            },
            {
                "pitch": 74,
                "velocity": 1,
                "duration": 0.1545,
                "tempo": 120.0
            },
            {
                "pitch": 0,
                "velocity": 0,
                "duration": 0.0159,
                "tempo": 0
            },
            {
                "pitch": 72,
                "velocity": 1,
                "duration": 0.6341,
                "tempo": 120.0
            },
            {
                "pitch": 71,
                "velocity": 1,
                "duration": 0.65,
                "tempo": 120.0
            },
            {
                "pitch": 76,
                "velocity": 1,
                "duration": 2.0705,
                "tempo": 120.0
            },
            {
                "pitch": 76,
                "velocity": 1,
                "duration": 0.7477,
                "tempo": 120.0
            },
            {
                "pitch": 76,
                "velocity": 1,
                "duration": 1.5341,
                "tempo": 120.0
            },
            {
                "pitch": 74,
                "velocity": 1,
                "duration": 1.625,
                "tempo": 120.0
            },
            {
                "pitch": 76,
                "velocity": 1,
                "duration": 1.6364,
                "tempo": 120.0
            }
        ],
        "Acoustic Grand Piano": [
            {
                "pitch": 0,
                "velocity": 0,
                "duration": 20.3,
                "tempo": 0
            },
            {
                "pitch": 108,
                "velocity": 15,
                "duration": 0.1,
                "tempo": 120.0
            }
        ]
    }
}