{
    "track_id": "Power Strike, Aleste (FM) - 14 - Again_15",
    "mood": "relaxed",
    "instruments": {
        "Lead 1 (square)": [
            {
                "pitch": 0,
                "velocity": 0,
                "duration": 0.0318,
                "tempo": 0
            },
            {
                "pitch": 84,
                "velocity": 8,
                "duration": 0.3545,
                "tempo": 120.0
            },
            {
                "pitch": 84,
                "velocity": 8,
                "duration": 0.3818,
                "tempo": 120.0
            },
            {
                "pitch": 78,
                "velocity": 8,
                "duration": 0.3886,
                "tempo": 120.0
            },
            {
                "pitch": 81,
                "velocity": 8,
                "duration": 0.4045,
                "tempo": 120.0
            },
            {
                "pitch": 81,
                "velocity": 8,
                "duration": 0.3886,
                "tempo": 120.0
            },
            {
                "pitch": 74,
                "velocity": 8,
                "duration": 0.4136,
                "tempo": 120.0
            },
            {
                "pitch": 76,
                "velocity": 8,
                "duration": 1.025,
                "tempo": 120.0
            },
            {
                "pitch": 72,
                "velocity": 8,
                "duration": 0.3159,
                "tempo": 120.0
            },
            {
                "pitch": 76,
                "velocity": 8,
                "duration": 0.6477,
                "tempo": 120.0
            },
            {
                "pitch": 79,
                "velocity": 8,
                "duration": 0.6432,
                "tempo": 120.0
            },
            {
                "pitch": 78,
                "velocity": 8,
                "duration": 1.2841,
                "tempo": 120.0
            },
            {
                "pitch": 74,
                "velocity": 8,
                "duration": 0.6636,
                "tempo": 120.0
            },
            {
                "pitch": 71,
                "velocity": 8,
                "duration": 0.6364,
                "tempo": 120.0
            },
            {
                "pitch": 71,
                "velocity": 8,
                "duration": 0.9477,
                "tempo": 120.0
            },
            {
                "pitch": 69,
                "velocity": 8,
                "duration": 0.3159,
                "tempo": 120.0
            },
            {
                "pitch": 72,
                "velocity": 8,
                "duration": 0.6477,
                "tempo": 120.0
            },
            {
                "pitch": 76,
                "velocity": 8,
                "duration": 0.6636,
                "tempo": 120.0
            },
            {
                "pitch": 76,
                "velocity": 8,
                "duration": 0.9659,
                "tempo": 120.0
            },
            {
                "pitch": 74,
                "velocity": 8,
                "duration": 0.1545,
                "tempo": 120.0
            },
            {
                "pitch": 74,
                "velocity": 8,
                "duration": 0.1614,
                "tempo": 120.0
            },
            {
                "pitch": 72,
                "velocity": 8,
                "duration": 0.6455,
                "tempo": 120.0
            },
            {
                "pitch": 71,
                "velocity": 8,
                "duration": 0.6364,
                "tempo": 120.0
            },
            {
                "pitch": 76,
                "velocity": 8,
                "duration": 2.0977,
                "tempo": 120.0
            },
            {
                "pitch": 76,
                "velocity": 8,
                "duration": 0.7295,
                "tempo": 120.0
            },
            {
                "pitch": 76,
                "velocity": 8,
                "duration": 1.5568,
                "tempo": 120.0
            },
            {
                "pitch": 74,
                "velocity": 8,
                "duration": 1.6114,
                "tempo": 120.0
            },
            {
                "pitch": 76,
                "velocity": 8,
                "duration": 1.6523,
                "tempo": 120.0
            }
        ],
        "Lead 2 (sawtooth)": [
            {
                "pitch": 84,
                "velocity": 10,
                "duration": 0.3682,
                "tempo": 120.0
            },
            {
                "pitch": 84,
                "velocity": 10,
                "duration": 0.3659,
                "tempo": 120.0
            },
            {
                "pitch": 78,
                "velocity": 10,
                "duration": 0.4045,
                "tempo": 120.0
            },
            {
                "pitch": 81,
                "velocity": 10,
                "duration": 0.3886,
                "tempo": 120.0
            },
            {
                "pitch": 79,
                "velocity": 10,
                "duration": 0.0705,
                "tempo": 120.0
            },
            {
                "pitch": 79,
                "velocity": 10,
                "duration": 0.1409,
                "tempo": 120.0
            },
            {
                "pitch": 79,
                "velocity": 10,
                "duration": 0.1409,
                "tempo": 120.0
            },
            {
                "pitch": 79,
                "velocity": 10,
                "duration": 0.0523,
                "tempo": 120.0
            }
        ],
        "Synth Bass 1": [
            {
                "pitch": 0,
                "velocity": 0,
                "duration": 2.2136,
                "tempo": 0
            },
            {
                "pitch": 55,
                "velocity": 1,
                "duration": 1.3614,
                "tempo": 120.0
            },
            {
                "pitch": 48,
                "velocity": 1,
                "duration": 0.65,
                "tempo": 120.0
            },
            {
                "pitch": 52,
                "velocity": 1,
                "duration": 0.6409,
                "tempo": 120.0
            },
            {
                "pitch": 54,
                "velocity": 1,
                "duration": 1.2773,
                "tempo": 120.0
            },
            {
                "pitch": 50,
                "velocity": 1,
                "duration": 1.3068,
                "tempo": 120.0
            },
            {
                "pitch": 52,
                "velocity": 1,
                "duration": 1.2636,
                "tempo": 120.0
            },
            {
                "pitch": 45,
                "velocity": 1,
                "duration": 0.3091,
                "tempo": 120.0
            },
            {
                "pitch": 0,
                "velocity": 0,
                "duration": 0.0159,
                "tempo": 0
            },
            {
                "pitch": 48,
                "velocity": 1,
                "duration": 0.325,
                "tempo": 120.0
            },
            {
                "pitch": 52,
                "velocity": 1,
                "duration": 0.3045,
                "tempo": 120.0
            },
            {
                "pitch": 0,
                "velocity": 0,
                "duration": 0.0159,
                "tempo": 0
            },
            {
                "pitch": 59,
                "velocity": 1,
                "duration": 0.3364,
                "tempo": 120.0
            },
            {
                "pitch": 50,
                "velocity": 1,
                "duration": 1.2864,
                "tempo": 120.0
            },
            {
                "pitch": 47,
                "velocity": 1,
                "duration": 1.2841,
                "tempo": 120.0
            },
            {
                "pitch": 55,
                "velocity": 1,
                "duration": 2.8182,
                "tempo": 120.0
            },
            {
                "pitch": 54,
                "velocity": 1,
                "duration": 3.1568,
                "tempo": 120.0
            }
        ],
        "Acoustic Grand Piano": [
            {
                "pitch": 0,
                "velocity": 0,
                "duration": 20.3659,
                "tempo": 0
            },
            {
                "pitch": 108,
                "velocity": 15,
                "duration": 0.1,
                "tempo": 120.0
            }
        ]
    }
}