{
    "mood": "sad",
    "instruments": {
        "Flute": [
            {
                "start_time": 0.4522727,
                "end_time": 0.5909091,
                "pitch": 65,
                "velocity": 127,
                "duration": 0.1386364,
                "tempo": 120.0
            },
            {
                "start_time": 0.6272727,
                "end_time": 0.8363636,
                "pitch": 68,
                "velocity": 127,
                "duration": 0.2090909,
                "tempo": 120.0
            },
            {
                "start_time": 0.8727273,
                "end_time": 1.0659091,
                "pitch": 66,
                "velocity": 127,
                "duration": 0.1931818,
                "tempo": 120.0
            },
            {
                "start_time": 1.1,
                "end_time": 3.0636364,
                "pitch": 73,
                "velocity": 127,
                "duration": 1.9636364,
                "tempo": 120.0
            },
            {
                "start_time": 3.1113636,
                "end_time": 3.1795455,
                "pitch": 73,
                "velocity": 127,
                "duration": 0.0681818,
                "tempo": 120.0
            },
            {
                "start_time": 3.1954545,
                "end_time": 3.3136364,
                "pitch": 72,
                "velocity": 127,
                "duration": 0.1181818,
                "tempo": 120.0
            },
            {
                "start_time": 3.3477273,
                "end_time": 3.5522727,
                "pitch": 71,
                "velocity": 127,
                "duration": 0.2045455,
                "tempo": 120.0
            },
            {
                "start_time": 3.5681818,
                "end_time": 3.7727273,
                "pitch": 71,
                "velocity": 127,
                "duration": 0.2045455,
                "tempo": 120.0
            },
            {
                "start_time": 3.8045455,
                "end_time": 4.275,
                "pitch": 69,
                "velocity": 127,
                "duration": 0.4704545,
                "tempo": 120.0
            },
            {
                "start_time": 4.3090909,
                "end_time": 4.7977273,
                "pitch": 66,
                "velocity": 127,
                "duration": 0.4886364,
                "tempo": 120.0
            },
            {
                "start_time": 0.6272727,
                "end_time": 4.8136364,
                "pitch": 79,
                "velocity": 127,
                "duration": 4.1863636,
                "tempo": 120.0
            },
            {
                "start_time": 4.8136364,
                "end_time": 5.1363636,
                "pitch": 69,
                "velocity": 127,
                "duration": 0.3227273,
                "tempo": 120.0
            },
            {
                "start_time": 5.1704545,
                "end_time": 10.5636364,
                "pitch": 66,
                "velocity": 127,
                "duration": 5.3931818,
                "tempo": 120.0
            },
            {
                "start_time": 11.2477273,
                "end_time": 11.2818182,
                "pitch": 66,
                "velocity": 127,
                "duration": 0.0340909,
                "tempo": 120.0
            },
            {
                "start_time": 11.3136364,
                "end_time": 11.4477273,
                "pitch": 65,
                "velocity": 127,
                "duration": 0.1340909,
                "tempo": 120.0
            },
            {
                "start_time": 4.8136364,
                "end_time": 11.4818182,
                "pitch": 79,
                "velocity": 127,
                "duration": 6.6681818,
                "tempo": 120.0
            },
            {
                "start_time": 11.4818182,
                "end_time": 11.6840909,
                "pitch": 68,
                "velocity": 127,
                "duration": 0.2022727,
                "tempo": 120.0
            },
            {
                "start_time": 11.7,
                "end_time": 11.9,
                "pitch": 66,
                "velocity": 127,
                "duration": 0.2,
                "tempo": 120.0
            },
            {
                "start_time": 1.1,
                "end_time": 11.9340909,
                "pitch": 78,
                "velocity": 127,
                "duration": 10.8340909,
                "tempo": 120.0
            },
            {
                "start_time": 11.9340909,
                "end_time": 13.9181818,
                "pitch": 73,
                "velocity": 127,
                "duration": 1.9840909,
                "tempo": 120.0
            },
            {
                "start_time": 13.9681818,
                "end_time": 14.0022727,
                "pitch": 80,
                "velocity": 127,
                "duration": 0.0340909,
                "tempo": 120.0
            },
            {
                "start_time": 14.0181818,
                "end_time": 14.1704545,
                "pitch": 80,
                "velocity": 127,
                "duration": 0.1522727,
                "tempo": 120.0
            },
            {
                "start_time": 14.2045455,
                "end_time": 14.3909091,
                "pitch": 81,
                "velocity": 127,
                "duration": 0.1863636,
                "tempo": 120.0
            },
            {
                "start_time": 11.9340909,
                "end_time": 14.6272727,
                "pitch": 78,
                "velocity": 127,
                "duration": 2.6931818,
                "tempo": 120.0
            },
            {
                "start_time": 14.425,
                "end_time": 14.6272727,
                "pitch": 78,
                "velocity": 127,
                "duration": 0.2022727,
                "tempo": 120.0
            },
            {
                "start_time": 14.6613636,
                "end_time": 15.1363636,
                "pitch": 83,
                "velocity": 127,
                "duration": 0.475,
                "tempo": 120.0
            },
            {
                "start_time": 15.1704545,
                "end_time": 15.6409091,
                "pitch": 83,
                "velocity": 127,
                "duration": 0.4704545,
                "tempo": 120.0
            },
            {
                "start_time": 4.3090909,
                "end_time": 15.675,
                "pitch": 44,
                "velocity": 127,
                "duration": 11.3659091,
                "tempo": 120.0
            },
            {
                "start_time": 15.675,
                "end_time": 21.4204545,
                "pitch": 78,
                "velocity": 127,
                "duration": 5.7454545,
                "tempo": 120.0
            },
            {
                "start_time": 21.4545455,
                "end_time": 21.5045455,
                "pitch": 78,
                "velocity": 127,
                "duration": 0.05,
                "tempo": 120.0
            },
            {
                "start_time": 21.5363636,
                "end_time": 21.6522727,
                "pitch": 77,
                "velocity": 127,
                "duration": 0.1159091,
                "tempo": 120.0
            },
            {
                "start_time": 21.6704545,
                "end_time": 21.8681818,
                "pitch": 73,
                "velocity": 127,
                "duration": 0.1977273,
                "tempo": 120.0
            },
            {
                "start_time": 21.6704545,
                "end_time": 22.0840909,
                "pitch": 78,
                "velocity": 127,
                "duration": 0.4136364,
                "tempo": 120.0
            },
            {
                "start_time": 21.9022727,
                "end_time": 22.0840909,
                "pitch": 78,
                "velocity": 127,
                "duration": 0.1818182,
                "tempo": 120.0
            },
            {
                "start_time": 22.1159091,
                "end_time": 22.3204545,
                "pitch": 78,
                "velocity": 127,
                "duration": 0.2045455,
                "tempo": 120.0
            },
            {
                "start_time": 21.9022727,
                "end_time": 22.5386364,
                "pitch": 73,
                "velocity": 127,
                "duration": 0.6363636,
                "tempo": 120.0
            },
            {
                "start_time": 22.3545455,
                "end_time": 22.5386364,
                "pitch": 73,
                "velocity": 127,
                "duration": 0.1840909,
                "tempo": 120.0
            },
            {
                "start_time": 22.3545455,
                "end_time": 22.7772727,
                "pitch": 77,
                "velocity": 127,
                "duration": 0.4227273,
                "tempo": 120.0
            },
            {
                "start_time": 22.5727273,
                "end_time": 22.7772727,
                "pitch": 77,
                "velocity": 127,
                "duration": 0.2045455,
                "tempo": 120.0
            },
            {
                "start_time": 22.8113636,
                "end_time": 22.9954545,
                "pitch": 77,
                "velocity": 127,
                "duration": 0.1840909,
                "tempo": 120.0
            },
            {
                "start_time": 3.3477273,
                "end_time": 23.0272727,
                "pitch": 76,
                "velocity": 127,
                "duration": 19.6795455,
                "tempo": 120.0
            },
            {
                "start_time": 23.0272727,
                "end_time": 23.2295455,
                "pitch": 73,
                "velocity": 127,
                "duration": 0.2022727,
                "tempo": 120.0
            },
            {
                "start_time": 23.0272727,
                "end_time": 23.4477273,
                "pitch": 76,
                "velocity": 127,
                "duration": 0.4204545,
                "tempo": 120.0
            },
            {
                "start_time": 23.2636364,
                "end_time": 23.4477273,
                "pitch": 76,
                "velocity": 127,
                "duration": 0.1840909,
                "tempo": 120.0
            },
            {
                "start_time": 23.4795455,
                "end_time": 23.6840909,
                "pitch": 76,
                "velocity": 127,
                "duration": 0.2045455,
                "tempo": 120.0
            },
            {
                "start_time": 23.7,
                "end_time": 23.9045455,
                "pitch": 71,
                "velocity": 127,
                "duration": 0.2045455,
                "tempo": 120.0
            },
            {
                "start_time": 23.9363636,
                "end_time": 24.1409091,
                "pitch": 75,
                "velocity": 127,
                "duration": 0.2045455,
                "tempo": 120.0
            },
            {
                "start_time": 23.7,
                "end_time": 24.1568182,
                "pitch": 77,
                "velocity": 127,
                "duration": 0.4568182,
                "tempo": 120.0
            },
            {
                "start_time": 24.1568182,
                "end_time": 24.6386364,
                "pitch": 69,
                "velocity": 127,
                "duration": 0.4818182,
                "tempo": 120.0
            },
            {
                "start_time": 24.6704545,
                "end_time": 25.1409091,
                "pitch": 69,
                "velocity": 127,
                "duration": 0.4704545,
                "tempo": 120.0
            },
            {
                "start_time": 25.175,
                "end_time": 25.4977273,
                "pitch": 69,
                "velocity": 127,
                "duration": 0.3227273,
                "tempo": 120.0
            },
            {
                "start_time": 25.5136364,
                "end_time": 25.9931818,
                "pitch": 69,
                "velocity": 127,
                "duration": 0.4795455,
                "tempo": 120.0
            },
            {
                "start_time": 26.0272727,
                "end_time": 26.5045455,
                "pitch": 71,
                "velocity": 127,
                "duration": 0.4772727,
                "tempo": 120.0
            },
            {
                "start_time": 26.5386364,
                "end_time": 26.85,
                "pitch": 71,
                "velocity": 127,
                "duration": 0.3113636,
                "tempo": 120.0
            },
            {
                "start_time": 26.8863636,
                "end_time": 26.9363636,
                "pitch": 67,
                "velocity": 127,
                "duration": 0.05,
                "tempo": 120.0
            },
            {
                "start_time": 26.9681818,
                "end_time": 29.5204545,
                "pitch": 67,
                "velocity": 127,
                "duration": 2.5522727,
                "tempo": 120.0
            },
            {
                "start_time": 11.7,
                "end_time": 29.6045455,
                "pitch": 21,
                "velocity": 127,
                "duration": 17.9045455,
                "tempo": 120.0
            },
            {
                "start_time": 29.6045455,
                "end_time": 32.3,
                "pitch": 66,
                "velocity": 127,
                "duration": 2.6954545,
                "tempo": 120.0
            },
            {
                "start_time": 32.9818182,
                "end_time": 32.9954545,
                "pitch": 66,
                "velocity": 127,
                "duration": 0.0136364,
                "tempo": 120.0
            }
        ],
        "Harpsichord": [
            {
                "start_time": 11.4318182,
                "end_time": 12.0522727,
                "pitch": 54,
                "velocity": 101,
                "duration": 0.6204545,
                "tempo": 120.0
            },
            {
                "start_time": 12.1045455,
                "end_time": 12.5954545,
                "pitch": 56,
                "velocity": 101,
                "duration": 0.4909091,
                "tempo": 120.0
            },
            {
                "start_time": 12.7795455,
                "end_time": 13.3977273,
                "pitch": 56,
                "velocity": 101,
                "duration": 0.6181818,
                "tempo": 120.0
            },
            {
                "start_time": 13.4659091,
                "end_time": 13.6659091,
                "pitch": 57,
                "velocity": 101,
                "duration": 0.2,
                "tempo": 120.0
            },
            {
                "start_time": 13.6840909,
                "end_time": 13.8840909,
                "pitch": 57,
                "velocity": 101,
                "duration": 0.2,
                "tempo": 120.0
            },
            {
                "start_time": 13.9181818,
                "end_time": 14.1204545,
                "pitch": 56,
                "velocity": 101,
                "duration": 0.2022727,
                "tempo": 120.0
            },
            {
                "start_time": 14.1363636,
                "end_time": 14.3409091,
                "pitch": 59,
                "velocity": 101,
                "duration": 0.2045455,
                "tempo": 120.0
            },
            {
                "start_time": 14.1363636,
                "end_time": 14.5613636,
                "pitch": 57,
                "velocity": 101,
                "duration": 0.425,
                "tempo": 120.0
            },
            {
                "start_time": 14.375,
                "end_time": 14.5613636,
                "pitch": 57,
                "velocity": 101,
                "duration": 0.1863636,
                "tempo": 120.0
            },
            {
                "start_time": 14.375,
                "end_time": 14.7977273,
                "pitch": 59,
                "velocity": 101,
                "duration": 0.4227273,
                "tempo": 120.0
            },
            {
                "start_time": 14.5954545,
                "end_time": 14.7977273,
                "pitch": 59,
                "velocity": 101,
                "duration": 0.2022727,
                "tempo": 120.0
            },
            {
                "start_time": 14.8318182,
                "end_time": 15.3045455,
                "pitch": 60,
                "velocity": 101,
                "duration": 0.4727273,
                "tempo": 120.0
            },
            {
                "start_time": 15.3386364,
                "end_time": 15.825,
                "pitch": 59,
                "velocity": 101,
                "duration": 0.4863636,
                "tempo": 120.0
            },
            {
                "start_time": 14.5954545,
                "end_time": 16.1590909,
                "pitch": 57,
                "velocity": 101,
                "duration": 1.5636364,
                "tempo": 120.0
            },
            {
                "start_time": 15.8431818,
                "end_time": 16.1590909,
                "pitch": 57,
                "velocity": 101,
                "duration": 0.3159091,
                "tempo": 120.0
            },
            {
                "start_time": 16.175,
                "end_time": 18.1818182,
                "pitch": 57,
                "velocity": 101,
                "duration": 2.0068182,
                "tempo": 120.0
            },
            {
                "start_time": 18.2159091,
                "end_time": 18.8522727,
                "pitch": 56,
                "velocity": 101,
                "duration": 0.6363636,
                "tempo": 120.0
            },
            {
                "start_time": 18.9022727,
                "end_time": 21.5863636,
                "pitch": 54,
                "velocity": 101,
                "duration": 2.6840909,
                "tempo": 120.0
            },
            {
                "start_time": 12.1045455,
                "end_time": 21.6204545,
                "pitch": 66,
                "velocity": 101,
                "duration": 9.5159091,
                "tempo": 120.0
            },
            {
                "start_time": 21.6204545,
                "end_time": 21.7863636,
                "pitch": 57,
                "velocity": 101,
                "duration": 0.1659091,
                "tempo": 120.0
            },
            {
                "start_time": 18.9022727,
                "end_time": 21.8363636,
                "pitch": 19,
                "velocity": 101,
                "duration": 2.9340909,
                "tempo": 120.0
            },
            {
                "start_time": 21.8363636,
                "end_time": 22.0,
                "pitch": 54,
                "velocity": 101,
                "duration": 0.1636364,
                "tempo": 120.0
            },
            {
                "start_time": 21.6204545,
                "end_time": 22.0681818,
                "pitch": 66,
                "velocity": 101,
                "duration": 0.4477273,
                "tempo": 120.0
            },
            {
                "start_time": 22.0681818,
                "end_time": 22.2681818,
                "pitch": 57,
                "velocity": 101,
                "duration": 0.2,
                "tempo": 120.0
            },
            {
                "start_time": 22.2863636,
                "end_time": 22.4545455,
                "pitch": 57,
                "velocity": 101,
                "duration": 0.1681818,
                "tempo": 120.0
            },
            {
                "start_time": 21.8363636,
                "end_time": 22.5227273,
                "pitch": 19,
                "velocity": 101,
                "duration": 0.6863636,
                "tempo": 120.0
            },
            {
                "start_time": 22.5227273,
                "end_time": 22.6931818,
                "pitch": 54,
                "velocity": 101,
                "duration": 0.1704545,
                "tempo": 120.0
            },
            {
                "start_time": 22.7431818,
                "end_time": 22.9454545,
                "pitch": 57,
                "velocity": 101,
                "duration": 0.2022727,
                "tempo": 120.0
            },
            {
                "start_time": 22.9795455,
                "end_time": 23.1454545,
                "pitch": 57,
                "velocity": 101,
                "duration": 0.1659091,
                "tempo": 120.0
            },
            {
                "start_time": 22.5227273,
                "end_time": 23.1954545,
                "pitch": 19,
                "velocity": 101,
                "duration": 0.6727273,
                "tempo": 120.0
            },
            {
                "start_time": 23.1954545,
                "end_time": 23.3636364,
                "pitch": 54,
                "velocity": 101,
                "duration": 0.1681818,
                "tempo": 120.0
            },
            {
                "start_time": 22.0681818,
                "end_time": 23.4295455,
                "pitch": 66,
                "velocity": 101,
                "duration": 1.3613636,
                "tempo": 120.0
            },
            {
                "start_time": 23.4295455,
                "end_time": 23.6159091,
                "pitch": 57,
                "velocity": 101,
                "duration": 0.1863636,
                "tempo": 120.0
            },
            {
                "start_time": 23.65,
                "end_time": 23.8181818,
                "pitch": 57,
                "velocity": 101,
                "duration": 0.1681818,
                "tempo": 120.0
            },
            {
                "start_time": 23.1954545,
                "end_time": 23.8863636,
                "pitch": 19,
                "velocity": 101,
                "duration": 0.6909091,
                "tempo": 120.0
            },
            {
                "start_time": 23.8863636,
                "end_time": 24.0568182,
                "pitch": 54,
                "velocity": 101,
                "duration": 0.1704545,
                "tempo": 120.0
            },
            {
                "start_time": 23.4295455,
                "end_time": 24.1068182,
                "pitch": 66,
                "velocity": 101,
                "duration": 0.6772727,
                "tempo": 120.0
            },
            {
                "start_time": 24.1068182,
                "end_time": 24.3068182,
                "pitch": 57,
                "velocity": 101,
                "duration": 0.2,
                "tempo": 120.0
            },
            {
                "start_time": 23.8863636,
                "end_time": 24.3409091,
                "pitch": 19,
                "velocity": 101,
                "duration": 0.4545455,
                "tempo": 120.0
            },
            {
                "start_time": 24.3409091,
                "end_time": 24.9545455,
                "pitch": 52,
                "velocity": 101,
                "duration": 0.6136364,
                "tempo": 120.0
            },
            {
                "start_time": 25.0068182,
                "end_time": 25.6295455,
                "pitch": 52,
                "velocity": 101,
                "duration": 0.6227273,
                "tempo": 120.0
            },
            {
                "start_time": 25.6795455,
                "end_time": 26.2954545,
                "pitch": 52,
                "velocity": 101,
                "duration": 0.6159091,
                "tempo": 120.0
            },
            {
                "start_time": 26.3659091,
                "end_time": 27.0022727,
                "pitch": 53,
                "velocity": 101,
                "duration": 0.6363636,
                "tempo": 120.0
            },
            {
                "start_time": 27.0522727,
                "end_time": 29.7386364,
                "pitch": 53,
                "velocity": 101,
                "duration": 2.6863636,
                "tempo": 120.0
            }
        ],
        "Electric Guitar (clean)": [
            {
                "start_time": 0.1,
                "end_time": 1.2136364,
                "pitch": 30,
                "velocity": 80,
                "duration": 1.1136364,
                "tempo": 120.0
            },
            {
                "start_time": 1.2636364,
                "end_time": 2.3590909,
                "pitch": 30,
                "velocity": 80,
                "duration": 1.0954545,
                "tempo": 120.0
            },
            {
                "start_time": 2.3590909,
                "end_time": 2.5772727,
                "pitch": 27,
                "velocity": 80,
                "duration": 0.2181818,
                "tempo": 120.0
            },
            {
                "start_time": 2.6272727,
                "end_time": 3.9227273,
                "pitch": 28,
                "velocity": 80,
                "duration": 1.2954545,
                "tempo": 120.0
            },
            {
                "start_time": 3.9727273,
                "end_time": 5.2704545,
                "pitch": 27,
                "velocity": 80,
                "duration": 1.2977273,
                "tempo": 120.0
            },
            {
                "start_time": 5.3386364,
                "end_time": 6.6295455,
                "pitch": 30,
                "velocity": 80,
                "duration": 1.2909091,
                "tempo": 120.0
            },
            {
                "start_time": 6.6954545,
                "end_time": 7.7863636,
                "pitch": 30,
                "velocity": 80,
                "duration": 1.0909091,
                "tempo": 120.0
            },
            {
                "start_time": 7.7863636,
                "end_time": 7.9863636,
                "pitch": 27,
                "velocity": 80,
                "duration": 0.2,
                "tempo": 120.0
            },
            {
                "start_time": 8.0340909,
                "end_time": 9.35,
                "pitch": 28,
                "velocity": 80,
                "duration": 1.3159091,
                "tempo": 120.0
            },
            {
                "start_time": 9.3977273,
                "end_time": 10.7136364,
                "pitch": 27,
                "velocity": 80,
                "duration": 1.3159091,
                "tempo": 120.0
            },
            {
                "start_time": 5.3386364,
                "end_time": 10.7613636,
                "pitch": 26,
                "velocity": 80,
                "duration": 5.4227273,
                "tempo": 120.0
            },
            {
                "start_time": 10.7613636,
                "end_time": 12.0522727,
                "pitch": 30,
                "velocity": 80,
                "duration": 1.2909091,
                "tempo": 120.0
            },
            {
                "start_time": 12.1045455,
                "end_time": 13.1977273,
                "pitch": 30,
                "velocity": 80,
                "duration": 1.0931818,
                "tempo": 120.0
            },
            {
                "start_time": 13.1977273,
                "end_time": 13.3977273,
                "pitch": 27,
                "velocity": 80,
                "duration": 0.2,
                "tempo": 120.0
            },
            {
                "start_time": 13.4659091,
                "end_time": 14.7636364,
                "pitch": 28,
                "velocity": 80,
                "duration": 1.2977273,
                "tempo": 120.0
            },
            {
                "start_time": 14.8318182,
                "end_time": 16.125,
                "pitch": 27,
                "velocity": 80,
                "duration": 1.2931818,
                "tempo": 120.0
            },
            {
                "start_time": 10.7613636,
                "end_time": 16.175,
                "pitch": 26,
                "velocity": 80,
                "duration": 5.4136364,
                "tempo": 120.0
            },
            {
                "start_time": 16.175,
                "end_time": 17.4931818,
                "pitch": 30,
                "velocity": 80,
                "duration": 1.3181818,
                "tempo": 120.0
            },
            {
                "start_time": 17.5431818,
                "end_time": 18.6318182,
                "pitch": 30,
                "velocity": 80,
                "duration": 1.0886364,
                "tempo": 120.0
            },
            {
                "start_time": 18.6318182,
                "end_time": 18.8522727,
                "pitch": 27,
                "velocity": 80,
                "duration": 0.2204545,
                "tempo": 120.0
            },
            {
                "start_time": 18.9022727,
                "end_time": 20.2090909,
                "pitch": 28,
                "velocity": 80,
                "duration": 1.3068182,
                "tempo": 120.0
            },
            {
                "start_time": 20.2590909,
                "end_time": 21.5545455,
                "pitch": 27,
                "velocity": 80,
                "duration": 1.2954545,
                "tempo": 120.0
            },
            {
                "start_time": 16.175,
                "end_time": 21.6204545,
                "pitch": 26,
                "velocity": 80,
                "duration": 5.4454545,
                "tempo": 120.0
            },
            {
                "start_time": 21.6204545,
                "end_time": 22.9113636,
                "pitch": 30,
                "velocity": 80,
                "duration": 1.2909091,
                "tempo": 120.0
            },
            {
                "start_time": 22.9795455,
                "end_time": 24.0727273,
                "pitch": 30,
                "velocity": 80,
                "duration": 1.0931818,
                "tempo": 120.0
            },
            {
                "start_time": 24.0727273,
                "end_time": 24.2727273,
                "pitch": 27,
                "velocity": 80,
                "duration": 0.2,
                "tempo": 120.0
            },
            {
                "start_time": 24.3409091,
                "end_time": 25.6295455,
                "pitch": 28,
                "velocity": 80,
                "duration": 1.2886364,
                "tempo": 120.0
            },
            {
                "start_time": 25.6795455,
                "end_time": 27.0022727,
                "pitch": 27,
                "velocity": 80,
                "duration": 1.3227273,
                "tempo": 120.0
            },
            {
                "start_time": 21.6204545,
                "end_time": 27.0522727,
                "pitch": 26,
                "velocity": 80,
                "duration": 5.4318182,
                "tempo": 120.0
            },
            {
                "start_time": 27.0522727,
                "end_time": 28.3795455,
                "pitch": 30,
                "velocity": 80,
                "duration": 1.3272727,
                "tempo": 120.0
            },
            {
                "start_time": 28.4272727,
                "end_time": 29.5045455,
                "pitch": 30,
                "velocity": 80,
                "duration": 1.0772727,
                "tempo": 120.0
            },
            {
                "start_time": 29.5045455,
                "end_time": 29.7204545,
                "pitch": 27,
                "velocity": 80,
                "duration": 0.2159091,
                "tempo": 120.0
            },
            {
                "start_time": 29.7704545,
                "end_time": 31.0772727,
                "pitch": 28,
                "velocity": 80,
                "duration": 1.3068182,
                "tempo": 120.0
            },
            {
                "start_time": 31.1454545,
                "end_time": 32.4295455,
                "pitch": 27,
                "velocity": 80,
                "duration": 1.2840909,
                "tempo": 120.0
            },
            {
                "start_time": 27.0522727,
                "end_time": 32.4954545,
                "pitch": 26,
                "velocity": 80,
                "duration": 5.4431818,
                "tempo": 120.0
            },
            {
                "start_time": 32.4954545,
                "end_time": 32.9954545,
                "pitch": 30,
                "velocity": 80,
                "duration": 0.5,
                "tempo": 120.0
            }
        ],
        "Vibraphone": [
            {
                "start_time": 1.7659091,
                "end_time": 3.0636364,
                "pitch": 33,
                "velocity": 6,
                "duration": 1.2977273,
                "tempo": 120.0
            },
            {
                "start_time": 3.1136364,
                "end_time": 4.425,
                "pitch": 33,
                "velocity": 6,
                "duration": 1.3113636,
                "tempo": 120.0
            },
            {
                "start_time": 4.475,
                "end_time": 5.7886364,
                "pitch": 33,
                "velocity": 6,
                "duration": 1.3136364,
                "tempo": 120.0
            },
            {
                "start_time": 5.8409091,
                "end_time": 7.1318182,
                "pitch": 33,
                "velocity": 6,
                "duration": 1.2909091,
                "tempo": 120.0
            },
            {
                "start_time": 7.1818182,
                "end_time": 8.4727273,
                "pitch": 33,
                "velocity": 6,
                "duration": 1.2909091,
                "tempo": 120.0
            },
            {
                "start_time": 8.5363636,
                "end_time": 9.1840909,
                "pitch": 33,
                "velocity": 6,
                "duration": 0.6477273,
                "tempo": 120.0
            },
            {
                "start_time": 9.9,
                "end_time": 10.0909091,
                "pitch": 33,
                "velocity": 4,
                "duration": 0.1909091,
                "tempo": 120.0
            },
            {
                "start_time": 10.1272727,
                "end_time": 10.3363636,
                "pitch": 33,
                "velocity": 6,
                "duration": 0.2090909,
                "tempo": 120.0
            },
            {
                "start_time": 10.3727273,
                "end_time": 10.5659091,
                "pitch": 33,
                "velocity": 6,
                "duration": 0.1931818,
                "tempo": 120.0
            },
            {
                "start_time": 11.2477273,
                "end_time": 12.5613636,
                "pitch": 33,
                "velocity": 6,
                "duration": 1.3136364,
                "tempo": 120.0
            },
            {
                "start_time": 12.6113636,
                "end_time": 13.9181818,
                "pitch": 33,
                "velocity": 6,
                "duration": 1.3068182,
                "tempo": 120.0
            },
            {
                "start_time": 13.9681818,
                "end_time": 15.2886364,
                "pitch": 33,
                "velocity": 6,
                "duration": 1.3204545,
                "tempo": 120.0
            },
            {
                "start_time": 15.3409091,
                "end_time": 16.6227273,
                "pitch": 33,
                "velocity": 6,
                "duration": 1.2818182,
                "tempo": 120.0
            },
            {
                "start_time": 16.6886364,
                "end_time": 17.9795455,
                "pitch": 33,
                "velocity": 6,
                "duration": 1.2909091,
                "tempo": 120.0
            },
            {
                "start_time": 18.0454545,
                "end_time": 19.3477273,
                "pitch": 33,
                "velocity": 6,
                "duration": 1.3022727,
                "tempo": 120.0
            },
            {
                "start_time": 19.3977273,
                "end_time": 20.0409091,
                "pitch": 33,
                "velocity": 6,
                "duration": 0.6431818,
                "tempo": 120.0
            },
            {
                "start_time": 20.7613636,
                "end_time": 20.9636364,
                "pitch": 33,
                "velocity": 4,
                "duration": 0.2022727,
                "tempo": 120.0
            },
            {
                "start_time": 20.9977273,
                "end_time": 21.2,
                "pitch": 33,
                "velocity": 6,
                "duration": 0.2022727,
                "tempo": 120.0
            },
            {
                "start_time": 21.2181818,
                "end_time": 21.4204545,
                "pitch": 33,
                "velocity": 6,
                "duration": 0.2022727,
                "tempo": 120.0
            },
            {
                "start_time": 22.1181818,
                "end_time": 23.4295455,
                "pitch": 33,
                "velocity": 6,
                "duration": 1.3113636,
                "tempo": 120.0
            },
            {
                "start_time": 23.4818182,
                "end_time": 24.7704545,
                "pitch": 33,
                "velocity": 6,
                "duration": 1.2886364,
                "tempo": 120.0
            },
            {
                "start_time": 24.8363636,
                "end_time": 26.1272727,
                "pitch": 33,
                "velocity": 6,
                "duration": 1.2909091,
                "tempo": 120.0
            },
            {
                "start_time": 26.1931818,
                "end_time": 27.4977273,
                "pitch": 33,
                "velocity": 6,
                "duration": 1.3045455,
                "tempo": 120.0
            },
            {
                "start_time": 27.5659091,
                "end_time": 28.8636364,
                "pitch": 33,
                "velocity": 6,
                "duration": 1.2977273,
                "tempo": 120.0
            },
            {
                "start_time": 28.9136364,
                "end_time": 30.2181818,
                "pitch": 33,
                "velocity": 6,
                "duration": 1.3045455,
                "tempo": 120.0
            },
            {
                "start_time": 30.2681818,
                "end_time": 30.9090909,
                "pitch": 33,
                "velocity": 6,
                "duration": 0.6409091,
                "tempo": 120.0
            },
            {
                "start_time": 31.6477273,
                "end_time": 31.8477273,
                "pitch": 33,
                "velocity": 4,
                "duration": 0.2,
                "tempo": 120.0
            },
            {
                "start_time": 31.8818182,
                "end_time": 32.0659091,
                "pitch": 33,
                "velocity": 6,
                "duration": 0.1840909,
                "tempo": 120.0
            },
            {
                "start_time": 32.1,
                "end_time": 32.3,
                "pitch": 33,
                "velocity": 6,
                "duration": 0.2,
                "tempo": 120.0
            },
            {
                "start_time": 32.9818182,
                "end_time": 32.9954545,
                "pitch": 33,
                "velocity": 6,
                "duration": 0.0136364,
                "tempo": 120.0
            }
        ]
    }
}