{
    "mood": "sad",
    "instruments": {
        "Acoustic Grand Piano": [
            {
                "start_time": 0.5340909,
                "end_time": 0.7840909,
                "pitch": 48,
                "velocity": 32,
                "duration": 0.25,
                "tempo": 120.0
            },
            {
                "start_time": 0.7840909,
                "end_time": 1.0227273,
                "pitch": 55,
                "velocity": 32,
                "duration": 0.2386364,
                "tempo": 120.0
            },
            {
                "start_time": 1.0227273,
                "end_time": 1.2613636,
                "pitch": 62,
                "velocity": 32,
                "duration": 0.2386364,
                "tempo": 120.0
            },
            {
                "start_time": 1.2613636,
                "end_time": 1.5181818,
                "pitch": 55,
                "velocity": 32,
                "duration": 0.2568182,
                "tempo": 120.0
            },
            {
                "start_time": 1.0227273,
                "end_time": 1.5181818,
                "pitch": 67,
                "velocity": 32,
                "duration": 0.4954545,
                "tempo": 120.0
            },
            {
                "start_time": 1.5181818,
                "end_time": 1.75,
                "pitch": 63,
                "velocity": 32,
                "duration": 0.2318182,
                "tempo": 120.0
            },
            {
                "start_time": 1.75,
                "end_time": 1.9840909,
                "pitch": 55,
                "velocity": 32,
                "duration": 0.2340909,
                "tempo": 120.0
            },
            {
                "start_time": 1.9840909,
                "end_time": 2.2113636,
                "pitch": 46,
                "velocity": 32,
                "duration": 0.2272727,
                "tempo": 120.0
            },
            {
                "start_time": 2.2113636,
                "end_time": 2.4568182,
                "pitch": 53,
                "velocity": 32,
                "duration": 0.2454545,
                "tempo": 120.0
            },
            {
                "start_time": 0.7840909,
                "end_time": 2.6886364,
                "pitch": 48,
                "velocity": 32,
                "duration": 1.9045455,
                "tempo": 120.0
            },
            {
                "start_time": 2.4568182,
                "end_time": 2.6886364,
                "pitch": 60,
                "velocity": 32,
                "duration": 0.2318182,
                "tempo": 120.0
            },
            {
                "start_time": 2.6886364,
                "end_time": 2.9227273,
                "pitch": 53,
                "velocity": 32,
                "duration": 0.2340909,
                "tempo": 120.0
            },
            {
                "start_time": 2.4568182,
                "end_time": 2.9227273,
                "pitch": 65,
                "velocity": 32,
                "duration": 0.4659091,
                "tempo": 120.0
            },
            {
                "start_time": 2.9227273,
                "end_time": 3.1659091,
                "pitch": 62,
                "velocity": 32,
                "duration": 0.2431818,
                "tempo": 120.0
            },
            {
                "start_time": 1.2613636,
                "end_time": 3.1681818,
                "pitch": 50,
                "velocity": 32,
                "duration": 1.9068182,
                "tempo": 120.0
            },
            {
                "start_time": 3.1681818,
                "end_time": 3.3977273,
                "pitch": 53,
                "velocity": 32,
                "duration": 0.2295455,
                "tempo": 120.0
            },
            {
                "start_time": 3.3977273,
                "end_time": 3.625,
                "pitch": 44,
                "velocity": 32,
                "duration": 0.2272727,
                "tempo": 120.0
            },
            {
                "start_time": 1.75,
                "end_time": 3.8545455,
                "pitch": 51,
                "velocity": 32,
                "duration": 2.1045455,
                "tempo": 120.0
            },
            {
                "start_time": 3.625,
                "end_time": 3.8545455,
                "pitch": 51,
                "velocity": 32,
                "duration": 0.2295455,
                "tempo": 120.0
            },
            {
                "start_time": 2.9227273,
                "end_time": 3.8545455,
                "pitch": 65,
                "velocity": 32,
                "duration": 0.9318182,
                "tempo": 120.0
            },
            {
                "start_time": 3.625,
                "end_time": 4.1,
                "pitch": 2,
                "velocity": 32,
                "duration": 0.475,
                "tempo": 120.0
            },
            {
                "start_time": 3.8545455,
                "end_time": 4.1,
                "pitch": 56,
                "velocity": 32,
                "duration": 0.2454545,
                "tempo": 120.0
            },
            {
                "start_time": 4.1,
                "end_time": 4.3295455,
                "pitch": 51,
                "velocity": 32,
                "duration": 0.2295455,
                "tempo": 120.0
            },
            {
                "start_time": 3.8545455,
                "end_time": 4.3295455,
                "pitch": 65,
                "velocity": 32,
                "duration": 0.475,
                "tempo": 120.0
            },
            {
                "start_time": 4.1,
                "end_time": 4.5613636,
                "pitch": 2,
                "velocity": 32,
                "duration": 0.4613636,
                "tempo": 120.0
            },
            {
                "start_time": 4.3295455,
                "end_time": 4.5613636,
                "pitch": 56,
                "velocity": 32,
                "duration": 0.2318182,
                "tempo": 120.0
            },
            {
                "start_time": 4.5613636,
                "end_time": 4.8113636,
                "pitch": 51,
                "velocity": 32,
                "duration": 0.25,
                "tempo": 120.0
            },
            {
                "start_time": 4.8113636,
                "end_time": 5.0431818,
                "pitch": 43,
                "velocity": 32,
                "duration": 0.2318182,
                "tempo": 120.0
            },
            {
                "start_time": 1.9840909,
                "end_time": 5.0431818,
                "pitch": 55,
                "velocity": 32,
                "duration": 3.0590909,
                "tempo": 120.0
            },
            {
                "start_time": 3.1681818,
                "end_time": 5.2795455,
                "pitch": 50,
                "velocity": 32,
                "duration": 2.1113636,
                "tempo": 120.0
            },
            {
                "start_time": 5.0431818,
                "end_time": 5.2795455,
                "pitch": 50,
                "velocity": 32,
                "duration": 0.2363636,
                "tempo": 120.0
            },
            {
                "start_time": 5.2795455,
                "end_time": 5.5090909,
                "pitch": 53,
                "velocity": 32,
                "duration": 0.2295455,
                "tempo": 120.0
            },
            {
                "start_time": 5.2795455,
                "end_time": 5.7545455,
                "pitch": 50,
                "velocity": 32,
                "duration": 0.475,
                "tempo": 120.0
            },
            {
                "start_time": 5.5090909,
                "end_time": 5.7545455,
                "pitch": 50,
                "velocity": 32,
                "duration": 0.2454545,
                "tempo": 120.0
            },
            {
                "start_time": 5.0431818,
                "end_time": 5.9863636,
                "pitch": 55,
                "velocity": 32,
                "duration": 0.9431818,
                "tempo": 120.0
            },
            {
                "start_time": 5.7545455,
                "end_time": 5.9863636,
                "pitch": 55,
                "velocity": 32,
                "duration": 0.2318182,
                "tempo": 120.0
            },
            {
                "start_time": 5.7545455,
                "end_time": 6.225,
                "pitch": 50,
                "velocity": 32,
                "duration": 0.4704545,
                "tempo": 120.0
            },
            {
                "start_time": 5.9886364,
                "end_time": 6.225,
                "pitch": 50,
                "velocity": 32,
                "duration": 0.2363636,
                "tempo": 120.0
            },
            {
                "start_time": 2.6886364,
                "end_time": 6.4681818,
                "pitch": 48,
                "velocity": 32,
                "duration": 3.7795455,
                "tempo": 120.0
            },
            {
                "start_time": 6.225,
                "end_time": 6.4681818,
                "pitch": 50,
                "velocity": 32,
                "duration": 0.2431818,
                "tempo": 120.0
            },
            {
                "start_time": 5.9886364,
                "end_time": 6.6977273,
                "pitch": 55,
                "velocity": 32,
                "duration": 0.7090909,
                "tempo": 120.0
            },
            {
                "start_time": 6.4681818,
                "end_time": 6.6977273,
                "pitch": 55,
                "velocity": 32,
                "duration": 0.2295455,
                "tempo": 120.0
            },
            {
                "start_time": 1.5181818,
                "end_time": 6.6977273,
                "pitch": 67,
                "velocity": 32,
                "duration": 5.1795455,
                "tempo": 120.0
            },
            {
                "start_time": 6.6977273,
                "end_time": 6.9318182,
                "pitch": 62,
                "velocity": 32,
                "duration": 0.2340909,
                "tempo": 120.0
            },
            {
                "start_time": 6.9318182,
                "end_time": 7.1659091,
                "pitch": 55,
                "velocity": 32,
                "duration": 0.2340909,
                "tempo": 120.0
            },
            {
                "start_time": 6.6977273,
                "end_time": 7.1659091,
                "pitch": 67,
                "velocity": 32,
                "duration": 0.4681818,
                "tempo": 120.0
            },
            {
                "start_time": 7.1659091,
                "end_time": 7.4113636,
                "pitch": 63,
                "velocity": 32,
                "duration": 0.2454545,
                "tempo": 120.0
            },
            {
                "start_time": 7.4113636,
                "end_time": 7.6409091,
                "pitch": 55,
                "velocity": 32,
                "duration": 0.2295455,
                "tempo": 120.0
            },
            {
                "start_time": 2.2113636,
                "end_time": 7.8727273,
                "pitch": 25,
                "velocity": 32,
                "duration": 5.6613636,
                "tempo": 120.0
            },
            {
                "start_time": 7.6409091,
                "end_time": 7.8727273,
                "pitch": 46,
                "velocity": 32,
                "duration": 0.2318182,
                "tempo": 120.0
            },
            {
                "start_time": 5.5090909,
                "end_time": 8.1227273,
                "pitch": 53,
                "velocity": 32,
                "duration": 2.6136364,
                "tempo": 120.0
            },
            {
                "start_time": 7.8727273,
                "end_time": 8.1227273,
                "pitch": 53,
                "velocity": 32,
                "duration": 0.25,
                "tempo": 120.0
            },
            {
                "start_time": 4.3295455,
                "end_time": 8.1227273,
                "pitch": 65,
                "velocity": 32,
                "duration": 3.7931818,
                "tempo": 120.0
            },
            {
                "start_time": 6.4681818,
                "end_time": 8.3568182,
                "pitch": 48,
                "velocity": 32,
                "duration": 1.8886364,
                "tempo": 120.0
            },
            {
                "start_time": 8.1227273,
                "end_time": 8.3568182,
                "pitch": 60,
                "velocity": 32,
                "duration": 0.2340909,
                "tempo": 120.0
            },
            {
                "start_time": 8.3568182,
                "end_time": 8.5909091,
                "pitch": 53,
                "velocity": 32,
                "duration": 0.2340909,
                "tempo": 120.0
            },
            {
                "start_time": 8.1227273,
                "end_time": 8.5909091,
                "pitch": 65,
                "velocity": 32,
                "duration": 0.4681818,
                "tempo": 120.0
            },
            {
                "start_time": 8.5909091,
                "end_time": 8.8136364,
                "pitch": 62,
                "velocity": 32,
                "duration": 0.2227273,
                "tempo": 120.0
            },
            {
                "start_time": 6.9318182,
                "end_time": 8.8159091,
                "pitch": 50,
                "velocity": 32,
                "duration": 1.8840909,
                "tempo": 120.0
            },
            {
                "start_time": 8.8136364,
                "end_time": 8.8159091,
                "pitch": 50,
                "velocity": 32,
                "duration": 0.0022727,
                "tempo": 120.0
            },
            {
                "start_time": 8.8159091,
                "end_time": 9.0545455,
                "pitch": 53,
                "velocity": 32,
                "duration": 0.2386364,
                "tempo": 120.0
            },
            {
                "start_time": 3.3977273,
                "end_time": 9.0568182,
                "pitch": 54,
                "velocity": 32,
                "duration": 5.6590909,
                "tempo": 120.0
            },
            {
                "start_time": 4.5613636,
                "end_time": 9.2886364,
                "pitch": 2,
                "velocity": 32,
                "duration": 4.7272727,
                "tempo": 120.0
            },
            {
                "start_time": 9.0568182,
                "end_time": 9.2886364,
                "pitch": 44,
                "velocity": 32,
                "duration": 0.2318182,
                "tempo": 120.0
            },
            {
                "start_time": 7.4113636,
                "end_time": 9.5227273,
                "pitch": 51,
                "velocity": 32,
                "duration": 2.1113636,
                "tempo": 120.0
            },
            {
                "start_time": 9.2886364,
                "end_time": 9.5227273,
                "pitch": 51,
                "velocity": 32,
                "duration": 0.2340909,
                "tempo": 120.0
            },
            {
                "start_time": 8.5909091,
                "end_time": 9.5227273,
                "pitch": 65,
                "velocity": 32,
                "duration": 0.9318182,
                "tempo": 120.0
            },
            {
                "start_time": 9.2886364,
                "end_time": 9.7681818,
                "pitch": 2,
                "velocity": 32,
                "duration": 0.4795455,
                "tempo": 120.0
            },
            {
                "start_time": 9.5227273,
                "end_time": 9.7681818,
                "pitch": 56,
                "velocity": 32,
                "duration": 0.2454545,
                "tempo": 120.0
            },
            {
                "start_time": 9.7681818,
                "end_time": 9.9977273,
                "pitch": 51,
                "velocity": 32,
                "duration": 0.2295455,
                "tempo": 120.0
            },
            {
                "start_time": 9.5227273,
                "end_time": 9.9977273,
                "pitch": 65,
                "velocity": 32,
                "duration": 0.475,
                "tempo": 120.0
            },
            {
                "start_time": 7.8727273,
                "end_time": 10.2318182,
                "pitch": 25,
                "velocity": 32,
                "duration": 2.3590909,
                "tempo": 120.0
            },
            {
                "start_time": 9.9977273,
                "end_time": 10.2318182,
                "pitch": 58,
                "velocity": 32,
                "duration": 0.2340909,
                "tempo": 120.0
            },
            {
                "start_time": 10.2318182,
                "end_time": 10.4681818,
                "pitch": 51,
                "velocity": 32,
                "duration": 0.2363636,
                "tempo": 120.0
            },
            {
                "start_time": 9.9977273,
                "end_time": 10.4681818,
                "pitch": 65,
                "velocity": 32,
                "duration": 0.4704545,
                "tempo": 120.0
            },
            {
                "start_time": 10.4681818,
                "end_time": 11.2318182,
                "pitch": 56,
                "velocity": 32,
                "duration": 0.7636364,
                "tempo": 120.0
            },
            {
                "start_time": 12.1181818,
                "end_time": 12.3613636,
                "pitch": 43,
                "velocity": 32,
                "duration": 0.2431818,
                "tempo": 120.0
            },
            {
                "start_time": 9.0568182,
                "end_time": 12.3613636,
                "pitch": 54,
                "velocity": 32,
                "duration": 3.3045455,
                "tempo": 120.0
            },
            {
                "start_time": 9.7681818,
                "end_time": 12.5909091,
                "pitch": 2,
                "velocity": 32,
                "duration": 2.8227273,
                "tempo": 120.0
            },
            {
                "start_time": 12.3613636,
                "end_time": 12.5909091,
                "pitch": 44,
                "velocity": 32,
                "duration": 0.2295455,
                "tempo": 120.0
            },
            {
                "start_time": 8.3568182,
                "end_time": 12.8227273,
                "pitch": 48,
                "velocity": 32,
                "duration": 4.4659091,
                "tempo": 120.0
            },
            {
                "start_time": 12.5909091,
                "end_time": 12.8227273,
                "pitch": 48,
                "velocity": 32,
                "duration": 0.2318182,
                "tempo": 120.0
            },
            {
                "start_time": 12.8227273,
                "end_time": 13.0568182,
                "pitch": 51,
                "velocity": 32,
                "duration": 0.2340909,
                "tempo": 120.0
            },
            {
                "start_time": 12.8227273,
                "end_time": 13.3022727,
                "pitch": 48,
                "velocity": 32,
                "duration": 0.4795455,
                "tempo": 120.0
            },
            {
                "start_time": 13.0568182,
                "end_time": 13.3022727,
                "pitch": 48,
                "velocity": 32,
                "duration": 0.2454545,
                "tempo": 120.0
            },
            {
                "start_time": 13.3022727,
                "end_time": 13.5318182,
                "pitch": 44,
                "velocity": 32,
                "duration": 0.2295455,
                "tempo": 120.0
            },
            {
                "start_time": 12.3613636,
                "end_time": 13.7659091,
                "pitch": 54,
                "velocity": 32,
                "duration": 1.4045455,
                "tempo": 120.0
            },
            {
                "start_time": 10.2318182,
                "end_time": 14.0159091,
                "pitch": 25,
                "velocity": 32,
                "duration": 3.7840909,
                "tempo": 120.0
            },
            {
                "start_time": 13.7659091,
                "end_time": 14.0159091,
                "pitch": 46,
                "velocity": 32,
                "duration": 0.25,
                "tempo": 120.0
            },
            {
                "start_time": 14.0159091,
                "end_time": 14.25,
                "pitch": 50,
                "velocity": 32,
                "duration": 0.2340909,
                "tempo": 120.0
            },
            {
                "start_time": 14.25,
                "end_time": 14.4863636,
                "pitch": 53,
                "velocity": 32,
                "duration": 0.2363636,
                "tempo": 120.0
            },
            {
                "start_time": 14.25,
                "end_time": 14.7159091,
                "pitch": 50,
                "velocity": 32,
                "duration": 0.4659091,
                "tempo": 120.0
            },
            {
                "start_time": 14.4863636,
                "end_time": 14.7159091,
                "pitch": 50,
                "velocity": 32,
                "duration": 0.2295455,
                "tempo": 120.0
            },
            {
                "start_time": 14.4863636,
                "end_time": 14.7159091,
                "pitch": 53,
                "velocity": 32,
                "duration": 0.2295455,
                "tempo": 120.0
            },
            {
                "start_time": 14.7159091,
                "end_time": 14.9613636,
                "pitch": 46,
                "velocity": 32,
                "duration": 0.2454545,
                "tempo": 120.0
            },
            {
                "start_time": 4.8113636,
                "end_time": 15.1931818,
                "pitch": 39,
                "velocity": 32,
                "duration": 10.3818182,
                "tempo": 120.0
            },
            {
                "start_time": 14.9613636,
                "end_time": 15.1931818,
                "pitch": 39,
                "velocity": 32,
                "duration": 0.2318182,
                "tempo": 120.0
            },
            {
                "start_time": 15.1931818,
                "end_time": 15.4295455,
                "pitch": 43,
                "velocity": 32,
                "duration": 0.2363636,
                "tempo": 120.0
            },
            {
                "start_time": 7.6409091,
                "end_time": 15.4295455,
                "pitch": 55,
                "velocity": 32,
                "duration": 7.7886364,
                "tempo": 120.0
            },
            {
                "start_time": 14.0159091,
                "end_time": 15.675,
                "pitch": 25,
                "velocity": 32,
                "duration": 1.6590909,
                "tempo": 120.0
            },
            {
                "start_time": 15.4295455,
                "end_time": 15.675,
                "pitch": 46,
                "velocity": 32,
                "duration": 0.2454545,
                "tempo": 120.0
            },
            {
                "start_time": 15.675,
                "end_time": 15.9022727,
                "pitch": 50,
                "velocity": 32,
                "duration": 0.2272727,
                "tempo": 120.0
            },
            {
                "start_time": 14.7159091,
                "end_time": 15.9022727,
                "pitch": 53,
                "velocity": 32,
                "duration": 1.1863636,
                "tempo": 120.0
            },
            {
                "start_time": 15.9022727,
                "end_time": 16.1340909,
                "pitch": 46,
                "velocity": 32,
                "duration": 0.2318182,
                "tempo": 120.0
            },
            {
                "start_time": 14.9613636,
                "end_time": 16.1363636,
                "pitch": 13,
                "velocity": 32,
                "duration": 1.175,
                "tempo": 120.0
            },
            {
                "start_time": 16.1363636,
                "end_time": 16.3704545,
                "pitch": 43,
                "velocity": 32,
                "duration": 0.2340909,
                "tempo": 120.0
            },
            {
                "start_time": 15.1931818,
                "end_time": 16.6068182,
                "pitch": 39,
                "velocity": 32,
                "duration": 1.4136364,
                "tempo": 120.0
            },
            {
                "start_time": 16.3704545,
                "end_time": 16.6068182,
                "pitch": 39,
                "velocity": 32,
                "duration": 0.2363636,
                "tempo": 120.0
            },
            {
                "start_time": 16.3704545,
                "end_time": 16.8318182,
                "pitch": 43,
                "velocity": 32,
                "duration": 0.4613636,
                "tempo": 120.0
            },
            {
                "start_time": 16.6068182,
                "end_time": 16.8318182,
                "pitch": 43,
                "velocity": 32,
                "duration": 0.225,
                "tempo": 120.0
            },
            {
                "start_time": 15.4295455,
                "end_time": 16.8318182,
                "pitch": 55,
                "velocity": 32,
                "duration": 1.4022727,
                "tempo": 120.0
            },
            {
                "start_time": 15.675,
                "end_time": 17.0704545,
                "pitch": 25,
                "velocity": 32,
                "duration": 1.3954545,
                "tempo": 120.0
            },
            {
                "start_time": 16.8318182,
                "end_time": 17.0704545,
                "pitch": 46,
                "velocity": 32,
                "duration": 0.2386364,
                "tempo": 120.0
            },
            {
                "start_time": 17.0704545,
                "end_time": 17.325,
                "pitch": 50,
                "velocity": 32,
                "duration": 0.2545455,
                "tempo": 120.0
            },
            {
                "start_time": 15.9022727,
                "end_time": 17.325,
                "pitch": 53,
                "velocity": 32,
                "duration": 1.4227273,
                "tempo": 120.0
            },
            {
                "start_time": 16.1363636,
                "end_time": 17.5590909,
                "pitch": 13,
                "velocity": 32,
                "duration": 1.4227273,
                "tempo": 120.0
            },
            {
                "start_time": 17.325,
                "end_time": 17.5590909,
                "pitch": 46,
                "velocity": 32,
                "duration": 0.2340909,
                "tempo": 120.0
            },
            {
                "start_time": 17.5590909,
                "end_time": 17.7954545,
                "pitch": 43,
                "velocity": 32,
                "duration": 0.2363636,
                "tempo": 120.0
            },
            {
                "start_time": 17.7954545,
                "end_time": 18.0181818,
                "pitch": 43,
                "velocity": 32,
                "duration": 0.2227273,
                "tempo": 120.0
            },
            {
                "start_time": 13.7659091,
                "end_time": 18.0181818,
                "pitch": 54,
                "velocity": 32,
                "duration": 4.2522727,
                "tempo": 120.0
            },
            {
                "start_time": 12.5909091,
                "end_time": 18.2568182,
                "pitch": 2,
                "velocity": 32,
                "duration": 5.6659091,
                "tempo": 120.0
            },
            {
                "start_time": 18.0181818,
                "end_time": 18.2568182,
                "pitch": 44,
                "velocity": 32,
                "duration": 0.2386364,
                "tempo": 120.0
            },
            {
                "start_time": 18.2568182,
                "end_time": 18.4886364,
                "pitch": 48,
                "velocity": 32,
                "duration": 0.2318182,
                "tempo": 120.0
            },
            {
                "start_time": 13.0568182,
                "end_time": 18.7227273,
                "pitch": 51,
                "velocity": 32,
                "duration": 5.6659091,
                "tempo": 120.0
            },
            {
                "start_time": 18.4886364,
                "end_time": 18.7227273,
                "pitch": 51,
                "velocity": 32,
                "duration": 0.2340909,
                "tempo": 120.0
            },
            {
                "start_time": 18.4886364,
                "end_time": 18.9681818,
                "pitch": 48,
                "velocity": 32,
                "duration": 0.4795455,
                "tempo": 120.0
            },
            {
                "start_time": 18.7227273,
                "end_time": 18.9681818,
                "pitch": 48,
                "velocity": 32,
                "duration": 0.2454545,
                "tempo": 120.0
            },
            {
                "start_time": 13.3022727,
                "end_time": 18.9681818,
                "pitch": 52,
                "velocity": 32,
                "duration": 5.6659091,
                "tempo": 120.0
            },
            {
                "start_time": 18.9681818,
                "end_time": 19.1977273,
                "pitch": 44,
                "velocity": 32,
                "duration": 0.2295455,
                "tempo": 120.0
            },
            {
                "start_time": 18.0181818,
                "end_time": 19.4295455,
                "pitch": 54,
                "velocity": 32,
                "duration": 1.4113636,
                "tempo": 120.0
            },
            {
                "start_time": 17.0704545,
                "end_time": 19.6659091,
                "pitch": 25,
                "velocity": 32,
                "duration": 2.5954545,
                "tempo": 120.0
            },
            {
                "start_time": 19.4295455,
                "end_time": 19.6659091,
                "pitch": 46,
                "velocity": 32,
                "duration": 0.2363636,
                "tempo": 120.0
            },
            {
                "start_time": 19.6659091,
                "end_time": 19.9113636,
                "pitch": 50,
                "velocity": 32,
                "duration": 0.2454545,
                "tempo": 120.0
            },
            {
                "start_time": 17.325,
                "end_time": 20.1386364,
                "pitch": 53,
                "velocity": 32,
                "duration": 2.8136364,
                "tempo": 120.0
            },
            {
                "start_time": 19.9113636,
                "end_time": 20.1386364,
                "pitch": 53,
                "velocity": 32,
                "duration": 0.2272727,
                "tempo": 120.0
            },
            {
                "start_time": 19.9113636,
                "end_time": 20.3727273,
                "pitch": 50,
                "velocity": 32,
                "duration": 0.4613636,
                "tempo": 120.0
            },
            {
                "start_time": 20.1409091,
                "end_time": 20.3727273,
                "pitch": 50,
                "velocity": 32,
                "duration": 0.2318182,
                "tempo": 120.0
            },
            {
                "start_time": 20.1409091,
                "end_time": 20.3727273,
                "pitch": 53,
                "velocity": 32,
                "duration": 0.2318182,
                "tempo": 120.0
            },
            {
                "start_time": 17.5590909,
                "end_time": 20.6272727,
                "pitch": 13,
                "velocity": 32,
                "duration": 3.0681818,
                "tempo": 120.0
            },
            {
                "start_time": 20.3727273,
                "end_time": 20.6272727,
                "pitch": 46,
                "velocity": 32,
                "duration": 0.2545455,
                "tempo": 120.0
            },
            {
                "start_time": 16.6068182,
                "end_time": 20.8590909,
                "pitch": 39,
                "velocity": 32,
                "duration": 4.2522727,
                "tempo": 120.0
            },
            {
                "start_time": 20.6272727,
                "end_time": 20.8590909,
                "pitch": 39,
                "velocity": 32,
                "duration": 0.2318182,
                "tempo": 120.0
            },
            {
                "start_time": 20.8590909,
                "end_time": 21.0931818,
                "pitch": 43,
                "velocity": 32,
                "duration": 0.2340909,
                "tempo": 120.0
            },
            {
                "start_time": 16.8318182,
                "end_time": 21.0954545,
                "pitch": 55,
                "velocity": 32,
                "duration": 4.2636364,
                "tempo": 120.0
            },
            {
                "start_time": 19.6659091,
                "end_time": 21.3227273,
                "pitch": 25,
                "velocity": 32,
                "duration": 1.6568182,
                "tempo": 120.0
            },
            {
                "start_time": 21.0954545,
                "end_time": 21.3227273,
                "pitch": 46,
                "velocity": 32,
                "duration": 0.2272727,
                "tempo": 120.0
            },
            {
                "start_time": 21.3227273,
                "end_time": 21.5681818,
                "pitch": 50,
                "velocity": 32,
                "duration": 0.2454545,
                "tempo": 120.0
            },
            {
                "start_time": 20.3727273,
                "end_time": 21.5681818,
                "pitch": 53,
                "velocity": 32,
                "duration": 1.1954545,
                "tempo": 120.0
            },
            {
                "start_time": 20.6272727,
                "end_time": 21.8022727,
                "pitch": 13,
                "velocity": 32,
                "duration": 1.175,
                "tempo": 120.0
            },
            {
                "start_time": 21.5681818,
                "end_time": 21.8022727,
                "pitch": 46,
                "velocity": 32,
                "duration": 0.2340909,
                "tempo": 120.0
            },
            {
                "start_time": 21.8022727,
                "end_time": 22.0386364,
                "pitch": 43,
                "velocity": 32,
                "duration": 0.2363636,
                "tempo": 120.0
            },
            {
                "start_time": 20.8590909,
                "end_time": 22.2772727,
                "pitch": 39,
                "velocity": 32,
                "duration": 1.4181818,
                "tempo": 120.0
            },
            {
                "start_time": 22.0386364,
                "end_time": 22.2772727,
                "pitch": 39,
                "velocity": 32,
                "duration": 0.2386364,
                "tempo": 120.0
            },
            {
                "start_time": 22.0386364,
                "end_time": 22.5,
                "pitch": 43,
                "velocity": 32,
                "duration": 0.4613636,
                "tempo": 120.0
            },
            {
                "start_time": 22.2772727,
                "end_time": 22.5,
                "pitch": 43,
                "velocity": 32,
                "duration": 0.2227273,
                "tempo": 120.0
            },
            {
                "start_time": 21.0954545,
                "end_time": 22.5,
                "pitch": 55,
                "velocity": 32,
                "duration": 1.4045455,
                "tempo": 120.0
            },
            {
                "start_time": 21.3227273,
                "end_time": 22.7363636,
                "pitch": 25,
                "velocity": 32,
                "duration": 1.4136364,
                "tempo": 120.0
            },
            {
                "start_time": 22.5,
                "end_time": 22.7363636,
                "pitch": 46,
                "velocity": 32,
                "duration": 0.2363636,
                "tempo": 120.0
            },
            {
                "start_time": 22.7363636,
                "end_time": 22.9704545,
                "pitch": 50,
                "velocity": 32,
                "duration": 0.2340909,
                "tempo": 120.0
            },
            {
                "start_time": 21.5681818,
                "end_time": 22.9704545,
                "pitch": 53,
                "velocity": 32,
                "duration": 1.4022727,
                "tempo": 120.0
            },
            {
                "start_time": 21.8022727,
                "end_time": 23.2136364,
                "pitch": 13,
                "velocity": 32,
                "duration": 1.4113636,
                "tempo": 120.0
            },
            {
                "start_time": 22.9704545,
                "end_time": 23.2136364,
                "pitch": 46,
                "velocity": 32,
                "duration": 0.2431818,
                "tempo": 120.0
            },
            {
                "start_time": 23.2136364,
                "end_time": 23.4454545,
                "pitch": 43,
                "velocity": 32,
                "duration": 0.2318182,
                "tempo": 120.0
            },
            {
                "start_time": 23.4454545,
                "end_time": 23.6772727,
                "pitch": 43,
                "velocity": 32,
                "duration": 0.2318182,
                "tempo": 120.0
            },
            {
                "start_time": 19.4295455,
                "end_time": 23.6772727,
                "pitch": 54,
                "velocity": 32,
                "duration": 4.2477273,
                "tempo": 120.0
            },
            {
                "start_time": 18.2568182,
                "end_time": 23.9295455,
                "pitch": 2,
                "velocity": 32,
                "duration": 5.6727273,
                "tempo": 120.0
            },
            {
                "start_time": 23.6772727,
                "end_time": 23.9295455,
                "pitch": 44,
                "velocity": 32,
                "duration": 0.2522727,
                "tempo": 120.0
            },
            {
                "start_time": 23.9295455,
                "end_time": 24.1636364,
                "pitch": 48,
                "velocity": 32,
                "duration": 0.2340909,
                "tempo": 120.0
            },
            {
                "start_time": 18.7227273,
                "end_time": 24.3977273,
                "pitch": 51,
                "velocity": 32,
                "duration": 5.675,
                "tempo": 120.0
            },
            {
                "start_time": 24.1636364,
                "end_time": 24.3977273,
                "pitch": 51,
                "velocity": 32,
                "duration": 0.2340909,
                "tempo": 120.0
            },
            {
                "start_time": 24.1636364,
                "end_time": 24.6272727,
                "pitch": 48,
                "velocity": 32,
                "duration": 0.4636364,
                "tempo": 120.0
            },
            {
                "start_time": 24.3977273,
                "end_time": 24.6272727,
                "pitch": 48,
                "velocity": 32,
                "duration": 0.2295455,
                "tempo": 120.0
            },
            {
                "start_time": 18.9681818,
                "end_time": 24.6272727,
                "pitch": 52,
                "velocity": 32,
                "duration": 5.6590909,
                "tempo": 120.0
            },
            {
                "start_time": 24.6272727,
                "end_time": 24.875,
                "pitch": 44,
                "velocity": 32,
                "duration": 0.2477273,
                "tempo": 120.0
            },
            {
                "start_time": 23.6772727,
                "end_time": 25.1068182,
                "pitch": 54,
                "velocity": 32,
                "duration": 1.4295455,
                "tempo": 120.0
            },
            {
                "start_time": 22.7363636,
                "end_time": 25.3409091,
                "pitch": 25,
                "velocity": 32,
                "duration": 2.6045455,
                "tempo": 120.0
            },
            {
                "start_time": 25.1068182,
                "end_time": 25.3409091,
                "pitch": 46,
                "velocity": 32,
                "duration": 0.2340909,
                "tempo": 120.0
            },
            {
                "start_time": 25.3409091,
                "end_time": 25.5863636,
                "pitch": 50,
                "velocity": 32,
                "duration": 0.2454545,
                "tempo": 120.0
            },
            {
                "start_time": 22.9704545,
                "end_time": 25.8159091,
                "pitch": 53,
                "velocity": 32,
                "duration": 2.8454545,
                "tempo": 120.0
            },
            {
                "start_time": 25.5863636,
                "end_time": 25.8159091,
                "pitch": 53,
                "velocity": 32,
                "duration": 0.2295455,
                "tempo": 120.0
            },
            {
                "start_time": 25.5863636,
                "end_time": 26.05,
                "pitch": 50,
                "velocity": 32,
                "duration": 0.4636364,
                "tempo": 120.0
            },
            {
                "start_time": 25.8159091,
                "end_time": 26.05,
                "pitch": 50,
                "velocity": 32,
                "duration": 0.2340909,
                "tempo": 120.0
            },
            {
                "start_time": 25.8159091,
                "end_time": 26.05,
                "pitch": 53,
                "velocity": 32,
                "duration": 0.2340909,
                "tempo": 120.0
            },
            {
                "start_time": 23.2136364,
                "end_time": 26.2863636,
                "pitch": 13,
                "velocity": 32,
                "duration": 3.0727273,
                "tempo": 120.0
            },
            {
                "start_time": 26.05,
                "end_time": 26.2863636,
                "pitch": 46,
                "velocity": 32,
                "duration": 0.2363636,
                "tempo": 120.0
            },
            {
                "start_time": 26.2863636,
                "end_time": 26.525,
                "pitch": 43,
                "velocity": 32,
                "duration": 0.2386364,
                "tempo": 120.0
            },
            {
                "start_time": 22.5,
                "end_time": 26.525,
                "pitch": 55,
                "velocity": 32,
                "duration": 4.025,
                "tempo": 120.0
            },
            {
                "start_time": 26.525,
                "end_time": 26.7477273,
                "pitch": 47,
                "velocity": 32,
                "duration": 0.2227273,
                "tempo": 120.0
            },
            {
                "start_time": 26.7477273,
                "end_time": 26.9863636,
                "pitch": 50,
                "velocity": 32,
                "duration": 0.2386364,
                "tempo": 120.0
            },
            {
                "start_time": 26.05,
                "end_time": 27.2409091,
                "pitch": 53,
                "velocity": 32,
                "duration": 1.1909091,
                "tempo": 120.0
            },
            {
                "start_time": 26.9863636,
                "end_time": 27.2409091,
                "pitch": 53,
                "velocity": 32,
                "duration": 0.2545455,
                "tempo": 120.0
            },
            {
                "start_time": 26.9863636,
                "end_time": 27.475,
                "pitch": 50,
                "velocity": 32,
                "duration": 0.4886364,
                "tempo": 120.0
            },
            {
                "start_time": 27.2409091,
                "end_time": 27.475,
                "pitch": 50,
                "velocity": 32,
                "duration": 0.2340909,
                "tempo": 120.0
            },
            {
                "start_time": 27.2409091,
                "end_time": 27.475,
                "pitch": 53,
                "velocity": 32,
                "duration": 0.2340909,
                "tempo": 120.0
            },
            {
                "start_time": 27.475,
                "end_time": 27.7113636,
                "pitch": 47,
                "velocity": 32,
                "duration": 0.2363636,
                "tempo": 120.0
            },
            {
                "start_time": 27.7113636,
                "end_time": 27.9340909,
                "pitch": 36,
                "velocity": 32,
                "duration": 0.2227273,
                "tempo": 120.0
            },
            {
                "start_time": 27.9340909,
                "end_time": 28.1727273,
                "pitch": 43,
                "velocity": 32,
                "duration": 0.2386364,
                "tempo": 120.0
            },
            {
                "start_time": 26.525,
                "end_time": 28.1727273,
                "pitch": 55,
                "velocity": 32,
                "duration": 1.6477273,
                "tempo": 120.0
            },
            {
                "start_time": 28.1727273,
                "end_time": 28.4068182,
                "pitch": 50,
                "velocity": 32,
                "duration": 0.2340909,
                "tempo": 120.0
            },
            {
                "start_time": 28.4090909,
                "end_time": 28.6431818,
                "pitch": 43,
                "velocity": 32,
                "duration": 0.2340909,
                "tempo": 120.0
            },
            {
                "start_time": 28.1727273,
                "end_time": 28.6431818,
                "pitch": 55,
                "velocity": 32,
                "duration": 0.4704545,
                "tempo": 120.0
            },
            {
                "start_time": 22.2772727,
                "end_time": 28.8886364,
                "pitch": 39,
                "velocity": 32,
                "duration": 6.6113636,
                "tempo": 120.0
            },
            {
                "start_time": 24.3977273,
                "end_time": 28.8886364,
                "pitch": 51,
                "velocity": 32,
                "duration": 4.4909091,
                "tempo": 120.0
            },
            {
                "start_time": 28.6431818,
                "end_time": 28.8886364,
                "pitch": 51,
                "velocity": 32,
                "duration": 0.2454545,
                "tempo": 120.0
            },
            {
                "start_time": 28.8886364,
                "end_time": 29.1181818,
                "pitch": 43,
                "velocity": 32,
                "duration": 0.2295455,
                "tempo": 120.0
            },
            {
                "start_time": 29.1181818,
                "end_time": 29.35,
                "pitch": 43,
                "velocity": 32,
                "duration": 0.2318182,
                "tempo": 120.0
            },
            {
                "start_time": 25.1068182,
                "end_time": 29.3522727,
                "pitch": 54,
                "velocity": 32,
                "duration": 4.2454545,
                "tempo": 120.0
            },
            {
                "start_time": 29.35,
                "end_time": 29.3522727,
                "pitch": 54,
                "velocity": 32,
                "duration": 0.0022727,
                "tempo": 120.0
            },
            {
                "start_time": 23.9295455,
                "end_time": 29.5863636,
                "pitch": 2,
                "velocity": 32,
                "duration": 5.6568182,
                "tempo": 120.0
            },
            {
                "start_time": 29.3522727,
                "end_time": 29.5863636,
                "pitch": 44,
                "velocity": 32,
                "duration": 0.2340909,
                "tempo": 120.0
            },
            {
                "start_time": 29.5863636,
                "end_time": 29.8318182,
                "pitch": 48,
                "velocity": 32,
                "duration": 0.2454545,
                "tempo": 120.0
            },
            {
                "start_time": 29.8318182,
                "end_time": 30.0613636,
                "pitch": 51,
                "velocity": 32,
                "duration": 0.2295455,
                "tempo": 120.0
            },
            {
                "start_time": 29.8318182,
                "end_time": 30.2954545,
                "pitch": 48,
                "velocity": 32,
                "duration": 0.4636364,
                "tempo": 120.0
            },
            {
                "start_time": 30.0613636,
                "end_time": 30.2954545,
                "pitch": 48,
                "velocity": 32,
                "duration": 0.2340909,
                "tempo": 120.0
            },
            {
                "start_time": 24.6272727,
                "end_time": 30.2954545,
                "pitch": 52,
                "velocity": 32,
                "duration": 5.6681818,
                "tempo": 120.0
            },
            {
                "start_time": 30.2954545,
                "end_time": 30.5477273,
                "pitch": 44,
                "velocity": 32,
                "duration": 0.2522727,
                "tempo": 120.0
            },
            {
                "start_time": 28.6431818,
                "end_time": 30.7795455,
                "pitch": 55,
                "velocity": 32,
                "duration": 2.1363636,
                "tempo": 120.0
            },
            {
                "start_time": 25.3409091,
                "end_time": 31.0159091,
                "pitch": 25,
                "velocity": 32,
                "duration": 5.675,
                "tempo": 120.0
            },
            {
                "start_time": 30.7795455,
                "end_time": 31.0159091,
                "pitch": 46,
                "velocity": 32,
                "duration": 0.2363636,
                "tempo": 120.0
            },
            {
                "start_time": 31.0159091,
                "end_time": 31.2454545,
                "pitch": 50,
                "velocity": 32,
                "duration": 0.2295455,
                "tempo": 120.0
            },
            {
                "start_time": 27.475,
                "end_time": 31.4886364,
                "pitch": 53,
                "velocity": 32,
                "duration": 4.0136364,
                "tempo": 120.0
            },
            {
                "start_time": 31.2454545,
                "end_time": 31.4886364,
                "pitch": 53,
                "velocity": 32,
                "duration": 0.2431818,
                "tempo": 120.0
            },
            {
                "start_time": 31.2454545,
                "end_time": 31.7227273,
                "pitch": 50,
                "velocity": 32,
                "duration": 0.4772727,
                "tempo": 120.0
            },
            {
                "start_time": 31.4886364,
                "end_time": 31.7227273,
                "pitch": 50,
                "velocity": 32,
                "duration": 0.2340909,
                "tempo": 120.0
            },
            {
                "start_time": 31.4886364,
                "end_time": 31.7227273,
                "pitch": 53,
                "velocity": 32,
                "duration": 0.2340909,
                "tempo": 120.0
            },
            {
                "start_time": 26.2863636,
                "end_time": 31.9590909,
                "pitch": 13,
                "velocity": 32,
                "duration": 5.6727273,
                "tempo": 120.0
            },
            {
                "start_time": 31.7227273,
                "end_time": 31.9590909,
                "pitch": 46,
                "velocity": 32,
                "duration": 0.2363636,
                "tempo": 120.0
            },
            {
                "start_time": 31.9590909,
                "end_time": 32.1977273,
                "pitch": 41,
                "velocity": 32,
                "duration": 0.2386364,
                "tempo": 120.0
            },
            {
                "start_time": 29.5863636,
                "end_time": 32.4227273,
                "pitch": 2,
                "velocity": 32,
                "duration": 2.8363636,
                "tempo": 120.0
            },
            {
                "start_time": 32.1977273,
                "end_time": 32.4227273,
                "pitch": 44,
                "velocity": 32,
                "duration": 0.225,
                "tempo": 120.0
            },
            {
                "start_time": 32.4227273,
                "end_time": 32.6545455,
                "pitch": 48,
                "velocity": 32,
                "duration": 0.2318182,
                "tempo": 120.0
            },
            {
                "start_time": 30.0613636,
                "end_time": 32.8886364,
                "pitch": 51,
                "velocity": 32,
                "duration": 2.8272727,
                "tempo": 120.0
            },
            {
                "start_time": 32.6545455,
                "end_time": 32.8886364,
                "pitch": 51,
                "velocity": 32,
                "duration": 0.2340909,
                "tempo": 120.0
            },
            {
                "start_time": 32.6545455,
                "end_time": 33.1318182,
                "pitch": 48,
                "velocity": 32,
                "duration": 0.4772727,
                "tempo": 120.0
            },
            {
                "start_time": 32.8886364,
                "end_time": 33.1318182,
                "pitch": 48,
                "velocity": 32,
                "duration": 0.2431818,
                "tempo": 120.0
            },
            {
                "start_time": 30.2954545,
                "end_time": 33.1318182,
                "pitch": 52,
                "velocity": 32,
                "duration": 2.8363636,
                "tempo": 120.0
            },
            {
                "start_time": 33.1318182,
                "end_time": 33.3613636,
                "pitch": 44,
                "velocity": 32,
                "duration": 0.2295455,
                "tempo": 120.0
            },
            {
                "start_time": 30.7795455,
                "end_time": 33.5931818,
                "pitch": 55,
                "velocity": 32,
                "duration": 2.8136364,
                "tempo": 120.0
            },
            {
                "start_time": 31.0159091,
                "end_time": 33.8431818,
                "pitch": 25,
                "velocity": 32,
                "duration": 2.8272727,
                "tempo": 120.0
            },
            {
                "start_time": 33.5931818,
                "end_time": 33.8431818,
                "pitch": 46,
                "velocity": 32,
                "duration": 0.25,
                "tempo": 120.0
            },
            {
                "start_time": 33.8431818,
                "end_time": 34.075,
                "pitch": 50,
                "velocity": 32,
                "duration": 0.2318182,
                "tempo": 120.0
            },
            {
                "start_time": 31.7227273,
                "end_time": 34.3090909,
                "pitch": 53,
                "velocity": 32,
                "duration": 2.5863636,
                "tempo": 120.0
            },
            {
                "start_time": 34.075,
                "end_time": 34.3090909,
                "pitch": 53,
                "velocity": 32,
                "duration": 0.2340909,
                "tempo": 120.0
            },
            {
                "start_time": 34.075,
                "end_time": 34.5363636,
                "pitch": 50,
                "velocity": 32,
                "duration": 0.4613636,
                "tempo": 120.0
            },
            {
                "start_time": 34.3090909,
                "end_time": 34.5363636,
                "pitch": 50,
                "velocity": 32,
                "duration": 0.2272727,
                "tempo": 120.0
            },
            {
                "start_time": 34.3090909,
                "end_time": 34.5363636,
                "pitch": 53,
                "velocity": 32,
                "duration": 0.2272727,
                "tempo": 120.0
            },
            {
                "start_time": 31.9590909,
                "end_time": 34.7840909,
                "pitch": 13,
                "velocity": 32,
                "duration": 2.825,
                "tempo": 120.0
            },
            {
                "start_time": 34.5363636,
                "end_time": 34.7840909,
                "pitch": 46,
                "velocity": 32,
                "duration": 0.2477273,
                "tempo": 120.0
            },
            {
                "start_time": 27.9340909,
                "end_time": 35.0136364,
                "pitch": 36,
                "velocity": 32,
                "duration": 7.0795455,
                "tempo": 120.0
            },
            {
                "start_time": 34.7840909,
                "end_time": 35.0136364,
                "pitch": 36,
                "velocity": 32,
                "duration": 0.2295455,
                "tempo": 120.0
            },
            {
                "start_time": 35.0136364,
                "end_time": 35.2477273,
                "pitch": 43,
                "velocity": 32,
                "duration": 0.2340909,
                "tempo": 120.0
            },
            {
                "start_time": 33.5931818,
                "end_time": 35.2477273,
                "pitch": 55,
                "velocity": 32,
                "duration": 1.6545455,
                "tempo": 120.0
            },
            {
                "start_time": 35.2477273,
                "end_time": 35.4931818,
                "pitch": 48,
                "velocity": 32,
                "duration": 0.2454545,
                "tempo": 120.0
            },
            {
                "start_time": 35.4931818,
                "end_time": 35.7204545,
                "pitch": 48,
                "velocity": 32,
                "duration": 0.2272727,
                "tempo": 120.0
            },
            {
                "start_time": 35.7227273,
                "end_time": 35.9568182,
                "pitch": 50,
                "velocity": 32,
                "duration": 0.2340909,
                "tempo": 120.0
            },
            {
                "start_time": 32.8886364,
                "end_time": 35.9568182,
                "pitch": 51,
                "velocity": 32,
                "duration": 3.0681818,
                "tempo": 120.0
            },
            {
                "start_time": 35.2477273,
                "end_time": 36.1909091,
                "pitch": 55,
                "velocity": 32,
                "duration": 0.9431818,
                "tempo": 120.0
            },
            {
                "start_time": 35.9568182,
                "end_time": 36.1909091,
                "pitch": 55,
                "velocity": 32,
                "duration": 0.2340909,
                "tempo": 120.0
            },
            {
                "start_time": 7.1659091,
                "end_time": 36.1909091,
                "pitch": 67,
                "velocity": 32,
                "duration": 29.025,
                "tempo": 120.0
            },
            {
                "start_time": 36.1909091,
                "end_time": 37.6045455,
                "pitch": 60,
                "velocity": 32,
                "duration": 1.4136364,
                "tempo": 120.0
            }
        ]
    }
}