{
    "mood": "sad",
    "instruments": {
        "Acoustic Guitar (nylon)": [
            {
                "start_time": 0.0272727,
                "end_time": 0.2795455,
                "pitch": 50,
                "velocity": 80,
                "duration": 0.2522727,
                "tempo": 120.0
            },
            {
                "start_time": 0.2795455,
                "end_time": 0.3977273,
                "pitch": 50,
                "velocity": 80,
                "duration": 0.1181818,
                "tempo": 120.0
            },
            {
                "start_time": 0.3977273,
                "end_time": 0.5340909,
                "pitch": 50,
                "velocity": 80,
                "duration": 0.1363636,
                "tempo": 120.0
            },
            {
                "start_time": 0.5340909,
                "end_time": 0.6522727,
                "pitch": 50,
                "velocity": 80,
                "duration": 0.1181818,
                "tempo": 120.0
            },
            {
                "start_time": 0.6522727,
                "end_time": 0.9068182,
                "pitch": 50,
                "velocity": 80,
                "duration": 0.2545455,
                "tempo": 120.0
            },
            {
                "start_time": 0.9090909,
                "end_time": 1.5136364,
                "pitch": 50,
                "velocity": 80,
                "duration": 0.6045455,
                "tempo": 120.0
            },
            {
                "start_time": 1.5159091,
                "end_time": 2.0068182,
                "pitch": 50,
                "velocity": 80,
                "duration": 0.4909091,
                "tempo": 120.0
            },
            {
                "start_time": 2.0068182,
                "end_time": 2.2522727,
                "pitch": 52,
                "velocity": 80,
                "duration": 0.2454545,
                "tempo": 120.0
            },
            {
                "start_time": 2.2522727,
                "end_time": 2.3659091,
                "pitch": 52,
                "velocity": 80,
                "duration": 0.1136364,
                "tempo": 120.0
            },
            {
                "start_time": 2.3659091,
                "end_time": 2.4954545,
                "pitch": 52,
                "velocity": 80,
                "duration": 0.1295455,
                "tempo": 120.0
            },
            {
                "start_time": 2.4977273,
                "end_time": 2.6159091,
                "pitch": 52,
                "velocity": 80,
                "duration": 0.1181818,
                "tempo": 120.0
            },
            {
                "start_time": 2.6181818,
                "end_time": 2.8772727,
                "pitch": 52,
                "velocity": 80,
                "duration": 0.2590909,
                "tempo": 120.0
            },
            {
                "start_time": 2.8795455,
                "end_time": 3.4886364,
                "pitch": 52,
                "velocity": 80,
                "duration": 0.6090909,
                "tempo": 120.0
            },
            {
                "start_time": 3.4909091,
                "end_time": 3.9818182,
                "pitch": 52,
                "velocity": 80,
                "duration": 0.4909091,
                "tempo": 120.0
            },
            {
                "start_time": 3.9818182,
                "end_time": 4.1931818,
                "pitch": 55,
                "velocity": 80,
                "duration": 0.2113636,
                "tempo": 120.0
            },
            {
                "start_time": 4.1931818,
                "end_time": 4.225,
                "pitch": 55,
                "velocity": 80,
                "duration": 0.0318182,
                "tempo": 120.0
            },
            {
                "start_time": 4.2272727,
                "end_time": 4.3386364,
                "pitch": 55,
                "velocity": 80,
                "duration": 0.1113636,
                "tempo": 120.0
            },
            {
                "start_time": 4.3409091,
                "end_time": 4.4704545,
                "pitch": 55,
                "velocity": 80,
                "duration": 0.1295455,
                "tempo": 120.0
            },
            {
                "start_time": 4.4704545,
                "end_time": 4.5886364,
                "pitch": 55,
                "velocity": 80,
                "duration": 0.1181818,
                "tempo": 120.0
            },
            {
                "start_time": 4.5886364,
                "end_time": 4.8090909,
                "pitch": 55,
                "velocity": 80,
                "duration": 0.2204545,
                "tempo": 120.0
            },
            {
                "start_time": 4.8090909,
                "end_time": 4.8431818,
                "pitch": 55,
                "velocity": 80,
                "duration": 0.0340909,
                "tempo": 120.0
            },
            {
                "start_time": 4.8454545,
                "end_time": 5.0613636,
                "pitch": 55,
                "velocity": 80,
                "duration": 0.2159091,
                "tempo": 120.0
            },
            {
                "start_time": 4.8090909,
                "end_time": 5.0613636,
                "pitch": 67,
                "velocity": 80,
                "duration": 0.2522727,
                "tempo": 120.0
            },
            {
                "start_time": 5.0613636,
                "end_time": 5.1090909,
                "pitch": 55,
                "velocity": 80,
                "duration": 0.0477273,
                "tempo": 120.0
            },
            {
                "start_time": 5.1090909,
                "end_time": 5.1931818,
                "pitch": 55,
                "velocity": 80,
                "duration": 0.0840909,
                "tempo": 120.0
            },
            {
                "start_time": 5.0613636,
                "end_time": 5.1931818,
                "pitch": 67,
                "velocity": 80,
                "duration": 0.1318182,
                "tempo": 120.0
            },
            {
                "start_time": 5.1090909,
                "end_time": 5.2409091,
                "pitch": 0,
                "velocity": 80,
                "duration": 0.1318182,
                "tempo": 120.0
            },
            {
                "start_time": 5.1931818,
                "end_time": 5.2409091,
                "pitch": 55,
                "velocity": 80,
                "duration": 0.0477273,
                "tempo": 120.0
            },
            {
                "start_time": 5.2409091,
                "end_time": 5.3227273,
                "pitch": 55,
                "velocity": 80,
                "duration": 0.0818182,
                "tempo": 120.0
            },
            {
                "start_time": 5.2409091,
                "end_time": 5.3727273,
                "pitch": 0,
                "velocity": 80,
                "duration": 0.1318182,
                "tempo": 120.0
            },
            {
                "start_time": 5.3227273,
                "end_time": 5.3727273,
                "pitch": 55,
                "velocity": 80,
                "duration": 0.05,
                "tempo": 120.0
            },
            {
                "start_time": 5.3727273,
                "end_time": 5.4545455,
                "pitch": 55,
                "velocity": 80,
                "duration": 0.0818182,
                "tempo": 120.0
            },
            {
                "start_time": 5.4568182,
                "end_time": 5.675,
                "pitch": 55,
                "velocity": 80,
                "duration": 0.2181818,
                "tempo": 120.0
            },
            {
                "start_time": 5.1931818,
                "end_time": 5.675,
                "pitch": 67,
                "velocity": 80,
                "duration": 0.4818182,
                "tempo": 120.0
            },
            {
                "start_time": 5.675,
                "end_time": 5.7272727,
                "pitch": 55,
                "velocity": 80,
                "duration": 0.0522727,
                "tempo": 120.0
            },
            {
                "start_time": 5.7272727,
                "end_time": 5.8113636,
                "pitch": 55,
                "velocity": 80,
                "duration": 0.0840909,
                "tempo": 120.0
            },
            {
                "start_time": 5.675,
                "end_time": 5.8113636,
                "pitch": 67,
                "velocity": 80,
                "duration": 0.1363636,
                "tempo": 120.0
            },
            {
                "start_time": 5.8113636,
                "end_time": 5.8613636,
                "pitch": 55,
                "velocity": 80,
                "duration": 0.05,
                "tempo": 120.0
            },
            {
                "start_time": 5.8613636,
                "end_time": 5.9477273,
                "pitch": 55,
                "velocity": 80,
                "duration": 0.0863636,
                "tempo": 120.0
            },
            {
                "start_time": 5.9477273,
                "end_time": 6.1909091,
                "pitch": 54,
                "velocity": 80,
                "duration": 0.2431818,
                "tempo": 120.0
            },
            {
                "start_time": 6.1931818,
                "end_time": 6.3045455,
                "pitch": 54,
                "velocity": 80,
                "duration": 0.1113636,
                "tempo": 120.0
            },
            {
                "start_time": 6.3068182,
                "end_time": 6.4363636,
                "pitch": 54,
                "velocity": 80,
                "duration": 0.1295455,
                "tempo": 120.0
            },
            {
                "start_time": 6.4363636,
                "end_time": 6.5545455,
                "pitch": 54,
                "velocity": 80,
                "duration": 0.1181818,
                "tempo": 120.0
            },
            {
                "start_time": 6.5545455,
                "end_time": 6.8090909,
                "pitch": 54,
                "velocity": 80,
                "duration": 0.2545455,
                "tempo": 120.0
            },
            {
                "start_time": 6.8113636,
                "end_time": 7.4204545,
                "pitch": 54,
                "velocity": 80,
                "duration": 0.6090909,
                "tempo": 120.0
            },
            {
                "start_time": 7.4227273,
                "end_time": 7.9136364,
                "pitch": 54,
                "velocity": 80,
                "duration": 0.4909091,
                "tempo": 120.0
            },
            {
                "start_time": 7.9136364,
                "end_time": 8.1568182,
                "pitch": 50,
                "velocity": 80,
                "duration": 0.2431818,
                "tempo": 120.0
            },
            {
                "start_time": 8.1590909,
                "end_time": 8.2704545,
                "pitch": 50,
                "velocity": 80,
                "duration": 0.1113636,
                "tempo": 120.0
            },
            {
                "start_time": 8.2727273,
                "end_time": 8.4022727,
                "pitch": 50,
                "velocity": 80,
                "duration": 0.1295455,
                "tempo": 120.0
            },
            {
                "start_time": 8.4022727,
                "end_time": 8.5227273,
                "pitch": 50,
                "velocity": 80,
                "duration": 0.1204545,
                "tempo": 120.0
            },
            {
                "start_time": 8.5227273,
                "end_time": 8.7840909,
                "pitch": 50,
                "velocity": 80,
                "duration": 0.2613636,
                "tempo": 120.0
            },
            {
                "start_time": 8.7863636,
                "end_time": 9.3863636,
                "pitch": 50,
                "velocity": 80,
                "duration": 0.6,
                "tempo": 120.0
            },
            {
                "start_time": 9.3886364,
                "end_time": 9.8795455,
                "pitch": 50,
                "velocity": 80,
                "duration": 0.4909091,
                "tempo": 120.0
            },
            {
                "start_time": 9.8795455,
                "end_time": 10.125,
                "pitch": 52,
                "velocity": 80,
                "duration": 0.2454545,
                "tempo": 120.0
            },
            {
                "start_time": 10.1272727,
                "end_time": 10.2409091,
                "pitch": 52,
                "velocity": 80,
                "duration": 0.1136364,
                "tempo": 120.0
            },
            {
                "start_time": 10.2409091,
                "end_time": 10.3727273,
                "pitch": 52,
                "velocity": 80,
                "duration": 0.1318182,
                "tempo": 120.0
            },
            {
                "start_time": 10.3727273,
                "end_time": 10.4931818,
                "pitch": 52,
                "velocity": 80,
                "duration": 0.1204545,
                "tempo": 120.0
            },
            {
                "start_time": 10.4931818,
                "end_time": 10.7545455,
                "pitch": 52,
                "velocity": 80,
                "duration": 0.2613636,
                "tempo": 120.0
            },
            {
                "start_time": 10.7545455,
                "end_time": 11.3681818,
                "pitch": 52,
                "velocity": 80,
                "duration": 0.6136364,
                "tempo": 120.0
            },
            {
                "start_time": 11.3704545,
                "end_time": 11.8613636,
                "pitch": 52,
                "velocity": 80,
                "duration": 0.4909091,
                "tempo": 120.0
            },
            {
                "start_time": 11.8613636,
                "end_time": 12.075,
                "pitch": 55,
                "velocity": 80,
                "duration": 0.2136364,
                "tempo": 120.0
            },
            {
                "start_time": 5.8113636,
                "end_time": 12.075,
                "pitch": 67,
                "velocity": 80,
                "duration": 6.2636364,
                "tempo": 120.0
            },
            {
                "start_time": 12.075,
                "end_time": 12.1068182,
                "pitch": 55,
                "velocity": 80,
                "duration": 0.0318182,
                "tempo": 120.0
            },
            {
                "start_time": 12.1090909,
                "end_time": 12.2227273,
                "pitch": 55,
                "velocity": 80,
                "duration": 0.1136364,
                "tempo": 120.0
            },
            {
                "start_time": 12.2227273,
                "end_time": 12.3545455,
                "pitch": 55,
                "velocity": 80,
                "duration": 0.1318182,
                "tempo": 120.0
            },
            {
                "start_time": 12.3545455,
                "end_time": 12.4727273,
                "pitch": 55,
                "velocity": 80,
                "duration": 0.1181818,
                "tempo": 120.0
            },
            {
                "start_time": 12.4727273,
                "end_time": 12.6931818,
                "pitch": 55,
                "velocity": 80,
                "duration": 0.2204545,
                "tempo": 120.0
            },
            {
                "start_time": 12.6931818,
                "end_time": 12.7272727,
                "pitch": 55,
                "velocity": 80,
                "duration": 0.0340909,
                "tempo": 120.0
            },
            {
                "start_time": 12.7295455,
                "end_time": 12.9431818,
                "pitch": 55,
                "velocity": 80,
                "duration": 0.2136364,
                "tempo": 120.0
            },
            {
                "start_time": 5.3727273,
                "end_time": 12.9931818,
                "pitch": 0,
                "velocity": 80,
                "duration": 7.6204545,
                "tempo": 120.0
            },
            {
                "start_time": 12.9431818,
                "end_time": 12.9931818,
                "pitch": 55,
                "velocity": 80,
                "duration": 0.05,
                "tempo": 120.0
            },
            {
                "start_time": 12.9931818,
                "end_time": 13.075,
                "pitch": 55,
                "velocity": 80,
                "duration": 0.0818182,
                "tempo": 120.0
            },
            {
                "start_time": 12.075,
                "end_time": 13.075,
                "pitch": 67,
                "velocity": 80,
                "duration": 1.0,
                "tempo": 120.0
            },
            {
                "start_time": 12.9931818,
                "end_time": 13.1227273,
                "pitch": 0,
                "velocity": 80,
                "duration": 0.1295455,
                "tempo": 120.0
            },
            {
                "start_time": 13.075,
                "end_time": 13.1227273,
                "pitch": 55,
                "velocity": 80,
                "duration": 0.0477273,
                "tempo": 120.0
            },
            {
                "start_time": 13.1227273,
                "end_time": 13.2045455,
                "pitch": 55,
                "velocity": 80,
                "duration": 0.0818182,
                "tempo": 120.0
            },
            {
                "start_time": 13.075,
                "end_time": 13.2045455,
                "pitch": 67,
                "velocity": 80,
                "duration": 0.1295455,
                "tempo": 120.0
            },
            {
                "start_time": 13.1227273,
                "end_time": 13.2545455,
                "pitch": 0,
                "velocity": 80,
                "duration": 0.1318182,
                "tempo": 120.0
            },
            {
                "start_time": 13.2045455,
                "end_time": 13.2545455,
                "pitch": 55,
                "velocity": 80,
                "duration": 0.05,
                "tempo": 120.0
            },
            {
                "start_time": 13.2545455,
                "end_time": 13.3340909,
                "pitch": 55,
                "velocity": 80,
                "duration": 0.0795455,
                "tempo": 120.0
            },
            {
                "start_time": 13.3363636,
                "end_time": 13.5545455,
                "pitch": 55,
                "velocity": 80,
                "duration": 0.2181818,
                "tempo": 120.0
            },
            {
                "start_time": 13.2545455,
                "end_time": 13.6068182,
                "pitch": 0,
                "velocity": 80,
                "duration": 0.3522727,
                "tempo": 120.0
            },
            {
                "start_time": 13.5545455,
                "end_time": 13.6068182,
                "pitch": 55,
                "velocity": 80,
                "duration": 0.0522727,
                "tempo": 120.0
            },
            {
                "start_time": 13.6068182,
                "end_time": 13.6909091,
                "pitch": 55,
                "velocity": 80,
                "duration": 0.0840909,
                "tempo": 120.0
            },
            {
                "start_time": 13.2045455,
                "end_time": 13.6909091,
                "pitch": 67,
                "velocity": 80,
                "duration": 0.4863636,
                "tempo": 120.0
            },
            {
                "start_time": 13.6068182,
                "end_time": 13.7431818,
                "pitch": 0,
                "velocity": 80,
                "duration": 0.1363636,
                "tempo": 120.0
            },
            {
                "start_time": 13.6909091,
                "end_time": 13.7431818,
                "pitch": 55,
                "velocity": 80,
                "duration": 0.0522727,
                "tempo": 120.0
            },
            {
                "start_time": 13.7431818,
                "end_time": 13.8272727,
                "pitch": 55,
                "velocity": 80,
                "duration": 0.0840909,
                "tempo": 120.0
            },
            {
                "start_time": 13.8272727,
                "end_time": 14.0727273,
                "pitch": 54,
                "velocity": 80,
                "duration": 0.2454545,
                "tempo": 120.0
            },
            {
                "start_time": 14.075,
                "end_time": 14.1886364,
                "pitch": 54,
                "velocity": 80,
                "duration": 0.1136364,
                "tempo": 120.0
            },
            {
                "start_time": 14.1886364,
                "end_time": 14.3204545,
                "pitch": 54,
                "velocity": 80,
                "duration": 0.1318182,
                "tempo": 120.0
            },
            {
                "start_time": 14.3204545,
                "end_time": 14.4386364,
                "pitch": 54,
                "velocity": 80,
                "duration": 0.1181818,
                "tempo": 120.0
            },
            {
                "start_time": 14.4386364,
                "end_time": 14.6931818,
                "pitch": 54,
                "velocity": 80,
                "duration": 0.2545455,
                "tempo": 120.0
            },
            {
                "start_time": 14.6954545,
                "end_time": 15.3045455,
                "pitch": 54,
                "velocity": 80,
                "duration": 0.6090909,
                "tempo": 120.0
            },
            {
                "start_time": 15.3068182,
                "end_time": 15.7977273,
                "pitch": 54,
                "velocity": 80,
                "duration": 0.4909091,
                "tempo": 120.0
            },
            {
                "start_time": 15.8,
                "end_time": 16.0113636,
                "pitch": 55,
                "velocity": 80,
                "duration": 0.2113636,
                "tempo": 120.0
            },
            {
                "start_time": 13.6909091,
                "end_time": 16.0113636,
                "pitch": 67,
                "velocity": 80,
                "duration": 2.3204545,
                "tempo": 120.0
            },
            {
                "start_time": 13.7431818,
                "end_time": 16.0590909,
                "pitch": 0,
                "velocity": 80,
                "duration": 2.3159091,
                "tempo": 120.0
            },
            {
                "start_time": 16.0113636,
                "end_time": 16.0590909,
                "pitch": 55,
                "velocity": 80,
                "duration": 0.0477273,
                "tempo": 120.0
            },
            {
                "start_time": 16.0590909,
                "end_time": 16.1409091,
                "pitch": 55,
                "velocity": 80,
                "duration": 0.0818182,
                "tempo": 120.0
            },
            {
                "start_time": 16.0113636,
                "end_time": 16.1409091,
                "pitch": 67,
                "velocity": 80,
                "duration": 0.1295455,
                "tempo": 120.0
            },
            {
                "start_time": 16.0590909,
                "end_time": 16.1909091,
                "pitch": 0,
                "velocity": 80,
                "duration": 0.1318182,
                "tempo": 120.0
            },
            {
                "start_time": 16.1409091,
                "end_time": 16.1909091,
                "pitch": 55,
                "velocity": 80,
                "duration": 0.05,
                "tempo": 120.0
            },
            {
                "start_time": 16.1909091,
                "end_time": 16.2727273,
                "pitch": 55,
                "velocity": 80,
                "duration": 0.0818182,
                "tempo": 120.0
            },
            {
                "start_time": 16.1409091,
                "end_time": 16.2727273,
                "pitch": 67,
                "velocity": 80,
                "duration": 0.1318182,
                "tempo": 120.0
            },
            {
                "start_time": 16.1909091,
                "end_time": 16.3227273,
                "pitch": 0,
                "velocity": 80,
                "duration": 0.1318182,
                "tempo": 120.0
            },
            {
                "start_time": 16.2727273,
                "end_time": 16.3227273,
                "pitch": 55,
                "velocity": 80,
                "duration": 0.05,
                "tempo": 120.0
            },
            {
                "start_time": 16.3227273,
                "end_time": 16.4090909,
                "pitch": 55,
                "velocity": 80,
                "duration": 0.0863636,
                "tempo": 120.0
            },
            {
                "start_time": 16.2727273,
                "end_time": 16.4090909,
                "pitch": 67,
                "velocity": 80,
                "duration": 0.1363636,
                "tempo": 120.0
            },
            {
                "start_time": 16.3227273,
                "end_time": 16.4590909,
                "pitch": 0,
                "velocity": 80,
                "duration": 0.1363636,
                "tempo": 120.0
            },
            {
                "start_time": 16.4090909,
                "end_time": 16.4590909,
                "pitch": 55,
                "velocity": 80,
                "duration": 0.05,
                "tempo": 120.0
            },
            {
                "start_time": 16.4590909,
                "end_time": 16.5272727,
                "pitch": 55,
                "velocity": 80,
                "duration": 0.0681818,
                "tempo": 120.0
            },
            {
                "start_time": 16.5295455,
                "end_time": 16.6636364,
                "pitch": 55,
                "velocity": 80,
                "duration": 0.1340909,
                "tempo": 120.0
            },
            {
                "start_time": 16.6636364,
                "end_time": 16.8818182,
                "pitch": 55,
                "velocity": 80,
                "duration": 0.2181818,
                "tempo": 120.0
            },
            {
                "start_time": 16.4090909,
                "end_time": 16.8818182,
                "pitch": 67,
                "velocity": 80,
                "duration": 0.4727273,
                "tempo": 120.0
            },
            {
                "start_time": 16.8818182,
                "end_time": 16.9159091,
                "pitch": 55,
                "velocity": 80,
                "duration": 0.0340909,
                "tempo": 120.0
            },
            {
                "start_time": 16.9159091,
                "end_time": 17.1318182,
                "pitch": 55,
                "velocity": 80,
                "duration": 0.2159091,
                "tempo": 120.0
            },
            {
                "start_time": 16.4590909,
                "end_time": 17.1818182,
                "pitch": 0,
                "velocity": 80,
                "duration": 0.7227273,
                "tempo": 120.0
            },
            {
                "start_time": 17.1318182,
                "end_time": 17.1818182,
                "pitch": 55,
                "velocity": 80,
                "duration": 0.05,
                "tempo": 120.0
            },
            {
                "start_time": 17.1818182,
                "end_time": 17.2659091,
                "pitch": 55,
                "velocity": 80,
                "duration": 0.0840909,
                "tempo": 120.0
            },
            {
                "start_time": 16.8818182,
                "end_time": 17.2659091,
                "pitch": 67,
                "velocity": 80,
                "duration": 0.3840909,
                "tempo": 120.0
            },
            {
                "start_time": 17.2659091,
                "end_time": 17.2818182,
                "pitch": 55,
                "velocity": 80,
                "duration": 0.0159091,
                "tempo": 120.0
            },
            {
                "start_time": 17.7772727,
                "end_time": 18.5045455,
                "pitch": 54,
                "velocity": 80,
                "duration": 0.7272727,
                "tempo": 120.0
            },
            {
                "start_time": 18.6431818,
                "end_time": 18.8909091,
                "pitch": 54,
                "velocity": 80,
                "duration": 0.2477273,
                "tempo": 120.0
            },
            {
                "start_time": 18.8931818,
                "end_time": 19.2522727,
                "pitch": 54,
                "velocity": 80,
                "duration": 0.3590909,
                "tempo": 120.0
            },
            {
                "start_time": 19.7454545,
                "end_time": 20.475,
                "pitch": 52,
                "velocity": 80,
                "duration": 0.7295455,
                "tempo": 120.0
            },
            {
                "start_time": 20.4772727,
                "end_time": 20.6113636,
                "pitch": 52,
                "velocity": 80,
                "duration": 0.1340909,
                "tempo": 120.0
            },
            {
                "start_time": 20.6113636,
                "end_time": 20.8613636,
                "pitch": 52,
                "velocity": 80,
                "duration": 0.25,
                "tempo": 120.0
            },
            {
                "start_time": 20.8613636,
                "end_time": 21.2227273,
                "pitch": 52,
                "velocity": 80,
                "duration": 0.3613636,
                "tempo": 120.0
            },
            {
                "start_time": 21.7159091,
                "end_time": 22.4454545,
                "pitch": 52,
                "velocity": 80,
                "duration": 0.7295455,
                "tempo": 120.0
            },
            {
                "start_time": 22.5818182,
                "end_time": 22.8318182,
                "pitch": 52,
                "velocity": 80,
                "duration": 0.25,
                "tempo": 120.0
            },
            {
                "start_time": 22.8318182,
                "end_time": 23.1931818,
                "pitch": 52,
                "velocity": 80,
                "duration": 0.3613636,
                "tempo": 120.0
            },
            {
                "start_time": 23.6863636,
                "end_time": 23.8954545,
                "pitch": 55,
                "velocity": 80,
                "duration": 0.2090909,
                "tempo": 120.0
            },
            {
                "start_time": 17.1818182,
                "end_time": 23.9454545,
                "pitch": 0,
                "velocity": 80,
                "duration": 6.7636364,
                "tempo": 120.0
            },
            {
                "start_time": 23.8954545,
                "end_time": 23.9454545,
                "pitch": 55,
                "velocity": 80,
                "duration": 0.05,
                "tempo": 120.0
            },
            {
                "start_time": 23.9454545,
                "end_time": 24.0272727,
                "pitch": 55,
                "velocity": 80,
                "duration": 0.0818182,
                "tempo": 120.0
            },
            {
                "start_time": 17.2659091,
                "end_time": 24.0272727,
                "pitch": 67,
                "velocity": 80,
                "duration": 6.7613636,
                "tempo": 120.0
            },
            {
                "start_time": 23.9454545,
                "end_time": 24.075,
                "pitch": 0,
                "velocity": 80,
                "duration": 0.1295455,
                "tempo": 120.0
            },
            {
                "start_time": 24.0272727,
                "end_time": 24.075,
                "pitch": 55,
                "velocity": 80,
                "duration": 0.0477273,
                "tempo": 120.0
            },
            {
                "start_time": 24.075,
                "end_time": 24.1568182,
                "pitch": 55,
                "velocity": 80,
                "duration": 0.0818182,
                "tempo": 120.0
            },
            {
                "start_time": 24.0272727,
                "end_time": 24.1568182,
                "pitch": 67,
                "velocity": 80,
                "duration": 0.1295455,
                "tempo": 120.0
            },
            {
                "start_time": 24.075,
                "end_time": 24.2068182,
                "pitch": 0,
                "velocity": 80,
                "duration": 0.1318182,
                "tempo": 120.0
            },
            {
                "start_time": 24.1568182,
                "end_time": 24.2068182,
                "pitch": 55,
                "velocity": 80,
                "duration": 0.05,
                "tempo": 120.0
            },
            {
                "start_time": 24.2068182,
                "end_time": 24.2931818,
                "pitch": 55,
                "velocity": 80,
                "duration": 0.0863636,
                "tempo": 120.0
            },
            {
                "start_time": 24.1568182,
                "end_time": 24.2931818,
                "pitch": 67,
                "velocity": 80,
                "duration": 0.1363636,
                "tempo": 120.0
            },
            {
                "start_time": 24.2068182,
                "end_time": 24.3431818,
                "pitch": 0,
                "velocity": 80,
                "duration": 0.1363636,
                "tempo": 120.0
            },
            {
                "start_time": 24.2931818,
                "end_time": 24.3431818,
                "pitch": 55,
                "velocity": 80,
                "duration": 0.05,
                "tempo": 120.0
            },
            {
                "start_time": 24.3431818,
                "end_time": 24.4113636,
                "pitch": 55,
                "velocity": 80,
                "duration": 0.0681818,
                "tempo": 120.0
            },
            {
                "start_time": 24.4113636,
                "end_time": 24.5477273,
                "pitch": 55,
                "velocity": 80,
                "duration": 0.1363636,
                "tempo": 120.0
            },
            {
                "start_time": 24.5477273,
                "end_time": 24.7659091,
                "pitch": 55,
                "velocity": 80,
                "duration": 0.2181818,
                "tempo": 120.0
            },
            {
                "start_time": 24.7659091,
                "end_time": 24.8,
                "pitch": 55,
                "velocity": 80,
                "duration": 0.0340909,
                "tempo": 120.0
            },
            {
                "start_time": 24.8,
                "end_time": 25.0159091,
                "pitch": 55,
                "velocity": 80,
                "duration": 0.2159091,
                "tempo": 120.0
            },
            {
                "start_time": 24.2931818,
                "end_time": 25.0159091,
                "pitch": 67,
                "velocity": 80,
                "duration": 0.7227273,
                "tempo": 120.0
            },
            {
                "start_time": 24.3431818,
                "end_time": 25.0659091,
                "pitch": 0,
                "velocity": 80,
                "duration": 0.7227273,
                "tempo": 120.0
            },
            {
                "start_time": 25.0159091,
                "end_time": 25.0659091,
                "pitch": 55,
                "velocity": 80,
                "duration": 0.05,
                "tempo": 120.0
            },
            {
                "start_time": 25.0659091,
                "end_time": 25.15,
                "pitch": 55,
                "velocity": 80,
                "duration": 0.0840909,
                "tempo": 120.0
            },
            {
                "start_time": 25.15,
                "end_time": 25.1659091,
                "pitch": 55,
                "velocity": 80,
                "duration": 0.0159091,
                "tempo": 120.0
            },
            {
                "start_time": 25.6590909,
                "end_time": 26.3886364,
                "pitch": 54,
                "velocity": 80,
                "duration": 0.7295455,
                "tempo": 120.0
            },
            {
                "start_time": 26.525,
                "end_time": 26.775,
                "pitch": 54,
                "velocity": 80,
                "duration": 0.25,
                "tempo": 120.0
            },
            {
                "start_time": 26.7772727,
                "end_time": 27.1363636,
                "pitch": 54,
                "velocity": 80,
                "duration": 0.3590909,
                "tempo": 120.0
            },
            {
                "start_time": 27.6295455,
                "end_time": 28.3590909,
                "pitch": 52,
                "velocity": 80,
                "duration": 0.7295455,
                "tempo": 120.0
            },
            {
                "start_time": 28.3590909,
                "end_time": 28.4954545,
                "pitch": 52,
                "velocity": 80,
                "duration": 0.1363636,
                "tempo": 120.0
            },
            {
                "start_time": 28.4954545,
                "end_time": 28.7431818,
                "pitch": 52,
                "velocity": 80,
                "duration": 0.2477273,
                "tempo": 120.0
            },
            {
                "start_time": 28.7454545,
                "end_time": 29.1022727,
                "pitch": 52,
                "velocity": 80,
                "duration": 0.3568182,
                "tempo": 120.0
            },
            {
                "start_time": 29.5954545,
                "end_time": 30.325,
                "pitch": 52,
                "velocity": 80,
                "duration": 0.7295455,
                "tempo": 120.0
            },
            {
                "start_time": 30.4613636,
                "end_time": 30.7113636,
                "pitch": 52,
                "velocity": 80,
                "duration": 0.25,
                "tempo": 120.0
            },
            {
                "start_time": 30.7113636,
                "end_time": 31.0727273,
                "pitch": 52,
                "velocity": 80,
                "duration": 0.3613636,
                "tempo": 120.0
            },
            {
                "start_time": 31.5659091,
                "end_time": 31.7818182,
                "pitch": 48,
                "velocity": 80,
                "duration": 0.2159091,
                "tempo": 120.0
            },
            {
                "start_time": 31.7818182,
                "end_time": 31.8318182,
                "pitch": 48,
                "velocity": 80,
                "duration": 0.05,
                "tempo": 120.0
            },
            {
                "start_time": 31.7818182,
                "end_time": 31.9159091,
                "pitch": 36,
                "velocity": 80,
                "duration": 0.1340909,
                "tempo": 120.0
            },
            {
                "start_time": 31.8318182,
                "end_time": 31.9159091,
                "pitch": 48,
                "velocity": 80,
                "duration": 0.0840909,
                "tempo": 120.0
            },
            {
                "start_time": 31.9159091,
                "end_time": 31.9659091,
                "pitch": 48,
                "velocity": 80,
                "duration": 0.05,
                "tempo": 120.0
            },
            {
                "start_time": 31.9659091,
                "end_time": 32.0477273,
                "pitch": 48,
                "velocity": 80,
                "duration": 0.0818182,
                "tempo": 120.0
            },
            {
                "start_time": 32.0477273,
                "end_time": 32.1,
                "pitch": 48,
                "velocity": 80,
                "duration": 0.0522727,
                "tempo": 120.0
            },
            {
                "start_time": 31.9659091,
                "end_time": 32.1,
                "pitch": 52,
                "velocity": 80,
                "duration": 0.1340909,
                "tempo": 120.0
            },
            {
                "start_time": 32.1,
                "end_time": 32.1840909,
                "pitch": 48,
                "velocity": 80,
                "duration": 0.0840909,
                "tempo": 120.0
            },
            {
                "start_time": 32.1840909,
                "end_time": 32.2340909,
                "pitch": 48,
                "velocity": 80,
                "duration": 0.05,
                "tempo": 120.0
            },
            {
                "start_time": 32.1,
                "end_time": 32.2340909,
                "pitch": 52,
                "velocity": 80,
                "duration": 0.1340909,
                "tempo": 120.0
            },
            {
                "start_time": 32.2340909,
                "end_time": 32.3204545,
                "pitch": 48,
                "velocity": 80,
                "duration": 0.0863636,
                "tempo": 120.0
            },
            {
                "start_time": 32.4386364,
                "end_time": 32.6886364,
                "pitch": 50,
                "velocity": 80,
                "duration": 0.25,
                "tempo": 120.0
            },
            {
                "start_time": 32.6909091,
                "end_time": 33.5431818,
                "pitch": 50,
                "velocity": 80,
                "duration": 0.8522727,
                "tempo": 120.0
            },
            {
                "start_time": 32.2340909,
                "end_time": 34.2863636,
                "pitch": 52,
                "velocity": 80,
                "duration": 2.0522727,
                "tempo": 120.0
            },
            {
                "start_time": 33.5431818,
                "end_time": 34.2863636,
                "pitch": 52,
                "velocity": 80,
                "duration": 0.7431818,
                "tempo": 120.0
            },
            {
                "start_time": 34.4045455,
                "end_time": 34.6545455,
                "pitch": 50,
                "velocity": 80,
                "duration": 0.25,
                "tempo": 120.0
            },
            {
                "start_time": 34.6568182,
                "end_time": 35.5090909,
                "pitch": 50,
                "velocity": 80,
                "duration": 0.8522727,
                "tempo": 120.0
            },
            {
                "start_time": 35.5090909,
                "end_time": 36.2568182,
                "pitch": 52,
                "velocity": 80,
                "duration": 0.7477273,
                "tempo": 120.0
            },
            {
                "start_time": 36.3795455,
                "end_time": 36.6295455,
                "pitch": 52,
                "velocity": 80,
                "duration": 0.25,
                "tempo": 120.0
            },
            {
                "start_time": 36.6295455,
                "end_time": 37.475,
                "pitch": 52,
                "velocity": 80,
                "duration": 0.8454545,
                "tempo": 120.0
            },
            {
                "start_time": 37.475,
                "end_time": 37.6863636,
                "pitch": 55,
                "velocity": 80,
                "duration": 0.2113636,
                "tempo": 120.0
            },
            {
                "start_time": 25.0159091,
                "end_time": 37.6863636,
                "pitch": 67,
                "velocity": 80,
                "duration": 12.6704545,
                "tempo": 120.0
            },
            {
                "start_time": 25.0659091,
                "end_time": 37.7340909,
                "pitch": 0,
                "velocity": 80,
                "duration": 12.6681818,
                "tempo": 120.0
            },
            {
                "start_time": 37.6863636,
                "end_time": 37.7340909,
                "pitch": 55,
                "velocity": 80,
                "duration": 0.0477273,
                "tempo": 120.0
            },
            {
                "start_time": 37.7340909,
                "end_time": 37.8159091,
                "pitch": 55,
                "velocity": 80,
                "duration": 0.0818182,
                "tempo": 120.0
            },
            {
                "start_time": 37.6863636,
                "end_time": 37.8159091,
                "pitch": 67,
                "velocity": 80,
                "duration": 0.1295455,
                "tempo": 120.0
            },
            {
                "start_time": 37.7340909,
                "end_time": 37.8659091,
                "pitch": 0,
                "velocity": 80,
                "duration": 0.1318182,
                "tempo": 120.0
            },
            {
                "start_time": 37.8159091,
                "end_time": 37.8659091,
                "pitch": 55,
                "velocity": 80,
                "duration": 0.05,
                "tempo": 120.0
            },
            {
                "start_time": 37.8659091,
                "end_time": 37.9477273,
                "pitch": 55,
                "velocity": 80,
                "duration": 0.0818182,
                "tempo": 120.0
            },
            {
                "start_time": 37.8159091,
                "end_time": 37.9477273,
                "pitch": 67,
                "velocity": 80,
                "duration": 0.1318182,
                "tempo": 120.0
            },
            {
                "start_time": 37.8659091,
                "end_time": 37.9977273,
                "pitch": 0,
                "velocity": 80,
                "duration": 0.1318182,
                "tempo": 120.0
            },
            {
                "start_time": 37.9477273,
                "end_time": 37.9977273,
                "pitch": 55,
                "velocity": 80,
                "duration": 0.05,
                "tempo": 120.0
            },
            {
                "start_time": 37.9977273,
                "end_time": 38.0840909,
                "pitch": 55,
                "velocity": 80,
                "duration": 0.0863636,
                "tempo": 120.0
            },
            {
                "start_time": 37.9477273,
                "end_time": 38.0840909,
                "pitch": 67,
                "velocity": 80,
                "duration": 0.1363636,
                "tempo": 120.0
            },
            {
                "start_time": 37.9977273,
                "end_time": 38.1363636,
                "pitch": 0,
                "velocity": 80,
                "duration": 0.1386364,
                "tempo": 120.0
            },
            {
                "start_time": 38.0840909,
                "end_time": 38.1363636,
                "pitch": 55,
                "velocity": 80,
                "duration": 0.0522727,
                "tempo": 120.0
            },
            {
                "start_time": 38.1363636,
                "end_time": 38.225,
                "pitch": 55,
                "velocity": 80,
                "duration": 0.0886364,
                "tempo": 120.0
            },
            {
                "start_time": 38.0840909,
                "end_time": 38.225,
                "pitch": 67,
                "velocity": 80,
                "duration": 0.1409091,
                "tempo": 120.0
            },
            {
                "start_time": 38.1363636,
                "end_time": 38.275,
                "pitch": 0,
                "velocity": 80,
                "duration": 0.1386364,
                "tempo": 120.0
            },
            {
                "start_time": 38.225,
                "end_time": 38.275,
                "pitch": 55,
                "velocity": 80,
                "duration": 0.05,
                "tempo": 120.0
            },
            {
                "start_time": 38.275,
                "end_time": 38.3636364,
                "pitch": 55,
                "velocity": 80,
                "duration": 0.0886364,
                "tempo": 120.0
            },
            {
                "start_time": 38.225,
                "end_time": 38.3636364,
                "pitch": 67,
                "velocity": 80,
                "duration": 0.1386364,
                "tempo": 120.0
            },
            {
                "start_time": 38.275,
                "end_time": 38.4159091,
                "pitch": 0,
                "velocity": 80,
                "duration": 0.1409091,
                "tempo": 120.0
            },
            {
                "start_time": 38.3636364,
                "end_time": 38.4159091,
                "pitch": 55,
                "velocity": 80,
                "duration": 0.0522727,
                "tempo": 120.0
            },
            {
                "start_time": 38.4159091,
                "end_time": 38.4681818,
                "pitch": 55,
                "velocity": 80,
                "duration": 0.0522727,
                "tempo": 120.0
            },
            {
                "start_time": 38.4681818,
                "end_time": 38.9613636,
                "pitch": 57,
                "velocity": 80,
                "duration": 0.4931818,
                "tempo": 120.0
            },
            {
                "start_time": 38.9613636,
                "end_time": 39.4522727,
                "pitch": 52,
                "velocity": 80,
                "duration": 0.4909091,
                "tempo": 120.0
            },
            {
                "start_time": 39.4545455,
                "end_time": 39.6636364,
                "pitch": 55,
                "velocity": 80,
                "duration": 0.2090909,
                "tempo": 120.0
            },
            {
                "start_time": 38.3636364,
                "end_time": 39.6636364,
                "pitch": 67,
                "velocity": 80,
                "duration": 1.3,
                "tempo": 120.0
            },
            {
                "start_time": 38.4159091,
                "end_time": 39.7136364,
                "pitch": 0,
                "velocity": 80,
                "duration": 1.2977273,
                "tempo": 120.0
            },
            {
                "start_time": 39.6636364,
                "end_time": 39.7136364,
                "pitch": 55,
                "velocity": 80,
                "duration": 0.05,
                "tempo": 120.0
            },
            {
                "start_time": 39.7136364,
                "end_time": 39.7954545,
                "pitch": 55,
                "velocity": 80,
                "duration": 0.0818182,
                "tempo": 120.0
            },
            {
                "start_time": 39.6636364,
                "end_time": 39.7954545,
                "pitch": 67,
                "velocity": 80,
                "duration": 0.1318182,
                "tempo": 120.0
            },
            {
                "start_time": 39.7136364,
                "end_time": 39.8431818,
                "pitch": 0,
                "velocity": 80,
                "duration": 0.1295455,
                "tempo": 120.0
            },
            {
                "start_time": 39.7954545,
                "end_time": 39.8431818,
                "pitch": 55,
                "velocity": 80,
                "duration": 0.0477273,
                "tempo": 120.0
            },
            {
                "start_time": 39.8431818,
                "end_time": 39.925,
                "pitch": 55,
                "velocity": 80,
                "duration": 0.0818182,
                "tempo": 120.0
            },
            {
                "start_time": 39.7954545,
                "end_time": 39.925,
                "pitch": 67,
                "velocity": 80,
                "duration": 0.1295455,
                "tempo": 120.0
            },
            {
                "start_time": 39.8431818,
                "end_time": 39.975,
                "pitch": 0,
                "velocity": 80,
                "duration": 0.1318182,
                "tempo": 120.0
            },
            {
                "start_time": 39.925,
                "end_time": 39.975,
                "pitch": 55,
                "velocity": 80,
                "duration": 0.05,
                "tempo": 120.0
            },
            {
                "start_time": 39.975,
                "end_time": 40.0590909,
                "pitch": 55,
                "velocity": 80,
                "duration": 0.0840909,
                "tempo": 120.0
            },
            {
                "start_time": 39.925,
                "end_time": 40.0590909,
                "pitch": 67,
                "velocity": 80,
                "duration": 0.1340909,
                "tempo": 120.0
            },
            {
                "start_time": 39.975,
                "end_time": 40.1113636,
                "pitch": 0,
                "velocity": 80,
                "duration": 0.1363636,
                "tempo": 120.0
            },
            {
                "start_time": 40.0590909,
                "end_time": 40.1113636,
                "pitch": 55,
                "velocity": 80,
                "duration": 0.0522727,
                "tempo": 120.0
            },
            {
                "start_time": 40.1113636,
                "end_time": 40.1795455,
                "pitch": 55,
                "velocity": 80,
                "duration": 0.0681818,
                "tempo": 120.0
            },
            {
                "start_time": 40.1795455,
                "end_time": 40.3136364,
                "pitch": 55,
                "velocity": 80,
                "duration": 0.1340909,
                "tempo": 120.0
            },
            {
                "start_time": 40.3159091,
                "end_time": 40.5318182,
                "pitch": 55,
                "velocity": 80,
                "duration": 0.2159091,
                "tempo": 120.0
            },
            {
                "start_time": 40.0590909,
                "end_time": 40.5318182,
                "pitch": 67,
                "velocity": 80,
                "duration": 0.4727273,
                "tempo": 120.0
            },
            {
                "start_time": 40.5318182,
                "end_time": 40.5659091,
                "pitch": 55,
                "velocity": 80,
                "duration": 0.0340909,
                "tempo": 120.0
            },
            {
                "start_time": 40.5659091,
                "end_time": 40.7795455,
                "pitch": 55,
                "velocity": 80,
                "duration": 0.2136364,
                "tempo": 120.0
            },
            {
                "start_time": 40.1113636,
                "end_time": 40.8272727,
                "pitch": 0,
                "velocity": 80,
                "duration": 0.7159091,
                "tempo": 120.0
            },
            {
                "start_time": 40.7795455,
                "end_time": 40.8272727,
                "pitch": 55,
                "velocity": 80,
                "duration": 0.0477273,
                "tempo": 120.0
            },
            {
                "start_time": 40.8272727,
                "end_time": 40.9090909,
                "pitch": 55,
                "velocity": 80,
                "duration": 0.0818182,
                "tempo": 120.0
            },
            {
                "start_time": 40.5318182,
                "end_time": 40.9090909,
                "pitch": 67,
                "velocity": 80,
                "duration": 0.3772727,
                "tempo": 120.0
            },
            {
                "start_time": 40.9090909,
                "end_time": 40.9272727,
                "pitch": 55,
                "velocity": 80,
                "duration": 0.0181818,
                "tempo": 120.0
            },
            {
                "start_time": 41.4204545,
                "end_time": 42.1454545,
                "pitch": 54,
                "velocity": 80,
                "duration": 0.725,
                "tempo": 120.0
            },
            {
                "start_time": 42.2818182,
                "end_time": 42.5295455,
                "pitch": 54,
                "velocity": 80,
                "duration": 0.2477273,
                "tempo": 120.0
            },
            {
                "start_time": 42.5318182,
                "end_time": 42.8886364,
                "pitch": 54,
                "velocity": 80,
                "duration": 0.3568182,
                "tempo": 120.0
            },
            {
                "start_time": 43.3818182,
                "end_time": 44.1113636,
                "pitch": 52,
                "velocity": 80,
                "duration": 0.7295455,
                "tempo": 120.0
            },
            {
                "start_time": 44.1113636,
                "end_time": 44.2454545,
                "pitch": 52,
                "velocity": 80,
                "duration": 0.1340909,
                "tempo": 120.0
            },
            {
                "start_time": 44.2477273,
                "end_time": 44.5,
                "pitch": 52,
                "velocity": 80,
                "duration": 0.2522727,
                "tempo": 120.0
            },
            {
                "start_time": 44.5,
                "end_time": 44.8659091,
                "pitch": 52,
                "velocity": 80,
                "duration": 0.3659091,
                "tempo": 120.0
            },
            {
                "start_time": 45.3522727,
                "end_time": 46.0818182,
                "pitch": 52,
                "velocity": 80,
                "duration": 0.7295455,
                "tempo": 120.0
            },
            {
                "start_time": 46.2181818,
                "end_time": 46.4681818,
                "pitch": 52,
                "velocity": 80,
                "duration": 0.25,
                "tempo": 120.0
            },
            {
                "start_time": 46.4704545,
                "end_time": 46.8363636,
                "pitch": 52,
                "velocity": 80,
                "duration": 0.3659091,
                "tempo": 120.0
            },
            {
                "start_time": 47.3295455,
                "end_time": 47.5409091,
                "pitch": 55,
                "velocity": 80,
                "duration": 0.2113636,
                "tempo": 120.0
            },
            {
                "start_time": 40.8272727,
                "end_time": 47.5909091,
                "pitch": 0,
                "velocity": 80,
                "duration": 6.7636364,
                "tempo": 120.0
            },
            {
                "start_time": 47.5409091,
                "end_time": 47.5909091,
                "pitch": 55,
                "velocity": 80,
                "duration": 0.05,
                "tempo": 120.0
            },
            {
                "start_time": 47.5909091,
                "end_time": 47.6727273,
                "pitch": 55,
                "velocity": 80,
                "duration": 0.0818182,
                "tempo": 120.0
            },
            {
                "start_time": 40.9090909,
                "end_time": 47.6727273,
                "pitch": 67,
                "velocity": 80,
                "duration": 6.7636364,
                "tempo": 120.0
            },
            {
                "start_time": 47.5909091,
                "end_time": 47.7227273,
                "pitch": 0,
                "velocity": 80,
                "duration": 0.1318182,
                "tempo": 120.0
            },
            {
                "start_time": 47.6727273,
                "end_time": 47.7227273,
                "pitch": 55,
                "velocity": 80,
                "duration": 0.05,
                "tempo": 120.0
            },
            {
                "start_time": 47.7227273,
                "end_time": 47.8045455,
                "pitch": 55,
                "velocity": 80,
                "duration": 0.0818182,
                "tempo": 120.0
            },
            {
                "start_time": 47.6727273,
                "end_time": 47.8045455,
                "pitch": 67,
                "velocity": 80,
                "duration": 0.1318182,
                "tempo": 120.0
            },
            {
                "start_time": 47.7227273,
                "end_time": 47.8545455,
                "pitch": 0,
                "velocity": 80,
                "duration": 0.1318182,
                "tempo": 120.0
            },
            {
                "start_time": 47.8045455,
                "end_time": 47.8545455,
                "pitch": 55,
                "velocity": 80,
                "duration": 0.05,
                "tempo": 120.0
            },
            {
                "start_time": 47.8545455,
                "end_time": 47.9409091,
                "pitch": 55,
                "velocity": 80,
                "duration": 0.0863636,
                "tempo": 120.0
            },
            {
                "start_time": 47.8045455,
                "end_time": 47.9409091,
                "pitch": 67,
                "velocity": 80,
                "duration": 0.1363636,
                "tempo": 120.0
            },
            {
                "start_time": 47.8545455,
                "end_time": 47.9909091,
                "pitch": 0,
                "velocity": 80,
                "duration": 0.1363636,
                "tempo": 120.0
            },
            {
                "start_time": 47.9409091,
                "end_time": 47.9909091,
                "pitch": 55,
                "velocity": 80,
                "duration": 0.05,
                "tempo": 120.0
            },
            {
                "start_time": 47.9909091,
                "end_time": 48.0590909,
                "pitch": 55,
                "velocity": 80,
                "duration": 0.0681818,
                "tempo": 120.0
            },
            {
                "start_time": 48.0590909,
                "end_time": 48.1954545,
                "pitch": 55,
                "velocity": 80,
                "duration": 0.1363636,
                "tempo": 120.0
            },
            {
                "start_time": 48.1954545,
                "end_time": 48.4113636,
                "pitch": 55,
                "velocity": 80,
                "duration": 0.2159091,
                "tempo": 120.0
            },
            {
                "start_time": 47.9409091,
                "end_time": 48.4113636,
                "pitch": 67,
                "velocity": 80,
                "duration": 0.4704545,
                "tempo": 120.0
            },
            {
                "start_time": 48.4113636,
                "end_time": 48.4431818,
                "pitch": 55,
                "velocity": 80,
                "duration": 0.0318182,
                "tempo": 120.0
            },
            {
                "start_time": 48.4454545,
                "end_time": 48.6545455,
                "pitch": 55,
                "velocity": 80,
                "duration": 0.2090909,
                "tempo": 120.0
            },
            {
                "start_time": 47.9909091,
                "end_time": 48.7045455,
                "pitch": 0,
                "velocity": 80,
                "duration": 0.7136364,
                "tempo": 120.0
            },
            {
                "start_time": 48.6545455,
                "end_time": 48.7045455,
                "pitch": 55,
                "velocity": 80,
                "duration": 0.05,
                "tempo": 120.0
            },
            {
                "start_time": 48.7045455,
                "end_time": 48.7863636,
                "pitch": 55,
                "velocity": 80,
                "duration": 0.0818182,
                "tempo": 120.0
            },
            {
                "start_time": 48.4113636,
                "end_time": 48.7863636,
                "pitch": 67,
                "velocity": 80,
                "duration": 0.375,
                "tempo": 120.0
            },
            {
                "start_time": 48.7863636,
                "end_time": 48.8022727,
                "pitch": 55,
                "velocity": 80,
                "duration": 0.0159091,
                "tempo": 120.0
            },
            {
                "start_time": 49.2954545,
                "end_time": 50.025,
                "pitch": 54,
                "velocity": 80,
                "duration": 0.7295455,
                "tempo": 120.0
            },
            {
                "start_time": 50.1613636,
                "end_time": 50.4090909,
                "pitch": 54,
                "velocity": 80,
                "duration": 0.2477273,
                "tempo": 120.0
            },
            {
                "start_time": 50.4113636,
                "end_time": 50.7681818,
                "pitch": 54,
                "velocity": 80,
                "duration": 0.3568182,
                "tempo": 120.0
            },
            {
                "start_time": 51.2613636,
                "end_time": 51.9909091,
                "pitch": 52,
                "velocity": 80,
                "duration": 0.7295455,
                "tempo": 120.0
            },
            {
                "start_time": 51.9909091,
                "end_time": 52.1272727,
                "pitch": 52,
                "velocity": 80,
                "duration": 0.1363636,
                "tempo": 120.0
            },
            {
                "start_time": 52.1272727,
                "end_time": 52.3795455,
                "pitch": 52,
                "velocity": 80,
                "duration": 0.2522727,
                "tempo": 120.0
            },
            {
                "start_time": 52.3795455,
                "end_time": 52.7454545,
                "pitch": 52,
                "velocity": 80,
                "duration": 0.3659091,
                "tempo": 120.0
            },
            {
                "start_time": 53.2386364,
                "end_time": 53.9681818,
                "pitch": 52,
                "velocity": 80,
                "duration": 0.7295455,
                "tempo": 120.0
            },
            {
                "start_time": 54.1045455,
                "end_time": 54.3545455,
                "pitch": 52,
                "velocity": 80,
                "duration": 0.25,
                "tempo": 120.0
            },
            {
                "start_time": 54.3545455,
                "end_time": 54.7113636,
                "pitch": 52,
                "velocity": 80,
                "duration": 0.3568182,
                "tempo": 120.0
            },
            {
                "start_time": 31.9159091,
                "end_time": 55.4181818,
                "pitch": 36,
                "velocity": 80,
                "duration": 23.5022727,
                "tempo": 120.0
            },
            {
                "start_time": 55.2068182,
                "end_time": 55.4181818,
                "pitch": 48,
                "velocity": 80,
                "duration": 0.2113636,
                "tempo": 120.0
            },
            {
                "start_time": 55.4181818,
                "end_time": 55.4681818,
                "pitch": 48,
                "velocity": 80,
                "duration": 0.05,
                "tempo": 120.0
            },
            {
                "start_time": 55.4681818,
                "end_time": 55.55,
                "pitch": 48,
                "velocity": 80,
                "duration": 0.0818182,
                "tempo": 120.0
            },
            {
                "start_time": 55.55,
                "end_time": 55.5977273,
                "pitch": 48,
                "velocity": 80,
                "duration": 0.0477273,
                "tempo": 120.0
            },
            {
                "start_time": 55.4181818,
                "end_time": 55.6795455,
                "pitch": 36,
                "velocity": 80,
                "duration": 0.2613636,
                "tempo": 120.0
            },
            {
                "start_time": 55.5977273,
                "end_time": 55.6795455,
                "pitch": 48,
                "velocity": 80,
                "duration": 0.0818182,
                "tempo": 120.0
            },
            {
                "start_time": 55.6795455,
                "end_time": 55.7318182,
                "pitch": 48,
                "velocity": 80,
                "duration": 0.0522727,
                "tempo": 120.0
            },
            {
                "start_time": 55.7318182,
                "end_time": 55.8159091,
                "pitch": 48,
                "velocity": 80,
                "duration": 0.0840909,
                "tempo": 120.0
            },
            {
                "start_time": 55.8159091,
                "end_time": 55.8659091,
                "pitch": 48,
                "velocity": 80,
                "duration": 0.05,
                "tempo": 120.0
            },
            {
                "start_time": 55.7318182,
                "end_time": 55.8659091,
                "pitch": 52,
                "velocity": 80,
                "duration": 0.1340909,
                "tempo": 120.0
            },
            {
                "start_time": 55.8659091,
                "end_time": 55.9522727,
                "pitch": 48,
                "velocity": 80,
                "duration": 0.0863636,
                "tempo": 120.0
            },
            {
                "start_time": 56.0704545,
                "end_time": 56.3204545,
                "pitch": 50,
                "velocity": 80,
                "duration": 0.25,
                "tempo": 120.0
            },
            {
                "start_time": 56.3204545,
                "end_time": 57.1704545,
                "pitch": 50,
                "velocity": 80,
                "duration": 0.85,
                "tempo": 120.0
            },
            {
                "start_time": 55.8659091,
                "end_time": 57.9227273,
                "pitch": 52,
                "velocity": 80,
                "duration": 2.0568182,
                "tempo": 120.0
            },
            {
                "start_time": 57.1704545,
                "end_time": 57.9227273,
                "pitch": 52,
                "velocity": 80,
                "duration": 0.7522727,
                "tempo": 120.0
            },
            {
                "start_time": 58.0454545,
                "end_time": 58.2977273,
                "pitch": 50,
                "velocity": 80,
                "duration": 0.2522727,
                "tempo": 120.0
            },
            {
                "start_time": 58.3,
                "end_time": 59.1409091,
                "pitch": 50,
                "velocity": 80,
                "duration": 0.8409091,
                "tempo": 120.0
            },
            {
                "start_time": 59.1409091,
                "end_time": 59.8954545,
                "pitch": 52,
                "velocity": 80,
                "duration": 0.7545455,
                "tempo": 120.0
            },
            {
                "start_time": 60.0159091,
                "end_time": 60.2636364,
                "pitch": 52,
                "velocity": 80,
                "duration": 0.2477273,
                "tempo": 120.0
            },
            {
                "start_time": 60.2659091,
                "end_time": 61.1136364,
                "pitch": 52,
                "velocity": 80,
                "duration": 0.8477273,
                "tempo": 120.0
            },
            {
                "start_time": 61.1159091,
                "end_time": 61.3272727,
                "pitch": 55,
                "velocity": 80,
                "duration": 0.2113636,
                "tempo": 120.0
            },
            {
                "start_time": 48.7863636,
                "end_time": 61.3272727,
                "pitch": 67,
                "velocity": 80,
                "duration": 12.5409091,
                "tempo": 120.0
            },
            {
                "start_time": 48.7045455,
                "end_time": 61.3772727,
                "pitch": 0,
                "velocity": 80,
                "duration": 12.6727273,
                "tempo": 120.0
            },
            {
                "start_time": 61.3272727,
                "end_time": 61.3772727,
                "pitch": 55,
                "velocity": 80,
                "duration": 0.05,
                "tempo": 120.0
            },
            {
                "start_time": 61.3772727,
                "end_time": 61.4590909,
                "pitch": 55,
                "velocity": 80,
                "duration": 0.0818182,
                "tempo": 120.0
            },
            {
                "start_time": 61.3272727,
                "end_time": 61.4590909,
                "pitch": 67,
                "velocity": 80,
                "duration": 0.1318182,
                "tempo": 120.0
            },
            {
                "start_time": 61.3772727,
                "end_time": 61.5090909,
                "pitch": 0,
                "velocity": 80,
                "duration": 0.1318182,
                "tempo": 120.0
            },
            {
                "start_time": 61.4590909,
                "end_time": 61.5090909,
                "pitch": 55,
                "velocity": 80,
                "duration": 0.05,
                "tempo": 120.0
            },
            {
                "start_time": 61.5090909,
                "end_time": 61.5909091,
                "pitch": 55,
                "velocity": 80,
                "duration": 0.0818182,
                "tempo": 120.0
            },
            {
                "start_time": 61.4590909,
                "end_time": 61.5909091,
                "pitch": 67,
                "velocity": 80,
                "duration": 0.1318182,
                "tempo": 120.0
            },
            {
                "start_time": 61.5090909,
                "end_time": 61.6409091,
                "pitch": 0,
                "velocity": 80,
                "duration": 0.1318182,
                "tempo": 120.0
            },
            {
                "start_time": 61.5909091,
                "end_time": 61.6409091,
                "pitch": 55,
                "velocity": 80,
                "duration": 0.05,
                "tempo": 120.0
            },
            {
                "start_time": 61.6409091,
                "end_time": 61.7272727,
                "pitch": 55,
                "velocity": 80,
                "duration": 0.0863636,
                "tempo": 120.0
            },
            {
                "start_time": 61.5909091,
                "end_time": 61.7272727,
                "pitch": 67,
                "velocity": 80,
                "duration": 0.1363636,
                "tempo": 120.0
            },
            {
                "start_time": 61.6409091,
                "end_time": 61.7772727,
                "pitch": 0,
                "velocity": 80,
                "duration": 0.1363636,
                "tempo": 120.0
            },
            {
                "start_time": 61.7272727,
                "end_time": 61.7772727,
                "pitch": 55,
                "velocity": 80,
                "duration": 0.05,
                "tempo": 120.0
            },
            {
                "start_time": 61.7772727,
                "end_time": 61.8636364,
                "pitch": 55,
                "velocity": 80,
                "duration": 0.0863636,
                "tempo": 120.0
            },
            {
                "start_time": 61.8636364,
                "end_time": 61.9136364,
                "pitch": 55,
                "velocity": 80,
                "duration": 0.05,
                "tempo": 120.0
            },
            {
                "start_time": 61.9136364,
                "end_time": 61.9977273,
                "pitch": 55,
                "velocity": 80,
                "duration": 0.0840909,
                "tempo": 120.0
            },
            {
                "start_time": 61.7272727,
                "end_time": 61.9977273,
                "pitch": 67,
                "velocity": 80,
                "duration": 0.2704545,
                "tempo": 120.0
            },
            {
                "start_time": 61.7772727,
                "end_time": 62.0477273,
                "pitch": 0,
                "velocity": 80,
                "duration": 0.2704545,
                "tempo": 120.0
            },
            {
                "start_time": 61.9977273,
                "end_time": 62.0477273,
                "pitch": 55,
                "velocity": 80,
                "duration": 0.05,
                "tempo": 120.0
            },
            {
                "start_time": 62.0477273,
                "end_time": 62.1,
                "pitch": 55,
                "velocity": 80,
                "duration": 0.0522727,
                "tempo": 120.0
            },
            {
                "start_time": 62.1,
                "end_time": 62.5886364,
                "pitch": 57,
                "velocity": 80,
                "duration": 0.4886364,
                "tempo": 120.0
            },
            {
                "start_time": 62.5886364,
                "end_time": 63.0795455,
                "pitch": 52,
                "velocity": 80,
                "duration": 0.4909091,
                "tempo": 120.0
            }
        ],
        "Electric Piano 1": [
            {
                "start_time": 0.0272727,
                "end_time": 0.4659091,
                "pitch": 41,
                "velocity": 80,
                "duration": 0.4386364,
                "tempo": 120.0
            },
            {
                "start_time": 0.5340909,
                "end_time": 0.7386364,
                "pitch": 41,
                "velocity": 80,
                "duration": 0.2045455,
                "tempo": 120.0
            },
            {
                "start_time": 0.7727273,
                "end_time": 0.8909091,
                "pitch": 40,
                "velocity": 80,
                "duration": 0.1181818,
                "tempo": 120.0
            },
            {
                "start_time": 0.9090909,
                "end_time": 1.1227273,
                "pitch": 41,
                "velocity": 80,
                "duration": 0.2136364,
                "tempo": 120.0
            },
            {
                "start_time": 1.1409091,
                "end_time": 1.4659091,
                "pitch": 41,
                "velocity": 80,
                "duration": 0.325,
                "tempo": 120.0
            },
            {
                "start_time": 1.5159091,
                "end_time": 1.7181818,
                "pitch": 38,
                "velocity": 80,
                "duration": 0.2022727,
                "tempo": 120.0
            },
            {
                "start_time": 1.7522727,
                "end_time": 1.9727273,
                "pitch": 41,
                "velocity": 80,
                "duration": 0.2204545,
                "tempo": 120.0
            },
            {
                "start_time": 2.0090909,
                "end_time": 2.4295455,
                "pitch": 43,
                "velocity": 80,
                "duration": 0.4204545,
                "tempo": 120.0
            },
            {
                "start_time": 2.4977273,
                "end_time": 2.7045455,
                "pitch": 43,
                "velocity": 80,
                "duration": 0.2068182,
                "tempo": 120.0
            },
            {
                "start_time": 2.7386364,
                "end_time": 2.8613636,
                "pitch": 42,
                "velocity": 80,
                "duration": 0.1227273,
                "tempo": 120.0
            },
            {
                "start_time": 2.8795455,
                "end_time": 3.0977273,
                "pitch": 43,
                "velocity": 80,
                "duration": 0.2181818,
                "tempo": 120.0
            },
            {
                "start_time": 3.1159091,
                "end_time": 3.4409091,
                "pitch": 43,
                "velocity": 80,
                "duration": 0.325,
                "tempo": 120.0
            },
            {
                "start_time": 3.4909091,
                "end_time": 3.6931818,
                "pitch": 40,
                "velocity": 80,
                "duration": 0.2022727,
                "tempo": 120.0
            },
            {
                "start_time": 3.7272727,
                "end_time": 3.9477273,
                "pitch": 43,
                "velocity": 80,
                "duration": 0.2204545,
                "tempo": 120.0
            },
            {
                "start_time": 3.9818182,
                "end_time": 4.4045455,
                "pitch": 45,
                "velocity": 80,
                "duration": 0.4227273,
                "tempo": 120.0
            },
            {
                "start_time": 4.4704545,
                "end_time": 4.6727273,
                "pitch": 45,
                "velocity": 80,
                "duration": 0.2022727,
                "tempo": 120.0
            },
            {
                "start_time": 4.7090909,
                "end_time": 4.8272727,
                "pitch": 43,
                "velocity": 80,
                "duration": 0.1181818,
                "tempo": 120.0
            },
            {
                "start_time": 4.8454545,
                "end_time": 5.0613636,
                "pitch": 45,
                "velocity": 80,
                "duration": 0.2159091,
                "tempo": 120.0
            },
            {
                "start_time": 5.0772727,
                "end_time": 5.4068182,
                "pitch": 45,
                "velocity": 80,
                "duration": 0.3295455,
                "tempo": 120.0
            },
            {
                "start_time": 5.4568182,
                "end_time": 5.6590909,
                "pitch": 40,
                "velocity": 80,
                "duration": 0.2022727,
                "tempo": 120.0
            },
            {
                "start_time": 5.6931818,
                "end_time": 5.9136364,
                "pitch": 43,
                "velocity": 80,
                "duration": 0.2204545,
                "tempo": 120.0
            },
            {
                "start_time": 5.9477273,
                "end_time": 6.3704545,
                "pitch": 45,
                "velocity": 80,
                "duration": 0.4227273,
                "tempo": 120.0
            },
            {
                "start_time": 6.4363636,
                "end_time": 6.6386364,
                "pitch": 45,
                "velocity": 80,
                "duration": 0.2022727,
                "tempo": 120.0
            },
            {
                "start_time": 6.675,
                "end_time": 6.7931818,
                "pitch": 43,
                "velocity": 80,
                "duration": 0.1181818,
                "tempo": 120.0
            },
            {
                "start_time": 6.8113636,
                "end_time": 7.0272727,
                "pitch": 45,
                "velocity": 80,
                "duration": 0.2159091,
                "tempo": 120.0
            },
            {
                "start_time": 7.0431818,
                "end_time": 7.3727273,
                "pitch": 45,
                "velocity": 80,
                "duration": 0.3295455,
                "tempo": 120.0
            },
            {
                "start_time": 7.4227273,
                "end_time": 7.625,
                "pitch": 40,
                "velocity": 80,
                "duration": 0.2022727,
                "tempo": 120.0
            },
            {
                "start_time": 7.6590909,
                "end_time": 7.8795455,
                "pitch": 43,
                "velocity": 80,
                "duration": 0.2204545,
                "tempo": 120.0
            },
            {
                "start_time": 7.9136364,
                "end_time": 8.3363636,
                "pitch": 41,
                "velocity": 80,
                "duration": 0.4227273,
                "tempo": 120.0
            },
            {
                "start_time": 8.4022727,
                "end_time": 8.6090909,
                "pitch": 41,
                "velocity": 80,
                "duration": 0.2068182,
                "tempo": 120.0
            },
            {
                "start_time": 8.6454545,
                "end_time": 8.7659091,
                "pitch": 40,
                "velocity": 80,
                "duration": 0.1204545,
                "tempo": 120.0
            },
            {
                "start_time": 8.7863636,
                "end_time": 9.0022727,
                "pitch": 41,
                "velocity": 80,
                "duration": 0.2159091,
                "tempo": 120.0
            },
            {
                "start_time": 9.0181818,
                "end_time": 9.3386364,
                "pitch": 41,
                "velocity": 80,
                "duration": 0.3204545,
                "tempo": 120.0
            },
            {
                "start_time": 9.3886364,
                "end_time": 9.5909091,
                "pitch": 38,
                "velocity": 80,
                "duration": 0.2022727,
                "tempo": 120.0
            },
            {
                "start_time": 9.625,
                "end_time": 9.8454545,
                "pitch": 41,
                "velocity": 80,
                "duration": 0.2204545,
                "tempo": 120.0
            },
            {
                "start_time": 9.8795455,
                "end_time": 10.3068182,
                "pitch": 43,
                "velocity": 80,
                "duration": 0.4272727,
                "tempo": 120.0
            },
            {
                "start_time": 10.3727273,
                "end_time": 10.5795455,
                "pitch": 43,
                "velocity": 80,
                "duration": 0.2068182,
                "tempo": 120.0
            },
            {
                "start_time": 10.6159091,
                "end_time": 10.7363636,
                "pitch": 42,
                "velocity": 80,
                "duration": 0.1204545,
                "tempo": 120.0
            },
            {
                "start_time": 10.7545455,
                "end_time": 10.975,
                "pitch": 43,
                "velocity": 80,
                "duration": 0.2204545,
                "tempo": 120.0
            },
            {
                "start_time": 10.9931818,
                "end_time": 11.3204545,
                "pitch": 43,
                "velocity": 80,
                "duration": 0.3272727,
                "tempo": 120.0
            },
            {
                "start_time": 11.3704545,
                "end_time": 11.5727273,
                "pitch": 40,
                "velocity": 80,
                "duration": 0.2022727,
                "tempo": 120.0
            },
            {
                "start_time": 11.6068182,
                "end_time": 11.8272727,
                "pitch": 43,
                "velocity": 80,
                "duration": 0.2204545,
                "tempo": 120.0
            },
            {
                "start_time": 11.8636364,
                "end_time": 12.2886364,
                "pitch": 45,
                "velocity": 80,
                "duration": 0.425,
                "tempo": 120.0
            },
            {
                "start_time": 12.3545455,
                "end_time": 12.5568182,
                "pitch": 45,
                "velocity": 80,
                "duration": 0.2022727,
                "tempo": 120.0
            },
            {
                "start_time": 12.5931818,
                "end_time": 12.7113636,
                "pitch": 43,
                "velocity": 80,
                "duration": 0.1181818,
                "tempo": 120.0
            },
            {
                "start_time": 12.7295455,
                "end_time": 12.9431818,
                "pitch": 45,
                "velocity": 80,
                "duration": 0.2136364,
                "tempo": 120.0
            },
            {
                "start_time": 12.9613636,
                "end_time": 13.2863636,
                "pitch": 45,
                "velocity": 80,
                "duration": 0.325,
                "tempo": 120.0
            },
            {
                "start_time": 13.3363636,
                "end_time": 13.5386364,
                "pitch": 40,
                "velocity": 80,
                "duration": 0.2022727,
                "tempo": 120.0
            },
            {
                "start_time": 13.5727273,
                "end_time": 13.7931818,
                "pitch": 43,
                "velocity": 80,
                "duration": 0.2204545,
                "tempo": 120.0
            },
            {
                "start_time": 13.8272727,
                "end_time": 14.2545455,
                "pitch": 45,
                "velocity": 80,
                "duration": 0.4272727,
                "tempo": 120.0
            },
            {
                "start_time": 14.3204545,
                "end_time": 14.5227273,
                "pitch": 45,
                "velocity": 80,
                "duration": 0.2022727,
                "tempo": 120.0
            },
            {
                "start_time": 14.5590909,
                "end_time": 14.6772727,
                "pitch": 43,
                "velocity": 80,
                "duration": 0.1181818,
                "tempo": 120.0
            },
            {
                "start_time": 14.6954545,
                "end_time": 14.9113636,
                "pitch": 45,
                "velocity": 80,
                "duration": 0.2159091,
                "tempo": 120.0
            },
            {
                "start_time": 14.9272727,
                "end_time": 15.2568182,
                "pitch": 45,
                "velocity": 80,
                "duration": 0.3295455,
                "tempo": 120.0
            },
            {
                "start_time": 15.3068182,
                "end_time": 15.5090909,
                "pitch": 40,
                "velocity": 80,
                "duration": 0.2022727,
                "tempo": 120.0
            },
            {
                "start_time": 15.5431818,
                "end_time": 15.7636364,
                "pitch": 43,
                "velocity": 80,
                "duration": 0.2204545,
                "tempo": 120.0
            },
            {
                "start_time": 15.8,
                "end_time": 16.225,
                "pitch": 45,
                "velocity": 80,
                "duration": 0.425,
                "tempo": 120.0
            },
            {
                "start_time": 16.2909091,
                "end_time": 16.4931818,
                "pitch": 45,
                "velocity": 80,
                "duration": 0.2022727,
                "tempo": 120.0
            },
            {
                "start_time": 16.5295455,
                "end_time": 16.6454545,
                "pitch": 43,
                "velocity": 80,
                "duration": 0.1159091,
                "tempo": 120.0
            },
            {
                "start_time": 16.6636364,
                "end_time": 16.9,
                "pitch": 45,
                "velocity": 80,
                "duration": 0.2363636,
                "tempo": 120.0
            },
            {
                "start_time": 16.9159091,
                "end_time": 17.2340909,
                "pitch": 45,
                "velocity": 80,
                "duration": 0.3181818,
                "tempo": 120.0
            },
            {
                "start_time": 17.2840909,
                "end_time": 17.4863636,
                "pitch": 40,
                "velocity": 80,
                "duration": 0.2022727,
                "tempo": 120.0
            },
            {
                "start_time": 17.5204545,
                "end_time": 17.7409091,
                "pitch": 43,
                "velocity": 80,
                "duration": 0.2204545,
                "tempo": 120.0
            },
            {
                "start_time": 17.7772727,
                "end_time": 18.2022727,
                "pitch": 45,
                "velocity": 80,
                "duration": 0.425,
                "tempo": 120.0
            },
            {
                "start_time": 18.2681818,
                "end_time": 18.4727273,
                "pitch": 45,
                "velocity": 80,
                "duration": 0.2045455,
                "tempo": 120.0
            },
            {
                "start_time": 18.5068182,
                "end_time": 18.625,
                "pitch": 43,
                "velocity": 80,
                "duration": 0.1181818,
                "tempo": 120.0
            },
            {
                "start_time": 18.6431818,
                "end_time": 18.875,
                "pitch": 45,
                "velocity": 80,
                "duration": 0.2318182,
                "tempo": 120.0
            },
            {
                "start_time": 18.8931818,
                "end_time": 19.2045455,
                "pitch": 45,
                "velocity": 80,
                "duration": 0.3113636,
                "tempo": 120.0
            },
            {
                "start_time": 19.2545455,
                "end_time": 19.4568182,
                "pitch": 40,
                "velocity": 80,
                "duration": 0.2022727,
                "tempo": 120.0
            },
            {
                "start_time": 19.4909091,
                "end_time": 19.7113636,
                "pitch": 43,
                "velocity": 80,
                "duration": 0.2204545,
                "tempo": 120.0
            },
            {
                "start_time": 19.7454545,
                "end_time": 20.1727273,
                "pitch": 41,
                "velocity": 80,
                "duration": 0.4272727,
                "tempo": 120.0
            },
            {
                "start_time": 20.2386364,
                "end_time": 20.4409091,
                "pitch": 41,
                "velocity": 80,
                "duration": 0.2022727,
                "tempo": 120.0
            },
            {
                "start_time": 20.4772727,
                "end_time": 20.5931818,
                "pitch": 40,
                "velocity": 80,
                "duration": 0.1159091,
                "tempo": 120.0
            },
            {
                "start_time": 20.6113636,
                "end_time": 20.8454545,
                "pitch": 41,
                "velocity": 80,
                "duration": 0.2340909,
                "tempo": 120.0
            },
            {
                "start_time": 20.8636364,
                "end_time": 21.1727273,
                "pitch": 41,
                "velocity": 80,
                "duration": 0.3090909,
                "tempo": 120.0
            },
            {
                "start_time": 21.2227273,
                "end_time": 21.4272727,
                "pitch": 38,
                "velocity": 80,
                "duration": 0.2045455,
                "tempo": 120.0
            },
            {
                "start_time": 21.4613636,
                "end_time": 21.6818182,
                "pitch": 40,
                "velocity": 80,
                "duration": 0.2204545,
                "tempo": 120.0
            },
            {
                "start_time": 21.7159091,
                "end_time": 22.1431818,
                "pitch": 41,
                "velocity": 80,
                "duration": 0.4272727,
                "tempo": 120.0
            },
            {
                "start_time": 22.2090909,
                "end_time": 22.4113636,
                "pitch": 41,
                "velocity": 80,
                "duration": 0.2022727,
                "tempo": 120.0
            },
            {
                "start_time": 22.4454545,
                "end_time": 22.5636364,
                "pitch": 40,
                "velocity": 80,
                "duration": 0.1181818,
                "tempo": 120.0
            },
            {
                "start_time": 22.5818182,
                "end_time": 22.8159091,
                "pitch": 41,
                "velocity": 80,
                "duration": 0.2340909,
                "tempo": 120.0
            },
            {
                "start_time": 22.8318182,
                "end_time": 22.9295455,
                "pitch": 41,
                "velocity": 80,
                "duration": 0.0977273,
                "tempo": 120.0
            },
            {
                "start_time": 22.9477273,
                "end_time": 23.0454545,
                "pitch": 40,
                "velocity": 80,
                "duration": 0.0977273,
                "tempo": 120.0
            },
            {
                "start_time": 23.0613636,
                "end_time": 23.1772727,
                "pitch": 41,
                "velocity": 80,
                "duration": 0.1159091,
                "tempo": 120.0
            },
            {
                "start_time": 23.1931818,
                "end_time": 23.2954545,
                "pitch": 43,
                "velocity": 80,
                "duration": 0.1022727,
                "tempo": 120.0
            },
            {
                "start_time": 23.3113636,
                "end_time": 23.4295455,
                "pitch": 41,
                "velocity": 80,
                "duration": 0.1181818,
                "tempo": 120.0
            },
            {
                "start_time": 23.4477273,
                "end_time": 23.55,
                "pitch": 43,
                "velocity": 80,
                "duration": 0.1022727,
                "tempo": 120.0
            },
            {
                "start_time": 23.5659091,
                "end_time": 23.6681818,
                "pitch": 44,
                "velocity": 80,
                "duration": 0.1022727,
                "tempo": 120.0
            },
            {
                "start_time": 23.6863636,
                "end_time": 24.1090909,
                "pitch": 45,
                "velocity": 80,
                "duration": 0.4227273,
                "tempo": 120.0
            },
            {
                "start_time": 24.175,
                "end_time": 24.3772727,
                "pitch": 45,
                "velocity": 80,
                "duration": 0.2022727,
                "tempo": 120.0
            },
            {
                "start_time": 24.4113636,
                "end_time": 24.5295455,
                "pitch": 43,
                "velocity": 80,
                "duration": 0.1181818,
                "tempo": 120.0
            },
            {
                "start_time": 24.5477273,
                "end_time": 24.7818182,
                "pitch": 45,
                "velocity": 80,
                "duration": 0.2340909,
                "tempo": 120.0
            },
            {
                "start_time": 24.8,
                "end_time": 25.1159091,
                "pitch": 45,
                "velocity": 80,
                "duration": 0.3159091,
                "tempo": 120.0
            },
            {
                "start_time": 25.1681818,
                "end_time": 25.3704545,
                "pitch": 40,
                "velocity": 80,
                "duration": 0.2022727,
                "tempo": 120.0
            },
            {
                "start_time": 25.4045455,
                "end_time": 25.625,
                "pitch": 43,
                "velocity": 80,
                "duration": 0.2204545,
                "tempo": 120.0
            },
            {
                "start_time": 25.6590909,
                "end_time": 26.0863636,
                "pitch": 45,
                "velocity": 80,
                "duration": 0.4272727,
                "tempo": 120.0
            },
            {
                "start_time": 26.1522727,
                "end_time": 26.3545455,
                "pitch": 45,
                "velocity": 80,
                "duration": 0.2022727,
                "tempo": 120.0
            },
            {
                "start_time": 26.3909091,
                "end_time": 26.5090909,
                "pitch": 43,
                "velocity": 80,
                "duration": 0.1181818,
                "tempo": 120.0
            },
            {
                "start_time": 26.525,
                "end_time": 26.7590909,
                "pitch": 45,
                "velocity": 80,
                "duration": 0.2340909,
                "tempo": 120.0
            },
            {
                "start_time": 26.7772727,
                "end_time": 27.0863636,
                "pitch": 45,
                "velocity": 80,
                "duration": 0.3090909,
                "tempo": 120.0
            },
            {
                "start_time": 27.1386364,
                "end_time": 27.3409091,
                "pitch": 40,
                "velocity": 80,
                "duration": 0.2022727,
                "tempo": 120.0
            },
            {
                "start_time": 27.375,
                "end_time": 27.5954545,
                "pitch": 43,
                "velocity": 80,
                "duration": 0.2204545,
                "tempo": 120.0
            },
            {
                "start_time": 27.6295455,
                "end_time": 28.0568182,
                "pitch": 41,
                "velocity": 80,
                "duration": 0.4272727,
                "tempo": 120.0
            },
            {
                "start_time": 28.1227273,
                "end_time": 28.325,
                "pitch": 41,
                "velocity": 80,
                "duration": 0.2022727,
                "tempo": 120.0
            },
            {
                "start_time": 28.3590909,
                "end_time": 28.4772727,
                "pitch": 40,
                "velocity": 80,
                "duration": 0.1181818,
                "tempo": 120.0
            },
            {
                "start_time": 28.4954545,
                "end_time": 28.7272727,
                "pitch": 41,
                "velocity": 80,
                "duration": 0.2318182,
                "tempo": 120.0
            },
            {
                "start_time": 28.7454545,
                "end_time": 29.0545455,
                "pitch": 41,
                "velocity": 80,
                "duration": 0.3090909,
                "tempo": 120.0
            },
            {
                "start_time": 29.1022727,
                "end_time": 29.3068182,
                "pitch": 38,
                "velocity": 80,
                "duration": 0.2045455,
                "tempo": 120.0
            },
            {
                "start_time": 29.3409091,
                "end_time": 29.5613636,
                "pitch": 40,
                "velocity": 80,
                "duration": 0.2204545,
                "tempo": 120.0
            },
            {
                "start_time": 29.5954545,
                "end_time": 30.0227273,
                "pitch": 41,
                "velocity": 80,
                "duration": 0.4272727,
                "tempo": 120.0
            },
            {
                "start_time": 30.0886364,
                "end_time": 30.2909091,
                "pitch": 41,
                "velocity": 80,
                "duration": 0.2022727,
                "tempo": 120.0
            },
            {
                "start_time": 30.325,
                "end_time": 30.4431818,
                "pitch": 40,
                "velocity": 80,
                "duration": 0.1181818,
                "tempo": 120.0
            },
            {
                "start_time": 30.4613636,
                "end_time": 30.6954545,
                "pitch": 41,
                "velocity": 80,
                "duration": 0.2340909,
                "tempo": 120.0
            },
            {
                "start_time": 30.7113636,
                "end_time": 30.8090909,
                "pitch": 41,
                "velocity": 80,
                "duration": 0.0977273,
                "tempo": 120.0
            },
            {
                "start_time": 30.8272727,
                "end_time": 30.925,
                "pitch": 40,
                "velocity": 80,
                "duration": 0.0977273,
                "tempo": 120.0
            },
            {
                "start_time": 30.9409091,
                "end_time": 31.0568182,
                "pitch": 41,
                "velocity": 80,
                "duration": 0.1159091,
                "tempo": 120.0
            },
            {
                "start_time": 31.0727273,
                "end_time": 31.175,
                "pitch": 43,
                "velocity": 80,
                "duration": 0.1022727,
                "tempo": 120.0
            },
            {
                "start_time": 31.1909091,
                "end_time": 31.3090909,
                "pitch": 41,
                "velocity": 80,
                "duration": 0.1181818,
                "tempo": 120.0
            },
            {
                "start_time": 31.3272727,
                "end_time": 31.4295455,
                "pitch": 43,
                "velocity": 80,
                "duration": 0.1022727,
                "tempo": 120.0
            },
            {
                "start_time": 31.4454545,
                "end_time": 31.5477273,
                "pitch": 44,
                "velocity": 80,
                "duration": 0.1022727,
                "tempo": 120.0
            },
            {
                "start_time": 31.5659091,
                "end_time": 31.9977273,
                "pitch": 38,
                "velocity": 80,
                "duration": 0.4318182,
                "tempo": 120.0
            },
            {
                "start_time": 32.0659091,
                "end_time": 32.2863636,
                "pitch": 38,
                "velocity": 80,
                "duration": 0.2204545,
                "tempo": 120.0
            },
            {
                "start_time": 32.3204545,
                "end_time": 32.4227273,
                "pitch": 38,
                "velocity": 80,
                "duration": 0.1022727,
                "tempo": 120.0
            },
            {
                "start_time": 32.4386364,
                "end_time": 32.6727273,
                "pitch": 40,
                "velocity": 80,
                "duration": 0.2340909,
                "tempo": 120.0
            },
            {
                "start_time": 32.6909091,
                "end_time": 33.0,
                "pitch": 40,
                "velocity": 80,
                "duration": 0.3090909,
                "tempo": 120.0
            },
            {
                "start_time": 33.0522727,
                "end_time": 33.2704545,
                "pitch": 38,
                "velocity": 80,
                "duration": 0.2181818,
                "tempo": 120.0
            },
            {
                "start_time": 33.3045455,
                "end_time": 33.5090909,
                "pitch": 40,
                "velocity": 80,
                "duration": 0.2045455,
                "tempo": 120.0
            },
            {
                "start_time": 33.5431818,
                "end_time": 33.9659091,
                "pitch": 41,
                "velocity": 80,
                "duration": 0.4227273,
                "tempo": 120.0
            },
            {
                "start_time": 34.0318182,
                "end_time": 34.2522727,
                "pitch": 41,
                "velocity": 80,
                "duration": 0.2204545,
                "tempo": 120.0
            },
            {
                "start_time": 34.2863636,
                "end_time": 34.3886364,
                "pitch": 41,
                "velocity": 80,
                "duration": 0.1022727,
                "tempo": 120.0
            },
            {
                "start_time": 34.4045455,
                "end_time": 34.6386364,
                "pitch": 40,
                "velocity": 80,
                "duration": 0.2340909,
                "tempo": 120.0
            },
            {
                "start_time": 34.6568182,
                "end_time": 34.9659091,
                "pitch": 40,
                "velocity": 80,
                "duration": 0.3090909,
                "tempo": 120.0
            },
            {
                "start_time": 35.0181818,
                "end_time": 35.2363636,
                "pitch": 40,
                "velocity": 80,
                "duration": 0.2181818,
                "tempo": 120.0
            },
            {
                "start_time": 35.2704545,
                "end_time": 35.475,
                "pitch": 40,
                "velocity": 80,
                "duration": 0.2045455,
                "tempo": 120.0
            },
            {
                "start_time": 35.5090909,
                "end_time": 35.9318182,
                "pitch": 41,
                "velocity": 80,
                "duration": 0.4227273,
                "tempo": 120.0
            },
            {
                "start_time": 35.9977273,
                "end_time": 36.2227273,
                "pitch": 41,
                "velocity": 80,
                "duration": 0.225,
                "tempo": 120.0
            },
            {
                "start_time": 36.2590909,
                "end_time": 36.3613636,
                "pitch": 41,
                "velocity": 80,
                "duration": 0.1022727,
                "tempo": 120.0
            },
            {
                "start_time": 36.3795455,
                "end_time": 36.6136364,
                "pitch": 43,
                "velocity": 80,
                "duration": 0.2340909,
                "tempo": 120.0
            },
            {
                "start_time": 36.6295455,
                "end_time": 36.9340909,
                "pitch": 43,
                "velocity": 80,
                "duration": 0.3045455,
                "tempo": 120.0
            },
            {
                "start_time": 36.9840909,
                "end_time": 37.2022727,
                "pitch": 43,
                "velocity": 80,
                "duration": 0.2181818,
                "tempo": 120.0
            },
            {
                "start_time": 37.2386364,
                "end_time": 37.4409091,
                "pitch": 43,
                "velocity": 80,
                "duration": 0.2022727,
                "tempo": 120.0
            },
            {
                "start_time": 37.475,
                "end_time": 37.8977273,
                "pitch": 41,
                "velocity": 80,
                "duration": 0.4227273,
                "tempo": 120.0
            },
            {
                "start_time": 37.9636364,
                "end_time": 38.1886364,
                "pitch": 41,
                "velocity": 80,
                "duration": 0.225,
                "tempo": 120.0
            },
            {
                "start_time": 38.225,
                "end_time": 38.3272727,
                "pitch": 40,
                "velocity": 80,
                "duration": 0.1022727,
                "tempo": 120.0
            },
            {
                "start_time": 38.3454545,
                "end_time": 38.45,
                "pitch": 41,
                "velocity": 80,
                "duration": 0.1045455,
                "tempo": 120.0
            },
            {
                "start_time": 38.4681818,
                "end_time": 38.8954545,
                "pitch": 43,
                "velocity": 80,
                "duration": 0.4272727,
                "tempo": 120.0
            },
            {
                "start_time": 38.9613636,
                "end_time": 39.1818182,
                "pitch": 44,
                "velocity": 80,
                "duration": 0.2204545,
                "tempo": 120.0
            },
            {
                "start_time": 39.2159091,
                "end_time": 39.4181818,
                "pitch": 44,
                "velocity": 80,
                "duration": 0.2022727,
                "tempo": 120.0
            },
            {
                "start_time": 39.4545455,
                "end_time": 39.8772727,
                "pitch": 45,
                "velocity": 80,
                "duration": 0.4227273,
                "tempo": 120.0
            },
            {
                "start_time": 39.9431818,
                "end_time": 40.1454545,
                "pitch": 45,
                "velocity": 80,
                "duration": 0.2022727,
                "tempo": 120.0
            },
            {
                "start_time": 40.1795455,
                "end_time": 40.2977273,
                "pitch": 43,
                "velocity": 80,
                "duration": 0.1181818,
                "tempo": 120.0
            },
            {
                "start_time": 40.3159091,
                "end_time": 40.5477273,
                "pitch": 45,
                "velocity": 80,
                "duration": 0.2318182,
                "tempo": 120.0
            },
            {
                "start_time": 40.5659091,
                "end_time": 40.8772727,
                "pitch": 45,
                "velocity": 80,
                "duration": 0.3113636,
                "tempo": 120.0
            },
            {
                "start_time": 40.9272727,
                "end_time": 41.1295455,
                "pitch": 40,
                "velocity": 80,
                "duration": 0.2022727,
                "tempo": 120.0
            },
            {
                "start_time": 41.1636364,
                "end_time": 41.3840909,
                "pitch": 43,
                "velocity": 80,
                "duration": 0.2204545,
                "tempo": 120.0
            },
            {
                "start_time": 41.4204545,
                "end_time": 41.8431818,
                "pitch": 45,
                "velocity": 80,
                "duration": 0.4227273,
                "tempo": 120.0
            },
            {
                "start_time": 41.9090909,
                "end_time": 42.1113636,
                "pitch": 45,
                "velocity": 80,
                "duration": 0.2022727,
                "tempo": 120.0
            },
            {
                "start_time": 42.1454545,
                "end_time": 42.2636364,
                "pitch": 43,
                "velocity": 80,
                "duration": 0.1181818,
                "tempo": 120.0
            },
            {
                "start_time": 42.2818182,
                "end_time": 42.5136364,
                "pitch": 45,
                "velocity": 80,
                "duration": 0.2318182,
                "tempo": 120.0
            },
            {
                "start_time": 42.5318182,
                "end_time": 42.8386364,
                "pitch": 45,
                "velocity": 80,
                "duration": 0.3068182,
                "tempo": 120.0
            },
            {
                "start_time": 42.8886364,
                "end_time": 43.0909091,
                "pitch": 40,
                "velocity": 80,
                "duration": 0.2022727,
                "tempo": 120.0
            },
            {
                "start_time": 43.1272727,
                "end_time": 43.3477273,
                "pitch": 43,
                "velocity": 80,
                "duration": 0.2204545,
                "tempo": 120.0
            },
            {
                "start_time": 43.3818182,
                "end_time": 43.8068182,
                "pitch": 41,
                "velocity": 80,
                "duration": 0.425,
                "tempo": 120.0
            },
            {
                "start_time": 43.8727273,
                "end_time": 44.0772727,
                "pitch": 41,
                "velocity": 80,
                "duration": 0.2045455,
                "tempo": 120.0
            },
            {
                "start_time": 44.1113636,
                "end_time": 44.2295455,
                "pitch": 40,
                "velocity": 80,
                "duration": 0.1181818,
                "tempo": 120.0
            },
            {
                "start_time": 44.2477273,
                "end_time": 44.4818182,
                "pitch": 41,
                "velocity": 80,
                "duration": 0.2340909,
                "tempo": 120.0
            },
            {
                "start_time": 44.5,
                "end_time": 44.8159091,
                "pitch": 41,
                "velocity": 80,
                "duration": 0.3159091,
                "tempo": 120.0
            },
            {
                "start_time": 44.8681818,
                "end_time": 45.0659091,
                "pitch": 38,
                "velocity": 80,
                "duration": 0.1977273,
                "tempo": 120.0
            },
            {
                "start_time": 45.1,
                "end_time": 45.3181818,
                "pitch": 40,
                "velocity": 80,
                "duration": 0.2181818,
                "tempo": 120.0
            },
            {
                "start_time": 45.3522727,
                "end_time": 45.7772727,
                "pitch": 41,
                "velocity": 80,
                "duration": 0.425,
                "tempo": 120.0
            },
            {
                "start_time": 45.8431818,
                "end_time": 46.0477273,
                "pitch": 41,
                "velocity": 80,
                "duration": 0.2045455,
                "tempo": 120.0
            },
            {
                "start_time": 46.0818182,
                "end_time": 46.2,
                "pitch": 40,
                "velocity": 80,
                "duration": 0.1181818,
                "tempo": 120.0
            },
            {
                "start_time": 46.2181818,
                "end_time": 46.4522727,
                "pitch": 41,
                "velocity": 80,
                "duration": 0.2340909,
                "tempo": 120.0
            },
            {
                "start_time": 46.4704545,
                "end_time": 46.5704545,
                "pitch": 41,
                "velocity": 80,
                "duration": 0.1,
                "tempo": 120.0
            },
            {
                "start_time": 46.5863636,
                "end_time": 46.6863636,
                "pitch": 40,
                "velocity": 80,
                "duration": 0.1,
                "tempo": 120.0
            },
            {
                "start_time": 46.7045455,
                "end_time": 46.8204545,
                "pitch": 41,
                "velocity": 80,
                "duration": 0.1159091,
                "tempo": 120.0
            },
            {
                "start_time": 46.8363636,
                "end_time": 46.9386364,
                "pitch": 43,
                "velocity": 80,
                "duration": 0.1022727,
                "tempo": 120.0
            },
            {
                "start_time": 46.9545455,
                "end_time": 47.075,
                "pitch": 41,
                "velocity": 80,
                "duration": 0.1204545,
                "tempo": 120.0
            },
            {
                "start_time": 47.0909091,
                "end_time": 47.1931818,
                "pitch": 43,
                "velocity": 80,
                "duration": 0.1022727,
                "tempo": 120.0
            },
            {
                "start_time": 47.2113636,
                "end_time": 47.3113636,
                "pitch": 44,
                "velocity": 80,
                "duration": 0.1,
                "tempo": 120.0
            },
            {
                "start_time": 47.3295455,
                "end_time": 47.7568182,
                "pitch": 45,
                "velocity": 80,
                "duration": 0.4272727,
                "tempo": 120.0
            },
            {
                "start_time": 47.8227273,
                "end_time": 48.025,
                "pitch": 45,
                "velocity": 80,
                "duration": 0.2022727,
                "tempo": 120.0
            },
            {
                "start_time": 48.0590909,
                "end_time": 48.1772727,
                "pitch": 43,
                "velocity": 80,
                "duration": 0.1181818,
                "tempo": 120.0
            },
            {
                "start_time": 48.1954545,
                "end_time": 48.4272727,
                "pitch": 45,
                "velocity": 80,
                "duration": 0.2318182,
                "tempo": 120.0
            },
            {
                "start_time": 48.4454545,
                "end_time": 48.7545455,
                "pitch": 45,
                "velocity": 80,
                "duration": 0.3090909,
                "tempo": 120.0
            },
            {
                "start_time": 48.8022727,
                "end_time": 49.0068182,
                "pitch": 40,
                "velocity": 80,
                "duration": 0.2045455,
                "tempo": 120.0
            },
            {
                "start_time": 49.0409091,
                "end_time": 49.2613636,
                "pitch": 43,
                "velocity": 80,
                "duration": 0.2204545,
                "tempo": 120.0
            },
            {
                "start_time": 49.2954545,
                "end_time": 49.7227273,
                "pitch": 45,
                "velocity": 80,
                "duration": 0.4272727,
                "tempo": 120.0
            },
            {
                "start_time": 49.7886364,
                "end_time": 49.9909091,
                "pitch": 45,
                "velocity": 80,
                "duration": 0.2022727,
                "tempo": 120.0
            },
            {
                "start_time": 50.025,
                "end_time": 50.1431818,
                "pitch": 43,
                "velocity": 80,
                "duration": 0.1181818,
                "tempo": 120.0
            },
            {
                "start_time": 50.1613636,
                "end_time": 50.3931818,
                "pitch": 45,
                "velocity": 80,
                "duration": 0.2318182,
                "tempo": 120.0
            },
            {
                "start_time": 50.4113636,
                "end_time": 50.7204545,
                "pitch": 45,
                "velocity": 80,
                "duration": 0.3090909,
                "tempo": 120.0
            },
            {
                "start_time": 50.7681818,
                "end_time": 50.9727273,
                "pitch": 40,
                "velocity": 80,
                "duration": 0.2045455,
                "tempo": 120.0
            },
            {
                "start_time": 51.0068182,
                "end_time": 51.2272727,
                "pitch": 43,
                "velocity": 80,
                "duration": 0.2204545,
                "tempo": 120.0
            },
            {
                "start_time": 51.2613636,
                "end_time": 51.6886364,
                "pitch": 41,
                "velocity": 80,
                "duration": 0.4272727,
                "tempo": 120.0
            },
            {
                "start_time": 51.7545455,
                "end_time": 51.9568182,
                "pitch": 41,
                "velocity": 80,
                "duration": 0.2022727,
                "tempo": 120.0
            },
            {
                "start_time": 51.9909091,
                "end_time": 52.1090909,
                "pitch": 40,
                "velocity": 80,
                "duration": 0.1181818,
                "tempo": 120.0
            },
            {
                "start_time": 52.1272727,
                "end_time": 52.3613636,
                "pitch": 41,
                "velocity": 80,
                "duration": 0.2340909,
                "tempo": 120.0
            },
            {
                "start_time": 52.3795455,
                "end_time": 52.6954545,
                "pitch": 41,
                "velocity": 80,
                "duration": 0.3159091,
                "tempo": 120.0
            },
            {
                "start_time": 52.7477273,
                "end_time": 52.95,
                "pitch": 38,
                "velocity": 80,
                "duration": 0.2022727,
                "tempo": 120.0
            },
            {
                "start_time": 52.9840909,
                "end_time": 53.2045455,
                "pitch": 40,
                "velocity": 80,
                "duration": 0.2204545,
                "tempo": 120.0
            },
            {
                "start_time": 53.2386364,
                "end_time": 53.6659091,
                "pitch": 41,
                "velocity": 80,
                "duration": 0.4272727,
                "tempo": 120.0
            },
            {
                "start_time": 53.7318182,
                "end_time": 53.9340909,
                "pitch": 41,
                "velocity": 80,
                "duration": 0.2022727,
                "tempo": 120.0
            },
            {
                "start_time": 53.9704545,
                "end_time": 54.0886364,
                "pitch": 40,
                "velocity": 80,
                "duration": 0.1181818,
                "tempo": 120.0
            },
            {
                "start_time": 54.1068182,
                "end_time": 54.3386364,
                "pitch": 41,
                "velocity": 80,
                "duration": 0.2318182,
                "tempo": 120.0
            },
            {
                "start_time": 54.3545455,
                "end_time": 54.4522727,
                "pitch": 41,
                "velocity": 80,
                "duration": 0.0977273,
                "tempo": 120.0
            },
            {
                "start_time": 54.4681818,
                "end_time": 54.5659091,
                "pitch": 40,
                "velocity": 80,
                "duration": 0.0977273,
                "tempo": 120.0
            },
            {
                "start_time": 54.5818182,
                "end_time": 54.6954545,
                "pitch": 41,
                "velocity": 80,
                "duration": 0.1136364,
                "tempo": 120.0
            },
            {
                "start_time": 54.7136364,
                "end_time": 54.8136364,
                "pitch": 43,
                "velocity": 80,
                "duration": 0.1,
                "tempo": 120.0
            },
            {
                "start_time": 54.8318182,
                "end_time": 54.95,
                "pitch": 41,
                "velocity": 80,
                "duration": 0.1181818,
                "tempo": 120.0
            },
            {
                "start_time": 54.9681818,
                "end_time": 55.0681818,
                "pitch": 43,
                "velocity": 80,
                "duration": 0.1,
                "tempo": 120.0
            },
            {
                "start_time": 55.0863636,
                "end_time": 55.1886364,
                "pitch": 44,
                "velocity": 80,
                "duration": 0.1022727,
                "tempo": 120.0
            },
            {
                "start_time": 55.2068182,
                "end_time": 55.6318182,
                "pitch": 38,
                "velocity": 80,
                "duration": 0.425,
                "tempo": 120.0
            },
            {
                "start_time": 55.6977273,
                "end_time": 55.9181818,
                "pitch": 38,
                "velocity": 80,
                "duration": 0.2204545,
                "tempo": 120.0
            },
            {
                "start_time": 55.9522727,
                "end_time": 56.0545455,
                "pitch": 38,
                "velocity": 80,
                "duration": 0.1022727,
                "tempo": 120.0
            },
            {
                "start_time": 56.0704545,
                "end_time": 56.3045455,
                "pitch": 40,
                "velocity": 80,
                "duration": 0.2340909,
                "tempo": 120.0
            },
            {
                "start_time": 56.3204545,
                "end_time": 56.6295455,
                "pitch": 40,
                "velocity": 80,
                "duration": 0.3090909,
                "tempo": 120.0
            },
            {
                "start_time": 56.6795455,
                "end_time": 56.9,
                "pitch": 38,
                "velocity": 80,
                "duration": 0.2204545,
                "tempo": 120.0
            },
            {
                "start_time": 56.9340909,
                "end_time": 57.1363636,
                "pitch": 40,
                "velocity": 80,
                "duration": 0.2022727,
                "tempo": 120.0
            },
            {
                "start_time": 57.1704545,
                "end_time": 57.5977273,
                "pitch": 41,
                "velocity": 80,
                "duration": 0.4272727,
                "tempo": 120.0
            },
            {
                "start_time": 57.6636364,
                "end_time": 57.8886364,
                "pitch": 41,
                "velocity": 80,
                "duration": 0.225,
                "tempo": 120.0
            },
            {
                "start_time": 57.925,
                "end_time": 58.0272727,
                "pitch": 41,
                "velocity": 80,
                "duration": 0.1022727,
                "tempo": 120.0
            },
            {
                "start_time": 58.0477273,
                "end_time": 58.2818182,
                "pitch": 40,
                "velocity": 80,
                "duration": 0.2340909,
                "tempo": 120.0
            },
            {
                "start_time": 58.3,
                "end_time": 58.6068182,
                "pitch": 40,
                "velocity": 80,
                "duration": 0.3068182,
                "tempo": 120.0
            },
            {
                "start_time": 58.6568182,
                "end_time": 58.8727273,
                "pitch": 40,
                "velocity": 80,
                "duration": 0.2159091,
                "tempo": 120.0
            },
            {
                "start_time": 58.9068182,
                "end_time": 59.1068182,
                "pitch": 40,
                "velocity": 80,
                "duration": 0.2,
                "tempo": 120.0
            },
            {
                "start_time": 59.1409091,
                "end_time": 59.575,
                "pitch": 41,
                "velocity": 80,
                "duration": 0.4340909,
                "tempo": 120.0
            },
            {
                "start_time": 59.6431818,
                "end_time": 59.8613636,
                "pitch": 41,
                "velocity": 80,
                "duration": 0.2181818,
                "tempo": 120.0
            },
            {
                "start_time": 59.8977273,
                "end_time": 59.9977273,
                "pitch": 41,
                "velocity": 80,
                "duration": 0.1,
                "tempo": 120.0
            },
            {
                "start_time": 60.0159091,
                "end_time": 60.2477273,
                "pitch": 43,
                "velocity": 80,
                "duration": 0.2318182,
                "tempo": 120.0
            },
            {
                "start_time": 60.2659091,
                "end_time": 60.575,
                "pitch": 43,
                "velocity": 80,
                "duration": 0.3090909,
                "tempo": 120.0
            },
            {
                "start_time": 60.6227273,
                "end_time": 60.8431818,
                "pitch": 43,
                "velocity": 80,
                "duration": 0.2204545,
                "tempo": 120.0
            },
            {
                "start_time": 60.8772727,
                "end_time": 61.0818182,
                "pitch": 43,
                "velocity": 80,
                "duration": 0.2045455,
                "tempo": 120.0
            },
            {
                "start_time": 61.1159091,
                "end_time": 61.5409091,
                "pitch": 41,
                "velocity": 80,
                "duration": 0.425,
                "tempo": 120.0
            },
            {
                "start_time": 61.6090909,
                "end_time": 61.8272727,
                "pitch": 41,
                "velocity": 80,
                "duration": 0.2181818,
                "tempo": 120.0
            },
            {
                "start_time": 61.8636364,
                "end_time": 61.9636364,
                "pitch": 40,
                "velocity": 80,
                "duration": 0.1,
                "tempo": 120.0
            },
            {
                "start_time": 61.9818182,
                "end_time": 62.0818182,
                "pitch": 41,
                "velocity": 80,
                "duration": 0.1,
                "tempo": 120.0
            },
            {
                "start_time": 62.1,
                "end_time": 62.5227273,
                "pitch": 43,
                "velocity": 80,
                "duration": 0.4227273,
                "tempo": 120.0
            },
            {
                "start_time": 62.5886364,
                "end_time": 62.8090909,
                "pitch": 44,
                "velocity": 80,
                "duration": 0.2204545,
                "tempo": 120.0
            },
            {
                "start_time": 62.8431818,
                "end_time": 63.0477273,
                "pitch": 44,
                "velocity": 80,
                "duration": 0.2045455,
                "tempo": 120.0
            }
        ]
    }
}