{
    "mood": "sad",
    "instruments": {
        "Acoustic Bass": [
            {
                "start_time": 0.0159091,
                "end_time": 0.25,
                "pitch": 35,
                "velocity": 101,
                "duration": 0.2340909,
                "tempo": 120.0
            },
            {
                "start_time": 0.25,
                "end_time": 0.4659091,
                "pitch": 35,
                "velocity": 101,
                "duration": 0.2159091,
                "tempo": 120.0
            },
            {
                "start_time": 0.4659091,
                "end_time": 0.7,
                "pitch": 35,
                "velocity": 101,
                "duration": 0.2340909,
                "tempo": 120.0
            },
            {
                "start_time": 0.7,
                "end_time": 0.9159091,
                "pitch": 35,
                "velocity": 101,
                "duration": 0.2159091,
                "tempo": 120.0
            },
            {
                "start_time": 0.9159091,
                "end_time": 1.1477273,
                "pitch": 35,
                "velocity": 101,
                "duration": 0.2318182,
                "tempo": 120.0
            },
            {
                "start_time": 1.1477273,
                "end_time": 1.3659091,
                "pitch": 35,
                "velocity": 101,
                "duration": 0.2181818,
                "tempo": 120.0
            },
            {
                "start_time": 1.3659091,
                "end_time": 1.6,
                "pitch": 35,
                "velocity": 101,
                "duration": 0.2340909,
                "tempo": 120.0
            },
            {
                "start_time": 1.6,
                "end_time": 1.8159091,
                "pitch": 35,
                "velocity": 101,
                "duration": 0.2159091,
                "tempo": 120.0
            },
            {
                "start_time": 1.8159091,
                "end_time": 2.0477273,
                "pitch": 35,
                "velocity": 101,
                "duration": 0.2318182,
                "tempo": 120.0
            },
            {
                "start_time": 2.0477273,
                "end_time": 2.2659091,
                "pitch": 35,
                "velocity": 101,
                "duration": 0.2181818,
                "tempo": 120.0
            },
            {
                "start_time": 2.2659091,
                "end_time": 2.4931818,
                "pitch": 35,
                "velocity": 101,
                "duration": 0.2272727,
                "tempo": 120.0
            },
            {
                "start_time": 2.4931818,
                "end_time": 2.7045455,
                "pitch": 35,
                "velocity": 101,
                "duration": 0.2113636,
                "tempo": 120.0
            },
            {
                "start_time": 2.7045455,
                "end_time": 2.9386364,
                "pitch": 35,
                "velocity": 101,
                "duration": 0.2340909,
                "tempo": 120.0
            },
            {
                "start_time": 2.9386364,
                "end_time": 3.1545455,
                "pitch": 35,
                "velocity": 101,
                "duration": 0.2159091,
                "tempo": 120.0
            },
            {
                "start_time": 3.1545455,
                "end_time": 3.6045455,
                "pitch": 38,
                "velocity": 101,
                "duration": 0.45,
                "tempo": 120.0
            },
            {
                "start_time": 3.1545455,
                "end_time": 3.8386364,
                "pitch": 35,
                "velocity": 101,
                "duration": 0.6840909,
                "tempo": 120.0
            },
            {
                "start_time": 3.6045455,
                "end_time": 3.8386364,
                "pitch": 35,
                "velocity": 101,
                "duration": 0.2340909,
                "tempo": 120.0
            },
            {
                "start_time": 3.8386364,
                "end_time": 4.0545455,
                "pitch": 35,
                "velocity": 101,
                "duration": 0.2159091,
                "tempo": 120.0
            },
            {
                "start_time": 4.0545455,
                "end_time": 4.2727273,
                "pitch": 35,
                "velocity": 101,
                "duration": 0.2181818,
                "tempo": 120.0
            },
            {
                "start_time": 4.2727273,
                "end_time": 4.5045455,
                "pitch": 35,
                "velocity": 101,
                "duration": 0.2318182,
                "tempo": 120.0
            },
            {
                "start_time": 4.5045455,
                "end_time": 4.7204545,
                "pitch": 35,
                "velocity": 101,
                "duration": 0.2159091,
                "tempo": 120.0
            },
            {
                "start_time": 4.7204545,
                "end_time": 4.9545455,
                "pitch": 35,
                "velocity": 101,
                "duration": 0.2340909,
                "tempo": 120.0
            },
            {
                "start_time": 4.9545455,
                "end_time": 5.1659091,
                "pitch": 35,
                "velocity": 101,
                "duration": 0.2113636,
                "tempo": 120.0
            },
            {
                "start_time": 5.1659091,
                "end_time": 5.3954545,
                "pitch": 35,
                "velocity": 101,
                "duration": 0.2295455,
                "tempo": 120.0
            },
            {
                "start_time": 5.3954545,
                "end_time": 5.6159091,
                "pitch": 35,
                "velocity": 101,
                "duration": 0.2204545,
                "tempo": 120.0
            },
            {
                "start_time": 5.6159091,
                "end_time": 5.8545455,
                "pitch": 35,
                "velocity": 101,
                "duration": 0.2386364,
                "tempo": 120.0
            },
            {
                "start_time": 5.8545455,
                "end_time": 6.0659091,
                "pitch": 35,
                "velocity": 101,
                "duration": 0.2113636,
                "tempo": 120.0
            },
            {
                "start_time": 6.0659091,
                "end_time": 6.2954545,
                "pitch": 35,
                "velocity": 101,
                "duration": 0.2295455,
                "tempo": 120.0
            },
            {
                "start_time": 6.2954545,
                "end_time": 6.5159091,
                "pitch": 35,
                "velocity": 101,
                "duration": 0.2204545,
                "tempo": 120.0
            },
            {
                "start_time": 6.5159091,
                "end_time": 6.7545455,
                "pitch": 35,
                "velocity": 101,
                "duration": 0.2386364,
                "tempo": 120.0
            },
            {
                "start_time": 3.6045455,
                "end_time": 7.1954545,
                "pitch": 38,
                "velocity": 101,
                "duration": 3.5909091,
                "tempo": 120.0
            },
            {
                "start_time": 6.7545455,
                "end_time": 7.1954545,
                "pitch": 38,
                "velocity": 101,
                "duration": 0.4409091,
                "tempo": 120.0
            },
            {
                "start_time": 7.1954545,
                "end_time": 7.4113636,
                "pitch": 35,
                "velocity": 101,
                "duration": 0.2159091,
                "tempo": 120.0
            },
            {
                "start_time": 7.4113636,
                "end_time": 7.6454545,
                "pitch": 35,
                "velocity": 101,
                "duration": 0.2340909,
                "tempo": 120.0
            },
            {
                "start_time": 7.6454545,
                "end_time": 7.8613636,
                "pitch": 35,
                "velocity": 101,
                "duration": 0.2159091,
                "tempo": 120.0
            },
            {
                "start_time": 7.8613636,
                "end_time": 8.0931818,
                "pitch": 35,
                "velocity": 101,
                "duration": 0.2318182,
                "tempo": 120.0
            },
            {
                "start_time": 8.0931818,
                "end_time": 8.3113636,
                "pitch": 35,
                "velocity": 101,
                "duration": 0.2181818,
                "tempo": 120.0
            },
            {
                "start_time": 8.3113636,
                "end_time": 8.5272727,
                "pitch": 35,
                "velocity": 101,
                "duration": 0.2159091,
                "tempo": 120.0
            },
            {
                "start_time": 8.5272727,
                "end_time": 8.7522727,
                "pitch": 35,
                "velocity": 101,
                "duration": 0.225,
                "tempo": 120.0
            },
            {
                "start_time": 8.7522727,
                "end_time": 8.9590909,
                "pitch": 35,
                "velocity": 101,
                "duration": 0.2068182,
                "tempo": 120.0
            },
            {
                "start_time": 8.9590909,
                "end_time": 9.1909091,
                "pitch": 35,
                "velocity": 101,
                "duration": 0.2318182,
                "tempo": 120.0
            },
            {
                "start_time": 9.1909091,
                "end_time": 9.4068182,
                "pitch": 35,
                "velocity": 101,
                "duration": 0.2159091,
                "tempo": 120.0
            },
            {
                "start_time": 9.4068182,
                "end_time": 9.6409091,
                "pitch": 35,
                "velocity": 101,
                "duration": 0.2340909,
                "tempo": 120.0
            },
            {
                "start_time": 9.6409091,
                "end_time": 9.8568182,
                "pitch": 35,
                "velocity": 101,
                "duration": 0.2159091,
                "tempo": 120.0
            },
            {
                "start_time": 9.8568182,
                "end_time": 10.0909091,
                "pitch": 35,
                "velocity": 101,
                "duration": 0.2340909,
                "tempo": 120.0
            },
            {
                "start_time": 10.0909091,
                "end_time": 10.3068182,
                "pitch": 35,
                "velocity": 101,
                "duration": 0.2159091,
                "tempo": 120.0
            },
            {
                "start_time": 10.3068182,
                "end_time": 10.7477273,
                "pitch": 38,
                "velocity": 101,
                "duration": 0.4409091,
                "tempo": 120.0
            },
            {
                "start_time": 10.3068182,
                "end_time": 10.9818182,
                "pitch": 35,
                "velocity": 101,
                "duration": 0.675,
                "tempo": 120.0
            },
            {
                "start_time": 10.7477273,
                "end_time": 10.9818182,
                "pitch": 35,
                "velocity": 101,
                "duration": 0.2340909,
                "tempo": 120.0
            },
            {
                "start_time": 10.9818182,
                "end_time": 11.1977273,
                "pitch": 35,
                "velocity": 101,
                "duration": 0.2159091,
                "tempo": 120.0
            },
            {
                "start_time": 11.1977273,
                "end_time": 11.4318182,
                "pitch": 35,
                "velocity": 101,
                "duration": 0.2340909,
                "tempo": 120.0
            },
            {
                "start_time": 11.4318182,
                "end_time": 11.6477273,
                "pitch": 35,
                "velocity": 101,
                "duration": 0.2159091,
                "tempo": 120.0
            },
            {
                "start_time": 11.6477273,
                "end_time": 11.8818182,
                "pitch": 35,
                "velocity": 101,
                "duration": 0.2340909,
                "tempo": 120.0
            },
            {
                "start_time": 11.8818182,
                "end_time": 12.0977273,
                "pitch": 35,
                "velocity": 101,
                "duration": 0.2159091,
                "tempo": 120.0
            },
            {
                "start_time": 10.7477273,
                "end_time": 12.5477273,
                "pitch": 38,
                "velocity": 101,
                "duration": 1.8,
                "tempo": 120.0
            },
            {
                "start_time": 12.0977273,
                "end_time": 12.5477273,
                "pitch": 38,
                "velocity": 101,
                "duration": 0.45,
                "tempo": 120.0
            },
            {
                "start_time": 12.0977273,
                "end_time": 12.7636364,
                "pitch": 35,
                "velocity": 101,
                "duration": 0.6659091,
                "tempo": 120.0
            },
            {
                "start_time": 12.5477273,
                "end_time": 12.7636364,
                "pitch": 35,
                "velocity": 101,
                "duration": 0.2159091,
                "tempo": 120.0
            },
            {
                "start_time": 12.7636364,
                "end_time": 12.9977273,
                "pitch": 35,
                "velocity": 101,
                "duration": 0.2340909,
                "tempo": 120.0
            },
            {
                "start_time": 12.5477273,
                "end_time": 13.4477273,
                "pitch": 38,
                "velocity": 101,
                "duration": 0.9,
                "tempo": 120.0
            },
            {
                "start_time": 12.9977273,
                "end_time": 13.4477273,
                "pitch": 38,
                "velocity": 101,
                "duration": 0.45,
                "tempo": 120.0
            },
            {
                "start_time": 13.4477273,
                "end_time": 13.6590909,
                "pitch": 38,
                "velocity": 101,
                "duration": 0.2113636,
                "tempo": 120.0
            },
            {
                "start_time": 13.6590909,
                "end_time": 13.8863636,
                "pitch": 32,
                "velocity": 101,
                "duration": 0.2272727,
                "tempo": 120.0
            },
            {
                "start_time": 13.8863636,
                "end_time": 14.1045455,
                "pitch": 32,
                "velocity": 101,
                "duration": 0.2181818,
                "tempo": 120.0
            },
            {
                "start_time": 14.1045455,
                "end_time": 14.3363636,
                "pitch": 33,
                "velocity": 101,
                "duration": 0.2318182,
                "tempo": 120.0
            },
            {
                "start_time": 14.3363636,
                "end_time": 14.5590909,
                "pitch": 34,
                "velocity": 101,
                "duration": 0.2227273,
                "tempo": 120.0
            },
            {
                "start_time": 14.5590909,
                "end_time": 14.7977273,
                "pitch": 35,
                "velocity": 101,
                "duration": 0.2386364,
                "tempo": 120.0
            },
            {
                "start_time": 14.7977273,
                "end_time": 15.0090909,
                "pitch": 35,
                "velocity": 101,
                "duration": 0.2113636,
                "tempo": 120.0
            },
            {
                "start_time": 15.0090909,
                "end_time": 15.2363636,
                "pitch": 35,
                "velocity": 101,
                "duration": 0.2272727,
                "tempo": 120.0
            },
            {
                "start_time": 15.2363636,
                "end_time": 15.4545455,
                "pitch": 35,
                "velocity": 101,
                "duration": 0.2181818,
                "tempo": 120.0
            },
            {
                "start_time": 15.4545455,
                "end_time": 15.6863636,
                "pitch": 35,
                "velocity": 101,
                "duration": 0.2318182,
                "tempo": 120.0
            },
            {
                "start_time": 15.6863636,
                "end_time": 15.9045455,
                "pitch": 35,
                "velocity": 101,
                "duration": 0.2181818,
                "tempo": 120.0
            },
            {
                "start_time": 15.9045455,
                "end_time": 16.1386364,
                "pitch": 35,
                "velocity": 101,
                "duration": 0.2340909,
                "tempo": 120.0
            },
            {
                "start_time": 16.1386364,
                "end_time": 16.3545455,
                "pitch": 35,
                "velocity": 101,
                "duration": 0.2159091,
                "tempo": 120.0
            },
            {
                "start_time": 16.3545455,
                "end_time": 16.5863636,
                "pitch": 35,
                "velocity": 101,
                "duration": 0.2318182,
                "tempo": 120.0
            },
            {
                "start_time": 16.5863636,
                "end_time": 16.8,
                "pitch": 35,
                "velocity": 101,
                "duration": 0.2136364,
                "tempo": 120.0
            },
            {
                "start_time": 16.8,
                "end_time": 17.0113636,
                "pitch": 35,
                "velocity": 101,
                "duration": 0.2113636,
                "tempo": 120.0
            },
            {
                "start_time": 17.0113636,
                "end_time": 17.2386364,
                "pitch": 35,
                "velocity": 101,
                "duration": 0.2272727,
                "tempo": 120.0
            },
            {
                "start_time": 17.2386364,
                "end_time": 17.4522727,
                "pitch": 32,
                "velocity": 101,
                "duration": 0.2136364,
                "tempo": 120.0
            },
            {
                "start_time": 17.4522727,
                "end_time": 17.6795455,
                "pitch": 32,
                "velocity": 101,
                "duration": 0.2272727,
                "tempo": 120.0
            },
            {
                "start_time": 17.6795455,
                "end_time": 17.8909091,
                "pitch": 33,
                "velocity": 101,
                "duration": 0.2113636,
                "tempo": 120.0
            },
            {
                "start_time": 17.8909091,
                "end_time": 18.1295455,
                "pitch": 34,
                "velocity": 101,
                "duration": 0.2386364,
                "tempo": 120.0
            },
            {
                "start_time": 17.2386364,
                "end_time": 18.3522727,
                "pitch": 35,
                "velocity": 101,
                "duration": 1.1136364,
                "tempo": 120.0
            },
            {
                "start_time": 18.1295455,
                "end_time": 18.3522727,
                "pitch": 35,
                "velocity": 101,
                "duration": 0.2227273,
                "tempo": 120.0
            },
            {
                "start_time": 18.3522727,
                "end_time": 18.5795455,
                "pitch": 35,
                "velocity": 101,
                "duration": 0.2272727,
                "tempo": 120.0
            },
            {
                "start_time": 18.5795455,
                "end_time": 18.7909091,
                "pitch": 35,
                "velocity": 101,
                "duration": 0.2113636,
                "tempo": 120.0
            },
            {
                "start_time": 18.7909091,
                "end_time": 19.025,
                "pitch": 35,
                "velocity": 101,
                "duration": 0.2340909,
                "tempo": 120.0
            },
            {
                "start_time": 19.025,
                "end_time": 19.2409091,
                "pitch": 35,
                "velocity": 101,
                "duration": 0.2159091,
                "tempo": 120.0
            },
            {
                "start_time": 19.2409091,
                "end_time": 19.475,
                "pitch": 35,
                "velocity": 101,
                "duration": 0.2340909,
                "tempo": 120.0
            },
            {
                "start_time": 19.475,
                "end_time": 19.6909091,
                "pitch": 35,
                "velocity": 101,
                "duration": 0.2159091,
                "tempo": 120.0
            },
            {
                "start_time": 19.6909091,
                "end_time": 19.925,
                "pitch": 35,
                "velocity": 101,
                "duration": 0.2340909,
                "tempo": 120.0
            },
            {
                "start_time": 19.925,
                "end_time": 20.1409091,
                "pitch": 35,
                "velocity": 101,
                "duration": 0.2159091,
                "tempo": 120.0
            },
            {
                "start_time": 20.1409091,
                "end_time": 20.375,
                "pitch": 35,
                "velocity": 101,
                "duration": 0.2340909,
                "tempo": 120.0
            },
            {
                "start_time": 20.375,
                "end_time": 20.5909091,
                "pitch": 35,
                "velocity": 101,
                "duration": 0.2159091,
                "tempo": 120.0
            },
            {
                "start_time": 20.5909091,
                "end_time": 20.825,
                "pitch": 35,
                "velocity": 101,
                "duration": 0.2340909,
                "tempo": 120.0
            },
            {
                "start_time": 20.825,
                "end_time": 21.0409091,
                "pitch": 35,
                "velocity": 101,
                "duration": 0.2159091,
                "tempo": 120.0
            },
            {
                "start_time": 21.0409091,
                "end_time": 21.2590909,
                "pitch": 35,
                "velocity": 101,
                "duration": 0.2181818,
                "tempo": 120.0
            },
            {
                "start_time": 21.2590909,
                "end_time": 21.4931818,
                "pitch": 35,
                "velocity": 101,
                "duration": 0.2340909,
                "tempo": 120.0
            },
            {
                "start_time": 21.4931818,
                "end_time": 21.7090909,
                "pitch": 35,
                "velocity": 101,
                "duration": 0.2159091,
                "tempo": 120.0
            },
            {
                "start_time": 21.7090909,
                "end_time": 21.9409091,
                "pitch": 35,
                "velocity": 101,
                "duration": 0.2318182,
                "tempo": 120.0
            },
            {
                "start_time": 21.9409091,
                "end_time": 22.1545455,
                "pitch": 35,
                "velocity": 101,
                "duration": 0.2136364,
                "tempo": 120.0
            },
            {
                "start_time": 22.1545455,
                "end_time": 22.3818182,
                "pitch": 35,
                "velocity": 101,
                "duration": 0.2272727,
                "tempo": 120.0
            },
            {
                "start_time": 22.3818182,
                "end_time": 22.5977273,
                "pitch": 35,
                "velocity": 101,
                "duration": 0.2159091,
                "tempo": 120.0
            },
            {
                "start_time": 22.5977273,
                "end_time": 22.8318182,
                "pitch": 35,
                "velocity": 101,
                "duration": 0.2340909,
                "tempo": 120.0
            },
            {
                "start_time": 22.8318182,
                "end_time": 23.0477273,
                "pitch": 35,
                "velocity": 101,
                "duration": 0.2159091,
                "tempo": 120.0
            },
            {
                "start_time": 23.0477273,
                "end_time": 23.2818182,
                "pitch": 35,
                "velocity": 101,
                "duration": 0.2340909,
                "tempo": 120.0
            },
            {
                "start_time": 23.2818182,
                "end_time": 23.4977273,
                "pitch": 35,
                "velocity": 101,
                "duration": 0.2159091,
                "tempo": 120.0
            },
            {
                "start_time": 23.4977273,
                "end_time": 23.7318182,
                "pitch": 35,
                "velocity": 101,
                "duration": 0.2340909,
                "tempo": 120.0
            },
            {
                "start_time": 23.7318182,
                "end_time": 23.9477273,
                "pitch": 35,
                "velocity": 101,
                "duration": 0.2159091,
                "tempo": 120.0
            },
            {
                "start_time": 23.9477273,
                "end_time": 24.1818182,
                "pitch": 35,
                "velocity": 101,
                "duration": 0.2340909,
                "tempo": 120.0
            },
            {
                "start_time": 24.1818182,
                "end_time": 24.3977273,
                "pitch": 35,
                "velocity": 101,
                "duration": 0.2159091,
                "tempo": 120.0
            },
            {
                "start_time": 24.3977273,
                "end_time": 24.6318182,
                "pitch": 35,
                "velocity": 101,
                "duration": 0.2340909,
                "tempo": 120.0
            },
            {
                "start_time": 24.6318182,
                "end_time": 25.0704545,
                "pitch": 38,
                "velocity": 101,
                "duration": 0.4386364,
                "tempo": 120.0
            },
            {
                "start_time": 25.0704545,
                "end_time": 25.2931818,
                "pitch": 35,
                "velocity": 101,
                "duration": 0.2227273,
                "tempo": 120.0
            },
            {
                "start_time": 25.2931818,
                "end_time": 25.5136364,
                "pitch": 35,
                "velocity": 101,
                "duration": 0.2204545,
                "tempo": 120.0
            },
            {
                "start_time": 25.5136364,
                "end_time": 25.7386364,
                "pitch": 35,
                "velocity": 101,
                "duration": 0.225,
                "tempo": 120.0
            },
            {
                "start_time": 25.7386364,
                "end_time": 25.9454545,
                "pitch": 35,
                "velocity": 101,
                "duration": 0.2068182,
                "tempo": 120.0
            },
            {
                "start_time": 25.9454545,
                "end_time": 26.1772727,
                "pitch": 35,
                "velocity": 101,
                "duration": 0.2318182,
                "tempo": 120.0
            },
            {
                "start_time": 26.1772727,
                "end_time": 26.3954545,
                "pitch": 35,
                "velocity": 101,
                "duration": 0.2181818,
                "tempo": 120.0
            },
            {
                "start_time": 26.3954545,
                "end_time": 26.6227273,
                "pitch": 35,
                "velocity": 101,
                "duration": 0.2272727,
                "tempo": 120.0
            },
            {
                "start_time": 26.6227273,
                "end_time": 26.8340909,
                "pitch": 35,
                "velocity": 101,
                "duration": 0.2113636,
                "tempo": 120.0
            },
            {
                "start_time": 26.8340909,
                "end_time": 27.0681818,
                "pitch": 35,
                "velocity": 101,
                "duration": 0.2340909,
                "tempo": 120.0
            },
            {
                "start_time": 27.0681818,
                "end_time": 27.2840909,
                "pitch": 35,
                "velocity": 101,
                "duration": 0.2159091,
                "tempo": 120.0
            },
            {
                "start_time": 27.2840909,
                "end_time": 27.5181818,
                "pitch": 35,
                "velocity": 101,
                "duration": 0.2340909,
                "tempo": 120.0
            },
            {
                "start_time": 27.5181818,
                "end_time": 27.7340909,
                "pitch": 35,
                "velocity": 101,
                "duration": 0.2159091,
                "tempo": 120.0
            },
            {
                "start_time": 27.7340909,
                "end_time": 27.9681818,
                "pitch": 35,
                "velocity": 101,
                "duration": 0.2340909,
                "tempo": 120.0
            },
            {
                "start_time": 27.9681818,
                "end_time": 28.1840909,
                "pitch": 35,
                "velocity": 101,
                "duration": 0.2159091,
                "tempo": 120.0
            },
            {
                "start_time": 28.1840909,
                "end_time": 28.6340909,
                "pitch": 38,
                "velocity": 101,
                "duration": 0.45,
                "tempo": 120.0
            },
            {
                "start_time": 28.1840909,
                "end_time": 28.8681818,
                "pitch": 35,
                "velocity": 101,
                "duration": 0.6840909,
                "tempo": 120.0
            },
            {
                "start_time": 28.6340909,
                "end_time": 28.8681818,
                "pitch": 35,
                "velocity": 101,
                "duration": 0.2340909,
                "tempo": 120.0
            },
            {
                "start_time": 28.8681818,
                "end_time": 29.0840909,
                "pitch": 35,
                "velocity": 101,
                "duration": 0.2159091,
                "tempo": 120.0
            },
            {
                "start_time": 29.0840909,
                "end_time": 29.3181818,
                "pitch": 35,
                "velocity": 101,
                "duration": 0.2340909,
                "tempo": 120.0
            },
            {
                "start_time": 29.3181818,
                "end_time": 29.5340909,
                "pitch": 35,
                "velocity": 101,
                "duration": 0.2159091,
                "tempo": 120.0
            },
            {
                "start_time": 29.5340909,
                "end_time": 29.7522727,
                "pitch": 35,
                "velocity": 101,
                "duration": 0.2181818,
                "tempo": 120.0
            },
            {
                "start_time": 29.7522727,
                "end_time": 29.9840909,
                "pitch": 35,
                "velocity": 101,
                "duration": 0.2318182,
                "tempo": 120.0
            },
            {
                "start_time": 29.9840909,
                "end_time": 30.1977273,
                "pitch": 35,
                "velocity": 101,
                "duration": 0.2136364,
                "tempo": 120.0
            },
            {
                "start_time": 30.1977273,
                "end_time": 30.425,
                "pitch": 35,
                "velocity": 101,
                "duration": 0.2272727,
                "tempo": 120.0
            },
            {
                "start_time": 30.425,
                "end_time": 30.6454545,
                "pitch": 35,
                "velocity": 101,
                "duration": 0.2204545,
                "tempo": 120.0
            },
            {
                "start_time": 30.6454545,
                "end_time": 30.8840909,
                "pitch": 35,
                "velocity": 101,
                "duration": 0.2386364,
                "tempo": 120.0
            },
            {
                "start_time": 30.8840909,
                "end_time": 31.0977273,
                "pitch": 35,
                "velocity": 101,
                "duration": 0.2136364,
                "tempo": 120.0
            },
            {
                "start_time": 31.0977273,
                "end_time": 31.325,
                "pitch": 35,
                "velocity": 101,
                "duration": 0.2272727,
                "tempo": 120.0
            },
            {
                "start_time": 31.325,
                "end_time": 31.5454545,
                "pitch": 35,
                "velocity": 101,
                "duration": 0.2204545,
                "tempo": 120.0
            },
            {
                "start_time": 31.5454545,
                "end_time": 31.7840909,
                "pitch": 35,
                "velocity": 101,
                "duration": 0.2386364,
                "tempo": 120.0
            },
            {
                "start_time": 31.7840909,
                "end_time": 32.225,
                "pitch": 38,
                "velocity": 101,
                "duration": 0.4409091,
                "tempo": 120.0
            },
            {
                "start_time": 32.225,
                "end_time": 32.4409091,
                "pitch": 35,
                "velocity": 101,
                "duration": 0.2159091,
                "tempo": 120.0
            },
            {
                "start_time": 32.4409091,
                "end_time": 32.675,
                "pitch": 35,
                "velocity": 101,
                "duration": 0.2340909,
                "tempo": 120.0
            },
            {
                "start_time": 32.675,
                "end_time": 32.8909091,
                "pitch": 35,
                "velocity": 101,
                "duration": 0.2159091,
                "tempo": 120.0
            },
            {
                "start_time": 32.8909091,
                "end_time": 33.125,
                "pitch": 35,
                "velocity": 101,
                "duration": 0.2340909,
                "tempo": 120.0
            },
            {
                "start_time": 33.125,
                "end_time": 33.3409091,
                "pitch": 35,
                "velocity": 101,
                "duration": 0.2159091,
                "tempo": 120.0
            },
            {
                "start_time": 33.3409091,
                "end_time": 33.575,
                "pitch": 35,
                "velocity": 101,
                "duration": 0.2340909,
                "tempo": 120.0
            },
            {
                "start_time": 33.575,
                "end_time": 33.7863636,
                "pitch": 35,
                "velocity": 101,
                "duration": 0.2113636,
                "tempo": 120.0
            },
            {
                "start_time": 33.7863636,
                "end_time": 33.9977273,
                "pitch": 35,
                "velocity": 101,
                "duration": 0.2113636,
                "tempo": 120.0
            },
            {
                "start_time": 33.9977273,
                "end_time": 34.225,
                "pitch": 35,
                "velocity": 101,
                "duration": 0.2272727,
                "tempo": 120.0
            },
            {
                "start_time": 34.225,
                "end_time": 34.4386364,
                "pitch": 35,
                "velocity": 101,
                "duration": 0.2136364,
                "tempo": 120.0
            },
            {
                "start_time": 34.4386364,
                "end_time": 34.6659091,
                "pitch": 35,
                "velocity": 101,
                "duration": 0.2272727,
                "tempo": 120.0
            },
            {
                "start_time": 34.6659091,
                "end_time": 34.8772727,
                "pitch": 35,
                "velocity": 101,
                "duration": 0.2113636,
                "tempo": 120.0
            },
            {
                "start_time": 34.8772727,
                "end_time": 35.1113636,
                "pitch": 35,
                "velocity": 101,
                "duration": 0.2340909,
                "tempo": 120.0
            },
            {
                "start_time": 35.1113636,
                "end_time": 35.3272727,
                "pitch": 38,
                "velocity": 101,
                "duration": 0.2159091,
                "tempo": 120.0
            },
            {
                "start_time": 35.3272727,
                "end_time": 35.5659091,
                "pitch": 38,
                "velocity": 101,
                "duration": 0.2386364,
                "tempo": 120.0
            },
            {
                "start_time": 35.5659091,
                "end_time": 35.7886364,
                "pitch": 39,
                "velocity": 101,
                "duration": 0.2227273,
                "tempo": 120.0
            },
            {
                "start_time": 35.7886364,
                "end_time": 36.0159091,
                "pitch": 40,
                "velocity": 101,
                "duration": 0.2272727,
                "tempo": 120.0
            },
            {
                "start_time": 36.0159091,
                "end_time": 36.2295455,
                "pitch": 42,
                "velocity": 101,
                "duration": 0.2136364,
                "tempo": 120.0
            },
            {
                "start_time": 36.2295455,
                "end_time": 36.4613636,
                "pitch": 42,
                "velocity": 101,
                "duration": 0.2318182,
                "tempo": 120.0
            },
            {
                "start_time": 36.4613636,
                "end_time": 36.6772727,
                "pitch": 42,
                "velocity": 101,
                "duration": 0.2159091,
                "tempo": 120.0
            },
            {
                "start_time": 36.6772727,
                "end_time": 36.9113636,
                "pitch": 42,
                "velocity": 101,
                "duration": 0.2340909,
                "tempo": 120.0
            },
            {
                "start_time": 36.9113636,
                "end_time": 37.1272727,
                "pitch": 42,
                "velocity": 101,
                "duration": 0.2159091,
                "tempo": 120.0
            },
            {
                "start_time": 37.1272727,
                "end_time": 37.3613636,
                "pitch": 42,
                "velocity": 101,
                "duration": 0.2340909,
                "tempo": 120.0
            },
            {
                "start_time": 37.3613636,
                "end_time": 37.5772727,
                "pitch": 42,
                "velocity": 101,
                "duration": 0.2159091,
                "tempo": 120.0
            },
            {
                "start_time": 37.5772727,
                "end_time": 37.8113636,
                "pitch": 42,
                "velocity": 101,
                "duration": 0.2340909,
                "tempo": 120.0
            },
            {
                "start_time": 37.8113636,
                "end_time": 38.0272727,
                "pitch": 40,
                "velocity": 101,
                "duration": 0.2159091,
                "tempo": 120.0
            },
            {
                "start_time": 38.0272727,
                "end_time": 38.2454545,
                "pitch": 40,
                "velocity": 101,
                "duration": 0.2181818,
                "tempo": 120.0
            },
            {
                "start_time": 38.2454545,
                "end_time": 38.4772727,
                "pitch": 40,
                "velocity": 101,
                "duration": 0.2318182,
                "tempo": 120.0
            },
            {
                "start_time": 38.4772727,
                "end_time": 38.6886364,
                "pitch": 40,
                "velocity": 101,
                "duration": 0.2113636,
                "tempo": 120.0
            },
            {
                "start_time": 38.6886364,
                "end_time": 38.9181818,
                "pitch": 32,
                "velocity": 101,
                "duration": 0.2295455,
                "tempo": 120.0
            },
            {
                "start_time": 38.9181818,
                "end_time": 39.1386364,
                "pitch": 32,
                "velocity": 101,
                "duration": 0.2204545,
                "tempo": 120.0
            },
            {
                "start_time": 39.1386364,
                "end_time": 39.3772727,
                "pitch": 33,
                "velocity": 101,
                "duration": 0.2386364,
                "tempo": 120.0
            },
            {
                "start_time": 39.3772727,
                "end_time": 39.5886364,
                "pitch": 34,
                "velocity": 101,
                "duration": 0.2113636,
                "tempo": 120.0
            },
            {
                "start_time": 35.1113636,
                "end_time": 39.8181818,
                "pitch": 35,
                "velocity": 101,
                "duration": 4.7068182,
                "tempo": 120.0
            },
            {
                "start_time": 39.5886364,
                "end_time": 39.8181818,
                "pitch": 35,
                "velocity": 101,
                "duration": 0.2295455,
                "tempo": 120.0
            },
            {
                "start_time": 39.8181818,
                "end_time": 40.0340909,
                "pitch": 35,
                "velocity": 101,
                "duration": 0.2159091,
                "tempo": 120.0
            },
            {
                "start_time": 40.0340909,
                "end_time": 40.2681818,
                "pitch": 35,
                "velocity": 101,
                "duration": 0.2340909,
                "tempo": 120.0
            },
            {
                "start_time": 40.2681818,
                "end_time": 40.4840909,
                "pitch": 35,
                "velocity": 101,
                "duration": 0.2159091,
                "tempo": 120.0
            },
            {
                "start_time": 40.4840909,
                "end_time": 40.7181818,
                "pitch": 35,
                "velocity": 101,
                "duration": 0.2340909,
                "tempo": 120.0
            },
            {
                "start_time": 40.7181818,
                "end_time": 41.1681818,
                "pitch": 38,
                "velocity": 101,
                "duration": 0.45,
                "tempo": 120.0
            },
            {
                "start_time": 40.7181818,
                "end_time": 41.3795455,
                "pitch": 35,
                "velocity": 101,
                "duration": 0.6613636,
                "tempo": 120.0
            },
            {
                "start_time": 41.1681818,
                "end_time": 41.3795455,
                "pitch": 35,
                "velocity": 101,
                "duration": 0.2113636,
                "tempo": 120.0
            },
            {
                "start_time": 41.3795455,
                "end_time": 41.6068182,
                "pitch": 35,
                "velocity": 101,
                "duration": 0.2272727,
                "tempo": 120.0
            },
            {
                "start_time": 41.6068182,
                "end_time": 41.8227273,
                "pitch": 35,
                "velocity": 101,
                "duration": 0.2159091,
                "tempo": 120.0
            },
            {
                "start_time": 41.825,
                "end_time": 42.0568182,
                "pitch": 35,
                "velocity": 101,
                "duration": 0.2318182,
                "tempo": 120.0
            },
            {
                "start_time": 42.0568182,
                "end_time": 42.2727273,
                "pitch": 35,
                "velocity": 101,
                "duration": 0.2159091,
                "tempo": 120.0
            },
            {
                "start_time": 42.2727273,
                "end_time": 42.4909091,
                "pitch": 35,
                "velocity": 101,
                "duration": 0.2181818,
                "tempo": 120.0
            },
            {
                "start_time": 41.1681818,
                "end_time": 42.9227273,
                "pitch": 38,
                "velocity": 101,
                "duration": 1.7545455,
                "tempo": 120.0
            },
            {
                "start_time": 42.4909091,
                "end_time": 42.9227273,
                "pitch": 38,
                "velocity": 101,
                "duration": 0.4318182,
                "tempo": 120.0
            },
            {
                "start_time": 42.4909091,
                "end_time": 43.1590909,
                "pitch": 35,
                "velocity": 101,
                "duration": 0.6681818,
                "tempo": 120.0
            },
            {
                "start_time": 42.9227273,
                "end_time": 43.1590909,
                "pitch": 35,
                "velocity": 101,
                "duration": 0.2363636,
                "tempo": 120.0
            },
            {
                "start_time": 43.1590909,
                "end_time": 43.3818182,
                "pitch": 35,
                "velocity": 101,
                "duration": 0.2227273,
                "tempo": 120.0
            },
            {
                "start_time": 43.3818182,
                "end_time": 43.6090909,
                "pitch": 35,
                "velocity": 101,
                "duration": 0.2272727,
                "tempo": 120.0
            },
            {
                "start_time": 43.6090909,
                "end_time": 43.8204545,
                "pitch": 35,
                "velocity": 101,
                "duration": 0.2113636,
                "tempo": 120.0
            },
            {
                "start_time": 43.8204545,
                "end_time": 44.0545455,
                "pitch": 35,
                "velocity": 101,
                "duration": 0.2340909,
                "tempo": 120.0
            },
            {
                "start_time": 44.0545455,
                "end_time": 44.2704545,
                "pitch": 35,
                "velocity": 101,
                "duration": 0.2159091,
                "tempo": 120.0
            },
            {
                "start_time": 44.2704545,
                "end_time": 44.5045455,
                "pitch": 35,
                "velocity": 101,
                "duration": 0.2340909,
                "tempo": 120.0
            },
            {
                "start_time": 44.5045455,
                "end_time": 44.7204545,
                "pitch": 35,
                "velocity": 101,
                "duration": 0.2159091,
                "tempo": 120.0
            },
            {
                "start_time": 44.7204545,
                "end_time": 44.9545455,
                "pitch": 35,
                "velocity": 101,
                "duration": 0.2340909,
                "tempo": 120.0
            },
            {
                "start_time": 44.9545455,
                "end_time": 45.1704545,
                "pitch": 35,
                "velocity": 101,
                "duration": 0.2159091,
                "tempo": 120.0
            },
            {
                "start_time": 45.1704545,
                "end_time": 45.4045455,
                "pitch": 35,
                "velocity": 101,
                "duration": 0.2340909,
                "tempo": 120.0
            },
            {
                "start_time": 45.4045455,
                "end_time": 45.6204545,
                "pitch": 35,
                "velocity": 101,
                "duration": 0.2159091,
                "tempo": 120.0
            },
            {
                "start_time": 45.6204545,
                "end_time": 45.8545455,
                "pitch": 35,
                "velocity": 101,
                "duration": 0.2340909,
                "tempo": 120.0
            },
            {
                "start_time": 45.8545455,
                "end_time": 46.0704545,
                "pitch": 35,
                "velocity": 101,
                "duration": 0.2159091,
                "tempo": 120.0
            },
            {
                "start_time": 46.0704545,
                "end_time": 46.5113636,
                "pitch": 38,
                "velocity": 101,
                "duration": 0.4409091,
                "tempo": 120.0
            },
            {
                "start_time": 46.5113636,
                "end_time": 46.7318182,
                "pitch": 35,
                "velocity": 101,
                "duration": 0.2204545,
                "tempo": 120.0
            },
            {
                "start_time": 46.7318182,
                "end_time": 46.9704545,
                "pitch": 35,
                "velocity": 101,
                "duration": 0.2386364,
                "tempo": 120.0
            },
            {
                "start_time": 46.9704545,
                "end_time": 47.1818182,
                "pitch": 35,
                "velocity": 101,
                "duration": 0.2113636,
                "tempo": 120.0
            },
            {
                "start_time": 47.1818182,
                "end_time": 47.4113636,
                "pitch": 35,
                "velocity": 101,
                "duration": 0.2295455,
                "tempo": 120.0
            },
            {
                "start_time": 47.4113636,
                "end_time": 47.6272727,
                "pitch": 35,
                "velocity": 101,
                "duration": 0.2159091,
                "tempo": 120.0
            },
            {
                "start_time": 47.6272727,
                "end_time": 47.8590909,
                "pitch": 35,
                "velocity": 101,
                "duration": 0.2318182,
                "tempo": 120.0
            },
            {
                "start_time": 47.8590909,
                "end_time": 48.0772727,
                "pitch": 35,
                "velocity": 101,
                "duration": 0.2181818,
                "tempo": 120.0
            },
            {
                "start_time": 48.0772727,
                "end_time": 48.3113636,
                "pitch": 35,
                "velocity": 101,
                "duration": 0.2340909,
                "tempo": 120.0
            },
            {
                "start_time": 48.3113636,
                "end_time": 48.5272727,
                "pitch": 35,
                "velocity": 101,
                "duration": 0.2159091,
                "tempo": 120.0
            },
            {
                "start_time": 48.5272727,
                "end_time": 48.7590909,
                "pitch": 35,
                "velocity": 101,
                "duration": 0.2318182,
                "tempo": 120.0
            },
            {
                "start_time": 48.7590909,
                "end_time": 48.9727273,
                "pitch": 35,
                "velocity": 101,
                "duration": 0.2136364,
                "tempo": 120.0
            },
            {
                "start_time": 48.9727273,
                "end_time": 49.2,
                "pitch": 35,
                "velocity": 101,
                "duration": 0.2272727,
                "tempo": 120.0
            },
            {
                "start_time": 49.2,
                "end_time": 49.4159091,
                "pitch": 35,
                "velocity": 101,
                "duration": 0.2159091,
                "tempo": 120.0
            },
            {
                "start_time": 49.4159091,
                "end_time": 49.65,
                "pitch": 35,
                "velocity": 101,
                "duration": 0.2340909,
                "tempo": 120.0
            },
            {
                "start_time": 46.5113636,
                "end_time": 50.1,
                "pitch": 38,
                "velocity": 101,
                "duration": 3.5886364,
                "tempo": 120.0
            },
            {
                "start_time": 49.65,
                "end_time": 50.1,
                "pitch": 38,
                "velocity": 101,
                "duration": 0.45,
                "tempo": 120.0
            },
            {
                "start_time": 49.65,
                "end_time": 50.3181818,
                "pitch": 35,
                "velocity": 101,
                "duration": 0.6681818,
                "tempo": 120.0
            },
            {
                "start_time": 50.1,
                "end_time": 50.3181818,
                "pitch": 35,
                "velocity": 101,
                "duration": 0.2181818,
                "tempo": 120.0
            },
            {
                "start_time": 50.3181818,
                "end_time": 50.55,
                "pitch": 35,
                "velocity": 101,
                "duration": 0.2318182,
                "tempo": 120.0
            },
            {
                "start_time": 50.55,
                "end_time": 50.7681818,
                "pitch": 35,
                "velocity": 101,
                "duration": 0.2181818,
                "tempo": 120.0
            },
            {
                "start_time": 50.7681818,
                "end_time": 50.9840909,
                "pitch": 35,
                "velocity": 101,
                "duration": 0.2159091,
                "tempo": 120.0
            },
            {
                "start_time": 50.9840909,
                "end_time": 51.2113636,
                "pitch": 35,
                "velocity": 101,
                "duration": 0.2272727,
                "tempo": 120.0
            },
            {
                "start_time": 51.2113636,
                "end_time": 51.425,
                "pitch": 35,
                "velocity": 101,
                "duration": 0.2136364,
                "tempo": 120.0
            },
            {
                "start_time": 51.425,
                "end_time": 51.6522727,
                "pitch": 35,
                "velocity": 101,
                "duration": 0.2272727,
                "tempo": 120.0
            },
            {
                "start_time": 51.6522727,
                "end_time": 51.8636364,
                "pitch": 35,
                "velocity": 101,
                "duration": 0.2113636,
                "tempo": 120.0
            },
            {
                "start_time": 51.8636364,
                "end_time": 52.0977273,
                "pitch": 35,
                "velocity": 101,
                "duration": 0.2340909,
                "tempo": 120.0
            },
            {
                "start_time": 52.0977273,
                "end_time": 52.3136364,
                "pitch": 35,
                "velocity": 101,
                "duration": 0.2159091,
                "tempo": 120.0
            },
            {
                "start_time": 52.3136364,
                "end_time": 52.5477273,
                "pitch": 35,
                "velocity": 101,
                "duration": 0.2340909,
                "tempo": 120.0
            },
            {
                "start_time": 52.5477273,
                "end_time": 52.7636364,
                "pitch": 35,
                "velocity": 101,
                "duration": 0.2159091,
                "tempo": 120.0
            },
            {
                "start_time": 52.7636364,
                "end_time": 52.9977273,
                "pitch": 35,
                "velocity": 101,
                "duration": 0.2340909,
                "tempo": 120.0
            },
            {
                "start_time": 52.9977273,
                "end_time": 53.2136364,
                "pitch": 35,
                "velocity": 101,
                "duration": 0.2159091,
                "tempo": 120.0
            },
            {
                "start_time": 53.2136364,
                "end_time": 53.6636364,
                "pitch": 38,
                "velocity": 101,
                "duration": 0.45,
                "tempo": 120.0
            },
            {
                "start_time": 53.2136364,
                "end_time": 53.8954545,
                "pitch": 35,
                "velocity": 101,
                "duration": 0.6818182,
                "tempo": 120.0
            },
            {
                "start_time": 53.6636364,
                "end_time": 53.8954545,
                "pitch": 35,
                "velocity": 101,
                "duration": 0.2318182,
                "tempo": 120.0
            },
            {
                "start_time": 53.8954545,
                "end_time": 54.1136364,
                "pitch": 35,
                "velocity": 101,
                "duration": 0.2181818,
                "tempo": 120.0
            },
            {
                "start_time": 54.1136364,
                "end_time": 54.3454545,
                "pitch": 35,
                "velocity": 101,
                "duration": 0.2318182,
                "tempo": 120.0
            },
            {
                "start_time": 54.3454545,
                "end_time": 54.5636364,
                "pitch": 35,
                "velocity": 101,
                "duration": 0.2181818,
                "tempo": 120.0
            },
            {
                "start_time": 54.5636364,
                "end_time": 54.7954545,
                "pitch": 35,
                "velocity": 101,
                "duration": 0.2318182,
                "tempo": 120.0
            },
            {
                "start_time": 54.7954545,
                "end_time": 55.0136364,
                "pitch": 35,
                "velocity": 101,
                "duration": 0.2181818,
                "tempo": 120.0
            },
            {
                "start_time": 55.0136364,
                "end_time": 55.225,
                "pitch": 35,
                "velocity": 101,
                "duration": 0.2113636,
                "tempo": 120.0
            },
            {
                "start_time": 55.225,
                "end_time": 55.4522727,
                "pitch": 35,
                "velocity": 101,
                "duration": 0.2272727,
                "tempo": 120.0
            },
            {
                "start_time": 55.4522727,
                "end_time": 55.6704545,
                "pitch": 35,
                "velocity": 101,
                "duration": 0.2181818,
                "tempo": 120.0
            },
            {
                "start_time": 55.6704545,
                "end_time": 55.9022727,
                "pitch": 35,
                "velocity": 101,
                "duration": 0.2318182,
                "tempo": 120.0
            },
            {
                "start_time": 55.9022727,
                "end_time": 56.1204545,
                "pitch": 35,
                "velocity": 101,
                "duration": 0.2181818,
                "tempo": 120.0
            },
            {
                "start_time": 56.1204545,
                "end_time": 56.3522727,
                "pitch": 35,
                "velocity": 101,
                "duration": 0.2318182,
                "tempo": 120.0
            },
            {
                "start_time": 56.3522727,
                "end_time": 56.5704545,
                "pitch": 35,
                "velocity": 101,
                "duration": 0.2181818,
                "tempo": 120.0
            },
            {
                "start_time": 53.6636364,
                "end_time": 56.8022727,
                "pitch": 38,
                "velocity": 101,
                "duration": 3.1386364,
                "tempo": 120.0
            },
            {
                "start_time": 56.5704545,
                "end_time": 56.8022727,
                "pitch": 38,
                "velocity": 101,
                "duration": 0.2318182,
                "tempo": 120.0
            },
            {
                "start_time": 56.8022727,
                "end_time": 57.0204545,
                "pitch": 38,
                "velocity": 101,
                "duration": 0.2181818,
                "tempo": 120.0
            },
            {
                "start_time": 57.0204545,
                "end_time": 57.2545455,
                "pitch": 39,
                "velocity": 101,
                "duration": 0.2340909,
                "tempo": 120.0
            },
            {
                "start_time": 38.6886364,
                "end_time": 57.4704545,
                "pitch": 40,
                "velocity": 101,
                "duration": 18.7818182,
                "tempo": 120.0
            },
            {
                "start_time": 57.2545455,
                "end_time": 57.4704545,
                "pitch": 40,
                "velocity": 101,
                "duration": 0.2159091,
                "tempo": 120.0
            },
            {
                "start_time": 57.4704545,
                "end_time": 57.7045455,
                "pitch": 42,
                "velocity": 101,
                "duration": 0.2340909,
                "tempo": 120.0
            },
            {
                "start_time": 57.7045455,
                "end_time": 57.9204545,
                "pitch": 42,
                "velocity": 101,
                "duration": 0.2159091,
                "tempo": 120.0
            },
            {
                "start_time": 57.9204545,
                "end_time": 58.1522727,
                "pitch": 42,
                "velocity": 101,
                "duration": 0.2318182,
                "tempo": 120.0
            },
            {
                "start_time": 58.1522727,
                "end_time": 58.3704545,
                "pitch": 42,
                "velocity": 101,
                "duration": 0.2181818,
                "tempo": 120.0
            },
            {
                "start_time": 58.3704545,
                "end_time": 58.6022727,
                "pitch": 42,
                "velocity": 101,
                "duration": 0.2318182,
                "tempo": 120.0
            },
            {
                "start_time": 58.6022727,
                "end_time": 58.8136364,
                "pitch": 42,
                "velocity": 101,
                "duration": 0.2113636,
                "tempo": 120.0
            },
            {
                "start_time": 58.8136364,
                "end_time": 59.0431818,
                "pitch": 42,
                "velocity": 101,
                "duration": 0.2295455,
                "tempo": 120.0
            },
            {
                "start_time": 59.0431818,
                "end_time": 59.2590909,
                "pitch": 42,
                "velocity": 101,
                "duration": 0.2159091,
                "tempo": 120.0
            },
            {
                "start_time": 59.2590909,
                "end_time": 59.4772727,
                "pitch": 40,
                "velocity": 101,
                "duration": 0.2181818,
                "tempo": 120.0
            },
            {
                "start_time": 59.4772727,
                "end_time": 59.7,
                "pitch": 40,
                "velocity": 101,
                "duration": 0.2227273,
                "tempo": 120.0
            },
            {
                "start_time": 59.7,
                "end_time": 59.9068182,
                "pitch": 40,
                "velocity": 101,
                "duration": 0.2068182,
                "tempo": 120.0
            },
            {
                "start_time": 59.9068182,
                "end_time": 60.1409091,
                "pitch": 40,
                "velocity": 101,
                "duration": 0.2340909,
                "tempo": 120.0
            },
            {
                "start_time": 60.1409091,
                "end_time": 60.3568182,
                "pitch": 32,
                "velocity": 101,
                "duration": 0.2159091,
                "tempo": 120.0
            },
            {
                "start_time": 60.3568182,
                "end_time": 60.5954545,
                "pitch": 32,
                "velocity": 101,
                "duration": 0.2386364,
                "tempo": 120.0
            },
            {
                "start_time": 60.5954545,
                "end_time": 60.8159091,
                "pitch": 33,
                "velocity": 101,
                "duration": 0.2204545,
                "tempo": 120.0
            },
            {
                "start_time": 60.8159091,
                "end_time": 61.0454545,
                "pitch": 34,
                "velocity": 101,
                "duration": 0.2295455,
                "tempo": 120.0
            },
            {
                "start_time": 56.5704545,
                "end_time": 61.2568182,
                "pitch": 35,
                "velocity": 101,
                "duration": 4.6863636,
                "tempo": 120.0
            },
            {
                "start_time": 61.0454545,
                "end_time": 61.2568182,
                "pitch": 35,
                "velocity": 101,
                "duration": 0.2113636,
                "tempo": 120.0
            },
            {
                "start_time": 61.2568182,
                "end_time": 61.4886364,
                "pitch": 35,
                "velocity": 101,
                "duration": 0.2318182,
                "tempo": 120.0
            },
            {
                "start_time": 61.4886364,
                "end_time": 61.7068182,
                "pitch": 35,
                "velocity": 101,
                "duration": 0.2181818,
                "tempo": 120.0
            },
            {
                "start_time": 61.7068182,
                "end_time": 61.9386364,
                "pitch": 35,
                "velocity": 101,
                "duration": 0.2318182,
                "tempo": 120.0
            },
            {
                "start_time": 61.9386364,
                "end_time": 62.1568182,
                "pitch": 35,
                "velocity": 101,
                "duration": 0.2181818,
                "tempo": 120.0
            },
            {
                "start_time": 62.1568182,
                "end_time": 62.5954545,
                "pitch": 38,
                "velocity": 101,
                "duration": 0.4386364,
                "tempo": 120.0
            },
            {
                "start_time": 62.1568182,
                "end_time": 62.8295455,
                "pitch": 35,
                "velocity": 101,
                "duration": 0.6727273,
                "tempo": 120.0
            },
            {
                "start_time": 62.5954545,
                "end_time": 62.8295455,
                "pitch": 35,
                "velocity": 101,
                "duration": 0.2340909,
                "tempo": 120.0
            },
            {
                "start_time": 62.8295455,
                "end_time": 63.0454545,
                "pitch": 35,
                "velocity": 101,
                "duration": 0.2159091,
                "tempo": 120.0
            },
            {
                "start_time": 63.0454545,
                "end_time": 63.2795455,
                "pitch": 35,
                "velocity": 101,
                "duration": 0.2340909,
                "tempo": 120.0
            },
            {
                "start_time": 63.2795455,
                "end_time": 63.4954545,
                "pitch": 35,
                "velocity": 101,
                "duration": 0.2159091,
                "tempo": 120.0
            },
            {
                "start_time": 63.4954545,
                "end_time": 63.7136364,
                "pitch": 35,
                "velocity": 101,
                "duration": 0.2181818,
                "tempo": 120.0
            },
            {
                "start_time": 63.7136364,
                "end_time": 63.9454545,
                "pitch": 35,
                "velocity": 101,
                "duration": 0.2318182,
                "tempo": 120.0
            },
            {
                "start_time": 62.5954545,
                "end_time": 64.3977273,
                "pitch": 38,
                "velocity": 101,
                "duration": 1.8022727,
                "tempo": 120.0
            },
            {
                "start_time": 63.9454545,
                "end_time": 64.3977273,
                "pitch": 38,
                "velocity": 101,
                "duration": 0.4522727,
                "tempo": 120.0
            },
            {
                "start_time": 63.9454545,
                "end_time": 64.6136364,
                "pitch": 35,
                "velocity": 101,
                "duration": 0.6681818,
                "tempo": 120.0
            },
            {
                "start_time": 64.3977273,
                "end_time": 64.6136364,
                "pitch": 35,
                "velocity": 101,
                "duration": 0.2159091,
                "tempo": 120.0
            },
            {
                "start_time": 64.6136364,
                "end_time": 64.8454545,
                "pitch": 35,
                "velocity": 101,
                "duration": 0.2318182,
                "tempo": 120.0
            },
            {
                "start_time": 64.8454545,
                "end_time": 64.8477273,
                "pitch": 35,
                "velocity": 101,
                "duration": 0.0022727,
                "tempo": 120.0
            }
        ]
    }
}