{
    "mood": "sad",
    "instruments": {
        "Flute": [
            {
                "start_time": 3.1909091,
                "end_time": 3.4068182,
                "pitch": 71,
                "velocity": 127,
                "duration": 0.2159091,
                "tempo": 120.0
            },
            {
                "start_time": 3.425,
                "end_time": 3.6409091,
                "pitch": 69,
                "velocity": 127,
                "duration": 0.2159091,
                "tempo": 120.0
            },
            {
                "start_time": 3.6590909,
                "end_time": 5.4909091,
                "pitch": 72,
                "velocity": 127,
                "duration": 1.8318182,
                "tempo": 120.0
            },
            {
                "start_time": 5.5090909,
                "end_time": 6.1568182,
                "pitch": 72,
                "velocity": 127,
                "duration": 0.6477273,
                "tempo": 120.0
            },
            {
                "start_time": 6.2045455,
                "end_time": 6.85,
                "pitch": 74,
                "velocity": 127,
                "duration": 0.6454545,
                "tempo": 120.0
            },
            {
                "start_time": 6.9,
                "end_time": 7.3181818,
                "pitch": 69,
                "velocity": 127,
                "duration": 0.4181818,
                "tempo": 120.0
            },
            {
                "start_time": 7.3522727,
                "end_time": 8.0409091,
                "pitch": 69,
                "velocity": 127,
                "duration": 0.6886364,
                "tempo": 120.0
            },
            {
                "start_time": 8.0409091,
                "end_time": 11.0136364,
                "pitch": 71,
                "velocity": 127,
                "duration": 2.9727273,
                "tempo": 120.0
            },
            {
                "start_time": 11.0318182,
                "end_time": 14.6772727,
                "pitch": 83,
                "velocity": 127,
                "duration": 3.6454545,
                "tempo": 120.0
            },
            {
                "start_time": 14.6931818,
                "end_time": 17.9295455,
                "pitch": 71,
                "velocity": 127,
                "duration": 3.2363636,
                "tempo": 120.0
            },
            {
                "start_time": 17.9454545,
                "end_time": 18.1590909,
                "pitch": 71,
                "velocity": 127,
                "duration": 0.2136364,
                "tempo": 120.0
            },
            {
                "start_time": 18.175,
                "end_time": 18.3863636,
                "pitch": 69,
                "velocity": 127,
                "duration": 0.2113636,
                "tempo": 120.0
            },
            {
                "start_time": 3.6590909,
                "end_time": 18.4022727,
                "pitch": 56,
                "velocity": 127,
                "duration": 14.7431818,
                "tempo": 120.0
            },
            {
                "start_time": 18.4022727,
                "end_time": 20.2204545,
                "pitch": 72,
                "velocity": 127,
                "duration": 1.8181818,
                "tempo": 120.0
            },
            {
                "start_time": 20.2363636,
                "end_time": 20.8840909,
                "pitch": 72,
                "velocity": 127,
                "duration": 0.6477273,
                "tempo": 120.0
            },
            {
                "start_time": 20.9159091,
                "end_time": 21.575,
                "pitch": 74,
                "velocity": 127,
                "duration": 0.6590909,
                "tempo": 120.0
            },
            {
                "start_time": 6.9,
                "end_time": 21.6068182,
                "pitch": 76,
                "velocity": 127,
                "duration": 14.7068182,
                "tempo": 120.0
            },
            {
                "start_time": 21.6068182,
                "end_time": 22.0409091,
                "pitch": 69,
                "velocity": 127,
                "duration": 0.4340909,
                "tempo": 120.0
            },
            {
                "start_time": 22.075,
                "end_time": 22.7840909,
                "pitch": 69,
                "velocity": 127,
                "duration": 0.7090909,
                "tempo": 120.0
            },
            {
                "start_time": 22.7840909,
                "end_time": 25.7409091,
                "pitch": 71,
                "velocity": 127,
                "duration": 2.9568182,
                "tempo": 120.0
            },
            {
                "start_time": 25.775,
                "end_time": 28.9636364,
                "pitch": 83,
                "velocity": 127,
                "duration": 3.1886364,
                "tempo": 120.0
            }
        ],
        "Clarinet": [
            {
                "start_time": 28.9795455,
                "end_time": 29.1954545,
                "pitch": 76,
                "velocity": 127,
                "duration": 0.2159091,
                "tempo": 120.0
            },
            {
                "start_time": 29.2136364,
                "end_time": 29.4295455,
                "pitch": 76,
                "velocity": 127,
                "duration": 0.2159091,
                "tempo": 120.0
            },
            {
                "start_time": 29.4477273,
                "end_time": 30.3386364,
                "pitch": 76,
                "velocity": 127,
                "duration": 0.8909091,
                "tempo": 120.0
            },
            {
                "start_time": 30.3727273,
                "end_time": 31.2477273,
                "pitch": 74,
                "velocity": 127,
                "duration": 0.875,
                "tempo": 120.0
            },
            {
                "start_time": 31.2977273,
                "end_time": 32.1727273,
                "pitch": 69,
                "velocity": 127,
                "duration": 0.875,
                "tempo": 120.0
            },
            {
                "start_time": 32.2227273,
                "end_time": 33.0772727,
                "pitch": 74,
                "velocity": 127,
                "duration": 0.8545455,
                "tempo": 120.0
            },
            {
                "start_time": 31.2977273,
                "end_time": 33.1090909,
                "pitch": 77,
                "velocity": 127,
                "duration": 1.8113636,
                "tempo": 120.0
            },
            {
                "start_time": 33.1090909,
                "end_time": 33.3272727,
                "pitch": 71,
                "velocity": 127,
                "duration": 0.2181818,
                "tempo": 120.0
            },
            {
                "start_time": 28.9795455,
                "end_time": 33.3431818,
                "pitch": 56,
                "velocity": 127,
                "duration": 4.3636364,
                "tempo": 120.0
            },
            {
                "start_time": 33.3431818,
                "end_time": 33.5613636,
                "pitch": 72,
                "velocity": 127,
                "duration": 0.2181818,
                "tempo": 120.0
            },
            {
                "start_time": 33.5772727,
                "end_time": 33.7977273,
                "pitch": 71,
                "velocity": 127,
                "duration": 0.2204545,
                "tempo": 120.0
            },
            {
                "start_time": 33.8159091,
                "end_time": 34.0363636,
                "pitch": 71,
                "velocity": 127,
                "duration": 0.2204545,
                "tempo": 120.0
            },
            {
                "start_time": 34.0522727,
                "end_time": 34.75,
                "pitch": 69,
                "velocity": 127,
                "duration": 0.6977273,
                "tempo": 120.0
            },
            {
                "start_time": 34.75,
                "end_time": 36.3204545,
                "pitch": 71,
                "velocity": 127,
                "duration": 1.5704545,
                "tempo": 120.0
            },
            {
                "start_time": 33.3431818,
                "end_time": 36.3363636,
                "pitch": 56,
                "velocity": 127,
                "duration": 2.9931818,
                "tempo": 120.0
            },
            {
                "start_time": 30.3727273,
                "end_time": 36.5545455,
                "pitch": 76,
                "velocity": 127,
                "duration": 6.1818182,
                "tempo": 120.0
            },
            {
                "start_time": 36.3363636,
                "end_time": 36.5545455,
                "pitch": 76,
                "velocity": 127,
                "duration": 0.2181818,
                "tempo": 120.0
            },
            {
                "start_time": 36.5704545,
                "end_time": 36.7886364,
                "pitch": 76,
                "velocity": 127,
                "duration": 0.2181818,
                "tempo": 120.0
            },
            {
                "start_time": 36.8045455,
                "end_time": 37.6909091,
                "pitch": 76,
                "velocity": 127,
                "duration": 0.8863636,
                "tempo": 120.0
            },
            {
                "start_time": 37.7409091,
                "end_time": 38.6159091,
                "pitch": 74,
                "velocity": 101,
                "duration": 0.875,
                "tempo": 120.0
            },
            {
                "start_time": 33.1090909,
                "end_time": 38.6659091,
                "pitch": 77,
                "velocity": 127,
                "duration": 5.5568182,
                "tempo": 120.0
            },
            {
                "start_time": 38.6659091,
                "end_time": 39.5227273,
                "pitch": 69,
                "velocity": 127,
                "duration": 0.8568182,
                "tempo": 120.0
            },
            {
                "start_time": 32.2227273,
                "end_time": 39.5545455,
                "pitch": 44,
                "velocity": 127,
                "duration": 7.3318182,
                "tempo": 120.0
            },
            {
                "start_time": 39.5545455,
                "end_time": 40.4454545,
                "pitch": 74,
                "velocity": 127,
                "duration": 0.8909091,
                "tempo": 120.0
            },
            {
                "start_time": 38.6659091,
                "end_time": 40.4772727,
                "pitch": 77,
                "velocity": 127,
                "duration": 1.8113636,
                "tempo": 120.0
            },
            {
                "start_time": 40.4772727,
                "end_time": 40.6954545,
                "pitch": 71,
                "velocity": 127,
                "duration": 0.2181818,
                "tempo": 120.0
            },
            {
                "start_time": 36.3363636,
                "end_time": 40.7113636,
                "pitch": 56,
                "velocity": 127,
                "duration": 4.375,
                "tempo": 120.0
            },
            {
                "start_time": 40.7113636,
                "end_time": 40.9295455,
                "pitch": 72,
                "velocity": 127,
                "duration": 0.2181818,
                "tempo": 120.0
            },
            {
                "start_time": 40.9454545,
                "end_time": 41.1659091,
                "pitch": 71,
                "velocity": 127,
                "duration": 0.2204545,
                "tempo": 120.0
            },
            {
                "start_time": 41.1840909,
                "end_time": 41.4045455,
                "pitch": 71,
                "velocity": 127,
                "duration": 0.2204545,
                "tempo": 120.0
            },
            {
                "start_time": 41.4204545,
                "end_time": 42.1181818,
                "pitch": 69,
                "velocity": 127,
                "duration": 0.6977273,
                "tempo": 120.0
            },
            {
                "start_time": 42.1181818,
                "end_time": 43.6909091,
                "pitch": 71,
                "velocity": 127,
                "duration": 1.5727273,
                "tempo": 120.0
            },
            {
                "start_time": 40.7113636,
                "end_time": 43.7068182,
                "pitch": 56,
                "velocity": 127,
                "duration": 2.9954545,
                "tempo": 120.0
            },
            {
                "start_time": 40.9454545,
                "end_time": 43.9272727,
                "pitch": 76,
                "velocity": 127,
                "duration": 2.9818182,
                "tempo": 120.0
            },
            {
                "start_time": 43.7068182,
                "end_time": 43.9272727,
                "pitch": 76,
                "velocity": 127,
                "duration": 0.2204545,
                "tempo": 120.0
            },
            {
                "start_time": 43.9431818,
                "end_time": 44.1477273,
                "pitch": 76,
                "velocity": 127,
                "duration": 0.2045455,
                "tempo": 120.0
            },
            {
                "start_time": 44.1818182,
                "end_time": 45.0568182,
                "pitch": 76,
                "velocity": 127,
                "duration": 0.875,
                "tempo": 120.0
            },
            {
                "start_time": 45.1068182,
                "end_time": 45.9636364,
                "pitch": 74,
                "velocity": 127,
                "duration": 0.8568182,
                "tempo": 120.0
            },
            {
                "start_time": 40.4772727,
                "end_time": 45.9954545,
                "pitch": 77,
                "velocity": 127,
                "duration": 5.5181818,
                "tempo": 120.0
            },
            {
                "start_time": 45.9954545,
                "end_time": 46.8863636,
                "pitch": 69,
                "velocity": 127,
                "duration": 0.8909091,
                "tempo": 120.0
            },
            {
                "start_time": 39.5545455,
                "end_time": 46.9181818,
                "pitch": 44,
                "velocity": 127,
                "duration": 7.3636364,
                "tempo": 120.0
            },
            {
                "start_time": 46.9181818,
                "end_time": 47.8113636,
                "pitch": 74,
                "velocity": 127,
                "duration": 0.8931818,
                "tempo": 120.0
            },
            {
                "start_time": 45.9954545,
                "end_time": 47.8431818,
                "pitch": 77,
                "velocity": 127,
                "duration": 1.8477273,
                "tempo": 120.0
            },
            {
                "start_time": 47.8431818,
                "end_time": 50.5681818,
                "pitch": 71,
                "velocity": 127,
                "duration": 2.725,
                "tempo": 120.0
            },
            {
                "start_time": 43.7068182,
                "end_time": 50.6181818,
                "pitch": 56,
                "velocity": 127,
                "duration": 6.9113636,
                "tempo": 120.0
            },
            {
                "start_time": 50.6181818,
                "end_time": 51.4931818,
                "pitch": 74,
                "velocity": 127,
                "duration": 0.875,
                "tempo": 120.0
            },
            {
                "start_time": 51.5272727,
                "end_time": 52.275,
                "pitch": 74,
                "velocity": 127,
                "duration": 0.7477273,
                "tempo": 120.0
            },
            {
                "start_time": 52.275,
                "end_time": 55.1977273,
                "pitch": 72,
                "velocity": 127,
                "duration": 2.9227273,
                "tempo": 120.0
            },
            {
                "start_time": 55.2159091,
                "end_time": 58.8590909,
                "pitch": 72,
                "velocity": 127,
                "duration": 3.6431818,
                "tempo": 120.0
            }
        ],
        "Vibraphone": [
            {
                "start_time": 0.4636364,
                "end_time": 0.8636364,
                "pitch": 47,
                "velocity": 80,
                "duration": 0.4,
                "tempo": 120.0
            },
            {
                "start_time": 0.8954545,
                "end_time": 1.3113636,
                "pitch": 52,
                "velocity": 80,
                "duration": 0.4159091,
                "tempo": 120.0
            },
            {
                "start_time": 1.3431818,
                "end_time": 1.775,
                "pitch": 47,
                "velocity": 80,
                "duration": 0.4318182,
                "tempo": 120.0
            },
            {
                "start_time": 1.8090909,
                "end_time": 2.2340909,
                "pitch": 40,
                "velocity": 80,
                "duration": 0.425,
                "tempo": 120.0
            },
            {
                "start_time": 0.4636364,
                "end_time": 2.2659091,
                "pitch": 54,
                "velocity": 80,
                "duration": 1.8022727,
                "tempo": 120.0
            },
            {
                "start_time": 2.2659091,
                "end_time": 2.7,
                "pitch": 47,
                "velocity": 80,
                "duration": 0.4340909,
                "tempo": 120.0
            },
            {
                "start_time": 0.8954545,
                "end_time": 2.7340909,
                "pitch": 32,
                "velocity": 80,
                "duration": 1.8386364,
                "tempo": 120.0
            },
            {
                "start_time": 2.7340909,
                "end_time": 3.1590909,
                "pitch": 52,
                "velocity": 80,
                "duration": 0.425,
                "tempo": 120.0
            },
            {
                "start_time": 2.2659091,
                "end_time": 3.1909091,
                "pitch": 54,
                "velocity": 80,
                "duration": 0.925,
                "tempo": 120.0
            },
            {
                "start_time": 3.1909091,
                "end_time": 3.625,
                "pitch": 47,
                "velocity": 80,
                "duration": 0.4340909,
                "tempo": 120.0
            },
            {
                "start_time": 1.8090909,
                "end_time": 3.6590909,
                "pitch": 19,
                "velocity": 80,
                "duration": 1.85,
                "tempo": 120.0
            },
            {
                "start_time": 3.6590909,
                "end_time": 4.0840909,
                "pitch": 41,
                "velocity": 80,
                "duration": 0.425,
                "tempo": 120.0
            },
            {
                "start_time": 4.1159091,
                "end_time": 4.55,
                "pitch": 48,
                "velocity": 80,
                "duration": 0.4340909,
                "tempo": 120.0
            },
            {
                "start_time": 4.1159091,
                "end_time": 5.0090909,
                "pitch": 53,
                "velocity": 80,
                "duration": 0.8931818,
                "tempo": 120.0
            },
            {
                "start_time": 4.5840909,
                "end_time": 5.0090909,
                "pitch": 53,
                "velocity": 80,
                "duration": 0.425,
                "tempo": 120.0
            },
            {
                "start_time": 4.5840909,
                "end_time": 5.4590909,
                "pitch": 48,
                "velocity": 80,
                "duration": 0.875,
                "tempo": 120.0
            },
            {
                "start_time": 5.0409091,
                "end_time": 5.4590909,
                "pitch": 48,
                "velocity": 80,
                "duration": 0.4181818,
                "tempo": 120.0
            },
            {
                "start_time": 5.5090909,
                "end_time": 5.925,
                "pitch": 41,
                "velocity": 80,
                "duration": 0.4159091,
                "tempo": 120.0
            },
            {
                "start_time": 5.9772727,
                "end_time": 6.3840909,
                "pitch": 48,
                "velocity": 80,
                "duration": 0.4068182,
                "tempo": 120.0
            },
            {
                "start_time": 5.0409091,
                "end_time": 6.85,
                "pitch": 53,
                "velocity": 80,
                "duration": 1.8090909,
                "tempo": 120.0
            },
            {
                "start_time": 6.4340909,
                "end_time": 6.85,
                "pitch": 53,
                "velocity": 80,
                "duration": 0.4159091,
                "tempo": 120.0
            },
            {
                "start_time": 6.9022727,
                "end_time": 7.3181818,
                "pitch": 48,
                "velocity": 80,
                "duration": 0.4159091,
                "tempo": 120.0
            },
            {
                "start_time": 5.5090909,
                "end_time": 7.3522727,
                "pitch": 36,
                "velocity": 80,
                "duration": 1.8431818,
                "tempo": 120.0
            },
            {
                "start_time": 7.3522727,
                "end_time": 7.7590909,
                "pitch": 40,
                "velocity": 80,
                "duration": 0.4068182,
                "tempo": 120.0
            },
            {
                "start_time": 3.1909091,
                "end_time": 7.7909091,
                "pitch": 54,
                "velocity": 80,
                "duration": 4.6,
                "tempo": 120.0
            },
            {
                "start_time": 7.7909091,
                "end_time": 8.2227273,
                "pitch": 47,
                "velocity": 80,
                "duration": 0.4318182,
                "tempo": 120.0
            },
            {
                "start_time": 2.7340909,
                "end_time": 8.2568182,
                "pitch": 32,
                "velocity": 80,
                "duration": 5.5227273,
                "tempo": 120.0
            },
            {
                "start_time": 8.2568182,
                "end_time": 8.6818182,
                "pitch": 52,
                "velocity": 80,
                "duration": 0.425,
                "tempo": 120.0
            },
            {
                "start_time": 7.7909091,
                "end_time": 8.7136364,
                "pitch": 54,
                "velocity": 80,
                "duration": 0.9227273,
                "tempo": 120.0
            },
            {
                "start_time": 8.7136364,
                "end_time": 9.1477273,
                "pitch": 47,
                "velocity": 80,
                "duration": 0.4340909,
                "tempo": 120.0
            },
            {
                "start_time": 3.6590909,
                "end_time": 9.1818182,
                "pitch": 19,
                "velocity": 80,
                "duration": 5.5227273,
                "tempo": 120.0
            },
            {
                "start_time": 9.1818182,
                "end_time": 9.6068182,
                "pitch": 40,
                "velocity": 80,
                "duration": 0.425,
                "tempo": 120.0
            },
            {
                "start_time": 8.7136364,
                "end_time": 9.6386364,
                "pitch": 54,
                "velocity": 80,
                "duration": 0.925,
                "tempo": 120.0
            },
            {
                "start_time": 9.6386364,
                "end_time": 10.0727273,
                "pitch": 47,
                "velocity": 80,
                "duration": 0.4340909,
                "tempo": 120.0
            },
            {
                "start_time": 8.2568182,
                "end_time": 10.1068182,
                "pitch": 32,
                "velocity": 80,
                "duration": 1.85,
                "tempo": 120.0
            },
            {
                "start_time": 10.1068182,
                "end_time": 10.5409091,
                "pitch": 52,
                "velocity": 80,
                "duration": 0.4340909,
                "tempo": 120.0
            },
            {
                "start_time": 9.6386364,
                "end_time": 10.5727273,
                "pitch": 54,
                "velocity": 80,
                "duration": 0.9340909,
                "tempo": 120.0
            },
            {
                "start_time": 10.5727273,
                "end_time": 10.9977273,
                "pitch": 47,
                "velocity": 80,
                "duration": 0.425,
                "tempo": 120.0
            },
            {
                "start_time": 9.1818182,
                "end_time": 11.0318182,
                "pitch": 19,
                "velocity": 80,
                "duration": 1.85,
                "tempo": 120.0
            },
            {
                "start_time": 11.0318182,
                "end_time": 11.4386364,
                "pitch": 40,
                "velocity": 80,
                "duration": 0.4068182,
                "tempo": 120.0
            },
            {
                "start_time": 11.4886364,
                "end_time": 11.9068182,
                "pitch": 47,
                "velocity": 80,
                "duration": 0.4181818,
                "tempo": 120.0
            },
            {
                "start_time": 10.1068182,
                "end_time": 11.9568182,
                "pitch": 32,
                "velocity": 80,
                "duration": 1.85,
                "tempo": 120.0
            },
            {
                "start_time": 11.9568182,
                "end_time": 12.3636364,
                "pitch": 52,
                "velocity": 80,
                "duration": 0.4068182,
                "tempo": 120.0
            },
            {
                "start_time": 10.5727273,
                "end_time": 12.4136364,
                "pitch": 54,
                "velocity": 80,
                "duration": 1.8409091,
                "tempo": 120.0
            },
            {
                "start_time": 12.4136364,
                "end_time": 12.8295455,
                "pitch": 47,
                "velocity": 80,
                "duration": 0.4159091,
                "tempo": 120.0
            },
            {
                "start_time": 11.0318182,
                "end_time": 12.8818182,
                "pitch": 19,
                "velocity": 80,
                "duration": 1.85,
                "tempo": 120.0
            },
            {
                "start_time": 12.8818182,
                "end_time": 13.2977273,
                "pitch": 40,
                "velocity": 80,
                "duration": 0.4159091,
                "tempo": 120.0
            },
            {
                "start_time": 13.3477273,
                "end_time": 13.7568182,
                "pitch": 47,
                "velocity": 80,
                "duration": 0.4090909,
                "tempo": 120.0
            },
            {
                "start_time": 11.9568182,
                "end_time": 13.7886364,
                "pitch": 32,
                "velocity": 80,
                "duration": 1.8318182,
                "tempo": 120.0
            },
            {
                "start_time": 13.7886364,
                "end_time": 14.2045455,
                "pitch": 52,
                "velocity": 80,
                "duration": 0.4159091,
                "tempo": 120.0
            },
            {
                "start_time": 12.4136364,
                "end_time": 14.2363636,
                "pitch": 54,
                "velocity": 80,
                "duration": 1.8227273,
                "tempo": 120.0
            },
            {
                "start_time": 14.2363636,
                "end_time": 14.6613636,
                "pitch": 47,
                "velocity": 80,
                "duration": 0.425,
                "tempo": 120.0
            },
            {
                "start_time": 12.8818182,
                "end_time": 14.6931818,
                "pitch": 19,
                "velocity": 80,
                "duration": 1.8113636,
                "tempo": 120.0
            },
            {
                "start_time": 14.6931818,
                "end_time": 15.1272727,
                "pitch": 40,
                "velocity": 80,
                "duration": 0.4340909,
                "tempo": 120.0
            },
            {
                "start_time": 14.2363636,
                "end_time": 15.1613636,
                "pitch": 54,
                "velocity": 80,
                "duration": 0.925,
                "tempo": 120.0
            },
            {
                "start_time": 15.1613636,
                "end_time": 15.5954545,
                "pitch": 47,
                "velocity": 80,
                "duration": 0.4340909,
                "tempo": 120.0
            },
            {
                "start_time": 13.7886364,
                "end_time": 15.6295455,
                "pitch": 32,
                "velocity": 80,
                "duration": 1.8409091,
                "tempo": 120.0
            },
            {
                "start_time": 15.6295455,
                "end_time": 16.0545455,
                "pitch": 52,
                "velocity": 80,
                "duration": 0.425,
                "tempo": 120.0
            },
            {
                "start_time": 15.1613636,
                "end_time": 16.0863636,
                "pitch": 54,
                "velocity": 80,
                "duration": 0.925,
                "tempo": 120.0
            },
            {
                "start_time": 16.0863636,
                "end_time": 16.5204545,
                "pitch": 47,
                "velocity": 80,
                "duration": 0.4340909,
                "tempo": 120.0
            },
            {
                "start_time": 14.6931818,
                "end_time": 16.5545455,
                "pitch": 19,
                "velocity": 80,
                "duration": 1.8613636,
                "tempo": 120.0
            },
            {
                "start_time": 16.5545455,
                "end_time": 16.9772727,
                "pitch": 40,
                "velocity": 80,
                "duration": 0.4227273,
                "tempo": 120.0
            },
            {
                "start_time": 16.0863636,
                "end_time": 17.0113636,
                "pitch": 54,
                "velocity": 80,
                "duration": 0.925,
                "tempo": 120.0
            },
            {
                "start_time": 17.0113636,
                "end_time": 17.4454545,
                "pitch": 47,
                "velocity": 80,
                "duration": 0.4340909,
                "tempo": 120.0
            },
            {
                "start_time": 15.6295455,
                "end_time": 17.4772727,
                "pitch": 32,
                "velocity": 80,
                "duration": 1.8477273,
                "tempo": 120.0
            },
            {
                "start_time": 17.4772727,
                "end_time": 17.8954545,
                "pitch": 52,
                "velocity": 80,
                "duration": 0.4181818,
                "tempo": 120.0
            },
            {
                "start_time": 17.0113636,
                "end_time": 17.9454545,
                "pitch": 54,
                "velocity": 80,
                "duration": 0.9340909,
                "tempo": 120.0
            },
            {
                "start_time": 17.9454545,
                "end_time": 18.3545455,
                "pitch": 47,
                "velocity": 80,
                "duration": 0.4090909,
                "tempo": 120.0
            },
            {
                "start_time": 16.5545455,
                "end_time": 18.4022727,
                "pitch": 19,
                "velocity": 80,
                "duration": 1.8477273,
                "tempo": 120.0
            },
            {
                "start_time": 18.4022727,
                "end_time": 18.8204545,
                "pitch": 41,
                "velocity": 80,
                "duration": 0.4181818,
                "tempo": 120.0
            },
            {
                "start_time": 18.8704545,
                "end_time": 19.2795455,
                "pitch": 48,
                "velocity": 80,
                "duration": 0.4090909,
                "tempo": 120.0
            },
            {
                "start_time": 19.3272727,
                "end_time": 19.3295455,
                "pitch": 48,
                "velocity": 80,
                "duration": 0.0022727,
                "tempo": 120.0
            },
            {
                "start_time": 6.9022727,
                "end_time": 19.7454545,
                "pitch": 53,
                "velocity": 80,
                "duration": 12.8431818,
                "tempo": 120.0
            },
            {
                "start_time": 19.3295455,
                "end_time": 19.7454545,
                "pitch": 53,
                "velocity": 80,
                "duration": 0.4159091,
                "tempo": 120.0
            },
            {
                "start_time": 19.7954545,
                "end_time": 20.2045455,
                "pitch": 48,
                "velocity": 80,
                "duration": 0.4090909,
                "tempo": 120.0
            },
            {
                "start_time": 7.3522727,
                "end_time": 20.2363636,
                "pitch": 36,
                "velocity": 80,
                "duration": 12.8840909,
                "tempo": 120.0
            },
            {
                "start_time": 20.2363636,
                "end_time": 20.6522727,
                "pitch": 41,
                "velocity": 80,
                "duration": 0.4159091,
                "tempo": 120.0
            },
            {
                "start_time": 20.6840909,
                "end_time": 21.1181818,
                "pitch": 48,
                "velocity": 80,
                "duration": 0.4340909,
                "tempo": 120.0
            },
            {
                "start_time": 19.7954545,
                "end_time": 21.575,
                "pitch": 53,
                "velocity": 80,
                "duration": 1.7795455,
                "tempo": 120.0
            },
            {
                "start_time": 21.15,
                "end_time": 21.575,
                "pitch": 53,
                "velocity": 80,
                "duration": 0.425,
                "tempo": 120.0
            },
            {
                "start_time": 21.15,
                "end_time": 22.0431818,
                "pitch": 48,
                "velocity": 80,
                "duration": 0.8931818,
                "tempo": 120.0
            },
            {
                "start_time": 21.6090909,
                "end_time": 22.0431818,
                "pitch": 48,
                "velocity": 80,
                "duration": 0.4340909,
                "tempo": 120.0
            },
            {
                "start_time": 20.2363636,
                "end_time": 22.075,
                "pitch": 36,
                "velocity": 80,
                "duration": 1.8386364,
                "tempo": 120.0
            },
            {
                "start_time": 22.075,
                "end_time": 22.5,
                "pitch": 40,
                "velocity": 80,
                "duration": 0.425,
                "tempo": 120.0
            },
            {
                "start_time": 22.5340909,
                "end_time": 22.9681818,
                "pitch": 47,
                "velocity": 80,
                "duration": 0.4340909,
                "tempo": 120.0
            },
            {
                "start_time": 17.4772727,
                "end_time": 23.0,
                "pitch": 32,
                "velocity": 80,
                "duration": 5.5227273,
                "tempo": 120.0
            },
            {
                "start_time": 23.0,
                "end_time": 23.425,
                "pitch": 52,
                "velocity": 80,
                "duration": 0.425,
                "tempo": 120.0
            },
            {
                "start_time": 17.9454545,
                "end_time": 23.4568182,
                "pitch": 54,
                "velocity": 80,
                "duration": 5.5113636,
                "tempo": 120.0
            },
            {
                "start_time": 23.4568182,
                "end_time": 23.8909091,
                "pitch": 47,
                "velocity": 80,
                "duration": 0.4340909,
                "tempo": 120.0
            },
            {
                "start_time": 18.4022727,
                "end_time": 23.925,
                "pitch": 19,
                "velocity": 80,
                "duration": 5.5227273,
                "tempo": 120.0
            },
            {
                "start_time": 23.925,
                "end_time": 24.3340909,
                "pitch": 40,
                "velocity": 80,
                "duration": 0.4090909,
                "tempo": 120.0
            },
            {
                "start_time": 23.4568182,
                "end_time": 24.3818182,
                "pitch": 54,
                "velocity": 80,
                "duration": 0.925,
                "tempo": 120.0
            },
            {
                "start_time": 24.3818182,
                "end_time": 24.8,
                "pitch": 47,
                "velocity": 80,
                "duration": 0.4181818,
                "tempo": 120.0
            },
            {
                "start_time": 23.0,
                "end_time": 24.85,
                "pitch": 32,
                "velocity": 80,
                "duration": 1.85,
                "tempo": 120.0
            },
            {
                "start_time": 24.85,
                "end_time": 25.2681818,
                "pitch": 52,
                "velocity": 80,
                "duration": 0.4181818,
                "tempo": 120.0
            },
            {
                "start_time": 24.3818182,
                "end_time": 25.3181818,
                "pitch": 54,
                "velocity": 80,
                "duration": 0.9363636,
                "tempo": 120.0
            },
            {
                "start_time": 25.3181818,
                "end_time": 25.725,
                "pitch": 47,
                "velocity": 80,
                "duration": 0.4068182,
                "tempo": 120.0
            },
            {
                "start_time": 23.925,
                "end_time": 25.775,
                "pitch": 19,
                "velocity": 80,
                "duration": 1.85,
                "tempo": 120.0
            },
            {
                "start_time": 25.775,
                "end_time": 26.1931818,
                "pitch": 40,
                "velocity": 80,
                "duration": 0.4181818,
                "tempo": 120.0
            },
            {
                "start_time": 25.3181818,
                "end_time": 26.225,
                "pitch": 54,
                "velocity": 80,
                "duration": 0.9068182,
                "tempo": 120.0
            },
            {
                "start_time": 26.225,
                "end_time": 26.6318182,
                "pitch": 47,
                "velocity": 80,
                "duration": 0.4068182,
                "tempo": 120.0
            },
            {
                "start_time": 24.85,
                "end_time": 26.6636364,
                "pitch": 32,
                "velocity": 80,
                "duration": 1.8136364,
                "tempo": 120.0
            },
            {
                "start_time": 26.6636364,
                "end_time": 27.0977273,
                "pitch": 52,
                "velocity": 80,
                "duration": 0.4340909,
                "tempo": 120.0
            },
            {
                "start_time": 26.225,
                "end_time": 27.1295455,
                "pitch": 54,
                "velocity": 80,
                "duration": 0.9045455,
                "tempo": 120.0
            },
            {
                "start_time": 27.1295455,
                "end_time": 27.5545455,
                "pitch": 47,
                "velocity": 80,
                "duration": 0.425,
                "tempo": 120.0
            },
            {
                "start_time": 25.775,
                "end_time": 27.5863636,
                "pitch": 19,
                "velocity": 80,
                "duration": 1.8113636,
                "tempo": 120.0
            },
            {
                "start_time": 27.5863636,
                "end_time": 28.0204545,
                "pitch": 40,
                "velocity": 80,
                "duration": 0.4340909,
                "tempo": 120.0
            },
            {
                "start_time": 27.1295455,
                "end_time": 28.0545455,
                "pitch": 54,
                "velocity": 80,
                "duration": 0.925,
                "tempo": 120.0
            },
            {
                "start_time": 28.0545455,
                "end_time": 28.4886364,
                "pitch": 47,
                "velocity": 80,
                "duration": 0.4340909,
                "tempo": 120.0
            },
            {
                "start_time": 26.6636364,
                "end_time": 28.5227273,
                "pitch": 32,
                "velocity": 80,
                "duration": 1.8590909,
                "tempo": 120.0
            },
            {
                "start_time": 28.5227273,
                "end_time": 28.9477273,
                "pitch": 52,
                "velocity": 80,
                "duration": 0.425,
                "tempo": 120.0
            },
            {
                "start_time": 28.0545455,
                "end_time": 28.9795455,
                "pitch": 54,
                "velocity": 80,
                "duration": 0.925,
                "tempo": 120.0
            },
            {
                "start_time": 28.9795455,
                "end_time": 29.4136364,
                "pitch": 47,
                "velocity": 80,
                "duration": 0.4340909,
                "tempo": 120.0
            },
            {
                "start_time": 29.4477273,
                "end_time": 29.6590909,
                "pitch": 45,
                "velocity": 101,
                "duration": 0.2113636,
                "tempo": 120.0
            },
            {
                "start_time": 29.675,
                "end_time": 29.8886364,
                "pitch": 48,
                "velocity": 101,
                "duration": 0.2136364,
                "tempo": 120.0
            },
            {
                "start_time": 29.9045455,
                "end_time": 30.1227273,
                "pitch": 52,
                "velocity": 101,
                "duration": 0.2181818,
                "tempo": 120.0
            },
            {
                "start_time": 30.1386364,
                "end_time": 30.3568182,
                "pitch": 57,
                "velocity": 101,
                "duration": 0.2181818,
                "tempo": 120.0
            },
            {
                "start_time": 30.3727273,
                "end_time": 30.7909091,
                "pitch": 60,
                "velocity": 101,
                "duration": 0.4181818,
                "tempo": 120.0
            },
            {
                "start_time": 30.8409091,
                "end_time": 31.2477273,
                "pitch": 59,
                "velocity": 101,
                "duration": 0.4068182,
                "tempo": 120.0
            },
            {
                "start_time": 31.2977273,
                "end_time": 32.1727273,
                "pitch": 62,
                "velocity": 101,
                "duration": 0.875,
                "tempo": 120.0
            },
            {
                "start_time": 32.2227273,
                "end_time": 33.0772727,
                "pitch": 60,
                "velocity": 101,
                "duration": 0.8545455,
                "tempo": 120.0
            },
            {
                "start_time": 33.1090909,
                "end_time": 36.7886364,
                "pitch": 52,
                "velocity": 101,
                "duration": 3.6795455,
                "tempo": 120.0
            },
            {
                "start_time": 28.9795455,
                "end_time": 36.8045455,
                "pitch": 54,
                "velocity": 80,
                "duration": 7.825,
                "tempo": 120.0
            },
            {
                "start_time": 36.8045455,
                "end_time": 37.0227273,
                "pitch": 45,
                "velocity": 101,
                "duration": 0.2181818,
                "tempo": 120.0
            },
            {
                "start_time": 27.5863636,
                "end_time": 37.0386364,
                "pitch": 19,
                "velocity": 80,
                "duration": 9.4522727,
                "tempo": 120.0
            },
            {
                "start_time": 33.1090909,
                "end_time": 37.2568182,
                "pitch": 48,
                "velocity": 101,
                "duration": 4.1477273,
                "tempo": 120.0
            },
            {
                "start_time": 37.0386364,
                "end_time": 37.2568182,
                "pitch": 48,
                "velocity": 101,
                "duration": 0.2181818,
                "tempo": 120.0
            },
            {
                "start_time": 37.2727273,
                "end_time": 37.4909091,
                "pitch": 52,
                "velocity": 101,
                "duration": 0.2181818,
                "tempo": 120.0
            },
            {
                "start_time": 37.5068182,
                "end_time": 37.725,
                "pitch": 57,
                "velocity": 101,
                "duration": 0.2181818,
                "tempo": 120.0
            },
            {
                "start_time": 37.7409091,
                "end_time": 38.1590909,
                "pitch": 60,
                "velocity": 101,
                "duration": 0.4181818,
                "tempo": 120.0
            },
            {
                "start_time": 38.2090909,
                "end_time": 38.6181818,
                "pitch": 59,
                "velocity": 101,
                "duration": 0.4090909,
                "tempo": 120.0
            },
            {
                "start_time": 31.2977273,
                "end_time": 38.6659091,
                "pitch": 44,
                "velocity": 101,
                "duration": 7.3681818,
                "tempo": 120.0
            },
            {
                "start_time": 32.2227273,
                "end_time": 39.5227273,
                "pitch": 62,
                "velocity": 101,
                "duration": 7.3,
                "tempo": 120.0
            },
            {
                "start_time": 38.6659091,
                "end_time": 39.5227273,
                "pitch": 62,
                "velocity": 101,
                "duration": 0.8568182,
                "tempo": 120.0
            },
            {
                "start_time": 39.5545455,
                "end_time": 40.4454545,
                "pitch": 60,
                "velocity": 101,
                "duration": 0.8909091,
                "tempo": 120.0
            },
            {
                "start_time": 37.2727273,
                "end_time": 40.4795455,
                "pitch": 48,
                "velocity": 101,
                "duration": 3.2068182,
                "tempo": 120.0
            },
            {
                "start_time": 40.4795455,
                "end_time": 44.1477273,
                "pitch": 52,
                "velocity": 101,
                "duration": 3.6681818,
                "tempo": 120.0
            },
            {
                "start_time": 44.1818182,
                "end_time": 44.3772727,
                "pitch": 40,
                "velocity": 101,
                "duration": 0.1954545,
                "tempo": 120.0
            },
            {
                "start_time": 36.8045455,
                "end_time": 44.4113636,
                "pitch": 54,
                "velocity": 101,
                "duration": 7.6068182,
                "tempo": 120.0
            },
            {
                "start_time": 44.4113636,
                "end_time": 44.6068182,
                "pitch": 45,
                "velocity": 101,
                "duration": 0.1954545,
                "tempo": 120.0
            },
            {
                "start_time": 37.0386364,
                "end_time": 44.6386364,
                "pitch": 19,
                "velocity": 101,
                "duration": 7.6,
                "tempo": 120.0
            },
            {
                "start_time": 40.4795455,
                "end_time": 44.8386364,
                "pitch": 48,
                "velocity": 101,
                "duration": 4.3590909,
                "tempo": 120.0
            },
            {
                "start_time": 44.6386364,
                "end_time": 44.8386364,
                "pitch": 48,
                "velocity": 101,
                "duration": 0.2,
                "tempo": 120.0
            },
            {
                "start_time": 21.6090909,
                "end_time": 45.0727273,
                "pitch": 53,
                "velocity": 80,
                "duration": 23.4636364,
                "tempo": 120.0
            },
            {
                "start_time": 44.8727273,
                "end_time": 45.0727273,
                "pitch": 53,
                "velocity": 101,
                "duration": 0.2,
                "tempo": 120.0
            },
            {
                "start_time": 45.1068182,
                "end_time": 45.525,
                "pitch": 60,
                "velocity": 101,
                "duration": 0.4181818,
                "tempo": 120.0
            },
            {
                "start_time": 45.5590909,
                "end_time": 45.9636364,
                "pitch": 59,
                "velocity": 101,
                "duration": 0.4045455,
                "tempo": 120.0
            },
            {
                "start_time": 38.6659091,
                "end_time": 45.9954545,
                "pitch": 44,
                "velocity": 101,
                "duration": 7.3295455,
                "tempo": 120.0
            },
            {
                "start_time": 39.5545455,
                "end_time": 46.8863636,
                "pitch": 62,
                "velocity": 101,
                "duration": 7.3318182,
                "tempo": 120.0
            },
            {
                "start_time": 45.9954545,
                "end_time": 46.8863636,
                "pitch": 62,
                "velocity": 101,
                "duration": 0.8909091,
                "tempo": 120.0
            },
            {
                "start_time": 46.9204545,
                "end_time": 47.8113636,
                "pitch": 60,
                "velocity": 101,
                "duration": 0.8909091,
                "tempo": 120.0
            },
            {
                "start_time": 47.8431818,
                "end_time": 48.0613636,
                "pitch": 43,
                "velocity": 101,
                "duration": 0.2181818,
                "tempo": 120.0
            },
            {
                "start_time": 29.4477273,
                "end_time": 48.2954545,
                "pitch": 47,
                "velocity": 101,
                "duration": 18.8477273,
                "tempo": 120.0
            },
            {
                "start_time": 48.0772727,
                "end_time": 48.2954545,
                "pitch": 47,
                "velocity": 101,
                "duration": 0.2181818,
                "tempo": 120.0
            },
            {
                "start_time": 48.3113636,
                "end_time": 48.5295455,
                "pitch": 50,
                "velocity": 101,
                "duration": 0.2181818,
                "tempo": 120.0
            },
            {
                "start_time": 48.5454545,
                "end_time": 48.7636364,
                "pitch": 55,
                "velocity": 101,
                "duration": 0.2181818,
                "tempo": 120.0
            },
            {
                "start_time": 46.9204545,
                "end_time": 49.2363636,
                "pitch": 62,
                "velocity": 101,
                "duration": 2.3159091,
                "tempo": 120.0
            },
            {
                "start_time": 49.2363636,
                "end_time": 49.6454545,
                "pitch": 60,
                "velocity": 101,
                "duration": 0.4090909,
                "tempo": 120.0
            },
            {
                "start_time": 38.2090909,
                "end_time": 50.5681818,
                "pitch": 64,
                "velocity": 101,
                "duration": 12.3590909,
                "tempo": 120.0
            },
            {
                "start_time": 49.6931818,
                "end_time": 50.5681818,
                "pitch": 64,
                "velocity": 101,
                "duration": 0.875,
                "tempo": 120.0
            },
            {
                "start_time": 49.2363636,
                "end_time": 51.4931818,
                "pitch": 62,
                "velocity": 101,
                "duration": 2.2568182,
                "tempo": 120.0
            },
            {
                "start_time": 50.6181818,
                "end_time": 51.4931818,
                "pitch": 62,
                "velocity": 101,
                "duration": 0.875,
                "tempo": 120.0
            },
            {
                "start_time": 51.5272727,
                "end_time": 51.9409091,
                "pitch": 33,
                "velocity": 101,
                "duration": 0.4136364,
                "tempo": 120.0
            },
            {
                "start_time": 51.9727273,
                "end_time": 52.4068182,
                "pitch": 40,
                "velocity": 101,
                "duration": 0.4340909,
                "tempo": 120.0
            },
            {
                "start_time": 44.4113636,
                "end_time": 52.4409091,
                "pitch": 54,
                "velocity": 101,
                "duration": 8.0295455,
                "tempo": 120.0
            },
            {
                "start_time": 52.4409091,
                "end_time": 52.875,
                "pitch": 45,
                "velocity": 101,
                "duration": 0.4340909,
                "tempo": 120.0
            },
            {
                "start_time": 44.6386364,
                "end_time": 52.9090909,
                "pitch": 19,
                "velocity": 101,
                "duration": 8.2704545,
                "tempo": 120.0
            },
            {
                "start_time": 47.8431818,
                "end_time": 53.3340909,
                "pitch": 52,
                "velocity": 101,
                "duration": 5.4909091,
                "tempo": 120.0
            },
            {
                "start_time": 52.9090909,
                "end_time": 53.3340909,
                "pitch": 52,
                "velocity": 101,
                "duration": 0.425,
                "tempo": 120.0
            },
            {
                "start_time": 53.3659091,
                "end_time": 53.8,
                "pitch": 57,
                "velocity": 101,
                "duration": 0.4340909,
                "tempo": 120.0
            },
            {
                "start_time": 52.9090909,
                "end_time": 53.8340909,
                "pitch": 19,
                "velocity": 101,
                "duration": 0.925,
                "tempo": 120.0
            },
            {
                "start_time": 53.8340909,
                "end_time": 54.2568182,
                "pitch": 52,
                "velocity": 101,
                "duration": 0.4227273,
                "tempo": 120.0
            },
            {
                "start_time": 52.4409091,
                "end_time": 54.2909091,
                "pitch": 54,
                "velocity": 101,
                "duration": 1.85,
                "tempo": 120.0
            },
            {
                "start_time": 54.2909091,
                "end_time": 54.7136364,
                "pitch": 45,
                "velocity": 101,
                "duration": 0.4227273,
                "tempo": 120.0
            },
            {
                "start_time": 51.9727273,
                "end_time": 54.7477273,
                "pitch": 7,
                "velocity": 101,
                "duration": 2.775,
                "tempo": 120.0
            },
            {
                "start_time": 54.7477273,
                "end_time": 55.1818182,
                "pitch": 40,
                "velocity": 101,
                "duration": 0.4340909,
                "tempo": 120.0
            },
            {
                "start_time": 55.2159091,
                "end_time": 55.65,
                "pitch": 33,
                "velocity": 101,
                "duration": 0.4340909,
                "tempo": 120.0
            },
            {
                "start_time": 54.7477273,
                "end_time": 55.6840909,
                "pitch": 7,
                "velocity": 101,
                "duration": 0.9363636,
                "tempo": 120.0
            },
            {
                "start_time": 55.6840909,
                "end_time": 56.1,
                "pitch": 40,
                "velocity": 101,
                "duration": 0.4159091,
                "tempo": 120.0
            },
            {
                "start_time": 54.2909091,
                "end_time": 56.15,
                "pitch": 54,
                "velocity": 101,
                "duration": 1.8590909,
                "tempo": 120.0
            },
            {
                "start_time": 56.15,
                "end_time": 56.5681818,
                "pitch": 45,
                "velocity": 101,
                "duration": 0.4181818,
                "tempo": 120.0
            },
            {
                "start_time": 56.6181818,
                "end_time": 57.0272727,
                "pitch": 52,
                "velocity": 101,
                "duration": 0.4090909,
                "tempo": 120.0
            },
            {
                "start_time": 53.3659091,
                "end_time": 57.075,
                "pitch": 66,
                "velocity": 101,
                "duration": 3.7090909,
                "tempo": 120.0
            },
            {
                "start_time": 57.075,
                "end_time": 58.8590909,
                "pitch": 57,
                "velocity": 101,
                "duration": 1.7840909,
                "tempo": 120.0
            }
        ],
        "Electric Guitar (clean)": [
            {
                "start_time": 0.0,
                "end_time": 3.6409091,
                "pitch": 40,
                "velocity": 101,
                "duration": 3.6409091,
                "tempo": 120.0
            },
            {
                "start_time": 3.6590909,
                "end_time": 7.3363636,
                "pitch": 40,
                "velocity": 101,
                "duration": 3.6772727,
                "tempo": 120.0
            },
            {
                "start_time": 7.3522727,
                "end_time": 10.575,
                "pitch": 41,
                "velocity": 101,
                "duration": 3.2227273,
                "tempo": 120.0
            },
            {
                "start_time": 10.575,
                "end_time": 10.5909091,
                "pitch": 32,
                "velocity": 101,
                "duration": 0.0159091,
                "tempo": 120.0
            },
            {
                "start_time": 10.575,
                "end_time": 10.7045455,
                "pitch": 38,
                "velocity": 101,
                "duration": 0.1295455,
                "tempo": 120.0
            },
            {
                "start_time": 10.5909091,
                "end_time": 10.7045455,
                "pitch": 38,
                "velocity": 101,
                "duration": 0.1136364,
                "tempo": 120.0
            },
            {
                "start_time": 10.7045455,
                "end_time": 10.7204545,
                "pitch": 32,
                "velocity": 101,
                "duration": 0.0159091,
                "tempo": 120.0
            },
            {
                "start_time": 10.7204545,
                "end_time": 10.8363636,
                "pitch": 38,
                "velocity": 101,
                "duration": 0.1159091,
                "tempo": 120.0
            },
            {
                "start_time": 10.8363636,
                "end_time": 10.8522727,
                "pitch": 32,
                "velocity": 101,
                "duration": 0.0159091,
                "tempo": 120.0
            },
            {
                "start_time": 10.8522727,
                "end_time": 10.9659091,
                "pitch": 38,
                "velocity": 101,
                "duration": 0.1136364,
                "tempo": 120.0
            },
            {
                "start_time": 10.9659091,
                "end_time": 10.9818182,
                "pitch": 32,
                "velocity": 101,
                "duration": 0.0159091,
                "tempo": 120.0
            },
            {
                "start_time": 10.9818182,
                "end_time": 10.9977273,
                "pitch": 38,
                "velocity": 101,
                "duration": 0.0159091,
                "tempo": 120.0
            },
            {
                "start_time": 11.0318182,
                "end_time": 14.6772727,
                "pitch": 40,
                "velocity": 101,
                "duration": 3.6454545,
                "tempo": 120.0
            },
            {
                "start_time": 14.6931818,
                "end_time": 18.3863636,
                "pitch": 40,
                "velocity": 101,
                "duration": 3.6931818,
                "tempo": 120.0
            },
            {
                "start_time": 18.4045455,
                "end_time": 22.0590909,
                "pitch": 40,
                "velocity": 101,
                "duration": 3.6545455,
                "tempo": 120.0
            },
            {
                "start_time": 11.0318182,
                "end_time": 25.3181818,
                "pitch": 38,
                "velocity": 101,
                "duration": 14.2863636,
                "tempo": 120.0
            },
            {
                "start_time": 22.0772727,
                "end_time": 25.3181818,
                "pitch": 41,
                "velocity": 101,
                "duration": 3.2409091,
                "tempo": 120.0
            },
            {
                "start_time": 25.3181818,
                "end_time": 25.3340909,
                "pitch": 32,
                "velocity": 101,
                "duration": 0.0159091,
                "tempo": 120.0
            },
            {
                "start_time": 25.3181818,
                "end_time": 25.4477273,
                "pitch": 38,
                "velocity": 101,
                "duration": 0.1295455,
                "tempo": 120.0
            },
            {
                "start_time": 25.3340909,
                "end_time": 25.4477273,
                "pitch": 38,
                "velocity": 101,
                "duration": 0.1136364,
                "tempo": 120.0
            },
            {
                "start_time": 25.4477273,
                "end_time": 25.4659091,
                "pitch": 32,
                "velocity": 101,
                "duration": 0.0181818,
                "tempo": 120.0
            },
            {
                "start_time": 25.4659091,
                "end_time": 25.5795455,
                "pitch": 38,
                "velocity": 101,
                "duration": 0.1136364,
                "tempo": 120.0
            },
            {
                "start_time": 25.5795455,
                "end_time": 25.5954545,
                "pitch": 32,
                "velocity": 101,
                "duration": 0.0159091,
                "tempo": 120.0
            },
            {
                "start_time": 25.5954545,
                "end_time": 25.7090909,
                "pitch": 38,
                "velocity": 101,
                "duration": 0.1136364,
                "tempo": 120.0
            },
            {
                "start_time": 25.7090909,
                "end_time": 25.725,
                "pitch": 32,
                "velocity": 101,
                "duration": 0.0159091,
                "tempo": 120.0
            },
            {
                "start_time": 25.775,
                "end_time": 29.4295455,
                "pitch": 40,
                "velocity": 101,
                "duration": 3.6545455,
                "tempo": 120.0
            },
            {
                "start_time": 29.4477273,
                "end_time": 33.0931818,
                "pitch": 40,
                "velocity": 101,
                "duration": 3.6454545,
                "tempo": 120.0
            },
            {
                "start_time": 33.1090909,
                "end_time": 36.7886364,
                "pitch": 41,
                "velocity": 101,
                "duration": 3.6795455,
                "tempo": 120.0
            },
            {
                "start_time": 36.8045455,
                "end_time": 40.4613636,
                "pitch": 40,
                "velocity": 101,
                "duration": 3.6568182,
                "tempo": 120.0
            },
            {
                "start_time": 40.4795455,
                "end_time": 44.1477273,
                "pitch": 41,
                "velocity": 101,
                "duration": 3.6681818,
                "tempo": 120.0
            },
            {
                "start_time": 44.1818182,
                "end_time": 47.8272727,
                "pitch": 40,
                "velocity": 101,
                "duration": 3.6454545,
                "tempo": 120.0
            },
            {
                "start_time": 0.0,
                "end_time": 48.6295455,
                "pitch": 0,
                "velocity": 101,
                "duration": 48.6295455,
                "tempo": 120.0
            },
            {
                "start_time": 47.8454545,
                "end_time": 48.6295455,
                "pitch": 43,
                "velocity": 101,
                "duration": 0.7840909,
                "tempo": 120.0
            },
            {
                "start_time": 48.6295455,
                "end_time": 48.6477273,
                "pitch": 43,
                "velocity": 101,
                "duration": 0.0181818,
                "tempo": 120.0
            },
            {
                "start_time": 48.6295455,
                "end_time": 48.7636364,
                "pitch": 0,
                "velocity": 101,
                "duration": 0.1340909,
                "tempo": 120.0
            },
            {
                "start_time": 48.6477273,
                "end_time": 48.7636364,
                "pitch": 43,
                "velocity": 101,
                "duration": 0.1159091,
                "tempo": 120.0
            },
            {
                "start_time": 48.7636364,
                "end_time": 48.7818182,
                "pitch": 43,
                "velocity": 101,
                "duration": 0.0181818,
                "tempo": 120.0
            },
            {
                "start_time": 48.7818182,
                "end_time": 48.8954545,
                "pitch": 43,
                "velocity": 101,
                "duration": 0.1136364,
                "tempo": 120.0
            },
            {
                "start_time": 48.8954545,
                "end_time": 48.9113636,
                "pitch": 43,
                "velocity": 101,
                "duration": 0.0159091,
                "tempo": 120.0
            },
            {
                "start_time": 48.9113636,
                "end_time": 49.025,
                "pitch": 43,
                "velocity": 101,
                "duration": 0.1136364,
                "tempo": 120.0
            },
            {
                "start_time": 49.025,
                "end_time": 49.0409091,
                "pitch": 43,
                "velocity": 101,
                "duration": 0.0159091,
                "tempo": 120.0
            },
            {
                "start_time": 48.7818182,
                "end_time": 49.0409091,
                "pitch": 55,
                "velocity": 101,
                "duration": 0.2590909,
                "tempo": 120.0
            },
            {
                "start_time": 48.7636364,
                "end_time": 49.1568182,
                "pitch": 0,
                "velocity": 101,
                "duration": 0.3931818,
                "tempo": 120.0
            },
            {
                "start_time": 49.0409091,
                "end_time": 49.1568182,
                "pitch": 43,
                "velocity": 101,
                "duration": 0.1159091,
                "tempo": 120.0
            },
            {
                "start_time": 49.1568182,
                "end_time": 49.1727273,
                "pitch": 43,
                "velocity": 101,
                "duration": 0.0159091,
                "tempo": 120.0
            },
            {
                "start_time": 49.0409091,
                "end_time": 49.1727273,
                "pitch": 55,
                "velocity": 101,
                "duration": 0.1318182,
                "tempo": 120.0
            },
            {
                "start_time": 49.1727273,
                "end_time": 49.2863636,
                "pitch": 43,
                "velocity": 101,
                "duration": 0.1136364,
                "tempo": 120.0
            },
            {
                "start_time": 49.2863636,
                "end_time": 49.3022727,
                "pitch": 43,
                "velocity": 101,
                "duration": 0.0159091,
                "tempo": 120.0
            },
            {
                "start_time": 49.1568182,
                "end_time": 49.4159091,
                "pitch": 0,
                "velocity": 101,
                "duration": 0.2590909,
                "tempo": 120.0
            },
            {
                "start_time": 49.3022727,
                "end_time": 49.4159091,
                "pitch": 43,
                "velocity": 101,
                "duration": 0.1136364,
                "tempo": 120.0
            },
            {
                "start_time": 49.4159091,
                "end_time": 49.4318182,
                "pitch": 43,
                "velocity": 101,
                "duration": 0.0159091,
                "tempo": 120.0
            },
            {
                "start_time": 49.4318182,
                "end_time": 49.5477273,
                "pitch": 43,
                "velocity": 101,
                "duration": 0.1159091,
                "tempo": 120.0
            },
            {
                "start_time": 49.5477273,
                "end_time": 49.5636364,
                "pitch": 43,
                "velocity": 101,
                "duration": 0.0159091,
                "tempo": 120.0
            },
            {
                "start_time": 49.1727273,
                "end_time": 49.5636364,
                "pitch": 55,
                "velocity": 101,
                "duration": 0.3909091,
                "tempo": 120.0
            },
            {
                "start_time": 49.5636364,
                "end_time": 49.6772727,
                "pitch": 43,
                "velocity": 101,
                "duration": 0.1136364,
                "tempo": 120.0
            },
            {
                "start_time": 49.6772727,
                "end_time": 49.6954545,
                "pitch": 43,
                "velocity": 101,
                "duration": 0.0181818,
                "tempo": 120.0
            },
            {
                "start_time": 49.5636364,
                "end_time": 49.6954545,
                "pitch": 55,
                "velocity": 101,
                "duration": 0.1318182,
                "tempo": 120.0
            },
            {
                "start_time": 49.4159091,
                "end_time": 49.8113636,
                "pitch": 0,
                "velocity": 101,
                "duration": 0.3954545,
                "tempo": 120.0
            },
            {
                "start_time": 49.6954545,
                "end_time": 49.8113636,
                "pitch": 43,
                "velocity": 101,
                "duration": 0.1159091,
                "tempo": 120.0
            },
            {
                "start_time": 49.8113636,
                "end_time": 49.8272727,
                "pitch": 43,
                "velocity": 101,
                "duration": 0.0159091,
                "tempo": 120.0
            },
            {
                "start_time": 49.8113636,
                "end_time": 49.9454545,
                "pitch": 0,
                "velocity": 101,
                "duration": 0.1340909,
                "tempo": 120.0
            },
            {
                "start_time": 49.8272727,
                "end_time": 49.9454545,
                "pitch": 43,
                "velocity": 101,
                "duration": 0.1181818,
                "tempo": 120.0
            },
            {
                "start_time": 49.9454545,
                "end_time": 49.9613636,
                "pitch": 43,
                "velocity": 101,
                "duration": 0.0159091,
                "tempo": 120.0
            },
            {
                "start_time": 49.6954545,
                "end_time": 49.9613636,
                "pitch": 55,
                "velocity": 101,
                "duration": 0.2659091,
                "tempo": 120.0
            },
            {
                "start_time": 49.9454545,
                "end_time": 50.0772727,
                "pitch": 0,
                "velocity": 101,
                "duration": 0.1318182,
                "tempo": 120.0
            },
            {
                "start_time": 49.9613636,
                "end_time": 50.0772727,
                "pitch": 43,
                "velocity": 101,
                "duration": 0.1159091,
                "tempo": 120.0
            },
            {
                "start_time": 50.0772727,
                "end_time": 50.0954545,
                "pitch": 43,
                "velocity": 101,
                "duration": 0.0181818,
                "tempo": 120.0
            },
            {
                "start_time": 50.0954545,
                "end_time": 50.2113636,
                "pitch": 43,
                "velocity": 101,
                "duration": 0.1159091,
                "tempo": 120.0
            },
            {
                "start_time": 50.2113636,
                "end_time": 50.2272727,
                "pitch": 43,
                "velocity": 101,
                "duration": 0.0159091,
                "tempo": 120.0
            },
            {
                "start_time": 49.9613636,
                "end_time": 50.2272727,
                "pitch": 55,
                "velocity": 101,
                "duration": 0.2659091,
                "tempo": 120.0
            },
            {
                "start_time": 50.2272727,
                "end_time": 50.3409091,
                "pitch": 43,
                "velocity": 101,
                "duration": 0.1136364,
                "tempo": 120.0
            },
            {
                "start_time": 50.3409091,
                "end_time": 50.3568182,
                "pitch": 43,
                "velocity": 101,
                "duration": 0.0159091,
                "tempo": 120.0
            },
            {
                "start_time": 50.0772727,
                "end_time": 50.4727273,
                "pitch": 0,
                "velocity": 101,
                "duration": 0.3954545,
                "tempo": 120.0
            },
            {
                "start_time": 50.3568182,
                "end_time": 50.4727273,
                "pitch": 43,
                "velocity": 101,
                "duration": 0.1159091,
                "tempo": 120.0
            },
            {
                "start_time": 50.4727273,
                "end_time": 50.4863636,
                "pitch": 43,
                "velocity": 101,
                "duration": 0.0136364,
                "tempo": 120.0
            },
            {
                "start_time": 50.2272727,
                "end_time": 50.4886364,
                "pitch": 55,
                "velocity": 101,
                "duration": 0.2613636,
                "tempo": 120.0
            },
            {
                "start_time": 50.4863636,
                "end_time": 50.4886364,
                "pitch": 55,
                "velocity": 101,
                "duration": 0.0022727,
                "tempo": 120.0
            },
            {
                "start_time": 50.4727273,
                "end_time": 50.6022727,
                "pitch": 0,
                "velocity": 101,
                "duration": 0.1295455,
                "tempo": 120.0
            },
            {
                "start_time": 50.4886364,
                "end_time": 50.6022727,
                "pitch": 43,
                "velocity": 101,
                "duration": 0.1136364,
                "tempo": 120.0
            },
            {
                "start_time": 50.6022727,
                "end_time": 50.6181818,
                "pitch": 43,
                "velocity": 101,
                "duration": 0.0159091,
                "tempo": 120.0
            },
            {
                "start_time": 50.6022727,
                "end_time": 50.7340909,
                "pitch": 0,
                "velocity": 101,
                "duration": 0.1318182,
                "tempo": 120.0
            },
            {
                "start_time": 50.6181818,
                "end_time": 50.7340909,
                "pitch": 43,
                "velocity": 101,
                "duration": 0.1159091,
                "tempo": 120.0
            },
            {
                "start_time": 50.7340909,
                "end_time": 50.7522727,
                "pitch": 43,
                "velocity": 101,
                "duration": 0.0181818,
                "tempo": 120.0
            },
            {
                "start_time": 50.6181818,
                "end_time": 50.7522727,
                "pitch": 55,
                "velocity": 101,
                "duration": 0.1340909,
                "tempo": 120.0
            },
            {
                "start_time": 50.7522727,
                "end_time": 50.8681818,
                "pitch": 43,
                "velocity": 101,
                "duration": 0.1159091,
                "tempo": 120.0
            },
            {
                "start_time": 50.8681818,
                "end_time": 50.8863636,
                "pitch": 43,
                "velocity": 101,
                "duration": 0.0181818,
                "tempo": 120.0
            },
            {
                "start_time": 50.7522727,
                "end_time": 50.8863636,
                "pitch": 55,
                "velocity": 101,
                "duration": 0.1340909,
                "tempo": 120.0
            },
            {
                "start_time": 50.7340909,
                "end_time": 51.0022727,
                "pitch": 0,
                "velocity": 101,
                "duration": 0.2681818,
                "tempo": 120.0
            },
            {
                "start_time": 50.8863636,
                "end_time": 51.0022727,
                "pitch": 43,
                "velocity": 101,
                "duration": 0.1159091,
                "tempo": 120.0
            },
            {
                "start_time": 51.0022727,
                "end_time": 51.0181818,
                "pitch": 43,
                "velocity": 101,
                "duration": 0.0159091,
                "tempo": 120.0
            },
            {
                "start_time": 51.0022727,
                "end_time": 51.1340909,
                "pitch": 0,
                "velocity": 101,
                "duration": 0.1318182,
                "tempo": 120.0
            },
            {
                "start_time": 51.0181818,
                "end_time": 51.1340909,
                "pitch": 43,
                "velocity": 101,
                "duration": 0.1159091,
                "tempo": 120.0
            },
            {
                "start_time": 51.1340909,
                "end_time": 51.1522727,
                "pitch": 43,
                "velocity": 101,
                "duration": 0.0181818,
                "tempo": 120.0
            },
            {
                "start_time": 51.1522727,
                "end_time": 51.2659091,
                "pitch": 43,
                "velocity": 101,
                "duration": 0.1136364,
                "tempo": 120.0
            },
            {
                "start_time": 51.2659091,
                "end_time": 51.2818182,
                "pitch": 43,
                "velocity": 101,
                "duration": 0.0159091,
                "tempo": 120.0
            },
            {
                "start_time": 51.1340909,
                "end_time": 51.3954545,
                "pitch": 0,
                "velocity": 101,
                "duration": 0.2613636,
                "tempo": 120.0
            },
            {
                "start_time": 51.2818182,
                "end_time": 51.3954545,
                "pitch": 43,
                "velocity": 101,
                "duration": 0.1136364,
                "tempo": 120.0
            },
            {
                "start_time": 51.3954545,
                "end_time": 51.4113636,
                "pitch": 43,
                "velocity": 101,
                "duration": 0.0159091,
                "tempo": 120.0
            },
            {
                "start_time": 50.8863636,
                "end_time": 51.4113636,
                "pitch": 55,
                "velocity": 101,
                "duration": 0.525,
                "tempo": 120.0
            },
            {
                "start_time": 51.4113636,
                "end_time": 51.5090909,
                "pitch": 43,
                "velocity": 101,
                "duration": 0.0977273,
                "tempo": 120.0
            },
            {
                "start_time": 51.5272727,
                "end_time": 52.2090909,
                "pitch": 43,
                "velocity": 101,
                "duration": 0.6818182,
                "tempo": 120.0
            },
            {
                "start_time": 52.2090909,
                "end_time": 54.7295455,
                "pitch": 45,
                "velocity": 101,
                "duration": 2.5204545,
                "tempo": 120.0
            },
            {
                "start_time": 54.7477273,
                "end_time": 55.1818182,
                "pitch": 45,
                "velocity": 101,
                "duration": 0.4340909,
                "tempo": 120.0
            },
            {
                "start_time": 55.2159091,
                "end_time": 55.9181818,
                "pitch": 43,
                "velocity": 101,
                "duration": 0.7022727,
                "tempo": 120.0
            },
            {
                "start_time": 55.9181818,
                "end_time": 58.8590909,
                "pitch": 45,
                "velocity": 101,
                "duration": 2.9409091,
                "tempo": 120.0
            }
        ],
        "Church Organ": [
            {
                "start_time": 2.2681818,
                "end_time": 2.4840909,
                "pitch": 59,
                "velocity": 127,
                "duration": 0.2159091,
                "tempo": 120.0
            },
            {
                "start_time": 2.5,
                "end_time": 2.7181818,
                "pitch": 60,
                "velocity": 127,
                "duration": 0.2181818,
                "tempo": 120.0
            },
            {
                "start_time": 2.7340909,
                "end_time": 2.9454545,
                "pitch": 62,
                "velocity": 127,
                "duration": 0.2113636,
                "tempo": 120.0
            },
            {
                "start_time": 2.9636364,
                "end_time": 3.175,
                "pitch": 64,
                "velocity": 127,
                "duration": 0.2113636,
                "tempo": 120.0
            },
            {
                "start_time": 2.9636364,
                "end_time": 3.4090909,
                "pitch": 62,
                "velocity": 127,
                "duration": 0.4454545,
                "tempo": 120.0
            },
            {
                "start_time": 3.1909091,
                "end_time": 3.4090909,
                "pitch": 62,
                "velocity": 127,
                "duration": 0.2181818,
                "tempo": 120.0
            },
            {
                "start_time": 2.7340909,
                "end_time": 3.6409091,
                "pitch": 60,
                "velocity": 127,
                "duration": 0.9068182,
                "tempo": 120.0
            },
            {
                "start_time": 3.425,
                "end_time": 3.6409091,
                "pitch": 60,
                "velocity": 127,
                "duration": 0.2159091,
                "tempo": 120.0
            },
            {
                "start_time": 3.1909091,
                "end_time": 3.6590909,
                "pitch": 64,
                "velocity": 127,
                "duration": 0.4681818,
                "tempo": 120.0
            },
            {
                "start_time": 3.6590909,
                "end_time": 3.8704545,
                "pitch": 59,
                "velocity": 127,
                "duration": 0.2113636,
                "tempo": 120.0
            },
            {
                "start_time": 3.8886364,
                "end_time": 4.1,
                "pitch": 60,
                "velocity": 127,
                "duration": 0.2113636,
                "tempo": 120.0
            },
            {
                "start_time": 4.1159091,
                "end_time": 4.3340909,
                "pitch": 60,
                "velocity": 127,
                "duration": 0.2181818,
                "tempo": 120.0
            },
            {
                "start_time": 4.35,
                "end_time": 4.5681818,
                "pitch": 60,
                "velocity": 127,
                "duration": 0.2181818,
                "tempo": 120.0
            },
            {
                "start_time": 4.5840909,
                "end_time": 4.7954545,
                "pitch": 60,
                "velocity": 127,
                "duration": 0.2113636,
                "tempo": 120.0
            },
            {
                "start_time": 4.8136364,
                "end_time": 5.025,
                "pitch": 60,
                "velocity": 101,
                "duration": 0.2113636,
                "tempo": 120.0
            },
            {
                "start_time": 5.0409091,
                "end_time": 5.2568182,
                "pitch": 60,
                "velocity": 101,
                "duration": 0.2159091,
                "tempo": 120.0
            },
            {
                "start_time": 5.275,
                "end_time": 5.4909091,
                "pitch": 60,
                "velocity": 101,
                "duration": 0.2159091,
                "tempo": 120.0
            },
            {
                "start_time": 5.5090909,
                "end_time": 5.725,
                "pitch": 60,
                "velocity": 101,
                "duration": 0.2159091,
                "tempo": 120.0
            },
            {
                "start_time": 5.9772727,
                "end_time": 6.1727273,
                "pitch": 60,
                "velocity": 127,
                "duration": 0.1954545,
                "tempo": 120.0
            },
            {
                "start_time": 3.425,
                "end_time": 6.4,
                "pitch": 62,
                "velocity": 127,
                "duration": 2.975,
                "tempo": 120.0
            },
            {
                "start_time": 6.2045455,
                "end_time": 6.4,
                "pitch": 62,
                "velocity": 127,
                "duration": 0.1954545,
                "tempo": 120.0
            },
            {
                "start_time": 3.6590909,
                "end_time": 6.6340909,
                "pitch": 64,
                "velocity": 127,
                "duration": 2.975,
                "tempo": 120.0
            },
            {
                "start_time": 6.4340909,
                "end_time": 6.6340909,
                "pitch": 64,
                "velocity": 127,
                "duration": 0.2,
                "tempo": 120.0
            },
            {
                "start_time": 6.6681818,
                "end_time": 6.8681818,
                "pitch": 64,
                "velocity": 127,
                "duration": 0.2,
                "tempo": 120.0
            },
            {
                "start_time": 6.9022727,
                "end_time": 7.1022727,
                "pitch": 66,
                "velocity": 127,
                "duration": 0.2,
                "tempo": 120.0
            },
            {
                "start_time": 7.1340909,
                "end_time": 7.1363636,
                "pitch": 64,
                "velocity": 127,
                "duration": 0.0022727,
                "tempo": 120.0
            },
            {
                "start_time": 6.4340909,
                "end_time": 7.3363636,
                "pitch": 62,
                "velocity": 127,
                "duration": 0.9022727,
                "tempo": 120.0
            },
            {
                "start_time": 7.1363636,
                "end_time": 7.3363636,
                "pitch": 62,
                "velocity": 127,
                "duration": 0.2,
                "tempo": 120.0
            },
            {
                "start_time": 7.3522727,
                "end_time": 7.5545455,
                "pitch": 60,
                "velocity": 127,
                "duration": 0.2022727,
                "tempo": 120.0
            },
            {
                "start_time": 7.5704545,
                "end_time": 7.775,
                "pitch": 59,
                "velocity": 127,
                "duration": 0.2045455,
                "tempo": 120.0
            },
            {
                "start_time": 7.7909091,
                "end_time": 8.0068182,
                "pitch": 59,
                "velocity": 127,
                "duration": 0.2159091,
                "tempo": 120.0
            },
            {
                "start_time": 8.0227273,
                "end_time": 8.2409091,
                "pitch": 59,
                "velocity": 127,
                "duration": 0.2181818,
                "tempo": 120.0
            },
            {
                "start_time": 8.2568182,
                "end_time": 8.4704545,
                "pitch": 59,
                "velocity": 127,
                "duration": 0.2136364,
                "tempo": 120.0
            },
            {
                "start_time": 8.4863636,
                "end_time": 8.6977273,
                "pitch": 59,
                "velocity": 101,
                "duration": 0.2113636,
                "tempo": 120.0
            },
            {
                "start_time": 8.7136364,
                "end_time": 8.9318182,
                "pitch": 59,
                "velocity": 101,
                "duration": 0.2181818,
                "tempo": 120.0
            },
            {
                "start_time": 8.9477273,
                "end_time": 9.1659091,
                "pitch": 59,
                "velocity": 101,
                "duration": 0.2181818,
                "tempo": 120.0
            },
            {
                "start_time": 9.1818182,
                "end_time": 9.3931818,
                "pitch": 59,
                "velocity": 101,
                "duration": 0.2113636,
                "tempo": 120.0
            },
            {
                "start_time": 3.8886364,
                "end_time": 9.6386364,
                "pitch": 44,
                "velocity": 127,
                "duration": 5.75,
                "tempo": 120.0
            },
            {
                "start_time": 9.6386364,
                "end_time": 9.8545455,
                "pitch": 60,
                "velocity": 127,
                "duration": 0.2159091,
                "tempo": 120.0
            },
            {
                "start_time": 9.8727273,
                "end_time": 10.0886364,
                "pitch": 62,
                "velocity": 127,
                "duration": 0.2159091,
                "tempo": 120.0
            },
            {
                "start_time": 7.5704545,
                "end_time": 10.3227273,
                "pitch": 64,
                "velocity": 127,
                "duration": 2.7522727,
                "tempo": 120.0
            },
            {
                "start_time": 10.1068182,
                "end_time": 10.3227273,
                "pitch": 64,
                "velocity": 127,
                "duration": 0.2159091,
                "tempo": 120.0
            },
            {
                "start_time": 10.3409091,
                "end_time": 10.5568182,
                "pitch": 64,
                "velocity": 127,
                "duration": 0.2159091,
                "tempo": 120.0
            },
            {
                "start_time": 10.575,
                "end_time": 10.7863636,
                "pitch": 66,
                "velocity": 127,
                "duration": 0.2113636,
                "tempo": 120.0
            },
            {
                "start_time": 10.1068182,
                "end_time": 11.0136364,
                "pitch": 62,
                "velocity": 127,
                "duration": 0.9068182,
                "tempo": 120.0
            },
            {
                "start_time": 10.8022727,
                "end_time": 11.0136364,
                "pitch": 62,
                "velocity": 127,
                "duration": 0.2113636,
                "tempo": 120.0
            },
            {
                "start_time": 9.8727273,
                "end_time": 11.2431818,
                "pitch": 60,
                "velocity": 127,
                "duration": 1.3704545,
                "tempo": 120.0
            },
            {
                "start_time": 11.0318182,
                "end_time": 11.2431818,
                "pitch": 60,
                "velocity": 127,
                "duration": 0.2113636,
                "tempo": 120.0
            },
            {
                "start_time": 10.8022727,
                "end_time": 11.2590909,
                "pitch": 64,
                "velocity": 127,
                "duration": 0.4568182,
                "tempo": 120.0
            },
            {
                "start_time": 11.2590909,
                "end_time": 11.4727273,
                "pitch": 59,
                "velocity": 127,
                "duration": 0.2136364,
                "tempo": 120.0
            },
            {
                "start_time": 11.4886364,
                "end_time": 11.7045455,
                "pitch": 59,
                "velocity": 127,
                "duration": 0.2159091,
                "tempo": 120.0
            },
            {
                "start_time": 11.7227273,
                "end_time": 11.9386364,
                "pitch": 59,
                "velocity": 127,
                "duration": 0.2159091,
                "tempo": 120.0
            },
            {
                "start_time": 11.9568182,
                "end_time": 12.1681818,
                "pitch": 59,
                "velocity": 127,
                "duration": 0.2113636,
                "tempo": 120.0
            },
            {
                "start_time": 12.1840909,
                "end_time": 12.3977273,
                "pitch": 59,
                "velocity": 101,
                "duration": 0.2136364,
                "tempo": 120.0
            },
            {
                "start_time": 12.4136364,
                "end_time": 12.6136364,
                "pitch": 59,
                "velocity": 101,
                "duration": 0.2,
                "tempo": 120.0
            },
            {
                "start_time": 12.6477273,
                "end_time": 12.8477273,
                "pitch": 59,
                "velocity": 101,
                "duration": 0.2,
                "tempo": 120.0
            },
            {
                "start_time": 12.8818182,
                "end_time": 13.0818182,
                "pitch": 59,
                "velocity": 101,
                "duration": 0.2,
                "tempo": 120.0
            },
            {
                "start_time": 17.0113636,
                "end_time": 17.2272727,
                "pitch": 59,
                "velocity": 127,
                "duration": 0.2159091,
                "tempo": 120.0
            },
            {
                "start_time": 9.6386364,
                "end_time": 17.2454545,
                "pitch": 44,
                "velocity": 127,
                "duration": 7.6068182,
                "tempo": 120.0
            },
            {
                "start_time": 17.2454545,
                "end_time": 17.4613636,
                "pitch": 60,
                "velocity": 127,
                "duration": 0.2159091,
                "tempo": 120.0
            },
            {
                "start_time": 11.0318182,
                "end_time": 17.6954545,
                "pitch": 62,
                "velocity": 127,
                "duration": 6.6636364,
                "tempo": 120.0
            },
            {
                "start_time": 17.4795455,
                "end_time": 17.6954545,
                "pitch": 62,
                "velocity": 127,
                "duration": 0.2159091,
                "tempo": 120.0
            },
            {
                "start_time": 11.2590909,
                "end_time": 17.9295455,
                "pitch": 64,
                "velocity": 127,
                "duration": 6.6704545,
                "tempo": 120.0
            },
            {
                "start_time": 17.7113636,
                "end_time": 17.9295455,
                "pitch": 64,
                "velocity": 127,
                "duration": 0.2181818,
                "tempo": 120.0
            },
            {
                "start_time": 17.7113636,
                "end_time": 18.1590909,
                "pitch": 62,
                "velocity": 127,
                "duration": 0.4477273,
                "tempo": 120.0
            },
            {
                "start_time": 17.9477273,
                "end_time": 18.1590909,
                "pitch": 62,
                "velocity": 127,
                "duration": 0.2113636,
                "tempo": 120.0
            },
            {
                "start_time": 17.4795455,
                "end_time": 18.3863636,
                "pitch": 60,
                "velocity": 127,
                "duration": 0.9068182,
                "tempo": 120.0
            },
            {
                "start_time": 18.175,
                "end_time": 18.3863636,
                "pitch": 60,
                "velocity": 127,
                "duration": 0.2113636,
                "tempo": 120.0
            },
            {
                "start_time": 17.9477273,
                "end_time": 18.4045455,
                "pitch": 64,
                "velocity": 127,
                "duration": 0.4568182,
                "tempo": 120.0
            },
            {
                "start_time": 18.4045455,
                "end_time": 18.6204545,
                "pitch": 59,
                "velocity": 127,
                "duration": 0.2159091,
                "tempo": 120.0
            },
            {
                "start_time": 17.2454545,
                "end_time": 18.6363636,
                "pitch": 44,
                "velocity": 127,
                "duration": 1.3909091,
                "tempo": 120.0
            },
            {
                "start_time": 18.6363636,
                "end_time": 18.8386364,
                "pitch": 60,
                "velocity": 127,
                "duration": 0.2022727,
                "tempo": 120.0
            },
            {
                "start_time": 18.8727273,
                "end_time": 19.0681818,
                "pitch": 60,
                "velocity": 127,
                "duration": 0.1954545,
                "tempo": 120.0
            },
            {
                "start_time": 19.1,
                "end_time": 19.2954545,
                "pitch": 60,
                "velocity": 127,
                "duration": 0.1954545,
                "tempo": 120.0
            },
            {
                "start_time": 19.3295455,
                "end_time": 19.5295455,
                "pitch": 60,
                "velocity": 127,
                "duration": 0.2,
                "tempo": 120.0
            },
            {
                "start_time": 19.5613636,
                "end_time": 19.7636364,
                "pitch": 60,
                "velocity": 101,
                "duration": 0.2022727,
                "tempo": 120.0
            },
            {
                "start_time": 19.7954545,
                "end_time": 19.9909091,
                "pitch": 60,
                "velocity": 101,
                "duration": 0.1954545,
                "tempo": 120.0
            },
            {
                "start_time": 20.0090909,
                "end_time": 20.2204545,
                "pitch": 60,
                "velocity": 101,
                "duration": 0.2113636,
                "tempo": 120.0
            },
            {
                "start_time": 20.2363636,
                "end_time": 20.4431818,
                "pitch": 60,
                "velocity": 101,
                "duration": 0.2068182,
                "tempo": 120.0
            },
            {
                "start_time": 20.6840909,
                "end_time": 20.9,
                "pitch": 60,
                "velocity": 127,
                "duration": 0.2159091,
                "tempo": 120.0
            },
            {
                "start_time": 18.175,
                "end_time": 21.1340909,
                "pitch": 62,
                "velocity": 127,
                "duration": 2.9590909,
                "tempo": 120.0
            },
            {
                "start_time": 20.9181818,
                "end_time": 21.1340909,
                "pitch": 62,
                "velocity": 127,
                "duration": 0.2159091,
                "tempo": 120.0
            },
            {
                "start_time": 18.4045455,
                "end_time": 21.3636364,
                "pitch": 64,
                "velocity": 127,
                "duration": 2.9590909,
                "tempo": 120.0
            },
            {
                "start_time": 21.1522727,
                "end_time": 21.3636364,
                "pitch": 64,
                "velocity": 127,
                "duration": 0.2113636,
                "tempo": 120.0
            },
            {
                "start_time": 21.3795455,
                "end_time": 21.5909091,
                "pitch": 64,
                "velocity": 127,
                "duration": 0.2113636,
                "tempo": 120.0
            },
            {
                "start_time": 21.6090909,
                "end_time": 21.825,
                "pitch": 66,
                "velocity": 127,
                "duration": 0.2159091,
                "tempo": 120.0
            },
            {
                "start_time": 21.1522727,
                "end_time": 22.0590909,
                "pitch": 62,
                "velocity": 127,
                "duration": 0.9068182,
                "tempo": 120.0
            },
            {
                "start_time": 21.8409091,
                "end_time": 22.0590909,
                "pitch": 62,
                "velocity": 127,
                "duration": 0.2181818,
                "tempo": 120.0
            },
            {
                "start_time": 20.9181818,
                "end_time": 22.2886364,
                "pitch": 60,
                "velocity": 127,
                "duration": 1.3704545,
                "tempo": 120.0
            },
            {
                "start_time": 22.0772727,
                "end_time": 22.2886364,
                "pitch": 60,
                "velocity": 127,
                "duration": 0.2113636,
                "tempo": 120.0
            },
            {
                "start_time": 21.8409091,
                "end_time": 22.3045455,
                "pitch": 64,
                "velocity": 127,
                "duration": 0.4636364,
                "tempo": 120.0
            },
            {
                "start_time": 22.3045455,
                "end_time": 22.5159091,
                "pitch": 59,
                "velocity": 127,
                "duration": 0.2113636,
                "tempo": 120.0
            },
            {
                "start_time": 22.5340909,
                "end_time": 22.75,
                "pitch": 59,
                "velocity": 127,
                "duration": 0.2159091,
                "tempo": 120.0
            },
            {
                "start_time": 22.7681818,
                "end_time": 22.9840909,
                "pitch": 59,
                "velocity": 127,
                "duration": 0.2159091,
                "tempo": 120.0
            },
            {
                "start_time": 23.0022727,
                "end_time": 23.2136364,
                "pitch": 59,
                "velocity": 127,
                "duration": 0.2113636,
                "tempo": 120.0
            },
            {
                "start_time": 23.2295455,
                "end_time": 23.4409091,
                "pitch": 59,
                "velocity": 101,
                "duration": 0.2113636,
                "tempo": 120.0
            },
            {
                "start_time": 23.4590909,
                "end_time": 23.675,
                "pitch": 59,
                "velocity": 101,
                "duration": 0.2159091,
                "tempo": 120.0
            },
            {
                "start_time": 23.6909091,
                "end_time": 23.9090909,
                "pitch": 59,
                "velocity": 101,
                "duration": 0.2181818,
                "tempo": 120.0
            },
            {
                "start_time": 23.9272727,
                "end_time": 24.1386364,
                "pitch": 59,
                "velocity": 101,
                "duration": 0.2113636,
                "tempo": 120.0
            },
            {
                "start_time": 18.6363636,
                "end_time": 24.3818182,
                "pitch": 44,
                "velocity": 127,
                "duration": 5.7454545,
                "tempo": 120.0
            },
            {
                "start_time": 24.3818182,
                "end_time": 24.6,
                "pitch": 60,
                "velocity": 127,
                "duration": 0.2181818,
                "tempo": 120.0
            },
            {
                "start_time": 22.0772727,
                "end_time": 24.8340909,
                "pitch": 62,
                "velocity": 127,
                "duration": 2.7568182,
                "tempo": 120.0
            },
            {
                "start_time": 24.6159091,
                "end_time": 24.8340909,
                "pitch": 62,
                "velocity": 127,
                "duration": 0.2181818,
                "tempo": 120.0
            },
            {
                "start_time": 22.3045455,
                "end_time": 25.0681818,
                "pitch": 64,
                "velocity": 127,
                "duration": 2.7636364,
                "tempo": 120.0
            },
            {
                "start_time": 24.85,
                "end_time": 25.0681818,
                "pitch": 64,
                "velocity": 127,
                "duration": 0.2181818,
                "tempo": 120.0
            },
            {
                "start_time": 25.0840909,
                "end_time": 25.2840909,
                "pitch": 64,
                "velocity": 127,
                "duration": 0.2,
                "tempo": 120.0
            },
            {
                "start_time": 25.3181818,
                "end_time": 25.5136364,
                "pitch": 66,
                "velocity": 127,
                "duration": 0.1954545,
                "tempo": 120.0
            },
            {
                "start_time": 24.85,
                "end_time": 25.7409091,
                "pitch": 62,
                "velocity": 127,
                "duration": 0.8909091,
                "tempo": 120.0
            },
            {
                "start_time": 25.5454545,
                "end_time": 25.7409091,
                "pitch": 62,
                "velocity": 127,
                "duration": 0.1954545,
                "tempo": 120.0
            },
            {
                "start_time": 24.6159091,
                "end_time": 25.975,
                "pitch": 60,
                "velocity": 127,
                "duration": 1.3590909,
                "tempo": 120.0
            },
            {
                "start_time": 25.775,
                "end_time": 25.975,
                "pitch": 60,
                "velocity": 127,
                "duration": 0.2,
                "tempo": 120.0
            },
            {
                "start_time": 25.5454545,
                "end_time": 26.0090909,
                "pitch": 64,
                "velocity": 127,
                "duration": 0.4636364,
                "tempo": 120.0
            },
            {
                "start_time": 26.0090909,
                "end_time": 26.2090909,
                "pitch": 59,
                "velocity": 127,
                "duration": 0.2,
                "tempo": 120.0
            },
            {
                "start_time": 26.2272727,
                "end_time": 26.4295455,
                "pitch": 59,
                "velocity": 127,
                "duration": 0.2022727,
                "tempo": 120.0
            },
            {
                "start_time": 26.4454545,
                "end_time": 26.6477273,
                "pitch": 59,
                "velocity": 127,
                "duration": 0.2022727,
                "tempo": 120.0
            },
            {
                "start_time": 26.6636364,
                "end_time": 26.8795455,
                "pitch": 59,
                "velocity": 127,
                "duration": 0.2159091,
                "tempo": 120.0
            },
            {
                "start_time": 26.8977273,
                "end_time": 27.1136364,
                "pitch": 59,
                "velocity": 101,
                "duration": 0.2159091,
                "tempo": 120.0
            },
            {
                "start_time": 27.1318182,
                "end_time": 27.3431818,
                "pitch": 59,
                "velocity": 101,
                "duration": 0.2113636,
                "tempo": 120.0
            },
            {
                "start_time": 27.3590909,
                "end_time": 27.5704545,
                "pitch": 59,
                "velocity": 101,
                "duration": 0.2113636,
                "tempo": 120.0
            },
            {
                "start_time": 27.5886364,
                "end_time": 27.8045455,
                "pitch": 59,
                "velocity": 101,
                "duration": 0.2159091,
                "tempo": 120.0
            },
            {
                "start_time": 29.6772727,
                "end_time": 29.8886364,
                "pitch": 71,
                "velocity": 127,
                "duration": 0.2113636,
                "tempo": 120.0
            },
            {
                "start_time": 29.9045455,
                "end_time": 30.1227273,
                "pitch": 71,
                "velocity": 101,
                "duration": 0.2181818,
                "tempo": 120.0
            },
            {
                "start_time": 30.1386364,
                "end_time": 30.3568182,
                "pitch": 71,
                "velocity": 127,
                "duration": 0.2181818,
                "tempo": 120.0
            },
            {
                "start_time": 30.3727273,
                "end_time": 30.5909091,
                "pitch": 69,
                "velocity": 101,
                "duration": 0.2181818,
                "tempo": 120.0
            },
            {
                "start_time": 30.6068182,
                "end_time": 30.8227273,
                "pitch": 76,
                "velocity": 127,
                "duration": 0.2159091,
                "tempo": 120.0
            },
            {
                "start_time": 30.8409091,
                "end_time": 31.0522727,
                "pitch": 76,
                "velocity": 101,
                "duration": 0.2113636,
                "tempo": 120.0
            },
            {
                "start_time": 31.0704545,
                "end_time": 31.2818182,
                "pitch": 69,
                "velocity": 127,
                "duration": 0.2113636,
                "tempo": 120.0
            },
            {
                "start_time": 31.2977273,
                "end_time": 31.4977273,
                "pitch": 69,
                "velocity": 101,
                "duration": 0.2,
                "tempo": 120.0
            },
            {
                "start_time": 31.5318182,
                "end_time": 31.7318182,
                "pitch": 69,
                "velocity": 127,
                "duration": 0.2,
                "tempo": 120.0
            },
            {
                "start_time": 31.7659091,
                "end_time": 31.9613636,
                "pitch": 71,
                "velocity": 101,
                "duration": 0.1954545,
                "tempo": 120.0
            },
            {
                "start_time": 31.9931818,
                "end_time": 32.1886364,
                "pitch": 71,
                "velocity": 127,
                "duration": 0.1954545,
                "tempo": 120.0
            },
            {
                "start_time": 32.2227273,
                "end_time": 32.4181818,
                "pitch": 69,
                "velocity": 101,
                "duration": 0.1954545,
                "tempo": 120.0
            },
            {
                "start_time": 30.6068182,
                "end_time": 32.45,
                "pitch": 43,
                "velocity": 127,
                "duration": 1.8431818,
                "tempo": 120.0
            },
            {
                "start_time": 32.45,
                "end_time": 32.6454545,
                "pitch": 76,
                "velocity": 127,
                "duration": 0.1954545,
                "tempo": 120.0
            },
            {
                "start_time": 32.6636364,
                "end_time": 32.8704545,
                "pitch": 76,
                "velocity": 101,
                "duration": 0.2068182,
                "tempo": 120.0
            },
            {
                "start_time": 31.0704545,
                "end_time": 32.8863636,
                "pitch": 78,
                "velocity": 127,
                "duration": 1.8159091,
                "tempo": 120.0
            },
            {
                "start_time": 32.8863636,
                "end_time": 33.0931818,
                "pitch": 69,
                "velocity": 127,
                "duration": 0.2068182,
                "tempo": 120.0
            },
            {
                "start_time": 33.1113636,
                "end_time": 33.3272727,
                "pitch": 69,
                "velocity": 101,
                "duration": 0.2159091,
                "tempo": 120.0
            },
            {
                "start_time": 32.45,
                "end_time": 33.3431818,
                "pitch": 43,
                "velocity": 127,
                "duration": 0.8931818,
                "tempo": 120.0
            },
            {
                "start_time": 33.3431818,
                "end_time": 33.5613636,
                "pitch": 72,
                "velocity": 127,
                "duration": 0.2181818,
                "tempo": 120.0
            },
            {
                "start_time": 33.5772727,
                "end_time": 33.7977273,
                "pitch": 72,
                "velocity": 101,
                "duration": 0.2204545,
                "tempo": 120.0
            },
            {
                "start_time": 33.8159091,
                "end_time": 34.0363636,
                "pitch": 71,
                "velocity": 127,
                "duration": 0.2204545,
                "tempo": 120.0
            },
            {
                "start_time": 34.0522727,
                "end_time": 34.2659091,
                "pitch": 71,
                "velocity": 101,
                "duration": 0.2136364,
                "tempo": 120.0
            },
            {
                "start_time": 33.8159091,
                "end_time": 34.4931818,
                "pitch": 76,
                "velocity": 127,
                "duration": 0.6772727,
                "tempo": 120.0
            },
            {
                "start_time": 34.2818182,
                "end_time": 34.4931818,
                "pitch": 76,
                "velocity": 127,
                "duration": 0.2113636,
                "tempo": 120.0
            },
            {
                "start_time": 34.5113636,
                "end_time": 34.7181818,
                "pitch": 76,
                "velocity": 101,
                "duration": 0.2068182,
                "tempo": 120.0
            },
            {
                "start_time": 32.8863636,
                "end_time": 34.7340909,
                "pitch": 78,
                "velocity": 127,
                "duration": 1.8477273,
                "tempo": 120.0
            },
            {
                "start_time": 34.7340909,
                "end_time": 34.9409091,
                "pitch": 71,
                "velocity": 127,
                "duration": 0.2068182,
                "tempo": 120.0
            },
            {
                "start_time": 34.9568182,
                "end_time": 35.1727273,
                "pitch": 71,
                "velocity": 101,
                "duration": 0.2159091,
                "tempo": 120.0
            },
            {
                "start_time": 34.2818182,
                "end_time": 35.1909091,
                "pitch": 56,
                "velocity": 127,
                "duration": 0.9090909,
                "tempo": 120.0
            },
            {
                "start_time": 35.1909091,
                "end_time": 35.4068182,
                "pitch": 72,
                "velocity": 127,
                "duration": 0.2159091,
                "tempo": 120.0
            },
            {
                "start_time": 35.425,
                "end_time": 35.6363636,
                "pitch": 72,
                "velocity": 101,
                "duration": 0.2113636,
                "tempo": 120.0
            },
            {
                "start_time": 35.6522727,
                "end_time": 35.8636364,
                "pitch": 71,
                "velocity": 127,
                "duration": 0.2113636,
                "tempo": 120.0
            },
            {
                "start_time": 35.8818182,
                "end_time": 36.0931818,
                "pitch": 71,
                "velocity": 101,
                "duration": 0.2113636,
                "tempo": 120.0
            },
            {
                "start_time": 35.1909091,
                "end_time": 36.1090909,
                "pitch": 56,
                "velocity": 127,
                "duration": 0.9181818,
                "tempo": 120.0
            },
            {
                "start_time": 35.6522727,
                "end_time": 36.3204545,
                "pitch": 76,
                "velocity": 127,
                "duration": 0.6681818,
                "tempo": 120.0
            },
            {
                "start_time": 36.1090909,
                "end_time": 36.3204545,
                "pitch": 76,
                "velocity": 127,
                "duration": 0.2113636,
                "tempo": 120.0
            },
            {
                "start_time": 36.3386364,
                "end_time": 36.5545455,
                "pitch": 76,
                "velocity": 101,
                "duration": 0.2159091,
                "tempo": 120.0
            },
            {
                "start_time": 34.7340909,
                "end_time": 36.5727273,
                "pitch": 78,
                "velocity": 127,
                "duration": 1.8386364,
                "tempo": 120.0
            },
            {
                "start_time": 36.5727273,
                "end_time": 36.7886364,
                "pitch": 71,
                "velocity": 127,
                "duration": 0.2159091,
                "tempo": 120.0
            },
            {
                "start_time": 36.8068182,
                "end_time": 37.0227273,
                "pitch": 71,
                "velocity": 101,
                "duration": 0.2159091,
                "tempo": 120.0
            },
            {
                "start_time": 37.0409091,
                "end_time": 37.2568182,
                "pitch": 71,
                "velocity": 127,
                "duration": 0.2159091,
                "tempo": 120.0
            },
            {
                "start_time": 37.275,
                "end_time": 37.4909091,
                "pitch": 71,
                "velocity": 101,
                "duration": 0.2159091,
                "tempo": 120.0
            },
            {
                "start_time": 37.5090909,
                "end_time": 37.725,
                "pitch": 71,
                "velocity": 127,
                "duration": 0.2159091,
                "tempo": 120.0
            },
            {
                "start_time": 37.7431818,
                "end_time": 37.9409091,
                "pitch": 69,
                "velocity": 101,
                "duration": 0.1977273,
                "tempo": 120.0
            },
            {
                "start_time": 33.3431818,
                "end_time": 37.975,
                "pitch": 43,
                "velocity": 127,
                "duration": 4.6318182,
                "tempo": 120.0
            },
            {
                "start_time": 37.975,
                "end_time": 38.175,
                "pitch": 76,
                "velocity": 127,
                "duration": 0.2,
                "tempo": 120.0
            },
            {
                "start_time": 38.2090909,
                "end_time": 38.4045455,
                "pitch": 76,
                "velocity": 101,
                "duration": 0.1954545,
                "tempo": 120.0
            },
            {
                "start_time": 36.5727273,
                "end_time": 38.4386364,
                "pitch": 78,
                "velocity": 127,
                "duration": 1.8659091,
                "tempo": 120.0
            },
            {
                "start_time": 38.4386364,
                "end_time": 38.6340909,
                "pitch": 69,
                "velocity": 127,
                "duration": 0.1954545,
                "tempo": 120.0
            },
            {
                "start_time": 38.6681818,
                "end_time": 38.8659091,
                "pitch": 69,
                "velocity": 101,
                "duration": 0.1977273,
                "tempo": 120.0
            },
            {
                "start_time": 38.8840909,
                "end_time": 39.1,
                "pitch": 69,
                "velocity": 127,
                "duration": 0.2159091,
                "tempo": 120.0
            },
            {
                "start_time": 39.1181818,
                "end_time": 39.3204545,
                "pitch": 71,
                "velocity": 101,
                "duration": 0.2022727,
                "tempo": 120.0
            },
            {
                "start_time": 39.3363636,
                "end_time": 39.5386364,
                "pitch": 71,
                "velocity": 127,
                "duration": 0.2022727,
                "tempo": 120.0
            },
            {
                "start_time": 39.5545455,
                "end_time": 39.7704545,
                "pitch": 69,
                "velocity": 101,
                "duration": 0.2159091,
                "tempo": 120.0
            },
            {
                "start_time": 39.7886364,
                "end_time": 40.0045455,
                "pitch": 76,
                "velocity": 127,
                "duration": 0.2159091,
                "tempo": 120.0
            },
            {
                "start_time": 40.0227273,
                "end_time": 40.2340909,
                "pitch": 76,
                "velocity": 101,
                "duration": 0.2113636,
                "tempo": 120.0
            },
            {
                "start_time": 38.4386364,
                "end_time": 40.25,
                "pitch": 78,
                "velocity": 127,
                "duration": 1.8113636,
                "tempo": 120.0
            },
            {
                "start_time": 40.25,
                "end_time": 40.4613636,
                "pitch": 69,
                "velocity": 127,
                "duration": 0.2113636,
                "tempo": 120.0
            },
            {
                "start_time": 40.4795455,
                "end_time": 40.6954545,
                "pitch": 69,
                "velocity": 101,
                "duration": 0.2159091,
                "tempo": 120.0
            },
            {
                "start_time": 37.975,
                "end_time": 40.7136364,
                "pitch": 43,
                "velocity": 127,
                "duration": 2.7386364,
                "tempo": 120.0
            },
            {
                "start_time": 40.7136364,
                "end_time": 40.9295455,
                "pitch": 72,
                "velocity": 127,
                "duration": 0.2159091,
                "tempo": 120.0
            },
            {
                "start_time": 40.9477273,
                "end_time": 41.1681818,
                "pitch": 72,
                "velocity": 101,
                "duration": 0.2204545,
                "tempo": 120.0
            },
            {
                "start_time": 41.1840909,
                "end_time": 41.4045455,
                "pitch": 71,
                "velocity": 127,
                "duration": 0.2204545,
                "tempo": 120.0
            },
            {
                "start_time": 41.4227273,
                "end_time": 41.6340909,
                "pitch": 71,
                "velocity": 101,
                "duration": 0.2113636,
                "tempo": 120.0
            },
            {
                "start_time": 36.1090909,
                "end_time": 41.65,
                "pitch": 56,
                "velocity": 127,
                "duration": 5.5409091,
                "tempo": 120.0
            },
            {
                "start_time": 41.1840909,
                "end_time": 41.8636364,
                "pitch": 76,
                "velocity": 127,
                "duration": 0.6795455,
                "tempo": 120.0
            },
            {
                "start_time": 41.65,
                "end_time": 41.8636364,
                "pitch": 76,
                "velocity": 127,
                "duration": 0.2136364,
                "tempo": 120.0
            },
            {
                "start_time": 41.8795455,
                "end_time": 42.0863636,
                "pitch": 76,
                "velocity": 101,
                "duration": 0.2068182,
                "tempo": 120.0
            },
            {
                "start_time": 40.25,
                "end_time": 42.1022727,
                "pitch": 78,
                "velocity": 127,
                "duration": 1.8522727,
                "tempo": 120.0
            },
            {
                "start_time": 42.1022727,
                "end_time": 42.3090909,
                "pitch": 71,
                "velocity": 127,
                "duration": 0.2068182,
                "tempo": 120.0
            },
            {
                "start_time": 42.3272727,
                "end_time": 42.5386364,
                "pitch": 71,
                "velocity": 101,
                "duration": 0.2113636,
                "tempo": 120.0
            },
            {
                "start_time": 42.5545455,
                "end_time": 42.7659091,
                "pitch": 71,
                "velocity": 127,
                "duration": 0.2113636,
                "tempo": 120.0
            },
            {
                "start_time": 42.7840909,
                "end_time": 43.0,
                "pitch": 71,
                "velocity": 127,
                "duration": 0.2159091,
                "tempo": 120.0
            },
            {
                "start_time": 43.0159091,
                "end_time": 43.2340909,
                "pitch": 71,
                "velocity": 127,
                "duration": 0.2181818,
                "tempo": 120.0
            },
            {
                "start_time": 43.25,
                "end_time": 43.4613636,
                "pitch": 71,
                "velocity": 127,
                "duration": 0.2113636,
                "tempo": 120.0
            },
            {
                "start_time": 43.4795455,
                "end_time": 43.6909091,
                "pitch": 71,
                "velocity": 101,
                "duration": 0.2113636,
                "tempo": 120.0
            },
            {
                "start_time": 43.7068182,
                "end_time": 43.9272727,
                "pitch": 71,
                "velocity": 101,
                "duration": 0.2204545,
                "tempo": 120.0
            },
            {
                "start_time": 43.9454545,
                "end_time": 44.1477273,
                "pitch": 71,
                "velocity": 101,
                "duration": 0.2022727,
                "tempo": 120.0
            },
            {
                "start_time": 44.1818182,
                "end_time": 44.3772727,
                "pitch": 71,
                "velocity": 101,
                "duration": 0.1954545,
                "tempo": 120.0
            },
            {
                "start_time": 44.4113636,
                "end_time": 44.6068182,
                "pitch": 71,
                "velocity": 127,
                "duration": 0.1954545,
                "tempo": 120.0
            },
            {
                "start_time": 44.6386364,
                "end_time": 44.8386364,
                "pitch": 71,
                "velocity": 101,
                "duration": 0.2,
                "tempo": 120.0
            },
            {
                "start_time": 44.8727273,
                "end_time": 45.0727273,
                "pitch": 71,
                "velocity": 127,
                "duration": 0.2,
                "tempo": 120.0
            },
            {
                "start_time": 45.1068182,
                "end_time": 45.3068182,
                "pitch": 69,
                "velocity": 101,
                "duration": 0.2,
                "tempo": 120.0
            },
            {
                "start_time": 40.7136364,
                "end_time": 45.325,
                "pitch": 43,
                "velocity": 127,
                "duration": 4.6113636,
                "tempo": 120.0
            },
            {
                "start_time": 45.325,
                "end_time": 45.5409091,
                "pitch": 76,
                "velocity": 127,
                "duration": 0.2159091,
                "tempo": 120.0
            },
            {
                "start_time": 45.5590909,
                "end_time": 45.7613636,
                "pitch": 76,
                "velocity": 101,
                "duration": 0.2022727,
                "tempo": 120.0
            },
            {
                "start_time": 42.1022727,
                "end_time": 45.7772727,
                "pitch": 78,
                "velocity": 127,
                "duration": 3.675,
                "tempo": 120.0
            },
            {
                "start_time": 45.7772727,
                "end_time": 45.9795455,
                "pitch": 69,
                "velocity": 127,
                "duration": 0.2022727,
                "tempo": 120.0
            },
            {
                "start_time": 45.9954545,
                "end_time": 46.2113636,
                "pitch": 69,
                "velocity": 101,
                "duration": 0.2159091,
                "tempo": 120.0
            },
            {
                "start_time": 46.2295455,
                "end_time": 46.4454545,
                "pitch": 69,
                "velocity": 127,
                "duration": 0.2159091,
                "tempo": 120.0
            },
            {
                "start_time": 46.4636364,
                "end_time": 46.675,
                "pitch": 71,
                "velocity": 101,
                "duration": 0.2113636,
                "tempo": 120.0
            },
            {
                "start_time": 46.6909091,
                "end_time": 46.9022727,
                "pitch": 71,
                "velocity": 127,
                "duration": 0.2113636,
                "tempo": 120.0
            },
            {
                "start_time": 46.9204545,
                "end_time": 47.1363636,
                "pitch": 69,
                "velocity": 101,
                "duration": 0.2159091,
                "tempo": 120.0
            },
            {
                "start_time": 45.325,
                "end_time": 47.1545455,
                "pitch": 43,
                "velocity": 127,
                "duration": 1.8295455,
                "tempo": 120.0
            },
            {
                "start_time": 47.1522727,
                "end_time": 47.1545455,
                "pitch": 43,
                "velocity": 127,
                "duration": 0.0022727,
                "tempo": 120.0
            },
            {
                "start_time": 47.1545455,
                "end_time": 47.3704545,
                "pitch": 76,
                "velocity": 127,
                "duration": 0.2159091,
                "tempo": 120.0
            },
            {
                "start_time": 47.3863636,
                "end_time": 47.6,
                "pitch": 76,
                "velocity": 101,
                "duration": 0.2136364,
                "tempo": 120.0
            },
            {
                "start_time": 45.7772727,
                "end_time": 47.6159091,
                "pitch": 78,
                "velocity": 127,
                "duration": 1.8386364,
                "tempo": 120.0
            },
            {
                "start_time": 47.6159091,
                "end_time": 47.8272727,
                "pitch": 69,
                "velocity": 127,
                "duration": 0.2113636,
                "tempo": 120.0
            },
            {
                "start_time": 47.8454545,
                "end_time": 48.0613636,
                "pitch": 69,
                "velocity": 101,
                "duration": 0.2159091,
                "tempo": 120.0
            },
            {
                "start_time": 48.0772727,
                "end_time": 48.0795455,
                "pitch": 43,
                "velocity": 127,
                "duration": 0.0022727,
                "tempo": 120.0
            },
            {
                "start_time": 48.0795455,
                "end_time": 48.2954545,
                "pitch": 72,
                "velocity": 127,
                "duration": 0.2159091,
                "tempo": 120.0
            },
            {
                "start_time": 48.3136364,
                "end_time": 48.5295455,
                "pitch": 72,
                "velocity": 101,
                "duration": 0.2159091,
                "tempo": 120.0
            },
            {
                "start_time": 48.5477273,
                "end_time": 48.7636364,
                "pitch": 71,
                "velocity": 127,
                "duration": 0.2159091,
                "tempo": 120.0
            },
            {
                "start_time": 48.7795455,
                "end_time": 48.9931818,
                "pitch": 71,
                "velocity": 101,
                "duration": 0.2136364,
                "tempo": 120.0
            },
            {
                "start_time": 41.65,
                "end_time": 49.0090909,
                "pitch": 56,
                "velocity": 127,
                "duration": 7.3590909,
                "tempo": 120.0
            },
            {
                "start_time": 49.0090909,
                "end_time": 49.2204545,
                "pitch": 74,
                "velocity": 127,
                "duration": 0.2113636,
                "tempo": 120.0
            },
            {
                "start_time": 49.2386364,
                "end_time": 49.45,
                "pitch": 74,
                "velocity": 101,
                "duration": 0.2113636,
                "tempo": 120.0
            },
            {
                "start_time": 49.4659091,
                "end_time": 49.6772727,
                "pitch": 71,
                "velocity": 127,
                "duration": 0.2113636,
                "tempo": 120.0
            },
            {
                "start_time": 49.6954545,
                "end_time": 49.9113636,
                "pitch": 71,
                "velocity": 101,
                "duration": 0.2159091,
                "tempo": 120.0
            },
            {
                "start_time": 49.0090909,
                "end_time": 49.9272727,
                "pitch": 56,
                "velocity": 127,
                "duration": 0.9181818,
                "tempo": 120.0
            },
            {
                "start_time": 49.9272727,
                "end_time": 50.1454545,
                "pitch": 72,
                "velocity": 127,
                "duration": 0.2181818,
                "tempo": 120.0
            },
            {
                "start_time": 50.1613636,
                "end_time": 50.3727273,
                "pitch": 72,
                "velocity": 101,
                "duration": 0.2113636,
                "tempo": 120.0
            },
            {
                "start_time": 48.5477273,
                "end_time": 50.3909091,
                "pitch": 76,
                "velocity": 127,
                "duration": 1.8431818,
                "tempo": 120.0
            },
            {
                "start_time": 50.3909091,
                "end_time": 50.5863636,
                "pitch": 71,
                "velocity": 127,
                "duration": 0.1954545,
                "tempo": 120.0
            },
            {
                "start_time": 50.6181818,
                "end_time": 50.8181818,
                "pitch": 71,
                "velocity": 101,
                "duration": 0.2,
                "tempo": 120.0
            },
            {
                "start_time": 49.9272727,
                "end_time": 50.8522727,
                "pitch": 56,
                "velocity": 127,
                "duration": 0.925,
                "tempo": 120.0
            },
            {
                "start_time": 50.8522727,
                "end_time": 51.0522727,
                "pitch": 74,
                "velocity": 127,
                "duration": 0.2,
                "tempo": 120.0
            },
            {
                "start_time": 51.0863636,
                "end_time": 51.2818182,
                "pitch": 74,
                "velocity": 101,
                "duration": 0.1954545,
                "tempo": 120.0
            },
            {
                "start_time": 51.3136364,
                "end_time": 51.5090909,
                "pitch": 71,
                "velocity": 127,
                "duration": 0.1954545,
                "tempo": 120.0
            },
            {
                "start_time": 51.5272727,
                "end_time": 51.7340909,
                "pitch": 71,
                "velocity": 101,
                "duration": 0.2068182,
                "tempo": 120.0
            },
            {
                "start_time": 51.75,
                "end_time": 51.9568182,
                "pitch": 71,
                "velocity": 127,
                "duration": 0.2068182,
                "tempo": 120.0
            },
            {
                "start_time": 51.975,
                "end_time": 52.1909091,
                "pitch": 71,
                "velocity": 101,
                "duration": 0.2159091,
                "tempo": 120.0
            },
            {
                "start_time": 52.2068182,
                "end_time": 52.425,
                "pitch": 71,
                "velocity": 127,
                "duration": 0.2181818,
                "tempo": 120.0
            },
            {
                "start_time": 52.4409091,
                "end_time": 52.6590909,
                "pitch": 69,
                "velocity": 101,
                "duration": 0.2181818,
                "tempo": 120.0
            },
            {
                "start_time": 50.3909091,
                "end_time": 52.8931818,
                "pitch": 76,
                "velocity": 127,
                "duration": 2.5022727,
                "tempo": 120.0
            },
            {
                "start_time": 52.675,
                "end_time": 52.8931818,
                "pitch": 76,
                "velocity": 127,
                "duration": 0.2181818,
                "tempo": 120.0
            },
            {
                "start_time": 52.9090909,
                "end_time": 53.1204545,
                "pitch": 76,
                "velocity": 101,
                "duration": 0.2113636,
                "tempo": 120.0
            },
            {
                "start_time": 47.6159091,
                "end_time": 53.1386364,
                "pitch": 78,
                "velocity": 127,
                "duration": 5.5227273,
                "tempo": 120.0
            },
            {
                "start_time": 53.1386364,
                "end_time": 53.35,
                "pitch": 69,
                "velocity": 127,
                "duration": 0.2113636,
                "tempo": 120.0
            },
            {
                "start_time": 53.3659091,
                "end_time": 53.5818182,
                "pitch": 69,
                "velocity": 101,
                "duration": 0.2159091,
                "tempo": 120.0
            },
            {
                "start_time": 53.6,
                "end_time": 53.8159091,
                "pitch": 69,
                "velocity": 127,
                "duration": 0.2159091,
                "tempo": 120.0
            },
            {
                "start_time": 53.8340909,
                "end_time": 54.0454545,
                "pitch": 71,
                "velocity": 101,
                "duration": 0.2113636,
                "tempo": 120.0
            },
            {
                "start_time": 54.0613636,
                "end_time": 54.2727273,
                "pitch": 71,
                "velocity": 127,
                "duration": 0.2113636,
                "tempo": 120.0
            },
            {
                "start_time": 54.2909091,
                "end_time": 54.5022727,
                "pitch": 69,
                "velocity": 101,
                "duration": 0.2113636,
                "tempo": 120.0
            },
            {
                "start_time": 52.675,
                "end_time": 54.5181818,
                "pitch": 43,
                "velocity": 127,
                "duration": 1.8431818,
                "tempo": 120.0
            },
            {
                "start_time": 54.5181818,
                "end_time": 54.7318182,
                "pitch": 76,
                "velocity": 127,
                "duration": 0.2136364,
                "tempo": 120.0
            },
            {
                "start_time": 54.7477273,
                "end_time": 54.9636364,
                "pitch": 76,
                "velocity": 101,
                "duration": 0.2159091,
                "tempo": 120.0
            },
            {
                "start_time": 53.1386364,
                "end_time": 54.9818182,
                "pitch": 78,
                "velocity": 127,
                "duration": 1.8431818,
                "tempo": 120.0
            },
            {
                "start_time": 54.9818182,
                "end_time": 55.1977273,
                "pitch": 69,
                "velocity": 127,
                "duration": 0.2159091,
                "tempo": 120.0
            },
            {
                "start_time": 55.2159091,
                "end_time": 55.4318182,
                "pitch": 69,
                "velocity": 101,
                "duration": 0.2159091,
                "tempo": 120.0
            },
            {
                "start_time": 55.45,
                "end_time": 55.6659091,
                "pitch": 69,
                "velocity": 127,
                "duration": 0.2159091,
                "tempo": 120.0
            },
            {
                "start_time": 55.6840909,
                "end_time": 55.9,
                "pitch": 71,
                "velocity": 101,
                "duration": 0.2159091,
                "tempo": 120.0
            },
            {
                "start_time": 55.9181818,
                "end_time": 56.1340909,
                "pitch": 71,
                "velocity": 127,
                "duration": 0.2159091,
                "tempo": 120.0
            },
            {
                "start_time": 56.1522727,
                "end_time": 56.3681818,
                "pitch": 69,
                "velocity": 101,
                "duration": 0.2159091,
                "tempo": 120.0
            },
            {
                "start_time": 56.3863636,
                "end_time": 56.6022727,
                "pitch": 76,
                "velocity": 127,
                "duration": 0.2159091,
                "tempo": 120.0
            },
            {
                "start_time": 56.6204545,
                "end_time": 56.8159091,
                "pitch": 76,
                "velocity": 101,
                "duration": 0.1954545,
                "tempo": 120.0
            },
            {
                "start_time": 56.8477273,
                "end_time": 57.0431818,
                "pitch": 69,
                "velocity": 127,
                "duration": 0.1954545,
                "tempo": 120.0
            },
            {
                "start_time": 57.0772727,
                "end_time": 57.2704545,
                "pitch": 69,
                "velocity": 101,
                "duration": 0.1931818,
                "tempo": 120.0
            },
            {
                "start_time": 57.3045455,
                "end_time": 57.5,
                "pitch": 69,
                "velocity": 127,
                "duration": 0.1954545,
                "tempo": 120.0
            },
            {
                "start_time": 57.5340909,
                "end_time": 57.7295455,
                "pitch": 71,
                "velocity": 101,
                "duration": 0.1954545,
                "tempo": 120.0
            },
            {
                "start_time": 57.7613636,
                "end_time": 57.9568182,
                "pitch": 71,
                "velocity": 127,
                "duration": 0.1954545,
                "tempo": 120.0
            },
            {
                "start_time": 57.9727273,
                "end_time": 58.1795455,
                "pitch": 69,
                "velocity": 101,
                "duration": 0.2068182,
                "tempo": 120.0
            },
            {
                "start_time": 58.1977273,
                "end_time": 58.4045455,
                "pitch": 76,
                "velocity": 127,
                "duration": 0.2068182,
                "tempo": 120.0
            },
            {
                "start_time": 58.4204545,
                "end_time": 58.6318182,
                "pitch": 76,
                "velocity": 101,
                "duration": 0.2113636,
                "tempo": 120.0
            },
            {
                "start_time": 54.9818182,
                "end_time": 58.6477273,
                "pitch": 78,
                "velocity": 127,
                "duration": 3.6659091,
                "tempo": 120.0
            },
            {
                "start_time": 58.6477273,
                "end_time": 58.8613636,
                "pitch": 69,
                "velocity": 127,
                "duration": 0.2136364,
                "tempo": 120.0
            }
        ],
        "Acoustic Grand Piano": [
            {
                "start_time": 0.0454545,
                "end_time": 3.6909091,
                "pitch": 59,
                "velocity": 101,
                "duration": 3.6454545,
                "tempo": 120.0
            },
            {
                "start_time": 3.725,
                "end_time": 7.4,
                "pitch": 60,
                "velocity": 101,
                "duration": 3.675,
                "tempo": 120.0
            },
            {
                "start_time": 7.4159091,
                "end_time": 11.0636364,
                "pitch": 59,
                "velocity": 101,
                "duration": 3.6477273,
                "tempo": 120.0
            },
            {
                "start_time": 11.0795455,
                "end_time": 11.9727273,
                "pitch": 59,
                "velocity": 101,
                "duration": 0.8931818,
                "tempo": 120.0
            },
            {
                "start_time": 12.0045455,
                "end_time": 12.8977273,
                "pitch": 71,
                "velocity": 101,
                "duration": 0.8931818,
                "tempo": 120.0
            },
            {
                "start_time": 12.9318182,
                "end_time": 13.8204545,
                "pitch": 83,
                "velocity": 101,
                "duration": 0.8886364,
                "tempo": 120.0
            },
            {
                "start_time": 13.8522727,
                "end_time": 14.7090909,
                "pitch": 95,
                "velocity": 101,
                "duration": 0.8568182,
                "tempo": 120.0
            },
            {
                "start_time": 14.7590909,
                "end_time": 18.4363636,
                "pitch": 59,
                "velocity": 101,
                "duration": 3.6772727,
                "tempo": 120.0
            },
            {
                "start_time": 3.725,
                "end_time": 18.4522727,
                "pitch": 44,
                "velocity": 101,
                "duration": 14.7272727,
                "tempo": 120.0
            },
            {
                "start_time": 18.4522727,
                "end_time": 22.1090909,
                "pitch": 60,
                "velocity": 101,
                "duration": 3.6568182,
                "tempo": 120.0
            },
            {
                "start_time": 7.4159091,
                "end_time": 22.1409091,
                "pitch": 64,
                "velocity": 101,
                "duration": 14.725,
                "tempo": 120.0
            },
            {
                "start_time": 22.1409091,
                "end_time": 25.8068182,
                "pitch": 59,
                "velocity": 101,
                "duration": 3.6659091,
                "tempo": 120.0
            },
            {
                "start_time": 25.825,
                "end_time": 27.6363636,
                "pitch": 59,
                "velocity": 101,
                "duration": 1.8113636,
                "tempo": 120.0
            },
            {
                "start_time": 27.6545455,
                "end_time": 29.4795455,
                "pitch": 71,
                "velocity": 101,
                "duration": 1.825,
                "tempo": 120.0
            },
            {
                "start_time": 18.4522727,
                "end_time": 29.4954545,
                "pitch": 44,
                "velocity": 101,
                "duration": 11.0431818,
                "tempo": 120.0
            },
            {
                "start_time": 29.4954545,
                "end_time": 33.1590909,
                "pitch": 62,
                "velocity": 101,
                "duration": 3.6636364,
                "tempo": 120.0
            },
            {
                "start_time": 22.1409091,
                "end_time": 36.8386364,
                "pitch": 64,
                "velocity": 101,
                "duration": 14.6977273,
                "tempo": 120.0
            },
            {
                "start_time": 33.1772727,
                "end_time": 36.8386364,
                "pitch": 64,
                "velocity": 101,
                "duration": 3.6613636,
                "tempo": 120.0
            },
            {
                "start_time": 33.1772727,
                "end_time": 40.5272727,
                "pitch": 62,
                "velocity": 101,
                "duration": 7.35,
                "tempo": 120.0
            },
            {
                "start_time": 36.8545455,
                "end_time": 40.5272727,
                "pitch": 62,
                "velocity": 101,
                "duration": 3.6727273,
                "tempo": 120.0
            },
            {
                "start_time": 36.8545455,
                "end_time": 44.2136364,
                "pitch": 64,
                "velocity": 101,
                "duration": 7.3590909,
                "tempo": 120.0
            },
            {
                "start_time": 40.5454545,
                "end_time": 44.2136364,
                "pitch": 64,
                "velocity": 101,
                "duration": 3.6681818,
                "tempo": 120.0
            },
            {
                "start_time": 44.2318182,
                "end_time": 47.8772727,
                "pitch": 60,
                "velocity": 101,
                "duration": 3.6454545,
                "tempo": 120.0
            },
            {
                "start_time": 40.5454545,
                "end_time": 51.575,
                "pitch": 62,
                "velocity": 101,
                "duration": 11.0295455,
                "tempo": 120.0
            },
            {
                "start_time": 47.9113636,
                "end_time": 51.575,
                "pitch": 62,
                "velocity": 101,
                "duration": 3.6636364,
                "tempo": 120.0
            },
            {
                "start_time": 44.2318182,
                "end_time": 55.2477273,
                "pitch": 64,
                "velocity": 101,
                "duration": 11.0159091,
                "tempo": 120.0
            },
            {
                "start_time": 51.5909091,
                "end_time": 55.2477273,
                "pitch": 64,
                "velocity": 101,
                "duration": 3.6568182,
                "tempo": 120.0
            },
            {
                "start_time": 55.2659091,
                "end_time": 58.8772727,
                "pitch": 64,
                "velocity": 101,
                "duration": 3.6113636,
                "tempo": 120.0
            }
        ]
    }
}