{
    "mood": "sad",
    "instruments": {
        "Electric Piano 1": [
            {
                "start_time": 0.0,
                "end_time": 0.1090909,
                "pitch": 71,
                "velocity": 127,
                "duration": 0.1090909,
                "tempo": 120.0
            },
            {
                "start_time": 0.1090909,
                "end_time": 0.2068182,
                "pitch": 82,
                "velocity": 127,
                "duration": 0.0977273,
                "tempo": 120.0
            },
            {
                "start_time": 0.2068182,
                "end_time": 0.3022727,
                "pitch": 71,
                "velocity": 127,
                "duration": 0.0954545,
                "tempo": 120.0
            },
            {
                "start_time": 0.3022727,
                "end_time": 0.4159091,
                "pitch": 82,
                "velocity": 127,
                "duration": 0.1136364,
                "tempo": 120.0
            },
            {
                "start_time": 0.4159091,
                "end_time": 0.55,
                "pitch": 70,
                "velocity": 127,
                "duration": 0.1340909,
                "tempo": 120.0
            },
            {
                "start_time": 0.55,
                "end_time": 0.6863636,
                "pitch": 83,
                "velocity": 127,
                "duration": 0.1363636,
                "tempo": 120.0
            },
            {
                "start_time": 0.6863636,
                "end_time": 0.8227273,
                "pitch": 70,
                "velocity": 127,
                "duration": 0.1363636,
                "tempo": 120.0
            },
            {
                "start_time": 0.8227273,
                "end_time": 0.9772727,
                "pitch": 82,
                "velocity": 127,
                "duration": 0.1545455,
                "tempo": 120.0
            },
            {
                "start_time": 0.9772727,
                "end_time": 1.1090909,
                "pitch": 71,
                "velocity": 127,
                "duration": 0.1318182,
                "tempo": 120.0
            },
            {
                "start_time": 0.3022727,
                "end_time": 1.1090909,
                "pitch": 84,
                "velocity": 127,
                "duration": 0.8068182,
                "tempo": 120.0
            },
            {
                "start_time": 1.1090909,
                "end_time": 1.2431818,
                "pitch": 82,
                "velocity": 127,
                "duration": 0.1340909,
                "tempo": 120.0
            },
            {
                "start_time": 1.2431818,
                "end_time": 1.3772727,
                "pitch": 70,
                "velocity": 127,
                "duration": 0.1340909,
                "tempo": 120.0
            },
            {
                "start_time": 0.6863636,
                "end_time": 1.5272727,
                "pitch": 72,
                "velocity": 127,
                "duration": 0.8409091,
                "tempo": 120.0
            },
            {
                "start_time": 1.3772727,
                "end_time": 1.5272727,
                "pitch": 83,
                "velocity": 127,
                "duration": 0.15,
                "tempo": 120.0
            },
            {
                "start_time": 1.5272727,
                "end_time": 1.6613636,
                "pitch": 70,
                "velocity": 127,
                "duration": 0.1340909,
                "tempo": 120.0
            },
            {
                "start_time": 1.6613636,
                "end_time": 1.7954545,
                "pitch": 82,
                "velocity": 127,
                "duration": 0.1340909,
                "tempo": 120.0
            },
            {
                "start_time": 1.7954545,
                "end_time": 1.9272727,
                "pitch": 71,
                "velocity": 127,
                "duration": 0.1318182,
                "tempo": 120.0
            },
            {
                "start_time": 1.1090909,
                "end_time": 1.9272727,
                "pitch": 84,
                "velocity": 127,
                "duration": 0.8181818,
                "tempo": 120.0
            },
            {
                "start_time": 1.9272727,
                "end_time": 2.0795455,
                "pitch": 82,
                "velocity": 127,
                "duration": 0.1522727,
                "tempo": 120.0
            },
            {
                "start_time": 2.0795455,
                "end_time": 2.2136364,
                "pitch": 70,
                "velocity": 127,
                "duration": 0.1340909,
                "tempo": 120.0
            },
            {
                "start_time": 1.5272727,
                "end_time": 2.3522727,
                "pitch": 72,
                "velocity": 127,
                "duration": 0.825,
                "tempo": 120.0
            },
            {
                "start_time": 2.2136364,
                "end_time": 2.3522727,
                "pitch": 83,
                "velocity": 127,
                "duration": 0.1386364,
                "tempo": 120.0
            },
            {
                "start_time": 2.3522727,
                "end_time": 2.4863636,
                "pitch": 70,
                "velocity": 127,
                "duration": 0.1340909,
                "tempo": 120.0
            },
            {
                "start_time": 2.4863636,
                "end_time": 2.6409091,
                "pitch": 82,
                "velocity": 127,
                "duration": 0.1545455,
                "tempo": 120.0
            },
            {
                "start_time": 2.6409091,
                "end_time": 2.7704545,
                "pitch": 71,
                "velocity": 127,
                "duration": 0.1295455,
                "tempo": 120.0
            },
            {
                "start_time": 1.9272727,
                "end_time": 2.7704545,
                "pitch": 84,
                "velocity": 127,
                "duration": 0.8431818,
                "tempo": 120.0
            },
            {
                "start_time": 2.7704545,
                "end_time": 2.9022727,
                "pitch": 82,
                "velocity": 127,
                "duration": 0.1318182,
                "tempo": 120.0
            },
            {
                "start_time": 2.9022727,
                "end_time": 3.0340909,
                "pitch": 70,
                "velocity": 127,
                "duration": 0.1318182,
                "tempo": 120.0
            },
            {
                "start_time": 2.3522727,
                "end_time": 3.1818182,
                "pitch": 72,
                "velocity": 127,
                "duration": 0.8295455,
                "tempo": 120.0
            },
            {
                "start_time": 3.0340909,
                "end_time": 3.1818182,
                "pitch": 83,
                "velocity": 127,
                "duration": 0.1477273,
                "tempo": 120.0
            },
            {
                "start_time": 3.1818182,
                "end_time": 3.3159091,
                "pitch": 70,
                "velocity": 127,
                "duration": 0.1340909,
                "tempo": 120.0
            },
            {
                "start_time": 3.3159091,
                "end_time": 3.45,
                "pitch": 82,
                "velocity": 127,
                "duration": 0.1340909,
                "tempo": 120.0
            },
            {
                "start_time": 3.45,
                "end_time": 3.5818182,
                "pitch": 71,
                "velocity": 127,
                "duration": 0.1318182,
                "tempo": 120.0
            },
            {
                "start_time": 2.7704545,
                "end_time": 3.5818182,
                "pitch": 84,
                "velocity": 127,
                "duration": 0.8113636,
                "tempo": 120.0
            },
            {
                "start_time": 3.5818182,
                "end_time": 3.7318182,
                "pitch": 82,
                "velocity": 127,
                "duration": 0.15,
                "tempo": 120.0
            },
            {
                "start_time": 3.7318182,
                "end_time": 3.8659091,
                "pitch": 70,
                "velocity": 127,
                "duration": 0.1340909,
                "tempo": 120.0
            },
            {
                "start_time": 3.1818182,
                "end_time": 4.0,
                "pitch": 72,
                "velocity": 127,
                "duration": 0.8181818,
                "tempo": 120.0
            },
            {
                "start_time": 3.8659091,
                "end_time": 4.0,
                "pitch": 83,
                "velocity": 127,
                "duration": 0.1340909,
                "tempo": 120.0
            },
            {
                "start_time": 4.0,
                "end_time": 4.1340909,
                "pitch": 70,
                "velocity": 127,
                "duration": 0.1340909,
                "tempo": 120.0
            },
            {
                "start_time": 4.1340909,
                "end_time": 4.2840909,
                "pitch": 82,
                "velocity": 127,
                "duration": 0.15,
                "tempo": 120.0
            },
            {
                "start_time": 4.2840909,
                "end_time": 4.4181818,
                "pitch": 71,
                "velocity": 127,
                "duration": 0.1340909,
                "tempo": 120.0
            },
            {
                "start_time": 3.5818182,
                "end_time": 4.4181818,
                "pitch": 84,
                "velocity": 127,
                "duration": 0.8363636,
                "tempo": 120.0
            },
            {
                "start_time": 4.4181818,
                "end_time": 4.5522727,
                "pitch": 82,
                "velocity": 127,
                "duration": 0.1340909,
                "tempo": 120.0
            },
            {
                "start_time": 4.5522727,
                "end_time": 4.7022727,
                "pitch": 70,
                "velocity": 127,
                "duration": 0.15,
                "tempo": 120.0
            },
            {
                "start_time": 4.0,
                "end_time": 4.8363636,
                "pitch": 72,
                "velocity": 127,
                "duration": 0.8363636,
                "tempo": 120.0
            },
            {
                "start_time": 4.7022727,
                "end_time": 4.8363636,
                "pitch": 83,
                "velocity": 127,
                "duration": 0.1340909,
                "tempo": 120.0
            },
            {
                "start_time": 4.8363636,
                "end_time": 4.9681818,
                "pitch": 70,
                "velocity": 127,
                "duration": 0.1318182,
                "tempo": 120.0
            },
            {
                "start_time": 4.9681818,
                "end_time": 5.1022727,
                "pitch": 82,
                "velocity": 127,
                "duration": 0.1340909,
                "tempo": 120.0
            },
            {
                "start_time": 5.1022727,
                "end_time": 5.2522727,
                "pitch": 71,
                "velocity": 127,
                "duration": 0.15,
                "tempo": 120.0
            },
            {
                "start_time": 4.4181818,
                "end_time": 5.2522727,
                "pitch": 84,
                "velocity": 127,
                "duration": 0.8340909,
                "tempo": 120.0
            },
            {
                "start_time": 5.2522727,
                "end_time": 5.3863636,
                "pitch": 82,
                "velocity": 127,
                "duration": 0.1340909,
                "tempo": 120.0
            },
            {
                "start_time": 5.3863636,
                "end_time": 5.5204545,
                "pitch": 70,
                "velocity": 127,
                "duration": 0.1340909,
                "tempo": 120.0
            },
            {
                "start_time": 4.8363636,
                "end_time": 5.6545455,
                "pitch": 72,
                "velocity": 127,
                "duration": 0.8181818,
                "tempo": 120.0
            },
            {
                "start_time": 5.5204545,
                "end_time": 5.6545455,
                "pitch": 83,
                "velocity": 127,
                "duration": 0.1340909,
                "tempo": 120.0
            },
            {
                "start_time": 5.6545455,
                "end_time": 5.8045455,
                "pitch": 70,
                "velocity": 127,
                "duration": 0.15,
                "tempo": 120.0
            }
        ],
        "Harpsichord": [
            {
                "start_time": 0.0,
                "end_time": 0.0727273,
                "pitch": 78,
                "velocity": 80,
                "duration": 0.0727273,
                "tempo": 120.0
            },
            {
                "start_time": 0.0727273,
                "end_time": 0.1454545,
                "pitch": 77,
                "velocity": 80,
                "duration": 0.0727273,
                "tempo": 120.0
            },
            {
                "start_time": 0.1454545,
                "end_time": 0.2068182,
                "pitch": 76,
                "velocity": 80,
                "duration": 0.0613636,
                "tempo": 120.0
            },
            {
                "start_time": 0.2068182,
                "end_time": 0.2795455,
                "pitch": 75,
                "velocity": 80,
                "duration": 0.0727273,
                "tempo": 120.0
            },
            {
                "start_time": 0.2795455,
                "end_time": 0.3409091,
                "pitch": 74,
                "velocity": 80,
                "duration": 0.0613636,
                "tempo": 120.0
            },
            {
                "start_time": 0.3409091,
                "end_time": 0.4159091,
                "pitch": 73,
                "velocity": 80,
                "duration": 0.075,
                "tempo": 120.0
            },
            {
                "start_time": 0.4159091,
                "end_time": 0.5,
                "pitch": 72,
                "velocity": 80,
                "duration": 0.0840909,
                "tempo": 120.0
            },
            {
                "start_time": 0.5,
                "end_time": 0.6022727,
                "pitch": 71,
                "velocity": 80,
                "duration": 0.1022727,
                "tempo": 120.0
            },
            {
                "start_time": 0.6022727,
                "end_time": 0.6863636,
                "pitch": 70,
                "velocity": 80,
                "duration": 0.0840909,
                "tempo": 120.0
            },
            {
                "start_time": 0.6863636,
                "end_time": 0.7886364,
                "pitch": 77,
                "velocity": 80,
                "duration": 0.1022727,
                "tempo": 120.0
            },
            {
                "start_time": 0.7886364,
                "end_time": 0.875,
                "pitch": 77,
                "velocity": 80,
                "duration": 0.0863636,
                "tempo": 120.0
            },
            {
                "start_time": 0.875,
                "end_time": 0.9772727,
                "pitch": 76,
                "velocity": 80,
                "duration": 0.1022727,
                "tempo": 120.0
            },
            {
                "start_time": 0.9772727,
                "end_time": 1.0590909,
                "pitch": 75,
                "velocity": 80,
                "duration": 0.0818182,
                "tempo": 120.0
            },
            {
                "start_time": 1.0590909,
                "end_time": 1.1590909,
                "pitch": 74,
                "velocity": 80,
                "duration": 0.1,
                "tempo": 120.0
            },
            {
                "start_time": 1.1613636,
                "end_time": 1.2431818,
                "pitch": 73,
                "velocity": 80,
                "duration": 0.0818182,
                "tempo": 120.0
            },
            {
                "start_time": 1.2431818,
                "end_time": 1.3431818,
                "pitch": 72,
                "velocity": 80,
                "duration": 0.1,
                "tempo": 120.0
            },
            {
                "start_time": 1.3431818,
                "end_time": 1.4272727,
                "pitch": 71,
                "velocity": 80,
                "duration": 0.0840909,
                "tempo": 120.0
            },
            {
                "start_time": 0.6863636,
                "end_time": 1.5272727,
                "pitch": 69,
                "velocity": 80,
                "duration": 0.8409091,
                "tempo": 120.0
            },
            {
                "start_time": 1.4272727,
                "end_time": 1.5272727,
                "pitch": 70,
                "velocity": 80,
                "duration": 0.1,
                "tempo": 120.0
            },
            {
                "start_time": 1.5272727,
                "end_time": 1.6113636,
                "pitch": 77,
                "velocity": 80,
                "duration": 0.0840909,
                "tempo": 120.0
            },
            {
                "start_time": 1.6113636,
                "end_time": 1.7113636,
                "pitch": 77,
                "velocity": 80,
                "duration": 0.1,
                "tempo": 120.0
            },
            {
                "start_time": 1.7113636,
                "end_time": 1.7954545,
                "pitch": 76,
                "velocity": 80,
                "duration": 0.0840909,
                "tempo": 120.0
            },
            {
                "start_time": 1.7954545,
                "end_time": 1.8954545,
                "pitch": 75,
                "velocity": 80,
                "duration": 0.1,
                "tempo": 120.0
            },
            {
                "start_time": 1.8954545,
                "end_time": 1.9795455,
                "pitch": 74,
                "velocity": 80,
                "duration": 0.0840909,
                "tempo": 120.0
            },
            {
                "start_time": 1.9795455,
                "end_time": 2.0795455,
                "pitch": 73,
                "velocity": 80,
                "duration": 0.1,
                "tempo": 120.0
            },
            {
                "start_time": 2.0795455,
                "end_time": 2.1636364,
                "pitch": 72,
                "velocity": 80,
                "duration": 0.0840909,
                "tempo": 120.0
            },
            {
                "start_time": 2.1636364,
                "end_time": 2.2659091,
                "pitch": 71,
                "velocity": 80,
                "duration": 0.1022727,
                "tempo": 120.0
            },
            {
                "start_time": 1.5272727,
                "end_time": 2.3522727,
                "pitch": 69,
                "velocity": 80,
                "duration": 0.825,
                "tempo": 120.0
            },
            {
                "start_time": 2.2659091,
                "end_time": 2.3522727,
                "pitch": 70,
                "velocity": 80,
                "duration": 0.0863636,
                "tempo": 120.0
            },
            {
                "start_time": 2.3522727,
                "end_time": 2.4522727,
                "pitch": 77,
                "velocity": 80,
                "duration": 0.1,
                "tempo": 120.0
            },
            {
                "start_time": 2.4522727,
                "end_time": 2.5386364,
                "pitch": 77,
                "velocity": 80,
                "duration": 0.0863636,
                "tempo": 120.0
            },
            {
                "start_time": 2.5386364,
                "end_time": 2.6409091,
                "pitch": 76,
                "velocity": 80,
                "duration": 0.1022727,
                "tempo": 120.0
            },
            {
                "start_time": 2.6409091,
                "end_time": 2.7227273,
                "pitch": 75,
                "velocity": 80,
                "duration": 0.0818182,
                "tempo": 120.0
            },
            {
                "start_time": 2.7227273,
                "end_time": 2.8204545,
                "pitch": 74,
                "velocity": 80,
                "duration": 0.0977273,
                "tempo": 120.0
            },
            {
                "start_time": 2.8204545,
                "end_time": 2.9022727,
                "pitch": 73,
                "velocity": 80,
                "duration": 0.0818182,
                "tempo": 120.0
            },
            {
                "start_time": 2.9022727,
                "end_time": 3.0,
                "pitch": 72,
                "velocity": 80,
                "duration": 0.0977273,
                "tempo": 120.0
            },
            {
                "start_time": 3.0,
                "end_time": 3.0840909,
                "pitch": 71,
                "velocity": 80,
                "duration": 0.0840909,
                "tempo": 120.0
            },
            {
                "start_time": 2.3522727,
                "end_time": 3.1818182,
                "pitch": 69,
                "velocity": 80,
                "duration": 0.8295455,
                "tempo": 120.0
            },
            {
                "start_time": 3.0840909,
                "end_time": 3.1818182,
                "pitch": 70,
                "velocity": 80,
                "duration": 0.0977273,
                "tempo": 120.0
            },
            {
                "start_time": 3.1818182,
                "end_time": 3.2659091,
                "pitch": 77,
                "velocity": 80,
                "duration": 0.0840909,
                "tempo": 120.0
            },
            {
                "start_time": 3.2659091,
                "end_time": 3.3659091,
                "pitch": 77,
                "velocity": 80,
                "duration": 0.1,
                "tempo": 120.0
            },
            {
                "start_time": 3.3659091,
                "end_time": 3.45,
                "pitch": 76,
                "velocity": 80,
                "duration": 0.0840909,
                "tempo": 120.0
            },
            {
                "start_time": 3.45,
                "end_time": 3.55,
                "pitch": 75,
                "velocity": 80,
                "duration": 0.1,
                "tempo": 120.0
            },
            {
                "start_time": 3.55,
                "end_time": 3.6318182,
                "pitch": 74,
                "velocity": 80,
                "duration": 0.0818182,
                "tempo": 120.0
            },
            {
                "start_time": 3.6318182,
                "end_time": 3.7340909,
                "pitch": 73,
                "velocity": 80,
                "duration": 0.1022727,
                "tempo": 120.0
            },
            {
                "start_time": 3.7340909,
                "end_time": 3.8159091,
                "pitch": 72,
                "velocity": 80,
                "duration": 0.0818182,
                "tempo": 120.0
            },
            {
                "start_time": 3.8159091,
                "end_time": 3.9159091,
                "pitch": 71,
                "velocity": 80,
                "duration": 0.1,
                "tempo": 120.0
            },
            {
                "start_time": 3.1818182,
                "end_time": 4.0,
                "pitch": 69,
                "velocity": 80,
                "duration": 0.8181818,
                "tempo": 120.0
            },
            {
                "start_time": 3.9159091,
                "end_time": 4.0,
                "pitch": 70,
                "velocity": 80,
                "duration": 0.0840909,
                "tempo": 120.0
            },
            {
                "start_time": 4.0,
                "end_time": 4.1,
                "pitch": 77,
                "velocity": 80,
                "duration": 0.1,
                "tempo": 120.0
            },
            {
                "start_time": 4.1,
                "end_time": 4.1840909,
                "pitch": 77,
                "velocity": 80,
                "duration": 0.0840909,
                "tempo": 120.0
            },
            {
                "start_time": 4.1840909,
                "end_time": 4.2840909,
                "pitch": 76,
                "velocity": 80,
                "duration": 0.1,
                "tempo": 120.0
            },
            {
                "start_time": 4.2840909,
                "end_time": 4.3681818,
                "pitch": 75,
                "velocity": 80,
                "duration": 0.0840909,
                "tempo": 120.0
            },
            {
                "start_time": 4.3681818,
                "end_time": 4.4681818,
                "pitch": 74,
                "velocity": 80,
                "duration": 0.1,
                "tempo": 120.0
            },
            {
                "start_time": 4.4681818,
                "end_time": 4.5522727,
                "pitch": 73,
                "velocity": 80,
                "duration": 0.0840909,
                "tempo": 120.0
            },
            {
                "start_time": 4.5522727,
                "end_time": 4.6522727,
                "pitch": 72,
                "velocity": 80,
                "duration": 0.1,
                "tempo": 120.0
            },
            {
                "start_time": 4.6522727,
                "end_time": 4.7363636,
                "pitch": 71,
                "velocity": 80,
                "duration": 0.0840909,
                "tempo": 120.0
            },
            {
                "start_time": 4.0,
                "end_time": 4.8363636,
                "pitch": 69,
                "velocity": 80,
                "duration": 0.8363636,
                "tempo": 120.0
            },
            {
                "start_time": 4.7363636,
                "end_time": 4.8363636,
                "pitch": 70,
                "velocity": 80,
                "duration": 0.1,
                "tempo": 120.0
            },
            {
                "start_time": 4.8363636,
                "end_time": 4.9181818,
                "pitch": 77,
                "velocity": 80,
                "duration": 0.0818182,
                "tempo": 120.0
            },
            {
                "start_time": 4.9181818,
                "end_time": 5.0204545,
                "pitch": 77,
                "velocity": 80,
                "duration": 0.1022727,
                "tempo": 120.0
            },
            {
                "start_time": 5.0204545,
                "end_time": 5.1022727,
                "pitch": 76,
                "velocity": 80,
                "duration": 0.0818182,
                "tempo": 120.0
            },
            {
                "start_time": 5.1022727,
                "end_time": 5.2022727,
                "pitch": 75,
                "velocity": 80,
                "duration": 0.1,
                "tempo": 120.0
            },
            {
                "start_time": 5.2022727,
                "end_time": 5.2863636,
                "pitch": 74,
                "velocity": 80,
                "duration": 0.0840909,
                "tempo": 120.0
            },
            {
                "start_time": 5.2863636,
                "end_time": 5.3863636,
                "pitch": 73,
                "velocity": 80,
                "duration": 0.1,
                "tempo": 120.0
            },
            {
                "start_time": 5.3863636,
                "end_time": 5.4704545,
                "pitch": 72,
                "velocity": 80,
                "duration": 0.0840909,
                "tempo": 120.0
            },
            {
                "start_time": 5.4704545,
                "end_time": 5.5704545,
                "pitch": 71,
                "velocity": 80,
                "duration": 0.1,
                "tempo": 120.0
            },
            {
                "start_time": 4.8363636,
                "end_time": 5.6545455,
                "pitch": 69,
                "velocity": 80,
                "duration": 0.8181818,
                "tempo": 120.0
            },
            {
                "start_time": 5.5704545,
                "end_time": 5.6545455,
                "pitch": 70,
                "velocity": 80,
                "duration": 0.0840909,
                "tempo": 120.0
            },
            {
                "start_time": 5.6545455,
                "end_time": 5.7545455,
                "pitch": 77,
                "velocity": 80,
                "duration": 0.1,
                "tempo": 120.0
            },
            {
                "start_time": 5.7545455,
                "end_time": 5.8045455,
                "pitch": 77,
                "velocity": 80,
                "duration": 0.05,
                "tempo": 120.0
            }
        ]
    }
}