{
    "mood": "sad",
    "instruments": {
        "Electric Piano 1": [
            {
                "start_time": 0.4659091,
                "end_time": 0.9318182,
                "pitch": 55,
                "velocity": 80,
                "duration": 0.4659091,
                "tempo": 120.0
            },
            {
                "start_time": 0.9340909,
                "end_time": 1.4,
                "pitch": 57,
                "velocity": 80,
                "duration": 0.4659091,
                "tempo": 120.0
            },
            {
                "start_time": 1.4022727,
                "end_time": 2.8068182,
                "pitch": 58,
                "velocity": 80,
                "duration": 1.4045455,
                "tempo": 120.0
            },
            {
                "start_time": 2.8090909,
                "end_time": 3.7431818,
                "pitch": 55,
                "velocity": 80,
                "duration": 0.9340909,
                "tempo": 120.0
            },
            {
                "start_time": 4.2340909,
                "end_time": 4.7227273,
                "pitch": 53,
                "velocity": 80,
                "duration": 0.4886364,
                "tempo": 120.0
            },
            {
                "start_time": 4.725,
                "end_time": 5.2136364,
                "pitch": 55,
                "velocity": 80,
                "duration": 0.4886364,
                "tempo": 120.0
            },
            {
                "start_time": 5.2181818,
                "end_time": 7.5840909,
                "pitch": 57,
                "velocity": 80,
                "duration": 2.3659091,
                "tempo": 120.0
            },
            {
                "start_time": 8.0659091,
                "end_time": 8.5477273,
                "pitch": 58,
                "velocity": 80,
                "duration": 0.4818182,
                "tempo": 120.0
            },
            {
                "start_time": 8.55,
                "end_time": 9.0318182,
                "pitch": 57,
                "velocity": 80,
                "duration": 0.4818182,
                "tempo": 120.0
            },
            {
                "start_time": 9.0340909,
                "end_time": 9.9863636,
                "pitch": 55,
                "velocity": 80,
                "duration": 0.9522727,
                "tempo": 120.0
            },
            {
                "start_time": 9.9863636,
                "end_time": 10.0545455,
                "pitch": 55,
                "velocity": 80,
                "duration": 0.0681818,
                "tempo": 120.0
            },
            {
                "start_time": 10.0545455,
                "end_time": 10.3227273,
                "pitch": 55,
                "velocity": 80,
                "duration": 0.2681818,
                "tempo": 120.0
            },
            {
                "start_time": 9.9863636,
                "end_time": 10.3227273,
                "pitch": 67,
                "velocity": 80,
                "duration": 0.3363636,
                "tempo": 120.0
            },
            {
                "start_time": 10.0545455,
                "end_time": 10.3886364,
                "pitch": 43,
                "velocity": 80,
                "duration": 0.3340909,
                "tempo": 120.0
            },
            {
                "start_time": 10.3227273,
                "end_time": 10.3886364,
                "pitch": 55,
                "velocity": 80,
                "duration": 0.0659091,
                "tempo": 120.0
            },
            {
                "start_time": 10.3886364,
                "end_time": 10.4545455,
                "pitch": 55,
                "velocity": 80,
                "duration": 0.0659091,
                "tempo": 120.0
            },
            {
                "start_time": 10.4568182,
                "end_time": 11.3909091,
                "pitch": 53,
                "velocity": 80,
                "duration": 0.9340909,
                "tempo": 120.0
            },
            {
                "start_time": 11.3954545,
                "end_time": 12.3318182,
                "pitch": 55,
                "velocity": 80,
                "duration": 0.9363636,
                "tempo": 120.0
            },
            {
                "start_time": 10.3227273,
                "end_time": 12.3318182,
                "pitch": 67,
                "velocity": 80,
                "duration": 2.0090909,
                "tempo": 120.0
            },
            {
                "start_time": 10.3886364,
                "end_time": 12.3977273,
                "pitch": 43,
                "velocity": 80,
                "duration": 2.0090909,
                "tempo": 120.0
            },
            {
                "start_time": 12.3318182,
                "end_time": 12.3977273,
                "pitch": 55,
                "velocity": 80,
                "duration": 0.0659091,
                "tempo": 120.0
            },
            {
                "start_time": 12.3977273,
                "end_time": 12.6659091,
                "pitch": 55,
                "velocity": 80,
                "duration": 0.2681818,
                "tempo": 120.0
            },
            {
                "start_time": 12.3318182,
                "end_time": 12.6659091,
                "pitch": 67,
                "velocity": 80,
                "duration": 0.3340909,
                "tempo": 120.0
            },
            {
                "start_time": 12.3977273,
                "end_time": 12.7318182,
                "pitch": 43,
                "velocity": 80,
                "duration": 0.3340909,
                "tempo": 120.0
            },
            {
                "start_time": 12.6659091,
                "end_time": 12.7318182,
                "pitch": 55,
                "velocity": 80,
                "duration": 0.0659091,
                "tempo": 120.0
            },
            {
                "start_time": 12.7318182,
                "end_time": 13.0,
                "pitch": 55,
                "velocity": 80,
                "duration": 0.2681818,
                "tempo": 120.0
            },
            {
                "start_time": 12.6659091,
                "end_time": 13.0,
                "pitch": 67,
                "velocity": 80,
                "duration": 0.3340909,
                "tempo": 120.0
            },
            {
                "start_time": 12.7318182,
                "end_time": 13.0681818,
                "pitch": 43,
                "velocity": 80,
                "duration": 0.3363636,
                "tempo": 120.0
            },
            {
                "start_time": 13.0,
                "end_time": 13.0681818,
                "pitch": 55,
                "velocity": 80,
                "duration": 0.0681818,
                "tempo": 120.0
            },
            {
                "start_time": 13.0681818,
                "end_time": 13.3363636,
                "pitch": 55,
                "velocity": 80,
                "duration": 0.2681818,
                "tempo": 120.0
            },
            {
                "start_time": 13.0,
                "end_time": 13.3363636,
                "pitch": 67,
                "velocity": 80,
                "duration": 0.3363636,
                "tempo": 120.0
            },
            {
                "start_time": 13.0681818,
                "end_time": 13.4068182,
                "pitch": 43,
                "velocity": 80,
                "duration": 0.3386364,
                "tempo": 120.0
            },
            {
                "start_time": 13.3363636,
                "end_time": 13.4068182,
                "pitch": 55,
                "velocity": 80,
                "duration": 0.0704545,
                "tempo": 120.0
            },
            {
                "start_time": 13.4068182,
                "end_time": 13.6818182,
                "pitch": 55,
                "velocity": 80,
                "duration": 0.275,
                "tempo": 120.0
            },
            {
                "start_time": 13.3363636,
                "end_time": 13.6818182,
                "pitch": 67,
                "velocity": 80,
                "duration": 0.3454545,
                "tempo": 120.0
            },
            {
                "start_time": 13.4068182,
                "end_time": 13.7522727,
                "pitch": 43,
                "velocity": 80,
                "duration": 0.3454545,
                "tempo": 120.0
            },
            {
                "start_time": 13.6818182,
                "end_time": 13.7522727,
                "pitch": 55,
                "velocity": 80,
                "duration": 0.0704545,
                "tempo": 120.0
            },
            {
                "start_time": 13.7522727,
                "end_time": 14.0272727,
                "pitch": 55,
                "velocity": 80,
                "duration": 0.275,
                "tempo": 120.0
            },
            {
                "start_time": 13.6818182,
                "end_time": 14.0272727,
                "pitch": 67,
                "velocity": 80,
                "duration": 0.3454545,
                "tempo": 120.0
            },
            {
                "start_time": 14.0272727,
                "end_time": 14.0954545,
                "pitch": 55,
                "velocity": 80,
                "duration": 0.0681818,
                "tempo": 120.0
            },
            {
                "start_time": 13.7522727,
                "end_time": 14.0977273,
                "pitch": 43,
                "velocity": 80,
                "duration": 0.3454545,
                "tempo": 120.0
            },
            {
                "start_time": 14.0954545,
                "end_time": 14.0977273,
                "pitch": 43,
                "velocity": 80,
                "duration": 0.0022727,
                "tempo": 120.0
            },
            {
                "start_time": 14.0977273,
                "end_time": 14.3727273,
                "pitch": 55,
                "velocity": 80,
                "duration": 0.275,
                "tempo": 120.0
            },
            {
                "start_time": 14.0272727,
                "end_time": 14.3727273,
                "pitch": 67,
                "velocity": 80,
                "duration": 0.3454545,
                "tempo": 120.0
            },
            {
                "start_time": 14.3727273,
                "end_time": 14.4409091,
                "pitch": 55,
                "velocity": 80,
                "duration": 0.0681818,
                "tempo": 120.0
            },
            {
                "start_time": 14.4409091,
                "end_time": 14.4431818,
                "pitch": 43,
                "velocity": 80,
                "duration": 0.0022727,
                "tempo": 120.0
            },
            {
                "start_time": 14.4431818,
                "end_time": 14.7159091,
                "pitch": 55,
                "velocity": 80,
                "duration": 0.2727273,
                "tempo": 120.0
            }
        ]
    }
}