{
    "mood": "sad",
    "instruments": {
        "Electric Piano 1": [
            {
                "start_time": 0.2659091,
                "end_time": 0.3795455,
                "pitch": 60,
                "velocity": 64,
                "duration": 0.1136364,
                "tempo": 120.0
            },
            {
                "start_time": 0.3795455,
                "end_time": 0.4977273,
                "pitch": 60,
                "velocity": 51,
                "duration": 0.1181818,
                "tempo": 120.0
            },
            {
                "start_time": 0.4977273,
                "end_time": 0.6136364,
                "pitch": 60,
                "velocity": 40,
                "duration": 0.1159091,
                "tempo": 120.0
            },
            {
                "start_time": 0.6136364,
                "end_time": 0.7318182,
                "pitch": 60,
                "velocity": 32,
                "duration": 0.1181818,
                "tempo": 120.0
            },
            {
                "start_time": 0.7318182,
                "end_time": 0.8522727,
                "pitch": 60,
                "velocity": 25,
                "duration": 0.1204545,
                "tempo": 120.0
            },
            {
                "start_time": 0.8522727,
                "end_time": 0.9704545,
                "pitch": 60,
                "velocity": 20,
                "duration": 0.1181818,
                "tempo": 120.0
            },
            {
                "start_time": 0.9704545,
                "end_time": 1.0909091,
                "pitch": 60,
                "velocity": 16,
                "duration": 0.1204545,
                "tempo": 120.0
            },
            {
                "start_time": 1.0909091,
                "end_time": 1.2113636,
                "pitch": 60,
                "velocity": 13,
                "duration": 0.1204545,
                "tempo": 120.0
            },
            {
                "start_time": 1.2113636,
                "end_time": 1.4545455,
                "pitch": 70,
                "velocity": 64,
                "duration": 0.2431818,
                "tempo": 120.0
            },
            {
                "start_time": 1.4545455,
                "end_time": 1.6977273,
                "pitch": 70,
                "velocity": 51,
                "duration": 0.2431818,
                "tempo": 120.0
            },
            {
                "start_time": 1.7,
                "end_time": 1.9159091,
                "pitch": 70,
                "velocity": 40,
                "duration": 0.2159091,
                "tempo": 120.0
            },
            {
                "start_time": 1.9159091,
                "end_time": 2.15,
                "pitch": 70,
                "velocity": 32,
                "duration": 0.2340909,
                "tempo": 120.0
            },
            {
                "start_time": 2.15,
                "end_time": 2.3840909,
                "pitch": 70,
                "velocity": 25,
                "duration": 0.2340909,
                "tempo": 120.0
            },
            {
                "start_time": 2.3863636,
                "end_time": 2.6204545,
                "pitch": 70,
                "velocity": 20,
                "duration": 0.2340909,
                "tempo": 120.0
            },
            {
                "start_time": 2.6204545,
                "end_time": 2.8545455,
                "pitch": 70,
                "velocity": 16,
                "duration": 0.2340909,
                "tempo": 120.0
            },
            {
                "start_time": 2.8545455,
                "end_time": 3.0886364,
                "pitch": 70,
                "velocity": 13,
                "duration": 0.2340909,
                "tempo": 120.0
            },
            {
                "start_time": 3.0886364,
                "end_time": 3.3113636,
                "pitch": 70,
                "velocity": 10,
                "duration": 0.2227273,
                "tempo": 120.0
            },
            {
                "start_time": 3.3113636,
                "end_time": 3.55,
                "pitch": 70,
                "velocity": 8,
                "duration": 0.2386364,
                "tempo": 120.0
            },
            {
                "start_time": 3.55,
                "end_time": 3.7795455,
                "pitch": 70,
                "velocity": 6,
                "duration": 0.2295455,
                "tempo": 120.0
            },
            {
                "start_time": 4.0113636,
                "end_time": 4.1272727,
                "pitch": 60,
                "velocity": 64,
                "duration": 0.1159091,
                "tempo": 120.0
            },
            {
                "start_time": 4.1295455,
                "end_time": 4.2477273,
                "pitch": 60,
                "velocity": 51,
                "duration": 0.1181818,
                "tempo": 120.0
            },
            {
                "start_time": 4.2477273,
                "end_time": 4.3681818,
                "pitch": 60,
                "velocity": 40,
                "duration": 0.1204545,
                "tempo": 120.0
            },
            {
                "start_time": 4.3681818,
                "end_time": 4.4886364,
                "pitch": 60,
                "velocity": 32,
                "duration": 0.1204545,
                "tempo": 120.0
            },
            {
                "start_time": 4.4886364,
                "end_time": 4.6045455,
                "pitch": 60,
                "velocity": 25,
                "duration": 0.1159091,
                "tempo": 120.0
            },
            {
                "start_time": 4.6068182,
                "end_time": 4.7227273,
                "pitch": 60,
                "velocity": 20,
                "duration": 0.1159091,
                "tempo": 120.0
            },
            {
                "start_time": 4.7227273,
                "end_time": 4.8227273,
                "pitch": 60,
                "velocity": 16,
                "duration": 0.1,
                "tempo": 120.0
            },
            {
                "start_time": 4.8227273,
                "end_time": 4.9409091,
                "pitch": 60,
                "velocity": 13,
                "duration": 0.1181818,
                "tempo": 120.0
            },
            {
                "start_time": 4.9409091,
                "end_time": 5.175,
                "pitch": 70,
                "velocity": 64,
                "duration": 0.2340909,
                "tempo": 120.0
            },
            {
                "start_time": 5.175,
                "end_time": 5.4090909,
                "pitch": 70,
                "velocity": 51,
                "duration": 0.2340909,
                "tempo": 120.0
            },
            {
                "start_time": 5.4090909,
                "end_time": 5.6431818,
                "pitch": 70,
                "velocity": 40,
                "duration": 0.2340909,
                "tempo": 120.0
            },
            {
                "start_time": 5.6431818,
                "end_time": 5.8772727,
                "pitch": 70,
                "velocity": 32,
                "duration": 0.2340909,
                "tempo": 120.0
            },
            {
                "start_time": 5.8772727,
                "end_time": 6.1181818,
                "pitch": 70,
                "velocity": 25,
                "duration": 0.2409091,
                "tempo": 120.0
            },
            {
                "start_time": 6.1181818,
                "end_time": 6.3409091,
                "pitch": 70,
                "velocity": 20,
                "duration": 0.2227273,
                "tempo": 120.0
            },
            {
                "start_time": 6.3409091,
                "end_time": 6.5704545,
                "pitch": 70,
                "velocity": 16,
                "duration": 0.2295455,
                "tempo": 120.0
            },
            {
                "start_time": 6.5704545,
                "end_time": 6.7977273,
                "pitch": 70,
                "velocity": 13,
                "duration": 0.2272727,
                "tempo": 120.0
            },
            {
                "start_time": 6.8,
                "end_time": 7.0386364,
                "pitch": 70,
                "velocity": 10,
                "duration": 0.2386364,
                "tempo": 120.0
            },
            {
                "start_time": 7.0386364,
                "end_time": 7.2772727,
                "pitch": 70,
                "velocity": 8,
                "duration": 0.2386364,
                "tempo": 120.0
            },
            {
                "start_time": 7.2795455,
                "end_time": 7.5136364,
                "pitch": 70,
                "velocity": 6,
                "duration": 0.2340909,
                "tempo": 120.0
            },
            {
                "start_time": 7.7477273,
                "end_time": 7.85,
                "pitch": 60,
                "velocity": 64,
                "duration": 0.1022727,
                "tempo": 120.0
            },
            {
                "start_time": 7.85,
                "end_time": 7.9704545,
                "pitch": 60,
                "velocity": 51,
                "duration": 0.1204545,
                "tempo": 120.0
            },
            {
                "start_time": 7.9704545,
                "end_time": 8.0886364,
                "pitch": 60,
                "velocity": 40,
                "duration": 0.1181818,
                "tempo": 120.0
            },
            {
                "start_time": 8.0909091,
                "end_time": 8.2090909,
                "pitch": 60,
                "velocity": 32,
                "duration": 0.1181818,
                "tempo": 120.0
            },
            {
                "start_time": 8.2113636,
                "end_time": 8.3272727,
                "pitch": 60,
                "velocity": 25,
                "duration": 0.1159091,
                "tempo": 120.0
            },
            {
                "start_time": 8.3272727,
                "end_time": 8.4431818,
                "pitch": 60,
                "velocity": 20,
                "duration": 0.1159091,
                "tempo": 120.0
            },
            {
                "start_time": 8.4454545,
                "end_time": 8.5613636,
                "pitch": 60,
                "velocity": 16,
                "duration": 0.1159091,
                "tempo": 120.0
            },
            {
                "start_time": 8.5613636,
                "end_time": 8.6795455,
                "pitch": 60,
                "velocity": 13,
                "duration": 0.1181818,
                "tempo": 120.0
            },
            {
                "start_time": 8.6795455,
                "end_time": 8.9136364,
                "pitch": 70,
                "velocity": 64,
                "duration": 0.2340909,
                "tempo": 120.0
            },
            {
                "start_time": 8.9136364,
                "end_time": 9.1477273,
                "pitch": 70,
                "velocity": 51,
                "duration": 0.2340909,
                "tempo": 120.0
            },
            {
                "start_time": 9.1477273,
                "end_time": 9.3704545,
                "pitch": 70,
                "velocity": 40,
                "duration": 0.2227273,
                "tempo": 120.0
            },
            {
                "start_time": 9.3704545,
                "end_time": 9.6090909,
                "pitch": 70,
                "velocity": 32,
                "duration": 0.2386364,
                "tempo": 120.0
            },
            {
                "start_time": 9.6113636,
                "end_time": 9.8386364,
                "pitch": 70,
                "velocity": 25,
                "duration": 0.2272727,
                "tempo": 120.0
            },
            {
                "start_time": 9.8386364,
                "end_time": 10.0681818,
                "pitch": 70,
                "velocity": 20,
                "duration": 0.2295455,
                "tempo": 120.0
            },
            {
                "start_time": 10.0681818,
                "end_time": 10.3022727,
                "pitch": 70,
                "velocity": 16,
                "duration": 0.2340909,
                "tempo": 120.0
            },
            {
                "start_time": 10.3022727,
                "end_time": 10.5363636,
                "pitch": 70,
                "velocity": 13,
                "duration": 0.2340909,
                "tempo": 120.0
            },
            {
                "start_time": 10.5386364,
                "end_time": 10.7704545,
                "pitch": 70,
                "velocity": 10,
                "duration": 0.2318182,
                "tempo": 120.0
            },
            {
                "start_time": 10.7727273,
                "end_time": 10.9886364,
                "pitch": 70,
                "velocity": 8,
                "duration": 0.2159091,
                "tempo": 120.0
            },
            {
                "start_time": 10.9886364,
                "end_time": 11.2295455,
                "pitch": 70,
                "velocity": 6,
                "duration": 0.2409091,
                "tempo": 120.0
            },
            {
                "start_time": 11.4704545,
                "end_time": 11.5863636,
                "pitch": 60,
                "velocity": 64,
                "duration": 0.1159091,
                "tempo": 120.0
            },
            {
                "start_time": 11.5863636,
                "end_time": 11.7022727,
                "pitch": 60,
                "velocity": 51,
                "duration": 0.1159091,
                "tempo": 120.0
            },
            {
                "start_time": 11.7022727,
                "end_time": 11.8204545,
                "pitch": 60,
                "velocity": 40,
                "duration": 0.1181818,
                "tempo": 120.0
            },
            {
                "start_time": 11.8204545,
                "end_time": 11.9386364,
                "pitch": 60,
                "velocity": 32,
                "duration": 0.1181818,
                "tempo": 120.0
            },
            {
                "start_time": 11.9386364,
                "end_time": 12.0568182,
                "pitch": 60,
                "velocity": 25,
                "duration": 0.1181818,
                "tempo": 120.0
            },
            {
                "start_time": 12.0568182,
                "end_time": 12.1772727,
                "pitch": 60,
                "velocity": 20,
                "duration": 0.1204545,
                "tempo": 120.0
            },
            {
                "start_time": 12.1772727,
                "end_time": 12.2977273,
                "pitch": 60,
                "velocity": 16,
                "duration": 0.1204545,
                "tempo": 120.0
            },
            {
                "start_time": 12.2977273,
                "end_time": 12.4,
                "pitch": 60,
                "velocity": 13,
                "duration": 0.1022727,
                "tempo": 120.0
            },
            {
                "start_time": 12.4,
                "end_time": 12.6295455,
                "pitch": 70,
                "velocity": 64,
                "duration": 0.2295455,
                "tempo": 120.0
            },
            {
                "start_time": 12.6295455,
                "end_time": 12.8590909,
                "pitch": 70,
                "velocity": 51,
                "duration": 0.2295455,
                "tempo": 120.0
            },
            {
                "start_time": 12.8590909,
                "end_time": 13.0977273,
                "pitch": 70,
                "velocity": 40,
                "duration": 0.2386364,
                "tempo": 120.0
            },
            {
                "start_time": 13.0977273,
                "end_time": 13.3386364,
                "pitch": 70,
                "velocity": 32,
                "duration": 0.2409091,
                "tempo": 120.0
            },
            {
                "start_time": 13.3386364,
                "end_time": 13.5727273,
                "pitch": 70,
                "velocity": 25,
                "duration": 0.2340909,
                "tempo": 120.0
            },
            {
                "start_time": 13.5727273,
                "end_time": 13.8068182,
                "pitch": 70,
                "velocity": 20,
                "duration": 0.2340909,
                "tempo": 120.0
            },
            {
                "start_time": 13.8068182,
                "end_time": 14.0295455,
                "pitch": 70,
                "velocity": 16,
                "duration": 0.2227273,
                "tempo": 120.0
            },
            {
                "start_time": 14.0295455,
                "end_time": 14.2704545,
                "pitch": 70,
                "velocity": 13,
                "duration": 0.2409091,
                "tempo": 120.0
            },
            {
                "start_time": 14.2704545,
                "end_time": 14.5045455,
                "pitch": 70,
                "velocity": 10,
                "duration": 0.2340909,
                "tempo": 120.0
            },
            {
                "start_time": 14.5045455,
                "end_time": 14.7386364,
                "pitch": 70,
                "velocity": 8,
                "duration": 0.2340909,
                "tempo": 120.0
            },
            {
                "start_time": 14.7386364,
                "end_time": 14.9727273,
                "pitch": 70,
                "velocity": 6,
                "duration": 0.2340909,
                "tempo": 120.0
            },
            {
                "start_time": 15.2090909,
                "end_time": 15.325,
                "pitch": 60,
                "velocity": 64,
                "duration": 0.1159091,
                "tempo": 120.0
            },
            {
                "start_time": 15.325,
                "end_time": 15.425,
                "pitch": 60,
                "velocity": 51,
                "duration": 0.1,
                "tempo": 120.0
            },
            {
                "start_time": 15.425,
                "end_time": 15.5409091,
                "pitch": 60,
                "velocity": 40,
                "duration": 0.1159091,
                "tempo": 120.0
            },
            {
                "start_time": 15.5409091,
                "end_time": 15.6590909,
                "pitch": 60,
                "velocity": 32,
                "duration": 0.1181818,
                "tempo": 120.0
            },
            {
                "start_time": 15.6590909,
                "end_time": 15.775,
                "pitch": 60,
                "velocity": 25,
                "duration": 0.1159091,
                "tempo": 120.0
            },
            {
                "start_time": 15.7772727,
                "end_time": 15.8931818,
                "pitch": 60,
                "velocity": 20,
                "duration": 0.1159091,
                "tempo": 120.0
            },
            {
                "start_time": 15.8931818,
                "end_time": 16.0113636,
                "pitch": 60,
                "velocity": 16,
                "duration": 0.1181818,
                "tempo": 120.0
            },
            {
                "start_time": 16.0113636,
                "end_time": 16.1272727,
                "pitch": 60,
                "velocity": 13,
                "duration": 0.1159091,
                "tempo": 120.0
            },
            {
                "start_time": 16.1295455,
                "end_time": 16.3681818,
                "pitch": 70,
                "velocity": 64,
                "duration": 0.2386364,
                "tempo": 120.0
            },
            {
                "start_time": 16.3681818,
                "end_time": 16.6068182,
                "pitch": 70,
                "velocity": 51,
                "duration": 0.2386364,
                "tempo": 120.0
            },
            {
                "start_time": 16.6068182,
                "end_time": 16.8409091,
                "pitch": 70,
                "velocity": 40,
                "duration": 0.2340909,
                "tempo": 120.0
            },
            {
                "start_time": 16.8431818,
                "end_time": 17.0590909,
                "pitch": 70,
                "velocity": 32,
                "duration": 0.2159091,
                "tempo": 120.0
            },
            {
                "start_time": 17.0590909,
                "end_time": 17.2886364,
                "pitch": 70,
                "velocity": 25,
                "duration": 0.2295455,
                "tempo": 120.0
            },
            {
                "start_time": 17.2886364,
                "end_time": 17.5181818,
                "pitch": 70,
                "velocity": 20,
                "duration": 0.2295455,
                "tempo": 120.0
            },
            {
                "start_time": 17.5181818,
                "end_time": 17.7568182,
                "pitch": 70,
                "velocity": 16,
                "duration": 0.2386364,
                "tempo": 120.0
            },
            {
                "start_time": 17.7568182,
                "end_time": 17.9977273,
                "pitch": 70,
                "velocity": 13,
                "duration": 0.2409091,
                "tempo": 120.0
            },
            {
                "start_time": 17.9977273,
                "end_time": 18.2363636,
                "pitch": 70,
                "velocity": 10,
                "duration": 0.2386364,
                "tempo": 120.0
            },
            {
                "start_time": 18.2386364,
                "end_time": 18.4590909,
                "pitch": 70,
                "velocity": 8,
                "duration": 0.2204545,
                "tempo": 120.0
            },
            {
                "start_time": 18.4613636,
                "end_time": 18.6886364,
                "pitch": 70,
                "velocity": 6,
                "duration": 0.2272727,
                "tempo": 120.0
            },
            {
                "start_time": 18.9204545,
                "end_time": 19.0363636,
                "pitch": 60,
                "velocity": 64,
                "duration": 0.1159091,
                "tempo": 120.0
            },
            {
                "start_time": 19.0363636,
                "end_time": 19.1522727,
                "pitch": 60,
                "velocity": 51,
                "duration": 0.1159091,
                "tempo": 120.0
            },
            {
                "start_time": 19.1522727,
                "end_time": 19.2704545,
                "pitch": 60,
                "velocity": 40,
                "duration": 0.1181818,
                "tempo": 120.0
            },
            {
                "start_time": 19.2704545,
                "end_time": 19.3863636,
                "pitch": 60,
                "velocity": 32,
                "duration": 0.1159091,
                "tempo": 120.0
            },
            {
                "start_time": 19.3863636,
                "end_time": 19.5068182,
                "pitch": 60,
                "velocity": 25,
                "duration": 0.1204545,
                "tempo": 120.0
            },
            {
                "start_time": 19.5068182,
                "end_time": 19.6272727,
                "pitch": 60,
                "velocity": 20,
                "duration": 0.1204545,
                "tempo": 120.0
            },
            {
                "start_time": 19.6272727,
                "end_time": 19.7477273,
                "pitch": 60,
                "velocity": 16,
                "duration": 0.1204545,
                "tempo": 120.0
            },
            {
                "start_time": 19.7477273,
                "end_time": 19.8681818,
                "pitch": 60,
                "velocity": 13,
                "duration": 0.1204545,
                "tempo": 120.0
            },
            {
                "start_time": 19.8681818,
                "end_time": 20.0909091,
                "pitch": 70,
                "velocity": 64,
                "duration": 0.2227273,
                "tempo": 120.0
            },
            {
                "start_time": 20.0909091,
                "end_time": 20.3295455,
                "pitch": 70,
                "velocity": 51,
                "duration": 0.2386364,
                "tempo": 120.0
            },
            {
                "start_time": 20.3295455,
                "end_time": 20.5636364,
                "pitch": 70,
                "velocity": 40,
                "duration": 0.2340909,
                "tempo": 120.0
            },
            {
                "start_time": 20.5659091,
                "end_time": 20.7977273,
                "pitch": 70,
                "velocity": 32,
                "duration": 0.2318182,
                "tempo": 120.0
            },
            {
                "start_time": 20.8,
                "end_time": 21.0340909,
                "pitch": 70,
                "velocity": 25,
                "duration": 0.2340909,
                "tempo": 120.0
            },
            {
                "start_time": 21.0340909,
                "end_time": 21.2681818,
                "pitch": 70,
                "velocity": 20,
                "duration": 0.2340909,
                "tempo": 120.0
            },
            {
                "start_time": 21.2681818,
                "end_time": 21.4840909,
                "pitch": 70,
                "velocity": 16,
                "duration": 0.2159091,
                "tempo": 120.0
            },
            {
                "start_time": 21.4863636,
                "end_time": 21.7204545,
                "pitch": 70,
                "velocity": 13,
                "duration": 0.2340909,
                "tempo": 120.0
            },
            {
                "start_time": 21.7204545,
                "end_time": 21.9545455,
                "pitch": 70,
                "velocity": 10,
                "duration": 0.2340909,
                "tempo": 120.0
            },
            {
                "start_time": 21.9545455,
                "end_time": 22.1886364,
                "pitch": 70,
                "velocity": 8,
                "duration": 0.2340909,
                "tempo": 120.0
            },
            {
                "start_time": 22.1886364,
                "end_time": 22.4227273,
                "pitch": 70,
                "velocity": 6,
                "duration": 0.2340909,
                "tempo": 120.0
            },
            {
                "start_time": 22.6590909,
                "end_time": 22.7772727,
                "pitch": 60,
                "velocity": 64,
                "duration": 0.1181818,
                "tempo": 120.0
            },
            {
                "start_time": 22.7772727,
                "end_time": 22.8954545,
                "pitch": 60,
                "velocity": 51,
                "duration": 0.1181818,
                "tempo": 120.0
            },
            {
                "start_time": 22.8977273,
                "end_time": 23.0,
                "pitch": 60,
                "velocity": 40,
                "duration": 0.1022727,
                "tempo": 120.0
            },
            {
                "start_time": 23.0,
                "end_time": 23.1204545,
                "pitch": 60,
                "velocity": 32,
                "duration": 0.1204545,
                "tempo": 120.0
            },
            {
                "start_time": 23.1204545,
                "end_time": 23.2340909,
                "pitch": 60,
                "velocity": 25,
                "duration": 0.1136364,
                "tempo": 120.0
            },
            {
                "start_time": 23.2340909,
                "end_time": 23.3477273,
                "pitch": 60,
                "velocity": 20,
                "duration": 0.1136364,
                "tempo": 120.0
            },
            {
                "start_time": 23.35,
                "end_time": 23.4636364,
                "pitch": 60,
                "velocity": 16,
                "duration": 0.1136364,
                "tempo": 120.0
            },
            {
                "start_time": 23.4636364,
                "end_time": 23.5772727,
                "pitch": 60,
                "velocity": 13,
                "duration": 0.1136364,
                "tempo": 120.0
            },
            {
                "start_time": 23.5795455,
                "end_time": 23.8181818,
                "pitch": 70,
                "velocity": 64,
                "duration": 0.2386364,
                "tempo": 120.0
            },
            {
                "start_time": 23.8181818,
                "end_time": 24.0568182,
                "pitch": 70,
                "velocity": 51,
                "duration": 0.2386364,
                "tempo": 120.0
            },
            {
                "start_time": 24.0568182,
                "end_time": 24.2909091,
                "pitch": 70,
                "velocity": 40,
                "duration": 0.2340909,
                "tempo": 120.0
            },
            {
                "start_time": 24.2931818,
                "end_time": 24.5090909,
                "pitch": 70,
                "velocity": 32,
                "duration": 0.2159091,
                "tempo": 120.0
            },
            {
                "start_time": 24.5090909,
                "end_time": 24.7431818,
                "pitch": 70,
                "velocity": 25,
                "duration": 0.2340909,
                "tempo": 120.0
            },
            {
                "start_time": 24.7431818,
                "end_time": 24.9772727,
                "pitch": 70,
                "velocity": 20,
                "duration": 0.2340909,
                "tempo": 120.0
            },
            {
                "start_time": 24.9795455,
                "end_time": 25.2113636,
                "pitch": 70,
                "velocity": 16,
                "duration": 0.2318182,
                "tempo": 120.0
            },
            {
                "start_time": 25.2136364,
                "end_time": 25.4477273,
                "pitch": 70,
                "velocity": 13,
                "duration": 0.2340909,
                "tempo": 120.0
            },
            {
                "start_time": 25.4477273,
                "end_time": 25.6863636,
                "pitch": 70,
                "velocity": 10,
                "duration": 0.2386364,
                "tempo": 120.0
            },
            {
                "start_time": 25.6863636,
                "end_time": 25.9272727,
                "pitch": 70,
                "velocity": 8,
                "duration": 0.2409091,
                "tempo": 120.0
            },
            {
                "start_time": 25.9272727,
                "end_time": 26.1431818,
                "pitch": 70,
                "velocity": 6,
                "duration": 0.2159091,
                "tempo": 120.0
            },
            {
                "start_time": 26.3795455,
                "end_time": 26.4931818,
                "pitch": 60,
                "velocity": 64,
                "duration": 0.1136364,
                "tempo": 120.0
            },
            {
                "start_time": 26.4931818,
                "end_time": 26.6068182,
                "pitch": 60,
                "velocity": 51,
                "duration": 0.1136364,
                "tempo": 120.0
            },
            {
                "start_time": 26.6068182,
                "end_time": 26.7227273,
                "pitch": 60,
                "velocity": 40,
                "duration": 0.1159091,
                "tempo": 120.0
            },
            {
                "start_time": 26.7227273,
                "end_time": 26.8363636,
                "pitch": 60,
                "velocity": 32,
                "duration": 0.1136364,
                "tempo": 120.0
            },
            {
                "start_time": 26.8363636,
                "end_time": 26.9568182,
                "pitch": 60,
                "velocity": 25,
                "duration": 0.1204545,
                "tempo": 120.0
            },
            {
                "start_time": 26.9568182,
                "end_time": 27.0772727,
                "pitch": 60,
                "velocity": 20,
                "duration": 0.1204545,
                "tempo": 120.0
            },
            {
                "start_time": 27.0772727,
                "end_time": 27.1954545,
                "pitch": 60,
                "velocity": 16,
                "duration": 0.1181818,
                "tempo": 120.0
            },
            {
                "start_time": 27.1954545,
                "end_time": 27.3159091,
                "pitch": 60,
                "velocity": 13,
                "duration": 0.1204545,
                "tempo": 120.0
            },
            {
                "start_time": 27.3181818,
                "end_time": 27.5386364,
                "pitch": 70,
                "velocity": 64,
                "duration": 0.2204545,
                "tempo": 120.0
            },
            {
                "start_time": 27.5386364,
                "end_time": 27.7795455,
                "pitch": 70,
                "velocity": 51,
                "duration": 0.2409091,
                "tempo": 120.0
            },
            {
                "start_time": 27.7795455,
                "end_time": 28.0136364,
                "pitch": 70,
                "velocity": 40,
                "duration": 0.2340909,
                "tempo": 120.0
            },
            {
                "start_time": 28.0136364,
                "end_time": 28.2477273,
                "pitch": 70,
                "velocity": 32,
                "duration": 0.2340909,
                "tempo": 120.0
            },
            {
                "start_time": 28.2477273,
                "end_time": 28.4818182,
                "pitch": 70,
                "velocity": 25,
                "duration": 0.2340909,
                "tempo": 120.0
            },
            {
                "start_time": 28.4818182,
                "end_time": 28.7159091,
                "pitch": 70,
                "velocity": 20,
                "duration": 0.2340909,
                "tempo": 120.0
            },
            {
                "start_time": 28.7181818,
                "end_time": 28.95,
                "pitch": 70,
                "velocity": 16,
                "duration": 0.2318182,
                "tempo": 120.0
            },
            {
                "start_time": 28.9522727,
                "end_time": 29.1681818,
                "pitch": 70,
                "velocity": 13,
                "duration": 0.2159091,
                "tempo": 120.0
            },
            {
                "start_time": 29.1681818,
                "end_time": 29.4022727,
                "pitch": 70,
                "velocity": 10,
                "duration": 0.2340909,
                "tempo": 120.0
            },
            {
                "start_time": 29.4045455,
                "end_time": 29.6386364,
                "pitch": 70,
                "velocity": 8,
                "duration": 0.2340909,
                "tempo": 120.0
            },
            {
                "start_time": 29.6386364,
                "end_time": 29.8727273,
                "pitch": 70,
                "velocity": 6,
                "duration": 0.2340909,
                "tempo": 120.0
            },
            {
                "start_time": 30.1090909,
                "end_time": 30.225,
                "pitch": 60,
                "velocity": 64,
                "duration": 0.1159091,
                "tempo": 120.0
            },
            {
                "start_time": 30.2272727,
                "end_time": 30.3454545,
                "pitch": 60,
                "velocity": 51,
                "duration": 0.1181818,
                "tempo": 120.0
            },
            {
                "start_time": 30.3454545,
                "end_time": 30.4659091,
                "pitch": 60,
                "velocity": 40,
                "duration": 0.1204545,
                "tempo": 120.0
            },
            {
                "start_time": 30.4659091,
                "end_time": 30.5681818,
                "pitch": 60,
                "velocity": 32,
                "duration": 0.1022727,
                "tempo": 120.0
            },
            {
                "start_time": 30.5704545,
                "end_time": 30.6840909,
                "pitch": 60,
                "velocity": 25,
                "duration": 0.1136364,
                "tempo": 120.0
            },
            {
                "start_time": 30.6840909,
                "end_time": 30.7977273,
                "pitch": 60,
                "velocity": 20,
                "duration": 0.1136364,
                "tempo": 120.0
            },
            {
                "start_time": 30.7977273,
                "end_time": 30.9113636,
                "pitch": 60,
                "velocity": 16,
                "duration": 0.1136364,
                "tempo": 120.0
            },
            {
                "start_time": 30.9136364,
                "end_time": 31.0272727,
                "pitch": 60,
                "velocity": 13,
                "duration": 0.1136364,
                "tempo": 120.0
            },
            {
                "start_time": 31.0272727,
                "end_time": 31.2659091,
                "pitch": 70,
                "velocity": 64,
                "duration": 0.2386364,
                "tempo": 120.0
            },
            {
                "start_time": 31.2681818,
                "end_time": 31.5068182,
                "pitch": 70,
                "velocity": 51,
                "duration": 0.2386364,
                "tempo": 120.0
            },
            {
                "start_time": 31.5068182,
                "end_time": 31.7409091,
                "pitch": 70,
                "velocity": 40,
                "duration": 0.2340909,
                "tempo": 120.0
            },
            {
                "start_time": 31.7409091,
                "end_time": 31.975,
                "pitch": 70,
                "velocity": 32,
                "duration": 0.2340909,
                "tempo": 120.0
            },
            {
                "start_time": 31.975,
                "end_time": 32.1886364,
                "pitch": 70,
                "velocity": 25,
                "duration": 0.2136364,
                "tempo": 120.0
            },
            {
                "start_time": 32.1886364,
                "end_time": 32.4159091,
                "pitch": 70,
                "velocity": 20,
                "duration": 0.2272727,
                "tempo": 120.0
            },
            {
                "start_time": 32.4181818,
                "end_time": 32.6613636,
                "pitch": 70,
                "velocity": 16,
                "duration": 0.2431818,
                "tempo": 120.0
            },
            {
                "start_time": 32.6613636,
                "end_time": 32.9068182,
                "pitch": 70,
                "velocity": 13,
                "duration": 0.2454545,
                "tempo": 120.0
            },
            {
                "start_time": 32.9068182,
                "end_time": 33.1363636,
                "pitch": 70,
                "velocity": 10,
                "duration": 0.2295455,
                "tempo": 120.0
            },
            {
                "start_time": 33.1363636,
                "end_time": 33.3659091,
                "pitch": 70,
                "velocity": 8,
                "duration": 0.2295455,
                "tempo": 120.0
            },
            {
                "start_time": 33.3659091,
                "end_time": 33.5886364,
                "pitch": 70,
                "velocity": 6,
                "duration": 0.2227273,
                "tempo": 120.0
            },
            {
                "start_time": 33.8295455,
                "end_time": 33.9454545,
                "pitch": 60,
                "velocity": 64,
                "duration": 0.1159091,
                "tempo": 120.0
            },
            {
                "start_time": 33.9454545,
                "end_time": 34.0613636,
                "pitch": 60,
                "velocity": 51,
                "duration": 0.1159091,
                "tempo": 120.0
            },
            {
                "start_time": 34.0636364,
                "end_time": 34.1795455,
                "pitch": 60,
                "velocity": 40,
                "duration": 0.1159091,
                "tempo": 120.0
            },
            {
                "start_time": 34.1795455,
                "end_time": 34.2977273,
                "pitch": 60,
                "velocity": 32,
                "duration": 0.1181818,
                "tempo": 120.0
            },
            {
                "start_time": 34.2977273,
                "end_time": 34.4159091,
                "pitch": 60,
                "velocity": 25,
                "duration": 0.1181818,
                "tempo": 120.0
            },
            {
                "start_time": 34.4159091,
                "end_time": 34.5363636,
                "pitch": 60,
                "velocity": 20,
                "duration": 0.1204545,
                "tempo": 120.0
            },
            {
                "start_time": 34.5363636,
                "end_time": 34.6568182,
                "pitch": 60,
                "velocity": 16,
                "duration": 0.1204545,
                "tempo": 120.0
            },
            {
                "start_time": 34.6568182,
                "end_time": 34.7772727,
                "pitch": 60,
                "velocity": 13,
                "duration": 0.1204545,
                "tempo": 120.0
            },
            {
                "start_time": 34.7772727,
                "end_time": 35.0159091,
                "pitch": 70,
                "velocity": 64,
                "duration": 0.2386364,
                "tempo": 120.0
            },
            {
                "start_time": 35.0159091,
                "end_time": 35.2386364,
                "pitch": 70,
                "velocity": 51,
                "duration": 0.2227273,
                "tempo": 120.0
            },
            {
                "start_time": 35.2386364,
                "end_time": 35.4681818,
                "pitch": 70,
                "velocity": 40,
                "duration": 0.2295455,
                "tempo": 120.0
            },
            {
                "start_time": 35.4681818,
                "end_time": 35.6977273,
                "pitch": 70,
                "velocity": 32,
                "duration": 0.2295455,
                "tempo": 120.0
            },
            {
                "start_time": 35.6977273,
                "end_time": 35.9318182,
                "pitch": 70,
                "velocity": 25,
                "duration": 0.2340909,
                "tempo": 120.0
            },
            {
                "start_time": 35.9318182,
                "end_time": 36.1659091,
                "pitch": 70,
                "velocity": 20,
                "duration": 0.2340909,
                "tempo": 120.0
            },
            {
                "start_time": 36.1659091,
                "end_time": 36.4068182,
                "pitch": 70,
                "velocity": 16,
                "duration": 0.2409091,
                "tempo": 120.0
            },
            {
                "start_time": 36.4068182,
                "end_time": 36.6295455,
                "pitch": 70,
                "velocity": 13,
                "duration": 0.2227273,
                "tempo": 120.0
            },
            {
                "start_time": 36.6295455,
                "end_time": 36.8636364,
                "pitch": 70,
                "velocity": 10,
                "duration": 0.2340909,
                "tempo": 120.0
            },
            {
                "start_time": 36.8636364,
                "end_time": 37.0977273,
                "pitch": 70,
                "velocity": 8,
                "duration": 0.2340909,
                "tempo": 120.0
            },
            {
                "start_time": 37.0977273,
                "end_time": 37.3386364,
                "pitch": 70,
                "velocity": 6,
                "duration": 0.2409091,
                "tempo": 120.0
            },
            {
                "start_time": 37.5795455,
                "end_time": 37.6909091,
                "pitch": 60,
                "velocity": 64,
                "duration": 0.1113636,
                "tempo": 120.0
            },
            {
                "start_time": 37.6931818,
                "end_time": 37.8068182,
                "pitch": 60,
                "velocity": 51,
                "duration": 0.1136364,
                "tempo": 120.0
            },
            {
                "start_time": 37.8068182,
                "end_time": 37.9204545,
                "pitch": 60,
                "velocity": 40,
                "duration": 0.1136364,
                "tempo": 120.0
            },
            {
                "start_time": 37.9204545,
                "end_time": 38.0363636,
                "pitch": 60,
                "velocity": 32,
                "duration": 0.1159091,
                "tempo": 120.0
            },
            {
                "start_time": 38.0363636,
                "end_time": 38.1386364,
                "pitch": 60,
                "velocity": 25,
                "duration": 0.1022727,
                "tempo": 120.0
            },
            {
                "start_time": 38.1386364,
                "end_time": 38.2590909,
                "pitch": 60,
                "velocity": 20,
                "duration": 0.1204545,
                "tempo": 120.0
            },
            {
                "start_time": 38.2590909,
                "end_time": 38.3772727,
                "pitch": 60,
                "velocity": 16,
                "duration": 0.1181818,
                "tempo": 120.0
            },
            {
                "start_time": 38.3772727,
                "end_time": 38.4977273,
                "pitch": 60,
                "velocity": 13,
                "duration": 0.1204545,
                "tempo": 120.0
            },
            {
                "start_time": 38.5,
                "end_time": 38.7272727,
                "pitch": 70,
                "velocity": 64,
                "duration": 0.2272727,
                "tempo": 120.0
            },
            {
                "start_time": 38.7272727,
                "end_time": 38.9568182,
                "pitch": 70,
                "velocity": 51,
                "duration": 0.2295455,
                "tempo": 120.0
            },
            {
                "start_time": 38.9568182,
                "end_time": 39.1954545,
                "pitch": 70,
                "velocity": 40,
                "duration": 0.2386364,
                "tempo": 120.0
            },
            {
                "start_time": 39.1977273,
                "end_time": 39.4363636,
                "pitch": 70,
                "velocity": 32,
                "duration": 0.2386364,
                "tempo": 120.0
            },
            {
                "start_time": 39.4363636,
                "end_time": 39.6590909,
                "pitch": 70,
                "velocity": 25,
                "duration": 0.2227273,
                "tempo": 120.0
            },
            {
                "start_time": 39.6590909,
                "end_time": 39.8977273,
                "pitch": 70,
                "velocity": 20,
                "duration": 0.2386364,
                "tempo": 120.0
            },
            {
                "start_time": 39.9,
                "end_time": 40.1272727,
                "pitch": 70,
                "velocity": 16,
                "duration": 0.2272727,
                "tempo": 120.0
            },
            {
                "start_time": 40.1295455,
                "end_time": 40.3568182,
                "pitch": 70,
                "velocity": 13,
                "duration": 0.2272727,
                "tempo": 120.0
            },
            {
                "start_time": 40.3568182,
                "end_time": 40.5909091,
                "pitch": 70,
                "velocity": 10,
                "duration": 0.2340909,
                "tempo": 120.0
            },
            {
                "start_time": 40.5909091,
                "end_time": 40.825,
                "pitch": 70,
                "velocity": 8,
                "duration": 0.2340909,
                "tempo": 120.0
            },
            {
                "start_time": 40.8272727,
                "end_time": 41.0659091,
                "pitch": 70,
                "velocity": 6,
                "duration": 0.2386364,
                "tempo": 120.0
            },
            {
                "start_time": 41.2909091,
                "end_time": 41.4022727,
                "pitch": 60,
                "velocity": 64,
                "duration": 0.1113636,
                "tempo": 120.0
            },
            {
                "start_time": 41.4022727,
                "end_time": 41.5181818,
                "pitch": 60,
                "velocity": 51,
                "duration": 0.1159091,
                "tempo": 120.0
            },
            {
                "start_time": 41.5181818,
                "end_time": 41.6318182,
                "pitch": 60,
                "velocity": 40,
                "duration": 0.1136364,
                "tempo": 120.0
            },
            {
                "start_time": 41.6318182,
                "end_time": 41.7454545,
                "pitch": 60,
                "velocity": 32,
                "duration": 0.1136364,
                "tempo": 120.0
            },
            {
                "start_time": 41.7477273,
                "end_time": 41.8659091,
                "pitch": 60,
                "velocity": 25,
                "duration": 0.1181818,
                "tempo": 120.0
            },
            {
                "start_time": 41.8659091,
                "end_time": 41.9863636,
                "pitch": 60,
                "velocity": 20,
                "duration": 0.1204545,
                "tempo": 120.0
            },
            {
                "start_time": 41.9863636,
                "end_time": 42.1068182,
                "pitch": 60,
                "velocity": 16,
                "duration": 0.1204545,
                "tempo": 120.0
            },
            {
                "start_time": 42.1068182,
                "end_time": 42.2272727,
                "pitch": 60,
                "velocity": 13,
                "duration": 0.1204545,
                "tempo": 120.0
            },
            {
                "start_time": 42.2272727,
                "end_time": 42.4659091,
                "pitch": 70,
                "velocity": 64,
                "duration": 0.2386364,
                "tempo": 120.0
            },
            {
                "start_time": 42.4659091,
                "end_time": 42.6886364,
                "pitch": 70,
                "velocity": 51,
                "duration": 0.2227273,
                "tempo": 120.0
            },
            {
                "start_time": 42.6886364,
                "end_time": 42.9181818,
                "pitch": 70,
                "velocity": 40,
                "duration": 0.2295455,
                "tempo": 120.0
            },
            {
                "start_time": 42.9181818,
                "end_time": 43.1477273,
                "pitch": 70,
                "velocity": 32,
                "duration": 0.2295455,
                "tempo": 120.0
            },
            {
                "start_time": 43.1477273,
                "end_time": 43.3818182,
                "pitch": 70,
                "velocity": 25,
                "duration": 0.2340909,
                "tempo": 120.0
            },
            {
                "start_time": 43.3818182,
                "end_time": 43.6159091,
                "pitch": 70,
                "velocity": 20,
                "duration": 0.2340909,
                "tempo": 120.0
            },
            {
                "start_time": 43.6159091,
                "end_time": 43.8454545,
                "pitch": 70,
                "velocity": 16,
                "duration": 0.2295455,
                "tempo": 120.0
            },
            {
                "start_time": 43.8454545,
                "end_time": 44.075,
                "pitch": 70,
                "velocity": 13,
                "duration": 0.2295455,
                "tempo": 120.0
            },
            {
                "start_time": 44.075,
                "end_time": 44.3,
                "pitch": 70,
                "velocity": 10,
                "duration": 0.225,
                "tempo": 120.0
            },
            {
                "start_time": 44.3022727,
                "end_time": 44.5431818,
                "pitch": 70,
                "velocity": 8,
                "duration": 0.2409091,
                "tempo": 120.0
            },
            {
                "start_time": 44.5454545,
                "end_time": 44.7727273,
                "pitch": 70,
                "velocity": 6,
                "duration": 0.2272727,
                "tempo": 120.0
            },
            {
                "start_time": 45.0045455,
                "end_time": 45.1227273,
                "pitch": 60,
                "velocity": 64,
                "duration": 0.1181818,
                "tempo": 120.0
            },
            {
                "start_time": 45.1227273,
                "end_time": 45.2431818,
                "pitch": 60,
                "velocity": 51,
                "duration": 0.1204545,
                "tempo": 120.0
            },
            {
                "start_time": 45.2431818,
                "end_time": 45.3613636,
                "pitch": 60,
                "velocity": 40,
                "duration": 0.1181818,
                "tempo": 120.0
            },
            {
                "start_time": 45.3613636,
                "end_time": 45.4818182,
                "pitch": 60,
                "velocity": 32,
                "duration": 0.1204545,
                "tempo": 120.0
            },
            {
                "start_time": 45.4818182,
                "end_time": 45.6,
                "pitch": 60,
                "velocity": 25,
                "duration": 0.1181818,
                "tempo": 120.0
            },
            {
                "start_time": 45.6,
                "end_time": 45.7,
                "pitch": 60,
                "velocity": 20,
                "duration": 0.1,
                "tempo": 120.0
            },
            {
                "start_time": 45.7,
                "end_time": 45.8159091,
                "pitch": 60,
                "velocity": 16,
                "duration": 0.1159091,
                "tempo": 120.0
            },
            {
                "start_time": 45.8159091,
                "end_time": 45.9340909,
                "pitch": 60,
                "velocity": 13,
                "duration": 0.1181818,
                "tempo": 120.0
            },
            {
                "start_time": 45.9340909,
                "end_time": 46.1727273,
                "pitch": 70,
                "velocity": 64,
                "duration": 0.2386364,
                "tempo": 120.0
            },
            {
                "start_time": 46.175,
                "end_time": 46.4136364,
                "pitch": 70,
                "velocity": 51,
                "duration": 0.2386364,
                "tempo": 120.0
            },
            {
                "start_time": 46.4136364,
                "end_time": 46.6477273,
                "pitch": 70,
                "velocity": 40,
                "duration": 0.2340909,
                "tempo": 120.0
            },
            {
                "start_time": 46.6477273,
                "end_time": 46.8818182,
                "pitch": 70,
                "velocity": 32,
                "duration": 0.2340909,
                "tempo": 120.0
            },
            {
                "start_time": 46.8818182,
                "end_time": 47.1227273,
                "pitch": 70,
                "velocity": 25,
                "duration": 0.2409091,
                "tempo": 120.0
            },
            {
                "start_time": 47.1227273,
                "end_time": 47.3454545,
                "pitch": 70,
                "velocity": 20,
                "duration": 0.2227273,
                "tempo": 120.0
            },
            {
                "start_time": 47.3454545,
                "end_time": 47.575,
                "pitch": 70,
                "velocity": 16,
                "duration": 0.2295455,
                "tempo": 120.0
            },
            {
                "start_time": 47.575,
                "end_time": 47.8022727,
                "pitch": 70,
                "velocity": 13,
                "duration": 0.2272727,
                "tempo": 120.0
            },
            {
                "start_time": 47.8045455,
                "end_time": 48.0431818,
                "pitch": 70,
                "velocity": 10,
                "duration": 0.2386364,
                "tempo": 120.0
            },
            {
                "start_time": 48.0431818,
                "end_time": 48.2818182,
                "pitch": 70,
                "velocity": 8,
                "duration": 0.2386364,
                "tempo": 120.0
            },
            {
                "start_time": 48.2840909,
                "end_time": 48.5181818,
                "pitch": 70,
                "velocity": 6,
                "duration": 0.2340909,
                "tempo": 120.0
            },
            {
                "start_time": 48.7363636,
                "end_time": 48.85,
                "pitch": 60,
                "velocity": 64,
                "duration": 0.1136364,
                "tempo": 120.0
            },
            {
                "start_time": 48.85,
                "end_time": 48.9636364,
                "pitch": 60,
                "velocity": 51,
                "duration": 0.1136364,
                "tempo": 120.0
            },
            {
                "start_time": 48.9636364,
                "end_time": 49.0772727,
                "pitch": 60,
                "velocity": 40,
                "duration": 0.1136364,
                "tempo": 120.0
            },
            {
                "start_time": 49.0795455,
                "end_time": 49.1931818,
                "pitch": 60,
                "velocity": 32,
                "duration": 0.1136364,
                "tempo": 120.0
            },
            {
                "start_time": 49.1931818,
                "end_time": 49.3136364,
                "pitch": 60,
                "velocity": 25,
                "duration": 0.1204545,
                "tempo": 120.0
            },
            {
                "start_time": 49.3136364,
                "end_time": 49.4318182,
                "pitch": 60,
                "velocity": 20,
                "duration": 0.1181818,
                "tempo": 120.0
            },
            {
                "start_time": 49.4340909,
                "end_time": 49.5522727,
                "pitch": 60,
                "velocity": 16,
                "duration": 0.1181818,
                "tempo": 120.0
            },
            {
                "start_time": 49.5522727,
                "end_time": 49.6727273,
                "pitch": 60,
                "velocity": 13,
                "duration": 0.1204545,
                "tempo": 120.0
            },
            {
                "start_time": 49.6727273,
                "end_time": 49.9136364,
                "pitch": 70,
                "velocity": 64,
                "duration": 0.2409091,
                "tempo": 120.0
            },
            {
                "start_time": 49.9136364,
                "end_time": 50.1522727,
                "pitch": 70,
                "velocity": 51,
                "duration": 0.2386364,
                "tempo": 120.0
            },
            {
                "start_time": 50.1522727,
                "end_time": 50.375,
                "pitch": 70,
                "velocity": 40,
                "duration": 0.2227273,
                "tempo": 120.0
            },
            {
                "start_time": 50.375,
                "end_time": 50.6159091,
                "pitch": 70,
                "velocity": 32,
                "duration": 0.2409091,
                "tempo": 120.0
            },
            {
                "start_time": 50.6159091,
                "end_time": 50.8454545,
                "pitch": 70,
                "velocity": 25,
                "duration": 0.2295455,
                "tempo": 120.0
            },
            {
                "start_time": 50.8454545,
                "end_time": 51.0727273,
                "pitch": 70,
                "velocity": 20,
                "duration": 0.2272727,
                "tempo": 120.0
            },
            {
                "start_time": 51.075,
                "end_time": 51.3090909,
                "pitch": 70,
                "velocity": 16,
                "duration": 0.2340909,
                "tempo": 120.0
            },
            {
                "start_time": 51.3090909,
                "end_time": 51.5431818,
                "pitch": 70,
                "velocity": 13,
                "duration": 0.2340909,
                "tempo": 120.0
            },
            {
                "start_time": 51.5431818,
                "end_time": 51.7659091,
                "pitch": 70,
                "velocity": 10,
                "duration": 0.2227273,
                "tempo": 120.0
            },
            {
                "start_time": 51.7659091,
                "end_time": 52.0045455,
                "pitch": 70,
                "velocity": 8,
                "duration": 0.2386364,
                "tempo": 120.0
            },
            {
                "start_time": 52.0045455,
                "end_time": 52.2340909,
                "pitch": 70,
                "velocity": 6,
                "duration": 0.2295455,
                "tempo": 120.0
            },
            {
                "start_time": 52.4659091,
                "end_time": 52.5818182,
                "pitch": 60,
                "velocity": 64,
                "duration": 0.1159091,
                "tempo": 120.0
            },
            {
                "start_time": 52.5840909,
                "end_time": 52.7022727,
                "pitch": 60,
                "velocity": 51,
                "duration": 0.1181818,
                "tempo": 120.0
            },
            {
                "start_time": 52.7022727,
                "end_time": 52.8227273,
                "pitch": 60,
                "velocity": 40,
                "duration": 0.1204545,
                "tempo": 120.0
            },
            {
                "start_time": 52.8227273,
                "end_time": 52.9431818,
                "pitch": 60,
                "velocity": 32,
                "duration": 0.1204545,
                "tempo": 120.0
            },
            {
                "start_time": 52.9431818,
                "end_time": 53.0590909,
                "pitch": 60,
                "velocity": 25,
                "duration": 0.1159091,
                "tempo": 120.0
            },
            {
                "start_time": 53.0590909,
                "end_time": 53.1772727,
                "pitch": 60,
                "velocity": 20,
                "duration": 0.1181818,
                "tempo": 120.0
            },
            {
                "start_time": 53.1772727,
                "end_time": 53.2772727,
                "pitch": 60,
                "velocity": 16,
                "duration": 0.1,
                "tempo": 120.0
            },
            {
                "start_time": 53.2772727,
                "end_time": 53.3954545,
                "pitch": 60,
                "velocity": 13,
                "duration": 0.1181818,
                "tempo": 120.0
            },
            {
                "start_time": 53.3954545,
                "end_time": 53.6295455,
                "pitch": 70,
                "velocity": 64,
                "duration": 0.2340909,
                "tempo": 120.0
            },
            {
                "start_time": 53.6295455,
                "end_time": 53.8636364,
                "pitch": 70,
                "velocity": 51,
                "duration": 0.2340909,
                "tempo": 120.0
            },
            {
                "start_time": 53.8636364,
                "end_time": 54.0977273,
                "pitch": 70,
                "velocity": 40,
                "duration": 0.2340909,
                "tempo": 120.0
            },
            {
                "start_time": 54.0977273,
                "end_time": 54.3318182,
                "pitch": 70,
                "velocity": 32,
                "duration": 0.2340909,
                "tempo": 120.0
            },
            {
                "start_time": 54.3318182,
                "end_time": 54.5659091,
                "pitch": 70,
                "velocity": 25,
                "duration": 0.2340909,
                "tempo": 120.0
            },
            {
                "start_time": 54.5659091,
                "end_time": 54.7840909,
                "pitch": 70,
                "velocity": 20,
                "duration": 0.2181818,
                "tempo": 120.0
            },
            {
                "start_time": 54.7840909,
                "end_time": 55.025,
                "pitch": 70,
                "velocity": 16,
                "duration": 0.2409091,
                "tempo": 120.0
            },
            {
                "start_time": 55.025,
                "end_time": 55.2636364,
                "pitch": 70,
                "velocity": 13,
                "duration": 0.2386364,
                "tempo": 120.0
            },
            {
                "start_time": 55.2636364,
                "end_time": 55.4977273,
                "pitch": 70,
                "velocity": 10,
                "duration": 0.2340909,
                "tempo": 120.0
            },
            {
                "start_time": 55.4977273,
                "end_time": 55.7318182,
                "pitch": 70,
                "velocity": 8,
                "duration": 0.2340909,
                "tempo": 120.0
            },
            {
                "start_time": 55.7318182,
                "end_time": 55.9545455,
                "pitch": 70,
                "velocity": 6,
                "duration": 0.2227273,
                "tempo": 120.0
            },
            {
                "start_time": 56.1818182,
                "end_time": 56.2863636,
                "pitch": 60,
                "velocity": 64,
                "duration": 0.1045455,
                "tempo": 120.0
            },
            {
                "start_time": 56.2863636,
                "end_time": 56.4113636,
                "pitch": 60,
                "velocity": 51,
                "duration": 0.125,
                "tempo": 120.0
            },
            {
                "start_time": 56.4113636,
                "end_time": 56.5363636,
                "pitch": 60,
                "velocity": 40,
                "duration": 0.125,
                "tempo": 120.0
            },
            {
                "start_time": 56.5363636,
                "end_time": 56.6613636,
                "pitch": 60,
                "velocity": 32,
                "duration": 0.125,
                "tempo": 120.0
            },
            {
                "start_time": 56.6613636,
                "end_time": 56.775,
                "pitch": 60,
                "velocity": 25,
                "duration": 0.1136364,
                "tempo": 120.0
            },
            {
                "start_time": 56.775,
                "end_time": 56.8909091,
                "pitch": 60,
                "velocity": 20,
                "duration": 0.1159091,
                "tempo": 120.0
            },
            {
                "start_time": 56.8909091,
                "end_time": 57.0045455,
                "pitch": 60,
                "velocity": 16,
                "duration": 0.1136364,
                "tempo": 120.0
            },
            {
                "start_time": 57.0045455,
                "end_time": 57.1204545,
                "pitch": 60,
                "velocity": 13,
                "duration": 0.1159091,
                "tempo": 120.0
            },
            {
                "start_time": 57.1204545,
                "end_time": 57.3636364,
                "pitch": 70,
                "velocity": 64,
                "duration": 0.2431818,
                "tempo": 120.0
            },
            {
                "start_time": 57.3659091,
                "end_time": 57.6090909,
                "pitch": 70,
                "velocity": 51,
                "duration": 0.2431818,
                "tempo": 120.0
            },
            {
                "start_time": 57.6113636,
                "end_time": 57.8272727,
                "pitch": 70,
                "velocity": 40,
                "duration": 0.2159091,
                "tempo": 120.0
            },
            {
                "start_time": 57.8295455,
                "end_time": 58.0613636,
                "pitch": 70,
                "velocity": 32,
                "duration": 0.2318182,
                "tempo": 120.0
            },
            {
                "start_time": 58.0636364,
                "end_time": 58.2977273,
                "pitch": 70,
                "velocity": 25,
                "duration": 0.2340909,
                "tempo": 120.0
            },
            {
                "start_time": 58.2977273,
                "end_time": 58.5318182,
                "pitch": 70,
                "velocity": 20,
                "duration": 0.2340909,
                "tempo": 120.0
            },
            {
                "start_time": 58.5318182,
                "end_time": 58.7659091,
                "pitch": 70,
                "velocity": 16,
                "duration": 0.2340909,
                "tempo": 120.0
            },
            {
                "start_time": 58.7659091,
                "end_time": 59.0,
                "pitch": 70,
                "velocity": 13,
                "duration": 0.2340909,
                "tempo": 120.0
            },
            {
                "start_time": 59.0,
                "end_time": 59.2386364,
                "pitch": 70,
                "velocity": 10,
                "duration": 0.2386364,
                "tempo": 120.0
            },
            {
                "start_time": 59.2409091,
                "end_time": 59.4613636,
                "pitch": 70,
                "velocity": 8,
                "duration": 0.2204545,
                "tempo": 120.0
            },
            {
                "start_time": 59.4613636,
                "end_time": 59.6863636,
                "pitch": 70,
                "velocity": 6,
                "duration": 0.225,
                "tempo": 120.0
            },
            {
                "start_time": 59.9113636,
                "end_time": 60.0295455,
                "pitch": 60,
                "velocity": 64,
                "duration": 0.1181818,
                "tempo": 120.0
            },
            {
                "start_time": 60.0295455,
                "end_time": 60.15,
                "pitch": 60,
                "velocity": 51,
                "duration": 0.1204545,
                "tempo": 120.0
            },
            {
                "start_time": 60.15,
                "end_time": 60.2704545,
                "pitch": 60,
                "velocity": 40,
                "duration": 0.1204545,
                "tempo": 120.0
            },
            {
                "start_time": 60.2704545,
                "end_time": 60.3909091,
                "pitch": 60,
                "velocity": 32,
                "duration": 0.1204545,
                "tempo": 120.0
            },
            {
                "start_time": 60.3909091,
                "end_time": 60.5090909,
                "pitch": 60,
                "velocity": 25,
                "duration": 0.1181818,
                "tempo": 120.0
            },
            {
                "start_time": 60.5090909,
                "end_time": 60.6295455,
                "pitch": 60,
                "velocity": 20,
                "duration": 0.1204545,
                "tempo": 120.0
            },
            {
                "start_time": 60.6295455,
                "end_time": 60.75,
                "pitch": 60,
                "velocity": 16,
                "duration": 0.1204545,
                "tempo": 120.0
            },
            {
                "start_time": 60.75,
                "end_time": 60.8522727,
                "pitch": 60,
                "velocity": 13,
                "duration": 0.1022727,
                "tempo": 120.0
            },
            {
                "start_time": 60.8545455,
                "end_time": 61.0818182,
                "pitch": 70,
                "velocity": 64,
                "duration": 0.2272727,
                "tempo": 120.0
            },
            {
                "start_time": 61.0818182,
                "end_time": 61.3113636,
                "pitch": 70,
                "velocity": 51,
                "duration": 0.2295455,
                "tempo": 120.0
            },
            {
                "start_time": 61.3113636,
                "end_time": 61.55,
                "pitch": 70,
                "velocity": 40,
                "duration": 0.2386364,
                "tempo": 120.0
            },
            {
                "start_time": 61.55,
                "end_time": 61.7909091,
                "pitch": 70,
                "velocity": 32,
                "duration": 0.2409091,
                "tempo": 120.0
            },
            {
                "start_time": 61.7909091,
                "end_time": 62.0295455,
                "pitch": 70,
                "velocity": 25,
                "duration": 0.2386364,
                "tempo": 120.0
            },
            {
                "start_time": 62.0318182,
                "end_time": 62.2704545,
                "pitch": 70,
                "velocity": 20,
                "duration": 0.2386364,
                "tempo": 120.0
            },
            {
                "start_time": 62.2704545,
                "end_time": 62.4886364,
                "pitch": 70,
                "velocity": 16,
                "duration": 0.2181818,
                "tempo": 120.0
            },
            {
                "start_time": 62.4886364,
                "end_time": 62.7227273,
                "pitch": 70,
                "velocity": 13,
                "duration": 0.2340909,
                "tempo": 120.0
            },
            {
                "start_time": 62.7227273,
                "end_time": 62.9568182,
                "pitch": 70,
                "velocity": 10,
                "duration": 0.2340909,
                "tempo": 120.0
            },
            {
                "start_time": 62.9568182,
                "end_time": 63.1909091,
                "pitch": 70,
                "velocity": 8,
                "duration": 0.2340909,
                "tempo": 120.0
            },
            {
                "start_time": 63.1909091,
                "end_time": 63.425,
                "pitch": 70,
                "velocity": 6,
                "duration": 0.2340909,
                "tempo": 120.0
            }
        ],
        "Acoustic Bass": [
            {
                "start_time": 0.2659091,
                "end_time": 4.0113636,
                "pitch": 24,
                "velocity": 80,
                "duration": 3.7454545,
                "tempo": 120.0
            },
            {
                "start_time": 4.0113636,
                "end_time": 7.75,
                "pitch": 24,
                "velocity": 80,
                "duration": 3.7386364,
                "tempo": 120.0
            },
            {
                "start_time": 7.75,
                "end_time": 11.4704545,
                "pitch": 24,
                "velocity": 80,
                "duration": 3.7204545,
                "tempo": 120.0
            },
            {
                "start_time": 11.4704545,
                "end_time": 15.2090909,
                "pitch": 24,
                "velocity": 80,
                "duration": 3.7386364,
                "tempo": 120.0
            },
            {
                "start_time": 15.2090909,
                "end_time": 18.9204545,
                "pitch": 24,
                "velocity": 80,
                "duration": 3.7113636,
                "tempo": 120.0
            },
            {
                "start_time": 18.9204545,
                "end_time": 22.6590909,
                "pitch": 24,
                "velocity": 80,
                "duration": 3.7386364,
                "tempo": 120.0
            },
            {
                "start_time": 22.6590909,
                "end_time": 26.3795455,
                "pitch": 24,
                "velocity": 80,
                "duration": 3.7204545,
                "tempo": 120.0
            },
            {
                "start_time": 26.3818182,
                "end_time": 30.1090909,
                "pitch": 24,
                "velocity": 80,
                "duration": 3.7272727,
                "tempo": 120.0
            },
            {
                "start_time": 30.1090909,
                "end_time": 33.8295455,
                "pitch": 24,
                "velocity": 80,
                "duration": 3.7204545,
                "tempo": 120.0
            },
            {
                "start_time": 33.8318182,
                "end_time": 37.5795455,
                "pitch": 24,
                "velocity": 80,
                "duration": 3.7477273,
                "tempo": 120.0
            },
            {
                "start_time": 37.5795455,
                "end_time": 41.2909091,
                "pitch": 24,
                "velocity": 80,
                "duration": 3.7113636,
                "tempo": 120.0
            },
            {
                "start_time": 41.2909091,
                "end_time": 45.0045455,
                "pitch": 24,
                "velocity": 80,
                "duration": 3.7136364,
                "tempo": 120.0
            },
            {
                "start_time": 45.0045455,
                "end_time": 48.7363636,
                "pitch": 24,
                "velocity": 80,
                "duration": 3.7318182,
                "tempo": 120.0
            },
            {
                "start_time": 48.7363636,
                "end_time": 52.4659091,
                "pitch": 24,
                "velocity": 80,
                "duration": 3.7295455,
                "tempo": 120.0
            },
            {
                "start_time": 52.4659091,
                "end_time": 56.1818182,
                "pitch": 24,
                "velocity": 80,
                "duration": 3.7159091,
                "tempo": 120.0
            },
            {
                "start_time": 56.1818182,
                "end_time": 59.9113636,
                "pitch": 24,
                "velocity": 80,
                "duration": 3.7295455,
                "tempo": 120.0
            },
            {
                "start_time": 59.9136364,
                "end_time": 63.6590909,
                "pitch": 24,
                "velocity": 80,
                "duration": 3.7454545,
                "tempo": 120.0
            }
        ],
        "Oboe": [
            {
                "start_time": 0.2659091,
                "end_time": 4.0113636,
                "pitch": 63,
                "velocity": 51,
                "duration": 3.7454545,
                "tempo": 120.0
            },
            {
                "start_time": 4.0113636,
                "end_time": 4.4886364,
                "pitch": 61,
                "velocity": 51,
                "duration": 0.4772727,
                "tempo": 120.0
            },
            {
                "start_time": 4.4909091,
                "end_time": 4.5045455,
                "pitch": 55,
                "velocity": 51,
                "duration": 0.0136364,
                "tempo": 120.0
            },
            {
                "start_time": 4.5045455,
                "end_time": 4.5545455,
                "pitch": 55,
                "velocity": 51,
                "duration": 0.05,
                "tempo": 120.0
            },
            {
                "start_time": 4.5545455,
                "end_time": 4.6886364,
                "pitch": 55,
                "velocity": 51,
                "duration": 0.1340909,
                "tempo": 120.0
            },
            {
                "start_time": 4.5045455,
                "end_time": 4.6886364,
                "pitch": 67,
                "velocity": 51,
                "duration": 0.1840909,
                "tempo": 120.0
            },
            {
                "start_time": 4.5545455,
                "end_time": 4.7568182,
                "pitch": 0,
                "velocity": 51,
                "duration": 0.2022727,
                "tempo": 120.0
            },
            {
                "start_time": 4.6886364,
                "end_time": 4.7568182,
                "pitch": 55,
                "velocity": 51,
                "duration": 0.0681818,
                "tempo": 120.0
            },
            {
                "start_time": 4.7568182,
                "end_time": 4.8909091,
                "pitch": 55,
                "velocity": 51,
                "duration": 0.1340909,
                "tempo": 120.0
            },
            {
                "start_time": 4.6886364,
                "end_time": 4.8909091,
                "pitch": 67,
                "velocity": 51,
                "duration": 0.2022727,
                "tempo": 120.0
            },
            {
                "start_time": 4.7568182,
                "end_time": 4.9409091,
                "pitch": 0,
                "velocity": 51,
                "duration": 0.1840909,
                "tempo": 120.0
            },
            {
                "start_time": 4.8909091,
                "end_time": 4.9409091,
                "pitch": 55,
                "velocity": 51,
                "duration": 0.05,
                "tempo": 120.0
            },
            {
                "start_time": 4.9409091,
                "end_time": 5.075,
                "pitch": 55,
                "velocity": 51,
                "duration": 0.1340909,
                "tempo": 120.0
            },
            {
                "start_time": 4.8909091,
                "end_time": 5.075,
                "pitch": 67,
                "velocity": 51,
                "duration": 0.1840909,
                "tempo": 120.0
            },
            {
                "start_time": 4.9409091,
                "end_time": 5.1409091,
                "pitch": 0,
                "velocity": 51,
                "duration": 0.2,
                "tempo": 120.0
            },
            {
                "start_time": 5.075,
                "end_time": 5.1409091,
                "pitch": 55,
                "velocity": 51,
                "duration": 0.0659091,
                "tempo": 120.0
            },
            {
                "start_time": 5.1409091,
                "end_time": 5.275,
                "pitch": 55,
                "velocity": 51,
                "duration": 0.1340909,
                "tempo": 120.0
            },
            {
                "start_time": 5.075,
                "end_time": 5.275,
                "pitch": 67,
                "velocity": 51,
                "duration": 0.2,
                "tempo": 120.0
            },
            {
                "start_time": 5.1409091,
                "end_time": 5.325,
                "pitch": 0,
                "velocity": 51,
                "duration": 0.1840909,
                "tempo": 120.0
            },
            {
                "start_time": 5.275,
                "end_time": 5.325,
                "pitch": 55,
                "velocity": 51,
                "duration": 0.05,
                "tempo": 120.0
            },
            {
                "start_time": 5.325,
                "end_time": 5.475,
                "pitch": 55,
                "velocity": 51,
                "duration": 0.15,
                "tempo": 120.0
            },
            {
                "start_time": 5.275,
                "end_time": 5.475,
                "pitch": 67,
                "velocity": 51,
                "duration": 0.2,
                "tempo": 120.0
            },
            {
                "start_time": 5.325,
                "end_time": 5.5272727,
                "pitch": 0,
                "velocity": 51,
                "duration": 0.2022727,
                "tempo": 120.0
            },
            {
                "start_time": 5.475,
                "end_time": 5.5272727,
                "pitch": 55,
                "velocity": 51,
                "duration": 0.0522727,
                "tempo": 120.0
            },
            {
                "start_time": 5.5272727,
                "end_time": 5.6613636,
                "pitch": 55,
                "velocity": 51,
                "duration": 0.1340909,
                "tempo": 120.0
            },
            {
                "start_time": 5.475,
                "end_time": 5.6613636,
                "pitch": 67,
                "velocity": 51,
                "duration": 0.1863636,
                "tempo": 120.0
            },
            {
                "start_time": 5.5272727,
                "end_time": 5.7272727,
                "pitch": 0,
                "velocity": 51,
                "duration": 0.2,
                "tempo": 120.0
            },
            {
                "start_time": 5.6613636,
                "end_time": 5.7272727,
                "pitch": 55,
                "velocity": 51,
                "duration": 0.0659091,
                "tempo": 120.0
            },
            {
                "start_time": 5.7272727,
                "end_time": 5.8613636,
                "pitch": 55,
                "velocity": 51,
                "duration": 0.1340909,
                "tempo": 120.0
            },
            {
                "start_time": 5.6613636,
                "end_time": 5.8613636,
                "pitch": 67,
                "velocity": 51,
                "duration": 0.2,
                "tempo": 120.0
            },
            {
                "start_time": 5.7272727,
                "end_time": 5.9113636,
                "pitch": 0,
                "velocity": 51,
                "duration": 0.1840909,
                "tempo": 120.0
            },
            {
                "start_time": 5.8613636,
                "end_time": 5.9113636,
                "pitch": 55,
                "velocity": 51,
                "duration": 0.05,
                "tempo": 120.0
            },
            {
                "start_time": 5.9113636,
                "end_time": 6.05,
                "pitch": 55,
                "velocity": 51,
                "duration": 0.1386364,
                "tempo": 120.0
            },
            {
                "start_time": 5.8613636,
                "end_time": 6.05,
                "pitch": 67,
                "velocity": 51,
                "duration": 0.1886364,
                "tempo": 120.0
            },
            {
                "start_time": 5.9113636,
                "end_time": 6.1181818,
                "pitch": 0,
                "velocity": 51,
                "duration": 0.2068182,
                "tempo": 120.0
            },
            {
                "start_time": 6.05,
                "end_time": 6.1181818,
                "pitch": 55,
                "velocity": 51,
                "duration": 0.0681818,
                "tempo": 120.0
            },
            {
                "start_time": 6.1181818,
                "end_time": 6.2545455,
                "pitch": 55,
                "velocity": 51,
                "duration": 0.1363636,
                "tempo": 120.0
            },
            {
                "start_time": 6.05,
                "end_time": 6.2545455,
                "pitch": 67,
                "velocity": 51,
                "duration": 0.2045455,
                "tempo": 120.0
            },
            {
                "start_time": 6.1181818,
                "end_time": 6.3068182,
                "pitch": 0,
                "velocity": 51,
                "duration": 0.1886364,
                "tempo": 120.0
            },
            {
                "start_time": 6.2545455,
                "end_time": 6.3068182,
                "pitch": 55,
                "velocity": 51,
                "duration": 0.0522727,
                "tempo": 120.0
            },
            {
                "start_time": 6.3068182,
                "end_time": 6.4386364,
                "pitch": 55,
                "velocity": 51,
                "duration": 0.1318182,
                "tempo": 120.0
            },
            {
                "start_time": 6.2545455,
                "end_time": 6.4386364,
                "pitch": 67,
                "velocity": 51,
                "duration": 0.1840909,
                "tempo": 120.0
            },
            {
                "start_time": 6.3068182,
                "end_time": 6.5045455,
                "pitch": 0,
                "velocity": 51,
                "duration": 0.1977273,
                "tempo": 120.0
            },
            {
                "start_time": 6.4386364,
                "end_time": 6.5045455,
                "pitch": 55,
                "velocity": 51,
                "duration": 0.0659091,
                "tempo": 120.0
            },
            {
                "start_time": 6.5045455,
                "end_time": 6.6340909,
                "pitch": 55,
                "velocity": 51,
                "duration": 0.1295455,
                "tempo": 120.0
            },
            {
                "start_time": 6.4386364,
                "end_time": 6.6340909,
                "pitch": 67,
                "velocity": 51,
                "duration": 0.1954545,
                "tempo": 120.0
            },
            {
                "start_time": 6.5045455,
                "end_time": 6.6840909,
                "pitch": 0,
                "velocity": 51,
                "duration": 0.1795455,
                "tempo": 120.0
            },
            {
                "start_time": 6.6340909,
                "end_time": 6.6840909,
                "pitch": 55,
                "velocity": 51,
                "duration": 0.05,
                "tempo": 120.0
            },
            {
                "start_time": 6.6840909,
                "end_time": 6.8159091,
                "pitch": 55,
                "velocity": 51,
                "duration": 0.1318182,
                "tempo": 120.0
            },
            {
                "start_time": 6.6340909,
                "end_time": 6.8159091,
                "pitch": 67,
                "velocity": 51,
                "duration": 0.1818182,
                "tempo": 120.0
            },
            {
                "start_time": 6.6840909,
                "end_time": 6.8840909,
                "pitch": 0,
                "velocity": 51,
                "duration": 0.2,
                "tempo": 120.0
            },
            {
                "start_time": 6.8159091,
                "end_time": 6.8840909,
                "pitch": 55,
                "velocity": 51,
                "duration": 0.0681818,
                "tempo": 120.0
            },
            {
                "start_time": 6.8840909,
                "end_time": 7.0204545,
                "pitch": 55,
                "velocity": 51,
                "duration": 0.1363636,
                "tempo": 120.0
            },
            {
                "start_time": 6.8159091,
                "end_time": 7.0204545,
                "pitch": 67,
                "velocity": 51,
                "duration": 0.2045455,
                "tempo": 120.0
            },
            {
                "start_time": 6.8840909,
                "end_time": 7.0727273,
                "pitch": 0,
                "velocity": 51,
                "duration": 0.1886364,
                "tempo": 120.0
            },
            {
                "start_time": 7.0204545,
                "end_time": 7.0727273,
                "pitch": 55,
                "velocity": 51,
                "duration": 0.0522727,
                "tempo": 120.0
            },
            {
                "start_time": 7.0727273,
                "end_time": 7.2090909,
                "pitch": 55,
                "velocity": 51,
                "duration": 0.1363636,
                "tempo": 120.0
            },
            {
                "start_time": 7.0204545,
                "end_time": 7.2090909,
                "pitch": 67,
                "velocity": 51,
                "duration": 0.1886364,
                "tempo": 120.0
            },
            {
                "start_time": 7.0727273,
                "end_time": 7.2795455,
                "pitch": 0,
                "velocity": 51,
                "duration": 0.2068182,
                "tempo": 120.0
            },
            {
                "start_time": 7.2090909,
                "end_time": 7.2795455,
                "pitch": 55,
                "velocity": 51,
                "duration": 0.0704545,
                "tempo": 120.0
            },
            {
                "start_time": 7.2795455,
                "end_time": 7.4113636,
                "pitch": 55,
                "velocity": 51,
                "duration": 0.1318182,
                "tempo": 120.0
            },
            {
                "start_time": 7.2090909,
                "end_time": 7.4113636,
                "pitch": 67,
                "velocity": 51,
                "duration": 0.2022727,
                "tempo": 120.0
            },
            {
                "start_time": 7.2795455,
                "end_time": 7.4636364,
                "pitch": 0,
                "velocity": 51,
                "duration": 0.1840909,
                "tempo": 120.0
            },
            {
                "start_time": 7.4113636,
                "end_time": 7.4636364,
                "pitch": 55,
                "velocity": 51,
                "duration": 0.0522727,
                "tempo": 120.0
            },
            {
                "start_time": 7.4636364,
                "end_time": 7.5954545,
                "pitch": 55,
                "velocity": 51,
                "duration": 0.1318182,
                "tempo": 120.0
            },
            {
                "start_time": 7.4113636,
                "end_time": 7.5954545,
                "pitch": 67,
                "velocity": 51,
                "duration": 0.1840909,
                "tempo": 120.0
            },
            {
                "start_time": 7.4636364,
                "end_time": 7.6636364,
                "pitch": 0,
                "velocity": 51,
                "duration": 0.2,
                "tempo": 120.0
            },
            {
                "start_time": 7.5954545,
                "end_time": 7.6636364,
                "pitch": 55,
                "velocity": 51,
                "duration": 0.0681818,
                "tempo": 120.0
            },
            {
                "start_time": 7.6636364,
                "end_time": 7.75,
                "pitch": 55,
                "velocity": 51,
                "duration": 0.0863636,
                "tempo": 120.0
            },
            {
                "start_time": 7.75,
                "end_time": 8.2113636,
                "pitch": 53,
                "velocity": 51,
                "duration": 0.4613636,
                "tempo": 120.0
            },
            {
                "start_time": 8.2113636,
                "end_time": 11.4727273,
                "pitch": 58,
                "velocity": 51,
                "duration": 3.2613636,
                "tempo": 120.0
            },
            {
                "start_time": 11.4727273,
                "end_time": 11.9386364,
                "pitch": 56,
                "velocity": 51,
                "duration": 0.4659091,
                "tempo": 120.0
            },
            {
                "start_time": 11.9386364,
                "end_time": 12.075,
                "pitch": 55,
                "velocity": 51,
                "duration": 0.1363636,
                "tempo": 120.0
            },
            {
                "start_time": 7.5954545,
                "end_time": 12.075,
                "pitch": 67,
                "velocity": 51,
                "duration": 4.4795455,
                "tempo": 120.0
            },
            {
                "start_time": 7.6636364,
                "end_time": 12.125,
                "pitch": 0,
                "velocity": 51,
                "duration": 4.4613636,
                "tempo": 120.0
            },
            {
                "start_time": 12.075,
                "end_time": 12.125,
                "pitch": 55,
                "velocity": 51,
                "duration": 0.05,
                "tempo": 120.0
            },
            {
                "start_time": 12.125,
                "end_time": 12.2636364,
                "pitch": 55,
                "velocity": 51,
                "duration": 0.1386364,
                "tempo": 120.0
            },
            {
                "start_time": 12.075,
                "end_time": 12.2636364,
                "pitch": 67,
                "velocity": 51,
                "duration": 0.1886364,
                "tempo": 120.0
            },
            {
                "start_time": 12.125,
                "end_time": 12.3318182,
                "pitch": 0,
                "velocity": 51,
                "duration": 0.2068182,
                "tempo": 120.0
            },
            {
                "start_time": 12.2636364,
                "end_time": 12.3318182,
                "pitch": 55,
                "velocity": 51,
                "duration": 0.0681818,
                "tempo": 120.0
            },
            {
                "start_time": 12.3318182,
                "end_time": 12.4659091,
                "pitch": 55,
                "velocity": 51,
                "duration": 0.1340909,
                "tempo": 120.0
            },
            {
                "start_time": 12.2636364,
                "end_time": 12.4659091,
                "pitch": 67,
                "velocity": 51,
                "duration": 0.2022727,
                "tempo": 120.0
            },
            {
                "start_time": 12.3318182,
                "end_time": 12.5159091,
                "pitch": 0,
                "velocity": 51,
                "duration": 0.1840909,
                "tempo": 120.0
            },
            {
                "start_time": 12.4659091,
                "end_time": 12.5159091,
                "pitch": 55,
                "velocity": 51,
                "duration": 0.05,
                "tempo": 120.0
            },
            {
                "start_time": 12.5159091,
                "end_time": 12.6454545,
                "pitch": 55,
                "velocity": 51,
                "duration": 0.1295455,
                "tempo": 120.0
            },
            {
                "start_time": 12.4659091,
                "end_time": 12.6454545,
                "pitch": 67,
                "velocity": 51,
                "duration": 0.1795455,
                "tempo": 120.0
            },
            {
                "start_time": 12.5159091,
                "end_time": 12.7113636,
                "pitch": 0,
                "velocity": 51,
                "duration": 0.1954545,
                "tempo": 120.0
            },
            {
                "start_time": 12.6454545,
                "end_time": 12.7113636,
                "pitch": 55,
                "velocity": 51,
                "duration": 0.0659091,
                "tempo": 120.0
            },
            {
                "start_time": 12.7113636,
                "end_time": 12.8431818,
                "pitch": 55,
                "velocity": 51,
                "duration": 0.1318182,
                "tempo": 120.0
            },
            {
                "start_time": 12.6454545,
                "end_time": 12.8431818,
                "pitch": 67,
                "velocity": 51,
                "duration": 0.1977273,
                "tempo": 120.0
            },
            {
                "start_time": 12.7113636,
                "end_time": 12.8931818,
                "pitch": 0,
                "velocity": 51,
                "duration": 0.1818182,
                "tempo": 120.0
            },
            {
                "start_time": 12.8431818,
                "end_time": 12.8931818,
                "pitch": 55,
                "velocity": 51,
                "duration": 0.05,
                "tempo": 120.0
            },
            {
                "start_time": 12.8931818,
                "end_time": 13.0477273,
                "pitch": 55,
                "velocity": 51,
                "duration": 0.1545455,
                "tempo": 120.0
            },
            {
                "start_time": 12.8431818,
                "end_time": 13.0477273,
                "pitch": 67,
                "velocity": 51,
                "duration": 0.2045455,
                "tempo": 120.0
            },
            {
                "start_time": 12.8931818,
                "end_time": 13.1,
                "pitch": 0,
                "velocity": 51,
                "duration": 0.2068182,
                "tempo": 120.0
            },
            {
                "start_time": 13.0477273,
                "end_time": 13.1,
                "pitch": 55,
                "velocity": 51,
                "duration": 0.0522727,
                "tempo": 120.0
            },
            {
                "start_time": 13.1,
                "end_time": 13.2340909,
                "pitch": 55,
                "velocity": 51,
                "duration": 0.1340909,
                "tempo": 120.0
            },
            {
                "start_time": 13.0477273,
                "end_time": 13.2340909,
                "pitch": 67,
                "velocity": 51,
                "duration": 0.1863636,
                "tempo": 120.0
            },
            {
                "start_time": 13.1,
                "end_time": 13.3045455,
                "pitch": 0,
                "velocity": 51,
                "duration": 0.2045455,
                "tempo": 120.0
            },
            {
                "start_time": 13.2340909,
                "end_time": 13.3045455,
                "pitch": 55,
                "velocity": 51,
                "duration": 0.0704545,
                "tempo": 120.0
            },
            {
                "start_time": 13.3045455,
                "end_time": 13.4386364,
                "pitch": 55,
                "velocity": 51,
                "duration": 0.1340909,
                "tempo": 120.0
            },
            {
                "start_time": 13.2340909,
                "end_time": 13.4386364,
                "pitch": 67,
                "velocity": 51,
                "duration": 0.2045455,
                "tempo": 120.0
            },
            {
                "start_time": 13.3045455,
                "end_time": 13.4886364,
                "pitch": 0,
                "velocity": 51,
                "duration": 0.1840909,
                "tempo": 120.0
            },
            {
                "start_time": 13.4386364,
                "end_time": 13.4886364,
                "pitch": 55,
                "velocity": 51,
                "duration": 0.05,
                "tempo": 120.0
            },
            {
                "start_time": 13.4886364,
                "end_time": 13.6227273,
                "pitch": 55,
                "velocity": 51,
                "duration": 0.1340909,
                "tempo": 120.0
            },
            {
                "start_time": 13.4386364,
                "end_time": 13.6227273,
                "pitch": 67,
                "velocity": 51,
                "duration": 0.1840909,
                "tempo": 120.0
            },
            {
                "start_time": 13.4886364,
                "end_time": 13.6886364,
                "pitch": 0,
                "velocity": 51,
                "duration": 0.2,
                "tempo": 120.0
            },
            {
                "start_time": 13.6227273,
                "end_time": 13.6886364,
                "pitch": 55,
                "velocity": 51,
                "duration": 0.0659091,
                "tempo": 120.0
            },
            {
                "start_time": 13.6886364,
                "end_time": 13.8227273,
                "pitch": 55,
                "velocity": 51,
                "duration": 0.1340909,
                "tempo": 120.0
            },
            {
                "start_time": 13.6227273,
                "end_time": 13.8227273,
                "pitch": 67,
                "velocity": 51,
                "duration": 0.2,
                "tempo": 120.0
            },
            {
                "start_time": 13.6886364,
                "end_time": 13.875,
                "pitch": 0,
                "velocity": 51,
                "duration": 0.1863636,
                "tempo": 120.0
            },
            {
                "start_time": 13.8227273,
                "end_time": 13.875,
                "pitch": 55,
                "velocity": 51,
                "duration": 0.0522727,
                "tempo": 120.0
            },
            {
                "start_time": 13.875,
                "end_time": 14.0113636,
                "pitch": 55,
                "velocity": 51,
                "duration": 0.1363636,
                "tempo": 120.0
            },
            {
                "start_time": 13.8227273,
                "end_time": 14.0113636,
                "pitch": 67,
                "velocity": 51,
                "duration": 0.1886364,
                "tempo": 120.0
            },
            {
                "start_time": 13.875,
                "end_time": 14.0818182,
                "pitch": 0,
                "velocity": 51,
                "duration": 0.2068182,
                "tempo": 120.0
            },
            {
                "start_time": 14.0113636,
                "end_time": 14.0818182,
                "pitch": 55,
                "velocity": 51,
                "duration": 0.0704545,
                "tempo": 120.0
            },
            {
                "start_time": 14.0818182,
                "end_time": 14.2181818,
                "pitch": 55,
                "velocity": 51,
                "duration": 0.1363636,
                "tempo": 120.0
            },
            {
                "start_time": 14.0113636,
                "end_time": 14.2181818,
                "pitch": 67,
                "velocity": 51,
                "duration": 0.2068182,
                "tempo": 120.0
            },
            {
                "start_time": 14.0818182,
                "end_time": 14.2704545,
                "pitch": 0,
                "velocity": 51,
                "duration": 0.1886364,
                "tempo": 120.0
            },
            {
                "start_time": 14.2181818,
                "end_time": 14.2704545,
                "pitch": 55,
                "velocity": 51,
                "duration": 0.0522727,
                "tempo": 120.0
            },
            {
                "start_time": 14.2704545,
                "end_time": 14.4045455,
                "pitch": 55,
                "velocity": 51,
                "duration": 0.1340909,
                "tempo": 120.0
            },
            {
                "start_time": 14.2181818,
                "end_time": 14.4045455,
                "pitch": 67,
                "velocity": 51,
                "duration": 0.1863636,
                "tempo": 120.0
            },
            {
                "start_time": 14.2704545,
                "end_time": 14.4704545,
                "pitch": 0,
                "velocity": 51,
                "duration": 0.2,
                "tempo": 120.0
            },
            {
                "start_time": 14.4045455,
                "end_time": 14.4704545,
                "pitch": 55,
                "velocity": 51,
                "duration": 0.0659091,
                "tempo": 120.0
            },
            {
                "start_time": 14.4704545,
                "end_time": 14.6045455,
                "pitch": 55,
                "velocity": 51,
                "duration": 0.1340909,
                "tempo": 120.0
            },
            {
                "start_time": 14.4045455,
                "end_time": 14.6045455,
                "pitch": 67,
                "velocity": 51,
                "duration": 0.2,
                "tempo": 120.0
            },
            {
                "start_time": 14.4704545,
                "end_time": 14.6545455,
                "pitch": 0,
                "velocity": 51,
                "duration": 0.1840909,
                "tempo": 120.0
            },
            {
                "start_time": 14.6045455,
                "end_time": 14.6545455,
                "pitch": 55,
                "velocity": 51,
                "duration": 0.05,
                "tempo": 120.0
            },
            {
                "start_time": 14.6545455,
                "end_time": 14.7886364,
                "pitch": 55,
                "velocity": 51,
                "duration": 0.1340909,
                "tempo": 120.0
            },
            {
                "start_time": 14.6045455,
                "end_time": 14.7886364,
                "pitch": 67,
                "velocity": 51,
                "duration": 0.1840909,
                "tempo": 120.0
            },
            {
                "start_time": 14.6545455,
                "end_time": 14.8545455,
                "pitch": 0,
                "velocity": 51,
                "duration": 0.2,
                "tempo": 120.0
            },
            {
                "start_time": 14.7886364,
                "end_time": 14.8545455,
                "pitch": 55,
                "velocity": 51,
                "duration": 0.0659091,
                "tempo": 120.0
            },
            {
                "start_time": 14.8545455,
                "end_time": 14.9886364,
                "pitch": 55,
                "velocity": 51,
                "duration": 0.1340909,
                "tempo": 120.0
            },
            {
                "start_time": 14.7886364,
                "end_time": 14.9886364,
                "pitch": 67,
                "velocity": 51,
                "duration": 0.2,
                "tempo": 120.0
            },
            {
                "start_time": 14.8545455,
                "end_time": 15.0386364,
                "pitch": 0,
                "velocity": 51,
                "duration": 0.1840909,
                "tempo": 120.0
            },
            {
                "start_time": 14.9886364,
                "end_time": 15.0386364,
                "pitch": 55,
                "velocity": 51,
                "duration": 0.05,
                "tempo": 120.0
            },
            {
                "start_time": 15.0386364,
                "end_time": 15.1727273,
                "pitch": 55,
                "velocity": 51,
                "duration": 0.1340909,
                "tempo": 120.0
            },
            {
                "start_time": 14.9886364,
                "end_time": 15.1727273,
                "pitch": 67,
                "velocity": 51,
                "duration": 0.1840909,
                "tempo": 120.0
            },
            {
                "start_time": 15.1727273,
                "end_time": 15.2090909,
                "pitch": 55,
                "velocity": 51,
                "duration": 0.0363636,
                "tempo": 120.0
            },
            {
                "start_time": 15.2113636,
                "end_time": 18.9204545,
                "pitch": 53,
                "velocity": 51,
                "duration": 3.7090909,
                "tempo": 120.0
            },
            {
                "start_time": 18.9227273,
                "end_time": 19.0522727,
                "pitch": 55,
                "velocity": 51,
                "duration": 0.1295455,
                "tempo": 120.0
            },
            {
                "start_time": 15.1727273,
                "end_time": 19.0522727,
                "pitch": 67,
                "velocity": 51,
                "duration": 3.8795455,
                "tempo": 120.0
            },
            {
                "start_time": 15.0386364,
                "end_time": 19.1204545,
                "pitch": 0,
                "velocity": 51,
                "duration": 4.0818182,
                "tempo": 120.0
            },
            {
                "start_time": 19.0522727,
                "end_time": 19.1204545,
                "pitch": 55,
                "velocity": 51,
                "duration": 0.0681818,
                "tempo": 120.0
            },
            {
                "start_time": 19.1204545,
                "end_time": 19.2522727,
                "pitch": 55,
                "velocity": 51,
                "duration": 0.1318182,
                "tempo": 120.0
            },
            {
                "start_time": 19.0522727,
                "end_time": 19.2522727,
                "pitch": 67,
                "velocity": 51,
                "duration": 0.2,
                "tempo": 120.0
            },
            {
                "start_time": 19.1204545,
                "end_time": 19.3045455,
                "pitch": 0,
                "velocity": 51,
                "duration": 0.1840909,
                "tempo": 120.0
            },
            {
                "start_time": 19.2522727,
                "end_time": 19.3045455,
                "pitch": 55,
                "velocity": 51,
                "duration": 0.0522727,
                "tempo": 120.0
            },
            {
                "start_time": 19.3045455,
                "end_time": 19.4386364,
                "pitch": 55,
                "velocity": 51,
                "duration": 0.1340909,
                "tempo": 120.0
            },
            {
                "start_time": 19.2522727,
                "end_time": 19.4386364,
                "pitch": 67,
                "velocity": 51,
                "duration": 0.1863636,
                "tempo": 120.0
            },
            {
                "start_time": 19.3045455,
                "end_time": 19.5068182,
                "pitch": 0,
                "velocity": 51,
                "duration": 0.2022727,
                "tempo": 120.0
            },
            {
                "start_time": 19.4386364,
                "end_time": 19.5068182,
                "pitch": 55,
                "velocity": 51,
                "duration": 0.0681818,
                "tempo": 120.0
            },
            {
                "start_time": 19.5068182,
                "end_time": 19.6431818,
                "pitch": 55,
                "velocity": 51,
                "duration": 0.1363636,
                "tempo": 120.0
            },
            {
                "start_time": 19.4386364,
                "end_time": 19.6431818,
                "pitch": 67,
                "velocity": 51,
                "duration": 0.2045455,
                "tempo": 120.0
            },
            {
                "start_time": 19.5068182,
                "end_time": 19.6954545,
                "pitch": 0,
                "velocity": 51,
                "duration": 0.1886364,
                "tempo": 120.0
            },
            {
                "start_time": 19.6431818,
                "end_time": 19.6954545,
                "pitch": 55,
                "velocity": 51,
                "duration": 0.0522727,
                "tempo": 120.0
            },
            {
                "start_time": 19.6954545,
                "end_time": 19.8318182,
                "pitch": 55,
                "velocity": 51,
                "duration": 0.1363636,
                "tempo": 120.0
            },
            {
                "start_time": 19.6431818,
                "end_time": 19.8318182,
                "pitch": 67,
                "velocity": 51,
                "duration": 0.1886364,
                "tempo": 120.0
            },
            {
                "start_time": 19.6954545,
                "end_time": 19.9022727,
                "pitch": 0,
                "velocity": 51,
                "duration": 0.2068182,
                "tempo": 120.0
            },
            {
                "start_time": 19.8318182,
                "end_time": 19.9022727,
                "pitch": 55,
                "velocity": 51,
                "duration": 0.0704545,
                "tempo": 120.0
            },
            {
                "start_time": 19.9022727,
                "end_time": 20.0386364,
                "pitch": 55,
                "velocity": 51,
                "duration": 0.1363636,
                "tempo": 120.0
            },
            {
                "start_time": 19.8318182,
                "end_time": 20.0386364,
                "pitch": 67,
                "velocity": 51,
                "duration": 0.2068182,
                "tempo": 120.0
            },
            {
                "start_time": 19.9022727,
                "end_time": 20.0909091,
                "pitch": 0,
                "velocity": 51,
                "duration": 0.1886364,
                "tempo": 120.0
            },
            {
                "start_time": 20.0386364,
                "end_time": 20.0909091,
                "pitch": 55,
                "velocity": 51,
                "duration": 0.0522727,
                "tempo": 120.0
            },
            {
                "start_time": 20.0909091,
                "end_time": 20.2272727,
                "pitch": 55,
                "velocity": 51,
                "duration": 0.1363636,
                "tempo": 120.0
            },
            {
                "start_time": 20.0386364,
                "end_time": 20.2272727,
                "pitch": 67,
                "velocity": 51,
                "duration": 0.1886364,
                "tempo": 120.0
            },
            {
                "start_time": 20.0909091,
                "end_time": 20.2954545,
                "pitch": 0,
                "velocity": 51,
                "duration": 0.2045455,
                "tempo": 120.0
            },
            {
                "start_time": 20.2272727,
                "end_time": 20.2954545,
                "pitch": 55,
                "velocity": 51,
                "duration": 0.0681818,
                "tempo": 120.0
            },
            {
                "start_time": 20.2954545,
                "end_time": 20.4295455,
                "pitch": 55,
                "velocity": 51,
                "duration": 0.1340909,
                "tempo": 120.0
            },
            {
                "start_time": 20.2272727,
                "end_time": 20.4295455,
                "pitch": 67,
                "velocity": 51,
                "duration": 0.2022727,
                "tempo": 120.0
            },
            {
                "start_time": 20.2954545,
                "end_time": 20.4795455,
                "pitch": 0,
                "velocity": 51,
                "duration": 0.1840909,
                "tempo": 120.0
            },
            {
                "start_time": 20.4295455,
                "end_time": 20.4795455,
                "pitch": 55,
                "velocity": 51,
                "duration": 0.05,
                "tempo": 120.0
            },
            {
                "start_time": 20.4795455,
                "end_time": 20.6318182,
                "pitch": 55,
                "velocity": 51,
                "duration": 0.1522727,
                "tempo": 120.0
            },
            {
                "start_time": 20.4295455,
                "end_time": 20.6318182,
                "pitch": 67,
                "velocity": 51,
                "duration": 0.2022727,
                "tempo": 120.0
            },
            {
                "start_time": 20.4795455,
                "end_time": 20.6818182,
                "pitch": 0,
                "velocity": 51,
                "duration": 0.2022727,
                "tempo": 120.0
            },
            {
                "start_time": 20.6318182,
                "end_time": 20.6818182,
                "pitch": 55,
                "velocity": 51,
                "duration": 0.05,
                "tempo": 120.0
            },
            {
                "start_time": 20.6818182,
                "end_time": 20.8159091,
                "pitch": 55,
                "velocity": 51,
                "duration": 0.1340909,
                "tempo": 120.0
            },
            {
                "start_time": 20.6318182,
                "end_time": 20.8159091,
                "pitch": 67,
                "velocity": 51,
                "duration": 0.1840909,
                "tempo": 120.0
            },
            {
                "start_time": 20.6818182,
                "end_time": 20.8818182,
                "pitch": 0,
                "velocity": 51,
                "duration": 0.2,
                "tempo": 120.0
            },
            {
                "start_time": 20.8159091,
                "end_time": 20.8818182,
                "pitch": 55,
                "velocity": 51,
                "duration": 0.0659091,
                "tempo": 120.0
            },
            {
                "start_time": 20.8818182,
                "end_time": 21.0159091,
                "pitch": 55,
                "velocity": 51,
                "duration": 0.1340909,
                "tempo": 120.0
            },
            {
                "start_time": 20.8159091,
                "end_time": 21.0159091,
                "pitch": 67,
                "velocity": 51,
                "duration": 0.2,
                "tempo": 120.0
            },
            {
                "start_time": 20.8818182,
                "end_time": 21.0659091,
                "pitch": 0,
                "velocity": 51,
                "duration": 0.1840909,
                "tempo": 120.0
            },
            {
                "start_time": 21.0159091,
                "end_time": 21.0659091,
                "pitch": 55,
                "velocity": 51,
                "duration": 0.05,
                "tempo": 120.0
            },
            {
                "start_time": 21.0659091,
                "end_time": 21.2,
                "pitch": 55,
                "velocity": 51,
                "duration": 0.1340909,
                "tempo": 120.0
            },
            {
                "start_time": 21.0159091,
                "end_time": 21.2,
                "pitch": 67,
                "velocity": 51,
                "duration": 0.1840909,
                "tempo": 120.0
            },
            {
                "start_time": 21.0659091,
                "end_time": 21.2681818,
                "pitch": 0,
                "velocity": 51,
                "duration": 0.2022727,
                "tempo": 120.0
            },
            {
                "start_time": 21.2,
                "end_time": 21.2681818,
                "pitch": 55,
                "velocity": 51,
                "duration": 0.0681818,
                "tempo": 120.0
            },
            {
                "start_time": 21.2681818,
                "end_time": 21.4022727,
                "pitch": 55,
                "velocity": 51,
                "duration": 0.1340909,
                "tempo": 120.0
            },
            {
                "start_time": 21.2,
                "end_time": 21.4022727,
                "pitch": 67,
                "velocity": 51,
                "duration": 0.2022727,
                "tempo": 120.0
            },
            {
                "start_time": 21.2681818,
                "end_time": 21.4522727,
                "pitch": 0,
                "velocity": 51,
                "duration": 0.1840909,
                "tempo": 120.0
            },
            {
                "start_time": 21.4022727,
                "end_time": 21.4522727,
                "pitch": 55,
                "velocity": 51,
                "duration": 0.05,
                "tempo": 120.0
            },
            {
                "start_time": 21.4522727,
                "end_time": 21.5863636,
                "pitch": 55,
                "velocity": 51,
                "duration": 0.1340909,
                "tempo": 120.0
            },
            {
                "start_time": 21.4022727,
                "end_time": 21.5863636,
                "pitch": 67,
                "velocity": 51,
                "duration": 0.1840909,
                "tempo": 120.0
            },
            {
                "start_time": 21.4522727,
                "end_time": 21.6522727,
                "pitch": 0,
                "velocity": 51,
                "duration": 0.2,
                "tempo": 120.0
            },
            {
                "start_time": 21.5863636,
                "end_time": 21.6522727,
                "pitch": 55,
                "velocity": 51,
                "duration": 0.0659091,
                "tempo": 120.0
            },
            {
                "start_time": 21.6522727,
                "end_time": 21.7863636,
                "pitch": 55,
                "velocity": 51,
                "duration": 0.1340909,
                "tempo": 120.0
            },
            {
                "start_time": 21.5863636,
                "end_time": 21.7863636,
                "pitch": 67,
                "velocity": 51,
                "duration": 0.2,
                "tempo": 120.0
            },
            {
                "start_time": 21.6522727,
                "end_time": 21.8363636,
                "pitch": 0,
                "velocity": 51,
                "duration": 0.1840909,
                "tempo": 120.0
            },
            {
                "start_time": 21.7863636,
                "end_time": 21.8363636,
                "pitch": 55,
                "velocity": 51,
                "duration": 0.05,
                "tempo": 120.0
            },
            {
                "start_time": 21.8363636,
                "end_time": 21.9704545,
                "pitch": 55,
                "velocity": 51,
                "duration": 0.1340909,
                "tempo": 120.0
            },
            {
                "start_time": 21.7863636,
                "end_time": 21.9704545,
                "pitch": 67,
                "velocity": 51,
                "duration": 0.1840909,
                "tempo": 120.0
            },
            {
                "start_time": 21.9704545,
                "end_time": 22.0363636,
                "pitch": 55,
                "velocity": 51,
                "duration": 0.0659091,
                "tempo": 120.0
            },
            {
                "start_time": 21.8363636,
                "end_time": 22.0386364,
                "pitch": 0,
                "velocity": 51,
                "duration": 0.2022727,
                "tempo": 120.0
            },
            {
                "start_time": 22.0363636,
                "end_time": 22.0386364,
                "pitch": 0,
                "velocity": 51,
                "duration": 0.0022727,
                "tempo": 120.0
            },
            {
                "start_time": 22.0386364,
                "end_time": 22.1704545,
                "pitch": 55,
                "velocity": 51,
                "duration": 0.1318182,
                "tempo": 120.0
            },
            {
                "start_time": 21.9704545,
                "end_time": 22.1704545,
                "pitch": 67,
                "velocity": 51,
                "duration": 0.2,
                "tempo": 120.0
            },
            {
                "start_time": 22.1704545,
                "end_time": 22.2227273,
                "pitch": 55,
                "velocity": 51,
                "duration": 0.0522727,
                "tempo": 120.0
            },
            {
                "start_time": 22.2227273,
                "end_time": 22.3545455,
                "pitch": 55,
                "velocity": 51,
                "duration": 0.1318182,
                "tempo": 120.0
            },
            {
                "start_time": 22.1704545,
                "end_time": 22.3545455,
                "pitch": 67,
                "velocity": 51,
                "duration": 0.1840909,
                "tempo": 120.0
            },
            {
                "start_time": 22.2227273,
                "end_time": 22.4227273,
                "pitch": 0,
                "velocity": 51,
                "duration": 0.2,
                "tempo": 120.0
            },
            {
                "start_time": 22.3545455,
                "end_time": 22.4227273,
                "pitch": 55,
                "velocity": 51,
                "duration": 0.0681818,
                "tempo": 120.0
            },
            {
                "start_time": 22.4227273,
                "end_time": 22.5568182,
                "pitch": 55,
                "velocity": 51,
                "duration": 0.1340909,
                "tempo": 120.0
            },
            {
                "start_time": 22.3545455,
                "end_time": 22.5568182,
                "pitch": 67,
                "velocity": 51,
                "duration": 0.2022727,
                "tempo": 120.0
            },
            {
                "start_time": 22.4227273,
                "end_time": 22.6068182,
                "pitch": 0,
                "velocity": 51,
                "duration": 0.1840909,
                "tempo": 120.0
            },
            {
                "start_time": 22.5568182,
                "end_time": 22.6068182,
                "pitch": 55,
                "velocity": 51,
                "duration": 0.05,
                "tempo": 120.0
            },
            {
                "start_time": 22.6068182,
                "end_time": 22.6590909,
                "pitch": 55,
                "velocity": 51,
                "duration": 0.0522727,
                "tempo": 120.0
            },
            {
                "start_time": 22.6613636,
                "end_time": 23.1204545,
                "pitch": 61,
                "velocity": 51,
                "duration": 0.4590909,
                "tempo": 120.0
            },
            {
                "start_time": 23.1204545,
                "end_time": 26.3818182,
                "pitch": 60,
                "velocity": 51,
                "duration": 3.2613636,
                "tempo": 120.0
            },
            {
                "start_time": 26.3818182,
                "end_time": 30.1090909,
                "pitch": 63,
                "velocity": 51,
                "duration": 3.7272727,
                "tempo": 120.0
            },
            {
                "start_time": 30.1090909,
                "end_time": 30.5704545,
                "pitch": 61,
                "velocity": 51,
                "duration": 0.4613636,
                "tempo": 120.0
            },
            {
                "start_time": 30.5704545,
                "end_time": 30.7159091,
                "pitch": 55,
                "velocity": 51,
                "duration": 0.1454545,
                "tempo": 120.0
            },
            {
                "start_time": 22.5568182,
                "end_time": 30.7159091,
                "pitch": 67,
                "velocity": 51,
                "duration": 8.1590909,
                "tempo": 120.0
            },
            {
                "start_time": 22.6068182,
                "end_time": 30.7659091,
                "pitch": 0,
                "velocity": 51,
                "duration": 8.1590909,
                "tempo": 120.0
            },
            {
                "start_time": 30.7159091,
                "end_time": 30.7659091,
                "pitch": 55,
                "velocity": 51,
                "duration": 0.05,
                "tempo": 120.0
            },
            {
                "start_time": 30.7659091,
                "end_time": 30.8954545,
                "pitch": 55,
                "velocity": 51,
                "duration": 0.1295455,
                "tempo": 120.0
            },
            {
                "start_time": 30.7159091,
                "end_time": 30.8954545,
                "pitch": 67,
                "velocity": 51,
                "duration": 0.1795455,
                "tempo": 120.0
            },
            {
                "start_time": 30.7659091,
                "end_time": 30.9613636,
                "pitch": 0,
                "velocity": 51,
                "duration": 0.1954545,
                "tempo": 120.0
            },
            {
                "start_time": 30.8954545,
                "end_time": 30.9613636,
                "pitch": 55,
                "velocity": 51,
                "duration": 0.0659091,
                "tempo": 120.0
            },
            {
                "start_time": 30.9613636,
                "end_time": 31.0954545,
                "pitch": 55,
                "velocity": 51,
                "duration": 0.1340909,
                "tempo": 120.0
            },
            {
                "start_time": 30.8954545,
                "end_time": 31.0954545,
                "pitch": 67,
                "velocity": 51,
                "duration": 0.2,
                "tempo": 120.0
            },
            {
                "start_time": 30.9613636,
                "end_time": 31.1477273,
                "pitch": 0,
                "velocity": 51,
                "duration": 0.1863636,
                "tempo": 120.0
            },
            {
                "start_time": 31.0954545,
                "end_time": 31.1477273,
                "pitch": 55,
                "velocity": 51,
                "duration": 0.0522727,
                "tempo": 120.0
            },
            {
                "start_time": 31.1477273,
                "end_time": 31.2840909,
                "pitch": 55,
                "velocity": 51,
                "duration": 0.1363636,
                "tempo": 120.0
            },
            {
                "start_time": 31.0954545,
                "end_time": 31.2840909,
                "pitch": 67,
                "velocity": 51,
                "duration": 0.1886364,
                "tempo": 120.0
            },
            {
                "start_time": 31.1477273,
                "end_time": 31.3522727,
                "pitch": 0,
                "velocity": 51,
                "duration": 0.2045455,
                "tempo": 120.0
            },
            {
                "start_time": 31.2840909,
                "end_time": 31.3522727,
                "pitch": 55,
                "velocity": 51,
                "duration": 0.0681818,
                "tempo": 120.0
            },
            {
                "start_time": 31.3522727,
                "end_time": 31.4886364,
                "pitch": 55,
                "velocity": 51,
                "duration": 0.1363636,
                "tempo": 120.0
            },
            {
                "start_time": 31.2840909,
                "end_time": 31.4886364,
                "pitch": 67,
                "velocity": 51,
                "duration": 0.2045455,
                "tempo": 120.0
            },
            {
                "start_time": 31.3522727,
                "end_time": 31.5409091,
                "pitch": 0,
                "velocity": 51,
                "duration": 0.1886364,
                "tempo": 120.0
            },
            {
                "start_time": 31.4886364,
                "end_time": 31.5409091,
                "pitch": 55,
                "velocity": 51,
                "duration": 0.0522727,
                "tempo": 120.0
            },
            {
                "start_time": 31.5409091,
                "end_time": 31.675,
                "pitch": 55,
                "velocity": 51,
                "duration": 0.1340909,
                "tempo": 120.0
            },
            {
                "start_time": 31.4886364,
                "end_time": 31.675,
                "pitch": 67,
                "velocity": 51,
                "duration": 0.1863636,
                "tempo": 120.0
            },
            {
                "start_time": 31.5409091,
                "end_time": 31.7409091,
                "pitch": 0,
                "velocity": 51,
                "duration": 0.2,
                "tempo": 120.0
            },
            {
                "start_time": 31.675,
                "end_time": 31.7409091,
                "pitch": 55,
                "velocity": 51,
                "duration": 0.0659091,
                "tempo": 120.0
            },
            {
                "start_time": 31.7409091,
                "end_time": 31.875,
                "pitch": 55,
                "velocity": 51,
                "duration": 0.1340909,
                "tempo": 120.0
            },
            {
                "start_time": 31.675,
                "end_time": 31.875,
                "pitch": 67,
                "velocity": 51,
                "duration": 0.2,
                "tempo": 120.0
            },
            {
                "start_time": 31.7409091,
                "end_time": 31.925,
                "pitch": 0,
                "velocity": 51,
                "duration": 0.1840909,
                "tempo": 120.0
            },
            {
                "start_time": 31.875,
                "end_time": 31.925,
                "pitch": 55,
                "velocity": 51,
                "duration": 0.05,
                "tempo": 120.0
            },
            {
                "start_time": 31.925,
                "end_time": 32.0568182,
                "pitch": 55,
                "velocity": 51,
                "duration": 0.1318182,
                "tempo": 120.0
            },
            {
                "start_time": 31.875,
                "end_time": 32.0568182,
                "pitch": 67,
                "velocity": 51,
                "duration": 0.1818182,
                "tempo": 120.0
            },
            {
                "start_time": 31.925,
                "end_time": 32.1227273,
                "pitch": 0,
                "velocity": 51,
                "duration": 0.1977273,
                "tempo": 120.0
            },
            {
                "start_time": 32.0568182,
                "end_time": 32.1227273,
                "pitch": 55,
                "velocity": 51,
                "duration": 0.0659091,
                "tempo": 120.0
            },
            {
                "start_time": 32.1227273,
                "end_time": 32.2522727,
                "pitch": 55,
                "velocity": 51,
                "duration": 0.1295455,
                "tempo": 120.0
            },
            {
                "start_time": 32.0568182,
                "end_time": 32.2522727,
                "pitch": 67,
                "velocity": 51,
                "duration": 0.1954545,
                "tempo": 120.0
            },
            {
                "start_time": 32.1227273,
                "end_time": 32.3022727,
                "pitch": 0,
                "velocity": 51,
                "duration": 0.1795455,
                "tempo": 120.0
            },
            {
                "start_time": 32.2522727,
                "end_time": 32.3022727,
                "pitch": 55,
                "velocity": 51,
                "duration": 0.05,
                "tempo": 120.0
            },
            {
                "start_time": 32.3022727,
                "end_time": 32.4340909,
                "pitch": 55,
                "velocity": 51,
                "duration": 0.1318182,
                "tempo": 120.0
            },
            {
                "start_time": 32.2522727,
                "end_time": 32.4340909,
                "pitch": 67,
                "velocity": 51,
                "duration": 0.1818182,
                "tempo": 120.0
            },
            {
                "start_time": 32.3022727,
                "end_time": 32.5045455,
                "pitch": 0,
                "velocity": 51,
                "duration": 0.2022727,
                "tempo": 120.0
            },
            {
                "start_time": 32.4340909,
                "end_time": 32.5045455,
                "pitch": 55,
                "velocity": 51,
                "duration": 0.0704545,
                "tempo": 120.0
            },
            {
                "start_time": 32.5045455,
                "end_time": 32.6431818,
                "pitch": 55,
                "velocity": 51,
                "duration": 0.1386364,
                "tempo": 120.0
            },
            {
                "start_time": 32.4340909,
                "end_time": 32.6431818,
                "pitch": 67,
                "velocity": 51,
                "duration": 0.2090909,
                "tempo": 120.0
            },
            {
                "start_time": 32.5045455,
                "end_time": 32.6977273,
                "pitch": 0,
                "velocity": 51,
                "duration": 0.1931818,
                "tempo": 120.0
            },
            {
                "start_time": 32.6431818,
                "end_time": 32.6977273,
                "pitch": 55,
                "velocity": 51,
                "duration": 0.0545455,
                "tempo": 120.0
            },
            {
                "start_time": 32.6977273,
                "end_time": 32.8363636,
                "pitch": 55,
                "velocity": 51,
                "duration": 0.1386364,
                "tempo": 120.0
            },
            {
                "start_time": 32.6431818,
                "end_time": 32.8363636,
                "pitch": 67,
                "velocity": 51,
                "duration": 0.1931818,
                "tempo": 120.0
            },
            {
                "start_time": 32.6977273,
                "end_time": 32.9068182,
                "pitch": 0,
                "velocity": 51,
                "duration": 0.2090909,
                "tempo": 120.0
            },
            {
                "start_time": 32.8363636,
                "end_time": 32.9068182,
                "pitch": 55,
                "velocity": 51,
                "duration": 0.0704545,
                "tempo": 120.0
            },
            {
                "start_time": 32.9068182,
                "end_time": 33.0386364,
                "pitch": 55,
                "velocity": 51,
                "duration": 0.1318182,
                "tempo": 120.0
            },
            {
                "start_time": 32.8363636,
                "end_time": 33.0386364,
                "pitch": 67,
                "velocity": 51,
                "duration": 0.2022727,
                "tempo": 120.0
            },
            {
                "start_time": 32.9068182,
                "end_time": 33.0863636,
                "pitch": 0,
                "velocity": 51,
                "duration": 0.1795455,
                "tempo": 120.0
            },
            {
                "start_time": 33.0386364,
                "end_time": 33.0863636,
                "pitch": 55,
                "velocity": 51,
                "duration": 0.0477273,
                "tempo": 120.0
            },
            {
                "start_time": 33.0863636,
                "end_time": 33.2340909,
                "pitch": 55,
                "velocity": 51,
                "duration": 0.1477273,
                "tempo": 120.0
            },
            {
                "start_time": 33.0386364,
                "end_time": 33.2340909,
                "pitch": 67,
                "velocity": 51,
                "duration": 0.1954545,
                "tempo": 120.0
            },
            {
                "start_time": 33.0863636,
                "end_time": 33.2840909,
                "pitch": 0,
                "velocity": 51,
                "duration": 0.1977273,
                "tempo": 120.0
            },
            {
                "start_time": 33.2340909,
                "end_time": 33.2840909,
                "pitch": 55,
                "velocity": 51,
                "duration": 0.05,
                "tempo": 120.0
            },
            {
                "start_time": 33.2840909,
                "end_time": 33.4159091,
                "pitch": 55,
                "velocity": 51,
                "duration": 0.1318182,
                "tempo": 120.0
            },
            {
                "start_time": 33.2340909,
                "end_time": 33.4159091,
                "pitch": 67,
                "velocity": 51,
                "duration": 0.1818182,
                "tempo": 120.0
            },
            {
                "start_time": 33.2840909,
                "end_time": 33.4863636,
                "pitch": 0,
                "velocity": 51,
                "duration": 0.2022727,
                "tempo": 120.0
            },
            {
                "start_time": 33.4159091,
                "end_time": 33.4863636,
                "pitch": 55,
                "velocity": 51,
                "duration": 0.0704545,
                "tempo": 120.0
            },
            {
                "start_time": 33.4863636,
                "end_time": 33.6227273,
                "pitch": 55,
                "velocity": 51,
                "duration": 0.1363636,
                "tempo": 120.0
            },
            {
                "start_time": 33.4159091,
                "end_time": 33.6227273,
                "pitch": 67,
                "velocity": 51,
                "duration": 0.2068182,
                "tempo": 120.0
            },
            {
                "start_time": 33.4863636,
                "end_time": 33.6727273,
                "pitch": 0,
                "velocity": 51,
                "duration": 0.1863636,
                "tempo": 120.0
            },
            {
                "start_time": 33.6227273,
                "end_time": 33.6727273,
                "pitch": 55,
                "velocity": 51,
                "duration": 0.05,
                "tempo": 120.0
            },
            {
                "start_time": 33.6727273,
                "end_time": 33.8113636,
                "pitch": 55,
                "velocity": 51,
                "duration": 0.1386364,
                "tempo": 120.0
            },
            {
                "start_time": 33.6227273,
                "end_time": 33.8113636,
                "pitch": 67,
                "velocity": 51,
                "duration": 0.1886364,
                "tempo": 120.0
            },
            {
                "start_time": 33.8113636,
                "end_time": 33.8318182,
                "pitch": 55,
                "velocity": 51,
                "duration": 0.0204545,
                "tempo": 120.0
            },
            {
                "start_time": 33.8318182,
                "end_time": 34.2977273,
                "pitch": 53,
                "velocity": 51,
                "duration": 0.4659091,
                "tempo": 120.0
            },
            {
                "start_time": 34.2977273,
                "end_time": 37.5795455,
                "pitch": 58,
                "velocity": 51,
                "duration": 3.2818182,
                "tempo": 120.0
            },
            {
                "start_time": 37.5818182,
                "end_time": 38.0363636,
                "pitch": 56,
                "velocity": 51,
                "duration": 0.4545455,
                "tempo": 120.0
            },
            {
                "start_time": 38.0363636,
                "end_time": 38.0863636,
                "pitch": 55,
                "velocity": 51,
                "duration": 0.05,
                "tempo": 120.0
            },
            {
                "start_time": 33.8113636,
                "end_time": 38.0863636,
                "pitch": 67,
                "velocity": 51,
                "duration": 4.275,
                "tempo": 120.0
            },
            {
                "start_time": 33.6727273,
                "end_time": 38.1386364,
                "pitch": 0,
                "velocity": 51,
                "duration": 4.4659091,
                "tempo": 120.0
            },
            {
                "start_time": 38.0863636,
                "end_time": 38.1386364,
                "pitch": 55,
                "velocity": 51,
                "duration": 0.0522727,
                "tempo": 120.0
            },
            {
                "start_time": 38.1386364,
                "end_time": 38.2931818,
                "pitch": 55,
                "velocity": 51,
                "duration": 0.1545455,
                "tempo": 120.0
            },
            {
                "start_time": 38.0863636,
                "end_time": 38.2931818,
                "pitch": 67,
                "velocity": 51,
                "duration": 0.2068182,
                "tempo": 120.0
            },
            {
                "start_time": 38.1386364,
                "end_time": 38.3431818,
                "pitch": 0,
                "velocity": 51,
                "duration": 0.2045455,
                "tempo": 120.0
            },
            {
                "start_time": 38.2931818,
                "end_time": 38.3431818,
                "pitch": 55,
                "velocity": 51,
                "duration": 0.05,
                "tempo": 120.0
            },
            {
                "start_time": 38.3431818,
                "end_time": 38.4818182,
                "pitch": 55,
                "velocity": 51,
                "duration": 0.1386364,
                "tempo": 120.0
            },
            {
                "start_time": 38.2931818,
                "end_time": 38.4818182,
                "pitch": 67,
                "velocity": 51,
                "duration": 0.1886364,
                "tempo": 120.0
            },
            {
                "start_time": 38.3431818,
                "end_time": 38.5477273,
                "pitch": 0,
                "velocity": 51,
                "duration": 0.2045455,
                "tempo": 120.0
            },
            {
                "start_time": 38.4818182,
                "end_time": 38.5477273,
                "pitch": 55,
                "velocity": 51,
                "duration": 0.0659091,
                "tempo": 120.0
            },
            {
                "start_time": 38.5477273,
                "end_time": 38.6772727,
                "pitch": 55,
                "velocity": 51,
                "duration": 0.1295455,
                "tempo": 120.0
            },
            {
                "start_time": 38.4818182,
                "end_time": 38.6772727,
                "pitch": 67,
                "velocity": 51,
                "duration": 0.1954545,
                "tempo": 120.0
            },
            {
                "start_time": 38.5477273,
                "end_time": 38.7272727,
                "pitch": 0,
                "velocity": 51,
                "duration": 0.1795455,
                "tempo": 120.0
            },
            {
                "start_time": 38.6772727,
                "end_time": 38.7272727,
                "pitch": 55,
                "velocity": 51,
                "duration": 0.05,
                "tempo": 120.0
            },
            {
                "start_time": 38.7272727,
                "end_time": 38.8590909,
                "pitch": 55,
                "velocity": 51,
                "duration": 0.1318182,
                "tempo": 120.0
            },
            {
                "start_time": 38.6772727,
                "end_time": 38.8590909,
                "pitch": 67,
                "velocity": 51,
                "duration": 0.1818182,
                "tempo": 120.0
            },
            {
                "start_time": 38.7272727,
                "end_time": 38.9227273,
                "pitch": 0,
                "velocity": 51,
                "duration": 0.1954545,
                "tempo": 120.0
            },
            {
                "start_time": 38.8590909,
                "end_time": 38.9227273,
                "pitch": 55,
                "velocity": 51,
                "duration": 0.0636364,
                "tempo": 120.0
            },
            {
                "start_time": 38.9227273,
                "end_time": 39.0590909,
                "pitch": 55,
                "velocity": 51,
                "duration": 0.1363636,
                "tempo": 120.0
            },
            {
                "start_time": 38.8590909,
                "end_time": 39.0590909,
                "pitch": 67,
                "velocity": 51,
                "duration": 0.2,
                "tempo": 120.0
            },
            {
                "start_time": 38.9227273,
                "end_time": 39.1113636,
                "pitch": 0,
                "velocity": 51,
                "duration": 0.1886364,
                "tempo": 120.0
            },
            {
                "start_time": 39.0590909,
                "end_time": 39.1113636,
                "pitch": 55,
                "velocity": 51,
                "duration": 0.0522727,
                "tempo": 120.0
            },
            {
                "start_time": 39.1113636,
                "end_time": 39.2477273,
                "pitch": 55,
                "velocity": 51,
                "duration": 0.1363636,
                "tempo": 120.0
            },
            {
                "start_time": 39.0590909,
                "end_time": 39.2477273,
                "pitch": 67,
                "velocity": 51,
                "duration": 0.1886364,
                "tempo": 120.0
            },
            {
                "start_time": 39.1113636,
                "end_time": 39.3159091,
                "pitch": 0,
                "velocity": 51,
                "duration": 0.2045455,
                "tempo": 120.0
            },
            {
                "start_time": 39.2477273,
                "end_time": 39.3159091,
                "pitch": 55,
                "velocity": 51,
                "duration": 0.0681818,
                "tempo": 120.0
            },
            {
                "start_time": 39.3159091,
                "end_time": 39.4522727,
                "pitch": 55,
                "velocity": 51,
                "duration": 0.1363636,
                "tempo": 120.0
            },
            {
                "start_time": 39.2477273,
                "end_time": 39.4522727,
                "pitch": 67,
                "velocity": 51,
                "duration": 0.2045455,
                "tempo": 120.0
            },
            {
                "start_time": 39.3159091,
                "end_time": 39.5045455,
                "pitch": 0,
                "velocity": 51,
                "duration": 0.1886364,
                "tempo": 120.0
            },
            {
                "start_time": 39.4522727,
                "end_time": 39.5045455,
                "pitch": 55,
                "velocity": 51,
                "duration": 0.0522727,
                "tempo": 120.0
            },
            {
                "start_time": 39.5045455,
                "end_time": 39.6409091,
                "pitch": 55,
                "velocity": 51,
                "duration": 0.1363636,
                "tempo": 120.0
            },
            {
                "start_time": 39.4522727,
                "end_time": 39.6409091,
                "pitch": 67,
                "velocity": 51,
                "duration": 0.1886364,
                "tempo": 120.0
            },
            {
                "start_time": 39.5045455,
                "end_time": 39.7113636,
                "pitch": 0,
                "velocity": 51,
                "duration": 0.2068182,
                "tempo": 120.0
            },
            {
                "start_time": 39.6409091,
                "end_time": 39.7113636,
                "pitch": 55,
                "velocity": 51,
                "duration": 0.0704545,
                "tempo": 120.0
            },
            {
                "start_time": 39.7113636,
                "end_time": 39.8477273,
                "pitch": 55,
                "velocity": 51,
                "duration": 0.1363636,
                "tempo": 120.0
            },
            {
                "start_time": 39.6409091,
                "end_time": 39.8477273,
                "pitch": 67,
                "velocity": 51,
                "duration": 0.2068182,
                "tempo": 120.0
            },
            {
                "start_time": 39.7113636,
                "end_time": 39.9,
                "pitch": 0,
                "velocity": 51,
                "duration": 0.1886364,
                "tempo": 120.0
            },
            {
                "start_time": 39.8477273,
                "end_time": 39.9,
                "pitch": 55,
                "velocity": 51,
                "duration": 0.0522727,
                "tempo": 120.0
            },
            {
                "start_time": 39.9,
                "end_time": 40.0295455,
                "pitch": 55,
                "velocity": 51,
                "duration": 0.1295455,
                "tempo": 120.0
            },
            {
                "start_time": 39.8477273,
                "end_time": 40.0295455,
                "pitch": 67,
                "velocity": 51,
                "duration": 0.1818182,
                "tempo": 120.0
            },
            {
                "start_time": 39.9,
                "end_time": 40.0954545,
                "pitch": 0,
                "velocity": 51,
                "duration": 0.1954545,
                "tempo": 120.0
            },
            {
                "start_time": 40.0295455,
                "end_time": 40.0954545,
                "pitch": 55,
                "velocity": 51,
                "duration": 0.0659091,
                "tempo": 120.0
            },
            {
                "start_time": 40.0954545,
                "end_time": 40.2272727,
                "pitch": 55,
                "velocity": 51,
                "duration": 0.1318182,
                "tempo": 120.0
            },
            {
                "start_time": 40.0295455,
                "end_time": 40.2272727,
                "pitch": 67,
                "velocity": 51,
                "duration": 0.1977273,
                "tempo": 120.0
            },
            {
                "start_time": 40.0954545,
                "end_time": 40.275,
                "pitch": 0,
                "velocity": 51,
                "duration": 0.1795455,
                "tempo": 120.0
            },
            {
                "start_time": 40.2272727,
                "end_time": 40.275,
                "pitch": 55,
                "velocity": 51,
                "duration": 0.0477273,
                "tempo": 120.0
            },
            {
                "start_time": 40.275,
                "end_time": 40.4068182,
                "pitch": 55,
                "velocity": 51,
                "duration": 0.1318182,
                "tempo": 120.0
            },
            {
                "start_time": 40.2272727,
                "end_time": 40.4068182,
                "pitch": 67,
                "velocity": 51,
                "duration": 0.1795455,
                "tempo": 120.0
            },
            {
                "start_time": 40.275,
                "end_time": 40.475,
                "pitch": 0,
                "velocity": 51,
                "duration": 0.2,
                "tempo": 120.0
            },
            {
                "start_time": 40.4068182,
                "end_time": 40.475,
                "pitch": 55,
                "velocity": 51,
                "duration": 0.0681818,
                "tempo": 120.0
            },
            {
                "start_time": 40.475,
                "end_time": 40.6090909,
                "pitch": 55,
                "velocity": 51,
                "duration": 0.1340909,
                "tempo": 120.0
            },
            {
                "start_time": 40.4068182,
                "end_time": 40.6090909,
                "pitch": 67,
                "velocity": 51,
                "duration": 0.2022727,
                "tempo": 120.0
            },
            {
                "start_time": 40.475,
                "end_time": 40.6590909,
                "pitch": 0,
                "velocity": 51,
                "duration": 0.1840909,
                "tempo": 120.0
            },
            {
                "start_time": 40.6090909,
                "end_time": 40.6590909,
                "pitch": 55,
                "velocity": 51,
                "duration": 0.05,
                "tempo": 120.0
            },
            {
                "start_time": 40.6590909,
                "end_time": 40.8090909,
                "pitch": 55,
                "velocity": 51,
                "duration": 0.15,
                "tempo": 120.0
            },
            {
                "start_time": 40.6090909,
                "end_time": 40.8090909,
                "pitch": 67,
                "velocity": 51,
                "duration": 0.2,
                "tempo": 120.0
            },
            {
                "start_time": 40.8090909,
                "end_time": 40.8590909,
                "pitch": 55,
                "velocity": 51,
                "duration": 0.05,
                "tempo": 120.0
            },
            {
                "start_time": 40.6590909,
                "end_time": 40.8613636,
                "pitch": 0,
                "velocity": 51,
                "duration": 0.2022727,
                "tempo": 120.0
            },
            {
                "start_time": 40.8590909,
                "end_time": 40.8613636,
                "pitch": 0,
                "velocity": 51,
                "duration": 0.0022727,
                "tempo": 120.0
            },
            {
                "start_time": 40.8613636,
                "end_time": 40.9977273,
                "pitch": 55,
                "velocity": 51,
                "duration": 0.1363636,
                "tempo": 120.0
            },
            {
                "start_time": 40.8090909,
                "end_time": 40.9977273,
                "pitch": 67,
                "velocity": 51,
                "duration": 0.1886364,
                "tempo": 120.0
            },
            {
                "start_time": 40.9977273,
                "end_time": 41.0659091,
                "pitch": 55,
                "velocity": 51,
                "duration": 0.0681818,
                "tempo": 120.0
            },
            {
                "start_time": 41.0659091,
                "end_time": 41.2022727,
                "pitch": 55,
                "velocity": 51,
                "duration": 0.1363636,
                "tempo": 120.0
            },
            {
                "start_time": 40.9977273,
                "end_time": 41.2022727,
                "pitch": 67,
                "velocity": 51,
                "duration": 0.2045455,
                "tempo": 120.0
            },
            {
                "start_time": 41.0659091,
                "end_time": 41.2545455,
                "pitch": 0,
                "velocity": 51,
                "duration": 0.1886364,
                "tempo": 120.0
            },
            {
                "start_time": 41.2022727,
                "end_time": 41.2545455,
                "pitch": 55,
                "velocity": 51,
                "duration": 0.0522727,
                "tempo": 120.0
            },
            {
                "start_time": 41.2545455,
                "end_time": 41.2909091,
                "pitch": 55,
                "velocity": 51,
                "duration": 0.0363636,
                "tempo": 120.0
            },
            {
                "start_time": 41.2931818,
                "end_time": 45.0045455,
                "pitch": 53,
                "velocity": 51,
                "duration": 3.7113636,
                "tempo": 120.0
            },
            {
                "start_time": 45.0068182,
                "end_time": 45.0545455,
                "pitch": 55,
                "velocity": 51,
                "duration": 0.0477273,
                "tempo": 120.0
            },
            {
                "start_time": 41.2022727,
                "end_time": 45.0545455,
                "pitch": 67,
                "velocity": 51,
                "duration": 3.8522727,
                "tempo": 120.0
            },
            {
                "start_time": 41.2545455,
                "end_time": 45.1227273,
                "pitch": 0,
                "velocity": 51,
                "duration": 3.8681818,
                "tempo": 120.0
            },
            {
                "start_time": 45.0545455,
                "end_time": 45.1227273,
                "pitch": 55,
                "velocity": 51,
                "duration": 0.0681818,
                "tempo": 120.0
            },
            {
                "start_time": 45.1227273,
                "end_time": 45.2590909,
                "pitch": 55,
                "velocity": 51,
                "duration": 0.1363636,
                "tempo": 120.0
            },
            {
                "start_time": 45.0545455,
                "end_time": 45.2590909,
                "pitch": 67,
                "velocity": 51,
                "duration": 0.2045455,
                "tempo": 120.0
            },
            {
                "start_time": 45.1227273,
                "end_time": 45.3113636,
                "pitch": 0,
                "velocity": 51,
                "duration": 0.1886364,
                "tempo": 120.0
            },
            {
                "start_time": 45.2590909,
                "end_time": 45.3113636,
                "pitch": 55,
                "velocity": 51,
                "duration": 0.0522727,
                "tempo": 120.0
            },
            {
                "start_time": 45.3113636,
                "end_time": 45.4477273,
                "pitch": 55,
                "velocity": 51,
                "duration": 0.1363636,
                "tempo": 120.0
            },
            {
                "start_time": 45.2590909,
                "end_time": 45.4477273,
                "pitch": 67,
                "velocity": 51,
                "duration": 0.1886364,
                "tempo": 120.0
            },
            {
                "start_time": 45.3113636,
                "end_time": 45.5159091,
                "pitch": 0,
                "velocity": 51,
                "duration": 0.2045455,
                "tempo": 120.0
            },
            {
                "start_time": 45.4477273,
                "end_time": 45.5159091,
                "pitch": 55,
                "velocity": 51,
                "duration": 0.0681818,
                "tempo": 120.0
            },
            {
                "start_time": 45.5159091,
                "end_time": 45.65,
                "pitch": 55,
                "velocity": 51,
                "duration": 0.1340909,
                "tempo": 120.0
            },
            {
                "start_time": 45.4477273,
                "end_time": 45.65,
                "pitch": 67,
                "velocity": 51,
                "duration": 0.2022727,
                "tempo": 120.0
            },
            {
                "start_time": 45.5159091,
                "end_time": 45.7,
                "pitch": 0,
                "velocity": 51,
                "duration": 0.1840909,
                "tempo": 120.0
            },
            {
                "start_time": 45.65,
                "end_time": 45.7,
                "pitch": 55,
                "velocity": 51,
                "duration": 0.05,
                "tempo": 120.0
            },
            {
                "start_time": 45.7,
                "end_time": 45.85,
                "pitch": 55,
                "velocity": 51,
                "duration": 0.15,
                "tempo": 120.0
            },
            {
                "start_time": 45.65,
                "end_time": 45.85,
                "pitch": 67,
                "velocity": 51,
                "duration": 0.2,
                "tempo": 120.0
            },
            {
                "start_time": 45.7,
                "end_time": 45.9,
                "pitch": 0,
                "velocity": 51,
                "duration": 0.2,
                "tempo": 120.0
            },
            {
                "start_time": 45.85,
                "end_time": 45.9,
                "pitch": 55,
                "velocity": 51,
                "duration": 0.05,
                "tempo": 120.0
            },
            {
                "start_time": 45.9,
                "end_time": 46.0363636,
                "pitch": 55,
                "velocity": 51,
                "duration": 0.1363636,
                "tempo": 120.0
            },
            {
                "start_time": 45.85,
                "end_time": 46.0363636,
                "pitch": 67,
                "velocity": 51,
                "duration": 0.1863636,
                "tempo": 120.0
            },
            {
                "start_time": 45.9,
                "end_time": 46.1045455,
                "pitch": 0,
                "velocity": 51,
                "duration": 0.2045455,
                "tempo": 120.0
            },
            {
                "start_time": 46.0363636,
                "end_time": 46.1045455,
                "pitch": 55,
                "velocity": 51,
                "duration": 0.0681818,
                "tempo": 120.0
            },
            {
                "start_time": 46.1045455,
                "end_time": 46.2431818,
                "pitch": 55,
                "velocity": 51,
                "duration": 0.1386364,
                "tempo": 120.0
            },
            {
                "start_time": 46.0363636,
                "end_time": 46.2431818,
                "pitch": 67,
                "velocity": 51,
                "duration": 0.2068182,
                "tempo": 120.0
            },
            {
                "start_time": 46.1045455,
                "end_time": 46.2931818,
                "pitch": 0,
                "velocity": 51,
                "duration": 0.1886364,
                "tempo": 120.0
            },
            {
                "start_time": 46.2431818,
                "end_time": 46.2931818,
                "pitch": 55,
                "velocity": 51,
                "duration": 0.05,
                "tempo": 120.0
            },
            {
                "start_time": 46.2931818,
                "end_time": 46.4295455,
                "pitch": 55,
                "velocity": 51,
                "duration": 0.1363636,
                "tempo": 120.0
            },
            {
                "start_time": 46.2431818,
                "end_time": 46.4295455,
                "pitch": 67,
                "velocity": 51,
                "duration": 0.1863636,
                "tempo": 120.0
            },
            {
                "start_time": 46.2931818,
                "end_time": 46.4977273,
                "pitch": 0,
                "velocity": 51,
                "duration": 0.2045455,
                "tempo": 120.0
            },
            {
                "start_time": 46.4295455,
                "end_time": 46.4977273,
                "pitch": 55,
                "velocity": 51,
                "duration": 0.0681818,
                "tempo": 120.0
            },
            {
                "start_time": 46.4977273,
                "end_time": 46.6318182,
                "pitch": 55,
                "velocity": 51,
                "duration": 0.1340909,
                "tempo": 120.0
            },
            {
                "start_time": 46.4295455,
                "end_time": 46.6318182,
                "pitch": 67,
                "velocity": 51,
                "duration": 0.2022727,
                "tempo": 120.0
            },
            {
                "start_time": 46.4977273,
                "end_time": 46.6818182,
                "pitch": 0,
                "velocity": 51,
                "duration": 0.1840909,
                "tempo": 120.0
            },
            {
                "start_time": 46.6318182,
                "end_time": 46.6818182,
                "pitch": 55,
                "velocity": 51,
                "duration": 0.05,
                "tempo": 120.0
            },
            {
                "start_time": 46.6818182,
                "end_time": 46.8159091,
                "pitch": 55,
                "velocity": 51,
                "duration": 0.1340909,
                "tempo": 120.0
            },
            {
                "start_time": 46.6318182,
                "end_time": 46.8159091,
                "pitch": 67,
                "velocity": 51,
                "duration": 0.1840909,
                "tempo": 120.0
            },
            {
                "start_time": 46.6818182,
                "end_time": 46.8840909,
                "pitch": 0,
                "velocity": 51,
                "duration": 0.2022727,
                "tempo": 120.0
            },
            {
                "start_time": 46.8159091,
                "end_time": 46.8840909,
                "pitch": 55,
                "velocity": 51,
                "duration": 0.0681818,
                "tempo": 120.0
            },
            {
                "start_time": 46.8840909,
                "end_time": 47.0204545,
                "pitch": 55,
                "velocity": 51,
                "duration": 0.1363636,
                "tempo": 120.0
            },
            {
                "start_time": 46.8159091,
                "end_time": 47.0204545,
                "pitch": 67,
                "velocity": 51,
                "duration": 0.2045455,
                "tempo": 120.0
            },
            {
                "start_time": 46.8840909,
                "end_time": 47.0704545,
                "pitch": 0,
                "velocity": 51,
                "duration": 0.1863636,
                "tempo": 120.0
            },
            {
                "start_time": 47.0204545,
                "end_time": 47.0704545,
                "pitch": 55,
                "velocity": 51,
                "duration": 0.05,
                "tempo": 120.0
            },
            {
                "start_time": 47.0704545,
                "end_time": 47.2068182,
                "pitch": 55,
                "velocity": 51,
                "duration": 0.1363636,
                "tempo": 120.0
            },
            {
                "start_time": 47.0204545,
                "end_time": 47.2068182,
                "pitch": 67,
                "velocity": 51,
                "duration": 0.1863636,
                "tempo": 120.0
            },
            {
                "start_time": 47.0704545,
                "end_time": 47.2772727,
                "pitch": 0,
                "velocity": 51,
                "duration": 0.2068182,
                "tempo": 120.0
            },
            {
                "start_time": 47.2068182,
                "end_time": 47.2772727,
                "pitch": 55,
                "velocity": 51,
                "duration": 0.0704545,
                "tempo": 120.0
            },
            {
                "start_time": 47.2772727,
                "end_time": 47.4113636,
                "pitch": 55,
                "velocity": 51,
                "duration": 0.1340909,
                "tempo": 120.0
            },
            {
                "start_time": 47.2068182,
                "end_time": 47.4113636,
                "pitch": 67,
                "velocity": 51,
                "duration": 0.2045455,
                "tempo": 120.0
            },
            {
                "start_time": 47.2772727,
                "end_time": 47.4590909,
                "pitch": 0,
                "velocity": 51,
                "duration": 0.1818182,
                "tempo": 120.0
            },
            {
                "start_time": 47.4113636,
                "end_time": 47.4590909,
                "pitch": 55,
                "velocity": 51,
                "duration": 0.0477273,
                "tempo": 120.0
            },
            {
                "start_time": 47.4590909,
                "end_time": 47.5909091,
                "pitch": 55,
                "velocity": 51,
                "duration": 0.1318182,
                "tempo": 120.0
            },
            {
                "start_time": 47.4113636,
                "end_time": 47.5909091,
                "pitch": 67,
                "velocity": 51,
                "duration": 0.1795455,
                "tempo": 120.0
            },
            {
                "start_time": 47.4590909,
                "end_time": 47.6568182,
                "pitch": 0,
                "velocity": 51,
                "duration": 0.1977273,
                "tempo": 120.0
            },
            {
                "start_time": 47.5909091,
                "end_time": 47.6568182,
                "pitch": 55,
                "velocity": 51,
                "duration": 0.0659091,
                "tempo": 120.0
            },
            {
                "start_time": 47.6568182,
                "end_time": 47.7863636,
                "pitch": 55,
                "velocity": 51,
                "duration": 0.1295455,
                "tempo": 120.0
            },
            {
                "start_time": 47.5909091,
                "end_time": 47.7863636,
                "pitch": 67,
                "velocity": 51,
                "duration": 0.1954545,
                "tempo": 120.0
            },
            {
                "start_time": 47.6568182,
                "end_time": 47.8363636,
                "pitch": 0,
                "velocity": 51,
                "duration": 0.1795455,
                "tempo": 120.0
            },
            {
                "start_time": 47.7863636,
                "end_time": 47.8363636,
                "pitch": 55,
                "velocity": 51,
                "duration": 0.05,
                "tempo": 120.0
            },
            {
                "start_time": 47.8363636,
                "end_time": 47.975,
                "pitch": 55,
                "velocity": 51,
                "duration": 0.1386364,
                "tempo": 120.0
            },
            {
                "start_time": 47.7863636,
                "end_time": 47.975,
                "pitch": 67,
                "velocity": 51,
                "duration": 0.1886364,
                "tempo": 120.0
            },
            {
                "start_time": 47.8363636,
                "end_time": 48.0431818,
                "pitch": 0,
                "velocity": 51,
                "duration": 0.2068182,
                "tempo": 120.0
            },
            {
                "start_time": 47.975,
                "end_time": 48.0431818,
                "pitch": 55,
                "velocity": 51,
                "duration": 0.0681818,
                "tempo": 120.0
            },
            {
                "start_time": 48.0431818,
                "end_time": 48.1795455,
                "pitch": 55,
                "velocity": 51,
                "duration": 0.1363636,
                "tempo": 120.0
            },
            {
                "start_time": 47.975,
                "end_time": 48.1795455,
                "pitch": 67,
                "velocity": 51,
                "duration": 0.2045455,
                "tempo": 120.0
            },
            {
                "start_time": 48.0431818,
                "end_time": 48.2318182,
                "pitch": 0,
                "velocity": 51,
                "duration": 0.1886364,
                "tempo": 120.0
            },
            {
                "start_time": 48.1795455,
                "end_time": 48.2318182,
                "pitch": 55,
                "velocity": 51,
                "duration": 0.0522727,
                "tempo": 120.0
            },
            {
                "start_time": 48.2318182,
                "end_time": 48.3840909,
                "pitch": 55,
                "velocity": 51,
                "duration": 0.1522727,
                "tempo": 120.0
            },
            {
                "start_time": 48.1795455,
                "end_time": 48.3840909,
                "pitch": 67,
                "velocity": 51,
                "duration": 0.2045455,
                "tempo": 120.0
            },
            {
                "start_time": 48.2318182,
                "end_time": 48.4340909,
                "pitch": 0,
                "velocity": 51,
                "duration": 0.2022727,
                "tempo": 120.0
            },
            {
                "start_time": 48.3840909,
                "end_time": 48.4340909,
                "pitch": 55,
                "velocity": 51,
                "duration": 0.05,
                "tempo": 120.0
            },
            {
                "start_time": 48.4340909,
                "end_time": 48.5681818,
                "pitch": 55,
                "velocity": 51,
                "duration": 0.1340909,
                "tempo": 120.0
            },
            {
                "start_time": 48.3840909,
                "end_time": 48.5681818,
                "pitch": 67,
                "velocity": 51,
                "duration": 0.1840909,
                "tempo": 120.0
            },
            {
                "start_time": 48.4340909,
                "end_time": 48.6340909,
                "pitch": 0,
                "velocity": 51,
                "duration": 0.2,
                "tempo": 120.0
            },
            {
                "start_time": 48.5681818,
                "end_time": 48.6340909,
                "pitch": 55,
                "velocity": 51,
                "duration": 0.0659091,
                "tempo": 120.0
            },
            {
                "start_time": 48.6340909,
                "end_time": 48.7386364,
                "pitch": 55,
                "velocity": 51,
                "duration": 0.1045455,
                "tempo": 120.0
            },
            {
                "start_time": 48.7386364,
                "end_time": 49.1931818,
                "pitch": 61,
                "velocity": 51,
                "duration": 0.4545455,
                "tempo": 120.0
            },
            {
                "start_time": 49.1931818,
                "end_time": 52.4659091,
                "pitch": 60,
                "velocity": 51,
                "duration": 3.2727273,
                "tempo": 120.0
            },
            {
                "start_time": 52.4659091,
                "end_time": 56.1840909,
                "pitch": 63,
                "velocity": 51,
                "duration": 3.7181818,
                "tempo": 120.0
            },
            {
                "start_time": 56.1840909,
                "end_time": 56.6613636,
                "pitch": 61,
                "velocity": 51,
                "duration": 0.4772727,
                "tempo": 120.0
            },
            {
                "start_time": 56.6636364,
                "end_time": 56.7272727,
                "pitch": 55,
                "velocity": 51,
                "duration": 0.0636364,
                "tempo": 120.0
            },
            {
                "start_time": 48.5681818,
                "end_time": 56.7272727,
                "pitch": 67,
                "velocity": 51,
                "duration": 8.1590909,
                "tempo": 120.0
            },
            {
                "start_time": 48.6340909,
                "end_time": 56.7772727,
                "pitch": 0,
                "velocity": 51,
                "duration": 8.1431818,
                "tempo": 120.0
            },
            {
                "start_time": 56.7272727,
                "end_time": 56.7772727,
                "pitch": 55,
                "velocity": 51,
                "duration": 0.05,
                "tempo": 120.0
            },
            {
                "start_time": 56.7772727,
                "end_time": 56.9068182,
                "pitch": 55,
                "velocity": 51,
                "duration": 0.1295455,
                "tempo": 120.0
            },
            {
                "start_time": 56.7272727,
                "end_time": 56.9068182,
                "pitch": 67,
                "velocity": 51,
                "duration": 0.1795455,
                "tempo": 120.0
            },
            {
                "start_time": 56.7772727,
                "end_time": 56.9727273,
                "pitch": 0,
                "velocity": 51,
                "duration": 0.1954545,
                "tempo": 120.0
            },
            {
                "start_time": 56.9068182,
                "end_time": 56.9727273,
                "pitch": 55,
                "velocity": 51,
                "duration": 0.0659091,
                "tempo": 120.0
            },
            {
                "start_time": 56.9727273,
                "end_time": 57.1022727,
                "pitch": 55,
                "velocity": 51,
                "duration": 0.1295455,
                "tempo": 120.0
            },
            {
                "start_time": 56.9068182,
                "end_time": 57.1022727,
                "pitch": 67,
                "velocity": 51,
                "duration": 0.1954545,
                "tempo": 120.0
            },
            {
                "start_time": 56.9727273,
                "end_time": 57.1545455,
                "pitch": 0,
                "velocity": 51,
                "duration": 0.1818182,
                "tempo": 120.0
            },
            {
                "start_time": 57.1022727,
                "end_time": 57.1545455,
                "pitch": 55,
                "velocity": 51,
                "duration": 0.0522727,
                "tempo": 120.0
            },
            {
                "start_time": 57.1545455,
                "end_time": 57.2931818,
                "pitch": 55,
                "velocity": 51,
                "duration": 0.1386364,
                "tempo": 120.0
            },
            {
                "start_time": 57.1022727,
                "end_time": 57.2931818,
                "pitch": 67,
                "velocity": 51,
                "duration": 0.1909091,
                "tempo": 120.0
            },
            {
                "start_time": 57.1545455,
                "end_time": 57.3659091,
                "pitch": 0,
                "velocity": 51,
                "duration": 0.2113636,
                "tempo": 120.0
            },
            {
                "start_time": 57.2931818,
                "end_time": 57.3659091,
                "pitch": 55,
                "velocity": 51,
                "duration": 0.0727273,
                "tempo": 120.0
            },
            {
                "start_time": 57.3659091,
                "end_time": 57.5045455,
                "pitch": 55,
                "velocity": 51,
                "duration": 0.1386364,
                "tempo": 120.0
            },
            {
                "start_time": 57.2931818,
                "end_time": 57.5045455,
                "pitch": 67,
                "velocity": 51,
                "duration": 0.2113636,
                "tempo": 120.0
            },
            {
                "start_time": 57.3659091,
                "end_time": 57.5568182,
                "pitch": 0,
                "velocity": 51,
                "duration": 0.1909091,
                "tempo": 120.0
            },
            {
                "start_time": 57.5045455,
                "end_time": 57.5568182,
                "pitch": 55,
                "velocity": 51,
                "duration": 0.0522727,
                "tempo": 120.0
            },
            {
                "start_time": 57.5568182,
                "end_time": 57.6931818,
                "pitch": 55,
                "velocity": 51,
                "duration": 0.1363636,
                "tempo": 120.0
            },
            {
                "start_time": 57.5045455,
                "end_time": 57.6931818,
                "pitch": 67,
                "velocity": 51,
                "duration": 0.1886364,
                "tempo": 120.0
            },
            {
                "start_time": 57.5568182,
                "end_time": 57.7613636,
                "pitch": 0,
                "velocity": 51,
                "duration": 0.2045455,
                "tempo": 120.0
            },
            {
                "start_time": 57.6931818,
                "end_time": 57.7613636,
                "pitch": 55,
                "velocity": 51,
                "duration": 0.0681818,
                "tempo": 120.0
            },
            {
                "start_time": 57.7613636,
                "end_time": 57.8954545,
                "pitch": 55,
                "velocity": 51,
                "duration": 0.1340909,
                "tempo": 120.0
            },
            {
                "start_time": 57.6931818,
                "end_time": 57.8954545,
                "pitch": 67,
                "velocity": 51,
                "duration": 0.2022727,
                "tempo": 120.0
            },
            {
                "start_time": 57.7613636,
                "end_time": 57.9454545,
                "pitch": 0,
                "velocity": 51,
                "duration": 0.1840909,
                "tempo": 120.0
            },
            {
                "start_time": 57.8954545,
                "end_time": 57.9454545,
                "pitch": 55,
                "velocity": 51,
                "duration": 0.05,
                "tempo": 120.0
            },
            {
                "start_time": 57.9454545,
                "end_time": 58.0795455,
                "pitch": 55,
                "velocity": 51,
                "duration": 0.1340909,
                "tempo": 120.0
            },
            {
                "start_time": 57.8954545,
                "end_time": 58.0795455,
                "pitch": 67,
                "velocity": 51,
                "duration": 0.1840909,
                "tempo": 120.0
            },
            {
                "start_time": 57.9454545,
                "end_time": 58.1454545,
                "pitch": 0,
                "velocity": 51,
                "duration": 0.2,
                "tempo": 120.0
            },
            {
                "start_time": 58.0795455,
                "end_time": 58.1454545,
                "pitch": 55,
                "velocity": 51,
                "duration": 0.0659091,
                "tempo": 120.0
            },
            {
                "start_time": 58.1454545,
                "end_time": 58.2795455,
                "pitch": 55,
                "velocity": 51,
                "duration": 0.1340909,
                "tempo": 120.0
            },
            {
                "start_time": 58.0795455,
                "end_time": 58.2795455,
                "pitch": 67,
                "velocity": 51,
                "duration": 0.2,
                "tempo": 120.0
            },
            {
                "start_time": 58.1454545,
                "end_time": 58.3295455,
                "pitch": 0,
                "velocity": 51,
                "duration": 0.1840909,
                "tempo": 120.0
            },
            {
                "start_time": 58.2795455,
                "end_time": 58.3295455,
                "pitch": 55,
                "velocity": 51,
                "duration": 0.05,
                "tempo": 120.0
            },
            {
                "start_time": 58.3295455,
                "end_time": 58.4818182,
                "pitch": 55,
                "velocity": 51,
                "duration": 0.1522727,
                "tempo": 120.0
            },
            {
                "start_time": 58.2795455,
                "end_time": 58.4818182,
                "pitch": 67,
                "velocity": 51,
                "duration": 0.2022727,
                "tempo": 120.0
            },
            {
                "start_time": 58.3295455,
                "end_time": 58.5318182,
                "pitch": 0,
                "velocity": 51,
                "duration": 0.2022727,
                "tempo": 120.0
            },
            {
                "start_time": 58.4818182,
                "end_time": 58.5318182,
                "pitch": 55,
                "velocity": 51,
                "duration": 0.05,
                "tempo": 120.0
            },
            {
                "start_time": 58.5318182,
                "end_time": 58.6659091,
                "pitch": 55,
                "velocity": 51,
                "duration": 0.1340909,
                "tempo": 120.0
            },
            {
                "start_time": 58.4818182,
                "end_time": 58.6659091,
                "pitch": 67,
                "velocity": 51,
                "duration": 0.1840909,
                "tempo": 120.0
            },
            {
                "start_time": 58.5318182,
                "end_time": 58.7318182,
                "pitch": 0,
                "velocity": 51,
                "duration": 0.2,
                "tempo": 120.0
            },
            {
                "start_time": 58.6659091,
                "end_time": 58.7318182,
                "pitch": 55,
                "velocity": 51,
                "duration": 0.0659091,
                "tempo": 120.0
            },
            {
                "start_time": 58.7318182,
                "end_time": 58.8659091,
                "pitch": 55,
                "velocity": 51,
                "duration": 0.1340909,
                "tempo": 120.0
            },
            {
                "start_time": 58.6659091,
                "end_time": 58.8659091,
                "pitch": 67,
                "velocity": 51,
                "duration": 0.2,
                "tempo": 120.0
            },
            {
                "start_time": 58.7318182,
                "end_time": 58.9159091,
                "pitch": 0,
                "velocity": 51,
                "duration": 0.1840909,
                "tempo": 120.0
            },
            {
                "start_time": 58.8659091,
                "end_time": 58.9159091,
                "pitch": 55,
                "velocity": 51,
                "duration": 0.05,
                "tempo": 120.0
            },
            {
                "start_time": 58.9159091,
                "end_time": 59.05,
                "pitch": 55,
                "velocity": 51,
                "duration": 0.1340909,
                "tempo": 120.0
            },
            {
                "start_time": 58.8659091,
                "end_time": 59.05,
                "pitch": 67,
                "velocity": 51,
                "duration": 0.1840909,
                "tempo": 120.0
            },
            {
                "start_time": 58.9159091,
                "end_time": 59.1204545,
                "pitch": 0,
                "velocity": 51,
                "duration": 0.2045455,
                "tempo": 120.0
            },
            {
                "start_time": 59.05,
                "end_time": 59.1204545,
                "pitch": 55,
                "velocity": 51,
                "duration": 0.0704545,
                "tempo": 120.0
            },
            {
                "start_time": 59.1204545,
                "end_time": 59.2568182,
                "pitch": 55,
                "velocity": 51,
                "duration": 0.1363636,
                "tempo": 120.0
            },
            {
                "start_time": 59.05,
                "end_time": 59.2568182,
                "pitch": 67,
                "velocity": 51,
                "duration": 0.2068182,
                "tempo": 120.0
            },
            {
                "start_time": 59.2568182,
                "end_time": 59.3068182,
                "pitch": 55,
                "velocity": 51,
                "duration": 0.05,
                "tempo": 120.0
            },
            {
                "start_time": 59.1204545,
                "end_time": 59.3090909,
                "pitch": 0,
                "velocity": 51,
                "duration": 0.1886364,
                "tempo": 120.0
            },
            {
                "start_time": 59.3068182,
                "end_time": 59.3090909,
                "pitch": 0,
                "velocity": 51,
                "duration": 0.0022727,
                "tempo": 120.0
            },
            {
                "start_time": 59.3090909,
                "end_time": 59.4454545,
                "pitch": 55,
                "velocity": 51,
                "duration": 0.1363636,
                "tempo": 120.0
            },
            {
                "start_time": 59.2568182,
                "end_time": 59.4454545,
                "pitch": 67,
                "velocity": 51,
                "duration": 0.1886364,
                "tempo": 120.0
            },
            {
                "start_time": 59.4454545,
                "end_time": 59.5090909,
                "pitch": 55,
                "velocity": 51,
                "duration": 0.0636364,
                "tempo": 120.0
            },
            {
                "start_time": 59.5090909,
                "end_time": 59.6386364,
                "pitch": 55,
                "velocity": 51,
                "duration": 0.1295455,
                "tempo": 120.0
            },
            {
                "start_time": 59.4454545,
                "end_time": 59.6386364,
                "pitch": 67,
                "velocity": 51,
                "duration": 0.1931818,
                "tempo": 120.0
            },
            {
                "start_time": 59.5090909,
                "end_time": 59.6863636,
                "pitch": 0,
                "velocity": 51,
                "duration": 0.1772727,
                "tempo": 120.0
            },
            {
                "start_time": 59.6386364,
                "end_time": 59.6863636,
                "pitch": 55,
                "velocity": 51,
                "duration": 0.0477273,
                "tempo": 120.0
            },
            {
                "start_time": 59.6863636,
                "end_time": 59.8136364,
                "pitch": 55,
                "velocity": 51,
                "duration": 0.1272727,
                "tempo": 120.0
            },
            {
                "start_time": 59.6386364,
                "end_time": 59.8136364,
                "pitch": 67,
                "velocity": 51,
                "duration": 0.175,
                "tempo": 120.0
            },
            {
                "start_time": 59.6863636,
                "end_time": 59.8772727,
                "pitch": 0,
                "velocity": 51,
                "duration": 0.1909091,
                "tempo": 120.0
            },
            {
                "start_time": 59.8136364,
                "end_time": 59.8772727,
                "pitch": 55,
                "velocity": 51,
                "duration": 0.0636364,
                "tempo": 120.0
            },
            {
                "start_time": 59.8772727,
                "end_time": 59.9136364,
                "pitch": 55,
                "velocity": 51,
                "duration": 0.0363636,
                "tempo": 120.0
            },
            {
                "start_time": 59.9136364,
                "end_time": 60.3909091,
                "pitch": 53,
                "velocity": 51,
                "duration": 0.4772727,
                "tempo": 120.0
            },
            {
                "start_time": 60.3909091,
                "end_time": 63.6590909,
                "pitch": 58,
                "velocity": 51,
                "duration": 3.2681818,
                "tempo": 120.0
            }
        ],
        "Lead 2 (sawtooth)": [
            {
                "start_time": 0.2681818,
                "end_time": 0.4136364,
                "pitch": 79,
                "velocity": 20,
                "duration": 0.1454545,
                "tempo": 120.0
            },
            {
                "start_time": 0.4136364,
                "end_time": 0.5977273,
                "pitch": 79,
                "velocity": 20,
                "duration": 0.1840909,
                "tempo": 120.0
            },
            {
                "start_time": 0.4136364,
                "end_time": 0.5977273,
                "pitch": 91,
                "velocity": 20,
                "duration": 0.1840909,
                "tempo": 120.0
            },
            {
                "start_time": 0.5977273,
                "end_time": 0.8,
                "pitch": 79,
                "velocity": 20,
                "duration": 0.2022727,
                "tempo": 120.0
            },
            {
                "start_time": 0.5977273,
                "end_time": 0.8,
                "pitch": 91,
                "velocity": 20,
                "duration": 0.2022727,
                "tempo": 120.0
            },
            {
                "start_time": 0.8,
                "end_time": 0.9886364,
                "pitch": 79,
                "velocity": 20,
                "duration": 0.1886364,
                "tempo": 120.0
            },
            {
                "start_time": 0.8,
                "end_time": 0.9886364,
                "pitch": 91,
                "velocity": 20,
                "duration": 0.1886364,
                "tempo": 120.0
            },
            {
                "start_time": 0.9886364,
                "end_time": 1.1954545,
                "pitch": 79,
                "velocity": 20,
                "duration": 0.2068182,
                "tempo": 120.0
            },
            {
                "start_time": 0.9886364,
                "end_time": 1.1954545,
                "pitch": 91,
                "velocity": 20,
                "duration": 0.2068182,
                "tempo": 120.0
            },
            {
                "start_time": 1.1954545,
                "end_time": 1.2136364,
                "pitch": 79,
                "velocity": 20,
                "duration": 0.0181818,
                "tempo": 120.0
            },
            {
                "start_time": 1.2136364,
                "end_time": 1.4568182,
                "pitch": 54,
                "velocity": 51,
                "duration": 0.2431818,
                "tempo": 120.0
            },
            {
                "start_time": 1.4568182,
                "end_time": 1.7,
                "pitch": 54,
                "velocity": 40,
                "duration": 0.2431818,
                "tempo": 120.0
            },
            {
                "start_time": 1.7,
                "end_time": 1.9181818,
                "pitch": 54,
                "velocity": 32,
                "duration": 0.2181818,
                "tempo": 120.0
            },
            {
                "start_time": 1.9181818,
                "end_time": 2.1522727,
                "pitch": 54,
                "velocity": 25,
                "duration": 0.2340909,
                "tempo": 120.0
            },
            {
                "start_time": 2.1522727,
                "end_time": 2.3863636,
                "pitch": 54,
                "velocity": 20,
                "duration": 0.2340909,
                "tempo": 120.0
            },
            {
                "start_time": 2.3863636,
                "end_time": 2.6204545,
                "pitch": 54,
                "velocity": 16,
                "duration": 0.2340909,
                "tempo": 120.0
            },
            {
                "start_time": 2.6204545,
                "end_time": 2.8545455,
                "pitch": 54,
                "velocity": 13,
                "duration": 0.2340909,
                "tempo": 120.0
            },
            {
                "start_time": 2.8545455,
                "end_time": 3.0886364,
                "pitch": 54,
                "velocity": 10,
                "duration": 0.2340909,
                "tempo": 120.0
            },
            {
                "start_time": 3.0886364,
                "end_time": 3.3113636,
                "pitch": 54,
                "velocity": 8,
                "duration": 0.2227273,
                "tempo": 120.0
            },
            {
                "start_time": 3.3113636,
                "end_time": 3.5522727,
                "pitch": 54,
                "velocity": 6,
                "duration": 0.2409091,
                "tempo": 120.0
            },
            {
                "start_time": 3.5522727,
                "end_time": 3.7795455,
                "pitch": 54,
                "velocity": 5,
                "duration": 0.2272727,
                "tempo": 120.0
            },
            {
                "start_time": 3.7818182,
                "end_time": 4.0136364,
                "pitch": 54,
                "velocity": 4,
                "duration": 0.2318182,
                "tempo": 120.0
            },
            {
                "start_time": 4.0136364,
                "end_time": 4.1454545,
                "pitch": 79,
                "velocity": 20,
                "duration": 0.1318182,
                "tempo": 120.0
            },
            {
                "start_time": 1.1954545,
                "end_time": 4.1454545,
                "pitch": 91,
                "velocity": 20,
                "duration": 2.95,
                "tempo": 120.0
            },
            {
                "start_time": 4.1454545,
                "end_time": 4.3522727,
                "pitch": 79,
                "velocity": 20,
                "duration": 0.2068182,
                "tempo": 120.0
            },
            {
                "start_time": 4.1454545,
                "end_time": 4.3522727,
                "pitch": 91,
                "velocity": 20,
                "duration": 0.2068182,
                "tempo": 120.0
            },
            {
                "start_time": 4.3522727,
                "end_time": 4.5386364,
                "pitch": 79,
                "velocity": 20,
                "duration": 0.1863636,
                "tempo": 120.0
            },
            {
                "start_time": 4.3522727,
                "end_time": 4.5386364,
                "pitch": 91,
                "velocity": 20,
                "duration": 0.1863636,
                "tempo": 120.0
            },
            {
                "start_time": 4.5386364,
                "end_time": 4.7386364,
                "pitch": 79,
                "velocity": 20,
                "duration": 0.2,
                "tempo": 120.0
            },
            {
                "start_time": 4.5386364,
                "end_time": 4.7386364,
                "pitch": 91,
                "velocity": 20,
                "duration": 0.2,
                "tempo": 120.0
            },
            {
                "start_time": 4.7386364,
                "end_time": 4.925,
                "pitch": 79,
                "velocity": 20,
                "duration": 0.1863636,
                "tempo": 120.0
            },
            {
                "start_time": 4.7386364,
                "end_time": 4.925,
                "pitch": 91,
                "velocity": 20,
                "duration": 0.1863636,
                "tempo": 120.0
            },
            {
                "start_time": 4.925,
                "end_time": 4.9409091,
                "pitch": 79,
                "velocity": 20,
                "duration": 0.0159091,
                "tempo": 120.0
            },
            {
                "start_time": 4.9431818,
                "end_time": 5.175,
                "pitch": 54,
                "velocity": 51,
                "duration": 0.2318182,
                "tempo": 120.0
            },
            {
                "start_time": 5.1772727,
                "end_time": 5.4113636,
                "pitch": 54,
                "velocity": 40,
                "duration": 0.2340909,
                "tempo": 120.0
            },
            {
                "start_time": 5.4113636,
                "end_time": 5.6454545,
                "pitch": 54,
                "velocity": 32,
                "duration": 0.2340909,
                "tempo": 120.0
            },
            {
                "start_time": 5.6454545,
                "end_time": 5.8795455,
                "pitch": 54,
                "velocity": 25,
                "duration": 0.2340909,
                "tempo": 120.0
            },
            {
                "start_time": 5.8795455,
                "end_time": 6.1181818,
                "pitch": 54,
                "velocity": 20,
                "duration": 0.2386364,
                "tempo": 120.0
            },
            {
                "start_time": 6.1181818,
                "end_time": 6.3409091,
                "pitch": 54,
                "velocity": 16,
                "duration": 0.2227273,
                "tempo": 120.0
            },
            {
                "start_time": 6.3431818,
                "end_time": 6.5704545,
                "pitch": 54,
                "velocity": 13,
                "duration": 0.2272727,
                "tempo": 120.0
            },
            {
                "start_time": 6.5704545,
                "end_time": 6.8,
                "pitch": 54,
                "velocity": 10,
                "duration": 0.2295455,
                "tempo": 120.0
            },
            {
                "start_time": 6.8,
                "end_time": 7.0386364,
                "pitch": 54,
                "velocity": 8,
                "duration": 0.2386364,
                "tempo": 120.0
            },
            {
                "start_time": 7.0409091,
                "end_time": 7.2795455,
                "pitch": 54,
                "velocity": 6,
                "duration": 0.2386364,
                "tempo": 120.0
            },
            {
                "start_time": 7.2795455,
                "end_time": 7.5136364,
                "pitch": 54,
                "velocity": 5,
                "duration": 0.2340909,
                "tempo": 120.0
            },
            {
                "start_time": 7.5136364,
                "end_time": 7.75,
                "pitch": 54,
                "velocity": 4,
                "duration": 0.2363636,
                "tempo": 120.0
            },
            {
                "start_time": 7.7522727,
                "end_time": 7.8840909,
                "pitch": 79,
                "velocity": 20,
                "duration": 0.1318182,
                "tempo": 120.0
            },
            {
                "start_time": 4.925,
                "end_time": 7.8840909,
                "pitch": 91,
                "velocity": 20,
                "duration": 2.9590909,
                "tempo": 120.0
            },
            {
                "start_time": 7.8840909,
                "end_time": 8.0727273,
                "pitch": 79,
                "velocity": 20,
                "duration": 0.1886364,
                "tempo": 120.0
            },
            {
                "start_time": 7.8840909,
                "end_time": 8.0727273,
                "pitch": 91,
                "velocity": 20,
                "duration": 0.1886364,
                "tempo": 120.0
            },
            {
                "start_time": 8.0727273,
                "end_time": 8.2772727,
                "pitch": 79,
                "velocity": 20,
                "duration": 0.2045455,
                "tempo": 120.0
            },
            {
                "start_time": 8.0727273,
                "end_time": 8.2772727,
                "pitch": 91,
                "velocity": 20,
                "duration": 0.2045455,
                "tempo": 120.0
            },
            {
                "start_time": 8.2772727,
                "end_time": 8.4613636,
                "pitch": 79,
                "velocity": 20,
                "duration": 0.1840909,
                "tempo": 120.0
            },
            {
                "start_time": 8.2772727,
                "end_time": 8.4613636,
                "pitch": 91,
                "velocity": 20,
                "duration": 0.1840909,
                "tempo": 120.0
            },
            {
                "start_time": 8.4613636,
                "end_time": 8.6613636,
                "pitch": 79,
                "velocity": 20,
                "duration": 0.2,
                "tempo": 120.0
            },
            {
                "start_time": 8.4613636,
                "end_time": 8.6613636,
                "pitch": 91,
                "velocity": 20,
                "duration": 0.2,
                "tempo": 120.0
            },
            {
                "start_time": 8.6613636,
                "end_time": 8.6795455,
                "pitch": 79,
                "velocity": 20,
                "duration": 0.0181818,
                "tempo": 120.0
            },
            {
                "start_time": 8.6818182,
                "end_time": 8.9136364,
                "pitch": 54,
                "velocity": 51,
                "duration": 0.2318182,
                "tempo": 120.0
            },
            {
                "start_time": 8.9136364,
                "end_time": 9.1477273,
                "pitch": 54,
                "velocity": 40,
                "duration": 0.2340909,
                "tempo": 120.0
            },
            {
                "start_time": 9.15,
                "end_time": 9.3704545,
                "pitch": 54,
                "velocity": 32,
                "duration": 0.2204545,
                "tempo": 120.0
            },
            {
                "start_time": 9.3727273,
                "end_time": 9.6113636,
                "pitch": 54,
                "velocity": 25,
                "duration": 0.2386364,
                "tempo": 120.0
            },
            {
                "start_time": 9.6113636,
                "end_time": 9.8409091,
                "pitch": 54,
                "velocity": 20,
                "duration": 0.2295455,
                "tempo": 120.0
            },
            {
                "start_time": 9.8409091,
                "end_time": 10.0704545,
                "pitch": 54,
                "velocity": 16,
                "duration": 0.2295455,
                "tempo": 120.0
            },
            {
                "start_time": 10.0704545,
                "end_time": 10.3045455,
                "pitch": 54,
                "velocity": 13,
                "duration": 0.2340909,
                "tempo": 120.0
            },
            {
                "start_time": 10.3045455,
                "end_time": 10.5386364,
                "pitch": 54,
                "velocity": 10,
                "duration": 0.2340909,
                "tempo": 120.0
            },
            {
                "start_time": 10.5386364,
                "end_time": 10.7727273,
                "pitch": 54,
                "velocity": 8,
                "duration": 0.2340909,
                "tempo": 120.0
            },
            {
                "start_time": 10.7727273,
                "end_time": 10.9909091,
                "pitch": 54,
                "velocity": 6,
                "duration": 0.2181818,
                "tempo": 120.0
            },
            {
                "start_time": 10.9909091,
                "end_time": 11.2295455,
                "pitch": 54,
                "velocity": 5,
                "duration": 0.2386364,
                "tempo": 120.0
            },
            {
                "start_time": 11.2295455,
                "end_time": 11.4727273,
                "pitch": 54,
                "velocity": 4,
                "duration": 0.2431818,
                "tempo": 120.0
            },
            {
                "start_time": 11.4727273,
                "end_time": 11.6022727,
                "pitch": 79,
                "velocity": 20,
                "duration": 0.1295455,
                "tempo": 120.0
            },
            {
                "start_time": 8.6613636,
                "end_time": 11.6022727,
                "pitch": 91,
                "velocity": 20,
                "duration": 2.9409091,
                "tempo": 120.0
            },
            {
                "start_time": 11.6022727,
                "end_time": 11.8045455,
                "pitch": 79,
                "velocity": 20,
                "duration": 0.2022727,
                "tempo": 120.0
            },
            {
                "start_time": 11.6022727,
                "end_time": 11.8045455,
                "pitch": 91,
                "velocity": 20,
                "duration": 0.2022727,
                "tempo": 120.0
            },
            {
                "start_time": 11.8045455,
                "end_time": 11.9886364,
                "pitch": 79,
                "velocity": 20,
                "duration": 0.1840909,
                "tempo": 120.0
            },
            {
                "start_time": 11.8045455,
                "end_time": 11.9886364,
                "pitch": 91,
                "velocity": 20,
                "duration": 0.1840909,
                "tempo": 120.0
            },
            {
                "start_time": 11.9886364,
                "end_time": 12.1954545,
                "pitch": 79,
                "velocity": 20,
                "duration": 0.2068182,
                "tempo": 120.0
            },
            {
                "start_time": 11.9886364,
                "end_time": 12.1954545,
                "pitch": 91,
                "velocity": 20,
                "duration": 0.2068182,
                "tempo": 120.0
            },
            {
                "start_time": 12.1954545,
                "end_time": 12.3840909,
                "pitch": 79,
                "velocity": 20,
                "duration": 0.1886364,
                "tempo": 120.0
            },
            {
                "start_time": 12.1954545,
                "end_time": 12.3840909,
                "pitch": 91,
                "velocity": 20,
                "duration": 0.1886364,
                "tempo": 120.0
            },
            {
                "start_time": 12.3840909,
                "end_time": 12.4022727,
                "pitch": 79,
                "velocity": 20,
                "duration": 0.0181818,
                "tempo": 120.0
            },
            {
                "start_time": 12.4022727,
                "end_time": 12.6295455,
                "pitch": 54,
                "velocity": 51,
                "duration": 0.2272727,
                "tempo": 120.0
            },
            {
                "start_time": 12.6318182,
                "end_time": 12.8590909,
                "pitch": 54,
                "velocity": 40,
                "duration": 0.2272727,
                "tempo": 120.0
            },
            {
                "start_time": 12.8590909,
                "end_time": 13.1,
                "pitch": 54,
                "velocity": 32,
                "duration": 0.2409091,
                "tempo": 120.0
            },
            {
                "start_time": 13.1,
                "end_time": 13.3386364,
                "pitch": 54,
                "velocity": 25,
                "duration": 0.2386364,
                "tempo": 120.0
            },
            {
                "start_time": 13.3386364,
                "end_time": 13.5727273,
                "pitch": 54,
                "velocity": 20,
                "duration": 0.2340909,
                "tempo": 120.0
            },
            {
                "start_time": 13.5727273,
                "end_time": 13.8068182,
                "pitch": 54,
                "velocity": 16,
                "duration": 0.2340909,
                "tempo": 120.0
            },
            {
                "start_time": 13.8090909,
                "end_time": 14.0295455,
                "pitch": 54,
                "velocity": 13,
                "duration": 0.2204545,
                "tempo": 120.0
            },
            {
                "start_time": 14.0318182,
                "end_time": 14.2704545,
                "pitch": 54,
                "velocity": 10,
                "duration": 0.2386364,
                "tempo": 120.0
            },
            {
                "start_time": 14.2704545,
                "end_time": 14.5045455,
                "pitch": 54,
                "velocity": 8,
                "duration": 0.2340909,
                "tempo": 120.0
            },
            {
                "start_time": 14.5045455,
                "end_time": 14.7386364,
                "pitch": 54,
                "velocity": 6,
                "duration": 0.2340909,
                "tempo": 120.0
            },
            {
                "start_time": 14.7409091,
                "end_time": 14.9727273,
                "pitch": 54,
                "velocity": 5,
                "duration": 0.2318182,
                "tempo": 120.0
            },
            {
                "start_time": 14.9727273,
                "end_time": 15.2113636,
                "pitch": 54,
                "velocity": 4,
                "duration": 0.2386364,
                "tempo": 120.0
            },
            {
                "start_time": 15.2113636,
                "end_time": 15.3409091,
                "pitch": 79,
                "velocity": 20,
                "duration": 0.1295455,
                "tempo": 120.0
            },
            {
                "start_time": 12.3840909,
                "end_time": 15.3409091,
                "pitch": 91,
                "velocity": 20,
                "duration": 2.9568182,
                "tempo": 120.0
            },
            {
                "start_time": 15.3409091,
                "end_time": 15.525,
                "pitch": 79,
                "velocity": 20,
                "duration": 0.1840909,
                "tempo": 120.0
            },
            {
                "start_time": 15.3409091,
                "end_time": 15.525,
                "pitch": 91,
                "velocity": 20,
                "duration": 0.1840909,
                "tempo": 120.0
            },
            {
                "start_time": 15.525,
                "end_time": 15.725,
                "pitch": 79,
                "velocity": 20,
                "duration": 0.2,
                "tempo": 120.0
            },
            {
                "start_time": 15.525,
                "end_time": 15.7272727,
                "pitch": 91,
                "velocity": 20,
                "duration": 0.2022727,
                "tempo": 120.0
            },
            {
                "start_time": 15.725,
                "end_time": 15.7272727,
                "pitch": 91,
                "velocity": 20,
                "duration": 0.0022727,
                "tempo": 120.0
            },
            {
                "start_time": 15.7272727,
                "end_time": 15.9113636,
                "pitch": 79,
                "velocity": 20,
                "duration": 0.1840909,
                "tempo": 120.0
            },
            {
                "start_time": 15.9113636,
                "end_time": 16.1113636,
                "pitch": 79,
                "velocity": 20,
                "duration": 0.2,
                "tempo": 120.0
            },
            {
                "start_time": 15.9113636,
                "end_time": 16.1113636,
                "pitch": 91,
                "velocity": 20,
                "duration": 0.2,
                "tempo": 120.0
            },
            {
                "start_time": 16.1113636,
                "end_time": 16.1295455,
                "pitch": 79,
                "velocity": 20,
                "duration": 0.0181818,
                "tempo": 120.0
            },
            {
                "start_time": 16.1295455,
                "end_time": 16.3681818,
                "pitch": 54,
                "velocity": 51,
                "duration": 0.2386364,
                "tempo": 120.0
            },
            {
                "start_time": 16.3681818,
                "end_time": 16.6090909,
                "pitch": 54,
                "velocity": 40,
                "duration": 0.2409091,
                "tempo": 120.0
            },
            {
                "start_time": 16.6090909,
                "end_time": 16.8431818,
                "pitch": 54,
                "velocity": 32,
                "duration": 0.2340909,
                "tempo": 120.0
            },
            {
                "start_time": 16.8431818,
                "end_time": 17.0613636,
                "pitch": 54,
                "velocity": 25,
                "duration": 0.2181818,
                "tempo": 120.0
            },
            {
                "start_time": 17.0613636,
                "end_time": 17.2886364,
                "pitch": 54,
                "velocity": 20,
                "duration": 0.2272727,
                "tempo": 120.0
            },
            {
                "start_time": 17.2909091,
                "end_time": 17.5181818,
                "pitch": 54,
                "velocity": 16,
                "duration": 0.2272727,
                "tempo": 120.0
            },
            {
                "start_time": 17.5181818,
                "end_time": 17.7590909,
                "pitch": 54,
                "velocity": 13,
                "duration": 0.2409091,
                "tempo": 120.0
            },
            {
                "start_time": 17.7590909,
                "end_time": 17.9977273,
                "pitch": 54,
                "velocity": 10,
                "duration": 0.2386364,
                "tempo": 120.0
            },
            {
                "start_time": 17.9977273,
                "end_time": 18.2386364,
                "pitch": 54,
                "velocity": 8,
                "duration": 0.2409091,
                "tempo": 120.0
            },
            {
                "start_time": 18.2386364,
                "end_time": 18.4613636,
                "pitch": 54,
                "velocity": 6,
                "duration": 0.2227273,
                "tempo": 120.0
            },
            {
                "start_time": 18.4613636,
                "end_time": 18.6909091,
                "pitch": 54,
                "velocity": 5,
                "duration": 0.2295455,
                "tempo": 120.0
            },
            {
                "start_time": 18.6909091,
                "end_time": 18.9227273,
                "pitch": 54,
                "velocity": 4,
                "duration": 0.2318182,
                "tempo": 120.0
            },
            {
                "start_time": 18.9227273,
                "end_time": 19.0522727,
                "pitch": 79,
                "velocity": 20,
                "duration": 0.1295455,
                "tempo": 120.0
            },
            {
                "start_time": 16.1113636,
                "end_time": 19.0522727,
                "pitch": 91,
                "velocity": 20,
                "duration": 2.9409091,
                "tempo": 120.0
            },
            {
                "start_time": 19.0522727,
                "end_time": 19.2522727,
                "pitch": 79,
                "velocity": 20,
                "duration": 0.2,
                "tempo": 120.0
            },
            {
                "start_time": 19.0522727,
                "end_time": 19.2545455,
                "pitch": 91,
                "velocity": 20,
                "duration": 0.2022727,
                "tempo": 120.0
            },
            {
                "start_time": 19.2522727,
                "end_time": 19.2545455,
                "pitch": 91,
                "velocity": 20,
                "duration": 0.0022727,
                "tempo": 120.0
            },
            {
                "start_time": 19.2545455,
                "end_time": 19.4386364,
                "pitch": 79,
                "velocity": 20,
                "duration": 0.1840909,
                "tempo": 120.0
            },
            {
                "start_time": 19.4386364,
                "end_time": 19.6431818,
                "pitch": 79,
                "velocity": 20,
                "duration": 0.2045455,
                "tempo": 120.0
            },
            {
                "start_time": 19.4386364,
                "end_time": 19.6431818,
                "pitch": 91,
                "velocity": 20,
                "duration": 0.2045455,
                "tempo": 120.0
            },
            {
                "start_time": 19.6431818,
                "end_time": 19.8318182,
                "pitch": 79,
                "velocity": 20,
                "duration": 0.1886364,
                "tempo": 120.0
            },
            {
                "start_time": 19.6431818,
                "end_time": 19.8318182,
                "pitch": 91,
                "velocity": 20,
                "duration": 0.1886364,
                "tempo": 120.0
            },
            {
                "start_time": 19.8318182,
                "end_time": 19.8681818,
                "pitch": 79,
                "velocity": 20,
                "duration": 0.0363636,
                "tempo": 120.0
            },
            {
                "start_time": 19.8681818,
                "end_time": 20.0909091,
                "pitch": 54,
                "velocity": 51,
                "duration": 0.2227273,
                "tempo": 120.0
            },
            {
                "start_time": 20.0909091,
                "end_time": 20.3318182,
                "pitch": 54,
                "velocity": 40,
                "duration": 0.2409091,
                "tempo": 120.0
            },
            {
                "start_time": 20.3318182,
                "end_time": 20.5659091,
                "pitch": 54,
                "velocity": 32,
                "duration": 0.2340909,
                "tempo": 120.0
            },
            {
                "start_time": 20.5659091,
                "end_time": 20.8,
                "pitch": 54,
                "velocity": 25,
                "duration": 0.2340909,
                "tempo": 120.0
            },
            {
                "start_time": 20.8,
                "end_time": 21.0340909,
                "pitch": 54,
                "velocity": 20,
                "duration": 0.2340909,
                "tempo": 120.0
            },
            {
                "start_time": 21.0340909,
                "end_time": 21.2681818,
                "pitch": 54,
                "velocity": 16,
                "duration": 0.2340909,
                "tempo": 120.0
            },
            {
                "start_time": 21.2681818,
                "end_time": 21.4863636,
                "pitch": 54,
                "velocity": 13,
                "duration": 0.2181818,
                "tempo": 120.0
            },
            {
                "start_time": 21.4863636,
                "end_time": 21.7204545,
                "pitch": 54,
                "velocity": 10,
                "duration": 0.2340909,
                "tempo": 120.0
            },
            {
                "start_time": 21.7204545,
                "end_time": 21.9545455,
                "pitch": 54,
                "velocity": 8,
                "duration": 0.2340909,
                "tempo": 120.0
            },
            {
                "start_time": 21.9545455,
                "end_time": 22.1886364,
                "pitch": 54,
                "velocity": 6,
                "duration": 0.2340909,
                "tempo": 120.0
            },
            {
                "start_time": 22.1886364,
                "end_time": 22.4227273,
                "pitch": 54,
                "velocity": 5,
                "duration": 0.2340909,
                "tempo": 120.0
            },
            {
                "start_time": 22.4227273,
                "end_time": 22.6613636,
                "pitch": 54,
                "velocity": 4,
                "duration": 0.2386364,
                "tempo": 120.0
            },
            {
                "start_time": 22.6613636,
                "end_time": 22.7931818,
                "pitch": 79,
                "velocity": 20,
                "duration": 0.1318182,
                "tempo": 120.0
            },
            {
                "start_time": 19.8318182,
                "end_time": 22.7931818,
                "pitch": 91,
                "velocity": 20,
                "duration": 2.9613636,
                "tempo": 120.0
            },
            {
                "start_time": 22.7931818,
                "end_time": 22.9818182,
                "pitch": 79,
                "velocity": 20,
                "duration": 0.1886364,
                "tempo": 120.0
            },
            {
                "start_time": 22.7931818,
                "end_time": 22.9818182,
                "pitch": 91,
                "velocity": 20,
                "duration": 0.1886364,
                "tempo": 120.0
            },
            {
                "start_time": 22.9818182,
                "end_time": 23.1840909,
                "pitch": 79,
                "velocity": 20,
                "duration": 0.2022727,
                "tempo": 120.0
            },
            {
                "start_time": 22.9818182,
                "end_time": 23.1840909,
                "pitch": 91,
                "velocity": 20,
                "duration": 0.2022727,
                "tempo": 120.0
            },
            {
                "start_time": 23.1840909,
                "end_time": 23.3659091,
                "pitch": 79,
                "velocity": 20,
                "duration": 0.1818182,
                "tempo": 120.0
            },
            {
                "start_time": 23.1840909,
                "end_time": 23.3659091,
                "pitch": 91,
                "velocity": 20,
                "duration": 0.1818182,
                "tempo": 120.0
            },
            {
                "start_time": 23.3659091,
                "end_time": 23.5613636,
                "pitch": 79,
                "velocity": 20,
                "duration": 0.1954545,
                "tempo": 120.0
            },
            {
                "start_time": 23.3659091,
                "end_time": 23.5613636,
                "pitch": 91,
                "velocity": 20,
                "duration": 0.1954545,
                "tempo": 120.0
            },
            {
                "start_time": 23.5613636,
                "end_time": 23.5795455,
                "pitch": 79,
                "velocity": 20,
                "duration": 0.0181818,
                "tempo": 120.0
            },
            {
                "start_time": 23.5795455,
                "end_time": 23.8181818,
                "pitch": 54,
                "velocity": 51,
                "duration": 0.2386364,
                "tempo": 120.0
            },
            {
                "start_time": 23.8181818,
                "end_time": 24.0590909,
                "pitch": 54,
                "velocity": 40,
                "duration": 0.2409091,
                "tempo": 120.0
            },
            {
                "start_time": 24.0590909,
                "end_time": 24.2931818,
                "pitch": 54,
                "velocity": 32,
                "duration": 0.2340909,
                "tempo": 120.0
            },
            {
                "start_time": 24.2931818,
                "end_time": 24.5113636,
                "pitch": 54,
                "velocity": 25,
                "duration": 0.2181818,
                "tempo": 120.0
            },
            {
                "start_time": 24.5113636,
                "end_time": 24.7454545,
                "pitch": 54,
                "velocity": 20,
                "duration": 0.2340909,
                "tempo": 120.0
            },
            {
                "start_time": 24.7454545,
                "end_time": 24.9795455,
                "pitch": 54,
                "velocity": 16,
                "duration": 0.2340909,
                "tempo": 120.0
            },
            {
                "start_time": 24.9795455,
                "end_time": 25.2136364,
                "pitch": 54,
                "velocity": 13,
                "duration": 0.2340909,
                "tempo": 120.0
            },
            {
                "start_time": 25.2136364,
                "end_time": 25.4477273,
                "pitch": 54,
                "velocity": 10,
                "duration": 0.2340909,
                "tempo": 120.0
            },
            {
                "start_time": 25.4477273,
                "end_time": 25.6886364,
                "pitch": 54,
                "velocity": 8,
                "duration": 0.2409091,
                "tempo": 120.0
            },
            {
                "start_time": 25.6886364,
                "end_time": 25.9272727,
                "pitch": 54,
                "velocity": 6,
                "duration": 0.2386364,
                "tempo": 120.0
            },
            {
                "start_time": 25.9272727,
                "end_time": 26.1454545,
                "pitch": 54,
                "velocity": 5,
                "duration": 0.2181818,
                "tempo": 120.0
            },
            {
                "start_time": 26.1454545,
                "end_time": 26.3818182,
                "pitch": 54,
                "velocity": 4,
                "duration": 0.2363636,
                "tempo": 120.0
            },
            {
                "start_time": 26.3840909,
                "end_time": 26.5090909,
                "pitch": 79,
                "velocity": 20,
                "duration": 0.125,
                "tempo": 120.0
            },
            {
                "start_time": 23.5613636,
                "end_time": 26.5090909,
                "pitch": 91,
                "velocity": 20,
                "duration": 2.9477273,
                "tempo": 120.0
            },
            {
                "start_time": 26.5090909,
                "end_time": 26.7068182,
                "pitch": 79,
                "velocity": 20,
                "duration": 0.1977273,
                "tempo": 120.0
            },
            {
                "start_time": 26.5090909,
                "end_time": 26.7068182,
                "pitch": 91,
                "velocity": 20,
                "duration": 0.1977273,
                "tempo": 120.0
            },
            {
                "start_time": 26.7068182,
                "end_time": 26.8886364,
                "pitch": 79,
                "velocity": 20,
                "duration": 0.1818182,
                "tempo": 120.0
            },
            {
                "start_time": 26.7068182,
                "end_time": 26.8886364,
                "pitch": 91,
                "velocity": 20,
                "duration": 0.1818182,
                "tempo": 120.0
            },
            {
                "start_time": 26.8886364,
                "end_time": 27.0931818,
                "pitch": 79,
                "velocity": 20,
                "duration": 0.2045455,
                "tempo": 120.0
            },
            {
                "start_time": 26.8886364,
                "end_time": 27.0931818,
                "pitch": 91,
                "velocity": 20,
                "duration": 0.2045455,
                "tempo": 120.0
            },
            {
                "start_time": 27.0931818,
                "end_time": 27.2818182,
                "pitch": 79,
                "velocity": 20,
                "duration": 0.1886364,
                "tempo": 120.0
            },
            {
                "start_time": 27.0931818,
                "end_time": 27.2818182,
                "pitch": 91,
                "velocity": 20,
                "duration": 0.1886364,
                "tempo": 120.0
            },
            {
                "start_time": 27.2818182,
                "end_time": 27.3181818,
                "pitch": 79,
                "velocity": 20,
                "duration": 0.0363636,
                "tempo": 120.0
            },
            {
                "start_time": 27.3181818,
                "end_time": 27.5409091,
                "pitch": 54,
                "velocity": 51,
                "duration": 0.2227273,
                "tempo": 120.0
            },
            {
                "start_time": 27.5409091,
                "end_time": 27.7795455,
                "pitch": 54,
                "velocity": 40,
                "duration": 0.2386364,
                "tempo": 120.0
            },
            {
                "start_time": 27.7818182,
                "end_time": 28.0159091,
                "pitch": 54,
                "velocity": 32,
                "duration": 0.2340909,
                "tempo": 120.0
            },
            {
                "start_time": 28.0159091,
                "end_time": 28.25,
                "pitch": 54,
                "velocity": 25,
                "duration": 0.2340909,
                "tempo": 120.0
            },
            {
                "start_time": 28.25,
                "end_time": 28.4840909,
                "pitch": 54,
                "velocity": 20,
                "duration": 0.2340909,
                "tempo": 120.0
            },
            {
                "start_time": 28.4840909,
                "end_time": 28.7181818,
                "pitch": 54,
                "velocity": 16,
                "duration": 0.2340909,
                "tempo": 120.0
            },
            {
                "start_time": 28.7181818,
                "end_time": 28.9522727,
                "pitch": 54,
                "velocity": 13,
                "duration": 0.2340909,
                "tempo": 120.0
            },
            {
                "start_time": 28.9522727,
                "end_time": 29.1704545,
                "pitch": 54,
                "velocity": 10,
                "duration": 0.2181818,
                "tempo": 120.0
            },
            {
                "start_time": 29.1704545,
                "end_time": 29.4045455,
                "pitch": 54,
                "velocity": 8,
                "duration": 0.2340909,
                "tempo": 120.0
            },
            {
                "start_time": 29.4045455,
                "end_time": 29.6386364,
                "pitch": 54,
                "velocity": 6,
                "duration": 0.2340909,
                "tempo": 120.0
            },
            {
                "start_time": 29.6386364,
                "end_time": 29.8727273,
                "pitch": 54,
                "velocity": 5,
                "duration": 0.2340909,
                "tempo": 120.0
            },
            {
                "start_time": 29.8727273,
                "end_time": 30.1090909,
                "pitch": 54,
                "velocity": 4,
                "duration": 0.2363636,
                "tempo": 120.0
            },
            {
                "start_time": 30.1113636,
                "end_time": 30.2431818,
                "pitch": 79,
                "velocity": 20,
                "duration": 0.1318182,
                "tempo": 120.0
            },
            {
                "start_time": 27.2818182,
                "end_time": 30.2431818,
                "pitch": 91,
                "velocity": 20,
                "duration": 2.9613636,
                "tempo": 120.0
            },
            {
                "start_time": 30.2431818,
                "end_time": 30.4318182,
                "pitch": 79,
                "velocity": 20,
                "duration": 0.1886364,
                "tempo": 120.0
            },
            {
                "start_time": 30.2431818,
                "end_time": 30.4318182,
                "pitch": 91,
                "velocity": 20,
                "duration": 0.1886364,
                "tempo": 120.0
            },
            {
                "start_time": 30.4318182,
                "end_time": 30.6340909,
                "pitch": 79,
                "velocity": 20,
                "duration": 0.2022727,
                "tempo": 120.0
            },
            {
                "start_time": 30.4318182,
                "end_time": 30.6340909,
                "pitch": 91,
                "velocity": 20,
                "duration": 0.2022727,
                "tempo": 120.0
            },
            {
                "start_time": 30.6340909,
                "end_time": 30.8136364,
                "pitch": 79,
                "velocity": 20,
                "duration": 0.1795455,
                "tempo": 120.0
            },
            {
                "start_time": 30.6340909,
                "end_time": 30.8136364,
                "pitch": 91,
                "velocity": 20,
                "duration": 0.1795455,
                "tempo": 120.0
            },
            {
                "start_time": 30.8136364,
                "end_time": 31.0113636,
                "pitch": 79,
                "velocity": 20,
                "duration": 0.1977273,
                "tempo": 120.0
            },
            {
                "start_time": 30.8136364,
                "end_time": 31.0113636,
                "pitch": 91,
                "velocity": 20,
                "duration": 0.1977273,
                "tempo": 120.0
            },
            {
                "start_time": 31.0113636,
                "end_time": 31.0295455,
                "pitch": 79,
                "velocity": 20,
                "duration": 0.0181818,
                "tempo": 120.0
            },
            {
                "start_time": 31.0295455,
                "end_time": 31.2681818,
                "pitch": 54,
                "velocity": 51,
                "duration": 0.2386364,
                "tempo": 120.0
            },
            {
                "start_time": 31.2681818,
                "end_time": 31.5068182,
                "pitch": 54,
                "velocity": 40,
                "duration": 0.2386364,
                "tempo": 120.0
            },
            {
                "start_time": 31.5090909,
                "end_time": 31.7431818,
                "pitch": 54,
                "velocity": 32,
                "duration": 0.2340909,
                "tempo": 120.0
            },
            {
                "start_time": 31.7431818,
                "end_time": 31.975,
                "pitch": 54,
                "velocity": 25,
                "duration": 0.2318182,
                "tempo": 120.0
            },
            {
                "start_time": 31.9772727,
                "end_time": 32.1886364,
                "pitch": 54,
                "velocity": 20,
                "duration": 0.2113636,
                "tempo": 120.0
            },
            {
                "start_time": 32.1886364,
                "end_time": 32.4181818,
                "pitch": 54,
                "velocity": 16,
                "duration": 0.2295455,
                "tempo": 120.0
            },
            {
                "start_time": 32.4181818,
                "end_time": 32.6636364,
                "pitch": 54,
                "velocity": 13,
                "duration": 0.2454545,
                "tempo": 120.0
            },
            {
                "start_time": 32.6636364,
                "end_time": 32.9068182,
                "pitch": 54,
                "velocity": 10,
                "duration": 0.2431818,
                "tempo": 120.0
            },
            {
                "start_time": 32.9090909,
                "end_time": 33.1363636,
                "pitch": 54,
                "velocity": 8,
                "duration": 0.2272727,
                "tempo": 120.0
            },
            {
                "start_time": 33.1363636,
                "end_time": 33.3659091,
                "pitch": 54,
                "velocity": 6,
                "duration": 0.2295455,
                "tempo": 120.0
            },
            {
                "start_time": 33.3659091,
                "end_time": 33.5886364,
                "pitch": 54,
                "velocity": 5,
                "duration": 0.2227273,
                "tempo": 120.0
            },
            {
                "start_time": 33.5886364,
                "end_time": 33.8318182,
                "pitch": 54,
                "velocity": 4,
                "duration": 0.2431818,
                "tempo": 120.0
            },
            {
                "start_time": 33.8318182,
                "end_time": 33.9613636,
                "pitch": 79,
                "velocity": 20,
                "duration": 0.1295455,
                "tempo": 120.0
            },
            {
                "start_time": 31.0113636,
                "end_time": 33.9613636,
                "pitch": 91,
                "velocity": 20,
                "duration": 2.95,
                "tempo": 120.0
            },
            {
                "start_time": 33.9613636,
                "end_time": 34.1636364,
                "pitch": 79,
                "velocity": 20,
                "duration": 0.2022727,
                "tempo": 120.0
            },
            {
                "start_time": 33.9613636,
                "end_time": 34.1636364,
                "pitch": 91,
                "velocity": 20,
                "duration": 0.2022727,
                "tempo": 120.0
            },
            {
                "start_time": 34.1636364,
                "end_time": 34.3477273,
                "pitch": 79,
                "velocity": 20,
                "duration": 0.1840909,
                "tempo": 120.0
            },
            {
                "start_time": 34.1636364,
                "end_time": 34.3477273,
                "pitch": 91,
                "velocity": 20,
                "duration": 0.1840909,
                "tempo": 120.0
            },
            {
                "start_time": 34.3477273,
                "end_time": 34.5545455,
                "pitch": 79,
                "velocity": 20,
                "duration": 0.2068182,
                "tempo": 120.0
            },
            {
                "start_time": 34.3477273,
                "end_time": 34.5545455,
                "pitch": 91,
                "velocity": 20,
                "duration": 0.2068182,
                "tempo": 120.0
            },
            {
                "start_time": 34.5545455,
                "end_time": 34.7590909,
                "pitch": 79,
                "velocity": 20,
                "duration": 0.2045455,
                "tempo": 120.0
            },
            {
                "start_time": 34.5545455,
                "end_time": 34.7590909,
                "pitch": 91,
                "velocity": 20,
                "duration": 0.2045455,
                "tempo": 120.0
            },
            {
                "start_time": 34.7590909,
                "end_time": 34.7772727,
                "pitch": 79,
                "velocity": 20,
                "duration": 0.0181818,
                "tempo": 120.0
            },
            {
                "start_time": 34.7795455,
                "end_time": 35.0181818,
                "pitch": 54,
                "velocity": 51,
                "duration": 0.2386364,
                "tempo": 120.0
            },
            {
                "start_time": 35.0181818,
                "end_time": 35.2409091,
                "pitch": 54,
                "velocity": 40,
                "duration": 0.2227273,
                "tempo": 120.0
            },
            {
                "start_time": 35.2409091,
                "end_time": 35.4704545,
                "pitch": 54,
                "velocity": 32,
                "duration": 0.2295455,
                "tempo": 120.0
            },
            {
                "start_time": 35.4704545,
                "end_time": 35.6977273,
                "pitch": 54,
                "velocity": 25,
                "duration": 0.2272727,
                "tempo": 120.0
            },
            {
                "start_time": 35.7,
                "end_time": 35.9340909,
                "pitch": 54,
                "velocity": 20,
                "duration": 0.2340909,
                "tempo": 120.0
            },
            {
                "start_time": 35.9340909,
                "end_time": 36.1681818,
                "pitch": 54,
                "velocity": 16,
                "duration": 0.2340909,
                "tempo": 120.0
            },
            {
                "start_time": 36.1681818,
                "end_time": 36.4068182,
                "pitch": 54,
                "velocity": 13,
                "duration": 0.2386364,
                "tempo": 120.0
            },
            {
                "start_time": 36.4068182,
                "end_time": 36.6295455,
                "pitch": 54,
                "velocity": 10,
                "duration": 0.2227273,
                "tempo": 120.0
            },
            {
                "start_time": 36.6295455,
                "end_time": 36.8636364,
                "pitch": 54,
                "velocity": 8,
                "duration": 0.2340909,
                "tempo": 120.0
            },
            {
                "start_time": 36.8659091,
                "end_time": 37.1,
                "pitch": 54,
                "velocity": 6,
                "duration": 0.2340909,
                "tempo": 120.0
            },
            {
                "start_time": 37.1,
                "end_time": 37.3386364,
                "pitch": 54,
                "velocity": 5,
                "duration": 0.2386364,
                "tempo": 120.0
            },
            {
                "start_time": 37.3386364,
                "end_time": 37.5818182,
                "pitch": 54,
                "velocity": 4,
                "duration": 0.2431818,
                "tempo": 120.0
            },
            {
                "start_time": 37.5818182,
                "end_time": 37.7090909,
                "pitch": 79,
                "velocity": 20,
                "duration": 0.1272727,
                "tempo": 120.0
            },
            {
                "start_time": 34.7590909,
                "end_time": 37.7090909,
                "pitch": 91,
                "velocity": 20,
                "duration": 2.95,
                "tempo": 120.0
            },
            {
                "start_time": 37.7090909,
                "end_time": 37.8886364,
                "pitch": 79,
                "velocity": 20,
                "duration": 0.1795455,
                "tempo": 120.0
            },
            {
                "start_time": 37.7090909,
                "end_time": 37.8886364,
                "pitch": 91,
                "velocity": 20,
                "duration": 0.1795455,
                "tempo": 120.0
            },
            {
                "start_time": 37.8886364,
                "end_time": 38.0863636,
                "pitch": 79,
                "velocity": 20,
                "duration": 0.1977273,
                "tempo": 120.0
            },
            {
                "start_time": 37.8886364,
                "end_time": 38.0863636,
                "pitch": 91,
                "velocity": 20,
                "duration": 0.1977273,
                "tempo": 120.0
            },
            {
                "start_time": 38.0863636,
                "end_time": 38.2931818,
                "pitch": 79,
                "velocity": 20,
                "duration": 0.2068182,
                "tempo": 120.0
            },
            {
                "start_time": 38.0863636,
                "end_time": 38.2931818,
                "pitch": 91,
                "velocity": 20,
                "duration": 0.2068182,
                "tempo": 120.0
            },
            {
                "start_time": 38.2931818,
                "end_time": 38.4818182,
                "pitch": 79,
                "velocity": 20,
                "duration": 0.1886364,
                "tempo": 120.0
            },
            {
                "start_time": 38.2931818,
                "end_time": 38.4818182,
                "pitch": 91,
                "velocity": 20,
                "duration": 0.1886364,
                "tempo": 120.0
            },
            {
                "start_time": 38.4818182,
                "end_time": 38.5,
                "pitch": 79,
                "velocity": 20,
                "duration": 0.0181818,
                "tempo": 120.0
            },
            {
                "start_time": 38.5,
                "end_time": 38.7295455,
                "pitch": 54,
                "velocity": 51,
                "duration": 0.2295455,
                "tempo": 120.0
            },
            {
                "start_time": 38.7295455,
                "end_time": 38.9568182,
                "pitch": 54,
                "velocity": 40,
                "duration": 0.2272727,
                "tempo": 120.0
            },
            {
                "start_time": 38.9590909,
                "end_time": 39.1977273,
                "pitch": 54,
                "velocity": 32,
                "duration": 0.2386364,
                "tempo": 120.0
            },
            {
                "start_time": 39.1977273,
                "end_time": 39.4363636,
                "pitch": 54,
                "velocity": 25,
                "duration": 0.2386364,
                "tempo": 120.0
            },
            {
                "start_time": 39.4386364,
                "end_time": 39.6590909,
                "pitch": 54,
                "velocity": 20,
                "duration": 0.2204545,
                "tempo": 120.0
            },
            {
                "start_time": 39.6613636,
                "end_time": 39.9,
                "pitch": 54,
                "velocity": 16,
                "duration": 0.2386364,
                "tempo": 120.0
            },
            {
                "start_time": 39.9,
                "end_time": 40.1295455,
                "pitch": 54,
                "velocity": 13,
                "duration": 0.2295455,
                "tempo": 120.0
            },
            {
                "start_time": 40.1295455,
                "end_time": 40.3590909,
                "pitch": 54,
                "velocity": 10,
                "duration": 0.2295455,
                "tempo": 120.0
            },
            {
                "start_time": 40.3590909,
                "end_time": 40.5931818,
                "pitch": 54,
                "velocity": 8,
                "duration": 0.2340909,
                "tempo": 120.0
            },
            {
                "start_time": 40.5931818,
                "end_time": 40.8272727,
                "pitch": 54,
                "velocity": 6,
                "duration": 0.2340909,
                "tempo": 120.0
            },
            {
                "start_time": 40.8272727,
                "end_time": 41.0659091,
                "pitch": 54,
                "velocity": 5,
                "duration": 0.2386364,
                "tempo": 120.0
            },
            {
                "start_time": 41.0659091,
                "end_time": 41.2931818,
                "pitch": 54,
                "velocity": 4,
                "duration": 0.2272727,
                "tempo": 120.0
            },
            {
                "start_time": 41.2931818,
                "end_time": 41.4204545,
                "pitch": 79,
                "velocity": 20,
                "duration": 0.1272727,
                "tempo": 120.0
            },
            {
                "start_time": 38.4818182,
                "end_time": 41.4204545,
                "pitch": 91,
                "velocity": 20,
                "duration": 2.9386364,
                "tempo": 120.0
            },
            {
                "start_time": 41.4204545,
                "end_time": 41.6159091,
                "pitch": 79,
                "velocity": 20,
                "duration": 0.1954545,
                "tempo": 120.0
            },
            {
                "start_time": 41.4204545,
                "end_time": 41.6159091,
                "pitch": 91,
                "velocity": 20,
                "duration": 0.1954545,
                "tempo": 120.0
            },
            {
                "start_time": 41.6159091,
                "end_time": 41.8159091,
                "pitch": 79,
                "velocity": 20,
                "duration": 0.2,
                "tempo": 120.0
            },
            {
                "start_time": 41.6159091,
                "end_time": 41.8159091,
                "pitch": 91,
                "velocity": 20,
                "duration": 0.2,
                "tempo": 120.0
            },
            {
                "start_time": 41.8159091,
                "end_time": 42.0045455,
                "pitch": 79,
                "velocity": 20,
                "duration": 0.1886364,
                "tempo": 120.0
            },
            {
                "start_time": 41.8159091,
                "end_time": 42.0045455,
                "pitch": 91,
                "velocity": 20,
                "duration": 0.1886364,
                "tempo": 120.0
            },
            {
                "start_time": 42.0045455,
                "end_time": 42.2090909,
                "pitch": 79,
                "velocity": 20,
                "duration": 0.2045455,
                "tempo": 120.0
            },
            {
                "start_time": 42.0045455,
                "end_time": 42.2090909,
                "pitch": 91,
                "velocity": 20,
                "duration": 0.2045455,
                "tempo": 120.0
            },
            {
                "start_time": 42.2090909,
                "end_time": 42.2272727,
                "pitch": 79,
                "velocity": 20,
                "duration": 0.0181818,
                "tempo": 120.0
            },
            {
                "start_time": 42.2295455,
                "end_time": 42.4681818,
                "pitch": 54,
                "velocity": 51,
                "duration": 0.2386364,
                "tempo": 120.0
            },
            {
                "start_time": 42.4681818,
                "end_time": 42.6909091,
                "pitch": 54,
                "velocity": 40,
                "duration": 0.2227273,
                "tempo": 120.0
            },
            {
                "start_time": 42.6909091,
                "end_time": 42.9204545,
                "pitch": 54,
                "velocity": 32,
                "duration": 0.2295455,
                "tempo": 120.0
            },
            {
                "start_time": 42.9204545,
                "end_time": 43.1477273,
                "pitch": 54,
                "velocity": 25,
                "duration": 0.2272727,
                "tempo": 120.0
            },
            {
                "start_time": 43.15,
                "end_time": 43.3840909,
                "pitch": 54,
                "velocity": 20,
                "duration": 0.2340909,
                "tempo": 120.0
            },
            {
                "start_time": 43.3840909,
                "end_time": 43.6159091,
                "pitch": 54,
                "velocity": 16,
                "duration": 0.2318182,
                "tempo": 120.0
            },
            {
                "start_time": 43.6181818,
                "end_time": 43.8454545,
                "pitch": 54,
                "velocity": 13,
                "duration": 0.2272727,
                "tempo": 120.0
            },
            {
                "start_time": 43.8454545,
                "end_time": 44.075,
                "pitch": 54,
                "velocity": 10,
                "duration": 0.2295455,
                "tempo": 120.0
            },
            {
                "start_time": 44.075,
                "end_time": 44.3022727,
                "pitch": 54,
                "velocity": 8,
                "duration": 0.2272727,
                "tempo": 120.0
            },
            {
                "start_time": 44.3022727,
                "end_time": 44.5454545,
                "pitch": 54,
                "velocity": 6,
                "duration": 0.2431818,
                "tempo": 120.0
            },
            {
                "start_time": 44.5454545,
                "end_time": 44.775,
                "pitch": 54,
                "velocity": 5,
                "duration": 0.2295455,
                "tempo": 120.0
            },
            {
                "start_time": 44.775,
                "end_time": 45.0068182,
                "pitch": 54,
                "velocity": 4,
                "duration": 0.2318182,
                "tempo": 120.0
            },
            {
                "start_time": 45.0068182,
                "end_time": 45.1386364,
                "pitch": 79,
                "velocity": 20,
                "duration": 0.1318182,
                "tempo": 120.0
            },
            {
                "start_time": 42.2090909,
                "end_time": 45.1386364,
                "pitch": 91,
                "velocity": 20,
                "duration": 2.9295455,
                "tempo": 120.0
            },
            {
                "start_time": 45.1386364,
                "end_time": 45.3454545,
                "pitch": 79,
                "velocity": 20,
                "duration": 0.2068182,
                "tempo": 120.0
            },
            {
                "start_time": 45.1386364,
                "end_time": 45.3454545,
                "pitch": 91,
                "velocity": 20,
                "duration": 0.2068182,
                "tempo": 120.0
            },
            {
                "start_time": 45.3454545,
                "end_time": 45.5318182,
                "pitch": 79,
                "velocity": 20,
                "duration": 0.1863636,
                "tempo": 120.0
            },
            {
                "start_time": 45.3454545,
                "end_time": 45.5318182,
                "pitch": 91,
                "velocity": 20,
                "duration": 0.1863636,
                "tempo": 120.0
            },
            {
                "start_time": 45.5318182,
                "end_time": 45.7340909,
                "pitch": 79,
                "velocity": 20,
                "duration": 0.2022727,
                "tempo": 120.0
            },
            {
                "start_time": 45.5318182,
                "end_time": 45.7340909,
                "pitch": 91,
                "velocity": 20,
                "duration": 0.2022727,
                "tempo": 120.0
            },
            {
                "start_time": 45.7340909,
                "end_time": 45.9181818,
                "pitch": 79,
                "velocity": 20,
                "duration": 0.1840909,
                "tempo": 120.0
            },
            {
                "start_time": 45.7340909,
                "end_time": 45.9181818,
                "pitch": 91,
                "velocity": 20,
                "duration": 0.1840909,
                "tempo": 120.0
            },
            {
                "start_time": 45.9181818,
                "end_time": 45.9363636,
                "pitch": 79,
                "velocity": 20,
                "duration": 0.0181818,
                "tempo": 120.0
            },
            {
                "start_time": 45.9363636,
                "end_time": 46.175,
                "pitch": 54,
                "velocity": 51,
                "duration": 0.2386364,
                "tempo": 120.0
            },
            {
                "start_time": 46.175,
                "end_time": 46.4136364,
                "pitch": 54,
                "velocity": 40,
                "duration": 0.2386364,
                "tempo": 120.0
            },
            {
                "start_time": 46.4159091,
                "end_time": 46.65,
                "pitch": 54,
                "velocity": 32,
                "duration": 0.2340909,
                "tempo": 120.0
            },
            {
                "start_time": 46.65,
                "end_time": 46.8840909,
                "pitch": 54,
                "velocity": 25,
                "duration": 0.2340909,
                "tempo": 120.0
            },
            {
                "start_time": 46.8840909,
                "end_time": 47.1227273,
                "pitch": 54,
                "velocity": 20,
                "duration": 0.2386364,
                "tempo": 120.0
            },
            {
                "start_time": 47.1227273,
                "end_time": 47.3454545,
                "pitch": 54,
                "velocity": 16,
                "duration": 0.2227273,
                "tempo": 120.0
            },
            {
                "start_time": 47.3454545,
                "end_time": 47.575,
                "pitch": 54,
                "velocity": 13,
                "duration": 0.2295455,
                "tempo": 120.0
            },
            {
                "start_time": 47.575,
                "end_time": 47.8045455,
                "pitch": 54,
                "velocity": 10,
                "duration": 0.2295455,
                "tempo": 120.0
            },
            {
                "start_time": 47.8045455,
                "end_time": 48.0431818,
                "pitch": 54,
                "velocity": 8,
                "duration": 0.2386364,
                "tempo": 120.0
            },
            {
                "start_time": 48.0454545,
                "end_time": 48.2840909,
                "pitch": 54,
                "velocity": 6,
                "duration": 0.2386364,
                "tempo": 120.0
            },
            {
                "start_time": 48.2840909,
                "end_time": 48.5181818,
                "pitch": 54,
                "velocity": 5,
                "duration": 0.2340909,
                "tempo": 120.0
            },
            {
                "start_time": 48.5181818,
                "end_time": 48.7386364,
                "pitch": 54,
                "velocity": 4,
                "duration": 0.2204545,
                "tempo": 120.0
            },
            {
                "start_time": 48.7386364,
                "end_time": 48.8818182,
                "pitch": 79,
                "velocity": 20,
                "duration": 0.1431818,
                "tempo": 120.0
            },
            {
                "start_time": 45.9181818,
                "end_time": 48.8818182,
                "pitch": 91,
                "velocity": 20,
                "duration": 2.9636364,
                "tempo": 120.0
            },
            {
                "start_time": 48.8818182,
                "end_time": 49.0613636,
                "pitch": 79,
                "velocity": 20,
                "duration": 0.1795455,
                "tempo": 120.0
            },
            {
                "start_time": 48.8818182,
                "end_time": 49.0613636,
                "pitch": 91,
                "velocity": 20,
                "duration": 0.1795455,
                "tempo": 120.0
            },
            {
                "start_time": 49.0613636,
                "end_time": 49.2613636,
                "pitch": 79,
                "velocity": 20,
                "duration": 0.2,
                "tempo": 120.0
            },
            {
                "start_time": 49.0613636,
                "end_time": 49.2613636,
                "pitch": 91,
                "velocity": 20,
                "duration": 0.2,
                "tempo": 120.0
            },
            {
                "start_time": 49.2613636,
                "end_time": 49.45,
                "pitch": 79,
                "velocity": 20,
                "duration": 0.1886364,
                "tempo": 120.0
            },
            {
                "start_time": 49.2613636,
                "end_time": 49.45,
                "pitch": 91,
                "velocity": 20,
                "duration": 0.1886364,
                "tempo": 120.0
            },
            {
                "start_time": 49.45,
                "end_time": 49.6568182,
                "pitch": 79,
                "velocity": 20,
                "duration": 0.2068182,
                "tempo": 120.0
            },
            {
                "start_time": 49.45,
                "end_time": 49.6568182,
                "pitch": 91,
                "velocity": 20,
                "duration": 0.2068182,
                "tempo": 120.0
            },
            {
                "start_time": 49.6568182,
                "end_time": 49.675,
                "pitch": 79,
                "velocity": 20,
                "duration": 0.0181818,
                "tempo": 120.0
            },
            {
                "start_time": 49.675,
                "end_time": 49.9136364,
                "pitch": 54,
                "velocity": 51,
                "duration": 0.2386364,
                "tempo": 120.0
            },
            {
                "start_time": 49.9136364,
                "end_time": 50.1545455,
                "pitch": 54,
                "velocity": 40,
                "duration": 0.2409091,
                "tempo": 120.0
            },
            {
                "start_time": 50.1545455,
                "end_time": 50.3772727,
                "pitch": 54,
                "velocity": 32,
                "duration": 0.2227273,
                "tempo": 120.0
            },
            {
                "start_time": 50.3772727,
                "end_time": 50.6159091,
                "pitch": 54,
                "velocity": 25,
                "duration": 0.2386364,
                "tempo": 120.0
            },
            {
                "start_time": 50.6159091,
                "end_time": 50.8454545,
                "pitch": 54,
                "velocity": 20,
                "duration": 0.2295455,
                "tempo": 120.0
            },
            {
                "start_time": 50.8454545,
                "end_time": 51.075,
                "pitch": 54,
                "velocity": 16,
                "duration": 0.2295455,
                "tempo": 120.0
            },
            {
                "start_time": 51.075,
                "end_time": 51.3090909,
                "pitch": 54,
                "velocity": 13,
                "duration": 0.2340909,
                "tempo": 120.0
            },
            {
                "start_time": 51.3090909,
                "end_time": 51.5431818,
                "pitch": 54,
                "velocity": 10,
                "duration": 0.2340909,
                "tempo": 120.0
            },
            {
                "start_time": 51.5431818,
                "end_time": 51.7659091,
                "pitch": 54,
                "velocity": 8,
                "duration": 0.2227273,
                "tempo": 120.0
            },
            {
                "start_time": 51.7659091,
                "end_time": 52.0068182,
                "pitch": 54,
                "velocity": 6,
                "duration": 0.2409091,
                "tempo": 120.0
            },
            {
                "start_time": 52.0068182,
                "end_time": 52.2340909,
                "pitch": 54,
                "velocity": 5,
                "duration": 0.2272727,
                "tempo": 120.0
            },
            {
                "start_time": 52.2340909,
                "end_time": 52.4681818,
                "pitch": 54,
                "velocity": 4,
                "duration": 0.2340909,
                "tempo": 120.0
            },
            {
                "start_time": 52.4681818,
                "end_time": 52.6,
                "pitch": 79,
                "velocity": 20,
                "duration": 0.1318182,
                "tempo": 120.0
            },
            {
                "start_time": 49.6568182,
                "end_time": 52.6,
                "pitch": 91,
                "velocity": 20,
                "duration": 2.9431818,
                "tempo": 120.0
            },
            {
                "start_time": 52.6,
                "end_time": 52.8068182,
                "pitch": 79,
                "velocity": 20,
                "duration": 0.2068182,
                "tempo": 120.0
            },
            {
                "start_time": 52.6,
                "end_time": 52.8068182,
                "pitch": 91,
                "velocity": 20,
                "duration": 0.2068182,
                "tempo": 120.0
            },
            {
                "start_time": 52.8068182,
                "end_time": 52.9931818,
                "pitch": 79,
                "velocity": 20,
                "duration": 0.1863636,
                "tempo": 120.0
            },
            {
                "start_time": 52.8068182,
                "end_time": 52.9931818,
                "pitch": 91,
                "velocity": 20,
                "duration": 0.1863636,
                "tempo": 120.0
            },
            {
                "start_time": 52.9931818,
                "end_time": 53.1931818,
                "pitch": 79,
                "velocity": 20,
                "duration": 0.2,
                "tempo": 120.0
            },
            {
                "start_time": 52.9931818,
                "end_time": 53.1931818,
                "pitch": 91,
                "velocity": 20,
                "duration": 0.2,
                "tempo": 120.0
            },
            {
                "start_time": 53.1931818,
                "end_time": 53.3772727,
                "pitch": 79,
                "velocity": 20,
                "duration": 0.1840909,
                "tempo": 120.0
            },
            {
                "start_time": 53.1931818,
                "end_time": 53.3772727,
                "pitch": 91,
                "velocity": 20,
                "duration": 0.1840909,
                "tempo": 120.0
            },
            {
                "start_time": 53.3772727,
                "end_time": 53.3954545,
                "pitch": 79,
                "velocity": 20,
                "duration": 0.0181818,
                "tempo": 120.0
            },
            {
                "start_time": 53.3977273,
                "end_time": 53.6295455,
                "pitch": 54,
                "velocity": 51,
                "duration": 0.2318182,
                "tempo": 120.0
            },
            {
                "start_time": 53.6318182,
                "end_time": 53.8636364,
                "pitch": 54,
                "velocity": 40,
                "duration": 0.2318182,
                "tempo": 120.0
            },
            {
                "start_time": 53.8659091,
                "end_time": 54.1,
                "pitch": 54,
                "velocity": 32,
                "duration": 0.2340909,
                "tempo": 120.0
            },
            {
                "start_time": 54.1,
                "end_time": 54.3340909,
                "pitch": 54,
                "velocity": 25,
                "duration": 0.2340909,
                "tempo": 120.0
            },
            {
                "start_time": 54.3340909,
                "end_time": 54.5681818,
                "pitch": 54,
                "velocity": 20,
                "duration": 0.2340909,
                "tempo": 120.0
            },
            {
                "start_time": 54.5681818,
                "end_time": 54.7863636,
                "pitch": 54,
                "velocity": 16,
                "duration": 0.2181818,
                "tempo": 120.0
            },
            {
                "start_time": 54.7863636,
                "end_time": 55.025,
                "pitch": 54,
                "velocity": 13,
                "duration": 0.2386364,
                "tempo": 120.0
            },
            {
                "start_time": 55.025,
                "end_time": 55.2659091,
                "pitch": 54,
                "velocity": 10,
                "duration": 0.2409091,
                "tempo": 120.0
            },
            {
                "start_time": 55.2659091,
                "end_time": 55.5,
                "pitch": 54,
                "velocity": 8,
                "duration": 0.2340909,
                "tempo": 120.0
            },
            {
                "start_time": 55.5,
                "end_time": 55.7318182,
                "pitch": 54,
                "velocity": 6,
                "duration": 0.2318182,
                "tempo": 120.0
            },
            {
                "start_time": 55.7340909,
                "end_time": 55.9568182,
                "pitch": 54,
                "velocity": 5,
                "duration": 0.2227273,
                "tempo": 120.0
            },
            {
                "start_time": 55.9568182,
                "end_time": 56.1840909,
                "pitch": 54,
                "velocity": 4,
                "duration": 0.2272727,
                "tempo": 120.0
            },
            {
                "start_time": 56.1840909,
                "end_time": 56.3227273,
                "pitch": 79,
                "velocity": 20,
                "duration": 0.1386364,
                "tempo": 120.0
            },
            {
                "start_time": 53.3772727,
                "end_time": 56.3227273,
                "pitch": 91,
                "velocity": 20,
                "duration": 2.9454545,
                "tempo": 120.0
            },
            {
                "start_time": 56.3227273,
                "end_time": 56.5181818,
                "pitch": 79,
                "velocity": 20,
                "duration": 0.1954545,
                "tempo": 120.0
            },
            {
                "start_time": 56.3227273,
                "end_time": 56.5181818,
                "pitch": 91,
                "velocity": 20,
                "duration": 0.1954545,
                "tempo": 120.0
            },
            {
                "start_time": 56.5181818,
                "end_time": 56.7272727,
                "pitch": 79,
                "velocity": 20,
                "duration": 0.2090909,
                "tempo": 120.0
            },
            {
                "start_time": 56.5181818,
                "end_time": 56.7272727,
                "pitch": 91,
                "velocity": 20,
                "duration": 0.2090909,
                "tempo": 120.0
            },
            {
                "start_time": 56.7272727,
                "end_time": 56.9068182,
                "pitch": 79,
                "velocity": 20,
                "duration": 0.1795455,
                "tempo": 120.0
            },
            {
                "start_time": 56.7272727,
                "end_time": 56.9068182,
                "pitch": 91,
                "velocity": 20,
                "duration": 0.1795455,
                "tempo": 120.0
            },
            {
                "start_time": 56.9068182,
                "end_time": 57.1022727,
                "pitch": 79,
                "velocity": 20,
                "duration": 0.1954545,
                "tempo": 120.0
            },
            {
                "start_time": 56.9068182,
                "end_time": 57.1022727,
                "pitch": 91,
                "velocity": 20,
                "duration": 0.1954545,
                "tempo": 120.0
            },
            {
                "start_time": 57.1022727,
                "end_time": 57.1204545,
                "pitch": 79,
                "velocity": 20,
                "duration": 0.0181818,
                "tempo": 120.0
            },
            {
                "start_time": 57.1204545,
                "end_time": 57.3659091,
                "pitch": 54,
                "velocity": 51,
                "duration": 0.2454545,
                "tempo": 120.0
            },
            {
                "start_time": 57.3659091,
                "end_time": 57.6113636,
                "pitch": 54,
                "velocity": 40,
                "duration": 0.2454545,
                "tempo": 120.0
            },
            {
                "start_time": 57.6113636,
                "end_time": 57.8295455,
                "pitch": 54,
                "velocity": 32,
                "duration": 0.2181818,
                "tempo": 120.0
            },
            {
                "start_time": 57.8295455,
                "end_time": 58.0636364,
                "pitch": 54,
                "velocity": 25,
                "duration": 0.2340909,
                "tempo": 120.0
            },
            {
                "start_time": 58.0636364,
                "end_time": 58.2977273,
                "pitch": 54,
                "velocity": 20,
                "duration": 0.2340909,
                "tempo": 120.0
            },
            {
                "start_time": 58.2977273,
                "end_time": 58.5318182,
                "pitch": 54,
                "velocity": 16,
                "duration": 0.2340909,
                "tempo": 120.0
            },
            {
                "start_time": 58.5318182,
                "end_time": 58.7659091,
                "pitch": 54,
                "velocity": 13,
                "duration": 0.2340909,
                "tempo": 120.0
            },
            {
                "start_time": 58.7659091,
                "end_time": 59.0,
                "pitch": 54,
                "velocity": 10,
                "duration": 0.2340909,
                "tempo": 120.0
            },
            {
                "start_time": 59.0022727,
                "end_time": 59.2409091,
                "pitch": 54,
                "velocity": 8,
                "duration": 0.2386364,
                "tempo": 120.0
            },
            {
                "start_time": 59.2409091,
                "end_time": 59.4636364,
                "pitch": 54,
                "velocity": 6,
                "duration": 0.2227273,
                "tempo": 120.0
            },
            {
                "start_time": 59.4636364,
                "end_time": 59.6863636,
                "pitch": 54,
                "velocity": 5,
                "duration": 0.2227273,
                "tempo": 120.0
            },
            {
                "start_time": 59.6863636,
                "end_time": 59.9136364,
                "pitch": 54,
                "velocity": 4,
                "duration": 0.2272727,
                "tempo": 120.0
            },
            {
                "start_time": 59.9136364,
                "end_time": 60.0477273,
                "pitch": 79,
                "velocity": 20,
                "duration": 0.1340909,
                "tempo": 120.0
            },
            {
                "start_time": 57.1022727,
                "end_time": 60.0477273,
                "pitch": 91,
                "velocity": 20,
                "duration": 2.9454545,
                "tempo": 120.0
            },
            {
                "start_time": 60.0477273,
                "end_time": 60.2522727,
                "pitch": 79,
                "velocity": 20,
                "duration": 0.2045455,
                "tempo": 120.0
            },
            {
                "start_time": 60.0477273,
                "end_time": 60.2522727,
                "pitch": 91,
                "velocity": 20,
                "duration": 0.2045455,
                "tempo": 120.0
            },
            {
                "start_time": 60.2522727,
                "end_time": 60.4409091,
                "pitch": 79,
                "velocity": 20,
                "duration": 0.1886364,
                "tempo": 120.0
            },
            {
                "start_time": 60.2522727,
                "end_time": 60.4409091,
                "pitch": 91,
                "velocity": 20,
                "duration": 0.1886364,
                "tempo": 120.0
            },
            {
                "start_time": 60.4409091,
                "end_time": 60.6477273,
                "pitch": 79,
                "velocity": 20,
                "duration": 0.2068182,
                "tempo": 120.0
            },
            {
                "start_time": 60.4409091,
                "end_time": 60.6477273,
                "pitch": 91,
                "velocity": 20,
                "duration": 0.2068182,
                "tempo": 120.0
            },
            {
                "start_time": 60.6477273,
                "end_time": 60.8363636,
                "pitch": 79,
                "velocity": 20,
                "duration": 0.1886364,
                "tempo": 120.0
            },
            {
                "start_time": 60.6477273,
                "end_time": 60.8363636,
                "pitch": 91,
                "velocity": 20,
                "duration": 0.1886364,
                "tempo": 120.0
            },
            {
                "start_time": 60.8363636,
                "end_time": 60.8545455,
                "pitch": 79,
                "velocity": 20,
                "duration": 0.0181818,
                "tempo": 120.0
            },
            {
                "start_time": 60.8545455,
                "end_time": 61.0818182,
                "pitch": 54,
                "velocity": 51,
                "duration": 0.2272727,
                "tempo": 120.0
            },
            {
                "start_time": 61.0840909,
                "end_time": 61.3113636,
                "pitch": 54,
                "velocity": 40,
                "duration": 0.2272727,
                "tempo": 120.0
            },
            {
                "start_time": 61.3113636,
                "end_time": 61.5522727,
                "pitch": 54,
                "velocity": 32,
                "duration": 0.2409091,
                "tempo": 120.0
            },
            {
                "start_time": 61.5522727,
                "end_time": 61.7909091,
                "pitch": 54,
                "velocity": 25,
                "duration": 0.2386364,
                "tempo": 120.0
            },
            {
                "start_time": 61.7909091,
                "end_time": 62.0318182,
                "pitch": 54,
                "velocity": 20,
                "duration": 0.2409091,
                "tempo": 120.0
            },
            {
                "start_time": 62.0318182,
                "end_time": 62.2704545,
                "pitch": 54,
                "velocity": 16,
                "duration": 0.2386364,
                "tempo": 120.0
            },
            {
                "start_time": 62.2727273,
                "end_time": 62.4886364,
                "pitch": 54,
                "velocity": 13,
                "duration": 0.2159091,
                "tempo": 120.0
            },
            {
                "start_time": 62.4886364,
                "end_time": 62.7227273,
                "pitch": 54,
                "velocity": 10,
                "duration": 0.2340909,
                "tempo": 120.0
            },
            {
                "start_time": 62.7227273,
                "end_time": 62.9568182,
                "pitch": 54,
                "velocity": 8,
                "duration": 0.2340909,
                "tempo": 120.0
            },
            {
                "start_time": 62.9590909,
                "end_time": 63.1909091,
                "pitch": 54,
                "velocity": 6,
                "duration": 0.2318182,
                "tempo": 120.0
            },
            {
                "start_time": 63.1931818,
                "end_time": 63.425,
                "pitch": 54,
                "velocity": 5,
                "duration": 0.2318182,
                "tempo": 120.0
            },
            {
                "start_time": 63.4272727,
                "end_time": 63.6590909,
                "pitch": 54,
                "velocity": 4,
                "duration": 0.2318182,
                "tempo": 120.0
            }
        ],
        "Clarinet": [
            {
                "start_time": 3.2090909,
                "end_time": 3.2431818,
                "pitch": 89,
                "velocity": 25,
                "duration": 0.0340909,
                "tempo": 120.0
            },
            {
                "start_time": 3.2431818,
                "end_time": 3.2772727,
                "pitch": 86,
                "velocity": 25,
                "duration": 0.0340909,
                "tempo": 120.0
            },
            {
                "start_time": 3.2772727,
                "end_time": 3.3136364,
                "pitch": 88,
                "velocity": 25,
                "duration": 0.0363636,
                "tempo": 120.0
            },
            {
                "start_time": 3.3136364,
                "end_time": 3.3636364,
                "pitch": 84,
                "velocity": 25,
                "duration": 0.05,
                "tempo": 120.0
            },
            {
                "start_time": 3.3636364,
                "end_time": 3.3977273,
                "pitch": 93,
                "velocity": 25,
                "duration": 0.0340909,
                "tempo": 120.0
            },
            {
                "start_time": 3.3977273,
                "end_time": 3.4318182,
                "pitch": 84,
                "velocity": 25,
                "duration": 0.0340909,
                "tempo": 120.0
            },
            {
                "start_time": 3.4318182,
                "end_time": 3.4818182,
                "pitch": 89,
                "velocity": 25,
                "duration": 0.05,
                "tempo": 120.0
            },
            {
                "start_time": 3.4818182,
                "end_time": 3.5159091,
                "pitch": 91,
                "velocity": 25,
                "duration": 0.0340909,
                "tempo": 120.0
            },
            {
                "start_time": 3.5181818,
                "end_time": 3.5522727,
                "pitch": 95,
                "velocity": 25,
                "duration": 0.0340909,
                "tempo": 120.0
            },
            {
                "start_time": 3.5522727,
                "end_time": 3.6,
                "pitch": 88,
                "velocity": 25,
                "duration": 0.0477273,
                "tempo": 120.0
            },
            {
                "start_time": 3.6,
                "end_time": 3.6340909,
                "pitch": 89,
                "velocity": 20,
                "duration": 0.0340909,
                "tempo": 120.0
            },
            {
                "start_time": 3.6340909,
                "end_time": 3.6659091,
                "pitch": 86,
                "velocity": 20,
                "duration": 0.0318182,
                "tempo": 120.0
            },
            {
                "start_time": 3.6659091,
                "end_time": 3.7136364,
                "pitch": 88,
                "velocity": 20,
                "duration": 0.0477273,
                "tempo": 120.0
            },
            {
                "start_time": 3.7159091,
                "end_time": 3.7477273,
                "pitch": 84,
                "velocity": 20,
                "duration": 0.0318182,
                "tempo": 120.0
            },
            {
                "start_time": 3.7477273,
                "end_time": 3.7818182,
                "pitch": 93,
                "velocity": 20,
                "duration": 0.0340909,
                "tempo": 120.0
            },
            {
                "start_time": 3.7818182,
                "end_time": 3.8136364,
                "pitch": 84,
                "velocity": 20,
                "duration": 0.0318182,
                "tempo": 120.0
            },
            {
                "start_time": 3.8136364,
                "end_time": 3.8613636,
                "pitch": 89,
                "velocity": 20,
                "duration": 0.0477273,
                "tempo": 120.0
            },
            {
                "start_time": 3.8613636,
                "end_time": 3.8954545,
                "pitch": 91,
                "velocity": 20,
                "duration": 0.0340909,
                "tempo": 120.0
            },
            {
                "start_time": 3.8954545,
                "end_time": 3.9272727,
                "pitch": 95,
                "velocity": 20,
                "duration": 0.0318182,
                "tempo": 120.0
            },
            {
                "start_time": 3.9272727,
                "end_time": 3.9772727,
                "pitch": 88,
                "velocity": 20,
                "duration": 0.05,
                "tempo": 120.0
            },
            {
                "start_time": 3.9772727,
                "end_time": 4.0136364,
                "pitch": 89,
                "velocity": 16,
                "duration": 0.0363636,
                "tempo": 120.0
            },
            {
                "start_time": 4.0136364,
                "end_time": 4.0431818,
                "pitch": 86,
                "velocity": 16,
                "duration": 0.0295455,
                "tempo": 120.0
            },
            {
                "start_time": 4.0431818,
                "end_time": 4.0954545,
                "pitch": 88,
                "velocity": 16,
                "duration": 0.0522727,
                "tempo": 120.0
            },
            {
                "start_time": 4.0954545,
                "end_time": 4.1295455,
                "pitch": 84,
                "velocity": 16,
                "duration": 0.0340909,
                "tempo": 120.0
            },
            {
                "start_time": 4.1295455,
                "end_time": 4.1636364,
                "pitch": 93,
                "velocity": 16,
                "duration": 0.0340909,
                "tempo": 120.0
            },
            {
                "start_time": 4.1636364,
                "end_time": 4.2159091,
                "pitch": 84,
                "velocity": 16,
                "duration": 0.0522727,
                "tempo": 120.0
            },
            {
                "start_time": 4.2159091,
                "end_time": 4.25,
                "pitch": 89,
                "velocity": 16,
                "duration": 0.0340909,
                "tempo": 120.0
            },
            {
                "start_time": 4.25,
                "end_time": 4.2840909,
                "pitch": 91,
                "velocity": 16,
                "duration": 0.0340909,
                "tempo": 120.0
            },
            {
                "start_time": 4.2840909,
                "end_time": 4.3181818,
                "pitch": 95,
                "velocity": 16,
                "duration": 0.0340909,
                "tempo": 120.0
            },
            {
                "start_time": 4.3181818,
                "end_time": 4.3704545,
                "pitch": 88,
                "velocity": 16,
                "duration": 0.0522727,
                "tempo": 120.0
            },
            {
                "start_time": 4.3704545,
                "end_time": 4.4022727,
                "pitch": 89,
                "velocity": 13,
                "duration": 0.0318182,
                "tempo": 120.0
            },
            {
                "start_time": 4.4045455,
                "end_time": 4.4386364,
                "pitch": 86,
                "velocity": 13,
                "duration": 0.0340909,
                "tempo": 120.0
            },
            {
                "start_time": 4.4386364,
                "end_time": 4.4909091,
                "pitch": 88,
                "velocity": 13,
                "duration": 0.0522727,
                "tempo": 120.0
            },
            {
                "start_time": 4.4909091,
                "end_time": 4.5227273,
                "pitch": 84,
                "velocity": 13,
                "duration": 0.0318182,
                "tempo": 120.0
            },
            {
                "start_time": 4.5227273,
                "end_time": 4.5568182,
                "pitch": 93,
                "velocity": 13,
                "duration": 0.0340909,
                "tempo": 120.0
            },
            {
                "start_time": 4.5568182,
                "end_time": 4.6068182,
                "pitch": 84,
                "velocity": 13,
                "duration": 0.05,
                "tempo": 120.0
            },
            {
                "start_time": 4.6068182,
                "end_time": 4.6386364,
                "pitch": 89,
                "velocity": 13,
                "duration": 0.0318182,
                "tempo": 120.0
            },
            {
                "start_time": 4.6409091,
                "end_time": 4.6727273,
                "pitch": 91,
                "velocity": 13,
                "duration": 0.0318182,
                "tempo": 120.0
            },
            {
                "start_time": 4.6727273,
                "end_time": 4.7227273,
                "pitch": 95,
                "velocity": 13,
                "duration": 0.05,
                "tempo": 120.0
            },
            {
                "start_time": 4.725,
                "end_time": 4.7568182,
                "pitch": 88,
                "velocity": 13,
                "duration": 0.0318182,
                "tempo": 120.0
            },
            {
                "start_time": 4.7568182,
                "end_time": 4.7909091,
                "pitch": 89,
                "velocity": 10,
                "duration": 0.0340909,
                "tempo": 120.0
            },
            {
                "start_time": 4.7909091,
                "end_time": 4.825,
                "pitch": 86,
                "velocity": 10,
                "duration": 0.0340909,
                "tempo": 120.0
            },
            {
                "start_time": 4.825,
                "end_time": 4.875,
                "pitch": 88,
                "velocity": 10,
                "duration": 0.05,
                "tempo": 120.0
            },
            {
                "start_time": 4.875,
                "end_time": 4.9068182,
                "pitch": 84,
                "velocity": 10,
                "duration": 0.0318182,
                "tempo": 120.0
            },
            {
                "start_time": 4.9068182,
                "end_time": 4.9431818,
                "pitch": 93,
                "velocity": 10,
                "duration": 0.0363636,
                "tempo": 120.0
            },
            {
                "start_time": 4.9431818,
                "end_time": 4.9909091,
                "pitch": 84,
                "velocity": 10,
                "duration": 0.0477273,
                "tempo": 120.0
            },
            {
                "start_time": 4.9909091,
                "end_time": 5.025,
                "pitch": 89,
                "velocity": 10,
                "duration": 0.0340909,
                "tempo": 120.0
            },
            {
                "start_time": 5.025,
                "end_time": 5.0590909,
                "pitch": 91,
                "velocity": 10,
                "duration": 0.0340909,
                "tempo": 120.0
            },
            {
                "start_time": 5.0590909,
                "end_time": 5.1090909,
                "pitch": 95,
                "velocity": 10,
                "duration": 0.05,
                "tempo": 120.0
            },
            {
                "start_time": 5.1090909,
                "end_time": 5.1409091,
                "pitch": 88,
                "velocity": 10,
                "duration": 0.0318182,
                "tempo": 120.0
            },
            {
                "start_time": 5.1431818,
                "end_time": 5.1772727,
                "pitch": 89,
                "velocity": 8,
                "duration": 0.0340909,
                "tempo": 120.0
            },
            {
                "start_time": 5.1772727,
                "end_time": 5.225,
                "pitch": 86,
                "velocity": 8,
                "duration": 0.0477273,
                "tempo": 120.0
            },
            {
                "start_time": 5.225,
                "end_time": 5.2590909,
                "pitch": 88,
                "velocity": 8,
                "duration": 0.0340909,
                "tempo": 120.0
            },
            {
                "start_time": 5.2590909,
                "end_time": 5.2931818,
                "pitch": 84,
                "velocity": 8,
                "duration": 0.0340909,
                "tempo": 120.0
            },
            {
                "start_time": 5.2931818,
                "end_time": 5.325,
                "pitch": 93,
                "velocity": 8,
                "duration": 0.0318182,
                "tempo": 120.0
            },
            {
                "start_time": 5.3272727,
                "end_time": 5.3772727,
                "pitch": 84,
                "velocity": 8,
                "duration": 0.05,
                "tempo": 120.0
            },
            {
                "start_time": 5.3772727,
                "end_time": 5.4113636,
                "pitch": 89,
                "velocity": 8,
                "duration": 0.0340909,
                "tempo": 120.0
            },
            {
                "start_time": 5.4113636,
                "end_time": 5.4431818,
                "pitch": 91,
                "velocity": 8,
                "duration": 0.0318182,
                "tempo": 120.0
            },
            {
                "start_time": 5.4431818,
                "end_time": 5.4931818,
                "pitch": 95,
                "velocity": 8,
                "duration": 0.05,
                "tempo": 120.0
            },
            {
                "start_time": 5.4931818,
                "end_time": 5.5272727,
                "pitch": 88,
                "velocity": 8,
                "duration": 0.0340909,
                "tempo": 120.0
            },
            {
                "start_time": 9.6613636,
                "end_time": 9.675,
                "pitch": 74,
                "velocity": 51,
                "duration": 0.0136364,
                "tempo": 120.0
            },
            {
                "start_time": 9.6772727,
                "end_time": 9.6931818,
                "pitch": 77,
                "velocity": 51,
                "duration": 0.0159091,
                "tempo": 120.0
            },
            {
                "start_time": 9.6931818,
                "end_time": 9.7090909,
                "pitch": 76,
                "velocity": 51,
                "duration": 0.0159091,
                "tempo": 120.0
            },
            {
                "start_time": 9.7090909,
                "end_time": 9.725,
                "pitch": 83,
                "velocity": 51,
                "duration": 0.0159091,
                "tempo": 120.0
            },
            {
                "start_time": 9.725,
                "end_time": 9.7409091,
                "pitch": 79,
                "velocity": 51,
                "duration": 0.0159091,
                "tempo": 120.0
            },
            {
                "start_time": 9.7409091,
                "end_time": 9.775,
                "pitch": 81,
                "velocity": 51,
                "duration": 0.0340909,
                "tempo": 120.0
            },
            {
                "start_time": 9.775,
                "end_time": 9.7909091,
                "pitch": 72,
                "velocity": 51,
                "duration": 0.0159091,
                "tempo": 120.0
            },
            {
                "start_time": 9.7909091,
                "end_time": 9.8068182,
                "pitch": 76,
                "velocity": 51,
                "duration": 0.0159091,
                "tempo": 120.0
            },
            {
                "start_time": 9.8068182,
                "end_time": 9.8227273,
                "pitch": 79,
                "velocity": 51,
                "duration": 0.0159091,
                "tempo": 120.0
            },
            {
                "start_time": 9.8227273,
                "end_time": 9.8409091,
                "pitch": 77,
                "velocity": 51,
                "duration": 0.0181818,
                "tempo": 120.0
            },
            {
                "start_time": 9.8409091,
                "end_time": 9.8568182,
                "pitch": 81,
                "velocity": 51,
                "duration": 0.0159091,
                "tempo": 120.0
            },
            {
                "start_time": 9.8568182,
                "end_time": 9.8727273,
                "pitch": 81,
                "velocity": 51,
                "duration": 0.0159091,
                "tempo": 120.0
            },
            {
                "start_time": 9.8727273,
                "end_time": 9.9045455,
                "pitch": 72,
                "velocity": 51,
                "duration": 0.0318182,
                "tempo": 120.0
            },
            {
                "start_time": 9.9045455,
                "end_time": 9.9204545,
                "pitch": 83,
                "velocity": 51,
                "duration": 0.0159091,
                "tempo": 120.0
            },
            {
                "start_time": 9.9227273,
                "end_time": 9.9386364,
                "pitch": 74,
                "velocity": 40,
                "duration": 0.0159091,
                "tempo": 120.0
            },
            {
                "start_time": 9.9386364,
                "end_time": 9.9545455,
                "pitch": 77,
                "velocity": 40,
                "duration": 0.0159091,
                "tempo": 120.0
            },
            {
                "start_time": 9.9545455,
                "end_time": 9.9704545,
                "pitch": 76,
                "velocity": 40,
                "duration": 0.0159091,
                "tempo": 120.0
            },
            {
                "start_time": 9.9704545,
                "end_time": 9.9863636,
                "pitch": 83,
                "velocity": 40,
                "duration": 0.0159091,
                "tempo": 120.0
            },
            {
                "start_time": 9.9863636,
                "end_time": 10.0204545,
                "pitch": 79,
                "velocity": 40,
                "duration": 0.0340909,
                "tempo": 120.0
            },
            {
                "start_time": 10.0204545,
                "end_time": 10.0363636,
                "pitch": 81,
                "velocity": 40,
                "duration": 0.0159091,
                "tempo": 120.0
            },
            {
                "start_time": 10.0363636,
                "end_time": 10.0522727,
                "pitch": 72,
                "velocity": 40,
                "duration": 0.0159091,
                "tempo": 120.0
            },
            {
                "start_time": 10.0522727,
                "end_time": 10.0704545,
                "pitch": 76,
                "velocity": 40,
                "duration": 0.0181818,
                "tempo": 120.0
            },
            {
                "start_time": 10.0704545,
                "end_time": 10.0863636,
                "pitch": 79,
                "velocity": 40,
                "duration": 0.0159091,
                "tempo": 120.0
            },
            {
                "start_time": 10.0863636,
                "end_time": 10.1022727,
                "pitch": 77,
                "velocity": 40,
                "duration": 0.0159091,
                "tempo": 120.0
            },
            {
                "start_time": 10.1022727,
                "end_time": 10.1181818,
                "pitch": 81,
                "velocity": 40,
                "duration": 0.0159091,
                "tempo": 120.0
            },
            {
                "start_time": 10.1204545,
                "end_time": 10.1522727,
                "pitch": 81,
                "velocity": 40,
                "duration": 0.0318182,
                "tempo": 120.0
            },
            {
                "start_time": 10.1522727,
                "end_time": 10.1704545,
                "pitch": 72,
                "velocity": 40,
                "duration": 0.0181818,
                "tempo": 120.0
            },
            {
                "start_time": 10.1704545,
                "end_time": 10.1863636,
                "pitch": 83,
                "velocity": 40,
                "duration": 0.0159091,
                "tempo": 120.0
            },
            {
                "start_time": 10.1863636,
                "end_time": 10.2022727,
                "pitch": 74,
                "velocity": 32,
                "duration": 0.0159091,
                "tempo": 120.0
            },
            {
                "start_time": 10.2022727,
                "end_time": 10.2204545,
                "pitch": 77,
                "velocity": 32,
                "duration": 0.0181818,
                "tempo": 120.0
            },
            {
                "start_time": 10.2204545,
                "end_time": 10.2363636,
                "pitch": 76,
                "velocity": 32,
                "duration": 0.0159091,
                "tempo": 120.0
            },
            {
                "start_time": 10.2363636,
                "end_time": 10.2704545,
                "pitch": 83,
                "velocity": 32,
                "duration": 0.0340909,
                "tempo": 120.0
            },
            {
                "start_time": 10.2704545,
                "end_time": 10.2863636,
                "pitch": 79,
                "velocity": 32,
                "duration": 0.0159091,
                "tempo": 120.0
            },
            {
                "start_time": 10.2863636,
                "end_time": 10.3045455,
                "pitch": 81,
                "velocity": 32,
                "duration": 0.0181818,
                "tempo": 120.0
            },
            {
                "start_time": 10.3045455,
                "end_time": 10.3204545,
                "pitch": 72,
                "velocity": 32,
                "duration": 0.0159091,
                "tempo": 120.0
            },
            {
                "start_time": 10.3204545,
                "end_time": 10.3363636,
                "pitch": 76,
                "velocity": 32,
                "duration": 0.0159091,
                "tempo": 120.0
            },
            {
                "start_time": 10.3363636,
                "end_time": 10.3522727,
                "pitch": 79,
                "velocity": 32,
                "duration": 0.0159091,
                "tempo": 120.0
            },
            {
                "start_time": 10.3545455,
                "end_time": 10.3704545,
                "pitch": 77,
                "velocity": 32,
                "duration": 0.0159091,
                "tempo": 120.0
            },
            {
                "start_time": 10.3704545,
                "end_time": 10.4045455,
                "pitch": 81,
                "velocity": 32,
                "duration": 0.0340909,
                "tempo": 120.0
            },
            {
                "start_time": 10.4045455,
                "end_time": 10.4204545,
                "pitch": 81,
                "velocity": 32,
                "duration": 0.0159091,
                "tempo": 120.0
            },
            {
                "start_time": 10.4204545,
                "end_time": 10.4363636,
                "pitch": 72,
                "velocity": 32,
                "duration": 0.0159091,
                "tempo": 120.0
            },
            {
                "start_time": 10.4386364,
                "end_time": 10.4545455,
                "pitch": 83,
                "velocity": 32,
                "duration": 0.0159091,
                "tempo": 120.0
            },
            {
                "start_time": 10.4545455,
                "end_time": 10.4704545,
                "pitch": 74,
                "velocity": 25,
                "duration": 0.0159091,
                "tempo": 120.0
            },
            {
                "start_time": 10.4704545,
                "end_time": 10.4863636,
                "pitch": 77,
                "velocity": 25,
                "duration": 0.0159091,
                "tempo": 120.0
            },
            {
                "start_time": 10.4886364,
                "end_time": 10.5204545,
                "pitch": 76,
                "velocity": 25,
                "duration": 0.0318182,
                "tempo": 120.0
            },
            {
                "start_time": 10.5204545,
                "end_time": 10.5386364,
                "pitch": 83,
                "velocity": 25,
                "duration": 0.0181818,
                "tempo": 120.0
            },
            {
                "start_time": 10.5386364,
                "end_time": 10.5545455,
                "pitch": 79,
                "velocity": 25,
                "duration": 0.0159091,
                "tempo": 120.0
            },
            {
                "start_time": 10.5545455,
                "end_time": 10.5704545,
                "pitch": 81,
                "velocity": 25,
                "duration": 0.0159091,
                "tempo": 120.0
            },
            {
                "start_time": 10.5704545,
                "end_time": 10.5886364,
                "pitch": 72,
                "velocity": 25,
                "duration": 0.0181818,
                "tempo": 120.0
            },
            {
                "start_time": 10.5886364,
                "end_time": 10.6045455,
                "pitch": 76,
                "velocity": 25,
                "duration": 0.0159091,
                "tempo": 120.0
            },
            {
                "start_time": 10.6045455,
                "end_time": 10.6204545,
                "pitch": 79,
                "velocity": 25,
                "duration": 0.0159091,
                "tempo": 120.0
            },
            {
                "start_time": 10.6227273,
                "end_time": 10.6545455,
                "pitch": 77,
                "velocity": 25,
                "duration": 0.0318182,
                "tempo": 120.0
            },
            {
                "start_time": 10.6545455,
                "end_time": 10.6704545,
                "pitch": 81,
                "velocity": 25,
                "duration": 0.0159091,
                "tempo": 120.0
            },
            {
                "start_time": 10.6727273,
                "end_time": 10.6886364,
                "pitch": 81,
                "velocity": 25,
                "duration": 0.0159091,
                "tempo": 120.0
            },
            {
                "start_time": 10.6886364,
                "end_time": 10.7045455,
                "pitch": 72,
                "velocity": 25,
                "duration": 0.0159091,
                "tempo": 120.0
            },
            {
                "start_time": 10.7045455,
                "end_time": 10.7227273,
                "pitch": 83,
                "velocity": 25,
                "duration": 0.0181818,
                "tempo": 120.0
            },
            {
                "start_time": 10.7227273,
                "end_time": 10.7386364,
                "pitch": 74,
                "velocity": 20,
                "duration": 0.0159091,
                "tempo": 120.0
            },
            {
                "start_time": 10.7386364,
                "end_time": 10.7727273,
                "pitch": 77,
                "velocity": 20,
                "duration": 0.0340909,
                "tempo": 120.0
            },
            {
                "start_time": 10.7727273,
                "end_time": 10.7886364,
                "pitch": 76,
                "velocity": 20,
                "duration": 0.0159091,
                "tempo": 120.0
            },
            {
                "start_time": 10.7886364,
                "end_time": 10.8045455,
                "pitch": 83,
                "velocity": 20,
                "duration": 0.0159091,
                "tempo": 120.0
            },
            {
                "start_time": 10.8068182,
                "end_time": 10.8227273,
                "pitch": 79,
                "velocity": 20,
                "duration": 0.0159091,
                "tempo": 120.0
            },
            {
                "start_time": 10.8227273,
                "end_time": 10.8386364,
                "pitch": 81,
                "velocity": 20,
                "duration": 0.0159091,
                "tempo": 120.0
            },
            {
                "start_time": 10.8386364,
                "end_time": 10.8568182,
                "pitch": 72,
                "velocity": 20,
                "duration": 0.0181818,
                "tempo": 120.0
            },
            {
                "start_time": 10.8568182,
                "end_time": 10.8727273,
                "pitch": 76,
                "velocity": 20,
                "duration": 0.0159091,
                "tempo": 120.0
            },
            {
                "start_time": 10.8727273,
                "end_time": 10.9068182,
                "pitch": 79,
                "velocity": 20,
                "duration": 0.0340909,
                "tempo": 120.0
            },
            {
                "start_time": 10.9068182,
                "end_time": 10.9227273,
                "pitch": 77,
                "velocity": 20,
                "duration": 0.0159091,
                "tempo": 120.0
            },
            {
                "start_time": 10.9227273,
                "end_time": 10.9386364,
                "pitch": 81,
                "velocity": 20,
                "duration": 0.0159091,
                "tempo": 120.0
            },
            {
                "start_time": 10.9386364,
                "end_time": 10.9568182,
                "pitch": 81,
                "velocity": 20,
                "duration": 0.0181818,
                "tempo": 120.0
            },
            {
                "start_time": 10.9568182,
                "end_time": 10.9727273,
                "pitch": 72,
                "velocity": 20,
                "duration": 0.0159091,
                "tempo": 120.0
            },
            {
                "start_time": 10.9727273,
                "end_time": 10.9909091,
                "pitch": 83,
                "velocity": 20,
                "duration": 0.0181818,
                "tempo": 120.0
            },
            {
                "start_time": 10.9909091,
                "end_time": 11.0227273,
                "pitch": 74,
                "velocity": 16,
                "duration": 0.0318182,
                "tempo": 120.0
            },
            {
                "start_time": 11.025,
                "end_time": 11.0409091,
                "pitch": 77,
                "velocity": 16,
                "duration": 0.0159091,
                "tempo": 120.0
            },
            {
                "start_time": 11.0409091,
                "end_time": 11.0568182,
                "pitch": 76,
                "velocity": 16,
                "duration": 0.0159091,
                "tempo": 120.0
            },
            {
                "start_time": 11.0590909,
                "end_time": 11.075,
                "pitch": 83,
                "velocity": 16,
                "duration": 0.0159091,
                "tempo": 120.0
            },
            {
                "start_time": 11.075,
                "end_time": 11.0931818,
                "pitch": 79,
                "velocity": 16,
                "duration": 0.0181818,
                "tempo": 120.0
            },
            {
                "start_time": 11.0931818,
                "end_time": 11.1090909,
                "pitch": 81,
                "velocity": 16,
                "duration": 0.0159091,
                "tempo": 120.0
            },
            {
                "start_time": 11.1090909,
                "end_time": 11.1272727,
                "pitch": 72,
                "velocity": 16,
                "duration": 0.0181818,
                "tempo": 120.0
            },
            {
                "start_time": 11.1272727,
                "end_time": 11.1613636,
                "pitch": 76,
                "velocity": 16,
                "duration": 0.0340909,
                "tempo": 120.0
            },
            {
                "start_time": 11.1613636,
                "end_time": 11.1772727,
                "pitch": 79,
                "velocity": 16,
                "duration": 0.0159091,
                "tempo": 120.0
            },
            {
                "start_time": 11.1772727,
                "end_time": 11.1954545,
                "pitch": 77,
                "velocity": 16,
                "duration": 0.0181818,
                "tempo": 120.0
            },
            {
                "start_time": 11.1954545,
                "end_time": 11.2113636,
                "pitch": 81,
                "velocity": 16,
                "duration": 0.0159091,
                "tempo": 120.0
            },
            {
                "start_time": 11.2136364,
                "end_time": 11.2295455,
                "pitch": 81,
                "velocity": 16,
                "duration": 0.0159091,
                "tempo": 120.0
            },
            {
                "start_time": 11.2318182,
                "end_time": 11.2454545,
                "pitch": 72,
                "velocity": 16,
                "duration": 0.0136364,
                "tempo": 120.0
            },
            {
                "start_time": 11.2477273,
                "end_time": 11.2818182,
                "pitch": 83,
                "velocity": 16,
                "duration": 0.0340909,
                "tempo": 120.0
            },
            {
                "start_time": 14.3545455,
                "end_time": 14.3863636,
                "pitch": 89,
                "velocity": 25,
                "duration": 0.0318182,
                "tempo": 120.0
            },
            {
                "start_time": 14.3886364,
                "end_time": 14.4204545,
                "pitch": 86,
                "velocity": 25,
                "duration": 0.0318182,
                "tempo": 120.0
            },
            {
                "start_time": 14.4204545,
                "end_time": 14.4704545,
                "pitch": 88,
                "velocity": 25,
                "duration": 0.05,
                "tempo": 120.0
            },
            {
                "start_time": 14.4704545,
                "end_time": 14.5068182,
                "pitch": 84,
                "velocity": 25,
                "duration": 0.0363636,
                "tempo": 120.0
            },
            {
                "start_time": 14.5068182,
                "end_time": 14.5386364,
                "pitch": 93,
                "velocity": 25,
                "duration": 0.0318182,
                "tempo": 120.0
            },
            {
                "start_time": 14.5386364,
                "end_time": 14.5886364,
                "pitch": 84,
                "velocity": 25,
                "duration": 0.05,
                "tempo": 120.0
            },
            {
                "start_time": 14.5886364,
                "end_time": 14.6204545,
                "pitch": 89,
                "velocity": 25,
                "duration": 0.0318182,
                "tempo": 120.0
            },
            {
                "start_time": 14.6227273,
                "end_time": 14.6545455,
                "pitch": 91,
                "velocity": 25,
                "duration": 0.0318182,
                "tempo": 120.0
            },
            {
                "start_time": 14.6545455,
                "end_time": 14.7045455,
                "pitch": 95,
                "velocity": 25,
                "duration": 0.05,
                "tempo": 120.0
            },
            {
                "start_time": 14.7045455,
                "end_time": 14.7409091,
                "pitch": 88,
                "velocity": 25,
                "duration": 0.0363636,
                "tempo": 120.0
            },
            {
                "start_time": 14.7409091,
                "end_time": 14.7727273,
                "pitch": 89,
                "velocity": 20,
                "duration": 0.0318182,
                "tempo": 120.0
            },
            {
                "start_time": 14.7727273,
                "end_time": 14.8227273,
                "pitch": 86,
                "velocity": 20,
                "duration": 0.05,
                "tempo": 120.0
            },
            {
                "start_time": 14.8227273,
                "end_time": 14.8568182,
                "pitch": 88,
                "velocity": 20,
                "duration": 0.0340909,
                "tempo": 120.0
            },
            {
                "start_time": 14.8568182,
                "end_time": 14.8886364,
                "pitch": 84,
                "velocity": 20,
                "duration": 0.0318182,
                "tempo": 120.0
            },
            {
                "start_time": 14.8886364,
                "end_time": 14.9227273,
                "pitch": 93,
                "velocity": 20,
                "duration": 0.0340909,
                "tempo": 120.0
            },
            {
                "start_time": 14.9227273,
                "end_time": 14.975,
                "pitch": 84,
                "velocity": 20,
                "duration": 0.0522727,
                "tempo": 120.0
            },
            {
                "start_time": 14.975,
                "end_time": 15.0068182,
                "pitch": 89,
                "velocity": 20,
                "duration": 0.0318182,
                "tempo": 120.0
            },
            {
                "start_time": 15.0068182,
                "end_time": 15.0409091,
                "pitch": 91,
                "velocity": 20,
                "duration": 0.0340909,
                "tempo": 120.0
            },
            {
                "start_time": 15.0409091,
                "end_time": 15.0909091,
                "pitch": 95,
                "velocity": 20,
                "duration": 0.05,
                "tempo": 120.0
            },
            {
                "start_time": 15.0909091,
                "end_time": 15.1227273,
                "pitch": 88,
                "velocity": 20,
                "duration": 0.0318182,
                "tempo": 120.0
            },
            {
                "start_time": 15.125,
                "end_time": 15.1568182,
                "pitch": 89,
                "velocity": 16,
                "duration": 0.0318182,
                "tempo": 120.0
            },
            {
                "start_time": 15.1568182,
                "end_time": 15.2113636,
                "pitch": 86,
                "velocity": 16,
                "duration": 0.0545455,
                "tempo": 120.0
            },
            {
                "start_time": 15.2113636,
                "end_time": 15.2409091,
                "pitch": 88,
                "velocity": 16,
                "duration": 0.0295455,
                "tempo": 120.0
            },
            {
                "start_time": 15.2409091,
                "end_time": 15.275,
                "pitch": 84,
                "velocity": 16,
                "duration": 0.0340909,
                "tempo": 120.0
            },
            {
                "start_time": 15.275,
                "end_time": 15.325,
                "pitch": 93,
                "velocity": 16,
                "duration": 0.05,
                "tempo": 120.0
            },
            {
                "start_time": 15.325,
                "end_time": 15.3590909,
                "pitch": 84,
                "velocity": 16,
                "duration": 0.0340909,
                "tempo": 120.0
            },
            {
                "start_time": 15.3590909,
                "end_time": 15.3909091,
                "pitch": 89,
                "velocity": 16,
                "duration": 0.0318182,
                "tempo": 120.0
            },
            {
                "start_time": 15.3931818,
                "end_time": 15.425,
                "pitch": 91,
                "velocity": 16,
                "duration": 0.0318182,
                "tempo": 120.0
            },
            {
                "start_time": 15.425,
                "end_time": 15.475,
                "pitch": 95,
                "velocity": 16,
                "duration": 0.05,
                "tempo": 120.0
            },
            {
                "start_time": 15.475,
                "end_time": 15.5090909,
                "pitch": 88,
                "velocity": 16,
                "duration": 0.0340909,
                "tempo": 120.0
            },
            {
                "start_time": 15.5090909,
                "end_time": 15.5431818,
                "pitch": 89,
                "velocity": 13,
                "duration": 0.0340909,
                "tempo": 120.0
            },
            {
                "start_time": 15.5431818,
                "end_time": 15.5931818,
                "pitch": 86,
                "velocity": 13,
                "duration": 0.05,
                "tempo": 120.0
            },
            {
                "start_time": 15.5931818,
                "end_time": 15.625,
                "pitch": 88,
                "velocity": 13,
                "duration": 0.0318182,
                "tempo": 120.0
            },
            {
                "start_time": 15.6272727,
                "end_time": 15.6590909,
                "pitch": 84,
                "velocity": 13,
                "duration": 0.0318182,
                "tempo": 120.0
            },
            {
                "start_time": 15.6613636,
                "end_time": 15.7090909,
                "pitch": 93,
                "velocity": 13,
                "duration": 0.0477273,
                "tempo": 120.0
            },
            {
                "start_time": 15.7090909,
                "end_time": 15.7431818,
                "pitch": 84,
                "velocity": 13,
                "duration": 0.0340909,
                "tempo": 120.0
            },
            {
                "start_time": 15.7431818,
                "end_time": 15.7772727,
                "pitch": 89,
                "velocity": 13,
                "duration": 0.0340909,
                "tempo": 120.0
            },
            {
                "start_time": 15.7772727,
                "end_time": 15.8272727,
                "pitch": 91,
                "velocity": 13,
                "duration": 0.05,
                "tempo": 120.0
            },
            {
                "start_time": 15.8272727,
                "end_time": 15.8613636,
                "pitch": 95,
                "velocity": 13,
                "duration": 0.0340909,
                "tempo": 120.0
            },
            {
                "start_time": 15.8613636,
                "end_time": 15.8954545,
                "pitch": 88,
                "velocity": 13,
                "duration": 0.0340909,
                "tempo": 120.0
            },
            {
                "start_time": 15.8954545,
                "end_time": 15.9272727,
                "pitch": 89,
                "velocity": 10,
                "duration": 0.0318182,
                "tempo": 120.0
            },
            {
                "start_time": 15.9272727,
                "end_time": 15.9772727,
                "pitch": 86,
                "velocity": 10,
                "duration": 0.05,
                "tempo": 120.0
            },
            {
                "start_time": 15.9772727,
                "end_time": 16.0113636,
                "pitch": 88,
                "velocity": 10,
                "duration": 0.0340909,
                "tempo": 120.0
            },
            {
                "start_time": 16.0113636,
                "end_time": 16.0454545,
                "pitch": 84,
                "velocity": 10,
                "duration": 0.0340909,
                "tempo": 120.0
            },
            {
                "start_time": 16.0454545,
                "end_time": 16.0954545,
                "pitch": 93,
                "velocity": 10,
                "duration": 0.05,
                "tempo": 120.0
            },
            {
                "start_time": 16.0954545,
                "end_time": 16.1295455,
                "pitch": 84,
                "velocity": 10,
                "duration": 0.0340909,
                "tempo": 120.0
            },
            {
                "start_time": 16.1318182,
                "end_time": 16.1613636,
                "pitch": 89,
                "velocity": 10,
                "duration": 0.0295455,
                "tempo": 120.0
            },
            {
                "start_time": 16.1636364,
                "end_time": 16.2136364,
                "pitch": 91,
                "velocity": 10,
                "duration": 0.05,
                "tempo": 120.0
            },
            {
                "start_time": 16.2136364,
                "end_time": 16.2477273,
                "pitch": 95,
                "velocity": 10,
                "duration": 0.0340909,
                "tempo": 120.0
            },
            {
                "start_time": 16.2477273,
                "end_time": 16.2818182,
                "pitch": 88,
                "velocity": 10,
                "duration": 0.0340909,
                "tempo": 120.0
            },
            {
                "start_time": 16.2818182,
                "end_time": 16.3340909,
                "pitch": 89,
                "velocity": 8,
                "duration": 0.0522727,
                "tempo": 120.0
            },
            {
                "start_time": 16.3340909,
                "end_time": 16.3704545,
                "pitch": 86,
                "velocity": 8,
                "duration": 0.0363636,
                "tempo": 120.0
            },
            {
                "start_time": 16.3704545,
                "end_time": 16.4022727,
                "pitch": 88,
                "velocity": 8,
                "duration": 0.0318182,
                "tempo": 120.0
            },
            {
                "start_time": 16.4022727,
                "end_time": 16.4363636,
                "pitch": 84,
                "velocity": 8,
                "duration": 0.0340909,
                "tempo": 120.0
            },
            {
                "start_time": 16.4363636,
                "end_time": 16.4886364,
                "pitch": 93,
                "velocity": 8,
                "duration": 0.0522727,
                "tempo": 120.0
            },
            {
                "start_time": 16.4886364,
                "end_time": 16.5227273,
                "pitch": 84,
                "velocity": 8,
                "duration": 0.0340909,
                "tempo": 120.0
            },
            {
                "start_time": 16.5227273,
                "end_time": 16.5568182,
                "pitch": 89,
                "velocity": 8,
                "duration": 0.0340909,
                "tempo": 120.0
            },
            {
                "start_time": 16.5568182,
                "end_time": 16.6090909,
                "pitch": 91,
                "velocity": 8,
                "duration": 0.0522727,
                "tempo": 120.0
            },
            {
                "start_time": 16.6090909,
                "end_time": 16.6409091,
                "pitch": 95,
                "velocity": 8,
                "duration": 0.0318182,
                "tempo": 120.0
            },
            {
                "start_time": 16.6409091,
                "end_time": 16.675,
                "pitch": 88,
                "velocity": 8,
                "duration": 0.0340909,
                "tempo": 120.0
            },
            {
                "start_time": 20.8,
                "end_time": 20.8159091,
                "pitch": 74,
                "velocity": 51,
                "duration": 0.0159091,
                "tempo": 120.0
            },
            {
                "start_time": 20.8159091,
                "end_time": 20.8318182,
                "pitch": 77,
                "velocity": 51,
                "duration": 0.0159091,
                "tempo": 120.0
            },
            {
                "start_time": 20.8340909,
                "end_time": 20.85,
                "pitch": 76,
                "velocity": 51,
                "duration": 0.0159091,
                "tempo": 120.0
            },
            {
                "start_time": 20.85,
                "end_time": 20.8818182,
                "pitch": 83,
                "velocity": 51,
                "duration": 0.0318182,
                "tempo": 120.0
            },
            {
                "start_time": 20.8840909,
                "end_time": 20.9,
                "pitch": 79,
                "velocity": 51,
                "duration": 0.0159091,
                "tempo": 120.0
            },
            {
                "start_time": 20.9,
                "end_time": 20.9159091,
                "pitch": 81,
                "velocity": 51,
                "duration": 0.0159091,
                "tempo": 120.0
            },
            {
                "start_time": 20.9159091,
                "end_time": 20.9340909,
                "pitch": 72,
                "velocity": 51,
                "duration": 0.0181818,
                "tempo": 120.0
            },
            {
                "start_time": 20.9340909,
                "end_time": 20.95,
                "pitch": 76,
                "velocity": 51,
                "duration": 0.0159091,
                "tempo": 120.0
            },
            {
                "start_time": 20.95,
                "end_time": 20.9659091,
                "pitch": 79,
                "velocity": 51,
                "duration": 0.0159091,
                "tempo": 120.0
            },
            {
                "start_time": 20.9659091,
                "end_time": 20.9840909,
                "pitch": 77,
                "velocity": 51,
                "duration": 0.0181818,
                "tempo": 120.0
            },
            {
                "start_time": 20.9840909,
                "end_time": 21.0159091,
                "pitch": 81,
                "velocity": 51,
                "duration": 0.0318182,
                "tempo": 120.0
            },
            {
                "start_time": 21.0181818,
                "end_time": 21.0340909,
                "pitch": 81,
                "velocity": 51,
                "duration": 0.0159091,
                "tempo": 120.0
            },
            {
                "start_time": 21.0363636,
                "end_time": 21.05,
                "pitch": 72,
                "velocity": 51,
                "duration": 0.0136364,
                "tempo": 120.0
            },
            {
                "start_time": 21.05,
                "end_time": 21.0659091,
                "pitch": 83,
                "velocity": 51,
                "duration": 0.0159091,
                "tempo": 120.0
            },
            {
                "start_time": 21.0681818,
                "end_time": 21.0840909,
                "pitch": 74,
                "velocity": 40,
                "duration": 0.0159091,
                "tempo": 120.0
            },
            {
                "start_time": 21.0840909,
                "end_time": 21.1,
                "pitch": 77,
                "velocity": 40,
                "duration": 0.0159091,
                "tempo": 120.0
            },
            {
                "start_time": 21.1,
                "end_time": 21.1340909,
                "pitch": 76,
                "velocity": 40,
                "duration": 0.0340909,
                "tempo": 120.0
            },
            {
                "start_time": 21.1340909,
                "end_time": 21.15,
                "pitch": 83,
                "velocity": 40,
                "duration": 0.0159091,
                "tempo": 120.0
            },
            {
                "start_time": 21.15,
                "end_time": 21.1681818,
                "pitch": 79,
                "velocity": 40,
                "duration": 0.0181818,
                "tempo": 120.0
            },
            {
                "start_time": 21.1681818,
                "end_time": 21.1840909,
                "pitch": 81,
                "velocity": 40,
                "duration": 0.0159091,
                "tempo": 120.0
            },
            {
                "start_time": 21.1840909,
                "end_time": 21.2,
                "pitch": 72,
                "velocity": 40,
                "duration": 0.0159091,
                "tempo": 120.0
            },
            {
                "start_time": 21.2022727,
                "end_time": 21.2181818,
                "pitch": 76,
                "velocity": 40,
                "duration": 0.0159091,
                "tempo": 120.0
            },
            {
                "start_time": 21.2181818,
                "end_time": 21.2340909,
                "pitch": 79,
                "velocity": 40,
                "duration": 0.0159091,
                "tempo": 120.0
            },
            {
                "start_time": 21.2340909,
                "end_time": 21.2681818,
                "pitch": 77,
                "velocity": 40,
                "duration": 0.0340909,
                "tempo": 120.0
            },
            {
                "start_time": 21.2704545,
                "end_time": 21.2840909,
                "pitch": 81,
                "velocity": 40,
                "duration": 0.0136364,
                "tempo": 120.0
            },
            {
                "start_time": 21.2840909,
                "end_time": 21.3022727,
                "pitch": 81,
                "velocity": 40,
                "duration": 0.0181818,
                "tempo": 120.0
            },
            {
                "start_time": 21.3022727,
                "end_time": 21.3181818,
                "pitch": 72,
                "velocity": 40,
                "duration": 0.0159091,
                "tempo": 120.0
            },
            {
                "start_time": 21.3181818,
                "end_time": 21.3340909,
                "pitch": 83,
                "velocity": 40,
                "duration": 0.0159091,
                "tempo": 120.0
            },
            {
                "start_time": 21.3363636,
                "end_time": 21.3522727,
                "pitch": 74,
                "velocity": 32,
                "duration": 0.0159091,
                "tempo": 120.0
            },
            {
                "start_time": 21.3522727,
                "end_time": 21.3840909,
                "pitch": 77,
                "velocity": 32,
                "duration": 0.0318182,
                "tempo": 120.0
            },
            {
                "start_time": 21.3863636,
                "end_time": 21.4022727,
                "pitch": 76,
                "velocity": 32,
                "duration": 0.0159091,
                "tempo": 120.0
            },
            {
                "start_time": 21.4022727,
                "end_time": 21.4181818,
                "pitch": 83,
                "velocity": 32,
                "duration": 0.0159091,
                "tempo": 120.0
            },
            {
                "start_time": 21.4181818,
                "end_time": 21.4340909,
                "pitch": 79,
                "velocity": 32,
                "duration": 0.0159091,
                "tempo": 120.0
            },
            {
                "start_time": 21.4363636,
                "end_time": 21.4522727,
                "pitch": 81,
                "velocity": 32,
                "duration": 0.0159091,
                "tempo": 120.0
            },
            {
                "start_time": 21.4522727,
                "end_time": 21.4681818,
                "pitch": 72,
                "velocity": 32,
                "duration": 0.0159091,
                "tempo": 120.0
            },
            {
                "start_time": 21.4681818,
                "end_time": 21.4863636,
                "pitch": 76,
                "velocity": 32,
                "duration": 0.0181818,
                "tempo": 120.0
            },
            {
                "start_time": 21.4863636,
                "end_time": 21.5181818,
                "pitch": 79,
                "velocity": 32,
                "duration": 0.0318182,
                "tempo": 120.0
            },
            {
                "start_time": 21.5181818,
                "end_time": 21.5363636,
                "pitch": 77,
                "velocity": 32,
                "duration": 0.0181818,
                "tempo": 120.0
            },
            {
                "start_time": 21.5363636,
                "end_time": 21.5522727,
                "pitch": 81,
                "velocity": 32,
                "duration": 0.0159091,
                "tempo": 120.0
            },
            {
                "start_time": 21.5522727,
                "end_time": 21.5681818,
                "pitch": 81,
                "velocity": 32,
                "duration": 0.0159091,
                "tempo": 120.0
            },
            {
                "start_time": 21.5704545,
                "end_time": 21.5863636,
                "pitch": 72,
                "velocity": 32,
                "duration": 0.0159091,
                "tempo": 120.0
            },
            {
                "start_time": 21.5863636,
                "end_time": 21.6022727,
                "pitch": 83,
                "velocity": 32,
                "duration": 0.0159091,
                "tempo": 120.0
            },
            {
                "start_time": 21.6022727,
                "end_time": 21.6363636,
                "pitch": 74,
                "velocity": 25,
                "duration": 0.0340909,
                "tempo": 120.0
            },
            {
                "start_time": 21.6363636,
                "end_time": 21.6522727,
                "pitch": 77,
                "velocity": 25,
                "duration": 0.0159091,
                "tempo": 120.0
            },
            {
                "start_time": 21.6522727,
                "end_time": 21.6704545,
                "pitch": 76,
                "velocity": 25,
                "duration": 0.0181818,
                "tempo": 120.0
            },
            {
                "start_time": 21.6704545,
                "end_time": 21.6863636,
                "pitch": 83,
                "velocity": 25,
                "duration": 0.0159091,
                "tempo": 120.0
            },
            {
                "start_time": 21.6863636,
                "end_time": 21.7022727,
                "pitch": 79,
                "velocity": 25,
                "duration": 0.0159091,
                "tempo": 120.0
            },
            {
                "start_time": 21.7045455,
                "end_time": 21.7204545,
                "pitch": 81,
                "velocity": 25,
                "duration": 0.0159091,
                "tempo": 120.0
            },
            {
                "start_time": 21.7204545,
                "end_time": 21.7363636,
                "pitch": 72,
                "velocity": 25,
                "duration": 0.0159091,
                "tempo": 120.0
            },
            {
                "start_time": 21.7363636,
                "end_time": 21.7704545,
                "pitch": 76,
                "velocity": 25,
                "duration": 0.0340909,
                "tempo": 120.0
            },
            {
                "start_time": 21.7704545,
                "end_time": 21.7863636,
                "pitch": 79,
                "velocity": 25,
                "duration": 0.0159091,
                "tempo": 120.0
            },
            {
                "start_time": 21.7863636,
                "end_time": 21.8045455,
                "pitch": 77,
                "velocity": 25,
                "duration": 0.0181818,
                "tempo": 120.0
            },
            {
                "start_time": 21.8045455,
                "end_time": 21.8204545,
                "pitch": 81,
                "velocity": 25,
                "duration": 0.0159091,
                "tempo": 120.0
            },
            {
                "start_time": 21.8204545,
                "end_time": 21.8363636,
                "pitch": 81,
                "velocity": 25,
                "duration": 0.0159091,
                "tempo": 120.0
            },
            {
                "start_time": 21.8363636,
                "end_time": 21.8545455,
                "pitch": 72,
                "velocity": 25,
                "duration": 0.0181818,
                "tempo": 120.0
            },
            {
                "start_time": 21.8545455,
                "end_time": 21.8863636,
                "pitch": 83,
                "velocity": 25,
                "duration": 0.0318182,
                "tempo": 120.0
            },
            {
                "start_time": 21.8886364,
                "end_time": 21.9045455,
                "pitch": 74,
                "velocity": 20,
                "duration": 0.0159091,
                "tempo": 120.0
            },
            {
                "start_time": 21.9045455,
                "end_time": 21.9204545,
                "pitch": 77,
                "velocity": 20,
                "duration": 0.0159091,
                "tempo": 120.0
            },
            {
                "start_time": 21.9204545,
                "end_time": 21.9363636,
                "pitch": 76,
                "velocity": 20,
                "duration": 0.0159091,
                "tempo": 120.0
            },
            {
                "start_time": 21.9386364,
                "end_time": 21.9545455,
                "pitch": 83,
                "velocity": 20,
                "duration": 0.0159091,
                "tempo": 120.0
            },
            {
                "start_time": 21.9568182,
                "end_time": 21.9704545,
                "pitch": 79,
                "velocity": 20,
                "duration": 0.0136364,
                "tempo": 120.0
            },
            {
                "start_time": 21.9704545,
                "end_time": 21.9886364,
                "pitch": 81,
                "velocity": 20,
                "duration": 0.0181818,
                "tempo": 120.0
            },
            {
                "start_time": 21.9886364,
                "end_time": 22.0204545,
                "pitch": 72,
                "velocity": 20,
                "duration": 0.0318182,
                "tempo": 120.0
            },
            {
                "start_time": 22.0204545,
                "end_time": 22.0386364,
                "pitch": 76,
                "velocity": 20,
                "duration": 0.0181818,
                "tempo": 120.0
            },
            {
                "start_time": 22.0386364,
                "end_time": 22.0545455,
                "pitch": 79,
                "velocity": 20,
                "duration": 0.0159091,
                "tempo": 120.0
            },
            {
                "start_time": 22.0545455,
                "end_time": 22.0704545,
                "pitch": 77,
                "velocity": 20,
                "duration": 0.0159091,
                "tempo": 120.0
            },
            {
                "start_time": 22.0727273,
                "end_time": 22.0886364,
                "pitch": 81,
                "velocity": 20,
                "duration": 0.0159091,
                "tempo": 120.0
            },
            {
                "start_time": 22.0886364,
                "end_time": 22.1045455,
                "pitch": 81,
                "velocity": 20,
                "duration": 0.0159091,
                "tempo": 120.0
            },
            {
                "start_time": 22.1045455,
                "end_time": 22.1386364,
                "pitch": 72,
                "velocity": 20,
                "duration": 0.0340909,
                "tempo": 120.0
            },
            {
                "start_time": 22.1386364,
                "end_time": 22.1545455,
                "pitch": 83,
                "velocity": 20,
                "duration": 0.0159091,
                "tempo": 120.0
            },
            {
                "start_time": 22.1545455,
                "end_time": 22.1727273,
                "pitch": 74,
                "velocity": 16,
                "duration": 0.0181818,
                "tempo": 120.0
            },
            {
                "start_time": 22.1727273,
                "end_time": 22.1909091,
                "pitch": 77,
                "velocity": 16,
                "duration": 0.0181818,
                "tempo": 120.0
            },
            {
                "start_time": 22.1909091,
                "end_time": 22.2045455,
                "pitch": 76,
                "velocity": 16,
                "duration": 0.0136364,
                "tempo": 120.0
            },
            {
                "start_time": 22.2045455,
                "end_time": 22.2227273,
                "pitch": 83,
                "velocity": 16,
                "duration": 0.0181818,
                "tempo": 120.0
            },
            {
                "start_time": 22.2227273,
                "end_time": 22.2386364,
                "pitch": 79,
                "velocity": 16,
                "duration": 0.0159091,
                "tempo": 120.0
            },
            {
                "start_time": 22.2386364,
                "end_time": 22.2727273,
                "pitch": 81,
                "velocity": 16,
                "duration": 0.0340909,
                "tempo": 120.0
            },
            {
                "start_time": 22.2727273,
                "end_time": 22.2886364,
                "pitch": 72,
                "velocity": 16,
                "duration": 0.0159091,
                "tempo": 120.0
            },
            {
                "start_time": 22.2886364,
                "end_time": 22.3068182,
                "pitch": 76,
                "velocity": 16,
                "duration": 0.0181818,
                "tempo": 120.0
            },
            {
                "start_time": 22.3068182,
                "end_time": 22.3227273,
                "pitch": 79,
                "velocity": 16,
                "duration": 0.0159091,
                "tempo": 120.0
            },
            {
                "start_time": 22.3227273,
                "end_time": 22.3386364,
                "pitch": 77,
                "velocity": 16,
                "duration": 0.0159091,
                "tempo": 120.0
            },
            {
                "start_time": 22.3386364,
                "end_time": 22.3568182,
                "pitch": 81,
                "velocity": 16,
                "duration": 0.0181818,
                "tempo": 120.0
            },
            {
                "start_time": 22.3568182,
                "end_time": 22.3886364,
                "pitch": 81,
                "velocity": 16,
                "duration": 0.0318182,
                "tempo": 120.0
            },
            {
                "start_time": 22.3909091,
                "end_time": 22.4068182,
                "pitch": 72,
                "velocity": 16,
                "duration": 0.0159091,
                "tempo": 120.0
            },
            {
                "start_time": 22.4068182,
                "end_time": 22.425,
                "pitch": 83,
                "velocity": 16,
                "duration": 0.0181818,
                "tempo": 120.0
            },
            {
                "start_time": 25.4818182,
                "end_time": 25.5159091,
                "pitch": 89,
                "velocity": 25,
                "duration": 0.0340909,
                "tempo": 120.0
            },
            {
                "start_time": 25.5159091,
                "end_time": 25.5659091,
                "pitch": 86,
                "velocity": 25,
                "duration": 0.05,
                "tempo": 120.0
            },
            {
                "start_time": 25.5681818,
                "end_time": 25.6022727,
                "pitch": 88,
                "velocity": 25,
                "duration": 0.0340909,
                "tempo": 120.0
            },
            {
                "start_time": 25.6022727,
                "end_time": 25.6363636,
                "pitch": 84,
                "velocity": 25,
                "duration": 0.0340909,
                "tempo": 120.0
            },
            {
                "start_time": 25.6363636,
                "end_time": 25.6886364,
                "pitch": 93,
                "velocity": 25,
                "duration": 0.0522727,
                "tempo": 120.0
            },
            {
                "start_time": 25.6886364,
                "end_time": 25.7204545,
                "pitch": 84,
                "velocity": 25,
                "duration": 0.0318182,
                "tempo": 120.0
            },
            {
                "start_time": 25.7227273,
                "end_time": 25.7545455,
                "pitch": 89,
                "velocity": 25,
                "duration": 0.0318182,
                "tempo": 120.0
            },
            {
                "start_time": 25.7568182,
                "end_time": 25.8068182,
                "pitch": 91,
                "velocity": 25,
                "duration": 0.05,
                "tempo": 120.0
            },
            {
                "start_time": 25.8068182,
                "end_time": 25.8409091,
                "pitch": 95,
                "velocity": 25,
                "duration": 0.0340909,
                "tempo": 120.0
            },
            {
                "start_time": 25.8409091,
                "end_time": 25.875,
                "pitch": 88,
                "velocity": 25,
                "duration": 0.0340909,
                "tempo": 120.0
            },
            {
                "start_time": 25.875,
                "end_time": 25.9272727,
                "pitch": 89,
                "velocity": 20,
                "duration": 0.0522727,
                "tempo": 120.0
            },
            {
                "start_time": 25.9295455,
                "end_time": 25.9613636,
                "pitch": 86,
                "velocity": 20,
                "duration": 0.0318182,
                "tempo": 120.0
            },
            {
                "start_time": 25.9613636,
                "end_time": 25.9931818,
                "pitch": 88,
                "velocity": 20,
                "duration": 0.0318182,
                "tempo": 120.0
            },
            {
                "start_time": 25.9931818,
                "end_time": 26.0272727,
                "pitch": 84,
                "velocity": 20,
                "duration": 0.0340909,
                "tempo": 120.0
            },
            {
                "start_time": 26.0272727,
                "end_time": 26.0772727,
                "pitch": 93,
                "velocity": 20,
                "duration": 0.05,
                "tempo": 120.0
            },
            {
                "start_time": 26.0772727,
                "end_time": 26.1113636,
                "pitch": 84,
                "velocity": 20,
                "duration": 0.0340909,
                "tempo": 120.0
            },
            {
                "start_time": 26.1113636,
                "end_time": 26.1454545,
                "pitch": 89,
                "velocity": 20,
                "duration": 0.0340909,
                "tempo": 120.0
            },
            {
                "start_time": 26.1454545,
                "end_time": 26.1954545,
                "pitch": 91,
                "velocity": 20,
                "duration": 0.05,
                "tempo": 120.0
            },
            {
                "start_time": 26.1954545,
                "end_time": 26.2272727,
                "pitch": 95,
                "velocity": 20,
                "duration": 0.0318182,
                "tempo": 120.0
            },
            {
                "start_time": 26.2295455,
                "end_time": 26.2613636,
                "pitch": 88,
                "velocity": 20,
                "duration": 0.0318182,
                "tempo": 120.0
            },
            {
                "start_time": 26.2613636,
                "end_time": 26.3113636,
                "pitch": 89,
                "velocity": 16,
                "duration": 0.05,
                "tempo": 120.0
            },
            {
                "start_time": 26.3113636,
                "end_time": 26.3454545,
                "pitch": 86,
                "velocity": 16,
                "duration": 0.0340909,
                "tempo": 120.0
            },
            {
                "start_time": 26.3454545,
                "end_time": 26.3840909,
                "pitch": 88,
                "velocity": 16,
                "duration": 0.0386364,
                "tempo": 120.0
            },
            {
                "start_time": 26.3840909,
                "end_time": 26.4272727,
                "pitch": 84,
                "velocity": 16,
                "duration": 0.0431818,
                "tempo": 120.0
            },
            {
                "start_time": 26.4272727,
                "end_time": 26.4613636,
                "pitch": 93,
                "velocity": 16,
                "duration": 0.0340909,
                "tempo": 120.0
            },
            {
                "start_time": 26.4613636,
                "end_time": 26.4931818,
                "pitch": 84,
                "velocity": 16,
                "duration": 0.0318182,
                "tempo": 120.0
            },
            {
                "start_time": 26.4931818,
                "end_time": 26.525,
                "pitch": 89,
                "velocity": 16,
                "duration": 0.0318182,
                "tempo": 120.0
            },
            {
                "start_time": 26.5272727,
                "end_time": 26.575,
                "pitch": 91,
                "velocity": 16,
                "duration": 0.0477273,
                "tempo": 120.0
            },
            {
                "start_time": 26.575,
                "end_time": 26.6090909,
                "pitch": 95,
                "velocity": 16,
                "duration": 0.0340909,
                "tempo": 120.0
            },
            {
                "start_time": 26.6090909,
                "end_time": 26.6409091,
                "pitch": 88,
                "velocity": 16,
                "duration": 0.0318182,
                "tempo": 120.0
            },
            {
                "start_time": 26.6409091,
                "end_time": 26.6886364,
                "pitch": 89,
                "velocity": 13,
                "duration": 0.0477273,
                "tempo": 120.0
            },
            {
                "start_time": 26.6909091,
                "end_time": 26.7227273,
                "pitch": 86,
                "velocity": 13,
                "duration": 0.0318182,
                "tempo": 120.0
            },
            {
                "start_time": 26.7227273,
                "end_time": 26.7545455,
                "pitch": 88,
                "velocity": 13,
                "duration": 0.0318182,
                "tempo": 120.0
            },
            {
                "start_time": 26.7545455,
                "end_time": 26.8045455,
                "pitch": 84,
                "velocity": 13,
                "duration": 0.05,
                "tempo": 120.0
            },
            {
                "start_time": 26.8045455,
                "end_time": 26.8386364,
                "pitch": 93,
                "velocity": 13,
                "duration": 0.0340909,
                "tempo": 120.0
            },
            {
                "start_time": 26.8386364,
                "end_time": 26.8704545,
                "pitch": 84,
                "velocity": 13,
                "duration": 0.0318182,
                "tempo": 120.0
            },
            {
                "start_time": 26.8704545,
                "end_time": 26.9227273,
                "pitch": 89,
                "velocity": 13,
                "duration": 0.0522727,
                "tempo": 120.0
            },
            {
                "start_time": 26.9227273,
                "end_time": 26.9568182,
                "pitch": 91,
                "velocity": 13,
                "duration": 0.0340909,
                "tempo": 120.0
            },
            {
                "start_time": 26.9568182,
                "end_time": 26.9909091,
                "pitch": 95,
                "velocity": 13,
                "duration": 0.0340909,
                "tempo": 120.0
            },
            {
                "start_time": 26.9909091,
                "end_time": 27.025,
                "pitch": 88,
                "velocity": 13,
                "duration": 0.0340909,
                "tempo": 120.0
            },
            {
                "start_time": 27.025,
                "end_time": 27.0772727,
                "pitch": 89,
                "velocity": 10,
                "duration": 0.0522727,
                "tempo": 120.0
            },
            {
                "start_time": 27.0772727,
                "end_time": 27.1113636,
                "pitch": 86,
                "velocity": 10,
                "duration": 0.0340909,
                "tempo": 120.0
            },
            {
                "start_time": 27.1113636,
                "end_time": 27.1454545,
                "pitch": 88,
                "velocity": 10,
                "duration": 0.0340909,
                "tempo": 120.0
            },
            {
                "start_time": 27.1454545,
                "end_time": 27.1977273,
                "pitch": 84,
                "velocity": 10,
                "duration": 0.0522727,
                "tempo": 120.0
            },
            {
                "start_time": 27.1977273,
                "end_time": 27.2318182,
                "pitch": 93,
                "velocity": 10,
                "duration": 0.0340909,
                "tempo": 120.0
            },
            {
                "start_time": 27.2318182,
                "end_time": 27.2659091,
                "pitch": 84,
                "velocity": 10,
                "duration": 0.0340909,
                "tempo": 120.0
            },
            {
                "start_time": 27.2659091,
                "end_time": 27.3181818,
                "pitch": 89,
                "velocity": 10,
                "duration": 0.0522727,
                "tempo": 120.0
            },
            {
                "start_time": 27.3204545,
                "end_time": 27.35,
                "pitch": 91,
                "velocity": 10,
                "duration": 0.0295455,
                "tempo": 120.0
            },
            {
                "start_time": 27.3522727,
                "end_time": 27.3863636,
                "pitch": 95,
                "velocity": 10,
                "duration": 0.0340909,
                "tempo": 120.0
            },
            {
                "start_time": 27.3863636,
                "end_time": 27.4363636,
                "pitch": 88,
                "velocity": 10,
                "duration": 0.05,
                "tempo": 120.0
            },
            {
                "start_time": 27.4363636,
                "end_time": 27.4704545,
                "pitch": 89,
                "velocity": 8,
                "duration": 0.0340909,
                "tempo": 120.0
            },
            {
                "start_time": 27.4704545,
                "end_time": 27.5045455,
                "pitch": 86,
                "velocity": 8,
                "duration": 0.0340909,
                "tempo": 120.0
            },
            {
                "start_time": 27.5068182,
                "end_time": 27.5409091,
                "pitch": 88,
                "velocity": 8,
                "duration": 0.0340909,
                "tempo": 120.0
            },
            {
                "start_time": 27.5409091,
                "end_time": 27.5909091,
                "pitch": 84,
                "velocity": 8,
                "duration": 0.05,
                "tempo": 120.0
            },
            {
                "start_time": 27.5909091,
                "end_time": 27.625,
                "pitch": 93,
                "velocity": 8,
                "duration": 0.0340909,
                "tempo": 120.0
            },
            {
                "start_time": 27.625,
                "end_time": 27.6590909,
                "pitch": 84,
                "velocity": 8,
                "duration": 0.0340909,
                "tempo": 120.0
            },
            {
                "start_time": 27.6590909,
                "end_time": 27.7113636,
                "pitch": 89,
                "velocity": 8,
                "duration": 0.0522727,
                "tempo": 120.0
            },
            {
                "start_time": 27.7113636,
                "end_time": 27.7454545,
                "pitch": 91,
                "velocity": 8,
                "duration": 0.0340909,
                "tempo": 120.0
            },
            {
                "start_time": 27.7454545,
                "end_time": 27.7818182,
                "pitch": 95,
                "velocity": 8,
                "duration": 0.0363636,
                "tempo": 120.0
            },
            {
                "start_time": 27.7818182,
                "end_time": 27.8295455,
                "pitch": 88,
                "velocity": 8,
                "duration": 0.0477273,
                "tempo": 120.0
            },
            {
                "start_time": 31.9272727,
                "end_time": 31.9431818,
                "pitch": 74,
                "velocity": 51,
                "duration": 0.0159091,
                "tempo": 120.0
            },
            {
                "start_time": 31.9431818,
                "end_time": 31.9772727,
                "pitch": 77,
                "velocity": 51,
                "duration": 0.0340909,
                "tempo": 120.0
            },
            {
                "start_time": 31.9772727,
                "end_time": 31.9909091,
                "pitch": 76,
                "velocity": 51,
                "duration": 0.0136364,
                "tempo": 120.0
            },
            {
                "start_time": 31.9909091,
                "end_time": 32.0090909,
                "pitch": 83,
                "velocity": 51,
                "duration": 0.0181818,
                "tempo": 120.0
            },
            {
                "start_time": 32.0090909,
                "end_time": 32.025,
                "pitch": 79,
                "velocity": 51,
                "duration": 0.0159091,
                "tempo": 120.0
            },
            {
                "start_time": 32.025,
                "end_time": 32.0409091,
                "pitch": 81,
                "velocity": 51,
                "duration": 0.0159091,
                "tempo": 120.0
            },
            {
                "start_time": 32.0409091,
                "end_time": 32.0568182,
                "pitch": 72,
                "velocity": 51,
                "duration": 0.0159091,
                "tempo": 120.0
            },
            {
                "start_time": 32.0568182,
                "end_time": 32.0727273,
                "pitch": 76,
                "velocity": 51,
                "duration": 0.0159091,
                "tempo": 120.0
            },
            {
                "start_time": 32.0727273,
                "end_time": 32.1068182,
                "pitch": 79,
                "velocity": 51,
                "duration": 0.0340909,
                "tempo": 120.0
            },
            {
                "start_time": 32.1068182,
                "end_time": 32.1227273,
                "pitch": 77,
                "velocity": 51,
                "duration": 0.0159091,
                "tempo": 120.0
            },
            {
                "start_time": 32.1227273,
                "end_time": 32.1386364,
                "pitch": 81,
                "velocity": 51,
                "duration": 0.0159091,
                "tempo": 120.0
            },
            {
                "start_time": 32.1386364,
                "end_time": 32.1545455,
                "pitch": 81,
                "velocity": 51,
                "duration": 0.0159091,
                "tempo": 120.0
            },
            {
                "start_time": 32.1568182,
                "end_time": 32.1727273,
                "pitch": 72,
                "velocity": 51,
                "duration": 0.0159091,
                "tempo": 120.0
            },
            {
                "start_time": 32.1727273,
                "end_time": 32.1886364,
                "pitch": 83,
                "velocity": 51,
                "duration": 0.0159091,
                "tempo": 120.0
            },
            {
                "start_time": 32.1909091,
                "end_time": 32.2204545,
                "pitch": 74,
                "velocity": 40,
                "duration": 0.0295455,
                "tempo": 120.0
            },
            {
                "start_time": 32.2204545,
                "end_time": 32.2363636,
                "pitch": 77,
                "velocity": 40,
                "duration": 0.0159091,
                "tempo": 120.0
            },
            {
                "start_time": 32.2386364,
                "end_time": 32.2545455,
                "pitch": 76,
                "velocity": 40,
                "duration": 0.0159091,
                "tempo": 120.0
            },
            {
                "start_time": 32.2545455,
                "end_time": 32.2704545,
                "pitch": 83,
                "velocity": 40,
                "duration": 0.0159091,
                "tempo": 120.0
            },
            {
                "start_time": 32.2704545,
                "end_time": 32.2863636,
                "pitch": 79,
                "velocity": 40,
                "duration": 0.0159091,
                "tempo": 120.0
            },
            {
                "start_time": 32.2863636,
                "end_time": 32.3022727,
                "pitch": 81,
                "velocity": 40,
                "duration": 0.0159091,
                "tempo": 120.0
            },
            {
                "start_time": 32.3022727,
                "end_time": 32.3181818,
                "pitch": 72,
                "velocity": 40,
                "duration": 0.0159091,
                "tempo": 120.0
            },
            {
                "start_time": 32.3181818,
                "end_time": 32.3522727,
                "pitch": 76,
                "velocity": 40,
                "duration": 0.0340909,
                "tempo": 120.0
            },
            {
                "start_time": 32.3522727,
                "end_time": 32.3681818,
                "pitch": 79,
                "velocity": 40,
                "duration": 0.0159091,
                "tempo": 120.0
            },
            {
                "start_time": 32.3681818,
                "end_time": 32.3840909,
                "pitch": 77,
                "velocity": 40,
                "duration": 0.0159091,
                "tempo": 120.0
            },
            {
                "start_time": 32.3840909,
                "end_time": 32.4,
                "pitch": 81,
                "velocity": 40,
                "duration": 0.0159091,
                "tempo": 120.0
            },
            {
                "start_time": 32.4,
                "end_time": 32.4181818,
                "pitch": 81,
                "velocity": 40,
                "duration": 0.0181818,
                "tempo": 120.0
            },
            {
                "start_time": 32.4181818,
                "end_time": 32.4340909,
                "pitch": 72,
                "velocity": 40,
                "duration": 0.0159091,
                "tempo": 120.0
            },
            {
                "start_time": 32.4340909,
                "end_time": 32.4681818,
                "pitch": 83,
                "velocity": 40,
                "duration": 0.0340909,
                "tempo": 120.0
            },
            {
                "start_time": 32.4704545,
                "end_time": 32.4863636,
                "pitch": 74,
                "velocity": 32,
                "duration": 0.0159091,
                "tempo": 120.0
            },
            {
                "start_time": 32.4863636,
                "end_time": 32.5045455,
                "pitch": 77,
                "velocity": 32,
                "duration": 0.0181818,
                "tempo": 120.0
            },
            {
                "start_time": 32.5045455,
                "end_time": 32.5227273,
                "pitch": 76,
                "velocity": 32,
                "duration": 0.0181818,
                "tempo": 120.0
            },
            {
                "start_time": 32.5227273,
                "end_time": 32.5386364,
                "pitch": 83,
                "velocity": 32,
                "duration": 0.0159091,
                "tempo": 120.0
            },
            {
                "start_time": 32.5386364,
                "end_time": 32.5568182,
                "pitch": 79,
                "velocity": 32,
                "duration": 0.0181818,
                "tempo": 120.0
            },
            {
                "start_time": 32.5568182,
                "end_time": 32.575,
                "pitch": 81,
                "velocity": 32,
                "duration": 0.0181818,
                "tempo": 120.0
            },
            {
                "start_time": 32.575,
                "end_time": 32.6090909,
                "pitch": 72,
                "velocity": 32,
                "duration": 0.0340909,
                "tempo": 120.0
            },
            {
                "start_time": 32.6090909,
                "end_time": 32.6272727,
                "pitch": 76,
                "velocity": 32,
                "duration": 0.0181818,
                "tempo": 120.0
            },
            {
                "start_time": 32.6272727,
                "end_time": 32.6454545,
                "pitch": 79,
                "velocity": 32,
                "duration": 0.0181818,
                "tempo": 120.0
            },
            {
                "start_time": 32.6454545,
                "end_time": 32.6636364,
                "pitch": 77,
                "velocity": 32,
                "duration": 0.0181818,
                "tempo": 120.0
            },
            {
                "start_time": 32.6636364,
                "end_time": 32.6795455,
                "pitch": 81,
                "velocity": 32,
                "duration": 0.0159091,
                "tempo": 120.0
            },
            {
                "start_time": 32.6795455,
                "end_time": 32.6977273,
                "pitch": 81,
                "velocity": 32,
                "duration": 0.0181818,
                "tempo": 120.0
            },
            {
                "start_time": 32.6977273,
                "end_time": 32.7318182,
                "pitch": 72,
                "velocity": 32,
                "duration": 0.0340909,
                "tempo": 120.0
            },
            {
                "start_time": 32.7318182,
                "end_time": 32.75,
                "pitch": 83,
                "velocity": 32,
                "duration": 0.0181818,
                "tempo": 120.0
            },
            {
                "start_time": 32.75,
                "end_time": 32.7681818,
                "pitch": 74,
                "velocity": 25,
                "duration": 0.0181818,
                "tempo": 120.0
            },
            {
                "start_time": 32.7681818,
                "end_time": 32.7840909,
                "pitch": 77,
                "velocity": 25,
                "duration": 0.0159091,
                "tempo": 120.0
            },
            {
                "start_time": 32.7863636,
                "end_time": 32.8022727,
                "pitch": 76,
                "velocity": 25,
                "duration": 0.0159091,
                "tempo": 120.0
            },
            {
                "start_time": 32.8022727,
                "end_time": 32.8204545,
                "pitch": 83,
                "velocity": 25,
                "duration": 0.0181818,
                "tempo": 120.0
            },
            {
                "start_time": 32.8204545,
                "end_time": 32.8386364,
                "pitch": 79,
                "velocity": 25,
                "duration": 0.0181818,
                "tempo": 120.0
            },
            {
                "start_time": 32.8386364,
                "end_time": 32.8727273,
                "pitch": 81,
                "velocity": 25,
                "duration": 0.0340909,
                "tempo": 120.0
            },
            {
                "start_time": 32.8727273,
                "end_time": 32.8909091,
                "pitch": 72,
                "velocity": 25,
                "duration": 0.0181818,
                "tempo": 120.0
            },
            {
                "start_time": 32.8909091,
                "end_time": 32.9090909,
                "pitch": 76,
                "velocity": 25,
                "duration": 0.0181818,
                "tempo": 120.0
            },
            {
                "start_time": 32.9090909,
                "end_time": 32.9227273,
                "pitch": 79,
                "velocity": 25,
                "duration": 0.0136364,
                "tempo": 120.0
            },
            {
                "start_time": 32.925,
                "end_time": 32.9409091,
                "pitch": 77,
                "velocity": 25,
                "duration": 0.0159091,
                "tempo": 120.0
            },
            {
                "start_time": 32.9409091,
                "end_time": 32.9568182,
                "pitch": 81,
                "velocity": 25,
                "duration": 0.0159091,
                "tempo": 120.0
            },
            {
                "start_time": 32.9568182,
                "end_time": 32.9886364,
                "pitch": 81,
                "velocity": 25,
                "duration": 0.0318182,
                "tempo": 120.0
            },
            {
                "start_time": 32.9886364,
                "end_time": 33.0045455,
                "pitch": 72,
                "velocity": 25,
                "duration": 0.0159091,
                "tempo": 120.0
            },
            {
                "start_time": 33.0068182,
                "end_time": 33.0227273,
                "pitch": 83,
                "velocity": 25,
                "duration": 0.0159091,
                "tempo": 120.0
            },
            {
                "start_time": 33.0227273,
                "end_time": 33.0386364,
                "pitch": 74,
                "velocity": 20,
                "duration": 0.0159091,
                "tempo": 120.0
            },
            {
                "start_time": 33.0386364,
                "end_time": 33.0545455,
                "pitch": 77,
                "velocity": 20,
                "duration": 0.0159091,
                "tempo": 120.0
            },
            {
                "start_time": 33.0545455,
                "end_time": 33.0704545,
                "pitch": 76,
                "velocity": 20,
                "duration": 0.0159091,
                "tempo": 120.0
            },
            {
                "start_time": 33.0704545,
                "end_time": 33.0863636,
                "pitch": 83,
                "velocity": 20,
                "duration": 0.0159091,
                "tempo": 120.0
            },
            {
                "start_time": 33.0886364,
                "end_time": 33.1204545,
                "pitch": 79,
                "velocity": 20,
                "duration": 0.0318182,
                "tempo": 120.0
            },
            {
                "start_time": 33.1204545,
                "end_time": 33.1386364,
                "pitch": 81,
                "velocity": 20,
                "duration": 0.0181818,
                "tempo": 120.0
            },
            {
                "start_time": 33.1386364,
                "end_time": 33.1522727,
                "pitch": 72,
                "velocity": 20,
                "duration": 0.0136364,
                "tempo": 120.0
            },
            {
                "start_time": 33.1522727,
                "end_time": 33.1681818,
                "pitch": 76,
                "velocity": 20,
                "duration": 0.0159091,
                "tempo": 120.0
            },
            {
                "start_time": 33.1704545,
                "end_time": 33.1863636,
                "pitch": 79,
                "velocity": 20,
                "duration": 0.0159091,
                "tempo": 120.0
            },
            {
                "start_time": 33.1863636,
                "end_time": 33.2022727,
                "pitch": 77,
                "velocity": 20,
                "duration": 0.0159091,
                "tempo": 120.0
            },
            {
                "start_time": 33.2022727,
                "end_time": 33.2340909,
                "pitch": 81,
                "velocity": 20,
                "duration": 0.0318182,
                "tempo": 120.0
            },
            {
                "start_time": 33.2340909,
                "end_time": 33.25,
                "pitch": 81,
                "velocity": 20,
                "duration": 0.0159091,
                "tempo": 120.0
            },
            {
                "start_time": 33.2522727,
                "end_time": 33.2681818,
                "pitch": 72,
                "velocity": 20,
                "duration": 0.0159091,
                "tempo": 120.0
            },
            {
                "start_time": 33.2681818,
                "end_time": 33.2840909,
                "pitch": 83,
                "velocity": 20,
                "duration": 0.0159091,
                "tempo": 120.0
            },
            {
                "start_time": 33.2840909,
                "end_time": 33.3,
                "pitch": 74,
                "velocity": 16,
                "duration": 0.0159091,
                "tempo": 120.0
            },
            {
                "start_time": 33.3,
                "end_time": 33.3159091,
                "pitch": 77,
                "velocity": 16,
                "duration": 0.0159091,
                "tempo": 120.0
            },
            {
                "start_time": 33.3159091,
                "end_time": 33.3318182,
                "pitch": 76,
                "velocity": 16,
                "duration": 0.0159091,
                "tempo": 120.0
            },
            {
                "start_time": 33.3340909,
                "end_time": 33.3681818,
                "pitch": 83,
                "velocity": 16,
                "duration": 0.0340909,
                "tempo": 120.0
            },
            {
                "start_time": 33.3681818,
                "end_time": 33.3818182,
                "pitch": 79,
                "velocity": 16,
                "duration": 0.0136364,
                "tempo": 120.0
            },
            {
                "start_time": 33.3840909,
                "end_time": 33.4,
                "pitch": 81,
                "velocity": 16,
                "duration": 0.0159091,
                "tempo": 120.0
            },
            {
                "start_time": 33.4,
                "end_time": 33.4181818,
                "pitch": 72,
                "velocity": 16,
                "duration": 0.0181818,
                "tempo": 120.0
            },
            {
                "start_time": 33.4181818,
                "end_time": 33.4340909,
                "pitch": 76,
                "velocity": 16,
                "duration": 0.0159091,
                "tempo": 120.0
            },
            {
                "start_time": 33.4340909,
                "end_time": 33.4522727,
                "pitch": 79,
                "velocity": 16,
                "duration": 0.0181818,
                "tempo": 120.0
            },
            {
                "start_time": 33.4522727,
                "end_time": 33.4863636,
                "pitch": 77,
                "velocity": 16,
                "duration": 0.0340909,
                "tempo": 120.0
            },
            {
                "start_time": 33.4863636,
                "end_time": 33.5022727,
                "pitch": 81,
                "velocity": 16,
                "duration": 0.0159091,
                "tempo": 120.0
            },
            {
                "start_time": 33.5022727,
                "end_time": 33.5204545,
                "pitch": 81,
                "velocity": 16,
                "duration": 0.0181818,
                "tempo": 120.0
            },
            {
                "start_time": 33.5204545,
                "end_time": 33.5363636,
                "pitch": 72,
                "velocity": 16,
                "duration": 0.0159091,
                "tempo": 120.0
            },
            {
                "start_time": 33.5386364,
                "end_time": 33.5545455,
                "pitch": 83,
                "velocity": 16,
                "duration": 0.0159091,
                "tempo": 120.0
            },
            {
                "start_time": 36.6318182,
                "end_time": 36.6795455,
                "pitch": 89,
                "velocity": 25,
                "duration": 0.0477273,
                "tempo": 120.0
            },
            {
                "start_time": 36.6795455,
                "end_time": 36.7136364,
                "pitch": 86,
                "velocity": 25,
                "duration": 0.0340909,
                "tempo": 120.0
            },
            {
                "start_time": 36.7136364,
                "end_time": 36.7477273,
                "pitch": 88,
                "velocity": 25,
                "duration": 0.0340909,
                "tempo": 120.0
            },
            {
                "start_time": 36.7477273,
                "end_time": 36.7977273,
                "pitch": 84,
                "velocity": 25,
                "duration": 0.05,
                "tempo": 120.0
            },
            {
                "start_time": 36.7977273,
                "end_time": 36.8318182,
                "pitch": 93,
                "velocity": 25,
                "duration": 0.0340909,
                "tempo": 120.0
            },
            {
                "start_time": 36.8318182,
                "end_time": 36.8659091,
                "pitch": 84,
                "velocity": 25,
                "duration": 0.0340909,
                "tempo": 120.0
            },
            {
                "start_time": 36.8659091,
                "end_time": 36.9136364,
                "pitch": 89,
                "velocity": 25,
                "duration": 0.0477273,
                "tempo": 120.0
            },
            {
                "start_time": 36.9136364,
                "end_time": 36.9477273,
                "pitch": 91,
                "velocity": 25,
                "duration": 0.0340909,
                "tempo": 120.0
            },
            {
                "start_time": 36.9477273,
                "end_time": 36.9818182,
                "pitch": 95,
                "velocity": 25,
                "duration": 0.0340909,
                "tempo": 120.0
            },
            {
                "start_time": 36.9818182,
                "end_time": 37.0318182,
                "pitch": 88,
                "velocity": 25,
                "duration": 0.05,
                "tempo": 120.0
            },
            {
                "start_time": 37.0318182,
                "end_time": 37.0659091,
                "pitch": 89,
                "velocity": 20,
                "duration": 0.0340909,
                "tempo": 120.0
            },
            {
                "start_time": 37.0659091,
                "end_time": 37.1,
                "pitch": 86,
                "velocity": 20,
                "duration": 0.0340909,
                "tempo": 120.0
            },
            {
                "start_time": 37.1,
                "end_time": 37.1318182,
                "pitch": 88,
                "velocity": 20,
                "duration": 0.0318182,
                "tempo": 120.0
            },
            {
                "start_time": 37.1318182,
                "end_time": 37.1840909,
                "pitch": 84,
                "velocity": 20,
                "duration": 0.0522727,
                "tempo": 120.0
            },
            {
                "start_time": 37.1840909,
                "end_time": 37.2181818,
                "pitch": 93,
                "velocity": 20,
                "duration": 0.0340909,
                "tempo": 120.0
            },
            {
                "start_time": 37.2181818,
                "end_time": 37.2522727,
                "pitch": 84,
                "velocity": 20,
                "duration": 0.0340909,
                "tempo": 120.0
            },
            {
                "start_time": 37.2522727,
                "end_time": 37.3045455,
                "pitch": 89,
                "velocity": 20,
                "duration": 0.0522727,
                "tempo": 120.0
            },
            {
                "start_time": 37.3045455,
                "end_time": 37.3386364,
                "pitch": 91,
                "velocity": 20,
                "duration": 0.0340909,
                "tempo": 120.0
            },
            {
                "start_time": 37.3386364,
                "end_time": 37.3727273,
                "pitch": 95,
                "velocity": 20,
                "duration": 0.0340909,
                "tempo": 120.0
            },
            {
                "start_time": 37.3727273,
                "end_time": 37.4227273,
                "pitch": 88,
                "velocity": 20,
                "duration": 0.05,
                "tempo": 120.0
            },
            {
                "start_time": 37.425,
                "end_time": 37.4568182,
                "pitch": 89,
                "velocity": 16,
                "duration": 0.0318182,
                "tempo": 120.0
            },
            {
                "start_time": 37.4590909,
                "end_time": 37.4931818,
                "pitch": 86,
                "velocity": 16,
                "duration": 0.0340909,
                "tempo": 120.0
            },
            {
                "start_time": 37.4931818,
                "end_time": 37.5431818,
                "pitch": 88,
                "velocity": 16,
                "duration": 0.05,
                "tempo": 120.0
            },
            {
                "start_time": 37.5431818,
                "end_time": 37.5818182,
                "pitch": 84,
                "velocity": 16,
                "duration": 0.0386364,
                "tempo": 120.0
            },
            {
                "start_time": 37.5818182,
                "end_time": 37.6113636,
                "pitch": 93,
                "velocity": 16,
                "duration": 0.0295455,
                "tempo": 120.0
            },
            {
                "start_time": 37.6113636,
                "end_time": 37.6431818,
                "pitch": 84,
                "velocity": 16,
                "duration": 0.0318182,
                "tempo": 120.0
            },
            {
                "start_time": 37.6431818,
                "end_time": 37.6931818,
                "pitch": 89,
                "velocity": 16,
                "duration": 0.05,
                "tempo": 120.0
            },
            {
                "start_time": 37.6931818,
                "end_time": 37.725,
                "pitch": 91,
                "velocity": 16,
                "duration": 0.0318182,
                "tempo": 120.0
            },
            {
                "start_time": 37.725,
                "end_time": 37.7568182,
                "pitch": 95,
                "velocity": 16,
                "duration": 0.0318182,
                "tempo": 120.0
            },
            {
                "start_time": 37.7590909,
                "end_time": 37.8068182,
                "pitch": 88,
                "velocity": 16,
                "duration": 0.0477273,
                "tempo": 120.0
            },
            {
                "start_time": 37.8090909,
                "end_time": 37.8386364,
                "pitch": 89,
                "velocity": 13,
                "duration": 0.0295455,
                "tempo": 120.0
            },
            {
                "start_time": 37.8409091,
                "end_time": 37.8727273,
                "pitch": 86,
                "velocity": 13,
                "duration": 0.0318182,
                "tempo": 120.0
            },
            {
                "start_time": 37.8727273,
                "end_time": 37.9227273,
                "pitch": 88,
                "velocity": 13,
                "duration": 0.05,
                "tempo": 120.0
            },
            {
                "start_time": 37.9227273,
                "end_time": 37.9545455,
                "pitch": 84,
                "velocity": 13,
                "duration": 0.0318182,
                "tempo": 120.0
            },
            {
                "start_time": 37.9545455,
                "end_time": 37.9863636,
                "pitch": 93,
                "velocity": 13,
                "duration": 0.0318182,
                "tempo": 120.0
            },
            {
                "start_time": 37.9863636,
                "end_time": 38.0363636,
                "pitch": 84,
                "velocity": 13,
                "duration": 0.05,
                "tempo": 120.0
            },
            {
                "start_time": 38.0386364,
                "end_time": 38.0704545,
                "pitch": 89,
                "velocity": 13,
                "duration": 0.0318182,
                "tempo": 120.0
            },
            {
                "start_time": 38.0704545,
                "end_time": 38.1045455,
                "pitch": 91,
                "velocity": 13,
                "duration": 0.0340909,
                "tempo": 120.0
            },
            {
                "start_time": 38.1045455,
                "end_time": 38.1386364,
                "pitch": 95,
                "velocity": 13,
                "duration": 0.0340909,
                "tempo": 120.0
            },
            {
                "start_time": 38.1409091,
                "end_time": 38.1909091,
                "pitch": 88,
                "velocity": 13,
                "duration": 0.05,
                "tempo": 120.0
            },
            {
                "start_time": 38.1909091,
                "end_time": 38.225,
                "pitch": 89,
                "velocity": 10,
                "duration": 0.0340909,
                "tempo": 120.0
            },
            {
                "start_time": 38.225,
                "end_time": 38.2590909,
                "pitch": 86,
                "velocity": 10,
                "duration": 0.0340909,
                "tempo": 120.0
            },
            {
                "start_time": 38.2590909,
                "end_time": 38.3113636,
                "pitch": 88,
                "velocity": 10,
                "duration": 0.0522727,
                "tempo": 120.0
            },
            {
                "start_time": 38.3113636,
                "end_time": 38.3454545,
                "pitch": 84,
                "velocity": 10,
                "duration": 0.0340909,
                "tempo": 120.0
            },
            {
                "start_time": 38.3454545,
                "end_time": 38.3795455,
                "pitch": 93,
                "velocity": 10,
                "duration": 0.0340909,
                "tempo": 120.0
            },
            {
                "start_time": 38.3795455,
                "end_time": 38.4295455,
                "pitch": 84,
                "velocity": 10,
                "duration": 0.05,
                "tempo": 120.0
            },
            {
                "start_time": 38.4295455,
                "end_time": 38.4636364,
                "pitch": 89,
                "velocity": 10,
                "duration": 0.0340909,
                "tempo": 120.0
            },
            {
                "start_time": 38.4636364,
                "end_time": 38.5,
                "pitch": 91,
                "velocity": 10,
                "duration": 0.0363636,
                "tempo": 120.0
            },
            {
                "start_time": 38.5,
                "end_time": 38.5477273,
                "pitch": 95,
                "velocity": 10,
                "duration": 0.0477273,
                "tempo": 120.0
            },
            {
                "start_time": 38.5477273,
                "end_time": 38.5795455,
                "pitch": 88,
                "velocity": 10,
                "duration": 0.0318182,
                "tempo": 120.0
            },
            {
                "start_time": 38.5818182,
                "end_time": 38.6136364,
                "pitch": 89,
                "velocity": 8,
                "duration": 0.0318182,
                "tempo": 120.0
            },
            {
                "start_time": 38.6136364,
                "end_time": 38.6454545,
                "pitch": 86,
                "velocity": 8,
                "duration": 0.0318182,
                "tempo": 120.0
            },
            {
                "start_time": 38.6454545,
                "end_time": 38.6954545,
                "pitch": 88,
                "velocity": 8,
                "duration": 0.05,
                "tempo": 120.0
            },
            {
                "start_time": 38.6954545,
                "end_time": 38.7295455,
                "pitch": 84,
                "velocity": 8,
                "duration": 0.0340909,
                "tempo": 120.0
            },
            {
                "start_time": 38.7295455,
                "end_time": 38.7613636,
                "pitch": 93,
                "velocity": 8,
                "duration": 0.0318182,
                "tempo": 120.0
            },
            {
                "start_time": 38.7613636,
                "end_time": 38.8090909,
                "pitch": 84,
                "velocity": 8,
                "duration": 0.0477273,
                "tempo": 120.0
            },
            {
                "start_time": 38.8090909,
                "end_time": 38.8431818,
                "pitch": 89,
                "velocity": 8,
                "duration": 0.0340909,
                "tempo": 120.0
            },
            {
                "start_time": 38.8431818,
                "end_time": 38.875,
                "pitch": 91,
                "velocity": 8,
                "duration": 0.0318182,
                "tempo": 120.0
            },
            {
                "start_time": 38.875,
                "end_time": 38.925,
                "pitch": 95,
                "velocity": 8,
                "duration": 0.05,
                "tempo": 120.0
            },
            {
                "start_time": 38.925,
                "end_time": 38.9590909,
                "pitch": 88,
                "velocity": 8,
                "duration": 0.0340909,
                "tempo": 120.0
            },
            {
                "start_time": 43.0840909,
                "end_time": 43.1,
                "pitch": 74,
                "velocity": 51,
                "duration": 0.0159091,
                "tempo": 120.0
            },
            {
                "start_time": 43.1,
                "end_time": 43.1159091,
                "pitch": 77,
                "velocity": 51,
                "duration": 0.0159091,
                "tempo": 120.0
            },
            {
                "start_time": 43.1159091,
                "end_time": 43.1318182,
                "pitch": 76,
                "velocity": 51,
                "duration": 0.0159091,
                "tempo": 120.0
            },
            {
                "start_time": 43.1318182,
                "end_time": 43.15,
                "pitch": 83,
                "velocity": 51,
                "duration": 0.0181818,
                "tempo": 120.0
            },
            {
                "start_time": 43.15,
                "end_time": 43.1636364,
                "pitch": 79,
                "velocity": 51,
                "duration": 0.0136364,
                "tempo": 120.0
            },
            {
                "start_time": 43.1659091,
                "end_time": 43.1818182,
                "pitch": 81,
                "velocity": 51,
                "duration": 0.0159091,
                "tempo": 120.0
            },
            {
                "start_time": 43.1818182,
                "end_time": 43.2159091,
                "pitch": 72,
                "velocity": 51,
                "duration": 0.0340909,
                "tempo": 120.0
            },
            {
                "start_time": 43.2159091,
                "end_time": 43.2318182,
                "pitch": 76,
                "velocity": 51,
                "duration": 0.0159091,
                "tempo": 120.0
            },
            {
                "start_time": 43.2318182,
                "end_time": 43.2477273,
                "pitch": 79,
                "velocity": 51,
                "duration": 0.0159091,
                "tempo": 120.0
            },
            {
                "start_time": 43.2477273,
                "end_time": 43.2659091,
                "pitch": 77,
                "velocity": 51,
                "duration": 0.0181818,
                "tempo": 120.0
            },
            {
                "start_time": 43.2659091,
                "end_time": 43.2818182,
                "pitch": 81,
                "velocity": 51,
                "duration": 0.0159091,
                "tempo": 120.0
            },
            {
                "start_time": 43.2818182,
                "end_time": 43.2977273,
                "pitch": 81,
                "velocity": 51,
                "duration": 0.0159091,
                "tempo": 120.0
            },
            {
                "start_time": 43.3,
                "end_time": 43.3318182,
                "pitch": 72,
                "velocity": 51,
                "duration": 0.0318182,
                "tempo": 120.0
            },
            {
                "start_time": 43.3318182,
                "end_time": 43.35,
                "pitch": 83,
                "velocity": 51,
                "duration": 0.0181818,
                "tempo": 120.0
            },
            {
                "start_time": 43.35,
                "end_time": 43.3659091,
                "pitch": 74,
                "velocity": 40,
                "duration": 0.0159091,
                "tempo": 120.0
            },
            {
                "start_time": 43.3659091,
                "end_time": 43.3840909,
                "pitch": 77,
                "velocity": 40,
                "duration": 0.0181818,
                "tempo": 120.0
            },
            {
                "start_time": 43.3840909,
                "end_time": 43.4,
                "pitch": 76,
                "velocity": 40,
                "duration": 0.0159091,
                "tempo": 120.0
            },
            {
                "start_time": 43.4,
                "end_time": 43.4159091,
                "pitch": 83,
                "velocity": 40,
                "duration": 0.0159091,
                "tempo": 120.0
            },
            {
                "start_time": 43.4159091,
                "end_time": 43.4318182,
                "pitch": 79,
                "velocity": 40,
                "duration": 0.0159091,
                "tempo": 120.0
            },
            {
                "start_time": 43.4318182,
                "end_time": 43.4659091,
                "pitch": 81,
                "velocity": 40,
                "duration": 0.0340909,
                "tempo": 120.0
            },
            {
                "start_time": 43.4659091,
                "end_time": 43.4818182,
                "pitch": 72,
                "velocity": 40,
                "duration": 0.0159091,
                "tempo": 120.0
            },
            {
                "start_time": 43.4840909,
                "end_time": 43.5,
                "pitch": 76,
                "velocity": 40,
                "duration": 0.0159091,
                "tempo": 120.0
            },
            {
                "start_time": 43.5,
                "end_time": 43.5159091,
                "pitch": 79,
                "velocity": 40,
                "duration": 0.0159091,
                "tempo": 120.0
            },
            {
                "start_time": 43.5159091,
                "end_time": 43.5340909,
                "pitch": 77,
                "velocity": 40,
                "duration": 0.0181818,
                "tempo": 120.0
            },
            {
                "start_time": 43.5340909,
                "end_time": 43.55,
                "pitch": 81,
                "velocity": 40,
                "duration": 0.0159091,
                "tempo": 120.0
            },
            {
                "start_time": 43.55,
                "end_time": 43.5840909,
                "pitch": 81,
                "velocity": 40,
                "duration": 0.0340909,
                "tempo": 120.0
            },
            {
                "start_time": 43.5840909,
                "end_time": 43.6,
                "pitch": 72,
                "velocity": 40,
                "duration": 0.0159091,
                "tempo": 120.0
            },
            {
                "start_time": 43.6,
                "end_time": 43.6181818,
                "pitch": 83,
                "velocity": 40,
                "duration": 0.0181818,
                "tempo": 120.0
            },
            {
                "start_time": 43.6181818,
                "end_time": 43.6318182,
                "pitch": 74,
                "velocity": 32,
                "duration": 0.0136364,
                "tempo": 120.0
            },
            {
                "start_time": 43.6340909,
                "end_time": 43.65,
                "pitch": 77,
                "velocity": 32,
                "duration": 0.0159091,
                "tempo": 120.0
            },
            {
                "start_time": 43.65,
                "end_time": 43.6659091,
                "pitch": 76,
                "velocity": 32,
                "duration": 0.0159091,
                "tempo": 120.0
            },
            {
                "start_time": 43.6659091,
                "end_time": 43.6818182,
                "pitch": 83,
                "velocity": 32,
                "duration": 0.0159091,
                "tempo": 120.0
            },
            {
                "start_time": 43.6818182,
                "end_time": 43.7136364,
                "pitch": 79,
                "velocity": 32,
                "duration": 0.0318182,
                "tempo": 120.0
            },
            {
                "start_time": 43.7159091,
                "end_time": 43.7318182,
                "pitch": 81,
                "velocity": 32,
                "duration": 0.0159091,
                "tempo": 120.0
            },
            {
                "start_time": 43.7318182,
                "end_time": 43.7477273,
                "pitch": 72,
                "velocity": 32,
                "duration": 0.0159091,
                "tempo": 120.0
            },
            {
                "start_time": 43.7477273,
                "end_time": 43.7636364,
                "pitch": 76,
                "velocity": 32,
                "duration": 0.0159091,
                "tempo": 120.0
            },
            {
                "start_time": 43.7636364,
                "end_time": 43.7795455,
                "pitch": 79,
                "velocity": 32,
                "duration": 0.0159091,
                "tempo": 120.0
            },
            {
                "start_time": 43.7795455,
                "end_time": 43.7954545,
                "pitch": 77,
                "velocity": 32,
                "duration": 0.0159091,
                "tempo": 120.0
            },
            {
                "start_time": 43.7977273,
                "end_time": 43.8295455,
                "pitch": 81,
                "velocity": 32,
                "duration": 0.0318182,
                "tempo": 120.0
            },
            {
                "start_time": 43.8295455,
                "end_time": 43.8477273,
                "pitch": 81,
                "velocity": 32,
                "duration": 0.0181818,
                "tempo": 120.0
            },
            {
                "start_time": 43.8477273,
                "end_time": 43.8613636,
                "pitch": 72,
                "velocity": 32,
                "duration": 0.0136364,
                "tempo": 120.0
            },
            {
                "start_time": 43.8613636,
                "end_time": 43.8772727,
                "pitch": 83,
                "velocity": 32,
                "duration": 0.0159091,
                "tempo": 120.0
            },
            {
                "start_time": 43.8795455,
                "end_time": 43.8954545,
                "pitch": 74,
                "velocity": 25,
                "duration": 0.0159091,
                "tempo": 120.0
            },
            {
                "start_time": 43.8954545,
                "end_time": 43.9113636,
                "pitch": 77,
                "velocity": 25,
                "duration": 0.0159091,
                "tempo": 120.0
            },
            {
                "start_time": 43.9113636,
                "end_time": 43.9272727,
                "pitch": 76,
                "velocity": 25,
                "duration": 0.0159091,
                "tempo": 120.0
            },
            {
                "start_time": 43.9272727,
                "end_time": 43.9590909,
                "pitch": 83,
                "velocity": 25,
                "duration": 0.0318182,
                "tempo": 120.0
            },
            {
                "start_time": 43.9613636,
                "end_time": 43.9772727,
                "pitch": 79,
                "velocity": 25,
                "duration": 0.0159091,
                "tempo": 120.0
            },
            {
                "start_time": 43.9772727,
                "end_time": 43.9931818,
                "pitch": 81,
                "velocity": 25,
                "duration": 0.0159091,
                "tempo": 120.0
            },
            {
                "start_time": 43.9931818,
                "end_time": 44.0090909,
                "pitch": 72,
                "velocity": 25,
                "duration": 0.0159091,
                "tempo": 120.0
            },
            {
                "start_time": 44.0090909,
                "end_time": 44.025,
                "pitch": 76,
                "velocity": 25,
                "duration": 0.0159091,
                "tempo": 120.0
            },
            {
                "start_time": 44.025,
                "end_time": 44.0409091,
                "pitch": 79,
                "velocity": 25,
                "duration": 0.0159091,
                "tempo": 120.0
            },
            {
                "start_time": 44.0431818,
                "end_time": 44.0772727,
                "pitch": 77,
                "velocity": 25,
                "duration": 0.0340909,
                "tempo": 120.0
            },
            {
                "start_time": 44.0772727,
                "end_time": 44.0931818,
                "pitch": 81,
                "velocity": 25,
                "duration": 0.0159091,
                "tempo": 120.0
            },
            {
                "start_time": 44.0931818,
                "end_time": 44.1090909,
                "pitch": 81,
                "velocity": 25,
                "duration": 0.0159091,
                "tempo": 120.0
            },
            {
                "start_time": 44.1090909,
                "end_time": 44.1272727,
                "pitch": 72,
                "velocity": 25,
                "duration": 0.0181818,
                "tempo": 120.0
            },
            {
                "start_time": 44.1272727,
                "end_time": 44.1454545,
                "pitch": 83,
                "velocity": 25,
                "duration": 0.0181818,
                "tempo": 120.0
            },
            {
                "start_time": 44.1454545,
                "end_time": 44.1613636,
                "pitch": 74,
                "velocity": 20,
                "duration": 0.0159091,
                "tempo": 120.0
            },
            {
                "start_time": 44.1613636,
                "end_time": 44.1795455,
                "pitch": 77,
                "velocity": 20,
                "duration": 0.0181818,
                "tempo": 120.0
            },
            {
                "start_time": 44.1795455,
                "end_time": 44.2136364,
                "pitch": 76,
                "velocity": 20,
                "duration": 0.0340909,
                "tempo": 120.0
            },
            {
                "start_time": 44.2136364,
                "end_time": 44.2318182,
                "pitch": 83,
                "velocity": 20,
                "duration": 0.0181818,
                "tempo": 120.0
            },
            {
                "start_time": 44.2318182,
                "end_time": 44.25,
                "pitch": 79,
                "velocity": 20,
                "duration": 0.0181818,
                "tempo": 120.0
            },
            {
                "start_time": 44.25,
                "end_time": 44.2659091,
                "pitch": 81,
                "velocity": 20,
                "duration": 0.0159091,
                "tempo": 120.0
            },
            {
                "start_time": 44.2659091,
                "end_time": 44.2840909,
                "pitch": 72,
                "velocity": 20,
                "duration": 0.0181818,
                "tempo": 120.0
            },
            {
                "start_time": 44.2840909,
                "end_time": 44.3022727,
                "pitch": 76,
                "velocity": 20,
                "duration": 0.0181818,
                "tempo": 120.0
            },
            {
                "start_time": 44.3022727,
                "end_time": 44.3363636,
                "pitch": 79,
                "velocity": 20,
                "duration": 0.0340909,
                "tempo": 120.0
            },
            {
                "start_time": 44.3363636,
                "end_time": 44.3545455,
                "pitch": 77,
                "velocity": 20,
                "duration": 0.0181818,
                "tempo": 120.0
            },
            {
                "start_time": 44.3545455,
                "end_time": 44.3704545,
                "pitch": 81,
                "velocity": 20,
                "duration": 0.0159091,
                "tempo": 120.0
            },
            {
                "start_time": 44.3704545,
                "end_time": 44.3886364,
                "pitch": 81,
                "velocity": 20,
                "duration": 0.0181818,
                "tempo": 120.0
            },
            {
                "start_time": 44.3886364,
                "end_time": 44.4068182,
                "pitch": 72,
                "velocity": 20,
                "duration": 0.0181818,
                "tempo": 120.0
            },
            {
                "start_time": 44.4068182,
                "end_time": 44.4227273,
                "pitch": 83,
                "velocity": 20,
                "duration": 0.0159091,
                "tempo": 120.0
            },
            {
                "start_time": 44.4227273,
                "end_time": 44.4409091,
                "pitch": 74,
                "velocity": 16,
                "duration": 0.0181818,
                "tempo": 120.0
            },
            {
                "start_time": 44.4409091,
                "end_time": 44.475,
                "pitch": 77,
                "velocity": 16,
                "duration": 0.0340909,
                "tempo": 120.0
            },
            {
                "start_time": 44.475,
                "end_time": 44.4931818,
                "pitch": 76,
                "velocity": 16,
                "duration": 0.0181818,
                "tempo": 120.0
            },
            {
                "start_time": 44.4931818,
                "end_time": 44.5113636,
                "pitch": 83,
                "velocity": 16,
                "duration": 0.0181818,
                "tempo": 120.0
            },
            {
                "start_time": 44.5113636,
                "end_time": 44.5272727,
                "pitch": 79,
                "velocity": 16,
                "duration": 0.0159091,
                "tempo": 120.0
            },
            {
                "start_time": 44.5272727,
                "end_time": 44.5454545,
                "pitch": 81,
                "velocity": 16,
                "duration": 0.0181818,
                "tempo": 120.0
            },
            {
                "start_time": 44.5454545,
                "end_time": 44.5613636,
                "pitch": 72,
                "velocity": 16,
                "duration": 0.0159091,
                "tempo": 120.0
            },
            {
                "start_time": 44.5613636,
                "end_time": 44.5931818,
                "pitch": 76,
                "velocity": 16,
                "duration": 0.0318182,
                "tempo": 120.0
            },
            {
                "start_time": 44.5931818,
                "end_time": 44.6090909,
                "pitch": 79,
                "velocity": 16,
                "duration": 0.0159091,
                "tempo": 120.0
            },
            {
                "start_time": 44.6113636,
                "end_time": 44.6272727,
                "pitch": 77,
                "velocity": 16,
                "duration": 0.0159091,
                "tempo": 120.0
            },
            {
                "start_time": 44.6272727,
                "end_time": 44.6431818,
                "pitch": 81,
                "velocity": 16,
                "duration": 0.0159091,
                "tempo": 120.0
            },
            {
                "start_time": 44.6431818,
                "end_time": 44.6590909,
                "pitch": 81,
                "velocity": 16,
                "duration": 0.0159091,
                "tempo": 120.0
            },
            {
                "start_time": 44.6590909,
                "end_time": 44.675,
                "pitch": 72,
                "velocity": 16,
                "duration": 0.0159091,
                "tempo": 120.0
            },
            {
                "start_time": 44.675,
                "end_time": 44.6909091,
                "pitch": 83,
                "velocity": 16,
                "duration": 0.0159091,
                "tempo": 120.0
            },
            {
                "start_time": 47.7704545,
                "end_time": 47.8045455,
                "pitch": 89,
                "velocity": 25,
                "duration": 0.0340909,
                "tempo": 120.0
            },
            {
                "start_time": 47.8045455,
                "end_time": 47.8386364,
                "pitch": 86,
                "velocity": 25,
                "duration": 0.0340909,
                "tempo": 120.0
            },
            {
                "start_time": 47.8386364,
                "end_time": 47.8886364,
                "pitch": 88,
                "velocity": 25,
                "duration": 0.05,
                "tempo": 120.0
            },
            {
                "start_time": 47.8886364,
                "end_time": 47.9227273,
                "pitch": 84,
                "velocity": 25,
                "duration": 0.0340909,
                "tempo": 120.0
            },
            {
                "start_time": 47.9227273,
                "end_time": 47.9568182,
                "pitch": 93,
                "velocity": 25,
                "duration": 0.0340909,
                "tempo": 120.0
            },
            {
                "start_time": 47.9590909,
                "end_time": 48.0090909,
                "pitch": 84,
                "velocity": 25,
                "duration": 0.05,
                "tempo": 120.0
            },
            {
                "start_time": 48.0090909,
                "end_time": 48.0454545,
                "pitch": 89,
                "velocity": 25,
                "duration": 0.0363636,
                "tempo": 120.0
            },
            {
                "start_time": 48.0454545,
                "end_time": 48.0772727,
                "pitch": 91,
                "velocity": 25,
                "duration": 0.0318182,
                "tempo": 120.0
            },
            {
                "start_time": 48.0772727,
                "end_time": 48.1295455,
                "pitch": 95,
                "velocity": 25,
                "duration": 0.0522727,
                "tempo": 120.0
            },
            {
                "start_time": 48.1295455,
                "end_time": 48.1636364,
                "pitch": 88,
                "velocity": 25,
                "duration": 0.0340909,
                "tempo": 120.0
            },
            {
                "start_time": 48.1636364,
                "end_time": 48.1977273,
                "pitch": 89,
                "velocity": 20,
                "duration": 0.0340909,
                "tempo": 120.0
            },
            {
                "start_time": 48.1977273,
                "end_time": 48.2318182,
                "pitch": 86,
                "velocity": 20,
                "duration": 0.0340909,
                "tempo": 120.0
            },
            {
                "start_time": 48.2318182,
                "end_time": 48.2840909,
                "pitch": 88,
                "velocity": 20,
                "duration": 0.0522727,
                "tempo": 120.0
            },
            {
                "start_time": 48.2840909,
                "end_time": 48.3159091,
                "pitch": 84,
                "velocity": 20,
                "duration": 0.0318182,
                "tempo": 120.0
            },
            {
                "start_time": 48.3181818,
                "end_time": 48.35,
                "pitch": 93,
                "velocity": 20,
                "duration": 0.0318182,
                "tempo": 120.0
            },
            {
                "start_time": 48.35,
                "end_time": 48.4,
                "pitch": 84,
                "velocity": 20,
                "duration": 0.05,
                "tempo": 120.0
            },
            {
                "start_time": 48.4,
                "end_time": 48.4340909,
                "pitch": 89,
                "velocity": 20,
                "duration": 0.0340909,
                "tempo": 120.0
            },
            {
                "start_time": 48.4340909,
                "end_time": 48.4681818,
                "pitch": 91,
                "velocity": 20,
                "duration": 0.0340909,
                "tempo": 120.0
            },
            {
                "start_time": 48.4681818,
                "end_time": 48.5181818,
                "pitch": 95,
                "velocity": 20,
                "duration": 0.05,
                "tempo": 120.0
            },
            {
                "start_time": 48.5181818,
                "end_time": 48.55,
                "pitch": 88,
                "velocity": 20,
                "duration": 0.0318182,
                "tempo": 120.0
            },
            {
                "start_time": 48.5522727,
                "end_time": 48.5840909,
                "pitch": 89,
                "velocity": 16,
                "duration": 0.0318182,
                "tempo": 120.0
            },
            {
                "start_time": 48.5840909,
                "end_time": 48.6340909,
                "pitch": 86,
                "velocity": 16,
                "duration": 0.05,
                "tempo": 120.0
            },
            {
                "start_time": 48.6340909,
                "end_time": 48.6681818,
                "pitch": 88,
                "velocity": 16,
                "duration": 0.0340909,
                "tempo": 120.0
            },
            {
                "start_time": 48.6681818,
                "end_time": 48.7022727,
                "pitch": 84,
                "velocity": 16,
                "duration": 0.0340909,
                "tempo": 120.0
            },
            {
                "start_time": 48.7022727,
                "end_time": 48.7386364,
                "pitch": 93,
                "velocity": 16,
                "duration": 0.0363636,
                "tempo": 120.0
            },
            {
                "start_time": 48.7409091,
                "end_time": 48.7840909,
                "pitch": 84,
                "velocity": 16,
                "duration": 0.0431818,
                "tempo": 120.0
            },
            {
                "start_time": 48.7840909,
                "end_time": 48.8159091,
                "pitch": 89,
                "velocity": 16,
                "duration": 0.0318182,
                "tempo": 120.0
            },
            {
                "start_time": 48.8181818,
                "end_time": 48.85,
                "pitch": 91,
                "velocity": 16,
                "duration": 0.0318182,
                "tempo": 120.0
            },
            {
                "start_time": 48.85,
                "end_time": 48.8977273,
                "pitch": 95,
                "velocity": 16,
                "duration": 0.0477273,
                "tempo": 120.0
            },
            {
                "start_time": 48.9,
                "end_time": 48.9318182,
                "pitch": 88,
                "velocity": 16,
                "duration": 0.0318182,
                "tempo": 120.0
            },
            {
                "start_time": 48.9318182,
                "end_time": 48.9659091,
                "pitch": 89,
                "velocity": 13,
                "duration": 0.0340909,
                "tempo": 120.0
            },
            {
                "start_time": 48.9659091,
                "end_time": 49.0136364,
                "pitch": 86,
                "velocity": 13,
                "duration": 0.0477273,
                "tempo": 120.0
            },
            {
                "start_time": 49.0136364,
                "end_time": 49.0454545,
                "pitch": 88,
                "velocity": 13,
                "duration": 0.0318182,
                "tempo": 120.0
            },
            {
                "start_time": 49.0454545,
                "end_time": 49.0795455,
                "pitch": 84,
                "velocity": 13,
                "duration": 0.0340909,
                "tempo": 120.0
            },
            {
                "start_time": 49.0795455,
                "end_time": 49.1272727,
                "pitch": 93,
                "velocity": 13,
                "duration": 0.0477273,
                "tempo": 120.0
            },
            {
                "start_time": 49.1272727,
                "end_time": 49.1613636,
                "pitch": 84,
                "velocity": 13,
                "duration": 0.0340909,
                "tempo": 120.0
            },
            {
                "start_time": 49.1613636,
                "end_time": 49.1954545,
                "pitch": 89,
                "velocity": 13,
                "duration": 0.0340909,
                "tempo": 120.0
            },
            {
                "start_time": 49.1954545,
                "end_time": 49.2272727,
                "pitch": 91,
                "velocity": 13,
                "duration": 0.0318182,
                "tempo": 120.0
            },
            {
                "start_time": 49.2272727,
                "end_time": 49.2795455,
                "pitch": 95,
                "velocity": 13,
                "duration": 0.0522727,
                "tempo": 120.0
            },
            {
                "start_time": 49.2795455,
                "end_time": 49.3136364,
                "pitch": 88,
                "velocity": 13,
                "duration": 0.0340909,
                "tempo": 120.0
            },
            {
                "start_time": 49.3136364,
                "end_time": 49.3477273,
                "pitch": 89,
                "velocity": 10,
                "duration": 0.0340909,
                "tempo": 120.0
            },
            {
                "start_time": 49.3477273,
                "end_time": 49.4,
                "pitch": 86,
                "velocity": 10,
                "duration": 0.0522727,
                "tempo": 120.0
            },
            {
                "start_time": 49.4,
                "end_time": 49.4340909,
                "pitch": 88,
                "velocity": 10,
                "duration": 0.0340909,
                "tempo": 120.0
            },
            {
                "start_time": 49.4340909,
                "end_time": 49.4681818,
                "pitch": 84,
                "velocity": 10,
                "duration": 0.0340909,
                "tempo": 120.0
            },
            {
                "start_time": 49.4681818,
                "end_time": 49.5181818,
                "pitch": 93,
                "velocity": 10,
                "duration": 0.05,
                "tempo": 120.0
            },
            {
                "start_time": 49.5181818,
                "end_time": 49.5545455,
                "pitch": 84,
                "velocity": 10,
                "duration": 0.0363636,
                "tempo": 120.0
            },
            {
                "start_time": 49.5545455,
                "end_time": 49.5863636,
                "pitch": 89,
                "velocity": 10,
                "duration": 0.0318182,
                "tempo": 120.0
            },
            {
                "start_time": 49.5886364,
                "end_time": 49.6386364,
                "pitch": 91,
                "velocity": 10,
                "duration": 0.05,
                "tempo": 120.0
            },
            {
                "start_time": 49.6386364,
                "end_time": 49.675,
                "pitch": 95,
                "velocity": 10,
                "duration": 0.0363636,
                "tempo": 120.0
            },
            {
                "start_time": 49.675,
                "end_time": 49.7068182,
                "pitch": 88,
                "velocity": 10,
                "duration": 0.0318182,
                "tempo": 120.0
            },
            {
                "start_time": 49.7068182,
                "end_time": 49.7409091,
                "pitch": 89,
                "velocity": 8,
                "duration": 0.0340909,
                "tempo": 120.0
            },
            {
                "start_time": 49.7431818,
                "end_time": 49.7931818,
                "pitch": 86,
                "velocity": 8,
                "duration": 0.05,
                "tempo": 120.0
            },
            {
                "start_time": 49.7931818,
                "end_time": 49.8272727,
                "pitch": 88,
                "velocity": 8,
                "duration": 0.0340909,
                "tempo": 120.0
            },
            {
                "start_time": 49.8272727,
                "end_time": 49.8613636,
                "pitch": 84,
                "velocity": 8,
                "duration": 0.0340909,
                "tempo": 120.0
            },
            {
                "start_time": 49.8613636,
                "end_time": 49.9136364,
                "pitch": 93,
                "velocity": 8,
                "duration": 0.0522727,
                "tempo": 120.0
            },
            {
                "start_time": 49.9159091,
                "end_time": 49.9477273,
                "pitch": 84,
                "velocity": 8,
                "duration": 0.0318182,
                "tempo": 120.0
            },
            {
                "start_time": 49.9477273,
                "end_time": 49.9818182,
                "pitch": 89,
                "velocity": 8,
                "duration": 0.0340909,
                "tempo": 120.0
            },
            {
                "start_time": 49.9818182,
                "end_time": 50.0318182,
                "pitch": 91,
                "velocity": 8,
                "duration": 0.05,
                "tempo": 120.0
            },
            {
                "start_time": 50.0340909,
                "end_time": 50.0681818,
                "pitch": 95,
                "velocity": 8,
                "duration": 0.0340909,
                "tempo": 120.0
            },
            {
                "start_time": 50.0681818,
                "end_time": 50.1022727,
                "pitch": 88,
                "velocity": 8,
                "duration": 0.0340909,
                "tempo": 120.0
            },
            {
                "start_time": 54.2159091,
                "end_time": 54.2318182,
                "pitch": 74,
                "velocity": 51,
                "duration": 0.0159091,
                "tempo": 120.0
            },
            {
                "start_time": 54.2318182,
                "end_time": 54.25,
                "pitch": 77,
                "velocity": 51,
                "duration": 0.0181818,
                "tempo": 120.0
            },
            {
                "start_time": 54.25,
                "end_time": 54.2659091,
                "pitch": 76,
                "velocity": 51,
                "duration": 0.0159091,
                "tempo": 120.0
            },
            {
                "start_time": 54.2659091,
                "end_time": 54.2818182,
                "pitch": 83,
                "velocity": 51,
                "duration": 0.0159091,
                "tempo": 120.0
            },
            {
                "start_time": 54.2818182,
                "end_time": 54.3159091,
                "pitch": 79,
                "velocity": 51,
                "duration": 0.0340909,
                "tempo": 120.0
            },
            {
                "start_time": 54.3159091,
                "end_time": 54.3340909,
                "pitch": 81,
                "velocity": 51,
                "duration": 0.0181818,
                "tempo": 120.0
            },
            {
                "start_time": 54.3340909,
                "end_time": 54.35,
                "pitch": 72,
                "velocity": 51,
                "duration": 0.0159091,
                "tempo": 120.0
            },
            {
                "start_time": 54.35,
                "end_time": 54.3659091,
                "pitch": 76,
                "velocity": 51,
                "duration": 0.0159091,
                "tempo": 120.0
            },
            {
                "start_time": 54.3659091,
                "end_time": 54.3818182,
                "pitch": 79,
                "velocity": 51,
                "duration": 0.0159091,
                "tempo": 120.0
            },
            {
                "start_time": 54.3840909,
                "end_time": 54.4,
                "pitch": 77,
                "velocity": 51,
                "duration": 0.0159091,
                "tempo": 120.0
            },
            {
                "start_time": 54.4,
                "end_time": 54.4340909,
                "pitch": 81,
                "velocity": 51,
                "duration": 0.0340909,
                "tempo": 120.0
            },
            {
                "start_time": 54.4340909,
                "end_time": 54.45,
                "pitch": 81,
                "velocity": 51,
                "duration": 0.0159091,
                "tempo": 120.0
            },
            {
                "start_time": 54.45,
                "end_time": 54.4659091,
                "pitch": 72,
                "velocity": 51,
                "duration": 0.0159091,
                "tempo": 120.0
            },
            {
                "start_time": 54.4659091,
                "end_time": 54.4840909,
                "pitch": 83,
                "velocity": 51,
                "duration": 0.0181818,
                "tempo": 120.0
            },
            {
                "start_time": 54.4840909,
                "end_time": 54.5,
                "pitch": 74,
                "velocity": 40,
                "duration": 0.0159091,
                "tempo": 120.0
            },
            {
                "start_time": 54.5,
                "end_time": 54.5159091,
                "pitch": 77,
                "velocity": 40,
                "duration": 0.0159091,
                "tempo": 120.0
            },
            {
                "start_time": 54.5181818,
                "end_time": 54.5340909,
                "pitch": 76,
                "velocity": 40,
                "duration": 0.0159091,
                "tempo": 120.0
            },
            {
                "start_time": 54.5340909,
                "end_time": 54.5681818,
                "pitch": 83,
                "velocity": 40,
                "duration": 0.0340909,
                "tempo": 120.0
            },
            {
                "start_time": 54.5681818,
                "end_time": 54.5840909,
                "pitch": 79,
                "velocity": 40,
                "duration": 0.0159091,
                "tempo": 120.0
            },
            {
                "start_time": 54.5840909,
                "end_time": 54.6,
                "pitch": 81,
                "velocity": 40,
                "duration": 0.0159091,
                "tempo": 120.0
            },
            {
                "start_time": 54.6,
                "end_time": 54.6181818,
                "pitch": 72,
                "velocity": 40,
                "duration": 0.0181818,
                "tempo": 120.0
            },
            {
                "start_time": 54.6181818,
                "end_time": 54.6340909,
                "pitch": 76,
                "velocity": 40,
                "duration": 0.0159091,
                "tempo": 120.0
            },
            {
                "start_time": 54.6340909,
                "end_time": 54.65,
                "pitch": 79,
                "velocity": 40,
                "duration": 0.0159091,
                "tempo": 120.0
            },
            {
                "start_time": 54.65,
                "end_time": 54.6840909,
                "pitch": 77,
                "velocity": 40,
                "duration": 0.0340909,
                "tempo": 120.0
            },
            {
                "start_time": 54.6840909,
                "end_time": 54.7,
                "pitch": 81,
                "velocity": 40,
                "duration": 0.0159091,
                "tempo": 120.0
            },
            {
                "start_time": 54.7022727,
                "end_time": 54.7181818,
                "pitch": 81,
                "velocity": 40,
                "duration": 0.0159091,
                "tempo": 120.0
            },
            {
                "start_time": 54.7181818,
                "end_time": 54.7340909,
                "pitch": 72,
                "velocity": 40,
                "duration": 0.0159091,
                "tempo": 120.0
            },
            {
                "start_time": 54.7340909,
                "end_time": 54.7522727,
                "pitch": 83,
                "velocity": 40,
                "duration": 0.0181818,
                "tempo": 120.0
            },
            {
                "start_time": 54.7522727,
                "end_time": 54.7681818,
                "pitch": 74,
                "velocity": 32,
                "duration": 0.0159091,
                "tempo": 120.0
            },
            {
                "start_time": 54.7681818,
                "end_time": 54.7863636,
                "pitch": 77,
                "velocity": 32,
                "duration": 0.0181818,
                "tempo": 120.0
            },
            {
                "start_time": 54.7863636,
                "end_time": 54.8181818,
                "pitch": 76,
                "velocity": 32,
                "duration": 0.0318182,
                "tempo": 120.0
            },
            {
                "start_time": 54.8181818,
                "end_time": 54.8363636,
                "pitch": 83,
                "velocity": 32,
                "duration": 0.0181818,
                "tempo": 120.0
            },
            {
                "start_time": 54.8363636,
                "end_time": 54.8522727,
                "pitch": 79,
                "velocity": 32,
                "duration": 0.0159091,
                "tempo": 120.0
            },
            {
                "start_time": 54.8522727,
                "end_time": 54.8704545,
                "pitch": 81,
                "velocity": 32,
                "duration": 0.0181818,
                "tempo": 120.0
            },
            {
                "start_time": 54.8704545,
                "end_time": 54.8863636,
                "pitch": 72,
                "velocity": 32,
                "duration": 0.0159091,
                "tempo": 120.0
            },
            {
                "start_time": 54.8886364,
                "end_time": 54.9045455,
                "pitch": 76,
                "velocity": 32,
                "duration": 0.0159091,
                "tempo": 120.0
            },
            {
                "start_time": 54.9045455,
                "end_time": 54.9386364,
                "pitch": 79,
                "velocity": 32,
                "duration": 0.0340909,
                "tempo": 120.0
            },
            {
                "start_time": 54.9386364,
                "end_time": 54.9568182,
                "pitch": 77,
                "velocity": 32,
                "duration": 0.0181818,
                "tempo": 120.0
            },
            {
                "start_time": 54.9568182,
                "end_time": 54.9727273,
                "pitch": 81,
                "velocity": 32,
                "duration": 0.0159091,
                "tempo": 120.0
            },
            {
                "start_time": 54.9727273,
                "end_time": 54.9909091,
                "pitch": 81,
                "velocity": 32,
                "duration": 0.0181818,
                "tempo": 120.0
            },
            {
                "start_time": 54.9909091,
                "end_time": 55.0068182,
                "pitch": 72,
                "velocity": 32,
                "duration": 0.0159091,
                "tempo": 120.0
            },
            {
                "start_time": 55.0068182,
                "end_time": 55.025,
                "pitch": 83,
                "velocity": 32,
                "duration": 0.0181818,
                "tempo": 120.0
            },
            {
                "start_time": 55.0272727,
                "end_time": 55.0409091,
                "pitch": 74,
                "velocity": 25,
                "duration": 0.0136364,
                "tempo": 120.0
            },
            {
                "start_time": 55.0409091,
                "end_time": 55.075,
                "pitch": 77,
                "velocity": 25,
                "duration": 0.0340909,
                "tempo": 120.0
            },
            {
                "start_time": 55.075,
                "end_time": 55.0931818,
                "pitch": 76,
                "velocity": 25,
                "duration": 0.0181818,
                "tempo": 120.0
            },
            {
                "start_time": 55.0931818,
                "end_time": 55.1090909,
                "pitch": 83,
                "velocity": 25,
                "duration": 0.0159091,
                "tempo": 120.0
            },
            {
                "start_time": 55.1113636,
                "end_time": 55.1272727,
                "pitch": 79,
                "velocity": 25,
                "duration": 0.0159091,
                "tempo": 120.0
            },
            {
                "start_time": 55.1272727,
                "end_time": 55.1431818,
                "pitch": 81,
                "velocity": 25,
                "duration": 0.0159091,
                "tempo": 120.0
            },
            {
                "start_time": 55.1454545,
                "end_time": 55.1613636,
                "pitch": 72,
                "velocity": 25,
                "duration": 0.0159091,
                "tempo": 120.0
            },
            {
                "start_time": 55.1613636,
                "end_time": 55.1954545,
                "pitch": 76,
                "velocity": 25,
                "duration": 0.0340909,
                "tempo": 120.0
            },
            {
                "start_time": 55.1954545,
                "end_time": 55.2136364,
                "pitch": 79,
                "velocity": 25,
                "duration": 0.0181818,
                "tempo": 120.0
            },
            {
                "start_time": 55.2136364,
                "end_time": 55.2295455,
                "pitch": 77,
                "velocity": 25,
                "duration": 0.0159091,
                "tempo": 120.0
            },
            {
                "start_time": 55.2295455,
                "end_time": 55.2477273,
                "pitch": 81,
                "velocity": 25,
                "duration": 0.0181818,
                "tempo": 120.0
            },
            {
                "start_time": 55.2477273,
                "end_time": 55.2659091,
                "pitch": 81,
                "velocity": 25,
                "duration": 0.0181818,
                "tempo": 120.0
            },
            {
                "start_time": 55.2659091,
                "end_time": 55.2818182,
                "pitch": 72,
                "velocity": 25,
                "duration": 0.0159091,
                "tempo": 120.0
            },
            {
                "start_time": 55.2818182,
                "end_time": 55.2977273,
                "pitch": 83,
                "velocity": 25,
                "duration": 0.0159091,
                "tempo": 120.0
            },
            {
                "start_time": 55.2977273,
                "end_time": 55.3318182,
                "pitch": 74,
                "velocity": 20,
                "duration": 0.0340909,
                "tempo": 120.0
            },
            {
                "start_time": 55.3318182,
                "end_time": 55.3477273,
                "pitch": 77,
                "velocity": 20,
                "duration": 0.0159091,
                "tempo": 120.0
            },
            {
                "start_time": 55.3477273,
                "end_time": 55.3636364,
                "pitch": 76,
                "velocity": 20,
                "duration": 0.0159091,
                "tempo": 120.0
            },
            {
                "start_time": 55.3659091,
                "end_time": 55.3818182,
                "pitch": 83,
                "velocity": 20,
                "duration": 0.0159091,
                "tempo": 120.0
            },
            {
                "start_time": 55.3818182,
                "end_time": 55.3977273,
                "pitch": 79,
                "velocity": 20,
                "duration": 0.0159091,
                "tempo": 120.0
            },
            {
                "start_time": 55.3977273,
                "end_time": 55.4159091,
                "pitch": 81,
                "velocity": 20,
                "duration": 0.0181818,
                "tempo": 120.0
            },
            {
                "start_time": 55.4159091,
                "end_time": 55.4477273,
                "pitch": 72,
                "velocity": 20,
                "duration": 0.0318182,
                "tempo": 120.0
            },
            {
                "start_time": 55.4477273,
                "end_time": 55.4659091,
                "pitch": 76,
                "velocity": 20,
                "duration": 0.0181818,
                "tempo": 120.0
            },
            {
                "start_time": 55.4659091,
                "end_time": 55.4818182,
                "pitch": 79,
                "velocity": 20,
                "duration": 0.0159091,
                "tempo": 120.0
            },
            {
                "start_time": 55.4818182,
                "end_time": 55.5,
                "pitch": 77,
                "velocity": 20,
                "duration": 0.0181818,
                "tempo": 120.0
            },
            {
                "start_time": 55.5,
                "end_time": 55.5159091,
                "pitch": 81,
                "velocity": 20,
                "duration": 0.0159091,
                "tempo": 120.0
            },
            {
                "start_time": 55.5159091,
                "end_time": 55.5318182,
                "pitch": 81,
                "velocity": 20,
                "duration": 0.0159091,
                "tempo": 120.0
            },
            {
                "start_time": 55.5318182,
                "end_time": 55.5477273,
                "pitch": 72,
                "velocity": 20,
                "duration": 0.0159091,
                "tempo": 120.0
            },
            {
                "start_time": 55.55,
                "end_time": 55.5818182,
                "pitch": 83,
                "velocity": 20,
                "duration": 0.0318182,
                "tempo": 120.0
            },
            {
                "start_time": 55.5818182,
                "end_time": 55.6,
                "pitch": 74,
                "velocity": 16,
                "duration": 0.0181818,
                "tempo": 120.0
            },
            {
                "start_time": 55.6,
                "end_time": 55.6159091,
                "pitch": 77,
                "velocity": 16,
                "duration": 0.0159091,
                "tempo": 120.0
            },
            {
                "start_time": 55.6159091,
                "end_time": 55.6318182,
                "pitch": 76,
                "velocity": 16,
                "duration": 0.0159091,
                "tempo": 120.0
            },
            {
                "start_time": 55.6318182,
                "end_time": 55.65,
                "pitch": 83,
                "velocity": 16,
                "duration": 0.0181818,
                "tempo": 120.0
            },
            {
                "start_time": 55.65,
                "end_time": 55.6659091,
                "pitch": 79,
                "velocity": 16,
                "duration": 0.0159091,
                "tempo": 120.0
            },
            {
                "start_time": 55.6659091,
                "end_time": 55.7,
                "pitch": 81,
                "velocity": 16,
                "duration": 0.0340909,
                "tempo": 120.0
            },
            {
                "start_time": 55.7,
                "end_time": 55.7159091,
                "pitch": 72,
                "velocity": 16,
                "duration": 0.0159091,
                "tempo": 120.0
            },
            {
                "start_time": 55.7159091,
                "end_time": 55.7340909,
                "pitch": 76,
                "velocity": 16,
                "duration": 0.0181818,
                "tempo": 120.0
            },
            {
                "start_time": 55.7340909,
                "end_time": 55.7477273,
                "pitch": 79,
                "velocity": 16,
                "duration": 0.0136364,
                "tempo": 120.0
            },
            {
                "start_time": 55.7477273,
                "end_time": 55.7636364,
                "pitch": 77,
                "velocity": 16,
                "duration": 0.0159091,
                "tempo": 120.0
            },
            {
                "start_time": 55.7636364,
                "end_time": 55.7795455,
                "pitch": 81,
                "velocity": 16,
                "duration": 0.0159091,
                "tempo": 120.0
            },
            {
                "start_time": 55.7795455,
                "end_time": 55.7954545,
                "pitch": 81,
                "velocity": 16,
                "duration": 0.0159091,
                "tempo": 120.0
            },
            {
                "start_time": 55.7954545,
                "end_time": 55.8272727,
                "pitch": 72,
                "velocity": 16,
                "duration": 0.0318182,
                "tempo": 120.0
            },
            {
                "start_time": 55.8272727,
                "end_time": 55.8431818,
                "pitch": 83,
                "velocity": 16,
                "duration": 0.0159091,
                "tempo": 120.0
            },
            {
                "start_time": 58.9159091,
                "end_time": 58.95,
                "pitch": 89,
                "velocity": 25,
                "duration": 0.0340909,
                "tempo": 120.0
            },
            {
                "start_time": 58.95,
                "end_time": 59.0022727,
                "pitch": 86,
                "velocity": 25,
                "duration": 0.0522727,
                "tempo": 120.0
            },
            {
                "start_time": 59.0022727,
                "end_time": 59.0340909,
                "pitch": 88,
                "velocity": 25,
                "duration": 0.0318182,
                "tempo": 120.0
            },
            {
                "start_time": 59.0340909,
                "end_time": 59.0681818,
                "pitch": 84,
                "velocity": 25,
                "duration": 0.0340909,
                "tempo": 120.0
            },
            {
                "start_time": 59.0681818,
                "end_time": 59.1204545,
                "pitch": 93,
                "velocity": 25,
                "duration": 0.0522727,
                "tempo": 120.0
            },
            {
                "start_time": 59.1204545,
                "end_time": 59.1545455,
                "pitch": 84,
                "velocity": 25,
                "duration": 0.0340909,
                "tempo": 120.0
            },
            {
                "start_time": 59.1545455,
                "end_time": 59.1886364,
                "pitch": 89,
                "velocity": 25,
                "duration": 0.0340909,
                "tempo": 120.0
            },
            {
                "start_time": 59.1886364,
                "end_time": 59.2409091,
                "pitch": 91,
                "velocity": 25,
                "duration": 0.0522727,
                "tempo": 120.0
            },
            {
                "start_time": 59.2409091,
                "end_time": 59.275,
                "pitch": 95,
                "velocity": 25,
                "duration": 0.0340909,
                "tempo": 120.0
            },
            {
                "start_time": 59.275,
                "end_time": 59.3090909,
                "pitch": 88,
                "velocity": 25,
                "duration": 0.0340909,
                "tempo": 120.0
            },
            {
                "start_time": 59.3090909,
                "end_time": 59.3431818,
                "pitch": 89,
                "velocity": 20,
                "duration": 0.0340909,
                "tempo": 120.0
            },
            {
                "start_time": 59.3431818,
                "end_time": 59.3931818,
                "pitch": 86,
                "velocity": 20,
                "duration": 0.05,
                "tempo": 120.0
            },
            {
                "start_time": 59.3954545,
                "end_time": 59.4272727,
                "pitch": 88,
                "velocity": 20,
                "duration": 0.0318182,
                "tempo": 120.0
            },
            {
                "start_time": 59.4295455,
                "end_time": 59.4636364,
                "pitch": 84,
                "velocity": 20,
                "duration": 0.0340909,
                "tempo": 120.0
            },
            {
                "start_time": 59.4636364,
                "end_time": 59.5113636,
                "pitch": 93,
                "velocity": 20,
                "duration": 0.0477273,
                "tempo": 120.0
            },
            {
                "start_time": 59.5113636,
                "end_time": 59.5431818,
                "pitch": 84,
                "velocity": 20,
                "duration": 0.0318182,
                "tempo": 120.0
            },
            {
                "start_time": 59.5431818,
                "end_time": 59.575,
                "pitch": 89,
                "velocity": 20,
                "duration": 0.0318182,
                "tempo": 120.0
            },
            {
                "start_time": 59.575,
                "end_time": 59.6227273,
                "pitch": 91,
                "velocity": 20,
                "duration": 0.0477273,
                "tempo": 120.0
            },
            {
                "start_time": 59.6227273,
                "end_time": 59.6545455,
                "pitch": 95,
                "velocity": 20,
                "duration": 0.0318182,
                "tempo": 120.0
            },
            {
                "start_time": 59.6545455,
                "end_time": 59.6863636,
                "pitch": 88,
                "velocity": 20,
                "duration": 0.0318182,
                "tempo": 120.0
            },
            {
                "start_time": 59.6886364,
                "end_time": 59.7340909,
                "pitch": 89,
                "velocity": 16,
                "duration": 0.0454545,
                "tempo": 120.0
            },
            {
                "start_time": 59.7340909,
                "end_time": 59.7659091,
                "pitch": 86,
                "velocity": 16,
                "duration": 0.0318182,
                "tempo": 120.0
            },
            {
                "start_time": 59.7659091,
                "end_time": 59.7977273,
                "pitch": 88,
                "velocity": 16,
                "duration": 0.0318182,
                "tempo": 120.0
            },
            {
                "start_time": 59.7977273,
                "end_time": 59.8295455,
                "pitch": 84,
                "velocity": 16,
                "duration": 0.0318182,
                "tempo": 120.0
            },
            {
                "start_time": 59.8318182,
                "end_time": 59.8795455,
                "pitch": 93,
                "velocity": 16,
                "duration": 0.0477273,
                "tempo": 120.0
            },
            {
                "start_time": 59.8795455,
                "end_time": 59.9159091,
                "pitch": 84,
                "velocity": 16,
                "duration": 0.0363636,
                "tempo": 120.0
            },
            {
                "start_time": 59.9159091,
                "end_time": 59.9454545,
                "pitch": 89,
                "velocity": 16,
                "duration": 0.0295455,
                "tempo": 120.0
            },
            {
                "start_time": 59.9454545,
                "end_time": 59.9954545,
                "pitch": 91,
                "velocity": 16,
                "duration": 0.05,
                "tempo": 120.0
            },
            {
                "start_time": 59.9954545,
                "end_time": 60.0318182,
                "pitch": 95,
                "velocity": 16,
                "duration": 0.0363636,
                "tempo": 120.0
            },
            {
                "start_time": 60.0318182,
                "end_time": 60.0636364,
                "pitch": 88,
                "velocity": 16,
                "duration": 0.0318182,
                "tempo": 120.0
            },
            {
                "start_time": 60.0659091,
                "end_time": 60.1159091,
                "pitch": 89,
                "velocity": 13,
                "duration": 0.05,
                "tempo": 120.0
            },
            {
                "start_time": 60.1159091,
                "end_time": 60.15,
                "pitch": 86,
                "velocity": 13,
                "duration": 0.0340909,
                "tempo": 120.0
            },
            {
                "start_time": 60.1522727,
                "end_time": 60.1840909,
                "pitch": 88,
                "velocity": 13,
                "duration": 0.0318182,
                "tempo": 120.0
            },
            {
                "start_time": 60.1840909,
                "end_time": 60.2363636,
                "pitch": 84,
                "velocity": 13,
                "duration": 0.0522727,
                "tempo": 120.0
            },
            {
                "start_time": 60.2363636,
                "end_time": 60.2704545,
                "pitch": 93,
                "velocity": 13,
                "duration": 0.0340909,
                "tempo": 120.0
            },
            {
                "start_time": 60.2704545,
                "end_time": 60.3045455,
                "pitch": 84,
                "velocity": 13,
                "duration": 0.0340909,
                "tempo": 120.0
            },
            {
                "start_time": 60.3045455,
                "end_time": 60.3386364,
                "pitch": 89,
                "velocity": 13,
                "duration": 0.0340909,
                "tempo": 120.0
            },
            {
                "start_time": 60.3386364,
                "end_time": 60.3909091,
                "pitch": 91,
                "velocity": 13,
                "duration": 0.0522727,
                "tempo": 120.0
            },
            {
                "start_time": 60.3931818,
                "end_time": 60.425,
                "pitch": 95,
                "velocity": 13,
                "duration": 0.0318182,
                "tempo": 120.0
            },
            {
                "start_time": 60.425,
                "end_time": 60.4590909,
                "pitch": 88,
                "velocity": 13,
                "duration": 0.0340909,
                "tempo": 120.0
            },
            {
                "start_time": 60.4590909,
                "end_time": 60.5113636,
                "pitch": 89,
                "velocity": 10,
                "duration": 0.0522727,
                "tempo": 120.0
            },
            {
                "start_time": 60.5113636,
                "end_time": 60.5454545,
                "pitch": 86,
                "velocity": 10,
                "duration": 0.0340909,
                "tempo": 120.0
            },
            {
                "start_time": 60.5454545,
                "end_time": 60.5795455,
                "pitch": 88,
                "velocity": 10,
                "duration": 0.0340909,
                "tempo": 120.0
            },
            {
                "start_time": 60.5795455,
                "end_time": 60.6318182,
                "pitch": 84,
                "velocity": 10,
                "duration": 0.0522727,
                "tempo": 120.0
            },
            {
                "start_time": 60.6318182,
                "end_time": 60.6636364,
                "pitch": 93,
                "velocity": 10,
                "duration": 0.0318182,
                "tempo": 120.0
            },
            {
                "start_time": 60.6659091,
                "end_time": 60.6977273,
                "pitch": 84,
                "velocity": 10,
                "duration": 0.0318182,
                "tempo": 120.0
            },
            {
                "start_time": 60.7,
                "end_time": 60.75,
                "pitch": 89,
                "velocity": 10,
                "duration": 0.05,
                "tempo": 120.0
            },
            {
                "start_time": 60.75,
                "end_time": 60.7840909,
                "pitch": 91,
                "velocity": 10,
                "duration": 0.0340909,
                "tempo": 120.0
            },
            {
                "start_time": 60.7840909,
                "end_time": 60.8181818,
                "pitch": 95,
                "velocity": 10,
                "duration": 0.0340909,
                "tempo": 120.0
            },
            {
                "start_time": 60.8181818,
                "end_time": 60.8545455,
                "pitch": 88,
                "velocity": 10,
                "duration": 0.0363636,
                "tempo": 120.0
            },
            {
                "start_time": 60.8545455,
                "end_time": 60.9022727,
                "pitch": 89,
                "velocity": 8,
                "duration": 0.0477273,
                "tempo": 120.0
            },
            {
                "start_time": 60.9022727,
                "end_time": 60.9340909,
                "pitch": 86,
                "velocity": 8,
                "duration": 0.0318182,
                "tempo": 120.0
            },
            {
                "start_time": 60.9340909,
                "end_time": 60.9681818,
                "pitch": 88,
                "velocity": 8,
                "duration": 0.0340909,
                "tempo": 120.0
            },
            {
                "start_time": 60.9681818,
                "end_time": 61.0159091,
                "pitch": 84,
                "velocity": 8,
                "duration": 0.0477273,
                "tempo": 120.0
            },
            {
                "start_time": 61.0159091,
                "end_time": 61.05,
                "pitch": 93,
                "velocity": 8,
                "duration": 0.0340909,
                "tempo": 120.0
            },
            {
                "start_time": 61.05,
                "end_time": 61.0840909,
                "pitch": 84,
                "velocity": 8,
                "duration": 0.0340909,
                "tempo": 120.0
            },
            {
                "start_time": 61.0840909,
                "end_time": 61.1318182,
                "pitch": 89,
                "velocity": 8,
                "duration": 0.0477273,
                "tempo": 120.0
            },
            {
                "start_time": 61.1318182,
                "end_time": 61.1636364,
                "pitch": 91,
                "velocity": 8,
                "duration": 0.0318182,
                "tempo": 120.0
            },
            {
                "start_time": 61.1636364,
                "end_time": 61.1977273,
                "pitch": 95,
                "velocity": 8,
                "duration": 0.0340909,
                "tempo": 120.0
            },
            {
                "start_time": 61.1977273,
                "end_time": 61.2454545,
                "pitch": 88,
                "velocity": 8,
                "duration": 0.0477273,
                "tempo": 120.0
            }
        ]
    }
}