{
    "mood": "sad",
    "instruments": {
        "Church Organ": [
            {
                "start_time": 0.0,
                "end_time": 0.7409091,
                "pitch": 59,
                "velocity": 40,
                "duration": 0.7409091,
                "tempo": 120.0
            },
            {
                "start_time": 0.7727273,
                "end_time": 1.1068182,
                "pitch": 62,
                "velocity": 40,
                "duration": 0.3340909,
                "tempo": 120.0
            },
            {
                "start_time": 1.1386364,
                "end_time": 1.8727273,
                "pitch": 61,
                "velocity": 40,
                "duration": 0.7340909,
                "tempo": 120.0
            },
            {
                "start_time": 1.9068182,
                "end_time": 2.9863636,
                "pitch": 62,
                "velocity": 40,
                "duration": 1.0795455,
                "tempo": 120.0
            },
            {
                "start_time": 3.0545455,
                "end_time": 3.3909091,
                "pitch": 59,
                "velocity": 40,
                "duration": 0.3363636,
                "tempo": 120.0
            },
            {
                "start_time": 3.425,
                "end_time": 3.7590909,
                "pitch": 58,
                "velocity": 40,
                "duration": 0.3340909,
                "tempo": 120.0
            },
            {
                "start_time": 3.7909091,
                "end_time": 4.125,
                "pitch": 54,
                "velocity": 40,
                "duration": 0.3340909,
                "tempo": 120.0
            },
            {
                "start_time": 4.1590909,
                "end_time": 5.2590909,
                "pitch": 59,
                "velocity": 40,
                "duration": 1.1,
                "tempo": 120.0
            },
            {
                "start_time": 5.2909091,
                "end_time": 5.625,
                "pitch": 62,
                "velocity": 40,
                "duration": 0.3340909,
                "tempo": 120.0
            },
            {
                "start_time": 5.6590909,
                "end_time": 6.3909091,
                "pitch": 61,
                "velocity": 40,
                "duration": 0.7318182,
                "tempo": 120.0
            },
            {
                "start_time": 6.425,
                "end_time": 7.4909091,
                "pitch": 62,
                "velocity": 40,
                "duration": 1.0659091,
                "tempo": 120.0
            },
            {
                "start_time": 7.5568182,
                "end_time": 7.8909091,
                "pitch": 59,
                "velocity": 40,
                "duration": 0.3340909,
                "tempo": 120.0
            },
            {
                "start_time": 7.925,
                "end_time": 8.2568182,
                "pitch": 58,
                "velocity": 40,
                "duration": 0.3318182,
                "tempo": 120.0
            },
            {
                "start_time": 8.2909091,
                "end_time": 8.625,
                "pitch": 54,
                "velocity": 40,
                "duration": 0.3340909,
                "tempo": 120.0
            },
            {
                "start_time": 8.6568182,
                "end_time": 8.9909091,
                "pitch": 59,
                "velocity": 40,
                "duration": 0.3340909,
                "tempo": 120.0
            },
            {
                "start_time": 9.0568182,
                "end_time": 9.3909091,
                "pitch": 62,
                "velocity": 40,
                "duration": 0.3340909,
                "tempo": 120.0
            },
            {
                "start_time": 9.425,
                "end_time": 9.7568182,
                "pitch": 56,
                "velocity": 40,
                "duration": 0.3318182,
                "tempo": 120.0
            },
            {
                "start_time": 9.7909091,
                "end_time": 10.125,
                "pitch": 62,
                "velocity": 40,
                "duration": 0.3340909,
                "tempo": 120.0
            },
            {
                "start_time": 10.1568182,
                "end_time": 10.4909091,
                "pitch": 65,
                "velocity": 40,
                "duration": 0.3340909,
                "tempo": 120.0
            },
            {
                "start_time": 10.5568182,
                "end_time": 10.8909091,
                "pitch": 71,
                "velocity": 40,
                "duration": 0.3340909,
                "tempo": 120.0
            },
            {
                "start_time": 10.9227273,
                "end_time": 11.2522727,
                "pitch": 62,
                "velocity": 40,
                "duration": 0.3295455,
                "tempo": 120.0
            },
            {
                "start_time": 11.2863636,
                "end_time": 11.6136364,
                "pitch": 65,
                "velocity": 40,
                "duration": 0.3272727,
                "tempo": 120.0
            },
            {
                "start_time": 11.6477273,
                "end_time": 11.9772727,
                "pitch": 59,
                "velocity": 40,
                "duration": 0.3295455,
                "tempo": 120.0
            },
            {
                "start_time": 12.0431818,
                "end_time": 12.3704545,
                "pitch": 62,
                "velocity": 40,
                "duration": 0.3272727,
                "tempo": 120.0
            },
            {
                "start_time": 12.4068182,
                "end_time": 12.7477273,
                "pitch": 65,
                "velocity": 40,
                "duration": 0.3409091,
                "tempo": 120.0
            },
            {
                "start_time": 12.7818182,
                "end_time": 13.1227273,
                "pitch": 68,
                "velocity": 40,
                "duration": 0.3409091,
                "tempo": 120.0
            },
            {
                "start_time": 13.1568182,
                "end_time": 13.5,
                "pitch": 65,
                "velocity": 40,
                "duration": 0.3431818,
                "tempo": 120.0
            },
            {
                "start_time": 13.5681818,
                "end_time": 13.9090909,
                "pitch": 71,
                "velocity": 40,
                "duration": 0.3409091,
                "tempo": 120.0
            },
            {
                "start_time": 13.9409091,
                "end_time": 14.2704545,
                "pitch": 62,
                "velocity": 40,
                "duration": 0.3295455,
                "tempo": 120.0
            },
            {
                "start_time": 14.3045455,
                "end_time": 14.6340909,
                "pitch": 65,
                "velocity": 40,
                "duration": 0.3295455,
                "tempo": 120.0
            },
            {
                "start_time": 14.6659091,
                "end_time": 14.9954545,
                "pitch": 71,
                "velocity": 40,
                "duration": 0.3295455,
                "tempo": 120.0
            },
            {
                "start_time": 15.0613636,
                "end_time": 15.3909091,
                "pitch": 74,
                "velocity": 40,
                "duration": 0.3295455,
                "tempo": 120.0
            },
            {
                "start_time": 15.425,
                "end_time": 20.0204545,
                "pitch": 47,
                "velocity": 40,
                "duration": 4.5954545,
                "tempo": 120.0
            }
        ]
    }
}