{
    "mood": "sad",
    "instruments": {
        "Oboe": [
            {
                "start_time": 0.15,
                "end_time": 0.1659091,
                "pitch": 70,
                "velocity": 80,
                "duration": 0.0159091,
                "tempo": 120.0
            },
            {
                "start_time": 0.1840909,
                "end_time": 0.2659091,
                "pitch": 71,
                "velocity": 80,
                "duration": 0.0818182,
                "tempo": 120.0
            },
            {
                "start_time": 0.2840909,
                "end_time": 0.3340909,
                "pitch": 71,
                "velocity": 80,
                "duration": 0.05,
                "tempo": 120.0
            },
            {
                "start_time": 0.35,
                "end_time": 0.3659091,
                "pitch": 70,
                "velocity": 80,
                "duration": 0.0159091,
                "tempo": 120.0
            },
            {
                "start_time": 0.3840909,
                "end_time": 0.5659091,
                "pitch": 71,
                "velocity": 80,
                "duration": 0.1818182,
                "tempo": 120.0
            },
            {
                "start_time": 0.5840909,
                "end_time": 0.7340909,
                "pitch": 65,
                "velocity": 80,
                "duration": 0.15,
                "tempo": 120.0
            },
            {
                "start_time": 0.75,
                "end_time": 0.7659091,
                "pitch": 70,
                "velocity": 80,
                "duration": 0.0159091,
                "tempo": 120.0
            },
            {
                "start_time": 0.7840909,
                "end_time": 0.8659091,
                "pitch": 71,
                "velocity": 80,
                "duration": 0.0818182,
                "tempo": 120.0
            },
            {
                "start_time": 0.8840909,
                "end_time": 0.9659091,
                "pitch": 71,
                "velocity": 80,
                "duration": 0.0818182,
                "tempo": 120.0
            },
            {
                "start_time": 0.9840909,
                "end_time": 1.0659091,
                "pitch": 71,
                "velocity": 80,
                "duration": 0.0818182,
                "tempo": 120.0
            },
            {
                "start_time": 1.0840909,
                "end_time": 1.1659091,
                "pitch": 71,
                "velocity": 80,
                "duration": 0.0818182,
                "tempo": 120.0
            },
            {
                "start_time": 1.1840909,
                "end_time": 1.2659091,
                "pitch": 71,
                "velocity": 80,
                "duration": 0.0818182,
                "tempo": 120.0
            },
            {
                "start_time": 1.2840909,
                "end_time": 1.3659091,
                "pitch": 71,
                "velocity": 80,
                "duration": 0.0818182,
                "tempo": 120.0
            },
            {
                "start_time": 1.3840909,
                "end_time": 1.5159091,
                "pitch": 65,
                "velocity": 80,
                "duration": 0.1318182,
                "tempo": 120.0
            },
            {
                "start_time": 1.75,
                "end_time": 1.7681818,
                "pitch": 70,
                "velocity": 80,
                "duration": 0.0181818,
                "tempo": 120.0
            },
            {
                "start_time": 1.7840909,
                "end_time": 1.8681818,
                "pitch": 71,
                "velocity": 80,
                "duration": 0.0840909,
                "tempo": 120.0
            },
            {
                "start_time": 1.8863636,
                "end_time": 1.9363636,
                "pitch": 71,
                "velocity": 80,
                "duration": 0.05,
                "tempo": 120.0
            },
            {
                "start_time": 1.9522727,
                "end_time": 1.9681818,
                "pitch": 70,
                "velocity": 80,
                "duration": 0.0159091,
                "tempo": 120.0
            },
            {
                "start_time": 1.9863636,
                "end_time": 2.1704545,
                "pitch": 71,
                "velocity": 80,
                "duration": 0.1840909,
                "tempo": 120.0
            },
            {
                "start_time": 2.1863636,
                "end_time": 2.3363636,
                "pitch": 65,
                "velocity": 80,
                "duration": 0.15,
                "tempo": 120.0
            },
            {
                "start_time": 2.3522727,
                "end_time": 2.3704545,
                "pitch": 70,
                "velocity": 80,
                "duration": 0.0181818,
                "tempo": 120.0
            },
            {
                "start_time": 2.3863636,
                "end_time": 2.4704545,
                "pitch": 71,
                "velocity": 80,
                "duration": 0.0840909,
                "tempo": 120.0
            },
            {
                "start_time": 2.4863636,
                "end_time": 2.5704545,
                "pitch": 71,
                "velocity": 80,
                "duration": 0.0840909,
                "tempo": 120.0
            },
            {
                "start_time": 2.5863636,
                "end_time": 2.6704545,
                "pitch": 71,
                "velocity": 80,
                "duration": 0.0840909,
                "tempo": 120.0
            },
            {
                "start_time": 2.6886364,
                "end_time": 2.7727273,
                "pitch": 71,
                "velocity": 80,
                "duration": 0.0840909,
                "tempo": 120.0
            },
            {
                "start_time": 2.7886364,
                "end_time": 2.8727273,
                "pitch": 71,
                "velocity": 80,
                "duration": 0.0840909,
                "tempo": 120.0
            },
            {
                "start_time": 2.8886364,
                "end_time": 2.9727273,
                "pitch": 71,
                "velocity": 80,
                "duration": 0.0840909,
                "tempo": 120.0
            },
            {
                "start_time": 2.9886364,
                "end_time": 3.1227273,
                "pitch": 65,
                "velocity": 80,
                "duration": 0.1340909,
                "tempo": 120.0
            },
            {
                "start_time": 3.3545455,
                "end_time": 3.3727273,
                "pitch": 70,
                "velocity": 80,
                "duration": 0.0181818,
                "tempo": 120.0
            },
            {
                "start_time": 3.3886364,
                "end_time": 3.4727273,
                "pitch": 71,
                "velocity": 80,
                "duration": 0.0840909,
                "tempo": 120.0
            },
            {
                "start_time": 3.4886364,
                "end_time": 3.5386364,
                "pitch": 71,
                "velocity": 80,
                "duration": 0.05,
                "tempo": 120.0
            },
            {
                "start_time": 3.5545455,
                "end_time": 3.5727273,
                "pitch": 70,
                "velocity": 80,
                "duration": 0.0181818,
                "tempo": 120.0
            },
            {
                "start_time": 3.5886364,
                "end_time": 3.7727273,
                "pitch": 71,
                "velocity": 80,
                "duration": 0.1840909,
                "tempo": 120.0
            },
            {
                "start_time": 3.7886364,
                "end_time": 3.9386364,
                "pitch": 65,
                "velocity": 80,
                "duration": 0.15,
                "tempo": 120.0
            },
            {
                "start_time": 3.9545455,
                "end_time": 3.9727273,
                "pitch": 70,
                "velocity": 80,
                "duration": 0.0181818,
                "tempo": 120.0
            },
            {
                "start_time": 3.9886364,
                "end_time": 4.0727273,
                "pitch": 71,
                "velocity": 80,
                "duration": 0.0840909,
                "tempo": 120.0
            },
            {
                "start_time": 4.0886364,
                "end_time": 4.1727273,
                "pitch": 71,
                "velocity": 80,
                "duration": 0.0840909,
                "tempo": 120.0
            },
            {
                "start_time": 4.1909091,
                "end_time": 4.275,
                "pitch": 71,
                "velocity": 80,
                "duration": 0.0840909,
                "tempo": 120.0
            },
            {
                "start_time": 4.2909091,
                "end_time": 4.375,
                "pitch": 71,
                "velocity": 80,
                "duration": 0.0840909,
                "tempo": 120.0
            },
            {
                "start_time": 4.3909091,
                "end_time": 4.475,
                "pitch": 71,
                "velocity": 80,
                "duration": 0.0840909,
                "tempo": 120.0
            },
            {
                "start_time": 4.4909091,
                "end_time": 4.575,
                "pitch": 71,
                "velocity": 80,
                "duration": 0.0840909,
                "tempo": 120.0
            },
            {
                "start_time": 4.5909091,
                "end_time": 4.775,
                "pitch": 65,
                "velocity": 80,
                "duration": 0.1840909,
                "tempo": 120.0
            },
            {
                "start_time": 4.7909091,
                "end_time": 5.0863636,
                "pitch": 73,
                "velocity": 80,
                "duration": 0.2954545,
                "tempo": 120.0
            },
            {
                "start_time": 6.5522727,
                "end_time": 6.5704545,
                "pitch": 70,
                "velocity": 80,
                "duration": 0.0181818,
                "tempo": 120.0
            },
            {
                "start_time": 6.5863636,
                "end_time": 6.6704545,
                "pitch": 71,
                "velocity": 80,
                "duration": 0.0840909,
                "tempo": 120.0
            },
            {
                "start_time": 6.6863636,
                "end_time": 6.7363636,
                "pitch": 71,
                "velocity": 80,
                "duration": 0.05,
                "tempo": 120.0
            },
            {
                "start_time": 6.7522727,
                "end_time": 6.7704545,
                "pitch": 70,
                "velocity": 80,
                "duration": 0.0181818,
                "tempo": 120.0
            },
            {
                "start_time": 6.7863636,
                "end_time": 6.9704545,
                "pitch": 71,
                "velocity": 80,
                "duration": 0.1840909,
                "tempo": 120.0
            },
            {
                "start_time": 6.9886364,
                "end_time": 7.1386364,
                "pitch": 65,
                "velocity": 80,
                "duration": 0.15,
                "tempo": 120.0
            },
            {
                "start_time": 7.1545455,
                "end_time": 7.1727273,
                "pitch": 70,
                "velocity": 80,
                "duration": 0.0181818,
                "tempo": 120.0
            },
            {
                "start_time": 7.1886364,
                "end_time": 7.275,
                "pitch": 71,
                "velocity": 80,
                "duration": 0.0863636,
                "tempo": 120.0
            },
            {
                "start_time": 7.2909091,
                "end_time": 7.3772727,
                "pitch": 71,
                "velocity": 80,
                "duration": 0.0863636,
                "tempo": 120.0
            },
            {
                "start_time": 7.3954545,
                "end_time": 7.4795455,
                "pitch": 71,
                "velocity": 80,
                "duration": 0.0840909,
                "tempo": 120.0
            },
            {
                "start_time": 7.4977273,
                "end_time": 7.5818182,
                "pitch": 71,
                "velocity": 80,
                "duration": 0.0840909,
                "tempo": 120.0
            },
            {
                "start_time": 7.6,
                "end_time": 7.6840909,
                "pitch": 71,
                "velocity": 80,
                "duration": 0.0840909,
                "tempo": 120.0
            },
            {
                "start_time": 7.7,
                "end_time": 7.7840909,
                "pitch": 71,
                "velocity": 80,
                "duration": 0.0840909,
                "tempo": 120.0
            },
            {
                "start_time": 7.8,
                "end_time": 7.9340909,
                "pitch": 65,
                "velocity": 80,
                "duration": 0.1340909,
                "tempo": 120.0
            },
            {
                "start_time": 8.1636364,
                "end_time": 8.1795455,
                "pitch": 70,
                "velocity": 80,
                "duration": 0.0159091,
                "tempo": 120.0
            },
            {
                "start_time": 8.1954545,
                "end_time": 8.2772727,
                "pitch": 71,
                "velocity": 80,
                "duration": 0.0818182,
                "tempo": 120.0
            },
            {
                "start_time": 8.2931818,
                "end_time": 8.3431818,
                "pitch": 71,
                "velocity": 80,
                "duration": 0.05,
                "tempo": 120.0
            },
            {
                "start_time": 8.3590909,
                "end_time": 8.375,
                "pitch": 70,
                "velocity": 80,
                "duration": 0.0159091,
                "tempo": 120.0
            },
            {
                "start_time": 8.3931818,
                "end_time": 8.5772727,
                "pitch": 71,
                "velocity": 80,
                "duration": 0.1840909,
                "tempo": 120.0
            },
            {
                "start_time": 8.5931818,
                "end_time": 8.7454545,
                "pitch": 65,
                "velocity": 80,
                "duration": 0.1522727,
                "tempo": 120.0
            },
            {
                "start_time": 8.7613636,
                "end_time": 8.7772727,
                "pitch": 70,
                "velocity": 80,
                "duration": 0.0159091,
                "tempo": 120.0
            },
            {
                "start_time": 8.7954545,
                "end_time": 8.8795455,
                "pitch": 71,
                "velocity": 80,
                "duration": 0.0840909,
                "tempo": 120.0
            },
            {
                "start_time": 8.8977273,
                "end_time": 8.9840909,
                "pitch": 71,
                "velocity": 80,
                "duration": 0.0863636,
                "tempo": 120.0
            },
            {
                "start_time": 9.0,
                "end_time": 9.0863636,
                "pitch": 71,
                "velocity": 80,
                "duration": 0.0863636,
                "tempo": 120.0
            },
            {
                "start_time": 9.1022727,
                "end_time": 9.1886364,
                "pitch": 71,
                "velocity": 80,
                "duration": 0.0863636,
                "tempo": 120.0
            },
            {
                "start_time": 9.2068182,
                "end_time": 9.2909091,
                "pitch": 71,
                "velocity": 80,
                "duration": 0.0840909,
                "tempo": 120.0
            },
            {
                "start_time": 9.3068182,
                "end_time": 9.3909091,
                "pitch": 71,
                "velocity": 80,
                "duration": 0.0840909,
                "tempo": 120.0
            },
            {
                "start_time": 9.4068182,
                "end_time": 9.5409091,
                "pitch": 65,
                "velocity": 80,
                "duration": 0.1340909,
                "tempo": 120.0
            },
            {
                "start_time": 9.7772727,
                "end_time": 9.7931818,
                "pitch": 70,
                "velocity": 80,
                "duration": 0.0159091,
                "tempo": 120.0
            },
            {
                "start_time": 9.8090909,
                "end_time": 9.8931818,
                "pitch": 71,
                "velocity": 80,
                "duration": 0.0840909,
                "tempo": 120.0
            },
            {
                "start_time": 9.9113636,
                "end_time": 9.9613636,
                "pitch": 71,
                "velocity": 80,
                "duration": 0.05,
                "tempo": 120.0
            },
            {
                "start_time": 9.9772727,
                "end_time": 9.9954545,
                "pitch": 70,
                "velocity": 80,
                "duration": 0.0181818,
                "tempo": 120.0
            },
            {
                "start_time": 10.0113636,
                "end_time": 10.1954545,
                "pitch": 71,
                "velocity": 80,
                "duration": 0.1840909,
                "tempo": 120.0
            },
            {
                "start_time": 10.2136364,
                "end_time": 10.3636364,
                "pitch": 65,
                "velocity": 80,
                "duration": 0.15,
                "tempo": 120.0
            },
            {
                "start_time": 10.3795455,
                "end_time": 10.3977273,
                "pitch": 70,
                "velocity": 80,
                "duration": 0.0181818,
                "tempo": 120.0
            },
            {
                "start_time": 10.4136364,
                "end_time": 10.4977273,
                "pitch": 71,
                "velocity": 80,
                "duration": 0.0840909,
                "tempo": 120.0
            },
            {
                "start_time": 10.5136364,
                "end_time": 10.5977273,
                "pitch": 71,
                "velocity": 80,
                "duration": 0.0840909,
                "tempo": 120.0
            },
            {
                "start_time": 10.6159091,
                "end_time": 10.7,
                "pitch": 71,
                "velocity": 80,
                "duration": 0.0840909,
                "tempo": 120.0
            },
            {
                "start_time": 10.7159091,
                "end_time": 10.8,
                "pitch": 71,
                "velocity": 80,
                "duration": 0.0840909,
                "tempo": 120.0
            },
            {
                "start_time": 10.8159091,
                "end_time": 10.9,
                "pitch": 71,
                "velocity": 80,
                "duration": 0.0840909,
                "tempo": 120.0
            },
            {
                "start_time": 10.9159091,
                "end_time": 11.0,
                "pitch": 71,
                "velocity": 80,
                "duration": 0.0840909,
                "tempo": 120.0
            },
            {
                "start_time": 11.0159091,
                "end_time": 11.2,
                "pitch": 65,
                "velocity": 80,
                "duration": 0.1840909,
                "tempo": 120.0
            },
            {
                "start_time": 11.2159091,
                "end_time": 11.5113636,
                "pitch": 73,
                "velocity": 80,
                "duration": 0.2954545,
                "tempo": 120.0
            },
            {
                "start_time": 12.8136364,
                "end_time": 13.6,
                "pitch": 68,
                "velocity": 80,
                "duration": 0.7863636,
                "tempo": 120.0
            },
            {
                "start_time": 14.4227273,
                "end_time": 15.0090909,
                "pitch": 71,
                "velocity": 80,
                "duration": 0.5863636,
                "tempo": 120.0
            },
            {
                "start_time": 15.025,
                "end_time": 16.0113636,
                "pitch": 68,
                "velocity": 80,
                "duration": 0.9863636,
                "tempo": 120.0
            },
            {
                "start_time": 16.0272727,
                "end_time": 16.3295455,
                "pitch": 66,
                "velocity": 80,
                "duration": 0.3022727,
                "tempo": 120.0
            },
            {
                "start_time": 16.8409091,
                "end_time": 17.1363636,
                "pitch": 66,
                "velocity": 80,
                "duration": 0.2954545,
                "tempo": 120.0
            },
            {
                "start_time": 17.6340909,
                "end_time": 18.2522727,
                "pitch": 65,
                "velocity": 80,
                "duration": 0.6181818,
                "tempo": 120.0
            },
            {
                "start_time": 19.2386364,
                "end_time": 20.025,
                "pitch": 68,
                "velocity": 80,
                "duration": 0.7863636,
                "tempo": 120.0
            },
            {
                "start_time": 20.8454545,
                "end_time": 21.4363636,
                "pitch": 71,
                "velocity": 80,
                "duration": 0.5909091,
                "tempo": 120.0
            },
            {
                "start_time": 21.4522727,
                "end_time": 22.4340909,
                "pitch": 68,
                "velocity": 80,
                "duration": 0.9818182,
                "tempo": 120.0
            },
            {
                "start_time": 22.45,
                "end_time": 22.75,
                "pitch": 66,
                "velocity": 80,
                "duration": 0.3,
                "tempo": 120.0
            },
            {
                "start_time": 23.2522727,
                "end_time": 23.5613636,
                "pitch": 69,
                "velocity": 80,
                "duration": 0.3090909,
                "tempo": 120.0
            },
            {
                "start_time": 24.0636364,
                "end_time": 24.8386364,
                "pitch": 68,
                "velocity": 80,
                "duration": 0.775,
                "tempo": 120.0
            }
        ],
        "Harpsichord": [
            {
                "start_time": 0.0,
                "end_time": 0.0659091,
                "pitch": 49,
                "velocity": 25,
                "duration": 0.0659091,
                "tempo": 120.0
            },
            {
                "start_time": 0.0659091,
                "end_time": 0.3840909,
                "pitch": 49,
                "velocity": 25,
                "duration": 0.3181818,
                "tempo": 120.0
            },
            {
                "start_time": 0.4,
                "end_time": 0.7840909,
                "pitch": 50,
                "velocity": 25,
                "duration": 0.3840909,
                "tempo": 120.0
            },
            {
                "start_time": 0.8,
                "end_time": 1.1840909,
                "pitch": 49,
                "velocity": 25,
                "duration": 0.3840909,
                "tempo": 120.0
            },
            {
                "start_time": 1.2,
                "end_time": 1.5840909,
                "pitch": 50,
                "velocity": 25,
                "duration": 0.3840909,
                "tempo": 120.0
            },
            {
                "start_time": 1.6,
                "end_time": 1.9863636,
                "pitch": 49,
                "velocity": 25,
                "duration": 0.3863636,
                "tempo": 120.0
            },
            {
                "start_time": 2.0022727,
                "end_time": 2.3863636,
                "pitch": 50,
                "velocity": 25,
                "duration": 0.3840909,
                "tempo": 120.0
            },
            {
                "start_time": 2.4022727,
                "end_time": 2.7886364,
                "pitch": 49,
                "velocity": 25,
                "duration": 0.3863636,
                "tempo": 120.0
            },
            {
                "start_time": 2.8045455,
                "end_time": 3.1886364,
                "pitch": 50,
                "velocity": 25,
                "duration": 0.3840909,
                "tempo": 120.0
            },
            {
                "start_time": 3.2045455,
                "end_time": 3.5886364,
                "pitch": 49,
                "velocity": 25,
                "duration": 0.3840909,
                "tempo": 120.0
            },
            {
                "start_time": 3.6045455,
                "end_time": 3.9886364,
                "pitch": 50,
                "velocity": 25,
                "duration": 0.3840909,
                "tempo": 120.0
            },
            {
                "start_time": 4.0045455,
                "end_time": 4.3909091,
                "pitch": 49,
                "velocity": 25,
                "duration": 0.3863636,
                "tempo": 120.0
            },
            {
                "start_time": 4.4090909,
                "end_time": 4.7909091,
                "pitch": 50,
                "velocity": 25,
                "duration": 0.3818182,
                "tempo": 120.0
            },
            {
                "start_time": 4.8068182,
                "end_time": 5.1840909,
                "pitch": 49,
                "velocity": 25,
                "duration": 0.3772727,
                "tempo": 120.0
            },
            {
                "start_time": 5.2,
                "end_time": 5.5931818,
                "pitch": 50,
                "velocity": 25,
                "duration": 0.3931818,
                "tempo": 120.0
            },
            {
                "start_time": 5.6113636,
                "end_time": 5.9931818,
                "pitch": 49,
                "velocity": 25,
                "duration": 0.3818182,
                "tempo": 120.0
            },
            {
                "start_time": 6.0113636,
                "end_time": 6.3863636,
                "pitch": 50,
                "velocity": 25,
                "duration": 0.375,
                "tempo": 120.0
            },
            {
                "start_time": 6.4022727,
                "end_time": 6.7863636,
                "pitch": 49,
                "velocity": 25,
                "duration": 0.3840909,
                "tempo": 120.0
            },
            {
                "start_time": 6.8022727,
                "end_time": 7.1886364,
                "pitch": 50,
                "velocity": 25,
                "duration": 0.3863636,
                "tempo": 120.0
            },
            {
                "start_time": 7.2068182,
                "end_time": 7.6,
                "pitch": 49,
                "velocity": 25,
                "duration": 0.3931818,
                "tempo": 120.0
            },
            {
                "start_time": 7.6159091,
                "end_time": 8.0,
                "pitch": 50,
                "velocity": 25,
                "duration": 0.3840909,
                "tempo": 120.0
            },
            {
                "start_time": 8.0159091,
                "end_time": 8.3931818,
                "pitch": 49,
                "velocity": 25,
                "duration": 0.3772727,
                "tempo": 120.0
            },
            {
                "start_time": 8.4090909,
                "end_time": 8.7954545,
                "pitch": 50,
                "velocity": 25,
                "duration": 0.3863636,
                "tempo": 120.0
            },
            {
                "start_time": 8.8113636,
                "end_time": 9.2068182,
                "pitch": 49,
                "velocity": 25,
                "duration": 0.3954545,
                "tempo": 120.0
            },
            {
                "start_time": 9.2227273,
                "end_time": 9.6090909,
                "pitch": 50,
                "velocity": 25,
                "duration": 0.3863636,
                "tempo": 120.0
            },
            {
                "start_time": 9.625,
                "end_time": 10.0113636,
                "pitch": 49,
                "velocity": 25,
                "duration": 0.3863636,
                "tempo": 120.0
            },
            {
                "start_time": 10.0272727,
                "end_time": 10.4136364,
                "pitch": 50,
                "velocity": 25,
                "duration": 0.3863636,
                "tempo": 120.0
            },
            {
                "start_time": 10.4318182,
                "end_time": 10.8159091,
                "pitch": 49,
                "velocity": 25,
                "duration": 0.3840909,
                "tempo": 120.0
            },
            {
                "start_time": 10.8340909,
                "end_time": 11.2159091,
                "pitch": 50,
                "velocity": 25,
                "duration": 0.3818182,
                "tempo": 120.0
            },
            {
                "start_time": 11.2340909,
                "end_time": 11.6090909,
                "pitch": 49,
                "velocity": 25,
                "duration": 0.375,
                "tempo": 120.0
            },
            {
                "start_time": 11.625,
                "end_time": 12.0204545,
                "pitch": 50,
                "velocity": 25,
                "duration": 0.3954545,
                "tempo": 120.0
            },
            {
                "start_time": 12.0363636,
                "end_time": 12.4113636,
                "pitch": 49,
                "velocity": 25,
                "duration": 0.375,
                "tempo": 120.0
            },
            {
                "start_time": 12.4295455,
                "end_time": 12.8136364,
                "pitch": 50,
                "velocity": 25,
                "duration": 0.3840909,
                "tempo": 120.0
            },
            {
                "start_time": 12.8318182,
                "end_time": 13.2136364,
                "pitch": 49,
                "velocity": 25,
                "duration": 0.3818182,
                "tempo": 120.0
            },
            {
                "start_time": 13.2318182,
                "end_time": 13.6159091,
                "pitch": 50,
                "velocity": 25,
                "duration": 0.3840909,
                "tempo": 120.0
            },
            {
                "start_time": 13.6340909,
                "end_time": 14.0204545,
                "pitch": 49,
                "velocity": 25,
                "duration": 0.3863636,
                "tempo": 120.0
            },
            {
                "start_time": 14.0363636,
                "end_time": 14.4227273,
                "pitch": 50,
                "velocity": 25,
                "duration": 0.3863636,
                "tempo": 120.0
            },
            {
                "start_time": 14.4386364,
                "end_time": 14.825,
                "pitch": 49,
                "velocity": 25,
                "duration": 0.3863636,
                "tempo": 120.0
            },
            {
                "start_time": 14.8409091,
                "end_time": 15.225,
                "pitch": 50,
                "velocity": 25,
                "duration": 0.3840909,
                "tempo": 120.0
            },
            {
                "start_time": 15.2409091,
                "end_time": 15.6363636,
                "pitch": 49,
                "velocity": 25,
                "duration": 0.3954545,
                "tempo": 120.0
            },
            {
                "start_time": 15.6522727,
                "end_time": 16.0272727,
                "pitch": 50,
                "velocity": 25,
                "duration": 0.375,
                "tempo": 120.0
            },
            {
                "start_time": 16.0454545,
                "end_time": 16.4295455,
                "pitch": 49,
                "velocity": 25,
                "duration": 0.3840909,
                "tempo": 120.0
            },
            {
                "start_time": 16.4477273,
                "end_time": 16.8409091,
                "pitch": 50,
                "velocity": 25,
                "duration": 0.3931818,
                "tempo": 120.0
            },
            {
                "start_time": 16.8568182,
                "end_time": 17.2340909,
                "pitch": 49,
                "velocity": 25,
                "duration": 0.3772727,
                "tempo": 120.0
            },
            {
                "start_time": 17.25,
                "end_time": 17.6340909,
                "pitch": 50,
                "velocity": 25,
                "duration": 0.3840909,
                "tempo": 120.0
            },
            {
                "start_time": 17.65,
                "end_time": 18.0340909,
                "pitch": 49,
                "velocity": 25,
                "duration": 0.3840909,
                "tempo": 120.0
            },
            {
                "start_time": 18.05,
                "end_time": 18.4363636,
                "pitch": 50,
                "velocity": 25,
                "duration": 0.3863636,
                "tempo": 120.0
            },
            {
                "start_time": 18.4522727,
                "end_time": 18.8363636,
                "pitch": 49,
                "velocity": 25,
                "duration": 0.3840909,
                "tempo": 120.0
            },
            {
                "start_time": 18.8522727,
                "end_time": 19.2386364,
                "pitch": 50,
                "velocity": 25,
                "duration": 0.3863636,
                "tempo": 120.0
            },
            {
                "start_time": 19.2568182,
                "end_time": 19.65,
                "pitch": 49,
                "velocity": 25,
                "duration": 0.3931818,
                "tempo": 120.0
            },
            {
                "start_time": 19.6659091,
                "end_time": 20.0409091,
                "pitch": 50,
                "velocity": 25,
                "duration": 0.375,
                "tempo": 120.0
            },
            {
                "start_time": 20.0590909,
                "end_time": 20.4522727,
                "pitch": 49,
                "velocity": 25,
                "duration": 0.3931818,
                "tempo": 120.0
            },
            {
                "start_time": 20.4681818,
                "end_time": 20.8454545,
                "pitch": 50,
                "velocity": 25,
                "duration": 0.3772727,
                "tempo": 120.0
            },
            {
                "start_time": 20.8613636,
                "end_time": 21.2477273,
                "pitch": 49,
                "velocity": 25,
                "duration": 0.3863636,
                "tempo": 120.0
            },
            {
                "start_time": 21.2636364,
                "end_time": 21.6568182,
                "pitch": 50,
                "velocity": 25,
                "duration": 0.3931818,
                "tempo": 120.0
            },
            {
                "start_time": 21.675,
                "end_time": 22.0590909,
                "pitch": 49,
                "velocity": 25,
                "duration": 0.3840909,
                "tempo": 120.0
            },
            {
                "start_time": 22.075,
                "end_time": 22.45,
                "pitch": 50,
                "velocity": 25,
                "duration": 0.375,
                "tempo": 120.0
            },
            {
                "start_time": 22.4659091,
                "end_time": 22.85,
                "pitch": 49,
                "velocity": 25,
                "duration": 0.3840909,
                "tempo": 120.0
            },
            {
                "start_time": 22.8681818,
                "end_time": 23.2522727,
                "pitch": 50,
                "velocity": 25,
                "duration": 0.3840909,
                "tempo": 120.0
            },
            {
                "start_time": 23.2704545,
                "end_time": 23.6636364,
                "pitch": 49,
                "velocity": 25,
                "duration": 0.3931818,
                "tempo": 120.0
            },
            {
                "start_time": 23.6795455,
                "end_time": 24.0636364,
                "pitch": 50,
                "velocity": 25,
                "duration": 0.3840909,
                "tempo": 120.0
            },
            {
                "start_time": 24.0795455,
                "end_time": 24.4636364,
                "pitch": 49,
                "velocity": 25,
                "duration": 0.3840909,
                "tempo": 120.0
            },
            {
                "start_time": 24.4795455,
                "end_time": 24.8568182,
                "pitch": 50,
                "velocity": 25,
                "duration": 0.3772727,
                "tempo": 120.0
            },
            {
                "start_time": 24.8727273,
                "end_time": 25.2590909,
                "pitch": 49,
                "velocity": 25,
                "duration": 0.3863636,
                "tempo": 120.0
            },
            {
                "start_time": 25.275,
                "end_time": 25.6590909,
                "pitch": 50,
                "velocity": 25,
                "duration": 0.3840909,
                "tempo": 120.0
            },
            {
                "start_time": 25.675,
                "end_time": 25.7431818,
                "pitch": 49,
                "velocity": 25,
                "duration": 0.0681818,
                "tempo": 120.0
            }
        ],
        "Synth Bass 1": [
            {
                "start_time": 0.0,
                "end_time": 0.0659091,
                "pitch": 55,
                "velocity": 51,
                "duration": 0.0659091,
                "tempo": 120.0
            },
            {
                "start_time": 0.0840909,
                "end_time": 0.1659091,
                "pitch": 54,
                "velocity": 51,
                "duration": 0.0818182,
                "tempo": 120.0
            },
            {
                "start_time": 0.1840909,
                "end_time": 0.2659091,
                "pitch": 55,
                "velocity": 51,
                "duration": 0.0818182,
                "tempo": 120.0
            },
            {
                "start_time": 0.2840909,
                "end_time": 0.3659091,
                "pitch": 56,
                "velocity": 51,
                "duration": 0.0818182,
                "tempo": 120.0
            },
            {
                "start_time": 0.3840909,
                "end_time": 0.4659091,
                "pitch": 55,
                "velocity": 51,
                "duration": 0.0818182,
                "tempo": 120.0
            },
            {
                "start_time": 0.4840909,
                "end_time": 0.5659091,
                "pitch": 54,
                "velocity": 51,
                "duration": 0.0818182,
                "tempo": 120.0
            },
            {
                "start_time": 0.5840909,
                "end_time": 0.6659091,
                "pitch": 55,
                "velocity": 51,
                "duration": 0.0818182,
                "tempo": 120.0
            },
            {
                "start_time": 0.6840909,
                "end_time": 0.7659091,
                "pitch": 56,
                "velocity": 51,
                "duration": 0.0818182,
                "tempo": 120.0
            },
            {
                "start_time": 0.7840909,
                "end_time": 0.8659091,
                "pitch": 55,
                "velocity": 51,
                "duration": 0.0818182,
                "tempo": 120.0
            },
            {
                "start_time": 0.8840909,
                "end_time": 0.9659091,
                "pitch": 54,
                "velocity": 51,
                "duration": 0.0818182,
                "tempo": 120.0
            },
            {
                "start_time": 0.9840909,
                "end_time": 1.0659091,
                "pitch": 55,
                "velocity": 51,
                "duration": 0.0818182,
                "tempo": 120.0
            },
            {
                "start_time": 1.0840909,
                "end_time": 1.1659091,
                "pitch": 56,
                "velocity": 51,
                "duration": 0.0818182,
                "tempo": 120.0
            },
            {
                "start_time": 1.1840909,
                "end_time": 1.2659091,
                "pitch": 55,
                "velocity": 51,
                "duration": 0.0818182,
                "tempo": 120.0
            },
            {
                "start_time": 1.2840909,
                "end_time": 1.3659091,
                "pitch": 54,
                "velocity": 51,
                "duration": 0.0818182,
                "tempo": 120.0
            },
            {
                "start_time": 1.3840909,
                "end_time": 1.4659091,
                "pitch": 55,
                "velocity": 51,
                "duration": 0.0818182,
                "tempo": 120.0
            },
            {
                "start_time": 1.4840909,
                "end_time": 1.5659091,
                "pitch": 56,
                "velocity": 51,
                "duration": 0.0818182,
                "tempo": 120.0
            },
            {
                "start_time": 1.5840909,
                "end_time": 1.6681818,
                "pitch": 55,
                "velocity": 51,
                "duration": 0.0840909,
                "tempo": 120.0
            },
            {
                "start_time": 1.6840909,
                "end_time": 1.7681818,
                "pitch": 54,
                "velocity": 51,
                "duration": 0.0840909,
                "tempo": 120.0
            },
            {
                "start_time": 1.7840909,
                "end_time": 1.8681818,
                "pitch": 55,
                "velocity": 51,
                "duration": 0.0840909,
                "tempo": 120.0
            },
            {
                "start_time": 1.8863636,
                "end_time": 1.9681818,
                "pitch": 56,
                "velocity": 51,
                "duration": 0.0818182,
                "tempo": 120.0
            },
            {
                "start_time": 1.9863636,
                "end_time": 2.0704545,
                "pitch": 55,
                "velocity": 51,
                "duration": 0.0840909,
                "tempo": 120.0
            },
            {
                "start_time": 2.0863636,
                "end_time": 2.1704545,
                "pitch": 54,
                "velocity": 51,
                "duration": 0.0840909,
                "tempo": 120.0
            },
            {
                "start_time": 2.1863636,
                "end_time": 2.2704545,
                "pitch": 55,
                "velocity": 51,
                "duration": 0.0840909,
                "tempo": 120.0
            },
            {
                "start_time": 2.2863636,
                "end_time": 2.3704545,
                "pitch": 56,
                "velocity": 51,
                "duration": 0.0840909,
                "tempo": 120.0
            },
            {
                "start_time": 2.3863636,
                "end_time": 2.4704545,
                "pitch": 55,
                "velocity": 51,
                "duration": 0.0840909,
                "tempo": 120.0
            },
            {
                "start_time": 2.4863636,
                "end_time": 2.5704545,
                "pitch": 54,
                "velocity": 51,
                "duration": 0.0840909,
                "tempo": 120.0
            },
            {
                "start_time": 2.5863636,
                "end_time": 2.6704545,
                "pitch": 55,
                "velocity": 51,
                "duration": 0.0840909,
                "tempo": 120.0
            },
            {
                "start_time": 2.6886364,
                "end_time": 2.7727273,
                "pitch": 56,
                "velocity": 51,
                "duration": 0.0840909,
                "tempo": 120.0
            },
            {
                "start_time": 2.7886364,
                "end_time": 2.8727273,
                "pitch": 55,
                "velocity": 51,
                "duration": 0.0840909,
                "tempo": 120.0
            },
            {
                "start_time": 2.8886364,
                "end_time": 2.9727273,
                "pitch": 54,
                "velocity": 51,
                "duration": 0.0840909,
                "tempo": 120.0
            },
            {
                "start_time": 2.9886364,
                "end_time": 3.0727273,
                "pitch": 55,
                "velocity": 51,
                "duration": 0.0840909,
                "tempo": 120.0
            },
            {
                "start_time": 3.0886364,
                "end_time": 3.1727273,
                "pitch": 56,
                "velocity": 51,
                "duration": 0.0840909,
                "tempo": 120.0
            },
            {
                "start_time": 3.1886364,
                "end_time": 3.2727273,
                "pitch": 55,
                "velocity": 51,
                "duration": 0.0840909,
                "tempo": 120.0
            },
            {
                "start_time": 3.2886364,
                "end_time": 3.3727273,
                "pitch": 54,
                "velocity": 51,
                "duration": 0.0840909,
                "tempo": 120.0
            },
            {
                "start_time": 3.3886364,
                "end_time": 3.4727273,
                "pitch": 55,
                "velocity": 51,
                "duration": 0.0840909,
                "tempo": 120.0
            },
            {
                "start_time": 3.4886364,
                "end_time": 3.5727273,
                "pitch": 56,
                "velocity": 51,
                "duration": 0.0840909,
                "tempo": 120.0
            },
            {
                "start_time": 3.5886364,
                "end_time": 3.6727273,
                "pitch": 55,
                "velocity": 51,
                "duration": 0.0840909,
                "tempo": 120.0
            },
            {
                "start_time": 3.6886364,
                "end_time": 3.7727273,
                "pitch": 54,
                "velocity": 51,
                "duration": 0.0840909,
                "tempo": 120.0
            },
            {
                "start_time": 3.7886364,
                "end_time": 3.8727273,
                "pitch": 55,
                "velocity": 51,
                "duration": 0.0840909,
                "tempo": 120.0
            },
            {
                "start_time": 3.8886364,
                "end_time": 3.9727273,
                "pitch": 56,
                "velocity": 51,
                "duration": 0.0840909,
                "tempo": 120.0
            },
            {
                "start_time": 3.9886364,
                "end_time": 4.0727273,
                "pitch": 55,
                "velocity": 51,
                "duration": 0.0840909,
                "tempo": 120.0
            },
            {
                "start_time": 4.0886364,
                "end_time": 4.1727273,
                "pitch": 54,
                "velocity": 51,
                "duration": 0.0840909,
                "tempo": 120.0
            },
            {
                "start_time": 4.1909091,
                "end_time": 4.275,
                "pitch": 55,
                "velocity": 51,
                "duration": 0.0840909,
                "tempo": 120.0
            },
            {
                "start_time": 4.2909091,
                "end_time": 4.375,
                "pitch": 56,
                "velocity": 51,
                "duration": 0.0840909,
                "tempo": 120.0
            },
            {
                "start_time": 4.3909091,
                "end_time": 4.475,
                "pitch": 55,
                "velocity": 51,
                "duration": 0.0840909,
                "tempo": 120.0
            },
            {
                "start_time": 4.4909091,
                "end_time": 4.575,
                "pitch": 54,
                "velocity": 51,
                "duration": 0.0840909,
                "tempo": 120.0
            },
            {
                "start_time": 4.5909091,
                "end_time": 4.675,
                "pitch": 55,
                "velocity": 51,
                "duration": 0.0840909,
                "tempo": 120.0
            },
            {
                "start_time": 4.6909091,
                "end_time": 4.775,
                "pitch": 56,
                "velocity": 51,
                "duration": 0.0840909,
                "tempo": 120.0
            },
            {
                "start_time": 4.7909091,
                "end_time": 4.8727273,
                "pitch": 55,
                "velocity": 51,
                "duration": 0.0818182,
                "tempo": 120.0
            },
            {
                "start_time": 4.8886364,
                "end_time": 4.9704545,
                "pitch": 54,
                "velocity": 51,
                "duration": 0.0818182,
                "tempo": 120.0
            },
            {
                "start_time": 4.9863636,
                "end_time": 5.0681818,
                "pitch": 55,
                "velocity": 51,
                "duration": 0.0818182,
                "tempo": 120.0
            },
            {
                "start_time": 5.0863636,
                "end_time": 5.1681818,
                "pitch": 56,
                "velocity": 51,
                "duration": 0.0818182,
                "tempo": 120.0
            },
            {
                "start_time": 5.1840909,
                "end_time": 5.2681818,
                "pitch": 55,
                "velocity": 51,
                "duration": 0.0840909,
                "tempo": 120.0
            },
            {
                "start_time": 5.2863636,
                "end_time": 5.3704545,
                "pitch": 54,
                "velocity": 51,
                "duration": 0.0840909,
                "tempo": 120.0
            },
            {
                "start_time": 5.3886364,
                "end_time": 5.475,
                "pitch": 55,
                "velocity": 51,
                "duration": 0.0863636,
                "tempo": 120.0
            },
            {
                "start_time": 5.4909091,
                "end_time": 5.5772727,
                "pitch": 56,
                "velocity": 51,
                "duration": 0.0863636,
                "tempo": 120.0
            },
            {
                "start_time": 5.5931818,
                "end_time": 5.6772727,
                "pitch": 55,
                "velocity": 51,
                "duration": 0.0840909,
                "tempo": 120.0
            },
            {
                "start_time": 5.6954545,
                "end_time": 5.7772727,
                "pitch": 54,
                "velocity": 51,
                "duration": 0.0818182,
                "tempo": 120.0
            },
            {
                "start_time": 5.7954545,
                "end_time": 5.8772727,
                "pitch": 55,
                "velocity": 51,
                "duration": 0.0818182,
                "tempo": 120.0
            },
            {
                "start_time": 5.8954545,
                "end_time": 5.9772727,
                "pitch": 56,
                "velocity": 51,
                "duration": 0.0818182,
                "tempo": 120.0
            },
            {
                "start_time": 5.9931818,
                "end_time": 6.075,
                "pitch": 55,
                "velocity": 51,
                "duration": 0.0818182,
                "tempo": 120.0
            },
            {
                "start_time": 6.0931818,
                "end_time": 6.175,
                "pitch": 54,
                "velocity": 51,
                "duration": 0.0818182,
                "tempo": 120.0
            },
            {
                "start_time": 6.1909091,
                "end_time": 6.2727273,
                "pitch": 55,
                "velocity": 51,
                "duration": 0.0818182,
                "tempo": 120.0
            },
            {
                "start_time": 6.2886364,
                "end_time": 6.3704545,
                "pitch": 56,
                "velocity": 51,
                "duration": 0.0818182,
                "tempo": 120.0
            },
            {
                "start_time": 6.3863636,
                "end_time": 6.4704545,
                "pitch": 55,
                "velocity": 51,
                "duration": 0.0840909,
                "tempo": 120.0
            },
            {
                "start_time": 6.4863636,
                "end_time": 6.5704545,
                "pitch": 54,
                "velocity": 51,
                "duration": 0.0840909,
                "tempo": 120.0
            },
            {
                "start_time": 6.5863636,
                "end_time": 6.6704545,
                "pitch": 55,
                "velocity": 51,
                "duration": 0.0840909,
                "tempo": 120.0
            },
            {
                "start_time": 6.6863636,
                "end_time": 6.7704545,
                "pitch": 56,
                "velocity": 51,
                "duration": 0.0840909,
                "tempo": 120.0
            },
            {
                "start_time": 6.7863636,
                "end_time": 6.8704545,
                "pitch": 55,
                "velocity": 51,
                "duration": 0.0840909,
                "tempo": 120.0
            },
            {
                "start_time": 6.8863636,
                "end_time": 6.9704545,
                "pitch": 54,
                "velocity": 51,
                "duration": 0.0840909,
                "tempo": 120.0
            },
            {
                "start_time": 6.9886364,
                "end_time": 7.0727273,
                "pitch": 55,
                "velocity": 51,
                "duration": 0.0840909,
                "tempo": 120.0
            },
            {
                "start_time": 7.0886364,
                "end_time": 7.1727273,
                "pitch": 56,
                "velocity": 51,
                "duration": 0.0840909,
                "tempo": 120.0
            },
            {
                "start_time": 7.1886364,
                "end_time": 7.275,
                "pitch": 55,
                "velocity": 51,
                "duration": 0.0863636,
                "tempo": 120.0
            },
            {
                "start_time": 7.2909091,
                "end_time": 7.3772727,
                "pitch": 54,
                "velocity": 51,
                "duration": 0.0863636,
                "tempo": 120.0
            },
            {
                "start_time": 7.3954545,
                "end_time": 7.4795455,
                "pitch": 55,
                "velocity": 51,
                "duration": 0.0840909,
                "tempo": 120.0
            },
            {
                "start_time": 7.4977273,
                "end_time": 7.5818182,
                "pitch": 56,
                "velocity": 51,
                "duration": 0.0840909,
                "tempo": 120.0
            },
            {
                "start_time": 7.6,
                "end_time": 7.6840909,
                "pitch": 55,
                "velocity": 51,
                "duration": 0.0840909,
                "tempo": 120.0
            },
            {
                "start_time": 7.7,
                "end_time": 7.7840909,
                "pitch": 54,
                "velocity": 51,
                "duration": 0.0840909,
                "tempo": 120.0
            },
            {
                "start_time": 7.8,
                "end_time": 7.8840909,
                "pitch": 55,
                "velocity": 51,
                "duration": 0.0840909,
                "tempo": 120.0
            },
            {
                "start_time": 7.9,
                "end_time": 7.9840909,
                "pitch": 56,
                "velocity": 51,
                "duration": 0.0840909,
                "tempo": 120.0
            },
            {
                "start_time": 8.0,
                "end_time": 8.0818182,
                "pitch": 55,
                "velocity": 51,
                "duration": 0.0818182,
                "tempo": 120.0
            },
            {
                "start_time": 8.0977273,
                "end_time": 8.1795455,
                "pitch": 54,
                "velocity": 51,
                "duration": 0.0818182,
                "tempo": 120.0
            },
            {
                "start_time": 8.1954545,
                "end_time": 8.2772727,
                "pitch": 55,
                "velocity": 51,
                "duration": 0.0818182,
                "tempo": 120.0
            },
            {
                "start_time": 8.2931818,
                "end_time": 8.375,
                "pitch": 56,
                "velocity": 51,
                "duration": 0.0818182,
                "tempo": 120.0
            },
            {
                "start_time": 8.3931818,
                "end_time": 8.4772727,
                "pitch": 55,
                "velocity": 51,
                "duration": 0.0840909,
                "tempo": 120.0
            },
            {
                "start_time": 8.4931818,
                "end_time": 8.5772727,
                "pitch": 54,
                "velocity": 51,
                "duration": 0.0840909,
                "tempo": 120.0
            },
            {
                "start_time": 8.5931818,
                "end_time": 8.6772727,
                "pitch": 55,
                "velocity": 51,
                "duration": 0.0840909,
                "tempo": 120.0
            },
            {
                "start_time": 8.6954545,
                "end_time": 8.7772727,
                "pitch": 56,
                "velocity": 51,
                "duration": 0.0818182,
                "tempo": 120.0
            },
            {
                "start_time": 8.7954545,
                "end_time": 8.8795455,
                "pitch": 55,
                "velocity": 51,
                "duration": 0.0840909,
                "tempo": 120.0
            },
            {
                "start_time": 8.8977273,
                "end_time": 8.9840909,
                "pitch": 54,
                "velocity": 51,
                "duration": 0.0863636,
                "tempo": 120.0
            },
            {
                "start_time": 9.0,
                "end_time": 9.0863636,
                "pitch": 55,
                "velocity": 51,
                "duration": 0.0863636,
                "tempo": 120.0
            },
            {
                "start_time": 9.1022727,
                "end_time": 9.1886364,
                "pitch": 56,
                "velocity": 51,
                "duration": 0.0863636,
                "tempo": 120.0
            },
            {
                "start_time": 9.2068182,
                "end_time": 9.2909091,
                "pitch": 55,
                "velocity": 51,
                "duration": 0.0840909,
                "tempo": 120.0
            },
            {
                "start_time": 9.3068182,
                "end_time": 9.3909091,
                "pitch": 54,
                "velocity": 51,
                "duration": 0.0840909,
                "tempo": 120.0
            },
            {
                "start_time": 9.4068182,
                "end_time": 9.4909091,
                "pitch": 55,
                "velocity": 51,
                "duration": 0.0840909,
                "tempo": 120.0
            },
            {
                "start_time": 9.5090909,
                "end_time": 9.5909091,
                "pitch": 56,
                "velocity": 51,
                "duration": 0.0818182,
                "tempo": 120.0
            },
            {
                "start_time": 9.6090909,
                "end_time": 9.6931818,
                "pitch": 55,
                "velocity": 51,
                "duration": 0.0840909,
                "tempo": 120.0
            },
            {
                "start_time": 9.7090909,
                "end_time": 9.7931818,
                "pitch": 54,
                "velocity": 51,
                "duration": 0.0840909,
                "tempo": 120.0
            },
            {
                "start_time": 9.8090909,
                "end_time": 9.8931818,
                "pitch": 55,
                "velocity": 51,
                "duration": 0.0840909,
                "tempo": 120.0
            },
            {
                "start_time": 9.9113636,
                "end_time": 9.9954545,
                "pitch": 56,
                "velocity": 51,
                "duration": 0.0840909,
                "tempo": 120.0
            },
            {
                "start_time": 10.0113636,
                "end_time": 10.0954545,
                "pitch": 55,
                "velocity": 51,
                "duration": 0.0840909,
                "tempo": 120.0
            },
            {
                "start_time": 10.1113636,
                "end_time": 10.1954545,
                "pitch": 54,
                "velocity": 51,
                "duration": 0.0840909,
                "tempo": 120.0
            },
            {
                "start_time": 10.2136364,
                "end_time": 10.2977273,
                "pitch": 55,
                "velocity": 51,
                "duration": 0.0840909,
                "tempo": 120.0
            },
            {
                "start_time": 10.3136364,
                "end_time": 10.3977273,
                "pitch": 56,
                "velocity": 51,
                "duration": 0.0840909,
                "tempo": 120.0
            },
            {
                "start_time": 10.4136364,
                "end_time": 10.4977273,
                "pitch": 55,
                "velocity": 51,
                "duration": 0.0840909,
                "tempo": 120.0
            },
            {
                "start_time": 10.5136364,
                "end_time": 10.5977273,
                "pitch": 54,
                "velocity": 51,
                "duration": 0.0840909,
                "tempo": 120.0
            },
            {
                "start_time": 10.6159091,
                "end_time": 10.7,
                "pitch": 55,
                "velocity": 51,
                "duration": 0.0840909,
                "tempo": 120.0
            },
            {
                "start_time": 10.7159091,
                "end_time": 10.8,
                "pitch": 56,
                "velocity": 51,
                "duration": 0.0840909,
                "tempo": 120.0
            },
            {
                "start_time": 10.8159091,
                "end_time": 10.9,
                "pitch": 55,
                "velocity": 51,
                "duration": 0.0840909,
                "tempo": 120.0
            },
            {
                "start_time": 10.9159091,
                "end_time": 11.0,
                "pitch": 54,
                "velocity": 51,
                "duration": 0.0840909,
                "tempo": 120.0
            },
            {
                "start_time": 11.0159091,
                "end_time": 11.1,
                "pitch": 55,
                "velocity": 51,
                "duration": 0.0840909,
                "tempo": 120.0
            },
            {
                "start_time": 11.1159091,
                "end_time": 11.2,
                "pitch": 56,
                "velocity": 51,
                "duration": 0.0840909,
                "tempo": 120.0
            },
            {
                "start_time": 11.2159091,
                "end_time": 11.2977273,
                "pitch": 55,
                "velocity": 51,
                "duration": 0.0818182,
                "tempo": 120.0
            },
            {
                "start_time": 11.3159091,
                "end_time": 11.3954545,
                "pitch": 54,
                "velocity": 51,
                "duration": 0.0795455,
                "tempo": 120.0
            },
            {
                "start_time": 11.4136364,
                "end_time": 11.4954545,
                "pitch": 55,
                "velocity": 51,
                "duration": 0.0818182,
                "tempo": 120.0
            },
            {
                "start_time": 11.5113636,
                "end_time": 11.5931818,
                "pitch": 56,
                "velocity": 51,
                "duration": 0.0818182,
                "tempo": 120.0
            },
            {
                "start_time": 11.6090909,
                "end_time": 11.6931818,
                "pitch": 55,
                "velocity": 51,
                "duration": 0.0840909,
                "tempo": 120.0
            },
            {
                "start_time": 11.7113636,
                "end_time": 11.7977273,
                "pitch": 54,
                "velocity": 51,
                "duration": 0.0863636,
                "tempo": 120.0
            },
            {
                "start_time": 11.8136364,
                "end_time": 11.9,
                "pitch": 55,
                "velocity": 51,
                "duration": 0.0863636,
                "tempo": 120.0
            },
            {
                "start_time": 11.9159091,
                "end_time": 12.0022727,
                "pitch": 56,
                "velocity": 51,
                "duration": 0.0863636,
                "tempo": 120.0
            },
            {
                "start_time": 12.0204545,
                "end_time": 12.1,
                "pitch": 55,
                "velocity": 51,
                "duration": 0.0795455,
                "tempo": 120.0
            },
            {
                "start_time": 12.1181818,
                "end_time": 12.2,
                "pitch": 54,
                "velocity": 51,
                "duration": 0.0818182,
                "tempo": 120.0
            },
            {
                "start_time": 12.2159091,
                "end_time": 12.2977273,
                "pitch": 55,
                "velocity": 51,
                "duration": 0.0818182,
                "tempo": 120.0
            },
            {
                "start_time": 12.3136364,
                "end_time": 12.3954545,
                "pitch": 56,
                "velocity": 51,
                "duration": 0.0818182,
                "tempo": 120.0
            },
            {
                "start_time": 12.4113636,
                "end_time": 12.4954545,
                "pitch": 55,
                "velocity": 51,
                "duration": 0.0840909,
                "tempo": 120.0
            },
            {
                "start_time": 12.5113636,
                "end_time": 12.5954545,
                "pitch": 54,
                "velocity": 51,
                "duration": 0.0840909,
                "tempo": 120.0
            },
            {
                "start_time": 12.6136364,
                "end_time": 12.6977273,
                "pitch": 55,
                "velocity": 51,
                "duration": 0.0840909,
                "tempo": 120.0
            },
            {
                "start_time": 12.7136364,
                "end_time": 12.7977273,
                "pitch": 56,
                "velocity": 51,
                "duration": 0.0840909,
                "tempo": 120.0
            },
            {
                "start_time": 12.8136364,
                "end_time": 12.8977273,
                "pitch": 66,
                "velocity": 51,
                "duration": 0.0840909,
                "tempo": 120.0
            },
            {
                "start_time": 12.9136364,
                "end_time": 12.9977273,
                "pitch": 61,
                "velocity": 51,
                "duration": 0.0840909,
                "tempo": 120.0
            },
            {
                "start_time": 13.0136364,
                "end_time": 13.0977273,
                "pitch": 65,
                "velocity": 51,
                "duration": 0.0840909,
                "tempo": 120.0
            },
            {
                "start_time": 13.1136364,
                "end_time": 13.1977273,
                "pitch": 62,
                "velocity": 51,
                "duration": 0.0840909,
                "tempo": 120.0
            },
            {
                "start_time": 13.2136364,
                "end_time": 13.2977273,
                "pitch": 66,
                "velocity": 51,
                "duration": 0.0840909,
                "tempo": 120.0
            },
            {
                "start_time": 13.3159091,
                "end_time": 13.4,
                "pitch": 61,
                "velocity": 51,
                "duration": 0.0840909,
                "tempo": 120.0
            },
            {
                "start_time": 13.4159091,
                "end_time": 13.5,
                "pitch": 65,
                "velocity": 51,
                "duration": 0.0840909,
                "tempo": 120.0
            },
            {
                "start_time": 13.5159091,
                "end_time": 13.6,
                "pitch": 62,
                "velocity": 51,
                "duration": 0.0840909,
                "tempo": 120.0
            },
            {
                "start_time": 13.6159091,
                "end_time": 13.7,
                "pitch": 66,
                "velocity": 51,
                "duration": 0.0840909,
                "tempo": 120.0
            },
            {
                "start_time": 13.7181818,
                "end_time": 13.8022727,
                "pitch": 61,
                "velocity": 51,
                "duration": 0.0840909,
                "tempo": 120.0
            },
            {
                "start_time": 13.8181818,
                "end_time": 13.9022727,
                "pitch": 65,
                "velocity": 51,
                "duration": 0.0840909,
                "tempo": 120.0
            },
            {
                "start_time": 13.9181818,
                "end_time": 14.0022727,
                "pitch": 62,
                "velocity": 51,
                "duration": 0.0840909,
                "tempo": 120.0
            },
            {
                "start_time": 14.0204545,
                "end_time": 14.1045455,
                "pitch": 66,
                "velocity": 51,
                "duration": 0.0840909,
                "tempo": 120.0
            },
            {
                "start_time": 14.1204545,
                "end_time": 14.2045455,
                "pitch": 61,
                "velocity": 51,
                "duration": 0.0840909,
                "tempo": 120.0
            },
            {
                "start_time": 14.2204545,
                "end_time": 14.3045455,
                "pitch": 65,
                "velocity": 51,
                "duration": 0.0840909,
                "tempo": 120.0
            },
            {
                "start_time": 14.3227273,
                "end_time": 14.4045455,
                "pitch": 62,
                "velocity": 51,
                "duration": 0.0818182,
                "tempo": 120.0
            },
            {
                "start_time": 14.4227273,
                "end_time": 14.5068182,
                "pitch": 66,
                "velocity": 51,
                "duration": 0.0840909,
                "tempo": 120.0
            },
            {
                "start_time": 14.5227273,
                "end_time": 14.6068182,
                "pitch": 61,
                "velocity": 51,
                "duration": 0.0840909,
                "tempo": 120.0
            },
            {
                "start_time": 14.6227273,
                "end_time": 14.7068182,
                "pitch": 65,
                "velocity": 51,
                "duration": 0.0840909,
                "tempo": 120.0
            },
            {
                "start_time": 14.725,
                "end_time": 14.8090909,
                "pitch": 62,
                "velocity": 51,
                "duration": 0.0840909,
                "tempo": 120.0
            },
            {
                "start_time": 14.825,
                "end_time": 14.9090909,
                "pitch": 66,
                "velocity": 51,
                "duration": 0.0840909,
                "tempo": 120.0
            },
            {
                "start_time": 14.925,
                "end_time": 15.0090909,
                "pitch": 61,
                "velocity": 51,
                "duration": 0.0840909,
                "tempo": 120.0
            },
            {
                "start_time": 15.025,
                "end_time": 15.1090909,
                "pitch": 65,
                "velocity": 51,
                "duration": 0.0840909,
                "tempo": 120.0
            },
            {
                "start_time": 15.125,
                "end_time": 15.2090909,
                "pitch": 62,
                "velocity": 51,
                "duration": 0.0840909,
                "tempo": 120.0
            },
            {
                "start_time": 15.225,
                "end_time": 15.3113636,
                "pitch": 66,
                "velocity": 51,
                "duration": 0.0863636,
                "tempo": 120.0
            },
            {
                "start_time": 15.3272727,
                "end_time": 15.4136364,
                "pitch": 61,
                "velocity": 51,
                "duration": 0.0863636,
                "tempo": 120.0
            },
            {
                "start_time": 15.4295455,
                "end_time": 15.5159091,
                "pitch": 65,
                "velocity": 51,
                "duration": 0.0863636,
                "tempo": 120.0
            },
            {
                "start_time": 15.5340909,
                "end_time": 15.6181818,
                "pitch": 62,
                "velocity": 51,
                "duration": 0.0840909,
                "tempo": 120.0
            },
            {
                "start_time": 15.6363636,
                "end_time": 15.7181818,
                "pitch": 66,
                "velocity": 51,
                "duration": 0.0818182,
                "tempo": 120.0
            },
            {
                "start_time": 15.7340909,
                "end_time": 15.8159091,
                "pitch": 61,
                "velocity": 51,
                "duration": 0.0818182,
                "tempo": 120.0
            },
            {
                "start_time": 15.8318182,
                "end_time": 15.9136364,
                "pitch": 65,
                "velocity": 51,
                "duration": 0.0818182,
                "tempo": 120.0
            },
            {
                "start_time": 15.9295455,
                "end_time": 16.0113636,
                "pitch": 62,
                "velocity": 51,
                "duration": 0.0818182,
                "tempo": 120.0
            },
            {
                "start_time": 16.0272727,
                "end_time": 16.1113636,
                "pitch": 66,
                "velocity": 51,
                "duration": 0.0840909,
                "tempo": 120.0
            },
            {
                "start_time": 16.1295455,
                "end_time": 16.2113636,
                "pitch": 61,
                "velocity": 51,
                "duration": 0.0818182,
                "tempo": 120.0
            },
            {
                "start_time": 16.2295455,
                "end_time": 16.3136364,
                "pitch": 65,
                "velocity": 51,
                "duration": 0.0840909,
                "tempo": 120.0
            },
            {
                "start_time": 16.3295455,
                "end_time": 16.4136364,
                "pitch": 62,
                "velocity": 51,
                "duration": 0.0840909,
                "tempo": 120.0
            },
            {
                "start_time": 16.4295455,
                "end_time": 16.5159091,
                "pitch": 66,
                "velocity": 51,
                "duration": 0.0863636,
                "tempo": 120.0
            },
            {
                "start_time": 16.5340909,
                "end_time": 16.6181818,
                "pitch": 61,
                "velocity": 51,
                "duration": 0.0840909,
                "tempo": 120.0
            },
            {
                "start_time": 16.6363636,
                "end_time": 16.7204545,
                "pitch": 65,
                "velocity": 51,
                "duration": 0.0840909,
                "tempo": 120.0
            },
            {
                "start_time": 16.7386364,
                "end_time": 16.825,
                "pitch": 62,
                "velocity": 51,
                "duration": 0.0863636,
                "tempo": 120.0
            },
            {
                "start_time": 16.8409091,
                "end_time": 16.9227273,
                "pitch": 66,
                "velocity": 51,
                "duration": 0.0818182,
                "tempo": 120.0
            },
            {
                "start_time": 16.9386364,
                "end_time": 17.0204545,
                "pitch": 61,
                "velocity": 51,
                "duration": 0.0818182,
                "tempo": 120.0
            },
            {
                "start_time": 17.0363636,
                "end_time": 17.1181818,
                "pitch": 65,
                "velocity": 51,
                "duration": 0.0818182,
                "tempo": 120.0
            },
            {
                "start_time": 17.1363636,
                "end_time": 17.2181818,
                "pitch": 62,
                "velocity": 51,
                "duration": 0.0818182,
                "tempo": 120.0
            },
            {
                "start_time": 17.2340909,
                "end_time": 17.3159091,
                "pitch": 66,
                "velocity": 51,
                "duration": 0.0818182,
                "tempo": 120.0
            },
            {
                "start_time": 17.3340909,
                "end_time": 17.4159091,
                "pitch": 61,
                "velocity": 51,
                "duration": 0.0818182,
                "tempo": 120.0
            },
            {
                "start_time": 17.4340909,
                "end_time": 17.5159091,
                "pitch": 65,
                "velocity": 51,
                "duration": 0.0818182,
                "tempo": 120.0
            },
            {
                "start_time": 17.5340909,
                "end_time": 17.6159091,
                "pitch": 62,
                "velocity": 51,
                "duration": 0.0818182,
                "tempo": 120.0
            },
            {
                "start_time": 17.6340909,
                "end_time": 17.7159091,
                "pitch": 66,
                "velocity": 51,
                "duration": 0.0818182,
                "tempo": 120.0
            },
            {
                "start_time": 17.7340909,
                "end_time": 17.8159091,
                "pitch": 61,
                "velocity": 51,
                "duration": 0.0818182,
                "tempo": 120.0
            },
            {
                "start_time": 17.8340909,
                "end_time": 17.9159091,
                "pitch": 65,
                "velocity": 51,
                "duration": 0.0818182,
                "tempo": 120.0
            },
            {
                "start_time": 17.9340909,
                "end_time": 18.0159091,
                "pitch": 62,
                "velocity": 51,
                "duration": 0.0818182,
                "tempo": 120.0
            },
            {
                "start_time": 18.0340909,
                "end_time": 18.1181818,
                "pitch": 66,
                "velocity": 51,
                "duration": 0.0840909,
                "tempo": 120.0
            },
            {
                "start_time": 18.1340909,
                "end_time": 18.2181818,
                "pitch": 61,
                "velocity": 51,
                "duration": 0.0840909,
                "tempo": 120.0
            },
            {
                "start_time": 18.2340909,
                "end_time": 18.3181818,
                "pitch": 65,
                "velocity": 51,
                "duration": 0.0840909,
                "tempo": 120.0
            },
            {
                "start_time": 18.3363636,
                "end_time": 18.4204545,
                "pitch": 62,
                "velocity": 51,
                "duration": 0.0840909,
                "tempo": 120.0
            },
            {
                "start_time": 18.4363636,
                "end_time": 18.5204545,
                "pitch": 66,
                "velocity": 51,
                "duration": 0.0840909,
                "tempo": 120.0
            },
            {
                "start_time": 18.5363636,
                "end_time": 18.6204545,
                "pitch": 61,
                "velocity": 51,
                "duration": 0.0840909,
                "tempo": 120.0
            },
            {
                "start_time": 18.6363636,
                "end_time": 18.7204545,
                "pitch": 65,
                "velocity": 51,
                "duration": 0.0840909,
                "tempo": 120.0
            },
            {
                "start_time": 18.7363636,
                "end_time": 18.8204545,
                "pitch": 62,
                "velocity": 51,
                "duration": 0.0840909,
                "tempo": 120.0
            },
            {
                "start_time": 18.8363636,
                "end_time": 18.9204545,
                "pitch": 66,
                "velocity": 51,
                "duration": 0.0840909,
                "tempo": 120.0
            },
            {
                "start_time": 18.9363636,
                "end_time": 19.0204545,
                "pitch": 61,
                "velocity": 51,
                "duration": 0.0840909,
                "tempo": 120.0
            },
            {
                "start_time": 19.0386364,
                "end_time": 19.1204545,
                "pitch": 65,
                "velocity": 51,
                "duration": 0.0818182,
                "tempo": 120.0
            },
            {
                "start_time": 19.1386364,
                "end_time": 19.2227273,
                "pitch": 62,
                "velocity": 51,
                "duration": 0.0840909,
                "tempo": 120.0
            },
            {
                "start_time": 19.2386364,
                "end_time": 19.325,
                "pitch": 66,
                "velocity": 51,
                "duration": 0.0863636,
                "tempo": 120.0
            },
            {
                "start_time": 19.3409091,
                "end_time": 19.4272727,
                "pitch": 61,
                "velocity": 51,
                "duration": 0.0863636,
                "tempo": 120.0
            },
            {
                "start_time": 19.4431818,
                "end_time": 19.5295455,
                "pitch": 65,
                "velocity": 51,
                "duration": 0.0863636,
                "tempo": 120.0
            },
            {
                "start_time": 19.5477273,
                "end_time": 19.6318182,
                "pitch": 62,
                "velocity": 51,
                "duration": 0.0840909,
                "tempo": 120.0
            },
            {
                "start_time": 19.65,
                "end_time": 19.7318182,
                "pitch": 66,
                "velocity": 51,
                "duration": 0.0818182,
                "tempo": 120.0
            },
            {
                "start_time": 19.7477273,
                "end_time": 19.8295455,
                "pitch": 61,
                "velocity": 51,
                "duration": 0.0818182,
                "tempo": 120.0
            },
            {
                "start_time": 19.8454545,
                "end_time": 19.9272727,
                "pitch": 65,
                "velocity": 51,
                "duration": 0.0818182,
                "tempo": 120.0
            },
            {
                "start_time": 19.9431818,
                "end_time": 20.025,
                "pitch": 62,
                "velocity": 51,
                "duration": 0.0818182,
                "tempo": 120.0
            },
            {
                "start_time": 20.0409091,
                "end_time": 20.1272727,
                "pitch": 66,
                "velocity": 51,
                "duration": 0.0863636,
                "tempo": 120.0
            },
            {
                "start_time": 20.1431818,
                "end_time": 20.2295455,
                "pitch": 61,
                "velocity": 51,
                "duration": 0.0863636,
                "tempo": 120.0
            },
            {
                "start_time": 20.2477273,
                "end_time": 20.3318182,
                "pitch": 65,
                "velocity": 51,
                "duration": 0.0840909,
                "tempo": 120.0
            },
            {
                "start_time": 20.35,
                "end_time": 20.4340909,
                "pitch": 62,
                "velocity": 51,
                "duration": 0.0840909,
                "tempo": 120.0
            },
            {
                "start_time": 20.4522727,
                "end_time": 20.5340909,
                "pitch": 66,
                "velocity": 51,
                "duration": 0.0818182,
                "tempo": 120.0
            },
            {
                "start_time": 20.55,
                "end_time": 20.6318182,
                "pitch": 61,
                "velocity": 51,
                "duration": 0.0818182,
                "tempo": 120.0
            },
            {
                "start_time": 20.6477273,
                "end_time": 20.7295455,
                "pitch": 65,
                "velocity": 51,
                "duration": 0.0818182,
                "tempo": 120.0
            },
            {
                "start_time": 20.7454545,
                "end_time": 20.8272727,
                "pitch": 62,
                "velocity": 51,
                "duration": 0.0818182,
                "tempo": 120.0
            },
            {
                "start_time": 20.8454545,
                "end_time": 20.9272727,
                "pitch": 66,
                "velocity": 51,
                "duration": 0.0818182,
                "tempo": 120.0
            },
            {
                "start_time": 20.9454545,
                "end_time": 21.0295455,
                "pitch": 61,
                "velocity": 51,
                "duration": 0.0840909,
                "tempo": 120.0
            },
            {
                "start_time": 21.0454545,
                "end_time": 21.1295455,
                "pitch": 65,
                "velocity": 51,
                "duration": 0.0840909,
                "tempo": 120.0
            },
            {
                "start_time": 21.1454545,
                "end_time": 21.2295455,
                "pitch": 62,
                "velocity": 51,
                "duration": 0.0840909,
                "tempo": 120.0
            },
            {
                "start_time": 21.2477273,
                "end_time": 21.3318182,
                "pitch": 66,
                "velocity": 51,
                "duration": 0.0840909,
                "tempo": 120.0
            },
            {
                "start_time": 21.35,
                "end_time": 21.4363636,
                "pitch": 61,
                "velocity": 51,
                "duration": 0.0863636,
                "tempo": 120.0
            },
            {
                "start_time": 21.4522727,
                "end_time": 21.5386364,
                "pitch": 65,
                "velocity": 51,
                "duration": 0.0863636,
                "tempo": 120.0
            },
            {
                "start_time": 21.5545455,
                "end_time": 21.6409091,
                "pitch": 62,
                "velocity": 51,
                "duration": 0.0863636,
                "tempo": 120.0
            },
            {
                "start_time": 21.6568182,
                "end_time": 21.7409091,
                "pitch": 66,
                "velocity": 51,
                "duration": 0.0840909,
                "tempo": 120.0
            },
            {
                "start_time": 21.7590909,
                "end_time": 21.8409091,
                "pitch": 61,
                "velocity": 51,
                "duration": 0.0818182,
                "tempo": 120.0
            },
            {
                "start_time": 21.8590909,
                "end_time": 21.9409091,
                "pitch": 65,
                "velocity": 51,
                "duration": 0.0818182,
                "tempo": 120.0
            },
            {
                "start_time": 21.9590909,
                "end_time": 22.0409091,
                "pitch": 62,
                "velocity": 51,
                "duration": 0.0818182,
                "tempo": 120.0
            },
            {
                "start_time": 22.0590909,
                "end_time": 22.1386364,
                "pitch": 66,
                "velocity": 51,
                "duration": 0.0795455,
                "tempo": 120.0
            },
            {
                "start_time": 22.1568182,
                "end_time": 22.2386364,
                "pitch": 61,
                "velocity": 51,
                "duration": 0.0818182,
                "tempo": 120.0
            },
            {
                "start_time": 22.2545455,
                "end_time": 22.3363636,
                "pitch": 65,
                "velocity": 51,
                "duration": 0.0818182,
                "tempo": 120.0
            },
            {
                "start_time": 22.3522727,
                "end_time": 22.4340909,
                "pitch": 62,
                "velocity": 51,
                "duration": 0.0818182,
                "tempo": 120.0
            },
            {
                "start_time": 22.45,
                "end_time": 22.5340909,
                "pitch": 66,
                "velocity": 51,
                "duration": 0.0840909,
                "tempo": 120.0
            },
            {
                "start_time": 22.55,
                "end_time": 22.6340909,
                "pitch": 61,
                "velocity": 51,
                "duration": 0.0840909,
                "tempo": 120.0
            },
            {
                "start_time": 22.65,
                "end_time": 22.7340909,
                "pitch": 65,
                "velocity": 51,
                "duration": 0.0840909,
                "tempo": 120.0
            },
            {
                "start_time": 22.75,
                "end_time": 22.8340909,
                "pitch": 62,
                "velocity": 51,
                "duration": 0.0840909,
                "tempo": 120.0
            },
            {
                "start_time": 22.85,
                "end_time": 22.9340909,
                "pitch": 66,
                "velocity": 51,
                "duration": 0.0840909,
                "tempo": 120.0
            },
            {
                "start_time": 22.95,
                "end_time": 23.0340909,
                "pitch": 61,
                "velocity": 51,
                "duration": 0.0840909,
                "tempo": 120.0
            },
            {
                "start_time": 23.0522727,
                "end_time": 23.1363636,
                "pitch": 65,
                "velocity": 51,
                "duration": 0.0840909,
                "tempo": 120.0
            },
            {
                "start_time": 23.1522727,
                "end_time": 23.2363636,
                "pitch": 62,
                "velocity": 51,
                "duration": 0.0840909,
                "tempo": 120.0
            },
            {
                "start_time": 23.2522727,
                "end_time": 23.3386364,
                "pitch": 66,
                "velocity": 51,
                "duration": 0.0863636,
                "tempo": 120.0
            },
            {
                "start_time": 23.3545455,
                "end_time": 23.4409091,
                "pitch": 61,
                "velocity": 51,
                "duration": 0.0863636,
                "tempo": 120.0
            },
            {
                "start_time": 23.4590909,
                "end_time": 23.5431818,
                "pitch": 65,
                "velocity": 51,
                "duration": 0.0840909,
                "tempo": 120.0
            },
            {
                "start_time": 23.5613636,
                "end_time": 23.6477273,
                "pitch": 62,
                "velocity": 51,
                "duration": 0.0863636,
                "tempo": 120.0
            },
            {
                "start_time": 23.6636364,
                "end_time": 23.7477273,
                "pitch": 66,
                "velocity": 51,
                "duration": 0.0840909,
                "tempo": 120.0
            },
            {
                "start_time": 23.7636364,
                "end_time": 23.8477273,
                "pitch": 61,
                "velocity": 51,
                "duration": 0.0840909,
                "tempo": 120.0
            },
            {
                "start_time": 23.8636364,
                "end_time": 23.9477273,
                "pitch": 65,
                "velocity": 51,
                "duration": 0.0840909,
                "tempo": 120.0
            },
            {
                "start_time": 23.9636364,
                "end_time": 24.0477273,
                "pitch": 62,
                "velocity": 51,
                "duration": 0.0840909,
                "tempo": 120.0
            },
            {
                "start_time": 24.0636364,
                "end_time": 24.1477273,
                "pitch": 66,
                "velocity": 51,
                "duration": 0.0840909,
                "tempo": 120.0
            },
            {
                "start_time": 24.1636364,
                "end_time": 24.2477273,
                "pitch": 61,
                "velocity": 51,
                "duration": 0.0840909,
                "tempo": 120.0
            },
            {
                "start_time": 24.2636364,
                "end_time": 24.3477273,
                "pitch": 65,
                "velocity": 51,
                "duration": 0.0840909,
                "tempo": 120.0
            },
            {
                "start_time": 24.3636364,
                "end_time": 24.4477273,
                "pitch": 62,
                "velocity": 51,
                "duration": 0.0840909,
                "tempo": 120.0
            },
            {
                "start_time": 24.4636364,
                "end_time": 24.5454545,
                "pitch": 66,
                "velocity": 51,
                "duration": 0.0818182,
                "tempo": 120.0
            },
            {
                "start_time": 24.5613636,
                "end_time": 24.6431818,
                "pitch": 61,
                "velocity": 51,
                "duration": 0.0818182,
                "tempo": 120.0
            },
            {
                "start_time": 24.6590909,
                "end_time": 24.7409091,
                "pitch": 65,
                "velocity": 51,
                "duration": 0.0818182,
                "tempo": 120.0
            },
            {
                "start_time": 24.7590909,
                "end_time": 24.8386364,
                "pitch": 62,
                "velocity": 51,
                "duration": 0.0795455,
                "tempo": 120.0
            },
            {
                "start_time": 24.8568182,
                "end_time": 24.9409091,
                "pitch": 66,
                "velocity": 51,
                "duration": 0.0840909,
                "tempo": 120.0
            },
            {
                "start_time": 24.9568182,
                "end_time": 25.0409091,
                "pitch": 61,
                "velocity": 51,
                "duration": 0.0840909,
                "tempo": 120.0
            },
            {
                "start_time": 25.0568182,
                "end_time": 25.1409091,
                "pitch": 65,
                "velocity": 51,
                "duration": 0.0840909,
                "tempo": 120.0
            },
            {
                "start_time": 25.1590909,
                "end_time": 25.2431818,
                "pitch": 62,
                "velocity": 51,
                "duration": 0.0840909,
                "tempo": 120.0
            },
            {
                "start_time": 25.2590909,
                "end_time": 25.3431818,
                "pitch": 66,
                "velocity": 51,
                "duration": 0.0840909,
                "tempo": 120.0
            },
            {
                "start_time": 25.3590909,
                "end_time": 25.4431818,
                "pitch": 61,
                "velocity": 51,
                "duration": 0.0840909,
                "tempo": 120.0
            },
            {
                "start_time": 25.4590909,
                "end_time": 25.5431818,
                "pitch": 65,
                "velocity": 51,
                "duration": 0.0840909,
                "tempo": 120.0
            },
            {
                "start_time": 25.5590909,
                "end_time": 25.6431818,
                "pitch": 62,
                "velocity": 51,
                "duration": 0.0840909,
                "tempo": 120.0
            },
            {
                "start_time": 25.6590909,
                "end_time": 25.7431818,
                "pitch": 55,
                "velocity": 51,
                "duration": 0.0840909,
                "tempo": 120.0
            }
        ]
    }
}