{
    "mood": "sad",
    "instruments": {
        "Lead 2 (sawtooth)": [
            {
                "start_time": 14.5181818,
                "end_time": 14.6159091,
                "pitch": 66,
                "velocity": 80,
                "duration": 0.0977273,
                "tempo": 120.0
            },
            {
                "start_time": 14.6318182,
                "end_time": 14.7318182,
                "pitch": 61,
                "velocity": 80,
                "duration": 0.1,
                "tempo": 120.0
            },
            {
                "start_time": 14.7477273,
                "end_time": 14.8454545,
                "pitch": 59,
                "velocity": 80,
                "duration": 0.0977273,
                "tempo": 120.0
            },
            {
                "start_time": 14.8613636,
                "end_time": 14.9431818,
                "pitch": 54,
                "velocity": 80,
                "duration": 0.0818182,
                "tempo": 120.0
            },
            {
                "start_time": 14.9772727,
                "end_time": 15.0636364,
                "pitch": 66,
                "velocity": 80,
                "duration": 0.0863636,
                "tempo": 120.0
            },
            {
                "start_time": 15.0818182,
                "end_time": 15.1863636,
                "pitch": 62,
                "velocity": 80,
                "duration": 0.1045455,
                "tempo": 120.0
            },
            {
                "start_time": 15.2045455,
                "end_time": 15.3090909,
                "pitch": 59,
                "velocity": 80,
                "duration": 0.1045455,
                "tempo": 120.0
            },
            {
                "start_time": 15.3272727,
                "end_time": 15.4318182,
                "pitch": 54,
                "velocity": 80,
                "duration": 0.1045455,
                "tempo": 120.0
            },
            {
                "start_time": 15.45,
                "end_time": 15.5454545,
                "pitch": 66,
                "velocity": 80,
                "duration": 0.0954545,
                "tempo": 120.0
            },
            {
                "start_time": 15.5613636,
                "end_time": 15.6568182,
                "pitch": 61,
                "velocity": 80,
                "duration": 0.0954545,
                "tempo": 120.0
            },
            {
                "start_time": 15.6727273,
                "end_time": 15.7522727,
                "pitch": 59,
                "velocity": 80,
                "duration": 0.0795455,
                "tempo": 120.0
            },
            {
                "start_time": 15.7840909,
                "end_time": 15.8636364,
                "pitch": 54,
                "velocity": 80,
                "duration": 0.0795455,
                "tempo": 120.0
            },
            {
                "start_time": 15.8818182,
                "end_time": 15.9818182,
                "pitch": 66,
                "velocity": 80,
                "duration": 0.1,
                "tempo": 120.0
            },
            {
                "start_time": 15.9977273,
                "end_time": 16.0977273,
                "pitch": 62,
                "velocity": 80,
                "duration": 0.1,
                "tempo": 120.0
            },
            {
                "start_time": 16.1136364,
                "end_time": 16.2159091,
                "pitch": 59,
                "velocity": 80,
                "duration": 0.1022727,
                "tempo": 120.0
            },
            {
                "start_time": 16.2318182,
                "end_time": 16.3318182,
                "pitch": 54,
                "velocity": 80,
                "duration": 0.1,
                "tempo": 120.0
            },
            {
                "start_time": 16.3477273,
                "end_time": 16.45,
                "pitch": 66,
                "velocity": 80,
                "duration": 0.1022727,
                "tempo": 120.0
            },
            {
                "start_time": 16.4659091,
                "end_time": 16.55,
                "pitch": 61,
                "velocity": 80,
                "duration": 0.0840909,
                "tempo": 120.0
            },
            {
                "start_time": 16.5840909,
                "end_time": 16.6659091,
                "pitch": 59,
                "velocity": 80,
                "duration": 0.0818182,
                "tempo": 120.0
            },
            {
                "start_time": 16.6840909,
                "end_time": 16.7840909,
                "pitch": 54,
                "velocity": 80,
                "duration": 0.1,
                "tempo": 120.0
            },
            {
                "start_time": 16.8,
                "end_time": 16.8977273,
                "pitch": 66,
                "velocity": 80,
                "duration": 0.0977273,
                "tempo": 120.0
            },
            {
                "start_time": 16.9159091,
                "end_time": 17.0136364,
                "pitch": 62,
                "velocity": 80,
                "duration": 0.0977273,
                "tempo": 120.0
            },
            {
                "start_time": 17.0295455,
                "end_time": 17.1272727,
                "pitch": 59,
                "velocity": 80,
                "duration": 0.0977273,
                "tempo": 120.0
            },
            {
                "start_time": 17.1431818,
                "end_time": 17.2409091,
                "pitch": 54,
                "velocity": 80,
                "duration": 0.0977273,
                "tempo": 120.0
            },
            {
                "start_time": 17.2590909,
                "end_time": 17.3431818,
                "pitch": 66,
                "velocity": 80,
                "duration": 0.0840909,
                "tempo": 120.0
            },
            {
                "start_time": 17.3772727,
                "end_time": 17.4636364,
                "pitch": 61,
                "velocity": 80,
                "duration": 0.0863636,
                "tempo": 120.0
            },
            {
                "start_time": 17.4795455,
                "end_time": 17.5840909,
                "pitch": 59,
                "velocity": 80,
                "duration": 0.1045455,
                "tempo": 120.0
            },
            {
                "start_time": 17.6,
                "end_time": 17.7022727,
                "pitch": 54,
                "velocity": 80,
                "duration": 0.1022727,
                "tempo": 120.0
            },
            {
                "start_time": 17.7204545,
                "end_time": 17.8181818,
                "pitch": 66,
                "velocity": 80,
                "duration": 0.0977273,
                "tempo": 120.0
            },
            {
                "start_time": 17.8340909,
                "end_time": 17.9340909,
                "pitch": 62,
                "velocity": 80,
                "duration": 0.1,
                "tempo": 120.0
            },
            {
                "start_time": 17.95,
                "end_time": 18.0477273,
                "pitch": 59,
                "velocity": 80,
                "duration": 0.0977273,
                "tempo": 120.0
            },
            {
                "start_time": 18.0636364,
                "end_time": 18.1454545,
                "pitch": 54,
                "velocity": 80,
                "duration": 0.0818182,
                "tempo": 120.0
            },
            {
                "start_time": 18.1795455,
                "end_time": 18.2613636,
                "pitch": 66,
                "velocity": 80,
                "duration": 0.0818182,
                "tempo": 120.0
            },
            {
                "start_time": 18.2795455,
                "end_time": 18.3795455,
                "pitch": 61,
                "velocity": 80,
                "duration": 0.1,
                "tempo": 120.0
            },
            {
                "start_time": 18.3954545,
                "end_time": 18.4954545,
                "pitch": 59,
                "velocity": 80,
                "duration": 0.1,
                "tempo": 120.0
            },
            {
                "start_time": 18.5136364,
                "end_time": 18.6136364,
                "pitch": 54,
                "velocity": 80,
                "duration": 0.1,
                "tempo": 120.0
            },
            {
                "start_time": 18.6295455,
                "end_time": 18.7295455,
                "pitch": 66,
                "velocity": 80,
                "duration": 0.1,
                "tempo": 120.0
            },
            {
                "start_time": 18.7477273,
                "end_time": 18.8477273,
                "pitch": 62,
                "velocity": 80,
                "duration": 0.1,
                "tempo": 120.0
            },
            {
                "start_time": 18.8636364,
                "end_time": 18.9477273,
                "pitch": 59,
                "velocity": 80,
                "duration": 0.0840909,
                "tempo": 120.0
            },
            {
                "start_time": 18.9818182,
                "end_time": 19.0659091,
                "pitch": 54,
                "velocity": 80,
                "duration": 0.0840909,
                "tempo": 120.0
            },
            {
                "start_time": 19.0818182,
                "end_time": 19.1795455,
                "pitch": 66,
                "velocity": 80,
                "duration": 0.0977273,
                "tempo": 120.0
            },
            {
                "start_time": 19.1954545,
                "end_time": 19.2954545,
                "pitch": 61,
                "velocity": 80,
                "duration": 0.1,
                "tempo": 120.0
            },
            {
                "start_time": 19.3113636,
                "end_time": 19.4090909,
                "pitch": 59,
                "velocity": 80,
                "duration": 0.0977273,
                "tempo": 120.0
            },
            {
                "start_time": 19.425,
                "end_time": 19.5227273,
                "pitch": 54,
                "velocity": 80,
                "duration": 0.0977273,
                "tempo": 120.0
            },
            {
                "start_time": 19.5386364,
                "end_time": 19.6409091,
                "pitch": 66,
                "velocity": 80,
                "duration": 0.1022727,
                "tempo": 120.0
            },
            {
                "start_time": 19.6568182,
                "end_time": 19.7409091,
                "pitch": 62,
                "velocity": 80,
                "duration": 0.0840909,
                "tempo": 120.0
            },
            {
                "start_time": 19.7727273,
                "end_time": 19.8568182,
                "pitch": 59,
                "velocity": 80,
                "duration": 0.0840909,
                "tempo": 120.0
            },
            {
                "start_time": 19.875,
                "end_time": 19.975,
                "pitch": 54,
                "velocity": 80,
                "duration": 0.1,
                "tempo": 120.0
            },
            {
                "start_time": 19.9909091,
                "end_time": 20.0886364,
                "pitch": 66,
                "velocity": 80,
                "duration": 0.0977273,
                "tempo": 120.0
            },
            {
                "start_time": 20.1068182,
                "end_time": 20.2045455,
                "pitch": 61,
                "velocity": 80,
                "duration": 0.0977273,
                "tempo": 120.0
            },
            {
                "start_time": 20.2204545,
                "end_time": 20.3181818,
                "pitch": 59,
                "velocity": 80,
                "duration": 0.0977273,
                "tempo": 120.0
            },
            {
                "start_time": 20.3340909,
                "end_time": 20.4318182,
                "pitch": 54,
                "velocity": 80,
                "duration": 0.0977273,
                "tempo": 120.0
            },
            {
                "start_time": 20.45,
                "end_time": 20.5340909,
                "pitch": 66,
                "velocity": 80,
                "duration": 0.0840909,
                "tempo": 120.0
            },
            {
                "start_time": 20.5681818,
                "end_time": 20.6545455,
                "pitch": 62,
                "velocity": 80,
                "duration": 0.0863636,
                "tempo": 120.0
            },
            {
                "start_time": 20.6704545,
                "end_time": 20.775,
                "pitch": 59,
                "velocity": 80,
                "duration": 0.1045455,
                "tempo": 120.0
            },
            {
                "start_time": 20.7909091,
                "end_time": 20.8931818,
                "pitch": 54,
                "velocity": 80,
                "duration": 0.1022727,
                "tempo": 120.0
            },
            {
                "start_time": 20.9113636,
                "end_time": 21.0090909,
                "pitch": 66,
                "velocity": 80,
                "duration": 0.0977273,
                "tempo": 120.0
            },
            {
                "start_time": 21.025,
                "end_time": 21.125,
                "pitch": 61,
                "velocity": 80,
                "duration": 0.1,
                "tempo": 120.0
            },
            {
                "start_time": 21.1409091,
                "end_time": 21.2386364,
                "pitch": 59,
                "velocity": 80,
                "duration": 0.0977273,
                "tempo": 120.0
            },
            {
                "start_time": 21.2545455,
                "end_time": 21.3363636,
                "pitch": 54,
                "velocity": 80,
                "duration": 0.0818182,
                "tempo": 120.0
            },
            {
                "start_time": 21.3681818,
                "end_time": 21.4522727,
                "pitch": 66,
                "velocity": 80,
                "duration": 0.0840909,
                "tempo": 120.0
            },
            {
                "start_time": 21.4704545,
                "end_time": 21.5704545,
                "pitch": 62,
                "velocity": 80,
                "duration": 0.1,
                "tempo": 120.0
            },
            {
                "start_time": 21.5863636,
                "end_time": 21.6863636,
                "pitch": 59,
                "velocity": 80,
                "duration": 0.1,
                "tempo": 120.0
            },
            {
                "start_time": 21.7045455,
                "end_time": 21.7704545,
                "pitch": 54,
                "velocity": 80,
                "duration": 0.0659091,
                "tempo": 120.0
            },
            {
                "start_time": 43.6977273,
                "end_time": 43.7818182,
                "pitch": 66,
                "velocity": 80,
                "duration": 0.0840909,
                "tempo": 120.0
            },
            {
                "start_time": 43.8,
                "end_time": 43.9022727,
                "pitch": 61,
                "velocity": 80,
                "duration": 0.1022727,
                "tempo": 120.0
            },
            {
                "start_time": 43.9181818,
                "end_time": 44.0227273,
                "pitch": 59,
                "velocity": 80,
                "duration": 0.1045455,
                "tempo": 120.0
            },
            {
                "start_time": 44.0386364,
                "end_time": 44.1409091,
                "pitch": 54,
                "velocity": 80,
                "duration": 0.1022727,
                "tempo": 120.0
            },
            {
                "start_time": 44.1590909,
                "end_time": 44.2590909,
                "pitch": 66,
                "velocity": 80,
                "duration": 0.1,
                "tempo": 120.0
            },
            {
                "start_time": 44.2772727,
                "end_time": 44.3772727,
                "pitch": 62,
                "velocity": 80,
                "duration": 0.1,
                "tempo": 120.0
            },
            {
                "start_time": 44.3931818,
                "end_time": 44.4772727,
                "pitch": 59,
                "velocity": 80,
                "duration": 0.0840909,
                "tempo": 120.0
            },
            {
                "start_time": 44.5113636,
                "end_time": 44.5931818,
                "pitch": 54,
                "velocity": 80,
                "duration": 0.0818182,
                "tempo": 120.0
            },
            {
                "start_time": 44.6113636,
                "end_time": 44.7068182,
                "pitch": 66,
                "velocity": 80,
                "duration": 0.0954545,
                "tempo": 120.0
            },
            {
                "start_time": 44.7227273,
                "end_time": 44.8181818,
                "pitch": 61,
                "velocity": 80,
                "duration": 0.0954545,
                "tempo": 120.0
            },
            {
                "start_time": 44.8340909,
                "end_time": 44.9295455,
                "pitch": 59,
                "velocity": 80,
                "duration": 0.0954545,
                "tempo": 120.0
            },
            {
                "start_time": 44.9454545,
                "end_time": 45.0431818,
                "pitch": 54,
                "velocity": 80,
                "duration": 0.0977273,
                "tempo": 120.0
            },
            {
                "start_time": 45.0590909,
                "end_time": 45.1613636,
                "pitch": 66,
                "velocity": 80,
                "duration": 0.1022727,
                "tempo": 120.0
            },
            {
                "start_time": 45.1772727,
                "end_time": 45.2636364,
                "pitch": 62,
                "velocity": 80,
                "duration": 0.0863636,
                "tempo": 120.0
            },
            {
                "start_time": 45.2977273,
                "end_time": 45.3840909,
                "pitch": 59,
                "velocity": 80,
                "duration": 0.0863636,
                "tempo": 120.0
            },
            {
                "start_time": 45.4,
                "end_time": 45.5045455,
                "pitch": 54,
                "velocity": 80,
                "duration": 0.1045455,
                "tempo": 120.0
            },
            {
                "start_time": 45.5204545,
                "end_time": 45.6181818,
                "pitch": 66,
                "velocity": 80,
                "duration": 0.0977273,
                "tempo": 120.0
            },
            {
                "start_time": 45.6340909,
                "end_time": 45.7340909,
                "pitch": 61,
                "velocity": 80,
                "duration": 0.1,
                "tempo": 120.0
            },
            {
                "start_time": 45.75,
                "end_time": 45.8477273,
                "pitch": 59,
                "velocity": 80,
                "duration": 0.0977273,
                "tempo": 120.0
            },
            {
                "start_time": 45.8636364,
                "end_time": 45.9613636,
                "pitch": 54,
                "velocity": 80,
                "duration": 0.0977273,
                "tempo": 120.0
            },
            {
                "start_time": 45.9795455,
                "end_time": 46.0636364,
                "pitch": 66,
                "velocity": 80,
                "duration": 0.0840909,
                "tempo": 120.0
            },
            {
                "start_time": 46.0977273,
                "end_time": 46.1840909,
                "pitch": 62,
                "velocity": 80,
                "duration": 0.0863636,
                "tempo": 120.0
            },
            {
                "start_time": 46.2,
                "end_time": 46.3045455,
                "pitch": 59,
                "velocity": 80,
                "duration": 0.1045455,
                "tempo": 120.0
            },
            {
                "start_time": 46.3204545,
                "end_time": 46.4227273,
                "pitch": 54,
                "velocity": 80,
                "duration": 0.1022727,
                "tempo": 120.0
            },
            {
                "start_time": 46.4409091,
                "end_time": 46.5386364,
                "pitch": 66,
                "velocity": 80,
                "duration": 0.0977273,
                "tempo": 120.0
            },
            {
                "start_time": 46.5545455,
                "end_time": 46.6522727,
                "pitch": 61,
                "velocity": 80,
                "duration": 0.0977273,
                "tempo": 120.0
            },
            {
                "start_time": 46.6704545,
                "end_time": 46.7681818,
                "pitch": 59,
                "velocity": 80,
                "duration": 0.0977273,
                "tempo": 120.0
            },
            {
                "start_time": 46.7840909,
                "end_time": 46.8659091,
                "pitch": 54,
                "velocity": 80,
                "duration": 0.0818182,
                "tempo": 120.0
            },
            {
                "start_time": 46.8977273,
                "end_time": 46.9818182,
                "pitch": 66,
                "velocity": 80,
                "duration": 0.0840909,
                "tempo": 120.0
            },
            {
                "start_time": 47.0,
                "end_time": 47.1,
                "pitch": 62,
                "velocity": 80,
                "duration": 0.1,
                "tempo": 120.0
            },
            {
                "start_time": 47.1159091,
                "end_time": 47.2159091,
                "pitch": 59,
                "velocity": 80,
                "duration": 0.1,
                "tempo": 120.0
            },
            {
                "start_time": 47.2340909,
                "end_time": 47.3340909,
                "pitch": 54,
                "velocity": 80,
                "duration": 0.1,
                "tempo": 120.0
            },
            {
                "start_time": 47.35,
                "end_time": 47.4477273,
                "pitch": 66,
                "velocity": 80,
                "duration": 0.0977273,
                "tempo": 120.0
            },
            {
                "start_time": 47.4636364,
                "end_time": 47.5636364,
                "pitch": 61,
                "velocity": 80,
                "duration": 0.1,
                "tempo": 120.0
            },
            {
                "start_time": 47.5795455,
                "end_time": 47.6613636,
                "pitch": 59,
                "velocity": 80,
                "duration": 0.0818182,
                "tempo": 120.0
            },
            {
                "start_time": 47.6931818,
                "end_time": 47.775,
                "pitch": 54,
                "velocity": 80,
                "duration": 0.0818182,
                "tempo": 120.0
            },
            {
                "start_time": 47.7909091,
                "end_time": 47.8909091,
                "pitch": 66,
                "velocity": 80,
                "duration": 0.1,
                "tempo": 120.0
            },
            {
                "start_time": 47.9090909,
                "end_time": 48.0090909,
                "pitch": 62,
                "velocity": 80,
                "duration": 0.1,
                "tempo": 120.0
            },
            {
                "start_time": 48.025,
                "end_time": 48.125,
                "pitch": 59,
                "velocity": 80,
                "duration": 0.1,
                "tempo": 120.0
            },
            {
                "start_time": 48.1431818,
                "end_time": 48.2431818,
                "pitch": 54,
                "velocity": 80,
                "duration": 0.1,
                "tempo": 120.0
            },
            {
                "start_time": 48.2590909,
                "end_time": 48.3613636,
                "pitch": 66,
                "velocity": 80,
                "duration": 0.1022727,
                "tempo": 120.0
            },
            {
                "start_time": 48.3772727,
                "end_time": 48.4613636,
                "pitch": 61,
                "velocity": 80,
                "duration": 0.0840909,
                "tempo": 120.0
            },
            {
                "start_time": 48.4931818,
                "end_time": 48.5772727,
                "pitch": 59,
                "velocity": 80,
                "duration": 0.0840909,
                "tempo": 120.0
            },
            {
                "start_time": 48.5954545,
                "end_time": 48.6954545,
                "pitch": 54,
                "velocity": 80,
                "duration": 0.1,
                "tempo": 120.0
            },
            {
                "start_time": 48.7113636,
                "end_time": 48.8090909,
                "pitch": 66,
                "velocity": 80,
                "duration": 0.0977273,
                "tempo": 120.0
            },
            {
                "start_time": 48.825,
                "end_time": 48.925,
                "pitch": 62,
                "velocity": 80,
                "duration": 0.1,
                "tempo": 120.0
            },
            {
                "start_time": 48.9409091,
                "end_time": 49.0386364,
                "pitch": 59,
                "velocity": 80,
                "duration": 0.0977273,
                "tempo": 120.0
            },
            {
                "start_time": 49.0545455,
                "end_time": 49.1522727,
                "pitch": 54,
                "velocity": 80,
                "duration": 0.0977273,
                "tempo": 120.0
            },
            {
                "start_time": 49.1704545,
                "end_time": 49.2545455,
                "pitch": 66,
                "velocity": 80,
                "duration": 0.0840909,
                "tempo": 120.0
            },
            {
                "start_time": 49.2886364,
                "end_time": 49.375,
                "pitch": 61,
                "velocity": 80,
                "duration": 0.0863636,
                "tempo": 120.0
            },
            {
                "start_time": 49.3909091,
                "end_time": 49.4954545,
                "pitch": 59,
                "velocity": 80,
                "duration": 0.1045455,
                "tempo": 120.0
            },
            {
                "start_time": 49.5113636,
                "end_time": 49.6136364,
                "pitch": 54,
                "velocity": 80,
                "duration": 0.1022727,
                "tempo": 120.0
            },
            {
                "start_time": 49.6318182,
                "end_time": 49.7295455,
                "pitch": 66,
                "velocity": 80,
                "duration": 0.0977273,
                "tempo": 120.0
            },
            {
                "start_time": 49.7454545,
                "end_time": 49.8431818,
                "pitch": 62,
                "velocity": 80,
                "duration": 0.0977273,
                "tempo": 120.0
            },
            {
                "start_time": 49.8613636,
                "end_time": 49.9590909,
                "pitch": 59,
                "velocity": 80,
                "duration": 0.0977273,
                "tempo": 120.0
            },
            {
                "start_time": 49.975,
                "end_time": 50.0568182,
                "pitch": 54,
                "velocity": 80,
                "duration": 0.0818182,
                "tempo": 120.0
            },
            {
                "start_time": 50.0886364,
                "end_time": 50.1727273,
                "pitch": 66,
                "velocity": 80,
                "duration": 0.0840909,
                "tempo": 120.0
            },
            {
                "start_time": 50.1909091,
                "end_time": 50.2909091,
                "pitch": 61,
                "velocity": 80,
                "duration": 0.1,
                "tempo": 120.0
            },
            {
                "start_time": 50.3068182,
                "end_time": 50.4068182,
                "pitch": 59,
                "velocity": 80,
                "duration": 0.1,
                "tempo": 120.0
            },
            {
                "start_time": 50.425,
                "end_time": 50.525,
                "pitch": 54,
                "velocity": 80,
                "duration": 0.1,
                "tempo": 120.0
            },
            {
                "start_time": 50.5409091,
                "end_time": 50.6386364,
                "pitch": 66,
                "velocity": 80,
                "duration": 0.0977273,
                "tempo": 120.0
            },
            {
                "start_time": 50.6545455,
                "end_time": 50.7545455,
                "pitch": 62,
                "velocity": 80,
                "duration": 0.1,
                "tempo": 120.0
            },
            {
                "start_time": 50.7704545,
                "end_time": 50.8522727,
                "pitch": 59,
                "velocity": 80,
                "duration": 0.0818182,
                "tempo": 120.0
            },
            {
                "start_time": 50.8840909,
                "end_time": 50.9340909,
                "pitch": 54,
                "velocity": 80,
                "duration": 0.05,
                "tempo": 120.0
            },
            {
                "start_time": 58.275,
                "end_time": 61.9272727,
                "pitch": 68,
                "velocity": 80,
                "duration": 3.6522727,
                "tempo": 120.0
            },
            {
                "start_time": 61.9454545,
                "end_time": 62.0272727,
                "pitch": 61,
                "velocity": 80,
                "duration": 0.0818182,
                "tempo": 120.0
            },
            {
                "start_time": 62.0613636,
                "end_time": 62.1454545,
                "pitch": 71,
                "velocity": 80,
                "duration": 0.0840909,
                "tempo": 120.0
            },
            {
                "start_time": 62.1613636,
                "end_time": 62.2613636,
                "pitch": 66,
                "velocity": 80,
                "duration": 0.1,
                "tempo": 120.0
            },
            {
                "start_time": 62.2795455,
                "end_time": 62.3795455,
                "pitch": 64,
                "velocity": 80,
                "duration": 0.1,
                "tempo": 120.0
            },
            {
                "start_time": 62.3954545,
                "end_time": 62.4954545,
                "pitch": 66,
                "velocity": 80,
                "duration": 0.1,
                "tempo": 120.0
            },
            {
                "start_time": 62.5136364,
                "end_time": 62.6136364,
                "pitch": 61,
                "velocity": 80,
                "duration": 0.1,
                "tempo": 120.0
            },
            {
                "start_time": 62.6295455,
                "end_time": 62.7295455,
                "pitch": 64,
                "velocity": 80,
                "duration": 0.1,
                "tempo": 120.0
            },
            {
                "start_time": 62.7477273,
                "end_time": 62.8318182,
                "pitch": 66,
                "velocity": 80,
                "duration": 0.0840909,
                "tempo": 120.0
            },
            {
                "start_time": 62.8636364,
                "end_time": 62.9477273,
                "pitch": 61,
                "velocity": 80,
                "duration": 0.0840909,
                "tempo": 120.0
            },
            {
                "start_time": 62.9636364,
                "end_time": 63.0659091,
                "pitch": 71,
                "velocity": 80,
                "duration": 0.1022727,
                "tempo": 120.0
            },
            {
                "start_time": 63.0818182,
                "end_time": 63.1818182,
                "pitch": 66,
                "velocity": 80,
                "duration": 0.1,
                "tempo": 120.0
            },
            {
                "start_time": 63.1977273,
                "end_time": 63.3,
                "pitch": 64,
                "velocity": 80,
                "duration": 0.1022727,
                "tempo": 120.0
            },
            {
                "start_time": 63.3159091,
                "end_time": 63.4136364,
                "pitch": 66,
                "velocity": 80,
                "duration": 0.0977273,
                "tempo": 120.0
            },
            {
                "start_time": 63.4295455,
                "end_time": 63.5295455,
                "pitch": 61,
                "velocity": 80,
                "duration": 0.1,
                "tempo": 120.0
            },
            {
                "start_time": 63.5454545,
                "end_time": 63.6272727,
                "pitch": 64,
                "velocity": 80,
                "duration": 0.0818182,
                "tempo": 120.0
            },
            {
                "start_time": 63.6590909,
                "end_time": 63.7409091,
                "pitch": 66,
                "velocity": 80,
                "duration": 0.0818182,
                "tempo": 120.0
            },
            {
                "start_time": 63.7568182,
                "end_time": 63.8545455,
                "pitch": 61,
                "velocity": 80,
                "duration": 0.0977273,
                "tempo": 120.0
            },
            {
                "start_time": 63.8727273,
                "end_time": 63.9704545,
                "pitch": 71,
                "velocity": 80,
                "duration": 0.0977273,
                "tempo": 120.0
            },
            {
                "start_time": 63.9863636,
                "end_time": 64.0840909,
                "pitch": 66,
                "velocity": 80,
                "duration": 0.0977273,
                "tempo": 120.0
            },
            {
                "start_time": 64.1,
                "end_time": 64.2,
                "pitch": 64,
                "velocity": 80,
                "duration": 0.1,
                "tempo": 120.0
            },
            {
                "start_time": 64.2159091,
                "end_time": 64.3159091,
                "pitch": 66,
                "velocity": 80,
                "duration": 0.1,
                "tempo": 120.0
            },
            {
                "start_time": 64.3318182,
                "end_time": 64.4159091,
                "pitch": 61,
                "velocity": 80,
                "duration": 0.0840909,
                "tempo": 120.0
            },
            {
                "start_time": 64.45,
                "end_time": 64.5340909,
                "pitch": 64,
                "velocity": 80,
                "duration": 0.0840909,
                "tempo": 120.0
            },
            {
                "start_time": 64.55,
                "end_time": 64.65,
                "pitch": 66,
                "velocity": 80,
                "duration": 0.1,
                "tempo": 120.0
            },
            {
                "start_time": 64.6659091,
                "end_time": 64.7681818,
                "pitch": 61,
                "velocity": 80,
                "duration": 0.1022727,
                "tempo": 120.0
            },
            {
                "start_time": 64.7840909,
                "end_time": 64.8840909,
                "pitch": 71,
                "velocity": 80,
                "duration": 0.1,
                "tempo": 120.0
            },
            {
                "start_time": 64.9022727,
                "end_time": 65.0022727,
                "pitch": 66,
                "velocity": 80,
                "duration": 0.1,
                "tempo": 120.0
            },
            {
                "start_time": 65.0181818,
                "end_time": 65.1181818,
                "pitch": 64,
                "velocity": 80,
                "duration": 0.1,
                "tempo": 120.0
            },
            {
                "start_time": 65.1363636,
                "end_time": 65.2181818,
                "pitch": 66,
                "velocity": 80,
                "duration": 0.0818182,
                "tempo": 120.0
            },
            {
                "start_time": 65.2522727,
                "end_time": 65.3363636,
                "pitch": 61,
                "velocity": 80,
                "duration": 0.0840909,
                "tempo": 120.0
            },
            {
                "start_time": 65.3522727,
                "end_time": 65.4522727,
                "pitch": 64,
                "velocity": 80,
                "duration": 0.1,
                "tempo": 120.0
            },
            {
                "start_time": 65.4704545,
                "end_time": 65.5704545,
                "pitch": 66,
                "velocity": 80,
                "duration": 0.1,
                "tempo": 120.0
            },
            {
                "start_time": 65.5863636,
                "end_time": 69.2045455,
                "pitch": 68,
                "velocity": 80,
                "duration": 3.6181818,
                "tempo": 120.0
            },
            {
                "start_time": 69.2363636,
                "end_time": 69.3204545,
                "pitch": 61,
                "velocity": 80,
                "duration": 0.0840909,
                "tempo": 120.0
            },
            {
                "start_time": 69.3363636,
                "end_time": 69.4363636,
                "pitch": 71,
                "velocity": 80,
                "duration": 0.1,
                "tempo": 120.0
            },
            {
                "start_time": 69.4545455,
                "end_time": 69.5545455,
                "pitch": 66,
                "velocity": 80,
                "duration": 0.1,
                "tempo": 120.0
            },
            {
                "start_time": 69.5704545,
                "end_time": 69.6704545,
                "pitch": 64,
                "velocity": 80,
                "duration": 0.1,
                "tempo": 120.0
            },
            {
                "start_time": 69.6886364,
                "end_time": 69.7886364,
                "pitch": 66,
                "velocity": 80,
                "duration": 0.1,
                "tempo": 120.0
            },
            {
                "start_time": 69.8045455,
                "end_time": 69.9045455,
                "pitch": 61,
                "velocity": 80,
                "duration": 0.1,
                "tempo": 120.0
            },
            {
                "start_time": 69.9227273,
                "end_time": 70.0068182,
                "pitch": 64,
                "velocity": 80,
                "duration": 0.0840909,
                "tempo": 120.0
            },
            {
                "start_time": 70.0386364,
                "end_time": 70.1227273,
                "pitch": 66,
                "velocity": 80,
                "duration": 0.0840909,
                "tempo": 120.0
            },
            {
                "start_time": 70.1409091,
                "end_time": 70.2386364,
                "pitch": 61,
                "velocity": 80,
                "duration": 0.0977273,
                "tempo": 120.0
            },
            {
                "start_time": 70.2545455,
                "end_time": 70.3522727,
                "pitch": 71,
                "velocity": 80,
                "duration": 0.0977273,
                "tempo": 120.0
            },
            {
                "start_time": 70.3681818,
                "end_time": 70.4659091,
                "pitch": 66,
                "velocity": 80,
                "duration": 0.0977273,
                "tempo": 120.0
            },
            {
                "start_time": 70.4840909,
                "end_time": 70.5818182,
                "pitch": 64,
                "velocity": 80,
                "duration": 0.0977273,
                "tempo": 120.0
            },
            {
                "start_time": 70.5977273,
                "end_time": 70.6977273,
                "pitch": 66,
                "velocity": 80,
                "duration": 0.1,
                "tempo": 120.0
            },
            {
                "start_time": 70.7159091,
                "end_time": 70.7977273,
                "pitch": 61,
                "velocity": 80,
                "duration": 0.0818182,
                "tempo": 120.0
            },
            {
                "start_time": 70.8318182,
                "end_time": 70.9159091,
                "pitch": 64,
                "velocity": 80,
                "duration": 0.0840909,
                "tempo": 120.0
            },
            {
                "start_time": 70.9318182,
                "end_time": 71.0318182,
                "pitch": 66,
                "velocity": 80,
                "duration": 0.1,
                "tempo": 120.0
            },
            {
                "start_time": 71.05,
                "end_time": 71.1477273,
                "pitch": 61,
                "velocity": 80,
                "duration": 0.0977273,
                "tempo": 120.0
            },
            {
                "start_time": 71.1636364,
                "end_time": 71.2613636,
                "pitch": 71,
                "velocity": 80,
                "duration": 0.0977273,
                "tempo": 120.0
            },
            {
                "start_time": 71.2772727,
                "end_time": 71.3772727,
                "pitch": 66,
                "velocity": 80,
                "duration": 0.1,
                "tempo": 120.0
            },
            {
                "start_time": 71.3931818,
                "end_time": 71.4909091,
                "pitch": 64,
                "velocity": 80,
                "duration": 0.0977273,
                "tempo": 120.0
            },
            {
                "start_time": 71.5068182,
                "end_time": 71.5931818,
                "pitch": 66,
                "velocity": 80,
                "duration": 0.0863636,
                "tempo": 120.0
            },
            {
                "start_time": 71.6272727,
                "end_time": 71.7136364,
                "pitch": 61,
                "velocity": 80,
                "duration": 0.0863636,
                "tempo": 120.0
            },
            {
                "start_time": 71.7295455,
                "end_time": 71.8318182,
                "pitch": 64,
                "velocity": 80,
                "duration": 0.1022727,
                "tempo": 120.0
            },
            {
                "start_time": 71.85,
                "end_time": 71.9522727,
                "pitch": 66,
                "velocity": 80,
                "duration": 0.1022727,
                "tempo": 120.0
            },
            {
                "start_time": 71.9704545,
                "end_time": 72.0704545,
                "pitch": 61,
                "velocity": 80,
                "duration": 0.1,
                "tempo": 120.0
            },
            {
                "start_time": 72.0863636,
                "end_time": 72.1863636,
                "pitch": 71,
                "velocity": 80,
                "duration": 0.1,
                "tempo": 120.0
            },
            {
                "start_time": 72.2045455,
                "end_time": 72.3045455,
                "pitch": 66,
                "velocity": 80,
                "duration": 0.1,
                "tempo": 120.0
            },
            {
                "start_time": 72.3204545,
                "end_time": 72.4045455,
                "pitch": 64,
                "velocity": 80,
                "duration": 0.0840909,
                "tempo": 120.0
            },
            {
                "start_time": 72.4386364,
                "end_time": 72.5227273,
                "pitch": 66,
                "velocity": 80,
                "duration": 0.0840909,
                "tempo": 120.0
            },
            {
                "start_time": 72.5386364,
                "end_time": 72.6386364,
                "pitch": 61,
                "velocity": 80,
                "duration": 0.1,
                "tempo": 120.0
            },
            {
                "start_time": 72.6545455,
                "end_time": 72.7568182,
                "pitch": 64,
                "velocity": 80,
                "duration": 0.1022727,
                "tempo": 120.0
            },
            {
                "start_time": 72.7727273,
                "end_time": 72.8727273,
                "pitch": 66,
                "velocity": 80,
                "duration": 0.1,
                "tempo": 120.0
            },
            {
                "start_time": 72.8886364,
                "end_time": 76.5068182,
                "pitch": 68,
                "velocity": 80,
                "duration": 3.6181818,
                "tempo": 120.0
            },
            {
                "start_time": 76.5227273,
                "end_time": 76.6181818,
                "pitch": 61,
                "velocity": 80,
                "duration": 0.0954545,
                "tempo": 120.0
            },
            {
                "start_time": 76.6340909,
                "end_time": 76.7295455,
                "pitch": 71,
                "velocity": 80,
                "duration": 0.0954545,
                "tempo": 120.0
            },
            {
                "start_time": 76.7454545,
                "end_time": 76.8409091,
                "pitch": 66,
                "velocity": 80,
                "duration": 0.0954545,
                "tempo": 120.0
            },
            {
                "start_time": 76.8568182,
                "end_time": 76.9545455,
                "pitch": 64,
                "velocity": 80,
                "duration": 0.0977273,
                "tempo": 120.0
            },
            {
                "start_time": 76.9704545,
                "end_time": 77.0727273,
                "pitch": 66,
                "velocity": 80,
                "duration": 0.1022727,
                "tempo": 120.0
            },
            {
                "start_time": 77.0886364,
                "end_time": 77.175,
                "pitch": 61,
                "velocity": 80,
                "duration": 0.0863636,
                "tempo": 120.0
            },
            {
                "start_time": 77.2090909,
                "end_time": 77.2954545,
                "pitch": 64,
                "velocity": 80,
                "duration": 0.0863636,
                "tempo": 120.0
            },
            {
                "start_time": 77.3113636,
                "end_time": 77.4159091,
                "pitch": 66,
                "velocity": 80,
                "duration": 0.1045455,
                "tempo": 120.0
            },
            {
                "start_time": 77.4318182,
                "end_time": 77.5295455,
                "pitch": 61,
                "velocity": 80,
                "duration": 0.0977273,
                "tempo": 120.0
            },
            {
                "start_time": 77.5454545,
                "end_time": 77.6454545,
                "pitch": 71,
                "velocity": 80,
                "duration": 0.1,
                "tempo": 120.0
            },
            {
                "start_time": 77.6613636,
                "end_time": 77.7590909,
                "pitch": 66,
                "velocity": 80,
                "duration": 0.0977273,
                "tempo": 120.0
            },
            {
                "start_time": 77.775,
                "end_time": 77.8727273,
                "pitch": 64,
                "velocity": 80,
                "duration": 0.0977273,
                "tempo": 120.0
            },
            {
                "start_time": 77.8909091,
                "end_time": 77.975,
                "pitch": 66,
                "velocity": 80,
                "duration": 0.0840909,
                "tempo": 120.0
            },
            {
                "start_time": 78.0090909,
                "end_time": 78.0954545,
                "pitch": 61,
                "velocity": 80,
                "duration": 0.0863636,
                "tempo": 120.0
            },
            {
                "start_time": 78.1113636,
                "end_time": 78.2159091,
                "pitch": 64,
                "velocity": 80,
                "duration": 0.1045455,
                "tempo": 120.0
            },
            {
                "start_time": 78.2318182,
                "end_time": 78.3340909,
                "pitch": 66,
                "velocity": 80,
                "duration": 0.1022727,
                "tempo": 120.0
            },
            {
                "start_time": 78.3522727,
                "end_time": 78.45,
                "pitch": 61,
                "velocity": 80,
                "duration": 0.0977273,
                "tempo": 120.0
            },
            {
                "start_time": 78.4659091,
                "end_time": 78.5636364,
                "pitch": 71,
                "velocity": 80,
                "duration": 0.0977273,
                "tempo": 120.0
            },
            {
                "start_time": 78.5818182,
                "end_time": 78.6795455,
                "pitch": 66,
                "velocity": 80,
                "duration": 0.0977273,
                "tempo": 120.0
            },
            {
                "start_time": 78.6954545,
                "end_time": 78.7772727,
                "pitch": 64,
                "velocity": 80,
                "duration": 0.0818182,
                "tempo": 120.0
            },
            {
                "start_time": 78.8090909,
                "end_time": 78.8954545,
                "pitch": 66,
                "velocity": 80,
                "duration": 0.0863636,
                "tempo": 120.0
            },
            {
                "start_time": 78.9113636,
                "end_time": 79.0159091,
                "pitch": 61,
                "velocity": 80,
                "duration": 0.1045455,
                "tempo": 120.0
            },
            {
                "start_time": 79.0318182,
                "end_time": 79.1340909,
                "pitch": 64,
                "velocity": 80,
                "duration": 0.1022727,
                "tempo": 120.0
            },
            {
                "start_time": 79.1522727,
                "end_time": 79.2545455,
                "pitch": 66,
                "velocity": 80,
                "duration": 0.1022727,
                "tempo": 120.0
            },
            {
                "start_time": 79.2727273,
                "end_time": 79.3704545,
                "pitch": 61,
                "velocity": 80,
                "duration": 0.0977273,
                "tempo": 120.0
            },
            {
                "start_time": 79.3863636,
                "end_time": 79.4840909,
                "pitch": 71,
                "velocity": 80,
                "duration": 0.0977273,
                "tempo": 120.0
            },
            {
                "start_time": 79.5022727,
                "end_time": 79.5840909,
                "pitch": 66,
                "velocity": 80,
                "duration": 0.0818182,
                "tempo": 120.0
            },
            {
                "start_time": 79.6159091,
                "end_time": 79.6977273,
                "pitch": 64,
                "velocity": 80,
                "duration": 0.0818182,
                "tempo": 120.0
            },
            {
                "start_time": 79.7136364,
                "end_time": 79.8113636,
                "pitch": 66,
                "velocity": 80,
                "duration": 0.0977273,
                "tempo": 120.0
            },
            {
                "start_time": 79.8272727,
                "end_time": 79.9272727,
                "pitch": 61,
                "velocity": 80,
                "duration": 0.1,
                "tempo": 120.0
            },
            {
                "start_time": 79.9431818,
                "end_time": 80.0409091,
                "pitch": 64,
                "velocity": 80,
                "duration": 0.0977273,
                "tempo": 120.0
            },
            {
                "start_time": 80.0568182,
                "end_time": 80.1545455,
                "pitch": 66,
                "velocity": 80,
                "duration": 0.0977273,
                "tempo": 120.0
            }
        ],
        "Vibraphone": [
            {
                "start_time": 0.0136364,
                "end_time": 0.0727273,
                "pitch": 45,
                "velocity": 80,
                "duration": 0.0590909,
                "tempo": 120.0
            },
            {
                "start_time": 0.3931818,
                "end_time": 0.4909091,
                "pitch": 47,
                "velocity": 80,
                "duration": 0.0977273,
                "tempo": 120.0
            },
            {
                "start_time": 0.8340909,
                "end_time": 0.9318182,
                "pitch": 45,
                "velocity": 80,
                "duration": 0.0977273,
                "tempo": 120.0
            },
            {
                "start_time": 1.2931818,
                "end_time": 1.3772727,
                "pitch": 47,
                "velocity": 80,
                "duration": 0.0840909,
                "tempo": 120.0
            },
            {
                "start_time": 1.7545455,
                "end_time": 1.8522727,
                "pitch": 45,
                "velocity": 80,
                "duration": 0.0977273,
                "tempo": 120.0
            },
            {
                "start_time": 2.2113636,
                "end_time": 2.2977273,
                "pitch": 47,
                "velocity": 80,
                "duration": 0.0863636,
                "tempo": 120.0
            },
            {
                "start_time": 2.675,
                "end_time": 2.7727273,
                "pitch": 45,
                "velocity": 80,
                "duration": 0.0977273,
                "tempo": 120.0
            },
            {
                "start_time": 3.1159091,
                "end_time": 3.2136364,
                "pitch": 47,
                "velocity": 80,
                "duration": 0.0977273,
                "tempo": 120.0
            },
            {
                "start_time": 3.5727273,
                "end_time": 3.675,
                "pitch": 45,
                "velocity": 80,
                "duration": 0.1022727,
                "tempo": 120.0
            },
            {
                "start_time": 4.025,
                "end_time": 4.1227273,
                "pitch": 47,
                "velocity": 80,
                "duration": 0.0977273,
                "tempo": 120.0
            },
            {
                "start_time": 4.4840909,
                "end_time": 4.5681818,
                "pitch": 45,
                "velocity": 80,
                "duration": 0.0840909,
                "tempo": 120.0
            },
            {
                "start_time": 4.9454545,
                "end_time": 5.0431818,
                "pitch": 47,
                "velocity": 80,
                "duration": 0.0977273,
                "tempo": 120.0
            },
            {
                "start_time": 5.4022727,
                "end_time": 5.4886364,
                "pitch": 45,
                "velocity": 80,
                "duration": 0.0863636,
                "tempo": 120.0
            },
            {
                "start_time": 5.8659091,
                "end_time": 5.9636364,
                "pitch": 47,
                "velocity": 80,
                "duration": 0.0977273,
                "tempo": 120.0
            },
            {
                "start_time": 6.3068182,
                "end_time": 6.4045455,
                "pitch": 45,
                "velocity": 80,
                "duration": 0.0977273,
                "tempo": 120.0
            },
            {
                "start_time": 6.7659091,
                "end_time": 6.8659091,
                "pitch": 47,
                "velocity": 80,
                "duration": 0.1,
                "tempo": 120.0
            },
            {
                "start_time": 7.2159091,
                "end_time": 7.3159091,
                "pitch": 45,
                "velocity": 80,
                "duration": 0.1,
                "tempo": 120.0
            },
            {
                "start_time": 7.6840909,
                "end_time": 7.7681818,
                "pitch": 47,
                "velocity": 80,
                "duration": 0.0840909,
                "tempo": 120.0
            },
            {
                "start_time": 8.1363636,
                "end_time": 8.2340909,
                "pitch": 45,
                "velocity": 80,
                "duration": 0.0977273,
                "tempo": 120.0
            },
            {
                "start_time": 8.5931818,
                "end_time": 8.6795455,
                "pitch": 47,
                "velocity": 80,
                "duration": 0.0863636,
                "tempo": 120.0
            },
            {
                "start_time": 9.0568182,
                "end_time": 9.1545455,
                "pitch": 45,
                "velocity": 80,
                "duration": 0.0977273,
                "tempo": 120.0
            },
            {
                "start_time": 9.4977273,
                "end_time": 9.5954545,
                "pitch": 47,
                "velocity": 80,
                "duration": 0.0977273,
                "tempo": 120.0
            },
            {
                "start_time": 9.9568182,
                "end_time": 10.0568182,
                "pitch": 45,
                "velocity": 80,
                "duration": 0.1,
                "tempo": 120.0
            },
            {
                "start_time": 10.4068182,
                "end_time": 10.5045455,
                "pitch": 47,
                "velocity": 80,
                "duration": 0.0977273,
                "tempo": 120.0
            },
            {
                "start_time": 10.8659091,
                "end_time": 10.95,
                "pitch": 45,
                "velocity": 80,
                "duration": 0.0840909,
                "tempo": 120.0
            },
            {
                "start_time": 11.3272727,
                "end_time": 11.425,
                "pitch": 47,
                "velocity": 80,
                "duration": 0.0977273,
                "tempo": 120.0
            },
            {
                "start_time": 11.7863636,
                "end_time": 11.8704545,
                "pitch": 45,
                "velocity": 80,
                "duration": 0.0840909,
                "tempo": 120.0
            },
            {
                "start_time": 12.2477273,
                "end_time": 12.3454545,
                "pitch": 47,
                "velocity": 80,
                "duration": 0.0977273,
                "tempo": 120.0
            },
            {
                "start_time": 12.6886364,
                "end_time": 12.7863636,
                "pitch": 45,
                "velocity": 80,
                "duration": 0.0977273,
                "tempo": 120.0
            },
            {
                "start_time": 13.1477273,
                "end_time": 13.2477273,
                "pitch": 47,
                "velocity": 80,
                "duration": 0.1,
                "tempo": 120.0
            },
            {
                "start_time": 13.5977273,
                "end_time": 13.6954545,
                "pitch": 45,
                "velocity": 80,
                "duration": 0.0977273,
                "tempo": 120.0
            },
            {
                "start_time": 14.0568182,
                "end_time": 14.1431818,
                "pitch": 47,
                "velocity": 80,
                "duration": 0.0863636,
                "tempo": 120.0
            },
            {
                "start_time": 14.5181818,
                "end_time": 14.6159091,
                "pitch": 45,
                "velocity": 80,
                "duration": 0.0977273,
                "tempo": 120.0
            },
            {
                "start_time": 14.9772727,
                "end_time": 15.0636364,
                "pitch": 47,
                "velocity": 80,
                "duration": 0.0863636,
                "tempo": 120.0
            },
            {
                "start_time": 15.45,
                "end_time": 15.5454545,
                "pitch": 45,
                "velocity": 80,
                "duration": 0.0954545,
                "tempo": 120.0
            },
            {
                "start_time": 15.8818182,
                "end_time": 15.9818182,
                "pitch": 47,
                "velocity": 80,
                "duration": 0.1,
                "tempo": 120.0
            },
            {
                "start_time": 16.3477273,
                "end_time": 16.45,
                "pitch": 45,
                "velocity": 80,
                "duration": 0.1022727,
                "tempo": 120.0
            },
            {
                "start_time": 16.8,
                "end_time": 16.8977273,
                "pitch": 47,
                "velocity": 80,
                "duration": 0.0977273,
                "tempo": 120.0
            },
            {
                "start_time": 17.2590909,
                "end_time": 17.3431818,
                "pitch": 45,
                "velocity": 80,
                "duration": 0.0840909,
                "tempo": 120.0
            },
            {
                "start_time": 17.7204545,
                "end_time": 17.8181818,
                "pitch": 47,
                "velocity": 80,
                "duration": 0.0977273,
                "tempo": 120.0
            },
            {
                "start_time": 18.1795455,
                "end_time": 18.2613636,
                "pitch": 45,
                "velocity": 80,
                "duration": 0.0818182,
                "tempo": 120.0
            },
            {
                "start_time": 18.6295455,
                "end_time": 18.7295455,
                "pitch": 47,
                "velocity": 80,
                "duration": 0.1,
                "tempo": 120.0
            },
            {
                "start_time": 19.0818182,
                "end_time": 19.1795455,
                "pitch": 45,
                "velocity": 80,
                "duration": 0.0977273,
                "tempo": 120.0
            },
            {
                "start_time": 19.5386364,
                "end_time": 19.6409091,
                "pitch": 47,
                "velocity": 80,
                "duration": 0.1022727,
                "tempo": 120.0
            },
            {
                "start_time": 19.9909091,
                "end_time": 20.0886364,
                "pitch": 45,
                "velocity": 80,
                "duration": 0.0977273,
                "tempo": 120.0
            },
            {
                "start_time": 20.45,
                "end_time": 20.5340909,
                "pitch": 47,
                "velocity": 80,
                "duration": 0.0840909,
                "tempo": 120.0
            },
            {
                "start_time": 20.9113636,
                "end_time": 21.0090909,
                "pitch": 45,
                "velocity": 80,
                "duration": 0.0977273,
                "tempo": 120.0
            },
            {
                "start_time": 21.3681818,
                "end_time": 21.4522727,
                "pitch": 47,
                "velocity": 80,
                "duration": 0.0840909,
                "tempo": 120.0
            },
            {
                "start_time": 21.8204545,
                "end_time": 21.9181818,
                "pitch": 45,
                "velocity": 80,
                "duration": 0.0977273,
                "tempo": 120.0
            },
            {
                "start_time": 22.2613636,
                "end_time": 22.3613636,
                "pitch": 47,
                "velocity": 80,
                "duration": 0.1,
                "tempo": 120.0
            },
            {
                "start_time": 22.7204545,
                "end_time": 22.8204545,
                "pitch": 45,
                "velocity": 80,
                "duration": 0.1,
                "tempo": 120.0
            },
            {
                "start_time": 23.1727273,
                "end_time": 23.2704545,
                "pitch": 47,
                "velocity": 80,
                "duration": 0.0977273,
                "tempo": 120.0
            },
            {
                "start_time": 23.6295455,
                "end_time": 23.7159091,
                "pitch": 45,
                "velocity": 80,
                "duration": 0.0863636,
                "tempo": 120.0
            },
            {
                "start_time": 24.0909091,
                "end_time": 24.1909091,
                "pitch": 47,
                "velocity": 80,
                "duration": 0.1,
                "tempo": 120.0
            },
            {
                "start_time": 24.55,
                "end_time": 24.6363636,
                "pitch": 45,
                "velocity": 80,
                "duration": 0.0863636,
                "tempo": 120.0
            },
            {
                "start_time": 25.0113636,
                "end_time": 25.1090909,
                "pitch": 47,
                "velocity": 80,
                "duration": 0.0977273,
                "tempo": 120.0
            },
            {
                "start_time": 25.4522727,
                "end_time": 25.5522727,
                "pitch": 45,
                "velocity": 80,
                "duration": 0.1,
                "tempo": 120.0
            },
            {
                "start_time": 25.9113636,
                "end_time": 26.0136364,
                "pitch": 47,
                "velocity": 80,
                "duration": 0.1022727,
                "tempo": 120.0
            },
            {
                "start_time": 26.3727273,
                "end_time": 26.4681818,
                "pitch": 45,
                "velocity": 80,
                "duration": 0.0954545,
                "tempo": 120.0
            },
            {
                "start_time": 26.8204545,
                "end_time": 26.9068182,
                "pitch": 47,
                "velocity": 80,
                "duration": 0.0863636,
                "tempo": 120.0
            },
            {
                "start_time": 27.2840909,
                "end_time": 27.3818182,
                "pitch": 45,
                "velocity": 80,
                "duration": 0.0977273,
                "tempo": 120.0
            },
            {
                "start_time": 27.7409091,
                "end_time": 27.8272727,
                "pitch": 47,
                "velocity": 80,
                "duration": 0.0863636,
                "tempo": 120.0
            },
            {
                "start_time": 28.2022727,
                "end_time": 28.3022727,
                "pitch": 45,
                "velocity": 80,
                "duration": 0.1,
                "tempo": 120.0
            },
            {
                "start_time": 28.6454545,
                "end_time": 28.7431818,
                "pitch": 47,
                "velocity": 80,
                "duration": 0.0977273,
                "tempo": 120.0
            },
            {
                "start_time": 29.1022727,
                "end_time": 29.2022727,
                "pitch": 45,
                "velocity": 80,
                "duration": 0.1,
                "tempo": 120.0
            },
            {
                "start_time": 29.5545455,
                "end_time": 29.6522727,
                "pitch": 47,
                "velocity": 80,
                "duration": 0.0977273,
                "tempo": 120.0
            },
            {
                "start_time": 30.0113636,
                "end_time": 30.0977273,
                "pitch": 45,
                "velocity": 80,
                "duration": 0.0863636,
                "tempo": 120.0
            },
            {
                "start_time": 30.475,
                "end_time": 30.5727273,
                "pitch": 47,
                "velocity": 80,
                "duration": 0.0977273,
                "tempo": 120.0
            },
            {
                "start_time": 30.9318182,
                "end_time": 31.0181818,
                "pitch": 45,
                "velocity": 80,
                "duration": 0.0863636,
                "tempo": 120.0
            },
            {
                "start_time": 31.3931818,
                "end_time": 31.4931818,
                "pitch": 47,
                "velocity": 80,
                "duration": 0.1,
                "tempo": 120.0
            },
            {
                "start_time": 31.8363636,
                "end_time": 31.9340909,
                "pitch": 45,
                "velocity": 80,
                "duration": 0.0977273,
                "tempo": 120.0
            },
            {
                "start_time": 32.2931818,
                "end_time": 32.3931818,
                "pitch": 47,
                "velocity": 80,
                "duration": 0.1,
                "tempo": 120.0
            },
            {
                "start_time": 32.7454545,
                "end_time": 32.8431818,
                "pitch": 45,
                "velocity": 80,
                "duration": 0.0977273,
                "tempo": 120.0
            },
            {
                "start_time": 33.2022727,
                "end_time": 33.2886364,
                "pitch": 47,
                "velocity": 80,
                "duration": 0.0863636,
                "tempo": 120.0
            },
            {
                "start_time": 33.6659091,
                "end_time": 33.7636364,
                "pitch": 45,
                "velocity": 80,
                "duration": 0.0977273,
                "tempo": 120.0
            },
            {
                "start_time": 34.1227273,
                "end_time": 34.2090909,
                "pitch": 47,
                "velocity": 80,
                "duration": 0.0863636,
                "tempo": 120.0
            },
            {
                "start_time": 34.5863636,
                "end_time": 34.6840909,
                "pitch": 45,
                "velocity": 80,
                "duration": 0.0977273,
                "tempo": 120.0
            },
            {
                "start_time": 35.0272727,
                "end_time": 35.125,
                "pitch": 47,
                "velocity": 80,
                "duration": 0.0977273,
                "tempo": 120.0
            },
            {
                "start_time": 35.4840909,
                "end_time": 35.5840909,
                "pitch": 45,
                "velocity": 80,
                "duration": 0.1,
                "tempo": 120.0
            },
            {
                "start_time": 35.9363636,
                "end_time": 36.0340909,
                "pitch": 47,
                "velocity": 80,
                "duration": 0.0977273,
                "tempo": 120.0
            },
            {
                "start_time": 36.3931818,
                "end_time": 36.4795455,
                "pitch": 45,
                "velocity": 80,
                "duration": 0.0863636,
                "tempo": 120.0
            },
            {
                "start_time": 36.8568182,
                "end_time": 36.9568182,
                "pitch": 47,
                "velocity": 80,
                "duration": 0.1,
                "tempo": 120.0
            },
            {
                "start_time": 37.325,
                "end_time": 37.4090909,
                "pitch": 45,
                "velocity": 80,
                "duration": 0.0840909,
                "tempo": 120.0
            },
            {
                "start_time": 37.7772727,
                "end_time": 37.875,
                "pitch": 47,
                "velocity": 80,
                "duration": 0.0977273,
                "tempo": 120.0
            },
            {
                "start_time": 38.2181818,
                "end_time": 38.3159091,
                "pitch": 45,
                "velocity": 80,
                "duration": 0.0977273,
                "tempo": 120.0
            },
            {
                "start_time": 38.675,
                "end_time": 38.7795455,
                "pitch": 47,
                "velocity": 80,
                "duration": 0.1045455,
                "tempo": 120.0
            },
            {
                "start_time": 39.1363636,
                "end_time": 39.2340909,
                "pitch": 45,
                "velocity": 80,
                "duration": 0.0977273,
                "tempo": 120.0
            },
            {
                "start_time": 39.5863636,
                "end_time": 39.6704545,
                "pitch": 47,
                "velocity": 80,
                "duration": 0.0840909,
                "tempo": 120.0
            },
            {
                "start_time": 40.0477273,
                "end_time": 40.1454545,
                "pitch": 45,
                "velocity": 80,
                "duration": 0.0977273,
                "tempo": 120.0
            },
            {
                "start_time": 40.5045455,
                "end_time": 40.5909091,
                "pitch": 47,
                "velocity": 80,
                "duration": 0.0863636,
                "tempo": 120.0
            },
            {
                "start_time": 40.9681818,
                "end_time": 41.0659091,
                "pitch": 45,
                "velocity": 80,
                "duration": 0.0977273,
                "tempo": 120.0
            },
            {
                "start_time": 41.4090909,
                "end_time": 41.5068182,
                "pitch": 47,
                "velocity": 80,
                "duration": 0.0977273,
                "tempo": 120.0
            },
            {
                "start_time": 41.8681818,
                "end_time": 41.9681818,
                "pitch": 45,
                "velocity": 80,
                "duration": 0.1,
                "tempo": 120.0
            },
            {
                "start_time": 42.3181818,
                "end_time": 42.4159091,
                "pitch": 47,
                "velocity": 80,
                "duration": 0.0977273,
                "tempo": 120.0
            },
            {
                "start_time": 42.7772727,
                "end_time": 42.8613636,
                "pitch": 45,
                "velocity": 80,
                "duration": 0.0840909,
                "tempo": 120.0
            },
            {
                "start_time": 43.2386364,
                "end_time": 43.3363636,
                "pitch": 47,
                "velocity": 80,
                "duration": 0.0977273,
                "tempo": 120.0
            },
            {
                "start_time": 43.6977273,
                "end_time": 43.7818182,
                "pitch": 45,
                "velocity": 80,
                "duration": 0.0840909,
                "tempo": 120.0
            },
            {
                "start_time": 44.1590909,
                "end_time": 44.2590909,
                "pitch": 47,
                "velocity": 80,
                "duration": 0.1,
                "tempo": 120.0
            },
            {
                "start_time": 44.6113636,
                "end_time": 44.7068182,
                "pitch": 45,
                "velocity": 80,
                "duration": 0.0954545,
                "tempo": 120.0
            },
            {
                "start_time": 45.0590909,
                "end_time": 45.1613636,
                "pitch": 47,
                "velocity": 80,
                "duration": 0.1022727,
                "tempo": 120.0
            },
            {
                "start_time": 45.5204545,
                "end_time": 45.6181818,
                "pitch": 45,
                "velocity": 80,
                "duration": 0.0977273,
                "tempo": 120.0
            },
            {
                "start_time": 45.9795455,
                "end_time": 46.0636364,
                "pitch": 47,
                "velocity": 80,
                "duration": 0.0840909,
                "tempo": 120.0
            },
            {
                "start_time": 46.4409091,
                "end_time": 46.5386364,
                "pitch": 45,
                "velocity": 80,
                "duration": 0.0977273,
                "tempo": 120.0
            },
            {
                "start_time": 46.8977273,
                "end_time": 46.9818182,
                "pitch": 47,
                "velocity": 80,
                "duration": 0.0840909,
                "tempo": 120.0
            },
            {
                "start_time": 47.35,
                "end_time": 47.4477273,
                "pitch": 45,
                "velocity": 80,
                "duration": 0.0977273,
                "tempo": 120.0
            },
            {
                "start_time": 47.7909091,
                "end_time": 47.8909091,
                "pitch": 47,
                "velocity": 80,
                "duration": 0.1,
                "tempo": 120.0
            },
            {
                "start_time": 48.2590909,
                "end_time": 48.3613636,
                "pitch": 45,
                "velocity": 80,
                "duration": 0.1022727,
                "tempo": 120.0
            },
            {
                "start_time": 48.7113636,
                "end_time": 48.8090909,
                "pitch": 47,
                "velocity": 80,
                "duration": 0.0977273,
                "tempo": 120.0
            },
            {
                "start_time": 49.1704545,
                "end_time": 49.2545455,
                "pitch": 45,
                "velocity": 80,
                "duration": 0.0840909,
                "tempo": 120.0
            },
            {
                "start_time": 49.6318182,
                "end_time": 49.7295455,
                "pitch": 47,
                "velocity": 80,
                "duration": 0.0977273,
                "tempo": 120.0
            },
            {
                "start_time": 50.0886364,
                "end_time": 50.1727273,
                "pitch": 45,
                "velocity": 80,
                "duration": 0.0840909,
                "tempo": 120.0
            },
            {
                "start_time": 50.5409091,
                "end_time": 50.6386364,
                "pitch": 47,
                "velocity": 80,
                "duration": 0.0977273,
                "tempo": 120.0
            },
            {
                "start_time": 50.9818182,
                "end_time": 51.0795455,
                "pitch": 45,
                "velocity": 80,
                "duration": 0.0977273,
                "tempo": 120.0
            },
            {
                "start_time": 51.4409091,
                "end_time": 51.5431818,
                "pitch": 47,
                "velocity": 80,
                "duration": 0.1022727,
                "tempo": 120.0
            },
            {
                "start_time": 51.9022727,
                "end_time": 51.9977273,
                "pitch": 45,
                "velocity": 80,
                "duration": 0.0954545,
                "tempo": 120.0
            },
            {
                "start_time": 52.35,
                "end_time": 52.4363636,
                "pitch": 47,
                "velocity": 80,
                "duration": 0.0863636,
                "tempo": 120.0
            },
            {
                "start_time": 52.8113636,
                "end_time": 52.9090909,
                "pitch": 45,
                "velocity": 80,
                "duration": 0.0977273,
                "tempo": 120.0
            },
            {
                "start_time": 53.2704545,
                "end_time": 53.3545455,
                "pitch": 47,
                "velocity": 80,
                "duration": 0.0840909,
                "tempo": 120.0
            },
            {
                "start_time": 53.7318182,
                "end_time": 53.8295455,
                "pitch": 45,
                "velocity": 80,
                "duration": 0.0977273,
                "tempo": 120.0
            },
            {
                "start_time": 54.1727273,
                "end_time": 54.2727273,
                "pitch": 47,
                "velocity": 80,
                "duration": 0.1,
                "tempo": 120.0
            },
            {
                "start_time": 54.6318182,
                "end_time": 54.7318182,
                "pitch": 45,
                "velocity": 80,
                "duration": 0.1,
                "tempo": 120.0
            },
            {
                "start_time": 55.0840909,
                "end_time": 55.1840909,
                "pitch": 47,
                "velocity": 80,
                "duration": 0.1,
                "tempo": 120.0
            },
            {
                "start_time": 55.5522727,
                "end_time": 55.6363636,
                "pitch": 45,
                "velocity": 80,
                "duration": 0.0840909,
                "tempo": 120.0
            },
            {
                "start_time": 56.0022727,
                "end_time": 56.1022727,
                "pitch": 47,
                "velocity": 80,
                "duration": 0.1,
                "tempo": 120.0
            },
            {
                "start_time": 56.4613636,
                "end_time": 56.5477273,
                "pitch": 45,
                "velocity": 80,
                "duration": 0.0863636,
                "tempo": 120.0
            },
            {
                "start_time": 56.9227273,
                "end_time": 57.0204545,
                "pitch": 47,
                "velocity": 80,
                "duration": 0.0977273,
                "tempo": 120.0
            },
            {
                "start_time": 57.3636364,
                "end_time": 57.4636364,
                "pitch": 45,
                "velocity": 80,
                "duration": 0.1,
                "tempo": 120.0
            },
            {
                "start_time": 57.8227273,
                "end_time": 57.9227273,
                "pitch": 47,
                "velocity": 80,
                "duration": 0.1,
                "tempo": 120.0
            },
            {
                "start_time": 58.275,
                "end_time": 61.0068182,
                "pitch": 44,
                "velocity": 80,
                "duration": 2.7318182,
                "tempo": 120.0
            },
            {
                "start_time": 61.025,
                "end_time": 61.2295455,
                "pitch": 42,
                "velocity": 80,
                "duration": 0.2045455,
                "tempo": 120.0
            },
            {
                "start_time": 61.2636364,
                "end_time": 61.4681818,
                "pitch": 44,
                "velocity": 80,
                "duration": 0.2045455,
                "tempo": 120.0
            },
            {
                "start_time": 61.4863636,
                "end_time": 61.7,
                "pitch": 47,
                "velocity": 80,
                "duration": 0.2136364,
                "tempo": 120.0
            },
            {
                "start_time": 61.7159091,
                "end_time": 61.9272727,
                "pitch": 46,
                "velocity": 80,
                "duration": 0.2113636,
                "tempo": 120.0
            },
            {
                "start_time": 61.9454545,
                "end_time": 64.65,
                "pitch": 45,
                "velocity": 80,
                "duration": 2.7045455,
                "tempo": 120.0
            },
            {
                "start_time": 64.6659091,
                "end_time": 64.8840909,
                "pitch": 49,
                "velocity": 80,
                "duration": 0.2181818,
                "tempo": 120.0
            },
            {
                "start_time": 64.9022727,
                "end_time": 65.1181818,
                "pitch": 48,
                "velocity": 80,
                "duration": 0.2159091,
                "tempo": 120.0
            },
            {
                "start_time": 65.1363636,
                "end_time": 65.3363636,
                "pitch": 47,
                "velocity": 80,
                "duration": 0.2,
                "tempo": 120.0
            },
            {
                "start_time": 65.3522727,
                "end_time": 65.5704545,
                "pitch": 42,
                "velocity": 80,
                "duration": 0.2181818,
                "tempo": 120.0
            },
            {
                "start_time": 65.5863636,
                "end_time": 68.3,
                "pitch": 44,
                "velocity": 80,
                "duration": 2.7136364,
                "tempo": 120.0
            },
            {
                "start_time": 68.3159091,
                "end_time": 68.525,
                "pitch": 42,
                "velocity": 80,
                "duration": 0.2090909,
                "tempo": 120.0
            },
            {
                "start_time": 68.5431818,
                "end_time": 68.7704545,
                "pitch": 44,
                "velocity": 80,
                "duration": 0.2272727,
                "tempo": 120.0
            },
            {
                "start_time": 68.7886364,
                "end_time": 68.9954545,
                "pitch": 47,
                "velocity": 80,
                "duration": 0.2068182,
                "tempo": 120.0
            },
            {
                "start_time": 69.0136364,
                "end_time": 69.2045455,
                "pitch": 46,
                "velocity": 80,
                "duration": 0.1909091,
                "tempo": 120.0
            },
            {
                "start_time": 69.2363636,
                "end_time": 71.9522727,
                "pitch": 45,
                "velocity": 80,
                "duration": 2.7159091,
                "tempo": 120.0
            },
            {
                "start_time": 71.9704545,
                "end_time": 72.1863636,
                "pitch": 49,
                "velocity": 80,
                "duration": 0.2159091,
                "tempo": 120.0
            },
            {
                "start_time": 72.2045455,
                "end_time": 72.4045455,
                "pitch": 48,
                "velocity": 80,
                "duration": 0.2,
                "tempo": 120.0
            },
            {
                "start_time": 72.4386364,
                "end_time": 72.6386364,
                "pitch": 47,
                "velocity": 80,
                "duration": 0.2,
                "tempo": 120.0
            },
            {
                "start_time": 72.6545455,
                "end_time": 72.8727273,
                "pitch": 42,
                "velocity": 80,
                "duration": 0.2181818,
                "tempo": 120.0
            },
            {
                "start_time": 72.8886364,
                "end_time": 75.5863636,
                "pitch": 44,
                "velocity": 80,
                "duration": 2.6977273,
                "tempo": 120.0
            },
            {
                "start_time": 75.6181818,
                "end_time": 75.8227273,
                "pitch": 42,
                "velocity": 80,
                "duration": 0.2045455,
                "tempo": 120.0
            },
            {
                "start_time": 75.8409091,
                "end_time": 76.0636364,
                "pitch": 44,
                "velocity": 80,
                "duration": 0.2227273,
                "tempo": 120.0
            },
            {
                "start_time": 76.0795455,
                "end_time": 76.2931818,
                "pitch": 47,
                "velocity": 80,
                "duration": 0.2136364,
                "tempo": 120.0
            },
            {
                "start_time": 76.3090909,
                "end_time": 76.5068182,
                "pitch": 46,
                "velocity": 80,
                "duration": 0.1977273,
                "tempo": 120.0
            },
            {
                "start_time": 76.5227273,
                "end_time": 79.2545455,
                "pitch": 45,
                "velocity": 80,
                "duration": 2.7318182,
                "tempo": 120.0
            },
            {
                "start_time": 79.2727273,
                "end_time": 79.4840909,
                "pitch": 49,
                "velocity": 80,
                "duration": 0.2113636,
                "tempo": 120.0
            },
            {
                "start_time": 79.5022727,
                "end_time": 79.6977273,
                "pitch": 48,
                "velocity": 80,
                "duration": 0.1954545,
                "tempo": 120.0
            },
            {
                "start_time": 79.7136364,
                "end_time": 79.9272727,
                "pitch": 47,
                "velocity": 80,
                "duration": 0.2136364,
                "tempo": 120.0
            },
            {
                "start_time": 79.9431818,
                "end_time": 80.1545455,
                "pitch": 42,
                "velocity": 80,
                "duration": 0.2113636,
                "tempo": 120.0
            },
            {
                "start_time": 80.1704545,
                "end_time": 80.2727273,
                "pitch": 45,
                "velocity": 80,
                "duration": 0.1022727,
                "tempo": 120.0
            },
            {
                "start_time": 80.6318182,
                "end_time": 80.7272727,
                "pitch": 47,
                "velocity": 80,
                "duration": 0.0954545,
                "tempo": 120.0
            },
            {
                "start_time": 81.0704545,
                "end_time": 81.1568182,
                "pitch": 45,
                "velocity": 80,
                "duration": 0.0863636,
                "tempo": 120.0
            },
            {
                "start_time": 81.5340909,
                "end_time": 81.6318182,
                "pitch": 47,
                "velocity": 80,
                "duration": 0.0977273,
                "tempo": 120.0
            },
            {
                "start_time": 81.9909091,
                "end_time": 82.0772727,
                "pitch": 45,
                "velocity": 80,
                "duration": 0.0863636,
                "tempo": 120.0
            },
            {
                "start_time": 82.4522727,
                "end_time": 82.5522727,
                "pitch": 47,
                "velocity": 80,
                "duration": 0.1,
                "tempo": 120.0
            }
        ]
    }
}