{
    "mood": "sad",
    "instruments": {
        "Acoustic Grand Piano": [
            {
                "start_time": 0.0659091,
                "end_time": 0.2931818,
                "pitch": 64,
                "velocity": 25,
                "duration": 0.2272727,
                "tempo": 120.0
            },
            {
                "start_time": 0.3272727,
                "end_time": 0.425,
                "pitch": 60,
                "velocity": 25,
                "duration": 0.0977273,
                "tempo": 120.0
            },
            {
                "start_time": 0.4568182,
                "end_time": 0.6863636,
                "pitch": 65,
                "velocity": 25,
                "duration": 0.2295455,
                "tempo": 120.0
            },
            {
                "start_time": 0.7181818,
                "end_time": 0.8181818,
                "pitch": 62,
                "velocity": 25,
                "duration": 0.1,
                "tempo": 120.0
            },
            {
                "start_time": 0.8522727,
                "end_time": 1.0840909,
                "pitch": 67,
                "velocity": 25,
                "duration": 0.2318182,
                "tempo": 120.0
            },
            {
                "start_time": 1.1181818,
                "end_time": 1.2181818,
                "pitch": 64,
                "velocity": 25,
                "duration": 0.1,
                "tempo": 120.0
            },
            {
                "start_time": 1.2522727,
                "end_time": 1.4931818,
                "pitch": 69,
                "velocity": 25,
                "duration": 0.2409091,
                "tempo": 120.0
            },
            {
                "start_time": 1.5272727,
                "end_time": 1.6272727,
                "pitch": 65,
                "velocity": 25,
                "duration": 0.1,
                "tempo": 120.0
            },
            {
                "start_time": 1.6613636,
                "end_time": 2.6136364,
                "pitch": 71,
                "velocity": 25,
                "duration": 0.9522727,
                "tempo": 120.0
            },
            {
                "start_time": 2.6454545,
                "end_time": 2.8136364,
                "pitch": 67,
                "velocity": 25,
                "duration": 0.1681818,
                "tempo": 120.0
            },
            {
                "start_time": 2.8454545,
                "end_time": 3.0136364,
                "pitch": 69,
                "velocity": 25,
                "duration": 0.1681818,
                "tempo": 120.0
            },
            {
                "start_time": 3.0454545,
                "end_time": 3.2136364,
                "pitch": 71,
                "velocity": 25,
                "duration": 0.1681818,
                "tempo": 120.0
            },
            {
                "start_time": 3.2477273,
                "end_time": 4.425,
                "pitch": 60,
                "velocity": 25,
                "duration": 1.1772727,
                "tempo": 120.0
            }
        ],
        "Acoustic Bass": [
            {
                "start_time": 0.2613636,
                "end_time": 0.3590909,
                "pitch": 36,
                "velocity": 64,
                "duration": 0.0977273,
                "tempo": 120.0
            },
            {
                "start_time": 0.3931818,
                "end_time": 0.6204545,
                "pitch": 38,
                "velocity": 64,
                "duration": 0.2272727,
                "tempo": 120.0
            },
            {
                "start_time": 0.6545455,
                "end_time": 0.7522727,
                "pitch": 38,
                "velocity": 64,
                "duration": 0.0977273,
                "tempo": 120.0
            },
            {
                "start_time": 0.7840909,
                "end_time": 1.0181818,
                "pitch": 40,
                "velocity": 64,
                "duration": 0.2340909,
                "tempo": 120.0
            },
            {
                "start_time": 1.0522727,
                "end_time": 1.1522727,
                "pitch": 40,
                "velocity": 64,
                "duration": 0.1,
                "tempo": 120.0
            },
            {
                "start_time": 1.1840909,
                "end_time": 1.425,
                "pitch": 41,
                "velocity": 64,
                "duration": 0.2409091,
                "tempo": 120.0
            },
            {
                "start_time": 1.4590909,
                "end_time": 1.5613636,
                "pitch": 41,
                "velocity": 64,
                "duration": 0.1022727,
                "tempo": 120.0
            },
            {
                "start_time": 1.5954545,
                "end_time": 2.5454545,
                "pitch": 43,
                "velocity": 64,
                "duration": 0.95,
                "tempo": 120.0
            },
            {
                "start_time": 2.5795455,
                "end_time": 2.7454545,
                "pitch": 43,
                "velocity": 64,
                "duration": 0.1659091,
                "tempo": 120.0
            },
            {
                "start_time": 2.7795455,
                "end_time": 2.9454545,
                "pitch": 43,
                "velocity": 64,
                "duration": 0.1659091,
                "tempo": 120.0
            },
            {
                "start_time": 2.9795455,
                "end_time": 3.1454545,
                "pitch": 43,
                "velocity": 64,
                "duration": 0.1659091,
                "tempo": 120.0
            },
            {
                "start_time": 3.1795455,
                "end_time": 4.3636364,
                "pitch": 36,
                "velocity": 64,
                "duration": 1.1840909,
                "tempo": 120.0
            }
        ],
        "Trumpet": [
            {
                "start_time": 0.2613636,
                "end_time": 0.3590909,
                "pitch": 65,
                "velocity": 80,
                "duration": 0.0977273,
                "tempo": 120.0
            },
            {
                "start_time": 0.3931818,
                "end_time": 0.6204545,
                "pitch": 70,
                "velocity": 80,
                "duration": 0.2272727,
                "tempo": 120.0
            },
            {
                "start_time": 0.6545455,
                "end_time": 0.7522727,
                "pitch": 67,
                "velocity": 80,
                "duration": 0.0977273,
                "tempo": 120.0
            },
            {
                "start_time": 0.7840909,
                "end_time": 1.0181818,
                "pitch": 72,
                "velocity": 80,
                "duration": 0.2340909,
                "tempo": 120.0
            },
            {
                "start_time": 1.0522727,
                "end_time": 1.1522727,
                "pitch": 69,
                "velocity": 80,
                "duration": 0.1,
                "tempo": 120.0
            },
            {
                "start_time": 1.1840909,
                "end_time": 1.425,
                "pitch": 74,
                "velocity": 80,
                "duration": 0.2409091,
                "tempo": 120.0
            },
            {
                "start_time": 1.4590909,
                "end_time": 1.5613636,
                "pitch": 70,
                "velocity": 80,
                "duration": 0.1022727,
                "tempo": 120.0
            },
            {
                "start_time": 1.5954545,
                "end_time": 2.5454545,
                "pitch": 76,
                "velocity": 80,
                "duration": 0.95,
                "tempo": 120.0
            },
            {
                "start_time": 2.5795455,
                "end_time": 2.7454545,
                "pitch": 72,
                "velocity": 80,
                "duration": 0.1659091,
                "tempo": 120.0
            },
            {
                "start_time": 2.7795455,
                "end_time": 2.9454545,
                "pitch": 74,
                "velocity": 80,
                "duration": 0.1659091,
                "tempo": 120.0
            },
            {
                "start_time": 2.9795455,
                "end_time": 3.1454545,
                "pitch": 76,
                "velocity": 80,
                "duration": 0.1659091,
                "tempo": 120.0
            },
            {
                "start_time": 3.1795455,
                "end_time": 4.3636364,
                "pitch": 65,
                "velocity": 80,
                "duration": 1.1840909,
                "tempo": 120.0
            }
        ]
    }
}