{
    "mood": "sad",
    "instruments": {
        "Harpsichord": [
            {
                "start_time": 0.0318182,
                "end_time": 0.1477273,
                "pitch": 70,
                "velocity": 80,
                "duration": 0.1159091,
                "tempo": 120.0
            },
            {
                "start_time": 0.1477273,
                "end_time": 0.2477273,
                "pitch": 73,
                "velocity": 80,
                "duration": 0.1,
                "tempo": 120.0
            },
            {
                "start_time": 0.2477273,
                "end_time": 0.3659091,
                "pitch": 76,
                "velocity": 80,
                "duration": 0.1181818,
                "tempo": 120.0
            },
            {
                "start_time": 0.3659091,
                "end_time": 0.4659091,
                "pitch": 76,
                "velocity": 80,
                "duration": 0.1,
                "tempo": 120.0
            },
            {
                "start_time": 0.4659091,
                "end_time": 0.5863636,
                "pitch": 70,
                "velocity": 64,
                "duration": 0.1204545,
                "tempo": 120.0
            },
            {
                "start_time": 0.5863636,
                "end_time": 0.6886364,
                "pitch": 73,
                "velocity": 64,
                "duration": 0.1022727,
                "tempo": 120.0
            },
            {
                "start_time": 0.6886364,
                "end_time": 0.8090909,
                "pitch": 76,
                "velocity": 64,
                "duration": 0.1204545,
                "tempo": 120.0
            },
            {
                "start_time": 0.8090909,
                "end_time": 0.9113636,
                "pitch": 76,
                "velocity": 64,
                "duration": 0.1022727,
                "tempo": 120.0
            },
            {
                "start_time": 0.9113636,
                "end_time": 1.0272727,
                "pitch": 70,
                "velocity": 51,
                "duration": 0.1159091,
                "tempo": 120.0
            },
            {
                "start_time": 1.0272727,
                "end_time": 1.1295455,
                "pitch": 73,
                "velocity": 51,
                "duration": 0.1022727,
                "tempo": 120.0
            },
            {
                "start_time": 1.1295455,
                "end_time": 1.2295455,
                "pitch": 76,
                "velocity": 51,
                "duration": 0.1,
                "tempo": 120.0
            },
            {
                "start_time": 1.2295455,
                "end_time": 1.3454545,
                "pitch": 76,
                "velocity": 51,
                "duration": 0.1159091,
                "tempo": 120.0
            },
            {
                "start_time": 1.3454545,
                "end_time": 1.4454545,
                "pitch": 70,
                "velocity": 40,
                "duration": 0.1,
                "tempo": 120.0
            },
            {
                "start_time": 1.4454545,
                "end_time": 1.5636364,
                "pitch": 73,
                "velocity": 40,
                "duration": 0.1181818,
                "tempo": 120.0
            },
            {
                "start_time": 1.5636364,
                "end_time": 1.6636364,
                "pitch": 76,
                "velocity": 40,
                "duration": 0.1,
                "tempo": 120.0
            },
            {
                "start_time": 1.6636364,
                "end_time": 1.7818182,
                "pitch": 76,
                "velocity": 40,
                "duration": 0.1181818,
                "tempo": 120.0
            },
            {
                "start_time": 1.7818182,
                "end_time": 1.8840909,
                "pitch": 70,
                "velocity": 32,
                "duration": 0.1022727,
                "tempo": 120.0
            },
            {
                "start_time": 1.8840909,
                "end_time": 2.0022727,
                "pitch": 73,
                "velocity": 32,
                "duration": 0.1181818,
                "tempo": 120.0
            },
            {
                "start_time": 2.0022727,
                "end_time": 2.1068182,
                "pitch": 76,
                "velocity": 32,
                "duration": 0.1045455,
                "tempo": 120.0
            },
            {
                "start_time": 2.1068182,
                "end_time": 2.225,
                "pitch": 76,
                "velocity": 32,
                "duration": 0.1181818,
                "tempo": 120.0
            },
            {
                "start_time": 2.225,
                "end_time": 2.2431818,
                "pitch": 77,
                "velocity": 25,
                "duration": 0.0181818,
                "tempo": 120.0
            },
            {
                "start_time": 2.2431818,
                "end_time": 2.3295455,
                "pitch": 70,
                "velocity": 25,
                "duration": 0.0863636,
                "tempo": 120.0
            },
            {
                "start_time": 2.3295455,
                "end_time": 2.4340909,
                "pitch": 73,
                "velocity": 25,
                "duration": 0.1045455,
                "tempo": 120.0
            },
            {
                "start_time": 2.4340909,
                "end_time": 2.5568182,
                "pitch": 76,
                "velocity": 25,
                "duration": 0.1227273,
                "tempo": 120.0
            },
            {
                "start_time": 2.5568182,
                "end_time": 2.6795455,
                "pitch": 76,
                "velocity": 25,
                "duration": 0.1227273,
                "tempo": 120.0
            },
            {
                "start_time": 2.6795455,
                "end_time": 2.775,
                "pitch": 70,
                "velocity": 20,
                "duration": 0.0954545,
                "tempo": 120.0
            },
            {
                "start_time": 2.775,
                "end_time": 2.8704545,
                "pitch": 73,
                "velocity": 20,
                "duration": 0.0954545,
                "tempo": 120.0
            },
            {
                "start_time": 2.8704545,
                "end_time": 2.9818182,
                "pitch": 76,
                "velocity": 20,
                "duration": 0.1113636,
                "tempo": 120.0
            },
            {
                "start_time": 2.9818182,
                "end_time": 3.0772727,
                "pitch": 76,
                "velocity": 20,
                "duration": 0.0954545,
                "tempo": 120.0
            },
            {
                "start_time": 3.0772727,
                "end_time": 3.1954545,
                "pitch": 70,
                "velocity": 16,
                "duration": 0.1181818,
                "tempo": 120.0
            },
            {
                "start_time": 3.1954545,
                "end_time": 3.2977273,
                "pitch": 73,
                "velocity": 16,
                "duration": 0.1022727,
                "tempo": 120.0
            },
            {
                "start_time": 3.2977273,
                "end_time": 3.4181818,
                "pitch": 76,
                "velocity": 16,
                "duration": 0.1204545,
                "tempo": 120.0
            },
            {
                "start_time": 3.4181818,
                "end_time": 3.5386364,
                "pitch": 76,
                "velocity": 16,
                "duration": 0.1204545,
                "tempo": 120.0
            },
            {
                "start_time": 3.5386364,
                "end_time": 5.2272727,
                "pitch": 65,
                "velocity": 80,
                "duration": 1.6886364,
                "tempo": 120.0
            },
            {
                "start_time": 5.2272727,
                "end_time": 5.5113636,
                "pitch": 65,
                "velocity": 80,
                "duration": 0.2840909,
                "tempo": 120.0
            },
            {
                "start_time": 5.5113636,
                "end_time": 5.8159091,
                "pitch": 61,
                "velocity": 80,
                "duration": 0.3045455,
                "tempo": 120.0
            },
            {
                "start_time": 5.8159091,
                "end_time": 6.1068182,
                "pitch": 58,
                "velocity": 80,
                "duration": 0.2909091,
                "tempo": 120.0
            },
            {
                "start_time": 6.1068182,
                "end_time": 6.5522727,
                "pitch": 61,
                "velocity": 80,
                "duration": 0.4454545,
                "tempo": 120.0
            },
            {
                "start_time": 6.5522727,
                "end_time": 6.9863636,
                "pitch": 64,
                "velocity": 80,
                "duration": 0.4340909,
                "tempo": 120.0
            },
            {
                "start_time": 6.9863636,
                "end_time": 8.7,
                "pitch": 64,
                "velocity": 80,
                "duration": 1.7136364,
                "tempo": 120.0
            },
            {
                "start_time": 8.7,
                "end_time": 8.9863636,
                "pitch": 65,
                "velocity": 80,
                "duration": 0.2863636,
                "tempo": 120.0
            },
            {
                "start_time": 8.9863636,
                "end_time": 9.2727273,
                "pitch": 61,
                "velocity": 80,
                "duration": 0.2863636,
                "tempo": 120.0
            },
            {
                "start_time": 9.2727273,
                "end_time": 9.5636364,
                "pitch": 58,
                "velocity": 80,
                "duration": 0.2909091,
                "tempo": 120.0
            },
            {
                "start_time": 9.5636364,
                "end_time": 9.9886364,
                "pitch": 61,
                "velocity": 80,
                "duration": 0.425,
                "tempo": 120.0
            },
            {
                "start_time": 9.9886364,
                "end_time": 10.425,
                "pitch": 64,
                "velocity": 80,
                "duration": 0.4363636,
                "tempo": 120.0
            },
            {
                "start_time": 10.425,
                "end_time": 12.1568182,
                "pitch": 58,
                "velocity": 80,
                "duration": 1.7318182,
                "tempo": 120.0
            },
            {
                "start_time": 12.1568182,
                "end_time": 12.4522727,
                "pitch": 65,
                "velocity": 80,
                "duration": 0.2954545,
                "tempo": 120.0
            },
            {
                "start_time": 12.4522727,
                "end_time": 12.7340909,
                "pitch": 65,
                "velocity": 80,
                "duration": 0.2818182,
                "tempo": 120.0
            },
            {
                "start_time": 12.7340909,
                "end_time": 13.0181818,
                "pitch": 61,
                "velocity": 80,
                "duration": 0.2840909,
                "tempo": 120.0
            },
            {
                "start_time": 13.0181818,
                "end_time": 13.4636364,
                "pitch": 64,
                "velocity": 80,
                "duration": 0.4454545,
                "tempo": 120.0
            },
            {
                "start_time": 13.4636364,
                "end_time": 13.8977273,
                "pitch": 68,
                "velocity": 80,
                "duration": 0.4340909,
                "tempo": 120.0
            },
            {
                "start_time": 13.8977273,
                "end_time": 15.6136364,
                "pitch": 68,
                "velocity": 80,
                "duration": 1.7159091,
                "tempo": 120.0
            },
            {
                "start_time": 15.6136364,
                "end_time": 15.8977273,
                "pitch": 73,
                "velocity": 80,
                "duration": 0.2840909,
                "tempo": 120.0
            },
            {
                "start_time": 15.8977273,
                "end_time": 16.1840909,
                "pitch": 76,
                "velocity": 80,
                "duration": 0.2863636,
                "tempo": 120.0
            },
            {
                "start_time": 16.1840909,
                "end_time": 16.475,
                "pitch": 76,
                "velocity": 80,
                "duration": 0.2909091,
                "tempo": 120.0
            },
            {
                "start_time": 16.475,
                "end_time": 16.9022727,
                "pitch": 77,
                "velocity": 80,
                "duration": 0.4272727,
                "tempo": 120.0
            },
            {
                "start_time": 16.9022727,
                "end_time": 17.3363636,
                "pitch": 73,
                "velocity": 80,
                "duration": 0.4340909,
                "tempo": 120.0
            },
            {
                "start_time": 17.3363636,
                "end_time": 17.6272727,
                "pitch": 82,
                "velocity": 80,
                "duration": 0.2909091,
                "tempo": 120.0
            },
            {
                "start_time": 17.6272727,
                "end_time": 17.9318182,
                "pitch": 82,
                "velocity": 80,
                "duration": 0.3045455,
                "tempo": 120.0
            },
            {
                "start_time": 17.9318182,
                "end_time": 18.2159091,
                "pitch": 77,
                "velocity": 80,
                "duration": 0.2840909,
                "tempo": 120.0
            },
            {
                "start_time": 18.2159091,
                "end_time": 18.5,
                "pitch": 77,
                "velocity": 80,
                "duration": 0.2840909,
                "tempo": 120.0
            },
            {
                "start_time": 18.5,
                "end_time": 18.7840909,
                "pitch": 73,
                "velocity": 80,
                "duration": 0.2840909,
                "tempo": 120.0
            },
            {
                "start_time": 18.7840909,
                "end_time": 19.0704545,
                "pitch": 70,
                "velocity": 80,
                "duration": 0.2863636,
                "tempo": 120.0
            },
            {
                "start_time": 19.0704545,
                "end_time": 20.8090909,
                "pitch": 70,
                "velocity": 80,
                "duration": 1.7386364,
                "tempo": 120.0
            },
            {
                "start_time": 20.8090909,
                "end_time": 20.9113636,
                "pitch": 70,
                "velocity": 80,
                "duration": 0.1022727,
                "tempo": 120.0
            },
            {
                "start_time": 20.9113636,
                "end_time": 21.0272727,
                "pitch": 73,
                "velocity": 80,
                "duration": 0.1159091,
                "tempo": 120.0
            },
            {
                "start_time": 21.0272727,
                "end_time": 21.1272727,
                "pitch": 76,
                "velocity": 80,
                "duration": 0.1,
                "tempo": 120.0
            },
            {
                "start_time": 21.1272727,
                "end_time": 21.2295455,
                "pitch": 76,
                "velocity": 80,
                "duration": 0.1022727,
                "tempo": 120.0
            },
            {
                "start_time": 21.2295455,
                "end_time": 21.3431818,
                "pitch": 70,
                "velocity": 64,
                "duration": 0.1136364,
                "tempo": 120.0
            },
            {
                "start_time": 21.3431818,
                "end_time": 21.4409091,
                "pitch": 73,
                "velocity": 64,
                "duration": 0.0977273,
                "tempo": 120.0
            },
            {
                "start_time": 21.4409091,
                "end_time": 21.5568182,
                "pitch": 76,
                "velocity": 64,
                "duration": 0.1159091,
                "tempo": 120.0
            },
            {
                "start_time": 21.5568182,
                "end_time": 21.6545455,
                "pitch": 76,
                "velocity": 64,
                "duration": 0.0977273,
                "tempo": 120.0
            },
            {
                "start_time": 21.6545455,
                "end_time": 21.7704545,
                "pitch": 70,
                "velocity": 51,
                "duration": 0.1159091,
                "tempo": 120.0
            },
            {
                "start_time": 21.7704545,
                "end_time": 21.8727273,
                "pitch": 73,
                "velocity": 51,
                "duration": 0.1022727,
                "tempo": 120.0
            }
        ]
    }
}