{
    "mood": "sad",
    "instruments": {
        "Church Organ": [
            {
                "start_time": 0.8,
                "end_time": 1.5659091,
                "pitch": 57,
                "velocity": 80,
                "duration": 0.7659091,
                "tempo": 120.0
            },
            {
                "start_time": 1.6,
                "end_time": 2.3659091,
                "pitch": 56,
                "velocity": 80,
                "duration": 0.7659091,
                "tempo": 120.0
            },
            {
                "start_time": 2.4,
                "end_time": 3.9659091,
                "pitch": 52,
                "velocity": 80,
                "duration": 1.5659091,
                "tempo": 120.0
            },
            {
                "start_time": 4.0,
                "end_time": 4.7659091,
                "pitch": 52,
                "velocity": 80,
                "duration": 0.7659091,
                "tempo": 120.0
            },
            {
                "start_time": 4.8,
                "end_time": 5.5659091,
                "pitch": 57,
                "velocity": 80,
                "duration": 0.7659091,
                "tempo": 120.0
            },
            {
                "start_time": 5.6,
                "end_time": 6.7818182,
                "pitch": 55,
                "velocity": 80,
                "duration": 1.1818182,
                "tempo": 120.0
            },
            {
                "start_time": 6.8159091,
                "end_time": 7.9977273,
                "pitch": 54,
                "velocity": 80,
                "duration": 1.1818182,
                "tempo": 120.0
            },
            {
                "start_time": 8.0318182,
                "end_time": 11.6159091,
                "pitch": 50,
                "velocity": 80,
                "duration": 3.5840909,
                "tempo": 120.0
            },
            {
                "start_time": 13.6659091,
                "end_time": 14.4318182,
                "pitch": 57,
                "velocity": 80,
                "duration": 0.7659091,
                "tempo": 120.0
            },
            {
                "start_time": 14.4659091,
                "end_time": 15.2318182,
                "pitch": 56,
                "velocity": 80,
                "duration": 0.7659091,
                "tempo": 120.0
            },
            {
                "start_time": 15.2659091,
                "end_time": 16.8318182,
                "pitch": 52,
                "velocity": 80,
                "duration": 1.5659091,
                "tempo": 120.0
            },
            {
                "start_time": 16.8659091,
                "end_time": 17.6431818,
                "pitch": 52,
                "velocity": 80,
                "duration": 0.7772727,
                "tempo": 120.0
            },
            {
                "start_time": 17.6772727,
                "end_time": 18.4522727,
                "pitch": 57,
                "velocity": 80,
                "duration": 0.775,
                "tempo": 120.0
            },
            {
                "start_time": 18.4863636,
                "end_time": 21.2704545,
                "pitch": 60,
                "velocity": 80,
                "duration": 2.7840909,
                "tempo": 120.0
            },
            {
                "start_time": 21.3022727,
                "end_time": 21.675,
                "pitch": 60,
                "velocity": 80,
                "duration": 0.3727273,
                "tempo": 120.0
            },
            {
                "start_time": 21.7090909,
                "end_time": 24.8954545,
                "pitch": 60,
                "velocity": 80,
                "duration": 3.1863636,
                "tempo": 120.0
            },
            {
                "start_time": 26.5522727,
                "end_time": 27.3181818,
                "pitch": 57,
                "velocity": 80,
                "duration": 0.7659091,
                "tempo": 120.0
            },
            {
                "start_time": 27.3522727,
                "end_time": 28.1181818,
                "pitch": 56,
                "velocity": 80,
                "duration": 0.7659091,
                "tempo": 120.0
            },
            {
                "start_time": 28.1522727,
                "end_time": 29.7386364,
                "pitch": 52,
                "velocity": 80,
                "duration": 1.5863636,
                "tempo": 120.0
            },
            {
                "start_time": 29.7727273,
                "end_time": 30.5409091,
                "pitch": 52,
                "velocity": 80,
                "duration": 0.7681818,
                "tempo": 120.0
            },
            {
                "start_time": 30.5727273,
                "end_time": 31.3409091,
                "pitch": 57,
                "velocity": 80,
                "duration": 0.7681818,
                "tempo": 120.0
            },
            {
                "start_time": 31.3727273,
                "end_time": 32.5568182,
                "pitch": 55,
                "velocity": 80,
                "duration": 1.1840909,
                "tempo": 120.0
            },
            {
                "start_time": 32.5886364,
                "end_time": 33.7727273,
                "pitch": 54,
                "velocity": 80,
                "duration": 1.1840909,
                "tempo": 120.0
            },
            {
                "start_time": 33.8068182,
                "end_time": 37.3886364,
                "pitch": 50,
                "velocity": 80,
                "duration": 3.5818182,
                "tempo": 120.0
            },
            {
                "start_time": 39.4386364,
                "end_time": 40.2159091,
                "pitch": 57,
                "velocity": 80,
                "duration": 0.7772727,
                "tempo": 120.0
            },
            {
                "start_time": 40.25,
                "end_time": 41.0272727,
                "pitch": 56,
                "velocity": 80,
                "duration": 0.7772727,
                "tempo": 120.0
            },
            {
                "start_time": 41.0613636,
                "end_time": 42.6477273,
                "pitch": 52,
                "velocity": 80,
                "duration": 1.5863636,
                "tempo": 120.0
            },
            {
                "start_time": 42.6818182,
                "end_time": 43.4590909,
                "pitch": 52,
                "velocity": 80,
                "duration": 0.7772727,
                "tempo": 120.0
            },
            {
                "start_time": 43.4931818,
                "end_time": 44.2704545,
                "pitch": 57,
                "velocity": 80,
                "duration": 0.7772727,
                "tempo": 120.0
            },
            {
                "start_time": 44.3045455,
                "end_time": 46.6704545,
                "pitch": 60,
                "velocity": 80,
                "duration": 2.3659091,
                "tempo": 120.0
            },
            {
                "start_time": 46.7045455,
                "end_time": 47.4704545,
                "pitch": 59,
                "velocity": 80,
                "duration": 0.7659091,
                "tempo": 120.0
            },
            {
                "start_time": 47.5045455,
                "end_time": 50.7136364,
                "pitch": 56,
                "velocity": 80,
                "duration": 3.2090909,
                "tempo": 120.0
            }
        ],
        "Flute": [
            {
                "start_time": 0.0,
                "end_time": 0.3840909,
                "pitch": 33,
                "velocity": 51,
                "duration": 0.3840909,
                "tempo": 120.0
            },
            {
                "start_time": 0.4,
                "end_time": 2.3659091,
                "pitch": 45,
                "velocity": 51,
                "duration": 1.9659091,
                "tempo": 120.0
            },
            {
                "start_time": 5.6,
                "end_time": 9.6204545,
                "pitch": 43,
                "velocity": 51,
                "duration": 4.0204545,
                "tempo": 120.0
            },
            {
                "start_time": 9.6545455,
                "end_time": 10.4318182,
                "pitch": 62,
                "velocity": 51,
                "duration": 0.7772727,
                "tempo": 120.0
            },
            {
                "start_time": 10.4659091,
                "end_time": 11.2204545,
                "pitch": 61,
                "velocity": 51,
                "duration": 0.7545455,
                "tempo": 120.0
            },
            {
                "start_time": 11.2545455,
                "end_time": 12.0113636,
                "pitch": 55,
                "velocity": 51,
                "duration": 0.7568182,
                "tempo": 120.0
            },
            {
                "start_time": 12.0431818,
                "end_time": 15.2318182,
                "pitch": 45,
                "velocity": 51,
                "duration": 3.1886364,
                "tempo": 120.0
            },
            {
                "start_time": 18.4863636,
                "end_time": 21.2704545,
                "pitch": 64,
                "velocity": 51,
                "duration": 2.7840909,
                "tempo": 120.0
            },
            {
                "start_time": 21.3022727,
                "end_time": 21.675,
                "pitch": 60,
                "velocity": 51,
                "duration": 0.3727273,
                "tempo": 120.0
            },
            {
                "start_time": 21.7090909,
                "end_time": 24.8954545,
                "pitch": 60,
                "velocity": 51,
                "duration": 3.1863636,
                "tempo": 120.0
            },
            {
                "start_time": 24.9295455,
                "end_time": 25.7068182,
                "pitch": 52,
                "velocity": 51,
                "duration": 0.7772727,
                "tempo": 120.0
            },
            {
                "start_time": 25.7409091,
                "end_time": 28.1181818,
                "pitch": 52,
                "velocity": 51,
                "duration": 2.3772727,
                "tempo": 120.0
            },
            {
                "start_time": 31.3727273,
                "end_time": 35.3931818,
                "pitch": 50,
                "velocity": 51,
                "duration": 4.0204545,
                "tempo": 120.0
            },
            {
                "start_time": 35.4272727,
                "end_time": 36.2045455,
                "pitch": 59,
                "velocity": 51,
                "duration": 0.7772727,
                "tempo": 120.0
            },
            {
                "start_time": 36.2386364,
                "end_time": 36.9954545,
                "pitch": 57,
                "velocity": 51,
                "duration": 0.7568182,
                "tempo": 120.0
            },
            {
                "start_time": 37.0272727,
                "end_time": 37.7840909,
                "pitch": 62,
                "velocity": 51,
                "duration": 0.7568182,
                "tempo": 120.0
            },
            {
                "start_time": 37.8181818,
                "end_time": 41.0272727,
                "pitch": 52,
                "velocity": 51,
                "duration": 3.2090909,
                "tempo": 120.0
            },
            {
                "start_time": 44.3045455,
                "end_time": 47.4704545,
                "pitch": 50,
                "velocity": 51,
                "duration": 3.1659091,
                "tempo": 120.0
            },
            {
                "start_time": 47.5045455,
                "end_time": 50.7136364,
                "pitch": 47,
                "velocity": 51,
                "duration": 3.2090909,
                "tempo": 120.0
            },
            {
                "start_time": 50.7477273,
                "end_time": 53.9363636,
                "pitch": 53,
                "velocity": 51,
                "duration": 3.1886364,
                "tempo": 120.0
            },
            {
                "start_time": 55.1840909,
                "end_time": 55.9613636,
                "pitch": 59,
                "velocity": 51,
                "duration": 0.7772727,
                "tempo": 120.0
            },
            {
                "start_time": 55.9954545,
                "end_time": 56.7727273,
                "pitch": 57,
                "velocity": 51,
                "duration": 0.7772727,
                "tempo": 120.0
            },
            {
                "start_time": 56.8068182,
                "end_time": 57.1772727,
                "pitch": 53,
                "velocity": 51,
                "duration": 0.3704545,
                "tempo": 120.0
            },
            {
                "start_time": 57.2113636,
                "end_time": 60.4022727,
                "pitch": 52,
                "velocity": 51,
                "duration": 3.1909091,
                "tempo": 120.0
            },
            {
                "start_time": 61.6340909,
                "end_time": 63.6227273,
                "pitch": 57,
                "velocity": 51,
                "duration": 1.9886364,
                "tempo": 120.0
            },
            {
                "start_time": 63.6568182,
                "end_time": 66.8431818,
                "pitch": 50,
                "velocity": 51,
                "duration": 3.1863636,
                "tempo": 120.0
            },
            {
                "start_time": 70.1,
                "end_time": 73.1568182,
                "pitch": 59,
                "velocity": 51,
                "duration": 3.0568182,
                "tempo": 120.0
            },
            {
                "start_time": 73.1886364,
                "end_time": 76.5090909,
                "pitch": 59,
                "velocity": 51,
                "duration": 3.3204545,
                "tempo": 120.0
            },
            {
                "start_time": 76.5409091,
                "end_time": 79.7295455,
                "pitch": 59,
                "velocity": 51,
                "duration": 3.1886364,
                "tempo": 120.0
            },
            {
                "start_time": 79.7636364,
                "end_time": 81.7295455,
                "pitch": 59,
                "velocity": 51,
                "duration": 1.9659091,
                "tempo": 120.0
            },
            {
                "start_time": 81.7636364,
                "end_time": 82.1295455,
                "pitch": 54,
                "velocity": 51,
                "duration": 0.3659091,
                "tempo": 120.0
            },
            {
                "start_time": 82.1636364,
                "end_time": 86.1522727,
                "pitch": 57,
                "velocity": 51,
                "duration": 3.9886364,
                "tempo": 120.0
            },
            {
                "start_time": 89.4068182,
                "end_time": 92.6613636,
                "pitch": 60,
                "velocity": 51,
                "duration": 3.2545455,
                "tempo": 120.0
            },
            {
                "start_time": 95.85,
                "end_time": 99.0386364,
                "pitch": 64,
                "velocity": 51,
                "duration": 3.1886364,
                "tempo": 120.0
            },
            {
                "start_time": 99.0704545,
                "end_time": 101.2590909,
                "pitch": 62,
                "velocity": 51,
                "duration": 2.1886364,
                "tempo": 120.0
            }
        ],
        "Acoustic Grand Piano": [
            {
                "start_time": 0.0,
                "end_time": 0.3840909,
                "pitch": 33,
                "velocity": 51,
                "duration": 0.3840909,
                "tempo": 120.0
            },
            {
                "start_time": 0.4,
                "end_time": 2.3659091,
                "pitch": 45,
                "velocity": 51,
                "duration": 1.9659091,
                "tempo": 120.0
            },
            {
                "start_time": 5.6,
                "end_time": 7.9977273,
                "pitch": 43,
                "velocity": 51,
                "duration": 2.3977273,
                "tempo": 120.0
            },
            {
                "start_time": 8.0318182,
                "end_time": 12.0113636,
                "pitch": 31,
                "velocity": 51,
                "duration": 3.9795455,
                "tempo": 120.0
            },
            {
                "start_time": 12.0431818,
                "end_time": 12.8204545,
                "pitch": 33,
                "velocity": 51,
                "duration": 0.7772727,
                "tempo": 120.0
            },
            {
                "start_time": 12.8545455,
                "end_time": 15.2318182,
                "pitch": 45,
                "velocity": 51,
                "duration": 2.3772727,
                "tempo": 120.0
            },
            {
                "start_time": 18.4863636,
                "end_time": 21.675,
                "pitch": 41,
                "velocity": 51,
                "duration": 3.1886364,
                "tempo": 120.0
            },
            {
                "start_time": 24.9295455,
                "end_time": 25.7068182,
                "pitch": 33,
                "velocity": 51,
                "duration": 0.7772727,
                "tempo": 120.0
            },
            {
                "start_time": 25.7409091,
                "end_time": 28.1181818,
                "pitch": 45,
                "velocity": 51,
                "duration": 2.3772727,
                "tempo": 120.0
            },
            {
                "start_time": 31.3727273,
                "end_time": 33.7727273,
                "pitch": 43,
                "velocity": 51,
                "duration": 2.4,
                "tempo": 120.0
            },
            {
                "start_time": 33.8068182,
                "end_time": 37.7840909,
                "pitch": 31,
                "velocity": 51,
                "duration": 3.9772727,
                "tempo": 120.0
            },
            {
                "start_time": 37.8181818,
                "end_time": 38.5954545,
                "pitch": 33,
                "velocity": 51,
                "duration": 0.7772727,
                "tempo": 120.0
            },
            {
                "start_time": 38.6272727,
                "end_time": 41.0272727,
                "pitch": 45,
                "velocity": 51,
                "duration": 2.4,
                "tempo": 120.0
            },
            {
                "start_time": 44.3045455,
                "end_time": 47.4704545,
                "pitch": 29,
                "velocity": 51,
                "duration": 3.1659091,
                "tempo": 120.0
            },
            {
                "start_time": 47.5045455,
                "end_time": 50.7136364,
                "pitch": 40,
                "velocity": 51,
                "duration": 3.2090909,
                "tempo": 120.0
            },
            {
                "start_time": 50.7477273,
                "end_time": 53.0022727,
                "pitch": 38,
                "velocity": 51,
                "duration": 2.2545455,
                "tempo": 120.0
            },
            {
                "start_time": 56.8068182,
                "end_time": 57.1772727,
                "pitch": 38,
                "velocity": 51,
                "duration": 0.3704545,
                "tempo": 120.0
            },
            {
                "start_time": 57.2113636,
                "end_time": 60.4022727,
                "pitch": 36,
                "velocity": 51,
                "duration": 3.1909091,
                "tempo": 120.0
            },
            {
                "start_time": 63.6568182,
                "end_time": 66.3113636,
                "pitch": 40,
                "velocity": 51,
                "duration": 2.6545455,
                "tempo": 120.0
            },
            {
                "start_time": 66.3431818,
                "end_time": 69.2772727,
                "pitch": 40,
                "velocity": 51,
                "duration": 2.9340909,
                "tempo": 120.0
            },
            {
                "start_time": 69.3090909,
                "end_time": 70.0659091,
                "pitch": 40,
                "velocity": 51,
                "duration": 0.7568182,
                "tempo": 120.0
            },
            {
                "start_time": 70.1,
                "end_time": 72.4977273,
                "pitch": 41,
                "velocity": 51,
                "duration": 2.3977273,
                "tempo": 120.0
            },
            {
                "start_time": 72.5318182,
                "end_time": 73.2863636,
                "pitch": 36,
                "velocity": 51,
                "duration": 0.7545455,
                "tempo": 120.0
            },
            {
                "start_time": 73.3204545,
                "end_time": 76.5090909,
                "pitch": 36,
                "velocity": 51,
                "duration": 3.1886364,
                "tempo": 120.0
            },
            {
                "start_time": 76.5409091,
                "end_time": 78.7977273,
                "pitch": 38,
                "velocity": 51,
                "duration": 2.2568182,
                "tempo": 120.0
            },
            {
                "start_time": 82.5636364,
                "end_time": 82.9295455,
                "pitch": 38,
                "velocity": 51,
                "duration": 0.3659091,
                "tempo": 120.0
            },
            {
                "start_time": 82.9636364,
                "end_time": 86.1522727,
                "pitch": 36,
                "velocity": 51,
                "duration": 3.1886364,
                "tempo": 120.0
            },
            {
                "start_time": 89.4068182,
                "end_time": 92.0545455,
                "pitch": 40,
                "velocity": 51,
                "duration": 2.6477273,
                "tempo": 120.0
            },
            {
                "start_time": 92.0886364,
                "end_time": 95.0272727,
                "pitch": 40,
                "velocity": 51,
                "duration": 2.9386364,
                "tempo": 120.0
            },
            {
                "start_time": 95.0613636,
                "end_time": 95.8181818,
                "pitch": 40,
                "velocity": 51,
                "duration": 0.7568182,
                "tempo": 120.0
            },
            {
                "start_time": 95.85,
                "end_time": 98.25,
                "pitch": 41,
                "velocity": 51,
                "duration": 2.4,
                "tempo": 120.0
            },
            {
                "start_time": 98.2818182,
                "end_time": 99.0386364,
                "pitch": 36,
                "velocity": 51,
                "duration": 0.7568182,
                "tempo": 120.0
            },
            {
                "start_time": 99.0704545,
                "end_time": 102.2590909,
                "pitch": 36,
                "velocity": 51,
                "duration": 3.1886364,
                "tempo": 120.0
            }
        ]
    }
}