{
    "mood": "sad",
    "instruments": {
        "French Horn": [
            {
                "start_time": 0.0022727,
                "end_time": 0.7113636,
                "pitch": 58,
                "velocity": 80,
                "duration": 0.7090909,
                "tempo": 120.0
            },
            {
                "start_time": 0.7272727,
                "end_time": 1.9681818,
                "pitch": 60,
                "velocity": 80,
                "duration": 1.2409091,
                "tempo": 120.0
            },
            {
                "start_time": 1.9863636,
                "end_time": 2.3045455,
                "pitch": 58,
                "velocity": 80,
                "duration": 0.3181818,
                "tempo": 120.0
            },
            {
                "start_time": 2.3204545,
                "end_time": 2.7318182,
                "pitch": 60,
                "velocity": 80,
                "duration": 0.4113636,
                "tempo": 120.0
            },
            {
                "start_time": 2.7477273,
                "end_time": 3.2340909,
                "pitch": 63,
                "velocity": 80,
                "duration": 0.4863636,
                "tempo": 120.0
            },
            {
                "start_time": 3.25,
                "end_time": 3.7454545,
                "pitch": 61,
                "velocity": 80,
                "duration": 0.4954545,
                "tempo": 120.0
            },
            {
                "start_time": 3.7613636,
                "end_time": 3.9977273,
                "pitch": 60,
                "velocity": 80,
                "duration": 0.2363636,
                "tempo": 120.0
            },
            {
                "start_time": 4.0136364,
                "end_time": 4.7590909,
                "pitch": 58,
                "velocity": 80,
                "duration": 0.7454545,
                "tempo": 120.0
            },
            {
                "start_time": 4.7772727,
                "end_time": 6.025,
                "pitch": 60,
                "velocity": 80,
                "duration": 1.2477273,
                "tempo": 120.0
            },
            {
                "start_time": 6.0409091,
                "end_time": 6.3590909,
                "pitch": 58,
                "velocity": 80,
                "duration": 0.3181818,
                "tempo": 120.0
            },
            {
                "start_time": 6.3772727,
                "end_time": 6.8727273,
                "pitch": 60,
                "velocity": 80,
                "duration": 0.4954545,
                "tempo": 120.0
            },
            {
                "start_time": 6.8886364,
                "end_time": 7.375,
                "pitch": 63,
                "velocity": 80,
                "duration": 0.4863636,
                "tempo": 120.0
            },
            {
                "start_time": 7.3909091,
                "end_time": 7.8863636,
                "pitch": 61,
                "velocity": 80,
                "duration": 0.4954545,
                "tempo": 120.0
            },
            {
                "start_time": 7.9022727,
                "end_time": 8.0522727,
                "pitch": 60,
                "velocity": 80,
                "duration": 0.15,
                "tempo": 120.0
            },
            {
                "start_time": 8.0704545,
                "end_time": 8.8159091,
                "pitch": 58,
                "velocity": 80,
                "duration": 0.7454545,
                "tempo": 120.0
            },
            {
                "start_time": 8.8340909,
                "end_time": 9.575,
                "pitch": 56,
                "velocity": 80,
                "duration": 0.7409091,
                "tempo": 120.0
            },
            {
                "start_time": 9.5909091,
                "end_time": 10.0818182,
                "pitch": 55,
                "velocity": 80,
                "duration": 0.4909091,
                "tempo": 120.0
            },
            {
                "start_time": 10.0977273,
                "end_time": 12.1090909,
                "pitch": 55,
                "velocity": 80,
                "duration": 2.0113636,
                "tempo": 120.0
            },
            {
                "start_time": 12.1272727,
                "end_time": 12.8727273,
                "pitch": 58,
                "velocity": 80,
                "duration": 0.7454545,
                "tempo": 120.0
            },
            {
                "start_time": 12.8886364,
                "end_time": 14.1386364,
                "pitch": 60,
                "velocity": 80,
                "duration": 1.25,
                "tempo": 120.0
            },
            {
                "start_time": 14.1545455,
                "end_time": 14.4727273,
                "pitch": 58,
                "velocity": 80,
                "duration": 0.3181818,
                "tempo": 120.0
            },
            {
                "start_time": 14.4909091,
                "end_time": 14.9840909,
                "pitch": 60,
                "velocity": 80,
                "duration": 0.4931818,
                "tempo": 120.0
            },
            {
                "start_time": 15.0022727,
                "end_time": 15.4045455,
                "pitch": 63,
                "velocity": 80,
                "duration": 0.4022727,
                "tempo": 120.0
            },
            {
                "start_time": 15.4204545,
                "end_time": 16.0,
                "pitch": 61,
                "velocity": 80,
                "duration": 0.5795455,
                "tempo": 120.0
            },
            {
                "start_time": 16.0159091,
                "end_time": 16.1659091,
                "pitch": 60,
                "velocity": 80,
                "duration": 0.15,
                "tempo": 120.0
            },
            {
                "start_time": 16.1840909,
                "end_time": 16.9295455,
                "pitch": 58,
                "velocity": 80,
                "duration": 0.7454545,
                "tempo": 120.0
            },
            {
                "start_time": 16.9454545,
                "end_time": 18.1954545,
                "pitch": 60,
                "velocity": 80,
                "duration": 1.25,
                "tempo": 120.0
            },
            {
                "start_time": 18.2113636,
                "end_time": 18.5295455,
                "pitch": 58,
                "velocity": 80,
                "duration": 0.3181818,
                "tempo": 120.0
            },
            {
                "start_time": 18.5454545,
                "end_time": 19.0409091,
                "pitch": 60,
                "velocity": 80,
                "duration": 0.4954545,
                "tempo": 120.0
            },
            {
                "start_time": 19.0590909,
                "end_time": 19.5431818,
                "pitch": 63,
                "velocity": 80,
                "duration": 0.4840909,
                "tempo": 120.0
            },
            {
                "start_time": 19.5613636,
                "end_time": 20.0568182,
                "pitch": 61,
                "velocity": 80,
                "duration": 0.4954545,
                "tempo": 120.0
            },
            {
                "start_time": 20.0727273,
                "end_time": 20.2227273,
                "pitch": 60,
                "velocity": 80,
                "duration": 0.15,
                "tempo": 120.0
            },
            {
                "start_time": 20.2409091,
                "end_time": 20.7295455,
                "pitch": 58,
                "velocity": 80,
                "duration": 0.4886364,
                "tempo": 120.0
            },
            {
                "start_time": 20.7477273,
                "end_time": 20.9863636,
                "pitch": 56,
                "velocity": 80,
                "duration": 0.2386364,
                "tempo": 120.0
            },
            {
                "start_time": 21.0022727,
                "end_time": 21.4886364,
                "pitch": 55,
                "velocity": 80,
                "duration": 0.4863636,
                "tempo": 120.0
            },
            {
                "start_time": 21.5045455,
                "end_time": 22.0,
                "pitch": 56,
                "velocity": 80,
                "duration": 0.4954545,
                "tempo": 120.0
            },
            {
                "start_time": 22.0159091,
                "end_time": 22.2522727,
                "pitch": 58,
                "velocity": 80,
                "duration": 0.2363636,
                "tempo": 120.0
            },
            {
                "start_time": 22.2681818,
                "end_time": 23.7727273,
                "pitch": 60,
                "velocity": 80,
                "duration": 1.5045455,
                "tempo": 120.0
            },
            {
                "start_time": 23.7886364,
                "end_time": 24.2795455,
                "pitch": 55,
                "velocity": 80,
                "duration": 0.4909091,
                "tempo": 120.0
            },
            {
                "start_time": 24.2954545,
                "end_time": 25.2090909,
                "pitch": 58,
                "velocity": 80,
                "duration": 0.9136364,
                "tempo": 120.0
            },
            {
                "start_time": 25.2272727,
                "end_time": 26.3090909,
                "pitch": 56,
                "velocity": 80,
                "duration": 1.0818182,
                "tempo": 120.0
            },
            {
                "start_time": 26.325,
                "end_time": 27.3227273,
                "pitch": 55,
                "velocity": 80,
                "duration": 0.9977273,
                "tempo": 120.0
            },
            {
                "start_time": 27.3386364,
                "end_time": 27.8295455,
                "pitch": 56,
                "velocity": 80,
                "duration": 0.4909091,
                "tempo": 120.0
            },
            {
                "start_time": 27.8454545,
                "end_time": 27.8795455,
                "pitch": 58,
                "velocity": 80,
                "duration": 0.0340909,
                "tempo": 120.0
            },
            {
                "start_time": 27.8977273,
                "end_time": 28.3363636,
                "pitch": 60,
                "velocity": 80,
                "duration": 0.4386364,
                "tempo": 120.0
            },
            {
                "start_time": 28.3522727,
                "end_time": 29.8568182,
                "pitch": 60,
                "velocity": 80,
                "duration": 1.5045455,
                "tempo": 120.0
            },
            {
                "start_time": 29.875,
                "end_time": 30.1136364,
                "pitch": 58,
                "velocity": 80,
                "duration": 0.2386364,
                "tempo": 120.0
            },
            {
                "start_time": 30.1295455,
                "end_time": 30.8704545,
                "pitch": 60,
                "velocity": 80,
                "duration": 0.7409091,
                "tempo": 120.0
            },
            {
                "start_time": 30.8886364,
                "end_time": 31.2113636,
                "pitch": 63,
                "velocity": 80,
                "duration": 0.3227273,
                "tempo": 120.0
            },
            {
                "start_time": 31.2272727,
                "end_time": 31.8863636,
                "pitch": 60,
                "velocity": 80,
                "duration": 0.6590909,
                "tempo": 120.0
            },
            {
                "start_time": 31.9022727,
                "end_time": 32.3931818,
                "pitch": 58,
                "velocity": 80,
                "duration": 0.4909091,
                "tempo": 120.0
            },
            {
                "start_time": 32.4090909,
                "end_time": 33.2386364,
                "pitch": 60,
                "velocity": 80,
                "duration": 0.8295455,
                "tempo": 120.0
            },
            {
                "start_time": 33.2568182,
                "end_time": 35.1840909,
                "pitch": 58,
                "velocity": 80,
                "duration": 1.9272727,
                "tempo": 120.0
            },
            {
                "start_time": 35.2,
                "end_time": 35.4363636,
                "pitch": 58,
                "velocity": 80,
                "duration": 0.2363636,
                "tempo": 120.0
            },
            {
                "start_time": 35.4522727,
                "end_time": 35.9409091,
                "pitch": 60,
                "velocity": 80,
                "duration": 0.4886364,
                "tempo": 120.0
            },
            {
                "start_time": 35.9590909,
                "end_time": 36.45,
                "pitch": 63,
                "velocity": 80,
                "duration": 0.4909091,
                "tempo": 120.0
            },
            {
                "start_time": 36.4659091,
                "end_time": 37.2113636,
                "pitch": 61,
                "velocity": 80,
                "duration": 0.7454545,
                "tempo": 120.0
            },
            {
                "start_time": 37.2295455,
                "end_time": 37.9704545,
                "pitch": 60,
                "velocity": 80,
                "duration": 0.7409091,
                "tempo": 120.0
            },
            {
                "start_time": 37.9863636,
                "end_time": 38.8136364,
                "pitch": 56,
                "velocity": 80,
                "duration": 0.8272727,
                "tempo": 120.0
            },
            {
                "start_time": 38.8295455,
                "end_time": 39.575,
                "pitch": 58,
                "velocity": 80,
                "duration": 0.7454545,
                "tempo": 120.0
            },
            {
                "start_time": 39.5931818,
                "end_time": 40.0840909,
                "pitch": 60,
                "velocity": 80,
                "duration": 0.4909091,
                "tempo": 120.0
            },
            {
                "start_time": 40.1022727,
                "end_time": 40.5068182,
                "pitch": 56,
                "velocity": 80,
                "duration": 0.4045455,
                "tempo": 120.0
            },
            {
                "start_time": 40.5227273,
                "end_time": 42.0272727,
                "pitch": 58,
                "velocity": 80,
                "duration": 1.5045455,
                "tempo": 120.0
            },
            {
                "start_time": 42.0431818,
                "end_time": 42.5340909,
                "pitch": 61,
                "velocity": 80,
                "duration": 0.4909091,
                "tempo": 120.0
            },
            {
                "start_time": 42.5522727,
                "end_time": 43.2977273,
                "pitch": 60,
                "velocity": 80,
                "duration": 0.7454545,
                "tempo": 120.0
            },
            {
                "start_time": 43.3136364,
                "end_time": 44.0545455,
                "pitch": 58,
                "velocity": 80,
                "duration": 0.7409091,
                "tempo": 120.0
            },
            {
                "start_time": 44.0727273,
                "end_time": 44.5636364,
                "pitch": 56,
                "velocity": 80,
                "duration": 0.4909091,
                "tempo": 120.0
            },
            {
                "start_time": 44.5795455,
                "end_time": 46.5909091,
                "pitch": 56,
                "velocity": 80,
                "duration": 2.0113636,
                "tempo": 120.0
            },
            {
                "start_time": 46.6068182,
                "end_time": 47.6045455,
                "pitch": 60,
                "velocity": 80,
                "duration": 0.9977273,
                "tempo": 120.0
            },
            {
                "start_time": 47.6227273,
                "end_time": 48.6159091,
                "pitch": 58,
                "velocity": 80,
                "duration": 0.9931818,
                "tempo": 120.0
            }
        ],
        "Acoustic Bass": [
            {
                "start_time": 0.0022727,
                "end_time": 0.4681818,
                "pitch": 37,
                "velocity": 51,
                "duration": 0.4659091,
                "tempo": 120.0
            },
            {
                "start_time": 0.4840909,
                "end_time": 0.9545455,
                "pitch": 37,
                "velocity": 51,
                "duration": 0.4704545,
                "tempo": 120.0
            },
            {
                "start_time": 0.9704545,
                "end_time": 1.4613636,
                "pitch": 37,
                "velocity": 51,
                "duration": 0.4909091,
                "tempo": 120.0
            },
            {
                "start_time": 1.4772727,
                "end_time": 1.9681818,
                "pitch": 37,
                "velocity": 51,
                "duration": 0.4909091,
                "tempo": 120.0
            },
            {
                "start_time": 1.9863636,
                "end_time": 2.475,
                "pitch": 37,
                "velocity": 51,
                "duration": 0.4886364,
                "tempo": 120.0
            },
            {
                "start_time": 2.4931818,
                "end_time": 2.9818182,
                "pitch": 37,
                "velocity": 51,
                "duration": 0.4886364,
                "tempo": 120.0
            },
            {
                "start_time": 3.0,
                "end_time": 3.4886364,
                "pitch": 37,
                "velocity": 51,
                "duration": 0.4886364,
                "tempo": 120.0
            },
            {
                "start_time": 3.5068182,
                "end_time": 3.9977273,
                "pitch": 37,
                "velocity": 51,
                "duration": 0.4909091,
                "tempo": 120.0
            },
            {
                "start_time": 4.0136364,
                "end_time": 4.5045455,
                "pitch": 39,
                "velocity": 51,
                "duration": 0.4909091,
                "tempo": 120.0
            },
            {
                "start_time": 4.5204545,
                "end_time": 5.0113636,
                "pitch": 39,
                "velocity": 51,
                "duration": 0.4909091,
                "tempo": 120.0
            },
            {
                "start_time": 5.0272727,
                "end_time": 5.5181818,
                "pitch": 39,
                "velocity": 51,
                "duration": 0.4909091,
                "tempo": 120.0
            },
            {
                "start_time": 5.5340909,
                "end_time": 6.025,
                "pitch": 39,
                "velocity": 51,
                "duration": 0.4909091,
                "tempo": 120.0
            },
            {
                "start_time": 6.0409091,
                "end_time": 6.5318182,
                "pitch": 39,
                "velocity": 51,
                "duration": 0.4909091,
                "tempo": 120.0
            },
            {
                "start_time": 6.55,
                "end_time": 7.0386364,
                "pitch": 39,
                "velocity": 51,
                "duration": 0.4886364,
                "tempo": 120.0
            },
            {
                "start_time": 7.0568182,
                "end_time": 7.5454545,
                "pitch": 39,
                "velocity": 51,
                "duration": 0.4886364,
                "tempo": 120.0
            },
            {
                "start_time": 7.5636364,
                "end_time": 8.0522727,
                "pitch": 39,
                "velocity": 51,
                "duration": 0.4886364,
                "tempo": 120.0
            },
            {
                "start_time": 8.0704545,
                "end_time": 8.5590909,
                "pitch": 41,
                "velocity": 51,
                "duration": 0.4886364,
                "tempo": 120.0
            },
            {
                "start_time": 8.5772727,
                "end_time": 9.0681818,
                "pitch": 41,
                "velocity": 51,
                "duration": 0.4909091,
                "tempo": 120.0
            },
            {
                "start_time": 9.0840909,
                "end_time": 9.575,
                "pitch": 41,
                "velocity": 51,
                "duration": 0.4909091,
                "tempo": 120.0
            },
            {
                "start_time": 9.5909091,
                "end_time": 10.0818182,
                "pitch": 41,
                "velocity": 51,
                "duration": 0.4909091,
                "tempo": 120.0
            },
            {
                "start_time": 10.0977273,
                "end_time": 10.5886364,
                "pitch": 41,
                "velocity": 51,
                "duration": 0.4909091,
                "tempo": 120.0
            },
            {
                "start_time": 10.6045455,
                "end_time": 11.0954545,
                "pitch": 41,
                "velocity": 51,
                "duration": 0.4909091,
                "tempo": 120.0
            },
            {
                "start_time": 11.1136364,
                "end_time": 11.6022727,
                "pitch": 41,
                "velocity": 51,
                "duration": 0.4886364,
                "tempo": 120.0
            },
            {
                "start_time": 11.6204545,
                "end_time": 12.1090909,
                "pitch": 41,
                "velocity": 51,
                "duration": 0.4886364,
                "tempo": 120.0
            },
            {
                "start_time": 12.1272727,
                "end_time": 12.6159091,
                "pitch": 37,
                "velocity": 51,
                "duration": 0.4886364,
                "tempo": 120.0
            },
            {
                "start_time": 12.6340909,
                "end_time": 13.125,
                "pitch": 37,
                "velocity": 51,
                "duration": 0.4909091,
                "tempo": 120.0
            },
            {
                "start_time": 13.1409091,
                "end_time": 13.6318182,
                "pitch": 37,
                "velocity": 51,
                "duration": 0.4909091,
                "tempo": 120.0
            },
            {
                "start_time": 13.6477273,
                "end_time": 14.1386364,
                "pitch": 37,
                "velocity": 51,
                "duration": 0.4909091,
                "tempo": 120.0
            },
            {
                "start_time": 14.1545455,
                "end_time": 14.6454545,
                "pitch": 37,
                "velocity": 51,
                "duration": 0.4909091,
                "tempo": 120.0
            },
            {
                "start_time": 14.6613636,
                "end_time": 15.1522727,
                "pitch": 37,
                "velocity": 51,
                "duration": 0.4909091,
                "tempo": 120.0
            },
            {
                "start_time": 15.1681818,
                "end_time": 15.6590909,
                "pitch": 37,
                "velocity": 51,
                "duration": 0.4909091,
                "tempo": 120.0
            },
            {
                "start_time": 15.6772727,
                "end_time": 16.1659091,
                "pitch": 37,
                "velocity": 51,
                "duration": 0.4886364,
                "tempo": 120.0
            },
            {
                "start_time": 16.1840909,
                "end_time": 16.6727273,
                "pitch": 39,
                "velocity": 51,
                "duration": 0.4886364,
                "tempo": 120.0
            },
            {
                "start_time": 16.6909091,
                "end_time": 17.1818182,
                "pitch": 39,
                "velocity": 51,
                "duration": 0.4909091,
                "tempo": 120.0
            },
            {
                "start_time": 17.1977273,
                "end_time": 17.6863636,
                "pitch": 39,
                "velocity": 51,
                "duration": 0.4886364,
                "tempo": 120.0
            },
            {
                "start_time": 17.7045455,
                "end_time": 18.1954545,
                "pitch": 39,
                "velocity": 51,
                "duration": 0.4909091,
                "tempo": 120.0
            },
            {
                "start_time": 18.2113636,
                "end_time": 18.7022727,
                "pitch": 39,
                "velocity": 51,
                "duration": 0.4909091,
                "tempo": 120.0
            },
            {
                "start_time": 18.7181818,
                "end_time": 19.2090909,
                "pitch": 39,
                "velocity": 51,
                "duration": 0.4909091,
                "tempo": 120.0
            },
            {
                "start_time": 19.225,
                "end_time": 19.7159091,
                "pitch": 39,
                "velocity": 51,
                "duration": 0.4909091,
                "tempo": 120.0
            },
            {
                "start_time": 19.7318182,
                "end_time": 20.2227273,
                "pitch": 39,
                "velocity": 51,
                "duration": 0.4909091,
                "tempo": 120.0
            },
            {
                "start_time": 20.2409091,
                "end_time": 20.7295455,
                "pitch": 41,
                "velocity": 51,
                "duration": 0.4886364,
                "tempo": 120.0
            },
            {
                "start_time": 20.7477273,
                "end_time": 21.2363636,
                "pitch": 41,
                "velocity": 51,
                "duration": 0.4886364,
                "tempo": 120.0
            },
            {
                "start_time": 21.2545455,
                "end_time": 21.7431818,
                "pitch": 41,
                "velocity": 51,
                "duration": 0.4886364,
                "tempo": 120.0
            },
            {
                "start_time": 21.7613636,
                "end_time": 22.2522727,
                "pitch": 41,
                "velocity": 51,
                "duration": 0.4909091,
                "tempo": 120.0
            },
            {
                "start_time": 22.2681818,
                "end_time": 22.7590909,
                "pitch": 37,
                "velocity": 51,
                "duration": 0.4909091,
                "tempo": 120.0
            },
            {
                "start_time": 22.775,
                "end_time": 23.2659091,
                "pitch": 37,
                "velocity": 51,
                "duration": 0.4909091,
                "tempo": 120.0
            },
            {
                "start_time": 23.2818182,
                "end_time": 23.7727273,
                "pitch": 37,
                "velocity": 51,
                "duration": 0.4909091,
                "tempo": 120.0
            },
            {
                "start_time": 23.7886364,
                "end_time": 24.2795455,
                "pitch": 37,
                "velocity": 51,
                "duration": 0.4909091,
                "tempo": 120.0
            },
            {
                "start_time": 24.2954545,
                "end_time": 24.7863636,
                "pitch": 39,
                "velocity": 51,
                "duration": 0.4909091,
                "tempo": 120.0
            },
            {
                "start_time": 24.8045455,
                "end_time": 25.2931818,
                "pitch": 39,
                "velocity": 51,
                "duration": 0.4886364,
                "tempo": 120.0
            },
            {
                "start_time": 25.3113636,
                "end_time": 25.8,
                "pitch": 39,
                "velocity": 51,
                "duration": 0.4886364,
                "tempo": 120.0
            },
            {
                "start_time": 25.8181818,
                "end_time": 26.3090909,
                "pitch": 37,
                "velocity": 51,
                "duration": 0.4909091,
                "tempo": 120.0
            },
            {
                "start_time": 26.325,
                "end_time": 26.8136364,
                "pitch": 39,
                "velocity": 51,
                "duration": 0.4886364,
                "tempo": 120.0
            },
            {
                "start_time": 26.8318182,
                "end_time": 27.3227273,
                "pitch": 39,
                "velocity": 51,
                "duration": 0.4909091,
                "tempo": 120.0
            },
            {
                "start_time": 27.3386364,
                "end_time": 27.8295455,
                "pitch": 39,
                "velocity": 51,
                "duration": 0.4909091,
                "tempo": 120.0
            },
            {
                "start_time": 27.8454545,
                "end_time": 28.3363636,
                "pitch": 39,
                "velocity": 51,
                "duration": 0.4909091,
                "tempo": 120.0
            },
            {
                "start_time": 28.3522727,
                "end_time": 28.8431818,
                "pitch": 37,
                "velocity": 51,
                "duration": 0.4909091,
                "tempo": 120.0
            },
            {
                "start_time": 28.8590909,
                "end_time": 29.35,
                "pitch": 37,
                "velocity": 51,
                "duration": 0.4909091,
                "tempo": 120.0
            },
            {
                "start_time": 29.3681818,
                "end_time": 29.8568182,
                "pitch": 37,
                "velocity": 51,
                "duration": 0.4886364,
                "tempo": 120.0
            },
            {
                "start_time": 29.875,
                "end_time": 30.3636364,
                "pitch": 37,
                "velocity": 51,
                "duration": 0.4886364,
                "tempo": 120.0
            },
            {
                "start_time": 30.3818182,
                "end_time": 30.8704545,
                "pitch": 37,
                "velocity": 51,
                "duration": 0.4886364,
                "tempo": 120.0
            },
            {
                "start_time": 30.8886364,
                "end_time": 31.3795455,
                "pitch": 37,
                "velocity": 51,
                "duration": 0.4909091,
                "tempo": 120.0
            },
            {
                "start_time": 31.3954545,
                "end_time": 31.8863636,
                "pitch": 36,
                "velocity": 51,
                "duration": 0.4909091,
                "tempo": 120.0
            },
            {
                "start_time": 31.9022727,
                "end_time": 32.3931818,
                "pitch": 37,
                "velocity": 51,
                "duration": 0.4909091,
                "tempo": 120.0
            },
            {
                "start_time": 32.4090909,
                "end_time": 32.9,
                "pitch": 39,
                "velocity": 51,
                "duration": 0.4909091,
                "tempo": 120.0
            },
            {
                "start_time": 32.9159091,
                "end_time": 33.4068182,
                "pitch": 39,
                "velocity": 51,
                "duration": 0.4909091,
                "tempo": 120.0
            },
            {
                "start_time": 33.4227273,
                "end_time": 33.9136364,
                "pitch": 39,
                "velocity": 51,
                "duration": 0.4909091,
                "tempo": 120.0
            },
            {
                "start_time": 33.9318182,
                "end_time": 34.4204545,
                "pitch": 41,
                "velocity": 51,
                "duration": 0.4886364,
                "tempo": 120.0
            },
            {
                "start_time": 34.4386364,
                "end_time": 34.9272727,
                "pitch": 39,
                "velocity": 51,
                "duration": 0.4886364,
                "tempo": 120.0
            },
            {
                "start_time": 34.9454545,
                "end_time": 35.4363636,
                "pitch": 39,
                "velocity": 51,
                "duration": 0.4909091,
                "tempo": 120.0
            },
            {
                "start_time": 35.4522727,
                "end_time": 35.9409091,
                "pitch": 39,
                "velocity": 51,
                "duration": 0.4886364,
                "tempo": 120.0
            },
            {
                "start_time": 35.9590909,
                "end_time": 36.45,
                "pitch": 39,
                "velocity": 51,
                "duration": 0.4909091,
                "tempo": 120.0
            },
            {
                "start_time": 36.4659091,
                "end_time": 36.9568182,
                "pitch": 37,
                "velocity": 51,
                "duration": 0.4909091,
                "tempo": 120.0
            },
            {
                "start_time": 36.9727273,
                "end_time": 37.4636364,
                "pitch": 37,
                "velocity": 51,
                "duration": 0.4909091,
                "tempo": 120.0
            },
            {
                "start_time": 37.4795455,
                "end_time": 37.9704545,
                "pitch": 37,
                "velocity": 51,
                "duration": 0.4909091,
                "tempo": 120.0
            },
            {
                "start_time": 37.9863636,
                "end_time": 38.4772727,
                "pitch": 37,
                "velocity": 51,
                "duration": 0.4909091,
                "tempo": 120.0
            },
            {
                "start_time": 38.4954545,
                "end_time": 38.9840909,
                "pitch": 39,
                "velocity": 51,
                "duration": 0.4886364,
                "tempo": 120.0
            },
            {
                "start_time": 39.0022727,
                "end_time": 39.4909091,
                "pitch": 39,
                "velocity": 51,
                "duration": 0.4886364,
                "tempo": 120.0
            },
            {
                "start_time": 39.5090909,
                "end_time": 39.9977273,
                "pitch": 39,
                "velocity": 51,
                "duration": 0.4886364,
                "tempo": 120.0
            },
            {
                "start_time": 40.0159091,
                "end_time": 40.5068182,
                "pitch": 39,
                "velocity": 51,
                "duration": 0.4909091,
                "tempo": 120.0
            },
            {
                "start_time": 40.5227273,
                "end_time": 41.0136364,
                "pitch": 32,
                "velocity": 51,
                "duration": 0.4909091,
                "tempo": 120.0
            },
            {
                "start_time": 41.0295455,
                "end_time": 41.5204545,
                "pitch": 32,
                "velocity": 51,
                "duration": 0.4909091,
                "tempo": 120.0
            },
            {
                "start_time": 41.5363636,
                "end_time": 42.0272727,
                "pitch": 32,
                "velocity": 51,
                "duration": 0.4909091,
                "tempo": 120.0
            },
            {
                "start_time": 42.0431818,
                "end_time": 42.2840909,
                "pitch": 34,
                "velocity": 51,
                "duration": 0.2409091,
                "tempo": 120.0
            },
            {
                "start_time": 42.3,
                "end_time": 42.5340909,
                "pitch": 36,
                "velocity": 51,
                "duration": 0.2340909,
                "tempo": 120.0
            },
            {
                "start_time": 42.5522727,
                "end_time": 43.0409091,
                "pitch": 37,
                "velocity": 51,
                "duration": 0.4886364,
                "tempo": 120.0
            },
            {
                "start_time": 43.0590909,
                "end_time": 43.5477273,
                "pitch": 37,
                "velocity": 51,
                "duration": 0.4886364,
                "tempo": 120.0
            },
            {
                "start_time": 43.5659091,
                "end_time": 44.0545455,
                "pitch": 37,
                "velocity": 51,
                "duration": 0.4886364,
                "tempo": 120.0
            },
            {
                "start_time": 44.0727273,
                "end_time": 44.5636364,
                "pitch": 37,
                "velocity": 51,
                "duration": 0.4909091,
                "tempo": 120.0
            },
            {
                "start_time": 44.5795455,
                "end_time": 45.0681818,
                "pitch": 39,
                "velocity": 51,
                "duration": 0.4886364,
                "tempo": 120.0
            },
            {
                "start_time": 45.0863636,
                "end_time": 45.5772727,
                "pitch": 37,
                "velocity": 51,
                "duration": 0.4909091,
                "tempo": 120.0
            },
            {
                "start_time": 45.5931818,
                "end_time": 46.0840909,
                "pitch": 39,
                "velocity": 51,
                "duration": 0.4909091,
                "tempo": 120.0
            },
            {
                "start_time": 46.1,
                "end_time": 46.5909091,
                "pitch": 39,
                "velocity": 51,
                "duration": 0.4909091,
                "tempo": 120.0
            },
            {
                "start_time": 46.6068182,
                "end_time": 47.0977273,
                "pitch": 39,
                "velocity": 51,
                "duration": 0.4909091,
                "tempo": 120.0
            },
            {
                "start_time": 47.1159091,
                "end_time": 47.6045455,
                "pitch": 39,
                "velocity": 51,
                "duration": 0.4886364,
                "tempo": 120.0
            },
            {
                "start_time": 47.6227273,
                "end_time": 48.1113636,
                "pitch": 37,
                "velocity": 51,
                "duration": 0.4886364,
                "tempo": 120.0
            },
            {
                "start_time": 48.1295455,
                "end_time": 48.6159091,
                "pitch": 39,
                "velocity": 51,
                "duration": 0.4863636,
                "tempo": 120.0
            }
        ]
    }
}