{
    "mood": "sad",
    "instruments": {
        "Electric Guitar (clean)": [
            {
                "start_time": 0.0090909,
                "end_time": 0.6931818,
                "pitch": 45,
                "velocity": 64,
                "duration": 0.6840909,
                "tempo": 120.0
            },
            {
                "start_time": 0.7113636,
                "end_time": 1.05,
                "pitch": 45,
                "velocity": 64,
                "duration": 0.3386364,
                "tempo": 120.0
            },
            {
                "start_time": 1.0659091,
                "end_time": 2.4795455,
                "pitch": 43,
                "velocity": 64,
                "duration": 1.4136364,
                "tempo": 120.0
            },
            {
                "start_time": 2.4977273,
                "end_time": 2.8522727,
                "pitch": 43,
                "velocity": 64,
                "duration": 0.3545455,
                "tempo": 120.0
            },
            {
                "start_time": 2.8704545,
                "end_time": 3.5727273,
                "pitch": 48,
                "velocity": 64,
                "duration": 0.7022727,
                "tempo": 120.0
            },
            {
                "start_time": 3.5886364,
                "end_time": 3.925,
                "pitch": 48,
                "velocity": 64,
                "duration": 0.3363636,
                "tempo": 120.0
            },
            {
                "start_time": 3.9568182,
                "end_time": 5.375,
                "pitch": 46,
                "velocity": 64,
                "duration": 1.4181818,
                "tempo": 120.0
            },
            {
                "start_time": 5.3931818,
                "end_time": 5.7227273,
                "pitch": 46,
                "velocity": 64,
                "duration": 0.3295455,
                "tempo": 120.0
            },
            {
                "start_time": 5.7568182,
                "end_time": 6.4681818,
                "pitch": 45,
                "velocity": 64,
                "duration": 0.7113636,
                "tempo": 120.0
            },
            {
                "start_time": 6.4840909,
                "end_time": 6.8181818,
                "pitch": 45,
                "velocity": 64,
                "duration": 0.3340909,
                "tempo": 120.0
            },
            {
                "start_time": 6.8363636,
                "end_time": 8.2659091,
                "pitch": 43,
                "velocity": 64,
                "duration": 1.4295455,
                "tempo": 120.0
            },
            {
                "start_time": 8.2840909,
                "end_time": 8.6181818,
                "pitch": 43,
                "velocity": 64,
                "duration": 0.3340909,
                "tempo": 120.0
            },
            {
                "start_time": 8.6340909,
                "end_time": 9.3386364,
                "pitch": 48,
                "velocity": 64,
                "duration": 0.7045455,
                "tempo": 120.0
            },
            {
                "start_time": 9.3704545,
                "end_time": 9.7090909,
                "pitch": 48,
                "velocity": 64,
                "duration": 0.3386364,
                "tempo": 120.0
            },
            {
                "start_time": 9.7272727,
                "end_time": 11.1545455,
                "pitch": 46,
                "velocity": 64,
                "duration": 1.4272727,
                "tempo": 120.0
            },
            {
                "start_time": 11.1863636,
                "end_time": 11.7045455,
                "pitch": 46,
                "velocity": 64,
                "duration": 0.5181818,
                "tempo": 120.0
            },
            {
                "start_time": 11.7204545,
                "end_time": 12.4159091,
                "pitch": 40,
                "velocity": 64,
                "duration": 0.6954545,
                "tempo": 120.0
            },
            {
                "start_time": 12.4340909,
                "end_time": 12.7840909,
                "pitch": 52,
                "velocity": 64,
                "duration": 0.35,
                "tempo": 120.0
            },
            {
                "start_time": 12.8022727,
                "end_time": 12.9522727,
                "pitch": 40,
                "velocity": 64,
                "duration": 0.15,
                "tempo": 120.0
            },
            {
                "start_time": 12.9863636,
                "end_time": 13.1386364,
                "pitch": 41,
                "velocity": 64,
                "duration": 0.1522727,
                "tempo": 120.0
            },
            {
                "start_time": 13.1545455,
                "end_time": 13.8659091,
                "pitch": 41,
                "velocity": 64,
                "duration": 0.7113636,
                "tempo": 120.0
            },
            {
                "start_time": 13.8977273,
                "end_time": 14.2340909,
                "pitch": 53,
                "velocity": 64,
                "duration": 0.3363636,
                "tempo": 120.0
            },
            {
                "start_time": 14.25,
                "end_time": 14.4181818,
                "pitch": 41,
                "velocity": 64,
                "duration": 0.1681818,
                "tempo": 120.0
            },
            {
                "start_time": 14.4340909,
                "end_time": 17.2795455,
                "pitch": 40,
                "velocity": 64,
                "duration": 2.8454545,
                "tempo": 120.0
            }
        ],
        "Lead 2 (sawtooth)": [
            {
                "start_time": 0.0090909,
                "end_time": 0.025,
                "pitch": 78,
                "velocity": 40,
                "duration": 0.0159091,
                "tempo": 120.0
            },
            {
                "start_time": 0.0590909,
                "end_time": 0.7590909,
                "pitch": 64,
                "velocity": 40,
                "duration": 0.7,
                "tempo": 120.0
            },
            {
                "start_time": 0.775,
                "end_time": 1.0977273,
                "pitch": 64,
                "velocity": 40,
                "duration": 0.3227273,
                "tempo": 120.0
            },
            {
                "start_time": 1.1136364,
                "end_time": 2.5477273,
                "pitch": 62,
                "velocity": 40,
                "duration": 1.4340909,
                "tempo": 120.0
            },
            {
                "start_time": 2.5659091,
                "end_time": 2.9022727,
                "pitch": 62,
                "velocity": 40,
                "duration": 0.3363636,
                "tempo": 120.0
            },
            {
                "start_time": 2.9204545,
                "end_time": 3.6227273,
                "pitch": 67,
                "velocity": 40,
                "duration": 0.7022727,
                "tempo": 120.0
            },
            {
                "start_time": 3.6568182,
                "end_time": 3.9909091,
                "pitch": 67,
                "velocity": 40,
                "duration": 0.3340909,
                "tempo": 120.0
            },
            {
                "start_time": 4.0068182,
                "end_time": 5.425,
                "pitch": 65,
                "velocity": 40,
                "duration": 1.4181818,
                "tempo": 120.0
            },
            {
                "start_time": 5.4590909,
                "end_time": 5.7909091,
                "pitch": 65,
                "velocity": 40,
                "duration": 0.3318182,
                "tempo": 120.0
            },
            {
                "start_time": 5.8068182,
                "end_time": 6.5181818,
                "pitch": 64,
                "velocity": 40,
                "duration": 0.7113636,
                "tempo": 120.0
            },
            {
                "start_time": 6.5340909,
                "end_time": 6.8863636,
                "pitch": 64,
                "velocity": 40,
                "duration": 0.3522727,
                "tempo": 120.0
            },
            {
                "start_time": 6.9022727,
                "end_time": 8.3159091,
                "pitch": 62,
                "velocity": 40,
                "duration": 1.4136364,
                "tempo": 120.0
            },
            {
                "start_time": 8.3340909,
                "end_time": 8.6840909,
                "pitch": 62,
                "velocity": 40,
                "duration": 0.35,
                "tempo": 120.0
            },
            {
                "start_time": 8.7022727,
                "end_time": 9.4045455,
                "pitch": 67,
                "velocity": 40,
                "duration": 0.7022727,
                "tempo": 120.0
            },
            {
                "start_time": 9.4227273,
                "end_time": 9.7772727,
                "pitch": 67,
                "velocity": 40,
                "duration": 0.3545455,
                "tempo": 120.0
            },
            {
                "start_time": 9.7954545,
                "end_time": 11.2204545,
                "pitch": 65,
                "velocity": 40,
                "duration": 1.425,
                "tempo": 120.0
            },
            {
                "start_time": 11.2363636,
                "end_time": 11.7545455,
                "pitch": 65,
                "velocity": 40,
                "duration": 0.5181818,
                "tempo": 120.0
            },
            {
                "start_time": 11.7863636,
                "end_time": 12.4840909,
                "pitch": 81,
                "velocity": 40,
                "duration": 0.6977273,
                "tempo": 120.0
            },
            {
                "start_time": 12.5,
                "end_time": 12.6522727,
                "pitch": 79,
                "velocity": 40,
                "duration": 0.1522727,
                "tempo": 120.0
            },
            {
                "start_time": 12.6840909,
                "end_time": 12.8363636,
                "pitch": 81,
                "velocity": 40,
                "duration": 0.1522727,
                "tempo": 120.0
            },
            {
                "start_time": 12.8522727,
                "end_time": 13.3931818,
                "pitch": 79,
                "velocity": 40,
                "duration": 0.5409091,
                "tempo": 120.0
            },
            {
                "start_time": 13.4090909,
                "end_time": 13.9318182,
                "pitch": 86,
                "velocity": 40,
                "duration": 0.5227273,
                "tempo": 120.0
            },
            {
                "start_time": 13.9477273,
                "end_time": 14.1159091,
                "pitch": 84,
                "velocity": 40,
                "duration": 0.1681818,
                "tempo": 120.0
            },
            {
                "start_time": 14.1318182,
                "end_time": 14.3,
                "pitch": 84,
                "velocity": 40,
                "duration": 0.1681818,
                "tempo": 120.0
            },
            {
                "start_time": 14.3159091,
                "end_time": 14.4681818,
                "pitch": 84,
                "velocity": 40,
                "duration": 0.1522727,
                "tempo": 120.0
            },
            {
                "start_time": 14.5,
                "end_time": 17.3295455,
                "pitch": 81,
                "velocity": 40,
                "duration": 2.8295455,
                "tempo": 120.0
            }
        ]
    }
}