{
    "mood": "sad",
    "instruments": {
        "Oboe": [
            {
                "start_time": 0.0,
                "end_time": 0.0159091,
                "pitch": 56,
                "velocity": 51,
                "duration": 0.0159091,
                "tempo": 120.0
            },
            {
                "start_time": 0.0159091,
                "end_time": 0.0340909,
                "pitch": 57,
                "velocity": 51,
                "duration": 0.0181818,
                "tempo": 120.0
            },
            {
                "start_time": 0.0340909,
                "end_time": 0.05,
                "pitch": 58,
                "velocity": 51,
                "duration": 0.0159091,
                "tempo": 120.0
            },
            {
                "start_time": 0.05,
                "end_time": 0.0659091,
                "pitch": 59,
                "velocity": 51,
                "duration": 0.0159091,
                "tempo": 120.0
            },
            {
                "start_time": 0.0659091,
                "end_time": 0.0818182,
                "pitch": 60,
                "velocity": 51,
                "duration": 0.0159091,
                "tempo": 120.0
            },
            {
                "start_time": 0.0818182,
                "end_time": 0.2295455,
                "pitch": 63,
                "velocity": 51,
                "duration": 0.1477273,
                "tempo": 120.0
            },
            {
                "start_time": 0.2931818,
                "end_time": 0.4613636,
                "pitch": 62,
                "velocity": 51,
                "duration": 0.1681818,
                "tempo": 120.0
            },
            {
                "start_time": 0.4931818,
                "end_time": 0.7931818,
                "pitch": 59,
                "velocity": 51,
                "duration": 0.3,
                "tempo": 120.0
            },
            {
                "start_time": 0.8931818,
                "end_time": 1.1954545,
                "pitch": 60,
                "velocity": 51,
                "duration": 0.3022727,
                "tempo": 120.0
            },
            {
                "start_time": 1.2954545,
                "end_time": 1.3272727,
                "pitch": 56,
                "velocity": 51,
                "duration": 0.0318182,
                "tempo": 120.0
            },
            {
                "start_time": 1.3272727,
                "end_time": 1.3613636,
                "pitch": 57,
                "velocity": 51,
                "duration": 0.0340909,
                "tempo": 120.0
            },
            {
                "start_time": 1.3613636,
                "end_time": 1.3954545,
                "pitch": 58,
                "velocity": 51,
                "duration": 0.0340909,
                "tempo": 120.0
            },
            {
                "start_time": 1.3954545,
                "end_time": 1.4272727,
                "pitch": 59,
                "velocity": 51,
                "duration": 0.0318182,
                "tempo": 120.0
            },
            {
                "start_time": 1.4272727,
                "end_time": 1.4613636,
                "pitch": 60,
                "velocity": 51,
                "duration": 0.0340909,
                "tempo": 120.0
            },
            {
                "start_time": 1.4613636,
                "end_time": 1.4954545,
                "pitch": 61,
                "velocity": 51,
                "duration": 0.0340909,
                "tempo": 120.0
            },
            {
                "start_time": 1.4954545,
                "end_time": 1.5272727,
                "pitch": 62,
                "velocity": 51,
                "duration": 0.0318182,
                "tempo": 120.0
            },
            {
                "start_time": 1.5272727,
                "end_time": 1.5613636,
                "pitch": 63,
                "velocity": 51,
                "duration": 0.0340909,
                "tempo": 120.0
            },
            {
                "start_time": 1.5613636,
                "end_time": 1.5954545,
                "pitch": 64,
                "velocity": 51,
                "duration": 0.0340909,
                "tempo": 120.0
            },
            {
                "start_time": 1.5954545,
                "end_time": 1.6272727,
                "pitch": 65,
                "velocity": 51,
                "duration": 0.0318182,
                "tempo": 120.0
            },
            {
                "start_time": 1.6272727,
                "end_time": 1.6613636,
                "pitch": 66,
                "velocity": 51,
                "duration": 0.0340909,
                "tempo": 120.0
            },
            {
                "start_time": 1.6613636,
                "end_time": 1.6954545,
                "pitch": 67,
                "velocity": 51,
                "duration": 0.0340909,
                "tempo": 120.0
            },
            {
                "start_time": 1.6954545,
                "end_time": 1.9954545,
                "pitch": 68,
                "velocity": 51,
                "duration": 0.3,
                "tempo": 120.0
            },
            {
                "start_time": 2.0954545,
                "end_time": 2.4954545,
                "pitch": 67,
                "velocity": 51,
                "duration": 0.4,
                "tempo": 120.0
            }
        ],
        "Lead 2 (sawtooth)": [
            {
                "start_time": 0.0,
                "end_time": 0.0159091,
                "pitch": 80,
                "velocity": 51,
                "duration": 0.0159091,
                "tempo": 120.0
            },
            {
                "start_time": 0.0159091,
                "end_time": 0.0340909,
                "pitch": 81,
                "velocity": 51,
                "duration": 0.0181818,
                "tempo": 120.0
            },
            {
                "start_time": 0.0340909,
                "end_time": 0.05,
                "pitch": 82,
                "velocity": 51,
                "duration": 0.0159091,
                "tempo": 120.0
            },
            {
                "start_time": 0.05,
                "end_time": 0.0659091,
                "pitch": 83,
                "velocity": 51,
                "duration": 0.0159091,
                "tempo": 120.0
            },
            {
                "start_time": 0.0659091,
                "end_time": 0.0818182,
                "pitch": 84,
                "velocity": 51,
                "duration": 0.0159091,
                "tempo": 120.0
            },
            {
                "start_time": 0.0818182,
                "end_time": 0.2295455,
                "pitch": 87,
                "velocity": 51,
                "duration": 0.1477273,
                "tempo": 120.0
            },
            {
                "start_time": 0.2931818,
                "end_time": 0.4613636,
                "pitch": 86,
                "velocity": 51,
                "duration": 0.1681818,
                "tempo": 120.0
            },
            {
                "start_time": 0.4931818,
                "end_time": 0.7931818,
                "pitch": 83,
                "velocity": 51,
                "duration": 0.3,
                "tempo": 120.0
            },
            {
                "start_time": 0.8931818,
                "end_time": 1.1954545,
                "pitch": 84,
                "velocity": 51,
                "duration": 0.3022727,
                "tempo": 120.0
            },
            {
                "start_time": 1.2954545,
                "end_time": 1.3272727,
                "pitch": 80,
                "velocity": 51,
                "duration": 0.0318182,
                "tempo": 120.0
            },
            {
                "start_time": 1.3272727,
                "end_time": 1.3613636,
                "pitch": 81,
                "velocity": 51,
                "duration": 0.0340909,
                "tempo": 120.0
            },
            {
                "start_time": 1.3613636,
                "end_time": 1.3954545,
                "pitch": 82,
                "velocity": 51,
                "duration": 0.0340909,
                "tempo": 120.0
            },
            {
                "start_time": 1.3954545,
                "end_time": 1.4272727,
                "pitch": 83,
                "velocity": 51,
                "duration": 0.0318182,
                "tempo": 120.0
            },
            {
                "start_time": 1.4272727,
                "end_time": 1.4613636,
                "pitch": 84,
                "velocity": 51,
                "duration": 0.0340909,
                "tempo": 120.0
            },
            {
                "start_time": 1.4613636,
                "end_time": 1.4954545,
                "pitch": 85,
                "velocity": 51,
                "duration": 0.0340909,
                "tempo": 120.0
            },
            {
                "start_time": 1.4954545,
                "end_time": 1.5272727,
                "pitch": 86,
                "velocity": 51,
                "duration": 0.0318182,
                "tempo": 120.0
            },
            {
                "start_time": 1.5272727,
                "end_time": 1.5613636,
                "pitch": 87,
                "velocity": 51,
                "duration": 0.0340909,
                "tempo": 120.0
            },
            {
                "start_time": 1.5613636,
                "end_time": 1.5954545,
                "pitch": 88,
                "velocity": 51,
                "duration": 0.0340909,
                "tempo": 120.0
            },
            {
                "start_time": 1.5954545,
                "end_time": 1.6272727,
                "pitch": 89,
                "velocity": 51,
                "duration": 0.0318182,
                "tempo": 120.0
            },
            {
                "start_time": 1.6272727,
                "end_time": 1.6613636,
                "pitch": 90,
                "velocity": 51,
                "duration": 0.0340909,
                "tempo": 120.0
            },
            {
                "start_time": 1.6613636,
                "end_time": 1.6954545,
                "pitch": 91,
                "velocity": 51,
                "duration": 0.0340909,
                "tempo": 120.0
            },
            {
                "start_time": 1.6954545,
                "end_time": 1.9954545,
                "pitch": 92,
                "velocity": 51,
                "duration": 0.3,
                "tempo": 120.0
            },
            {
                "start_time": 2.0954545,
                "end_time": 2.4954545,
                "pitch": 91,
                "velocity": 51,
                "duration": 0.4,
                "tempo": 120.0
            }
        ]
    }
}