{
    "mood": "sad",
    "instruments": {
        "Acoustic Bass": [
            {
                "start_time": 0.0,
                "end_time": 5.5931818,
                "pitch": 26,
                "velocity": 51,
                "duration": 5.5931818,
                "tempo": 120.0
            },
            {
                "start_time": 5.6272727,
                "end_time": 11.2909091,
                "pitch": 26,
                "velocity": 51,
                "duration": 5.6636364,
                "tempo": 120.0
            },
            {
                "start_time": 11.3068182,
                "end_time": 16.9568182,
                "pitch": 26,
                "velocity": 51,
                "duration": 5.65,
                "tempo": 120.0
            },
            {
                "start_time": 16.9727273,
                "end_time": 22.6295455,
                "pitch": 26,
                "velocity": 51,
                "duration": 5.6568182,
                "tempo": 120.0
            },
            {
                "start_time": 22.6795455,
                "end_time": 28.3409091,
                "pitch": 26,
                "velocity": 51,
                "duration": 5.6613636,
                "tempo": 120.0
            },
            {
                "start_time": 28.375,
                "end_time": 34.0636364,
                "pitch": 26,
                "velocity": 51,
                "duration": 5.6886364,
                "tempo": 120.0
            },
            {
                "start_time": 34.0636364,
                "end_time": 39.7136364,
                "pitch": 26,
                "velocity": 51,
                "duration": 5.65,
                "tempo": 120.0
            },
            {
                "start_time": 39.7613636,
                "end_time": 45.4,
                "pitch": 26,
                "velocity": 51,
                "duration": 5.6386364,
                "tempo": 120.0
            },
            {
                "start_time": 45.4318182,
                "end_time": 51.1022727,
                "pitch": 26,
                "velocity": 51,
                "duration": 5.6704545,
                "tempo": 120.0
            },
            {
                "start_time": 51.1022727,
                "end_time": 56.7590909,
                "pitch": 26,
                "velocity": 51,
                "duration": 5.6568182,
                "tempo": 120.0
            },
            {
                "start_time": 56.8090909,
                "end_time": 62.4772727,
                "pitch": 26,
                "velocity": 51,
                "duration": 5.6681818,
                "tempo": 120.0
            },
            {
                "start_time": 62.5113636,
                "end_time": 68.1818182,
                "pitch": 26,
                "velocity": 51,
                "duration": 5.6704545,
                "tempo": 120.0
            },
            {
                "start_time": 68.1818182,
                "end_time": 73.8659091,
                "pitch": 26,
                "velocity": 51,
                "duration": 5.6840909,
                "tempo": 120.0
            },
            {
                "start_time": 73.9159091,
                "end_time": 76.95,
                "pitch": 26,
                "velocity": 51,
                "duration": 3.0340909,
                "tempo": 120.0
            }
        ],
        "Lead 2 (sawtooth)": [
            {
                "start_time": 0.0,
                "end_time": 2.1681818,
                "pitch": 16,
                "velocity": 51,
                "duration": 2.1681818,
                "tempo": 120.0
            },
            {
                "start_time": 2.1840909,
                "end_time": 2.2340909,
                "pitch": 16,
                "velocity": 51,
                "duration": 0.05,
                "tempo": 120.0
            },
            {
                "start_time": 2.2681818,
                "end_time": 4.5727273,
                "pitch": 70,
                "velocity": 51,
                "duration": 2.3045455,
                "tempo": 120.0
            },
            {
                "start_time": 4.5886364,
                "end_time": 5.5409091,
                "pitch": 56,
                "velocity": 51,
                "duration": 0.9522727,
                "tempo": 120.0
            },
            {
                "start_time": 5.5590909,
                "end_time": 6.4568182,
                "pitch": 72,
                "velocity": 51,
                "duration": 0.8977273,
                "tempo": 120.0
            },
            {
                "start_time": 6.475,
                "end_time": 6.4909091,
                "pitch": 16,
                "velocity": 51,
                "duration": 0.0159091,
                "tempo": 120.0
            },
            {
                "start_time": 6.4909091,
                "end_time": 14.6590909,
                "pitch": 70,
                "velocity": 51,
                "duration": 8.1681818,
                "tempo": 120.0
            },
            {
                "start_time": 14.675,
                "end_time": 16.9568182,
                "pitch": 70,
                "velocity": 51,
                "duration": 2.2818182,
                "tempo": 120.0
            },
            {
                "start_time": 16.9727273,
                "end_time": 17.95,
                "pitch": 56,
                "velocity": 51,
                "duration": 0.9772727,
                "tempo": 120.0
            },
            {
                "start_time": 18.0022727,
                "end_time": 18.8727273,
                "pitch": 72,
                "velocity": 51,
                "duration": 0.8704545,
                "tempo": 120.0
            },
            {
                "start_time": 18.8727273,
                "end_time": 18.9409091,
                "pitch": 16,
                "velocity": 51,
                "duration": 0.0681818,
                "tempo": 120.0
            },
            {
                "start_time": 18.9409091,
                "end_time": 27.0454545,
                "pitch": 70,
                "velocity": 51,
                "duration": 8.1045455,
                "tempo": 120.0
            },
            {
                "start_time": 27.0454545,
                "end_time": 29.3454545,
                "pitch": 70,
                "velocity": 51,
                "duration": 2.3,
                "tempo": 120.0
            },
            {
                "start_time": 29.4,
                "end_time": 30.3954545,
                "pitch": 56,
                "velocity": 51,
                "duration": 0.9954545,
                "tempo": 120.0
            },
            {
                "start_time": 30.4295455,
                "end_time": 31.2454545,
                "pitch": 72,
                "velocity": 51,
                "duration": 0.8159091,
                "tempo": 120.0
            },
            {
                "start_time": 31.2931818,
                "end_time": 31.3386364,
                "pitch": 16,
                "velocity": 51,
                "duration": 0.0454545,
                "tempo": 120.0
            },
            {
                "start_time": 31.3386364,
                "end_time": 39.4590909,
                "pitch": 70,
                "velocity": 51,
                "duration": 8.1204545,
                "tempo": 120.0
            },
            {
                "start_time": 39.5090909,
                "end_time": 41.8068182,
                "pitch": 70,
                "velocity": 51,
                "duration": 2.2977273,
                "tempo": 120.0
            },
            {
                "start_time": 41.8409091,
                "end_time": 42.7977273,
                "pitch": 56,
                "velocity": 51,
                "duration": 0.9568182,
                "tempo": 120.0
            },
            {
                "start_time": 42.7977273,
                "end_time": 43.6613636,
                "pitch": 72,
                "velocity": 51,
                "duration": 0.8636364,
                "tempo": 120.0
            },
            {
                "start_time": 43.6931818,
                "end_time": 43.7113636,
                "pitch": 16,
                "velocity": 51,
                "duration": 0.0181818,
                "tempo": 120.0
            },
            {
                "start_time": 43.7113636,
                "end_time": 51.8818182,
                "pitch": 70,
                "velocity": 51,
                "duration": 8.1704545,
                "tempo": 120.0
            },
            {
                "start_time": 51.9181818,
                "end_time": 54.1931818,
                "pitch": 70,
                "velocity": 51,
                "duration": 2.275,
                "tempo": 120.0
            },
            {
                "start_time": 54.1931818,
                "end_time": 55.1454545,
                "pitch": 56,
                "velocity": 51,
                "duration": 0.9522727,
                "tempo": 120.0
            },
            {
                "start_time": 55.1954545,
                "end_time": 56.0727273,
                "pitch": 72,
                "velocity": 51,
                "duration": 0.8772727,
                "tempo": 120.0
            },
            {
                "start_time": 56.0727273,
                "end_time": 56.1409091,
                "pitch": 16,
                "velocity": 51,
                "duration": 0.0681818,
                "tempo": 120.0
            },
            {
                "start_time": 56.1409091,
                "end_time": 64.3045455,
                "pitch": 70,
                "velocity": 51,
                "duration": 8.1636364,
                "tempo": 120.0
            },
            {
                "start_time": 64.3045455,
                "end_time": 66.5772727,
                "pitch": 70,
                "velocity": 51,
                "duration": 2.2727273,
                "tempo": 120.0
            },
            {
                "start_time": 66.6295455,
                "end_time": 67.5863636,
                "pitch": 56,
                "velocity": 51,
                "duration": 0.9568182,
                "tempo": 120.0
            },
            {
                "start_time": 67.6181818,
                "end_time": 68.4863636,
                "pitch": 72,
                "velocity": 51,
                "duration": 0.8681818,
                "tempo": 120.0
            },
            {
                "start_time": 68.5409091,
                "end_time": 68.5931818,
                "pitch": 16,
                "velocity": 51,
                "duration": 0.0522727,
                "tempo": 120.0
            },
            {
                "start_time": 68.5931818,
                "end_time": 76.6636364,
                "pitch": 70,
                "velocity": 51,
                "duration": 8.0704545,
                "tempo": 120.0
            }
        ],
        "Clarinet": [
            {
                "start_time": 5.4909091,
                "end_time": 6.5431818,
                "pitch": 16,
                "velocity": 51,
                "duration": 1.0522727,
                "tempo": 120.0
            },
            {
                "start_time": 6.5431818,
                "end_time": 6.8113636,
                "pitch": 70,
                "velocity": 51,
                "duration": 0.2681818,
                "tempo": 120.0
            },
            {
                "start_time": 6.8113636,
                "end_time": 7.0886364,
                "pitch": 72,
                "velocity": 51,
                "duration": 0.2772727,
                "tempo": 120.0
            },
            {
                "start_time": 7.0886364,
                "end_time": 7.425,
                "pitch": 74,
                "velocity": 51,
                "duration": 0.3363636,
                "tempo": 120.0
            },
            {
                "start_time": 7.425,
                "end_time": 7.8318182,
                "pitch": 77,
                "velocity": 51,
                "duration": 0.4068182,
                "tempo": 120.0
            },
            {
                "start_time": 7.8318182,
                "end_time": 7.9,
                "pitch": 79,
                "velocity": 51,
                "duration": 0.0681818,
                "tempo": 120.0
            },
            {
                "start_time": 7.9,
                "end_time": 8.1545455,
                "pitch": 79,
                "velocity": 51,
                "duration": 0.2545455,
                "tempo": 120.0
            },
            {
                "start_time": 8.1545455,
                "end_time": 8.425,
                "pitch": 81,
                "velocity": 51,
                "duration": 0.2704545,
                "tempo": 120.0
            },
            {
                "start_time": 8.425,
                "end_time": 8.7090909,
                "pitch": 84,
                "velocity": 51,
                "duration": 0.2840909,
                "tempo": 120.0
            },
            {
                "start_time": 8.7090909,
                "end_time": 9.0454545,
                "pitch": 86,
                "velocity": 51,
                "duration": 0.3363636,
                "tempo": 120.0
            },
            {
                "start_time": 9.0454545,
                "end_time": 9.4363636,
                "pitch": 88,
                "velocity": 51,
                "duration": 0.3909091,
                "tempo": 120.0
            },
            {
                "start_time": 9.4363636,
                "end_time": 9.6363636,
                "pitch": 90,
                "velocity": 51,
                "duration": 0.2,
                "tempo": 120.0
            },
            {
                "start_time": 9.6363636,
                "end_time": 9.8545455,
                "pitch": 91,
                "velocity": 51,
                "duration": 0.2181818,
                "tempo": 120.0
            },
            {
                "start_time": 9.8545455,
                "end_time": 10.1227273,
                "pitch": 93,
                "velocity": 51,
                "duration": 0.2681818,
                "tempo": 120.0
            },
            {
                "start_time": 10.1227273,
                "end_time": 10.4386364,
                "pitch": 95,
                "velocity": 51,
                "duration": 0.3159091,
                "tempo": 120.0
            },
            {
                "start_time": 10.4386364,
                "end_time": 10.7727273,
                "pitch": 98,
                "velocity": 51,
                "duration": 0.3340909,
                "tempo": 120.0
            },
            {
                "start_time": 10.7727273,
                "end_time": 10.9909091,
                "pitch": 100,
                "velocity": 51,
                "duration": 0.2181818,
                "tempo": 120.0
            },
            {
                "start_time": 10.9909091,
                "end_time": 14.5590909,
                "pitch": 89,
                "velocity": 51,
                "duration": 3.5681818,
                "tempo": 120.0
            },
            {
                "start_time": 14.5590909,
                "end_time": 14.6931818,
                "pitch": 16,
                "velocity": 51,
                "duration": 0.1340909,
                "tempo": 120.0
            },
            {
                "start_time": 14.6931818,
                "end_time": 14.8272727,
                "pitch": 71,
                "velocity": 51,
                "duration": 0.1340909,
                "tempo": 120.0
            },
            {
                "start_time": 14.8272727,
                "end_time": 15.0090909,
                "pitch": 73,
                "velocity": 51,
                "duration": 0.1818182,
                "tempo": 120.0
            },
            {
                "start_time": 15.0090909,
                "end_time": 15.1613636,
                "pitch": 75,
                "velocity": 51,
                "duration": 0.1522727,
                "tempo": 120.0
            },
            {
                "start_time": 15.1613636,
                "end_time": 15.2931818,
                "pitch": 77,
                "velocity": 51,
                "duration": 0.1318182,
                "tempo": 120.0
            },
            {
                "start_time": 15.2931818,
                "end_time": 15.4113636,
                "pitch": 79,
                "velocity": 51,
                "duration": 0.1181818,
                "tempo": 120.0
            },
            {
                "start_time": 15.4113636,
                "end_time": 15.5477273,
                "pitch": 81,
                "velocity": 51,
                "duration": 0.1363636,
                "tempo": 120.0
            },
            {
                "start_time": 15.5477273,
                "end_time": 15.6840909,
                "pitch": 84,
                "velocity": 51,
                "duration": 0.1363636,
                "tempo": 120.0
            },
            {
                "start_time": 15.6840909,
                "end_time": 15.8363636,
                "pitch": 86,
                "velocity": 51,
                "duration": 0.1522727,
                "tempo": 120.0
            },
            {
                "start_time": 15.8363636,
                "end_time": 16.0204545,
                "pitch": 88,
                "velocity": 51,
                "duration": 0.1840909,
                "tempo": 120.0
            },
            {
                "start_time": 16.0204545,
                "end_time": 16.1045455,
                "pitch": 90,
                "velocity": 51,
                "duration": 0.0840909,
                "tempo": 120.0
            },
            {
                "start_time": 16.1045455,
                "end_time": 16.2227273,
                "pitch": 92,
                "velocity": 51,
                "duration": 0.1181818,
                "tempo": 120.0
            },
            {
                "start_time": 16.2227273,
                "end_time": 16.3545455,
                "pitch": 94,
                "velocity": 51,
                "duration": 0.1318182,
                "tempo": 120.0
            },
            {
                "start_time": 16.3545455,
                "end_time": 16.4886364,
                "pitch": 96,
                "velocity": 51,
                "duration": 0.1340909,
                "tempo": 120.0
            },
            {
                "start_time": 16.4886364,
                "end_time": 16.6386364,
                "pitch": 98,
                "velocity": 51,
                "duration": 0.15,
                "tempo": 120.0
            },
            {
                "start_time": 16.6386364,
                "end_time": 16.8227273,
                "pitch": 100,
                "velocity": 51,
                "duration": 0.1840909,
                "tempo": 120.0
            },
            {
                "start_time": 16.8227273,
                "end_time": 16.8909091,
                "pitch": 102,
                "velocity": 51,
                "duration": 0.0681818,
                "tempo": 120.0
            },
            {
                "start_time": 16.8909091,
                "end_time": 16.9068182,
                "pitch": 103,
                "velocity": 51,
                "duration": 0.0159091,
                "tempo": 120.0
            },
            {
                "start_time": 16.9068182,
                "end_time": 17.0227273,
                "pitch": 16,
                "velocity": 51,
                "duration": 0.1159091,
                "tempo": 120.0
            },
            {
                "start_time": 17.0227273,
                "end_time": 17.0409091,
                "pitch": 59,
                "velocity": 51,
                "duration": 0.0181818,
                "tempo": 120.0
            },
            {
                "start_time": 17.0409091,
                "end_time": 17.0909091,
                "pitch": 61,
                "velocity": 51,
                "duration": 0.05,
                "tempo": 120.0
            },
            {
                "start_time": 17.0909091,
                "end_time": 17.1568182,
                "pitch": 63,
                "velocity": 51,
                "duration": 0.0659091,
                "tempo": 120.0
            },
            {
                "start_time": 17.1568182,
                "end_time": 17.1727273,
                "pitch": 67,
                "velocity": 51,
                "duration": 0.0159091,
                "tempo": 120.0
            },
            {
                "start_time": 17.1727273,
                "end_time": 17.225,
                "pitch": 70,
                "velocity": 51,
                "duration": 0.0522727,
                "tempo": 120.0
            },
            {
                "start_time": 17.225,
                "end_time": 17.2409091,
                "pitch": 73,
                "velocity": 51,
                "duration": 0.0159091,
                "tempo": 120.0
            },
            {
                "start_time": 17.2409091,
                "end_time": 17.3068182,
                "pitch": 75,
                "velocity": 51,
                "duration": 0.0659091,
                "tempo": 120.0
            },
            {
                "start_time": 17.3068182,
                "end_time": 17.3568182,
                "pitch": 79,
                "velocity": 51,
                "duration": 0.05,
                "tempo": 120.0
            },
            {
                "start_time": 17.3568182,
                "end_time": 17.375,
                "pitch": 82,
                "velocity": 51,
                "duration": 0.0181818,
                "tempo": 120.0
            },
            {
                "start_time": 17.375,
                "end_time": 17.425,
                "pitch": 84,
                "velocity": 51,
                "duration": 0.05,
                "tempo": 120.0
            },
            {
                "start_time": 17.425,
                "end_time": 17.4409091,
                "pitch": 87,
                "velocity": 51,
                "duration": 0.0159091,
                "tempo": 120.0
            },
            {
                "start_time": 17.4409091,
                "end_time": 17.5090909,
                "pitch": 89,
                "velocity": 51,
                "duration": 0.0681818,
                "tempo": 120.0
            },
            {
                "start_time": 17.5090909,
                "end_time": 17.5613636,
                "pitch": 93,
                "velocity": 51,
                "duration": 0.0522727,
                "tempo": 120.0
            },
            {
                "start_time": 17.5613636,
                "end_time": 17.5795455,
                "pitch": 96,
                "velocity": 51,
                "duration": 0.0181818,
                "tempo": 120.0
            },
            {
                "start_time": 17.5795455,
                "end_time": 17.6318182,
                "pitch": 98,
                "velocity": 51,
                "duration": 0.0522727,
                "tempo": 120.0
            },
            {
                "start_time": 17.6318182,
                "end_time": 17.7022727,
                "pitch": 100,
                "velocity": 51,
                "duration": 0.0704545,
                "tempo": 120.0
            },
            {
                "start_time": 17.7022727,
                "end_time": 17.7204545,
                "pitch": 104,
                "velocity": 51,
                "duration": 0.0181818,
                "tempo": 120.0
            },
            {
                "start_time": 17.7204545,
                "end_time": 17.7727273,
                "pitch": 107,
                "velocity": 51,
                "duration": 0.0522727,
                "tempo": 120.0
            },
            {
                "start_time": 17.7727273,
                "end_time": 17.7909091,
                "pitch": 110,
                "velocity": 51,
                "duration": 0.0181818,
                "tempo": 120.0
            },
            {
                "start_time": 17.7909091,
                "end_time": 17.8613636,
                "pitch": 112,
                "velocity": 51,
                "duration": 0.0704545,
                "tempo": 120.0
            },
            {
                "start_time": 17.9136364,
                "end_time": 18.9409091,
                "pitch": 16,
                "velocity": 51,
                "duration": 1.0272727,
                "tempo": 120.0
            },
            {
                "start_time": 18.9409091,
                "end_time": 19.2045455,
                "pitch": 70,
                "velocity": 51,
                "duration": 0.2636364,
                "tempo": 120.0
            },
            {
                "start_time": 19.2045455,
                "end_time": 19.5113636,
                "pitch": 72,
                "velocity": 51,
                "duration": 0.3068182,
                "tempo": 120.0
            },
            {
                "start_time": 19.5113636,
                "end_time": 19.8409091,
                "pitch": 74,
                "velocity": 51,
                "duration": 0.3295455,
                "tempo": 120.0
            },
            {
                "start_time": 19.8409091,
                "end_time": 20.1909091,
                "pitch": 76,
                "velocity": 51,
                "duration": 0.35,
                "tempo": 120.0
            },
            {
                "start_time": 20.1909091,
                "end_time": 20.325,
                "pitch": 78,
                "velocity": 51,
                "duration": 0.1340909,
                "tempo": 120.0
            },
            {
                "start_time": 20.325,
                "end_time": 20.575,
                "pitch": 79,
                "velocity": 51,
                "duration": 0.25,
                "tempo": 120.0
            },
            {
                "start_time": 20.575,
                "end_time": 20.8477273,
                "pitch": 81,
                "velocity": 51,
                "duration": 0.2727273,
                "tempo": 120.0
            },
            {
                "start_time": 20.8477273,
                "end_time": 21.1431818,
                "pitch": 84,
                "velocity": 51,
                "duration": 0.2954545,
                "tempo": 120.0
            },
            {
                "start_time": 21.1431818,
                "end_time": 21.475,
                "pitch": 86,
                "velocity": 51,
                "duration": 0.3318182,
                "tempo": 120.0
            },
            {
                "start_time": 21.475,
                "end_time": 21.8545455,
                "pitch": 88,
                "velocity": 51,
                "duration": 0.3795455,
                "tempo": 120.0
            },
            {
                "start_time": 21.8545455,
                "end_time": 22.0545455,
                "pitch": 90,
                "velocity": 51,
                "duration": 0.2,
                "tempo": 120.0
            },
            {
                "start_time": 22.0545455,
                "end_time": 22.2727273,
                "pitch": 91,
                "velocity": 51,
                "duration": 0.2181818,
                "tempo": 120.0
            },
            {
                "start_time": 22.2727273,
                "end_time": 22.5431818,
                "pitch": 93,
                "velocity": 51,
                "duration": 0.2704545,
                "tempo": 120.0
            },
            {
                "start_time": 22.5431818,
                "end_time": 22.8659091,
                "pitch": 95,
                "velocity": 51,
                "duration": 0.3227273,
                "tempo": 120.0
            },
            {
                "start_time": 22.8659091,
                "end_time": 23.2181818,
                "pitch": 98,
                "velocity": 51,
                "duration": 0.3522727,
                "tempo": 120.0
            },
            {
                "start_time": 23.2181818,
                "end_time": 23.4295455,
                "pitch": 100,
                "velocity": 51,
                "duration": 0.2113636,
                "tempo": 120.0
            },
            {
                "start_time": 23.4295455,
                "end_time": 26.9795455,
                "pitch": 89,
                "velocity": 51,
                "duration": 3.55,
                "tempo": 120.0
            },
            {
                "start_time": 26.9795455,
                "end_time": 27.0454545,
                "pitch": 16,
                "velocity": 51,
                "duration": 0.0659091,
                "tempo": 120.0
            },
            {
                "start_time": 27.0454545,
                "end_time": 27.1795455,
                "pitch": 70,
                "velocity": 51,
                "duration": 0.1340909,
                "tempo": 120.0
            },
            {
                "start_time": 27.1795455,
                "end_time": 27.3136364,
                "pitch": 72,
                "velocity": 51,
                "duration": 0.1340909,
                "tempo": 120.0
            },
            {
                "start_time": 27.3136364,
                "end_time": 27.4977273,
                "pitch": 74,
                "velocity": 51,
                "duration": 0.1840909,
                "tempo": 120.0
            },
            {
                "start_time": 27.4977273,
                "end_time": 27.6477273,
                "pitch": 77,
                "velocity": 51,
                "duration": 0.15,
                "tempo": 120.0
            },
            {
                "start_time": 27.6477273,
                "end_time": 27.6977273,
                "pitch": 79,
                "velocity": 51,
                "duration": 0.05,
                "tempo": 120.0
            },
            {
                "start_time": 27.6977273,
                "end_time": 27.7818182,
                "pitch": 79,
                "velocity": 51,
                "duration": 0.0840909,
                "tempo": 120.0
            },
            {
                "start_time": 27.7818182,
                "end_time": 27.9181818,
                "pitch": 81,
                "velocity": 51,
                "duration": 0.1363636,
                "tempo": 120.0
            },
            {
                "start_time": 27.9181818,
                "end_time": 28.0545455,
                "pitch": 84,
                "velocity": 51,
                "duration": 0.1363636,
                "tempo": 120.0
            },
            {
                "start_time": 28.0545455,
                "end_time": 28.2409091,
                "pitch": 86,
                "velocity": 51,
                "duration": 0.1863636,
                "tempo": 120.0
            },
            {
                "start_time": 28.2409091,
                "end_time": 28.3909091,
                "pitch": 88,
                "velocity": 51,
                "duration": 0.15,
                "tempo": 120.0
            },
            {
                "start_time": 28.3909091,
                "end_time": 28.5090909,
                "pitch": 90,
                "velocity": 51,
                "duration": 0.1181818,
                "tempo": 120.0
            },
            {
                "start_time": 28.5090909,
                "end_time": 28.5909091,
                "pitch": 92,
                "velocity": 51,
                "duration": 0.0818182,
                "tempo": 120.0
            },
            {
                "start_time": 28.5909091,
                "end_time": 28.725,
                "pitch": 94,
                "velocity": 51,
                "duration": 0.1340909,
                "tempo": 120.0
            },
            {
                "start_time": 28.725,
                "end_time": 28.8590909,
                "pitch": 96,
                "velocity": 51,
                "duration": 0.1340909,
                "tempo": 120.0
            },
            {
                "start_time": 28.8590909,
                "end_time": 29.0431818,
                "pitch": 98,
                "velocity": 51,
                "duration": 0.1840909,
                "tempo": 120.0
            },
            {
                "start_time": 29.0431818,
                "end_time": 29.1931818,
                "pitch": 100,
                "velocity": 51,
                "duration": 0.15,
                "tempo": 120.0
            },
            {
                "start_time": 29.1931818,
                "end_time": 29.2590909,
                "pitch": 102,
                "velocity": 51,
                "duration": 0.0659091,
                "tempo": 120.0
            },
            {
                "start_time": 29.2590909,
                "end_time": 29.3090909,
                "pitch": 103,
                "velocity": 51,
                "duration": 0.05,
                "tempo": 120.0
            },
            {
                "start_time": 29.3090909,
                "end_time": 29.4545455,
                "pitch": 16,
                "velocity": 51,
                "duration": 0.1454545,
                "tempo": 120.0
            },
            {
                "start_time": 29.4545455,
                "end_time": 29.4704545,
                "pitch": 59,
                "velocity": 51,
                "duration": 0.0159091,
                "tempo": 120.0
            },
            {
                "start_time": 29.4704545,
                "end_time": 29.525,
                "pitch": 61,
                "velocity": 51,
                "duration": 0.0545455,
                "tempo": 120.0
            },
            {
                "start_time": 29.525,
                "end_time": 29.5977273,
                "pitch": 63,
                "velocity": 51,
                "duration": 0.0727273,
                "tempo": 120.0
            },
            {
                "start_time": 29.5977273,
                "end_time": 29.6159091,
                "pitch": 67,
                "velocity": 51,
                "duration": 0.0181818,
                "tempo": 120.0
            },
            {
                "start_time": 29.6159091,
                "end_time": 29.6681818,
                "pitch": 70,
                "velocity": 51,
                "duration": 0.0522727,
                "tempo": 120.0
            },
            {
                "start_time": 29.6681818,
                "end_time": 29.6863636,
                "pitch": 73,
                "velocity": 51,
                "duration": 0.0181818,
                "tempo": 120.0
            },
            {
                "start_time": 29.6863636,
                "end_time": 29.7590909,
                "pitch": 75,
                "velocity": 51,
                "duration": 0.0727273,
                "tempo": 120.0
            },
            {
                "start_time": 29.7590909,
                "end_time": 29.8136364,
                "pitch": 79,
                "velocity": 51,
                "duration": 0.0545455,
                "tempo": 120.0
            },
            {
                "start_time": 29.8136364,
                "end_time": 29.8318182,
                "pitch": 82,
                "velocity": 51,
                "duration": 0.0181818,
                "tempo": 120.0
            },
            {
                "start_time": 29.8318182,
                "end_time": 29.8840909,
                "pitch": 84,
                "velocity": 51,
                "duration": 0.0522727,
                "tempo": 120.0
            },
            {
                "start_time": 29.8840909,
                "end_time": 29.9022727,
                "pitch": 87,
                "velocity": 51,
                "duration": 0.0181818,
                "tempo": 120.0
            },
            {
                "start_time": 29.9022727,
                "end_time": 29.9704545,
                "pitch": 89,
                "velocity": 51,
                "duration": 0.0681818,
                "tempo": 120.0
            },
            {
                "start_time": 29.9704545,
                "end_time": 30.0204545,
                "pitch": 93,
                "velocity": 51,
                "duration": 0.05,
                "tempo": 120.0
            },
            {
                "start_time": 30.0204545,
                "end_time": 30.0386364,
                "pitch": 96,
                "velocity": 51,
                "duration": 0.0181818,
                "tempo": 120.0
            },
            {
                "start_time": 30.0386364,
                "end_time": 30.0886364,
                "pitch": 98,
                "velocity": 51,
                "duration": 0.05,
                "tempo": 120.0
            },
            {
                "start_time": 30.0886364,
                "end_time": 30.1568182,
                "pitch": 100,
                "velocity": 51,
                "duration": 0.0681818,
                "tempo": 120.0
            },
            {
                "start_time": 30.1568182,
                "end_time": 30.175,
                "pitch": 104,
                "velocity": 51,
                "duration": 0.0181818,
                "tempo": 120.0
            },
            {
                "start_time": 30.175,
                "end_time": 30.225,
                "pitch": 107,
                "velocity": 51,
                "duration": 0.05,
                "tempo": 120.0
            },
            {
                "start_time": 30.225,
                "end_time": 30.2431818,
                "pitch": 110,
                "velocity": 51,
                "duration": 0.0181818,
                "tempo": 120.0
            },
            {
                "start_time": 30.2431818,
                "end_time": 30.3113636,
                "pitch": 112,
                "velocity": 51,
                "duration": 0.0681818,
                "tempo": 120.0
            },
            {
                "start_time": 30.3113636,
                "end_time": 31.3545455,
                "pitch": 16,
                "velocity": 51,
                "duration": 1.0431818,
                "tempo": 120.0
            },
            {
                "start_time": 31.3545455,
                "end_time": 31.6181818,
                "pitch": 70,
                "velocity": 51,
                "duration": 0.2636364,
                "tempo": 120.0
            },
            {
                "start_time": 31.6181818,
                "end_time": 31.9340909,
                "pitch": 72,
                "velocity": 51,
                "duration": 0.3159091,
                "tempo": 120.0
            },
            {
                "start_time": 31.9340909,
                "end_time": 32.2681818,
                "pitch": 74,
                "velocity": 51,
                "duration": 0.3340909,
                "tempo": 120.0
            },
            {
                "start_time": 32.2681818,
                "end_time": 32.6727273,
                "pitch": 77,
                "velocity": 51,
                "duration": 0.4045455,
                "tempo": 120.0
            },
            {
                "start_time": 32.6727273,
                "end_time": 32.7409091,
                "pitch": 79,
                "velocity": 51,
                "duration": 0.0681818,
                "tempo": 120.0
            },
            {
                "start_time": 32.7409091,
                "end_time": 32.9613636,
                "pitch": 79,
                "velocity": 51,
                "duration": 0.2204545,
                "tempo": 120.0
            },
            {
                "start_time": 32.9613636,
                "end_time": 33.2295455,
                "pitch": 81,
                "velocity": 51,
                "duration": 0.2681818,
                "tempo": 120.0
            },
            {
                "start_time": 33.2295455,
                "end_time": 33.5477273,
                "pitch": 84,
                "velocity": 51,
                "duration": 0.3181818,
                "tempo": 120.0
            },
            {
                "start_time": 33.5477273,
                "end_time": 33.9022727,
                "pitch": 86,
                "velocity": 51,
                "duration": 0.3545455,
                "tempo": 120.0
            },
            {
                "start_time": 33.9022727,
                "end_time": 34.2704545,
                "pitch": 88,
                "velocity": 51,
                "duration": 0.3681818,
                "tempo": 120.0
            },
            {
                "start_time": 34.2704545,
                "end_time": 34.4681818,
                "pitch": 90,
                "velocity": 51,
                "duration": 0.1977273,
                "tempo": 120.0
            },
            {
                "start_time": 34.4681818,
                "end_time": 34.7136364,
                "pitch": 91,
                "velocity": 51,
                "duration": 0.2454545,
                "tempo": 120.0
            },
            {
                "start_time": 34.7136364,
                "end_time": 34.9863636,
                "pitch": 93,
                "velocity": 51,
                "duration": 0.2727273,
                "tempo": 120.0
            },
            {
                "start_time": 34.9863636,
                "end_time": 35.2727273,
                "pitch": 95,
                "velocity": 51,
                "duration": 0.2863636,
                "tempo": 120.0
            },
            {
                "start_time": 35.2727273,
                "end_time": 35.5954545,
                "pitch": 98,
                "velocity": 51,
                "duration": 0.3227273,
                "tempo": 120.0
            },
            {
                "start_time": 35.5954545,
                "end_time": 35.7886364,
                "pitch": 100,
                "velocity": 51,
                "duration": 0.1931818,
                "tempo": 120.0
            },
            {
                "start_time": 35.7886364,
                "end_time": 39.425,
                "pitch": 89,
                "velocity": 51,
                "duration": 3.6363636,
                "tempo": 120.0
            },
            {
                "start_time": 39.425,
                "end_time": 39.5568182,
                "pitch": 16,
                "velocity": 51,
                "duration": 0.1318182,
                "tempo": 120.0
            },
            {
                "start_time": 39.5568182,
                "end_time": 39.6818182,
                "pitch": 71,
                "velocity": 51,
                "duration": 0.125,
                "tempo": 120.0
            },
            {
                "start_time": 39.6818182,
                "end_time": 39.825,
                "pitch": 73,
                "velocity": 51,
                "duration": 0.1431818,
                "tempo": 120.0
            },
            {
                "start_time": 39.825,
                "end_time": 39.9977273,
                "pitch": 75,
                "velocity": 51,
                "duration": 0.1727273,
                "tempo": 120.0
            },
            {
                "start_time": 39.9977273,
                "end_time": 40.1295455,
                "pitch": 77,
                "velocity": 51,
                "duration": 0.1318182,
                "tempo": 120.0
            },
            {
                "start_time": 40.1295455,
                "end_time": 40.2159091,
                "pitch": 79,
                "velocity": 51,
                "duration": 0.0863636,
                "tempo": 120.0
            },
            {
                "start_time": 40.2159091,
                "end_time": 40.35,
                "pitch": 81,
                "velocity": 51,
                "duration": 0.1340909,
                "tempo": 120.0
            },
            {
                "start_time": 40.35,
                "end_time": 40.4863636,
                "pitch": 84,
                "velocity": 51,
                "duration": 0.1363636,
                "tempo": 120.0
            },
            {
                "start_time": 40.4863636,
                "end_time": 40.6727273,
                "pitch": 86,
                "velocity": 51,
                "duration": 0.1863636,
                "tempo": 120.0
            },
            {
                "start_time": 40.6727273,
                "end_time": 40.8227273,
                "pitch": 88,
                "velocity": 51,
                "duration": 0.15,
                "tempo": 120.0
            },
            {
                "start_time": 40.8227273,
                "end_time": 40.9386364,
                "pitch": 90,
                "velocity": 51,
                "duration": 0.1159091,
                "tempo": 120.0
            },
            {
                "start_time": 40.9386364,
                "end_time": 41.0227273,
                "pitch": 92,
                "velocity": 51,
                "duration": 0.0840909,
                "tempo": 120.0
            },
            {
                "start_time": 41.0227273,
                "end_time": 41.1568182,
                "pitch": 94,
                "velocity": 51,
                "duration": 0.1340909,
                "tempo": 120.0
            },
            {
                "start_time": 41.1568182,
                "end_time": 41.2977273,
                "pitch": 96,
                "velocity": 51,
                "duration": 0.1409091,
                "tempo": 120.0
            },
            {
                "start_time": 41.2977273,
                "end_time": 41.4931818,
                "pitch": 98,
                "velocity": 51,
                "duration": 0.1954545,
                "tempo": 120.0
            },
            {
                "start_time": 41.4931818,
                "end_time": 41.6522727,
                "pitch": 100,
                "velocity": 51,
                "duration": 0.1590909,
                "tempo": 120.0
            },
            {
                "start_time": 41.6522727,
                "end_time": 41.7204545,
                "pitch": 102,
                "velocity": 51,
                "duration": 0.0681818,
                "tempo": 120.0
            },
            {
                "start_time": 41.7204545,
                "end_time": 41.8568182,
                "pitch": 16,
                "velocity": 51,
                "duration": 0.1363636,
                "tempo": 120.0
            },
            {
                "start_time": 41.8568182,
                "end_time": 41.9090909,
                "pitch": 59,
                "velocity": 51,
                "duration": 0.0522727,
                "tempo": 120.0
            },
            {
                "start_time": 41.9090909,
                "end_time": 41.925,
                "pitch": 61,
                "velocity": 51,
                "duration": 0.0159091,
                "tempo": 120.0
            },
            {
                "start_time": 41.925,
                "end_time": 41.9931818,
                "pitch": 63,
                "velocity": 51,
                "duration": 0.0681818,
                "tempo": 120.0
            },
            {
                "start_time": 41.9931818,
                "end_time": 42.0454545,
                "pitch": 67,
                "velocity": 51,
                "duration": 0.0522727,
                "tempo": 120.0
            },
            {
                "start_time": 42.0454545,
                "end_time": 42.0613636,
                "pitch": 70,
                "velocity": 51,
                "duration": 0.0159091,
                "tempo": 120.0
            },
            {
                "start_time": 42.0613636,
                "end_time": 42.1136364,
                "pitch": 73,
                "velocity": 51,
                "duration": 0.0522727,
                "tempo": 120.0
            },
            {
                "start_time": 42.1136364,
                "end_time": 42.1795455,
                "pitch": 75,
                "velocity": 51,
                "duration": 0.0659091,
                "tempo": 120.0
            },
            {
                "start_time": 42.1795455,
                "end_time": 42.1977273,
                "pitch": 79,
                "velocity": 51,
                "duration": 0.0181818,
                "tempo": 120.0
            },
            {
                "start_time": 42.1977273,
                "end_time": 42.2477273,
                "pitch": 82,
                "velocity": 51,
                "duration": 0.05,
                "tempo": 120.0
            },
            {
                "start_time": 42.2477273,
                "end_time": 42.2659091,
                "pitch": 84,
                "velocity": 51,
                "duration": 0.0181818,
                "tempo": 120.0
            },
            {
                "start_time": 42.2659091,
                "end_time": 42.3159091,
                "pitch": 87,
                "velocity": 51,
                "duration": 0.05,
                "tempo": 120.0
            },
            {
                "start_time": 42.3159091,
                "end_time": 42.3818182,
                "pitch": 89,
                "velocity": 51,
                "duration": 0.0659091,
                "tempo": 120.0
            },
            {
                "start_time": 42.3818182,
                "end_time": 42.3977273,
                "pitch": 93,
                "velocity": 51,
                "duration": 0.0159091,
                "tempo": 120.0
            },
            {
                "start_time": 42.3977273,
                "end_time": 42.45,
                "pitch": 96,
                "velocity": 51,
                "duration": 0.0522727,
                "tempo": 120.0
            },
            {
                "start_time": 42.45,
                "end_time": 42.4659091,
                "pitch": 98,
                "velocity": 51,
                "duration": 0.0159091,
                "tempo": 120.0
            },
            {
                "start_time": 42.4659091,
                "end_time": 42.5318182,
                "pitch": 100,
                "velocity": 51,
                "duration": 0.0659091,
                "tempo": 120.0
            },
            {
                "start_time": 42.5318182,
                "end_time": 42.5818182,
                "pitch": 104,
                "velocity": 51,
                "duration": 0.05,
                "tempo": 120.0
            },
            {
                "start_time": 42.5818182,
                "end_time": 42.6,
                "pitch": 107,
                "velocity": 51,
                "duration": 0.0181818,
                "tempo": 120.0
            },
            {
                "start_time": 42.6,
                "end_time": 42.65,
                "pitch": 110,
                "velocity": 51,
                "duration": 0.05,
                "tempo": 120.0
            },
            {
                "start_time": 42.65,
                "end_time": 42.7159091,
                "pitch": 112,
                "velocity": 51,
                "duration": 0.0659091,
                "tempo": 120.0
            },
            {
                "start_time": 42.7318182,
                "end_time": 43.7613636,
                "pitch": 16,
                "velocity": 51,
                "duration": 1.0295455,
                "tempo": 120.0
            },
            {
                "start_time": 43.7613636,
                "end_time": 44.0295455,
                "pitch": 70,
                "velocity": 51,
                "duration": 0.2681818,
                "tempo": 120.0
            },
            {
                "start_time": 44.0295455,
                "end_time": 44.3136364,
                "pitch": 72,
                "velocity": 51,
                "duration": 0.2840909,
                "tempo": 120.0
            },
            {
                "start_time": 44.3136364,
                "end_time": 44.6477273,
                "pitch": 74,
                "velocity": 51,
                "duration": 0.3340909,
                "tempo": 120.0
            },
            {
                "start_time": 44.6477273,
                "end_time": 45.0477273,
                "pitch": 77,
                "velocity": 51,
                "duration": 0.4,
                "tempo": 120.0
            },
            {
                "start_time": 45.0477273,
                "end_time": 45.1159091,
                "pitch": 79,
                "velocity": 51,
                "duration": 0.0681818,
                "tempo": 120.0
            },
            {
                "start_time": 45.1159091,
                "end_time": 45.3659091,
                "pitch": 79,
                "velocity": 51,
                "duration": 0.25,
                "tempo": 120.0
            },
            {
                "start_time": 45.3659091,
                "end_time": 45.6477273,
                "pitch": 81,
                "velocity": 51,
                "duration": 0.2818182,
                "tempo": 120.0
            },
            {
                "start_time": 45.6477273,
                "end_time": 45.9545455,
                "pitch": 84,
                "velocity": 51,
                "duration": 0.3068182,
                "tempo": 120.0
            },
            {
                "start_time": 45.9545455,
                "end_time": 46.2977273,
                "pitch": 86,
                "velocity": 51,
                "duration": 0.3431818,
                "tempo": 120.0
            },
            {
                "start_time": 46.2977273,
                "end_time": 46.6863636,
                "pitch": 88,
                "velocity": 51,
                "duration": 0.3886364,
                "tempo": 120.0
            },
            {
                "start_time": 46.6863636,
                "end_time": 46.8863636,
                "pitch": 90,
                "velocity": 51,
                "duration": 0.2,
                "tempo": 120.0
            },
            {
                "start_time": 46.8863636,
                "end_time": 47.1045455,
                "pitch": 91,
                "velocity": 51,
                "duration": 0.2181818,
                "tempo": 120.0
            },
            {
                "start_time": 47.1045455,
                "end_time": 47.3704545,
                "pitch": 93,
                "velocity": 51,
                "duration": 0.2659091,
                "tempo": 120.0
            },
            {
                "start_time": 47.3704545,
                "end_time": 47.6886364,
                "pitch": 95,
                "velocity": 51,
                "duration": 0.3181818,
                "tempo": 120.0
            },
            {
                "start_time": 47.6886364,
                "end_time": 48.0227273,
                "pitch": 98,
                "velocity": 51,
                "duration": 0.3340909,
                "tempo": 120.0
            },
            {
                "start_time": 48.0227273,
                "end_time": 48.2363636,
                "pitch": 100,
                "velocity": 51,
                "duration": 0.2136364,
                "tempo": 120.0
            },
            {
                "start_time": 48.2363636,
                "end_time": 51.7954545,
                "pitch": 89,
                "velocity": 51,
                "duration": 3.5590909,
                "tempo": 120.0
            },
            {
                "start_time": 51.7954545,
                "end_time": 51.9340909,
                "pitch": 16,
                "velocity": 51,
                "duration": 0.1386364,
                "tempo": 120.0
            },
            {
                "start_time": 51.9340909,
                "end_time": 52.0704545,
                "pitch": 71,
                "velocity": 51,
                "duration": 0.1363636,
                "tempo": 120.0
            },
            {
                "start_time": 52.0704545,
                "end_time": 52.2590909,
                "pitch": 73,
                "velocity": 51,
                "duration": 0.1886364,
                "tempo": 120.0
            },
            {
                "start_time": 52.2590909,
                "end_time": 52.4113636,
                "pitch": 75,
                "velocity": 51,
                "duration": 0.1522727,
                "tempo": 120.0
            },
            {
                "start_time": 52.4113636,
                "end_time": 52.5454545,
                "pitch": 77,
                "velocity": 51,
                "duration": 0.1340909,
                "tempo": 120.0
            },
            {
                "start_time": 52.5454545,
                "end_time": 52.6613636,
                "pitch": 79,
                "velocity": 51,
                "duration": 0.1159091,
                "tempo": 120.0
            },
            {
                "start_time": 52.6613636,
                "end_time": 52.7954545,
                "pitch": 81,
                "velocity": 51,
                "duration": 0.1340909,
                "tempo": 120.0
            },
            {
                "start_time": 52.7954545,
                "end_time": 52.9295455,
                "pitch": 84,
                "velocity": 51,
                "duration": 0.1340909,
                "tempo": 120.0
            },
            {
                "start_time": 52.9295455,
                "end_time": 53.0818182,
                "pitch": 86,
                "velocity": 51,
                "duration": 0.1522727,
                "tempo": 120.0
            },
            {
                "start_time": 53.0818182,
                "end_time": 53.2681818,
                "pitch": 88,
                "velocity": 51,
                "duration": 0.1863636,
                "tempo": 120.0
            },
            {
                "start_time": 53.2681818,
                "end_time": 53.3522727,
                "pitch": 90,
                "velocity": 51,
                "duration": 0.0840909,
                "tempo": 120.0
            },
            {
                "start_time": 53.3522727,
                "end_time": 53.4727273,
                "pitch": 92,
                "velocity": 51,
                "duration": 0.1204545,
                "tempo": 120.0
            },
            {
                "start_time": 53.4727273,
                "end_time": 53.6,
                "pitch": 94,
                "velocity": 51,
                "duration": 0.1272727,
                "tempo": 120.0
            },
            {
                "start_time": 53.6,
                "end_time": 53.7272727,
                "pitch": 96,
                "velocity": 51,
                "duration": 0.1272727,
                "tempo": 120.0
            },
            {
                "start_time": 53.7272727,
                "end_time": 53.8681818,
                "pitch": 98,
                "velocity": 51,
                "duration": 0.1409091,
                "tempo": 120.0
            },
            {
                "start_time": 53.8681818,
                "end_time": 54.0431818,
                "pitch": 100,
                "velocity": 51,
                "duration": 0.175,
                "tempo": 120.0
            },
            {
                "start_time": 54.0431818,
                "end_time": 54.1090909,
                "pitch": 102,
                "velocity": 51,
                "duration": 0.0659091,
                "tempo": 120.0
            },
            {
                "start_time": 54.1090909,
                "end_time": 54.1272727,
                "pitch": 103,
                "velocity": 51,
                "duration": 0.0181818,
                "tempo": 120.0
            },
            {
                "start_time": 54.1272727,
                "end_time": 54.1931818,
                "pitch": 16,
                "velocity": 51,
                "duration": 0.0659091,
                "tempo": 120.0
            },
            {
                "start_time": 54.1931818,
                "end_time": 54.2431818,
                "pitch": 56,
                "velocity": 51,
                "duration": 0.05,
                "tempo": 120.0
            },
            {
                "start_time": 54.2431818,
                "end_time": 54.2590909,
                "pitch": 59,
                "velocity": 51,
                "duration": 0.0159091,
                "tempo": 120.0
            },
            {
                "start_time": 54.2590909,
                "end_time": 54.3113636,
                "pitch": 61,
                "velocity": 51,
                "duration": 0.0522727,
                "tempo": 120.0
            },
            {
                "start_time": 54.3113636,
                "end_time": 54.3772727,
                "pitch": 63,
                "velocity": 51,
                "duration": 0.0659091,
                "tempo": 120.0
            },
            {
                "start_time": 54.3772727,
                "end_time": 54.3931818,
                "pitch": 67,
                "velocity": 51,
                "duration": 0.0159091,
                "tempo": 120.0
            },
            {
                "start_time": 54.3931818,
                "end_time": 54.4431818,
                "pitch": 70,
                "velocity": 51,
                "duration": 0.05,
                "tempo": 120.0
            },
            {
                "start_time": 54.4431818,
                "end_time": 54.4613636,
                "pitch": 73,
                "velocity": 51,
                "duration": 0.0181818,
                "tempo": 120.0
            },
            {
                "start_time": 54.4613636,
                "end_time": 54.5272727,
                "pitch": 75,
                "velocity": 51,
                "duration": 0.0659091,
                "tempo": 120.0
            },
            {
                "start_time": 54.5272727,
                "end_time": 54.5772727,
                "pitch": 79,
                "velocity": 51,
                "duration": 0.05,
                "tempo": 120.0
            },
            {
                "start_time": 54.5772727,
                "end_time": 54.5931818,
                "pitch": 82,
                "velocity": 51,
                "duration": 0.0159091,
                "tempo": 120.0
            },
            {
                "start_time": 54.5931818,
                "end_time": 54.6431818,
                "pitch": 84,
                "velocity": 51,
                "duration": 0.05,
                "tempo": 120.0
            },
            {
                "start_time": 54.6431818,
                "end_time": 54.6613636,
                "pitch": 87,
                "velocity": 51,
                "duration": 0.0181818,
                "tempo": 120.0
            },
            {
                "start_time": 54.6613636,
                "end_time": 54.7272727,
                "pitch": 89,
                "velocity": 51,
                "duration": 0.0659091,
                "tempo": 120.0
            },
            {
                "start_time": 54.7272727,
                "end_time": 54.7772727,
                "pitch": 93,
                "velocity": 51,
                "duration": 0.05,
                "tempo": 120.0
            },
            {
                "start_time": 54.7772727,
                "end_time": 54.7954545,
                "pitch": 96,
                "velocity": 51,
                "duration": 0.0181818,
                "tempo": 120.0
            },
            {
                "start_time": 54.7954545,
                "end_time": 54.8454545,
                "pitch": 98,
                "velocity": 51,
                "duration": 0.05,
                "tempo": 120.0
            },
            {
                "start_time": 54.8454545,
                "end_time": 54.9113636,
                "pitch": 100,
                "velocity": 51,
                "duration": 0.0659091,
                "tempo": 120.0
            },
            {
                "start_time": 54.9113636,
                "end_time": 54.9272727,
                "pitch": 104,
                "velocity": 51,
                "duration": 0.0159091,
                "tempo": 120.0
            },
            {
                "start_time": 54.9272727,
                "end_time": 54.9772727,
                "pitch": 107,
                "velocity": 51,
                "duration": 0.05,
                "tempo": 120.0
            },
            {
                "start_time": 54.9772727,
                "end_time": 54.9954545,
                "pitch": 110,
                "velocity": 51,
                "duration": 0.0181818,
                "tempo": 120.0
            },
            {
                "start_time": 54.9954545,
                "end_time": 55.0613636,
                "pitch": 112,
                "velocity": 51,
                "duration": 0.0659091,
                "tempo": 120.0
            },
            {
                "start_time": 55.1113636,
                "end_time": 56.1409091,
                "pitch": 16,
                "velocity": 51,
                "duration": 1.0295455,
                "tempo": 120.0
            },
            {
                "start_time": 56.1409091,
                "end_time": 56.4068182,
                "pitch": 70,
                "velocity": 51,
                "duration": 0.2659091,
                "tempo": 120.0
            },
            {
                "start_time": 56.4068182,
                "end_time": 56.725,
                "pitch": 72,
                "velocity": 51,
                "duration": 0.3181818,
                "tempo": 120.0
            },
            {
                "start_time": 56.725,
                "end_time": 57.0659091,
                "pitch": 74,
                "velocity": 51,
                "duration": 0.3409091,
                "tempo": 120.0
            },
            {
                "start_time": 57.0659091,
                "end_time": 57.4181818,
                "pitch": 76,
                "velocity": 51,
                "duration": 0.3522727,
                "tempo": 120.0
            },
            {
                "start_time": 57.4181818,
                "end_time": 57.5522727,
                "pitch": 78,
                "velocity": 51,
                "duration": 0.1340909,
                "tempo": 120.0
            },
            {
                "start_time": 57.5522727,
                "end_time": 57.8022727,
                "pitch": 79,
                "velocity": 51,
                "duration": 0.25,
                "tempo": 120.0
            },
            {
                "start_time": 57.8022727,
                "end_time": 58.0704545,
                "pitch": 81,
                "velocity": 51,
                "duration": 0.2681818,
                "tempo": 120.0
            },
            {
                "start_time": 58.0704545,
                "end_time": 58.3545455,
                "pitch": 84,
                "velocity": 51,
                "duration": 0.2840909,
                "tempo": 120.0
            },
            {
                "start_time": 58.3545455,
                "end_time": 58.7136364,
                "pitch": 86,
                "velocity": 51,
                "duration": 0.3590909,
                "tempo": 120.0
            },
            {
                "start_time": 58.7136364,
                "end_time": 59.1136364,
                "pitch": 88,
                "velocity": 51,
                "duration": 0.4,
                "tempo": 120.0
            },
            {
                "start_time": 59.1136364,
                "end_time": 59.3136364,
                "pitch": 90,
                "velocity": 51,
                "duration": 0.2,
                "tempo": 120.0
            },
            {
                "start_time": 59.3136364,
                "end_time": 59.5295455,
                "pitch": 91,
                "velocity": 51,
                "duration": 0.2159091,
                "tempo": 120.0
            },
            {
                "start_time": 59.5295455,
                "end_time": 59.7977273,
                "pitch": 93,
                "velocity": 51,
                "duration": 0.2681818,
                "tempo": 120.0
            },
            {
                "start_time": 59.7977273,
                "end_time": 60.1090909,
                "pitch": 95,
                "velocity": 51,
                "duration": 0.3113636,
                "tempo": 120.0
            },
            {
                "start_time": 60.1090909,
                "end_time": 60.4318182,
                "pitch": 98,
                "velocity": 51,
                "duration": 0.3227273,
                "tempo": 120.0
            },
            {
                "start_time": 60.4318182,
                "end_time": 60.6318182,
                "pitch": 100,
                "velocity": 51,
                "duration": 0.2,
                "tempo": 120.0
            },
            {
                "start_time": 60.6318182,
                "end_time": 64.2386364,
                "pitch": 89,
                "velocity": 51,
                "duration": 3.6068182,
                "tempo": 120.0
            },
            {
                "start_time": 64.2386364,
                "end_time": 64.3045455,
                "pitch": 16,
                "velocity": 51,
                "duration": 0.0659091,
                "tempo": 120.0
            },
            {
                "start_time": 64.3045455,
                "end_time": 64.4386364,
                "pitch": 70,
                "velocity": 51,
                "duration": 0.1340909,
                "tempo": 120.0
            },
            {
                "start_time": 64.4386364,
                "end_time": 64.5727273,
                "pitch": 72,
                "velocity": 51,
                "duration": 0.1340909,
                "tempo": 120.0
            },
            {
                "start_time": 64.5727273,
                "end_time": 64.7545455,
                "pitch": 74,
                "velocity": 51,
                "duration": 0.1818182,
                "tempo": 120.0
            },
            {
                "start_time": 64.7545455,
                "end_time": 64.9022727,
                "pitch": 77,
                "velocity": 51,
                "duration": 0.1477273,
                "tempo": 120.0
            },
            {
                "start_time": 64.9022727,
                "end_time": 64.95,
                "pitch": 79,
                "velocity": 51,
                "duration": 0.0477273,
                "tempo": 120.0
            },
            {
                "start_time": 64.95,
                "end_time": 65.0318182,
                "pitch": 79,
                "velocity": 51,
                "duration": 0.0818182,
                "tempo": 120.0
            },
            {
                "start_time": 65.0318182,
                "end_time": 65.1590909,
                "pitch": 81,
                "velocity": 51,
                "duration": 0.1272727,
                "tempo": 120.0
            },
            {
                "start_time": 65.1590909,
                "end_time": 65.2886364,
                "pitch": 84,
                "velocity": 51,
                "duration": 0.1295455,
                "tempo": 120.0
            },
            {
                "start_time": 65.2886364,
                "end_time": 65.4727273,
                "pitch": 86,
                "velocity": 51,
                "duration": 0.1840909,
                "tempo": 120.0
            },
            {
                "start_time": 65.4727273,
                "end_time": 65.6227273,
                "pitch": 88,
                "velocity": 51,
                "duration": 0.15,
                "tempo": 120.0
            },
            {
                "start_time": 65.6227273,
                "end_time": 65.7386364,
                "pitch": 90,
                "velocity": 51,
                "duration": 0.1159091,
                "tempo": 120.0
            },
            {
                "start_time": 65.7386364,
                "end_time": 65.8227273,
                "pitch": 92,
                "velocity": 51,
                "duration": 0.0840909,
                "tempo": 120.0
            },
            {
                "start_time": 65.8227273,
                "end_time": 65.9568182,
                "pitch": 94,
                "velocity": 51,
                "duration": 0.1340909,
                "tempo": 120.0
            },
            {
                "start_time": 65.9568182,
                "end_time": 66.0909091,
                "pitch": 96,
                "velocity": 51,
                "duration": 0.1340909,
                "tempo": 120.0
            },
            {
                "start_time": 66.0909091,
                "end_time": 66.2727273,
                "pitch": 98,
                "velocity": 51,
                "duration": 0.1818182,
                "tempo": 120.0
            },
            {
                "start_time": 66.2727273,
                "end_time": 66.425,
                "pitch": 100,
                "velocity": 51,
                "duration": 0.1522727,
                "tempo": 120.0
            },
            {
                "start_time": 66.425,
                "end_time": 66.4931818,
                "pitch": 102,
                "velocity": 51,
                "duration": 0.0681818,
                "tempo": 120.0
            },
            {
                "start_time": 66.4931818,
                "end_time": 66.5431818,
                "pitch": 103,
                "velocity": 51,
                "duration": 0.05,
                "tempo": 120.0
            },
            {
                "start_time": 66.5431818,
                "end_time": 66.6795455,
                "pitch": 16,
                "velocity": 51,
                "duration": 0.1363636,
                "tempo": 120.0
            },
            {
                "start_time": 66.6795455,
                "end_time": 66.6977273,
                "pitch": 59,
                "velocity": 51,
                "duration": 0.0181818,
                "tempo": 120.0
            },
            {
                "start_time": 66.6977273,
                "end_time": 66.7477273,
                "pitch": 61,
                "velocity": 51,
                "duration": 0.05,
                "tempo": 120.0
            },
            {
                "start_time": 66.7477273,
                "end_time": 66.8159091,
                "pitch": 63,
                "velocity": 51,
                "duration": 0.0681818,
                "tempo": 120.0
            },
            {
                "start_time": 66.8159091,
                "end_time": 66.8318182,
                "pitch": 67,
                "velocity": 51,
                "duration": 0.0159091,
                "tempo": 120.0
            },
            {
                "start_time": 66.8318182,
                "end_time": 66.8840909,
                "pitch": 70,
                "velocity": 51,
                "duration": 0.0522727,
                "tempo": 120.0
            },
            {
                "start_time": 66.8840909,
                "end_time": 66.9,
                "pitch": 73,
                "velocity": 51,
                "duration": 0.0159091,
                "tempo": 120.0
            },
            {
                "start_time": 66.9,
                "end_time": 66.9681818,
                "pitch": 75,
                "velocity": 51,
                "duration": 0.0681818,
                "tempo": 120.0
            },
            {
                "start_time": 66.9681818,
                "end_time": 67.0181818,
                "pitch": 79,
                "velocity": 51,
                "duration": 0.05,
                "tempo": 120.0
            },
            {
                "start_time": 67.0181818,
                "end_time": 67.0340909,
                "pitch": 82,
                "velocity": 51,
                "duration": 0.0159091,
                "tempo": 120.0
            },
            {
                "start_time": 67.0340909,
                "end_time": 67.0840909,
                "pitch": 84,
                "velocity": 51,
                "duration": 0.05,
                "tempo": 120.0
            },
            {
                "start_time": 67.0840909,
                "end_time": 67.1022727,
                "pitch": 87,
                "velocity": 51,
                "duration": 0.0181818,
                "tempo": 120.0
            },
            {
                "start_time": 67.1022727,
                "end_time": 67.1681818,
                "pitch": 89,
                "velocity": 51,
                "duration": 0.0659091,
                "tempo": 120.0
            },
            {
                "start_time": 67.1681818,
                "end_time": 67.2181818,
                "pitch": 93,
                "velocity": 51,
                "duration": 0.05,
                "tempo": 120.0
            },
            {
                "start_time": 67.2181818,
                "end_time": 67.2340909,
                "pitch": 96,
                "velocity": 51,
                "duration": 0.0159091,
                "tempo": 120.0
            },
            {
                "start_time": 67.2340909,
                "end_time": 67.2840909,
                "pitch": 98,
                "velocity": 51,
                "duration": 0.05,
                "tempo": 120.0
            },
            {
                "start_time": 67.2840909,
                "end_time": 67.3522727,
                "pitch": 100,
                "velocity": 51,
                "duration": 0.0681818,
                "tempo": 120.0
            },
            {
                "start_time": 67.3522727,
                "end_time": 67.3681818,
                "pitch": 104,
                "velocity": 51,
                "duration": 0.0159091,
                "tempo": 120.0
            },
            {
                "start_time": 67.3681818,
                "end_time": 67.4181818,
                "pitch": 107,
                "velocity": 51,
                "duration": 0.05,
                "tempo": 120.0
            },
            {
                "start_time": 67.4181818,
                "end_time": 67.4363636,
                "pitch": 110,
                "velocity": 51,
                "duration": 0.0181818,
                "tempo": 120.0
            },
            {
                "start_time": 67.4363636,
                "end_time": 67.5022727,
                "pitch": 112,
                "velocity": 51,
                "duration": 0.0659091,
                "tempo": 120.0
            },
            {
                "start_time": 67.5022727,
                "end_time": 68.6090909,
                "pitch": 16,
                "velocity": 51,
                "duration": 1.1068182,
                "tempo": 120.0
            },
            {
                "start_time": 68.6090909,
                "end_time": 68.8659091,
                "pitch": 70,
                "velocity": 51,
                "duration": 0.2568182,
                "tempo": 120.0
            },
            {
                "start_time": 68.8659091,
                "end_time": 69.1795455,
                "pitch": 72,
                "velocity": 51,
                "duration": 0.3136364,
                "tempo": 120.0
            },
            {
                "start_time": 69.1795455,
                "end_time": 69.5318182,
                "pitch": 74,
                "velocity": 51,
                "duration": 0.3522727,
                "tempo": 120.0
            },
            {
                "start_time": 69.5318182,
                "end_time": 69.9409091,
                "pitch": 77,
                "velocity": 51,
                "duration": 0.4090909,
                "tempo": 120.0
            },
            {
                "start_time": 69.9409091,
                "end_time": 70.0068182,
                "pitch": 79,
                "velocity": 51,
                "duration": 0.0659091,
                "tempo": 120.0
            },
            {
                "start_time": 70.0068182,
                "end_time": 70.2227273,
                "pitch": 79,
                "velocity": 51,
                "duration": 0.2159091,
                "tempo": 120.0
            },
            {
                "start_time": 70.2227273,
                "end_time": 70.4909091,
                "pitch": 81,
                "velocity": 51,
                "duration": 0.2681818,
                "tempo": 120.0
            },
            {
                "start_time": 70.4909091,
                "end_time": 70.8022727,
                "pitch": 84,
                "velocity": 51,
                "duration": 0.3113636,
                "tempo": 120.0
            },
            {
                "start_time": 70.8022727,
                "end_time": 71.1159091,
                "pitch": 86,
                "velocity": 51,
                "duration": 0.3136364,
                "tempo": 120.0
            },
            {
                "start_time": 71.1159091,
                "end_time": 71.4659091,
                "pitch": 88,
                "velocity": 51,
                "duration": 0.35,
                "tempo": 120.0
            },
            {
                "start_time": 71.4659091,
                "end_time": 71.6704545,
                "pitch": 90,
                "velocity": 51,
                "duration": 0.2045455,
                "tempo": 120.0
            },
            {
                "start_time": 71.6704545,
                "end_time": 71.9227273,
                "pitch": 91,
                "velocity": 51,
                "duration": 0.2522727,
                "tempo": 120.0
            },
            {
                "start_time": 71.9227273,
                "end_time": 72.1886364,
                "pitch": 93,
                "velocity": 51,
                "duration": 0.2659091,
                "tempo": 120.0
            },
            {
                "start_time": 72.1886364,
                "end_time": 72.4818182,
                "pitch": 95,
                "velocity": 51,
                "duration": 0.2931818,
                "tempo": 120.0
            },
            {
                "start_time": 72.4818182,
                "end_time": 72.8340909,
                "pitch": 98,
                "velocity": 51,
                "duration": 0.3522727,
                "tempo": 120.0
            },
            {
                "start_time": 72.8340909,
                "end_time": 73.0409091,
                "pitch": 100,
                "velocity": 51,
                "duration": 0.2068182,
                "tempo": 120.0
            },
            {
                "start_time": 73.0409091,
                "end_time": 76.6295455,
                "pitch": 89,
                "velocity": 51,
                "duration": 3.5886364,
                "tempo": 120.0
            },
            {
                "start_time": 76.6295455,
                "end_time": 76.7704545,
                "pitch": 16,
                "velocity": 51,
                "duration": 0.1409091,
                "tempo": 120.0
            },
            {
                "start_time": 76.7704545,
                "end_time": 76.9113636,
                "pitch": 71,
                "velocity": 51,
                "duration": 0.1409091,
                "tempo": 120.0
            },
            {
                "start_time": 76.9113636,
                "end_time": 76.95,
                "pitch": 73,
                "velocity": 51,
                "duration": 0.0386364,
                "tempo": 120.0
            }
        ],
        "Oboe": [
            {
                "start_time": 0.0,
                "end_time": 0.025,
                "pitch": 76,
                "velocity": 32,
                "duration": 0.025,
                "tempo": 120.0
            },
            {
                "start_time": 1.4,
                "end_time": 1.5659091,
                "pitch": 69,
                "velocity": 32,
                "duration": 0.1659091,
                "tempo": 120.0
            },
            {
                "start_time": 1.6,
                "end_time": 1.7659091,
                "pitch": 72,
                "velocity": 32,
                "duration": 0.1659091,
                "tempo": 120.0
            },
            {
                "start_time": 1.7840909,
                "end_time": 1.9159091,
                "pitch": 76,
                "velocity": 32,
                "duration": 0.1318182,
                "tempo": 120.0
            },
            {
                "start_time": 1.9340909,
                "end_time": 2.1,
                "pitch": 69,
                "velocity": 32,
                "duration": 0.1659091,
                "tempo": 120.0
            },
            {
                "start_time": 2.1340909,
                "end_time": 2.3,
                "pitch": 72,
                "velocity": 32,
                "duration": 0.1659091,
                "tempo": 120.0
            },
            {
                "start_time": 2.3181818,
                "end_time": 2.4522727,
                "pitch": 76,
                "velocity": 32,
                "duration": 0.1340909,
                "tempo": 120.0
            },
            {
                "start_time": 2.4681818,
                "end_time": 2.6340909,
                "pitch": 69,
                "velocity": 32,
                "duration": 0.1659091,
                "tempo": 120.0
            },
            {
                "start_time": 2.6681818,
                "end_time": 2.8363636,
                "pitch": 72,
                "velocity": 32,
                "duration": 0.1681818,
                "tempo": 120.0
            },
            {
                "start_time": 2.8522727,
                "end_time": 2.9863636,
                "pitch": 76,
                "velocity": 32,
                "duration": 0.1340909,
                "tempo": 120.0
            },
            {
                "start_time": 3.0022727,
                "end_time": 3.1704545,
                "pitch": 74,
                "velocity": 32,
                "duration": 0.1681818,
                "tempo": 120.0
            },
            {
                "start_time": 3.2022727,
                "end_time": 3.3704545,
                "pitch": 77,
                "velocity": 32,
                "duration": 0.1681818,
                "tempo": 120.0
            },
            {
                "start_time": 3.3863636,
                "end_time": 3.5204545,
                "pitch": 81,
                "velocity": 32,
                "duration": 0.1340909,
                "tempo": 120.0
            },
            {
                "start_time": 3.5363636,
                "end_time": 3.7045455,
                "pitch": 74,
                "velocity": 32,
                "duration": 0.1681818,
                "tempo": 120.0
            },
            {
                "start_time": 3.7363636,
                "end_time": 3.9045455,
                "pitch": 77,
                "velocity": 32,
                "duration": 0.1681818,
                "tempo": 120.0
            },
            {
                "start_time": 3.9204545,
                "end_time": 4.0545455,
                "pitch": 81,
                "velocity": 32,
                "duration": 0.1340909,
                "tempo": 120.0
            },
            {
                "start_time": 4.0704545,
                "end_time": 4.2386364,
                "pitch": 74,
                "velocity": 32,
                "duration": 0.1681818,
                "tempo": 120.0
            },
            {
                "start_time": 4.2727273,
                "end_time": 4.4386364,
                "pitch": 77,
                "velocity": 32,
                "duration": 0.1659091,
                "tempo": 120.0
            },
            {
                "start_time": 4.4545455,
                "end_time": 4.5886364,
                "pitch": 81,
                "velocity": 32,
                "duration": 0.1340909,
                "tempo": 120.0
            },
            {
                "start_time": 4.6068182,
                "end_time": 4.7772727,
                "pitch": 69,
                "velocity": 32,
                "duration": 0.1704545,
                "tempo": 120.0
            },
            {
                "start_time": 4.8090909,
                "end_time": 4.9795455,
                "pitch": 72,
                "velocity": 32,
                "duration": 0.1704545,
                "tempo": 120.0
            },
            {
                "start_time": 4.9977273,
                "end_time": 5.1340909,
                "pitch": 76,
                "velocity": 32,
                "duration": 0.1363636,
                "tempo": 120.0
            },
            {
                "start_time": 5.15,
                "end_time": 5.3204545,
                "pitch": 69,
                "velocity": 32,
                "duration": 0.1704545,
                "tempo": 120.0
            },
            {
                "start_time": 5.3545455,
                "end_time": 5.525,
                "pitch": 72,
                "velocity": 32,
                "duration": 0.1704545,
                "tempo": 120.0
            },
            {
                "start_time": 5.5409091,
                "end_time": 5.6772727,
                "pitch": 76,
                "velocity": 32,
                "duration": 0.1363636,
                "tempo": 120.0
            },
            {
                "start_time": 5.6931818,
                "end_time": 5.8568182,
                "pitch": 69,
                "velocity": 32,
                "duration": 0.1636364,
                "tempo": 120.0
            },
            {
                "start_time": 5.8886364,
                "end_time": 6.0545455,
                "pitch": 72,
                "velocity": 32,
                "duration": 0.1659091,
                "tempo": 120.0
            },
            {
                "start_time": 6.0704545,
                "end_time": 6.2022727,
                "pitch": 76,
                "velocity": 32,
                "duration": 0.1318182,
                "tempo": 120.0
            },
            {
                "start_time": 6.2181818,
                "end_time": 6.3886364,
                "pitch": 74,
                "velocity": 32,
                "duration": 0.1704545,
                "tempo": 120.0
            },
            {
                "start_time": 6.4227273,
                "end_time": 6.5931818,
                "pitch": 77,
                "velocity": 32,
                "duration": 0.1704545,
                "tempo": 120.0
            },
            {
                "start_time": 6.6090909,
                "end_time": 6.7454545,
                "pitch": 81,
                "velocity": 32,
                "duration": 0.1363636,
                "tempo": 120.0
            },
            {
                "start_time": 6.7613636,
                "end_time": 6.925,
                "pitch": 74,
                "velocity": 32,
                "duration": 0.1636364,
                "tempo": 120.0
            },
            {
                "start_time": 6.9590909,
                "end_time": 7.1227273,
                "pitch": 77,
                "velocity": 32,
                "duration": 0.1636364,
                "tempo": 120.0
            },
            {
                "start_time": 7.1386364,
                "end_time": 7.2704545,
                "pitch": 81,
                "velocity": 32,
                "duration": 0.1318182,
                "tempo": 120.0
            },
            {
                "start_time": 7.2886364,
                "end_time": 7.4568182,
                "pitch": 74,
                "velocity": 32,
                "duration": 0.1681818,
                "tempo": 120.0
            },
            {
                "start_time": 7.4909091,
                "end_time": 7.6613636,
                "pitch": 77,
                "velocity": 32,
                "duration": 0.1704545,
                "tempo": 120.0
            },
            {
                "start_time": 7.6795455,
                "end_time": 7.8159091,
                "pitch": 81,
                "velocity": 32,
                "duration": 0.1363636,
                "tempo": 120.0
            },
            {
                "start_time": 7.8318182,
                "end_time": 8.0022727,
                "pitch": 69,
                "velocity": 32,
                "duration": 0.1704545,
                "tempo": 120.0
            },
            {
                "start_time": 8.0363636,
                "end_time": 8.2068182,
                "pitch": 72,
                "velocity": 32,
                "duration": 0.1704545,
                "tempo": 120.0
            },
            {
                "start_time": 8.2227273,
                "end_time": 8.3590909,
                "pitch": 76,
                "velocity": 32,
                "duration": 0.1363636,
                "tempo": 120.0
            },
            {
                "start_time": 8.375,
                "end_time": 8.5431818,
                "pitch": 69,
                "velocity": 32,
                "duration": 0.1681818,
                "tempo": 120.0
            },
            {
                "start_time": 8.575,
                "end_time": 8.7431818,
                "pitch": 72,
                "velocity": 32,
                "duration": 0.1681818,
                "tempo": 120.0
            },
            {
                "start_time": 8.7590909,
                "end_time": 8.8931818,
                "pitch": 76,
                "velocity": 32,
                "duration": 0.1340909,
                "tempo": 120.0
            },
            {
                "start_time": 8.9090909,
                "end_time": 9.0795455,
                "pitch": 69,
                "velocity": 32,
                "duration": 0.1704545,
                "tempo": 120.0
            },
            {
                "start_time": 9.1136364,
                "end_time": 9.2840909,
                "pitch": 72,
                "velocity": 32,
                "duration": 0.1704545,
                "tempo": 120.0
            },
            {
                "start_time": 9.3022727,
                "end_time": 9.4363636,
                "pitch": 76,
                "velocity": 32,
                "duration": 0.1340909,
                "tempo": 120.0
            },
            {
                "start_time": 9.4545455,
                "end_time": 9.6204545,
                "pitch": 69,
                "velocity": 32,
                "duration": 0.1659091,
                "tempo": 120.0
            },
            {
                "start_time": 9.6545455,
                "end_time": 9.8204545,
                "pitch": 72,
                "velocity": 32,
                "duration": 0.1659091,
                "tempo": 120.0
            },
            {
                "start_time": 9.8386364,
                "end_time": 9.9704545,
                "pitch": 76,
                "velocity": 32,
                "duration": 0.1318182,
                "tempo": 120.0
            },
            {
                "start_time": 9.9886364,
                "end_time": 10.1545455,
                "pitch": 69,
                "velocity": 32,
                "duration": 0.1659091,
                "tempo": 120.0
            },
            {
                "start_time": 10.1886364,
                "end_time": 10.3545455,
                "pitch": 72,
                "velocity": 32,
                "duration": 0.1659091,
                "tempo": 120.0
            },
            {
                "start_time": 10.3727273,
                "end_time": 10.5068182,
                "pitch": 76,
                "velocity": 32,
                "duration": 0.1340909,
                "tempo": 120.0
            },
            {
                "start_time": 10.5227273,
                "end_time": 10.6886364,
                "pitch": 74,
                "velocity": 32,
                "duration": 0.1659091,
                "tempo": 120.0
            },
            {
                "start_time": 10.7227273,
                "end_time": 10.8909091,
                "pitch": 77,
                "velocity": 32,
                "duration": 0.1681818,
                "tempo": 120.0
            },
            {
                "start_time": 10.9068182,
                "end_time": 11.0409091,
                "pitch": 81,
                "velocity": 32,
                "duration": 0.1340909,
                "tempo": 120.0
            },
            {
                "start_time": 11.0568182,
                "end_time": 11.2227273,
                "pitch": 74,
                "velocity": 32,
                "duration": 0.1659091,
                "tempo": 120.0
            },
            {
                "start_time": 11.2568182,
                "end_time": 11.425,
                "pitch": 77,
                "velocity": 32,
                "duration": 0.1681818,
                "tempo": 120.0
            },
            {
                "start_time": 11.4409091,
                "end_time": 11.575,
                "pitch": 81,
                "velocity": 32,
                "duration": 0.1340909,
                "tempo": 120.0
            },
            {
                "start_time": 11.5909091,
                "end_time": 11.7613636,
                "pitch": 74,
                "velocity": 32,
                "duration": 0.1704545,
                "tempo": 120.0
            },
            {
                "start_time": 11.7954545,
                "end_time": 11.9659091,
                "pitch": 77,
                "velocity": 32,
                "duration": 0.1704545,
                "tempo": 120.0
            },
            {
                "start_time": 11.9818182,
                "end_time": 12.1181818,
                "pitch": 81,
                "velocity": 32,
                "duration": 0.1363636,
                "tempo": 120.0
            },
            {
                "start_time": 12.1340909,
                "end_time": 12.3022727,
                "pitch": 74,
                "velocity": 32,
                "duration": 0.1681818,
                "tempo": 120.0
            },
            {
                "start_time": 12.3363636,
                "end_time": 12.5022727,
                "pitch": 77,
                "velocity": 32,
                "duration": 0.1659091,
                "tempo": 120.0
            },
            {
                "start_time": 12.5181818,
                "end_time": 12.6522727,
                "pitch": 81,
                "velocity": 32,
                "duration": 0.1340909,
                "tempo": 120.0
            },
            {
                "start_time": 12.6704545,
                "end_time": 12.8363636,
                "pitch": 74,
                "velocity": 32,
                "duration": 0.1659091,
                "tempo": 120.0
            },
            {
                "start_time": 12.8704545,
                "end_time": 13.0363636,
                "pitch": 77,
                "velocity": 32,
                "duration": 0.1659091,
                "tempo": 120.0
            },
            {
                "start_time": 13.0545455,
                "end_time": 13.1886364,
                "pitch": 81,
                "velocity": 32,
                "duration": 0.1340909,
                "tempo": 120.0
            },
            {
                "start_time": 13.2045455,
                "end_time": 13.375,
                "pitch": 69,
                "velocity": 32,
                "duration": 0.1704545,
                "tempo": 120.0
            },
            {
                "start_time": 13.4090909,
                "end_time": 13.5795455,
                "pitch": 72,
                "velocity": 32,
                "duration": 0.1704545,
                "tempo": 120.0
            },
            {
                "start_time": 13.5954545,
                "end_time": 13.7318182,
                "pitch": 76,
                "velocity": 32,
                "duration": 0.1363636,
                "tempo": 120.0
            },
            {
                "start_time": 13.7477273,
                "end_time": 13.9181818,
                "pitch": 69,
                "velocity": 32,
                "duration": 0.1704545,
                "tempo": 120.0
            },
            {
                "start_time": 13.9522727,
                "end_time": 14.1227273,
                "pitch": 72,
                "velocity": 32,
                "duration": 0.1704545,
                "tempo": 120.0
            },
            {
                "start_time": 14.1386364,
                "end_time": 14.275,
                "pitch": 76,
                "velocity": 32,
                "duration": 0.1363636,
                "tempo": 120.0
            },
            {
                "start_time": 14.2909091,
                "end_time": 14.4590909,
                "pitch": 69,
                "velocity": 32,
                "duration": 0.1681818,
                "tempo": 120.0
            },
            {
                "start_time": 14.4931818,
                "end_time": 14.6590909,
                "pitch": 72,
                "velocity": 32,
                "duration": 0.1659091,
                "tempo": 120.0
            },
            {
                "start_time": 14.675,
                "end_time": 14.8090909,
                "pitch": 76,
                "velocity": 32,
                "duration": 0.1340909,
                "tempo": 120.0
            },
            {
                "start_time": 14.8272727,
                "end_time": 14.9931818,
                "pitch": 69,
                "velocity": 32,
                "duration": 0.1659091,
                "tempo": 120.0
            },
            {
                "start_time": 15.0272727,
                "end_time": 15.1931818,
                "pitch": 72,
                "velocity": 32,
                "duration": 0.1659091,
                "tempo": 120.0
            },
            {
                "start_time": 15.2113636,
                "end_time": 15.3431818,
                "pitch": 76,
                "velocity": 32,
                "duration": 0.1318182,
                "tempo": 120.0
            },
            {
                "start_time": 15.3613636,
                "end_time": 15.5318182,
                "pitch": 69,
                "velocity": 32,
                "duration": 0.1704545,
                "tempo": 120.0
            },
            {
                "start_time": 15.5659091,
                "end_time": 15.7363636,
                "pitch": 72,
                "velocity": 32,
                "duration": 0.1704545,
                "tempo": 120.0
            },
            {
                "start_time": 15.7522727,
                "end_time": 15.8886364,
                "pitch": 76,
                "velocity": 32,
                "duration": 0.1363636,
                "tempo": 120.0
            },
            {
                "start_time": 15.9045455,
                "end_time": 16.0727273,
                "pitch": 74,
                "velocity": 32,
                "duration": 0.1681818,
                "tempo": 120.0
            },
            {
                "start_time": 16.1045455,
                "end_time": 16.2727273,
                "pitch": 77,
                "velocity": 32,
                "duration": 0.1681818,
                "tempo": 120.0
            },
            {
                "start_time": 16.2886364,
                "end_time": 16.4227273,
                "pitch": 81,
                "velocity": 32,
                "duration": 0.1340909,
                "tempo": 120.0
            },
            {
                "start_time": 16.4386364,
                "end_time": 16.6068182,
                "pitch": 74,
                "velocity": 32,
                "duration": 0.1681818,
                "tempo": 120.0
            },
            {
                "start_time": 16.6386364,
                "end_time": 16.8068182,
                "pitch": 77,
                "velocity": 32,
                "duration": 0.1681818,
                "tempo": 120.0
            },
            {
                "start_time": 16.8227273,
                "end_time": 16.9568182,
                "pitch": 81,
                "velocity": 32,
                "duration": 0.1340909,
                "tempo": 120.0
            },
            {
                "start_time": 16.9727273,
                "end_time": 17.1227273,
                "pitch": 74,
                "velocity": 32,
                "duration": 0.15,
                "tempo": 120.0
            },
            {
                "start_time": 17.1727273,
                "end_time": 17.325,
                "pitch": 77,
                "velocity": 32,
                "duration": 0.1522727,
                "tempo": 120.0
            },
            {
                "start_time": 17.3568182,
                "end_time": 17.5090909,
                "pitch": 81,
                "velocity": 32,
                "duration": 0.1522727,
                "tempo": 120.0
            },
            {
                "start_time": 17.5090909,
                "end_time": 17.6681818,
                "pitch": 74,
                "velocity": 32,
                "duration": 0.1590909,
                "tempo": 120.0
            },
            {
                "start_time": 17.7204545,
                "end_time": 17.8795455,
                "pitch": 77,
                "velocity": 32,
                "duration": 0.1590909,
                "tempo": 120.0
            },
            {
                "start_time": 17.9136364,
                "end_time": 18.0727273,
                "pitch": 81,
                "velocity": 32,
                "duration": 0.1590909,
                "tempo": 120.0
            },
            {
                "start_time": 18.0727273,
                "end_time": 18.2227273,
                "pitch": 74,
                "velocity": 32,
                "duration": 0.15,
                "tempo": 120.0
            },
            {
                "start_time": 18.2727273,
                "end_time": 18.4227273,
                "pitch": 77,
                "velocity": 32,
                "duration": 0.15,
                "tempo": 120.0
            },
            {
                "start_time": 18.4568182,
                "end_time": 18.6068182,
                "pitch": 81,
                "velocity": 32,
                "duration": 0.15,
                "tempo": 120.0
            },
            {
                "start_time": 18.6068182,
                "end_time": 18.7568182,
                "pitch": 69,
                "velocity": 32,
                "duration": 0.15,
                "tempo": 120.0
            },
            {
                "start_time": 18.8068182,
                "end_time": 18.9568182,
                "pitch": 72,
                "velocity": 32,
                "duration": 0.15,
                "tempo": 120.0
            },
            {
                "start_time": 18.9909091,
                "end_time": 19.1386364,
                "pitch": 76,
                "velocity": 32,
                "duration": 0.1477273,
                "tempo": 120.0
            },
            {
                "start_time": 19.1386364,
                "end_time": 19.2840909,
                "pitch": 69,
                "velocity": 32,
                "duration": 0.1454545,
                "tempo": 120.0
            },
            {
                "start_time": 19.3318182,
                "end_time": 19.4772727,
                "pitch": 72,
                "velocity": 32,
                "duration": 0.1454545,
                "tempo": 120.0
            },
            {
                "start_time": 19.5113636,
                "end_time": 19.6568182,
                "pitch": 76,
                "velocity": 32,
                "duration": 0.1454545,
                "tempo": 120.0
            },
            {
                "start_time": 19.6568182,
                "end_time": 19.8068182,
                "pitch": 69,
                "velocity": 32,
                "duration": 0.15,
                "tempo": 120.0
            },
            {
                "start_time": 19.8568182,
                "end_time": 20.0068182,
                "pitch": 72,
                "velocity": 32,
                "duration": 0.15,
                "tempo": 120.0
            },
            {
                "start_time": 20.0409091,
                "end_time": 20.1909091,
                "pitch": 76,
                "velocity": 32,
                "duration": 0.15,
                "tempo": 120.0
            },
            {
                "start_time": 20.1909091,
                "end_time": 20.3409091,
                "pitch": 74,
                "velocity": 32,
                "duration": 0.15,
                "tempo": 120.0
            },
            {
                "start_time": 20.3909091,
                "end_time": 20.5409091,
                "pitch": 77,
                "velocity": 32,
                "duration": 0.15,
                "tempo": 120.0
            },
            {
                "start_time": 20.575,
                "end_time": 20.7272727,
                "pitch": 81,
                "velocity": 32,
                "duration": 0.1522727,
                "tempo": 120.0
            },
            {
                "start_time": 20.7272727,
                "end_time": 20.8818182,
                "pitch": 74,
                "velocity": 32,
                "duration": 0.1545455,
                "tempo": 120.0
            },
            {
                "start_time": 20.9340909,
                "end_time": 21.0909091,
                "pitch": 77,
                "velocity": 32,
                "duration": 0.1568182,
                "tempo": 120.0
            },
            {
                "start_time": 21.125,
                "end_time": 21.2795455,
                "pitch": 81,
                "velocity": 32,
                "duration": 0.1545455,
                "tempo": 120.0
            },
            {
                "start_time": 21.2795455,
                "end_time": 21.425,
                "pitch": 74,
                "velocity": 32,
                "duration": 0.1454545,
                "tempo": 120.0
            },
            {
                "start_time": 21.475,
                "end_time": 21.6227273,
                "pitch": 77,
                "velocity": 32,
                "duration": 0.1477273,
                "tempo": 120.0
            },
            {
                "start_time": 21.6568182,
                "end_time": 21.8045455,
                "pitch": 81,
                "velocity": 32,
                "duration": 0.1477273,
                "tempo": 120.0
            },
            {
                "start_time": 21.8045455,
                "end_time": 21.9545455,
                "pitch": 69,
                "velocity": 32,
                "duration": 0.15,
                "tempo": 120.0
            },
            {
                "start_time": 22.0045455,
                "end_time": 22.1545455,
                "pitch": 72,
                "velocity": 32,
                "duration": 0.15,
                "tempo": 120.0
            },
            {
                "start_time": 22.1886364,
                "end_time": 22.3386364,
                "pitch": 76,
                "velocity": 32,
                "duration": 0.15,
                "tempo": 120.0
            },
            {
                "start_time": 22.3386364,
                "end_time": 22.4931818,
                "pitch": 69,
                "velocity": 32,
                "duration": 0.1545455,
                "tempo": 120.0
            },
            {
                "start_time": 22.5431818,
                "end_time": 22.6954545,
                "pitch": 72,
                "velocity": 32,
                "duration": 0.1522727,
                "tempo": 120.0
            },
            {
                "start_time": 22.7295455,
                "end_time": 22.8840909,
                "pitch": 76,
                "velocity": 32,
                "duration": 0.1545455,
                "tempo": 120.0
            },
            {
                "start_time": 22.8840909,
                "end_time": 23.0431818,
                "pitch": 69,
                "velocity": 32,
                "duration": 0.1590909,
                "tempo": 120.0
            },
            {
                "start_time": 23.0954545,
                "end_time": 23.2545455,
                "pitch": 72,
                "velocity": 32,
                "duration": 0.1590909,
                "tempo": 120.0
            },
            {
                "start_time": 23.2909091,
                "end_time": 23.4454545,
                "pitch": 76,
                "velocity": 32,
                "duration": 0.1545455,
                "tempo": 120.0
            },
            {
                "start_time": 23.4454545,
                "end_time": 23.5909091,
                "pitch": 74,
                "velocity": 32,
                "duration": 0.1454545,
                "tempo": 120.0
            },
            {
                "start_time": 23.6386364,
                "end_time": 23.7840909,
                "pitch": 77,
                "velocity": 32,
                "duration": 0.1454545,
                "tempo": 120.0
            },
            {
                "start_time": 23.8159091,
                "end_time": 23.9613636,
                "pitch": 81,
                "velocity": 32,
                "duration": 0.1454545,
                "tempo": 120.0
            },
            {
                "start_time": 23.9613636,
                "end_time": 24.1204545,
                "pitch": 74,
                "velocity": 32,
                "duration": 0.1590909,
                "tempo": 120.0
            },
            {
                "start_time": 24.1727273,
                "end_time": 24.3318182,
                "pitch": 77,
                "velocity": 32,
                "duration": 0.1590909,
                "tempo": 120.0
            },
            {
                "start_time": 24.3681818,
                "end_time": 24.525,
                "pitch": 81,
                "velocity": 32,
                "duration": 0.1568182,
                "tempo": 120.0
            },
            {
                "start_time": 24.525,
                "end_time": 24.675,
                "pitch": 74,
                "velocity": 32,
                "duration": 0.15,
                "tempo": 120.0
            },
            {
                "start_time": 24.725,
                "end_time": 24.8772727,
                "pitch": 77,
                "velocity": 32,
                "duration": 0.1522727,
                "tempo": 120.0
            },
            {
                "start_time": 24.9090909,
                "end_time": 25.0590909,
                "pitch": 81,
                "velocity": 32,
                "duration": 0.15,
                "tempo": 120.0
            },
            {
                "start_time": 25.0590909,
                "end_time": 25.2113636,
                "pitch": 69,
                "velocity": 32,
                "duration": 0.1522727,
                "tempo": 120.0
            },
            {
                "start_time": 25.2613636,
                "end_time": 25.4113636,
                "pitch": 72,
                "velocity": 32,
                "duration": 0.15,
                "tempo": 120.0
            },
            {
                "start_time": 25.4431818,
                "end_time": 25.5931818,
                "pitch": 76,
                "velocity": 32,
                "duration": 0.15,
                "tempo": 120.0
            },
            {
                "start_time": 25.5931818,
                "end_time": 25.7386364,
                "pitch": 69,
                "velocity": 32,
                "duration": 0.1454545,
                "tempo": 120.0
            },
            {
                "start_time": 25.7863636,
                "end_time": 25.9318182,
                "pitch": 72,
                "velocity": 32,
                "duration": 0.1454545,
                "tempo": 120.0
            },
            {
                "start_time": 25.9636364,
                "end_time": 26.1113636,
                "pitch": 76,
                "velocity": 32,
                "duration": 0.1477273,
                "tempo": 120.0
            },
            {
                "start_time": 26.1113636,
                "end_time": 26.2613636,
                "pitch": 69,
                "velocity": 32,
                "duration": 0.15,
                "tempo": 120.0
            },
            {
                "start_time": 26.3113636,
                "end_time": 26.4613636,
                "pitch": 72,
                "velocity": 32,
                "duration": 0.15,
                "tempo": 120.0
            },
            {
                "start_time": 26.4954545,
                "end_time": 26.6454545,
                "pitch": 76,
                "velocity": 32,
                "duration": 0.15,
                "tempo": 120.0
            },
            {
                "start_time": 26.6454545,
                "end_time": 26.7954545,
                "pitch": 69,
                "velocity": 32,
                "duration": 0.15,
                "tempo": 120.0
            },
            {
                "start_time": 26.8454545,
                "end_time": 26.9954545,
                "pitch": 72,
                "velocity": 32,
                "duration": 0.15,
                "tempo": 120.0
            },
            {
                "start_time": 27.0295455,
                "end_time": 27.1795455,
                "pitch": 76,
                "velocity": 32,
                "duration": 0.15,
                "tempo": 120.0
            },
            {
                "start_time": 27.1795455,
                "end_time": 27.3295455,
                "pitch": 69,
                "velocity": 32,
                "duration": 0.15,
                "tempo": 120.0
            },
            {
                "start_time": 27.3795455,
                "end_time": 27.5295455,
                "pitch": 72,
                "velocity": 32,
                "duration": 0.15,
                "tempo": 120.0
            },
            {
                "start_time": 27.5636364,
                "end_time": 27.7136364,
                "pitch": 76,
                "velocity": 32,
                "duration": 0.15,
                "tempo": 120.0
            },
            {
                "start_time": 27.7136364,
                "end_time": 27.8681818,
                "pitch": 74,
                "velocity": 32,
                "duration": 0.1545455,
                "tempo": 120.0
            },
            {
                "start_time": 27.9181818,
                "end_time": 28.0727273,
                "pitch": 77,
                "velocity": 32,
                "duration": 0.1545455,
                "tempo": 120.0
            },
            {
                "start_time": 28.1045455,
                "end_time": 28.2568182,
                "pitch": 81,
                "velocity": 32,
                "duration": 0.1522727,
                "tempo": 120.0
            },
            {
                "start_time": 28.2568182,
                "end_time": 28.4090909,
                "pitch": 74,
                "velocity": 32,
                "duration": 0.1522727,
                "tempo": 120.0
            },
            {
                "start_time": 28.4590909,
                "end_time": 28.6090909,
                "pitch": 77,
                "velocity": 32,
                "duration": 0.15,
                "tempo": 120.0
            },
            {
                "start_time": 28.6409091,
                "end_time": 28.7931818,
                "pitch": 81,
                "velocity": 32,
                "duration": 0.1522727,
                "tempo": 120.0
            },
            {
                "start_time": 28.7931818,
                "end_time": 28.9431818,
                "pitch": 74,
                "velocity": 32,
                "duration": 0.15,
                "tempo": 120.0
            },
            {
                "start_time": 28.9931818,
                "end_time": 29.1431818,
                "pitch": 77,
                "velocity": 32,
                "duration": 0.15,
                "tempo": 120.0
            },
            {
                "start_time": 29.1772727,
                "end_time": 29.3272727,
                "pitch": 81,
                "velocity": 32,
                "duration": 0.15,
                "tempo": 120.0
            },
            {
                "start_time": 29.3272727,
                "end_time": 29.4886364,
                "pitch": 74,
                "velocity": 32,
                "duration": 0.1613636,
                "tempo": 120.0
            },
            {
                "start_time": 29.5431818,
                "end_time": 29.7045455,
                "pitch": 77,
                "velocity": 32,
                "duration": 0.1613636,
                "tempo": 120.0
            },
            {
                "start_time": 29.7409091,
                "end_time": 29.9022727,
                "pitch": 81,
                "velocity": 32,
                "duration": 0.1613636,
                "tempo": 120.0
            },
            {
                "start_time": 29.9022727,
                "end_time": 30.0545455,
                "pitch": 74,
                "velocity": 32,
                "duration": 0.1522727,
                "tempo": 120.0
            },
            {
                "start_time": 30.1068182,
                "end_time": 30.2590909,
                "pitch": 77,
                "velocity": 32,
                "duration": 0.1522727,
                "tempo": 120.0
            },
            {
                "start_time": 30.2931818,
                "end_time": 30.4454545,
                "pitch": 81,
                "velocity": 32,
                "duration": 0.1522727,
                "tempo": 120.0
            },
            {
                "start_time": 30.4454545,
                "end_time": 30.5954545,
                "pitch": 69,
                "velocity": 32,
                "duration": 0.15,
                "tempo": 120.0
            },
            {
                "start_time": 30.6454545,
                "end_time": 30.7977273,
                "pitch": 72,
                "velocity": 32,
                "duration": 0.1522727,
                "tempo": 120.0
            },
            {
                "start_time": 30.8295455,
                "end_time": 30.9772727,
                "pitch": 76,
                "velocity": 32,
                "duration": 0.1477273,
                "tempo": 120.0
            },
            {
                "start_time": 30.9772727,
                "end_time": 31.1181818,
                "pitch": 69,
                "velocity": 32,
                "duration": 0.1409091,
                "tempo": 120.0
            },
            {
                "start_time": 31.1659091,
                "end_time": 31.3090909,
                "pitch": 72,
                "velocity": 32,
                "duration": 0.1431818,
                "tempo": 120.0
            },
            {
                "start_time": 31.3386364,
                "end_time": 31.4840909,
                "pitch": 76,
                "velocity": 32,
                "duration": 0.1454545,
                "tempo": 120.0
            },
            {
                "start_time": 31.4840909,
                "end_time": 31.6340909,
                "pitch": 69,
                "velocity": 32,
                "duration": 0.15,
                "tempo": 120.0
            },
            {
                "start_time": 31.6840909,
                "end_time": 31.8340909,
                "pitch": 72,
                "velocity": 32,
                "duration": 0.15,
                "tempo": 120.0
            },
            {
                "start_time": 31.8681818,
                "end_time": 32.0181818,
                "pitch": 76,
                "velocity": 32,
                "duration": 0.15,
                "tempo": 120.0
            },
            {
                "start_time": 32.0181818,
                "end_time": 32.1681818,
                "pitch": 69,
                "velocity": 32,
                "duration": 0.15,
                "tempo": 120.0
            },
            {
                "start_time": 32.2181818,
                "end_time": 32.3681818,
                "pitch": 72,
                "velocity": 32,
                "duration": 0.15,
                "tempo": 120.0
            },
            {
                "start_time": 32.4022727,
                "end_time": 32.5545455,
                "pitch": 76,
                "velocity": 32,
                "duration": 0.1522727,
                "tempo": 120.0
            },
            {
                "start_time": 32.5545455,
                "end_time": 32.7068182,
                "pitch": 69,
                "velocity": 32,
                "duration": 0.1522727,
                "tempo": 120.0
            },
            {
                "start_time": 32.7568182,
                "end_time": 32.9113636,
                "pitch": 72,
                "velocity": 32,
                "duration": 0.1545455,
                "tempo": 120.0
            },
            {
                "start_time": 32.9454545,
                "end_time": 33.0954545,
                "pitch": 76,
                "velocity": 32,
                "duration": 0.15,
                "tempo": 120.0
            },
            {
                "start_time": 33.0954545,
                "end_time": 33.2477273,
                "pitch": 74,
                "velocity": 32,
                "duration": 0.1522727,
                "tempo": 120.0
            },
            {
                "start_time": 33.2977273,
                "end_time": 33.4477273,
                "pitch": 77,
                "velocity": 32,
                "duration": 0.15,
                "tempo": 120.0
            },
            {
                "start_time": 33.4795455,
                "end_time": 33.6318182,
                "pitch": 81,
                "velocity": 32,
                "duration": 0.1522727,
                "tempo": 120.0
            },
            {
                "start_time": 33.6318182,
                "end_time": 33.7931818,
                "pitch": 74,
                "velocity": 32,
                "duration": 0.1613636,
                "tempo": 120.0
            },
            {
                "start_time": 33.8477273,
                "end_time": 34.0090909,
                "pitch": 77,
                "velocity": 32,
                "duration": 0.1613636,
                "tempo": 120.0
            },
            {
                "start_time": 34.0454545,
                "end_time": 34.2045455,
                "pitch": 81,
                "velocity": 32,
                "duration": 0.1590909,
                "tempo": 120.0
            },
            {
                "start_time": 34.2045455,
                "end_time": 34.3522727,
                "pitch": 74,
                "velocity": 32,
                "duration": 0.1477273,
                "tempo": 120.0
            },
            {
                "start_time": 34.4022727,
                "end_time": 34.55,
                "pitch": 77,
                "velocity": 32,
                "duration": 0.1477273,
                "tempo": 120.0
            },
            {
                "start_time": 34.5818182,
                "end_time": 34.7295455,
                "pitch": 81,
                "velocity": 32,
                "duration": 0.1477273,
                "tempo": 120.0
            },
            {
                "start_time": 34.7295455,
                "end_time": 34.8840909,
                "pitch": 74,
                "velocity": 32,
                "duration": 0.1545455,
                "tempo": 120.0
            },
            {
                "start_time": 34.9340909,
                "end_time": 35.0863636,
                "pitch": 77,
                "velocity": 32,
                "duration": 0.1522727,
                "tempo": 120.0
            },
            {
                "start_time": 35.1204545,
                "end_time": 35.2727273,
                "pitch": 81,
                "velocity": 32,
                "duration": 0.1522727,
                "tempo": 120.0
            },
            {
                "start_time": 35.2727273,
                "end_time": 35.4181818,
                "pitch": 74,
                "velocity": 32,
                "duration": 0.1454545,
                "tempo": 120.0
            },
            {
                "start_time": 35.4659091,
                "end_time": 35.6113636,
                "pitch": 77,
                "velocity": 32,
                "duration": 0.1454545,
                "tempo": 120.0
            },
            {
                "start_time": 35.6431818,
                "end_time": 35.7886364,
                "pitch": 81,
                "velocity": 32,
                "duration": 0.1454545,
                "tempo": 120.0
            },
            {
                "start_time": 35.7886364,
                "end_time": 35.9477273,
                "pitch": 69,
                "velocity": 32,
                "duration": 0.1590909,
                "tempo": 120.0
            },
            {
                "start_time": 36.0022727,
                "end_time": 36.1590909,
                "pitch": 72,
                "velocity": 32,
                "duration": 0.1568182,
                "tempo": 120.0
            },
            {
                "start_time": 36.1954545,
                "end_time": 36.3477273,
                "pitch": 76,
                "velocity": 32,
                "duration": 0.1522727,
                "tempo": 120.0
            },
            {
                "start_time": 36.3477273,
                "end_time": 36.4909091,
                "pitch": 69,
                "velocity": 32,
                "duration": 0.1431818,
                "tempo": 120.0
            },
            {
                "start_time": 36.5363636,
                "end_time": 36.6795455,
                "pitch": 72,
                "velocity": 32,
                "duration": 0.1431818,
                "tempo": 120.0
            },
            {
                "start_time": 36.7090909,
                "end_time": 36.8545455,
                "pitch": 76,
                "velocity": 32,
                "duration": 0.1454545,
                "tempo": 120.0
            },
            {
                "start_time": 36.8545455,
                "end_time": 37.0068182,
                "pitch": 69,
                "velocity": 32,
                "duration": 0.1522727,
                "tempo": 120.0
            },
            {
                "start_time": 37.0590909,
                "end_time": 37.2113636,
                "pitch": 72,
                "velocity": 32,
                "duration": 0.1522727,
                "tempo": 120.0
            },
            {
                "start_time": 37.2454545,
                "end_time": 37.3977273,
                "pitch": 76,
                "velocity": 32,
                "duration": 0.1522727,
                "tempo": 120.0
            },
            {
                "start_time": 37.3977273,
                "end_time": 37.5477273,
                "pitch": 74,
                "velocity": 32,
                "duration": 0.15,
                "tempo": 120.0
            },
            {
                "start_time": 37.5977273,
                "end_time": 37.7477273,
                "pitch": 77,
                "velocity": 32,
                "duration": 0.15,
                "tempo": 120.0
            },
            {
                "start_time": 37.7818182,
                "end_time": 37.9340909,
                "pitch": 81,
                "velocity": 32,
                "duration": 0.1522727,
                "tempo": 120.0
            },
            {
                "start_time": 37.9340909,
                "end_time": 38.0931818,
                "pitch": 74,
                "velocity": 32,
                "duration": 0.1590909,
                "tempo": 120.0
            },
            {
                "start_time": 38.1454545,
                "end_time": 38.3045455,
                "pitch": 77,
                "velocity": 32,
                "duration": 0.1590909,
                "tempo": 120.0
            },
            {
                "start_time": 38.3386364,
                "end_time": 38.4977273,
                "pitch": 81,
                "velocity": 32,
                "duration": 0.1590909,
                "tempo": 120.0
            },
            {
                "start_time": 38.4977273,
                "end_time": 38.65,
                "pitch": 74,
                "velocity": 32,
                "duration": 0.1522727,
                "tempo": 120.0
            },
            {
                "start_time": 38.7022727,
                "end_time": 38.8545455,
                "pitch": 77,
                "velocity": 32,
                "duration": 0.1522727,
                "tempo": 120.0
            },
            {
                "start_time": 38.8886364,
                "end_time": 39.0409091,
                "pitch": 81,
                "velocity": 32,
                "duration": 0.1522727,
                "tempo": 120.0
            },
            {
                "start_time": 39.0409091,
                "end_time": 39.1909091,
                "pitch": 69,
                "velocity": 32,
                "duration": 0.15,
                "tempo": 120.0
            },
            {
                "start_time": 39.2409091,
                "end_time": 39.3909091,
                "pitch": 72,
                "velocity": 32,
                "duration": 0.15,
                "tempo": 120.0
            },
            {
                "start_time": 39.425,
                "end_time": 39.5727273,
                "pitch": 76,
                "velocity": 32,
                "duration": 0.1477273,
                "tempo": 120.0
            },
            {
                "start_time": 39.5727273,
                "end_time": 39.7136364,
                "pitch": 69,
                "velocity": 32,
                "duration": 0.1409091,
                "tempo": 120.0
            },
            {
                "start_time": 39.7613636,
                "end_time": 39.9022727,
                "pitch": 72,
                "velocity": 32,
                "duration": 0.1409091,
                "tempo": 120.0
            },
            {
                "start_time": 39.9340909,
                "end_time": 40.0795455,
                "pitch": 76,
                "velocity": 32,
                "duration": 0.1454545,
                "tempo": 120.0
            },
            {
                "start_time": 40.0795455,
                "end_time": 40.2318182,
                "pitch": 69,
                "velocity": 32,
                "duration": 0.1522727,
                "tempo": 120.0
            },
            {
                "start_time": 40.2840909,
                "end_time": 40.4363636,
                "pitch": 72,
                "velocity": 32,
                "duration": 0.1522727,
                "tempo": 120.0
            },
            {
                "start_time": 40.4704545,
                "end_time": 40.6227273,
                "pitch": 76,
                "velocity": 32,
                "duration": 0.1522727,
                "tempo": 120.0
            },
            {
                "start_time": 40.6227273,
                "end_time": 40.7727273,
                "pitch": 74,
                "velocity": 32,
                "duration": 0.15,
                "tempo": 120.0
            },
            {
                "start_time": 40.8227273,
                "end_time": 40.9727273,
                "pitch": 77,
                "velocity": 32,
                "duration": 0.15,
                "tempo": 120.0
            },
            {
                "start_time": 41.0068182,
                "end_time": 41.1568182,
                "pitch": 81,
                "velocity": 32,
                "duration": 0.15,
                "tempo": 120.0
            },
            {
                "start_time": 41.1568182,
                "end_time": 41.3159091,
                "pitch": 74,
                "velocity": 32,
                "duration": 0.1590909,
                "tempo": 120.0
            },
            {
                "start_time": 41.3681818,
                "end_time": 41.5272727,
                "pitch": 77,
                "velocity": 32,
                "duration": 0.1590909,
                "tempo": 120.0
            },
            {
                "start_time": 41.5636364,
                "end_time": 41.7204545,
                "pitch": 81,
                "velocity": 32,
                "duration": 0.1568182,
                "tempo": 120.0
            },
            {
                "start_time": 41.7204545,
                "end_time": 41.875,
                "pitch": 74,
                "velocity": 32,
                "duration": 0.1545455,
                "tempo": 120.0
            },
            {
                "start_time": 41.925,
                "end_time": 42.0795455,
                "pitch": 77,
                "velocity": 32,
                "duration": 0.1545455,
                "tempo": 120.0
            },
            {
                "start_time": 42.1136364,
                "end_time": 42.2659091,
                "pitch": 81,
                "velocity": 32,
                "duration": 0.1522727,
                "tempo": 120.0
            },
            {
                "start_time": 42.2659091,
                "end_time": 42.4159091,
                "pitch": 69,
                "velocity": 32,
                "duration": 0.15,
                "tempo": 120.0
            },
            {
                "start_time": 42.4659091,
                "end_time": 42.6159091,
                "pitch": 72,
                "velocity": 32,
                "duration": 0.15,
                "tempo": 120.0
            },
            {
                "start_time": 42.65,
                "end_time": 42.7977273,
                "pitch": 76,
                "velocity": 32,
                "duration": 0.1477273,
                "tempo": 120.0
            },
            {
                "start_time": 42.7977273,
                "end_time": 42.9386364,
                "pitch": 69,
                "velocity": 32,
                "duration": 0.1409091,
                "tempo": 120.0
            },
            {
                "start_time": 42.9863636,
                "end_time": 43.1272727,
                "pitch": 72,
                "velocity": 32,
                "duration": 0.1409091,
                "tempo": 120.0
            },
            {
                "start_time": 43.1590909,
                "end_time": 43.3022727,
                "pitch": 76,
                "velocity": 32,
                "duration": 0.1431818,
                "tempo": 120.0
            },
            {
                "start_time": 43.3022727,
                "end_time": 43.4568182,
                "pitch": 69,
                "velocity": 32,
                "duration": 0.1545455,
                "tempo": 120.0
            },
            {
                "start_time": 43.5068182,
                "end_time": 43.6613636,
                "pitch": 72,
                "velocity": 32,
                "duration": 0.1545455,
                "tempo": 120.0
            },
            {
                "start_time": 43.6931818,
                "end_time": 43.8454545,
                "pitch": 76,
                "velocity": 32,
                "duration": 0.1522727,
                "tempo": 120.0
            },
            {
                "start_time": 43.8454545,
                "end_time": 43.9977273,
                "pitch": 69,
                "velocity": 32,
                "duration": 0.1522727,
                "tempo": 120.0
            },
            {
                "start_time": 44.0477273,
                "end_time": 44.1977273,
                "pitch": 72,
                "velocity": 32,
                "duration": 0.15,
                "tempo": 120.0
            },
            {
                "start_time": 44.2295455,
                "end_time": 44.3818182,
                "pitch": 76,
                "velocity": 32,
                "duration": 0.1522727,
                "tempo": 120.0
            },
            {
                "start_time": 44.3818182,
                "end_time": 44.5318182,
                "pitch": 69,
                "velocity": 32,
                "duration": 0.15,
                "tempo": 120.0
            },
            {
                "start_time": 44.5818182,
                "end_time": 44.7318182,
                "pitch": 72,
                "velocity": 32,
                "duration": 0.15,
                "tempo": 120.0
            },
            {
                "start_time": 44.7659091,
                "end_time": 44.9159091,
                "pitch": 76,
                "velocity": 32,
                "duration": 0.15,
                "tempo": 120.0
            },
            {
                "start_time": 44.9159091,
                "end_time": 45.0659091,
                "pitch": 74,
                "velocity": 32,
                "duration": 0.15,
                "tempo": 120.0
            },
            {
                "start_time": 45.1159091,
                "end_time": 45.2659091,
                "pitch": 77,
                "velocity": 32,
                "duration": 0.15,
                "tempo": 120.0
            },
            {
                "start_time": 45.3,
                "end_time": 45.45,
                "pitch": 81,
                "velocity": 32,
                "duration": 0.15,
                "tempo": 120.0
            },
            {
                "start_time": 45.45,
                "end_time": 45.6136364,
                "pitch": 74,
                "velocity": 32,
                "duration": 0.1636364,
                "tempo": 120.0
            },
            {
                "start_time": 45.6659091,
                "end_time": 45.8272727,
                "pitch": 77,
                "velocity": 32,
                "duration": 0.1613636,
                "tempo": 120.0
            },
            {
                "start_time": 45.8636364,
                "end_time": 46.025,
                "pitch": 81,
                "velocity": 32,
                "duration": 0.1613636,
                "tempo": 120.0
            },
            {
                "start_time": 46.025,
                "end_time": 46.1772727,
                "pitch": 74,
                "velocity": 32,
                "duration": 0.1522727,
                "tempo": 120.0
            },
            {
                "start_time": 46.2295455,
                "end_time": 46.3818182,
                "pitch": 77,
                "velocity": 32,
                "duration": 0.1522727,
                "tempo": 120.0
            },
            {
                "start_time": 46.4159091,
                "end_time": 46.5681818,
                "pitch": 81,
                "velocity": 32,
                "duration": 0.1522727,
                "tempo": 120.0
            },
            {
                "start_time": 46.5681818,
                "end_time": 46.7204545,
                "pitch": 74,
                "velocity": 32,
                "duration": 0.1522727,
                "tempo": 120.0
            },
            {
                "start_time": 46.7704545,
                "end_time": 46.9204545,
                "pitch": 77,
                "velocity": 32,
                "duration": 0.15,
                "tempo": 120.0
            },
            {
                "start_time": 46.9522727,
                "end_time": 47.1045455,
                "pitch": 81,
                "velocity": 32,
                "duration": 0.1522727,
                "tempo": 120.0
            },
            {
                "start_time": 47.1045455,
                "end_time": 47.2545455,
                "pitch": 74,
                "velocity": 32,
                "duration": 0.15,
                "tempo": 120.0
            },
            {
                "start_time": 47.3045455,
                "end_time": 47.4545455,
                "pitch": 77,
                "velocity": 32,
                "duration": 0.15,
                "tempo": 120.0
            },
            {
                "start_time": 47.4886364,
                "end_time": 47.6386364,
                "pitch": 81,
                "velocity": 32,
                "duration": 0.15,
                "tempo": 120.0
            },
            {
                "start_time": 47.6386364,
                "end_time": 47.7886364,
                "pitch": 69,
                "velocity": 32,
                "duration": 0.15,
                "tempo": 120.0
            },
            {
                "start_time": 47.8386364,
                "end_time": 47.9886364,
                "pitch": 72,
                "velocity": 32,
                "duration": 0.15,
                "tempo": 120.0
            },
            {
                "start_time": 48.0227273,
                "end_time": 48.1704545,
                "pitch": 76,
                "velocity": 32,
                "duration": 0.1477273,
                "tempo": 120.0
            },
            {
                "start_time": 48.1704545,
                "end_time": 48.3159091,
                "pitch": 69,
                "velocity": 32,
                "duration": 0.1454545,
                "tempo": 120.0
            },
            {
                "start_time": 48.3636364,
                "end_time": 48.5090909,
                "pitch": 72,
                "velocity": 32,
                "duration": 0.1454545,
                "tempo": 120.0
            },
            {
                "start_time": 48.5409091,
                "end_time": 48.6886364,
                "pitch": 76,
                "velocity": 32,
                "duration": 0.1477273,
                "tempo": 120.0
            },
            {
                "start_time": 48.6886364,
                "end_time": 48.8386364,
                "pitch": 69,
                "velocity": 32,
                "duration": 0.15,
                "tempo": 120.0
            },
            {
                "start_time": 48.8886364,
                "end_time": 49.0386364,
                "pitch": 72,
                "velocity": 32,
                "duration": 0.15,
                "tempo": 120.0
            },
            {
                "start_time": 49.0727273,
                "end_time": 49.2227273,
                "pitch": 76,
                "velocity": 32,
                "duration": 0.15,
                "tempo": 120.0
            },
            {
                "start_time": 49.2227273,
                "end_time": 49.3727273,
                "pitch": 69,
                "velocity": 32,
                "duration": 0.15,
                "tempo": 120.0
            },
            {
                "start_time": 49.4227273,
                "end_time": 49.5727273,
                "pitch": 72,
                "velocity": 32,
                "duration": 0.15,
                "tempo": 120.0
            },
            {
                "start_time": 49.6068182,
                "end_time": 49.7590909,
                "pitch": 76,
                "velocity": 32,
                "duration": 0.1522727,
                "tempo": 120.0
            },
            {
                "start_time": 49.7590909,
                "end_time": 49.9113636,
                "pitch": 69,
                "velocity": 32,
                "duration": 0.1522727,
                "tempo": 120.0
            },
            {
                "start_time": 49.9613636,
                "end_time": 50.1159091,
                "pitch": 72,
                "velocity": 32,
                "duration": 0.1545455,
                "tempo": 120.0
            },
            {
                "start_time": 50.15,
                "end_time": 50.3022727,
                "pitch": 76,
                "velocity": 32,
                "duration": 0.1522727,
                "tempo": 120.0
            },
            {
                "start_time": 50.3022727,
                "end_time": 50.4522727,
                "pitch": 74,
                "velocity": 32,
                "duration": 0.15,
                "tempo": 120.0
            },
            {
                "start_time": 50.5022727,
                "end_time": 50.6522727,
                "pitch": 77,
                "velocity": 32,
                "duration": 0.15,
                "tempo": 120.0
            },
            {
                "start_time": 50.6863636,
                "end_time": 50.8363636,
                "pitch": 81,
                "velocity": 32,
                "duration": 0.15,
                "tempo": 120.0
            },
            {
                "start_time": 50.8363636,
                "end_time": 50.9863636,
                "pitch": 74,
                "velocity": 32,
                "duration": 0.15,
                "tempo": 120.0
            },
            {
                "start_time": 51.0363636,
                "end_time": 51.1863636,
                "pitch": 77,
                "velocity": 32,
                "duration": 0.15,
                "tempo": 120.0
            },
            {
                "start_time": 51.2204545,
                "end_time": 51.3704545,
                "pitch": 81,
                "velocity": 32,
                "duration": 0.15,
                "tempo": 120.0
            },
            {
                "start_time": 51.3704545,
                "end_time": 51.5295455,
                "pitch": 74,
                "velocity": 32,
                "duration": 0.1590909,
                "tempo": 120.0
            },
            {
                "start_time": 51.5818182,
                "end_time": 51.7409091,
                "pitch": 77,
                "velocity": 32,
                "duration": 0.1590909,
                "tempo": 120.0
            },
            {
                "start_time": 51.7772727,
                "end_time": 51.9340909,
                "pitch": 81,
                "velocity": 32,
                "duration": 0.1568182,
                "tempo": 120.0
            },
            {
                "start_time": 51.9340909,
                "end_time": 52.0886364,
                "pitch": 74,
                "velocity": 32,
                "duration": 0.1545455,
                "tempo": 120.0
            },
            {
                "start_time": 52.1386364,
                "end_time": 52.2909091,
                "pitch": 77,
                "velocity": 32,
                "duration": 0.1522727,
                "tempo": 120.0
            },
            {
                "start_time": 52.325,
                "end_time": 52.4795455,
                "pitch": 81,
                "velocity": 32,
                "duration": 0.1545455,
                "tempo": 120.0
            },
            {
                "start_time": 52.4795455,
                "end_time": 52.6295455,
                "pitch": 74,
                "velocity": 32,
                "duration": 0.15,
                "tempo": 120.0
            },
            {
                "start_time": 52.6795455,
                "end_time": 52.8295455,
                "pitch": 77,
                "velocity": 32,
                "duration": 0.15,
                "tempo": 120.0
            },
            {
                "start_time": 52.8636364,
                "end_time": 53.0136364,
                "pitch": 81,
                "velocity": 32,
                "duration": 0.15,
                "tempo": 120.0
            },
            {
                "start_time": 53.0136364,
                "end_time": 53.1659091,
                "pitch": 69,
                "velocity": 32,
                "duration": 0.1522727,
                "tempo": 120.0
            },
            {
                "start_time": 53.2181818,
                "end_time": 53.3704545,
                "pitch": 72,
                "velocity": 32,
                "duration": 0.1522727,
                "tempo": 120.0
            },
            {
                "start_time": 53.4045455,
                "end_time": 53.5545455,
                "pitch": 76,
                "velocity": 32,
                "duration": 0.15,
                "tempo": 120.0
            },
            {
                "start_time": 53.5545455,
                "end_time": 53.6954545,
                "pitch": 69,
                "velocity": 32,
                "duration": 0.1409091,
                "tempo": 120.0
            },
            {
                "start_time": 53.7431818,
                "end_time": 53.8840909,
                "pitch": 72,
                "velocity": 32,
                "duration": 0.1409091,
                "tempo": 120.0
            },
            {
                "start_time": 53.9159091,
                "end_time": 54.0590909,
                "pitch": 76,
                "velocity": 32,
                "duration": 0.1431818,
                "tempo": 120.0
            },
            {
                "start_time": 54.0590909,
                "end_time": 54.2090909,
                "pitch": 69,
                "velocity": 32,
                "duration": 0.15,
                "tempo": 120.0
            },
            {
                "start_time": 54.2590909,
                "end_time": 54.4113636,
                "pitch": 72,
                "velocity": 32,
                "duration": 0.1522727,
                "tempo": 120.0
            },
            {
                "start_time": 54.4431818,
                "end_time": 54.5931818,
                "pitch": 76,
                "velocity": 32,
                "duration": 0.15,
                "tempo": 120.0
            },
            {
                "start_time": 54.5931818,
                "end_time": 54.7454545,
                "pitch": 74,
                "velocity": 32,
                "duration": 0.1522727,
                "tempo": 120.0
            },
            {
                "start_time": 54.7954545,
                "end_time": 54.9454545,
                "pitch": 77,
                "velocity": 32,
                "duration": 0.15,
                "tempo": 120.0
            },
            {
                "start_time": 54.9772727,
                "end_time": 55.1295455,
                "pitch": 81,
                "velocity": 32,
                "duration": 0.1522727,
                "tempo": 120.0
            },
            {
                "start_time": 55.1295455,
                "end_time": 55.2795455,
                "pitch": 74,
                "velocity": 32,
                "duration": 0.15,
                "tempo": 120.0
            },
            {
                "start_time": 55.3295455,
                "end_time": 55.4795455,
                "pitch": 77,
                "velocity": 32,
                "duration": 0.15,
                "tempo": 120.0
            },
            {
                "start_time": 55.5136364,
                "end_time": 55.6636364,
                "pitch": 81,
                "velocity": 32,
                "duration": 0.15,
                "tempo": 120.0
            },
            {
                "start_time": 55.6636364,
                "end_time": 55.8159091,
                "pitch": 74,
                "velocity": 32,
                "duration": 0.1522727,
                "tempo": 120.0
            },
            {
                "start_time": 55.8681818,
                "end_time": 56.0204545,
                "pitch": 77,
                "velocity": 32,
                "duration": 0.1522727,
                "tempo": 120.0
            },
            {
                "start_time": 56.0545455,
                "end_time": 56.2068182,
                "pitch": 81,
                "velocity": 32,
                "duration": 0.1522727,
                "tempo": 120.0
            },
            {
                "start_time": 56.2068182,
                "end_time": 56.3568182,
                "pitch": 69,
                "velocity": 32,
                "duration": 0.15,
                "tempo": 120.0
            },
            {
                "start_time": 56.4068182,
                "end_time": 56.5568182,
                "pitch": 72,
                "velocity": 32,
                "duration": 0.15,
                "tempo": 120.0
            },
            {
                "start_time": 56.5909091,
                "end_time": 56.7431818,
                "pitch": 76,
                "velocity": 32,
                "duration": 0.1522727,
                "tempo": 120.0
            },
            {
                "start_time": 56.7431818,
                "end_time": 56.8954545,
                "pitch": 69,
                "velocity": 32,
                "duration": 0.1522727,
                "tempo": 120.0
            },
            {
                "start_time": 56.9454545,
                "end_time": 57.1,
                "pitch": 72,
                "velocity": 32,
                "duration": 0.1545455,
                "tempo": 120.0
            },
            {
                "start_time": 57.1340909,
                "end_time": 57.2863636,
                "pitch": 76,
                "velocity": 32,
                "duration": 0.1522727,
                "tempo": 120.0
            },
            {
                "start_time": 57.2863636,
                "end_time": 57.4363636,
                "pitch": 69,
                "velocity": 32,
                "duration": 0.15,
                "tempo": 120.0
            },
            {
                "start_time": 57.4863636,
                "end_time": 57.6363636,
                "pitch": 72,
                "velocity": 32,
                "duration": 0.15,
                "tempo": 120.0
            },
            {
                "start_time": 57.6704545,
                "end_time": 57.8204545,
                "pitch": 76,
                "velocity": 32,
                "duration": 0.15,
                "tempo": 120.0
            },
            {
                "start_time": 57.8204545,
                "end_time": 57.9704545,
                "pitch": 74,
                "velocity": 32,
                "duration": 0.15,
                "tempo": 120.0
            },
            {
                "start_time": 58.0204545,
                "end_time": 58.1704545,
                "pitch": 77,
                "velocity": 32,
                "duration": 0.15,
                "tempo": 120.0
            },
            {
                "start_time": 58.2045455,
                "end_time": 58.3545455,
                "pitch": 81,
                "velocity": 32,
                "duration": 0.15,
                "tempo": 120.0
            },
            {
                "start_time": 58.3545455,
                "end_time": 58.5159091,
                "pitch": 74,
                "velocity": 32,
                "duration": 0.1613636,
                "tempo": 120.0
            },
            {
                "start_time": 58.5704545,
                "end_time": 58.7318182,
                "pitch": 77,
                "velocity": 32,
                "duration": 0.1613636,
                "tempo": 120.0
            },
            {
                "start_time": 58.7681818,
                "end_time": 58.9295455,
                "pitch": 81,
                "velocity": 32,
                "duration": 0.1613636,
                "tempo": 120.0
            },
            {
                "start_time": 58.9295455,
                "end_time": 59.0795455,
                "pitch": 74,
                "velocity": 32,
                "duration": 0.15,
                "tempo": 120.0
            },
            {
                "start_time": 59.1295455,
                "end_time": 59.2795455,
                "pitch": 77,
                "velocity": 32,
                "duration": 0.15,
                "tempo": 120.0
            },
            {
                "start_time": 59.3136364,
                "end_time": 59.4636364,
                "pitch": 81,
                "velocity": 32,
                "duration": 0.15,
                "tempo": 120.0
            },
            {
                "start_time": 59.4636364,
                "end_time": 59.6136364,
                "pitch": 69,
                "velocity": 32,
                "duration": 0.15,
                "tempo": 120.0
            },
            {
                "start_time": 59.6636364,
                "end_time": 59.8136364,
                "pitch": 72,
                "velocity": 32,
                "duration": 0.15,
                "tempo": 120.0
            },
            {
                "start_time": 59.8477273,
                "end_time": 59.9954545,
                "pitch": 76,
                "velocity": 32,
                "duration": 0.1477273,
                "tempo": 120.0
            },
            {
                "start_time": 59.9954545,
                "end_time": 60.1409091,
                "pitch": 69,
                "velocity": 32,
                "duration": 0.1454545,
                "tempo": 120.0
            },
            {
                "start_time": 60.1886364,
                "end_time": 60.3340909,
                "pitch": 72,
                "velocity": 32,
                "duration": 0.1454545,
                "tempo": 120.0
            },
            {
                "start_time": 60.3659091,
                "end_time": 60.5136364,
                "pitch": 76,
                "velocity": 32,
                "duration": 0.1477273,
                "tempo": 120.0
            },
            {
                "start_time": 60.5136364,
                "end_time": 60.6636364,
                "pitch": 69,
                "velocity": 32,
                "duration": 0.15,
                "tempo": 120.0
            },
            {
                "start_time": 60.7136364,
                "end_time": 60.8636364,
                "pitch": 72,
                "velocity": 32,
                "duration": 0.15,
                "tempo": 120.0
            },
            {
                "start_time": 60.8977273,
                "end_time": 61.05,
                "pitch": 76,
                "velocity": 32,
                "duration": 0.1522727,
                "tempo": 120.0
            },
            {
                "start_time": 61.05,
                "end_time": 61.2022727,
                "pitch": 69,
                "velocity": 32,
                "duration": 0.1522727,
                "tempo": 120.0
            },
            {
                "start_time": 61.2522727,
                "end_time": 61.4068182,
                "pitch": 72,
                "velocity": 32,
                "duration": 0.1545455,
                "tempo": 120.0
            },
            {
                "start_time": 61.4409091,
                "end_time": 61.5931818,
                "pitch": 76,
                "velocity": 32,
                "duration": 0.1522727,
                "tempo": 120.0
            },
            {
                "start_time": 61.5931818,
                "end_time": 61.7431818,
                "pitch": 69,
                "velocity": 32,
                "duration": 0.15,
                "tempo": 120.0
            },
            {
                "start_time": 61.7931818,
                "end_time": 61.9431818,
                "pitch": 72,
                "velocity": 32,
                "duration": 0.15,
                "tempo": 120.0
            },
            {
                "start_time": 61.9772727,
                "end_time": 62.1272727,
                "pitch": 76,
                "velocity": 32,
                "duration": 0.15,
                "tempo": 120.0
            },
            {
                "start_time": 62.1272727,
                "end_time": 62.2772727,
                "pitch": 74,
                "velocity": 32,
                "duration": 0.15,
                "tempo": 120.0
            },
            {
                "start_time": 62.3272727,
                "end_time": 62.4772727,
                "pitch": 77,
                "velocity": 32,
                "duration": 0.15,
                "tempo": 120.0
            },
            {
                "start_time": 62.5113636,
                "end_time": 62.6613636,
                "pitch": 81,
                "velocity": 32,
                "duration": 0.15,
                "tempo": 120.0
            },
            {
                "start_time": 62.6613636,
                "end_time": 62.8227273,
                "pitch": 74,
                "velocity": 32,
                "duration": 0.1613636,
                "tempo": 120.0
            },
            {
                "start_time": 62.8772727,
                "end_time": 63.0386364,
                "pitch": 77,
                "velocity": 32,
                "duration": 0.1613636,
                "tempo": 120.0
            },
            {
                "start_time": 63.075,
                "end_time": 63.2363636,
                "pitch": 81,
                "velocity": 32,
                "duration": 0.1613636,
                "tempo": 120.0
            },
            {
                "start_time": 63.2363636,
                "end_time": 63.3863636,
                "pitch": 74,
                "velocity": 32,
                "duration": 0.15,
                "tempo": 120.0
            },
            {
                "start_time": 63.4363636,
                "end_time": 63.5863636,
                "pitch": 77,
                "velocity": 32,
                "duration": 0.15,
                "tempo": 120.0
            },
            {
                "start_time": 63.6204545,
                "end_time": 63.7704545,
                "pitch": 81,
                "velocity": 32,
                "duration": 0.15,
                "tempo": 120.0
            },
            {
                "start_time": 63.7704545,
                "end_time": 63.9204545,
                "pitch": 74,
                "velocity": 32,
                "duration": 0.15,
                "tempo": 120.0
            },
            {
                "start_time": 63.9704545,
                "end_time": 64.1204545,
                "pitch": 77,
                "velocity": 32,
                "duration": 0.15,
                "tempo": 120.0
            },
            {
                "start_time": 64.1545455,
                "end_time": 64.3045455,
                "pitch": 81,
                "velocity": 32,
                "duration": 0.15,
                "tempo": 120.0
            },
            {
                "start_time": 64.3045455,
                "end_time": 64.4545455,
                "pitch": 74,
                "velocity": 32,
                "duration": 0.15,
                "tempo": 120.0
            },
            {
                "start_time": 64.5045455,
                "end_time": 64.6545455,
                "pitch": 77,
                "velocity": 32,
                "duration": 0.15,
                "tempo": 120.0
            },
            {
                "start_time": 64.6886364,
                "end_time": 64.8363636,
                "pitch": 81,
                "velocity": 32,
                "duration": 0.1477273,
                "tempo": 120.0
            },
            {
                "start_time": 64.8363636,
                "end_time": 64.9818182,
                "pitch": 69,
                "velocity": 32,
                "duration": 0.1454545,
                "tempo": 120.0
            },
            {
                "start_time": 65.0318182,
                "end_time": 65.175,
                "pitch": 72,
                "velocity": 32,
                "duration": 0.1431818,
                "tempo": 120.0
            },
            {
                "start_time": 65.2090909,
                "end_time": 65.3545455,
                "pitch": 76,
                "velocity": 32,
                "duration": 0.1454545,
                "tempo": 120.0
            },
            {
                "start_time": 65.3545455,
                "end_time": 65.5045455,
                "pitch": 69,
                "velocity": 32,
                "duration": 0.15,
                "tempo": 120.0
            },
            {
                "start_time": 65.5545455,
                "end_time": 65.7068182,
                "pitch": 72,
                "velocity": 32,
                "duration": 0.1522727,
                "tempo": 120.0
            },
            {
                "start_time": 65.7386364,
                "end_time": 65.8886364,
                "pitch": 76,
                "velocity": 32,
                "duration": 0.15,
                "tempo": 120.0
            },
            {
                "start_time": 65.8886364,
                "end_time": 66.0409091,
                "pitch": 69,
                "velocity": 32,
                "duration": 0.1522727,
                "tempo": 120.0
            },
            {
                "start_time": 66.0909091,
                "end_time": 66.2409091,
                "pitch": 72,
                "velocity": 32,
                "duration": 0.15,
                "tempo": 120.0
            },
            {
                "start_time": 66.2727273,
                "end_time": 66.425,
                "pitch": 76,
                "velocity": 32,
                "duration": 0.1522727,
                "tempo": 120.0
            },
            {
                "start_time": 66.425,
                "end_time": 66.5772727,
                "pitch": 69,
                "velocity": 32,
                "duration": 0.1522727,
                "tempo": 120.0
            },
            {
                "start_time": 66.6295455,
                "end_time": 66.7818182,
                "pitch": 72,
                "velocity": 32,
                "duration": 0.1522727,
                "tempo": 120.0
            },
            {
                "start_time": 66.8159091,
                "end_time": 66.9681818,
                "pitch": 76,
                "velocity": 32,
                "duration": 0.1522727,
                "tempo": 120.0
            },
            {
                "start_time": 66.9681818,
                "end_time": 67.1181818,
                "pitch": 69,
                "velocity": 32,
                "duration": 0.15,
                "tempo": 120.0
            },
            {
                "start_time": 67.1681818,
                "end_time": 67.3181818,
                "pitch": 72,
                "velocity": 32,
                "duration": 0.15,
                "tempo": 120.0
            },
            {
                "start_time": 67.3522727,
                "end_time": 67.5022727,
                "pitch": 76,
                "velocity": 32,
                "duration": 0.15,
                "tempo": 120.0
            },
            {
                "start_time": 67.5022727,
                "end_time": 67.6522727,
                "pitch": 74,
                "velocity": 32,
                "duration": 0.15,
                "tempo": 120.0
            },
            {
                "start_time": 67.7022727,
                "end_time": 67.8522727,
                "pitch": 77,
                "velocity": 32,
                "duration": 0.15,
                "tempo": 120.0
            },
            {
                "start_time": 67.8863636,
                "end_time": 68.0386364,
                "pitch": 81,
                "velocity": 32,
                "duration": 0.1522727,
                "tempo": 120.0
            },
            {
                "start_time": 68.0386364,
                "end_time": 68.2,
                "pitch": 74,
                "velocity": 32,
                "duration": 0.1613636,
                "tempo": 120.0
            },
            {
                "start_time": 68.2545455,
                "end_time": 68.4159091,
                "pitch": 77,
                "velocity": 32,
                "duration": 0.1613636,
                "tempo": 120.0
            },
            {
                "start_time": 68.4522727,
                "end_time": 68.6090909,
                "pitch": 81,
                "velocity": 32,
                "duration": 0.1568182,
                "tempo": 120.0
            },
            {
                "start_time": 68.6090909,
                "end_time": 68.7545455,
                "pitch": 74,
                "velocity": 32,
                "duration": 0.1454545,
                "tempo": 120.0
            },
            {
                "start_time": 68.8022727,
                "end_time": 68.9477273,
                "pitch": 77,
                "velocity": 32,
                "duration": 0.1454545,
                "tempo": 120.0
            },
            {
                "start_time": 68.9795455,
                "end_time": 69.125,
                "pitch": 81,
                "velocity": 32,
                "duration": 0.1454545,
                "tempo": 120.0
            },
            {
                "start_time": 69.125,
                "end_time": 69.2840909,
                "pitch": 74,
                "velocity": 32,
                "duration": 0.1590909,
                "tempo": 120.0
            },
            {
                "start_time": 69.3363636,
                "end_time": 69.4954545,
                "pitch": 77,
                "velocity": 32,
                "duration": 0.1590909,
                "tempo": 120.0
            },
            {
                "start_time": 69.5318182,
                "end_time": 69.6886364,
                "pitch": 81,
                "velocity": 32,
                "duration": 0.1568182,
                "tempo": 120.0
            },
            {
                "start_time": 69.6886364,
                "end_time": 69.8386364,
                "pitch": 74,
                "velocity": 32,
                "duration": 0.15,
                "tempo": 120.0
            },
            {
                "start_time": 69.8886364,
                "end_time": 70.0409091,
                "pitch": 77,
                "velocity": 32,
                "duration": 0.1522727,
                "tempo": 120.0
            },
            {
                "start_time": 70.0727273,
                "end_time": 70.2227273,
                "pitch": 81,
                "velocity": 32,
                "duration": 0.15,
                "tempo": 120.0
            },
            {
                "start_time": 70.2227273,
                "end_time": 70.375,
                "pitch": 69,
                "velocity": 32,
                "duration": 0.1522727,
                "tempo": 120.0
            },
            {
                "start_time": 70.425,
                "end_time": 70.575,
                "pitch": 72,
                "velocity": 32,
                "duration": 0.15,
                "tempo": 120.0
            },
            {
                "start_time": 70.6068182,
                "end_time": 70.7545455,
                "pitch": 76,
                "velocity": 32,
                "duration": 0.1477273,
                "tempo": 120.0
            },
            {
                "start_time": 70.7545455,
                "end_time": 70.8954545,
                "pitch": 69,
                "velocity": 32,
                "duration": 0.1409091,
                "tempo": 120.0
            },
            {
                "start_time": 70.9431818,
                "end_time": 71.0840909,
                "pitch": 72,
                "velocity": 32,
                "duration": 0.1409091,
                "tempo": 120.0
            },
            {
                "start_time": 71.1159091,
                "end_time": 71.2613636,
                "pitch": 76,
                "velocity": 32,
                "duration": 0.1454545,
                "tempo": 120.0
            },
            {
                "start_time": 71.2613636,
                "end_time": 71.4136364,
                "pitch": 69,
                "velocity": 32,
                "duration": 0.1522727,
                "tempo": 120.0
            },
            {
                "start_time": 71.4659091,
                "end_time": 71.6181818,
                "pitch": 72,
                "velocity": 32,
                "duration": 0.1522727,
                "tempo": 120.0
            },
            {
                "start_time": 71.6522727,
                "end_time": 71.8045455,
                "pitch": 76,
                "velocity": 32,
                "duration": 0.1522727,
                "tempo": 120.0
            },
            {
                "start_time": 71.8045455,
                "end_time": 71.9545455,
                "pitch": 74,
                "velocity": 32,
                "duration": 0.15,
                "tempo": 120.0
            },
            {
                "start_time": 72.0045455,
                "end_time": 72.1545455,
                "pitch": 77,
                "velocity": 32,
                "duration": 0.15,
                "tempo": 120.0
            },
            {
                "start_time": 72.1886364,
                "end_time": 72.3409091,
                "pitch": 81,
                "velocity": 32,
                "duration": 0.1522727,
                "tempo": 120.0
            },
            {
                "start_time": 72.3409091,
                "end_time": 72.5,
                "pitch": 74,
                "velocity": 32,
                "duration": 0.1590909,
                "tempo": 120.0
            },
            {
                "start_time": 72.5522727,
                "end_time": 72.7113636,
                "pitch": 77,
                "velocity": 32,
                "duration": 0.1590909,
                "tempo": 120.0
            },
            {
                "start_time": 72.7454545,
                "end_time": 72.9045455,
                "pitch": 81,
                "velocity": 32,
                "duration": 0.1590909,
                "tempo": 120.0
            },
            {
                "start_time": 72.9045455,
                "end_time": 73.0568182,
                "pitch": 74,
                "velocity": 32,
                "duration": 0.1522727,
                "tempo": 120.0
            },
            {
                "start_time": 73.1090909,
                "end_time": 73.2613636,
                "pitch": 77,
                "velocity": 32,
                "duration": 0.1522727,
                "tempo": 120.0
            },
            {
                "start_time": 73.2954545,
                "end_time": 73.4477273,
                "pitch": 81,
                "velocity": 32,
                "duration": 0.1522727,
                "tempo": 120.0
            },
            {
                "start_time": 73.4477273,
                "end_time": 73.5977273,
                "pitch": 69,
                "velocity": 32,
                "duration": 0.15,
                "tempo": 120.0
            },
            {
                "start_time": 73.6477273,
                "end_time": 73.7977273,
                "pitch": 72,
                "velocity": 32,
                "duration": 0.15,
                "tempo": 120.0
            },
            {
                "start_time": 73.8318182,
                "end_time": 73.9818182,
                "pitch": 76,
                "velocity": 32,
                "duration": 0.15,
                "tempo": 120.0
            },
            {
                "start_time": 73.9818182,
                "end_time": 74.125,
                "pitch": 69,
                "velocity": 32,
                "duration": 0.1431818,
                "tempo": 120.0
            },
            {
                "start_time": 74.175,
                "end_time": 74.3204545,
                "pitch": 72,
                "velocity": 32,
                "duration": 0.1454545,
                "tempo": 120.0
            },
            {
                "start_time": 74.3522727,
                "end_time": 74.4977273,
                "pitch": 76,
                "velocity": 32,
                "duration": 0.1454545,
                "tempo": 120.0
            },
            {
                "start_time": 74.4977273,
                "end_time": 74.6477273,
                "pitch": 69,
                "velocity": 32,
                "duration": 0.15,
                "tempo": 120.0
            },
            {
                "start_time": 74.7,
                "end_time": 74.85,
                "pitch": 72,
                "velocity": 32,
                "duration": 0.15,
                "tempo": 120.0
            },
            {
                "start_time": 74.8818182,
                "end_time": 75.0318182,
                "pitch": 76,
                "velocity": 32,
                "duration": 0.15,
                "tempo": 120.0
            },
            {
                "start_time": 75.0318182,
                "end_time": 75.1840909,
                "pitch": 74,
                "velocity": 32,
                "duration": 0.1522727,
                "tempo": 120.0
            },
            {
                "start_time": 75.2340909,
                "end_time": 75.3840909,
                "pitch": 77,
                "velocity": 32,
                "duration": 0.15,
                "tempo": 120.0
            },
            {
                "start_time": 75.4159091,
                "end_time": 75.5681818,
                "pitch": 81,
                "velocity": 32,
                "duration": 0.1522727,
                "tempo": 120.0
            },
            {
                "start_time": 75.5681818,
                "end_time": 75.7272727,
                "pitch": 74,
                "velocity": 32,
                "duration": 0.1590909,
                "tempo": 120.0
            },
            {
                "start_time": 75.7795455,
                "end_time": 75.9386364,
                "pitch": 77,
                "velocity": 32,
                "duration": 0.1590909,
                "tempo": 120.0
            },
            {
                "start_time": 75.975,
                "end_time": 76.1295455,
                "pitch": 81,
                "velocity": 32,
                "duration": 0.1545455,
                "tempo": 120.0
            },
            {
                "start_time": 76.1295455,
                "end_time": 76.275,
                "pitch": 74,
                "velocity": 32,
                "duration": 0.1454545,
                "tempo": 120.0
            },
            {
                "start_time": 76.3227273,
                "end_time": 76.4681818,
                "pitch": 77,
                "velocity": 32,
                "duration": 0.1454545,
                "tempo": 120.0
            },
            {
                "start_time": 76.5,
                "end_time": 76.6454545,
                "pitch": 81,
                "velocity": 32,
                "duration": 0.1454545,
                "tempo": 120.0
            },
            {
                "start_time": 76.6454545,
                "end_time": 76.8045455,
                "pitch": 69,
                "velocity": 32,
                "duration": 0.1590909,
                "tempo": 120.0
            },
            {
                "start_time": 76.8590909,
                "end_time": 76.95,
                "pitch": 72,
                "velocity": 32,
                "duration": 0.0909091,
                "tempo": 120.0
            }
        ]
    }
}