{
    "mood": "sad",
    "instruments": {
        "Lead 2 (sawtooth)": [
            {
                "start_time": 0.0,
                "end_time": 0.0340909,
                "pitch": 75,
                "velocity": 80,
                "duration": 0.0340909,
                "tempo": 120.0
            },
            {
                "start_time": 0.05,
                "end_time": 0.1340909,
                "pitch": 78,
                "velocity": 80,
                "duration": 0.0840909,
                "tempo": 120.0
            },
            {
                "start_time": 0.15,
                "end_time": 0.2340909,
                "pitch": 75,
                "velocity": 80,
                "duration": 0.0840909,
                "tempo": 120.0
            },
            {
                "start_time": 0.25,
                "end_time": 0.3340909,
                "pitch": 79,
                "velocity": 80,
                "duration": 0.0840909,
                "tempo": 120.0
            },
            {
                "start_time": 0.35,
                "end_time": 0.4340909,
                "pitch": 75,
                "velocity": 80,
                "duration": 0.0840909,
                "tempo": 120.0
            },
            {
                "start_time": 0.45,
                "end_time": 0.5340909,
                "pitch": 78,
                "velocity": 80,
                "duration": 0.0840909,
                "tempo": 120.0
            },
            {
                "start_time": 0.55,
                "end_time": 0.6340909,
                "pitch": 83,
                "velocity": 80,
                "duration": 0.0840909,
                "tempo": 120.0
            },
            {
                "start_time": 0.65,
                "end_time": 0.7340909,
                "pitch": 82,
                "velocity": 80,
                "duration": 0.0840909,
                "tempo": 120.0
            },
            {
                "start_time": 0.75,
                "end_time": 0.8340909,
                "pitch": 75,
                "velocity": 80,
                "duration": 0.0840909,
                "tempo": 120.0
            },
            {
                "start_time": 0.85,
                "end_time": 0.9340909,
                "pitch": 78,
                "velocity": 80,
                "duration": 0.0840909,
                "tempo": 120.0
            },
            {
                "start_time": 0.95,
                "end_time": 1.0340909,
                "pitch": 75,
                "velocity": 80,
                "duration": 0.0840909,
                "tempo": 120.0
            },
            {
                "start_time": 1.05,
                "end_time": 1.1340909,
                "pitch": 79,
                "velocity": 80,
                "duration": 0.0840909,
                "tempo": 120.0
            },
            {
                "start_time": 1.15,
                "end_time": 1.2340909,
                "pitch": 75,
                "velocity": 80,
                "duration": 0.0840909,
                "tempo": 120.0
            },
            {
                "start_time": 1.2522727,
                "end_time": 1.3386364,
                "pitch": 78,
                "velocity": 80,
                "duration": 0.0863636,
                "tempo": 120.0
            },
            {
                "start_time": 1.3545455,
                "end_time": 1.4409091,
                "pitch": 83,
                "velocity": 80,
                "duration": 0.0863636,
                "tempo": 120.0
            },
            {
                "start_time": 1.4568182,
                "end_time": 1.5431818,
                "pitch": 82,
                "velocity": 80,
                "duration": 0.0863636,
                "tempo": 120.0
            },
            {
                "start_time": 1.5613636,
                "end_time": 1.6431818,
                "pitch": 75,
                "velocity": 80,
                "duration": 0.0818182,
                "tempo": 120.0
            },
            {
                "start_time": 1.6590909,
                "end_time": 1.7409091,
                "pitch": 78,
                "velocity": 80,
                "duration": 0.0818182,
                "tempo": 120.0
            },
            {
                "start_time": 1.7568182,
                "end_time": 1.8386364,
                "pitch": 75,
                "velocity": 80,
                "duration": 0.0818182,
                "tempo": 120.0
            },
            {
                "start_time": 1.8545455,
                "end_time": 1.9363636,
                "pitch": 79,
                "velocity": 80,
                "duration": 0.0818182,
                "tempo": 120.0
            },
            {
                "start_time": 1.9522727,
                "end_time": 2.0386364,
                "pitch": 75,
                "velocity": 80,
                "duration": 0.0863636,
                "tempo": 120.0
            },
            {
                "start_time": 2.0545455,
                "end_time": 2.1409091,
                "pitch": 78,
                "velocity": 80,
                "duration": 0.0863636,
                "tempo": 120.0
            },
            {
                "start_time": 2.1568182,
                "end_time": 2.2431818,
                "pitch": 83,
                "velocity": 80,
                "duration": 0.0863636,
                "tempo": 120.0
            },
            {
                "start_time": 2.2613636,
                "end_time": 2.3454545,
                "pitch": 82,
                "velocity": 80,
                "duration": 0.0840909,
                "tempo": 120.0
            },
            {
                "start_time": 2.3636364,
                "end_time": 2.4477273,
                "pitch": 75,
                "velocity": 80,
                "duration": 0.0840909,
                "tempo": 120.0
            },
            {
                "start_time": 2.4636364,
                "end_time": 2.5477273,
                "pitch": 78,
                "velocity": 80,
                "duration": 0.0840909,
                "tempo": 120.0
            },
            {
                "start_time": 2.5659091,
                "end_time": 2.6477273,
                "pitch": 75,
                "velocity": 80,
                "duration": 0.0818182,
                "tempo": 120.0
            },
            {
                "start_time": 2.6659091,
                "end_time": 2.75,
                "pitch": 79,
                "velocity": 80,
                "duration": 0.0840909,
                "tempo": 120.0
            },
            {
                "start_time": 2.7659091,
                "end_time": 2.85,
                "pitch": 75,
                "velocity": 80,
                "duration": 0.0840909,
                "tempo": 120.0
            },
            {
                "start_time": 2.8659091,
                "end_time": 2.95,
                "pitch": 78,
                "velocity": 80,
                "duration": 0.0840909,
                "tempo": 120.0
            },
            {
                "start_time": 2.9659091,
                "end_time": 3.05,
                "pitch": 83,
                "velocity": 80,
                "duration": 0.0840909,
                "tempo": 120.0
            },
            {
                "start_time": 3.0659091,
                "end_time": 3.15,
                "pitch": 82,
                "velocity": 80,
                "duration": 0.0840909,
                "tempo": 120.0
            },
            {
                "start_time": 3.1659091,
                "end_time": 3.2477273,
                "pitch": 75,
                "velocity": 80,
                "duration": 0.0818182,
                "tempo": 120.0
            },
            {
                "start_time": 3.2636364,
                "end_time": 3.3454545,
                "pitch": 78,
                "velocity": 80,
                "duration": 0.0818182,
                "tempo": 120.0
            },
            {
                "start_time": 3.3636364,
                "end_time": 3.4431818,
                "pitch": 75,
                "velocity": 80,
                "duration": 0.0795455,
                "tempo": 120.0
            },
            {
                "start_time": 3.4613636,
                "end_time": 3.5431818,
                "pitch": 79,
                "velocity": 80,
                "duration": 0.0818182,
                "tempo": 120.0
            },
            {
                "start_time": 3.5590909,
                "end_time": 3.6431818,
                "pitch": 75,
                "velocity": 80,
                "duration": 0.0840909,
                "tempo": 120.0
            },
            {
                "start_time": 3.6613636,
                "end_time": 3.7454545,
                "pitch": 78,
                "velocity": 80,
                "duration": 0.0840909,
                "tempo": 120.0
            },
            {
                "start_time": 3.7636364,
                "end_time": 3.8477273,
                "pitch": 83,
                "velocity": 80,
                "duration": 0.0840909,
                "tempo": 120.0
            },
            {
                "start_time": 3.8659091,
                "end_time": 3.9522727,
                "pitch": 82,
                "velocity": 80,
                "duration": 0.0863636,
                "tempo": 120.0
            },
            {
                "start_time": 3.9681818,
                "end_time": 4.05,
                "pitch": 75,
                "velocity": 80,
                "duration": 0.0818182,
                "tempo": 120.0
            },
            {
                "start_time": 4.0681818,
                "end_time": 4.15,
                "pitch": 78,
                "velocity": 80,
                "duration": 0.0818182,
                "tempo": 120.0
            },
            {
                "start_time": 4.1659091,
                "end_time": 4.2477273,
                "pitch": 75,
                "velocity": 80,
                "duration": 0.0818182,
                "tempo": 120.0
            },
            {
                "start_time": 4.2636364,
                "end_time": 4.3454545,
                "pitch": 79,
                "velocity": 80,
                "duration": 0.0818182,
                "tempo": 120.0
            },
            {
                "start_time": 4.3613636,
                "end_time": 4.4454545,
                "pitch": 75,
                "velocity": 80,
                "duration": 0.0840909,
                "tempo": 120.0
            },
            {
                "start_time": 4.4636364,
                "end_time": 4.5477273,
                "pitch": 78,
                "velocity": 80,
                "duration": 0.0840909,
                "tempo": 120.0
            },
            {
                "start_time": 4.5659091,
                "end_time": 4.6522727,
                "pitch": 83,
                "velocity": 80,
                "duration": 0.0863636,
                "tempo": 120.0
            },
            {
                "start_time": 4.6681818,
                "end_time": 4.7545455,
                "pitch": 82,
                "velocity": 80,
                "duration": 0.0863636,
                "tempo": 120.0
            },
            {
                "start_time": 4.7704545,
                "end_time": 4.8545455,
                "pitch": 75,
                "velocity": 80,
                "duration": 0.0840909,
                "tempo": 120.0
            },
            {
                "start_time": 4.8704545,
                "end_time": 4.9522727,
                "pitch": 78,
                "velocity": 80,
                "duration": 0.0818182,
                "tempo": 120.0
            },
            {
                "start_time": 4.9681818,
                "end_time": 5.05,
                "pitch": 75,
                "velocity": 80,
                "duration": 0.0818182,
                "tempo": 120.0
            },
            {
                "start_time": 5.0659091,
                "end_time": 5.1477273,
                "pitch": 79,
                "velocity": 80,
                "duration": 0.0818182,
                "tempo": 120.0
            },
            {
                "start_time": 5.1636364,
                "end_time": 5.2477273,
                "pitch": 75,
                "velocity": 80,
                "duration": 0.0840909,
                "tempo": 120.0
            },
            {
                "start_time": 5.2659091,
                "end_time": 5.3522727,
                "pitch": 78,
                "velocity": 80,
                "duration": 0.0863636,
                "tempo": 120.0
            },
            {
                "start_time": 5.3681818,
                "end_time": 5.4545455,
                "pitch": 83,
                "velocity": 80,
                "duration": 0.0863636,
                "tempo": 120.0
            },
            {
                "start_time": 5.4704545,
                "end_time": 5.5568182,
                "pitch": 82,
                "velocity": 80,
                "duration": 0.0863636,
                "tempo": 120.0
            },
            {
                "start_time": 5.575,
                "end_time": 5.6590909,
                "pitch": 75,
                "velocity": 80,
                "duration": 0.0840909,
                "tempo": 120.0
            },
            {
                "start_time": 5.675,
                "end_time": 5.7590909,
                "pitch": 78,
                "velocity": 80,
                "duration": 0.0840909,
                "tempo": 120.0
            },
            {
                "start_time": 5.775,
                "end_time": 5.8590909,
                "pitch": 75,
                "velocity": 80,
                "duration": 0.0840909,
                "tempo": 120.0
            },
            {
                "start_time": 5.8772727,
                "end_time": 5.9613636,
                "pitch": 79,
                "velocity": 80,
                "duration": 0.0840909,
                "tempo": 120.0
            },
            {
                "start_time": 5.9772727,
                "end_time": 6.0613636,
                "pitch": 75,
                "velocity": 80,
                "duration": 0.0840909,
                "tempo": 120.0
            },
            {
                "start_time": 6.0772727,
                "end_time": 6.1613636,
                "pitch": 78,
                "velocity": 80,
                "duration": 0.0840909,
                "tempo": 120.0
            },
            {
                "start_time": 6.1772727,
                "end_time": 6.2613636,
                "pitch": 83,
                "velocity": 80,
                "duration": 0.0840909,
                "tempo": 120.0
            },
            {
                "start_time": 6.2772727,
                "end_time": 6.3613636,
                "pitch": 82,
                "velocity": 80,
                "duration": 0.0840909,
                "tempo": 120.0
            },
            {
                "start_time": 6.3772727,
                "end_time": 6.4068182,
                "pitch": 73,
                "velocity": 80,
                "duration": 0.0295455,
                "tempo": 120.0
            },
            {
                "start_time": 6.4068182,
                "end_time": 7.5886364,
                "pitch": 73,
                "velocity": 80,
                "duration": 1.1818182,
                "tempo": 120.0
            },
            {
                "start_time": 7.6045455,
                "end_time": 7.8931818,
                "pitch": 80,
                "velocity": 80,
                "duration": 0.2886364,
                "tempo": 120.0
            },
            {
                "start_time": 7.9090909,
                "end_time": 9.0,
                "pitch": 79,
                "velocity": 80,
                "duration": 1.0909091,
                "tempo": 120.0
            },
            {
                "start_time": 9.0159091,
                "end_time": 9.1954545,
                "pitch": 80,
                "velocity": 80,
                "duration": 0.1795455,
                "tempo": 120.0
            },
            {
                "start_time": 9.2113636,
                "end_time": 9.3977273,
                "pitch": 79,
                "velocity": 80,
                "duration": 0.1863636,
                "tempo": 120.0
            },
            {
                "start_time": 9.4159091,
                "end_time": 9.6045455,
                "pitch": 78,
                "velocity": 80,
                "duration": 0.1886364,
                "tempo": 120.0
            },
            {
                "start_time": 9.6204545,
                "end_time": 10.8022727,
                "pitch": 76,
                "velocity": 80,
                "duration": 1.1818182,
                "tempo": 120.0
            },
            {
                "start_time": 10.8181818,
                "end_time": 11.1068182,
                "pitch": 71,
                "velocity": 80,
                "duration": 0.2886364,
                "tempo": 120.0
            },
            {
                "start_time": 11.1227273,
                "end_time": 12.8068182,
                "pitch": 73,
                "velocity": 80,
                "duration": 1.6840909,
                "tempo": 120.0
            },
            {
                "start_time": 12.825,
                "end_time": 14.0159091,
                "pitch": 75,
                "velocity": 80,
                "duration": 1.1909091,
                "tempo": 120.0
            },
            {
                "start_time": 14.0318182,
                "end_time": 14.3204545,
                "pitch": 82,
                "velocity": 80,
                "duration": 0.2886364,
                "tempo": 120.0
            },
            {
                "start_time": 14.3363636,
                "end_time": 15.425,
                "pitch": 80,
                "velocity": 80,
                "duration": 1.0886364,
                "tempo": 120.0
            },
            {
                "start_time": 15.4409091,
                "end_time": 15.6204545,
                "pitch": 79,
                "velocity": 80,
                "duration": 0.1795455,
                "tempo": 120.0
            },
            {
                "start_time": 15.6363636,
                "end_time": 15.8227273,
                "pitch": 80,
                "velocity": 80,
                "duration": 0.1863636,
                "tempo": 120.0
            },
            {
                "start_time": 15.8409091,
                "end_time": 17.225,
                "pitch": 78,
                "velocity": 80,
                "duration": 1.3840909,
                "tempo": 120.0
            },
            {
                "start_time": 17.2431818,
                "end_time": 17.4295455,
                "pitch": 78,
                "velocity": 80,
                "duration": 0.1863636,
                "tempo": 120.0
            },
            {
                "start_time": 17.4454545,
                "end_time": 19.2295455,
                "pitch": 75,
                "velocity": 80,
                "duration": 1.7840909,
                "tempo": 120.0
            },
            {
                "start_time": 19.2477273,
                "end_time": 19.2636364,
                "pitch": 73,
                "velocity": 80,
                "duration": 0.0159091,
                "tempo": 120.0
            },
            {
                "start_time": 19.2795455,
                "end_time": 20.4431818,
                "pitch": 71,
                "velocity": 80,
                "duration": 1.1636364,
                "tempo": 120.0
            },
            {
                "start_time": 20.4613636,
                "end_time": 20.7431818,
                "pitch": 80,
                "velocity": 80,
                "duration": 0.2818182,
                "tempo": 120.0
            },
            {
                "start_time": 20.7613636,
                "end_time": 21.8431818,
                "pitch": 79,
                "velocity": 80,
                "duration": 1.0818182,
                "tempo": 120.0
            },
            {
                "start_time": 21.8613636,
                "end_time": 22.0409091,
                "pitch": 80,
                "velocity": 80,
                "duration": 0.1795455,
                "tempo": 120.0
            },
            {
                "start_time": 22.0568182,
                "end_time": 22.2431818,
                "pitch": 79,
                "velocity": 80,
                "duration": 0.1863636,
                "tempo": 120.0
            },
            {
                "start_time": 22.2590909,
                "end_time": 22.4477273,
                "pitch": 78,
                "velocity": 80,
                "duration": 0.1886364,
                "tempo": 120.0
            },
            {
                "start_time": 22.4659091,
                "end_time": 23.6454545,
                "pitch": 76,
                "velocity": 80,
                "duration": 1.1795455,
                "tempo": 120.0
            },
            {
                "start_time": 23.6613636,
                "end_time": 23.95,
                "pitch": 71,
                "velocity": 80,
                "duration": 0.2886364,
                "tempo": 120.0
            },
            {
                "start_time": 23.9681818,
                "end_time": 25.6409091,
                "pitch": 73,
                "velocity": 80,
                "duration": 1.6727273,
                "tempo": 120.0
            },
            {
                "start_time": 25.6568182,
                "end_time": 25.7409091,
                "pitch": 73,
                "velocity": 80,
                "duration": 0.0840909,
                "tempo": 120.0
            },
            {
                "start_time": 25.7590909,
                "end_time": 25.8431818,
                "pitch": 72,
                "velocity": 80,
                "duration": 0.0840909,
                "tempo": 120.0
            },
            {
                "start_time": 25.8613636,
                "end_time": 25.9454545,
                "pitch": 68,
                "velocity": 80,
                "duration": 0.0840909,
                "tempo": 120.0
            },
            {
                "start_time": 25.9636364,
                "end_time": 26.05,
                "pitch": 73,
                "velocity": 80,
                "duration": 0.0863636,
                "tempo": 120.0
            },
            {
                "start_time": 26.0659091,
                "end_time": 26.1522727,
                "pitch": 72,
                "velocity": 80,
                "duration": 0.0863636,
                "tempo": 120.0
            },
            {
                "start_time": 26.1681818,
                "end_time": 26.2545455,
                "pitch": 68,
                "velocity": 80,
                "duration": 0.0863636,
                "tempo": 120.0
            },
            {
                "start_time": 26.2727273,
                "end_time": 26.4590909,
                "pitch": 75,
                "velocity": 80,
                "duration": 0.1863636,
                "tempo": 120.0
            },
            {
                "start_time": 26.4772727,
                "end_time": 26.5590909,
                "pitch": 73,
                "velocity": 80,
                "duration": 0.0818182,
                "tempo": 120.0
            },
            {
                "start_time": 26.575,
                "end_time": 26.6545455,
                "pitch": 73,
                "velocity": 80,
                "duration": 0.0795455,
                "tempo": 120.0
            },
            {
                "start_time": 27.2795455,
                "end_time": 27.3659091,
                "pitch": 85,
                "velocity": 80,
                "duration": 0.0863636,
                "tempo": 120.0
            },
            {
                "start_time": 27.3818182,
                "end_time": 27.4659091,
                "pitch": 84,
                "velocity": 80,
                "duration": 0.0840909,
                "tempo": 120.0
            },
            {
                "start_time": 27.4818182,
                "end_time": 27.5659091,
                "pitch": 82,
                "velocity": 80,
                "duration": 0.0840909,
                "tempo": 120.0
            },
            {
                "start_time": 27.5818182,
                "end_time": 27.6659091,
                "pitch": 85,
                "velocity": 80,
                "duration": 0.0840909,
                "tempo": 120.0
            },
            {
                "start_time": 27.6818182,
                "end_time": 27.7659091,
                "pitch": 84,
                "velocity": 80,
                "duration": 0.0840909,
                "tempo": 120.0
            },
            {
                "start_time": 27.7818182,
                "end_time": 27.8659091,
                "pitch": 82,
                "velocity": 80,
                "duration": 0.0840909,
                "tempo": 120.0
            },
            {
                "start_time": 27.8840909,
                "end_time": 28.0681818,
                "pitch": 87,
                "velocity": 80,
                "duration": 0.1840909,
                "tempo": 120.0
            },
            {
                "start_time": 28.0840909,
                "end_time": 28.1681818,
                "pitch": 85,
                "velocity": 80,
                "duration": 0.0840909,
                "tempo": 120.0
            },
            {
                "start_time": 28.1840909,
                "end_time": 28.2681818,
                "pitch": 84,
                "velocity": 80,
                "duration": 0.0840909,
                "tempo": 120.0
            },
            {
                "start_time": 28.2840909,
                "end_time": 28.3681818,
                "pitch": 82,
                "velocity": 80,
                "duration": 0.0840909,
                "tempo": 120.0
            },
            {
                "start_time": 28.3840909,
                "end_time": 28.4681818,
                "pitch": 85,
                "velocity": 80,
                "duration": 0.0840909,
                "tempo": 120.0
            },
            {
                "start_time": 28.4840909,
                "end_time": 28.5681818,
                "pitch": 84,
                "velocity": 80,
                "duration": 0.0840909,
                "tempo": 120.0
            },
            {
                "start_time": 28.5840909,
                "end_time": 28.6681818,
                "pitch": 82,
                "velocity": 80,
                "duration": 0.0840909,
                "tempo": 120.0
            },
            {
                "start_time": 28.6840909,
                "end_time": 28.8681818,
                "pitch": 87,
                "velocity": 80,
                "duration": 0.1840909,
                "tempo": 120.0
            },
            {
                "start_time": 28.8840909,
                "end_time": 28.9681818,
                "pitch": 85,
                "velocity": 80,
                "duration": 0.0840909,
                "tempo": 120.0
            },
            {
                "start_time": 28.9840909,
                "end_time": 29.0681818,
                "pitch": 84,
                "velocity": 80,
                "duration": 0.0840909,
                "tempo": 120.0
            },
            {
                "start_time": 29.0863636,
                "end_time": 29.1704545,
                "pitch": 82,
                "velocity": 80,
                "duration": 0.0840909,
                "tempo": 120.0
            },
            {
                "start_time": 29.1863636,
                "end_time": 29.2704545,
                "pitch": 85,
                "velocity": 80,
                "duration": 0.0840909,
                "tempo": 120.0
            },
            {
                "start_time": 29.2863636,
                "end_time": 29.3704545,
                "pitch": 84,
                "velocity": 80,
                "duration": 0.0840909,
                "tempo": 120.0
            },
            {
                "start_time": 29.3863636,
                "end_time": 29.4704545,
                "pitch": 82,
                "velocity": 80,
                "duration": 0.0840909,
                "tempo": 120.0
            },
            {
                "start_time": 29.4863636,
                "end_time": 30.4727273,
                "pitch": 87,
                "velocity": 80,
                "duration": 0.9863636,
                "tempo": 120.0
            },
            {
                "start_time": 30.4909091,
                "end_time": 30.5727273,
                "pitch": 90,
                "velocity": 80,
                "duration": 0.0818182,
                "tempo": 120.0
            },
            {
                "start_time": 30.5886364,
                "end_time": 30.6704545,
                "pitch": 89,
                "velocity": 80,
                "duration": 0.0818182,
                "tempo": 120.0
            },
            {
                "start_time": 30.6863636,
                "end_time": 30.7681818,
                "pitch": 87,
                "velocity": 80,
                "duration": 0.0818182,
                "tempo": 120.0
            },
            {
                "start_time": 30.7840909,
                "end_time": 30.8659091,
                "pitch": 90,
                "velocity": 80,
                "duration": 0.0818182,
                "tempo": 120.0
            },
            {
                "start_time": 30.8840909,
                "end_time": 30.9659091,
                "pitch": 89,
                "velocity": 80,
                "duration": 0.0818182,
                "tempo": 120.0
            },
            {
                "start_time": 30.9840909,
                "end_time": 31.0681818,
                "pitch": 87,
                "velocity": 80,
                "duration": 0.0840909,
                "tempo": 120.0
            },
            {
                "start_time": 31.0863636,
                "end_time": 31.275,
                "pitch": 92,
                "velocity": 80,
                "duration": 0.1886364,
                "tempo": 120.0
            },
            {
                "start_time": 31.2909091,
                "end_time": 31.3772727,
                "pitch": 90,
                "velocity": 80,
                "duration": 0.0863636,
                "tempo": 120.0
            },
            {
                "start_time": 31.3931818,
                "end_time": 31.4772727,
                "pitch": 89,
                "velocity": 80,
                "duration": 0.0840909,
                "tempo": 120.0
            },
            {
                "start_time": 31.4931818,
                "end_time": 31.5772727,
                "pitch": 87,
                "velocity": 80,
                "duration": 0.0840909,
                "tempo": 120.0
            },
            {
                "start_time": 31.5931818,
                "end_time": 31.6772727,
                "pitch": 90,
                "velocity": 80,
                "duration": 0.0840909,
                "tempo": 120.0
            },
            {
                "start_time": 31.6931818,
                "end_time": 31.7772727,
                "pitch": 89,
                "velocity": 80,
                "duration": 0.0840909,
                "tempo": 120.0
            },
            {
                "start_time": 31.7931818,
                "end_time": 31.8772727,
                "pitch": 87,
                "velocity": 80,
                "duration": 0.0840909,
                "tempo": 120.0
            },
            {
                "start_time": 31.8931818,
                "end_time": 32.0795455,
                "pitch": 85,
                "velocity": 80,
                "duration": 0.1863636,
                "tempo": 120.0
            },
            {
                "start_time": 32.0954545,
                "end_time": 32.1772727,
                "pitch": 90,
                "velocity": 80,
                "duration": 0.0818182,
                "tempo": 120.0
            },
            {
                "start_time": 32.1954545,
                "end_time": 32.275,
                "pitch": 89,
                "velocity": 80,
                "duration": 0.0795455,
                "tempo": 120.0
            },
            {
                "start_time": 32.2931818,
                "end_time": 32.375,
                "pitch": 87,
                "velocity": 80,
                "duration": 0.0818182,
                "tempo": 120.0
            },
            {
                "start_time": 32.3909091,
                "end_time": 32.4727273,
                "pitch": 90,
                "velocity": 80,
                "duration": 0.0818182,
                "tempo": 120.0
            },
            {
                "start_time": 32.4886364,
                "end_time": 32.5727273,
                "pitch": 89,
                "velocity": 80,
                "duration": 0.0840909,
                "tempo": 120.0
            },
            {
                "start_time": 32.5886364,
                "end_time": 32.675,
                "pitch": 87,
                "velocity": 80,
                "duration": 0.0863636,
                "tempo": 120.0
            },
            {
                "start_time": 32.6909091,
                "end_time": 33.7181818,
                "pitch": 92,
                "velocity": 80,
                "duration": 1.0272727,
                "tempo": 120.0
            },
            {
                "start_time": 33.7340909,
                "end_time": 33.7840909,
                "pitch": 75,
                "velocity": 80,
                "duration": 0.05,
                "tempo": 120.0
            },
            {
                "start_time": 33.8022727,
                "end_time": 33.8840909,
                "pitch": 78,
                "velocity": 80,
                "duration": 0.0818182,
                "tempo": 120.0
            },
            {
                "start_time": 33.9022727,
                "end_time": 33.9840909,
                "pitch": 75,
                "velocity": 80,
                "duration": 0.0818182,
                "tempo": 120.0
            },
            {
                "start_time": 34.0022727,
                "end_time": 34.0840909,
                "pitch": 79,
                "velocity": 80,
                "duration": 0.0818182,
                "tempo": 120.0
            },
            {
                "start_time": 34.1022727,
                "end_time": 34.1840909,
                "pitch": 75,
                "velocity": 80,
                "duration": 0.0818182,
                "tempo": 120.0
            },
            {
                "start_time": 34.2022727,
                "end_time": 34.2840909,
                "pitch": 78,
                "velocity": 80,
                "duration": 0.0818182,
                "tempo": 120.0
            },
            {
                "start_time": 34.3022727,
                "end_time": 34.3840909,
                "pitch": 83,
                "velocity": 80,
                "duration": 0.0818182,
                "tempo": 120.0
            },
            {
                "start_time": 34.4022727,
                "end_time": 34.4840909,
                "pitch": 82,
                "velocity": 80,
                "duration": 0.0818182,
                "tempo": 120.0
            },
            {
                "start_time": 34.5022727,
                "end_time": 34.5840909,
                "pitch": 75,
                "velocity": 80,
                "duration": 0.0818182,
                "tempo": 120.0
            },
            {
                "start_time": 34.6022727,
                "end_time": 34.6840909,
                "pitch": 78,
                "velocity": 80,
                "duration": 0.0818182,
                "tempo": 120.0
            },
            {
                "start_time": 34.7022727,
                "end_time": 34.7840909,
                "pitch": 75,
                "velocity": 80,
                "duration": 0.0818182,
                "tempo": 120.0
            },
            {
                "start_time": 34.8022727,
                "end_time": 34.8840909,
                "pitch": 79,
                "velocity": 80,
                "duration": 0.0818182,
                "tempo": 120.0
            },
            {
                "start_time": 34.9022727,
                "end_time": 34.9795455,
                "pitch": 75,
                "velocity": 80,
                "duration": 0.0772727,
                "tempo": 120.0
            },
            {
                "start_time": 34.9954545,
                "end_time": 35.0727273,
                "pitch": 78,
                "velocity": 80,
                "duration": 0.0772727,
                "tempo": 120.0
            },
            {
                "start_time": 35.0886364,
                "end_time": 35.1659091,
                "pitch": 83,
                "velocity": 80,
                "duration": 0.0772727,
                "tempo": 120.0
            },
            {
                "start_time": 35.1795455,
                "end_time": 35.2568182,
                "pitch": 82,
                "velocity": 80,
                "duration": 0.0772727,
                "tempo": 120.0
            },
            {
                "start_time": 35.2727273,
                "end_time": 35.3545455,
                "pitch": 75,
                "velocity": 80,
                "duration": 0.0818182,
                "tempo": 120.0
            },
            {
                "start_time": 35.3704545,
                "end_time": 35.4522727,
                "pitch": 78,
                "velocity": 80,
                "duration": 0.0818182,
                "tempo": 120.0
            },
            {
                "start_time": 35.4681818,
                "end_time": 35.55,
                "pitch": 75,
                "velocity": 80,
                "duration": 0.0818182,
                "tempo": 120.0
            },
            {
                "start_time": 35.5659091,
                "end_time": 35.6477273,
                "pitch": 79,
                "velocity": 80,
                "duration": 0.0818182,
                "tempo": 120.0
            },
            {
                "start_time": 35.6636364,
                "end_time": 35.75,
                "pitch": 75,
                "velocity": 80,
                "duration": 0.0863636,
                "tempo": 120.0
            },
            {
                "start_time": 35.7659091,
                "end_time": 35.8522727,
                "pitch": 78,
                "velocity": 80,
                "duration": 0.0863636,
                "tempo": 120.0
            },
            {
                "start_time": 35.8681818,
                "end_time": 35.9545455,
                "pitch": 83,
                "velocity": 80,
                "duration": 0.0863636,
                "tempo": 120.0
            },
            {
                "start_time": 35.9727273,
                "end_time": 36.0568182,
                "pitch": 82,
                "velocity": 80,
                "duration": 0.0840909,
                "tempo": 120.0
            },
            {
                "start_time": 36.075,
                "end_time": 36.1568182,
                "pitch": 75,
                "velocity": 80,
                "duration": 0.0818182,
                "tempo": 120.0
            },
            {
                "start_time": 36.1727273,
                "end_time": 36.2545455,
                "pitch": 78,
                "velocity": 80,
                "duration": 0.0818182,
                "tempo": 120.0
            },
            {
                "start_time": 36.2704545,
                "end_time": 36.3522727,
                "pitch": 75,
                "velocity": 80,
                "duration": 0.0818182,
                "tempo": 120.0
            },
            {
                "start_time": 36.3681818,
                "end_time": 36.45,
                "pitch": 79,
                "velocity": 80,
                "duration": 0.0818182,
                "tempo": 120.0
            },
            {
                "start_time": 36.4681818,
                "end_time": 36.5522727,
                "pitch": 75,
                "velocity": 80,
                "duration": 0.0840909,
                "tempo": 120.0
            },
            {
                "start_time": 36.5681818,
                "end_time": 36.6545455,
                "pitch": 78,
                "velocity": 80,
                "duration": 0.0863636,
                "tempo": 120.0
            },
            {
                "start_time": 36.6727273,
                "end_time": 36.7568182,
                "pitch": 83,
                "velocity": 80,
                "duration": 0.0840909,
                "tempo": 120.0
            },
            {
                "start_time": 36.775,
                "end_time": 36.8590909,
                "pitch": 82,
                "velocity": 80,
                "duration": 0.0840909,
                "tempo": 120.0
            },
            {
                "start_time": 36.8772727,
                "end_time": 36.9590909,
                "pitch": 75,
                "velocity": 80,
                "duration": 0.0818182,
                "tempo": 120.0
            },
            {
                "start_time": 36.975,
                "end_time": 37.0568182,
                "pitch": 78,
                "velocity": 80,
                "duration": 0.0818182,
                "tempo": 120.0
            },
            {
                "start_time": 37.0727273,
                "end_time": 37.1545455,
                "pitch": 75,
                "velocity": 80,
                "duration": 0.0818182,
                "tempo": 120.0
            },
            {
                "start_time": 37.1727273,
                "end_time": 37.2545455,
                "pitch": 79,
                "velocity": 80,
                "duration": 0.0818182,
                "tempo": 120.0
            },
            {
                "start_time": 37.2704545,
                "end_time": 37.3545455,
                "pitch": 75,
                "velocity": 80,
                "duration": 0.0840909,
                "tempo": 120.0
            },
            {
                "start_time": 37.3727273,
                "end_time": 37.4568182,
                "pitch": 78,
                "velocity": 80,
                "duration": 0.0840909,
                "tempo": 120.0
            },
            {
                "start_time": 37.475,
                "end_time": 37.5590909,
                "pitch": 83,
                "velocity": 80,
                "duration": 0.0840909,
                "tempo": 120.0
            },
            {
                "start_time": 37.5772727,
                "end_time": 37.6636364,
                "pitch": 82,
                "velocity": 80,
                "duration": 0.0863636,
                "tempo": 120.0
            },
            {
                "start_time": 37.6795455,
                "end_time": 37.7636364,
                "pitch": 75,
                "velocity": 80,
                "duration": 0.0840909,
                "tempo": 120.0
            },
            {
                "start_time": 37.7795455,
                "end_time": 37.8636364,
                "pitch": 78,
                "velocity": 80,
                "duration": 0.0840909,
                "tempo": 120.0
            },
            {
                "start_time": 37.8795455,
                "end_time": 37.9636364,
                "pitch": 75,
                "velocity": 80,
                "duration": 0.0840909,
                "tempo": 120.0
            },
            {
                "start_time": 37.9795455,
                "end_time": 38.0636364,
                "pitch": 79,
                "velocity": 80,
                "duration": 0.0840909,
                "tempo": 120.0
            },
            {
                "start_time": 38.0795455,
                "end_time": 38.1636364,
                "pitch": 75,
                "velocity": 80,
                "duration": 0.0840909,
                "tempo": 120.0
            },
            {
                "start_time": 38.1795455,
                "end_time": 38.2636364,
                "pitch": 78,
                "velocity": 80,
                "duration": 0.0840909,
                "tempo": 120.0
            },
            {
                "start_time": 38.2795455,
                "end_time": 38.3636364,
                "pitch": 83,
                "velocity": 80,
                "duration": 0.0840909,
                "tempo": 120.0
            },
            {
                "start_time": 38.3795455,
                "end_time": 38.4636364,
                "pitch": 82,
                "velocity": 80,
                "duration": 0.0840909,
                "tempo": 120.0
            },
            {
                "start_time": 38.4795455,
                "end_time": 38.5613636,
                "pitch": 75,
                "velocity": 80,
                "duration": 0.0818182,
                "tempo": 120.0
            },
            {
                "start_time": 38.5795455,
                "end_time": 38.6613636,
                "pitch": 78,
                "velocity": 80,
                "duration": 0.0818182,
                "tempo": 120.0
            },
            {
                "start_time": 38.6772727,
                "end_time": 38.7590909,
                "pitch": 75,
                "velocity": 80,
                "duration": 0.0818182,
                "tempo": 120.0
            },
            {
                "start_time": 38.775,
                "end_time": 38.8568182,
                "pitch": 79,
                "velocity": 80,
                "duration": 0.0818182,
                "tempo": 120.0
            },
            {
                "start_time": 38.8727273,
                "end_time": 38.9568182,
                "pitch": 75,
                "velocity": 80,
                "duration": 0.0840909,
                "tempo": 120.0
            },
            {
                "start_time": 38.975,
                "end_time": 39.0613636,
                "pitch": 78,
                "velocity": 80,
                "duration": 0.0863636,
                "tempo": 120.0
            },
            {
                "start_time": 39.0772727,
                "end_time": 39.1636364,
                "pitch": 83,
                "velocity": 80,
                "duration": 0.0863636,
                "tempo": 120.0
            },
            {
                "start_time": 39.1795455,
                "end_time": 39.2659091,
                "pitch": 82,
                "velocity": 80,
                "duration": 0.0863636,
                "tempo": 120.0
            },
            {
                "start_time": 39.2818182,
                "end_time": 39.3659091,
                "pitch": 75,
                "velocity": 80,
                "duration": 0.0840909,
                "tempo": 120.0
            },
            {
                "start_time": 39.3840909,
                "end_time": 39.4659091,
                "pitch": 78,
                "velocity": 80,
                "duration": 0.0818182,
                "tempo": 120.0
            },
            {
                "start_time": 39.4840909,
                "end_time": 39.5659091,
                "pitch": 75,
                "velocity": 80,
                "duration": 0.0818182,
                "tempo": 120.0
            },
            {
                "start_time": 39.5840909,
                "end_time": 39.6659091,
                "pitch": 79,
                "velocity": 80,
                "duration": 0.0818182,
                "tempo": 120.0
            },
            {
                "start_time": 39.6840909,
                "end_time": 39.7659091,
                "pitch": 75,
                "velocity": 80,
                "duration": 0.0818182,
                "tempo": 120.0
            },
            {
                "start_time": 39.7840909,
                "end_time": 39.8659091,
                "pitch": 78,
                "velocity": 80,
                "duration": 0.0818182,
                "tempo": 120.0
            },
            {
                "start_time": 39.8840909,
                "end_time": 39.9659091,
                "pitch": 83,
                "velocity": 80,
                "duration": 0.0818182,
                "tempo": 120.0
            },
            {
                "start_time": 39.9840909,
                "end_time": 40.0659091,
                "pitch": 82,
                "velocity": 80,
                "duration": 0.0818182,
                "tempo": 120.0
            },
            {
                "start_time": 40.0840909,
                "end_time": 40.1204545,
                "pitch": 73,
                "velocity": 80,
                "duration": 0.0363636,
                "tempo": 120.0
            }
        ],
        "Acoustic Bass": [
            {
                "start_time": 0.0,
                "end_time": 0.0340909,
                "pitch": 39,
                "velocity": 80,
                "duration": 0.0340909,
                "tempo": 120.0
            },
            {
                "start_time": 0.05,
                "end_time": 0.1340909,
                "pitch": 42,
                "velocity": 80,
                "duration": 0.0840909,
                "tempo": 120.0
            },
            {
                "start_time": 0.15,
                "end_time": 0.2340909,
                "pitch": 39,
                "velocity": 80,
                "duration": 0.0840909,
                "tempo": 120.0
            },
            {
                "start_time": 0.25,
                "end_time": 0.3340909,
                "pitch": 43,
                "velocity": 80,
                "duration": 0.0840909,
                "tempo": 120.0
            },
            {
                "start_time": 0.35,
                "end_time": 0.4340909,
                "pitch": 39,
                "velocity": 80,
                "duration": 0.0840909,
                "tempo": 120.0
            },
            {
                "start_time": 0.45,
                "end_time": 0.5340909,
                "pitch": 42,
                "velocity": 80,
                "duration": 0.0840909,
                "tempo": 120.0
            },
            {
                "start_time": 0.55,
                "end_time": 0.6340909,
                "pitch": 47,
                "velocity": 80,
                "duration": 0.0840909,
                "tempo": 120.0
            },
            {
                "start_time": 0.65,
                "end_time": 0.7340909,
                "pitch": 46,
                "velocity": 80,
                "duration": 0.0840909,
                "tempo": 120.0
            },
            {
                "start_time": 0.75,
                "end_time": 0.8340909,
                "pitch": 39,
                "velocity": 80,
                "duration": 0.0840909,
                "tempo": 120.0
            },
            {
                "start_time": 0.85,
                "end_time": 0.9340909,
                "pitch": 42,
                "velocity": 80,
                "duration": 0.0840909,
                "tempo": 120.0
            },
            {
                "start_time": 0.95,
                "end_time": 1.0340909,
                "pitch": 39,
                "velocity": 80,
                "duration": 0.0840909,
                "tempo": 120.0
            },
            {
                "start_time": 1.05,
                "end_time": 1.1340909,
                "pitch": 43,
                "velocity": 80,
                "duration": 0.0840909,
                "tempo": 120.0
            },
            {
                "start_time": 1.15,
                "end_time": 1.2340909,
                "pitch": 39,
                "velocity": 80,
                "duration": 0.0840909,
                "tempo": 120.0
            },
            {
                "start_time": 1.2522727,
                "end_time": 1.3386364,
                "pitch": 42,
                "velocity": 80,
                "duration": 0.0863636,
                "tempo": 120.0
            },
            {
                "start_time": 1.3545455,
                "end_time": 1.4409091,
                "pitch": 47,
                "velocity": 80,
                "duration": 0.0863636,
                "tempo": 120.0
            },
            {
                "start_time": 1.4568182,
                "end_time": 1.5431818,
                "pitch": 46,
                "velocity": 80,
                "duration": 0.0863636,
                "tempo": 120.0
            },
            {
                "start_time": 1.5613636,
                "end_time": 1.6431818,
                "pitch": 39,
                "velocity": 80,
                "duration": 0.0818182,
                "tempo": 120.0
            },
            {
                "start_time": 1.6590909,
                "end_time": 1.7409091,
                "pitch": 42,
                "velocity": 80,
                "duration": 0.0818182,
                "tempo": 120.0
            },
            {
                "start_time": 1.7568182,
                "end_time": 1.8386364,
                "pitch": 39,
                "velocity": 80,
                "duration": 0.0818182,
                "tempo": 120.0
            },
            {
                "start_time": 1.8545455,
                "end_time": 1.9363636,
                "pitch": 43,
                "velocity": 80,
                "duration": 0.0818182,
                "tempo": 120.0
            },
            {
                "start_time": 1.9522727,
                "end_time": 2.0386364,
                "pitch": 39,
                "velocity": 80,
                "duration": 0.0863636,
                "tempo": 120.0
            },
            {
                "start_time": 2.0545455,
                "end_time": 2.1409091,
                "pitch": 42,
                "velocity": 80,
                "duration": 0.0863636,
                "tempo": 120.0
            },
            {
                "start_time": 2.1568182,
                "end_time": 2.2431818,
                "pitch": 47,
                "velocity": 80,
                "duration": 0.0863636,
                "tempo": 120.0
            },
            {
                "start_time": 2.2613636,
                "end_time": 2.3454545,
                "pitch": 46,
                "velocity": 80,
                "duration": 0.0840909,
                "tempo": 120.0
            },
            {
                "start_time": 2.3636364,
                "end_time": 2.4477273,
                "pitch": 39,
                "velocity": 80,
                "duration": 0.0840909,
                "tempo": 120.0
            },
            {
                "start_time": 2.4636364,
                "end_time": 2.5477273,
                "pitch": 42,
                "velocity": 80,
                "duration": 0.0840909,
                "tempo": 120.0
            },
            {
                "start_time": 2.5659091,
                "end_time": 2.6477273,
                "pitch": 39,
                "velocity": 80,
                "duration": 0.0818182,
                "tempo": 120.0
            },
            {
                "start_time": 2.6659091,
                "end_time": 2.75,
                "pitch": 43,
                "velocity": 80,
                "duration": 0.0840909,
                "tempo": 120.0
            },
            {
                "start_time": 2.7659091,
                "end_time": 2.85,
                "pitch": 39,
                "velocity": 80,
                "duration": 0.0840909,
                "tempo": 120.0
            },
            {
                "start_time": 2.8659091,
                "end_time": 2.95,
                "pitch": 42,
                "velocity": 80,
                "duration": 0.0840909,
                "tempo": 120.0
            },
            {
                "start_time": 2.9659091,
                "end_time": 3.05,
                "pitch": 47,
                "velocity": 80,
                "duration": 0.0840909,
                "tempo": 120.0
            },
            {
                "start_time": 3.0659091,
                "end_time": 3.15,
                "pitch": 46,
                "velocity": 80,
                "duration": 0.0840909,
                "tempo": 120.0
            },
            {
                "start_time": 3.1659091,
                "end_time": 3.2477273,
                "pitch": 39,
                "velocity": 80,
                "duration": 0.0818182,
                "tempo": 120.0
            },
            {
                "start_time": 3.2636364,
                "end_time": 3.3454545,
                "pitch": 42,
                "velocity": 80,
                "duration": 0.0818182,
                "tempo": 120.0
            },
            {
                "start_time": 3.3636364,
                "end_time": 3.4431818,
                "pitch": 39,
                "velocity": 80,
                "duration": 0.0795455,
                "tempo": 120.0
            },
            {
                "start_time": 3.4613636,
                "end_time": 3.5431818,
                "pitch": 43,
                "velocity": 80,
                "duration": 0.0818182,
                "tempo": 120.0
            },
            {
                "start_time": 3.5590909,
                "end_time": 3.6431818,
                "pitch": 39,
                "velocity": 80,
                "duration": 0.0840909,
                "tempo": 120.0
            },
            {
                "start_time": 3.6613636,
                "end_time": 3.7454545,
                "pitch": 42,
                "velocity": 80,
                "duration": 0.0840909,
                "tempo": 120.0
            },
            {
                "start_time": 3.7636364,
                "end_time": 3.8477273,
                "pitch": 47,
                "velocity": 80,
                "duration": 0.0840909,
                "tempo": 120.0
            },
            {
                "start_time": 3.8659091,
                "end_time": 3.9522727,
                "pitch": 46,
                "velocity": 80,
                "duration": 0.0863636,
                "tempo": 120.0
            },
            {
                "start_time": 3.9681818,
                "end_time": 4.05,
                "pitch": 39,
                "velocity": 80,
                "duration": 0.0818182,
                "tempo": 120.0
            },
            {
                "start_time": 4.0681818,
                "end_time": 4.15,
                "pitch": 42,
                "velocity": 80,
                "duration": 0.0818182,
                "tempo": 120.0
            },
            {
                "start_time": 4.1659091,
                "end_time": 4.2477273,
                "pitch": 39,
                "velocity": 80,
                "duration": 0.0818182,
                "tempo": 120.0
            },
            {
                "start_time": 4.2636364,
                "end_time": 4.3454545,
                "pitch": 43,
                "velocity": 80,
                "duration": 0.0818182,
                "tempo": 120.0
            },
            {
                "start_time": 4.3613636,
                "end_time": 4.4454545,
                "pitch": 39,
                "velocity": 80,
                "duration": 0.0840909,
                "tempo": 120.0
            },
            {
                "start_time": 4.4636364,
                "end_time": 4.5477273,
                "pitch": 42,
                "velocity": 80,
                "duration": 0.0840909,
                "tempo": 120.0
            },
            {
                "start_time": 4.5659091,
                "end_time": 4.6522727,
                "pitch": 47,
                "velocity": 80,
                "duration": 0.0863636,
                "tempo": 120.0
            },
            {
                "start_time": 4.6681818,
                "end_time": 4.7545455,
                "pitch": 46,
                "velocity": 80,
                "duration": 0.0863636,
                "tempo": 120.0
            },
            {
                "start_time": 4.7704545,
                "end_time": 4.8545455,
                "pitch": 39,
                "velocity": 80,
                "duration": 0.0840909,
                "tempo": 120.0
            },
            {
                "start_time": 4.8704545,
                "end_time": 4.9522727,
                "pitch": 42,
                "velocity": 80,
                "duration": 0.0818182,
                "tempo": 120.0
            },
            {
                "start_time": 4.9681818,
                "end_time": 5.05,
                "pitch": 39,
                "velocity": 80,
                "duration": 0.0818182,
                "tempo": 120.0
            },
            {
                "start_time": 5.0659091,
                "end_time": 5.1477273,
                "pitch": 43,
                "velocity": 80,
                "duration": 0.0818182,
                "tempo": 120.0
            },
            {
                "start_time": 5.1636364,
                "end_time": 5.2477273,
                "pitch": 39,
                "velocity": 80,
                "duration": 0.0840909,
                "tempo": 120.0
            },
            {
                "start_time": 5.2659091,
                "end_time": 5.3522727,
                "pitch": 42,
                "velocity": 80,
                "duration": 0.0863636,
                "tempo": 120.0
            },
            {
                "start_time": 5.3681818,
                "end_time": 5.3863636,
                "pitch": 47,
                "velocity": 80,
                "duration": 0.0181818,
                "tempo": 120.0
            },
            {
                "start_time": 5.4022727,
                "end_time": 5.4545455,
                "pitch": 46,
                "velocity": 80,
                "duration": 0.0522727,
                "tempo": 120.0
            },
            {
                "start_time": 5.4704545,
                "end_time": 5.5568182,
                "pitch": 46,
                "velocity": 80,
                "duration": 0.0863636,
                "tempo": 120.0
            },
            {
                "start_time": 5.575,
                "end_time": 5.6590909,
                "pitch": 39,
                "velocity": 80,
                "duration": 0.0840909,
                "tempo": 120.0
            },
            {
                "start_time": 5.675,
                "end_time": 5.7590909,
                "pitch": 42,
                "velocity": 80,
                "duration": 0.0840909,
                "tempo": 120.0
            },
            {
                "start_time": 5.775,
                "end_time": 5.8590909,
                "pitch": 39,
                "velocity": 80,
                "duration": 0.0840909,
                "tempo": 120.0
            },
            {
                "start_time": 5.8772727,
                "end_time": 5.9613636,
                "pitch": 43,
                "velocity": 80,
                "duration": 0.0840909,
                "tempo": 120.0
            },
            {
                "start_time": 5.9772727,
                "end_time": 6.0613636,
                "pitch": 39,
                "velocity": 80,
                "duration": 0.0840909,
                "tempo": 120.0
            },
            {
                "start_time": 6.0772727,
                "end_time": 6.1613636,
                "pitch": 42,
                "velocity": 80,
                "duration": 0.0840909,
                "tempo": 120.0
            },
            {
                "start_time": 6.1772727,
                "end_time": 6.2613636,
                "pitch": 47,
                "velocity": 80,
                "duration": 0.0840909,
                "tempo": 120.0
            },
            {
                "start_time": 6.2772727,
                "end_time": 6.3613636,
                "pitch": 46,
                "velocity": 80,
                "duration": 0.0840909,
                "tempo": 120.0
            },
            {
                "start_time": 6.3772727,
                "end_time": 6.4068182,
                "pitch": 37,
                "velocity": 80,
                "duration": 0.0295455,
                "tempo": 120.0
            },
            {
                "start_time": 6.4068182,
                "end_time": 6.5613636,
                "pitch": 37,
                "velocity": 80,
                "duration": 0.1545455,
                "tempo": 120.0
            },
            {
                "start_time": 6.5772727,
                "end_time": 6.6613636,
                "pitch": 37,
                "velocity": 80,
                "duration": 0.0840909,
                "tempo": 120.0
            },
            {
                "start_time": 6.6795455,
                "end_time": 6.7636364,
                "pitch": 37,
                "velocity": 80,
                "duration": 0.0840909,
                "tempo": 120.0
            },
            {
                "start_time": 6.7795455,
                "end_time": 6.8659091,
                "pitch": 49,
                "velocity": 80,
                "duration": 0.0863636,
                "tempo": 120.0
            },
            {
                "start_time": 6.8840909,
                "end_time": 7.0818182,
                "pitch": 37,
                "velocity": 80,
                "duration": 0.1977273,
                "tempo": 120.0
            },
            {
                "start_time": 7.1,
                "end_time": 7.2931818,
                "pitch": 37,
                "velocity": 80,
                "duration": 0.1931818,
                "tempo": 120.0
            },
            {
                "start_time": 7.3090909,
                "end_time": 7.3909091,
                "pitch": 37,
                "velocity": 80,
                "duration": 0.0818182,
                "tempo": 120.0
            },
            {
                "start_time": 7.4068182,
                "end_time": 7.4886364,
                "pitch": 49,
                "velocity": 80,
                "duration": 0.0818182,
                "tempo": 120.0
            },
            {
                "start_time": 7.5068182,
                "end_time": 7.5886364,
                "pitch": 37,
                "velocity": 80,
                "duration": 0.0818182,
                "tempo": 120.0
            },
            {
                "start_time": 7.6045455,
                "end_time": 7.6863636,
                "pitch": 48,
                "velocity": 80,
                "duration": 0.0818182,
                "tempo": 120.0
            },
            {
                "start_time": 7.7045455,
                "end_time": 7.7909091,
                "pitch": 37,
                "velocity": 80,
                "duration": 0.0863636,
                "tempo": 120.0
            },
            {
                "start_time": 7.8068182,
                "end_time": 7.8931818,
                "pitch": 44,
                "velocity": 80,
                "duration": 0.0863636,
                "tempo": 120.0
            },
            {
                "start_time": 7.9090909,
                "end_time": 7.9954545,
                "pitch": 46,
                "velocity": 80,
                "duration": 0.0863636,
                "tempo": 120.0
            },
            {
                "start_time": 8.0113636,
                "end_time": 8.1977273,
                "pitch": 37,
                "velocity": 80,
                "duration": 0.1863636,
                "tempo": 120.0
            },
            {
                "start_time": 8.2159091,
                "end_time": 8.2977273,
                "pitch": 37,
                "velocity": 80,
                "duration": 0.0818182,
                "tempo": 120.0
            },
            {
                "start_time": 8.3159091,
                "end_time": 8.4,
                "pitch": 37,
                "velocity": 80,
                "duration": 0.0840909,
                "tempo": 120.0
            },
            {
                "start_time": 8.4159091,
                "end_time": 8.5,
                "pitch": 49,
                "velocity": 80,
                "duration": 0.0840909,
                "tempo": 120.0
            },
            {
                "start_time": 8.5159091,
                "end_time": 8.7022727,
                "pitch": 37,
                "velocity": 80,
                "duration": 0.1863636,
                "tempo": 120.0
            },
            {
                "start_time": 8.7181818,
                "end_time": 8.9022727,
                "pitch": 37,
                "velocity": 80,
                "duration": 0.1840909,
                "tempo": 120.0
            },
            {
                "start_time": 8.9181818,
                "end_time": 9.0,
                "pitch": 37,
                "velocity": 80,
                "duration": 0.0818182,
                "tempo": 120.0
            },
            {
                "start_time": 9.0159091,
                "end_time": 9.0977273,
                "pitch": 49,
                "velocity": 80,
                "duration": 0.0818182,
                "tempo": 120.0
            },
            {
                "start_time": 9.1136364,
                "end_time": 9.1954545,
                "pitch": 37,
                "velocity": 80,
                "duration": 0.0818182,
                "tempo": 120.0
            },
            {
                "start_time": 9.2113636,
                "end_time": 9.2954545,
                "pitch": 48,
                "velocity": 80,
                "duration": 0.0840909,
                "tempo": 120.0
            },
            {
                "start_time": 9.3113636,
                "end_time": 9.3977273,
                "pitch": 37,
                "velocity": 80,
                "duration": 0.0863636,
                "tempo": 120.0
            },
            {
                "start_time": 9.4159091,
                "end_time": 9.5,
                "pitch": 44,
                "velocity": 80,
                "duration": 0.0840909,
                "tempo": 120.0
            },
            {
                "start_time": 9.5181818,
                "end_time": 9.6045455,
                "pitch": 46,
                "velocity": 80,
                "duration": 0.0863636,
                "tempo": 120.0
            },
            {
                "start_time": 9.6204545,
                "end_time": 9.7977273,
                "pitch": 37,
                "velocity": 80,
                "duration": 0.1772727,
                "tempo": 120.0
            },
            {
                "start_time": 9.8136364,
                "end_time": 9.8931818,
                "pitch": 37,
                "velocity": 80,
                "duration": 0.0795455,
                "tempo": 120.0
            },
            {
                "start_time": 9.9090909,
                "end_time": 9.9886364,
                "pitch": 37,
                "velocity": 80,
                "duration": 0.0795455,
                "tempo": 120.0
            },
            {
                "start_time": 10.0045455,
                "end_time": 10.0886364,
                "pitch": 49,
                "velocity": 80,
                "duration": 0.0840909,
                "tempo": 120.0
            },
            {
                "start_time": 10.1045455,
                "end_time": 10.3,
                "pitch": 37,
                "velocity": 80,
                "duration": 0.1954545,
                "tempo": 120.0
            },
            {
                "start_time": 10.3159091,
                "end_time": 10.5068182,
                "pitch": 37,
                "velocity": 80,
                "duration": 0.1909091,
                "tempo": 120.0
            },
            {
                "start_time": 10.5227273,
                "end_time": 10.6045455,
                "pitch": 37,
                "velocity": 80,
                "duration": 0.0818182,
                "tempo": 120.0
            },
            {
                "start_time": 10.6227273,
                "end_time": 10.7022727,
                "pitch": 49,
                "velocity": 80,
                "duration": 0.0795455,
                "tempo": 120.0
            },
            {
                "start_time": 10.7204545,
                "end_time": 10.8022727,
                "pitch": 37,
                "velocity": 80,
                "duration": 0.0818182,
                "tempo": 120.0
            },
            {
                "start_time": 10.8181818,
                "end_time": 10.9,
                "pitch": 48,
                "velocity": 80,
                "duration": 0.0818182,
                "tempo": 120.0
            },
            {
                "start_time": 10.9181818,
                "end_time": 11.0045455,
                "pitch": 37,
                "velocity": 80,
                "duration": 0.0863636,
                "tempo": 120.0
            },
            {
                "start_time": 11.0204545,
                "end_time": 11.1068182,
                "pitch": 44,
                "velocity": 80,
                "duration": 0.0863636,
                "tempo": 120.0
            },
            {
                "start_time": 11.1227273,
                "end_time": 11.2090909,
                "pitch": 46,
                "velocity": 80,
                "duration": 0.0863636,
                "tempo": 120.0
            },
            {
                "start_time": 11.2272727,
                "end_time": 11.4068182,
                "pitch": 37,
                "velocity": 80,
                "duration": 0.1795455,
                "tempo": 120.0
            },
            {
                "start_time": 11.425,
                "end_time": 11.5068182,
                "pitch": 37,
                "velocity": 80,
                "duration": 0.0818182,
                "tempo": 120.0
            },
            {
                "start_time": 11.5227273,
                "end_time": 11.6045455,
                "pitch": 37,
                "velocity": 80,
                "duration": 0.0818182,
                "tempo": 120.0
            },
            {
                "start_time": 11.6204545,
                "end_time": 11.7045455,
                "pitch": 49,
                "velocity": 80,
                "duration": 0.0840909,
                "tempo": 120.0
            },
            {
                "start_time": 11.7204545,
                "end_time": 11.9090909,
                "pitch": 37,
                "velocity": 80,
                "duration": 0.1886364,
                "tempo": 120.0
            },
            {
                "start_time": 11.9272727,
                "end_time": 12.1136364,
                "pitch": 37,
                "velocity": 80,
                "duration": 0.1863636,
                "tempo": 120.0
            },
            {
                "start_time": 12.1295455,
                "end_time": 12.2113636,
                "pitch": 37,
                "velocity": 80,
                "duration": 0.0818182,
                "tempo": 120.0
            },
            {
                "start_time": 12.2272727,
                "end_time": 12.3090909,
                "pitch": 49,
                "velocity": 80,
                "duration": 0.0818182,
                "tempo": 120.0
            },
            {
                "start_time": 12.325,
                "end_time": 12.4068182,
                "pitch": 37,
                "velocity": 80,
                "duration": 0.0818182,
                "tempo": 120.0
            },
            {
                "start_time": 12.4227273,
                "end_time": 12.5068182,
                "pitch": 48,
                "velocity": 80,
                "duration": 0.0840909,
                "tempo": 120.0
            },
            {
                "start_time": 12.5227273,
                "end_time": 12.6068182,
                "pitch": 37,
                "velocity": 80,
                "duration": 0.0840909,
                "tempo": 120.0
            },
            {
                "start_time": 12.6227273,
                "end_time": 12.7068182,
                "pitch": 44,
                "velocity": 80,
                "duration": 0.0840909,
                "tempo": 120.0
            },
            {
                "start_time": 12.725,
                "end_time": 12.8068182,
                "pitch": 46,
                "velocity": 80,
                "duration": 0.0818182,
                "tempo": 120.0
            },
            {
                "start_time": 12.825,
                "end_time": 13.0045455,
                "pitch": 39,
                "velocity": 80,
                "duration": 0.1795455,
                "tempo": 120.0
            },
            {
                "start_time": 13.0204545,
                "end_time": 13.1022727,
                "pitch": 39,
                "velocity": 80,
                "duration": 0.0818182,
                "tempo": 120.0
            },
            {
                "start_time": 13.1204545,
                "end_time": 13.2022727,
                "pitch": 39,
                "velocity": 80,
                "duration": 0.0818182,
                "tempo": 120.0
            },
            {
                "start_time": 13.2181818,
                "end_time": 13.3022727,
                "pitch": 51,
                "velocity": 80,
                "duration": 0.0840909,
                "tempo": 120.0
            },
            {
                "start_time": 13.3204545,
                "end_time": 13.5136364,
                "pitch": 39,
                "velocity": 80,
                "duration": 0.1931818,
                "tempo": 120.0
            },
            {
                "start_time": 13.5318182,
                "end_time": 13.7204545,
                "pitch": 39,
                "velocity": 80,
                "duration": 0.1886364,
                "tempo": 120.0
            },
            {
                "start_time": 13.7363636,
                "end_time": 13.8181818,
                "pitch": 39,
                "velocity": 80,
                "duration": 0.0818182,
                "tempo": 120.0
            },
            {
                "start_time": 13.8363636,
                "end_time": 13.9181818,
                "pitch": 51,
                "velocity": 80,
                "duration": 0.0818182,
                "tempo": 120.0
            },
            {
                "start_time": 13.9340909,
                "end_time": 14.0159091,
                "pitch": 39,
                "velocity": 80,
                "duration": 0.0818182,
                "tempo": 120.0
            },
            {
                "start_time": 14.0318182,
                "end_time": 14.1159091,
                "pitch": 44,
                "velocity": 80,
                "duration": 0.0840909,
                "tempo": 120.0
            },
            {
                "start_time": 14.1318182,
                "end_time": 14.2181818,
                "pitch": 46,
                "velocity": 80,
                "duration": 0.0863636,
                "tempo": 120.0
            },
            {
                "start_time": 14.2340909,
                "end_time": 14.3204545,
                "pitch": 48,
                "velocity": 80,
                "duration": 0.0863636,
                "tempo": 120.0
            },
            {
                "start_time": 14.3363636,
                "end_time": 14.4227273,
                "pitch": 49,
                "velocity": 80,
                "duration": 0.0863636,
                "tempo": 120.0
            },
            {
                "start_time": 14.4409091,
                "end_time": 14.6227273,
                "pitch": 39,
                "velocity": 80,
                "duration": 0.1818182,
                "tempo": 120.0
            },
            {
                "start_time": 14.6386364,
                "end_time": 14.7204545,
                "pitch": 39,
                "velocity": 80,
                "duration": 0.0818182,
                "tempo": 120.0
            },
            {
                "start_time": 14.7363636,
                "end_time": 14.8181818,
                "pitch": 39,
                "velocity": 80,
                "duration": 0.0818182,
                "tempo": 120.0
            },
            {
                "start_time": 14.8340909,
                "end_time": 14.9181818,
                "pitch": 51,
                "velocity": 80,
                "duration": 0.0840909,
                "tempo": 120.0
            },
            {
                "start_time": 14.9340909,
                "end_time": 15.1227273,
                "pitch": 39,
                "velocity": 80,
                "duration": 0.1886364,
                "tempo": 120.0
            },
            {
                "start_time": 15.1409091,
                "end_time": 15.3272727,
                "pitch": 39,
                "velocity": 80,
                "duration": 0.1863636,
                "tempo": 120.0
            },
            {
                "start_time": 15.3431818,
                "end_time": 15.425,
                "pitch": 39,
                "velocity": 80,
                "duration": 0.0818182,
                "tempo": 120.0
            },
            {
                "start_time": 15.4409091,
                "end_time": 15.5227273,
                "pitch": 51,
                "velocity": 80,
                "duration": 0.0818182,
                "tempo": 120.0
            },
            {
                "start_time": 15.5386364,
                "end_time": 15.6204545,
                "pitch": 39,
                "velocity": 80,
                "duration": 0.0818182,
                "tempo": 120.0
            },
            {
                "start_time": 15.6363636,
                "end_time": 15.7204545,
                "pitch": 44,
                "velocity": 80,
                "duration": 0.0840909,
                "tempo": 120.0
            },
            {
                "start_time": 15.7363636,
                "end_time": 15.8227273,
                "pitch": 46,
                "velocity": 80,
                "duration": 0.0863636,
                "tempo": 120.0
            },
            {
                "start_time": 15.8409091,
                "end_time": 15.925,
                "pitch": 48,
                "velocity": 80,
                "duration": 0.0840909,
                "tempo": 120.0
            },
            {
                "start_time": 15.9431818,
                "end_time": 16.0272727,
                "pitch": 49,
                "velocity": 80,
                "duration": 0.0840909,
                "tempo": 120.0
            },
            {
                "start_time": 16.0454545,
                "end_time": 16.2227273,
                "pitch": 39,
                "velocity": 80,
                "duration": 0.1772727,
                "tempo": 120.0
            },
            {
                "start_time": 16.2386364,
                "end_time": 16.3181818,
                "pitch": 39,
                "velocity": 80,
                "duration": 0.0795455,
                "tempo": 120.0
            },
            {
                "start_time": 16.3340909,
                "end_time": 16.4136364,
                "pitch": 39,
                "velocity": 80,
                "duration": 0.0795455,
                "tempo": 120.0
            },
            {
                "start_time": 16.4295455,
                "end_time": 16.5136364,
                "pitch": 51,
                "velocity": 80,
                "duration": 0.0840909,
                "tempo": 120.0
            },
            {
                "start_time": 16.5295455,
                "end_time": 16.725,
                "pitch": 39,
                "velocity": 80,
                "duration": 0.1954545,
                "tempo": 120.0
            },
            {
                "start_time": 16.7409091,
                "end_time": 16.9318182,
                "pitch": 39,
                "velocity": 80,
                "duration": 0.1909091,
                "tempo": 120.0
            },
            {
                "start_time": 16.9477273,
                "end_time": 17.0295455,
                "pitch": 39,
                "velocity": 80,
                "duration": 0.0818182,
                "tempo": 120.0
            },
            {
                "start_time": 17.0454545,
                "end_time": 17.1272727,
                "pitch": 51,
                "velocity": 80,
                "duration": 0.0818182,
                "tempo": 120.0
            },
            {
                "start_time": 17.1454545,
                "end_time": 17.225,
                "pitch": 39,
                "velocity": 80,
                "duration": 0.0795455,
                "tempo": 120.0
            },
            {
                "start_time": 17.2431818,
                "end_time": 17.325,
                "pitch": 44,
                "velocity": 80,
                "duration": 0.0818182,
                "tempo": 120.0
            },
            {
                "start_time": 17.3431818,
                "end_time": 17.4295455,
                "pitch": 46,
                "velocity": 80,
                "duration": 0.0863636,
                "tempo": 120.0
            },
            {
                "start_time": 17.4454545,
                "end_time": 17.5318182,
                "pitch": 48,
                "velocity": 80,
                "duration": 0.0863636,
                "tempo": 120.0
            },
            {
                "start_time": 17.5477273,
                "end_time": 17.6340909,
                "pitch": 49,
                "velocity": 80,
                "duration": 0.0863636,
                "tempo": 120.0
            },
            {
                "start_time": 17.65,
                "end_time": 17.8272727,
                "pitch": 39,
                "velocity": 80,
                "duration": 0.1772727,
                "tempo": 120.0
            },
            {
                "start_time": 17.8431818,
                "end_time": 17.925,
                "pitch": 39,
                "velocity": 80,
                "duration": 0.0818182,
                "tempo": 120.0
            },
            {
                "start_time": 17.9409091,
                "end_time": 18.0204545,
                "pitch": 39,
                "velocity": 80,
                "duration": 0.0795455,
                "tempo": 120.0
            },
            {
                "start_time": 18.0363636,
                "end_time": 18.1181818,
                "pitch": 51,
                "velocity": 80,
                "duration": 0.0818182,
                "tempo": 120.0
            },
            {
                "start_time": 18.1363636,
                "end_time": 18.3295455,
                "pitch": 39,
                "velocity": 80,
                "duration": 0.1931818,
                "tempo": 120.0
            },
            {
                "start_time": 18.3477273,
                "end_time": 18.5386364,
                "pitch": 39,
                "velocity": 80,
                "duration": 0.1909091,
                "tempo": 120.0
            },
            {
                "start_time": 18.5545455,
                "end_time": 18.6363636,
                "pitch": 39,
                "velocity": 80,
                "duration": 0.0818182,
                "tempo": 120.0
            },
            {
                "start_time": 18.6522727,
                "end_time": 18.7340909,
                "pitch": 51,
                "velocity": 80,
                "duration": 0.0818182,
                "tempo": 120.0
            },
            {
                "start_time": 18.75,
                "end_time": 18.8318182,
                "pitch": 39,
                "velocity": 80,
                "duration": 0.0818182,
                "tempo": 120.0
            },
            {
                "start_time": 18.8477273,
                "end_time": 18.9295455,
                "pitch": 44,
                "velocity": 80,
                "duration": 0.0818182,
                "tempo": 120.0
            },
            {
                "start_time": 18.9477273,
                "end_time": 19.0295455,
                "pitch": 46,
                "velocity": 80,
                "duration": 0.0818182,
                "tempo": 120.0
            },
            {
                "start_time": 19.0477273,
                "end_time": 19.1295455,
                "pitch": 48,
                "velocity": 80,
                "duration": 0.0818182,
                "tempo": 120.0
            },
            {
                "start_time": 19.1477273,
                "end_time": 19.2295455,
                "pitch": 49,
                "velocity": 80,
                "duration": 0.0818182,
                "tempo": 120.0
            },
            {
                "start_time": 19.2477273,
                "end_time": 19.4318182,
                "pitch": 37,
                "velocity": 80,
                "duration": 0.1840909,
                "tempo": 120.0
            },
            {
                "start_time": 19.4477273,
                "end_time": 19.5318182,
                "pitch": 37,
                "velocity": 80,
                "duration": 0.0840909,
                "tempo": 120.0
            },
            {
                "start_time": 19.55,
                "end_time": 19.6318182,
                "pitch": 37,
                "velocity": 80,
                "duration": 0.0818182,
                "tempo": 120.0
            },
            {
                "start_time": 19.65,
                "end_time": 19.7340909,
                "pitch": 49,
                "velocity": 80,
                "duration": 0.0840909,
                "tempo": 120.0
            },
            {
                "start_time": 19.7522727,
                "end_time": 19.9386364,
                "pitch": 37,
                "velocity": 80,
                "duration": 0.1863636,
                "tempo": 120.0
            },
            {
                "start_time": 19.9568182,
                "end_time": 20.1431818,
                "pitch": 37,
                "velocity": 80,
                "duration": 0.1863636,
                "tempo": 120.0
            },
            {
                "start_time": 20.1613636,
                "end_time": 20.2431818,
                "pitch": 37,
                "velocity": 80,
                "duration": 0.0818182,
                "tempo": 120.0
            },
            {
                "start_time": 20.2613636,
                "end_time": 20.3431818,
                "pitch": 49,
                "velocity": 80,
                "duration": 0.0818182,
                "tempo": 120.0
            },
            {
                "start_time": 20.3613636,
                "end_time": 20.4431818,
                "pitch": 37,
                "velocity": 80,
                "duration": 0.0818182,
                "tempo": 120.0
            },
            {
                "start_time": 20.4613636,
                "end_time": 20.5431818,
                "pitch": 48,
                "velocity": 80,
                "duration": 0.0818182,
                "tempo": 120.0
            },
            {
                "start_time": 20.5613636,
                "end_time": 20.6431818,
                "pitch": 37,
                "velocity": 80,
                "duration": 0.0818182,
                "tempo": 120.0
            },
            {
                "start_time": 20.6613636,
                "end_time": 20.7431818,
                "pitch": 44,
                "velocity": 80,
                "duration": 0.0818182,
                "tempo": 120.0
            },
            {
                "start_time": 20.7613636,
                "end_time": 20.8431818,
                "pitch": 46,
                "velocity": 80,
                "duration": 0.0818182,
                "tempo": 120.0
            },
            {
                "start_time": 20.8613636,
                "end_time": 21.0454545,
                "pitch": 37,
                "velocity": 80,
                "duration": 0.1840909,
                "tempo": 120.0
            },
            {
                "start_time": 21.0613636,
                "end_time": 21.1454545,
                "pitch": 37,
                "velocity": 80,
                "duration": 0.0840909,
                "tempo": 120.0
            },
            {
                "start_time": 21.1636364,
                "end_time": 21.2454545,
                "pitch": 37,
                "velocity": 80,
                "duration": 0.0818182,
                "tempo": 120.0
            },
            {
                "start_time": 21.2636364,
                "end_time": 21.3477273,
                "pitch": 49,
                "velocity": 80,
                "duration": 0.0840909,
                "tempo": 120.0
            },
            {
                "start_time": 21.3636364,
                "end_time": 21.5477273,
                "pitch": 37,
                "velocity": 80,
                "duration": 0.1840909,
                "tempo": 120.0
            },
            {
                "start_time": 21.5636364,
                "end_time": 21.7454545,
                "pitch": 37,
                "velocity": 80,
                "duration": 0.1818182,
                "tempo": 120.0
            },
            {
                "start_time": 21.7613636,
                "end_time": 21.8431818,
                "pitch": 37,
                "velocity": 80,
                "duration": 0.0818182,
                "tempo": 120.0
            },
            {
                "start_time": 21.8613636,
                "end_time": 21.9431818,
                "pitch": 49,
                "velocity": 80,
                "duration": 0.0818182,
                "tempo": 120.0
            },
            {
                "start_time": 21.9590909,
                "end_time": 22.0409091,
                "pitch": 37,
                "velocity": 80,
                "duration": 0.0818182,
                "tempo": 120.0
            },
            {
                "start_time": 22.0568182,
                "end_time": 22.0727273,
                "pitch": 48,
                "velocity": 80,
                "duration": 0.0159091,
                "tempo": 120.0
            },
            {
                "start_time": 22.0886364,
                "end_time": 22.1409091,
                "pitch": 47,
                "velocity": 80,
                "duration": 0.0522727,
                "tempo": 120.0
            },
            {
                "start_time": 22.1568182,
                "end_time": 22.2431818,
                "pitch": 37,
                "velocity": 80,
                "duration": 0.0863636,
                "tempo": 120.0
            },
            {
                "start_time": 22.2590909,
                "end_time": 22.3454545,
                "pitch": 44,
                "velocity": 80,
                "duration": 0.0863636,
                "tempo": 120.0
            },
            {
                "start_time": 22.3613636,
                "end_time": 22.4477273,
                "pitch": 46,
                "velocity": 80,
                "duration": 0.0863636,
                "tempo": 120.0
            },
            {
                "start_time": 22.4659091,
                "end_time": 22.6431818,
                "pitch": 37,
                "velocity": 80,
                "duration": 0.1772727,
                "tempo": 120.0
            },
            {
                "start_time": 22.6590909,
                "end_time": 22.7386364,
                "pitch": 37,
                "velocity": 80,
                "duration": 0.0795455,
                "tempo": 120.0
            },
            {
                "start_time": 22.7545455,
                "end_time": 22.8340909,
                "pitch": 37,
                "velocity": 80,
                "duration": 0.0795455,
                "tempo": 120.0
            },
            {
                "start_time": 22.85,
                "end_time": 22.9318182,
                "pitch": 49,
                "velocity": 80,
                "duration": 0.0818182,
                "tempo": 120.0
            },
            {
                "start_time": 22.95,
                "end_time": 23.1431818,
                "pitch": 37,
                "velocity": 80,
                "duration": 0.1931818,
                "tempo": 120.0
            },
            {
                "start_time": 23.1613636,
                "end_time": 23.3522727,
                "pitch": 37,
                "velocity": 80,
                "duration": 0.1909091,
                "tempo": 120.0
            },
            {
                "start_time": 23.3681818,
                "end_time": 23.45,
                "pitch": 37,
                "velocity": 80,
                "duration": 0.0818182,
                "tempo": 120.0
            },
            {
                "start_time": 23.4659091,
                "end_time": 23.5477273,
                "pitch": 49,
                "velocity": 80,
                "duration": 0.0818182,
                "tempo": 120.0
            },
            {
                "start_time": 23.5636364,
                "end_time": 23.6454545,
                "pitch": 37,
                "velocity": 80,
                "duration": 0.0818182,
                "tempo": 120.0
            },
            {
                "start_time": 23.6613636,
                "end_time": 23.7454545,
                "pitch": 48,
                "velocity": 80,
                "duration": 0.0840909,
                "tempo": 120.0
            },
            {
                "start_time": 23.7636364,
                "end_time": 23.8477273,
                "pitch": 37,
                "velocity": 80,
                "duration": 0.0840909,
                "tempo": 120.0
            },
            {
                "start_time": 23.8659091,
                "end_time": 23.95,
                "pitch": 44,
                "velocity": 80,
                "duration": 0.0840909,
                "tempo": 120.0
            },
            {
                "start_time": 23.9681818,
                "end_time": 24.0545455,
                "pitch": 46,
                "velocity": 80,
                "duration": 0.0863636,
                "tempo": 120.0
            },
            {
                "start_time": 24.0704545,
                "end_time": 24.2545455,
                "pitch": 37,
                "velocity": 80,
                "duration": 0.1840909,
                "tempo": 120.0
            },
            {
                "start_time": 24.2727273,
                "end_time": 24.3545455,
                "pitch": 37,
                "velocity": 80,
                "duration": 0.0818182,
                "tempo": 120.0
            },
            {
                "start_time": 24.3727273,
                "end_time": 24.4545455,
                "pitch": 37,
                "velocity": 80,
                "duration": 0.0818182,
                "tempo": 120.0
            },
            {
                "start_time": 24.4727273,
                "end_time": 24.5545455,
                "pitch": 49,
                "velocity": 80,
                "duration": 0.0818182,
                "tempo": 120.0
            },
            {
                "start_time": 24.5727273,
                "end_time": 24.7545455,
                "pitch": 37,
                "velocity": 80,
                "duration": 0.1818182,
                "tempo": 120.0
            },
            {
                "start_time": 24.7727273,
                "end_time": 24.9545455,
                "pitch": 37,
                "velocity": 80,
                "duration": 0.1818182,
                "tempo": 120.0
            },
            {
                "start_time": 24.9704545,
                "end_time": 25.0522727,
                "pitch": 37,
                "velocity": 80,
                "duration": 0.0818182,
                "tempo": 120.0
            },
            {
                "start_time": 25.0681818,
                "end_time": 25.15,
                "pitch": 49,
                "velocity": 80,
                "duration": 0.0818182,
                "tempo": 120.0
            },
            {
                "start_time": 25.1681818,
                "end_time": 25.2477273,
                "pitch": 37,
                "velocity": 80,
                "duration": 0.0795455,
                "tempo": 120.0
            },
            {
                "start_time": 25.2659091,
                "end_time": 25.3477273,
                "pitch": 48,
                "velocity": 80,
                "duration": 0.0818182,
                "tempo": 120.0
            },
            {
                "start_time": 25.3636364,
                "end_time": 25.4454545,
                "pitch": 37,
                "velocity": 80,
                "duration": 0.0818182,
                "tempo": 120.0
            },
            {
                "start_time": 25.4613636,
                "end_time": 25.5431818,
                "pitch": 44,
                "velocity": 80,
                "duration": 0.0818182,
                "tempo": 120.0
            },
            {
                "start_time": 25.5590909,
                "end_time": 25.6409091,
                "pitch": 46,
                "velocity": 80,
                "duration": 0.0818182,
                "tempo": 120.0
            },
            {
                "start_time": 25.6568182,
                "end_time": 25.7409091,
                "pitch": 49,
                "velocity": 80,
                "duration": 0.0840909,
                "tempo": 120.0
            },
            {
                "start_time": 25.7590909,
                "end_time": 25.8431818,
                "pitch": 48,
                "velocity": 80,
                "duration": 0.0840909,
                "tempo": 120.0
            },
            {
                "start_time": 25.8613636,
                "end_time": 25.9454545,
                "pitch": 44,
                "velocity": 80,
                "duration": 0.0840909,
                "tempo": 120.0
            },
            {
                "start_time": 25.9636364,
                "end_time": 26.05,
                "pitch": 49,
                "velocity": 80,
                "duration": 0.0863636,
                "tempo": 120.0
            },
            {
                "start_time": 26.0659091,
                "end_time": 26.1522727,
                "pitch": 48,
                "velocity": 80,
                "duration": 0.0863636,
                "tempo": 120.0
            },
            {
                "start_time": 26.1681818,
                "end_time": 26.2545455,
                "pitch": 44,
                "velocity": 80,
                "duration": 0.0863636,
                "tempo": 120.0
            },
            {
                "start_time": 26.2727273,
                "end_time": 26.4590909,
                "pitch": 51,
                "velocity": 80,
                "duration": 0.1863636,
                "tempo": 120.0
            },
            {
                "start_time": 26.4772727,
                "end_time": 26.5590909,
                "pitch": 51,
                "velocity": 80,
                "duration": 0.0818182,
                "tempo": 120.0
            },
            {
                "start_time": 26.575,
                "end_time": 26.6545455,
                "pitch": 51,
                "velocity": 80,
                "duration": 0.0795455,
                "tempo": 120.0
            },
            {
                "start_time": 27.2795455,
                "end_time": 27.4659091,
                "pitch": 42,
                "velocity": 80,
                "duration": 0.1863636,
                "tempo": 120.0
            },
            {
                "start_time": 27.4818182,
                "end_time": 27.6659091,
                "pitch": 42,
                "velocity": 80,
                "duration": 0.1840909,
                "tempo": 120.0
            },
            {
                "start_time": 27.6818182,
                "end_time": 27.7659091,
                "pitch": 39,
                "velocity": 80,
                "duration": 0.0840909,
                "tempo": 120.0
            },
            {
                "start_time": 27.7818182,
                "end_time": 27.9659091,
                "pitch": 39,
                "velocity": 80,
                "duration": 0.1840909,
                "tempo": 120.0
            },
            {
                "start_time": 27.9840909,
                "end_time": 28.1681818,
                "pitch": 42,
                "velocity": 80,
                "duration": 0.1840909,
                "tempo": 120.0
            },
            {
                "start_time": 28.1840909,
                "end_time": 28.3681818,
                "pitch": 39,
                "velocity": 80,
                "duration": 0.1840909,
                "tempo": 120.0
            },
            {
                "start_time": 28.3840909,
                "end_time": 28.5681818,
                "pitch": 39,
                "velocity": 80,
                "duration": 0.1840909,
                "tempo": 120.0
            },
            {
                "start_time": 28.5840909,
                "end_time": 28.6681818,
                "pitch": 39,
                "velocity": 80,
                "duration": 0.0840909,
                "tempo": 120.0
            },
            {
                "start_time": 28.6840909,
                "end_time": 28.7681818,
                "pitch": 39,
                "velocity": 80,
                "duration": 0.0840909,
                "tempo": 120.0
            },
            {
                "start_time": 28.7840909,
                "end_time": 28.8681818,
                "pitch": 44,
                "velocity": 80,
                "duration": 0.0840909,
                "tempo": 120.0
            },
            {
                "start_time": 28.8840909,
                "end_time": 29.0681818,
                "pitch": 42,
                "velocity": 80,
                "duration": 0.1840909,
                "tempo": 120.0
            },
            {
                "start_time": 29.0863636,
                "end_time": 29.2704545,
                "pitch": 42,
                "velocity": 80,
                "duration": 0.1840909,
                "tempo": 120.0
            },
            {
                "start_time": 29.2863636,
                "end_time": 29.3704545,
                "pitch": 39,
                "velocity": 80,
                "duration": 0.0840909,
                "tempo": 120.0
            },
            {
                "start_time": 29.3863636,
                "end_time": 29.5704545,
                "pitch": 39,
                "velocity": 80,
                "duration": 0.1840909,
                "tempo": 120.0
            },
            {
                "start_time": 29.5863636,
                "end_time": 29.7704545,
                "pitch": 51,
                "velocity": 80,
                "duration": 0.1840909,
                "tempo": 120.0
            },
            {
                "start_time": 29.7886364,
                "end_time": 29.8704545,
                "pitch": 51,
                "velocity": 80,
                "duration": 0.0818182,
                "tempo": 120.0
            },
            {
                "start_time": 29.8886364,
                "end_time": 29.9727273,
                "pitch": 50,
                "velocity": 80,
                "duration": 0.0840909,
                "tempo": 120.0
            },
            {
                "start_time": 29.9886364,
                "end_time": 30.0727273,
                "pitch": 50,
                "velocity": 80,
                "duration": 0.0840909,
                "tempo": 120.0
            },
            {
                "start_time": 30.0886364,
                "end_time": 30.1727273,
                "pitch": 49,
                "velocity": 80,
                "duration": 0.0840909,
                "tempo": 120.0
            },
            {
                "start_time": 30.1909091,
                "end_time": 30.2727273,
                "pitch": 49,
                "velocity": 80,
                "duration": 0.0818182,
                "tempo": 120.0
            },
            {
                "start_time": 30.2909091,
                "end_time": 30.3727273,
                "pitch": 48,
                "velocity": 80,
                "duration": 0.0818182,
                "tempo": 120.0
            },
            {
                "start_time": 30.3909091,
                "end_time": 30.4727273,
                "pitch": 48,
                "velocity": 80,
                "duration": 0.0818182,
                "tempo": 120.0
            },
            {
                "start_time": 30.4909091,
                "end_time": 30.6704545,
                "pitch": 42,
                "velocity": 80,
                "duration": 0.1795455,
                "tempo": 120.0
            },
            {
                "start_time": 30.6863636,
                "end_time": 30.8659091,
                "pitch": 42,
                "velocity": 80,
                "duration": 0.1795455,
                "tempo": 120.0
            },
            {
                "start_time": 30.8840909,
                "end_time": 30.9659091,
                "pitch": 39,
                "velocity": 80,
                "duration": 0.0818182,
                "tempo": 120.0
            },
            {
                "start_time": 30.9840909,
                "end_time": 31.1727273,
                "pitch": 39,
                "velocity": 80,
                "duration": 0.1886364,
                "tempo": 120.0
            },
            {
                "start_time": 31.1886364,
                "end_time": 31.3772727,
                "pitch": 42,
                "velocity": 80,
                "duration": 0.1886364,
                "tempo": 120.0
            },
            {
                "start_time": 31.3931818,
                "end_time": 31.5772727,
                "pitch": 39,
                "velocity": 80,
                "duration": 0.1840909,
                "tempo": 120.0
            },
            {
                "start_time": 31.5931818,
                "end_time": 31.7772727,
                "pitch": 39,
                "velocity": 80,
                "duration": 0.1840909,
                "tempo": 120.0
            },
            {
                "start_time": 31.7931818,
                "end_time": 31.8772727,
                "pitch": 39,
                "velocity": 80,
                "duration": 0.0840909,
                "tempo": 120.0
            },
            {
                "start_time": 31.8931818,
                "end_time": 31.9772727,
                "pitch": 39,
                "velocity": 80,
                "duration": 0.0840909,
                "tempo": 120.0
            },
            {
                "start_time": 31.9954545,
                "end_time": 32.0795455,
                "pitch": 44,
                "velocity": 80,
                "duration": 0.0840909,
                "tempo": 120.0
            },
            {
                "start_time": 32.0954545,
                "end_time": 32.275,
                "pitch": 42,
                "velocity": 80,
                "duration": 0.1795455,
                "tempo": 120.0
            },
            {
                "start_time": 32.2931818,
                "end_time": 32.4727273,
                "pitch": 42,
                "velocity": 80,
                "duration": 0.1795455,
                "tempo": 120.0
            },
            {
                "start_time": 32.4886364,
                "end_time": 32.5727273,
                "pitch": 39,
                "velocity": 80,
                "duration": 0.0840909,
                "tempo": 120.0
            },
            {
                "start_time": 32.5886364,
                "end_time": 32.7772727,
                "pitch": 39,
                "velocity": 80,
                "duration": 0.1886364,
                "tempo": 120.0
            },
            {
                "start_time": 32.7954545,
                "end_time": 32.9818182,
                "pitch": 51,
                "velocity": 80,
                "duration": 0.1863636,
                "tempo": 120.0
            },
            {
                "start_time": 32.9977273,
                "end_time": 33.0818182,
                "pitch": 51,
                "velocity": 80,
                "duration": 0.0840909,
                "tempo": 120.0
            },
            {
                "start_time": 33.0977273,
                "end_time": 33.1818182,
                "pitch": 50,
                "velocity": 80,
                "duration": 0.0840909,
                "tempo": 120.0
            },
            {
                "start_time": 33.1977273,
                "end_time": 33.2818182,
                "pitch": 50,
                "velocity": 80,
                "duration": 0.0840909,
                "tempo": 120.0
            },
            {
                "start_time": 33.2977273,
                "end_time": 33.3818182,
                "pitch": 49,
                "velocity": 80,
                "duration": 0.0840909,
                "tempo": 120.0
            },
            {
                "start_time": 33.3977273,
                "end_time": 33.4818182,
                "pitch": 49,
                "velocity": 80,
                "duration": 0.0840909,
                "tempo": 120.0
            },
            {
                "start_time": 33.5,
                "end_time": 33.5840909,
                "pitch": 48,
                "velocity": 80,
                "duration": 0.0840909,
                "tempo": 120.0
            },
            {
                "start_time": 33.6,
                "end_time": 33.7181818,
                "pitch": 48,
                "velocity": 80,
                "duration": 0.1181818,
                "tempo": 120.0
            },
            {
                "start_time": 33.7340909,
                "end_time": 33.7840909,
                "pitch": 39,
                "velocity": 80,
                "duration": 0.05,
                "tempo": 120.0
            },
            {
                "start_time": 33.8022727,
                "end_time": 33.8840909,
                "pitch": 42,
                "velocity": 80,
                "duration": 0.0818182,
                "tempo": 120.0
            },
            {
                "start_time": 33.9022727,
                "end_time": 33.9840909,
                "pitch": 39,
                "velocity": 80,
                "duration": 0.0818182,
                "tempo": 120.0
            },
            {
                "start_time": 34.0022727,
                "end_time": 34.0840909,
                "pitch": 43,
                "velocity": 80,
                "duration": 0.0818182,
                "tempo": 120.0
            },
            {
                "start_time": 34.1022727,
                "end_time": 34.1840909,
                "pitch": 39,
                "velocity": 80,
                "duration": 0.0818182,
                "tempo": 120.0
            },
            {
                "start_time": 34.2022727,
                "end_time": 34.2840909,
                "pitch": 42,
                "velocity": 80,
                "duration": 0.0818182,
                "tempo": 120.0
            },
            {
                "start_time": 34.3022727,
                "end_time": 34.3840909,
                "pitch": 47,
                "velocity": 80,
                "duration": 0.0818182,
                "tempo": 120.0
            },
            {
                "start_time": 34.4022727,
                "end_time": 34.4840909,
                "pitch": 46,
                "velocity": 80,
                "duration": 0.0818182,
                "tempo": 120.0
            },
            {
                "start_time": 34.5022727,
                "end_time": 34.5840909,
                "pitch": 39,
                "velocity": 80,
                "duration": 0.0818182,
                "tempo": 120.0
            },
            {
                "start_time": 34.6022727,
                "end_time": 34.6840909,
                "pitch": 42,
                "velocity": 80,
                "duration": 0.0818182,
                "tempo": 120.0
            },
            {
                "start_time": 34.7022727,
                "end_time": 34.7840909,
                "pitch": 39,
                "velocity": 80,
                "duration": 0.0818182,
                "tempo": 120.0
            },
            {
                "start_time": 34.8022727,
                "end_time": 34.8840909,
                "pitch": 43,
                "velocity": 80,
                "duration": 0.0818182,
                "tempo": 120.0
            },
            {
                "start_time": 34.9022727,
                "end_time": 34.9795455,
                "pitch": 39,
                "velocity": 80,
                "duration": 0.0772727,
                "tempo": 120.0
            },
            {
                "start_time": 34.9954545,
                "end_time": 35.0727273,
                "pitch": 42,
                "velocity": 80,
                "duration": 0.0772727,
                "tempo": 120.0
            },
            {
                "start_time": 35.0886364,
                "end_time": 35.1659091,
                "pitch": 47,
                "velocity": 80,
                "duration": 0.0772727,
                "tempo": 120.0
            },
            {
                "start_time": 35.1795455,
                "end_time": 35.2568182,
                "pitch": 46,
                "velocity": 80,
                "duration": 0.0772727,
                "tempo": 120.0
            },
            {
                "start_time": 35.2727273,
                "end_time": 35.3545455,
                "pitch": 39,
                "velocity": 80,
                "duration": 0.0818182,
                "tempo": 120.0
            },
            {
                "start_time": 35.3704545,
                "end_time": 35.4522727,
                "pitch": 42,
                "velocity": 80,
                "duration": 0.0818182,
                "tempo": 120.0
            },
            {
                "start_time": 35.4681818,
                "end_time": 35.55,
                "pitch": 39,
                "velocity": 80,
                "duration": 0.0818182,
                "tempo": 120.0
            },
            {
                "start_time": 35.5659091,
                "end_time": 35.6477273,
                "pitch": 43,
                "velocity": 80,
                "duration": 0.0818182,
                "tempo": 120.0
            },
            {
                "start_time": 35.6636364,
                "end_time": 35.75,
                "pitch": 39,
                "velocity": 80,
                "duration": 0.0863636,
                "tempo": 120.0
            },
            {
                "start_time": 35.7659091,
                "end_time": 35.8522727,
                "pitch": 42,
                "velocity": 80,
                "duration": 0.0863636,
                "tempo": 120.0
            },
            {
                "start_time": 35.8681818,
                "end_time": 35.9545455,
                "pitch": 47,
                "velocity": 80,
                "duration": 0.0863636,
                "tempo": 120.0
            },
            {
                "start_time": 35.9727273,
                "end_time": 36.0568182,
                "pitch": 46,
                "velocity": 80,
                "duration": 0.0840909,
                "tempo": 120.0
            },
            {
                "start_time": 36.075,
                "end_time": 36.1568182,
                "pitch": 39,
                "velocity": 80,
                "duration": 0.0818182,
                "tempo": 120.0
            },
            {
                "start_time": 36.1727273,
                "end_time": 36.2545455,
                "pitch": 42,
                "velocity": 80,
                "duration": 0.0818182,
                "tempo": 120.0
            },
            {
                "start_time": 36.2704545,
                "end_time": 36.3522727,
                "pitch": 39,
                "velocity": 80,
                "duration": 0.0818182,
                "tempo": 120.0
            },
            {
                "start_time": 36.3681818,
                "end_time": 36.45,
                "pitch": 43,
                "velocity": 80,
                "duration": 0.0818182,
                "tempo": 120.0
            },
            {
                "start_time": 36.4681818,
                "end_time": 36.5522727,
                "pitch": 39,
                "velocity": 80,
                "duration": 0.0840909,
                "tempo": 120.0
            },
            {
                "start_time": 36.5681818,
                "end_time": 36.6545455,
                "pitch": 42,
                "velocity": 80,
                "duration": 0.0863636,
                "tempo": 120.0
            },
            {
                "start_time": 36.6727273,
                "end_time": 36.7568182,
                "pitch": 47,
                "velocity": 80,
                "duration": 0.0840909,
                "tempo": 120.0
            },
            {
                "start_time": 36.775,
                "end_time": 36.8590909,
                "pitch": 46,
                "velocity": 80,
                "duration": 0.0840909,
                "tempo": 120.0
            },
            {
                "start_time": 36.8772727,
                "end_time": 36.9590909,
                "pitch": 39,
                "velocity": 80,
                "duration": 0.0818182,
                "tempo": 120.0
            },
            {
                "start_time": 36.975,
                "end_time": 37.0568182,
                "pitch": 42,
                "velocity": 80,
                "duration": 0.0818182,
                "tempo": 120.0
            },
            {
                "start_time": 37.0727273,
                "end_time": 37.1545455,
                "pitch": 39,
                "velocity": 80,
                "duration": 0.0818182,
                "tempo": 120.0
            },
            {
                "start_time": 37.1727273,
                "end_time": 37.2545455,
                "pitch": 43,
                "velocity": 80,
                "duration": 0.0818182,
                "tempo": 120.0
            },
            {
                "start_time": 37.2704545,
                "end_time": 37.3545455,
                "pitch": 39,
                "velocity": 80,
                "duration": 0.0840909,
                "tempo": 120.0
            },
            {
                "start_time": 37.3727273,
                "end_time": 37.4568182,
                "pitch": 42,
                "velocity": 80,
                "duration": 0.0840909,
                "tempo": 120.0
            },
            {
                "start_time": 37.475,
                "end_time": 37.5590909,
                "pitch": 47,
                "velocity": 80,
                "duration": 0.0840909,
                "tempo": 120.0
            },
            {
                "start_time": 37.5772727,
                "end_time": 37.6636364,
                "pitch": 46,
                "velocity": 80,
                "duration": 0.0863636,
                "tempo": 120.0
            },
            {
                "start_time": 37.6795455,
                "end_time": 37.7636364,
                "pitch": 39,
                "velocity": 80,
                "duration": 0.0840909,
                "tempo": 120.0
            },
            {
                "start_time": 37.7795455,
                "end_time": 37.8636364,
                "pitch": 42,
                "velocity": 80,
                "duration": 0.0840909,
                "tempo": 120.0
            },
            {
                "start_time": 37.8795455,
                "end_time": 37.9636364,
                "pitch": 39,
                "velocity": 80,
                "duration": 0.0840909,
                "tempo": 120.0
            },
            {
                "start_time": 37.9795455,
                "end_time": 38.0636364,
                "pitch": 43,
                "velocity": 80,
                "duration": 0.0840909,
                "tempo": 120.0
            },
            {
                "start_time": 38.0795455,
                "end_time": 38.1636364,
                "pitch": 39,
                "velocity": 80,
                "duration": 0.0840909,
                "tempo": 120.0
            },
            {
                "start_time": 38.1795455,
                "end_time": 38.2636364,
                "pitch": 42,
                "velocity": 80,
                "duration": 0.0840909,
                "tempo": 120.0
            },
            {
                "start_time": 38.2795455,
                "end_time": 38.3636364,
                "pitch": 47,
                "velocity": 80,
                "duration": 0.0840909,
                "tempo": 120.0
            },
            {
                "start_time": 38.3795455,
                "end_time": 38.4636364,
                "pitch": 46,
                "velocity": 80,
                "duration": 0.0840909,
                "tempo": 120.0
            },
            {
                "start_time": 38.4795455,
                "end_time": 38.5613636,
                "pitch": 39,
                "velocity": 80,
                "duration": 0.0818182,
                "tempo": 120.0
            },
            {
                "start_time": 38.5795455,
                "end_time": 38.6613636,
                "pitch": 42,
                "velocity": 80,
                "duration": 0.0818182,
                "tempo": 120.0
            },
            {
                "start_time": 38.6772727,
                "end_time": 38.7590909,
                "pitch": 39,
                "velocity": 80,
                "duration": 0.0818182,
                "tempo": 120.0
            },
            {
                "start_time": 38.775,
                "end_time": 38.8568182,
                "pitch": 43,
                "velocity": 80,
                "duration": 0.0818182,
                "tempo": 120.0
            },
            {
                "start_time": 38.8727273,
                "end_time": 38.9568182,
                "pitch": 39,
                "velocity": 80,
                "duration": 0.0840909,
                "tempo": 120.0
            },
            {
                "start_time": 38.975,
                "end_time": 39.0613636,
                "pitch": 42,
                "velocity": 80,
                "duration": 0.0863636,
                "tempo": 120.0
            },
            {
                "start_time": 39.0772727,
                "end_time": 39.0954545,
                "pitch": 47,
                "velocity": 80,
                "duration": 0.0181818,
                "tempo": 120.0
            },
            {
                "start_time": 39.1113636,
                "end_time": 39.1636364,
                "pitch": 46,
                "velocity": 80,
                "duration": 0.0522727,
                "tempo": 120.0
            },
            {
                "start_time": 39.1795455,
                "end_time": 39.2659091,
                "pitch": 46,
                "velocity": 80,
                "duration": 0.0863636,
                "tempo": 120.0
            },
            {
                "start_time": 39.2818182,
                "end_time": 39.3659091,
                "pitch": 39,
                "velocity": 80,
                "duration": 0.0840909,
                "tempo": 120.0
            },
            {
                "start_time": 39.3840909,
                "end_time": 39.4659091,
                "pitch": 42,
                "velocity": 80,
                "duration": 0.0818182,
                "tempo": 120.0
            },
            {
                "start_time": 39.4840909,
                "end_time": 39.5659091,
                "pitch": 39,
                "velocity": 80,
                "duration": 0.0818182,
                "tempo": 120.0
            },
            {
                "start_time": 39.5840909,
                "end_time": 39.6659091,
                "pitch": 43,
                "velocity": 80,
                "duration": 0.0818182,
                "tempo": 120.0
            },
            {
                "start_time": 39.6840909,
                "end_time": 39.7659091,
                "pitch": 39,
                "velocity": 80,
                "duration": 0.0818182,
                "tempo": 120.0
            },
            {
                "start_time": 39.7840909,
                "end_time": 39.8659091,
                "pitch": 42,
                "velocity": 80,
                "duration": 0.0818182,
                "tempo": 120.0
            },
            {
                "start_time": 39.8840909,
                "end_time": 39.9659091,
                "pitch": 47,
                "velocity": 80,
                "duration": 0.0818182,
                "tempo": 120.0
            },
            {
                "start_time": 39.9840909,
                "end_time": 40.0659091,
                "pitch": 46,
                "velocity": 80,
                "duration": 0.0818182,
                "tempo": 120.0
            },
            {
                "start_time": 40.0840909,
                "end_time": 40.1204545,
                "pitch": 37,
                "velocity": 80,
                "duration": 0.0363636,
                "tempo": 120.0
            }
        ],
        "Harpsichord": [
            {
                "start_time": 0.0,
                "end_time": 0.0340909,
                "pitch": 75,
                "velocity": 64,
                "duration": 0.0340909,
                "tempo": 120.0
            },
            {
                "start_time": 0.05,
                "end_time": 0.1340909,
                "pitch": 78,
                "velocity": 64,
                "duration": 0.0840909,
                "tempo": 120.0
            },
            {
                "start_time": 0.15,
                "end_time": 0.2340909,
                "pitch": 75,
                "velocity": 64,
                "duration": 0.0840909,
                "tempo": 120.0
            },
            {
                "start_time": 0.25,
                "end_time": 0.3340909,
                "pitch": 79,
                "velocity": 64,
                "duration": 0.0840909,
                "tempo": 120.0
            },
            {
                "start_time": 0.35,
                "end_time": 0.4340909,
                "pitch": 75,
                "velocity": 64,
                "duration": 0.0840909,
                "tempo": 120.0
            },
            {
                "start_time": 0.45,
                "end_time": 0.5340909,
                "pitch": 78,
                "velocity": 64,
                "duration": 0.0840909,
                "tempo": 120.0
            },
            {
                "start_time": 0.55,
                "end_time": 0.6340909,
                "pitch": 83,
                "velocity": 64,
                "duration": 0.0840909,
                "tempo": 120.0
            },
            {
                "start_time": 0.65,
                "end_time": 0.7340909,
                "pitch": 82,
                "velocity": 64,
                "duration": 0.0840909,
                "tempo": 120.0
            },
            {
                "start_time": 0.75,
                "end_time": 0.8340909,
                "pitch": 75,
                "velocity": 64,
                "duration": 0.0840909,
                "tempo": 120.0
            },
            {
                "start_time": 0.85,
                "end_time": 0.9340909,
                "pitch": 78,
                "velocity": 64,
                "duration": 0.0840909,
                "tempo": 120.0
            },
            {
                "start_time": 0.95,
                "end_time": 1.0340909,
                "pitch": 75,
                "velocity": 64,
                "duration": 0.0840909,
                "tempo": 120.0
            },
            {
                "start_time": 1.05,
                "end_time": 1.1340909,
                "pitch": 79,
                "velocity": 64,
                "duration": 0.0840909,
                "tempo": 120.0
            },
            {
                "start_time": 1.15,
                "end_time": 1.2340909,
                "pitch": 75,
                "velocity": 64,
                "duration": 0.0840909,
                "tempo": 120.0
            },
            {
                "start_time": 1.2522727,
                "end_time": 1.3386364,
                "pitch": 78,
                "velocity": 64,
                "duration": 0.0863636,
                "tempo": 120.0
            },
            {
                "start_time": 1.3545455,
                "end_time": 1.4409091,
                "pitch": 83,
                "velocity": 64,
                "duration": 0.0863636,
                "tempo": 120.0
            },
            {
                "start_time": 1.4568182,
                "end_time": 1.5431818,
                "pitch": 82,
                "velocity": 64,
                "duration": 0.0863636,
                "tempo": 120.0
            },
            {
                "start_time": 1.5613636,
                "end_time": 1.6431818,
                "pitch": 75,
                "velocity": 64,
                "duration": 0.0818182,
                "tempo": 120.0
            },
            {
                "start_time": 1.6590909,
                "end_time": 1.7409091,
                "pitch": 78,
                "velocity": 64,
                "duration": 0.0818182,
                "tempo": 120.0
            },
            {
                "start_time": 1.7568182,
                "end_time": 1.8386364,
                "pitch": 75,
                "velocity": 64,
                "duration": 0.0818182,
                "tempo": 120.0
            },
            {
                "start_time": 1.8545455,
                "end_time": 1.9363636,
                "pitch": 79,
                "velocity": 64,
                "duration": 0.0818182,
                "tempo": 120.0
            },
            {
                "start_time": 1.9522727,
                "end_time": 2.0386364,
                "pitch": 75,
                "velocity": 64,
                "duration": 0.0863636,
                "tempo": 120.0
            },
            {
                "start_time": 2.0545455,
                "end_time": 2.1409091,
                "pitch": 78,
                "velocity": 64,
                "duration": 0.0863636,
                "tempo": 120.0
            },
            {
                "start_time": 2.1568182,
                "end_time": 2.2431818,
                "pitch": 83,
                "velocity": 64,
                "duration": 0.0863636,
                "tempo": 120.0
            },
            {
                "start_time": 2.2613636,
                "end_time": 2.3454545,
                "pitch": 82,
                "velocity": 64,
                "duration": 0.0840909,
                "tempo": 120.0
            },
            {
                "start_time": 2.3636364,
                "end_time": 2.4477273,
                "pitch": 75,
                "velocity": 64,
                "duration": 0.0840909,
                "tempo": 120.0
            },
            {
                "start_time": 2.4636364,
                "end_time": 2.5477273,
                "pitch": 78,
                "velocity": 64,
                "duration": 0.0840909,
                "tempo": 120.0
            },
            {
                "start_time": 2.5659091,
                "end_time": 2.6477273,
                "pitch": 75,
                "velocity": 64,
                "duration": 0.0818182,
                "tempo": 120.0
            },
            {
                "start_time": 2.6659091,
                "end_time": 2.75,
                "pitch": 79,
                "velocity": 64,
                "duration": 0.0840909,
                "tempo": 120.0
            },
            {
                "start_time": 2.7659091,
                "end_time": 2.85,
                "pitch": 75,
                "velocity": 64,
                "duration": 0.0840909,
                "tempo": 120.0
            },
            {
                "start_time": 2.8659091,
                "end_time": 2.95,
                "pitch": 78,
                "velocity": 64,
                "duration": 0.0840909,
                "tempo": 120.0
            },
            {
                "start_time": 2.9659091,
                "end_time": 3.05,
                "pitch": 83,
                "velocity": 64,
                "duration": 0.0840909,
                "tempo": 120.0
            },
            {
                "start_time": 3.0659091,
                "end_time": 3.15,
                "pitch": 82,
                "velocity": 64,
                "duration": 0.0840909,
                "tempo": 120.0
            },
            {
                "start_time": 3.1659091,
                "end_time": 3.2477273,
                "pitch": 75,
                "velocity": 64,
                "duration": 0.0818182,
                "tempo": 120.0
            },
            {
                "start_time": 3.2636364,
                "end_time": 3.3454545,
                "pitch": 78,
                "velocity": 64,
                "duration": 0.0818182,
                "tempo": 120.0
            },
            {
                "start_time": 3.3636364,
                "end_time": 3.4431818,
                "pitch": 75,
                "velocity": 64,
                "duration": 0.0795455,
                "tempo": 120.0
            },
            {
                "start_time": 3.4613636,
                "end_time": 3.5431818,
                "pitch": 79,
                "velocity": 64,
                "duration": 0.0818182,
                "tempo": 120.0
            },
            {
                "start_time": 3.5590909,
                "end_time": 3.6431818,
                "pitch": 75,
                "velocity": 64,
                "duration": 0.0840909,
                "tempo": 120.0
            },
            {
                "start_time": 3.6613636,
                "end_time": 3.7454545,
                "pitch": 78,
                "velocity": 64,
                "duration": 0.0840909,
                "tempo": 120.0
            },
            {
                "start_time": 3.7636364,
                "end_time": 3.8477273,
                "pitch": 83,
                "velocity": 64,
                "duration": 0.0840909,
                "tempo": 120.0
            },
            {
                "start_time": 3.8659091,
                "end_time": 3.9522727,
                "pitch": 82,
                "velocity": 64,
                "duration": 0.0863636,
                "tempo": 120.0
            },
            {
                "start_time": 3.9681818,
                "end_time": 4.05,
                "pitch": 75,
                "velocity": 64,
                "duration": 0.0818182,
                "tempo": 120.0
            },
            {
                "start_time": 4.0681818,
                "end_time": 4.15,
                "pitch": 78,
                "velocity": 64,
                "duration": 0.0818182,
                "tempo": 120.0
            },
            {
                "start_time": 4.1659091,
                "end_time": 4.2477273,
                "pitch": 75,
                "velocity": 64,
                "duration": 0.0818182,
                "tempo": 120.0
            },
            {
                "start_time": 4.2636364,
                "end_time": 4.3454545,
                "pitch": 79,
                "velocity": 64,
                "duration": 0.0818182,
                "tempo": 120.0
            },
            {
                "start_time": 4.3613636,
                "end_time": 4.4454545,
                "pitch": 75,
                "velocity": 64,
                "duration": 0.0840909,
                "tempo": 120.0
            },
            {
                "start_time": 4.4636364,
                "end_time": 4.5477273,
                "pitch": 78,
                "velocity": 64,
                "duration": 0.0840909,
                "tempo": 120.0
            },
            {
                "start_time": 4.5659091,
                "end_time": 4.6522727,
                "pitch": 83,
                "velocity": 64,
                "duration": 0.0863636,
                "tempo": 120.0
            },
            {
                "start_time": 4.6681818,
                "end_time": 4.7545455,
                "pitch": 82,
                "velocity": 64,
                "duration": 0.0863636,
                "tempo": 120.0
            },
            {
                "start_time": 4.7704545,
                "end_time": 4.8545455,
                "pitch": 75,
                "velocity": 64,
                "duration": 0.0840909,
                "tempo": 120.0
            },
            {
                "start_time": 4.8704545,
                "end_time": 4.9522727,
                "pitch": 78,
                "velocity": 64,
                "duration": 0.0818182,
                "tempo": 120.0
            },
            {
                "start_time": 4.9681818,
                "end_time": 5.05,
                "pitch": 75,
                "velocity": 64,
                "duration": 0.0818182,
                "tempo": 120.0
            },
            {
                "start_time": 5.0659091,
                "end_time": 5.1477273,
                "pitch": 79,
                "velocity": 64,
                "duration": 0.0818182,
                "tempo": 120.0
            },
            {
                "start_time": 5.1636364,
                "end_time": 5.2477273,
                "pitch": 75,
                "velocity": 64,
                "duration": 0.0840909,
                "tempo": 120.0
            },
            {
                "start_time": 5.2659091,
                "end_time": 5.3522727,
                "pitch": 78,
                "velocity": 64,
                "duration": 0.0863636,
                "tempo": 120.0
            },
            {
                "start_time": 5.3681818,
                "end_time": 5.4545455,
                "pitch": 83,
                "velocity": 64,
                "duration": 0.0863636,
                "tempo": 120.0
            },
            {
                "start_time": 5.4704545,
                "end_time": 5.5568182,
                "pitch": 82,
                "velocity": 64,
                "duration": 0.0863636,
                "tempo": 120.0
            },
            {
                "start_time": 5.575,
                "end_time": 5.6590909,
                "pitch": 75,
                "velocity": 64,
                "duration": 0.0840909,
                "tempo": 120.0
            },
            {
                "start_time": 5.675,
                "end_time": 5.7590909,
                "pitch": 78,
                "velocity": 64,
                "duration": 0.0840909,
                "tempo": 120.0
            },
            {
                "start_time": 5.775,
                "end_time": 5.8590909,
                "pitch": 75,
                "velocity": 64,
                "duration": 0.0840909,
                "tempo": 120.0
            },
            {
                "start_time": 5.8772727,
                "end_time": 5.9613636,
                "pitch": 79,
                "velocity": 64,
                "duration": 0.0840909,
                "tempo": 120.0
            },
            {
                "start_time": 5.9772727,
                "end_time": 6.0613636,
                "pitch": 75,
                "velocity": 64,
                "duration": 0.0840909,
                "tempo": 120.0
            },
            {
                "start_time": 6.0772727,
                "end_time": 6.1613636,
                "pitch": 78,
                "velocity": 64,
                "duration": 0.0840909,
                "tempo": 120.0
            },
            {
                "start_time": 6.1772727,
                "end_time": 6.2613636,
                "pitch": 83,
                "velocity": 64,
                "duration": 0.0840909,
                "tempo": 120.0
            },
            {
                "start_time": 6.2772727,
                "end_time": 6.3613636,
                "pitch": 82,
                "velocity": 64,
                "duration": 0.0840909,
                "tempo": 120.0
            },
            {
                "start_time": 6.3772727,
                "end_time": 6.4068182,
                "pitch": 85,
                "velocity": 64,
                "duration": 0.0295455,
                "tempo": 120.0
            },
            {
                "start_time": 6.4068182,
                "end_time": 6.4613636,
                "pitch": 85,
                "velocity": 64,
                "duration": 0.0545455,
                "tempo": 120.0
            },
            {
                "start_time": 6.4772727,
                "end_time": 6.5613636,
                "pitch": 85,
                "velocity": 64,
                "duration": 0.0840909,
                "tempo": 120.0
            },
            {
                "start_time": 6.5772727,
                "end_time": 6.6613636,
                "pitch": 90,
                "velocity": 64,
                "duration": 0.0840909,
                "tempo": 120.0
            },
            {
                "start_time": 6.6795455,
                "end_time": 6.7636364,
                "pitch": 85,
                "velocity": 64,
                "duration": 0.0840909,
                "tempo": 120.0
            },
            {
                "start_time": 6.7795455,
                "end_time": 6.8659091,
                "pitch": 92,
                "velocity": 64,
                "duration": 0.0863636,
                "tempo": 120.0
            },
            {
                "start_time": 6.8840909,
                "end_time": 6.975,
                "pitch": 85,
                "velocity": 64,
                "duration": 0.0909091,
                "tempo": 120.0
            },
            {
                "start_time": 6.9909091,
                "end_time": 7.0818182,
                "pitch": 85,
                "velocity": 64,
                "duration": 0.0909091,
                "tempo": 120.0
            },
            {
                "start_time": 7.1,
                "end_time": 7.1909091,
                "pitch": 85,
                "velocity": 64,
                "duration": 0.0909091,
                "tempo": 120.0
            },
            {
                "start_time": 7.2068182,
                "end_time": 7.2931818,
                "pitch": 90,
                "velocity": 64,
                "duration": 0.0863636,
                "tempo": 120.0
            },
            {
                "start_time": 7.3090909,
                "end_time": 7.3909091,
                "pitch": 85,
                "velocity": 64,
                "duration": 0.0818182,
                "tempo": 120.0
            },
            {
                "start_time": 7.4068182,
                "end_time": 7.4886364,
                "pitch": 85,
                "velocity": 64,
                "duration": 0.0818182,
                "tempo": 120.0
            },
            {
                "start_time": 7.5068182,
                "end_time": 7.5886364,
                "pitch": 92,
                "velocity": 64,
                "duration": 0.0818182,
                "tempo": 120.0
            },
            {
                "start_time": 7.6045455,
                "end_time": 7.6863636,
                "pitch": 85,
                "velocity": 64,
                "duration": 0.0818182,
                "tempo": 120.0
            },
            {
                "start_time": 7.7045455,
                "end_time": 7.7909091,
                "pitch": 85,
                "velocity": 64,
                "duration": 0.0863636,
                "tempo": 120.0
            },
            {
                "start_time": 7.8068182,
                "end_time": 7.8931818,
                "pitch": 90,
                "velocity": 64,
                "duration": 0.0863636,
                "tempo": 120.0
            },
            {
                "start_time": 7.9090909,
                "end_time": 7.9954545,
                "pitch": 92,
                "velocity": 64,
                "duration": 0.0863636,
                "tempo": 120.0
            },
            {
                "start_time": 8.0113636,
                "end_time": 8.0977273,
                "pitch": 85,
                "velocity": 64,
                "duration": 0.0863636,
                "tempo": 120.0
            },
            {
                "start_time": 8.1136364,
                "end_time": 8.1977273,
                "pitch": 85,
                "velocity": 64,
                "duration": 0.0840909,
                "tempo": 120.0
            },
            {
                "start_time": 8.2159091,
                "end_time": 8.2977273,
                "pitch": 90,
                "velocity": 64,
                "duration": 0.0818182,
                "tempo": 120.0
            },
            {
                "start_time": 8.3159091,
                "end_time": 8.4,
                "pitch": 85,
                "velocity": 64,
                "duration": 0.0840909,
                "tempo": 120.0
            },
            {
                "start_time": 8.4159091,
                "end_time": 8.5,
                "pitch": 92,
                "velocity": 64,
                "duration": 0.0840909,
                "tempo": 120.0
            },
            {
                "start_time": 8.5159091,
                "end_time": 8.6,
                "pitch": 85,
                "velocity": 64,
                "duration": 0.0840909,
                "tempo": 120.0
            },
            {
                "start_time": 8.6181818,
                "end_time": 8.7022727,
                "pitch": 85,
                "velocity": 64,
                "duration": 0.0840909,
                "tempo": 120.0
            },
            {
                "start_time": 8.7181818,
                "end_time": 8.8022727,
                "pitch": 85,
                "velocity": 64,
                "duration": 0.0840909,
                "tempo": 120.0
            },
            {
                "start_time": 8.8181818,
                "end_time": 8.9022727,
                "pitch": 90,
                "velocity": 64,
                "duration": 0.0840909,
                "tempo": 120.0
            },
            {
                "start_time": 8.9181818,
                "end_time": 9.0,
                "pitch": 85,
                "velocity": 64,
                "duration": 0.0818182,
                "tempo": 120.0
            },
            {
                "start_time": 9.0159091,
                "end_time": 9.0977273,
                "pitch": 85,
                "velocity": 64,
                "duration": 0.0818182,
                "tempo": 120.0
            },
            {
                "start_time": 9.1136364,
                "end_time": 9.1954545,
                "pitch": 92,
                "velocity": 64,
                "duration": 0.0818182,
                "tempo": 120.0
            },
            {
                "start_time": 9.2113636,
                "end_time": 9.2954545,
                "pitch": 85,
                "velocity": 64,
                "duration": 0.0840909,
                "tempo": 120.0
            },
            {
                "start_time": 9.3113636,
                "end_time": 9.3977273,
                "pitch": 85,
                "velocity": 64,
                "duration": 0.0863636,
                "tempo": 120.0
            },
            {
                "start_time": 9.4159091,
                "end_time": 9.5,
                "pitch": 90,
                "velocity": 64,
                "duration": 0.0840909,
                "tempo": 120.0
            },
            {
                "start_time": 9.5181818,
                "end_time": 9.6045455,
                "pitch": 92,
                "velocity": 64,
                "duration": 0.0863636,
                "tempo": 120.0
            },
            {
                "start_time": 9.6204545,
                "end_time": 9.7022727,
                "pitch": 85,
                "velocity": 64,
                "duration": 0.0818182,
                "tempo": 120.0
            },
            {
                "start_time": 9.7181818,
                "end_time": 9.7977273,
                "pitch": 85,
                "velocity": 64,
                "duration": 0.0795455,
                "tempo": 120.0
            },
            {
                "start_time": 9.8136364,
                "end_time": 9.8931818,
                "pitch": 90,
                "velocity": 64,
                "duration": 0.0795455,
                "tempo": 120.0
            },
            {
                "start_time": 9.9090909,
                "end_time": 9.9886364,
                "pitch": 85,
                "velocity": 64,
                "duration": 0.0795455,
                "tempo": 120.0
            },
            {
                "start_time": 10.0045455,
                "end_time": 10.0886364,
                "pitch": 92,
                "velocity": 64,
                "duration": 0.0840909,
                "tempo": 120.0
            },
            {
                "start_time": 10.1045455,
                "end_time": 10.1931818,
                "pitch": 85,
                "velocity": 64,
                "duration": 0.0886364,
                "tempo": 120.0
            },
            {
                "start_time": 10.2113636,
                "end_time": 10.3,
                "pitch": 85,
                "velocity": 64,
                "duration": 0.0886364,
                "tempo": 120.0
            },
            {
                "start_time": 10.3159091,
                "end_time": 10.4045455,
                "pitch": 85,
                "velocity": 64,
                "duration": 0.0886364,
                "tempo": 120.0
            },
            {
                "start_time": 10.4227273,
                "end_time": 10.5068182,
                "pitch": 90,
                "velocity": 64,
                "duration": 0.0840909,
                "tempo": 120.0
            },
            {
                "start_time": 10.5227273,
                "end_time": 10.6045455,
                "pitch": 85,
                "velocity": 64,
                "duration": 0.0818182,
                "tempo": 120.0
            },
            {
                "start_time": 10.6227273,
                "end_time": 10.7022727,
                "pitch": 85,
                "velocity": 64,
                "duration": 0.0795455,
                "tempo": 120.0
            },
            {
                "start_time": 10.7204545,
                "end_time": 10.8022727,
                "pitch": 92,
                "velocity": 64,
                "duration": 0.0818182,
                "tempo": 120.0
            },
            {
                "start_time": 10.8181818,
                "end_time": 10.9,
                "pitch": 85,
                "velocity": 64,
                "duration": 0.0818182,
                "tempo": 120.0
            },
            {
                "start_time": 10.9181818,
                "end_time": 11.0045455,
                "pitch": 85,
                "velocity": 64,
                "duration": 0.0863636,
                "tempo": 120.0
            },
            {
                "start_time": 11.0204545,
                "end_time": 11.1068182,
                "pitch": 90,
                "velocity": 64,
                "duration": 0.0863636,
                "tempo": 120.0
            },
            {
                "start_time": 11.1227273,
                "end_time": 11.2090909,
                "pitch": 92,
                "velocity": 64,
                "duration": 0.0863636,
                "tempo": 120.0
            },
            {
                "start_time": 11.2272727,
                "end_time": 11.3090909,
                "pitch": 85,
                "velocity": 64,
                "duration": 0.0818182,
                "tempo": 120.0
            },
            {
                "start_time": 11.3272727,
                "end_time": 11.4068182,
                "pitch": 85,
                "velocity": 64,
                "duration": 0.0795455,
                "tempo": 120.0
            },
            {
                "start_time": 11.425,
                "end_time": 11.5068182,
                "pitch": 90,
                "velocity": 64,
                "duration": 0.0818182,
                "tempo": 120.0
            },
            {
                "start_time": 11.5227273,
                "end_time": 11.6045455,
                "pitch": 85,
                "velocity": 64,
                "duration": 0.0818182,
                "tempo": 120.0
            },
            {
                "start_time": 11.6204545,
                "end_time": 11.7045455,
                "pitch": 92,
                "velocity": 64,
                "duration": 0.0840909,
                "tempo": 120.0
            },
            {
                "start_time": 11.7204545,
                "end_time": 11.8068182,
                "pitch": 85,
                "velocity": 64,
                "duration": 0.0863636,
                "tempo": 120.0
            },
            {
                "start_time": 11.8227273,
                "end_time": 11.9090909,
                "pitch": 85,
                "velocity": 64,
                "duration": 0.0863636,
                "tempo": 120.0
            },
            {
                "start_time": 11.9272727,
                "end_time": 12.0113636,
                "pitch": 85,
                "velocity": 64,
                "duration": 0.0840909,
                "tempo": 120.0
            },
            {
                "start_time": 12.0295455,
                "end_time": 12.1136364,
                "pitch": 90,
                "velocity": 64,
                "duration": 0.0840909,
                "tempo": 120.0
            },
            {
                "start_time": 12.1295455,
                "end_time": 12.2113636,
                "pitch": 85,
                "velocity": 64,
                "duration": 0.0818182,
                "tempo": 120.0
            },
            {
                "start_time": 12.2272727,
                "end_time": 12.3090909,
                "pitch": 85,
                "velocity": 64,
                "duration": 0.0818182,
                "tempo": 120.0
            },
            {
                "start_time": 12.325,
                "end_time": 12.4068182,
                "pitch": 92,
                "velocity": 64,
                "duration": 0.0818182,
                "tempo": 120.0
            },
            {
                "start_time": 12.4227273,
                "end_time": 12.5068182,
                "pitch": 85,
                "velocity": 64,
                "duration": 0.0840909,
                "tempo": 120.0
            },
            {
                "start_time": 12.5227273,
                "end_time": 12.6068182,
                "pitch": 85,
                "velocity": 64,
                "duration": 0.0840909,
                "tempo": 120.0
            },
            {
                "start_time": 12.6227273,
                "end_time": 12.7068182,
                "pitch": 90,
                "velocity": 64,
                "duration": 0.0840909,
                "tempo": 120.0
            },
            {
                "start_time": 12.725,
                "end_time": 12.8068182,
                "pitch": 92,
                "velocity": 64,
                "duration": 0.0818182,
                "tempo": 120.0
            },
            {
                "start_time": 12.825,
                "end_time": 12.9068182,
                "pitch": 85,
                "velocity": 64,
                "duration": 0.0818182,
                "tempo": 120.0
            },
            {
                "start_time": 12.9227273,
                "end_time": 13.0045455,
                "pitch": 85,
                "velocity": 64,
                "duration": 0.0818182,
                "tempo": 120.0
            },
            {
                "start_time": 13.0204545,
                "end_time": 13.1022727,
                "pitch": 90,
                "velocity": 64,
                "duration": 0.0818182,
                "tempo": 120.0
            },
            {
                "start_time": 13.1204545,
                "end_time": 13.2022727,
                "pitch": 85,
                "velocity": 64,
                "duration": 0.0818182,
                "tempo": 120.0
            },
            {
                "start_time": 13.2181818,
                "end_time": 13.3022727,
                "pitch": 92,
                "velocity": 64,
                "duration": 0.0840909,
                "tempo": 120.0
            },
            {
                "start_time": 13.3204545,
                "end_time": 13.4068182,
                "pitch": 85,
                "velocity": 64,
                "duration": 0.0863636,
                "tempo": 120.0
            },
            {
                "start_time": 13.425,
                "end_time": 13.5136364,
                "pitch": 85,
                "velocity": 64,
                "duration": 0.0886364,
                "tempo": 120.0
            },
            {
                "start_time": 13.5318182,
                "end_time": 13.6181818,
                "pitch": 85,
                "velocity": 64,
                "duration": 0.0863636,
                "tempo": 120.0
            },
            {
                "start_time": 13.6363636,
                "end_time": 13.7204545,
                "pitch": 90,
                "velocity": 64,
                "duration": 0.0840909,
                "tempo": 120.0
            },
            {
                "start_time": 13.7363636,
                "end_time": 13.8181818,
                "pitch": 85,
                "velocity": 64,
                "duration": 0.0818182,
                "tempo": 120.0
            },
            {
                "start_time": 13.8363636,
                "end_time": 13.9181818,
                "pitch": 85,
                "velocity": 64,
                "duration": 0.0818182,
                "tempo": 120.0
            },
            {
                "start_time": 13.9340909,
                "end_time": 14.0159091,
                "pitch": 92,
                "velocity": 64,
                "duration": 0.0818182,
                "tempo": 120.0
            },
            {
                "start_time": 14.0318182,
                "end_time": 14.1159091,
                "pitch": 85,
                "velocity": 64,
                "duration": 0.0840909,
                "tempo": 120.0
            },
            {
                "start_time": 14.1318182,
                "end_time": 14.2181818,
                "pitch": 85,
                "velocity": 64,
                "duration": 0.0863636,
                "tempo": 120.0
            },
            {
                "start_time": 14.2340909,
                "end_time": 14.3204545,
                "pitch": 90,
                "velocity": 64,
                "duration": 0.0863636,
                "tempo": 120.0
            },
            {
                "start_time": 14.3363636,
                "end_time": 14.4227273,
                "pitch": 92,
                "velocity": 64,
                "duration": 0.0863636,
                "tempo": 120.0
            },
            {
                "start_time": 14.4409091,
                "end_time": 14.5227273,
                "pitch": 85,
                "velocity": 64,
                "duration": 0.0818182,
                "tempo": 120.0
            },
            {
                "start_time": 14.5409091,
                "end_time": 14.6227273,
                "pitch": 85,
                "velocity": 64,
                "duration": 0.0818182,
                "tempo": 120.0
            },
            {
                "start_time": 14.6386364,
                "end_time": 14.7204545,
                "pitch": 90,
                "velocity": 64,
                "duration": 0.0818182,
                "tempo": 120.0
            },
            {
                "start_time": 14.7363636,
                "end_time": 14.8181818,
                "pitch": 85,
                "velocity": 64,
                "duration": 0.0818182,
                "tempo": 120.0
            },
            {
                "start_time": 14.8340909,
                "end_time": 14.9181818,
                "pitch": 92,
                "velocity": 64,
                "duration": 0.0840909,
                "tempo": 120.0
            },
            {
                "start_time": 14.9340909,
                "end_time": 15.0204545,
                "pitch": 85,
                "velocity": 64,
                "duration": 0.0863636,
                "tempo": 120.0
            },
            {
                "start_time": 15.0363636,
                "end_time": 15.1227273,
                "pitch": 85,
                "velocity": 64,
                "duration": 0.0863636,
                "tempo": 120.0
            },
            {
                "start_time": 15.1409091,
                "end_time": 15.225,
                "pitch": 85,
                "velocity": 64,
                "duration": 0.0840909,
                "tempo": 120.0
            },
            {
                "start_time": 15.2431818,
                "end_time": 15.3272727,
                "pitch": 90,
                "velocity": 64,
                "duration": 0.0840909,
                "tempo": 120.0
            },
            {
                "start_time": 15.3431818,
                "end_time": 15.425,
                "pitch": 85,
                "velocity": 64,
                "duration": 0.0818182,
                "tempo": 120.0
            },
            {
                "start_time": 15.4409091,
                "end_time": 15.5227273,
                "pitch": 85,
                "velocity": 64,
                "duration": 0.0818182,
                "tempo": 120.0
            },
            {
                "start_time": 15.5386364,
                "end_time": 15.6204545,
                "pitch": 92,
                "velocity": 64,
                "duration": 0.0818182,
                "tempo": 120.0
            },
            {
                "start_time": 15.6363636,
                "end_time": 15.7204545,
                "pitch": 85,
                "velocity": 64,
                "duration": 0.0840909,
                "tempo": 120.0
            },
            {
                "start_time": 15.7363636,
                "end_time": 15.8227273,
                "pitch": 85,
                "velocity": 64,
                "duration": 0.0863636,
                "tempo": 120.0
            },
            {
                "start_time": 15.8409091,
                "end_time": 15.925,
                "pitch": 90,
                "velocity": 64,
                "duration": 0.0840909,
                "tempo": 120.0
            },
            {
                "start_time": 15.9431818,
                "end_time": 16.0272727,
                "pitch": 92,
                "velocity": 64,
                "duration": 0.0840909,
                "tempo": 120.0
            },
            {
                "start_time": 16.0454545,
                "end_time": 16.1272727,
                "pitch": 85,
                "velocity": 64,
                "duration": 0.0818182,
                "tempo": 120.0
            },
            {
                "start_time": 16.1431818,
                "end_time": 16.2227273,
                "pitch": 85,
                "velocity": 64,
                "duration": 0.0795455,
                "tempo": 120.0
            },
            {
                "start_time": 16.2386364,
                "end_time": 16.3181818,
                "pitch": 90,
                "velocity": 64,
                "duration": 0.0795455,
                "tempo": 120.0
            },
            {
                "start_time": 16.3340909,
                "end_time": 16.4136364,
                "pitch": 85,
                "velocity": 64,
                "duration": 0.0795455,
                "tempo": 120.0
            },
            {
                "start_time": 16.4295455,
                "end_time": 16.5136364,
                "pitch": 92,
                "velocity": 64,
                "duration": 0.0840909,
                "tempo": 120.0
            },
            {
                "start_time": 16.5295455,
                "end_time": 16.6181818,
                "pitch": 85,
                "velocity": 64,
                "duration": 0.0886364,
                "tempo": 120.0
            },
            {
                "start_time": 16.6363636,
                "end_time": 16.725,
                "pitch": 85,
                "velocity": 64,
                "duration": 0.0886364,
                "tempo": 120.0
            },
            {
                "start_time": 16.7409091,
                "end_time": 16.8295455,
                "pitch": 85,
                "velocity": 64,
                "duration": 0.0886364,
                "tempo": 120.0
            },
            {
                "start_time": 16.8477273,
                "end_time": 16.9318182,
                "pitch": 90,
                "velocity": 64,
                "duration": 0.0840909,
                "tempo": 120.0
            },
            {
                "start_time": 16.9477273,
                "end_time": 17.0295455,
                "pitch": 85,
                "velocity": 64,
                "duration": 0.0818182,
                "tempo": 120.0
            },
            {
                "start_time": 17.0454545,
                "end_time": 17.1272727,
                "pitch": 85,
                "velocity": 64,
                "duration": 0.0818182,
                "tempo": 120.0
            },
            {
                "start_time": 17.1454545,
                "end_time": 17.225,
                "pitch": 92,
                "velocity": 64,
                "duration": 0.0795455,
                "tempo": 120.0
            },
            {
                "start_time": 17.2431818,
                "end_time": 17.325,
                "pitch": 85,
                "velocity": 64,
                "duration": 0.0818182,
                "tempo": 120.0
            },
            {
                "start_time": 17.3431818,
                "end_time": 17.4295455,
                "pitch": 85,
                "velocity": 64,
                "duration": 0.0863636,
                "tempo": 120.0
            },
            {
                "start_time": 17.4454545,
                "end_time": 17.5318182,
                "pitch": 90,
                "velocity": 64,
                "duration": 0.0863636,
                "tempo": 120.0
            },
            {
                "start_time": 17.5477273,
                "end_time": 17.6340909,
                "pitch": 92,
                "velocity": 64,
                "duration": 0.0863636,
                "tempo": 120.0
            },
            {
                "start_time": 17.65,
                "end_time": 17.7318182,
                "pitch": 85,
                "velocity": 64,
                "duration": 0.0818182,
                "tempo": 120.0
            },
            {
                "start_time": 17.7477273,
                "end_time": 17.8272727,
                "pitch": 85,
                "velocity": 64,
                "duration": 0.0795455,
                "tempo": 120.0
            },
            {
                "start_time": 17.8431818,
                "end_time": 17.925,
                "pitch": 90,
                "velocity": 64,
                "duration": 0.0818182,
                "tempo": 120.0
            },
            {
                "start_time": 17.9409091,
                "end_time": 18.0204545,
                "pitch": 85,
                "velocity": 64,
                "duration": 0.0795455,
                "tempo": 120.0
            },
            {
                "start_time": 18.0363636,
                "end_time": 18.1181818,
                "pitch": 92,
                "velocity": 64,
                "duration": 0.0818182,
                "tempo": 120.0
            },
            {
                "start_time": 18.1363636,
                "end_time": 18.225,
                "pitch": 85,
                "velocity": 64,
                "duration": 0.0886364,
                "tempo": 120.0
            },
            {
                "start_time": 18.2409091,
                "end_time": 18.3295455,
                "pitch": 85,
                "velocity": 64,
                "duration": 0.0886364,
                "tempo": 120.0
            },
            {
                "start_time": 18.3477273,
                "end_time": 18.4363636,
                "pitch": 85,
                "velocity": 64,
                "duration": 0.0886364,
                "tempo": 120.0
            },
            {
                "start_time": 18.4522727,
                "end_time": 18.5386364,
                "pitch": 90,
                "velocity": 64,
                "duration": 0.0863636,
                "tempo": 120.0
            },
            {
                "start_time": 18.5545455,
                "end_time": 18.6363636,
                "pitch": 85,
                "velocity": 64,
                "duration": 0.0818182,
                "tempo": 120.0
            },
            {
                "start_time": 18.6522727,
                "end_time": 18.7340909,
                "pitch": 85,
                "velocity": 64,
                "duration": 0.0818182,
                "tempo": 120.0
            },
            {
                "start_time": 18.75,
                "end_time": 18.8318182,
                "pitch": 92,
                "velocity": 64,
                "duration": 0.0818182,
                "tempo": 120.0
            },
            {
                "start_time": 18.8477273,
                "end_time": 18.9295455,
                "pitch": 85,
                "velocity": 64,
                "duration": 0.0818182,
                "tempo": 120.0
            },
            {
                "start_time": 18.9477273,
                "end_time": 19.0295455,
                "pitch": 85,
                "velocity": 64,
                "duration": 0.0818182,
                "tempo": 120.0
            },
            {
                "start_time": 19.0477273,
                "end_time": 19.1295455,
                "pitch": 90,
                "velocity": 64,
                "duration": 0.0818182,
                "tempo": 120.0
            },
            {
                "start_time": 19.1477273,
                "end_time": 19.2295455,
                "pitch": 92,
                "velocity": 64,
                "duration": 0.0818182,
                "tempo": 120.0
            },
            {
                "start_time": 19.2477273,
                "end_time": 19.3318182,
                "pitch": 85,
                "velocity": 64,
                "duration": 0.0840909,
                "tempo": 120.0
            },
            {
                "start_time": 19.3477273,
                "end_time": 19.4318182,
                "pitch": 85,
                "velocity": 64,
                "duration": 0.0840909,
                "tempo": 120.0
            },
            {
                "start_time": 19.4477273,
                "end_time": 19.5318182,
                "pitch": 90,
                "velocity": 64,
                "duration": 0.0840909,
                "tempo": 120.0
            },
            {
                "start_time": 19.55,
                "end_time": 19.6318182,
                "pitch": 85,
                "velocity": 64,
                "duration": 0.0818182,
                "tempo": 120.0
            },
            {
                "start_time": 19.65,
                "end_time": 19.7340909,
                "pitch": 92,
                "velocity": 64,
                "duration": 0.0840909,
                "tempo": 120.0
            },
            {
                "start_time": 19.7522727,
                "end_time": 19.8363636,
                "pitch": 85,
                "velocity": 64,
                "duration": 0.0840909,
                "tempo": 120.0
            },
            {
                "start_time": 19.8545455,
                "end_time": 19.9386364,
                "pitch": 85,
                "velocity": 64,
                "duration": 0.0840909,
                "tempo": 120.0
            },
            {
                "start_time": 19.9568182,
                "end_time": 20.0431818,
                "pitch": 85,
                "velocity": 64,
                "duration": 0.0863636,
                "tempo": 120.0
            },
            {
                "start_time": 20.0590909,
                "end_time": 20.1431818,
                "pitch": 90,
                "velocity": 64,
                "duration": 0.0840909,
                "tempo": 120.0
            },
            {
                "start_time": 20.1613636,
                "end_time": 20.2431818,
                "pitch": 85,
                "velocity": 64,
                "duration": 0.0818182,
                "tempo": 120.0
            },
            {
                "start_time": 20.2613636,
                "end_time": 20.3431818,
                "pitch": 85,
                "velocity": 64,
                "duration": 0.0818182,
                "tempo": 120.0
            },
            {
                "start_time": 20.3613636,
                "end_time": 20.4431818,
                "pitch": 92,
                "velocity": 64,
                "duration": 0.0818182,
                "tempo": 120.0
            },
            {
                "start_time": 20.4613636,
                "end_time": 20.5431818,
                "pitch": 85,
                "velocity": 64,
                "duration": 0.0818182,
                "tempo": 120.0
            },
            {
                "start_time": 20.5613636,
                "end_time": 20.6431818,
                "pitch": 85,
                "velocity": 64,
                "duration": 0.0818182,
                "tempo": 120.0
            },
            {
                "start_time": 20.6613636,
                "end_time": 20.7431818,
                "pitch": 90,
                "velocity": 64,
                "duration": 0.0818182,
                "tempo": 120.0
            },
            {
                "start_time": 20.7613636,
                "end_time": 20.8431818,
                "pitch": 92,
                "velocity": 64,
                "duration": 0.0818182,
                "tempo": 120.0
            },
            {
                "start_time": 20.8613636,
                "end_time": 20.9454545,
                "pitch": 85,
                "velocity": 64,
                "duration": 0.0840909,
                "tempo": 120.0
            },
            {
                "start_time": 20.9613636,
                "end_time": 21.0454545,
                "pitch": 85,
                "velocity": 64,
                "duration": 0.0840909,
                "tempo": 120.0
            },
            {
                "start_time": 21.0613636,
                "end_time": 21.1454545,
                "pitch": 90,
                "velocity": 64,
                "duration": 0.0840909,
                "tempo": 120.0
            },
            {
                "start_time": 21.1636364,
                "end_time": 21.2454545,
                "pitch": 85,
                "velocity": 64,
                "duration": 0.0818182,
                "tempo": 120.0
            },
            {
                "start_time": 21.2636364,
                "end_time": 21.3477273,
                "pitch": 92,
                "velocity": 64,
                "duration": 0.0840909,
                "tempo": 120.0
            },
            {
                "start_time": 21.3636364,
                "end_time": 21.4477273,
                "pitch": 85,
                "velocity": 64,
                "duration": 0.0840909,
                "tempo": 120.0
            },
            {
                "start_time": 21.4636364,
                "end_time": 21.5477273,
                "pitch": 85,
                "velocity": 64,
                "duration": 0.0840909,
                "tempo": 120.0
            },
            {
                "start_time": 21.5636364,
                "end_time": 21.6477273,
                "pitch": 85,
                "velocity": 64,
                "duration": 0.0840909,
                "tempo": 120.0
            },
            {
                "start_time": 21.6636364,
                "end_time": 21.7454545,
                "pitch": 90,
                "velocity": 64,
                "duration": 0.0818182,
                "tempo": 120.0
            },
            {
                "start_time": 21.7613636,
                "end_time": 21.8431818,
                "pitch": 85,
                "velocity": 64,
                "duration": 0.0818182,
                "tempo": 120.0
            },
            {
                "start_time": 21.8613636,
                "end_time": 21.9431818,
                "pitch": 85,
                "velocity": 64,
                "duration": 0.0818182,
                "tempo": 120.0
            },
            {
                "start_time": 21.9590909,
                "end_time": 22.0409091,
                "pitch": 92,
                "velocity": 64,
                "duration": 0.0818182,
                "tempo": 120.0
            },
            {
                "start_time": 22.0568182,
                "end_time": 22.1409091,
                "pitch": 85,
                "velocity": 64,
                "duration": 0.0840909,
                "tempo": 120.0
            },
            {
                "start_time": 22.1568182,
                "end_time": 22.2431818,
                "pitch": 85,
                "velocity": 64,
                "duration": 0.0863636,
                "tempo": 120.0
            },
            {
                "start_time": 22.2590909,
                "end_time": 22.3454545,
                "pitch": 90,
                "velocity": 64,
                "duration": 0.0863636,
                "tempo": 120.0
            },
            {
                "start_time": 22.3613636,
                "end_time": 22.4477273,
                "pitch": 92,
                "velocity": 64,
                "duration": 0.0863636,
                "tempo": 120.0
            },
            {
                "start_time": 22.4659091,
                "end_time": 22.5477273,
                "pitch": 85,
                "velocity": 64,
                "duration": 0.0818182,
                "tempo": 120.0
            },
            {
                "start_time": 22.5636364,
                "end_time": 22.6431818,
                "pitch": 85,
                "velocity": 64,
                "duration": 0.0795455,
                "tempo": 120.0
            },
            {
                "start_time": 22.6590909,
                "end_time": 22.7386364,
                "pitch": 90,
                "velocity": 64,
                "duration": 0.0795455,
                "tempo": 120.0
            },
            {
                "start_time": 22.7545455,
                "end_time": 22.8340909,
                "pitch": 85,
                "velocity": 64,
                "duration": 0.0795455,
                "tempo": 120.0
            },
            {
                "start_time": 22.85,
                "end_time": 22.9318182,
                "pitch": 92,
                "velocity": 64,
                "duration": 0.0818182,
                "tempo": 120.0
            },
            {
                "start_time": 22.95,
                "end_time": 23.0386364,
                "pitch": 85,
                "velocity": 64,
                "duration": 0.0886364,
                "tempo": 120.0
            },
            {
                "start_time": 23.0568182,
                "end_time": 23.1431818,
                "pitch": 85,
                "velocity": 64,
                "duration": 0.0863636,
                "tempo": 120.0
            },
            {
                "start_time": 23.1613636,
                "end_time": 23.25,
                "pitch": 85,
                "velocity": 64,
                "duration": 0.0886364,
                "tempo": 120.0
            },
            {
                "start_time": 23.2659091,
                "end_time": 23.3522727,
                "pitch": 90,
                "velocity": 64,
                "duration": 0.0863636,
                "tempo": 120.0
            },
            {
                "start_time": 23.3681818,
                "end_time": 23.45,
                "pitch": 85,
                "velocity": 64,
                "duration": 0.0818182,
                "tempo": 120.0
            },
            {
                "start_time": 23.4659091,
                "end_time": 23.5477273,
                "pitch": 85,
                "velocity": 64,
                "duration": 0.0818182,
                "tempo": 120.0
            },
            {
                "start_time": 23.5636364,
                "end_time": 23.6454545,
                "pitch": 92,
                "velocity": 64,
                "duration": 0.0818182,
                "tempo": 120.0
            },
            {
                "start_time": 23.6613636,
                "end_time": 23.7454545,
                "pitch": 85,
                "velocity": 64,
                "duration": 0.0840909,
                "tempo": 120.0
            },
            {
                "start_time": 23.7636364,
                "end_time": 23.8477273,
                "pitch": 85,
                "velocity": 64,
                "duration": 0.0840909,
                "tempo": 120.0
            },
            {
                "start_time": 23.8659091,
                "end_time": 23.95,
                "pitch": 90,
                "velocity": 64,
                "duration": 0.0840909,
                "tempo": 120.0
            },
            {
                "start_time": 23.9681818,
                "end_time": 24.0545455,
                "pitch": 92,
                "velocity": 64,
                "duration": 0.0863636,
                "tempo": 120.0
            },
            {
                "start_time": 24.0704545,
                "end_time": 24.1545455,
                "pitch": 85,
                "velocity": 64,
                "duration": 0.0840909,
                "tempo": 120.0
            },
            {
                "start_time": 24.1727273,
                "end_time": 24.2545455,
                "pitch": 85,
                "velocity": 64,
                "duration": 0.0818182,
                "tempo": 120.0
            },
            {
                "start_time": 24.2727273,
                "end_time": 24.3545455,
                "pitch": 90,
                "velocity": 64,
                "duration": 0.0818182,
                "tempo": 120.0
            },
            {
                "start_time": 24.3727273,
                "end_time": 24.4545455,
                "pitch": 85,
                "velocity": 64,
                "duration": 0.0818182,
                "tempo": 120.0
            },
            {
                "start_time": 24.4727273,
                "end_time": 24.5545455,
                "pitch": 92,
                "velocity": 64,
                "duration": 0.0818182,
                "tempo": 120.0
            },
            {
                "start_time": 24.5727273,
                "end_time": 24.6545455,
                "pitch": 85,
                "velocity": 64,
                "duration": 0.0818182,
                "tempo": 120.0
            },
            {
                "start_time": 24.6727273,
                "end_time": 24.7545455,
                "pitch": 85,
                "velocity": 64,
                "duration": 0.0818182,
                "tempo": 120.0
            },
            {
                "start_time": 24.7727273,
                "end_time": 24.8545455,
                "pitch": 85,
                "velocity": 64,
                "duration": 0.0818182,
                "tempo": 120.0
            },
            {
                "start_time": 24.8727273,
                "end_time": 24.9545455,
                "pitch": 90,
                "velocity": 64,
                "duration": 0.0818182,
                "tempo": 120.0
            },
            {
                "start_time": 24.9704545,
                "end_time": 25.0522727,
                "pitch": 85,
                "velocity": 64,
                "duration": 0.0818182,
                "tempo": 120.0
            },
            {
                "start_time": 25.0681818,
                "end_time": 25.15,
                "pitch": 85,
                "velocity": 64,
                "duration": 0.0818182,
                "tempo": 120.0
            },
            {
                "start_time": 25.1681818,
                "end_time": 25.2477273,
                "pitch": 92,
                "velocity": 64,
                "duration": 0.0795455,
                "tempo": 120.0
            },
            {
                "start_time": 25.2659091,
                "end_time": 25.3477273,
                "pitch": 85,
                "velocity": 64,
                "duration": 0.0818182,
                "tempo": 120.0
            },
            {
                "start_time": 25.3636364,
                "end_time": 25.4454545,
                "pitch": 85,
                "velocity": 64,
                "duration": 0.0818182,
                "tempo": 120.0
            },
            {
                "start_time": 25.4613636,
                "end_time": 25.5431818,
                "pitch": 90,
                "velocity": 64,
                "duration": 0.0818182,
                "tempo": 120.0
            },
            {
                "start_time": 25.5590909,
                "end_time": 25.7409091,
                "pitch": 92,
                "velocity": 64,
                "duration": 0.1818182,
                "tempo": 120.0
            },
            {
                "start_time": 25.7590909,
                "end_time": 25.8431818,
                "pitch": 84,
                "velocity": 64,
                "duration": 0.0840909,
                "tempo": 120.0
            },
            {
                "start_time": 25.8613636,
                "end_time": 25.9454545,
                "pitch": 80,
                "velocity": 64,
                "duration": 0.0840909,
                "tempo": 120.0
            },
            {
                "start_time": 25.9636364,
                "end_time": 26.05,
                "pitch": 85,
                "velocity": 64,
                "duration": 0.0863636,
                "tempo": 120.0
            },
            {
                "start_time": 26.0659091,
                "end_time": 26.1522727,
                "pitch": 84,
                "velocity": 64,
                "duration": 0.0863636,
                "tempo": 120.0
            },
            {
                "start_time": 26.1681818,
                "end_time": 26.2545455,
                "pitch": 80,
                "velocity": 64,
                "duration": 0.0863636,
                "tempo": 120.0
            },
            {
                "start_time": 26.2727273,
                "end_time": 26.4590909,
                "pitch": 87,
                "velocity": 64,
                "duration": 0.1863636,
                "tempo": 120.0
            },
            {
                "start_time": 26.4772727,
                "end_time": 26.5590909,
                "pitch": 85,
                "velocity": 64,
                "duration": 0.0818182,
                "tempo": 120.0
            },
            {
                "start_time": 26.575,
                "end_time": 26.6545455,
                "pitch": 85,
                "velocity": 64,
                "duration": 0.0795455,
                "tempo": 120.0
            },
            {
                "start_time": 27.2795455,
                "end_time": 27.3659091,
                "pitch": 73,
                "velocity": 64,
                "duration": 0.0863636,
                "tempo": 120.0
            },
            {
                "start_time": 27.3818182,
                "end_time": 27.4659091,
                "pitch": 72,
                "velocity": 64,
                "duration": 0.0840909,
                "tempo": 120.0
            },
            {
                "start_time": 27.4818182,
                "end_time": 27.5659091,
                "pitch": 70,
                "velocity": 64,
                "duration": 0.0840909,
                "tempo": 120.0
            },
            {
                "start_time": 27.5818182,
                "end_time": 27.6659091,
                "pitch": 73,
                "velocity": 64,
                "duration": 0.0840909,
                "tempo": 120.0
            },
            {
                "start_time": 27.6818182,
                "end_time": 27.7659091,
                "pitch": 72,
                "velocity": 64,
                "duration": 0.0840909,
                "tempo": 120.0
            },
            {
                "start_time": 27.7818182,
                "end_time": 27.8659091,
                "pitch": 70,
                "velocity": 64,
                "duration": 0.0840909,
                "tempo": 120.0
            },
            {
                "start_time": 27.8840909,
                "end_time": 28.0681818,
                "pitch": 75,
                "velocity": 64,
                "duration": 0.1840909,
                "tempo": 120.0
            },
            {
                "start_time": 28.0840909,
                "end_time": 28.1681818,
                "pitch": 73,
                "velocity": 64,
                "duration": 0.0840909,
                "tempo": 120.0
            },
            {
                "start_time": 28.1840909,
                "end_time": 28.2681818,
                "pitch": 72,
                "velocity": 64,
                "duration": 0.0840909,
                "tempo": 120.0
            },
            {
                "start_time": 28.2840909,
                "end_time": 28.3681818,
                "pitch": 70,
                "velocity": 64,
                "duration": 0.0840909,
                "tempo": 120.0
            },
            {
                "start_time": 28.3840909,
                "end_time": 28.4681818,
                "pitch": 73,
                "velocity": 64,
                "duration": 0.0840909,
                "tempo": 120.0
            },
            {
                "start_time": 28.4840909,
                "end_time": 28.5681818,
                "pitch": 72,
                "velocity": 64,
                "duration": 0.0840909,
                "tempo": 120.0
            },
            {
                "start_time": 28.5840909,
                "end_time": 28.6681818,
                "pitch": 70,
                "velocity": 64,
                "duration": 0.0840909,
                "tempo": 120.0
            },
            {
                "start_time": 28.6840909,
                "end_time": 28.8681818,
                "pitch": 68,
                "velocity": 64,
                "duration": 0.1840909,
                "tempo": 120.0
            },
            {
                "start_time": 28.8840909,
                "end_time": 28.9681818,
                "pitch": 73,
                "velocity": 64,
                "duration": 0.0840909,
                "tempo": 120.0
            },
            {
                "start_time": 28.9840909,
                "end_time": 29.0681818,
                "pitch": 72,
                "velocity": 64,
                "duration": 0.0840909,
                "tempo": 120.0
            },
            {
                "start_time": 29.0863636,
                "end_time": 29.1704545,
                "pitch": 70,
                "velocity": 64,
                "duration": 0.0840909,
                "tempo": 120.0
            },
            {
                "start_time": 29.1863636,
                "end_time": 29.2704545,
                "pitch": 73,
                "velocity": 64,
                "duration": 0.0840909,
                "tempo": 120.0
            },
            {
                "start_time": 29.2863636,
                "end_time": 29.3704545,
                "pitch": 72,
                "velocity": 64,
                "duration": 0.0840909,
                "tempo": 120.0
            },
            {
                "start_time": 29.3863636,
                "end_time": 29.4704545,
                "pitch": 70,
                "velocity": 64,
                "duration": 0.0840909,
                "tempo": 120.0
            },
            {
                "start_time": 29.4863636,
                "end_time": 29.6704545,
                "pitch": 75,
                "velocity": 64,
                "duration": 0.1840909,
                "tempo": 120.0
            },
            {
                "start_time": 29.6863636,
                "end_time": 29.7704545,
                "pitch": 82,
                "velocity": 64,
                "duration": 0.0840909,
                "tempo": 120.0
            },
            {
                "start_time": 29.7886364,
                "end_time": 29.8704545,
                "pitch": 80,
                "velocity": 64,
                "duration": 0.0818182,
                "tempo": 120.0
            },
            {
                "start_time": 29.8886364,
                "end_time": 29.9727273,
                "pitch": 78,
                "velocity": 64,
                "duration": 0.0840909,
                "tempo": 120.0
            },
            {
                "start_time": 29.9886364,
                "end_time": 30.0727273,
                "pitch": 80,
                "velocity": 64,
                "duration": 0.0840909,
                "tempo": 120.0
            },
            {
                "start_time": 30.0886364,
                "end_time": 30.1727273,
                "pitch": 78,
                "velocity": 64,
                "duration": 0.0840909,
                "tempo": 120.0
            },
            {
                "start_time": 30.1909091,
                "end_time": 30.2727273,
                "pitch": 76,
                "velocity": 64,
                "duration": 0.0818182,
                "tempo": 120.0
            },
            {
                "start_time": 30.2909091,
                "end_time": 30.4727273,
                "pitch": 75,
                "velocity": 64,
                "duration": 0.1818182,
                "tempo": 120.0
            },
            {
                "start_time": 30.4909091,
                "end_time": 30.5727273,
                "pitch": 73,
                "velocity": 64,
                "duration": 0.0818182,
                "tempo": 120.0
            },
            {
                "start_time": 30.5886364,
                "end_time": 30.6704545,
                "pitch": 72,
                "velocity": 64,
                "duration": 0.0818182,
                "tempo": 120.0
            },
            {
                "start_time": 30.6863636,
                "end_time": 30.7681818,
                "pitch": 70,
                "velocity": 64,
                "duration": 0.0818182,
                "tempo": 120.0
            },
            {
                "start_time": 30.7840909,
                "end_time": 30.8659091,
                "pitch": 73,
                "velocity": 64,
                "duration": 0.0818182,
                "tempo": 120.0
            },
            {
                "start_time": 30.8840909,
                "end_time": 30.9659091,
                "pitch": 72,
                "velocity": 64,
                "duration": 0.0818182,
                "tempo": 120.0
            },
            {
                "start_time": 30.9840909,
                "end_time": 31.0681818,
                "pitch": 70,
                "velocity": 64,
                "duration": 0.0840909,
                "tempo": 120.0
            },
            {
                "start_time": 31.0863636,
                "end_time": 31.275,
                "pitch": 75,
                "velocity": 64,
                "duration": 0.1886364,
                "tempo": 120.0
            },
            {
                "start_time": 31.2909091,
                "end_time": 31.3772727,
                "pitch": 73,
                "velocity": 64,
                "duration": 0.0863636,
                "tempo": 120.0
            },
            {
                "start_time": 31.3931818,
                "end_time": 31.4772727,
                "pitch": 72,
                "velocity": 64,
                "duration": 0.0840909,
                "tempo": 120.0
            },
            {
                "start_time": 31.4931818,
                "end_time": 31.5772727,
                "pitch": 70,
                "velocity": 64,
                "duration": 0.0840909,
                "tempo": 120.0
            },
            {
                "start_time": 31.5931818,
                "end_time": 31.6772727,
                "pitch": 73,
                "velocity": 64,
                "duration": 0.0840909,
                "tempo": 120.0
            },
            {
                "start_time": 31.6931818,
                "end_time": 31.7772727,
                "pitch": 72,
                "velocity": 64,
                "duration": 0.0840909,
                "tempo": 120.0
            },
            {
                "start_time": 31.7931818,
                "end_time": 31.8772727,
                "pitch": 70,
                "velocity": 64,
                "duration": 0.0840909,
                "tempo": 120.0
            },
            {
                "start_time": 31.8931818,
                "end_time": 32.0795455,
                "pitch": 68,
                "velocity": 64,
                "duration": 0.1863636,
                "tempo": 120.0
            },
            {
                "start_time": 32.0954545,
                "end_time": 32.1772727,
                "pitch": 73,
                "velocity": 64,
                "duration": 0.0818182,
                "tempo": 120.0
            },
            {
                "start_time": 32.1954545,
                "end_time": 32.275,
                "pitch": 72,
                "velocity": 64,
                "duration": 0.0795455,
                "tempo": 120.0
            },
            {
                "start_time": 32.2931818,
                "end_time": 32.375,
                "pitch": 70,
                "velocity": 64,
                "duration": 0.0818182,
                "tempo": 120.0
            },
            {
                "start_time": 32.3909091,
                "end_time": 32.4727273,
                "pitch": 73,
                "velocity": 64,
                "duration": 0.0818182,
                "tempo": 120.0
            },
            {
                "start_time": 32.4886364,
                "end_time": 32.5727273,
                "pitch": 72,
                "velocity": 64,
                "duration": 0.0840909,
                "tempo": 120.0
            },
            {
                "start_time": 32.5886364,
                "end_time": 32.675,
                "pitch": 70,
                "velocity": 64,
                "duration": 0.0863636,
                "tempo": 120.0
            },
            {
                "start_time": 32.6909091,
                "end_time": 32.8795455,
                "pitch": 75,
                "velocity": 64,
                "duration": 0.1886364,
                "tempo": 120.0
            },
            {
                "start_time": 32.8977273,
                "end_time": 32.9818182,
                "pitch": 82,
                "velocity": 64,
                "duration": 0.0840909,
                "tempo": 120.0
            },
            {
                "start_time": 32.9977273,
                "end_time": 33.0818182,
                "pitch": 80,
                "velocity": 64,
                "duration": 0.0840909,
                "tempo": 120.0
            },
            {
                "start_time": 33.0977273,
                "end_time": 33.1818182,
                "pitch": 78,
                "velocity": 64,
                "duration": 0.0840909,
                "tempo": 120.0
            },
            {
                "start_time": 33.1977273,
                "end_time": 33.2818182,
                "pitch": 80,
                "velocity": 64,
                "duration": 0.0840909,
                "tempo": 120.0
            },
            {
                "start_time": 33.2977273,
                "end_time": 33.3818182,
                "pitch": 78,
                "velocity": 64,
                "duration": 0.0840909,
                "tempo": 120.0
            },
            {
                "start_time": 33.3977273,
                "end_time": 33.4818182,
                "pitch": 76,
                "velocity": 64,
                "duration": 0.0840909,
                "tempo": 120.0
            },
            {
                "start_time": 33.5,
                "end_time": 33.7181818,
                "pitch": 75,
                "velocity": 64,
                "duration": 0.2181818,
                "tempo": 120.0
            },
            {
                "start_time": 33.7340909,
                "end_time": 33.7840909,
                "pitch": 75,
                "velocity": 64,
                "duration": 0.05,
                "tempo": 120.0
            },
            {
                "start_time": 33.8022727,
                "end_time": 33.8840909,
                "pitch": 78,
                "velocity": 64,
                "duration": 0.0818182,
                "tempo": 120.0
            },
            {
                "start_time": 33.9022727,
                "end_time": 33.9840909,
                "pitch": 75,
                "velocity": 64,
                "duration": 0.0818182,
                "tempo": 120.0
            },
            {
                "start_time": 34.0022727,
                "end_time": 34.0840909,
                "pitch": 79,
                "velocity": 64,
                "duration": 0.0818182,
                "tempo": 120.0
            },
            {
                "start_time": 34.1022727,
                "end_time": 34.1840909,
                "pitch": 75,
                "velocity": 64,
                "duration": 0.0818182,
                "tempo": 120.0
            },
            {
                "start_time": 34.2022727,
                "end_time": 34.2840909,
                "pitch": 78,
                "velocity": 64,
                "duration": 0.0818182,
                "tempo": 120.0
            },
            {
                "start_time": 34.3022727,
                "end_time": 34.3840909,
                "pitch": 83,
                "velocity": 64,
                "duration": 0.0818182,
                "tempo": 120.0
            },
            {
                "start_time": 34.4022727,
                "end_time": 34.4840909,
                "pitch": 82,
                "velocity": 64,
                "duration": 0.0818182,
                "tempo": 120.0
            },
            {
                "start_time": 34.5022727,
                "end_time": 34.5840909,
                "pitch": 75,
                "velocity": 64,
                "duration": 0.0818182,
                "tempo": 120.0
            },
            {
                "start_time": 34.6022727,
                "end_time": 34.6840909,
                "pitch": 78,
                "velocity": 64,
                "duration": 0.0818182,
                "tempo": 120.0
            },
            {
                "start_time": 34.7022727,
                "end_time": 34.7840909,
                "pitch": 75,
                "velocity": 64,
                "duration": 0.0818182,
                "tempo": 120.0
            },
            {
                "start_time": 34.8022727,
                "end_time": 34.8840909,
                "pitch": 79,
                "velocity": 64,
                "duration": 0.0818182,
                "tempo": 120.0
            },
            {
                "start_time": 34.9022727,
                "end_time": 34.9795455,
                "pitch": 75,
                "velocity": 64,
                "duration": 0.0772727,
                "tempo": 120.0
            },
            {
                "start_time": 34.9954545,
                "end_time": 35.0727273,
                "pitch": 78,
                "velocity": 64,
                "duration": 0.0772727,
                "tempo": 120.0
            },
            {
                "start_time": 35.0886364,
                "end_time": 35.1659091,
                "pitch": 83,
                "velocity": 64,
                "duration": 0.0772727,
                "tempo": 120.0
            },
            {
                "start_time": 35.1795455,
                "end_time": 35.2568182,
                "pitch": 82,
                "velocity": 64,
                "duration": 0.0772727,
                "tempo": 120.0
            },
            {
                "start_time": 35.2727273,
                "end_time": 35.3545455,
                "pitch": 75,
                "velocity": 64,
                "duration": 0.0818182,
                "tempo": 120.0
            },
            {
                "start_time": 35.3704545,
                "end_time": 35.4522727,
                "pitch": 78,
                "velocity": 64,
                "duration": 0.0818182,
                "tempo": 120.0
            },
            {
                "start_time": 35.4681818,
                "end_time": 35.55,
                "pitch": 75,
                "velocity": 64,
                "duration": 0.0818182,
                "tempo": 120.0
            },
            {
                "start_time": 35.5659091,
                "end_time": 35.6477273,
                "pitch": 79,
                "velocity": 64,
                "duration": 0.0818182,
                "tempo": 120.0
            },
            {
                "start_time": 35.6636364,
                "end_time": 35.75,
                "pitch": 75,
                "velocity": 64,
                "duration": 0.0863636,
                "tempo": 120.0
            },
            {
                "start_time": 35.7659091,
                "end_time": 35.8522727,
                "pitch": 78,
                "velocity": 64,
                "duration": 0.0863636,
                "tempo": 120.0
            },
            {
                "start_time": 35.8681818,
                "end_time": 35.9545455,
                "pitch": 83,
                "velocity": 64,
                "duration": 0.0863636,
                "tempo": 120.0
            },
            {
                "start_time": 35.9727273,
                "end_time": 36.0568182,
                "pitch": 82,
                "velocity": 64,
                "duration": 0.0840909,
                "tempo": 120.0
            },
            {
                "start_time": 36.075,
                "end_time": 36.1568182,
                "pitch": 75,
                "velocity": 64,
                "duration": 0.0818182,
                "tempo": 120.0
            },
            {
                "start_time": 36.1727273,
                "end_time": 36.2545455,
                "pitch": 78,
                "velocity": 64,
                "duration": 0.0818182,
                "tempo": 120.0
            },
            {
                "start_time": 36.2704545,
                "end_time": 36.3522727,
                "pitch": 75,
                "velocity": 64,
                "duration": 0.0818182,
                "tempo": 120.0
            },
            {
                "start_time": 36.3681818,
                "end_time": 36.45,
                "pitch": 79,
                "velocity": 64,
                "duration": 0.0818182,
                "tempo": 120.0
            },
            {
                "start_time": 36.4681818,
                "end_time": 36.5522727,
                "pitch": 75,
                "velocity": 64,
                "duration": 0.0840909,
                "tempo": 120.0
            },
            {
                "start_time": 36.5681818,
                "end_time": 36.6545455,
                "pitch": 78,
                "velocity": 64,
                "duration": 0.0863636,
                "tempo": 120.0
            },
            {
                "start_time": 36.6727273,
                "end_time": 36.7568182,
                "pitch": 83,
                "velocity": 64,
                "duration": 0.0840909,
                "tempo": 120.0
            },
            {
                "start_time": 36.775,
                "end_time": 36.8590909,
                "pitch": 82,
                "velocity": 64,
                "duration": 0.0840909,
                "tempo": 120.0
            },
            {
                "start_time": 36.8772727,
                "end_time": 36.9590909,
                "pitch": 75,
                "velocity": 64,
                "duration": 0.0818182,
                "tempo": 120.0
            },
            {
                "start_time": 36.975,
                "end_time": 37.0568182,
                "pitch": 78,
                "velocity": 64,
                "duration": 0.0818182,
                "tempo": 120.0
            },
            {
                "start_time": 37.0727273,
                "end_time": 37.1545455,
                "pitch": 75,
                "velocity": 64,
                "duration": 0.0818182,
                "tempo": 120.0
            },
            {
                "start_time": 37.1727273,
                "end_time": 37.2545455,
                "pitch": 79,
                "velocity": 64,
                "duration": 0.0818182,
                "tempo": 120.0
            },
            {
                "start_time": 37.2704545,
                "end_time": 37.3545455,
                "pitch": 75,
                "velocity": 64,
                "duration": 0.0840909,
                "tempo": 120.0
            },
            {
                "start_time": 37.3727273,
                "end_time": 37.4568182,
                "pitch": 78,
                "velocity": 64,
                "duration": 0.0840909,
                "tempo": 120.0
            },
            {
                "start_time": 37.475,
                "end_time": 37.5590909,
                "pitch": 83,
                "velocity": 64,
                "duration": 0.0840909,
                "tempo": 120.0
            },
            {
                "start_time": 37.5772727,
                "end_time": 37.6636364,
                "pitch": 82,
                "velocity": 64,
                "duration": 0.0863636,
                "tempo": 120.0
            },
            {
                "start_time": 37.6795455,
                "end_time": 37.7636364,
                "pitch": 75,
                "velocity": 64,
                "duration": 0.0840909,
                "tempo": 120.0
            },
            {
                "start_time": 37.7795455,
                "end_time": 37.8636364,
                "pitch": 78,
                "velocity": 64,
                "duration": 0.0840909,
                "tempo": 120.0
            },
            {
                "start_time": 37.8795455,
                "end_time": 37.9636364,
                "pitch": 75,
                "velocity": 64,
                "duration": 0.0840909,
                "tempo": 120.0
            },
            {
                "start_time": 37.9795455,
                "end_time": 38.0636364,
                "pitch": 79,
                "velocity": 64,
                "duration": 0.0840909,
                "tempo": 120.0
            },
            {
                "start_time": 38.0795455,
                "end_time": 38.1636364,
                "pitch": 75,
                "velocity": 64,
                "duration": 0.0840909,
                "tempo": 120.0
            },
            {
                "start_time": 38.1795455,
                "end_time": 38.2636364,
                "pitch": 78,
                "velocity": 64,
                "duration": 0.0840909,
                "tempo": 120.0
            },
            {
                "start_time": 38.2795455,
                "end_time": 38.3636364,
                "pitch": 83,
                "velocity": 64,
                "duration": 0.0840909,
                "tempo": 120.0
            },
            {
                "start_time": 38.3795455,
                "end_time": 38.4636364,
                "pitch": 82,
                "velocity": 64,
                "duration": 0.0840909,
                "tempo": 120.0
            },
            {
                "start_time": 38.4795455,
                "end_time": 38.5613636,
                "pitch": 75,
                "velocity": 64,
                "duration": 0.0818182,
                "tempo": 120.0
            },
            {
                "start_time": 38.5795455,
                "end_time": 38.6613636,
                "pitch": 78,
                "velocity": 64,
                "duration": 0.0818182,
                "tempo": 120.0
            },
            {
                "start_time": 38.6772727,
                "end_time": 38.7590909,
                "pitch": 75,
                "velocity": 64,
                "duration": 0.0818182,
                "tempo": 120.0
            },
            {
                "start_time": 38.775,
                "end_time": 38.8568182,
                "pitch": 79,
                "velocity": 64,
                "duration": 0.0818182,
                "tempo": 120.0
            },
            {
                "start_time": 38.8727273,
                "end_time": 38.9568182,
                "pitch": 75,
                "velocity": 64,
                "duration": 0.0840909,
                "tempo": 120.0
            },
            {
                "start_time": 38.975,
                "end_time": 39.0613636,
                "pitch": 78,
                "velocity": 64,
                "duration": 0.0863636,
                "tempo": 120.0
            },
            {
                "start_time": 39.0772727,
                "end_time": 39.1636364,
                "pitch": 83,
                "velocity": 64,
                "duration": 0.0863636,
                "tempo": 120.0
            },
            {
                "start_time": 39.1795455,
                "end_time": 39.2659091,
                "pitch": 82,
                "velocity": 64,
                "duration": 0.0863636,
                "tempo": 120.0
            },
            {
                "start_time": 39.2818182,
                "end_time": 39.3659091,
                "pitch": 75,
                "velocity": 64,
                "duration": 0.0840909,
                "tempo": 120.0
            },
            {
                "start_time": 39.3840909,
                "end_time": 39.4659091,
                "pitch": 78,
                "velocity": 64,
                "duration": 0.0818182,
                "tempo": 120.0
            },
            {
                "start_time": 39.4840909,
                "end_time": 39.5659091,
                "pitch": 75,
                "velocity": 64,
                "duration": 0.0818182,
                "tempo": 120.0
            },
            {
                "start_time": 39.5840909,
                "end_time": 39.6659091,
                "pitch": 79,
                "velocity": 64,
                "duration": 0.0818182,
                "tempo": 120.0
            },
            {
                "start_time": 39.6840909,
                "end_time": 39.7659091,
                "pitch": 75,
                "velocity": 64,
                "duration": 0.0818182,
                "tempo": 120.0
            },
            {
                "start_time": 39.7840909,
                "end_time": 39.8659091,
                "pitch": 78,
                "velocity": 64,
                "duration": 0.0818182,
                "tempo": 120.0
            },
            {
                "start_time": 39.8840909,
                "end_time": 39.9659091,
                "pitch": 83,
                "velocity": 64,
                "duration": 0.0818182,
                "tempo": 120.0
            },
            {
                "start_time": 39.9840909,
                "end_time": 40.0659091,
                "pitch": 82,
                "velocity": 64,
                "duration": 0.0818182,
                "tempo": 120.0
            },
            {
                "start_time": 40.0840909,
                "end_time": 40.1204545,
                "pitch": 85,
                "velocity": 64,
                "duration": 0.0363636,
                "tempo": 120.0
            }
        ]
    }
}