{
    "mood": "happy",
    "instruments": {
        "Electric Guitar (clean)": [
            {
                "start_time": 0.0,
                "end_time": 0.3659091,
                "pitch": 60,
                "velocity": 64,
                "duration": 0.3659091,
                "tempo": 120.0
            },
            {
                "start_time": 0.3840909,
                "end_time": 0.5659091,
                "pitch": 64,
                "velocity": 64,
                "duration": 0.1818182,
                "tempo": 120.0
            },
            {
                "start_time": 0.5840909,
                "end_time": 0.9659091,
                "pitch": 67,
                "velocity": 64,
                "duration": 0.3818182,
                "tempo": 120.0
            },
            {
                "start_time": 0.9840909,
                "end_time": 1.3772727,
                "pitch": 70,
                "velocity": 64,
                "duration": 0.3931818,
                "tempo": 120.0
            },
            {
                "start_time": 1.3931818,
                "end_time": 1.5772727,
                "pitch": 69,
                "velocity": 64,
                "duration": 0.1840909,
                "tempo": 120.0
            },
            {
                "start_time": 1.5931818,
                "end_time": 1.9795455,
                "pitch": 67,
                "velocity": 64,
                "duration": 0.3863636,
                "tempo": 120.0
            },
            {
                "start_time": 1.9954545,
                "end_time": 2.1795455,
                "pitch": 64,
                "velocity": 64,
                "duration": 0.1840909,
                "tempo": 120.0
            },
            {
                "start_time": 2.1977273,
                "end_time": 2.5795455,
                "pitch": 60,
                "velocity": 64,
                "duration": 0.3818182,
                "tempo": 120.0
            },
            {
                "start_time": 2.5977273,
                "end_time": 2.9795455,
                "pitch": 58,
                "velocity": 64,
                "duration": 0.3818182,
                "tempo": 120.0
            },
            {
                "start_time": 2.9977273,
                "end_time": 3.1818182,
                "pitch": 59,
                "velocity": 64,
                "duration": 0.1840909,
                "tempo": 120.0
            },
            {
                "start_time": 3.1977273,
                "end_time": 4.1840909,
                "pitch": 60,
                "velocity": 64,
                "duration": 0.9863636,
                "tempo": 120.0
            },
            {
                "start_time": 4.2022727,
                "end_time": 4.5772727,
                "pitch": 64,
                "velocity": 64,
                "duration": 0.375,
                "tempo": 120.0
            },
            {
                "start_time": 4.5954545,
                "end_time": 4.7795455,
                "pitch": 62,
                "velocity": 64,
                "duration": 0.1840909,
                "tempo": 120.0
            },
            {
                "start_time": 4.7954545,
                "end_time": 5.1818182,
                "pitch": 60,
                "velocity": 64,
                "duration": 0.3863636,
                "tempo": 120.0
            },
            {
                "start_time": 5.1977273,
                "end_time": 5.3840909,
                "pitch": 58,
                "velocity": 64,
                "duration": 0.1863636,
                "tempo": 120.0
            },
            {
                "start_time": 5.4,
                "end_time": 5.5840909,
                "pitch": 59,
                "velocity": 64,
                "duration": 0.1840909,
                "tempo": 120.0
            },
            {
                "start_time": 5.6,
                "end_time": 6.3863636,
                "pitch": 60,
                "velocity": 64,
                "duration": 0.7863636,
                "tempo": 120.0
            },
            {
                "start_time": 6.4022727,
                "end_time": 6.7863636,
                "pitch": 60,
                "velocity": 64,
                "duration": 0.3840909,
                "tempo": 120.0
            },
            {
                "start_time": 6.8045455,
                "end_time": 6.9886364,
                "pitch": 64,
                "velocity": 64,
                "duration": 0.1840909,
                "tempo": 120.0
            },
            {
                "start_time": 7.0045455,
                "end_time": 7.3977273,
                "pitch": 67,
                "velocity": 64,
                "duration": 0.3931818,
                "tempo": 120.0
            },
            {
                "start_time": 7.4159091,
                "end_time": 7.8,
                "pitch": 70,
                "velocity": 64,
                "duration": 0.3840909,
                "tempo": 120.0
            },
            {
                "start_time": 7.8159091,
                "end_time": 7.9954545,
                "pitch": 69,
                "velocity": 64,
                "duration": 0.1795455,
                "tempo": 120.0
            },
            {
                "start_time": 8.0113636,
                "end_time": 8.3909091,
                "pitch": 67,
                "velocity": 64,
                "duration": 0.3795455,
                "tempo": 120.0
            },
            {
                "start_time": 8.4090909,
                "end_time": 8.5909091,
                "pitch": 64,
                "velocity": 64,
                "duration": 0.1818182,
                "tempo": 120.0
            },
            {
                "start_time": 8.6090909,
                "end_time": 9.0022727,
                "pitch": 60,
                "velocity": 64,
                "duration": 0.3931818,
                "tempo": 120.0
            },
            {
                "start_time": 9.0181818,
                "end_time": 9.3954545,
                "pitch": 76,
                "velocity": 64,
                "duration": 0.3772727,
                "tempo": 120.0
            },
            {
                "start_time": 9.4113636,
                "end_time": 9.5954545,
                "pitch": 74,
                "velocity": 64,
                "duration": 0.1840909,
                "tempo": 120.0
            },
            {
                "start_time": 9.6136364,
                "end_time": 10.8068182,
                "pitch": 72,
                "velocity": 64,
                "duration": 1.1931818,
                "tempo": 120.0
            },
            {
                "start_time": 10.8227273,
                "end_time": 11.0022727,
                "pitch": 70,
                "velocity": 64,
                "duration": 0.1795455,
                "tempo": 120.0
            },
            {
                "start_time": 11.0204545,
                "end_time": 11.2045455,
                "pitch": 71,
                "velocity": 64,
                "duration": 0.1840909,
                "tempo": 120.0
            },
            {
                "start_time": 11.2204545,
                "end_time": 11.9090909,
                "pitch": 72,
                "velocity": 64,
                "duration": 0.6886364,
                "tempo": 120.0
            },
            {
                "start_time": 12.8295455,
                "end_time": 13.2181818,
                "pitch": 65,
                "velocity": 64,
                "duration": 0.3886364,
                "tempo": 120.0
            },
            {
                "start_time": 13.2363636,
                "end_time": 13.625,
                "pitch": 64,
                "velocity": 64,
                "duration": 0.3886364,
                "tempo": 120.0
            },
            {
                "start_time": 13.6431818,
                "end_time": 14.0272727,
                "pitch": 60,
                "velocity": 64,
                "duration": 0.3840909,
                "tempo": 120.0
            },
            {
                "start_time": 14.0431818,
                "end_time": 14.2272727,
                "pitch": 58,
                "velocity": 64,
                "duration": 0.1840909,
                "tempo": 120.0
            },
            {
                "start_time": 14.2431818,
                "end_time": 14.4295455,
                "pitch": 59,
                "velocity": 64,
                "duration": 0.1863636,
                "tempo": 120.0
            },
            {
                "start_time": 14.4454545,
                "end_time": 14.6295455,
                "pitch": 60,
                "velocity": 64,
                "duration": 0.1840909,
                "tempo": 120.0
            },
            {
                "start_time": 14.6477273,
                "end_time": 15.0318182,
                "pitch": 64,
                "velocity": 64,
                "duration": 0.3840909,
                "tempo": 120.0
            },
            {
                "start_time": 15.05,
                "end_time": 15.4363636,
                "pitch": 60,
                "velocity": 64,
                "duration": 0.3863636,
                "tempo": 120.0
            },
            {
                "start_time": 15.4522727,
                "end_time": 15.6363636,
                "pitch": 58,
                "velocity": 64,
                "duration": 0.1840909,
                "tempo": 120.0
            },
            {
                "start_time": 15.6545455,
                "end_time": 15.8386364,
                "pitch": 59,
                "velocity": 64,
                "duration": 0.1840909,
                "tempo": 120.0
            },
            {
                "start_time": 15.8545455,
                "end_time": 16.4386364,
                "pitch": 60,
                "velocity": 64,
                "duration": 0.5840909,
                "tempo": 120.0
            },
            {
                "start_time": 16.4568182,
                "end_time": 16.4727273,
                "pitch": 64,
                "velocity": 64,
                "duration": 0.0159091,
                "tempo": 120.0
            },
            {
                "start_time": 16.4886364,
                "end_time": 16.8363636,
                "pitch": 65,
                "velocity": 64,
                "duration": 0.3477273,
                "tempo": 120.0
            },
            {
                "start_time": 16.8545455,
                "end_time": 17.0340909,
                "pitch": 64,
                "velocity": 64,
                "duration": 0.1795455,
                "tempo": 120.0
            },
            {
                "start_time": 17.05,
                "end_time": 17.4363636,
                "pitch": 60,
                "velocity": 64,
                "duration": 0.3863636,
                "tempo": 120.0
            },
            {
                "start_time": 17.4522727,
                "end_time": 17.8454545,
                "pitch": 69,
                "velocity": 64,
                "duration": 0.3931818,
                "tempo": 120.0
            },
            {
                "start_time": 17.8636364,
                "end_time": 18.0431818,
                "pitch": 67,
                "velocity": 64,
                "duration": 0.1795455,
                "tempo": 120.0
            },
            {
                "start_time": 18.0590909,
                "end_time": 18.2386364,
                "pitch": 64,
                "velocity": 64,
                "duration": 0.1795455,
                "tempo": 120.0
            },
            {
                "start_time": 18.2545455,
                "end_time": 19.0045455,
                "pitch": 60,
                "velocity": 64,
                "duration": 0.75,
                "tempo": 120.0
            },
            {
                "start_time": 19.4568182,
                "end_time": 19.6409091,
                "pitch": 76,
                "velocity": 64,
                "duration": 0.1840909,
                "tempo": 120.0
            },
            {
                "start_time": 19.6568182,
                "end_time": 19.8409091,
                "pitch": 76,
                "velocity": 64,
                "duration": 0.1840909,
                "tempo": 120.0
            },
            {
                "start_time": 19.8568182,
                "end_time": 20.0454545,
                "pitch": 70,
                "velocity": 64,
                "duration": 0.1886364,
                "tempo": 120.0
            },
            {
                "start_time": 20.0636364,
                "end_time": 20.2522727,
                "pitch": 71,
                "velocity": 64,
                "duration": 0.1886364,
                "tempo": 120.0
            },
            {
                "start_time": 20.2681818,
                "end_time": 20.6545455,
                "pitch": 72,
                "velocity": 64,
                "duration": 0.3863636,
                "tempo": 120.0
            },
            {
                "start_time": 20.6704545,
                "end_time": 21.0545455,
                "pitch": 67,
                "velocity": 64,
                "duration": 0.3840909,
                "tempo": 120.0
            },
            {
                "start_time": 21.0704545,
                "end_time": 21.4545455,
                "pitch": 69,
                "velocity": 64,
                "duration": 0.3840909,
                "tempo": 120.0
            },
            {
                "start_time": 21.4704545,
                "end_time": 21.8568182,
                "pitch": 70,
                "velocity": 64,
                "duration": 0.3863636,
                "tempo": 120.0
            },
            {
                "start_time": 21.875,
                "end_time": 22.0545455,
                "pitch": 69,
                "velocity": 64,
                "duration": 0.1795455,
                "tempo": 120.0
            },
            {
                "start_time": 22.0704545,
                "end_time": 22.45,
                "pitch": 69,
                "velocity": 64,
                "duration": 0.3795455,
                "tempo": 120.0
            },
            {
                "start_time": 22.4659091,
                "end_time": 22.8545455,
                "pitch": 64,
                "velocity": 64,
                "duration": 0.3886364,
                "tempo": 120.0
            },
            {
                "start_time": 22.8727273,
                "end_time": 23.025,
                "pitch": 64,
                "velocity": 64,
                "duration": 0.1522727,
                "tempo": 120.0
            },
            {
                "start_time": 23.4772727,
                "end_time": 23.6568182,
                "pitch": 58,
                "velocity": 64,
                "duration": 0.1795455,
                "tempo": 120.0
            },
            {
                "start_time": 23.6727273,
                "end_time": 23.8522727,
                "pitch": 59,
                "velocity": 64,
                "duration": 0.1795455,
                "tempo": 120.0
            },
            {
                "start_time": 23.8704545,
                "end_time": 24.2636364,
                "pitch": 60,
                "velocity": 64,
                "duration": 0.3931818,
                "tempo": 120.0
            },
            {
                "start_time": 24.2795455,
                "end_time": 24.4636364,
                "pitch": 76,
                "velocity": 64,
                "duration": 0.1840909,
                "tempo": 120.0
            },
            {
                "start_time": 24.4818182,
                "end_time": 24.6659091,
                "pitch": 76,
                "velocity": 64,
                "duration": 0.1840909,
                "tempo": 120.0
            },
            {
                "start_time": 24.6818182,
                "end_time": 25.6522727,
                "pitch": 76,
                "velocity": 64,
                "duration": 0.9704545,
                "tempo": 120.0
            }
        ],
        "Acoustic Bass": [
            {
                "start_time": 0.0,
                "end_time": 0.1659091,
                "pitch": 36,
                "velocity": 80,
                "duration": 0.1659091,
                "tempo": 120.0
            },
            {
                "start_time": 0.1840909,
                "end_time": 0.3659091,
                "pitch": 36,
                "velocity": 80,
                "duration": 0.1818182,
                "tempo": 120.0
            },
            {
                "start_time": 0.3840909,
                "end_time": 0.5659091,
                "pitch": 40,
                "velocity": 80,
                "duration": 0.1818182,
                "tempo": 120.0
            },
            {
                "start_time": 0.5840909,
                "end_time": 0.7659091,
                "pitch": 43,
                "velocity": 80,
                "duration": 0.1818182,
                "tempo": 120.0
            },
            {
                "start_time": 0.7840909,
                "end_time": 0.9659091,
                "pitch": 46,
                "velocity": 80,
                "duration": 0.1818182,
                "tempo": 120.0
            },
            {
                "start_time": 0.9840909,
                "end_time": 1.1704545,
                "pitch": 46,
                "velocity": 80,
                "duration": 0.1863636,
                "tempo": 120.0
            },
            {
                "start_time": 1.1886364,
                "end_time": 1.3772727,
                "pitch": 45,
                "velocity": 80,
                "duration": 0.1886364,
                "tempo": 120.0
            },
            {
                "start_time": 1.3931818,
                "end_time": 1.5772727,
                "pitch": 43,
                "velocity": 80,
                "duration": 0.1840909,
                "tempo": 120.0
            },
            {
                "start_time": 1.5931818,
                "end_time": 1.7772727,
                "pitch": 36,
                "velocity": 80,
                "duration": 0.1840909,
                "tempo": 120.0
            },
            {
                "start_time": 1.7931818,
                "end_time": 1.9795455,
                "pitch": 36,
                "velocity": 80,
                "duration": 0.1863636,
                "tempo": 120.0
            },
            {
                "start_time": 1.9954545,
                "end_time": 2.1795455,
                "pitch": 40,
                "velocity": 80,
                "duration": 0.1840909,
                "tempo": 120.0
            },
            {
                "start_time": 2.1977273,
                "end_time": 2.5795455,
                "pitch": 43,
                "velocity": 80,
                "duration": 0.3818182,
                "tempo": 120.0
            },
            {
                "start_time": 2.5977273,
                "end_time": 2.7795455,
                "pitch": 34,
                "velocity": 80,
                "duration": 0.1818182,
                "tempo": 120.0
            },
            {
                "start_time": 2.7977273,
                "end_time": 2.9795455,
                "pitch": 35,
                "velocity": 80,
                "duration": 0.1818182,
                "tempo": 120.0
            },
            {
                "start_time": 2.9977273,
                "end_time": 3.1818182,
                "pitch": 36,
                "velocity": 80,
                "duration": 0.1840909,
                "tempo": 120.0
            },
            {
                "start_time": 3.1977273,
                "end_time": 3.3818182,
                "pitch": 36,
                "velocity": 80,
                "duration": 0.1840909,
                "tempo": 120.0
            },
            {
                "start_time": 3.4,
                "end_time": 3.5795455,
                "pitch": 36,
                "velocity": 80,
                "duration": 0.1795455,
                "tempo": 120.0
            },
            {
                "start_time": 3.5954545,
                "end_time": 3.775,
                "pitch": 40,
                "velocity": 80,
                "duration": 0.1795455,
                "tempo": 120.0
            },
            {
                "start_time": 3.7909091,
                "end_time": 3.9795455,
                "pitch": 43,
                "velocity": 80,
                "duration": 0.1886364,
                "tempo": 120.0
            },
            {
                "start_time": 3.9977273,
                "end_time": 4.1840909,
                "pitch": 46,
                "velocity": 80,
                "duration": 0.1863636,
                "tempo": 120.0
            },
            {
                "start_time": 4.2022727,
                "end_time": 4.3818182,
                "pitch": 46,
                "velocity": 80,
                "duration": 0.1795455,
                "tempo": 120.0
            },
            {
                "start_time": 4.3977273,
                "end_time": 4.5772727,
                "pitch": 45,
                "velocity": 80,
                "duration": 0.1795455,
                "tempo": 120.0
            },
            {
                "start_time": 4.5954545,
                "end_time": 4.9795455,
                "pitch": 43,
                "velocity": 80,
                "duration": 0.3840909,
                "tempo": 120.0
            },
            {
                "start_time": 4.9977273,
                "end_time": 5.1818182,
                "pitch": 48,
                "velocity": 80,
                "duration": 0.1840909,
                "tempo": 120.0
            },
            {
                "start_time": 5.1977273,
                "end_time": 5.3840909,
                "pitch": 48,
                "velocity": 80,
                "duration": 0.1863636,
                "tempo": 120.0
            },
            {
                "start_time": 5.4,
                "end_time": 5.5840909,
                "pitch": 48,
                "velocity": 80,
                "duration": 0.1840909,
                "tempo": 120.0
            },
            {
                "start_time": 5.6,
                "end_time": 5.7840909,
                "pitch": 48,
                "velocity": 80,
                "duration": 0.1840909,
                "tempo": 120.0
            },
            {
                "start_time": 5.8,
                "end_time": 5.9840909,
                "pitch": 46,
                "velocity": 80,
                "duration": 0.1840909,
                "tempo": 120.0
            },
            {
                "start_time": 6.0,
                "end_time": 6.1863636,
                "pitch": 45,
                "velocity": 80,
                "duration": 0.1863636,
                "tempo": 120.0
            },
            {
                "start_time": 6.2022727,
                "end_time": 6.3863636,
                "pitch": 43,
                "velocity": 80,
                "duration": 0.1840909,
                "tempo": 120.0
            },
            {
                "start_time": 6.4022727,
                "end_time": 6.5863636,
                "pitch": 36,
                "velocity": 80,
                "duration": 0.1840909,
                "tempo": 120.0
            },
            {
                "start_time": 6.6022727,
                "end_time": 6.7863636,
                "pitch": 36,
                "velocity": 80,
                "duration": 0.1840909,
                "tempo": 120.0
            },
            {
                "start_time": 6.8045455,
                "end_time": 6.9886364,
                "pitch": 40,
                "velocity": 80,
                "duration": 0.1840909,
                "tempo": 120.0
            },
            {
                "start_time": 7.0045455,
                "end_time": 7.1931818,
                "pitch": 43,
                "velocity": 80,
                "duration": 0.1886364,
                "tempo": 120.0
            },
            {
                "start_time": 7.2113636,
                "end_time": 7.3977273,
                "pitch": 46,
                "velocity": 80,
                "duration": 0.1863636,
                "tempo": 120.0
            },
            {
                "start_time": 7.4159091,
                "end_time": 7.6,
                "pitch": 46,
                "velocity": 80,
                "duration": 0.1840909,
                "tempo": 120.0
            },
            {
                "start_time": 7.6159091,
                "end_time": 7.8,
                "pitch": 45,
                "velocity": 80,
                "duration": 0.1840909,
                "tempo": 120.0
            },
            {
                "start_time": 7.8159091,
                "end_time": 7.9954545,
                "pitch": 43,
                "velocity": 80,
                "duration": 0.1795455,
                "tempo": 120.0
            },
            {
                "start_time": 8.0113636,
                "end_time": 8.1909091,
                "pitch": 36,
                "velocity": 80,
                "duration": 0.1795455,
                "tempo": 120.0
            },
            {
                "start_time": 8.2090909,
                "end_time": 8.3909091,
                "pitch": 36,
                "velocity": 80,
                "duration": 0.1818182,
                "tempo": 120.0
            },
            {
                "start_time": 8.4090909,
                "end_time": 8.5909091,
                "pitch": 40,
                "velocity": 80,
                "duration": 0.1818182,
                "tempo": 120.0
            },
            {
                "start_time": 8.6090909,
                "end_time": 9.0022727,
                "pitch": 43,
                "velocity": 80,
                "duration": 0.3931818,
                "tempo": 120.0
            },
            {
                "start_time": 9.0181818,
                "end_time": 9.1977273,
                "pitch": 34,
                "velocity": 80,
                "duration": 0.1795455,
                "tempo": 120.0
            },
            {
                "start_time": 9.2159091,
                "end_time": 9.3954545,
                "pitch": 35,
                "velocity": 80,
                "duration": 0.1795455,
                "tempo": 120.0
            },
            {
                "start_time": 9.4113636,
                "end_time": 9.5954545,
                "pitch": 36,
                "velocity": 80,
                "duration": 0.1840909,
                "tempo": 120.0
            },
            {
                "start_time": 9.6136364,
                "end_time": 9.7977273,
                "pitch": 36,
                "velocity": 80,
                "duration": 0.1840909,
                "tempo": 120.0
            },
            {
                "start_time": 9.8136364,
                "end_time": 10.0022727,
                "pitch": 36,
                "velocity": 80,
                "duration": 0.1886364,
                "tempo": 120.0
            },
            {
                "start_time": 10.0181818,
                "end_time": 10.2068182,
                "pitch": 40,
                "velocity": 80,
                "duration": 0.1886364,
                "tempo": 120.0
            },
            {
                "start_time": 10.225,
                "end_time": 10.4090909,
                "pitch": 43,
                "velocity": 80,
                "duration": 0.1840909,
                "tempo": 120.0
            },
            {
                "start_time": 10.4272727,
                "end_time": 10.6113636,
                "pitch": 46,
                "velocity": 80,
                "duration": 0.1840909,
                "tempo": 120.0
            },
            {
                "start_time": 10.6272727,
                "end_time": 10.8068182,
                "pitch": 46,
                "velocity": 80,
                "duration": 0.1795455,
                "tempo": 120.0
            },
            {
                "start_time": 10.8227273,
                "end_time": 11.0022727,
                "pitch": 45,
                "velocity": 80,
                "duration": 0.1795455,
                "tempo": 120.0
            },
            {
                "start_time": 11.0204545,
                "end_time": 11.4045455,
                "pitch": 43,
                "velocity": 80,
                "duration": 0.3840909,
                "tempo": 120.0
            },
            {
                "start_time": 11.4227273,
                "end_time": 11.8090909,
                "pitch": 48,
                "velocity": 80,
                "duration": 0.3863636,
                "tempo": 120.0
            },
            {
                "start_time": 11.825,
                "end_time": 12.2090909,
                "pitch": 48,
                "velocity": 80,
                "duration": 0.3840909,
                "tempo": 120.0
            },
            {
                "start_time": 12.225,
                "end_time": 12.4090909,
                "pitch": 48,
                "velocity": 80,
                "duration": 0.1840909,
                "tempo": 120.0
            },
            {
                "start_time": 12.4272727,
                "end_time": 12.8113636,
                "pitch": 48,
                "velocity": 80,
                "duration": 0.3840909,
                "tempo": 120.0
            },
            {
                "start_time": 12.8295455,
                "end_time": 13.0136364,
                "pitch": 36,
                "velocity": 80,
                "duration": 0.1840909,
                "tempo": 120.0
            },
            {
                "start_time": 13.0295455,
                "end_time": 13.2181818,
                "pitch": 36,
                "velocity": 80,
                "duration": 0.1886364,
                "tempo": 120.0
            },
            {
                "start_time": 13.2363636,
                "end_time": 13.425,
                "pitch": 40,
                "velocity": 80,
                "duration": 0.1886364,
                "tempo": 120.0
            },
            {
                "start_time": 13.4409091,
                "end_time": 13.625,
                "pitch": 43,
                "velocity": 80,
                "duration": 0.1840909,
                "tempo": 120.0
            },
            {
                "start_time": 13.6431818,
                "end_time": 13.8272727,
                "pitch": 46,
                "velocity": 80,
                "duration": 0.1840909,
                "tempo": 120.0
            },
            {
                "start_time": 13.8431818,
                "end_time": 14.0272727,
                "pitch": 46,
                "velocity": 80,
                "duration": 0.1840909,
                "tempo": 120.0
            },
            {
                "start_time": 14.0431818,
                "end_time": 14.2272727,
                "pitch": 45,
                "velocity": 80,
                "duration": 0.1840909,
                "tempo": 120.0
            },
            {
                "start_time": 14.2431818,
                "end_time": 14.4295455,
                "pitch": 43,
                "velocity": 80,
                "duration": 0.1863636,
                "tempo": 120.0
            },
            {
                "start_time": 14.4454545,
                "end_time": 14.6295455,
                "pitch": 36,
                "velocity": 80,
                "duration": 0.1840909,
                "tempo": 120.0
            },
            {
                "start_time": 14.6477273,
                "end_time": 14.8318182,
                "pitch": 36,
                "velocity": 80,
                "duration": 0.1840909,
                "tempo": 120.0
            },
            {
                "start_time": 14.8477273,
                "end_time": 15.0318182,
                "pitch": 40,
                "velocity": 80,
                "duration": 0.1840909,
                "tempo": 120.0
            },
            {
                "start_time": 15.05,
                "end_time": 15.4363636,
                "pitch": 43,
                "velocity": 80,
                "duration": 0.3863636,
                "tempo": 120.0
            },
            {
                "start_time": 15.4522727,
                "end_time": 15.6363636,
                "pitch": 34,
                "velocity": 80,
                "duration": 0.1840909,
                "tempo": 120.0
            },
            {
                "start_time": 15.6545455,
                "end_time": 15.8386364,
                "pitch": 35,
                "velocity": 80,
                "duration": 0.1840909,
                "tempo": 120.0
            },
            {
                "start_time": 15.8545455,
                "end_time": 16.0386364,
                "pitch": 36,
                "velocity": 80,
                "duration": 0.1840909,
                "tempo": 120.0
            },
            {
                "start_time": 16.0545455,
                "end_time": 16.2386364,
                "pitch": 36,
                "velocity": 80,
                "duration": 0.1840909,
                "tempo": 120.0
            },
            {
                "start_time": 16.2545455,
                "end_time": 16.4386364,
                "pitch": 36,
                "velocity": 80,
                "duration": 0.1840909,
                "tempo": 120.0
            },
            {
                "start_time": 16.4568182,
                "end_time": 16.6409091,
                "pitch": 40,
                "velocity": 80,
                "duration": 0.1840909,
                "tempo": 120.0
            },
            {
                "start_time": 16.6568182,
                "end_time": 16.8363636,
                "pitch": 43,
                "velocity": 80,
                "duration": 0.1795455,
                "tempo": 120.0
            },
            {
                "start_time": 16.8545455,
                "end_time": 17.0340909,
                "pitch": 46,
                "velocity": 80,
                "duration": 0.1795455,
                "tempo": 120.0
            },
            {
                "start_time": 17.05,
                "end_time": 17.2340909,
                "pitch": 46,
                "velocity": 80,
                "duration": 0.1840909,
                "tempo": 120.0
            },
            {
                "start_time": 17.25,
                "end_time": 17.4363636,
                "pitch": 45,
                "velocity": 80,
                "duration": 0.1863636,
                "tempo": 120.0
            },
            {
                "start_time": 17.4522727,
                "end_time": 17.8454545,
                "pitch": 43,
                "velocity": 80,
                "duration": 0.3931818,
                "tempo": 120.0
            },
            {
                "start_time": 17.8636364,
                "end_time": 18.0431818,
                "pitch": 48,
                "velocity": 80,
                "duration": 0.1795455,
                "tempo": 120.0
            },
            {
                "start_time": 18.0590909,
                "end_time": 18.2386364,
                "pitch": 48,
                "velocity": 80,
                "duration": 0.1795455,
                "tempo": 120.0
            },
            {
                "start_time": 18.2545455,
                "end_time": 18.4386364,
                "pitch": 48,
                "velocity": 80,
                "duration": 0.1840909,
                "tempo": 120.0
            },
            {
                "start_time": 18.4545455,
                "end_time": 18.6386364,
                "pitch": 48,
                "velocity": 80,
                "duration": 0.1840909,
                "tempo": 120.0
            },
            {
                "start_time": 18.6545455,
                "end_time": 18.8386364,
                "pitch": 46,
                "velocity": 80,
                "duration": 0.1840909,
                "tempo": 120.0
            },
            {
                "start_time": 18.8545455,
                "end_time": 19.0386364,
                "pitch": 45,
                "velocity": 80,
                "duration": 0.1840909,
                "tempo": 120.0
            },
            {
                "start_time": 19.0545455,
                "end_time": 19.2409091,
                "pitch": 43,
                "velocity": 80,
                "duration": 0.1863636,
                "tempo": 120.0
            },
            {
                "start_time": 19.2568182,
                "end_time": 19.4409091,
                "pitch": 36,
                "velocity": 80,
                "duration": 0.1840909,
                "tempo": 120.0
            },
            {
                "start_time": 19.4568182,
                "end_time": 19.6409091,
                "pitch": 36,
                "velocity": 80,
                "duration": 0.1840909,
                "tempo": 120.0
            },
            {
                "start_time": 19.6568182,
                "end_time": 19.8409091,
                "pitch": 40,
                "velocity": 80,
                "duration": 0.1840909,
                "tempo": 120.0
            },
            {
                "start_time": 19.8568182,
                "end_time": 20.0454545,
                "pitch": 43,
                "velocity": 80,
                "duration": 0.1886364,
                "tempo": 120.0
            },
            {
                "start_time": 20.0636364,
                "end_time": 20.2522727,
                "pitch": 46,
                "velocity": 80,
                "duration": 0.1886364,
                "tempo": 120.0
            },
            {
                "start_time": 20.2681818,
                "end_time": 20.4522727,
                "pitch": 46,
                "velocity": 80,
                "duration": 0.1840909,
                "tempo": 120.0
            },
            {
                "start_time": 20.4704545,
                "end_time": 20.6545455,
                "pitch": 45,
                "velocity": 80,
                "duration": 0.1840909,
                "tempo": 120.0
            },
            {
                "start_time": 20.6704545,
                "end_time": 20.8545455,
                "pitch": 43,
                "velocity": 80,
                "duration": 0.1840909,
                "tempo": 120.0
            },
            {
                "start_time": 20.8704545,
                "end_time": 21.0545455,
                "pitch": 36,
                "velocity": 80,
                "duration": 0.1840909,
                "tempo": 120.0
            },
            {
                "start_time": 21.0704545,
                "end_time": 21.2545455,
                "pitch": 36,
                "velocity": 80,
                "duration": 0.1840909,
                "tempo": 120.0
            },
            {
                "start_time": 21.2704545,
                "end_time": 21.4545455,
                "pitch": 40,
                "velocity": 80,
                "duration": 0.1840909,
                "tempo": 120.0
            },
            {
                "start_time": 21.4704545,
                "end_time": 21.8568182,
                "pitch": 43,
                "velocity": 80,
                "duration": 0.3863636,
                "tempo": 120.0
            },
            {
                "start_time": 21.875,
                "end_time": 22.0545455,
                "pitch": 34,
                "velocity": 80,
                "duration": 0.1795455,
                "tempo": 120.0
            },
            {
                "start_time": 22.0704545,
                "end_time": 22.25,
                "pitch": 35,
                "velocity": 80,
                "duration": 0.1795455,
                "tempo": 120.0
            },
            {
                "start_time": 22.2659091,
                "end_time": 22.45,
                "pitch": 36,
                "velocity": 80,
                "duration": 0.1840909,
                "tempo": 120.0
            },
            {
                "start_time": 22.4659091,
                "end_time": 22.65,
                "pitch": 36,
                "velocity": 80,
                "duration": 0.1840909,
                "tempo": 120.0
            },
            {
                "start_time": 22.6659091,
                "end_time": 22.8545455,
                "pitch": 36,
                "velocity": 80,
                "duration": 0.1886364,
                "tempo": 120.0
            },
            {
                "start_time": 22.8727273,
                "end_time": 23.0590909,
                "pitch": 40,
                "velocity": 80,
                "duration": 0.1863636,
                "tempo": 120.0
            },
            {
                "start_time": 23.0772727,
                "end_time": 23.2613636,
                "pitch": 43,
                "velocity": 80,
                "duration": 0.1840909,
                "tempo": 120.0
            },
            {
                "start_time": 23.2772727,
                "end_time": 23.4613636,
                "pitch": 46,
                "velocity": 80,
                "duration": 0.1840909,
                "tempo": 120.0
            },
            {
                "start_time": 23.4772727,
                "end_time": 23.6568182,
                "pitch": 46,
                "velocity": 80,
                "duration": 0.1795455,
                "tempo": 120.0
            },
            {
                "start_time": 23.6727273,
                "end_time": 23.8522727,
                "pitch": 45,
                "velocity": 80,
                "duration": 0.1795455,
                "tempo": 120.0
            },
            {
                "start_time": 23.8704545,
                "end_time": 24.2636364,
                "pitch": 43,
                "velocity": 80,
                "duration": 0.3931818,
                "tempo": 120.0
            },
            {
                "start_time": 24.2795455,
                "end_time": 24.6659091,
                "pitch": 48,
                "velocity": 80,
                "duration": 0.3863636,
                "tempo": 120.0
            },
            {
                "start_time": 24.6818182,
                "end_time": 25.0590909,
                "pitch": 48,
                "velocity": 80,
                "duration": 0.3772727,
                "tempo": 120.0
            },
            {
                "start_time": 25.075,
                "end_time": 25.2545455,
                "pitch": 48,
                "velocity": 80,
                "duration": 0.1795455,
                "tempo": 120.0
            },
            {
                "start_time": 25.2704545,
                "end_time": 25.6522727,
                "pitch": 48,
                "velocity": 80,
                "duration": 0.3818182,
                "tempo": 120.0
            }
        ],
        "Vibraphone": [
            {
                "start_time": 0.0,
                "end_time": 0.1659091,
                "pitch": 60,
                "velocity": 101,
                "duration": 0.1659091,
                "tempo": 120.0
            },
            {
                "start_time": 0.1840909,
                "end_time": 0.3659091,
                "pitch": 67,
                "velocity": 101,
                "duration": 0.1818182,
                "tempo": 120.0
            },
            {
                "start_time": 0.3840909,
                "end_time": 0.5659091,
                "pitch": 64,
                "velocity": 101,
                "duration": 0.1818182,
                "tempo": 120.0
            },
            {
                "start_time": 0.5840909,
                "end_time": 0.7659091,
                "pitch": 60,
                "velocity": 101,
                "duration": 0.1818182,
                "tempo": 120.0
            },
            {
                "start_time": 0.7840909,
                "end_time": 0.9659091,
                "pitch": 70,
                "velocity": 101,
                "duration": 0.1818182,
                "tempo": 120.0
            },
            {
                "start_time": 0.9840909,
                "end_time": 1.1704545,
                "pitch": 67,
                "velocity": 101,
                "duration": 0.1863636,
                "tempo": 120.0
            },
            {
                "start_time": 1.1886364,
                "end_time": 1.3772727,
                "pitch": 64,
                "velocity": 101,
                "duration": 0.1886364,
                "tempo": 120.0
            },
            {
                "start_time": 1.3931818,
                "end_time": 1.5772727,
                "pitch": 60,
                "velocity": 101,
                "duration": 0.1840909,
                "tempo": 120.0
            },
            {
                "start_time": 1.5931818,
                "end_time": 1.7772727,
                "pitch": 60,
                "velocity": 101,
                "duration": 0.1840909,
                "tempo": 120.0
            },
            {
                "start_time": 1.7931818,
                "end_time": 1.9795455,
                "pitch": 67,
                "velocity": 101,
                "duration": 0.1863636,
                "tempo": 120.0
            },
            {
                "start_time": 1.9954545,
                "end_time": 2.1795455,
                "pitch": 64,
                "velocity": 101,
                "duration": 0.1840909,
                "tempo": 120.0
            },
            {
                "start_time": 2.1977273,
                "end_time": 2.3795455,
                "pitch": 60,
                "velocity": 101,
                "duration": 0.1818182,
                "tempo": 120.0
            },
            {
                "start_time": 2.3977273,
                "end_time": 2.5795455,
                "pitch": 70,
                "velocity": 101,
                "duration": 0.1818182,
                "tempo": 120.0
            },
            {
                "start_time": 2.5977273,
                "end_time": 2.7795455,
                "pitch": 67,
                "velocity": 101,
                "duration": 0.1818182,
                "tempo": 120.0
            },
            {
                "start_time": 2.7977273,
                "end_time": 2.9795455,
                "pitch": 64,
                "velocity": 101,
                "duration": 0.1818182,
                "tempo": 120.0
            },
            {
                "start_time": 2.9977273,
                "end_time": 3.1818182,
                "pitch": 60,
                "velocity": 101,
                "duration": 0.1840909,
                "tempo": 120.0
            },
            {
                "start_time": 3.1977273,
                "end_time": 3.3818182,
                "pitch": 60,
                "velocity": 101,
                "duration": 0.1840909,
                "tempo": 120.0
            },
            {
                "start_time": 3.4,
                "end_time": 3.5795455,
                "pitch": 67,
                "velocity": 101,
                "duration": 0.1795455,
                "tempo": 120.0
            },
            {
                "start_time": 3.5954545,
                "end_time": 3.775,
                "pitch": 64,
                "velocity": 101,
                "duration": 0.1795455,
                "tempo": 120.0
            },
            {
                "start_time": 3.7909091,
                "end_time": 3.9795455,
                "pitch": 60,
                "velocity": 101,
                "duration": 0.1886364,
                "tempo": 120.0
            },
            {
                "start_time": 3.9977273,
                "end_time": 4.1840909,
                "pitch": 70,
                "velocity": 101,
                "duration": 0.1863636,
                "tempo": 120.0
            },
            {
                "start_time": 4.2022727,
                "end_time": 4.3818182,
                "pitch": 67,
                "velocity": 101,
                "duration": 0.1795455,
                "tempo": 120.0
            },
            {
                "start_time": 4.3977273,
                "end_time": 4.5772727,
                "pitch": 64,
                "velocity": 101,
                "duration": 0.1795455,
                "tempo": 120.0
            },
            {
                "start_time": 4.5954545,
                "end_time": 4.7795455,
                "pitch": 60,
                "velocity": 101,
                "duration": 0.1840909,
                "tempo": 120.0
            },
            {
                "start_time": 4.7954545,
                "end_time": 4.9795455,
                "pitch": 60,
                "velocity": 101,
                "duration": 0.1840909,
                "tempo": 120.0
            },
            {
                "start_time": 4.9977273,
                "end_time": 5.1477273,
                "pitch": 67,
                "velocity": 101,
                "duration": 0.15,
                "tempo": 120.0
            },
            {
                "start_time": 5.1659091,
                "end_time": 5.3840909,
                "pitch": 64,
                "velocity": 101,
                "duration": 0.2181818,
                "tempo": 120.0
            },
            {
                "start_time": 5.4,
                "end_time": 5.5840909,
                "pitch": 60,
                "velocity": 101,
                "duration": 0.1840909,
                "tempo": 120.0
            },
            {
                "start_time": 5.6,
                "end_time": 5.7840909,
                "pitch": 70,
                "velocity": 101,
                "duration": 0.1840909,
                "tempo": 120.0
            },
            {
                "start_time": 5.8,
                "end_time": 5.9840909,
                "pitch": 70,
                "velocity": 101,
                "duration": 0.1840909,
                "tempo": 120.0
            },
            {
                "start_time": 6.0,
                "end_time": 6.1863636,
                "pitch": 70,
                "velocity": 101,
                "duration": 0.1863636,
                "tempo": 120.0
            },
            {
                "start_time": 6.2022727,
                "end_time": 6.3863636,
                "pitch": 70,
                "velocity": 101,
                "duration": 0.1840909,
                "tempo": 120.0
            },
            {
                "start_time": 6.4022727,
                "end_time": 6.5863636,
                "pitch": 60,
                "velocity": 101,
                "duration": 0.1840909,
                "tempo": 120.0
            },
            {
                "start_time": 6.6022727,
                "end_time": 6.7863636,
                "pitch": 67,
                "velocity": 101,
                "duration": 0.1840909,
                "tempo": 120.0
            },
            {
                "start_time": 6.8045455,
                "end_time": 6.9886364,
                "pitch": 64,
                "velocity": 101,
                "duration": 0.1840909,
                "tempo": 120.0
            },
            {
                "start_time": 7.0045455,
                "end_time": 7.1931818,
                "pitch": 60,
                "velocity": 101,
                "duration": 0.1886364,
                "tempo": 120.0
            },
            {
                "start_time": 7.2113636,
                "end_time": 7.3977273,
                "pitch": 70,
                "velocity": 101,
                "duration": 0.1863636,
                "tempo": 120.0
            },
            {
                "start_time": 7.4159091,
                "end_time": 7.6,
                "pitch": 67,
                "velocity": 101,
                "duration": 0.1840909,
                "tempo": 120.0
            },
            {
                "start_time": 7.6159091,
                "end_time": 7.8,
                "pitch": 64,
                "velocity": 101,
                "duration": 0.1840909,
                "tempo": 120.0
            },
            {
                "start_time": 7.8159091,
                "end_time": 7.9954545,
                "pitch": 60,
                "velocity": 101,
                "duration": 0.1795455,
                "tempo": 120.0
            },
            {
                "start_time": 8.0113636,
                "end_time": 8.1909091,
                "pitch": 60,
                "velocity": 101,
                "duration": 0.1795455,
                "tempo": 120.0
            },
            {
                "start_time": 8.2090909,
                "end_time": 8.3909091,
                "pitch": 67,
                "velocity": 101,
                "duration": 0.1818182,
                "tempo": 120.0
            },
            {
                "start_time": 8.4090909,
                "end_time": 8.5909091,
                "pitch": 64,
                "velocity": 101,
                "duration": 0.1818182,
                "tempo": 120.0
            },
            {
                "start_time": 8.6090909,
                "end_time": 8.7954545,
                "pitch": 60,
                "velocity": 101,
                "duration": 0.1863636,
                "tempo": 120.0
            },
            {
                "start_time": 8.8136364,
                "end_time": 9.0022727,
                "pitch": 70,
                "velocity": 101,
                "duration": 0.1886364,
                "tempo": 120.0
            },
            {
                "start_time": 9.0181818,
                "end_time": 9.1977273,
                "pitch": 67,
                "velocity": 101,
                "duration": 0.1795455,
                "tempo": 120.0
            },
            {
                "start_time": 9.2159091,
                "end_time": 9.3954545,
                "pitch": 64,
                "velocity": 101,
                "duration": 0.1795455,
                "tempo": 120.0
            },
            {
                "start_time": 9.4113636,
                "end_time": 9.5954545,
                "pitch": 60,
                "velocity": 101,
                "duration": 0.1840909,
                "tempo": 120.0
            },
            {
                "start_time": 9.6136364,
                "end_time": 9.7977273,
                "pitch": 60,
                "velocity": 101,
                "duration": 0.1840909,
                "tempo": 120.0
            },
            {
                "start_time": 9.8136364,
                "end_time": 10.0022727,
                "pitch": 67,
                "velocity": 101,
                "duration": 0.1886364,
                "tempo": 120.0
            },
            {
                "start_time": 10.0181818,
                "end_time": 10.2068182,
                "pitch": 64,
                "velocity": 101,
                "duration": 0.1886364,
                "tempo": 120.0
            },
            {
                "start_time": 10.225,
                "end_time": 10.4090909,
                "pitch": 60,
                "velocity": 101,
                "duration": 0.1840909,
                "tempo": 120.0
            },
            {
                "start_time": 10.4272727,
                "end_time": 10.6113636,
                "pitch": 70,
                "velocity": 101,
                "duration": 0.1840909,
                "tempo": 120.0
            },
            {
                "start_time": 10.6272727,
                "end_time": 10.8068182,
                "pitch": 67,
                "velocity": 101,
                "duration": 0.1795455,
                "tempo": 120.0
            },
            {
                "start_time": 10.8227273,
                "end_time": 11.0022727,
                "pitch": 64,
                "velocity": 101,
                "duration": 0.1795455,
                "tempo": 120.0
            },
            {
                "start_time": 11.0204545,
                "end_time": 11.2045455,
                "pitch": 60,
                "velocity": 101,
                "duration": 0.1840909,
                "tempo": 120.0
            },
            {
                "start_time": 11.2204545,
                "end_time": 11.4045455,
                "pitch": 60,
                "velocity": 101,
                "duration": 0.1840909,
                "tempo": 120.0
            },
            {
                "start_time": 11.4227273,
                "end_time": 11.6068182,
                "pitch": 64,
                "velocity": 101,
                "duration": 0.1840909,
                "tempo": 120.0
            },
            {
                "start_time": 11.6227273,
                "end_time": 11.8090909,
                "pitch": 67,
                "velocity": 101,
                "duration": 0.1863636,
                "tempo": 120.0
            },
            {
                "start_time": 11.825,
                "end_time": 12.0090909,
                "pitch": 70,
                "velocity": 101,
                "duration": 0.1840909,
                "tempo": 120.0
            },
            {
                "start_time": 12.025,
                "end_time": 12.2090909,
                "pitch": 70,
                "velocity": 101,
                "duration": 0.1840909,
                "tempo": 120.0
            },
            {
                "start_time": 12.225,
                "end_time": 12.4090909,
                "pitch": 70,
                "velocity": 101,
                "duration": 0.1840909,
                "tempo": 120.0
            },
            {
                "start_time": 12.4272727,
                "end_time": 12.6113636,
                "pitch": 70,
                "velocity": 101,
                "duration": 0.1840909,
                "tempo": 120.0
            },
            {
                "start_time": 12.6272727,
                "end_time": 12.8113636,
                "pitch": 70,
                "velocity": 101,
                "duration": 0.1840909,
                "tempo": 120.0
            },
            {
                "start_time": 12.8295455,
                "end_time": 13.0136364,
                "pitch": 67,
                "velocity": 101,
                "duration": 0.1840909,
                "tempo": 120.0
            },
            {
                "start_time": 13.0295455,
                "end_time": 13.2181818,
                "pitch": 76,
                "velocity": 101,
                "duration": 0.1886364,
                "tempo": 120.0
            },
            {
                "start_time": 13.2363636,
                "end_time": 13.425,
                "pitch": 72,
                "velocity": 101,
                "duration": 0.1886364,
                "tempo": 120.0
            },
            {
                "start_time": 13.4409091,
                "end_time": 13.625,
                "pitch": 70,
                "velocity": 101,
                "duration": 0.1840909,
                "tempo": 120.0
            },
            {
                "start_time": 13.6431818,
                "end_time": 13.8272727,
                "pitch": 72,
                "velocity": 101,
                "duration": 0.1840909,
                "tempo": 120.0
            },
            {
                "start_time": 13.8431818,
                "end_time": 14.0272727,
                "pitch": 70,
                "velocity": 101,
                "duration": 0.1840909,
                "tempo": 120.0
            },
            {
                "start_time": 14.0431818,
                "end_time": 14.2272727,
                "pitch": 67,
                "velocity": 101,
                "duration": 0.1840909,
                "tempo": 120.0
            },
            {
                "start_time": 14.2431818,
                "end_time": 14.4295455,
                "pitch": 72,
                "velocity": 101,
                "duration": 0.1863636,
                "tempo": 120.0
            },
            {
                "start_time": 14.4454545,
                "end_time": 14.6295455,
                "pitch": 67,
                "velocity": 101,
                "duration": 0.1840909,
                "tempo": 120.0
            },
            {
                "start_time": 14.6477273,
                "end_time": 14.8318182,
                "pitch": 76,
                "velocity": 101,
                "duration": 0.1840909,
                "tempo": 120.0
            },
            {
                "start_time": 14.8477273,
                "end_time": 15.0318182,
                "pitch": 72,
                "velocity": 101,
                "duration": 0.1840909,
                "tempo": 120.0
            },
            {
                "start_time": 15.05,
                "end_time": 15.2340909,
                "pitch": 67,
                "velocity": 101,
                "duration": 0.1840909,
                "tempo": 120.0
            },
            {
                "start_time": 15.25,
                "end_time": 15.4363636,
                "pitch": 72,
                "velocity": 101,
                "duration": 0.1863636,
                "tempo": 120.0
            },
            {
                "start_time": 15.4522727,
                "end_time": 15.6363636,
                "pitch": 70,
                "velocity": 101,
                "duration": 0.1840909,
                "tempo": 120.0
            },
            {
                "start_time": 15.6545455,
                "end_time": 15.8386364,
                "pitch": 67,
                "velocity": 101,
                "duration": 0.1840909,
                "tempo": 120.0
            },
            {
                "start_time": 15.8545455,
                "end_time": 16.0386364,
                "pitch": 72,
                "velocity": 101,
                "duration": 0.1840909,
                "tempo": 120.0
            },
            {
                "start_time": 16.0545455,
                "end_time": 16.2386364,
                "pitch": 67,
                "velocity": 101,
                "duration": 0.1840909,
                "tempo": 120.0
            },
            {
                "start_time": 16.2545455,
                "end_time": 16.4386364,
                "pitch": 76,
                "velocity": 101,
                "duration": 0.1840909,
                "tempo": 120.0
            },
            {
                "start_time": 16.4568182,
                "end_time": 16.6409091,
                "pitch": 72,
                "velocity": 101,
                "duration": 0.1840909,
                "tempo": 120.0
            },
            {
                "start_time": 16.6568182,
                "end_time": 16.8363636,
                "pitch": 67,
                "velocity": 101,
                "duration": 0.1795455,
                "tempo": 120.0
            },
            {
                "start_time": 16.8545455,
                "end_time": 17.0340909,
                "pitch": 72,
                "velocity": 101,
                "duration": 0.1795455,
                "tempo": 120.0
            },
            {
                "start_time": 17.05,
                "end_time": 17.2340909,
                "pitch": 70,
                "velocity": 101,
                "duration": 0.1840909,
                "tempo": 120.0
            },
            {
                "start_time": 17.25,
                "end_time": 17.4363636,
                "pitch": 67,
                "velocity": 101,
                "duration": 0.1863636,
                "tempo": 120.0
            },
            {
                "start_time": 17.4522727,
                "end_time": 17.6409091,
                "pitch": 70,
                "velocity": 101,
                "duration": 0.1886364,
                "tempo": 120.0
            },
            {
                "start_time": 17.6568182,
                "end_time": 17.8454545,
                "pitch": 72,
                "velocity": 101,
                "duration": 0.1886364,
                "tempo": 120.0
            },
            {
                "start_time": 17.8636364,
                "end_time": 18.0431818,
                "pitch": 67,
                "velocity": 101,
                "duration": 0.1795455,
                "tempo": 120.0
            },
            {
                "start_time": 18.0590909,
                "end_time": 18.2386364,
                "pitch": 70,
                "velocity": 101,
                "duration": 0.1795455,
                "tempo": 120.0
            },
            {
                "start_time": 18.2545455,
                "end_time": 18.4386364,
                "pitch": 72,
                "velocity": 101,
                "duration": 0.1840909,
                "tempo": 120.0
            },
            {
                "start_time": 18.4545455,
                "end_time": 18.6386364,
                "pitch": 67,
                "velocity": 101,
                "duration": 0.1840909,
                "tempo": 120.0
            },
            {
                "start_time": 18.6545455,
                "end_time": 18.8386364,
                "pitch": 70,
                "velocity": 101,
                "duration": 0.1840909,
                "tempo": 120.0
            },
            {
                "start_time": 18.8545455,
                "end_time": 19.0386364,
                "pitch": 72,
                "velocity": 101,
                "duration": 0.1840909,
                "tempo": 120.0
            },
            {
                "start_time": 19.0545455,
                "end_time": 19.2409091,
                "pitch": 67,
                "velocity": 101,
                "duration": 0.1863636,
                "tempo": 120.0
            },
            {
                "start_time": 19.2568182,
                "end_time": 19.4409091,
                "pitch": 67,
                "velocity": 101,
                "duration": 0.1840909,
                "tempo": 120.0
            },
            {
                "start_time": 19.4568182,
                "end_time": 19.6409091,
                "pitch": 76,
                "velocity": 101,
                "duration": 0.1840909,
                "tempo": 120.0
            },
            {
                "start_time": 19.6568182,
                "end_time": 19.8409091,
                "pitch": 72,
                "velocity": 101,
                "duration": 0.1840909,
                "tempo": 120.0
            },
            {
                "start_time": 19.8568182,
                "end_time": 20.0454545,
                "pitch": 67,
                "velocity": 101,
                "duration": 0.1886364,
                "tempo": 120.0
            },
            {
                "start_time": 20.0636364,
                "end_time": 20.2522727,
                "pitch": 72,
                "velocity": 101,
                "duration": 0.1886364,
                "tempo": 120.0
            },
            {
                "start_time": 20.2681818,
                "end_time": 20.4522727,
                "pitch": 70,
                "velocity": 101,
                "duration": 0.1840909,
                "tempo": 120.0
            },
            {
                "start_time": 20.4704545,
                "end_time": 20.6545455,
                "pitch": 67,
                "velocity": 101,
                "duration": 0.1840909,
                "tempo": 120.0
            },
            {
                "start_time": 20.6704545,
                "end_time": 20.8545455,
                "pitch": 72,
                "velocity": 101,
                "duration": 0.1840909,
                "tempo": 120.0
            },
            {
                "start_time": 20.8704545,
                "end_time": 21.0545455,
                "pitch": 67,
                "velocity": 101,
                "duration": 0.1840909,
                "tempo": 120.0
            },
            {
                "start_time": 21.0704545,
                "end_time": 21.2545455,
                "pitch": 76,
                "velocity": 101,
                "duration": 0.1840909,
                "tempo": 120.0
            },
            {
                "start_time": 21.2704545,
                "end_time": 21.4545455,
                "pitch": 72,
                "velocity": 101,
                "duration": 0.1840909,
                "tempo": 120.0
            },
            {
                "start_time": 21.4704545,
                "end_time": 21.6568182,
                "pitch": 67,
                "velocity": 101,
                "duration": 0.1863636,
                "tempo": 120.0
            },
            {
                "start_time": 21.6727273,
                "end_time": 21.8568182,
                "pitch": 72,
                "velocity": 101,
                "duration": 0.1840909,
                "tempo": 120.0
            },
            {
                "start_time": 21.875,
                "end_time": 22.0545455,
                "pitch": 70,
                "velocity": 101,
                "duration": 0.1795455,
                "tempo": 120.0
            },
            {
                "start_time": 22.0704545,
                "end_time": 22.25,
                "pitch": 67,
                "velocity": 101,
                "duration": 0.1795455,
                "tempo": 120.0
            },
            {
                "start_time": 22.2659091,
                "end_time": 22.45,
                "pitch": 72,
                "velocity": 101,
                "duration": 0.1840909,
                "tempo": 120.0
            },
            {
                "start_time": 22.4659091,
                "end_time": 22.65,
                "pitch": 67,
                "velocity": 101,
                "duration": 0.1840909,
                "tempo": 120.0
            },
            {
                "start_time": 22.6659091,
                "end_time": 22.8545455,
                "pitch": 76,
                "velocity": 101,
                "duration": 0.1886364,
                "tempo": 120.0
            },
            {
                "start_time": 22.8727273,
                "end_time": 23.0590909,
                "pitch": 67,
                "velocity": 101,
                "duration": 0.1863636,
                "tempo": 120.0
            },
            {
                "start_time": 23.0772727,
                "end_time": 23.2613636,
                "pitch": 72,
                "velocity": 101,
                "duration": 0.1840909,
                "tempo": 120.0
            },
            {
                "start_time": 23.2772727,
                "end_time": 23.4613636,
                "pitch": 67,
                "velocity": 101,
                "duration": 0.1840909,
                "tempo": 120.0
            },
            {
                "start_time": 23.4772727,
                "end_time": 23.6568182,
                "pitch": 70,
                "velocity": 101,
                "duration": 0.1795455,
                "tempo": 120.0
            },
            {
                "start_time": 23.6727273,
                "end_time": 23.8522727,
                "pitch": 72,
                "velocity": 101,
                "duration": 0.1795455,
                "tempo": 120.0
            },
            {
                "start_time": 23.8704545,
                "end_time": 24.0568182,
                "pitch": 67,
                "velocity": 101,
                "duration": 0.1863636,
                "tempo": 120.0
            },
            {
                "start_time": 24.075,
                "end_time": 24.2636364,
                "pitch": 76,
                "velocity": 101,
                "duration": 0.1886364,
                "tempo": 120.0
            },
            {
                "start_time": 24.2795455,
                "end_time": 24.4636364,
                "pitch": 76,
                "velocity": 101,
                "duration": 0.1840909,
                "tempo": 120.0
            },
            {
                "start_time": 24.4818182,
                "end_time": 24.6659091,
                "pitch": 76,
                "velocity": 101,
                "duration": 0.1840909,
                "tempo": 120.0
            },
            {
                "start_time": 24.6818182,
                "end_time": 24.8613636,
                "pitch": 76,
                "velocity": 101,
                "duration": 0.1795455,
                "tempo": 120.0
            },
            {
                "start_time": 24.8795455,
                "end_time": 25.0590909,
                "pitch": 76,
                "velocity": 101,
                "duration": 0.1795455,
                "tempo": 120.0
            },
            {
                "start_time": 25.075,
                "end_time": 25.2545455,
                "pitch": 76,
                "velocity": 101,
                "duration": 0.1795455,
                "tempo": 120.0
            },
            {
                "start_time": 25.2704545,
                "end_time": 25.45,
                "pitch": 76,
                "velocity": 101,
                "duration": 0.1795455,
                "tempo": 120.0
            },
            {
                "start_time": 25.4681818,
                "end_time": 25.6522727,
                "pitch": 76,
                "velocity": 101,
                "duration": 0.1840909,
                "tempo": 120.0
            }
        ]
    }
}