{
    "mood": "happy",
    "instruments": {
        "Electric Piano 1": [
            {
                "start_time": 0.1022727,
                "end_time": 0.2681818,
                "pitch": 38,
                "velocity": 64,
                "duration": 0.1659091,
                "tempo": 120.0
            },
            {
                "start_time": 0.2681818,
                "end_time": 0.6045455,
                "pitch": 38,
                "velocity": 64,
                "duration": 0.3363636,
                "tempo": 120.0
            },
            {
                "start_time": 0.6045455,
                "end_time": 0.7727273,
                "pitch": 38,
                "velocity": 64,
                "duration": 0.1681818,
                "tempo": 120.0
            },
            {
                "start_time": 0.7727273,
                "end_time": 1.4522727,
                "pitch": 38,
                "velocity": 64,
                "duration": 0.6795455,
                "tempo": 120.0
            },
            {
                "start_time": 1.4522727,
                "end_time": 1.6181818,
                "pitch": 38,
                "velocity": 64,
                "duration": 0.1659091,
                "tempo": 120.0
            },
            {
                "start_time": 1.6204545,
                "end_time": 1.9545455,
                "pitch": 38,
                "velocity": 64,
                "duration": 0.3340909,
                "tempo": 120.0
            },
            {
                "start_time": 1.9545455,
                "end_time": 2.1227273,
                "pitch": 38,
                "velocity": 64,
                "duration": 0.1681818,
                "tempo": 120.0
            },
            {
                "start_time": 2.1227273,
                "end_time": 2.7954545,
                "pitch": 38,
                "velocity": 64,
                "duration": 0.6727273,
                "tempo": 120.0
            },
            {
                "start_time": 2.7954545,
                "end_time": 2.9613636,
                "pitch": 38,
                "velocity": 64,
                "duration": 0.1659091,
                "tempo": 120.0
            },
            {
                "start_time": 2.9613636,
                "end_time": 3.2931818,
                "pitch": 38,
                "velocity": 64,
                "duration": 0.3318182,
                "tempo": 120.0
            },
            {
                "start_time": 3.2931818,
                "end_time": 3.4590909,
                "pitch": 38,
                "velocity": 64,
                "duration": 0.1659091,
                "tempo": 120.0
            },
            {
                "start_time": 3.4590909,
                "end_time": 4.1318182,
                "pitch": 38,
                "velocity": 64,
                "duration": 0.6727273,
                "tempo": 120.0
            },
            {
                "start_time": 4.1318182,
                "end_time": 4.2977273,
                "pitch": 38,
                "velocity": 64,
                "duration": 0.1659091,
                "tempo": 120.0
            },
            {
                "start_time": 4.2977273,
                "end_time": 4.6340909,
                "pitch": 38,
                "velocity": 64,
                "duration": 0.3363636,
                "tempo": 120.0
            },
            {
                "start_time": 4.6340909,
                "end_time": 4.8022727,
                "pitch": 38,
                "velocity": 64,
                "duration": 0.1681818,
                "tempo": 120.0
            },
            {
                "start_time": 4.8022727,
                "end_time": 5.475,
                "pitch": 38,
                "velocity": 64,
                "duration": 0.6727273,
                "tempo": 120.0
            },
            {
                "start_time": 5.475,
                "end_time": 5.6386364,
                "pitch": 38,
                "velocity": 64,
                "duration": 0.1636364,
                "tempo": 120.0
            },
            {
                "start_time": 5.6409091,
                "end_time": 5.9704545,
                "pitch": 38,
                "velocity": 64,
                "duration": 0.3295455,
                "tempo": 120.0
            },
            {
                "start_time": 5.9727273,
                "end_time": 6.1386364,
                "pitch": 38,
                "velocity": 64,
                "duration": 0.1659091,
                "tempo": 120.0
            },
            {
                "start_time": 6.1386364,
                "end_time": 6.8090909,
                "pitch": 38,
                "velocity": 64,
                "duration": 0.6704545,
                "tempo": 120.0
            },
            {
                "start_time": 6.8090909,
                "end_time": 6.9772727,
                "pitch": 38,
                "velocity": 64,
                "duration": 0.1681818,
                "tempo": 120.0
            },
            {
                "start_time": 6.9772727,
                "end_time": 7.3136364,
                "pitch": 38,
                "velocity": 64,
                "duration": 0.3363636,
                "tempo": 120.0
            },
            {
                "start_time": 7.3136364,
                "end_time": 7.4818182,
                "pitch": 38,
                "velocity": 64,
                "duration": 0.1681818,
                "tempo": 120.0
            },
            {
                "start_time": 7.4818182,
                "end_time": 8.1522727,
                "pitch": 38,
                "velocity": 64,
                "duration": 0.6704545,
                "tempo": 120.0
            },
            {
                "start_time": 8.1522727,
                "end_time": 8.3181818,
                "pitch": 38,
                "velocity": 64,
                "duration": 0.1659091,
                "tempo": 120.0
            },
            {
                "start_time": 8.3181818,
                "end_time": 8.65,
                "pitch": 38,
                "velocity": 64,
                "duration": 0.3318182,
                "tempo": 120.0
            },
            {
                "start_time": 8.65,
                "end_time": 8.8159091,
                "pitch": 38,
                "velocity": 64,
                "duration": 0.1659091,
                "tempo": 120.0
            },
            {
                "start_time": 8.8181818,
                "end_time": 9.4886364,
                "pitch": 38,
                "velocity": 64,
                "duration": 0.6704545,
                "tempo": 120.0
            },
            {
                "start_time": 9.4886364,
                "end_time": 9.6568182,
                "pitch": 38,
                "velocity": 64,
                "duration": 0.1681818,
                "tempo": 120.0
            },
            {
                "start_time": 9.6568182,
                "end_time": 9.9909091,
                "pitch": 38,
                "velocity": 64,
                "duration": 0.3340909,
                "tempo": 120.0
            },
            {
                "start_time": 9.9931818,
                "end_time": 10.1590909,
                "pitch": 38,
                "velocity": 64,
                "duration": 0.1659091,
                "tempo": 120.0
            },
            {
                "start_time": 10.1613636,
                "end_time": 10.8318182,
                "pitch": 38,
                "velocity": 64,
                "duration": 0.6704545,
                "tempo": 120.0
            },
            {
                "start_time": 10.8318182,
                "end_time": 10.9977273,
                "pitch": 38,
                "velocity": 64,
                "duration": 0.1659091,
                "tempo": 120.0
            },
            {
                "start_time": 10.9977273,
                "end_time": 11.3295455,
                "pitch": 38,
                "velocity": 64,
                "duration": 0.3318182,
                "tempo": 120.0
            },
            {
                "start_time": 11.3295455,
                "end_time": 11.4954545,
                "pitch": 38,
                "velocity": 64,
                "duration": 0.1659091,
                "tempo": 120.0
            },
            {
                "start_time": 11.4954545,
                "end_time": 12.1681818,
                "pitch": 38,
                "velocity": 64,
                "duration": 0.6727273,
                "tempo": 120.0
            },
            {
                "start_time": 12.1681818,
                "end_time": 12.3340909,
                "pitch": 38,
                "velocity": 64,
                "duration": 0.1659091,
                "tempo": 120.0
            },
            {
                "start_time": 12.3363636,
                "end_time": 12.6704545,
                "pitch": 38,
                "velocity": 64,
                "duration": 0.3340909,
                "tempo": 120.0
            },
            {
                "start_time": 12.6704545,
                "end_time": 13.5022727,
                "pitch": 38,
                "velocity": 64,
                "duration": 0.8318182,
                "tempo": 120.0
            },
            {
                "start_time": 13.5045455,
                "end_time": 13.6704545,
                "pitch": 38,
                "velocity": 64,
                "duration": 0.1659091,
                "tempo": 120.0
            },
            {
                "start_time": 13.6704545,
                "end_time": 14.0068182,
                "pitch": 38,
                "velocity": 64,
                "duration": 0.3363636,
                "tempo": 120.0
            },
            {
                "start_time": 14.0068182,
                "end_time": 14.8454545,
                "pitch": 38,
                "velocity": 64,
                "duration": 0.8386364,
                "tempo": 120.0
            },
            {
                "start_time": 15.1818182,
                "end_time": 15.5181818,
                "pitch": 38,
                "velocity": 64,
                "duration": 0.3363636,
                "tempo": 120.0
            },
            {
                "start_time": 15.5181818,
                "end_time": 16.8454545,
                "pitch": 38,
                "velocity": 64,
                "duration": 1.3272727,
                "tempo": 120.0
            },
            {
                "start_time": 16.8477273,
                "end_time": 17.0136364,
                "pitch": 38,
                "velocity": 64,
                "duration": 0.1659091,
                "tempo": 120.0
            },
            {
                "start_time": 17.0136364,
                "end_time": 17.6818182,
                "pitch": 38,
                "velocity": 64,
                "duration": 0.6681818,
                "tempo": 120.0
            }
        ],
        "Lead 2 (sawtooth)": [
            {
                "start_time": 0.4022727,
                "end_time": 0.5363636,
                "pitch": 86,
                "velocity": 32,
                "duration": 0.1340909,
                "tempo": 120.0
            },
            {
                "start_time": 0.7386364,
                "end_time": 0.8727273,
                "pitch": 90,
                "velocity": 32,
                "duration": 0.1340909,
                "tempo": 120.0
            },
            {
                "start_time": 1.0772727,
                "end_time": 1.2136364,
                "pitch": 93,
                "velocity": 32,
                "duration": 0.1363636,
                "tempo": 120.0
            },
            {
                "start_time": 1.4181818,
                "end_time": 1.5522727,
                "pitch": 90,
                "velocity": 32,
                "duration": 0.1340909,
                "tempo": 120.0
            },
            {
                "start_time": 1.7545455,
                "end_time": 1.8863636,
                "pitch": 86,
                "velocity": 32,
                "duration": 0.1318182,
                "tempo": 120.0
            },
            {
                "start_time": 2.0886364,
                "end_time": 2.2227273,
                "pitch": 90,
                "velocity": 32,
                "duration": 0.1340909,
                "tempo": 120.0
            },
            {
                "start_time": 2.425,
                "end_time": 2.5590909,
                "pitch": 93,
                "velocity": 32,
                "duration": 0.1340909,
                "tempo": 120.0
            },
            {
                "start_time": 2.7613636,
                "end_time": 2.8931818,
                "pitch": 90,
                "velocity": 32,
                "duration": 0.1318182,
                "tempo": 120.0
            },
            {
                "start_time": 3.0931818,
                "end_time": 3.225,
                "pitch": 86,
                "velocity": 32,
                "duration": 0.1318182,
                "tempo": 120.0
            },
            {
                "start_time": 3.425,
                "end_time": 3.5590909,
                "pitch": 90,
                "velocity": 32,
                "duration": 0.1340909,
                "tempo": 120.0
            },
            {
                "start_time": 3.7613636,
                "end_time": 3.8931818,
                "pitch": 93,
                "velocity": 32,
                "duration": 0.1318182,
                "tempo": 120.0
            },
            {
                "start_time": 4.0977273,
                "end_time": 4.2295455,
                "pitch": 90,
                "velocity": 32,
                "duration": 0.1318182,
                "tempo": 120.0
            },
            {
                "start_time": 4.4318182,
                "end_time": 4.5659091,
                "pitch": 86,
                "velocity": 32,
                "duration": 0.1340909,
                "tempo": 120.0
            },
            {
                "start_time": 4.7681818,
                "end_time": 4.9022727,
                "pitch": 90,
                "velocity": 32,
                "duration": 0.1340909,
                "tempo": 120.0
            },
            {
                "start_time": 5.1045455,
                "end_time": 5.2363636,
                "pitch": 93,
                "velocity": 32,
                "duration": 0.1318182,
                "tempo": 120.0
            },
            {
                "start_time": 5.4409091,
                "end_time": 5.5727273,
                "pitch": 90,
                "velocity": 32,
                "duration": 0.1318182,
                "tempo": 120.0
            },
            {
                "start_time": 5.7727273,
                "end_time": 5.9045455,
                "pitch": 86,
                "velocity": 32,
                "duration": 0.1318182,
                "tempo": 120.0
            },
            {
                "start_time": 6.1045455,
                "end_time": 6.2363636,
                "pitch": 90,
                "velocity": 32,
                "duration": 0.1318182,
                "tempo": 120.0
            },
            {
                "start_time": 6.4386364,
                "end_time": 6.5727273,
                "pitch": 93,
                "velocity": 32,
                "duration": 0.1340909,
                "tempo": 120.0
            },
            {
                "start_time": 6.775,
                "end_time": 6.9090909,
                "pitch": 90,
                "velocity": 32,
                "duration": 0.1340909,
                "tempo": 120.0
            },
            {
                "start_time": 7.1113636,
                "end_time": 7.2454545,
                "pitch": 86,
                "velocity": 32,
                "duration": 0.1340909,
                "tempo": 120.0
            },
            {
                "start_time": 7.4477273,
                "end_time": 7.5795455,
                "pitch": 90,
                "velocity": 32,
                "duration": 0.1318182,
                "tempo": 120.0
            },
            {
                "start_time": 7.7818182,
                "end_time": 7.9159091,
                "pitch": 93,
                "velocity": 32,
                "duration": 0.1340909,
                "tempo": 120.0
            },
            {
                "start_time": 8.1181818,
                "end_time": 8.25,
                "pitch": 90,
                "velocity": 32,
                "duration": 0.1318182,
                "tempo": 120.0
            },
            {
                "start_time": 8.4522727,
                "end_time": 8.5840909,
                "pitch": 86,
                "velocity": 32,
                "duration": 0.1318182,
                "tempo": 120.0
            },
            {
                "start_time": 8.7840909,
                "end_time": 8.9159091,
                "pitch": 90,
                "velocity": 32,
                "duration": 0.1318182,
                "tempo": 120.0
            },
            {
                "start_time": 9.1181818,
                "end_time": 9.2522727,
                "pitch": 93,
                "velocity": 32,
                "duration": 0.1340909,
                "tempo": 120.0
            },
            {
                "start_time": 9.4545455,
                "end_time": 9.5886364,
                "pitch": 90,
                "velocity": 32,
                "duration": 0.1340909,
                "tempo": 120.0
            },
            {
                "start_time": 9.7909091,
                "end_time": 9.9227273,
                "pitch": 86,
                "velocity": 32,
                "duration": 0.1318182,
                "tempo": 120.0
            },
            {
                "start_time": 10.125,
                "end_time": 10.2590909,
                "pitch": 90,
                "velocity": 32,
                "duration": 0.1340909,
                "tempo": 120.0
            },
            {
                "start_time": 10.4613636,
                "end_time": 10.5954545,
                "pitch": 93,
                "velocity": 32,
                "duration": 0.1340909,
                "tempo": 120.0
            },
            {
                "start_time": 10.7977273,
                "end_time": 10.9295455,
                "pitch": 90,
                "velocity": 32,
                "duration": 0.1318182,
                "tempo": 120.0
            },
            {
                "start_time": 11.1295455,
                "end_time": 11.2613636,
                "pitch": 86,
                "velocity": 32,
                "duration": 0.1318182,
                "tempo": 120.0
            },
            {
                "start_time": 11.4613636,
                "end_time": 11.5954545,
                "pitch": 90,
                "velocity": 32,
                "duration": 0.1340909,
                "tempo": 120.0
            },
            {
                "start_time": 11.7977273,
                "end_time": 11.9318182,
                "pitch": 93,
                "velocity": 32,
                "duration": 0.1340909,
                "tempo": 120.0
            },
            {
                "start_time": 12.1340909,
                "end_time": 12.2659091,
                "pitch": 90,
                "velocity": 32,
                "duration": 0.1318182,
                "tempo": 120.0
            },
            {
                "start_time": 12.4681818,
                "end_time": 12.6022727,
                "pitch": 93,
                "velocity": 32,
                "duration": 0.1340909,
                "tempo": 120.0
            },
            {
                "start_time": 12.8045455,
                "end_time": 12.9204545,
                "pitch": 91,
                "velocity": 32,
                "duration": 0.1159091,
                "tempo": 120.0
            },
            {
                "start_time": 12.9204545,
                "end_time": 12.9363636,
                "pitch": 91,
                "velocity": 32,
                "duration": 0.0159091,
                "tempo": 120.0
            },
            {
                "start_time": 13.1363636,
                "end_time": 13.2704545,
                "pitch": 90,
                "velocity": 32,
                "duration": 0.1340909,
                "tempo": 120.0
            },
            {
                "start_time": 13.4704545,
                "end_time": 13.6022727,
                "pitch": 90,
                "velocity": 32,
                "duration": 0.1318182,
                "tempo": 120.0
            },
            {
                "start_time": 13.8045455,
                "end_time": 13.9386364,
                "pitch": 93,
                "velocity": 32,
                "duration": 0.1340909,
                "tempo": 120.0
            },
            {
                "start_time": 14.1409091,
                "end_time": 14.2568182,
                "pitch": 91,
                "velocity": 32,
                "duration": 0.1159091,
                "tempo": 120.0
            },
            {
                "start_time": 12.9204545,
                "end_time": 14.2568182,
                "pitch": 103,
                "velocity": 32,
                "duration": 1.3363636,
                "tempo": 120.0
            },
            {
                "start_time": 14.2568182,
                "end_time": 14.275,
                "pitch": 91,
                "velocity": 32,
                "duration": 0.0181818,
                "tempo": 120.0
            },
            {
                "start_time": 14.4772727,
                "end_time": 14.6090909,
                "pitch": 90,
                "velocity": 32,
                "duration": 0.1318182,
                "tempo": 120.0
            },
            {
                "start_time": 14.8113636,
                "end_time": 14.9454545,
                "pitch": 90,
                "velocity": 32,
                "duration": 0.1340909,
                "tempo": 120.0
            },
            {
                "start_time": 16.8113636,
                "end_time": 16.9454545,
                "pitch": 90,
                "velocity": 32,
                "duration": 0.1340909,
                "tempo": 120.0
            }
        ]
    }
}