{
    "mood": "happy",
    "instruments": {
        "Acoustic Grand Piano": [
            {
                "start_time": 0.0,
                "end_time": 0.2659091,
                "pitch": 65,
                "velocity": 40,
                "duration": 0.2659091,
                "tempo": 120.0
            },
            {
                "start_time": 0.2840909,
                "end_time": 0.5659091,
                "pitch": 63,
                "velocity": 40,
                "duration": 0.2818182,
                "tempo": 120.0
            },
            {
                "start_time": 0.5863636,
                "end_time": 1.1613636,
                "pitch": 65,
                "velocity": 40,
                "duration": 0.575,
                "tempo": 120.0
            },
            {
                "start_time": 1.1954545,
                "end_time": 1.7681818,
                "pitch": 67,
                "velocity": 40,
                "duration": 0.5727273,
                "tempo": 120.0
            },
            {
                "start_time": 1.8022727,
                "end_time": 2.175,
                "pitch": 65,
                "velocity": 40,
                "duration": 0.3727273,
                "tempo": 120.0
            },
            {
                "start_time": 2.2090909,
                "end_time": 2.5795455,
                "pitch": 63,
                "velocity": 40,
                "duration": 0.3704545,
                "tempo": 120.0
            },
            {
                "start_time": 2.6136364,
                "end_time": 2.9863636,
                "pitch": 62,
                "velocity": 40,
                "duration": 0.3727273,
                "tempo": 120.0
            },
            {
                "start_time": 3.0181818,
                "end_time": 3.3909091,
                "pitch": 60,
                "velocity": 40,
                "duration": 0.3727273,
                "tempo": 120.0
            },
            {
                "start_time": 3.425,
                "end_time": 3.7954545,
                "pitch": 58,
                "velocity": 40,
                "duration": 0.3704545,
                "tempo": 120.0
            },
            {
                "start_time": 3.8295455,
                "end_time": 3.9977273,
                "pitch": 62,
                "velocity": 40,
                "duration": 0.1681818,
                "tempo": 120.0
            },
            {
                "start_time": 4.0295455,
                "end_time": 5.7909091,
                "pitch": 62,
                "velocity": 40,
                "duration": 1.7613636,
                "tempo": 120.0
            }
        ],
        "Acoustic Bass": [
            {
                "start_time": 0.0,
                "end_time": 0.1659091,
                "pitch": 39,
                "velocity": 51,
                "duration": 0.1659091,
                "tempo": 120.0
            },
            {
                "start_time": 0.1840909,
                "end_time": 0.3659091,
                "pitch": 49,
                "velocity": 51,
                "duration": 0.1818182,
                "tempo": 120.0
            },
            {
                "start_time": 0.3840909,
                "end_time": 0.5659091,
                "pitch": 39,
                "velocity": 51,
                "duration": 0.1818182,
                "tempo": 120.0
            },
            {
                "start_time": 0.5863636,
                "end_time": 0.9590909,
                "pitch": 46,
                "velocity": 51,
                "duration": 0.3727273,
                "tempo": 120.0
            },
            {
                "start_time": 0.9931818,
                "end_time": 1.3636364,
                "pitch": 39,
                "velocity": 51,
                "duration": 0.3704545,
                "tempo": 120.0
            },
            {
                "start_time": 1.3977273,
                "end_time": 1.7681818,
                "pitch": 49,
                "velocity": 51,
                "duration": 0.3704545,
                "tempo": 120.0
            },
            {
                "start_time": 1.8022727,
                "end_time": 2.175,
                "pitch": 39,
                "velocity": 51,
                "duration": 0.3727273,
                "tempo": 120.0
            },
            {
                "start_time": 2.2090909,
                "end_time": 2.5795455,
                "pitch": 46,
                "velocity": 51,
                "duration": 0.3704545,
                "tempo": 120.0
            },
            {
                "start_time": 2.6136364,
                "end_time": 2.9863636,
                "pitch": 34,
                "velocity": 51,
                "duration": 0.3727273,
                "tempo": 120.0
            },
            {
                "start_time": 3.0181818,
                "end_time": 3.3909091,
                "pitch": 44,
                "velocity": 51,
                "duration": 0.3727273,
                "tempo": 120.0
            },
            {
                "start_time": 3.425,
                "end_time": 3.7954545,
                "pitch": 34,
                "velocity": 51,
                "duration": 0.3704545,
                "tempo": 120.0
            },
            {
                "start_time": 3.8295455,
                "end_time": 4.1977273,
                "pitch": 41,
                "velocity": 51,
                "duration": 0.3681818,
                "tempo": 120.0
            },
            {
                "start_time": 4.2295455,
                "end_time": 4.5977273,
                "pitch": 39,
                "velocity": 51,
                "duration": 0.3681818,
                "tempo": 120.0
            },
            {
                "start_time": 4.6295455,
                "end_time": 5.7909091,
                "pitch": 46,
                "velocity": 51,
                "duration": 1.1613636,
                "tempo": 120.0
            }
        ]
    }
}