{
    "mood": "happy",
    "instruments": {
        "French Horn": [
            {
                "start_time": 38.6431818,
                "end_time": 38.8409091,
                "pitch": 64,
                "velocity": 101,
                "duration": 0.1977273,
                "tempo": 120.0
            },
            {
                "start_time": 38.8431818,
                "end_time": 39.2431818,
                "pitch": 64,
                "velocity": 101,
                "duration": 0.4,
                "tempo": 120.0
            },
            {
                "start_time": 39.2454545,
                "end_time": 39.8568182,
                "pitch": 62,
                "velocity": 101,
                "duration": 0.6113636,
                "tempo": 120.0
            },
            {
                "start_time": 39.8568182,
                "end_time": 41.05,
                "pitch": 62,
                "velocity": 101,
                "duration": 1.1931818,
                "tempo": 120.0
            },
            {
                "start_time": 41.8545455,
                "end_time": 42.0590909,
                "pitch": 62,
                "velocity": 101,
                "duration": 0.2045455,
                "tempo": 120.0
            },
            {
                "start_time": 42.0613636,
                "end_time": 42.4659091,
                "pitch": 62,
                "velocity": 101,
                "duration": 0.4045455,
                "tempo": 120.0
            },
            {
                "start_time": 42.4681818,
                "end_time": 43.0681818,
                "pitch": 60,
                "velocity": 101,
                "duration": 0.6,
                "tempo": 120.0
            },
            {
                "start_time": 43.0704545,
                "end_time": 44.2704545,
                "pitch": 60,
                "velocity": 101,
                "duration": 1.2,
                "tempo": 120.0
            },
            {
                "start_time": 45.075,
                "end_time": 45.275,
                "pitch": 64,
                "velocity": 101,
                "duration": 0.2,
                "tempo": 120.0
            },
            {
                "start_time": 45.275,
                "end_time": 45.675,
                "pitch": 64,
                "velocity": 101,
                "duration": 0.4,
                "tempo": 120.0
            },
            {
                "start_time": 45.675,
                "end_time": 46.2863636,
                "pitch": 62,
                "velocity": 101,
                "duration": 0.6113636,
                "tempo": 120.0
            },
            {
                "start_time": 46.2863636,
                "end_time": 47.4795455,
                "pitch": 62,
                "velocity": 101,
                "duration": 1.1931818,
                "tempo": 120.0
            },
            {
                "start_time": 48.2818182,
                "end_time": 48.4818182,
                "pitch": 62,
                "velocity": 101,
                "duration": 0.2,
                "tempo": 120.0
            },
            {
                "start_time": 48.4840909,
                "end_time": 48.8909091,
                "pitch": 62,
                "velocity": 101,
                "duration": 0.4068182,
                "tempo": 120.0
            },
            {
                "start_time": 48.8909091,
                "end_time": 49.4954545,
                "pitch": 60,
                "velocity": 101,
                "duration": 0.6045455,
                "tempo": 120.0
            },
            {
                "start_time": 49.4977273,
                "end_time": 50.7,
                "pitch": 60,
                "velocity": 101,
                "duration": 1.2022727,
                "tempo": 120.0
            },
            {
                "start_time": 51.5068182,
                "end_time": 51.7045455,
                "pitch": 76,
                "velocity": 101,
                "duration": 0.1977273,
                "tempo": 120.0
            },
            {
                "start_time": 51.7068182,
                "end_time": 52.1068182,
                "pitch": 76,
                "velocity": 101,
                "duration": 0.4,
                "tempo": 120.0
            },
            {
                "start_time": 52.1068182,
                "end_time": 52.7204545,
                "pitch": 74,
                "velocity": 101,
                "duration": 0.6136364,
                "tempo": 120.0
            },
            {
                "start_time": 52.7204545,
                "end_time": 53.9136364,
                "pitch": 74,
                "velocity": 101,
                "duration": 1.1931818,
                "tempo": 120.0
            },
            {
                "start_time": 54.7181818,
                "end_time": 54.9181818,
                "pitch": 74,
                "velocity": 101,
                "duration": 0.2,
                "tempo": 120.0
            },
            {
                "start_time": 54.9181818,
                "end_time": 55.3181818,
                "pitch": 74,
                "velocity": 101,
                "duration": 0.4,
                "tempo": 120.0
            },
            {
                "start_time": 55.3181818,
                "end_time": 55.9295455,
                "pitch": 72,
                "velocity": 101,
                "duration": 0.6113636,
                "tempo": 120.0
            },
            {
                "start_time": 55.9295455,
                "end_time": 57.1227273,
                "pitch": 72,
                "velocity": 101,
                "duration": 1.1931818,
                "tempo": 120.0
            },
            {
                "start_time": 57.9363636,
                "end_time": 58.1340909,
                "pitch": 76,
                "velocity": 101,
                "duration": 0.1977273,
                "tempo": 120.0
            },
            {
                "start_time": 58.1363636,
                "end_time": 58.5363636,
                "pitch": 76,
                "velocity": 101,
                "duration": 0.4,
                "tempo": 120.0
            },
            {
                "start_time": 58.5363636,
                "end_time": 59.1363636,
                "pitch": 74,
                "velocity": 101,
                "duration": 0.6,
                "tempo": 120.0
            },
            {
                "start_time": 59.1363636,
                "end_time": 60.3409091,
                "pitch": 74,
                "velocity": 101,
                "duration": 1.2045455,
                "tempo": 120.0
            },
            {
                "start_time": 61.1431818,
                "end_time": 61.3431818,
                "pitch": 74,
                "velocity": 101,
                "duration": 0.2,
                "tempo": 120.0
            },
            {
                "start_time": 61.3431818,
                "end_time": 61.7431818,
                "pitch": 74,
                "velocity": 101,
                "duration": 0.4,
                "tempo": 120.0
            },
            {
                "start_time": 61.7454545,
                "end_time": 62.3568182,
                "pitch": 72,
                "velocity": 101,
                "duration": 0.6113636,
                "tempo": 120.0
            },
            {
                "start_time": 62.3568182,
                "end_time": 64.3545455,
                "pitch": 72,
                "velocity": 101,
                "duration": 1.9977273,
                "tempo": 120.0
            }
        ],
        "Vibraphone": [
            {
                "start_time": 0.0363636,
                "end_time": 0.1318182,
                "pitch": 69,
                "velocity": 64,
                "duration": 0.0954545,
                "tempo": 120.0
            },
            {
                "start_time": 0.1340909,
                "end_time": 0.2340909,
                "pitch": 76,
                "velocity": 64,
                "duration": 0.1,
                "tempo": 120.0
            },
            {
                "start_time": 0.2340909,
                "end_time": 0.3318182,
                "pitch": 72,
                "velocity": 64,
                "duration": 0.0977273,
                "tempo": 120.0
            },
            {
                "start_time": 0.3340909,
                "end_time": 0.4340909,
                "pitch": 76,
                "velocity": 64,
                "duration": 0.1,
                "tempo": 120.0
            },
            {
                "start_time": 0.4340909,
                "end_time": 0.5318182,
                "pitch": 69,
                "velocity": 64,
                "duration": 0.0977273,
                "tempo": 120.0
            },
            {
                "start_time": 0.5340909,
                "end_time": 0.6340909,
                "pitch": 76,
                "velocity": 64,
                "duration": 0.1,
                "tempo": 120.0
            },
            {
                "start_time": 0.6340909,
                "end_time": 0.7340909,
                "pitch": 72,
                "velocity": 64,
                "duration": 0.1,
                "tempo": 120.0
            },
            {
                "start_time": 0.7340909,
                "end_time": 0.8340909,
                "pitch": 76,
                "velocity": 64,
                "duration": 0.1,
                "tempo": 120.0
            },
            {
                "start_time": 0.8363636,
                "end_time": 0.9340909,
                "pitch": 69,
                "velocity": 64,
                "duration": 0.0977273,
                "tempo": 120.0
            },
            {
                "start_time": 0.9340909,
                "end_time": 1.0340909,
                "pitch": 76,
                "velocity": 64,
                "duration": 0.1,
                "tempo": 120.0
            },
            {
                "start_time": 1.0363636,
                "end_time": 1.1340909,
                "pitch": 72,
                "velocity": 64,
                "duration": 0.0977273,
                "tempo": 120.0
            },
            {
                "start_time": 1.1340909,
                "end_time": 1.2340909,
                "pitch": 76,
                "velocity": 64,
                "duration": 0.1,
                "tempo": 120.0
            },
            {
                "start_time": 1.2363636,
                "end_time": 1.3363636,
                "pitch": 69,
                "velocity": 64,
                "duration": 0.1,
                "tempo": 120.0
            },
            {
                "start_time": 1.3363636,
                "end_time": 1.4386364,
                "pitch": 76,
                "velocity": 64,
                "duration": 0.1022727,
                "tempo": 120.0
            },
            {
                "start_time": 1.4409091,
                "end_time": 1.5431818,
                "pitch": 72,
                "velocity": 64,
                "duration": 0.1022727,
                "tempo": 120.0
            },
            {
                "start_time": 1.5431818,
                "end_time": 1.6454545,
                "pitch": 76,
                "velocity": 64,
                "duration": 0.1022727,
                "tempo": 120.0
            },
            {
                "start_time": 1.6477273,
                "end_time": 1.7431818,
                "pitch": 67,
                "velocity": 64,
                "duration": 0.0954545,
                "tempo": 120.0
            },
            {
                "start_time": 1.7431818,
                "end_time": 1.8431818,
                "pitch": 74,
                "velocity": 64,
                "duration": 0.1,
                "tempo": 120.0
            },
            {
                "start_time": 1.8431818,
                "end_time": 1.9386364,
                "pitch": 71,
                "velocity": 64,
                "duration": 0.0954545,
                "tempo": 120.0
            },
            {
                "start_time": 1.9409091,
                "end_time": 2.0386364,
                "pitch": 74,
                "velocity": 64,
                "duration": 0.0977273,
                "tempo": 120.0
            },
            {
                "start_time": 2.0386364,
                "end_time": 2.1409091,
                "pitch": 67,
                "velocity": 64,
                "duration": 0.1022727,
                "tempo": 120.0
            },
            {
                "start_time": 2.1409091,
                "end_time": 2.2431818,
                "pitch": 74,
                "velocity": 64,
                "duration": 0.1022727,
                "tempo": 120.0
            },
            {
                "start_time": 2.2454545,
                "end_time": 2.3454545,
                "pitch": 71,
                "velocity": 64,
                "duration": 0.1,
                "tempo": 120.0
            },
            {
                "start_time": 2.3477273,
                "end_time": 2.45,
                "pitch": 74,
                "velocity": 64,
                "duration": 0.1022727,
                "tempo": 120.0
            },
            {
                "start_time": 2.45,
                "end_time": 2.55,
                "pitch": 67,
                "velocity": 64,
                "duration": 0.1,
                "tempo": 120.0
            },
            {
                "start_time": 2.55,
                "end_time": 2.65,
                "pitch": 74,
                "velocity": 64,
                "duration": 0.1,
                "tempo": 120.0
            },
            {
                "start_time": 2.6522727,
                "end_time": 2.75,
                "pitch": 71,
                "velocity": 64,
                "duration": 0.0977273,
                "tempo": 120.0
            },
            {
                "start_time": 2.75,
                "end_time": 2.85,
                "pitch": 74,
                "velocity": 64,
                "duration": 0.1,
                "tempo": 120.0
            },
            {
                "start_time": 2.85,
                "end_time": 2.95,
                "pitch": 67,
                "velocity": 64,
                "duration": 0.1,
                "tempo": 120.0
            },
            {
                "start_time": 2.95,
                "end_time": 3.05,
                "pitch": 74,
                "velocity": 64,
                "duration": 0.1,
                "tempo": 120.0
            },
            {
                "start_time": 3.0522727,
                "end_time": 3.15,
                "pitch": 71,
                "velocity": 64,
                "duration": 0.0977273,
                "tempo": 120.0
            },
            {
                "start_time": 3.15,
                "end_time": 3.2522727,
                "pitch": 74,
                "velocity": 64,
                "duration": 0.1022727,
                "tempo": 120.0
            },
            {
                "start_time": 3.2522727,
                "end_time": 3.35,
                "pitch": 69,
                "velocity": 64,
                "duration": 0.0977273,
                "tempo": 120.0
            },
            {
                "start_time": 3.3522727,
                "end_time": 3.4522727,
                "pitch": 76,
                "velocity": 64,
                "duration": 0.1,
                "tempo": 120.0
            },
            {
                "start_time": 3.4522727,
                "end_time": 3.5522727,
                "pitch": 72,
                "velocity": 64,
                "duration": 0.1,
                "tempo": 120.0
            },
            {
                "start_time": 3.5522727,
                "end_time": 3.6545455,
                "pitch": 76,
                "velocity": 64,
                "duration": 0.1022727,
                "tempo": 120.0
            },
            {
                "start_time": 3.6545455,
                "end_time": 3.7522727,
                "pitch": 69,
                "velocity": 64,
                "duration": 0.0977273,
                "tempo": 120.0
            },
            {
                "start_time": 3.7545455,
                "end_time": 3.8545455,
                "pitch": 76,
                "velocity": 64,
                "duration": 0.1,
                "tempo": 120.0
            },
            {
                "start_time": 3.8545455,
                "end_time": 3.9545455,
                "pitch": 72,
                "velocity": 64,
                "duration": 0.1,
                "tempo": 120.0
            },
            {
                "start_time": 3.9545455,
                "end_time": 4.0545455,
                "pitch": 76,
                "velocity": 64,
                "duration": 0.1,
                "tempo": 120.0
            },
            {
                "start_time": 4.0568182,
                "end_time": 4.1545455,
                "pitch": 69,
                "velocity": 64,
                "duration": 0.0977273,
                "tempo": 120.0
            },
            {
                "start_time": 4.1545455,
                "end_time": 4.2545455,
                "pitch": 76,
                "velocity": 64,
                "duration": 0.1,
                "tempo": 120.0
            },
            {
                "start_time": 4.2545455,
                "end_time": 4.3545455,
                "pitch": 72,
                "velocity": 64,
                "duration": 0.1,
                "tempo": 120.0
            },
            {
                "start_time": 4.3545455,
                "end_time": 4.4545455,
                "pitch": 76,
                "velocity": 64,
                "duration": 0.1,
                "tempo": 120.0
            },
            {
                "start_time": 4.4568182,
                "end_time": 4.5545455,
                "pitch": 69,
                "velocity": 64,
                "duration": 0.0977273,
                "tempo": 120.0
            },
            {
                "start_time": 4.5568182,
                "end_time": 4.6568182,
                "pitch": 76,
                "velocity": 64,
                "duration": 0.1,
                "tempo": 120.0
            },
            {
                "start_time": 4.6568182,
                "end_time": 4.7568182,
                "pitch": 72,
                "velocity": 64,
                "duration": 0.1,
                "tempo": 120.0
            },
            {
                "start_time": 4.7568182,
                "end_time": 4.8590909,
                "pitch": 76,
                "velocity": 64,
                "duration": 0.1022727,
                "tempo": 120.0
            },
            {
                "start_time": 4.8590909,
                "end_time": 4.9568182,
                "pitch": 67,
                "velocity": 64,
                "duration": 0.0977273,
                "tempo": 120.0
            },
            {
                "start_time": 4.9590909,
                "end_time": 5.0590909,
                "pitch": 74,
                "velocity": 64,
                "duration": 0.1,
                "tempo": 120.0
            },
            {
                "start_time": 5.0590909,
                "end_time": 5.1568182,
                "pitch": 71,
                "velocity": 64,
                "duration": 0.0977273,
                "tempo": 120.0
            },
            {
                "start_time": 5.1590909,
                "end_time": 5.2590909,
                "pitch": 74,
                "velocity": 64,
                "duration": 0.1,
                "tempo": 120.0
            },
            {
                "start_time": 5.2590909,
                "end_time": 5.3590909,
                "pitch": 67,
                "velocity": 64,
                "duration": 0.1,
                "tempo": 120.0
            },
            {
                "start_time": 5.3590909,
                "end_time": 5.4613636,
                "pitch": 74,
                "velocity": 64,
                "duration": 0.1022727,
                "tempo": 120.0
            },
            {
                "start_time": 5.4613636,
                "end_time": 5.5613636,
                "pitch": 71,
                "velocity": 64,
                "duration": 0.1,
                "tempo": 120.0
            },
            {
                "start_time": 5.5613636,
                "end_time": 5.6613636,
                "pitch": 74,
                "velocity": 64,
                "duration": 0.1,
                "tempo": 120.0
            },
            {
                "start_time": 5.6636364,
                "end_time": 5.7613636,
                "pitch": 67,
                "velocity": 64,
                "duration": 0.0977273,
                "tempo": 120.0
            },
            {
                "start_time": 5.7613636,
                "end_time": 5.8636364,
                "pitch": 74,
                "velocity": 64,
                "duration": 0.1022727,
                "tempo": 120.0
            },
            {
                "start_time": 5.8636364,
                "end_time": 5.9613636,
                "pitch": 71,
                "velocity": 64,
                "duration": 0.0977273,
                "tempo": 120.0
            },
            {
                "start_time": 5.9613636,
                "end_time": 6.0613636,
                "pitch": 74,
                "velocity": 64,
                "duration": 0.1,
                "tempo": 120.0
            },
            {
                "start_time": 6.0636364,
                "end_time": 6.1613636,
                "pitch": 67,
                "velocity": 64,
                "duration": 0.0977273,
                "tempo": 120.0
            },
            {
                "start_time": 6.1636364,
                "end_time": 6.2636364,
                "pitch": 74,
                "velocity": 64,
                "duration": 0.1,
                "tempo": 120.0
            },
            {
                "start_time": 6.2659091,
                "end_time": 6.3636364,
                "pitch": 71,
                "velocity": 64,
                "duration": 0.0977273,
                "tempo": 120.0
            },
            {
                "start_time": 6.3659091,
                "end_time": 6.4659091,
                "pitch": 74,
                "velocity": 64,
                "duration": 0.1,
                "tempo": 120.0
            },
            {
                "start_time": 6.4681818,
                "end_time": 6.5659091,
                "pitch": 65,
                "velocity": 64,
                "duration": 0.0977273,
                "tempo": 120.0
            },
            {
                "start_time": 6.5659091,
                "end_time": 6.6681818,
                "pitch": 72,
                "velocity": 64,
                "duration": 0.1022727,
                "tempo": 120.0
            },
            {
                "start_time": 6.6681818,
                "end_time": 6.7681818,
                "pitch": 69,
                "velocity": 64,
                "duration": 0.1,
                "tempo": 120.0
            },
            {
                "start_time": 6.7681818,
                "end_time": 6.8681818,
                "pitch": 72,
                "velocity": 64,
                "duration": 0.1,
                "tempo": 120.0
            },
            {
                "start_time": 6.8704545,
                "end_time": 6.9681818,
                "pitch": 65,
                "velocity": 64,
                "duration": 0.0977273,
                "tempo": 120.0
            },
            {
                "start_time": 6.9681818,
                "end_time": 7.0681818,
                "pitch": 72,
                "velocity": 64,
                "duration": 0.1,
                "tempo": 120.0
            },
            {
                "start_time": 7.0704545,
                "end_time": 7.1681818,
                "pitch": 69,
                "velocity": 64,
                "duration": 0.0977273,
                "tempo": 120.0
            },
            {
                "start_time": 7.1704545,
                "end_time": 7.2681818,
                "pitch": 72,
                "velocity": 64,
                "duration": 0.0977273,
                "tempo": 120.0
            },
            {
                "start_time": 7.2704545,
                "end_time": 7.3704545,
                "pitch": 65,
                "velocity": 64,
                "duration": 0.1,
                "tempo": 120.0
            },
            {
                "start_time": 7.3704545,
                "end_time": 7.4704545,
                "pitch": 72,
                "velocity": 64,
                "duration": 0.1,
                "tempo": 120.0
            },
            {
                "start_time": 7.4727273,
                "end_time": 7.5704545,
                "pitch": 69,
                "velocity": 64,
                "duration": 0.0977273,
                "tempo": 120.0
            },
            {
                "start_time": 7.5727273,
                "end_time": 7.6727273,
                "pitch": 72,
                "velocity": 64,
                "duration": 0.1,
                "tempo": 120.0
            },
            {
                "start_time": 7.6727273,
                "end_time": 7.7727273,
                "pitch": 65,
                "velocity": 64,
                "duration": 0.1,
                "tempo": 120.0
            },
            {
                "start_time": 7.7727273,
                "end_time": 7.8727273,
                "pitch": 72,
                "velocity": 64,
                "duration": 0.1,
                "tempo": 120.0
            },
            {
                "start_time": 7.8727273,
                "end_time": 7.9727273,
                "pitch": 69,
                "velocity": 64,
                "duration": 0.1,
                "tempo": 120.0
            },
            {
                "start_time": 7.9727273,
                "end_time": 8.0727273,
                "pitch": 72,
                "velocity": 64,
                "duration": 0.1,
                "tempo": 120.0
            },
            {
                "start_time": 8.075,
                "end_time": 8.1727273,
                "pitch": 67,
                "velocity": 64,
                "duration": 0.0977273,
                "tempo": 120.0
            },
            {
                "start_time": 8.1727273,
                "end_time": 8.2727273,
                "pitch": 74,
                "velocity": 64,
                "duration": 0.1,
                "tempo": 120.0
            },
            {
                "start_time": 8.275,
                "end_time": 8.3727273,
                "pitch": 71,
                "velocity": 64,
                "duration": 0.0977273,
                "tempo": 120.0
            },
            {
                "start_time": 8.3727273,
                "end_time": 8.4727273,
                "pitch": 74,
                "velocity": 64,
                "duration": 0.1,
                "tempo": 120.0
            },
            {
                "start_time": 8.475,
                "end_time": 8.5727273,
                "pitch": 67,
                "velocity": 64,
                "duration": 0.0977273,
                "tempo": 120.0
            },
            {
                "start_time": 8.575,
                "end_time": 8.675,
                "pitch": 74,
                "velocity": 64,
                "duration": 0.1,
                "tempo": 120.0
            },
            {
                "start_time": 8.6772727,
                "end_time": 8.775,
                "pitch": 71,
                "velocity": 64,
                "duration": 0.0977273,
                "tempo": 120.0
            },
            {
                "start_time": 8.775,
                "end_time": 8.8772727,
                "pitch": 74,
                "velocity": 64,
                "duration": 0.1022727,
                "tempo": 120.0
            },
            {
                "start_time": 8.8772727,
                "end_time": 8.9795455,
                "pitch": 67,
                "velocity": 64,
                "duration": 0.1022727,
                "tempo": 120.0
            },
            {
                "start_time": 8.9795455,
                "end_time": 9.0818182,
                "pitch": 74,
                "velocity": 64,
                "duration": 0.1022727,
                "tempo": 120.0
            },
            {
                "start_time": 9.0840909,
                "end_time": 9.1840909,
                "pitch": 71,
                "velocity": 64,
                "duration": 0.1,
                "tempo": 120.0
            },
            {
                "start_time": 9.1863636,
                "end_time": 9.2886364,
                "pitch": 74,
                "velocity": 64,
                "duration": 0.1022727,
                "tempo": 120.0
            },
            {
                "start_time": 9.2886364,
                "end_time": 9.3886364,
                "pitch": 67,
                "velocity": 64,
                "duration": 0.1,
                "tempo": 120.0
            },
            {
                "start_time": 9.3886364,
                "end_time": 9.4886364,
                "pitch": 74,
                "velocity": 64,
                "duration": 0.1,
                "tempo": 120.0
            },
            {
                "start_time": 9.4909091,
                "end_time": 9.5909091,
                "pitch": 71,
                "velocity": 64,
                "duration": 0.1,
                "tempo": 120.0
            },
            {
                "start_time": 9.5909091,
                "end_time": 9.6931818,
                "pitch": 74,
                "velocity": 64,
                "duration": 0.1022727,
                "tempo": 120.0
            },
            {
                "start_time": 9.6931818,
                "end_time": 9.7886364,
                "pitch": 64,
                "velocity": 64,
                "duration": 0.0954545,
                "tempo": 120.0
            },
            {
                "start_time": 9.7886364,
                "end_time": 9.8886364,
                "pitch": 71,
                "velocity": 64,
                "duration": 0.1,
                "tempo": 120.0
            },
            {
                "start_time": 9.8886364,
                "end_time": 9.9840909,
                "pitch": 68,
                "velocity": 64,
                "duration": 0.0954545,
                "tempo": 120.0
            },
            {
                "start_time": 9.9863636,
                "end_time": 10.0840909,
                "pitch": 71,
                "velocity": 64,
                "duration": 0.0977273,
                "tempo": 120.0
            },
            {
                "start_time": 10.0840909,
                "end_time": 10.1840909,
                "pitch": 64,
                "velocity": 64,
                "duration": 0.1,
                "tempo": 120.0
            },
            {
                "start_time": 10.1840909,
                "end_time": 10.2840909,
                "pitch": 71,
                "velocity": 64,
                "duration": 0.1,
                "tempo": 120.0
            },
            {
                "start_time": 10.2840909,
                "end_time": 10.3840909,
                "pitch": 68,
                "velocity": 64,
                "duration": 0.1,
                "tempo": 120.0
            },
            {
                "start_time": 10.3840909,
                "end_time": 10.4840909,
                "pitch": 71,
                "velocity": 64,
                "duration": 0.1,
                "tempo": 120.0
            },
            {
                "start_time": 10.4863636,
                "end_time": 10.5840909,
                "pitch": 64,
                "velocity": 64,
                "duration": 0.0977273,
                "tempo": 120.0
            },
            {
                "start_time": 10.5863636,
                "end_time": 10.6863636,
                "pitch": 71,
                "velocity": 64,
                "duration": 0.1,
                "tempo": 120.0
            },
            {
                "start_time": 10.6863636,
                "end_time": 10.7863636,
                "pitch": 68,
                "velocity": 64,
                "duration": 0.1,
                "tempo": 120.0
            },
            {
                "start_time": 10.7863636,
                "end_time": 10.8886364,
                "pitch": 71,
                "velocity": 64,
                "duration": 0.1022727,
                "tempo": 120.0
            },
            {
                "start_time": 10.8886364,
                "end_time": 10.9909091,
                "pitch": 64,
                "velocity": 64,
                "duration": 0.1022727,
                "tempo": 120.0
            },
            {
                "start_time": 10.9909091,
                "end_time": 11.0931818,
                "pitch": 71,
                "velocity": 64,
                "duration": 0.1022727,
                "tempo": 120.0
            },
            {
                "start_time": 11.0954545,
                "end_time": 11.1954545,
                "pitch": 68,
                "velocity": 64,
                "duration": 0.1,
                "tempo": 120.0
            },
            {
                "start_time": 11.1977273,
                "end_time": 11.3,
                "pitch": 71,
                "velocity": 64,
                "duration": 0.1022727,
                "tempo": 120.0
            },
            {
                "start_time": 11.3,
                "end_time": 11.4,
                "pitch": 64,
                "velocity": 64,
                "duration": 0.1,
                "tempo": 120.0
            },
            {
                "start_time": 11.4,
                "end_time": 11.5,
                "pitch": 71,
                "velocity": 64,
                "duration": 0.1,
                "tempo": 120.0
            },
            {
                "start_time": 11.5022727,
                "end_time": 11.6,
                "pitch": 68,
                "velocity": 64,
                "duration": 0.0977273,
                "tempo": 120.0
            },
            {
                "start_time": 11.6022727,
                "end_time": 11.7022727,
                "pitch": 71,
                "velocity": 64,
                "duration": 0.1,
                "tempo": 120.0
            },
            {
                "start_time": 11.7022727,
                "end_time": 11.8022727,
                "pitch": 64,
                "velocity": 64,
                "duration": 0.1,
                "tempo": 120.0
            },
            {
                "start_time": 11.8022727,
                "end_time": 11.9045455,
                "pitch": 71,
                "velocity": 64,
                "duration": 0.1022727,
                "tempo": 120.0
            },
            {
                "start_time": 11.9045455,
                "end_time": 12.0045455,
                "pitch": 68,
                "velocity": 64,
                "duration": 0.1,
                "tempo": 120.0
            },
            {
                "start_time": 12.0045455,
                "end_time": 12.1045455,
                "pitch": 71,
                "velocity": 64,
                "duration": 0.1,
                "tempo": 120.0
            },
            {
                "start_time": 12.1068182,
                "end_time": 12.2068182,
                "pitch": 64,
                "velocity": 64,
                "duration": 0.1,
                "tempo": 120.0
            },
            {
                "start_time": 12.2068182,
                "end_time": 12.3068182,
                "pitch": 71,
                "velocity": 64,
                "duration": 0.1,
                "tempo": 120.0
            },
            {
                "start_time": 12.3090909,
                "end_time": 12.4068182,
                "pitch": 68,
                "velocity": 64,
                "duration": 0.0977273,
                "tempo": 120.0
            },
            {
                "start_time": 12.4090909,
                "end_time": 12.5090909,
                "pitch": 71,
                "velocity": 64,
                "duration": 0.1,
                "tempo": 120.0
            },
            {
                "start_time": 12.5090909,
                "end_time": 12.6090909,
                "pitch": 64,
                "velocity": 64,
                "duration": 0.1,
                "tempo": 120.0
            },
            {
                "start_time": 12.6090909,
                "end_time": 12.7090909,
                "pitch": 71,
                "velocity": 64,
                "duration": 0.1,
                "tempo": 120.0
            },
            {
                "start_time": 12.7090909,
                "end_time": 12.8090909,
                "pitch": 68,
                "velocity": 64,
                "duration": 0.1,
                "tempo": 120.0
            },
            {
                "start_time": 12.8090909,
                "end_time": 12.9113636,
                "pitch": 71,
                "velocity": 64,
                "duration": 0.1022727,
                "tempo": 120.0
            },
            {
                "start_time": 12.9113636,
                "end_time": 13.0090909,
                "pitch": 69,
                "velocity": 64,
                "duration": 0.0977273,
                "tempo": 120.0
            },
            {
                "start_time": 13.0113636,
                "end_time": 13.1113636,
                "pitch": 76,
                "velocity": 64,
                "duration": 0.1,
                "tempo": 120.0
            },
            {
                "start_time": 13.1113636,
                "end_time": 13.2113636,
                "pitch": 72,
                "velocity": 64,
                "duration": 0.1,
                "tempo": 120.0
            },
            {
                "start_time": 13.2113636,
                "end_time": 13.3113636,
                "pitch": 76,
                "velocity": 64,
                "duration": 0.1,
                "tempo": 120.0
            },
            {
                "start_time": 13.3136364,
                "end_time": 13.4136364,
                "pitch": 69,
                "velocity": 64,
                "duration": 0.1,
                "tempo": 120.0
            },
            {
                "start_time": 13.4136364,
                "end_time": 13.5136364,
                "pitch": 76,
                "velocity": 64,
                "duration": 0.1,
                "tempo": 120.0
            },
            {
                "start_time": 13.5136364,
                "end_time": 13.6136364,
                "pitch": 72,
                "velocity": 64,
                "duration": 0.1,
                "tempo": 120.0
            },
            {
                "start_time": 13.6159091,
                "end_time": 13.7159091,
                "pitch": 76,
                "velocity": 64,
                "duration": 0.1,
                "tempo": 120.0
            },
            {
                "start_time": 13.7181818,
                "end_time": 13.8159091,
                "pitch": 69,
                "velocity": 64,
                "duration": 0.0977273,
                "tempo": 120.0
            },
            {
                "start_time": 13.8181818,
                "end_time": 13.9181818,
                "pitch": 76,
                "velocity": 64,
                "duration": 0.1,
                "tempo": 120.0
            },
            {
                "start_time": 13.9181818,
                "end_time": 14.0181818,
                "pitch": 72,
                "velocity": 64,
                "duration": 0.1,
                "tempo": 120.0
            },
            {
                "start_time": 14.0181818,
                "end_time": 14.1181818,
                "pitch": 76,
                "velocity": 64,
                "duration": 0.1,
                "tempo": 120.0
            },
            {
                "start_time": 14.1204545,
                "end_time": 14.2181818,
                "pitch": 69,
                "velocity": 64,
                "duration": 0.0977273,
                "tempo": 120.0
            },
            {
                "start_time": 14.2204545,
                "end_time": 14.3204545,
                "pitch": 76,
                "velocity": 64,
                "duration": 0.1,
                "tempo": 120.0
            },
            {
                "start_time": 14.3204545,
                "end_time": 14.4204545,
                "pitch": 72,
                "velocity": 64,
                "duration": 0.1,
                "tempo": 120.0
            },
            {
                "start_time": 14.4204545,
                "end_time": 14.5227273,
                "pitch": 76,
                "velocity": 64,
                "duration": 0.1022727,
                "tempo": 120.0
            },
            {
                "start_time": 14.525,
                "end_time": 14.6227273,
                "pitch": 67,
                "velocity": 64,
                "duration": 0.0977273,
                "tempo": 120.0
            },
            {
                "start_time": 14.6227273,
                "end_time": 14.7227273,
                "pitch": 74,
                "velocity": 64,
                "duration": 0.1,
                "tempo": 120.0
            },
            {
                "start_time": 14.7227273,
                "end_time": 14.8227273,
                "pitch": 71,
                "velocity": 64,
                "duration": 0.1,
                "tempo": 120.0
            },
            {
                "start_time": 14.8227273,
                "end_time": 14.9227273,
                "pitch": 74,
                "velocity": 64,
                "duration": 0.1,
                "tempo": 120.0
            },
            {
                "start_time": 14.9227273,
                "end_time": 15.0227273,
                "pitch": 67,
                "velocity": 64,
                "duration": 0.1,
                "tempo": 120.0
            },
            {
                "start_time": 15.0227273,
                "end_time": 15.125,
                "pitch": 74,
                "velocity": 64,
                "duration": 0.1022727,
                "tempo": 120.0
            },
            {
                "start_time": 15.125,
                "end_time": 15.225,
                "pitch": 71,
                "velocity": 64,
                "duration": 0.1,
                "tempo": 120.0
            },
            {
                "start_time": 15.225,
                "end_time": 15.325,
                "pitch": 74,
                "velocity": 64,
                "duration": 0.1,
                "tempo": 120.0
            },
            {
                "start_time": 15.3272727,
                "end_time": 15.4272727,
                "pitch": 67,
                "velocity": 64,
                "duration": 0.1,
                "tempo": 120.0
            },
            {
                "start_time": 15.4295455,
                "end_time": 15.5318182,
                "pitch": 74,
                "velocity": 64,
                "duration": 0.1022727,
                "tempo": 120.0
            },
            {
                "start_time": 15.5340909,
                "end_time": 15.6340909,
                "pitch": 71,
                "velocity": 64,
                "duration": 0.1,
                "tempo": 120.0
            },
            {
                "start_time": 15.6340909,
                "end_time": 15.7363636,
                "pitch": 74,
                "velocity": 64,
                "duration": 0.1022727,
                "tempo": 120.0
            },
            {
                "start_time": 15.7386364,
                "end_time": 15.8340909,
                "pitch": 67,
                "velocity": 64,
                "duration": 0.0954545,
                "tempo": 120.0
            },
            {
                "start_time": 15.8363636,
                "end_time": 15.9340909,
                "pitch": 74,
                "velocity": 64,
                "duration": 0.0977273,
                "tempo": 120.0
            },
            {
                "start_time": 15.9340909,
                "end_time": 16.0318182,
                "pitch": 71,
                "velocity": 64,
                "duration": 0.0977273,
                "tempo": 120.0
            },
            {
                "start_time": 16.0318182,
                "end_time": 16.1295455,
                "pitch": 74,
                "velocity": 64,
                "duration": 0.0977273,
                "tempo": 120.0
            },
            {
                "start_time": 16.1318182,
                "end_time": 16.2295455,
                "pitch": 69,
                "velocity": 64,
                "duration": 0.0977273,
                "tempo": 120.0
            },
            {
                "start_time": 16.2318182,
                "end_time": 16.3318182,
                "pitch": 76,
                "velocity": 64,
                "duration": 0.1,
                "tempo": 120.0
            },
            {
                "start_time": 16.3318182,
                "end_time": 16.4318182,
                "pitch": 72,
                "velocity": 64,
                "duration": 0.1,
                "tempo": 120.0
            },
            {
                "start_time": 16.4318182,
                "end_time": 16.5340909,
                "pitch": 76,
                "velocity": 64,
                "duration": 0.1022727,
                "tempo": 120.0
            },
            {
                "start_time": 16.5340909,
                "end_time": 16.6318182,
                "pitch": 69,
                "velocity": 64,
                "duration": 0.0977273,
                "tempo": 120.0
            },
            {
                "start_time": 16.6340909,
                "end_time": 16.7340909,
                "pitch": 76,
                "velocity": 64,
                "duration": 0.1,
                "tempo": 120.0
            },
            {
                "start_time": 16.7340909,
                "end_time": 16.8318182,
                "pitch": 72,
                "velocity": 64,
                "duration": 0.0977273,
                "tempo": 120.0
            },
            {
                "start_time": 16.8340909,
                "end_time": 16.9340909,
                "pitch": 76,
                "velocity": 64,
                "duration": 0.1,
                "tempo": 120.0
            },
            {
                "start_time": 16.9340909,
                "end_time": 17.0340909,
                "pitch": 69,
                "velocity": 64,
                "duration": 0.1,
                "tempo": 120.0
            },
            {
                "start_time": 17.0340909,
                "end_time": 17.1340909,
                "pitch": 76,
                "velocity": 64,
                "duration": 0.1,
                "tempo": 120.0
            },
            {
                "start_time": 17.1363636,
                "end_time": 17.2363636,
                "pitch": 72,
                "velocity": 64,
                "duration": 0.1,
                "tempo": 120.0
            },
            {
                "start_time": 17.2363636,
                "end_time": 17.3363636,
                "pitch": 76,
                "velocity": 64,
                "duration": 0.1,
                "tempo": 120.0
            },
            {
                "start_time": 17.3386364,
                "end_time": 17.4363636,
                "pitch": 69,
                "velocity": 64,
                "duration": 0.0977273,
                "tempo": 120.0
            },
            {
                "start_time": 17.4363636,
                "end_time": 17.5363636,
                "pitch": 76,
                "velocity": 64,
                "duration": 0.1,
                "tempo": 120.0
            },
            {
                "start_time": 17.5386364,
                "end_time": 17.6363636,
                "pitch": 72,
                "velocity": 64,
                "duration": 0.0977273,
                "tempo": 120.0
            },
            {
                "start_time": 17.6363636,
                "end_time": 17.7386364,
                "pitch": 76,
                "velocity": 64,
                "duration": 0.1022727,
                "tempo": 120.0
            },
            {
                "start_time": 17.7386364,
                "end_time": 17.8363636,
                "pitch": 67,
                "velocity": 64,
                "duration": 0.0977273,
                "tempo": 120.0
            },
            {
                "start_time": 17.8386364,
                "end_time": 17.9386364,
                "pitch": 74,
                "velocity": 64,
                "duration": 0.1,
                "tempo": 120.0
            },
            {
                "start_time": 17.9386364,
                "end_time": 18.0363636,
                "pitch": 71,
                "velocity": 64,
                "duration": 0.0977273,
                "tempo": 120.0
            },
            {
                "start_time": 18.0386364,
                "end_time": 18.1386364,
                "pitch": 74,
                "velocity": 64,
                "duration": 0.1,
                "tempo": 120.0
            },
            {
                "start_time": 18.1386364,
                "end_time": 18.2409091,
                "pitch": 67,
                "velocity": 64,
                "duration": 0.1022727,
                "tempo": 120.0
            },
            {
                "start_time": 18.2409091,
                "end_time": 18.3431818,
                "pitch": 74,
                "velocity": 64,
                "duration": 0.1022727,
                "tempo": 120.0
            },
            {
                "start_time": 18.3454545,
                "end_time": 18.4454545,
                "pitch": 71,
                "velocity": 64,
                "duration": 0.1,
                "tempo": 120.0
            },
            {
                "start_time": 18.4454545,
                "end_time": 18.55,
                "pitch": 74,
                "velocity": 64,
                "duration": 0.1045455,
                "tempo": 120.0
            },
            {
                "start_time": 18.55,
                "end_time": 18.65,
                "pitch": 67,
                "velocity": 64,
                "duration": 0.1,
                "tempo": 120.0
            },
            {
                "start_time": 18.65,
                "end_time": 18.7522727,
                "pitch": 74,
                "velocity": 64,
                "duration": 0.1022727,
                "tempo": 120.0
            },
            {
                "start_time": 18.7522727,
                "end_time": 18.85,
                "pitch": 71,
                "velocity": 64,
                "duration": 0.0977273,
                "tempo": 120.0
            },
            {
                "start_time": 18.8522727,
                "end_time": 18.9522727,
                "pitch": 74,
                "velocity": 64,
                "duration": 0.1,
                "tempo": 120.0
            },
            {
                "start_time": 18.9522727,
                "end_time": 19.0522727,
                "pitch": 67,
                "velocity": 64,
                "duration": 0.1,
                "tempo": 120.0
            },
            {
                "start_time": 19.0522727,
                "end_time": 19.1522727,
                "pitch": 74,
                "velocity": 64,
                "duration": 0.1,
                "tempo": 120.0
            },
            {
                "start_time": 19.1545455,
                "end_time": 19.2522727,
                "pitch": 71,
                "velocity": 64,
                "duration": 0.0977273,
                "tempo": 120.0
            },
            {
                "start_time": 19.2522727,
                "end_time": 19.3545455,
                "pitch": 74,
                "velocity": 64,
                "duration": 0.1022727,
                "tempo": 120.0
            },
            {
                "start_time": 19.3545455,
                "end_time": 19.4522727,
                "pitch": 65,
                "velocity": 64,
                "duration": 0.0977273,
                "tempo": 120.0
            },
            {
                "start_time": 19.4545455,
                "end_time": 19.5545455,
                "pitch": 72,
                "velocity": 64,
                "duration": 0.1,
                "tempo": 120.0
            },
            {
                "start_time": 19.5545455,
                "end_time": 19.6545455,
                "pitch": 69,
                "velocity": 64,
                "duration": 0.1,
                "tempo": 120.0
            },
            {
                "start_time": 19.6545455,
                "end_time": 19.7568182,
                "pitch": 72,
                "velocity": 64,
                "duration": 0.1022727,
                "tempo": 120.0
            },
            {
                "start_time": 19.7568182,
                "end_time": 19.8545455,
                "pitch": 65,
                "velocity": 64,
                "duration": 0.0977273,
                "tempo": 120.0
            },
            {
                "start_time": 19.8568182,
                "end_time": 19.9568182,
                "pitch": 72,
                "velocity": 64,
                "duration": 0.1,
                "tempo": 120.0
            },
            {
                "start_time": 19.9568182,
                "end_time": 20.0568182,
                "pitch": 69,
                "velocity": 64,
                "duration": 0.1,
                "tempo": 120.0
            },
            {
                "start_time": 20.0568182,
                "end_time": 20.1568182,
                "pitch": 72,
                "velocity": 64,
                "duration": 0.1,
                "tempo": 120.0
            },
            {
                "start_time": 20.1568182,
                "end_time": 20.2568182,
                "pitch": 65,
                "velocity": 64,
                "duration": 0.1,
                "tempo": 120.0
            },
            {
                "start_time": 20.2568182,
                "end_time": 20.3568182,
                "pitch": 72,
                "velocity": 64,
                "duration": 0.1,
                "tempo": 120.0
            },
            {
                "start_time": 20.3568182,
                "end_time": 20.4568182,
                "pitch": 69,
                "velocity": 64,
                "duration": 0.1,
                "tempo": 120.0
            },
            {
                "start_time": 20.4568182,
                "end_time": 20.5568182,
                "pitch": 72,
                "velocity": 64,
                "duration": 0.1,
                "tempo": 120.0
            },
            {
                "start_time": 20.5590909,
                "end_time": 20.6568182,
                "pitch": 65,
                "velocity": 64,
                "duration": 0.0977273,
                "tempo": 120.0
            },
            {
                "start_time": 20.6590909,
                "end_time": 20.7590909,
                "pitch": 72,
                "velocity": 64,
                "duration": 0.1,
                "tempo": 120.0
            },
            {
                "start_time": 20.7590909,
                "end_time": 20.8590909,
                "pitch": 69,
                "velocity": 64,
                "duration": 0.1,
                "tempo": 120.0
            },
            {
                "start_time": 20.8590909,
                "end_time": 20.9613636,
                "pitch": 72,
                "velocity": 64,
                "duration": 0.1022727,
                "tempo": 120.0
            },
            {
                "start_time": 20.9613636,
                "end_time": 21.0590909,
                "pitch": 67,
                "velocity": 64,
                "duration": 0.0977273,
                "tempo": 120.0
            },
            {
                "start_time": 21.0613636,
                "end_time": 21.1613636,
                "pitch": 74,
                "velocity": 64,
                "duration": 0.1,
                "tempo": 120.0
            },
            {
                "start_time": 21.1613636,
                "end_time": 21.2590909,
                "pitch": 71,
                "velocity": 64,
                "duration": 0.0977273,
                "tempo": 120.0
            },
            {
                "start_time": 21.2613636,
                "end_time": 21.3613636,
                "pitch": 74,
                "velocity": 64,
                "duration": 0.1,
                "tempo": 120.0
            },
            {
                "start_time": 21.3613636,
                "end_time": 21.4613636,
                "pitch": 67,
                "velocity": 64,
                "duration": 0.1,
                "tempo": 120.0
            },
            {
                "start_time": 21.4613636,
                "end_time": 21.5636364,
                "pitch": 74,
                "velocity": 64,
                "duration": 0.1022727,
                "tempo": 120.0
            },
            {
                "start_time": 21.5636364,
                "end_time": 21.6636364,
                "pitch": 71,
                "velocity": 64,
                "duration": 0.1,
                "tempo": 120.0
            },
            {
                "start_time": 21.6636364,
                "end_time": 21.7636364,
                "pitch": 74,
                "velocity": 64,
                "duration": 0.1,
                "tempo": 120.0
            },
            {
                "start_time": 21.7659091,
                "end_time": 21.8636364,
                "pitch": 67,
                "velocity": 64,
                "duration": 0.0977273,
                "tempo": 120.0
            },
            {
                "start_time": 21.8636364,
                "end_time": 21.9636364,
                "pitch": 74,
                "velocity": 64,
                "duration": 0.1,
                "tempo": 120.0
            },
            {
                "start_time": 21.9659091,
                "end_time": 22.0636364,
                "pitch": 71,
                "velocity": 64,
                "duration": 0.0977273,
                "tempo": 120.0
            },
            {
                "start_time": 22.0659091,
                "end_time": 22.1659091,
                "pitch": 74,
                "velocity": 64,
                "duration": 0.1,
                "tempo": 120.0
            },
            {
                "start_time": 22.1659091,
                "end_time": 22.2636364,
                "pitch": 67,
                "velocity": 64,
                "duration": 0.0977273,
                "tempo": 120.0
            },
            {
                "start_time": 22.2659091,
                "end_time": 22.3659091,
                "pitch": 74,
                "velocity": 64,
                "duration": 0.1,
                "tempo": 120.0
            },
            {
                "start_time": 22.3659091,
                "end_time": 22.4636364,
                "pitch": 71,
                "velocity": 64,
                "duration": 0.0977273,
                "tempo": 120.0
            },
            {
                "start_time": 22.4659091,
                "end_time": 22.5659091,
                "pitch": 74,
                "velocity": 64,
                "duration": 0.1,
                "tempo": 120.0
            },
            {
                "start_time": 22.5681818,
                "end_time": 22.6659091,
                "pitch": 69,
                "velocity": 64,
                "duration": 0.0977273,
                "tempo": 120.0
            },
            {
                "start_time": 22.6659091,
                "end_time": 22.7659091,
                "pitch": 76,
                "velocity": 64,
                "duration": 0.1,
                "tempo": 120.0
            },
            {
                "start_time": 22.7681818,
                "end_time": 22.8659091,
                "pitch": 72,
                "velocity": 64,
                "duration": 0.0977273,
                "tempo": 120.0
            },
            {
                "start_time": 22.8681818,
                "end_time": 22.9681818,
                "pitch": 76,
                "velocity": 64,
                "duration": 0.1,
                "tempo": 120.0
            },
            {
                "start_time": 22.9681818,
                "end_time": 23.0681818,
                "pitch": 69,
                "velocity": 64,
                "duration": 0.1,
                "tempo": 120.0
            },
            {
                "start_time": 23.0681818,
                "end_time": 23.1681818,
                "pitch": 76,
                "velocity": 64,
                "duration": 0.1,
                "tempo": 120.0
            },
            {
                "start_time": 23.1704545,
                "end_time": 23.2681818,
                "pitch": 72,
                "velocity": 64,
                "duration": 0.0977273,
                "tempo": 120.0
            },
            {
                "start_time": 23.2681818,
                "end_time": 23.3681818,
                "pitch": 76,
                "velocity": 64,
                "duration": 0.1,
                "tempo": 120.0
            },
            {
                "start_time": 23.3704545,
                "end_time": 23.4681818,
                "pitch": 69,
                "velocity": 64,
                "duration": 0.0977273,
                "tempo": 120.0
            },
            {
                "start_time": 23.4704545,
                "end_time": 23.5704545,
                "pitch": 76,
                "velocity": 64,
                "duration": 0.1,
                "tempo": 120.0
            },
            {
                "start_time": 23.5704545,
                "end_time": 23.6704545,
                "pitch": 72,
                "velocity": 64,
                "duration": 0.1,
                "tempo": 120.0
            },
            {
                "start_time": 23.6704545,
                "end_time": 23.7727273,
                "pitch": 76,
                "velocity": 64,
                "duration": 0.1022727,
                "tempo": 120.0
            },
            {
                "start_time": 23.7727273,
                "end_time": 23.8704545,
                "pitch": 69,
                "velocity": 64,
                "duration": 0.0977273,
                "tempo": 120.0
            },
            {
                "start_time": 23.8727273,
                "end_time": 23.9727273,
                "pitch": 76,
                "velocity": 64,
                "duration": 0.1,
                "tempo": 120.0
            },
            {
                "start_time": 23.9727273,
                "end_time": 24.0727273,
                "pitch": 72,
                "velocity": 64,
                "duration": 0.1,
                "tempo": 120.0
            },
            {
                "start_time": 24.0727273,
                "end_time": 24.1727273,
                "pitch": 76,
                "velocity": 64,
                "duration": 0.1,
                "tempo": 120.0
            },
            {
                "start_time": 24.175,
                "end_time": 24.2727273,
                "pitch": 69,
                "velocity": 64,
                "duration": 0.0977273,
                "tempo": 120.0
            },
            {
                "start_time": 24.2727273,
                "end_time": 24.3727273,
                "pitch": 76,
                "velocity": 64,
                "duration": 0.1,
                "tempo": 120.0
            },
            {
                "start_time": 24.3727273,
                "end_time": 24.4727273,
                "pitch": 72,
                "velocity": 64,
                "duration": 0.1,
                "tempo": 120.0
            },
            {
                "start_time": 24.4727273,
                "end_time": 24.5727273,
                "pitch": 76,
                "velocity": 64,
                "duration": 0.1,
                "tempo": 120.0
            },
            {
                "start_time": 24.575,
                "end_time": 24.6727273,
                "pitch": 69,
                "velocity": 64,
                "duration": 0.0977273,
                "tempo": 120.0
            },
            {
                "start_time": 24.675,
                "end_time": 24.775,
                "pitch": 76,
                "velocity": 64,
                "duration": 0.1,
                "tempo": 120.0
            },
            {
                "start_time": 24.775,
                "end_time": 24.875,
                "pitch": 72,
                "velocity": 64,
                "duration": 0.1,
                "tempo": 120.0
            },
            {
                "start_time": 24.875,
                "end_time": 24.9772727,
                "pitch": 76,
                "velocity": 64,
                "duration": 0.1022727,
                "tempo": 120.0
            },
            {
                "start_time": 24.9772727,
                "end_time": 25.075,
                "pitch": 69,
                "velocity": 64,
                "duration": 0.0977273,
                "tempo": 120.0
            },
            {
                "start_time": 25.0772727,
                "end_time": 25.1772727,
                "pitch": 76,
                "velocity": 64,
                "duration": 0.1,
                "tempo": 120.0
            },
            {
                "start_time": 25.1772727,
                "end_time": 25.275,
                "pitch": 72,
                "velocity": 64,
                "duration": 0.0977273,
                "tempo": 120.0
            },
            {
                "start_time": 25.2772727,
                "end_time": 25.3772727,
                "pitch": 76,
                "velocity": 64,
                "duration": 0.1,
                "tempo": 120.0
            },
            {
                "start_time": 25.3772727,
                "end_time": 25.4772727,
                "pitch": 69,
                "velocity": 64,
                "duration": 0.1,
                "tempo": 120.0
            },
            {
                "start_time": 25.4772727,
                "end_time": 25.5795455,
                "pitch": 76,
                "velocity": 64,
                "duration": 0.1022727,
                "tempo": 120.0
            },
            {
                "start_time": 25.5795455,
                "end_time": 25.6795455,
                "pitch": 72,
                "velocity": 64,
                "duration": 0.1,
                "tempo": 120.0
            },
            {
                "start_time": 25.6795455,
                "end_time": 25.7795455,
                "pitch": 76,
                "velocity": 64,
                "duration": 0.1,
                "tempo": 120.0
            },
            {
                "start_time": 25.7795455,
                "end_time": 25.8795455,
                "pitch": 60,
                "velocity": 64,
                "duration": 0.1,
                "tempo": 120.0
            },
            {
                "start_time": 25.8795455,
                "end_time": 25.9795455,
                "pitch": 67,
                "velocity": 64,
                "duration": 0.1,
                "tempo": 120.0
            },
            {
                "start_time": 25.9818182,
                "end_time": 26.0795455,
                "pitch": 60,
                "velocity": 64,
                "duration": 0.0977273,
                "tempo": 120.0
            },
            {
                "start_time": 26.0795455,
                "end_time": 26.1795455,
                "pitch": 64,
                "velocity": 64,
                "duration": 0.1,
                "tempo": 120.0
            },
            {
                "start_time": 26.1818182,
                "end_time": 26.2818182,
                "pitch": 67,
                "velocity": 64,
                "duration": 0.1,
                "tempo": 120.0
            },
            {
                "start_time": 26.2840909,
                "end_time": 26.3863636,
                "pitch": 60,
                "velocity": 64,
                "duration": 0.1022727,
                "tempo": 120.0
            },
            {
                "start_time": 26.3863636,
                "end_time": 26.4886364,
                "pitch": 64,
                "velocity": 64,
                "duration": 0.1022727,
                "tempo": 120.0
            },
            {
                "start_time": 26.4886364,
                "end_time": 26.5909091,
                "pitch": 67,
                "velocity": 64,
                "duration": 0.1022727,
                "tempo": 120.0
            },
            {
                "start_time": 26.5931818,
                "end_time": 26.6886364,
                "pitch": 72,
                "velocity": 64,
                "duration": 0.0954545,
                "tempo": 120.0
            },
            {
                "start_time": 26.6909091,
                "end_time": 26.7886364,
                "pitch": 67,
                "velocity": 64,
                "duration": 0.0977273,
                "tempo": 120.0
            },
            {
                "start_time": 26.7886364,
                "end_time": 26.8863636,
                "pitch": 72,
                "velocity": 64,
                "duration": 0.0977273,
                "tempo": 120.0
            },
            {
                "start_time": 26.8863636,
                "end_time": 26.9840909,
                "pitch": 76,
                "velocity": 64,
                "duration": 0.0977273,
                "tempo": 120.0
            },
            {
                "start_time": 26.9863636,
                "end_time": 27.0863636,
                "pitch": 79,
                "velocity": 64,
                "duration": 0.1,
                "tempo": 120.0
            },
            {
                "start_time": 27.0863636,
                "end_time": 27.1909091,
                "pitch": 72,
                "velocity": 64,
                "duration": 0.1045455,
                "tempo": 120.0
            },
            {
                "start_time": 27.1909091,
                "end_time": 27.2931818,
                "pitch": 76,
                "velocity": 64,
                "duration": 0.1022727,
                "tempo": 120.0
            },
            {
                "start_time": 27.2931818,
                "end_time": 27.3954545,
                "pitch": 79,
                "velocity": 64,
                "duration": 0.1022727,
                "tempo": 120.0
            },
            {
                "start_time": 27.3954545,
                "end_time": 27.4954545,
                "pitch": 69,
                "velocity": 64,
                "duration": 0.1,
                "tempo": 120.0
            },
            {
                "start_time": 27.4954545,
                "end_time": 27.5954545,
                "pitch": 60,
                "velocity": 64,
                "duration": 0.1,
                "tempo": 120.0
            },
            {
                "start_time": 27.5977273,
                "end_time": 27.6954545,
                "pitch": 64,
                "velocity": 64,
                "duration": 0.0977273,
                "tempo": 120.0
            },
            {
                "start_time": 27.6954545,
                "end_time": 27.7977273,
                "pitch": 69,
                "velocity": 64,
                "duration": 0.1022727,
                "tempo": 120.0
            },
            {
                "start_time": 27.7977273,
                "end_time": 27.8954545,
                "pitch": 72,
                "velocity": 64,
                "duration": 0.0977273,
                "tempo": 120.0
            },
            {
                "start_time": 27.8977273,
                "end_time": 27.9977273,
                "pitch": 64,
                "velocity": 64,
                "duration": 0.1,
                "tempo": 120.0
            },
            {
                "start_time": 28.0,
                "end_time": 28.0977273,
                "pitch": 69,
                "velocity": 64,
                "duration": 0.0977273,
                "tempo": 120.0
            },
            {
                "start_time": 28.0977273,
                "end_time": 28.2,
                "pitch": 72,
                "velocity": 64,
                "duration": 0.1022727,
                "tempo": 120.0
            },
            {
                "start_time": 28.2,
                "end_time": 28.3,
                "pitch": 76,
                "velocity": 64,
                "duration": 0.1,
                "tempo": 120.0
            },
            {
                "start_time": 28.3,
                "end_time": 28.4,
                "pitch": 69,
                "velocity": 64,
                "duration": 0.1,
                "tempo": 120.0
            },
            {
                "start_time": 28.4,
                "end_time": 28.5,
                "pitch": 60,
                "velocity": 64,
                "duration": 0.1,
                "tempo": 120.0
            },
            {
                "start_time": 28.5,
                "end_time": 28.6,
                "pitch": 76,
                "velocity": 64,
                "duration": 0.1,
                "tempo": 120.0
            },
            {
                "start_time": 28.6022727,
                "end_time": 28.7,
                "pitch": 81,
                "velocity": 64,
                "duration": 0.0977273,
                "tempo": 120.0
            },
            {
                "start_time": 28.7,
                "end_time": 28.8,
                "pitch": 72,
                "velocity": 64,
                "duration": 0.1,
                "tempo": 120.0
            },
            {
                "start_time": 28.8,
                "end_time": 28.9,
                "pitch": 76,
                "velocity": 64,
                "duration": 0.1,
                "tempo": 120.0
            },
            {
                "start_time": 28.9,
                "end_time": 29.0022727,
                "pitch": 81,
                "velocity": 64,
                "duration": 0.1022727,
                "tempo": 120.0
            },
            {
                "start_time": 29.0022727,
                "end_time": 29.1,
                "pitch": 65,
                "velocity": 64,
                "duration": 0.0977273,
                "tempo": 120.0
            },
            {
                "start_time": 29.1022727,
                "end_time": 29.2022727,
                "pitch": 69,
                "velocity": 64,
                "duration": 0.1,
                "tempo": 120.0
            },
            {
                "start_time": 29.2022727,
                "end_time": 29.3022727,
                "pitch": 72,
                "velocity": 64,
                "duration": 0.1,
                "tempo": 120.0
            },
            {
                "start_time": 29.3022727,
                "end_time": 29.4045455,
                "pitch": 77,
                "velocity": 64,
                "duration": 0.1022727,
                "tempo": 120.0
            },
            {
                "start_time": 29.4045455,
                "end_time": 29.5022727,
                "pitch": 81,
                "velocity": 64,
                "duration": 0.0977273,
                "tempo": 120.0
            },
            {
                "start_time": 29.5045455,
                "end_time": 29.6045455,
                "pitch": 77,
                "velocity": 64,
                "duration": 0.1,
                "tempo": 120.0
            },
            {
                "start_time": 29.6045455,
                "end_time": 29.7022727,
                "pitch": 81,
                "velocity": 64,
                "duration": 0.0977273,
                "tempo": 120.0
            },
            {
                "start_time": 29.7045455,
                "end_time": 29.8045455,
                "pitch": 72,
                "velocity": 64,
                "duration": 0.1,
                "tempo": 120.0
            },
            {
                "start_time": 29.8045455,
                "end_time": 29.9045455,
                "pitch": 77,
                "velocity": 64,
                "duration": 0.1,
                "tempo": 120.0
            },
            {
                "start_time": 29.9045455,
                "end_time": 30.0068182,
                "pitch": 72,
                "velocity": 64,
                "duration": 0.1022727,
                "tempo": 120.0
            },
            {
                "start_time": 30.0068182,
                "end_time": 30.1068182,
                "pitch": 77,
                "velocity": 64,
                "duration": 0.1,
                "tempo": 120.0
            },
            {
                "start_time": 30.1068182,
                "end_time": 30.2068182,
                "pitch": 81,
                "velocity": 64,
                "duration": 0.1,
                "tempo": 120.0
            },
            {
                "start_time": 30.2090909,
                "end_time": 30.3068182,
                "pitch": 84,
                "velocity": 64,
                "duration": 0.0977273,
                "tempo": 120.0
            },
            {
                "start_time": 30.3068182,
                "end_time": 30.4090909,
                "pitch": 77,
                "velocity": 64,
                "duration": 0.1022727,
                "tempo": 120.0
            },
            {
                "start_time": 30.4090909,
                "end_time": 30.5068182,
                "pitch": 81,
                "velocity": 64,
                "duration": 0.0977273,
                "tempo": 120.0
            },
            {
                "start_time": 30.5090909,
                "end_time": 30.6068182,
                "pitch": 84,
                "velocity": 64,
                "duration": 0.0977273,
                "tempo": 120.0
            },
            {
                "start_time": 30.6090909,
                "end_time": 30.7068182,
                "pitch": 79,
                "velocity": 64,
                "duration": 0.0977273,
                "tempo": 120.0
            },
            {
                "start_time": 30.7090909,
                "end_time": 30.8090909,
                "pitch": 74,
                "velocity": 64,
                "duration": 0.1,
                "tempo": 120.0
            },
            {
                "start_time": 30.8090909,
                "end_time": 30.9068182,
                "pitch": 79,
                "velocity": 64,
                "duration": 0.0977273,
                "tempo": 120.0
            },
            {
                "start_time": 30.9090909,
                "end_time": 31.0090909,
                "pitch": 83,
                "velocity": 64,
                "duration": 0.1,
                "tempo": 120.0
            },
            {
                "start_time": 31.0090909,
                "end_time": 31.1090909,
                "pitch": 86,
                "velocity": 64,
                "duration": 0.1,
                "tempo": 120.0
            },
            {
                "start_time": 31.1090909,
                "end_time": 31.2090909,
                "pitch": 79,
                "velocity": 64,
                "duration": 0.1,
                "tempo": 120.0
            },
            {
                "start_time": 31.2113636,
                "end_time": 31.3090909,
                "pitch": 83,
                "velocity": 64,
                "duration": 0.0977273,
                "tempo": 120.0
            },
            {
                "start_time": 31.3113636,
                "end_time": 31.4113636,
                "pitch": 74,
                "velocity": 64,
                "duration": 0.1,
                "tempo": 120.0
            },
            {
                "start_time": 31.4113636,
                "end_time": 31.5136364,
                "pitch": 77,
                "velocity": 64,
                "duration": 0.1022727,
                "tempo": 120.0
            },
            {
                "start_time": 31.5136364,
                "end_time": 31.6181818,
                "pitch": 71,
                "velocity": 64,
                "duration": 0.1045455,
                "tempo": 120.0
            },
            {
                "start_time": 31.6181818,
                "end_time": 31.7204545,
                "pitch": 74,
                "velocity": 64,
                "duration": 0.1022727,
                "tempo": 120.0
            },
            {
                "start_time": 31.7204545,
                "end_time": 31.8227273,
                "pitch": 77,
                "velocity": 64,
                "duration": 0.1022727,
                "tempo": 120.0
            },
            {
                "start_time": 31.825,
                "end_time": 31.9204545,
                "pitch": 83,
                "velocity": 64,
                "duration": 0.0954545,
                "tempo": 120.0
            },
            {
                "start_time": 31.9204545,
                "end_time": 32.0204545,
                "pitch": 74,
                "velocity": 64,
                "duration": 0.1,
                "tempo": 120.0
            },
            {
                "start_time": 32.0204545,
                "end_time": 32.1159091,
                "pitch": 77,
                "velocity": 64,
                "duration": 0.0954545,
                "tempo": 120.0
            },
            {
                "start_time": 32.1181818,
                "end_time": 32.2159091,
                "pitch": 83,
                "velocity": 64,
                "duration": 0.0977273,
                "tempo": 120.0
            },
            {
                "start_time": 32.2159091,
                "end_time": 32.3159091,
                "pitch": 65,
                "velocity": 64,
                "duration": 0.1,
                "tempo": 120.0
            },
            {
                "start_time": 32.3159091,
                "end_time": 32.4159091,
                "pitch": 69,
                "velocity": 64,
                "duration": 0.1,
                "tempo": 120.0
            },
            {
                "start_time": 32.4159091,
                "end_time": 32.5159091,
                "pitch": 72,
                "velocity": 64,
                "duration": 0.1,
                "tempo": 120.0
            },
            {
                "start_time": 32.5159091,
                "end_time": 32.6159091,
                "pitch": 77,
                "velocity": 64,
                "duration": 0.1,
                "tempo": 120.0
            },
            {
                "start_time": 32.6159091,
                "end_time": 32.7159091,
                "pitch": 81,
                "velocity": 64,
                "duration": 0.1,
                "tempo": 120.0
            },
            {
                "start_time": 32.7159091,
                "end_time": 32.8159091,
                "pitch": 77,
                "velocity": 64,
                "duration": 0.1,
                "tempo": 120.0
            },
            {
                "start_time": 32.8181818,
                "end_time": 32.9159091,
                "pitch": 81,
                "velocity": 64,
                "duration": 0.0977273,
                "tempo": 120.0
            },
            {
                "start_time": 32.9159091,
                "end_time": 33.0159091,
                "pitch": 72,
                "velocity": 64,
                "duration": 0.1,
                "tempo": 120.0
            },
            {
                "start_time": 33.0181818,
                "end_time": 33.1159091,
                "pitch": 77,
                "velocity": 64,
                "duration": 0.0977273,
                "tempo": 120.0
            },
            {
                "start_time": 33.1159091,
                "end_time": 33.2159091,
                "pitch": 72,
                "velocity": 64,
                "duration": 0.1,
                "tempo": 120.0
            },
            {
                "start_time": 33.2181818,
                "end_time": 33.3159091,
                "pitch": 77,
                "velocity": 64,
                "duration": 0.0977273,
                "tempo": 120.0
            },
            {
                "start_time": 33.3181818,
                "end_time": 33.4181818,
                "pitch": 81,
                "velocity": 64,
                "duration": 0.1,
                "tempo": 120.0
            },
            {
                "start_time": 33.4181818,
                "end_time": 33.5181818,
                "pitch": 84,
                "velocity": 64,
                "duration": 0.1,
                "tempo": 120.0
            },
            {
                "start_time": 33.5204545,
                "end_time": 33.6227273,
                "pitch": 77,
                "velocity": 64,
                "duration": 0.1022727,
                "tempo": 120.0
            },
            {
                "start_time": 33.625,
                "end_time": 33.725,
                "pitch": 81,
                "velocity": 64,
                "duration": 0.1,
                "tempo": 120.0
            },
            {
                "start_time": 33.725,
                "end_time": 33.8272727,
                "pitch": 84,
                "velocity": 64,
                "duration": 0.1022727,
                "tempo": 120.0
            },
            {
                "start_time": 33.8295455,
                "end_time": 33.925,
                "pitch": 79,
                "velocity": 64,
                "duration": 0.0954545,
                "tempo": 120.0
            },
            {
                "start_time": 33.9272727,
                "end_time": 34.025,
                "pitch": 74,
                "velocity": 64,
                "duration": 0.0977273,
                "tempo": 120.0
            },
            {
                "start_time": 34.025,
                "end_time": 34.1227273,
                "pitch": 79,
                "velocity": 64,
                "duration": 0.0977273,
                "tempo": 120.0
            },
            {
                "start_time": 34.1227273,
                "end_time": 34.2204545,
                "pitch": 83,
                "velocity": 64,
                "duration": 0.0977273,
                "tempo": 120.0
            },
            {
                "start_time": 34.2227273,
                "end_time": 34.3227273,
                "pitch": 86,
                "velocity": 64,
                "duration": 0.1,
                "tempo": 120.0
            },
            {
                "start_time": 34.3227273,
                "end_time": 34.4272727,
                "pitch": 79,
                "velocity": 64,
                "duration": 0.1045455,
                "tempo": 120.0
            },
            {
                "start_time": 34.4272727,
                "end_time": 34.5295455,
                "pitch": 83,
                "velocity": 64,
                "duration": 0.1022727,
                "tempo": 120.0
            },
            {
                "start_time": 34.5295455,
                "end_time": 34.6318182,
                "pitch": 74,
                "velocity": 64,
                "duration": 0.1022727,
                "tempo": 120.0
            },
            {
                "start_time": 34.6318182,
                "end_time": 34.7318182,
                "pitch": 77,
                "velocity": 64,
                "duration": 0.1,
                "tempo": 120.0
            },
            {
                "start_time": 34.7318182,
                "end_time": 34.8318182,
                "pitch": 71,
                "velocity": 64,
                "duration": 0.1,
                "tempo": 120.0
            },
            {
                "start_time": 34.8340909,
                "end_time": 34.9318182,
                "pitch": 74,
                "velocity": 64,
                "duration": 0.0977273,
                "tempo": 120.0
            },
            {
                "start_time": 34.9318182,
                "end_time": 35.0318182,
                "pitch": 77,
                "velocity": 64,
                "duration": 0.1,
                "tempo": 120.0
            },
            {
                "start_time": 35.0340909,
                "end_time": 35.1318182,
                "pitch": 83,
                "velocity": 64,
                "duration": 0.0977273,
                "tempo": 120.0
            },
            {
                "start_time": 35.1340909,
                "end_time": 35.2340909,
                "pitch": 74,
                "velocity": 64,
                "duration": 0.1,
                "tempo": 120.0
            },
            {
                "start_time": 35.2363636,
                "end_time": 35.3340909,
                "pitch": 77,
                "velocity": 64,
                "duration": 0.0977273,
                "tempo": 120.0
            },
            {
                "start_time": 35.3363636,
                "end_time": 35.4363636,
                "pitch": 83,
                "velocity": 64,
                "duration": 0.1,
                "tempo": 120.0
            },
            {
                "start_time": 35.4363636,
                "end_time": 35.5363636,
                "pitch": 62,
                "velocity": 64,
                "duration": 0.1,
                "tempo": 120.0
            },
            {
                "start_time": 35.5363636,
                "end_time": 35.6363636,
                "pitch": 53,
                "velocity": 64,
                "duration": 0.1,
                "tempo": 120.0
            },
            {
                "start_time": 35.6363636,
                "end_time": 35.7363636,
                "pitch": 57,
                "velocity": 64,
                "duration": 0.1,
                "tempo": 120.0
            },
            {
                "start_time": 35.7363636,
                "end_time": 35.8363636,
                "pitch": 62,
                "velocity": 64,
                "duration": 0.1,
                "tempo": 120.0
            },
            {
                "start_time": 35.8363636,
                "end_time": 35.9363636,
                "pitch": 65,
                "velocity": 64,
                "duration": 0.1,
                "tempo": 120.0
            },
            {
                "start_time": 35.9363636,
                "end_time": 36.0363636,
                "pitch": 57,
                "velocity": 64,
                "duration": 0.1,
                "tempo": 120.0
            },
            {
                "start_time": 36.0386364,
                "end_time": 36.1363636,
                "pitch": 62,
                "velocity": 64,
                "duration": 0.0977273,
                "tempo": 120.0
            },
            {
                "start_time": 36.1363636,
                "end_time": 36.2363636,
                "pitch": 65,
                "velocity": 64,
                "duration": 0.1,
                "tempo": 120.0
            },
            {
                "start_time": 36.2386364,
                "end_time": 36.3363636,
                "pitch": 69,
                "velocity": 64,
                "duration": 0.0977273,
                "tempo": 120.0
            },
            {
                "start_time": 36.3363636,
                "end_time": 36.4363636,
                "pitch": 62,
                "velocity": 64,
                "duration": 0.1,
                "tempo": 120.0
            },
            {
                "start_time": 36.4386364,
                "end_time": 36.5363636,
                "pitch": 65,
                "velocity": 64,
                "duration": 0.0977273,
                "tempo": 120.0
            },
            {
                "start_time": 36.5386364,
                "end_time": 36.6386364,
                "pitch": 69,
                "velocity": 64,
                "duration": 0.1,
                "tempo": 120.0
            },
            {
                "start_time": 36.6386364,
                "end_time": 36.7363636,
                "pitch": 74,
                "velocity": 64,
                "duration": 0.0977273,
                "tempo": 120.0
            },
            {
                "start_time": 36.7386364,
                "end_time": 36.8386364,
                "pitch": 65,
                "velocity": 64,
                "duration": 0.1,
                "tempo": 120.0
            },
            {
                "start_time": 36.8386364,
                "end_time": 36.9363636,
                "pitch": 69,
                "velocity": 64,
                "duration": 0.0977273,
                "tempo": 120.0
            },
            {
                "start_time": 36.9386364,
                "end_time": 37.0386364,
                "pitch": 74,
                "velocity": 64,
                "duration": 0.1,
                "tempo": 120.0
            },
            {
                "start_time": 37.0386364,
                "end_time": 37.1386364,
                "pitch": 64,
                "velocity": 64,
                "duration": 0.1,
                "tempo": 120.0
            },
            {
                "start_time": 37.1386364,
                "end_time": 37.2386364,
                "pitch": 56,
                "velocity": 64,
                "duration": 0.1,
                "tempo": 120.0
            },
            {
                "start_time": 37.2409091,
                "end_time": 37.3409091,
                "pitch": 59,
                "velocity": 64,
                "duration": 0.1,
                "tempo": 120.0
            },
            {
                "start_time": 37.3409091,
                "end_time": 37.4409091,
                "pitch": 64,
                "velocity": 64,
                "duration": 0.1,
                "tempo": 120.0
            },
            {
                "start_time": 37.4409091,
                "end_time": 37.5409091,
                "pitch": 68,
                "velocity": 64,
                "duration": 0.1,
                "tempo": 120.0
            },
            {
                "start_time": 37.5409091,
                "end_time": 37.6409091,
                "pitch": 64,
                "velocity": 64,
                "duration": 0.1,
                "tempo": 120.0
            },
            {
                "start_time": 37.6431818,
                "end_time": 37.7409091,
                "pitch": 68,
                "velocity": 64,
                "duration": 0.0977273,
                "tempo": 120.0
            },
            {
                "start_time": 37.7409091,
                "end_time": 37.8409091,
                "pitch": 71,
                "velocity": 64,
                "duration": 0.1,
                "tempo": 120.0
            },
            {
                "start_time": 37.8431818,
                "end_time": 37.9409091,
                "pitch": 77,
                "velocity": 64,
                "duration": 0.0977273,
                "tempo": 120.0
            },
            {
                "start_time": 37.9431818,
                "end_time": 38.0409091,
                "pitch": 68,
                "velocity": 64,
                "duration": 0.0977273,
                "tempo": 120.0
            },
            {
                "start_time": 38.0431818,
                "end_time": 38.1409091,
                "pitch": 71,
                "velocity": 64,
                "duration": 0.0977273,
                "tempo": 120.0
            },
            {
                "start_time": 38.1431818,
                "end_time": 38.2431818,
                "pitch": 76,
                "velocity": 64,
                "duration": 0.1,
                "tempo": 120.0
            },
            {
                "start_time": 38.2431818,
                "end_time": 38.3409091,
                "pitch": 80,
                "velocity": 64,
                "duration": 0.0977273,
                "tempo": 120.0
            },
            {
                "start_time": 38.3431818,
                "end_time": 38.4431818,
                "pitch": 71,
                "velocity": 64,
                "duration": 0.1,
                "tempo": 120.0
            },
            {
                "start_time": 38.4431818,
                "end_time": 38.5409091,
                "pitch": 76,
                "velocity": 64,
                "duration": 0.0977273,
                "tempo": 120.0
            },
            {
                "start_time": 38.5431818,
                "end_time": 38.6431818,
                "pitch": 80,
                "velocity": 64,
                "duration": 0.1,
                "tempo": 120.0
            }
        ],
        "Trumpet": [
            {
                "start_time": 24.975,
                "end_time": 25.175,
                "pitch": 69,
                "velocity": 80,
                "duration": 0.2,
                "tempo": 120.0
            },
            {
                "start_time": 25.175,
                "end_time": 25.5772727,
                "pitch": 71,
                "velocity": 80,
                "duration": 0.4022727,
                "tempo": 120.0
            },
            {
                "start_time": 25.5772727,
                "end_time": 26.5909091,
                "pitch": 72,
                "velocity": 80,
                "duration": 1.0136364,
                "tempo": 120.0
            },
            {
                "start_time": 26.7863636,
                "end_time": 26.9818182,
                "pitch": 72,
                "velocity": 80,
                "duration": 0.1954545,
                "tempo": 120.0
            },
            {
                "start_time": 26.9840909,
                "end_time": 27.1886364,
                "pitch": 74,
                "velocity": 80,
                "duration": 0.2045455,
                "tempo": 120.0
            },
            {
                "start_time": 27.1886364,
                "end_time": 27.7954545,
                "pitch": 76,
                "velocity": 80,
                "duration": 0.6068182,
                "tempo": 120.0
            },
            {
                "start_time": 27.7954545,
                "end_time": 27.9954545,
                "pitch": 72,
                "velocity": 80,
                "duration": 0.2,
                "tempo": 120.0
            },
            {
                "start_time": 27.9977273,
                "end_time": 28.5977273,
                "pitch": 84,
                "velocity": 80,
                "duration": 0.6,
                "tempo": 120.0
            },
            {
                "start_time": 28.6,
                "end_time": 29.0,
                "pitch": 83,
                "velocity": 80,
                "duration": 0.4,
                "tempo": 120.0
            },
            {
                "start_time": 29.0,
                "end_time": 29.8022727,
                "pitch": 81,
                "velocity": 80,
                "duration": 0.8022727,
                "tempo": 120.0
            },
            {
                "start_time": 30.0045455,
                "end_time": 30.2068182,
                "pitch": 77,
                "velocity": 80,
                "duration": 0.2022727,
                "tempo": 120.0
            },
            {
                "start_time": 30.2068182,
                "end_time": 30.4068182,
                "pitch": 76,
                "velocity": 80,
                "duration": 0.2,
                "tempo": 120.0
            },
            {
                "start_time": 30.4068182,
                "end_time": 31.4090909,
                "pitch": 74,
                "velocity": 80,
                "duration": 1.0022727,
                "tempo": 120.0
            },
            {
                "start_time": 31.6159091,
                "end_time": 31.8204545,
                "pitch": 74,
                "velocity": 80,
                "duration": 0.2045455,
                "tempo": 120.0
            },
            {
                "start_time": 31.8227273,
                "end_time": 32.0181818,
                "pitch": 72,
                "velocity": 80,
                "duration": 0.1954545,
                "tempo": 120.0
            },
            {
                "start_time": 32.0181818,
                "end_time": 33.6204545,
                "pitch": 71,
                "velocity": 80,
                "duration": 1.6022727,
                "tempo": 120.0
            },
            {
                "start_time": 33.6227273,
                "end_time": 35.2318182,
                "pitch": 67,
                "velocity": 80,
                "duration": 1.6090909,
                "tempo": 120.0
            },
            {
                "start_time": 35.2340909,
                "end_time": 36.8363636,
                "pitch": 72,
                "velocity": 80,
                "duration": 1.6022727,
                "tempo": 120.0
            },
            {
                "start_time": 36.8363636,
                "end_time": 37.6409091,
                "pitch": 72,
                "velocity": 80,
                "duration": 0.8045455,
                "tempo": 120.0
            },
            {
                "start_time": 37.6409091,
                "end_time": 38.6409091,
                "pitch": 71,
                "velocity": 80,
                "duration": 1.0,
                "tempo": 120.0
            },
            {
                "start_time": 41.0522727,
                "end_time": 41.4522727,
                "pitch": 76,
                "velocity": 80,
                "duration": 0.4,
                "tempo": 120.0
            },
            {
                "start_time": 41.4545455,
                "end_time": 41.8545455,
                "pitch": 74,
                "velocity": 80,
                "duration": 0.4,
                "tempo": 120.0
            },
            {
                "start_time": 44.2727273,
                "end_time": 44.6727273,
                "pitch": 81,
                "velocity": 80,
                "duration": 0.4,
                "tempo": 120.0
            },
            {
                "start_time": 44.675,
                "end_time": 45.075,
                "pitch": 83,
                "velocity": 80,
                "duration": 0.4,
                "tempo": 120.0
            },
            {
                "start_time": 47.4818182,
                "end_time": 47.8818182,
                "pitch": 76,
                "velocity": 80,
                "duration": 0.4,
                "tempo": 120.0
            },
            {
                "start_time": 47.8818182,
                "end_time": 48.2818182,
                "pitch": 74,
                "velocity": 80,
                "duration": 0.4,
                "tempo": 120.0
            },
            {
                "start_time": 50.7022727,
                "end_time": 51.0931818,
                "pitch": 81,
                "velocity": 80,
                "duration": 0.3909091,
                "tempo": 120.0
            },
            {
                "start_time": 51.0931818,
                "end_time": 51.5045455,
                "pitch": 83,
                "velocity": 80,
                "duration": 0.4113636,
                "tempo": 120.0
            },
            {
                "start_time": 53.9136364,
                "end_time": 54.3159091,
                "pitch": 76,
                "velocity": 80,
                "duration": 0.4022727,
                "tempo": 120.0
            },
            {
                "start_time": 54.3181818,
                "end_time": 54.7181818,
                "pitch": 74,
                "velocity": 80,
                "duration": 0.4,
                "tempo": 120.0
            },
            {
                "start_time": 57.125,
                "end_time": 57.5227273,
                "pitch": 81,
                "velocity": 80,
                "duration": 0.3977273,
                "tempo": 120.0
            },
            {
                "start_time": 57.525,
                "end_time": 57.9340909,
                "pitch": 83,
                "velocity": 80,
                "duration": 0.4090909,
                "tempo": 120.0
            },
            {
                "start_time": 60.3409091,
                "end_time": 60.7409091,
                "pitch": 76,
                "velocity": 80,
                "duration": 0.4,
                "tempo": 120.0
            },
            {
                "start_time": 60.7431818,
                "end_time": 61.1409091,
                "pitch": 74,
                "velocity": 80,
                "duration": 0.3977273,
                "tempo": 120.0
            }
        ],
        "Electric Guitar (clean)": [
            {
                "start_time": 0.0340909,
                "end_time": 0.2318182,
                "pitch": 33,
                "velocity": 64,
                "duration": 0.1977273,
                "tempo": 120.0
            },
            {
                "start_time": 0.2340909,
                "end_time": 0.4318182,
                "pitch": 33,
                "velocity": 64,
                "duration": 0.1977273,
                "tempo": 120.0
            },
            {
                "start_time": 0.4340909,
                "end_time": 0.6318182,
                "pitch": 33,
                "velocity": 64,
                "duration": 0.1977273,
                "tempo": 120.0
            },
            {
                "start_time": 0.6340909,
                "end_time": 0.8340909,
                "pitch": 33,
                "velocity": 64,
                "duration": 0.2,
                "tempo": 120.0
            },
            {
                "start_time": 0.8340909,
                "end_time": 1.0340909,
                "pitch": 33,
                "velocity": 64,
                "duration": 0.2,
                "tempo": 120.0
            },
            {
                "start_time": 1.0340909,
                "end_time": 1.2340909,
                "pitch": 28,
                "velocity": 64,
                "duration": 0.2,
                "tempo": 120.0
            },
            {
                "start_time": 1.2340909,
                "end_time": 1.4386364,
                "pitch": 33,
                "velocity": 64,
                "duration": 0.2045455,
                "tempo": 120.0
            },
            {
                "start_time": 1.4386364,
                "end_time": 1.6454545,
                "pitch": 36,
                "velocity": 64,
                "duration": 0.2068182,
                "tempo": 120.0
            },
            {
                "start_time": 1.6454545,
                "end_time": 1.8409091,
                "pitch": 31,
                "velocity": 64,
                "duration": 0.1954545,
                "tempo": 120.0
            },
            {
                "start_time": 1.8431818,
                "end_time": 2.0363636,
                "pitch": 31,
                "velocity": 64,
                "duration": 0.1931818,
                "tempo": 120.0
            },
            {
                "start_time": 2.0386364,
                "end_time": 2.2431818,
                "pitch": 31,
                "velocity": 64,
                "duration": 0.2045455,
                "tempo": 120.0
            },
            {
                "start_time": 2.2431818,
                "end_time": 2.4477273,
                "pitch": 31,
                "velocity": 64,
                "duration": 0.2045455,
                "tempo": 120.0
            },
            {
                "start_time": 2.45,
                "end_time": 2.65,
                "pitch": 31,
                "velocity": 64,
                "duration": 0.2,
                "tempo": 120.0
            },
            {
                "start_time": 2.65,
                "end_time": 2.85,
                "pitch": 26,
                "velocity": 64,
                "duration": 0.2,
                "tempo": 120.0
            },
            {
                "start_time": 2.85,
                "end_time": 3.05,
                "pitch": 31,
                "velocity": 64,
                "duration": 0.2,
                "tempo": 120.0
            },
            {
                "start_time": 3.05,
                "end_time": 3.25,
                "pitch": 35,
                "velocity": 64,
                "duration": 0.2,
                "tempo": 120.0
            },
            {
                "start_time": 3.2522727,
                "end_time": 3.4522727,
                "pitch": 33,
                "velocity": 64,
                "duration": 0.2,
                "tempo": 120.0
            },
            {
                "start_time": 3.4522727,
                "end_time": 3.6522727,
                "pitch": 33,
                "velocity": 64,
                "duration": 0.2,
                "tempo": 120.0
            },
            {
                "start_time": 3.6545455,
                "end_time": 3.8522727,
                "pitch": 33,
                "velocity": 64,
                "duration": 0.1977273,
                "tempo": 120.0
            },
            {
                "start_time": 3.8545455,
                "end_time": 4.0545455,
                "pitch": 33,
                "velocity": 64,
                "duration": 0.2,
                "tempo": 120.0
            },
            {
                "start_time": 4.0545455,
                "end_time": 4.2545455,
                "pitch": 33,
                "velocity": 64,
                "duration": 0.2,
                "tempo": 120.0
            },
            {
                "start_time": 4.2545455,
                "end_time": 4.4545455,
                "pitch": 28,
                "velocity": 64,
                "duration": 0.2,
                "tempo": 120.0
            },
            {
                "start_time": 4.4545455,
                "end_time": 4.6545455,
                "pitch": 33,
                "velocity": 64,
                "duration": 0.2,
                "tempo": 120.0
            },
            {
                "start_time": 4.6568182,
                "end_time": 4.8568182,
                "pitch": 36,
                "velocity": 64,
                "duration": 0.2,
                "tempo": 120.0
            },
            {
                "start_time": 4.8590909,
                "end_time": 5.0568182,
                "pitch": 31,
                "velocity": 64,
                "duration": 0.1977273,
                "tempo": 120.0
            },
            {
                "start_time": 5.0590909,
                "end_time": 5.2568182,
                "pitch": 31,
                "velocity": 64,
                "duration": 0.1977273,
                "tempo": 120.0
            },
            {
                "start_time": 5.2590909,
                "end_time": 5.4590909,
                "pitch": 31,
                "velocity": 64,
                "duration": 0.2,
                "tempo": 120.0
            },
            {
                "start_time": 5.4613636,
                "end_time": 5.6613636,
                "pitch": 31,
                "velocity": 64,
                "duration": 0.2,
                "tempo": 120.0
            },
            {
                "start_time": 5.6613636,
                "end_time": 5.8613636,
                "pitch": 31,
                "velocity": 64,
                "duration": 0.2,
                "tempo": 120.0
            },
            {
                "start_time": 5.8613636,
                "end_time": 6.0613636,
                "pitch": 26,
                "velocity": 64,
                "duration": 0.2,
                "tempo": 120.0
            },
            {
                "start_time": 6.0613636,
                "end_time": 6.2636364,
                "pitch": 31,
                "velocity": 64,
                "duration": 0.2022727,
                "tempo": 120.0
            },
            {
                "start_time": 6.2636364,
                "end_time": 6.4659091,
                "pitch": 35,
                "velocity": 64,
                "duration": 0.2022727,
                "tempo": 120.0
            },
            {
                "start_time": 6.4659091,
                "end_time": 6.6659091,
                "pitch": 29,
                "velocity": 64,
                "duration": 0.2,
                "tempo": 120.0
            },
            {
                "start_time": 6.6659091,
                "end_time": 6.8681818,
                "pitch": 29,
                "velocity": 64,
                "duration": 0.2022727,
                "tempo": 120.0
            },
            {
                "start_time": 6.8681818,
                "end_time": 7.0681818,
                "pitch": 29,
                "velocity": 64,
                "duration": 0.2,
                "tempo": 120.0
            },
            {
                "start_time": 7.0681818,
                "end_time": 7.2681818,
                "pitch": 29,
                "velocity": 64,
                "duration": 0.2,
                "tempo": 120.0
            },
            {
                "start_time": 7.2681818,
                "end_time": 7.4704545,
                "pitch": 29,
                "velocity": 64,
                "duration": 0.2022727,
                "tempo": 120.0
            },
            {
                "start_time": 7.4704545,
                "end_time": 7.6704545,
                "pitch": 41,
                "velocity": 64,
                "duration": 0.2,
                "tempo": 120.0
            },
            {
                "start_time": 7.6727273,
                "end_time": 7.8727273,
                "pitch": 26,
                "velocity": 64,
                "duration": 0.2,
                "tempo": 120.0
            },
            {
                "start_time": 7.8727273,
                "end_time": 8.0727273,
                "pitch": 29,
                "velocity": 64,
                "duration": 0.2,
                "tempo": 120.0
            },
            {
                "start_time": 8.0727273,
                "end_time": 8.2727273,
                "pitch": 31,
                "velocity": 64,
                "duration": 0.2,
                "tempo": 120.0
            },
            {
                "start_time": 8.2727273,
                "end_time": 8.4727273,
                "pitch": 31,
                "velocity": 64,
                "duration": 0.2,
                "tempo": 120.0
            },
            {
                "start_time": 8.4727273,
                "end_time": 8.675,
                "pitch": 31,
                "velocity": 64,
                "duration": 0.2022727,
                "tempo": 120.0
            },
            {
                "start_time": 8.675,
                "end_time": 8.875,
                "pitch": 31,
                "velocity": 64,
                "duration": 0.2,
                "tempo": 120.0
            },
            {
                "start_time": 8.8772727,
                "end_time": 9.0818182,
                "pitch": 31,
                "velocity": 64,
                "duration": 0.2045455,
                "tempo": 120.0
            },
            {
                "start_time": 9.0818182,
                "end_time": 9.2886364,
                "pitch": 26,
                "velocity": 64,
                "duration": 0.2068182,
                "tempo": 120.0
            },
            {
                "start_time": 9.2886364,
                "end_time": 9.4886364,
                "pitch": 31,
                "velocity": 64,
                "duration": 0.2,
                "tempo": 120.0
            },
            {
                "start_time": 9.4886364,
                "end_time": 9.6909091,
                "pitch": 35,
                "velocity": 64,
                "duration": 0.2022727,
                "tempo": 120.0
            },
            {
                "start_time": 9.6931818,
                "end_time": 9.8863636,
                "pitch": 28,
                "velocity": 64,
                "duration": 0.1931818,
                "tempo": 120.0
            },
            {
                "start_time": 9.8863636,
                "end_time": 10.0840909,
                "pitch": 28,
                "velocity": 64,
                "duration": 0.1977273,
                "tempo": 120.0
            },
            {
                "start_time": 10.0840909,
                "end_time": 10.2840909,
                "pitch": 28,
                "velocity": 64,
                "duration": 0.2,
                "tempo": 120.0
            },
            {
                "start_time": 10.2840909,
                "end_time": 10.4840909,
                "pitch": 28,
                "velocity": 64,
                "duration": 0.2,
                "tempo": 120.0
            },
            {
                "start_time": 10.4840909,
                "end_time": 10.6863636,
                "pitch": 28,
                "velocity": 64,
                "duration": 0.2022727,
                "tempo": 120.0
            },
            {
                "start_time": 10.6863636,
                "end_time": 10.8863636,
                "pitch": 28,
                "velocity": 64,
                "duration": 0.2,
                "tempo": 120.0
            },
            {
                "start_time": 10.8886364,
                "end_time": 11.0931818,
                "pitch": 28,
                "velocity": 64,
                "duration": 0.2045455,
                "tempo": 120.0
            },
            {
                "start_time": 11.0931818,
                "end_time": 11.3,
                "pitch": 28,
                "velocity": 64,
                "duration": 0.2068182,
                "tempo": 120.0
            },
            {
                "start_time": 11.3,
                "end_time": 11.5,
                "pitch": 28,
                "velocity": 64,
                "duration": 0.2,
                "tempo": 120.0
            },
            {
                "start_time": 11.5,
                "end_time": 11.7022727,
                "pitch": 40,
                "velocity": 64,
                "duration": 0.2022727,
                "tempo": 120.0
            },
            {
                "start_time": 11.7022727,
                "end_time": 11.9045455,
                "pitch": 38,
                "velocity": 64,
                "duration": 0.2022727,
                "tempo": 120.0
            },
            {
                "start_time": 11.9045455,
                "end_time": 12.1045455,
                "pitch": 35,
                "velocity": 64,
                "duration": 0.2,
                "tempo": 120.0
            },
            {
                "start_time": 12.1045455,
                "end_time": 12.3068182,
                "pitch": 32,
                "velocity": 64,
                "duration": 0.2022727,
                "tempo": 120.0
            },
            {
                "start_time": 12.3068182,
                "end_time": 12.5068182,
                "pitch": 29,
                "velocity": 64,
                "duration": 0.2,
                "tempo": 120.0
            },
            {
                "start_time": 12.5090909,
                "end_time": 12.7090909,
                "pitch": 28,
                "velocity": 64,
                "duration": 0.2,
                "tempo": 120.0
            },
            {
                "start_time": 12.7090909,
                "end_time": 12.9090909,
                "pitch": 32,
                "velocity": 64,
                "duration": 0.2,
                "tempo": 120.0
            },
            {
                "start_time": 12.9113636,
                "end_time": 13.1113636,
                "pitch": 33,
                "velocity": 64,
                "duration": 0.2,
                "tempo": 120.0
            },
            {
                "start_time": 13.1113636,
                "end_time": 13.3113636,
                "pitch": 33,
                "velocity": 64,
                "duration": 0.2,
                "tempo": 120.0
            },
            {
                "start_time": 13.3113636,
                "end_time": 13.5136364,
                "pitch": 33,
                "velocity": 64,
                "duration": 0.2022727,
                "tempo": 120.0
            },
            {
                "start_time": 13.5136364,
                "end_time": 13.7159091,
                "pitch": 33,
                "velocity": 64,
                "duration": 0.2022727,
                "tempo": 120.0
            },
            {
                "start_time": 13.7159091,
                "end_time": 13.9159091,
                "pitch": 33,
                "velocity": 64,
                "duration": 0.2,
                "tempo": 120.0
            },
            {
                "start_time": 13.9181818,
                "end_time": 14.1181818,
                "pitch": 28,
                "velocity": 64,
                "duration": 0.2,
                "tempo": 120.0
            },
            {
                "start_time": 14.1181818,
                "end_time": 14.3204545,
                "pitch": 33,
                "velocity": 64,
                "duration": 0.2022727,
                "tempo": 120.0
            },
            {
                "start_time": 14.3204545,
                "end_time": 14.5227273,
                "pitch": 36,
                "velocity": 64,
                "duration": 0.2022727,
                "tempo": 120.0
            },
            {
                "start_time": 14.5227273,
                "end_time": 14.7227273,
                "pitch": 31,
                "velocity": 64,
                "duration": 0.2,
                "tempo": 120.0
            },
            {
                "start_time": 14.7227273,
                "end_time": 14.9227273,
                "pitch": 31,
                "velocity": 64,
                "duration": 0.2,
                "tempo": 120.0
            },
            {
                "start_time": 14.9227273,
                "end_time": 15.1227273,
                "pitch": 31,
                "velocity": 64,
                "duration": 0.2,
                "tempo": 120.0
            },
            {
                "start_time": 15.125,
                "end_time": 15.325,
                "pitch": 31,
                "velocity": 64,
                "duration": 0.2,
                "tempo": 120.0
            },
            {
                "start_time": 15.325,
                "end_time": 15.5318182,
                "pitch": 31,
                "velocity": 64,
                "duration": 0.2068182,
                "tempo": 120.0
            },
            {
                "start_time": 15.5318182,
                "end_time": 15.7363636,
                "pitch": 26,
                "velocity": 64,
                "duration": 0.2045455,
                "tempo": 120.0
            },
            {
                "start_time": 15.7363636,
                "end_time": 15.9318182,
                "pitch": 31,
                "velocity": 64,
                "duration": 0.1954545,
                "tempo": 120.0
            },
            {
                "start_time": 15.9340909,
                "end_time": 16.1295455,
                "pitch": 35,
                "velocity": 64,
                "duration": 0.1954545,
                "tempo": 120.0
            },
            {
                "start_time": 16.1295455,
                "end_time": 16.3295455,
                "pitch": 33,
                "velocity": 64,
                "duration": 0.2,
                "tempo": 120.0
            },
            {
                "start_time": 16.3318182,
                "end_time": 16.5318182,
                "pitch": 33,
                "velocity": 64,
                "duration": 0.2,
                "tempo": 120.0
            },
            {
                "start_time": 16.5318182,
                "end_time": 16.7318182,
                "pitch": 33,
                "velocity": 64,
                "duration": 0.2,
                "tempo": 120.0
            },
            {
                "start_time": 16.7340909,
                "end_time": 16.9340909,
                "pitch": 33,
                "velocity": 64,
                "duration": 0.2,
                "tempo": 120.0
            },
            {
                "start_time": 16.9340909,
                "end_time": 17.1340909,
                "pitch": 33,
                "velocity": 64,
                "duration": 0.2,
                "tempo": 120.0
            },
            {
                "start_time": 17.1340909,
                "end_time": 17.3363636,
                "pitch": 28,
                "velocity": 64,
                "duration": 0.2022727,
                "tempo": 120.0
            },
            {
                "start_time": 17.3363636,
                "end_time": 17.5363636,
                "pitch": 33,
                "velocity": 64,
                "duration": 0.2,
                "tempo": 120.0
            },
            {
                "start_time": 17.5363636,
                "end_time": 17.7363636,
                "pitch": 36,
                "velocity": 64,
                "duration": 0.2,
                "tempo": 120.0
            },
            {
                "start_time": 17.7386364,
                "end_time": 17.9363636,
                "pitch": 31,
                "velocity": 64,
                "duration": 0.1977273,
                "tempo": 120.0
            },
            {
                "start_time": 17.9386364,
                "end_time": 18.1363636,
                "pitch": 31,
                "velocity": 64,
                "duration": 0.1977273,
                "tempo": 120.0
            },
            {
                "start_time": 18.1386364,
                "end_time": 18.3431818,
                "pitch": 31,
                "velocity": 64,
                "duration": 0.2045455,
                "tempo": 120.0
            },
            {
                "start_time": 18.3431818,
                "end_time": 18.5477273,
                "pitch": 31,
                "velocity": 64,
                "duration": 0.2045455,
                "tempo": 120.0
            },
            {
                "start_time": 18.55,
                "end_time": 18.75,
                "pitch": 31,
                "velocity": 64,
                "duration": 0.2,
                "tempo": 120.0
            },
            {
                "start_time": 18.7522727,
                "end_time": 18.9522727,
                "pitch": 26,
                "velocity": 64,
                "duration": 0.2,
                "tempo": 120.0
            },
            {
                "start_time": 18.9522727,
                "end_time": 19.1522727,
                "pitch": 31,
                "velocity": 64,
                "duration": 0.2,
                "tempo": 120.0
            },
            {
                "start_time": 19.1522727,
                "end_time": 19.3522727,
                "pitch": 35,
                "velocity": 64,
                "duration": 0.2,
                "tempo": 120.0
            },
            {
                "start_time": 19.3545455,
                "end_time": 19.5545455,
                "pitch": 29,
                "velocity": 64,
                "duration": 0.2,
                "tempo": 120.0
            },
            {
                "start_time": 19.5545455,
                "end_time": 19.7545455,
                "pitch": 29,
                "velocity": 64,
                "duration": 0.2,
                "tempo": 120.0
            },
            {
                "start_time": 19.7568182,
                "end_time": 19.9545455,
                "pitch": 29,
                "velocity": 64,
                "duration": 0.1977273,
                "tempo": 120.0
            },
            {
                "start_time": 19.9568182,
                "end_time": 20.1568182,
                "pitch": 29,
                "velocity": 64,
                "duration": 0.2,
                "tempo": 120.0
            },
            {
                "start_time": 20.1568182,
                "end_time": 20.3568182,
                "pitch": 29,
                "velocity": 64,
                "duration": 0.2,
                "tempo": 120.0
            },
            {
                "start_time": 20.3568182,
                "end_time": 20.5568182,
                "pitch": 41,
                "velocity": 64,
                "duration": 0.2,
                "tempo": 120.0
            },
            {
                "start_time": 20.5568182,
                "end_time": 20.7568182,
                "pitch": 26,
                "velocity": 64,
                "duration": 0.2,
                "tempo": 120.0
            },
            {
                "start_time": 20.7590909,
                "end_time": 20.9613636,
                "pitch": 29,
                "velocity": 64,
                "duration": 0.2022727,
                "tempo": 120.0
            },
            {
                "start_time": 20.9613636,
                "end_time": 21.1590909,
                "pitch": 31,
                "velocity": 64,
                "duration": 0.1977273,
                "tempo": 120.0
            },
            {
                "start_time": 21.1613636,
                "end_time": 21.3590909,
                "pitch": 31,
                "velocity": 64,
                "duration": 0.1977273,
                "tempo": 120.0
            },
            {
                "start_time": 21.3613636,
                "end_time": 21.5613636,
                "pitch": 31,
                "velocity": 64,
                "duration": 0.2,
                "tempo": 120.0
            },
            {
                "start_time": 21.5636364,
                "end_time": 21.7636364,
                "pitch": 31,
                "velocity": 64,
                "duration": 0.2,
                "tempo": 120.0
            },
            {
                "start_time": 21.7636364,
                "end_time": 21.9636364,
                "pitch": 31,
                "velocity": 64,
                "duration": 0.2,
                "tempo": 120.0
            },
            {
                "start_time": 21.9636364,
                "end_time": 22.1636364,
                "pitch": 26,
                "velocity": 64,
                "duration": 0.2,
                "tempo": 120.0
            },
            {
                "start_time": 22.1659091,
                "end_time": 22.3636364,
                "pitch": 31,
                "velocity": 64,
                "duration": 0.1977273,
                "tempo": 120.0
            },
            {
                "start_time": 22.3659091,
                "end_time": 22.5659091,
                "pitch": 35,
                "velocity": 64,
                "duration": 0.2,
                "tempo": 120.0
            },
            {
                "start_time": 22.5659091,
                "end_time": 22.7659091,
                "pitch": 33,
                "velocity": 64,
                "duration": 0.2,
                "tempo": 120.0
            },
            {
                "start_time": 22.7659091,
                "end_time": 22.9681818,
                "pitch": 33,
                "velocity": 64,
                "duration": 0.2022727,
                "tempo": 120.0
            },
            {
                "start_time": 22.9681818,
                "end_time": 23.1681818,
                "pitch": 33,
                "velocity": 64,
                "duration": 0.2,
                "tempo": 120.0
            },
            {
                "start_time": 23.1681818,
                "end_time": 23.3681818,
                "pitch": 33,
                "velocity": 64,
                "duration": 0.2,
                "tempo": 120.0
            },
            {
                "start_time": 23.3681818,
                "end_time": 23.5704545,
                "pitch": 33,
                "velocity": 64,
                "duration": 0.2022727,
                "tempo": 120.0
            },
            {
                "start_time": 23.5704545,
                "end_time": 23.7704545,
                "pitch": 33,
                "velocity": 64,
                "duration": 0.2,
                "tempo": 120.0
            },
            {
                "start_time": 23.7727273,
                "end_time": 23.9704545,
                "pitch": 33,
                "velocity": 64,
                "duration": 0.1977273,
                "tempo": 120.0
            },
            {
                "start_time": 23.9727273,
                "end_time": 24.1727273,
                "pitch": 33,
                "velocity": 64,
                "duration": 0.2,
                "tempo": 120.0
            },
            {
                "start_time": 24.1727273,
                "end_time": 24.3727273,
                "pitch": 33,
                "velocity": 64,
                "duration": 0.2,
                "tempo": 120.0
            },
            {
                "start_time": 24.3727273,
                "end_time": 24.5727273,
                "pitch": 33,
                "velocity": 64,
                "duration": 0.2,
                "tempo": 120.0
            },
            {
                "start_time": 24.5727273,
                "end_time": 24.7727273,
                "pitch": 33,
                "velocity": 64,
                "duration": 0.2,
                "tempo": 120.0
            },
            {
                "start_time": 24.775,
                "end_time": 24.975,
                "pitch": 33,
                "velocity": 64,
                "duration": 0.2,
                "tempo": 120.0
            },
            {
                "start_time": 24.9772727,
                "end_time": 25.1772727,
                "pitch": 33,
                "velocity": 64,
                "duration": 0.2,
                "tempo": 120.0
            },
            {
                "start_time": 25.1772727,
                "end_time": 25.375,
                "pitch": 35,
                "velocity": 64,
                "duration": 0.1977273,
                "tempo": 120.0
            },
            {
                "start_time": 25.5795455,
                "end_time": 25.9795455,
                "pitch": 36,
                "velocity": 64,
                "duration": 0.4,
                "tempo": 120.0
            },
            {
                "start_time": 25.9795455,
                "end_time": 26.1795455,
                "pitch": 48,
                "velocity": 64,
                "duration": 0.2,
                "tempo": 120.0
            },
            {
                "start_time": 26.1795455,
                "end_time": 26.3863636,
                "pitch": 36,
                "velocity": 64,
                "duration": 0.2068182,
                "tempo": 120.0
            },
            {
                "start_time": 26.3863636,
                "end_time": 26.5909091,
                "pitch": 36,
                "velocity": 64,
                "duration": 0.2045455,
                "tempo": 120.0
            },
            {
                "start_time": 26.5909091,
                "end_time": 26.7863636,
                "pitch": 36,
                "velocity": 64,
                "duration": 0.1954545,
                "tempo": 120.0
            },
            {
                "start_time": 26.7886364,
                "end_time": 26.9840909,
                "pitch": 36,
                "velocity": 64,
                "duration": 0.1954545,
                "tempo": 120.0
            },
            {
                "start_time": 26.9840909,
                "end_time": 27.1886364,
                "pitch": 36,
                "velocity": 64,
                "duration": 0.2045455,
                "tempo": 120.0
            },
            {
                "start_time": 27.1909091,
                "end_time": 27.5954545,
                "pitch": 33,
                "velocity": 64,
                "duration": 0.4045455,
                "tempo": 120.0
            },
            {
                "start_time": 27.5954545,
                "end_time": 27.7954545,
                "pitch": 45,
                "velocity": 64,
                "duration": 0.2,
                "tempo": 120.0
            },
            {
                "start_time": 27.7977273,
                "end_time": 27.9977273,
                "pitch": 33,
                "velocity": 64,
                "duration": 0.2,
                "tempo": 120.0
            },
            {
                "start_time": 27.9977273,
                "end_time": 28.1977273,
                "pitch": 33,
                "velocity": 64,
                "duration": 0.2,
                "tempo": 120.0
            },
            {
                "start_time": 28.2,
                "end_time": 28.3977273,
                "pitch": 33,
                "velocity": 64,
                "duration": 0.1977273,
                "tempo": 120.0
            },
            {
                "start_time": 28.4,
                "end_time": 28.6,
                "pitch": 33,
                "velocity": 64,
                "duration": 0.2,
                "tempo": 120.0
            },
            {
                "start_time": 28.6,
                "end_time": 28.8,
                "pitch": 33,
                "velocity": 64,
                "duration": 0.2,
                "tempo": 120.0
            },
            {
                "start_time": 28.8,
                "end_time": 29.0,
                "pitch": 33,
                "velocity": 64,
                "duration": 0.2,
                "tempo": 120.0
            },
            {
                "start_time": 29.0,
                "end_time": 29.2022727,
                "pitch": 29,
                "velocity": 64,
                "duration": 0.2022727,
                "tempo": 120.0
            },
            {
                "start_time": 29.2022727,
                "end_time": 29.4022727,
                "pitch": 29,
                "velocity": 64,
                "duration": 0.2,
                "tempo": 120.0
            },
            {
                "start_time": 29.4045455,
                "end_time": 29.6022727,
                "pitch": 41,
                "velocity": 64,
                "duration": 0.1977273,
                "tempo": 120.0
            },
            {
                "start_time": 29.6045455,
                "end_time": 30.0045455,
                "pitch": 29,
                "velocity": 64,
                "duration": 0.4,
                "tempo": 120.0
            },
            {
                "start_time": 30.0068182,
                "end_time": 30.2068182,
                "pitch": 29,
                "velocity": 64,
                "duration": 0.2,
                "tempo": 120.0
            },
            {
                "start_time": 30.2068182,
                "end_time": 30.4068182,
                "pitch": 29,
                "velocity": 64,
                "duration": 0.2,
                "tempo": 120.0
            },
            {
                "start_time": 30.4090909,
                "end_time": 30.8068182,
                "pitch": 31,
                "velocity": 64,
                "duration": 0.3977273,
                "tempo": 120.0
            },
            {
                "start_time": 30.8090909,
                "end_time": 31.0068182,
                "pitch": 43,
                "velocity": 64,
                "duration": 0.1977273,
                "tempo": 120.0
            },
            {
                "start_time": 31.0090909,
                "end_time": 31.2090909,
                "pitch": 31,
                "velocity": 64,
                "duration": 0.2,
                "tempo": 120.0
            },
            {
                "start_time": 31.2090909,
                "end_time": 31.4113636,
                "pitch": 31,
                "velocity": 64,
                "duration": 0.2022727,
                "tempo": 120.0
            },
            {
                "start_time": 31.4113636,
                "end_time": 31.6159091,
                "pitch": 31,
                "velocity": 64,
                "duration": 0.2045455,
                "tempo": 120.0
            },
            {
                "start_time": 31.6181818,
                "end_time": 31.8227273,
                "pitch": 31,
                "velocity": 64,
                "duration": 0.2045455,
                "tempo": 120.0
            },
            {
                "start_time": 31.8227273,
                "end_time": 32.0181818,
                "pitch": 31,
                "velocity": 64,
                "duration": 0.1954545,
                "tempo": 120.0
            },
            {
                "start_time": 32.0204545,
                "end_time": 32.4159091,
                "pitch": 29,
                "velocity": 64,
                "duration": 0.3954545,
                "tempo": 120.0
            },
            {
                "start_time": 32.4159091,
                "end_time": 32.6159091,
                "pitch": 41,
                "velocity": 64,
                "duration": 0.2,
                "tempo": 120.0
            },
            {
                "start_time": 32.6159091,
                "end_time": 32.8159091,
                "pitch": 29,
                "velocity": 64,
                "duration": 0.2,
                "tempo": 120.0
            },
            {
                "start_time": 32.8159091,
                "end_time": 33.0159091,
                "pitch": 29,
                "velocity": 64,
                "duration": 0.2,
                "tempo": 120.0
            },
            {
                "start_time": 33.0159091,
                "end_time": 33.2159091,
                "pitch": 29,
                "velocity": 64,
                "duration": 0.2,
                "tempo": 120.0
            },
            {
                "start_time": 33.2159091,
                "end_time": 33.4159091,
                "pitch": 29,
                "velocity": 64,
                "duration": 0.2,
                "tempo": 120.0
            },
            {
                "start_time": 33.4159091,
                "end_time": 33.6227273,
                "pitch": 29,
                "velocity": 64,
                "duration": 0.2068182,
                "tempo": 120.0
            },
            {
                "start_time": 33.6227273,
                "end_time": 34.0227273,
                "pitch": 31,
                "velocity": 64,
                "duration": 0.4,
                "tempo": 120.0
            },
            {
                "start_time": 34.025,
                "end_time": 34.2204545,
                "pitch": 31,
                "velocity": 64,
                "duration": 0.1954545,
                "tempo": 120.0
            },
            {
                "start_time": 34.2204545,
                "end_time": 34.425,
                "pitch": 43,
                "velocity": 64,
                "duration": 0.2045455,
                "tempo": 120.0
            },
            {
                "start_time": 34.4272727,
                "end_time": 34.8318182,
                "pitch": 31,
                "velocity": 64,
                "duration": 0.4045455,
                "tempo": 120.0
            },
            {
                "start_time": 34.8318182,
                "end_time": 35.0318182,
                "pitch": 31,
                "velocity": 64,
                "duration": 0.2,
                "tempo": 120.0
            },
            {
                "start_time": 35.0318182,
                "end_time": 35.2340909,
                "pitch": 31,
                "velocity": 64,
                "duration": 0.2022727,
                "tempo": 120.0
            },
            {
                "start_time": 35.2340909,
                "end_time": 35.6363636,
                "pitch": 38,
                "velocity": 64,
                "duration": 0.4022727,
                "tempo": 120.0
            },
            {
                "start_time": 35.6363636,
                "end_time": 35.8363636,
                "pitch": 38,
                "velocity": 64,
                "duration": 0.2,
                "tempo": 120.0
            },
            {
                "start_time": 35.8363636,
                "end_time": 36.0363636,
                "pitch": 38,
                "velocity": 64,
                "duration": 0.2,
                "tempo": 120.0
            },
            {
                "start_time": 36.0363636,
                "end_time": 36.2363636,
                "pitch": 38,
                "velocity": 64,
                "duration": 0.2,
                "tempo": 120.0
            },
            {
                "start_time": 36.2363636,
                "end_time": 36.4363636,
                "pitch": 38,
                "velocity": 64,
                "duration": 0.2,
                "tempo": 120.0
            },
            {
                "start_time": 36.4363636,
                "end_time": 36.6363636,
                "pitch": 38,
                "velocity": 64,
                "duration": 0.2,
                "tempo": 120.0
            },
            {
                "start_time": 36.6363636,
                "end_time": 36.8363636,
                "pitch": 38,
                "velocity": 64,
                "duration": 0.2,
                "tempo": 120.0
            },
            {
                "start_time": 36.8386364,
                "end_time": 37.2386364,
                "pitch": 28,
                "velocity": 64,
                "duration": 0.4,
                "tempo": 120.0
            },
            {
                "start_time": 37.2386364,
                "end_time": 37.3386364,
                "pitch": 40,
                "velocity": 64,
                "duration": 0.1,
                "tempo": 120.0
            },
            {
                "start_time": 37.3409091,
                "end_time": 37.4409091,
                "pitch": 28,
                "velocity": 64,
                "duration": 0.1,
                "tempo": 120.0
            },
            {
                "start_time": 37.4409091,
                "end_time": 37.6409091,
                "pitch": 28,
                "velocity": 64,
                "duration": 0.2,
                "tempo": 120.0
            },
            {
                "start_time": 37.6409091,
                "end_time": 37.8409091,
                "pitch": 28,
                "velocity": 64,
                "duration": 0.2,
                "tempo": 120.0
            },
            {
                "start_time": 37.8409091,
                "end_time": 38.0409091,
                "pitch": 32,
                "velocity": 64,
                "duration": 0.2,
                "tempo": 120.0
            },
            {
                "start_time": 38.0409091,
                "end_time": 38.2409091,
                "pitch": 32,
                "velocity": 64,
                "duration": 0.2,
                "tempo": 120.0
            },
            {
                "start_time": 38.2431818,
                "end_time": 38.4409091,
                "pitch": 35,
                "velocity": 64,
                "duration": 0.1977273,
                "tempo": 120.0
            },
            {
                "start_time": 38.4431818,
                "end_time": 38.6431818,
                "pitch": 35,
                "velocity": 64,
                "duration": 0.2,
                "tempo": 120.0
            },
            {
                "start_time": 38.6431818,
                "end_time": 38.8431818,
                "pitch": 29,
                "velocity": 64,
                "duration": 0.2,
                "tempo": 120.0
            },
            {
                "start_time": 38.8431818,
                "end_time": 39.2454545,
                "pitch": 29,
                "velocity": 64,
                "duration": 0.4022727,
                "tempo": 120.0
            },
            {
                "start_time": 39.2454545,
                "end_time": 39.8568182,
                "pitch": 28,
                "velocity": 64,
                "duration": 0.6113636,
                "tempo": 120.0
            },
            {
                "start_time": 39.8590909,
                "end_time": 41.0522727,
                "pitch": 28,
                "velocity": 64,
                "duration": 1.1931818,
                "tempo": 120.0
            },
            {
                "start_time": 41.0522727,
                "end_time": 41.4545455,
                "pitch": 41,
                "velocity": 64,
                "duration": 0.4022727,
                "tempo": 120.0
            },
            {
                "start_time": 41.4545455,
                "end_time": 41.8545455,
                "pitch": 40,
                "velocity": 64,
                "duration": 0.4,
                "tempo": 120.0
            },
            {
                "start_time": 41.8568182,
                "end_time": 42.0613636,
                "pitch": 33,
                "velocity": 64,
                "duration": 0.2045455,
                "tempo": 120.0
            },
            {
                "start_time": 42.0613636,
                "end_time": 42.4681818,
                "pitch": 33,
                "velocity": 64,
                "duration": 0.4068182,
                "tempo": 120.0
            },
            {
                "start_time": 42.4681818,
                "end_time": 43.0704545,
                "pitch": 33,
                "velocity": 64,
                "duration": 0.6022727,
                "tempo": 120.0
            },
            {
                "start_time": 43.0704545,
                "end_time": 44.2727273,
                "pitch": 33,
                "velocity": 64,
                "duration": 1.2022727,
                "tempo": 120.0
            },
            {
                "start_time": 44.2727273,
                "end_time": 44.675,
                "pitch": 33,
                "velocity": 64,
                "duration": 0.4022727,
                "tempo": 120.0
            },
            {
                "start_time": 44.675,
                "end_time": 45.075,
                "pitch": 31,
                "velocity": 64,
                "duration": 0.4,
                "tempo": 120.0
            },
            {
                "start_time": 45.0772727,
                "end_time": 45.275,
                "pitch": 29,
                "velocity": 64,
                "duration": 0.1977273,
                "tempo": 120.0
            },
            {
                "start_time": 45.2772727,
                "end_time": 45.675,
                "pitch": 29,
                "velocity": 64,
                "duration": 0.3977273,
                "tempo": 120.0
            },
            {
                "start_time": 45.6772727,
                "end_time": 46.2863636,
                "pitch": 28,
                "velocity": 64,
                "duration": 0.6090909,
                "tempo": 120.0
            },
            {
                "start_time": 46.2886364,
                "end_time": 47.4818182,
                "pitch": 28,
                "velocity": 64,
                "duration": 1.1931818,
                "tempo": 120.0
            },
            {
                "start_time": 47.4818182,
                "end_time": 47.8818182,
                "pitch": 41,
                "velocity": 64,
                "duration": 0.4,
                "tempo": 120.0
            },
            {
                "start_time": 47.8818182,
                "end_time": 48.2818182,
                "pitch": 40,
                "velocity": 64,
                "duration": 0.4,
                "tempo": 120.0
            },
            {
                "start_time": 48.2840909,
                "end_time": 48.4840909,
                "pitch": 33,
                "velocity": 64,
                "duration": 0.2,
                "tempo": 120.0
            },
            {
                "start_time": 48.4840909,
                "end_time": 48.8909091,
                "pitch": 33,
                "velocity": 64,
                "duration": 0.4068182,
                "tempo": 120.0
            },
            {
                "start_time": 48.8909091,
                "end_time": 49.4977273,
                "pitch": 33,
                "velocity": 64,
                "duration": 0.6068182,
                "tempo": 120.0
            },
            {
                "start_time": 49.4977273,
                "end_time": 50.7022727,
                "pitch": 33,
                "velocity": 64,
                "duration": 1.2045455,
                "tempo": 120.0
            },
            {
                "start_time": 50.7022727,
                "end_time": 51.0931818,
                "pitch": 33,
                "velocity": 64,
                "duration": 0.3909091,
                "tempo": 120.0
            },
            {
                "start_time": 51.0954545,
                "end_time": 51.5068182,
                "pitch": 31,
                "velocity": 64,
                "duration": 0.4113636,
                "tempo": 120.0
            },
            {
                "start_time": 51.5068182,
                "end_time": 51.7068182,
                "pitch": 29,
                "velocity": 64,
                "duration": 0.2,
                "tempo": 120.0
            },
            {
                "start_time": 51.7068182,
                "end_time": 52.1068182,
                "pitch": 29,
                "velocity": 64,
                "duration": 0.4,
                "tempo": 120.0
            },
            {
                "start_time": 52.1090909,
                "end_time": 52.7204545,
                "pitch": 28,
                "velocity": 64,
                "duration": 0.6113636,
                "tempo": 120.0
            },
            {
                "start_time": 52.7204545,
                "end_time": 53.9136364,
                "pitch": 28,
                "velocity": 64,
                "duration": 1.1931818,
                "tempo": 120.0
            },
            {
                "start_time": 53.9159091,
                "end_time": 54.3181818,
                "pitch": 41,
                "velocity": 64,
                "duration": 0.4022727,
                "tempo": 120.0
            },
            {
                "start_time": 54.3181818,
                "end_time": 54.7181818,
                "pitch": 40,
                "velocity": 64,
                "duration": 0.4,
                "tempo": 120.0
            },
            {
                "start_time": 54.7204545,
                "end_time": 54.9181818,
                "pitch": 33,
                "velocity": 64,
                "duration": 0.1977273,
                "tempo": 120.0
            },
            {
                "start_time": 54.9181818,
                "end_time": 55.3181818,
                "pitch": 33,
                "velocity": 64,
                "duration": 0.4,
                "tempo": 120.0
            },
            {
                "start_time": 55.3204545,
                "end_time": 55.9295455,
                "pitch": 33,
                "velocity": 64,
                "duration": 0.6090909,
                "tempo": 120.0
            },
            {
                "start_time": 55.9318182,
                "end_time": 57.125,
                "pitch": 33,
                "velocity": 64,
                "duration": 1.1931818,
                "tempo": 120.0
            },
            {
                "start_time": 57.125,
                "end_time": 57.525,
                "pitch": 45,
                "velocity": 64,
                "duration": 0.4,
                "tempo": 120.0
            },
            {
                "start_time": 57.525,
                "end_time": 57.9363636,
                "pitch": 43,
                "velocity": 64,
                "duration": 0.4113636,
                "tempo": 120.0
            },
            {
                "start_time": 57.9363636,
                "end_time": 58.1363636,
                "pitch": 29,
                "velocity": 64,
                "duration": 0.2,
                "tempo": 120.0
            },
            {
                "start_time": 58.1363636,
                "end_time": 58.5363636,
                "pitch": 29,
                "velocity": 64,
                "duration": 0.4,
                "tempo": 120.0
            },
            {
                "start_time": 58.5386364,
                "end_time": 59.1363636,
                "pitch": 28,
                "velocity": 64,
                "duration": 0.5977273,
                "tempo": 120.0
            },
            {
                "start_time": 59.1386364,
                "end_time": 60.3409091,
                "pitch": 28,
                "velocity": 64,
                "duration": 1.2022727,
                "tempo": 120.0
            },
            {
                "start_time": 60.3431818,
                "end_time": 60.7431818,
                "pitch": 41,
                "velocity": 64,
                "duration": 0.4,
                "tempo": 120.0
            },
            {
                "start_time": 60.7431818,
                "end_time": 61.1431818,
                "pitch": 40,
                "velocity": 64,
                "duration": 0.4,
                "tempo": 120.0
            },
            {
                "start_time": 61.1431818,
                "end_time": 61.3431818,
                "pitch": 33,
                "velocity": 64,
                "duration": 0.2,
                "tempo": 120.0
            },
            {
                "start_time": 61.3431818,
                "end_time": 61.7454545,
                "pitch": 33,
                "velocity": 64,
                "duration": 0.4022727,
                "tempo": 120.0
            },
            {
                "start_time": 61.7454545,
                "end_time": 62.3568182,
                "pitch": 33,
                "velocity": 64,
                "duration": 0.6113636,
                "tempo": 120.0
            },
            {
                "start_time": 62.3590909,
                "end_time": 64.3545455,
                "pitch": 45,
                "velocity": 64,
                "duration": 1.9954545,
                "tempo": 120.0
            },
            {
                "start_time": 64.3613636,
                "end_time": 64.3636364,
                "pitch": 33,
                "velocity": 64,
                "duration": 0.0022727,
                "tempo": 120.0
            }
        ],
        "Violin": [
            {
                "start_time": 0.0340909,
                "end_time": 0.1318182,
                "pitch": 69,
                "velocity": 127,
                "duration": 0.0977273,
                "tempo": 120.0
            },
            {
                "start_time": 0.1318182,
                "end_time": 0.2318182,
                "pitch": 71,
                "velocity": 127,
                "duration": 0.1,
                "tempo": 120.0
            },
            {
                "start_time": 0.2318182,
                "end_time": 0.4318182,
                "pitch": 72,
                "velocity": 127,
                "duration": 0.2,
                "tempo": 120.0
            },
            {
                "start_time": 0.8340909,
                "end_time": 0.9318182,
                "pitch": 57,
                "velocity": 127,
                "duration": 0.0977273,
                "tempo": 120.0
            },
            {
                "start_time": 0.9340909,
                "end_time": 1.0318182,
                "pitch": 59,
                "velocity": 127,
                "duration": 0.0977273,
                "tempo": 120.0
            },
            {
                "start_time": 1.0340909,
                "end_time": 1.2340909,
                "pitch": 60,
                "velocity": 127,
                "duration": 0.2,
                "tempo": 120.0
            },
            {
                "start_time": 1.6454545,
                "end_time": 1.8409091,
                "pitch": 74,
                "velocity": 127,
                "duration": 0.1954545,
                "tempo": 120.0
            },
            {
                "start_time": 1.8409091,
                "end_time": 2.0363636,
                "pitch": 71,
                "velocity": 127,
                "duration": 0.1954545,
                "tempo": 120.0
            },
            {
                "start_time": 2.2431818,
                "end_time": 2.4477273,
                "pitch": 67,
                "velocity": 127,
                "duration": 0.2045455,
                "tempo": 120.0
            },
            {
                "start_time": 2.65,
                "end_time": 3.25,
                "pitch": 79,
                "velocity": 127,
                "duration": 0.6,
                "tempo": 120.0
            },
            {
                "start_time": 3.25,
                "end_time": 4.0522727,
                "pitch": 76,
                "velocity": 127,
                "duration": 0.8022727,
                "tempo": 120.0
            },
            {
                "start_time": 4.0545455,
                "end_time": 4.4545455,
                "pitch": 72,
                "velocity": 127,
                "duration": 0.4,
                "tempo": 120.0
            },
            {
                "start_time": 4.4545455,
                "end_time": 4.8568182,
                "pitch": 76,
                "velocity": 127,
                "duration": 0.4022727,
                "tempo": 120.0
            },
            {
                "start_time": 4.8568182,
                "end_time": 5.0568182,
                "pitch": 74,
                "velocity": 127,
                "duration": 0.2,
                "tempo": 120.0
            },
            {
                "start_time": 5.0568182,
                "end_time": 5.4590909,
                "pitch": 72,
                "velocity": 127,
                "duration": 0.4022727,
                "tempo": 120.0
            },
            {
                "start_time": 5.4590909,
                "end_time": 5.8613636,
                "pitch": 71,
                "velocity": 127,
                "duration": 0.4022727,
                "tempo": 120.0
            },
            {
                "start_time": 5.8613636,
                "end_time": 6.4636364,
                "pitch": 67,
                "velocity": 127,
                "duration": 0.6022727,
                "tempo": 120.0
            },
            {
                "start_time": 6.4659091,
                "end_time": 8.0727273,
                "pitch": 76,
                "velocity": 127,
                "duration": 1.6068182,
                "tempo": 120.0
            },
            {
                "start_time": 8.0727273,
                "end_time": 8.6727273,
                "pitch": 74,
                "velocity": 127,
                "duration": 0.6,
                "tempo": 120.0
            },
            {
                "start_time": 8.675,
                "end_time": 9.2863636,
                "pitch": 72,
                "velocity": 127,
                "duration": 0.6113636,
                "tempo": 120.0
            },
            {
                "start_time": 9.2886364,
                "end_time": 9.6909091,
                "pitch": 71,
                "velocity": 127,
                "duration": 0.4022727,
                "tempo": 120.0
            },
            {
                "start_time": 9.6909091,
                "end_time": 11.0909091,
                "pitch": 69,
                "velocity": 127,
                "duration": 1.4,
                "tempo": 120.0
            },
            {
                "start_time": 11.0931818,
                "end_time": 11.1954545,
                "pitch": 68,
                "velocity": 127,
                "duration": 0.1022727,
                "tempo": 120.0
            },
            {
                "start_time": 11.1954545,
                "end_time": 11.2977273,
                "pitch": 69,
                "velocity": 127,
                "duration": 0.1022727,
                "tempo": 120.0
            },
            {
                "start_time": 11.3,
                "end_time": 11.9022727,
                "pitch": 71,
                "velocity": 127,
                "duration": 0.6022727,
                "tempo": 120.0
            },
            {
                "start_time": 11.9045455,
                "end_time": 12.9090909,
                "pitch": 76,
                "velocity": 127,
                "duration": 1.0045455,
                "tempo": 120.0
            },
            {
                "start_time": 12.9090909,
                "end_time": 13.0090909,
                "pitch": 69,
                "velocity": 127,
                "duration": 0.1,
                "tempo": 120.0
            },
            {
                "start_time": 13.0090909,
                "end_time": 13.1090909,
                "pitch": 71,
                "velocity": 127,
                "duration": 0.1,
                "tempo": 120.0
            },
            {
                "start_time": 13.1113636,
                "end_time": 13.3113636,
                "pitch": 72,
                "velocity": 127,
                "duration": 0.2,
                "tempo": 120.0
            },
            {
                "start_time": 13.7159091,
                "end_time": 13.8159091,
                "pitch": 57,
                "velocity": 127,
                "duration": 0.1,
                "tempo": 120.0
            },
            {
                "start_time": 13.8159091,
                "end_time": 13.9159091,
                "pitch": 59,
                "velocity": 127,
                "duration": 0.1,
                "tempo": 120.0
            },
            {
                "start_time": 13.9159091,
                "end_time": 14.1181818,
                "pitch": 60,
                "velocity": 127,
                "duration": 0.2022727,
                "tempo": 120.0
            },
            {
                "start_time": 14.5227273,
                "end_time": 14.7204545,
                "pitch": 74,
                "velocity": 127,
                "duration": 0.1977273,
                "tempo": 120.0
            },
            {
                "start_time": 14.7227273,
                "end_time": 14.9204545,
                "pitch": 71,
                "velocity": 127,
                "duration": 0.1977273,
                "tempo": 120.0
            },
            {
                "start_time": 15.1227273,
                "end_time": 15.325,
                "pitch": 67,
                "velocity": 127,
                "duration": 0.2022727,
                "tempo": 120.0
            },
            {
                "start_time": 15.5318182,
                "end_time": 16.1295455,
                "pitch": 79,
                "velocity": 127,
                "duration": 0.5977273,
                "tempo": 120.0
            },
            {
                "start_time": 16.1295455,
                "end_time": 16.9318182,
                "pitch": 76,
                "velocity": 127,
                "duration": 0.8022727,
                "tempo": 120.0
            },
            {
                "start_time": 16.9340909,
                "end_time": 17.3363636,
                "pitch": 72,
                "velocity": 127,
                "duration": 0.4022727,
                "tempo": 120.0
            },
            {
                "start_time": 17.3363636,
                "end_time": 17.7363636,
                "pitch": 76,
                "velocity": 127,
                "duration": 0.4,
                "tempo": 120.0
            },
            {
                "start_time": 17.7363636,
                "end_time": 17.9363636,
                "pitch": 74,
                "velocity": 127,
                "duration": 0.2,
                "tempo": 120.0
            },
            {
                "start_time": 17.9363636,
                "end_time": 18.3409091,
                "pitch": 72,
                "velocity": 127,
                "duration": 0.4045455,
                "tempo": 120.0
            },
            {
                "start_time": 18.3431818,
                "end_time": 18.75,
                "pitch": 71,
                "velocity": 127,
                "duration": 0.4068182,
                "tempo": 120.0
            },
            {
                "start_time": 18.75,
                "end_time": 19.3522727,
                "pitch": 67,
                "velocity": 127,
                "duration": 0.6022727,
                "tempo": 120.0
            },
            {
                "start_time": 19.3522727,
                "end_time": 20.9590909,
                "pitch": 76,
                "velocity": 127,
                "duration": 1.6068182,
                "tempo": 120.0
            },
            {
                "start_time": 20.9590909,
                "end_time": 21.5613636,
                "pitch": 74,
                "velocity": 127,
                "duration": 0.6022727,
                "tempo": 120.0
            },
            {
                "start_time": 21.5613636,
                "end_time": 22.1636364,
                "pitch": 72,
                "velocity": 127,
                "duration": 0.6022727,
                "tempo": 120.0
            },
            {
                "start_time": 22.1636364,
                "end_time": 22.5636364,
                "pitch": 71,
                "velocity": 127,
                "duration": 0.4,
                "tempo": 120.0
            },
            {
                "start_time": 22.5659091,
                "end_time": 24.975,
                "pitch": 69,
                "velocity": 127,
                "duration": 2.4090909,
                "tempo": 120.0
            },
            {
                "start_time": 64.3590909,
                "end_time": 64.3636364,
                "pitch": 69,
                "velocity": 127,
                "duration": 0.0045455,
                "tempo": 120.0
            }
        ]
    }
}