{
    "mood": "happy",
    "instruments": {
        "Vibraphone": [
            {
                "start_time": 0.0,
                "end_time": 0.1659091,
                "pitch": 75,
                "velocity": 64,
                "duration": 0.1659091,
                "tempo": 120.0
            },
            {
                "start_time": 0.1840909,
                "end_time": 0.3659091,
                "pitch": 75,
                "velocity": 64,
                "duration": 0.1818182,
                "tempo": 120.0
            },
            {
                "start_time": 0.3840909,
                "end_time": 0.7659091,
                "pitch": 75,
                "velocity": 64,
                "duration": 0.3818182,
                "tempo": 120.0
            },
            {
                "start_time": 0.7840909,
                "end_time": 0.9659091,
                "pitch": 77,
                "velocity": 64,
                "duration": 0.1818182,
                "tempo": 120.0
            },
            {
                "start_time": 0.9840909,
                "end_time": 1.1659091,
                "pitch": 77,
                "velocity": 64,
                "duration": 0.1818182,
                "tempo": 120.0
            },
            {
                "start_time": 1.1840909,
                "end_time": 1.5659091,
                "pitch": 77,
                "velocity": 64,
                "duration": 0.3818182,
                "tempo": 120.0
            },
            {
                "start_time": 1.5840909,
                "end_time": 1.875,
                "pitch": 79,
                "velocity": 64,
                "duration": 0.2909091,
                "tempo": 120.0
            },
            {
                "start_time": 1.8909091,
                "end_time": 1.9772727,
                "pitch": 80,
                "velocity": 64,
                "duration": 0.0863636,
                "tempo": 120.0
            },
            {
                "start_time": 1.9931818,
                "end_time": 2.1727273,
                "pitch": 82,
                "velocity": 64,
                "duration": 0.1795455,
                "tempo": 120.0
            },
            {
                "start_time": 2.1909091,
                "end_time": 2.3704545,
                "pitch": 75,
                "velocity": 64,
                "duration": 0.1795455,
                "tempo": 120.0
            },
            {
                "start_time": 2.3863636,
                "end_time": 2.5704545,
                "pitch": 77,
                "velocity": 64,
                "duration": 0.1840909,
                "tempo": 120.0
            },
            {
                "start_time": 2.5863636,
                "end_time": 2.7704545,
                "pitch": 74,
                "velocity": 64,
                "duration": 0.1840909,
                "tempo": 120.0
            },
            {
                "start_time": 2.7863636,
                "end_time": 3.1795455,
                "pitch": 75,
                "velocity": 64,
                "duration": 0.3931818,
                "tempo": 120.0
            }
        ],
        "Acoustic Bass": [
            {
                "start_time": 0.0,
                "end_time": 0.1659091,
                "pitch": 51,
                "velocity": 51,
                "duration": 0.1659091,
                "tempo": 120.0
            },
            {
                "start_time": 0.1840909,
                "end_time": 0.2659091,
                "pitch": 55,
                "velocity": 51,
                "duration": 0.0818182,
                "tempo": 120.0
            },
            {
                "start_time": 0.2840909,
                "end_time": 0.3659091,
                "pitch": 58,
                "velocity": 51,
                "duration": 0.0818182,
                "tempo": 120.0
            },
            {
                "start_time": 0.3840909,
                "end_time": 0.5659091,
                "pitch": 51,
                "velocity": 51,
                "duration": 0.1818182,
                "tempo": 120.0
            },
            {
                "start_time": 0.5840909,
                "end_time": 0.6659091,
                "pitch": 55,
                "velocity": 51,
                "duration": 0.0818182,
                "tempo": 120.0
            },
            {
                "start_time": 0.6840909,
                "end_time": 0.7659091,
                "pitch": 58,
                "velocity": 51,
                "duration": 0.0818182,
                "tempo": 120.0
            },
            {
                "start_time": 0.7840909,
                "end_time": 0.9659091,
                "pitch": 46,
                "velocity": 51,
                "duration": 0.1818182,
                "tempo": 120.0
            },
            {
                "start_time": 0.9840909,
                "end_time": 1.0659091,
                "pitch": 53,
                "velocity": 51,
                "duration": 0.0818182,
                "tempo": 120.0
            },
            {
                "start_time": 1.0840909,
                "end_time": 1.1659091,
                "pitch": 56,
                "velocity": 51,
                "duration": 0.0818182,
                "tempo": 120.0
            },
            {
                "start_time": 1.1840909,
                "end_time": 1.3659091,
                "pitch": 46,
                "velocity": 51,
                "duration": 0.1818182,
                "tempo": 120.0
            },
            {
                "start_time": 1.3840909,
                "end_time": 1.4659091,
                "pitch": 50,
                "velocity": 51,
                "duration": 0.0818182,
                "tempo": 120.0
            },
            {
                "start_time": 1.4840909,
                "end_time": 1.5,
                "pitch": 56,
                "velocity": 51,
                "duration": 0.0159091,
                "tempo": 120.0
            },
            {
                "start_time": 1.5159091,
                "end_time": 1.5659091,
                "pitch": 55,
                "velocity": 51,
                "duration": 0.05,
                "tempo": 120.0
            },
            {
                "start_time": 1.5840909,
                "end_time": 1.7704545,
                "pitch": 51,
                "velocity": 51,
                "duration": 0.1863636,
                "tempo": 120.0
            },
            {
                "start_time": 1.7886364,
                "end_time": 1.875,
                "pitch": 55,
                "velocity": 51,
                "duration": 0.0863636,
                "tempo": 120.0
            },
            {
                "start_time": 1.8909091,
                "end_time": 1.9772727,
                "pitch": 58,
                "velocity": 51,
                "duration": 0.0863636,
                "tempo": 120.0
            },
            {
                "start_time": 1.9931818,
                "end_time": 2.1727273,
                "pitch": 51,
                "velocity": 51,
                "duration": 0.1795455,
                "tempo": 120.0
            },
            {
                "start_time": 2.1909091,
                "end_time": 2.2727273,
                "pitch": 55,
                "velocity": 51,
                "duration": 0.0818182,
                "tempo": 120.0
            },
            {
                "start_time": 2.2886364,
                "end_time": 2.3704545,
                "pitch": 58,
                "velocity": 51,
                "duration": 0.0818182,
                "tempo": 120.0
            },
            {
                "start_time": 2.3863636,
                "end_time": 2.5704545,
                "pitch": 46,
                "velocity": 51,
                "duration": 0.1840909,
                "tempo": 120.0
            },
            {
                "start_time": 2.5863636,
                "end_time": 2.6704545,
                "pitch": 53,
                "velocity": 51,
                "duration": 0.0840909,
                "tempo": 120.0
            },
            {
                "start_time": 2.6863636,
                "end_time": 2.7704545,
                "pitch": 56,
                "velocity": 51,
                "duration": 0.0840909,
                "tempo": 120.0
            },
            {
                "start_time": 2.7863636,
                "end_time": 2.8727273,
                "pitch": 51,
                "velocity": 51,
                "duration": 0.0863636,
                "tempo": 120.0
            },
            {
                "start_time": 2.8886364,
                "end_time": 2.975,
                "pitch": 55,
                "velocity": 51,
                "duration": 0.0863636,
                "tempo": 120.0
            },
            {
                "start_time": 2.9909091,
                "end_time": 3.1795455,
                "pitch": 58,
                "velocity": 51,
                "duration": 0.1886364,
                "tempo": 120.0
            }
        ],
        "Acoustic Grand Piano": [
            {
                "start_time": 0.0,
                "end_time": 0.1659091,
                "pitch": 67,
                "velocity": 40,
                "duration": 0.1659091,
                "tempo": 120.0
            },
            {
                "start_time": 0.1840909,
                "end_time": 0.3659091,
                "pitch": 67,
                "velocity": 40,
                "duration": 0.1818182,
                "tempo": 120.0
            },
            {
                "start_time": 0.3840909,
                "end_time": 0.5659091,
                "pitch": 67,
                "velocity": 40,
                "duration": 0.1818182,
                "tempo": 120.0
            },
            {
                "start_time": 0.5840909,
                "end_time": 0.7659091,
                "pitch": 67,
                "velocity": 40,
                "duration": 0.1818182,
                "tempo": 120.0
            },
            {
                "start_time": 0.7840909,
                "end_time": 0.9659091,
                "pitch": 68,
                "velocity": 40,
                "duration": 0.1818182,
                "tempo": 120.0
            },
            {
                "start_time": 0.9840909,
                "end_time": 1.1659091,
                "pitch": 68,
                "velocity": 40,
                "duration": 0.1818182,
                "tempo": 120.0
            },
            {
                "start_time": 1.1840909,
                "end_time": 1.3659091,
                "pitch": 68,
                "velocity": 40,
                "duration": 0.1818182,
                "tempo": 120.0
            },
            {
                "start_time": 1.3840909,
                "end_time": 1.5659091,
                "pitch": 68,
                "velocity": 40,
                "duration": 0.1818182,
                "tempo": 120.0
            },
            {
                "start_time": 1.5840909,
                "end_time": 1.875,
                "pitch": 70,
                "velocity": 40,
                "duration": 0.2909091,
                "tempo": 120.0
            },
            {
                "start_time": 1.8909091,
                "end_time": 1.9772727,
                "pitch": 70,
                "velocity": 40,
                "duration": 0.0863636,
                "tempo": 120.0
            },
            {
                "start_time": 1.9931818,
                "end_time": 2.1727273,
                "pitch": 67,
                "velocity": 40,
                "duration": 0.1795455,
                "tempo": 120.0
            },
            {
                "start_time": 2.1909091,
                "end_time": 2.3704545,
                "pitch": 68,
                "velocity": 40,
                "duration": 0.1795455,
                "tempo": 120.0
            },
            {
                "start_time": 2.3863636,
                "end_time": 2.5704545,
                "pitch": 70,
                "velocity": 40,
                "duration": 0.1840909,
                "tempo": 120.0
            },
            {
                "start_time": 2.5863636,
                "end_time": 2.7704545,
                "pitch": 68,
                "velocity": 40,
                "duration": 0.1840909,
                "tempo": 120.0
            },
            {
                "start_time": 2.7863636,
                "end_time": 3.1795455,
                "pitch": 67,
                "velocity": 40,
                "duration": 0.3931818,
                "tempo": 120.0
            }
        ]
    }
}