{
    "mood": "happy",
    "instruments": {
        "Lead 2 (sawtooth)": [
            {
                "start_time": 0.0136364,
                "end_time": 0.1136364,
                "pitch": 0,
                "velocity": 4,
                "duration": 0.1,
                "tempo": 120.0
            },
            {
                "start_time": 0.1136364,
                "end_time": 0.4477273,
                "pitch": 0,
                "velocity": 4,
                "duration": 0.3340909,
                "tempo": 120.0
            },
            {
                "start_time": 0.45,
                "end_time": 0.7522727,
                "pitch": 48,
                "velocity": 25,
                "duration": 0.3022727,
                "tempo": 120.0
            },
            {
                "start_time": 0.7886364,
                "end_time": 0.9590909,
                "pitch": 48,
                "velocity": 4,
                "duration": 0.1704545,
                "tempo": 120.0
            },
            {
                "start_time": 0.9613636,
                "end_time": 1.2545455,
                "pitch": 50,
                "velocity": 25,
                "duration": 0.2931818,
                "tempo": 120.0
            },
            {
                "start_time": 1.2909091,
                "end_time": 1.4636364,
                "pitch": 50,
                "velocity": 4,
                "duration": 0.1727273,
                "tempo": 120.0
            },
            {
                "start_time": 1.4636364,
                "end_time": 1.7659091,
                "pitch": 51,
                "velocity": 25,
                "duration": 0.3022727,
                "tempo": 120.0
            },
            {
                "start_time": 1.8045455,
                "end_time": 1.975,
                "pitch": 51,
                "velocity": 4,
                "duration": 0.1704545,
                "tempo": 120.0
            },
            {
                "start_time": 1.9772727,
                "end_time": 2.275,
                "pitch": 53,
                "velocity": 25,
                "duration": 0.2977273,
                "tempo": 120.0
            },
            {
                "start_time": 2.3113636,
                "end_time": 2.4931818,
                "pitch": 53,
                "velocity": 4,
                "duration": 0.1818182,
                "tempo": 120.0
            },
            {
                "start_time": 2.4931818,
                "end_time": 2.7840909,
                "pitch": 56,
                "velocity": 25,
                "duration": 0.2909091,
                "tempo": 120.0
            },
            {
                "start_time": 2.8295455,
                "end_time": 3.1272727,
                "pitch": 58,
                "velocity": 25,
                "duration": 0.2977273,
                "tempo": 120.0
            },
            {
                "start_time": 3.1681818,
                "end_time": 3.3113636,
                "pitch": 48,
                "velocity": 25,
                "duration": 0.1431818,
                "tempo": 120.0
            },
            {
                "start_time": 3.3409091,
                "end_time": 3.4795455,
                "pitch": 50,
                "velocity": 25,
                "duration": 0.1386364,
                "tempo": 120.0
            },
            {
                "start_time": 3.5045455,
                "end_time": 3.675,
                "pitch": 50,
                "velocity": 4,
                "duration": 0.1704545,
                "tempo": 120.0
            },
            {
                "start_time": 3.6772727,
                "end_time": 3.825,
                "pitch": 48,
                "velocity": 25,
                "duration": 0.1477273,
                "tempo": 120.0
            },
            {
                "start_time": 3.8545455,
                "end_time": 3.9931818,
                "pitch": 50,
                "velocity": 25,
                "duration": 0.1386364,
                "tempo": 120.0
            },
            {
                "start_time": 4.0159091,
                "end_time": 4.1840909,
                "pitch": 50,
                "velocity": 4,
                "duration": 0.1681818,
                "tempo": 120.0
            },
            {
                "start_time": 4.1840909,
                "end_time": 4.3272727,
                "pitch": 60,
                "velocity": 25,
                "duration": 0.1431818,
                "tempo": 120.0
            },
            {
                "start_time": 4.3568182,
                "end_time": 4.4954545,
                "pitch": 62,
                "velocity": 25,
                "duration": 0.1386364,
                "tempo": 120.0
            },
            {
                "start_time": 4.5204545,
                "end_time": 4.6863636,
                "pitch": 62,
                "velocity": 4,
                "duration": 0.1659091,
                "tempo": 120.0
            },
            {
                "start_time": 4.6886364,
                "end_time": 4.8318182,
                "pitch": 60,
                "velocity": 25,
                "duration": 0.1431818,
                "tempo": 120.0
            },
            {
                "start_time": 4.8545455,
                "end_time": 5.0022727,
                "pitch": 62,
                "velocity": 25,
                "duration": 0.1477273,
                "tempo": 120.0
            },
            {
                "start_time": 5.0227273,
                "end_time": 5.8681818,
                "pitch": 62,
                "velocity": 4,
                "duration": 0.8454545,
                "tempo": 120.0
            },
            {
                "start_time": 5.8704545,
                "end_time": 6.1727273,
                "pitch": 48,
                "velocity": 25,
                "duration": 0.3022727,
                "tempo": 120.0
            },
            {
                "start_time": 6.2090909,
                "end_time": 6.3818182,
                "pitch": 48,
                "velocity": 4,
                "duration": 0.1727273,
                "tempo": 120.0
            },
            {
                "start_time": 6.3818182,
                "end_time": 6.675,
                "pitch": 50,
                "velocity": 25,
                "duration": 0.2931818,
                "tempo": 120.0
            },
            {
                "start_time": 6.7113636,
                "end_time": 6.8840909,
                "pitch": 50,
                "velocity": 4,
                "duration": 0.1727273,
                "tempo": 120.0
            },
            {
                "start_time": 6.8840909,
                "end_time": 7.1886364,
                "pitch": 51,
                "velocity": 25,
                "duration": 0.3045455,
                "tempo": 120.0
            },
            {
                "start_time": 7.225,
                "end_time": 7.3954545,
                "pitch": 51,
                "velocity": 4,
                "duration": 0.1704545,
                "tempo": 120.0
            },
            {
                "start_time": 7.3977273,
                "end_time": 7.6954545,
                "pitch": 53,
                "velocity": 25,
                "duration": 0.2977273,
                "tempo": 120.0
            },
            {
                "start_time": 2.4931818,
                "end_time": 7.9136364,
                "pitch": 44,
                "velocity": 4,
                "duration": 5.4204545,
                "tempo": 120.0
            },
            {
                "start_time": 7.7318182,
                "end_time": 7.9136364,
                "pitch": 53,
                "velocity": 4,
                "duration": 0.1818182,
                "tempo": 120.0
            },
            {
                "start_time": 7.9136364,
                "end_time": 8.2045455,
                "pitch": 56,
                "velocity": 25,
                "duration": 0.2909091,
                "tempo": 120.0
            },
            {
                "start_time": 8.25,
                "end_time": 8.5477273,
                "pitch": 58,
                "velocity": 25,
                "duration": 0.2977273,
                "tempo": 120.0
            },
            {
                "start_time": 8.5886364,
                "end_time": 8.7340909,
                "pitch": 48,
                "velocity": 25,
                "duration": 0.1454545,
                "tempo": 120.0
            },
            {
                "start_time": 8.7613636,
                "end_time": 8.9022727,
                "pitch": 50,
                "velocity": 25,
                "duration": 0.1409091,
                "tempo": 120.0
            },
            {
                "start_time": 8.925,
                "end_time": 9.0909091,
                "pitch": 50,
                "velocity": 4,
                "duration": 0.1659091,
                "tempo": 120.0
            },
            {
                "start_time": 9.0931818,
                "end_time": 9.2363636,
                "pitch": 48,
                "velocity": 25,
                "duration": 0.1431818,
                "tempo": 120.0
            },
            {
                "start_time": 9.2659091,
                "end_time": 9.4090909,
                "pitch": 50,
                "velocity": 25,
                "duration": 0.1431818,
                "tempo": 120.0
            },
            {
                "start_time": 9.4318182,
                "end_time": 9.6045455,
                "pitch": 50,
                "velocity": 4,
                "duration": 0.1727273,
                "tempo": 120.0
            },
            {
                "start_time": 9.6045455,
                "end_time": 9.7477273,
                "pitch": 60,
                "velocity": 25,
                "duration": 0.1431818,
                "tempo": 120.0
            },
            {
                "start_time": 9.7772727,
                "end_time": 9.9159091,
                "pitch": 62,
                "velocity": 25,
                "duration": 0.1386364,
                "tempo": 120.0
            },
            {
                "start_time": 9.9363636,
                "end_time": 10.1136364,
                "pitch": 62,
                "velocity": 4,
                "duration": 0.1772727,
                "tempo": 120.0
            },
            {
                "start_time": 10.1136364,
                "end_time": 10.2522727,
                "pitch": 63,
                "velocity": 25,
                "duration": 0.1386364,
                "tempo": 120.0
            },
            {
                "start_time": 10.2704545,
                "end_time": 10.4431818,
                "pitch": 63,
                "velocity": 4,
                "duration": 0.1727273,
                "tempo": 120.0
            },
            {
                "start_time": 10.4431818,
                "end_time": 10.9136364,
                "pitch": 62,
                "velocity": 25,
                "duration": 0.4704545,
                "tempo": 120.0
            },
            {
                "start_time": 10.9568182,
                "end_time": 11.1045455,
                "pitch": 55,
                "velocity": 80,
                "duration": 0.1477273,
                "tempo": 120.0
            },
            {
                "start_time": 11.1318182,
                "end_time": 11.2772727,
                "pitch": 55,
                "velocity": 80,
                "duration": 0.1454545,
                "tempo": 120.0
            },
            {
                "start_time": 11.2977273,
                "end_time": 11.4704545,
                "pitch": 55,
                "velocity": 4,
                "duration": 0.1727273,
                "tempo": 120.0
            },
            {
                "start_time": 11.4704545,
                "end_time": 11.6136364,
                "pitch": 53,
                "velocity": 80,
                "duration": 0.1431818,
                "tempo": 120.0
            },
            {
                "start_time": 11.6340909,
                "end_time": 11.8068182,
                "pitch": 53,
                "velocity": 4,
                "duration": 0.1727273,
                "tempo": 120.0
            },
            {
                "start_time": 11.8068182,
                "end_time": 11.9477273,
                "pitch": 53,
                "velocity": 80,
                "duration": 0.1409091,
                "tempo": 120.0
            },
            {
                "start_time": 11.9681818,
                "end_time": 12.1409091,
                "pitch": 53,
                "velocity": 4,
                "duration": 0.1727273,
                "tempo": 120.0
            },
            {
                "start_time": 12.1409091,
                "end_time": 12.2840909,
                "pitch": 52,
                "velocity": 80,
                "duration": 0.1431818,
                "tempo": 120.0
            },
            {
                "start_time": 12.3022727,
                "end_time": 12.4818182,
                "pitch": 52,
                "velocity": 4,
                "duration": 0.1795455,
                "tempo": 120.0
            },
            {
                "start_time": 12.4818182,
                "end_time": 12.6272727,
                "pitch": 52,
                "velocity": 80,
                "duration": 0.1454545,
                "tempo": 120.0
            },
            {
                "start_time": 12.65,
                "end_time": 12.8204545,
                "pitch": 52,
                "velocity": 4,
                "duration": 0.1704545,
                "tempo": 120.0
            },
            {
                "start_time": 12.8204545,
                "end_time": 12.8227273,
                "pitch": 43,
                "velocity": 4,
                "duration": 0.0022727,
                "tempo": 120.0
            },
            {
                "start_time": 12.8227273,
                "end_time": 13.5590909,
                "pitch": 55,
                "velocity": 80,
                "duration": 0.7363636,
                "tempo": 120.0
            },
            {
                "start_time": 13.6681818,
                "end_time": 13.8113636,
                "pitch": 55,
                "velocity": 80,
                "duration": 0.1431818,
                "tempo": 120.0
            },
            {
                "start_time": 13.8363636,
                "end_time": 13.9795455,
                "pitch": 55,
                "velocity": 80,
                "duration": 0.1431818,
                "tempo": 120.0
            },
            {
                "start_time": 14.0,
                "end_time": 14.1772727,
                "pitch": 55,
                "velocity": 4,
                "duration": 0.1772727,
                "tempo": 120.0
            },
            {
                "start_time": 11.4704545,
                "end_time": 14.1772727,
                "pitch": 65,
                "velocity": 4,
                "duration": 2.7068182,
                "tempo": 120.0
            },
            {
                "start_time": 14.1772727,
                "end_time": 14.3227273,
                "pitch": 53,
                "velocity": 80,
                "duration": 0.1454545,
                "tempo": 120.0
            },
            {
                "start_time": 14.3454545,
                "end_time": 14.5159091,
                "pitch": 53,
                "velocity": 4,
                "duration": 0.1704545,
                "tempo": 120.0
            },
            {
                "start_time": 14.5181818,
                "end_time": 14.6590909,
                "pitch": 53,
                "velocity": 80,
                "duration": 0.1409091,
                "tempo": 120.0
            },
            {
                "start_time": 14.6772727,
                "end_time": 14.8522727,
                "pitch": 53,
                "velocity": 4,
                "duration": 0.175,
                "tempo": 120.0
            },
            {
                "start_time": 14.8522727,
                "end_time": 14.9954545,
                "pitch": 52,
                "velocity": 80,
                "duration": 0.1431818,
                "tempo": 120.0
            },
            {
                "start_time": 15.0136364,
                "end_time": 15.1931818,
                "pitch": 52,
                "velocity": 4,
                "duration": 0.1795455,
                "tempo": 120.0
            },
            {
                "start_time": 15.1931818,
                "end_time": 15.3386364,
                "pitch": 52,
                "velocity": 80,
                "duration": 0.1454545,
                "tempo": 120.0
            },
            {
                "start_time": 15.3659091,
                "end_time": 15.6659091,
                "pitch": 55,
                "velocity": 80,
                "duration": 0.3,
                "tempo": 120.0
            },
            {
                "start_time": 15.7113636,
                "end_time": 16.0022727,
                "pitch": 56,
                "velocity": 80,
                "duration": 0.2909091,
                "tempo": 120.0
            },
            {
                "start_time": 16.0454545,
                "end_time": 16.3386364,
                "pitch": 57,
                "velocity": 80,
                "duration": 0.2931818,
                "tempo": 120.0
            },
            {
                "start_time": 16.3795455,
                "end_time": 16.5272727,
                "pitch": 58,
                "velocity": 80,
                "duration": 0.1477273,
                "tempo": 120.0
            },
            {
                "start_time": 16.5522727,
                "end_time": 16.7,
                "pitch": 58,
                "velocity": 80,
                "duration": 0.1477273,
                "tempo": 120.0
            },
            {
                "start_time": 16.7204545,
                "end_time": 16.8931818,
                "pitch": 58,
                "velocity": 4,
                "duration": 0.1727273,
                "tempo": 120.0
            },
            {
                "start_time": 16.8931818,
                "end_time": 17.0340909,
                "pitch": 56,
                "velocity": 80,
                "duration": 0.1409091,
                "tempo": 120.0
            },
            {
                "start_time": 17.0568182,
                "end_time": 17.2295455,
                "pitch": 56,
                "velocity": 4,
                "duration": 0.1727273,
                "tempo": 120.0
            },
            {
                "start_time": 17.2295455,
                "end_time": 17.3704545,
                "pitch": 56,
                "velocity": 80,
                "duration": 0.1409091,
                "tempo": 120.0
            },
            {
                "start_time": 17.3886364,
                "end_time": 17.5636364,
                "pitch": 56,
                "velocity": 4,
                "duration": 0.175,
                "tempo": 120.0
            },
            {
                "start_time": 17.5636364,
                "end_time": 17.7068182,
                "pitch": 55,
                "velocity": 80,
                "duration": 0.1431818,
                "tempo": 120.0
            },
            {
                "start_time": 17.725,
                "end_time": 17.9045455,
                "pitch": 55,
                "velocity": 4,
                "duration": 0.1795455,
                "tempo": 120.0
            },
            {
                "start_time": 17.9045455,
                "end_time": 18.05,
                "pitch": 55,
                "velocity": 80,
                "duration": 0.1454545,
                "tempo": 120.0
            },
            {
                "start_time": 18.0727273,
                "end_time": 18.2431818,
                "pitch": 55,
                "velocity": 4,
                "duration": 0.1704545,
                "tempo": 120.0
            },
            {
                "start_time": 18.2431818,
                "end_time": 18.2454545,
                "pitch": 58,
                "velocity": 4,
                "duration": 0.0022727,
                "tempo": 120.0
            },
            {
                "start_time": 18.2454545,
                "end_time": 18.9818182,
                "pitch": 58,
                "velocity": 80,
                "duration": 0.7363636,
                "tempo": 120.0
            },
            {
                "start_time": 19.0909091,
                "end_time": 19.2340909,
                "pitch": 58,
                "velocity": 80,
                "duration": 0.1431818,
                "tempo": 120.0
            },
            {
                "start_time": 19.2590909,
                "end_time": 19.4022727,
                "pitch": 58,
                "velocity": 80,
                "duration": 0.1431818,
                "tempo": 120.0
            },
            {
                "start_time": 19.4227273,
                "end_time": 19.6,
                "pitch": 58,
                "velocity": 4,
                "duration": 0.1772727,
                "tempo": 120.0
            },
            {
                "start_time": 19.6,
                "end_time": 19.7454545,
                "pitch": 56,
                "velocity": 80,
                "duration": 0.1454545,
                "tempo": 120.0
            },
            {
                "start_time": 19.7681818,
                "end_time": 19.9386364,
                "pitch": 56,
                "velocity": 4,
                "duration": 0.1704545,
                "tempo": 120.0
            },
            {
                "start_time": 19.9409091,
                "end_time": 20.0818182,
                "pitch": 56,
                "velocity": 80,
                "duration": 0.1409091,
                "tempo": 120.0
            },
            {
                "start_time": 20.1,
                "end_time": 20.275,
                "pitch": 56,
                "velocity": 4,
                "duration": 0.175,
                "tempo": 120.0
            },
            {
                "start_time": 20.275,
                "end_time": 20.4181818,
                "pitch": 55,
                "velocity": 80,
                "duration": 0.1431818,
                "tempo": 120.0
            },
            {
                "start_time": 20.4363636,
                "end_time": 20.6159091,
                "pitch": 55,
                "velocity": 4,
                "duration": 0.1795455,
                "tempo": 120.0
            },
            {
                "start_time": 20.6159091,
                "end_time": 20.7613636,
                "pitch": 55,
                "velocity": 80,
                "duration": 0.1454545,
                "tempo": 120.0
            },
            {
                "start_time": 20.7886364,
                "end_time": 21.0886364,
                "pitch": 58,
                "velocity": 80,
                "duration": 0.3,
                "tempo": 120.0
            },
            {
                "start_time": 21.1318182,
                "end_time": 21.425,
                "pitch": 57,
                "velocity": 80,
                "duration": 0.2931818,
                "tempo": 120.0
            },
            {
                "start_time": 21.4681818,
                "end_time": 21.7613636,
                "pitch": 56,
                "velocity": 80,
                "duration": 0.2931818,
                "tempo": 120.0
            },
            {
                "start_time": 21.8022727,
                "end_time": 21.95,
                "pitch": 55,
                "velocity": 80,
                "duration": 0.1477273,
                "tempo": 120.0
            },
            {
                "start_time": 21.9772727,
                "end_time": 22.1227273,
                "pitch": 55,
                "velocity": 80,
                "duration": 0.1454545,
                "tempo": 120.0
            },
            {
                "start_time": 22.1431818,
                "end_time": 22.3159091,
                "pitch": 55,
                "velocity": 4,
                "duration": 0.1727273,
                "tempo": 120.0
            },
            {
                "start_time": 14.1772727,
                "end_time": 22.3159091,
                "pitch": 65,
                "velocity": 4,
                "duration": 8.1386364,
                "tempo": 120.0
            },
            {
                "start_time": 22.3159091,
                "end_time": 22.4568182,
                "pitch": 53,
                "velocity": 80,
                "duration": 0.1409091,
                "tempo": 120.0
            },
            {
                "start_time": 22.4795455,
                "end_time": 22.65,
                "pitch": 53,
                "velocity": 4,
                "duration": 0.1704545,
                "tempo": 120.0
            },
            {
                "start_time": 22.6522727,
                "end_time": 22.7931818,
                "pitch": 53,
                "velocity": 80,
                "duration": 0.1409091,
                "tempo": 120.0
            },
            {
                "start_time": 22.8113636,
                "end_time": 22.9863636,
                "pitch": 53,
                "velocity": 4,
                "duration": 0.175,
                "tempo": 120.0
            },
            {
                "start_time": 22.9863636,
                "end_time": 23.1295455,
                "pitch": 52,
                "velocity": 80,
                "duration": 0.1431818,
                "tempo": 120.0
            },
            {
                "start_time": 23.1477273,
                "end_time": 23.3227273,
                "pitch": 52,
                "velocity": 4,
                "duration": 0.175,
                "tempo": 120.0
            },
            {
                "start_time": 23.3227273,
                "end_time": 23.4636364,
                "pitch": 52,
                "velocity": 80,
                "duration": 0.1409091,
                "tempo": 120.0
            },
            {
                "start_time": 23.4863636,
                "end_time": 23.6613636,
                "pitch": 52,
                "velocity": 4,
                "duration": 0.175,
                "tempo": 120.0
            },
            {
                "start_time": 23.6636364,
                "end_time": 24.4022727,
                "pitch": 55,
                "velocity": 80,
                "duration": 0.7386364,
                "tempo": 120.0
            },
            {
                "start_time": 24.5136364,
                "end_time": 24.6568182,
                "pitch": 55,
                "velocity": 80,
                "duration": 0.1431818,
                "tempo": 120.0
            },
            {
                "start_time": 24.6818182,
                "end_time": 24.825,
                "pitch": 55,
                "velocity": 80,
                "duration": 0.1431818,
                "tempo": 120.0
            },
            {
                "start_time": 24.8454545,
                "end_time": 25.0227273,
                "pitch": 55,
                "velocity": 4,
                "duration": 0.1772727,
                "tempo": 120.0
            },
            {
                "start_time": 22.3159091,
                "end_time": 25.0227273,
                "pitch": 65,
                "velocity": 4,
                "duration": 2.7068182,
                "tempo": 120.0
            },
            {
                "start_time": 25.0227273,
                "end_time": 25.1681818,
                "pitch": 53,
                "velocity": 80,
                "duration": 0.1454545,
                "tempo": 120.0
            },
            {
                "start_time": 25.1909091,
                "end_time": 25.3613636,
                "pitch": 53,
                "velocity": 4,
                "duration": 0.1704545,
                "tempo": 120.0
            },
            {
                "start_time": 25.3636364,
                "end_time": 25.5045455,
                "pitch": 53,
                "velocity": 80,
                "duration": 0.1409091,
                "tempo": 120.0
            },
            {
                "start_time": 25.5227273,
                "end_time": 25.6977273,
                "pitch": 53,
                "velocity": 4,
                "duration": 0.175,
                "tempo": 120.0
            },
            {
                "start_time": 25.6977273,
                "end_time": 25.8386364,
                "pitch": 52,
                "velocity": 80,
                "duration": 0.1409091,
                "tempo": 120.0
            },
            {
                "start_time": 25.8590909,
                "end_time": 26.0386364,
                "pitch": 52,
                "velocity": 4,
                "duration": 0.1795455,
                "tempo": 120.0
            },
            {
                "start_time": 26.0386364,
                "end_time": 26.1840909,
                "pitch": 52,
                "velocity": 80,
                "duration": 0.1454545,
                "tempo": 120.0
            },
            {
                "start_time": 26.2113636,
                "end_time": 26.5113636,
                "pitch": 55,
                "velocity": 80,
                "duration": 0.3,
                "tempo": 120.0
            },
            {
                "start_time": 26.5568182,
                "end_time": 26.8477273,
                "pitch": 56,
                "velocity": 80,
                "duration": 0.2909091,
                "tempo": 120.0
            },
            {
                "start_time": 26.8909091,
                "end_time": 27.1840909,
                "pitch": 57,
                "velocity": 80,
                "duration": 0.2931818,
                "tempo": 120.0
            },
            {
                "start_time": 27.225,
                "end_time": 28.4045455,
                "pitch": 60,
                "velocity": 80,
                "duration": 1.1795455,
                "tempo": 120.0
            },
            {
                "start_time": 28.5772727,
                "end_time": 29.7613636,
                "pitch": 62,
                "velocity": 80,
                "duration": 1.1840909,
                "tempo": 120.0
            },
            {
                "start_time": 29.9386364,
                "end_time": 30.0840909,
                "pitch": 60,
                "velocity": 80,
                "duration": 0.1454545,
                "tempo": 120.0
            },
            {
                "start_time": 30.1068182,
                "end_time": 30.2568182,
                "pitch": 60,
                "velocity": 80,
                "duration": 0.15,
                "tempo": 120.0
            },
            {
                "start_time": 30.275,
                "end_time": 30.4477273,
                "pitch": 60,
                "velocity": 4,
                "duration": 0.1727273,
                "tempo": 120.0
            },
            {
                "start_time": 30.4477273,
                "end_time": 30.5909091,
                "pitch": 60,
                "velocity": 80,
                "duration": 0.1431818,
                "tempo": 120.0
            },
            {
                "start_time": 30.6090909,
                "end_time": 30.7818182,
                "pitch": 60,
                "velocity": 4,
                "duration": 0.1727273,
                "tempo": 120.0
            },
            {
                "start_time": 30.7840909,
                "end_time": 30.9272727,
                "pitch": 60,
                "velocity": 80,
                "duration": 0.1431818,
                "tempo": 120.0
            },
            {
                "start_time": 30.9477273,
                "end_time": 31.125,
                "pitch": 60,
                "velocity": 4,
                "duration": 0.1772727,
                "tempo": 120.0
            },
            {
                "start_time": 31.1272727,
                "end_time": 31.2704545,
                "pitch": 60,
                "velocity": 80,
                "duration": 0.1431818,
                "tempo": 120.0
            },
            {
                "start_time": 31.2954545,
                "end_time": 32.4681818,
                "pitch": 60,
                "velocity": 80,
                "duration": 1.1727273,
                "tempo": 120.0
            },
            {
                "start_time": 54.3318182,
                "end_time": 55.5954545,
                "pitch": 64,
                "velocity": 80,
                "duration": 1.2636364,
                "tempo": 120.0
            },
            {
                "start_time": 55.6886364,
                "end_time": 56.95,
                "pitch": 62,
                "velocity": 80,
                "duration": 1.2613636,
                "tempo": 120.0
            },
            {
                "start_time": 57.0386364,
                "end_time": 58.3068182,
                "pitch": 64,
                "velocity": 80,
                "duration": 1.2681818,
                "tempo": 120.0
            },
            {
                "start_time": 25.0227273,
                "end_time": 59.6590909,
                "pitch": 65,
                "velocity": 4,
                "duration": 34.6363636,
                "tempo": 120.0
            },
            {
                "start_time": 58.4,
                "end_time": 59.6590909,
                "pitch": 65,
                "velocity": 80,
                "duration": 1.2590909,
                "tempo": 120.0
            },
            {
                "start_time": 59.75,
                "end_time": 60.0704545,
                "pitch": 60,
                "velocity": 80,
                "duration": 0.3204545,
                "tempo": 120.0
            },
            {
                "start_time": 60.0909091,
                "end_time": 60.4068182,
                "pitch": 62,
                "velocity": 80,
                "duration": 0.3159091,
                "tempo": 120.0
            },
            {
                "start_time": 60.4295455,
                "end_time": 60.7409091,
                "pitch": 64,
                "velocity": 80,
                "duration": 0.3113636,
                "tempo": 120.0
            },
            {
                "start_time": 60.7659091,
                "end_time": 61.0863636,
                "pitch": 65,
                "velocity": 80,
                "duration": 0.3204545,
                "tempo": 120.0
            },
            {
                "start_time": 61.1113636,
                "end_time": 61.7409091,
                "pitch": 64,
                "velocity": 80,
                "duration": 0.6295455,
                "tempo": 120.0
            },
            {
                "start_time": 61.7818182,
                "end_time": 62.4204545,
                "pitch": 67,
                "velocity": 80,
                "duration": 0.6386364,
                "tempo": 120.0
            },
            {
                "start_time": 62.4636364,
                "end_time": 62.7727273,
                "pitch": 62,
                "velocity": 80,
                "duration": 0.3090909,
                "tempo": 120.0
            },
            {
                "start_time": 62.7954545,
                "end_time": 63.1159091,
                "pitch": 64,
                "velocity": 80,
                "duration": 0.3204545,
                "tempo": 120.0
            },
            {
                "start_time": 63.1409091,
                "end_time": 63.4522727,
                "pitch": 62,
                "velocity": 80,
                "duration": 0.3113636,
                "tempo": 120.0
            },
            {
                "start_time": 63.4772727,
                "end_time": 63.6272727,
                "pitch": 66,
                "velocity": 80,
                "duration": 0.15,
                "tempo": 120.0
            },
            {
                "start_time": 63.6568182,
                "end_time": 63.8045455,
                "pitch": 59,
                "velocity": 80,
                "duration": 0.1477273,
                "tempo": 120.0
            },
            {
                "start_time": 63.8227273,
                "end_time": 63.9886364,
                "pitch": 59,
                "velocity": 4,
                "duration": 0.1659091,
                "tempo": 120.0
            },
            {
                "start_time": 63.9886364,
                "end_time": 64.1204545,
                "pitch": 59,
                "velocity": 80,
                "duration": 0.1318182,
                "tempo": 120.0
            },
            {
                "start_time": 64.1386364,
                "end_time": 64.3181818,
                "pitch": 59,
                "velocity": 4,
                "duration": 0.1795455,
                "tempo": 120.0
            },
            {
                "start_time": 64.3204545,
                "end_time": 64.4636364,
                "pitch": 60,
                "velocity": 80,
                "duration": 0.1431818,
                "tempo": 120.0
            },
            {
                "start_time": 64.4818182,
                "end_time": 64.6590909,
                "pitch": 60,
                "velocity": 4,
                "duration": 0.1772727,
                "tempo": 120.0
            },
            {
                "start_time": 64.6590909,
                "end_time": 64.8,
                "pitch": 59,
                "velocity": 80,
                "duration": 0.1409091,
                "tempo": 120.0
            },
            {
                "start_time": 64.825,
                "end_time": 64.9772727,
                "pitch": 60,
                "velocity": 80,
                "duration": 0.1522727,
                "tempo": 120.0
            },
            {
                "start_time": 65.0,
                "end_time": 65.1545455,
                "pitch": 62,
                "velocity": 80,
                "duration": 0.1545455,
                "tempo": 120.0
            },
            {
                "start_time": 65.1818182,
                "end_time": 66.4386364,
                "pitch": 64,
                "velocity": 80,
                "duration": 1.2568182,
                "tempo": 120.0
            },
            {
                "start_time": 66.5295455,
                "end_time": 67.7931818,
                "pitch": 62,
                "velocity": 80,
                "duration": 1.2636364,
                "tempo": 120.0
            },
            {
                "start_time": 67.8818182,
                "end_time": 69.15,
                "pitch": 64,
                "velocity": 80,
                "duration": 1.2681818,
                "tempo": 120.0
            },
            {
                "start_time": 69.2409091,
                "end_time": 69.8704545,
                "pitch": 60,
                "velocity": 80,
                "duration": 0.6295455,
                "tempo": 120.0
            },
            {
                "start_time": 69.9068182,
                "end_time": 70.55,
                "pitch": 65,
                "velocity": 80,
                "duration": 0.6431818,
                "tempo": 120.0
            },
            {
                "start_time": 70.5931818,
                "end_time": 71.8590909,
                "pitch": 60,
                "velocity": 80,
                "duration": 1.2659091,
                "tempo": 120.0
            },
            {
                "start_time": 71.9522727,
                "end_time": 72.5795455,
                "pitch": 56,
                "velocity": 80,
                "duration": 0.6272727,
                "tempo": 120.0
            },
            {
                "start_time": 72.6204545,
                "end_time": 73.2681818,
                "pitch": 65,
                "velocity": 80,
                "duration": 0.6477273,
                "tempo": 120.0
            },
            {
                "start_time": 73.3136364,
                "end_time": 74.2477273,
                "pitch": 52,
                "velocity": 80,
                "duration": 0.9340909,
                "tempo": 120.0
            },
            {
                "start_time": 23.6613636,
                "end_time": 74.4068182,
                "pitch": 43,
                "velocity": 4,
                "duration": 50.7454545,
                "tempo": 120.0
            },
            {
                "start_time": 74.3272727,
                "end_time": 74.4068182,
                "pitch": 52,
                "velocity": 80,
                "duration": 0.0795455,
                "tempo": 120.0
            },
            {
                "start_time": 74.4068182,
                "end_time": 74.4954545,
                "pitch": 55,
                "velocity": 80,
                "duration": 0.0886364,
                "tempo": 120.0
            },
            {
                "start_time": 74.4954545,
                "end_time": 74.5772727,
                "pitch": 84,
                "velocity": 80,
                "duration": 0.0818182,
                "tempo": 120.0
            },
            {
                "start_time": 74.5772727,
                "end_time": 74.6590909,
                "pitch": 88,
                "velocity": 80,
                "duration": 0.0818182,
                "tempo": 120.0
            },
            {
                "start_time": 74.5772727,
                "end_time": 74.6590909,
                "pitch": 88,
                "velocity": 80,
                "duration": 0.0818182,
                "tempo": 120.0
            },
            {
                "start_time": 74.6590909,
                "end_time": 74.9727273,
                "pitch": 91,
                "velocity": 80,
                "duration": 0.3136364,
                "tempo": 120.0
            },
            {
                "start_time": 75.0,
                "end_time": 75.0272727,
                "pitch": 89,
                "velocity": 80,
                "duration": 0.0272727,
                "tempo": 120.0
            },
            {
                "start_time": 74.6590909,
                "end_time": 75.0636364,
                "pitch": 79,
                "velocity": 80,
                "duration": 0.4045455,
                "tempo": 120.0
            },
            {
                "start_time": 75.0295455,
                "end_time": 75.0636364,
                "pitch": 90,
                "velocity": 80,
                "duration": 0.0340909,
                "tempo": 120.0
            },
            {
                "start_time": 75.0636364,
                "end_time": 75.325,
                "pitch": 91,
                "velocity": 80,
                "duration": 0.2613636,
                "tempo": 120.0
            },
            {
                "start_time": 75.35,
                "end_time": 75.3818182,
                "pitch": 89,
                "velocity": 80,
                "duration": 0.0318182,
                "tempo": 120.0
            },
            {
                "start_time": 75.0636364,
                "end_time": 75.4159091,
                "pitch": 79,
                "velocity": 80,
                "duration": 0.3522727,
                "tempo": 120.0
            },
            {
                "start_time": 75.3818182,
                "end_time": 75.4159091,
                "pitch": 90,
                "velocity": 80,
                "duration": 0.0340909,
                "tempo": 120.0
            },
            {
                "start_time": 75.4159091,
                "end_time": 75.6613636,
                "pitch": 91,
                "velocity": 80,
                "duration": 0.2454545,
                "tempo": 120.0
            },
            {
                "start_time": 75.6863636,
                "end_time": 75.7159091,
                "pitch": 89,
                "velocity": 80,
                "duration": 0.0295455,
                "tempo": 120.0
            },
            {
                "start_time": 75.4159091,
                "end_time": 75.75,
                "pitch": 79,
                "velocity": 80,
                "duration": 0.3340909,
                "tempo": 120.0
            },
            {
                "start_time": 75.7181818,
                "end_time": 75.75,
                "pitch": 90,
                "velocity": 80,
                "duration": 0.0318182,
                "tempo": 120.0
            },
            {
                "start_time": 75.7522727,
                "end_time": 75.9977273,
                "pitch": 91,
                "velocity": 80,
                "duration": 0.2454545,
                "tempo": 120.0
            },
            {
                "start_time": 76.0227273,
                "end_time": 76.3568182,
                "pitch": 91,
                "velocity": 4,
                "duration": 0.3340909,
                "tempo": 120.0
            },
            {
                "start_time": 76.3568182,
                "end_time": 76.6590909,
                "pitch": 48,
                "velocity": 25,
                "duration": 0.3022727,
                "tempo": 120.0
            },
            {
                "start_time": 76.6954545,
                "end_time": 76.8681818,
                "pitch": 48,
                "velocity": 4,
                "duration": 0.1727273,
                "tempo": 120.0
            },
            {
                "start_time": 76.8704545,
                "end_time": 77.1636364,
                "pitch": 50,
                "velocity": 25,
                "duration": 0.2931818,
                "tempo": 120.0
            },
            {
                "start_time": 77.2,
                "end_time": 77.3727273,
                "pitch": 50,
                "velocity": 4,
                "duration": 0.1727273,
                "tempo": 120.0
            },
            {
                "start_time": 77.3727273,
                "end_time": 77.675,
                "pitch": 51,
                "velocity": 25,
                "duration": 0.3022727,
                "tempo": 120.0
            },
            {
                "start_time": 77.7113636,
                "end_time": 77.8840909,
                "pitch": 51,
                "velocity": 4,
                "duration": 0.1727273,
                "tempo": 120.0
            },
            {
                "start_time": 77.8840909,
                "end_time": 78.1795455,
                "pitch": 53,
                "velocity": 25,
                "duration": 0.2954545,
                "tempo": 120.0
            },
            {
                "start_time": 78.2159091,
                "end_time": 78.3909091,
                "pitch": 53,
                "velocity": 4,
                "duration": 0.175,
                "tempo": 120.0
            },
            {
                "start_time": 7.9136364,
                "end_time": 78.3931818,
                "pitch": 44,
                "velocity": 4,
                "duration": 70.4795455,
                "tempo": 120.0
            },
            {
                "start_time": 78.3909091,
                "end_time": 78.3931818,
                "pitch": 44,
                "velocity": 4,
                "duration": 0.0022727,
                "tempo": 120.0
            },
            {
                "start_time": 78.3931818,
                "end_time": 78.6909091,
                "pitch": 56,
                "velocity": 25,
                "duration": 0.2977273,
                "tempo": 120.0
            },
            {
                "start_time": 78.7386364,
                "end_time": 79.0363636,
                "pitch": 58,
                "velocity": 25,
                "duration": 0.2977273,
                "tempo": 120.0
            },
            {
                "start_time": 79.0772727,
                "end_time": 79.2204545,
                "pitch": 48,
                "velocity": 25,
                "duration": 0.1431818,
                "tempo": 120.0
            },
            {
                "start_time": 79.25,
                "end_time": 79.3886364,
                "pitch": 50,
                "velocity": 25,
                "duration": 0.1386364,
                "tempo": 120.0
            },
            {
                "start_time": 79.4136364,
                "end_time": 79.5795455,
                "pitch": 50,
                "velocity": 4,
                "duration": 0.1659091,
                "tempo": 120.0
            },
            {
                "start_time": 79.5818182,
                "end_time": 79.725,
                "pitch": 48,
                "velocity": 25,
                "duration": 0.1431818,
                "tempo": 120.0
            },
            {
                "start_time": 79.7522727,
                "end_time": 79.8954545,
                "pitch": 50,
                "velocity": 25,
                "duration": 0.1431818,
                "tempo": 120.0
            },
            {
                "start_time": 79.9204545,
                "end_time": 80.0931818,
                "pitch": 50,
                "velocity": 4,
                "duration": 0.1727273,
                "tempo": 120.0
            },
            {
                "start_time": 74.4954545,
                "end_time": 80.2363636,
                "pitch": 60,
                "velocity": 80,
                "duration": 5.7409091,
                "tempo": 120.0
            },
            {
                "start_time": 80.0931818,
                "end_time": 80.2363636,
                "pitch": 60,
                "velocity": 25,
                "duration": 0.1431818,
                "tempo": 120.0
            },
            {
                "start_time": 80.2659091,
                "end_time": 80.4045455,
                "pitch": 62,
                "velocity": 25,
                "duration": 0.1386364,
                "tempo": 120.0
            },
            {
                "start_time": 80.4295455,
                "end_time": 80.5954545,
                "pitch": 62,
                "velocity": 4,
                "duration": 0.1659091,
                "tempo": 120.0
            },
            {
                "start_time": 80.5954545,
                "end_time": 80.7409091,
                "pitch": 60,
                "velocity": 25,
                "duration": 0.1454545,
                "tempo": 120.0
            },
            {
                "start_time": 80.7636364,
                "end_time": 80.9068182,
                "pitch": 62,
                "velocity": 25,
                "duration": 0.1431818,
                "tempo": 120.0
            },
            {
                "start_time": 80.9272727,
                "end_time": 81.7795455,
                "pitch": 62,
                "velocity": 4,
                "duration": 0.8522727,
                "tempo": 120.0
            },
            {
                "start_time": 81.7795455,
                "end_time": 82.075,
                "pitch": 48,
                "velocity": 25,
                "duration": 0.2954545,
                "tempo": 120.0
            },
            {
                "start_time": 82.1090909,
                "end_time": 82.2863636,
                "pitch": 48,
                "velocity": 4,
                "duration": 0.1772727,
                "tempo": 120.0
            },
            {
                "start_time": 82.2886364,
                "end_time": 82.5863636,
                "pitch": 50,
                "velocity": 25,
                "duration": 0.2977273,
                "tempo": 120.0
            },
            {
                "start_time": 82.6227273,
                "end_time": 82.7931818,
                "pitch": 50,
                "velocity": 4,
                "duration": 0.1704545,
                "tempo": 120.0
            },
            {
                "start_time": 82.7954545,
                "end_time": 83.0977273,
                "pitch": 51,
                "velocity": 25,
                "duration": 0.3022727,
                "tempo": 120.0
            },
            {
                "start_time": 83.1340909,
                "end_time": 83.3068182,
                "pitch": 51,
                "velocity": 4,
                "duration": 0.1727273,
                "tempo": 120.0
            },
            {
                "start_time": 83.3068182,
                "end_time": 83.6022727,
                "pitch": 53,
                "velocity": 25,
                "duration": 0.2954545,
                "tempo": 120.0
            },
            {
                "start_time": 83.6386364,
                "end_time": 83.8136364,
                "pitch": 53,
                "velocity": 4,
                "duration": 0.175,
                "tempo": 120.0
            },
            {
                "start_time": 83.8136364,
                "end_time": 83.8159091,
                "pitch": 44,
                "velocity": 4,
                "duration": 0.0022727,
                "tempo": 120.0
            },
            {
                "start_time": 83.8159091,
                "end_time": 84.1136364,
                "pitch": 56,
                "velocity": 25,
                "duration": 0.2977273,
                "tempo": 120.0
            },
            {
                "start_time": 84.1613636,
                "end_time": 84.4590909,
                "pitch": 58,
                "velocity": 25,
                "duration": 0.2977273,
                "tempo": 120.0
            },
            {
                "start_time": 84.5,
                "end_time": 84.6431818,
                "pitch": 48,
                "velocity": 25,
                "duration": 0.1431818,
                "tempo": 120.0
            },
            {
                "start_time": 84.6727273,
                "end_time": 84.8113636,
                "pitch": 50,
                "velocity": 25,
                "duration": 0.1386364,
                "tempo": 120.0
            },
            {
                "start_time": 84.8363636,
                "end_time": 85.0022727,
                "pitch": 50,
                "velocity": 4,
                "duration": 0.1659091,
                "tempo": 120.0
            },
            {
                "start_time": 85.0045455,
                "end_time": 85.1477273,
                "pitch": 48,
                "velocity": 25,
                "duration": 0.1431818,
                "tempo": 120.0
            },
            {
                "start_time": 85.175,
                "end_time": 85.3181818,
                "pitch": 50,
                "velocity": 25,
                "duration": 0.1431818,
                "tempo": 120.0
            },
            {
                "start_time": 85.3431818,
                "end_time": 85.5159091,
                "pitch": 50,
                "velocity": 4,
                "duration": 0.1727273,
                "tempo": 120.0
            },
            {
                "start_time": 85.5159091,
                "end_time": 85.6590909,
                "pitch": 60,
                "velocity": 25,
                "duration": 0.1431818,
                "tempo": 120.0
            },
            {
                "start_time": 85.6886364,
                "end_time": 85.8272727,
                "pitch": 62,
                "velocity": 25,
                "duration": 0.1386364,
                "tempo": 120.0
            },
            {
                "start_time": 85.8477273,
                "end_time": 86.0227273,
                "pitch": 62,
                "velocity": 4,
                "duration": 0.175,
                "tempo": 120.0
            }
        ],
        "Acoustic Bass": [
            {
                "start_time": 0.0136364,
                "end_time": 0.1136364,
                "pitch": 0,
                "velocity": 4,
                "duration": 0.1,
                "tempo": 120.0
            },
            {
                "start_time": 0.1136364,
                "end_time": 0.1886364,
                "pitch": 31,
                "velocity": 101,
                "duration": 0.075,
                "tempo": 120.0
            },
            {
                "start_time": 0.275,
                "end_time": 0.3568182,
                "pitch": 31,
                "velocity": 101,
                "duration": 0.0818182,
                "tempo": 120.0
            },
            {
                "start_time": 0.45,
                "end_time": 0.5272727,
                "pitch": 31,
                "velocity": 101,
                "duration": 0.0772727,
                "tempo": 120.0
            },
            {
                "start_time": 0.6204545,
                "end_time": 0.7,
                "pitch": 43,
                "velocity": 101,
                "duration": 0.0795455,
                "tempo": 120.0
            },
            {
                "start_time": 0.7886364,
                "end_time": 0.8704545,
                "pitch": 31,
                "velocity": 101,
                "duration": 0.0818182,
                "tempo": 120.0
            },
            {
                "start_time": 0.9613636,
                "end_time": 1.0363636,
                "pitch": 31,
                "velocity": 101,
                "duration": 0.075,
                "tempo": 120.0
            },
            {
                "start_time": 1.1272727,
                "end_time": 1.2045455,
                "pitch": 43,
                "velocity": 101,
                "duration": 0.0772727,
                "tempo": 120.0
            },
            {
                "start_time": 1.2909091,
                "end_time": 1.3727273,
                "pitch": 31,
                "velocity": 101,
                "duration": 0.0818182,
                "tempo": 120.0
            },
            {
                "start_time": 1.4636364,
                "end_time": 1.5431818,
                "pitch": 31,
                "velocity": 101,
                "duration": 0.0795455,
                "tempo": 120.0
            },
            {
                "start_time": 1.6363636,
                "end_time": 1.7159091,
                "pitch": 43,
                "velocity": 101,
                "duration": 0.0795455,
                "tempo": 120.0
            },
            {
                "start_time": 1.8045455,
                "end_time": 1.8840909,
                "pitch": 31,
                "velocity": 101,
                "duration": 0.0795455,
                "tempo": 120.0
            },
            {
                "start_time": 1.9772727,
                "end_time": 2.0522727,
                "pitch": 31,
                "velocity": 101,
                "duration": 0.075,
                "tempo": 120.0
            },
            {
                "start_time": 2.1431818,
                "end_time": 2.2227273,
                "pitch": 43,
                "velocity": 101,
                "duration": 0.0795455,
                "tempo": 120.0
            },
            {
                "start_time": 2.3113636,
                "end_time": 2.3954545,
                "pitch": 31,
                "velocity": 101,
                "duration": 0.0840909,
                "tempo": 120.0
            },
            {
                "start_time": 2.4931818,
                "end_time": 2.5659091,
                "pitch": 43,
                "velocity": 101,
                "duration": 0.0727273,
                "tempo": 120.0
            },
            {
                "start_time": 2.65,
                "end_time": 2.7340909,
                "pitch": 31,
                "velocity": 101,
                "duration": 0.0840909,
                "tempo": 120.0
            },
            {
                "start_time": 2.8295455,
                "end_time": 2.9022727,
                "pitch": 31,
                "velocity": 101,
                "duration": 0.0727273,
                "tempo": 120.0
            },
            {
                "start_time": 2.9954545,
                "end_time": 3.075,
                "pitch": 31,
                "velocity": 101,
                "duration": 0.0795455,
                "tempo": 120.0
            },
            {
                "start_time": 3.1681818,
                "end_time": 3.2454545,
                "pitch": 31,
                "velocity": 101,
                "duration": 0.0772727,
                "tempo": 120.0
            },
            {
                "start_time": 3.3409091,
                "end_time": 3.4136364,
                "pitch": 43,
                "velocity": 101,
                "duration": 0.0727273,
                "tempo": 120.0
            },
            {
                "start_time": 3.5045455,
                "end_time": 3.5818182,
                "pitch": 31,
                "velocity": 101,
                "duration": 0.0772727,
                "tempo": 120.0
            },
            {
                "start_time": 3.6772727,
                "end_time": 3.7545455,
                "pitch": 31,
                "velocity": 101,
                "duration": 0.0772727,
                "tempo": 120.0
            },
            {
                "start_time": 3.8545455,
                "end_time": 3.925,
                "pitch": 43,
                "velocity": 101,
                "duration": 0.0704545,
                "tempo": 120.0
            },
            {
                "start_time": 4.0159091,
                "end_time": 4.0931818,
                "pitch": 31,
                "velocity": 101,
                "duration": 0.0772727,
                "tempo": 120.0
            },
            {
                "start_time": 4.1840909,
                "end_time": 4.2613636,
                "pitch": 31,
                "velocity": 101,
                "duration": 0.0772727,
                "tempo": 120.0
            },
            {
                "start_time": 4.3568182,
                "end_time": 4.4295455,
                "pitch": 43,
                "velocity": 101,
                "duration": 0.0727273,
                "tempo": 120.0
            },
            {
                "start_time": 4.5204545,
                "end_time": 4.5954545,
                "pitch": 31,
                "velocity": 101,
                "duration": 0.075,
                "tempo": 120.0
            },
            {
                "start_time": 4.6886364,
                "end_time": 4.7636364,
                "pitch": 31,
                "velocity": 101,
                "duration": 0.075,
                "tempo": 120.0
            },
            {
                "start_time": 4.8545455,
                "end_time": 4.9340909,
                "pitch": 31,
                "velocity": 101,
                "duration": 0.0795455,
                "tempo": 120.0
            },
            {
                "start_time": 5.0227273,
                "end_time": 5.1068182,
                "pitch": 43,
                "velocity": 101,
                "duration": 0.0840909,
                "tempo": 120.0
            },
            {
                "start_time": 5.1931818,
                "end_time": 5.2727273,
                "pitch": 41,
                "velocity": 101,
                "duration": 0.0795455,
                "tempo": 120.0
            },
            {
                "start_time": 5.3568182,
                "end_time": 5.4363636,
                "pitch": 38,
                "velocity": 101,
                "duration": 0.0795455,
                "tempo": 120.0
            },
            {
                "start_time": 5.525,
                "end_time": 5.6022727,
                "pitch": 31,
                "velocity": 101,
                "duration": 0.0772727,
                "tempo": 120.0
            },
            {
                "start_time": 5.6909091,
                "end_time": 5.775,
                "pitch": 31,
                "velocity": 101,
                "duration": 0.0840909,
                "tempo": 120.0
            },
            {
                "start_time": 5.8704545,
                "end_time": 5.9477273,
                "pitch": 31,
                "velocity": 101,
                "duration": 0.0772727,
                "tempo": 120.0
            },
            {
                "start_time": 6.0409091,
                "end_time": 6.1204545,
                "pitch": 43,
                "velocity": 101,
                "duration": 0.0795455,
                "tempo": 120.0
            },
            {
                "start_time": 6.2090909,
                "end_time": 6.2909091,
                "pitch": 31,
                "velocity": 101,
                "duration": 0.0818182,
                "tempo": 120.0
            },
            {
                "start_time": 6.3818182,
                "end_time": 6.4590909,
                "pitch": 31,
                "velocity": 101,
                "duration": 0.0772727,
                "tempo": 120.0
            },
            {
                "start_time": 6.55,
                "end_time": 6.625,
                "pitch": 43,
                "velocity": 101,
                "duration": 0.075,
                "tempo": 120.0
            },
            {
                "start_time": 6.7113636,
                "end_time": 6.7931818,
                "pitch": 31,
                "velocity": 101,
                "duration": 0.0818182,
                "tempo": 120.0
            },
            {
                "start_time": 6.8840909,
                "end_time": 6.9636364,
                "pitch": 31,
                "velocity": 101,
                "duration": 0.0795455,
                "tempo": 120.0
            },
            {
                "start_time": 7.0568182,
                "end_time": 7.1363636,
                "pitch": 43,
                "velocity": 101,
                "duration": 0.0795455,
                "tempo": 120.0
            },
            {
                "start_time": 7.225,
                "end_time": 7.3068182,
                "pitch": 31,
                "velocity": 101,
                "duration": 0.0818182,
                "tempo": 120.0
            },
            {
                "start_time": 7.3977273,
                "end_time": 7.4727273,
                "pitch": 31,
                "velocity": 101,
                "duration": 0.075,
                "tempo": 120.0
            },
            {
                "start_time": 7.5659091,
                "end_time": 7.6431818,
                "pitch": 43,
                "velocity": 101,
                "duration": 0.0772727,
                "tempo": 120.0
            },
            {
                "start_time": 7.7318182,
                "end_time": 7.8159091,
                "pitch": 31,
                "velocity": 101,
                "duration": 0.0840909,
                "tempo": 120.0
            },
            {
                "start_time": 7.9136364,
                "end_time": 7.9863636,
                "pitch": 43,
                "velocity": 101,
                "duration": 0.0727273,
                "tempo": 120.0
            },
            {
                "start_time": 8.0727273,
                "end_time": 8.1545455,
                "pitch": 31,
                "velocity": 101,
                "duration": 0.0818182,
                "tempo": 120.0
            },
            {
                "start_time": 8.25,
                "end_time": 8.3227273,
                "pitch": 31,
                "velocity": 101,
                "duration": 0.0727273,
                "tempo": 120.0
            },
            {
                "start_time": 8.4159091,
                "end_time": 8.4954545,
                "pitch": 31,
                "velocity": 101,
                "duration": 0.0795455,
                "tempo": 120.0
            },
            {
                "start_time": 8.5886364,
                "end_time": 8.6659091,
                "pitch": 31,
                "velocity": 101,
                "duration": 0.0772727,
                "tempo": 120.0
            },
            {
                "start_time": 8.7613636,
                "end_time": 8.8340909,
                "pitch": 43,
                "velocity": 101,
                "duration": 0.0727273,
                "tempo": 120.0
            },
            {
                "start_time": 8.925,
                "end_time": 9.0022727,
                "pitch": 31,
                "velocity": 101,
                "duration": 0.0772727,
                "tempo": 120.0
            },
            {
                "start_time": 9.0931818,
                "end_time": 9.1681818,
                "pitch": 31,
                "velocity": 101,
                "duration": 0.075,
                "tempo": 120.0
            },
            {
                "start_time": 9.2659091,
                "end_time": 9.3386364,
                "pitch": 43,
                "velocity": 101,
                "duration": 0.0727273,
                "tempo": 120.0
            },
            {
                "start_time": 9.4318182,
                "end_time": 9.5113636,
                "pitch": 31,
                "velocity": 101,
                "duration": 0.0795455,
                "tempo": 120.0
            },
            {
                "start_time": 9.6045455,
                "end_time": 9.6818182,
                "pitch": 32,
                "velocity": 101,
                "duration": 0.0772727,
                "tempo": 120.0
            },
            {
                "start_time": 9.7772727,
                "end_time": 9.85,
                "pitch": 44,
                "velocity": 101,
                "duration": 0.0727273,
                "tempo": 120.0
            },
            {
                "start_time": 9.9363636,
                "end_time": 10.0159091,
                "pitch": 32,
                "velocity": 101,
                "duration": 0.0795455,
                "tempo": 120.0
            },
            {
                "start_time": 10.1136364,
                "end_time": 10.2704545,
                "pitch": 34,
                "velocity": 101,
                "duration": 0.1568182,
                "tempo": 120.0
            },
            {
                "start_time": 10.4431818,
                "end_time": 10.5204545,
                "pitch": 34,
                "velocity": 101,
                "duration": 0.0772727,
                "tempo": 120.0
            },
            {
                "start_time": 10.6068182,
                "end_time": 10.6909091,
                "pitch": 31,
                "velocity": 101,
                "duration": 0.0840909,
                "tempo": 120.0
            },
            {
                "start_time": 10.7772727,
                "end_time": 10.8636364,
                "pitch": 34,
                "velocity": 101,
                "duration": 0.0863636,
                "tempo": 120.0
            },
            {
                "start_time": 10.9568182,
                "end_time": 11.0340909,
                "pitch": 36,
                "velocity": 101,
                "duration": 0.0772727,
                "tempo": 120.0
            },
            {
                "start_time": 11.1318182,
                "end_time": 11.2090909,
                "pitch": 36,
                "velocity": 101,
                "duration": 0.0772727,
                "tempo": 120.0
            },
            {
                "start_time": 11.2977273,
                "end_time": 11.3795455,
                "pitch": 36,
                "velocity": 101,
                "duration": 0.0818182,
                "tempo": 120.0
            },
            {
                "start_time": 11.4704545,
                "end_time": 11.5477273,
                "pitch": 36,
                "velocity": 101,
                "duration": 0.0772727,
                "tempo": 120.0
            },
            {
                "start_time": 11.6340909,
                "end_time": 11.7159091,
                "pitch": 36,
                "velocity": 101,
                "duration": 0.0818182,
                "tempo": 120.0
            },
            {
                "start_time": 11.8068182,
                "end_time": 11.8840909,
                "pitch": 31,
                "velocity": 101,
                "duration": 0.0772727,
                "tempo": 120.0
            },
            {
                "start_time": 11.9681818,
                "end_time": 12.05,
                "pitch": 34,
                "velocity": 101,
                "duration": 0.0818182,
                "tempo": 120.0
            },
            {
                "start_time": 12.1409091,
                "end_time": 12.3022727,
                "pitch": 36,
                "velocity": 101,
                "duration": 0.1613636,
                "tempo": 120.0
            },
            {
                "start_time": 12.4818182,
                "end_time": 12.5613636,
                "pitch": 36,
                "velocity": 101,
                "duration": 0.0795455,
                "tempo": 120.0
            },
            {
                "start_time": 12.65,
                "end_time": 12.7318182,
                "pitch": 36,
                "velocity": 101,
                "duration": 0.0818182,
                "tempo": 120.0
            },
            {
                "start_time": 12.8227273,
                "end_time": 12.8977273,
                "pitch": 36,
                "velocity": 101,
                "duration": 0.075,
                "tempo": 120.0
            },
            {
                "start_time": 12.9840909,
                "end_time": 13.0318182,
                "pitch": 36,
                "velocity": 101,
                "duration": 0.0477273,
                "tempo": 120.0
            },
            {
                "start_time": 13.0704545,
                "end_time": 13.1181818,
                "pitch": 48,
                "velocity": 101,
                "duration": 0.0477273,
                "tempo": 120.0
            },
            {
                "start_time": 13.1568182,
                "end_time": 13.2409091,
                "pitch": 31,
                "velocity": 101,
                "duration": 0.0840909,
                "tempo": 120.0
            },
            {
                "start_time": 13.3295455,
                "end_time": 13.4113636,
                "pitch": 34,
                "velocity": 101,
                "duration": 0.0818182,
                "tempo": 120.0
            },
            {
                "start_time": 13.4977273,
                "end_time": 13.5795455,
                "pitch": 31,
                "velocity": 101,
                "duration": 0.0818182,
                "tempo": 120.0
            },
            {
                "start_time": 13.6681818,
                "end_time": 13.7454545,
                "pitch": 36,
                "velocity": 101,
                "duration": 0.0772727,
                "tempo": 120.0
            },
            {
                "start_time": 13.8363636,
                "end_time": 13.9113636,
                "pitch": 36,
                "velocity": 101,
                "duration": 0.075,
                "tempo": 120.0
            },
            {
                "start_time": 14.0,
                "end_time": 14.0840909,
                "pitch": 36,
                "velocity": 101,
                "duration": 0.0840909,
                "tempo": 120.0
            },
            {
                "start_time": 14.1772727,
                "end_time": 14.2568182,
                "pitch": 36,
                "velocity": 101,
                "duration": 0.0795455,
                "tempo": 120.0
            },
            {
                "start_time": 14.3454545,
                "end_time": 14.4272727,
                "pitch": 36,
                "velocity": 101,
                "duration": 0.0818182,
                "tempo": 120.0
            },
            {
                "start_time": 14.5181818,
                "end_time": 14.5954545,
                "pitch": 31,
                "velocity": 101,
                "duration": 0.0772727,
                "tempo": 120.0
            },
            {
                "start_time": 14.6772727,
                "end_time": 14.7613636,
                "pitch": 34,
                "velocity": 101,
                "duration": 0.0840909,
                "tempo": 120.0
            },
            {
                "start_time": 14.8522727,
                "end_time": 15.0136364,
                "pitch": 36,
                "velocity": 101,
                "duration": 0.1613636,
                "tempo": 120.0
            },
            {
                "start_time": 15.1931818,
                "end_time": 15.2727273,
                "pitch": 36,
                "velocity": 101,
                "duration": 0.0795455,
                "tempo": 120.0
            },
            {
                "start_time": 15.3659091,
                "end_time": 15.4454545,
                "pitch": 36,
                "velocity": 101,
                "duration": 0.0795455,
                "tempo": 120.0
            },
            {
                "start_time": 15.5318182,
                "end_time": 15.6181818,
                "pitch": 36,
                "velocity": 101,
                "duration": 0.0863636,
                "tempo": 120.0
            },
            {
                "start_time": 15.7113636,
                "end_time": 15.7522727,
                "pitch": 36,
                "velocity": 101,
                "duration": 0.0409091,
                "tempo": 120.0
            },
            {
                "start_time": 15.7886364,
                "end_time": 15.8340909,
                "pitch": 48,
                "velocity": 101,
                "duration": 0.0454545,
                "tempo": 120.0
            },
            {
                "start_time": 15.8727273,
                "end_time": 15.9545455,
                "pitch": 36,
                "velocity": 101,
                "duration": 0.0818182,
                "tempo": 120.0
            },
            {
                "start_time": 16.0454545,
                "end_time": 16.1227273,
                "pitch": 37,
                "velocity": 101,
                "duration": 0.0772727,
                "tempo": 120.0
            },
            {
                "start_time": 16.2090909,
                "end_time": 16.2909091,
                "pitch": 38,
                "velocity": 101,
                "duration": 0.0818182,
                "tempo": 120.0
            },
            {
                "start_time": 16.3795455,
                "end_time": 16.4590909,
                "pitch": 39,
                "velocity": 101,
                "duration": 0.0795455,
                "tempo": 120.0
            },
            {
                "start_time": 16.5545455,
                "end_time": 16.6295455,
                "pitch": 39,
                "velocity": 101,
                "duration": 0.075,
                "tempo": 120.0
            },
            {
                "start_time": 16.7204545,
                "end_time": 16.8022727,
                "pitch": 39,
                "velocity": 101,
                "duration": 0.0818182,
                "tempo": 120.0
            },
            {
                "start_time": 16.8931818,
                "end_time": 16.9704545,
                "pitch": 39,
                "velocity": 101,
                "duration": 0.0772727,
                "tempo": 120.0
            },
            {
                "start_time": 17.0568182,
                "end_time": 17.1386364,
                "pitch": 39,
                "velocity": 101,
                "duration": 0.0818182,
                "tempo": 120.0
            },
            {
                "start_time": 17.2295455,
                "end_time": 17.3068182,
                "pitch": 34,
                "velocity": 101,
                "duration": 0.0772727,
                "tempo": 120.0
            },
            {
                "start_time": 17.3909091,
                "end_time": 17.4727273,
                "pitch": 37,
                "velocity": 101,
                "duration": 0.0818182,
                "tempo": 120.0
            },
            {
                "start_time": 17.5636364,
                "end_time": 17.725,
                "pitch": 39,
                "velocity": 101,
                "duration": 0.1613636,
                "tempo": 120.0
            },
            {
                "start_time": 17.9045455,
                "end_time": 17.9840909,
                "pitch": 39,
                "velocity": 101,
                "duration": 0.0795455,
                "tempo": 120.0
            },
            {
                "start_time": 18.0727273,
                "end_time": 18.1545455,
                "pitch": 39,
                "velocity": 101,
                "duration": 0.0818182,
                "tempo": 120.0
            },
            {
                "start_time": 18.2454545,
                "end_time": 18.3204545,
                "pitch": 39,
                "velocity": 101,
                "duration": 0.075,
                "tempo": 120.0
            },
            {
                "start_time": 18.4068182,
                "end_time": 18.4545455,
                "pitch": 39,
                "velocity": 101,
                "duration": 0.0477273,
                "tempo": 120.0
            },
            {
                "start_time": 18.4931818,
                "end_time": 18.5409091,
                "pitch": 51,
                "velocity": 101,
                "duration": 0.0477273,
                "tempo": 120.0
            },
            {
                "start_time": 18.5795455,
                "end_time": 18.6636364,
                "pitch": 34,
                "velocity": 101,
                "duration": 0.0840909,
                "tempo": 120.0
            },
            {
                "start_time": 18.7522727,
                "end_time": 18.8340909,
                "pitch": 37,
                "velocity": 101,
                "duration": 0.0818182,
                "tempo": 120.0
            },
            {
                "start_time": 18.9204545,
                "end_time": 19.0022727,
                "pitch": 34,
                "velocity": 101,
                "duration": 0.0818182,
                "tempo": 120.0
            },
            {
                "start_time": 19.0909091,
                "end_time": 19.1681818,
                "pitch": 39,
                "velocity": 101,
                "duration": 0.0772727,
                "tempo": 120.0
            },
            {
                "start_time": 19.2590909,
                "end_time": 19.3340909,
                "pitch": 39,
                "velocity": 101,
                "duration": 0.075,
                "tempo": 120.0
            },
            {
                "start_time": 19.4227273,
                "end_time": 19.5068182,
                "pitch": 39,
                "velocity": 101,
                "duration": 0.0840909,
                "tempo": 120.0
            },
            {
                "start_time": 19.6,
                "end_time": 19.6795455,
                "pitch": 39,
                "velocity": 101,
                "duration": 0.0795455,
                "tempo": 120.0
            },
            {
                "start_time": 19.7681818,
                "end_time": 19.85,
                "pitch": 39,
                "velocity": 101,
                "duration": 0.0818182,
                "tempo": 120.0
            },
            {
                "start_time": 19.9409091,
                "end_time": 20.0181818,
                "pitch": 34,
                "velocity": 101,
                "duration": 0.0772727,
                "tempo": 120.0
            },
            {
                "start_time": 20.1,
                "end_time": 20.1840909,
                "pitch": 37,
                "velocity": 101,
                "duration": 0.0840909,
                "tempo": 120.0
            },
            {
                "start_time": 20.275,
                "end_time": 20.4363636,
                "pitch": 39,
                "velocity": 101,
                "duration": 0.1613636,
                "tempo": 120.0
            },
            {
                "start_time": 20.6159091,
                "end_time": 20.6954545,
                "pitch": 39,
                "velocity": 101,
                "duration": 0.0795455,
                "tempo": 120.0
            },
            {
                "start_time": 20.7886364,
                "end_time": 20.8681818,
                "pitch": 39,
                "velocity": 101,
                "duration": 0.0795455,
                "tempo": 120.0
            },
            {
                "start_time": 20.9545455,
                "end_time": 21.0409091,
                "pitch": 39,
                "velocity": 101,
                "duration": 0.0863636,
                "tempo": 120.0
            },
            {
                "start_time": 21.1318182,
                "end_time": 21.175,
                "pitch": 39,
                "velocity": 101,
                "duration": 0.0431818,
                "tempo": 120.0
            },
            {
                "start_time": 21.2113636,
                "end_time": 21.2568182,
                "pitch": 51,
                "velocity": 101,
                "duration": 0.0454545,
                "tempo": 120.0
            },
            {
                "start_time": 21.2954545,
                "end_time": 21.3772727,
                "pitch": 39,
                "velocity": 101,
                "duration": 0.0818182,
                "tempo": 120.0
            },
            {
                "start_time": 21.4681818,
                "end_time": 21.5454545,
                "pitch": 38,
                "velocity": 101,
                "duration": 0.0772727,
                "tempo": 120.0
            },
            {
                "start_time": 21.6318182,
                "end_time": 21.7136364,
                "pitch": 37,
                "velocity": 101,
                "duration": 0.0818182,
                "tempo": 120.0
            },
            {
                "start_time": 21.8022727,
                "end_time": 21.8818182,
                "pitch": 36,
                "velocity": 101,
                "duration": 0.0795455,
                "tempo": 120.0
            },
            {
                "start_time": 21.9772727,
                "end_time": 22.0522727,
                "pitch": 36,
                "velocity": 101,
                "duration": 0.075,
                "tempo": 120.0
            },
            {
                "start_time": 22.1431818,
                "end_time": 22.225,
                "pitch": 36,
                "velocity": 101,
                "duration": 0.0818182,
                "tempo": 120.0
            },
            {
                "start_time": 22.3159091,
                "end_time": 22.3931818,
                "pitch": 36,
                "velocity": 101,
                "duration": 0.0772727,
                "tempo": 120.0
            },
            {
                "start_time": 22.4795455,
                "end_time": 22.5613636,
                "pitch": 36,
                "velocity": 101,
                "duration": 0.0818182,
                "tempo": 120.0
            },
            {
                "start_time": 22.6522727,
                "end_time": 22.7295455,
                "pitch": 31,
                "velocity": 101,
                "duration": 0.0772727,
                "tempo": 120.0
            },
            {
                "start_time": 22.8113636,
                "end_time": 22.8954545,
                "pitch": 34,
                "velocity": 101,
                "duration": 0.0840909,
                "tempo": 120.0
            },
            {
                "start_time": 22.9863636,
                "end_time": 23.1477273,
                "pitch": 36,
                "velocity": 101,
                "duration": 0.1613636,
                "tempo": 120.0
            },
            {
                "start_time": 23.3227273,
                "end_time": 23.4,
                "pitch": 36,
                "velocity": 101,
                "duration": 0.0772727,
                "tempo": 120.0
            },
            {
                "start_time": 23.4863636,
                "end_time": 23.5704545,
                "pitch": 36,
                "velocity": 101,
                "duration": 0.0840909,
                "tempo": 120.0
            },
            {
                "start_time": 23.6636364,
                "end_time": 23.7409091,
                "pitch": 36,
                "velocity": 101,
                "duration": 0.0772727,
                "tempo": 120.0
            },
            {
                "start_time": 23.8295455,
                "end_time": 23.875,
                "pitch": 36,
                "velocity": 101,
                "duration": 0.0454545,
                "tempo": 120.0
            },
            {
                "start_time": 23.9136364,
                "end_time": 23.9590909,
                "pitch": 48,
                "velocity": 101,
                "duration": 0.0454545,
                "tempo": 120.0
            },
            {
                "start_time": 23.9977273,
                "end_time": 24.0795455,
                "pitch": 31,
                "velocity": 101,
                "duration": 0.0818182,
                "tempo": 120.0
            },
            {
                "start_time": 24.1659091,
                "end_time": 24.25,
                "pitch": 34,
                "velocity": 101,
                "duration": 0.0840909,
                "tempo": 120.0
            },
            {
                "start_time": 24.3386364,
                "end_time": 24.4227273,
                "pitch": 31,
                "velocity": 101,
                "duration": 0.0840909,
                "tempo": 120.0
            },
            {
                "start_time": 24.5136364,
                "end_time": 24.5909091,
                "pitch": 36,
                "velocity": 101,
                "duration": 0.0772727,
                "tempo": 120.0
            },
            {
                "start_time": 24.6818182,
                "end_time": 24.7568182,
                "pitch": 36,
                "velocity": 101,
                "duration": 0.075,
                "tempo": 120.0
            },
            {
                "start_time": 24.8454545,
                "end_time": 24.9295455,
                "pitch": 36,
                "velocity": 101,
                "duration": 0.0840909,
                "tempo": 120.0
            },
            {
                "start_time": 25.0227273,
                "end_time": 25.1022727,
                "pitch": 36,
                "velocity": 101,
                "duration": 0.0795455,
                "tempo": 120.0
            },
            {
                "start_time": 25.1909091,
                "end_time": 25.2727273,
                "pitch": 36,
                "velocity": 101,
                "duration": 0.0818182,
                "tempo": 120.0
            },
            {
                "start_time": 25.3636364,
                "end_time": 25.4386364,
                "pitch": 31,
                "velocity": 101,
                "duration": 0.075,
                "tempo": 120.0
            },
            {
                "start_time": 25.5227273,
                "end_time": 25.6068182,
                "pitch": 34,
                "velocity": 101,
                "duration": 0.0840909,
                "tempo": 120.0
            },
            {
                "start_time": 25.6977273,
                "end_time": 25.8590909,
                "pitch": 36,
                "velocity": 101,
                "duration": 0.1613636,
                "tempo": 120.0
            },
            {
                "start_time": 26.0386364,
                "end_time": 26.1181818,
                "pitch": 36,
                "velocity": 101,
                "duration": 0.0795455,
                "tempo": 120.0
            },
            {
                "start_time": 26.2113636,
                "end_time": 26.2909091,
                "pitch": 36,
                "velocity": 101,
                "duration": 0.0795455,
                "tempo": 120.0
            },
            {
                "start_time": 26.3772727,
                "end_time": 26.4613636,
                "pitch": 36,
                "velocity": 101,
                "duration": 0.0840909,
                "tempo": 120.0
            },
            {
                "start_time": 26.5568182,
                "end_time": 26.5954545,
                "pitch": 36,
                "velocity": 101,
                "duration": 0.0386364,
                "tempo": 120.0
            },
            {
                "start_time": 26.6340909,
                "end_time": 26.6795455,
                "pitch": 48,
                "velocity": 101,
                "duration": 0.0454545,
                "tempo": 120.0
            },
            {
                "start_time": 26.7181818,
                "end_time": 26.8,
                "pitch": 36,
                "velocity": 101,
                "duration": 0.0818182,
                "tempo": 120.0
            },
            {
                "start_time": 26.8909091,
                "end_time": 26.9681818,
                "pitch": 38,
                "velocity": 101,
                "duration": 0.0772727,
                "tempo": 120.0
            },
            {
                "start_time": 27.0545455,
                "end_time": 27.1363636,
                "pitch": 39,
                "velocity": 101,
                "duration": 0.0818182,
                "tempo": 120.0
            },
            {
                "start_time": 27.225,
                "end_time": 27.3045455,
                "pitch": 32,
                "velocity": 101,
                "duration": 0.0795455,
                "tempo": 120.0
            },
            {
                "start_time": 27.3931818,
                "end_time": 27.475,
                "pitch": 32,
                "velocity": 101,
                "duration": 0.0818182,
                "tempo": 120.0
            },
            {
                "start_time": 27.5659091,
                "end_time": 27.6477273,
                "pitch": 39,
                "velocity": 101,
                "duration": 0.0818182,
                "tempo": 120.0
            },
            {
                "start_time": 27.7340909,
                "end_time": 27.8977273,
                "pitch": 44,
                "velocity": 101,
                "duration": 0.1636364,
                "tempo": 120.0
            },
            {
                "start_time": 28.0681818,
                "end_time": 28.1477273,
                "pitch": 44,
                "velocity": 101,
                "duration": 0.0795455,
                "tempo": 120.0
            },
            {
                "start_time": 28.2340909,
                "end_time": 28.3181818,
                "pitch": 39,
                "velocity": 101,
                "duration": 0.0840909,
                "tempo": 120.0
            },
            {
                "start_time": 28.4045455,
                "end_time": 28.4840909,
                "pitch": 44,
                "velocity": 101,
                "duration": 0.0795455,
                "tempo": 120.0
            },
            {
                "start_time": 28.5772727,
                "end_time": 28.6568182,
                "pitch": 34,
                "velocity": 101,
                "duration": 0.0795455,
                "tempo": 120.0
            },
            {
                "start_time": 28.7431818,
                "end_time": 28.8295455,
                "pitch": 34,
                "velocity": 101,
                "duration": 0.0863636,
                "tempo": 120.0
            },
            {
                "start_time": 28.9136364,
                "end_time": 28.9954545,
                "pitch": 41,
                "velocity": 101,
                "duration": 0.0818182,
                "tempo": 120.0
            },
            {
                "start_time": 29.0840909,
                "end_time": 29.2477273,
                "pitch": 46,
                "velocity": 101,
                "duration": 0.1636364,
                "tempo": 120.0
            },
            {
                "start_time": 29.4204545,
                "end_time": 29.5,
                "pitch": 46,
                "velocity": 101,
                "duration": 0.0795455,
                "tempo": 120.0
            },
            {
                "start_time": 29.5886364,
                "end_time": 29.6727273,
                "pitch": 41,
                "velocity": 101,
                "duration": 0.0840909,
                "tempo": 120.0
            },
            {
                "start_time": 29.7613636,
                "end_time": 29.8454545,
                "pitch": 46,
                "velocity": 101,
                "duration": 0.0840909,
                "tempo": 120.0
            },
            {
                "start_time": 29.9386364,
                "end_time": 30.0159091,
                "pitch": 36,
                "velocity": 101,
                "duration": 0.0772727,
                "tempo": 120.0
            },
            {
                "start_time": 30.1068182,
                "end_time": 30.1886364,
                "pitch": 41,
                "velocity": 101,
                "duration": 0.0818182,
                "tempo": 120.0
            },
            {
                "start_time": 30.275,
                "end_time": 30.3568182,
                "pitch": 43,
                "velocity": 101,
                "duration": 0.0818182,
                "tempo": 120.0
            },
            {
                "start_time": 30.4477273,
                "end_time": 30.6090909,
                "pitch": 48,
                "velocity": 101,
                "duration": 0.1613636,
                "tempo": 120.0
            },
            {
                "start_time": 30.7840909,
                "end_time": 30.8590909,
                "pitch": 43,
                "velocity": 101,
                "duration": 0.075,
                "tempo": 120.0
            },
            {
                "start_time": 30.9477273,
                "end_time": 31.0295455,
                "pitch": 41,
                "velocity": 101,
                "duration": 0.0818182,
                "tempo": 120.0
            },
            {
                "start_time": 31.1272727,
                "end_time": 31.2045455,
                "pitch": 38,
                "velocity": 101,
                "duration": 0.0772727,
                "tempo": 120.0
            },
            {
                "start_time": 31.2954545,
                "end_time": 31.3727273,
                "pitch": 36,
                "velocity": 101,
                "duration": 0.0772727,
                "tempo": 120.0
            },
            {
                "start_time": 31.4522727,
                "end_time": 31.5318182,
                "pitch": 36,
                "velocity": 101,
                "duration": 0.0795455,
                "tempo": 120.0
            },
            {
                "start_time": 31.6159091,
                "end_time": 31.7,
                "pitch": 31,
                "velocity": 101,
                "duration": 0.0840909,
                "tempo": 120.0
            },
            {
                "start_time": 31.7863636,
                "end_time": 31.9590909,
                "pitch": 36,
                "velocity": 101,
                "duration": 0.1727273,
                "tempo": 120.0
            },
            {
                "start_time": 32.1272727,
                "end_time": 32.2090909,
                "pitch": 36,
                "velocity": 101,
                "duration": 0.0818182,
                "tempo": 120.0
            },
            {
                "start_time": 32.2954545,
                "end_time": 32.3795455,
                "pitch": 31,
                "velocity": 101,
                "duration": 0.0840909,
                "tempo": 120.0
            },
            {
                "start_time": 32.4681818,
                "end_time": 32.5522727,
                "pitch": 36,
                "velocity": 101,
                "duration": 0.0840909,
                "tempo": 120.0
            },
            {
                "start_time": 32.65,
                "end_time": 32.7227273,
                "pitch": 29,
                "velocity": 101,
                "duration": 0.0727273,
                "tempo": 120.0
            },
            {
                "start_time": 32.8068182,
                "end_time": 32.8931818,
                "pitch": 29,
                "velocity": 101,
                "duration": 0.0863636,
                "tempo": 120.0
            },
            {
                "start_time": 32.975,
                "end_time": 33.0568182,
                "pitch": 29,
                "velocity": 101,
                "duration": 0.0818182,
                "tempo": 120.0
            },
            {
                "start_time": 33.1431818,
                "end_time": 33.225,
                "pitch": 29,
                "velocity": 101,
                "duration": 0.0818182,
                "tempo": 120.0
            },
            {
                "start_time": 33.3181818,
                "end_time": 33.3954545,
                "pitch": 29,
                "velocity": 101,
                "duration": 0.0772727,
                "tempo": 120.0
            },
            {
                "start_time": 33.4909091,
                "end_time": 33.5772727,
                "pitch": 29,
                "velocity": 101,
                "duration": 0.0863636,
                "tempo": 120.0
            },
            {
                "start_time": 33.6636364,
                "end_time": 33.7454545,
                "pitch": 36,
                "velocity": 101,
                "duration": 0.0818182,
                "tempo": 120.0
            },
            {
                "start_time": 33.8295455,
                "end_time": 33.9931818,
                "pitch": 41,
                "velocity": 101,
                "duration": 0.1636364,
                "tempo": 120.0
            },
            {
                "start_time": 34.1590909,
                "end_time": 34.2386364,
                "pitch": 41,
                "velocity": 101,
                "duration": 0.0795455,
                "tempo": 120.0
            },
            {
                "start_time": 34.325,
                "end_time": 34.4113636,
                "pitch": 41,
                "velocity": 101,
                "duration": 0.0863636,
                "tempo": 120.0
            },
            {
                "start_time": 34.5,
                "end_time": 34.5818182,
                "pitch": 41,
                "velocity": 101,
                "duration": 0.0818182,
                "tempo": 120.0
            },
            {
                "start_time": 34.675,
                "end_time": 34.7568182,
                "pitch": 41,
                "velocity": 101,
                "duration": 0.0818182,
                "tempo": 120.0
            },
            {
                "start_time": 34.8454545,
                "end_time": 34.9272727,
                "pitch": 41,
                "velocity": 101,
                "duration": 0.0818182,
                "tempo": 120.0
            },
            {
                "start_time": 35.0136364,
                "end_time": 35.1,
                "pitch": 36,
                "velocity": 101,
                "duration": 0.0863636,
                "tempo": 120.0
            },
            {
                "start_time": 35.1818182,
                "end_time": 35.2636364,
                "pitch": 29,
                "velocity": 101,
                "duration": 0.0818182,
                "tempo": 120.0
            },
            {
                "start_time": 35.3590909,
                "end_time": 35.4340909,
                "pitch": 29,
                "velocity": 101,
                "duration": 0.075,
                "tempo": 120.0
            },
            {
                "start_time": 35.5227273,
                "end_time": 35.6090909,
                "pitch": 29,
                "velocity": 101,
                "duration": 0.0863636,
                "tempo": 120.0
            },
            {
                "start_time": 35.6931818,
                "end_time": 35.7727273,
                "pitch": 29,
                "velocity": 101,
                "duration": 0.0795455,
                "tempo": 120.0
            },
            {
                "start_time": 35.8568182,
                "end_time": 35.9363636,
                "pitch": 29,
                "velocity": 101,
                "duration": 0.0795455,
                "tempo": 120.0
            },
            {
                "start_time": 36.0272727,
                "end_time": 36.1045455,
                "pitch": 29,
                "velocity": 101,
                "duration": 0.0772727,
                "tempo": 120.0
            },
            {
                "start_time": 36.1977273,
                "end_time": 36.2840909,
                "pitch": 29,
                "velocity": 101,
                "duration": 0.0863636,
                "tempo": 120.0
            },
            {
                "start_time": 36.3727273,
                "end_time": 36.4545455,
                "pitch": 36,
                "velocity": 101,
                "duration": 0.0818182,
                "tempo": 120.0
            },
            {
                "start_time": 36.5386364,
                "end_time": 36.7,
                "pitch": 41,
                "velocity": 101,
                "duration": 0.1613636,
                "tempo": 120.0
            },
            {
                "start_time": 36.8681818,
                "end_time": 36.9477273,
                "pitch": 41,
                "velocity": 101,
                "duration": 0.0795455,
                "tempo": 120.0
            },
            {
                "start_time": 37.0318182,
                "end_time": 37.1204545,
                "pitch": 41,
                "velocity": 101,
                "duration": 0.0886364,
                "tempo": 120.0
            },
            {
                "start_time": 37.2090909,
                "end_time": 37.2886364,
                "pitch": 41,
                "velocity": 101,
                "duration": 0.0795455,
                "tempo": 120.0
            },
            {
                "start_time": 37.3818182,
                "end_time": 37.4613636,
                "pitch": 41,
                "velocity": 101,
                "duration": 0.0795455,
                "tempo": 120.0
            },
            {
                "start_time": 37.5477273,
                "end_time": 37.6272727,
                "pitch": 41,
                "velocity": 101,
                "duration": 0.0795455,
                "tempo": 120.0
            },
            {
                "start_time": 37.7136364,
                "end_time": 37.8,
                "pitch": 36,
                "velocity": 101,
                "duration": 0.0863636,
                "tempo": 120.0
            },
            {
                "start_time": 37.8863636,
                "end_time": 37.9704545,
                "pitch": 29,
                "velocity": 101,
                "duration": 0.0840909,
                "tempo": 120.0
            },
            {
                "start_time": 38.0659091,
                "end_time": 38.1386364,
                "pitch": 28,
                "velocity": 101,
                "duration": 0.0727273,
                "tempo": 120.0
            },
            {
                "start_time": 38.225,
                "end_time": 38.3090909,
                "pitch": 28,
                "velocity": 101,
                "duration": 0.0840909,
                "tempo": 120.0
            },
            {
                "start_time": 38.3931818,
                "end_time": 38.4772727,
                "pitch": 28,
                "velocity": 101,
                "duration": 0.0840909,
                "tempo": 120.0
            },
            {
                "start_time": 38.5659091,
                "end_time": 38.65,
                "pitch": 28,
                "velocity": 101,
                "duration": 0.0840909,
                "tempo": 120.0
            },
            {
                "start_time": 38.7454545,
                "end_time": 38.8204545,
                "pitch": 28,
                "velocity": 101,
                "duration": 0.075,
                "tempo": 120.0
            },
            {
                "start_time": 38.9090909,
                "end_time": 38.9909091,
                "pitch": 28,
                "velocity": 101,
                "duration": 0.0818182,
                "tempo": 120.0
            },
            {
                "start_time": 39.0727273,
                "end_time": 39.1568182,
                "pitch": 35,
                "velocity": 101,
                "duration": 0.0840909,
                "tempo": 120.0
            },
            {
                "start_time": 39.2431818,
                "end_time": 39.4113636,
                "pitch": 40,
                "velocity": 101,
                "duration": 0.1681818,
                "tempo": 120.0
            },
            {
                "start_time": 39.5840909,
                "end_time": 39.6659091,
                "pitch": 40,
                "velocity": 101,
                "duration": 0.0818182,
                "tempo": 120.0
            },
            {
                "start_time": 39.7522727,
                "end_time": 39.8386364,
                "pitch": 40,
                "velocity": 101,
                "duration": 0.0863636,
                "tempo": 120.0
            },
            {
                "start_time": 39.9227273,
                "end_time": 40.0022727,
                "pitch": 40,
                "velocity": 101,
                "duration": 0.0795455,
                "tempo": 120.0
            },
            {
                "start_time": 40.0931818,
                "end_time": 40.1727273,
                "pitch": 40,
                "velocity": 101,
                "duration": 0.0795455,
                "tempo": 120.0
            },
            {
                "start_time": 40.2590909,
                "end_time": 40.3386364,
                "pitch": 40,
                "velocity": 101,
                "duration": 0.0795455,
                "tempo": 120.0
            },
            {
                "start_time": 40.425,
                "end_time": 40.5113636,
                "pitch": 35,
                "velocity": 101,
                "duration": 0.0863636,
                "tempo": 120.0
            },
            {
                "start_time": 40.6,
                "end_time": 40.6818182,
                "pitch": 28,
                "velocity": 101,
                "duration": 0.0818182,
                "tempo": 120.0
            },
            {
                "start_time": 40.775,
                "end_time": 40.8568182,
                "pitch": 33,
                "velocity": 101,
                "duration": 0.0818182,
                "tempo": 120.0
            },
            {
                "start_time": 40.9477273,
                "end_time": 41.1159091,
                "pitch": 33,
                "velocity": 101,
                "duration": 0.1681818,
                "tempo": 120.0
            },
            {
                "start_time": 41.2840909,
                "end_time": 41.3659091,
                "pitch": 33,
                "velocity": 101,
                "duration": 0.0818182,
                "tempo": 120.0
            },
            {
                "start_time": 41.4545455,
                "end_time": 41.5340909,
                "pitch": 35,
                "velocity": 101,
                "duration": 0.0795455,
                "tempo": 120.0
            },
            {
                "start_time": 41.625,
                "end_time": 41.7931818,
                "pitch": 35,
                "velocity": 101,
                "duration": 0.1681818,
                "tempo": 120.0
            },
            {
                "start_time": 41.9590909,
                "end_time": 42.0363636,
                "pitch": 35,
                "velocity": 101,
                "duration": 0.0772727,
                "tempo": 120.0
            },
            {
                "start_time": 42.1227273,
                "end_time": 42.2022727,
                "pitch": 36,
                "velocity": 101,
                "duration": 0.0795455,
                "tempo": 120.0
            },
            {
                "start_time": 42.2931818,
                "end_time": 42.375,
                "pitch": 36,
                "velocity": 101,
                "duration": 0.0818182,
                "tempo": 120.0
            },
            {
                "start_time": 42.4636364,
                "end_time": 42.5454545,
                "pitch": 35,
                "velocity": 101,
                "duration": 0.0818182,
                "tempo": 120.0
            },
            {
                "start_time": 42.6340909,
                "end_time": 42.7136364,
                "pitch": 35,
                "velocity": 101,
                "duration": 0.0795455,
                "tempo": 120.0
            },
            {
                "start_time": 42.8022727,
                "end_time": 42.8818182,
                "pitch": 33,
                "velocity": 101,
                "duration": 0.0795455,
                "tempo": 120.0
            },
            {
                "start_time": 42.9727273,
                "end_time": 43.0545455,
                "pitch": 33,
                "velocity": 101,
                "duration": 0.0818182,
                "tempo": 120.0
            },
            {
                "start_time": 43.1431818,
                "end_time": 43.225,
                "pitch": 31,
                "velocity": 101,
                "duration": 0.0818182,
                "tempo": 120.0
            },
            {
                "start_time": 43.3136364,
                "end_time": 43.3931818,
                "pitch": 31,
                "velocity": 101,
                "duration": 0.0795455,
                "tempo": 120.0
            },
            {
                "start_time": 43.4863636,
                "end_time": 43.5636364,
                "pitch": 29,
                "velocity": 101,
                "duration": 0.0772727,
                "tempo": 120.0
            },
            {
                "start_time": 43.65,
                "end_time": 43.7386364,
                "pitch": 29,
                "velocity": 101,
                "duration": 0.0886364,
                "tempo": 120.0
            },
            {
                "start_time": 43.8227273,
                "end_time": 43.9045455,
                "pitch": 29,
                "velocity": 101,
                "duration": 0.0818182,
                "tempo": 120.0
            },
            {
                "start_time": 43.9909091,
                "end_time": 44.0727273,
                "pitch": 29,
                "velocity": 101,
                "duration": 0.0818182,
                "tempo": 120.0
            },
            {
                "start_time": 44.1659091,
                "end_time": 44.2431818,
                "pitch": 29,
                "velocity": 101,
                "duration": 0.0772727,
                "tempo": 120.0
            },
            {
                "start_time": 44.3340909,
                "end_time": 44.4181818,
                "pitch": 29,
                "velocity": 101,
                "duration": 0.0840909,
                "tempo": 120.0
            },
            {
                "start_time": 44.5022727,
                "end_time": 44.5840909,
                "pitch": 36,
                "velocity": 101,
                "duration": 0.0818182,
                "tempo": 120.0
            },
            {
                "start_time": 44.6681818,
                "end_time": 44.8318182,
                "pitch": 41,
                "velocity": 101,
                "duration": 0.1636364,
                "tempo": 120.0
            },
            {
                "start_time": 45.0022727,
                "end_time": 45.0840909,
                "pitch": 41,
                "velocity": 101,
                "duration": 0.0818182,
                "tempo": 120.0
            },
            {
                "start_time": 45.1727273,
                "end_time": 45.2568182,
                "pitch": 41,
                "velocity": 101,
                "duration": 0.0840909,
                "tempo": 120.0
            },
            {
                "start_time": 45.3431818,
                "end_time": 45.4227273,
                "pitch": 41,
                "velocity": 101,
                "duration": 0.0795455,
                "tempo": 120.0
            },
            {
                "start_time": 45.5136364,
                "end_time": 45.5954545,
                "pitch": 41,
                "velocity": 101,
                "duration": 0.0818182,
                "tempo": 120.0
            },
            {
                "start_time": 45.6818182,
                "end_time": 45.7636364,
                "pitch": 41,
                "velocity": 101,
                "duration": 0.0818182,
                "tempo": 120.0
            },
            {
                "start_time": 45.8522727,
                "end_time": 45.9363636,
                "pitch": 36,
                "velocity": 101,
                "duration": 0.0840909,
                "tempo": 120.0
            },
            {
                "start_time": 46.0204545,
                "end_time": 46.1022727,
                "pitch": 29,
                "velocity": 101,
                "duration": 0.0818182,
                "tempo": 120.0
            },
            {
                "start_time": 46.1954545,
                "end_time": 46.2727273,
                "pitch": 29,
                "velocity": 101,
                "duration": 0.0772727,
                "tempo": 120.0
            },
            {
                "start_time": 46.3590909,
                "end_time": 46.4477273,
                "pitch": 29,
                "velocity": 101,
                "duration": 0.0886364,
                "tempo": 120.0
            },
            {
                "start_time": 46.5318182,
                "end_time": 46.6136364,
                "pitch": 29,
                "velocity": 101,
                "duration": 0.0818182,
                "tempo": 120.0
            },
            {
                "start_time": 46.7,
                "end_time": 46.7818182,
                "pitch": 29,
                "velocity": 101,
                "duration": 0.0818182,
                "tempo": 120.0
            },
            {
                "start_time": 46.8772727,
                "end_time": 46.9522727,
                "pitch": 29,
                "velocity": 101,
                "duration": 0.075,
                "tempo": 120.0
            },
            {
                "start_time": 47.0431818,
                "end_time": 47.1272727,
                "pitch": 29,
                "velocity": 101,
                "duration": 0.0840909,
                "tempo": 120.0
            },
            {
                "start_time": 47.2136364,
                "end_time": 47.2977273,
                "pitch": 36,
                "velocity": 101,
                "duration": 0.0840909,
                "tempo": 120.0
            },
            {
                "start_time": 47.3840909,
                "end_time": 47.5522727,
                "pitch": 41,
                "velocity": 101,
                "duration": 0.1681818,
                "tempo": 120.0
            },
            {
                "start_time": 47.7181818,
                "end_time": 47.7977273,
                "pitch": 41,
                "velocity": 101,
                "duration": 0.0795455,
                "tempo": 120.0
            },
            {
                "start_time": 47.8840909,
                "end_time": 47.9681818,
                "pitch": 41,
                "velocity": 101,
                "duration": 0.0840909,
                "tempo": 120.0
            },
            {
                "start_time": 48.0545455,
                "end_time": 48.1340909,
                "pitch": 41,
                "velocity": 101,
                "duration": 0.0795455,
                "tempo": 120.0
            },
            {
                "start_time": 48.225,
                "end_time": 48.3068182,
                "pitch": 41,
                "velocity": 101,
                "duration": 0.0818182,
                "tempo": 120.0
            },
            {
                "start_time": 48.3931818,
                "end_time": 48.475,
                "pitch": 41,
                "velocity": 101,
                "duration": 0.0818182,
                "tempo": 120.0
            },
            {
                "start_time": 48.5636364,
                "end_time": 48.6477273,
                "pitch": 36,
                "velocity": 101,
                "duration": 0.0840909,
                "tempo": 120.0
            },
            {
                "start_time": 48.7318182,
                "end_time": 48.8136364,
                "pitch": 29,
                "velocity": 101,
                "duration": 0.0818182,
                "tempo": 120.0
            },
            {
                "start_time": 48.9045455,
                "end_time": 48.9840909,
                "pitch": 28,
                "velocity": 101,
                "duration": 0.0795455,
                "tempo": 120.0
            },
            {
                "start_time": 49.075,
                "end_time": 49.1568182,
                "pitch": 28,
                "velocity": 101,
                "duration": 0.0818182,
                "tempo": 120.0
            },
            {
                "start_time": 49.2522727,
                "end_time": 49.3318182,
                "pitch": 35,
                "velocity": 101,
                "duration": 0.0795455,
                "tempo": 120.0
            },
            {
                "start_time": 49.4181818,
                "end_time": 49.5022727,
                "pitch": 40,
                "velocity": 101,
                "duration": 0.0840909,
                "tempo": 120.0
            },
            {
                "start_time": 49.5954545,
                "end_time": 49.6727273,
                "pitch": 28,
                "velocity": 101,
                "duration": 0.0772727,
                "tempo": 120.0
            },
            {
                "start_time": 49.7590909,
                "end_time": 49.8386364,
                "pitch": 28,
                "velocity": 101,
                "duration": 0.0795455,
                "tempo": 120.0
            },
            {
                "start_time": 49.9318182,
                "end_time": 50.0090909,
                "pitch": 35,
                "velocity": 101,
                "duration": 0.0772727,
                "tempo": 120.0
            },
            {
                "start_time": 50.0954545,
                "end_time": 50.1772727,
                "pitch": 40,
                "velocity": 101,
                "duration": 0.0818182,
                "tempo": 120.0
            },
            {
                "start_time": 50.2659091,
                "end_time": 50.3431818,
                "pitch": 33,
                "velocity": 101,
                "duration": 0.0772727,
                "tempo": 120.0
            },
            {
                "start_time": 50.4295455,
                "end_time": 50.5090909,
                "pitch": 33,
                "velocity": 101,
                "duration": 0.0795455,
                "tempo": 120.0
            },
            {
                "start_time": 50.6022727,
                "end_time": 50.6818182,
                "pitch": 40,
                "velocity": 101,
                "duration": 0.0795455,
                "tempo": 120.0
            },
            {
                "start_time": 50.7704545,
                "end_time": 50.8545455,
                "pitch": 45,
                "velocity": 101,
                "duration": 0.0840909,
                "tempo": 120.0
            },
            {
                "start_time": 50.9454545,
                "end_time": 51.025,
                "pitch": 33,
                "velocity": 101,
                "duration": 0.0795455,
                "tempo": 120.0
            },
            {
                "start_time": 51.1090909,
                "end_time": 51.1886364,
                "pitch": 33,
                "velocity": 101,
                "duration": 0.0795455,
                "tempo": 120.0
            },
            {
                "start_time": 51.2818182,
                "end_time": 51.3613636,
                "pitch": 40,
                "velocity": 101,
                "duration": 0.0795455,
                "tempo": 120.0
            },
            {
                "start_time": 51.45,
                "end_time": 51.5340909,
                "pitch": 45,
                "velocity": 101,
                "duration": 0.0840909,
                "tempo": 120.0
            },
            {
                "start_time": 51.6295455,
                "end_time": 51.7045455,
                "pitch": 34,
                "velocity": 101,
                "duration": 0.075,
                "tempo": 120.0
            },
            {
                "start_time": 51.7886364,
                "end_time": 51.8727273,
                "pitch": 34,
                "velocity": 101,
                "duration": 0.0840909,
                "tempo": 120.0
            },
            {
                "start_time": 51.9568182,
                "end_time": 52.0363636,
                "pitch": 41,
                "velocity": 101,
                "duration": 0.0795455,
                "tempo": 120.0
            },
            {
                "start_time": 52.125,
                "end_time": 52.2068182,
                "pitch": 46,
                "velocity": 101,
                "duration": 0.0818182,
                "tempo": 120.0
            },
            {
                "start_time": 52.2909091,
                "end_time": 52.375,
                "pitch": 34,
                "velocity": 101,
                "duration": 0.0840909,
                "tempo": 120.0
            },
            {
                "start_time": 52.4636364,
                "end_time": 52.5409091,
                "pitch": 34,
                "velocity": 101,
                "duration": 0.0772727,
                "tempo": 120.0
            },
            {
                "start_time": 52.6318182,
                "end_time": 52.7136364,
                "pitch": 41,
                "velocity": 101,
                "duration": 0.0818182,
                "tempo": 120.0
            },
            {
                "start_time": 52.8045455,
                "end_time": 52.8840909,
                "pitch": 46,
                "velocity": 101,
                "duration": 0.0795455,
                "tempo": 120.0
            },
            {
                "start_time": 52.9727273,
                "end_time": 53.0568182,
                "pitch": 31,
                "velocity": 101,
                "duration": 0.0840909,
                "tempo": 120.0
            },
            {
                "start_time": 53.1386364,
                "end_time": 53.2204545,
                "pitch": 31,
                "velocity": 101,
                "duration": 0.0818182,
                "tempo": 120.0
            },
            {
                "start_time": 53.3113636,
                "end_time": 53.3909091,
                "pitch": 43,
                "velocity": 101,
                "duration": 0.0795455,
                "tempo": 120.0
            },
            {
                "start_time": 53.4795455,
                "end_time": 53.5636364,
                "pitch": 31,
                "velocity": 101,
                "duration": 0.0840909,
                "tempo": 120.0
            },
            {
                "start_time": 53.6568182,
                "end_time": 53.7318182,
                "pitch": 31,
                "velocity": 101,
                "duration": 0.075,
                "tempo": 120.0
            },
            {
                "start_time": 53.8181818,
                "end_time": 53.9,
                "pitch": 31,
                "velocity": 101,
                "duration": 0.0818182,
                "tempo": 120.0
            },
            {
                "start_time": 53.9909091,
                "end_time": 54.0681818,
                "pitch": 33,
                "velocity": 101,
                "duration": 0.0772727,
                "tempo": 120.0
            },
            {
                "start_time": 54.1545455,
                "end_time": 54.2363636,
                "pitch": 35,
                "velocity": 101,
                "duration": 0.0818182,
                "tempo": 120.0
            },
            {
                "start_time": 54.3318182,
                "end_time": 54.4068182,
                "pitch": 36,
                "velocity": 101,
                "duration": 0.075,
                "tempo": 120.0
            },
            {
                "start_time": 54.4931818,
                "end_time": 54.5818182,
                "pitch": 36,
                "velocity": 101,
                "duration": 0.0886364,
                "tempo": 120.0
            },
            {
                "start_time": 54.6659091,
                "end_time": 54.7477273,
                "pitch": 36,
                "velocity": 101,
                "duration": 0.0818182,
                "tempo": 120.0
            },
            {
                "start_time": 54.8340909,
                "end_time": 54.9159091,
                "pitch": 36,
                "velocity": 101,
                "duration": 0.0818182,
                "tempo": 120.0
            },
            {
                "start_time": 55.0045455,
                "end_time": 55.0840909,
                "pitch": 36,
                "velocity": 101,
                "duration": 0.0795455,
                "tempo": 120.0
            },
            {
                "start_time": 55.1727273,
                "end_time": 55.2545455,
                "pitch": 36,
                "velocity": 101,
                "duration": 0.0818182,
                "tempo": 120.0
            },
            {
                "start_time": 55.3386364,
                "end_time": 55.425,
                "pitch": 36,
                "velocity": 101,
                "duration": 0.0863636,
                "tempo": 120.0
            },
            {
                "start_time": 55.5136364,
                "end_time": 55.5954545,
                "pitch": 36,
                "velocity": 101,
                "duration": 0.0818182,
                "tempo": 120.0
            },
            {
                "start_time": 55.6886364,
                "end_time": 55.7659091,
                "pitch": 35,
                "velocity": 101,
                "duration": 0.0772727,
                "tempo": 120.0
            },
            {
                "start_time": 55.85,
                "end_time": 55.9318182,
                "pitch": 35,
                "velocity": 101,
                "duration": 0.0818182,
                "tempo": 120.0
            },
            {
                "start_time": 56.0181818,
                "end_time": 56.1,
                "pitch": 35,
                "velocity": 101,
                "duration": 0.0818182,
                "tempo": 120.0
            },
            {
                "start_time": 56.1840909,
                "end_time": 56.2659091,
                "pitch": 35,
                "velocity": 101,
                "duration": 0.0818182,
                "tempo": 120.0
            },
            {
                "start_time": 56.3545455,
                "end_time": 56.4363636,
                "pitch": 35,
                "velocity": 101,
                "duration": 0.0818182,
                "tempo": 120.0
            },
            {
                "start_time": 56.5272727,
                "end_time": 56.6113636,
                "pitch": 35,
                "velocity": 101,
                "duration": 0.0840909,
                "tempo": 120.0
            },
            {
                "start_time": 56.7,
                "end_time": 56.7818182,
                "pitch": 35,
                "velocity": 101,
                "duration": 0.0818182,
                "tempo": 120.0
            },
            {
                "start_time": 56.8681818,
                "end_time": 56.95,
                "pitch": 35,
                "velocity": 101,
                "duration": 0.0818182,
                "tempo": 120.0
            },
            {
                "start_time": 57.0386364,
                "end_time": 57.1204545,
                "pitch": 34,
                "velocity": 101,
                "duration": 0.0818182,
                "tempo": 120.0
            },
            {
                "start_time": 57.2045455,
                "end_time": 57.2886364,
                "pitch": 34,
                "velocity": 101,
                "duration": 0.0840909,
                "tempo": 120.0
            },
            {
                "start_time": 57.3772727,
                "end_time": 57.4590909,
                "pitch": 34,
                "velocity": 101,
                "duration": 0.0818182,
                "tempo": 120.0
            },
            {
                "start_time": 57.5454545,
                "end_time": 57.6272727,
                "pitch": 34,
                "velocity": 101,
                "duration": 0.0818182,
                "tempo": 120.0
            },
            {
                "start_time": 57.7159091,
                "end_time": 57.7954545,
                "pitch": 34,
                "velocity": 101,
                "duration": 0.0795455,
                "tempo": 120.0
            },
            {
                "start_time": 57.8840909,
                "end_time": 57.9659091,
                "pitch": 34,
                "velocity": 101,
                "duration": 0.0818182,
                "tempo": 120.0
            },
            {
                "start_time": 58.05,
                "end_time": 58.1340909,
                "pitch": 34,
                "velocity": 101,
                "duration": 0.0840909,
                "tempo": 120.0
            },
            {
                "start_time": 58.2227273,
                "end_time": 58.3068182,
                "pitch": 34,
                "velocity": 101,
                "duration": 0.0840909,
                "tempo": 120.0
            },
            {
                "start_time": 58.4,
                "end_time": 58.4772727,
                "pitch": 33,
                "velocity": 101,
                "duration": 0.0772727,
                "tempo": 120.0
            },
            {
                "start_time": 58.5613636,
                "end_time": 58.6431818,
                "pitch": 33,
                "velocity": 101,
                "duration": 0.0818182,
                "tempo": 120.0
            },
            {
                "start_time": 58.7272727,
                "end_time": 58.8113636,
                "pitch": 33,
                "velocity": 101,
                "duration": 0.0840909,
                "tempo": 120.0
            },
            {
                "start_time": 58.8954545,
                "end_time": 58.9772727,
                "pitch": 33,
                "velocity": 101,
                "duration": 0.0818182,
                "tempo": 120.0
            },
            {
                "start_time": 59.0636364,
                "end_time": 59.1454545,
                "pitch": 33,
                "velocity": 101,
                "duration": 0.0818182,
                "tempo": 120.0
            },
            {
                "start_time": 59.2340909,
                "end_time": 59.3136364,
                "pitch": 33,
                "velocity": 101,
                "duration": 0.0795455,
                "tempo": 120.0
            },
            {
                "start_time": 59.4022727,
                "end_time": 59.4863636,
                "pitch": 33,
                "velocity": 101,
                "duration": 0.0840909,
                "tempo": 120.0
            },
            {
                "start_time": 59.575,
                "end_time": 59.6590909,
                "pitch": 33,
                "velocity": 101,
                "duration": 0.0840909,
                "tempo": 120.0
            },
            {
                "start_time": 59.75,
                "end_time": 59.8318182,
                "pitch": 32,
                "velocity": 101,
                "duration": 0.0818182,
                "tempo": 120.0
            },
            {
                "start_time": 59.9159091,
                "end_time": 60.0,
                "pitch": 32,
                "velocity": 101,
                "duration": 0.0840909,
                "tempo": 120.0
            },
            {
                "start_time": 60.0909091,
                "end_time": 60.1704545,
                "pitch": 32,
                "velocity": 101,
                "duration": 0.0795455,
                "tempo": 120.0
            },
            {
                "start_time": 60.2568182,
                "end_time": 60.3386364,
                "pitch": 32,
                "velocity": 101,
                "duration": 0.0818182,
                "tempo": 120.0
            },
            {
                "start_time": 60.4295455,
                "end_time": 60.5068182,
                "pitch": 32,
                "velocity": 101,
                "duration": 0.0772727,
                "tempo": 120.0
            },
            {
                "start_time": 60.5954545,
                "end_time": 60.6772727,
                "pitch": 32,
                "velocity": 101,
                "duration": 0.0818182,
                "tempo": 120.0
            },
            {
                "start_time": 60.7659091,
                "end_time": 60.8454545,
                "pitch": 32,
                "velocity": 101,
                "duration": 0.0795455,
                "tempo": 120.0
            },
            {
                "start_time": 60.9340909,
                "end_time": 61.0181818,
                "pitch": 32,
                "velocity": 101,
                "duration": 0.0840909,
                "tempo": 120.0
            },
            {
                "start_time": 61.1113636,
                "end_time": 61.1886364,
                "pitch": 31,
                "velocity": 101,
                "duration": 0.0772727,
                "tempo": 120.0
            },
            {
                "start_time": 61.275,
                "end_time": 61.3545455,
                "pitch": 31,
                "velocity": 101,
                "duration": 0.0795455,
                "tempo": 120.0
            },
            {
                "start_time": 61.4409091,
                "end_time": 61.525,
                "pitch": 31,
                "velocity": 101,
                "duration": 0.0840909,
                "tempo": 120.0
            },
            {
                "start_time": 61.6113636,
                "end_time": 61.6909091,
                "pitch": 31,
                "velocity": 101,
                "duration": 0.0795455,
                "tempo": 120.0
            },
            {
                "start_time": 61.7818182,
                "end_time": 61.8613636,
                "pitch": 31,
                "velocity": 101,
                "duration": 0.0795455,
                "tempo": 120.0
            },
            {
                "start_time": 61.95,
                "end_time": 62.0318182,
                "pitch": 31,
                "velocity": 101,
                "duration": 0.0818182,
                "tempo": 120.0
            },
            {
                "start_time": 62.1204545,
                "end_time": 62.2045455,
                "pitch": 31,
                "velocity": 101,
                "duration": 0.0840909,
                "tempo": 120.0
            },
            {
                "start_time": 62.2886364,
                "end_time": 62.3704545,
                "pitch": 31,
                "velocity": 101,
                "duration": 0.0818182,
                "tempo": 120.0
            },
            {
                "start_time": 62.4636364,
                "end_time": 62.5363636,
                "pitch": 30,
                "velocity": 101,
                "duration": 0.0727273,
                "tempo": 120.0
            },
            {
                "start_time": 62.625,
                "end_time": 62.7068182,
                "pitch": 30,
                "velocity": 101,
                "duration": 0.0818182,
                "tempo": 120.0
            },
            {
                "start_time": 62.7954545,
                "end_time": 62.8772727,
                "pitch": 30,
                "velocity": 101,
                "duration": 0.0818182,
                "tempo": 120.0
            },
            {
                "start_time": 62.9659091,
                "end_time": 63.0477273,
                "pitch": 30,
                "velocity": 101,
                "duration": 0.0818182,
                "tempo": 120.0
            },
            {
                "start_time": 63.1409091,
                "end_time": 63.2204545,
                "pitch": 30,
                "velocity": 101,
                "duration": 0.0795455,
                "tempo": 120.0
            },
            {
                "start_time": 63.3068182,
                "end_time": 63.3863636,
                "pitch": 33,
                "velocity": 101,
                "duration": 0.0795455,
                "tempo": 120.0
            },
            {
                "start_time": 63.4772727,
                "end_time": 63.5590909,
                "pitch": 38,
                "velocity": 101,
                "duration": 0.0818182,
                "tempo": 120.0
            },
            {
                "start_time": 63.6568182,
                "end_time": 63.7340909,
                "pitch": 31,
                "velocity": 101,
                "duration": 0.0772727,
                "tempo": 120.0
            },
            {
                "start_time": 63.8227273,
                "end_time": 63.9886364,
                "pitch": 31,
                "velocity": 4,
                "duration": 0.1659091,
                "tempo": 120.0
            },
            {
                "start_time": 63.9886364,
                "end_time": 64.0590909,
                "pitch": 31,
                "velocity": 101,
                "duration": 0.0704545,
                "tempo": 120.0
            },
            {
                "start_time": 64.1386364,
                "end_time": 64.3181818,
                "pitch": 31,
                "velocity": 4,
                "duration": 0.1795455,
                "tempo": 120.0
            },
            {
                "start_time": 64.3204545,
                "end_time": 64.3954545,
                "pitch": 31,
                "velocity": 101,
                "duration": 0.075,
                "tempo": 120.0
            },
            {
                "start_time": 64.4818182,
                "end_time": 64.6590909,
                "pitch": 31,
                "velocity": 4,
                "duration": 0.1772727,
                "tempo": 120.0
            },
            {
                "start_time": 64.6590909,
                "end_time": 64.7340909,
                "pitch": 31,
                "velocity": 101,
                "duration": 0.075,
                "tempo": 120.0
            },
            {
                "start_time": 64.825,
                "end_time": 64.9090909,
                "pitch": 33,
                "velocity": 101,
                "duration": 0.0840909,
                "tempo": 120.0
            },
            {
                "start_time": 65.0,
                "end_time": 65.0818182,
                "pitch": 35,
                "velocity": 101,
                "duration": 0.0818182,
                "tempo": 120.0
            },
            {
                "start_time": 65.1818182,
                "end_time": 65.2545455,
                "pitch": 36,
                "velocity": 101,
                "duration": 0.0727273,
                "tempo": 120.0
            },
            {
                "start_time": 65.3409091,
                "end_time": 65.425,
                "pitch": 36,
                "velocity": 101,
                "duration": 0.0840909,
                "tempo": 120.0
            },
            {
                "start_time": 65.5090909,
                "end_time": 65.5909091,
                "pitch": 36,
                "velocity": 101,
                "duration": 0.0818182,
                "tempo": 120.0
            },
            {
                "start_time": 65.6772727,
                "end_time": 65.7590909,
                "pitch": 36,
                "velocity": 101,
                "duration": 0.0818182,
                "tempo": 120.0
            },
            {
                "start_time": 65.8477273,
                "end_time": 65.9272727,
                "pitch": 36,
                "velocity": 101,
                "duration": 0.0795455,
                "tempo": 120.0
            },
            {
                "start_time": 66.0136364,
                "end_time": 66.0954545,
                "pitch": 36,
                "velocity": 101,
                "duration": 0.0818182,
                "tempo": 120.0
            },
            {
                "start_time": 66.1818182,
                "end_time": 66.2659091,
                "pitch": 36,
                "velocity": 101,
                "duration": 0.0840909,
                "tempo": 120.0
            },
            {
                "start_time": 66.3545455,
                "end_time": 66.4386364,
                "pitch": 36,
                "velocity": 101,
                "duration": 0.0840909,
                "tempo": 120.0
            },
            {
                "start_time": 66.5318182,
                "end_time": 66.6090909,
                "pitch": 35,
                "velocity": 101,
                "duration": 0.0772727,
                "tempo": 120.0
            },
            {
                "start_time": 66.6931818,
                "end_time": 66.775,
                "pitch": 35,
                "velocity": 101,
                "duration": 0.0818182,
                "tempo": 120.0
            },
            {
                "start_time": 66.8590909,
                "end_time": 66.9409091,
                "pitch": 35,
                "velocity": 101,
                "duration": 0.0818182,
                "tempo": 120.0
            },
            {
                "start_time": 67.0272727,
                "end_time": 67.1090909,
                "pitch": 35,
                "velocity": 101,
                "duration": 0.0818182,
                "tempo": 120.0
            },
            {
                "start_time": 67.1977273,
                "end_time": 67.2795455,
                "pitch": 35,
                "velocity": 101,
                "duration": 0.0818182,
                "tempo": 120.0
            },
            {
                "start_time": 67.3704545,
                "end_time": 67.4545455,
                "pitch": 35,
                "velocity": 101,
                "duration": 0.0840909,
                "tempo": 120.0
            },
            {
                "start_time": 67.5431818,
                "end_time": 67.625,
                "pitch": 35,
                "velocity": 101,
                "duration": 0.0818182,
                "tempo": 120.0
            },
            {
                "start_time": 67.7113636,
                "end_time": 67.7931818,
                "pitch": 35,
                "velocity": 101,
                "duration": 0.0818182,
                "tempo": 120.0
            },
            {
                "start_time": 67.8818182,
                "end_time": 67.9613636,
                "pitch": 34,
                "velocity": 101,
                "duration": 0.0795455,
                "tempo": 120.0
            },
            {
                "start_time": 68.0477273,
                "end_time": 68.1318182,
                "pitch": 34,
                "velocity": 101,
                "duration": 0.0840909,
                "tempo": 120.0
            },
            {
                "start_time": 68.2204545,
                "end_time": 68.3022727,
                "pitch": 34,
                "velocity": 101,
                "duration": 0.0818182,
                "tempo": 120.0
            },
            {
                "start_time": 68.3886364,
                "end_time": 68.4704545,
                "pitch": 34,
                "velocity": 101,
                "duration": 0.0818182,
                "tempo": 120.0
            },
            {
                "start_time": 68.5590909,
                "end_time": 68.6363636,
                "pitch": 34,
                "velocity": 101,
                "duration": 0.0772727,
                "tempo": 120.0
            },
            {
                "start_time": 68.725,
                "end_time": 68.8068182,
                "pitch": 34,
                "velocity": 101,
                "duration": 0.0818182,
                "tempo": 120.0
            },
            {
                "start_time": 68.8931818,
                "end_time": 68.9772727,
                "pitch": 34,
                "velocity": 101,
                "duration": 0.0840909,
                "tempo": 120.0
            },
            {
                "start_time": 69.0659091,
                "end_time": 69.15,
                "pitch": 34,
                "velocity": 101,
                "duration": 0.0840909,
                "tempo": 120.0
            },
            {
                "start_time": 69.2409091,
                "end_time": 69.3227273,
                "pitch": 33,
                "velocity": 101,
                "duration": 0.0818182,
                "tempo": 120.0
            },
            {
                "start_time": 69.4090909,
                "end_time": 69.4931818,
                "pitch": 33,
                "velocity": 101,
                "duration": 0.0840909,
                "tempo": 120.0
            },
            {
                "start_time": 69.5795455,
                "end_time": 69.6590909,
                "pitch": 33,
                "velocity": 101,
                "duration": 0.0795455,
                "tempo": 120.0
            },
            {
                "start_time": 69.7431818,
                "end_time": 69.8227273,
                "pitch": 33,
                "velocity": 101,
                "duration": 0.0795455,
                "tempo": 120.0
            },
            {
                "start_time": 69.9068182,
                "end_time": 69.9886364,
                "pitch": 33,
                "velocity": 101,
                "duration": 0.0818182,
                "tempo": 120.0
            },
            {
                "start_time": 70.0795455,
                "end_time": 70.1613636,
                "pitch": 33,
                "velocity": 101,
                "duration": 0.0818182,
                "tempo": 120.0
            },
            {
                "start_time": 70.2522727,
                "end_time": 70.3340909,
                "pitch": 33,
                "velocity": 101,
                "duration": 0.0818182,
                "tempo": 120.0
            },
            {
                "start_time": 70.4204545,
                "end_time": 70.5022727,
                "pitch": 33,
                "velocity": 101,
                "duration": 0.0818182,
                "tempo": 120.0
            },
            {
                "start_time": 70.5931818,
                "end_time": 70.6727273,
                "pitch": 32,
                "velocity": 101,
                "duration": 0.0795455,
                "tempo": 120.0
            },
            {
                "start_time": 70.7568182,
                "end_time": 70.8454545,
                "pitch": 32,
                "velocity": 101,
                "duration": 0.0886364,
                "tempo": 120.0
            },
            {
                "start_time": 70.9295455,
                "end_time": 71.0113636,
                "pitch": 32,
                "velocity": 101,
                "duration": 0.0818182,
                "tempo": 120.0
            },
            {
                "start_time": 71.0977273,
                "end_time": 71.1795455,
                "pitch": 32,
                "velocity": 101,
                "duration": 0.0818182,
                "tempo": 120.0
            },
            {
                "start_time": 71.2681818,
                "end_time": 71.3477273,
                "pitch": 32,
                "velocity": 101,
                "duration": 0.0795455,
                "tempo": 120.0
            },
            {
                "start_time": 71.4363636,
                "end_time": 71.5181818,
                "pitch": 32,
                "velocity": 101,
                "duration": 0.0818182,
                "tempo": 120.0
            },
            {
                "start_time": 71.6022727,
                "end_time": 71.6863636,
                "pitch": 32,
                "velocity": 101,
                "duration": 0.0840909,
                "tempo": 120.0
            },
            {
                "start_time": 71.775,
                "end_time": 71.8590909,
                "pitch": 32,
                "velocity": 101,
                "duration": 0.0840909,
                "tempo": 120.0
            },
            {
                "start_time": 71.9522727,
                "end_time": 72.0318182,
                "pitch": 37,
                "velocity": 101,
                "duration": 0.0795455,
                "tempo": 120.0
            },
            {
                "start_time": 72.1181818,
                "end_time": 72.2022727,
                "pitch": 37,
                "velocity": 101,
                "duration": 0.0840909,
                "tempo": 120.0
            },
            {
                "start_time": 72.2909091,
                "end_time": 72.3681818,
                "pitch": 37,
                "velocity": 101,
                "duration": 0.0772727,
                "tempo": 120.0
            },
            {
                "start_time": 72.4522727,
                "end_time": 72.5318182,
                "pitch": 37,
                "velocity": 101,
                "duration": 0.0795455,
                "tempo": 120.0
            },
            {
                "start_time": 72.6204545,
                "end_time": 72.6977273,
                "pitch": 37,
                "velocity": 101,
                "duration": 0.0772727,
                "tempo": 120.0
            },
            {
                "start_time": 72.7886364,
                "end_time": 72.8704545,
                "pitch": 41,
                "velocity": 101,
                "duration": 0.0818182,
                "tempo": 120.0
            },
            {
                "start_time": 72.9613636,
                "end_time": 73.0454545,
                "pitch": 43,
                "velocity": 101,
                "duration": 0.0840909,
                "tempo": 120.0
            },
            {
                "start_time": 73.1340909,
                "end_time": 73.2181818,
                "pitch": 44,
                "velocity": 101,
                "duration": 0.0840909,
                "tempo": 120.0
            },
            {
                "start_time": 73.3136364,
                "end_time": 73.3886364,
                "pitch": 36,
                "velocity": 101,
                "duration": 0.075,
                "tempo": 120.0
            },
            {
                "start_time": 73.475,
                "end_time": 73.5568182,
                "pitch": 36,
                "velocity": 101,
                "duration": 0.0818182,
                "tempo": 120.0
            },
            {
                "start_time": 73.6409091,
                "end_time": 73.725,
                "pitch": 36,
                "velocity": 101,
                "duration": 0.0840909,
                "tempo": 120.0
            },
            {
                "start_time": 73.8090909,
                "end_time": 73.8886364,
                "pitch": 36,
                "velocity": 101,
                "duration": 0.0795455,
                "tempo": 120.0
            },
            {
                "start_time": 73.9772727,
                "end_time": 74.0613636,
                "pitch": 36,
                "velocity": 101,
                "duration": 0.0840909,
                "tempo": 120.0
            },
            {
                "start_time": 74.1477273,
                "end_time": 74.2340909,
                "pitch": 41,
                "velocity": 101,
                "duration": 0.0863636,
                "tempo": 120.0
            },
            {
                "start_time": 74.3272727,
                "end_time": 74.4068182,
                "pitch": 43,
                "velocity": 101,
                "duration": 0.0795455,
                "tempo": 120.0
            },
            {
                "start_time": 74.4954545,
                "end_time": 74.6590909,
                "pitch": 48,
                "velocity": 101,
                "duration": 0.1636364,
                "tempo": 120.0
            },
            {
                "start_time": 74.825,
                "end_time": 74.9045455,
                "pitch": 48,
                "velocity": 101,
                "duration": 0.0795455,
                "tempo": 120.0
            },
            {
                "start_time": 75.0,
                "end_time": 75.0795455,
                "pitch": 48,
                "velocity": 101,
                "duration": 0.0795455,
                "tempo": 120.0
            },
            {
                "start_time": 75.1681818,
                "end_time": 75.2568182,
                "pitch": 48,
                "velocity": 101,
                "duration": 0.0886364,
                "tempo": 120.0
            },
            {
                "start_time": 75.35,
                "end_time": 75.4272727,
                "pitch": 48,
                "velocity": 101,
                "duration": 0.0772727,
                "tempo": 120.0
            },
            {
                "start_time": 75.5136364,
                "end_time": 75.5954545,
                "pitch": 43,
                "velocity": 101,
                "duration": 0.0818182,
                "tempo": 120.0
            },
            {
                "start_time": 75.6863636,
                "end_time": 75.7636364,
                "pitch": 41,
                "velocity": 101,
                "duration": 0.0772727,
                "tempo": 120.0
            },
            {
                "start_time": 75.8477273,
                "end_time": 75.9295455,
                "pitch": 36,
                "velocity": 101,
                "duration": 0.0818182,
                "tempo": 120.0
            },
            {
                "start_time": 76.0227273,
                "end_time": 76.0977273,
                "pitch": 31,
                "velocity": 101,
                "duration": 0.075,
                "tempo": 120.0
            },
            {
                "start_time": 76.1840909,
                "end_time": 76.2659091,
                "pitch": 31,
                "velocity": 101,
                "duration": 0.0818182,
                "tempo": 120.0
            },
            {
                "start_time": 76.3568182,
                "end_time": 76.4363636,
                "pitch": 31,
                "velocity": 101,
                "duration": 0.0795455,
                "tempo": 120.0
            },
            {
                "start_time": 76.5295455,
                "end_time": 76.6068182,
                "pitch": 43,
                "velocity": 101,
                "duration": 0.0772727,
                "tempo": 120.0
            },
            {
                "start_time": 76.6954545,
                "end_time": 76.7772727,
                "pitch": 31,
                "velocity": 101,
                "duration": 0.0818182,
                "tempo": 120.0
            },
            {
                "start_time": 76.8704545,
                "end_time": 76.9454545,
                "pitch": 31,
                "velocity": 101,
                "duration": 0.075,
                "tempo": 120.0
            },
            {
                "start_time": 77.0363636,
                "end_time": 77.1136364,
                "pitch": 43,
                "velocity": 101,
                "duration": 0.0772727,
                "tempo": 120.0
            },
            {
                "start_time": 77.2,
                "end_time": 77.2818182,
                "pitch": 31,
                "velocity": 101,
                "duration": 0.0818182,
                "tempo": 120.0
            },
            {
                "start_time": 77.3727273,
                "end_time": 77.45,
                "pitch": 31,
                "velocity": 101,
                "duration": 0.0772727,
                "tempo": 120.0
            },
            {
                "start_time": 77.5454545,
                "end_time": 77.6227273,
                "pitch": 43,
                "velocity": 101,
                "duration": 0.0772727,
                "tempo": 120.0
            },
            {
                "start_time": 77.7113636,
                "end_time": 77.7931818,
                "pitch": 31,
                "velocity": 101,
                "duration": 0.0818182,
                "tempo": 120.0
            },
            {
                "start_time": 77.8840909,
                "end_time": 77.9613636,
                "pitch": 31,
                "velocity": 101,
                "duration": 0.0772727,
                "tempo": 120.0
            },
            {
                "start_time": 78.0522727,
                "end_time": 78.1295455,
                "pitch": 43,
                "velocity": 101,
                "duration": 0.0772727,
                "tempo": 120.0
            },
            {
                "start_time": 78.2159091,
                "end_time": 78.2977273,
                "pitch": 31,
                "velocity": 101,
                "duration": 0.0818182,
                "tempo": 120.0
            },
            {
                "start_time": 78.3931818,
                "end_time": 78.4659091,
                "pitch": 43,
                "velocity": 101,
                "duration": 0.0727273,
                "tempo": 120.0
            },
            {
                "start_time": 78.5545455,
                "end_time": 78.6386364,
                "pitch": 31,
                "velocity": 101,
                "duration": 0.0840909,
                "tempo": 120.0
            },
            {
                "start_time": 78.7386364,
                "end_time": 78.8113636,
                "pitch": 31,
                "velocity": 101,
                "duration": 0.0727273,
                "tempo": 120.0
            },
            {
                "start_time": 78.9045455,
                "end_time": 78.9840909,
                "pitch": 31,
                "velocity": 101,
                "duration": 0.0795455,
                "tempo": 120.0
            },
            {
                "start_time": 79.0772727,
                "end_time": 79.1545455,
                "pitch": 31,
                "velocity": 101,
                "duration": 0.0772727,
                "tempo": 120.0
            },
            {
                "start_time": 79.25,
                "end_time": 79.3227273,
                "pitch": 43,
                "velocity": 101,
                "duration": 0.0727273,
                "tempo": 120.0
            },
            {
                "start_time": 79.4136364,
                "end_time": 79.4886364,
                "pitch": 31,
                "velocity": 101,
                "duration": 0.075,
                "tempo": 120.0
            },
            {
                "start_time": 79.5818182,
                "end_time": 79.6568182,
                "pitch": 31,
                "velocity": 101,
                "duration": 0.075,
                "tempo": 120.0
            },
            {
                "start_time": 79.7545455,
                "end_time": 79.8272727,
                "pitch": 43,
                "velocity": 101,
                "duration": 0.0727273,
                "tempo": 120.0
            },
            {
                "start_time": 79.9204545,
                "end_time": 80.0,
                "pitch": 31,
                "velocity": 101,
                "duration": 0.0795455,
                "tempo": 120.0
            },
            {
                "start_time": 80.0931818,
                "end_time": 80.1704545,
                "pitch": 31,
                "velocity": 101,
                "duration": 0.0772727,
                "tempo": 120.0
            },
            {
                "start_time": 80.2659091,
                "end_time": 80.3363636,
                "pitch": 43,
                "velocity": 101,
                "duration": 0.0704545,
                "tempo": 120.0
            },
            {
                "start_time": 80.4295455,
                "end_time": 80.5045455,
                "pitch": 31,
                "velocity": 101,
                "duration": 0.075,
                "tempo": 120.0
            },
            {
                "start_time": 80.5954545,
                "end_time": 80.6727273,
                "pitch": 31,
                "velocity": 101,
                "duration": 0.0772727,
                "tempo": 120.0
            },
            {
                "start_time": 80.7636364,
                "end_time": 80.8409091,
                "pitch": 31,
                "velocity": 101,
                "duration": 0.0772727,
                "tempo": 120.0
            },
            {
                "start_time": 80.9272727,
                "end_time": 81.0090909,
                "pitch": 43,
                "velocity": 101,
                "duration": 0.0818182,
                "tempo": 120.0
            },
            {
                "start_time": 81.0931818,
                "end_time": 81.175,
                "pitch": 41,
                "velocity": 101,
                "duration": 0.0818182,
                "tempo": 120.0
            },
            {
                "start_time": 81.2613636,
                "end_time": 81.3431818,
                "pitch": 38,
                "velocity": 101,
                "duration": 0.0818182,
                "tempo": 120.0
            },
            {
                "start_time": 81.4340909,
                "end_time": 81.5136364,
                "pitch": 31,
                "velocity": 101,
                "duration": 0.0795455,
                "tempo": 120.0
            },
            {
                "start_time": 81.6022727,
                "end_time": 81.6863636,
                "pitch": 31,
                "velocity": 101,
                "duration": 0.0840909,
                "tempo": 120.0
            },
            {
                "start_time": 81.7795455,
                "end_time": 81.8568182,
                "pitch": 31,
                "velocity": 101,
                "duration": 0.0772727,
                "tempo": 120.0
            },
            {
                "start_time": 81.9477273,
                "end_time": 82.0227273,
                "pitch": 43,
                "velocity": 101,
                "duration": 0.075,
                "tempo": 120.0
            },
            {
                "start_time": 82.1090909,
                "end_time": 82.1931818,
                "pitch": 31,
                "velocity": 101,
                "duration": 0.0840909,
                "tempo": 120.0
            },
            {
                "start_time": 82.2886364,
                "end_time": 82.3659091,
                "pitch": 31,
                "velocity": 101,
                "duration": 0.0772727,
                "tempo": 120.0
            },
            {
                "start_time": 82.4590909,
                "end_time": 82.5363636,
                "pitch": 43,
                "velocity": 101,
                "duration": 0.0772727,
                "tempo": 120.0
            },
            {
                "start_time": 82.6227273,
                "end_time": 82.7045455,
                "pitch": 31,
                "velocity": 101,
                "duration": 0.0818182,
                "tempo": 120.0
            },
            {
                "start_time": 82.7954545,
                "end_time": 82.8727273,
                "pitch": 31,
                "velocity": 101,
                "duration": 0.0772727,
                "tempo": 120.0
            },
            {
                "start_time": 82.9681818,
                "end_time": 83.0454545,
                "pitch": 43,
                "velocity": 101,
                "duration": 0.0772727,
                "tempo": 120.0
            },
            {
                "start_time": 83.1340909,
                "end_time": 83.2159091,
                "pitch": 31,
                "velocity": 101,
                "duration": 0.0818182,
                "tempo": 120.0
            },
            {
                "start_time": 83.3068182,
                "end_time": 83.3840909,
                "pitch": 31,
                "velocity": 101,
                "duration": 0.0772727,
                "tempo": 120.0
            },
            {
                "start_time": 83.475,
                "end_time": 83.5522727,
                "pitch": 43,
                "velocity": 101,
                "duration": 0.0772727,
                "tempo": 120.0
            },
            {
                "start_time": 83.6386364,
                "end_time": 83.7181818,
                "pitch": 31,
                "velocity": 101,
                "duration": 0.0795455,
                "tempo": 120.0
            },
            {
                "start_time": 83.8159091,
                "end_time": 83.8886364,
                "pitch": 43,
                "velocity": 101,
                "duration": 0.0727273,
                "tempo": 120.0
            },
            {
                "start_time": 83.9772727,
                "end_time": 84.0613636,
                "pitch": 31,
                "velocity": 101,
                "duration": 0.0840909,
                "tempo": 120.0
            },
            {
                "start_time": 84.1613636,
                "end_time": 84.2340909,
                "pitch": 31,
                "velocity": 101,
                "duration": 0.0727273,
                "tempo": 120.0
            },
            {
                "start_time": 84.3272727,
                "end_time": 84.4068182,
                "pitch": 31,
                "velocity": 101,
                "duration": 0.0795455,
                "tempo": 120.0
            },
            {
                "start_time": 84.5,
                "end_time": 84.5772727,
                "pitch": 31,
                "velocity": 101,
                "duration": 0.0772727,
                "tempo": 120.0
            },
            {
                "start_time": 84.6727273,
                "end_time": 84.7454545,
                "pitch": 43,
                "velocity": 101,
                "duration": 0.0727273,
                "tempo": 120.0
            },
            {
                "start_time": 84.8363636,
                "end_time": 84.9136364,
                "pitch": 31,
                "velocity": 101,
                "duration": 0.0772727,
                "tempo": 120.0
            },
            {
                "start_time": 85.0045455,
                "end_time": 85.0795455,
                "pitch": 31,
                "velocity": 101,
                "duration": 0.075,
                "tempo": 120.0
            },
            {
                "start_time": 85.175,
                "end_time": 85.25,
                "pitch": 43,
                "velocity": 101,
                "duration": 0.075,
                "tempo": 120.0
            },
            {
                "start_time": 85.3431818,
                "end_time": 85.4227273,
                "pitch": 31,
                "velocity": 101,
                "duration": 0.0795455,
                "tempo": 120.0
            },
            {
                "start_time": 85.5159091,
                "end_time": 85.5931818,
                "pitch": 32,
                "velocity": 101,
                "duration": 0.0772727,
                "tempo": 120.0
            },
            {
                "start_time": 85.6886364,
                "end_time": 85.7590909,
                "pitch": 44,
                "velocity": 101,
                "duration": 0.0704545,
                "tempo": 120.0
            },
            {
                "start_time": 85.8477273,
                "end_time": 85.9272727,
                "pitch": 32,
                "velocity": 101,
                "duration": 0.0795455,
                "tempo": 120.0
            }
        ]
    }
}