{
    "mood": "happy",
    "instruments": {
        "Acoustic Guitar (nylon)": [
            {
                "start_time": 0.0113636,
                "end_time": 0.1090909,
                "pitch": 62,
                "velocity": 80,
                "duration": 0.0977273,
                "tempo": 120.0
            },
            {
                "start_time": 0.1090909,
                "end_time": 0.2113636,
                "pitch": 62,
                "velocity": 80,
                "duration": 0.1022727,
                "tempo": 120.0
            },
            {
                "start_time": 0.2113636,
                "end_time": 0.3613636,
                "pitch": 62,
                "velocity": 80,
                "duration": 0.15,
                "tempo": 120.0
            },
            {
                "start_time": 0.3636364,
                "end_time": 0.5136364,
                "pitch": 62,
                "velocity": 80,
                "duration": 0.15,
                "tempo": 120.0
            },
            {
                "start_time": 0.5159091,
                "end_time": 0.6659091,
                "pitch": 62,
                "velocity": 80,
                "duration": 0.15,
                "tempo": 120.0
            },
            {
                "start_time": 0.6659091,
                "end_time": 0.8181818,
                "pitch": 62,
                "velocity": 80,
                "duration": 0.1522727,
                "tempo": 120.0
            },
            {
                "start_time": 0.8181818,
                "end_time": 0.9681818,
                "pitch": 62,
                "velocity": 80,
                "duration": 0.15,
                "tempo": 120.0
            },
            {
                "start_time": 0.9704545,
                "end_time": 1.1227273,
                "pitch": 62,
                "velocity": 80,
                "duration": 0.1522727,
                "tempo": 120.0
            },
            {
                "start_time": 1.1227273,
                "end_time": 1.2727273,
                "pitch": 62,
                "velocity": 80,
                "duration": 0.15,
                "tempo": 120.0
            },
            {
                "start_time": 1.2727273,
                "end_time": 1.425,
                "pitch": 62,
                "velocity": 80,
                "duration": 0.1522727,
                "tempo": 120.0
            },
            {
                "start_time": 1.425,
                "end_time": 1.575,
                "pitch": 62,
                "velocity": 80,
                "duration": 0.15,
                "tempo": 120.0
            },
            {
                "start_time": 1.575,
                "end_time": 1.725,
                "pitch": 62,
                "velocity": 80,
                "duration": 0.15,
                "tempo": 120.0
            },
            {
                "start_time": 1.725,
                "end_time": 1.875,
                "pitch": 62,
                "velocity": 80,
                "duration": 0.15,
                "tempo": 120.0
            },
            {
                "start_time": 1.875,
                "end_time": 2.025,
                "pitch": 62,
                "velocity": 80,
                "duration": 0.15,
                "tempo": 120.0
            },
            {
                "start_time": 2.025,
                "end_time": 2.1772727,
                "pitch": 62,
                "velocity": 80,
                "duration": 0.1522727,
                "tempo": 120.0
            },
            {
                "start_time": 2.1795455,
                "end_time": 2.3318182,
                "pitch": 62,
                "velocity": 80,
                "duration": 0.1522727,
                "tempo": 120.0
            },
            {
                "start_time": 2.3340909,
                "end_time": 2.4840909,
                "pitch": 69,
                "velocity": 80,
                "duration": 0.15,
                "tempo": 120.0
            },
            {
                "start_time": 2.4863636,
                "end_time": 2.6386364,
                "pitch": 69,
                "velocity": 80,
                "duration": 0.1522727,
                "tempo": 120.0
            },
            {
                "start_time": 2.6386364,
                "end_time": 2.7909091,
                "pitch": 69,
                "velocity": 80,
                "duration": 0.1522727,
                "tempo": 120.0
            },
            {
                "start_time": 2.7909091,
                "end_time": 2.9409091,
                "pitch": 69,
                "velocity": 80,
                "duration": 0.15,
                "tempo": 120.0
            },
            {
                "start_time": 2.9431818,
                "end_time": 3.0931818,
                "pitch": 69,
                "velocity": 80,
                "duration": 0.15,
                "tempo": 120.0
            },
            {
                "start_time": 3.0931818,
                "end_time": 3.2454545,
                "pitch": 69,
                "velocity": 80,
                "duration": 0.1522727,
                "tempo": 120.0
            },
            {
                "start_time": 3.2454545,
                "end_time": 3.3954545,
                "pitch": 69,
                "velocity": 80,
                "duration": 0.15,
                "tempo": 120.0
            },
            {
                "start_time": 3.3954545,
                "end_time": 3.5454545,
                "pitch": 69,
                "velocity": 80,
                "duration": 0.15,
                "tempo": 120.0
            },
            {
                "start_time": 3.5477273,
                "end_time": 3.6954545,
                "pitch": 69,
                "velocity": 80,
                "duration": 0.1477273,
                "tempo": 120.0
            },
            {
                "start_time": 3.6954545,
                "end_time": 3.8454545,
                "pitch": 69,
                "velocity": 80,
                "duration": 0.15,
                "tempo": 120.0
            },
            {
                "start_time": 3.8454545,
                "end_time": 3.9977273,
                "pitch": 69,
                "velocity": 80,
                "duration": 0.1522727,
                "tempo": 120.0
            },
            {
                "start_time": 3.9977273,
                "end_time": 4.15,
                "pitch": 69,
                "velocity": 80,
                "duration": 0.1522727,
                "tempo": 120.0
            },
            {
                "start_time": 4.15,
                "end_time": 4.3,
                "pitch": 69,
                "velocity": 80,
                "duration": 0.15,
                "tempo": 120.0
            },
            {
                "start_time": 4.3022727,
                "end_time": 4.4522727,
                "pitch": 69,
                "velocity": 80,
                "duration": 0.15,
                "tempo": 120.0
            },
            {
                "start_time": 4.4545455,
                "end_time": 4.6022727,
                "pitch": 69,
                "velocity": 80,
                "duration": 0.1477273,
                "tempo": 120.0
            },
            {
                "start_time": 4.6022727,
                "end_time": 4.7522727,
                "pitch": 69,
                "velocity": 80,
                "duration": 0.15,
                "tempo": 120.0
            },
            {
                "start_time": 4.7545455,
                "end_time": 4.9022727,
                "pitch": 62,
                "velocity": 80,
                "duration": 0.1477273,
                "tempo": 120.0
            },
            {
                "start_time": 4.9022727,
                "end_time": 5.0545455,
                "pitch": 62,
                "velocity": 80,
                "duration": 0.1522727,
                "tempo": 120.0
            },
            {
                "start_time": 5.0545455,
                "end_time": 5.2045455,
                "pitch": 62,
                "velocity": 80,
                "duration": 0.15,
                "tempo": 120.0
            },
            {
                "start_time": 5.2068182,
                "end_time": 5.3568182,
                "pitch": 62,
                "velocity": 80,
                "duration": 0.15,
                "tempo": 120.0
            },
            {
                "start_time": 5.3590909,
                "end_time": 5.5090909,
                "pitch": 62,
                "velocity": 80,
                "duration": 0.15,
                "tempo": 120.0
            },
            {
                "start_time": 5.5090909,
                "end_time": 5.6590909,
                "pitch": 62,
                "velocity": 80,
                "duration": 0.15,
                "tempo": 120.0
            },
            {
                "start_time": 5.6613636,
                "end_time": 5.8090909,
                "pitch": 62,
                "velocity": 80,
                "duration": 0.1477273,
                "tempo": 120.0
            },
            {
                "start_time": 5.8113636,
                "end_time": 5.9613636,
                "pitch": 62,
                "velocity": 80,
                "duration": 0.15,
                "tempo": 120.0
            },
            {
                "start_time": 5.9636364,
                "end_time": 6.1113636,
                "pitch": 62,
                "velocity": 80,
                "duration": 0.1477273,
                "tempo": 120.0
            },
            {
                "start_time": 6.1113636,
                "end_time": 6.2613636,
                "pitch": 62,
                "velocity": 80,
                "duration": 0.15,
                "tempo": 120.0
            },
            {
                "start_time": 6.2613636,
                "end_time": 6.4136364,
                "pitch": 62,
                "velocity": 80,
                "duration": 0.1522727,
                "tempo": 120.0
            },
            {
                "start_time": 6.4136364,
                "end_time": 6.5659091,
                "pitch": 62,
                "velocity": 80,
                "duration": 0.1522727,
                "tempo": 120.0
            },
            {
                "start_time": 6.5659091,
                "end_time": 6.7159091,
                "pitch": 62,
                "velocity": 80,
                "duration": 0.15,
                "tempo": 120.0
            },
            {
                "start_time": 6.7181818,
                "end_time": 6.8681818,
                "pitch": 62,
                "velocity": 80,
                "duration": 0.15,
                "tempo": 120.0
            },
            {
                "start_time": 6.8681818,
                "end_time": 7.0181818,
                "pitch": 62,
                "velocity": 80,
                "duration": 0.15,
                "tempo": 120.0
            },
            {
                "start_time": 7.0181818,
                "end_time": 7.1681818,
                "pitch": 62,
                "velocity": 80,
                "duration": 0.15,
                "tempo": 120.0
            },
            {
                "start_time": 7.1704545,
                "end_time": 7.3181818,
                "pitch": 69,
                "velocity": 80,
                "duration": 0.1477273,
                "tempo": 120.0
            },
            {
                "start_time": 7.3181818,
                "end_time": 7.4681818,
                "pitch": 69,
                "velocity": 80,
                "duration": 0.15,
                "tempo": 120.0
            },
            {
                "start_time": 7.4681818,
                "end_time": 7.6181818,
                "pitch": 69,
                "velocity": 80,
                "duration": 0.15,
                "tempo": 120.0
            },
            {
                "start_time": 7.6204545,
                "end_time": 7.7681818,
                "pitch": 69,
                "velocity": 80,
                "duration": 0.1477273,
                "tempo": 120.0
            },
            {
                "start_time": 7.7704545,
                "end_time": 7.9181818,
                "pitch": 69,
                "velocity": 80,
                "duration": 0.1477273,
                "tempo": 120.0
            },
            {
                "start_time": 7.9204545,
                "end_time": 8.0704545,
                "pitch": 69,
                "velocity": 80,
                "duration": 0.15,
                "tempo": 120.0
            },
            {
                "start_time": 8.0704545,
                "end_time": 8.2181818,
                "pitch": 69,
                "velocity": 80,
                "duration": 0.1477273,
                "tempo": 120.0
            },
            {
                "start_time": 8.2181818,
                "end_time": 8.3681818,
                "pitch": 69,
                "velocity": 80,
                "duration": 0.15,
                "tempo": 120.0
            },
            {
                "start_time": 8.3704545,
                "end_time": 8.5204545,
                "pitch": 69,
                "velocity": 80,
                "duration": 0.15,
                "tempo": 120.0
            },
            {
                "start_time": 8.5204545,
                "end_time": 8.6704545,
                "pitch": 69,
                "velocity": 80,
                "duration": 0.15,
                "tempo": 120.0
            },
            {
                "start_time": 8.6704545,
                "end_time": 8.8227273,
                "pitch": 69,
                "velocity": 80,
                "duration": 0.1522727,
                "tempo": 120.0
            },
            {
                "start_time": 8.8227273,
                "end_time": 8.9727273,
                "pitch": 69,
                "velocity": 80,
                "duration": 0.15,
                "tempo": 120.0
            },
            {
                "start_time": 8.975,
                "end_time": 9.125,
                "pitch": 68,
                "velocity": 80,
                "duration": 0.15,
                "tempo": 120.0
            },
            {
                "start_time": 9.1272727,
                "end_time": 9.2772727,
                "pitch": 68,
                "velocity": 80,
                "duration": 0.15,
                "tempo": 120.0
            },
            {
                "start_time": 9.2772727,
                "end_time": 9.4272727,
                "pitch": 68,
                "velocity": 80,
                "duration": 0.15,
                "tempo": 120.0
            },
            {
                "start_time": 9.4272727,
                "end_time": 9.5772727,
                "pitch": 68,
                "velocity": 80,
                "duration": 0.15,
                "tempo": 120.0
            },
            {
                "start_time": 9.5772727,
                "end_time": 9.7272727,
                "pitch": 62,
                "velocity": 80,
                "duration": 0.15,
                "tempo": 120.0
            },
            {
                "start_time": 9.7272727,
                "end_time": 9.8772727,
                "pitch": 62,
                "velocity": 80,
                "duration": 0.15,
                "tempo": 120.0
            },
            {
                "start_time": 9.8795455,
                "end_time": 10.0272727,
                "pitch": 62,
                "velocity": 80,
                "duration": 0.1477273,
                "tempo": 120.0
            },
            {
                "start_time": 10.0295455,
                "end_time": 10.1772727,
                "pitch": 62,
                "velocity": 80,
                "duration": 0.1477273,
                "tempo": 120.0
            },
            {
                "start_time": 10.1795455,
                "end_time": 10.3272727,
                "pitch": 62,
                "velocity": 80,
                "duration": 0.1477273,
                "tempo": 120.0
            },
            {
                "start_time": 10.3295455,
                "end_time": 10.4795455,
                "pitch": 62,
                "velocity": 80,
                "duration": 0.15,
                "tempo": 120.0
            },
            {
                "start_time": 10.4795455,
                "end_time": 10.6318182,
                "pitch": 62,
                "velocity": 80,
                "duration": 0.1522727,
                "tempo": 120.0
            },
            {
                "start_time": 10.6318182,
                "end_time": 10.7863636,
                "pitch": 62,
                "velocity": 80,
                "duration": 0.1545455,
                "tempo": 120.0
            },
            {
                "start_time": 10.7863636,
                "end_time": 10.9386364,
                "pitch": 62,
                "velocity": 80,
                "duration": 0.1522727,
                "tempo": 120.0
            },
            {
                "start_time": 10.9386364,
                "end_time": 11.0909091,
                "pitch": 62,
                "velocity": 80,
                "duration": 0.1522727,
                "tempo": 120.0
            },
            {
                "start_time": 11.0931818,
                "end_time": 11.2431818,
                "pitch": 62,
                "velocity": 80,
                "duration": 0.15,
                "tempo": 120.0
            },
            {
                "start_time": 11.2431818,
                "end_time": 11.3954545,
                "pitch": 62,
                "velocity": 80,
                "duration": 0.1522727,
                "tempo": 120.0
            },
            {
                "start_time": 11.3954545,
                "end_time": 11.5477273,
                "pitch": 62,
                "velocity": 80,
                "duration": 0.1522727,
                "tempo": 120.0
            },
            {
                "start_time": 11.5477273,
                "end_time": 11.6977273,
                "pitch": 62,
                "velocity": 80,
                "duration": 0.15,
                "tempo": 120.0
            },
            {
                "start_time": 11.7,
                "end_time": 11.8477273,
                "pitch": 62,
                "velocity": 80,
                "duration": 0.1477273,
                "tempo": 120.0
            },
            {
                "start_time": 11.85,
                "end_time": 12.0,
                "pitch": 62,
                "velocity": 80,
                "duration": 0.15,
                "tempo": 120.0
            },
            {
                "start_time": 12.0,
                "end_time": 12.1477273,
                "pitch": 69,
                "velocity": 80,
                "duration": 0.1477273,
                "tempo": 120.0
            },
            {
                "start_time": 12.15,
                "end_time": 12.3,
                "pitch": 69,
                "velocity": 80,
                "duration": 0.15,
                "tempo": 120.0
            },
            {
                "start_time": 12.3,
                "end_time": 12.45,
                "pitch": 69,
                "velocity": 80,
                "duration": 0.15,
                "tempo": 120.0
            },
            {
                "start_time": 12.45,
                "end_time": 12.6,
                "pitch": 69,
                "velocity": 80,
                "duration": 0.15,
                "tempo": 120.0
            },
            {
                "start_time": 12.6,
                "end_time": 12.75,
                "pitch": 69,
                "velocity": 80,
                "duration": 0.15,
                "tempo": 120.0
            },
            {
                "start_time": 12.75,
                "end_time": 12.9,
                "pitch": 69,
                "velocity": 80,
                "duration": 0.15,
                "tempo": 120.0
            },
            {
                "start_time": 12.9022727,
                "end_time": 13.05,
                "pitch": 69,
                "velocity": 80,
                "duration": 0.1477273,
                "tempo": 120.0
            },
            {
                "start_time": 13.05,
                "end_time": 13.2,
                "pitch": 69,
                "velocity": 80,
                "duration": 0.15,
                "tempo": 120.0
            },
            {
                "start_time": 13.2022727,
                "end_time": 13.35,
                "pitch": 69,
                "velocity": 80,
                "duration": 0.1477273,
                "tempo": 120.0
            },
            {
                "start_time": 13.35,
                "end_time": 13.5,
                "pitch": 69,
                "velocity": 80,
                "duration": 0.15,
                "tempo": 120.0
            },
            {
                "start_time": 13.5022727,
                "end_time": 13.65,
                "pitch": 69,
                "velocity": 80,
                "duration": 0.1477273,
                "tempo": 120.0
            },
            {
                "start_time": 13.6522727,
                "end_time": 13.8022727,
                "pitch": 69,
                "velocity": 80,
                "duration": 0.15,
                "tempo": 120.0
            },
            {
                "start_time": 13.8022727,
                "end_time": 13.9522727,
                "pitch": 69,
                "velocity": 80,
                "duration": 0.15,
                "tempo": 120.0
            },
            {
                "start_time": 13.9522727,
                "end_time": 14.1022727,
                "pitch": 69,
                "velocity": 80,
                "duration": 0.15,
                "tempo": 120.0
            },
            {
                "start_time": 14.1022727,
                "end_time": 14.2522727,
                "pitch": 69,
                "velocity": 80,
                "duration": 0.15,
                "tempo": 120.0
            },
            {
                "start_time": 14.2545455,
                "end_time": 14.4068182,
                "pitch": 69,
                "velocity": 80,
                "duration": 0.1522727,
                "tempo": 120.0
            },
            {
                "start_time": 14.4068182,
                "end_time": 14.5568182,
                "pitch": 64,
                "velocity": 80,
                "duration": 0.15,
                "tempo": 120.0
            },
            {
                "start_time": 14.5568182,
                "end_time": 14.7090909,
                "pitch": 64,
                "velocity": 80,
                "duration": 0.1522727,
                "tempo": 120.0
            },
            {
                "start_time": 14.7090909,
                "end_time": 14.8590909,
                "pitch": 64,
                "velocity": 80,
                "duration": 0.15,
                "tempo": 120.0
            },
            {
                "start_time": 14.8590909,
                "end_time": 15.0068182,
                "pitch": 64,
                "velocity": 80,
                "duration": 0.1477273,
                "tempo": 120.0
            },
            {
                "start_time": 15.0090909,
                "end_time": 15.1590909,
                "pitch": 64,
                "velocity": 80,
                "duration": 0.15,
                "tempo": 120.0
            },
            {
                "start_time": 15.1590909,
                "end_time": 15.3090909,
                "pitch": 64,
                "velocity": 80,
                "duration": 0.15,
                "tempo": 120.0
            },
            {
                "start_time": 15.3090909,
                "end_time": 15.4590909,
                "pitch": 64,
                "velocity": 80,
                "duration": 0.15,
                "tempo": 120.0
            },
            {
                "start_time": 15.4613636,
                "end_time": 15.6113636,
                "pitch": 64,
                "velocity": 80,
                "duration": 0.15,
                "tempo": 120.0
            },
            {
                "start_time": 15.6113636,
                "end_time": 15.7590909,
                "pitch": 62,
                "velocity": 80,
                "duration": 0.1477273,
                "tempo": 120.0
            },
            {
                "start_time": 15.7613636,
                "end_time": 15.9113636,
                "pitch": 62,
                "velocity": 80,
                "duration": 0.15,
                "tempo": 120.0
            },
            {
                "start_time": 15.9113636,
                "end_time": 16.0613636,
                "pitch": 62,
                "velocity": 80,
                "duration": 0.15,
                "tempo": 120.0
            },
            {
                "start_time": 16.0613636,
                "end_time": 16.2090909,
                "pitch": 62,
                "velocity": 80,
                "duration": 0.1477273,
                "tempo": 120.0
            },
            {
                "start_time": 16.2090909,
                "end_time": 16.3613636,
                "pitch": 62,
                "velocity": 80,
                "duration": 0.1522727,
                "tempo": 120.0
            },
            {
                "start_time": 16.3613636,
                "end_time": 16.5090909,
                "pitch": 62,
                "velocity": 80,
                "duration": 0.1477273,
                "tempo": 120.0
            },
            {
                "start_time": 16.5113636,
                "end_time": 16.6636364,
                "pitch": 62,
                "velocity": 80,
                "duration": 0.1522727,
                "tempo": 120.0
            },
            {
                "start_time": 16.6636364,
                "end_time": 16.8136364,
                "pitch": 62,
                "velocity": 80,
                "duration": 0.15,
                "tempo": 120.0
            },
            {
                "start_time": 16.8159091,
                "end_time": 16.9659091,
                "pitch": 69,
                "velocity": 80,
                "duration": 0.15,
                "tempo": 120.0
            },
            {
                "start_time": 16.9659091,
                "end_time": 17.1181818,
                "pitch": 57,
                "velocity": 80,
                "duration": 0.1522727,
                "tempo": 120.0
            },
            {
                "start_time": 17.1181818,
                "end_time": 17.2681818,
                "pitch": 59,
                "velocity": 80,
                "duration": 0.15,
                "tempo": 120.0
            },
            {
                "start_time": 17.2681818,
                "end_time": 17.4181818,
                "pitch": 61,
                "velocity": 80,
                "duration": 0.15,
                "tempo": 120.0
            },
            {
                "start_time": 17.4181818,
                "end_time": 17.5681818,
                "pitch": 62,
                "velocity": 80,
                "duration": 0.15,
                "tempo": 120.0
            },
            {
                "start_time": 17.5681818,
                "end_time": 17.7181818,
                "pitch": 64,
                "velocity": 80,
                "duration": 0.15,
                "tempo": 120.0
            },
            {
                "start_time": 17.7181818,
                "end_time": 17.8704545,
                "pitch": 66,
                "velocity": 80,
                "duration": 0.1522727,
                "tempo": 120.0
            },
            {
                "start_time": 17.8704545,
                "end_time": 18.0204545,
                "pitch": 68,
                "velocity": 80,
                "duration": 0.15,
                "tempo": 120.0
            },
            {
                "start_time": 18.0227273,
                "end_time": 18.1727273,
                "pitch": 69,
                "velocity": 80,
                "duration": 0.15,
                "tempo": 120.0
            }
        ],
        "Electric Piano 1": [
            {
                "start_time": 0.2090909,
                "end_time": 0.5113636,
                "pitch": 62,
                "velocity": 80,
                "duration": 0.3022727,
                "tempo": 120.0
            },
            {
                "start_time": 0.5136364,
                "end_time": 0.8159091,
                "pitch": 64,
                "velocity": 80,
                "duration": 0.3022727,
                "tempo": 120.0
            },
            {
                "start_time": 0.8159091,
                "end_time": 1.1181818,
                "pitch": 66,
                "velocity": 80,
                "duration": 0.3022727,
                "tempo": 120.0
            },
            {
                "start_time": 1.1204545,
                "end_time": 1.4227273,
                "pitch": 68,
                "velocity": 80,
                "duration": 0.3022727,
                "tempo": 120.0
            },
            {
                "start_time": 1.4227273,
                "end_time": 1.7227273,
                "pitch": 66,
                "velocity": 80,
                "duration": 0.3,
                "tempo": 120.0
            },
            {
                "start_time": 1.725,
                "end_time": 1.8727273,
                "pitch": 64,
                "velocity": 80,
                "duration": 0.1477273,
                "tempo": 120.0
            },
            {
                "start_time": 1.875,
                "end_time": 2.3295455,
                "pitch": 66,
                "velocity": 80,
                "duration": 0.4545455,
                "tempo": 120.0
            },
            {
                "start_time": 2.3318182,
                "end_time": 2.7863636,
                "pitch": 64,
                "velocity": 80,
                "duration": 0.4545455,
                "tempo": 120.0
            },
            {
                "start_time": 2.7886364,
                "end_time": 3.2431818,
                "pitch": 61,
                "velocity": 80,
                "duration": 0.4545455,
                "tempo": 120.0
            },
            {
                "start_time": 3.2431818,
                "end_time": 3.5431818,
                "pitch": 69,
                "velocity": 80,
                "duration": 0.3,
                "tempo": 120.0
            },
            {
                "start_time": 3.5454545,
                "end_time": 3.9954545,
                "pitch": 68,
                "velocity": 80,
                "duration": 0.45,
                "tempo": 120.0
            },
            {
                "start_time": 3.9977273,
                "end_time": 4.45,
                "pitch": 66,
                "velocity": 80,
                "duration": 0.4522727,
                "tempo": 120.0
            },
            {
                "start_time": 4.4522727,
                "end_time": 4.75,
                "pitch": 64,
                "velocity": 80,
                "duration": 0.2977273,
                "tempo": 120.0
            },
            {
                "start_time": 5.0522727,
                "end_time": 5.2022727,
                "pitch": 64,
                "velocity": 80,
                "duration": 0.15,
                "tempo": 120.0
            },
            {
                "start_time": 5.2045455,
                "end_time": 5.3545455,
                "pitch": 62,
                "velocity": 80,
                "duration": 0.15,
                "tempo": 120.0
            },
            {
                "start_time": 5.3568182,
                "end_time": 5.5068182,
                "pitch": 64,
                "velocity": 80,
                "duration": 0.15,
                "tempo": 120.0
            },
            {
                "start_time": 5.5068182,
                "end_time": 5.9590909,
                "pitch": 66,
                "velocity": 80,
                "duration": 0.4522727,
                "tempo": 120.0
            },
            {
                "start_time": 5.9590909,
                "end_time": 6.2590909,
                "pitch": 68,
                "velocity": 80,
                "duration": 0.3,
                "tempo": 120.0
            },
            {
                "start_time": 6.2590909,
                "end_time": 6.5613636,
                "pitch": 66,
                "velocity": 80,
                "duration": 0.3022727,
                "tempo": 120.0
            },
            {
                "start_time": 6.5636364,
                "end_time": 6.7136364,
                "pitch": 64,
                "velocity": 80,
                "duration": 0.15,
                "tempo": 120.0
            },
            {
                "start_time": 6.7159091,
                "end_time": 7.1659091,
                "pitch": 62,
                "velocity": 80,
                "duration": 0.45,
                "tempo": 120.0
            },
            {
                "start_time": 7.1681818,
                "end_time": 7.6159091,
                "pitch": 66,
                "velocity": 80,
                "duration": 0.4477273,
                "tempo": 120.0
            },
            {
                "start_time": 7.6181818,
                "end_time": 8.2181818,
                "pitch": 64,
                "velocity": 80,
                "duration": 0.6,
                "tempo": 120.0
            },
            {
                "start_time": 8.5204545,
                "end_time": 8.6681818,
                "pitch": 57,
                "velocity": 80,
                "duration": 0.1477273,
                "tempo": 120.0
            },
            {
                "start_time": 8.6704545,
                "end_time": 8.8204545,
                "pitch": 61,
                "velocity": 80,
                "duration": 0.15,
                "tempo": 120.0
            },
            {
                "start_time": 8.8204545,
                "end_time": 8.9704545,
                "pitch": 62,
                "velocity": 80,
                "duration": 0.15,
                "tempo": 120.0
            },
            {
                "start_time": 8.9727273,
                "end_time": 9.1227273,
                "pitch": 69,
                "velocity": 80,
                "duration": 0.15,
                "tempo": 120.0
            },
            {
                "start_time": 9.125,
                "end_time": 9.575,
                "pitch": 66,
                "velocity": 80,
                "duration": 0.45,
                "tempo": 120.0
            },
            {
                "start_time": 9.8772727,
                "end_time": 10.175,
                "pitch": 62,
                "velocity": 80,
                "duration": 0.2977273,
                "tempo": 120.0
            },
            {
                "start_time": 10.1772727,
                "end_time": 10.475,
                "pitch": 64,
                "velocity": 80,
                "duration": 0.2977273,
                "tempo": 120.0
            },
            {
                "start_time": 10.4772727,
                "end_time": 10.7818182,
                "pitch": 66,
                "velocity": 80,
                "duration": 0.3045455,
                "tempo": 120.0
            },
            {
                "start_time": 10.7840909,
                "end_time": 11.0886364,
                "pitch": 68,
                "velocity": 80,
                "duration": 0.3045455,
                "tempo": 120.0
            },
            {
                "start_time": 11.0909091,
                "end_time": 11.3931818,
                "pitch": 66,
                "velocity": 80,
                "duration": 0.3022727,
                "tempo": 120.0
            },
            {
                "start_time": 11.3931818,
                "end_time": 11.5431818,
                "pitch": 64,
                "velocity": 80,
                "duration": 0.15,
                "tempo": 120.0
            },
            {
                "start_time": 11.5454545,
                "end_time": 11.9954545,
                "pitch": 66,
                "velocity": 80,
                "duration": 0.45,
                "tempo": 120.0
            },
            {
                "start_time": 11.9977273,
                "end_time": 12.4477273,
                "pitch": 64,
                "velocity": 80,
                "duration": 0.45,
                "tempo": 120.0
            },
            {
                "start_time": 12.4477273,
                "end_time": 12.8977273,
                "pitch": 61,
                "velocity": 80,
                "duration": 0.45,
                "tempo": 120.0
            },
            {
                "start_time": 12.9,
                "end_time": 13.4977273,
                "pitch": 69,
                "velocity": 80,
                "duration": 0.5977273,
                "tempo": 120.0
            },
            {
                "start_time": 13.5,
                "end_time": 13.7977273,
                "pitch": 68,
                "velocity": 80,
                "duration": 0.2977273,
                "tempo": 120.0
            },
            {
                "start_time": 13.8,
                "end_time": 14.1,
                "pitch": 69,
                "velocity": 80,
                "duration": 0.3,
                "tempo": 120.0
            },
            {
                "start_time": 14.1,
                "end_time": 14.4022727,
                "pitch": 61,
                "velocity": 80,
                "duration": 0.3022727,
                "tempo": 120.0
            },
            {
                "start_time": 14.4045455,
                "end_time": 14.8568182,
                "pitch": 64,
                "velocity": 80,
                "duration": 0.4522727,
                "tempo": 120.0
            },
            {
                "start_time": 14.8568182,
                "end_time": 15.0068182,
                "pitch": 62,
                "velocity": 80,
                "duration": 0.15,
                "tempo": 120.0
            },
            {
                "start_time": 15.1590909,
                "end_time": 15.3068182,
                "pitch": 61,
                "velocity": 80,
                "duration": 0.1477273,
                "tempo": 120.0
            },
            {
                "start_time": 15.3090909,
                "end_time": 15.4568182,
                "pitch": 62,
                "velocity": 80,
                "duration": 0.1477273,
                "tempo": 120.0
            },
            {
                "start_time": 15.4590909,
                "end_time": 15.6068182,
                "pitch": 64,
                "velocity": 80,
                "duration": 0.1477273,
                "tempo": 120.0
            },
            {
                "start_time": 15.6090909,
                "end_time": 15.9068182,
                "pitch": 69,
                "velocity": 80,
                "duration": 0.2977273,
                "tempo": 120.0
            },
            {
                "start_time": 15.9090909,
                "end_time": 16.0568182,
                "pitch": 68,
                "velocity": 80,
                "duration": 0.1477273,
                "tempo": 120.0
            },
            {
                "start_time": 16.0590909,
                "end_time": 16.2068182,
                "pitch": 66,
                "velocity": 80,
                "duration": 0.1477273,
                "tempo": 120.0
            },
            {
                "start_time": 16.3590909,
                "end_time": 16.5090909,
                "pitch": 68,
                "velocity": 80,
                "duration": 0.15,
                "tempo": 120.0
            },
            {
                "start_time": 16.6613636,
                "end_time": 18.1704545,
                "pitch": 69,
                "velocity": 80,
                "duration": 1.5090909,
                "tempo": 120.0
            }
        ],
        "Acoustic Bass": [
            {
                "start_time": 0.0113636,
                "end_time": 0.1068182,
                "pitch": 38,
                "velocity": 101,
                "duration": 0.0954545,
                "tempo": 120.0
            },
            {
                "start_time": 0.1090909,
                "end_time": 0.2090909,
                "pitch": 38,
                "velocity": 101,
                "duration": 0.1,
                "tempo": 120.0
            },
            {
                "start_time": 0.2113636,
                "end_time": 0.3613636,
                "pitch": 38,
                "velocity": 101,
                "duration": 0.15,
                "tempo": 120.0
            },
            {
                "start_time": 0.3613636,
                "end_time": 0.5136364,
                "pitch": 38,
                "velocity": 101,
                "duration": 0.1522727,
                "tempo": 120.0
            },
            {
                "start_time": 0.5136364,
                "end_time": 0.6659091,
                "pitch": 38,
                "velocity": 101,
                "duration": 0.1522727,
                "tempo": 120.0
            },
            {
                "start_time": 0.6659091,
                "end_time": 0.8159091,
                "pitch": 38,
                "velocity": 101,
                "duration": 0.15,
                "tempo": 120.0
            },
            {
                "start_time": 0.8181818,
                "end_time": 0.9681818,
                "pitch": 38,
                "velocity": 101,
                "duration": 0.15,
                "tempo": 120.0
            },
            {
                "start_time": 0.9681818,
                "end_time": 1.1204545,
                "pitch": 38,
                "velocity": 101,
                "duration": 0.1522727,
                "tempo": 120.0
            },
            {
                "start_time": 1.1227273,
                "end_time": 1.2704545,
                "pitch": 38,
                "velocity": 101,
                "duration": 0.1477273,
                "tempo": 120.0
            },
            {
                "start_time": 1.2727273,
                "end_time": 1.4227273,
                "pitch": 38,
                "velocity": 101,
                "duration": 0.15,
                "tempo": 120.0
            },
            {
                "start_time": 1.425,
                "end_time": 1.5727273,
                "pitch": 38,
                "velocity": 101,
                "duration": 0.1477273,
                "tempo": 120.0
            },
            {
                "start_time": 1.575,
                "end_time": 1.725,
                "pitch": 38,
                "velocity": 101,
                "duration": 0.15,
                "tempo": 120.0
            },
            {
                "start_time": 1.725,
                "end_time": 1.875,
                "pitch": 38,
                "velocity": 101,
                "duration": 0.15,
                "tempo": 120.0
            },
            {
                "start_time": 1.875,
                "end_time": 2.025,
                "pitch": 38,
                "velocity": 101,
                "duration": 0.15,
                "tempo": 120.0
            },
            {
                "start_time": 2.025,
                "end_time": 2.1772727,
                "pitch": 38,
                "velocity": 101,
                "duration": 0.1522727,
                "tempo": 120.0
            },
            {
                "start_time": 2.1772727,
                "end_time": 2.3318182,
                "pitch": 38,
                "velocity": 101,
                "duration": 0.1545455,
                "tempo": 120.0
            },
            {
                "start_time": 2.3318182,
                "end_time": 2.4840909,
                "pitch": 37,
                "velocity": 101,
                "duration": 0.1522727,
                "tempo": 120.0
            },
            {
                "start_time": 2.4840909,
                "end_time": 2.6363636,
                "pitch": 37,
                "velocity": 101,
                "duration": 0.1522727,
                "tempo": 120.0
            },
            {
                "start_time": 2.6386364,
                "end_time": 2.7886364,
                "pitch": 37,
                "velocity": 101,
                "duration": 0.15,
                "tempo": 120.0
            },
            {
                "start_time": 2.7909091,
                "end_time": 2.9409091,
                "pitch": 37,
                "velocity": 101,
                "duration": 0.15,
                "tempo": 120.0
            },
            {
                "start_time": 2.9409091,
                "end_time": 3.0931818,
                "pitch": 37,
                "velocity": 101,
                "duration": 0.1522727,
                "tempo": 120.0
            },
            {
                "start_time": 3.0931818,
                "end_time": 3.2431818,
                "pitch": 37,
                "velocity": 101,
                "duration": 0.15,
                "tempo": 120.0
            },
            {
                "start_time": 3.2454545,
                "end_time": 3.3931818,
                "pitch": 37,
                "velocity": 101,
                "duration": 0.1477273,
                "tempo": 120.0
            },
            {
                "start_time": 3.3954545,
                "end_time": 3.5454545,
                "pitch": 37,
                "velocity": 101,
                "duration": 0.15,
                "tempo": 120.0
            },
            {
                "start_time": 3.5454545,
                "end_time": 3.6954545,
                "pitch": 37,
                "velocity": 101,
                "duration": 0.15,
                "tempo": 120.0
            },
            {
                "start_time": 3.6954545,
                "end_time": 3.8454545,
                "pitch": 37,
                "velocity": 101,
                "duration": 0.15,
                "tempo": 120.0
            },
            {
                "start_time": 3.8454545,
                "end_time": 3.9977273,
                "pitch": 37,
                "velocity": 101,
                "duration": 0.1522727,
                "tempo": 120.0
            },
            {
                "start_time": 3.9977273,
                "end_time": 4.1477273,
                "pitch": 37,
                "velocity": 101,
                "duration": 0.15,
                "tempo": 120.0
            },
            {
                "start_time": 4.1477273,
                "end_time": 4.3,
                "pitch": 37,
                "velocity": 101,
                "duration": 0.1522727,
                "tempo": 120.0
            },
            {
                "start_time": 4.3,
                "end_time": 4.4522727,
                "pitch": 37,
                "velocity": 101,
                "duration": 0.1522727,
                "tempo": 120.0
            },
            {
                "start_time": 4.4522727,
                "end_time": 4.6022727,
                "pitch": 37,
                "velocity": 101,
                "duration": 0.15,
                "tempo": 120.0
            },
            {
                "start_time": 4.6022727,
                "end_time": 4.7522727,
                "pitch": 37,
                "velocity": 101,
                "duration": 0.15,
                "tempo": 120.0
            },
            {
                "start_time": 4.7522727,
                "end_time": 4.9,
                "pitch": 38,
                "velocity": 101,
                "duration": 0.1477273,
                "tempo": 120.0
            },
            {
                "start_time": 4.9022727,
                "end_time": 5.0522727,
                "pitch": 38,
                "velocity": 101,
                "duration": 0.15,
                "tempo": 120.0
            },
            {
                "start_time": 5.0545455,
                "end_time": 5.2045455,
                "pitch": 38,
                "velocity": 101,
                "duration": 0.15,
                "tempo": 120.0
            },
            {
                "start_time": 5.2045455,
                "end_time": 5.3568182,
                "pitch": 38,
                "velocity": 101,
                "duration": 0.1522727,
                "tempo": 120.0
            },
            {
                "start_time": 5.3568182,
                "end_time": 5.5090909,
                "pitch": 38,
                "velocity": 101,
                "duration": 0.1522727,
                "tempo": 120.0
            },
            {
                "start_time": 5.5090909,
                "end_time": 5.6590909,
                "pitch": 38,
                "velocity": 101,
                "duration": 0.15,
                "tempo": 120.0
            },
            {
                "start_time": 5.6590909,
                "end_time": 5.8090909,
                "pitch": 38,
                "velocity": 101,
                "duration": 0.15,
                "tempo": 120.0
            },
            {
                "start_time": 5.8090909,
                "end_time": 5.9613636,
                "pitch": 38,
                "velocity": 101,
                "duration": 0.1522727,
                "tempo": 120.0
            },
            {
                "start_time": 5.9613636,
                "end_time": 6.1090909,
                "pitch": 38,
                "velocity": 101,
                "duration": 0.1477273,
                "tempo": 120.0
            },
            {
                "start_time": 6.1113636,
                "end_time": 6.2590909,
                "pitch": 38,
                "velocity": 101,
                "duration": 0.1477273,
                "tempo": 120.0
            },
            {
                "start_time": 6.2613636,
                "end_time": 6.4113636,
                "pitch": 38,
                "velocity": 101,
                "duration": 0.15,
                "tempo": 120.0
            },
            {
                "start_time": 6.4136364,
                "end_time": 6.5636364,
                "pitch": 38,
                "velocity": 101,
                "duration": 0.15,
                "tempo": 120.0
            },
            {
                "start_time": 6.5636364,
                "end_time": 6.7159091,
                "pitch": 38,
                "velocity": 101,
                "duration": 0.1522727,
                "tempo": 120.0
            },
            {
                "start_time": 6.7159091,
                "end_time": 6.8659091,
                "pitch": 38,
                "velocity": 101,
                "duration": 0.15,
                "tempo": 120.0
            },
            {
                "start_time": 6.8681818,
                "end_time": 7.0181818,
                "pitch": 38,
                "velocity": 101,
                "duration": 0.15,
                "tempo": 120.0
            },
            {
                "start_time": 7.0181818,
                "end_time": 7.1681818,
                "pitch": 38,
                "velocity": 101,
                "duration": 0.15,
                "tempo": 120.0
            },
            {
                "start_time": 7.1681818,
                "end_time": 7.3181818,
                "pitch": 37,
                "velocity": 101,
                "duration": 0.15,
                "tempo": 120.0
            },
            {
                "start_time": 7.3181818,
                "end_time": 7.4681818,
                "pitch": 37,
                "velocity": 101,
                "duration": 0.15,
                "tempo": 120.0
            },
            {
                "start_time": 7.4681818,
                "end_time": 7.6181818,
                "pitch": 37,
                "velocity": 101,
                "duration": 0.15,
                "tempo": 120.0
            },
            {
                "start_time": 7.6181818,
                "end_time": 7.7681818,
                "pitch": 37,
                "velocity": 101,
                "duration": 0.15,
                "tempo": 120.0
            },
            {
                "start_time": 7.7681818,
                "end_time": 7.9181818,
                "pitch": 37,
                "velocity": 101,
                "duration": 0.15,
                "tempo": 120.0
            },
            {
                "start_time": 7.9181818,
                "end_time": 8.0681818,
                "pitch": 37,
                "velocity": 101,
                "duration": 0.15,
                "tempo": 120.0
            },
            {
                "start_time": 8.0681818,
                "end_time": 8.2181818,
                "pitch": 37,
                "velocity": 101,
                "duration": 0.15,
                "tempo": 120.0
            },
            {
                "start_time": 8.2181818,
                "end_time": 8.3681818,
                "pitch": 37,
                "velocity": 101,
                "duration": 0.15,
                "tempo": 120.0
            },
            {
                "start_time": 8.3681818,
                "end_time": 8.5204545,
                "pitch": 37,
                "velocity": 101,
                "duration": 0.1522727,
                "tempo": 120.0
            },
            {
                "start_time": 8.5204545,
                "end_time": 8.6704545,
                "pitch": 37,
                "velocity": 101,
                "duration": 0.15,
                "tempo": 120.0
            },
            {
                "start_time": 8.6704545,
                "end_time": 8.8204545,
                "pitch": 37,
                "velocity": 101,
                "duration": 0.15,
                "tempo": 120.0
            },
            {
                "start_time": 8.8227273,
                "end_time": 8.9727273,
                "pitch": 37,
                "velocity": 101,
                "duration": 0.15,
                "tempo": 120.0
            },
            {
                "start_time": 8.9727273,
                "end_time": 9.125,
                "pitch": 36,
                "velocity": 101,
                "duration": 0.1522727,
                "tempo": 120.0
            },
            {
                "start_time": 9.125,
                "end_time": 9.275,
                "pitch": 36,
                "velocity": 101,
                "duration": 0.15,
                "tempo": 120.0
            },
            {
                "start_time": 9.2772727,
                "end_time": 9.4272727,
                "pitch": 36,
                "velocity": 101,
                "duration": 0.15,
                "tempo": 120.0
            },
            {
                "start_time": 9.4272727,
                "end_time": 9.575,
                "pitch": 36,
                "velocity": 101,
                "duration": 0.1477273,
                "tempo": 120.0
            },
            {
                "start_time": 9.5772727,
                "end_time": 9.725,
                "pitch": 38,
                "velocity": 101,
                "duration": 0.1477273,
                "tempo": 120.0
            },
            {
                "start_time": 9.725,
                "end_time": 9.8772727,
                "pitch": 38,
                "velocity": 101,
                "duration": 0.1522727,
                "tempo": 120.0
            },
            {
                "start_time": 9.8772727,
                "end_time": 10.0272727,
                "pitch": 38,
                "velocity": 101,
                "duration": 0.15,
                "tempo": 120.0
            },
            {
                "start_time": 10.0272727,
                "end_time": 10.1772727,
                "pitch": 38,
                "velocity": 101,
                "duration": 0.15,
                "tempo": 120.0
            },
            {
                "start_time": 10.1772727,
                "end_time": 10.3272727,
                "pitch": 38,
                "velocity": 101,
                "duration": 0.15,
                "tempo": 120.0
            },
            {
                "start_time": 10.3272727,
                "end_time": 10.4772727,
                "pitch": 38,
                "velocity": 101,
                "duration": 0.15,
                "tempo": 120.0
            },
            {
                "start_time": 10.4795455,
                "end_time": 10.6295455,
                "pitch": 38,
                "velocity": 101,
                "duration": 0.15,
                "tempo": 120.0
            },
            {
                "start_time": 10.6318182,
                "end_time": 10.7840909,
                "pitch": 38,
                "velocity": 101,
                "duration": 0.1522727,
                "tempo": 120.0
            },
            {
                "start_time": 10.7863636,
                "end_time": 10.9363636,
                "pitch": 38,
                "velocity": 101,
                "duration": 0.15,
                "tempo": 120.0
            },
            {
                "start_time": 10.9386364,
                "end_time": 11.0909091,
                "pitch": 38,
                "velocity": 101,
                "duration": 0.1522727,
                "tempo": 120.0
            },
            {
                "start_time": 11.0909091,
                "end_time": 11.2431818,
                "pitch": 38,
                "velocity": 101,
                "duration": 0.1522727,
                "tempo": 120.0
            },
            {
                "start_time": 11.2431818,
                "end_time": 11.3954545,
                "pitch": 38,
                "velocity": 101,
                "duration": 0.1522727,
                "tempo": 120.0
            },
            {
                "start_time": 11.3954545,
                "end_time": 11.5454545,
                "pitch": 38,
                "velocity": 101,
                "duration": 0.15,
                "tempo": 120.0
            },
            {
                "start_time": 11.5477273,
                "end_time": 11.6977273,
                "pitch": 38,
                "velocity": 101,
                "duration": 0.15,
                "tempo": 120.0
            },
            {
                "start_time": 11.6977273,
                "end_time": 11.8477273,
                "pitch": 38,
                "velocity": 101,
                "duration": 0.15,
                "tempo": 120.0
            },
            {
                "start_time": 11.8477273,
                "end_time": 11.9977273,
                "pitch": 38,
                "velocity": 101,
                "duration": 0.15,
                "tempo": 120.0
            },
            {
                "start_time": 12.0,
                "end_time": 12.1477273,
                "pitch": 37,
                "velocity": 101,
                "duration": 0.1477273,
                "tempo": 120.0
            },
            {
                "start_time": 12.1477273,
                "end_time": 12.2977273,
                "pitch": 37,
                "velocity": 101,
                "duration": 0.15,
                "tempo": 120.0
            },
            {
                "start_time": 12.2977273,
                "end_time": 12.4477273,
                "pitch": 37,
                "velocity": 101,
                "duration": 0.15,
                "tempo": 120.0
            },
            {
                "start_time": 12.45,
                "end_time": 12.5977273,
                "pitch": 37,
                "velocity": 101,
                "duration": 0.1477273,
                "tempo": 120.0
            },
            {
                "start_time": 12.6,
                "end_time": 12.7477273,
                "pitch": 37,
                "velocity": 101,
                "duration": 0.1477273,
                "tempo": 120.0
            },
            {
                "start_time": 12.75,
                "end_time": 12.9,
                "pitch": 37,
                "velocity": 101,
                "duration": 0.15,
                "tempo": 120.0
            },
            {
                "start_time": 12.9,
                "end_time": 13.05,
                "pitch": 37,
                "velocity": 101,
                "duration": 0.15,
                "tempo": 120.0
            },
            {
                "start_time": 13.05,
                "end_time": 13.2,
                "pitch": 37,
                "velocity": 101,
                "duration": 0.15,
                "tempo": 120.0
            },
            {
                "start_time": 13.2,
                "end_time": 13.35,
                "pitch": 37,
                "velocity": 101,
                "duration": 0.15,
                "tempo": 120.0
            },
            {
                "start_time": 13.35,
                "end_time": 13.5,
                "pitch": 37,
                "velocity": 101,
                "duration": 0.15,
                "tempo": 120.0
            },
            {
                "start_time": 13.5,
                "end_time": 13.65,
                "pitch": 37,
                "velocity": 101,
                "duration": 0.15,
                "tempo": 120.0
            },
            {
                "start_time": 13.65,
                "end_time": 13.8,
                "pitch": 37,
                "velocity": 101,
                "duration": 0.15,
                "tempo": 120.0
            },
            {
                "start_time": 13.8,
                "end_time": 13.95,
                "pitch": 37,
                "velocity": 101,
                "duration": 0.15,
                "tempo": 120.0
            },
            {
                "start_time": 13.95,
                "end_time": 14.1,
                "pitch": 37,
                "velocity": 101,
                "duration": 0.15,
                "tempo": 120.0
            },
            {
                "start_time": 14.1022727,
                "end_time": 14.2522727,
                "pitch": 37,
                "velocity": 101,
                "duration": 0.15,
                "tempo": 120.0
            },
            {
                "start_time": 14.2522727,
                "end_time": 14.4045455,
                "pitch": 37,
                "velocity": 101,
                "duration": 0.1522727,
                "tempo": 120.0
            },
            {
                "start_time": 14.4068182,
                "end_time": 14.5545455,
                "pitch": 40,
                "velocity": 101,
                "duration": 0.1477273,
                "tempo": 120.0
            },
            {
                "start_time": 14.5568182,
                "end_time": 14.7068182,
                "pitch": 40,
                "velocity": 101,
                "duration": 0.15,
                "tempo": 120.0
            },
            {
                "start_time": 14.7090909,
                "end_time": 14.8568182,
                "pitch": 40,
                "velocity": 101,
                "duration": 0.1477273,
                "tempo": 120.0
            },
            {
                "start_time": 14.8590909,
                "end_time": 15.0068182,
                "pitch": 40,
                "velocity": 101,
                "duration": 0.1477273,
                "tempo": 120.0
            },
            {
                "start_time": 15.0068182,
                "end_time": 15.1590909,
                "pitch": 40,
                "velocity": 101,
                "duration": 0.1522727,
                "tempo": 120.0
            },
            {
                "start_time": 15.1590909,
                "end_time": 15.3090909,
                "pitch": 40,
                "velocity": 101,
                "duration": 0.15,
                "tempo": 120.0
            },
            {
                "start_time": 15.3090909,
                "end_time": 15.4590909,
                "pitch": 40,
                "velocity": 101,
                "duration": 0.15,
                "tempo": 120.0
            },
            {
                "start_time": 15.4590909,
                "end_time": 15.6090909,
                "pitch": 40,
                "velocity": 101,
                "duration": 0.15,
                "tempo": 120.0
            },
            {
                "start_time": 15.6113636,
                "end_time": 15.7590909,
                "pitch": 40,
                "velocity": 101,
                "duration": 0.1477273,
                "tempo": 120.0
            },
            {
                "start_time": 15.7590909,
                "end_time": 15.9090909,
                "pitch": 40,
                "velocity": 101,
                "duration": 0.15,
                "tempo": 120.0
            },
            {
                "start_time": 15.9090909,
                "end_time": 16.0590909,
                "pitch": 40,
                "velocity": 101,
                "duration": 0.15,
                "tempo": 120.0
            },
            {
                "start_time": 16.0613636,
                "end_time": 16.2090909,
                "pitch": 40,
                "velocity": 101,
                "duration": 0.1477273,
                "tempo": 120.0
            },
            {
                "start_time": 16.2090909,
                "end_time": 16.3590909,
                "pitch": 40,
                "velocity": 101,
                "duration": 0.15,
                "tempo": 120.0
            },
            {
                "start_time": 16.3613636,
                "end_time": 16.5090909,
                "pitch": 40,
                "velocity": 101,
                "duration": 0.1477273,
                "tempo": 120.0
            },
            {
                "start_time": 16.5090909,
                "end_time": 16.6613636,
                "pitch": 40,
                "velocity": 101,
                "duration": 0.1522727,
                "tempo": 120.0
            },
            {
                "start_time": 16.6613636,
                "end_time": 16.8136364,
                "pitch": 40,
                "velocity": 101,
                "duration": 0.1522727,
                "tempo": 120.0
            },
            {
                "start_time": 16.8136364,
                "end_time": 16.9659091,
                "pitch": 45,
                "velocity": 101,
                "duration": 0.1522727,
                "tempo": 120.0
            },
            {
                "start_time": 16.9659091,
                "end_time": 17.1159091,
                "pitch": 45,
                "velocity": 101,
                "duration": 0.15,
                "tempo": 120.0
            },
            {
                "start_time": 17.1181818,
                "end_time": 17.2659091,
                "pitch": 45,
                "velocity": 101,
                "duration": 0.1477273,
                "tempo": 120.0
            },
            {
                "start_time": 17.2681818,
                "end_time": 17.4159091,
                "pitch": 45,
                "velocity": 101,
                "duration": 0.1477273,
                "tempo": 120.0
            },
            {
                "start_time": 17.4181818,
                "end_time": 17.5681818,
                "pitch": 45,
                "velocity": 101,
                "duration": 0.15,
                "tempo": 120.0
            },
            {
                "start_time": 17.5681818,
                "end_time": 17.7181818,
                "pitch": 45,
                "velocity": 101,
                "duration": 0.15,
                "tempo": 120.0
            },
            {
                "start_time": 17.7181818,
                "end_time": 17.8681818,
                "pitch": 45,
                "velocity": 101,
                "duration": 0.15,
                "tempo": 120.0
            },
            {
                "start_time": 17.8704545,
                "end_time": 18.0204545,
                "pitch": 45,
                "velocity": 101,
                "duration": 0.15,
                "tempo": 120.0
            },
            {
                "start_time": 18.0204545,
                "end_time": 18.1704545,
                "pitch": 45,
                "velocity": 101,
                "duration": 0.15,
                "tempo": 120.0
            },
            {
                "start_time": 18.3227273,
                "end_time": 18.7818182,
                "pitch": 38,
                "velocity": 101,
                "duration": 0.4590909,
                "tempo": 120.0
            },
            {
                "start_time": 18.7840909,
                "end_time": 19.0886364,
                "pitch": 40,
                "velocity": 101,
                "duration": 0.3045455,
                "tempo": 120.0
            },
            {
                "start_time": 19.0886364,
                "end_time": 19.2386364,
                "pitch": 42,
                "velocity": 101,
                "duration": 0.15,
                "tempo": 120.0
            },
            {
                "start_time": 19.2477273,
                "end_time": 19.25,
                "pitch": 38,
                "velocity": 101,
                "duration": 0.0022727,
                "tempo": 120.0
            }
        ]
    }
}