{
    "mood": "happy",
    "instruments": {
        "Acoustic Bass": [
            {
                "start_time": 0.1295455,
                "end_time": 0.3681818,
                "pitch": 33,
                "velocity": 127,
                "duration": 0.2386364,
                "tempo": 120.0
            },
            {
                "start_time": 0.7295455,
                "end_time": 0.85,
                "pitch": 33,
                "velocity": 127,
                "duration": 0.1204545,
                "tempo": 120.0
            },
            {
                "start_time": 0.85,
                "end_time": 1.2090909,
                "pitch": 28,
                "velocity": 127,
                "duration": 0.3590909,
                "tempo": 120.0
            },
            {
                "start_time": 1.2090909,
                "end_time": 1.45,
                "pitch": 33,
                "velocity": 127,
                "duration": 0.2409091,
                "tempo": 120.0
            },
            {
                "start_time": 1.5704545,
                "end_time": 1.8090909,
                "pitch": 33,
                "velocity": 127,
                "duration": 0.2386364,
                "tempo": 120.0
            },
            {
                "start_time": 2.1704545,
                "end_time": 2.2909091,
                "pitch": 33,
                "velocity": 127,
                "duration": 0.1204545,
                "tempo": 120.0
            },
            {
                "start_time": 0.85,
                "end_time": 2.2909091,
                "pitch": 42,
                "velocity": 127,
                "duration": 1.4409091,
                "tempo": 120.0
            },
            {
                "start_time": 2.2909091,
                "end_time": 2.65,
                "pitch": 28,
                "velocity": 127,
                "duration": 0.3590909,
                "tempo": 120.0
            },
            {
                "start_time": 2.65,
                "end_time": 2.8909091,
                "pitch": 33,
                "velocity": 127,
                "duration": 0.2409091,
                "tempo": 120.0
            },
            {
                "start_time": 3.0113636,
                "end_time": 3.25,
                "pitch": 31,
                "velocity": 127,
                "duration": 0.2386364,
                "tempo": 120.0
            },
            {
                "start_time": 3.6113636,
                "end_time": 3.7318182,
                "pitch": 31,
                "velocity": 127,
                "duration": 0.1204545,
                "tempo": 120.0
            },
            {
                "start_time": 3.7318182,
                "end_time": 4.0818182,
                "pitch": 26,
                "velocity": 127,
                "duration": 0.35,
                "tempo": 120.0
            },
            {
                "start_time": 4.0818182,
                "end_time": 4.3204545,
                "pitch": 31,
                "velocity": 127,
                "duration": 0.2386364,
                "tempo": 120.0
            },
            {
                "start_time": 4.4409091,
                "end_time": 4.6818182,
                "pitch": 38,
                "velocity": 127,
                "duration": 0.2409091,
                "tempo": 120.0
            },
            {
                "start_time": 5.0409091,
                "end_time": 5.1613636,
                "pitch": 38,
                "velocity": 127,
                "duration": 0.1204545,
                "tempo": 120.0
            },
            {
                "start_time": 5.1613636,
                "end_time": 5.5227273,
                "pitch": 33,
                "velocity": 127,
                "duration": 0.3613636,
                "tempo": 120.0
            },
            {
                "start_time": 5.5227273,
                "end_time": 5.7613636,
                "pitch": 31,
                "velocity": 127,
                "duration": 0.2386364,
                "tempo": 120.0
            },
            {
                "start_time": 5.5227273,
                "end_time": 5.7613636,
                "pitch": 31,
                "velocity": 127,
                "duration": 0.2386364,
                "tempo": 120.0
            },
            {
                "start_time": 5.8818182,
                "end_time": 6.1227273,
                "pitch": 33,
                "velocity": 127,
                "duration": 0.2409091,
                "tempo": 120.0
            },
            {
                "start_time": 6.4818182,
                "end_time": 6.6022727,
                "pitch": 33,
                "velocity": 127,
                "duration": 0.1204545,
                "tempo": 120.0
            },
            {
                "start_time": 2.2909091,
                "end_time": 6.6022727,
                "pitch": 42,
                "velocity": 127,
                "duration": 4.3113636,
                "tempo": 120.0
            },
            {
                "start_time": 6.6022727,
                "end_time": 6.9636364,
                "pitch": 28,
                "velocity": 127,
                "duration": 0.3613636,
                "tempo": 120.0
            },
            {
                "start_time": 6.9636364,
                "end_time": 7.2022727,
                "pitch": 33,
                "velocity": 127,
                "duration": 0.2386364,
                "tempo": 120.0
            },
            {
                "start_time": 7.3227273,
                "end_time": 7.5568182,
                "pitch": 33,
                "velocity": 127,
                "duration": 0.2340909,
                "tempo": 120.0
            },
            {
                "start_time": 7.9136364,
                "end_time": 8.0318182,
                "pitch": 33,
                "velocity": 127,
                "duration": 0.1181818,
                "tempo": 120.0
            },
            {
                "start_time": 6.6022727,
                "end_time": 8.0318182,
                "pitch": 42,
                "velocity": 127,
                "duration": 1.4295455,
                "tempo": 120.0
            },
            {
                "start_time": 8.0318182,
                "end_time": 8.3931818,
                "pitch": 28,
                "velocity": 127,
                "duration": 0.3613636,
                "tempo": 120.0
            },
            {
                "start_time": 8.3931818,
                "end_time": 8.6340909,
                "pitch": 33,
                "velocity": 127,
                "duration": 0.2409091,
                "tempo": 120.0
            },
            {
                "start_time": 8.7522727,
                "end_time": 8.9931818,
                "pitch": 31,
                "velocity": 127,
                "duration": 0.2409091,
                "tempo": 120.0
            },
            {
                "start_time": 9.3522727,
                "end_time": 9.4727273,
                "pitch": 31,
                "velocity": 127,
                "duration": 0.1204545,
                "tempo": 120.0
            },
            {
                "start_time": 9.4727273,
                "end_time": 9.8340909,
                "pitch": 26,
                "velocity": 127,
                "duration": 0.3613636,
                "tempo": 120.0
            },
            {
                "start_time": 9.8340909,
                "end_time": 10.0727273,
                "pitch": 31,
                "velocity": 127,
                "duration": 0.2386364,
                "tempo": 120.0
            },
            {
                "start_time": 10.1931818,
                "end_time": 10.4340909,
                "pitch": 38,
                "velocity": 127,
                "duration": 0.2409091,
                "tempo": 120.0
            },
            {
                "start_time": 10.7863636,
                "end_time": 10.9045455,
                "pitch": 38,
                "velocity": 127,
                "duration": 0.1181818,
                "tempo": 120.0
            },
            {
                "start_time": 10.9045455,
                "end_time": 11.2636364,
                "pitch": 33,
                "velocity": 127,
                "duration": 0.3590909,
                "tempo": 120.0
            },
            {
                "start_time": 11.2636364,
                "end_time": 11.5045455,
                "pitch": 31,
                "velocity": 127,
                "duration": 0.2409091,
                "tempo": 120.0
            },
            {
                "start_time": 11.2636364,
                "end_time": 11.5045455,
                "pitch": 31,
                "velocity": 127,
                "duration": 0.2409091,
                "tempo": 120.0
            },
            {
                "start_time": 11.625,
                "end_time": 11.8636364,
                "pitch": 33,
                "velocity": 127,
                "duration": 0.2386364,
                "tempo": 120.0
            },
            {
                "start_time": 12.225,
                "end_time": 12.3454545,
                "pitch": 33,
                "velocity": 127,
                "duration": 0.1204545,
                "tempo": 120.0
            },
            {
                "start_time": 8.0318182,
                "end_time": 12.3454545,
                "pitch": 42,
                "velocity": 127,
                "duration": 4.3136364,
                "tempo": 120.0
            },
            {
                "start_time": 12.3454545,
                "end_time": 12.7045455,
                "pitch": 28,
                "velocity": 127,
                "duration": 0.3590909,
                "tempo": 120.0
            },
            {
                "start_time": 12.7045455,
                "end_time": 12.9454545,
                "pitch": 33,
                "velocity": 127,
                "duration": 0.2409091,
                "tempo": 120.0
            },
            {
                "start_time": 13.0659091,
                "end_time": 13.3045455,
                "pitch": 33,
                "velocity": 127,
                "duration": 0.2386364,
                "tempo": 120.0
            },
            {
                "start_time": 13.6659091,
                "end_time": 13.7840909,
                "pitch": 33,
                "velocity": 127,
                "duration": 0.1181818,
                "tempo": 120.0
            },
            {
                "start_time": 12.3454545,
                "end_time": 13.7863636,
                "pitch": 42,
                "velocity": 127,
                "duration": 1.4409091,
                "tempo": 120.0
            },
            {
                "start_time": 13.7840909,
                "end_time": 13.7863636,
                "pitch": 42,
                "velocity": 127,
                "duration": 0.0022727,
                "tempo": 120.0
            },
            {
                "start_time": 13.7863636,
                "end_time": 14.1340909,
                "pitch": 28,
                "velocity": 127,
                "duration": 0.3477273,
                "tempo": 120.0
            },
            {
                "start_time": 14.1340909,
                "end_time": 14.375,
                "pitch": 33,
                "velocity": 127,
                "duration": 0.2409091,
                "tempo": 120.0
            },
            {
                "start_time": 14.4954545,
                "end_time": 14.7363636,
                "pitch": 31,
                "velocity": 127,
                "duration": 0.2409091,
                "tempo": 120.0
            },
            {
                "start_time": 15.0954545,
                "end_time": 15.2159091,
                "pitch": 31,
                "velocity": 127,
                "duration": 0.1204545,
                "tempo": 120.0
            },
            {
                "start_time": 9.4727273,
                "end_time": 15.2159091,
                "pitch": 41,
                "velocity": 127,
                "duration": 5.7431818,
                "tempo": 120.0
            },
            {
                "start_time": 4.0818182,
                "end_time": 15.575,
                "pitch": 0,
                "velocity": 127,
                "duration": 11.4931818,
                "tempo": 120.0
            },
            {
                "start_time": 15.2159091,
                "end_time": 15.575,
                "pitch": 26,
                "velocity": 127,
                "duration": 0.3590909,
                "tempo": 120.0
            },
            {
                "start_time": 15.575,
                "end_time": 15.8159091,
                "pitch": 31,
                "velocity": 127,
                "duration": 0.2409091,
                "tempo": 120.0
            },
            {
                "start_time": 15.9363636,
                "end_time": 16.1772727,
                "pitch": 38,
                "velocity": 127,
                "duration": 0.2409091,
                "tempo": 120.0
            },
            {
                "start_time": 16.5363636,
                "end_time": 16.6568182,
                "pitch": 38,
                "velocity": 127,
                "duration": 0.1204545,
                "tempo": 120.0
            },
            {
                "start_time": 16.6568182,
                "end_time": 17.0159091,
                "pitch": 33,
                "velocity": 127,
                "duration": 0.3590909,
                "tempo": 120.0
            },
            {
                "start_time": 17.0159091,
                "end_time": 17.25,
                "pitch": 31,
                "velocity": 127,
                "duration": 0.2340909,
                "tempo": 120.0
            },
            {
                "start_time": 17.0159091,
                "end_time": 17.25,
                "pitch": 31,
                "velocity": 127,
                "duration": 0.2340909,
                "tempo": 120.0
            },
            {
                "start_time": 17.3659091,
                "end_time": 17.6068182,
                "pitch": 29,
                "velocity": 127,
                "duration": 0.2409091,
                "tempo": 120.0
            },
            {
                "start_time": 17.9659091,
                "end_time": 18.0863636,
                "pitch": 29,
                "velocity": 127,
                "duration": 0.1204545,
                "tempo": 120.0
            },
            {
                "start_time": 18.0863636,
                "end_time": 18.4477273,
                "pitch": 24,
                "velocity": 127,
                "duration": 0.3613636,
                "tempo": 120.0
            },
            {
                "start_time": 18.4477273,
                "end_time": 18.6863636,
                "pitch": 29,
                "velocity": 127,
                "duration": 0.2386364,
                "tempo": 120.0
            },
            {
                "start_time": 18.4477273,
                "end_time": 18.6863636,
                "pitch": 29,
                "velocity": 127,
                "duration": 0.2386364,
                "tempo": 120.0
            },
            {
                "start_time": 18.8068182,
                "end_time": 19.0477273,
                "pitch": 31,
                "velocity": 127,
                "duration": 0.2409091,
                "tempo": 120.0
            },
            {
                "start_time": 19.4068182,
                "end_time": 19.5272727,
                "pitch": 31,
                "velocity": 127,
                "duration": 0.1204545,
                "tempo": 120.0
            },
            {
                "start_time": 15.2159091,
                "end_time": 19.5272727,
                "pitch": 41,
                "velocity": 127,
                "duration": 4.3113636,
                "tempo": 120.0
            },
            {
                "start_time": 15.575,
                "end_time": 19.8772727,
                "pitch": 0,
                "velocity": 127,
                "duration": 4.3022727,
                "tempo": 120.0
            },
            {
                "start_time": 19.5272727,
                "end_time": 19.8772727,
                "pitch": 26,
                "velocity": 127,
                "duration": 0.35,
                "tempo": 120.0
            },
            {
                "start_time": 19.8772727,
                "end_time": 20.1227273,
                "pitch": 31,
                "velocity": 127,
                "duration": 0.2454545,
                "tempo": 120.0
            },
            {
                "start_time": 20.2454545,
                "end_time": 20.4795455,
                "pitch": 33,
                "velocity": 127,
                "duration": 0.2340909,
                "tempo": 120.0
            },
            {
                "start_time": 20.8363636,
                "end_time": 20.9568182,
                "pitch": 33,
                "velocity": 127,
                "duration": 0.1204545,
                "tempo": 120.0
            },
            {
                "start_time": 20.9568182,
                "end_time": 21.3159091,
                "pitch": 28,
                "velocity": 127,
                "duration": 0.3590909,
                "tempo": 120.0
            },
            {
                "start_time": 21.3159091,
                "end_time": 21.5568182,
                "pitch": 33,
                "velocity": 127,
                "duration": 0.2409091,
                "tempo": 120.0
            },
            {
                "start_time": 21.675,
                "end_time": 21.9159091,
                "pitch": 31,
                "velocity": 127,
                "duration": 0.2409091,
                "tempo": 120.0
            },
            {
                "start_time": 22.2772727,
                "end_time": 22.3977273,
                "pitch": 31,
                "velocity": 127,
                "duration": 0.1204545,
                "tempo": 120.0
            },
            {
                "start_time": 22.3977273,
                "end_time": 22.7568182,
                "pitch": 26,
                "velocity": 127,
                "duration": 0.3590909,
                "tempo": 120.0
            },
            {
                "start_time": 22.7568182,
                "end_time": 22.9977273,
                "pitch": 24,
                "velocity": 127,
                "duration": 0.2409091,
                "tempo": 120.0
            },
            {
                "start_time": 23.1159091,
                "end_time": 23.35,
                "pitch": 29,
                "velocity": 127,
                "duration": 0.2340909,
                "tempo": 120.0
            },
            {
                "start_time": 23.7068182,
                "end_time": 23.8272727,
                "pitch": 29,
                "velocity": 127,
                "duration": 0.1204545,
                "tempo": 120.0
            },
            {
                "start_time": 23.8272727,
                "end_time": 24.1863636,
                "pitch": 24,
                "velocity": 127,
                "duration": 0.3590909,
                "tempo": 120.0
            },
            {
                "start_time": 24.1863636,
                "end_time": 24.4272727,
                "pitch": 29,
                "velocity": 127,
                "duration": 0.2409091,
                "tempo": 120.0
            },
            {
                "start_time": 24.1863636,
                "end_time": 24.4272727,
                "pitch": 29,
                "velocity": 127,
                "duration": 0.2409091,
                "tempo": 120.0
            },
            {
                "start_time": 24.5477273,
                "end_time": 24.7863636,
                "pitch": 31,
                "velocity": 127,
                "duration": 0.2386364,
                "tempo": 120.0
            },
            {
                "start_time": 25.1477273,
                "end_time": 25.2681818,
                "pitch": 31,
                "velocity": 127,
                "duration": 0.1204545,
                "tempo": 120.0
            },
            {
                "start_time": 19.8772727,
                "end_time": 25.6272727,
                "pitch": 0,
                "velocity": 127,
                "duration": 5.75,
                "tempo": 120.0
            },
            {
                "start_time": 25.2681818,
                "end_time": 25.6272727,
                "pitch": 26,
                "velocity": 127,
                "duration": 0.3590909,
                "tempo": 120.0
            },
            {
                "start_time": 25.6272727,
                "end_time": 25.8681818,
                "pitch": 31,
                "velocity": 127,
                "duration": 0.2409091,
                "tempo": 120.0
            },
            {
                "start_time": 25.9886364,
                "end_time": 26.2272727,
                "pitch": 33,
                "velocity": 127,
                "duration": 0.2386364,
                "tempo": 120.0
            },
            {
                "start_time": 26.5818182,
                "end_time": 26.6977273,
                "pitch": 33,
                "velocity": 127,
                "duration": 0.1159091,
                "tempo": 120.0
            },
            {
                "start_time": 26.6977273,
                "end_time": 27.0590909,
                "pitch": 28,
                "velocity": 127,
                "duration": 0.3613636,
                "tempo": 120.0
            },
            {
                "start_time": 27.0590909,
                "end_time": 27.2977273,
                "pitch": 33,
                "velocity": 127,
                "duration": 0.2386364,
                "tempo": 120.0
            },
            {
                "start_time": 27.4181818,
                "end_time": 27.6590909,
                "pitch": 31,
                "velocity": 127,
                "duration": 0.2409091,
                "tempo": 120.0
            },
            {
                "start_time": 28.0181818,
                "end_time": 28.1386364,
                "pitch": 31,
                "velocity": 127,
                "duration": 0.1204545,
                "tempo": 120.0
            },
            {
                "start_time": 19.5272727,
                "end_time": 28.1386364,
                "pitch": 41,
                "velocity": 127,
                "duration": 8.6113636,
                "tempo": 120.0
            },
            {
                "start_time": 28.1386364,
                "end_time": 28.5,
                "pitch": 26,
                "velocity": 127,
                "duration": 0.3613636,
                "tempo": 120.0
            },
            {
                "start_time": 28.5,
                "end_time": 28.7386364,
                "pitch": 24,
                "velocity": 127,
                "duration": 0.2386364,
                "tempo": 120.0
            },
            {
                "start_time": 28.8590909,
                "end_time": 29.1,
                "pitch": 34,
                "velocity": 127,
                "duration": 0.2409091,
                "tempo": 120.0
            },
            {
                "start_time": 29.4522727,
                "end_time": 29.5681818,
                "pitch": 34,
                "velocity": 127,
                "duration": 0.1159091,
                "tempo": 120.0
            },
            {
                "start_time": 26.6977273,
                "end_time": 29.5681818,
                "pitch": 42,
                "velocity": 127,
                "duration": 2.8704545,
                "tempo": 120.0
            },
            {
                "start_time": 29.5681818,
                "end_time": 29.9295455,
                "pitch": 29,
                "velocity": 127,
                "duration": 0.3613636,
                "tempo": 120.0
            },
            {
                "start_time": 29.9295455,
                "end_time": 30.1704545,
                "pitch": 34,
                "velocity": 127,
                "duration": 0.2409091,
                "tempo": 120.0
            },
            {
                "start_time": 30.2886364,
                "end_time": 30.5295455,
                "pitch": 34,
                "velocity": 127,
                "duration": 0.2409091,
                "tempo": 120.0
            },
            {
                "start_time": 30.8909091,
                "end_time": 31.0090909,
                "pitch": 34,
                "velocity": 127,
                "duration": 0.1181818,
                "tempo": 120.0
            },
            {
                "start_time": 31.0090909,
                "end_time": 31.3704545,
                "pitch": 29,
                "velocity": 127,
                "duration": 0.3613636,
                "tempo": 120.0
            },
            {
                "start_time": 31.3704545,
                "end_time": 31.6090909,
                "pitch": 34,
                "velocity": 127,
                "duration": 0.2386364,
                "tempo": 120.0
            },
            {
                "start_time": 31.7295455,
                "end_time": 31.9636364,
                "pitch": 32,
                "velocity": 127,
                "duration": 0.2340909,
                "tempo": 120.0
            },
            {
                "start_time": 32.3204545,
                "end_time": 32.4409091,
                "pitch": 32,
                "velocity": 127,
                "duration": 0.1204545,
                "tempo": 120.0
            },
            {
                "start_time": 28.1386364,
                "end_time": 32.4409091,
                "pitch": 41,
                "velocity": 127,
                "duration": 4.3022727,
                "tempo": 120.0
            },
            {
                "start_time": 32.4409091,
                "end_time": 32.8,
                "pitch": 27,
                "velocity": 127,
                "duration": 0.3590909,
                "tempo": 120.0
            },
            {
                "start_time": 32.8,
                "end_time": 33.0409091,
                "pitch": 32,
                "velocity": 127,
                "duration": 0.2409091,
                "tempo": 120.0
            },
            {
                "start_time": 33.1613636,
                "end_time": 33.4,
                "pitch": 39,
                "velocity": 127,
                "duration": 0.2386364,
                "tempo": 120.0
            },
            {
                "start_time": 33.7613636,
                "end_time": 33.8818182,
                "pitch": 39,
                "velocity": 127,
                "duration": 0.1204545,
                "tempo": 120.0
            },
            {
                "start_time": 33.8818182,
                "end_time": 34.2409091,
                "pitch": 34,
                "velocity": 127,
                "duration": 0.3590909,
                "tempo": 120.0
            },
            {
                "start_time": 34.2409091,
                "end_time": 34.4818182,
                "pitch": 32,
                "velocity": 127,
                "duration": 0.2409091,
                "tempo": 120.0
            },
            {
                "start_time": 34.6022727,
                "end_time": 34.8409091,
                "pitch": 34,
                "velocity": 127,
                "duration": 0.2386364,
                "tempo": 120.0
            },
            {
                "start_time": 35.2022727,
                "end_time": 35.3227273,
                "pitch": 34,
                "velocity": 127,
                "duration": 0.1204545,
                "tempo": 120.0
            },
            {
                "start_time": 29.5681818,
                "end_time": 35.3227273,
                "pitch": 42,
                "velocity": 127,
                "duration": 5.7545455,
                "tempo": 120.0
            },
            {
                "start_time": 35.3227273,
                "end_time": 35.6704545,
                "pitch": 29,
                "velocity": 127,
                "duration": 0.3477273,
                "tempo": 120.0
            },
            {
                "start_time": 35.6704545,
                "end_time": 35.9181818,
                "pitch": 34,
                "velocity": 127,
                "duration": 0.2477273,
                "tempo": 120.0
            },
            {
                "start_time": 36.0409091,
                "end_time": 36.2727273,
                "pitch": 34,
                "velocity": 127,
                "duration": 0.2318182,
                "tempo": 120.0
            },
            {
                "start_time": 36.6295455,
                "end_time": 36.75,
                "pitch": 34,
                "velocity": 127,
                "duration": 0.1204545,
                "tempo": 120.0
            },
            {
                "start_time": 35.3227273,
                "end_time": 36.75,
                "pitch": 42,
                "velocity": 127,
                "duration": 1.4272727,
                "tempo": 120.0
            },
            {
                "start_time": 36.75,
                "end_time": 37.1090909,
                "pitch": 29,
                "velocity": 127,
                "duration": 0.3590909,
                "tempo": 120.0
            },
            {
                "start_time": 31.3704545,
                "end_time": 37.1113636,
                "pitch": 2,
                "velocity": 127,
                "duration": 5.7409091,
                "tempo": 120.0
            },
            {
                "start_time": 37.1090909,
                "end_time": 37.1113636,
                "pitch": 2,
                "velocity": 127,
                "duration": 0.0022727,
                "tempo": 120.0
            },
            {
                "start_time": 37.1113636,
                "end_time": 37.35,
                "pitch": 34,
                "velocity": 127,
                "duration": 0.2386364,
                "tempo": 120.0
            },
            {
                "start_time": 37.4704545,
                "end_time": 37.7113636,
                "pitch": 32,
                "velocity": 127,
                "duration": 0.2409091,
                "tempo": 120.0
            },
            {
                "start_time": 38.0704545,
                "end_time": 38.1909091,
                "pitch": 32,
                "velocity": 127,
                "duration": 0.1204545,
                "tempo": 120.0
            },
            {
                "start_time": 38.1909091,
                "end_time": 38.55,
                "pitch": 27,
                "velocity": 127,
                "duration": 0.3590909,
                "tempo": 120.0
            },
            {
                "start_time": 38.55,
                "end_time": 38.7909091,
                "pitch": 32,
                "velocity": 127,
                "duration": 0.2409091,
                "tempo": 120.0
            },
            {
                "start_time": 38.9113636,
                "end_time": 39.1431818,
                "pitch": 39,
                "velocity": 127,
                "duration": 0.2318182,
                "tempo": 120.0
            },
            {
                "start_time": 33.8818182,
                "end_time": 39.6204545,
                "pitch": 15,
                "velocity": 127,
                "duration": 5.7386364,
                "tempo": 120.0
            },
            {
                "start_time": 39.5,
                "end_time": 39.6204545,
                "pitch": 39,
                "velocity": 127,
                "duration": 0.1204545,
                "tempo": 120.0
            },
            {
                "start_time": 39.6204545,
                "end_time": 39.9818182,
                "pitch": 34,
                "velocity": 127,
                "duration": 0.3613636,
                "tempo": 120.0
            },
            {
                "start_time": 39.9818182,
                "end_time": 40.2204545,
                "pitch": 32,
                "velocity": 127,
                "duration": 0.2386364,
                "tempo": 120.0
            },
            {
                "start_time": 40.3409091,
                "end_time": 40.5818182,
                "pitch": 34,
                "velocity": 127,
                "duration": 0.2409091,
                "tempo": 120.0
            },
            {
                "start_time": 40.9431818,
                "end_time": 41.0613636,
                "pitch": 34,
                "velocity": 127,
                "duration": 0.1181818,
                "tempo": 120.0
            },
            {
                "start_time": 41.0613636,
                "end_time": 41.4227273,
                "pitch": 29,
                "velocity": 127,
                "duration": 0.3613636,
                "tempo": 120.0
            },
            {
                "start_time": 41.4227273,
                "end_time": 41.6613636,
                "pitch": 34,
                "velocity": 127,
                "duration": 0.2386364,
                "tempo": 120.0
            },
            {
                "start_time": 41.7818182,
                "end_time": 42.0227273,
                "pitch": 34,
                "velocity": 127,
                "duration": 0.2409091,
                "tempo": 120.0
            },
            {
                "start_time": 42.375,
                "end_time": 42.4931818,
                "pitch": 34,
                "velocity": 127,
                "duration": 0.1181818,
                "tempo": 120.0
            },
            {
                "start_time": 36.75,
                "end_time": 42.4931818,
                "pitch": 42,
                "velocity": 127,
                "duration": 5.7431818,
                "tempo": 120.0
            },
            {
                "start_time": 42.4931818,
                "end_time": 42.8522727,
                "pitch": 29,
                "velocity": 127,
                "duration": 0.3590909,
                "tempo": 120.0
            },
            {
                "start_time": 42.8522727,
                "end_time": 43.0931818,
                "pitch": 34,
                "velocity": 127,
                "duration": 0.2409091,
                "tempo": 120.0
            },
            {
                "start_time": 43.2136364,
                "end_time": 43.4522727,
                "pitch": 32,
                "velocity": 127,
                "duration": 0.2386364,
                "tempo": 120.0
            },
            {
                "start_time": 43.8136364,
                "end_time": 43.9318182,
                "pitch": 32,
                "velocity": 127,
                "duration": 0.1181818,
                "tempo": 120.0
            },
            {
                "start_time": 43.9340909,
                "end_time": 44.2931818,
                "pitch": 27,
                "velocity": 127,
                "duration": 0.3590909,
                "tempo": 120.0
            },
            {
                "start_time": 44.2931818,
                "end_time": 44.5340909,
                "pitch": 32,
                "velocity": 127,
                "duration": 0.2409091,
                "tempo": 120.0
            },
            {
                "start_time": 44.6545455,
                "end_time": 44.8931818,
                "pitch": 39,
                "velocity": 127,
                "duration": 0.2386364,
                "tempo": 120.0
            },
            {
                "start_time": 39.6204545,
                "end_time": 45.3727273,
                "pitch": 15,
                "velocity": 127,
                "duration": 5.7522727,
                "tempo": 120.0
            },
            {
                "start_time": 45.2545455,
                "end_time": 45.3727273,
                "pitch": 39,
                "velocity": 127,
                "duration": 0.1181818,
                "tempo": 120.0
            },
            {
                "start_time": 45.3727273,
                "end_time": 45.7227273,
                "pitch": 34,
                "velocity": 127,
                "duration": 0.35,
                "tempo": 120.0
            },
            {
                "start_time": 45.7227273,
                "end_time": 45.9636364,
                "pitch": 32,
                "velocity": 127,
                "duration": 0.2409091,
                "tempo": 120.0
            },
            {
                "start_time": 46.0840909,
                "end_time": 46.3227273,
                "pitch": 30,
                "velocity": 127,
                "duration": 0.2386364,
                "tempo": 120.0
            },
            {
                "start_time": 46.6840909,
                "end_time": 46.8045455,
                "pitch": 30,
                "velocity": 127,
                "duration": 0.1204545,
                "tempo": 120.0
            },
            {
                "start_time": 46.8045455,
                "end_time": 47.1636364,
                "pitch": 25,
                "velocity": 127,
                "duration": 0.3590909,
                "tempo": 120.0
            },
            {
                "start_time": 46.8045455,
                "end_time": 47.1636364,
                "pitch": 25,
                "velocity": 127,
                "duration": 0.3590909,
                "tempo": 120.0
            },
            {
                "start_time": 47.1636364,
                "end_time": 47.4045455,
                "pitch": 30,
                "velocity": 127,
                "duration": 0.2409091,
                "tempo": 120.0
            },
            {
                "start_time": 47.1636364,
                "end_time": 47.4045455,
                "pitch": 30,
                "velocity": 127,
                "duration": 0.2409091,
                "tempo": 120.0
            },
            {
                "start_time": 47.525,
                "end_time": 47.7636364,
                "pitch": 32,
                "velocity": 127,
                "duration": 0.2386364,
                "tempo": 120.0
            },
            {
                "start_time": 48.125,
                "end_time": 48.2454545,
                "pitch": 32,
                "velocity": 127,
                "duration": 0.1204545,
                "tempo": 120.0
            },
            {
                "start_time": 32.4409091,
                "end_time": 48.2454545,
                "pitch": 41,
                "velocity": 127,
                "duration": 15.8045455,
                "tempo": 120.0
            },
            {
                "start_time": 48.2454545,
                "end_time": 48.5954545,
                "pitch": 27,
                "velocity": 127,
                "duration": 0.35,
                "tempo": 120.0
            },
            {
                "start_time": 48.5954545,
                "end_time": 48.8340909,
                "pitch": 32,
                "velocity": 127,
                "duration": 0.2386364,
                "tempo": 120.0
            },
            {
                "start_time": 48.9545455,
                "end_time": 49.1954545,
                "pitch": 34,
                "velocity": 127,
                "duration": 0.2409091,
                "tempo": 120.0
            },
            {
                "start_time": 49.5545455,
                "end_time": 49.675,
                "pitch": 34,
                "velocity": 127,
                "duration": 0.1204545,
                "tempo": 120.0
            },
            {
                "start_time": 42.4931818,
                "end_time": 49.675,
                "pitch": 42,
                "velocity": 127,
                "duration": 7.1818182,
                "tempo": 120.0
            },
            {
                "start_time": 49.675,
                "end_time": 50.0363636,
                "pitch": 29,
                "velocity": 127,
                "duration": 0.3613636,
                "tempo": 120.0
            },
            {
                "start_time": 50.0363636,
                "end_time": 50.275,
                "pitch": 34,
                "velocity": 127,
                "duration": 0.2386364,
                "tempo": 120.0
            },
            {
                "start_time": 50.3954545,
                "end_time": 50.6363636,
                "pitch": 32,
                "velocity": 127,
                "duration": 0.2409091,
                "tempo": 120.0
            },
            {
                "start_time": 50.9954545,
                "end_time": 51.1159091,
                "pitch": 32,
                "velocity": 127,
                "duration": 0.1204545,
                "tempo": 120.0
            },
            {
                "start_time": 51.1159091,
                "end_time": 51.4772727,
                "pitch": 27,
                "velocity": 127,
                "duration": 0.3613636,
                "tempo": 120.0
            },
            {
                "start_time": 51.4772727,
                "end_time": 51.7090909,
                "pitch": 25,
                "velocity": 127,
                "duration": 0.2318182,
                "tempo": 120.0
            },
            {
                "start_time": 51.4772727,
                "end_time": 51.7090909,
                "pitch": 25,
                "velocity": 127,
                "duration": 0.2318182,
                "tempo": 120.0
            },
            {
                "start_time": 51.825,
                "end_time": 52.0659091,
                "pitch": 30,
                "velocity": 127,
                "duration": 0.2409091,
                "tempo": 120.0
            },
            {
                "start_time": 52.4272727,
                "end_time": 52.5454545,
                "pitch": 30,
                "velocity": 127,
                "duration": 0.1181818,
                "tempo": 120.0
            },
            {
                "start_time": 52.5454545,
                "end_time": 52.9068182,
                "pitch": 25,
                "velocity": 127,
                "duration": 0.3613636,
                "tempo": 120.0
            },
            {
                "start_time": 52.9068182,
                "end_time": 53.1477273,
                "pitch": 30,
                "velocity": 127,
                "duration": 0.2409091,
                "tempo": 120.0
            },
            {
                "start_time": 52.9068182,
                "end_time": 53.1477273,
                "pitch": 30,
                "velocity": 127,
                "duration": 0.2409091,
                "tempo": 120.0
            },
            {
                "start_time": 53.2659091,
                "end_time": 53.5068182,
                "pitch": 32,
                "velocity": 127,
                "duration": 0.2409091,
                "tempo": 120.0
            },
            {
                "start_time": 53.8681818,
                "end_time": 53.9863636,
                "pitch": 32,
                "velocity": 127,
                "duration": 0.1181818,
                "tempo": 120.0
            },
            {
                "start_time": 48.2454545,
                "end_time": 53.9863636,
                "pitch": 41,
                "velocity": 127,
                "duration": 5.7409091,
                "tempo": 120.0
            },
            {
                "start_time": 53.9863636,
                "end_time": 54.3477273,
                "pitch": 27,
                "velocity": 127,
                "duration": 0.3613636,
                "tempo": 120.0
            },
            {
                "start_time": 54.3477273,
                "end_time": 54.5886364,
                "pitch": 32,
                "velocity": 127,
                "duration": 0.2409091,
                "tempo": 120.0
            },
            {
                "start_time": 54.7068182,
                "end_time": 54.9409091,
                "pitch": 34,
                "velocity": 127,
                "duration": 0.2340909,
                "tempo": 120.0
            },
            {
                "start_time": 55.2977273,
                "end_time": 55.4181818,
                "pitch": 34,
                "velocity": 127,
                "duration": 0.1204545,
                "tempo": 120.0
            },
            {
                "start_time": 49.675,
                "end_time": 55.4181818,
                "pitch": 42,
                "velocity": 127,
                "duration": 5.7431818,
                "tempo": 120.0
            },
            {
                "start_time": 55.4181818,
                "end_time": 55.7772727,
                "pitch": 29,
                "velocity": 127,
                "duration": 0.3590909,
                "tempo": 120.0
            },
            {
                "start_time": 55.7772727,
                "end_time": 56.0181818,
                "pitch": 34,
                "velocity": 127,
                "duration": 0.2409091,
                "tempo": 120.0
            },
            {
                "start_time": 56.1386364,
                "end_time": 56.3772727,
                "pitch": 32,
                "velocity": 127,
                "duration": 0.2386364,
                "tempo": 120.0
            },
            {
                "start_time": 56.7386364,
                "end_time": 56.8590909,
                "pitch": 32,
                "velocity": 127,
                "duration": 0.1204545,
                "tempo": 120.0
            },
            {
                "start_time": 56.8590909,
                "end_time": 57.2181818,
                "pitch": 27,
                "velocity": 127,
                "duration": 0.3590909,
                "tempo": 120.0
            },
            {
                "start_time": 57.2181818,
                "end_time": 57.4590909,
                "pitch": 25,
                "velocity": 127,
                "duration": 0.2409091,
                "tempo": 120.0
            },
            {
                "start_time": 57.2181818,
                "end_time": 57.4590909,
                "pitch": 25,
                "velocity": 127,
                "duration": 0.2409091,
                "tempo": 120.0
            },
            {
                "start_time": 57.5795455,
                "end_time": 57.8181818,
                "pitch": 34,
                "velocity": 127,
                "duration": 0.2386364,
                "tempo": 120.0
            },
            {
                "start_time": 59.9659091,
                "end_time": 60.0886364,
                "pitch": 34,
                "velocity": 127,
                "duration": 0.1227273,
                "tempo": 120.0
            },
            {
                "start_time": 60.0886364,
                "end_time": 60.3272727,
                "pitch": 34,
                "velocity": 127,
                "duration": 0.2386364,
                "tempo": 120.0
            },
            {
                "start_time": 60.3272727,
                "end_time": 60.4477273,
                "pitch": 34,
                "velocity": 127,
                "duration": 0.1204545,
                "tempo": 120.0
            },
            {
                "start_time": 60.4477273,
                "end_time": 60.6886364,
                "pitch": 32,
                "velocity": 127,
                "duration": 0.2409091,
                "tempo": 120.0
            },
            {
                "start_time": 61.8795455,
                "end_time": 62.1181818,
                "pitch": 39,
                "velocity": 127,
                "duration": 0.2386364,
                "tempo": 120.0
            },
            {
                "start_time": 62.5977273,
                "end_time": 62.9590909,
                "pitch": 30,
                "velocity": 127,
                "duration": 0.3613636,
                "tempo": 120.0
            },
            {
                "start_time": 62.9590909,
                "end_time": 63.2,
                "pitch": 32,
                "velocity": 127,
                "duration": 0.2409091,
                "tempo": 120.0
            },
            {
                "start_time": 63.3181818,
                "end_time": 63.5590909,
                "pitch": 34,
                "velocity": 127,
                "duration": 0.2409091,
                "tempo": 120.0
            },
            {
                "start_time": 63.9113636,
                "end_time": 64.0295455,
                "pitch": 34,
                "velocity": 127,
                "duration": 0.1181818,
                "tempo": 120.0
            },
            {
                "start_time": 55.4181818,
                "end_time": 64.0295455,
                "pitch": 42,
                "velocity": 127,
                "duration": 8.6113636,
                "tempo": 120.0
            },
            {
                "start_time": 64.0295455,
                "end_time": 64.3886364,
                "pitch": 29,
                "velocity": 127,
                "duration": 0.3590909,
                "tempo": 120.0
            },
            {
                "start_time": 64.3886364,
                "end_time": 64.6295455,
                "pitch": 34,
                "velocity": 127,
                "duration": 0.2409091,
                "tempo": 120.0
            },
            {
                "start_time": 64.75,
                "end_time": 64.9954545,
                "pitch": 34,
                "velocity": 127,
                "duration": 0.2454545,
                "tempo": 120.0
            },
            {
                "start_time": 65.3522727,
                "end_time": 65.4681818,
                "pitch": 34,
                "velocity": 127,
                "duration": 0.1159091,
                "tempo": 120.0
            },
            {
                "start_time": 41.4227273,
                "end_time": 65.8272727,
                "pitch": 2,
                "velocity": 127,
                "duration": 24.4045455,
                "tempo": 120.0
            },
            {
                "start_time": 65.4681818,
                "end_time": 65.8272727,
                "pitch": 29,
                "velocity": 127,
                "duration": 0.3590909,
                "tempo": 120.0
            },
            {
                "start_time": 65.8272727,
                "end_time": 66.0681818,
                "pitch": 34,
                "velocity": 127,
                "duration": 0.2409091,
                "tempo": 120.0
            },
            {
                "start_time": 66.1886364,
                "end_time": 66.4295455,
                "pitch": 32,
                "velocity": 127,
                "duration": 0.2409091,
                "tempo": 120.0
            },
            {
                "start_time": 66.7818182,
                "end_time": 66.8977273,
                "pitch": 32,
                "velocity": 127,
                "duration": 0.1159091,
                "tempo": 120.0
            },
            {
                "start_time": 53.9863636,
                "end_time": 66.8977273,
                "pitch": 41,
                "velocity": 127,
                "duration": 12.9113636,
                "tempo": 120.0
            },
            {
                "start_time": 66.8977273,
                "end_time": 67.2659091,
                "pitch": 27,
                "velocity": 127,
                "duration": 0.3681818,
                "tempo": 120.0
            },
            {
                "start_time": 67.2659091,
                "end_time": 67.5,
                "pitch": 32,
                "velocity": 127,
                "duration": 0.2340909,
                "tempo": 120.0
            },
            {
                "start_time": 67.6159091,
                "end_time": 67.8568182,
                "pitch": 39,
                "velocity": 127,
                "duration": 0.2409091,
                "tempo": 120.0
            },
            {
                "start_time": 45.3727273,
                "end_time": 68.3363636,
                "pitch": 15,
                "velocity": 127,
                "duration": 22.9636364,
                "tempo": 120.0
            },
            {
                "start_time": 68.2159091,
                "end_time": 68.3363636,
                "pitch": 39,
                "velocity": 127,
                "duration": 0.1204545,
                "tempo": 120.0
            },
            {
                "start_time": 68.3363636,
                "end_time": 68.6977273,
                "pitch": 34,
                "velocity": 127,
                "duration": 0.3613636,
                "tempo": 120.0
            },
            {
                "start_time": 68.6977273,
                "end_time": 68.9363636,
                "pitch": 32,
                "velocity": 127,
                "duration": 0.2386364,
                "tempo": 120.0
            },
            {
                "start_time": 69.0568182,
                "end_time": 69.2977273,
                "pitch": 32,
                "velocity": 127,
                "duration": 0.2409091,
                "tempo": 120.0
            },
            {
                "start_time": 69.6568182,
                "end_time": 69.7772727,
                "pitch": 32,
                "velocity": 127,
                "duration": 0.1204545,
                "tempo": 120.0
            },
            {
                "start_time": 66.8977273,
                "end_time": 69.7772727,
                "pitch": 41,
                "velocity": 127,
                "duration": 2.8795455,
                "tempo": 120.0
            },
            {
                "start_time": 69.7772727,
                "end_time": 70.1272727,
                "pitch": 27,
                "velocity": 127,
                "duration": 0.35,
                "tempo": 120.0
            },
            {
                "start_time": 70.1272727,
                "end_time": 70.3681818,
                "pitch": 32,
                "velocity": 127,
                "duration": 0.2409091,
                "tempo": 120.0
            },
            {
                "start_time": 70.4886364,
                "end_time": 70.7272727,
                "pitch": 32,
                "velocity": 127,
                "duration": 0.2386364,
                "tempo": 120.0
            },
            {
                "start_time": 71.0886364,
                "end_time": 71.2090909,
                "pitch": 32,
                "velocity": 127,
                "duration": 0.1204545,
                "tempo": 120.0
            },
            {
                "start_time": 71.2090909,
                "end_time": 71.5681818,
                "pitch": 27,
                "velocity": 127,
                "duration": 0.3590909,
                "tempo": 120.0
            },
            {
                "start_time": 71.5681818,
                "end_time": 71.8090909,
                "pitch": 32,
                "velocity": 127,
                "duration": 0.2409091,
                "tempo": 120.0
            },
            {
                "start_time": 71.9295455,
                "end_time": 72.1681818,
                "pitch": 30,
                "velocity": 127,
                "duration": 0.2386364,
                "tempo": 120.0
            },
            {
                "start_time": 72.5295455,
                "end_time": 72.6477273,
                "pitch": 30,
                "velocity": 127,
                "duration": 0.1181818,
                "tempo": 120.0
            },
            {
                "start_time": 72.6477273,
                "end_time": 72.9977273,
                "pitch": 25,
                "velocity": 127,
                "duration": 0.35,
                "tempo": 120.0
            },
            {
                "start_time": 72.6477273,
                "end_time": 72.9977273,
                "pitch": 25,
                "velocity": 127,
                "duration": 0.35,
                "tempo": 120.0
            },
            {
                "start_time": 72.9977273,
                "end_time": 73.2386364,
                "pitch": 30,
                "velocity": 127,
                "duration": 0.2409091,
                "tempo": 120.0
            },
            {
                "start_time": 72.9977273,
                "end_time": 73.2386364,
                "pitch": 30,
                "velocity": 127,
                "duration": 0.2409091,
                "tempo": 120.0
            },
            {
                "start_time": 73.3590909,
                "end_time": 73.6,
                "pitch": 37,
                "velocity": 127,
                "duration": 0.2409091,
                "tempo": 120.0
            },
            {
                "start_time": 73.9590909,
                "end_time": 74.0795455,
                "pitch": 37,
                "velocity": 127,
                "duration": 0.1204545,
                "tempo": 120.0
            },
            {
                "start_time": 74.0795455,
                "end_time": 74.4386364,
                "pitch": 32,
                "velocity": 127,
                "duration": 0.3590909,
                "tempo": 120.0
            },
            {
                "start_time": 64.0295455,
                "end_time": 74.4386364,
                "pitch": 42,
                "velocity": 127,
                "duration": 10.4090909,
                "tempo": 120.0
            },
            {
                "start_time": 74.4386364,
                "end_time": 74.6795455,
                "pitch": 30,
                "velocity": 127,
                "duration": 0.2409091,
                "tempo": 120.0
            },
            {
                "start_time": 74.8,
                "end_time": 75.0386364,
                "pitch": 32,
                "velocity": 127,
                "duration": 0.2386364,
                "tempo": 120.0
            },
            {
                "start_time": 75.4,
                "end_time": 75.5204545,
                "pitch": 32,
                "velocity": 127,
                "duration": 0.1204545,
                "tempo": 120.0
            },
            {
                "start_time": 69.7772727,
                "end_time": 75.5204545,
                "pitch": 41,
                "velocity": 127,
                "duration": 5.7431818,
                "tempo": 120.0
            },
            {
                "start_time": 75.5204545,
                "end_time": 75.8795455,
                "pitch": 27,
                "velocity": 127,
                "duration": 0.3590909,
                "tempo": 120.0
            },
            {
                "start_time": 75.8795455,
                "end_time": 76.1204545,
                "pitch": 32,
                "velocity": 127,
                "duration": 0.2409091,
                "tempo": 120.0
            },
            {
                "start_time": 76.2409091,
                "end_time": 76.4795455,
                "pitch": 32,
                "velocity": 127,
                "duration": 0.2386364,
                "tempo": 120.0
            },
            {
                "start_time": 76.8409091,
                "end_time": 76.9613636,
                "pitch": 32,
                "velocity": 127,
                "duration": 0.1204545,
                "tempo": 120.0
            },
            {
                "start_time": 75.5204545,
                "end_time": 76.9613636,
                "pitch": 41,
                "velocity": 127,
                "duration": 1.4409091,
                "tempo": 120.0
            },
            {
                "start_time": 76.9613636,
                "end_time": 77.3113636,
                "pitch": 27,
                "velocity": 127,
                "duration": 0.35,
                "tempo": 120.0
            },
            {
                "start_time": 77.3113636,
                "end_time": 77.55,
                "pitch": 32,
                "velocity": 127,
                "duration": 0.2386364,
                "tempo": 120.0
            },
            {
                "start_time": 77.6704545,
                "end_time": 77.9113636,
                "pitch": 30,
                "velocity": 127,
                "duration": 0.2409091,
                "tempo": 120.0
            },
            {
                "start_time": 78.2704545,
                "end_time": 78.3909091,
                "pitch": 30,
                "velocity": 127,
                "duration": 0.1204545,
                "tempo": 120.0
            },
            {
                "start_time": 78.3909091,
                "end_time": 78.7522727,
                "pitch": 25,
                "velocity": 127,
                "duration": 0.3613636,
                "tempo": 120.0
            },
            {
                "start_time": 78.7522727,
                "end_time": 78.9909091,
                "pitch": 30,
                "velocity": 127,
                "duration": 0.2386364,
                "tempo": 120.0
            },
            {
                "start_time": 78.7522727,
                "end_time": 78.9909091,
                "pitch": 30,
                "velocity": 127,
                "duration": 0.2386364,
                "tempo": 120.0
            },
            {
                "start_time": 79.1113636,
                "end_time": 79.3522727,
                "pitch": 37,
                "velocity": 127,
                "duration": 0.2409091,
                "tempo": 120.0
            },
            {
                "start_time": 79.7113636,
                "end_time": 79.8318182,
                "pitch": 37,
                "velocity": 127,
                "duration": 0.1204545,
                "tempo": 120.0
            },
            {
                "start_time": 79.8318182,
                "end_time": 80.1818182,
                "pitch": 32,
                "velocity": 127,
                "duration": 0.35,
                "tempo": 120.0
            },
            {
                "start_time": 74.4386364,
                "end_time": 80.1818182,
                "pitch": 42,
                "velocity": 127,
                "duration": 5.7431818,
                "tempo": 120.0
            },
            {
                "start_time": 80.1818182,
                "end_time": 80.4227273,
                "pitch": 30,
                "velocity": 127,
                "duration": 0.2409091,
                "tempo": 120.0
            },
            {
                "start_time": 80.5409091,
                "end_time": 80.7818182,
                "pitch": 32,
                "velocity": 127,
                "duration": 0.2409091,
                "tempo": 120.0
            },
            {
                "start_time": 81.1431818,
                "end_time": 81.2613636,
                "pitch": 32,
                "velocity": 127,
                "duration": 0.1181818,
                "tempo": 120.0
            },
            {
                "start_time": 81.2613636,
                "end_time": 81.6227273,
                "pitch": 27,
                "velocity": 127,
                "duration": 0.3613636,
                "tempo": 120.0
            },
            {
                "start_time": 81.6227273,
                "end_time": 81.8636364,
                "pitch": 32,
                "velocity": 127,
                "duration": 0.2409091,
                "tempo": 120.0
            },
            {
                "start_time": 81.9818182,
                "end_time": 82.2227273,
                "pitch": 32,
                "velocity": 127,
                "duration": 0.2409091,
                "tempo": 120.0
            },
            {
                "start_time": 82.5840909,
                "end_time": 82.7022727,
                "pitch": 32,
                "velocity": 127,
                "duration": 0.1181818,
                "tempo": 120.0
            },
            {
                "start_time": 76.9613636,
                "end_time": 82.7022727,
                "pitch": 41,
                "velocity": 127,
                "duration": 5.7409091,
                "tempo": 120.0
            },
            {
                "start_time": 82.7022727,
                "end_time": 83.0522727,
                "pitch": 27,
                "velocity": 127,
                "duration": 0.35,
                "tempo": 120.0
            },
            {
                "start_time": 83.0522727,
                "end_time": 83.2931818,
                "pitch": 32,
                "velocity": 127,
                "duration": 0.2409091,
                "tempo": 120.0
            },
            {
                "start_time": 83.4136364,
                "end_time": 83.6522727,
                "pitch": 30,
                "velocity": 127,
                "duration": 0.2386364,
                "tempo": 120.0
            },
            {
                "start_time": 84.0136364,
                "end_time": 84.1340909,
                "pitch": 30,
                "velocity": 127,
                "duration": 0.1204545,
                "tempo": 120.0
            },
            {
                "start_time": 84.1340909,
                "end_time": 84.4931818,
                "pitch": 25,
                "velocity": 127,
                "duration": 0.3590909,
                "tempo": 120.0
            },
            {
                "start_time": 84.4931818,
                "end_time": 84.7340909,
                "pitch": 30,
                "velocity": 127,
                "duration": 0.2409091,
                "tempo": 120.0
            },
            {
                "start_time": 84.4931818,
                "end_time": 84.7340909,
                "pitch": 30,
                "velocity": 127,
                "duration": 0.2409091,
                "tempo": 120.0
            },
            {
                "start_time": 84.8545455,
                "end_time": 85.0931818,
                "pitch": 37,
                "velocity": 127,
                "duration": 0.2386364,
                "tempo": 120.0
            },
            {
                "start_time": 85.4545455,
                "end_time": 85.575,
                "pitch": 37,
                "velocity": 127,
                "duration": 0.1204545,
                "tempo": 120.0
            },
            {
                "start_time": 85.575,
                "end_time": 85.9340909,
                "pitch": 32,
                "velocity": 127,
                "duration": 0.3590909,
                "tempo": 120.0
            },
            {
                "start_time": 85.9340909,
                "end_time": 86.1681818,
                "pitch": 30,
                "velocity": 127,
                "duration": 0.2340909,
                "tempo": 120.0
            },
            {
                "start_time": 86.2840909,
                "end_time": 86.525,
                "pitch": 28,
                "velocity": 127,
                "duration": 0.2409091,
                "tempo": 120.0
            },
            {
                "start_time": 86.8840909,
                "end_time": 87.0045455,
                "pitch": 28,
                "velocity": 127,
                "duration": 0.1204545,
                "tempo": 120.0
            },
            {
                "start_time": 87.0045455,
                "end_time": 87.3636364,
                "pitch": 23,
                "velocity": 127,
                "duration": 0.3590909,
                "tempo": 120.0
            },
            {
                "start_time": 87.3636364,
                "end_time": 87.6045455,
                "pitch": 28,
                "velocity": 127,
                "duration": 0.2409091,
                "tempo": 120.0
            },
            {
                "start_time": 87.3636364,
                "end_time": 87.9659091,
                "pitch": 30,
                "velocity": 127,
                "duration": 0.6022727,
                "tempo": 120.0
            },
            {
                "start_time": 87.725,
                "end_time": 87.9659091,
                "pitch": 30,
                "velocity": 127,
                "duration": 0.2409091,
                "tempo": 120.0
            },
            {
                "start_time": 88.325,
                "end_time": 88.4454545,
                "pitch": 30,
                "velocity": 127,
                "duration": 0.1204545,
                "tempo": 120.0
            },
            {
                "start_time": 88.4454545,
                "end_time": 88.8045455,
                "pitch": 25,
                "velocity": 127,
                "duration": 0.3590909,
                "tempo": 120.0
            },
            {
                "start_time": 88.4454545,
                "end_time": 88.8045455,
                "pitch": 25,
                "velocity": 127,
                "duration": 0.3590909,
                "tempo": 120.0
            },
            {
                "start_time": 88.8045455,
                "end_time": 89.0454545,
                "pitch": 30,
                "velocity": 127,
                "duration": 0.2409091,
                "tempo": 120.0
            },
            {
                "start_time": 88.8045455,
                "end_time": 89.0454545,
                "pitch": 30,
                "velocity": 127,
                "duration": 0.2409091,
                "tempo": 120.0
            },
            {
                "start_time": 89.1659091,
                "end_time": 89.3977273,
                "pitch": 32,
                "velocity": 127,
                "duration": 0.2318182,
                "tempo": 120.0
            },
            {
                "start_time": 89.7568182,
                "end_time": 89.875,
                "pitch": 32,
                "velocity": 127,
                "duration": 0.1181818,
                "tempo": 120.0
            },
            {
                "start_time": 82.7022727,
                "end_time": 89.875,
                "pitch": 41,
                "velocity": 127,
                "duration": 7.1727273,
                "tempo": 120.0
            },
            {
                "start_time": 89.875,
                "end_time": 90.2363636,
                "pitch": 27,
                "velocity": 127,
                "duration": 0.3613636,
                "tempo": 120.0
            },
            {
                "start_time": 90.2363636,
                "end_time": 90.475,
                "pitch": 32,
                "velocity": 127,
                "duration": 0.2386364,
                "tempo": 120.0
            },
            {
                "start_time": 90.5954545,
                "end_time": 90.8363636,
                "pitch": 30,
                "velocity": 127,
                "duration": 0.2409091,
                "tempo": 120.0
            },
            {
                "start_time": 91.1977273,
                "end_time": 91.3159091,
                "pitch": 30,
                "velocity": 127,
                "duration": 0.1181818,
                "tempo": 120.0
            },
            {
                "start_time": 87.0045455,
                "end_time": 91.6772727,
                "pitch": 8,
                "velocity": 127,
                "duration": 4.6727273,
                "tempo": 120.0
            },
            {
                "start_time": 91.3159091,
                "end_time": 91.6772727,
                "pitch": 25,
                "velocity": 127,
                "duration": 0.3613636,
                "tempo": 120.0
            },
            {
                "start_time": 91.6772727,
                "end_time": 91.9181818,
                "pitch": 23,
                "velocity": 127,
                "duration": 0.2409091,
                "tempo": 120.0
            },
            {
                "start_time": 92.0363636,
                "end_time": 92.2704545,
                "pitch": 28,
                "velocity": 127,
                "duration": 0.2340909,
                "tempo": 120.0
            },
            {
                "start_time": 91.6772727,
                "end_time": 92.7545455,
                "pitch": 8,
                "velocity": 127,
                "duration": 1.0772727,
                "tempo": 120.0
            },
            {
                "start_time": 92.6318182,
                "end_time": 92.7545455,
                "pitch": 28,
                "velocity": 127,
                "duration": 0.1227273,
                "tempo": 120.0
            },
            {
                "start_time": 92.7545455,
                "end_time": 93.1045455,
                "pitch": 23,
                "velocity": 127,
                "duration": 0.35,
                "tempo": 120.0
            },
            {
                "start_time": 93.1045455,
                "end_time": 93.3454545,
                "pitch": 28,
                "velocity": 127,
                "duration": 0.2409091,
                "tempo": 120.0
            },
            {
                "start_time": 93.1045455,
                "end_time": 93.7045455,
                "pitch": 30,
                "velocity": 127,
                "duration": 0.6,
                "tempo": 120.0
            },
            {
                "start_time": 93.4659091,
                "end_time": 93.7045455,
                "pitch": 30,
                "velocity": 127,
                "duration": 0.2386364,
                "tempo": 120.0
            },
            {
                "start_time": 94.0659091,
                "end_time": 94.1863636,
                "pitch": 30,
                "velocity": 127,
                "duration": 0.1204545,
                "tempo": 120.0
            },
            {
                "start_time": 94.1863636,
                "end_time": 94.5454545,
                "pitch": 25,
                "velocity": 127,
                "duration": 0.3590909,
                "tempo": 120.0
            },
            {
                "start_time": 94.1863636,
                "end_time": 94.5454545,
                "pitch": 25,
                "velocity": 127,
                "duration": 0.3590909,
                "tempo": 120.0
            },
            {
                "start_time": 94.5454545,
                "end_time": 94.7863636,
                "pitch": 30,
                "velocity": 127,
                "duration": 0.2409091,
                "tempo": 120.0
            },
            {
                "start_time": 94.5454545,
                "end_time": 94.7863636,
                "pitch": 30,
                "velocity": 127,
                "duration": 0.2409091,
                "tempo": 120.0
            },
            {
                "start_time": 94.9068182,
                "end_time": 95.1454545,
                "pitch": 32,
                "velocity": 127,
                "duration": 0.2386364,
                "tempo": 120.0
            },
            {
                "start_time": 95.5068182,
                "end_time": 95.6272727,
                "pitch": 32,
                "velocity": 127,
                "duration": 0.1204545,
                "tempo": 120.0
            },
            {
                "start_time": 89.875,
                "end_time": 95.6272727,
                "pitch": 41,
                "velocity": 127,
                "duration": 5.7522727,
                "tempo": 120.0
            },
            {
                "start_time": 95.6272727,
                "end_time": 95.9772727,
                "pitch": 27,
                "velocity": 127,
                "duration": 0.35,
                "tempo": 120.0
            },
            {
                "start_time": 95.9772727,
                "end_time": 96.2159091,
                "pitch": 32,
                "velocity": 127,
                "duration": 0.2386364,
                "tempo": 120.0
            },
            {
                "start_time": 96.3363636,
                "end_time": 96.5772727,
                "pitch": 30,
                "velocity": 127,
                "duration": 0.2409091,
                "tempo": 120.0
            },
            {
                "start_time": 96.9363636,
                "end_time": 97.0568182,
                "pitch": 30,
                "velocity": 127,
                "duration": 0.1204545,
                "tempo": 120.0
            },
            {
                "start_time": 92.7545455,
                "end_time": 97.4159091,
                "pitch": 8,
                "velocity": 127,
                "duration": 4.6613636,
                "tempo": 120.0
            },
            {
                "start_time": 97.0568182,
                "end_time": 97.4159091,
                "pitch": 25,
                "velocity": 127,
                "duration": 0.3590909,
                "tempo": 120.0
            },
            {
                "start_time": 97.4159091,
                "end_time": 97.6568182,
                "pitch": 23,
                "velocity": 127,
                "duration": 0.2409091,
                "tempo": 120.0
            },
            {
                "start_time": 97.7772727,
                "end_time": 98.0181818,
                "pitch": 34,
                "velocity": 127,
                "duration": 0.2409091,
                "tempo": 120.0
            }
        ],
        "Electric Piano 1": [
            {
                "start_time": 0.4886364,
                "end_time": 0.6090909,
                "pitch": 60,
                "velocity": 101,
                "duration": 0.1204545,
                "tempo": 120.0
            },
            {
                "start_time": 1.2090909,
                "end_time": 1.3295455,
                "pitch": 60,
                "velocity": 101,
                "duration": 0.1204545,
                "tempo": 120.0
            },
            {
                "start_time": 1.9295455,
                "end_time": 2.05,
                "pitch": 60,
                "velocity": 101,
                "duration": 0.1204545,
                "tempo": 120.0
            },
            {
                "start_time": 2.65,
                "end_time": 2.7704545,
                "pitch": 60,
                "velocity": 101,
                "duration": 0.1204545,
                "tempo": 120.0
            },
            {
                "start_time": 3.3704545,
                "end_time": 3.4909091,
                "pitch": 59,
                "velocity": 101,
                "duration": 0.1204545,
                "tempo": 120.0
            },
            {
                "start_time": 4.0818182,
                "end_time": 4.2022727,
                "pitch": 59,
                "velocity": 101,
                "duration": 0.1204545,
                "tempo": 120.0
            },
            {
                "start_time": 4.8022727,
                "end_time": 4.9227273,
                "pitch": 62,
                "velocity": 101,
                "duration": 0.1204545,
                "tempo": 120.0
            },
            {
                "start_time": 5.5227273,
                "end_time": 5.6431818,
                "pitch": 62,
                "velocity": 101,
                "duration": 0.1204545,
                "tempo": 120.0
            },
            {
                "start_time": 6.2431818,
                "end_time": 6.3636364,
                "pitch": 60,
                "velocity": 101,
                "duration": 0.1204545,
                "tempo": 120.0
            },
            {
                "start_time": 6.9636364,
                "end_time": 7.0818182,
                "pitch": 60,
                "velocity": 101,
                "duration": 0.1181818,
                "tempo": 120.0
            },
            {
                "start_time": 7.6727273,
                "end_time": 7.7931818,
                "pitch": 60,
                "velocity": 101,
                "duration": 0.1204545,
                "tempo": 120.0
            },
            {
                "start_time": 8.3931818,
                "end_time": 8.5136364,
                "pitch": 60,
                "velocity": 101,
                "duration": 0.1204545,
                "tempo": 120.0
            },
            {
                "start_time": 9.1136364,
                "end_time": 9.2340909,
                "pitch": 59,
                "velocity": 101,
                "duration": 0.1204545,
                "tempo": 120.0
            },
            {
                "start_time": 9.8340909,
                "end_time": 9.9545455,
                "pitch": 59,
                "velocity": 101,
                "duration": 0.1204545,
                "tempo": 120.0
            },
            {
                "start_time": 10.5545455,
                "end_time": 10.6704545,
                "pitch": 62,
                "velocity": 101,
                "duration": 0.1159091,
                "tempo": 120.0
            },
            {
                "start_time": 11.2636364,
                "end_time": 11.3840909,
                "pitch": 62,
                "velocity": 101,
                "duration": 0.1204545,
                "tempo": 120.0
            },
            {
                "start_time": 11.9840909,
                "end_time": 12.1045455,
                "pitch": 60,
                "velocity": 101,
                "duration": 0.1204545,
                "tempo": 120.0
            },
            {
                "start_time": 12.7045455,
                "end_time": 12.825,
                "pitch": 60,
                "velocity": 101,
                "duration": 0.1204545,
                "tempo": 120.0
            },
            {
                "start_time": 13.425,
                "end_time": 13.5454545,
                "pitch": 60,
                "velocity": 101,
                "duration": 0.1204545,
                "tempo": 120.0
            },
            {
                "start_time": 14.1363636,
                "end_time": 14.2545455,
                "pitch": 60,
                "velocity": 101,
                "duration": 0.1181818,
                "tempo": 120.0
            },
            {
                "start_time": 14.8568182,
                "end_time": 14.975,
                "pitch": 59,
                "velocity": 101,
                "duration": 0.1181818,
                "tempo": 120.0
            },
            {
                "start_time": 15.5772727,
                "end_time": 15.6954545,
                "pitch": 59,
                "velocity": 101,
                "duration": 0.1181818,
                "tempo": 120.0
            },
            {
                "start_time": 16.2977273,
                "end_time": 16.4159091,
                "pitch": 62,
                "velocity": 101,
                "duration": 0.1181818,
                "tempo": 120.0
            },
            {
                "start_time": 17.0181818,
                "end_time": 17.1340909,
                "pitch": 62,
                "velocity": 101,
                "duration": 0.1159091,
                "tempo": 120.0
            },
            {
                "start_time": 17.7272727,
                "end_time": 17.8477273,
                "pitch": 60,
                "velocity": 101,
                "duration": 0.1204545,
                "tempo": 120.0
            },
            {
                "start_time": 18.4477273,
                "end_time": 18.5681818,
                "pitch": 60,
                "velocity": 101,
                "duration": 0.1204545,
                "tempo": 120.0
            },
            {
                "start_time": 19.1681818,
                "end_time": 19.2886364,
                "pitch": 59,
                "velocity": 101,
                "duration": 0.1204545,
                "tempo": 120.0
            },
            {
                "start_time": 19.8772727,
                "end_time": 20.0,
                "pitch": 59,
                "velocity": 101,
                "duration": 0.1227273,
                "tempo": 120.0
            },
            {
                "start_time": 20.5954545,
                "end_time": 20.7159091,
                "pitch": 60,
                "velocity": 101,
                "duration": 0.1204545,
                "tempo": 120.0
            },
            {
                "start_time": 21.3159091,
                "end_time": 21.4363636,
                "pitch": 60,
                "velocity": 101,
                "duration": 0.1204545,
                "tempo": 120.0
            },
            {
                "start_time": 22.0363636,
                "end_time": 22.1568182,
                "pitch": 59,
                "velocity": 101,
                "duration": 0.1204545,
                "tempo": 120.0
            },
            {
                "start_time": 22.7568182,
                "end_time": 22.8772727,
                "pitch": 59,
                "velocity": 101,
                "duration": 0.1204545,
                "tempo": 120.0
            },
            {
                "start_time": 23.4659091,
                "end_time": 23.5863636,
                "pitch": 60,
                "velocity": 101,
                "duration": 0.1204545,
                "tempo": 120.0
            },
            {
                "start_time": 24.1886364,
                "end_time": 24.3068182,
                "pitch": 60,
                "velocity": 101,
                "duration": 0.1181818,
                "tempo": 120.0
            },
            {
                "start_time": 24.9068182,
                "end_time": 25.0272727,
                "pitch": 59,
                "velocity": 101,
                "duration": 0.1204545,
                "tempo": 120.0
            },
            {
                "start_time": 25.6272727,
                "end_time": 25.7477273,
                "pitch": 59,
                "velocity": 101,
                "duration": 0.1204545,
                "tempo": 120.0
            },
            {
                "start_time": 26.3477273,
                "end_time": 26.4659091,
                "pitch": 60,
                "velocity": 101,
                "duration": 0.1181818,
                "tempo": 120.0
            },
            {
                "start_time": 27.0590909,
                "end_time": 27.1795455,
                "pitch": 60,
                "velocity": 101,
                "duration": 0.1204545,
                "tempo": 120.0
            },
            {
                "start_time": 27.7795455,
                "end_time": 27.9,
                "pitch": 59,
                "velocity": 101,
                "duration": 0.1204545,
                "tempo": 120.0
            },
            {
                "start_time": 28.5,
                "end_time": 28.6204545,
                "pitch": 59,
                "velocity": 101,
                "duration": 0.1204545,
                "tempo": 120.0
            },
            {
                "start_time": 29.2204545,
                "end_time": 29.3363636,
                "pitch": 61,
                "velocity": 101,
                "duration": 0.1159091,
                "tempo": 120.0
            },
            {
                "start_time": 29.9295455,
                "end_time": 30.05,
                "pitch": 61,
                "velocity": 101,
                "duration": 0.1204545,
                "tempo": 120.0
            },
            {
                "start_time": 30.65,
                "end_time": 30.7704545,
                "pitch": 61,
                "velocity": 101,
                "duration": 0.1204545,
                "tempo": 120.0
            },
            {
                "start_time": 31.3704545,
                "end_time": 31.4909091,
                "pitch": 61,
                "velocity": 101,
                "duration": 0.1204545,
                "tempo": 120.0
            },
            {
                "start_time": 32.0795455,
                "end_time": 32.2,
                "pitch": 60,
                "velocity": 101,
                "duration": 0.1204545,
                "tempo": 120.0
            },
            {
                "start_time": 32.8,
                "end_time": 32.9204545,
                "pitch": 60,
                "velocity": 101,
                "duration": 0.1204545,
                "tempo": 120.0
            },
            {
                "start_time": 33.5204545,
                "end_time": 33.6409091,
                "pitch": 63,
                "velocity": 101,
                "duration": 0.1204545,
                "tempo": 120.0
            },
            {
                "start_time": 34.2409091,
                "end_time": 34.3613636,
                "pitch": 63,
                "velocity": 101,
                "duration": 0.1204545,
                "tempo": 120.0
            },
            {
                "start_time": 34.9613636,
                "end_time": 35.0818182,
                "pitch": 61,
                "velocity": 101,
                "duration": 0.1204545,
                "tempo": 120.0
            },
            {
                "start_time": 35.6727273,
                "end_time": 35.7954545,
                "pitch": 61,
                "velocity": 101,
                "duration": 0.1227273,
                "tempo": 120.0
            },
            {
                "start_time": 36.3909091,
                "end_time": 36.5090909,
                "pitch": 61,
                "velocity": 101,
                "duration": 0.1181818,
                "tempo": 120.0
            },
            {
                "start_time": 37.1113636,
                "end_time": 37.2295455,
                "pitch": 61,
                "velocity": 101,
                "duration": 0.1181818,
                "tempo": 120.0
            },
            {
                "start_time": 37.8318182,
                "end_time": 37.95,
                "pitch": 60,
                "velocity": 101,
                "duration": 0.1181818,
                "tempo": 120.0
            },
            {
                "start_time": 38.5522727,
                "end_time": 38.6704545,
                "pitch": 60,
                "velocity": 101,
                "duration": 0.1181818,
                "tempo": 120.0
            },
            {
                "start_time": 39.2613636,
                "end_time": 39.3818182,
                "pitch": 63,
                "velocity": 101,
                "duration": 0.1204545,
                "tempo": 120.0
            },
            {
                "start_time": 39.9818182,
                "end_time": 40.1022727,
                "pitch": 63,
                "velocity": 101,
                "duration": 0.1204545,
                "tempo": 120.0
            },
            {
                "start_time": 40.7022727,
                "end_time": 40.8227273,
                "pitch": 61,
                "velocity": 101,
                "duration": 0.1204545,
                "tempo": 120.0
            },
            {
                "start_time": 41.4227273,
                "end_time": 41.5431818,
                "pitch": 61,
                "velocity": 101,
                "duration": 0.1204545,
                "tempo": 120.0
            },
            {
                "start_time": 42.1431818,
                "end_time": 42.2590909,
                "pitch": 61,
                "velocity": 101,
                "duration": 0.1159091,
                "tempo": 120.0
            },
            {
                "start_time": 42.8522727,
                "end_time": 42.9727273,
                "pitch": 61,
                "velocity": 101,
                "duration": 0.1204545,
                "tempo": 120.0
            },
            {
                "start_time": 43.5727273,
                "end_time": 43.6931818,
                "pitch": 60,
                "velocity": 101,
                "duration": 0.1204545,
                "tempo": 120.0
            },
            {
                "start_time": 44.2931818,
                "end_time": 44.4136364,
                "pitch": 60,
                "velocity": 101,
                "duration": 0.1204545,
                "tempo": 120.0
            },
            {
                "start_time": 45.0136364,
                "end_time": 45.1340909,
                "pitch": 63,
                "velocity": 101,
                "duration": 0.1204545,
                "tempo": 120.0
            },
            {
                "start_time": 45.725,
                "end_time": 45.8431818,
                "pitch": 63,
                "velocity": 101,
                "duration": 0.1181818,
                "tempo": 120.0
            },
            {
                "start_time": 46.4431818,
                "end_time": 46.5636364,
                "pitch": 61,
                "velocity": 101,
                "duration": 0.1204545,
                "tempo": 120.0
            },
            {
                "start_time": 47.1659091,
                "end_time": 47.2840909,
                "pitch": 61,
                "velocity": 101,
                "duration": 0.1181818,
                "tempo": 120.0
            },
            {
                "start_time": 47.8840909,
                "end_time": 48.0045455,
                "pitch": 60,
                "velocity": 101,
                "duration": 0.1204545,
                "tempo": 120.0
            },
            {
                "start_time": 48.5954545,
                "end_time": 48.7159091,
                "pitch": 60,
                "velocity": 101,
                "duration": 0.1204545,
                "tempo": 120.0
            },
            {
                "start_time": 49.3159091,
                "end_time": 49.4363636,
                "pitch": 61,
                "velocity": 101,
                "duration": 0.1204545,
                "tempo": 120.0
            },
            {
                "start_time": 50.0363636,
                "end_time": 50.1568182,
                "pitch": 61,
                "velocity": 101,
                "duration": 0.1204545,
                "tempo": 120.0
            },
            {
                "start_time": 50.7568182,
                "end_time": 50.8772727,
                "pitch": 60,
                "velocity": 101,
                "duration": 0.1204545,
                "tempo": 120.0
            },
            {
                "start_time": 51.4772727,
                "end_time": 51.5931818,
                "pitch": 60,
                "velocity": 101,
                "duration": 0.1159091,
                "tempo": 120.0
            },
            {
                "start_time": 52.1863636,
                "end_time": 52.3068182,
                "pitch": 61,
                "velocity": 101,
                "duration": 0.1204545,
                "tempo": 120.0
            },
            {
                "start_time": 52.9068182,
                "end_time": 53.0272727,
                "pitch": 61,
                "velocity": 101,
                "duration": 0.1204545,
                "tempo": 120.0
            },
            {
                "start_time": 53.6272727,
                "end_time": 53.7477273,
                "pitch": 60,
                "velocity": 101,
                "duration": 0.1204545,
                "tempo": 120.0
            },
            {
                "start_time": 54.3477273,
                "end_time": 54.4681818,
                "pitch": 60,
                "velocity": 101,
                "duration": 0.1204545,
                "tempo": 120.0
            },
            {
                "start_time": 55.0568182,
                "end_time": 55.1772727,
                "pitch": 61,
                "velocity": 101,
                "duration": 0.1204545,
                "tempo": 120.0
            },
            {
                "start_time": 55.7795455,
                "end_time": 55.8977273,
                "pitch": 61,
                "velocity": 101,
                "duration": 0.1181818,
                "tempo": 120.0
            },
            {
                "start_time": 56.4977273,
                "end_time": 56.6181818,
                "pitch": 60,
                "velocity": 101,
                "duration": 0.1204545,
                "tempo": 120.0
            },
            {
                "start_time": 57.2181818,
                "end_time": 57.3386364,
                "pitch": 60,
                "velocity": 101,
                "duration": 0.1204545,
                "tempo": 120.0
            },
            {
                "start_time": 57.9386364,
                "end_time": 58.0568182,
                "pitch": 61,
                "velocity": 101,
                "duration": 0.1181818,
                "tempo": 120.0
            },
            {
                "start_time": 58.6477273,
                "end_time": 58.7659091,
                "pitch": 61,
                "velocity": 101,
                "duration": 0.1181818,
                "tempo": 120.0
            },
            {
                "start_time": 59.3590909,
                "end_time": 59.4795455,
                "pitch": 61,
                "velocity": 101,
                "duration": 0.1204545,
                "tempo": 120.0
            },
            {
                "start_time": 60.0886364,
                "end_time": 60.2090909,
                "pitch": 61,
                "velocity": 101,
                "duration": 0.1204545,
                "tempo": 120.0
            },
            {
                "start_time": 60.8090909,
                "end_time": 60.925,
                "pitch": 60,
                "velocity": 101,
                "duration": 0.1159091,
                "tempo": 120.0
            },
            {
                "start_time": 61.5181818,
                "end_time": 61.6386364,
                "pitch": 60,
                "velocity": 101,
                "duration": 0.1204545,
                "tempo": 120.0
            },
            {
                "start_time": 62.2386364,
                "end_time": 62.3590909,
                "pitch": 63,
                "velocity": 101,
                "duration": 0.1204545,
                "tempo": 120.0
            },
            {
                "start_time": 62.9590909,
                "end_time": 63.0795455,
                "pitch": 63,
                "velocity": 101,
                "duration": 0.1204545,
                "tempo": 120.0
            },
            {
                "start_time": 63.6795455,
                "end_time": 63.7954545,
                "pitch": 61,
                "velocity": 101,
                "duration": 0.1159091,
                "tempo": 120.0
            },
            {
                "start_time": 64.3909091,
                "end_time": 64.5090909,
                "pitch": 61,
                "velocity": 101,
                "duration": 0.1181818,
                "tempo": 120.0
            },
            {
                "start_time": 65.1181818,
                "end_time": 65.2363636,
                "pitch": 61,
                "velocity": 101,
                "duration": 0.1181818,
                "tempo": 120.0
            },
            {
                "start_time": 65.8295455,
                "end_time": 65.9477273,
                "pitch": 61,
                "velocity": 101,
                "duration": 0.1181818,
                "tempo": 120.0
            },
            {
                "start_time": 66.55,
                "end_time": 66.6659091,
                "pitch": 60,
                "velocity": 101,
                "duration": 0.1159091,
                "tempo": 120.0
            },
            {
                "start_time": 67.2681818,
                "end_time": 67.3840909,
                "pitch": 60,
                "velocity": 101,
                "duration": 0.1159091,
                "tempo": 120.0
            },
            {
                "start_time": 67.9772727,
                "end_time": 68.0977273,
                "pitch": 63,
                "velocity": 101,
                "duration": 0.1204545,
                "tempo": 120.0
            },
            {
                "start_time": 68.6977273,
                "end_time": 68.8181818,
                "pitch": 63,
                "velocity": 101,
                "duration": 0.1204545,
                "tempo": 120.0
            },
            {
                "start_time": 69.4181818,
                "end_time": 69.5386364,
                "pitch": 59,
                "velocity": 101,
                "duration": 0.1204545,
                "tempo": 120.0
            },
            {
                "start_time": 70.1272727,
                "end_time": 70.2477273,
                "pitch": 59,
                "velocity": 101,
                "duration": 0.1204545,
                "tempo": 120.0
            },
            {
                "start_time": 70.8477273,
                "end_time": 70.9681818,
                "pitch": 59,
                "velocity": 101,
                "duration": 0.1204545,
                "tempo": 120.0
            },
            {
                "start_time": 71.5681818,
                "end_time": 71.6886364,
                "pitch": 59,
                "velocity": 101,
                "duration": 0.1204545,
                "tempo": 120.0
            },
            {
                "start_time": 72.2886364,
                "end_time": 72.4090909,
                "pitch": 58,
                "velocity": 101,
                "duration": 0.1204545,
                "tempo": 120.0
            },
            {
                "start_time": 73.0,
                "end_time": 73.1181818,
                "pitch": 58,
                "velocity": 101,
                "duration": 0.1181818,
                "tempo": 120.0
            },
            {
                "start_time": 73.7204545,
                "end_time": 73.8386364,
                "pitch": 61,
                "velocity": 101,
                "duration": 0.1181818,
                "tempo": 120.0
            },
            {
                "start_time": 74.4409091,
                "end_time": 74.5590909,
                "pitch": 61,
                "velocity": 101,
                "duration": 0.1181818,
                "tempo": 120.0
            },
            {
                "start_time": 75.1613636,
                "end_time": 75.2795455,
                "pitch": 59,
                "velocity": 101,
                "duration": 0.1181818,
                "tempo": 120.0
            },
            {
                "start_time": 75.8818182,
                "end_time": 76.0,
                "pitch": 59,
                "velocity": 101,
                "duration": 0.1181818,
                "tempo": 120.0
            },
            {
                "start_time": 76.6,
                "end_time": 76.7204545,
                "pitch": 59,
                "velocity": 101,
                "duration": 0.1204545,
                "tempo": 120.0
            },
            {
                "start_time": 77.3113636,
                "end_time": 77.4318182,
                "pitch": 59,
                "velocity": 101,
                "duration": 0.1204545,
                "tempo": 120.0
            },
            {
                "start_time": 78.0318182,
                "end_time": 78.1522727,
                "pitch": 58,
                "velocity": 101,
                "duration": 0.1204545,
                "tempo": 120.0
            },
            {
                "start_time": 78.7522727,
                "end_time": 78.8727273,
                "pitch": 58,
                "velocity": 101,
                "duration": 0.1204545,
                "tempo": 120.0
            },
            {
                "start_time": 79.4727273,
                "end_time": 79.5931818,
                "pitch": 61,
                "velocity": 101,
                "duration": 0.1204545,
                "tempo": 120.0
            },
            {
                "start_time": 80.1818182,
                "end_time": 80.3022727,
                "pitch": 61,
                "velocity": 101,
                "duration": 0.1204545,
                "tempo": 120.0
            },
            {
                "start_time": 80.9022727,
                "end_time": 81.0227273,
                "pitch": 59,
                "velocity": 101,
                "duration": 0.1204545,
                "tempo": 120.0
            },
            {
                "start_time": 81.6227273,
                "end_time": 81.7431818,
                "pitch": 59,
                "velocity": 101,
                "duration": 0.1204545,
                "tempo": 120.0
            },
            {
                "start_time": 82.3431818,
                "end_time": 82.4636364,
                "pitch": 59,
                "velocity": 101,
                "duration": 0.1204545,
                "tempo": 120.0
            },
            {
                "start_time": 83.0522727,
                "end_time": 83.1727273,
                "pitch": 59,
                "velocity": 101,
                "duration": 0.1204545,
                "tempo": 120.0
            },
            {
                "start_time": 83.7727273,
                "end_time": 83.8931818,
                "pitch": 58,
                "velocity": 101,
                "duration": 0.1204545,
                "tempo": 120.0
            },
            {
                "start_time": 84.4931818,
                "end_time": 84.6136364,
                "pitch": 58,
                "velocity": 101,
                "duration": 0.1204545,
                "tempo": 120.0
            },
            {
                "start_time": 85.2136364,
                "end_time": 85.3340909,
                "pitch": 61,
                "velocity": 101,
                "duration": 0.1204545,
                "tempo": 120.0
            },
            {
                "start_time": 85.9340909,
                "end_time": 86.0522727,
                "pitch": 61,
                "velocity": 101,
                "duration": 0.1181818,
                "tempo": 120.0
            },
            {
                "start_time": 86.6454545,
                "end_time": 86.7636364,
                "pitch": 59,
                "velocity": 101,
                "duration": 0.1181818,
                "tempo": 120.0
            },
            {
                "start_time": 87.3659091,
                "end_time": 87.4840909,
                "pitch": 59,
                "velocity": 101,
                "duration": 0.1181818,
                "tempo": 120.0
            },
            {
                "start_time": 88.0863636,
                "end_time": 88.2045455,
                "pitch": 58,
                "velocity": 101,
                "duration": 0.1181818,
                "tempo": 120.0
            },
            {
                "start_time": 88.8068182,
                "end_time": 88.925,
                "pitch": 58,
                "velocity": 101,
                "duration": 0.1181818,
                "tempo": 120.0
            },
            {
                "start_time": 89.5159091,
                "end_time": 89.6363636,
                "pitch": 59,
                "velocity": 101,
                "duration": 0.1204545,
                "tempo": 120.0
            },
            {
                "start_time": 90.2363636,
                "end_time": 90.3568182,
                "pitch": 59,
                "velocity": 101,
                "duration": 0.1204545,
                "tempo": 120.0
            },
            {
                "start_time": 90.9568182,
                "end_time": 91.0772727,
                "pitch": 58,
                "velocity": 101,
                "duration": 0.1204545,
                "tempo": 120.0
            },
            {
                "start_time": 91.6772727,
                "end_time": 91.7977273,
                "pitch": 58,
                "velocity": 101,
                "duration": 0.1204545,
                "tempo": 120.0
            },
            {
                "start_time": 92.3863636,
                "end_time": 92.5090909,
                "pitch": 59,
                "velocity": 101,
                "duration": 0.1227273,
                "tempo": 120.0
            },
            {
                "start_time": 93.1045455,
                "end_time": 93.225,
                "pitch": 59,
                "velocity": 101,
                "duration": 0.1204545,
                "tempo": 120.0
            },
            {
                "start_time": 93.825,
                "end_time": 93.9454545,
                "pitch": 58,
                "velocity": 101,
                "duration": 0.1204545,
                "tempo": 120.0
            },
            {
                "start_time": 94.5454545,
                "end_time": 94.6659091,
                "pitch": 58,
                "velocity": 101,
                "duration": 0.1204545,
                "tempo": 120.0
            },
            {
                "start_time": 95.2659091,
                "end_time": 95.3863636,
                "pitch": 59,
                "velocity": 101,
                "duration": 0.1204545,
                "tempo": 120.0
            },
            {
                "start_time": 95.9772727,
                "end_time": 96.0954545,
                "pitch": 59,
                "velocity": 101,
                "duration": 0.1181818,
                "tempo": 120.0
            },
            {
                "start_time": 96.6977273,
                "end_time": 96.8159091,
                "pitch": 58,
                "velocity": 101,
                "duration": 0.1181818,
                "tempo": 120.0
            },
            {
                "start_time": 97.4181818,
                "end_time": 97.5363636,
                "pitch": 58,
                "velocity": 101,
                "duration": 0.1181818,
                "tempo": 120.0
            }
        ],
        "Trumpet": [
            {
                "start_time": 6.1227273,
                "end_time": 6.3636364,
                "pitch": 69,
                "velocity": 64,
                "duration": 0.2409091,
                "tempo": 120.0
            },
            {
                "start_time": 6.4818182,
                "end_time": 6.7227273,
                "pitch": 69,
                "velocity": 64,
                "duration": 0.2409091,
                "tempo": 120.0
            },
            {
                "start_time": 6.7227273,
                "end_time": 6.8431818,
                "pitch": 69,
                "velocity": 64,
                "duration": 0.1204545,
                "tempo": 120.0
            },
            {
                "start_time": 6.8431818,
                "end_time": 7.2022727,
                "pitch": 72,
                "velocity": 64,
                "duration": 0.3590909,
                "tempo": 120.0
            },
            {
                "start_time": 7.2022727,
                "end_time": 7.3227273,
                "pitch": 69,
                "velocity": 64,
                "duration": 0.1204545,
                "tempo": 120.0
            },
            {
                "start_time": 7.3227273,
                "end_time": 7.5568182,
                "pitch": 69,
                "velocity": 64,
                "duration": 0.2340909,
                "tempo": 120.0
            },
            {
                "start_time": 6.8431818,
                "end_time": 7.5568182,
                "pitch": 76,
                "velocity": 64,
                "duration": 0.7136364,
                "tempo": 120.0
            },
            {
                "start_time": 7.5568182,
                "end_time": 7.7931818,
                "pitch": 72,
                "velocity": 64,
                "duration": 0.2363636,
                "tempo": 120.0
            },
            {
                "start_time": 7.7931818,
                "end_time": 7.9136364,
                "pitch": 74,
                "velocity": 64,
                "duration": 0.1204545,
                "tempo": 120.0
            },
            {
                "start_time": 8.1522727,
                "end_time": 8.7545455,
                "pitch": 75,
                "velocity": 64,
                "duration": 0.6022727,
                "tempo": 120.0
            },
            {
                "start_time": 7.5568182,
                "end_time": 8.9931818,
                "pitch": 76,
                "velocity": 64,
                "duration": 1.4363636,
                "tempo": 120.0
            },
            {
                "start_time": 8.7545455,
                "end_time": 8.9931818,
                "pitch": 76,
                "velocity": 64,
                "duration": 0.2386364,
                "tempo": 120.0
            },
            {
                "start_time": 8.9931818,
                "end_time": 9.3545455,
                "pitch": 74,
                "velocity": 64,
                "duration": 0.3613636,
                "tempo": 120.0
            },
            {
                "start_time": 9.3545455,
                "end_time": 9.5931818,
                "pitch": 76,
                "velocity": 64,
                "duration": 0.2386364,
                "tempo": 120.0
            },
            {
                "start_time": 9.5931818,
                "end_time": 9.7136364,
                "pitch": 74,
                "velocity": 64,
                "duration": 0.1204545,
                "tempo": 120.0
            },
            {
                "start_time": 10.075,
                "end_time": 10.4340909,
                "pitch": 71,
                "velocity": 64,
                "duration": 0.3590909,
                "tempo": 120.0
            },
            {
                "start_time": 10.4340909,
                "end_time": 10.6704545,
                "pitch": 72,
                "velocity": 64,
                "duration": 0.2363636,
                "tempo": 120.0
            },
            {
                "start_time": 10.6704545,
                "end_time": 11.025,
                "pitch": 71,
                "velocity": 64,
                "duration": 0.3545455,
                "tempo": 120.0
            },
            {
                "start_time": 11.025,
                "end_time": 11.5045455,
                "pitch": 69,
                "velocity": 64,
                "duration": 0.4795455,
                "tempo": 120.0
            },
            {
                "start_time": 11.5045455,
                "end_time": 11.8636364,
                "pitch": 67,
                "velocity": 64,
                "duration": 0.3590909,
                "tempo": 120.0
            },
            {
                "start_time": 11.8636364,
                "end_time": 12.5840909,
                "pitch": 64,
                "velocity": 64,
                "duration": 0.7204545,
                "tempo": 120.0
            },
            {
                "start_time": 12.5840909,
                "end_time": 12.9454545,
                "pitch": 67,
                "velocity": 64,
                "duration": 0.3613636,
                "tempo": 120.0
            },
            {
                "start_time": 12.9454545,
                "end_time": 13.0659091,
                "pitch": 69,
                "velocity": 64,
                "duration": 0.1204545,
                "tempo": 120.0
            },
            {
                "start_time": 13.0659091,
                "end_time": 13.3045455,
                "pitch": 67,
                "velocity": 64,
                "duration": 0.2386364,
                "tempo": 120.0
            },
            {
                "start_time": 13.9022727,
                "end_time": 14.0181818,
                "pitch": 67,
                "velocity": 64,
                "duration": 0.1159091,
                "tempo": 120.0
            },
            {
                "start_time": 14.0181818,
                "end_time": 14.375,
                "pitch": 69,
                "velocity": 64,
                "duration": 0.3568182,
                "tempo": 120.0
            },
            {
                "start_time": 14.375,
                "end_time": 14.7363636,
                "pitch": 67,
                "velocity": 64,
                "duration": 0.3613636,
                "tempo": 120.0
            },
            {
                "start_time": 10.4340909,
                "end_time": 14.7363636,
                "pitch": 76,
                "velocity": 64,
                "duration": 4.3022727,
                "tempo": 120.0
            },
            {
                "start_time": 14.7363636,
                "end_time": 14.975,
                "pitch": 72,
                "velocity": 64,
                "duration": 0.2386364,
                "tempo": 120.0
            },
            {
                "start_time": 14.975,
                "end_time": 15.0954545,
                "pitch": 71,
                "velocity": 64,
                "duration": 0.1204545,
                "tempo": 120.0
            },
            {
                "start_time": 15.0954545,
                "end_time": 15.3363636,
                "pitch": 69,
                "velocity": 64,
                "duration": 0.2409091,
                "tempo": 120.0
            },
            {
                "start_time": 15.3363636,
                "end_time": 16.1772727,
                "pitch": 71,
                "velocity": 64,
                "duration": 0.8409091,
                "tempo": 120.0
            },
            {
                "start_time": 15.3363636,
                "end_time": 16.1772727,
                "pitch": 71,
                "velocity": 64,
                "duration": 0.8409091,
                "tempo": 120.0
            },
            {
                "start_time": 16.1772727,
                "end_time": 16.4159091,
                "pitch": 67,
                "velocity": 64,
                "duration": 0.2386364,
                "tempo": 120.0
            },
            {
                "start_time": 16.1772727,
                "end_time": 16.4159091,
                "pitch": 67,
                "velocity": 64,
                "duration": 0.2386364,
                "tempo": 120.0
            },
            {
                "start_time": 16.4159091,
                "end_time": 16.5363636,
                "pitch": 65,
                "velocity": 64,
                "duration": 0.1204545,
                "tempo": 120.0
            },
            {
                "start_time": 16.5363636,
                "end_time": 16.7772727,
                "pitch": 64,
                "velocity": 64,
                "duration": 0.2409091,
                "tempo": 120.0
            },
            {
                "start_time": 16.7772727,
                "end_time": 17.6068182,
                "pitch": 65,
                "velocity": 64,
                "duration": 0.8295455,
                "tempo": 120.0
            },
            {
                "start_time": 17.6068182,
                "end_time": 17.8477273,
                "pitch": 69,
                "velocity": 64,
                "duration": 0.2409091,
                "tempo": 120.0
            },
            {
                "start_time": 17.9681818,
                "end_time": 18.2068182,
                "pitch": 69,
                "velocity": 64,
                "duration": 0.2386364,
                "tempo": 120.0
            },
            {
                "start_time": 18.2068182,
                "end_time": 18.3272727,
                "pitch": 69,
                "velocity": 64,
                "duration": 0.1204545,
                "tempo": 120.0
            },
            {
                "start_time": 14.7363636,
                "end_time": 18.3272727,
                "pitch": 76,
                "velocity": 64,
                "duration": 3.5909091,
                "tempo": 120.0
            },
            {
                "start_time": 18.3272727,
                "end_time": 18.6863636,
                "pitch": 72,
                "velocity": 64,
                "duration": 0.3590909,
                "tempo": 120.0
            },
            {
                "start_time": 18.6863636,
                "end_time": 19.0477273,
                "pitch": 69,
                "velocity": 64,
                "duration": 0.3613636,
                "tempo": 120.0
            },
            {
                "start_time": 19.0477273,
                "end_time": 19.2886364,
                "pitch": 67,
                "velocity": 64,
                "duration": 0.2409091,
                "tempo": 120.0
            },
            {
                "start_time": 19.4068182,
                "end_time": 19.6431818,
                "pitch": 67,
                "velocity": 64,
                "duration": 0.2363636,
                "tempo": 120.0
            },
            {
                "start_time": 19.6431818,
                "end_time": 19.7613636,
                "pitch": 67,
                "velocity": 64,
                "duration": 0.1181818,
                "tempo": 120.0
            },
            {
                "start_time": 19.7613636,
                "end_time": 20.1227273,
                "pitch": 72,
                "velocity": 64,
                "duration": 0.3613636,
                "tempo": 120.0
            },
            {
                "start_time": 20.1227273,
                "end_time": 20.4795455,
                "pitch": 74,
                "velocity": 64,
                "duration": 0.3568182,
                "tempo": 120.0
            },
            {
                "start_time": 18.3272727,
                "end_time": 21.075,
                "pitch": 76,
                "velocity": 64,
                "duration": 2.7477273,
                "tempo": 120.0
            },
            {
                "start_time": 20.4795455,
                "end_time": 21.075,
                "pitch": 76,
                "velocity": 64,
                "duration": 0.5954545,
                "tempo": 120.0
            },
            {
                "start_time": 21.075,
                "end_time": 21.5568182,
                "pitch": 74,
                "velocity": 64,
                "duration": 0.4818182,
                "tempo": 120.0
            },
            {
                "start_time": 10.6704545,
                "end_time": 21.9159091,
                "pitch": 57,
                "velocity": 64,
                "duration": 11.2454545,
                "tempo": 120.0
            },
            {
                "start_time": 21.5568182,
                "end_time": 21.9159091,
                "pitch": 72,
                "velocity": 64,
                "duration": 0.3590909,
                "tempo": 120.0
            },
            {
                "start_time": 21.9159091,
                "end_time": 23.35,
                "pitch": 71,
                "velocity": 64,
                "duration": 1.4340909,
                "tempo": 120.0
            },
            {
                "start_time": 23.35,
                "end_time": 23.5863636,
                "pitch": 69,
                "velocity": 64,
                "duration": 0.2363636,
                "tempo": 120.0
            },
            {
                "start_time": 23.35,
                "end_time": 23.5863636,
                "pitch": 69,
                "velocity": 64,
                "duration": 0.2363636,
                "tempo": 120.0
            },
            {
                "start_time": 23.7068182,
                "end_time": 23.9477273,
                "pitch": 69,
                "velocity": 64,
                "duration": 0.2409091,
                "tempo": 120.0
            },
            {
                "start_time": 23.9477273,
                "end_time": 24.0659091,
                "pitch": 69,
                "velocity": 64,
                "duration": 0.1181818,
                "tempo": 120.0
            },
            {
                "start_time": 24.0681818,
                "end_time": 24.4272727,
                "pitch": 72,
                "velocity": 64,
                "duration": 0.3590909,
                "tempo": 120.0
            },
            {
                "start_time": 24.4272727,
                "end_time": 24.7886364,
                "pitch": 69,
                "velocity": 64,
                "duration": 0.3613636,
                "tempo": 120.0
            },
            {
                "start_time": 24.7886364,
                "end_time": 25.0272727,
                "pitch": 67,
                "velocity": 64,
                "duration": 0.2386364,
                "tempo": 120.0
            },
            {
                "start_time": 25.1477273,
                "end_time": 25.3886364,
                "pitch": 67,
                "velocity": 64,
                "duration": 0.2409091,
                "tempo": 120.0
            },
            {
                "start_time": 25.3886364,
                "end_time": 25.5068182,
                "pitch": 67,
                "velocity": 64,
                "duration": 0.1181818,
                "tempo": 120.0
            },
            {
                "start_time": 25.5090909,
                "end_time": 25.8681818,
                "pitch": 72,
                "velocity": 64,
                "duration": 0.3590909,
                "tempo": 120.0
            },
            {
                "start_time": 25.8681818,
                "end_time": 26.2295455,
                "pitch": 74,
                "velocity": 64,
                "duration": 0.3613636,
                "tempo": 120.0
            },
            {
                "start_time": 21.9159091,
                "end_time": 27.6590909,
                "pitch": 57,
                "velocity": 64,
                "duration": 5.7431818,
                "tempo": 120.0
            },
            {
                "start_time": 26.2295455,
                "end_time": 27.6590909,
                "pitch": 72,
                "velocity": 64,
                "duration": 1.4295455,
                "tempo": 120.0
            },
            {
                "start_time": 27.6590909,
                "end_time": 28.8590909,
                "pitch": 71,
                "velocity": 64,
                "duration": 1.2,
                "tempo": 120.0
            },
            {
                "start_time": 34.8409091,
                "end_time": 35.0818182,
                "pitch": 70,
                "velocity": 64,
                "duration": 0.2409091,
                "tempo": 120.0
            },
            {
                "start_time": 35.2022727,
                "end_time": 35.4386364,
                "pitch": 70,
                "velocity": 64,
                "duration": 0.2363636,
                "tempo": 120.0
            },
            {
                "start_time": 35.4386364,
                "end_time": 35.5545455,
                "pitch": 70,
                "velocity": 64,
                "duration": 0.1159091,
                "tempo": 120.0
            },
            {
                "start_time": 35.5545455,
                "end_time": 35.9181818,
                "pitch": 73,
                "velocity": 64,
                "duration": 0.3636364,
                "tempo": 120.0
            },
            {
                "start_time": 35.9181818,
                "end_time": 36.0409091,
                "pitch": 70,
                "velocity": 64,
                "duration": 0.1227273,
                "tempo": 120.0
            },
            {
                "start_time": 36.0409091,
                "end_time": 36.2727273,
                "pitch": 70,
                "velocity": 64,
                "duration": 0.2318182,
                "tempo": 120.0
            },
            {
                "start_time": 35.5545455,
                "end_time": 36.2727273,
                "pitch": 76,
                "velocity": 64,
                "duration": 0.7181818,
                "tempo": 120.0
            },
            {
                "start_time": 36.2727273,
                "end_time": 36.5113636,
                "pitch": 73,
                "velocity": 64,
                "duration": 0.2386364,
                "tempo": 120.0
            },
            {
                "start_time": 36.5113636,
                "end_time": 36.6295455,
                "pitch": 75,
                "velocity": 64,
                "duration": 0.1181818,
                "tempo": 120.0
            },
            {
                "start_time": 36.2727273,
                "end_time": 37.4704545,
                "pitch": 76,
                "velocity": 64,
                "duration": 1.1977273,
                "tempo": 120.0
            },
            {
                "start_time": 36.8704545,
                "end_time": 37.4704545,
                "pitch": 76,
                "velocity": 64,
                "duration": 0.6,
                "tempo": 120.0
            },
            {
                "start_time": 37.4704545,
                "end_time": 37.7113636,
                "pitch": 77,
                "velocity": 64,
                "duration": 0.2409091,
                "tempo": 120.0
            },
            {
                "start_time": 37.7113636,
                "end_time": 38.0704545,
                "pitch": 75,
                "velocity": 64,
                "duration": 0.3590909,
                "tempo": 120.0
            },
            {
                "start_time": 38.0704545,
                "end_time": 38.3113636,
                "pitch": 77,
                "velocity": 64,
                "duration": 0.2409091,
                "tempo": 120.0
            },
            {
                "start_time": 38.3113636,
                "end_time": 38.4318182,
                "pitch": 75,
                "velocity": 64,
                "duration": 0.1204545,
                "tempo": 120.0
            },
            {
                "start_time": 38.7909091,
                "end_time": 39.1454545,
                "pitch": 72,
                "velocity": 64,
                "duration": 0.3545455,
                "tempo": 120.0
            },
            {
                "start_time": 39.1454545,
                "end_time": 39.3818182,
                "pitch": 73,
                "velocity": 64,
                "duration": 0.2363636,
                "tempo": 120.0
            },
            {
                "start_time": 35.9181818,
                "end_time": 39.7409091,
                "pitch": 52,
                "velocity": 64,
                "duration": 3.8227273,
                "tempo": 120.0
            },
            {
                "start_time": 39.3818182,
                "end_time": 39.7409091,
                "pitch": 72,
                "velocity": 64,
                "duration": 0.3590909,
                "tempo": 120.0
            },
            {
                "start_time": 39.7409091,
                "end_time": 40.2204545,
                "pitch": 70,
                "velocity": 64,
                "duration": 0.4795455,
                "tempo": 120.0
            },
            {
                "start_time": 40.2204545,
                "end_time": 40.2227273,
                "pitch": 68,
                "velocity": 64,
                "duration": 0.0022727,
                "tempo": 120.0
            },
            {
                "start_time": 40.2227273,
                "end_time": 40.5818182,
                "pitch": 68,
                "velocity": 64,
                "duration": 0.3590909,
                "tempo": 120.0
            },
            {
                "start_time": 16.4159091,
                "end_time": 40.5818182,
                "pitch": 78,
                "velocity": 64,
                "duration": 24.1659091,
                "tempo": 120.0
            },
            {
                "start_time": 40.5818182,
                "end_time": 41.3022727,
                "pitch": 65,
                "velocity": 64,
                "duration": 0.7204545,
                "tempo": 120.0
            },
            {
                "start_time": 41.3022727,
                "end_time": 41.6636364,
                "pitch": 68,
                "velocity": 64,
                "duration": 0.3613636,
                "tempo": 120.0
            },
            {
                "start_time": 41.6636364,
                "end_time": 41.7818182,
                "pitch": 70,
                "velocity": 64,
                "duration": 0.1181818,
                "tempo": 120.0
            },
            {
                "start_time": 41.6636364,
                "end_time": 41.7818182,
                "pitch": 70,
                "velocity": 64,
                "duration": 0.1181818,
                "tempo": 120.0
            },
            {
                "start_time": 41.7818182,
                "end_time": 42.0227273,
                "pitch": 68,
                "velocity": 64,
                "duration": 0.2409091,
                "tempo": 120.0
            },
            {
                "start_time": 41.7818182,
                "end_time": 42.0227273,
                "pitch": 68,
                "velocity": 64,
                "duration": 0.2409091,
                "tempo": 120.0
            },
            {
                "start_time": 42.6113636,
                "end_time": 42.7318182,
                "pitch": 68,
                "velocity": 64,
                "duration": 0.1204545,
                "tempo": 120.0
            },
            {
                "start_time": 42.7318182,
                "end_time": 43.0931818,
                "pitch": 70,
                "velocity": 64,
                "duration": 0.3613636,
                "tempo": 120.0
            },
            {
                "start_time": 42.7318182,
                "end_time": 43.0931818,
                "pitch": 70,
                "velocity": 64,
                "duration": 0.3613636,
                "tempo": 120.0
            },
            {
                "start_time": 43.0931818,
                "end_time": 43.4522727,
                "pitch": 68,
                "velocity": 64,
                "duration": 0.3590909,
                "tempo": 120.0
            },
            {
                "start_time": 43.0931818,
                "end_time": 43.4522727,
                "pitch": 68,
                "velocity": 64,
                "duration": 0.3590909,
                "tempo": 120.0
            },
            {
                "start_time": 43.4522727,
                "end_time": 43.6931818,
                "pitch": 73,
                "velocity": 64,
                "duration": 0.2409091,
                "tempo": 120.0
            },
            {
                "start_time": 39.7409091,
                "end_time": 43.8136364,
                "pitch": 52,
                "velocity": 64,
                "duration": 4.0727273,
                "tempo": 120.0
            },
            {
                "start_time": 43.6931818,
                "end_time": 43.8136364,
                "pitch": 72,
                "velocity": 64,
                "duration": 0.1204545,
                "tempo": 120.0
            },
            {
                "start_time": 43.8136364,
                "end_time": 44.0522727,
                "pitch": 70,
                "velocity": 64,
                "duration": 0.2386364,
                "tempo": 120.0
            },
            {
                "start_time": 44.0522727,
                "end_time": 44.8931818,
                "pitch": 72,
                "velocity": 64,
                "duration": 0.8409091,
                "tempo": 120.0
            },
            {
                "start_time": 44.8931818,
                "end_time": 45.1340909,
                "pitch": 68,
                "velocity": 64,
                "duration": 0.2409091,
                "tempo": 120.0
            },
            {
                "start_time": 45.1340909,
                "end_time": 45.2545455,
                "pitch": 66,
                "velocity": 64,
                "duration": 0.1204545,
                "tempo": 120.0
            },
            {
                "start_time": 45.2545455,
                "end_time": 45.4909091,
                "pitch": 65,
                "velocity": 64,
                "duration": 0.2363636,
                "tempo": 120.0
            },
            {
                "start_time": 45.4909091,
                "end_time": 46.325,
                "pitch": 66,
                "velocity": 64,
                "duration": 0.8340909,
                "tempo": 120.0
            },
            {
                "start_time": 46.325,
                "end_time": 46.5636364,
                "pitch": 70,
                "velocity": 64,
                "duration": 0.2386364,
                "tempo": 120.0
            },
            {
                "start_time": 46.6840909,
                "end_time": 46.925,
                "pitch": 70,
                "velocity": 64,
                "duration": 0.2409091,
                "tempo": 120.0
            },
            {
                "start_time": 46.925,
                "end_time": 47.0431818,
                "pitch": 70,
                "velocity": 64,
                "duration": 0.1181818,
                "tempo": 120.0
            },
            {
                "start_time": 43.4522727,
                "end_time": 47.0454545,
                "pitch": 76,
                "velocity": 64,
                "duration": 3.5931818,
                "tempo": 120.0
            },
            {
                "start_time": 47.0431818,
                "end_time": 47.0454545,
                "pitch": 76,
                "velocity": 64,
                "duration": 0.0022727,
                "tempo": 120.0
            },
            {
                "start_time": 43.8136364,
                "end_time": 47.4045455,
                "pitch": 52,
                "velocity": 64,
                "duration": 3.5909091,
                "tempo": 120.0
            },
            {
                "start_time": 47.0454545,
                "end_time": 47.4045455,
                "pitch": 73,
                "velocity": 64,
                "duration": 0.3590909,
                "tempo": 120.0
            },
            {
                "start_time": 47.4045455,
                "end_time": 47.7659091,
                "pitch": 70,
                "velocity": 64,
                "duration": 0.3613636,
                "tempo": 120.0
            },
            {
                "start_time": 47.7659091,
                "end_time": 48.0045455,
                "pitch": 68,
                "velocity": 64,
                "duration": 0.2386364,
                "tempo": 120.0
            },
            {
                "start_time": 47.7659091,
                "end_time": 48.0045455,
                "pitch": 68,
                "velocity": 64,
                "duration": 0.2386364,
                "tempo": 120.0
            },
            {
                "start_time": 48.125,
                "end_time": 48.3613636,
                "pitch": 68,
                "velocity": 64,
                "duration": 0.2363636,
                "tempo": 120.0
            },
            {
                "start_time": 48.3613636,
                "end_time": 48.4772727,
                "pitch": 68,
                "velocity": 64,
                "duration": 0.1159091,
                "tempo": 120.0
            },
            {
                "start_time": 48.4772727,
                "end_time": 48.8340909,
                "pitch": 73,
                "velocity": 64,
                "duration": 0.3568182,
                "tempo": 120.0
            },
            {
                "start_time": 48.8340909,
                "end_time": 49.1954545,
                "pitch": 75,
                "velocity": 64,
                "duration": 0.3613636,
                "tempo": 120.0
            },
            {
                "start_time": 49.1954545,
                "end_time": 49.7954545,
                "pitch": 77,
                "velocity": 64,
                "duration": 0.6,
                "tempo": 120.0
            },
            {
                "start_time": 49.7954545,
                "end_time": 50.275,
                "pitch": 75,
                "velocity": 64,
                "duration": 0.4795455,
                "tempo": 120.0
            },
            {
                "start_time": 50.275,
                "end_time": 50.6363636,
                "pitch": 73,
                "velocity": 64,
                "duration": 0.3613636,
                "tempo": 120.0
            },
            {
                "start_time": 47.4045455,
                "end_time": 52.0659091,
                "pitch": 52,
                "velocity": 64,
                "duration": 4.6613636,
                "tempo": 120.0
            },
            {
                "start_time": 50.6363636,
                "end_time": 52.0659091,
                "pitch": 72,
                "velocity": 64,
                "duration": 1.4295455,
                "tempo": 120.0
            },
            {
                "start_time": 52.0659091,
                "end_time": 52.3068182,
                "pitch": 70,
                "velocity": 64,
                "duration": 0.2409091,
                "tempo": 120.0
            },
            {
                "start_time": 52.4272727,
                "end_time": 52.6659091,
                "pitch": 70,
                "velocity": 64,
                "duration": 0.2386364,
                "tempo": 120.0
            },
            {
                "start_time": 52.6659091,
                "end_time": 52.7863636,
                "pitch": 70,
                "velocity": 64,
                "duration": 0.1204545,
                "tempo": 120.0
            },
            {
                "start_time": 48.4772727,
                "end_time": 52.7863636,
                "pitch": 76,
                "velocity": 64,
                "duration": 4.3090909,
                "tempo": 120.0
            },
            {
                "start_time": 52.7863636,
                "end_time": 53.1477273,
                "pitch": 73,
                "velocity": 64,
                "duration": 0.3613636,
                "tempo": 120.0
            },
            {
                "start_time": 53.1477273,
                "end_time": 53.5068182,
                "pitch": 70,
                "velocity": 64,
                "duration": 0.3590909,
                "tempo": 120.0
            },
            {
                "start_time": 53.5068182,
                "end_time": 53.7477273,
                "pitch": 68,
                "velocity": 64,
                "duration": 0.2409091,
                "tempo": 120.0
            },
            {
                "start_time": 53.5068182,
                "end_time": 53.7477273,
                "pitch": 68,
                "velocity": 64,
                "duration": 0.2409091,
                "tempo": 120.0
            },
            {
                "start_time": 53.8681818,
                "end_time": 54.1068182,
                "pitch": 68,
                "velocity": 64,
                "duration": 0.2386364,
                "tempo": 120.0
            },
            {
                "start_time": 54.1068182,
                "end_time": 54.2272727,
                "pitch": 68,
                "velocity": 64,
                "duration": 0.1204545,
                "tempo": 120.0
            },
            {
                "start_time": 52.7863636,
                "end_time": 54.2272727,
                "pitch": 76,
                "velocity": 64,
                "duration": 1.4409091,
                "tempo": 120.0
            },
            {
                "start_time": 54.2272727,
                "end_time": 54.5886364,
                "pitch": 73,
                "velocity": 64,
                "duration": 0.3613636,
                "tempo": 120.0
            },
            {
                "start_time": 54.5886364,
                "end_time": 54.9409091,
                "pitch": 75,
                "velocity": 64,
                "duration": 0.3522727,
                "tempo": 120.0
            },
            {
                "start_time": 54.9409091,
                "end_time": 57.5795455,
                "pitch": 73,
                "velocity": 64,
                "duration": 2.6386364,
                "tempo": 120.0
            },
            {
                "start_time": 75.0409091,
                "end_time": 75.2795455,
                "pitch": 68,
                "velocity": 64,
                "duration": 0.2386364,
                "tempo": 120.0
            },
            {
                "start_time": 75.4,
                "end_time": 75.6409091,
                "pitch": 68,
                "velocity": 64,
                "duration": 0.2409091,
                "tempo": 120.0
            },
            {
                "start_time": 75.6409091,
                "end_time": 75.7613636,
                "pitch": 68,
                "velocity": 64,
                "duration": 0.1204545,
                "tempo": 120.0
            },
            {
                "start_time": 75.7613636,
                "end_time": 76.1204545,
                "pitch": 71,
                "velocity": 64,
                "duration": 0.3590909,
                "tempo": 120.0
            },
            {
                "start_time": 75.7613636,
                "end_time": 76.1204545,
                "pitch": 71,
                "velocity": 64,
                "duration": 0.3590909,
                "tempo": 120.0
            },
            {
                "start_time": 76.1204545,
                "end_time": 76.2409091,
                "pitch": 68,
                "velocity": 64,
                "duration": 0.1204545,
                "tempo": 120.0
            },
            {
                "start_time": 76.1204545,
                "end_time": 76.2409091,
                "pitch": 68,
                "velocity": 64,
                "duration": 0.1204545,
                "tempo": 120.0
            },
            {
                "start_time": 76.2409091,
                "end_time": 76.4818182,
                "pitch": 68,
                "velocity": 64,
                "duration": 0.2409091,
                "tempo": 120.0
            },
            {
                "start_time": 76.4818182,
                "end_time": 76.7204545,
                "pitch": 71,
                "velocity": 64,
                "duration": 0.2386364,
                "tempo": 120.0
            },
            {
                "start_time": 76.4818182,
                "end_time": 76.7204545,
                "pitch": 71,
                "velocity": 64,
                "duration": 0.2386364,
                "tempo": 120.0
            },
            {
                "start_time": 54.2272727,
                "end_time": 76.7204545,
                "pitch": 76,
                "velocity": 64,
                "duration": 22.4931818,
                "tempo": 120.0
            },
            {
                "start_time": 76.7204545,
                "end_time": 76.8409091,
                "pitch": 73,
                "velocity": 64,
                "duration": 0.1204545,
                "tempo": 120.0
            },
            {
                "start_time": 77.0772727,
                "end_time": 77.6704545,
                "pitch": 74,
                "velocity": 64,
                "duration": 0.5931818,
                "tempo": 120.0
            },
            {
                "start_time": 77.6704545,
                "end_time": 77.9113636,
                "pitch": 75,
                "velocity": 64,
                "duration": 0.2409091,
                "tempo": 120.0
            },
            {
                "start_time": 77.9113636,
                "end_time": 78.2704545,
                "pitch": 73,
                "velocity": 64,
                "duration": 0.3590909,
                "tempo": 120.0
            },
            {
                "start_time": 78.2704545,
                "end_time": 78.5113636,
                "pitch": 75,
                "velocity": 64,
                "duration": 0.2409091,
                "tempo": 120.0
            },
            {
                "start_time": 78.5113636,
                "end_time": 78.6318182,
                "pitch": 73,
                "velocity": 64,
                "duration": 0.1204545,
                "tempo": 120.0
            },
            {
                "start_time": 78.9909091,
                "end_time": 79.3522727,
                "pitch": 70,
                "velocity": 64,
                "duration": 0.3613636,
                "tempo": 120.0
            },
            {
                "start_time": 79.3522727,
                "end_time": 79.5931818,
                "pitch": 71,
                "velocity": 64,
                "duration": 0.2409091,
                "tempo": 120.0
            },
            {
                "start_time": 79.5931818,
                "end_time": 79.9477273,
                "pitch": 70,
                "velocity": 64,
                "duration": 0.3545455,
                "tempo": 120.0
            },
            {
                "start_time": 79.9477273,
                "end_time": 80.4227273,
                "pitch": 68,
                "velocity": 64,
                "duration": 0.475,
                "tempo": 120.0
            },
            {
                "start_time": 79.9477273,
                "end_time": 80.4227273,
                "pitch": 68,
                "velocity": 64,
                "duration": 0.475,
                "tempo": 120.0
            },
            {
                "start_time": 45.1340909,
                "end_time": 80.4227273,
                "pitch": 79,
                "velocity": 64,
                "duration": 35.2886364,
                "tempo": 120.0
            },
            {
                "start_time": 80.4227273,
                "end_time": 80.7818182,
                "pitch": 66,
                "velocity": 64,
                "duration": 0.3590909,
                "tempo": 120.0
            },
            {
                "start_time": 80.7818182,
                "end_time": 81.5022727,
                "pitch": 63,
                "velocity": 64,
                "duration": 0.7204545,
                "tempo": 120.0
            },
            {
                "start_time": 41.3022727,
                "end_time": 81.8636364,
                "pitch": 23,
                "velocity": 64,
                "duration": 40.5613636,
                "tempo": 120.0
            },
            {
                "start_time": 81.5022727,
                "end_time": 81.8636364,
                "pitch": 66,
                "velocity": 64,
                "duration": 0.3613636,
                "tempo": 120.0
            },
            {
                "start_time": 81.5022727,
                "end_time": 81.8636364,
                "pitch": 66,
                "velocity": 64,
                "duration": 0.3613636,
                "tempo": 120.0
            },
            {
                "start_time": 81.8636364,
                "end_time": 81.9840909,
                "pitch": 68,
                "velocity": 64,
                "duration": 0.1204545,
                "tempo": 120.0
            },
            {
                "start_time": 80.4227273,
                "end_time": 81.9840909,
                "pitch": 79,
                "velocity": 64,
                "duration": 1.5613636,
                "tempo": 120.0
            },
            {
                "start_time": 81.9840909,
                "end_time": 82.2227273,
                "pitch": 66,
                "velocity": 64,
                "duration": 0.2386364,
                "tempo": 120.0
            },
            {
                "start_time": 81.8636364,
                "end_time": 82.9363636,
                "pitch": 23,
                "velocity": 64,
                "duration": 1.0727273,
                "tempo": 120.0
            },
            {
                "start_time": 82.8204545,
                "end_time": 82.9363636,
                "pitch": 66,
                "velocity": 64,
                "duration": 0.1159091,
                "tempo": 120.0
            },
            {
                "start_time": 82.9363636,
                "end_time": 83.2931818,
                "pitch": 68,
                "velocity": 64,
                "duration": 0.3568182,
                "tempo": 120.0
            },
            {
                "start_time": 81.9840909,
                "end_time": 83.2931818,
                "pitch": 79,
                "velocity": 64,
                "duration": 1.3090909,
                "tempo": 120.0
            },
            {
                "start_time": 24.4272727,
                "end_time": 83.6545455,
                "pitch": 45,
                "velocity": 64,
                "duration": 59.2272727,
                "tempo": 120.0
            },
            {
                "start_time": 83.2931818,
                "end_time": 83.6545455,
                "pitch": 66,
                "velocity": 64,
                "duration": 0.3613636,
                "tempo": 120.0
            },
            {
                "start_time": 83.6545455,
                "end_time": 83.8931818,
                "pitch": 71,
                "velocity": 64,
                "duration": 0.2386364,
                "tempo": 120.0
            },
            {
                "start_time": 83.8931818,
                "end_time": 84.0136364,
                "pitch": 70,
                "velocity": 64,
                "duration": 0.1204545,
                "tempo": 120.0
            },
            {
                "start_time": 84.0136364,
                "end_time": 84.2545455,
                "pitch": 68,
                "velocity": 64,
                "duration": 0.2409091,
                "tempo": 120.0
            },
            {
                "start_time": 84.0136364,
                "end_time": 84.2545455,
                "pitch": 68,
                "velocity": 64,
                "duration": 0.2409091,
                "tempo": 120.0
            },
            {
                "start_time": 84.2545455,
                "end_time": 85.0954545,
                "pitch": 70,
                "velocity": 64,
                "duration": 0.8409091,
                "tempo": 120.0
            },
            {
                "start_time": 85.0954545,
                "end_time": 85.3340909,
                "pitch": 66,
                "velocity": 64,
                "duration": 0.2386364,
                "tempo": 120.0
            },
            {
                "start_time": 85.3340909,
                "end_time": 85.4545455,
                "pitch": 64,
                "velocity": 64,
                "duration": 0.1204545,
                "tempo": 120.0
            },
            {
                "start_time": 85.3340909,
                "end_time": 85.4545455,
                "pitch": 64,
                "velocity": 64,
                "duration": 0.1204545,
                "tempo": 120.0
            },
            {
                "start_time": 85.4545455,
                "end_time": 85.6954545,
                "pitch": 63,
                "velocity": 64,
                "duration": 0.2409091,
                "tempo": 120.0
            },
            {
                "start_time": 82.9363636,
                "end_time": 86.525,
                "pitch": 23,
                "velocity": 64,
                "duration": 3.5886364,
                "tempo": 120.0
            },
            {
                "start_time": 85.6954545,
                "end_time": 86.525,
                "pitch": 64,
                "velocity": 64,
                "duration": 0.8295455,
                "tempo": 120.0
            },
            {
                "start_time": 86.525,
                "end_time": 86.7659091,
                "pitch": 68,
                "velocity": 64,
                "duration": 0.2409091,
                "tempo": 120.0
            },
            {
                "start_time": 86.8840909,
                "end_time": 87.125,
                "pitch": 68,
                "velocity": 64,
                "duration": 0.2409091,
                "tempo": 120.0
            },
            {
                "start_time": 87.125,
                "end_time": 87.2454545,
                "pitch": 68,
                "velocity": 64,
                "duration": 0.1204545,
                "tempo": 120.0
            },
            {
                "start_time": 87.2454545,
                "end_time": 87.6045455,
                "pitch": 71,
                "velocity": 64,
                "duration": 0.3590909,
                "tempo": 120.0
            },
            {
                "start_time": 87.2454545,
                "end_time": 87.6045455,
                "pitch": 71,
                "velocity": 64,
                "duration": 0.3590909,
                "tempo": 120.0
            },
            {
                "start_time": 87.6045455,
                "end_time": 87.9659091,
                "pitch": 68,
                "velocity": 64,
                "duration": 0.3613636,
                "tempo": 120.0
            },
            {
                "start_time": 87.6045455,
                "end_time": 87.9659091,
                "pitch": 68,
                "velocity": 64,
                "duration": 0.3613636,
                "tempo": 120.0
            },
            {
                "start_time": 87.9659091,
                "end_time": 88.2068182,
                "pitch": 66,
                "velocity": 64,
                "duration": 0.2409091,
                "tempo": 120.0
            },
            {
                "start_time": 88.325,
                "end_time": 88.5659091,
                "pitch": 66,
                "velocity": 64,
                "duration": 0.2409091,
                "tempo": 120.0
            },
            {
                "start_time": 83.6545455,
                "end_time": 88.6863636,
                "pitch": 45,
                "velocity": 64,
                "duration": 5.0318182,
                "tempo": 120.0
            },
            {
                "start_time": 88.5659091,
                "end_time": 88.6863636,
                "pitch": 66,
                "velocity": 64,
                "duration": 0.1204545,
                "tempo": 120.0
            },
            {
                "start_time": 88.6863636,
                "end_time": 89.0454545,
                "pitch": 71,
                "velocity": 64,
                "duration": 0.3590909,
                "tempo": 120.0
            },
            {
                "start_time": 89.0454545,
                "end_time": 89.4,
                "pitch": 73,
                "velocity": 64,
                "duration": 0.3545455,
                "tempo": 120.0
            },
            {
                "start_time": 89.4,
                "end_time": 89.9954545,
                "pitch": 75,
                "velocity": 64,
                "duration": 0.5954545,
                "tempo": 120.0
            },
            {
                "start_time": 27.6590909,
                "end_time": 90.4772727,
                "pitch": 57,
                "velocity": 64,
                "duration": 62.8181818,
                "tempo": 120.0
            },
            {
                "start_time": 89.9954545,
                "end_time": 90.4772727,
                "pitch": 73,
                "velocity": 64,
                "duration": 0.4818182,
                "tempo": 120.0
            },
            {
                "start_time": 90.4772727,
                "end_time": 90.8363636,
                "pitch": 71,
                "velocity": 64,
                "duration": 0.3590909,
                "tempo": 120.0
            },
            {
                "start_time": 90.8363636,
                "end_time": 92.2704545,
                "pitch": 70,
                "velocity": 64,
                "duration": 1.4340909,
                "tempo": 120.0
            },
            {
                "start_time": 92.2704545,
                "end_time": 92.5090909,
                "pitch": 68,
                "velocity": 64,
                "duration": 0.2386364,
                "tempo": 120.0
            },
            {
                "start_time": 92.2704545,
                "end_time": 92.5090909,
                "pitch": 68,
                "velocity": 64,
                "duration": 0.2386364,
                "tempo": 120.0
            },
            {
                "start_time": 92.6318182,
                "end_time": 92.8727273,
                "pitch": 68,
                "velocity": 64,
                "duration": 0.2409091,
                "tempo": 120.0
            },
            {
                "start_time": 92.8727273,
                "end_time": 92.9886364,
                "pitch": 68,
                "velocity": 64,
                "duration": 0.1159091,
                "tempo": 120.0
            },
            {
                "start_time": 92.9886364,
                "end_time": 93.3454545,
                "pitch": 71,
                "velocity": 64,
                "duration": 0.3568182,
                "tempo": 120.0
            },
            {
                "start_time": 92.9886364,
                "end_time": 93.3454545,
                "pitch": 71,
                "velocity": 64,
                "duration": 0.3568182,
                "tempo": 120.0
            },
            {
                "start_time": 93.3454545,
                "end_time": 93.7045455,
                "pitch": 68,
                "velocity": 64,
                "duration": 0.3590909,
                "tempo": 120.0
            },
            {
                "start_time": 93.3454545,
                "end_time": 93.7045455,
                "pitch": 68,
                "velocity": 64,
                "duration": 0.3590909,
                "tempo": 120.0
            },
            {
                "start_time": 83.2931818,
                "end_time": 93.7045455,
                "pitch": 79,
                "velocity": 64,
                "duration": 10.4113636,
                "tempo": 120.0
            },
            {
                "start_time": 93.7045455,
                "end_time": 93.9454545,
                "pitch": 66,
                "velocity": 64,
                "duration": 0.2409091,
                "tempo": 120.0
            },
            {
                "start_time": 94.0659091,
                "end_time": 94.3045455,
                "pitch": 66,
                "velocity": 64,
                "duration": 0.2386364,
                "tempo": 120.0
            },
            {
                "start_time": 88.6863636,
                "end_time": 94.425,
                "pitch": 45,
                "velocity": 64,
                "duration": 5.7386364,
                "tempo": 120.0
            },
            {
                "start_time": 94.3045455,
                "end_time": 94.425,
                "pitch": 66,
                "velocity": 64,
                "duration": 0.1204545,
                "tempo": 120.0
            },
            {
                "start_time": 94.425,
                "end_time": 94.7863636,
                "pitch": 71,
                "velocity": 64,
                "duration": 0.3613636,
                "tempo": 120.0
            },
            {
                "start_time": 90.4772727,
                "end_time": 95.1454545,
                "pitch": 57,
                "velocity": 64,
                "duration": 4.6681818,
                "tempo": 120.0
            },
            {
                "start_time": 94.7863636,
                "end_time": 95.1454545,
                "pitch": 73,
                "velocity": 64,
                "duration": 0.3590909,
                "tempo": 120.0
            },
            {
                "start_time": 95.1454545,
                "end_time": 97.7772727,
                "pitch": 71,
                "velocity": 64,
                "duration": 2.6318182,
                "tempo": 120.0
            }
        ]
    }
}