{
    "mood": "happy",
    "instruments": {
        "Electric Guitar (clean)": [
            {
                "start_time": 0.0363636,
                "end_time": 0.1636364,
                "pitch": 48,
                "velocity": 64,
                "duration": 0.1272727,
                "tempo": 120.0
            },
            {
                "start_time": 0.1636364,
                "end_time": 0.2954545,
                "pitch": 36,
                "velocity": 64,
                "duration": 0.1318182,
                "tempo": 120.0
            },
            {
                "start_time": 0.2977273,
                "end_time": 0.4295455,
                "pitch": 36,
                "velocity": 64,
                "duration": 0.1318182,
                "tempo": 120.0
            },
            {
                "start_time": 0.4295455,
                "end_time": 0.5636364,
                "pitch": 36,
                "velocity": 64,
                "duration": 0.1340909,
                "tempo": 120.0
            },
            {
                "start_time": 0.5659091,
                "end_time": 0.8409091,
                "pitch": 43,
                "velocity": 64,
                "duration": 0.275,
                "tempo": 120.0
            },
            {
                "start_time": 0.8409091,
                "end_time": 0.9795455,
                "pitch": 48,
                "velocity": 64,
                "duration": 0.1386364,
                "tempo": 120.0
            },
            {
                "start_time": 0.9818182,
                "end_time": 1.1181818,
                "pitch": 36,
                "velocity": 64,
                "duration": 0.1363636,
                "tempo": 120.0
            },
            {
                "start_time": 1.1181818,
                "end_time": 1.2522727,
                "pitch": 36,
                "velocity": 64,
                "duration": 0.1340909,
                "tempo": 120.0
            },
            {
                "start_time": 1.2522727,
                "end_time": 1.3863636,
                "pitch": 36,
                "velocity": 64,
                "duration": 0.1340909,
                "tempo": 120.0
            },
            {
                "start_time": 1.3863636,
                "end_time": 1.6522727,
                "pitch": 43,
                "velocity": 64,
                "duration": 0.2659091,
                "tempo": 120.0
            },
            {
                "start_time": 1.6545455,
                "end_time": 1.7886364,
                "pitch": 48,
                "velocity": 64,
                "duration": 0.1340909,
                "tempo": 120.0
            },
            {
                "start_time": 1.7886364,
                "end_time": 1.9204545,
                "pitch": 36,
                "velocity": 64,
                "duration": 0.1318182,
                "tempo": 120.0
            },
            {
                "start_time": 1.9227273,
                "end_time": 2.0545455,
                "pitch": 36,
                "velocity": 64,
                "duration": 0.1318182,
                "tempo": 120.0
            },
            {
                "start_time": 2.0545455,
                "end_time": 2.1886364,
                "pitch": 36,
                "velocity": 64,
                "duration": 0.1340909,
                "tempo": 120.0
            },
            {
                "start_time": 2.1886364,
                "end_time": 2.4613636,
                "pitch": 43,
                "velocity": 64,
                "duration": 0.2727273,
                "tempo": 120.0
            },
            {
                "start_time": 2.4613636,
                "end_time": 2.5977273,
                "pitch": 48,
                "velocity": 64,
                "duration": 0.1363636,
                "tempo": 120.0
            },
            {
                "start_time": 2.5977273,
                "end_time": 2.7363636,
                "pitch": 36,
                "velocity": 64,
                "duration": 0.1386364,
                "tempo": 120.0
            },
            {
                "start_time": 2.7363636,
                "end_time": 2.8681818,
                "pitch": 36,
                "velocity": 64,
                "duration": 0.1318182,
                "tempo": 120.0
            },
            {
                "start_time": 2.8681818,
                "end_time": 3.0022727,
                "pitch": 36,
                "velocity": 64,
                "duration": 0.1340909,
                "tempo": 120.0
            },
            {
                "start_time": 3.0045455,
                "end_time": 3.2704545,
                "pitch": 43,
                "velocity": 64,
                "duration": 0.2659091,
                "tempo": 120.0
            },
            {
                "start_time": 3.2704545,
                "end_time": 3.4045455,
                "pitch": 48,
                "velocity": 64,
                "duration": 0.1340909,
                "tempo": 120.0
            },
            {
                "start_time": 3.4068182,
                "end_time": 3.5409091,
                "pitch": 36,
                "velocity": 64,
                "duration": 0.1340909,
                "tempo": 120.0
            },
            {
                "start_time": 3.5409091,
                "end_time": 3.6772727,
                "pitch": 36,
                "velocity": 64,
                "duration": 0.1363636,
                "tempo": 120.0
            },
            {
                "start_time": 3.6772727,
                "end_time": 3.8136364,
                "pitch": 36,
                "velocity": 64,
                "duration": 0.1363636,
                "tempo": 120.0
            },
            {
                "start_time": 3.8136364,
                "end_time": 4.0795455,
                "pitch": 43,
                "velocity": 64,
                "duration": 0.2659091,
                "tempo": 120.0
            },
            {
                "start_time": 4.0818182,
                "end_time": 4.2136364,
                "pitch": 48,
                "velocity": 64,
                "duration": 0.1318182,
                "tempo": 120.0
            },
            {
                "start_time": 4.2159091,
                "end_time": 4.3477273,
                "pitch": 36,
                "velocity": 64,
                "duration": 0.1318182,
                "tempo": 120.0
            },
            {
                "start_time": 4.3477273,
                "end_time": 4.4818182,
                "pitch": 36,
                "velocity": 64,
                "duration": 0.1340909,
                "tempo": 120.0
            },
            {
                "start_time": 4.4818182,
                "end_time": 4.6159091,
                "pitch": 36,
                "velocity": 64,
                "duration": 0.1340909,
                "tempo": 120.0
            },
            {
                "start_time": 4.6159091,
                "end_time": 4.8818182,
                "pitch": 43,
                "velocity": 64,
                "duration": 0.2659091,
                "tempo": 120.0
            },
            {
                "start_time": 4.8840909,
                "end_time": 5.0204545,
                "pitch": 48,
                "velocity": 64,
                "duration": 0.1363636,
                "tempo": 120.0
            },
            {
                "start_time": 5.0204545,
                "end_time": 5.1545455,
                "pitch": 36,
                "velocity": 64,
                "duration": 0.1340909,
                "tempo": 120.0
            },
            {
                "start_time": 5.1568182,
                "end_time": 5.2909091,
                "pitch": 36,
                "velocity": 64,
                "duration": 0.1340909,
                "tempo": 120.0
            },
            {
                "start_time": 5.2931818,
                "end_time": 5.4272727,
                "pitch": 36,
                "velocity": 64,
                "duration": 0.1340909,
                "tempo": 120.0
            },
            {
                "start_time": 5.4295455,
                "end_time": 5.6954545,
                "pitch": 43,
                "velocity": 64,
                "duration": 0.2659091,
                "tempo": 120.0
            },
            {
                "start_time": 5.6954545,
                "end_time": 5.8295455,
                "pitch": 48,
                "velocity": 64,
                "duration": 0.1340909,
                "tempo": 120.0
            },
            {
                "start_time": 5.8295455,
                "end_time": 5.9659091,
                "pitch": 36,
                "velocity": 64,
                "duration": 0.1363636,
                "tempo": 120.0
            },
            {
                "start_time": 5.9659091,
                "end_time": 6.1,
                "pitch": 36,
                "velocity": 64,
                "duration": 0.1340909,
                "tempo": 120.0
            },
            {
                "start_time": 6.1,
                "end_time": 6.2363636,
                "pitch": 36,
                "velocity": 64,
                "duration": 0.1363636,
                "tempo": 120.0
            },
            {
                "start_time": 6.2386364,
                "end_time": 6.5090909,
                "pitch": 43,
                "velocity": 64,
                "duration": 0.2704545,
                "tempo": 120.0
            },
            {
                "start_time": 6.5113636,
                "end_time": 6.6409091,
                "pitch": 48,
                "velocity": 64,
                "duration": 0.1295455,
                "tempo": 120.0
            },
            {
                "start_time": 6.6431818,
                "end_time": 6.775,
                "pitch": 36,
                "velocity": 64,
                "duration": 0.1318182,
                "tempo": 120.0
            },
            {
                "start_time": 6.775,
                "end_time": 6.9090909,
                "pitch": 36,
                "velocity": 64,
                "duration": 0.1340909,
                "tempo": 120.0
            },
            {
                "start_time": 6.9090909,
                "end_time": 7.0431818,
                "pitch": 36,
                "velocity": 64,
                "duration": 0.1340909,
                "tempo": 120.0
            },
            {
                "start_time": 7.0431818,
                "end_time": 7.3136364,
                "pitch": 43,
                "velocity": 64,
                "duration": 0.2704545,
                "tempo": 120.0
            },
            {
                "start_time": 7.3159091,
                "end_time": 7.45,
                "pitch": 48,
                "velocity": 64,
                "duration": 0.1340909,
                "tempo": 120.0
            },
            {
                "start_time": 7.4522727,
                "end_time": 7.5863636,
                "pitch": 36,
                "velocity": 64,
                "duration": 0.1340909,
                "tempo": 120.0
            },
            {
                "start_time": 7.5886364,
                "end_time": 7.7204545,
                "pitch": 36,
                "velocity": 64,
                "duration": 0.1318182,
                "tempo": 120.0
            },
            {
                "start_time": 7.7227273,
                "end_time": 7.8545455,
                "pitch": 36,
                "velocity": 64,
                "duration": 0.1318182,
                "tempo": 120.0
            },
            {
                "start_time": 7.8545455,
                "end_time": 8.1227273,
                "pitch": 43,
                "velocity": 64,
                "duration": 0.2681818,
                "tempo": 120.0
            },
            {
                "start_time": 8.1227273,
                "end_time": 8.2568182,
                "pitch": 48,
                "velocity": 64,
                "duration": 0.1340909,
                "tempo": 120.0
            },
            {
                "start_time": 8.2568182,
                "end_time": 8.3909091,
                "pitch": 36,
                "velocity": 64,
                "duration": 0.1340909,
                "tempo": 120.0
            },
            {
                "start_time": 8.3909091,
                "end_time": 8.5227273,
                "pitch": 36,
                "velocity": 64,
                "duration": 0.1318182,
                "tempo": 120.0
            },
            {
                "start_time": 8.525,
                "end_time": 8.6568182,
                "pitch": 36,
                "velocity": 64,
                "duration": 0.1318182,
                "tempo": 120.0
            },
            {
                "start_time": 8.6590909,
                "end_time": 8.9295455,
                "pitch": 43,
                "velocity": 64,
                "duration": 0.2704545,
                "tempo": 120.0
            },
            {
                "start_time": 8.9295455,
                "end_time": 9.0659091,
                "pitch": 48,
                "velocity": 64,
                "duration": 0.1363636,
                "tempo": 120.0
            },
            {
                "start_time": 9.0659091,
                "end_time": 9.2045455,
                "pitch": 36,
                "velocity": 64,
                "duration": 0.1386364,
                "tempo": 120.0
            },
            {
                "start_time": 9.2045455,
                "end_time": 9.3363636,
                "pitch": 36,
                "velocity": 64,
                "duration": 0.1318182,
                "tempo": 120.0
            },
            {
                "start_time": 9.3363636,
                "end_time": 9.4704545,
                "pitch": 36,
                "velocity": 64,
                "duration": 0.1340909,
                "tempo": 120.0
            },
            {
                "start_time": 9.4727273,
                "end_time": 9.7386364,
                "pitch": 43,
                "velocity": 64,
                "duration": 0.2659091,
                "tempo": 120.0
            },
            {
                "start_time": 9.7409091,
                "end_time": 9.8704545,
                "pitch": 48,
                "velocity": 64,
                "duration": 0.1295455,
                "tempo": 120.0
            },
            {
                "start_time": 9.8727273,
                "end_time": 10.0045455,
                "pitch": 36,
                "velocity": 64,
                "duration": 0.1318182,
                "tempo": 120.0
            },
            {
                "start_time": 10.0045455,
                "end_time": 10.1386364,
                "pitch": 36,
                "velocity": 64,
                "duration": 0.1340909,
                "tempo": 120.0
            },
            {
                "start_time": 10.1386364,
                "end_time": 10.2727273,
                "pitch": 36,
                "velocity": 64,
                "duration": 0.1340909,
                "tempo": 120.0
            },
            {
                "start_time": 10.2727273,
                "end_time": 10.5431818,
                "pitch": 41,
                "velocity": 64,
                "duration": 0.2704545,
                "tempo": 120.0
            },
            {
                "start_time": 10.5454545,
                "end_time": 10.6795455,
                "pitch": 48,
                "velocity": 64,
                "duration": 0.1340909,
                "tempo": 120.0
            },
            {
                "start_time": 10.6818182,
                "end_time": 10.8159091,
                "pitch": 36,
                "velocity": 64,
                "duration": 0.1340909,
                "tempo": 120.0
            },
            {
                "start_time": 10.8181818,
                "end_time": 10.95,
                "pitch": 36,
                "velocity": 64,
                "duration": 0.1318182,
                "tempo": 120.0
            },
            {
                "start_time": 10.9522727,
                "end_time": 11.0840909,
                "pitch": 36,
                "velocity": 64,
                "duration": 0.1318182,
                "tempo": 120.0
            },
            {
                "start_time": 11.0840909,
                "end_time": 11.3545455,
                "pitch": 41,
                "velocity": 64,
                "duration": 0.2704545,
                "tempo": 120.0
            },
            {
                "start_time": 11.3545455,
                "end_time": 11.4863636,
                "pitch": 48,
                "velocity": 64,
                "duration": 0.1318182,
                "tempo": 120.0
            },
            {
                "start_time": 11.4863636,
                "end_time": 11.6204545,
                "pitch": 36,
                "velocity": 64,
                "duration": 0.1340909,
                "tempo": 120.0
            },
            {
                "start_time": 11.6204545,
                "end_time": 11.7522727,
                "pitch": 36,
                "velocity": 64,
                "duration": 0.1318182,
                "tempo": 120.0
            },
            {
                "start_time": 11.7545455,
                "end_time": 11.8863636,
                "pitch": 36,
                "velocity": 64,
                "duration": 0.1318182,
                "tempo": 120.0
            },
            {
                "start_time": 11.8886364,
                "end_time": 12.1613636,
                "pitch": 41,
                "velocity": 64,
                "duration": 0.2727273,
                "tempo": 120.0
            },
            {
                "start_time": 12.1613636,
                "end_time": 12.2954545,
                "pitch": 48,
                "velocity": 64,
                "duration": 0.1340909,
                "tempo": 120.0
            },
            {
                "start_time": 12.2954545,
                "end_time": 12.4318182,
                "pitch": 36,
                "velocity": 64,
                "duration": 0.1363636,
                "tempo": 120.0
            },
            {
                "start_time": 12.4318182,
                "end_time": 12.5659091,
                "pitch": 48,
                "velocity": 64,
                "duration": 0.1340909,
                "tempo": 120.0
            },
            {
                "start_time": 12.5659091,
                "end_time": 12.7,
                "pitch": 36,
                "velocity": 64,
                "duration": 0.1340909,
                "tempo": 120.0
            },
            {
                "start_time": 12.7,
                "end_time": 12.8340909,
                "pitch": 41,
                "velocity": 64,
                "duration": 0.1340909,
                "tempo": 120.0
            },
            {
                "start_time": 12.8340909,
                "end_time": 12.9704545,
                "pitch": 45,
                "velocity": 64,
                "duration": 0.1363636,
                "tempo": 120.0
            },
            {
                "start_time": 12.9704545,
                "end_time": 13.1045455,
                "pitch": 48,
                "velocity": 64,
                "duration": 0.1340909,
                "tempo": 120.0
            },
            {
                "start_time": 13.1045455,
                "end_time": 13.2386364,
                "pitch": 36,
                "velocity": 64,
                "duration": 0.1340909,
                "tempo": 120.0
            },
            {
                "start_time": 13.2409091,
                "end_time": 13.375,
                "pitch": 36,
                "velocity": 64,
                "duration": 0.1340909,
                "tempo": 120.0
            },
            {
                "start_time": 13.3772727,
                "end_time": 13.5113636,
                "pitch": 36,
                "velocity": 64,
                "duration": 0.1340909,
                "tempo": 120.0
            },
            {
                "start_time": 13.5136364,
                "end_time": 13.7795455,
                "pitch": 43,
                "velocity": 64,
                "duration": 0.2659091,
                "tempo": 120.0
            },
            {
                "start_time": 13.7795455,
                "end_time": 13.9136364,
                "pitch": 48,
                "velocity": 64,
                "duration": 0.1340909,
                "tempo": 120.0
            },
            {
                "start_time": 13.9136364,
                "end_time": 14.0477273,
                "pitch": 36,
                "velocity": 64,
                "duration": 0.1340909,
                "tempo": 120.0
            },
            {
                "start_time": 14.0477273,
                "end_time": 14.1840909,
                "pitch": 36,
                "velocity": 64,
                "duration": 0.1363636,
                "tempo": 120.0
            },
            {
                "start_time": 14.1840909,
                "end_time": 14.3204545,
                "pitch": 36,
                "velocity": 64,
                "duration": 0.1363636,
                "tempo": 120.0
            },
            {
                "start_time": 14.3204545,
                "end_time": 14.5931818,
                "pitch": 43,
                "velocity": 64,
                "duration": 0.2727273,
                "tempo": 120.0
            },
            {
                "start_time": 14.5931818,
                "end_time": 14.7272727,
                "pitch": 48,
                "velocity": 64,
                "duration": 0.1340909,
                "tempo": 120.0
            },
            {
                "start_time": 14.7272727,
                "end_time": 14.8613636,
                "pitch": 36,
                "velocity": 64,
                "duration": 0.1340909,
                "tempo": 120.0
            },
            {
                "start_time": 14.8613636,
                "end_time": 14.9931818,
                "pitch": 36,
                "velocity": 64,
                "duration": 0.1318182,
                "tempo": 120.0
            },
            {
                "start_time": 14.9954545,
                "end_time": 15.1272727,
                "pitch": 36,
                "velocity": 64,
                "duration": 0.1318182,
                "tempo": 120.0
            },
            {
                "start_time": 15.1295455,
                "end_time": 15.4,
                "pitch": 43,
                "velocity": 64,
                "duration": 0.2704545,
                "tempo": 120.0
            },
            {
                "start_time": 15.4,
                "end_time": 15.5363636,
                "pitch": 48,
                "velocity": 64,
                "duration": 0.1363636,
                "tempo": 120.0
            },
            {
                "start_time": 15.5363636,
                "end_time": 15.675,
                "pitch": 36,
                "velocity": 64,
                "duration": 0.1386364,
                "tempo": 120.0
            },
            {
                "start_time": 15.675,
                "end_time": 15.8068182,
                "pitch": 36,
                "velocity": 64,
                "duration": 0.1318182,
                "tempo": 120.0
            },
            {
                "start_time": 15.8068182,
                "end_time": 15.9431818,
                "pitch": 36,
                "velocity": 64,
                "duration": 0.1363636,
                "tempo": 120.0
            },
            {
                "start_time": 15.9431818,
                "end_time": 16.2090909,
                "pitch": 43,
                "velocity": 64,
                "duration": 0.2659091,
                "tempo": 120.0
            },
            {
                "start_time": 16.2113636,
                "end_time": 16.3409091,
                "pitch": 48,
                "velocity": 64,
                "duration": 0.1295455,
                "tempo": 120.0
            },
            {
                "start_time": 16.3431818,
                "end_time": 16.475,
                "pitch": 36,
                "velocity": 64,
                "duration": 0.1318182,
                "tempo": 120.0
            },
            {
                "start_time": 16.475,
                "end_time": 16.6090909,
                "pitch": 36,
                "velocity": 64,
                "duration": 0.1340909,
                "tempo": 120.0
            },
            {
                "start_time": 16.6090909,
                "end_time": 16.7431818,
                "pitch": 36,
                "velocity": 64,
                "duration": 0.1340909,
                "tempo": 120.0
            },
            {
                "start_time": 16.7431818,
                "end_time": 17.0159091,
                "pitch": 43,
                "velocity": 64,
                "duration": 0.2727273,
                "tempo": 120.0
            },
            {
                "start_time": 17.0159091,
                "end_time": 17.15,
                "pitch": 48,
                "velocity": 64,
                "duration": 0.1340909,
                "tempo": 120.0
            },
            {
                "start_time": 17.1522727,
                "end_time": 17.2886364,
                "pitch": 36,
                "velocity": 64,
                "duration": 0.1363636,
                "tempo": 120.0
            },
            {
                "start_time": 17.2886364,
                "end_time": 17.4204545,
                "pitch": 36,
                "velocity": 64,
                "duration": 0.1318182,
                "tempo": 120.0
            },
            {
                "start_time": 17.4227273,
                "end_time": 17.5545455,
                "pitch": 36,
                "velocity": 64,
                "duration": 0.1318182,
                "tempo": 120.0
            },
            {
                "start_time": 17.5568182,
                "end_time": 17.8227273,
                "pitch": 43,
                "velocity": 64,
                "duration": 0.2659091,
                "tempo": 120.0
            },
            {
                "start_time": 17.8227273,
                "end_time": 17.9568182,
                "pitch": 48,
                "velocity": 64,
                "duration": 0.1340909,
                "tempo": 120.0
            },
            {
                "start_time": 17.9568182,
                "end_time": 18.0909091,
                "pitch": 36,
                "velocity": 64,
                "duration": 0.1340909,
                "tempo": 120.0
            },
            {
                "start_time": 18.0909091,
                "end_time": 18.2227273,
                "pitch": 36,
                "velocity": 64,
                "duration": 0.1318182,
                "tempo": 120.0
            },
            {
                "start_time": 18.225,
                "end_time": 18.3568182,
                "pitch": 36,
                "velocity": 64,
                "duration": 0.1318182,
                "tempo": 120.0
            },
            {
                "start_time": 18.3590909,
                "end_time": 18.6295455,
                "pitch": 43,
                "velocity": 64,
                "duration": 0.2704545,
                "tempo": 120.0
            },
            {
                "start_time": 18.6318182,
                "end_time": 18.7659091,
                "pitch": 48,
                "velocity": 64,
                "duration": 0.1340909,
                "tempo": 120.0
            },
            {
                "start_time": 18.7659091,
                "end_time": 18.9045455,
                "pitch": 36,
                "velocity": 64,
                "duration": 0.1386364,
                "tempo": 120.0
            },
            {
                "start_time": 18.9045455,
                "end_time": 19.0363636,
                "pitch": 36,
                "velocity": 64,
                "duration": 0.1318182,
                "tempo": 120.0
            },
            {
                "start_time": 19.0363636,
                "end_time": 19.1727273,
                "pitch": 36,
                "velocity": 64,
                "duration": 0.1363636,
                "tempo": 120.0
            },
            {
                "start_time": 19.1727273,
                "end_time": 19.4386364,
                "pitch": 43,
                "velocity": 64,
                "duration": 0.2659091,
                "tempo": 120.0
            },
            {
                "start_time": 19.4409091,
                "end_time": 19.575,
                "pitch": 48,
                "velocity": 64,
                "duration": 0.1340909,
                "tempo": 120.0
            },
            {
                "start_time": 19.575,
                "end_time": 19.7090909,
                "pitch": 36,
                "velocity": 64,
                "duration": 0.1340909,
                "tempo": 120.0
            },
            {
                "start_time": 19.7113636,
                "end_time": 19.8454545,
                "pitch": 36,
                "velocity": 64,
                "duration": 0.1340909,
                "tempo": 120.0
            },
            {
                "start_time": 19.8454545,
                "end_time": 19.9818182,
                "pitch": 36,
                "velocity": 64,
                "duration": 0.1363636,
                "tempo": 120.0
            },
            {
                "start_time": 19.9840909,
                "end_time": 20.25,
                "pitch": 43,
                "velocity": 64,
                "duration": 0.2659091,
                "tempo": 120.0
            },
            {
                "start_time": 20.25,
                "end_time": 20.3818182,
                "pitch": 48,
                "velocity": 64,
                "duration": 0.1318182,
                "tempo": 120.0
            },
            {
                "start_time": 20.3840909,
                "end_time": 20.5181818,
                "pitch": 36,
                "velocity": 64,
                "duration": 0.1340909,
                "tempo": 120.0
            },
            {
                "start_time": 20.5181818,
                "end_time": 20.65,
                "pitch": 36,
                "velocity": 64,
                "duration": 0.1318182,
                "tempo": 120.0
            },
            {
                "start_time": 20.6522727,
                "end_time": 20.7840909,
                "pitch": 36,
                "velocity": 64,
                "duration": 0.1318182,
                "tempo": 120.0
            },
            {
                "start_time": 20.7863636,
                "end_time": 21.0522727,
                "pitch": 43,
                "velocity": 64,
                "duration": 0.2659091,
                "tempo": 120.0
            },
            {
                "start_time": 21.0522727,
                "end_time": 21.1886364,
                "pitch": 48,
                "velocity": 64,
                "duration": 0.1363636,
                "tempo": 120.0
            },
            {
                "start_time": 21.1909091,
                "end_time": 21.325,
                "pitch": 36,
                "velocity": 64,
                "duration": 0.1340909,
                "tempo": 120.0
            },
            {
                "start_time": 21.325,
                "end_time": 21.4613636,
                "pitch": 36,
                "velocity": 64,
                "duration": 0.1363636,
                "tempo": 120.0
            },
            {
                "start_time": 21.4613636,
                "end_time": 21.5977273,
                "pitch": 36,
                "velocity": 64,
                "duration": 0.1363636,
                "tempo": 120.0
            },
            {
                "start_time": 21.5977273,
                "end_time": 21.8636364,
                "pitch": 43,
                "velocity": 64,
                "duration": 0.2659091,
                "tempo": 120.0
            },
            {
                "start_time": 21.8659091,
                "end_time": 21.9977273,
                "pitch": 48,
                "velocity": 64,
                "duration": 0.1318182,
                "tempo": 120.0
            },
            {
                "start_time": 21.9977273,
                "end_time": 22.1340909,
                "pitch": 36,
                "velocity": 64,
                "duration": 0.1363636,
                "tempo": 120.0
            },
            {
                "start_time": 22.1340909,
                "end_time": 22.2681818,
                "pitch": 36,
                "velocity": 64,
                "duration": 0.1340909,
                "tempo": 120.0
            },
            {
                "start_time": 22.2681818,
                "end_time": 22.4068182,
                "pitch": 36,
                "velocity": 64,
                "duration": 0.1386364,
                "tempo": 120.0
            },
            {
                "start_time": 22.4068182,
                "end_time": 22.6795455,
                "pitch": 43,
                "velocity": 64,
                "duration": 0.2727273,
                "tempo": 120.0
            },
            {
                "start_time": 22.6795455,
                "end_time": 22.8113636,
                "pitch": 48,
                "velocity": 64,
                "duration": 0.1318182,
                "tempo": 120.0
            },
            {
                "start_time": 22.8113636,
                "end_time": 22.9431818,
                "pitch": 36,
                "velocity": 64,
                "duration": 0.1318182,
                "tempo": 120.0
            },
            {
                "start_time": 22.9454545,
                "end_time": 23.0772727,
                "pitch": 36,
                "velocity": 64,
                "duration": 0.1318182,
                "tempo": 120.0
            },
            {
                "start_time": 23.0772727,
                "end_time": 23.2113636,
                "pitch": 36,
                "velocity": 64,
                "duration": 0.1340909,
                "tempo": 120.0
            },
            {
                "start_time": 23.2136364,
                "end_time": 23.4840909,
                "pitch": 41,
                "velocity": 64,
                "duration": 0.2704545,
                "tempo": 120.0
            },
            {
                "start_time": 23.4840909,
                "end_time": 23.6204545,
                "pitch": 48,
                "velocity": 64,
                "duration": 0.1363636,
                "tempo": 120.0
            },
            {
                "start_time": 23.6204545,
                "end_time": 23.7568182,
                "pitch": 36,
                "velocity": 64,
                "duration": 0.1363636,
                "tempo": 120.0
            },
            {
                "start_time": 23.7568182,
                "end_time": 23.8909091,
                "pitch": 36,
                "velocity": 64,
                "duration": 0.1340909,
                "tempo": 120.0
            },
            {
                "start_time": 23.8909091,
                "end_time": 24.0227273,
                "pitch": 36,
                "velocity": 64,
                "duration": 0.1318182,
                "tempo": 120.0
            },
            {
                "start_time": 24.025,
                "end_time": 24.2931818,
                "pitch": 41,
                "velocity": 64,
                "duration": 0.2681818,
                "tempo": 120.0
            },
            {
                "start_time": 24.2954545,
                "end_time": 24.425,
                "pitch": 48,
                "velocity": 64,
                "duration": 0.1295455,
                "tempo": 120.0
            },
            {
                "start_time": 24.4272727,
                "end_time": 24.5590909,
                "pitch": 36,
                "velocity": 64,
                "duration": 0.1318182,
                "tempo": 120.0
            },
            {
                "start_time": 24.5590909,
                "end_time": 24.6931818,
                "pitch": 36,
                "velocity": 64,
                "duration": 0.1340909,
                "tempo": 120.0
            },
            {
                "start_time": 24.6931818,
                "end_time": 24.8272727,
                "pitch": 36,
                "velocity": 64,
                "duration": 0.1340909,
                "tempo": 120.0
            },
            {
                "start_time": 24.8272727,
                "end_time": 25.1,
                "pitch": 41,
                "velocity": 64,
                "duration": 0.2727273,
                "tempo": 120.0
            },
            {
                "start_time": 25.1022727,
                "end_time": 25.2340909,
                "pitch": 48,
                "velocity": 64,
                "duration": 0.1318182,
                "tempo": 120.0
            },
            {
                "start_time": 25.2340909,
                "end_time": 25.3704545,
                "pitch": 36,
                "velocity": 64,
                "duration": 0.1363636,
                "tempo": 120.0
            },
            {
                "start_time": 25.3727273,
                "end_time": 25.5045455,
                "pitch": 48,
                "velocity": 64,
                "duration": 0.1318182,
                "tempo": 120.0
            },
            {
                "start_time": 25.5045455,
                "end_time": 25.6386364,
                "pitch": 36,
                "velocity": 64,
                "duration": 0.1340909,
                "tempo": 120.0
            },
            {
                "start_time": 25.6386364,
                "end_time": 25.7727273,
                "pitch": 41,
                "velocity": 64,
                "duration": 0.1340909,
                "tempo": 120.0
            },
            {
                "start_time": 25.7727273,
                "end_time": 25.9022727,
                "pitch": 45,
                "velocity": 64,
                "duration": 0.1295455,
                "tempo": 120.0
            }
        ],
        "Acoustic Grand Piano": [
            {
                "start_time": 0.0318182,
                "end_time": 2.5954545,
                "pitch": 64,
                "velocity": 64,
                "duration": 2.5636364,
                "tempo": 120.0
            },
            {
                "start_time": 2.7340909,
                "end_time": 2.8659091,
                "pitch": 64,
                "velocity": 64,
                "duration": 0.1318182,
                "tempo": 120.0
            },
            {
                "start_time": 3.0,
                "end_time": 3.1340909,
                "pitch": 64,
                "velocity": 64,
                "duration": 0.1340909,
                "tempo": 120.0
            },
            {
                "start_time": 3.2681818,
                "end_time": 5.8272727,
                "pitch": 62,
                "velocity": 64,
                "duration": 2.5590909,
                "tempo": 120.0
            },
            {
                "start_time": 5.9636364,
                "end_time": 6.0977273,
                "pitch": 62,
                "velocity": 64,
                "duration": 0.1340909,
                "tempo": 120.0
            },
            {
                "start_time": 6.2340909,
                "end_time": 6.3704545,
                "pitch": 62,
                "velocity": 64,
                "duration": 0.1363636,
                "tempo": 120.0
            },
            {
                "start_time": 6.5068182,
                "end_time": 9.0636364,
                "pitch": 60,
                "velocity": 64,
                "duration": 2.5568182,
                "tempo": 120.0
            },
            {
                "start_time": 9.2022727,
                "end_time": 9.3340909,
                "pitch": 60,
                "velocity": 64,
                "duration": 0.1318182,
                "tempo": 120.0
            },
            {
                "start_time": 9.4704545,
                "end_time": 9.6022727,
                "pitch": 60,
                "velocity": 64,
                "duration": 0.1318182,
                "tempo": 120.0
            },
            {
                "start_time": 9.7363636,
                "end_time": 11.35,
                "pitch": 60,
                "velocity": 64,
                "duration": 1.6136364,
                "tempo": 120.0
            },
            {
                "start_time": 11.3522727,
                "end_time": 12.1590909,
                "pitch": 60,
                "velocity": 64,
                "duration": 0.8068182,
                "tempo": 120.0
            },
            {
                "start_time": 12.1590909,
                "end_time": 12.9659091,
                "pitch": 62,
                "velocity": 64,
                "duration": 0.8068182,
                "tempo": 120.0
            },
            {
                "start_time": 12.9659091,
                "end_time": 15.5363636,
                "pitch": 64,
                "velocity": 64,
                "duration": 2.5704545,
                "tempo": 120.0
            },
            {
                "start_time": 15.6727273,
                "end_time": 15.8045455,
                "pitch": 64,
                "velocity": 64,
                "duration": 0.1318182,
                "tempo": 120.0
            },
            {
                "start_time": 15.9409091,
                "end_time": 16.0727273,
                "pitch": 64,
                "velocity": 64,
                "duration": 0.1318182,
                "tempo": 120.0
            },
            {
                "start_time": 16.2068182,
                "end_time": 18.7659091,
                "pitch": 62,
                "velocity": 64,
                "duration": 2.5590909,
                "tempo": 120.0
            },
            {
                "start_time": 18.9022727,
                "end_time": 19.0363636,
                "pitch": 62,
                "velocity": 64,
                "duration": 0.1340909,
                "tempo": 120.0
            },
            {
                "start_time": 19.1704545,
                "end_time": 19.3022727,
                "pitch": 62,
                "velocity": 64,
                "duration": 0.1318182,
                "tempo": 120.0
            },
            {
                "start_time": 19.4363636,
                "end_time": 21.9977273,
                "pitch": 60,
                "velocity": 64,
                "duration": 2.5613636,
                "tempo": 120.0
            },
            {
                "start_time": 22.1318182,
                "end_time": 22.2681818,
                "pitch": 60,
                "velocity": 64,
                "duration": 0.1363636,
                "tempo": 120.0
            },
            {
                "start_time": 22.4045455,
                "end_time": 22.5386364,
                "pitch": 60,
                "velocity": 64,
                "duration": 0.1340909,
                "tempo": 120.0
            },
            {
                "start_time": 22.6772727,
                "end_time": 24.2909091,
                "pitch": 60,
                "velocity": 64,
                "duration": 1.6136364,
                "tempo": 120.0
            },
            {
                "start_time": 24.2909091,
                "end_time": 25.0977273,
                "pitch": 60,
                "velocity": 64,
                "duration": 0.8068182,
                "tempo": 120.0
            },
            {
                "start_time": 25.0977273,
                "end_time": 25.9022727,
                "pitch": 62,
                "velocity": 64,
                "duration": 0.8045455,
                "tempo": 120.0
            }
        ],
        "Violin": [
            {
                "start_time": 0.0295455,
                "end_time": 0.1613636,
                "pitch": 79,
                "velocity": 127,
                "duration": 0.1318182,
                "tempo": 120.0
            },
            {
                "start_time": 0.1613636,
                "end_time": 0.2954545,
                "pitch": 76,
                "velocity": 127,
                "duration": 0.1340909,
                "tempo": 120.0
            },
            {
                "start_time": 0.2954545,
                "end_time": 0.4272727,
                "pitch": 77,
                "velocity": 127,
                "duration": 0.1318182,
                "tempo": 120.0
            },
            {
                "start_time": 0.4295455,
                "end_time": 0.5613636,
                "pitch": 74,
                "velocity": 127,
                "duration": 0.1318182,
                "tempo": 120.0
            },
            {
                "start_time": 0.5636364,
                "end_time": 0.7,
                "pitch": 76,
                "velocity": 127,
                "duration": 0.1363636,
                "tempo": 120.0
            },
            {
                "start_time": 0.7022727,
                "end_time": 0.8386364,
                "pitch": 74,
                "velocity": 127,
                "duration": 0.1363636,
                "tempo": 120.0
            },
            {
                "start_time": 0.8386364,
                "end_time": 0.9772727,
                "pitch": 72,
                "velocity": 127,
                "duration": 0.1386364,
                "tempo": 120.0
            },
            {
                "start_time": 0.9795455,
                "end_time": 1.1159091,
                "pitch": 74,
                "velocity": 127,
                "duration": 0.1363636,
                "tempo": 120.0
            },
            {
                "start_time": 1.1181818,
                "end_time": 1.25,
                "pitch": 76,
                "velocity": 127,
                "duration": 0.1318182,
                "tempo": 120.0
            },
            {
                "start_time": 1.25,
                "end_time": 1.3840909,
                "pitch": 77,
                "velocity": 127,
                "duration": 0.1340909,
                "tempo": 120.0
            },
            {
                "start_time": 1.3863636,
                "end_time": 1.5181818,
                "pitch": 79,
                "velocity": 127,
                "duration": 0.1318182,
                "tempo": 120.0
            },
            {
                "start_time": 1.5181818,
                "end_time": 1.6522727,
                "pitch": 74,
                "velocity": 127,
                "duration": 0.1340909,
                "tempo": 120.0
            },
            {
                "start_time": 1.6522727,
                "end_time": 1.7863636,
                "pitch": 76,
                "velocity": 127,
                "duration": 0.1340909,
                "tempo": 120.0
            },
            {
                "start_time": 1.7863636,
                "end_time": 1.9181818,
                "pitch": 77,
                "velocity": 127,
                "duration": 0.1318182,
                "tempo": 120.0
            },
            {
                "start_time": 1.9204545,
                "end_time": 2.0522727,
                "pitch": 79,
                "velocity": 127,
                "duration": 0.1318182,
                "tempo": 120.0
            },
            {
                "start_time": 2.0545455,
                "end_time": 2.1863636,
                "pitch": 72,
                "velocity": 127,
                "duration": 0.1318182,
                "tempo": 120.0
            },
            {
                "start_time": 2.1863636,
                "end_time": 2.3227273,
                "pitch": 74,
                "velocity": 127,
                "duration": 0.1363636,
                "tempo": 120.0
            },
            {
                "start_time": 2.3227273,
                "end_time": 2.4590909,
                "pitch": 76,
                "velocity": 127,
                "duration": 0.1363636,
                "tempo": 120.0
            },
            {
                "start_time": 2.4590909,
                "end_time": 2.5954545,
                "pitch": 67,
                "velocity": 127,
                "duration": 0.1363636,
                "tempo": 120.0
            },
            {
                "start_time": 2.5954545,
                "end_time": 2.7318182,
                "pitch": 72,
                "velocity": 127,
                "duration": 0.1363636,
                "tempo": 120.0
            },
            {
                "start_time": 2.7318182,
                "end_time": 2.8659091,
                "pitch": 74,
                "velocity": 127,
                "duration": 0.1340909,
                "tempo": 120.0
            },
            {
                "start_time": 2.8659091,
                "end_time": 2.9977273,
                "pitch": 76,
                "velocity": 127,
                "duration": 0.1318182,
                "tempo": 120.0
            },
            {
                "start_time": 3.0,
                "end_time": 3.1318182,
                "pitch": 77,
                "velocity": 127,
                "duration": 0.1318182,
                "tempo": 120.0
            },
            {
                "start_time": 3.1340909,
                "end_time": 3.2659091,
                "pitch": 79,
                "velocity": 127,
                "duration": 0.1318182,
                "tempo": 120.0
            },
            {
                "start_time": 3.2659091,
                "end_time": 3.4022727,
                "pitch": 77,
                "velocity": 127,
                "duration": 0.1363636,
                "tempo": 120.0
            },
            {
                "start_time": 3.4045455,
                "end_time": 3.5386364,
                "pitch": 76,
                "velocity": 127,
                "duration": 0.1340909,
                "tempo": 120.0
            },
            {
                "start_time": 3.5386364,
                "end_time": 3.675,
                "pitch": 77,
                "velocity": 127,
                "duration": 0.1363636,
                "tempo": 120.0
            },
            {
                "start_time": 3.675,
                "end_time": 3.8113636,
                "pitch": 74,
                "velocity": 127,
                "duration": 0.1363636,
                "tempo": 120.0
            },
            {
                "start_time": 3.8113636,
                "end_time": 3.9454545,
                "pitch": 76,
                "velocity": 127,
                "duration": 0.1340909,
                "tempo": 120.0
            },
            {
                "start_time": 3.9454545,
                "end_time": 4.0772727,
                "pitch": 70,
                "velocity": 127,
                "duration": 0.1318182,
                "tempo": 120.0
            },
            {
                "start_time": 4.0795455,
                "end_time": 4.2113636,
                "pitch": 72,
                "velocity": 127,
                "duration": 0.1318182,
                "tempo": 120.0
            },
            {
                "start_time": 4.2136364,
                "end_time": 4.3454545,
                "pitch": 74,
                "velocity": 127,
                "duration": 0.1318182,
                "tempo": 120.0
            },
            {
                "start_time": 4.3477273,
                "end_time": 4.4795455,
                "pitch": 76,
                "velocity": 127,
                "duration": 0.1318182,
                "tempo": 120.0
            },
            {
                "start_time": 4.4795455,
                "end_time": 4.6136364,
                "pitch": 77,
                "velocity": 127,
                "duration": 0.1340909,
                "tempo": 120.0
            },
            {
                "start_time": 4.6136364,
                "end_time": 4.7477273,
                "pitch": 79,
                "velocity": 127,
                "duration": 0.1340909,
                "tempo": 120.0
            },
            {
                "start_time": 4.7477273,
                "end_time": 4.8818182,
                "pitch": 74,
                "velocity": 127,
                "duration": 0.1340909,
                "tempo": 120.0
            },
            {
                "start_time": 4.8818182,
                "end_time": 5.0181818,
                "pitch": 79,
                "velocity": 127,
                "duration": 0.1363636,
                "tempo": 120.0
            },
            {
                "start_time": 5.0181818,
                "end_time": 5.1545455,
                "pitch": 77,
                "velocity": 127,
                "duration": 0.1363636,
                "tempo": 120.0
            },
            {
                "start_time": 5.1545455,
                "end_time": 5.2886364,
                "pitch": 76,
                "velocity": 127,
                "duration": 0.1340909,
                "tempo": 120.0
            },
            {
                "start_time": 5.2909091,
                "end_time": 5.425,
                "pitch": 74,
                "velocity": 127,
                "duration": 0.1340909,
                "tempo": 120.0
            },
            {
                "start_time": 5.4272727,
                "end_time": 5.5590909,
                "pitch": 67,
                "velocity": 127,
                "duration": 0.1318182,
                "tempo": 120.0
            },
            {
                "start_time": 5.5613636,
                "end_time": 5.6931818,
                "pitch": 74,
                "velocity": 127,
                "duration": 0.1318182,
                "tempo": 120.0
            },
            {
                "start_time": 5.6931818,
                "end_time": 5.8272727,
                "pitch": 70,
                "velocity": 127,
                "duration": 0.1340909,
                "tempo": 120.0
            },
            {
                "start_time": 5.8272727,
                "end_time": 5.9613636,
                "pitch": 72,
                "velocity": 127,
                "duration": 0.1340909,
                "tempo": 120.0
            },
            {
                "start_time": 5.9613636,
                "end_time": 6.0977273,
                "pitch": 74,
                "velocity": 127,
                "duration": 0.1363636,
                "tempo": 120.0
            },
            {
                "start_time": 6.0977273,
                "end_time": 6.2340909,
                "pitch": 77,
                "velocity": 127,
                "duration": 0.1363636,
                "tempo": 120.0
            },
            {
                "start_time": 6.2340909,
                "end_time": 6.3704545,
                "pitch": 76,
                "velocity": 127,
                "duration": 0.1363636,
                "tempo": 120.0
            },
            {
                "start_time": 6.3704545,
                "end_time": 6.5045455,
                "pitch": 74,
                "velocity": 127,
                "duration": 0.1340909,
                "tempo": 120.0
            },
            {
                "start_time": 6.5068182,
                "end_time": 6.6386364,
                "pitch": 72,
                "velocity": 127,
                "duration": 0.1318182,
                "tempo": 120.0
            },
            {
                "start_time": 6.6409091,
                "end_time": 6.7727273,
                "pitch": 69,
                "velocity": 127,
                "duration": 0.1318182,
                "tempo": 120.0
            },
            {
                "start_time": 6.775,
                "end_time": 6.9068182,
                "pitch": 72,
                "velocity": 127,
                "duration": 0.1318182,
                "tempo": 120.0
            },
            {
                "start_time": 6.9068182,
                "end_time": 7.0409091,
                "pitch": 76,
                "velocity": 127,
                "duration": 0.1340909,
                "tempo": 120.0
            },
            {
                "start_time": 7.0409091,
                "end_time": 7.1772727,
                "pitch": 77,
                "velocity": 127,
                "duration": 0.1363636,
                "tempo": 120.0
            },
            {
                "start_time": 7.1772727,
                "end_time": 7.3136364,
                "pitch": 76,
                "velocity": 127,
                "duration": 0.1363636,
                "tempo": 120.0
            },
            {
                "start_time": 7.3136364,
                "end_time": 7.4477273,
                "pitch": 74,
                "velocity": 127,
                "duration": 0.1340909,
                "tempo": 120.0
            },
            {
                "start_time": 7.45,
                "end_time": 7.5840909,
                "pitch": 67,
                "velocity": 127,
                "duration": 0.1340909,
                "tempo": 120.0
            },
            {
                "start_time": 7.5863636,
                "end_time": 7.7181818,
                "pitch": 69,
                "velocity": 127,
                "duration": 0.1318182,
                "tempo": 120.0
            },
            {
                "start_time": 7.7204545,
                "end_time": 7.8522727,
                "pitch": 72,
                "velocity": 127,
                "duration": 0.1318182,
                "tempo": 120.0
            },
            {
                "start_time": 7.8545455,
                "end_time": 7.9863636,
                "pitch": 74,
                "velocity": 127,
                "duration": 0.1318182,
                "tempo": 120.0
            },
            {
                "start_time": 7.9863636,
                "end_time": 8.1204545,
                "pitch": 77,
                "velocity": 127,
                "duration": 0.1340909,
                "tempo": 120.0
            },
            {
                "start_time": 8.1204545,
                "end_time": 8.2545455,
                "pitch": 76,
                "velocity": 127,
                "duration": 0.1340909,
                "tempo": 120.0
            },
            {
                "start_time": 8.2545455,
                "end_time": 8.3886364,
                "pitch": 72,
                "velocity": 127,
                "duration": 0.1340909,
                "tempo": 120.0
            },
            {
                "start_time": 8.3886364,
                "end_time": 8.5204545,
                "pitch": 69,
                "velocity": 127,
                "duration": 0.1318182,
                "tempo": 120.0
            },
            {
                "start_time": 8.5227273,
                "end_time": 8.6545455,
                "pitch": 74,
                "velocity": 127,
                "duration": 0.1318182,
                "tempo": 120.0
            },
            {
                "start_time": 8.6568182,
                "end_time": 8.7909091,
                "pitch": 72,
                "velocity": 127,
                "duration": 0.1340909,
                "tempo": 120.0
            },
            {
                "start_time": 8.7931818,
                "end_time": 8.9272727,
                "pitch": 70,
                "velocity": 127,
                "duration": 0.1340909,
                "tempo": 120.0
            },
            {
                "start_time": 8.9272727,
                "end_time": 9.0636364,
                "pitch": 65,
                "velocity": 127,
                "duration": 0.1363636,
                "tempo": 120.0
            },
            {
                "start_time": 9.0636364,
                "end_time": 9.2,
                "pitch": 67,
                "velocity": 127,
                "duration": 0.1363636,
                "tempo": 120.0
            },
            {
                "start_time": 9.2,
                "end_time": 9.3340909,
                "pitch": 69,
                "velocity": 127,
                "duration": 0.1340909,
                "tempo": 120.0
            },
            {
                "start_time": 9.3340909,
                "end_time": 9.4681818,
                "pitch": 72,
                "velocity": 127,
                "duration": 0.1340909,
                "tempo": 120.0
            },
            {
                "start_time": 9.4681818,
                "end_time": 9.6022727,
                "pitch": 74,
                "velocity": 127,
                "duration": 0.1340909,
                "tempo": 120.0
            },
            {
                "start_time": 9.6022727,
                "end_time": 9.7340909,
                "pitch": 77,
                "velocity": 127,
                "duration": 0.1318182,
                "tempo": 120.0
            },
            {
                "start_time": 9.7363636,
                "end_time": 9.8681818,
                "pitch": 76,
                "velocity": 127,
                "duration": 0.1318182,
                "tempo": 120.0
            },
            {
                "start_time": 9.8704545,
                "end_time": 10.0022727,
                "pitch": 77,
                "velocity": 127,
                "duration": 0.1318182,
                "tempo": 120.0
            },
            {
                "start_time": 10.0045455,
                "end_time": 10.1363636,
                "pitch": 76,
                "velocity": 127,
                "duration": 0.1318182,
                "tempo": 120.0
            },
            {
                "start_time": 10.1363636,
                "end_time": 10.2704545,
                "pitch": 74,
                "velocity": 127,
                "duration": 0.1340909,
                "tempo": 120.0
            },
            {
                "start_time": 10.2704545,
                "end_time": 10.4068182,
                "pitch": 72,
                "velocity": 127,
                "duration": 0.1363636,
                "tempo": 120.0
            },
            {
                "start_time": 10.4068182,
                "end_time": 10.5431818,
                "pitch": 68,
                "velocity": 127,
                "duration": 0.1363636,
                "tempo": 120.0
            },
            {
                "start_time": 10.5431818,
                "end_time": 10.6772727,
                "pitch": 65,
                "velocity": 127,
                "duration": 0.1340909,
                "tempo": 120.0
            },
            {
                "start_time": 10.6795455,
                "end_time": 10.8159091,
                "pitch": 68,
                "velocity": 127,
                "duration": 0.1363636,
                "tempo": 120.0
            },
            {
                "start_time": 10.8159091,
                "end_time": 10.9477273,
                "pitch": 72,
                "velocity": 127,
                "duration": 0.1318182,
                "tempo": 120.0
            },
            {
                "start_time": 10.95,
                "end_time": 11.0818182,
                "pitch": 74,
                "velocity": 127,
                "duration": 0.1318182,
                "tempo": 120.0
            },
            {
                "start_time": 11.0840909,
                "end_time": 11.2159091,
                "pitch": 76,
                "velocity": 127,
                "duration": 0.1318182,
                "tempo": 120.0
            },
            {
                "start_time": 11.2159091,
                "end_time": 11.35,
                "pitch": 77,
                "velocity": 127,
                "duration": 0.1340909,
                "tempo": 120.0
            },
            {
                "start_time": 11.35,
                "end_time": 11.4840909,
                "pitch": 72,
                "velocity": 127,
                "duration": 0.1340909,
                "tempo": 120.0
            },
            {
                "start_time": 11.4840909,
                "end_time": 11.6181818,
                "pitch": 70,
                "velocity": 127,
                "duration": 0.1340909,
                "tempo": 120.0
            },
            {
                "start_time": 11.6181818,
                "end_time": 11.75,
                "pitch": 68,
                "velocity": 127,
                "duration": 0.1318182,
                "tempo": 120.0
            },
            {
                "start_time": 11.7522727,
                "end_time": 11.8840909,
                "pitch": 67,
                "velocity": 127,
                "duration": 0.1318182,
                "tempo": 120.0
            },
            {
                "start_time": 11.8863636,
                "end_time": 12.0204545,
                "pitch": 69,
                "velocity": 127,
                "duration": 0.1340909,
                "tempo": 120.0
            },
            {
                "start_time": 12.0227273,
                "end_time": 12.1568182,
                "pitch": 67,
                "velocity": 127,
                "duration": 0.1340909,
                "tempo": 120.0
            },
            {
                "start_time": 12.1568182,
                "end_time": 12.2931818,
                "pitch": 65,
                "velocity": 127,
                "duration": 0.1363636,
                "tempo": 120.0
            },
            {
                "start_time": 12.2931818,
                "end_time": 12.4295455,
                "pitch": 67,
                "velocity": 127,
                "duration": 0.1363636,
                "tempo": 120.0
            },
            {
                "start_time": 12.4295455,
                "end_time": 12.5636364,
                "pitch": 71,
                "velocity": 127,
                "duration": 0.1340909,
                "tempo": 120.0
            },
            {
                "start_time": 12.5636364,
                "end_time": 12.6977273,
                "pitch": 74,
                "velocity": 127,
                "duration": 0.1340909,
                "tempo": 120.0
            },
            {
                "start_time": 12.6977273,
                "end_time": 12.8318182,
                "pitch": 79,
                "velocity": 127,
                "duration": 0.1340909,
                "tempo": 120.0
            },
            {
                "start_time": 12.8318182,
                "end_time": 12.9318182,
                "pitch": 79,
                "velocity": 127,
                "duration": 0.1,
                "tempo": 120.0
            },
            {
                "start_time": 12.9318182,
                "end_time": 13.0318182,
                "pitch": 82,
                "velocity": 127,
                "duration": 0.1,
                "tempo": 120.0
            },
            {
                "start_time": 13.0318182,
                "end_time": 14.5886364,
                "pitch": 84,
                "velocity": 127,
                "duration": 1.5568182,
                "tempo": 120.0
            },
            {
                "start_time": 14.5909091,
                "end_time": 25.9045455,
                "pitch": 84,
                "velocity": 101,
                "duration": 11.3136364,
                "tempo": 120.0
            }
        ]
    }
}