{
    "mood": "happy",
    "instruments": {
        "Electric Piano 1": [
            {
                "start_time": 0.4909091,
                "end_time": 0.6181818,
                "pitch": 60,
                "velocity": 40,
                "duration": 0.1272727,
                "tempo": 120.0
            },
            {
                "start_time": 0.6181818,
                "end_time": 0.7295455,
                "pitch": 62,
                "velocity": 40,
                "duration": 0.1113636,
                "tempo": 120.0
            },
            {
                "start_time": 0.7295455,
                "end_time": 0.8431818,
                "pitch": 64,
                "velocity": 40,
                "duration": 0.1136364,
                "tempo": 120.0
            },
            {
                "start_time": 0.8431818,
                "end_time": 0.9568182,
                "pitch": 65,
                "velocity": 40,
                "duration": 0.1136364,
                "tempo": 120.0
            },
            {
                "start_time": 0.9568182,
                "end_time": 1.0727273,
                "pitch": 67,
                "velocity": 40,
                "duration": 0.1159091,
                "tempo": 120.0
            },
            {
                "start_time": 1.075,
                "end_time": 1.2113636,
                "pitch": 69,
                "velocity": 40,
                "duration": 0.1363636,
                "tempo": 120.0
            },
            {
                "start_time": 1.2113636,
                "end_time": 1.3295455,
                "pitch": 71,
                "velocity": 40,
                "duration": 0.1181818,
                "tempo": 120.0
            },
            {
                "start_time": 1.3295455,
                "end_time": 1.45,
                "pitch": 67,
                "velocity": 40,
                "duration": 0.1204545,
                "tempo": 120.0
            },
            {
                "start_time": 1.4522727,
                "end_time": 1.9340909,
                "pitch": 72,
                "velocity": 40,
                "duration": 0.4818182,
                "tempo": 120.0
            },
            {
                "start_time": 1.9340909,
                "end_time": 2.9,
                "pitch": 60,
                "velocity": 40,
                "duration": 0.9659091,
                "tempo": 120.0
            }
        ],
        "Acoustic Bass": [
            {
                "start_time": 0.0159091,
                "end_time": 0.1318182,
                "pitch": 24,
                "velocity": 101,
                "duration": 0.1159091,
                "tempo": 120.0
            },
            {
                "start_time": 0.1318182,
                "end_time": 0.2522727,
                "pitch": 36,
                "velocity": 101,
                "duration": 0.1204545,
                "tempo": 120.0
            },
            {
                "start_time": 0.2522727,
                "end_time": 0.3704545,
                "pitch": 24,
                "velocity": 101,
                "duration": 0.1181818,
                "tempo": 120.0
            },
            {
                "start_time": 0.3704545,
                "end_time": 0.4909091,
                "pitch": 36,
                "velocity": 101,
                "duration": 0.1204545,
                "tempo": 120.0
            },
            {
                "start_time": 0.4909091,
                "end_time": 0.6181818,
                "pitch": 24,
                "velocity": 101,
                "duration": 0.1272727,
                "tempo": 120.0
            },
            {
                "start_time": 0.6204545,
                "end_time": 0.7318182,
                "pitch": 36,
                "velocity": 101,
                "duration": 0.1113636,
                "tempo": 120.0
            },
            {
                "start_time": 0.7318182,
                "end_time": 0.8431818,
                "pitch": 24,
                "velocity": 101,
                "duration": 0.1113636,
                "tempo": 120.0
            },
            {
                "start_time": 0.8431818,
                "end_time": 0.9568182,
                "pitch": 36,
                "velocity": 101,
                "duration": 0.1136364,
                "tempo": 120.0
            },
            {
                "start_time": 0.9568182,
                "end_time": 1.4522727,
                "pitch": 24,
                "velocity": 101,
                "duration": 0.4954545,
                "tempo": 120.0
            },
            {
                "start_time": 1.4522727,
                "end_time": 1.9340909,
                "pitch": 24,
                "velocity": 101,
                "duration": 0.4818182,
                "tempo": 120.0
            }
        ]
    }
}