{
    "mood": "happy",
    "instruments": {
        "Acoustic Grand Piano": [
            {
                "start_time": 0.0090909,
                "end_time": 0.1068182,
                "pitch": 0,
                "velocity": 4,
                "duration": 0.0977273,
                "tempo": 120.0
            },
            {
                "start_time": 0.1068182,
                "end_time": 0.3431818,
                "pitch": 0,
                "velocity": 4,
                "duration": 0.2363636,
                "tempo": 120.0
            },
            {
                "start_time": 0.3454545,
                "end_time": 0.4590909,
                "pitch": 69,
                "velocity": 20,
                "duration": 0.1136364,
                "tempo": 120.0
            },
            {
                "start_time": 0.575,
                "end_time": 0.6386364,
                "pitch": 72,
                "velocity": 20,
                "duration": 0.0636364,
                "tempo": 120.0
            },
            {
                "start_time": 0.6977273,
                "end_time": 0.7568182,
                "pitch": 64,
                "velocity": 20,
                "duration": 0.0590909,
                "tempo": 120.0
            },
            {
                "start_time": 0.8068182,
                "end_time": 0.9295455,
                "pitch": 64,
                "velocity": 4,
                "duration": 0.1227273,
                "tempo": 120.0
            },
            {
                "start_time": 0.9318182,
                "end_time": 0.9909091,
                "pitch": 69,
                "velocity": 20,
                "duration": 0.0590909,
                "tempo": 120.0
            },
            {
                "start_time": 1.0431818,
                "end_time": 1.1613636,
                "pitch": 69,
                "velocity": 4,
                "duration": 0.1181818,
                "tempo": 120.0
            },
            {
                "start_time": 1.1636364,
                "end_time": 1.2227273,
                "pitch": 69,
                "velocity": 20,
                "duration": 0.0590909,
                "tempo": 120.0
            },
            {
                "start_time": 1.2704545,
                "end_time": 1.3931818,
                "pitch": 69,
                "velocity": 4,
                "duration": 0.1227273,
                "tempo": 120.0
            },
            {
                "start_time": 1.3931818,
                "end_time": 1.45,
                "pitch": 72,
                "velocity": 4,
                "duration": 0.0568182,
                "tempo": 120.0
            },
            {
                "start_time": 1.3931818,
                "end_time": 1.45,
                "pitch": 72,
                "velocity": 20,
                "duration": 0.0568182,
                "tempo": 120.0
            },
            {
                "start_time": 1.5045455,
                "end_time": 1.6204545,
                "pitch": 72,
                "velocity": 4,
                "duration": 0.1159091,
                "tempo": 120.0
            },
            {
                "start_time": 1.6204545,
                "end_time": 1.6840909,
                "pitch": 64,
                "velocity": 20,
                "duration": 0.0636364,
                "tempo": 120.0
            },
            {
                "start_time": 1.7431818,
                "end_time": 1.8522727,
                "pitch": 69,
                "velocity": 20,
                "duration": 0.1090909,
                "tempo": 120.0
            },
            {
                "start_time": 1.9772727,
                "end_time": 2.0863636,
                "pitch": 68,
                "velocity": 20,
                "duration": 0.1090909,
                "tempo": 120.0
            },
            {
                "start_time": 2.2113636,
                "end_time": 2.325,
                "pitch": 67,
                "velocity": 20,
                "duration": 0.1136364,
                "tempo": 120.0
            },
            {
                "start_time": 2.4431818,
                "end_time": 2.5068182,
                "pitch": 71,
                "velocity": 20,
                "duration": 0.0636364,
                "tempo": 120.0
            },
            {
                "start_time": 2.5636364,
                "end_time": 2.625,
                "pitch": 62,
                "velocity": 20,
                "duration": 0.0613636,
                "tempo": 120.0
            },
            {
                "start_time": 2.675,
                "end_time": 2.7977273,
                "pitch": 62,
                "velocity": 4,
                "duration": 0.1227273,
                "tempo": 120.0
            },
            {
                "start_time": 2.8,
                "end_time": 2.8590909,
                "pitch": 67,
                "velocity": 20,
                "duration": 0.0590909,
                "tempo": 120.0
            },
            {
                "start_time": 2.9090909,
                "end_time": 3.0272727,
                "pitch": 67,
                "velocity": 4,
                "duration": 0.1181818,
                "tempo": 120.0
            },
            {
                "start_time": 3.0272727,
                "end_time": 3.0886364,
                "pitch": 67,
                "velocity": 20,
                "duration": 0.0613636,
                "tempo": 120.0
            },
            {
                "start_time": 3.1386364,
                "end_time": 4.0795455,
                "pitch": 67,
                "velocity": 4,
                "duration": 0.9409091,
                "tempo": 120.0
            },
            {
                "start_time": 1.6204545,
                "end_time": 4.0795455,
                "pitch": 76,
                "velocity": 4,
                "duration": 2.4590909,
                "tempo": 120.0
            },
            {
                "start_time": 4.0795455,
                "end_time": 4.1386364,
                "pitch": 64,
                "velocity": 20,
                "duration": 0.0590909,
                "tempo": 120.0
            },
            {
                "start_time": 4.1977273,
                "end_time": 4.2568182,
                "pitch": 69,
                "velocity": 20,
                "duration": 0.0590909,
                "tempo": 120.0
            },
            {
                "start_time": 4.3113636,
                "end_time": 4.3727273,
                "pitch": 72,
                "velocity": 20,
                "duration": 0.0613636,
                "tempo": 120.0
            },
            {
                "start_time": 4.4295455,
                "end_time": 4.4863636,
                "pitch": 64,
                "velocity": 20,
                "duration": 0.0568182,
                "tempo": 120.0
            },
            {
                "start_time": 0.9295455,
                "end_time": 4.6568182,
                "pitch": 57,
                "velocity": 4,
                "duration": 3.7272727,
                "tempo": 120.0
            },
            {
                "start_time": 4.5363636,
                "end_time": 4.6568182,
                "pitch": 64,
                "velocity": 4,
                "duration": 0.1204545,
                "tempo": 120.0
            },
            {
                "start_time": 4.6590909,
                "end_time": 4.7159091,
                "pitch": 69,
                "velocity": 20,
                "duration": 0.0568182,
                "tempo": 120.0
            },
            {
                "start_time": 4.7659091,
                "end_time": 4.8909091,
                "pitch": 69,
                "velocity": 4,
                "duration": 0.125,
                "tempo": 120.0
            },
            {
                "start_time": 4.8909091,
                "end_time": 4.95,
                "pitch": 69,
                "velocity": 20,
                "duration": 0.0590909,
                "tempo": 120.0
            },
            {
                "start_time": 5.0022727,
                "end_time": 5.125,
                "pitch": 69,
                "velocity": 4,
                "duration": 0.1227273,
                "tempo": 120.0
            },
            {
                "start_time": 5.125,
                "end_time": 5.1863636,
                "pitch": 72,
                "velocity": 4,
                "duration": 0.0613636,
                "tempo": 120.0
            },
            {
                "start_time": 5.1272727,
                "end_time": 5.1863636,
                "pitch": 72,
                "velocity": 20,
                "duration": 0.0590909,
                "tempo": 120.0
            },
            {
                "start_time": 5.2409091,
                "end_time": 5.3568182,
                "pitch": 72,
                "velocity": 4,
                "duration": 0.1159091,
                "tempo": 120.0
            },
            {
                "start_time": 4.0795455,
                "end_time": 5.3568182,
                "pitch": 76,
                "velocity": 4,
                "duration": 1.2772727,
                "tempo": 120.0
            },
            {
                "start_time": 5.3568182,
                "end_time": 5.4204545,
                "pitch": 64,
                "velocity": 20,
                "duration": 0.0636364,
                "tempo": 120.0
            },
            {
                "start_time": 5.4772727,
                "end_time": 5.5886364,
                "pitch": 69,
                "velocity": 20,
                "duration": 0.1113636,
                "tempo": 120.0
            },
            {
                "start_time": 5.7136364,
                "end_time": 5.8227273,
                "pitch": 68,
                "velocity": 20,
                "duration": 0.1090909,
                "tempo": 120.0
            },
            {
                "start_time": 5.9477273,
                "end_time": 6.0613636,
                "pitch": 67,
                "velocity": 20,
                "duration": 0.1136364,
                "tempo": 120.0
            },
            {
                "start_time": 6.1795455,
                "end_time": 6.2409091,
                "pitch": 71,
                "velocity": 20,
                "duration": 0.0613636,
                "tempo": 120.0
            },
            {
                "start_time": 6.2977273,
                "end_time": 6.3545455,
                "pitch": 62,
                "velocity": 20,
                "duration": 0.0568182,
                "tempo": 120.0
            },
            {
                "start_time": 2.7977273,
                "end_time": 6.525,
                "pitch": 55,
                "velocity": 4,
                "duration": 3.7272727,
                "tempo": 120.0
            },
            {
                "start_time": 6.4045455,
                "end_time": 6.525,
                "pitch": 62,
                "velocity": 4,
                "duration": 0.1204545,
                "tempo": 120.0
            },
            {
                "start_time": 6.5272727,
                "end_time": 6.5840909,
                "pitch": 67,
                "velocity": 20,
                "duration": 0.0568182,
                "tempo": 120.0
            },
            {
                "start_time": 6.6340909,
                "end_time": 6.7545455,
                "pitch": 67,
                "velocity": 4,
                "duration": 0.1204545,
                "tempo": 120.0
            },
            {
                "start_time": 6.7545455,
                "end_time": 6.8181818,
                "pitch": 67,
                "velocity": 20,
                "duration": 0.0636364,
                "tempo": 120.0
            },
            {
                "start_time": 6.8681818,
                "end_time": 7.8090909,
                "pitch": 67,
                "velocity": 4,
                "duration": 0.9409091,
                "tempo": 120.0
            },
            {
                "start_time": 7.8090909,
                "end_time": 7.9227273,
                "pitch": 69,
                "velocity": 20,
                "duration": 0.1136364,
                "tempo": 120.0
            },
            {
                "start_time": 8.0431818,
                "end_time": 8.1068182,
                "pitch": 72,
                "velocity": 20,
                "duration": 0.0636364,
                "tempo": 120.0
            },
            {
                "start_time": 8.1636364,
                "end_time": 8.2227273,
                "pitch": 64,
                "velocity": 20,
                "duration": 0.0590909,
                "tempo": 120.0
            },
            {
                "start_time": 4.6568182,
                "end_time": 8.3977273,
                "pitch": 57,
                "velocity": 4,
                "duration": 3.7409091,
                "tempo": 120.0
            },
            {
                "start_time": 8.275,
                "end_time": 8.3977273,
                "pitch": 64,
                "velocity": 4,
                "duration": 0.1227273,
                "tempo": 120.0
            },
            {
                "start_time": 8.4,
                "end_time": 8.4590909,
                "pitch": 69,
                "velocity": 20,
                "duration": 0.0590909,
                "tempo": 120.0
            },
            {
                "start_time": 8.5090909,
                "end_time": 8.6318182,
                "pitch": 69,
                "velocity": 4,
                "duration": 0.1227273,
                "tempo": 120.0
            },
            {
                "start_time": 8.6318182,
                "end_time": 8.6886364,
                "pitch": 69,
                "velocity": 20,
                "duration": 0.0568182,
                "tempo": 120.0
            },
            {
                "start_time": 8.7386364,
                "end_time": 8.8590909,
                "pitch": 69,
                "velocity": 4,
                "duration": 0.1204545,
                "tempo": 120.0
            },
            {
                "start_time": 8.8590909,
                "end_time": 8.9181818,
                "pitch": 72,
                "velocity": 4,
                "duration": 0.0590909,
                "tempo": 120.0
            },
            {
                "start_time": 8.8613636,
                "end_time": 8.9181818,
                "pitch": 72,
                "velocity": 20,
                "duration": 0.0568182,
                "tempo": 120.0
            },
            {
                "start_time": 8.9727273,
                "end_time": 9.0886364,
                "pitch": 72,
                "velocity": 4,
                "duration": 0.1159091,
                "tempo": 120.0
            },
            {
                "start_time": 5.3568182,
                "end_time": 9.0886364,
                "pitch": 76,
                "velocity": 4,
                "duration": 3.7318182,
                "tempo": 120.0
            },
            {
                "start_time": 9.0886364,
                "end_time": 9.1522727,
                "pitch": 64,
                "velocity": 20,
                "duration": 0.0636364,
                "tempo": 120.0
            },
            {
                "start_time": 9.2113636,
                "end_time": 9.3204545,
                "pitch": 69,
                "velocity": 20,
                "duration": 0.1090909,
                "tempo": 120.0
            },
            {
                "start_time": 9.4454545,
                "end_time": 9.5545455,
                "pitch": 68,
                "velocity": 20,
                "duration": 0.1090909,
                "tempo": 120.0
            },
            {
                "start_time": 9.6795455,
                "end_time": 9.7931818,
                "pitch": 67,
                "velocity": 20,
                "duration": 0.1136364,
                "tempo": 120.0
            },
            {
                "start_time": 9.9113636,
                "end_time": 9.9727273,
                "pitch": 71,
                "velocity": 20,
                "duration": 0.0613636,
                "tempo": 120.0
            },
            {
                "start_time": 10.0295455,
                "end_time": 10.0863636,
                "pitch": 62,
                "velocity": 20,
                "duration": 0.0568182,
                "tempo": 120.0
            },
            {
                "start_time": 10.1386364,
                "end_time": 10.2568182,
                "pitch": 62,
                "velocity": 4,
                "duration": 0.1181818,
                "tempo": 120.0
            },
            {
                "start_time": 6.525,
                "end_time": 10.2590909,
                "pitch": 55,
                "velocity": 4,
                "duration": 3.7340909,
                "tempo": 120.0
            },
            {
                "start_time": 10.2568182,
                "end_time": 10.2590909,
                "pitch": 55,
                "velocity": 4,
                "duration": 0.0022727,
                "tempo": 120.0
            },
            {
                "start_time": 10.2590909,
                "end_time": 10.3159091,
                "pitch": 67,
                "velocity": 20,
                "duration": 0.0568182,
                "tempo": 120.0
            },
            {
                "start_time": 10.3659091,
                "end_time": 10.4909091,
                "pitch": 67,
                "velocity": 4,
                "duration": 0.125,
                "tempo": 120.0
            },
            {
                "start_time": 10.4909091,
                "end_time": 10.55,
                "pitch": 67,
                "velocity": 20,
                "duration": 0.0590909,
                "tempo": 120.0
            },
            {
                "start_time": 10.6022727,
                "end_time": 10.725,
                "pitch": 67,
                "velocity": 4,
                "duration": 0.1227273,
                "tempo": 120.0
            },
            {
                "start_time": 10.725,
                "end_time": 10.7840909,
                "pitch": 71,
                "velocity": 4,
                "duration": 0.0590909,
                "tempo": 120.0
            },
            {
                "start_time": 10.725,
                "end_time": 10.7840909,
                "pitch": 71,
                "velocity": 20,
                "duration": 0.0590909,
                "tempo": 120.0
            },
            {
                "start_time": 10.8409091,
                "end_time": 10.9545455,
                "pitch": 71,
                "velocity": 4,
                "duration": 0.1136364,
                "tempo": 120.0
            },
            {
                "start_time": 10.9568182,
                "end_time": 11.0204545,
                "pitch": 62,
                "velocity": 20,
                "duration": 0.0636364,
                "tempo": 120.0
            },
            {
                "start_time": 11.0795455,
                "end_time": 11.1863636,
                "pitch": 67,
                "velocity": 20,
                "duration": 0.1068182,
                "tempo": 120.0
            },
            {
                "start_time": 11.3159091,
                "end_time": 11.4295455,
                "pitch": 68,
                "velocity": 20,
                "duration": 0.1136364,
                "tempo": 120.0
            },
            {
                "start_time": 9.0886364,
                "end_time": 29.5477273,
                "pitch": 76,
                "velocity": 4,
                "duration": 20.4590909,
                "tempo": 120.0
            },
            {
                "start_time": 29.4295455,
                "end_time": 29.5477273,
                "pitch": 76,
                "velocity": 4,
                "duration": 0.1181818,
                "tempo": 120.0
            },
            {
                "start_time": 29.5477273,
                "end_time": 29.575,
                "pitch": 79,
                "velocity": 20,
                "duration": 0.0272727,
                "tempo": 120.0
            },
            {
                "start_time": 29.5977273,
                "end_time": 29.625,
                "pitch": 77,
                "velocity": 20,
                "duration": 0.0272727,
                "tempo": 120.0
            },
            {
                "start_time": 29.6659091,
                "end_time": 29.6931818,
                "pitch": 76,
                "velocity": 20,
                "duration": 0.0272727,
                "tempo": 120.0
            },
            {
                "start_time": 10.9545455,
                "end_time": 29.7431818,
                "pitch": 74,
                "velocity": 4,
                "duration": 18.7886364,
                "tempo": 120.0
            },
            {
                "start_time": 29.7159091,
                "end_time": 29.7431818,
                "pitch": 74,
                "velocity": 20,
                "duration": 0.0272727,
                "tempo": 120.0
            },
            {
                "start_time": 29.7840909,
                "end_time": 29.8090909,
                "pitch": 72,
                "velocity": 20,
                "duration": 0.025,
                "tempo": 120.0
            },
            {
                "start_time": 29.8340909,
                "end_time": 29.8613636,
                "pitch": 71,
                "velocity": 20,
                "duration": 0.0272727,
                "tempo": 120.0
            },
            {
                "start_time": 29.9,
                "end_time": 29.9272727,
                "pitch": 69,
                "velocity": 20,
                "duration": 0.0272727,
                "tempo": 120.0
            },
            {
                "start_time": 29.5477273,
                "end_time": 29.9772727,
                "pitch": 67,
                "velocity": 4,
                "duration": 0.4295455,
                "tempo": 120.0
            },
            {
                "start_time": 29.95,
                "end_time": 29.9772727,
                "pitch": 67,
                "velocity": 20,
                "duration": 0.0272727,
                "tempo": 120.0
            },
            {
                "start_time": 30.0204545,
                "end_time": 30.0454545,
                "pitch": 65,
                "velocity": 20,
                "duration": 0.025,
                "tempo": 120.0
            },
            {
                "start_time": 30.0636364,
                "end_time": 30.0954545,
                "pitch": 64,
                "velocity": 20,
                "duration": 0.0318182,
                "tempo": 120.0
            },
            {
                "start_time": 30.1295455,
                "end_time": 30.1613636,
                "pitch": 62,
                "velocity": 20,
                "duration": 0.0318182,
                "tempo": 120.0
            },
            {
                "start_time": 30.1795455,
                "end_time": 30.2113636,
                "pitch": 60,
                "velocity": 20,
                "duration": 0.0318182,
                "tempo": 120.0
            }
        ],
        "Trumpet": [
            {
                "start_time": 28.15,
                "end_time": 28.3818182,
                "pitch": 69,
                "velocity": 4,
                "duration": 0.2318182,
                "tempo": 120.0
            },
            {
                "start_time": 28.3818182,
                "end_time": 28.4613636,
                "pitch": 79,
                "velocity": 20,
                "duration": 0.0795455,
                "tempo": 120.0
            },
            {
                "start_time": 28.5045455,
                "end_time": 28.5795455,
                "pitch": 77,
                "velocity": 20,
                "duration": 0.075,
                "tempo": 120.0
            },
            {
                "start_time": 28.6136364,
                "end_time": 28.7340909,
                "pitch": 77,
                "velocity": 4,
                "duration": 0.1204545,
                "tempo": 120.0
            },
            {
                "start_time": 28.7363636,
                "end_time": 28.8090909,
                "pitch": 76,
                "velocity": 20,
                "duration": 0.0727273,
                "tempo": 120.0
            },
            {
                "start_time": 28.8431818,
                "end_time": 28.9636364,
                "pitch": 76,
                "velocity": 4,
                "duration": 0.1204545,
                "tempo": 120.0
            },
            {
                "start_time": 28.9659091,
                "end_time": 29.0386364,
                "pitch": 77,
                "velocity": 20,
                "duration": 0.0727273,
                "tempo": 120.0
            },
            {
                "start_time": 29.0727273,
                "end_time": 29.1931818,
                "pitch": 77,
                "velocity": 4,
                "duration": 0.1204545,
                "tempo": 120.0
            },
            {
                "start_time": 29.1931818,
                "end_time": 29.3590909,
                "pitch": 76,
                "velocity": 20,
                "duration": 0.1659091,
                "tempo": 120.0
            }
        ],
        "Vibraphone": [
            {
                "start_time": 0.0090909,
                "end_time": 0.1068182,
                "pitch": 0,
                "velocity": 4,
                "duration": 0.0977273,
                "tempo": 120.0
            },
            {
                "start_time": 0.1068182,
                "end_time": 1.9772727,
                "pitch": 0,
                "velocity": 4,
                "duration": 1.8704545,
                "tempo": 120.0
            },
            {
                "start_time": 1.9772727,
                "end_time": 3.8409091,
                "pitch": 0,
                "velocity": 4,
                "duration": 1.8636364,
                "tempo": 120.0
            },
            {
                "start_time": 3.8409091,
                "end_time": 5.7136364,
                "pitch": 0,
                "velocity": 4,
                "duration": 1.8727273,
                "tempo": 120.0
            },
            {
                "start_time": 5.7136364,
                "end_time": 7.5659091,
                "pitch": 0,
                "velocity": 4,
                "duration": 1.8522727,
                "tempo": 120.0
            },
            {
                "start_time": 7.5681818,
                "end_time": 7.6136364,
                "pitch": 69,
                "velocity": 127,
                "duration": 0.0454545,
                "tempo": 120.0
            },
            {
                "start_time": 7.8090909,
                "end_time": 7.8522727,
                "pitch": 69,
                "velocity": 127,
                "duration": 0.0431818,
                "tempo": 120.0
            },
            {
                "start_time": 8.0454545,
                "end_time": 8.0886364,
                "pitch": 69,
                "velocity": 127,
                "duration": 0.0431818,
                "tempo": 120.0
            },
            {
                "start_time": 8.275,
                "end_time": 8.2909091,
                "pitch": 69,
                "velocity": 127,
                "duration": 0.0159091,
                "tempo": 120.0
            },
            {
                "start_time": 8.4,
                "end_time": 8.4090909,
                "pitch": 69,
                "velocity": 127,
                "duration": 0.0090909,
                "tempo": 120.0
            },
            {
                "start_time": 8.5090909,
                "end_time": 8.6318182,
                "pitch": 69,
                "velocity": 4,
                "duration": 0.1227273,
                "tempo": 120.0
            },
            {
                "start_time": 8.6318182,
                "end_time": 8.6409091,
                "pitch": 69,
                "velocity": 127,
                "duration": 0.0090909,
                "tempo": 120.0
            },
            {
                "start_time": 8.7386364,
                "end_time": 8.7545455,
                "pitch": 69,
                "velocity": 127,
                "duration": 0.0159091,
                "tempo": 120.0
            },
            {
                "start_time": 8.8613636,
                "end_time": 8.9727273,
                "pitch": 69,
                "velocity": 4,
                "duration": 0.1113636,
                "tempo": 120.0
            },
            {
                "start_time": 8.9727273,
                "end_time": 9.0181818,
                "pitch": 69,
                "velocity": 127,
                "duration": 0.0454545,
                "tempo": 120.0
            },
            {
                "start_time": 9.2113636,
                "end_time": 9.2522727,
                "pitch": 69,
                "velocity": 127,
                "duration": 0.0409091,
                "tempo": 120.0
            },
            {
                "start_time": 9.4454545,
                "end_time": 9.4863636,
                "pitch": 69,
                "velocity": 127,
                "duration": 0.0409091,
                "tempo": 120.0
            },
            {
                "start_time": 9.6795455,
                "end_time": 9.7227273,
                "pitch": 69,
                "velocity": 127,
                "duration": 0.0431818,
                "tempo": 120.0
            },
            {
                "start_time": 9.9113636,
                "end_time": 9.9568182,
                "pitch": 69,
                "velocity": 127,
                "duration": 0.0454545,
                "tempo": 120.0
            },
            {
                "start_time": 10.1386364,
                "end_time": 10.1522727,
                "pitch": 69,
                "velocity": 127,
                "duration": 0.0136364,
                "tempo": 120.0
            },
            {
                "start_time": 10.2590909,
                "end_time": 10.2681818,
                "pitch": 69,
                "velocity": 127,
                "duration": 0.0090909,
                "tempo": 120.0
            },
            {
                "start_time": 10.3659091,
                "end_time": 10.4909091,
                "pitch": 69,
                "velocity": 4,
                "duration": 0.125,
                "tempo": 120.0
            },
            {
                "start_time": 10.4909091,
                "end_time": 10.5,
                "pitch": 69,
                "velocity": 127,
                "duration": 0.0090909,
                "tempo": 120.0
            },
            {
                "start_time": 10.6022727,
                "end_time": 10.6181818,
                "pitch": 69,
                "velocity": 127,
                "duration": 0.0159091,
                "tempo": 120.0
            },
            {
                "start_time": 10.725,
                "end_time": 10.8409091,
                "pitch": 69,
                "velocity": 4,
                "duration": 0.1159091,
                "tempo": 120.0
            },
            {
                "start_time": 10.8409091,
                "end_time": 10.8863636,
                "pitch": 69,
                "velocity": 127,
                "duration": 0.0454545,
                "tempo": 120.0
            },
            {
                "start_time": 11.0795455,
                "end_time": 11.1204545,
                "pitch": 69,
                "velocity": 127,
                "duration": 0.0409091,
                "tempo": 120.0
            }
        ],
        "French Horn": [
            {
                "start_time": 11.3159091,
                "end_time": 11.3886364,
                "pitch": 76,
                "velocity": 101,
                "duration": 0.0727273,
                "tempo": 120.0
            },
            {
                "start_time": 11.4295455,
                "end_time": 11.5068182,
                "pitch": 81,
                "velocity": 101,
                "duration": 0.0772727,
                "tempo": 120.0
            },
            {
                "start_time": 11.55,
                "end_time": 11.6227273,
                "pitch": 84,
                "velocity": 101,
                "duration": 0.0727273,
                "tempo": 120.0
            },
            {
                "start_time": 11.6681818,
                "end_time": 11.7409091,
                "pitch": 76,
                "velocity": 101,
                "duration": 0.0727273,
                "tempo": 120.0
            },
            {
                "start_time": 11.7772727,
                "end_time": 11.8977273,
                "pitch": 76,
                "velocity": 4,
                "duration": 0.1204545,
                "tempo": 120.0
            },
            {
                "start_time": 11.9,
                "end_time": 11.9704545,
                "pitch": 81,
                "velocity": 101,
                "duration": 0.0704545,
                "tempo": 120.0
            },
            {
                "start_time": 12.0045455,
                "end_time": 12.1272727,
                "pitch": 81,
                "velocity": 4,
                "duration": 0.1227273,
                "tempo": 120.0
            },
            {
                "start_time": 12.1272727,
                "end_time": 12.2,
                "pitch": 81,
                "velocity": 101,
                "duration": 0.0727273,
                "tempo": 120.0
            },
            {
                "start_time": 12.2340909,
                "end_time": 12.3590909,
                "pitch": 81,
                "velocity": 4,
                "duration": 0.125,
                "tempo": 120.0
            },
            {
                "start_time": 12.3590909,
                "end_time": 12.4340909,
                "pitch": 84,
                "velocity": 4,
                "duration": 0.075,
                "tempo": 120.0
            },
            {
                "start_time": 12.3613636,
                "end_time": 12.4340909,
                "pitch": 84,
                "velocity": 101,
                "duration": 0.0727273,
                "tempo": 120.0
            },
            {
                "start_time": 12.4681818,
                "end_time": 12.5954545,
                "pitch": 84,
                "velocity": 4,
                "duration": 0.1272727,
                "tempo": 120.0
            },
            {
                "start_time": 12.5954545,
                "end_time": 12.6704545,
                "pitch": 76,
                "velocity": 101,
                "duration": 0.075,
                "tempo": 120.0
            },
            {
                "start_time": 12.7113636,
                "end_time": 12.7886364,
                "pitch": 81,
                "velocity": 101,
                "duration": 0.0772727,
                "tempo": 120.0
            },
            {
                "start_time": 12.825,
                "end_time": 12.9522727,
                "pitch": 81,
                "velocity": 4,
                "duration": 0.1272727,
                "tempo": 120.0
            },
            {
                "start_time": 12.9522727,
                "end_time": 13.0295455,
                "pitch": 80,
                "velocity": 101,
                "duration": 0.0772727,
                "tempo": 120.0
            },
            {
                "start_time": 13.0636364,
                "end_time": 13.1840909,
                "pitch": 80,
                "velocity": 4,
                "duration": 0.1204545,
                "tempo": 120.0
            },
            {
                "start_time": 13.1863636,
                "end_time": 13.3022727,
                "pitch": 80,
                "velocity": 4,
                "duration": 0.1159091,
                "tempo": 120.0
            },
            {
                "start_time": 13.3022727,
                "end_time": 13.375,
                "pitch": 86,
                "velocity": 4,
                "duration": 0.0727273,
                "tempo": 120.0
            },
            {
                "start_time": 13.3022727,
                "end_time": 13.375,
                "pitch": 86,
                "velocity": 101,
                "duration": 0.0727273,
                "tempo": 120.0
            },
            {
                "start_time": 13.4090909,
                "end_time": 13.5272727,
                "pitch": 86,
                "velocity": 4,
                "duration": 0.1181818,
                "tempo": 120.0
            },
            {
                "start_time": 13.5295455,
                "end_time": 13.6,
                "pitch": 86,
                "velocity": 101,
                "duration": 0.0704545,
                "tempo": 120.0
            },
            {
                "start_time": 13.6386364,
                "end_time": 13.7181818,
                "pitch": 86,
                "velocity": 101,
                "duration": 0.0795455,
                "tempo": 120.0
            },
            {
                "start_time": 13.7613636,
                "end_time": 13.8363636,
                "pitch": 86,
                "velocity": 101,
                "duration": 0.075,
                "tempo": 120.0
            },
            {
                "start_time": 13.875,
                "end_time": 14.0,
                "pitch": 86,
                "velocity": 4,
                "duration": 0.125,
                "tempo": 120.0
            },
            {
                "start_time": 14.0022727,
                "end_time": 14.0772727,
                "pitch": 86,
                "velocity": 101,
                "duration": 0.075,
                "tempo": 120.0
            },
            {
                "start_time": 14.1204545,
                "end_time": 14.2318182,
                "pitch": 86,
                "velocity": 101,
                "duration": 0.1113636,
                "tempo": 120.0
            },
            {
                "start_time": 14.2886364,
                "end_time": 14.3818182,
                "pitch": 86,
                "velocity": 101,
                "duration": 0.0931818,
                "tempo": 120.0
            },
            {
                "start_time": 14.4386364,
                "end_time": 14.5477273,
                "pitch": 86,
                "velocity": 101,
                "duration": 0.1090909,
                "tempo": 120.0
            },
            {
                "start_time": 14.6068182,
                "end_time": 14.925,
                "pitch": 86,
                "velocity": 101,
                "duration": 0.3181818,
                "tempo": 120.0
            }
        ],
        "Acoustic Bass": [
            {
                "start_time": 11.3159091,
                "end_time": 11.3545455,
                "pitch": 28,
                "velocity": 80,
                "duration": 0.0386364,
                "tempo": 120.0
            },
            {
                "start_time": 11.4295455,
                "end_time": 11.4727273,
                "pitch": 33,
                "velocity": 80,
                "duration": 0.0431818,
                "tempo": 120.0
            },
            {
                "start_time": 11.55,
                "end_time": 11.5909091,
                "pitch": 36,
                "velocity": 80,
                "duration": 0.0409091,
                "tempo": 120.0
            },
            {
                "start_time": 11.6681818,
                "end_time": 11.7068182,
                "pitch": 28,
                "velocity": 80,
                "duration": 0.0386364,
                "tempo": 120.0
            },
            {
                "start_time": 11.7772727,
                "end_time": 11.8977273,
                "pitch": 28,
                "velocity": 4,
                "duration": 0.1204545,
                "tempo": 120.0
            },
            {
                "start_time": 11.9,
                "end_time": 11.9386364,
                "pitch": 33,
                "velocity": 80,
                "duration": 0.0386364,
                "tempo": 120.0
            },
            {
                "start_time": 12.0045455,
                "end_time": 12.1272727,
                "pitch": 33,
                "velocity": 4,
                "duration": 0.1227273,
                "tempo": 120.0
            },
            {
                "start_time": 12.1272727,
                "end_time": 12.1681818,
                "pitch": 33,
                "velocity": 80,
                "duration": 0.0409091,
                "tempo": 120.0
            },
            {
                "start_time": 12.2340909,
                "end_time": 12.3590909,
                "pitch": 33,
                "velocity": 4,
                "duration": 0.125,
                "tempo": 120.0
            },
            {
                "start_time": 12.3590909,
                "end_time": 12.4,
                "pitch": 36,
                "velocity": 4,
                "duration": 0.0409091,
                "tempo": 120.0
            },
            {
                "start_time": 12.3613636,
                "end_time": 12.4,
                "pitch": 36,
                "velocity": 80,
                "duration": 0.0386364,
                "tempo": 120.0
            },
            {
                "start_time": 12.4681818,
                "end_time": 12.5954545,
                "pitch": 36,
                "velocity": 4,
                "duration": 0.1272727,
                "tempo": 120.0
            },
            {
                "start_time": 12.5954545,
                "end_time": 12.6363636,
                "pitch": 28,
                "velocity": 80,
                "duration": 0.0409091,
                "tempo": 120.0
            },
            {
                "start_time": 12.7113636,
                "end_time": 12.8045455,
                "pitch": 33,
                "velocity": 80,
                "duration": 0.0931818,
                "tempo": 120.0
            },
            {
                "start_time": 12.9545455,
                "end_time": 13.0454545,
                "pitch": 32,
                "velocity": 80,
                "duration": 0.0909091,
                "tempo": 120.0
            },
            {
                "start_time": 13.1863636,
                "end_time": 13.3022727,
                "pitch": 32,
                "velocity": 4,
                "duration": 0.1159091,
                "tempo": 120.0
            },
            {
                "start_time": 13.3045455,
                "end_time": 13.3431818,
                "pitch": 31,
                "velocity": 80,
                "duration": 0.0386364,
                "tempo": 120.0
            },
            {
                "start_time": 13.4090909,
                "end_time": 13.5272727,
                "pitch": 31,
                "velocity": 4,
                "duration": 0.1181818,
                "tempo": 120.0
            },
            {
                "start_time": 13.5295455,
                "end_time": 13.5681818,
                "pitch": 31,
                "velocity": 80,
                "duration": 0.0386364,
                "tempo": 120.0
            },
            {
                "start_time": 13.6386364,
                "end_time": 13.6818182,
                "pitch": 31,
                "velocity": 80,
                "duration": 0.0431818,
                "tempo": 120.0
            },
            {
                "start_time": 13.7613636,
                "end_time": 13.8022727,
                "pitch": 31,
                "velocity": 80,
                "duration": 0.0409091,
                "tempo": 120.0
            },
            {
                "start_time": 13.875,
                "end_time": 14.0,
                "pitch": 31,
                "velocity": 4,
                "duration": 0.125,
                "tempo": 120.0
            },
            {
                "start_time": 14.0022727,
                "end_time": 14.0431818,
                "pitch": 31,
                "velocity": 80,
                "duration": 0.0409091,
                "tempo": 120.0
            },
            {
                "start_time": 14.1204545,
                "end_time": 14.1795455,
                "pitch": 31,
                "velocity": 80,
                "duration": 0.0590909,
                "tempo": 120.0
            },
            {
                "start_time": 14.2886364,
                "end_time": 14.35,
                "pitch": 31,
                "velocity": 80,
                "duration": 0.0613636,
                "tempo": 120.0
            },
            {
                "start_time": 14.4386364,
                "end_time": 14.4977273,
                "pitch": 31,
                "velocity": 80,
                "duration": 0.0590909,
                "tempo": 120.0
            },
            {
                "start_time": 14.6068182,
                "end_time": 14.8045455,
                "pitch": 31,
                "velocity": 80,
                "duration": 0.1977273,
                "tempo": 120.0
            },
            {
                "start_time": 15.0863636,
                "end_time": 15.425,
                "pitch": 33,
                "velocity": 80,
                "duration": 0.3386364,
                "tempo": 120.0
            },
            {
                "start_time": 12.5954545,
                "end_time": 15.4272727,
                "pitch": 40,
                "velocity": 4,
                "duration": 2.8318182,
                "tempo": 120.0
            },
            {
                "start_time": 15.425,
                "end_time": 15.4272727,
                "pitch": 40,
                "velocity": 80,
                "duration": 0.0022727,
                "tempo": 120.0
            },
            {
                "start_time": 15.4272727,
                "end_time": 15.7772727,
                "pitch": 40,
                "velocity": 80,
                "duration": 0.35,
                "tempo": 120.0
            },
            {
                "start_time": 15.7795455,
                "end_time": 16.3659091,
                "pitch": 45,
                "velocity": 80,
                "duration": 0.5863636,
                "tempo": 120.0
            },
            {
                "start_time": 16.3681818,
                "end_time": 16.4795455,
                "pitch": 40,
                "velocity": 80,
                "duration": 0.1113636,
                "tempo": 120.0
            },
            {
                "start_time": 15.7772727,
                "end_time": 16.4818182,
                "pitch": 33,
                "velocity": 80,
                "duration": 0.7045455,
                "tempo": 120.0
            },
            {
                "start_time": 16.4795455,
                "end_time": 16.4818182,
                "pitch": 33,
                "velocity": 80,
                "duration": 0.0022727,
                "tempo": 120.0
            },
            {
                "start_time": 16.4818182,
                "end_time": 16.7181818,
                "pitch": 45,
                "velocity": 80,
                "duration": 0.2363636,
                "tempo": 120.0
            },
            {
                "start_time": 16.3659091,
                "end_time": 16.7204545,
                "pitch": 52,
                "velocity": 80,
                "duration": 0.3545455,
                "tempo": 120.0
            },
            {
                "start_time": 16.7181818,
                "end_time": 16.7204545,
                "pitch": 52,
                "velocity": 80,
                "duration": 0.0022727,
                "tempo": 120.0
            },
            {
                "start_time": 16.7204545,
                "end_time": 16.9522727,
                "pitch": 40,
                "velocity": 80,
                "duration": 0.2318182,
                "tempo": 120.0
            },
            {
                "start_time": 16.9522727,
                "end_time": 17.2977273,
                "pitch": 31,
                "velocity": 80,
                "duration": 0.3454545,
                "tempo": 120.0
            },
            {
                "start_time": 16.9522727,
                "end_time": 17.2977273,
                "pitch": 31,
                "velocity": 80,
                "duration": 0.3454545,
                "tempo": 120.0
            },
            {
                "start_time": 17.2977273,
                "end_time": 17.6454545,
                "pitch": 38,
                "velocity": 80,
                "duration": 0.3477273,
                "tempo": 120.0
            },
            {
                "start_time": 17.2977273,
                "end_time": 17.6454545,
                "pitch": 38,
                "velocity": 80,
                "duration": 0.3477273,
                "tempo": 120.0
            },
            {
                "start_time": 17.6477273,
                "end_time": 18.2340909,
                "pitch": 43,
                "velocity": 80,
                "duration": 0.5863636,
                "tempo": 120.0
            },
            {
                "start_time": 17.6454545,
                "end_time": 18.3477273,
                "pitch": 31,
                "velocity": 80,
                "duration": 0.7022727,
                "tempo": 120.0
            },
            {
                "start_time": 18.2340909,
                "end_time": 18.3477273,
                "pitch": 38,
                "velocity": 80,
                "duration": 0.1136364,
                "tempo": 120.0
            },
            {
                "start_time": 18.35,
                "end_time": 18.5863636,
                "pitch": 43,
                "velocity": 80,
                "duration": 0.2363636,
                "tempo": 120.0
            },
            {
                "start_time": 18.2340909,
                "end_time": 18.5863636,
                "pitch": 50,
                "velocity": 80,
                "duration": 0.3522727,
                "tempo": 120.0
            },
            {
                "start_time": 18.5886364,
                "end_time": 18.8204545,
                "pitch": 38,
                "velocity": 80,
                "duration": 0.2318182,
                "tempo": 120.0
            },
            {
                "start_time": 18.8204545,
                "end_time": 19.1613636,
                "pitch": 33,
                "velocity": 80,
                "duration": 0.3409091,
                "tempo": 120.0
            },
            {
                "start_time": 18.8204545,
                "end_time": 19.1613636,
                "pitch": 33,
                "velocity": 80,
                "duration": 0.3409091,
                "tempo": 120.0
            },
            {
                "start_time": 19.1613636,
                "end_time": 19.5136364,
                "pitch": 40,
                "velocity": 80,
                "duration": 0.3522727,
                "tempo": 120.0
            },
            {
                "start_time": 19.1636364,
                "end_time": 19.5136364,
                "pitch": 40,
                "velocity": 80,
                "duration": 0.35,
                "tempo": 120.0
            },
            {
                "start_time": 19.5136364,
                "end_time": 20.1022727,
                "pitch": 45,
                "velocity": 80,
                "duration": 0.5886364,
                "tempo": 120.0
            },
            {
                "start_time": 19.5136364,
                "end_time": 20.2159091,
                "pitch": 33,
                "velocity": 80,
                "duration": 0.7022727,
                "tempo": 120.0
            },
            {
                "start_time": 20.1022727,
                "end_time": 20.2159091,
                "pitch": 40,
                "velocity": 80,
                "duration": 0.1136364,
                "tempo": 120.0
            },
            {
                "start_time": 20.2159091,
                "end_time": 20.45,
                "pitch": 45,
                "velocity": 80,
                "duration": 0.2340909,
                "tempo": 120.0
            },
            {
                "start_time": 20.1022727,
                "end_time": 20.45,
                "pitch": 52,
                "velocity": 80,
                "duration": 0.3477273,
                "tempo": 120.0
            },
            {
                "start_time": 18.3477273,
                "end_time": 20.6795455,
                "pitch": 31,
                "velocity": 80,
                "duration": 2.3318182,
                "tempo": 120.0
            },
            {
                "start_time": 20.45,
                "end_time": 20.6795455,
                "pitch": 40,
                "velocity": 80,
                "duration": 0.2295455,
                "tempo": 120.0
            },
            {
                "start_time": 20.6795455,
                "end_time": 21.0386364,
                "pitch": 31,
                "velocity": 80,
                "duration": 0.3590909,
                "tempo": 120.0
            },
            {
                "start_time": 20.6795455,
                "end_time": 21.0386364,
                "pitch": 31,
                "velocity": 80,
                "duration": 0.3590909,
                "tempo": 120.0
            },
            {
                "start_time": 21.0386364,
                "end_time": 21.3863636,
                "pitch": 38,
                "velocity": 80,
                "duration": 0.3477273,
                "tempo": 120.0
            },
            {
                "start_time": 21.0386364,
                "end_time": 21.3863636,
                "pitch": 38,
                "velocity": 80,
                "duration": 0.3477273,
                "tempo": 120.0
            },
            {
                "start_time": 21.3886364,
                "end_time": 21.9704545,
                "pitch": 43,
                "velocity": 80,
                "duration": 0.5818182,
                "tempo": 120.0
            },
            {
                "start_time": 18.5863636,
                "end_time": 21.9704545,
                "pitch": 50,
                "velocity": 80,
                "duration": 3.3840909,
                "tempo": 120.0
            },
            {
                "start_time": 21.3863636,
                "end_time": 22.0840909,
                "pitch": 31,
                "velocity": 80,
                "duration": 0.6977273,
                "tempo": 120.0
            },
            {
                "start_time": 21.9704545,
                "end_time": 22.0840909,
                "pitch": 38,
                "velocity": 80,
                "duration": 0.1136364,
                "tempo": 120.0
            },
            {
                "start_time": 22.0840909,
                "end_time": 22.3159091,
                "pitch": 43,
                "velocity": 80,
                "duration": 0.2318182,
                "tempo": 120.0
            },
            {
                "start_time": 21.9704545,
                "end_time": 22.3181818,
                "pitch": 50,
                "velocity": 80,
                "duration": 0.3477273,
                "tempo": 120.0
            },
            {
                "start_time": 22.3159091,
                "end_time": 22.3181818,
                "pitch": 50,
                "velocity": 80,
                "duration": 0.0022727,
                "tempo": 120.0
            },
            {
                "start_time": 20.2159091,
                "end_time": 22.5454545,
                "pitch": 33,
                "velocity": 80,
                "duration": 2.3295455,
                "tempo": 120.0
            },
            {
                "start_time": 22.3181818,
                "end_time": 22.5454545,
                "pitch": 38,
                "velocity": 80,
                "duration": 0.2272727,
                "tempo": 120.0
            },
            {
                "start_time": 22.5454545,
                "end_time": 22.8954545,
                "pitch": 33,
                "velocity": 80,
                "duration": 0.35,
                "tempo": 120.0
            },
            {
                "start_time": 22.5454545,
                "end_time": 22.8954545,
                "pitch": 33,
                "velocity": 80,
                "duration": 0.35,
                "tempo": 120.0
            },
            {
                "start_time": 22.8954545,
                "end_time": 23.2431818,
                "pitch": 40,
                "velocity": 80,
                "duration": 0.3477273,
                "tempo": 120.0
            },
            {
                "start_time": 22.8954545,
                "end_time": 23.2431818,
                "pitch": 40,
                "velocity": 80,
                "duration": 0.3477273,
                "tempo": 120.0
            },
            {
                "start_time": 23.2454545,
                "end_time": 23.8340909,
                "pitch": 45,
                "velocity": 80,
                "duration": 0.5886364,
                "tempo": 120.0
            },
            {
                "start_time": 20.45,
                "end_time": 23.8340909,
                "pitch": 52,
                "velocity": 80,
                "duration": 3.3840909,
                "tempo": 120.0
            },
            {
                "start_time": 23.2431818,
                "end_time": 23.9522727,
                "pitch": 33,
                "velocity": 80,
                "duration": 0.7090909,
                "tempo": 120.0
            },
            {
                "start_time": 23.8363636,
                "end_time": 23.9522727,
                "pitch": 40,
                "velocity": 80,
                "duration": 0.1159091,
                "tempo": 120.0
            },
            {
                "start_time": 23.9522727,
                "end_time": 24.1840909,
                "pitch": 45,
                "velocity": 80,
                "duration": 0.2318182,
                "tempo": 120.0
            },
            {
                "start_time": 23.8340909,
                "end_time": 24.1840909,
                "pitch": 52,
                "velocity": 80,
                "duration": 0.35,
                "tempo": 120.0
            },
            {
                "start_time": 22.0840909,
                "end_time": 24.4113636,
                "pitch": 31,
                "velocity": 80,
                "duration": 2.3272727,
                "tempo": 120.0
            },
            {
                "start_time": 24.1863636,
                "end_time": 24.4113636,
                "pitch": 40,
                "velocity": 80,
                "duration": 0.225,
                "tempo": 120.0
            },
            {
                "start_time": 24.4113636,
                "end_time": 24.7659091,
                "pitch": 31,
                "velocity": 80,
                "duration": 0.3545455,
                "tempo": 120.0
            },
            {
                "start_time": 24.4136364,
                "end_time": 24.7659091,
                "pitch": 31,
                "velocity": 80,
                "duration": 0.3522727,
                "tempo": 120.0
            },
            {
                "start_time": 24.7659091,
                "end_time": 25.1159091,
                "pitch": 38,
                "velocity": 80,
                "duration": 0.35,
                "tempo": 120.0
            },
            {
                "start_time": 24.7659091,
                "end_time": 25.1159091,
                "pitch": 38,
                "velocity": 80,
                "duration": 0.35,
                "tempo": 120.0
            },
            {
                "start_time": 25.1159091,
                "end_time": 25.1181818,
                "pitch": 31,
                "velocity": 80,
                "duration": 0.0022727,
                "tempo": 120.0
            },
            {
                "start_time": 25.1181818,
                "end_time": 25.7045455,
                "pitch": 43,
                "velocity": 80,
                "duration": 0.5863636,
                "tempo": 120.0
            },
            {
                "start_time": 25.7068182,
                "end_time": 25.8181818,
                "pitch": 38,
                "velocity": 80,
                "duration": 0.1113636,
                "tempo": 120.0
            },
            {
                "start_time": 25.8181818,
                "end_time": 25.8204545,
                "pitch": 31,
                "velocity": 80,
                "duration": 0.0022727,
                "tempo": 120.0
            },
            {
                "start_time": 25.8204545,
                "end_time": 26.0522727,
                "pitch": 43,
                "velocity": 80,
                "duration": 0.2318182,
                "tempo": 120.0
            },
            {
                "start_time": 25.7045455,
                "end_time": 26.0522727,
                "pitch": 50,
                "velocity": 80,
                "duration": 0.3477273,
                "tempo": 120.0
            },
            {
                "start_time": 23.9522727,
                "end_time": 26.2795455,
                "pitch": 33,
                "velocity": 80,
                "duration": 2.3272727,
                "tempo": 120.0
            },
            {
                "start_time": 26.0545455,
                "end_time": 26.2795455,
                "pitch": 38,
                "velocity": 80,
                "duration": 0.225,
                "tempo": 120.0
            },
            {
                "start_time": 26.2795455,
                "end_time": 26.6295455,
                "pitch": 33,
                "velocity": 80,
                "duration": 0.35,
                "tempo": 120.0
            },
            {
                "start_time": 26.2818182,
                "end_time": 26.6295455,
                "pitch": 33,
                "velocity": 80,
                "duration": 0.3477273,
                "tempo": 120.0
            },
            {
                "start_time": 26.6295455,
                "end_time": 26.9795455,
                "pitch": 40,
                "velocity": 80,
                "duration": 0.35,
                "tempo": 120.0
            },
            {
                "start_time": 26.6318182,
                "end_time": 26.9795455,
                "pitch": 40,
                "velocity": 80,
                "duration": 0.3477273,
                "tempo": 120.0
            },
            {
                "start_time": 26.9795455,
                "end_time": 27.5704545,
                "pitch": 45,
                "velocity": 80,
                "duration": 0.5909091,
                "tempo": 120.0
            },
            {
                "start_time": 24.1840909,
                "end_time": 27.5704545,
                "pitch": 52,
                "velocity": 80,
                "duration": 3.3863636,
                "tempo": 120.0
            },
            {
                "start_time": 26.9795455,
                "end_time": 27.6863636,
                "pitch": 33,
                "velocity": 80,
                "duration": 0.7068182,
                "tempo": 120.0
            },
            {
                "start_time": 27.5704545,
                "end_time": 27.6863636,
                "pitch": 40,
                "velocity": 80,
                "duration": 0.1159091,
                "tempo": 120.0
            },
            {
                "start_time": 27.6886364,
                "end_time": 27.9204545,
                "pitch": 45,
                "velocity": 80,
                "duration": 0.2318182,
                "tempo": 120.0
            },
            {
                "start_time": 27.5704545,
                "end_time": 27.9204545,
                "pitch": 52,
                "velocity": 80,
                "duration": 0.35,
                "tempo": 120.0
            },
            {
                "start_time": 27.9204545,
                "end_time": 28.1477273,
                "pitch": 40,
                "velocity": 80,
                "duration": 0.2272727,
                "tempo": 120.0
            },
            {
                "start_time": 28.1477273,
                "end_time": 28.15,
                "pitch": 31,
                "velocity": 80,
                "duration": 0.0022727,
                "tempo": 120.0
            },
            {
                "start_time": 28.15,
                "end_time": 28.2636364,
                "pitch": 43,
                "velocity": 80,
                "duration": 0.1136364,
                "tempo": 120.0
            },
            {
                "start_time": 28.2659091,
                "end_time": 28.3818182,
                "pitch": 41,
                "velocity": 80,
                "duration": 0.1159091,
                "tempo": 120.0
            },
            {
                "start_time": 28.3818182,
                "end_time": 28.5022727,
                "pitch": 41,
                "velocity": 4,
                "duration": 0.1204545,
                "tempo": 120.0
            },
            {
                "start_time": 28.5045455,
                "end_time": 28.6136364,
                "pitch": 40,
                "velocity": 80,
                "duration": 0.1090909,
                "tempo": 120.0
            },
            {
                "start_time": 28.6136364,
                "end_time": 28.7363636,
                "pitch": 40,
                "velocity": 4,
                "duration": 0.1227273,
                "tempo": 120.0
            },
            {
                "start_time": 28.7363636,
                "end_time": 28.8431818,
                "pitch": 41,
                "velocity": 80,
                "duration": 0.1068182,
                "tempo": 120.0
            },
            {
                "start_time": 28.8431818,
                "end_time": 28.9636364,
                "pitch": 41,
                "velocity": 4,
                "duration": 0.1204545,
                "tempo": 120.0
            },
            {
                "start_time": 28.9659091,
                "end_time": 29.0704545,
                "pitch": 40,
                "velocity": 80,
                "duration": 0.1045455,
                "tempo": 120.0
            },
            {
                "start_time": 27.6863636,
                "end_time": 29.7818182,
                "pitch": 33,
                "velocity": 80,
                "duration": 2.0954545,
                "tempo": 120.0
            },
            {
                "start_time": 29.0727273,
                "end_time": 29.7818182,
                "pitch": 40,
                "velocity": 4,
                "duration": 0.7090909,
                "tempo": 120.0
            },
            {
                "start_time": 29.7818182,
                "end_time": 30.0204545,
                "pitch": 33,
                "velocity": 4,
                "duration": 0.2386364,
                "tempo": 120.0
            },
            {
                "start_time": 29.7840909,
                "end_time": 30.0204545,
                "pitch": 33,
                "velocity": 80,
                "duration": 0.2363636,
                "tempo": 120.0
            },
            {
                "start_time": 30.0204545,
                "end_time": 30.3659091,
                "pitch": 33,
                "velocity": 80,
                "duration": 0.3454545,
                "tempo": 120.0
            },
            {
                "start_time": 30.3659091,
                "end_time": 30.7113636,
                "pitch": 40,
                "velocity": 80,
                "duration": 0.3454545,
                "tempo": 120.0
            },
            {
                "start_time": 30.3659091,
                "end_time": 30.7113636,
                "pitch": 40,
                "velocity": 80,
                "duration": 0.3454545,
                "tempo": 120.0
            },
            {
                "start_time": 30.7113636,
                "end_time": 31.2931818,
                "pitch": 45,
                "velocity": 80,
                "duration": 0.5818182,
                "tempo": 120.0
            },
            {
                "start_time": 27.9204545,
                "end_time": 31.2931818,
                "pitch": 52,
                "velocity": 80,
                "duration": 3.3727273,
                "tempo": 120.0
            },
            {
                "start_time": 30.7113636,
                "end_time": 31.4136364,
                "pitch": 33,
                "velocity": 80,
                "duration": 0.7022727,
                "tempo": 120.0
            },
            {
                "start_time": 31.2954545,
                "end_time": 31.4136364,
                "pitch": 40,
                "velocity": 80,
                "duration": 0.1181818,
                "tempo": 120.0
            },
            {
                "start_time": 31.4159091,
                "end_time": 31.65,
                "pitch": 45,
                "velocity": 80,
                "duration": 0.2340909,
                "tempo": 120.0
            },
            {
                "start_time": 31.2931818,
                "end_time": 31.65,
                "pitch": 52,
                "velocity": 80,
                "duration": 0.3568182,
                "tempo": 120.0
            },
            {
                "start_time": 31.65,
                "end_time": 31.8863636,
                "pitch": 40,
                "velocity": 80,
                "duration": 0.2363636,
                "tempo": 120.0
            },
            {
                "start_time": 31.8863636,
                "end_time": 32.2363636,
                "pitch": 31,
                "velocity": 80,
                "duration": 0.35,
                "tempo": 120.0
            },
            {
                "start_time": 31.8886364,
                "end_time": 32.2363636,
                "pitch": 31,
                "velocity": 80,
                "duration": 0.3477273,
                "tempo": 120.0
            },
            {
                "start_time": 32.2363636,
                "end_time": 32.5795455,
                "pitch": 38,
                "velocity": 80,
                "duration": 0.3431818,
                "tempo": 120.0
            },
            {
                "start_time": 32.2363636,
                "end_time": 32.5795455,
                "pitch": 38,
                "velocity": 80,
                "duration": 0.3431818,
                "tempo": 120.0
            },
            {
                "start_time": 32.5795455,
                "end_time": 33.1613636,
                "pitch": 43,
                "velocity": 80,
                "duration": 0.5818182,
                "tempo": 120.0
            },
            {
                "start_time": 26.0522727,
                "end_time": 33.1613636,
                "pitch": 50,
                "velocity": 80,
                "duration": 7.1090909,
                "tempo": 120.0
            },
            {
                "start_time": 32.5795455,
                "end_time": 33.2795455,
                "pitch": 31,
                "velocity": 80,
                "duration": 0.7,
                "tempo": 120.0
            },
            {
                "start_time": 33.1613636,
                "end_time": 33.2795455,
                "pitch": 38,
                "velocity": 80,
                "duration": 0.1181818,
                "tempo": 120.0
            },
            {
                "start_time": 33.2795455,
                "end_time": 33.5159091,
                "pitch": 43,
                "velocity": 80,
                "duration": 0.2363636,
                "tempo": 120.0
            },
            {
                "start_time": 33.1613636,
                "end_time": 33.5159091,
                "pitch": 50,
                "velocity": 80,
                "duration": 0.3545455,
                "tempo": 120.0
            },
            {
                "start_time": 33.5181818,
                "end_time": 33.7545455,
                "pitch": 38,
                "velocity": 80,
                "duration": 0.2363636,
                "tempo": 120.0
            },
            {
                "start_time": 33.7568182,
                "end_time": 34.1,
                "pitch": 29,
                "velocity": 80,
                "duration": 0.3431818,
                "tempo": 120.0
            },
            {
                "start_time": 34.1022727,
                "end_time": 34.4454545,
                "pitch": 36,
                "velocity": 80,
                "duration": 0.3431818,
                "tempo": 120.0
            },
            {
                "start_time": 33.7545455,
                "end_time": 34.4477273,
                "pitch": 41,
                "velocity": 80,
                "duration": 0.6931818,
                "tempo": 120.0
            },
            {
                "start_time": 34.4454545,
                "end_time": 34.4477273,
                "pitch": 41,
                "velocity": 80,
                "duration": 0.0022727,
                "tempo": 120.0
            },
            {
                "start_time": 34.4477273,
                "end_time": 35.0295455,
                "pitch": 41,
                "velocity": 80,
                "duration": 0.5818182,
                "tempo": 120.0
            },
            {
                "start_time": 35.0295455,
                "end_time": 35.15,
                "pitch": 36,
                "velocity": 80,
                "duration": 0.1204545,
                "tempo": 120.0
            },
            {
                "start_time": 35.0295455,
                "end_time": 35.15,
                "pitch": 36,
                "velocity": 80,
                "duration": 0.1204545,
                "tempo": 120.0
            },
            {
                "start_time": 35.15,
                "end_time": 35.3840909,
                "pitch": 41,
                "velocity": 80,
                "duration": 0.2340909,
                "tempo": 120.0
            },
            {
                "start_time": 35.15,
                "end_time": 35.3840909,
                "pitch": 41,
                "velocity": 80,
                "duration": 0.2340909,
                "tempo": 120.0
            },
            {
                "start_time": 33.2795455,
                "end_time": 35.6227273,
                "pitch": 31,
                "velocity": 80,
                "duration": 2.3431818,
                "tempo": 120.0
            },
            {
                "start_time": 35.3840909,
                "end_time": 35.6227273,
                "pitch": 36,
                "velocity": 80,
                "duration": 0.2386364,
                "tempo": 120.0
            },
            {
                "start_time": 35.3863636,
                "end_time": 35.6227273,
                "pitch": 36,
                "velocity": 80,
                "duration": 0.2363636,
                "tempo": 120.0
            },
            {
                "start_time": 35.6227273,
                "end_time": 35.9704545,
                "pitch": 31,
                "velocity": 80,
                "duration": 0.3477273,
                "tempo": 120.0
            },
            {
                "start_time": 35.6227273,
                "end_time": 35.9704545,
                "pitch": 31,
                "velocity": 80,
                "duration": 0.3477273,
                "tempo": 120.0
            },
            {
                "start_time": 35.9704545,
                "end_time": 36.3136364,
                "pitch": 38,
                "velocity": 80,
                "duration": 0.3431818,
                "tempo": 120.0
            },
            {
                "start_time": 35.9727273,
                "end_time": 36.3136364,
                "pitch": 38,
                "velocity": 80,
                "duration": 0.3409091,
                "tempo": 120.0
            },
            {
                "start_time": 36.3159091,
                "end_time": 36.8977273,
                "pitch": 43,
                "velocity": 80,
                "duration": 0.5818182,
                "tempo": 120.0
            },
            {
                "start_time": 33.5159091,
                "end_time": 36.8977273,
                "pitch": 50,
                "velocity": 80,
                "duration": 3.3818182,
                "tempo": 120.0
            },
            {
                "start_time": 36.3136364,
                "end_time": 37.0159091,
                "pitch": 31,
                "velocity": 80,
                "duration": 0.7022727,
                "tempo": 120.0
            },
            {
                "start_time": 36.8977273,
                "end_time": 37.0159091,
                "pitch": 38,
                "velocity": 80,
                "duration": 0.1181818,
                "tempo": 120.0
            },
            {
                "start_time": 37.0159091,
                "end_time": 37.2522727,
                "pitch": 43,
                "velocity": 80,
                "duration": 0.2363636,
                "tempo": 120.0
            },
            {
                "start_time": 36.8977273,
                "end_time": 37.2522727,
                "pitch": 50,
                "velocity": 80,
                "duration": 0.3545455,
                "tempo": 120.0
            },
            {
                "start_time": 31.4136364,
                "end_time": 37.4909091,
                "pitch": 33,
                "velocity": 80,
                "duration": 6.0772727,
                "tempo": 120.0
            },
            {
                "start_time": 37.2522727,
                "end_time": 37.4909091,
                "pitch": 38,
                "velocity": 80,
                "duration": 0.2386364,
                "tempo": 120.0
            },
            {
                "start_time": 37.4909091,
                "end_time": 37.8363636,
                "pitch": 33,
                "velocity": 80,
                "duration": 0.3454545,
                "tempo": 120.0
            },
            {
                "start_time": 37.4931818,
                "end_time": 37.8363636,
                "pitch": 33,
                "velocity": 80,
                "duration": 0.3431818,
                "tempo": 120.0
            },
            {
                "start_time": 37.8363636,
                "end_time": 38.1818182,
                "pitch": 40,
                "velocity": 80,
                "duration": 0.3454545,
                "tempo": 120.0
            },
            {
                "start_time": 37.8363636,
                "end_time": 38.1818182,
                "pitch": 40,
                "velocity": 80,
                "duration": 0.3454545,
                "tempo": 120.0
            },
            {
                "start_time": 38.1840909,
                "end_time": 38.7636364,
                "pitch": 45,
                "velocity": 80,
                "duration": 0.5795455,
                "tempo": 120.0
            },
            {
                "start_time": 31.65,
                "end_time": 38.7636364,
                "pitch": 52,
                "velocity": 80,
                "duration": 7.1136364,
                "tempo": 120.0
            },
            {
                "start_time": 38.1818182,
                "end_time": 38.8863636,
                "pitch": 33,
                "velocity": 80,
                "duration": 0.7045455,
                "tempo": 120.0
            },
            {
                "start_time": 38.7659091,
                "end_time": 38.8863636,
                "pitch": 40,
                "velocity": 80,
                "duration": 0.1204545,
                "tempo": 120.0
            },
            {
                "start_time": 38.8863636,
                "end_time": 39.1204545,
                "pitch": 45,
                "velocity": 80,
                "duration": 0.2340909,
                "tempo": 120.0
            },
            {
                "start_time": 38.7636364,
                "end_time": 39.1204545,
                "pitch": 52,
                "velocity": 80,
                "duration": 0.3568182,
                "tempo": 120.0
            },
            {
                "start_time": 37.0159091,
                "end_time": 39.3590909,
                "pitch": 31,
                "velocity": 80,
                "duration": 2.3431818,
                "tempo": 120.0
            },
            {
                "start_time": 39.1204545,
                "end_time": 39.3590909,
                "pitch": 40,
                "velocity": 80,
                "duration": 0.2386364,
                "tempo": 120.0
            },
            {
                "start_time": 39.3590909,
                "end_time": 39.7068182,
                "pitch": 31,
                "velocity": 80,
                "duration": 0.3477273,
                "tempo": 120.0
            },
            {
                "start_time": 39.3590909,
                "end_time": 39.7068182,
                "pitch": 31,
                "velocity": 80,
                "duration": 0.3477273,
                "tempo": 120.0
            },
            {
                "start_time": 39.7068182,
                "end_time": 40.05,
                "pitch": 38,
                "velocity": 80,
                "duration": 0.3431818,
                "tempo": 120.0
            },
            {
                "start_time": 39.7068182,
                "end_time": 40.05,
                "pitch": 38,
                "velocity": 80,
                "duration": 0.3431818,
                "tempo": 120.0
            },
            {
                "start_time": 40.05,
                "end_time": 40.6318182,
                "pitch": 43,
                "velocity": 80,
                "duration": 0.5818182,
                "tempo": 120.0
            },
            {
                "start_time": 37.2522727,
                "end_time": 40.6318182,
                "pitch": 50,
                "velocity": 80,
                "duration": 3.3795455,
                "tempo": 120.0
            },
            {
                "start_time": 40.05,
                "end_time": 40.75,
                "pitch": 31,
                "velocity": 80,
                "duration": 0.7,
                "tempo": 120.0
            },
            {
                "start_time": 40.6340909,
                "end_time": 40.75,
                "pitch": 38,
                "velocity": 80,
                "duration": 0.1159091,
                "tempo": 120.0
            },
            {
                "start_time": 40.7522727,
                "end_time": 40.9818182,
                "pitch": 43,
                "velocity": 80,
                "duration": 0.2295455,
                "tempo": 120.0
            },
            {
                "start_time": 40.6318182,
                "end_time": 40.9818182,
                "pitch": 50,
                "velocity": 80,
                "duration": 0.35,
                "tempo": 120.0
            },
            {
                "start_time": 40.9840909,
                "end_time": 41.2159091,
                "pitch": 38,
                "velocity": 80,
                "duration": 0.2318182,
                "tempo": 120.0
            },
            {
                "start_time": 34.1,
                "end_time": 41.5681818,
                "pitch": 24,
                "velocity": 80,
                "duration": 7.4681818,
                "tempo": 120.0
            },
            {
                "start_time": 41.2159091,
                "end_time": 41.5681818,
                "pitch": 29,
                "velocity": 80,
                "duration": 0.3522727,
                "tempo": 120.0
            },
            {
                "start_time": 41.5704545,
                "end_time": 41.9181818,
                "pitch": 36,
                "velocity": 80,
                "duration": 0.3477273,
                "tempo": 120.0
            },
            {
                "start_time": 41.2159091,
                "end_time": 41.9181818,
                "pitch": 41,
                "velocity": 80,
                "duration": 0.7022727,
                "tempo": 120.0
            },
            {
                "start_time": 41.9181818,
                "end_time": 42.5,
                "pitch": 41,
                "velocity": 80,
                "duration": 0.5818182,
                "tempo": 120.0
            },
            {
                "start_time": 41.9181818,
                "end_time": 42.5,
                "pitch": 41,
                "velocity": 80,
                "duration": 0.5818182,
                "tempo": 120.0
            },
            {
                "start_time": 42.5,
                "end_time": 42.6204545,
                "pitch": 36,
                "velocity": 80,
                "duration": 0.1204545,
                "tempo": 120.0
            },
            {
                "start_time": 42.5,
                "end_time": 42.6204545,
                "pitch": 36,
                "velocity": 80,
                "duration": 0.1204545,
                "tempo": 120.0
            },
            {
                "start_time": 42.6204545,
                "end_time": 42.8545455,
                "pitch": 41,
                "velocity": 80,
                "duration": 0.2340909,
                "tempo": 120.0
            },
            {
                "start_time": 42.6227273,
                "end_time": 42.8545455,
                "pitch": 41,
                "velocity": 80,
                "duration": 0.2318182,
                "tempo": 120.0
            },
            {
                "start_time": 42.8545455,
                "end_time": 42.8568182,
                "pitch": 36,
                "velocity": 80,
                "duration": 0.0022727,
                "tempo": 120.0
            },
            {
                "start_time": 40.75,
                "end_time": 43.0931818,
                "pitch": 31,
                "velocity": 80,
                "duration": 2.3431818,
                "tempo": 120.0
            },
            {
                "start_time": 42.8568182,
                "end_time": 43.0931818,
                "pitch": 36,
                "velocity": 80,
                "duration": 0.2363636,
                "tempo": 120.0
            },
            {
                "start_time": 43.0931818,
                "end_time": 43.4386364,
                "pitch": 31,
                "velocity": 80,
                "duration": 0.3454545,
                "tempo": 120.0
            },
            {
                "start_time": 43.0954545,
                "end_time": 43.4386364,
                "pitch": 31,
                "velocity": 80,
                "duration": 0.3431818,
                "tempo": 120.0
            },
            {
                "start_time": 43.4386364,
                "end_time": 43.7863636,
                "pitch": 38,
                "velocity": 80,
                "duration": 0.3477273,
                "tempo": 120.0
            },
            {
                "start_time": 43.4409091,
                "end_time": 43.7863636,
                "pitch": 38,
                "velocity": 80,
                "duration": 0.3454545,
                "tempo": 120.0
            },
            {
                "start_time": 43.7863636,
                "end_time": 44.3590909,
                "pitch": 43,
                "velocity": 80,
                "duration": 0.5727273,
                "tempo": 120.0
            },
            {
                "start_time": 40.9818182,
                "end_time": 44.3590909,
                "pitch": 50,
                "velocity": 80,
                "duration": 3.3772727,
                "tempo": 120.0
            },
            {
                "start_time": 43.7863636,
                "end_time": 44.4772727,
                "pitch": 31,
                "velocity": 80,
                "duration": 0.6909091,
                "tempo": 120.0
            },
            {
                "start_time": 44.3613636,
                "end_time": 44.4772727,
                "pitch": 38,
                "velocity": 80,
                "duration": 0.1159091,
                "tempo": 120.0
            },
            {
                "start_time": 44.4795455,
                "end_time": 44.7159091,
                "pitch": 43,
                "velocity": 80,
                "duration": 0.2363636,
                "tempo": 120.0
            },
            {
                "start_time": 44.3590909,
                "end_time": 44.7159091,
                "pitch": 50,
                "velocity": 80,
                "duration": 0.3568182,
                "tempo": 120.0
            },
            {
                "start_time": 44.7159091,
                "end_time": 44.9522727,
                "pitch": 38,
                "velocity": 80,
                "duration": 0.2363636,
                "tempo": 120.0
            },
            {
                "start_time": 44.9545455,
                "end_time": 45.0659091,
                "pitch": 29,
                "velocity": 80,
                "duration": 0.1113636,
                "tempo": 120.0
            },
            {
                "start_time": 45.0659091,
                "end_time": 45.1840909,
                "pitch": 29,
                "velocity": 80,
                "duration": 0.1181818,
                "tempo": 120.0
            },
            {
                "start_time": 45.1840909,
                "end_time": 45.3045455,
                "pitch": 29,
                "velocity": 4,
                "duration": 0.1204545,
                "tempo": 120.0
            },
            {
                "start_time": 45.3045455,
                "end_time": 45.4181818,
                "pitch": 29,
                "velocity": 80,
                "duration": 0.1136364,
                "tempo": 120.0
            },
            {
                "start_time": 45.4204545,
                "end_time": 45.5340909,
                "pitch": 29,
                "velocity": 4,
                "duration": 0.1136364,
                "tempo": 120.0
            },
            {
                "start_time": 45.5363636,
                "end_time": 45.6431818,
                "pitch": 29,
                "velocity": 80,
                "duration": 0.1068182,
                "tempo": 120.0
            },
            {
                "start_time": 45.6431818,
                "end_time": 45.7590909,
                "pitch": 29,
                "velocity": 4,
                "duration": 0.1159091,
                "tempo": 120.0
            },
            {
                "start_time": 45.7590909,
                "end_time": 45.8704545,
                "pitch": 29,
                "velocity": 80,
                "duration": 0.1113636,
                "tempo": 120.0
            },
            {
                "start_time": 45.8727273,
                "end_time": 46.1113636,
                "pitch": 29,
                "velocity": 80,
                "duration": 0.2386364,
                "tempo": 120.0
            },
            {
                "start_time": 41.5681818,
                "end_time": 46.35,
                "pitch": 24,
                "velocity": 80,
                "duration": 4.7818182,
                "tempo": 120.0
            },
            {
                "start_time": 46.1136364,
                "end_time": 46.35,
                "pitch": 29,
                "velocity": 80,
                "duration": 0.2363636,
                "tempo": 120.0
            },
            {
                "start_time": 46.3522727,
                "end_time": 46.5863636,
                "pitch": 36,
                "velocity": 80,
                "duration": 0.2340909,
                "tempo": 120.0
            },
            {
                "start_time": 44.9522727,
                "end_time": 46.5863636,
                "pitch": 41,
                "velocity": 80,
                "duration": 1.6340909,
                "tempo": 120.0
            },
            {
                "start_time": 46.5863636,
                "end_time": 46.8227273,
                "pitch": 29,
                "velocity": 80,
                "duration": 0.2363636,
                "tempo": 120.0
            },
            {
                "start_time": 46.825,
                "end_time": 46.9340909,
                "pitch": 28,
                "velocity": 80,
                "duration": 0.1090909,
                "tempo": 120.0
            },
            {
                "start_time": 46.9363636,
                "end_time": 47.0522727,
                "pitch": 28,
                "velocity": 80,
                "duration": 0.1159091,
                "tempo": 120.0
            },
            {
                "start_time": 47.0522727,
                "end_time": 47.1727273,
                "pitch": 28,
                "velocity": 4,
                "duration": 0.1204545,
                "tempo": 120.0
            },
            {
                "start_time": 47.1727273,
                "end_time": 47.2840909,
                "pitch": 28,
                "velocity": 80,
                "duration": 0.1113636,
                "tempo": 120.0
            },
            {
                "start_time": 47.2840909,
                "end_time": 47.4022727,
                "pitch": 28,
                "velocity": 4,
                "duration": 0.1181818,
                "tempo": 120.0
            },
            {
                "start_time": 47.4022727,
                "end_time": 47.5113636,
                "pitch": 28,
                "velocity": 80,
                "duration": 0.1090909,
                "tempo": 120.0
            },
            {
                "start_time": 47.5113636,
                "end_time": 47.6227273,
                "pitch": 28,
                "velocity": 4,
                "duration": 0.1113636,
                "tempo": 120.0
            },
            {
                "start_time": 47.625,
                "end_time": 47.7386364,
                "pitch": 28,
                "velocity": 80,
                "duration": 0.1136364,
                "tempo": 120.0
            },
            {
                "start_time": 47.7386364,
                "end_time": 47.975,
                "pitch": 28,
                "velocity": 80,
                "duration": 0.2363636,
                "tempo": 120.0
            },
            {
                "start_time": 47.9772727,
                "end_time": 48.2181818,
                "pitch": 28,
                "velocity": 80,
                "duration": 0.2409091,
                "tempo": 120.0
            },
            {
                "start_time": 48.2204545,
                "end_time": 48.45,
                "pitch": 35,
                "velocity": 80,
                "duration": 0.2295455,
                "tempo": 120.0
            },
            {
                "start_time": 48.4522727,
                "end_time": 48.6795455,
                "pitch": 28,
                "velocity": 80,
                "duration": 0.2272727,
                "tempo": 120.0
            },
            {
                "start_time": 48.6818182,
                "end_time": 48.7931818,
                "pitch": 38,
                "velocity": 80,
                "duration": 0.1113636,
                "tempo": 120.0
            },
            {
                "start_time": 48.7931818,
                "end_time": 48.9090909,
                "pitch": 38,
                "velocity": 80,
                "duration": 0.1159091,
                "tempo": 120.0
            },
            {
                "start_time": 48.9090909,
                "end_time": 49.0272727,
                "pitch": 38,
                "velocity": 4,
                "duration": 0.1181818,
                "tempo": 120.0
            },
            {
                "start_time": 49.0272727,
                "end_time": 49.1409091,
                "pitch": 38,
                "velocity": 80,
                "duration": 0.1136364,
                "tempo": 120.0
            },
            {
                "start_time": 49.1409091,
                "end_time": 49.2590909,
                "pitch": 38,
                "velocity": 4,
                "duration": 0.1181818,
                "tempo": 120.0
            },
            {
                "start_time": 49.2590909,
                "end_time": 49.3704545,
                "pitch": 38,
                "velocity": 80,
                "duration": 0.1113636,
                "tempo": 120.0
            },
            {
                "start_time": 49.3704545,
                "end_time": 49.4886364,
                "pitch": 38,
                "velocity": 4,
                "duration": 0.1181818,
                "tempo": 120.0
            },
            {
                "start_time": 49.4886364,
                "end_time": 49.6022727,
                "pitch": 38,
                "velocity": 80,
                "duration": 0.1136364,
                "tempo": 120.0
            },
            {
                "start_time": 49.6045455,
                "end_time": 49.8409091,
                "pitch": 38,
                "velocity": 80,
                "duration": 0.2363636,
                "tempo": 120.0
            },
            {
                "start_time": 38.8863636,
                "end_time": 50.075,
                "pitch": 33,
                "velocity": 80,
                "duration": 11.1886364,
                "tempo": 120.0
            },
            {
                "start_time": 49.8409091,
                "end_time": 50.075,
                "pitch": 38,
                "velocity": 80,
                "duration": 0.2340909,
                "tempo": 120.0
            },
            {
                "start_time": 50.075,
                "end_time": 50.3113636,
                "pitch": 33,
                "velocity": 80,
                "duration": 0.2363636,
                "tempo": 120.0
            },
            {
                "start_time": 50.0772727,
                "end_time": 50.3113636,
                "pitch": 33,
                "velocity": 80,
                "duration": 0.2340909,
                "tempo": 120.0
            },
            {
                "start_time": 50.3113636,
                "end_time": 50.5477273,
                "pitch": 38,
                "velocity": 80,
                "duration": 0.2363636,
                "tempo": 120.0
            },
            {
                "start_time": 50.3113636,
                "end_time": 50.5477273,
                "pitch": 38,
                "velocity": 80,
                "duration": 0.2363636,
                "tempo": 120.0
            },
            {
                "start_time": 50.5477273,
                "end_time": 50.6590909,
                "pitch": 36,
                "velocity": 80,
                "duration": 0.1113636,
                "tempo": 120.0
            },
            {
                "start_time": 50.5477273,
                "end_time": 50.6590909,
                "pitch": 36,
                "velocity": 80,
                "duration": 0.1113636,
                "tempo": 120.0
            },
            {
                "start_time": 50.6613636,
                "end_time": 50.7772727,
                "pitch": 36,
                "velocity": 80,
                "duration": 0.1159091,
                "tempo": 120.0
            },
            {
                "start_time": 50.7772727,
                "end_time": 50.8977273,
                "pitch": 36,
                "velocity": 4,
                "duration": 0.1204545,
                "tempo": 120.0
            },
            {
                "start_time": 50.8977273,
                "end_time": 51.0090909,
                "pitch": 36,
                "velocity": 80,
                "duration": 0.1113636,
                "tempo": 120.0
            },
            {
                "start_time": 51.0090909,
                "end_time": 51.1295455,
                "pitch": 36,
                "velocity": 4,
                "duration": 0.1204545,
                "tempo": 120.0
            },
            {
                "start_time": 51.1295455,
                "end_time": 51.2409091,
                "pitch": 36,
                "velocity": 80,
                "duration": 0.1113636,
                "tempo": 120.0
            },
            {
                "start_time": 51.2409091,
                "end_time": 51.3568182,
                "pitch": 36,
                "velocity": 4,
                "duration": 0.1159091,
                "tempo": 120.0
            },
            {
                "start_time": 51.3568182,
                "end_time": 51.4727273,
                "pitch": 36,
                "velocity": 80,
                "duration": 0.1159091,
                "tempo": 120.0
            },
            {
                "start_time": 51.475,
                "end_time": 51.7090909,
                "pitch": 36,
                "velocity": 80,
                "duration": 0.2340909,
                "tempo": 120.0
            },
            {
                "start_time": 44.4772727,
                "end_time": 51.95,
                "pitch": 31,
                "velocity": 80,
                "duration": 7.4727273,
                "tempo": 120.0
            },
            {
                "start_time": 51.7090909,
                "end_time": 51.95,
                "pitch": 36,
                "velocity": 80,
                "duration": 0.2409091,
                "tempo": 120.0
            },
            {
                "start_time": 51.95,
                "end_time": 52.1818182,
                "pitch": 31,
                "velocity": 80,
                "duration": 0.2318182,
                "tempo": 120.0
            },
            {
                "start_time": 51.9522727,
                "end_time": 52.1818182,
                "pitch": 31,
                "velocity": 80,
                "duration": 0.2295455,
                "tempo": 120.0
            },
            {
                "start_time": 52.1818182,
                "end_time": 52.1840909,
                "pitch": 36,
                "velocity": 80,
                "duration": 0.0022727,
                "tempo": 120.0
            },
            {
                "start_time": 52.1840909,
                "end_time": 52.4136364,
                "pitch": 36,
                "velocity": 80,
                "duration": 0.2295455,
                "tempo": 120.0
            },
            {
                "start_time": 46.5863636,
                "end_time": 52.4136364,
                "pitch": 41,
                "velocity": 80,
                "duration": 5.8272727,
                "tempo": 120.0
            },
            {
                "start_time": 52.4136364,
                "end_time": 52.525,
                "pitch": 29,
                "velocity": 80,
                "duration": 0.1113636,
                "tempo": 120.0
            },
            {
                "start_time": 52.525,
                "end_time": 52.6409091,
                "pitch": 29,
                "velocity": 80,
                "duration": 0.1159091,
                "tempo": 120.0
            },
            {
                "start_time": 52.6409091,
                "end_time": 52.7590909,
                "pitch": 29,
                "velocity": 4,
                "duration": 0.1181818,
                "tempo": 120.0
            },
            {
                "start_time": 52.7613636,
                "end_time": 52.8727273,
                "pitch": 29,
                "velocity": 80,
                "duration": 0.1113636,
                "tempo": 120.0
            },
            {
                "start_time": 52.8727273,
                "end_time": 52.9909091,
                "pitch": 29,
                "velocity": 4,
                "duration": 0.1181818,
                "tempo": 120.0
            },
            {
                "start_time": 52.9931818,
                "end_time": 53.1022727,
                "pitch": 29,
                "velocity": 80,
                "duration": 0.1090909,
                "tempo": 120.0
            },
            {
                "start_time": 53.1022727,
                "end_time": 53.2204545,
                "pitch": 29,
                "velocity": 4,
                "duration": 0.1181818,
                "tempo": 120.0
            },
            {
                "start_time": 53.2227273,
                "end_time": 53.3363636,
                "pitch": 29,
                "velocity": 80,
                "duration": 0.1136364,
                "tempo": 120.0
            },
            {
                "start_time": 53.3363636,
                "end_time": 53.5727273,
                "pitch": 29,
                "velocity": 80,
                "duration": 0.2363636,
                "tempo": 120.0
            },
            {
                "start_time": 53.575,
                "end_time": 53.8068182,
                "pitch": 29,
                "velocity": 80,
                "duration": 0.2318182,
                "tempo": 120.0
            },
            {
                "start_time": 46.35,
                "end_time": 53.8090909,
                "pitch": 24,
                "velocity": 80,
                "duration": 7.4590909,
                "tempo": 120.0
            },
            {
                "start_time": 53.8068182,
                "end_time": 53.8090909,
                "pitch": 24,
                "velocity": 80,
                "duration": 0.0022727,
                "tempo": 120.0
            },
            {
                "start_time": 53.8090909,
                "end_time": 54.0431818,
                "pitch": 36,
                "velocity": 80,
                "duration": 0.2340909,
                "tempo": 120.0
            },
            {
                "start_time": 52.4136364,
                "end_time": 54.0431818,
                "pitch": 41,
                "velocity": 80,
                "duration": 1.6295455,
                "tempo": 120.0
            },
            {
                "start_time": 54.0431818,
                "end_time": 54.2795455,
                "pitch": 29,
                "velocity": 80,
                "duration": 0.2363636,
                "tempo": 120.0
            },
            {
                "start_time": 54.2818182,
                "end_time": 54.3931818,
                "pitch": 28,
                "velocity": 80,
                "duration": 0.1113636,
                "tempo": 120.0
            },
            {
                "start_time": 54.3931818,
                "end_time": 54.5090909,
                "pitch": 28,
                "velocity": 80,
                "duration": 0.1159091,
                "tempo": 120.0
            },
            {
                "start_time": 54.5090909,
                "end_time": 54.6295455,
                "pitch": 28,
                "velocity": 4,
                "duration": 0.1204545,
                "tempo": 120.0
            },
            {
                "start_time": 54.6318182,
                "end_time": 54.7409091,
                "pitch": 28,
                "velocity": 80,
                "duration": 0.1090909,
                "tempo": 120.0
            },
            {
                "start_time": 54.7409091,
                "end_time": 54.8613636,
                "pitch": 28,
                "velocity": 4,
                "duration": 0.1204545,
                "tempo": 120.0
            },
            {
                "start_time": 54.8636364,
                "end_time": 54.9727273,
                "pitch": 28,
                "velocity": 80,
                "duration": 0.1090909,
                "tempo": 120.0
            },
            {
                "start_time": 54.9727273,
                "end_time": 55.0886364,
                "pitch": 28,
                "velocity": 4,
                "duration": 0.1159091,
                "tempo": 120.0
            },
            {
                "start_time": 55.0886364,
                "end_time": 55.2068182,
                "pitch": 28,
                "velocity": 80,
                "duration": 0.1181818,
                "tempo": 120.0
            },
            {
                "start_time": 55.2068182,
                "end_time": 55.4409091,
                "pitch": 28,
                "velocity": 80,
                "duration": 0.2340909,
                "tempo": 120.0
            },
            {
                "start_time": 48.2181818,
                "end_time": 55.6818182,
                "pitch": 23,
                "velocity": 80,
                "duration": 7.4636364,
                "tempo": 120.0
            },
            {
                "start_time": 55.4431818,
                "end_time": 55.6818182,
                "pitch": 28,
                "velocity": 80,
                "duration": 0.2386364,
                "tempo": 120.0
            },
            {
                "start_time": 55.6840909,
                "end_time": 55.9136364,
                "pitch": 35,
                "velocity": 80,
                "duration": 0.2295455,
                "tempo": 120.0
            },
            {
                "start_time": 48.45,
                "end_time": 55.9136364,
                "pitch": 40,
                "velocity": 80,
                "duration": 7.4636364,
                "tempo": 120.0
            },
            {
                "start_time": 55.9159091,
                "end_time": 56.1454545,
                "pitch": 28,
                "velocity": 80,
                "duration": 0.2295455,
                "tempo": 120.0
            },
            {
                "start_time": 56.1454545,
                "end_time": 56.4931818,
                "pitch": 29,
                "velocity": 80,
                "duration": 0.3477273,
                "tempo": 120.0
            },
            {
                "start_time": 56.4954545,
                "end_time": 56.8409091,
                "pitch": 29,
                "velocity": 80,
                "duration": 0.3454545,
                "tempo": 120.0
            },
            {
                "start_time": 56.8409091,
                "end_time": 57.0727273,
                "pitch": 29,
                "velocity": 80,
                "duration": 0.2318182,
                "tempo": 120.0
            },
            {
                "start_time": 57.0727273,
                "end_time": 57.4272727,
                "pitch": 31,
                "velocity": 80,
                "duration": 0.3545455,
                "tempo": 120.0
            },
            {
                "start_time": 57.4272727,
                "end_time": 57.775,
                "pitch": 31,
                "velocity": 80,
                "duration": 0.3477273,
                "tempo": 120.0
            },
            {
                "start_time": 57.7772727,
                "end_time": 58.0090909,
                "pitch": 31,
                "velocity": 80,
                "duration": 0.2318182,
                "tempo": 120.0
            },
            {
                "start_time": 58.0090909,
                "end_time": 58.3568182,
                "pitch": 32,
                "velocity": 80,
                "duration": 0.3477273,
                "tempo": 120.0
            },
            {
                "start_time": 58.3590909,
                "end_time": 58.7045455,
                "pitch": 32,
                "velocity": 80,
                "duration": 0.3454545,
                "tempo": 120.0
            },
            {
                "start_time": 58.7045455,
                "end_time": 58.9363636,
                "pitch": 32,
                "velocity": 80,
                "duration": 0.2318182,
                "tempo": 120.0
            },
            {
                "start_time": 58.9386364,
                "end_time": 59.2863636,
                "pitch": 34,
                "velocity": 80,
                "duration": 0.3477273,
                "tempo": 120.0
            },
            {
                "start_time": 59.2863636,
                "end_time": 59.6386364,
                "pitch": 34,
                "velocity": 80,
                "duration": 0.3522727,
                "tempo": 120.0
            },
            {
                "start_time": 59.6386364,
                "end_time": 59.8772727,
                "pitch": 34,
                "velocity": 80,
                "duration": 0.2386364,
                "tempo": 120.0
            },
            {
                "start_time": 59.8795455,
                "end_time": 61.7363636,
                "pitch": 36,
                "velocity": 80,
                "duration": 1.8568182,
                "tempo": 120.0
            },
            {
                "start_time": 54.0431818,
                "end_time": 61.7363636,
                "pitch": 41,
                "velocity": 80,
                "duration": 7.6931818,
                "tempo": 120.0
            },
            {
                "start_time": 61.7363636,
                "end_time": 62.15,
                "pitch": 29,
                "velocity": 80,
                "duration": 0.4136364,
                "tempo": 120.0
            },
            {
                "start_time": 62.2045455,
                "end_time": 62.6113636,
                "pitch": 36,
                "velocity": 80,
                "duration": 0.4068182,
                "tempo": 120.0
            },
            {
                "start_time": 62.6636364,
                "end_time": 62.9613636,
                "pitch": 29,
                "velocity": 80,
                "duration": 0.2977273,
                "tempo": 120.0
            },
            {
                "start_time": 63.0181818,
                "end_time": 63.1113636,
                "pitch": 29,
                "velocity": 80,
                "duration": 0.0931818,
                "tempo": 120.0
            },
            {
                "start_time": 63.1386364,
                "end_time": 63.3295455,
                "pitch": 36,
                "velocity": 80,
                "duration": 0.1909091,
                "tempo": 120.0
            },
            {
                "start_time": 63.375,
                "end_time": 63.5659091,
                "pitch": 29,
                "velocity": 80,
                "duration": 0.1909091,
                "tempo": 120.0
            },
            {
                "start_time": 63.6113636,
                "end_time": 64.0181818,
                "pitch": 34,
                "velocity": 80,
                "duration": 0.4068182,
                "tempo": 120.0
            },
            {
                "start_time": 64.075,
                "end_time": 64.4772727,
                "pitch": 29,
                "velocity": 80,
                "duration": 0.4022727,
                "tempo": 120.0
            },
            {
                "start_time": 64.5295455,
                "end_time": 64.8295455,
                "pitch": 29,
                "velocity": 80,
                "duration": 0.3,
                "tempo": 120.0
            },
            {
                "start_time": 64.8863636,
                "end_time": 64.9795455,
                "pitch": 29,
                "velocity": 80,
                "duration": 0.0931818,
                "tempo": 120.0
            },
            {
                "start_time": 65.0068182,
                "end_time": 65.1977273,
                "pitch": 29,
                "velocity": 80,
                "duration": 0.1909091,
                "tempo": 120.0
            },
            {
                "start_time": 65.2431818,
                "end_time": 65.4318182,
                "pitch": 34,
                "velocity": 80,
                "duration": 0.1886364,
                "tempo": 120.0
            },
            {
                "start_time": 65.4795455,
                "end_time": 65.8863636,
                "pitch": 39,
                "velocity": 80,
                "duration": 0.4068182,
                "tempo": 120.0
            },
            {
                "start_time": 65.9386364,
                "end_time": 66.3454545,
                "pitch": 34,
                "velocity": 80,
                "duration": 0.4068182,
                "tempo": 120.0
            },
            {
                "start_time": 66.4022727,
                "end_time": 66.6977273,
                "pitch": 39,
                "velocity": 80,
                "duration": 0.2954545,
                "tempo": 120.0
            },
            {
                "start_time": 66.7568182,
                "end_time": 66.8477273,
                "pitch": 39,
                "velocity": 80,
                "duration": 0.0909091,
                "tempo": 120.0
            },
            {
                "start_time": 66.8704545,
                "end_time": 67.0659091,
                "pitch": 46,
                "velocity": 80,
                "duration": 0.1954545,
                "tempo": 120.0
            },
            {
                "start_time": 67.1090909,
                "end_time": 67.3,
                "pitch": 39,
                "velocity": 80,
                "duration": 0.1909091,
                "tempo": 120.0
            },
            {
                "start_time": 67.3454545,
                "end_time": 67.7545455,
                "pitch": 36,
                "velocity": 80,
                "duration": 0.4090909,
                "tempo": 120.0
            },
            {
                "start_time": 67.8068182,
                "end_time": 68.2136364,
                "pitch": 31,
                "velocity": 80,
                "duration": 0.4068182,
                "tempo": 120.0
            },
            {
                "start_time": 68.2659091,
                "end_time": 68.5568182,
                "pitch": 36,
                "velocity": 80,
                "duration": 0.2909091,
                "tempo": 120.0
            },
            {
                "start_time": 68.6136364,
                "end_time": 68.7045455,
                "pitch": 36,
                "velocity": 80,
                "duration": 0.0909091,
                "tempo": 120.0
            },
            {
                "start_time": 68.7295455,
                "end_time": 68.9272727,
                "pitch": 31,
                "velocity": 80,
                "duration": 0.1977273,
                "tempo": 120.0
            },
            {
                "start_time": 68.9727273,
                "end_time": 69.1681818,
                "pitch": 36,
                "velocity": 80,
                "duration": 0.1954545,
                "tempo": 120.0
            },
            {
                "start_time": 69.2159091,
                "end_time": 69.6227273,
                "pitch": 29,
                "velocity": 80,
                "duration": 0.4068182,
                "tempo": 120.0
            },
            {
                "start_time": 69.675,
                "end_time": 70.0818182,
                "pitch": 36,
                "velocity": 80,
                "duration": 0.4068182,
                "tempo": 120.0
            },
            {
                "start_time": 70.1340909,
                "end_time": 70.425,
                "pitch": 29,
                "velocity": 80,
                "duration": 0.2909091,
                "tempo": 120.0
            },
            {
                "start_time": 70.4818182,
                "end_time": 70.5727273,
                "pitch": 29,
                "velocity": 80,
                "duration": 0.0909091,
                "tempo": 120.0
            },
            {
                "start_time": 70.6,
                "end_time": 70.7931818,
                "pitch": 36,
                "velocity": 80,
                "duration": 0.1931818,
                "tempo": 120.0
            },
            {
                "start_time": 70.8409091,
                "end_time": 71.0318182,
                "pitch": 29,
                "velocity": 80,
                "duration": 0.1909091,
                "tempo": 120.0
            },
            {
                "start_time": 71.0795455,
                "end_time": 71.4863636,
                "pitch": 34,
                "velocity": 80,
                "duration": 0.4068182,
                "tempo": 120.0
            },
            {
                "start_time": 71.5431818,
                "end_time": 71.9454545,
                "pitch": 29,
                "velocity": 80,
                "duration": 0.4022727,
                "tempo": 120.0
            },
            {
                "start_time": 71.9977273,
                "end_time": 72.2909091,
                "pitch": 29,
                "velocity": 80,
                "duration": 0.2931818,
                "tempo": 120.0
            },
            {
                "start_time": 72.3454545,
                "end_time": 72.4386364,
                "pitch": 29,
                "velocity": 80,
                "duration": 0.0931818,
                "tempo": 120.0
            },
            {
                "start_time": 72.4636364,
                "end_time": 72.6590909,
                "pitch": 29,
                "velocity": 80,
                "duration": 0.1954545,
                "tempo": 120.0
            },
            {
                "start_time": 72.7068182,
                "end_time": 72.9,
                "pitch": 34,
                "velocity": 80,
                "duration": 0.1931818,
                "tempo": 120.0
            },
            {
                "start_time": 72.9477273,
                "end_time": 73.2363636,
                "pitch": 39,
                "velocity": 80,
                "duration": 0.2886364,
                "tempo": 120.0
            },
            {
                "start_time": 73.2977273,
                "end_time": 73.5818182,
                "pitch": 39,
                "velocity": 80,
                "duration": 0.2840909,
                "tempo": 120.0
            },
            {
                "start_time": 73.6340909,
                "end_time": 73.8204545,
                "pitch": 39,
                "velocity": 80,
                "duration": 0.1863636,
                "tempo": 120.0
            },
            {
                "start_time": 73.8613636,
                "end_time": 74.1613636,
                "pitch": 39,
                "velocity": 80,
                "duration": 0.3,
                "tempo": 120.0
            },
            {
                "start_time": 74.2227273,
                "end_time": 74.5136364,
                "pitch": 39,
                "velocity": 80,
                "duration": 0.2909091,
                "tempo": 120.0
            },
            {
                "start_time": 74.5727273,
                "end_time": 74.7590909,
                "pitch": 39,
                "velocity": 80,
                "duration": 0.1863636,
                "tempo": 120.0
            },
            {
                "start_time": 74.8045455,
                "end_time": 75.0659091,
                "pitch": 31,
                "velocity": 80,
                "duration": 0.2613636,
                "tempo": 120.0
            },
            {
                "start_time": 75.1113636,
                "end_time": 75.3704545,
                "pitch": 31,
                "velocity": 80,
                "duration": 0.2590909,
                "tempo": 120.0
            },
            {
                "start_time": 75.4136364,
                "end_time": 75.7,
                "pitch": 31,
                "velocity": 80,
                "duration": 0.2863636,
                "tempo": 120.0
            },
            {
                "start_time": 75.7431818,
                "end_time": 76.55,
                "pitch": 31,
                "velocity": 80,
                "duration": 0.8068182,
                "tempo": 120.0
            },
            {
                "start_time": 76.6659091,
                "end_time": 77.0136364,
                "pitch": 33,
                "velocity": 80,
                "duration": 0.3477273,
                "tempo": 120.0
            },
            {
                "start_time": 55.9136364,
                "end_time": 77.0136364,
                "pitch": 40,
                "velocity": 80,
                "duration": 21.1,
                "tempo": 120.0
            },
            {
                "start_time": 77.0136364,
                "end_time": 77.3636364,
                "pitch": 40,
                "velocity": 80,
                "duration": 0.35,
                "tempo": 120.0
            },
            {
                "start_time": 77.0159091,
                "end_time": 77.3636364,
                "pitch": 40,
                "velocity": 80,
                "duration": 0.3477273,
                "tempo": 120.0
            },
            {
                "start_time": 77.3636364,
                "end_time": 77.9454545,
                "pitch": 45,
                "velocity": 80,
                "duration": 0.5818182,
                "tempo": 120.0
            },
            {
                "start_time": 39.1204545,
                "end_time": 77.9477273,
                "pitch": 52,
                "velocity": 80,
                "duration": 38.8272727,
                "tempo": 120.0
            },
            {
                "start_time": 77.9454545,
                "end_time": 77.9477273,
                "pitch": 52,
                "velocity": 80,
                "duration": 0.0022727,
                "tempo": 120.0
            },
            {
                "start_time": 77.3636364,
                "end_time": 78.0613636,
                "pitch": 33,
                "velocity": 80,
                "duration": 0.6977273,
                "tempo": 120.0
            },
            {
                "start_time": 77.9477273,
                "end_time": 78.0613636,
                "pitch": 40,
                "velocity": 80,
                "duration": 0.1136364,
                "tempo": 120.0
            },
            {
                "start_time": 78.0613636,
                "end_time": 78.3,
                "pitch": 45,
                "velocity": 80,
                "duration": 0.2386364,
                "tempo": 120.0
            },
            {
                "start_time": 78.3,
                "end_time": 78.5318182,
                "pitch": 40,
                "velocity": 80,
                "duration": 0.2318182,
                "tempo": 120.0
            },
            {
                "start_time": 78.5318182,
                "end_time": 78.8863636,
                "pitch": 31,
                "velocity": 80,
                "duration": 0.3545455,
                "tempo": 120.0
            },
            {
                "start_time": 78.5318182,
                "end_time": 78.8863636,
                "pitch": 31,
                "velocity": 80,
                "duration": 0.3545455,
                "tempo": 120.0
            },
            {
                "start_time": 78.8863636,
                "end_time": 79.2363636,
                "pitch": 38,
                "velocity": 80,
                "duration": 0.35,
                "tempo": 120.0
            },
            {
                "start_time": 78.8863636,
                "end_time": 79.2363636,
                "pitch": 38,
                "velocity": 80,
                "duration": 0.35,
                "tempo": 120.0
            },
            {
                "start_time": 79.2386364,
                "end_time": 79.8159091,
                "pitch": 43,
                "velocity": 80,
                "duration": 0.5772727,
                "tempo": 120.0
            },
            {
                "start_time": 44.7159091,
                "end_time": 79.8181818,
                "pitch": 50,
                "velocity": 80,
                "duration": 35.1022727,
                "tempo": 120.0
            },
            {
                "start_time": 79.8159091,
                "end_time": 79.8181818,
                "pitch": 50,
                "velocity": 80,
                "duration": 0.0022727,
                "tempo": 120.0
            },
            {
                "start_time": 79.2363636,
                "end_time": 79.9295455,
                "pitch": 31,
                "velocity": 80,
                "duration": 0.6931818,
                "tempo": 120.0
            },
            {
                "start_time": 79.8181818,
                "end_time": 79.9295455,
                "pitch": 38,
                "velocity": 80,
                "duration": 0.1113636,
                "tempo": 120.0
            },
            {
                "start_time": 79.9295455,
                "end_time": 80.1681818,
                "pitch": 43,
                "velocity": 80,
                "duration": 0.2386364,
                "tempo": 120.0
            },
            {
                "start_time": 78.0613636,
                "end_time": 80.4,
                "pitch": 33,
                "velocity": 80,
                "duration": 2.3386364,
                "tempo": 120.0
            },
            {
                "start_time": 80.1681818,
                "end_time": 80.4,
                "pitch": 38,
                "velocity": 80,
                "duration": 0.2318182,
                "tempo": 120.0
            },
            {
                "start_time": 80.4,
                "end_time": 80.75,
                "pitch": 33,
                "velocity": 80,
                "duration": 0.35,
                "tempo": 120.0
            },
            {
                "start_time": 80.4022727,
                "end_time": 80.75,
                "pitch": 33,
                "velocity": 80,
                "duration": 0.3477273,
                "tempo": 120.0
            },
            {
                "start_time": 80.75,
                "end_time": 81.1,
                "pitch": 40,
                "velocity": 80,
                "duration": 0.35,
                "tempo": 120.0
            },
            {
                "start_time": 80.75,
                "end_time": 81.1,
                "pitch": 40,
                "velocity": 80,
                "duration": 0.35,
                "tempo": 120.0
            },
            {
                "start_time": 81.1,
                "end_time": 81.6818182,
                "pitch": 45,
                "velocity": 80,
                "duration": 0.5818182,
                "tempo": 120.0
            },
            {
                "start_time": 78.3,
                "end_time": 81.6818182,
                "pitch": 52,
                "velocity": 80,
                "duration": 3.3818182,
                "tempo": 120.0
            },
            {
                "start_time": 81.1,
                "end_time": 81.7954545,
                "pitch": 33,
                "velocity": 80,
                "duration": 0.6954545,
                "tempo": 120.0
            },
            {
                "start_time": 81.6840909,
                "end_time": 81.7954545,
                "pitch": 40,
                "velocity": 80,
                "duration": 0.1113636,
                "tempo": 120.0
            },
            {
                "start_time": 81.7977273,
                "end_time": 82.0340909,
                "pitch": 45,
                "velocity": 80,
                "duration": 0.2363636,
                "tempo": 120.0
            },
            {
                "start_time": 81.6818182,
                "end_time": 82.0340909,
                "pitch": 52,
                "velocity": 80,
                "duration": 0.3522727,
                "tempo": 120.0
            },
            {
                "start_time": 79.9295455,
                "end_time": 82.2704545,
                "pitch": 31,
                "velocity": 80,
                "duration": 2.3409091,
                "tempo": 120.0
            },
            {
                "start_time": 82.0363636,
                "end_time": 82.2704545,
                "pitch": 40,
                "velocity": 80,
                "duration": 0.2340909,
                "tempo": 120.0
            },
            {
                "start_time": 82.2704545,
                "end_time": 82.6204545,
                "pitch": 31,
                "velocity": 80,
                "duration": 0.35,
                "tempo": 120.0
            },
            {
                "start_time": 82.2727273,
                "end_time": 82.6204545,
                "pitch": 31,
                "velocity": 80,
                "duration": 0.3477273,
                "tempo": 120.0
            },
            {
                "start_time": 82.6204545,
                "end_time": 82.9659091,
                "pitch": 38,
                "velocity": 80,
                "duration": 0.3454545,
                "tempo": 120.0
            },
            {
                "start_time": 82.6227273,
                "end_time": 82.9659091,
                "pitch": 38,
                "velocity": 80,
                "duration": 0.3431818,
                "tempo": 120.0
            },
            {
                "start_time": 82.9659091,
                "end_time": 82.9681818,
                "pitch": 31,
                "velocity": 80,
                "duration": 0.0022727,
                "tempo": 120.0
            },
            {
                "start_time": 82.9681818,
                "end_time": 83.5568182,
                "pitch": 43,
                "velocity": 80,
                "duration": 0.5886364,
                "tempo": 120.0
            },
            {
                "start_time": 80.1681818,
                "end_time": 83.5590909,
                "pitch": 50,
                "velocity": 80,
                "duration": 3.3909091,
                "tempo": 120.0
            },
            {
                "start_time": 83.5568182,
                "end_time": 83.5590909,
                "pitch": 50,
                "velocity": 80,
                "duration": 0.0022727,
                "tempo": 120.0
            },
            {
                "start_time": 83.5590909,
                "end_time": 83.675,
                "pitch": 38,
                "velocity": 80,
                "duration": 0.1159091,
                "tempo": 120.0
            },
            {
                "start_time": 83.675,
                "end_time": 83.9090909,
                "pitch": 43,
                "velocity": 80,
                "duration": 0.2340909,
                "tempo": 120.0
            },
            {
                "start_time": 81.7954545,
                "end_time": 84.1363636,
                "pitch": 33,
                "velocity": 80,
                "duration": 2.3409091,
                "tempo": 120.0
            },
            {
                "start_time": 83.9090909,
                "end_time": 84.1363636,
                "pitch": 38,
                "velocity": 80,
                "duration": 0.2272727,
                "tempo": 120.0
            },
            {
                "start_time": 84.1363636,
                "end_time": 84.4863636,
                "pitch": 33,
                "velocity": 80,
                "duration": 0.35,
                "tempo": 120.0
            },
            {
                "start_time": 84.1363636,
                "end_time": 84.4863636,
                "pitch": 33,
                "velocity": 80,
                "duration": 0.35,
                "tempo": 120.0
            },
            {
                "start_time": 84.4863636,
                "end_time": 84.8340909,
                "pitch": 40,
                "velocity": 80,
                "duration": 0.3477273,
                "tempo": 120.0
            },
            {
                "start_time": 84.4863636,
                "end_time": 84.8340909,
                "pitch": 40,
                "velocity": 80,
                "duration": 0.3477273,
                "tempo": 120.0
            },
            {
                "start_time": 84.8363636,
                "end_time": 85.4181818,
                "pitch": 45,
                "velocity": 80,
                "duration": 0.5818182,
                "tempo": 120.0
            },
            {
                "start_time": 82.0340909,
                "end_time": 85.4181818,
                "pitch": 52,
                "velocity": 80,
                "duration": 3.3840909,
                "tempo": 120.0
            },
            {
                "start_time": 84.8340909,
                "end_time": 85.5318182,
                "pitch": 33,
                "velocity": 80,
                "duration": 0.6977273,
                "tempo": 120.0
            },
            {
                "start_time": 85.4181818,
                "end_time": 85.5318182,
                "pitch": 40,
                "velocity": 80,
                "duration": 0.1136364,
                "tempo": 120.0
            },
            {
                "start_time": 85.5318182,
                "end_time": 85.7704545,
                "pitch": 45,
                "velocity": 80,
                "duration": 0.2386364,
                "tempo": 120.0
            },
            {
                "start_time": 85.4181818,
                "end_time": 85.7704545,
                "pitch": 52,
                "velocity": 80,
                "duration": 0.3522727,
                "tempo": 120.0
            },
            {
                "start_time": 83.675,
                "end_time": 86.0022727,
                "pitch": 31,
                "velocity": 80,
                "duration": 2.3272727,
                "tempo": 120.0
            },
            {
                "start_time": 85.7704545,
                "end_time": 86.0022727,
                "pitch": 40,
                "velocity": 80,
                "duration": 0.2318182,
                "tempo": 120.0
            },
            {
                "start_time": 86.0022727,
                "end_time": 86.3477273,
                "pitch": 31,
                "velocity": 80,
                "duration": 0.3454545,
                "tempo": 120.0
            },
            {
                "start_time": 86.0045455,
                "end_time": 86.3477273,
                "pitch": 31,
                "velocity": 80,
                "duration": 0.3431818,
                "tempo": 120.0
            },
            {
                "start_time": 86.3477273,
                "end_time": 86.6977273,
                "pitch": 38,
                "velocity": 80,
                "duration": 0.35,
                "tempo": 120.0
            },
            {
                "start_time": 86.35,
                "end_time": 86.6977273,
                "pitch": 38,
                "velocity": 80,
                "duration": 0.3477273,
                "tempo": 120.0
            },
            {
                "start_time": 86.6977273,
                "end_time": 87.2863636,
                "pitch": 43,
                "velocity": 80,
                "duration": 0.5886364,
                "tempo": 120.0
            },
            {
                "start_time": 83.9090909,
                "end_time": 87.2863636,
                "pitch": 50,
                "velocity": 80,
                "duration": 3.3772727,
                "tempo": 120.0
            },
            {
                "start_time": 86.6977273,
                "end_time": 87.4,
                "pitch": 31,
                "velocity": 80,
                "duration": 0.7022727,
                "tempo": 120.0
            },
            {
                "start_time": 87.2863636,
                "end_time": 87.4,
                "pitch": 38,
                "velocity": 80,
                "duration": 0.1136364,
                "tempo": 120.0
            },
            {
                "start_time": 87.4,
                "end_time": 87.6386364,
                "pitch": 43,
                "velocity": 80,
                "duration": 0.2386364,
                "tempo": 120.0
            },
            {
                "start_time": 87.2863636,
                "end_time": 87.6386364,
                "pitch": 50,
                "velocity": 80,
                "duration": 0.3522727,
                "tempo": 120.0
            },
            {
                "start_time": 85.5318182,
                "end_time": 87.8704545,
                "pitch": 33,
                "velocity": 80,
                "duration": 2.3386364,
                "tempo": 120.0
            },
            {
                "start_time": 87.6386364,
                "end_time": 87.8704545,
                "pitch": 38,
                "velocity": 80,
                "duration": 0.2318182,
                "tempo": 120.0
            },
            {
                "start_time": 87.8704545,
                "end_time": 88.2136364,
                "pitch": 33,
                "velocity": 80,
                "duration": 0.3431818,
                "tempo": 120.0
            },
            {
                "start_time": 87.8727273,
                "end_time": 88.2136364,
                "pitch": 33,
                "velocity": 80,
                "duration": 0.3409091,
                "tempo": 120.0
            },
            {
                "start_time": 88.2136364,
                "end_time": 88.5636364,
                "pitch": 40,
                "velocity": 80,
                "duration": 0.35,
                "tempo": 120.0
            },
            {
                "start_time": 88.2136364,
                "end_time": 88.5636364,
                "pitch": 40,
                "velocity": 80,
                "duration": 0.35,
                "tempo": 120.0
            },
            {
                "start_time": 88.5636364,
                "end_time": 88.5659091,
                "pitch": 33,
                "velocity": 80,
                "duration": 0.0022727,
                "tempo": 120.0
            },
            {
                "start_time": 88.5659091,
                "end_time": 89.1522727,
                "pitch": 45,
                "velocity": 80,
                "duration": 0.5863636,
                "tempo": 120.0
            },
            {
                "start_time": 85.7704545,
                "end_time": 89.1522727,
                "pitch": 52,
                "velocity": 80,
                "duration": 3.3818182,
                "tempo": 120.0
            },
            {
                "start_time": 89.1545455,
                "end_time": 89.2681818,
                "pitch": 40,
                "velocity": 80,
                "duration": 0.1136364,
                "tempo": 120.0
            },
            {
                "start_time": 89.2681818,
                "end_time": 89.5068182,
                "pitch": 45,
                "velocity": 80,
                "duration": 0.2386364,
                "tempo": 120.0
            }
        ]
    }
}