{
    "mood": "happy",
    "instruments": {
        "Acoustic Grand Piano": [
            {
                "start_time": 0.0,
                "end_time": 0.2659091,
                "pitch": 70,
                "velocity": 64,
                "duration": 0.2659091,
                "tempo": 120.0
            },
            {
                "start_time": 0.2840909,
                "end_time": 0.3659091,
                "pitch": 72,
                "velocity": 64,
                "duration": 0.0818182,
                "tempo": 120.0
            },
            {
                "start_time": 0.3840909,
                "end_time": 0.5681818,
                "pitch": 70,
                "velocity": 64,
                "duration": 0.1840909,
                "tempo": 120.0
            },
            {
                "start_time": 0.5840909,
                "end_time": 0.7704545,
                "pitch": 68,
                "velocity": 64,
                "duration": 0.1863636,
                "tempo": 120.0
            },
            {
                "start_time": 0.7863636,
                "end_time": 0.975,
                "pitch": 67,
                "velocity": 64,
                "duration": 0.1886364,
                "tempo": 120.0
            },
            {
                "start_time": 0.9909091,
                "end_time": 1.1795455,
                "pitch": 68,
                "velocity": 64,
                "duration": 0.1886364,
                "tempo": 120.0
            },
            {
                "start_time": 1.1977273,
                "end_time": 1.5795455,
                "pitch": 70,
                "velocity": 64,
                "duration": 0.3818182,
                "tempo": 120.0
            },
            {
                "start_time": 1.5977273,
                "end_time": 1.7840909,
                "pitch": 65,
                "velocity": 64,
                "duration": 0.1863636,
                "tempo": 120.0
            },
            {
                "start_time": 1.8022727,
                "end_time": 1.9909091,
                "pitch": 67,
                "velocity": 64,
                "duration": 0.1886364,
                "tempo": 120.0
            },
            {
                "start_time": 2.0068182,
                "end_time": 2.3909091,
                "pitch": 68,
                "velocity": 64,
                "duration": 0.3840909,
                "tempo": 120.0
            },
            {
                "start_time": 2.4068182,
                "end_time": 2.5886364,
                "pitch": 68,
                "velocity": 64,
                "duration": 0.1818182,
                "tempo": 120.0
            },
            {
                "start_time": 2.6045455,
                "end_time": 2.7840909,
                "pitch": 68,
                "velocity": 64,
                "duration": 0.1795455,
                "tempo": 120.0
            },
            {
                "start_time": 2.8,
                "end_time": 3.1931818,
                "pitch": 70,
                "velocity": 64,
                "duration": 0.3931818,
                "tempo": 120.0
            },
            {
                "start_time": 3.2113636,
                "end_time": 3.4886364,
                "pitch": 70,
                "velocity": 64,
                "duration": 0.2772727,
                "tempo": 120.0
            },
            {
                "start_time": 3.5045455,
                "end_time": 3.5863636,
                "pitch": 72,
                "velocity": 64,
                "duration": 0.0818182,
                "tempo": 120.0
            },
            {
                "start_time": 3.6022727,
                "end_time": 3.7863636,
                "pitch": 70,
                "velocity": 64,
                "duration": 0.1840909,
                "tempo": 120.0
            },
            {
                "start_time": 3.8022727,
                "end_time": 3.9863636,
                "pitch": 68,
                "velocity": 64,
                "duration": 0.1840909,
                "tempo": 120.0
            },
            {
                "start_time": 4.0022727,
                "end_time": 4.1818182,
                "pitch": 67,
                "velocity": 64,
                "duration": 0.1795455,
                "tempo": 120.0
            },
            {
                "start_time": 4.1977273,
                "end_time": 4.3772727,
                "pitch": 68,
                "velocity": 64,
                "duration": 0.1795455,
                "tempo": 120.0
            },
            {
                "start_time": 4.3954545,
                "end_time": 4.7886364,
                "pitch": 70,
                "velocity": 64,
                "duration": 0.3931818,
                "tempo": 120.0
            },
            {
                "start_time": 4.8068182,
                "end_time": 5.2,
                "pitch": 65,
                "velocity": 64,
                "duration": 0.3931818,
                "tempo": 120.0
            },
            {
                "start_time": 5.2159091,
                "end_time": 5.5931818,
                "pitch": 70,
                "velocity": 64,
                "duration": 0.3772727,
                "tempo": 120.0
            },
            {
                "start_time": 5.6090909,
                "end_time": 5.7977273,
                "pitch": 67,
                "velocity": 64,
                "duration": 0.1886364,
                "tempo": 120.0
            },
            {
                "start_time": 5.8136364,
                "end_time": 6.3954545,
                "pitch": 63,
                "velocity": 64,
                "duration": 0.5818182,
                "tempo": 120.0
            }
        ],
        "Acoustic Bass": [
            {
                "start_time": 0.0,
                "end_time": 0.1659091,
                "pitch": 51,
                "velocity": 51,
                "duration": 0.1659091,
                "tempo": 120.0
            },
            {
                "start_time": 0.1840909,
                "end_time": 0.2659091,
                "pitch": 55,
                "velocity": 51,
                "duration": 0.0818182,
                "tempo": 120.0
            },
            {
                "start_time": 0.2840909,
                "end_time": 0.3659091,
                "pitch": 58,
                "velocity": 51,
                "duration": 0.0818182,
                "tempo": 120.0
            },
            {
                "start_time": 0.3840909,
                "end_time": 0.5681818,
                "pitch": 51,
                "velocity": 51,
                "duration": 0.1840909,
                "tempo": 120.0
            },
            {
                "start_time": 0.5840909,
                "end_time": 0.6681818,
                "pitch": 55,
                "velocity": 51,
                "duration": 0.0840909,
                "tempo": 120.0
            },
            {
                "start_time": 0.6863636,
                "end_time": 0.7704545,
                "pitch": 58,
                "velocity": 51,
                "duration": 0.0840909,
                "tempo": 120.0
            },
            {
                "start_time": 0.7863636,
                "end_time": 0.975,
                "pitch": 51,
                "velocity": 51,
                "duration": 0.1886364,
                "tempo": 120.0
            },
            {
                "start_time": 0.9909091,
                "end_time": 1.0772727,
                "pitch": 55,
                "velocity": 51,
                "duration": 0.0863636,
                "tempo": 120.0
            },
            {
                "start_time": 1.0954545,
                "end_time": 1.1795455,
                "pitch": 58,
                "velocity": 51,
                "duration": 0.0840909,
                "tempo": 120.0
            },
            {
                "start_time": 1.1977273,
                "end_time": 1.3795455,
                "pitch": 51,
                "velocity": 51,
                "duration": 0.1818182,
                "tempo": 120.0
            },
            {
                "start_time": 1.3977273,
                "end_time": 1.4795455,
                "pitch": 55,
                "velocity": 51,
                "duration": 0.0818182,
                "tempo": 120.0
            },
            {
                "start_time": 1.4977273,
                "end_time": 1.5795455,
                "pitch": 58,
                "velocity": 51,
                "duration": 0.0818182,
                "tempo": 120.0
            },
            {
                "start_time": 1.5977273,
                "end_time": 1.7840909,
                "pitch": 46,
                "velocity": 51,
                "duration": 0.1863636,
                "tempo": 120.0
            },
            {
                "start_time": 1.8022727,
                "end_time": 1.8886364,
                "pitch": 53,
                "velocity": 51,
                "duration": 0.0863636,
                "tempo": 120.0
            },
            {
                "start_time": 1.9045455,
                "end_time": 1.9909091,
                "pitch": 56,
                "velocity": 51,
                "duration": 0.0863636,
                "tempo": 120.0
            },
            {
                "start_time": 2.0068182,
                "end_time": 2.1909091,
                "pitch": 46,
                "velocity": 51,
                "duration": 0.1840909,
                "tempo": 120.0
            },
            {
                "start_time": 2.2090909,
                "end_time": 2.2909091,
                "pitch": 50,
                "velocity": 51,
                "duration": 0.0818182,
                "tempo": 120.0
            },
            {
                "start_time": 2.3090909,
                "end_time": 2.3909091,
                "pitch": 56,
                "velocity": 51,
                "duration": 0.0818182,
                "tempo": 120.0
            },
            {
                "start_time": 2.4068182,
                "end_time": 2.5886364,
                "pitch": 51,
                "velocity": 51,
                "duration": 0.1818182,
                "tempo": 120.0
            },
            {
                "start_time": 2.6045455,
                "end_time": 2.6863636,
                "pitch": 55,
                "velocity": 51,
                "duration": 0.0818182,
                "tempo": 120.0
            },
            {
                "start_time": 2.7022727,
                "end_time": 2.7840909,
                "pitch": 58,
                "velocity": 51,
                "duration": 0.0818182,
                "tempo": 120.0
            },
            {
                "start_time": 2.8,
                "end_time": 2.9886364,
                "pitch": 51,
                "velocity": 51,
                "duration": 0.1886364,
                "tempo": 120.0
            },
            {
                "start_time": 3.0045455,
                "end_time": 3.0909091,
                "pitch": 55,
                "velocity": 51,
                "duration": 0.0863636,
                "tempo": 120.0
            },
            {
                "start_time": 3.1090909,
                "end_time": 3.1931818,
                "pitch": 58,
                "velocity": 51,
                "duration": 0.0840909,
                "tempo": 120.0
            },
            {
                "start_time": 3.2113636,
                "end_time": 3.3909091,
                "pitch": 51,
                "velocity": 51,
                "duration": 0.1795455,
                "tempo": 120.0
            },
            {
                "start_time": 3.4068182,
                "end_time": 3.4886364,
                "pitch": 55,
                "velocity": 51,
                "duration": 0.0818182,
                "tempo": 120.0
            },
            {
                "start_time": 3.5045455,
                "end_time": 3.5863636,
                "pitch": 58,
                "velocity": 51,
                "duration": 0.0818182,
                "tempo": 120.0
            },
            {
                "start_time": 3.6022727,
                "end_time": 3.7863636,
                "pitch": 51,
                "velocity": 51,
                "duration": 0.1840909,
                "tempo": 120.0
            },
            {
                "start_time": 3.8022727,
                "end_time": 3.8863636,
                "pitch": 55,
                "velocity": 51,
                "duration": 0.0840909,
                "tempo": 120.0
            },
            {
                "start_time": 3.9022727,
                "end_time": 3.9863636,
                "pitch": 58,
                "velocity": 51,
                "duration": 0.0840909,
                "tempo": 120.0
            },
            {
                "start_time": 4.0022727,
                "end_time": 4.1818182,
                "pitch": 51,
                "velocity": 51,
                "duration": 0.1795455,
                "tempo": 120.0
            },
            {
                "start_time": 4.1977273,
                "end_time": 4.2795455,
                "pitch": 55,
                "velocity": 51,
                "duration": 0.0818182,
                "tempo": 120.0
            },
            {
                "start_time": 4.2977273,
                "end_time": 4.3772727,
                "pitch": 58,
                "velocity": 51,
                "duration": 0.0795455,
                "tempo": 120.0
            },
            {
                "start_time": 4.3954545,
                "end_time": 4.5840909,
                "pitch": 51,
                "velocity": 51,
                "duration": 0.1886364,
                "tempo": 120.0
            },
            {
                "start_time": 4.6,
                "end_time": 4.6863636,
                "pitch": 55,
                "velocity": 51,
                "duration": 0.0863636,
                "tempo": 120.0
            },
            {
                "start_time": 4.7022727,
                "end_time": 4.7886364,
                "pitch": 58,
                "velocity": 51,
                "duration": 0.0863636,
                "tempo": 120.0
            },
            {
                "start_time": 4.8068182,
                "end_time": 4.9931818,
                "pitch": 46,
                "velocity": 51,
                "duration": 0.1863636,
                "tempo": 120.0
            },
            {
                "start_time": 5.0113636,
                "end_time": 5.0977273,
                "pitch": 53,
                "velocity": 51,
                "duration": 0.0863636,
                "tempo": 120.0
            },
            {
                "start_time": 5.1136364,
                "end_time": 5.2,
                "pitch": 56,
                "velocity": 51,
                "duration": 0.0863636,
                "tempo": 120.0
            },
            {
                "start_time": 5.2159091,
                "end_time": 5.3954545,
                "pitch": 46,
                "velocity": 51,
                "duration": 0.1795455,
                "tempo": 120.0
            },
            {
                "start_time": 5.4136364,
                "end_time": 5.4954545,
                "pitch": 50,
                "velocity": 51,
                "duration": 0.0818182,
                "tempo": 120.0
            },
            {
                "start_time": 5.5113636,
                "end_time": 5.5931818,
                "pitch": 56,
                "velocity": 51,
                "duration": 0.0818182,
                "tempo": 120.0
            },
            {
                "start_time": 5.6090909,
                "end_time": 5.7977273,
                "pitch": 51,
                "velocity": 51,
                "duration": 0.1886364,
                "tempo": 120.0
            },
            {
                "start_time": 5.8136364,
                "end_time": 5.9,
                "pitch": 55,
                "velocity": 51,
                "duration": 0.0863636,
                "tempo": 120.0
            }
        ],
        "Clarinet": [
            {
                "start_time": 0.0,
                "end_time": 0.2659091,
                "pitch": 79,
                "velocity": 40,
                "duration": 0.2659091,
                "tempo": 120.0
            },
            {
                "start_time": 0.2840909,
                "end_time": 0.3659091,
                "pitch": 80,
                "velocity": 40,
                "duration": 0.0818182,
                "tempo": 120.0
            },
            {
                "start_time": 0.3840909,
                "end_time": 0.5681818,
                "pitch": 79,
                "velocity": 40,
                "duration": 0.1840909,
                "tempo": 120.0
            },
            {
                "start_time": 0.5840909,
                "end_time": 0.7704545,
                "pitch": 77,
                "velocity": 40,
                "duration": 0.1863636,
                "tempo": 120.0
            },
            {
                "start_time": 0.7863636,
                "end_time": 0.975,
                "pitch": 75,
                "velocity": 40,
                "duration": 0.1886364,
                "tempo": 120.0
            },
            {
                "start_time": 0.9909091,
                "end_time": 1.0772727,
                "pitch": 75,
                "velocity": 40,
                "duration": 0.0863636,
                "tempo": 120.0
            },
            {
                "start_time": 1.0954545,
                "end_time": 1.1795455,
                "pitch": 75,
                "velocity": 40,
                "duration": 0.0840909,
                "tempo": 120.0
            },
            {
                "start_time": 1.1977273,
                "end_time": 1.5795455,
                "pitch": 79,
                "velocity": 40,
                "duration": 0.3818182,
                "tempo": 120.0
            },
            {
                "start_time": 1.5977273,
                "end_time": 1.7840909,
                "pitch": 74,
                "velocity": 40,
                "duration": 0.1863636,
                "tempo": 120.0
            },
            {
                "start_time": 1.8022727,
                "end_time": 1.8886364,
                "pitch": 74,
                "velocity": 40,
                "duration": 0.0863636,
                "tempo": 120.0
            },
            {
                "start_time": 1.9045455,
                "end_time": 1.9909091,
                "pitch": 75,
                "velocity": 40,
                "duration": 0.0863636,
                "tempo": 120.0
            },
            {
                "start_time": 2.0068182,
                "end_time": 2.3909091,
                "pitch": 77,
                "velocity": 40,
                "duration": 0.3840909,
                "tempo": 120.0
            },
            {
                "start_time": 2.4068182,
                "end_time": 2.5886364,
                "pitch": 77,
                "velocity": 40,
                "duration": 0.1818182,
                "tempo": 120.0
            },
            {
                "start_time": 2.6045455,
                "end_time": 2.6863636,
                "pitch": 77,
                "velocity": 40,
                "duration": 0.0818182,
                "tempo": 120.0
            },
            {
                "start_time": 2.7022727,
                "end_time": 2.7840909,
                "pitch": 77,
                "velocity": 40,
                "duration": 0.0818182,
                "tempo": 120.0
            },
            {
                "start_time": 2.8,
                "end_time": 3.1931818,
                "pitch": 79,
                "velocity": 40,
                "duration": 0.3931818,
                "tempo": 120.0
            },
            {
                "start_time": 3.2113636,
                "end_time": 3.4886364,
                "pitch": 79,
                "velocity": 40,
                "duration": 0.2772727,
                "tempo": 120.0
            },
            {
                "start_time": 3.5045455,
                "end_time": 3.5863636,
                "pitch": 80,
                "velocity": 40,
                "duration": 0.0818182,
                "tempo": 120.0
            },
            {
                "start_time": 3.6022727,
                "end_time": 3.7863636,
                "pitch": 79,
                "velocity": 40,
                "duration": 0.1840909,
                "tempo": 120.0
            },
            {
                "start_time": 3.8022727,
                "end_time": 3.9863636,
                "pitch": 77,
                "velocity": 40,
                "duration": 0.1840909,
                "tempo": 120.0
            },
            {
                "start_time": 4.0022727,
                "end_time": 4.1818182,
                "pitch": 75,
                "velocity": 40,
                "duration": 0.1795455,
                "tempo": 120.0
            },
            {
                "start_time": 4.1977273,
                "end_time": 4.2795455,
                "pitch": 75,
                "velocity": 40,
                "duration": 0.0818182,
                "tempo": 120.0
            },
            {
                "start_time": 4.2977273,
                "end_time": 4.3772727,
                "pitch": 75,
                "velocity": 40,
                "duration": 0.0795455,
                "tempo": 120.0
            },
            {
                "start_time": 4.3954545,
                "end_time": 4.7886364,
                "pitch": 79,
                "velocity": 40,
                "duration": 0.3931818,
                "tempo": 120.0
            },
            {
                "start_time": 4.8068182,
                "end_time": 4.9931818,
                "pitch": 74,
                "velocity": 40,
                "duration": 0.1863636,
                "tempo": 120.0
            },
            {
                "start_time": 5.0113636,
                "end_time": 5.0977273,
                "pitch": 74,
                "velocity": 40,
                "duration": 0.0863636,
                "tempo": 120.0
            },
            {
                "start_time": 5.1136364,
                "end_time": 5.2,
                "pitch": 75,
                "velocity": 40,
                "duration": 0.0863636,
                "tempo": 120.0
            },
            {
                "start_time": 5.2159091,
                "end_time": 5.3954545,
                "pitch": 77,
                "velocity": 40,
                "duration": 0.1795455,
                "tempo": 120.0
            },
            {
                "start_time": 5.4136364,
                "end_time": 5.4954545,
                "pitch": 77,
                "velocity": 40,
                "duration": 0.0818182,
                "tempo": 120.0
            },
            {
                "start_time": 5.5113636,
                "end_time": 5.5931818,
                "pitch": 79,
                "velocity": 40,
                "duration": 0.0818182,
                "tempo": 120.0
            },
            {
                "start_time": 5.6090909,
                "end_time": 5.7977273,
                "pitch": 75,
                "velocity": 40,
                "duration": 0.1886364,
                "tempo": 120.0
            },
            {
                "start_time": 5.8136364,
                "end_time": 6.3954545,
                "pitch": 70,
                "velocity": 40,
                "duration": 0.5818182,
                "tempo": 120.0
            }
        ]
    }
}