{
    "mood": "happy",
    "instruments": {
        "Synth Bass 1": [
            {
                "start_time": 0.0045455,
                "end_time": 0.0659091,
                "pitch": 79,
                "velocity": 4,
                "duration": 0.0613636,
                "tempo": 120.0
            },
            {
                "start_time": 0.0659091,
                "end_time": 0.2,
                "pitch": 79,
                "velocity": 4,
                "duration": 0.1340909,
                "tempo": 120.0
            },
            {
                "start_time": 0.0659091,
                "end_time": 0.2,
                "pitch": 91,
                "velocity": 4,
                "duration": 0.1340909,
                "tempo": 120.0
            },
            {
                "start_time": 0.2,
                "end_time": 0.2681818,
                "pitch": 79,
                "velocity": 4,
                "duration": 0.0681818,
                "tempo": 120.0
            },
            {
                "start_time": 0.2681818,
                "end_time": 0.5181818,
                "pitch": 74,
                "velocity": 4,
                "duration": 0.25,
                "tempo": 120.0
            },
            {
                "start_time": 0.5181818,
                "end_time": 0.775,
                "pitch": 71,
                "velocity": 4,
                "duration": 0.2568182,
                "tempo": 120.0
            },
            {
                "start_time": 0.2681818,
                "end_time": 0.8409091,
                "pitch": 67,
                "velocity": 4,
                "duration": 0.5727273,
                "tempo": 120.0
            },
            {
                "start_time": 0.775,
                "end_time": 0.8409091,
                "pitch": 67,
                "velocity": 4,
                "duration": 0.0659091,
                "tempo": 120.0
            },
            {
                "start_time": 0.8409091,
                "end_time": 0.9795455,
                "pitch": 67,
                "velocity": 4,
                "duration": 0.1386364,
                "tempo": 120.0
            },
            {
                "start_time": 0.8409091,
                "end_time": 0.9795455,
                "pitch": 79,
                "velocity": 4,
                "duration": 0.1386364,
                "tempo": 120.0
            },
            {
                "start_time": 0.9795455,
                "end_time": 1.0318182,
                "pitch": 67,
                "velocity": 4,
                "duration": 0.0522727,
                "tempo": 120.0
            },
            {
                "start_time": 0.5181818,
                "end_time": 1.5454545,
                "pitch": 74,
                "velocity": 4,
                "duration": 1.0272727,
                "tempo": 120.0
            },
            {
                "start_time": 1.2886364,
                "end_time": 1.5454545,
                "pitch": 74,
                "velocity": 4,
                "duration": 0.2568182,
                "tempo": 120.0
            },
            {
                "start_time": 0.775,
                "end_time": 1.7954545,
                "pitch": 44,
                "velocity": 4,
                "duration": 1.0204545,
                "tempo": 120.0
            },
            {
                "start_time": 1.5454545,
                "end_time": 1.7954545,
                "pitch": 71,
                "velocity": 4,
                "duration": 0.25,
                "tempo": 120.0
            },
            {
                "start_time": 1.2886364,
                "end_time": 1.8613636,
                "pitch": 67,
                "velocity": 4,
                "duration": 0.5727273,
                "tempo": 120.0
            },
            {
                "start_time": 1.7954545,
                "end_time": 1.8613636,
                "pitch": 67,
                "velocity": 4,
                "duration": 0.0659091,
                "tempo": 120.0
            },
            {
                "start_time": 0.9795455,
                "end_time": 1.8613636,
                "pitch": 79,
                "velocity": 4,
                "duration": 0.8818182,
                "tempo": 120.0
            },
            {
                "start_time": 1.8613636,
                "end_time": 1.9954545,
                "pitch": 67,
                "velocity": 4,
                "duration": 0.1340909,
                "tempo": 120.0
            },
            {
                "start_time": 1.8613636,
                "end_time": 1.9954545,
                "pitch": 79,
                "velocity": 4,
                "duration": 0.1340909,
                "tempo": 120.0
            },
            {
                "start_time": 1.9954545,
                "end_time": 2.0477273,
                "pitch": 67,
                "velocity": 4,
                "duration": 0.0522727,
                "tempo": 120.0
            },
            {
                "start_time": 2.0477273,
                "end_time": 2.2977273,
                "pitch": 76,
                "velocity": 4,
                "duration": 0.25,
                "tempo": 120.0
            },
            {
                "start_time": 2.2977273,
                "end_time": 2.5477273,
                "pitch": 72,
                "velocity": 4,
                "duration": 0.25,
                "tempo": 120.0
            },
            {
                "start_time": 2.0477273,
                "end_time": 2.6113636,
                "pitch": 67,
                "velocity": 4,
                "duration": 0.5636364,
                "tempo": 120.0
            },
            {
                "start_time": 2.5477273,
                "end_time": 2.6113636,
                "pitch": 67,
                "velocity": 4,
                "duration": 0.0636364,
                "tempo": 120.0
            },
            {
                "start_time": 1.9954545,
                "end_time": 2.6113636,
                "pitch": 79,
                "velocity": 4,
                "duration": 0.6159091,
                "tempo": 120.0
            },
            {
                "start_time": 2.6113636,
                "end_time": 2.7454545,
                "pitch": 67,
                "velocity": 4,
                "duration": 0.1340909,
                "tempo": 120.0
            },
            {
                "start_time": 2.6113636,
                "end_time": 2.7454545,
                "pitch": 79,
                "velocity": 4,
                "duration": 0.1340909,
                "tempo": 120.0
            },
            {
                "start_time": 2.7454545,
                "end_time": 2.7977273,
                "pitch": 67,
                "velocity": 4,
                "duration": 0.0522727,
                "tempo": 120.0
            },
            {
                "start_time": 1.5454545,
                "end_time": 3.2977273,
                "pitch": 74,
                "velocity": 4,
                "duration": 1.7522727,
                "tempo": 120.0
            },
            {
                "start_time": 2.7977273,
                "end_time": 3.2977273,
                "pitch": 74,
                "velocity": 4,
                "duration": 0.5,
                "tempo": 120.0
            },
            {
                "start_time": 3.2977273,
                "end_time": 3.5477273,
                "pitch": 74,
                "velocity": 4,
                "duration": 0.25,
                "tempo": 120.0
            },
            {
                "start_time": 3.5477273,
                "end_time": 3.6295455,
                "pitch": 74,
                "velocity": 4,
                "duration": 0.0818182,
                "tempo": 120.0
            },
            {
                "start_time": 2.2977273,
                "end_time": 3.7977273,
                "pitch": 76,
                "velocity": 4,
                "duration": 1.5,
                "tempo": 120.0
            },
            {
                "start_time": 3.6295455,
                "end_time": 3.7977273,
                "pitch": 76,
                "velocity": 4,
                "duration": 0.1681818,
                "tempo": 120.0
            },
            {
                "start_time": 3.7977273,
                "end_time": 3.8818182,
                "pitch": 76,
                "velocity": 4,
                "duration": 0.0840909,
                "tempo": 120.0
            },
            {
                "start_time": 3.8818182,
                "end_time": 4.05,
                "pitch": 78,
                "velocity": 4,
                "duration": 0.1681818,
                "tempo": 120.0
            },
            {
                "start_time": 4.05,
                "end_time": 4.1136364,
                "pitch": 77,
                "velocity": 4,
                "duration": 0.0636364,
                "tempo": 120.0
            },
            {
                "start_time": 0.2,
                "end_time": 4.1136364,
                "pitch": 91,
                "velocity": 4,
                "duration": 3.9136364,
                "tempo": 120.0
            },
            {
                "start_time": 2.7454545,
                "end_time": 4.2477273,
                "pitch": 79,
                "velocity": 4,
                "duration": 1.5022727,
                "tempo": 120.0
            },
            {
                "start_time": 4.1136364,
                "end_time": 4.2477273,
                "pitch": 79,
                "velocity": 4,
                "duration": 0.1340909,
                "tempo": 120.0
            },
            {
                "start_time": 4.1136364,
                "end_time": 4.2477273,
                "pitch": 91,
                "velocity": 4,
                "duration": 0.1340909,
                "tempo": 120.0
            },
            {
                "start_time": 2.7977273,
                "end_time": 4.2977273,
                "pitch": 67,
                "velocity": 4,
                "duration": 1.5,
                "tempo": 120.0
            },
            {
                "start_time": 4.2477273,
                "end_time": 4.2977273,
                "pitch": 79,
                "velocity": 4,
                "duration": 0.05,
                "tempo": 120.0
            },
            {
                "start_time": 4.2977273,
                "end_time": 4.5659091,
                "pitch": 74,
                "velocity": 4,
                "duration": 0.2681818,
                "tempo": 120.0
            },
            {
                "start_time": 1.7954545,
                "end_time": 4.8227273,
                "pitch": 44,
                "velocity": 4,
                "duration": 3.0272727,
                "tempo": 120.0
            },
            {
                "start_time": 4.5659091,
                "end_time": 4.8227273,
                "pitch": 71,
                "velocity": 4,
                "duration": 0.2568182,
                "tempo": 120.0
            },
            {
                "start_time": 4.2977273,
                "end_time": 4.8909091,
                "pitch": 67,
                "velocity": 4,
                "duration": 0.5931818,
                "tempo": 120.0
            },
            {
                "start_time": 4.8227273,
                "end_time": 4.8909091,
                "pitch": 67,
                "velocity": 4,
                "duration": 0.0681818,
                "tempo": 120.0
            },
            {
                "start_time": 4.8909091,
                "end_time": 5.0272727,
                "pitch": 67,
                "velocity": 4,
                "duration": 0.1363636,
                "tempo": 120.0
            },
            {
                "start_time": 4.8909091,
                "end_time": 5.0272727,
                "pitch": 79,
                "velocity": 4,
                "duration": 0.1363636,
                "tempo": 120.0
            },
            {
                "start_time": 5.0272727,
                "end_time": 5.0795455,
                "pitch": 67,
                "velocity": 4,
                "duration": 0.0522727,
                "tempo": 120.0
            },
            {
                "start_time": 4.5659091,
                "end_time": 5.5931818,
                "pitch": 74,
                "velocity": 4,
                "duration": 1.0272727,
                "tempo": 120.0
            },
            {
                "start_time": 5.3363636,
                "end_time": 5.5931818,
                "pitch": 74,
                "velocity": 4,
                "duration": 0.2568182,
                "tempo": 120.0
            },
            {
                "start_time": 4.8227273,
                "end_time": 5.8431818,
                "pitch": 44,
                "velocity": 4,
                "duration": 1.0204545,
                "tempo": 120.0
            },
            {
                "start_time": 5.5931818,
                "end_time": 5.8431818,
                "pitch": 71,
                "velocity": 4,
                "duration": 0.25,
                "tempo": 120.0
            },
            {
                "start_time": 5.3363636,
                "end_time": 5.9090909,
                "pitch": 67,
                "velocity": 4,
                "duration": 0.5727273,
                "tempo": 120.0
            },
            {
                "start_time": 5.8431818,
                "end_time": 5.9090909,
                "pitch": 67,
                "velocity": 4,
                "duration": 0.0659091,
                "tempo": 120.0
            },
            {
                "start_time": 5.0272727,
                "end_time": 5.9090909,
                "pitch": 79,
                "velocity": 4,
                "duration": 0.8818182,
                "tempo": 120.0
            },
            {
                "start_time": 5.9090909,
                "end_time": 6.0431818,
                "pitch": 67,
                "velocity": 4,
                "duration": 0.1340909,
                "tempo": 120.0
            },
            {
                "start_time": 5.9090909,
                "end_time": 6.0431818,
                "pitch": 79,
                "velocity": 4,
                "duration": 0.1340909,
                "tempo": 120.0
            },
            {
                "start_time": 6.0431818,
                "end_time": 6.0954545,
                "pitch": 67,
                "velocity": 4,
                "duration": 0.0522727,
                "tempo": 120.0
            },
            {
                "start_time": 6.0954545,
                "end_time": 6.3454545,
                "pitch": 76,
                "velocity": 4,
                "duration": 0.25,
                "tempo": 120.0
            },
            {
                "start_time": 2.5477273,
                "end_time": 6.5954545,
                "pitch": 48,
                "velocity": 4,
                "duration": 4.0477273,
                "tempo": 120.0
            },
            {
                "start_time": 6.3454545,
                "end_time": 6.5954545,
                "pitch": 72,
                "velocity": 4,
                "duration": 0.25,
                "tempo": 120.0
            },
            {
                "start_time": 6.0954545,
                "end_time": 6.6613636,
                "pitch": 67,
                "velocity": 4,
                "duration": 0.5659091,
                "tempo": 120.0
            },
            {
                "start_time": 6.5954545,
                "end_time": 6.6613636,
                "pitch": 67,
                "velocity": 4,
                "duration": 0.0659091,
                "tempo": 120.0
            },
            {
                "start_time": 6.0431818,
                "end_time": 6.6613636,
                "pitch": 79,
                "velocity": 4,
                "duration": 0.6181818,
                "tempo": 120.0
            },
            {
                "start_time": 6.6613636,
                "end_time": 6.7931818,
                "pitch": 67,
                "velocity": 4,
                "duration": 0.1318182,
                "tempo": 120.0
            },
            {
                "start_time": 6.6613636,
                "end_time": 6.7931818,
                "pitch": 79,
                "velocity": 4,
                "duration": 0.1318182,
                "tempo": 120.0
            },
            {
                "start_time": 6.7931818,
                "end_time": 6.8454545,
                "pitch": 67,
                "velocity": 4,
                "duration": 0.0522727,
                "tempo": 120.0
            },
            {
                "start_time": 5.5931818,
                "end_time": 7.3454545,
                "pitch": 74,
                "velocity": 4,
                "duration": 1.7522727,
                "tempo": 120.0
            },
            {
                "start_time": 6.8454545,
                "end_time": 7.3454545,
                "pitch": 74,
                "velocity": 4,
                "duration": 0.5,
                "tempo": 120.0
            },
            {
                "start_time": 7.3454545,
                "end_time": 7.5954545,
                "pitch": 74,
                "velocity": 4,
                "duration": 0.25,
                "tempo": 120.0
            },
            {
                "start_time": 7.5954545,
                "end_time": 7.6795455,
                "pitch": 74,
                "velocity": 4,
                "duration": 0.0840909,
                "tempo": 120.0
            },
            {
                "start_time": 6.3454545,
                "end_time": 7.8454545,
                "pitch": 76,
                "velocity": 4,
                "duration": 1.5,
                "tempo": 120.0
            },
            {
                "start_time": 7.6795455,
                "end_time": 7.8454545,
                "pitch": 76,
                "velocity": 4,
                "duration": 0.1659091,
                "tempo": 120.0
            },
            {
                "start_time": 7.8454545,
                "end_time": 8.0977273,
                "pitch": 74,
                "velocity": 4,
                "duration": 0.2522727,
                "tempo": 120.0
            },
            {
                "start_time": 6.5954545,
                "end_time": 8.3477273,
                "pitch": 48,
                "velocity": 4,
                "duration": 1.7522727,
                "tempo": 120.0
            },
            {
                "start_time": 8.0977273,
                "end_time": 8.3477273,
                "pitch": 72,
                "velocity": 4,
                "duration": 0.25,
                "tempo": 120.0
            },
            {
                "start_time": 6.8454545,
                "end_time": 8.4159091,
                "pitch": 67,
                "velocity": 4,
                "duration": 1.5704545,
                "tempo": 120.0
            },
            {
                "start_time": 8.3477273,
                "end_time": 8.4159091,
                "pitch": 67,
                "velocity": 4,
                "duration": 0.0681818,
                "tempo": 120.0
            },
            {
                "start_time": 6.7931818,
                "end_time": 8.4159091,
                "pitch": 79,
                "velocity": 4,
                "duration": 1.6227273,
                "tempo": 120.0
            },
            {
                "start_time": 8.4159091,
                "end_time": 8.55,
                "pitch": 67,
                "velocity": 4,
                "duration": 0.1340909,
                "tempo": 120.0
            },
            {
                "start_time": 8.4159091,
                "end_time": 8.55,
                "pitch": 79,
                "velocity": 4,
                "duration": 0.1340909,
                "tempo": 120.0
            },
            {
                "start_time": 8.55,
                "end_time": 8.6022727,
                "pitch": 67,
                "velocity": 4,
                "duration": 0.0522727,
                "tempo": 120.0
            },
            {
                "start_time": 8.6022727,
                "end_time": 8.8681818,
                "pitch": 72,
                "velocity": 4,
                "duration": 0.2659091,
                "tempo": 120.0
            },
            {
                "start_time": 7.8454545,
                "end_time": 9.1204545,
                "pitch": 76,
                "velocity": 4,
                "duration": 1.275,
                "tempo": 120.0
            },
            {
                "start_time": 8.8681818,
                "end_time": 9.1204545,
                "pitch": 76,
                "velocity": 4,
                "duration": 0.2522727,
                "tempo": 120.0
            },
            {
                "start_time": 9.1204545,
                "end_time": 9.2045455,
                "pitch": 76,
                "velocity": 4,
                "duration": 0.0840909,
                "tempo": 120.0
            },
            {
                "start_time": 9.2045455,
                "end_time": 9.3795455,
                "pitch": 78,
                "velocity": 4,
                "duration": 0.175,
                "tempo": 120.0
            },
            {
                "start_time": 8.0977273,
                "end_time": 9.6409091,
                "pitch": 74,
                "velocity": 4,
                "duration": 1.5431818,
                "tempo": 120.0
            },
            {
                "start_time": 9.3795455,
                "end_time": 9.6409091,
                "pitch": 74,
                "velocity": 4,
                "duration": 0.2613636,
                "tempo": 120.0
            },
            {
                "start_time": 9.3795455,
                "end_time": 9.8909091,
                "pitch": 78,
                "velocity": 4,
                "duration": 0.5113636,
                "tempo": 120.0
            },
            {
                "start_time": 9.6409091,
                "end_time": 9.8909091,
                "pitch": 78,
                "velocity": 4,
                "duration": 0.25,
                "tempo": 120.0
            },
            {
                "start_time": 9.8909091,
                "end_time": 10.1431818,
                "pitch": 81,
                "velocity": 4,
                "duration": 0.2522727,
                "tempo": 120.0
            },
            {
                "start_time": 8.55,
                "end_time": 10.2068182,
                "pitch": 79,
                "velocity": 4,
                "duration": 1.6568182,
                "tempo": 120.0
            },
            {
                "start_time": 10.1431818,
                "end_time": 10.2068182,
                "pitch": 79,
                "velocity": 4,
                "duration": 0.0636364,
                "tempo": 120.0
            },
            {
                "start_time": 4.2477273,
                "end_time": 10.2068182,
                "pitch": 91,
                "velocity": 4,
                "duration": 5.9590909,
                "tempo": 120.0
            },
            {
                "start_time": 10.2068182,
                "end_time": 10.2590909,
                "pitch": 79,
                "velocity": 4,
                "duration": 0.0522727,
                "tempo": 120.0
            },
            {
                "start_time": 8.6022727,
                "end_time": 10.475,
                "pitch": 67,
                "velocity": 4,
                "duration": 1.8727273,
                "tempo": 120.0
            },
            {
                "start_time": 10.3909091,
                "end_time": 10.475,
                "pitch": 67,
                "velocity": 4,
                "duration": 0.0840909,
                "tempo": 120.0
            },
            {
                "start_time": 10.475,
                "end_time": 10.5090909,
                "pitch": 69,
                "velocity": 4,
                "duration": 0.0340909,
                "tempo": 120.0
            },
            {
                "start_time": 10.5090909,
                "end_time": 10.5909091,
                "pitch": 69,
                "velocity": 4,
                "duration": 0.0818182,
                "tempo": 120.0
            },
            {
                "start_time": 10.5909091,
                "end_time": 10.6431818,
                "pitch": 71,
                "velocity": 4,
                "duration": 0.0522727,
                "tempo": 120.0
            },
            {
                "start_time": 10.6431818,
                "end_time": 10.7590909,
                "pitch": 71,
                "velocity": 4,
                "duration": 0.1159091,
                "tempo": 120.0
            },
            {
                "start_time": 8.8681818,
                "end_time": 10.8931818,
                "pitch": 72,
                "velocity": 4,
                "duration": 2.025,
                "tempo": 120.0
            },
            {
                "start_time": 10.7590909,
                "end_time": 10.8931818,
                "pitch": 72,
                "velocity": 4,
                "duration": 0.1340909,
                "tempo": 120.0
            },
            {
                "start_time": 9.6409091,
                "end_time": 10.9590909,
                "pitch": 74,
                "velocity": 4,
                "duration": 1.3181818,
                "tempo": 120.0
            },
            {
                "start_time": 10.8931818,
                "end_time": 10.9590909,
                "pitch": 74,
                "velocity": 4,
                "duration": 0.0659091,
                "tempo": 120.0
            },
            {
                "start_time": 10.9590909,
                "end_time": 11.0272727,
                "pitch": 76,
                "velocity": 4,
                "duration": 0.0681818,
                "tempo": 120.0
            },
            {
                "start_time": 11.0272727,
                "end_time": 11.0931818,
                "pitch": 76,
                "velocity": 4,
                "duration": 0.0659091,
                "tempo": 120.0
            },
            {
                "start_time": 11.0931818,
                "end_time": 11.1090909,
                "pitch": 78,
                "velocity": 4,
                "duration": 0.0159091,
                "tempo": 120.0
            },
            {
                "start_time": 11.1090909,
                "end_time": 11.175,
                "pitch": 77,
                "velocity": 4,
                "duration": 0.0659091,
                "tempo": 120.0
            },
            {
                "start_time": 10.2068182,
                "end_time": 11.175,
                "pitch": 91,
                "velocity": 4,
                "duration": 0.9681818,
                "tempo": 120.0
            },
            {
                "start_time": 11.175,
                "end_time": 11.1931818,
                "pitch": 79,
                "velocity": 4,
                "duration": 0.0181818,
                "tempo": 120.0
            },
            {
                "start_time": 11.1931818,
                "end_time": 11.2772727,
                "pitch": 79,
                "velocity": 4,
                "duration": 0.0840909,
                "tempo": 120.0
            },
            {
                "start_time": 11.2772727,
                "end_time": 11.3590909,
                "pitch": 81,
                "velocity": 4,
                "duration": 0.0818182,
                "tempo": 120.0
            },
            {
                "start_time": 11.3590909,
                "end_time": 11.4431818,
                "pitch": 83,
                "velocity": 4,
                "duration": 0.0840909,
                "tempo": 120.0
            },
            {
                "start_time": 11.4431818,
                "end_time": 11.5272727,
                "pitch": 84,
                "velocity": 4,
                "duration": 0.0840909,
                "tempo": 120.0
            },
            {
                "start_time": 11.5272727,
                "end_time": 11.5931818,
                "pitch": 86,
                "velocity": 4,
                "duration": 0.0659091,
                "tempo": 120.0
            },
            {
                "start_time": 11.5931818,
                "end_time": 11.6113636,
                "pitch": 88,
                "velocity": 4,
                "duration": 0.0181818,
                "tempo": 120.0
            },
            {
                "start_time": 11.6113636,
                "end_time": 11.6772727,
                "pitch": 88,
                "velocity": 4,
                "duration": 0.0659091,
                "tempo": 120.0
            },
            {
                "start_time": 9.8909091,
                "end_time": 11.6954545,
                "pitch": 90,
                "velocity": 4,
                "duration": 1.8045455,
                "tempo": 120.0
            },
            {
                "start_time": 11.6772727,
                "end_time": 11.6954545,
                "pitch": 90,
                "velocity": 4,
                "duration": 0.0181818,
                "tempo": 120.0
            },
            {
                "start_time": 11.6954545,
                "end_time": 11.7636364,
                "pitch": 89,
                "velocity": 4,
                "duration": 0.0681818,
                "tempo": 120.0
            },
            {
                "start_time": 11.175,
                "end_time": 11.9068182,
                "pitch": 91,
                "velocity": 4,
                "duration": 0.7318182,
                "tempo": 120.0
            },
            {
                "start_time": 11.7636364,
                "end_time": 11.9068182,
                "pitch": 91,
                "velocity": 4,
                "duration": 0.1431818,
                "tempo": 120.0
            },
            {
                "start_time": 11.7636364,
                "end_time": 11.9068182,
                "pitch": 103,
                "velocity": 4,
                "duration": 0.1431818,
                "tempo": 120.0
            },
            {
                "start_time": 11.9068182,
                "end_time": 12.0477273,
                "pitch": 91,
                "velocity": 4,
                "duration": 0.1409091,
                "tempo": 120.0
            },
            {
                "start_time": 11.9068182,
                "end_time": 12.0477273,
                "pitch": 103,
                "velocity": 4,
                "duration": 0.1409091,
                "tempo": 120.0
            },
            {
                "start_time": 12.0477273,
                "end_time": 12.1886364,
                "pitch": 91,
                "velocity": 4,
                "duration": 0.1409091,
                "tempo": 120.0
            },
            {
                "start_time": 12.0477273,
                "end_time": 12.1886364,
                "pitch": 103,
                "velocity": 4,
                "duration": 0.1409091,
                "tempo": 120.0
            }
        ],
        "Vibraphone": [
            {
                "start_time": 0.0045455,
                "end_time": 0.0659091,
                "pitch": 79,
                "velocity": 4,
                "duration": 0.0613636,
                "tempo": 120.0
            },
            {
                "start_time": 0.0659091,
                "end_time": 0.2,
                "pitch": 79,
                "velocity": 4,
                "duration": 0.1340909,
                "tempo": 120.0
            },
            {
                "start_time": 0.0659091,
                "end_time": 0.2,
                "pitch": 91,
                "velocity": 4,
                "duration": 0.1340909,
                "tempo": 120.0
            },
            {
                "start_time": 0.2,
                "end_time": 0.3340909,
                "pitch": 79,
                "velocity": 4,
                "duration": 0.1340909,
                "tempo": 120.0
            },
            {
                "start_time": 0.2,
                "end_time": 0.3340909,
                "pitch": 91,
                "velocity": 4,
                "duration": 0.1340909,
                "tempo": 120.0
            },
            {
                "start_time": 0.3340909,
                "end_time": 0.4681818,
                "pitch": 79,
                "velocity": 4,
                "duration": 0.1340909,
                "tempo": 120.0
            },
            {
                "start_time": 0.3340909,
                "end_time": 0.4681818,
                "pitch": 91,
                "velocity": 4,
                "duration": 0.1340909,
                "tempo": 120.0
            },
            {
                "start_time": 0.4681818,
                "end_time": 0.5181818,
                "pitch": 79,
                "velocity": 4,
                "duration": 0.05,
                "tempo": 120.0
            },
            {
                "start_time": 1.0318182,
                "end_time": 1.5454545,
                "pitch": 78,
                "velocity": 4,
                "duration": 0.5136364,
                "tempo": 120.0
            },
            {
                "start_time": 1.5454545,
                "end_time": 2.0454545,
                "pitch": 78,
                "velocity": 4,
                "duration": 0.5,
                "tempo": 120.0
            },
            {
                "start_time": 2.0454545,
                "end_time": 2.0477273,
                "pitch": 78,
                "velocity": 4,
                "duration": 0.0022727,
                "tempo": 120.0
            },
            {
                "start_time": 2.0477273,
                "end_time": 2.2977273,
                "pitch": 76,
                "velocity": 4,
                "duration": 0.25,
                "tempo": 120.0
            },
            {
                "start_time": 2.2977273,
                "end_time": 2.7977273,
                "pitch": 76,
                "velocity": 4,
                "duration": 0.5,
                "tempo": 120.0
            },
            {
                "start_time": 1.0318182,
                "end_time": 4.05,
                "pitch": 67,
                "velocity": 4,
                "duration": 3.0181818,
                "tempo": 120.0
            },
            {
                "start_time": 2.7977273,
                "end_time": 4.05,
                "pitch": 74,
                "velocity": 4,
                "duration": 1.2522727,
                "tempo": 120.0
            },
            {
                "start_time": 4.05,
                "end_time": 4.1136364,
                "pitch": 79,
                "velocity": 4,
                "duration": 0.0636364,
                "tempo": 120.0
            },
            {
                "start_time": 0.4681818,
                "end_time": 4.1136364,
                "pitch": 91,
                "velocity": 4,
                "duration": 3.6454545,
                "tempo": 120.0
            },
            {
                "start_time": 4.1136364,
                "end_time": 4.2477273,
                "pitch": 79,
                "velocity": 4,
                "duration": 0.1340909,
                "tempo": 120.0
            },
            {
                "start_time": 4.1136364,
                "end_time": 4.2477273,
                "pitch": 91,
                "velocity": 4,
                "duration": 0.1340909,
                "tempo": 120.0
            },
            {
                "start_time": 4.2477273,
                "end_time": 4.3818182,
                "pitch": 79,
                "velocity": 4,
                "duration": 0.1340909,
                "tempo": 120.0
            },
            {
                "start_time": 4.2477273,
                "end_time": 4.3818182,
                "pitch": 91,
                "velocity": 4,
                "duration": 0.1340909,
                "tempo": 120.0
            },
            {
                "start_time": 4.3818182,
                "end_time": 4.5159091,
                "pitch": 79,
                "velocity": 4,
                "duration": 0.1340909,
                "tempo": 120.0
            },
            {
                "start_time": 4.3818182,
                "end_time": 4.5159091,
                "pitch": 91,
                "velocity": 4,
                "duration": 0.1340909,
                "tempo": 120.0
            },
            {
                "start_time": 4.5159091,
                "end_time": 4.5659091,
                "pitch": 79,
                "velocity": 4,
                "duration": 0.05,
                "tempo": 120.0
            },
            {
                "start_time": 4.05,
                "end_time": 5.0795455,
                "pitch": 67,
                "velocity": 4,
                "duration": 1.0295455,
                "tempo": 120.0
            },
            {
                "start_time": 5.0795455,
                "end_time": 5.5931818,
                "pitch": 78,
                "velocity": 4,
                "duration": 0.5136364,
                "tempo": 120.0
            },
            {
                "start_time": 5.5931818,
                "end_time": 6.0954545,
                "pitch": 78,
                "velocity": 4,
                "duration": 0.5022727,
                "tempo": 120.0
            },
            {
                "start_time": 2.7977273,
                "end_time": 6.3454545,
                "pitch": 76,
                "velocity": 4,
                "duration": 3.5477273,
                "tempo": 120.0
            },
            {
                "start_time": 6.0954545,
                "end_time": 6.3454545,
                "pitch": 76,
                "velocity": 4,
                "duration": 0.25,
                "tempo": 120.0
            },
            {
                "start_time": 6.3454545,
                "end_time": 6.8454545,
                "pitch": 76,
                "velocity": 4,
                "duration": 0.5,
                "tempo": 120.0
            },
            {
                "start_time": 6.8454545,
                "end_time": 8.0977273,
                "pitch": 74,
                "velocity": 4,
                "duration": 1.2522727,
                "tempo": 120.0
            },
            {
                "start_time": 6.8454545,
                "end_time": 8.6022727,
                "pitch": 76,
                "velocity": 4,
                "duration": 1.7568182,
                "tempo": 120.0
            },
            {
                "start_time": 8.0977273,
                "end_time": 8.6022727,
                "pitch": 76,
                "velocity": 4,
                "duration": 0.5045455,
                "tempo": 120.0
            },
            {
                "start_time": 8.6022727,
                "end_time": 9.1204545,
                "pitch": 76,
                "velocity": 4,
                "duration": 0.5181818,
                "tempo": 120.0
            },
            {
                "start_time": 9.1204545,
                "end_time": 9.2045455,
                "pitch": 76,
                "velocity": 4,
                "duration": 0.0840909,
                "tempo": 120.0
            },
            {
                "start_time": 6.0954545,
                "end_time": 9.6409091,
                "pitch": 78,
                "velocity": 4,
                "duration": 3.5454545,
                "tempo": 120.0
            },
            {
                "start_time": 9.2045455,
                "end_time": 9.6409091,
                "pitch": 78,
                "velocity": 4,
                "duration": 0.4363636,
                "tempo": 120.0
            },
            {
                "start_time": 9.6409091,
                "end_time": 10.1431818,
                "pitch": 78,
                "velocity": 4,
                "duration": 0.5022727,
                "tempo": 120.0
            },
            {
                "start_time": 10.1431818,
                "end_time": 10.2068182,
                "pitch": 77,
                "velocity": 4,
                "duration": 0.0636364,
                "tempo": 120.0
            },
            {
                "start_time": 4.5159091,
                "end_time": 10.2068182,
                "pitch": 91,
                "velocity": 4,
                "duration": 5.6909091,
                "tempo": 120.0
            },
            {
                "start_time": 10.2068182,
                "end_time": 10.3409091,
                "pitch": 79,
                "velocity": 4,
                "duration": 0.1340909,
                "tempo": 120.0
            },
            {
                "start_time": 10.2068182,
                "end_time": 10.3409091,
                "pitch": 91,
                "velocity": 4,
                "duration": 0.1340909,
                "tempo": 120.0
            },
            {
                "start_time": 10.3409091,
                "end_time": 10.475,
                "pitch": 79,
                "velocity": 4,
                "duration": 0.1340909,
                "tempo": 120.0
            },
            {
                "start_time": 10.3409091,
                "end_time": 10.475,
                "pitch": 91,
                "velocity": 4,
                "duration": 0.1340909,
                "tempo": 120.0
            },
            {
                "start_time": 10.475,
                "end_time": 10.6090909,
                "pitch": 79,
                "velocity": 4,
                "duration": 0.1340909,
                "tempo": 120.0
            },
            {
                "start_time": 10.475,
                "end_time": 10.6090909,
                "pitch": 91,
                "velocity": 4,
                "duration": 0.1340909,
                "tempo": 120.0
            },
            {
                "start_time": 10.6090909,
                "end_time": 10.7409091,
                "pitch": 79,
                "velocity": 4,
                "duration": 0.1318182,
                "tempo": 120.0
            },
            {
                "start_time": 10.6090909,
                "end_time": 10.7409091,
                "pitch": 91,
                "velocity": 4,
                "duration": 0.1318182,
                "tempo": 120.0
            },
            {
                "start_time": 10.7409091,
                "end_time": 10.875,
                "pitch": 79,
                "velocity": 4,
                "duration": 0.1340909,
                "tempo": 120.0
            },
            {
                "start_time": 10.7409091,
                "end_time": 10.875,
                "pitch": 91,
                "velocity": 4,
                "duration": 0.1340909,
                "tempo": 120.0
            },
            {
                "start_time": 10.875,
                "end_time": 11.0090909,
                "pitch": 79,
                "velocity": 4,
                "duration": 0.1340909,
                "tempo": 120.0
            },
            {
                "start_time": 10.875,
                "end_time": 11.0090909,
                "pitch": 91,
                "velocity": 4,
                "duration": 0.1340909,
                "tempo": 120.0
            },
            {
                "start_time": 11.0090909,
                "end_time": 11.1431818,
                "pitch": 79,
                "velocity": 4,
                "duration": 0.1340909,
                "tempo": 120.0
            },
            {
                "start_time": 11.0090909,
                "end_time": 11.1431818,
                "pitch": 91,
                "velocity": 4,
                "duration": 0.1340909,
                "tempo": 120.0
            },
            {
                "start_time": 11.1431818,
                "end_time": 11.2772727,
                "pitch": 79,
                "velocity": 4,
                "duration": 0.1340909,
                "tempo": 120.0
            },
            {
                "start_time": 11.1431818,
                "end_time": 11.2772727,
                "pitch": 91,
                "velocity": 4,
                "duration": 0.1340909,
                "tempo": 120.0
            },
            {
                "start_time": 11.2772727,
                "end_time": 11.4090909,
                "pitch": 79,
                "velocity": 4,
                "duration": 0.1318182,
                "tempo": 120.0
            },
            {
                "start_time": 11.2772727,
                "end_time": 11.4090909,
                "pitch": 91,
                "velocity": 4,
                "duration": 0.1318182,
                "tempo": 120.0
            },
            {
                "start_time": 11.4090909,
                "end_time": 11.5431818,
                "pitch": 79,
                "velocity": 4,
                "duration": 0.1340909,
                "tempo": 120.0
            },
            {
                "start_time": 11.4090909,
                "end_time": 11.5431818,
                "pitch": 91,
                "velocity": 4,
                "duration": 0.1340909,
                "tempo": 120.0
            },
            {
                "start_time": 11.5431818,
                "end_time": 11.6772727,
                "pitch": 79,
                "velocity": 4,
                "duration": 0.1340909,
                "tempo": 120.0
            },
            {
                "start_time": 11.5431818,
                "end_time": 11.6772727,
                "pitch": 91,
                "velocity": 4,
                "duration": 0.1340909,
                "tempo": 120.0
            },
            {
                "start_time": 11.6772727,
                "end_time": 11.8181818,
                "pitch": 79,
                "velocity": 4,
                "duration": 0.1409091,
                "tempo": 120.0
            },
            {
                "start_time": 11.6772727,
                "end_time": 11.8181818,
                "pitch": 91,
                "velocity": 4,
                "duration": 0.1409091,
                "tempo": 120.0
            },
            {
                "start_time": 11.8181818,
                "end_time": 11.9590909,
                "pitch": 79,
                "velocity": 4,
                "duration": 0.1409091,
                "tempo": 120.0
            },
            {
                "start_time": 11.8181818,
                "end_time": 11.9590909,
                "pitch": 91,
                "velocity": 4,
                "duration": 0.1409091,
                "tempo": 120.0
            },
            {
                "start_time": 11.9590909,
                "end_time": 12.1022727,
                "pitch": 79,
                "velocity": 4,
                "duration": 0.1431818,
                "tempo": 120.0
            },
            {
                "start_time": 11.9590909,
                "end_time": 12.1022727,
                "pitch": 91,
                "velocity": 4,
                "duration": 0.1431818,
                "tempo": 120.0
            }
        ],
        "Flute": [
            {
                "start_time": 0.0045455,
                "end_time": 0.0659091,
                "pitch": 67,
                "velocity": 4,
                "duration": 0.0613636,
                "tempo": 120.0
            },
            {
                "start_time": 0.0659091,
                "end_time": 0.2,
                "pitch": 67,
                "velocity": 4,
                "duration": 0.1340909,
                "tempo": 120.0
            },
            {
                "start_time": 0.0659091,
                "end_time": 0.2,
                "pitch": 79,
                "velocity": 4,
                "duration": 0.1340909,
                "tempo": 120.0
            },
            {
                "start_time": 0.2,
                "end_time": 0.2681818,
                "pitch": 67,
                "velocity": 4,
                "duration": 0.0681818,
                "tempo": 120.0
            },
            {
                "start_time": 0.2681818,
                "end_time": 0.5181818,
                "pitch": 62,
                "velocity": 4,
                "duration": 0.25,
                "tempo": 120.0
            },
            {
                "start_time": 0.5181818,
                "end_time": 0.775,
                "pitch": 59,
                "velocity": 4,
                "duration": 0.2568182,
                "tempo": 120.0
            },
            {
                "start_time": 0.2681818,
                "end_time": 0.8431818,
                "pitch": 55,
                "velocity": 4,
                "duration": 0.575,
                "tempo": 120.0
            },
            {
                "start_time": 0.775,
                "end_time": 0.8431818,
                "pitch": 55,
                "velocity": 4,
                "duration": 0.0681818,
                "tempo": 120.0
            },
            {
                "start_time": 0.0045455,
                "end_time": 0.9113636,
                "pitch": 0,
                "velocity": 4,
                "duration": 0.9068182,
                "tempo": 120.0
            },
            {
                "start_time": 0.8431818,
                "end_time": 0.9113636,
                "pitch": 55,
                "velocity": 4,
                "duration": 0.0681818,
                "tempo": 120.0
            },
            {
                "start_time": 0.9113636,
                "end_time": 0.9795455,
                "pitch": 55,
                "velocity": 4,
                "duration": 0.0681818,
                "tempo": 120.0
            },
            {
                "start_time": 0.8431818,
                "end_time": 0.9795455,
                "pitch": 67,
                "velocity": 4,
                "duration": 0.1363636,
                "tempo": 120.0
            },
            {
                "start_time": 0.9795455,
                "end_time": 1.0318182,
                "pitch": 55,
                "velocity": 4,
                "duration": 0.0522727,
                "tempo": 120.0
            },
            {
                "start_time": 0.5181818,
                "end_time": 1.5454545,
                "pitch": 62,
                "velocity": 4,
                "duration": 1.0272727,
                "tempo": 120.0
            },
            {
                "start_time": 1.2886364,
                "end_time": 1.5454545,
                "pitch": 62,
                "velocity": 4,
                "duration": 0.2568182,
                "tempo": 120.0
            },
            {
                "start_time": 0.775,
                "end_time": 1.7954545,
                "pitch": 32,
                "velocity": 4,
                "duration": 1.0204545,
                "tempo": 120.0
            },
            {
                "start_time": 1.5454545,
                "end_time": 1.7954545,
                "pitch": 59,
                "velocity": 4,
                "duration": 0.25,
                "tempo": 120.0
            },
            {
                "start_time": 1.2886364,
                "end_time": 1.8613636,
                "pitch": 55,
                "velocity": 4,
                "duration": 0.5727273,
                "tempo": 120.0
            },
            {
                "start_time": 1.7954545,
                "end_time": 1.8613636,
                "pitch": 55,
                "velocity": 4,
                "duration": 0.0659091,
                "tempo": 120.0
            },
            {
                "start_time": 0.9795455,
                "end_time": 1.8613636,
                "pitch": 67,
                "velocity": 4,
                "duration": 0.8818182,
                "tempo": 120.0
            },
            {
                "start_time": 0.9113636,
                "end_time": 1.9272727,
                "pitch": 0,
                "velocity": 4,
                "duration": 1.0159091,
                "tempo": 120.0
            },
            {
                "start_time": 1.8613636,
                "end_time": 1.9272727,
                "pitch": 55,
                "velocity": 4,
                "duration": 0.0659091,
                "tempo": 120.0
            },
            {
                "start_time": 1.9272727,
                "end_time": 1.9954545,
                "pitch": 55,
                "velocity": 4,
                "duration": 0.0681818,
                "tempo": 120.0
            },
            {
                "start_time": 1.8613636,
                "end_time": 1.9954545,
                "pitch": 67,
                "velocity": 4,
                "duration": 0.1340909,
                "tempo": 120.0
            },
            {
                "start_time": 1.9954545,
                "end_time": 2.0477273,
                "pitch": 55,
                "velocity": 4,
                "duration": 0.0522727,
                "tempo": 120.0
            },
            {
                "start_time": 2.0477273,
                "end_time": 2.2977273,
                "pitch": 64,
                "velocity": 4,
                "duration": 0.25,
                "tempo": 120.0
            },
            {
                "start_time": 2.2977273,
                "end_time": 2.5477273,
                "pitch": 60,
                "velocity": 4,
                "duration": 0.25,
                "tempo": 120.0
            },
            {
                "start_time": 2.0477273,
                "end_time": 2.6113636,
                "pitch": 55,
                "velocity": 4,
                "duration": 0.5636364,
                "tempo": 120.0
            },
            {
                "start_time": 2.5477273,
                "end_time": 2.6113636,
                "pitch": 55,
                "velocity": 4,
                "duration": 0.0636364,
                "tempo": 120.0
            },
            {
                "start_time": 1.9954545,
                "end_time": 2.6113636,
                "pitch": 67,
                "velocity": 4,
                "duration": 0.6159091,
                "tempo": 120.0
            },
            {
                "start_time": 1.9272727,
                "end_time": 2.6795455,
                "pitch": 0,
                "velocity": 4,
                "duration": 0.7522727,
                "tempo": 120.0
            },
            {
                "start_time": 2.6113636,
                "end_time": 2.6795455,
                "pitch": 55,
                "velocity": 4,
                "duration": 0.0681818,
                "tempo": 120.0
            },
            {
                "start_time": 2.6795455,
                "end_time": 2.7454545,
                "pitch": 55,
                "velocity": 4,
                "duration": 0.0659091,
                "tempo": 120.0
            },
            {
                "start_time": 2.6113636,
                "end_time": 2.7454545,
                "pitch": 67,
                "velocity": 4,
                "duration": 0.1340909,
                "tempo": 120.0
            },
            {
                "start_time": 2.7454545,
                "end_time": 2.7977273,
                "pitch": 55,
                "velocity": 4,
                "duration": 0.0522727,
                "tempo": 120.0
            },
            {
                "start_time": 1.5454545,
                "end_time": 3.2977273,
                "pitch": 62,
                "velocity": 4,
                "duration": 1.7522727,
                "tempo": 120.0
            },
            {
                "start_time": 2.7977273,
                "end_time": 3.2977273,
                "pitch": 62,
                "velocity": 4,
                "duration": 0.5,
                "tempo": 120.0
            },
            {
                "start_time": 3.2977273,
                "end_time": 3.5477273,
                "pitch": 62,
                "velocity": 4,
                "duration": 0.25,
                "tempo": 120.0
            },
            {
                "start_time": 3.5477273,
                "end_time": 3.6295455,
                "pitch": 62,
                "velocity": 4,
                "duration": 0.0818182,
                "tempo": 120.0
            },
            {
                "start_time": 2.2977273,
                "end_time": 3.7977273,
                "pitch": 64,
                "velocity": 4,
                "duration": 1.5,
                "tempo": 120.0
            },
            {
                "start_time": 3.6295455,
                "end_time": 3.7977273,
                "pitch": 64,
                "velocity": 4,
                "duration": 0.1681818,
                "tempo": 120.0
            },
            {
                "start_time": 3.7977273,
                "end_time": 4.05,
                "pitch": 64,
                "velocity": 4,
                "duration": 0.2522727,
                "tempo": 120.0
            },
            {
                "start_time": 4.05,
                "end_time": 4.1136364,
                "pitch": 65,
                "velocity": 4,
                "duration": 0.0636364,
                "tempo": 120.0
            },
            {
                "start_time": 0.2,
                "end_time": 4.1136364,
                "pitch": 79,
                "velocity": 4,
                "duration": 3.9136364,
                "tempo": 120.0
            },
            {
                "start_time": 2.7454545,
                "end_time": 4.2477273,
                "pitch": 67,
                "velocity": 4,
                "duration": 1.5022727,
                "tempo": 120.0
            },
            {
                "start_time": 4.1136364,
                "end_time": 4.2477273,
                "pitch": 67,
                "velocity": 4,
                "duration": 0.1340909,
                "tempo": 120.0
            },
            {
                "start_time": 4.1136364,
                "end_time": 4.2477273,
                "pitch": 79,
                "velocity": 4,
                "duration": 0.1340909,
                "tempo": 120.0
            },
            {
                "start_time": 2.7977273,
                "end_time": 4.2977273,
                "pitch": 55,
                "velocity": 4,
                "duration": 1.5,
                "tempo": 120.0
            },
            {
                "start_time": 4.2477273,
                "end_time": 4.2977273,
                "pitch": 67,
                "velocity": 4,
                "duration": 0.05,
                "tempo": 120.0
            },
            {
                "start_time": 4.2977273,
                "end_time": 4.5659091,
                "pitch": 62,
                "velocity": 4,
                "duration": 0.2681818,
                "tempo": 120.0
            },
            {
                "start_time": 1.7954545,
                "end_time": 4.8227273,
                "pitch": 32,
                "velocity": 4,
                "duration": 3.0272727,
                "tempo": 120.0
            },
            {
                "start_time": 4.5659091,
                "end_time": 4.8227273,
                "pitch": 59,
                "velocity": 4,
                "duration": 0.2568182,
                "tempo": 120.0
            },
            {
                "start_time": 4.2977273,
                "end_time": 4.8909091,
                "pitch": 55,
                "velocity": 4,
                "duration": 0.5931818,
                "tempo": 120.0
            },
            {
                "start_time": 4.8227273,
                "end_time": 4.8909091,
                "pitch": 55,
                "velocity": 4,
                "duration": 0.0681818,
                "tempo": 120.0
            },
            {
                "start_time": 2.6795455,
                "end_time": 4.9590909,
                "pitch": 0,
                "velocity": 4,
                "duration": 2.2795455,
                "tempo": 120.0
            },
            {
                "start_time": 4.8909091,
                "end_time": 4.9590909,
                "pitch": 55,
                "velocity": 4,
                "duration": 0.0681818,
                "tempo": 120.0
            },
            {
                "start_time": 4.9590909,
                "end_time": 5.0272727,
                "pitch": 55,
                "velocity": 4,
                "duration": 0.0681818,
                "tempo": 120.0
            },
            {
                "start_time": 4.8909091,
                "end_time": 5.0272727,
                "pitch": 67,
                "velocity": 4,
                "duration": 0.1363636,
                "tempo": 120.0
            },
            {
                "start_time": 5.0272727,
                "end_time": 5.0795455,
                "pitch": 55,
                "velocity": 4,
                "duration": 0.0522727,
                "tempo": 120.0
            },
            {
                "start_time": 4.5659091,
                "end_time": 5.5931818,
                "pitch": 62,
                "velocity": 4,
                "duration": 1.0272727,
                "tempo": 120.0
            },
            {
                "start_time": 5.3363636,
                "end_time": 5.5931818,
                "pitch": 62,
                "velocity": 4,
                "duration": 0.2568182,
                "tempo": 120.0
            },
            {
                "start_time": 4.8227273,
                "end_time": 5.8431818,
                "pitch": 32,
                "velocity": 4,
                "duration": 1.0204545,
                "tempo": 120.0
            },
            {
                "start_time": 5.5931818,
                "end_time": 5.8431818,
                "pitch": 59,
                "velocity": 4,
                "duration": 0.25,
                "tempo": 120.0
            },
            {
                "start_time": 5.3363636,
                "end_time": 5.9090909,
                "pitch": 55,
                "velocity": 4,
                "duration": 0.5727273,
                "tempo": 120.0
            },
            {
                "start_time": 5.8431818,
                "end_time": 5.9090909,
                "pitch": 55,
                "velocity": 4,
                "duration": 0.0659091,
                "tempo": 120.0
            },
            {
                "start_time": 5.0272727,
                "end_time": 5.9090909,
                "pitch": 67,
                "velocity": 4,
                "duration": 0.8818182,
                "tempo": 120.0
            },
            {
                "start_time": 4.9590909,
                "end_time": 5.9772727,
                "pitch": 0,
                "velocity": 4,
                "duration": 1.0181818,
                "tempo": 120.0
            },
            {
                "start_time": 5.9090909,
                "end_time": 5.9772727,
                "pitch": 55,
                "velocity": 4,
                "duration": 0.0681818,
                "tempo": 120.0
            },
            {
                "start_time": 5.9772727,
                "end_time": 6.0431818,
                "pitch": 55,
                "velocity": 4,
                "duration": 0.0659091,
                "tempo": 120.0
            },
            {
                "start_time": 5.9090909,
                "end_time": 6.0431818,
                "pitch": 67,
                "velocity": 4,
                "duration": 0.1340909,
                "tempo": 120.0
            },
            {
                "start_time": 6.0431818,
                "end_time": 6.0954545,
                "pitch": 55,
                "velocity": 4,
                "duration": 0.0522727,
                "tempo": 120.0
            },
            {
                "start_time": 6.0954545,
                "end_time": 6.3454545,
                "pitch": 64,
                "velocity": 4,
                "duration": 0.25,
                "tempo": 120.0
            },
            {
                "start_time": 2.5477273,
                "end_time": 6.5954545,
                "pitch": 36,
                "velocity": 4,
                "duration": 4.0477273,
                "tempo": 120.0
            },
            {
                "start_time": 6.3454545,
                "end_time": 6.5954545,
                "pitch": 60,
                "velocity": 4,
                "duration": 0.25,
                "tempo": 120.0
            },
            {
                "start_time": 6.0954545,
                "end_time": 6.6613636,
                "pitch": 55,
                "velocity": 4,
                "duration": 0.5659091,
                "tempo": 120.0
            },
            {
                "start_time": 6.5954545,
                "end_time": 6.6613636,
                "pitch": 55,
                "velocity": 4,
                "duration": 0.0659091,
                "tempo": 120.0
            },
            {
                "start_time": 6.0431818,
                "end_time": 6.6613636,
                "pitch": 67,
                "velocity": 4,
                "duration": 0.6181818,
                "tempo": 120.0
            },
            {
                "start_time": 5.9772727,
                "end_time": 6.7272727,
                "pitch": 0,
                "velocity": 4,
                "duration": 0.75,
                "tempo": 120.0
            },
            {
                "start_time": 6.6613636,
                "end_time": 6.7272727,
                "pitch": 55,
                "velocity": 4,
                "duration": 0.0659091,
                "tempo": 120.0
            },
            {
                "start_time": 6.7272727,
                "end_time": 6.7931818,
                "pitch": 55,
                "velocity": 4,
                "duration": 0.0659091,
                "tempo": 120.0
            },
            {
                "start_time": 6.6613636,
                "end_time": 6.7931818,
                "pitch": 67,
                "velocity": 4,
                "duration": 0.1318182,
                "tempo": 120.0
            },
            {
                "start_time": 6.7931818,
                "end_time": 6.8454545,
                "pitch": 55,
                "velocity": 4,
                "duration": 0.0522727,
                "tempo": 120.0
            },
            {
                "start_time": 5.5931818,
                "end_time": 7.3454545,
                "pitch": 62,
                "velocity": 4,
                "duration": 1.7522727,
                "tempo": 120.0
            },
            {
                "start_time": 6.8454545,
                "end_time": 7.3454545,
                "pitch": 62,
                "velocity": 4,
                "duration": 0.5,
                "tempo": 120.0
            },
            {
                "start_time": 7.3454545,
                "end_time": 7.5954545,
                "pitch": 62,
                "velocity": 4,
                "duration": 0.25,
                "tempo": 120.0
            },
            {
                "start_time": 7.5954545,
                "end_time": 7.6795455,
                "pitch": 62,
                "velocity": 4,
                "duration": 0.0840909,
                "tempo": 120.0
            },
            {
                "start_time": 6.3454545,
                "end_time": 7.8477273,
                "pitch": 64,
                "velocity": 4,
                "duration": 1.5022727,
                "tempo": 120.0
            },
            {
                "start_time": 7.6795455,
                "end_time": 7.8477273,
                "pitch": 64,
                "velocity": 4,
                "duration": 0.1681818,
                "tempo": 120.0
            },
            {
                "start_time": 7.8477273,
                "end_time": 8.0977273,
                "pitch": 62,
                "velocity": 4,
                "duration": 0.25,
                "tempo": 120.0
            },
            {
                "start_time": 6.5954545,
                "end_time": 8.3477273,
                "pitch": 36,
                "velocity": 4,
                "duration": 1.7522727,
                "tempo": 120.0
            },
            {
                "start_time": 8.0977273,
                "end_time": 8.3477273,
                "pitch": 60,
                "velocity": 4,
                "duration": 0.25,
                "tempo": 120.0
            },
            {
                "start_time": 6.8454545,
                "end_time": 8.4159091,
                "pitch": 55,
                "velocity": 4,
                "duration": 1.5704545,
                "tempo": 120.0
            },
            {
                "start_time": 8.3477273,
                "end_time": 8.4159091,
                "pitch": 55,
                "velocity": 4,
                "duration": 0.0681818,
                "tempo": 120.0
            },
            {
                "start_time": 6.7931818,
                "end_time": 8.4159091,
                "pitch": 67,
                "velocity": 4,
                "duration": 1.6227273,
                "tempo": 120.0
            },
            {
                "start_time": 6.7272727,
                "end_time": 8.4840909,
                "pitch": 0,
                "velocity": 4,
                "duration": 1.7568182,
                "tempo": 120.0
            },
            {
                "start_time": 8.4159091,
                "end_time": 8.4840909,
                "pitch": 55,
                "velocity": 4,
                "duration": 0.0681818,
                "tempo": 120.0
            },
            {
                "start_time": 8.4840909,
                "end_time": 8.55,
                "pitch": 55,
                "velocity": 4,
                "duration": 0.0659091,
                "tempo": 120.0
            },
            {
                "start_time": 8.4159091,
                "end_time": 8.55,
                "pitch": 67,
                "velocity": 4,
                "duration": 0.1340909,
                "tempo": 120.0
            },
            {
                "start_time": 8.55,
                "end_time": 8.6022727,
                "pitch": 55,
                "velocity": 4,
                "duration": 0.0522727,
                "tempo": 120.0
            },
            {
                "start_time": 8.6022727,
                "end_time": 8.8681818,
                "pitch": 60,
                "velocity": 4,
                "duration": 0.2659091,
                "tempo": 120.0
            },
            {
                "start_time": 7.8477273,
                "end_time": 9.1204545,
                "pitch": 64,
                "velocity": 4,
                "duration": 1.2727273,
                "tempo": 120.0
            },
            {
                "start_time": 8.8681818,
                "end_time": 9.1204545,
                "pitch": 64,
                "velocity": 4,
                "duration": 0.2522727,
                "tempo": 120.0
            },
            {
                "start_time": 9.1204545,
                "end_time": 9.3795455,
                "pitch": 64,
                "velocity": 4,
                "duration": 0.2590909,
                "tempo": 120.0
            },
            {
                "start_time": 8.0977273,
                "end_time": 9.6409091,
                "pitch": 62,
                "velocity": 4,
                "duration": 1.5431818,
                "tempo": 120.0
            },
            {
                "start_time": 9.3795455,
                "end_time": 9.6409091,
                "pitch": 62,
                "velocity": 4,
                "duration": 0.2613636,
                "tempo": 120.0
            },
            {
                "start_time": 9.3795455,
                "end_time": 9.8909091,
                "pitch": 66,
                "velocity": 4,
                "duration": 0.5113636,
                "tempo": 120.0
            },
            {
                "start_time": 9.6409091,
                "end_time": 9.8909091,
                "pitch": 66,
                "velocity": 4,
                "duration": 0.25,
                "tempo": 120.0
            },
            {
                "start_time": 9.8909091,
                "end_time": 10.1431818,
                "pitch": 69,
                "velocity": 4,
                "duration": 0.2522727,
                "tempo": 120.0
            },
            {
                "start_time": 8.55,
                "end_time": 10.2068182,
                "pitch": 67,
                "velocity": 4,
                "duration": 1.6568182,
                "tempo": 120.0
            },
            {
                "start_time": 10.1431818,
                "end_time": 10.2068182,
                "pitch": 67,
                "velocity": 4,
                "duration": 0.0636364,
                "tempo": 120.0
            },
            {
                "start_time": 4.2477273,
                "end_time": 10.2090909,
                "pitch": 79,
                "velocity": 4,
                "duration": 5.9613636,
                "tempo": 120.0
            },
            {
                "start_time": 10.2068182,
                "end_time": 10.2090909,
                "pitch": 79,
                "velocity": 4,
                "duration": 0.0022727,
                "tempo": 120.0
            },
            {
                "start_time": 10.2090909,
                "end_time": 10.2590909,
                "pitch": 67,
                "velocity": 4,
                "duration": 0.05,
                "tempo": 120.0
            },
            {
                "start_time": 8.6022727,
                "end_time": 10.475,
                "pitch": 55,
                "velocity": 4,
                "duration": 1.8727273,
                "tempo": 120.0
            },
            {
                "start_time": 10.3931818,
                "end_time": 10.475,
                "pitch": 55,
                "velocity": 4,
                "duration": 0.0818182,
                "tempo": 120.0
            },
            {
                "start_time": 10.475,
                "end_time": 10.5090909,
                "pitch": 57,
                "velocity": 4,
                "duration": 0.0340909,
                "tempo": 120.0
            },
            {
                "start_time": 10.5090909,
                "end_time": 10.5909091,
                "pitch": 57,
                "velocity": 4,
                "duration": 0.0818182,
                "tempo": 120.0
            },
            {
                "start_time": 10.5909091,
                "end_time": 10.6431818,
                "pitch": 59,
                "velocity": 4,
                "duration": 0.0522727,
                "tempo": 120.0
            },
            {
                "start_time": 10.6431818,
                "end_time": 10.7590909,
                "pitch": 59,
                "velocity": 4,
                "duration": 0.1159091,
                "tempo": 120.0
            },
            {
                "start_time": 8.8681818,
                "end_time": 10.8931818,
                "pitch": 60,
                "velocity": 4,
                "duration": 2.025,
                "tempo": 120.0
            },
            {
                "start_time": 10.7590909,
                "end_time": 10.8931818,
                "pitch": 60,
                "velocity": 4,
                "duration": 0.1340909,
                "tempo": 120.0
            },
            {
                "start_time": 9.6409091,
                "end_time": 10.9590909,
                "pitch": 62,
                "velocity": 4,
                "duration": 1.3181818,
                "tempo": 120.0
            },
            {
                "start_time": 10.8931818,
                "end_time": 10.9590909,
                "pitch": 62,
                "velocity": 4,
                "duration": 0.0659091,
                "tempo": 120.0
            },
            {
                "start_time": 10.9590909,
                "end_time": 11.0272727,
                "pitch": 64,
                "velocity": 4,
                "duration": 0.0681818,
                "tempo": 120.0
            },
            {
                "start_time": 11.0272727,
                "end_time": 11.0931818,
                "pitch": 64,
                "velocity": 4,
                "duration": 0.0659091,
                "tempo": 120.0
            },
            {
                "start_time": 11.0931818,
                "end_time": 11.1090909,
                "pitch": 66,
                "velocity": 4,
                "duration": 0.0159091,
                "tempo": 120.0
            },
            {
                "start_time": 11.1090909,
                "end_time": 11.175,
                "pitch": 65,
                "velocity": 4,
                "duration": 0.0659091,
                "tempo": 120.0
            },
            {
                "start_time": 11.175,
                "end_time": 11.1931818,
                "pitch": 67,
                "velocity": 4,
                "duration": 0.0181818,
                "tempo": 120.0
            },
            {
                "start_time": 11.1931818,
                "end_time": 11.2772727,
                "pitch": 67,
                "velocity": 4,
                "duration": 0.0840909,
                "tempo": 120.0
            },
            {
                "start_time": 11.2772727,
                "end_time": 11.3590909,
                "pitch": 69,
                "velocity": 4,
                "duration": 0.0818182,
                "tempo": 120.0
            },
            {
                "start_time": 11.3590909,
                "end_time": 11.4431818,
                "pitch": 71,
                "velocity": 4,
                "duration": 0.0840909,
                "tempo": 120.0
            },
            {
                "start_time": 11.4431818,
                "end_time": 11.5272727,
                "pitch": 72,
                "velocity": 4,
                "duration": 0.0840909,
                "tempo": 120.0
            },
            {
                "start_time": 11.5272727,
                "end_time": 11.5931818,
                "pitch": 74,
                "velocity": 4,
                "duration": 0.0659091,
                "tempo": 120.0
            },
            {
                "start_time": 11.5931818,
                "end_time": 11.6113636,
                "pitch": 76,
                "velocity": 4,
                "duration": 0.0181818,
                "tempo": 120.0
            },
            {
                "start_time": 11.6113636,
                "end_time": 11.6772727,
                "pitch": 76,
                "velocity": 4,
                "duration": 0.0659091,
                "tempo": 120.0
            },
            {
                "start_time": 9.8909091,
                "end_time": 11.6954545,
                "pitch": 78,
                "velocity": 4,
                "duration": 1.8045455,
                "tempo": 120.0
            },
            {
                "start_time": 11.6772727,
                "end_time": 11.6954545,
                "pitch": 78,
                "velocity": 4,
                "duration": 0.0181818,
                "tempo": 120.0
            },
            {
                "start_time": 11.6954545,
                "end_time": 11.7636364,
                "pitch": 77,
                "velocity": 4,
                "duration": 0.0681818,
                "tempo": 120.0
            },
            {
                "start_time": 11.175,
                "end_time": 11.9068182,
                "pitch": 79,
                "velocity": 4,
                "duration": 0.7318182,
                "tempo": 120.0
            },
            {
                "start_time": 11.7636364,
                "end_time": 11.9068182,
                "pitch": 79,
                "velocity": 4,
                "duration": 0.1431818,
                "tempo": 120.0
            },
            {
                "start_time": 11.7636364,
                "end_time": 11.9068182,
                "pitch": 91,
                "velocity": 4,
                "duration": 0.1431818,
                "tempo": 120.0
            },
            {
                "start_time": 11.9068182,
                "end_time": 12.0477273,
                "pitch": 79,
                "velocity": 4,
                "duration": 0.1409091,
                "tempo": 120.0
            },
            {
                "start_time": 11.9068182,
                "end_time": 12.0477273,
                "pitch": 91,
                "velocity": 4,
                "duration": 0.1409091,
                "tempo": 120.0
            },
            {
                "start_time": 12.0477273,
                "end_time": 12.1886364,
                "pitch": 79,
                "velocity": 4,
                "duration": 0.1409091,
                "tempo": 120.0
            },
            {
                "start_time": 12.0477273,
                "end_time": 12.1886364,
                "pitch": 91,
                "velocity": 4,
                "duration": 0.1409091,
                "tempo": 120.0
            }
        ],
        "Acoustic Bass": [
            {
                "start_time": 0.0045455,
                "end_time": 0.0659091,
                "pitch": 43,
                "velocity": 64,
                "duration": 0.0613636,
                "tempo": 120.0
            },
            {
                "start_time": 0.0045455,
                "end_time": 0.1340909,
                "pitch": 0,
                "velocity": 64,
                "duration": 0.1295455,
                "tempo": 120.0
            },
            {
                "start_time": 0.0659091,
                "end_time": 0.1340909,
                "pitch": 43,
                "velocity": 64,
                "duration": 0.0681818,
                "tempo": 120.0
            },
            {
                "start_time": 0.1340909,
                "end_time": 0.2,
                "pitch": 43,
                "velocity": 64,
                "duration": 0.0659091,
                "tempo": 120.0
            },
            {
                "start_time": 0.0659091,
                "end_time": 0.2,
                "pitch": 55,
                "velocity": 64,
                "duration": 0.1340909,
                "tempo": 120.0
            },
            {
                "start_time": 0.1340909,
                "end_time": 0.2681818,
                "pitch": 0,
                "velocity": 64,
                "duration": 0.1340909,
                "tempo": 120.0
            },
            {
                "start_time": 0.2,
                "end_time": 0.2681818,
                "pitch": 43,
                "velocity": 64,
                "duration": 0.0681818,
                "tempo": 120.0
            },
            {
                "start_time": 0.2681818,
                "end_time": 0.3340909,
                "pitch": 43,
                "velocity": 64,
                "duration": 0.0659091,
                "tempo": 120.0
            },
            {
                "start_time": 0.2,
                "end_time": 0.3340909,
                "pitch": 55,
                "velocity": 64,
                "duration": 0.1340909,
                "tempo": 120.0
            },
            {
                "start_time": 0.2681818,
                "end_time": 0.4,
                "pitch": 0,
                "velocity": 64,
                "duration": 0.1318182,
                "tempo": 120.0
            },
            {
                "start_time": 0.3340909,
                "end_time": 0.4,
                "pitch": 43,
                "velocity": 64,
                "duration": 0.0659091,
                "tempo": 120.0
            },
            {
                "start_time": 0.4,
                "end_time": 0.4681818,
                "pitch": 43,
                "velocity": 64,
                "duration": 0.0681818,
                "tempo": 120.0
            },
            {
                "start_time": 0.3340909,
                "end_time": 0.4681818,
                "pitch": 55,
                "velocity": 64,
                "duration": 0.1340909,
                "tempo": 120.0
            },
            {
                "start_time": 0.4,
                "end_time": 0.5181818,
                "pitch": 0,
                "velocity": 64,
                "duration": 0.1181818,
                "tempo": 120.0
            },
            {
                "start_time": 0.4681818,
                "end_time": 0.5181818,
                "pitch": 43,
                "velocity": 64,
                "duration": 0.05,
                "tempo": 120.0
            },
            {
                "start_time": 0.5181818,
                "end_time": 0.5863636,
                "pitch": 31,
                "velocity": 64,
                "duration": 0.0681818,
                "tempo": 120.0
            },
            {
                "start_time": 0.5181818,
                "end_time": 0.6545455,
                "pitch": 0,
                "velocity": 64,
                "duration": 0.1363636,
                "tempo": 120.0
            },
            {
                "start_time": 0.5863636,
                "end_time": 0.6545455,
                "pitch": 31,
                "velocity": 64,
                "duration": 0.0681818,
                "tempo": 120.0
            },
            {
                "start_time": 0.6545455,
                "end_time": 0.7227273,
                "pitch": 31,
                "velocity": 64,
                "duration": 0.0681818,
                "tempo": 120.0
            },
            {
                "start_time": 0.5863636,
                "end_time": 0.7227273,
                "pitch": 43,
                "velocity": 64,
                "duration": 0.1363636,
                "tempo": 120.0
            },
            {
                "start_time": 0.6545455,
                "end_time": 0.775,
                "pitch": 0,
                "velocity": 64,
                "duration": 0.1204545,
                "tempo": 120.0
            },
            {
                "start_time": 0.7227273,
                "end_time": 0.775,
                "pitch": 31,
                "velocity": 64,
                "duration": 0.0522727,
                "tempo": 120.0
            },
            {
                "start_time": 0.7227273,
                "end_time": 0.8431818,
                "pitch": 43,
                "velocity": 64,
                "duration": 0.1204545,
                "tempo": 120.0
            },
            {
                "start_time": 0.775,
                "end_time": 0.8431818,
                "pitch": 43,
                "velocity": 64,
                "duration": 0.0681818,
                "tempo": 120.0
            },
            {
                "start_time": 0.4681818,
                "end_time": 0.8431818,
                "pitch": 55,
                "velocity": 64,
                "duration": 0.375,
                "tempo": 120.0
            },
            {
                "start_time": 0.775,
                "end_time": 0.9113636,
                "pitch": 0,
                "velocity": 64,
                "duration": 0.1363636,
                "tempo": 120.0
            },
            {
                "start_time": 0.8431818,
                "end_time": 0.9113636,
                "pitch": 43,
                "velocity": 64,
                "duration": 0.0681818,
                "tempo": 120.0
            },
            {
                "start_time": 0.9113636,
                "end_time": 0.9795455,
                "pitch": 43,
                "velocity": 64,
                "duration": 0.0681818,
                "tempo": 120.0
            },
            {
                "start_time": 0.8431818,
                "end_time": 0.9795455,
                "pitch": 55,
                "velocity": 64,
                "duration": 0.1363636,
                "tempo": 120.0
            },
            {
                "start_time": 0.9795455,
                "end_time": 1.0318182,
                "pitch": 43,
                "velocity": 64,
                "duration": 0.0522727,
                "tempo": 120.0
            },
            {
                "start_time": 1.0318182,
                "end_time": 1.5454545,
                "pitch": 42,
                "velocity": 64,
                "duration": 0.5136364,
                "tempo": 120.0
            },
            {
                "start_time": 1.5454545,
                "end_time": 1.7954545,
                "pitch": 30,
                "velocity": 64,
                "duration": 0.25,
                "tempo": 120.0
            },
            {
                "start_time": 1.7954545,
                "end_time": 2.0477273,
                "pitch": 42,
                "velocity": 64,
                "duration": 0.2522727,
                "tempo": 120.0
            },
            {
                "start_time": 2.0477273,
                "end_time": 2.0613636,
                "pitch": 42,
                "velocity": 64,
                "duration": 0.0136364,
                "tempo": 120.0
            },
            {
                "start_time": 2.0613636,
                "end_time": 2.2977273,
                "pitch": 40,
                "velocity": 64,
                "duration": 0.2363636,
                "tempo": 120.0
            },
            {
                "start_time": 2.2977273,
                "end_time": 2.5477273,
                "pitch": 38,
                "velocity": 64,
                "duration": 0.25,
                "tempo": 120.0
            },
            {
                "start_time": 1.0318182,
                "end_time": 2.6136364,
                "pitch": 31,
                "velocity": 64,
                "duration": 1.5818182,
                "tempo": 120.0
            },
            {
                "start_time": 2.5477273,
                "end_time": 2.6136364,
                "pitch": 31,
                "velocity": 64,
                "duration": 0.0659091,
                "tempo": 120.0
            },
            {
                "start_time": 0.9113636,
                "end_time": 2.6795455,
                "pitch": 0,
                "velocity": 64,
                "duration": 1.7681818,
                "tempo": 120.0
            },
            {
                "start_time": 2.6136364,
                "end_time": 2.6795455,
                "pitch": 31,
                "velocity": 64,
                "duration": 0.0659091,
                "tempo": 120.0
            },
            {
                "start_time": 2.6795455,
                "end_time": 2.7454545,
                "pitch": 31,
                "velocity": 64,
                "duration": 0.0659091,
                "tempo": 120.0
            },
            {
                "start_time": 2.6136364,
                "end_time": 2.7454545,
                "pitch": 43,
                "velocity": 64,
                "duration": 0.1318182,
                "tempo": 120.0
            },
            {
                "start_time": 2.7454545,
                "end_time": 2.7977273,
                "pitch": 31,
                "velocity": 64,
                "duration": 0.0522727,
                "tempo": 120.0
            },
            {
                "start_time": 2.7977273,
                "end_time": 3.2977273,
                "pitch": 38,
                "velocity": 64,
                "duration": 0.5,
                "tempo": 120.0
            },
            {
                "start_time": 3.2977273,
                "end_time": 3.5477273,
                "pitch": 38,
                "velocity": 64,
                "duration": 0.25,
                "tempo": 120.0
            },
            {
                "start_time": 2.2977273,
                "end_time": 3.7977273,
                "pitch": 40,
                "velocity": 64,
                "duration": 1.5,
                "tempo": 120.0
            },
            {
                "start_time": 3.5477273,
                "end_time": 3.7977273,
                "pitch": 40,
                "velocity": 64,
                "duration": 0.25,
                "tempo": 120.0
            },
            {
                "start_time": 3.7977273,
                "end_time": 4.05,
                "pitch": 40,
                "velocity": 64,
                "duration": 0.2522727,
                "tempo": 120.0
            },
            {
                "start_time": 4.05,
                "end_time": 4.1136364,
                "pitch": 41,
                "velocity": 64,
                "duration": 0.0636364,
                "tempo": 120.0
            },
            {
                "start_time": 0.9795455,
                "end_time": 4.1136364,
                "pitch": 55,
                "velocity": 64,
                "duration": 3.1340909,
                "tempo": 120.0
            },
            {
                "start_time": 2.6795455,
                "end_time": 4.1818182,
                "pitch": 0,
                "velocity": 64,
                "duration": 1.5022727,
                "tempo": 120.0
            },
            {
                "start_time": 2.7454545,
                "end_time": 4.1818182,
                "pitch": 43,
                "velocity": 64,
                "duration": 1.4363636,
                "tempo": 120.0
            },
            {
                "start_time": 4.1136364,
                "end_time": 4.1818182,
                "pitch": 43,
                "velocity": 64,
                "duration": 0.0681818,
                "tempo": 120.0
            },
            {
                "start_time": 4.1818182,
                "end_time": 4.2477273,
                "pitch": 43,
                "velocity": 64,
                "duration": 0.0659091,
                "tempo": 120.0
            },
            {
                "start_time": 4.1136364,
                "end_time": 4.2477273,
                "pitch": 55,
                "velocity": 64,
                "duration": 0.1340909,
                "tempo": 120.0
            },
            {
                "start_time": 4.1818182,
                "end_time": 4.3159091,
                "pitch": 0,
                "velocity": 64,
                "duration": 0.1340909,
                "tempo": 120.0
            },
            {
                "start_time": 4.2477273,
                "end_time": 4.3159091,
                "pitch": 43,
                "velocity": 64,
                "duration": 0.0681818,
                "tempo": 120.0
            },
            {
                "start_time": 4.3159091,
                "end_time": 4.3818182,
                "pitch": 43,
                "velocity": 64,
                "duration": 0.0659091,
                "tempo": 120.0
            },
            {
                "start_time": 4.2477273,
                "end_time": 4.3818182,
                "pitch": 55,
                "velocity": 64,
                "duration": 0.1340909,
                "tempo": 120.0
            },
            {
                "start_time": 4.3159091,
                "end_time": 4.4477273,
                "pitch": 0,
                "velocity": 64,
                "duration": 0.1318182,
                "tempo": 120.0
            },
            {
                "start_time": 4.3818182,
                "end_time": 4.4477273,
                "pitch": 43,
                "velocity": 64,
                "duration": 0.0659091,
                "tempo": 120.0
            },
            {
                "start_time": 4.4477273,
                "end_time": 4.5159091,
                "pitch": 43,
                "velocity": 64,
                "duration": 0.0681818,
                "tempo": 120.0
            },
            {
                "start_time": 4.3818182,
                "end_time": 4.5159091,
                "pitch": 55,
                "velocity": 64,
                "duration": 0.1340909,
                "tempo": 120.0
            },
            {
                "start_time": 4.5159091,
                "end_time": 4.5659091,
                "pitch": 43,
                "velocity": 64,
                "duration": 0.05,
                "tempo": 120.0
            },
            {
                "start_time": 4.4477273,
                "end_time": 4.5681818,
                "pitch": 0,
                "velocity": 64,
                "duration": 0.1204545,
                "tempo": 120.0
            },
            {
                "start_time": 2.7977273,
                "end_time": 4.6340909,
                "pitch": 31,
                "velocity": 64,
                "duration": 1.8363636,
                "tempo": 120.0
            },
            {
                "start_time": 4.5681818,
                "end_time": 4.6340909,
                "pitch": 31,
                "velocity": 64,
                "duration": 0.0659091,
                "tempo": 120.0
            },
            {
                "start_time": 4.5681818,
                "end_time": 4.7022727,
                "pitch": 0,
                "velocity": 64,
                "duration": 0.1340909,
                "tempo": 120.0
            },
            {
                "start_time": 4.6340909,
                "end_time": 4.7022727,
                "pitch": 31,
                "velocity": 64,
                "duration": 0.0681818,
                "tempo": 120.0
            },
            {
                "start_time": 4.7022727,
                "end_time": 4.7704545,
                "pitch": 31,
                "velocity": 64,
                "duration": 0.0681818,
                "tempo": 120.0
            },
            {
                "start_time": 4.6340909,
                "end_time": 4.7704545,
                "pitch": 43,
                "velocity": 64,
                "duration": 0.1363636,
                "tempo": 120.0
            },
            {
                "start_time": 4.7022727,
                "end_time": 4.8227273,
                "pitch": 0,
                "velocity": 64,
                "duration": 0.1204545,
                "tempo": 120.0
            },
            {
                "start_time": 4.7704545,
                "end_time": 4.8227273,
                "pitch": 31,
                "velocity": 64,
                "duration": 0.0522727,
                "tempo": 120.0
            },
            {
                "start_time": 4.7704545,
                "end_time": 4.8909091,
                "pitch": 43,
                "velocity": 64,
                "duration": 0.1204545,
                "tempo": 120.0
            },
            {
                "start_time": 4.8227273,
                "end_time": 4.8909091,
                "pitch": 43,
                "velocity": 64,
                "duration": 0.0681818,
                "tempo": 120.0
            },
            {
                "start_time": 4.5159091,
                "end_time": 4.8909091,
                "pitch": 55,
                "velocity": 64,
                "duration": 0.375,
                "tempo": 120.0
            },
            {
                "start_time": 4.8227273,
                "end_time": 4.9590909,
                "pitch": 0,
                "velocity": 64,
                "duration": 0.1363636,
                "tempo": 120.0
            },
            {
                "start_time": 4.8909091,
                "end_time": 4.9590909,
                "pitch": 43,
                "velocity": 64,
                "duration": 0.0681818,
                "tempo": 120.0
            },
            {
                "start_time": 4.9590909,
                "end_time": 5.0272727,
                "pitch": 43,
                "velocity": 64,
                "duration": 0.0681818,
                "tempo": 120.0
            },
            {
                "start_time": 4.8909091,
                "end_time": 5.0272727,
                "pitch": 55,
                "velocity": 64,
                "duration": 0.1363636,
                "tempo": 120.0
            },
            {
                "start_time": 5.0272727,
                "end_time": 5.0795455,
                "pitch": 43,
                "velocity": 64,
                "duration": 0.0522727,
                "tempo": 120.0
            },
            {
                "start_time": 5.0795455,
                "end_time": 5.5931818,
                "pitch": 42,
                "velocity": 64,
                "duration": 0.5136364,
                "tempo": 120.0
            },
            {
                "start_time": 5.5931818,
                "end_time": 5.8431818,
                "pitch": 30,
                "velocity": 64,
                "duration": 0.25,
                "tempo": 120.0
            },
            {
                "start_time": 5.8431818,
                "end_time": 6.0954545,
                "pitch": 42,
                "velocity": 64,
                "duration": 0.2522727,
                "tempo": 120.0
            },
            {
                "start_time": 6.0954545,
                "end_time": 6.1090909,
                "pitch": 42,
                "velocity": 64,
                "duration": 0.0136364,
                "tempo": 120.0
            },
            {
                "start_time": 6.1090909,
                "end_time": 6.3454545,
                "pitch": 40,
                "velocity": 64,
                "duration": 0.2363636,
                "tempo": 120.0
            },
            {
                "start_time": 6.3454545,
                "end_time": 6.5954545,
                "pitch": 36,
                "velocity": 64,
                "duration": 0.25,
                "tempo": 120.0
            },
            {
                "start_time": 5.0795455,
                "end_time": 6.6613636,
                "pitch": 31,
                "velocity": 64,
                "duration": 1.5818182,
                "tempo": 120.0
            },
            {
                "start_time": 6.5954545,
                "end_time": 6.6613636,
                "pitch": 31,
                "velocity": 64,
                "duration": 0.0659091,
                "tempo": 120.0
            },
            {
                "start_time": 4.9590909,
                "end_time": 6.7272727,
                "pitch": 0,
                "velocity": 64,
                "duration": 1.7681818,
                "tempo": 120.0
            },
            {
                "start_time": 6.6613636,
                "end_time": 6.7272727,
                "pitch": 31,
                "velocity": 64,
                "duration": 0.0659091,
                "tempo": 120.0
            },
            {
                "start_time": 6.7272727,
                "end_time": 6.7931818,
                "pitch": 31,
                "velocity": 64,
                "duration": 0.0659091,
                "tempo": 120.0
            },
            {
                "start_time": 6.6613636,
                "end_time": 6.7931818,
                "pitch": 43,
                "velocity": 64,
                "duration": 0.1318182,
                "tempo": 120.0
            },
            {
                "start_time": 6.7931818,
                "end_time": 6.8454545,
                "pitch": 31,
                "velocity": 64,
                "duration": 0.0522727,
                "tempo": 120.0
            },
            {
                "start_time": 3.5477273,
                "end_time": 7.3454545,
                "pitch": 38,
                "velocity": 64,
                "duration": 3.7977273,
                "tempo": 120.0
            },
            {
                "start_time": 6.8454545,
                "end_time": 7.3454545,
                "pitch": 38,
                "velocity": 64,
                "duration": 0.5,
                "tempo": 120.0
            },
            {
                "start_time": 7.3454545,
                "end_time": 7.5954545,
                "pitch": 38,
                "velocity": 64,
                "duration": 0.25,
                "tempo": 120.0
            },
            {
                "start_time": 6.3454545,
                "end_time": 7.8477273,
                "pitch": 40,
                "velocity": 64,
                "duration": 1.5022727,
                "tempo": 120.0
            },
            {
                "start_time": 7.5954545,
                "end_time": 7.8477273,
                "pitch": 40,
                "velocity": 64,
                "duration": 0.2522727,
                "tempo": 120.0
            },
            {
                "start_time": 7.5954545,
                "end_time": 8.0977273,
                "pitch": 38,
                "velocity": 64,
                "duration": 0.5022727,
                "tempo": 120.0
            },
            {
                "start_time": 7.8477273,
                "end_time": 8.0977273,
                "pitch": 38,
                "velocity": 64,
                "duration": 0.25,
                "tempo": 120.0
            },
            {
                "start_time": 8.0977273,
                "end_time": 8.6022727,
                "pitch": 36,
                "velocity": 64,
                "duration": 0.5045455,
                "tempo": 120.0
            },
            {
                "start_time": 7.8477273,
                "end_time": 9.1204545,
                "pitch": 40,
                "velocity": 64,
                "duration": 1.2727273,
                "tempo": 120.0
            },
            {
                "start_time": 8.6022727,
                "end_time": 9.1204545,
                "pitch": 40,
                "velocity": 64,
                "duration": 0.5181818,
                "tempo": 120.0
            },
            {
                "start_time": 8.0977273,
                "end_time": 9.6409091,
                "pitch": 38,
                "velocity": 64,
                "duration": 1.5431818,
                "tempo": 120.0
            },
            {
                "start_time": 9.1204545,
                "end_time": 9.6409091,
                "pitch": 38,
                "velocity": 64,
                "duration": 0.5204545,
                "tempo": 120.0
            },
            {
                "start_time": 9.6409091,
                "end_time": 10.1431818,
                "pitch": 42,
                "velocity": 64,
                "duration": 0.5022727,
                "tempo": 120.0
            },
            {
                "start_time": 10.1431818,
                "end_time": 10.2090909,
                "pitch": 41,
                "velocity": 64,
                "duration": 0.0659091,
                "tempo": 120.0
            },
            {
                "start_time": 5.0272727,
                "end_time": 10.2090909,
                "pitch": 55,
                "velocity": 64,
                "duration": 5.1818182,
                "tempo": 120.0
            },
            {
                "start_time": 6.7272727,
                "end_time": 10.275,
                "pitch": 0,
                "velocity": 64,
                "duration": 3.5477273,
                "tempo": 120.0
            },
            {
                "start_time": 6.7931818,
                "end_time": 10.275,
                "pitch": 43,
                "velocity": 64,
                "duration": 3.4818182,
                "tempo": 120.0
            },
            {
                "start_time": 10.2090909,
                "end_time": 10.275,
                "pitch": 43,
                "velocity": 64,
                "duration": 0.0659091,
                "tempo": 120.0
            },
            {
                "start_time": 10.275,
                "end_time": 10.3409091,
                "pitch": 43,
                "velocity": 64,
                "duration": 0.0659091,
                "tempo": 120.0
            },
            {
                "start_time": 10.2090909,
                "end_time": 10.3409091,
                "pitch": 55,
                "velocity": 64,
                "duration": 0.1318182,
                "tempo": 120.0
            },
            {
                "start_time": 10.275,
                "end_time": 10.4090909,
                "pitch": 0,
                "velocity": 64,
                "duration": 0.1340909,
                "tempo": 120.0
            },
            {
                "start_time": 10.3409091,
                "end_time": 10.4090909,
                "pitch": 43,
                "velocity": 64,
                "duration": 0.0681818,
                "tempo": 120.0
            },
            {
                "start_time": 10.4090909,
                "end_time": 10.475,
                "pitch": 43,
                "velocity": 64,
                "duration": 0.0659091,
                "tempo": 120.0
            },
            {
                "start_time": 10.3409091,
                "end_time": 10.475,
                "pitch": 55,
                "velocity": 64,
                "duration": 0.1340909,
                "tempo": 120.0
            },
            {
                "start_time": 10.4090909,
                "end_time": 10.5409091,
                "pitch": 0,
                "velocity": 64,
                "duration": 0.1318182,
                "tempo": 120.0
            },
            {
                "start_time": 10.475,
                "end_time": 10.5409091,
                "pitch": 43,
                "velocity": 64,
                "duration": 0.0659091,
                "tempo": 120.0
            },
            {
                "start_time": 10.5409091,
                "end_time": 10.6090909,
                "pitch": 43,
                "velocity": 64,
                "duration": 0.0681818,
                "tempo": 120.0
            },
            {
                "start_time": 10.475,
                "end_time": 10.6090909,
                "pitch": 55,
                "velocity": 64,
                "duration": 0.1340909,
                "tempo": 120.0
            },
            {
                "start_time": 6.8454545,
                "end_time": 10.6431818,
                "pitch": 31,
                "velocity": 64,
                "duration": 3.7977273,
                "tempo": 120.0
            },
            {
                "start_time": 10.6090909,
                "end_time": 10.6431818,
                "pitch": 43,
                "velocity": 64,
                "duration": 0.0340909,
                "tempo": 120.0
            },
            {
                "start_time": 2.5477273,
                "end_time": 11.1431818,
                "pitch": 19,
                "velocity": 64,
                "duration": 8.5954545,
                "tempo": 120.0
            },
            {
                "start_time": 9.6409091,
                "end_time": 11.1431818,
                "pitch": 38,
                "velocity": 64,
                "duration": 1.5022727,
                "tempo": 120.0
            },
            {
                "start_time": 10.6431818,
                "end_time": 11.1431818,
                "pitch": 38,
                "velocity": 64,
                "duration": 0.5,
                "tempo": 120.0
            },
            {
                "start_time": 10.6431818,
                "end_time": 11.2090909,
                "pitch": 31,
                "velocity": 64,
                "duration": 0.5659091,
                "tempo": 120.0
            },
            {
                "start_time": 11.1431818,
                "end_time": 11.2090909,
                "pitch": 31,
                "velocity": 64,
                "duration": 0.0659091,
                "tempo": 120.0
            },
            {
                "start_time": 10.5409091,
                "end_time": 11.2772727,
                "pitch": 0,
                "velocity": 64,
                "duration": 0.7363636,
                "tempo": 120.0
            },
            {
                "start_time": 11.2090909,
                "end_time": 11.2772727,
                "pitch": 31,
                "velocity": 64,
                "duration": 0.0681818,
                "tempo": 120.0
            },
            {
                "start_time": 11.2772727,
                "end_time": 11.3431818,
                "pitch": 31,
                "velocity": 64,
                "duration": 0.0659091,
                "tempo": 120.0
            },
            {
                "start_time": 11.2090909,
                "end_time": 11.3431818,
                "pitch": 43,
                "velocity": 64,
                "duration": 0.1340909,
                "tempo": 120.0
            },
            {
                "start_time": 11.2772727,
                "end_time": 11.4090909,
                "pitch": 0,
                "velocity": 64,
                "duration": 0.1318182,
                "tempo": 120.0
            },
            {
                "start_time": 11.3431818,
                "end_time": 11.4090909,
                "pitch": 31,
                "velocity": 64,
                "duration": 0.0659091,
                "tempo": 120.0
            },
            {
                "start_time": 11.4090909,
                "end_time": 11.4772727,
                "pitch": 31,
                "velocity": 64,
                "duration": 0.0681818,
                "tempo": 120.0
            },
            {
                "start_time": 11.3431818,
                "end_time": 11.4772727,
                "pitch": 43,
                "velocity": 64,
                "duration": 0.1340909,
                "tempo": 120.0
            },
            {
                "start_time": 11.4090909,
                "end_time": 11.5431818,
                "pitch": 0,
                "velocity": 64,
                "duration": 0.1340909,
                "tempo": 120.0
            },
            {
                "start_time": 11.4772727,
                "end_time": 11.5431818,
                "pitch": 31,
                "velocity": 64,
                "duration": 0.0659091,
                "tempo": 120.0
            },
            {
                "start_time": 11.5431818,
                "end_time": 11.6113636,
                "pitch": 31,
                "velocity": 64,
                "duration": 0.0681818,
                "tempo": 120.0
            },
            {
                "start_time": 11.4772727,
                "end_time": 11.6113636,
                "pitch": 43,
                "velocity": 64,
                "duration": 0.1340909,
                "tempo": 120.0
            },
            {
                "start_time": 11.5431818,
                "end_time": 11.6772727,
                "pitch": 0,
                "velocity": 64,
                "duration": 0.1340909,
                "tempo": 120.0
            },
            {
                "start_time": 11.6113636,
                "end_time": 11.6772727,
                "pitch": 31,
                "velocity": 64,
                "duration": 0.0659091,
                "tempo": 120.0
            },
            {
                "start_time": 11.6772727,
                "end_time": 11.7477273,
                "pitch": 31,
                "velocity": 64,
                "duration": 0.0704545,
                "tempo": 120.0
            },
            {
                "start_time": 11.6113636,
                "end_time": 11.7477273,
                "pitch": 43,
                "velocity": 64,
                "duration": 0.1363636,
                "tempo": 120.0
            },
            {
                "start_time": 11.6772727,
                "end_time": 11.8181818,
                "pitch": 0,
                "velocity": 64,
                "duration": 0.1409091,
                "tempo": 120.0
            },
            {
                "start_time": 11.7477273,
                "end_time": 11.8181818,
                "pitch": 31,
                "velocity": 64,
                "duration": 0.0704545,
                "tempo": 120.0
            },
            {
                "start_time": 11.8181818,
                "end_time": 11.8886364,
                "pitch": 31,
                "velocity": 64,
                "duration": 0.0704545,
                "tempo": 120.0
            },
            {
                "start_time": 11.7477273,
                "end_time": 11.8886364,
                "pitch": 43,
                "velocity": 64,
                "duration": 0.1409091,
                "tempo": 120.0
            },
            {
                "start_time": 11.8181818,
                "end_time": 11.9590909,
                "pitch": 0,
                "velocity": 64,
                "duration": 0.1409091,
                "tempo": 120.0
            },
            {
                "start_time": 11.8886364,
                "end_time": 11.9590909,
                "pitch": 31,
                "velocity": 64,
                "duration": 0.0704545,
                "tempo": 120.0
            },
            {
                "start_time": 11.9590909,
                "end_time": 12.0318182,
                "pitch": 31,
                "velocity": 64,
                "duration": 0.0727273,
                "tempo": 120.0
            },
            {
                "start_time": 11.8886364,
                "end_time": 12.0318182,
                "pitch": 43,
                "velocity": 64,
                "duration": 0.1431818,
                "tempo": 120.0
            },
            {
                "start_time": 11.9590909,
                "end_time": 12.1022727,
                "pitch": 0,
                "velocity": 64,
                "duration": 0.1431818,
                "tempo": 120.0
            },
            {
                "start_time": 12.0318182,
                "end_time": 12.1022727,
                "pitch": 31,
                "velocity": 64,
                "duration": 0.0704545,
                "tempo": 120.0
            }
        ]
    }
}