{
    "mood": "happy",
    "instruments": {
        "Acoustic Grand Piano": [
            {
                "start_time": 0.3840909,
                "end_time": 0.6931818,
                "pitch": 55,
                "velocity": 40,
                "duration": 0.3090909,
                "tempo": 120.0
            },
            {
                "start_time": 1.1977273,
                "end_time": 1.9659091,
                "pitch": 50,
                "velocity": 40,
                "duration": 0.7681818,
                "tempo": 120.0
            },
            {
                "start_time": 1.9818182,
                "end_time": 2.3409091,
                "pitch": 53,
                "velocity": 40,
                "duration": 0.3590909,
                "tempo": 120.0
            },
            {
                "start_time": 2.7840909,
                "end_time": 3.5818182,
                "pitch": 55,
                "velocity": 40,
                "duration": 0.7977273,
                "tempo": 120.0
            },
            {
                "start_time": 3.5977273,
                "end_time": 3.9477273,
                "pitch": 55,
                "velocity": 40,
                "duration": 0.35,
                "tempo": 120.0
            },
            {
                "start_time": 4.3886364,
                "end_time": 5.1863636,
                "pitch": 55,
                "velocity": 40,
                "duration": 0.7977273,
                "tempo": 120.0
            },
            {
                "start_time": 5.2022727,
                "end_time": 5.9795455,
                "pitch": 53,
                "velocity": 40,
                "duration": 0.7772727,
                "tempo": 120.0
            },
            {
                "start_time": 5.9954545,
                "end_time": 6.7886364,
                "pitch": 55,
                "velocity": 40,
                "duration": 0.7931818,
                "tempo": 120.0
            },
            {
                "start_time": 6.8068182,
                "end_time": 7.5840909,
                "pitch": 55,
                "velocity": 40,
                "duration": 0.7772727,
                "tempo": 120.0
            },
            {
                "start_time": 7.6022727,
                "end_time": 8.3977273,
                "pitch": 56,
                "velocity": 40,
                "duration": 0.7954545,
                "tempo": 120.0
            },
            {
                "start_time": 8.4136364,
                "end_time": 9.1931818,
                "pitch": 57,
                "velocity": 40,
                "duration": 0.7795455,
                "tempo": 120.0
            },
            {
                "start_time": 9.2090909,
                "end_time": 10.0068182,
                "pitch": 58,
                "velocity": 40,
                "duration": 0.7977273,
                "tempo": 120.0
            },
            {
                "start_time": 10.0227273,
                "end_time": 10.8022727,
                "pitch": 60,
                "velocity": 40,
                "duration": 0.7795455,
                "tempo": 120.0
            },
            {
                "start_time": 10.8181818,
                "end_time": 11.1772727,
                "pitch": 58,
                "velocity": 40,
                "duration": 0.3590909,
                "tempo": 120.0
            },
            {
                "start_time": 12.4272727,
                "end_time": 12.8090909,
                "pitch": 55,
                "velocity": 40,
                "duration": 0.3818182,
                "tempo": 120.0
            }
        ],
        "Electric Guitar (clean)": [
            {
                "start_time": 0.0,
                "end_time": 0.3659091,
                "pitch": 51,
                "velocity": 51,
                "duration": 0.3659091,
                "tempo": 120.0
            },
            {
                "start_time": 0.3840909,
                "end_time": 0.7590909,
                "pitch": 58,
                "velocity": 51,
                "duration": 0.375,
                "tempo": 120.0
            },
            {
                "start_time": 0.775,
                "end_time": 1.1795455,
                "pitch": 46,
                "velocity": 51,
                "duration": 0.4045455,
                "tempo": 120.0
            },
            {
                "start_time": 1.1977273,
                "end_time": 1.5727273,
                "pitch": 53,
                "velocity": 51,
                "duration": 0.375,
                "tempo": 120.0
            },
            {
                "start_time": 1.5886364,
                "end_time": 1.9659091,
                "pitch": 46,
                "velocity": 51,
                "duration": 0.3772727,
                "tempo": 120.0
            },
            {
                "start_time": 1.9818182,
                "end_time": 2.375,
                "pitch": 56,
                "velocity": 51,
                "duration": 0.3931818,
                "tempo": 120.0
            },
            {
                "start_time": 2.3909091,
                "end_time": 2.7681818,
                "pitch": 51,
                "velocity": 51,
                "duration": 0.3772727,
                "tempo": 120.0
            },
            {
                "start_time": 2.7840909,
                "end_time": 3.1772727,
                "pitch": 58,
                "velocity": 51,
                "duration": 0.3931818,
                "tempo": 120.0
            },
            {
                "start_time": 3.1954545,
                "end_time": 3.5818182,
                "pitch": 51,
                "velocity": 51,
                "duration": 0.3863636,
                "tempo": 120.0
            },
            {
                "start_time": 3.5977273,
                "end_time": 3.9818182,
                "pitch": 58,
                "velocity": 51,
                "duration": 0.3840909,
                "tempo": 120.0
            },
            {
                "start_time": 3.9977273,
                "end_time": 4.3727273,
                "pitch": 51,
                "velocity": 51,
                "duration": 0.375,
                "tempo": 120.0
            },
            {
                "start_time": 4.3886364,
                "end_time": 4.7840909,
                "pitch": 58,
                "velocity": 51,
                "duration": 0.3954545,
                "tempo": 120.0
            },
            {
                "start_time": 4.8,
                "end_time": 5.1863636,
                "pitch": 46,
                "velocity": 51,
                "duration": 0.3863636,
                "tempo": 120.0
            },
            {
                "start_time": 5.2022727,
                "end_time": 5.5863636,
                "pitch": 56,
                "velocity": 51,
                "duration": 0.3840909,
                "tempo": 120.0
            },
            {
                "start_time": 5.6022727,
                "end_time": 5.9795455,
                "pitch": 51,
                "velocity": 51,
                "duration": 0.3772727,
                "tempo": 120.0
            },
            {
                "start_time": 5.9954545,
                "end_time": 6.3886364,
                "pitch": 58,
                "velocity": 51,
                "duration": 0.3931818,
                "tempo": 120.0
            },
            {
                "start_time": 6.4068182,
                "end_time": 6.7886364,
                "pitch": 51,
                "velocity": 51,
                "duration": 0.3818182,
                "tempo": 120.0
            },
            {
                "start_time": 6.8068182,
                "end_time": 7.1818182,
                "pitch": 58,
                "velocity": 51,
                "duration": 0.375,
                "tempo": 120.0
            },
            {
                "start_time": 7.1977273,
                "end_time": 7.5840909,
                "pitch": 51,
                "velocity": 51,
                "duration": 0.3863636,
                "tempo": 120.0
            },
            {
                "start_time": 7.6022727,
                "end_time": 7.9954545,
                "pitch": 60,
                "velocity": 51,
                "duration": 0.3931818,
                "tempo": 120.0
            },
            {
                "start_time": 8.0113636,
                "end_time": 8.3977273,
                "pitch": 51,
                "velocity": 51,
                "duration": 0.3863636,
                "tempo": 120.0
            },
            {
                "start_time": 8.4136364,
                "end_time": 8.7909091,
                "pitch": 60,
                "velocity": 51,
                "duration": 0.3772727,
                "tempo": 120.0
            },
            {
                "start_time": 8.8068182,
                "end_time": 9.1931818,
                "pitch": 53,
                "velocity": 51,
                "duration": 0.3863636,
                "tempo": 120.0
            },
            {
                "start_time": 9.2090909,
                "end_time": 9.5954545,
                "pitch": 62,
                "velocity": 51,
                "duration": 0.3863636,
                "tempo": 120.0
            },
            {
                "start_time": 9.6113636,
                "end_time": 10.0068182,
                "pitch": 56,
                "velocity": 51,
                "duration": 0.3954545,
                "tempo": 120.0
            },
            {
                "start_time": 10.0227273,
                "end_time": 10.4090909,
                "pitch": 63,
                "velocity": 51,
                "duration": 0.3863636,
                "tempo": 120.0
            },
            {
                "start_time": 10.425,
                "end_time": 10.8022727,
                "pitch": 55,
                "velocity": 51,
                "duration": 0.3772727,
                "tempo": 120.0
            },
            {
                "start_time": 10.8181818,
                "end_time": 11.2113636,
                "pitch": 63,
                "velocity": 51,
                "duration": 0.3931818,
                "tempo": 120.0
            },
            {
                "start_time": 11.2295455,
                "end_time": 11.6136364,
                "pitch": 50,
                "velocity": 51,
                "duration": 0.3840909,
                "tempo": 120.0
            },
            {
                "start_time": 11.6318182,
                "end_time": 12.0068182,
                "pitch": 46,
                "velocity": 51,
                "duration": 0.375,
                "tempo": 120.0
            },
            {
                "start_time": 12.0227273,
                "end_time": 12.4090909,
                "pitch": 51,
                "velocity": 51,
                "duration": 0.3863636,
                "tempo": 120.0
            },
            {
                "start_time": 12.4272727,
                "end_time": 12.8090909,
                "pitch": 58,
                "velocity": 51,
                "duration": 0.3818182,
                "tempo": 120.0
            }
        ]
    }
}