{
    "mood": "happy",
    "instruments": {
        "Trumpet": [
            {
                "start_time": 0.0045455,
                "end_time": 0.7977273,
                "pitch": 69,
                "velocity": 64,
                "duration": 0.7931818,
                "tempo": 120.0
            },
            {
                "start_time": 0.7977273,
                "end_time": 1.4068182,
                "pitch": 69,
                "velocity": 64,
                "duration": 0.6090909,
                "tempo": 120.0
            },
            {
                "start_time": 1.4068182,
                "end_time": 1.6090909,
                "pitch": 69,
                "velocity": 64,
                "duration": 0.2022727,
                "tempo": 120.0
            },
            {
                "start_time": 1.6090909,
                "end_time": 2.3863636,
                "pitch": 69,
                "velocity": 64,
                "duration": 0.7772727,
                "tempo": 120.0
            },
            {
                "start_time": 2.3863636,
                "end_time": 2.6568182,
                "pitch": 61,
                "velocity": 64,
                "duration": 0.2704545,
                "tempo": 120.0
            },
            {
                "start_time": 2.6568182,
                "end_time": 2.9272727,
                "pitch": 64,
                "velocity": 64,
                "duration": 0.2704545,
                "tempo": 120.0
            },
            {
                "start_time": 2.9272727,
                "end_time": 3.1977273,
                "pitch": 69,
                "velocity": 64,
                "duration": 0.2704545,
                "tempo": 120.0
            },
            {
                "start_time": 3.1977273,
                "end_time": 4.0,
                "pitch": 73,
                "velocity": 64,
                "duration": 0.8022727,
                "tempo": 120.0
            },
            {
                "start_time": 4.0,
                "end_time": 4.5659091,
                "pitch": 73,
                "velocity": 64,
                "duration": 0.5659091,
                "tempo": 120.0
            },
            {
                "start_time": 4.5659091,
                "end_time": 4.7659091,
                "pitch": 73,
                "velocity": 64,
                "duration": 0.2,
                "tempo": 120.0
            },
            {
                "start_time": 4.7659091,
                "end_time": 5.5772727,
                "pitch": 73,
                "velocity": 64,
                "duration": 0.8113636,
                "tempo": 120.0
            },
            {
                "start_time": 2.6568182,
                "end_time": 5.8454545,
                "pitch": 61,
                "velocity": 64,
                "duration": 3.1886364,
                "tempo": 120.0
            },
            {
                "start_time": 5.5772727,
                "end_time": 5.8454545,
                "pitch": 61,
                "velocity": 64,
                "duration": 0.2681818,
                "tempo": 120.0
            },
            {
                "start_time": 5.8454545,
                "end_time": 6.1159091,
                "pitch": 64,
                "velocity": 64,
                "duration": 0.2704545,
                "tempo": 120.0
            },
            {
                "start_time": 2.9272727,
                "end_time": 6.1159091,
                "pitch": 76,
                "velocity": 64,
                "duration": 3.1886364,
                "tempo": 120.0
            },
            {
                "start_time": 3.1977273,
                "end_time": 6.3886364,
                "pitch": 69,
                "velocity": 64,
                "duration": 3.1909091,
                "tempo": 120.0
            },
            {
                "start_time": 6.1159091,
                "end_time": 6.3886364,
                "pitch": 69,
                "velocity": 64,
                "duration": 0.2727273,
                "tempo": 120.0
            },
            {
                "start_time": 6.1159091,
                "end_time": 7.1659091,
                "pitch": 76,
                "velocity": 64,
                "duration": 1.05,
                "tempo": 120.0
            },
            {
                "start_time": 6.3886364,
                "end_time": 7.1659091,
                "pitch": 76,
                "velocity": 64,
                "duration": 0.7772727,
                "tempo": 120.0
            },
            {
                "start_time": 7.1659091,
                "end_time": 7.775,
                "pitch": 76,
                "velocity": 64,
                "duration": 0.6090909,
                "tempo": 120.0
            },
            {
                "start_time": 7.775,
                "end_time": 7.9772727,
                "pitch": 76,
                "velocity": 64,
                "duration": 0.2022727,
                "tempo": 120.0
            },
            {
                "start_time": 7.9772727,
                "end_time": 8.7545455,
                "pitch": 76,
                "velocity": 64,
                "duration": 0.7772727,
                "tempo": 120.0
            },
            {
                "start_time": 5.8454545,
                "end_time": 9.0227273,
                "pitch": 61,
                "velocity": 64,
                "duration": 3.1772727,
                "tempo": 120.0
            },
            {
                "start_time": 8.7545455,
                "end_time": 9.0227273,
                "pitch": 61,
                "velocity": 64,
                "duration": 0.2681818,
                "tempo": 120.0
            },
            {
                "start_time": 8.7545455,
                "end_time": 9.2931818,
                "pitch": 64,
                "velocity": 64,
                "duration": 0.5386364,
                "tempo": 120.0
            },
            {
                "start_time": 9.0227273,
                "end_time": 9.2931818,
                "pitch": 64,
                "velocity": 64,
                "duration": 0.2704545,
                "tempo": 120.0
            },
            {
                "start_time": 6.3886364,
                "end_time": 9.5659091,
                "pitch": 69,
                "velocity": 64,
                "duration": 3.1772727,
                "tempo": 120.0
            },
            {
                "start_time": 9.2931818,
                "end_time": 9.5659091,
                "pitch": 69,
                "velocity": 64,
                "duration": 0.2727273,
                "tempo": 120.0
            },
            {
                "start_time": 9.5659091,
                "end_time": 10.3659091,
                "pitch": 81,
                "velocity": 64,
                "duration": 0.8,
                "tempo": 120.0
            },
            {
                "start_time": 10.3659091,
                "end_time": 10.9340909,
                "pitch": 81,
                "velocity": 64,
                "duration": 0.5681818,
                "tempo": 120.0
            },
            {
                "start_time": 10.9340909,
                "end_time": 11.1340909,
                "pitch": 81,
                "velocity": 64,
                "duration": 0.2,
                "tempo": 120.0
            },
            {
                "start_time": 2.3863636,
                "end_time": 11.9340909,
                "pitch": 57,
                "velocity": 64,
                "duration": 9.5477273,
                "tempo": 120.0
            },
            {
                "start_time": 11.1340909,
                "end_time": 11.9340909,
                "pitch": 81,
                "velocity": 64,
                "duration": 0.8,
                "tempo": 120.0
            },
            {
                "start_time": 9.0227273,
                "end_time": 12.2,
                "pitch": 61,
                "velocity": 64,
                "duration": 3.1772727,
                "tempo": 120.0
            },
            {
                "start_time": 11.9340909,
                "end_time": 12.2,
                "pitch": 61,
                "velocity": 64,
                "duration": 0.2659091,
                "tempo": 120.0
            },
            {
                "start_time": 12.2,
                "end_time": 12.4659091,
                "pitch": 64,
                "velocity": 64,
                "duration": 0.2659091,
                "tempo": 120.0
            },
            {
                "start_time": 9.2931818,
                "end_time": 12.4659091,
                "pitch": 76,
                "velocity": 64,
                "duration": 3.1727273,
                "tempo": 120.0
            },
            {
                "start_time": 12.4659091,
                "end_time": 12.7340909,
                "pitch": 69,
                "velocity": 64,
                "duration": 0.2681818,
                "tempo": 120.0
            },
            {
                "start_time": 12.7340909,
                "end_time": 13.0045455,
                "pitch": 69,
                "velocity": 64,
                "duration": 0.2704545,
                "tempo": 120.0
            }
        ]
    }
}