{
    "mood": "happy",
    "instruments": {
        "Acoustic Bass": [
            {
                "start_time": 1.675,
                "end_time": 2.1340909,
                "pitch": 42,
                "velocity": 80,
                "duration": 0.4590909,
                "tempo": 120.0
            },
            {
                "start_time": 2.1363636,
                "end_time": 2.3590909,
                "pitch": 42,
                "velocity": 80,
                "duration": 0.2227273,
                "tempo": 120.0
            },
            {
                "start_time": 2.3613636,
                "end_time": 2.5909091,
                "pitch": 42,
                "velocity": 80,
                "duration": 0.2295455,
                "tempo": 120.0
            },
            {
                "start_time": 3.0659091,
                "end_time": 3.2954545,
                "pitch": 42,
                "velocity": 80,
                "duration": 0.2295455,
                "tempo": 120.0
            },
            {
                "start_time": 3.5363636,
                "end_time": 3.9977273,
                "pitch": 42,
                "velocity": 80,
                "duration": 0.4613636,
                "tempo": 120.0
            },
            {
                "start_time": 3.9977273,
                "end_time": 4.2272727,
                "pitch": 42,
                "velocity": 80,
                "duration": 0.2295455,
                "tempo": 120.0
            },
            {
                "start_time": 4.2272727,
                "end_time": 4.4590909,
                "pitch": 42,
                "velocity": 80,
                "duration": 0.2318182,
                "tempo": 120.0
            },
            {
                "start_time": 4.9272727,
                "end_time": 5.1522727,
                "pitch": 42,
                "velocity": 80,
                "duration": 0.225,
                "tempo": 120.0
            },
            {
                "start_time": 5.3954545,
                "end_time": 5.8613636,
                "pitch": 42,
                "velocity": 80,
                "duration": 0.4659091,
                "tempo": 120.0
            },
            {
                "start_time": 5.8613636,
                "end_time": 6.0909091,
                "pitch": 42,
                "velocity": 80,
                "duration": 0.2295455,
                "tempo": 120.0
            },
            {
                "start_time": 6.0931818,
                "end_time": 6.3227273,
                "pitch": 42,
                "velocity": 80,
                "duration": 0.2295455,
                "tempo": 120.0
            },
            {
                "start_time": 6.7909091,
                "end_time": 7.0159091,
                "pitch": 42,
                "velocity": 80,
                "duration": 0.225,
                "tempo": 120.0
            },
            {
                "start_time": 7.2568182,
                "end_time": 7.7227273,
                "pitch": 42,
                "velocity": 80,
                "duration": 0.4659091,
                "tempo": 120.0
            },
            {
                "start_time": 7.725,
                "end_time": 7.9590909,
                "pitch": 42,
                "velocity": 80,
                "duration": 0.2340909,
                "tempo": 120.0
            },
            {
                "start_time": 7.9590909,
                "end_time": 8.1909091,
                "pitch": 42,
                "velocity": 80,
                "duration": 0.2318182,
                "tempo": 120.0
            },
            {
                "start_time": 8.6590909,
                "end_time": 8.8840909,
                "pitch": 42,
                "velocity": 80,
                "duration": 0.225,
                "tempo": 120.0
            },
            {
                "start_time": 9.1204545,
                "end_time": 9.5931818,
                "pitch": 42,
                "velocity": 80,
                "duration": 0.4727273,
                "tempo": 120.0
            },
            {
                "start_time": 9.5931818,
                "end_time": 9.825,
                "pitch": 42,
                "velocity": 80,
                "duration": 0.2318182,
                "tempo": 120.0
            },
            {
                "start_time": 9.8272727,
                "end_time": 10.0613636,
                "pitch": 42,
                "velocity": 80,
                "duration": 0.2340909,
                "tempo": 120.0
            },
            {
                "start_time": 10.5272727,
                "end_time": 10.7545455,
                "pitch": 42,
                "velocity": 80,
                "duration": 0.2272727,
                "tempo": 120.0
            },
            {
                "start_time": 10.9886364,
                "end_time": 11.4590909,
                "pitch": 42,
                "velocity": 80,
                "duration": 0.4704545,
                "tempo": 120.0
            },
            {
                "start_time": 11.4590909,
                "end_time": 11.6954545,
                "pitch": 42,
                "velocity": 80,
                "duration": 0.2363636,
                "tempo": 120.0
            },
            {
                "start_time": 11.6954545,
                "end_time": 11.9295455,
                "pitch": 42,
                "velocity": 80,
                "duration": 0.2340909,
                "tempo": 120.0
            },
            {
                "start_time": 12.1659091,
                "end_time": 12.3931818,
                "pitch": 37,
                "velocity": 80,
                "duration": 0.2272727,
                "tempo": 120.0
            },
            {
                "start_time": 12.3931818,
                "end_time": 12.6227273,
                "pitch": 40,
                "velocity": 80,
                "duration": 0.2295455,
                "tempo": 120.0
            },
            {
                "start_time": 12.6227273,
                "end_time": 12.8568182,
                "pitch": 37,
                "velocity": 80,
                "duration": 0.2340909,
                "tempo": 120.0
            },
            {
                "start_time": 12.8590909,
                "end_time": 13.325,
                "pitch": 42,
                "velocity": 80,
                "duration": 0.4659091,
                "tempo": 120.0
            },
            {
                "start_time": 13.3272727,
                "end_time": 13.5613636,
                "pitch": 42,
                "velocity": 80,
                "duration": 0.2340909,
                "tempo": 120.0
            },
            {
                "start_time": 13.5613636,
                "end_time": 13.7954545,
                "pitch": 42,
                "velocity": 80,
                "duration": 0.2340909,
                "tempo": 120.0
            },
            {
                "start_time": 14.2636364,
                "end_time": 14.4886364,
                "pitch": 42,
                "velocity": 80,
                "duration": 0.225,
                "tempo": 120.0
            },
            {
                "start_time": 14.725,
                "end_time": 15.1954545,
                "pitch": 42,
                "velocity": 80,
                "duration": 0.4704545,
                "tempo": 120.0
            },
            {
                "start_time": 15.1954545,
                "end_time": 15.4295455,
                "pitch": 45,
                "velocity": 80,
                "duration": 0.2340909,
                "tempo": 120.0
            },
            {
                "start_time": 15.4318182,
                "end_time": 15.6659091,
                "pitch": 49,
                "velocity": 80,
                "duration": 0.2340909,
                "tempo": 120.0
            },
            {
                "start_time": 15.6659091,
                "end_time": 16.3568182,
                "pitch": 48,
                "velocity": 80,
                "duration": 0.6909091,
                "tempo": 120.0
            },
            {
                "start_time": 16.5909091,
                "end_time": 17.0636364,
                "pitch": 42,
                "velocity": 80,
                "duration": 0.4727273,
                "tempo": 120.0
            },
            {
                "start_time": 17.0636364,
                "end_time": 17.2954545,
                "pitch": 42,
                "velocity": 80,
                "duration": 0.2318182,
                "tempo": 120.0
            },
            {
                "start_time": 17.2977273,
                "end_time": 17.525,
                "pitch": 42,
                "velocity": 80,
                "duration": 0.2272727,
                "tempo": 120.0
            },
            {
                "start_time": 17.9931818,
                "end_time": 18.225,
                "pitch": 42,
                "velocity": 80,
                "duration": 0.2318182,
                "tempo": 120.0
            },
            {
                "start_time": 18.4613636,
                "end_time": 18.9295455,
                "pitch": 42,
                "velocity": 80,
                "duration": 0.4681818,
                "tempo": 120.0
            },
            {
                "start_time": 18.9295455,
                "end_time": 19.1659091,
                "pitch": 42,
                "velocity": 80,
                "duration": 0.2363636,
                "tempo": 120.0
            },
            {
                "start_time": 19.1659091,
                "end_time": 19.3954545,
                "pitch": 42,
                "velocity": 80,
                "duration": 0.2295455,
                "tempo": 120.0
            },
            {
                "start_time": 19.625,
                "end_time": 19.8568182,
                "pitch": 37,
                "velocity": 80,
                "duration": 0.2318182,
                "tempo": 120.0
            },
            {
                "start_time": 19.8590909,
                "end_time": 20.0931818,
                "pitch": 40,
                "velocity": 80,
                "duration": 0.2340909,
                "tempo": 120.0
            },
            {
                "start_time": 20.0931818,
                "end_time": 20.3272727,
                "pitch": 37,
                "velocity": 80,
                "duration": 0.2340909,
                "tempo": 120.0
            },
            {
                "start_time": 20.3295455,
                "end_time": 20.7931818,
                "pitch": 42,
                "velocity": 80,
                "duration": 0.4636364,
                "tempo": 120.0
            },
            {
                "start_time": 20.7931818,
                "end_time": 21.0227273,
                "pitch": 42,
                "velocity": 80,
                "duration": 0.2295455,
                "tempo": 120.0
            },
            {
                "start_time": 21.0227273,
                "end_time": 21.2568182,
                "pitch": 42,
                "velocity": 80,
                "duration": 0.2340909,
                "tempo": 120.0
            },
            {
                "start_time": 21.7272727,
                "end_time": 21.9590909,
                "pitch": 42,
                "velocity": 80,
                "duration": 0.2318182,
                "tempo": 120.0
            },
            {
                "start_time": 22.1954545,
                "end_time": 22.6590909,
                "pitch": 38,
                "velocity": 80,
                "duration": 0.4636364,
                "tempo": 120.0
            },
            {
                "start_time": 22.6590909,
                "end_time": 22.8886364,
                "pitch": 39,
                "velocity": 80,
                "duration": 0.2295455,
                "tempo": 120.0
            },
            {
                "start_time": 22.8886364,
                "end_time": 23.1227273,
                "pitch": 41,
                "velocity": 80,
                "duration": 0.2340909,
                "tempo": 120.0
            },
            {
                "start_time": 23.125,
                "end_time": 23.5931818,
                "pitch": 42,
                "velocity": 80,
                "duration": 0.4681818,
                "tempo": 120.0
            },
            {
                "start_time": 23.5931818,
                "end_time": 23.8272727,
                "pitch": 37,
                "velocity": 80,
                "duration": 0.2340909,
                "tempo": 120.0
            },
            {
                "start_time": 23.8295455,
                "end_time": 24.0636364,
                "pitch": 39,
                "velocity": 80,
                "duration": 0.2340909,
                "tempo": 120.0
            },
            {
                "start_time": 24.0636364,
                "end_time": 24.3,
                "pitch": 37,
                "velocity": 80,
                "duration": 0.2363636,
                "tempo": 120.0
            },
            {
                "start_time": 24.3,
                "end_time": 24.525,
                "pitch": 42,
                "velocity": 80,
                "duration": 0.225,
                "tempo": 120.0
            },
            {
                "start_time": 24.525,
                "end_time": 24.7545455,
                "pitch": 42,
                "velocity": 80,
                "duration": 0.2295455,
                "tempo": 120.0
            },
            {
                "start_time": 24.7568182,
                "end_time": 24.9886364,
                "pitch": 42,
                "velocity": 80,
                "duration": 0.2318182,
                "tempo": 120.0
            },
            {
                "start_time": 25.4613636,
                "end_time": 25.6931818,
                "pitch": 42,
                "velocity": 80,
                "duration": 0.2318182,
                "tempo": 120.0
            },
            {
                "start_time": 26.1681818,
                "end_time": 26.3931818,
                "pitch": 42,
                "velocity": 80,
                "duration": 0.225,
                "tempo": 120.0
            },
            {
                "start_time": 26.8590909,
                "end_time": 27.0909091,
                "pitch": 42,
                "velocity": 80,
                "duration": 0.2318182,
                "tempo": 120.0
            },
            {
                "start_time": 28.025,
                "end_time": 28.2545455,
                "pitch": 42,
                "velocity": 80,
                "duration": 0.2295455,
                "tempo": 120.0
            },
            {
                "start_time": 28.2545455,
                "end_time": 28.4909091,
                "pitch": 42,
                "velocity": 80,
                "duration": 0.2363636,
                "tempo": 120.0
            },
            {
                "start_time": 28.4909091,
                "end_time": 28.725,
                "pitch": 42,
                "velocity": 80,
                "duration": 0.2340909,
                "tempo": 120.0
            },
            {
                "start_time": 29.1954545,
                "end_time": 29.4272727,
                "pitch": 42,
                "velocity": 80,
                "duration": 0.2318182,
                "tempo": 120.0
            },
            {
                "start_time": 29.6636364,
                "end_time": 30.5931818,
                "pitch": 45,
                "velocity": 80,
                "duration": 0.9295455,
                "tempo": 120.0
            },
            {
                "start_time": 30.5954545,
                "end_time": 31.0568182,
                "pitch": 44,
                "velocity": 80,
                "duration": 0.4613636,
                "tempo": 120.0
            },
            {
                "start_time": 31.0568182,
                "end_time": 31.2863636,
                "pitch": 37,
                "velocity": 80,
                "duration": 0.2295455,
                "tempo": 120.0
            },
            {
                "start_time": 31.2863636,
                "end_time": 31.5204545,
                "pitch": 39,
                "velocity": 80,
                "duration": 0.2340909,
                "tempo": 120.0
            },
            {
                "start_time": 31.5227273,
                "end_time": 31.7590909,
                "pitch": 40,
                "velocity": 80,
                "duration": 0.2363636,
                "tempo": 120.0
            },
            {
                "start_time": 31.7590909,
                "end_time": 31.9886364,
                "pitch": 42,
                "velocity": 80,
                "duration": 0.2295455,
                "tempo": 120.0
            },
            {
                "start_time": 31.9909091,
                "end_time": 32.225,
                "pitch": 42,
                "velocity": 80,
                "duration": 0.2340909,
                "tempo": 120.0
            },
            {
                "start_time": 32.2272727,
                "end_time": 32.4590909,
                "pitch": 42,
                "velocity": 80,
                "duration": 0.2318182,
                "tempo": 120.0
            },
            {
                "start_time": 32.925,
                "end_time": 33.1522727,
                "pitch": 42,
                "velocity": 80,
                "duration": 0.2272727,
                "tempo": 120.0
            },
            {
                "start_time": 33.6272727,
                "end_time": 33.8568182,
                "pitch": 42,
                "velocity": 80,
                "duration": 0.2295455,
                "tempo": 120.0
            },
            {
                "start_time": 34.325,
                "end_time": 34.55,
                "pitch": 42,
                "velocity": 80,
                "duration": 0.225,
                "tempo": 120.0
            },
            {
                "start_time": 35.4954545,
                "end_time": 35.725,
                "pitch": 42,
                "velocity": 80,
                "duration": 0.2295455,
                "tempo": 120.0
            },
            {
                "start_time": 35.725,
                "end_time": 35.9613636,
                "pitch": 42,
                "velocity": 80,
                "duration": 0.2363636,
                "tempo": 120.0
            },
            {
                "start_time": 35.9613636,
                "end_time": 36.1954545,
                "pitch": 42,
                "velocity": 80,
                "duration": 0.2340909,
                "tempo": 120.0
            },
            {
                "start_time": 36.6613636,
                "end_time": 36.8886364,
                "pitch": 42,
                "velocity": 80,
                "duration": 0.2272727,
                "tempo": 120.0
            },
            {
                "start_time": 37.3636364,
                "end_time": 37.4772727,
                "pitch": 40,
                "velocity": 80,
                "duration": 0.1136364,
                "tempo": 120.0
            },
            {
                "start_time": 37.4772727,
                "end_time": 37.5954545,
                "pitch": 38,
                "velocity": 80,
                "duration": 0.1181818,
                "tempo": 120.0
            },
            {
                "start_time": 37.5954545,
                "end_time": 37.7113636,
                "pitch": 37,
                "velocity": 80,
                "duration": 0.1159091,
                "tempo": 120.0
            },
            {
                "start_time": 37.7136364,
                "end_time": 37.8295455,
                "pitch": 35,
                "velocity": 80,
                "duration": 0.1159091,
                "tempo": 120.0
            },
            {
                "start_time": 37.8295455,
                "end_time": 37.9431818,
                "pitch": 36,
                "velocity": 80,
                "duration": 0.1136364,
                "tempo": 120.0
            },
            {
                "start_time": 37.9454545,
                "end_time": 38.0590909,
                "pitch": 37,
                "velocity": 80,
                "duration": 0.1136364,
                "tempo": 120.0
            },
            {
                "start_time": 38.0613636,
                "end_time": 38.1704545,
                "pitch": 30,
                "velocity": 80,
                "duration": 0.1090909,
                "tempo": 120.0
            },
            {
                "start_time": 39.2204545,
                "end_time": 40.1568182,
                "pitch": 42,
                "velocity": 80,
                "duration": 0.9363636,
                "tempo": 120.0
            },
            {
                "start_time": 40.1590909,
                "end_time": 41.0954545,
                "pitch": 49,
                "velocity": 80,
                "duration": 0.9363636,
                "tempo": 120.0
            },
            {
                "start_time": 41.0977273,
                "end_time": 42.025,
                "pitch": 48,
                "velocity": 80,
                "duration": 0.9272727,
                "tempo": 120.0
            },
            {
                "start_time": 42.025,
                "end_time": 42.9636364,
                "pitch": 45,
                "velocity": 80,
                "duration": 0.9386364,
                "tempo": 120.0
            },
            {
                "start_time": 42.9636364,
                "end_time": 43.8931818,
                "pitch": 42,
                "velocity": 80,
                "duration": 0.9295455,
                "tempo": 120.0
            },
            {
                "start_time": 43.8931818,
                "end_time": 44.8204545,
                "pitch": 52,
                "velocity": 80,
                "duration": 0.9272727,
                "tempo": 120.0
            },
            {
                "start_time": 44.8227273,
                "end_time": 45.7613636,
                "pitch": 51,
                "velocity": 80,
                "duration": 0.9386364,
                "tempo": 120.0
            },
            {
                "start_time": 45.7613636,
                "end_time": 46.6272727,
                "pitch": 48,
                "velocity": 80,
                "duration": 0.8659091,
                "tempo": 120.0
            }
        ],
        "Electric Piano 1": [
            {
                "start_time": 0.0272727,
                "end_time": 0.325,
                "pitch": 75,
                "velocity": 80,
                "duration": 0.2977273,
                "tempo": 120.0
            },
            {
                "start_time": 0.3272727,
                "end_time": 0.6431818,
                "pitch": 70,
                "velocity": 80,
                "duration": 0.3159091,
                "tempo": 120.0
            },
            {
                "start_time": 0.6454545,
                "end_time": 0.9613636,
                "pitch": 74,
                "velocity": 80,
                "duration": 0.3159091,
                "tempo": 120.0
            },
            {
                "start_time": 0.9636364,
                "end_time": 1.3477273,
                "pitch": 73,
                "velocity": 80,
                "duration": 0.3840909,
                "tempo": 120.0
            },
            {
                "start_time": 1.35,
                "end_time": 1.6704545,
                "pitch": 67,
                "velocity": 80,
                "duration": 0.3204545,
                "tempo": 120.0
            },
            {
                "start_time": 1.6727273,
                "end_time": 2.2454545,
                "pitch": 54,
                "velocity": 80,
                "duration": 0.5727273,
                "tempo": 120.0
            },
            {
                "start_time": 2.3590909,
                "end_time": 2.475,
                "pitch": 54,
                "velocity": 80,
                "duration": 0.1159091,
                "tempo": 120.0
            },
            {
                "start_time": 3.0636364,
                "end_time": 3.1772727,
                "pitch": 54,
                "velocity": 80,
                "duration": 0.1136364,
                "tempo": 120.0
            },
            {
                "start_time": 3.5318182,
                "end_time": 4.1090909,
                "pitch": 54,
                "velocity": 80,
                "duration": 0.5772727,
                "tempo": 120.0
            },
            {
                "start_time": 4.225,
                "end_time": 4.3409091,
                "pitch": 54,
                "velocity": 80,
                "duration": 0.1159091,
                "tempo": 120.0
            },
            {
                "start_time": 4.925,
                "end_time": 5.0386364,
                "pitch": 54,
                "velocity": 80,
                "duration": 0.1136364,
                "tempo": 120.0
            },
            {
                "start_time": 5.3931818,
                "end_time": 5.9727273,
                "pitch": 54,
                "velocity": 80,
                "duration": 0.5795455,
                "tempo": 120.0
            },
            {
                "start_time": 6.0909091,
                "end_time": 6.2045455,
                "pitch": 54,
                "velocity": 80,
                "duration": 0.1136364,
                "tempo": 120.0
            },
            {
                "start_time": 6.7886364,
                "end_time": 6.9022727,
                "pitch": 54,
                "velocity": 80,
                "duration": 0.1136364,
                "tempo": 120.0
            },
            {
                "start_time": 7.2522727,
                "end_time": 7.8386364,
                "pitch": 54,
                "velocity": 80,
                "duration": 0.5863636,
                "tempo": 120.0
            },
            {
                "start_time": 7.9568182,
                "end_time": 8.0727273,
                "pitch": 54,
                "velocity": 80,
                "duration": 0.1159091,
                "tempo": 120.0
            },
            {
                "start_time": 8.6568182,
                "end_time": 8.7681818,
                "pitch": 54,
                "velocity": 80,
                "duration": 0.1113636,
                "tempo": 120.0
            },
            {
                "start_time": 9.3568182,
                "end_time": 9.5886364,
                "pitch": 54,
                "velocity": 80,
                "duration": 0.2318182,
                "tempo": 120.0
            },
            {
                "start_time": 9.5909091,
                "end_time": 9.8227273,
                "pitch": 57,
                "velocity": 80,
                "duration": 0.2318182,
                "tempo": 120.0
            },
            {
                "start_time": 10.0590909,
                "end_time": 10.2931818,
                "pitch": 54,
                "velocity": 80,
                "duration": 0.2340909,
                "tempo": 120.0
            },
            {
                "start_time": 10.2954545,
                "end_time": 10.5227273,
                "pitch": 60,
                "velocity": 80,
                "duration": 0.2272727,
                "tempo": 120.0
            },
            {
                "start_time": 10.525,
                "end_time": 10.7522727,
                "pitch": 61,
                "velocity": 80,
                "duration": 0.2272727,
                "tempo": 120.0
            },
            {
                "start_time": 10.9886364,
                "end_time": 11.2227273,
                "pitch": 54,
                "velocity": 80,
                "duration": 0.2340909,
                "tempo": 120.0
            },
            {
                "start_time": 11.4590909,
                "end_time": 11.6909091,
                "pitch": 57,
                "velocity": 80,
                "duration": 0.2318182,
                "tempo": 120.0
            },
            {
                "start_time": 11.6931818,
                "end_time": 11.925,
                "pitch": 54,
                "velocity": 80,
                "duration": 0.2318182,
                "tempo": 120.0
            },
            {
                "start_time": 11.9272727,
                "end_time": 12.8545455,
                "pitch": 60,
                "velocity": 80,
                "duration": 0.9272727,
                "tempo": 120.0
            },
            {
                "start_time": 12.8568182,
                "end_time": 13.0886364,
                "pitch": 54,
                "velocity": 80,
                "duration": 0.2318182,
                "tempo": 120.0
            },
            {
                "start_time": 13.325,
                "end_time": 13.5590909,
                "pitch": 57,
                "velocity": 80,
                "duration": 0.2340909,
                "tempo": 120.0
            },
            {
                "start_time": 13.7954545,
                "end_time": 14.0272727,
                "pitch": 54,
                "velocity": 80,
                "duration": 0.2318182,
                "tempo": 120.0
            },
            {
                "start_time": 14.0295455,
                "end_time": 14.2568182,
                "pitch": 60,
                "velocity": 80,
                "duration": 0.2272727,
                "tempo": 120.0
            },
            {
                "start_time": 14.2590909,
                "end_time": 14.4863636,
                "pitch": 61,
                "velocity": 80,
                "duration": 0.2272727,
                "tempo": 120.0
            },
            {
                "start_time": 14.7227273,
                "end_time": 15.1909091,
                "pitch": 64,
                "velocity": 80,
                "duration": 0.4681818,
                "tempo": 120.0
            },
            {
                "start_time": 15.1931818,
                "end_time": 15.425,
                "pitch": 63,
                "velocity": 80,
                "duration": 0.2318182,
                "tempo": 120.0
            },
            {
                "start_time": 15.4272727,
                "end_time": 15.6613636,
                "pitch": 61,
                "velocity": 80,
                "duration": 0.2340909,
                "tempo": 120.0
            },
            {
                "start_time": 15.6636364,
                "end_time": 16.3545455,
                "pitch": 63,
                "velocity": 80,
                "duration": 0.6909091,
                "tempo": 120.0
            },
            {
                "start_time": 16.8272727,
                "end_time": 17.0590909,
                "pitch": 54,
                "velocity": 80,
                "duration": 0.2318182,
                "tempo": 120.0
            },
            {
                "start_time": 17.0613636,
                "end_time": 17.2931818,
                "pitch": 57,
                "velocity": 80,
                "duration": 0.2318182,
                "tempo": 120.0
            },
            {
                "start_time": 17.525,
                "end_time": 17.7522727,
                "pitch": 54,
                "velocity": 80,
                "duration": 0.2272727,
                "tempo": 120.0
            },
            {
                "start_time": 17.7545455,
                "end_time": 17.9863636,
                "pitch": 60,
                "velocity": 80,
                "duration": 0.2318182,
                "tempo": 120.0
            },
            {
                "start_time": 17.9886364,
                "end_time": 18.2227273,
                "pitch": 61,
                "velocity": 80,
                "duration": 0.2340909,
                "tempo": 120.0
            },
            {
                "start_time": 18.4590909,
                "end_time": 18.6931818,
                "pitch": 54,
                "velocity": 80,
                "duration": 0.2340909,
                "tempo": 120.0
            },
            {
                "start_time": 18.9272727,
                "end_time": 19.1613636,
                "pitch": 57,
                "velocity": 80,
                "duration": 0.2340909,
                "tempo": 120.0
            },
            {
                "start_time": 19.1636364,
                "end_time": 19.3909091,
                "pitch": 54,
                "velocity": 80,
                "duration": 0.2272727,
                "tempo": 120.0
            },
            {
                "start_time": 19.3931818,
                "end_time": 20.325,
                "pitch": 60,
                "velocity": 80,
                "duration": 0.9318182,
                "tempo": 120.0
            },
            {
                "start_time": 20.3272727,
                "end_time": 20.5590909,
                "pitch": 65,
                "velocity": 80,
                "duration": 0.2318182,
                "tempo": 120.0
            },
            {
                "start_time": 20.5613636,
                "end_time": 20.6727273,
                "pitch": 66,
                "velocity": 80,
                "duration": 0.1113636,
                "tempo": 120.0
            },
            {
                "start_time": 20.7909091,
                "end_time": 21.0181818,
                "pitch": 60,
                "velocity": 80,
                "duration": 0.2272727,
                "tempo": 120.0
            },
            {
                "start_time": 21.0204545,
                "end_time": 21.1363636,
                "pitch": 61,
                "velocity": 80,
                "duration": 0.1159091,
                "tempo": 120.0
            },
            {
                "start_time": 21.2545455,
                "end_time": 21.4886364,
                "pitch": 56,
                "velocity": 80,
                "duration": 0.2340909,
                "tempo": 120.0
            },
            {
                "start_time": 21.4886364,
                "end_time": 21.6045455,
                "pitch": 57,
                "velocity": 80,
                "duration": 0.1159091,
                "tempo": 120.0
            },
            {
                "start_time": 21.725,
                "end_time": 21.9568182,
                "pitch": 54,
                "velocity": 80,
                "duration": 0.2318182,
                "tempo": 120.0
            },
            {
                "start_time": 22.1931818,
                "end_time": 23.1204545,
                "pitch": 57,
                "velocity": 80,
                "duration": 0.9272727,
                "tempo": 120.0
            },
            {
                "start_time": 23.1227273,
                "end_time": 24.2954545,
                "pitch": 54,
                "velocity": 80,
                "duration": 1.1727273,
                "tempo": 120.0
            },
            {
                "start_time": 24.2977273,
                "end_time": 24.4409091,
                "pitch": 60,
                "velocity": 101,
                "duration": 0.1431818,
                "tempo": 120.0
            },
            {
                "start_time": 24.4431818,
                "end_time": 24.5886364,
                "pitch": 61,
                "velocity": 101,
                "duration": 0.1454545,
                "tempo": 120.0
            },
            {
                "start_time": 24.5909091,
                "end_time": 24.7522727,
                "pitch": 57,
                "velocity": 101,
                "duration": 0.1613636,
                "tempo": 120.0
            },
            {
                "start_time": 24.7545455,
                "end_time": 24.9045455,
                "pitch": 60,
                "velocity": 101,
                "duration": 0.15,
                "tempo": 120.0
            },
            {
                "start_time": 24.9045455,
                "end_time": 25.0545455,
                "pitch": 61,
                "velocity": 101,
                "duration": 0.15,
                "tempo": 120.0
            },
            {
                "start_time": 25.0568182,
                "end_time": 25.2227273,
                "pitch": 57,
                "velocity": 101,
                "duration": 0.1659091,
                "tempo": 120.0
            },
            {
                "start_time": 25.2227273,
                "end_time": 25.4568182,
                "pitch": 60,
                "velocity": 101,
                "duration": 0.2340909,
                "tempo": 120.0
            },
            {
                "start_time": 25.4590909,
                "end_time": 25.6931818,
                "pitch": 61,
                "velocity": 101,
                "duration": 0.2340909,
                "tempo": 120.0
            },
            {
                "start_time": 26.1636364,
                "end_time": 26.3909091,
                "pitch": 54,
                "velocity": 64,
                "duration": 0.2272727,
                "tempo": 120.0
            },
            {
                "start_time": 26.8568182,
                "end_time": 27.0909091,
                "pitch": 54,
                "velocity": 64,
                "duration": 0.2340909,
                "tempo": 120.0
            },
            {
                "start_time": 28.0204545,
                "end_time": 28.1704545,
                "pitch": 60,
                "velocity": 101,
                "duration": 0.15,
                "tempo": 120.0
            },
            {
                "start_time": 28.1704545,
                "end_time": 28.3204545,
                "pitch": 61,
                "velocity": 101,
                "duration": 0.15,
                "tempo": 120.0
            },
            {
                "start_time": 28.3204545,
                "end_time": 28.4886364,
                "pitch": 57,
                "velocity": 101,
                "duration": 0.1681818,
                "tempo": 120.0
            },
            {
                "start_time": 28.4886364,
                "end_time": 28.6386364,
                "pitch": 60,
                "velocity": 101,
                "duration": 0.15,
                "tempo": 120.0
            },
            {
                "start_time": 28.6409091,
                "end_time": 28.7909091,
                "pitch": 61,
                "velocity": 101,
                "duration": 0.15,
                "tempo": 120.0
            },
            {
                "start_time": 28.7909091,
                "end_time": 28.9590909,
                "pitch": 57,
                "velocity": 101,
                "duration": 0.1681818,
                "tempo": 120.0
            },
            {
                "start_time": 28.9590909,
                "end_time": 29.1931818,
                "pitch": 60,
                "velocity": 101,
                "duration": 0.2340909,
                "tempo": 120.0
            },
            {
                "start_time": 29.1931818,
                "end_time": 29.4272727,
                "pitch": 61,
                "velocity": 101,
                "duration": 0.2340909,
                "tempo": 120.0
            },
            {
                "start_time": 29.6590909,
                "end_time": 30.5909091,
                "pitch": 64,
                "velocity": 64,
                "duration": 0.9318182,
                "tempo": 120.0
            },
            {
                "start_time": 30.5931818,
                "end_time": 31.7545455,
                "pitch": 63,
                "velocity": 64,
                "duration": 1.1613636,
                "tempo": 120.0
            },
            {
                "start_time": 31.7568182,
                "end_time": 31.9045455,
                "pitch": 60,
                "velocity": 101,
                "duration": 0.1477273,
                "tempo": 120.0
            },
            {
                "start_time": 31.9045455,
                "end_time": 32.0568182,
                "pitch": 61,
                "velocity": 101,
                "duration": 0.1522727,
                "tempo": 120.0
            },
            {
                "start_time": 32.0568182,
                "end_time": 32.2227273,
                "pitch": 57,
                "velocity": 101,
                "duration": 0.1659091,
                "tempo": 120.0
            },
            {
                "start_time": 32.225,
                "end_time": 32.375,
                "pitch": 60,
                "velocity": 101,
                "duration": 0.15,
                "tempo": 120.0
            },
            {
                "start_time": 32.375,
                "end_time": 32.525,
                "pitch": 61,
                "velocity": 101,
                "duration": 0.15,
                "tempo": 120.0
            },
            {
                "start_time": 32.5272727,
                "end_time": 32.6931818,
                "pitch": 57,
                "velocity": 101,
                "duration": 0.1659091,
                "tempo": 120.0
            },
            {
                "start_time": 32.6931818,
                "end_time": 32.9227273,
                "pitch": 60,
                "velocity": 101,
                "duration": 0.2295455,
                "tempo": 120.0
            },
            {
                "start_time": 32.9227273,
                "end_time": 33.1522727,
                "pitch": 61,
                "velocity": 101,
                "duration": 0.2295455,
                "tempo": 120.0
            },
            {
                "start_time": 33.625,
                "end_time": 33.8568182,
                "pitch": 54,
                "velocity": 64,
                "duration": 0.2318182,
                "tempo": 120.0
            },
            {
                "start_time": 34.3227273,
                "end_time": 34.55,
                "pitch": 54,
                "velocity": 64,
                "duration": 0.2272727,
                "tempo": 120.0
            },
            {
                "start_time": 35.4909091,
                "end_time": 35.6409091,
                "pitch": 60,
                "velocity": 101,
                "duration": 0.15,
                "tempo": 120.0
            },
            {
                "start_time": 35.6409091,
                "end_time": 35.7909091,
                "pitch": 61,
                "velocity": 101,
                "duration": 0.15,
                "tempo": 120.0
            },
            {
                "start_time": 35.7909091,
                "end_time": 35.9590909,
                "pitch": 57,
                "velocity": 101,
                "duration": 0.1681818,
                "tempo": 120.0
            },
            {
                "start_time": 35.9590909,
                "end_time": 36.1090909,
                "pitch": 60,
                "velocity": 101,
                "duration": 0.15,
                "tempo": 120.0
            },
            {
                "start_time": 36.1113636,
                "end_time": 36.2613636,
                "pitch": 61,
                "velocity": 101,
                "duration": 0.15,
                "tempo": 120.0
            },
            {
                "start_time": 36.2613636,
                "end_time": 36.4295455,
                "pitch": 57,
                "velocity": 101,
                "duration": 0.1681818,
                "tempo": 120.0
            },
            {
                "start_time": 36.4295455,
                "end_time": 36.6568182,
                "pitch": 60,
                "velocity": 101,
                "duration": 0.2272727,
                "tempo": 120.0
            },
            {
                "start_time": 36.6590909,
                "end_time": 36.8863636,
                "pitch": 61,
                "velocity": 101,
                "duration": 0.2272727,
                "tempo": 120.0
            },
            {
                "start_time": 37.3590909,
                "end_time": 37.475,
                "pitch": 64,
                "velocity": 64,
                "duration": 0.1159091,
                "tempo": 120.0
            },
            {
                "start_time": 37.475,
                "end_time": 37.5909091,
                "pitch": 62,
                "velocity": 64,
                "duration": 0.1159091,
                "tempo": 120.0
            },
            {
                "start_time": 37.5931818,
                "end_time": 37.7090909,
                "pitch": 61,
                "velocity": 64,
                "duration": 0.1159091,
                "tempo": 120.0
            },
            {
                "start_time": 37.7113636,
                "end_time": 37.8272727,
                "pitch": 59,
                "velocity": 64,
                "duration": 0.1159091,
                "tempo": 120.0
            },
            {
                "start_time": 37.8272727,
                "end_time": 37.9409091,
                "pitch": 60,
                "velocity": 64,
                "duration": 0.1136364,
                "tempo": 120.0
            },
            {
                "start_time": 37.9431818,
                "end_time": 38.0568182,
                "pitch": 61,
                "velocity": 64,
                "duration": 0.1136364,
                "tempo": 120.0
            },
            {
                "start_time": 38.0568182,
                "end_time": 38.1704545,
                "pitch": 54,
                "velocity": 64,
                "duration": 0.1136364,
                "tempo": 120.0
            },
            {
                "start_time": 39.2159091,
                "end_time": 40.1522727,
                "pitch": 42,
                "velocity": 80,
                "duration": 0.9363636,
                "tempo": 120.0
            },
            {
                "start_time": 40.1545455,
                "end_time": 41.0931818,
                "pitch": 49,
                "velocity": 80,
                "duration": 0.9386364,
                "tempo": 120.0
            },
            {
                "start_time": 41.0931818,
                "end_time": 42.0204545,
                "pitch": 48,
                "velocity": 80,
                "duration": 0.9272727,
                "tempo": 120.0
            },
            {
                "start_time": 42.0227273,
                "end_time": 42.9590909,
                "pitch": 45,
                "velocity": 80,
                "duration": 0.9363636,
                "tempo": 120.0
            },
            {
                "start_time": 42.9613636,
                "end_time": 43.8886364,
                "pitch": 42,
                "velocity": 80,
                "duration": 0.9272727,
                "tempo": 120.0
            },
            {
                "start_time": 43.8909091,
                "end_time": 44.8159091,
                "pitch": 52,
                "velocity": 80,
                "duration": 0.925,
                "tempo": 120.0
            },
            {
                "start_time": 44.8181818,
                "end_time": 45.7568182,
                "pitch": 51,
                "velocity": 80,
                "duration": 0.9386364,
                "tempo": 120.0
            },
            {
                "start_time": 45.7568182,
                "end_time": 46.6272727,
                "pitch": 48,
                "velocity": 80,
                "duration": 0.8704545,
                "tempo": 120.0
            }
        ]
    }
}