{
    "mood": "happy",
    "instruments": {
        "Trumpet": [
            {
                "start_time": 0.0090909,
                "end_time": 0.5204545,
                "pitch": 63,
                "velocity": 40,
                "duration": 0.5113636,
                "tempo": 120.0
            },
            {
                "start_time": 0.6090909,
                "end_time": 0.6681818,
                "pitch": 63,
                "velocity": 40,
                "duration": 0.0590909,
                "tempo": 120.0
            },
            {
                "start_time": 0.8068182,
                "end_time": 1.3113636,
                "pitch": 67,
                "velocity": 40,
                "duration": 0.5045455,
                "tempo": 120.0
            },
            {
                "start_time": 1.4022727,
                "end_time": 1.4522727,
                "pitch": 63,
                "velocity": 40,
                "duration": 0.05,
                "tempo": 120.0
            },
            {
                "start_time": 1.6022727,
                "end_time": 2.0045455,
                "pitch": 67,
                "velocity": 40,
                "duration": 0.4022727,
                "tempo": 120.0
            },
            {
                "start_time": 2.0045455,
                "end_time": 2.0545455,
                "pitch": 65,
                "velocity": 40,
                "duration": 0.05,
                "tempo": 120.0
            },
            {
                "start_time": 2.2045455,
                "end_time": 2.2545455,
                "pitch": 65,
                "velocity": 40,
                "duration": 0.05,
                "tempo": 120.0
            },
            {
                "start_time": 2.4045455,
                "end_time": 2.7545455,
                "pitch": 63,
                "velocity": 40,
                "duration": 0.35,
                "tempo": 120.0
            },
            {
                "start_time": 2.8045455,
                "end_time": 3.1545455,
                "pitch": 59,
                "velocity": 40,
                "duration": 0.35,
                "tempo": 120.0
            },
            {
                "start_time": 3.2045455,
                "end_time": 3.7159091,
                "pitch": 65,
                "velocity": 40,
                "duration": 0.5113636,
                "tempo": 120.0
            },
            {
                "start_time": 3.8068182,
                "end_time": 3.8681818,
                "pitch": 67,
                "velocity": 40,
                "duration": 0.0613636,
                "tempo": 120.0
            },
            {
                "start_time": 4.0068182,
                "end_time": 4.6068182,
                "pitch": 67,
                "velocity": 40,
                "duration": 0.6,
                "tempo": 120.0
            },
            {
                "start_time": 4.6068182,
                "end_time": 4.6568182,
                "pitch": 65,
                "velocity": 40,
                "duration": 0.05,
                "tempo": 120.0
            },
            {
                "start_time": 4.8090909,
                "end_time": 5.0590909,
                "pitch": 68,
                "velocity": 40,
                "duration": 0.25,
                "tempo": 120.0
            },
            {
                "start_time": 5.2090909,
                "end_time": 5.2704545,
                "pitch": 68,
                "velocity": 40,
                "duration": 0.0613636,
                "tempo": 120.0
            },
            {
                "start_time": 5.4090909,
                "end_time": 5.4704545,
                "pitch": 65,
                "velocity": 40,
                "duration": 0.0613636,
                "tempo": 120.0
            },
            {
                "start_time": 5.6113636,
                "end_time": 6.2136364,
                "pitch": 65,
                "velocity": 40,
                "duration": 0.6022727,
                "tempo": 120.0
            },
            {
                "start_time": 6.4136364,
                "end_time": 6.7159091,
                "pitch": 70,
                "velocity": 40,
                "duration": 0.3022727,
                "tempo": 120.0
            },
            {
                "start_time": 6.8159091,
                "end_time": 7.1181818,
                "pitch": 75,
                "velocity": 40,
                "duration": 0.3022727,
                "tempo": 120.0
            },
            {
                "start_time": 7.2181818,
                "end_time": 7.5181818,
                "pitch": 75,
                "velocity": 40,
                "duration": 0.3,
                "tempo": 120.0
            },
            {
                "start_time": 7.6204545,
                "end_time": 7.6795455,
                "pitch": 74,
                "velocity": 40,
                "duration": 0.0590909,
                "tempo": 120.0
            },
            {
                "start_time": 7.8204545,
                "end_time": 7.8818182,
                "pitch": 75,
                "velocity": 40,
                "duration": 0.0613636,
                "tempo": 120.0
            },
            {
                "start_time": 8.0204545,
                "end_time": 8.4227273,
                "pitch": 74,
                "velocity": 40,
                "duration": 0.4022727,
                "tempo": 120.0
            },
            {
                "start_time": 8.4227273,
                "end_time": 8.4818182,
                "pitch": 70,
                "velocity": 40,
                "duration": 0.0590909,
                "tempo": 120.0
            },
            {
                "start_time": 8.6227273,
                "end_time": 8.6840909,
                "pitch": 70,
                "velocity": 40,
                "duration": 0.0613636,
                "tempo": 120.0
            },
            {
                "start_time": 8.8227273,
                "end_time": 9.175,
                "pitch": 68,
                "velocity": 40,
                "duration": 0.3522727,
                "tempo": 120.0
            },
            {
                "start_time": 9.225,
                "end_time": 9.6886364,
                "pitch": 63,
                "velocity": 40,
                "duration": 0.4636364,
                "tempo": 120.0
            },
            {
                "start_time": 9.8295455,
                "end_time": 10.1818182,
                "pitch": 72,
                "velocity": 40,
                "duration": 0.3522727,
                "tempo": 120.0
            },
            {
                "start_time": 10.2318182,
                "end_time": 10.2840909,
                "pitch": 68,
                "velocity": 40,
                "duration": 0.0522727,
                "tempo": 120.0
            },
            {
                "start_time": 10.4409091,
                "end_time": 11.0159091,
                "pitch": 68,
                "velocity": 40,
                "duration": 0.575,
                "tempo": 120.0
            },
            {
                "start_time": 11.125,
                "end_time": 11.1863636,
                "pitch": 67,
                "velocity": 40,
                "duration": 0.0613636,
                "tempo": 120.0
            },
            {
                "start_time": 11.3727273,
                "end_time": 11.4954545,
                "pitch": 65,
                "velocity": 40,
                "duration": 0.1227273,
                "tempo": 120.0
            },
            {
                "start_time": 11.6181818,
                "end_time": 11.7409091,
                "pitch": 59,
                "velocity": 40,
                "duration": 0.1227273,
                "tempo": 120.0
            },
            {
                "start_time": 11.8636364,
                "end_time": 11.9681818,
                "pitch": 67,
                "velocity": 40,
                "duration": 0.1045455,
                "tempo": 120.0
            },
            {
                "start_time": 12.0704545,
                "end_time": 12.1318182,
                "pitch": 65,
                "velocity": 40,
                "duration": 0.0613636,
                "tempo": 120.0
            },
            {
                "start_time": 12.2772727,
                "end_time": 12.3795455,
                "pitch": 65,
                "velocity": 40,
                "duration": 0.1022727,
                "tempo": 120.0
            },
            {
                "start_time": 14.6863636,
                "end_time": 14.9386364,
                "pitch": 67,
                "velocity": 40,
                "duration": 0.2522727,
                "tempo": 120.0
            },
            {
                "start_time": 15.0886364,
                "end_time": 15.3522727,
                "pitch": 67,
                "velocity": 40,
                "duration": 0.2636364,
                "tempo": 120.0
            },
            {
                "start_time": 15.5090909,
                "end_time": 15.6227273,
                "pitch": 67,
                "velocity": 40,
                "duration": 0.1136364,
                "tempo": 120.0
            },
            {
                "start_time": 15.7136364,
                "end_time": 15.7727273,
                "pitch": 65,
                "velocity": 40,
                "duration": 0.0590909,
                "tempo": 120.0
            },
            {
                "start_time": 15.9136364,
                "end_time": 15.9636364,
                "pitch": 65,
                "velocity": 40,
                "duration": 0.05,
                "tempo": 120.0
            },
            {
                "start_time": 16.1113636,
                "end_time": 16.1590909,
                "pitch": 63,
                "velocity": 40,
                "duration": 0.0477273,
                "tempo": 120.0
            },
            {
                "start_time": 16.2681818,
                "end_time": 17.7068182,
                "pitch": 62,
                "velocity": 40,
                "duration": 1.4386364,
                "tempo": 120.0
            },
            {
                "start_time": 17.9022727,
                "end_time": 18.1522727,
                "pitch": 60,
                "velocity": 40,
                "duration": 0.25,
                "tempo": 120.0
            },
            {
                "start_time": 18.3045455,
                "end_time": 18.5659091,
                "pitch": 60,
                "velocity": 40,
                "duration": 0.2613636,
                "tempo": 120.0
            },
            {
                "start_time": 18.725,
                "end_time": 18.8272727,
                "pitch": 60,
                "velocity": 40,
                "duration": 0.1022727,
                "tempo": 120.0
            },
            {
                "start_time": 18.9272727,
                "end_time": 18.9886364,
                "pitch": 58,
                "velocity": 40,
                "duration": 0.0613636,
                "tempo": 120.0
            },
            {
                "start_time": 19.1295455,
                "end_time": 19.1886364,
                "pitch": 58,
                "velocity": 40,
                "duration": 0.0590909,
                "tempo": 120.0
            },
            {
                "start_time": 19.3272727,
                "end_time": 19.4045455,
                "pitch": 56,
                "velocity": 40,
                "duration": 0.0772727,
                "tempo": 120.0
            },
            {
                "start_time": 19.4840909,
                "end_time": 19.5227273,
                "pitch": 55,
                "velocity": 40,
                "duration": 0.0386364,
                "tempo": 120.0
            },
            {
                "start_time": 19.5227273,
                "end_time": 19.7681818,
                "pitch": 47,
                "velocity": 40,
                "duration": 0.2454545,
                "tempo": 120.0
            },
            {
                "start_time": 19.9136364,
                "end_time": 20.2227273,
                "pitch": 47,
                "velocity": 40,
                "duration": 0.3090909,
                "tempo": 120.0
            },
            {
                "start_time": 20.325,
                "end_time": 20.425,
                "pitch": 47,
                "velocity": 40,
                "duration": 0.1,
                "tempo": 120.0
            },
            {
                "start_time": 20.5272727,
                "end_time": 20.6068182,
                "pitch": 47,
                "velocity": 25,
                "duration": 0.0795455,
                "tempo": 120.0
            },
            {
                "start_time": 20.7272727,
                "end_time": 20.7886364,
                "pitch": 48,
                "velocity": 40,
                "duration": 0.0613636,
                "tempo": 120.0
            },
            {
                "start_time": 20.9272727,
                "end_time": 21.0068182,
                "pitch": 53,
                "velocity": 40,
                "duration": 0.0795455,
                "tempo": 120.0
            },
            {
                "start_time": 21.0886364,
                "end_time": 22.0954545,
                "pitch": 53,
                "velocity": 40,
                "duration": 1.0068182,
                "tempo": 120.0
            },
            {
                "start_time": 22.1363636,
                "end_time": 22.2181818,
                "pitch": 48,
                "velocity": 40,
                "duration": 0.0818182,
                "tempo": 120.0
            },
            {
                "start_time": 22.3204545,
                "end_time": 22.4204545,
                "pitch": 48,
                "velocity": 25,
                "duration": 0.1,
                "tempo": 120.0
            },
            {
                "start_time": 22.5386364,
                "end_time": 22.5863636,
                "pitch": 50,
                "velocity": 40,
                "duration": 0.0477273,
                "tempo": 120.0
            },
            {
                "start_time": 22.6954545,
                "end_time": 23.0272727,
                "pitch": 51,
                "velocity": 40,
                "duration": 0.3318182,
                "tempo": 120.0
            },
            {
                "start_time": 23.1272727,
                "end_time": 23.3818182,
                "pitch": 53,
                "velocity": 40,
                "duration": 0.2545455,
                "tempo": 120.0
            },
            {
                "start_time": 23.5363636,
                "end_time": 23.6363636,
                "pitch": 53,
                "velocity": 40,
                "duration": 0.1,
                "tempo": 120.0
            },
            {
                "start_time": 23.7181818,
                "end_time": 23.7886364,
                "pitch": 56,
                "velocity": 40,
                "duration": 0.0704545,
                "tempo": 120.0
            },
            {
                "start_time": 23.7977273,
                "end_time": 24.0386364,
                "pitch": 56,
                "velocity": 40,
                "duration": 0.2409091,
                "tempo": 120.0
            },
            {
                "start_time": 24.1386364,
                "end_time": 24.2204545,
                "pitch": 53,
                "velocity": 40,
                "duration": 0.0818182,
                "tempo": 120.0
            },
            {
                "start_time": 24.3,
                "end_time": 24.3386364,
                "pitch": 53,
                "velocity": 40,
                "duration": 0.0386364,
                "tempo": 120.0
            },
            {
                "start_time": 24.3386364,
                "end_time": 25.0454545,
                "pitch": 55,
                "velocity": 40,
                "duration": 0.7068182,
                "tempo": 120.0
            },
            {
                "start_time": 25.1522727,
                "end_time": 25.35,
                "pitch": 62,
                "velocity": 40,
                "duration": 0.1977273,
                "tempo": 120.0
            },
            {
                "start_time": 25.4090909,
                "end_time": 25.5454545,
                "pitch": 62,
                "velocity": 40,
                "duration": 0.1363636,
                "tempo": 120.0
            },
            {
                "start_time": 25.5454545,
                "end_time": 25.7272727,
                "pitch": 79,
                "velocity": 40,
                "duration": 0.1818182,
                "tempo": 120.0
            },
            {
                "start_time": 25.9068182,
                "end_time": 25.9477273,
                "pitch": 79,
                "velocity": 40,
                "duration": 0.0409091,
                "tempo": 120.0
            },
            {
                "start_time": 25.9477273,
                "end_time": 26.2431818,
                "pitch": 70,
                "velocity": 40,
                "duration": 0.2954545,
                "tempo": 120.0
            },
            {
                "start_time": 26.3409091,
                "end_time": 26.6477273,
                "pitch": 75,
                "velocity": 40,
                "duration": 0.3068182,
                "tempo": 120.0
            },
            {
                "start_time": 26.75,
                "end_time": 27.05,
                "pitch": 75,
                "velocity": 40,
                "duration": 0.3,
                "tempo": 120.0
            },
            {
                "start_time": 27.15,
                "end_time": 27.2113636,
                "pitch": 74,
                "velocity": 40,
                "duration": 0.0613636,
                "tempo": 120.0
            },
            {
                "start_time": 27.35,
                "end_time": 27.4,
                "pitch": 75,
                "velocity": 40,
                "duration": 0.05,
                "tempo": 120.0
            },
            {
                "start_time": 27.5113636,
                "end_time": 27.9431818,
                "pitch": 74,
                "velocity": 40,
                "duration": 0.4318182,
                "tempo": 120.0
            },
            {
                "start_time": 27.9431818,
                "end_time": 28.0045455,
                "pitch": 70,
                "velocity": 40,
                "duration": 0.0613636,
                "tempo": 120.0
            },
            {
                "start_time": 28.1477273,
                "end_time": 28.2090909,
                "pitch": 70,
                "velocity": 40,
                "duration": 0.0613636,
                "tempo": 120.0
            },
            {
                "start_time": 28.3522727,
                "end_time": 28.7159091,
                "pitch": 68,
                "velocity": 40,
                "duration": 0.3636364,
                "tempo": 120.0
            },
            {
                "start_time": 28.7568182,
                "end_time": 29.225,
                "pitch": 63,
                "velocity": 40,
                "duration": 0.4681818,
                "tempo": 120.0
            },
            {
                "start_time": 29.3590909,
                "end_time": 29.7045455,
                "pitch": 72,
                "velocity": 40,
                "duration": 0.3454545,
                "tempo": 120.0
            },
            {
                "start_time": 29.7568182,
                "end_time": 29.8113636,
                "pitch": 68,
                "velocity": 40,
                "duration": 0.0545455,
                "tempo": 120.0
            },
            {
                "start_time": 29.9681818,
                "end_time": 30.4704545,
                "pitch": 68,
                "velocity": 40,
                "duration": 0.5022727,
                "tempo": 120.0
            },
            {
                "start_time": 30.5590909,
                "end_time": 30.6068182,
                "pitch": 67,
                "velocity": 40,
                "duration": 0.0477273,
                "tempo": 120.0
            },
            {
                "start_time": 30.7159091,
                "end_time": 30.7545455,
                "pitch": 67,
                "velocity": 40,
                "duration": 0.0386364,
                "tempo": 120.0
            },
            {
                "start_time": 30.7545455,
                "end_time": 30.8522727,
                "pitch": 65,
                "velocity": 40,
                "duration": 0.0977273,
                "tempo": 120.0
            },
            {
                "start_time": 30.95,
                "end_time": 31.05,
                "pitch": 59,
                "velocity": 40,
                "duration": 0.1,
                "tempo": 120.0
            },
            {
                "start_time": 31.1477273,
                "end_time": 31.2522727,
                "pitch": 67,
                "velocity": 40,
                "duration": 0.1045455,
                "tempo": 120.0
            },
            {
                "start_time": 31.3568182,
                "end_time": 31.4204545,
                "pitch": 65,
                "velocity": 40,
                "duration": 0.0636364,
                "tempo": 120.0
            },
            {
                "start_time": 31.5681818,
                "end_time": 31.6704545,
                "pitch": 65,
                "velocity": 40,
                "duration": 0.1022727,
                "tempo": 120.0
            },
            {
                "start_time": 31.8318182,
                "end_time": 33.0659091,
                "pitch": 63,
                "velocity": 40,
                "duration": 1.2340909,
                "tempo": 120.0
            },
            {
                "start_time": 33.1772727,
                "end_time": 33.2363636,
                "pitch": 63,
                "velocity": 40,
                "duration": 0.0590909,
                "tempo": 120.0
            }
        ],
        "Violin": [
            {
                "start_time": 0.2090909,
                "end_time": 0.3090909,
                "pitch": 75,
                "velocity": 127,
                "duration": 0.1,
                "tempo": 120.0
            }
        ]
    }
}