{
    "mood": "happy",
    "instruments": {
        "Harpsichord": [
            {
                "start_time": 0.0113636,
                "end_time": 0.1704545,
                "pitch": 60,
                "velocity": 64,
                "duration": 0.1590909,
                "tempo": 120.0
            },
            {
                "start_time": 0.1704545,
                "end_time": 0.3386364,
                "pitch": 63,
                "velocity": 64,
                "duration": 0.1681818,
                "tempo": 120.0
            },
            {
                "start_time": 0.3386364,
                "end_time": 0.5113636,
                "pitch": 62,
                "velocity": 64,
                "duration": 0.1727273,
                "tempo": 120.0
            },
            {
                "start_time": 0.5113636,
                "end_time": 0.6840909,
                "pitch": 60,
                "velocity": 64,
                "duration": 0.1727273,
                "tempo": 120.0
            },
            {
                "start_time": 0.6840909,
                "end_time": 1.1863636,
                "pitch": 72,
                "velocity": 64,
                "duration": 0.5022727,
                "tempo": 120.0
            },
            {
                "start_time": 1.1863636,
                "end_time": 1.5272727,
                "pitch": 60,
                "velocity": 64,
                "duration": 0.3409091,
                "tempo": 120.0
            },
            {
                "start_time": 1.5272727,
                "end_time": 1.6977273,
                "pitch": 63,
                "velocity": 64,
                "duration": 0.1704545,
                "tempo": 120.0
            },
            {
                "start_time": 1.7,
                "end_time": 1.8659091,
                "pitch": 62,
                "velocity": 64,
                "duration": 0.1659091,
                "tempo": 120.0
            },
            {
                "start_time": 1.8681818,
                "end_time": 2.0340909,
                "pitch": 60,
                "velocity": 64,
                "duration": 0.1659091,
                "tempo": 120.0
            },
            {
                "start_time": 2.0340909,
                "end_time": 2.5431818,
                "pitch": 58,
                "velocity": 64,
                "duration": 0.5090909,
                "tempo": 120.0
            },
            {
                "start_time": 2.5431818,
                "end_time": 2.8818182,
                "pitch": 60,
                "velocity": 64,
                "duration": 0.3386364,
                "tempo": 120.0
            },
            {
                "start_time": 2.8818182,
                "end_time": 3.05,
                "pitch": 63,
                "velocity": 64,
                "duration": 0.1681818,
                "tempo": 120.0
            },
            {
                "start_time": 3.05,
                "end_time": 3.2227273,
                "pitch": 62,
                "velocity": 64,
                "duration": 0.1727273,
                "tempo": 120.0
            },
            {
                "start_time": 3.2227273,
                "end_time": 3.3954545,
                "pitch": 60,
                "velocity": 64,
                "duration": 0.1727273,
                "tempo": 120.0
            },
            {
                "start_time": 3.3954545,
                "end_time": 3.5636364,
                "pitch": 72,
                "velocity": 64,
                "duration": 0.1681818,
                "tempo": 120.0
            },
            {
                "start_time": 3.5636364,
                "end_time": 3.7295455,
                "pitch": 60,
                "velocity": 64,
                "duration": 0.1659091,
                "tempo": 120.0
            },
            {
                "start_time": 3.7295455,
                "end_time": 3.8977273,
                "pitch": 70,
                "velocity": 64,
                "duration": 0.1681818,
                "tempo": 120.0
            },
            {
                "start_time": 3.8977273,
                "end_time": 4.0659091,
                "pitch": 60,
                "velocity": 64,
                "duration": 0.1681818,
                "tempo": 120.0
            },
            {
                "start_time": 4.0659091,
                "end_time": 4.2386364,
                "pitch": 68,
                "velocity": 64,
                "duration": 0.1727273,
                "tempo": 120.0
            },
            {
                "start_time": 4.2386364,
                "end_time": 4.4090909,
                "pitch": 60,
                "velocity": 64,
                "duration": 0.1704545,
                "tempo": 120.0
            },
            {
                "start_time": 4.4113636,
                "end_time": 4.5772727,
                "pitch": 67,
                "velocity": 64,
                "duration": 0.1659091,
                "tempo": 120.0
            },
            {
                "start_time": 4.5772727,
                "end_time": 4.9136364,
                "pitch": 65,
                "velocity": 64,
                "duration": 0.3363636,
                "tempo": 120.0
            },
            {
                "start_time": 4.9136364,
                "end_time": 5.0818182,
                "pitch": 63,
                "velocity": 64,
                "duration": 0.1681818,
                "tempo": 120.0
            },
            {
                "start_time": 5.0818182,
                "end_time": 5.2545455,
                "pitch": 62,
                "velocity": 64,
                "duration": 0.1727273,
                "tempo": 120.0
            },
            {
                "start_time": 5.2545455,
                "end_time": 5.5931818,
                "pitch": 60,
                "velocity": 64,
                "duration": 0.3386364,
                "tempo": 120.0
            },
            {
                "start_time": 5.5931818,
                "end_time": 5.7613636,
                "pitch": 63,
                "velocity": 64,
                "duration": 0.1681818,
                "tempo": 120.0
            },
            {
                "start_time": 5.7613636,
                "end_time": 5.9340909,
                "pitch": 62,
                "velocity": 64,
                "duration": 0.1727273,
                "tempo": 120.0
            },
            {
                "start_time": 5.9340909,
                "end_time": 6.1068182,
                "pitch": 60,
                "velocity": 64,
                "duration": 0.1727273,
                "tempo": 120.0
            },
            {
                "start_time": 6.1068182,
                "end_time": 6.6090909,
                "pitch": 72,
                "velocity": 64,
                "duration": 0.5022727,
                "tempo": 120.0
            },
            {
                "start_time": 6.6090909,
                "end_time": 6.95,
                "pitch": 60,
                "velocity": 64,
                "duration": 0.3409091,
                "tempo": 120.0
            },
            {
                "start_time": 6.95,
                "end_time": 7.1204545,
                "pitch": 63,
                "velocity": 64,
                "duration": 0.1704545,
                "tempo": 120.0
            },
            {
                "start_time": 7.1204545,
                "end_time": 7.2886364,
                "pitch": 62,
                "velocity": 64,
                "duration": 0.1681818,
                "tempo": 120.0
            },
            {
                "start_time": 7.2886364,
                "end_time": 7.4568182,
                "pitch": 60,
                "velocity": 64,
                "duration": 0.1681818,
                "tempo": 120.0
            },
            {
                "start_time": 7.4568182,
                "end_time": 7.9659091,
                "pitch": 58,
                "velocity": 64,
                "duration": 0.5090909,
                "tempo": 120.0
            },
            {
                "start_time": 7.9659091,
                "end_time": 8.3045455,
                "pitch": 60,
                "velocity": 64,
                "duration": 0.3386364,
                "tempo": 120.0
            },
            {
                "start_time": 8.3045455,
                "end_time": 8.4727273,
                "pitch": 63,
                "velocity": 64,
                "duration": 0.1681818,
                "tempo": 120.0
            },
            {
                "start_time": 8.4727273,
                "end_time": 8.6454545,
                "pitch": 62,
                "velocity": 64,
                "duration": 0.1727273,
                "tempo": 120.0
            },
            {
                "start_time": 8.6454545,
                "end_time": 8.8181818,
                "pitch": 60,
                "velocity": 64,
                "duration": 0.1727273,
                "tempo": 120.0
            },
            {
                "start_time": 8.8181818,
                "end_time": 8.9840909,
                "pitch": 72,
                "velocity": 64,
                "duration": 0.1659091,
                "tempo": 120.0
            },
            {
                "start_time": 8.9840909,
                "end_time": 9.1522727,
                "pitch": 60,
                "velocity": 64,
                "duration": 0.1681818,
                "tempo": 120.0
            },
            {
                "start_time": 9.1522727,
                "end_time": 9.3204545,
                "pitch": 70,
                "velocity": 64,
                "duration": 0.1681818,
                "tempo": 120.0
            },
            {
                "start_time": 9.3204545,
                "end_time": 9.4886364,
                "pitch": 60,
                "velocity": 64,
                "duration": 0.1681818,
                "tempo": 120.0
            },
            {
                "start_time": 9.4886364,
                "end_time": 9.6613636,
                "pitch": 68,
                "velocity": 64,
                "duration": 0.1727273,
                "tempo": 120.0
            },
            {
                "start_time": 9.6613636,
                "end_time": 9.8318182,
                "pitch": 60,
                "velocity": 64,
                "duration": 0.1704545,
                "tempo": 120.0
            },
            {
                "start_time": 9.8318182,
                "end_time": 10.0,
                "pitch": 67,
                "velocity": 64,
                "duration": 0.1681818,
                "tempo": 120.0
            },
            {
                "start_time": 10.0,
                "end_time": 10.3363636,
                "pitch": 65,
                "velocity": 64,
                "duration": 0.3363636,
                "tempo": 120.0
            },
            {
                "start_time": 10.3363636,
                "end_time": 10.5022727,
                "pitch": 63,
                "velocity": 64,
                "duration": 0.1659091,
                "tempo": 120.0
            },
            {
                "start_time": 10.5022727,
                "end_time": 10.675,
                "pitch": 62,
                "velocity": 64,
                "duration": 0.1727273,
                "tempo": 120.0
            },
            {
                "start_time": 10.6772727,
                "end_time": 11.0204545,
                "pitch": 58,
                "velocity": 64,
                "duration": 0.3431818,
                "tempo": 120.0
            },
            {
                "start_time": 11.0204545,
                "end_time": 11.1931818,
                "pitch": 58,
                "velocity": 64,
                "duration": 0.1727273,
                "tempo": 120.0
            },
            {
                "start_time": 11.1931818,
                "end_time": 11.3613636,
                "pitch": 62,
                "velocity": 64,
                "duration": 0.1681818,
                "tempo": 120.0
            },
            {
                "start_time": 11.3613636,
                "end_time": 11.5272727,
                "pitch": 58,
                "velocity": 64,
                "duration": 0.1659091,
                "tempo": 120.0
            },
            {
                "start_time": 11.5272727,
                "end_time": 11.6954545,
                "pitch": 63,
                "velocity": 64,
                "duration": 0.1681818,
                "tempo": 120.0
            },
            {
                "start_time": 11.6954545,
                "end_time": 11.8636364,
                "pitch": 58,
                "velocity": 64,
                "duration": 0.1681818,
                "tempo": 120.0
            },
            {
                "start_time": 11.8636364,
                "end_time": 12.0363636,
                "pitch": 62,
                "velocity": 64,
                "duration": 0.1727273,
                "tempo": 120.0
            },
            {
                "start_time": 12.0363636,
                "end_time": 12.375,
                "pitch": 58,
                "velocity": 64,
                "duration": 0.3386364,
                "tempo": 120.0
            },
            {
                "start_time": 12.375,
                "end_time": 12.5431818,
                "pitch": 58,
                "velocity": 64,
                "duration": 0.1681818,
                "tempo": 120.0
            },
            {
                "start_time": 12.5431818,
                "end_time": 12.7159091,
                "pitch": 62,
                "velocity": 64,
                "duration": 0.1727273,
                "tempo": 120.0
            },
            {
                "start_time": 12.7159091,
                "end_time": 12.8886364,
                "pitch": 58,
                "velocity": 64,
                "duration": 0.1727273,
                "tempo": 120.0
            },
            {
                "start_time": 12.8886364,
                "end_time": 13.05,
                "pitch": 63,
                "velocity": 64,
                "duration": 0.1613636,
                "tempo": 120.0
            },
            {
                "start_time": 13.05,
                "end_time": 13.2113636,
                "pitch": 58,
                "velocity": 64,
                "duration": 0.1613636,
                "tempo": 120.0
            },
            {
                "start_time": 13.2136364,
                "end_time": 13.3863636,
                "pitch": 62,
                "velocity": 64,
                "duration": 0.1727273,
                "tempo": 120.0
            },
            {
                "start_time": 13.3863636,
                "end_time": 13.725,
                "pitch": 56,
                "velocity": 64,
                "duration": 0.3386364,
                "tempo": 120.0
            },
            {
                "start_time": 13.725,
                "end_time": 13.8931818,
                "pitch": 56,
                "velocity": 64,
                "duration": 0.1681818,
                "tempo": 120.0
            },
            {
                "start_time": 13.8931818,
                "end_time": 14.0659091,
                "pitch": 60,
                "velocity": 64,
                "duration": 0.1727273,
                "tempo": 120.0
            },
            {
                "start_time": 14.0659091,
                "end_time": 14.2363636,
                "pitch": 56,
                "velocity": 64,
                "duration": 0.1704545,
                "tempo": 120.0
            },
            {
                "start_time": 14.2386364,
                "end_time": 14.4045455,
                "pitch": 61,
                "velocity": 64,
                "duration": 0.1659091,
                "tempo": 120.0
            },
            {
                "start_time": 14.4045455,
                "end_time": 14.5727273,
                "pitch": 56,
                "velocity": 64,
                "duration": 0.1681818,
                "tempo": 120.0
            },
            {
                "start_time": 14.5727273,
                "end_time": 14.7454545,
                "pitch": 60,
                "velocity": 64,
                "duration": 0.1727273,
                "tempo": 120.0
            },
            {
                "start_time": 14.7454545,
                "end_time": 15.0840909,
                "pitch": 56,
                "velocity": 64,
                "duration": 0.3386364,
                "tempo": 120.0
            },
            {
                "start_time": 15.0863636,
                "end_time": 15.2522727,
                "pitch": 56,
                "velocity": 64,
                "duration": 0.1659091,
                "tempo": 120.0
            },
            {
                "start_time": 15.2522727,
                "end_time": 15.425,
                "pitch": 60,
                "velocity": 64,
                "duration": 0.1727273,
                "tempo": 120.0
            },
            {
                "start_time": 15.425,
                "end_time": 15.5977273,
                "pitch": 56,
                "velocity": 64,
                "duration": 0.1727273,
                "tempo": 120.0
            },
            {
                "start_time": 15.5977273,
                "end_time": 15.7590909,
                "pitch": 61,
                "velocity": 64,
                "duration": 0.1613636,
                "tempo": 120.0
            },
            {
                "start_time": 15.7590909,
                "end_time": 15.9227273,
                "pitch": 56,
                "velocity": 64,
                "duration": 0.1636364,
                "tempo": 120.0
            },
            {
                "start_time": 15.9227273,
                "end_time": 16.0931818,
                "pitch": 60,
                "velocity": 64,
                "duration": 0.1704545,
                "tempo": 120.0
            },
            {
                "start_time": 16.0954545,
                "end_time": 16.4340909,
                "pitch": 58,
                "velocity": 64,
                "duration": 0.3386364,
                "tempo": 120.0
            },
            {
                "start_time": 16.4340909,
                "end_time": 16.6022727,
                "pitch": 58,
                "velocity": 64,
                "duration": 0.1681818,
                "tempo": 120.0
            },
            {
                "start_time": 16.6022727,
                "end_time": 16.775,
                "pitch": 62,
                "velocity": 64,
                "duration": 0.1727273,
                "tempo": 120.0
            },
            {
                "start_time": 16.775,
                "end_time": 16.9477273,
                "pitch": 58,
                "velocity": 64,
                "duration": 0.1727273,
                "tempo": 120.0
            },
            {
                "start_time": 16.9477273,
                "end_time": 17.1136364,
                "pitch": 63,
                "velocity": 64,
                "duration": 0.1659091,
                "tempo": 120.0
            },
            {
                "start_time": 17.1136364,
                "end_time": 17.2818182,
                "pitch": 58,
                "velocity": 64,
                "duration": 0.1681818,
                "tempo": 120.0
            },
            {
                "start_time": 17.2818182,
                "end_time": 17.4545455,
                "pitch": 62,
                "velocity": 64,
                "duration": 0.1727273,
                "tempo": 120.0
            },
            {
                "start_time": 17.4545455,
                "end_time": 17.7954545,
                "pitch": 58,
                "velocity": 64,
                "duration": 0.3409091,
                "tempo": 120.0
            },
            {
                "start_time": 17.7954545,
                "end_time": 17.9613636,
                "pitch": 58,
                "velocity": 64,
                "duration": 0.1659091,
                "tempo": 120.0
            },
            {
                "start_time": 17.9613636,
                "end_time": 18.1295455,
                "pitch": 62,
                "velocity": 64,
                "duration": 0.1681818,
                "tempo": 120.0
            },
            {
                "start_time": 18.1295455,
                "end_time": 18.2977273,
                "pitch": 58,
                "velocity": 64,
                "duration": 0.1681818,
                "tempo": 120.0
            },
            {
                "start_time": 18.2977273,
                "end_time": 18.4704545,
                "pitch": 63,
                "velocity": 64,
                "duration": 0.1727273,
                "tempo": 120.0
            },
            {
                "start_time": 18.4704545,
                "end_time": 18.6431818,
                "pitch": 58,
                "velocity": 64,
                "duration": 0.1727273,
                "tempo": 120.0
            },
            {
                "start_time": 18.6431818,
                "end_time": 18.8090909,
                "pitch": 62,
                "velocity": 64,
                "duration": 0.1659091,
                "tempo": 120.0
            },
            {
                "start_time": 18.8090909,
                "end_time": 19.1454545,
                "pitch": 60,
                "velocity": 64,
                "duration": 0.3363636,
                "tempo": 120.0
            },
            {
                "start_time": 19.1454545,
                "end_time": 19.3136364,
                "pitch": 62,
                "velocity": 64,
                "duration": 0.1681818,
                "tempo": 120.0
            },
            {
                "start_time": 19.3136364,
                "end_time": 19.4863636,
                "pitch": 63,
                "velocity": 64,
                "duration": 0.1727273,
                "tempo": 120.0
            },
            {
                "start_time": 19.4863636,
                "end_time": 19.825,
                "pitch": 65,
                "velocity": 64,
                "duration": 0.3386364,
                "tempo": 120.0
            },
            {
                "start_time": 19.825,
                "end_time": 19.9931818,
                "pitch": 67,
                "velocity": 64,
                "duration": 0.1681818,
                "tempo": 120.0
            },
            {
                "start_time": 19.9931818,
                "end_time": 20.1659091,
                "pitch": 68,
                "velocity": 64,
                "duration": 0.1727273,
                "tempo": 120.0
            },
            {
                "start_time": 20.1659091,
                "end_time": 20.5045455,
                "pitch": 70,
                "velocity": 64,
                "duration": 0.3386364,
                "tempo": 120.0
            },
            {
                "start_time": 20.5068182,
                "end_time": 20.6727273,
                "pitch": 72,
                "velocity": 64,
                "duration": 0.1659091,
                "tempo": 120.0
            },
            {
                "start_time": 20.6727273,
                "end_time": 20.8409091,
                "pitch": 74,
                "velocity": 64,
                "duration": 0.1681818,
                "tempo": 120.0
            },
            {
                "start_time": 20.8409091,
                "end_time": 21.3545455,
                "pitch": 75,
                "velocity": 64,
                "duration": 0.5136364,
                "tempo": 120.0
            },
            {
                "start_time": 21.3545455,
                "end_time": 21.6886364,
                "pitch": 74,
                "velocity": 64,
                "duration": 0.3340909,
                "tempo": 120.0
            },
            {
                "start_time": 21.6909091,
                "end_time": 21.8590909,
                "pitch": 72,
                "velocity": 64,
                "duration": 0.1681818,
                "tempo": 120.0
            },
            {
                "start_time": 21.8590909,
                "end_time": 22.0227273,
                "pitch": 72,
                "velocity": 64,
                "duration": 0.1636364,
                "tempo": 120.0
            },
            {
                "start_time": 22.0227273,
                "end_time": 22.1931818,
                "pitch": 84,
                "velocity": 64,
                "duration": 0.1704545,
                "tempo": 120.0
            },
            {
                "start_time": 22.1931818,
                "end_time": 22.3613636,
                "pitch": 72,
                "velocity": 64,
                "duration": 0.1681818,
                "tempo": 120.0
            },
            {
                "start_time": 22.3613636,
                "end_time": 22.7136364,
                "pitch": 82,
                "velocity": 64,
                "duration": 0.3522727,
                "tempo": 120.0
            },
            {
                "start_time": 22.7136364,
                "end_time": 22.8772727,
                "pitch": 72,
                "velocity": 64,
                "duration": 0.1636364,
                "tempo": 120.0
            },
            {
                "start_time": 22.8772727,
                "end_time": 23.2113636,
                "pitch": 80,
                "velocity": 64,
                "duration": 0.3340909,
                "tempo": 120.0
            },
            {
                "start_time": 23.2113636,
                "end_time": 23.3840909,
                "pitch": 72,
                "velocity": 64,
                "duration": 0.1727273,
                "tempo": 120.0
            },
            {
                "start_time": 23.3840909,
                "end_time": 23.7272727,
                "pitch": 79,
                "velocity": 64,
                "duration": 0.3431818,
                "tempo": 120.0
            },
            {
                "start_time": 23.7295455,
                "end_time": 24.0522727,
                "pitch": 77,
                "velocity": 64,
                "duration": 0.3227273,
                "tempo": 120.0
            },
            {
                "start_time": 24.0522727,
                "end_time": 24.225,
                "pitch": 75,
                "velocity": 64,
                "duration": 0.1727273,
                "tempo": 120.0
            },
            {
                "start_time": 24.225,
                "end_time": 24.3977273,
                "pitch": 74,
                "velocity": 64,
                "duration": 0.1727273,
                "tempo": 120.0
            },
            {
                "start_time": 24.3977273,
                "end_time": 24.5659091,
                "pitch": 72,
                "velocity": 64,
                "duration": 0.1681818,
                "tempo": 120.0
            },
            {
                "start_time": 24.5659091,
                "end_time": 24.7318182,
                "pitch": 72,
                "velocity": 64,
                "duration": 0.1659091,
                "tempo": 120.0
            },
            {
                "start_time": 24.7318182,
                "end_time": 24.9,
                "pitch": 84,
                "velocity": 64,
                "duration": 0.1681818,
                "tempo": 120.0
            },
            {
                "start_time": 24.9,
                "end_time": 25.0704545,
                "pitch": 72,
                "velocity": 64,
                "duration": 0.1704545,
                "tempo": 120.0
            },
            {
                "start_time": 25.0704545,
                "end_time": 25.4136364,
                "pitch": 82,
                "velocity": 64,
                "duration": 0.3431818,
                "tempo": 120.0
            },
            {
                "start_time": 25.4136364,
                "end_time": 25.5818182,
                "pitch": 72,
                "velocity": 64,
                "duration": 0.1681818,
                "tempo": 120.0
            },
            {
                "start_time": 25.5818182,
                "end_time": 25.9227273,
                "pitch": 80,
                "velocity": 64,
                "duration": 0.3409091,
                "tempo": 120.0
            },
            {
                "start_time": 25.9227273,
                "end_time": 26.0931818,
                "pitch": 72,
                "velocity": 64,
                "duration": 0.1704545,
                "tempo": 120.0
            },
            {
                "start_time": 26.0954545,
                "end_time": 26.4386364,
                "pitch": 79,
                "velocity": 64,
                "duration": 0.3431818,
                "tempo": 120.0
            },
            {
                "start_time": 26.4386364,
                "end_time": 26.7727273,
                "pitch": 77,
                "velocity": 64,
                "duration": 0.3340909,
                "tempo": 120.0
            },
            {
                "start_time": 26.775,
                "end_time": 26.9409091,
                "pitch": 75,
                "velocity": 64,
                "duration": 0.1659091,
                "tempo": 120.0
            },
            {
                "start_time": 26.9409091,
                "end_time": 27.1090909,
                "pitch": 74,
                "velocity": 64,
                "duration": 0.1681818,
                "tempo": 120.0
            },
            {
                "start_time": 27.1090909,
                "end_time": 27.2795455,
                "pitch": 75,
                "velocity": 64,
                "duration": 0.1704545,
                "tempo": 120.0
            },
            {
                "start_time": 27.2795455,
                "end_time": 27.4522727,
                "pitch": 74,
                "velocity": 64,
                "duration": 0.1727273,
                "tempo": 120.0
            },
            {
                "start_time": 27.4522727,
                "end_time": 27.6227273,
                "pitch": 72,
                "velocity": 64,
                "duration": 0.1704545,
                "tempo": 120.0
            },
            {
                "start_time": 27.6227273,
                "end_time": 27.7886364,
                "pitch": 67,
                "velocity": 64,
                "duration": 0.1659091,
                "tempo": 120.0
            },
            {
                "start_time": 27.7886364,
                "end_time": 27.9545455,
                "pitch": 65,
                "velocity": 64,
                "duration": 0.1659091,
                "tempo": 120.0
            },
            {
                "start_time": 27.9545455,
                "end_time": 28.125,
                "pitch": 63,
                "velocity": 64,
                "duration": 0.1704545,
                "tempo": 120.0
            },
            {
                "start_time": 28.125,
                "end_time": 28.2954545,
                "pitch": 62,
                "velocity": 64,
                "duration": 0.1704545,
                "tempo": 120.0
            },
            {
                "start_time": 28.2954545,
                "end_time": 28.4704545,
                "pitch": 58,
                "velocity": 64,
                "duration": 0.175,
                "tempo": 120.0
            },
            {
                "start_time": 28.4704545,
                "end_time": 28.6363636,
                "pitch": 56,
                "velocity": 64,
                "duration": 0.1659091,
                "tempo": 120.0
            },
            {
                "start_time": 28.6363636,
                "end_time": 28.8045455,
                "pitch": 60,
                "velocity": 64,
                "duration": 0.1681818,
                "tempo": 120.0
            },
            {
                "start_time": 28.8045455,
                "end_time": 28.9727273,
                "pitch": 63,
                "velocity": 64,
                "duration": 0.1681818,
                "tempo": 120.0
            },
            {
                "start_time": 28.9727273,
                "end_time": 29.1386364,
                "pitch": 58,
                "velocity": 64,
                "duration": 0.1659091,
                "tempo": 120.0
            },
            {
                "start_time": 29.1386364,
                "end_time": 29.3113636,
                "pitch": 62,
                "velocity": 64,
                "duration": 0.1727273,
                "tempo": 120.0
            },
            {
                "start_time": 29.3113636,
                "end_time": 29.4840909,
                "pitch": 65,
                "velocity": 64,
                "duration": 0.1727273,
                "tempo": 120.0
            },
            {
                "start_time": 29.4840909,
                "end_time": 29.6522727,
                "pitch": 63,
                "velocity": 64,
                "duration": 0.1681818,
                "tempo": 120.0
            },
            {
                "start_time": 29.6522727,
                "end_time": 29.8181818,
                "pitch": 62,
                "velocity": 64,
                "duration": 0.1659091,
                "tempo": 120.0
            }
        ],
        "Electric Piano 1": [
            {
                "start_time": 0.0090909,
                "end_time": 0.1704545,
                "pitch": 48,
                "velocity": 51,
                "duration": 0.1613636,
                "tempo": 120.0
            },
            {
                "start_time": 0.1704545,
                "end_time": 0.3386364,
                "pitch": 51,
                "velocity": 51,
                "duration": 0.1681818,
                "tempo": 120.0
            },
            {
                "start_time": 0.3386364,
                "end_time": 0.5113636,
                "pitch": 50,
                "velocity": 51,
                "duration": 0.1727273,
                "tempo": 120.0
            },
            {
                "start_time": 0.5113636,
                "end_time": 0.6840909,
                "pitch": 48,
                "velocity": 51,
                "duration": 0.1727273,
                "tempo": 120.0
            },
            {
                "start_time": 0.6840909,
                "end_time": 1.1863636,
                "pitch": 60,
                "velocity": 51,
                "duration": 0.5022727,
                "tempo": 120.0
            },
            {
                "start_time": 1.1863636,
                "end_time": 1.5272727,
                "pitch": 48,
                "velocity": 51,
                "duration": 0.3409091,
                "tempo": 120.0
            },
            {
                "start_time": 1.5272727,
                "end_time": 1.6977273,
                "pitch": 51,
                "velocity": 51,
                "duration": 0.1704545,
                "tempo": 120.0
            },
            {
                "start_time": 1.6977273,
                "end_time": 1.8659091,
                "pitch": 50,
                "velocity": 51,
                "duration": 0.1681818,
                "tempo": 120.0
            },
            {
                "start_time": 1.8659091,
                "end_time": 2.0340909,
                "pitch": 48,
                "velocity": 51,
                "duration": 0.1681818,
                "tempo": 120.0
            },
            {
                "start_time": 2.0340909,
                "end_time": 2.5409091,
                "pitch": 46,
                "velocity": 51,
                "duration": 0.5068182,
                "tempo": 120.0
            },
            {
                "start_time": 2.5431818,
                "end_time": 2.8818182,
                "pitch": 48,
                "velocity": 51,
                "duration": 0.3386364,
                "tempo": 120.0
            },
            {
                "start_time": 2.8818182,
                "end_time": 3.05,
                "pitch": 51,
                "velocity": 51,
                "duration": 0.1681818,
                "tempo": 120.0
            },
            {
                "start_time": 3.05,
                "end_time": 3.2227273,
                "pitch": 50,
                "velocity": 51,
                "duration": 0.1727273,
                "tempo": 120.0
            },
            {
                "start_time": 3.2227273,
                "end_time": 3.3954545,
                "pitch": 48,
                "velocity": 51,
                "duration": 0.1727273,
                "tempo": 120.0
            },
            {
                "start_time": 3.3954545,
                "end_time": 3.5613636,
                "pitch": 60,
                "velocity": 51,
                "duration": 0.1659091,
                "tempo": 120.0
            },
            {
                "start_time": 3.5613636,
                "end_time": 3.7295455,
                "pitch": 48,
                "velocity": 51,
                "duration": 0.1681818,
                "tempo": 120.0
            },
            {
                "start_time": 3.7295455,
                "end_time": 3.8977273,
                "pitch": 58,
                "velocity": 51,
                "duration": 0.1681818,
                "tempo": 120.0
            },
            {
                "start_time": 3.8977273,
                "end_time": 4.0659091,
                "pitch": 48,
                "velocity": 51,
                "duration": 0.1681818,
                "tempo": 120.0
            },
            {
                "start_time": 4.0659091,
                "end_time": 4.2386364,
                "pitch": 56,
                "velocity": 51,
                "duration": 0.1727273,
                "tempo": 120.0
            },
            {
                "start_time": 4.2386364,
                "end_time": 4.4090909,
                "pitch": 48,
                "velocity": 51,
                "duration": 0.1704545,
                "tempo": 120.0
            },
            {
                "start_time": 4.4090909,
                "end_time": 4.5772727,
                "pitch": 55,
                "velocity": 51,
                "duration": 0.1681818,
                "tempo": 120.0
            },
            {
                "start_time": 4.5772727,
                "end_time": 4.9136364,
                "pitch": 53,
                "velocity": 51,
                "duration": 0.3363636,
                "tempo": 120.0
            },
            {
                "start_time": 4.9136364,
                "end_time": 5.0795455,
                "pitch": 51,
                "velocity": 51,
                "duration": 0.1659091,
                "tempo": 120.0
            },
            {
                "start_time": 5.0818182,
                "end_time": 5.2522727,
                "pitch": 50,
                "velocity": 51,
                "duration": 0.1704545,
                "tempo": 120.0
            },
            {
                "start_time": 5.2522727,
                "end_time": 5.5931818,
                "pitch": 48,
                "velocity": 51,
                "duration": 0.3409091,
                "tempo": 120.0
            },
            {
                "start_time": 5.5931818,
                "end_time": 5.7613636,
                "pitch": 51,
                "velocity": 51,
                "duration": 0.1681818,
                "tempo": 120.0
            },
            {
                "start_time": 5.7613636,
                "end_time": 5.9340909,
                "pitch": 50,
                "velocity": 51,
                "duration": 0.1727273,
                "tempo": 120.0
            },
            {
                "start_time": 5.9340909,
                "end_time": 6.1045455,
                "pitch": 48,
                "velocity": 51,
                "duration": 0.1704545,
                "tempo": 120.0
            },
            {
                "start_time": 6.1068182,
                "end_time": 6.6090909,
                "pitch": 60,
                "velocity": 51,
                "duration": 0.5022727,
                "tempo": 120.0
            },
            {
                "start_time": 6.6090909,
                "end_time": 6.9477273,
                "pitch": 48,
                "velocity": 51,
                "duration": 0.3386364,
                "tempo": 120.0
            },
            {
                "start_time": 6.95,
                "end_time": 7.1204545,
                "pitch": 51,
                "velocity": 51,
                "duration": 0.1704545,
                "tempo": 120.0
            },
            {
                "start_time": 7.1204545,
                "end_time": 7.2886364,
                "pitch": 50,
                "velocity": 51,
                "duration": 0.1681818,
                "tempo": 120.0
            },
            {
                "start_time": 7.2886364,
                "end_time": 7.4568182,
                "pitch": 48,
                "velocity": 51,
                "duration": 0.1681818,
                "tempo": 120.0
            },
            {
                "start_time": 7.4568182,
                "end_time": 7.9636364,
                "pitch": 46,
                "velocity": 51,
                "duration": 0.5068182,
                "tempo": 120.0
            },
            {
                "start_time": 7.9636364,
                "end_time": 8.3045455,
                "pitch": 48,
                "velocity": 51,
                "duration": 0.3409091,
                "tempo": 120.0
            },
            {
                "start_time": 8.3045455,
                "end_time": 8.4704545,
                "pitch": 51,
                "velocity": 51,
                "duration": 0.1659091,
                "tempo": 120.0
            },
            {
                "start_time": 8.4727273,
                "end_time": 8.6454545,
                "pitch": 50,
                "velocity": 51,
                "duration": 0.1727273,
                "tempo": 120.0
            },
            {
                "start_time": 8.6454545,
                "end_time": 8.8159091,
                "pitch": 48,
                "velocity": 51,
                "duration": 0.1704545,
                "tempo": 120.0
            },
            {
                "start_time": 8.8159091,
                "end_time": 8.9840909,
                "pitch": 60,
                "velocity": 51,
                "duration": 0.1681818,
                "tempo": 120.0
            },
            {
                "start_time": 8.9840909,
                "end_time": 9.1522727,
                "pitch": 48,
                "velocity": 51,
                "duration": 0.1681818,
                "tempo": 120.0
            },
            {
                "start_time": 9.1522727,
                "end_time": 9.3204545,
                "pitch": 58,
                "velocity": 51,
                "duration": 0.1681818,
                "tempo": 120.0
            },
            {
                "start_time": 9.3204545,
                "end_time": 9.4886364,
                "pitch": 48,
                "velocity": 51,
                "duration": 0.1681818,
                "tempo": 120.0
            },
            {
                "start_time": 9.4886364,
                "end_time": 9.6590909,
                "pitch": 56,
                "velocity": 51,
                "duration": 0.1704545,
                "tempo": 120.0
            },
            {
                "start_time": 9.6590909,
                "end_time": 9.8318182,
                "pitch": 48,
                "velocity": 51,
                "duration": 0.1727273,
                "tempo": 120.0
            },
            {
                "start_time": 9.8318182,
                "end_time": 10.0,
                "pitch": 55,
                "velocity": 51,
                "duration": 0.1681818,
                "tempo": 120.0
            },
            {
                "start_time": 10.0,
                "end_time": 10.3363636,
                "pitch": 53,
                "velocity": 51,
                "duration": 0.3363636,
                "tempo": 120.0
            },
            {
                "start_time": 10.3363636,
                "end_time": 10.5022727,
                "pitch": 51,
                "velocity": 51,
                "duration": 0.1659091,
                "tempo": 120.0
            },
            {
                "start_time": 10.5022727,
                "end_time": 10.675,
                "pitch": 50,
                "velocity": 51,
                "duration": 0.1727273,
                "tempo": 120.0
            },
            {
                "start_time": 10.675,
                "end_time": 11.0204545,
                "pitch": 46,
                "velocity": 51,
                "duration": 0.3454545,
                "tempo": 120.0
            },
            {
                "start_time": 11.0204545,
                "end_time": 11.1909091,
                "pitch": 46,
                "velocity": 51,
                "duration": 0.1704545,
                "tempo": 120.0
            },
            {
                "start_time": 11.1931818,
                "end_time": 11.3590909,
                "pitch": 50,
                "velocity": 51,
                "duration": 0.1659091,
                "tempo": 120.0
            },
            {
                "start_time": 11.3590909,
                "end_time": 11.5272727,
                "pitch": 46,
                "velocity": 51,
                "duration": 0.1681818,
                "tempo": 120.0
            },
            {
                "start_time": 11.5272727,
                "end_time": 11.6954545,
                "pitch": 51,
                "velocity": 51,
                "duration": 0.1681818,
                "tempo": 120.0
            },
            {
                "start_time": 11.6954545,
                "end_time": 11.8636364,
                "pitch": 46,
                "velocity": 51,
                "duration": 0.1681818,
                "tempo": 120.0
            },
            {
                "start_time": 11.8636364,
                "end_time": 12.0340909,
                "pitch": 50,
                "velocity": 51,
                "duration": 0.1704545,
                "tempo": 120.0
            },
            {
                "start_time": 12.0363636,
                "end_time": 12.375,
                "pitch": 46,
                "velocity": 51,
                "duration": 0.3386364,
                "tempo": 120.0
            },
            {
                "start_time": 12.375,
                "end_time": 12.5431818,
                "pitch": 46,
                "velocity": 51,
                "duration": 0.1681818,
                "tempo": 120.0
            },
            {
                "start_time": 12.5431818,
                "end_time": 12.7159091,
                "pitch": 50,
                "velocity": 51,
                "duration": 0.1727273,
                "tempo": 120.0
            },
            {
                "start_time": 12.7159091,
                "end_time": 12.8886364,
                "pitch": 46,
                "velocity": 51,
                "duration": 0.1727273,
                "tempo": 120.0
            },
            {
                "start_time": 12.8886364,
                "end_time": 13.05,
                "pitch": 51,
                "velocity": 51,
                "duration": 0.1613636,
                "tempo": 120.0
            },
            {
                "start_time": 13.05,
                "end_time": 13.2113636,
                "pitch": 46,
                "velocity": 51,
                "duration": 0.1613636,
                "tempo": 120.0
            },
            {
                "start_time": 13.2113636,
                "end_time": 13.3840909,
                "pitch": 50,
                "velocity": 51,
                "duration": 0.1727273,
                "tempo": 120.0
            },
            {
                "start_time": 13.3863636,
                "end_time": 13.725,
                "pitch": 44,
                "velocity": 51,
                "duration": 0.3386364,
                "tempo": 120.0
            },
            {
                "start_time": 13.725,
                "end_time": 13.8909091,
                "pitch": 44,
                "velocity": 51,
                "duration": 0.1659091,
                "tempo": 120.0
            },
            {
                "start_time": 13.8931818,
                "end_time": 14.0636364,
                "pitch": 48,
                "velocity": 51,
                "duration": 0.1704545,
                "tempo": 120.0
            },
            {
                "start_time": 14.0636364,
                "end_time": 14.2363636,
                "pitch": 44,
                "velocity": 51,
                "duration": 0.1727273,
                "tempo": 120.0
            },
            {
                "start_time": 14.2363636,
                "end_time": 14.4045455,
                "pitch": 49,
                "velocity": 51,
                "duration": 0.1681818,
                "tempo": 120.0
            },
            {
                "start_time": 14.4045455,
                "end_time": 14.5727273,
                "pitch": 44,
                "velocity": 51,
                "duration": 0.1681818,
                "tempo": 120.0
            },
            {
                "start_time": 14.5727273,
                "end_time": 14.7454545,
                "pitch": 48,
                "velocity": 51,
                "duration": 0.1727273,
                "tempo": 120.0
            },
            {
                "start_time": 14.7454545,
                "end_time": 15.0840909,
                "pitch": 44,
                "velocity": 51,
                "duration": 0.3386364,
                "tempo": 120.0
            },
            {
                "start_time": 15.0840909,
                "end_time": 15.2522727,
                "pitch": 44,
                "velocity": 51,
                "duration": 0.1681818,
                "tempo": 120.0
            },
            {
                "start_time": 15.2522727,
                "end_time": 15.425,
                "pitch": 48,
                "velocity": 51,
                "duration": 0.1727273,
                "tempo": 120.0
            },
            {
                "start_time": 15.425,
                "end_time": 15.5977273,
                "pitch": 44,
                "velocity": 51,
                "duration": 0.1727273,
                "tempo": 120.0
            },
            {
                "start_time": 15.5977273,
                "end_time": 15.7590909,
                "pitch": 49,
                "velocity": 51,
                "duration": 0.1613636,
                "tempo": 120.0
            },
            {
                "start_time": 15.7590909,
                "end_time": 15.9204545,
                "pitch": 44,
                "velocity": 51,
                "duration": 0.1613636,
                "tempo": 120.0
            },
            {
                "start_time": 15.9204545,
                "end_time": 16.0931818,
                "pitch": 48,
                "velocity": 51,
                "duration": 0.1727273,
                "tempo": 120.0
            },
            {
                "start_time": 16.0931818,
                "end_time": 16.4340909,
                "pitch": 46,
                "velocity": 51,
                "duration": 0.3409091,
                "tempo": 120.0
            },
            {
                "start_time": 16.4340909,
                "end_time": 16.6022727,
                "pitch": 46,
                "velocity": 51,
                "duration": 0.1681818,
                "tempo": 120.0
            },
            {
                "start_time": 16.6022727,
                "end_time": 16.7727273,
                "pitch": 50,
                "velocity": 51,
                "duration": 0.1704545,
                "tempo": 120.0
            },
            {
                "start_time": 16.775,
                "end_time": 16.9454545,
                "pitch": 46,
                "velocity": 51,
                "duration": 0.1704545,
                "tempo": 120.0
            },
            {
                "start_time": 16.9454545,
                "end_time": 17.1136364,
                "pitch": 51,
                "velocity": 51,
                "duration": 0.1681818,
                "tempo": 120.0
            },
            {
                "start_time": 17.1136364,
                "end_time": 17.2818182,
                "pitch": 46,
                "velocity": 51,
                "duration": 0.1681818,
                "tempo": 120.0
            },
            {
                "start_time": 17.2818182,
                "end_time": 17.4545455,
                "pitch": 50,
                "velocity": 51,
                "duration": 0.1727273,
                "tempo": 120.0
            },
            {
                "start_time": 17.4545455,
                "end_time": 17.7931818,
                "pitch": 46,
                "velocity": 51,
                "duration": 0.3386364,
                "tempo": 120.0
            },
            {
                "start_time": 17.7931818,
                "end_time": 17.9613636,
                "pitch": 46,
                "velocity": 51,
                "duration": 0.1681818,
                "tempo": 120.0
            },
            {
                "start_time": 17.9613636,
                "end_time": 18.1295455,
                "pitch": 50,
                "velocity": 51,
                "duration": 0.1681818,
                "tempo": 120.0
            },
            {
                "start_time": 18.1295455,
                "end_time": 18.2977273,
                "pitch": 46,
                "velocity": 51,
                "duration": 0.1681818,
                "tempo": 120.0
            },
            {
                "start_time": 18.2977273,
                "end_time": 18.4704545,
                "pitch": 51,
                "velocity": 51,
                "duration": 0.1727273,
                "tempo": 120.0
            },
            {
                "start_time": 18.4704545,
                "end_time": 18.6409091,
                "pitch": 46,
                "velocity": 51,
                "duration": 0.1704545,
                "tempo": 120.0
            },
            {
                "start_time": 18.6409091,
                "end_time": 18.8090909,
                "pitch": 50,
                "velocity": 51,
                "duration": 0.1681818,
                "tempo": 120.0
            },
            {
                "start_time": 18.8090909,
                "end_time": 19.1454545,
                "pitch": 48,
                "velocity": 51,
                "duration": 0.3363636,
                "tempo": 120.0
            },
            {
                "start_time": 19.1454545,
                "end_time": 19.3113636,
                "pitch": 50,
                "velocity": 51,
                "duration": 0.1659091,
                "tempo": 120.0
            },
            {
                "start_time": 19.3113636,
                "end_time": 19.4840909,
                "pitch": 51,
                "velocity": 51,
                "duration": 0.1727273,
                "tempo": 120.0
            },
            {
                "start_time": 19.4840909,
                "end_time": 19.825,
                "pitch": 53,
                "velocity": 51,
                "duration": 0.3409091,
                "tempo": 120.0
            },
            {
                "start_time": 19.825,
                "end_time": 19.9931818,
                "pitch": 55,
                "velocity": 51,
                "duration": 0.1681818,
                "tempo": 120.0
            },
            {
                "start_time": 19.9931818,
                "end_time": 20.1659091,
                "pitch": 56,
                "velocity": 51,
                "duration": 0.1727273,
                "tempo": 120.0
            },
            {
                "start_time": 20.1659091,
                "end_time": 20.5045455,
                "pitch": 58,
                "velocity": 51,
                "duration": 0.3386364,
                "tempo": 120.0
            },
            {
                "start_time": 20.5045455,
                "end_time": 20.6727273,
                "pitch": 60,
                "velocity": 51,
                "duration": 0.1681818,
                "tempo": 120.0
            },
            {
                "start_time": 20.6727273,
                "end_time": 20.8409091,
                "pitch": 62,
                "velocity": 51,
                "duration": 0.1681818,
                "tempo": 120.0
            },
            {
                "start_time": 20.8409091,
                "end_time": 21.3522727,
                "pitch": 63,
                "velocity": 51,
                "duration": 0.5113636,
                "tempo": 120.0
            },
            {
                "start_time": 21.3522727,
                "end_time": 21.6886364,
                "pitch": 62,
                "velocity": 51,
                "duration": 0.3363636,
                "tempo": 120.0
            },
            {
                "start_time": 21.6886364,
                "end_time": 21.8568182,
                "pitch": 60,
                "velocity": 51,
                "duration": 0.1681818,
                "tempo": 120.0
            },
            {
                "start_time": 21.8568182,
                "end_time": 22.0227273,
                "pitch": 60,
                "velocity": 51,
                "duration": 0.1659091,
                "tempo": 120.0
            },
            {
                "start_time": 22.0227273,
                "end_time": 22.1931818,
                "pitch": 72,
                "velocity": 51,
                "duration": 0.1704545,
                "tempo": 120.0
            },
            {
                "start_time": 22.1931818,
                "end_time": 22.3613636,
                "pitch": 60,
                "velocity": 51,
                "duration": 0.1681818,
                "tempo": 120.0
            },
            {
                "start_time": 22.3613636,
                "end_time": 22.7136364,
                "pitch": 70,
                "velocity": 51,
                "duration": 0.3522727,
                "tempo": 120.0
            },
            {
                "start_time": 22.7136364,
                "end_time": 22.8772727,
                "pitch": 60,
                "velocity": 51,
                "duration": 0.1636364,
                "tempo": 120.0
            },
            {
                "start_time": 22.8772727,
                "end_time": 23.2113636,
                "pitch": 68,
                "velocity": 51,
                "duration": 0.3340909,
                "tempo": 120.0
            },
            {
                "start_time": 23.2113636,
                "end_time": 23.3840909,
                "pitch": 60,
                "velocity": 51,
                "duration": 0.1727273,
                "tempo": 120.0
            },
            {
                "start_time": 23.3840909,
                "end_time": 23.7272727,
                "pitch": 67,
                "velocity": 51,
                "duration": 0.3431818,
                "tempo": 120.0
            },
            {
                "start_time": 23.7272727,
                "end_time": 24.0522727,
                "pitch": 65,
                "velocity": 51,
                "duration": 0.325,
                "tempo": 120.0
            },
            {
                "start_time": 24.0522727,
                "end_time": 24.2227273,
                "pitch": 63,
                "velocity": 51,
                "duration": 0.1704545,
                "tempo": 120.0
            },
            {
                "start_time": 24.225,
                "end_time": 24.3977273,
                "pitch": 62,
                "velocity": 51,
                "duration": 0.1727273,
                "tempo": 120.0
            },
            {
                "start_time": 24.3977273,
                "end_time": 24.5659091,
                "pitch": 60,
                "velocity": 51,
                "duration": 0.1681818,
                "tempo": 120.0
            },
            {
                "start_time": 24.5659091,
                "end_time": 24.7318182,
                "pitch": 60,
                "velocity": 51,
                "duration": 0.1659091,
                "tempo": 120.0
            },
            {
                "start_time": 24.7318182,
                "end_time": 24.9,
                "pitch": 72,
                "velocity": 51,
                "duration": 0.1681818,
                "tempo": 120.0
            },
            {
                "start_time": 24.9,
                "end_time": 25.0681818,
                "pitch": 60,
                "velocity": 51,
                "duration": 0.1681818,
                "tempo": 120.0
            },
            {
                "start_time": 25.0681818,
                "end_time": 25.4136364,
                "pitch": 70,
                "velocity": 51,
                "duration": 0.3454545,
                "tempo": 120.0
            },
            {
                "start_time": 25.4136364,
                "end_time": 25.5818182,
                "pitch": 60,
                "velocity": 51,
                "duration": 0.1681818,
                "tempo": 120.0
            },
            {
                "start_time": 25.5818182,
                "end_time": 25.9204545,
                "pitch": 68,
                "velocity": 51,
                "duration": 0.3386364,
                "tempo": 120.0
            },
            {
                "start_time": 25.9204545,
                "end_time": 26.0931818,
                "pitch": 60,
                "velocity": 51,
                "duration": 0.1727273,
                "tempo": 120.0
            },
            {
                "start_time": 26.0931818,
                "end_time": 26.4386364,
                "pitch": 67,
                "velocity": 51,
                "duration": 0.3454545,
                "tempo": 120.0
            },
            {
                "start_time": 26.4386364,
                "end_time": 26.7727273,
                "pitch": 65,
                "velocity": 51,
                "duration": 0.3340909,
                "tempo": 120.0
            },
            {
                "start_time": 26.7727273,
                "end_time": 26.9409091,
                "pitch": 63,
                "velocity": 51,
                "duration": 0.1681818,
                "tempo": 120.0
            },
            {
                "start_time": 26.9409091,
                "end_time": 27.1090909,
                "pitch": 62,
                "velocity": 51,
                "duration": 0.1681818,
                "tempo": 120.0
            },
            {
                "start_time": 27.1090909,
                "end_time": 27.2795455,
                "pitch": 63,
                "velocity": 51,
                "duration": 0.1704545,
                "tempo": 120.0
            },
            {
                "start_time": 27.2795455,
                "end_time": 27.4522727,
                "pitch": 62,
                "velocity": 51,
                "duration": 0.1727273,
                "tempo": 120.0
            },
            {
                "start_time": 27.4522727,
                "end_time": 27.6204545,
                "pitch": 60,
                "velocity": 51,
                "duration": 0.1681818,
                "tempo": 120.0
            },
            {
                "start_time": 27.6204545,
                "end_time": 27.7863636,
                "pitch": 55,
                "velocity": 51,
                "duration": 0.1659091,
                "tempo": 120.0
            },
            {
                "start_time": 27.7863636,
                "end_time": 27.9545455,
                "pitch": 53,
                "velocity": 51,
                "duration": 0.1681818,
                "tempo": 120.0
            },
            {
                "start_time": 27.9545455,
                "end_time": 28.125,
                "pitch": 51,
                "velocity": 51,
                "duration": 0.1704545,
                "tempo": 120.0
            },
            {
                "start_time": 28.125,
                "end_time": 28.2954545,
                "pitch": 50,
                "velocity": 51,
                "duration": 0.1704545,
                "tempo": 120.0
            },
            {
                "start_time": 28.2954545,
                "end_time": 28.4681818,
                "pitch": 46,
                "velocity": 51,
                "duration": 0.1727273,
                "tempo": 120.0
            },
            {
                "start_time": 28.4681818,
                "end_time": 28.6340909,
                "pitch": 44,
                "velocity": 51,
                "duration": 0.1659091,
                "tempo": 120.0
            },
            {
                "start_time": 28.6363636,
                "end_time": 28.8022727,
                "pitch": 48,
                "velocity": 51,
                "duration": 0.1659091,
                "tempo": 120.0
            },
            {
                "start_time": 28.8022727,
                "end_time": 28.9727273,
                "pitch": 51,
                "velocity": 51,
                "duration": 0.1704545,
                "tempo": 120.0
            },
            {
                "start_time": 28.9727273,
                "end_time": 29.1386364,
                "pitch": 46,
                "velocity": 51,
                "duration": 0.1659091,
                "tempo": 120.0
            },
            {
                "start_time": 29.1386364,
                "end_time": 29.3113636,
                "pitch": 50,
                "velocity": 51,
                "duration": 0.1727273,
                "tempo": 120.0
            },
            {
                "start_time": 29.3113636,
                "end_time": 29.4840909,
                "pitch": 53,
                "velocity": 51,
                "duration": 0.1727273,
                "tempo": 120.0
            },
            {
                "start_time": 29.4840909,
                "end_time": 29.6522727,
                "pitch": 51,
                "velocity": 51,
                "duration": 0.1681818,
                "tempo": 120.0
            },
            {
                "start_time": 29.6522727,
                "end_time": 29.8181818,
                "pitch": 50,
                "velocity": 51,
                "duration": 0.1659091,
                "tempo": 120.0
            }
        ],
        "Vibraphone": [
            {
                "start_time": 0.0068182,
                "end_time": 0.1704545,
                "pitch": 87,
                "velocity": 40,
                "duration": 0.1636364,
                "tempo": 120.0
            },
            {
                "start_time": 0.1704545,
                "end_time": 0.3386364,
                "pitch": 79,
                "velocity": 40,
                "duration": 0.1681818,
                "tempo": 120.0
            },
            {
                "start_time": 0.3386364,
                "end_time": 0.5113636,
                "pitch": 80,
                "velocity": 40,
                "duration": 0.1727273,
                "tempo": 120.0
            },
            {
                "start_time": 0.5113636,
                "end_time": 0.6818182,
                "pitch": 79,
                "velocity": 40,
                "duration": 0.1704545,
                "tempo": 120.0
            },
            {
                "start_time": 0.6840909,
                "end_time": 0.85,
                "pitch": 87,
                "velocity": 40,
                "duration": 0.1659091,
                "tempo": 120.0
            },
            {
                "start_time": 0.85,
                "end_time": 1.0181818,
                "pitch": 79,
                "velocity": 40,
                "duration": 0.1681818,
                "tempo": 120.0
            },
            {
                "start_time": 1.0181818,
                "end_time": 1.1863636,
                "pitch": 80,
                "velocity": 40,
                "duration": 0.1681818,
                "tempo": 120.0
            },
            {
                "start_time": 1.1863636,
                "end_time": 1.3545455,
                "pitch": 79,
                "velocity": 40,
                "duration": 0.1681818,
                "tempo": 120.0
            },
            {
                "start_time": 1.3545455,
                "end_time": 1.525,
                "pitch": 87,
                "velocity": 40,
                "duration": 0.1704545,
                "tempo": 120.0
            },
            {
                "start_time": 1.525,
                "end_time": 1.6977273,
                "pitch": 79,
                "velocity": 40,
                "duration": 0.1727273,
                "tempo": 120.0
            },
            {
                "start_time": 1.6977273,
                "end_time": 1.8659091,
                "pitch": 80,
                "velocity": 40,
                "duration": 0.1681818,
                "tempo": 120.0
            },
            {
                "start_time": 1.8659091,
                "end_time": 2.0340909,
                "pitch": 79,
                "velocity": 40,
                "duration": 0.1681818,
                "tempo": 120.0
            },
            {
                "start_time": 2.0340909,
                "end_time": 2.2022727,
                "pitch": 87,
                "velocity": 40,
                "duration": 0.1681818,
                "tempo": 120.0
            },
            {
                "start_time": 2.2022727,
                "end_time": 2.3681818,
                "pitch": 79,
                "velocity": 40,
                "duration": 0.1659091,
                "tempo": 120.0
            },
            {
                "start_time": 2.3681818,
                "end_time": 2.5409091,
                "pitch": 80,
                "velocity": 40,
                "duration": 0.1727273,
                "tempo": 120.0
            },
            {
                "start_time": 2.5409091,
                "end_time": 2.7136364,
                "pitch": 79,
                "velocity": 40,
                "duration": 0.1727273,
                "tempo": 120.0
            },
            {
                "start_time": 2.7136364,
                "end_time": 2.8818182,
                "pitch": 87,
                "velocity": 40,
                "duration": 0.1681818,
                "tempo": 120.0
            },
            {
                "start_time": 2.8818182,
                "end_time": 3.0477273,
                "pitch": 79,
                "velocity": 40,
                "duration": 0.1659091,
                "tempo": 120.0
            },
            {
                "start_time": 3.05,
                "end_time": 3.2204545,
                "pitch": 80,
                "velocity": 40,
                "duration": 0.1704545,
                "tempo": 120.0
            },
            {
                "start_time": 3.2227273,
                "end_time": 3.3931818,
                "pitch": 79,
                "velocity": 40,
                "duration": 0.1704545,
                "tempo": 120.0
            },
            {
                "start_time": 3.3931818,
                "end_time": 3.5613636,
                "pitch": 87,
                "velocity": 40,
                "duration": 0.1681818,
                "tempo": 120.0
            },
            {
                "start_time": 3.5613636,
                "end_time": 3.7295455,
                "pitch": 79,
                "velocity": 40,
                "duration": 0.1681818,
                "tempo": 120.0
            },
            {
                "start_time": 3.7295455,
                "end_time": 3.8977273,
                "pitch": 80,
                "velocity": 40,
                "duration": 0.1681818,
                "tempo": 120.0
            },
            {
                "start_time": 3.8977273,
                "end_time": 4.0636364,
                "pitch": 79,
                "velocity": 40,
                "duration": 0.1659091,
                "tempo": 120.0
            },
            {
                "start_time": 4.0659091,
                "end_time": 4.2363636,
                "pitch": 87,
                "velocity": 40,
                "duration": 0.1704545,
                "tempo": 120.0
            },
            {
                "start_time": 4.2363636,
                "end_time": 4.4090909,
                "pitch": 79,
                "velocity": 40,
                "duration": 0.1727273,
                "tempo": 120.0
            },
            {
                "start_time": 4.4090909,
                "end_time": 4.5772727,
                "pitch": 80,
                "velocity": 40,
                "duration": 0.1681818,
                "tempo": 120.0
            },
            {
                "start_time": 4.5772727,
                "end_time": 4.7454545,
                "pitch": 79,
                "velocity": 40,
                "duration": 0.1681818,
                "tempo": 120.0
            },
            {
                "start_time": 4.7454545,
                "end_time": 4.9113636,
                "pitch": 87,
                "velocity": 40,
                "duration": 0.1659091,
                "tempo": 120.0
            },
            {
                "start_time": 4.9136364,
                "end_time": 5.0795455,
                "pitch": 79,
                "velocity": 40,
                "duration": 0.1659091,
                "tempo": 120.0
            },
            {
                "start_time": 5.0795455,
                "end_time": 5.2522727,
                "pitch": 80,
                "velocity": 40,
                "duration": 0.1727273,
                "tempo": 120.0
            },
            {
                "start_time": 5.2522727,
                "end_time": 5.425,
                "pitch": 79,
                "velocity": 40,
                "duration": 0.1727273,
                "tempo": 120.0
            },
            {
                "start_time": 5.425,
                "end_time": 5.5931818,
                "pitch": 87,
                "velocity": 40,
                "duration": 0.1681818,
                "tempo": 120.0
            },
            {
                "start_time": 5.5931818,
                "end_time": 5.7590909,
                "pitch": 79,
                "velocity": 40,
                "duration": 0.1659091,
                "tempo": 120.0
            },
            {
                "start_time": 5.7590909,
                "end_time": 5.9318182,
                "pitch": 80,
                "velocity": 40,
                "duration": 0.1727273,
                "tempo": 120.0
            },
            {
                "start_time": 5.9318182,
                "end_time": 6.1045455,
                "pitch": 79,
                "velocity": 40,
                "duration": 0.1727273,
                "tempo": 120.0
            },
            {
                "start_time": 6.1045455,
                "end_time": 6.2727273,
                "pitch": 87,
                "velocity": 40,
                "duration": 0.1681818,
                "tempo": 120.0
            },
            {
                "start_time": 6.2727273,
                "end_time": 6.4409091,
                "pitch": 79,
                "velocity": 40,
                "duration": 0.1681818,
                "tempo": 120.0
            },
            {
                "start_time": 6.4409091,
                "end_time": 6.6090909,
                "pitch": 80,
                "velocity": 40,
                "duration": 0.1681818,
                "tempo": 120.0
            },
            {
                "start_time": 6.6090909,
                "end_time": 6.775,
                "pitch": 79,
                "velocity": 40,
                "duration": 0.1659091,
                "tempo": 120.0
            },
            {
                "start_time": 6.775,
                "end_time": 6.9477273,
                "pitch": 87,
                "velocity": 40,
                "duration": 0.1727273,
                "tempo": 120.0
            },
            {
                "start_time": 6.9477273,
                "end_time": 7.1204545,
                "pitch": 79,
                "velocity": 40,
                "duration": 0.1727273,
                "tempo": 120.0
            },
            {
                "start_time": 7.1204545,
                "end_time": 7.2886364,
                "pitch": 80,
                "velocity": 40,
                "duration": 0.1681818,
                "tempo": 120.0
            },
            {
                "start_time": 7.2886364,
                "end_time": 7.4568182,
                "pitch": 79,
                "velocity": 40,
                "duration": 0.1681818,
                "tempo": 120.0
            },
            {
                "start_time": 7.4568182,
                "end_time": 7.6227273,
                "pitch": 87,
                "velocity": 40,
                "duration": 0.1659091,
                "tempo": 120.0
            },
            {
                "start_time": 7.625,
                "end_time": 7.7909091,
                "pitch": 79,
                "velocity": 40,
                "duration": 0.1659091,
                "tempo": 120.0
            },
            {
                "start_time": 7.7909091,
                "end_time": 7.9636364,
                "pitch": 80,
                "velocity": 40,
                "duration": 0.1727273,
                "tempo": 120.0
            },
            {
                "start_time": 7.9636364,
                "end_time": 8.1363636,
                "pitch": 79,
                "velocity": 40,
                "duration": 0.1727273,
                "tempo": 120.0
            },
            {
                "start_time": 8.1363636,
                "end_time": 8.3045455,
                "pitch": 87,
                "velocity": 40,
                "duration": 0.1681818,
                "tempo": 120.0
            },
            {
                "start_time": 8.3045455,
                "end_time": 8.4704545,
                "pitch": 79,
                "velocity": 40,
                "duration": 0.1659091,
                "tempo": 120.0
            },
            {
                "start_time": 8.4704545,
                "end_time": 8.6431818,
                "pitch": 80,
                "velocity": 40,
                "duration": 0.1727273,
                "tempo": 120.0
            },
            {
                "start_time": 8.6431818,
                "end_time": 8.8159091,
                "pitch": 79,
                "velocity": 40,
                "duration": 0.1727273,
                "tempo": 120.0
            },
            {
                "start_time": 8.8159091,
                "end_time": 8.9840909,
                "pitch": 87,
                "velocity": 40,
                "duration": 0.1681818,
                "tempo": 120.0
            },
            {
                "start_time": 8.9840909,
                "end_time": 9.1522727,
                "pitch": 79,
                "velocity": 40,
                "duration": 0.1681818,
                "tempo": 120.0
            },
            {
                "start_time": 9.1522727,
                "end_time": 9.3204545,
                "pitch": 80,
                "velocity": 40,
                "duration": 0.1681818,
                "tempo": 120.0
            },
            {
                "start_time": 9.3204545,
                "end_time": 9.4863636,
                "pitch": 79,
                "velocity": 40,
                "duration": 0.1659091,
                "tempo": 120.0
            },
            {
                "start_time": 9.4863636,
                "end_time": 9.6590909,
                "pitch": 87,
                "velocity": 40,
                "duration": 0.1727273,
                "tempo": 120.0
            },
            {
                "start_time": 9.6590909,
                "end_time": 9.8318182,
                "pitch": 79,
                "velocity": 40,
                "duration": 0.1727273,
                "tempo": 120.0
            },
            {
                "start_time": 9.8318182,
                "end_time": 10.0,
                "pitch": 80,
                "velocity": 40,
                "duration": 0.1681818,
                "tempo": 120.0
            },
            {
                "start_time": 10.0,
                "end_time": 10.1681818,
                "pitch": 79,
                "velocity": 40,
                "duration": 0.1681818,
                "tempo": 120.0
            },
            {
                "start_time": 10.1681818,
                "end_time": 10.3340909,
                "pitch": 87,
                "velocity": 40,
                "duration": 0.1659091,
                "tempo": 120.0
            },
            {
                "start_time": 10.3340909,
                "end_time": 10.5022727,
                "pitch": 79,
                "velocity": 40,
                "duration": 0.1681818,
                "tempo": 120.0
            },
            {
                "start_time": 10.5022727,
                "end_time": 10.675,
                "pitch": 80,
                "velocity": 40,
                "duration": 0.1727273,
                "tempo": 120.0
            },
            {
                "start_time": 10.675,
                "end_time": 10.8477273,
                "pitch": 79,
                "velocity": 40,
                "duration": 0.1727273,
                "tempo": 120.0
            }
        ],
        "Lead 2 (sawtooth)": [
            {
                "start_time": 21.6886364,
                "end_time": 21.8204545,
                "pitch": 67,
                "velocity": 80,
                "duration": 0.1318182,
                "tempo": 120.0
            },
            {
                "start_time": 21.8545455,
                "end_time": 22.1386364,
                "pitch": 67,
                "velocity": 80,
                "duration": 0.2840909,
                "tempo": 120.0
            },
            {
                "start_time": 22.1909091,
                "end_time": 22.325,
                "pitch": 67,
                "velocity": 80,
                "duration": 0.1340909,
                "tempo": 120.0
            },
            {
                "start_time": 22.3590909,
                "end_time": 22.6590909,
                "pitch": 67,
                "velocity": 80,
                "duration": 0.3,
                "tempo": 120.0
            },
            {
                "start_time": 22.7136364,
                "end_time": 22.8409091,
                "pitch": 67,
                "velocity": 80,
                "duration": 0.1272727,
                "tempo": 120.0
            },
            {
                "start_time": 22.875,
                "end_time": 23.175,
                "pitch": 67,
                "velocity": 80,
                "duration": 0.3,
                "tempo": 120.0
            },
            {
                "start_time": 23.2090909,
                "end_time": 23.3477273,
                "pitch": 67,
                "velocity": 80,
                "duration": 0.1386364,
                "tempo": 120.0
            },
            {
                "start_time": 23.3818182,
                "end_time": 23.675,
                "pitch": 67,
                "velocity": 80,
                "duration": 0.2931818,
                "tempo": 120.0
            },
            {
                "start_time": 23.7272727,
                "end_time": 24.0022727,
                "pitch": 65,
                "velocity": 80,
                "duration": 0.275,
                "tempo": 120.0
            },
            {
                "start_time": 24.0522727,
                "end_time": 24.3431818,
                "pitch": 65,
                "velocity": 80,
                "duration": 0.2909091,
                "tempo": 120.0
            },
            {
                "start_time": 24.3954545,
                "end_time": 24.5295455,
                "pitch": 67,
                "velocity": 80,
                "duration": 0.1340909,
                "tempo": 120.0
            },
            {
                "start_time": 24.5636364,
                "end_time": 24.8477273,
                "pitch": 67,
                "velocity": 80,
                "duration": 0.2840909,
                "tempo": 120.0
            },
            {
                "start_time": 24.9,
                "end_time": 25.0318182,
                "pitch": 67,
                "velocity": 80,
                "duration": 0.1318182,
                "tempo": 120.0
            },
            {
                "start_time": 25.0659091,
                "end_time": 25.3590909,
                "pitch": 67,
                "velocity": 80,
                "duration": 0.2931818,
                "tempo": 120.0
            },
            {
                "start_time": 25.4113636,
                "end_time": 25.5454545,
                "pitch": 67,
                "velocity": 80,
                "duration": 0.1340909,
                "tempo": 120.0
            },
            {
                "start_time": 25.5795455,
                "end_time": 25.8840909,
                "pitch": 67,
                "velocity": 80,
                "duration": 0.3045455,
                "tempo": 120.0
            },
            {
                "start_time": 25.9181818,
                "end_time": 26.0568182,
                "pitch": 67,
                "velocity": 80,
                "duration": 0.1386364,
                "tempo": 120.0
            },
            {
                "start_time": 26.0909091,
                "end_time": 26.3840909,
                "pitch": 67,
                "velocity": 80,
                "duration": 0.2931818,
                "tempo": 120.0
            },
            {
                "start_time": 26.4363636,
                "end_time": 26.7204545,
                "pitch": 70,
                "velocity": 80,
                "duration": 0.2840909,
                "tempo": 120.0
            },
            {
                "start_time": 26.7727273,
                "end_time": 27.0568182,
                "pitch": 70,
                "velocity": 80,
                "duration": 0.2840909,
                "tempo": 120.0
            },
            {
                "start_time": 27.1068182,
                "end_time": 27.6204545,
                "pitch": 67,
                "velocity": 80,
                "duration": 0.5136364,
                "tempo": 120.0
            },
            {
                "start_time": 27.6204545,
                "end_time": 28.1227273,
                "pitch": 67,
                "velocity": 80,
                "duration": 0.5022727,
                "tempo": 120.0
            },
            {
                "start_time": 28.1227273,
                "end_time": 28.4681818,
                "pitch": 67,
                "velocity": 80,
                "duration": 0.3454545,
                "tempo": 120.0
            },
            {
                "start_time": 28.4681818,
                "end_time": 28.9704545,
                "pitch": 75,
                "velocity": 80,
                "duration": 0.5022727,
                "tempo": 120.0
            },
            {
                "start_time": 28.9704545,
                "end_time": 29.8181818,
                "pitch": 77,
                "velocity": 80,
                "duration": 0.8477273,
                "tempo": 120.0
            }
        ],
        "Acoustic Grand Piano": [
            {
                "start_time": 0.0045455,
                "end_time": 0.1681818,
                "pitch": 84,
                "velocity": 51,
                "duration": 0.1636364,
                "tempo": 120.0
            },
            {
                "start_time": 0.1704545,
                "end_time": 0.3363636,
                "pitch": 72,
                "velocity": 51,
                "duration": 0.1659091,
                "tempo": 120.0
            },
            {
                "start_time": 0.3363636,
                "end_time": 0.5090909,
                "pitch": 75,
                "velocity": 51,
                "duration": 0.1727273,
                "tempo": 120.0
            },
            {
                "start_time": 0.5090909,
                "end_time": 0.6818182,
                "pitch": 72,
                "velocity": 51,
                "duration": 0.1727273,
                "tempo": 120.0
            },
            {
                "start_time": 0.6818182,
                "end_time": 0.85,
                "pitch": 84,
                "velocity": 51,
                "duration": 0.1681818,
                "tempo": 120.0
            },
            {
                "start_time": 0.85,
                "end_time": 1.0159091,
                "pitch": 72,
                "velocity": 51,
                "duration": 0.1659091,
                "tempo": 120.0
            },
            {
                "start_time": 1.0159091,
                "end_time": 1.1840909,
                "pitch": 75,
                "velocity": 51,
                "duration": 0.1681818,
                "tempo": 120.0
            },
            {
                "start_time": 1.1840909,
                "end_time": 1.3522727,
                "pitch": 72,
                "velocity": 51,
                "duration": 0.1681818,
                "tempo": 120.0
            },
            {
                "start_time": 1.3522727,
                "end_time": 1.525,
                "pitch": 84,
                "velocity": 51,
                "duration": 0.1727273,
                "tempo": 120.0
            },
            {
                "start_time": 1.525,
                "end_time": 1.6977273,
                "pitch": 72,
                "velocity": 51,
                "duration": 0.1727273,
                "tempo": 120.0
            },
            {
                "start_time": 1.6977273,
                "end_time": 1.8659091,
                "pitch": 75,
                "velocity": 51,
                "duration": 0.1681818,
                "tempo": 120.0
            },
            {
                "start_time": 1.8659091,
                "end_time": 2.0318182,
                "pitch": 72,
                "velocity": 51,
                "duration": 0.1659091,
                "tempo": 120.0
            },
            {
                "start_time": 2.0318182,
                "end_time": 2.2,
                "pitch": 84,
                "velocity": 51,
                "duration": 0.1681818,
                "tempo": 120.0
            },
            {
                "start_time": 2.2,
                "end_time": 2.3681818,
                "pitch": 72,
                "velocity": 51,
                "duration": 0.1681818,
                "tempo": 120.0
            },
            {
                "start_time": 2.3681818,
                "end_time": 2.5409091,
                "pitch": 75,
                "velocity": 51,
                "duration": 0.1727273,
                "tempo": 120.0
            },
            {
                "start_time": 2.5409091,
                "end_time": 2.7136364,
                "pitch": 72,
                "velocity": 51,
                "duration": 0.1727273,
                "tempo": 120.0
            },
            {
                "start_time": 2.7136364,
                "end_time": 2.8795455,
                "pitch": 84,
                "velocity": 51,
                "duration": 0.1659091,
                "tempo": 120.0
            },
            {
                "start_time": 2.8795455,
                "end_time": 3.0477273,
                "pitch": 72,
                "velocity": 51,
                "duration": 0.1681818,
                "tempo": 120.0
            },
            {
                "start_time": 3.0477273,
                "end_time": 3.2204545,
                "pitch": 75,
                "velocity": 51,
                "duration": 0.1727273,
                "tempo": 120.0
            },
            {
                "start_time": 3.2204545,
                "end_time": 3.3931818,
                "pitch": 72,
                "velocity": 51,
                "duration": 0.1727273,
                "tempo": 120.0
            },
            {
                "start_time": 3.3931818,
                "end_time": 3.5613636,
                "pitch": 84,
                "velocity": 51,
                "duration": 0.1681818,
                "tempo": 120.0
            },
            {
                "start_time": 3.5613636,
                "end_time": 3.7272727,
                "pitch": 72,
                "velocity": 51,
                "duration": 0.1659091,
                "tempo": 120.0
            },
            {
                "start_time": 3.7272727,
                "end_time": 3.8954545,
                "pitch": 75,
                "velocity": 51,
                "duration": 0.1681818,
                "tempo": 120.0
            },
            {
                "start_time": 3.8954545,
                "end_time": 4.0636364,
                "pitch": 72,
                "velocity": 51,
                "duration": 0.1681818,
                "tempo": 120.0
            },
            {
                "start_time": 4.0636364,
                "end_time": 4.2363636,
                "pitch": 84,
                "velocity": 51,
                "duration": 0.1727273,
                "tempo": 120.0
            },
            {
                "start_time": 4.2363636,
                "end_time": 4.4090909,
                "pitch": 72,
                "velocity": 51,
                "duration": 0.1727273,
                "tempo": 120.0
            },
            {
                "start_time": 4.4090909,
                "end_time": 4.575,
                "pitch": 75,
                "velocity": 51,
                "duration": 0.1659091,
                "tempo": 120.0
            },
            {
                "start_time": 4.5772727,
                "end_time": 4.7431818,
                "pitch": 72,
                "velocity": 51,
                "duration": 0.1659091,
                "tempo": 120.0
            },
            {
                "start_time": 4.7431818,
                "end_time": 4.9113636,
                "pitch": 84,
                "velocity": 51,
                "duration": 0.1681818,
                "tempo": 120.0
            },
            {
                "start_time": 4.9113636,
                "end_time": 5.0795455,
                "pitch": 72,
                "velocity": 51,
                "duration": 0.1681818,
                "tempo": 120.0
            },
            {
                "start_time": 5.0795455,
                "end_time": 5.2522727,
                "pitch": 75,
                "velocity": 51,
                "duration": 0.1727273,
                "tempo": 120.0
            },
            {
                "start_time": 5.2522727,
                "end_time": 5.425,
                "pitch": 72,
                "velocity": 51,
                "duration": 0.1727273,
                "tempo": 120.0
            },
            {
                "start_time": 5.425,
                "end_time": 5.5909091,
                "pitch": 84,
                "velocity": 51,
                "duration": 0.1659091,
                "tempo": 120.0
            },
            {
                "start_time": 5.5909091,
                "end_time": 5.7590909,
                "pitch": 72,
                "velocity": 51,
                "duration": 0.1681818,
                "tempo": 120.0
            },
            {
                "start_time": 5.7590909,
                "end_time": 5.9318182,
                "pitch": 75,
                "velocity": 51,
                "duration": 0.1727273,
                "tempo": 120.0
            },
            {
                "start_time": 5.9318182,
                "end_time": 6.1045455,
                "pitch": 72,
                "velocity": 51,
                "duration": 0.1727273,
                "tempo": 120.0
            },
            {
                "start_time": 6.1045455,
                "end_time": 6.2727273,
                "pitch": 84,
                "velocity": 51,
                "duration": 0.1681818,
                "tempo": 120.0
            },
            {
                "start_time": 6.2727273,
                "end_time": 6.4386364,
                "pitch": 72,
                "velocity": 51,
                "duration": 0.1659091,
                "tempo": 120.0
            },
            {
                "start_time": 6.4386364,
                "end_time": 6.6068182,
                "pitch": 75,
                "velocity": 51,
                "duration": 0.1681818,
                "tempo": 120.0
            },
            {
                "start_time": 6.6068182,
                "end_time": 6.775,
                "pitch": 72,
                "velocity": 51,
                "duration": 0.1681818,
                "tempo": 120.0
            },
            {
                "start_time": 6.775,
                "end_time": 6.9477273,
                "pitch": 84,
                "velocity": 51,
                "duration": 0.1727273,
                "tempo": 120.0
            },
            {
                "start_time": 6.9477273,
                "end_time": 7.1181818,
                "pitch": 72,
                "velocity": 51,
                "duration": 0.1704545,
                "tempo": 120.0
            },
            {
                "start_time": 7.1204545,
                "end_time": 7.2863636,
                "pitch": 75,
                "velocity": 51,
                "duration": 0.1659091,
                "tempo": 120.0
            },
            {
                "start_time": 7.2886364,
                "end_time": 7.4545455,
                "pitch": 72,
                "velocity": 51,
                "duration": 0.1659091,
                "tempo": 120.0
            },
            {
                "start_time": 7.4545455,
                "end_time": 7.6227273,
                "pitch": 84,
                "velocity": 51,
                "duration": 0.1681818,
                "tempo": 120.0
            },
            {
                "start_time": 7.6227273,
                "end_time": 7.7909091,
                "pitch": 72,
                "velocity": 51,
                "duration": 0.1681818,
                "tempo": 120.0
            },
            {
                "start_time": 7.7909091,
                "end_time": 7.9636364,
                "pitch": 75,
                "velocity": 51,
                "duration": 0.1727273,
                "tempo": 120.0
            },
            {
                "start_time": 7.9636364,
                "end_time": 8.1340909,
                "pitch": 72,
                "velocity": 51,
                "duration": 0.1704545,
                "tempo": 120.0
            },
            {
                "start_time": 8.1363636,
                "end_time": 8.3022727,
                "pitch": 84,
                "velocity": 51,
                "duration": 0.1659091,
                "tempo": 120.0
            },
            {
                "start_time": 8.3022727,
                "end_time": 8.4704545,
                "pitch": 72,
                "velocity": 51,
                "duration": 0.1681818,
                "tempo": 120.0
            },
            {
                "start_time": 8.4704545,
                "end_time": 8.6431818,
                "pitch": 75,
                "velocity": 51,
                "duration": 0.1727273,
                "tempo": 120.0
            },
            {
                "start_time": 8.6431818,
                "end_time": 8.8159091,
                "pitch": 72,
                "velocity": 51,
                "duration": 0.1727273,
                "tempo": 120.0
            },
            {
                "start_time": 8.8159091,
                "end_time": 8.9818182,
                "pitch": 84,
                "velocity": 51,
                "duration": 0.1659091,
                "tempo": 120.0
            },
            {
                "start_time": 8.9840909,
                "end_time": 9.15,
                "pitch": 72,
                "velocity": 51,
                "duration": 0.1659091,
                "tempo": 120.0
            },
            {
                "start_time": 9.15,
                "end_time": 9.3181818,
                "pitch": 75,
                "velocity": 51,
                "duration": 0.1681818,
                "tempo": 120.0
            },
            {
                "start_time": 9.3181818,
                "end_time": 9.4863636,
                "pitch": 72,
                "velocity": 51,
                "duration": 0.1681818,
                "tempo": 120.0
            },
            {
                "start_time": 9.4863636,
                "end_time": 9.6590909,
                "pitch": 84,
                "velocity": 51,
                "duration": 0.1727273,
                "tempo": 120.0
            },
            {
                "start_time": 9.6590909,
                "end_time": 9.8295455,
                "pitch": 72,
                "velocity": 51,
                "duration": 0.1704545,
                "tempo": 120.0
            },
            {
                "start_time": 9.8295455,
                "end_time": 9.9977273,
                "pitch": 75,
                "velocity": 51,
                "duration": 0.1681818,
                "tempo": 120.0
            },
            {
                "start_time": 9.9977273,
                "end_time": 10.1659091,
                "pitch": 72,
                "velocity": 51,
                "duration": 0.1681818,
                "tempo": 120.0
            },
            {
                "start_time": 10.1659091,
                "end_time": 10.3340909,
                "pitch": 84,
                "velocity": 51,
                "duration": 0.1681818,
                "tempo": 120.0
            },
            {
                "start_time": 10.3340909,
                "end_time": 10.5,
                "pitch": 72,
                "velocity": 51,
                "duration": 0.1659091,
                "tempo": 120.0
            },
            {
                "start_time": 10.5022727,
                "end_time": 10.675,
                "pitch": 75,
                "velocity": 51,
                "duration": 0.1727273,
                "tempo": 120.0
            },
            {
                "start_time": 10.675,
                "end_time": 10.8454545,
                "pitch": 72,
                "velocity": 51,
                "duration": 0.1704545,
                "tempo": 120.0
            },
            {
                "start_time": 10.8454545,
                "end_time": 11.0181818,
                "pitch": 82,
                "velocity": 51,
                "duration": 0.1727273,
                "tempo": 120.0
            },
            {
                "start_time": 11.0181818,
                "end_time": 11.1909091,
                "pitch": 70,
                "velocity": 51,
                "duration": 0.1727273,
                "tempo": 120.0
            },
            {
                "start_time": 11.1909091,
                "end_time": 11.3590909,
                "pitch": 74,
                "velocity": 51,
                "duration": 0.1681818,
                "tempo": 120.0
            },
            {
                "start_time": 11.3590909,
                "end_time": 11.5272727,
                "pitch": 70,
                "velocity": 51,
                "duration": 0.1681818,
                "tempo": 120.0
            },
            {
                "start_time": 11.5272727,
                "end_time": 11.6954545,
                "pitch": 82,
                "velocity": 51,
                "duration": 0.1681818,
                "tempo": 120.0
            },
            {
                "start_time": 11.6954545,
                "end_time": 11.8613636,
                "pitch": 70,
                "velocity": 51,
                "duration": 0.1659091,
                "tempo": 120.0
            },
            {
                "start_time": 11.8613636,
                "end_time": 12.0340909,
                "pitch": 74,
                "velocity": 51,
                "duration": 0.1727273,
                "tempo": 120.0
            },
            {
                "start_time": 12.0340909,
                "end_time": 12.2068182,
                "pitch": 70,
                "velocity": 51,
                "duration": 0.1727273,
                "tempo": 120.0
            },
            {
                "start_time": 12.2068182,
                "end_time": 12.375,
                "pitch": 82,
                "velocity": 51,
                "duration": 0.1681818,
                "tempo": 120.0
            },
            {
                "start_time": 12.375,
                "end_time": 12.5431818,
                "pitch": 70,
                "velocity": 51,
                "duration": 0.1681818,
                "tempo": 120.0
            },
            {
                "start_time": 12.5431818,
                "end_time": 12.7136364,
                "pitch": 74,
                "velocity": 51,
                "duration": 0.1704545,
                "tempo": 120.0
            },
            {
                "start_time": 12.7136364,
                "end_time": 12.8863636,
                "pitch": 70,
                "velocity": 51,
                "duration": 0.1727273,
                "tempo": 120.0
            },
            {
                "start_time": 12.8863636,
                "end_time": 13.0477273,
                "pitch": 82,
                "velocity": 51,
                "duration": 0.1613636,
                "tempo": 120.0
            },
            {
                "start_time": 13.05,
                "end_time": 13.2113636,
                "pitch": 70,
                "velocity": 51,
                "duration": 0.1613636,
                "tempo": 120.0
            },
            {
                "start_time": 13.2113636,
                "end_time": 13.3840909,
                "pitch": 74,
                "velocity": 51,
                "duration": 0.1727273,
                "tempo": 120.0
            },
            {
                "start_time": 13.3840909,
                "end_time": 13.5568182,
                "pitch": 70,
                "velocity": 51,
                "duration": 0.1727273,
                "tempo": 120.0
            },
            {
                "start_time": 13.5568182,
                "end_time": 13.7227273,
                "pitch": 80,
                "velocity": 51,
                "duration": 0.1659091,
                "tempo": 120.0
            },
            {
                "start_time": 13.7227273,
                "end_time": 13.8909091,
                "pitch": 68,
                "velocity": 51,
                "duration": 0.1681818,
                "tempo": 120.0
            },
            {
                "start_time": 13.8909091,
                "end_time": 14.0636364,
                "pitch": 72,
                "velocity": 51,
                "duration": 0.1727273,
                "tempo": 120.0
            },
            {
                "start_time": 14.0636364,
                "end_time": 14.2363636,
                "pitch": 68,
                "velocity": 51,
                "duration": 0.1727273,
                "tempo": 120.0
            },
            {
                "start_time": 14.2363636,
                "end_time": 14.4045455,
                "pitch": 80,
                "velocity": 51,
                "duration": 0.1681818,
                "tempo": 120.0
            },
            {
                "start_time": 14.4045455,
                "end_time": 14.5704545,
                "pitch": 68,
                "velocity": 51,
                "duration": 0.1659091,
                "tempo": 120.0
            },
            {
                "start_time": 14.5727273,
                "end_time": 14.7431818,
                "pitch": 72,
                "velocity": 51,
                "duration": 0.1704545,
                "tempo": 120.0
            },
            {
                "start_time": 14.7431818,
                "end_time": 14.9159091,
                "pitch": 68,
                "velocity": 51,
                "duration": 0.1727273,
                "tempo": 120.0
            },
            {
                "start_time": 14.9159091,
                "end_time": 15.0840909,
                "pitch": 80,
                "velocity": 51,
                "duration": 0.1681818,
                "tempo": 120.0
            },
            {
                "start_time": 15.0840909,
                "end_time": 15.2522727,
                "pitch": 68,
                "velocity": 51,
                "duration": 0.1681818,
                "tempo": 120.0
            },
            {
                "start_time": 15.2522727,
                "end_time": 15.4227273,
                "pitch": 72,
                "velocity": 51,
                "duration": 0.1704545,
                "tempo": 120.0
            },
            {
                "start_time": 15.425,
                "end_time": 15.5954545,
                "pitch": 68,
                "velocity": 51,
                "duration": 0.1704545,
                "tempo": 120.0
            },
            {
                "start_time": 15.5954545,
                "end_time": 15.7590909,
                "pitch": 80,
                "velocity": 51,
                "duration": 0.1636364,
                "tempo": 120.0
            },
            {
                "start_time": 15.7590909,
                "end_time": 15.9204545,
                "pitch": 68,
                "velocity": 51,
                "duration": 0.1613636,
                "tempo": 120.0
            },
            {
                "start_time": 15.9204545,
                "end_time": 16.0931818,
                "pitch": 72,
                "velocity": 51,
                "duration": 0.1727273,
                "tempo": 120.0
            },
            {
                "start_time": 16.0931818,
                "end_time": 16.2659091,
                "pitch": 68,
                "velocity": 51,
                "duration": 0.1727273,
                "tempo": 120.0
            },
            {
                "start_time": 16.2659091,
                "end_time": 16.4318182,
                "pitch": 82,
                "velocity": 51,
                "duration": 0.1659091,
                "tempo": 120.0
            },
            {
                "start_time": 16.4340909,
                "end_time": 16.6,
                "pitch": 70,
                "velocity": 51,
                "duration": 0.1659091,
                "tempo": 120.0
            },
            {
                "start_time": 16.6,
                "end_time": 16.7727273,
                "pitch": 74,
                "velocity": 51,
                "duration": 0.1727273,
                "tempo": 120.0
            },
            {
                "start_time": 16.7727273,
                "end_time": 16.9454545,
                "pitch": 70,
                "velocity": 51,
                "duration": 0.1727273,
                "tempo": 120.0
            },
            {
                "start_time": 16.9454545,
                "end_time": 17.1136364,
                "pitch": 82,
                "velocity": 51,
                "duration": 0.1681818,
                "tempo": 120.0
            },
            {
                "start_time": 17.1136364,
                "end_time": 17.2818182,
                "pitch": 70,
                "velocity": 51,
                "duration": 0.1681818,
                "tempo": 120.0
            },
            {
                "start_time": 17.2818182,
                "end_time": 17.4522727,
                "pitch": 74,
                "velocity": 51,
                "duration": 0.1704545,
                "tempo": 120.0
            },
            {
                "start_time": 17.4522727,
                "end_time": 17.625,
                "pitch": 70,
                "velocity": 51,
                "duration": 0.1727273,
                "tempo": 120.0
            },
            {
                "start_time": 17.625,
                "end_time": 17.7931818,
                "pitch": 82,
                "velocity": 51,
                "duration": 0.1681818,
                "tempo": 120.0
            },
            {
                "start_time": 17.7931818,
                "end_time": 17.9613636,
                "pitch": 70,
                "velocity": 51,
                "duration": 0.1681818,
                "tempo": 120.0
            },
            {
                "start_time": 17.9613636,
                "end_time": 18.1295455,
                "pitch": 74,
                "velocity": 51,
                "duration": 0.1681818,
                "tempo": 120.0
            },
            {
                "start_time": 18.1295455,
                "end_time": 18.2954545,
                "pitch": 70,
                "velocity": 51,
                "duration": 0.1659091,
                "tempo": 120.0
            },
            {
                "start_time": 18.2954545,
                "end_time": 18.4681818,
                "pitch": 82,
                "velocity": 51,
                "duration": 0.1727273,
                "tempo": 120.0
            },
            {
                "start_time": 18.4681818,
                "end_time": 18.6409091,
                "pitch": 70,
                "velocity": 51,
                "duration": 0.1727273,
                "tempo": 120.0
            },
            {
                "start_time": 18.6409091,
                "end_time": 18.8090909,
                "pitch": 74,
                "velocity": 51,
                "duration": 0.1681818,
                "tempo": 120.0
            },
            {
                "start_time": 18.8090909,
                "end_time": 19.1431818,
                "pitch": 87,
                "velocity": 64,
                "duration": 0.3340909,
                "tempo": 120.0
            },
            {
                "start_time": 19.1454545,
                "end_time": 19.3113636,
                "pitch": 80,
                "velocity": 64,
                "duration": 0.1659091,
                "tempo": 120.0
            },
            {
                "start_time": 19.3113636,
                "end_time": 19.4840909,
                "pitch": 82,
                "velocity": 64,
                "duration": 0.1727273,
                "tempo": 120.0
            },
            {
                "start_time": 19.4840909,
                "end_time": 19.825,
                "pitch": 84,
                "velocity": 64,
                "duration": 0.3409091,
                "tempo": 120.0
            },
            {
                "start_time": 19.825,
                "end_time": 19.9909091,
                "pitch": 75,
                "velocity": 64,
                "duration": 0.1659091,
                "tempo": 120.0
            },
            {
                "start_time": 19.9909091,
                "end_time": 20.1636364,
                "pitch": 77,
                "velocity": 64,
                "duration": 0.1727273,
                "tempo": 120.0
            },
            {
                "start_time": 20.1636364,
                "end_time": 20.5045455,
                "pitch": 79,
                "velocity": 64,
                "duration": 0.3409091,
                "tempo": 120.0
            },
            {
                "start_time": 20.5045455,
                "end_time": 20.6727273,
                "pitch": 68,
                "velocity": 64,
                "duration": 0.1681818,
                "tempo": 120.0
            },
            {
                "start_time": 20.6727273,
                "end_time": 20.8409091,
                "pitch": 70,
                "velocity": 64,
                "duration": 0.1681818,
                "tempo": 120.0
            },
            {
                "start_time": 20.8409091,
                "end_time": 21.3522727,
                "pitch": 72,
                "velocity": 64,
                "duration": 0.5113636,
                "tempo": 120.0
            },
            {
                "start_time": 21.3522727,
                "end_time": 21.6886364,
                "pitch": 71,
                "velocity": 64,
                "duration": 0.3363636,
                "tempo": 120.0
            }
        ],
        "Acoustic Guitar (nylon)": [
            {
                "start_time": 0.0022727,
                "end_time": 0.1181818,
                "pitch": 36,
                "velocity": 101,
                "duration": 0.1159091,
                "tempo": 120.0
            },
            {
                "start_time": 0.1681818,
                "end_time": 0.4227273,
                "pitch": 36,
                "velocity": 101,
                "duration": 0.2545455,
                "tempo": 120.0
            },
            {
                "start_time": 0.5090909,
                "end_time": 0.6295455,
                "pitch": 36,
                "velocity": 101,
                "duration": 0.1204545,
                "tempo": 120.0
            },
            {
                "start_time": 0.6818182,
                "end_time": 0.7977273,
                "pitch": 36,
                "velocity": 101,
                "duration": 0.1159091,
                "tempo": 120.0
            },
            {
                "start_time": 0.85,
                "end_time": 1.1,
                "pitch": 36,
                "velocity": 101,
                "duration": 0.25,
                "tempo": 120.0
            },
            {
                "start_time": 1.1840909,
                "end_time": 1.3,
                "pitch": 36,
                "velocity": 101,
                "duration": 0.1159091,
                "tempo": 120.0
            },
            {
                "start_time": 1.3522727,
                "end_time": 1.4727273,
                "pitch": 36,
                "velocity": 101,
                "duration": 0.1204545,
                "tempo": 120.0
            },
            {
                "start_time": 1.525,
                "end_time": 1.7795455,
                "pitch": 36,
                "velocity": 101,
                "duration": 0.2545455,
                "tempo": 120.0
            },
            {
                "start_time": 1.8636364,
                "end_time": 1.9818182,
                "pitch": 36,
                "velocity": 101,
                "duration": 0.1181818,
                "tempo": 120.0
            },
            {
                "start_time": 2.0318182,
                "end_time": 2.1477273,
                "pitch": 34,
                "velocity": 101,
                "duration": 0.1159091,
                "tempo": 120.0
            },
            {
                "start_time": 2.2,
                "end_time": 2.4522727,
                "pitch": 34,
                "velocity": 101,
                "duration": 0.2522727,
                "tempo": 120.0
            },
            {
                "start_time": 2.5409091,
                "end_time": 2.6590909,
                "pitch": 34,
                "velocity": 101,
                "duration": 0.1181818,
                "tempo": 120.0
            },
            {
                "start_time": 2.7113636,
                "end_time": 2.8295455,
                "pitch": 36,
                "velocity": 101,
                "duration": 0.1181818,
                "tempo": 120.0
            },
            {
                "start_time": 2.8795455,
                "end_time": 3.1340909,
                "pitch": 36,
                "velocity": 101,
                "duration": 0.2545455,
                "tempo": 120.0
            },
            {
                "start_time": 3.2204545,
                "end_time": 3.3409091,
                "pitch": 36,
                "velocity": 101,
                "duration": 0.1204545,
                "tempo": 120.0
            },
            {
                "start_time": 3.3931818,
                "end_time": 3.5090909,
                "pitch": 36,
                "velocity": 101,
                "duration": 0.1159091,
                "tempo": 120.0
            },
            {
                "start_time": 3.5613636,
                "end_time": 3.8113636,
                "pitch": 36,
                "velocity": 101,
                "duration": 0.25,
                "tempo": 120.0
            },
            {
                "start_time": 3.8954545,
                "end_time": 4.0113636,
                "pitch": 36,
                "velocity": 101,
                "duration": 0.1159091,
                "tempo": 120.0
            },
            {
                "start_time": 4.0636364,
                "end_time": 4.1840909,
                "pitch": 36,
                "velocity": 101,
                "duration": 0.1204545,
                "tempo": 120.0
            },
            {
                "start_time": 4.2363636,
                "end_time": 4.4909091,
                "pitch": 36,
                "velocity": 101,
                "duration": 0.2545455,
                "tempo": 120.0
            },
            {
                "start_time": 4.575,
                "end_time": 4.6931818,
                "pitch": 36,
                "velocity": 101,
                "duration": 0.1181818,
                "tempo": 120.0
            },
            {
                "start_time": 4.7431818,
                "end_time": 4.8590909,
                "pitch": 36,
                "velocity": 101,
                "duration": 0.1159091,
                "tempo": 120.0
            },
            {
                "start_time": 4.9113636,
                "end_time": 5.0272727,
                "pitch": 34,
                "velocity": 101,
                "duration": 0.1159091,
                "tempo": 120.0
            },
            {
                "start_time": 5.0795455,
                "end_time": 5.1977273,
                "pitch": 34,
                "velocity": 101,
                "duration": 0.1181818,
                "tempo": 120.0
            },
            {
                "start_time": 5.2522727,
                "end_time": 5.3704545,
                "pitch": 35,
                "velocity": 101,
                "duration": 0.1181818,
                "tempo": 120.0
            },
            {
                "start_time": 5.4227273,
                "end_time": 5.5409091,
                "pitch": 36,
                "velocity": 101,
                "duration": 0.1181818,
                "tempo": 120.0
            },
            {
                "start_time": 5.5909091,
                "end_time": 5.8431818,
                "pitch": 36,
                "velocity": 101,
                "duration": 0.2522727,
                "tempo": 120.0
            },
            {
                "start_time": 5.9318182,
                "end_time": 6.05,
                "pitch": 36,
                "velocity": 101,
                "duration": 0.1181818,
                "tempo": 120.0
            },
            {
                "start_time": 6.1045455,
                "end_time": 6.2204545,
                "pitch": 36,
                "velocity": 101,
                "duration": 0.1159091,
                "tempo": 120.0
            },
            {
                "start_time": 6.2704545,
                "end_time": 6.5227273,
                "pitch": 36,
                "velocity": 101,
                "duration": 0.2522727,
                "tempo": 120.0
            },
            {
                "start_time": 6.6068182,
                "end_time": 6.7227273,
                "pitch": 36,
                "velocity": 101,
                "duration": 0.1159091,
                "tempo": 120.0
            },
            {
                "start_time": 6.775,
                "end_time": 6.8931818,
                "pitch": 36,
                "velocity": 101,
                "duration": 0.1181818,
                "tempo": 120.0
            },
            {
                "start_time": 6.9477273,
                "end_time": 7.2022727,
                "pitch": 36,
                "velocity": 101,
                "duration": 0.2545455,
                "tempo": 120.0
            },
            {
                "start_time": 7.2863636,
                "end_time": 7.4045455,
                "pitch": 36,
                "velocity": 101,
                "duration": 0.1181818,
                "tempo": 120.0
            },
            {
                "start_time": 7.4545455,
                "end_time": 7.5704545,
                "pitch": 34,
                "velocity": 101,
                "duration": 0.1159091,
                "tempo": 120.0
            },
            {
                "start_time": 7.6227273,
                "end_time": 7.875,
                "pitch": 34,
                "velocity": 101,
                "duration": 0.2522727,
                "tempo": 120.0
            },
            {
                "start_time": 7.9613636,
                "end_time": 8.0818182,
                "pitch": 34,
                "velocity": 101,
                "duration": 0.1204545,
                "tempo": 120.0
            },
            {
                "start_time": 8.1340909,
                "end_time": 8.2522727,
                "pitch": 36,
                "velocity": 101,
                "duration": 0.1181818,
                "tempo": 120.0
            },
            {
                "start_time": 8.3022727,
                "end_time": 8.5545455,
                "pitch": 36,
                "velocity": 101,
                "duration": 0.2522727,
                "tempo": 120.0
            },
            {
                "start_time": 8.6431818,
                "end_time": 8.7613636,
                "pitch": 36,
                "velocity": 101,
                "duration": 0.1181818,
                "tempo": 120.0
            },
            {
                "start_time": 8.8159091,
                "end_time": 8.9318182,
                "pitch": 36,
                "velocity": 101,
                "duration": 0.1159091,
                "tempo": 120.0
            },
            {
                "start_time": 8.9818182,
                "end_time": 9.2340909,
                "pitch": 36,
                "velocity": 101,
                "duration": 0.2522727,
                "tempo": 120.0
            },
            {
                "start_time": 9.3181818,
                "end_time": 9.4340909,
                "pitch": 36,
                "velocity": 101,
                "duration": 0.1159091,
                "tempo": 120.0
            },
            {
                "start_time": 9.4863636,
                "end_time": 9.6045455,
                "pitch": 36,
                "velocity": 101,
                "duration": 0.1181818,
                "tempo": 120.0
            },
            {
                "start_time": 9.6590909,
                "end_time": 9.9136364,
                "pitch": 36,
                "velocity": 101,
                "duration": 0.2545455,
                "tempo": 120.0
            },
            {
                "start_time": 9.9977273,
                "end_time": 10.1136364,
                "pitch": 36,
                "velocity": 101,
                "duration": 0.1159091,
                "tempo": 120.0
            },
            {
                "start_time": 10.1659091,
                "end_time": 10.2818182,
                "pitch": 36,
                "velocity": 101,
                "duration": 0.1159091,
                "tempo": 120.0
            },
            {
                "start_time": 10.3340909,
                "end_time": 10.5863636,
                "pitch": 36,
                "velocity": 101,
                "duration": 0.2522727,
                "tempo": 120.0
            },
            {
                "start_time": 10.6727273,
                "end_time": 10.9659091,
                "pitch": 34,
                "velocity": 101,
                "duration": 0.2931818,
                "tempo": 120.0
            },
            {
                "start_time": 11.0181818,
                "end_time": 11.1386364,
                "pitch": 34,
                "velocity": 101,
                "duration": 0.1204545,
                "tempo": 120.0
            },
            {
                "start_time": 11.1909091,
                "end_time": 11.3068182,
                "pitch": 38,
                "velocity": 101,
                "duration": 0.1159091,
                "tempo": 120.0
            },
            {
                "start_time": 11.3590909,
                "end_time": 11.475,
                "pitch": 34,
                "velocity": 101,
                "duration": 0.1159091,
                "tempo": 120.0
            },
            {
                "start_time": 11.5272727,
                "end_time": 11.6431818,
                "pitch": 44,
                "velocity": 101,
                "duration": 0.1159091,
                "tempo": 120.0
            },
            {
                "start_time": 11.6931818,
                "end_time": 11.8113636,
                "pitch": 46,
                "velocity": 101,
                "duration": 0.1181818,
                "tempo": 120.0
            },
            {
                "start_time": 11.8613636,
                "end_time": 11.9818182,
                "pitch": 44,
                "velocity": 101,
                "duration": 0.1204545,
                "tempo": 120.0
            },
            {
                "start_time": 12.0340909,
                "end_time": 12.3227273,
                "pitch": 34,
                "velocity": 101,
                "duration": 0.2886364,
                "tempo": 120.0
            },
            {
                "start_time": 12.375,
                "end_time": 12.4909091,
                "pitch": 34,
                "velocity": 101,
                "duration": 0.1159091,
                "tempo": 120.0
            },
            {
                "start_time": 12.5409091,
                "end_time": 12.6613636,
                "pitch": 38,
                "velocity": 101,
                "duration": 0.1204545,
                "tempo": 120.0
            },
            {
                "start_time": 12.7136364,
                "end_time": 12.8340909,
                "pitch": 34,
                "velocity": 101,
                "duration": 0.1204545,
                "tempo": 120.0
            },
            {
                "start_time": 12.8863636,
                "end_time": 13.0,
                "pitch": 44,
                "velocity": 101,
                "duration": 0.1136364,
                "tempo": 120.0
            },
            {
                "start_time": 13.0477273,
                "end_time": 13.1613636,
                "pitch": 46,
                "velocity": 101,
                "duration": 0.1136364,
                "tempo": 120.0
            },
            {
                "start_time": 13.2113636,
                "end_time": 13.3295455,
                "pitch": 44,
                "velocity": 101,
                "duration": 0.1181818,
                "tempo": 120.0
            },
            {
                "start_time": 13.3840909,
                "end_time": 13.6727273,
                "pitch": 32,
                "velocity": 101,
                "duration": 0.2886364,
                "tempo": 120.0
            },
            {
                "start_time": 13.7227273,
                "end_time": 13.8409091,
                "pitch": 32,
                "velocity": 101,
                "duration": 0.1181818,
                "tempo": 120.0
            },
            {
                "start_time": 13.8909091,
                "end_time": 14.0113636,
                "pitch": 36,
                "velocity": 101,
                "duration": 0.1204545,
                "tempo": 120.0
            },
            {
                "start_time": 14.0636364,
                "end_time": 14.1840909,
                "pitch": 32,
                "velocity": 101,
                "duration": 0.1204545,
                "tempo": 120.0
            },
            {
                "start_time": 14.2363636,
                "end_time": 14.3522727,
                "pitch": 42,
                "velocity": 101,
                "duration": 0.1159091,
                "tempo": 120.0
            },
            {
                "start_time": 14.4045455,
                "end_time": 14.5204545,
                "pitch": 44,
                "velocity": 101,
                "duration": 0.1159091,
                "tempo": 120.0
            },
            {
                "start_time": 14.5704545,
                "end_time": 14.6909091,
                "pitch": 42,
                "velocity": 101,
                "duration": 0.1204545,
                "tempo": 120.0
            },
            {
                "start_time": 14.7431818,
                "end_time": 15.0318182,
                "pitch": 32,
                "velocity": 101,
                "duration": 0.2886364,
                "tempo": 120.0
            },
            {
                "start_time": 15.0840909,
                "end_time": 15.2,
                "pitch": 32,
                "velocity": 101,
                "duration": 0.1159091,
                "tempo": 120.0
            },
            {
                "start_time": 15.2522727,
                "end_time": 15.3704545,
                "pitch": 36,
                "velocity": 101,
                "duration": 0.1181818,
                "tempo": 120.0
            },
            {
                "start_time": 15.4227273,
                "end_time": 15.5431818,
                "pitch": 32,
                "velocity": 101,
                "duration": 0.1204545,
                "tempo": 120.0
            },
            {
                "start_time": 15.5954545,
                "end_time": 15.7090909,
                "pitch": 42,
                "velocity": 101,
                "duration": 0.1136364,
                "tempo": 120.0
            },
            {
                "start_time": 15.7568182,
                "end_time": 15.8704545,
                "pitch": 44,
                "velocity": 101,
                "duration": 0.1136364,
                "tempo": 120.0
            },
            {
                "start_time": 15.9204545,
                "end_time": 16.0409091,
                "pitch": 42,
                "velocity": 101,
                "duration": 0.1204545,
                "tempo": 120.0
            },
            {
                "start_time": 16.0931818,
                "end_time": 16.3818182,
                "pitch": 34,
                "velocity": 101,
                "duration": 0.2886364,
                "tempo": 120.0
            },
            {
                "start_time": 16.4318182,
                "end_time": 16.55,
                "pitch": 34,
                "velocity": 101,
                "duration": 0.1181818,
                "tempo": 120.0
            },
            {
                "start_time": 16.6,
                "end_time": 16.7204545,
                "pitch": 38,
                "velocity": 101,
                "duration": 0.1204545,
                "tempo": 120.0
            },
            {
                "start_time": 16.7727273,
                "end_time": 16.8931818,
                "pitch": 34,
                "velocity": 101,
                "duration": 0.1204545,
                "tempo": 120.0
            },
            {
                "start_time": 16.9454545,
                "end_time": 17.0613636,
                "pitch": 44,
                "velocity": 101,
                "duration": 0.1159091,
                "tempo": 120.0
            },
            {
                "start_time": 17.1136364,
                "end_time": 17.2295455,
                "pitch": 46,
                "velocity": 101,
                "duration": 0.1159091,
                "tempo": 120.0
            },
            {
                "start_time": 17.2795455,
                "end_time": 17.4,
                "pitch": 44,
                "velocity": 101,
                "duration": 0.1204545,
                "tempo": 120.0
            },
            {
                "start_time": 17.4522727,
                "end_time": 17.7409091,
                "pitch": 34,
                "velocity": 101,
                "duration": 0.2886364,
                "tempo": 120.0
            },
            {
                "start_time": 17.7931818,
                "end_time": 17.9090909,
                "pitch": 34,
                "velocity": 101,
                "duration": 0.1159091,
                "tempo": 120.0
            },
            {
                "start_time": 17.9613636,
                "end_time": 18.0772727,
                "pitch": 38,
                "velocity": 101,
                "duration": 0.1159091,
                "tempo": 120.0
            },
            {
                "start_time": 18.1272727,
                "end_time": 18.2454545,
                "pitch": 34,
                "velocity": 101,
                "duration": 0.1181818,
                "tempo": 120.0
            },
            {
                "start_time": 18.2954545,
                "end_time": 18.4159091,
                "pitch": 44,
                "velocity": 101,
                "duration": 0.1204545,
                "tempo": 120.0
            },
            {
                "start_time": 18.4681818,
                "end_time": 18.5886364,
                "pitch": 46,
                "velocity": 101,
                "duration": 0.1204545,
                "tempo": 120.0
            },
            {
                "start_time": 18.6409091,
                "end_time": 18.8909091,
                "pitch": 44,
                "velocity": 101,
                "duration": 0.25,
                "tempo": 120.0
            },
            {
                "start_time": 18.9772727,
                "end_time": 19.0931818,
                "pitch": 36,
                "velocity": 101,
                "duration": 0.1159091,
                "tempo": 120.0
            },
            {
                "start_time": 19.1431818,
                "end_time": 19.3977273,
                "pitch": 36,
                "velocity": 101,
                "duration": 0.2545455,
                "tempo": 120.0
            },
            {
                "start_time": 19.4840909,
                "end_time": 19.6045455,
                "pitch": 36,
                "velocity": 101,
                "duration": 0.1204545,
                "tempo": 120.0
            },
            {
                "start_time": 19.6568182,
                "end_time": 19.7727273,
                "pitch": 34,
                "velocity": 101,
                "duration": 0.1159091,
                "tempo": 120.0
            },
            {
                "start_time": 19.825,
                "end_time": 20.0772727,
                "pitch": 34,
                "velocity": 101,
                "duration": 0.2522727,
                "tempo": 120.0
            },
            {
                "start_time": 20.1636364,
                "end_time": 20.2840909,
                "pitch": 34,
                "velocity": 101,
                "duration": 0.1204545,
                "tempo": 120.0
            },
            {
                "start_time": 20.3363636,
                "end_time": 20.4522727,
                "pitch": 32,
                "velocity": 101,
                "duration": 0.1159091,
                "tempo": 120.0
            },
            {
                "start_time": 20.5045455,
                "end_time": 20.7545455,
                "pitch": 32,
                "velocity": 101,
                "duration": 0.25,
                "tempo": 120.0
            },
            {
                "start_time": 20.8386364,
                "end_time": 20.9568182,
                "pitch": 32,
                "velocity": 101,
                "duration": 0.1181818,
                "tempo": 120.0
            },
            {
                "start_time": 21.0068182,
                "end_time": 21.1272727,
                "pitch": 31,
                "velocity": 101,
                "duration": 0.1204545,
                "tempo": 120.0
            },
            {
                "start_time": 21.1795455,
                "end_time": 21.3,
                "pitch": 31,
                "velocity": 101,
                "duration": 0.1204545,
                "tempo": 120.0
            },
            {
                "start_time": 21.3522727,
                "end_time": 21.4681818,
                "pitch": 34,
                "velocity": 101,
                "duration": 0.1159091,
                "tempo": 120.0
            },
            {
                "start_time": 21.5204545,
                "end_time": 21.6363636,
                "pitch": 35,
                "velocity": 101,
                "duration": 0.1159091,
                "tempo": 120.0
            },
            {
                "start_time": 21.6863636,
                "end_time": 21.8045455,
                "pitch": 36,
                "velocity": 101,
                "duration": 0.1181818,
                "tempo": 120.0
            },
            {
                "start_time": 21.8545455,
                "end_time": 22.1045455,
                "pitch": 36,
                "velocity": 101,
                "duration": 0.25,
                "tempo": 120.0
            },
            {
                "start_time": 22.1909091,
                "end_time": 22.3068182,
                "pitch": 36,
                "velocity": 101,
                "duration": 0.1159091,
                "tempo": 120.0
            },
            {
                "start_time": 22.3590909,
                "end_time": 22.6227273,
                "pitch": 36,
                "velocity": 101,
                "duration": 0.2636364,
                "tempo": 120.0
            },
            {
                "start_time": 22.7113636,
                "end_time": 22.825,
                "pitch": 36,
                "velocity": 101,
                "duration": 0.1136364,
                "tempo": 120.0
            },
            {
                "start_time": 22.875,
                "end_time": 23.1568182,
                "pitch": 36,
                "velocity": 101,
                "duration": 0.2818182,
                "tempo": 120.0
            },
            {
                "start_time": 23.2090909,
                "end_time": 23.3295455,
                "pitch": 36,
                "velocity": 101,
                "duration": 0.1204545,
                "tempo": 120.0
            },
            {
                "start_time": 23.3818182,
                "end_time": 23.6386364,
                "pitch": 36,
                "velocity": 101,
                "duration": 0.2568182,
                "tempo": 120.0
            },
            {
                "start_time": 23.725,
                "end_time": 23.8386364,
                "pitch": 36,
                "velocity": 101,
                "duration": 0.1136364,
                "tempo": 120.0
            },
            {
                "start_time": 23.8886364,
                "end_time": 24.0,
                "pitch": 34,
                "velocity": 101,
                "duration": 0.1113636,
                "tempo": 120.0
            },
            {
                "start_time": 24.05,
                "end_time": 24.1704545,
                "pitch": 35,
                "velocity": 101,
                "duration": 0.1204545,
                "tempo": 120.0
            },
            {
                "start_time": 24.2227273,
                "end_time": 24.3431818,
                "pitch": 36,
                "velocity": 101,
                "duration": 0.1204545,
                "tempo": 120.0
            },
            {
                "start_time": 24.3954545,
                "end_time": 24.5113636,
                "pitch": 36,
                "velocity": 101,
                "duration": 0.1159091,
                "tempo": 120.0
            },
            {
                "start_time": 24.5636364,
                "end_time": 24.8136364,
                "pitch": 36,
                "velocity": 101,
                "duration": 0.25,
                "tempo": 120.0
            },
            {
                "start_time": 24.8977273,
                "end_time": 25.0159091,
                "pitch": 36,
                "velocity": 101,
                "duration": 0.1181818,
                "tempo": 120.0
            },
            {
                "start_time": 25.0659091,
                "end_time": 25.325,
                "pitch": 36,
                "velocity": 101,
                "duration": 0.2590909,
                "tempo": 120.0
            },
            {
                "start_time": 25.4113636,
                "end_time": 25.5272727,
                "pitch": 36,
                "velocity": 101,
                "duration": 0.1159091,
                "tempo": 120.0
            },
            {
                "start_time": 25.5795455,
                "end_time": 25.8659091,
                "pitch": 36,
                "velocity": 101,
                "duration": 0.2863636,
                "tempo": 120.0
            },
            {
                "start_time": 25.9181818,
                "end_time": 26.0386364,
                "pitch": 36,
                "velocity": 101,
                "duration": 0.1204545,
                "tempo": 120.0
            },
            {
                "start_time": 26.0909091,
                "end_time": 26.35,
                "pitch": 36,
                "velocity": 101,
                "duration": 0.2590909,
                "tempo": 120.0
            },
            {
                "start_time": 26.4363636,
                "end_time": 26.5522727,
                "pitch": 36,
                "velocity": 101,
                "duration": 0.1159091,
                "tempo": 120.0
            },
            {
                "start_time": 26.6045455,
                "end_time": 26.7204545,
                "pitch": 34,
                "velocity": 101,
                "duration": 0.1159091,
                "tempo": 120.0
            },
            {
                "start_time": 26.7704545,
                "end_time": 26.8886364,
                "pitch": 35,
                "velocity": 101,
                "duration": 0.1181818,
                "tempo": 120.0
            },
            {
                "start_time": 26.9386364,
                "end_time": 27.0568182,
                "pitch": 36,
                "velocity": 101,
                "duration": 0.1181818,
                "tempo": 120.0
            },
            {
                "start_time": 27.1068182,
                "end_time": 27.4840909,
                "pitch": 36,
                "velocity": 101,
                "duration": 0.3772727,
                "tempo": 120.0
            },
            {
                "start_time": 27.6181818,
                "end_time": 27.9863636,
                "pitch": 36,
                "velocity": 101,
                "duration": 0.3681818,
                "tempo": 120.0
            },
            {
                "start_time": 28.1227273,
                "end_time": 28.3795455,
                "pitch": 36,
                "velocity": 101,
                "duration": 0.2568182,
                "tempo": 120.0
            },
            {
                "start_time": 28.4681818,
                "end_time": 28.7181818,
                "pitch": 32,
                "velocity": 101,
                "duration": 0.25,
                "tempo": 120.0
            },
            {
                "start_time": 28.8022727,
                "end_time": 28.9181818,
                "pitch": 32,
                "velocity": 101,
                "duration": 0.1159091,
                "tempo": 120.0
            },
            {
                "start_time": 28.9704545,
                "end_time": 29.2227273,
                "pitch": 34,
                "velocity": 101,
                "duration": 0.2522727,
                "tempo": 120.0
            },
            {
                "start_time": 29.3113636,
                "end_time": 29.4295455,
                "pitch": 31,
                "velocity": 101,
                "duration": 0.1181818,
                "tempo": 120.0
            },
            {
                "start_time": 29.4818182,
                "end_time": 29.6,
                "pitch": 34,
                "velocity": 101,
                "duration": 0.1181818,
                "tempo": 120.0
            },
            {
                "start_time": 29.65,
                "end_time": 29.7659091,
                "pitch": 35,
                "velocity": 101,
                "duration": 0.1159091,
                "tempo": 120.0
            }
        ]
    }
}