{
    "mood": "happy",
    "instruments": {
        "Trumpet": [
            {
                "start_time": 1.5136364,
                "end_time": 2.3613636,
                "pitch": 65,
                "velocity": 101,
                "duration": 0.8477273,
                "tempo": 120.0
            },
            {
                "start_time": 2.3613636,
                "end_time": 2.7659091,
                "pitch": 65,
                "velocity": 101,
                "duration": 0.4045455,
                "tempo": 120.0
            },
            {
                "start_time": 2.7659091,
                "end_time": 3.1977273,
                "pitch": 65,
                "velocity": 101,
                "duration": 0.4318182,
                "tempo": 120.0
            },
            {
                "start_time": 3.1977273,
                "end_time": 3.4386364,
                "pitch": 65,
                "velocity": 101,
                "duration": 0.2409091,
                "tempo": 120.0
            },
            {
                "start_time": 3.4386364,
                "end_time": 4.0636364,
                "pitch": 65,
                "velocity": 101,
                "duration": 0.625,
                "tempo": 120.0
            },
            {
                "start_time": 4.0636364,
                "end_time": 5.1340909,
                "pitch": 60,
                "velocity": 101,
                "duration": 1.0704545,
                "tempo": 120.0
            },
            {
                "start_time": 5.1340909,
                "end_time": 5.7659091,
                "pitch": 69,
                "velocity": 101,
                "duration": 0.6318182,
                "tempo": 120.0
            },
            {
                "start_time": 5.7659091,
                "end_time": 6.8204545,
                "pitch": 65,
                "velocity": 101,
                "duration": 1.0545455,
                "tempo": 120.0
            },
            {
                "start_time": 6.8204545,
                "end_time": 8.0840909,
                "pitch": 63,
                "velocity": 101,
                "duration": 1.2636364,
                "tempo": 120.0
            },
            {
                "start_time": 8.0840909,
                "end_time": 8.5068182,
                "pitch": 63,
                "velocity": 101,
                "duration": 0.4227273,
                "tempo": 120.0
            },
            {
                "start_time": 8.5068182,
                "end_time": 9.3681818,
                "pitch": 63,
                "velocity": 101,
                "duration": 0.8613636,
                "tempo": 120.0
            },
            {
                "start_time": 9.3681818,
                "end_time": 9.6772727,
                "pitch": 67,
                "velocity": 101,
                "duration": 0.3090909,
                "tempo": 120.0
            },
            {
                "start_time": 9.6772727,
                "end_time": 10.0204545,
                "pitch": 65,
                "velocity": 101,
                "duration": 0.3431818,
                "tempo": 120.0
            },
            {
                "start_time": 10.0204545,
                "end_time": 10.2227273,
                "pitch": 63,
                "velocity": 101,
                "duration": 0.2022727,
                "tempo": 120.0
            },
            {
                "start_time": 10.2227273,
                "end_time": 11.7090909,
                "pitch": 60,
                "velocity": 101,
                "duration": 1.4863636,
                "tempo": 120.0
            },
            {
                "start_time": 11.7090909,
                "end_time": 11.9386364,
                "pitch": 57,
                "velocity": 101,
                "duration": 0.2295455,
                "tempo": 120.0
            },
            {
                "start_time": 11.9386364,
                "end_time": 13.6272727,
                "pitch": 57,
                "velocity": 101,
                "duration": 1.6886364,
                "tempo": 120.0
            },
            {
                "start_time": 13.6272727,
                "end_time": 15.1113636,
                "pitch": 69,
                "velocity": 101,
                "duration": 1.4840909,
                "tempo": 120.0
            },
            {
                "start_time": 15.1113636,
                "end_time": 16.1954545,
                "pitch": 65,
                "velocity": 101,
                "duration": 1.0840909,
                "tempo": 120.0
            },
            {
                "start_time": 16.1954545,
                "end_time": 16.4977273,
                "pitch": 65,
                "velocity": 101,
                "duration": 0.3022727,
                "tempo": 120.0
            },
            {
                "start_time": 16.4977273,
                "end_time": 16.8113636,
                "pitch": 65,
                "velocity": 101,
                "duration": 0.3136364,
                "tempo": 120.0
            },
            {
                "start_time": 16.8113636,
                "end_time": 16.9977273,
                "pitch": 65,
                "velocity": 101,
                "duration": 0.1863636,
                "tempo": 120.0
            },
            {
                "start_time": 16.9977273,
                "end_time": 17.65,
                "pitch": 65,
                "velocity": 101,
                "duration": 0.6522727,
                "tempo": 120.0
            },
            {
                "start_time": 17.65,
                "end_time": 18.7136364,
                "pitch": 60,
                "velocity": 101,
                "duration": 1.0636364,
                "tempo": 120.0
            },
            {
                "start_time": 18.7136364,
                "end_time": 19.3659091,
                "pitch": 69,
                "velocity": 101,
                "duration": 0.6522727,
                "tempo": 120.0
            },
            {
                "start_time": 19.3659091,
                "end_time": 20.4386364,
                "pitch": 65,
                "velocity": 101,
                "duration": 1.0727273,
                "tempo": 120.0
            },
            {
                "start_time": 20.4386364,
                "end_time": 21.6840909,
                "pitch": 63,
                "velocity": 101,
                "duration": 1.2454545,
                "tempo": 120.0
            },
            {
                "start_time": 21.6840909,
                "end_time": 22.1363636,
                "pitch": 65,
                "velocity": 101,
                "duration": 0.4522727,
                "tempo": 120.0
            },
            {
                "start_time": 22.1363636,
                "end_time": 22.9681818,
                "pitch": 67,
                "velocity": 101,
                "duration": 0.8318182,
                "tempo": 120.0
            },
            {
                "start_time": 22.9681818,
                "end_time": 23.2772727,
                "pitch": 67,
                "velocity": 101,
                "duration": 0.3090909,
                "tempo": 120.0
            },
            {
                "start_time": 23.2772727,
                "end_time": 23.6181818,
                "pitch": 65,
                "velocity": 101,
                "duration": 0.3409091,
                "tempo": 120.0
            },
            {
                "start_time": 23.6181818,
                "end_time": 23.8227273,
                "pitch": 64,
                "velocity": 101,
                "duration": 0.2045455,
                "tempo": 120.0
            },
            {
                "start_time": 23.8227273,
                "end_time": 27.225,
                "pitch": 60,
                "velocity": 101,
                "duration": 3.4022727,
                "tempo": 120.0
            },
            {
                "start_time": 27.225,
                "end_time": 28.0659091,
                "pitch": 58,
                "velocity": 101,
                "duration": 0.8409091,
                "tempo": 120.0
            },
            {
                "start_time": 28.0659091,
                "end_time": 28.5090909,
                "pitch": 58,
                "velocity": 101,
                "duration": 0.4431818,
                "tempo": 120.0
            },
            {
                "start_time": 28.5090909,
                "end_time": 28.9386364,
                "pitch": 58,
                "velocity": 101,
                "duration": 0.4295455,
                "tempo": 120.0
            },
            {
                "start_time": 28.9386364,
                "end_time": 29.75,
                "pitch": 57,
                "velocity": 101,
                "duration": 0.8113636,
                "tempo": 120.0
            },
            {
                "start_time": 29.75,
                "end_time": 30.6227273,
                "pitch": 57,
                "velocity": 101,
                "duration": 0.8727273,
                "tempo": 120.0
            },
            {
                "start_time": 30.6227273,
                "end_time": 30.8954545,
                "pitch": 67,
                "velocity": 101,
                "duration": 0.2727273,
                "tempo": 120.0
            },
            {
                "start_time": 30.8954545,
                "end_time": 31.1977273,
                "pitch": 65,
                "velocity": 101,
                "duration": 0.3022727,
                "tempo": 120.0
            },
            {
                "start_time": 31.1977273,
                "end_time": 31.475,
                "pitch": 64,
                "velocity": 101,
                "duration": 0.2772727,
                "tempo": 120.0
            },
            {
                "start_time": 31.475,
                "end_time": 31.7545455,
                "pitch": 61,
                "velocity": 101,
                "duration": 0.2795455,
                "tempo": 120.0
            },
            {
                "start_time": 31.7545455,
                "end_time": 32.0477273,
                "pitch": 62,
                "velocity": 101,
                "duration": 0.2931818,
                "tempo": 120.0
            },
            {
                "start_time": 32.0477273,
                "end_time": 32.3068182,
                "pitch": 64,
                "velocity": 101,
                "duration": 0.2590909,
                "tempo": 120.0
            },
            {
                "start_time": 32.3068182,
                "end_time": 33.1909091,
                "pitch": 62,
                "velocity": 101,
                "duration": 0.8840909,
                "tempo": 120.0
            },
            {
                "start_time": 33.1909091,
                "end_time": 33.5931818,
                "pitch": 60,
                "velocity": 101,
                "duration": 0.4022727,
                "tempo": 120.0
            },
            {
                "start_time": 33.5931818,
                "end_time": 33.8068182,
                "pitch": 58,
                "velocity": 101,
                "duration": 0.2136364,
                "tempo": 120.0
            },
            {
                "start_time": 33.8068182,
                "end_time": 33.9931818,
                "pitch": 60,
                "velocity": 101,
                "duration": 0.1863636,
                "tempo": 120.0
            },
            {
                "start_time": 33.9931818,
                "end_time": 35.075,
                "pitch": 58,
                "velocity": 101,
                "duration": 1.0818182,
                "tempo": 120.0
            },
            {
                "start_time": 35.075,
                "end_time": 35.5068182,
                "pitch": 58,
                "velocity": 101,
                "duration": 0.4318182,
                "tempo": 120.0
            },
            {
                "start_time": 35.5068182,
                "end_time": 35.7068182,
                "pitch": 58,
                "velocity": 101,
                "duration": 0.2,
                "tempo": 120.0
            },
            {
                "start_time": 35.7068182,
                "end_time": 37.4340909,
                "pitch": 57,
                "velocity": 101,
                "duration": 1.7272727,
                "tempo": 120.0
            },
            {
                "start_time": 37.4340909,
                "end_time": 38.6772727,
                "pitch": 61,
                "velocity": 101,
                "duration": 1.2431818,
                "tempo": 120.0
            },
            {
                "start_time": 38.6772727,
                "end_time": 39.1272727,
                "pitch": 57,
                "velocity": 101,
                "duration": 0.45,
                "tempo": 120.0
            },
            {
                "start_time": 39.1272727,
                "end_time": 39.9613636,
                "pitch": 65,
                "velocity": 101,
                "duration": 0.8340909,
                "tempo": 120.0
            },
            {
                "start_time": 39.9613636,
                "end_time": 40.8022727,
                "pitch": 64,
                "velocity": 101,
                "duration": 0.8409091,
                "tempo": 120.0
            },
            {
                "start_time": 40.8022727,
                "end_time": 41.2431818,
                "pitch": 69,
                "velocity": 101,
                "duration": 0.4409091,
                "tempo": 120.0
            }
        ],
        "Synth Bass 1": [
            {
                "start_time": 0.45,
                "end_time": 0.7818182,
                "pitch": 48,
                "velocity": 127,
                "duration": 0.3318182,
                "tempo": 120.0
            },
            {
                "start_time": 0.7818182,
                "end_time": 1.0818182,
                "pitch": 51,
                "velocity": 127,
                "duration": 0.3,
                "tempo": 120.0
            },
            {
                "start_time": 1.0818182,
                "end_time": 1.3136364,
                "pitch": 52,
                "velocity": 127,
                "duration": 0.2318182,
                "tempo": 120.0
            },
            {
                "start_time": 1.3136364,
                "end_time": 1.7159091,
                "pitch": 53,
                "velocity": 127,
                "duration": 0.4022727,
                "tempo": 120.0
            },
            {
                "start_time": 1.7159091,
                "end_time": 2.125,
                "pitch": 53,
                "velocity": 127,
                "duration": 0.4090909,
                "tempo": 120.0
            },
            {
                "start_time": 2.125,
                "end_time": 2.4636364,
                "pitch": 48,
                "velocity": 127,
                "duration": 0.3386364,
                "tempo": 120.0
            },
            {
                "start_time": 2.4636364,
                "end_time": 2.7659091,
                "pitch": 51,
                "velocity": 127,
                "duration": 0.3022727,
                "tempo": 120.0
            },
            {
                "start_time": 2.7659091,
                "end_time": 2.9977273,
                "pitch": 52,
                "velocity": 127,
                "duration": 0.2318182,
                "tempo": 120.0
            },
            {
                "start_time": 2.9977273,
                "end_time": 3.4386364,
                "pitch": 53,
                "velocity": 127,
                "duration": 0.4409091,
                "tempo": 120.0
            },
            {
                "start_time": 3.4386364,
                "end_time": 3.85,
                "pitch": 53,
                "velocity": 127,
                "duration": 0.4113636,
                "tempo": 120.0
            },
            {
                "start_time": 3.85,
                "end_time": 4.1568182,
                "pitch": 48,
                "velocity": 127,
                "duration": 0.3068182,
                "tempo": 120.0
            },
            {
                "start_time": 4.1568182,
                "end_time": 4.4818182,
                "pitch": 51,
                "velocity": 127,
                "duration": 0.325,
                "tempo": 120.0
            },
            {
                "start_time": 4.4818182,
                "end_time": 4.6818182,
                "pitch": 52,
                "velocity": 127,
                "duration": 0.2,
                "tempo": 120.0
            },
            {
                "start_time": 4.6818182,
                "end_time": 5.1340909,
                "pitch": 53,
                "velocity": 127,
                "duration": 0.4522727,
                "tempo": 120.0
            },
            {
                "start_time": 5.1340909,
                "end_time": 5.5636364,
                "pitch": 53,
                "velocity": 127,
                "duration": 0.4295455,
                "tempo": 120.0
            },
            {
                "start_time": 5.5636364,
                "end_time": 5.8659091,
                "pitch": 48,
                "velocity": 127,
                "duration": 0.3022727,
                "tempo": 120.0
            },
            {
                "start_time": 5.8659091,
                "end_time": 6.1818182,
                "pitch": 51,
                "velocity": 127,
                "duration": 0.3159091,
                "tempo": 120.0
            },
            {
                "start_time": 6.1818182,
                "end_time": 6.3681818,
                "pitch": 52,
                "velocity": 127,
                "duration": 0.1863636,
                "tempo": 120.0
            },
            {
                "start_time": 6.3681818,
                "end_time": 6.8204545,
                "pitch": 53,
                "velocity": 127,
                "duration": 0.4522727,
                "tempo": 120.0
            },
            {
                "start_time": 6.8204545,
                "end_time": 7.2522727,
                "pitch": 51,
                "velocity": 127,
                "duration": 0.4318182,
                "tempo": 120.0
            },
            {
                "start_time": 7.2522727,
                "end_time": 7.5522727,
                "pitch": 46,
                "velocity": 127,
                "duration": 0.3,
                "tempo": 120.0
            },
            {
                "start_time": 7.5522727,
                "end_time": 7.8840909,
                "pitch": 49,
                "velocity": 127,
                "duration": 0.3318182,
                "tempo": 120.0
            },
            {
                "start_time": 7.8840909,
                "end_time": 8.0954545,
                "pitch": 50,
                "velocity": 127,
                "duration": 0.2113636,
                "tempo": 120.0
            },
            {
                "start_time": 8.0954545,
                "end_time": 8.5068182,
                "pitch": 51,
                "velocity": 127,
                "duration": 0.4113636,
                "tempo": 120.0
            },
            {
                "start_time": 8.5068182,
                "end_time": 8.9386364,
                "pitch": 51,
                "velocity": 127,
                "duration": 0.4318182,
                "tempo": 120.0
            },
            {
                "start_time": 8.9386364,
                "end_time": 9.2681818,
                "pitch": 46,
                "velocity": 127,
                "duration": 0.3295455,
                "tempo": 120.0
            },
            {
                "start_time": 9.2681818,
                "end_time": 9.575,
                "pitch": 49,
                "velocity": 127,
                "duration": 0.3068182,
                "tempo": 120.0
            },
            {
                "start_time": 9.575,
                "end_time": 9.8204545,
                "pitch": 50,
                "velocity": 127,
                "duration": 0.2454545,
                "tempo": 120.0
            },
            {
                "start_time": 9.8204545,
                "end_time": 10.2227273,
                "pitch": 51,
                "velocity": 127,
                "duration": 0.4022727,
                "tempo": 120.0
            },
            {
                "start_time": 10.2227273,
                "end_time": 10.625,
                "pitch": 53,
                "velocity": 127,
                "duration": 0.4022727,
                "tempo": 120.0
            },
            {
                "start_time": 10.625,
                "end_time": 10.9659091,
                "pitch": 48,
                "velocity": 127,
                "duration": 0.3409091,
                "tempo": 120.0
            },
            {
                "start_time": 10.9659091,
                "end_time": 11.2727273,
                "pitch": 51,
                "velocity": 127,
                "duration": 0.3068182,
                "tempo": 120.0
            },
            {
                "start_time": 11.2727273,
                "end_time": 11.5068182,
                "pitch": 52,
                "velocity": 127,
                "duration": 0.2340909,
                "tempo": 120.0
            },
            {
                "start_time": 11.5068182,
                "end_time": 11.9386364,
                "pitch": 53,
                "velocity": 127,
                "duration": 0.4318182,
                "tempo": 120.0
            },
            {
                "start_time": 11.9386364,
                "end_time": 12.3409091,
                "pitch": 53,
                "velocity": 127,
                "duration": 0.4022727,
                "tempo": 120.0
            },
            {
                "start_time": 12.3409091,
                "end_time": 12.6590909,
                "pitch": 48,
                "velocity": 127,
                "duration": 0.3181818,
                "tempo": 120.0
            },
            {
                "start_time": 12.6590909,
                "end_time": 12.9886364,
                "pitch": 51,
                "velocity": 127,
                "duration": 0.3295455,
                "tempo": 120.0
            },
            {
                "start_time": 12.9886364,
                "end_time": 13.1954545,
                "pitch": 52,
                "velocity": 127,
                "duration": 0.2068182,
                "tempo": 120.0
            },
            {
                "start_time": 13.1954545,
                "end_time": 13.6272727,
                "pitch": 53,
                "velocity": 127,
                "duration": 0.4318182,
                "tempo": 120.0
            },
            {
                "start_time": 13.6272727,
                "end_time": 14.0681818,
                "pitch": 53,
                "velocity": 127,
                "duration": 0.4409091,
                "tempo": 120.0
            },
            {
                "start_time": 14.0681818,
                "end_time": 14.375,
                "pitch": 48,
                "velocity": 127,
                "duration": 0.3068182,
                "tempo": 120.0
            },
            {
                "start_time": 14.375,
                "end_time": 14.6931818,
                "pitch": 51,
                "velocity": 127,
                "duration": 0.3181818,
                "tempo": 120.0
            },
            {
                "start_time": 14.6931818,
                "end_time": 14.8818182,
                "pitch": 52,
                "velocity": 127,
                "duration": 0.1886364,
                "tempo": 120.0
            },
            {
                "start_time": 14.8818182,
                "end_time": 15.3136364,
                "pitch": 53,
                "velocity": 127,
                "duration": 0.4318182,
                "tempo": 120.0
            },
            {
                "start_time": 15.3136364,
                "end_time": 15.7545455,
                "pitch": 53,
                "velocity": 127,
                "duration": 0.4409091,
                "tempo": 120.0
            },
            {
                "start_time": 15.7545455,
                "end_time": 16.0636364,
                "pitch": 48,
                "velocity": 127,
                "duration": 0.3090909,
                "tempo": 120.0
            },
            {
                "start_time": 16.0636364,
                "end_time": 16.3977273,
                "pitch": 51,
                "velocity": 127,
                "duration": 0.3340909,
                "tempo": 120.0
            },
            {
                "start_time": 16.3977273,
                "end_time": 16.5977273,
                "pitch": 52,
                "velocity": 127,
                "duration": 0.2,
                "tempo": 120.0
            },
            {
                "start_time": 16.5977273,
                "end_time": 16.9977273,
                "pitch": 53,
                "velocity": 127,
                "duration": 0.4,
                "tempo": 120.0
            },
            {
                "start_time": 16.9977273,
                "end_time": 17.4477273,
                "pitch": 53,
                "velocity": 127,
                "duration": 0.45,
                "tempo": 120.0
            },
            {
                "start_time": 17.4477273,
                "end_time": 17.7795455,
                "pitch": 48,
                "velocity": 127,
                "duration": 0.3318182,
                "tempo": 120.0
            },
            {
                "start_time": 17.7795455,
                "end_time": 18.0818182,
                "pitch": 51,
                "velocity": 127,
                "duration": 0.3022727,
                "tempo": 120.0
            },
            {
                "start_time": 18.0818182,
                "end_time": 18.3113636,
                "pitch": 52,
                "velocity": 127,
                "duration": 0.2295455,
                "tempo": 120.0
            },
            {
                "start_time": 18.3113636,
                "end_time": 18.7136364,
                "pitch": 53,
                "velocity": 127,
                "duration": 0.4022727,
                "tempo": 120.0
            },
            {
                "start_time": 18.7136364,
                "end_time": 19.1340909,
                "pitch": 53,
                "velocity": 127,
                "duration": 0.4204545,
                "tempo": 120.0
            },
            {
                "start_time": 19.1340909,
                "end_time": 19.4659091,
                "pitch": 48,
                "velocity": 127,
                "duration": 0.3318182,
                "tempo": 120.0
            },
            {
                "start_time": 19.4659091,
                "end_time": 19.7659091,
                "pitch": 51,
                "velocity": 127,
                "duration": 0.3,
                "tempo": 120.0
            },
            {
                "start_time": 19.7659091,
                "end_time": 19.9977273,
                "pitch": 52,
                "velocity": 127,
                "duration": 0.2318182,
                "tempo": 120.0
            },
            {
                "start_time": 19.9977273,
                "end_time": 20.4386364,
                "pitch": 53,
                "velocity": 127,
                "duration": 0.4409091,
                "tempo": 120.0
            },
            {
                "start_time": 20.4386364,
                "end_time": 20.85,
                "pitch": 51,
                "velocity": 127,
                "duration": 0.4113636,
                "tempo": 120.0
            },
            {
                "start_time": 20.85,
                "end_time": 21.1590909,
                "pitch": 46,
                "velocity": 127,
                "duration": 0.3090909,
                "tempo": 120.0
            },
            {
                "start_time": 21.1590909,
                "end_time": 21.4840909,
                "pitch": 49,
                "velocity": 127,
                "duration": 0.325,
                "tempo": 120.0
            },
            {
                "start_time": 21.4840909,
                "end_time": 21.6954545,
                "pitch": 50,
                "velocity": 127,
                "duration": 0.2113636,
                "tempo": 120.0
            },
            {
                "start_time": 21.6954545,
                "end_time": 22.1363636,
                "pitch": 51,
                "velocity": 127,
                "duration": 0.4409091,
                "tempo": 120.0
            },
            {
                "start_time": 22.1363636,
                "end_time": 22.5681818,
                "pitch": 51,
                "velocity": 127,
                "duration": 0.4318182,
                "tempo": 120.0
            },
            {
                "start_time": 22.5681818,
                "end_time": 22.8681818,
                "pitch": 46,
                "velocity": 127,
                "duration": 0.3,
                "tempo": 120.0
            },
            {
                "start_time": 22.8681818,
                "end_time": 23.1840909,
                "pitch": 49,
                "velocity": 127,
                "duration": 0.3159091,
                "tempo": 120.0
            },
            {
                "start_time": 23.1840909,
                "end_time": 23.3727273,
                "pitch": 50,
                "velocity": 127,
                "duration": 0.1886364,
                "tempo": 120.0
            },
            {
                "start_time": 23.3727273,
                "end_time": 23.8227273,
                "pitch": 51,
                "velocity": 127,
                "duration": 0.45,
                "tempo": 120.0
            },
            {
                "start_time": 23.8227273,
                "end_time": 24.2545455,
                "pitch": 53,
                "velocity": 127,
                "duration": 0.4318182,
                "tempo": 120.0
            },
            {
                "start_time": 24.2545455,
                "end_time": 24.5545455,
                "pitch": 48,
                "velocity": 127,
                "duration": 0.3,
                "tempo": 120.0
            },
            {
                "start_time": 24.5545455,
                "end_time": 24.8863636,
                "pitch": 51,
                "velocity": 127,
                "duration": 0.3318182,
                "tempo": 120.0
            },
            {
                "start_time": 24.8863636,
                "end_time": 25.0886364,
                "pitch": 52,
                "velocity": 127,
                "duration": 0.2022727,
                "tempo": 120.0
            },
            {
                "start_time": 25.0886364,
                "end_time": 25.5090909,
                "pitch": 53,
                "velocity": 127,
                "duration": 0.4204545,
                "tempo": 120.0
            },
            {
                "start_time": 25.5090909,
                "end_time": 25.9409091,
                "pitch": 53,
                "velocity": 127,
                "duration": 0.4318182,
                "tempo": 120.0
            },
            {
                "start_time": 25.9409091,
                "end_time": 26.2727273,
                "pitch": 48,
                "velocity": 127,
                "duration": 0.3318182,
                "tempo": 120.0
            },
            {
                "start_time": 26.2727273,
                "end_time": 26.5772727,
                "pitch": 53,
                "velocity": 127,
                "duration": 0.3045455,
                "tempo": 120.0
            },
            {
                "start_time": 26.5772727,
                "end_time": 26.8227273,
                "pitch": 52,
                "velocity": 127,
                "duration": 0.2454545,
                "tempo": 120.0
            },
            {
                "start_time": 26.8227273,
                "end_time": 27.025,
                "pitch": 51,
                "velocity": 127,
                "duration": 0.2022727,
                "tempo": 120.0
            },
            {
                "start_time": 27.025,
                "end_time": 27.225,
                "pitch": 50,
                "velocity": 127,
                "duration": 0.2,
                "tempo": 120.0
            },
            {
                "start_time": 27.225,
                "end_time": 27.4386364,
                "pitch": 34,
                "velocity": 127,
                "duration": 0.2136364,
                "tempo": 120.0
            },
            {
                "start_time": 27.4386364,
                "end_time": 27.625,
                "pitch": 34,
                "velocity": 127,
                "duration": 0.1863636,
                "tempo": 120.0
            },
            {
                "start_time": 27.8659091,
                "end_time": 28.0659091,
                "pitch": 34,
                "velocity": 127,
                "duration": 0.2,
                "tempo": 120.0
            },
            {
                "start_time": 28.0659091,
                "end_time": 28.9386364,
                "pitch": 34,
                "velocity": 127,
                "duration": 0.8727273,
                "tempo": 120.0
            },
            {
                "start_time": 28.9386364,
                "end_time": 29.1409091,
                "pitch": 36,
                "velocity": 127,
                "duration": 0.2022727,
                "tempo": 120.0
            },
            {
                "start_time": 29.1409091,
                "end_time": 29.3409091,
                "pitch": 36,
                "velocity": 127,
                "duration": 0.2,
                "tempo": 120.0
            },
            {
                "start_time": 29.5636364,
                "end_time": 29.75,
                "pitch": 36,
                "velocity": 127,
                "duration": 0.1863636,
                "tempo": 120.0
            },
            {
                "start_time": 29.75,
                "end_time": 30.6227273,
                "pitch": 36,
                "velocity": 127,
                "duration": 0.8727273,
                "tempo": 120.0
            },
            {
                "start_time": 30.6227273,
                "end_time": 30.825,
                "pitch": 37,
                "velocity": 127,
                "duration": 0.2022727,
                "tempo": 120.0
            },
            {
                "start_time": 30.825,
                "end_time": 31.0659091,
                "pitch": 37,
                "velocity": 127,
                "duration": 0.2409091,
                "tempo": 120.0
            },
            {
                "start_time": 31.2704545,
                "end_time": 31.475,
                "pitch": 37,
                "velocity": 127,
                "duration": 0.2045455,
                "tempo": 120.0
            },
            {
                "start_time": 31.475,
                "end_time": 32.3068182,
                "pitch": 37,
                "velocity": 127,
                "duration": 0.8318182,
                "tempo": 120.0
            },
            {
                "start_time": 32.3068182,
                "end_time": 32.5136364,
                "pitch": 38,
                "velocity": 127,
                "duration": 0.2068182,
                "tempo": 120.0
            },
            {
                "start_time": 32.5136364,
                "end_time": 32.7590909,
                "pitch": 38,
                "velocity": 127,
                "duration": 0.2454545,
                "tempo": 120.0
            },
            {
                "start_time": 32.9590909,
                "end_time": 33.1909091,
                "pitch": 38,
                "velocity": 127,
                "duration": 0.2318182,
                "tempo": 120.0
            },
            {
                "start_time": 33.1909091,
                "end_time": 33.5931818,
                "pitch": 38,
                "velocity": 127,
                "duration": 0.4022727,
                "tempo": 120.0
            },
            {
                "start_time": 33.5931818,
                "end_time": 33.9931818,
                "pitch": 33,
                "velocity": 127,
                "duration": 0.4,
                "tempo": 120.0
            },
            {
                "start_time": 33.9931818,
                "end_time": 34.2386364,
                "pitch": 34,
                "velocity": 127,
                "duration": 0.2454545,
                "tempo": 120.0
            },
            {
                "start_time": 34.2386364,
                "end_time": 34.4431818,
                "pitch": 34,
                "velocity": 127,
                "duration": 0.2045455,
                "tempo": 120.0
            },
            {
                "start_time": 34.6431818,
                "end_time": 34.875,
                "pitch": 34,
                "velocity": 127,
                "duration": 0.2318182,
                "tempo": 120.0
            },
            {
                "start_time": 34.875,
                "end_time": 35.7068182,
                "pitch": 34,
                "velocity": 127,
                "duration": 0.8318182,
                "tempo": 120.0
            },
            {
                "start_time": 35.7068182,
                "end_time": 35.9386364,
                "pitch": 36,
                "velocity": 127,
                "duration": 0.2318182,
                "tempo": 120.0
            },
            {
                "start_time": 35.9386364,
                "end_time": 36.1295455,
                "pitch": 36,
                "velocity": 127,
                "duration": 0.1909091,
                "tempo": 120.0
            },
            {
                "start_time": 36.3590909,
                "end_time": 36.5613636,
                "pitch": 36,
                "velocity": 127,
                "duration": 0.2022727,
                "tempo": 120.0
            },
            {
                "start_time": 36.5613636,
                "end_time": 37.4340909,
                "pitch": 36,
                "velocity": 127,
                "duration": 0.8727273,
                "tempo": 120.0
            },
            {
                "start_time": 37.4340909,
                "end_time": 37.6386364,
                "pitch": 37,
                "velocity": 127,
                "duration": 0.2045455,
                "tempo": 120.0
            },
            {
                "start_time": 37.6386364,
                "end_time": 37.8454545,
                "pitch": 37,
                "velocity": 127,
                "duration": 0.2068182,
                "tempo": 120.0
            },
            {
                "start_time": 38.0590909,
                "end_time": 38.2454545,
                "pitch": 37,
                "velocity": 127,
                "duration": 0.1863636,
                "tempo": 120.0
            },
            {
                "start_time": 38.2454545,
                "end_time": 39.1272727,
                "pitch": 37,
                "velocity": 127,
                "duration": 0.8818182,
                "tempo": 120.0
            },
            {
                "start_time": 39.1272727,
                "end_time": 39.3295455,
                "pitch": 33,
                "velocity": 127,
                "duration": 0.2022727,
                "tempo": 120.0
            },
            {
                "start_time": 39.3295455,
                "end_time": 39.5590909,
                "pitch": 33,
                "velocity": 127,
                "duration": 0.2295455,
                "tempo": 120.0
            },
            {
                "start_time": 39.7613636,
                "end_time": 39.9613636,
                "pitch": 33,
                "velocity": 127,
                "duration": 0.2,
                "tempo": 120.0
            },
            {
                "start_time": 39.9613636,
                "end_time": 40.8022727,
                "pitch": 33,
                "velocity": 127,
                "duration": 0.8409091,
                "tempo": 120.0
            },
            {
                "start_time": 40.8022727,
                "end_time": 41.2431818,
                "pitch": 53,
                "velocity": 127,
                "duration": 0.4409091,
                "tempo": 120.0
            }
        ],
        "Vibraphone": [
            {
                "start_time": 0.1090909,
                "end_time": 0.25,
                "pitch": 81,
                "velocity": 101,
                "duration": 0.1409091,
                "tempo": 120.0
            },
            {
                "start_time": 0.25,
                "end_time": 0.35,
                "pitch": 77,
                "velocity": 101,
                "duration": 0.1,
                "tempo": 120.0
            },
            {
                "start_time": 0.35,
                "end_time": 0.45,
                "pitch": 77,
                "velocity": 101,
                "duration": 0.1,
                "tempo": 120.0
            },
            {
                "start_time": 0.45,
                "end_time": 0.55,
                "pitch": 81,
                "velocity": 101,
                "duration": 0.1,
                "tempo": 120.0
            },
            {
                "start_time": 0.55,
                "end_time": 0.65,
                "pitch": 81,
                "velocity": 101,
                "duration": 0.1,
                "tempo": 120.0
            },
            {
                "start_time": 0.65,
                "end_time": 0.7818182,
                "pitch": 77,
                "velocity": 101,
                "duration": 0.1318182,
                "tempo": 120.0
            },
            {
                "start_time": 0.7818182,
                "end_time": 0.8818182,
                "pitch": 77,
                "velocity": 101,
                "duration": 0.1,
                "tempo": 120.0
            },
            {
                "start_time": 0.8818182,
                "end_time": 0.9818182,
                "pitch": 81,
                "velocity": 101,
                "duration": 0.1,
                "tempo": 120.0
            },
            {
                "start_time": 0.9818182,
                "end_time": 1.0818182,
                "pitch": 81,
                "velocity": 101,
                "duration": 0.1,
                "tempo": 120.0
            },
            {
                "start_time": 1.0818182,
                "end_time": 1.1840909,
                "pitch": 77,
                "velocity": 101,
                "duration": 0.1022727,
                "tempo": 120.0
            },
            {
                "start_time": 1.1840909,
                "end_time": 1.3136364,
                "pitch": 77,
                "velocity": 101,
                "duration": 0.1295455,
                "tempo": 120.0
            },
            {
                "start_time": 1.3136364,
                "end_time": 1.4136364,
                "pitch": 81,
                "velocity": 101,
                "duration": 0.1,
                "tempo": 120.0
            },
            {
                "start_time": 1.4136364,
                "end_time": 1.5136364,
                "pitch": 81,
                "velocity": 101,
                "duration": 0.1,
                "tempo": 120.0
            },
            {
                "start_time": 1.5136364,
                "end_time": 1.6159091,
                "pitch": 77,
                "velocity": 101,
                "duration": 0.1022727,
                "tempo": 120.0
            },
            {
                "start_time": 1.6159091,
                "end_time": 1.7159091,
                "pitch": 77,
                "velocity": 101,
                "duration": 0.1,
                "tempo": 120.0
            },
            {
                "start_time": 1.7159091,
                "end_time": 1.8454545,
                "pitch": 82,
                "velocity": 101,
                "duration": 0.1295455,
                "tempo": 120.0
            },
            {
                "start_time": 1.8454545,
                "end_time": 1.9386364,
                "pitch": 82,
                "velocity": 101,
                "duration": 0.0931818,
                "tempo": 120.0
            },
            {
                "start_time": 1.9386364,
                "end_time": 2.0318182,
                "pitch": 77,
                "velocity": 101,
                "duration": 0.0931818,
                "tempo": 120.0
            },
            {
                "start_time": 2.0318182,
                "end_time": 2.125,
                "pitch": 77,
                "velocity": 101,
                "duration": 0.0931818,
                "tempo": 120.0
            },
            {
                "start_time": 2.125,
                "end_time": 2.2272727,
                "pitch": 82,
                "velocity": 101,
                "duration": 0.1022727,
                "tempo": 120.0
            },
            {
                "start_time": 2.2272727,
                "end_time": 2.3613636,
                "pitch": 82,
                "velocity": 101,
                "duration": 0.1340909,
                "tempo": 120.0
            },
            {
                "start_time": 2.3613636,
                "end_time": 2.4636364,
                "pitch": 77,
                "velocity": 101,
                "duration": 0.1022727,
                "tempo": 120.0
            },
            {
                "start_time": 2.4636364,
                "end_time": 2.5659091,
                "pitch": 77,
                "velocity": 101,
                "duration": 0.1022727,
                "tempo": 120.0
            },
            {
                "start_time": 2.5659091,
                "end_time": 2.6659091,
                "pitch": 82,
                "velocity": 101,
                "duration": 0.1,
                "tempo": 120.0
            },
            {
                "start_time": 2.6659091,
                "end_time": 2.7659091,
                "pitch": 82,
                "velocity": 101,
                "duration": 0.1,
                "tempo": 120.0
            },
            {
                "start_time": 2.7659091,
                "end_time": 2.8977273,
                "pitch": 77,
                "velocity": 101,
                "duration": 0.1318182,
                "tempo": 120.0
            },
            {
                "start_time": 2.8977273,
                "end_time": 2.9977273,
                "pitch": 77,
                "velocity": 101,
                "duration": 0.1,
                "tempo": 120.0
            },
            {
                "start_time": 2.9977273,
                "end_time": 3.0977273,
                "pitch": 82,
                "velocity": 101,
                "duration": 0.1,
                "tempo": 120.0
            },
            {
                "start_time": 3.0977273,
                "end_time": 3.1977273,
                "pitch": 82,
                "velocity": 101,
                "duration": 0.1,
                "tempo": 120.0
            },
            {
                "start_time": 3.1977273,
                "end_time": 3.3,
                "pitch": 77,
                "velocity": 101,
                "duration": 0.1022727,
                "tempo": 120.0
            },
            {
                "start_time": 3.3,
                "end_time": 3.4386364,
                "pitch": 77,
                "velocity": 101,
                "duration": 0.1386364,
                "tempo": 120.0
            },
            {
                "start_time": 3.4386364,
                "end_time": 3.5431818,
                "pitch": 81,
                "velocity": 101,
                "duration": 0.1045455,
                "tempo": 120.0
            },
            {
                "start_time": 3.5431818,
                "end_time": 3.6454545,
                "pitch": 81,
                "velocity": 101,
                "duration": 0.1022727,
                "tempo": 120.0
            },
            {
                "start_time": 3.6454545,
                "end_time": 3.7477273,
                "pitch": 77,
                "velocity": 101,
                "duration": 0.1022727,
                "tempo": 120.0
            },
            {
                "start_time": 3.7477273,
                "end_time": 3.85,
                "pitch": 77,
                "velocity": 101,
                "duration": 0.1022727,
                "tempo": 120.0
            },
            {
                "start_time": 3.85,
                "end_time": 3.9704545,
                "pitch": 81,
                "velocity": 101,
                "duration": 0.1204545,
                "tempo": 120.0
            },
            {
                "start_time": 3.9704545,
                "end_time": 4.0636364,
                "pitch": 81,
                "velocity": 101,
                "duration": 0.0931818,
                "tempo": 120.0
            },
            {
                "start_time": 4.0636364,
                "end_time": 4.1568182,
                "pitch": 77,
                "velocity": 101,
                "duration": 0.0931818,
                "tempo": 120.0
            },
            {
                "start_time": 4.1568182,
                "end_time": 4.25,
                "pitch": 77,
                "velocity": 101,
                "duration": 0.0931818,
                "tempo": 120.0
            },
            {
                "start_time": 4.25,
                "end_time": 4.35,
                "pitch": 81,
                "velocity": 101,
                "duration": 0.1,
                "tempo": 120.0
            },
            {
                "start_time": 4.35,
                "end_time": 4.4818182,
                "pitch": 81,
                "velocity": 101,
                "duration": 0.1318182,
                "tempo": 120.0
            },
            {
                "start_time": 4.4818182,
                "end_time": 4.5818182,
                "pitch": 77,
                "velocity": 101,
                "duration": 0.1,
                "tempo": 120.0
            },
            {
                "start_time": 4.5818182,
                "end_time": 4.6818182,
                "pitch": 77,
                "velocity": 101,
                "duration": 0.1,
                "tempo": 120.0
            },
            {
                "start_time": 4.6818182,
                "end_time": 4.7840909,
                "pitch": 81,
                "velocity": 101,
                "duration": 0.1022727,
                "tempo": 120.0
            },
            {
                "start_time": 4.7840909,
                "end_time": 4.8863636,
                "pitch": 81,
                "velocity": 101,
                "duration": 0.1022727,
                "tempo": 120.0
            },
            {
                "start_time": 4.8863636,
                "end_time": 5.0295455,
                "pitch": 77,
                "velocity": 101,
                "duration": 0.1431818,
                "tempo": 120.0
            },
            {
                "start_time": 5.0295455,
                "end_time": 5.1340909,
                "pitch": 77,
                "velocity": 101,
                "duration": 0.1045455,
                "tempo": 120.0
            },
            {
                "start_time": 5.1340909,
                "end_time": 5.2340909,
                "pitch": 81,
                "velocity": 101,
                "duration": 0.1,
                "tempo": 120.0
            },
            {
                "start_time": 5.2340909,
                "end_time": 5.3340909,
                "pitch": 81,
                "velocity": 101,
                "duration": 0.1,
                "tempo": 120.0
            },
            {
                "start_time": 5.3340909,
                "end_time": 5.4340909,
                "pitch": 77,
                "velocity": 101,
                "duration": 0.1,
                "tempo": 120.0
            },
            {
                "start_time": 5.4340909,
                "end_time": 5.5636364,
                "pitch": 77,
                "velocity": 101,
                "duration": 0.1295455,
                "tempo": 120.0
            },
            {
                "start_time": 5.5636364,
                "end_time": 5.6659091,
                "pitch": 81,
                "velocity": 101,
                "duration": 0.1022727,
                "tempo": 120.0
            },
            {
                "start_time": 5.6659091,
                "end_time": 5.7659091,
                "pitch": 81,
                "velocity": 101,
                "duration": 0.1,
                "tempo": 120.0
            },
            {
                "start_time": 5.7659091,
                "end_time": 5.8659091,
                "pitch": 77,
                "velocity": 101,
                "duration": 0.1,
                "tempo": 120.0
            },
            {
                "start_time": 5.8659091,
                "end_time": 5.9659091,
                "pitch": 77,
                "velocity": 101,
                "duration": 0.1,
                "tempo": 120.0
            },
            {
                "start_time": 5.9659091,
                "end_time": 6.0886364,
                "pitch": 81,
                "velocity": 101,
                "duration": 0.1227273,
                "tempo": 120.0
            },
            {
                "start_time": 6.0886364,
                "end_time": 6.1818182,
                "pitch": 81,
                "velocity": 101,
                "duration": 0.0931818,
                "tempo": 120.0
            },
            {
                "start_time": 6.1818182,
                "end_time": 6.275,
                "pitch": 77,
                "velocity": 101,
                "duration": 0.0931818,
                "tempo": 120.0
            },
            {
                "start_time": 6.275,
                "end_time": 6.3681818,
                "pitch": 77,
                "velocity": 101,
                "duration": 0.0931818,
                "tempo": 120.0
            },
            {
                "start_time": 6.3681818,
                "end_time": 6.4704545,
                "pitch": 81,
                "velocity": 101,
                "duration": 0.1022727,
                "tempo": 120.0
            },
            {
                "start_time": 6.4704545,
                "end_time": 6.6136364,
                "pitch": 81,
                "velocity": 101,
                "duration": 0.1431818,
                "tempo": 120.0
            },
            {
                "start_time": 6.6136364,
                "end_time": 6.7181818,
                "pitch": 77,
                "velocity": 101,
                "duration": 0.1045455,
                "tempo": 120.0
            },
            {
                "start_time": 6.7181818,
                "end_time": 6.8204545,
                "pitch": 77,
                "velocity": 101,
                "duration": 0.1022727,
                "tempo": 120.0
            },
            {
                "start_time": 6.8204545,
                "end_time": 6.9204545,
                "pitch": 79,
                "velocity": 101,
                "duration": 0.1,
                "tempo": 120.0
            },
            {
                "start_time": 6.9204545,
                "end_time": 7.0204545,
                "pitch": 79,
                "velocity": 101,
                "duration": 0.1,
                "tempo": 120.0
            },
            {
                "start_time": 7.0204545,
                "end_time": 7.15,
                "pitch": 75,
                "velocity": 101,
                "duration": 0.1295455,
                "tempo": 120.0
            },
            {
                "start_time": 7.15,
                "end_time": 7.2522727,
                "pitch": 75,
                "velocity": 101,
                "duration": 0.1022727,
                "tempo": 120.0
            },
            {
                "start_time": 7.2522727,
                "end_time": 7.3522727,
                "pitch": 79,
                "velocity": 101,
                "duration": 0.1,
                "tempo": 120.0
            },
            {
                "start_time": 7.3522727,
                "end_time": 7.4522727,
                "pitch": 79,
                "velocity": 101,
                "duration": 0.1,
                "tempo": 120.0
            },
            {
                "start_time": 7.4522727,
                "end_time": 7.5522727,
                "pitch": 75,
                "velocity": 101,
                "duration": 0.1,
                "tempo": 120.0
            },
            {
                "start_time": 7.5522727,
                "end_time": 7.6840909,
                "pitch": 75,
                "velocity": 101,
                "duration": 0.1318182,
                "tempo": 120.0
            },
            {
                "start_time": 7.6840909,
                "end_time": 7.7840909,
                "pitch": 79,
                "velocity": 101,
                "duration": 0.1,
                "tempo": 120.0
            },
            {
                "start_time": 7.7840909,
                "end_time": 7.8840909,
                "pitch": 79,
                "velocity": 101,
                "duration": 0.1,
                "tempo": 120.0
            },
            {
                "start_time": 7.8840909,
                "end_time": 7.9840909,
                "pitch": 75,
                "velocity": 101,
                "duration": 0.1,
                "tempo": 120.0
            },
            {
                "start_time": 7.9840909,
                "end_time": 8.0954545,
                "pitch": 75,
                "velocity": 101,
                "duration": 0.1113636,
                "tempo": 120.0
            },
            {
                "start_time": 8.0954545,
                "end_time": 8.2181818,
                "pitch": 79,
                "velocity": 101,
                "duration": 0.1227273,
                "tempo": 120.0
            },
            {
                "start_time": 8.2181818,
                "end_time": 8.3136364,
                "pitch": 79,
                "velocity": 101,
                "duration": 0.0954545,
                "tempo": 120.0
            },
            {
                "start_time": 8.3136364,
                "end_time": 8.4090909,
                "pitch": 75,
                "velocity": 101,
                "duration": 0.0954545,
                "tempo": 120.0
            },
            {
                "start_time": 8.4090909,
                "end_time": 8.5068182,
                "pitch": 75,
                "velocity": 101,
                "duration": 0.0977273,
                "tempo": 120.0
            },
            {
                "start_time": 8.5068182,
                "end_time": 8.6068182,
                "pitch": 79,
                "velocity": 101,
                "duration": 0.1,
                "tempo": 120.0
            },
            {
                "start_time": 8.6068182,
                "end_time": 8.7363636,
                "pitch": 79,
                "velocity": 101,
                "duration": 0.1295455,
                "tempo": 120.0
            },
            {
                "start_time": 8.7363636,
                "end_time": 8.8363636,
                "pitch": 75,
                "velocity": 101,
                "duration": 0.1,
                "tempo": 120.0
            },
            {
                "start_time": 8.8363636,
                "end_time": 8.9386364,
                "pitch": 75,
                "velocity": 101,
                "duration": 0.1022727,
                "tempo": 120.0
            },
            {
                "start_time": 8.9386364,
                "end_time": 9.0386364,
                "pitch": 79,
                "velocity": 101,
                "duration": 0.1,
                "tempo": 120.0
            },
            {
                "start_time": 9.0386364,
                "end_time": 9.1386364,
                "pitch": 79,
                "velocity": 101,
                "duration": 0.1,
                "tempo": 120.0
            },
            {
                "start_time": 9.1386364,
                "end_time": 9.2681818,
                "pitch": 75,
                "velocity": 101,
                "duration": 0.1295455,
                "tempo": 120.0
            },
            {
                "start_time": 9.2681818,
                "end_time": 9.3795455,
                "pitch": 75,
                "velocity": 101,
                "duration": 0.1113636,
                "tempo": 120.0
            },
            {
                "start_time": 9.3795455,
                "end_time": 9.4727273,
                "pitch": 79,
                "velocity": 101,
                "duration": 0.0931818,
                "tempo": 120.0
            },
            {
                "start_time": 9.4727273,
                "end_time": 9.575,
                "pitch": 79,
                "velocity": 101,
                "duration": 0.1022727,
                "tempo": 120.0
            },
            {
                "start_time": 9.575,
                "end_time": 9.6863636,
                "pitch": 75,
                "velocity": 101,
                "duration": 0.1113636,
                "tempo": 120.0
            },
            {
                "start_time": 9.6863636,
                "end_time": 9.8204545,
                "pitch": 75,
                "velocity": 101,
                "duration": 0.1340909,
                "tempo": 120.0
            },
            {
                "start_time": 9.8204545,
                "end_time": 9.9204545,
                "pitch": 79,
                "velocity": 101,
                "duration": 0.1,
                "tempo": 120.0
            },
            {
                "start_time": 9.9204545,
                "end_time": 10.0204545,
                "pitch": 79,
                "velocity": 101,
                "duration": 0.1,
                "tempo": 120.0
            },
            {
                "start_time": 10.0204545,
                "end_time": 10.1227273,
                "pitch": 75,
                "velocity": 101,
                "duration": 0.1022727,
                "tempo": 120.0
            },
            {
                "start_time": 10.1227273,
                "end_time": 10.2227273,
                "pitch": 75,
                "velocity": 101,
                "duration": 0.1,
                "tempo": 120.0
            },
            {
                "start_time": 10.2227273,
                "end_time": 10.3431818,
                "pitch": 81,
                "velocity": 101,
                "duration": 0.1204545,
                "tempo": 120.0
            },
            {
                "start_time": 10.3431818,
                "end_time": 10.4386364,
                "pitch": 81,
                "velocity": 101,
                "duration": 0.0954545,
                "tempo": 120.0
            },
            {
                "start_time": 10.4386364,
                "end_time": 10.5318182,
                "pitch": 77,
                "velocity": 101,
                "duration": 0.0931818,
                "tempo": 120.0
            },
            {
                "start_time": 10.5318182,
                "end_time": 10.625,
                "pitch": 77,
                "velocity": 101,
                "duration": 0.0931818,
                "tempo": 120.0
            },
            {
                "start_time": 10.625,
                "end_time": 10.725,
                "pitch": 81,
                "velocity": 101,
                "duration": 0.1,
                "tempo": 120.0
            },
            {
                "start_time": 10.725,
                "end_time": 10.8568182,
                "pitch": 81,
                "velocity": 101,
                "duration": 0.1318182,
                "tempo": 120.0
            },
            {
                "start_time": 10.8568182,
                "end_time": 10.9568182,
                "pitch": 77,
                "velocity": 101,
                "duration": 0.1,
                "tempo": 120.0
            },
            {
                "start_time": 10.9568182,
                "end_time": 11.0568182,
                "pitch": 77,
                "velocity": 101,
                "duration": 0.1,
                "tempo": 120.0
            },
            {
                "start_time": 11.0568182,
                "end_time": 11.1590909,
                "pitch": 81,
                "velocity": 101,
                "duration": 0.1022727,
                "tempo": 120.0
            },
            {
                "start_time": 11.1590909,
                "end_time": 11.2613636,
                "pitch": 81,
                "velocity": 101,
                "duration": 0.1022727,
                "tempo": 120.0
            },
            {
                "start_time": 11.2613636,
                "end_time": 11.4045455,
                "pitch": 77,
                "velocity": 101,
                "duration": 0.1431818,
                "tempo": 120.0
            },
            {
                "start_time": 11.4045455,
                "end_time": 11.5068182,
                "pitch": 77,
                "velocity": 101,
                "duration": 0.1022727,
                "tempo": 120.0
            },
            {
                "start_time": 11.5068182,
                "end_time": 11.6090909,
                "pitch": 81,
                "velocity": 101,
                "duration": 0.1022727,
                "tempo": 120.0
            },
            {
                "start_time": 11.6090909,
                "end_time": 11.7090909,
                "pitch": 81,
                "velocity": 101,
                "duration": 0.1,
                "tempo": 120.0
            },
            {
                "start_time": 11.7090909,
                "end_time": 11.8090909,
                "pitch": 77,
                "velocity": 101,
                "duration": 0.1,
                "tempo": 120.0
            },
            {
                "start_time": 11.8090909,
                "end_time": 11.9386364,
                "pitch": 77,
                "velocity": 101,
                "duration": 0.1295455,
                "tempo": 120.0
            },
            {
                "start_time": 11.9386364,
                "end_time": 12.0409091,
                "pitch": 81,
                "velocity": 101,
                "duration": 0.1022727,
                "tempo": 120.0
            },
            {
                "start_time": 12.0409091,
                "end_time": 12.1409091,
                "pitch": 81,
                "velocity": 101,
                "duration": 0.1,
                "tempo": 120.0
            },
            {
                "start_time": 12.1409091,
                "end_time": 12.2409091,
                "pitch": 77,
                "velocity": 101,
                "duration": 0.1,
                "tempo": 120.0
            },
            {
                "start_time": 12.2409091,
                "end_time": 12.3409091,
                "pitch": 77,
                "velocity": 101,
                "duration": 0.1,
                "tempo": 120.0
            },
            {
                "start_time": 12.3409091,
                "end_time": 12.4636364,
                "pitch": 81,
                "velocity": 101,
                "duration": 0.1227273,
                "tempo": 120.0
            },
            {
                "start_time": 12.4636364,
                "end_time": 12.5568182,
                "pitch": 81,
                "velocity": 101,
                "duration": 0.0931818,
                "tempo": 120.0
            },
            {
                "start_time": 12.5568182,
                "end_time": 12.65,
                "pitch": 77,
                "velocity": 101,
                "duration": 0.0931818,
                "tempo": 120.0
            },
            {
                "start_time": 12.65,
                "end_time": 12.7431818,
                "pitch": 77,
                "velocity": 101,
                "duration": 0.0931818,
                "tempo": 120.0
            },
            {
                "start_time": 12.7431818,
                "end_time": 12.8454545,
                "pitch": 81,
                "velocity": 101,
                "duration": 0.1022727,
                "tempo": 120.0
            },
            {
                "start_time": 12.8454545,
                "end_time": 12.9886364,
                "pitch": 81,
                "velocity": 101,
                "duration": 0.1431818,
                "tempo": 120.0
            },
            {
                "start_time": 12.9886364,
                "end_time": 13.0909091,
                "pitch": 77,
                "velocity": 101,
                "duration": 0.1022727,
                "tempo": 120.0
            },
            {
                "start_time": 13.0909091,
                "end_time": 13.1954545,
                "pitch": 77,
                "velocity": 101,
                "duration": 0.1045455,
                "tempo": 120.0
            },
            {
                "start_time": 13.1954545,
                "end_time": 13.2954545,
                "pitch": 81,
                "velocity": 101,
                "duration": 0.1,
                "tempo": 120.0
            },
            {
                "start_time": 13.2954545,
                "end_time": 13.3954545,
                "pitch": 81,
                "velocity": 101,
                "duration": 0.1,
                "tempo": 120.0
            },
            {
                "start_time": 13.3954545,
                "end_time": 13.525,
                "pitch": 77,
                "velocity": 101,
                "duration": 0.1295455,
                "tempo": 120.0
            },
            {
                "start_time": 13.525,
                "end_time": 13.6272727,
                "pitch": 77,
                "velocity": 101,
                "duration": 0.1022727,
                "tempo": 120.0
            },
            {
                "start_time": 13.6272727,
                "end_time": 13.7272727,
                "pitch": 81,
                "velocity": 101,
                "duration": 0.1,
                "tempo": 120.0
            },
            {
                "start_time": 13.7272727,
                "end_time": 13.8272727,
                "pitch": 81,
                "velocity": 101,
                "duration": 0.1,
                "tempo": 120.0
            },
            {
                "start_time": 13.8272727,
                "end_time": 13.9272727,
                "pitch": 77,
                "velocity": 101,
                "duration": 0.1,
                "tempo": 120.0
            },
            {
                "start_time": 13.9272727,
                "end_time": 14.0590909,
                "pitch": 77,
                "velocity": 101,
                "duration": 0.1318182,
                "tempo": 120.0
            },
            {
                "start_time": 14.0681818,
                "end_time": 14.1704545,
                "pitch": 81,
                "velocity": 101,
                "duration": 0.1022727,
                "tempo": 120.0
            },
            {
                "start_time": 14.1704545,
                "end_time": 14.2636364,
                "pitch": 81,
                "velocity": 101,
                "duration": 0.0931818,
                "tempo": 120.0
            },
            {
                "start_time": 14.2636364,
                "end_time": 14.2727273,
                "pitch": 90,
                "velocity": 101,
                "duration": 0.0090909,
                "tempo": 120.0
            },
            {
                "start_time": 14.2727273,
                "end_time": 14.375,
                "pitch": 77,
                "velocity": 101,
                "duration": 0.1022727,
                "tempo": 120.0
            },
            {
                "start_time": 14.375,
                "end_time": 14.4681818,
                "pitch": 77,
                "velocity": 101,
                "duration": 0.0931818,
                "tempo": 120.0
            },
            {
                "start_time": 14.4681818,
                "end_time": 14.4795455,
                "pitch": 43,
                "velocity": 101,
                "duration": 0.0113636,
                "tempo": 120.0
            },
            {
                "start_time": 14.4795455,
                "end_time": 14.6,
                "pitch": 81,
                "velocity": 101,
                "duration": 0.1204545,
                "tempo": 120.0
            },
            {
                "start_time": 14.6,
                "end_time": 14.6931818,
                "pitch": 81,
                "velocity": 101,
                "duration": 0.0931818,
                "tempo": 120.0
            },
            {
                "start_time": 14.6931818,
                "end_time": 14.7886364,
                "pitch": 77,
                "velocity": 101,
                "duration": 0.0954545,
                "tempo": 120.0
            },
            {
                "start_time": 14.7886364,
                "end_time": 14.8818182,
                "pitch": 77,
                "velocity": 101,
                "duration": 0.0931818,
                "tempo": 120.0
            },
            {
                "start_time": 14.8818182,
                "end_time": 14.9818182,
                "pitch": 81,
                "velocity": 101,
                "duration": 0.1,
                "tempo": 120.0
            },
            {
                "start_time": 14.9818182,
                "end_time": 15.1113636,
                "pitch": 81,
                "velocity": 101,
                "duration": 0.1295455,
                "tempo": 120.0
            },
            {
                "start_time": 15.1113636,
                "end_time": 15.2136364,
                "pitch": 77,
                "velocity": 101,
                "duration": 0.1022727,
                "tempo": 120.0
            },
            {
                "start_time": 15.2136364,
                "end_time": 15.3136364,
                "pitch": 77,
                "velocity": 101,
                "duration": 0.1,
                "tempo": 120.0
            },
            {
                "start_time": 15.3136364,
                "end_time": 15.4136364,
                "pitch": 82,
                "velocity": 101,
                "duration": 0.1,
                "tempo": 120.0
            },
            {
                "start_time": 15.4136364,
                "end_time": 15.5136364,
                "pitch": 82,
                "velocity": 101,
                "duration": 0.1,
                "tempo": 120.0
            },
            {
                "start_time": 15.5136364,
                "end_time": 15.6545455,
                "pitch": 77,
                "velocity": 101,
                "duration": 0.1409091,
                "tempo": 120.0
            },
            {
                "start_time": 15.6545455,
                "end_time": 15.7545455,
                "pitch": 77,
                "velocity": 101,
                "duration": 0.1,
                "tempo": 120.0
            },
            {
                "start_time": 15.7545455,
                "end_time": 15.8568182,
                "pitch": 82,
                "velocity": 101,
                "duration": 0.1022727,
                "tempo": 120.0
            },
            {
                "start_time": 15.8568182,
                "end_time": 15.9590909,
                "pitch": 82,
                "velocity": 101,
                "duration": 0.1022727,
                "tempo": 120.0
            },
            {
                "start_time": 15.9590909,
                "end_time": 16.0636364,
                "pitch": 77,
                "velocity": 101,
                "duration": 0.1045455,
                "tempo": 120.0
            },
            {
                "start_time": 16.0636364,
                "end_time": 16.1954545,
                "pitch": 77,
                "velocity": 101,
                "duration": 0.1318182,
                "tempo": 120.0
            },
            {
                "start_time": 16.1954545,
                "end_time": 16.2954545,
                "pitch": 82,
                "velocity": 101,
                "duration": 0.1,
                "tempo": 120.0
            },
            {
                "start_time": 16.2954545,
                "end_time": 16.3977273,
                "pitch": 82,
                "velocity": 101,
                "duration": 0.1022727,
                "tempo": 120.0
            },
            {
                "start_time": 16.3977273,
                "end_time": 16.4977273,
                "pitch": 77,
                "velocity": 101,
                "duration": 0.1,
                "tempo": 120.0
            },
            {
                "start_time": 16.4977273,
                "end_time": 16.5977273,
                "pitch": 77,
                "velocity": 101,
                "duration": 0.1,
                "tempo": 120.0
            },
            {
                "start_time": 16.5977273,
                "end_time": 16.7181818,
                "pitch": 82,
                "velocity": 101,
                "duration": 0.1204545,
                "tempo": 120.0
            },
            {
                "start_time": 16.7181818,
                "end_time": 16.8113636,
                "pitch": 82,
                "velocity": 101,
                "duration": 0.0931818,
                "tempo": 120.0
            },
            {
                "start_time": 16.8113636,
                "end_time": 16.9045455,
                "pitch": 77,
                "velocity": 101,
                "duration": 0.0931818,
                "tempo": 120.0
            },
            {
                "start_time": 16.9045455,
                "end_time": 16.9977273,
                "pitch": 77,
                "velocity": 101,
                "duration": 0.0931818,
                "tempo": 120.0
            },
            {
                "start_time": 16.9977273,
                "end_time": 17.1,
                "pitch": 81,
                "velocity": 101,
                "duration": 0.1022727,
                "tempo": 120.0
            },
            {
                "start_time": 17.1,
                "end_time": 17.2431818,
                "pitch": 81,
                "velocity": 101,
                "duration": 0.1431818,
                "tempo": 120.0
            },
            {
                "start_time": 17.2431818,
                "end_time": 17.3454545,
                "pitch": 77,
                "velocity": 101,
                "duration": 0.1022727,
                "tempo": 120.0
            },
            {
                "start_time": 17.3454545,
                "end_time": 17.4477273,
                "pitch": 77,
                "velocity": 101,
                "duration": 0.1022727,
                "tempo": 120.0
            },
            {
                "start_time": 17.4477273,
                "end_time": 17.5477273,
                "pitch": 81,
                "velocity": 101,
                "duration": 0.1,
                "tempo": 120.0
            },
            {
                "start_time": 17.5477273,
                "end_time": 17.65,
                "pitch": 81,
                "velocity": 101,
                "duration": 0.1022727,
                "tempo": 120.0
            },
            {
                "start_time": 17.65,
                "end_time": 17.7795455,
                "pitch": 77,
                "velocity": 101,
                "duration": 0.1295455,
                "tempo": 120.0
            },
            {
                "start_time": 17.7795455,
                "end_time": 17.8795455,
                "pitch": 77,
                "velocity": 101,
                "duration": 0.1,
                "tempo": 120.0
            },
            {
                "start_time": 17.8795455,
                "end_time": 17.9795455,
                "pitch": 81,
                "velocity": 101,
                "duration": 0.1,
                "tempo": 120.0
            },
            {
                "start_time": 17.9795455,
                "end_time": 18.0818182,
                "pitch": 81,
                "velocity": 101,
                "duration": 0.1022727,
                "tempo": 120.0
            },
            {
                "start_time": 18.0818182,
                "end_time": 18.1818182,
                "pitch": 77,
                "velocity": 101,
                "duration": 0.1,
                "tempo": 120.0
            },
            {
                "start_time": 18.1818182,
                "end_time": 18.3113636,
                "pitch": 77,
                "velocity": 101,
                "duration": 0.1295455,
                "tempo": 120.0
            },
            {
                "start_time": 18.3113636,
                "end_time": 18.4113636,
                "pitch": 81,
                "velocity": 101,
                "duration": 0.1,
                "tempo": 120.0
            },
            {
                "start_time": 18.4113636,
                "end_time": 18.5113636,
                "pitch": 81,
                "velocity": 101,
                "duration": 0.1,
                "tempo": 120.0
            },
            {
                "start_time": 18.5113636,
                "end_time": 18.6136364,
                "pitch": 77,
                "velocity": 101,
                "duration": 0.1022727,
                "tempo": 120.0
            },
            {
                "start_time": 18.6136364,
                "end_time": 18.7136364,
                "pitch": 77,
                "velocity": 101,
                "duration": 0.1,
                "tempo": 120.0
            },
            {
                "start_time": 18.7136364,
                "end_time": 18.8477273,
                "pitch": 81,
                "velocity": 101,
                "duration": 0.1340909,
                "tempo": 120.0
            },
            {
                "start_time": 18.8477273,
                "end_time": 18.9431818,
                "pitch": 81,
                "velocity": 101,
                "duration": 0.0954545,
                "tempo": 120.0
            },
            {
                "start_time": 18.9431818,
                "end_time": 19.0386364,
                "pitch": 77,
                "velocity": 101,
                "duration": 0.0954545,
                "tempo": 120.0
            },
            {
                "start_time": 19.0386364,
                "end_time": 19.1340909,
                "pitch": 77,
                "velocity": 101,
                "duration": 0.0954545,
                "tempo": 120.0
            },
            {
                "start_time": 19.1340909,
                "end_time": 19.2340909,
                "pitch": 81,
                "velocity": 101,
                "duration": 0.1,
                "tempo": 120.0
            },
            {
                "start_time": 19.2340909,
                "end_time": 19.3659091,
                "pitch": 81,
                "velocity": 101,
                "duration": 0.1318182,
                "tempo": 120.0
            },
            {
                "start_time": 19.3659091,
                "end_time": 19.4659091,
                "pitch": 77,
                "velocity": 101,
                "duration": 0.1,
                "tempo": 120.0
            },
            {
                "start_time": 19.4659091,
                "end_time": 19.5659091,
                "pitch": 77,
                "velocity": 101,
                "duration": 0.1,
                "tempo": 120.0
            },
            {
                "start_time": 19.5659091,
                "end_time": 19.6659091,
                "pitch": 81,
                "velocity": 101,
                "duration": 0.1,
                "tempo": 120.0
            },
            {
                "start_time": 19.6659091,
                "end_time": 19.7659091,
                "pitch": 81,
                "velocity": 101,
                "duration": 0.1,
                "tempo": 120.0
            },
            {
                "start_time": 19.7659091,
                "end_time": 19.8977273,
                "pitch": 77,
                "velocity": 101,
                "duration": 0.1318182,
                "tempo": 120.0
            },
            {
                "start_time": 19.8977273,
                "end_time": 19.9977273,
                "pitch": 77,
                "velocity": 101,
                "duration": 0.1,
                "tempo": 120.0
            },
            {
                "start_time": 19.9977273,
                "end_time": 20.0977273,
                "pitch": 81,
                "velocity": 101,
                "duration": 0.1,
                "tempo": 120.0
            },
            {
                "start_time": 20.0977273,
                "end_time": 20.1977273,
                "pitch": 81,
                "velocity": 101,
                "duration": 0.1,
                "tempo": 120.0
            },
            {
                "start_time": 20.1977273,
                "end_time": 20.3,
                "pitch": 77,
                "velocity": 101,
                "duration": 0.1022727,
                "tempo": 120.0
            },
            {
                "start_time": 20.3,
                "end_time": 20.4386364,
                "pitch": 77,
                "velocity": 101,
                "duration": 0.1386364,
                "tempo": 120.0
            },
            {
                "start_time": 20.4386364,
                "end_time": 20.5431818,
                "pitch": 79,
                "velocity": 101,
                "duration": 0.1045455,
                "tempo": 120.0
            },
            {
                "start_time": 20.5431818,
                "end_time": 20.6454545,
                "pitch": 79,
                "velocity": 101,
                "duration": 0.1022727,
                "tempo": 120.0
            },
            {
                "start_time": 20.6454545,
                "end_time": 20.7477273,
                "pitch": 75,
                "velocity": 101,
                "duration": 0.1022727,
                "tempo": 120.0
            },
            {
                "start_time": 20.7477273,
                "end_time": 20.85,
                "pitch": 75,
                "velocity": 101,
                "duration": 0.1022727,
                "tempo": 120.0
            },
            {
                "start_time": 20.85,
                "end_time": 20.9727273,
                "pitch": 79,
                "velocity": 101,
                "duration": 0.1227273,
                "tempo": 120.0
            },
            {
                "start_time": 20.9727273,
                "end_time": 21.0659091,
                "pitch": 79,
                "velocity": 101,
                "duration": 0.0931818,
                "tempo": 120.0
            },
            {
                "start_time": 21.0659091,
                "end_time": 21.1590909,
                "pitch": 75,
                "velocity": 101,
                "duration": 0.0931818,
                "tempo": 120.0
            },
            {
                "start_time": 21.1590909,
                "end_time": 21.2522727,
                "pitch": 75,
                "velocity": 101,
                "duration": 0.0931818,
                "tempo": 120.0
            },
            {
                "start_time": 21.2522727,
                "end_time": 21.3522727,
                "pitch": 79,
                "velocity": 101,
                "duration": 0.1,
                "tempo": 120.0
            },
            {
                "start_time": 21.3522727,
                "end_time": 21.4840909,
                "pitch": 79,
                "velocity": 101,
                "duration": 0.1318182,
                "tempo": 120.0
            },
            {
                "start_time": 21.4840909,
                "end_time": 21.5840909,
                "pitch": 75,
                "velocity": 101,
                "duration": 0.1,
                "tempo": 120.0
            },
            {
                "start_time": 21.5840909,
                "end_time": 21.6840909,
                "pitch": 75,
                "velocity": 101,
                "duration": 0.1,
                "tempo": 120.0
            },
            {
                "start_time": 21.6840909,
                "end_time": 21.7863636,
                "pitch": 79,
                "velocity": 101,
                "duration": 0.1022727,
                "tempo": 120.0
            },
            {
                "start_time": 21.7863636,
                "end_time": 21.8886364,
                "pitch": 79,
                "velocity": 101,
                "duration": 0.1022727,
                "tempo": 120.0
            },
            {
                "start_time": 21.8886364,
                "end_time": 22.0340909,
                "pitch": 75,
                "velocity": 101,
                "duration": 0.1454545,
                "tempo": 120.0
            },
            {
                "start_time": 22.0340909,
                "end_time": 22.1363636,
                "pitch": 75,
                "velocity": 101,
                "duration": 0.1022727,
                "tempo": 120.0
            },
            {
                "start_time": 22.1363636,
                "end_time": 22.2363636,
                "pitch": 79,
                "velocity": 101,
                "duration": 0.1,
                "tempo": 120.0
            },
            {
                "start_time": 22.2363636,
                "end_time": 22.3363636,
                "pitch": 79,
                "velocity": 101,
                "duration": 0.1,
                "tempo": 120.0
            },
            {
                "start_time": 22.3363636,
                "end_time": 22.4363636,
                "pitch": 75,
                "velocity": 101,
                "duration": 0.1,
                "tempo": 120.0
            },
            {
                "start_time": 22.4363636,
                "end_time": 22.5681818,
                "pitch": 75,
                "velocity": 101,
                "duration": 0.1318182,
                "tempo": 120.0
            },
            {
                "start_time": 22.5681818,
                "end_time": 22.6681818,
                "pitch": 79,
                "velocity": 101,
                "duration": 0.1,
                "tempo": 120.0
            },
            {
                "start_time": 22.6681818,
                "end_time": 22.7681818,
                "pitch": 79,
                "velocity": 101,
                "duration": 0.1,
                "tempo": 120.0
            },
            {
                "start_time": 22.7681818,
                "end_time": 22.8681818,
                "pitch": 75,
                "velocity": 101,
                "duration": 0.1,
                "tempo": 120.0
            },
            {
                "start_time": 22.8681818,
                "end_time": 22.9681818,
                "pitch": 75,
                "velocity": 101,
                "duration": 0.1,
                "tempo": 120.0
            },
            {
                "start_time": 22.9681818,
                "end_time": 23.0909091,
                "pitch": 79,
                "velocity": 101,
                "duration": 0.1227273,
                "tempo": 120.0
            },
            {
                "start_time": 23.0909091,
                "end_time": 23.1840909,
                "pitch": 79,
                "velocity": 101,
                "duration": 0.0931818,
                "tempo": 120.0
            },
            {
                "start_time": 23.1840909,
                "end_time": 23.2772727,
                "pitch": 75,
                "velocity": 101,
                "duration": 0.0931818,
                "tempo": 120.0
            },
            {
                "start_time": 23.2772727,
                "end_time": 23.3727273,
                "pitch": 75,
                "velocity": 101,
                "duration": 0.0954545,
                "tempo": 120.0
            },
            {
                "start_time": 23.3727273,
                "end_time": 23.4727273,
                "pitch": 79,
                "velocity": 101,
                "duration": 0.1,
                "tempo": 120.0
            },
            {
                "start_time": 23.4727273,
                "end_time": 23.6181818,
                "pitch": 79,
                "velocity": 101,
                "duration": 0.1454545,
                "tempo": 120.0
            },
            {
                "start_time": 23.6181818,
                "end_time": 23.7204545,
                "pitch": 75,
                "velocity": 101,
                "duration": 0.1022727,
                "tempo": 120.0
            },
            {
                "start_time": 23.7204545,
                "end_time": 23.8227273,
                "pitch": 75,
                "velocity": 101,
                "duration": 0.1022727,
                "tempo": 120.0
            },
            {
                "start_time": 23.8227273,
                "end_time": 23.9227273,
                "pitch": 81,
                "velocity": 101,
                "duration": 0.1,
                "tempo": 120.0
            },
            {
                "start_time": 23.9227273,
                "end_time": 24.0227273,
                "pitch": 81,
                "velocity": 101,
                "duration": 0.1,
                "tempo": 120.0
            },
            {
                "start_time": 24.0227273,
                "end_time": 24.1545455,
                "pitch": 77,
                "velocity": 101,
                "duration": 0.1318182,
                "tempo": 120.0
            },
            {
                "start_time": 24.1545455,
                "end_time": 24.2545455,
                "pitch": 77,
                "velocity": 101,
                "duration": 0.1,
                "tempo": 120.0
            },
            {
                "start_time": 24.2545455,
                "end_time": 24.3545455,
                "pitch": 81,
                "velocity": 101,
                "duration": 0.1,
                "tempo": 120.0
            },
            {
                "start_time": 24.3545455,
                "end_time": 24.4545455,
                "pitch": 81,
                "velocity": 101,
                "duration": 0.1,
                "tempo": 120.0
            },
            {
                "start_time": 24.4545455,
                "end_time": 24.5545455,
                "pitch": 77,
                "velocity": 101,
                "duration": 0.1,
                "tempo": 120.0
            },
            {
                "start_time": 24.5545455,
                "end_time": 24.6863636,
                "pitch": 77,
                "velocity": 101,
                "duration": 0.1318182,
                "tempo": 120.0
            },
            {
                "start_time": 24.6863636,
                "end_time": 24.7863636,
                "pitch": 81,
                "velocity": 101,
                "duration": 0.1,
                "tempo": 120.0
            },
            {
                "start_time": 24.7863636,
                "end_time": 24.8863636,
                "pitch": 81,
                "velocity": 101,
                "duration": 0.1,
                "tempo": 120.0
            },
            {
                "start_time": 24.8863636,
                "end_time": 24.9863636,
                "pitch": 77,
                "velocity": 101,
                "duration": 0.1,
                "tempo": 120.0
            },
            {
                "start_time": 24.9863636,
                "end_time": 25.0886364,
                "pitch": 77,
                "velocity": 101,
                "duration": 0.1022727,
                "tempo": 120.0
            },
            {
                "start_time": 25.0886364,
                "end_time": 25.2227273,
                "pitch": 81,
                "velocity": 101,
                "duration": 0.1340909,
                "tempo": 120.0
            },
            {
                "start_time": 25.2227273,
                "end_time": 25.3181818,
                "pitch": 81,
                "velocity": 101,
                "duration": 0.0954545,
                "tempo": 120.0
            },
            {
                "start_time": 25.3181818,
                "end_time": 25.4136364,
                "pitch": 77,
                "velocity": 101,
                "duration": 0.0954545,
                "tempo": 120.0
            },
            {
                "start_time": 25.4136364,
                "end_time": 25.5090909,
                "pitch": 77,
                "velocity": 101,
                "duration": 0.0954545,
                "tempo": 120.0
            },
            {
                "start_time": 25.5090909,
                "end_time": 25.6090909,
                "pitch": 81,
                "velocity": 101,
                "duration": 0.1,
                "tempo": 120.0
            },
            {
                "start_time": 25.6090909,
                "end_time": 25.7386364,
                "pitch": 81,
                "velocity": 101,
                "duration": 0.1295455,
                "tempo": 120.0
            },
            {
                "start_time": 25.7386364,
                "end_time": 25.8409091,
                "pitch": 77,
                "velocity": 101,
                "duration": 0.1022727,
                "tempo": 120.0
            },
            {
                "start_time": 25.8409091,
                "end_time": 25.9409091,
                "pitch": 77,
                "velocity": 101,
                "duration": 0.1,
                "tempo": 120.0
            },
            {
                "start_time": 25.9409091,
                "end_time": 26.0409091,
                "pitch": 81,
                "velocity": 101,
                "duration": 0.1,
                "tempo": 120.0
            },
            {
                "start_time": 26.0409091,
                "end_time": 26.1409091,
                "pitch": 81,
                "velocity": 101,
                "duration": 0.1,
                "tempo": 120.0
            },
            {
                "start_time": 26.1409091,
                "end_time": 26.2727273,
                "pitch": 77,
                "velocity": 101,
                "duration": 0.1318182,
                "tempo": 120.0
            },
            {
                "start_time": 26.2727273,
                "end_time": 26.3727273,
                "pitch": 77,
                "velocity": 101,
                "duration": 0.1,
                "tempo": 120.0
            },
            {
                "start_time": 26.3727273,
                "end_time": 26.475,
                "pitch": 81,
                "velocity": 101,
                "duration": 0.1022727,
                "tempo": 120.0
            },
            {
                "start_time": 26.475,
                "end_time": 26.5772727,
                "pitch": 81,
                "velocity": 101,
                "duration": 0.1022727,
                "tempo": 120.0
            },
            {
                "start_time": 26.5772727,
                "end_time": 26.6795455,
                "pitch": 79,
                "velocity": 101,
                "duration": 0.1022727,
                "tempo": 120.0
            },
            {
                "start_time": 26.6795455,
                "end_time": 26.8227273,
                "pitch": 79,
                "velocity": 101,
                "duration": 0.1431818,
                "tempo": 120.0
            },
            {
                "start_time": 26.8227273,
                "end_time": 26.9227273,
                "pitch": 77,
                "velocity": 101,
                "duration": 0.1,
                "tempo": 120.0
            },
            {
                "start_time": 26.9227273,
                "end_time": 27.025,
                "pitch": 77,
                "velocity": 101,
                "duration": 0.1022727,
                "tempo": 120.0
            },
            {
                "start_time": 27.025,
                "end_time": 27.125,
                "pitch": 76,
                "velocity": 101,
                "duration": 0.1,
                "tempo": 120.0
            },
            {
                "start_time": 27.125,
                "end_time": 27.225,
                "pitch": 76,
                "velocity": 101,
                "duration": 0.1,
                "tempo": 120.0
            },
            {
                "start_time": 27.225,
                "end_time": 27.3454545,
                "pitch": 74,
                "velocity": 101,
                "duration": 0.1204545,
                "tempo": 120.0
            },
            {
                "start_time": 27.3454545,
                "end_time": 27.4386364,
                "pitch": 74,
                "velocity": 101,
                "duration": 0.0931818,
                "tempo": 120.0
            },
            {
                "start_time": 27.4386364,
                "end_time": 27.5318182,
                "pitch": 76,
                "velocity": 101,
                "duration": 0.0931818,
                "tempo": 120.0
            },
            {
                "start_time": 27.5318182,
                "end_time": 27.625,
                "pitch": 76,
                "velocity": 101,
                "duration": 0.0931818,
                "tempo": 120.0
            },
            {
                "start_time": 27.625,
                "end_time": 27.725,
                "pitch": 77,
                "velocity": 101,
                "duration": 0.1,
                "tempo": 120.0
            },
            {
                "start_time": 27.725,
                "end_time": 27.8568182,
                "pitch": 77,
                "velocity": 101,
                "duration": 0.1318182,
                "tempo": 120.0
            },
            {
                "start_time": 27.8568182,
                "end_time": 27.9568182,
                "pitch": 74,
                "velocity": 101,
                "duration": 0.1,
                "tempo": 120.0
            },
            {
                "start_time": 27.9568182,
                "end_time": 28.0659091,
                "pitch": 74,
                "velocity": 101,
                "duration": 0.1090909,
                "tempo": 120.0
            },
            {
                "start_time": 28.0659091,
                "end_time": 28.1590909,
                "pitch": 79,
                "velocity": 101,
                "duration": 0.0931818,
                "tempo": 120.0
            },
            {
                "start_time": 28.1590909,
                "end_time": 28.2613636,
                "pitch": 79,
                "velocity": 101,
                "duration": 0.1022727,
                "tempo": 120.0
            },
            {
                "start_time": 28.2613636,
                "end_time": 28.4045455,
                "pitch": 77,
                "velocity": 101,
                "duration": 0.1431818,
                "tempo": 120.0
            },
            {
                "start_time": 28.4045455,
                "end_time": 28.5090909,
                "pitch": 77,
                "velocity": 101,
                "duration": 0.1045455,
                "tempo": 120.0
            },
            {
                "start_time": 28.5090909,
                "end_time": 28.6090909,
                "pitch": 76,
                "velocity": 101,
                "duration": 0.1,
                "tempo": 120.0
            },
            {
                "start_time": 28.6090909,
                "end_time": 28.7090909,
                "pitch": 76,
                "velocity": 101,
                "duration": 0.1,
                "tempo": 120.0
            },
            {
                "start_time": 28.7090909,
                "end_time": 28.8090909,
                "pitch": 77,
                "velocity": 101,
                "duration": 0.1,
                "tempo": 120.0
            },
            {
                "start_time": 28.8090909,
                "end_time": 28.9386364,
                "pitch": 77,
                "velocity": 101,
                "duration": 0.1295455,
                "tempo": 120.0
            },
            {
                "start_time": 28.9386364,
                "end_time": 29.0409091,
                "pitch": 72,
                "velocity": 101,
                "duration": 0.1022727,
                "tempo": 120.0
            },
            {
                "start_time": 29.0409091,
                "end_time": 29.1409091,
                "pitch": 72,
                "velocity": 101,
                "duration": 0.1,
                "tempo": 120.0
            },
            {
                "start_time": 29.1409091,
                "end_time": 29.2409091,
                "pitch": 74,
                "velocity": 101,
                "duration": 0.1,
                "tempo": 120.0
            },
            {
                "start_time": 29.2409091,
                "end_time": 29.3409091,
                "pitch": 74,
                "velocity": 101,
                "duration": 0.1,
                "tempo": 120.0
            },
            {
                "start_time": 29.3409091,
                "end_time": 29.4613636,
                "pitch": 76,
                "velocity": 101,
                "duration": 0.1204545,
                "tempo": 120.0
            },
            {
                "start_time": 29.4613636,
                "end_time": 29.5545455,
                "pitch": 76,
                "velocity": 101,
                "duration": 0.0931818,
                "tempo": 120.0
            },
            {
                "start_time": 29.5545455,
                "end_time": 29.6477273,
                "pitch": 72,
                "velocity": 101,
                "duration": 0.0931818,
                "tempo": 120.0
            },
            {
                "start_time": 29.6477273,
                "end_time": 29.75,
                "pitch": 72,
                "velocity": 101,
                "duration": 0.1022727,
                "tempo": 120.0
            },
            {
                "start_time": 29.75,
                "end_time": 29.8431818,
                "pitch": 77,
                "velocity": 101,
                "duration": 0.0931818,
                "tempo": 120.0
            },
            {
                "start_time": 29.8431818,
                "end_time": 29.9863636,
                "pitch": 77,
                "velocity": 101,
                "duration": 0.1431818,
                "tempo": 120.0
            },
            {
                "start_time": 29.9863636,
                "end_time": 30.0886364,
                "pitch": 76,
                "velocity": 101,
                "duration": 0.1022727,
                "tempo": 120.0
            },
            {
                "start_time": 30.0886364,
                "end_time": 30.1909091,
                "pitch": 76,
                "velocity": 101,
                "duration": 0.1022727,
                "tempo": 120.0
            },
            {
                "start_time": 30.1909091,
                "end_time": 30.2931818,
                "pitch": 74,
                "velocity": 101,
                "duration": 0.1022727,
                "tempo": 120.0
            },
            {
                "start_time": 30.2931818,
                "end_time": 30.3931818,
                "pitch": 74,
                "velocity": 101,
                "duration": 0.1,
                "tempo": 120.0
            },
            {
                "start_time": 30.3931818,
                "end_time": 30.5227273,
                "pitch": 72,
                "velocity": 101,
                "duration": 0.1295455,
                "tempo": 120.0
            },
            {
                "start_time": 30.5227273,
                "end_time": 30.6227273,
                "pitch": 72,
                "velocity": 101,
                "duration": 0.1,
                "tempo": 120.0
            },
            {
                "start_time": 30.6227273,
                "end_time": 30.725,
                "pitch": 70,
                "velocity": 101,
                "duration": 0.1022727,
                "tempo": 120.0
            },
            {
                "start_time": 30.725,
                "end_time": 30.825,
                "pitch": 70,
                "velocity": 101,
                "duration": 0.1,
                "tempo": 120.0
            },
            {
                "start_time": 30.825,
                "end_time": 30.925,
                "pitch": 72,
                "velocity": 101,
                "duration": 0.1,
                "tempo": 120.0
            },
            {
                "start_time": 30.925,
                "end_time": 31.0545455,
                "pitch": 72,
                "velocity": 101,
                "duration": 0.1295455,
                "tempo": 120.0
            },
            {
                "start_time": 31.0659091,
                "end_time": 31.1568182,
                "pitch": 74,
                "velocity": 101,
                "duration": 0.0909091,
                "tempo": 120.0
            },
            {
                "start_time": 31.1681818,
                "end_time": 31.2613636,
                "pitch": 74,
                "velocity": 101,
                "duration": 0.0931818,
                "tempo": 120.0
            },
            {
                "start_time": 31.2704545,
                "end_time": 31.3636364,
                "pitch": 70,
                "velocity": 101,
                "duration": 0.0931818,
                "tempo": 120.0
            },
            {
                "start_time": 31.3727273,
                "end_time": 31.475,
                "pitch": 70,
                "velocity": 101,
                "duration": 0.1022727,
                "tempo": 120.0
            },
            {
                "start_time": 31.475,
                "end_time": 31.5977273,
                "pitch": 65,
                "velocity": 101,
                "duration": 0.1227273,
                "tempo": 120.0
            },
            {
                "start_time": 31.5977273,
                "end_time": 31.6909091,
                "pitch": 65,
                "velocity": 101,
                "duration": 0.0931818,
                "tempo": 120.0
            },
            {
                "start_time": 31.6909091,
                "end_time": 31.7818182,
                "pitch": 64,
                "velocity": 101,
                "duration": 0.0909091,
                "tempo": 120.0
            },
            {
                "start_time": 31.7818182,
                "end_time": 31.875,
                "pitch": 64,
                "velocity": 101,
                "duration": 0.0931818,
                "tempo": 120.0
            },
            {
                "start_time": 31.875,
                "end_time": 31.9772727,
                "pitch": 62,
                "velocity": 101,
                "duration": 0.1022727,
                "tempo": 120.0
            },
            {
                "start_time": 31.9772727,
                "end_time": 32.1068182,
                "pitch": 62,
                "velocity": 101,
                "duration": 0.1295455,
                "tempo": 120.0
            },
            {
                "start_time": 32.1068182,
                "end_time": 32.2068182,
                "pitch": 60,
                "velocity": 101,
                "duration": 0.1,
                "tempo": 120.0
            },
            {
                "start_time": 32.2068182,
                "end_time": 32.3068182,
                "pitch": 60,
                "velocity": 101,
                "duration": 0.1,
                "tempo": 120.0
            },
            {
                "start_time": 32.3068182,
                "end_time": 32.4090909,
                "pitch": 74,
                "velocity": 101,
                "duration": 0.1022727,
                "tempo": 120.0
            },
            {
                "start_time": 32.4090909,
                "end_time": 32.5136364,
                "pitch": 74,
                "velocity": 101,
                "duration": 0.1045455,
                "tempo": 120.0
            },
            {
                "start_time": 32.5136364,
                "end_time": 32.6568182,
                "pitch": 76,
                "velocity": 101,
                "duration": 0.1431818,
                "tempo": 120.0
            },
            {
                "start_time": 32.6568182,
                "end_time": 32.7590909,
                "pitch": 76,
                "velocity": 101,
                "duration": 0.1022727,
                "tempo": 120.0
            },
            {
                "start_time": 32.7590909,
                "end_time": 32.8590909,
                "pitch": 77,
                "velocity": 101,
                "duration": 0.1,
                "tempo": 120.0
            },
            {
                "start_time": 32.8590909,
                "end_time": 32.9590909,
                "pitch": 77,
                "velocity": 101,
                "duration": 0.1,
                "tempo": 120.0
            },
            {
                "start_time": 32.9590909,
                "end_time": 33.0590909,
                "pitch": 74,
                "velocity": 101,
                "duration": 0.1,
                "tempo": 120.0
            },
            {
                "start_time": 33.0590909,
                "end_time": 33.1909091,
                "pitch": 74,
                "velocity": 101,
                "duration": 0.1318182,
                "tempo": 120.0
            },
            {
                "start_time": 33.1909091,
                "end_time": 33.2909091,
                "pitch": 81,
                "velocity": 101,
                "duration": 0.1,
                "tempo": 120.0
            },
            {
                "start_time": 33.2909091,
                "end_time": 33.3909091,
                "pitch": 81,
                "velocity": 101,
                "duration": 0.1,
                "tempo": 120.0
            },
            {
                "start_time": 33.3909091,
                "end_time": 33.4909091,
                "pitch": 79,
                "velocity": 101,
                "duration": 0.1,
                "tempo": 120.0
            },
            {
                "start_time": 33.4909091,
                "end_time": 33.5931818,
                "pitch": 79,
                "velocity": 101,
                "duration": 0.1022727,
                "tempo": 120.0
            },
            {
                "start_time": 33.5931818,
                "end_time": 33.7136364,
                "pitch": 77,
                "velocity": 101,
                "duration": 0.1204545,
                "tempo": 120.0
            },
            {
                "start_time": 33.7136364,
                "end_time": 33.8068182,
                "pitch": 77,
                "velocity": 101,
                "duration": 0.0931818,
                "tempo": 120.0
            },
            {
                "start_time": 33.8068182,
                "end_time": 33.9,
                "pitch": 76,
                "velocity": 101,
                "duration": 0.0931818,
                "tempo": 120.0
            },
            {
                "start_time": 33.9,
                "end_time": 33.9931818,
                "pitch": 76,
                "velocity": 101,
                "duration": 0.0931818,
                "tempo": 120.0
            },
            {
                "start_time": 33.9931818,
                "end_time": 34.0931818,
                "pitch": 74,
                "velocity": 101,
                "duration": 0.1,
                "tempo": 120.0
            },
            {
                "start_time": 34.0931818,
                "end_time": 34.2386364,
                "pitch": 74,
                "velocity": 101,
                "duration": 0.1454545,
                "tempo": 120.0
            },
            {
                "start_time": 34.2386364,
                "end_time": 34.3409091,
                "pitch": 76,
                "velocity": 101,
                "duration": 0.1022727,
                "tempo": 120.0
            },
            {
                "start_time": 34.3409091,
                "end_time": 34.4431818,
                "pitch": 76,
                "velocity": 101,
                "duration": 0.1022727,
                "tempo": 120.0
            },
            {
                "start_time": 34.4431818,
                "end_time": 34.5431818,
                "pitch": 77,
                "velocity": 101,
                "duration": 0.1,
                "tempo": 120.0
            },
            {
                "start_time": 34.5431818,
                "end_time": 34.6431818,
                "pitch": 77,
                "velocity": 101,
                "duration": 0.1,
                "tempo": 120.0
            },
            {
                "start_time": 34.6431818,
                "end_time": 34.775,
                "pitch": 74,
                "velocity": 101,
                "duration": 0.1318182,
                "tempo": 120.0
            },
            {
                "start_time": 34.775,
                "end_time": 34.875,
                "pitch": 74,
                "velocity": 101,
                "duration": 0.1,
                "tempo": 120.0
            },
            {
                "start_time": 34.875,
                "end_time": 34.975,
                "pitch": 79,
                "velocity": 101,
                "duration": 0.1,
                "tempo": 120.0
            },
            {
                "start_time": 34.975,
                "end_time": 35.075,
                "pitch": 79,
                "velocity": 101,
                "duration": 0.1,
                "tempo": 120.0
            },
            {
                "start_time": 35.075,
                "end_time": 35.175,
                "pitch": 77,
                "velocity": 101,
                "duration": 0.1,
                "tempo": 120.0
            },
            {
                "start_time": 35.175,
                "end_time": 35.3068182,
                "pitch": 77,
                "velocity": 101,
                "duration": 0.1318182,
                "tempo": 120.0
            },
            {
                "start_time": 35.3068182,
                "end_time": 35.4068182,
                "pitch": 76,
                "velocity": 101,
                "duration": 0.1,
                "tempo": 120.0
            },
            {
                "start_time": 35.4068182,
                "end_time": 35.5068182,
                "pitch": 76,
                "velocity": 101,
                "duration": 0.1,
                "tempo": 120.0
            },
            {
                "start_time": 35.5068182,
                "end_time": 35.6068182,
                "pitch": 77,
                "velocity": 101,
                "duration": 0.1,
                "tempo": 120.0
            },
            {
                "start_time": 35.6068182,
                "end_time": 35.7068182,
                "pitch": 77,
                "velocity": 101,
                "duration": 0.1,
                "tempo": 120.0
            },
            {
                "start_time": 35.7068182,
                "end_time": 35.8431818,
                "pitch": 72,
                "velocity": 101,
                "duration": 0.1363636,
                "tempo": 120.0
            },
            {
                "start_time": 35.8431818,
                "end_time": 35.9386364,
                "pitch": 72,
                "velocity": 101,
                "duration": 0.0954545,
                "tempo": 120.0
            },
            {
                "start_time": 35.9386364,
                "end_time": 36.0340909,
                "pitch": 74,
                "velocity": 101,
                "duration": 0.0954545,
                "tempo": 120.0
            },
            {
                "start_time": 36.0340909,
                "end_time": 36.1295455,
                "pitch": 74,
                "velocity": 101,
                "duration": 0.0954545,
                "tempo": 120.0
            },
            {
                "start_time": 36.1295455,
                "end_time": 36.2295455,
                "pitch": 76,
                "velocity": 101,
                "duration": 0.1,
                "tempo": 120.0
            },
            {
                "start_time": 36.2295455,
                "end_time": 36.3590909,
                "pitch": 76,
                "velocity": 101,
                "duration": 0.1295455,
                "tempo": 120.0
            },
            {
                "start_time": 36.3590909,
                "end_time": 36.4613636,
                "pitch": 72,
                "velocity": 101,
                "duration": 0.1022727,
                "tempo": 120.0
            },
            {
                "start_time": 36.4613636,
                "end_time": 36.5613636,
                "pitch": 72,
                "velocity": 101,
                "duration": 0.1,
                "tempo": 120.0
            },
            {
                "start_time": 36.5613636,
                "end_time": 36.6613636,
                "pitch": 77,
                "velocity": 101,
                "duration": 0.1,
                "tempo": 120.0
            },
            {
                "start_time": 36.6613636,
                "end_time": 36.7613636,
                "pitch": 77,
                "velocity": 101,
                "duration": 0.1,
                "tempo": 120.0
            },
            {
                "start_time": 36.7613636,
                "end_time": 36.8931818,
                "pitch": 76,
                "velocity": 101,
                "duration": 0.1318182,
                "tempo": 120.0
            },
            {
                "start_time": 36.8931818,
                "end_time": 36.9931818,
                "pitch": 76,
                "velocity": 101,
                "duration": 0.1,
                "tempo": 120.0
            },
            {
                "start_time": 36.9931818,
                "end_time": 37.0931818,
                "pitch": 74,
                "velocity": 101,
                "duration": 0.1,
                "tempo": 120.0
            },
            {
                "start_time": 37.0931818,
                "end_time": 37.1931818,
                "pitch": 74,
                "velocity": 101,
                "duration": 0.1,
                "tempo": 120.0
            },
            {
                "start_time": 37.1931818,
                "end_time": 37.2931818,
                "pitch": 72,
                "velocity": 101,
                "duration": 0.1,
                "tempo": 120.0
            },
            {
                "start_time": 37.2931818,
                "end_time": 37.4340909,
                "pitch": 72,
                "velocity": 101,
                "duration": 0.1409091,
                "tempo": 120.0
            },
            {
                "start_time": 37.4340909,
                "end_time": 37.5363636,
                "pitch": 74,
                "velocity": 101,
                "duration": 0.1022727,
                "tempo": 120.0
            },
            {
                "start_time": 37.5363636,
                "end_time": 37.6386364,
                "pitch": 74,
                "velocity": 101,
                "duration": 0.1022727,
                "tempo": 120.0
            },
            {
                "start_time": 37.6386364,
                "end_time": 37.7431818,
                "pitch": 76,
                "velocity": 101,
                "duration": 0.1045455,
                "tempo": 120.0
            },
            {
                "start_time": 37.7431818,
                "end_time": 37.8454545,
                "pitch": 76,
                "velocity": 101,
                "duration": 0.1022727,
                "tempo": 120.0
            },
            {
                "start_time": 37.8454545,
                "end_time": 37.9659091,
                "pitch": 77,
                "velocity": 101,
                "duration": 0.1204545,
                "tempo": 120.0
            },
            {
                "start_time": 37.9659091,
                "end_time": 38.0590909,
                "pitch": 77,
                "velocity": 101,
                "duration": 0.0931818,
                "tempo": 120.0
            },
            {
                "start_time": 38.0590909,
                "end_time": 38.1522727,
                "pitch": 74,
                "velocity": 101,
                "duration": 0.0931818,
                "tempo": 120.0
            },
            {
                "start_time": 38.1522727,
                "end_time": 38.2454545,
                "pitch": 74,
                "velocity": 101,
                "duration": 0.0931818,
                "tempo": 120.0
            },
            {
                "start_time": 38.2454545,
                "end_time": 38.3454545,
                "pitch": 79,
                "velocity": 101,
                "duration": 0.1,
                "tempo": 120.0
            },
            {
                "start_time": 38.3454545,
                "end_time": 38.475,
                "pitch": 79,
                "velocity": 101,
                "duration": 0.1295455,
                "tempo": 120.0
            },
            {
                "start_time": 38.475,
                "end_time": 38.575,
                "pitch": 77,
                "velocity": 101,
                "duration": 0.1,
                "tempo": 120.0
            },
            {
                "start_time": 38.575,
                "end_time": 38.6772727,
                "pitch": 77,
                "velocity": 101,
                "duration": 0.1022727,
                "tempo": 120.0
            },
            {
                "start_time": 38.6772727,
                "end_time": 38.7795455,
                "pitch": 76,
                "velocity": 101,
                "duration": 0.1022727,
                "tempo": 120.0
            },
            {
                "start_time": 38.7795455,
                "end_time": 38.8818182,
                "pitch": 76,
                "velocity": 101,
                "duration": 0.1022727,
                "tempo": 120.0
            },
            {
                "start_time": 38.8818182,
                "end_time": 39.025,
                "pitch": 74,
                "velocity": 101,
                "duration": 0.1431818,
                "tempo": 120.0
            },
            {
                "start_time": 39.025,
                "end_time": 39.1272727,
                "pitch": 74,
                "velocity": 101,
                "duration": 0.1022727,
                "tempo": 120.0
            },
            {
                "start_time": 39.1272727,
                "end_time": 39.2272727,
                "pitch": 76,
                "velocity": 101,
                "duration": 0.1,
                "tempo": 120.0
            },
            {
                "start_time": 39.2272727,
                "end_time": 39.3295455,
                "pitch": 76,
                "velocity": 101,
                "duration": 0.1022727,
                "tempo": 120.0
            },
            {
                "start_time": 39.3295455,
                "end_time": 39.4295455,
                "pitch": 77,
                "velocity": 101,
                "duration": 0.1,
                "tempo": 120.0
            },
            {
                "start_time": 39.4295455,
                "end_time": 39.5590909,
                "pitch": 77,
                "velocity": 101,
                "duration": 0.1295455,
                "tempo": 120.0
            },
            {
                "start_time": 39.5590909,
                "end_time": 39.6590909,
                "pitch": 79,
                "velocity": 101,
                "duration": 0.1,
                "tempo": 120.0
            },
            {
                "start_time": 39.6590909,
                "end_time": 39.7613636,
                "pitch": 79,
                "velocity": 101,
                "duration": 0.1022727,
                "tempo": 120.0
            },
            {
                "start_time": 39.7613636,
                "end_time": 39.8613636,
                "pitch": 76,
                "velocity": 101,
                "duration": 0.1,
                "tempo": 120.0
            },
            {
                "start_time": 39.8613636,
                "end_time": 39.9613636,
                "pitch": 76,
                "velocity": 101,
                "duration": 0.1,
                "tempo": 120.0
            },
            {
                "start_time": 39.9613636,
                "end_time": 40.0818182,
                "pitch": 81,
                "velocity": 101,
                "duration": 0.1204545,
                "tempo": 120.0
            },
            {
                "start_time": 40.0818182,
                "end_time": 40.175,
                "pitch": 81,
                "velocity": 101,
                "duration": 0.0931818,
                "tempo": 120.0
            },
            {
                "start_time": 40.175,
                "end_time": 40.2681818,
                "pitch": 79,
                "velocity": 101,
                "duration": 0.0931818,
                "tempo": 120.0
            },
            {
                "start_time": 40.2681818,
                "end_time": 40.3613636,
                "pitch": 79,
                "velocity": 101,
                "duration": 0.0931818,
                "tempo": 120.0
            },
            {
                "start_time": 40.3613636,
                "end_time": 40.4613636,
                "pitch": 77,
                "velocity": 101,
                "duration": 0.1,
                "tempo": 120.0
            },
            {
                "start_time": 40.4613636,
                "end_time": 40.6022727,
                "pitch": 77,
                "velocity": 101,
                "duration": 0.1409091,
                "tempo": 120.0
            },
            {
                "start_time": 40.6022727,
                "end_time": 40.7022727,
                "pitch": 76,
                "velocity": 101,
                "duration": 0.1,
                "tempo": 120.0
            },
            {
                "start_time": 40.7022727,
                "end_time": 40.8022727,
                "pitch": 76,
                "velocity": 101,
                "duration": 0.1,
                "tempo": 120.0
            },
            {
                "start_time": 40.8022727,
                "end_time": 40.9045455,
                "pitch": 81,
                "velocity": 101,
                "duration": 0.1022727,
                "tempo": 120.0
            },
            {
                "start_time": 40.9045455,
                "end_time": 41.0090909,
                "pitch": 81,
                "velocity": 101,
                "duration": 0.1045455,
                "tempo": 120.0
            },
            {
                "start_time": 41.0090909,
                "end_time": 41.1409091,
                "pitch": 77,
                "velocity": 101,
                "duration": 0.1318182,
                "tempo": 120.0
            },
            {
                "start_time": 41.1409091,
                "end_time": 41.2431818,
                "pitch": 77,
                "velocity": 101,
                "duration": 0.1022727,
                "tempo": 120.0
            }
        ]
    }
}