{
    "mood": "happy",
    "instruments": {
        "Trumpet": [
            {
                "start_time": 0.0977273,
                "end_time": 0.175,
                "pitch": 76,
                "velocity": 80,
                "duration": 0.0772727,
                "tempo": 120.0
            },
            {
                "start_time": 0.2909091,
                "end_time": 0.3659091,
                "pitch": 76,
                "velocity": 80,
                "duration": 0.075,
                "tempo": 120.0
            },
            {
                "start_time": 0.3840909,
                "end_time": 0.7795455,
                "pitch": 74,
                "velocity": 80,
                "duration": 0.3954545,
                "tempo": 120.0
            },
            {
                "start_time": 0.8159091,
                "end_time": 1.4840909,
                "pitch": 71,
                "velocity": 80,
                "duration": 0.6681818,
                "tempo": 120.0
            },
            {
                "start_time": 1.5204545,
                "end_time": 1.7863636,
                "pitch": 69,
                "velocity": 80,
                "duration": 0.2659091,
                "tempo": 120.0
            },
            {
                "start_time": 1.8227273,
                "end_time": 2.0886364,
                "pitch": 69,
                "velocity": 80,
                "duration": 0.2659091,
                "tempo": 120.0
            },
            {
                "start_time": 2.125,
                "end_time": 2.4931818,
                "pitch": 69,
                "velocity": 80,
                "duration": 0.3681818,
                "tempo": 120.0
            },
            {
                "start_time": 2.5272727,
                "end_time": 5.6454545,
                "pitch": 67,
                "velocity": 80,
                "duration": 3.1181818,
                "tempo": 120.0
            }
        ],
        "Acoustic Bass": [
            {
                "start_time": 0.0045455,
                "end_time": 0.0795455,
                "pitch": 43,
                "velocity": 127,
                "duration": 0.075,
                "tempo": 120.0
            },
            {
                "start_time": 0.1931818,
                "end_time": 0.2704545,
                "pitch": 43,
                "velocity": 127,
                "duration": 0.0772727,
                "tempo": 120.0
            },
            {
                "start_time": 0.2886364,
                "end_time": 0.6045455,
                "pitch": 38,
                "velocity": 127,
                "duration": 0.3159091,
                "tempo": 120.0
            },
            {
                "start_time": 0.6227273,
                "end_time": 1.2818182,
                "pitch": 38,
                "velocity": 127,
                "duration": 0.6590909,
                "tempo": 120.0
            },
            {
                "start_time": 1.3181818,
                "end_time": 1.5840909,
                "pitch": 36,
                "velocity": 127,
                "duration": 0.2659091,
                "tempo": 120.0
            },
            {
                "start_time": 1.6204545,
                "end_time": 1.8863636,
                "pitch": 36,
                "velocity": 127,
                "duration": 0.2659091,
                "tempo": 120.0
            },
            {
                "start_time": 1.9227273,
                "end_time": 2.2909091,
                "pitch": 36,
                "velocity": 127,
                "duration": 0.3681818,
                "tempo": 120.0
            },
            {
                "start_time": 2.3272727,
                "end_time": 5.45,
                "pitch": 36,
                "velocity": 127,
                "duration": 3.1227273,
                "tempo": 120.0
            }
        ],
        "French Horn": [
            {
                "start_time": 0.0977273,
                "end_time": 0.175,
                "pitch": 72,
                "velocity": 40,
                "duration": 0.0772727,
                "tempo": 120.0
            },
            {
                "start_time": 0.2909091,
                "end_time": 0.3659091,
                "pitch": 72,
                "velocity": 40,
                "duration": 0.075,
                "tempo": 120.0
            },
            {
                "start_time": 0.3840909,
                "end_time": 0.7795455,
                "pitch": 71,
                "velocity": 40,
                "duration": 0.3954545,
                "tempo": 120.0
            },
            {
                "start_time": 0.8181818,
                "end_time": 1.4863636,
                "pitch": 67,
                "velocity": 40,
                "duration": 0.6681818,
                "tempo": 120.0
            },
            {
                "start_time": 1.5204545,
                "end_time": 1.7886364,
                "pitch": 65,
                "velocity": 40,
                "duration": 0.2681818,
                "tempo": 120.0
            },
            {
                "start_time": 1.8227273,
                "end_time": 2.0909091,
                "pitch": 65,
                "velocity": 40,
                "duration": 0.2681818,
                "tempo": 120.0
            },
            {
                "start_time": 2.1272727,
                "end_time": 2.4931818,
                "pitch": 65,
                "velocity": 40,
                "duration": 0.3659091,
                "tempo": 120.0
            },
            {
                "start_time": 2.5295455,
                "end_time": 5.6454545,
                "pitch": 64,
                "velocity": 40,
                "duration": 3.1159091,
                "tempo": 120.0
            }
        ]
    }
}