{
    "mood": "happy",
    "instruments": {
        "Trumpet": [
            {
                "start_time": 0.0022727,
                "end_time": 0.3113636,
                "pitch": 78,
                "velocity": 4,
                "duration": 0.3090909,
                "tempo": 120.0
            },
            {
                "start_time": 0.3113636,
                "end_time": 0.3772727,
                "pitch": 79,
                "velocity": 4,
                "duration": 0.0659091,
                "tempo": 120.0
            },
            {
                "start_time": 0.3772727,
                "end_time": 0.4613636,
                "pitch": 79,
                "velocity": 4,
                "duration": 0.0840909,
                "tempo": 120.0
            },
            {
                "start_time": 0.3772727,
                "end_time": 0.4613636,
                "pitch": 91,
                "velocity": 4,
                "duration": 0.0840909,
                "tempo": 120.0
            },
            {
                "start_time": 0.4613636,
                "end_time": 0.7636364,
                "pitch": 81,
                "velocity": 4,
                "duration": 0.3022727,
                "tempo": 120.0
            },
            {
                "start_time": 0.7636364,
                "end_time": 1.0772727,
                "pitch": 86,
                "velocity": 4,
                "duration": 0.3136364,
                "tempo": 120.0
            },
            {
                "start_time": 1.0772727,
                "end_time": 1.2340909,
                "pitch": 86,
                "velocity": 4,
                "duration": 0.1568182,
                "tempo": 120.0
            },
            {
                "start_time": 1.2340909,
                "end_time": 1.3840909,
                "pitch": 85,
                "velocity": 4,
                "duration": 0.15,
                "tempo": 120.0
            },
            {
                "start_time": 1.3840909,
                "end_time": 1.6818182,
                "pitch": 83,
                "velocity": 4,
                "duration": 0.2977273,
                "tempo": 120.0
            },
            {
                "start_time": 1.3840909,
                "end_time": 1.8295455,
                "pitch": 85,
                "velocity": 4,
                "duration": 0.4454545,
                "tempo": 120.0
            },
            {
                "start_time": 1.6818182,
                "end_time": 1.8295455,
                "pitch": 85,
                "velocity": 4,
                "duration": 0.1477273,
                "tempo": 120.0
            },
            {
                "start_time": 1.6818182,
                "end_time": 2.1340909,
                "pitch": 83,
                "velocity": 4,
                "duration": 0.4522727,
                "tempo": 120.0
            },
            {
                "start_time": 1.8295455,
                "end_time": 2.1340909,
                "pitch": 83,
                "velocity": 4,
                "duration": 0.3045455,
                "tempo": 120.0
            },
            {
                "start_time": 1.8295455,
                "end_time": 2.2840909,
                "pitch": 85,
                "velocity": 4,
                "duration": 0.4545455,
                "tempo": 120.0
            },
            {
                "start_time": 2.1340909,
                "end_time": 2.2840909,
                "pitch": 85,
                "velocity": 4,
                "duration": 0.15,
                "tempo": 120.0
            },
            {
                "start_time": 2.1340909,
                "end_time": 2.4363636,
                "pitch": 83,
                "velocity": 4,
                "duration": 0.3022727,
                "tempo": 120.0
            },
            {
                "start_time": 2.2840909,
                "end_time": 2.4363636,
                "pitch": 83,
                "velocity": 4,
                "duration": 0.1522727,
                "tempo": 120.0
            },
            {
                "start_time": 2.4363636,
                "end_time": 2.5886364,
                "pitch": 83,
                "velocity": 4,
                "duration": 0.1522727,
                "tempo": 120.0
            },
            {
                "start_time": 0.7636364,
                "end_time": 2.7386364,
                "pitch": 81,
                "velocity": 4,
                "duration": 1.975,
                "tempo": 120.0
            },
            {
                "start_time": 2.5886364,
                "end_time": 2.7386364,
                "pitch": 81,
                "velocity": 4,
                "duration": 0.15,
                "tempo": 120.0
            },
            {
                "start_time": 2.5886364,
                "end_time": 2.8909091,
                "pitch": 83,
                "velocity": 4,
                "duration": 0.3022727,
                "tempo": 120.0
            },
            {
                "start_time": 2.7386364,
                "end_time": 2.8909091,
                "pitch": 83,
                "velocity": 4,
                "duration": 0.1522727,
                "tempo": 120.0
            },
            {
                "start_time": 2.7386364,
                "end_time": 3.0431818,
                "pitch": 81,
                "velocity": 4,
                "duration": 0.3045455,
                "tempo": 120.0
            },
            {
                "start_time": 2.8909091,
                "end_time": 3.0431818,
                "pitch": 81,
                "velocity": 4,
                "duration": 0.1522727,
                "tempo": 120.0
            },
            {
                "start_time": 3.0431818,
                "end_time": 3.1068182,
                "pitch": 79,
                "velocity": 4,
                "duration": 0.0636364,
                "tempo": 120.0
            },
            {
                "start_time": 0.4613636,
                "end_time": 3.1068182,
                "pitch": 91,
                "velocity": 4,
                "duration": 2.6454545,
                "tempo": 120.0
            },
            {
                "start_time": 3.1068182,
                "end_time": 3.1909091,
                "pitch": 79,
                "velocity": 4,
                "duration": 0.0840909,
                "tempo": 120.0
            },
            {
                "start_time": 3.1909091,
                "end_time": 3.3386364,
                "pitch": 79,
                "velocity": 4,
                "duration": 0.1477273,
                "tempo": 120.0
            },
            {
                "start_time": 3.3409091,
                "end_time": 3.4886364,
                "pitch": 71,
                "velocity": 4,
                "duration": 0.1477273,
                "tempo": 120.0
            },
            {
                "start_time": 3.4886364,
                "end_time": 3.6386364,
                "pitch": 73,
                "velocity": 4,
                "duration": 0.15,
                "tempo": 120.0
            },
            {
                "start_time": 3.3409091,
                "end_time": 3.7909091,
                "pitch": 78,
                "velocity": 4,
                "duration": 0.45,
                "tempo": 120.0
            },
            {
                "start_time": 3.6386364,
                "end_time": 3.7909091,
                "pitch": 78,
                "velocity": 4,
                "duration": 0.1522727,
                "tempo": 120.0
            }
        ],
        "Vibraphone": [
            {
                "start_time": 0.0022727,
                "end_time": 0.3113636,
                "pitch": 66,
                "velocity": 4,
                "duration": 0.3090909,
                "tempo": 120.0
            },
            {
                "start_time": 0.3113636,
                "end_time": 0.3772727,
                "pitch": 67,
                "velocity": 4,
                "duration": 0.0659091,
                "tempo": 120.0
            },
            {
                "start_time": 0.3772727,
                "end_time": 0.4613636,
                "pitch": 67,
                "velocity": 4,
                "duration": 0.0840909,
                "tempo": 120.0
            },
            {
                "start_time": 0.3772727,
                "end_time": 0.4613636,
                "pitch": 79,
                "velocity": 4,
                "duration": 0.0840909,
                "tempo": 120.0
            },
            {
                "start_time": 0.4613636,
                "end_time": 0.7636364,
                "pitch": 69,
                "velocity": 4,
                "duration": 0.3022727,
                "tempo": 120.0
            },
            {
                "start_time": 0.7636364,
                "end_time": 0.7659091,
                "pitch": 69,
                "velocity": 4,
                "duration": 0.0022727,
                "tempo": 120.0
            },
            {
                "start_time": 0.7659091,
                "end_time": 1.0772727,
                "pitch": 74,
                "velocity": 4,
                "duration": 0.3113636,
                "tempo": 120.0
            },
            {
                "start_time": 1.0772727,
                "end_time": 1.2340909,
                "pitch": 74,
                "velocity": 4,
                "duration": 0.1568182,
                "tempo": 120.0
            },
            {
                "start_time": 1.2340909,
                "end_time": 1.3840909,
                "pitch": 73,
                "velocity": 4,
                "duration": 0.15,
                "tempo": 120.0
            },
            {
                "start_time": 1.3840909,
                "end_time": 1.6818182,
                "pitch": 71,
                "velocity": 4,
                "duration": 0.2977273,
                "tempo": 120.0
            },
            {
                "start_time": 1.3840909,
                "end_time": 1.8295455,
                "pitch": 73,
                "velocity": 4,
                "duration": 0.4454545,
                "tempo": 120.0
            },
            {
                "start_time": 1.6818182,
                "end_time": 1.8295455,
                "pitch": 73,
                "velocity": 4,
                "duration": 0.1477273,
                "tempo": 120.0
            },
            {
                "start_time": 1.6818182,
                "end_time": 2.1340909,
                "pitch": 71,
                "velocity": 4,
                "duration": 0.4522727,
                "tempo": 120.0
            },
            {
                "start_time": 1.8295455,
                "end_time": 2.1340909,
                "pitch": 71,
                "velocity": 4,
                "duration": 0.3045455,
                "tempo": 120.0
            },
            {
                "start_time": 1.8295455,
                "end_time": 2.2840909,
                "pitch": 73,
                "velocity": 4,
                "duration": 0.4545455,
                "tempo": 120.0
            },
            {
                "start_time": 2.1340909,
                "end_time": 2.2840909,
                "pitch": 73,
                "velocity": 4,
                "duration": 0.15,
                "tempo": 120.0
            },
            {
                "start_time": 2.1340909,
                "end_time": 2.4363636,
                "pitch": 71,
                "velocity": 4,
                "duration": 0.3022727,
                "tempo": 120.0
            },
            {
                "start_time": 2.2840909,
                "end_time": 2.4363636,
                "pitch": 71,
                "velocity": 4,
                "duration": 0.1522727,
                "tempo": 120.0
            },
            {
                "start_time": 2.4363636,
                "end_time": 2.5886364,
                "pitch": 71,
                "velocity": 4,
                "duration": 0.1522727,
                "tempo": 120.0
            },
            {
                "start_time": 2.5886364,
                "end_time": 2.6045455,
                "pitch": 71,
                "velocity": 4,
                "duration": 0.0159091,
                "tempo": 120.0
            },
            {
                "start_time": 2.6045455,
                "end_time": 2.7386364,
                "pitch": 69,
                "velocity": 4,
                "duration": 0.1340909,
                "tempo": 120.0
            },
            {
                "start_time": 2.7386364,
                "end_time": 2.8068182,
                "pitch": 69,
                "velocity": 4,
                "duration": 0.0681818,
                "tempo": 120.0
            },
            {
                "start_time": 2.8068182,
                "end_time": 2.8909091,
                "pitch": 71,
                "velocity": 4,
                "duration": 0.0840909,
                "tempo": 120.0
            },
            {
                "start_time": 2.8909091,
                "end_time": 2.9068182,
                "pitch": 71,
                "velocity": 4,
                "duration": 0.0159091,
                "tempo": 120.0
            },
            {
                "start_time": 2.9068182,
                "end_time": 3.0431818,
                "pitch": 69,
                "velocity": 4,
                "duration": 0.1363636,
                "tempo": 120.0
            },
            {
                "start_time": 3.0431818,
                "end_time": 3.1068182,
                "pitch": 67,
                "velocity": 4,
                "duration": 0.0636364,
                "tempo": 120.0
            },
            {
                "start_time": 0.4613636,
                "end_time": 3.1068182,
                "pitch": 79,
                "velocity": 4,
                "duration": 2.6454545,
                "tempo": 120.0
            },
            {
                "start_time": 3.1068182,
                "end_time": 3.1909091,
                "pitch": 67,
                "velocity": 4,
                "duration": 0.0840909,
                "tempo": 120.0
            },
            {
                "start_time": 3.1909091,
                "end_time": 3.3409091,
                "pitch": 67,
                "velocity": 4,
                "duration": 0.15,
                "tempo": 120.0
            },
            {
                "start_time": 3.3409091,
                "end_time": 3.4886364,
                "pitch": 59,
                "velocity": 4,
                "duration": 0.1477273,
                "tempo": 120.0
            },
            {
                "start_time": 3.4886364,
                "end_time": 3.6386364,
                "pitch": 61,
                "velocity": 4,
                "duration": 0.15,
                "tempo": 120.0
            },
            {
                "start_time": 3.3409091,
                "end_time": 3.7909091,
                "pitch": 66,
                "velocity": 4,
                "duration": 0.45,
                "tempo": 120.0
            },
            {
                "start_time": 3.6386364,
                "end_time": 3.7909091,
                "pitch": 66,
                "velocity": 4,
                "duration": 0.1522727,
                "tempo": 120.0
            }
        ]
    }
}