{
    "mood": "happy",
    "instruments": {
        "Acoustic Grand Piano": [
            {
                "start_time": 3.1818182,
                "end_time": 3.25,
                "pitch": 71,
                "velocity": 64,
                "duration": 0.0681818,
                "tempo": 120.0
            },
            {
                "start_time": 3.275,
                "end_time": 3.3772727,
                "pitch": 71,
                "velocity": 4,
                "duration": 0.1022727,
                "tempo": 120.0
            },
            {
                "start_time": 3.3772727,
                "end_time": 3.4613636,
                "pitch": 72,
                "velocity": 64,
                "duration": 0.0840909,
                "tempo": 120.0
            },
            {
                "start_time": 3.4863636,
                "end_time": 3.5795455,
                "pitch": 72,
                "velocity": 4,
                "duration": 0.0931818,
                "tempo": 120.0
            },
            {
                "start_time": 3.5818182,
                "end_time": 3.6545455,
                "pitch": 74,
                "velocity": 64,
                "duration": 0.0727273,
                "tempo": 120.0
            },
            {
                "start_time": 3.6795455,
                "end_time": 3.75,
                "pitch": 74,
                "velocity": 64,
                "duration": 0.0704545,
                "tempo": 120.0
            },
            {
                "start_time": 3.7727273,
                "end_time": 3.85,
                "pitch": 72,
                "velocity": 64,
                "duration": 0.0772727,
                "tempo": 120.0
            },
            {
                "start_time": 3.8681818,
                "end_time": 3.9727273,
                "pitch": 72,
                "velocity": 4,
                "duration": 0.1045455,
                "tempo": 120.0
            },
            {
                "start_time": 3.9727273,
                "end_time": 4.0477273,
                "pitch": 74,
                "velocity": 64,
                "duration": 0.075,
                "tempo": 120.0
            },
            {
                "start_time": 4.0681818,
                "end_time": 4.1704545,
                "pitch": 74,
                "velocity": 4,
                "duration": 0.1022727,
                "tempo": 120.0
            },
            {
                "start_time": 4.1704545,
                "end_time": 4.2386364,
                "pitch": 76,
                "velocity": 4,
                "duration": 0.0681818,
                "tempo": 120.0
            },
            {
                "start_time": 4.1704545,
                "end_time": 4.2386364,
                "pitch": 76,
                "velocity": 64,
                "duration": 0.0681818,
                "tempo": 120.0
            },
            {
                "start_time": 4.2613636,
                "end_time": 4.3295455,
                "pitch": 74,
                "velocity": 64,
                "duration": 0.0681818,
                "tempo": 120.0
            },
            {
                "start_time": 4.3477273,
                "end_time": 4.4409091,
                "pitch": 74,
                "velocity": 4,
                "duration": 0.0931818,
                "tempo": 120.0
            },
            {
                "start_time": 4.4409091,
                "end_time": 4.5090909,
                "pitch": 72,
                "velocity": 64,
                "duration": 0.0681818,
                "tempo": 120.0
            },
            {
                "start_time": 4.5272727,
                "end_time": 4.625,
                "pitch": 72,
                "velocity": 4,
                "duration": 0.0977273,
                "tempo": 120.0
            },
            {
                "start_time": 4.625,
                "end_time": 4.6977273,
                "pitch": 71,
                "velocity": 64,
                "duration": 0.0727273,
                "tempo": 120.0
            },
            {
                "start_time": 4.7159091,
                "end_time": 4.8136364,
                "pitch": 71,
                "velocity": 4,
                "duration": 0.0977273,
                "tempo": 120.0
            },
            {
                "start_time": 4.8136364,
                "end_time": 4.8863636,
                "pitch": 69,
                "velocity": 4,
                "duration": 0.0727273,
                "tempo": 120.0
            },
            {
                "start_time": 4.8136364,
                "end_time": 4.8863636,
                "pitch": 69,
                "velocity": 64,
                "duration": 0.0727273,
                "tempo": 120.0
            },
            {
                "start_time": 4.9090909,
                "end_time": 4.9795455,
                "pitch": 71,
                "velocity": 64,
                "duration": 0.0704545,
                "tempo": 120.0
            },
            {
                "start_time": 5.0,
                "end_time": 5.1,
                "pitch": 71,
                "velocity": 4,
                "duration": 0.1,
                "tempo": 120.0
            },
            {
                "start_time": 5.1,
                "end_time": 5.1681818,
                "pitch": 77,
                "velocity": 4,
                "duration": 0.0681818,
                "tempo": 120.0
            },
            {
                "start_time": 5.1022727,
                "end_time": 5.1681818,
                "pitch": 77,
                "velocity": 64,
                "duration": 0.0659091,
                "tempo": 120.0
            },
            {
                "start_time": 5.1863636,
                "end_time": 5.2886364,
                "pitch": 77,
                "velocity": 4,
                "duration": 0.1022727,
                "tempo": 120.0
            },
            {
                "start_time": 5.2886364,
                "end_time": 5.3590909,
                "pitch": 75,
                "velocity": 64,
                "duration": 0.0704545,
                "tempo": 120.0
            },
            {
                "start_time": 5.3772727,
                "end_time": 5.4795455,
                "pitch": 75,
                "velocity": 4,
                "duration": 0.1022727,
                "tempo": 120.0
            },
            {
                "start_time": 5.4795455,
                "end_time": 5.5522727,
                "pitch": 74,
                "velocity": 64,
                "duration": 0.0727273,
                "tempo": 120.0
            },
            {
                "start_time": 5.575,
                "end_time": 5.65,
                "pitch": 75,
                "velocity": 64,
                "duration": 0.075,
                "tempo": 120.0
            },
            {
                "start_time": 5.6681818,
                "end_time": 5.7636364,
                "pitch": 75,
                "velocity": 4,
                "duration": 0.0954545,
                "tempo": 120.0
            },
            {
                "start_time": 5.7659091,
                "end_time": 5.8363636,
                "pitch": 74,
                "velocity": 64,
                "duration": 0.0704545,
                "tempo": 120.0
            },
            {
                "start_time": 6.2409091,
                "end_time": 6.3090909,
                "pitch": 74,
                "velocity": 64,
                "duration": 0.0681818,
                "tempo": 120.0
            },
            {
                "start_time": 6.3340909,
                "end_time": 6.4363636,
                "pitch": 74,
                "velocity": 4,
                "duration": 0.1022727,
                "tempo": 120.0
            },
            {
                "start_time": 6.4363636,
                "end_time": 6.5204545,
                "pitch": 75,
                "velocity": 64,
                "duration": 0.0840909,
                "tempo": 120.0
            },
            {
                "start_time": 6.5454545,
                "end_time": 6.6409091,
                "pitch": 75,
                "velocity": 4,
                "duration": 0.0954545,
                "tempo": 120.0
            },
            {
                "start_time": 6.6409091,
                "end_time": 6.7136364,
                "pitch": 77,
                "velocity": 64,
                "duration": 0.0727273,
                "tempo": 120.0
            },
            {
                "start_time": 6.7363636,
                "end_time": 6.8090909,
                "pitch": 77,
                "velocity": 64,
                "duration": 0.0727273,
                "tempo": 120.0
            },
            {
                "start_time": 6.8318182,
                "end_time": 6.9068182,
                "pitch": 75,
                "velocity": 64,
                "duration": 0.075,
                "tempo": 120.0
            },
            {
                "start_time": 6.925,
                "end_time": 7.0272727,
                "pitch": 75,
                "velocity": 4,
                "duration": 0.1022727,
                "tempo": 120.0
            },
            {
                "start_time": 7.0272727,
                "end_time": 7.1,
                "pitch": 77,
                "velocity": 64,
                "duration": 0.0727273,
                "tempo": 120.0
            },
            {
                "start_time": 7.1181818,
                "end_time": 7.2204545,
                "pitch": 77,
                "velocity": 4,
                "duration": 0.1022727,
                "tempo": 120.0
            },
            {
                "start_time": 7.2204545,
                "end_time": 7.2931818,
                "pitch": 79,
                "velocity": 64,
                "duration": 0.0727273,
                "tempo": 120.0
            },
            {
                "start_time": 7.3159091,
                "end_time": 7.3886364,
                "pitch": 77,
                "velocity": 64,
                "duration": 0.0727273,
                "tempo": 120.0
            },
            {
                "start_time": 7.4068182,
                "end_time": 7.5045455,
                "pitch": 77,
                "velocity": 4,
                "duration": 0.0977273,
                "tempo": 120.0
            },
            {
                "start_time": 7.5045455,
                "end_time": 7.5772727,
                "pitch": 75,
                "velocity": 64,
                "duration": 0.0727273,
                "tempo": 120.0
            },
            {
                "start_time": 7.5954545,
                "end_time": 7.6909091,
                "pitch": 75,
                "velocity": 4,
                "duration": 0.0954545,
                "tempo": 120.0
            },
            {
                "start_time": 7.6931818,
                "end_time": 7.7613636,
                "pitch": 74,
                "velocity": 64,
                "duration": 0.0681818,
                "tempo": 120.0
            },
            {
                "start_time": 7.7795455,
                "end_time": 7.8772727,
                "pitch": 74,
                "velocity": 4,
                "duration": 0.0977273,
                "tempo": 120.0
            },
            {
                "start_time": 7.8772727,
                "end_time": 7.9477273,
                "pitch": 72,
                "velocity": 64,
                "duration": 0.0704545,
                "tempo": 120.0
            },
            {
                "start_time": 7.9681818,
                "end_time": 8.1477273,
                "pitch": 74,
                "velocity": 64,
                "duration": 0.1795455,
                "tempo": 120.0
            },
            {
                "start_time": 8.1659091,
                "end_time": 8.275,
                "pitch": 74,
                "velocity": 4,
                "duration": 0.1090909,
                "tempo": 120.0
            },
            {
                "start_time": 7.2204545,
                "end_time": 8.3795455,
                "pitch": 67,
                "velocity": 4,
                "duration": 1.1590909,
                "tempo": 120.0
            },
            {
                "start_time": 8.2772727,
                "end_time": 8.3795455,
                "pitch": 74,
                "velocity": 4,
                "duration": 0.1022727,
                "tempo": 120.0
            },
            {
                "start_time": 8.3795455,
                "end_time": 8.4522727,
                "pitch": 79,
                "velocity": 64,
                "duration": 0.0727273,
                "tempo": 120.0
            },
            {
                "start_time": 8.4840909,
                "end_time": 8.5840909,
                "pitch": 77,
                "velocity": 64,
                "duration": 0.1,
                "tempo": 120.0
            },
            {
                "start_time": 8.6204545,
                "end_time": 8.7181818,
                "pitch": 74,
                "velocity": 64,
                "duration": 0.0977273,
                "tempo": 120.0
            },
            {
                "start_time": 8.7545455,
                "end_time": 8.8545455,
                "pitch": 73,
                "velocity": 64,
                "duration": 0.1,
                "tempo": 120.0
            },
            {
                "start_time": 8.8909091,
                "end_time": 8.9886364,
                "pitch": 72,
                "velocity": 64,
                "duration": 0.0977273,
                "tempo": 120.0
            },
            {
                "start_time": 9.025,
                "end_time": 9.1204545,
                "pitch": 70,
                "velocity": 64,
                "duration": 0.0954545,
                "tempo": 120.0
            },
            {
                "start_time": 8.3795455,
                "end_time": 9.3431818,
                "pitch": 67,
                "velocity": 4,
                "duration": 0.9636364,
                "tempo": 120.0
            },
            {
                "start_time": 9.1477273,
                "end_time": 9.3431818,
                "pitch": 67,
                "velocity": 64,
                "duration": 0.1954545,
                "tempo": 120.0
            },
            {
                "start_time": 9.375,
                "end_time": 9.4545455,
                "pitch": 65,
                "velocity": 64,
                "duration": 0.0795455,
                "tempo": 120.0
            },
            {
                "start_time": 9.4818182,
                "end_time": 9.6818182,
                "pitch": 67,
                "velocity": 64,
                "duration": 0.2,
                "tempo": 120.0
            },
            {
                "start_time": 9.7159091,
                "end_time": 9.8,
                "pitch": 60,
                "velocity": 64,
                "duration": 0.0840909,
                "tempo": 120.0
            },
            {
                "start_time": 9.8363636,
                "end_time": 9.9386364,
                "pitch": 62,
                "velocity": 64,
                "duration": 0.1022727,
                "tempo": 120.0
            },
            {
                "start_time": 9.975,
                "end_time": 10.075,
                "pitch": 65,
                "velocity": 64,
                "duration": 0.1,
                "tempo": 120.0
            },
            {
                "start_time": 10.1113636,
                "end_time": 10.2068182,
                "pitch": 65,
                "velocity": 64,
                "duration": 0.0954545,
                "tempo": 120.0
            },
            {
                "start_time": 10.2386364,
                "end_time": 10.3136364,
                "pitch": 67,
                "velocity": 64,
                "duration": 0.075,
                "tempo": 120.0
            },
            {
                "start_time": 10.3477273,
                "end_time": 10.4409091,
                "pitch": 70,
                "velocity": 64,
                "duration": 0.0931818,
                "tempo": 120.0
            },
            {
                "start_time": 10.475,
                "end_time": 10.5681818,
                "pitch": 72,
                "velocity": 64,
                "duration": 0.0931818,
                "tempo": 120.0
            },
            {
                "start_time": 10.6022727,
                "end_time": 10.6909091,
                "pitch": 77,
                "velocity": 64,
                "duration": 0.0886364,
                "tempo": 120.0
            },
            {
                "start_time": 10.7136364,
                "end_time": 10.8272727,
                "pitch": 77,
                "velocity": 4,
                "duration": 0.1136364,
                "tempo": 120.0
            },
            {
                "start_time": 10.8272727,
                "end_time": 10.9159091,
                "pitch": 77,
                "velocity": 64,
                "duration": 0.0886364,
                "tempo": 120.0
            },
            {
                "start_time": 10.9477273,
                "end_time": 11.7545455,
                "pitch": 79,
                "velocity": 64,
                "duration": 0.8068182,
                "tempo": 120.0
            },
            {
                "start_time": 11.8795455,
                "end_time": 13.5659091,
                "pitch": 0,
                "velocity": 127,
                "duration": 1.6863636,
                "tempo": 120.0
            }
        ],
        "Vibraphone": [
            {
                "start_time": 0.0204545,
                "end_time": 0.1272727,
                "pitch": 0,
                "velocity": 4,
                "duration": 0.1068182,
                "tempo": 120.0
            },
            {
                "start_time": 0.1272727,
                "end_time": 0.1954545,
                "pitch": 86,
                "velocity": 40,
                "duration": 0.0681818,
                "tempo": 120.0
            },
            {
                "start_time": 0.2272727,
                "end_time": 0.3090909,
                "pitch": 79,
                "velocity": 40,
                "duration": 0.0818182,
                "tempo": 120.0
            },
            {
                "start_time": 0.3386364,
                "end_time": 0.4227273,
                "pitch": 81,
                "velocity": 40,
                "duration": 0.0840909,
                "tempo": 120.0
            },
            {
                "start_time": 0.4522727,
                "end_time": 0.5454545,
                "pitch": 74,
                "velocity": 40,
                "duration": 0.0931818,
                "tempo": 120.0
            },
            {
                "start_time": 0.5795455,
                "end_time": 0.6727273,
                "pitch": 79,
                "velocity": 40,
                "duration": 0.0931818,
                "tempo": 120.0
            },
            {
                "start_time": 0.7068182,
                "end_time": 0.8,
                "pitch": 72,
                "velocity": 40,
                "duration": 0.0931818,
                "tempo": 120.0
            },
            {
                "start_time": 0.8318182,
                "end_time": 0.925,
                "pitch": 77,
                "velocity": 40,
                "duration": 0.0931818,
                "tempo": 120.0
            },
            {
                "start_time": 0.9590909,
                "end_time": 1.0545455,
                "pitch": 74,
                "velocity": 40,
                "duration": 0.0954545,
                "tempo": 120.0
            },
            {
                "start_time": 1.0795455,
                "end_time": 1.15,
                "pitch": 74,
                "velocity": 40,
                "duration": 0.0704545,
                "tempo": 120.0
            },
            {
                "start_time": 1.15,
                "end_time": 1.2227273,
                "pitch": 72,
                "velocity": 40,
                "duration": 0.0727273,
                "tempo": 120.0
            },
            {
                "start_time": 1.15,
                "end_time": 1.2227273,
                "pitch": 72,
                "velocity": 40,
                "duration": 0.0727273,
                "tempo": 120.0
            },
            {
                "start_time": 1.2227273,
                "end_time": 1.2977273,
                "pitch": 74,
                "velocity": 40,
                "duration": 0.075,
                "tempo": 120.0
            },
            {
                "start_time": 1.225,
                "end_time": 1.2977273,
                "pitch": 74,
                "velocity": 40,
                "duration": 0.0727273,
                "tempo": 120.0
            },
            {
                "start_time": 1.2977273,
                "end_time": 1.3727273,
                "pitch": 77,
                "velocity": 40,
                "duration": 0.075,
                "tempo": 120.0
            },
            {
                "start_time": 1.2977273,
                "end_time": 1.3727273,
                "pitch": 77,
                "velocity": 40,
                "duration": 0.075,
                "tempo": 120.0
            },
            {
                "start_time": 1.3727273,
                "end_time": 1.4454545,
                "pitch": 74,
                "velocity": 40,
                "duration": 0.0727273,
                "tempo": 120.0
            },
            {
                "start_time": 1.3727273,
                "end_time": 1.4454545,
                "pitch": 74,
                "velocity": 40,
                "duration": 0.0727273,
                "tempo": 120.0
            },
            {
                "start_time": 1.4454545,
                "end_time": 1.5204545,
                "pitch": 77,
                "velocity": 40,
                "duration": 0.075,
                "tempo": 120.0
            },
            {
                "start_time": 1.4477273,
                "end_time": 1.5204545,
                "pitch": 77,
                "velocity": 40,
                "duration": 0.0727273,
                "tempo": 120.0
            },
            {
                "start_time": 1.5204545,
                "end_time": 1.5954545,
                "pitch": 79,
                "velocity": 40,
                "duration": 0.075,
                "tempo": 120.0
            },
            {
                "start_time": 1.5977273,
                "end_time": 1.6727273,
                "pitch": 81,
                "velocity": 40,
                "duration": 0.075,
                "tempo": 120.0
            },
            {
                "start_time": 1.6727273,
                "end_time": 1.7477273,
                "pitch": 84,
                "velocity": 40,
                "duration": 0.075,
                "tempo": 120.0
            },
            {
                "start_time": 1.6727273,
                "end_time": 1.7477273,
                "pitch": 84,
                "velocity": 40,
                "duration": 0.075,
                "tempo": 120.0
            },
            {
                "start_time": 1.7477273,
                "end_time": 1.8386364,
                "pitch": 81,
                "velocity": 40,
                "duration": 0.0909091,
                "tempo": 120.0
            },
            {
                "start_time": 1.7477273,
                "end_time": 1.8386364,
                "pitch": 81,
                "velocity": 40,
                "duration": 0.0909091,
                "tempo": 120.0
            },
            {
                "start_time": 1.8772727,
                "end_time": 1.9704545,
                "pitch": 74,
                "velocity": 64,
                "duration": 0.0931818,
                "tempo": 120.0
            },
            {
                "start_time": 1.9931818,
                "end_time": 2.1068182,
                "pitch": 74,
                "velocity": 4,
                "duration": 0.1136364,
                "tempo": 120.0
            },
            {
                "start_time": 2.1090909,
                "end_time": 2.1863636,
                "pitch": 72,
                "velocity": 64,
                "duration": 0.0772727,
                "tempo": 120.0
            },
            {
                "start_time": 2.2068182,
                "end_time": 2.3181818,
                "pitch": 72,
                "velocity": 4,
                "duration": 0.1113636,
                "tempo": 120.0
            },
            {
                "start_time": 2.3181818,
                "end_time": 2.3977273,
                "pitch": 71,
                "velocity": 64,
                "duration": 0.0795455,
                "tempo": 120.0
            },
            {
                "start_time": 2.425,
                "end_time": 2.5045455,
                "pitch": 72,
                "velocity": 64,
                "duration": 0.0795455,
                "tempo": 120.0
            },
            {
                "start_time": 2.5295455,
                "end_time": 2.6181818,
                "pitch": 75,
                "velocity": 64,
                "duration": 0.0886364,
                "tempo": 120.0
            },
            {
                "start_time": 2.6431818,
                "end_time": 2.7295455,
                "pitch": 71,
                "velocity": 64,
                "duration": 0.0863636,
                "tempo": 120.0
            }
        ],
        "Acoustic Guitar (nylon)": [
            {
                "start_time": 2.7590909,
                "end_time": 2.8431818,
                "pitch": 86,
                "velocity": 80,
                "duration": 0.0840909,
                "tempo": 120.0
            },
            {
                "start_time": 2.8704545,
                "end_time": 2.9568182,
                "pitch": 86,
                "velocity": 80,
                "duration": 0.0863636,
                "tempo": 120.0
            },
            {
                "start_time": 2.9818182,
                "end_time": 3.0568182,
                "pitch": 84,
                "velocity": 80,
                "duration": 0.075,
                "tempo": 120.0
            },
            {
                "start_time": 3.0795455,
                "end_time": 3.1545455,
                "pitch": 86,
                "velocity": 80,
                "duration": 0.075,
                "tempo": 120.0
            },
            {
                "start_time": 5.8568182,
                "end_time": 5.9272727,
                "pitch": 89,
                "velocity": 80,
                "duration": 0.0704545,
                "tempo": 120.0
            },
            {
                "start_time": 5.95,
                "end_time": 6.0204545,
                "pitch": 89,
                "velocity": 80,
                "duration": 0.0704545,
                "tempo": 120.0
            },
            {
                "start_time": 6.0431818,
                "end_time": 6.1159091,
                "pitch": 87,
                "velocity": 80,
                "duration": 0.0727273,
                "tempo": 120.0
            },
            {
                "start_time": 6.1386364,
                "end_time": 6.2136364,
                "pitch": 89,
                "velocity": 80,
                "duration": 0.075,
                "tempo": 120.0
            }
        ],
        "Trumpet": [
            {
                "start_time": 0.0204545,
                "end_time": 0.1,
                "pitch": 74,
                "velocity": 80,
                "duration": 0.0795455,
                "tempo": 120.0
            },
            {
                "start_time": 0.1272727,
                "end_time": 0.1954545,
                "pitch": 67,
                "velocity": 80,
                "duration": 0.0681818,
                "tempo": 120.0
            },
            {
                "start_time": 0.2272727,
                "end_time": 0.3090909,
                "pitch": 69,
                "velocity": 80,
                "duration": 0.0818182,
                "tempo": 120.0
            },
            {
                "start_time": 0.3386364,
                "end_time": 0.4227273,
                "pitch": 62,
                "velocity": 80,
                "duration": 0.0840909,
                "tempo": 120.0
            },
            {
                "start_time": 0.4522727,
                "end_time": 0.5454545,
                "pitch": 67,
                "velocity": 80,
                "duration": 0.0931818,
                "tempo": 120.0
            },
            {
                "start_time": 0.5795455,
                "end_time": 0.6727273,
                "pitch": 60,
                "velocity": 80,
                "duration": 0.0931818,
                "tempo": 120.0
            },
            {
                "start_time": 0.7045455,
                "end_time": 0.8,
                "pitch": 65,
                "velocity": 80,
                "duration": 0.0954545,
                "tempo": 120.0
            },
            {
                "start_time": 0.8318182,
                "end_time": 0.925,
                "pitch": 62,
                "velocity": 80,
                "duration": 0.0931818,
                "tempo": 120.0
            },
            {
                "start_time": 0.9590909,
                "end_time": 1.0454545,
                "pitch": 62,
                "velocity": 80,
                "duration": 0.0863636,
                "tempo": 120.0
            },
            {
                "start_time": 1.0454545,
                "end_time": 1.1204545,
                "pitch": 60,
                "velocity": 80,
                "duration": 0.075,
                "tempo": 120.0
            },
            {
                "start_time": 1.1204545,
                "end_time": 1.1977273,
                "pitch": 62,
                "velocity": 80,
                "duration": 0.0772727,
                "tempo": 120.0
            },
            {
                "start_time": 1.1977273,
                "end_time": 1.2704545,
                "pitch": 65,
                "velocity": 80,
                "duration": 0.0727273,
                "tempo": 120.0
            },
            {
                "start_time": 1.1977273,
                "end_time": 1.2704545,
                "pitch": 65,
                "velocity": 80,
                "duration": 0.0727273,
                "tempo": 120.0
            },
            {
                "start_time": 1.2704545,
                "end_time": 1.3454545,
                "pitch": 62,
                "velocity": 80,
                "duration": 0.075,
                "tempo": 120.0
            },
            {
                "start_time": 1.2727273,
                "end_time": 1.3454545,
                "pitch": 62,
                "velocity": 80,
                "duration": 0.0727273,
                "tempo": 120.0
            },
            {
                "start_time": 1.3454545,
                "end_time": 1.4204545,
                "pitch": 65,
                "velocity": 80,
                "duration": 0.075,
                "tempo": 120.0
            },
            {
                "start_time": 1.3454545,
                "end_time": 1.4204545,
                "pitch": 65,
                "velocity": 80,
                "duration": 0.075,
                "tempo": 120.0
            },
            {
                "start_time": 1.4204545,
                "end_time": 1.4931818,
                "pitch": 67,
                "velocity": 80,
                "duration": 0.0727273,
                "tempo": 120.0
            },
            {
                "start_time": 1.4954545,
                "end_time": 1.5704545,
                "pitch": 69,
                "velocity": 80,
                "duration": 0.075,
                "tempo": 120.0
            },
            {
                "start_time": 1.5704545,
                "end_time": 1.6454545,
                "pitch": 72,
                "velocity": 80,
                "duration": 0.075,
                "tempo": 120.0
            },
            {
                "start_time": 1.5704545,
                "end_time": 1.6454545,
                "pitch": 72,
                "velocity": 80,
                "duration": 0.075,
                "tempo": 120.0
            },
            {
                "start_time": 1.6454545,
                "end_time": 1.7204545,
                "pitch": 69,
                "velocity": 80,
                "duration": 0.075,
                "tempo": 120.0
            },
            {
                "start_time": 1.6454545,
                "end_time": 1.7204545,
                "pitch": 69,
                "velocity": 80,
                "duration": 0.075,
                "tempo": 120.0
            },
            {
                "start_time": 1.7204545,
                "end_time": 1.7954545,
                "pitch": 72,
                "velocity": 80,
                "duration": 0.075,
                "tempo": 120.0
            },
            {
                "start_time": 1.7204545,
                "end_time": 1.7954545,
                "pitch": 72,
                "velocity": 80,
                "duration": 0.075,
                "tempo": 120.0
            },
            {
                "start_time": 1.7954545,
                "end_time": 1.8772727,
                "pitch": 74,
                "velocity": 80,
                "duration": 0.0818182,
                "tempo": 120.0
            },
            {
                "start_time": 1.8772727,
                "end_time": 3.025,
                "pitch": 67,
                "velocity": 80,
                "duration": 1.1477273,
                "tempo": 120.0
            },
            {
                "start_time": 1.8772727,
                "end_time": 3.025,
                "pitch": 67,
                "velocity": 80,
                "duration": 1.1477273,
                "tempo": 120.0
            },
            {
                "start_time": 3.1818182,
                "end_time": 3.25,
                "pitch": 67,
                "velocity": 80,
                "duration": 0.0681818,
                "tempo": 120.0
            },
            {
                "start_time": 3.2727273,
                "end_time": 3.3477273,
                "pitch": 72,
                "velocity": 80,
                "duration": 0.075,
                "tempo": 120.0
            },
            {
                "start_time": 3.3772727,
                "end_time": 3.4613636,
                "pitch": 74,
                "velocity": 80,
                "duration": 0.0840909,
                "tempo": 120.0
            },
            {
                "start_time": 3.4863636,
                "end_time": 4.8136364,
                "pitch": 79,
                "velocity": 80,
                "duration": 1.3272727,
                "tempo": 120.0
            },
            {
                "start_time": 4.9977273,
                "end_time": 5.1,
                "pitch": 79,
                "velocity": 4,
                "duration": 0.1022727,
                "tempo": 120.0
            },
            {
                "start_time": 5.1,
                "end_time": 6.0840909,
                "pitch": 70,
                "velocity": 80,
                "duration": 0.9840909,
                "tempo": 120.0
            },
            {
                "start_time": 6.2409091,
                "end_time": 6.3090909,
                "pitch": 70,
                "velocity": 80,
                "duration": 0.0681818,
                "tempo": 120.0
            },
            {
                "start_time": 6.3340909,
                "end_time": 6.4068182,
                "pitch": 75,
                "velocity": 80,
                "duration": 0.0727273,
                "tempo": 120.0
            },
            {
                "start_time": 6.4363636,
                "end_time": 6.5204545,
                "pitch": 77,
                "velocity": 80,
                "duration": 0.0840909,
                "tempo": 120.0
            },
            {
                "start_time": 5.1,
                "end_time": 7.8772727,
                "pitch": 82,
                "velocity": 4,
                "duration": 2.7772727,
                "tempo": 120.0
            },
            {
                "start_time": 6.5454545,
                "end_time": 7.8772727,
                "pitch": 82,
                "velocity": 80,
                "duration": 1.3318182,
                "tempo": 120.0
            },
            {
                "start_time": 8.0659091,
                "end_time": 8.1659091,
                "pitch": 82,
                "velocity": 4,
                "duration": 0.1,
                "tempo": 120.0
            },
            {
                "start_time": 8.1659091,
                "end_time": 8.275,
                "pitch": 82,
                "velocity": 4,
                "duration": 0.1090909,
                "tempo": 120.0
            },
            {
                "start_time": 8.2772727,
                "end_time": 8.35,
                "pitch": 67,
                "velocity": 80,
                "duration": 0.0727273,
                "tempo": 120.0
            },
            {
                "start_time": 8.3795455,
                "end_time": 8.4522727,
                "pitch": 65,
                "velocity": 80,
                "duration": 0.0727273,
                "tempo": 120.0
            },
            {
                "start_time": 8.4840909,
                "end_time": 8.5840909,
                "pitch": 62,
                "velocity": 80,
                "duration": 0.1,
                "tempo": 120.0
            },
            {
                "start_time": 8.6181818,
                "end_time": 8.7181818,
                "pitch": 61,
                "velocity": 80,
                "duration": 0.1,
                "tempo": 120.0
            },
            {
                "start_time": 8.7545455,
                "end_time": 8.8545455,
                "pitch": 60,
                "velocity": 80,
                "duration": 0.1,
                "tempo": 120.0
            },
            {
                "start_time": 8.8909091,
                "end_time": 8.9886364,
                "pitch": 58,
                "velocity": 80,
                "duration": 0.0977273,
                "tempo": 120.0
            },
            {
                "start_time": 1.4204545,
                "end_time": 9.2318182,
                "pitch": 55,
                "velocity": 80,
                "duration": 7.8113636,
                "tempo": 120.0
            },
            {
                "start_time": 9.025,
                "end_time": 9.2318182,
                "pitch": 55,
                "velocity": 80,
                "duration": 0.2068182,
                "tempo": 120.0
            },
            {
                "start_time": 9.2636364,
                "end_time": 9.3431818,
                "pitch": 53,
                "velocity": 80,
                "duration": 0.0795455,
                "tempo": 120.0
            },
            {
                "start_time": 9.375,
                "end_time": 9.5659091,
                "pitch": 55,
                "velocity": 80,
                "duration": 0.1909091,
                "tempo": 120.0
            },
            {
                "start_time": 9.5977273,
                "end_time": 9.6818182,
                "pitch": 48,
                "velocity": 80,
                "duration": 0.0840909,
                "tempo": 120.0
            },
            {
                "start_time": 9.7159091,
                "end_time": 9.8,
                "pitch": 50,
                "velocity": 80,
                "duration": 0.0840909,
                "tempo": 120.0
            },
            {
                "start_time": 9.8363636,
                "end_time": 9.9386364,
                "pitch": 53,
                "velocity": 80,
                "duration": 0.1022727,
                "tempo": 120.0
            },
            {
                "start_time": 9.975,
                "end_time": 10.075,
                "pitch": 55,
                "velocity": 80,
                "duration": 0.1,
                "tempo": 120.0
            },
            {
                "start_time": 10.1113636,
                "end_time": 10.2068182,
                "pitch": 65,
                "velocity": 80,
                "duration": 0.0954545,
                "tempo": 120.0
            },
            {
                "start_time": 10.2386364,
                "end_time": 10.3136364,
                "pitch": 67,
                "velocity": 80,
                "duration": 0.075,
                "tempo": 120.0
            },
            {
                "start_time": 10.3477273,
                "end_time": 10.4409091,
                "pitch": 70,
                "velocity": 80,
                "duration": 0.0931818,
                "tempo": 120.0
            },
            {
                "start_time": 10.475,
                "end_time": 10.5681818,
                "pitch": 72,
                "velocity": 80,
                "duration": 0.0931818,
                "tempo": 120.0
            },
            {
                "start_time": 10.6022727,
                "end_time": 10.6909091,
                "pitch": 77,
                "velocity": 80,
                "duration": 0.0886364,
                "tempo": 120.0
            },
            {
                "start_time": 10.7136364,
                "end_time": 10.8272727,
                "pitch": 77,
                "velocity": 4,
                "duration": 0.1136364,
                "tempo": 120.0
            },
            {
                "start_time": 10.8272727,
                "end_time": 10.9159091,
                "pitch": 77,
                "velocity": 80,
                "duration": 0.0886364,
                "tempo": 120.0
            },
            {
                "start_time": 8.275,
                "end_time": 11.7522727,
                "pitch": 79,
                "velocity": 4,
                "duration": 3.4772727,
                "tempo": 120.0
            },
            {
                "start_time": 10.9477273,
                "end_time": 11.7522727,
                "pitch": 79,
                "velocity": 80,
                "duration": 0.8045455,
                "tempo": 120.0
            },
            {
                "start_time": 11.8795455,
                "end_time": 13.5659091,
                "pitch": 0,
                "velocity": 127,
                "duration": 1.6863636,
                "tempo": 120.0
            }
        ],
        "Acoustic Bass": [
            {
                "start_time": 0.0204545,
                "end_time": 0.0840909,
                "pitch": 38,
                "velocity": 101,
                "duration": 0.0636364,
                "tempo": 120.0
            },
            {
                "start_time": 0.1272727,
                "end_time": 0.1795455,
                "pitch": 31,
                "velocity": 101,
                "duration": 0.0522727,
                "tempo": 120.0
            },
            {
                "start_time": 0.2272727,
                "end_time": 0.2931818,
                "pitch": 33,
                "velocity": 101,
                "duration": 0.0659091,
                "tempo": 120.0
            },
            {
                "start_time": 0.3386364,
                "end_time": 0.4068182,
                "pitch": 26,
                "velocity": 101,
                "duration": 0.0681818,
                "tempo": 120.0
            },
            {
                "start_time": 0.4522727,
                "end_time": 0.5272727,
                "pitch": 31,
                "velocity": 101,
                "duration": 0.075,
                "tempo": 120.0
            },
            {
                "start_time": 0.5795455,
                "end_time": 0.6545455,
                "pitch": 24,
                "velocity": 101,
                "duration": 0.075,
                "tempo": 120.0
            },
            {
                "start_time": 0.7068182,
                "end_time": 0.7795455,
                "pitch": 29,
                "velocity": 101,
                "duration": 0.0727273,
                "tempo": 120.0
            },
            {
                "start_time": 0.8318182,
                "end_time": 0.9068182,
                "pitch": 26,
                "velocity": 101,
                "duration": 0.075,
                "tempo": 120.0
            },
            {
                "start_time": 0.9590909,
                "end_time": 1.0181818,
                "pitch": 26,
                "velocity": 101,
                "duration": 0.0590909,
                "tempo": 120.0
            },
            {
                "start_time": 1.0477273,
                "end_time": 1.0909091,
                "pitch": 24,
                "velocity": 101,
                "duration": 0.0431818,
                "tempo": 120.0
            },
            {
                "start_time": 1.1204545,
                "end_time": 1.1659091,
                "pitch": 26,
                "velocity": 101,
                "duration": 0.0454545,
                "tempo": 120.0
            },
            {
                "start_time": 1.1977273,
                "end_time": 1.2409091,
                "pitch": 29,
                "velocity": 101,
                "duration": 0.0431818,
                "tempo": 120.0
            },
            {
                "start_time": 1.2727273,
                "end_time": 1.3136364,
                "pitch": 26,
                "velocity": 101,
                "duration": 0.0409091,
                "tempo": 120.0
            },
            {
                "start_time": 1.3454545,
                "end_time": 1.3886364,
                "pitch": 29,
                "velocity": 101,
                "duration": 0.0431818,
                "tempo": 120.0
            },
            {
                "start_time": 1.4204545,
                "end_time": 1.4636364,
                "pitch": 31,
                "velocity": 101,
                "duration": 0.0431818,
                "tempo": 120.0
            },
            {
                "start_time": 1.4954545,
                "end_time": 1.5386364,
                "pitch": 33,
                "velocity": 101,
                "duration": 0.0431818,
                "tempo": 120.0
            },
            {
                "start_time": 1.5704545,
                "end_time": 1.6136364,
                "pitch": 36,
                "velocity": 101,
                "duration": 0.0431818,
                "tempo": 120.0
            },
            {
                "start_time": 1.6454545,
                "end_time": 1.6886364,
                "pitch": 33,
                "velocity": 101,
                "duration": 0.0431818,
                "tempo": 120.0
            },
            {
                "start_time": 1.7204545,
                "end_time": 1.7636364,
                "pitch": 36,
                "velocity": 101,
                "duration": 0.0431818,
                "tempo": 120.0
            },
            {
                "start_time": 1.7954545,
                "end_time": 1.8386364,
                "pitch": 38,
                "velocity": 101,
                "duration": 0.0431818,
                "tempo": 120.0
            },
            {
                "start_time": 1.8772727,
                "end_time": 1.9545455,
                "pitch": 31,
                "velocity": 101,
                "duration": 0.0772727,
                "tempo": 120.0
            },
            {
                "start_time": 1.9931818,
                "end_time": 2.0613636,
                "pitch": 31,
                "velocity": 101,
                "duration": 0.0681818,
                "tempo": 120.0
            },
            {
                "start_time": 2.1090909,
                "end_time": 2.1681818,
                "pitch": 43,
                "velocity": 101,
                "duration": 0.0590909,
                "tempo": 120.0
            },
            {
                "start_time": 2.2068182,
                "end_time": 2.275,
                "pitch": 31,
                "velocity": 101,
                "duration": 0.0681818,
                "tempo": 120.0
            },
            {
                "start_time": 2.3181818,
                "end_time": 2.3818182,
                "pitch": 41,
                "velocity": 101,
                "duration": 0.0636364,
                "tempo": 120.0
            },
            {
                "start_time": 2.425,
                "end_time": 2.4863636,
                "pitch": 31,
                "velocity": 101,
                "duration": 0.0613636,
                "tempo": 120.0
            },
            {
                "start_time": 2.5295455,
                "end_time": 2.5977273,
                "pitch": 43,
                "velocity": 101,
                "duration": 0.0681818,
                "tempo": 120.0
            },
            {
                "start_time": 2.6454545,
                "end_time": 2.7113636,
                "pitch": 31,
                "velocity": 101,
                "duration": 0.0659091,
                "tempo": 120.0
            },
            {
                "start_time": 2.7590909,
                "end_time": 2.825,
                "pitch": 29,
                "velocity": 101,
                "duration": 0.0659091,
                "tempo": 120.0
            },
            {
                "start_time": 2.8704545,
                "end_time": 2.9386364,
                "pitch": 31,
                "velocity": 101,
                "duration": 0.0681818,
                "tempo": 120.0
            },
            {
                "start_time": 2.9818182,
                "end_time": 3.0409091,
                "pitch": 43,
                "velocity": 101,
                "duration": 0.0590909,
                "tempo": 120.0
            },
            {
                "start_time": 3.0795455,
                "end_time": 3.1363636,
                "pitch": 31,
                "velocity": 101,
                "duration": 0.0568182,
                "tempo": 120.0
            },
            {
                "start_time": 3.1818182,
                "end_time": 3.2340909,
                "pitch": 41,
                "velocity": 101,
                "duration": 0.0522727,
                "tempo": 120.0
            },
            {
                "start_time": 3.275,
                "end_time": 3.3318182,
                "pitch": 43,
                "velocity": 101,
                "duration": 0.0568182,
                "tempo": 120.0
            },
            {
                "start_time": 3.3772727,
                "end_time": 3.4431818,
                "pitch": 31,
                "velocity": 101,
                "duration": 0.0659091,
                "tempo": 120.0
            },
            {
                "start_time": 3.4863636,
                "end_time": 3.6045455,
                "pitch": 31,
                "velocity": 101,
                "duration": 0.1181818,
                "tempo": 120.0
            },
            {
                "start_time": 3.6795455,
                "end_time": 3.7340909,
                "pitch": 31,
                "velocity": 101,
                "duration": 0.0545455,
                "tempo": 120.0
            },
            {
                "start_time": 3.7727273,
                "end_time": 3.8318182,
                "pitch": 43,
                "velocity": 101,
                "duration": 0.0590909,
                "tempo": 120.0
            },
            {
                "start_time": 3.8681818,
                "end_time": 3.9318182,
                "pitch": 31,
                "velocity": 101,
                "duration": 0.0636364,
                "tempo": 120.0
            },
            {
                "start_time": 3.9727273,
                "end_time": 4.0318182,
                "pitch": 41,
                "velocity": 101,
                "duration": 0.0590909,
                "tempo": 120.0
            },
            {
                "start_time": 4.0681818,
                "end_time": 4.1318182,
                "pitch": 31,
                "velocity": 101,
                "duration": 0.0636364,
                "tempo": 120.0
            },
            {
                "start_time": 4.1704545,
                "end_time": 4.225,
                "pitch": 43,
                "velocity": 101,
                "duration": 0.0545455,
                "tempo": 120.0
            },
            {
                "start_time": 4.2613636,
                "end_time": 4.3136364,
                "pitch": 31,
                "velocity": 101,
                "duration": 0.0522727,
                "tempo": 120.0
            },
            {
                "start_time": 4.3477273,
                "end_time": 4.4045455,
                "pitch": 29,
                "velocity": 101,
                "duration": 0.0568182,
                "tempo": 120.0
            },
            {
                "start_time": 4.4409091,
                "end_time": 4.4954545,
                "pitch": 31,
                "velocity": 101,
                "duration": 0.0545455,
                "tempo": 120.0
            },
            {
                "start_time": 4.5272727,
                "end_time": 4.5886364,
                "pitch": 43,
                "velocity": 101,
                "duration": 0.0613636,
                "tempo": 120.0
            },
            {
                "start_time": 4.625,
                "end_time": 4.6818182,
                "pitch": 31,
                "velocity": 101,
                "duration": 0.0568182,
                "tempo": 120.0
            },
            {
                "start_time": 4.7159091,
                "end_time": 4.775,
                "pitch": 41,
                "velocity": 101,
                "duration": 0.0590909,
                "tempo": 120.0
            },
            {
                "start_time": 4.8136364,
                "end_time": 4.8704545,
                "pitch": 43,
                "velocity": 101,
                "duration": 0.0568182,
                "tempo": 120.0
            },
            {
                "start_time": 4.9090909,
                "end_time": 4.9636364,
                "pitch": 31,
                "velocity": 101,
                "duration": 0.0545455,
                "tempo": 120.0
            },
            {
                "start_time": 5.0,
                "end_time": 5.1227273,
                "pitch": 34,
                "velocity": 101,
                "duration": 0.1227273,
                "tempo": 120.0
            },
            {
                "start_time": 5.1863636,
                "end_time": 5.2477273,
                "pitch": 34,
                "velocity": 101,
                "duration": 0.0613636,
                "tempo": 120.0
            },
            {
                "start_time": 5.2886364,
                "end_time": 5.3431818,
                "pitch": 34,
                "velocity": 101,
                "duration": 0.0545455,
                "tempo": 120.0
            },
            {
                "start_time": 5.3772727,
                "end_time": 5.4409091,
                "pitch": 46,
                "velocity": 101,
                "duration": 0.0636364,
                "tempo": 120.0
            },
            {
                "start_time": 5.4795455,
                "end_time": 5.5363636,
                "pitch": 34,
                "velocity": 101,
                "duration": 0.0568182,
                "tempo": 120.0
            },
            {
                "start_time": 5.5772727,
                "end_time": 5.6340909,
                "pitch": 44,
                "velocity": 101,
                "duration": 0.0568182,
                "tempo": 120.0
            },
            {
                "start_time": 5.6681818,
                "end_time": 5.7272727,
                "pitch": 34,
                "velocity": 101,
                "duration": 0.0590909,
                "tempo": 120.0
            },
            {
                "start_time": 5.7659091,
                "end_time": 5.8204545,
                "pitch": 46,
                "velocity": 101,
                "duration": 0.0545455,
                "tempo": 120.0
            },
            {
                "start_time": 5.8568182,
                "end_time": 5.9113636,
                "pitch": 34,
                "velocity": 101,
                "duration": 0.0545455,
                "tempo": 120.0
            },
            {
                "start_time": 5.95,
                "end_time": 6.0045455,
                "pitch": 32,
                "velocity": 101,
                "duration": 0.0545455,
                "tempo": 120.0
            },
            {
                "start_time": 6.0431818,
                "end_time": 6.1,
                "pitch": 34,
                "velocity": 101,
                "duration": 0.0568182,
                "tempo": 120.0
            },
            {
                "start_time": 6.1386364,
                "end_time": 6.1977273,
                "pitch": 46,
                "velocity": 101,
                "duration": 0.0590909,
                "tempo": 120.0
            },
            {
                "start_time": 6.2409091,
                "end_time": 6.2931818,
                "pitch": 34,
                "velocity": 101,
                "duration": 0.0522727,
                "tempo": 120.0
            },
            {
                "start_time": 6.3340909,
                "end_time": 6.3909091,
                "pitch": 42,
                "velocity": 101,
                "duration": 0.0568182,
                "tempo": 120.0
            },
            {
                "start_time": 6.4363636,
                "end_time": 6.5022727,
                "pitch": 44,
                "velocity": 101,
                "duration": 0.0659091,
                "tempo": 120.0
            },
            {
                "start_time": 6.5454545,
                "end_time": 6.6,
                "pitch": 46,
                "velocity": 101,
                "duration": 0.0545455,
                "tempo": 120.0
            },
            {
                "start_time": 6.6431818,
                "end_time": 6.7613636,
                "pitch": 34,
                "velocity": 101,
                "duration": 0.1181818,
                "tempo": 120.0
            },
            {
                "start_time": 6.8340909,
                "end_time": 6.8909091,
                "pitch": 34,
                "velocity": 101,
                "duration": 0.0568182,
                "tempo": 120.0
            },
            {
                "start_time": 6.925,
                "end_time": 6.9886364,
                "pitch": 46,
                "velocity": 101,
                "duration": 0.0636364,
                "tempo": 120.0
            },
            {
                "start_time": 7.0272727,
                "end_time": 7.0840909,
                "pitch": 34,
                "velocity": 101,
                "duration": 0.0568182,
                "tempo": 120.0
            },
            {
                "start_time": 7.1181818,
                "end_time": 7.1818182,
                "pitch": 44,
                "velocity": 101,
                "duration": 0.0636364,
                "tempo": 120.0
            },
            {
                "start_time": 7.2204545,
                "end_time": 7.2772727,
                "pitch": 34,
                "velocity": 101,
                "duration": 0.0568182,
                "tempo": 120.0
            },
            {
                "start_time": 7.3159091,
                "end_time": 7.3727273,
                "pitch": 46,
                "velocity": 101,
                "duration": 0.0568182,
                "tempo": 120.0
            },
            {
                "start_time": 7.4068182,
                "end_time": 7.4659091,
                "pitch": 34,
                "velocity": 101,
                "duration": 0.0590909,
                "tempo": 120.0
            },
            {
                "start_time": 7.5045455,
                "end_time": 7.5613636,
                "pitch": 32,
                "velocity": 101,
                "duration": 0.0568182,
                "tempo": 120.0
            },
            {
                "start_time": 7.5954545,
                "end_time": 7.6545455,
                "pitch": 34,
                "velocity": 101,
                "duration": 0.0590909,
                "tempo": 120.0
            },
            {
                "start_time": 7.6931818,
                "end_time": 7.7477273,
                "pitch": 46,
                "velocity": 101,
                "duration": 0.0545455,
                "tempo": 120.0
            },
            {
                "start_time": 7.7795455,
                "end_time": 7.8386364,
                "pitch": 34,
                "velocity": 101,
                "duration": 0.0590909,
                "tempo": 120.0
            },
            {
                "start_time": 7.8772727,
                "end_time": 7.9318182,
                "pitch": 44,
                "velocity": 101,
                "duration": 0.0545455,
                "tempo": 120.0
            },
            {
                "start_time": 7.9681818,
                "end_time": 8.0272727,
                "pitch": 46,
                "velocity": 101,
                "duration": 0.0590909,
                "tempo": 120.0
            },
            {
                "start_time": 8.0659091,
                "end_time": 8.1295455,
                "pitch": 34,
                "velocity": 101,
                "duration": 0.0636364,
                "tempo": 120.0
            },
            {
                "start_time": 8.1659091,
                "end_time": 8.2318182,
                "pitch": 34,
                "velocity": 101,
                "duration": 0.0659091,
                "tempo": 120.0
            },
            {
                "start_time": 8.2772727,
                "end_time": 8.3340909,
                "pitch": 31,
                "velocity": 101,
                "duration": 0.0568182,
                "tempo": 120.0
            },
            {
                "start_time": 8.3795455,
                "end_time": 8.4340909,
                "pitch": 31,
                "velocity": 101,
                "duration": 0.0545455,
                "tempo": 120.0
            },
            {
                "start_time": 8.4840909,
                "end_time": 8.5636364,
                "pitch": 43,
                "velocity": 101,
                "duration": 0.0795455,
                "tempo": 120.0
            },
            {
                "start_time": 8.6204545,
                "end_time": 8.7,
                "pitch": 31,
                "velocity": 101,
                "duration": 0.0795455,
                "tempo": 120.0
            },
            {
                "start_time": 8.7545455,
                "end_time": 8.8340909,
                "pitch": 41,
                "velocity": 101,
                "duration": 0.0795455,
                "tempo": 120.0
            },
            {
                "start_time": 8.8909091,
                "end_time": 8.9704545,
                "pitch": 31,
                "velocity": 101,
                "duration": 0.0795455,
                "tempo": 120.0
            },
            {
                "start_time": 9.025,
                "end_time": 9.1022727,
                "pitch": 43,
                "velocity": 101,
                "duration": 0.0772727,
                "tempo": 120.0
            },
            {
                "start_time": 9.1477273,
                "end_time": 9.2136364,
                "pitch": 31,
                "velocity": 101,
                "duration": 0.0659091,
                "tempo": 120.0
            },
            {
                "start_time": 9.2636364,
                "end_time": 9.325,
                "pitch": 29,
                "velocity": 101,
                "duration": 0.0613636,
                "tempo": 120.0
            },
            {
                "start_time": 9.375,
                "end_time": 9.4363636,
                "pitch": 31,
                "velocity": 101,
                "duration": 0.0613636,
                "tempo": 120.0
            },
            {
                "start_time": 9.4818182,
                "end_time": 9.5477273,
                "pitch": 43,
                "velocity": 101,
                "duration": 0.0659091,
                "tempo": 120.0
            },
            {
                "start_time": 9.5977273,
                "end_time": 9.6636364,
                "pitch": 31,
                "velocity": 101,
                "duration": 0.0659091,
                "tempo": 120.0
            },
            {
                "start_time": 9.7159091,
                "end_time": 9.7795455,
                "pitch": 41,
                "velocity": 101,
                "duration": 0.0636364,
                "tempo": 120.0
            },
            {
                "start_time": 9.8363636,
                "end_time": 9.9181818,
                "pitch": 43,
                "velocity": 101,
                "duration": 0.0818182,
                "tempo": 120.0
            },
            {
                "start_time": 9.975,
                "end_time": 10.0545455,
                "pitch": 31,
                "velocity": 101,
                "duration": 0.0795455,
                "tempo": 120.0
            },
            {
                "start_time": 10.1113636,
                "end_time": 10.2590909,
                "pitch": 29,
                "velocity": 101,
                "duration": 0.1477273,
                "tempo": 120.0
            },
            {
                "start_time": 10.3477273,
                "end_time": 10.4227273,
                "pitch": 29,
                "velocity": 101,
                "duration": 0.075,
                "tempo": 120.0
            },
            {
                "start_time": 10.475,
                "end_time": 10.55,
                "pitch": 41,
                "velocity": 101,
                "duration": 0.075,
                "tempo": 120.0
            },
            {
                "start_time": 10.6022727,
                "end_time": 10.6727273,
                "pitch": 29,
                "velocity": 101,
                "duration": 0.0704545,
                "tempo": 120.0
            },
            {
                "start_time": 10.7136364,
                "end_time": 10.7772727,
                "pitch": 36,
                "velocity": 101,
                "duration": 0.0636364,
                "tempo": 120.0
            },
            {
                "start_time": 10.8272727,
                "end_time": 10.8977273,
                "pitch": 41,
                "velocity": 101,
                "duration": 0.0704545,
                "tempo": 120.0
            },
            {
                "start_time": 10.9477273,
                "end_time": 11.0022727,
                "pitch": 29,
                "velocity": 101,
                "duration": 0.0545455,
                "tempo": 120.0
            },
            {
                "start_time": 11.0431818,
                "end_time": 11.8590909,
                "pitch": 31,
                "velocity": 101,
                "duration": 0.8159091,
                "tempo": 120.0
            },
            {
                "start_time": 11.9818182,
                "end_time": 13.5659091,
                "pitch": 0,
                "velocity": 127,
                "duration": 1.5840909,
                "tempo": 120.0
            }
        ]
    }
}