{
    "mood": "happy",
    "instruments": {
        "Electric Piano 1": [
            {
                "start_time": 0.2977273,
                "end_time": 1.9090909,
                "pitch": 60,
                "velocity": 64,
                "duration": 1.6113636,
                "tempo": 120.0
            },
            {
                "start_time": 1.9090909,
                "end_time": 3.4863636,
                "pitch": 67,
                "velocity": 64,
                "duration": 1.5772727,
                "tempo": 120.0
            },
            {
                "start_time": 3.4863636,
                "end_time": 4.0886364,
                "pitch": 65,
                "velocity": 64,
                "duration": 0.6022727,
                "tempo": 120.0
            },
            {
                "start_time": 4.0886364,
                "end_time": 4.6977273,
                "pitch": 63,
                "velocity": 64,
                "duration": 0.6090909,
                "tempo": 120.0
            },
            {
                "start_time": 4.6977273,
                "end_time": 5.0954545,
                "pitch": 67,
                "velocity": 64,
                "duration": 0.3977273,
                "tempo": 120.0
            },
            {
                "start_time": 5.0954545,
                "end_time": 6.6931818,
                "pitch": 60,
                "velocity": 64,
                "duration": 1.5977273,
                "tempo": 120.0
            },
            {
                "start_time": 6.6931818,
                "end_time": 7.2931818,
                "pitch": 60,
                "velocity": 64,
                "duration": 0.6,
                "tempo": 120.0
            },
            {
                "start_time": 7.2931818,
                "end_time": 7.4931818,
                "pitch": 62,
                "velocity": 64,
                "duration": 0.2,
                "tempo": 120.0
            },
            {
                "start_time": 7.4931818,
                "end_time": 7.8886364,
                "pitch": 63,
                "velocity": 64,
                "duration": 0.3954545,
                "tempo": 120.0
            },
            {
                "start_time": 7.8886364,
                "end_time": 8.2840909,
                "pitch": 67,
                "velocity": 64,
                "duration": 0.3954545,
                "tempo": 120.0
            },
            {
                "start_time": 8.2840909,
                "end_time": 9.0863636,
                "pitch": 65,
                "velocity": 64,
                "duration": 0.8022727,
                "tempo": 120.0
            },
            {
                "start_time": 9.0863636,
                "end_time": 9.8886364,
                "pitch": 62,
                "velocity": 64,
                "duration": 0.8022727,
                "tempo": 120.0
            },
            {
                "start_time": 9.0863636,
                "end_time": 9.8886364,
                "pitch": 62,
                "velocity": 64,
                "duration": 0.8022727,
                "tempo": 120.0
            },
            {
                "start_time": 9.8886364,
                "end_time": 10.0886364,
                "pitch": 63,
                "velocity": 64,
                "duration": 0.2,
                "tempo": 120.0
            },
            {
                "start_time": 10.0886364,
                "end_time": 10.2886364,
                "pitch": 65,
                "velocity": 64,
                "duration": 0.2,
                "tempo": 120.0
            },
            {
                "start_time": 10.0886364,
                "end_time": 10.2886364,
                "pitch": 65,
                "velocity": 64,
                "duration": 0.2,
                "tempo": 120.0
            },
            {
                "start_time": 10.2886364,
                "end_time": 10.4909091,
                "pitch": 63,
                "velocity": 64,
                "duration": 0.2022727,
                "tempo": 120.0
            },
            {
                "start_time": 10.2886364,
                "end_time": 10.4909091,
                "pitch": 63,
                "velocity": 64,
                "duration": 0.2022727,
                "tempo": 120.0
            },
            {
                "start_time": 10.4909091,
                "end_time": 10.8909091,
                "pitch": 62,
                "velocity": 64,
                "duration": 0.4,
                "tempo": 120.0
            },
            {
                "start_time": 10.8909091,
                "end_time": 11.0863636,
                "pitch": 58,
                "velocity": 64,
                "duration": 0.1954545,
                "tempo": 120.0
            },
            {
                "start_time": 11.0863636,
                "end_time": 11.2818182,
                "pitch": 55,
                "velocity": 64,
                "duration": 0.1954545,
                "tempo": 120.0
            },
            {
                "start_time": 11.0863636,
                "end_time": 11.2818182,
                "pitch": 55,
                "velocity": 64,
                "duration": 0.1954545,
                "tempo": 120.0
            },
            {
                "start_time": 11.2818182,
                "end_time": 11.4840909,
                "pitch": 62,
                "velocity": 64,
                "duration": 0.2022727,
                "tempo": 120.0
            },
            {
                "start_time": 11.4840909,
                "end_time": 11.5840909,
                "pitch": 60,
                "velocity": 64,
                "duration": 0.1,
                "tempo": 120.0
            },
            {
                "start_time": 11.5840909,
                "end_time": 11.6840909,
                "pitch": 58,
                "velocity": 64,
                "duration": 0.1,
                "tempo": 120.0
            },
            {
                "start_time": 11.6840909,
                "end_time": 12.6863636,
                "pitch": 60,
                "velocity": 64,
                "duration": 1.0022727,
                "tempo": 120.0
            },
            {
                "start_time": 12.6863636,
                "end_time": 13.0863636,
                "pitch": 55,
                "velocity": 64,
                "duration": 0.4,
                "tempo": 120.0
            },
            {
                "start_time": 13.0863636,
                "end_time": 13.6886364,
                "pitch": 56,
                "velocity": 64,
                "duration": 0.6022727,
                "tempo": 120.0
            },
            {
                "start_time": 11.5840909,
                "end_time": 14.6795455,
                "pitch": 40,
                "velocity": 64,
                "duration": 3.0954545,
                "tempo": 120.0
            },
            {
                "start_time": 13.6886364,
                "end_time": 14.6795455,
                "pitch": 63,
                "velocity": 64,
                "duration": 0.9909091,
                "tempo": 120.0
            },
            {
                "start_time": 14.6795455,
                "end_time": 15.2818182,
                "pitch": 58,
                "velocity": 64,
                "duration": 0.6022727,
                "tempo": 120.0
            },
            {
                "start_time": 11.2818182,
                "end_time": 15.8818182,
                "pitch": 65,
                "velocity": 64,
                "duration": 4.6,
                "tempo": 120.0
            },
            {
                "start_time": 15.2818182,
                "end_time": 15.8818182,
                "pitch": 65,
                "velocity": 64,
                "duration": 0.6,
                "tempo": 120.0
            },
            {
                "start_time": 15.8818182,
                "end_time": 16.0840909,
                "pitch": 67,
                "velocity": 64,
                "duration": 0.2022727,
                "tempo": 120.0
            },
            {
                "start_time": 16.0840909,
                "end_time": 17.475,
                "pitch": 68,
                "velocity": 64,
                "duration": 1.3909091,
                "tempo": 120.0
            },
            {
                "start_time": 17.475,
                "end_time": 17.8727273,
                "pitch": 72,
                "velocity": 64,
                "duration": 0.3977273,
                "tempo": 120.0
            },
            {
                "start_time": 17.8727273,
                "end_time": 18.6727273,
                "pitch": 65,
                "velocity": 64,
                "duration": 0.8,
                "tempo": 120.0
            },
            {
                "start_time": 18.6727273,
                "end_time": 18.675,
                "pitch": 63,
                "velocity": 64,
                "duration": 0.0022727,
                "tempo": 120.0
            },
            {
                "start_time": 18.675,
                "end_time": 19.2727273,
                "pitch": 63,
                "velocity": 64,
                "duration": 0.5977273,
                "tempo": 120.0
            },
            {
                "start_time": 19.2727273,
                "end_time": 19.4727273,
                "pitch": 62,
                "velocity": 64,
                "duration": 0.2,
                "tempo": 120.0
            },
            {
                "start_time": 19.4727273,
                "end_time": 19.5727273,
                "pitch": 63,
                "velocity": 64,
                "duration": 0.1,
                "tempo": 120.0
            },
            {
                "start_time": 19.5727273,
                "end_time": 19.6727273,
                "pitch": 62,
                "velocity": 64,
                "duration": 0.1,
                "tempo": 120.0
            },
            {
                "start_time": 19.6727273,
                "end_time": 19.8727273,
                "pitch": 60,
                "velocity": 64,
                "duration": 0.2,
                "tempo": 120.0
            },
            {
                "start_time": 19.8727273,
                "end_time": 19.9727273,
                "pitch": 63,
                "velocity": 40,
                "duration": 0.1,
                "tempo": 120.0
            },
            {
                "start_time": 19.8727273,
                "end_time": 19.9727273,
                "pitch": 63,
                "velocity": 64,
                "duration": 0.1,
                "tempo": 120.0
            },
            {
                "start_time": 19.9727273,
                "end_time": 20.0727273,
                "pitch": 62,
                "velocity": 40,
                "duration": 0.1,
                "tempo": 120.0
            },
            {
                "start_time": 20.0727273,
                "end_time": 20.2681818,
                "pitch": 60,
                "velocity": 40,
                "duration": 0.1954545,
                "tempo": 120.0
            },
            {
                "start_time": 20.2681818,
                "end_time": 20.3659091,
                "pitch": 63,
                "velocity": 25,
                "duration": 0.0977273,
                "tempo": 120.0
            },
            {
                "start_time": 20.2681818,
                "end_time": 20.3659091,
                "pitch": 63,
                "velocity": 40,
                "duration": 0.0977273,
                "tempo": 120.0
            },
            {
                "start_time": 20.3659091,
                "end_time": 20.4659091,
                "pitch": 62,
                "velocity": 25,
                "duration": 0.1,
                "tempo": 120.0
            },
            {
                "start_time": 20.6636364,
                "end_time": 20.8636364,
                "pitch": 62,
                "velocity": 64,
                "duration": 0.2,
                "tempo": 120.0
            },
            {
                "start_time": 20.8636364,
                "end_time": 21.0613636,
                "pitch": 63,
                "velocity": 64,
                "duration": 0.1977273,
                "tempo": 120.0
            },
            {
                "start_time": 21.0613636,
                "end_time": 21.1636364,
                "pitch": 65,
                "velocity": 64,
                "duration": 0.1022727,
                "tempo": 120.0
            },
            {
                "start_time": 21.0613636,
                "end_time": 21.1636364,
                "pitch": 65,
                "velocity": 64,
                "duration": 0.1022727,
                "tempo": 120.0
            },
            {
                "start_time": 21.1636364,
                "end_time": 21.2613636,
                "pitch": 63,
                "velocity": 64,
                "duration": 0.0977273,
                "tempo": 120.0
            },
            {
                "start_time": 21.2613636,
                "end_time": 21.4636364,
                "pitch": 62,
                "velocity": 64,
                "duration": 0.2022727,
                "tempo": 120.0
            },
            {
                "start_time": 21.4636364,
                "end_time": 21.5636364,
                "pitch": 65,
                "velocity": 40,
                "duration": 0.1,
                "tempo": 120.0
            },
            {
                "start_time": 21.4636364,
                "end_time": 21.5636364,
                "pitch": 65,
                "velocity": 64,
                "duration": 0.1,
                "tempo": 120.0
            },
            {
                "start_time": 21.5636364,
                "end_time": 21.6636364,
                "pitch": 63,
                "velocity": 40,
                "duration": 0.1,
                "tempo": 120.0
            },
            {
                "start_time": 21.6636364,
                "end_time": 21.8636364,
                "pitch": 62,
                "velocity": 40,
                "duration": 0.2,
                "tempo": 120.0
            },
            {
                "start_time": 21.8636364,
                "end_time": 21.9636364,
                "pitch": 65,
                "velocity": 25,
                "duration": 0.1,
                "tempo": 120.0
            },
            {
                "start_time": 21.8636364,
                "end_time": 21.9636364,
                "pitch": 65,
                "velocity": 40,
                "duration": 0.1,
                "tempo": 120.0
            },
            {
                "start_time": 21.9636364,
                "end_time": 22.0613636,
                "pitch": 63,
                "velocity": 25,
                "duration": 0.0977273,
                "tempo": 120.0
            },
            {
                "start_time": 22.2636364,
                "end_time": 22.4636364,
                "pitch": 63,
                "velocity": 64,
                "duration": 0.2,
                "tempo": 120.0
            },
            {
                "start_time": 22.4636364,
                "end_time": 22.6636364,
                "pitch": 65,
                "velocity": 64,
                "duration": 0.2,
                "tempo": 120.0
            },
            {
                "start_time": 22.4636364,
                "end_time": 22.6636364,
                "pitch": 65,
                "velocity": 64,
                "duration": 0.2,
                "tempo": 120.0
            },
            {
                "start_time": 22.6636364,
                "end_time": 22.7636364,
                "pitch": 67,
                "velocity": 64,
                "duration": 0.1,
                "tempo": 120.0
            },
            {
                "start_time": 3.4863636,
                "end_time": 22.7636364,
                "pitch": 78,
                "velocity": 64,
                "duration": 19.2772727,
                "tempo": 120.0
            },
            {
                "start_time": 22.7636364,
                "end_time": 22.8636364,
                "pitch": 65,
                "velocity": 64,
                "duration": 0.1,
                "tempo": 120.0
            },
            {
                "start_time": 22.8636364,
                "end_time": 23.0613636,
                "pitch": 63,
                "velocity": 64,
                "duration": 0.1977273,
                "tempo": 120.0
            },
            {
                "start_time": 23.0613636,
                "end_time": 23.1613636,
                "pitch": 67,
                "velocity": 40,
                "duration": 0.1,
                "tempo": 120.0
            },
            {
                "start_time": 22.7636364,
                "end_time": 23.1613636,
                "pitch": 78,
                "velocity": 64,
                "duration": 0.3977273,
                "tempo": 120.0
            },
            {
                "start_time": 23.1613636,
                "end_time": 23.2613636,
                "pitch": 65,
                "velocity": 40,
                "duration": 0.1,
                "tempo": 120.0
            },
            {
                "start_time": 23.2613636,
                "end_time": 23.4568182,
                "pitch": 63,
                "velocity": 40,
                "duration": 0.1954545,
                "tempo": 120.0
            },
            {
                "start_time": 23.2613636,
                "end_time": 23.4568182,
                "pitch": 63,
                "velocity": 40,
                "duration": 0.1954545,
                "tempo": 120.0
            },
            {
                "start_time": 23.4568182,
                "end_time": 23.5545455,
                "pitch": 67,
                "velocity": 25,
                "duration": 0.0977273,
                "tempo": 120.0
            },
            {
                "start_time": 23.1613636,
                "end_time": 23.5545455,
                "pitch": 78,
                "velocity": 40,
                "duration": 0.3931818,
                "tempo": 120.0
            },
            {
                "start_time": 23.5545455,
                "end_time": 23.6522727,
                "pitch": 65,
                "velocity": 25,
                "duration": 0.0977273,
                "tempo": 120.0
            },
            {
                "start_time": 23.6522727,
                "end_time": 23.7522727,
                "pitch": 63,
                "velocity": 25,
                "duration": 0.1,
                "tempo": 120.0
            },
            {
                "start_time": 23.6522727,
                "end_time": 23.7522727,
                "pitch": 63,
                "velocity": 25,
                "duration": 0.1,
                "tempo": 120.0
            },
            {
                "start_time": 24.0522727,
                "end_time": 24.4522727,
                "pitch": 67,
                "velocity": 64,
                "duration": 0.4,
                "tempo": 120.0
            },
            {
                "start_time": 24.4522727,
                "end_time": 24.6522727,
                "pitch": 67,
                "velocity": 64,
                "duration": 0.2,
                "tempo": 120.0
            },
            {
                "start_time": 23.5545455,
                "end_time": 24.6522727,
                "pitch": 78,
                "velocity": 25,
                "duration": 1.0977273,
                "tempo": 120.0
            },
            {
                "start_time": 24.6522727,
                "end_time": 25.0522727,
                "pitch": 65,
                "velocity": 64,
                "duration": 0.4,
                "tempo": 120.0
            },
            {
                "start_time": 25.0522727,
                "end_time": 25.2522727,
                "pitch": 63,
                "velocity": 64,
                "duration": 0.2,
                "tempo": 120.0
            },
            {
                "start_time": 25.0522727,
                "end_time": 25.2522727,
                "pitch": 63,
                "velocity": 64,
                "duration": 0.2,
                "tempo": 120.0
            },
            {
                "start_time": 25.2522727,
                "end_time": 25.4522727,
                "pitch": 65,
                "velocity": 64,
                "duration": 0.2,
                "tempo": 120.0
            },
            {
                "start_time": 25.2522727,
                "end_time": 25.4522727,
                "pitch": 65,
                "velocity": 64,
                "duration": 0.2,
                "tempo": 120.0
            },
            {
                "start_time": 25.4522727,
                "end_time": 25.65,
                "pitch": 63,
                "velocity": 64,
                "duration": 0.1977273,
                "tempo": 120.0
            },
            {
                "start_time": 25.65,
                "end_time": 25.8522727,
                "pitch": 62,
                "velocity": 64,
                "duration": 0.2022727,
                "tempo": 120.0
            },
            {
                "start_time": 25.8522727,
                "end_time": 25.9522727,
                "pitch": 63,
                "velocity": 64,
                "duration": 0.1,
                "tempo": 120.0
            },
            {
                "start_time": 25.9522727,
                "end_time": 26.0522727,
                "pitch": 62,
                "velocity": 64,
                "duration": 0.1,
                "tempo": 120.0
            },
            {
                "start_time": 26.0522727,
                "end_time": 26.2477273,
                "pitch": 60,
                "velocity": 64,
                "duration": 0.1954545,
                "tempo": 120.0
            },
            {
                "start_time": 26.2477273,
                "end_time": 26.3454545,
                "pitch": 63,
                "velocity": 40,
                "duration": 0.0977273,
                "tempo": 120.0
            },
            {
                "start_time": 26.3454545,
                "end_time": 26.4431818,
                "pitch": 62,
                "velocity": 40,
                "duration": 0.0977273,
                "tempo": 120.0
            },
            {
                "start_time": 26.4431818,
                "end_time": 26.6431818,
                "pitch": 60,
                "velocity": 40,
                "duration": 0.2,
                "tempo": 120.0
            },
            {
                "start_time": 26.6431818,
                "end_time": 26.7431818,
                "pitch": 63,
                "velocity": 25,
                "duration": 0.1,
                "tempo": 120.0
            },
            {
                "start_time": 26.6431818,
                "end_time": 26.7431818,
                "pitch": 63,
                "velocity": 40,
                "duration": 0.1,
                "tempo": 120.0
            },
            {
                "start_time": 26.7431818,
                "end_time": 26.8431818,
                "pitch": 62,
                "velocity": 25,
                "duration": 0.1,
                "tempo": 120.0
            },
            {
                "start_time": 27.0409091,
                "end_time": 27.2409091,
                "pitch": 62,
                "velocity": 64,
                "duration": 0.2,
                "tempo": 120.0
            },
            {
                "start_time": 27.2409091,
                "end_time": 27.4409091,
                "pitch": 63,
                "velocity": 64,
                "duration": 0.2,
                "tempo": 120.0
            },
            {
                "start_time": 27.4409091,
                "end_time": 27.5409091,
                "pitch": 65,
                "velocity": 64,
                "duration": 0.1,
                "tempo": 120.0
            },
            {
                "start_time": 27.5409091,
                "end_time": 27.6431818,
                "pitch": 63,
                "velocity": 64,
                "duration": 0.1022727,
                "tempo": 120.0
            },
            {
                "start_time": 27.5409091,
                "end_time": 27.6431818,
                "pitch": 63,
                "velocity": 64,
                "duration": 0.1022727,
                "tempo": 120.0
            },
            {
                "start_time": 27.6431818,
                "end_time": 27.8409091,
                "pitch": 62,
                "velocity": 64,
                "duration": 0.1977273,
                "tempo": 120.0
            },
            {
                "start_time": 27.8409091,
                "end_time": 27.9409091,
                "pitch": 65,
                "velocity": 40,
                "duration": 0.1,
                "tempo": 120.0
            },
            {
                "start_time": 27.8409091,
                "end_time": 27.9409091,
                "pitch": 65,
                "velocity": 64,
                "duration": 0.1,
                "tempo": 120.0
            },
            {
                "start_time": 27.9409091,
                "end_time": 28.0409091,
                "pitch": 63,
                "velocity": 40,
                "duration": 0.1,
                "tempo": 120.0
            },
            {
                "start_time": 27.9409091,
                "end_time": 28.0409091,
                "pitch": 63,
                "velocity": 40,
                "duration": 0.1,
                "tempo": 120.0
            },
            {
                "start_time": 28.0409091,
                "end_time": 28.2409091,
                "pitch": 65,
                "velocity": 40,
                "duration": 0.2,
                "tempo": 120.0
            },
            {
                "start_time": 28.0409091,
                "end_time": 28.2409091,
                "pitch": 65,
                "velocity": 40,
                "duration": 0.2,
                "tempo": 120.0
            },
            {
                "start_time": 28.2409091,
                "end_time": 28.3409091,
                "pitch": 67,
                "velocity": 64,
                "duration": 0.1,
                "tempo": 120.0
            },
            {
                "start_time": 24.6522727,
                "end_time": 28.3409091,
                "pitch": 78,
                "velocity": 64,
                "duration": 3.6886364,
                "tempo": 120.0
            },
            {
                "start_time": 28.3409091,
                "end_time": 28.4431818,
                "pitch": 65,
                "velocity": 64,
                "duration": 0.1022727,
                "tempo": 120.0
            },
            {
                "start_time": 28.4431818,
                "end_time": 28.6409091,
                "pitch": 63,
                "velocity": 64,
                "duration": 0.1977273,
                "tempo": 120.0
            },
            {
                "start_time": 28.4431818,
                "end_time": 28.6409091,
                "pitch": 63,
                "velocity": 64,
                "duration": 0.1977273,
                "tempo": 120.0
            },
            {
                "start_time": 14.6795455,
                "end_time": 28.8409091,
                "pitch": 40,
                "velocity": 64,
                "duration": 14.1613636,
                "tempo": 120.0
            },
            {
                "start_time": 28.6409091,
                "end_time": 28.8409091,
                "pitch": 65,
                "velocity": 64,
                "duration": 0.2,
                "tempo": 120.0
            },
            {
                "start_time": 28.6409091,
                "end_time": 28.8409091,
                "pitch": 65,
                "velocity": 64,
                "duration": 0.2,
                "tempo": 120.0
            },
            {
                "start_time": 28.8409091,
                "end_time": 29.0409091,
                "pitch": 70,
                "velocity": 64,
                "duration": 0.2,
                "tempo": 120.0
            },
            {
                "start_time": 5.0954545,
                "end_time": 29.0409091,
                "pitch": 76,
                "velocity": 64,
                "duration": 23.9454545,
                "tempo": 120.0
            },
            {
                "start_time": 29.0409091,
                "end_time": 29.1409091,
                "pitch": 72,
                "velocity": 64,
                "duration": 0.1,
                "tempo": 120.0
            },
            {
                "start_time": 29.1409091,
                "end_time": 29.2409091,
                "pitch": 70,
                "velocity": 64,
                "duration": 0.1,
                "tempo": 120.0
            },
            {
                "start_time": 29.0409091,
                "end_time": 29.2409091,
                "pitch": 76,
                "velocity": 64,
                "duration": 0.2,
                "tempo": 120.0
            },
            {
                "start_time": 29.2409091,
                "end_time": 29.4409091,
                "pitch": 72,
                "velocity": 64,
                "duration": 0.2,
                "tempo": 120.0
            },
            {
                "start_time": 29.4409091,
                "end_time": 29.5409091,
                "pitch": 72,
                "velocity": 40,
                "duration": 0.1,
                "tempo": 120.0
            },
            {
                "start_time": 29.5409091,
                "end_time": 29.6409091,
                "pitch": 70,
                "velocity": 40,
                "duration": 0.1,
                "tempo": 120.0
            },
            {
                "start_time": 29.6409091,
                "end_time": 29.8409091,
                "pitch": 72,
                "velocity": 40,
                "duration": 0.2,
                "tempo": 120.0
            },
            {
                "start_time": 29.8409091,
                "end_time": 29.9409091,
                "pitch": 72,
                "velocity": 25,
                "duration": 0.1,
                "tempo": 120.0
            },
            {
                "start_time": 29.9409091,
                "end_time": 30.0409091,
                "pitch": 70,
                "velocity": 25,
                "duration": 0.1,
                "tempo": 120.0
            },
            {
                "start_time": 29.2409091,
                "end_time": 30.0409091,
                "pitch": 76,
                "velocity": 64,
                "duration": 0.8,
                "tempo": 120.0
            },
            {
                "start_time": 30.0409091,
                "end_time": 30.1386364,
                "pitch": 72,
                "velocity": 25,
                "duration": 0.0977273,
                "tempo": 120.0
            },
            {
                "start_time": 30.4295455,
                "end_time": 30.6295455,
                "pitch": 70,
                "velocity": 64,
                "duration": 0.2,
                "tempo": 120.0
            },
            {
                "start_time": 30.6295455,
                "end_time": 30.8295455,
                "pitch": 67,
                "velocity": 64,
                "duration": 0.2,
                "tempo": 120.0
            },
            {
                "start_time": 28.3409091,
                "end_time": 30.8295455,
                "pitch": 78,
                "velocity": 64,
                "duration": 2.4886364,
                "tempo": 120.0
            },
            {
                "start_time": 30.8295455,
                "end_time": 31.0295455,
                "pitch": 65,
                "velocity": 64,
                "duration": 0.2,
                "tempo": 120.0
            },
            {
                "start_time": 31.2318182,
                "end_time": 31.4272727,
                "pitch": 63,
                "velocity": 64,
                "duration": 0.1954545,
                "tempo": 120.0
            },
            {
                "start_time": 31.6227273,
                "end_time": 31.8204545,
                "pitch": 62,
                "velocity": 64,
                "duration": 0.1977273,
                "tempo": 120.0
            },
            {
                "start_time": 32.0204545,
                "end_time": 32.8295455,
                "pitch": 62,
                "velocity": 64,
                "duration": 0.8090909,
                "tempo": 120.0
            },
            {
                "start_time": 11.6840909,
                "end_time": 33.025,
                "pitch": 64,
                "velocity": 64,
                "duration": 21.3409091,
                "tempo": 120.0
            },
            {
                "start_time": 32.8295455,
                "end_time": 33.025,
                "pitch": 64,
                "velocity": 64,
                "duration": 0.1954545,
                "tempo": 120.0
            },
            {
                "start_time": 33.025,
                "end_time": 33.4181818,
                "pitch": 65,
                "velocity": 64,
                "duration": 0.3931818,
                "tempo": 120.0
            },
            {
                "start_time": 33.4204545,
                "end_time": 33.8181818,
                "pitch": 69,
                "velocity": 64,
                "duration": 0.3977273,
                "tempo": 120.0
            },
            {
                "start_time": 33.8181818,
                "end_time": 34.6181818,
                "pitch": 67,
                "velocity": 64,
                "duration": 0.8,
                "tempo": 120.0
            },
            {
                "start_time": 30.8295455,
                "end_time": 34.6181818,
                "pitch": 78,
                "velocity": 64,
                "duration": 3.7886364,
                "tempo": 120.0
            },
            {
                "start_time": 34.6181818,
                "end_time": 35.4159091,
                "pitch": 64,
                "velocity": 64,
                "duration": 0.7977273,
                "tempo": 120.0
            },
            {
                "start_time": 35.4159091,
                "end_time": 35.6159091,
                "pitch": 65,
                "velocity": 64,
                "duration": 0.2,
                "tempo": 120.0
            },
            {
                "start_time": 35.6159091,
                "end_time": 35.8113636,
                "pitch": 67,
                "velocity": 64,
                "duration": 0.1954545,
                "tempo": 120.0
            },
            {
                "start_time": 34.6181818,
                "end_time": 35.8113636,
                "pitch": 78,
                "velocity": 64,
                "duration": 1.1931818,
                "tempo": 120.0
            },
            {
                "start_time": 35.8113636,
                "end_time": 36.0045455,
                "pitch": 65,
                "velocity": 64,
                "duration": 0.1931818,
                "tempo": 120.0
            },
            {
                "start_time": 36.0045455,
                "end_time": 36.4045455,
                "pitch": 64,
                "velocity": 64,
                "duration": 0.4,
                "tempo": 120.0
            },
            {
                "start_time": 36.4045455,
                "end_time": 36.6045455,
                "pitch": 60,
                "velocity": 64,
                "duration": 0.2,
                "tempo": 120.0
            },
            {
                "start_time": 36.6045455,
                "end_time": 36.8045455,
                "pitch": 57,
                "velocity": 64,
                "duration": 0.2,
                "tempo": 120.0
            },
            {
                "start_time": 15.2818182,
                "end_time": 36.8068182,
                "pitch": 66,
                "velocity": 64,
                "duration": 21.525,
                "tempo": 120.0
            },
            {
                "start_time": 36.8045455,
                "end_time": 36.8068182,
                "pitch": 66,
                "velocity": 64,
                "duration": 0.0022727,
                "tempo": 120.0
            },
            {
                "start_time": 36.8068182,
                "end_time": 37.0045455,
                "pitch": 64,
                "velocity": 64,
                "duration": 0.1977273,
                "tempo": 120.0
            },
            {
                "start_time": 37.0045455,
                "end_time": 37.1045455,
                "pitch": 62,
                "velocity": 64,
                "duration": 0.1,
                "tempo": 120.0
            },
            {
                "start_time": 37.1045455,
                "end_time": 37.2045455,
                "pitch": 60,
                "velocity": 64,
                "duration": 0.1,
                "tempo": 120.0
            },
            {
                "start_time": 36.6045455,
                "end_time": 38.2022727,
                "pitch": 33,
                "velocity": 64,
                "duration": 1.5977273,
                "tempo": 120.0
            },
            {
                "start_time": 37.2045455,
                "end_time": 38.2022727,
                "pitch": 62,
                "velocity": 64,
                "duration": 0.9977273,
                "tempo": 120.0
            },
            {
                "start_time": 38.2022727,
                "end_time": 38.6022727,
                "pitch": 57,
                "velocity": 64,
                "duration": 0.4,
                "tempo": 120.0
            },
            {
                "start_time": 38.6022727,
                "end_time": 39.2,
                "pitch": 58,
                "velocity": 64,
                "duration": 0.5977273,
                "tempo": 120.0
            },
            {
                "start_time": 39.2,
                "end_time": 40.1886364,
                "pitch": 65,
                "velocity": 64,
                "duration": 0.9886364,
                "tempo": 120.0
            },
            {
                "start_time": 40.1886364,
                "end_time": 40.7886364,
                "pitch": 60,
                "velocity": 64,
                "duration": 0.6,
                "tempo": 120.0
            },
            {
                "start_time": 40.1886364,
                "end_time": 40.7886364,
                "pitch": 60,
                "velocity": 64,
                "duration": 0.6,
                "tempo": 120.0
            },
            {
                "start_time": 40.7886364,
                "end_time": 41.3886364,
                "pitch": 67,
                "velocity": 64,
                "duration": 0.6,
                "tempo": 120.0
            },
            {
                "start_time": 41.3886364,
                "end_time": 41.5886364,
                "pitch": 69,
                "velocity": 64,
                "duration": 0.2,
                "tempo": 120.0
            },
            {
                "start_time": 41.5886364,
                "end_time": 42.975,
                "pitch": 70,
                "velocity": 64,
                "duration": 1.3863636,
                "tempo": 120.0
            },
            {
                "start_time": 17.8727273,
                "end_time": 42.975,
                "pitch": 77,
                "velocity": 64,
                "duration": 25.1022727,
                "tempo": 120.0
            },
            {
                "start_time": 42.975,
                "end_time": 43.375,
                "pitch": 74,
                "velocity": 64,
                "duration": 0.4,
                "tempo": 120.0
            },
            {
                "start_time": 43.375,
                "end_time": 44.175,
                "pitch": 67,
                "velocity": 64,
                "duration": 0.8,
                "tempo": 120.0
            },
            {
                "start_time": 44.175,
                "end_time": 44.7727273,
                "pitch": 65,
                "velocity": 64,
                "duration": 0.5977273,
                "tempo": 120.0
            },
            {
                "start_time": 44.7727273,
                "end_time": 44.9727273,
                "pitch": 64,
                "velocity": 64,
                "duration": 0.2,
                "tempo": 120.0
            },
            {
                "start_time": 44.9727273,
                "end_time": 45.0727273,
                "pitch": 65,
                "velocity": 64,
                "duration": 0.1,
                "tempo": 120.0
            },
            {
                "start_time": 45.0727273,
                "end_time": 45.1727273,
                "pitch": 64,
                "velocity": 64,
                "duration": 0.1,
                "tempo": 120.0
            },
            {
                "start_time": 45.1727273,
                "end_time": 45.3681818,
                "pitch": 62,
                "velocity": 64,
                "duration": 0.1954545,
                "tempo": 120.0
            },
            {
                "start_time": 45.3681818,
                "end_time": 45.4659091,
                "pitch": 65,
                "velocity": 40,
                "duration": 0.0977273,
                "tempo": 120.0
            },
            {
                "start_time": 45.3681818,
                "end_time": 45.4659091,
                "pitch": 65,
                "velocity": 64,
                "duration": 0.0977273,
                "tempo": 120.0
            },
            {
                "start_time": 45.4659091,
                "end_time": 45.5636364,
                "pitch": 64,
                "velocity": 40,
                "duration": 0.0977273,
                "tempo": 120.0
            },
            {
                "start_time": 45.5636364,
                "end_time": 45.7613636,
                "pitch": 62,
                "velocity": 40,
                "duration": 0.1977273,
                "tempo": 120.0
            },
            {
                "start_time": 45.7613636,
                "end_time": 45.8613636,
                "pitch": 65,
                "velocity": 25,
                "duration": 0.1,
                "tempo": 120.0
            },
            {
                "start_time": 45.7613636,
                "end_time": 45.8613636,
                "pitch": 65,
                "velocity": 40,
                "duration": 0.1,
                "tempo": 120.0
            },
            {
                "start_time": 45.8613636,
                "end_time": 45.9613636,
                "pitch": 64,
                "velocity": 25,
                "duration": 0.1,
                "tempo": 120.0
            },
            {
                "start_time": 46.1613636,
                "end_time": 46.3636364,
                "pitch": 64,
                "velocity": 64,
                "duration": 0.2022727,
                "tempo": 120.0
            },
            {
                "start_time": 46.3636364,
                "end_time": 46.5613636,
                "pitch": 65,
                "velocity": 64,
                "duration": 0.1977273,
                "tempo": 120.0
            },
            {
                "start_time": 46.5613636,
                "end_time": 46.6613636,
                "pitch": 67,
                "velocity": 64,
                "duration": 0.1,
                "tempo": 120.0
            },
            {
                "start_time": 35.8113636,
                "end_time": 46.6613636,
                "pitch": 78,
                "velocity": 64,
                "duration": 10.85,
                "tempo": 120.0
            },
            {
                "start_time": 46.6613636,
                "end_time": 46.7613636,
                "pitch": 65,
                "velocity": 64,
                "duration": 0.1,
                "tempo": 120.0
            },
            {
                "start_time": 46.7613636,
                "end_time": 46.9613636,
                "pitch": 64,
                "velocity": 64,
                "duration": 0.2,
                "tempo": 120.0
            },
            {
                "start_time": 46.9613636,
                "end_time": 47.0613636,
                "pitch": 67,
                "velocity": 40,
                "duration": 0.1,
                "tempo": 120.0
            },
            {
                "start_time": 46.6613636,
                "end_time": 47.0613636,
                "pitch": 78,
                "velocity": 64,
                "duration": 0.4,
                "tempo": 120.0
            },
            {
                "start_time": 47.0613636,
                "end_time": 47.1613636,
                "pitch": 65,
                "velocity": 40,
                "duration": 0.1,
                "tempo": 120.0
            },
            {
                "start_time": 47.1613636,
                "end_time": 47.3590909,
                "pitch": 64,
                "velocity": 40,
                "duration": 0.1977273,
                "tempo": 120.0
            },
            {
                "start_time": 47.3590909,
                "end_time": 47.4590909,
                "pitch": 67,
                "velocity": 25,
                "duration": 0.1,
                "tempo": 120.0
            },
            {
                "start_time": 47.4590909,
                "end_time": 47.5590909,
                "pitch": 65,
                "velocity": 25,
                "duration": 0.1,
                "tempo": 120.0
            },
            {
                "start_time": 47.7590909,
                "end_time": 47.9568182,
                "pitch": 65,
                "velocity": 64,
                "duration": 0.1977273,
                "tempo": 120.0
            },
            {
                "start_time": 47.9568182,
                "end_time": 48.1590909,
                "pitch": 67,
                "velocity": 64,
                "duration": 0.2022727,
                "tempo": 120.0
            },
            {
                "start_time": 48.1590909,
                "end_time": 48.2590909,
                "pitch": 69,
                "velocity": 64,
                "duration": 0.1,
                "tempo": 120.0
            },
            {
                "start_time": 48.2590909,
                "end_time": 48.3590909,
                "pitch": 67,
                "velocity": 64,
                "duration": 0.1,
                "tempo": 120.0
            },
            {
                "start_time": 48.3590909,
                "end_time": 48.5545455,
                "pitch": 65,
                "velocity": 64,
                "duration": 0.1954545,
                "tempo": 120.0
            },
            {
                "start_time": 48.5545455,
                "end_time": 48.6522727,
                "pitch": 69,
                "velocity": 40,
                "duration": 0.0977273,
                "tempo": 120.0
            },
            {
                "start_time": 48.6522727,
                "end_time": 48.75,
                "pitch": 67,
                "velocity": 40,
                "duration": 0.0977273,
                "tempo": 120.0
            },
            {
                "start_time": 47.0613636,
                "end_time": 48.75,
                "pitch": 78,
                "velocity": 40,
                "duration": 1.6886364,
                "tempo": 120.0
            },
            {
                "start_time": 38.2022727,
                "end_time": 48.95,
                "pitch": 33,
                "velocity": 64,
                "duration": 10.7477273,
                "tempo": 120.0
            },
            {
                "start_time": 48.75,
                "end_time": 48.95,
                "pitch": 65,
                "velocity": 40,
                "duration": 0.2,
                "tempo": 120.0
            },
            {
                "start_time": 48.95,
                "end_time": 49.05,
                "pitch": 69,
                "velocity": 25,
                "duration": 0.1,
                "tempo": 120.0
            },
            {
                "start_time": 49.05,
                "end_time": 49.1477273,
                "pitch": 67,
                "velocity": 25,
                "duration": 0.0977273,
                "tempo": 120.0
            },
            {
                "start_time": 48.75,
                "end_time": 49.15,
                "pitch": 78,
                "velocity": 40,
                "duration": 0.4,
                "tempo": 120.0
            },
            {
                "start_time": 49.1477273,
                "end_time": 49.15,
                "pitch": 78,
                "velocity": 25,
                "duration": 0.0022727,
                "tempo": 120.0
            },
            {
                "start_time": 49.15,
                "end_time": 49.2477273,
                "pitch": 65,
                "velocity": 25,
                "duration": 0.0977273,
                "tempo": 120.0
            },
            {
                "start_time": 49.5477273,
                "end_time": 49.9454545,
                "pitch": 69,
                "velocity": 64,
                "duration": 0.3977273,
                "tempo": 120.0
            },
            {
                "start_time": 49.9454545,
                "end_time": 50.1454545,
                "pitch": 69,
                "velocity": 64,
                "duration": 0.2,
                "tempo": 120.0
            },
            {
                "start_time": 50.1454545,
                "end_time": 50.5454545,
                "pitch": 67,
                "velocity": 64,
                "duration": 0.4,
                "tempo": 120.0
            },
            {
                "start_time": 50.5454545,
                "end_time": 50.7454545,
                "pitch": 65,
                "velocity": 64,
                "duration": 0.2,
                "tempo": 120.0
            },
            {
                "start_time": 50.7454545,
                "end_time": 50.9454545,
                "pitch": 67,
                "velocity": 64,
                "duration": 0.2,
                "tempo": 120.0
            },
            {
                "start_time": 50.5454545,
                "end_time": 50.9454545,
                "pitch": 78,
                "velocity": 64,
                "duration": 0.4,
                "tempo": 120.0
            },
            {
                "start_time": 50.9454545,
                "end_time": 51.1454545,
                "pitch": 65,
                "velocity": 64,
                "duration": 0.2,
                "tempo": 120.0
            },
            {
                "start_time": 51.1454545,
                "end_time": 51.3409091,
                "pitch": 64,
                "velocity": 64,
                "duration": 0.1954545,
                "tempo": 120.0
            },
            {
                "start_time": 51.3409091,
                "end_time": 51.4386364,
                "pitch": 65,
                "velocity": 64,
                "duration": 0.0977273,
                "tempo": 120.0
            },
            {
                "start_time": 51.4386364,
                "end_time": 51.5363636,
                "pitch": 64,
                "velocity": 64,
                "duration": 0.0977273,
                "tempo": 120.0
            },
            {
                "start_time": 51.5363636,
                "end_time": 51.7363636,
                "pitch": 62,
                "velocity": 64,
                "duration": 0.2,
                "tempo": 120.0
            },
            {
                "start_time": 51.7363636,
                "end_time": 51.8340909,
                "pitch": 65,
                "velocity": 40,
                "duration": 0.0977273,
                "tempo": 120.0
            },
            {
                "start_time": 51.8340909,
                "end_time": 51.9340909,
                "pitch": 64,
                "velocity": 40,
                "duration": 0.1,
                "tempo": 120.0
            },
            {
                "start_time": 51.9340909,
                "end_time": 52.1340909,
                "pitch": 62,
                "velocity": 40,
                "duration": 0.2,
                "tempo": 120.0
            },
            {
                "start_time": 52.1340909,
                "end_time": 52.2340909,
                "pitch": 65,
                "velocity": 25,
                "duration": 0.1,
                "tempo": 120.0
            },
            {
                "start_time": 52.1340909,
                "end_time": 52.2340909,
                "pitch": 65,
                "velocity": 40,
                "duration": 0.1,
                "tempo": 120.0
            },
            {
                "start_time": 52.2340909,
                "end_time": 52.3340909,
                "pitch": 64,
                "velocity": 25,
                "duration": 0.1,
                "tempo": 120.0
            },
            {
                "start_time": 52.5318182,
                "end_time": 52.7318182,
                "pitch": 64,
                "velocity": 64,
                "duration": 0.2,
                "tempo": 120.0
            },
            {
                "start_time": 52.7318182,
                "end_time": 52.9318182,
                "pitch": 65,
                "velocity": 64,
                "duration": 0.2,
                "tempo": 120.0
            },
            {
                "start_time": 52.9318182,
                "end_time": 53.0318182,
                "pitch": 67,
                "velocity": 64,
                "duration": 0.1,
                "tempo": 120.0
            },
            {
                "start_time": 50.9454545,
                "end_time": 53.0318182,
                "pitch": 78,
                "velocity": 64,
                "duration": 2.0863636,
                "tempo": 120.0
            },
            {
                "start_time": 53.0318182,
                "end_time": 53.1318182,
                "pitch": 65,
                "velocity": 64,
                "duration": 0.1,
                "tempo": 120.0
            },
            {
                "start_time": 53.1318182,
                "end_time": 53.3318182,
                "pitch": 64,
                "velocity": 64,
                "duration": 0.2,
                "tempo": 120.0
            },
            {
                "start_time": 53.3318182,
                "end_time": 53.4318182,
                "pitch": 67,
                "velocity": 40,
                "duration": 0.1,
                "tempo": 120.0
            },
            {
                "start_time": 53.0318182,
                "end_time": 53.4318182,
                "pitch": 78,
                "velocity": 64,
                "duration": 0.4,
                "tempo": 120.0
            },
            {
                "start_time": 53.4318182,
                "end_time": 53.5318182,
                "pitch": 65,
                "velocity": 40,
                "duration": 0.1,
                "tempo": 120.0
            },
            {
                "start_time": 53.5318182,
                "end_time": 53.7318182,
                "pitch": 67,
                "velocity": 40,
                "duration": 0.2,
                "tempo": 120.0
            },
            {
                "start_time": 53.7318182,
                "end_time": 53.8318182,
                "pitch": 69,
                "velocity": 64,
                "duration": 0.1,
                "tempo": 120.0
            },
            {
                "start_time": 53.8318182,
                "end_time": 53.9318182,
                "pitch": 67,
                "velocity": 64,
                "duration": 0.1,
                "tempo": 120.0
            },
            {
                "start_time": 53.4318182,
                "end_time": 53.9318182,
                "pitch": 78,
                "velocity": 40,
                "duration": 0.5,
                "tempo": 120.0
            },
            {
                "start_time": 53.9318182,
                "end_time": 54.1272727,
                "pitch": 65,
                "velocity": 64,
                "duration": 0.1954545,
                "tempo": 120.0
            },
            {
                "start_time": 54.1272727,
                "end_time": 54.3204545,
                "pitch": 67,
                "velocity": 64,
                "duration": 0.1931818,
                "tempo": 120.0
            },
            {
                "start_time": 30.0409091,
                "end_time": 54.3204545,
                "pitch": 76,
                "velocity": 25,
                "duration": 24.2795455,
                "tempo": 120.0
            },
            {
                "start_time": 54.3204545,
                "end_time": 54.525,
                "pitch": 72,
                "velocity": 64,
                "duration": 0.2045455,
                "tempo": 120.0
            },
            {
                "start_time": 54.525,
                "end_time": 54.6295455,
                "pitch": 74,
                "velocity": 64,
                "duration": 0.1045455,
                "tempo": 120.0
            },
            {
                "start_time": 54.6295455,
                "end_time": 54.7318182,
                "pitch": 72,
                "velocity": 64,
                "duration": 0.1022727,
                "tempo": 120.0
            },
            {
                "start_time": 54.7318182,
                "end_time": 54.9272727,
                "pitch": 74,
                "velocity": 64,
                "duration": 0.1954545,
                "tempo": 120.0
            },
            {
                "start_time": 54.9272727,
                "end_time": 55.025,
                "pitch": 74,
                "velocity": 40,
                "duration": 0.0977273,
                "tempo": 120.0
            },
            {
                "start_time": 55.025,
                "end_time": 55.1227273,
                "pitch": 72,
                "velocity": 40,
                "duration": 0.0977273,
                "tempo": 120.0
            },
            {
                "start_time": 55.1227273,
                "end_time": 55.3204545,
                "pitch": 74,
                "velocity": 40,
                "duration": 0.1977273,
                "tempo": 120.0
            },
            {
                "start_time": 55.3204545,
                "end_time": 55.4204545,
                "pitch": 74,
                "velocity": 25,
                "duration": 0.1,
                "tempo": 120.0
            },
            {
                "start_time": 55.4204545,
                "end_time": 55.5204545,
                "pitch": 72,
                "velocity": 25,
                "duration": 0.1,
                "tempo": 120.0
            },
            {
                "start_time": 55.5204545,
                "end_time": 55.6204545,
                "pitch": 74,
                "velocity": 25,
                "duration": 0.1,
                "tempo": 120.0
            },
            {
                "start_time": 55.9227273,
                "end_time": 56.1204545,
                "pitch": 72,
                "velocity": 64,
                "duration": 0.1977273,
                "tempo": 120.0
            },
            {
                "start_time": 56.1204545,
                "end_time": 56.3204545,
                "pitch": 69,
                "velocity": 64,
                "duration": 0.2,
                "tempo": 120.0
            },
            {
                "start_time": 56.3204545,
                "end_time": 56.5204545,
                "pitch": 67,
                "velocity": 64,
                "duration": 0.2,
                "tempo": 120.0
            },
            {
                "start_time": 56.7204545,
                "end_time": 56.9159091,
                "pitch": 65,
                "velocity": 64,
                "duration": 0.1954545,
                "tempo": 120.0
            },
            {
                "start_time": 57.1113636,
                "end_time": 57.3090909,
                "pitch": 64,
                "velocity": 64,
                "duration": 0.1977273,
                "tempo": 120.0
            },
            {
                "start_time": 57.5090909,
                "end_time": 57.8772727,
                "pitch": 60,
                "velocity": 64,
                "duration": 0.3681818,
                "tempo": 120.0
            },
            {
                "start_time": 57.8772727,
                "end_time": 63.6909091,
                "pitch": 63,
                "velocity": 64,
                "duration": 5.8136364,
                "tempo": 120.0
            },
            {
                "start_time": 64.0840909,
                "end_time": 64.6818182,
                "pitch": 61,
                "velocity": 64,
                "duration": 0.5977273,
                "tempo": 120.0
            },
            {
                "start_time": 64.6818182,
                "end_time": 64.8818182,
                "pitch": 63,
                "velocity": 64,
                "duration": 0.2,
                "tempo": 120.0
            },
            {
                "start_time": 64.8818182,
                "end_time": 65.2818182,
                "pitch": 64,
                "velocity": 64,
                "duration": 0.4,
                "tempo": 120.0
            },
            {
                "start_time": 65.2818182,
                "end_time": 65.6818182,
                "pitch": 68,
                "velocity": 64,
                "duration": 0.4,
                "tempo": 120.0
            },
            {
                "start_time": 39.2,
                "end_time": 66.4840909,
                "pitch": 66,
                "velocity": 64,
                "duration": 27.2840909,
                "tempo": 120.0
            },
            {
                "start_time": 65.6818182,
                "end_time": 66.4840909,
                "pitch": 66,
                "velocity": 64,
                "duration": 0.8022727,
                "tempo": 120.0
            },
            {
                "start_time": 66.4840909,
                "end_time": 67.2772727,
                "pitch": 63,
                "velocity": 64,
                "duration": 0.7931818,
                "tempo": 120.0
            },
            {
                "start_time": 67.2772727,
                "end_time": 67.4727273,
                "pitch": 64,
                "velocity": 64,
                "duration": 0.1954545,
                "tempo": 120.0
            },
            {
                "start_time": 67.4727273,
                "end_time": 67.6727273,
                "pitch": 66,
                "velocity": 64,
                "duration": 0.2,
                "tempo": 120.0
            },
            {
                "start_time": 67.4727273,
                "end_time": 67.6727273,
                "pitch": 66,
                "velocity": 64,
                "duration": 0.2,
                "tempo": 120.0
            },
            {
                "start_time": 67.6727273,
                "end_time": 67.875,
                "pitch": 64,
                "velocity": 64,
                "duration": 0.2022727,
                "tempo": 120.0
            },
            {
                "start_time": 56.1204545,
                "end_time": 68.2840909,
                "pitch": 45,
                "velocity": 64,
                "duration": 12.1636364,
                "tempo": 120.0
            },
            {
                "start_time": 67.875,
                "end_time": 68.2840909,
                "pitch": 63,
                "velocity": 64,
                "duration": 0.4090909,
                "tempo": 120.0
            },
            {
                "start_time": 68.2840909,
                "end_time": 68.4795455,
                "pitch": 59,
                "velocity": 64,
                "duration": 0.1954545,
                "tempo": 120.0
            },
            {
                "start_time": 68.4795455,
                "end_time": 68.675,
                "pitch": 56,
                "velocity": 64,
                "duration": 0.1954545,
                "tempo": 120.0
            },
            {
                "start_time": 68.675,
                "end_time": 68.875,
                "pitch": 63,
                "velocity": 64,
                "duration": 0.2,
                "tempo": 120.0
            },
            {
                "start_time": 68.875,
                "end_time": 68.975,
                "pitch": 61,
                "velocity": 64,
                "duration": 0.1,
                "tempo": 120.0
            },
            {
                "start_time": 68.975,
                "end_time": 69.0772727,
                "pitch": 59,
                "velocity": 64,
                "duration": 0.1022727,
                "tempo": 120.0
            },
            {
                "start_time": 65.2818182,
                "end_time": 70.075,
                "pitch": 23,
                "velocity": 64,
                "duration": 4.7931818,
                "tempo": 120.0
            },
            {
                "start_time": 69.0772727,
                "end_time": 70.075,
                "pitch": 61,
                "velocity": 64,
                "duration": 0.9977273,
                "tempo": 120.0
            },
            {
                "start_time": 70.075,
                "end_time": 70.475,
                "pitch": 56,
                "velocity": 64,
                "duration": 0.4,
                "tempo": 120.0
            },
            {
                "start_time": 70.475,
                "end_time": 71.0681818,
                "pitch": 57,
                "velocity": 64,
                "duration": 0.5931818,
                "tempo": 120.0
            },
            {
                "start_time": 68.2840909,
                "end_time": 72.0681818,
                "pitch": 45,
                "velocity": 64,
                "duration": 3.7840909,
                "tempo": 120.0
            },
            {
                "start_time": 69.0772727,
                "end_time": 72.0681818,
                "pitch": 64,
                "velocity": 64,
                "duration": 2.9909091,
                "tempo": 120.0
            },
            {
                "start_time": 71.0681818,
                "end_time": 72.0681818,
                "pitch": 64,
                "velocity": 64,
                "duration": 1.0,
                "tempo": 120.0
            },
            {
                "start_time": 72.0681818,
                "end_time": 72.6681818,
                "pitch": 59,
                "velocity": 64,
                "duration": 0.6,
                "tempo": 120.0
            },
            {
                "start_time": 70.075,
                "end_time": 73.2681818,
                "pitch": 23,
                "velocity": 64,
                "duration": 3.1931818,
                "tempo": 120.0
            },
            {
                "start_time": 71.0681818,
                "end_time": 73.2681818,
                "pitch": 66,
                "velocity": 64,
                "duration": 2.2,
                "tempo": 120.0
            },
            {
                "start_time": 72.6681818,
                "end_time": 73.2681818,
                "pitch": 66,
                "velocity": 64,
                "duration": 0.6,
                "tempo": 120.0
            },
            {
                "start_time": 73.2681818,
                "end_time": 73.4681818,
                "pitch": 68,
                "velocity": 64,
                "duration": 0.2,
                "tempo": 120.0
            },
            {
                "start_time": 73.4681818,
                "end_time": 74.8613636,
                "pitch": 69,
                "velocity": 64,
                "duration": 1.3931818,
                "tempo": 120.0
            },
            {
                "start_time": 54.3204545,
                "end_time": 74.8613636,
                "pitch": 76,
                "velocity": 64,
                "duration": 20.5409091,
                "tempo": 120.0
            },
            {
                "start_time": 74.8613636,
                "end_time": 75.2613636,
                "pitch": 73,
                "velocity": 64,
                "duration": 0.4,
                "tempo": 120.0
            },
            {
                "start_time": 75.2613636,
                "end_time": 76.0613636,
                "pitch": 66,
                "velocity": 64,
                "duration": 0.8,
                "tempo": 120.0
            },
            {
                "start_time": 76.0613636,
                "end_time": 76.6636364,
                "pitch": 64,
                "velocity": 64,
                "duration": 0.6022727,
                "tempo": 120.0
            },
            {
                "start_time": 76.0613636,
                "end_time": 76.6636364,
                "pitch": 64,
                "velocity": 64,
                "duration": 0.6022727,
                "tempo": 120.0
            },
            {
                "start_time": 76.6636364,
                "end_time": 76.8636364,
                "pitch": 63,
                "velocity": 64,
                "duration": 0.2,
                "tempo": 120.0
            },
            {
                "start_time": 76.8636364,
                "end_time": 76.9636364,
                "pitch": 64,
                "velocity": 64,
                "duration": 0.1,
                "tempo": 120.0
            },
            {
                "start_time": 76.9636364,
                "end_time": 77.0613636,
                "pitch": 63,
                "velocity": 64,
                "duration": 0.0977273,
                "tempo": 120.0
            },
            {
                "start_time": 77.0613636,
                "end_time": 77.2568182,
                "pitch": 61,
                "velocity": 64,
                "duration": 0.1954545,
                "tempo": 120.0
            },
            {
                "start_time": 77.2568182,
                "end_time": 77.3545455,
                "pitch": 64,
                "velocity": 40,
                "duration": 0.0977273,
                "tempo": 120.0
            },
            {
                "start_time": 77.2568182,
                "end_time": 77.3545455,
                "pitch": 64,
                "velocity": 64,
                "duration": 0.0977273,
                "tempo": 120.0
            },
            {
                "start_time": 77.3545455,
                "end_time": 77.4522727,
                "pitch": 63,
                "velocity": 40,
                "duration": 0.0977273,
                "tempo": 120.0
            },
            {
                "start_time": 77.4522727,
                "end_time": 77.6545455,
                "pitch": 61,
                "velocity": 40,
                "duration": 0.2022727,
                "tempo": 120.0
            },
            {
                "start_time": 77.6545455,
                "end_time": 77.7545455,
                "pitch": 64,
                "velocity": 25,
                "duration": 0.1,
                "tempo": 120.0
            },
            {
                "start_time": 77.6545455,
                "end_time": 77.7545455,
                "pitch": 64,
                "velocity": 40,
                "duration": 0.1,
                "tempo": 120.0
            },
            {
                "start_time": 77.7545455,
                "end_time": 77.8545455,
                "pitch": 63,
                "velocity": 25,
                "duration": 0.1,
                "tempo": 120.0
            },
            {
                "start_time": 78.0545455,
                "end_time": 78.2522727,
                "pitch": 63,
                "velocity": 64,
                "duration": 0.1977273,
                "tempo": 120.0
            },
            {
                "start_time": 78.2522727,
                "end_time": 78.4545455,
                "pitch": 64,
                "velocity": 64,
                "duration": 0.2022727,
                "tempo": 120.0
            },
            {
                "start_time": 78.4545455,
                "end_time": 78.5545455,
                "pitch": 66,
                "velocity": 64,
                "duration": 0.1,
                "tempo": 120.0
            },
            {
                "start_time": 78.4545455,
                "end_time": 78.5545455,
                "pitch": 66,
                "velocity": 64,
                "duration": 0.1,
                "tempo": 120.0
            },
            {
                "start_time": 78.5545455,
                "end_time": 78.6545455,
                "pitch": 64,
                "velocity": 64,
                "duration": 0.1,
                "tempo": 120.0
            },
            {
                "start_time": 78.5545455,
                "end_time": 78.6545455,
                "pitch": 64,
                "velocity": 64,
                "duration": 0.1,
                "tempo": 120.0
            },
            {
                "start_time": 78.6545455,
                "end_time": 78.8545455,
                "pitch": 63,
                "velocity": 64,
                "duration": 0.2,
                "tempo": 120.0
            },
            {
                "start_time": 78.8545455,
                "end_time": 78.9568182,
                "pitch": 66,
                "velocity": 40,
                "duration": 0.1022727,
                "tempo": 120.0
            },
            {
                "start_time": 78.8545455,
                "end_time": 78.9568182,
                "pitch": 66,
                "velocity": 64,
                "duration": 0.1022727,
                "tempo": 120.0
            },
            {
                "start_time": 78.9568182,
                "end_time": 79.0568182,
                "pitch": 64,
                "velocity": 40,
                "duration": 0.1,
                "tempo": 120.0
            },
            {
                "start_time": 78.9568182,
                "end_time": 79.0568182,
                "pitch": 64,
                "velocity": 40,
                "duration": 0.1,
                "tempo": 120.0
            },
            {
                "start_time": 79.0568182,
                "end_time": 79.2545455,
                "pitch": 63,
                "velocity": 40,
                "duration": 0.1977273,
                "tempo": 120.0
            },
            {
                "start_time": 79.2545455,
                "end_time": 79.3545455,
                "pitch": 66,
                "velocity": 25,
                "duration": 0.1,
                "tempo": 120.0
            },
            {
                "start_time": 79.2545455,
                "end_time": 79.3545455,
                "pitch": 66,
                "velocity": 40,
                "duration": 0.1,
                "tempo": 120.0
            },
            {
                "start_time": 79.3545455,
                "end_time": 79.4545455,
                "pitch": 64,
                "velocity": 25,
                "duration": 0.1,
                "tempo": 120.0
            },
            {
                "start_time": 79.3545455,
                "end_time": 79.4545455,
                "pitch": 64,
                "velocity": 25,
                "duration": 0.1,
                "tempo": 120.0
            },
            {
                "start_time": 79.65,
                "end_time": 79.8454545,
                "pitch": 64,
                "velocity": 64,
                "duration": 0.1954545,
                "tempo": 120.0
            },
            {
                "start_time": 73.2681818,
                "end_time": 80.05,
                "pitch": 23,
                "velocity": 64,
                "duration": 6.7818182,
                "tempo": 120.0
            },
            {
                "start_time": 79.8454545,
                "end_time": 80.05,
                "pitch": 66,
                "velocity": 64,
                "duration": 0.2045455,
                "tempo": 120.0
            },
            {
                "start_time": 79.8454545,
                "end_time": 80.05,
                "pitch": 66,
                "velocity": 64,
                "duration": 0.2045455,
                "tempo": 120.0
            },
            {
                "start_time": 80.05,
                "end_time": 80.1522727,
                "pitch": 68,
                "velocity": 64,
                "duration": 0.1022727,
                "tempo": 120.0
            },
            {
                "start_time": 65.6818182,
                "end_time": 80.1522727,
                "pitch": 79,
                "velocity": 64,
                "duration": 14.4704545,
                "tempo": 120.0
            },
            {
                "start_time": 80.1522727,
                "end_time": 80.2545455,
                "pitch": 66,
                "velocity": 64,
                "duration": 0.1022727,
                "tempo": 120.0
            },
            {
                "start_time": 80.05,
                "end_time": 80.45,
                "pitch": 23,
                "velocity": 64,
                "duration": 0.4,
                "tempo": 120.0
            },
            {
                "start_time": 80.2545455,
                "end_time": 80.45,
                "pitch": 64,
                "velocity": 64,
                "duration": 0.1954545,
                "tempo": 120.0
            },
            {
                "start_time": 80.2545455,
                "end_time": 80.45,
                "pitch": 64,
                "velocity": 64,
                "duration": 0.1954545,
                "tempo": 120.0
            },
            {
                "start_time": 80.45,
                "end_time": 80.5477273,
                "pitch": 68,
                "velocity": 40,
                "duration": 0.0977273,
                "tempo": 120.0
            },
            {
                "start_time": 80.5477273,
                "end_time": 80.6454545,
                "pitch": 66,
                "velocity": 40,
                "duration": 0.0977273,
                "tempo": 120.0
            },
            {
                "start_time": 80.45,
                "end_time": 80.8477273,
                "pitch": 23,
                "velocity": 64,
                "duration": 0.3977273,
                "tempo": 120.0
            },
            {
                "start_time": 80.6454545,
                "end_time": 80.8477273,
                "pitch": 64,
                "velocity": 40,
                "duration": 0.2022727,
                "tempo": 120.0
            },
            {
                "start_time": 80.6454545,
                "end_time": 80.8477273,
                "pitch": 64,
                "velocity": 40,
                "duration": 0.2022727,
                "tempo": 120.0
            },
            {
                "start_time": 80.8477273,
                "end_time": 80.9477273,
                "pitch": 68,
                "velocity": 25,
                "duration": 0.1,
                "tempo": 120.0
            },
            {
                "start_time": 80.9477273,
                "end_time": 81.0477273,
                "pitch": 66,
                "velocity": 25,
                "duration": 0.1,
                "tempo": 120.0
            },
            {
                "start_time": 81.0477273,
                "end_time": 81.1477273,
                "pitch": 64,
                "velocity": 25,
                "duration": 0.1,
                "tempo": 120.0
            },
            {
                "start_time": 81.0477273,
                "end_time": 81.1477273,
                "pitch": 64,
                "velocity": 25,
                "duration": 0.1,
                "tempo": 120.0
            },
            {
                "start_time": 81.4477273,
                "end_time": 81.8477273,
                "pitch": 68,
                "velocity": 64,
                "duration": 0.4,
                "tempo": 120.0
            },
            {
                "start_time": 81.8477273,
                "end_time": 82.0477273,
                "pitch": 68,
                "velocity": 64,
                "duration": 0.2,
                "tempo": 120.0
            },
            {
                "start_time": 82.0477273,
                "end_time": 82.4477273,
                "pitch": 66,
                "velocity": 64,
                "duration": 0.4,
                "tempo": 120.0
            },
            {
                "start_time": 82.4477273,
                "end_time": 82.6477273,
                "pitch": 64,
                "velocity": 64,
                "duration": 0.2,
                "tempo": 120.0
            },
            {
                "start_time": 82.6477273,
                "end_time": 82.8431818,
                "pitch": 66,
                "velocity": 64,
                "duration": 0.1954545,
                "tempo": 120.0
            },
            {
                "start_time": 82.8431818,
                "end_time": 83.0386364,
                "pitch": 64,
                "velocity": 64,
                "duration": 0.1954545,
                "tempo": 120.0
            },
            {
                "start_time": 82.8431818,
                "end_time": 83.0386364,
                "pitch": 64,
                "velocity": 64,
                "duration": 0.1954545,
                "tempo": 120.0
            },
            {
                "start_time": 83.0386364,
                "end_time": 83.2386364,
                "pitch": 63,
                "velocity": 64,
                "duration": 0.2,
                "tempo": 120.0
            },
            {
                "start_time": 83.2386364,
                "end_time": 83.3386364,
                "pitch": 64,
                "velocity": 64,
                "duration": 0.1,
                "tempo": 120.0
            },
            {
                "start_time": 83.3386364,
                "end_time": 83.4409091,
                "pitch": 63,
                "velocity": 64,
                "duration": 0.1022727,
                "tempo": 120.0
            },
            {
                "start_time": 83.4409091,
                "end_time": 83.6409091,
                "pitch": 61,
                "velocity": 64,
                "duration": 0.2,
                "tempo": 120.0
            },
            {
                "start_time": 83.6409091,
                "end_time": 83.7409091,
                "pitch": 64,
                "velocity": 40,
                "duration": 0.1,
                "tempo": 120.0
            },
            {
                "start_time": 83.6409091,
                "end_time": 83.7409091,
                "pitch": 64,
                "velocity": 64,
                "duration": 0.1,
                "tempo": 120.0
            },
            {
                "start_time": 83.7409091,
                "end_time": 83.8409091,
                "pitch": 63,
                "velocity": 40,
                "duration": 0.1,
                "tempo": 120.0
            },
            {
                "start_time": 83.8409091,
                "end_time": 84.0409091,
                "pitch": 61,
                "velocity": 40,
                "duration": 0.2,
                "tempo": 120.0
            },
            {
                "start_time": 84.0409091,
                "end_time": 84.1409091,
                "pitch": 64,
                "velocity": 25,
                "duration": 0.1,
                "tempo": 120.0
            },
            {
                "start_time": 84.1409091,
                "end_time": 84.2409091,
                "pitch": 63,
                "velocity": 25,
                "duration": 0.1,
                "tempo": 120.0
            },
            {
                "start_time": 84.4409091,
                "end_time": 84.6409091,
                "pitch": 63,
                "velocity": 64,
                "duration": 0.2,
                "tempo": 120.0
            },
            {
                "start_time": 84.6409091,
                "end_time": 84.8409091,
                "pitch": 64,
                "velocity": 64,
                "duration": 0.2,
                "tempo": 120.0
            },
            {
                "start_time": 84.8409091,
                "end_time": 84.9409091,
                "pitch": 66,
                "velocity": 64,
                "duration": 0.1,
                "tempo": 120.0
            },
            {
                "start_time": 84.8409091,
                "end_time": 84.9409091,
                "pitch": 66,
                "velocity": 64,
                "duration": 0.1,
                "tempo": 120.0
            },
            {
                "start_time": 84.9409091,
                "end_time": 85.0409091,
                "pitch": 64,
                "velocity": 64,
                "duration": 0.1,
                "tempo": 120.0
            },
            {
                "start_time": 85.0409091,
                "end_time": 85.2409091,
                "pitch": 63,
                "velocity": 64,
                "duration": 0.2,
                "tempo": 120.0
            },
            {
                "start_time": 85.2409091,
                "end_time": 85.3409091,
                "pitch": 66,
                "velocity": 40,
                "duration": 0.1,
                "tempo": 120.0
            },
            {
                "start_time": 85.3409091,
                "end_time": 85.4409091,
                "pitch": 64,
                "velocity": 40,
                "duration": 0.1,
                "tempo": 120.0
            },
            {
                "start_time": 85.3409091,
                "end_time": 85.4409091,
                "pitch": 64,
                "velocity": 40,
                "duration": 0.1,
                "tempo": 120.0
            },
            {
                "start_time": 85.4409091,
                "end_time": 85.6431818,
                "pitch": 66,
                "velocity": 40,
                "duration": 0.2022727,
                "tempo": 120.0
            },
            {
                "start_time": 85.6431818,
                "end_time": 85.7431818,
                "pitch": 68,
                "velocity": 64,
                "duration": 0.1,
                "tempo": 120.0
            },
            {
                "start_time": 80.1522727,
                "end_time": 85.7431818,
                "pitch": 79,
                "velocity": 64,
                "duration": 5.5909091,
                "tempo": 120.0
            },
            {
                "start_time": 85.7431818,
                "end_time": 85.8431818,
                "pitch": 66,
                "velocity": 64,
                "duration": 0.1,
                "tempo": 120.0
            },
            {
                "start_time": 85.8431818,
                "end_time": 86.0386364,
                "pitch": 64,
                "velocity": 64,
                "duration": 0.1954545,
                "tempo": 120.0
            },
            {
                "start_time": 86.0386364,
                "end_time": 86.2340909,
                "pitch": 66,
                "velocity": 64,
                "duration": 0.1954545,
                "tempo": 120.0
            },
            {
                "start_time": 86.0386364,
                "end_time": 86.2340909,
                "pitch": 66,
                "velocity": 64,
                "duration": 0.1954545,
                "tempo": 120.0
            },
            {
                "start_time": 86.2340909,
                "end_time": 86.4386364,
                "pitch": 71,
                "velocity": 64,
                "duration": 0.2045455,
                "tempo": 120.0
            },
            {
                "start_time": 86.4386364,
                "end_time": 86.5409091,
                "pitch": 73,
                "velocity": 64,
                "duration": 0.1022727,
                "tempo": 120.0
            },
            {
                "start_time": 86.5409091,
                "end_time": 86.6431818,
                "pitch": 71,
                "velocity": 64,
                "duration": 0.1022727,
                "tempo": 120.0
            },
            {
                "start_time": 74.8613636,
                "end_time": 86.6431818,
                "pitch": 76,
                "velocity": 64,
                "duration": 11.7818182,
                "tempo": 120.0
            },
            {
                "start_time": 86.6431818,
                "end_time": 86.8386364,
                "pitch": 73,
                "velocity": 64,
                "duration": 0.1954545,
                "tempo": 120.0
            },
            {
                "start_time": 86.5409091,
                "end_time": 86.9363636,
                "pitch": 57,
                "velocity": 64,
                "duration": 0.3954545,
                "tempo": 120.0
            },
            {
                "start_time": 86.8386364,
                "end_time": 86.9363636,
                "pitch": 73,
                "velocity": 40,
                "duration": 0.0977273,
                "tempo": 120.0
            },
            {
                "start_time": 86.9363636,
                "end_time": 87.0340909,
                "pitch": 71,
                "velocity": 40,
                "duration": 0.0977273,
                "tempo": 120.0
            },
            {
                "start_time": 86.6431818,
                "end_time": 87.0340909,
                "pitch": 76,
                "velocity": 64,
                "duration": 0.3909091,
                "tempo": 120.0
            },
            {
                "start_time": 87.0340909,
                "end_time": 87.2340909,
                "pitch": 73,
                "velocity": 40,
                "duration": 0.2,
                "tempo": 120.0
            },
            {
                "start_time": 86.9363636,
                "end_time": 87.3340909,
                "pitch": 57,
                "velocity": 40,
                "duration": 0.3977273,
                "tempo": 120.0
            },
            {
                "start_time": 87.2340909,
                "end_time": 87.3340909,
                "pitch": 73,
                "velocity": 25,
                "duration": 0.1,
                "tempo": 120.0
            },
            {
                "start_time": 87.3340909,
                "end_time": 87.4318182,
                "pitch": 71,
                "velocity": 25,
                "duration": 0.0977273,
                "tempo": 120.0
            },
            {
                "start_time": 87.0340909,
                "end_time": 87.4318182,
                "pitch": 76,
                "velocity": 40,
                "duration": 0.3977273,
                "tempo": 120.0
            },
            {
                "start_time": 87.4318182,
                "end_time": 87.5340909,
                "pitch": 73,
                "velocity": 25,
                "duration": 0.1022727,
                "tempo": 120.0
            },
            {
                "start_time": 87.8340909,
                "end_time": 88.0340909,
                "pitch": 71,
                "velocity": 64,
                "duration": 0.2,
                "tempo": 120.0
            },
            {
                "start_time": 88.0340909,
                "end_time": 88.2318182,
                "pitch": 68,
                "velocity": 64,
                "duration": 0.1977273,
                "tempo": 120.0
            },
            {
                "start_time": 88.0340909,
                "end_time": 88.2318182,
                "pitch": 68,
                "velocity": 64,
                "duration": 0.1977273,
                "tempo": 120.0
            },
            {
                "start_time": 88.2340909,
                "end_time": 88.4340909,
                "pitch": 66,
                "velocity": 64,
                "duration": 0.2,
                "tempo": 120.0
            },
            {
                "start_time": 88.6340909,
                "end_time": 88.8295455,
                "pitch": 64,
                "velocity": 64,
                "duration": 0.1954545,
                "tempo": 120.0
            },
            {
                "start_time": 89.025,
                "end_time": 89.225,
                "pitch": 63,
                "velocity": 64,
                "duration": 0.2,
                "tempo": 120.0
            }
        ],
        "Acoustic Bass": [
            {
                "start_time": 0.0977273,
                "end_time": 0.7045455,
                "pitch": 36,
                "velocity": 127,
                "duration": 0.6068182,
                "tempo": 120.0
            },
            {
                "start_time": 0.7045455,
                "end_time": 0.9068182,
                "pitch": 36,
                "velocity": 127,
                "duration": 0.2022727,
                "tempo": 120.0
            },
            {
                "start_time": 1.0977273,
                "end_time": 1.2886364,
                "pitch": 36,
                "velocity": 127,
                "duration": 0.1909091,
                "tempo": 120.0
            },
            {
                "start_time": 1.2886364,
                "end_time": 1.4977273,
                "pitch": 39,
                "velocity": 127,
                "duration": 0.2090909,
                "tempo": 120.0
            },
            {
                "start_time": 1.4977273,
                "end_time": 1.7090909,
                "pitch": 34,
                "velocity": 127,
                "duration": 0.2113636,
                "tempo": 120.0
            },
            {
                "start_time": 1.7090909,
                "end_time": 2.2909091,
                "pitch": 36,
                "velocity": 127,
                "duration": 0.5818182,
                "tempo": 120.0
            },
            {
                "start_time": 2.2909091,
                "end_time": 2.4772727,
                "pitch": 36,
                "velocity": 127,
                "duration": 0.1863636,
                "tempo": 120.0
            },
            {
                "start_time": 2.6772727,
                "end_time": 2.8795455,
                "pitch": 36,
                "velocity": 127,
                "duration": 0.2022727,
                "tempo": 120.0
            },
            {
                "start_time": 2.8795455,
                "end_time": 3.0772727,
                "pitch": 36,
                "velocity": 127,
                "duration": 0.1977273,
                "tempo": 120.0
            },
            {
                "start_time": 3.0772727,
                "end_time": 3.2772727,
                "pitch": 36,
                "velocity": 127,
                "duration": 0.2,
                "tempo": 120.0
            },
            {
                "start_time": 3.2772727,
                "end_time": 3.6977273,
                "pitch": 34,
                "velocity": 127,
                "duration": 0.4204545,
                "tempo": 120.0
            },
            {
                "start_time": 3.6977273,
                "end_time": 3.7954545,
                "pitch": 46,
                "velocity": 127,
                "duration": 0.0977273,
                "tempo": 120.0
            },
            {
                "start_time": 3.8931818,
                "end_time": 3.9909091,
                "pitch": 34,
                "velocity": 127,
                "duration": 0.0977273,
                "tempo": 120.0
            },
            {
                "start_time": 4.2931818,
                "end_time": 4.4977273,
                "pitch": 34,
                "velocity": 127,
                "duration": 0.2045455,
                "tempo": 120.0
            },
            {
                "start_time": 4.4977273,
                "end_time": 4.6977273,
                "pitch": 38,
                "velocity": 127,
                "duration": 0.2,
                "tempo": 120.0
            },
            {
                "start_time": 4.6977273,
                "end_time": 4.9,
                "pitch": 39,
                "velocity": 127,
                "duration": 0.2022727,
                "tempo": 120.0
            },
            {
                "start_time": 4.9,
                "end_time": 5.2909091,
                "pitch": 36,
                "velocity": 127,
                "duration": 0.3909091,
                "tempo": 120.0
            },
            {
                "start_time": 4.9,
                "end_time": 5.2909091,
                "pitch": 36,
                "velocity": 127,
                "duration": 0.3909091,
                "tempo": 120.0
            },
            {
                "start_time": 5.2909091,
                "end_time": 5.7,
                "pitch": 36,
                "velocity": 127,
                "duration": 0.4090909,
                "tempo": 120.0
            },
            {
                "start_time": 5.7,
                "end_time": 5.7977273,
                "pitch": 36,
                "velocity": 127,
                "duration": 0.0977273,
                "tempo": 120.0
            },
            {
                "start_time": 5.8954545,
                "end_time": 5.9931818,
                "pitch": 36,
                "velocity": 127,
                "duration": 0.0977273,
                "tempo": 120.0
            },
            {
                "start_time": 6.0909091,
                "end_time": 6.1909091,
                "pitch": 36,
                "velocity": 127,
                "duration": 0.1,
                "tempo": 120.0
            },
            {
                "start_time": 6.2909091,
                "end_time": 6.3909091,
                "pitch": 36,
                "velocity": 127,
                "duration": 0.1,
                "tempo": 120.0
            },
            {
                "start_time": 6.4931818,
                "end_time": 6.5931818,
                "pitch": 36,
                "velocity": 127,
                "duration": 0.1,
                "tempo": 120.0
            },
            {
                "start_time": 6.6931818,
                "end_time": 6.7931818,
                "pitch": 36,
                "velocity": 127,
                "duration": 0.1,
                "tempo": 120.0
            },
            {
                "start_time": 6.8931818,
                "end_time": 6.9931818,
                "pitch": 36,
                "velocity": 127,
                "duration": 0.1,
                "tempo": 120.0
            },
            {
                "start_time": 6.9931818,
                "end_time": 7.0931818,
                "pitch": 36,
                "velocity": 127,
                "duration": 0.1,
                "tempo": 120.0
            },
            {
                "start_time": 7.1931818,
                "end_time": 7.2931818,
                "pitch": 36,
                "velocity": 127,
                "duration": 0.1,
                "tempo": 120.0
            },
            {
                "start_time": 7.2931818,
                "end_time": 7.3931818,
                "pitch": 36,
                "velocity": 127,
                "duration": 0.1,
                "tempo": 120.0
            },
            {
                "start_time": 7.4931818,
                "end_time": 7.5931818,
                "pitch": 36,
                "velocity": 127,
                "duration": 0.1,
                "tempo": 120.0
            },
            {
                "start_time": 7.6931818,
                "end_time": 7.7909091,
                "pitch": 36,
                "velocity": 127,
                "duration": 0.0977273,
                "tempo": 120.0
            },
            {
                "start_time": 7.8886364,
                "end_time": 7.9863636,
                "pitch": 36,
                "velocity": 127,
                "duration": 0.0977273,
                "tempo": 120.0
            },
            {
                "start_time": 7.9863636,
                "end_time": 8.0840909,
                "pitch": 48,
                "velocity": 127,
                "duration": 0.0977273,
                "tempo": 120.0
            },
            {
                "start_time": 8.0840909,
                "end_time": 8.1840909,
                "pitch": 34,
                "velocity": 127,
                "duration": 0.1,
                "tempo": 120.0
            },
            {
                "start_time": 8.2840909,
                "end_time": 8.3863636,
                "pitch": 34,
                "velocity": 127,
                "duration": 0.1022727,
                "tempo": 120.0
            },
            {
                "start_time": 8.4863636,
                "end_time": 8.5863636,
                "pitch": 34,
                "velocity": 127,
                "duration": 0.1,
                "tempo": 120.0
            },
            {
                "start_time": 8.5863636,
                "end_time": 8.6863636,
                "pitch": 34,
                "velocity": 127,
                "duration": 0.1,
                "tempo": 120.0
            },
            {
                "start_time": 8.7863636,
                "end_time": 8.8886364,
                "pitch": 34,
                "velocity": 127,
                "duration": 0.1022727,
                "tempo": 120.0
            },
            {
                "start_time": 8.8886364,
                "end_time": 8.9863636,
                "pitch": 34,
                "velocity": 127,
                "duration": 0.0977273,
                "tempo": 120.0
            },
            {
                "start_time": 9.0863636,
                "end_time": 9.1863636,
                "pitch": 34,
                "velocity": 127,
                "duration": 0.1,
                "tempo": 120.0
            },
            {
                "start_time": 9.2863636,
                "end_time": 9.3863636,
                "pitch": 34,
                "velocity": 127,
                "duration": 0.1,
                "tempo": 120.0
            },
            {
                "start_time": 9.4863636,
                "end_time": 9.5863636,
                "pitch": 46,
                "velocity": 127,
                "duration": 0.1,
                "tempo": 120.0
            },
            {
                "start_time": 9.6863636,
                "end_time": 9.7886364,
                "pitch": 32,
                "velocity": 127,
                "duration": 0.1022727,
                "tempo": 120.0
            },
            {
                "start_time": 9.8886364,
                "end_time": 9.9886364,
                "pitch": 32,
                "velocity": 127,
                "duration": 0.1,
                "tempo": 120.0
            },
            {
                "start_time": 10.0886364,
                "end_time": 10.1886364,
                "pitch": 32,
                "velocity": 127,
                "duration": 0.1,
                "tempo": 120.0
            },
            {
                "start_time": 10.1886364,
                "end_time": 10.2886364,
                "pitch": 32,
                "velocity": 127,
                "duration": 0.1,
                "tempo": 120.0
            },
            {
                "start_time": 10.3886364,
                "end_time": 10.4909091,
                "pitch": 44,
                "velocity": 127,
                "duration": 0.1022727,
                "tempo": 120.0
            },
            {
                "start_time": 10.4909091,
                "end_time": 10.5909091,
                "pitch": 34,
                "velocity": 127,
                "duration": 0.1,
                "tempo": 120.0
            },
            {
                "start_time": 10.6909091,
                "end_time": 10.7909091,
                "pitch": 34,
                "velocity": 127,
                "duration": 0.1,
                "tempo": 120.0
            },
            {
                "start_time": 10.8909091,
                "end_time": 10.9886364,
                "pitch": 34,
                "velocity": 127,
                "duration": 0.0977273,
                "tempo": 120.0
            },
            {
                "start_time": 10.9886364,
                "end_time": 11.0863636,
                "pitch": 34,
                "velocity": 127,
                "duration": 0.0977273,
                "tempo": 120.0
            },
            {
                "start_time": 11.1840909,
                "end_time": 11.2818182,
                "pitch": 34,
                "velocity": 127,
                "duration": 0.0977273,
                "tempo": 120.0
            },
            {
                "start_time": 11.2818182,
                "end_time": 11.3818182,
                "pitch": 36,
                "velocity": 127,
                "duration": 0.1,
                "tempo": 120.0
            },
            {
                "start_time": 11.4840909,
                "end_time": 11.5840909,
                "pitch": 36,
                "velocity": 127,
                "duration": 0.1,
                "tempo": 120.0
            },
            {
                "start_time": 11.6840909,
                "end_time": 11.7840909,
                "pitch": 48,
                "velocity": 127,
                "duration": 0.1,
                "tempo": 120.0
            },
            {
                "start_time": 11.7840909,
                "end_time": 11.8840909,
                "pitch": 36,
                "velocity": 127,
                "duration": 0.1,
                "tempo": 120.0
            },
            {
                "start_time": 11.9840909,
                "end_time": 12.0863636,
                "pitch": 36,
                "velocity": 127,
                "duration": 0.1022727,
                "tempo": 120.0
            },
            {
                "start_time": 12.0863636,
                "end_time": 12.1863636,
                "pitch": 36,
                "velocity": 127,
                "duration": 0.1,
                "tempo": 120.0
            },
            {
                "start_time": 12.1863636,
                "end_time": 12.2863636,
                "pitch": 48,
                "velocity": 127,
                "duration": 0.1,
                "tempo": 120.0
            },
            {
                "start_time": 12.2863636,
                "end_time": 12.3863636,
                "pitch": 36,
                "velocity": 127,
                "duration": 0.1,
                "tempo": 120.0
            },
            {
                "start_time": 12.4863636,
                "end_time": 12.5863636,
                "pitch": 48,
                "velocity": 127,
                "duration": 0.1,
                "tempo": 120.0
            },
            {
                "start_time": 12.6863636,
                "end_time": 12.7886364,
                "pitch": 36,
                "velocity": 127,
                "duration": 0.1022727,
                "tempo": 120.0
            },
            {
                "start_time": 12.8886364,
                "end_time": 12.9886364,
                "pitch": 32,
                "velocity": 127,
                "duration": 0.1,
                "tempo": 120.0
            },
            {
                "start_time": 13.0863636,
                "end_time": 13.1863636,
                "pitch": 32,
                "velocity": 127,
                "duration": 0.1,
                "tempo": 120.0
            },
            {
                "start_time": 13.2863636,
                "end_time": 13.3886364,
                "pitch": 32,
                "velocity": 127,
                "duration": 0.1022727,
                "tempo": 120.0
            },
            {
                "start_time": 13.3886364,
                "end_time": 13.4886364,
                "pitch": 32,
                "velocity": 127,
                "duration": 0.1,
                "tempo": 120.0
            },
            {
                "start_time": 13.5886364,
                "end_time": 13.6886364,
                "pitch": 32,
                "velocity": 127,
                "duration": 0.1,
                "tempo": 120.0
            },
            {
                "start_time": 13.6886364,
                "end_time": 13.7863636,
                "pitch": 32,
                "velocity": 127,
                "duration": 0.0977273,
                "tempo": 120.0
            },
            {
                "start_time": 13.8840909,
                "end_time": 13.9818182,
                "pitch": 32,
                "velocity": 127,
                "duration": 0.0977273,
                "tempo": 120.0
            },
            {
                "start_time": 14.0795455,
                "end_time": 14.1795455,
                "pitch": 32,
                "velocity": 127,
                "duration": 0.1,
                "tempo": 120.0
            },
            {
                "start_time": 14.2795455,
                "end_time": 14.3795455,
                "pitch": 32,
                "velocity": 127,
                "duration": 0.1,
                "tempo": 120.0
            },
            {
                "start_time": 14.3795455,
                "end_time": 14.4795455,
                "pitch": 44,
                "velocity": 127,
                "duration": 0.1,
                "tempo": 120.0
            },
            {
                "start_time": 14.4795455,
                "end_time": 14.5795455,
                "pitch": 34,
                "velocity": 127,
                "duration": 0.1,
                "tempo": 120.0
            },
            {
                "start_time": 14.6795455,
                "end_time": 14.7795455,
                "pitch": 34,
                "velocity": 127,
                "duration": 0.1,
                "tempo": 120.0
            },
            {
                "start_time": 14.8795455,
                "end_time": 14.9795455,
                "pitch": 34,
                "velocity": 127,
                "duration": 0.1,
                "tempo": 120.0
            },
            {
                "start_time": 14.9795455,
                "end_time": 15.0795455,
                "pitch": 34,
                "velocity": 127,
                "duration": 0.1,
                "tempo": 120.0
            },
            {
                "start_time": 15.1795455,
                "end_time": 15.2818182,
                "pitch": 34,
                "velocity": 127,
                "duration": 0.1022727,
                "tempo": 120.0
            },
            {
                "start_time": 15.2818182,
                "end_time": 15.3818182,
                "pitch": 34,
                "velocity": 127,
                "duration": 0.1,
                "tempo": 120.0
            },
            {
                "start_time": 15.4818182,
                "end_time": 15.5818182,
                "pitch": 34,
                "velocity": 127,
                "duration": 0.1,
                "tempo": 120.0
            },
            {
                "start_time": 15.6818182,
                "end_time": 15.7818182,
                "pitch": 34,
                "velocity": 127,
                "duration": 0.1,
                "tempo": 120.0
            },
            {
                "start_time": 14.4795455,
                "end_time": 15.9818182,
                "pitch": 46,
                "velocity": 127,
                "duration": 1.5022727,
                "tempo": 120.0
            },
            {
                "start_time": 15.8818182,
                "end_time": 15.9818182,
                "pitch": 46,
                "velocity": 127,
                "duration": 0.1,
                "tempo": 120.0
            },
            {
                "start_time": 16.0840909,
                "end_time": 16.1840909,
                "pitch": 36,
                "velocity": 127,
                "duration": 0.1,
                "tempo": 120.0
            },
            {
                "start_time": 16.2840909,
                "end_time": 16.3840909,
                "pitch": 36,
                "velocity": 127,
                "duration": 0.1,
                "tempo": 120.0
            },
            {
                "start_time": 16.4863636,
                "end_time": 16.5840909,
                "pitch": 36,
                "velocity": 127,
                "duration": 0.0977273,
                "tempo": 120.0
            },
            {
                "start_time": 16.5840909,
                "end_time": 16.6840909,
                "pitch": 36,
                "velocity": 127,
                "duration": 0.1,
                "tempo": 120.0
            },
            {
                "start_time": 16.7840909,
                "end_time": 16.8840909,
                "pitch": 48,
                "velocity": 127,
                "duration": 0.1,
                "tempo": 120.0
            },
            {
                "start_time": 16.8840909,
                "end_time": 16.9818182,
                "pitch": 36,
                "velocity": 127,
                "duration": 0.0977273,
                "tempo": 120.0
            },
            {
                "start_time": 17.0795455,
                "end_time": 17.1772727,
                "pitch": 36,
                "velocity": 127,
                "duration": 0.0977273,
                "tempo": 120.0
            },
            {
                "start_time": 17.275,
                "end_time": 17.375,
                "pitch": 36,
                "velocity": 127,
                "duration": 0.1,
                "tempo": 120.0
            },
            {
                "start_time": 17.375,
                "end_time": 17.475,
                "pitch": 36,
                "velocity": 127,
                "duration": 0.1,
                "tempo": 120.0
            },
            {
                "start_time": 17.575,
                "end_time": 17.6727273,
                "pitch": 36,
                "velocity": 127,
                "duration": 0.0977273,
                "tempo": 120.0
            },
            {
                "start_time": 17.6727273,
                "end_time": 17.7727273,
                "pitch": 34,
                "velocity": 127,
                "duration": 0.1,
                "tempo": 120.0
            },
            {
                "start_time": 17.875,
                "end_time": 17.975,
                "pitch": 34,
                "velocity": 127,
                "duration": 0.1,
                "tempo": 120.0
            },
            {
                "start_time": 18.075,
                "end_time": 18.175,
                "pitch": 46,
                "velocity": 127,
                "duration": 0.1,
                "tempo": 120.0
            },
            {
                "start_time": 18.175,
                "end_time": 18.275,
                "pitch": 34,
                "velocity": 127,
                "duration": 0.1,
                "tempo": 120.0
            },
            {
                "start_time": 18.375,
                "end_time": 18.4727273,
                "pitch": 34,
                "velocity": 127,
                "duration": 0.0977273,
                "tempo": 120.0
            },
            {
                "start_time": 18.4727273,
                "end_time": 18.5727273,
                "pitch": 34,
                "velocity": 127,
                "duration": 0.1,
                "tempo": 120.0
            },
            {
                "start_time": 18.5727273,
                "end_time": 18.675,
                "pitch": 46,
                "velocity": 127,
                "duration": 0.1022727,
                "tempo": 120.0
            },
            {
                "start_time": 18.675,
                "end_time": 18.775,
                "pitch": 34,
                "velocity": 127,
                "duration": 0.1,
                "tempo": 120.0
            },
            {
                "start_time": 18.875,
                "end_time": 18.975,
                "pitch": 46,
                "velocity": 127,
                "duration": 0.1,
                "tempo": 120.0
            },
            {
                "start_time": 19.075,
                "end_time": 19.175,
                "pitch": 34,
                "velocity": 127,
                "duration": 0.1,
                "tempo": 120.0
            },
            {
                "start_time": 19.2727273,
                "end_time": 19.3727273,
                "pitch": 36,
                "velocity": 127,
                "duration": 0.1,
                "tempo": 120.0
            },
            {
                "start_time": 19.4727273,
                "end_time": 19.5727273,
                "pitch": 36,
                "velocity": 127,
                "duration": 0.1,
                "tempo": 120.0
            },
            {
                "start_time": 19.6727273,
                "end_time": 19.7727273,
                "pitch": 36,
                "velocity": 127,
                "duration": 0.1,
                "tempo": 120.0
            },
            {
                "start_time": 19.7727273,
                "end_time": 19.8727273,
                "pitch": 36,
                "velocity": 127,
                "duration": 0.1,
                "tempo": 120.0
            },
            {
                "start_time": 19.9727273,
                "end_time": 20.075,
                "pitch": 36,
                "velocity": 127,
                "duration": 0.1022727,
                "tempo": 120.0
            },
            {
                "start_time": 20.075,
                "end_time": 20.1727273,
                "pitch": 36,
                "velocity": 127,
                "duration": 0.0977273,
                "tempo": 120.0
            },
            {
                "start_time": 20.2704545,
                "end_time": 20.3681818,
                "pitch": 36,
                "velocity": 127,
                "duration": 0.0977273,
                "tempo": 120.0
            },
            {
                "start_time": 20.4659091,
                "end_time": 20.5636364,
                "pitch": 36,
                "velocity": 127,
                "duration": 0.0977273,
                "tempo": 120.0
            },
            {
                "start_time": 20.6636364,
                "end_time": 20.7636364,
                "pitch": 36,
                "velocity": 127,
                "duration": 0.1,
                "tempo": 120.0
            },
            {
                "start_time": 8.0840909,
                "end_time": 20.8636364,
                "pitch": 27,
                "velocity": 127,
                "duration": 12.7795455,
                "tempo": 120.0
            },
            {
                "start_time": 20.7636364,
                "end_time": 20.8636364,
                "pitch": 48,
                "velocity": 127,
                "duration": 0.1,
                "tempo": 120.0
            },
            {
                "start_time": 20.8636364,
                "end_time": 20.9636364,
                "pitch": 34,
                "velocity": 127,
                "duration": 0.1,
                "tempo": 120.0
            },
            {
                "start_time": 21.0636364,
                "end_time": 21.1636364,
                "pitch": 34,
                "velocity": 127,
                "duration": 0.1,
                "tempo": 120.0
            },
            {
                "start_time": 21.2613636,
                "end_time": 21.3636364,
                "pitch": 34,
                "velocity": 127,
                "duration": 0.1022727,
                "tempo": 120.0
            },
            {
                "start_time": 21.3636364,
                "end_time": 21.4636364,
                "pitch": 34,
                "velocity": 127,
                "duration": 0.1,
                "tempo": 120.0
            },
            {
                "start_time": 21.5636364,
                "end_time": 21.6636364,
                "pitch": 34,
                "velocity": 127,
                "duration": 0.1,
                "tempo": 120.0
            },
            {
                "start_time": 21.6636364,
                "end_time": 21.7636364,
                "pitch": 34,
                "velocity": 127,
                "duration": 0.1,
                "tempo": 120.0
            },
            {
                "start_time": 21.8636364,
                "end_time": 21.9636364,
                "pitch": 34,
                "velocity": 127,
                "duration": 0.1,
                "tempo": 120.0
            },
            {
                "start_time": 22.0636364,
                "end_time": 22.1636364,
                "pitch": 34,
                "velocity": 127,
                "duration": 0.1,
                "tempo": 120.0
            },
            {
                "start_time": 22.2636364,
                "end_time": 22.3636364,
                "pitch": 46,
                "velocity": 127,
                "duration": 0.1,
                "tempo": 120.0
            },
            {
                "start_time": 22.4636364,
                "end_time": 22.5636364,
                "pitch": 36,
                "velocity": 127,
                "duration": 0.1,
                "tempo": 120.0
            },
            {
                "start_time": 22.6636364,
                "end_time": 22.7636364,
                "pitch": 36,
                "velocity": 127,
                "duration": 0.1,
                "tempo": 120.0
            },
            {
                "start_time": 22.8636364,
                "end_time": 22.9613636,
                "pitch": 48,
                "velocity": 127,
                "duration": 0.0977273,
                "tempo": 120.0
            },
            {
                "start_time": 22.9613636,
                "end_time": 23.0613636,
                "pitch": 36,
                "velocity": 127,
                "duration": 0.1,
                "tempo": 120.0
            },
            {
                "start_time": 23.1613636,
                "end_time": 23.2613636,
                "pitch": 36,
                "velocity": 127,
                "duration": 0.1,
                "tempo": 120.0
            },
            {
                "start_time": 23.2613636,
                "end_time": 23.3590909,
                "pitch": 36,
                "velocity": 127,
                "duration": 0.0977273,
                "tempo": 120.0
            },
            {
                "start_time": 23.4568182,
                "end_time": 23.5545455,
                "pitch": 48,
                "velocity": 127,
                "duration": 0.0977273,
                "tempo": 120.0
            },
            {
                "start_time": 23.6522727,
                "end_time": 23.7522727,
                "pitch": 36,
                "velocity": 127,
                "duration": 0.1,
                "tempo": 120.0
            },
            {
                "start_time": 23.7522727,
                "end_time": 23.8522727,
                "pitch": 36,
                "velocity": 127,
                "duration": 0.1,
                "tempo": 120.0
            },
            {
                "start_time": 23.9522727,
                "end_time": 24.0522727,
                "pitch": 36,
                "velocity": 127,
                "duration": 0.1,
                "tempo": 120.0
            },
            {
                "start_time": 24.0522727,
                "end_time": 24.1522727,
                "pitch": 36,
                "velocity": 127,
                "duration": 0.1,
                "tempo": 120.0
            },
            {
                "start_time": 24.2522727,
                "end_time": 24.3522727,
                "pitch": 36,
                "velocity": 127,
                "duration": 0.1,
                "tempo": 120.0
            },
            {
                "start_time": 24.4522727,
                "end_time": 24.5522727,
                "pitch": 48,
                "velocity": 127,
                "duration": 0.1,
                "tempo": 120.0
            },
            {
                "start_time": 24.5522727,
                "end_time": 24.6522727,
                "pitch": 36,
                "velocity": 127,
                "duration": 0.1,
                "tempo": 120.0
            },
            {
                "start_time": 24.7545455,
                "end_time": 24.8522727,
                "pitch": 36,
                "velocity": 127,
                "duration": 0.0977273,
                "tempo": 120.0
            },
            {
                "start_time": 24.8545455,
                "end_time": 24.9522727,
                "pitch": 36,
                "velocity": 127,
                "duration": 0.0977273,
                "tempo": 120.0
            },
            {
                "start_time": 24.9522727,
                "end_time": 25.0522727,
                "pitch": 48,
                "velocity": 127,
                "duration": 0.1,
                "tempo": 120.0
            },
            {
                "start_time": 25.0522727,
                "end_time": 25.1522727,
                "pitch": 36,
                "velocity": 127,
                "duration": 0.1,
                "tempo": 120.0
            },
            {
                "start_time": 25.2522727,
                "end_time": 25.3522727,
                "pitch": 48,
                "velocity": 127,
                "duration": 0.1,
                "tempo": 120.0
            },
            {
                "start_time": 25.4522727,
                "end_time": 25.5522727,
                "pitch": 36,
                "velocity": 127,
                "duration": 0.1,
                "tempo": 120.0
            },
            {
                "start_time": 25.65,
                "end_time": 25.7522727,
                "pitch": 32,
                "velocity": 127,
                "duration": 0.1022727,
                "tempo": 120.0
            },
            {
                "start_time": 25.8522727,
                "end_time": 25.9522727,
                "pitch": 32,
                "velocity": 127,
                "duration": 0.1,
                "tempo": 120.0
            },
            {
                "start_time": 26.0522727,
                "end_time": 26.15,
                "pitch": 32,
                "velocity": 127,
                "duration": 0.0977273,
                "tempo": 120.0
            },
            {
                "start_time": 26.15,
                "end_time": 26.2477273,
                "pitch": 32,
                "velocity": 127,
                "duration": 0.0977273,
                "tempo": 120.0
            },
            {
                "start_time": 26.3454545,
                "end_time": 26.4431818,
                "pitch": 32,
                "velocity": 127,
                "duration": 0.0977273,
                "tempo": 120.0
            },
            {
                "start_time": 26.4431818,
                "end_time": 26.5431818,
                "pitch": 32,
                "velocity": 127,
                "duration": 0.1,
                "tempo": 120.0
            },
            {
                "start_time": 26.6431818,
                "end_time": 26.7431818,
                "pitch": 32,
                "velocity": 127,
                "duration": 0.1,
                "tempo": 120.0
            },
            {
                "start_time": 26.8431818,
                "end_time": 26.9409091,
                "pitch": 32,
                "velocity": 127,
                "duration": 0.0977273,
                "tempo": 120.0
            },
            {
                "start_time": 27.0409091,
                "end_time": 27.1409091,
                "pitch": 32,
                "velocity": 127,
                "duration": 0.1,
                "tempo": 120.0
            },
            {
                "start_time": 27.1409091,
                "end_time": 27.2409091,
                "pitch": 44,
                "velocity": 127,
                "duration": 0.1,
                "tempo": 120.0
            },
            {
                "start_time": 27.2409091,
                "end_time": 27.3409091,
                "pitch": 34,
                "velocity": 127,
                "duration": 0.1,
                "tempo": 120.0
            },
            {
                "start_time": 27.4409091,
                "end_time": 27.5431818,
                "pitch": 34,
                "velocity": 127,
                "duration": 0.1022727,
                "tempo": 120.0
            },
            {
                "start_time": 27.6431818,
                "end_time": 27.7431818,
                "pitch": 34,
                "velocity": 127,
                "duration": 0.1,
                "tempo": 120.0
            },
            {
                "start_time": 27.7431818,
                "end_time": 27.8409091,
                "pitch": 34,
                "velocity": 127,
                "duration": 0.0977273,
                "tempo": 120.0
            },
            {
                "start_time": 27.9409091,
                "end_time": 28.0409091,
                "pitch": 34,
                "velocity": 127,
                "duration": 0.1,
                "tempo": 120.0
            },
            {
                "start_time": 28.0409091,
                "end_time": 28.1409091,
                "pitch": 34,
                "velocity": 127,
                "duration": 0.1,
                "tempo": 120.0
            },
            {
                "start_time": 28.2409091,
                "end_time": 28.3431818,
                "pitch": 34,
                "velocity": 127,
                "duration": 0.1022727,
                "tempo": 120.0
            },
            {
                "start_time": 27.2409091,
                "end_time": 28.4431818,
                "pitch": 46,
                "velocity": 127,
                "duration": 1.2022727,
                "tempo": 120.0
            },
            {
                "start_time": 28.3431818,
                "end_time": 28.4431818,
                "pitch": 46,
                "velocity": 127,
                "duration": 0.1,
                "tempo": 120.0
            },
            {
                "start_time": 28.5431818,
                "end_time": 28.6409091,
                "pitch": 34,
                "velocity": 127,
                "duration": 0.0977273,
                "tempo": 120.0
            },
            {
                "start_time": 28.6409091,
                "end_time": 28.7409091,
                "pitch": 34,
                "velocity": 127,
                "duration": 0.1,
                "tempo": 120.0
            },
            {
                "start_time": 28.8409091,
                "end_time": 28.9409091,
                "pitch": 36,
                "velocity": 127,
                "duration": 0.1,
                "tempo": 120.0
            },
            {
                "start_time": 29.0409091,
                "end_time": 29.1409091,
                "pitch": 36,
                "velocity": 127,
                "duration": 0.1,
                "tempo": 120.0
            },
            {
                "start_time": 29.2409091,
                "end_time": 29.3409091,
                "pitch": 48,
                "velocity": 127,
                "duration": 0.1,
                "tempo": 120.0
            },
            {
                "start_time": 29.3409091,
                "end_time": 29.4409091,
                "pitch": 36,
                "velocity": 127,
                "duration": 0.1,
                "tempo": 120.0
            },
            {
                "start_time": 29.5409091,
                "end_time": 29.6409091,
                "pitch": 36,
                "velocity": 127,
                "duration": 0.1,
                "tempo": 120.0
            },
            {
                "start_time": 29.6409091,
                "end_time": 29.7409091,
                "pitch": 36,
                "velocity": 127,
                "duration": 0.1,
                "tempo": 120.0
            },
            {
                "start_time": 29.8409091,
                "end_time": 29.9409091,
                "pitch": 48,
                "velocity": 127,
                "duration": 0.1,
                "tempo": 120.0
            },
            {
                "start_time": 30.0409091,
                "end_time": 30.1386364,
                "pitch": 36,
                "velocity": 127,
                "duration": 0.0977273,
                "tempo": 120.0
            },
            {
                "start_time": 30.1386364,
                "end_time": 30.2363636,
                "pitch": 36,
                "velocity": 127,
                "duration": 0.0977273,
                "tempo": 120.0
            },
            {
                "start_time": 3.2772727,
                "end_time": 30.4318182,
                "pitch": 15,
                "velocity": 127,
                "duration": 27.1545455,
                "tempo": 120.0
            },
            {
                "start_time": 30.3340909,
                "end_time": 30.4318182,
                "pitch": 36,
                "velocity": 127,
                "duration": 0.0977273,
                "tempo": 120.0
            },
            {
                "start_time": 30.4318182,
                "end_time": 30.5295455,
                "pitch": 34,
                "velocity": 127,
                "duration": 0.0977273,
                "tempo": 120.0
            },
            {
                "start_time": 30.6295455,
                "end_time": 30.7295455,
                "pitch": 34,
                "velocity": 127,
                "duration": 0.1,
                "tempo": 120.0
            },
            {
                "start_time": 30.8295455,
                "end_time": 30.9295455,
                "pitch": 46,
                "velocity": 127,
                "duration": 0.1,
                "tempo": 120.0
            },
            {
                "start_time": 30.9295455,
                "end_time": 31.0295455,
                "pitch": 34,
                "velocity": 127,
                "duration": 0.1,
                "tempo": 120.0
            },
            {
                "start_time": 31.1318182,
                "end_time": 31.2318182,
                "pitch": 34,
                "velocity": 127,
                "duration": 0.1,
                "tempo": 120.0
            },
            {
                "start_time": 31.2318182,
                "end_time": 31.3295455,
                "pitch": 34,
                "velocity": 127,
                "duration": 0.0977273,
                "tempo": 120.0
            },
            {
                "start_time": 31.3295455,
                "end_time": 31.4272727,
                "pitch": 46,
                "velocity": 127,
                "duration": 0.0977273,
                "tempo": 120.0
            },
            {
                "start_time": 31.4272727,
                "end_time": 31.525,
                "pitch": 34,
                "velocity": 127,
                "duration": 0.0977273,
                "tempo": 120.0
            },
            {
                "start_time": 31.6227273,
                "end_time": 31.7204545,
                "pitch": 46,
                "velocity": 127,
                "duration": 0.0977273,
                "tempo": 120.0
            },
            {
                "start_time": 31.8204545,
                "end_time": 31.9204545,
                "pitch": 36,
                "velocity": 127,
                "duration": 0.1,
                "tempo": 120.0
            },
            {
                "start_time": 32.0204545,
                "end_time": 32.1227273,
                "pitch": 38,
                "velocity": 127,
                "duration": 0.1022727,
                "tempo": 120.0
            },
            {
                "start_time": 32.225,
                "end_time": 32.3272727,
                "pitch": 38,
                "velocity": 127,
                "duration": 0.1022727,
                "tempo": 120.0
            },
            {
                "start_time": 32.4295455,
                "end_time": 32.5295455,
                "pitch": 38,
                "velocity": 127,
                "duration": 0.1,
                "tempo": 120.0
            },
            {
                "start_time": 32.5295455,
                "end_time": 32.6295455,
                "pitch": 38,
                "velocity": 127,
                "duration": 0.1,
                "tempo": 120.0
            },
            {
                "start_time": 32.7295455,
                "end_time": 32.8295455,
                "pitch": 38,
                "velocity": 127,
                "duration": 0.1,
                "tempo": 120.0
            },
            {
                "start_time": 32.8295455,
                "end_time": 32.9272727,
                "pitch": 38,
                "velocity": 127,
                "duration": 0.0977273,
                "tempo": 120.0
            },
            {
                "start_time": 33.025,
                "end_time": 33.1227273,
                "pitch": 38,
                "velocity": 127,
                "duration": 0.0977273,
                "tempo": 120.0
            },
            {
                "start_time": 33.2204545,
                "end_time": 33.3204545,
                "pitch": 38,
                "velocity": 127,
                "duration": 0.1,
                "tempo": 120.0
            },
            {
                "start_time": 33.4204545,
                "end_time": 33.5181818,
                "pitch": 38,
                "velocity": 127,
                "duration": 0.0977273,
                "tempo": 120.0
            },
            {
                "start_time": 33.5181818,
                "end_time": 33.6181818,
                "pitch": 50,
                "velocity": 127,
                "duration": 0.1,
                "tempo": 120.0
            },
            {
                "start_time": 33.6181818,
                "end_time": 33.7181818,
                "pitch": 36,
                "velocity": 127,
                "duration": 0.1,
                "tempo": 120.0
            },
            {
                "start_time": 33.8181818,
                "end_time": 33.9204545,
                "pitch": 36,
                "velocity": 127,
                "duration": 0.1022727,
                "tempo": 120.0
            },
            {
                "start_time": 34.0204545,
                "end_time": 34.1204545,
                "pitch": 36,
                "velocity": 127,
                "duration": 0.1,
                "tempo": 120.0
            },
            {
                "start_time": 34.1204545,
                "end_time": 34.2204545,
                "pitch": 36,
                "velocity": 127,
                "duration": 0.1,
                "tempo": 120.0
            },
            {
                "start_time": 34.3204545,
                "end_time": 34.4181818,
                "pitch": 36,
                "velocity": 127,
                "duration": 0.0977273,
                "tempo": 120.0
            },
            {
                "start_time": 34.4181818,
                "end_time": 34.5181818,
                "pitch": 36,
                "velocity": 127,
                "duration": 0.1,
                "tempo": 120.0
            },
            {
                "start_time": 34.6181818,
                "end_time": 34.7181818,
                "pitch": 36,
                "velocity": 127,
                "duration": 0.1,
                "tempo": 120.0
            },
            {
                "start_time": 34.8181818,
                "end_time": 34.9181818,
                "pitch": 36,
                "velocity": 127,
                "duration": 0.1,
                "tempo": 120.0
            },
            {
                "start_time": 33.6181818,
                "end_time": 35.1159091,
                "pitch": 48,
                "velocity": 127,
                "duration": 1.4977273,
                "tempo": 120.0
            },
            {
                "start_time": 35.0181818,
                "end_time": 35.1159091,
                "pitch": 48,
                "velocity": 127,
                "duration": 0.0977273,
                "tempo": 120.0
            },
            {
                "start_time": 35.2159091,
                "end_time": 35.3159091,
                "pitch": 34,
                "velocity": 127,
                "duration": 0.1,
                "tempo": 120.0
            },
            {
                "start_time": 35.4159091,
                "end_time": 35.5159091,
                "pitch": 34,
                "velocity": 127,
                "duration": 0.1,
                "tempo": 120.0
            },
            {
                "start_time": 35.6159091,
                "end_time": 35.7136364,
                "pitch": 34,
                "velocity": 127,
                "duration": 0.0977273,
                "tempo": 120.0
            },
            {
                "start_time": 35.7136364,
                "end_time": 35.8113636,
                "pitch": 34,
                "velocity": 127,
                "duration": 0.0977273,
                "tempo": 120.0
            },
            {
                "start_time": 35.9090909,
                "end_time": 36.0045455,
                "pitch": 46,
                "velocity": 127,
                "duration": 0.0954545,
                "tempo": 120.0
            },
            {
                "start_time": 36.0068182,
                "end_time": 36.1045455,
                "pitch": 36,
                "velocity": 127,
                "duration": 0.0977273,
                "tempo": 120.0
            },
            {
                "start_time": 36.2045455,
                "end_time": 36.3045455,
                "pitch": 36,
                "velocity": 127,
                "duration": 0.1,
                "tempo": 120.0
            },
            {
                "start_time": 36.4045455,
                "end_time": 36.5045455,
                "pitch": 36,
                "velocity": 127,
                "duration": 0.1,
                "tempo": 120.0
            },
            {
                "start_time": 36.5045455,
                "end_time": 36.6045455,
                "pitch": 36,
                "velocity": 127,
                "duration": 0.1,
                "tempo": 120.0
            },
            {
                "start_time": 36.7045455,
                "end_time": 36.8068182,
                "pitch": 36,
                "velocity": 127,
                "duration": 0.1022727,
                "tempo": 120.0
            },
            {
                "start_time": 36.8068182,
                "end_time": 36.9045455,
                "pitch": 38,
                "velocity": 127,
                "duration": 0.0977273,
                "tempo": 120.0
            },
            {
                "start_time": 37.0045455,
                "end_time": 37.1045455,
                "pitch": 38,
                "velocity": 127,
                "duration": 0.1,
                "tempo": 120.0
            },
            {
                "start_time": 37.2045455,
                "end_time": 37.3045455,
                "pitch": 50,
                "velocity": 127,
                "duration": 0.1,
                "tempo": 120.0
            },
            {
                "start_time": 37.3045455,
                "end_time": 37.4045455,
                "pitch": 38,
                "velocity": 127,
                "duration": 0.1,
                "tempo": 120.0
            },
            {
                "start_time": 37.5045455,
                "end_time": 37.6045455,
                "pitch": 38,
                "velocity": 127,
                "duration": 0.1,
                "tempo": 120.0
            },
            {
                "start_time": 37.6045455,
                "end_time": 37.7045455,
                "pitch": 38,
                "velocity": 127,
                "duration": 0.1,
                "tempo": 120.0
            },
            {
                "start_time": 37.7045455,
                "end_time": 37.8022727,
                "pitch": 50,
                "velocity": 127,
                "duration": 0.0977273,
                "tempo": 120.0
            },
            {
                "start_time": 37.8022727,
                "end_time": 37.9022727,
                "pitch": 38,
                "velocity": 127,
                "duration": 0.1,
                "tempo": 120.0
            },
            {
                "start_time": 38.0022727,
                "end_time": 38.1022727,
                "pitch": 50,
                "velocity": 127,
                "duration": 0.1,
                "tempo": 120.0
            },
            {
                "start_time": 38.2022727,
                "end_time": 38.3022727,
                "pitch": 38,
                "velocity": 127,
                "duration": 0.1,
                "tempo": 120.0
            },
            {
                "start_time": 38.4,
                "end_time": 38.5,
                "pitch": 34,
                "velocity": 127,
                "duration": 0.1,
                "tempo": 120.0
            },
            {
                "start_time": 38.6022727,
                "end_time": 38.7022727,
                "pitch": 34,
                "velocity": 127,
                "duration": 0.1,
                "tempo": 120.0
            },
            {
                "start_time": 38.8022727,
                "end_time": 38.9022727,
                "pitch": 34,
                "velocity": 127,
                "duration": 0.1,
                "tempo": 120.0
            },
            {
                "start_time": 38.9022727,
                "end_time": 39.0022727,
                "pitch": 34,
                "velocity": 127,
                "duration": 0.1,
                "tempo": 120.0
            },
            {
                "start_time": 39.1022727,
                "end_time": 39.2022727,
                "pitch": 34,
                "velocity": 127,
                "duration": 0.1,
                "tempo": 120.0
            },
            {
                "start_time": 39.2022727,
                "end_time": 39.3,
                "pitch": 34,
                "velocity": 127,
                "duration": 0.0977273,
                "tempo": 120.0
            },
            {
                "start_time": 39.3977273,
                "end_time": 39.4954545,
                "pitch": 34,
                "velocity": 127,
                "duration": 0.0977273,
                "tempo": 120.0
            },
            {
                "start_time": 39.5931818,
                "end_time": 39.6909091,
                "pitch": 34,
                "velocity": 127,
                "duration": 0.0977273,
                "tempo": 120.0
            },
            {
                "start_time": 39.7909091,
                "end_time": 39.8909091,
                "pitch": 34,
                "velocity": 127,
                "duration": 0.1,
                "tempo": 120.0
            },
            {
                "start_time": 39.8909091,
                "end_time": 39.9909091,
                "pitch": 46,
                "velocity": 127,
                "duration": 0.1,
                "tempo": 120.0
            },
            {
                "start_time": 39.9909091,
                "end_time": 40.0909091,
                "pitch": 36,
                "velocity": 127,
                "duration": 0.1,
                "tempo": 120.0
            },
            {
                "start_time": 40.1909091,
                "end_time": 40.2909091,
                "pitch": 36,
                "velocity": 127,
                "duration": 0.1,
                "tempo": 120.0
            },
            {
                "start_time": 40.3886364,
                "end_time": 40.4886364,
                "pitch": 36,
                "velocity": 127,
                "duration": 0.1,
                "tempo": 120.0
            },
            {
                "start_time": 40.4886364,
                "end_time": 40.5886364,
                "pitch": 36,
                "velocity": 127,
                "duration": 0.1,
                "tempo": 120.0
            },
            {
                "start_time": 40.6886364,
                "end_time": 40.7886364,
                "pitch": 36,
                "velocity": 127,
                "duration": 0.1,
                "tempo": 120.0
            },
            {
                "start_time": 40.7886364,
                "end_time": 40.8886364,
                "pitch": 36,
                "velocity": 127,
                "duration": 0.1,
                "tempo": 120.0
            },
            {
                "start_time": 40.9886364,
                "end_time": 41.0886364,
                "pitch": 36,
                "velocity": 127,
                "duration": 0.1,
                "tempo": 120.0
            },
            {
                "start_time": 41.1909091,
                "end_time": 41.2886364,
                "pitch": 36,
                "velocity": 127,
                "duration": 0.0977273,
                "tempo": 120.0
            },
            {
                "start_time": 41.3886364,
                "end_time": 41.4886364,
                "pitch": 48,
                "velocity": 127,
                "duration": 0.1,
                "tempo": 120.0
            },
            {
                "start_time": 41.5886364,
                "end_time": 41.6863636,
                "pitch": 38,
                "velocity": 127,
                "duration": 0.0977273,
                "tempo": 120.0
            },
            {
                "start_time": 41.7840909,
                "end_time": 41.8818182,
                "pitch": 38,
                "velocity": 127,
                "duration": 0.0977273,
                "tempo": 120.0
            },
            {
                "start_time": 41.9795455,
                "end_time": 42.0795455,
                "pitch": 38,
                "velocity": 127,
                "duration": 0.1,
                "tempo": 120.0
            },
            {
                "start_time": 42.0795455,
                "end_time": 42.1795455,
                "pitch": 38,
                "velocity": 127,
                "duration": 0.1,
                "tempo": 120.0
            },
            {
                "start_time": 42.2795455,
                "end_time": 42.3772727,
                "pitch": 50,
                "velocity": 127,
                "duration": 0.0977273,
                "tempo": 120.0
            },
            {
                "start_time": 42.3772727,
                "end_time": 42.4772727,
                "pitch": 38,
                "velocity": 127,
                "duration": 0.1,
                "tempo": 120.0
            },
            {
                "start_time": 42.5772727,
                "end_time": 42.6772727,
                "pitch": 38,
                "velocity": 127,
                "duration": 0.1,
                "tempo": 120.0
            },
            {
                "start_time": 42.7772727,
                "end_time": 42.8772727,
                "pitch": 38,
                "velocity": 127,
                "duration": 0.1,
                "tempo": 120.0
            },
            {
                "start_time": 42.8772727,
                "end_time": 42.9772727,
                "pitch": 38,
                "velocity": 127,
                "duration": 0.1,
                "tempo": 120.0
            },
            {
                "start_time": 43.075,
                "end_time": 43.175,
                "pitch": 38,
                "velocity": 127,
                "duration": 0.1,
                "tempo": 120.0
            },
            {
                "start_time": 43.175,
                "end_time": 43.275,
                "pitch": 36,
                "velocity": 127,
                "duration": 0.1,
                "tempo": 120.0
            },
            {
                "start_time": 43.175,
                "end_time": 43.275,
                "pitch": 36,
                "velocity": 127,
                "duration": 0.1,
                "tempo": 120.0
            },
            {
                "start_time": 43.375,
                "end_time": 43.475,
                "pitch": 36,
                "velocity": 127,
                "duration": 0.1,
                "tempo": 120.0
            },
            {
                "start_time": 43.575,
                "end_time": 43.675,
                "pitch": 48,
                "velocity": 127,
                "duration": 0.1,
                "tempo": 120.0
            },
            {
                "start_time": 43.675,
                "end_time": 43.775,
                "pitch": 36,
                "velocity": 127,
                "duration": 0.1,
                "tempo": 120.0
            },
            {
                "start_time": 43.875,
                "end_time": 43.975,
                "pitch": 36,
                "velocity": 127,
                "duration": 0.1,
                "tempo": 120.0
            },
            {
                "start_time": 43.975,
                "end_time": 44.075,
                "pitch": 36,
                "velocity": 127,
                "duration": 0.1,
                "tempo": 120.0
            },
            {
                "start_time": 44.075,
                "end_time": 44.175,
                "pitch": 48,
                "velocity": 127,
                "duration": 0.1,
                "tempo": 120.0
            },
            {
                "start_time": 44.175,
                "end_time": 44.275,
                "pitch": 36,
                "velocity": 127,
                "duration": 0.1,
                "tempo": 120.0
            },
            {
                "start_time": 44.375,
                "end_time": 44.475,
                "pitch": 48,
                "velocity": 127,
                "duration": 0.1,
                "tempo": 120.0
            },
            {
                "start_time": 44.575,
                "end_time": 44.6727273,
                "pitch": 36,
                "velocity": 127,
                "duration": 0.0977273,
                "tempo": 120.0
            },
            {
                "start_time": 44.7727273,
                "end_time": 44.8727273,
                "pitch": 38,
                "velocity": 127,
                "duration": 0.1,
                "tempo": 120.0
            },
            {
                "start_time": 44.9727273,
                "end_time": 45.0727273,
                "pitch": 38,
                "velocity": 127,
                "duration": 0.1,
                "tempo": 120.0
            },
            {
                "start_time": 45.1727273,
                "end_time": 45.2704545,
                "pitch": 38,
                "velocity": 127,
                "duration": 0.0977273,
                "tempo": 120.0
            },
            {
                "start_time": 45.2704545,
                "end_time": 45.3681818,
                "pitch": 38,
                "velocity": 127,
                "duration": 0.0977273,
                "tempo": 120.0
            },
            {
                "start_time": 45.4659091,
                "end_time": 45.5636364,
                "pitch": 38,
                "velocity": 127,
                "duration": 0.0977273,
                "tempo": 120.0
            },
            {
                "start_time": 45.5636364,
                "end_time": 45.6636364,
                "pitch": 38,
                "velocity": 127,
                "duration": 0.1,
                "tempo": 120.0
            },
            {
                "start_time": 45.7613636,
                "end_time": 45.8613636,
                "pitch": 38,
                "velocity": 127,
                "duration": 0.1,
                "tempo": 120.0
            },
            {
                "start_time": 45.9613636,
                "end_time": 46.0613636,
                "pitch": 38,
                "velocity": 127,
                "duration": 0.1,
                "tempo": 120.0
            },
            {
                "start_time": 46.1613636,
                "end_time": 46.2613636,
                "pitch": 38,
                "velocity": 127,
                "duration": 0.1,
                "tempo": 120.0
            },
            {
                "start_time": 46.2613636,
                "end_time": 46.3636364,
                "pitch": 50,
                "velocity": 127,
                "duration": 0.1022727,
                "tempo": 120.0
            },
            {
                "start_time": 46.3636364,
                "end_time": 46.4613636,
                "pitch": 36,
                "velocity": 127,
                "duration": 0.0977273,
                "tempo": 120.0
            },
            {
                "start_time": 46.5613636,
                "end_time": 46.6613636,
                "pitch": 36,
                "velocity": 127,
                "duration": 0.1,
                "tempo": 120.0
            },
            {
                "start_time": 46.7613636,
                "end_time": 46.8613636,
                "pitch": 36,
                "velocity": 127,
                "duration": 0.1,
                "tempo": 120.0
            },
            {
                "start_time": 46.8613636,
                "end_time": 46.9613636,
                "pitch": 36,
                "velocity": 127,
                "duration": 0.1,
                "tempo": 120.0
            },
            {
                "start_time": 47.0613636,
                "end_time": 47.1613636,
                "pitch": 36,
                "velocity": 127,
                "duration": 0.1,
                "tempo": 120.0
            },
            {
                "start_time": 47.1613636,
                "end_time": 47.2613636,
                "pitch": 36,
                "velocity": 127,
                "duration": 0.1,
                "tempo": 120.0
            },
            {
                "start_time": 47.3590909,
                "end_time": 47.4590909,
                "pitch": 36,
                "velocity": 127,
                "duration": 0.1,
                "tempo": 120.0
            },
            {
                "start_time": 47.5590909,
                "end_time": 47.6590909,
                "pitch": 36,
                "velocity": 127,
                "duration": 0.1,
                "tempo": 120.0
            },
            {
                "start_time": 46.3636364,
                "end_time": 47.8590909,
                "pitch": 48,
                "velocity": 127,
                "duration": 1.4954545,
                "tempo": 120.0
            },
            {
                "start_time": 47.7590909,
                "end_time": 47.8590909,
                "pitch": 48,
                "velocity": 127,
                "duration": 0.1,
                "tempo": 120.0
            },
            {
                "start_time": 47.9568182,
                "end_time": 48.0568182,
                "pitch": 38,
                "velocity": 127,
                "duration": 0.1,
                "tempo": 120.0
            },
            {
                "start_time": 48.1590909,
                "end_time": 48.2590909,
                "pitch": 38,
                "velocity": 127,
                "duration": 0.1,
                "tempo": 120.0
            },
            {
                "start_time": 48.3590909,
                "end_time": 48.4568182,
                "pitch": 50,
                "velocity": 127,
                "duration": 0.0977273,
                "tempo": 120.0
            },
            {
                "start_time": 48.4568182,
                "end_time": 48.5545455,
                "pitch": 38,
                "velocity": 127,
                "duration": 0.0977273,
                "tempo": 120.0
            },
            {
                "start_time": 48.6522727,
                "end_time": 48.75,
                "pitch": 38,
                "velocity": 127,
                "duration": 0.0977273,
                "tempo": 120.0
            },
            {
                "start_time": 48.75,
                "end_time": 48.85,
                "pitch": 38,
                "velocity": 127,
                "duration": 0.1,
                "tempo": 120.0
            },
            {
                "start_time": 48.95,
                "end_time": 49.05,
                "pitch": 50,
                "velocity": 127,
                "duration": 0.1,
                "tempo": 120.0
            },
            {
                "start_time": 49.15,
                "end_time": 49.2477273,
                "pitch": 38,
                "velocity": 127,
                "duration": 0.0977273,
                "tempo": 120.0
            },
            {
                "start_time": 49.2477273,
                "end_time": 49.3477273,
                "pitch": 38,
                "velocity": 127,
                "duration": 0.1,
                "tempo": 120.0
            },
            {
                "start_time": 49.4477273,
                "end_time": 49.5477273,
                "pitch": 38,
                "velocity": 127,
                "duration": 0.1,
                "tempo": 120.0
            },
            {
                "start_time": 49.5477273,
                "end_time": 49.6477273,
                "pitch": 38,
                "velocity": 127,
                "duration": 0.1,
                "tempo": 120.0
            },
            {
                "start_time": 49.7477273,
                "end_time": 49.8477273,
                "pitch": 38,
                "velocity": 127,
                "duration": 0.1,
                "tempo": 120.0
            },
            {
                "start_time": 49.9454545,
                "end_time": 50.0454545,
                "pitch": 50,
                "velocity": 127,
                "duration": 0.1,
                "tempo": 120.0
            },
            {
                "start_time": 50.0454545,
                "end_time": 50.1454545,
                "pitch": 38,
                "velocity": 127,
                "duration": 0.1,
                "tempo": 120.0
            },
            {
                "start_time": 50.2454545,
                "end_time": 50.3454545,
                "pitch": 38,
                "velocity": 127,
                "duration": 0.1,
                "tempo": 120.0
            },
            {
                "start_time": 50.3454545,
                "end_time": 50.4454545,
                "pitch": 38,
                "velocity": 127,
                "duration": 0.1,
                "tempo": 120.0
            },
            {
                "start_time": 50.4454545,
                "end_time": 50.5454545,
                "pitch": 50,
                "velocity": 127,
                "duration": 0.1,
                "tempo": 120.0
            },
            {
                "start_time": 50.5454545,
                "end_time": 50.6454545,
                "pitch": 38,
                "velocity": 127,
                "duration": 0.1,
                "tempo": 120.0
            },
            {
                "start_time": 50.7454545,
                "end_time": 50.8454545,
                "pitch": 50,
                "velocity": 127,
                "duration": 0.1,
                "tempo": 120.0
            },
            {
                "start_time": 50.9454545,
                "end_time": 51.0454545,
                "pitch": 38,
                "velocity": 127,
                "duration": 0.1,
                "tempo": 120.0
            },
            {
                "start_time": 51.1454545,
                "end_time": 51.2431818,
                "pitch": 34,
                "velocity": 127,
                "duration": 0.0977273,
                "tempo": 120.0
            },
            {
                "start_time": 51.3409091,
                "end_time": 51.4386364,
                "pitch": 34,
                "velocity": 127,
                "duration": 0.0977273,
                "tempo": 120.0
            },
            {
                "start_time": 51.5363636,
                "end_time": 51.6363636,
                "pitch": 34,
                "velocity": 127,
                "duration": 0.1,
                "tempo": 120.0
            },
            {
                "start_time": 51.6363636,
                "end_time": 51.7363636,
                "pitch": 34,
                "velocity": 127,
                "duration": 0.1,
                "tempo": 120.0
            },
            {
                "start_time": 51.8363636,
                "end_time": 51.9340909,
                "pitch": 34,
                "velocity": 127,
                "duration": 0.0977273,
                "tempo": 120.0
            },
            {
                "start_time": 51.9340909,
                "end_time": 52.0340909,
                "pitch": 34,
                "velocity": 127,
                "duration": 0.1,
                "tempo": 120.0
            },
            {
                "start_time": 52.1340909,
                "end_time": 52.2340909,
                "pitch": 34,
                "velocity": 127,
                "duration": 0.1,
                "tempo": 120.0
            },
            {
                "start_time": 52.3340909,
                "end_time": 52.4340909,
                "pitch": 34,
                "velocity": 127,
                "duration": 0.1,
                "tempo": 120.0
            },
            {
                "start_time": 52.5340909,
                "end_time": 52.6318182,
                "pitch": 34,
                "velocity": 127,
                "duration": 0.0977273,
                "tempo": 120.0
            },
            {
                "start_time": 52.6318182,
                "end_time": 52.7318182,
                "pitch": 46,
                "velocity": 127,
                "duration": 0.1,
                "tempo": 120.0
            },
            {
                "start_time": 39.9909091,
                "end_time": 52.7318182,
                "pitch": 52,
                "velocity": 127,
                "duration": 12.7409091,
                "tempo": 120.0
            },
            {
                "start_time": 52.7318182,
                "end_time": 52.8318182,
                "pitch": 36,
                "velocity": 127,
                "duration": 0.1,
                "tempo": 120.0
            },
            {
                "start_time": 52.9318182,
                "end_time": 53.0318182,
                "pitch": 36,
                "velocity": 127,
                "duration": 0.1,
                "tempo": 120.0
            },
            {
                "start_time": 53.1318182,
                "end_time": 53.2318182,
                "pitch": 36,
                "velocity": 127,
                "duration": 0.1,
                "tempo": 120.0
            },
            {
                "start_time": 53.2318182,
                "end_time": 53.3318182,
                "pitch": 36,
                "velocity": 127,
                "duration": 0.1,
                "tempo": 120.0
            },
            {
                "start_time": 53.4318182,
                "end_time": 53.5318182,
                "pitch": 36,
                "velocity": 127,
                "duration": 0.1,
                "tempo": 120.0
            },
            {
                "start_time": 53.5318182,
                "end_time": 53.6318182,
                "pitch": 36,
                "velocity": 127,
                "duration": 0.1,
                "tempo": 120.0
            },
            {
                "start_time": 53.7318182,
                "end_time": 53.8318182,
                "pitch": 36,
                "velocity": 127,
                "duration": 0.1,
                "tempo": 120.0
            },
            {
                "start_time": 53.8318182,
                "end_time": 53.9318182,
                "pitch": 48,
                "velocity": 127,
                "duration": 0.1,
                "tempo": 120.0
            },
            {
                "start_time": 54.0295455,
                "end_time": 54.1272727,
                "pitch": 36,
                "velocity": 127,
                "duration": 0.0977273,
                "tempo": 120.0
            },
            {
                "start_time": 54.1272727,
                "end_time": 54.225,
                "pitch": 36,
                "velocity": 127,
                "duration": 0.0977273,
                "tempo": 120.0
            },
            {
                "start_time": 54.3227273,
                "end_time": 54.4227273,
                "pitch": 38,
                "velocity": 127,
                "duration": 0.1,
                "tempo": 120.0
            },
            {
                "start_time": 54.5272727,
                "end_time": 54.6295455,
                "pitch": 38,
                "velocity": 127,
                "duration": 0.1022727,
                "tempo": 120.0
            },
            {
                "start_time": 54.7318182,
                "end_time": 54.8295455,
                "pitch": 50,
                "velocity": 127,
                "duration": 0.0977273,
                "tempo": 120.0
            },
            {
                "start_time": 54.8295455,
                "end_time": 54.9272727,
                "pitch": 38,
                "velocity": 127,
                "duration": 0.0977273,
                "tempo": 120.0
            },
            {
                "start_time": 55.025,
                "end_time": 55.1227273,
                "pitch": 38,
                "velocity": 127,
                "duration": 0.0977273,
                "tempo": 120.0
            },
            {
                "start_time": 55.1227273,
                "end_time": 55.2227273,
                "pitch": 38,
                "velocity": 127,
                "duration": 0.1,
                "tempo": 120.0
            },
            {
                "start_time": 55.3227273,
                "end_time": 55.4204545,
                "pitch": 50,
                "velocity": 127,
                "duration": 0.0977273,
                "tempo": 120.0
            },
            {
                "start_time": 55.5204545,
                "end_time": 55.6204545,
                "pitch": 38,
                "velocity": 127,
                "duration": 0.1,
                "tempo": 120.0
            },
            {
                "start_time": 55.6204545,
                "end_time": 55.7227273,
                "pitch": 38,
                "velocity": 127,
                "duration": 0.1022727,
                "tempo": 120.0
            },
            {
                "start_time": 55.8227273,
                "end_time": 55.9227273,
                "pitch": 38,
                "velocity": 127,
                "duration": 0.1,
                "tempo": 120.0
            },
            {
                "start_time": 55.9227273,
                "end_time": 56.0204545,
                "pitch": 36,
                "velocity": 127,
                "duration": 0.0977273,
                "tempo": 120.0
            },
            {
                "start_time": 55.9227273,
                "end_time": 56.0204545,
                "pitch": 36,
                "velocity": 127,
                "duration": 0.0977273,
                "tempo": 120.0
            },
            {
                "start_time": 56.1204545,
                "end_time": 56.2204545,
                "pitch": 36,
                "velocity": 127,
                "duration": 0.1,
                "tempo": 120.0
            },
            {
                "start_time": 56.3204545,
                "end_time": 56.4204545,
                "pitch": 48,
                "velocity": 127,
                "duration": 0.1,
                "tempo": 120.0
            },
            {
                "start_time": 56.4204545,
                "end_time": 56.5204545,
                "pitch": 36,
                "velocity": 127,
                "duration": 0.1,
                "tempo": 120.0
            },
            {
                "start_time": 56.6204545,
                "end_time": 56.7204545,
                "pitch": 36,
                "velocity": 127,
                "duration": 0.1,
                "tempo": 120.0
            },
            {
                "start_time": 56.7204545,
                "end_time": 56.8181818,
                "pitch": 36,
                "velocity": 127,
                "duration": 0.0977273,
                "tempo": 120.0
            },
            {
                "start_time": 56.8181818,
                "end_time": 56.9159091,
                "pitch": 48,
                "velocity": 127,
                "duration": 0.0977273,
                "tempo": 120.0
            },
            {
                "start_time": 56.9159091,
                "end_time": 57.0136364,
                "pitch": 36,
                "velocity": 127,
                "duration": 0.0977273,
                "tempo": 120.0
            },
            {
                "start_time": 57.1113636,
                "end_time": 57.2113636,
                "pitch": 48,
                "velocity": 127,
                "duration": 0.1,
                "tempo": 120.0
            },
            {
                "start_time": 57.3090909,
                "end_time": 57.4090909,
                "pitch": 36,
                "velocity": 127,
                "duration": 0.1,
                "tempo": 120.0
            },
            {
                "start_time": 57.5090909,
                "end_time": 57.6113636,
                "pitch": 38,
                "velocity": 127,
                "duration": 0.1022727,
                "tempo": 120.0
            },
            {
                "start_time": 57.7136364,
                "end_time": 57.8159091,
                "pitch": 38,
                "velocity": 127,
                "duration": 0.1022727,
                "tempo": 120.0
            },
            {
                "start_time": 57.9181818,
                "end_time": 58.0181818,
                "pitch": 38,
                "velocity": 127,
                "duration": 0.1,
                "tempo": 120.0
            },
            {
                "start_time": 58.1181818,
                "end_time": 58.2181818,
                "pitch": 38,
                "velocity": 127,
                "duration": 0.1,
                "tempo": 120.0
            },
            {
                "start_time": 58.3181818,
                "end_time": 58.4181818,
                "pitch": 38,
                "velocity": 127,
                "duration": 0.1,
                "tempo": 120.0
            },
            {
                "start_time": 58.5181818,
                "end_time": 58.6181818,
                "pitch": 38,
                "velocity": 127,
                "duration": 0.1,
                "tempo": 120.0
            },
            {
                "start_time": 58.7159091,
                "end_time": 58.8159091,
                "pitch": 38,
                "velocity": 127,
                "duration": 0.1,
                "tempo": 120.0
            },
            {
                "start_time": 58.9159091,
                "end_time": 59.0159091,
                "pitch": 38,
                "velocity": 127,
                "duration": 0.1,
                "tempo": 120.0
            },
            {
                "start_time": 59.1159091,
                "end_time": 59.2136364,
                "pitch": 38,
                "velocity": 127,
                "duration": 0.0977273,
                "tempo": 120.0
            },
            {
                "start_time": 59.3113636,
                "end_time": 59.4090909,
                "pitch": 38,
                "velocity": 127,
                "duration": 0.0977273,
                "tempo": 120.0
            },
            {
                "start_time": 59.5068182,
                "end_time": 59.6068182,
                "pitch": 38,
                "velocity": 127,
                "duration": 0.1,
                "tempo": 120.0
            },
            {
                "start_time": 59.7068182,
                "end_time": 59.8045455,
                "pitch": 38,
                "velocity": 127,
                "duration": 0.0977273,
                "tempo": 120.0
            },
            {
                "start_time": 59.9045455,
                "end_time": 60.0045455,
                "pitch": 38,
                "velocity": 127,
                "duration": 0.1,
                "tempo": 120.0
            },
            {
                "start_time": 60.1045455,
                "end_time": 60.2045455,
                "pitch": 38,
                "velocity": 127,
                "duration": 0.1,
                "tempo": 120.0
            },
            {
                "start_time": 60.3045455,
                "end_time": 60.4045455,
                "pitch": 38,
                "velocity": 127,
                "duration": 0.1,
                "tempo": 120.0
            },
            {
                "start_time": 60.5045455,
                "end_time": 60.6045455,
                "pitch": 38,
                "velocity": 127,
                "duration": 0.1,
                "tempo": 120.0
            },
            {
                "start_time": 60.7045455,
                "end_time": 60.8045455,
                "pitch": 36,
                "velocity": 127,
                "duration": 0.1,
                "tempo": 120.0
            },
            {
                "start_time": 60.9045455,
                "end_time": 61.0045455,
                "pitch": 36,
                "velocity": 127,
                "duration": 0.1,
                "tempo": 120.0
            },
            {
                "start_time": 61.1045455,
                "end_time": 61.2045455,
                "pitch": 36,
                "velocity": 127,
                "duration": 0.1,
                "tempo": 120.0
            },
            {
                "start_time": 61.3022727,
                "end_time": 61.4022727,
                "pitch": 36,
                "velocity": 127,
                "duration": 0.1,
                "tempo": 120.0
            },
            {
                "start_time": 61.5022727,
                "end_time": 61.6,
                "pitch": 36,
                "velocity": 127,
                "duration": 0.0977273,
                "tempo": 120.0
            },
            {
                "start_time": 61.6977273,
                "end_time": 61.7954545,
                "pitch": 36,
                "velocity": 127,
                "duration": 0.0977273,
                "tempo": 120.0
            },
            {
                "start_time": 61.8931818,
                "end_time": 61.9931818,
                "pitch": 36,
                "velocity": 127,
                "duration": 0.1,
                "tempo": 120.0
            },
            {
                "start_time": 62.0931818,
                "end_time": 62.1931818,
                "pitch": 36,
                "velocity": 127,
                "duration": 0.1,
                "tempo": 120.0
            },
            {
                "start_time": 62.2909091,
                "end_time": 62.3909091,
                "pitch": 43,
                "velocity": 127,
                "duration": 0.1,
                "tempo": 120.0
            },
            {
                "start_time": 62.4909091,
                "end_time": 62.5909091,
                "pitch": 43,
                "velocity": 127,
                "duration": 0.1,
                "tempo": 120.0
            },
            {
                "start_time": 62.6909091,
                "end_time": 62.7909091,
                "pitch": 43,
                "velocity": 127,
                "duration": 0.1,
                "tempo": 120.0
            },
            {
                "start_time": 62.8909091,
                "end_time": 62.9931818,
                "pitch": 43,
                "velocity": 127,
                "duration": 0.1022727,
                "tempo": 120.0
            },
            {
                "start_time": 63.0931818,
                "end_time": 63.1931818,
                "pitch": 43,
                "velocity": 127,
                "duration": 0.1,
                "tempo": 120.0
            },
            {
                "start_time": 63.2909091,
                "end_time": 63.3909091,
                "pitch": 43,
                "velocity": 127,
                "duration": 0.1,
                "tempo": 120.0
            },
            {
                "start_time": 63.4909091,
                "end_time": 63.5909091,
                "pitch": 43,
                "velocity": 127,
                "duration": 0.1,
                "tempo": 120.0
            },
            {
                "start_time": 63.6909091,
                "end_time": 63.7909091,
                "pitch": 43,
                "velocity": 127,
                "duration": 0.1,
                "tempo": 120.0
            },
            {
                "start_time": 63.8886364,
                "end_time": 63.9863636,
                "pitch": 37,
                "velocity": 127,
                "duration": 0.0977273,
                "tempo": 120.0
            },
            {
                "start_time": 64.0840909,
                "end_time": 64.1818182,
                "pitch": 37,
                "velocity": 127,
                "duration": 0.0977273,
                "tempo": 120.0
            },
            {
                "start_time": 64.2818182,
                "end_time": 64.3818182,
                "pitch": 37,
                "velocity": 127,
                "duration": 0.1,
                "tempo": 120.0
            },
            {
                "start_time": 64.3818182,
                "end_time": 64.4818182,
                "pitch": 37,
                "velocity": 127,
                "duration": 0.1,
                "tempo": 120.0
            },
            {
                "start_time": 64.5818182,
                "end_time": 64.6818182,
                "pitch": 37,
                "velocity": 127,
                "duration": 0.1,
                "tempo": 120.0
            },
            {
                "start_time": 64.6818182,
                "end_time": 64.7818182,
                "pitch": 37,
                "velocity": 127,
                "duration": 0.1,
                "tempo": 120.0
            },
            {
                "start_time": 64.8818182,
                "end_time": 64.9818182,
                "pitch": 37,
                "velocity": 127,
                "duration": 0.1,
                "tempo": 120.0
            },
            {
                "start_time": 65.0818182,
                "end_time": 65.1818182,
                "pitch": 37,
                "velocity": 127,
                "duration": 0.1,
                "tempo": 120.0
            },
            {
                "start_time": 65.2818182,
                "end_time": 65.3818182,
                "pitch": 37,
                "velocity": 127,
                "duration": 0.1,
                "tempo": 120.0
            },
            {
                "start_time": 65.3818182,
                "end_time": 65.4818182,
                "pitch": 49,
                "velocity": 127,
                "duration": 0.1,
                "tempo": 120.0
            },
            {
                "start_time": 65.4818182,
                "end_time": 65.5818182,
                "pitch": 35,
                "velocity": 127,
                "duration": 0.1,
                "tempo": 120.0
            },
            {
                "start_time": 65.6818182,
                "end_time": 65.7818182,
                "pitch": 35,
                "velocity": 127,
                "duration": 0.1,
                "tempo": 120.0
            },
            {
                "start_time": 65.8818182,
                "end_time": 65.9818182,
                "pitch": 35,
                "velocity": 127,
                "duration": 0.1,
                "tempo": 120.0
            },
            {
                "start_time": 65.9818182,
                "end_time": 66.0818182,
                "pitch": 35,
                "velocity": 127,
                "duration": 0.1,
                "tempo": 120.0
            },
            {
                "start_time": 66.1818182,
                "end_time": 66.2818182,
                "pitch": 35,
                "velocity": 127,
                "duration": 0.1,
                "tempo": 120.0
            },
            {
                "start_time": 66.2818182,
                "end_time": 66.3818182,
                "pitch": 35,
                "velocity": 127,
                "duration": 0.1,
                "tempo": 120.0
            },
            {
                "start_time": 66.4840909,
                "end_time": 66.5840909,
                "pitch": 35,
                "velocity": 127,
                "duration": 0.1,
                "tempo": 120.0
            },
            {
                "start_time": 66.6840909,
                "end_time": 66.7840909,
                "pitch": 35,
                "velocity": 127,
                "duration": 0.1,
                "tempo": 120.0
            },
            {
                "start_time": 66.8840909,
                "end_time": 66.9840909,
                "pitch": 47,
                "velocity": 127,
                "duration": 0.1,
                "tempo": 120.0
            },
            {
                "start_time": 67.0818182,
                "end_time": 67.1795455,
                "pitch": 33,
                "velocity": 127,
                "duration": 0.0977273,
                "tempo": 120.0
            },
            {
                "start_time": 67.2772727,
                "end_time": 67.375,
                "pitch": 33,
                "velocity": 127,
                "duration": 0.0977273,
                "tempo": 120.0
            },
            {
                "start_time": 67.4727273,
                "end_time": 67.5727273,
                "pitch": 33,
                "velocity": 127,
                "duration": 0.1,
                "tempo": 120.0
            },
            {
                "start_time": 67.5727273,
                "end_time": 67.6727273,
                "pitch": 33,
                "velocity": 127,
                "duration": 0.1,
                "tempo": 120.0
            },
            {
                "start_time": 67.775,
                "end_time": 67.875,
                "pitch": 45,
                "velocity": 127,
                "duration": 0.1,
                "tempo": 120.0
            },
            {
                "start_time": 67.875,
                "end_time": 67.9772727,
                "pitch": 35,
                "velocity": 127,
                "duration": 0.1022727,
                "tempo": 120.0
            },
            {
                "start_time": 68.0795455,
                "end_time": 68.1818182,
                "pitch": 35,
                "velocity": 127,
                "duration": 0.1022727,
                "tempo": 120.0
            },
            {
                "start_time": 68.2840909,
                "end_time": 68.3818182,
                "pitch": 35,
                "velocity": 127,
                "duration": 0.0977273,
                "tempo": 120.0
            },
            {
                "start_time": 68.3818182,
                "end_time": 68.4795455,
                "pitch": 35,
                "velocity": 127,
                "duration": 0.0977273,
                "tempo": 120.0
            },
            {
                "start_time": 68.5772727,
                "end_time": 68.675,
                "pitch": 35,
                "velocity": 127,
                "duration": 0.0977273,
                "tempo": 120.0
            },
            {
                "start_time": 11.2818182,
                "end_time": 68.675,
                "pitch": 40,
                "velocity": 127,
                "duration": 57.3931818,
                "tempo": 120.0
            },
            {
                "start_time": 68.675,
                "end_time": 68.775,
                "pitch": 37,
                "velocity": 127,
                "duration": 0.1,
                "tempo": 120.0
            },
            {
                "start_time": 68.875,
                "end_time": 68.975,
                "pitch": 37,
                "velocity": 127,
                "duration": 0.1,
                "tempo": 120.0
            },
            {
                "start_time": 69.0772727,
                "end_time": 69.1772727,
                "pitch": 49,
                "velocity": 127,
                "duration": 0.1,
                "tempo": 120.0
            },
            {
                "start_time": 69.1772727,
                "end_time": 69.275,
                "pitch": 37,
                "velocity": 127,
                "duration": 0.0977273,
                "tempo": 120.0
            },
            {
                "start_time": 69.375,
                "end_time": 69.475,
                "pitch": 37,
                "velocity": 127,
                "duration": 0.1,
                "tempo": 120.0
            },
            {
                "start_time": 69.475,
                "end_time": 69.575,
                "pitch": 37,
                "velocity": 127,
                "duration": 0.1,
                "tempo": 120.0
            },
            {
                "start_time": 69.575,
                "end_time": 69.6772727,
                "pitch": 49,
                "velocity": 127,
                "duration": 0.1022727,
                "tempo": 120.0
            },
            {
                "start_time": 69.6772727,
                "end_time": 69.7772727,
                "pitch": 37,
                "velocity": 127,
                "duration": 0.1,
                "tempo": 120.0
            },
            {
                "start_time": 69.8772727,
                "end_time": 69.975,
                "pitch": 49,
                "velocity": 127,
                "duration": 0.0977273,
                "tempo": 120.0
            },
            {
                "start_time": 70.075,
                "end_time": 70.175,
                "pitch": 37,
                "velocity": 127,
                "duration": 0.1,
                "tempo": 120.0
            },
            {
                "start_time": 70.275,
                "end_time": 70.375,
                "pitch": 33,
                "velocity": 127,
                "duration": 0.1,
                "tempo": 120.0
            },
            {
                "start_time": 70.475,
                "end_time": 70.5772727,
                "pitch": 33,
                "velocity": 127,
                "duration": 0.1022727,
                "tempo": 120.0
            },
            {
                "start_time": 70.6772727,
                "end_time": 70.775,
                "pitch": 33,
                "velocity": 127,
                "duration": 0.0977273,
                "tempo": 120.0
            },
            {
                "start_time": 70.775,
                "end_time": 70.8727273,
                "pitch": 33,
                "velocity": 127,
                "duration": 0.0977273,
                "tempo": 120.0
            },
            {
                "start_time": 70.9704545,
                "end_time": 71.0681818,
                "pitch": 33,
                "velocity": 127,
                "duration": 0.0977273,
                "tempo": 120.0
            },
            {
                "start_time": 71.0681818,
                "end_time": 71.1681818,
                "pitch": 33,
                "velocity": 127,
                "duration": 0.1,
                "tempo": 120.0
            },
            {
                "start_time": 71.2681818,
                "end_time": 71.3659091,
                "pitch": 33,
                "velocity": 127,
                "duration": 0.0977273,
                "tempo": 120.0
            },
            {
                "start_time": 71.4659091,
                "end_time": 71.5659091,
                "pitch": 33,
                "velocity": 127,
                "duration": 0.1,
                "tempo": 120.0
            },
            {
                "start_time": 71.6659091,
                "end_time": 71.7681818,
                "pitch": 33,
                "velocity": 127,
                "duration": 0.1022727,
                "tempo": 120.0
            },
            {
                "start_time": 71.7681818,
                "end_time": 71.8681818,
                "pitch": 45,
                "velocity": 127,
                "duration": 0.1,
                "tempo": 120.0
            },
            {
                "start_time": 71.8681818,
                "end_time": 71.9681818,
                "pitch": 35,
                "velocity": 127,
                "duration": 0.1,
                "tempo": 120.0
            },
            {
                "start_time": 72.0681818,
                "end_time": 72.1681818,
                "pitch": 35,
                "velocity": 127,
                "duration": 0.1,
                "tempo": 120.0
            },
            {
                "start_time": 72.2704545,
                "end_time": 72.3681818,
                "pitch": 35,
                "velocity": 127,
                "duration": 0.0977273,
                "tempo": 120.0
            },
            {
                "start_time": 72.3681818,
                "end_time": 72.4681818,
                "pitch": 35,
                "velocity": 127,
                "duration": 0.1,
                "tempo": 120.0
            },
            {
                "start_time": 72.5681818,
                "end_time": 72.6681818,
                "pitch": 35,
                "velocity": 127,
                "duration": 0.1,
                "tempo": 120.0
            },
            {
                "start_time": 72.6681818,
                "end_time": 72.7681818,
                "pitch": 35,
                "velocity": 127,
                "duration": 0.1,
                "tempo": 120.0
            },
            {
                "start_time": 72.8681818,
                "end_time": 72.9681818,
                "pitch": 35,
                "velocity": 127,
                "duration": 0.1,
                "tempo": 120.0
            },
            {
                "start_time": 73.0681818,
                "end_time": 73.1681818,
                "pitch": 35,
                "velocity": 127,
                "duration": 0.1,
                "tempo": 120.0
            },
            {
                "start_time": 67.875,
                "end_time": 73.3681818,
                "pitch": 47,
                "velocity": 127,
                "duration": 5.4931818,
                "tempo": 120.0
            },
            {
                "start_time": 73.2681818,
                "end_time": 73.3681818,
                "pitch": 47,
                "velocity": 127,
                "duration": 0.1,
                "tempo": 120.0
            },
            {
                "start_time": 73.4681818,
                "end_time": 73.5659091,
                "pitch": 37,
                "velocity": 127,
                "duration": 0.0977273,
                "tempo": 120.0
            },
            {
                "start_time": 73.6636364,
                "end_time": 73.7613636,
                "pitch": 37,
                "velocity": 127,
                "duration": 0.0977273,
                "tempo": 120.0
            },
            {
                "start_time": 73.8590909,
                "end_time": 73.9590909,
                "pitch": 37,
                "velocity": 127,
                "duration": 0.1,
                "tempo": 120.0
            },
            {
                "start_time": 73.9590909,
                "end_time": 74.0590909,
                "pitch": 37,
                "velocity": 127,
                "duration": 0.1,
                "tempo": 120.0
            },
            {
                "start_time": 74.1613636,
                "end_time": 74.2613636,
                "pitch": 49,
                "velocity": 127,
                "duration": 0.1,
                "tempo": 120.0
            },
            {
                "start_time": 74.2613636,
                "end_time": 74.3613636,
                "pitch": 37,
                "velocity": 127,
                "duration": 0.1,
                "tempo": 120.0
            },
            {
                "start_time": 74.4613636,
                "end_time": 74.5613636,
                "pitch": 37,
                "velocity": 127,
                "duration": 0.1,
                "tempo": 120.0
            },
            {
                "start_time": 74.6613636,
                "end_time": 74.7613636,
                "pitch": 37,
                "velocity": 127,
                "duration": 0.1,
                "tempo": 120.0
            },
            {
                "start_time": 74.7613636,
                "end_time": 74.8613636,
                "pitch": 37,
                "velocity": 127,
                "duration": 0.1,
                "tempo": 120.0
            },
            {
                "start_time": 74.9613636,
                "end_time": 75.0613636,
                "pitch": 37,
                "velocity": 127,
                "duration": 0.1,
                "tempo": 120.0
            },
            {
                "start_time": 75.0613636,
                "end_time": 75.1613636,
                "pitch": 35,
                "velocity": 127,
                "duration": 0.1,
                "tempo": 120.0
            },
            {
                "start_time": 75.2613636,
                "end_time": 75.3613636,
                "pitch": 35,
                "velocity": 127,
                "duration": 0.1,
                "tempo": 120.0
            },
            {
                "start_time": 75.4613636,
                "end_time": 75.5613636,
                "pitch": 47,
                "velocity": 127,
                "duration": 0.1,
                "tempo": 120.0
            },
            {
                "start_time": 75.5613636,
                "end_time": 75.6613636,
                "pitch": 35,
                "velocity": 127,
                "duration": 0.1,
                "tempo": 120.0
            },
            {
                "start_time": 75.7613636,
                "end_time": 75.8613636,
                "pitch": 35,
                "velocity": 127,
                "duration": 0.1,
                "tempo": 120.0
            },
            {
                "start_time": 75.8613636,
                "end_time": 75.9613636,
                "pitch": 35,
                "velocity": 127,
                "duration": 0.1,
                "tempo": 120.0
            },
            {
                "start_time": 75.9613636,
                "end_time": 76.0613636,
                "pitch": 47,
                "velocity": 127,
                "duration": 0.1,
                "tempo": 120.0
            },
            {
                "start_time": 76.0613636,
                "end_time": 76.1613636,
                "pitch": 35,
                "velocity": 127,
                "duration": 0.1,
                "tempo": 120.0
            },
            {
                "start_time": 76.2613636,
                "end_time": 76.3636364,
                "pitch": 47,
                "velocity": 127,
                "duration": 0.1022727,
                "tempo": 120.0
            },
            {
                "start_time": 76.4636364,
                "end_time": 76.5636364,
                "pitch": 35,
                "velocity": 127,
                "duration": 0.1,
                "tempo": 120.0
            },
            {
                "start_time": 76.6636364,
                "end_time": 76.7636364,
                "pitch": 37,
                "velocity": 127,
                "duration": 0.1,
                "tempo": 120.0
            },
            {
                "start_time": 76.8636364,
                "end_time": 76.9636364,
                "pitch": 37,
                "velocity": 127,
                "duration": 0.1,
                "tempo": 120.0
            },
            {
                "start_time": 77.0613636,
                "end_time": 77.1613636,
                "pitch": 37,
                "velocity": 127,
                "duration": 0.1,
                "tempo": 120.0
            },
            {
                "start_time": 77.1613636,
                "end_time": 77.2568182,
                "pitch": 37,
                "velocity": 127,
                "duration": 0.0954545,
                "tempo": 120.0
            },
            {
                "start_time": 77.3568182,
                "end_time": 77.4545455,
                "pitch": 37,
                "velocity": 127,
                "duration": 0.0977273,
                "tempo": 120.0
            },
            {
                "start_time": 77.4545455,
                "end_time": 77.5545455,
                "pitch": 37,
                "velocity": 127,
                "duration": 0.1,
                "tempo": 120.0
            },
            {
                "start_time": 77.6545455,
                "end_time": 77.7545455,
                "pitch": 37,
                "velocity": 127,
                "duration": 0.1,
                "tempo": 120.0
            },
            {
                "start_time": 77.8545455,
                "end_time": 77.9545455,
                "pitch": 37,
                "velocity": 127,
                "duration": 0.1,
                "tempo": 120.0
            },
            {
                "start_time": 78.0545455,
                "end_time": 78.1545455,
                "pitch": 37,
                "velocity": 127,
                "duration": 0.1,
                "tempo": 120.0
            },
            {
                "start_time": 78.1545455,
                "end_time": 78.2522727,
                "pitch": 49,
                "velocity": 127,
                "duration": 0.0977273,
                "tempo": 120.0
            },
            {
                "start_time": 78.2522727,
                "end_time": 78.3522727,
                "pitch": 35,
                "velocity": 127,
                "duration": 0.1,
                "tempo": 120.0
            },
            {
                "start_time": 78.4545455,
                "end_time": 78.5545455,
                "pitch": 35,
                "velocity": 127,
                "duration": 0.1,
                "tempo": 120.0
            },
            {
                "start_time": 78.6545455,
                "end_time": 78.7545455,
                "pitch": 35,
                "velocity": 127,
                "duration": 0.1,
                "tempo": 120.0
            },
            {
                "start_time": 78.7545455,
                "end_time": 78.8568182,
                "pitch": 35,
                "velocity": 127,
                "duration": 0.1022727,
                "tempo": 120.0
            },
            {
                "start_time": 78.9568182,
                "end_time": 79.0568182,
                "pitch": 35,
                "velocity": 127,
                "duration": 0.1,
                "tempo": 120.0
            },
            {
                "start_time": 79.0568182,
                "end_time": 79.1568182,
                "pitch": 35,
                "velocity": 127,
                "duration": 0.1,
                "tempo": 120.0
            },
            {
                "start_time": 79.2568182,
                "end_time": 79.3545455,
                "pitch": 35,
                "velocity": 127,
                "duration": 0.0977273,
                "tempo": 120.0
            },
            {
                "start_time": 79.4545455,
                "end_time": 79.5522727,
                "pitch": 35,
                "velocity": 127,
                "duration": 0.0977273,
                "tempo": 120.0
            },
            {
                "start_time": 79.65,
                "end_time": 79.7477273,
                "pitch": 47,
                "velocity": 127,
                "duration": 0.0977273,
                "tempo": 120.0
            },
            {
                "start_time": 79.8454545,
                "end_time": 79.9477273,
                "pitch": 37,
                "velocity": 127,
                "duration": 0.1022727,
                "tempo": 120.0
            },
            {
                "start_time": 80.05,
                "end_time": 80.1522727,
                "pitch": 37,
                "velocity": 127,
                "duration": 0.1022727,
                "tempo": 120.0
            },
            {
                "start_time": 80.2545455,
                "end_time": 80.3522727,
                "pitch": 49,
                "velocity": 127,
                "duration": 0.0977273,
                "tempo": 120.0
            },
            {
                "start_time": 80.3522727,
                "end_time": 80.45,
                "pitch": 37,
                "velocity": 127,
                "duration": 0.0977273,
                "tempo": 120.0
            },
            {
                "start_time": 80.5477273,
                "end_time": 80.6454545,
                "pitch": 37,
                "velocity": 127,
                "duration": 0.0977273,
                "tempo": 120.0
            },
            {
                "start_time": 80.6454545,
                "end_time": 80.7454545,
                "pitch": 37,
                "velocity": 127,
                "duration": 0.1,
                "tempo": 120.0
            },
            {
                "start_time": 80.8477273,
                "end_time": 80.9477273,
                "pitch": 49,
                "velocity": 127,
                "duration": 0.1,
                "tempo": 120.0
            },
            {
                "start_time": 81.0477273,
                "end_time": 81.1477273,
                "pitch": 37,
                "velocity": 127,
                "duration": 0.1,
                "tempo": 120.0
            },
            {
                "start_time": 81.1477273,
                "end_time": 81.2477273,
                "pitch": 37,
                "velocity": 127,
                "duration": 0.1,
                "tempo": 120.0
            },
            {
                "start_time": 81.3477273,
                "end_time": 81.4477273,
                "pitch": 37,
                "velocity": 127,
                "duration": 0.1,
                "tempo": 120.0
            },
            {
                "start_time": 81.4477273,
                "end_time": 81.5477273,
                "pitch": 37,
                "velocity": 127,
                "duration": 0.1,
                "tempo": 120.0
            },
            {
                "start_time": 81.6477273,
                "end_time": 81.7477273,
                "pitch": 37,
                "velocity": 127,
                "duration": 0.1,
                "tempo": 120.0
            },
            {
                "start_time": 81.8477273,
                "end_time": 81.9477273,
                "pitch": 49,
                "velocity": 127,
                "duration": 0.1,
                "tempo": 120.0
            },
            {
                "start_time": 81.9477273,
                "end_time": 82.0477273,
                "pitch": 37,
                "velocity": 127,
                "duration": 0.1,
                "tempo": 120.0
            },
            {
                "start_time": 82.1477273,
                "end_time": 82.2477273,
                "pitch": 37,
                "velocity": 127,
                "duration": 0.1,
                "tempo": 120.0
            },
            {
                "start_time": 82.2477273,
                "end_time": 82.3477273,
                "pitch": 37,
                "velocity": 127,
                "duration": 0.1,
                "tempo": 120.0
            },
            {
                "start_time": 82.3477273,
                "end_time": 82.4477273,
                "pitch": 49,
                "velocity": 127,
                "duration": 0.1,
                "tempo": 120.0
            },
            {
                "start_time": 82.4477273,
                "end_time": 82.5477273,
                "pitch": 37,
                "velocity": 127,
                "duration": 0.1,
                "tempo": 120.0
            },
            {
                "start_time": 82.6477273,
                "end_time": 82.7454545,
                "pitch": 49,
                "velocity": 127,
                "duration": 0.0977273,
                "tempo": 120.0
            },
            {
                "start_time": 82.8431818,
                "end_time": 82.9409091,
                "pitch": 37,
                "velocity": 127,
                "duration": 0.0977273,
                "tempo": 120.0
            },
            {
                "start_time": 83.0386364,
                "end_time": 83.1386364,
                "pitch": 33,
                "velocity": 127,
                "duration": 0.1,
                "tempo": 120.0
            },
            {
                "start_time": 83.2386364,
                "end_time": 83.3409091,
                "pitch": 33,
                "velocity": 127,
                "duration": 0.1022727,
                "tempo": 120.0
            },
            {
                "start_time": 83.4409091,
                "end_time": 83.5409091,
                "pitch": 33,
                "velocity": 127,
                "duration": 0.1,
                "tempo": 120.0
            },
            {
                "start_time": 83.5409091,
                "end_time": 83.6409091,
                "pitch": 33,
                "velocity": 127,
                "duration": 0.1,
                "tempo": 120.0
            },
            {
                "start_time": 83.7409091,
                "end_time": 83.8409091,
                "pitch": 33,
                "velocity": 127,
                "duration": 0.1,
                "tempo": 120.0
            },
            {
                "start_time": 83.8409091,
                "end_time": 83.9409091,
                "pitch": 33,
                "velocity": 127,
                "duration": 0.1,
                "tempo": 120.0
            },
            {
                "start_time": 84.0409091,
                "end_time": 84.1409091,
                "pitch": 33,
                "velocity": 127,
                "duration": 0.1,
                "tempo": 120.0
            },
            {
                "start_time": 84.2409091,
                "end_time": 84.3409091,
                "pitch": 33,
                "velocity": 127,
                "duration": 0.1,
                "tempo": 120.0
            },
            {
                "start_time": 84.4409091,
                "end_time": 84.5409091,
                "pitch": 33,
                "velocity": 127,
                "duration": 0.1,
                "tempo": 120.0
            },
            {
                "start_time": 84.5409091,
                "end_time": 84.6409091,
                "pitch": 45,
                "velocity": 127,
                "duration": 0.1,
                "tempo": 120.0
            },
            {
                "start_time": 84.6409091,
                "end_time": 84.7409091,
                "pitch": 35,
                "velocity": 127,
                "duration": 0.1,
                "tempo": 120.0
            },
            {
                "start_time": 84.8409091,
                "end_time": 84.9409091,
                "pitch": 35,
                "velocity": 127,
                "duration": 0.1,
                "tempo": 120.0
            },
            {
                "start_time": 85.0409091,
                "end_time": 85.1409091,
                "pitch": 35,
                "velocity": 127,
                "duration": 0.1,
                "tempo": 120.0
            },
            {
                "start_time": 85.1409091,
                "end_time": 85.2409091,
                "pitch": 35,
                "velocity": 127,
                "duration": 0.1,
                "tempo": 120.0
            },
            {
                "start_time": 85.3409091,
                "end_time": 85.4409091,
                "pitch": 35,
                "velocity": 127,
                "duration": 0.1,
                "tempo": 120.0
            },
            {
                "start_time": 85.4409091,
                "end_time": 85.5431818,
                "pitch": 35,
                "velocity": 127,
                "duration": 0.1022727,
                "tempo": 120.0
            },
            {
                "start_time": 85.6431818,
                "end_time": 85.7431818,
                "pitch": 35,
                "velocity": 127,
                "duration": 0.1,
                "tempo": 120.0
            },
            {
                "start_time": 85.7431818,
                "end_time": 85.8431818,
                "pitch": 47,
                "velocity": 127,
                "duration": 0.1,
                "tempo": 120.0
            },
            {
                "start_time": 85.9409091,
                "end_time": 86.0386364,
                "pitch": 35,
                "velocity": 127,
                "duration": 0.0977273,
                "tempo": 120.0
            },
            {
                "start_time": 86.0386364,
                "end_time": 86.1363636,
                "pitch": 35,
                "velocity": 127,
                "duration": 0.0977273,
                "tempo": 120.0
            },
            {
                "start_time": 86.2340909,
                "end_time": 86.3363636,
                "pitch": 37,
                "velocity": 127,
                "duration": 0.1022727,
                "tempo": 120.0
            },
            {
                "start_time": 86.4386364,
                "end_time": 86.5409091,
                "pitch": 37,
                "velocity": 127,
                "duration": 0.1022727,
                "tempo": 120.0
            },
            {
                "start_time": 86.6431818,
                "end_time": 86.7409091,
                "pitch": 49,
                "velocity": 127,
                "duration": 0.0977273,
                "tempo": 120.0
            },
            {
                "start_time": 86.7409091,
                "end_time": 86.8386364,
                "pitch": 37,
                "velocity": 127,
                "duration": 0.0977273,
                "tempo": 120.0
            },
            {
                "start_time": 86.9363636,
                "end_time": 87.0340909,
                "pitch": 37,
                "velocity": 127,
                "duration": 0.0977273,
                "tempo": 120.0
            },
            {
                "start_time": 87.0340909,
                "end_time": 87.1340909,
                "pitch": 37,
                "velocity": 127,
                "duration": 0.1,
                "tempo": 120.0
            },
            {
                "start_time": 87.2340909,
                "end_time": 87.3340909,
                "pitch": 49,
                "velocity": 127,
                "duration": 0.1,
                "tempo": 120.0
            },
            {
                "start_time": 87.4340909,
                "end_time": 87.5340909,
                "pitch": 37,
                "velocity": 127,
                "duration": 0.1,
                "tempo": 120.0
            },
            {
                "start_time": 87.5340909,
                "end_time": 87.6340909,
                "pitch": 37,
                "velocity": 127,
                "duration": 0.1,
                "tempo": 120.0
            },
            {
                "start_time": 75.0613636,
                "end_time": 87.8340909,
                "pitch": 20,
                "velocity": 127,
                "duration": 12.7727273,
                "tempo": 120.0
            },
            {
                "start_time": 87.7340909,
                "end_time": 87.8340909,
                "pitch": 37,
                "velocity": 127,
                "duration": 0.1,
                "tempo": 120.0
            },
            {
                "start_time": 87.8340909,
                "end_time": 87.9340909,
                "pitch": 35,
                "velocity": 127,
                "duration": 0.1,
                "tempo": 120.0
            },
            {
                "start_time": 88.0340909,
                "end_time": 88.1340909,
                "pitch": 35,
                "velocity": 127,
                "duration": 0.1,
                "tempo": 120.0
            },
            {
                "start_time": 88.2340909,
                "end_time": 88.3340909,
                "pitch": 47,
                "velocity": 127,
                "duration": 0.1,
                "tempo": 120.0
            },
            {
                "start_time": 88.3340909,
                "end_time": 88.4340909,
                "pitch": 35,
                "velocity": 127,
                "duration": 0.1,
                "tempo": 120.0
            },
            {
                "start_time": 88.5340909,
                "end_time": 88.6340909,
                "pitch": 35,
                "velocity": 127,
                "duration": 0.1,
                "tempo": 120.0
            },
            {
                "start_time": 88.6340909,
                "end_time": 88.7318182,
                "pitch": 35,
                "velocity": 127,
                "duration": 0.0977273,
                "tempo": 120.0
            },
            {
                "start_time": 88.7318182,
                "end_time": 88.8295455,
                "pitch": 47,
                "velocity": 127,
                "duration": 0.0977273,
                "tempo": 120.0
            },
            {
                "start_time": 88.8295455,
                "end_time": 88.9272727,
                "pitch": 35,
                "velocity": 127,
                "duration": 0.0977273,
                "tempo": 120.0
            },
            {
                "start_time": 89.025,
                "end_time": 89.125,
                "pitch": 47,
                "velocity": 127,
                "duration": 0.1,
                "tempo": 120.0
            },
            {
                "start_time": 89.225,
                "end_time": 89.3272727,
                "pitch": 36,
                "velocity": 127,
                "duration": 0.1022727,
                "tempo": 120.0
            }
        ],
        "Lead 2 (sawtooth)": [
            {
                "start_time": 6.4931818,
                "end_time": 6.8522727,
                "pitch": 67,
                "velocity": 101,
                "duration": 0.3590909,
                "tempo": 120.0
            },
            {
                "start_time": 6.8522727,
                "end_time": 7.0522727,
                "pitch": 67,
                "velocity": 101,
                "duration": 0.2,
                "tempo": 120.0
            },
            {
                "start_time": 7.0522727,
                "end_time": 7.2522727,
                "pitch": 67,
                "velocity": 101,
                "duration": 0.2,
                "tempo": 120.0
            },
            {
                "start_time": 6.8522727,
                "end_time": 7.2522727,
                "pitch": 79,
                "velocity": 101,
                "duration": 0.4,
                "tempo": 120.0
            },
            {
                "start_time": 7.2522727,
                "end_time": 7.4522727,
                "pitch": 67,
                "velocity": 101,
                "duration": 0.2,
                "tempo": 120.0
            },
            {
                "start_time": 7.4522727,
                "end_time": 7.6522727,
                "pitch": 67,
                "velocity": 101,
                "duration": 0.2,
                "tempo": 120.0
            },
            {
                "start_time": 7.2522727,
                "end_time": 7.6522727,
                "pitch": 79,
                "velocity": 101,
                "duration": 0.4,
                "tempo": 120.0
            },
            {
                "start_time": 7.6522727,
                "end_time": 7.85,
                "pitch": 67,
                "velocity": 101,
                "duration": 0.1977273,
                "tempo": 120.0
            },
            {
                "start_time": 7.6522727,
                "end_time": 7.85,
                "pitch": 79,
                "velocity": 101,
                "duration": 0.1977273,
                "tempo": 120.0
            },
            {
                "start_time": 7.85,
                "end_time": 8.0454545,
                "pitch": 67,
                "velocity": 101,
                "duration": 0.1954545,
                "tempo": 120.0
            },
            {
                "start_time": 7.85,
                "end_time": 8.0454545,
                "pitch": 79,
                "velocity": 101,
                "duration": 0.1954545,
                "tempo": 120.0
            },
            {
                "start_time": 8.0454545,
                "end_time": 8.0840909,
                "pitch": 67,
                "velocity": 101,
                "duration": 0.0386364,
                "tempo": 120.0
            },
            {
                "start_time": 8.0840909,
                "end_time": 9.6886364,
                "pitch": 70,
                "velocity": 101,
                "duration": 1.6045455,
                "tempo": 120.0
            },
            {
                "start_time": 9.6886364,
                "end_time": 9.8886364,
                "pitch": 63,
                "velocity": 101,
                "duration": 0.2,
                "tempo": 120.0
            },
            {
                "start_time": 9.8886364,
                "end_time": 10.4909091,
                "pitch": 63,
                "velocity": 101,
                "duration": 0.6022727,
                "tempo": 120.0
            },
            {
                "start_time": 10.4909091,
                "end_time": 10.6909091,
                "pitch": 65,
                "velocity": 101,
                "duration": 0.2,
                "tempo": 120.0
            },
            {
                "start_time": 10.6909091,
                "end_time": 11.2818182,
                "pitch": 65,
                "velocity": 101,
                "duration": 0.5909091,
                "tempo": 120.0
            },
            {
                "start_time": 11.2818182,
                "end_time": 11.2840909,
                "pitch": 60,
                "velocity": 101,
                "duration": 0.0022727,
                "tempo": 120.0
            },
            {
                "start_time": 11.2840909,
                "end_time": 11.3818182,
                "pitch": 72,
                "velocity": 101,
                "duration": 0.0977273,
                "tempo": 120.0
            },
            {
                "start_time": 11.3818182,
                "end_time": 11.4840909,
                "pitch": 70,
                "velocity": 101,
                "duration": 0.1022727,
                "tempo": 120.0
            },
            {
                "start_time": 11.4840909,
                "end_time": 11.8840909,
                "pitch": 72,
                "velocity": 101,
                "duration": 0.4,
                "tempo": 120.0
            },
            {
                "start_time": 11.8840909,
                "end_time": 12.2454545,
                "pitch": 67,
                "velocity": 101,
                "duration": 0.3613636,
                "tempo": 120.0
            },
            {
                "start_time": 12.2454545,
                "end_time": 12.4477273,
                "pitch": 67,
                "velocity": 101,
                "duration": 0.2022727,
                "tempo": 120.0
            },
            {
                "start_time": 12.4477273,
                "end_time": 12.4863636,
                "pitch": 67,
                "velocity": 101,
                "duration": 0.0386364,
                "tempo": 120.0
            },
            {
                "start_time": 12.4863636,
                "end_time": 12.8886364,
                "pitch": 72,
                "velocity": 101,
                "duration": 0.4022727,
                "tempo": 120.0
            },
            {
                "start_time": 12.8886364,
                "end_time": 14.2795455,
                "pitch": 60,
                "velocity": 101,
                "duration": 1.3909091,
                "tempo": 120.0
            },
            {
                "start_time": 14.2795455,
                "end_time": 14.4818182,
                "pitch": 68,
                "velocity": 101,
                "duration": 0.2022727,
                "tempo": 120.0
            },
            {
                "start_time": 14.4818182,
                "end_time": 15.8840909,
                "pitch": 70,
                "velocity": 101,
                "duration": 1.4022727,
                "tempo": 120.0
            },
            {
                "start_time": 15.8840909,
                "end_time": 16.0840909,
                "pitch": 70,
                "velocity": 101,
                "duration": 0.2,
                "tempo": 120.0
            },
            {
                "start_time": 9.6886364,
                "end_time": 16.0840909,
                "pitch": 77,
                "velocity": 101,
                "duration": 6.3954545,
                "tempo": 120.0
            },
            {
                "start_time": 16.0840909,
                "end_time": 17.6727273,
                "pitch": 63,
                "velocity": 101,
                "duration": 1.5886364,
                "tempo": 120.0
            },
            {
                "start_time": 17.6727273,
                "end_time": 18.475,
                "pitch": 62,
                "velocity": 101,
                "duration": 0.8022727,
                "tempo": 120.0
            },
            {
                "start_time": 18.475,
                "end_time": 19.275,
                "pitch": 62,
                "velocity": 101,
                "duration": 0.8,
                "tempo": 120.0
            },
            {
                "start_time": 19.275,
                "end_time": 19.6318182,
                "pitch": 67,
                "velocity": 101,
                "duration": 0.3568182,
                "tempo": 120.0
            },
            {
                "start_time": 8.0454545,
                "end_time": 19.6318182,
                "pitch": 79,
                "velocity": 101,
                "duration": 11.5863636,
                "tempo": 120.0
            },
            {
                "start_time": 19.6318182,
                "end_time": 19.8318182,
                "pitch": 67,
                "velocity": 101,
                "duration": 0.2,
                "tempo": 120.0
            },
            {
                "start_time": 19.6318182,
                "end_time": 19.8318182,
                "pitch": 79,
                "velocity": 101,
                "duration": 0.2,
                "tempo": 120.0
            },
            {
                "start_time": 19.8318182,
                "end_time": 20.0340909,
                "pitch": 67,
                "velocity": 101,
                "duration": 0.2022727,
                "tempo": 120.0
            },
            {
                "start_time": 19.8318182,
                "end_time": 20.0340909,
                "pitch": 79,
                "velocity": 101,
                "duration": 0.2022727,
                "tempo": 120.0
            },
            {
                "start_time": 20.0340909,
                "end_time": 20.2295455,
                "pitch": 67,
                "velocity": 101,
                "duration": 0.1954545,
                "tempo": 120.0
            },
            {
                "start_time": 20.0340909,
                "end_time": 20.2295455,
                "pitch": 79,
                "velocity": 101,
                "duration": 0.1954545,
                "tempo": 120.0
            },
            {
                "start_time": 20.2295455,
                "end_time": 20.425,
                "pitch": 67,
                "velocity": 101,
                "duration": 0.1954545,
                "tempo": 120.0
            },
            {
                "start_time": 20.2295455,
                "end_time": 20.425,
                "pitch": 79,
                "velocity": 101,
                "duration": 0.1954545,
                "tempo": 120.0
            },
            {
                "start_time": 20.425,
                "end_time": 20.6227273,
                "pitch": 67,
                "velocity": 101,
                "duration": 0.1977273,
                "tempo": 120.0
            },
            {
                "start_time": 20.425,
                "end_time": 20.625,
                "pitch": 79,
                "velocity": 101,
                "duration": 0.2,
                "tempo": 120.0
            },
            {
                "start_time": 20.6227273,
                "end_time": 20.625,
                "pitch": 79,
                "velocity": 101,
                "duration": 0.0022727,
                "tempo": 120.0
            },
            {
                "start_time": 20.625,
                "end_time": 20.8227273,
                "pitch": 67,
                "velocity": 101,
                "duration": 0.1977273,
                "tempo": 120.0
            },
            {
                "start_time": 20.8227273,
                "end_time": 20.8636364,
                "pitch": 67,
                "velocity": 101,
                "duration": 0.0409091,
                "tempo": 120.0
            },
            {
                "start_time": 20.8636364,
                "end_time": 22.4636364,
                "pitch": 70,
                "velocity": 101,
                "duration": 1.6,
                "tempo": 120.0
            },
            {
                "start_time": 20.8636364,
                "end_time": 22.4636364,
                "pitch": 70,
                "velocity": 101,
                "duration": 1.6,
                "tempo": 120.0
            },
            {
                "start_time": 12.4863636,
                "end_time": 22.4636364,
                "pitch": 76,
                "velocity": 101,
                "duration": 9.9772727,
                "tempo": 120.0
            },
            {
                "start_time": 22.4636364,
                "end_time": 23.8522727,
                "pitch": 72,
                "velocity": 101,
                "duration": 1.3886364,
                "tempo": 120.0
            },
            {
                "start_time": 23.8522727,
                "end_time": 24.0545455,
                "pitch": 75,
                "velocity": 101,
                "duration": 0.2022727,
                "tempo": 120.0
            },
            {
                "start_time": 24.0545455,
                "end_time": 24.4522727,
                "pitch": 75,
                "velocity": 101,
                "duration": 0.3977273,
                "tempo": 120.0
            },
            {
                "start_time": 24.4522727,
                "end_time": 24.8545455,
                "pitch": 74,
                "velocity": 101,
                "duration": 0.4022727,
                "tempo": 120.0
            },
            {
                "start_time": 24.8545455,
                "end_time": 25.0522727,
                "pitch": 72,
                "velocity": 101,
                "duration": 0.1977273,
                "tempo": 120.0
            },
            {
                "start_time": 24.8545455,
                "end_time": 25.0522727,
                "pitch": 72,
                "velocity": 101,
                "duration": 0.1977273,
                "tempo": 120.0
            },
            {
                "start_time": 25.0522727,
                "end_time": 25.6522727,
                "pitch": 74,
                "velocity": 101,
                "duration": 0.6,
                "tempo": 120.0
            },
            {
                "start_time": 25.0522727,
                "end_time": 25.6522727,
                "pitch": 74,
                "velocity": 101,
                "duration": 0.6,
                "tempo": 120.0
            },
            {
                "start_time": 25.6522727,
                "end_time": 27.2409091,
                "pitch": 68,
                "velocity": 101,
                "duration": 1.5886364,
                "tempo": 120.0
            },
            {
                "start_time": 27.2409091,
                "end_time": 28.8409091,
                "pitch": 70,
                "velocity": 101,
                "duration": 1.6,
                "tempo": 120.0
            },
            {
                "start_time": 22.4636364,
                "end_time": 28.8409091,
                "pitch": 76,
                "velocity": 101,
                "duration": 6.3772727,
                "tempo": 120.0
            },
            {
                "start_time": 28.8409091,
                "end_time": 30.4318182,
                "pitch": 72,
                "velocity": 101,
                "duration": 1.5909091,
                "tempo": 120.0
            },
            {
                "start_time": 16.0840909,
                "end_time": 30.4318182,
                "pitch": 77,
                "velocity": 101,
                "duration": 14.3477273,
                "tempo": 120.0
            },
            {
                "start_time": 30.4318182,
                "end_time": 32.0204545,
                "pitch": 65,
                "velocity": 101,
                "duration": 1.5886364,
                "tempo": 120.0
            },
            {
                "start_time": 32.0204545,
                "end_time": 33.6181818,
                "pitch": 69,
                "velocity": 101,
                "duration": 1.5977273,
                "tempo": 120.0
            },
            {
                "start_time": 28.8409091,
                "end_time": 33.6181818,
                "pitch": 76,
                "velocity": 101,
                "duration": 4.7772727,
                "tempo": 120.0
            },
            {
                "start_time": 33.6181818,
                "end_time": 35.2159091,
                "pitch": 72,
                "velocity": 101,
                "duration": 1.5977273,
                "tempo": 120.0
            },
            {
                "start_time": 30.4318182,
                "end_time": 35.2159091,
                "pitch": 77,
                "velocity": 101,
                "duration": 4.7840909,
                "tempo": 120.0
            },
            {
                "start_time": 35.2159091,
                "end_time": 36.0068182,
                "pitch": 65,
                "velocity": 101,
                "duration": 0.7909091,
                "tempo": 120.0
            },
            {
                "start_time": 36.0068182,
                "end_time": 36.3636364,
                "pitch": 67,
                "velocity": 101,
                "duration": 0.3568182,
                "tempo": 120.0
            },
            {
                "start_time": 20.8227273,
                "end_time": 36.3636364,
                "pitch": 79,
                "velocity": 101,
                "duration": 15.5409091,
                "tempo": 120.0
            },
            {
                "start_time": 36.3636364,
                "end_time": 36.5659091,
                "pitch": 67,
                "velocity": 101,
                "duration": 0.2022727,
                "tempo": 120.0
            },
            {
                "start_time": 36.5659091,
                "end_time": 36.7659091,
                "pitch": 67,
                "velocity": 101,
                "duration": 0.2,
                "tempo": 120.0
            },
            {
                "start_time": 36.7659091,
                "end_time": 36.8068182,
                "pitch": 67,
                "velocity": 101,
                "duration": 0.0409091,
                "tempo": 120.0
            },
            {
                "start_time": 35.2159091,
                "end_time": 36.8068182,
                "pitch": 77,
                "velocity": 101,
                "duration": 1.5909091,
                "tempo": 120.0
            },
            {
                "start_time": 36.8068182,
                "end_time": 36.9045455,
                "pitch": 74,
                "velocity": 101,
                "duration": 0.0977273,
                "tempo": 120.0
            },
            {
                "start_time": 36.9045455,
                "end_time": 37.0045455,
                "pitch": 72,
                "velocity": 101,
                "duration": 0.1,
                "tempo": 120.0
            },
            {
                "start_time": 36.9045455,
                "end_time": 37.0045455,
                "pitch": 72,
                "velocity": 101,
                "duration": 0.1,
                "tempo": 120.0
            },
            {
                "start_time": 37.0045455,
                "end_time": 38.4022727,
                "pitch": 74,
                "velocity": 101,
                "duration": 1.3977273,
                "tempo": 120.0
            },
            {
                "start_time": 37.0045455,
                "end_time": 38.4022727,
                "pitch": 74,
                "velocity": 101,
                "duration": 1.3977273,
                "tempo": 120.0
            },
            {
                "start_time": 38.4022727,
                "end_time": 39.9909091,
                "pitch": 62,
                "velocity": 101,
                "duration": 1.5886364,
                "tempo": 120.0
            },
            {
                "start_time": 39.9909091,
                "end_time": 41.5886364,
                "pitch": 72,
                "velocity": 101,
                "duration": 1.5977273,
                "tempo": 120.0
            },
            {
                "start_time": 36.8068182,
                "end_time": 41.5886364,
                "pitch": 77,
                "velocity": 101,
                "duration": 4.7818182,
                "tempo": 120.0
            },
            {
                "start_time": 41.5886364,
                "end_time": 43.175,
                "pitch": 65,
                "velocity": 101,
                "duration": 1.5863636,
                "tempo": 120.0
            },
            {
                "start_time": 32.0204545,
                "end_time": 44.7727273,
                "pitch": 32,
                "velocity": 101,
                "duration": 12.7522727,
                "tempo": 120.0
            },
            {
                "start_time": 43.175,
                "end_time": 44.7727273,
                "pitch": 64,
                "velocity": 101,
                "duration": 1.5977273,
                "tempo": 120.0
            },
            {
                "start_time": 44.7727273,
                "end_time": 46.3636364,
                "pitch": 69,
                "velocity": 101,
                "duration": 1.5909091,
                "tempo": 120.0
            },
            {
                "start_time": 46.3636364,
                "end_time": 47.9590909,
                "pitch": 72,
                "velocity": 101,
                "duration": 1.5954545,
                "tempo": 120.0
            },
            {
                "start_time": 47.9590909,
                "end_time": 49.3477273,
                "pitch": 74,
                "velocity": 101,
                "duration": 1.3886364,
                "tempo": 120.0
            },
            {
                "start_time": 47.9590909,
                "end_time": 49.3477273,
                "pitch": 74,
                "velocity": 101,
                "duration": 1.3886364,
                "tempo": 120.0
            },
            {
                "start_time": 41.5886364,
                "end_time": 49.5477273,
                "pitch": 77,
                "velocity": 101,
                "duration": 7.9590909,
                "tempo": 120.0
            },
            {
                "start_time": 49.3477273,
                "end_time": 49.5477273,
                "pitch": 77,
                "velocity": 101,
                "duration": 0.2,
                "tempo": 120.0
            },
            {
                "start_time": 49.5477273,
                "end_time": 49.9454545,
                "pitch": 77,
                "velocity": 101,
                "duration": 0.3977273,
                "tempo": 120.0
            },
            {
                "start_time": 33.6181818,
                "end_time": 50.3454545,
                "pitch": 76,
                "velocity": 101,
                "duration": 16.7272727,
                "tempo": 120.0
            },
            {
                "start_time": 49.9454545,
                "end_time": 50.3454545,
                "pitch": 76,
                "velocity": 101,
                "duration": 0.4,
                "tempo": 120.0
            },
            {
                "start_time": 50.3454545,
                "end_time": 50.5454545,
                "pitch": 74,
                "velocity": 101,
                "duration": 0.2,
                "tempo": 120.0
            },
            {
                "start_time": 11.3818182,
                "end_time": 51.1454545,
                "pitch": 51,
                "velocity": 101,
                "duration": 39.7636364,
                "tempo": 120.0
            },
            {
                "start_time": 50.5454545,
                "end_time": 51.1454545,
                "pitch": 76,
                "velocity": 101,
                "duration": 0.6,
                "tempo": 120.0
            },
            {
                "start_time": 51.1454545,
                "end_time": 52.7318182,
                "pitch": 70,
                "velocity": 101,
                "duration": 1.5863636,
                "tempo": 120.0
            },
            {
                "start_time": 52.7318182,
                "end_time": 54.3227273,
                "pitch": 72,
                "velocity": 101,
                "duration": 1.5909091,
                "tempo": 120.0
            },
            {
                "start_time": 11.8840909,
                "end_time": 55.9227273,
                "pitch": 2,
                "velocity": 101,
                "duration": 44.0386364,
                "tempo": 120.0
            },
            {
                "start_time": 54.3227273,
                "end_time": 55.9227273,
                "pitch": 74,
                "velocity": 101,
                "duration": 1.6,
                "tempo": 120.0
            },
            {
                "start_time": 54.3227273,
                "end_time": 55.9227273,
                "pitch": 74,
                "velocity": 101,
                "duration": 1.6,
                "tempo": 120.0
            },
            {
                "start_time": 55.9227273,
                "end_time": 56.2818182,
                "pitch": 67,
                "velocity": 101,
                "duration": 0.3590909,
                "tempo": 120.0
            },
            {
                "start_time": 36.3636364,
                "end_time": 56.2818182,
                "pitch": 79,
                "velocity": 101,
                "duration": 19.9181818,
                "tempo": 120.0
            },
            {
                "start_time": 56.2818182,
                "end_time": 56.4795455,
                "pitch": 67,
                "velocity": 101,
                "duration": 0.1977273,
                "tempo": 120.0
            },
            {
                "start_time": 56.2818182,
                "end_time": 56.4795455,
                "pitch": 79,
                "velocity": 101,
                "duration": 0.1977273,
                "tempo": 120.0
            },
            {
                "start_time": 56.4795455,
                "end_time": 56.6795455,
                "pitch": 67,
                "velocity": 101,
                "duration": 0.2,
                "tempo": 120.0
            },
            {
                "start_time": 56.4795455,
                "end_time": 56.6795455,
                "pitch": 79,
                "velocity": 101,
                "duration": 0.2,
                "tempo": 120.0
            },
            {
                "start_time": 56.6795455,
                "end_time": 56.875,
                "pitch": 67,
                "velocity": 101,
                "duration": 0.1954545,
                "tempo": 120.0
            },
            {
                "start_time": 56.6795455,
                "end_time": 56.875,
                "pitch": 79,
                "velocity": 101,
                "duration": 0.1954545,
                "tempo": 120.0
            },
            {
                "start_time": 56.875,
                "end_time": 57.0704545,
                "pitch": 67,
                "velocity": 101,
                "duration": 0.1954545,
                "tempo": 120.0
            },
            {
                "start_time": 56.875,
                "end_time": 57.0704545,
                "pitch": 79,
                "velocity": 101,
                "duration": 0.1954545,
                "tempo": 120.0
            },
            {
                "start_time": 57.0704545,
                "end_time": 57.2704545,
                "pitch": 67,
                "velocity": 101,
                "duration": 0.2,
                "tempo": 120.0
            },
            {
                "start_time": 57.0704545,
                "end_time": 57.2704545,
                "pitch": 79,
                "velocity": 101,
                "duration": 0.2,
                "tempo": 120.0
            },
            {
                "start_time": 57.2704545,
                "end_time": 57.4681818,
                "pitch": 67,
                "velocity": 101,
                "duration": 0.1977273,
                "tempo": 120.0
            },
            {
                "start_time": 57.2704545,
                "end_time": 57.4681818,
                "pitch": 79,
                "velocity": 101,
                "duration": 0.1977273,
                "tempo": 120.0
            },
            {
                "start_time": 57.4681818,
                "end_time": 57.5090909,
                "pitch": 67,
                "velocity": 101,
                "duration": 0.0409091,
                "tempo": 120.0
            },
            {
                "start_time": 57.5090909,
                "end_time": 60.7045455,
                "pitch": 64,
                "velocity": 101,
                "duration": 3.1954545,
                "tempo": 120.0
            },
            {
                "start_time": 60.7045455,
                "end_time": 61.0636364,
                "pitch": 67,
                "velocity": 101,
                "duration": 0.3590909,
                "tempo": 120.0
            },
            {
                "start_time": 57.4681818,
                "end_time": 61.0636364,
                "pitch": 79,
                "velocity": 101,
                "duration": 3.5954545,
                "tempo": 120.0
            },
            {
                "start_time": 61.0636364,
                "end_time": 61.2636364,
                "pitch": 67,
                "velocity": 101,
                "duration": 0.2,
                "tempo": 120.0
            },
            {
                "start_time": 61.0636364,
                "end_time": 61.2636364,
                "pitch": 79,
                "velocity": 101,
                "duration": 0.2,
                "tempo": 120.0
            },
            {
                "start_time": 61.2636364,
                "end_time": 61.4636364,
                "pitch": 67,
                "velocity": 101,
                "duration": 0.2,
                "tempo": 120.0
            },
            {
                "start_time": 61.2636364,
                "end_time": 61.4636364,
                "pitch": 79,
                "velocity": 101,
                "duration": 0.2,
                "tempo": 120.0
            },
            {
                "start_time": 61.4636364,
                "end_time": 61.6590909,
                "pitch": 67,
                "velocity": 101,
                "duration": 0.1954545,
                "tempo": 120.0
            },
            {
                "start_time": 61.4636364,
                "end_time": 61.6590909,
                "pitch": 79,
                "velocity": 101,
                "duration": 0.1954545,
                "tempo": 120.0
            },
            {
                "start_time": 61.6590909,
                "end_time": 61.8545455,
                "pitch": 67,
                "velocity": 101,
                "duration": 0.1954545,
                "tempo": 120.0
            },
            {
                "start_time": 61.6590909,
                "end_time": 61.8545455,
                "pitch": 79,
                "velocity": 101,
                "duration": 0.1954545,
                "tempo": 120.0
            },
            {
                "start_time": 61.8545455,
                "end_time": 62.0522727,
                "pitch": 67,
                "velocity": 101,
                "duration": 0.1977273,
                "tempo": 120.0
            },
            {
                "start_time": 61.8545455,
                "end_time": 62.0522727,
                "pitch": 79,
                "velocity": 101,
                "duration": 0.1977273,
                "tempo": 120.0
            },
            {
                "start_time": 62.0522727,
                "end_time": 62.2522727,
                "pitch": 67,
                "velocity": 101,
                "duration": 0.2,
                "tempo": 120.0
            },
            {
                "start_time": 62.0522727,
                "end_time": 62.2522727,
                "pitch": 79,
                "velocity": 101,
                "duration": 0.2,
                "tempo": 120.0
            },
            {
                "start_time": 62.2522727,
                "end_time": 62.2931818,
                "pitch": 67,
                "velocity": 101,
                "duration": 0.0409091,
                "tempo": 120.0
            },
            {
                "start_time": 62.2931818,
                "end_time": 63.8909091,
                "pitch": 71,
                "velocity": 101,
                "duration": 1.5977273,
                "tempo": 120.0
            },
            {
                "start_time": 63.8909091,
                "end_time": 65.4818182,
                "pitch": 68,
                "velocity": 101,
                "duration": 1.5909091,
                "tempo": 120.0
            },
            {
                "start_time": 65.4818182,
                "end_time": 67.0818182,
                "pitch": 71,
                "velocity": 101,
                "duration": 1.6,
                "tempo": 120.0
            },
            {
                "start_time": 65.4818182,
                "end_time": 67.0818182,
                "pitch": 71,
                "velocity": 101,
                "duration": 1.6,
                "tempo": 120.0
            },
            {
                "start_time": 67.0818182,
                "end_time": 67.2772727,
                "pitch": 64,
                "velocity": 101,
                "duration": 0.1954545,
                "tempo": 120.0
            },
            {
                "start_time": 67.2772727,
                "end_time": 67.875,
                "pitch": 64,
                "velocity": 101,
                "duration": 0.5977273,
                "tempo": 120.0
            },
            {
                "start_time": 67.875,
                "end_time": 68.0795455,
                "pitch": 66,
                "velocity": 101,
                "duration": 0.2045455,
                "tempo": 120.0
            },
            {
                "start_time": 68.0795455,
                "end_time": 68.675,
                "pitch": 66,
                "velocity": 101,
                "duration": 0.5954545,
                "tempo": 120.0
            },
            {
                "start_time": 68.675,
                "end_time": 68.775,
                "pitch": 73,
                "velocity": 101,
                "duration": 0.1,
                "tempo": 120.0
            },
            {
                "start_time": 68.775,
                "end_time": 68.875,
                "pitch": 71,
                "velocity": 101,
                "duration": 0.1,
                "tempo": 120.0
            },
            {
                "start_time": 52.7318182,
                "end_time": 68.875,
                "pitch": 76,
                "velocity": 101,
                "duration": 16.1431818,
                "tempo": 120.0
            },
            {
                "start_time": 68.875,
                "end_time": 69.275,
                "pitch": 73,
                "velocity": 101,
                "duration": 0.4,
                "tempo": 120.0
            },
            {
                "start_time": 69.2772727,
                "end_time": 69.8772727,
                "pitch": 68,
                "velocity": 101,
                "duration": 0.6,
                "tempo": 120.0
            },
            {
                "start_time": 68.875,
                "end_time": 69.8772727,
                "pitch": 76,
                "velocity": 101,
                "duration": 1.0022727,
                "tempo": 120.0
            },
            {
                "start_time": 69.8772727,
                "end_time": 70.275,
                "pitch": 73,
                "velocity": 101,
                "duration": 0.3977273,
                "tempo": 120.0
            },
            {
                "start_time": 70.275,
                "end_time": 71.6681818,
                "pitch": 61,
                "velocity": 101,
                "duration": 1.3931818,
                "tempo": 120.0
            },
            {
                "start_time": 71.6681818,
                "end_time": 71.8681818,
                "pitch": 69,
                "velocity": 101,
                "duration": 0.2,
                "tempo": 120.0
            },
            {
                "start_time": 71.8681818,
                "end_time": 73.2681818,
                "pitch": 71,
                "velocity": 101,
                "duration": 1.4,
                "tempo": 120.0
            },
            {
                "start_time": 71.8681818,
                "end_time": 73.2681818,
                "pitch": 71,
                "velocity": 101,
                "duration": 1.4,
                "tempo": 120.0
            },
            {
                "start_time": 73.2681818,
                "end_time": 73.4681818,
                "pitch": 71,
                "velocity": 101,
                "duration": 0.2,
                "tempo": 120.0
            },
            {
                "start_time": 73.4681818,
                "end_time": 75.0613636,
                "pitch": 64,
                "velocity": 101,
                "duration": 1.5931818,
                "tempo": 120.0
            },
            {
                "start_time": 75.0613636,
                "end_time": 75.8613636,
                "pitch": 63,
                "velocity": 101,
                "duration": 0.8,
                "tempo": 120.0
            },
            {
                "start_time": 14.2795455,
                "end_time": 76.6636364,
                "pitch": 21,
                "velocity": 101,
                "duration": 62.3840909,
                "tempo": 120.0
            },
            {
                "start_time": 75.8613636,
                "end_time": 76.6636364,
                "pitch": 63,
                "velocity": 101,
                "duration": 0.8022727,
                "tempo": 120.0
            },
            {
                "start_time": 76.6636364,
                "end_time": 78.2545455,
                "pitch": 68,
                "velocity": 101,
                "duration": 1.5909091,
                "tempo": 120.0
            },
            {
                "start_time": 78.2545455,
                "end_time": 79.8454545,
                "pitch": 71,
                "velocity": 101,
                "duration": 1.5909091,
                "tempo": 120.0
            },
            {
                "start_time": 78.2545455,
                "end_time": 79.8454545,
                "pitch": 71,
                "velocity": 101,
                "duration": 1.5909091,
                "tempo": 120.0
            },
            {
                "start_time": 79.8454545,
                "end_time": 81.2477273,
                "pitch": 73,
                "velocity": 101,
                "duration": 1.4022727,
                "tempo": 120.0
            },
            {
                "start_time": 69.8772727,
                "end_time": 81.2477273,
                "pitch": 76,
                "velocity": 101,
                "duration": 11.3704545,
                "tempo": 120.0
            },
            {
                "start_time": 81.2477273,
                "end_time": 81.45,
                "pitch": 76,
                "velocity": 101,
                "duration": 0.2022727,
                "tempo": 120.0
            },
            {
                "start_time": 81.2477273,
                "end_time": 81.45,
                "pitch": 76,
                "velocity": 101,
                "duration": 0.2022727,
                "tempo": 120.0
            },
            {
                "start_time": 81.45,
                "end_time": 81.8477273,
                "pitch": 76,
                "velocity": 101,
                "duration": 0.3977273,
                "tempo": 120.0
            },
            {
                "start_time": 81.8477273,
                "end_time": 82.25,
                "pitch": 75,
                "velocity": 101,
                "duration": 0.4022727,
                "tempo": 120.0
            },
            {
                "start_time": 82.25,
                "end_time": 82.4477273,
                "pitch": 73,
                "velocity": 101,
                "duration": 0.1977273,
                "tempo": 120.0
            },
            {
                "start_time": 82.4477273,
                "end_time": 83.0386364,
                "pitch": 75,
                "velocity": 101,
                "duration": 0.5909091,
                "tempo": 120.0
            },
            {
                "start_time": 83.0386364,
                "end_time": 84.6409091,
                "pitch": 69,
                "velocity": 101,
                "duration": 1.6022727,
                "tempo": 120.0
            },
            {
                "start_time": 84.6409091,
                "end_time": 86.2340909,
                "pitch": 71,
                "velocity": 101,
                "duration": 1.5931818,
                "tempo": 120.0
            },
            {
                "start_time": 84.6409091,
                "end_time": 86.2340909,
                "pitch": 71,
                "velocity": 101,
                "duration": 1.5931818,
                "tempo": 120.0
            },
            {
                "start_time": 86.2340909,
                "end_time": 87.8340909,
                "pitch": 73,
                "velocity": 101,
                "duration": 1.6,
                "tempo": 120.0
            },
            {
                "start_time": 87.8340909,
                "end_time": 89.425,
                "pitch": 66,
                "velocity": 101,
                "duration": 1.5909091,
                "tempo": 120.0
            }
        ]
    }
}