{
    "mood": "happy",
    "instruments": {
        "Electric Piano 1": [
            {
                "start_time": 6.5977273,
                "end_time": 6.7954545,
                "pitch": 60,
                "velocity": 127,
                "duration": 0.1977273,
                "tempo": 120.0
            },
            {
                "start_time": 6.7977273,
                "end_time": 6.8977273,
                "pitch": 57,
                "velocity": 127,
                "duration": 0.1,
                "tempo": 120.0
            },
            {
                "start_time": 6.8977273,
                "end_time": 7.1136364,
                "pitch": 62,
                "velocity": 127,
                "duration": 0.2159091,
                "tempo": 120.0
            },
            {
                "start_time": 7.1159091,
                "end_time": 7.2159091,
                "pitch": 57,
                "velocity": 127,
                "duration": 0.1,
                "tempo": 120.0
            },
            {
                "start_time": 7.2159091,
                "end_time": 7.8272727,
                "pitch": 64,
                "velocity": 127,
                "duration": 0.6113636,
                "tempo": 120.0
            },
            {
                "start_time": 7.8272727,
                "end_time": 8.0431818,
                "pitch": 60,
                "velocity": 127,
                "duration": 0.2159091,
                "tempo": 120.0
            },
            {
                "start_time": 8.0431818,
                "end_time": 8.0931818,
                "pitch": 60,
                "velocity": 127,
                "duration": 0.05,
                "tempo": 120.0
            },
            {
                "start_time": 8.0431818,
                "end_time": 8.1772727,
                "pitch": 48,
                "velocity": 127,
                "duration": 0.1340909,
                "tempo": 120.0
            },
            {
                "start_time": 8.0931818,
                "end_time": 8.1772727,
                "pitch": 60,
                "velocity": 127,
                "duration": 0.0840909,
                "tempo": 120.0
            },
            {
                "start_time": 8.1772727,
                "end_time": 8.2272727,
                "pitch": 60,
                "velocity": 127,
                "duration": 0.05,
                "tempo": 120.0
            },
            {
                "start_time": 8.2295455,
                "end_time": 8.4431818,
                "pitch": 59,
                "velocity": 127,
                "duration": 0.2136364,
                "tempo": 120.0
            },
            {
                "start_time": 8.4454545,
                "end_time": 8.5431818,
                "pitch": 55,
                "velocity": 127,
                "duration": 0.0977273,
                "tempo": 120.0
            },
            {
                "start_time": 8.5454545,
                "end_time": 8.75,
                "pitch": 60,
                "velocity": 127,
                "duration": 0.2045455,
                "tempo": 120.0
            },
            {
                "start_time": 8.75,
                "end_time": 8.8545455,
                "pitch": 55,
                "velocity": 127,
                "duration": 0.1045455,
                "tempo": 120.0
            },
            {
                "start_time": 8.8568182,
                "end_time": 9.4681818,
                "pitch": 62,
                "velocity": 127,
                "duration": 0.6113636,
                "tempo": 120.0
            },
            {
                "start_time": 9.8863636,
                "end_time": 10.0977273,
                "pitch": 62,
                "velocity": 127,
                "duration": 0.2113636,
                "tempo": 120.0
            },
            {
                "start_time": 10.0977273,
                "end_time": 10.2022727,
                "pitch": 58,
                "velocity": 127,
                "duration": 0.1045455,
                "tempo": 120.0
            },
            {
                "start_time": 10.2045455,
                "end_time": 10.4090909,
                "pitch": 63,
                "velocity": 127,
                "duration": 0.2045455,
                "tempo": 120.0
            },
            {
                "start_time": 10.4090909,
                "end_time": 10.5090909,
                "pitch": 58,
                "velocity": 127,
                "duration": 0.1,
                "tempo": 120.0
            },
            {
                "start_time": 10.5090909,
                "end_time": 11.1272727,
                "pitch": 65,
                "velocity": 127,
                "duration": 0.6181818,
                "tempo": 120.0
            },
            {
                "start_time": 11.1295455,
                "end_time": 11.5386364,
                "pitch": 62,
                "velocity": 127,
                "duration": 0.4090909,
                "tempo": 120.0
            },
            {
                "start_time": 11.5386364,
                "end_time": 12.3568182,
                "pitch": 59,
                "velocity": 127,
                "duration": 0.8181818,
                "tempo": 120.0
            },
            {
                "start_time": 13.1704545,
                "end_time": 13.3863636,
                "pitch": 60,
                "velocity": 127,
                "duration": 0.2159091,
                "tempo": 120.0
            },
            {
                "start_time": 13.3863636,
                "end_time": 13.4863636,
                "pitch": 57,
                "velocity": 127,
                "duration": 0.1,
                "tempo": 120.0
            },
            {
                "start_time": 13.4863636,
                "end_time": 13.6931818,
                "pitch": 62,
                "velocity": 127,
                "duration": 0.2068182,
                "tempo": 120.0
            },
            {
                "start_time": 13.6931818,
                "end_time": 13.7977273,
                "pitch": 57,
                "velocity": 127,
                "duration": 0.1045455,
                "tempo": 120.0
            },
            {
                "start_time": 8.0931818,
                "end_time": 14.4,
                "pitch": 64,
                "velocity": 127,
                "duration": 6.3068182,
                "tempo": 120.0
            },
            {
                "start_time": 13.8,
                "end_time": 14.4,
                "pitch": 64,
                "velocity": 127,
                "duration": 0.6,
                "tempo": 120.0
            },
            {
                "start_time": 8.1772727,
                "end_time": 14.6204545,
                "pitch": 48,
                "velocity": 127,
                "duration": 6.4431818,
                "tempo": 120.0
            },
            {
                "start_time": 14.4,
                "end_time": 14.6204545,
                "pitch": 60,
                "velocity": 127,
                "duration": 0.2204545,
                "tempo": 120.0
            },
            {
                "start_time": 14.6204545,
                "end_time": 14.6727273,
                "pitch": 60,
                "velocity": 127,
                "duration": 0.0522727,
                "tempo": 120.0
            },
            {
                "start_time": 14.6204545,
                "end_time": 14.7590909,
                "pitch": 48,
                "velocity": 127,
                "duration": 0.1386364,
                "tempo": 120.0
            },
            {
                "start_time": 14.6727273,
                "end_time": 14.7590909,
                "pitch": 60,
                "velocity": 127,
                "duration": 0.0863636,
                "tempo": 120.0
            },
            {
                "start_time": 14.7590909,
                "end_time": 14.8090909,
                "pitch": 60,
                "velocity": 127,
                "duration": 0.05,
                "tempo": 120.0
            },
            {
                "start_time": 14.6727273,
                "end_time": 14.8090909,
                "pitch": 64,
                "velocity": 127,
                "duration": 0.1363636,
                "tempo": 120.0
            },
            {
                "start_time": 14.8090909,
                "end_time": 14.825,
                "pitch": 60,
                "velocity": 127,
                "duration": 0.0159091,
                "tempo": 120.0
            },
            {
                "start_time": 14.825,
                "end_time": 15.0204545,
                "pitch": 59,
                "velocity": 127,
                "duration": 0.1954545,
                "tempo": 120.0
            },
            {
                "start_time": 15.0227273,
                "end_time": 15.1181818,
                "pitch": 55,
                "velocity": 127,
                "duration": 0.0954545,
                "tempo": 120.0
            },
            {
                "start_time": 15.1204545,
                "end_time": 15.3227273,
                "pitch": 60,
                "velocity": 127,
                "duration": 0.2022727,
                "tempo": 120.0
            },
            {
                "start_time": 15.3227273,
                "end_time": 15.4272727,
                "pitch": 55,
                "velocity": 127,
                "duration": 0.1045455,
                "tempo": 120.0
            },
            {
                "start_time": 15.4295455,
                "end_time": 16.0568182,
                "pitch": 62,
                "velocity": 127,
                "duration": 0.6272727,
                "tempo": 120.0
            },
            {
                "start_time": 16.4613636,
                "end_time": 16.6704545,
                "pitch": 62,
                "velocity": 127,
                "duration": 0.2090909,
                "tempo": 120.0
            },
            {
                "start_time": 16.6704545,
                "end_time": 16.775,
                "pitch": 58,
                "velocity": 127,
                "duration": 0.1045455,
                "tempo": 120.0
            },
            {
                "start_time": 16.7772727,
                "end_time": 16.9818182,
                "pitch": 63,
                "velocity": 127,
                "duration": 0.2045455,
                "tempo": 120.0
            },
            {
                "start_time": 16.9818182,
                "end_time": 17.0818182,
                "pitch": 58,
                "velocity": 127,
                "duration": 0.1,
                "tempo": 120.0
            },
            {
                "start_time": 17.0840909,
                "end_time": 17.6977273,
                "pitch": 65,
                "velocity": 127,
                "duration": 0.6136364,
                "tempo": 120.0
            },
            {
                "start_time": 17.7,
                "end_time": 18.1090909,
                "pitch": 62,
                "velocity": 127,
                "duration": 0.4090909,
                "tempo": 120.0
            },
            {
                "start_time": 14.8090909,
                "end_time": 18.9272727,
                "pitch": 64,
                "velocity": 127,
                "duration": 4.1181818,
                "tempo": 120.0
            },
            {
                "start_time": 18.1090909,
                "end_time": 18.9272727,
                "pitch": 64,
                "velocity": 127,
                "duration": 0.8181818,
                "tempo": 120.0
            },
            {
                "start_time": 19.7522727,
                "end_time": 20.575,
                "pitch": 57,
                "velocity": 127,
                "duration": 0.8227273,
                "tempo": 120.0
            },
            {
                "start_time": 20.7772727,
                "end_time": 20.9954545,
                "pitch": 59,
                "velocity": 127,
                "duration": 0.2181818,
                "tempo": 120.0
            },
            {
                "start_time": 20.9954545,
                "end_time": 21.1954545,
                "pitch": 60,
                "velocity": 127,
                "duration": 0.2,
                "tempo": 120.0
            },
            {
                "start_time": 21.1954545,
                "end_time": 21.2931818,
                "pitch": 59,
                "velocity": 127,
                "duration": 0.0977273,
                "tempo": 120.0
            },
            {
                "start_time": 14.7590909,
                "end_time": 21.5136364,
                "pitch": 48,
                "velocity": 127,
                "duration": 6.7545455,
                "tempo": 120.0
            },
            {
                "start_time": 21.2954545,
                "end_time": 21.5136364,
                "pitch": 60,
                "velocity": 127,
                "duration": 0.2181818,
                "tempo": 120.0
            },
            {
                "start_time": 21.5136364,
                "end_time": 21.5659091,
                "pitch": 60,
                "velocity": 127,
                "duration": 0.0522727,
                "tempo": 120.0
            },
            {
                "start_time": 21.5136364,
                "end_time": 21.65,
                "pitch": 48,
                "velocity": 127,
                "duration": 0.1363636,
                "tempo": 120.0
            },
            {
                "start_time": 21.5659091,
                "end_time": 21.65,
                "pitch": 60,
                "velocity": 127,
                "duration": 0.0840909,
                "tempo": 120.0
            },
            {
                "start_time": 21.65,
                "end_time": 21.7022727,
                "pitch": 60,
                "velocity": 127,
                "duration": 0.0522727,
                "tempo": 120.0
            },
            {
                "start_time": 21.5659091,
                "end_time": 21.7022727,
                "pitch": 64,
                "velocity": 127,
                "duration": 0.1363636,
                "tempo": 120.0
            },
            {
                "start_time": 21.65,
                "end_time": 21.7863636,
                "pitch": 48,
                "velocity": 127,
                "duration": 0.1363636,
                "tempo": 120.0
            },
            {
                "start_time": 21.7022727,
                "end_time": 21.7863636,
                "pitch": 60,
                "velocity": 127,
                "duration": 0.0840909,
                "tempo": 120.0
            },
            {
                "start_time": 21.7863636,
                "end_time": 21.8386364,
                "pitch": 60,
                "velocity": 127,
                "duration": 0.0522727,
                "tempo": 120.0
            },
            {
                "start_time": 21.7022727,
                "end_time": 21.8386364,
                "pitch": 64,
                "velocity": 127,
                "duration": 0.1363636,
                "tempo": 120.0
            },
            {
                "start_time": 21.7863636,
                "end_time": 21.9204545,
                "pitch": 48,
                "velocity": 127,
                "duration": 0.1340909,
                "tempo": 120.0
            },
            {
                "start_time": 21.8386364,
                "end_time": 21.9204545,
                "pitch": 60,
                "velocity": 127,
                "duration": 0.0818182,
                "tempo": 120.0
            },
            {
                "start_time": 21.9204545,
                "end_time": 21.9704545,
                "pitch": 60,
                "velocity": 127,
                "duration": 0.05,
                "tempo": 120.0
            },
            {
                "start_time": 21.8386364,
                "end_time": 21.9704545,
                "pitch": 64,
                "velocity": 127,
                "duration": 0.1318182,
                "tempo": 120.0
            },
            {
                "start_time": 21.9204545,
                "end_time": 22.0545455,
                "pitch": 48,
                "velocity": 127,
                "duration": 0.1340909,
                "tempo": 120.0
            },
            {
                "start_time": 21.9704545,
                "end_time": 22.0545455,
                "pitch": 60,
                "velocity": 127,
                "duration": 0.0840909,
                "tempo": 120.0
            },
            {
                "start_time": 22.0545455,
                "end_time": 22.1045455,
                "pitch": 60,
                "velocity": 127,
                "duration": 0.05,
                "tempo": 120.0
            },
            {
                "start_time": 21.9704545,
                "end_time": 22.1045455,
                "pitch": 64,
                "velocity": 127,
                "duration": 0.1340909,
                "tempo": 120.0
            },
            {
                "start_time": 22.0545455,
                "end_time": 22.1863636,
                "pitch": 48,
                "velocity": 127,
                "duration": 0.1318182,
                "tempo": 120.0
            },
            {
                "start_time": 22.1045455,
                "end_time": 22.1863636,
                "pitch": 60,
                "velocity": 127,
                "duration": 0.0818182,
                "tempo": 120.0
            },
            {
                "start_time": 22.1863636,
                "end_time": 22.2204545,
                "pitch": 60,
                "velocity": 127,
                "duration": 0.0340909,
                "tempo": 120.0
            },
            {
                "start_time": 22.4204545,
                "end_time": 22.6227273,
                "pitch": 62,
                "velocity": 127,
                "duration": 0.2022727,
                "tempo": 120.0
            },
            {
                "start_time": 22.1045455,
                "end_time": 22.8318182,
                "pitch": 64,
                "velocity": 127,
                "duration": 0.7272727,
                "tempo": 120.0
            },
            {
                "start_time": 22.6227273,
                "end_time": 22.8318182,
                "pitch": 64,
                "velocity": 127,
                "duration": 0.2090909,
                "tempo": 120.0
            },
            {
                "start_time": 22.8340909,
                "end_time": 22.9386364,
                "pitch": 62,
                "velocity": 127,
                "duration": 0.1045455,
                "tempo": 120.0
            },
            {
                "start_time": 22.9386364,
                "end_time": 23.8613636,
                "pitch": 57,
                "velocity": 127,
                "duration": 0.9227273,
                "tempo": 120.0
            },
            {
                "start_time": 24.0681818,
                "end_time": 24.2727273,
                "pitch": 59,
                "velocity": 127,
                "duration": 0.2045455,
                "tempo": 120.0
            },
            {
                "start_time": 24.2727273,
                "end_time": 24.4704545,
                "pitch": 60,
                "velocity": 127,
                "duration": 0.1977273,
                "tempo": 120.0
            },
            {
                "start_time": 24.4727273,
                "end_time": 24.5704545,
                "pitch": 59,
                "velocity": 127,
                "duration": 0.0977273,
                "tempo": 120.0
            },
            {
                "start_time": 24.5727273,
                "end_time": 24.7886364,
                "pitch": 55,
                "velocity": 127,
                "duration": 0.2159091,
                "tempo": 120.0
            },
            {
                "start_time": 24.7886364,
                "end_time": 24.8386364,
                "pitch": 55,
                "velocity": 127,
                "duration": 0.05,
                "tempo": 120.0
            },
            {
                "start_time": 24.8386364,
                "end_time": 24.9227273,
                "pitch": 55,
                "velocity": 127,
                "duration": 0.0840909,
                "tempo": 120.0
            },
            {
                "start_time": 24.7886364,
                "end_time": 24.9227273,
                "pitch": 67,
                "velocity": 127,
                "duration": 0.1340909,
                "tempo": 120.0
            },
            {
                "start_time": 24.9227273,
                "end_time": 24.9727273,
                "pitch": 55,
                "velocity": 127,
                "duration": 0.05,
                "tempo": 120.0
            },
            {
                "start_time": 24.9727273,
                "end_time": 25.0568182,
                "pitch": 55,
                "velocity": 127,
                "duration": 0.0840909,
                "tempo": 120.0
            },
            {
                "start_time": 24.9227273,
                "end_time": 25.0568182,
                "pitch": 67,
                "velocity": 127,
                "duration": 0.1340909,
                "tempo": 120.0
            },
            {
                "start_time": 24.8386364,
                "end_time": 25.1068182,
                "pitch": 0,
                "velocity": 127,
                "duration": 0.2681818,
                "tempo": 120.0
            },
            {
                "start_time": 25.0568182,
                "end_time": 25.1068182,
                "pitch": 55,
                "velocity": 127,
                "duration": 0.05,
                "tempo": 120.0
            },
            {
                "start_time": 25.1068182,
                "end_time": 25.1954545,
                "pitch": 55,
                "velocity": 127,
                "duration": 0.0886364,
                "tempo": 120.0
            },
            {
                "start_time": 25.0568182,
                "end_time": 25.1954545,
                "pitch": 67,
                "velocity": 127,
                "duration": 0.1386364,
                "tempo": 120.0
            },
            {
                "start_time": 25.1068182,
                "end_time": 25.2477273,
                "pitch": 0,
                "velocity": 127,
                "duration": 0.1409091,
                "tempo": 120.0
            },
            {
                "start_time": 25.1954545,
                "end_time": 25.2477273,
                "pitch": 55,
                "velocity": 127,
                "duration": 0.0522727,
                "tempo": 120.0
            },
            {
                "start_time": 25.2477273,
                "end_time": 25.3363636,
                "pitch": 55,
                "velocity": 127,
                "duration": 0.0886364,
                "tempo": 120.0
            },
            {
                "start_time": 25.1954545,
                "end_time": 25.3363636,
                "pitch": 67,
                "velocity": 127,
                "duration": 0.1409091,
                "tempo": 120.0
            },
            {
                "start_time": 25.2477273,
                "end_time": 25.3886364,
                "pitch": 0,
                "velocity": 127,
                "duration": 0.1409091,
                "tempo": 120.0
            },
            {
                "start_time": 25.3363636,
                "end_time": 25.3886364,
                "pitch": 55,
                "velocity": 127,
                "duration": 0.0522727,
                "tempo": 120.0
            },
            {
                "start_time": 25.3886364,
                "end_time": 25.475,
                "pitch": 55,
                "velocity": 127,
                "duration": 0.0863636,
                "tempo": 120.0
            },
            {
                "start_time": 25.3363636,
                "end_time": 25.475,
                "pitch": 67,
                "velocity": 127,
                "duration": 0.1386364,
                "tempo": 120.0
            },
            {
                "start_time": 25.475,
                "end_time": 25.5113636,
                "pitch": 55,
                "velocity": 127,
                "duration": 0.0363636,
                "tempo": 120.0
            },
            {
                "start_time": 26.3295455,
                "end_time": 27.1613636,
                "pitch": 57,
                "velocity": 127,
                "duration": 0.8318182,
                "tempo": 120.0
            },
            {
                "start_time": 27.375,
                "end_time": 27.5681818,
                "pitch": 59,
                "velocity": 127,
                "duration": 0.1931818,
                "tempo": 120.0
            },
            {
                "start_time": 27.5704545,
                "end_time": 27.7727273,
                "pitch": 60,
                "velocity": 127,
                "duration": 0.2022727,
                "tempo": 120.0
            },
            {
                "start_time": 27.775,
                "end_time": 27.8772727,
                "pitch": 59,
                "velocity": 127,
                "duration": 0.1022727,
                "tempo": 120.0
            },
            {
                "start_time": 22.1863636,
                "end_time": 28.0977273,
                "pitch": 48,
                "velocity": 127,
                "duration": 5.9113636,
                "tempo": 120.0
            },
            {
                "start_time": 27.8772727,
                "end_time": 28.0977273,
                "pitch": 60,
                "velocity": 127,
                "duration": 0.2204545,
                "tempo": 120.0
            },
            {
                "start_time": 28.0977273,
                "end_time": 28.15,
                "pitch": 60,
                "velocity": 127,
                "duration": 0.0522727,
                "tempo": 120.0
            },
            {
                "start_time": 28.15,
                "end_time": 28.2363636,
                "pitch": 60,
                "velocity": 127,
                "duration": 0.0863636,
                "tempo": 120.0
            },
            {
                "start_time": 28.2363636,
                "end_time": 28.2863636,
                "pitch": 60,
                "velocity": 127,
                "duration": 0.05,
                "tempo": 120.0
            },
            {
                "start_time": 28.15,
                "end_time": 28.2863636,
                "pitch": 64,
                "velocity": 127,
                "duration": 0.1363636,
                "tempo": 120.0
            },
            {
                "start_time": 28.2863636,
                "end_time": 28.3727273,
                "pitch": 60,
                "velocity": 127,
                "duration": 0.0863636,
                "tempo": 120.0
            },
            {
                "start_time": 28.3727273,
                "end_time": 28.4227273,
                "pitch": 60,
                "velocity": 127,
                "duration": 0.05,
                "tempo": 120.0
            },
            {
                "start_time": 28.2863636,
                "end_time": 28.4227273,
                "pitch": 64,
                "velocity": 127,
                "duration": 0.1363636,
                "tempo": 120.0
            },
            {
                "start_time": 28.0977273,
                "end_time": 28.5068182,
                "pitch": 48,
                "velocity": 127,
                "duration": 0.4090909,
                "tempo": 120.0
            },
            {
                "start_time": 28.4227273,
                "end_time": 28.5068182,
                "pitch": 60,
                "velocity": 127,
                "duration": 0.0840909,
                "tempo": 120.0
            },
            {
                "start_time": 28.5068182,
                "end_time": 28.5568182,
                "pitch": 60,
                "velocity": 127,
                "duration": 0.05,
                "tempo": 120.0
            },
            {
                "start_time": 28.4227273,
                "end_time": 28.5568182,
                "pitch": 64,
                "velocity": 127,
                "duration": 0.1340909,
                "tempo": 120.0
            },
            {
                "start_time": 28.5068182,
                "end_time": 28.6409091,
                "pitch": 48,
                "velocity": 127,
                "duration": 0.1340909,
                "tempo": 120.0
            },
            {
                "start_time": 28.5568182,
                "end_time": 28.6409091,
                "pitch": 60,
                "velocity": 127,
                "duration": 0.0840909,
                "tempo": 120.0
            },
            {
                "start_time": 28.6409091,
                "end_time": 28.6909091,
                "pitch": 60,
                "velocity": 127,
                "duration": 0.05,
                "tempo": 120.0
            },
            {
                "start_time": 28.5568182,
                "end_time": 28.6909091,
                "pitch": 64,
                "velocity": 127,
                "duration": 0.1340909,
                "tempo": 120.0
            },
            {
                "start_time": 28.6409091,
                "end_time": 28.775,
                "pitch": 48,
                "velocity": 127,
                "duration": 0.1340909,
                "tempo": 120.0
            },
            {
                "start_time": 28.6909091,
                "end_time": 28.775,
                "pitch": 60,
                "velocity": 127,
                "duration": 0.0840909,
                "tempo": 120.0
            },
            {
                "start_time": 28.775,
                "end_time": 28.8090909,
                "pitch": 60,
                "velocity": 127,
                "duration": 0.0340909,
                "tempo": 120.0
            },
            {
                "start_time": 29.0090909,
                "end_time": 29.2068182,
                "pitch": 62,
                "velocity": 127,
                "duration": 0.1977273,
                "tempo": 120.0
            },
            {
                "start_time": 28.6909091,
                "end_time": 29.4090909,
                "pitch": 64,
                "velocity": 127,
                "duration": 0.7181818,
                "tempo": 120.0
            },
            {
                "start_time": 29.2090909,
                "end_time": 29.4090909,
                "pitch": 64,
                "velocity": 127,
                "duration": 0.2,
                "tempo": 120.0
            },
            {
                "start_time": 29.4090909,
                "end_time": 29.5090909,
                "pitch": 62,
                "velocity": 127,
                "duration": 0.1,
                "tempo": 120.0
            },
            {
                "start_time": 29.5090909,
                "end_time": 30.4340909,
                "pitch": 57,
                "velocity": 127,
                "duration": 0.925,
                "tempo": 120.0
            },
            {
                "start_time": 30.6454545,
                "end_time": 30.8568182,
                "pitch": 59,
                "velocity": 127,
                "duration": 0.2113636,
                "tempo": 120.0
            },
            {
                "start_time": 30.8568182,
                "end_time": 31.0522727,
                "pitch": 60,
                "velocity": 127,
                "duration": 0.1954545,
                "tempo": 120.0
            },
            {
                "start_time": 31.0522727,
                "end_time": 31.1659091,
                "pitch": 59,
                "velocity": 127,
                "duration": 0.1136364,
                "tempo": 120.0
            },
            {
                "start_time": 31.1681818,
                "end_time": 32.0863636,
                "pitch": 57,
                "velocity": 127,
                "duration": 0.9181818,
                "tempo": 120.0
            },
            {
                "start_time": 32.9068182,
                "end_time": 33.1113636,
                "pitch": 69,
                "velocity": 127,
                "duration": 0.2045455,
                "tempo": 120.0
            },
            {
                "start_time": 33.1113636,
                "end_time": 33.2136364,
                "pitch": 62,
                "velocity": 127,
                "duration": 0.1022727,
                "tempo": 120.0
            },
            {
                "start_time": 33.2136364,
                "end_time": 33.4181818,
                "pitch": 64,
                "velocity": 127,
                "duration": 0.2045455,
                "tempo": 120.0
            },
            {
                "start_time": 33.4181818,
                "end_time": 33.5204545,
                "pitch": 60,
                "velocity": 127,
                "duration": 0.1022727,
                "tempo": 120.0
            },
            {
                "start_time": 33.5227273,
                "end_time": 33.7431818,
                "pitch": 62,
                "velocity": 127,
                "duration": 0.2204545,
                "tempo": 120.0
            },
            {
                "start_time": 33.7431818,
                "end_time": 33.9386364,
                "pitch": 69,
                "velocity": 127,
                "duration": 0.1954545,
                "tempo": 120.0
            },
            {
                "start_time": 33.9386364,
                "end_time": 34.0363636,
                "pitch": 62,
                "velocity": 127,
                "duration": 0.0977273,
                "tempo": 120.0
            },
            {
                "start_time": 34.0363636,
                "end_time": 34.2386364,
                "pitch": 64,
                "velocity": 127,
                "duration": 0.2022727,
                "tempo": 120.0
            },
            {
                "start_time": 34.2386364,
                "end_time": 34.3431818,
                "pitch": 60,
                "velocity": 127,
                "duration": 0.1045455,
                "tempo": 120.0
            },
            {
                "start_time": 34.3454545,
                "end_time": 34.5545455,
                "pitch": 62,
                "velocity": 127,
                "duration": 0.2090909,
                "tempo": 120.0
            },
            {
                "start_time": 34.5568182,
                "end_time": 34.75,
                "pitch": 57,
                "velocity": 127,
                "duration": 0.1931818,
                "tempo": 120.0
            },
            {
                "start_time": 34.7522727,
                "end_time": 34.85,
                "pitch": 59,
                "velocity": 127,
                "duration": 0.0977273,
                "tempo": 120.0
            },
            {
                "start_time": 34.85,
                "end_time": 35.0659091,
                "pitch": 60,
                "velocity": 127,
                "duration": 0.2159091,
                "tempo": 120.0
            },
            {
                "start_time": 35.0659091,
                "end_time": 35.1681818,
                "pitch": 59,
                "velocity": 127,
                "duration": 0.1022727,
                "tempo": 120.0
            },
            {
                "start_time": 35.1704545,
                "end_time": 35.3727273,
                "pitch": 60,
                "velocity": 127,
                "duration": 0.2022727,
                "tempo": 120.0
            },
            {
                "start_time": 35.5727273,
                "end_time": 35.7727273,
                "pitch": 62,
                "velocity": 127,
                "duration": 0.2,
                "tempo": 120.0
            },
            {
                "start_time": 35.7727273,
                "end_time": 36.1818182,
                "pitch": 64,
                "velocity": 127,
                "duration": 0.4090909,
                "tempo": 120.0
            }
        ],
        "Harpsichord": [
            {
                "start_time": 0.0318182,
                "end_time": 0.3295455,
                "pitch": 52,
                "velocity": 64,
                "duration": 0.2977273,
                "tempo": 120.0
            },
            {
                "start_time": 0.3295455,
                "end_time": 0.5477273,
                "pitch": 55,
                "velocity": 64,
                "duration": 0.2181818,
                "tempo": 120.0
            },
            {
                "start_time": 0.5477273,
                "end_time": 0.6,
                "pitch": 55,
                "velocity": 64,
                "duration": 0.0522727,
                "tempo": 120.0
            },
            {
                "start_time": 0.6,
                "end_time": 0.6340909,
                "pitch": 55,
                "velocity": 64,
                "duration": 0.0340909,
                "tempo": 120.0
            },
            {
                "start_time": 0.6340909,
                "end_time": 0.8568182,
                "pitch": 48,
                "velocity": 64,
                "duration": 0.2227273,
                "tempo": 120.0
            },
            {
                "start_time": 0.8568182,
                "end_time": 0.9068182,
                "pitch": 48,
                "velocity": 64,
                "duration": 0.05,
                "tempo": 120.0
            },
            {
                "start_time": 0.9068182,
                "end_time": 0.9931818,
                "pitch": 48,
                "velocity": 64,
                "duration": 0.0863636,
                "tempo": 120.0
            },
            {
                "start_time": 0.9931818,
                "end_time": 1.0454545,
                "pitch": 48,
                "velocity": 64,
                "duration": 0.0522727,
                "tempo": 120.0
            },
            {
                "start_time": 0.9068182,
                "end_time": 1.0454545,
                "pitch": 52,
                "velocity": 64,
                "duration": 0.1386364,
                "tempo": 120.0
            },
            {
                "start_time": 1.0454545,
                "end_time": 1.0613636,
                "pitch": 48,
                "velocity": 64,
                "duration": 0.0159091,
                "tempo": 120.0
            },
            {
                "start_time": 1.0613636,
                "end_time": 1.2659091,
                "pitch": 53,
                "velocity": 64,
                "duration": 0.2045455,
                "tempo": 120.0
            },
            {
                "start_time": 1.0454545,
                "end_time": 1.6659091,
                "pitch": 52,
                "velocity": 64,
                "duration": 0.6204545,
                "tempo": 120.0
            },
            {
                "start_time": 1.2681818,
                "end_time": 1.6659091,
                "pitch": 52,
                "velocity": 64,
                "duration": 0.3977273,
                "tempo": 120.0
            },
            {
                "start_time": 1.6659091,
                "end_time": 1.9818182,
                "pitch": 50,
                "velocity": 64,
                "duration": 0.3159091,
                "tempo": 120.0
            },
            {
                "start_time": 1.9818182,
                "end_time": 2.2045455,
                "pitch": 55,
                "velocity": 64,
                "duration": 0.2227273,
                "tempo": 120.0
            },
            {
                "start_time": 0.6,
                "end_time": 2.2568182,
                "pitch": 0,
                "velocity": 64,
                "duration": 1.6568182,
                "tempo": 120.0
            },
            {
                "start_time": 2.2045455,
                "end_time": 2.2568182,
                "pitch": 55,
                "velocity": 64,
                "duration": 0.0522727,
                "tempo": 120.0
            },
            {
                "start_time": 2.2568182,
                "end_time": 2.2931818,
                "pitch": 55,
                "velocity": 64,
                "duration": 0.0363636,
                "tempo": 120.0
            },
            {
                "start_time": 2.2931818,
                "end_time": 2.7022727,
                "pitch": 47,
                "velocity": 64,
                "duration": 0.4090909,
                "tempo": 120.0
            },
            {
                "start_time": 2.7045455,
                "end_time": 2.9022727,
                "pitch": 53,
                "velocity": 64,
                "duration": 0.1977273,
                "tempo": 120.0
            },
            {
                "start_time": 2.9045455,
                "end_time": 3.3181818,
                "pitch": 52,
                "velocity": 64,
                "duration": 0.4136364,
                "tempo": 120.0
            },
            {
                "start_time": 3.3204545,
                "end_time": 3.625,
                "pitch": 50,
                "velocity": 64,
                "duration": 0.3045455,
                "tempo": 120.0
            },
            {
                "start_time": 3.6272727,
                "end_time": 3.9272727,
                "pitch": 53,
                "velocity": 64,
                "duration": 0.3,
                "tempo": 120.0
            },
            {
                "start_time": 3.9295455,
                "end_time": 4.3295455,
                "pitch": 46,
                "velocity": 64,
                "duration": 0.4,
                "tempo": 120.0
            },
            {
                "start_time": 4.3295455,
                "end_time": 4.5454545,
                "pitch": 51,
                "velocity": 64,
                "duration": 0.2159091,
                "tempo": 120.0
            },
            {
                "start_time": 4.5477273,
                "end_time": 4.9681818,
                "pitch": 50,
                "velocity": 64,
                "duration": 0.4204545,
                "tempo": 120.0
            },
            {
                "start_time": 4.9704545,
                "end_time": 5.1681818,
                "pitch": 47,
                "velocity": 64,
                "duration": 0.1977273,
                "tempo": 120.0
            },
            {
                "start_time": 5.1681818,
                "end_time": 5.2681818,
                "pitch": 43,
                "velocity": 64,
                "duration": 0.1,
                "tempo": 120.0
            },
            {
                "start_time": 5.2681818,
                "end_time": 5.4681818,
                "pitch": 48,
                "velocity": 64,
                "duration": 0.2,
                "tempo": 120.0
            },
            {
                "start_time": 5.4681818,
                "end_time": 5.5681818,
                "pitch": 43,
                "velocity": 64,
                "duration": 0.1,
                "tempo": 120.0
            },
            {
                "start_time": 5.5704545,
                "end_time": 5.9909091,
                "pitch": 50,
                "velocity": 64,
                "duration": 0.4204545,
                "tempo": 120.0
            },
            {
                "start_time": 5.9931818,
                "end_time": 6.1954545,
                "pitch": 48,
                "velocity": 64,
                "duration": 0.2022727,
                "tempo": 120.0
            },
            {
                "start_time": 6.1977273,
                "end_time": 6.5954545,
                "pitch": 47,
                "velocity": 64,
                "duration": 0.3977273,
                "tempo": 120.0
            },
            {
                "start_time": 6.5977273,
                "end_time": 6.8977273,
                "pitch": 52,
                "velocity": 64,
                "duration": 0.3,
                "tempo": 120.0
            },
            {
                "start_time": 6.8977273,
                "end_time": 7.1159091,
                "pitch": 55,
                "velocity": 64,
                "duration": 0.2181818,
                "tempo": 120.0
            },
            {
                "start_time": 2.2568182,
                "end_time": 7.1659091,
                "pitch": 0,
                "velocity": 64,
                "duration": 4.9090909,
                "tempo": 120.0
            },
            {
                "start_time": 7.1159091,
                "end_time": 7.1659091,
                "pitch": 55,
                "velocity": 64,
                "duration": 0.05,
                "tempo": 120.0
            },
            {
                "start_time": 7.1659091,
                "end_time": 7.1977273,
                "pitch": 55,
                "velocity": 64,
                "duration": 0.0318182,
                "tempo": 120.0
            },
            {
                "start_time": 0.8568182,
                "end_time": 7.4181818,
                "pitch": 36,
                "velocity": 64,
                "duration": 6.5613636,
                "tempo": 120.0
            },
            {
                "start_time": 7.2,
                "end_time": 7.4181818,
                "pitch": 48,
                "velocity": 64,
                "duration": 0.2181818,
                "tempo": 120.0
            },
            {
                "start_time": 7.4181818,
                "end_time": 7.4681818,
                "pitch": 48,
                "velocity": 64,
                "duration": 0.05,
                "tempo": 120.0
            },
            {
                "start_time": 7.4181818,
                "end_time": 7.5522727,
                "pitch": 36,
                "velocity": 64,
                "duration": 0.1340909,
                "tempo": 120.0
            },
            {
                "start_time": 7.4681818,
                "end_time": 7.5522727,
                "pitch": 48,
                "velocity": 64,
                "duration": 0.0840909,
                "tempo": 120.0
            },
            {
                "start_time": 7.5522727,
                "end_time": 7.6045455,
                "pitch": 48,
                "velocity": 64,
                "duration": 0.0522727,
                "tempo": 120.0
            },
            {
                "start_time": 7.4681818,
                "end_time": 7.6045455,
                "pitch": 52,
                "velocity": 64,
                "duration": 0.1363636,
                "tempo": 120.0
            },
            {
                "start_time": 7.6045455,
                "end_time": 7.6204545,
                "pitch": 48,
                "velocity": 64,
                "duration": 0.0159091,
                "tempo": 120.0
            },
            {
                "start_time": 7.6227273,
                "end_time": 7.8272727,
                "pitch": 53,
                "velocity": 64,
                "duration": 0.2045455,
                "tempo": 120.0
            },
            {
                "start_time": 7.6045455,
                "end_time": 8.2272727,
                "pitch": 52,
                "velocity": 64,
                "duration": 0.6227273,
                "tempo": 120.0
            },
            {
                "start_time": 7.8272727,
                "end_time": 8.2272727,
                "pitch": 52,
                "velocity": 64,
                "duration": 0.4,
                "tempo": 120.0
            },
            {
                "start_time": 8.2295455,
                "end_time": 8.5454545,
                "pitch": 50,
                "velocity": 64,
                "duration": 0.3159091,
                "tempo": 120.0
            },
            {
                "start_time": 8.5454545,
                "end_time": 8.7681818,
                "pitch": 55,
                "velocity": 64,
                "duration": 0.2227273,
                "tempo": 120.0
            },
            {
                "start_time": 7.1159091,
                "end_time": 8.7681818,
                "pitch": 67,
                "velocity": 64,
                "duration": 1.6522727,
                "tempo": 120.0
            },
            {
                "start_time": 8.7681818,
                "end_time": 8.8204545,
                "pitch": 55,
                "velocity": 64,
                "duration": 0.0522727,
                "tempo": 120.0
            },
            {
                "start_time": 8.8204545,
                "end_time": 8.8545455,
                "pitch": 55,
                "velocity": 64,
                "duration": 0.0340909,
                "tempo": 120.0
            },
            {
                "start_time": 8.8568182,
                "end_time": 9.2659091,
                "pitch": 47,
                "velocity": 64,
                "duration": 0.4090909,
                "tempo": 120.0
            },
            {
                "start_time": 9.2681818,
                "end_time": 9.4681818,
                "pitch": 53,
                "velocity": 64,
                "duration": 0.2,
                "tempo": 120.0
            },
            {
                "start_time": 9.4681818,
                "end_time": 9.8863636,
                "pitch": 52,
                "velocity": 64,
                "duration": 0.4181818,
                "tempo": 120.0
            },
            {
                "start_time": 9.8863636,
                "end_time": 10.2022727,
                "pitch": 50,
                "velocity": 64,
                "duration": 0.3159091,
                "tempo": 120.0
            },
            {
                "start_time": 10.2045455,
                "end_time": 10.5090909,
                "pitch": 53,
                "velocity": 64,
                "duration": 0.3045455,
                "tempo": 120.0
            },
            {
                "start_time": 10.5090909,
                "end_time": 10.9113636,
                "pitch": 46,
                "velocity": 64,
                "duration": 0.4022727,
                "tempo": 120.0
            },
            {
                "start_time": 10.9113636,
                "end_time": 11.1295455,
                "pitch": 51,
                "velocity": 64,
                "duration": 0.2181818,
                "tempo": 120.0
            },
            {
                "start_time": 11.1295455,
                "end_time": 11.5386364,
                "pitch": 50,
                "velocity": 64,
                "duration": 0.4090909,
                "tempo": 120.0
            },
            {
                "start_time": 11.5409091,
                "end_time": 11.7386364,
                "pitch": 47,
                "velocity": 64,
                "duration": 0.1977273,
                "tempo": 120.0
            },
            {
                "start_time": 11.7386364,
                "end_time": 11.8386364,
                "pitch": 43,
                "velocity": 64,
                "duration": 0.1,
                "tempo": 120.0
            },
            {
                "start_time": 11.8386364,
                "end_time": 12.0386364,
                "pitch": 48,
                "velocity": 64,
                "duration": 0.2,
                "tempo": 120.0
            },
            {
                "start_time": 12.0386364,
                "end_time": 12.1386364,
                "pitch": 43,
                "velocity": 64,
                "duration": 0.1,
                "tempo": 120.0
            },
            {
                "start_time": 12.1409091,
                "end_time": 12.5613636,
                "pitch": 50,
                "velocity": 64,
                "duration": 0.4204545,
                "tempo": 120.0
            },
            {
                "start_time": 12.5636364,
                "end_time": 12.7659091,
                "pitch": 48,
                "velocity": 64,
                "duration": 0.2022727,
                "tempo": 120.0
            },
            {
                "start_time": 12.7681818,
                "end_time": 13.1681818,
                "pitch": 47,
                "velocity": 64,
                "duration": 0.4,
                "tempo": 120.0
            },
            {
                "start_time": 13.1704545,
                "end_time": 13.4704545,
                "pitch": 52,
                "velocity": 64,
                "duration": 0.3,
                "tempo": 120.0
            },
            {
                "start_time": 13.4704545,
                "end_time": 13.6931818,
                "pitch": 55,
                "velocity": 64,
                "duration": 0.2227273,
                "tempo": 120.0
            },
            {
                "start_time": 13.6931818,
                "end_time": 13.7454545,
                "pitch": 55,
                "velocity": 64,
                "duration": 0.0522727,
                "tempo": 120.0
            },
            {
                "start_time": 13.7454545,
                "end_time": 13.7977273,
                "pitch": 55,
                "velocity": 64,
                "duration": 0.0522727,
                "tempo": 120.0
            },
            {
                "start_time": 7.5522727,
                "end_time": 14.025,
                "pitch": 36,
                "velocity": 64,
                "duration": 6.4727273,
                "tempo": 120.0
            },
            {
                "start_time": 13.8,
                "end_time": 14.025,
                "pitch": 48,
                "velocity": 64,
                "duration": 0.225,
                "tempo": 120.0
            },
            {
                "start_time": 14.025,
                "end_time": 14.0727273,
                "pitch": 48,
                "velocity": 64,
                "duration": 0.0477273,
                "tempo": 120.0
            },
            {
                "start_time": 14.025,
                "end_time": 14.1545455,
                "pitch": 36,
                "velocity": 64,
                "duration": 0.1295455,
                "tempo": 120.0
            },
            {
                "start_time": 14.0727273,
                "end_time": 14.1545455,
                "pitch": 48,
                "velocity": 64,
                "duration": 0.0818182,
                "tempo": 120.0
            },
            {
                "start_time": 14.1545455,
                "end_time": 14.2045455,
                "pitch": 48,
                "velocity": 64,
                "duration": 0.05,
                "tempo": 120.0
            },
            {
                "start_time": 14.2045455,
                "end_time": 14.4,
                "pitch": 53,
                "velocity": 64,
                "duration": 0.1954545,
                "tempo": 120.0
            },
            {
                "start_time": 14.0727273,
                "end_time": 14.8090909,
                "pitch": 52,
                "velocity": 64,
                "duration": 0.7363636,
                "tempo": 120.0
            },
            {
                "start_time": 14.4,
                "end_time": 14.8090909,
                "pitch": 52,
                "velocity": 64,
                "duration": 0.4090909,
                "tempo": 120.0
            },
            {
                "start_time": 14.8090909,
                "end_time": 15.1181818,
                "pitch": 50,
                "velocity": 64,
                "duration": 0.3090909,
                "tempo": 120.0
            },
            {
                "start_time": 15.1204545,
                "end_time": 15.3409091,
                "pitch": 55,
                "velocity": 64,
                "duration": 0.2204545,
                "tempo": 120.0
            },
            {
                "start_time": 8.7681818,
                "end_time": 15.3409091,
                "pitch": 67,
                "velocity": 64,
                "duration": 6.5727273,
                "tempo": 120.0
            },
            {
                "start_time": 15.3409091,
                "end_time": 15.3931818,
                "pitch": 55,
                "velocity": 64,
                "duration": 0.0522727,
                "tempo": 120.0
            },
            {
                "start_time": 15.3931818,
                "end_time": 15.4272727,
                "pitch": 55,
                "velocity": 64,
                "duration": 0.0340909,
                "tempo": 120.0
            },
            {
                "start_time": 15.4295455,
                "end_time": 15.8386364,
                "pitch": 47,
                "velocity": 64,
                "duration": 0.4090909,
                "tempo": 120.0
            },
            {
                "start_time": 15.8409091,
                "end_time": 16.0409091,
                "pitch": 53,
                "velocity": 64,
                "duration": 0.2,
                "tempo": 120.0
            },
            {
                "start_time": 16.0409091,
                "end_time": 16.4590909,
                "pitch": 52,
                "velocity": 64,
                "duration": 0.4181818,
                "tempo": 120.0
            },
            {
                "start_time": 16.4613636,
                "end_time": 16.775,
                "pitch": 50,
                "velocity": 64,
                "duration": 0.3136364,
                "tempo": 120.0
            },
            {
                "start_time": 16.7772727,
                "end_time": 17.0818182,
                "pitch": 53,
                "velocity": 64,
                "duration": 0.3045455,
                "tempo": 120.0
            },
            {
                "start_time": 17.0840909,
                "end_time": 17.5,
                "pitch": 46,
                "velocity": 64,
                "duration": 0.4159091,
                "tempo": 120.0
            },
            {
                "start_time": 17.5,
                "end_time": 17.6977273,
                "pitch": 51,
                "velocity": 64,
                "duration": 0.1977273,
                "tempo": 120.0
            },
            {
                "start_time": 17.7,
                "end_time": 18.1090909,
                "pitch": 50,
                "velocity": 64,
                "duration": 0.4090909,
                "tempo": 120.0
            },
            {
                "start_time": 18.1090909,
                "end_time": 18.3090909,
                "pitch": 47,
                "velocity": 64,
                "duration": 0.2,
                "tempo": 120.0
            },
            {
                "start_time": 18.3090909,
                "end_time": 18.4090909,
                "pitch": 43,
                "velocity": 64,
                "duration": 0.1,
                "tempo": 120.0
            },
            {
                "start_time": 18.4090909,
                "end_time": 18.6090909,
                "pitch": 48,
                "velocity": 64,
                "duration": 0.2,
                "tempo": 120.0
            },
            {
                "start_time": 18.6090909,
                "end_time": 18.725,
                "pitch": 43,
                "velocity": 64,
                "duration": 0.1159091,
                "tempo": 120.0
            },
            {
                "start_time": 18.7272727,
                "end_time": 19.1318182,
                "pitch": 50,
                "velocity": 64,
                "duration": 0.4045455,
                "tempo": 120.0
            },
            {
                "start_time": 19.1318182,
                "end_time": 19.3363636,
                "pitch": 48,
                "velocity": 64,
                "duration": 0.2045455,
                "tempo": 120.0
            },
            {
                "start_time": 19.3386364,
                "end_time": 19.7363636,
                "pitch": 47,
                "velocity": 64,
                "duration": 0.3977273,
                "tempo": 120.0
            },
            {
                "start_time": 19.7363636,
                "end_time": 19.8363636,
                "pitch": 53,
                "velocity": 64,
                "duration": 0.1,
                "tempo": 120.0
            },
            {
                "start_time": 19.8363636,
                "end_time": 19.9545455,
                "pitch": 48,
                "velocity": 64,
                "duration": 0.1181818,
                "tempo": 120.0
            },
            {
                "start_time": 19.9545455,
                "end_time": 20.0545455,
                "pitch": 52,
                "velocity": 64,
                "duration": 0.1,
                "tempo": 120.0
            },
            {
                "start_time": 20.0545455,
                "end_time": 20.2590909,
                "pitch": 53,
                "velocity": 64,
                "duration": 0.2045455,
                "tempo": 120.0
            },
            {
                "start_time": 20.2613636,
                "end_time": 20.3659091,
                "pitch": 53,
                "velocity": 64,
                "duration": 0.1045455,
                "tempo": 120.0
            },
            {
                "start_time": 20.3659091,
                "end_time": 20.4704545,
                "pitch": 48,
                "velocity": 64,
                "duration": 0.1045455,
                "tempo": 120.0
            },
            {
                "start_time": 20.4727273,
                "end_time": 20.5772727,
                "pitch": 52,
                "velocity": 64,
                "duration": 0.1045455,
                "tempo": 120.0
            },
            {
                "start_time": 20.5772727,
                "end_time": 20.9772727,
                "pitch": 50,
                "velocity": 64,
                "duration": 0.4,
                "tempo": 120.0
            },
            {
                "start_time": 21.3954545,
                "end_time": 21.4977273,
                "pitch": 57,
                "velocity": 64,
                "duration": 0.1022727,
                "tempo": 120.0
            },
            {
                "start_time": 21.4977273,
                "end_time": 21.6,
                "pitch": 52,
                "velocity": 64,
                "duration": 0.1022727,
                "tempo": 120.0
            },
            {
                "start_time": 21.6,
                "end_time": 21.7022727,
                "pitch": 55,
                "velocity": 64,
                "duration": 0.1022727,
                "tempo": 120.0
            },
            {
                "start_time": 21.7022727,
                "end_time": 21.9045455,
                "pitch": 57,
                "velocity": 64,
                "duration": 0.2022727,
                "tempo": 120.0
            },
            {
                "start_time": 21.9045455,
                "end_time": 22.0045455,
                "pitch": 57,
                "velocity": 64,
                "duration": 0.1,
                "tempo": 120.0
            },
            {
                "start_time": 22.0045455,
                "end_time": 22.1045455,
                "pitch": 52,
                "velocity": 64,
                "duration": 0.1,
                "tempo": 120.0
            },
            {
                "start_time": 22.1045455,
                "end_time": 22.2045455,
                "pitch": 55,
                "velocity": 64,
                "duration": 0.1,
                "tempo": 120.0
            },
            {
                "start_time": 22.2045455,
                "end_time": 22.6227273,
                "pitch": 57,
                "velocity": 64,
                "duration": 0.4181818,
                "tempo": 120.0
            },
            {
                "start_time": 23.0454545,
                "end_time": 23.1409091,
                "pitch": 53,
                "velocity": 64,
                "duration": 0.0954545,
                "tempo": 120.0
            },
            {
                "start_time": 23.1409091,
                "end_time": 23.2386364,
                "pitch": 48,
                "velocity": 64,
                "duration": 0.0977273,
                "tempo": 120.0
            },
            {
                "start_time": 23.2409091,
                "end_time": 23.3363636,
                "pitch": 52,
                "velocity": 64,
                "duration": 0.0954545,
                "tempo": 120.0
            },
            {
                "start_time": 23.3386364,
                "end_time": 23.5363636,
                "pitch": 53,
                "velocity": 64,
                "duration": 0.1977273,
                "tempo": 120.0
            },
            {
                "start_time": 23.5363636,
                "end_time": 23.6386364,
                "pitch": 53,
                "velocity": 64,
                "duration": 0.1022727,
                "tempo": 120.0
            },
            {
                "start_time": 23.6409091,
                "end_time": 23.7590909,
                "pitch": 48,
                "velocity": 64,
                "duration": 0.1181818,
                "tempo": 120.0
            },
            {
                "start_time": 23.7590909,
                "end_time": 23.8613636,
                "pitch": 52,
                "velocity": 64,
                "duration": 0.1022727,
                "tempo": 120.0
            },
            {
                "start_time": 23.8636364,
                "end_time": 24.2727273,
                "pitch": 50,
                "velocity": 64,
                "duration": 0.4090909,
                "tempo": 120.0
            },
            {
                "start_time": 24.6727273,
                "end_time": 24.7704545,
                "pitch": 57,
                "velocity": 64,
                "duration": 0.0977273,
                "tempo": 120.0
            },
            {
                "start_time": 24.7727273,
                "end_time": 24.8727273,
                "pitch": 52,
                "velocity": 64,
                "duration": 0.1,
                "tempo": 120.0
            },
            {
                "start_time": 24.8727273,
                "end_time": 24.9727273,
                "pitch": 55,
                "velocity": 64,
                "duration": 0.1,
                "tempo": 120.0
            },
            {
                "start_time": 24.9727273,
                "end_time": 25.1954545,
                "pitch": 57,
                "velocity": 64,
                "duration": 0.2227273,
                "tempo": 120.0
            },
            {
                "start_time": 25.1954545,
                "end_time": 25.3,
                "pitch": 57,
                "velocity": 64,
                "duration": 0.1045455,
                "tempo": 120.0
            },
            {
                "start_time": 25.3022727,
                "end_time": 25.4045455,
                "pitch": 52,
                "velocity": 64,
                "duration": 0.1022727,
                "tempo": 120.0
            },
            {
                "start_time": 25.4068182,
                "end_time": 25.5113636,
                "pitch": 55,
                "velocity": 64,
                "duration": 0.1045455,
                "tempo": 120.0
            },
            {
                "start_time": 25.5113636,
                "end_time": 25.7113636,
                "pitch": 57,
                "velocity": 64,
                "duration": 0.2,
                "tempo": 120.0
            },
            {
                "start_time": 25.7136364,
                "end_time": 25.9136364,
                "pitch": 55,
                "velocity": 64,
                "duration": 0.2,
                "tempo": 120.0
            },
            {
                "start_time": 25.9136364,
                "end_time": 26.3295455,
                "pitch": 57,
                "velocity": 64,
                "duration": 0.4159091,
                "tempo": 120.0
            },
            {
                "start_time": 26.3318182,
                "end_time": 26.4318182,
                "pitch": 53,
                "velocity": 64,
                "duration": 0.1,
                "tempo": 120.0
            },
            {
                "start_time": 26.4318182,
                "end_time": 26.5340909,
                "pitch": 48,
                "velocity": 64,
                "duration": 0.1022727,
                "tempo": 120.0
            },
            {
                "start_time": 26.5340909,
                "end_time": 26.6363636,
                "pitch": 52,
                "velocity": 64,
                "duration": 0.1022727,
                "tempo": 120.0
            },
            {
                "start_time": 26.6386364,
                "end_time": 26.8431818,
                "pitch": 53,
                "velocity": 64,
                "duration": 0.2045455,
                "tempo": 120.0
            },
            {
                "start_time": 26.8454545,
                "end_time": 26.95,
                "pitch": 53,
                "velocity": 64,
                "duration": 0.1045455,
                "tempo": 120.0
            },
            {
                "start_time": 26.95,
                "end_time": 27.0545455,
                "pitch": 48,
                "velocity": 64,
                "duration": 0.1045455,
                "tempo": 120.0
            },
            {
                "start_time": 27.0568182,
                "end_time": 27.1613636,
                "pitch": 52,
                "velocity": 64,
                "duration": 0.1045455,
                "tempo": 120.0
            },
            {
                "start_time": 27.1613636,
                "end_time": 27.5704545,
                "pitch": 50,
                "velocity": 64,
                "duration": 0.4090909,
                "tempo": 120.0
            },
            {
                "start_time": 27.9795455,
                "end_time": 28.0818182,
                "pitch": 57,
                "velocity": 64,
                "duration": 0.1022727,
                "tempo": 120.0
            },
            {
                "start_time": 28.0818182,
                "end_time": 28.1840909,
                "pitch": 52,
                "velocity": 64,
                "duration": 0.1022727,
                "tempo": 120.0
            },
            {
                "start_time": 28.1840909,
                "end_time": 28.2863636,
                "pitch": 55,
                "velocity": 64,
                "duration": 0.1022727,
                "tempo": 120.0
            },
            {
                "start_time": 28.2863636,
                "end_time": 28.4909091,
                "pitch": 57,
                "velocity": 64,
                "duration": 0.2045455,
                "tempo": 120.0
            },
            {
                "start_time": 28.4909091,
                "end_time": 28.5909091,
                "pitch": 57,
                "velocity": 64,
                "duration": 0.1,
                "tempo": 120.0
            },
            {
                "start_time": 28.5909091,
                "end_time": 28.6909091,
                "pitch": 52,
                "velocity": 64,
                "duration": 0.1,
                "tempo": 120.0
            },
            {
                "start_time": 28.6909091,
                "end_time": 28.7909091,
                "pitch": 55,
                "velocity": 64,
                "duration": 0.1,
                "tempo": 120.0
            },
            {
                "start_time": 28.7909091,
                "end_time": 29.2068182,
                "pitch": 57,
                "velocity": 64,
                "duration": 0.4159091,
                "tempo": 120.0
            },
            {
                "start_time": 29.6090909,
                "end_time": 29.7113636,
                "pitch": 53,
                "velocity": 64,
                "duration": 0.1022727,
                "tempo": 120.0
            },
            {
                "start_time": 29.7113636,
                "end_time": 29.8136364,
                "pitch": 48,
                "velocity": 64,
                "duration": 0.1022727,
                "tempo": 120.0
            },
            {
                "start_time": 29.8136364,
                "end_time": 29.9159091,
                "pitch": 52,
                "velocity": 64,
                "duration": 0.1022727,
                "tempo": 120.0
            },
            {
                "start_time": 29.9181818,
                "end_time": 30.1363636,
                "pitch": 53,
                "velocity": 64,
                "duration": 0.2181818,
                "tempo": 120.0
            },
            {
                "start_time": 30.1363636,
                "end_time": 30.2363636,
                "pitch": 53,
                "velocity": 64,
                "duration": 0.1,
                "tempo": 120.0
            },
            {
                "start_time": 30.2363636,
                "end_time": 30.3363636,
                "pitch": 48,
                "velocity": 64,
                "duration": 0.1,
                "tempo": 120.0
            },
            {
                "start_time": 30.3363636,
                "end_time": 30.4363636,
                "pitch": 52,
                "velocity": 64,
                "duration": 0.1,
                "tempo": 120.0
            },
            {
                "start_time": 30.4363636,
                "end_time": 30.8568182,
                "pitch": 50,
                "velocity": 64,
                "duration": 0.4204545,
                "tempo": 120.0
            },
            {
                "start_time": 31.2477273,
                "end_time": 31.3659091,
                "pitch": 57,
                "velocity": 64,
                "duration": 0.1181818,
                "tempo": 120.0
            },
            {
                "start_time": 31.3659091,
                "end_time": 31.4659091,
                "pitch": 52,
                "velocity": 64,
                "duration": 0.1,
                "tempo": 120.0
            },
            {
                "start_time": 31.4659091,
                "end_time": 31.5659091,
                "pitch": 55,
                "velocity": 64,
                "duration": 0.1,
                "tempo": 120.0
            },
            {
                "start_time": 31.5681818,
                "end_time": 31.7704545,
                "pitch": 57,
                "velocity": 64,
                "duration": 0.2022727,
                "tempo": 120.0
            },
            {
                "start_time": 31.7727273,
                "end_time": 31.8772727,
                "pitch": 57,
                "velocity": 64,
                "duration": 0.1045455,
                "tempo": 120.0
            },
            {
                "start_time": 31.8772727,
                "end_time": 31.9818182,
                "pitch": 52,
                "velocity": 64,
                "duration": 0.1045455,
                "tempo": 120.0
            },
            {
                "start_time": 31.9818182,
                "end_time": 32.0886364,
                "pitch": 55,
                "velocity": 64,
                "duration": 0.1068182,
                "tempo": 120.0
            },
            {
                "start_time": 32.0886364,
                "end_time": 32.2886364,
                "pitch": 57,
                "velocity": 64,
                "duration": 0.2,
                "tempo": 120.0
            },
            {
                "start_time": 32.2909091,
                "end_time": 32.4909091,
                "pitch": 55,
                "velocity": 64,
                "duration": 0.2,
                "tempo": 120.0
            },
            {
                "start_time": 32.4909091,
                "end_time": 32.7068182,
                "pitch": 57,
                "velocity": 64,
                "duration": 0.2159091,
                "tempo": 120.0
            },
            {
                "start_time": 32.7068182,
                "end_time": 32.9068182,
                "pitch": 52,
                "velocity": 64,
                "duration": 0.2,
                "tempo": 120.0
            },
            {
                "start_time": 32.9068182,
                "end_time": 33.2136364,
                "pitch": 53,
                "velocity": 64,
                "duration": 0.3068182,
                "tempo": 120.0
            },
            {
                "start_time": 33.2136364,
                "end_time": 33.4363636,
                "pitch": 55,
                "velocity": 64,
                "duration": 0.2227273,
                "tempo": 120.0
            },
            {
                "start_time": 15.3409091,
                "end_time": 33.4363636,
                "pitch": 67,
                "velocity": 64,
                "duration": 18.0954545,
                "tempo": 120.0
            },
            {
                "start_time": 7.1659091,
                "end_time": 33.4863636,
                "pitch": 0,
                "velocity": 64,
                "duration": 26.3204545,
                "tempo": 120.0
            },
            {
                "start_time": 33.4363636,
                "end_time": 33.4863636,
                "pitch": 55,
                "velocity": 64,
                "duration": 0.05,
                "tempo": 120.0
            },
            {
                "start_time": 33.4863636,
                "end_time": 33.5204545,
                "pitch": 55,
                "velocity": 64,
                "duration": 0.0340909,
                "tempo": 120.0
            },
            {
                "start_time": 33.5227273,
                "end_time": 33.725,
                "pitch": 57,
                "velocity": 64,
                "duration": 0.2022727,
                "tempo": 120.0
            },
            {
                "start_time": 33.7272727,
                "end_time": 33.9386364,
                "pitch": 55,
                "velocity": 64,
                "duration": 0.2113636,
                "tempo": 120.0
            },
            {
                "start_time": 33.4363636,
                "end_time": 33.9386364,
                "pitch": 67,
                "velocity": 64,
                "duration": 0.5022727,
                "tempo": 120.0
            },
            {
                "start_time": 33.4863636,
                "end_time": 33.9886364,
                "pitch": 0,
                "velocity": 64,
                "duration": 0.5022727,
                "tempo": 120.0
            },
            {
                "start_time": 33.9386364,
                "end_time": 33.9886364,
                "pitch": 55,
                "velocity": 64,
                "duration": 0.05,
                "tempo": 120.0
            },
            {
                "start_time": 33.9886364,
                "end_time": 34.0363636,
                "pitch": 55,
                "velocity": 64,
                "duration": 0.0477273,
                "tempo": 120.0
            },
            {
                "start_time": 34.0363636,
                "end_time": 34.3431818,
                "pitch": 57,
                "velocity": 64,
                "duration": 0.3068182,
                "tempo": 120.0
            },
            {
                "start_time": 34.3454545,
                "end_time": 34.5545455,
                "pitch": 59,
                "velocity": 64,
                "duration": 0.2090909,
                "tempo": 120.0
            },
            {
                "start_time": 34.5568182,
                "end_time": 34.7522727,
                "pitch": 57,
                "velocity": 64,
                "duration": 0.1954545,
                "tempo": 120.0
            },
            {
                "start_time": 34.7522727,
                "end_time": 34.85,
                "pitch": 48,
                "velocity": 64,
                "duration": 0.0977273,
                "tempo": 120.0
            },
            {
                "start_time": 34.85,
                "end_time": 35.0477273,
                "pitch": 52,
                "velocity": 64,
                "duration": 0.1977273,
                "tempo": 120.0
            },
            {
                "start_time": 35.05,
                "end_time": 35.1681818,
                "pitch": 50,
                "velocity": 64,
                "duration": 0.1181818,
                "tempo": 120.0
            },
            {
                "start_time": 35.1704545,
                "end_time": 35.3727273,
                "pitch": 48,
                "velocity": 64,
                "duration": 0.2022727,
                "tempo": 120.0
            },
            {
                "start_time": 35.575,
                "end_time": 35.7727273,
                "pitch": 57,
                "velocity": 64,
                "duration": 0.1977273,
                "tempo": 120.0
            },
            {
                "start_time": 35.7727273,
                "end_time": 36.1818182,
                "pitch": 59,
                "velocity": 64,
                "duration": 0.4090909,
                "tempo": 120.0
            }
        ],
        "Lead 2 (sawtooth)": [
            {
                "start_time": 0.0318182,
                "end_time": 0.3295455,
                "pitch": 45,
                "velocity": 64,
                "duration": 0.2977273,
                "tempo": 120.0
            },
            {
                "start_time": 0.3295455,
                "end_time": 0.4295455,
                "pitch": 45,
                "velocity": 64,
                "duration": 0.1,
                "tempo": 120.0
            },
            {
                "start_time": 0.4295455,
                "end_time": 0.6340909,
                "pitch": 45,
                "velocity": 64,
                "duration": 0.2045455,
                "tempo": 120.0
            },
            {
                "start_time": 0.6363636,
                "end_time": 0.7545455,
                "pitch": 55,
                "velocity": 64,
                "duration": 0.1181818,
                "tempo": 120.0
            },
            {
                "start_time": 0.7545455,
                "end_time": 0.8568182,
                "pitch": 57,
                "velocity": 64,
                "duration": 0.1022727,
                "tempo": 120.0
            },
            {
                "start_time": 0.9590909,
                "end_time": 1.0613636,
                "pitch": 45,
                "velocity": 64,
                "duration": 0.1022727,
                "tempo": 120.0
            },
            {
                "start_time": 1.0636364,
                "end_time": 1.2659091,
                "pitch": 55,
                "velocity": 64,
                "duration": 0.2022727,
                "tempo": 120.0
            },
            {
                "start_time": 1.2681818,
                "end_time": 1.4659091,
                "pitch": 57,
                "velocity": 64,
                "duration": 0.1977273,
                "tempo": 120.0
            },
            {
                "start_time": 1.4659091,
                "end_time": 1.6659091,
                "pitch": 45,
                "velocity": 64,
                "duration": 0.2,
                "tempo": 120.0
            },
            {
                "start_time": 1.6659091,
                "end_time": 1.9818182,
                "pitch": 43,
                "velocity": 64,
                "duration": 0.3159091,
                "tempo": 120.0
            },
            {
                "start_time": 1.9818182,
                "end_time": 2.0818182,
                "pitch": 43,
                "velocity": 64,
                "duration": 0.1,
                "tempo": 120.0
            },
            {
                "start_time": 2.0818182,
                "end_time": 2.2931818,
                "pitch": 43,
                "velocity": 64,
                "duration": 0.2113636,
                "tempo": 120.0
            },
            {
                "start_time": 2.2931818,
                "end_time": 2.3977273,
                "pitch": 53,
                "velocity": 64,
                "duration": 0.1045455,
                "tempo": 120.0
            },
            {
                "start_time": 2.3977273,
                "end_time": 2.5022727,
                "pitch": 55,
                "velocity": 64,
                "duration": 0.1045455,
                "tempo": 120.0
            },
            {
                "start_time": 2.6045455,
                "end_time": 2.7022727,
                "pitch": 43,
                "velocity": 64,
                "duration": 0.0977273,
                "tempo": 120.0
            },
            {
                "start_time": 2.7045455,
                "end_time": 2.9022727,
                "pitch": 53,
                "velocity": 64,
                "duration": 0.1977273,
                "tempo": 120.0
            },
            {
                "start_time": 2.9045455,
                "end_time": 3.1022727,
                "pitch": 55,
                "velocity": 64,
                "duration": 0.1977273,
                "tempo": 120.0
            },
            {
                "start_time": 3.1022727,
                "end_time": 3.3181818,
                "pitch": 43,
                "velocity": 64,
                "duration": 0.2159091,
                "tempo": 120.0
            },
            {
                "start_time": 3.3204545,
                "end_time": 3.6272727,
                "pitch": 43,
                "velocity": 64,
                "duration": 0.3068182,
                "tempo": 120.0
            },
            {
                "start_time": 3.6272727,
                "end_time": 3.7295455,
                "pitch": 43,
                "velocity": 64,
                "duration": 0.1022727,
                "tempo": 120.0
            },
            {
                "start_time": 3.7295455,
                "end_time": 3.9295455,
                "pitch": 43,
                "velocity": 64,
                "duration": 0.2,
                "tempo": 120.0
            },
            {
                "start_time": 3.9295455,
                "end_time": 4.0272727,
                "pitch": 53,
                "velocity": 64,
                "duration": 0.0977273,
                "tempo": 120.0
            },
            {
                "start_time": 4.0295455,
                "end_time": 4.1272727,
                "pitch": 55,
                "velocity": 64,
                "duration": 0.0977273,
                "tempo": 120.0
            },
            {
                "start_time": 4.2295455,
                "end_time": 4.3295455,
                "pitch": 43,
                "velocity": 64,
                "duration": 0.1,
                "tempo": 120.0
            },
            {
                "start_time": 4.3295455,
                "end_time": 4.5477273,
                "pitch": 53,
                "velocity": 64,
                "duration": 0.2181818,
                "tempo": 120.0
            },
            {
                "start_time": 4.5477273,
                "end_time": 4.7568182,
                "pitch": 55,
                "velocity": 64,
                "duration": 0.2090909,
                "tempo": 120.0
            },
            {
                "start_time": 4.7590909,
                "end_time": 4.9681818,
                "pitch": 43,
                "velocity": 64,
                "duration": 0.2090909,
                "tempo": 120.0
            },
            {
                "start_time": 4.9704545,
                "end_time": 5.2681818,
                "pitch": 40,
                "velocity": 64,
                "duration": 0.2977273,
                "tempo": 120.0
            },
            {
                "start_time": 5.2681818,
                "end_time": 5.3681818,
                "pitch": 40,
                "velocity": 64,
                "duration": 0.1,
                "tempo": 120.0
            },
            {
                "start_time": 5.3681818,
                "end_time": 5.5681818,
                "pitch": 40,
                "velocity": 64,
                "duration": 0.2,
                "tempo": 120.0
            },
            {
                "start_time": 5.5704545,
                "end_time": 5.6681818,
                "pitch": 50,
                "velocity": 64,
                "duration": 0.0977273,
                "tempo": 120.0
            },
            {
                "start_time": 5.6704545,
                "end_time": 5.7863636,
                "pitch": 52,
                "velocity": 64,
                "duration": 0.1159091,
                "tempo": 120.0
            },
            {
                "start_time": 5.8886364,
                "end_time": 5.9909091,
                "pitch": 40,
                "velocity": 64,
                "duration": 0.1022727,
                "tempo": 120.0
            },
            {
                "start_time": 5.9931818,
                "end_time": 6.1977273,
                "pitch": 50,
                "velocity": 64,
                "duration": 0.2045455,
                "tempo": 120.0
            },
            {
                "start_time": 6.1977273,
                "end_time": 6.3954545,
                "pitch": 52,
                "velocity": 64,
                "duration": 0.1977273,
                "tempo": 120.0
            },
            {
                "start_time": 6.3977273,
                "end_time": 6.5954545,
                "pitch": 40,
                "velocity": 64,
                "duration": 0.1977273,
                "tempo": 120.0
            },
            {
                "start_time": 6.5977273,
                "end_time": 6.8977273,
                "pitch": 45,
                "velocity": 64,
                "duration": 0.3,
                "tempo": 120.0
            },
            {
                "start_time": 6.8977273,
                "end_time": 6.9977273,
                "pitch": 45,
                "velocity": 64,
                "duration": 0.1,
                "tempo": 120.0
            },
            {
                "start_time": 6.9977273,
                "end_time": 7.1977273,
                "pitch": 45,
                "velocity": 64,
                "duration": 0.2,
                "tempo": 120.0
            },
            {
                "start_time": 7.2,
                "end_time": 7.3159091,
                "pitch": 55,
                "velocity": 64,
                "duration": 0.1159091,
                "tempo": 120.0
            },
            {
                "start_time": 7.3159091,
                "end_time": 7.4159091,
                "pitch": 57,
                "velocity": 64,
                "duration": 0.1,
                "tempo": 120.0
            },
            {
                "start_time": 7.5204545,
                "end_time": 7.6204545,
                "pitch": 45,
                "velocity": 64,
                "duration": 0.1,
                "tempo": 120.0
            },
            {
                "start_time": 7.6227273,
                "end_time": 7.8272727,
                "pitch": 55,
                "velocity": 64,
                "duration": 0.2045455,
                "tempo": 120.0
            },
            {
                "start_time": 7.8272727,
                "end_time": 8.0272727,
                "pitch": 57,
                "velocity": 64,
                "duration": 0.2,
                "tempo": 120.0
            },
            {
                "start_time": 8.0272727,
                "end_time": 8.2295455,
                "pitch": 45,
                "velocity": 64,
                "duration": 0.2022727,
                "tempo": 120.0
            },
            {
                "start_time": 8.2295455,
                "end_time": 8.5454545,
                "pitch": 43,
                "velocity": 64,
                "duration": 0.3159091,
                "tempo": 120.0
            },
            {
                "start_time": 8.5454545,
                "end_time": 8.6454545,
                "pitch": 43,
                "velocity": 64,
                "duration": 0.1,
                "tempo": 120.0
            },
            {
                "start_time": 8.6454545,
                "end_time": 8.8545455,
                "pitch": 43,
                "velocity": 64,
                "duration": 0.2090909,
                "tempo": 120.0
            },
            {
                "start_time": 8.8568182,
                "end_time": 8.9590909,
                "pitch": 53,
                "velocity": 64,
                "duration": 0.1022727,
                "tempo": 120.0
            },
            {
                "start_time": 8.9613636,
                "end_time": 9.0659091,
                "pitch": 55,
                "velocity": 64,
                "duration": 0.1045455,
                "tempo": 120.0
            },
            {
                "start_time": 9.1681818,
                "end_time": 9.2659091,
                "pitch": 43,
                "velocity": 64,
                "duration": 0.0977273,
                "tempo": 120.0
            },
            {
                "start_time": 9.2681818,
                "end_time": 9.4681818,
                "pitch": 53,
                "velocity": 64,
                "duration": 0.2,
                "tempo": 120.0
            },
            {
                "start_time": 9.4681818,
                "end_time": 9.6681818,
                "pitch": 55,
                "velocity": 64,
                "duration": 0.2,
                "tempo": 120.0
            },
            {
                "start_time": 9.6704545,
                "end_time": 9.8863636,
                "pitch": 43,
                "velocity": 64,
                "duration": 0.2159091,
                "tempo": 120.0
            },
            {
                "start_time": 9.8886364,
                "end_time": 10.2022727,
                "pitch": 43,
                "velocity": 64,
                "duration": 0.3136364,
                "tempo": 120.0
            },
            {
                "start_time": 10.2045455,
                "end_time": 10.3090909,
                "pitch": 43,
                "velocity": 64,
                "duration": 0.1045455,
                "tempo": 120.0
            },
            {
                "start_time": 10.3090909,
                "end_time": 10.5090909,
                "pitch": 43,
                "velocity": 64,
                "duration": 0.2,
                "tempo": 120.0
            },
            {
                "start_time": 10.5113636,
                "end_time": 10.6090909,
                "pitch": 53,
                "velocity": 64,
                "duration": 0.0977273,
                "tempo": 120.0
            },
            {
                "start_time": 10.6090909,
                "end_time": 10.7090909,
                "pitch": 55,
                "velocity": 64,
                "duration": 0.1,
                "tempo": 120.0
            },
            {
                "start_time": 10.8113636,
                "end_time": 10.9113636,
                "pitch": 43,
                "velocity": 64,
                "duration": 0.1,
                "tempo": 120.0
            },
            {
                "start_time": 10.9113636,
                "end_time": 11.1295455,
                "pitch": 53,
                "velocity": 64,
                "duration": 0.2181818,
                "tempo": 120.0
            },
            {
                "start_time": 11.1295455,
                "end_time": 11.3340909,
                "pitch": 55,
                "velocity": 64,
                "duration": 0.2045455,
                "tempo": 120.0
            },
            {
                "start_time": 11.3340909,
                "end_time": 11.5386364,
                "pitch": 43,
                "velocity": 64,
                "duration": 0.2045455,
                "tempo": 120.0
            },
            {
                "start_time": 11.5409091,
                "end_time": 11.8386364,
                "pitch": 40,
                "velocity": 64,
                "duration": 0.2977273,
                "tempo": 120.0
            },
            {
                "start_time": 11.8386364,
                "end_time": 11.9386364,
                "pitch": 40,
                "velocity": 64,
                "duration": 0.1,
                "tempo": 120.0
            },
            {
                "start_time": 11.9386364,
                "end_time": 12.1386364,
                "pitch": 40,
                "velocity": 64,
                "duration": 0.2,
                "tempo": 120.0
            },
            {
                "start_time": 12.1409091,
                "end_time": 12.2386364,
                "pitch": 50,
                "velocity": 64,
                "duration": 0.0977273,
                "tempo": 120.0
            },
            {
                "start_time": 12.2409091,
                "end_time": 12.3568182,
                "pitch": 52,
                "velocity": 64,
                "duration": 0.1159091,
                "tempo": 120.0
            },
            {
                "start_time": 12.4590909,
                "end_time": 12.5613636,
                "pitch": 40,
                "velocity": 64,
                "duration": 0.1022727,
                "tempo": 120.0
            },
            {
                "start_time": 12.5636364,
                "end_time": 12.7659091,
                "pitch": 50,
                "velocity": 64,
                "duration": 0.2022727,
                "tempo": 120.0
            },
            {
                "start_time": 12.7681818,
                "end_time": 12.9681818,
                "pitch": 52,
                "velocity": 64,
                "duration": 0.2,
                "tempo": 120.0
            },
            {
                "start_time": 12.9681818,
                "end_time": 13.1681818,
                "pitch": 40,
                "velocity": 64,
                "duration": 0.2,
                "tempo": 120.0
            },
            {
                "start_time": 13.1704545,
                "end_time": 13.4704545,
                "pitch": 45,
                "velocity": 64,
                "duration": 0.3,
                "tempo": 120.0
            },
            {
                "start_time": 13.4704545,
                "end_time": 13.5863636,
                "pitch": 45,
                "velocity": 64,
                "duration": 0.1159091,
                "tempo": 120.0
            },
            {
                "start_time": 13.5886364,
                "end_time": 13.7977273,
                "pitch": 45,
                "velocity": 64,
                "duration": 0.2090909,
                "tempo": 120.0
            },
            {
                "start_time": 13.8,
                "end_time": 13.9022727,
                "pitch": 55,
                "velocity": 64,
                "duration": 0.1022727,
                "tempo": 120.0
            },
            {
                "start_time": 13.9045455,
                "end_time": 14.0090909,
                "pitch": 57,
                "velocity": 64,
                "duration": 0.1045455,
                "tempo": 120.0
            },
            {
                "start_time": 14.1068182,
                "end_time": 14.2045455,
                "pitch": 45,
                "velocity": 64,
                "duration": 0.0977273,
                "tempo": 120.0
            },
            {
                "start_time": 14.2045455,
                "end_time": 14.4,
                "pitch": 55,
                "velocity": 64,
                "duration": 0.1954545,
                "tempo": 120.0
            },
            {
                "start_time": 14.4,
                "end_time": 14.6045455,
                "pitch": 57,
                "velocity": 64,
                "duration": 0.2045455,
                "tempo": 120.0
            },
            {
                "start_time": 14.6045455,
                "end_time": 14.8090909,
                "pitch": 45,
                "velocity": 64,
                "duration": 0.2045455,
                "tempo": 120.0
            },
            {
                "start_time": 14.8113636,
                "end_time": 15.1204545,
                "pitch": 43,
                "velocity": 64,
                "duration": 0.3090909,
                "tempo": 120.0
            },
            {
                "start_time": 15.1204545,
                "end_time": 15.2181818,
                "pitch": 43,
                "velocity": 64,
                "duration": 0.0977273,
                "tempo": 120.0
            },
            {
                "start_time": 15.2181818,
                "end_time": 15.4272727,
                "pitch": 43,
                "velocity": 64,
                "duration": 0.2090909,
                "tempo": 120.0
            },
            {
                "start_time": 15.4295455,
                "end_time": 15.5340909,
                "pitch": 53,
                "velocity": 64,
                "duration": 0.1045455,
                "tempo": 120.0
            },
            {
                "start_time": 15.5340909,
                "end_time": 15.6386364,
                "pitch": 55,
                "velocity": 64,
                "duration": 0.1045455,
                "tempo": 120.0
            },
            {
                "start_time": 15.7409091,
                "end_time": 15.8409091,
                "pitch": 43,
                "velocity": 64,
                "duration": 0.1,
                "tempo": 120.0
            },
            {
                "start_time": 15.8409091,
                "end_time": 16.0409091,
                "pitch": 53,
                "velocity": 64,
                "duration": 0.2,
                "tempo": 120.0
            },
            {
                "start_time": 16.0409091,
                "end_time": 16.2590909,
                "pitch": 55,
                "velocity": 64,
                "duration": 0.2181818,
                "tempo": 120.0
            },
            {
                "start_time": 16.2590909,
                "end_time": 16.4590909,
                "pitch": 43,
                "velocity": 64,
                "duration": 0.2,
                "tempo": 120.0
            },
            {
                "start_time": 16.4613636,
                "end_time": 16.775,
                "pitch": 43,
                "velocity": 64,
                "duration": 0.3136364,
                "tempo": 120.0
            },
            {
                "start_time": 16.7772727,
                "end_time": 16.8818182,
                "pitch": 43,
                "velocity": 64,
                "duration": 0.1045455,
                "tempo": 120.0
            },
            {
                "start_time": 16.8818182,
                "end_time": 17.0818182,
                "pitch": 43,
                "velocity": 64,
                "duration": 0.2,
                "tempo": 120.0
            },
            {
                "start_time": 17.0840909,
                "end_time": 17.1818182,
                "pitch": 53,
                "velocity": 64,
                "duration": 0.0977273,
                "tempo": 120.0
            },
            {
                "start_time": 17.1840909,
                "end_time": 17.2840909,
                "pitch": 55,
                "velocity": 64,
                "duration": 0.1,
                "tempo": 120.0
            },
            {
                "start_time": 17.4,
                "end_time": 17.5,
                "pitch": 43,
                "velocity": 64,
                "duration": 0.1,
                "tempo": 120.0
            },
            {
                "start_time": 17.5,
                "end_time": 17.7,
                "pitch": 53,
                "velocity": 64,
                "duration": 0.2,
                "tempo": 120.0
            },
            {
                "start_time": 17.7,
                "end_time": 17.9045455,
                "pitch": 55,
                "velocity": 64,
                "duration": 0.2045455,
                "tempo": 120.0
            },
            {
                "start_time": 17.9045455,
                "end_time": 18.1090909,
                "pitch": 43,
                "velocity": 64,
                "duration": 0.2045455,
                "tempo": 120.0
            },
            {
                "start_time": 18.1090909,
                "end_time": 18.4090909,
                "pitch": 40,
                "velocity": 64,
                "duration": 0.3,
                "tempo": 120.0
            },
            {
                "start_time": 18.4090909,
                "end_time": 18.5090909,
                "pitch": 40,
                "velocity": 64,
                "duration": 0.1,
                "tempo": 120.0
            },
            {
                "start_time": 18.5090909,
                "end_time": 18.725,
                "pitch": 40,
                "velocity": 64,
                "duration": 0.2159091,
                "tempo": 120.0
            },
            {
                "start_time": 18.7272727,
                "end_time": 18.825,
                "pitch": 50,
                "velocity": 64,
                "duration": 0.0977273,
                "tempo": 120.0
            },
            {
                "start_time": 18.8272727,
                "end_time": 18.9272727,
                "pitch": 52,
                "velocity": 64,
                "duration": 0.1,
                "tempo": 120.0
            },
            {
                "start_time": 19.0295455,
                "end_time": 19.1318182,
                "pitch": 40,
                "velocity": 64,
                "duration": 0.1022727,
                "tempo": 120.0
            },
            {
                "start_time": 19.1318182,
                "end_time": 19.3363636,
                "pitch": 50,
                "velocity": 64,
                "duration": 0.2045455,
                "tempo": 120.0
            },
            {
                "start_time": 19.3386364,
                "end_time": 19.5363636,
                "pitch": 52,
                "velocity": 64,
                "duration": 0.1977273,
                "tempo": 120.0
            },
            {
                "start_time": 19.5363636,
                "end_time": 19.7363636,
                "pitch": 40,
                "velocity": 64,
                "duration": 0.2,
                "tempo": 120.0
            },
            {
                "start_time": 19.7363636,
                "end_time": 20.0545455,
                "pitch": 41,
                "velocity": 64,
                "duration": 0.3181818,
                "tempo": 120.0
            },
            {
                "start_time": 20.0545455,
                "end_time": 20.1545455,
                "pitch": 41,
                "velocity": 64,
                "duration": 0.1,
                "tempo": 120.0
            },
            {
                "start_time": 20.1568182,
                "end_time": 20.3659091,
                "pitch": 41,
                "velocity": 64,
                "duration": 0.2090909,
                "tempo": 120.0
            },
            {
                "start_time": 20.3659091,
                "end_time": 20.4704545,
                "pitch": 52,
                "velocity": 64,
                "duration": 0.1045455,
                "tempo": 120.0
            },
            {
                "start_time": 20.4727273,
                "end_time": 20.6772727,
                "pitch": 53,
                "velocity": 64,
                "duration": 0.2045455,
                "tempo": 120.0
            },
            {
                "start_time": 20.6772727,
                "end_time": 20.7772727,
                "pitch": 43,
                "velocity": 64,
                "duration": 0.1,
                "tempo": 120.0
            },
            {
                "start_time": 20.7795455,
                "end_time": 20.9795455,
                "pitch": 43,
                "velocity": 64,
                "duration": 0.2,
                "tempo": 120.0
            },
            {
                "start_time": 20.9795455,
                "end_time": 21.1954545,
                "pitch": 55,
                "velocity": 64,
                "duration": 0.2159091,
                "tempo": 120.0
            },
            {
                "start_time": 21.1954545,
                "end_time": 21.3954545,
                "pitch": 43,
                "velocity": 64,
                "duration": 0.2,
                "tempo": 120.0
            },
            {
                "start_time": 21.3954545,
                "end_time": 21.7022727,
                "pitch": 45,
                "velocity": 64,
                "duration": 0.3068182,
                "tempo": 120.0
            },
            {
                "start_time": 21.7022727,
                "end_time": 21.8045455,
                "pitch": 45,
                "velocity": 64,
                "duration": 0.1022727,
                "tempo": 120.0
            },
            {
                "start_time": 21.8045455,
                "end_time": 22.0045455,
                "pitch": 45,
                "velocity": 64,
                "duration": 0.2,
                "tempo": 120.0
            },
            {
                "start_time": 22.0045455,
                "end_time": 22.1045455,
                "pitch": 45,
                "velocity": 64,
                "duration": 0.1,
                "tempo": 120.0
            },
            {
                "start_time": 22.1045455,
                "end_time": 22.3045455,
                "pitch": 57,
                "velocity": 64,
                "duration": 0.2,
                "tempo": 120.0
            },
            {
                "start_time": 22.3045455,
                "end_time": 22.4045455,
                "pitch": 47,
                "velocity": 64,
                "duration": 0.1,
                "tempo": 120.0
            },
            {
                "start_time": 22.4045455,
                "end_time": 22.6227273,
                "pitch": 47,
                "velocity": 64,
                "duration": 0.2181818,
                "tempo": 120.0
            },
            {
                "start_time": 22.6227273,
                "end_time": 22.8340909,
                "pitch": 60,
                "velocity": 64,
                "duration": 0.2113636,
                "tempo": 120.0
            },
            {
                "start_time": 22.8340909,
                "end_time": 23.0431818,
                "pitch": 48,
                "velocity": 64,
                "duration": 0.2090909,
                "tempo": 120.0
            },
            {
                "start_time": 23.0454545,
                "end_time": 23.3363636,
                "pitch": 41,
                "velocity": 64,
                "duration": 0.2909091,
                "tempo": 120.0
            },
            {
                "start_time": 23.3386364,
                "end_time": 23.4340909,
                "pitch": 41,
                "velocity": 64,
                "duration": 0.0954545,
                "tempo": 120.0
            },
            {
                "start_time": 23.4363636,
                "end_time": 23.6409091,
                "pitch": 41,
                "velocity": 64,
                "duration": 0.2045455,
                "tempo": 120.0
            },
            {
                "start_time": 23.6409091,
                "end_time": 23.7590909,
                "pitch": 52,
                "velocity": 64,
                "duration": 0.1181818,
                "tempo": 120.0
            },
            {
                "start_time": 23.7613636,
                "end_time": 23.9636364,
                "pitch": 53,
                "velocity": 64,
                "duration": 0.2022727,
                "tempo": 120.0
            },
            {
                "start_time": 23.9659091,
                "end_time": 24.0659091,
                "pitch": 43,
                "velocity": 64,
                "duration": 0.1,
                "tempo": 120.0
            },
            {
                "start_time": 24.0681818,
                "end_time": 24.2727273,
                "pitch": 43,
                "velocity": 64,
                "duration": 0.2045455,
                "tempo": 120.0
            },
            {
                "start_time": 24.2727273,
                "end_time": 24.4727273,
                "pitch": 55,
                "velocity": 64,
                "duration": 0.2,
                "tempo": 120.0
            },
            {
                "start_time": 24.4727273,
                "end_time": 24.6704545,
                "pitch": 43,
                "velocity": 64,
                "duration": 0.1977273,
                "tempo": 120.0
            },
            {
                "start_time": 24.6727273,
                "end_time": 24.9727273,
                "pitch": 40,
                "velocity": 64,
                "duration": 0.3,
                "tempo": 120.0
            },
            {
                "start_time": 24.9727273,
                "end_time": 25.0909091,
                "pitch": 40,
                "velocity": 64,
                "duration": 0.1181818,
                "tempo": 120.0
            },
            {
                "start_time": 25.0909091,
                "end_time": 25.3,
                "pitch": 40,
                "velocity": 64,
                "duration": 0.2090909,
                "tempo": 120.0
            },
            {
                "start_time": 25.3022727,
                "end_time": 25.4068182,
                "pitch": 40,
                "velocity": 64,
                "duration": 0.1045455,
                "tempo": 120.0
            },
            {
                "start_time": 25.4068182,
                "end_time": 25.6113636,
                "pitch": 52,
                "velocity": 64,
                "duration": 0.2045455,
                "tempo": 120.0
            },
            {
                "start_time": 25.6136364,
                "end_time": 25.7136364,
                "pitch": 45,
                "velocity": 64,
                "duration": 0.1,
                "tempo": 120.0
            },
            {
                "start_time": 25.7136364,
                "end_time": 25.9136364,
                "pitch": 45,
                "velocity": 64,
                "duration": 0.2,
                "tempo": 120.0
            },
            {
                "start_time": 25.9136364,
                "end_time": 26.1136364,
                "pitch": 57,
                "velocity": 64,
                "duration": 0.2,
                "tempo": 120.0
            },
            {
                "start_time": 26.1136364,
                "end_time": 26.3295455,
                "pitch": 45,
                "velocity": 64,
                "duration": 0.2159091,
                "tempo": 120.0
            },
            {
                "start_time": 26.3318182,
                "end_time": 26.6363636,
                "pitch": 41,
                "velocity": 64,
                "duration": 0.3045455,
                "tempo": 120.0
            },
            {
                "start_time": 26.6386364,
                "end_time": 26.7386364,
                "pitch": 41,
                "velocity": 64,
                "duration": 0.1,
                "tempo": 120.0
            },
            {
                "start_time": 26.7409091,
                "end_time": 26.95,
                "pitch": 41,
                "velocity": 64,
                "duration": 0.2090909,
                "tempo": 120.0
            },
            {
                "start_time": 26.95,
                "end_time": 27.0545455,
                "pitch": 52,
                "velocity": 64,
                "duration": 0.1045455,
                "tempo": 120.0
            },
            {
                "start_time": 27.0568182,
                "end_time": 27.2590909,
                "pitch": 53,
                "velocity": 64,
                "duration": 0.2022727,
                "tempo": 120.0
            },
            {
                "start_time": 27.2590909,
                "end_time": 27.3568182,
                "pitch": 43,
                "velocity": 64,
                "duration": 0.0977273,
                "tempo": 120.0
            },
            {
                "start_time": 27.3568182,
                "end_time": 27.5704545,
                "pitch": 43,
                "velocity": 64,
                "duration": 0.2136364,
                "tempo": 120.0
            },
            {
                "start_time": 27.5704545,
                "end_time": 27.775,
                "pitch": 55,
                "velocity": 64,
                "duration": 0.2045455,
                "tempo": 120.0
            },
            {
                "start_time": 27.775,
                "end_time": 27.9795455,
                "pitch": 43,
                "velocity": 64,
                "duration": 0.2045455,
                "tempo": 120.0
            },
            {
                "start_time": 27.9795455,
                "end_time": 28.2863636,
                "pitch": 45,
                "velocity": 64,
                "duration": 0.3068182,
                "tempo": 120.0
            },
            {
                "start_time": 28.2863636,
                "end_time": 28.3886364,
                "pitch": 45,
                "velocity": 64,
                "duration": 0.1022727,
                "tempo": 120.0
            },
            {
                "start_time": 28.3909091,
                "end_time": 28.5909091,
                "pitch": 45,
                "velocity": 64,
                "duration": 0.2,
                "tempo": 120.0
            },
            {
                "start_time": 28.5909091,
                "end_time": 28.6909091,
                "pitch": 45,
                "velocity": 64,
                "duration": 0.1,
                "tempo": 120.0
            },
            {
                "start_time": 28.6909091,
                "end_time": 28.9068182,
                "pitch": 57,
                "velocity": 64,
                "duration": 0.2159091,
                "tempo": 120.0
            },
            {
                "start_time": 28.9090909,
                "end_time": 29.0068182,
                "pitch": 47,
                "velocity": 64,
                "duration": 0.0977273,
                "tempo": 120.0
            },
            {
                "start_time": 29.0090909,
                "end_time": 29.2068182,
                "pitch": 47,
                "velocity": 64,
                "duration": 0.1977273,
                "tempo": 120.0
            },
            {
                "start_time": 29.2090909,
                "end_time": 29.4090909,
                "pitch": 60,
                "velocity": 64,
                "duration": 0.2,
                "tempo": 120.0
            },
            {
                "start_time": 29.4090909,
                "end_time": 29.6090909,
                "pitch": 48,
                "velocity": 64,
                "duration": 0.2,
                "tempo": 120.0
            },
            {
                "start_time": 29.6090909,
                "end_time": 29.9159091,
                "pitch": 41,
                "velocity": 64,
                "duration": 0.3068182,
                "tempo": 120.0
            },
            {
                "start_time": 29.9181818,
                "end_time": 30.0181818,
                "pitch": 41,
                "velocity": 64,
                "duration": 0.1,
                "tempo": 120.0
            },
            {
                "start_time": 30.0204545,
                "end_time": 30.2363636,
                "pitch": 41,
                "velocity": 64,
                "duration": 0.2159091,
                "tempo": 120.0
            },
            {
                "start_time": 30.2363636,
                "end_time": 30.3363636,
                "pitch": 52,
                "velocity": 64,
                "duration": 0.1,
                "tempo": 120.0
            },
            {
                "start_time": 30.3363636,
                "end_time": 30.5386364,
                "pitch": 53,
                "velocity": 64,
                "duration": 0.2022727,
                "tempo": 120.0
            },
            {
                "start_time": 30.5409091,
                "end_time": 30.6454545,
                "pitch": 43,
                "velocity": 64,
                "duration": 0.1045455,
                "tempo": 120.0
            },
            {
                "start_time": 30.6454545,
                "end_time": 30.8568182,
                "pitch": 43,
                "velocity": 64,
                "duration": 0.2113636,
                "tempo": 120.0
            },
            {
                "start_time": 30.8568182,
                "end_time": 31.0522727,
                "pitch": 55,
                "velocity": 64,
                "duration": 0.1954545,
                "tempo": 120.0
            },
            {
                "start_time": 31.0522727,
                "end_time": 31.2477273,
                "pitch": 43,
                "velocity": 64,
                "duration": 0.1954545,
                "tempo": 120.0
            },
            {
                "start_time": 31.25,
                "end_time": 31.5659091,
                "pitch": 45,
                "velocity": 64,
                "duration": 0.3159091,
                "tempo": 120.0
            },
            {
                "start_time": 31.5681818,
                "end_time": 31.6659091,
                "pitch": 45,
                "velocity": 64,
                "duration": 0.0977273,
                "tempo": 120.0
            },
            {
                "start_time": 31.6681818,
                "end_time": 31.8772727,
                "pitch": 45,
                "velocity": 64,
                "duration": 0.2090909,
                "tempo": 120.0
            },
            {
                "start_time": 31.8772727,
                "end_time": 31.9818182,
                "pitch": 45,
                "velocity": 64,
                "duration": 0.1045455,
                "tempo": 120.0
            },
            {
                "start_time": 31.9818182,
                "end_time": 32.1886364,
                "pitch": 57,
                "velocity": 64,
                "duration": 0.2068182,
                "tempo": 120.0
            },
            {
                "start_time": 32.1886364,
                "end_time": 32.2886364,
                "pitch": 45,
                "velocity": 64,
                "duration": 0.1,
                "tempo": 120.0
            },
            {
                "start_time": 32.2909091,
                "end_time": 32.4909091,
                "pitch": 45,
                "velocity": 64,
                "duration": 0.2,
                "tempo": 120.0
            },
            {
                "start_time": 32.4909091,
                "end_time": 32.7068182,
                "pitch": 57,
                "velocity": 64,
                "duration": 0.2159091,
                "tempo": 120.0
            },
            {
                "start_time": 32.7068182,
                "end_time": 32.9068182,
                "pitch": 45,
                "velocity": 64,
                "duration": 0.2,
                "tempo": 120.0
            },
            {
                "start_time": 32.9068182,
                "end_time": 33.2136364,
                "pitch": 38,
                "velocity": 64,
                "duration": 0.3068182,
                "tempo": 120.0
            },
            {
                "start_time": 33.2136364,
                "end_time": 33.3159091,
                "pitch": 38,
                "velocity": 64,
                "duration": 0.1022727,
                "tempo": 120.0
            },
            {
                "start_time": 33.3159091,
                "end_time": 33.5204545,
                "pitch": 38,
                "velocity": 64,
                "duration": 0.2045455,
                "tempo": 120.0
            },
            {
                "start_time": 33.5227273,
                "end_time": 33.6227273,
                "pitch": 48,
                "velocity": 64,
                "duration": 0.1,
                "tempo": 120.0
            },
            {
                "start_time": 33.625,
                "end_time": 33.825,
                "pitch": 50,
                "velocity": 64,
                "duration": 0.2,
                "tempo": 120.0
            },
            {
                "start_time": 33.825,
                "end_time": 33.9386364,
                "pitch": 40,
                "velocity": 64,
                "duration": 0.1136364,
                "tempo": 120.0
            },
            {
                "start_time": 33.9409091,
                "end_time": 34.1340909,
                "pitch": 50,
                "velocity": 64,
                "duration": 0.1931818,
                "tempo": 120.0
            },
            {
                "start_time": 34.1363636,
                "end_time": 34.3454545,
                "pitch": 52,
                "velocity": 64,
                "duration": 0.2090909,
                "tempo": 120.0
            },
            {
                "start_time": 34.3454545,
                "end_time": 34.5545455,
                "pitch": 40,
                "velocity": 64,
                "duration": 0.2090909,
                "tempo": 120.0
            },
            {
                "start_time": 34.5568182,
                "end_time": 34.85,
                "pitch": 41,
                "velocity": 64,
                "duration": 0.2931818,
                "tempo": 120.0
            },
            {
                "start_time": 34.85,
                "end_time": 34.9477273,
                "pitch": 41,
                "velocity": 64,
                "duration": 0.0977273,
                "tempo": 120.0
            },
            {
                "start_time": 34.9477273,
                "end_time": 35.1681818,
                "pitch": 41,
                "velocity": 64,
                "duration": 0.2204545,
                "tempo": 120.0
            },
            {
                "start_time": 35.1704545,
                "end_time": 35.2704545,
                "pitch": 52,
                "velocity": 64,
                "duration": 0.1,
                "tempo": 120.0
            },
            {
                "start_time": 35.2727273,
                "end_time": 35.4727273,
                "pitch": 53,
                "velocity": 64,
                "duration": 0.2,
                "tempo": 120.0
            },
            {
                "start_time": 35.4727273,
                "end_time": 35.5727273,
                "pitch": 42,
                "velocity": 64,
                "duration": 0.1,
                "tempo": 120.0
            },
            {
                "start_time": 35.575,
                "end_time": 35.7727273,
                "pitch": 42,
                "velocity": 64,
                "duration": 0.1977273,
                "tempo": 120.0
            },
            {
                "start_time": 35.7727273,
                "end_time": 35.9772727,
                "pitch": 56,
                "velocity": 64,
                "duration": 0.2045455,
                "tempo": 120.0
            },
            {
                "start_time": 35.9772727,
                "end_time": 36.1818182,
                "pitch": 44,
                "velocity": 64,
                "duration": 0.2045455,
                "tempo": 120.0
            }
        ]
    }
}