{
    "mood": "happy",
    "instruments": {
        "Trumpet": [
            {
                "start_time": 0.1659091,
                "end_time": 0.2818182,
                "pitch": 60,
                "velocity": 51,
                "duration": 0.1159091,
                "tempo": 120.0
            },
            {
                "start_time": 0.3318182,
                "end_time": 0.3340909,
                "pitch": 60,
                "velocity": 51,
                "duration": 0.0022727,
                "tempo": 120.0
            },
            {
                "start_time": 0.3340909,
                "end_time": 0.45,
                "pitch": 64,
                "velocity": 51,
                "duration": 0.1159091,
                "tempo": 120.0
            },
            {
                "start_time": 0.5,
                "end_time": 0.6159091,
                "pitch": 67,
                "velocity": 51,
                "duration": 0.1159091,
                "tempo": 120.0
            },
            {
                "start_time": 0.6659091,
                "end_time": 1.6204545,
                "pitch": 72,
                "velocity": 51,
                "duration": 0.9545455,
                "tempo": 120.0
            },
            {
                "start_time": 1.6704545,
                "end_time": 2.1318182,
                "pitch": 71,
                "velocity": 51,
                "duration": 0.4613636,
                "tempo": 120.0
            },
            {
                "start_time": 2.1818182,
                "end_time": 2.6318182,
                "pitch": 64,
                "velocity": 51,
                "duration": 0.45,
                "tempo": 120.0
            },
            {
                "start_time": 0.5,
                "end_time": 2.6818182,
                "pitch": 77,
                "velocity": 51,
                "duration": 2.1818182,
                "tempo": 120.0
            },
            {
                "start_time": 2.6818182,
                "end_time": 4.1340909,
                "pitch": 69,
                "velocity": 51,
                "duration": 1.4522727,
                "tempo": 120.0
            },
            {
                "start_time": 4.1840909,
                "end_time": 4.3,
                "pitch": 64,
                "velocity": 51,
                "duration": 0.1159091,
                "tempo": 120.0
            },
            {
                "start_time": 4.3522727,
                "end_time": 4.4681818,
                "pitch": 64,
                "velocity": 51,
                "duration": 0.1159091,
                "tempo": 120.0
            },
            {
                "start_time": 4.5181818,
                "end_time": 4.6340909,
                "pitch": 67,
                "velocity": 51,
                "duration": 0.1159091,
                "tempo": 120.0
            },
            {
                "start_time": 4.6840909,
                "end_time": 5.2522727,
                "pitch": 67,
                "velocity": 51,
                "duration": 0.5681818,
                "tempo": 120.0
            },
            {
                "start_time": 5.2522727,
                "end_time": 5.4681818,
                "pitch": 69,
                "velocity": 51,
                "duration": 0.2159091,
                "tempo": 120.0
            },
            {
                "start_time": 4.1840909,
                "end_time": 5.5204545,
                "pitch": 30,
                "velocity": 51,
                "duration": 1.3363636,
                "tempo": 120.0
            },
            {
                "start_time": 5.5204545,
                "end_time": 5.6363636,
                "pitch": 60,
                "velocity": 51,
                "duration": 0.1159091,
                "tempo": 120.0
            },
            {
                "start_time": 5.6863636,
                "end_time": 6.1386364,
                "pitch": 60,
                "velocity": 51,
                "duration": 0.4522727,
                "tempo": 120.0
            },
            {
                "start_time": 6.1909091,
                "end_time": 6.65,
                "pitch": 62,
                "velocity": 51,
                "duration": 0.4590909,
                "tempo": 120.0
            },
            {
                "start_time": 2.6818182,
                "end_time": 6.7,
                "pitch": 77,
                "velocity": 51,
                "duration": 4.0181818,
                "tempo": 120.0
            },
            {
                "start_time": 0.6659091,
                "end_time": 7.3295455,
                "pitch": 0,
                "velocity": 51,
                "duration": 6.6636364,
                "tempo": 120.0
            },
            {
                "start_time": 6.7,
                "end_time": 7.3295455,
                "pitch": 67,
                "velocity": 51,
                "duration": 0.6295455,
                "tempo": 120.0
            },
            {
                "start_time": 7.3295455,
                "end_time": 7.3795455,
                "pitch": 67,
                "velocity": 51,
                "duration": 0.05,
                "tempo": 120.0
            },
            {
                "start_time": 7.3295455,
                "end_time": 7.4613636,
                "pitch": 0,
                "velocity": 51,
                "duration": 0.1318182,
                "tempo": 120.0
            },
            {
                "start_time": 7.3795455,
                "end_time": 7.4613636,
                "pitch": 67,
                "velocity": 51,
                "duration": 0.0818182,
                "tempo": 120.0
            },
            {
                "start_time": 7.4613636,
                "end_time": 7.5090909,
                "pitch": 67,
                "velocity": 51,
                "duration": 0.0477273,
                "tempo": 120.0
            },
            {
                "start_time": 7.3795455,
                "end_time": 7.5090909,
                "pitch": 79,
                "velocity": 51,
                "duration": 0.1295455,
                "tempo": 120.0
            },
            {
                "start_time": 7.4613636,
                "end_time": 7.5931818,
                "pitch": 0,
                "velocity": 51,
                "duration": 0.1318182,
                "tempo": 120.0
            },
            {
                "start_time": 7.5090909,
                "end_time": 7.5931818,
                "pitch": 67,
                "velocity": 51,
                "duration": 0.0840909,
                "tempo": 120.0
            },
            {
                "start_time": 7.5931818,
                "end_time": 7.6431818,
                "pitch": 67,
                "velocity": 51,
                "duration": 0.05,
                "tempo": 120.0
            },
            {
                "start_time": 7.5090909,
                "end_time": 7.6431818,
                "pitch": 79,
                "velocity": 51,
                "duration": 0.1340909,
                "tempo": 120.0
            },
            {
                "start_time": 7.5931818,
                "end_time": 7.7272727,
                "pitch": 0,
                "velocity": 51,
                "duration": 0.1340909,
                "tempo": 120.0
            },
            {
                "start_time": 7.6431818,
                "end_time": 7.7272727,
                "pitch": 67,
                "velocity": 51,
                "duration": 0.0840909,
                "tempo": 120.0
            },
            {
                "start_time": 7.7272727,
                "end_time": 7.7772727,
                "pitch": 67,
                "velocity": 51,
                "duration": 0.05,
                "tempo": 120.0
            },
            {
                "start_time": 7.6431818,
                "end_time": 7.7772727,
                "pitch": 79,
                "velocity": 51,
                "duration": 0.1340909,
                "tempo": 120.0
            },
            {
                "start_time": 7.7272727,
                "end_time": 7.8590909,
                "pitch": 0,
                "velocity": 51,
                "duration": 0.1318182,
                "tempo": 120.0
            },
            {
                "start_time": 7.7772727,
                "end_time": 7.8590909,
                "pitch": 67,
                "velocity": 51,
                "duration": 0.0818182,
                "tempo": 120.0
            },
            {
                "start_time": 7.8590909,
                "end_time": 7.9090909,
                "pitch": 67,
                "velocity": 51,
                "duration": 0.05,
                "tempo": 120.0
            },
            {
                "start_time": 7.7772727,
                "end_time": 7.9113636,
                "pitch": 79,
                "velocity": 51,
                "duration": 0.1340909,
                "tempo": 120.0
            },
            {
                "start_time": 7.9090909,
                "end_time": 7.9113636,
                "pitch": 79,
                "velocity": 51,
                "duration": 0.0022727,
                "tempo": 120.0
            },
            {
                "start_time": 7.8590909,
                "end_time": 7.9931818,
                "pitch": 0,
                "velocity": 51,
                "duration": 0.1340909,
                "tempo": 120.0
            },
            {
                "start_time": 7.9113636,
                "end_time": 7.9931818,
                "pitch": 67,
                "velocity": 51,
                "duration": 0.0818182,
                "tempo": 120.0
            },
            {
                "start_time": 7.9931818,
                "end_time": 8.0431818,
                "pitch": 67,
                "velocity": 51,
                "duration": 0.05,
                "tempo": 120.0
            },
            {
                "start_time": 7.9931818,
                "end_time": 8.1272727,
                "pitch": 0,
                "velocity": 51,
                "duration": 0.1340909,
                "tempo": 120.0
            },
            {
                "start_time": 8.0431818,
                "end_time": 8.1272727,
                "pitch": 67,
                "velocity": 51,
                "duration": 0.0840909,
                "tempo": 120.0
            },
            {
                "start_time": 8.1272727,
                "end_time": 8.1431818,
                "pitch": 67,
                "velocity": 51,
                "duration": 0.0159091,
                "tempo": 120.0
            },
            {
                "start_time": 8.1272727,
                "end_time": 8.1954545,
                "pitch": 0,
                "velocity": 51,
                "duration": 0.0681818,
                "tempo": 120.0
            },
            {
                "start_time": 8.1954545,
                "end_time": 8.3113636,
                "pitch": 64,
                "velocity": 51,
                "duration": 0.1159091,
                "tempo": 120.0
            },
            {
                "start_time": 8.3613636,
                "end_time": 8.4772727,
                "pitch": 64,
                "velocity": 51,
                "duration": 0.1159091,
                "tempo": 120.0
            },
            {
                "start_time": 4.5181818,
                "end_time": 8.5272727,
                "pitch": 78,
                "velocity": 51,
                "duration": 4.0090909,
                "tempo": 120.0
            },
            {
                "start_time": 8.5272727,
                "end_time": 8.6477273,
                "pitch": 67,
                "velocity": 51,
                "duration": 0.1204545,
                "tempo": 120.0
            },
            {
                "start_time": 8.6977273,
                "end_time": 9.2704545,
                "pitch": 67,
                "velocity": 51,
                "duration": 0.5727273,
                "tempo": 120.0
            },
            {
                "start_time": 9.2704545,
                "end_time": 9.4840909,
                "pitch": 69,
                "velocity": 51,
                "duration": 0.2136364,
                "tempo": 120.0
            },
            {
                "start_time": 5.5204545,
                "end_time": 9.5340909,
                "pitch": 30,
                "velocity": 51,
                "duration": 4.0136364,
                "tempo": 120.0
            },
            {
                "start_time": 9.5340909,
                "end_time": 9.6522727,
                "pitch": 62,
                "velocity": 51,
                "duration": 0.1181818,
                "tempo": 120.0
            },
            {
                "start_time": 9.7045455,
                "end_time": 10.1636364,
                "pitch": 62,
                "velocity": 51,
                "duration": 0.4590909,
                "tempo": 120.0
            },
            {
                "start_time": 10.2136364,
                "end_time": 10.6636364,
                "pitch": 72,
                "velocity": 51,
                "duration": 0.45,
                "tempo": 120.0
            },
            {
                "start_time": 1.6704545,
                "end_time": 10.7136364,
                "pitch": 76,
                "velocity": 51,
                "duration": 9.0431818,
                "tempo": 120.0
            },
            {
                "start_time": 10.7136364,
                "end_time": 12.1772727,
                "pitch": 71,
                "velocity": 51,
                "duration": 1.4636364,
                "tempo": 120.0
            },
            {
                "start_time": 12.2272727,
                "end_time": 12.3409091,
                "pitch": 67,
                "velocity": 51,
                "duration": 0.1136364,
                "tempo": 120.0
            },
            {
                "start_time": 12.3909091,
                "end_time": 12.5045455,
                "pitch": 67,
                "velocity": 51,
                "duration": 0.1136364,
                "tempo": 120.0
            },
            {
                "start_time": 12.2272727,
                "end_time": 13.5113636,
                "pitch": 71,
                "velocity": 51,
                "duration": 1.2840909,
                "tempo": 120.0
            },
            {
                "start_time": 12.5545455,
                "end_time": 13.5113636,
                "pitch": 71,
                "velocity": 51,
                "duration": 0.9568182,
                "tempo": 120.0
            },
            {
                "start_time": 13.5613636,
                "end_time": 13.6795455,
                "pitch": 64,
                "velocity": 51,
                "duration": 0.1181818,
                "tempo": 120.0
            },
            {
                "start_time": 13.7295455,
                "end_time": 14.1886364,
                "pitch": 64,
                "velocity": 51,
                "duration": 0.4590909,
                "tempo": 120.0
            },
            {
                "start_time": 10.7136364,
                "end_time": 14.2386364,
                "pitch": 76,
                "velocity": 51,
                "duration": 3.525,
                "tempo": 120.0
            },
            {
                "start_time": 14.2363636,
                "end_time": 14.2386364,
                "pitch": 76,
                "velocity": 51,
                "duration": 0.0022727,
                "tempo": 120.0
            },
            {
                "start_time": 10.2136364,
                "end_time": 14.6840909,
                "pitch": 74,
                "velocity": 51,
                "duration": 4.4704545,
                "tempo": 120.0
            },
            {
                "start_time": 14.2386364,
                "end_time": 14.6840909,
                "pitch": 74,
                "velocity": 51,
                "duration": 0.4454545,
                "tempo": 120.0
            },
            {
                "start_time": 14.7363636,
                "end_time": 16.1977273,
                "pitch": 72,
                "velocity": 51,
                "duration": 1.4613636,
                "tempo": 120.0
            },
            {
                "start_time": 12.5545455,
                "end_time": 16.3636364,
                "pitch": 69,
                "velocity": 51,
                "duration": 3.8090909,
                "tempo": 120.0
            },
            {
                "start_time": 16.2477273,
                "end_time": 16.3636364,
                "pitch": 69,
                "velocity": 51,
                "duration": 0.1159091,
                "tempo": 120.0
            },
            {
                "start_time": 16.4136364,
                "end_time": 16.5295455,
                "pitch": 71,
                "velocity": 51,
                "duration": 0.1159091,
                "tempo": 120.0
            },
            {
                "start_time": 16.5818182,
                "end_time": 17.5318182,
                "pitch": 72,
                "velocity": 51,
                "duration": 0.95,
                "tempo": 120.0
            },
            {
                "start_time": 6.1909091,
                "end_time": 17.5818182,
                "pitch": 60,
                "velocity": 51,
                "duration": 11.3909091,
                "tempo": 120.0
            },
            {
                "start_time": 17.5818182,
                "end_time": 17.7,
                "pitch": 65,
                "velocity": 51,
                "duration": 0.1181818,
                "tempo": 120.0
            },
            {
                "start_time": 17.75,
                "end_time": 18.2,
                "pitch": 65,
                "velocity": 51,
                "duration": 0.45,
                "tempo": 120.0
            },
            {
                "start_time": 6.7,
                "end_time": 18.7,
                "pitch": 77,
                "velocity": 51,
                "duration": 12.0,
                "tempo": 120.0
            },
            {
                "start_time": 18.25,
                "end_time": 18.7,
                "pitch": 77,
                "velocity": 51,
                "duration": 0.45,
                "tempo": 120.0
            },
            {
                "start_time": 16.2477273,
                "end_time": 18.75,
                "pitch": 76,
                "velocity": 51,
                "duration": 2.5022727,
                "tempo": 120.0
            },
            {
                "start_time": 14.7363636,
                "end_time": 19.5340909,
                "pitch": 74,
                "velocity": 51,
                "duration": 4.7977273,
                "tempo": 120.0
            },
            {
                "start_time": 18.75,
                "end_time": 19.5340909,
                "pitch": 74,
                "velocity": 51,
                "duration": 0.7840909,
                "tempo": 120.0
            },
            {
                "start_time": 19.5863636,
                "end_time": 19.7045455,
                "pitch": 68,
                "velocity": 51,
                "duration": 0.1181818,
                "tempo": 120.0
            },
            {
                "start_time": 19.7545455,
                "end_time": 20.2136364,
                "pitch": 68,
                "velocity": 51,
                "duration": 0.4590909,
                "tempo": 120.0
            },
            {
                "start_time": 9.5340909,
                "end_time": 20.2636364,
                "pitch": 30,
                "velocity": 51,
                "duration": 10.7295455,
                "tempo": 120.0
            },
            {
                "start_time": 19.5863636,
                "end_time": 20.7090909,
                "pitch": 77,
                "velocity": 51,
                "duration": 1.1227273,
                "tempo": 120.0
            },
            {
                "start_time": 20.2636364,
                "end_time": 20.7090909,
                "pitch": 77,
                "velocity": 51,
                "duration": 0.4454545,
                "tempo": 120.0
            },
            {
                "start_time": 20.7613636,
                "end_time": 24.2318182,
                "pitch": 77,
                "velocity": 51,
                "duration": 3.4704545,
                "tempo": 120.0
            },
            {
                "start_time": 18.75,
                "end_time": 24.7409091,
                "pitch": 76,
                "velocity": 51,
                "duration": 5.9909091,
                "tempo": 120.0
            },
            {
                "start_time": 24.2818182,
                "end_time": 24.7409091,
                "pitch": 76,
                "velocity": 51,
                "duration": 0.4590909,
                "tempo": 120.0
            },
            {
                "start_time": 24.7909091,
                "end_time": 25.7363636,
                "pitch": 76,
                "velocity": 51,
                "duration": 0.9454545,
                "tempo": 120.0
            },
            {
                "start_time": 25.7863636,
                "end_time": 26.7340909,
                "pitch": 72,
                "velocity": 51,
                "duration": 0.9477273,
                "tempo": 120.0
            },
            {
                "start_time": 27.2795455,
                "end_time": 28.2522727,
                "pitch": 74,
                "velocity": 51,
                "duration": 0.9727273,
                "tempo": 120.0
            },
            {
                "start_time": 28.3022727,
                "end_time": 28.7522727,
                "pitch": 74,
                "velocity": 51,
                "duration": 0.45,
                "tempo": 120.0
            },
            {
                "start_time": 27.2795455,
                "end_time": 30.6022727,
                "pitch": 72,
                "velocity": 51,
                "duration": 3.3227273,
                "tempo": 120.0
            },
            {
                "start_time": 28.8,
                "end_time": 30.6022727,
                "pitch": 72,
                "velocity": 51,
                "duration": 1.8022727,
                "tempo": 120.0
            },
            {
                "start_time": 8.5272727,
                "end_time": 62.9818182,
                "pitch": 78,
                "velocity": 51,
                "duration": 54.4545455,
                "tempo": 120.0
            },
            {
                "start_time": 16.4136364,
                "end_time": 63.0954545,
                "pitch": 69,
                "velocity": 51,
                "duration": 46.6818182,
                "tempo": 120.0
            },
            {
                "start_time": 62.9818182,
                "end_time": 63.0954545,
                "pitch": 69,
                "velocity": 51,
                "duration": 0.1136364,
                "tempo": 120.0
            },
            {
                "start_time": 20.2636364,
                "end_time": 63.1454545,
                "pitch": 30,
                "velocity": 51,
                "duration": 42.8818182,
                "tempo": 120.0
            },
            {
                "start_time": 63.1454545,
                "end_time": 63.2590909,
                "pitch": 64,
                "velocity": 51,
                "duration": 0.1136364,
                "tempo": 120.0
            },
            {
                "start_time": 63.3090909,
                "end_time": 63.425,
                "pitch": 71,
                "velocity": 51,
                "duration": 0.1159091,
                "tempo": 120.0
            },
            {
                "start_time": 2.1818182,
                "end_time": 63.4772727,
                "pitch": 43,
                "velocity": 51,
                "duration": 61.2954545,
                "tempo": 120.0
            },
            {
                "start_time": 63.4772727,
                "end_time": 63.5931818,
                "pitch": 62,
                "velocity": 51,
                "duration": 0.1159091,
                "tempo": 120.0
            },
            {
                "start_time": 63.3090909,
                "end_time": 63.6431818,
                "pitch": 77,
                "velocity": 51,
                "duration": 0.3340909,
                "tempo": 120.0
            },
            {
                "start_time": 63.6431818,
                "end_time": 63.7590909,
                "pitch": 67,
                "velocity": 51,
                "duration": 0.1159091,
                "tempo": 120.0
            },
            {
                "start_time": 8.1954545,
                "end_time": 63.8113636,
                "pitch": 0,
                "velocity": 51,
                "duration": 55.6159091,
                "tempo": 120.0
            },
            {
                "start_time": 63.8113636,
                "end_time": 63.9272727,
                "pitch": 64,
                "velocity": 51,
                "duration": 0.1159091,
                "tempo": 120.0
            },
            {
                "start_time": 63.9772727,
                "end_time": 64.0931818,
                "pitch": 64,
                "velocity": 51,
                "duration": 0.1159091,
                "tempo": 120.0
            },
            {
                "start_time": 62.9818182,
                "end_time": 64.1431818,
                "pitch": 78,
                "velocity": 51,
                "duration": 1.1613636,
                "tempo": 120.0
            },
            {
                "start_time": 64.1431818,
                "end_time": 64.2613636,
                "pitch": 67,
                "velocity": 51,
                "duration": 0.1181818,
                "tempo": 120.0
            },
            {
                "start_time": 64.3113636,
                "end_time": 64.4295455,
                "pitch": 67,
                "velocity": 51,
                "duration": 0.1181818,
                "tempo": 120.0
            },
            {
                "start_time": 64.4818182,
                "end_time": 64.6,
                "pitch": 71,
                "velocity": 51,
                "duration": 0.1181818,
                "tempo": 120.0
            },
            {
                "start_time": 16.5818182,
                "end_time": 64.6522727,
                "pitch": 55,
                "velocity": 51,
                "duration": 48.0704545,
                "tempo": 120.0
            },
            {
                "start_time": 64.6522727,
                "end_time": 64.7727273,
                "pitch": 72,
                "velocity": 51,
                "duration": 0.1204545,
                "tempo": 120.0
            },
            {
                "start_time": 28.8,
                "end_time": 64.9386364,
                "pitch": 74,
                "velocity": 51,
                "duration": 36.1386364,
                "tempo": 120.0
            },
            {
                "start_time": 64.825,
                "end_time": 64.9386364,
                "pitch": 74,
                "velocity": 51,
                "duration": 0.1136364,
                "tempo": 120.0
            },
            {
                "start_time": 25.7863636,
                "end_time": 65.1840909,
                "pitch": 76,
                "velocity": 51,
                "duration": 39.3977273,
                "tempo": 120.0
            },
            {
                "start_time": 64.9886364,
                "end_time": 65.1840909,
                "pitch": 76,
                "velocity": 51,
                "duration": 0.1954545,
                "tempo": 120.0
            },
            {
                "start_time": 64.9886364,
                "end_time": 65.4318182,
                "pitch": 74,
                "velocity": 51,
                "duration": 0.4431818,
                "tempo": 120.0
            },
            {
                "start_time": 65.2340909,
                "end_time": 65.4318182,
                "pitch": 74,
                "velocity": 51,
                "duration": 0.1977273,
                "tempo": 120.0
            },
            {
                "start_time": 63.6431818,
                "end_time": 65.4840909,
                "pitch": 77,
                "velocity": 51,
                "duration": 1.8409091,
                "tempo": 120.0
            },
            {
                "start_time": 64.4818182,
                "end_time": 68.2090909,
                "pitch": 69,
                "velocity": 51,
                "duration": 3.7272727,
                "tempo": 120.0
            },
            {
                "start_time": 65.4840909,
                "end_time": 68.2090909,
                "pitch": 69,
                "velocity": 51,
                "duration": 2.725,
                "tempo": 120.0
            },
            {
                "start_time": 63.4772727,
                "end_time": 68.2590909,
                "pitch": 43,
                "velocity": 51,
                "duration": 4.7818182,
                "tempo": 120.0
            },
            {
                "start_time": 65.2340909,
                "end_time": 68.4613636,
                "pitch": 76,
                "velocity": 51,
                "duration": 3.2272727,
                "tempo": 120.0
            },
            {
                "start_time": 68.2590909,
                "end_time": 68.4613636,
                "pitch": 76,
                "velocity": 51,
                "duration": 0.2022727,
                "tempo": 120.0
            },
            {
                "start_time": 68.7568182,
                "end_time": 69.2136364,
                "pitch": 76,
                "velocity": 51,
                "duration": 0.4568182,
                "tempo": 120.0
            },
            {
                "start_time": 69.2659091,
                "end_time": 69.7181818,
                "pitch": 74,
                "velocity": 51,
                "duration": 0.4522727,
                "tempo": 120.0
            },
            {
                "start_time": 65.4840909,
                "end_time": 69.7681818,
                "pitch": 77,
                "velocity": 51,
                "duration": 4.2840909,
                "tempo": 120.0
            },
            {
                "start_time": 69.7681818,
                "end_time": 70.2136364,
                "pitch": 69,
                "velocity": 51,
                "duration": 0.4454545,
                "tempo": 120.0
            },
            {
                "start_time": 64.825,
                "end_time": 70.4613636,
                "pitch": 72,
                "velocity": 51,
                "duration": 5.6363636,
                "tempo": 120.0
            },
            {
                "start_time": 70.2636364,
                "end_time": 70.4613636,
                "pitch": 72,
                "velocity": 51,
                "duration": 0.1977273,
                "tempo": 120.0
            },
            {
                "start_time": 69.2659091,
                "end_time": 70.5113636,
                "pitch": 76,
                "velocity": 51,
                "duration": 1.2454545,
                "tempo": 120.0
            },
            {
                "start_time": 70.5113636,
                "end_time": 70.7113636,
                "pitch": 71,
                "velocity": 51,
                "duration": 0.2,
                "tempo": 120.0
            },
            {
                "start_time": 63.8113636,
                "end_time": 71.3977273,
                "pitch": 0,
                "velocity": 51,
                "duration": 7.5863636,
                "tempo": 120.0
            },
            {
                "start_time": 70.7613636,
                "end_time": 71.3977273,
                "pitch": 67,
                "velocity": 51,
                "duration": 0.6363636,
                "tempo": 120.0
            },
            {
                "start_time": 71.3977273,
                "end_time": 71.4477273,
                "pitch": 67,
                "velocity": 51,
                "duration": 0.05,
                "tempo": 120.0
            },
            {
                "start_time": 8.0431818,
                "end_time": 71.4477273,
                "pitch": 79,
                "velocity": 51,
                "duration": 63.4045455,
                "tempo": 120.0
            },
            {
                "start_time": 71.3977273,
                "end_time": 71.5340909,
                "pitch": 0,
                "velocity": 51,
                "duration": 0.1363636,
                "tempo": 120.0
            },
            {
                "start_time": 71.4477273,
                "end_time": 71.5340909,
                "pitch": 67,
                "velocity": 51,
                "duration": 0.0863636,
                "tempo": 120.0
            },
            {
                "start_time": 71.5340909,
                "end_time": 71.5863636,
                "pitch": 67,
                "velocity": 51,
                "duration": 0.0522727,
                "tempo": 120.0
            },
            {
                "start_time": 71.4477273,
                "end_time": 71.5863636,
                "pitch": 79,
                "velocity": 51,
                "duration": 0.1386364,
                "tempo": 120.0
            },
            {
                "start_time": 71.5340909,
                "end_time": 71.6704545,
                "pitch": 0,
                "velocity": 51,
                "duration": 0.1363636,
                "tempo": 120.0
            },
            {
                "start_time": 71.5863636,
                "end_time": 71.6704545,
                "pitch": 67,
                "velocity": 51,
                "duration": 0.0840909,
                "tempo": 120.0
            },
            {
                "start_time": 71.6704545,
                "end_time": 71.7227273,
                "pitch": 67,
                "velocity": 51,
                "duration": 0.0522727,
                "tempo": 120.0
            },
            {
                "start_time": 71.5863636,
                "end_time": 71.7227273,
                "pitch": 79,
                "velocity": 51,
                "duration": 0.1363636,
                "tempo": 120.0
            },
            {
                "start_time": 71.6704545,
                "end_time": 71.8090909,
                "pitch": 0,
                "velocity": 51,
                "duration": 0.1386364,
                "tempo": 120.0
            },
            {
                "start_time": 71.7227273,
                "end_time": 71.8090909,
                "pitch": 67,
                "velocity": 51,
                "duration": 0.0863636,
                "tempo": 120.0
            },
            {
                "start_time": 71.8090909,
                "end_time": 71.8590909,
                "pitch": 67,
                "velocity": 51,
                "duration": 0.05,
                "tempo": 120.0
            },
            {
                "start_time": 71.7227273,
                "end_time": 71.8590909,
                "pitch": 79,
                "velocity": 51,
                "duration": 0.1363636,
                "tempo": 120.0
            },
            {
                "start_time": 71.8090909,
                "end_time": 71.9431818,
                "pitch": 0,
                "velocity": 51,
                "duration": 0.1340909,
                "tempo": 120.0
            },
            {
                "start_time": 71.8590909,
                "end_time": 71.9431818,
                "pitch": 67,
                "velocity": 51,
                "duration": 0.0840909,
                "tempo": 120.0
            },
            {
                "start_time": 71.9431818,
                "end_time": 71.9931818,
                "pitch": 67,
                "velocity": 51,
                "duration": 0.05,
                "tempo": 120.0
            },
            {
                "start_time": 71.8590909,
                "end_time": 71.9931818,
                "pitch": 79,
                "velocity": 51,
                "duration": 0.1340909,
                "tempo": 120.0
            },
            {
                "start_time": 71.9431818,
                "end_time": 72.0772727,
                "pitch": 0,
                "velocity": 51,
                "duration": 0.1340909,
                "tempo": 120.0
            },
            {
                "start_time": 71.9931818,
                "end_time": 72.0772727,
                "pitch": 67,
                "velocity": 51,
                "duration": 0.0840909,
                "tempo": 120.0
            },
            {
                "start_time": 72.0772727,
                "end_time": 72.1272727,
                "pitch": 67,
                "velocity": 51,
                "duration": 0.05,
                "tempo": 120.0
            },
            {
                "start_time": 71.9931818,
                "end_time": 72.1272727,
                "pitch": 79,
                "velocity": 51,
                "duration": 0.1340909,
                "tempo": 120.0
            },
            {
                "start_time": 72.0772727,
                "end_time": 72.2113636,
                "pitch": 0,
                "velocity": 51,
                "duration": 0.1340909,
                "tempo": 120.0
            },
            {
                "start_time": 72.1272727,
                "end_time": 72.2113636,
                "pitch": 67,
                "velocity": 51,
                "duration": 0.0840909,
                "tempo": 120.0
            },
            {
                "start_time": 72.2113636,
                "end_time": 72.2613636,
                "pitch": 67,
                "velocity": 51,
                "duration": 0.05,
                "tempo": 120.0
            },
            {
                "start_time": 72.1272727,
                "end_time": 72.2613636,
                "pitch": 79,
                "velocity": 51,
                "duration": 0.1340909,
                "tempo": 120.0
            },
            {
                "start_time": 72.2613636,
                "end_time": 72.3113636,
                "pitch": 67,
                "velocity": 51,
                "duration": 0.05,
                "tempo": 120.0
            },
            {
                "start_time": 72.2113636,
                "end_time": 72.525,
                "pitch": 0,
                "velocity": 51,
                "duration": 0.3136364,
                "tempo": 120.0
            },
            {
                "start_time": 17.5818182,
                "end_time": 72.6386364,
                "pitch": 60,
                "velocity": 51,
                "duration": 55.0568182,
                "tempo": 120.0
            },
            {
                "start_time": 72.525,
                "end_time": 72.6386364,
                "pitch": 60,
                "velocity": 51,
                "duration": 0.1136364,
                "tempo": 120.0
            },
            {
                "start_time": 72.6886364,
                "end_time": 72.8045455,
                "pitch": 64,
                "velocity": 51,
                "duration": 0.1159091,
                "tempo": 120.0
            }
        ],
        "Clarinet": [
            {
                "start_time": 32.6409091,
                "end_time": 33.3363636,
                "pitch": 67,
                "velocity": 64,
                "duration": 0.6954545,
                "tempo": 120.0
            },
            {
                "start_time": 33.3363636,
                "end_time": 33.3704545,
                "pitch": 67,
                "velocity": 64,
                "duration": 0.0340909,
                "tempo": 120.0
            },
            {
                "start_time": 33.4045455,
                "end_time": 33.6204545,
                "pitch": 71,
                "velocity": 64,
                "duration": 0.2159091,
                "tempo": 120.0
            },
            {
                "start_time": 33.4045455,
                "end_time": 34.3409091,
                "pitch": 67,
                "velocity": 64,
                "duration": 0.9363636,
                "tempo": 120.0
            },
            {
                "start_time": 33.6545455,
                "end_time": 34.3409091,
                "pitch": 67,
                "velocity": 64,
                "duration": 0.6863636,
                "tempo": 120.0
            },
            {
                "start_time": 33.3363636,
                "end_time": 34.3409091,
                "pitch": 79,
                "velocity": 64,
                "duration": 1.0045455,
                "tempo": 120.0
            },
            {
                "start_time": 34.3409091,
                "end_time": 34.3772727,
                "pitch": 67,
                "velocity": 64,
                "duration": 0.0363636,
                "tempo": 120.0
            },
            {
                "start_time": 33.6545455,
                "end_time": 34.6318182,
                "pitch": 71,
                "velocity": 64,
                "duration": 0.9772727,
                "tempo": 120.0
            },
            {
                "start_time": 34.4113636,
                "end_time": 34.6318182,
                "pitch": 71,
                "velocity": 64,
                "duration": 0.2204545,
                "tempo": 120.0
            },
            {
                "start_time": 34.6681818,
                "end_time": 35.8818182,
                "pitch": 64,
                "velocity": 64,
                "duration": 1.2136364,
                "tempo": 120.0
            },
            {
                "start_time": 35.9181818,
                "end_time": 36.1386364,
                "pitch": 60,
                "velocity": 64,
                "duration": 0.2204545,
                "tempo": 120.0
            },
            {
                "start_time": 35.9181818,
                "end_time": 36.3863636,
                "pitch": 64,
                "velocity": 64,
                "duration": 0.4681818,
                "tempo": 120.0
            },
            {
                "start_time": 36.175,
                "end_time": 36.3863636,
                "pitch": 64,
                "velocity": 64,
                "duration": 0.2113636,
                "tempo": 120.0
            },
            {
                "start_time": 36.4204545,
                "end_time": 37.9022727,
                "pitch": 69,
                "velocity": 64,
                "duration": 1.4818182,
                "tempo": 120.0
            },
            {
                "start_time": 36.175,
                "end_time": 38.1477273,
                "pitch": 60,
                "velocity": 64,
                "duration": 1.9727273,
                "tempo": 120.0
            },
            {
                "start_time": 37.9363636,
                "end_time": 38.1477273,
                "pitch": 60,
                "velocity": 64,
                "duration": 0.2113636,
                "tempo": 120.0
            },
            {
                "start_time": 38.1818182,
                "end_time": 38.3977273,
                "pitch": 66,
                "velocity": 64,
                "duration": 0.2159091,
                "tempo": 120.0
            },
            {
                "start_time": 38.4318182,
                "end_time": 39.0659091,
                "pitch": 66,
                "velocity": 64,
                "duration": 0.6340909,
                "tempo": 120.0
            },
            {
                "start_time": 39.0659091,
                "end_time": 39.4,
                "pitch": 64,
                "velocity": 64,
                "duration": 0.3340909,
                "tempo": 120.0
            },
            {
                "start_time": 39.4340909,
                "end_time": 39.65,
                "pitch": 64,
                "velocity": 64,
                "duration": 0.2159091,
                "tempo": 120.0
            },
            {
                "start_time": 39.6840909,
                "end_time": 40.6636364,
                "pitch": 62,
                "velocity": 64,
                "duration": 0.9795455,
                "tempo": 120.0
            },
            {
                "start_time": 34.4113636,
                "end_time": 41.3727273,
                "pitch": 67,
                "velocity": 64,
                "duration": 6.9613636,
                "tempo": 120.0
            },
            {
                "start_time": 40.6977273,
                "end_time": 41.3727273,
                "pitch": 67,
                "velocity": 64,
                "duration": 0.675,
                "tempo": 120.0
            },
            {
                "start_time": 34.3409091,
                "end_time": 41.3727273,
                "pitch": 79,
                "velocity": 64,
                "duration": 7.0318182,
                "tempo": 120.0
            },
            {
                "start_time": 41.3727273,
                "end_time": 41.4068182,
                "pitch": 67,
                "velocity": 64,
                "duration": 0.0340909,
                "tempo": 120.0
            },
            {
                "start_time": 41.4409091,
                "end_time": 41.6568182,
                "pitch": 71,
                "velocity": 64,
                "duration": 0.2159091,
                "tempo": 120.0
            },
            {
                "start_time": 41.6909091,
                "end_time": 42.4136364,
                "pitch": 68,
                "velocity": 64,
                "duration": 0.7227273,
                "tempo": 120.0
            },
            {
                "start_time": 42.4477273,
                "end_time": 42.6704545,
                "pitch": 68,
                "velocity": 64,
                "duration": 0.2227273,
                "tempo": 120.0
            },
            {
                "start_time": 42.7045455,
                "end_time": 43.1727273,
                "pitch": 68,
                "velocity": 64,
                "duration": 0.4681818,
                "tempo": 120.0
            },
            {
                "start_time": 39.6840909,
                "end_time": 43.6659091,
                "pitch": 65,
                "velocity": 64,
                "duration": 3.9818182,
                "tempo": 120.0
            },
            {
                "start_time": 43.2045455,
                "end_time": 43.6659091,
                "pitch": 65,
                "velocity": 64,
                "duration": 0.4613636,
                "tempo": 120.0
            },
            {
                "start_time": 36.4204545,
                "end_time": 43.6977273,
                "pitch": 78,
                "velocity": 64,
                "duration": 7.2772727,
                "tempo": 120.0
            },
            {
                "start_time": 43.6977273,
                "end_time": 43.9204545,
                "pitch": 69,
                "velocity": 64,
                "duration": 0.2227273,
                "tempo": 120.0
            },
            {
                "start_time": 37.9363636,
                "end_time": 43.9545455,
                "pitch": 31,
                "velocity": 64,
                "duration": 6.0181818,
                "tempo": 120.0
            },
            {
                "start_time": 38.1818182,
                "end_time": 44.1772727,
                "pitch": 60,
                "velocity": 64,
                "duration": 5.9954545,
                "tempo": 120.0
            },
            {
                "start_time": 43.9545455,
                "end_time": 44.1772727,
                "pitch": 60,
                "velocity": 64,
                "duration": 0.2227273,
                "tempo": 120.0
            },
            {
                "start_time": 44.2113636,
                "end_time": 44.4272727,
                "pitch": 64,
                "velocity": 64,
                "duration": 0.2159091,
                "tempo": 120.0
            },
            {
                "start_time": 43.6977273,
                "end_time": 44.4613636,
                "pitch": 78,
                "velocity": 64,
                "duration": 0.7636364,
                "tempo": 120.0
            },
            {
                "start_time": 44.4613636,
                "end_time": 44.6772727,
                "pitch": 69,
                "velocity": 64,
                "duration": 0.2159091,
                "tempo": 120.0
            },
            {
                "start_time": 43.9545455,
                "end_time": 44.7113636,
                "pitch": 31,
                "velocity": 64,
                "duration": 0.7568182,
                "tempo": 120.0
            },
            {
                "start_time": 44.7113636,
                "end_time": 45.4295455,
                "pitch": 63,
                "velocity": 64,
                "duration": 0.7181818,
                "tempo": 120.0
            },
            {
                "start_time": 40.6977273,
                "end_time": 45.4636364,
                "pitch": 77,
                "velocity": 64,
                "duration": 4.7659091,
                "tempo": 120.0
            },
            {
                "start_time": 45.4636364,
                "end_time": 45.9295455,
                "pitch": 68,
                "velocity": 64,
                "duration": 0.4659091,
                "tempo": 120.0
            },
            {
                "start_time": 45.9636364,
                "end_time": 46.1795455,
                "pitch": 68,
                "velocity": 64,
                "duration": 0.2159091,
                "tempo": 120.0
            },
            {
                "start_time": 46.2136364,
                "end_time": 46.4318182,
                "pitch": 70,
                "velocity": 64,
                "duration": 0.2181818,
                "tempo": 120.0
            },
            {
                "start_time": 46.4659091,
                "end_time": 46.6818182,
                "pitch": 68,
                "velocity": 64,
                "duration": 0.2159091,
                "tempo": 120.0
            },
            {
                "start_time": 43.2045455,
                "end_time": 46.7159091,
                "pitch": 38,
                "velocity": 64,
                "duration": 3.5113636,
                "tempo": 120.0
            },
            {
                "start_time": 46.7159091,
                "end_time": 48.6954545,
                "pitch": 64,
                "velocity": 64,
                "duration": 1.9795455,
                "tempo": 120.0
            },
            {
                "start_time": 45.4636364,
                "end_time": 48.9863636,
                "pitch": 77,
                "velocity": 64,
                "duration": 3.5227273,
                "tempo": 120.0
            },
            {
                "start_time": 48.9863636,
                "end_time": 50.2136364,
                "pitch": 69,
                "velocity": 40,
                "duration": 1.2272727,
                "tempo": 120.0
            },
            {
                "start_time": 44.7113636,
                "end_time": 50.25,
                "pitch": 31,
                "velocity": 64,
                "duration": 5.5386364,
                "tempo": 120.0
            },
            {
                "start_time": 50.25,
                "end_time": 50.4636364,
                "pitch": 64,
                "velocity": 40,
                "duration": 0.2136364,
                "tempo": 120.0
            },
            {
                "start_time": 48.9863636,
                "end_time": 50.4954545,
                "pitch": 77,
                "velocity": 40,
                "duration": 1.5090909,
                "tempo": 120.0
            },
            {
                "start_time": 50.4954545,
                "end_time": 50.7090909,
                "pitch": 69,
                "velocity": 40,
                "duration": 0.2136364,
                "tempo": 120.0
            },
            {
                "start_time": 50.7431818,
                "end_time": 50.9590909,
                "pitch": 72,
                "velocity": 40,
                "duration": 0.2159091,
                "tempo": 120.0
            },
            {
                "start_time": 50.9931818,
                "end_time": 51.7272727,
                "pitch": 74,
                "velocity": 40,
                "duration": 0.7340909,
                "tempo": 120.0
            },
            {
                "start_time": 50.4954545,
                "end_time": 51.7636364,
                "pitch": 77,
                "velocity": 40,
                "duration": 1.2681818,
                "tempo": 120.0
            },
            {
                "start_time": 51.7636364,
                "end_time": 51.975,
                "pitch": 69,
                "velocity": 40,
                "duration": 0.2113636,
                "tempo": 120.0
            },
            {
                "start_time": 52.0068182,
                "end_time": 52.4659091,
                "pitch": 65,
                "velocity": 40,
                "duration": 0.4590909,
                "tempo": 120.0
            },
            {
                "start_time": 52.5,
                "end_time": 52.9659091,
                "pitch": 62,
                "velocity": 40,
                "duration": 0.4659091,
                "tempo": 120.0
            },
            {
                "start_time": 51.7636364,
                "end_time": 53.0,
                "pitch": 77,
                "velocity": 40,
                "duration": 1.2363636,
                "tempo": 120.0
            },
            {
                "start_time": 41.4409091,
                "end_time": 53.65,
                "pitch": 67,
                "velocity": 64,
                "duration": 12.2090909,
                "tempo": 120.0
            },
            {
                "start_time": 53.0,
                "end_time": 53.65,
                "pitch": 67,
                "velocity": 40,
                "duration": 0.65,
                "tempo": 120.0
            },
            {
                "start_time": 53.65,
                "end_time": 53.7022727,
                "pitch": 67,
                "velocity": 40,
                "duration": 0.0522727,
                "tempo": 120.0
            },
            {
                "start_time": 41.3727273,
                "end_time": 53.7022727,
                "pitch": 79,
                "velocity": 64,
                "duration": 12.3295455,
                "tempo": 120.0
            },
            {
                "start_time": 53.65,
                "end_time": 53.7886364,
                "pitch": 0,
                "velocity": 40,
                "duration": 0.1386364,
                "tempo": 120.0
            },
            {
                "start_time": 53.7022727,
                "end_time": 53.7886364,
                "pitch": 67,
                "velocity": 40,
                "duration": 0.0863636,
                "tempo": 120.0
            },
            {
                "start_time": 53.7886364,
                "end_time": 53.8386364,
                "pitch": 67,
                "velocity": 40,
                "duration": 0.05,
                "tempo": 120.0
            },
            {
                "start_time": 53.7022727,
                "end_time": 53.8386364,
                "pitch": 79,
                "velocity": 40,
                "duration": 0.1363636,
                "tempo": 120.0
            },
            {
                "start_time": 53.7886364,
                "end_time": 53.9204545,
                "pitch": 0,
                "velocity": 40,
                "duration": 0.1318182,
                "tempo": 120.0
            },
            {
                "start_time": 53.8386364,
                "end_time": 53.9204545,
                "pitch": 67,
                "velocity": 40,
                "duration": 0.0818182,
                "tempo": 120.0
            },
            {
                "start_time": 53.9204545,
                "end_time": 53.9704545,
                "pitch": 67,
                "velocity": 40,
                "duration": 0.05,
                "tempo": 120.0
            },
            {
                "start_time": 53.8386364,
                "end_time": 53.9704545,
                "pitch": 79,
                "velocity": 40,
                "duration": 0.1318182,
                "tempo": 120.0
            },
            {
                "start_time": 53.9204545,
                "end_time": 54.0522727,
                "pitch": 0,
                "velocity": 40,
                "duration": 0.1318182,
                "tempo": 120.0
            },
            {
                "start_time": 53.9704545,
                "end_time": 54.0522727,
                "pitch": 67,
                "velocity": 40,
                "duration": 0.0818182,
                "tempo": 120.0
            },
            {
                "start_time": 54.0522727,
                "end_time": 54.1,
                "pitch": 67,
                "velocity": 40,
                "duration": 0.0477273,
                "tempo": 120.0
            },
            {
                "start_time": 53.9704545,
                "end_time": 54.1,
                "pitch": 79,
                "velocity": 40,
                "duration": 0.1295455,
                "tempo": 120.0
            },
            {
                "start_time": 54.0522727,
                "end_time": 54.1818182,
                "pitch": 0,
                "velocity": 40,
                "duration": 0.1295455,
                "tempo": 120.0
            },
            {
                "start_time": 54.1,
                "end_time": 54.1818182,
                "pitch": 67,
                "velocity": 40,
                "duration": 0.0818182,
                "tempo": 120.0
            },
            {
                "start_time": 54.1818182,
                "end_time": 54.2318182,
                "pitch": 67,
                "velocity": 40,
                "duration": 0.05,
                "tempo": 120.0
            },
            {
                "start_time": 53.0,
                "end_time": 54.5113636,
                "pitch": 77,
                "velocity": 40,
                "duration": 1.5113636,
                "tempo": 120.0
            },
            {
                "start_time": 54.5113636,
                "end_time": 54.725,
                "pitch": 67,
                "velocity": 40,
                "duration": 0.2136364,
                "tempo": 120.0
            },
            {
                "start_time": 41.6909091,
                "end_time": 54.9727273,
                "pitch": 71,
                "velocity": 64,
                "duration": 13.2818182,
                "tempo": 120.0
            },
            {
                "start_time": 54.7568182,
                "end_time": 54.9727273,
                "pitch": 71,
                "velocity": 40,
                "duration": 0.2159091,
                "tempo": 120.0
            },
            {
                "start_time": 50.9931818,
                "end_time": 55.9886364,
                "pitch": 72,
                "velocity": 40,
                "duration": 4.9954545,
                "tempo": 120.0
            },
            {
                "start_time": 55.0068182,
                "end_time": 55.9886364,
                "pitch": 72,
                "velocity": 40,
                "duration": 0.9818182,
                "tempo": 120.0
            },
            {
                "start_time": 32.6409091,
                "end_time": 56.0227273,
                "pitch": 76,
                "velocity": 64,
                "duration": 23.3818182,
                "tempo": 120.0
            },
            {
                "start_time": 56.0227273,
                "end_time": 56.4795455,
                "pitch": 71,
                "velocity": 40,
                "duration": 0.4568182,
                "tempo": 120.0
            },
            {
                "start_time": 56.5136364,
                "end_time": 56.7318182,
                "pitch": 64,
                "velocity": 40,
                "duration": 0.2181818,
                "tempo": 120.0
            },
            {
                "start_time": 56.7659091,
                "end_time": 58.0136364,
                "pitch": 64,
                "velocity": 64,
                "duration": 1.2477273,
                "tempo": 120.0
            },
            {
                "start_time": 44.2113636,
                "end_time": 58.2704545,
                "pitch": 60,
                "velocity": 64,
                "duration": 14.0590909,
                "tempo": 120.0
            },
            {
                "start_time": 58.0477273,
                "end_time": 58.2704545,
                "pitch": 60,
                "velocity": 64,
                "duration": 0.2227273,
                "tempo": 120.0
            },
            {
                "start_time": 58.0477273,
                "end_time": 58.5159091,
                "pitch": 64,
                "velocity": 64,
                "duration": 0.4681818,
                "tempo": 120.0
            },
            {
                "start_time": 58.3045455,
                "end_time": 58.5159091,
                "pitch": 64,
                "velocity": 64,
                "duration": 0.2113636,
                "tempo": 120.0
            },
            {
                "start_time": 44.4613636,
                "end_time": 58.5477273,
                "pitch": 78,
                "velocity": 64,
                "duration": 14.0863636,
                "tempo": 120.0
            },
            {
                "start_time": 58.5477273,
                "end_time": 58.7568182,
                "pitch": 69,
                "velocity": 64,
                "duration": 0.2090909,
                "tempo": 120.0
            },
            {
                "start_time": 58.7909091,
                "end_time": 59.5159091,
                "pitch": 69,
                "velocity": 64,
                "duration": 0.725,
                "tempo": 120.0
            },
            {
                "start_time": 52.5,
                "end_time": 59.775,
                "pitch": 65,
                "velocity": 40,
                "duration": 7.275,
                "tempo": 120.0
            },
            {
                "start_time": 59.55,
                "end_time": 59.775,
                "pitch": 65,
                "velocity": 64,
                "duration": 0.225,
                "tempo": 120.0
            },
            {
                "start_time": 59.8113636,
                "end_time": 60.2636364,
                "pitch": 62,
                "velocity": 64,
                "duration": 0.4522727,
                "tempo": 120.0
            },
            {
                "start_time": 59.8113636,
                "end_time": 60.7636364,
                "pitch": 65,
                "velocity": 64,
                "duration": 0.9522727,
                "tempo": 120.0
            },
            {
                "start_time": 60.2977273,
                "end_time": 60.7636364,
                "pitch": 65,
                "velocity": 64,
                "duration": 0.4659091,
                "tempo": 120.0
            },
            {
                "start_time": 54.5113636,
                "end_time": 60.7977273,
                "pitch": 77,
                "velocity": 40,
                "duration": 6.2863636,
                "tempo": 120.0
            },
            {
                "start_time": 60.7977273,
                "end_time": 61.7840909,
                "pitch": 74,
                "velocity": 64,
                "duration": 0.9863636,
                "tempo": 120.0
            },
            {
                "start_time": 61.8181818,
                "end_time": 62.7818182,
                "pitch": 74,
                "velocity": 64,
                "duration": 0.9636364,
                "tempo": 120.0
            }
        ],
        "Acoustic Bass": [
            {
                "start_time": 0.5,
                "end_time": 0.9840909,
                "pitch": 36,
                "velocity": 64,
                "duration": 0.4840909,
                "tempo": 120.0
            },
            {
                "start_time": 1.0,
                "end_time": 1.4840909,
                "pitch": 36,
                "velocity": 64,
                "duration": 0.4840909,
                "tempo": 120.0
            },
            {
                "start_time": 1.5022727,
                "end_time": 1.9954545,
                "pitch": 35,
                "velocity": 64,
                "duration": 0.4931818,
                "tempo": 120.0
            },
            {
                "start_time": 2.0136364,
                "end_time": 2.4977273,
                "pitch": 35,
                "velocity": 64,
                "duration": 0.4840909,
                "tempo": 120.0
            },
            {
                "start_time": 2.5159091,
                "end_time": 2.9977273,
                "pitch": 33,
                "velocity": 64,
                "duration": 0.4818182,
                "tempo": 120.0
            },
            {
                "start_time": 3.0159091,
                "end_time": 3.5,
                "pitch": 33,
                "velocity": 64,
                "duration": 0.4840909,
                "tempo": 120.0
            },
            {
                "start_time": 3.5159091,
                "end_time": 4.0,
                "pitch": 33,
                "velocity": 64,
                "duration": 0.4840909,
                "tempo": 120.0
            },
            {
                "start_time": 4.0181818,
                "end_time": 4.5,
                "pitch": 31,
                "velocity": 64,
                "duration": 0.4818182,
                "tempo": 120.0
            },
            {
                "start_time": 0.5,
                "end_time": 4.5181818,
                "pitch": 0,
                "velocity": 64,
                "duration": 4.0181818,
                "tempo": 120.0
            },
            {
                "start_time": 4.5181818,
                "end_time": 5.0022727,
                "pitch": 29,
                "velocity": 64,
                "duration": 0.4840909,
                "tempo": 120.0
            },
            {
                "start_time": 5.0181818,
                "end_time": 5.5022727,
                "pitch": 29,
                "velocity": 64,
                "duration": 0.4840909,
                "tempo": 120.0
            },
            {
                "start_time": 5.5204545,
                "end_time": 6.0022727,
                "pitch": 29,
                "velocity": 64,
                "duration": 0.4818182,
                "tempo": 120.0
            },
            {
                "start_time": 6.0204545,
                "end_time": 6.5159091,
                "pitch": 30,
                "velocity": 64,
                "duration": 0.4954545,
                "tempo": 120.0
            },
            {
                "start_time": 6.5340909,
                "end_time": 7.0159091,
                "pitch": 31,
                "velocity": 64,
                "duration": 0.4818182,
                "tempo": 120.0
            },
            {
                "start_time": 7.0340909,
                "end_time": 7.5113636,
                "pitch": 31,
                "velocity": 64,
                "duration": 0.4772727,
                "tempo": 120.0
            },
            {
                "start_time": 7.5272727,
                "end_time": 8.0113636,
                "pitch": 31,
                "velocity": 64,
                "duration": 0.4840909,
                "tempo": 120.0
            },
            {
                "start_time": 8.0272727,
                "end_time": 8.5113636,
                "pitch": 31,
                "velocity": 64,
                "duration": 0.4840909,
                "tempo": 120.0
            },
            {
                "start_time": 4.5181818,
                "end_time": 8.5295455,
                "pitch": 0,
                "velocity": 64,
                "duration": 4.0113636,
                "tempo": 120.0
            },
            {
                "start_time": 8.5295455,
                "end_time": 9.0227273,
                "pitch": 38,
                "velocity": 64,
                "duration": 0.4931818,
                "tempo": 120.0
            },
            {
                "start_time": 9.0409091,
                "end_time": 9.5181818,
                "pitch": 38,
                "velocity": 64,
                "duration": 0.4772727,
                "tempo": 120.0
            },
            {
                "start_time": 9.5340909,
                "end_time": 10.0295455,
                "pitch": 38,
                "velocity": 64,
                "duration": 0.4954545,
                "tempo": 120.0
            },
            {
                "start_time": 10.0477273,
                "end_time": 10.5295455,
                "pitch": 38,
                "velocity": 64,
                "duration": 0.4818182,
                "tempo": 120.0
            },
            {
                "start_time": 10.5477273,
                "end_time": 11.0318182,
                "pitch": 31,
                "velocity": 64,
                "duration": 0.4840909,
                "tempo": 120.0
            },
            {
                "start_time": 11.0477273,
                "end_time": 11.5318182,
                "pitch": 31,
                "velocity": 64,
                "duration": 0.4840909,
                "tempo": 120.0
            },
            {
                "start_time": 8.5295455,
                "end_time": 11.55,
                "pitch": 0,
                "velocity": 64,
                "duration": 3.0204545,
                "tempo": 120.0
            },
            {
                "start_time": 11.55,
                "end_time": 12.0454545,
                "pitch": 29,
                "velocity": 64,
                "duration": 0.4954545,
                "tempo": 120.0
            },
            {
                "start_time": 12.0613636,
                "end_time": 12.5386364,
                "pitch": 29,
                "velocity": 64,
                "duration": 0.4772727,
                "tempo": 120.0
            },
            {
                "start_time": 12.5545455,
                "end_time": 13.05,
                "pitch": 29,
                "velocity": 64,
                "duration": 0.4954545,
                "tempo": 120.0
            },
            {
                "start_time": 13.0681818,
                "end_time": 13.5431818,
                "pitch": 28,
                "velocity": 64,
                "duration": 0.475,
                "tempo": 120.0
            },
            {
                "start_time": 13.5613636,
                "end_time": 14.0545455,
                "pitch": 28,
                "velocity": 64,
                "duration": 0.4931818,
                "tempo": 120.0
            },
            {
                "start_time": 14.0727273,
                "end_time": 14.55,
                "pitch": 28,
                "velocity": 64,
                "duration": 0.4772727,
                "tempo": 120.0
            },
            {
                "start_time": 6.5340909,
                "end_time": 14.5659091,
                "pitch": 42,
                "velocity": 64,
                "duration": 8.0318182,
                "tempo": 120.0
            },
            {
                "start_time": 14.5659091,
                "end_time": 15.0613636,
                "pitch": 33,
                "velocity": 64,
                "duration": 0.4954545,
                "tempo": 120.0
            },
            {
                "start_time": 15.0795455,
                "end_time": 15.5636364,
                "pitch": 33,
                "velocity": 64,
                "duration": 0.4840909,
                "tempo": 120.0
            },
            {
                "start_time": 15.5795455,
                "end_time": 16.0636364,
                "pitch": 33,
                "velocity": 64,
                "duration": 0.4840909,
                "tempo": 120.0
            },
            {
                "start_time": 16.0818182,
                "end_time": 16.5636364,
                "pitch": 31,
                "velocity": 64,
                "duration": 0.4818182,
                "tempo": 120.0
            },
            {
                "start_time": 11.55,
                "end_time": 16.5818182,
                "pitch": 0,
                "velocity": 64,
                "duration": 5.0318182,
                "tempo": 120.0
            },
            {
                "start_time": 16.5818182,
                "end_time": 17.0659091,
                "pitch": 29,
                "velocity": 64,
                "duration": 0.4840909,
                "tempo": 120.0
            },
            {
                "start_time": 17.0818182,
                "end_time": 17.5659091,
                "pitch": 29,
                "velocity": 64,
                "duration": 0.4840909,
                "tempo": 120.0
            },
            {
                "start_time": 17.5840909,
                "end_time": 18.0659091,
                "pitch": 29,
                "velocity": 64,
                "duration": 0.4818182,
                "tempo": 120.0
            },
            {
                "start_time": 18.0840909,
                "end_time": 18.5659091,
                "pitch": 29,
                "velocity": 64,
                "duration": 0.4818182,
                "tempo": 120.0
            },
            {
                "start_time": 14.5659091,
                "end_time": 18.5840909,
                "pitch": 42,
                "velocity": 64,
                "duration": 4.0181818,
                "tempo": 120.0
            },
            {
                "start_time": 18.5840909,
                "end_time": 19.0681818,
                "pitch": 31,
                "velocity": 64,
                "duration": 0.4840909,
                "tempo": 120.0
            },
            {
                "start_time": 19.0840909,
                "end_time": 19.5681818,
                "pitch": 31,
                "velocity": 64,
                "duration": 0.4840909,
                "tempo": 120.0
            },
            {
                "start_time": 16.5818182,
                "end_time": 19.5863636,
                "pitch": 0,
                "velocity": 64,
                "duration": 3.0045455,
                "tempo": 120.0
            },
            {
                "start_time": 19.5863636,
                "end_time": 20.0818182,
                "pitch": 28,
                "velocity": 64,
                "duration": 0.4954545,
                "tempo": 120.0
            },
            {
                "start_time": 20.0977273,
                "end_time": 20.575,
                "pitch": 28,
                "velocity": 64,
                "duration": 0.4772727,
                "tempo": 120.0
            },
            {
                "start_time": 18.5840909,
                "end_time": 20.5909091,
                "pitch": 42,
                "velocity": 64,
                "duration": 2.0068182,
                "tempo": 120.0
            },
            {
                "start_time": 20.5909091,
                "end_time": 21.0863636,
                "pitch": 33,
                "velocity": 64,
                "duration": 0.4954545,
                "tempo": 120.0
            },
            {
                "start_time": 21.1045455,
                "end_time": 21.5795455,
                "pitch": 33,
                "velocity": 64,
                "duration": 0.475,
                "tempo": 120.0
            },
            {
                "start_time": 21.5977273,
                "end_time": 22.0931818,
                "pitch": 33,
                "velocity": 64,
                "duration": 0.4954545,
                "tempo": 120.0
            },
            {
                "start_time": 22.1090909,
                "end_time": 22.5931818,
                "pitch": 32,
                "velocity": 64,
                "duration": 0.4840909,
                "tempo": 120.0
            },
            {
                "start_time": 22.6113636,
                "end_time": 23.0954545,
                "pitch": 32,
                "velocity": 64,
                "duration": 0.4840909,
                "tempo": 120.0
            },
            {
                "start_time": 23.1113636,
                "end_time": 23.5954545,
                "pitch": 31,
                "velocity": 64,
                "duration": 0.4840909,
                "tempo": 120.0
            },
            {
                "start_time": 19.5863636,
                "end_time": 23.6113636,
                "pitch": 0,
                "velocity": 64,
                "duration": 4.025,
                "tempo": 120.0
            },
            {
                "start_time": 23.6113636,
                "end_time": 24.0954545,
                "pitch": 30,
                "velocity": 64,
                "duration": 0.4840909,
                "tempo": 120.0
            },
            {
                "start_time": 24.1136364,
                "end_time": 24.6068182,
                "pitch": 30,
                "velocity": 64,
                "duration": 0.4931818,
                "tempo": 120.0
            },
            {
                "start_time": 24.625,
                "end_time": 25.1022727,
                "pitch": 30,
                "velocity": 64,
                "duration": 0.4772727,
                "tempo": 120.0
            },
            {
                "start_time": 25.1181818,
                "end_time": 25.6022727,
                "pitch": 29,
                "velocity": 64,
                "duration": 0.4840909,
                "tempo": 120.0
            },
            {
                "start_time": 25.6204545,
                "end_time": 26.1022727,
                "pitch": 29,
                "velocity": 64,
                "duration": 0.4818182,
                "tempo": 120.0
            },
            {
                "start_time": 26.1204545,
                "end_time": 26.6045455,
                "pitch": 29,
                "velocity": 64,
                "duration": 0.4840909,
                "tempo": 120.0
            },
            {
                "start_time": 20.5909091,
                "end_time": 27.1136364,
                "pitch": 42,
                "velocity": 64,
                "duration": 6.5227273,
                "tempo": 120.0
            },
            {
                "start_time": 27.1136364,
                "end_time": 28.1181818,
                "pitch": 31,
                "velocity": 64,
                "duration": 1.0045455,
                "tempo": 120.0
            },
            {
                "start_time": 28.1363636,
                "end_time": 28.6204545,
                "pitch": 31,
                "velocity": 64,
                "duration": 0.4840909,
                "tempo": 120.0
            },
            {
                "start_time": 23.6113636,
                "end_time": 28.6363636,
                "pitch": 0,
                "velocity": 64,
                "duration": 5.025,
                "tempo": 120.0
            },
            {
                "start_time": 28.6363636,
                "end_time": 28.8659091,
                "pitch": 36,
                "velocity": 64,
                "duration": 0.2295455,
                "tempo": 120.0
            },
            {
                "start_time": 29.1295455,
                "end_time": 29.6136364,
                "pitch": 36,
                "velocity": 64,
                "duration": 0.4840909,
                "tempo": 120.0
            },
            {
                "start_time": 1.5022727,
                "end_time": 29.6295455,
                "pitch": 40,
                "velocity": 64,
                "duration": 28.1272727,
                "tempo": 120.0
            },
            {
                "start_time": 29.6295455,
                "end_time": 30.1340909,
                "pitch": 31,
                "velocity": 64,
                "duration": 0.5045455,
                "tempo": 120.0
            },
            {
                "start_time": 28.6363636,
                "end_time": 30.1522727,
                "pitch": 0,
                "velocity": 64,
                "duration": 1.5159091,
                "tempo": 120.0
            },
            {
                "start_time": 30.1522727,
                "end_time": 30.6363636,
                "pitch": 28,
                "velocity": 64,
                "duration": 0.4840909,
                "tempo": 120.0
            },
            {
                "start_time": 29.6295455,
                "end_time": 30.6545455,
                "pitch": 40,
                "velocity": 64,
                "duration": 1.025,
                "tempo": 120.0
            },
            {
                "start_time": 30.6545455,
                "end_time": 31.1363636,
                "pitch": 36,
                "velocity": 64,
                "duration": 0.4818182,
                "tempo": 120.0
            },
            {
                "start_time": 30.6545455,
                "end_time": 32.1386364,
                "pitch": 40,
                "velocity": 64,
                "duration": 1.4840909,
                "tempo": 120.0
            },
            {
                "start_time": 32.1386364,
                "end_time": 32.6227273,
                "pitch": 31,
                "velocity": 64,
                "duration": 0.4840909,
                "tempo": 120.0
            },
            {
                "start_time": 30.1522727,
                "end_time": 32.6409091,
                "pitch": 0,
                "velocity": 64,
                "duration": 2.4886364,
                "tempo": 120.0
            },
            {
                "start_time": 32.6409091,
                "end_time": 33.1340909,
                "pitch": 36,
                "velocity": 64,
                "duration": 0.4931818,
                "tempo": 120.0
            },
            {
                "start_time": 33.1522727,
                "end_time": 33.6363636,
                "pitch": 36,
                "velocity": 64,
                "duration": 0.4840909,
                "tempo": 120.0
            },
            {
                "start_time": 32.1386364,
                "end_time": 33.6545455,
                "pitch": 40,
                "velocity": 64,
                "duration": 1.5159091,
                "tempo": 120.0
            },
            {
                "start_time": 2.5159091,
                "end_time": 34.1363636,
                "pitch": 35,
                "velocity": 64,
                "duration": 31.6204545,
                "tempo": 120.0
            },
            {
                "start_time": 33.6545455,
                "end_time": 34.1363636,
                "pitch": 35,
                "velocity": 64,
                "duration": 0.4818182,
                "tempo": 120.0
            },
            {
                "start_time": 34.1545455,
                "end_time": 34.65,
                "pitch": 35,
                "velocity": 64,
                "duration": 0.4954545,
                "tempo": 120.0
            },
            {
                "start_time": 34.6681818,
                "end_time": 35.1522727,
                "pitch": 33,
                "velocity": 64,
                "duration": 0.4840909,
                "tempo": 120.0
            },
            {
                "start_time": 35.1681818,
                "end_time": 35.6454545,
                "pitch": 33,
                "velocity": 64,
                "duration": 0.4772727,
                "tempo": 120.0
            },
            {
                "start_time": 35.6613636,
                "end_time": 36.1568182,
                "pitch": 33,
                "velocity": 64,
                "duration": 0.4954545,
                "tempo": 120.0
            },
            {
                "start_time": 36.175,
                "end_time": 36.65,
                "pitch": 31,
                "velocity": 64,
                "duration": 0.475,
                "tempo": 120.0
            },
            {
                "start_time": 32.6409091,
                "end_time": 36.6659091,
                "pitch": 0,
                "velocity": 64,
                "duration": 4.025,
                "tempo": 120.0
            },
            {
                "start_time": 36.6659091,
                "end_time": 37.15,
                "pitch": 29,
                "velocity": 64,
                "duration": 0.4840909,
                "tempo": 120.0
            },
            {
                "start_time": 37.1681818,
                "end_time": 37.6704545,
                "pitch": 29,
                "velocity": 64,
                "duration": 0.5022727,
                "tempo": 120.0
            },
            {
                "start_time": 37.6886364,
                "end_time": 38.1659091,
                "pitch": 29,
                "velocity": 64,
                "duration": 0.4772727,
                "tempo": 120.0
            },
            {
                "start_time": 38.1818182,
                "end_time": 38.6659091,
                "pitch": 30,
                "velocity": 64,
                "duration": 0.4840909,
                "tempo": 120.0
            },
            {
                "start_time": 27.1136364,
                "end_time": 38.6818182,
                "pitch": 42,
                "velocity": 64,
                "duration": 11.5681818,
                "tempo": 120.0
            },
            {
                "start_time": 38.6818182,
                "end_time": 39.1659091,
                "pitch": 31,
                "velocity": 64,
                "duration": 0.4840909,
                "tempo": 120.0
            },
            {
                "start_time": 39.1840909,
                "end_time": 39.6659091,
                "pitch": 31,
                "velocity": 64,
                "duration": 0.4818182,
                "tempo": 120.0
            },
            {
                "start_time": 39.6840909,
                "end_time": 40.1681818,
                "pitch": 31,
                "velocity": 64,
                "duration": 0.4840909,
                "tempo": 120.0
            },
            {
                "start_time": 40.1840909,
                "end_time": 40.6795455,
                "pitch": 31,
                "velocity": 64,
                "duration": 0.4954545,
                "tempo": 120.0
            },
            {
                "start_time": 36.6659091,
                "end_time": 40.6977273,
                "pitch": 0,
                "velocity": 64,
                "duration": 4.0318182,
                "tempo": 120.0
            },
            {
                "start_time": 40.6977273,
                "end_time": 41.1727273,
                "pitch": 36,
                "velocity": 64,
                "duration": 0.475,
                "tempo": 120.0
            },
            {
                "start_time": 41.1909091,
                "end_time": 41.6727273,
                "pitch": 36,
                "velocity": 64,
                "duration": 0.4818182,
                "tempo": 120.0
            },
            {
                "start_time": 33.6545455,
                "end_time": 41.6909091,
                "pitch": 40,
                "velocity": 64,
                "duration": 8.0363636,
                "tempo": 120.0
            },
            {
                "start_time": 34.6681818,
                "end_time": 42.175,
                "pitch": 35,
                "velocity": 64,
                "duration": 7.5068182,
                "tempo": 120.0
            },
            {
                "start_time": 41.6909091,
                "end_time": 42.175,
                "pitch": 35,
                "velocity": 64,
                "duration": 0.4840909,
                "tempo": 120.0
            },
            {
                "start_time": 42.1909091,
                "end_time": 42.6863636,
                "pitch": 35,
                "velocity": 64,
                "duration": 0.4954545,
                "tempo": 120.0
            },
            {
                "start_time": 42.7045455,
                "end_time": 43.1886364,
                "pitch": 35,
                "velocity": 64,
                "duration": 0.4840909,
                "tempo": 120.0
            },
            {
                "start_time": 43.2068182,
                "end_time": 43.6818182,
                "pitch": 34,
                "velocity": 64,
                "duration": 0.475,
                "tempo": 120.0
            },
            {
                "start_time": 43.7,
                "end_time": 44.1931818,
                "pitch": 34,
                "velocity": 64,
                "duration": 0.4931818,
                "tempo": 120.0
            },
            {
                "start_time": 44.2113636,
                "end_time": 44.6954545,
                "pitch": 33,
                "velocity": 64,
                "duration": 0.4840909,
                "tempo": 120.0
            },
            {
                "start_time": 44.7136364,
                "end_time": 45.1954545,
                "pitch": 33,
                "velocity": 64,
                "duration": 0.4818182,
                "tempo": 120.0
            },
            {
                "start_time": 45.2136364,
                "end_time": 45.6977273,
                "pitch": 32,
                "velocity": 64,
                "duration": 0.4840909,
                "tempo": 120.0
            },
            {
                "start_time": 45.7136364,
                "end_time": 46.1977273,
                "pitch": 34,
                "velocity": 64,
                "duration": 0.4840909,
                "tempo": 120.0
            },
            {
                "start_time": 46.2159091,
                "end_time": 46.6977273,
                "pitch": 34,
                "velocity": 64,
                "duration": 0.4818182,
                "tempo": 120.0
            },
            {
                "start_time": 46.7159091,
                "end_time": 47.1977273,
                "pitch": 36,
                "velocity": 64,
                "duration": 0.4818182,
                "tempo": 120.0
            },
            {
                "start_time": 47.2159091,
                "end_time": 47.7,
                "pitch": 36,
                "velocity": 64,
                "duration": 0.4840909,
                "tempo": 120.0
            },
            {
                "start_time": 47.7159091,
                "end_time": 48.2,
                "pitch": 36,
                "velocity": 64,
                "duration": 0.4840909,
                "tempo": 120.0
            },
            {
                "start_time": 41.6909091,
                "end_time": 48.2181818,
                "pitch": 40,
                "velocity": 64,
                "duration": 6.5272727,
                "tempo": 120.0
            },
            {
                "start_time": 48.2181818,
                "end_time": 48.7136364,
                "pitch": 35,
                "velocity": 64,
                "duration": 0.4954545,
                "tempo": 120.0
            },
            {
                "start_time": 48.7318182,
                "end_time": 49.975,
                "pitch": 33,
                "velocity": 64,
                "duration": 1.2431818,
                "tempo": 120.0
            },
            {
                "start_time": 38.6818182,
                "end_time": 50.25,
                "pitch": 42,
                "velocity": 64,
                "duration": 11.5681818,
                "tempo": 120.0
            },
            {
                "start_time": 50.25,
                "end_time": 50.4795455,
                "pitch": 33,
                "velocity": 64,
                "duration": 0.2295455,
                "tempo": 120.0
            },
            {
                "start_time": 50.4977273,
                "end_time": 50.725,
                "pitch": 36,
                "velocity": 64,
                "duration": 0.2272727,
                "tempo": 120.0
            },
            {
                "start_time": 50.7431818,
                "end_time": 51.4840909,
                "pitch": 38,
                "velocity": 64,
                "duration": 0.7409091,
                "tempo": 120.0
            },
            {
                "start_time": 10.5477273,
                "end_time": 51.5022727,
                "pitch": 41,
                "velocity": 64,
                "duration": 40.9545455,
                "tempo": 120.0
            },
            {
                "start_time": 51.5022727,
                "end_time": 51.7454545,
                "pitch": 33,
                "velocity": 64,
                "duration": 0.2431818,
                "tempo": 120.0
            },
            {
                "start_time": 50.25,
                "end_time": 52.25,
                "pitch": 42,
                "velocity": 64,
                "duration": 2.0,
                "tempo": 120.0
            },
            {
                "start_time": 52.25,
                "end_time": 52.7318182,
                "pitch": 33,
                "velocity": 64,
                "duration": 0.4818182,
                "tempo": 120.0
            },
            {
                "start_time": 52.75,
                "end_time": 54.0022727,
                "pitch": 33,
                "velocity": 64,
                "duration": 1.2522727,
                "tempo": 120.0
            },
            {
                "start_time": 54.0204545,
                "end_time": 54.4954545,
                "pitch": 31,
                "velocity": 64,
                "duration": 0.475,
                "tempo": 120.0
            },
            {
                "start_time": 48.7318182,
                "end_time": 54.7409091,
                "pitch": 35,
                "velocity": 64,
                "duration": 6.0090909,
                "tempo": 120.0
            },
            {
                "start_time": 54.5113636,
                "end_time": 54.7409091,
                "pitch": 35,
                "velocity": 64,
                "duration": 0.2295455,
                "tempo": 120.0
            },
            {
                "start_time": 50.7431818,
                "end_time": 55.7613636,
                "pitch": 36,
                "velocity": 64,
                "duration": 5.0181818,
                "tempo": 120.0
            },
            {
                "start_time": 54.7590909,
                "end_time": 55.7613636,
                "pitch": 36,
                "velocity": 64,
                "duration": 1.0022727,
                "tempo": 120.0
            },
            {
                "start_time": 48.2181818,
                "end_time": 55.7795455,
                "pitch": 40,
                "velocity": 64,
                "duration": 7.5613636,
                "tempo": 120.0
            },
            {
                "start_time": 55.7795455,
                "end_time": 56.2477273,
                "pitch": 35,
                "velocity": 64,
                "duration": 0.4681818,
                "tempo": 120.0
            },
            {
                "start_time": 50.4977273,
                "end_time": 56.2659091,
                "pitch": 7,
                "velocity": 64,
                "duration": 5.7681818,
                "tempo": 120.0
            },
            {
                "start_time": 56.2659091,
                "end_time": 56.7477273,
                "pitch": 28,
                "velocity": 64,
                "duration": 0.4818182,
                "tempo": 120.0
            },
            {
                "start_time": 52.25,
                "end_time": 56.7659091,
                "pitch": 42,
                "velocity": 64,
                "duration": 4.5159091,
                "tempo": 120.0
            },
            {
                "start_time": 56.7659091,
                "end_time": 58.0318182,
                "pitch": 33,
                "velocity": 64,
                "duration": 1.2659091,
                "tempo": 120.0
            },
            {
                "start_time": 56.7659091,
                "end_time": 58.3068182,
                "pitch": 42,
                "velocity": 64,
                "duration": 1.5409091,
                "tempo": 120.0
            },
            {
                "start_time": 58.3068182,
                "end_time": 58.5318182,
                "pitch": 33,
                "velocity": 64,
                "duration": 0.225,
                "tempo": 120.0
            },
            {
                "start_time": 56.2659091,
                "end_time": 58.55,
                "pitch": 7,
                "velocity": 64,
                "duration": 2.2840909,
                "tempo": 120.0
            },
            {
                "start_time": 58.55,
                "end_time": 58.775,
                "pitch": 36,
                "velocity": 64,
                "duration": 0.225,
                "tempo": 120.0
            },
            {
                "start_time": 58.7909091,
                "end_time": 59.5318182,
                "pitch": 38,
                "velocity": 64,
                "duration": 0.7409091,
                "tempo": 120.0
            },
            {
                "start_time": 51.5022727,
                "end_time": 59.55,
                "pitch": 41,
                "velocity": 64,
                "duration": 8.0477273,
                "tempo": 120.0
            },
            {
                "start_time": 59.55,
                "end_time": 59.7931818,
                "pitch": 33,
                "velocity": 64,
                "duration": 0.2431818,
                "tempo": 120.0
            },
            {
                "start_time": 58.3068182,
                "end_time": 60.2977273,
                "pitch": 42,
                "velocity": 64,
                "duration": 1.9909091,
                "tempo": 120.0
            },
            {
                "start_time": 60.2977273,
                "end_time": 60.7795455,
                "pitch": 33,
                "velocity": 64,
                "duration": 0.4818182,
                "tempo": 120.0
            },
            {
                "start_time": 60.7977273,
                "end_time": 61.8022727,
                "pitch": 33,
                "velocity": 64,
                "duration": 1.0045455,
                "tempo": 120.0
            },
            {
                "start_time": 54.5113636,
                "end_time": 62.8,
                "pitch": 31,
                "velocity": 64,
                "duration": 8.2886364,
                "tempo": 120.0
            },
            {
                "start_time": 61.8204545,
                "end_time": 62.8,
                "pitch": 31,
                "velocity": 64,
                "duration": 0.9795455,
                "tempo": 120.0
            },
            {
                "start_time": 45.7136364,
                "end_time": 63.7931818,
                "pitch": 32,
                "velocity": 64,
                "duration": 18.0795455,
                "tempo": 120.0
            },
            {
                "start_time": 62.8181818,
                "end_time": 63.7931818,
                "pitch": 32,
                "velocity": 64,
                "duration": 0.975,
                "tempo": 120.0
            },
            {
                "start_time": 63.8113636,
                "end_time": 64.1272727,
                "pitch": 33,
                "velocity": 64,
                "duration": 0.3159091,
                "tempo": 120.0
            },
            {
                "start_time": 64.1454545,
                "end_time": 64.4636364,
                "pitch": 32,
                "velocity": 64,
                "duration": 0.3181818,
                "tempo": 120.0
            },
            {
                "start_time": 40.6977273,
                "end_time": 64.4818182,
                "pitch": 0,
                "velocity": 64,
                "duration": 23.7840909,
                "tempo": 120.0
            },
            {
                "start_time": 64.4818182,
                "end_time": 64.8068182,
                "pitch": 30,
                "velocity": 64,
                "duration": 0.325,
                "tempo": 120.0
            },
            {
                "start_time": 64.825,
                "end_time": 65.3,
                "pitch": 30,
                "velocity": 64,
                "duration": 0.475,
                "tempo": 120.0
            },
            {
                "start_time": 65.3181818,
                "end_time": 65.8,
                "pitch": 29,
                "velocity": 64,
                "duration": 0.4818182,
                "tempo": 120.0
            },
            {
                "start_time": 65.8181818,
                "end_time": 66.3022727,
                "pitch": 29,
                "velocity": 64,
                "duration": 0.4840909,
                "tempo": 120.0
            },
            {
                "start_time": 66.3181818,
                "end_time": 66.8227273,
                "pitch": 29,
                "velocity": 64,
                "duration": 0.5045455,
                "tempo": 120.0
            },
            {
                "start_time": 66.8386364,
                "end_time": 67.3159091,
                "pitch": 29,
                "velocity": 64,
                "duration": 0.4772727,
                "tempo": 120.0
            },
            {
                "start_time": 67.3340909,
                "end_time": 67.8159091,
                "pitch": 29,
                "velocity": 64,
                "duration": 0.4818182,
                "tempo": 120.0
            },
            {
                "start_time": 67.8340909,
                "end_time": 68.3272727,
                "pitch": 29,
                "velocity": 64,
                "duration": 0.4931818,
                "tempo": 120.0
            },
            {
                "start_time": 68.3454545,
                "end_time": 68.8227273,
                "pitch": 29,
                "velocity": 64,
                "duration": 0.4772727,
                "tempo": 120.0
            },
            {
                "start_time": 60.2977273,
                "end_time": 68.8386364,
                "pitch": 42,
                "velocity": 64,
                "duration": 8.5409091,
                "tempo": 120.0
            },
            {
                "start_time": 68.8386364,
                "end_time": 69.3340909,
                "pitch": 31,
                "velocity": 64,
                "duration": 0.4954545,
                "tempo": 120.0
            },
            {
                "start_time": 69.3522727,
                "end_time": 69.8363636,
                "pitch": 31,
                "velocity": 64,
                "duration": 0.4840909,
                "tempo": 120.0
            },
            {
                "start_time": 69.8522727,
                "end_time": 70.3295455,
                "pitch": 31,
                "velocity": 64,
                "duration": 0.4772727,
                "tempo": 120.0
            },
            {
                "start_time": 70.3454545,
                "end_time": 70.8295455,
                "pitch": 31,
                "velocity": 64,
                "duration": 0.4840909,
                "tempo": 120.0
            },
            {
                "start_time": 70.8454545,
                "end_time": 71.3295455,
                "pitch": 31,
                "velocity": 64,
                "duration": 0.4840909,
                "tempo": 120.0
            },
            {
                "start_time": 71.3477273,
                "end_time": 71.8431818,
                "pitch": 31,
                "velocity": 64,
                "duration": 0.4954545,
                "tempo": 120.0
            },
            {
                "start_time": 71.8590909,
                "end_time": 72.3431818,
                "pitch": 31,
                "velocity": 64,
                "duration": 0.4840909,
                "tempo": 120.0
            }
        ],
        "French Horn": [
            {
                "start_time": 0.0045455,
                "end_time": 0.1318182,
                "pitch": 48,
                "velocity": 64,
                "duration": 0.1272727,
                "tempo": 120.0
            },
            {
                "start_time": 0.1681818,
                "end_time": 0.3,
                "pitch": 52,
                "velocity": 64,
                "duration": 0.1318182,
                "tempo": 120.0
            },
            {
                "start_time": 0.3340909,
                "end_time": 0.4659091,
                "pitch": 55,
                "velocity": 64,
                "duration": 0.1318182,
                "tempo": 120.0
            },
            {
                "start_time": 1.5022727,
                "end_time": 1.9795455,
                "pitch": 55,
                "velocity": 64,
                "duration": 0.4772727,
                "tempo": 120.0
            },
            {
                "start_time": 2.0159091,
                "end_time": 2.4818182,
                "pitch": 55,
                "velocity": 64,
                "duration": 0.4659091,
                "tempo": 120.0
            },
            {
                "start_time": 2.5159091,
                "end_time": 2.9818182,
                "pitch": 56,
                "velocity": 64,
                "duration": 0.4659091,
                "tempo": 120.0
            },
            {
                "start_time": 3.0159091,
                "end_time": 3.4840909,
                "pitch": 72,
                "velocity": 64,
                "duration": 0.4681818,
                "tempo": 120.0
            },
            {
                "start_time": 3.5181818,
                "end_time": 3.9840909,
                "pitch": 71,
                "velocity": 64,
                "duration": 0.4659091,
                "tempo": 120.0
            },
            {
                "start_time": 3.5181818,
                "end_time": 4.4840909,
                "pitch": 76,
                "velocity": 64,
                "duration": 0.9659091,
                "tempo": 120.0
            },
            {
                "start_time": 4.0181818,
                "end_time": 4.4840909,
                "pitch": 76,
                "velocity": 64,
                "duration": 0.4659091,
                "tempo": 120.0
            },
            {
                "start_time": 4.5204545,
                "end_time": 5.3204545,
                "pitch": 52,
                "velocity": 64,
                "duration": 0.8,
                "tempo": 120.0
            },
            {
                "start_time": 0.1681818,
                "end_time": 5.4863636,
                "pitch": 48,
                "velocity": 64,
                "duration": 5.3181818,
                "tempo": 120.0
            },
            {
                "start_time": 5.3545455,
                "end_time": 5.4863636,
                "pitch": 48,
                "velocity": 64,
                "duration": 0.1318182,
                "tempo": 120.0
            },
            {
                "start_time": 5.5204545,
                "end_time": 5.9863636,
                "pitch": 52,
                "velocity": 64,
                "duration": 0.4659091,
                "tempo": 120.0
            },
            {
                "start_time": 0.3340909,
                "end_time": 6.0204545,
                "pitch": 66,
                "velocity": 64,
                "duration": 5.6863636,
                "tempo": 120.0
            },
            {
                "start_time": 6.0204545,
                "end_time": 6.4977273,
                "pitch": 57,
                "velocity": 64,
                "duration": 0.4772727,
                "tempo": 120.0
            },
            {
                "start_time": 6.5340909,
                "end_time": 7.0,
                "pitch": 50,
                "velocity": 64,
                "duration": 0.4659091,
                "tempo": 120.0
            },
            {
                "start_time": 8.5318182,
                "end_time": 9.3363636,
                "pitch": 62,
                "velocity": 64,
                "duration": 0.8045455,
                "tempo": 120.0
            },
            {
                "start_time": 5.3545455,
                "end_time": 9.5,
                "pitch": 53,
                "velocity": 64,
                "duration": 4.1454545,
                "tempo": 120.0
            },
            {
                "start_time": 9.3704545,
                "end_time": 9.5,
                "pitch": 53,
                "velocity": 64,
                "duration": 0.1295455,
                "tempo": 120.0
            },
            {
                "start_time": 9.5363636,
                "end_time": 10.0113636,
                "pitch": 53,
                "velocity": 64,
                "duration": 0.475,
                "tempo": 120.0
            },
            {
                "start_time": 6.0204545,
                "end_time": 10.0477273,
                "pitch": 66,
                "velocity": 64,
                "duration": 4.0272727,
                "tempo": 120.0
            },
            {
                "start_time": 10.0477273,
                "end_time": 10.5136364,
                "pitch": 57,
                "velocity": 64,
                "duration": 0.4659091,
                "tempo": 120.0
            },
            {
                "start_time": 10.55,
                "end_time": 11.35,
                "pitch": 69,
                "velocity": 64,
                "duration": 0.8,
                "tempo": 120.0
            },
            {
                "start_time": 11.55,
                "end_time": 12.0272727,
                "pitch": 62,
                "velocity": 64,
                "duration": 0.4772727,
                "tempo": 120.0
            },
            {
                "start_time": 12.0636364,
                "end_time": 12.5227273,
                "pitch": 71,
                "velocity": 64,
                "duration": 0.4590909,
                "tempo": 120.0
            },
            {
                "start_time": 1.5022727,
                "end_time": 13.3636364,
                "pitch": 64,
                "velocity": 64,
                "duration": 11.8613636,
                "tempo": 120.0
            },
            {
                "start_time": 12.5568182,
                "end_time": 13.3636364,
                "pitch": 64,
                "velocity": 64,
                "duration": 0.8068182,
                "tempo": 120.0
            },
            {
                "start_time": 10.0477273,
                "end_time": 13.3977273,
                "pitch": 66,
                "velocity": 64,
                "duration": 3.35,
                "tempo": 120.0
            },
            {
                "start_time": 13.3977273,
                "end_time": 13.5272727,
                "pitch": 55,
                "velocity": 64,
                "duration": 0.1295455,
                "tempo": 120.0
            },
            {
                "start_time": 13.5636364,
                "end_time": 14.0386364,
                "pitch": 55,
                "velocity": 64,
                "duration": 0.475,
                "tempo": 120.0
            },
            {
                "start_time": 4.0181818,
                "end_time": 14.075,
                "pitch": 56,
                "velocity": 64,
                "duration": 10.0568182,
                "tempo": 120.0
            },
            {
                "start_time": 14.075,
                "end_time": 14.5340909,
                "pitch": 59,
                "velocity": 64,
                "duration": 0.4590909,
                "tempo": 120.0
            },
            {
                "start_time": 12.5568182,
                "end_time": 14.5681818,
                "pitch": 44,
                "velocity": 64,
                "duration": 2.0113636,
                "tempo": 120.0
            },
            {
                "start_time": 8.5318182,
                "end_time": 15.3795455,
                "pitch": 60,
                "velocity": 64,
                "duration": 6.8477273,
                "tempo": 120.0
            },
            {
                "start_time": 14.5681818,
                "end_time": 15.3795455,
                "pitch": 60,
                "velocity": 64,
                "duration": 0.8113636,
                "tempo": 120.0
            },
            {
                "start_time": 15.4136364,
                "end_time": 15.5477273,
                "pitch": 64,
                "velocity": 64,
                "duration": 0.1340909,
                "tempo": 120.0
            },
            {
                "start_time": 15.5818182,
                "end_time": 16.0477273,
                "pitch": 64,
                "velocity": 64,
                "duration": 0.4659091,
                "tempo": 120.0
            },
            {
                "start_time": 16.0818182,
                "end_time": 16.5477273,
                "pitch": 76,
                "velocity": 64,
                "duration": 0.4659091,
                "tempo": 120.0
            },
            {
                "start_time": 16.5818182,
                "end_time": 17.3818182,
                "pitch": 62,
                "velocity": 64,
                "duration": 0.8,
                "tempo": 120.0
            },
            {
                "start_time": 17.4159091,
                "end_time": 17.4181818,
                "pitch": 65,
                "velocity": 64,
                "duration": 0.0022727,
                "tempo": 120.0
            },
            {
                "start_time": 17.4181818,
                "end_time": 17.55,
                "pitch": 57,
                "velocity": 64,
                "duration": 0.1318182,
                "tempo": 120.0
            },
            {
                "start_time": 17.5840909,
                "end_time": 18.05,
                "pitch": 57,
                "velocity": 64,
                "duration": 0.4659091,
                "tempo": 120.0
            },
            {
                "start_time": 15.4136364,
                "end_time": 18.55,
                "pitch": 60,
                "velocity": 64,
                "duration": 3.1363636,
                "tempo": 120.0
            },
            {
                "start_time": 18.0840909,
                "end_time": 18.55,
                "pitch": 60,
                "velocity": 64,
                "duration": 0.4659091,
                "tempo": 120.0
            },
            {
                "start_time": 18.5863636,
                "end_time": 19.3863636,
                "pitch": 71,
                "velocity": 64,
                "duration": 0.8,
                "tempo": 120.0
            },
            {
                "start_time": 14.5681818,
                "end_time": 19.4204545,
                "pitch": 44,
                "velocity": 64,
                "duration": 4.8522727,
                "tempo": 120.0
            },
            {
                "start_time": 19.4204545,
                "end_time": 19.5522727,
                "pitch": 62,
                "velocity": 64,
                "duration": 0.1318182,
                "tempo": 120.0
            },
            {
                "start_time": 19.5863636,
                "end_time": 20.0636364,
                "pitch": 62,
                "velocity": 64,
                "duration": 0.4772727,
                "tempo": 120.0
            },
            {
                "start_time": 20.1,
                "end_time": 20.5590909,
                "pitch": 74,
                "velocity": 64,
                "duration": 0.4590909,
                "tempo": 120.0
            },
            {
                "start_time": 20.5931818,
                "end_time": 21.2363636,
                "pitch": 72,
                "velocity": 64,
                "duration": 0.6431818,
                "tempo": 120.0
            },
            {
                "start_time": 16.5818182,
                "end_time": 21.4,
                "pitch": 64,
                "velocity": 64,
                "duration": 4.8181818,
                "tempo": 120.0
            },
            {
                "start_time": 21.2704545,
                "end_time": 21.4,
                "pitch": 64,
                "velocity": 64,
                "duration": 0.1295455,
                "tempo": 120.0
            },
            {
                "start_time": 21.4340909,
                "end_time": 21.5636364,
                "pitch": 64,
                "velocity": 64,
                "duration": 0.1295455,
                "tempo": 120.0
            },
            {
                "start_time": 21.5977273,
                "end_time": 21.7340909,
                "pitch": 68,
                "velocity": 64,
                "duration": 0.1363636,
                "tempo": 120.0
            },
            {
                "start_time": 6.5340909,
                "end_time": 21.7681818,
                "pitch": 19,
                "velocity": 64,
                "duration": 15.2340909,
                "tempo": 120.0
            },
            {
                "start_time": 21.7681818,
                "end_time": 21.9045455,
                "pitch": 62,
                "velocity": 64,
                "duration": 0.1363636,
                "tempo": 120.0
            },
            {
                "start_time": 21.9386364,
                "end_time": 22.075,
                "pitch": 64,
                "velocity": 64,
                "duration": 0.1363636,
                "tempo": 120.0
            },
            {
                "start_time": 22.1113636,
                "end_time": 22.2431818,
                "pitch": 64,
                "velocity": 64,
                "duration": 0.1318182,
                "tempo": 120.0
            },
            {
                "start_time": 13.3977273,
                "end_time": 22.2772727,
                "pitch": 66,
                "velocity": 64,
                "duration": 8.8795455,
                "tempo": 120.0
            },
            {
                "start_time": 22.2772727,
                "end_time": 22.4113636,
                "pitch": 59,
                "velocity": 64,
                "duration": 0.1340909,
                "tempo": 120.0
            },
            {
                "start_time": 19.4204545,
                "end_time": 22.4454545,
                "pitch": 44,
                "velocity": 64,
                "duration": 3.025,
                "tempo": 120.0
            },
            {
                "start_time": 21.9386364,
                "end_time": 22.5772727,
                "pitch": 62,
                "velocity": 64,
                "duration": 0.6386364,
                "tempo": 120.0
            },
            {
                "start_time": 22.4454545,
                "end_time": 22.5772727,
                "pitch": 62,
                "velocity": 64,
                "duration": 0.1318182,
                "tempo": 120.0
            },
            {
                "start_time": 22.6113636,
                "end_time": 22.7454545,
                "pitch": 64,
                "velocity": 64,
                "duration": 0.1340909,
                "tempo": 120.0
            },
            {
                "start_time": 22.6113636,
                "end_time": 22.9113636,
                "pitch": 62,
                "velocity": 64,
                "duration": 0.3,
                "tempo": 120.0
            },
            {
                "start_time": 22.7795455,
                "end_time": 22.9113636,
                "pitch": 62,
                "velocity": 64,
                "duration": 0.1318182,
                "tempo": 120.0
            },
            {
                "start_time": 21.2704545,
                "end_time": 23.0772727,
                "pitch": 60,
                "velocity": 64,
                "duration": 1.8068182,
                "tempo": 120.0
            },
            {
                "start_time": 22.9454545,
                "end_time": 23.0772727,
                "pitch": 60,
                "velocity": 64,
                "duration": 0.1318182,
                "tempo": 120.0
            },
            {
                "start_time": 22.7795455,
                "end_time": 23.1136364,
                "pitch": 64,
                "velocity": 64,
                "duration": 0.3340909,
                "tempo": 120.0
            },
            {
                "start_time": 23.1136364,
                "end_time": 23.7454545,
                "pitch": 57,
                "velocity": 64,
                "duration": 0.6318182,
                "tempo": 120.0
            },
            {
                "start_time": 23.7795455,
                "end_time": 23.9136364,
                "pitch": 57,
                "velocity": 64,
                "duration": 0.1340909,
                "tempo": 120.0
            },
            {
                "start_time": 18.0840909,
                "end_time": 23.9477273,
                "pitch": 31,
                "velocity": 64,
                "duration": 5.8636364,
                "tempo": 120.0
            },
            {
                "start_time": 23.9477273,
                "end_time": 24.0795455,
                "pitch": 60,
                "velocity": 64,
                "duration": 0.1318182,
                "tempo": 120.0
            },
            {
                "start_time": 23.1136364,
                "end_time": 24.5909091,
                "pitch": 64,
                "velocity": 64,
                "duration": 1.4772727,
                "tempo": 120.0
            },
            {
                "start_time": 24.1136364,
                "end_time": 24.5909091,
                "pitch": 64,
                "velocity": 64,
                "duration": 0.4772727,
                "tempo": 120.0
            },
            {
                "start_time": 24.1136364,
                "end_time": 25.5863636,
                "pitch": 60,
                "velocity": 64,
                "duration": 1.4727273,
                "tempo": 120.0
            },
            {
                "start_time": 24.6272727,
                "end_time": 25.5863636,
                "pitch": 60,
                "velocity": 80,
                "duration": 0.9590909,
                "tempo": 120.0
            },
            {
                "start_time": 24.6272727,
                "end_time": 25.6204545,
                "pitch": 64,
                "velocity": 80,
                "duration": 0.9931818,
                "tempo": 120.0
            },
            {
                "start_time": 25.6204545,
                "end_time": 26.5863636,
                "pitch": 57,
                "velocity": 80,
                "duration": 0.9659091,
                "tempo": 120.0
            },
            {
                "start_time": 21.7681818,
                "end_time": 27.1159091,
                "pitch": 19,
                "velocity": 64,
                "duration": 5.3477273,
                "tempo": 120.0
            },
            {
                "start_time": 27.1136364,
                "end_time": 27.1159091,
                "pitch": 19,
                "velocity": 80,
                "duration": 0.0022727,
                "tempo": 120.0
            },
            {
                "start_time": 27.1159091,
                "end_time": 28.1,
                "pitch": 53,
                "velocity": 80,
                "duration": 0.9840909,
                "tempo": 120.0
            },
            {
                "start_time": 28.1363636,
                "end_time": 28.6022727,
                "pitch": 53,
                "velocity": 80,
                "duration": 0.4659091,
                "tempo": 120.0
            },
            {
                "start_time": 21.5977273,
                "end_time": 28.6386364,
                "pitch": 78,
                "velocity": 64,
                "duration": 7.0409091,
                "tempo": 120.0
            },
            {
                "start_time": 28.6386364,
                "end_time": 28.7681818,
                "pitch": 67,
                "velocity": 80,
                "duration": 0.1295455,
                "tempo": 120.0
            },
            {
                "start_time": 25.6204545,
                "end_time": 28.9659091,
                "pitch": 64,
                "velocity": 80,
                "duration": 3.3454545,
                "tempo": 120.0
            },
            {
                "start_time": 22.9454545,
                "end_time": 29.0954545,
                "pitch": 62,
                "velocity": 64,
                "duration": 6.15,
                "tempo": 120.0
            },
            {
                "start_time": 28.9659091,
                "end_time": 29.0954545,
                "pitch": 62,
                "velocity": 80,
                "duration": 0.1295455,
                "tempo": 120.0
            },
            {
                "start_time": 29.1295455,
                "end_time": 29.2636364,
                "pitch": 59,
                "velocity": 80,
                "duration": 0.1340909,
                "tempo": 120.0
            },
            {
                "start_time": 29.2977273,
                "end_time": 29.4295455,
                "pitch": 55,
                "velocity": 80,
                "duration": 0.1318182,
                "tempo": 120.0
            },
            {
                "start_time": 9.3704545,
                "end_time": 29.7681818,
                "pitch": 50,
                "velocity": 64,
                "duration": 20.3977273,
                "tempo": 120.0
            },
            {
                "start_time": 29.6318182,
                "end_time": 29.7681818,
                "pitch": 50,
                "velocity": 80,
                "duration": 0.1363636,
                "tempo": 120.0
            },
            {
                "start_time": 29.8045455,
                "end_time": 29.9431818,
                "pitch": 47,
                "velocity": 80,
                "duration": 0.1386364,
                "tempo": 120.0
            },
            {
                "start_time": 3.0159091,
                "end_time": 30.1159091,
                "pitch": 43,
                "velocity": 64,
                "duration": 27.1,
                "tempo": 120.0
            },
            {
                "start_time": 29.9772727,
                "end_time": 30.1159091,
                "pitch": 43,
                "velocity": 80,
                "duration": 0.1386364,
                "tempo": 120.0
            },
            {
                "start_time": 29.6318182,
                "end_time": 30.3204545,
                "pitch": 52,
                "velocity": 80,
                "duration": 0.6886364,
                "tempo": 120.0
            },
            {
                "start_time": 5.5204545,
                "end_time": 30.4522727,
                "pitch": 48,
                "velocity": 64,
                "duration": 24.9318182,
                "tempo": 120.0
            },
            {
                "start_time": 30.3204545,
                "end_time": 30.4522727,
                "pitch": 48,
                "velocity": 80,
                "duration": 0.1318182,
                "tempo": 120.0
            },
            {
                "start_time": 30.3204545,
                "end_time": 30.4863636,
                "pitch": 52,
                "velocity": 80,
                "duration": 0.1659091,
                "tempo": 120.0
            },
            {
                "start_time": 29.9772727,
                "end_time": 30.6204545,
                "pitch": 47,
                "velocity": 80,
                "duration": 0.6431818,
                "tempo": 120.0
            },
            {
                "start_time": 30.4863636,
                "end_time": 30.6204545,
                "pitch": 47,
                "velocity": 80,
                "duration": 0.1340909,
                "tempo": 120.0
            },
            {
                "start_time": 30.6545455,
                "end_time": 31.1204545,
                "pitch": 43,
                "velocity": 80,
                "duration": 0.4659091,
                "tempo": 120.0
            },
            {
                "start_time": 32.1409091,
                "end_time": 32.4409091,
                "pitch": 55,
                "velocity": 80,
                "duration": 0.3,
                "tempo": 120.0
            },
            {
                "start_time": 28.9659091,
                "end_time": 34.6340909,
                "pitch": 64,
                "velocity": 80,
                "duration": 5.6681818,
                "tempo": 120.0
            },
            {
                "start_time": 34.1545455,
                "end_time": 34.6340909,
                "pitch": 64,
                "velocity": 80,
                "duration": 0.4795455,
                "tempo": 120.0
            },
            {
                "start_time": 34.6704545,
                "end_time": 35.6295455,
                "pitch": 64,
                "velocity": 80,
                "duration": 0.9590909,
                "tempo": 120.0
            },
            {
                "start_time": 35.6636364,
                "end_time": 37.1340909,
                "pitch": 60,
                "velocity": 80,
                "duration": 1.4704545,
                "tempo": 120.0
            },
            {
                "start_time": 35.6636364,
                "end_time": 37.1681818,
                "pitch": 64,
                "velocity": 80,
                "duration": 1.5045455,
                "tempo": 120.0
            },
            {
                "start_time": 37.1681818,
                "end_time": 38.15,
                "pitch": 57,
                "velocity": 80,
                "duration": 0.9818182,
                "tempo": 120.0
            },
            {
                "start_time": 23.9477273,
                "end_time": 38.1840909,
                "pitch": 31,
                "velocity": 64,
                "duration": 14.2363636,
                "tempo": 120.0
            },
            {
                "start_time": 38.1840909,
                "end_time": 39.4,
                "pitch": 60,
                "velocity": 80,
                "duration": 1.2159091,
                "tempo": 120.0
            },
            {
                "start_time": 39.4340909,
                "end_time": 39.65,
                "pitch": 62,
                "velocity": 80,
                "duration": 0.2159091,
                "tempo": 120.0
            },
            {
                "start_time": 29.1295455,
                "end_time": 39.6863636,
                "pitch": 65,
                "velocity": 80,
                "duration": 10.5568182,
                "tempo": 120.0
            },
            {
                "start_time": 29.2977273,
                "end_time": 40.15,
                "pitch": 59,
                "velocity": 80,
                "duration": 10.8522727,
                "tempo": 120.0
            },
            {
                "start_time": 39.6863636,
                "end_time": 40.15,
                "pitch": 59,
                "velocity": 80,
                "duration": 0.4636364,
                "tempo": 120.0
            },
            {
                "start_time": 22.4454545,
                "end_time": 40.1863636,
                "pitch": 44,
                "velocity": 64,
                "duration": 17.7409091,
                "tempo": 120.0
            },
            {
                "start_time": 37.1681818,
                "end_time": 41.6568182,
                "pitch": 64,
                "velocity": 80,
                "duration": 4.4886364,
                "tempo": 120.0
            },
            {
                "start_time": 40.1863636,
                "end_time": 41.6568182,
                "pitch": 64,
                "velocity": 80,
                "duration": 1.4704545,
                "tempo": 120.0
            },
            {
                "start_time": 41.6931818,
                "end_time": 42.1590909,
                "pitch": 64,
                "velocity": 80,
                "duration": 0.4659091,
                "tempo": 120.0
            },
            {
                "start_time": 28.6386364,
                "end_time": 42.1931818,
                "pitch": 78,
                "velocity": 80,
                "duration": 13.5545455,
                "tempo": 120.0
            },
            {
                "start_time": 42.1931818,
                "end_time": 42.6704545,
                "pitch": 71,
                "velocity": 80,
                "duration": 0.4772727,
                "tempo": 120.0
            },
            {
                "start_time": 42.7068182,
                "end_time": 43.6659091,
                "pitch": 71,
                "velocity": 80,
                "duration": 0.9590909,
                "tempo": 120.0
            },
            {
                "start_time": 43.7,
                "end_time": 44.1772727,
                "pitch": 72,
                "velocity": 80,
                "duration": 0.4772727,
                "tempo": 120.0
            },
            {
                "start_time": 18.5863636,
                "end_time": 44.2136364,
                "pitch": 76,
                "velocity": 64,
                "duration": 25.6272727,
                "tempo": 120.0
            },
            {
                "start_time": 44.2136364,
                "end_time": 44.4295455,
                "pitch": 69,
                "velocity": 80,
                "duration": 0.2159091,
                "tempo": 120.0
            },
            {
                "start_time": 38.1840909,
                "end_time": 44.4636364,
                "pitch": 31,
                "velocity": 80,
                "duration": 6.2795455,
                "tempo": 120.0
            },
            {
                "start_time": 44.4636364,
                "end_time": 44.6795455,
                "pitch": 64,
                "velocity": 80,
                "duration": 0.2159091,
                "tempo": 120.0
            },
            {
                "start_time": 39.4340909,
                "end_time": 44.9295455,
                "pitch": 60,
                "velocity": 80,
                "duration": 5.4954545,
                "tempo": 120.0
            },
            {
                "start_time": 44.7136364,
                "end_time": 44.9295455,
                "pitch": 60,
                "velocity": 80,
                "duration": 0.2159091,
                "tempo": 120.0
            },
            {
                "start_time": 44.9636364,
                "end_time": 45.1795455,
                "pitch": 62,
                "velocity": 80,
                "duration": 0.2159091,
                "tempo": 120.0
            },
            {
                "start_time": 45.2159091,
                "end_time": 45.4295455,
                "pitch": 62,
                "velocity": 80,
                "duration": 0.2136364,
                "tempo": 120.0
            },
            {
                "start_time": 12.0636364,
                "end_time": 45.4659091,
                "pitch": 77,
                "velocity": 64,
                "duration": 33.4022727,
                "tempo": 120.0
            },
            {
                "start_time": 45.4659091,
                "end_time": 45.9318182,
                "pitch": 68,
                "velocity": 80,
                "duration": 0.4659091,
                "tempo": 120.0
            },
            {
                "start_time": 45.9659091,
                "end_time": 46.1818182,
                "pitch": 68,
                "velocity": 80,
                "duration": 0.2159091,
                "tempo": 120.0
            },
            {
                "start_time": 39.6863636,
                "end_time": 46.4318182,
                "pitch": 65,
                "velocity": 80,
                "duration": 6.7454545,
                "tempo": 120.0
            },
            {
                "start_time": 46.2159091,
                "end_time": 46.4318182,
                "pitch": 65,
                "velocity": 80,
                "duration": 0.2159091,
                "tempo": 120.0
            },
            {
                "start_time": 46.4659091,
                "end_time": 46.6818182,
                "pitch": 62,
                "velocity": 80,
                "duration": 0.2159091,
                "tempo": 120.0
            },
            {
                "start_time": 44.9636364,
                "end_time": 47.6840909,
                "pitch": 60,
                "velocity": 80,
                "duration": 2.7204545,
                "tempo": 120.0
            },
            {
                "start_time": 46.7181818,
                "end_time": 47.6840909,
                "pitch": 60,
                "velocity": 80,
                "duration": 0.9659091,
                "tempo": 120.0
            },
            {
                "start_time": 30.4863636,
                "end_time": 48.1840909,
                "pitch": 52,
                "velocity": 80,
                "duration": 17.6977273,
                "tempo": 120.0
            },
            {
                "start_time": 47.9681818,
                "end_time": 48.1840909,
                "pitch": 52,
                "velocity": 101,
                "duration": 0.2159091,
                "tempo": 120.0
            },
            {
                "start_time": 48.2181818,
                "end_time": 48.6954545,
                "pitch": 52,
                "velocity": 101,
                "duration": 0.4772727,
                "tempo": 120.0
            },
            {
                "start_time": 48.7318182,
                "end_time": 49.4590909,
                "pitch": 45,
                "velocity": 101,
                "duration": 0.7272727,
                "tempo": 120.0
            },
            {
                "start_time": 49.4909091,
                "end_time": 50.2159091,
                "pitch": 52,
                "velocity": 101,
                "duration": 0.725,
                "tempo": 120.0
            },
            {
                "start_time": 22.2772727,
                "end_time": 50.2522727,
                "pitch": 66,
                "velocity": 64,
                "duration": 27.975,
                "tempo": 120.0
            },
            {
                "start_time": 50.2522727,
                "end_time": 50.4636364,
                "pitch": 57,
                "velocity": 101,
                "duration": 0.2113636,
                "tempo": 120.0
            },
            {
                "start_time": 50.4977273,
                "end_time": 50.9590909,
                "pitch": 57,
                "velocity": 101,
                "duration": 0.4613636,
                "tempo": 120.0
            },
            {
                "start_time": 50.9931818,
                "end_time": 51.2090909,
                "pitch": 57,
                "velocity": 101,
                "duration": 0.2159091,
                "tempo": 120.0
            },
            {
                "start_time": 49.4909091,
                "end_time": 51.2431818,
                "pitch": 19,
                "velocity": 101,
                "duration": 1.7522727,
                "tempo": 120.0
            },
            {
                "start_time": 29.8045455,
                "end_time": 52.4659091,
                "pitch": 53,
                "velocity": 80,
                "duration": 22.6613636,
                "tempo": 120.0
            },
            {
                "start_time": 51.2431818,
                "end_time": 52.4659091,
                "pitch": 53,
                "velocity": 101,
                "duration": 1.2227273,
                "tempo": 120.0
            },
            {
                "start_time": 50.2522727,
                "end_time": 52.5,
                "pitch": 66,
                "velocity": 101,
                "duration": 2.2477273,
                "tempo": 120.0
            },
            {
                "start_time": 52.5,
                "end_time": 52.9659091,
                "pitch": 57,
                "velocity": 101,
                "duration": 0.4659091,
                "tempo": 120.0
            },
            {
                "start_time": 53.0,
                "end_time": 53.2159091,
                "pitch": 57,
                "velocity": 101,
                "duration": 0.2159091,
                "tempo": 120.0
            },
            {
                "start_time": 51.2431818,
                "end_time": 53.2522727,
                "pitch": 19,
                "velocity": 101,
                "duration": 2.0090909,
                "tempo": 120.0
            },
            {
                "start_time": 53.2522727,
                "end_time": 54.4795455,
                "pitch": 50,
                "velocity": 101,
                "duration": 1.2272727,
                "tempo": 120.0
            },
            {
                "start_time": 46.4659091,
                "end_time": 54.5136364,
                "pitch": 65,
                "velocity": 80,
                "duration": 8.0477273,
                "tempo": 120.0
            },
            {
                "start_time": 54.5136364,
                "end_time": 54.975,
                "pitch": 55,
                "velocity": 101,
                "duration": 0.4613636,
                "tempo": 120.0
            },
            {
                "start_time": 55.0090909,
                "end_time": 55.8295455,
                "pitch": 55,
                "velocity": 101,
                "duration": 0.8204545,
                "tempo": 120.0
            },
            {
                "start_time": 56.0227273,
                "end_time": 56.7318182,
                "pitch": 55,
                "velocity": 101,
                "duration": 0.7090909,
                "tempo": 120.0
            },
            {
                "start_time": 40.1863636,
                "end_time": 57.5,
                "pitch": 44,
                "velocity": 80,
                "duration": 17.3136364,
                "tempo": 120.0
            },
            {
                "start_time": 56.7681818,
                "end_time": 57.5,
                "pitch": 44,
                "velocity": 101,
                "duration": 0.7318182,
                "tempo": 120.0
            },
            {
                "start_time": 53.2522727,
                "end_time": 57.5363636,
                "pitch": 19,
                "velocity": 101,
                "duration": 4.2840909,
                "tempo": 120.0
            },
            {
                "start_time": 57.5363636,
                "end_time": 58.2704545,
                "pitch": 52,
                "velocity": 101,
                "duration": 0.7340909,
                "tempo": 120.0
            },
            {
                "start_time": 52.5,
                "end_time": 58.3068182,
                "pitch": 66,
                "velocity": 101,
                "duration": 5.8068182,
                "tempo": 120.0
            },
            {
                "start_time": 58.3068182,
                "end_time": 58.5159091,
                "pitch": 57,
                "velocity": 101,
                "duration": 0.2090909,
                "tempo": 120.0
            },
            {
                "start_time": 58.55,
                "end_time": 59.0068182,
                "pitch": 57,
                "velocity": 101,
                "duration": 0.4568182,
                "tempo": 120.0
            },
            {
                "start_time": 59.0409091,
                "end_time": 59.2568182,
                "pitch": 57,
                "velocity": 101,
                "duration": 0.2159091,
                "tempo": 120.0
            },
            {
                "start_time": 57.5363636,
                "end_time": 59.2909091,
                "pitch": 19,
                "velocity": 101,
                "duration": 1.7545455,
                "tempo": 120.0
            },
            {
                "start_time": 59.2909091,
                "end_time": 60.5136364,
                "pitch": 53,
                "velocity": 101,
                "duration": 1.2227273,
                "tempo": 120.0
            },
            {
                "start_time": 58.3068182,
                "end_time": 60.5477273,
                "pitch": 66,
                "velocity": 101,
                "duration": 2.2409091,
                "tempo": 120.0
            },
            {
                "start_time": 60.5477273,
                "end_time": 61.0136364,
                "pitch": 59,
                "velocity": 101,
                "duration": 0.4659091,
                "tempo": 120.0
            },
            {
                "start_time": 61.0477273,
                "end_time": 61.2636364,
                "pitch": 59,
                "velocity": 101,
                "duration": 0.2159091,
                "tempo": 120.0
            },
            {
                "start_time": 61.3,
                "end_time": 62.0295455,
                "pitch": 50,
                "velocity": 101,
                "duration": 0.7295455,
                "tempo": 120.0
            },
            {
                "start_time": 54.5136364,
                "end_time": 62.0636364,
                "pitch": 65,
                "velocity": 101,
                "duration": 7.55,
                "tempo": 120.0
            },
            {
                "start_time": 14.075,
                "end_time": 62.525,
                "pitch": 56,
                "velocity": 64,
                "duration": 48.45,
                "tempo": 120.0
            },
            {
                "start_time": 62.0636364,
                "end_time": 62.525,
                "pitch": 56,
                "velocity": 101,
                "duration": 0.4613636,
                "tempo": 120.0
            },
            {
                "start_time": 62.5613636,
                "end_time": 64.7886364,
                "pitch": 52,
                "velocity": 101,
                "duration": 2.2272727,
                "tempo": 120.0
            },
            {
                "start_time": 64.8272727,
                "end_time": 68.8068182,
                "pitch": 52,
                "velocity": 64,
                "duration": 3.9795455,
                "tempo": 120.0
            },
            {
                "start_time": 60.5477273,
                "end_time": 68.8409091,
                "pitch": 66,
                "velocity": 101,
                "duration": 8.2931818,
                "tempo": 120.0
            },
            {
                "start_time": 68.8409091,
                "end_time": 72.3272727,
                "pitch": 55,
                "velocity": 64,
                "duration": 3.4863636,
                "tempo": 120.0
            },
            {
                "start_time": 47.9681818,
                "end_time": 72.5272727,
                "pitch": 48,
                "velocity": 101,
                "duration": 24.5590909,
                "tempo": 120.0
            },
            {
                "start_time": 72.5272727,
                "end_time": 72.6568182,
                "pitch": 52,
                "velocity": 64,
                "duration": 0.1295455,
                "tempo": 120.0
            },
            {
                "start_time": 68.8409091,
                "end_time": 72.6909091,
                "pitch": 66,
                "velocity": 64,
                "duration": 3.85,
                "tempo": 120.0
            },
            {
                "start_time": 72.6909091,
                "end_time": 72.8204545,
                "pitch": 55,
                "velocity": 64,
                "duration": 0.1295455,
                "tempo": 120.0
            }
        ],
        "Acoustic Guitar (nylon)": [
            {
                "start_time": 7.0363636,
                "end_time": 7.1659091,
                "pitch": 47,
                "velocity": 64,
                "duration": 0.1295455,
                "tempo": 120.0
            },
            {
                "start_time": 7.2,
                "end_time": 7.3295455,
                "pitch": 48,
                "velocity": 64,
                "duration": 0.1295455,
                "tempo": 120.0
            },
            {
                "start_time": 7.3636364,
                "end_time": 7.4931818,
                "pitch": 50,
                "velocity": 64,
                "duration": 0.1295455,
                "tempo": 120.0
            },
            {
                "start_time": 7.5272727,
                "end_time": 7.6613636,
                "pitch": 52,
                "velocity": 64,
                "duration": 0.1340909,
                "tempo": 120.0
            },
            {
                "start_time": 7.6954545,
                "end_time": 7.8272727,
                "pitch": 52,
                "velocity": 64,
                "duration": 0.1318182,
                "tempo": 120.0
            },
            {
                "start_time": 7.8613636,
                "end_time": 7.9931818,
                "pitch": 55,
                "velocity": 64,
                "duration": 0.1318182,
                "tempo": 120.0
            },
            {
                "start_time": 8.0295455,
                "end_time": 8.1613636,
                "pitch": 57,
                "velocity": 64,
                "duration": 0.1318182,
                "tempo": 120.0
            },
            {
                "start_time": 8.1954545,
                "end_time": 8.3272727,
                "pitch": 59,
                "velocity": 64,
                "duration": 0.1318182,
                "tempo": 120.0
            },
            {
                "start_time": 8.3636364,
                "end_time": 8.4954545,
                "pitch": 60,
                "velocity": 64,
                "duration": 0.1318182,
                "tempo": 120.0
            }
        ],
        "Flute": [
            {
                "start_time": 64.825,
                "end_time": 65.5340909,
                "pitch": 93,
                "velocity": 80,
                "duration": 0.7090909,
                "tempo": 120.0
            },
            {
                "start_time": 65.5659091,
                "end_time": 65.7840909,
                "pitch": 88,
                "velocity": 80,
                "duration": 0.2181818,
                "tempo": 120.0
            },
            {
                "start_time": 65.8181818,
                "end_time": 66.0340909,
                "pitch": 86,
                "velocity": 80,
                "duration": 0.2159091,
                "tempo": 120.0
            },
            {
                "start_time": 66.0681818,
                "end_time": 66.5431818,
                "pitch": 81,
                "velocity": 80,
                "duration": 0.475,
                "tempo": 120.0
            },
            {
                "start_time": 66.5772727,
                "end_time": 66.8045455,
                "pitch": 76,
                "velocity": 80,
                "duration": 0.2272727,
                "tempo": 120.0
            },
            {
                "start_time": 66.8409091,
                "end_time": 67.0545455,
                "pitch": 74,
                "velocity": 80,
                "duration": 0.2136364,
                "tempo": 120.0
            },
            {
                "start_time": 67.0863636,
                "end_time": 67.55,
                "pitch": 69,
                "velocity": 80,
                "duration": 0.4636364,
                "tempo": 120.0
            },
            {
                "start_time": 67.5840909,
                "end_time": 67.8,
                "pitch": 64,
                "velocity": 80,
                "duration": 0.2159091,
                "tempo": 120.0
            },
            {
                "start_time": 67.8340909,
                "end_time": 68.0545455,
                "pitch": 62,
                "velocity": 80,
                "duration": 0.2204545,
                "tempo": 120.0
            },
            {
                "start_time": 68.0909091,
                "end_time": 68.8068182,
                "pitch": 57,
                "velocity": 80,
                "duration": 0.7159091,
                "tempo": 120.0
            },
            {
                "start_time": 68.8386364,
                "end_time": 69.5681818,
                "pitch": 69,
                "velocity": 80,
                "duration": 0.7295455,
                "tempo": 120.0
            },
            {
                "start_time": 65.5659091,
                "end_time": 69.6022727,
                "pitch": 54,
                "velocity": 80,
                "duration": 4.0363636,
                "tempo": 120.0
            },
            {
                "start_time": 65.8181818,
                "end_time": 69.8181818,
                "pitch": 88,
                "velocity": 80,
                "duration": 4.0,
                "tempo": 120.0
            },
            {
                "start_time": 69.6022727,
                "end_time": 69.8181818,
                "pitch": 88,
                "velocity": 80,
                "duration": 0.2159091,
                "tempo": 120.0
            },
            {
                "start_time": 69.8522727,
                "end_time": 69.8545455,
                "pitch": 88,
                "velocity": 80,
                "duration": 0.0022727,
                "tempo": 120.0
            },
            {
                "start_time": 69.8545455,
                "end_time": 70.0659091,
                "pitch": 86,
                "velocity": 80,
                "duration": 0.2113636,
                "tempo": 120.0
            },
            {
                "start_time": 66.0681818,
                "end_time": 70.1,
                "pitch": 89,
                "velocity": 80,
                "duration": 4.0318182,
                "tempo": 120.0
            },
            {
                "start_time": 70.1,
                "end_time": 70.5613636,
                "pitch": 81,
                "velocity": 80,
                "duration": 0.4613636,
                "tempo": 120.0
            },
            {
                "start_time": 66.5772727,
                "end_time": 70.5954545,
                "pitch": 43,
                "velocity": 80,
                "duration": 4.0181818,
                "tempo": 120.0
            },
            {
                "start_time": 66.8409091,
                "end_time": 70.8113636,
                "pitch": 76,
                "velocity": 80,
                "duration": 3.9704545,
                "tempo": 120.0
            },
            {
                "start_time": 70.5954545,
                "end_time": 70.8113636,
                "pitch": 76,
                "velocity": 80,
                "duration": 0.2159091,
                "tempo": 120.0
            },
            {
                "start_time": 70.8454545,
                "end_time": 70.8477273,
                "pitch": 76,
                "velocity": 80,
                "duration": 0.0022727,
                "tempo": 120.0
            },
            {
                "start_time": 70.8477273,
                "end_time": 71.0636364,
                "pitch": 74,
                "velocity": 80,
                "duration": 0.2159091,
                "tempo": 120.0
            },
            {
                "start_time": 67.0863636,
                "end_time": 71.0954545,
                "pitch": 77,
                "velocity": 80,
                "duration": 4.0090909,
                "tempo": 120.0
            },
            {
                "start_time": 71.0954545,
                "end_time": 71.3136364,
                "pitch": 69,
                "velocity": 80,
                "duration": 0.2181818,
                "tempo": 120.0
            },
            {
                "start_time": 71.3477273,
                "end_time": 71.5681818,
                "pitch": 69,
                "velocity": 80,
                "duration": 0.2204545,
                "tempo": 120.0
            },
            {
                "start_time": 71.6022727,
                "end_time": 72.2272727,
                "pitch": 67,
                "velocity": 80,
                "duration": 0.625,
                "tempo": 120.0
            },
            {
                "start_time": 72.2272727,
                "end_time": 72.3272727,
                "pitch": 67,
                "velocity": 80,
                "duration": 0.1,
                "tempo": 120.0
            }
        ]
    }
}