{
    "mood": "happy",
    "instruments": {
        "Acoustic Grand Piano": [
            {
                "start_time": 0.0113636,
                "end_time": 0.1045455,
                "pitch": 0,
                "velocity": 4,
                "duration": 0.0931818,
                "tempo": 120.0
            },
            {
                "start_time": 0.1045455,
                "end_time": 1.05,
                "pitch": 0,
                "velocity": 4,
                "duration": 0.9454545,
                "tempo": 120.0
            },
            {
                "start_time": 1.05,
                "end_time": 1.0931818,
                "pitch": 35,
                "velocity": 101,
                "duration": 0.0431818,
                "tempo": 120.0
            },
            {
                "start_time": 1.1636364,
                "end_time": 1.2909091,
                "pitch": 35,
                "velocity": 4,
                "duration": 0.1272727,
                "tempo": 120.0
            },
            {
                "start_time": 1.2909091,
                "end_time": 1.3340909,
                "pitch": 35,
                "velocity": 101,
                "duration": 0.0431818,
                "tempo": 120.0
            },
            {
                "start_time": 1.4090909,
                "end_time": 1.5318182,
                "pitch": 35,
                "velocity": 4,
                "duration": 0.1227273,
                "tempo": 120.0
            },
            {
                "start_time": 1.5318182,
                "end_time": 1.5727273,
                "pitch": 38,
                "velocity": 4,
                "duration": 0.0409091,
                "tempo": 120.0
            },
            {
                "start_time": 1.5318182,
                "end_time": 1.5727273,
                "pitch": 38,
                "velocity": 101,
                "duration": 0.0409091,
                "tempo": 120.0
            },
            {
                "start_time": 1.6522727,
                "end_time": 1.6909091,
                "pitch": 40,
                "velocity": 101,
                "duration": 0.0386364,
                "tempo": 120.0
            },
            {
                "start_time": 1.7613636,
                "end_time": 1.8090909,
                "pitch": 28,
                "velocity": 101,
                "duration": 0.0477273,
                "tempo": 120.0
            },
            {
                "start_time": 1.8863636,
                "end_time": 1.9272727,
                "pitch": 40,
                "velocity": 101,
                "duration": 0.0409091,
                "tempo": 120.0
            },
            {
                "start_time": 2.0045455,
                "end_time": 2.0772727,
                "pitch": 28,
                "velocity": 101,
                "duration": 0.0727273,
                "tempo": 120.0
            },
            {
                "start_time": 2.2363636,
                "end_time": 2.2772727,
                "pitch": 31,
                "velocity": 101,
                "duration": 0.0409091,
                "tempo": 120.0
            },
            {
                "start_time": 2.35,
                "end_time": 2.4681818,
                "pitch": 31,
                "velocity": 4,
                "duration": 0.1181818,
                "tempo": 120.0
            },
            {
                "start_time": 2.4681818,
                "end_time": 2.5113636,
                "pitch": 33,
                "velocity": 4,
                "duration": 0.0431818,
                "tempo": 120.0
            },
            {
                "start_time": 2.4681818,
                "end_time": 2.5113636,
                "pitch": 33,
                "velocity": 101,
                "duration": 0.0431818,
                "tempo": 120.0
            },
            {
                "start_time": 2.5840909,
                "end_time": 2.6931818,
                "pitch": 33,
                "velocity": 4,
                "duration": 0.1090909,
                "tempo": 120.0
            },
            {
                "start_time": 2.6931818,
                "end_time": 2.7409091,
                "pitch": 31,
                "velocity": 4,
                "duration": 0.0477273,
                "tempo": 120.0
            },
            {
                "start_time": 2.6954545,
                "end_time": 2.7409091,
                "pitch": 31,
                "velocity": 101,
                "duration": 0.0454545,
                "tempo": 120.0
            },
            {
                "start_time": 2.8136364,
                "end_time": 2.925,
                "pitch": 31,
                "velocity": 4,
                "duration": 0.1113636,
                "tempo": 120.0
            },
            {
                "start_time": 2.925,
                "end_time": 3.0568182,
                "pitch": 33,
                "velocity": 4,
                "duration": 0.1318182,
                "tempo": 120.0
            },
            {
                "start_time": 2.9272727,
                "end_time": 3.0568182,
                "pitch": 33,
                "velocity": 101,
                "duration": 0.1295455,
                "tempo": 120.0
            },
            {
                "start_time": 3.275,
                "end_time": 3.325,
                "pitch": 35,
                "velocity": 101,
                "duration": 0.05,
                "tempo": 120.0
            },
            {
                "start_time": 3.3909091,
                "end_time": 3.5113636,
                "pitch": 35,
                "velocity": 4,
                "duration": 0.1204545,
                "tempo": 120.0
            },
            {
                "start_time": 3.5113636,
                "end_time": 3.5545455,
                "pitch": 33,
                "velocity": 101,
                "duration": 0.0431818,
                "tempo": 120.0
            },
            {
                "start_time": 3.625,
                "end_time": 3.6704545,
                "pitch": 31,
                "velocity": 101,
                "duration": 0.0454545,
                "tempo": 120.0
            },
            {
                "start_time": 3.7363636,
                "end_time": 3.8181818,
                "pitch": 28,
                "velocity": 101,
                "duration": 0.0818182,
                "tempo": 120.0
            },
            {
                "start_time": 3.9704545,
                "end_time": 4.0181818,
                "pitch": 40,
                "velocity": 101,
                "duration": 0.0477273,
                "tempo": 120.0
            },
            {
                "start_time": 4.0886364,
                "end_time": 4.1340909,
                "pitch": 31,
                "velocity": 101,
                "duration": 0.0454545,
                "tempo": 120.0
            },
            {
                "start_time": 4.2113636,
                "end_time": 4.2522727,
                "pitch": 43,
                "velocity": 101,
                "duration": 0.0409091,
                "tempo": 120.0
            },
            {
                "start_time": 4.3227273,
                "end_time": 4.4045455,
                "pitch": 33,
                "velocity": 101,
                "duration": 0.0818182,
                "tempo": 120.0
            },
            {
                "start_time": 4.5636364,
                "end_time": 4.6045455,
                "pitch": 31,
                "velocity": 101,
                "duration": 0.0409091,
                "tempo": 120.0
            },
            {
                "start_time": 4.675,
                "end_time": 4.7227273,
                "pitch": 28,
                "velocity": 101,
                "duration": 0.0477273,
                "tempo": 120.0
            },
            {
                "start_time": 4.7931818,
                "end_time": 4.8386364,
                "pitch": 45,
                "velocity": 101,
                "duration": 0.0454545,
                "tempo": 120.0
            },
            {
                "start_time": 4.9159091,
                "end_time": 4.9568182,
                "pitch": 28,
                "velocity": 101,
                "duration": 0.0409091,
                "tempo": 120.0
            },
            {
                "start_time": 5.025,
                "end_time": 5.075,
                "pitch": 46,
                "velocity": 101,
                "duration": 0.05,
                "tempo": 120.0
            },
            {
                "start_time": 5.1454545,
                "end_time": 5.225,
                "pitch": 47,
                "velocity": 101,
                "duration": 0.0795455,
                "tempo": 120.0
            },
            {
                "start_time": 5.375,
                "end_time": 5.4227273,
                "pitch": 28,
                "velocity": 101,
                "duration": 0.0477273,
                "tempo": 120.0
            },
            {
                "start_time": 5.4931818,
                "end_time": 5.5386364,
                "pitch": 42,
                "velocity": 101,
                "duration": 0.0454545,
                "tempo": 120.0
            },
            {
                "start_time": 5.6068182,
                "end_time": 5.6522727,
                "pitch": 43,
                "velocity": 101,
                "duration": 0.0454545,
                "tempo": 120.0
            },
            {
                "start_time": 5.725,
                "end_time": 5.8022727,
                "pitch": 28,
                "velocity": 101,
                "duration": 0.0772727,
                "tempo": 120.0
            },
            {
                "start_time": 5.9568182,
                "end_time": 6.0022727,
                "pitch": 31,
                "velocity": 101,
                "duration": 0.0454545,
                "tempo": 120.0
            },
            {
                "start_time": 6.075,
                "end_time": 6.1909091,
                "pitch": 31,
                "velocity": 4,
                "duration": 0.1159091,
                "tempo": 120.0
            },
            {
                "start_time": 6.1909091,
                "end_time": 6.1931818,
                "pitch": 33,
                "velocity": 4,
                "duration": 0.0022727,
                "tempo": 120.0
            },
            {
                "start_time": 6.1931818,
                "end_time": 6.2386364,
                "pitch": 33,
                "velocity": 101,
                "duration": 0.0454545,
                "tempo": 120.0
            },
            {
                "start_time": 6.3113636,
                "end_time": 6.425,
                "pitch": 33,
                "velocity": 4,
                "duration": 0.1136364,
                "tempo": 120.0
            },
            {
                "start_time": 6.425,
                "end_time": 6.4727273,
                "pitch": 31,
                "velocity": 4,
                "duration": 0.0477273,
                "tempo": 120.0
            },
            {
                "start_time": 6.425,
                "end_time": 6.4727273,
                "pitch": 31,
                "velocity": 101,
                "duration": 0.0477273,
                "tempo": 120.0
            },
            {
                "start_time": 6.5477273,
                "end_time": 6.6613636,
                "pitch": 31,
                "velocity": 4,
                "duration": 0.1136364,
                "tempo": 120.0
            },
            {
                "start_time": 6.6613636,
                "end_time": 6.7909091,
                "pitch": 33,
                "velocity": 4,
                "duration": 0.1295455,
                "tempo": 120.0
            },
            {
                "start_time": 6.6613636,
                "end_time": 6.7909091,
                "pitch": 33,
                "velocity": 101,
                "duration": 0.1295455,
                "tempo": 120.0
            },
            {
                "start_time": 7.0113636,
                "end_time": 7.0590909,
                "pitch": 35,
                "velocity": 101,
                "duration": 0.0477273,
                "tempo": 120.0
            },
            {
                "start_time": 7.1272727,
                "end_time": 7.2454545,
                "pitch": 35,
                "velocity": 4,
                "duration": 0.1181818,
                "tempo": 120.0
            },
            {
                "start_time": 7.2454545,
                "end_time": 7.2909091,
                "pitch": 33,
                "velocity": 101,
                "duration": 0.0454545,
                "tempo": 120.0
            },
            {
                "start_time": 7.3590909,
                "end_time": 7.4045455,
                "pitch": 31,
                "velocity": 101,
                "duration": 0.0454545,
                "tempo": 120.0
            },
            {
                "start_time": 7.4727273,
                "end_time": 7.5522727,
                "pitch": 28,
                "velocity": 101,
                "duration": 0.0795455,
                "tempo": 120.0
            },
            {
                "start_time": 7.7068182,
                "end_time": 7.7522727,
                "pitch": 40,
                "velocity": 101,
                "duration": 0.0454545,
                "tempo": 120.0
            },
            {
                "start_time": 7.8227273,
                "end_time": 7.8704545,
                "pitch": 31,
                "velocity": 101,
                "duration": 0.0477273,
                "tempo": 120.0
            },
            {
                "start_time": 7.9431818,
                "end_time": 7.9886364,
                "pitch": 43,
                "velocity": 101,
                "duration": 0.0454545,
                "tempo": 120.0
            },
            {
                "start_time": 8.0636364,
                "end_time": 8.1386364,
                "pitch": 33,
                "velocity": 101,
                "duration": 0.075,
                "tempo": 120.0
            },
            {
                "start_time": 8.2977273,
                "end_time": 8.3409091,
                "pitch": 31,
                "velocity": 101,
                "duration": 0.0431818,
                "tempo": 120.0
            },
            {
                "start_time": 8.4159091,
                "end_time": 8.4568182,
                "pitch": 28,
                "velocity": 101,
                "duration": 0.0409091,
                "tempo": 120.0
            },
            {
                "start_time": 8.5318182,
                "end_time": 8.575,
                "pitch": 45,
                "velocity": 101,
                "duration": 0.0431818,
                "tempo": 120.0
            },
            {
                "start_time": 8.65,
                "end_time": 8.6931818,
                "pitch": 28,
                "velocity": 101,
                "duration": 0.0431818,
                "tempo": 120.0
            },
            {
                "start_time": 8.7681818,
                "end_time": 8.8090909,
                "pitch": 46,
                "velocity": 101,
                "duration": 0.0409091,
                "tempo": 120.0
            },
            {
                "start_time": 8.8863636,
                "end_time": 8.9613636,
                "pitch": 47,
                "velocity": 101,
                "duration": 0.075,
                "tempo": 120.0
            },
            {
                "start_time": 9.1159091,
                "end_time": 9.1590909,
                "pitch": 28,
                "velocity": 101,
                "duration": 0.0431818,
                "tempo": 120.0
            },
            {
                "start_time": 9.2295455,
                "end_time": 9.2727273,
                "pitch": 42,
                "velocity": 101,
                "duration": 0.0431818,
                "tempo": 120.0
            },
            {
                "start_time": 9.3431818,
                "end_time": 9.3886364,
                "pitch": 43,
                "velocity": 101,
                "duration": 0.0454545,
                "tempo": 120.0
            },
            {
                "start_time": 9.4613636,
                "end_time": 9.5363636,
                "pitch": 28,
                "velocity": 101,
                "duration": 0.075,
                "tempo": 120.0
            },
            {
                "start_time": 9.6954545,
                "end_time": 9.7386364,
                "pitch": 31,
                "velocity": 101,
                "duration": 0.0431818,
                "tempo": 120.0
            },
            {
                "start_time": 9.8113636,
                "end_time": 9.9272727,
                "pitch": 31,
                "velocity": 4,
                "duration": 0.1159091,
                "tempo": 120.0
            },
            {
                "start_time": 9.9272727,
                "end_time": 9.9727273,
                "pitch": 33,
                "velocity": 4,
                "duration": 0.0454545,
                "tempo": 120.0
            },
            {
                "start_time": 9.9272727,
                "end_time": 9.9727273,
                "pitch": 33,
                "velocity": 101,
                "duration": 0.0454545,
                "tempo": 120.0
            },
            {
                "start_time": 10.0454545,
                "end_time": 10.1545455,
                "pitch": 33,
                "velocity": 4,
                "duration": 0.1090909,
                "tempo": 120.0
            },
            {
                "start_time": 10.1545455,
                "end_time": 10.2022727,
                "pitch": 31,
                "velocity": 4,
                "duration": 0.0477273,
                "tempo": 120.0
            },
            {
                "start_time": 10.1545455,
                "end_time": 10.2022727,
                "pitch": 31,
                "velocity": 101,
                "duration": 0.0477273,
                "tempo": 120.0
            },
            {
                "start_time": 10.275,
                "end_time": 10.3863636,
                "pitch": 31,
                "velocity": 4,
                "duration": 0.1113636,
                "tempo": 120.0
            },
            {
                "start_time": 10.3863636,
                "end_time": 10.5181818,
                "pitch": 33,
                "velocity": 4,
                "duration": 0.1318182,
                "tempo": 120.0
            },
            {
                "start_time": 10.3863636,
                "end_time": 10.5181818,
                "pitch": 33,
                "velocity": 101,
                "duration": 0.1318182,
                "tempo": 120.0
            },
            {
                "start_time": 10.7431818,
                "end_time": 10.7931818,
                "pitch": 35,
                "velocity": 101,
                "duration": 0.05,
                "tempo": 120.0
            },
            {
                "start_time": 10.8636364,
                "end_time": 10.9818182,
                "pitch": 35,
                "velocity": 4,
                "duration": 0.1181818,
                "tempo": 120.0
            },
            {
                "start_time": 10.9818182,
                "end_time": 11.0272727,
                "pitch": 33,
                "velocity": 101,
                "duration": 0.0454545,
                "tempo": 120.0
            },
            {
                "start_time": 11.0954545,
                "end_time": 11.1409091,
                "pitch": 31,
                "velocity": 101,
                "duration": 0.0454545,
                "tempo": 120.0
            },
            {
                "start_time": 11.2068182,
                "end_time": 11.2886364,
                "pitch": 28,
                "velocity": 101,
                "duration": 0.0818182,
                "tempo": 120.0
            },
            {
                "start_time": 11.4431818,
                "end_time": 11.4886364,
                "pitch": 40,
                "velocity": 101,
                "duration": 0.0454545,
                "tempo": 120.0
            },
            {
                "start_time": 11.5590909,
                "end_time": 11.6068182,
                "pitch": 31,
                "velocity": 101,
                "duration": 0.0477273,
                "tempo": 120.0
            },
            {
                "start_time": 11.6818182,
                "end_time": 11.7227273,
                "pitch": 43,
                "velocity": 101,
                "duration": 0.0409091,
                "tempo": 120.0
            },
            {
                "start_time": 11.7931818,
                "end_time": 11.8727273,
                "pitch": 33,
                "velocity": 101,
                "duration": 0.0795455,
                "tempo": 120.0
            },
            {
                "start_time": 12.0272727,
                "end_time": 12.0681818,
                "pitch": 31,
                "velocity": 101,
                "duration": 0.0409091,
                "tempo": 120.0
            },
            {
                "start_time": 12.1363636,
                "end_time": 12.1840909,
                "pitch": 28,
                "velocity": 101,
                "duration": 0.0477273,
                "tempo": 120.0
            },
            {
                "start_time": 12.2545455,
                "end_time": 12.3,
                "pitch": 45,
                "velocity": 101,
                "duration": 0.0454545,
                "tempo": 120.0
            },
            {
                "start_time": 12.375,
                "end_time": 12.4181818,
                "pitch": 28,
                "velocity": 101,
                "duration": 0.0431818,
                "tempo": 120.0
            },
            {
                "start_time": 12.4863636,
                "end_time": 12.5340909,
                "pitch": 46,
                "velocity": 101,
                "duration": 0.0477273,
                "tempo": 120.0
            },
            {
                "start_time": 12.6045455,
                "end_time": 12.6863636,
                "pitch": 47,
                "velocity": 101,
                "duration": 0.0818182,
                "tempo": 120.0
            },
            {
                "start_time": 12.8386364,
                "end_time": 12.8863636,
                "pitch": 28,
                "velocity": 101,
                "duration": 0.0477273,
                "tempo": 120.0
            },
            {
                "start_time": 12.9590909,
                "end_time": 13.0045455,
                "pitch": 42,
                "velocity": 101,
                "duration": 0.0454545,
                "tempo": 120.0
            },
            {
                "start_time": 13.075,
                "end_time": 13.1227273,
                "pitch": 43,
                "velocity": 101,
                "duration": 0.0477273,
                "tempo": 120.0
            },
            {
                "start_time": 13.1954545,
                "end_time": 13.2727273,
                "pitch": 28,
                "velocity": 101,
                "duration": 0.0772727,
                "tempo": 120.0
            },
            {
                "start_time": 13.4295455,
                "end_time": 13.475,
                "pitch": 31,
                "velocity": 101,
                "duration": 0.0454545,
                "tempo": 120.0
            },
            {
                "start_time": 13.5454545,
                "end_time": 13.6636364,
                "pitch": 31,
                "velocity": 4,
                "duration": 0.1181818,
                "tempo": 120.0
            },
            {
                "start_time": 13.6636364,
                "end_time": 13.7068182,
                "pitch": 33,
                "velocity": 4,
                "duration": 0.0431818,
                "tempo": 120.0
            },
            {
                "start_time": 13.6636364,
                "end_time": 13.7068182,
                "pitch": 33,
                "velocity": 101,
                "duration": 0.0431818,
                "tempo": 120.0
            },
            {
                "start_time": 13.7795455,
                "end_time": 13.8886364,
                "pitch": 33,
                "velocity": 4,
                "duration": 0.1090909,
                "tempo": 120.0
            },
            {
                "start_time": 13.8886364,
                "end_time": 13.9363636,
                "pitch": 31,
                "velocity": 4,
                "duration": 0.0477273,
                "tempo": 120.0
            },
            {
                "start_time": 13.8909091,
                "end_time": 13.9363636,
                "pitch": 31,
                "velocity": 101,
                "duration": 0.0454545,
                "tempo": 120.0
            },
            {
                "start_time": 14.0090909,
                "end_time": 14.1227273,
                "pitch": 31,
                "velocity": 4,
                "duration": 0.1136364,
                "tempo": 120.0
            },
            {
                "start_time": 14.1227273,
                "end_time": 14.2522727,
                "pitch": 33,
                "velocity": 4,
                "duration": 0.1295455,
                "tempo": 120.0
            },
            {
                "start_time": 14.1227273,
                "end_time": 14.2522727,
                "pitch": 33,
                "velocity": 101,
                "duration": 0.1295455,
                "tempo": 120.0
            },
            {
                "start_time": 14.4704545,
                "end_time": 14.5204545,
                "pitch": 35,
                "velocity": 101,
                "duration": 0.05,
                "tempo": 120.0
            },
            {
                "start_time": 14.5863636,
                "end_time": 14.7068182,
                "pitch": 35,
                "velocity": 4,
                "duration": 0.1204545,
                "tempo": 120.0
            },
            {
                "start_time": 14.7068182,
                "end_time": 14.75,
                "pitch": 33,
                "velocity": 101,
                "duration": 0.0431818,
                "tempo": 120.0
            },
            {
                "start_time": 14.8181818,
                "end_time": 14.8659091,
                "pitch": 31,
                "velocity": 101,
                "duration": 0.0477273,
                "tempo": 120.0
            },
            {
                "start_time": 14.9318182,
                "end_time": 15.0136364,
                "pitch": 28,
                "velocity": 101,
                "duration": 0.0818182,
                "tempo": 120.0
            },
            {
                "start_time": 15.1704545,
                "end_time": 15.2522727,
                "pitch": 40,
                "velocity": 101,
                "duration": 0.0818182,
                "tempo": 120.0
            },
            {
                "start_time": 15.4113636,
                "end_time": 15.4568182,
                "pitch": 40,
                "velocity": 101,
                "duration": 0.0454545,
                "tempo": 120.0
            },
            {
                "start_time": 15.5363636,
                "end_time": 15.5772727,
                "pitch": 30,
                "velocity": 101,
                "duration": 0.0409091,
                "tempo": 120.0
            },
            {
                "start_time": 15.6477273,
                "end_time": 15.7272727,
                "pitch": 42,
                "velocity": 101,
                "duration": 0.0795455,
                "tempo": 120.0
            },
            {
                "start_time": 15.8840909,
                "end_time": 15.9295455,
                "pitch": 42,
                "velocity": 101,
                "duration": 0.0454545,
                "tempo": 120.0
            },
            {
                "start_time": 16.0045455,
                "end_time": 16.0454545,
                "pitch": 31,
                "velocity": 101,
                "duration": 0.0409091,
                "tempo": 120.0
            },
            {
                "start_time": 16.1159091,
                "end_time": 16.1590909,
                "pitch": 43,
                "velocity": 101,
                "duration": 0.0431818,
                "tempo": 120.0
            },
            {
                "start_time": 16.2295455,
                "end_time": 16.275,
                "pitch": 45,
                "velocity": 101,
                "duration": 0.0454545,
                "tempo": 120.0
            },
            {
                "start_time": 16.3454545,
                "end_time": 16.3886364,
                "pitch": 31,
                "velocity": 101,
                "duration": 0.0431818,
                "tempo": 120.0
            },
            {
                "start_time": 16.4636364,
                "end_time": 16.5045455,
                "pitch": 50,
                "velocity": 101,
                "duration": 0.0409091,
                "tempo": 120.0
            },
            {
                "start_time": 16.575,
                "end_time": 16.6227273,
                "pitch": 28,
                "velocity": 101,
                "duration": 0.0477273,
                "tempo": 120.0
            },
            {
                "start_time": 16.6931818,
                "end_time": 16.7409091,
                "pitch": 50,
                "velocity": 101,
                "duration": 0.0477273,
                "tempo": 120.0
            },
            {
                "start_time": 16.8136364,
                "end_time": 16.8568182,
                "pitch": 52,
                "velocity": 101,
                "duration": 0.0431818,
                "tempo": 120.0
            },
            {
                "start_time": 16.9340909,
                "end_time": 16.975,
                "pitch": 28,
                "velocity": 101,
                "duration": 0.0409091,
                "tempo": 120.0
            },
            {
                "start_time": 17.0454545,
                "end_time": 17.125,
                "pitch": 40,
                "velocity": 101,
                "duration": 0.0795455,
                "tempo": 120.0
            },
            {
                "start_time": 17.2795455,
                "end_time": 17.3272727,
                "pitch": 40,
                "velocity": 101,
                "duration": 0.0477273,
                "tempo": 120.0
            },
            {
                "start_time": 17.4022727,
                "end_time": 17.4454545,
                "pitch": 42,
                "velocity": 101,
                "duration": 0.0431818,
                "tempo": 120.0
            },
            {
                "start_time": 17.5136364,
                "end_time": 17.5613636,
                "pitch": 30,
                "velocity": 101,
                "duration": 0.0477273,
                "tempo": 120.0
            },
            {
                "start_time": 17.6318182,
                "end_time": 17.6795455,
                "pitch": 42,
                "velocity": 101,
                "duration": 0.0477273,
                "tempo": 120.0
            },
            {
                "start_time": 17.7545455,
                "end_time": 17.7977273,
                "pitch": 30,
                "velocity": 101,
                "duration": 0.0431818,
                "tempo": 120.0
            },
            {
                "start_time": 17.8659091,
                "end_time": 17.9136364,
                "pitch": 43,
                "velocity": 101,
                "duration": 0.0477273,
                "tempo": 120.0
            },
            {
                "start_time": 17.9795455,
                "end_time": 18.0272727,
                "pitch": 28,
                "velocity": 101,
                "duration": 0.0477273,
                "tempo": 120.0
            },
            {
                "start_time": 18.0977273,
                "end_time": 18.1431818,
                "pitch": 45,
                "velocity": 101,
                "duration": 0.0454545,
                "tempo": 120.0
            },
            {
                "start_time": 18.2090909,
                "end_time": 18.2909091,
                "pitch": 43,
                "velocity": 101,
                "duration": 0.0818182,
                "tempo": 120.0
            },
            {
                "start_time": 18.4386364,
                "end_time": 18.4863636,
                "pitch": 35,
                "velocity": 101,
                "duration": 0.0477273,
                "tempo": 120.0
            },
            {
                "start_time": 18.5568182,
                "end_time": 18.6022727,
                "pitch": 38,
                "velocity": 101,
                "duration": 0.0454545,
                "tempo": 120.0
            },
            {
                "start_time": 18.6681818,
                "end_time": 18.7159091,
                "pitch": 40,
                "velocity": 101,
                "duration": 0.0477273,
                "tempo": 120.0
            },
            {
                "start_time": 18.7886364,
                "end_time": 18.8318182,
                "pitch": 28,
                "velocity": 101,
                "duration": 0.0431818,
                "tempo": 120.0
            },
            {
                "start_time": 18.9068182,
                "end_time": 18.9863636,
                "pitch": 40,
                "velocity": 101,
                "duration": 0.0795455,
                "tempo": 120.0
            },
            {
                "start_time": 19.1477273,
                "end_time": 19.1931818,
                "pitch": 40,
                "velocity": 101,
                "duration": 0.0454545,
                "tempo": 120.0
            },
            {
                "start_time": 19.2681818,
                "end_time": 19.3113636,
                "pitch": 43,
                "velocity": 101,
                "duration": 0.0431818,
                "tempo": 120.0
            },
            {
                "start_time": 19.3795455,
                "end_time": 19.425,
                "pitch": 31,
                "velocity": 101,
                "duration": 0.0454545,
                "tempo": 120.0
            },
            {
                "start_time": 19.4954545,
                "end_time": 19.5409091,
                "pitch": 43,
                "velocity": 101,
                "duration": 0.0454545,
                "tempo": 120.0
            },
            {
                "start_time": 19.6159091,
                "end_time": 19.6545455,
                "pitch": 31,
                "velocity": 101,
                "duration": 0.0386364,
                "tempo": 120.0
            },
            {
                "start_time": 19.7227273,
                "end_time": 19.7704545,
                "pitch": 45,
                "velocity": 101,
                "duration": 0.0477273,
                "tempo": 120.0
            },
            {
                "start_time": 19.8409091,
                "end_time": 19.8886364,
                "pitch": 28,
                "velocity": 101,
                "duration": 0.0477273,
                "tempo": 120.0
            },
            {
                "start_time": 19.9590909,
                "end_time": 20.0068182,
                "pitch": 46,
                "velocity": 101,
                "duration": 0.0477273,
                "tempo": 120.0
            },
            {
                "start_time": 20.075,
                "end_time": 20.1568182,
                "pitch": 47,
                "velocity": 101,
                "duration": 0.0818182,
                "tempo": 120.0
            },
            {
                "start_time": 20.3090909,
                "end_time": 20.3545455,
                "pitch": 45,
                "velocity": 101,
                "duration": 0.0454545,
                "tempo": 120.0
            },
            {
                "start_time": 20.425,
                "end_time": 20.4681818,
                "pitch": 47,
                "velocity": 101,
                "duration": 0.0431818,
                "tempo": 120.0
            },
            {
                "start_time": 20.5386364,
                "end_time": 20.5840909,
                "pitch": 26,
                "velocity": 101,
                "duration": 0.0454545,
                "tempo": 120.0
            },
            {
                "start_time": 20.6568182,
                "end_time": 20.7,
                "pitch": 28,
                "velocity": 101,
                "duration": 0.0431818,
                "tempo": 120.0
            },
            {
                "start_time": 20.7727273,
                "end_time": 20.8545455,
                "pitch": 40,
                "velocity": 101,
                "duration": 0.0818182,
                "tempo": 120.0
            },
            {
                "start_time": 21.0136364,
                "end_time": 21.0613636,
                "pitch": 40,
                "velocity": 101,
                "duration": 0.0477273,
                "tempo": 120.0
            },
            {
                "start_time": 21.1363636,
                "end_time": 21.1795455,
                "pitch": 42,
                "velocity": 101,
                "duration": 0.0431818,
                "tempo": 120.0
            },
            {
                "start_time": 21.2477273,
                "end_time": 21.2931818,
                "pitch": 30,
                "velocity": 101,
                "duration": 0.0454545,
                "tempo": 120.0
            },
            {
                "start_time": 21.3636364,
                "end_time": 21.4090909,
                "pitch": 42,
                "velocity": 101,
                "duration": 0.0454545,
                "tempo": 120.0
            },
            {
                "start_time": 21.4818182,
                "end_time": 21.5227273,
                "pitch": 30,
                "velocity": 101,
                "duration": 0.0409091,
                "tempo": 120.0
            },
            {
                "start_time": 21.5909091,
                "end_time": 21.6386364,
                "pitch": 43,
                "velocity": 101,
                "duration": 0.0477273,
                "tempo": 120.0
            },
            {
                "start_time": 21.7068182,
                "end_time": 21.7568182,
                "pitch": 28,
                "velocity": 101,
                "duration": 0.05,
                "tempo": 120.0
            },
            {
                "start_time": 21.8272727,
                "end_time": 21.875,
                "pitch": 45,
                "velocity": 101,
                "duration": 0.0477273,
                "tempo": 120.0
            },
            {
                "start_time": 21.9431818,
                "end_time": 22.025,
                "pitch": 43,
                "velocity": 101,
                "duration": 0.0818182,
                "tempo": 120.0
            },
            {
                "start_time": 22.175,
                "end_time": 22.2227273,
                "pitch": 35,
                "velocity": 101,
                "duration": 0.0477273,
                "tempo": 120.0
            },
            {
                "start_time": 22.2931818,
                "end_time": 22.3363636,
                "pitch": 38,
                "velocity": 101,
                "duration": 0.0431818,
                "tempo": 120.0
            },
            {
                "start_time": 22.4045455,
                "end_time": 22.4522727,
                "pitch": 40,
                "velocity": 101,
                "duration": 0.0477273,
                "tempo": 120.0
            },
            {
                "start_time": 22.525,
                "end_time": 22.5681818,
                "pitch": 38,
                "velocity": 101,
                "duration": 0.0431818,
                "tempo": 120.0
            },
            {
                "start_time": 22.6386364,
                "end_time": 22.6840909,
                "pitch": 28,
                "velocity": 101,
                "duration": 0.0454545,
                "tempo": 120.0
            },
            {
                "start_time": 22.7568182,
                "end_time": 22.8022727,
                "pitch": 38,
                "velocity": 101,
                "duration": 0.0454545,
                "tempo": 120.0
            },
            {
                "start_time": 22.8772727,
                "end_time": 22.9522727,
                "pitch": 40,
                "velocity": 101,
                "duration": 0.075,
                "tempo": 120.0
            },
            {
                "start_time": 23.1090909,
                "end_time": 23.1545455,
                "pitch": 26,
                "velocity": 101,
                "duration": 0.0454545,
                "tempo": 120.0
            },
            {
                "start_time": 23.2272727,
                "end_time": 23.2727273,
                "pitch": 27,
                "velocity": 101,
                "duration": 0.0454545,
                "tempo": 120.0
            },
            {
                "start_time": 23.3431818,
                "end_time": 23.4227273,
                "pitch": 28,
                "velocity": 101,
                "duration": 0.0795455,
                "tempo": 120.0
            },
            {
                "start_time": 23.5772727,
                "end_time": 23.625,
                "pitch": 42,
                "velocity": 101,
                "duration": 0.0477273,
                "tempo": 120.0
            },
            {
                "start_time": 23.6931818,
                "end_time": 23.7409091,
                "pitch": 28,
                "velocity": 101,
                "duration": 0.0477273,
                "tempo": 120.0
            },
            {
                "start_time": 23.8136364,
                "end_time": 23.8590909,
                "pitch": 42,
                "velocity": 101,
                "duration": 0.0454545,
                "tempo": 120.0
            },
            {
                "start_time": 23.9295455,
                "end_time": 23.975,
                "pitch": 28,
                "velocity": 101,
                "duration": 0.0454545,
                "tempo": 120.0
            },
            {
                "start_time": 24.0454545,
                "end_time": 24.0909091,
                "pitch": 42,
                "velocity": 101,
                "duration": 0.0454545,
                "tempo": 120.0
            },
            {
                "start_time": 24.1590909,
                "end_time": 24.2363636,
                "pitch": 43,
                "velocity": 101,
                "duration": 0.0772727,
                "tempo": 120.0
            },
            {
                "start_time": 24.3931818,
                "end_time": 24.4363636,
                "pitch": 28,
                "velocity": 101,
                "duration": 0.0431818,
                "tempo": 120.0
            },
            {
                "start_time": 24.5045455,
                "end_time": 24.5863636,
                "pitch": 40,
                "velocity": 101,
                "duration": 0.0818182,
                "tempo": 120.0
            },
            {
                "start_time": 24.7409091,
                "end_time": 24.7886364,
                "pitch": 40,
                "velocity": 101,
                "duration": 0.0477273,
                "tempo": 120.0
            },
            {
                "start_time": 24.8613636,
                "end_time": 24.9045455,
                "pitch": 42,
                "velocity": 101,
                "duration": 0.0431818,
                "tempo": 120.0
            },
            {
                "start_time": 24.975,
                "end_time": 25.0227273,
                "pitch": 30,
                "velocity": 101,
                "duration": 0.0477273,
                "tempo": 120.0
            },
            {
                "start_time": 25.0931818,
                "end_time": 25.1386364,
                "pitch": 42,
                "velocity": 101,
                "duration": 0.0454545,
                "tempo": 120.0
            },
            {
                "start_time": 25.2159091,
                "end_time": 25.2568182,
                "pitch": 30,
                "velocity": 101,
                "duration": 0.0409091,
                "tempo": 120.0
            },
            {
                "start_time": 25.3272727,
                "end_time": 25.375,
                "pitch": 43,
                "velocity": 101,
                "duration": 0.0477273,
                "tempo": 120.0
            },
            {
                "start_time": 25.4431818,
                "end_time": 25.4909091,
                "pitch": 28,
                "velocity": 101,
                "duration": 0.0477273,
                "tempo": 120.0
            },
            {
                "start_time": 25.5636364,
                "end_time": 25.6090909,
                "pitch": 45,
                "velocity": 101,
                "duration": 0.0454545,
                "tempo": 120.0
            },
            {
                "start_time": 25.6772727,
                "end_time": 25.7613636,
                "pitch": 43,
                "velocity": 101,
                "duration": 0.0840909,
                "tempo": 120.0
            },
            {
                "start_time": 25.9090909,
                "end_time": 25.9568182,
                "pitch": 35,
                "velocity": 101,
                "duration": 0.0477273,
                "tempo": 120.0
            },
            {
                "start_time": 26.0272727,
                "end_time": 26.0727273,
                "pitch": 38,
                "velocity": 101,
                "duration": 0.0454545,
                "tempo": 120.0
            },
            {
                "start_time": 26.1409091,
                "end_time": 26.1863636,
                "pitch": 40,
                "velocity": 101,
                "duration": 0.0454545,
                "tempo": 120.0
            },
            {
                "start_time": 26.2590909,
                "end_time": 26.3022727,
                "pitch": 28,
                "velocity": 101,
                "duration": 0.0431818,
                "tempo": 120.0
            },
            {
                "start_time": 26.375,
                "end_time": 26.4545455,
                "pitch": 40,
                "velocity": 101,
                "duration": 0.0795455,
                "tempo": 120.0
            },
            {
                "start_time": 26.6113636,
                "end_time": 26.6545455,
                "pitch": 40,
                "velocity": 101,
                "duration": 0.0431818,
                "tempo": 120.0
            },
            {
                "start_time": 26.7295455,
                "end_time": 26.7727273,
                "pitch": 43,
                "velocity": 101,
                "duration": 0.0431818,
                "tempo": 120.0
            },
            {
                "start_time": 26.8431818,
                "end_time": 26.8909091,
                "pitch": 31,
                "velocity": 101,
                "duration": 0.0477273,
                "tempo": 120.0
            },
            {
                "start_time": 26.9613636,
                "end_time": 27.0068182,
                "pitch": 43,
                "velocity": 101,
                "duration": 0.0454545,
                "tempo": 120.0
            },
            {
                "start_time": 27.0840909,
                "end_time": 27.125,
                "pitch": 31,
                "velocity": 101,
                "duration": 0.0409091,
                "tempo": 120.0
            },
            {
                "start_time": 27.1931818,
                "end_time": 27.2431818,
                "pitch": 45,
                "velocity": 101,
                "duration": 0.05,
                "tempo": 120.0
            },
            {
                "start_time": 27.3136364,
                "end_time": 27.3590909,
                "pitch": 28,
                "velocity": 101,
                "duration": 0.0454545,
                "tempo": 120.0
            },
            {
                "start_time": 27.4318182,
                "end_time": 27.4772727,
                "pitch": 46,
                "velocity": 101,
                "duration": 0.0454545,
                "tempo": 120.0
            },
            {
                "start_time": 27.5477273,
                "end_time": 27.6272727,
                "pitch": 47,
                "velocity": 101,
                "duration": 0.0795455,
                "tempo": 120.0
            },
            {
                "start_time": 27.7795455,
                "end_time": 27.825,
                "pitch": 45,
                "velocity": 101,
                "duration": 0.0454545,
                "tempo": 120.0
            },
            {
                "start_time": 27.8954545,
                "end_time": 27.9409091,
                "pitch": 47,
                "velocity": 101,
                "duration": 0.0454545,
                "tempo": 120.0
            },
            {
                "start_time": 28.0090909,
                "end_time": 28.0545455,
                "pitch": 26,
                "velocity": 101,
                "duration": 0.0454545,
                "tempo": 120.0
            },
            {
                "start_time": 28.1272727,
                "end_time": 28.1704545,
                "pitch": 28,
                "velocity": 101,
                "duration": 0.0431818,
                "tempo": 120.0
            },
            {
                "start_time": 28.2409091,
                "end_time": 28.3227273,
                "pitch": 40,
                "velocity": 101,
                "duration": 0.0818182,
                "tempo": 120.0
            },
            {
                "start_time": 28.475,
                "end_time": 28.5227273,
                "pitch": 40,
                "velocity": 101,
                "duration": 0.0477273,
                "tempo": 120.0
            },
            {
                "start_time": 28.5977273,
                "end_time": 28.6409091,
                "pitch": 42,
                "velocity": 101,
                "duration": 0.0431818,
                "tempo": 120.0
            },
            {
                "start_time": 28.7090909,
                "end_time": 28.7568182,
                "pitch": 30,
                "velocity": 101,
                "duration": 0.0477273,
                "tempo": 120.0
            },
            {
                "start_time": 28.8272727,
                "end_time": 28.875,
                "pitch": 42,
                "velocity": 101,
                "duration": 0.0477273,
                "tempo": 120.0
            },
            {
                "start_time": 28.9522727,
                "end_time": 28.9931818,
                "pitch": 30,
                "velocity": 101,
                "duration": 0.0409091,
                "tempo": 120.0
            },
            {
                "start_time": 29.0613636,
                "end_time": 29.1090909,
                "pitch": 43,
                "velocity": 101,
                "duration": 0.0477273,
                "tempo": 120.0
            },
            {
                "start_time": 29.1795455,
                "end_time": 29.2272727,
                "pitch": 28,
                "velocity": 101,
                "duration": 0.0477273,
                "tempo": 120.0
            },
            {
                "start_time": 29.2977273,
                "end_time": 29.3454545,
                "pitch": 45,
                "velocity": 101,
                "duration": 0.0477273,
                "tempo": 120.0
            },
            {
                "start_time": 29.4136364,
                "end_time": 29.4954545,
                "pitch": 43,
                "velocity": 101,
                "duration": 0.0818182,
                "tempo": 120.0
            },
            {
                "start_time": 29.6454545,
                "end_time": 29.6931818,
                "pitch": 35,
                "velocity": 101,
                "duration": 0.0477273,
                "tempo": 120.0
            },
            {
                "start_time": 29.7636364,
                "end_time": 29.8090909,
                "pitch": 38,
                "velocity": 101,
                "duration": 0.0454545,
                "tempo": 120.0
            },
            {
                "start_time": 29.875,
                "end_time": 29.9227273,
                "pitch": 40,
                "velocity": 101,
                "duration": 0.0477273,
                "tempo": 120.0
            },
            {
                "start_time": 29.9954545,
                "end_time": 30.0386364,
                "pitch": 33,
                "velocity": 101,
                "duration": 0.0431818,
                "tempo": 120.0
            },
            {
                "start_time": 30.1159091,
                "end_time": 30.2409091,
                "pitch": 45,
                "velocity": 101,
                "duration": 0.125,
                "tempo": 120.0
            },
            {
                "start_time": 30.4704545,
                "end_time": 30.5090909,
                "pitch": 31,
                "velocity": 101,
                "duration": 0.0386364,
                "tempo": 120.0
            },
            {
                "start_time": 30.5772727,
                "end_time": 30.6954545,
                "pitch": 31,
                "velocity": 4,
                "duration": 0.1181818,
                "tempo": 120.0
            },
            {
                "start_time": 30.6977273,
                "end_time": 30.7431818,
                "pitch": 31,
                "velocity": 101,
                "duration": 0.0454545,
                "tempo": 120.0
            },
            {
                "start_time": 30.8159091,
                "end_time": 30.9363636,
                "pitch": 31,
                "velocity": 4,
                "duration": 0.1204545,
                "tempo": 120.0
            },
            {
                "start_time": 30.9363636,
                "end_time": 30.9772727,
                "pitch": 42,
                "velocity": 4,
                "duration": 0.0409091,
                "tempo": 120.0
            },
            {
                "start_time": 30.9363636,
                "end_time": 30.9772727,
                "pitch": 42,
                "velocity": 101,
                "duration": 0.0409091,
                "tempo": 120.0
            },
            {
                "start_time": 31.0477273,
                "end_time": 31.0954545,
                "pitch": 30,
                "velocity": 101,
                "duration": 0.0477273,
                "tempo": 120.0
            },
            {
                "start_time": 31.1659091,
                "end_time": 31.2136364,
                "pitch": 42,
                "velocity": 101,
                "duration": 0.0477273,
                "tempo": 120.0
            },
            {
                "start_time": 31.2840909,
                "end_time": 31.3636364,
                "pitch": 30,
                "velocity": 101,
                "duration": 0.0795455,
                "tempo": 120.0
            },
            {
                "start_time": 31.5136364,
                "end_time": 31.5613636,
                "pitch": 31,
                "velocity": 101,
                "duration": 0.0477273,
                "tempo": 120.0
            },
            {
                "start_time": 31.6295455,
                "end_time": 31.675,
                "pitch": 28,
                "velocity": 101,
                "duration": 0.0454545,
                "tempo": 120.0
            },
            {
                "start_time": 31.7522727,
                "end_time": 31.7909091,
                "pitch": 52,
                "velocity": 101,
                "duration": 0.0386364,
                "tempo": 120.0
            },
            {
                "start_time": 31.8568182,
                "end_time": 33.7181818,
                "pitch": 52,
                "velocity": 4,
                "duration": 1.8613636,
                "tempo": 120.0
            },
            {
                "start_time": 33.7181818,
                "end_time": 33.7977273,
                "pitch": 28,
                "velocity": 101,
                "duration": 0.0795455,
                "tempo": 120.0
            },
            {
                "start_time": 33.9590909,
                "end_time": 34.0045455,
                "pitch": 31,
                "velocity": 101,
                "duration": 0.0454545,
                "tempo": 120.0
            },
            {
                "start_time": 34.0795455,
                "end_time": 34.1977273,
                "pitch": 31,
                "velocity": 4,
                "duration": 0.1181818,
                "tempo": 120.0
            },
            {
                "start_time": 34.1977273,
                "end_time": 34.2431818,
                "pitch": 33,
                "velocity": 4,
                "duration": 0.0454545,
                "tempo": 120.0
            },
            {
                "start_time": 34.2,
                "end_time": 34.2431818,
                "pitch": 33,
                "velocity": 101,
                "duration": 0.0431818,
                "tempo": 120.0
            },
            {
                "start_time": 34.3159091,
                "end_time": 34.425,
                "pitch": 33,
                "velocity": 4,
                "duration": 0.1090909,
                "tempo": 120.0
            },
            {
                "start_time": 34.425,
                "end_time": 34.4727273,
                "pitch": 31,
                "velocity": 4,
                "duration": 0.0477273,
                "tempo": 120.0
            },
            {
                "start_time": 34.425,
                "end_time": 34.4727273,
                "pitch": 31,
                "velocity": 101,
                "duration": 0.0477273,
                "tempo": 120.0
            },
            {
                "start_time": 34.5454545,
                "end_time": 34.6568182,
                "pitch": 31,
                "velocity": 4,
                "duration": 0.1113636,
                "tempo": 120.0
            },
            {
                "start_time": 34.6568182,
                "end_time": 34.7863636,
                "pitch": 33,
                "velocity": 4,
                "duration": 0.1295455,
                "tempo": 120.0
            },
            {
                "start_time": 34.6568182,
                "end_time": 34.7863636,
                "pitch": 33,
                "velocity": 101,
                "duration": 0.1295455,
                "tempo": 120.0
            },
            {
                "start_time": 35.0068182,
                "end_time": 35.0545455,
                "pitch": 35,
                "velocity": 101,
                "duration": 0.0477273,
                "tempo": 120.0
            },
            {
                "start_time": 35.1227273,
                "end_time": 35.2431818,
                "pitch": 35,
                "velocity": 4,
                "duration": 0.1204545,
                "tempo": 120.0
            },
            {
                "start_time": 35.2431818,
                "end_time": 35.2886364,
                "pitch": 33,
                "velocity": 101,
                "duration": 0.0454545,
                "tempo": 120.0
            },
            {
                "start_time": 35.3613636,
                "end_time": 35.4068182,
                "pitch": 31,
                "velocity": 101,
                "duration": 0.0454545,
                "tempo": 120.0
            },
            {
                "start_time": 35.475,
                "end_time": 35.5590909,
                "pitch": 28,
                "velocity": 101,
                "duration": 0.0840909,
                "tempo": 120.0
            },
            {
                "start_time": 35.7136364,
                "end_time": 35.7590909,
                "pitch": 40,
                "velocity": 101,
                "duration": 0.0454545,
                "tempo": 120.0
            },
            {
                "start_time": 35.8295455,
                "end_time": 35.8772727,
                "pitch": 31,
                "velocity": 101,
                "duration": 0.0477273,
                "tempo": 120.0
            },
            {
                "start_time": 35.9522727,
                "end_time": 35.9931818,
                "pitch": 43,
                "velocity": 101,
                "duration": 0.0409091,
                "tempo": 120.0
            },
            {
                "start_time": 36.0636364,
                "end_time": 36.1431818,
                "pitch": 33,
                "velocity": 101,
                "duration": 0.0795455,
                "tempo": 120.0
            },
            {
                "start_time": 36.3,
                "end_time": 36.3409091,
                "pitch": 31,
                "velocity": 101,
                "duration": 0.0409091,
                "tempo": 120.0
            },
            {
                "start_time": 36.4068182,
                "end_time": 36.4545455,
                "pitch": 28,
                "velocity": 101,
                "duration": 0.0477273,
                "tempo": 120.0
            },
            {
                "start_time": 36.525,
                "end_time": 36.5704545,
                "pitch": 45,
                "velocity": 101,
                "duration": 0.0454545,
                "tempo": 120.0
            },
            {
                "start_time": 36.6454545,
                "end_time": 36.6886364,
                "pitch": 28,
                "velocity": 101,
                "duration": 0.0431818,
                "tempo": 120.0
            },
            {
                "start_time": 36.7568182,
                "end_time": 36.8045455,
                "pitch": 46,
                "velocity": 101,
                "duration": 0.0477273,
                "tempo": 120.0
            },
            {
                "start_time": 36.875,
                "end_time": 36.9568182,
                "pitch": 47,
                "velocity": 101,
                "duration": 0.0818182,
                "tempo": 120.0
            },
            {
                "start_time": 37.1090909,
                "end_time": 37.1568182,
                "pitch": 28,
                "velocity": 101,
                "duration": 0.0477273,
                "tempo": 120.0
            },
            {
                "start_time": 37.2295455,
                "end_time": 37.275,
                "pitch": 42,
                "velocity": 101,
                "duration": 0.0454545,
                "tempo": 120.0
            },
            {
                "start_time": 37.3477273,
                "end_time": 37.3931818,
                "pitch": 43,
                "velocity": 101,
                "duration": 0.0454545,
                "tempo": 120.0
            },
            {
                "start_time": 37.4659091,
                "end_time": 37.5431818,
                "pitch": 28,
                "velocity": 101,
                "duration": 0.0772727,
                "tempo": 120.0
            },
            {
                "start_time": 37.7,
                "end_time": 37.7454545,
                "pitch": 31,
                "velocity": 101,
                "duration": 0.0454545,
                "tempo": 120.0
            },
            {
                "start_time": 37.8159091,
                "end_time": 37.9340909,
                "pitch": 31,
                "velocity": 4,
                "duration": 0.1181818,
                "tempo": 120.0
            },
            {
                "start_time": 37.9340909,
                "end_time": 37.9772727,
                "pitch": 33,
                "velocity": 4,
                "duration": 0.0431818,
                "tempo": 120.0
            },
            {
                "start_time": 37.9340909,
                "end_time": 37.9772727,
                "pitch": 33,
                "velocity": 101,
                "duration": 0.0431818,
                "tempo": 120.0
            },
            {
                "start_time": 38.05,
                "end_time": 38.1590909,
                "pitch": 33,
                "velocity": 4,
                "duration": 0.1090909,
                "tempo": 120.0
            },
            {
                "start_time": 38.1590909,
                "end_time": 38.1613636,
                "pitch": 31,
                "velocity": 4,
                "duration": 0.0022727,
                "tempo": 120.0
            },
            {
                "start_time": 38.1613636,
                "end_time": 38.2068182,
                "pitch": 31,
                "velocity": 101,
                "duration": 0.0454545,
                "tempo": 120.0
            },
            {
                "start_time": 38.2795455,
                "end_time": 38.3909091,
                "pitch": 31,
                "velocity": 4,
                "duration": 0.1113636,
                "tempo": 120.0
            },
            {
                "start_time": 38.3909091,
                "end_time": 38.3931818,
                "pitch": 33,
                "velocity": 4,
                "duration": 0.0022727,
                "tempo": 120.0
            },
            {
                "start_time": 38.3931818,
                "end_time": 38.5227273,
                "pitch": 33,
                "velocity": 101,
                "duration": 0.1295455,
                "tempo": 120.0
            },
            {
                "start_time": 38.7431818,
                "end_time": 38.7909091,
                "pitch": 35,
                "velocity": 101,
                "duration": 0.0477273,
                "tempo": 120.0
            },
            {
                "start_time": 38.8568182,
                "end_time": 38.9772727,
                "pitch": 35,
                "velocity": 4,
                "duration": 0.1204545,
                "tempo": 120.0
            },
            {
                "start_time": 38.9772727,
                "end_time": 39.0204545,
                "pitch": 33,
                "velocity": 101,
                "duration": 0.0431818,
                "tempo": 120.0
            },
            {
                "start_time": 39.0886364,
                "end_time": 39.1363636,
                "pitch": 31,
                "velocity": 101,
                "duration": 0.0477273,
                "tempo": 120.0
            },
            {
                "start_time": 39.2022727,
                "end_time": 39.2840909,
                "pitch": 28,
                "velocity": 101,
                "duration": 0.0818182,
                "tempo": 120.0
            },
            {
                "start_time": 39.4386364,
                "end_time": 39.4840909,
                "pitch": 40,
                "velocity": 101,
                "duration": 0.0454545,
                "tempo": 120.0
            },
            {
                "start_time": 39.5522727,
                "end_time": 39.6022727,
                "pitch": 31,
                "velocity": 101,
                "duration": 0.05,
                "tempo": 120.0
            },
            {
                "start_time": 39.675,
                "end_time": 39.7181818,
                "pitch": 43,
                "velocity": 101,
                "duration": 0.0431818,
                "tempo": 120.0
            },
            {
                "start_time": 39.7954545,
                "end_time": 39.8727273,
                "pitch": 33,
                "velocity": 101,
                "duration": 0.0772727,
                "tempo": 120.0
            },
            {
                "start_time": 40.0340909,
                "end_time": 40.0772727,
                "pitch": 31,
                "velocity": 101,
                "duration": 0.0431818,
                "tempo": 120.0
            },
            {
                "start_time": 40.1545455,
                "end_time": 40.1977273,
                "pitch": 28,
                "velocity": 101,
                "duration": 0.0431818,
                "tempo": 120.0
            },
            {
                "start_time": 40.2727273,
                "end_time": 40.3159091,
                "pitch": 45,
                "velocity": 101,
                "duration": 0.0431818,
                "tempo": 120.0
            },
            {
                "start_time": 40.3886364,
                "end_time": 40.4318182,
                "pitch": 28,
                "velocity": 101,
                "duration": 0.0431818,
                "tempo": 120.0
            },
            {
                "start_time": 40.5045455,
                "end_time": 40.5454545,
                "pitch": 46,
                "velocity": 101,
                "duration": 0.0409091,
                "tempo": 120.0
            },
            {
                "start_time": 40.6181818,
                "end_time": 40.6931818,
                "pitch": 47,
                "velocity": 101,
                "duration": 0.075,
                "tempo": 120.0
            },
            {
                "start_time": 40.8477273,
                "end_time": 40.8886364,
                "pitch": 28,
                "velocity": 101,
                "duration": 0.0409091,
                "tempo": 120.0
            },
            {
                "start_time": 40.9613636,
                "end_time": 41.0045455,
                "pitch": 42,
                "velocity": 101,
                "duration": 0.0431818,
                "tempo": 120.0
            },
            {
                "start_time": 41.0727273,
                "end_time": 41.1181818,
                "pitch": 43,
                "velocity": 101,
                "duration": 0.0454545,
                "tempo": 120.0
            },
            {
                "start_time": 41.1931818,
                "end_time": 41.2681818,
                "pitch": 28,
                "velocity": 101,
                "duration": 0.075,
                "tempo": 120.0
            },
            {
                "start_time": 41.4295455,
                "end_time": 41.475,
                "pitch": 31,
                "velocity": 101,
                "duration": 0.0454545,
                "tempo": 120.0
            },
            {
                "start_time": 41.5477273,
                "end_time": 41.6659091,
                "pitch": 31,
                "velocity": 4,
                "duration": 0.1181818,
                "tempo": 120.0
            },
            {
                "start_time": 41.6659091,
                "end_time": 41.7113636,
                "pitch": 33,
                "velocity": 4,
                "duration": 0.0454545,
                "tempo": 120.0
            },
            {
                "start_time": 41.6659091,
                "end_time": 41.7113636,
                "pitch": 33,
                "velocity": 101,
                "duration": 0.0454545,
                "tempo": 120.0
            },
            {
                "start_time": 41.7840909,
                "end_time": 41.8931818,
                "pitch": 33,
                "velocity": 4,
                "duration": 0.1090909,
                "tempo": 120.0
            },
            {
                "start_time": 41.8931818,
                "end_time": 41.9409091,
                "pitch": 31,
                "velocity": 4,
                "duration": 0.0477273,
                "tempo": 120.0
            },
            {
                "start_time": 41.8931818,
                "end_time": 41.9409091,
                "pitch": 31,
                "velocity": 101,
                "duration": 0.0477273,
                "tempo": 120.0
            },
            {
                "start_time": 42.0136364,
                "end_time": 42.125,
                "pitch": 31,
                "velocity": 4,
                "duration": 0.1113636,
                "tempo": 120.0
            },
            {
                "start_time": 42.125,
                "end_time": 42.2545455,
                "pitch": 33,
                "velocity": 4,
                "duration": 0.1295455,
                "tempo": 120.0
            },
            {
                "start_time": 42.125,
                "end_time": 42.2545455,
                "pitch": 33,
                "velocity": 101,
                "duration": 0.1295455,
                "tempo": 120.0
            },
            {
                "start_time": 42.475,
                "end_time": 42.5227273,
                "pitch": 35,
                "velocity": 101,
                "duration": 0.0477273,
                "tempo": 120.0
            },
            {
                "start_time": 42.5909091,
                "end_time": 42.7090909,
                "pitch": 35,
                "velocity": 4,
                "duration": 0.1181818,
                "tempo": 120.0
            },
            {
                "start_time": 42.7090909,
                "end_time": 42.7545455,
                "pitch": 33,
                "velocity": 101,
                "duration": 0.0454545,
                "tempo": 120.0
            },
            {
                "start_time": 42.8227273,
                "end_time": 42.8681818,
                "pitch": 31,
                "velocity": 101,
                "duration": 0.0454545,
                "tempo": 120.0
            },
            {
                "start_time": 42.9340909,
                "end_time": 43.0159091,
                "pitch": 28,
                "velocity": 101,
                "duration": 0.0818182,
                "tempo": 120.0
            },
            {
                "start_time": 43.1704545,
                "end_time": 43.2159091,
                "pitch": 40,
                "velocity": 101,
                "duration": 0.0454545,
                "tempo": 120.0
            },
            {
                "start_time": 43.2863636,
                "end_time": 43.3340909,
                "pitch": 31,
                "velocity": 101,
                "duration": 0.0477273,
                "tempo": 120.0
            },
            {
                "start_time": 43.4090909,
                "end_time": 43.4522727,
                "pitch": 43,
                "velocity": 101,
                "duration": 0.0431818,
                "tempo": 120.0
            },
            {
                "start_time": 43.5204545,
                "end_time": 43.6022727,
                "pitch": 33,
                "velocity": 101,
                "duration": 0.0818182,
                "tempo": 120.0
            },
            {
                "start_time": 43.7613636,
                "end_time": 43.8022727,
                "pitch": 31,
                "velocity": 101,
                "duration": 0.0409091,
                "tempo": 120.0
            },
            {
                "start_time": 43.8727273,
                "end_time": 43.9204545,
                "pitch": 28,
                "velocity": 101,
                "duration": 0.0477273,
                "tempo": 120.0
            },
            {
                "start_time": 43.9931818,
                "end_time": 44.0386364,
                "pitch": 45,
                "velocity": 101,
                "duration": 0.0454545,
                "tempo": 120.0
            },
            {
                "start_time": 44.1136364,
                "end_time": 44.1545455,
                "pitch": 28,
                "velocity": 101,
                "duration": 0.0409091,
                "tempo": 120.0
            },
            {
                "start_time": 44.225,
                "end_time": 44.2727273,
                "pitch": 46,
                "velocity": 101,
                "duration": 0.0477273,
                "tempo": 120.0
            },
            {
                "start_time": 44.3431818,
                "end_time": 44.425,
                "pitch": 47,
                "velocity": 101,
                "duration": 0.0818182,
                "tempo": 120.0
            },
            {
                "start_time": 44.5772727,
                "end_time": 44.625,
                "pitch": 28,
                "velocity": 101,
                "duration": 0.0477273,
                "tempo": 120.0
            },
            {
                "start_time": 44.6977273,
                "end_time": 44.7431818,
                "pitch": 42,
                "velocity": 101,
                "duration": 0.0454545,
                "tempo": 120.0
            },
            {
                "start_time": 44.8136364,
                "end_time": 44.8590909,
                "pitch": 43,
                "velocity": 101,
                "duration": 0.0454545,
                "tempo": 120.0
            },
            {
                "start_time": 44.9340909,
                "end_time": 45.0113636,
                "pitch": 28,
                "velocity": 101,
                "duration": 0.0772727,
                "tempo": 120.0
            },
            {
                "start_time": 45.1681818,
                "end_time": 45.2113636,
                "pitch": 31,
                "velocity": 101,
                "duration": 0.0431818,
                "tempo": 120.0
            },
            {
                "start_time": 45.2840909,
                "end_time": 45.4022727,
                "pitch": 31,
                "velocity": 4,
                "duration": 0.1181818,
                "tempo": 120.0
            },
            {
                "start_time": 45.4022727,
                "end_time": 45.4454545,
                "pitch": 33,
                "velocity": 4,
                "duration": 0.0431818,
                "tempo": 120.0
            },
            {
                "start_time": 45.4022727,
                "end_time": 45.4454545,
                "pitch": 33,
                "velocity": 101,
                "duration": 0.0431818,
                "tempo": 120.0
            },
            {
                "start_time": 45.5181818,
                "end_time": 45.6272727,
                "pitch": 33,
                "velocity": 4,
                "duration": 0.1090909,
                "tempo": 120.0
            },
            {
                "start_time": 45.6272727,
                "end_time": 45.675,
                "pitch": 31,
                "velocity": 4,
                "duration": 0.0477273,
                "tempo": 120.0
            },
            {
                "start_time": 45.6295455,
                "end_time": 45.675,
                "pitch": 31,
                "velocity": 101,
                "duration": 0.0454545,
                "tempo": 120.0
            },
            {
                "start_time": 45.7477273,
                "end_time": 45.8590909,
                "pitch": 31,
                "velocity": 4,
                "duration": 0.1113636,
                "tempo": 120.0
            },
            {
                "start_time": 45.8590909,
                "end_time": 45.9886364,
                "pitch": 33,
                "velocity": 4,
                "duration": 0.1295455,
                "tempo": 120.0
            },
            {
                "start_time": 45.8613636,
                "end_time": 45.9886364,
                "pitch": 33,
                "velocity": 101,
                "duration": 0.1272727,
                "tempo": 120.0
            },
            {
                "start_time": 46.2090909,
                "end_time": 46.2590909,
                "pitch": 35,
                "velocity": 101,
                "duration": 0.05,
                "tempo": 120.0
            },
            {
                "start_time": 46.325,
                "end_time": 46.4431818,
                "pitch": 35,
                "velocity": 4,
                "duration": 0.1181818,
                "tempo": 120.0
            }
        ],
        "Lead 2 (sawtooth)": [
            {
                "start_time": 0.0113636,
                "end_time": 0.1045455,
                "pitch": 0,
                "velocity": 4,
                "duration": 0.0931818,
                "tempo": 120.0
            },
            {
                "start_time": 0.1045455,
                "end_time": 1.05,
                "pitch": 0,
                "velocity": 4,
                "duration": 0.9454545,
                "tempo": 120.0
            },
            {
                "start_time": 1.05,
                "end_time": 1.1454545,
                "pitch": 74,
                "velocity": 80,
                "duration": 0.0954545,
                "tempo": 120.0
            },
            {
                "start_time": 1.1636364,
                "end_time": 1.2909091,
                "pitch": 74,
                "velocity": 4,
                "duration": 0.1272727,
                "tempo": 120.0
            },
            {
                "start_time": 1.2909091,
                "end_time": 1.3863636,
                "pitch": 73,
                "velocity": 80,
                "duration": 0.0954545,
                "tempo": 120.0
            },
            {
                "start_time": 1.4090909,
                "end_time": 1.5318182,
                "pitch": 73,
                "velocity": 4,
                "duration": 0.1227273,
                "tempo": 120.0
            },
            {
                "start_time": 1.5318182,
                "end_time": 1.625,
                "pitch": 74,
                "velocity": 80,
                "duration": 0.0931818,
                "tempo": 120.0
            },
            {
                "start_time": 1.6522727,
                "end_time": 1.7409091,
                "pitch": 76,
                "velocity": 80,
                "duration": 0.0886364,
                "tempo": 120.0
            },
            {
                "start_time": 1.7613636,
                "end_time": 1.8863636,
                "pitch": 76,
                "velocity": 4,
                "duration": 0.125,
                "tempo": 120.0
            },
            {
                "start_time": 1.8863636,
                "end_time": 1.9772727,
                "pitch": 76,
                "velocity": 80,
                "duration": 0.0909091,
                "tempo": 120.0
            },
            {
                "start_time": 2.0045455,
                "end_time": 2.4136364,
                "pitch": 76,
                "velocity": 80,
                "duration": 0.4090909,
                "tempo": 120.0
            },
            {
                "start_time": 2.4681818,
                "end_time": 3.8545455,
                "pitch": 76,
                "velocity": 4,
                "duration": 1.3863636,
                "tempo": 120.0
            },
            {
                "start_time": 3.8545455,
                "end_time": 5.7227273,
                "pitch": 76,
                "velocity": 4,
                "duration": 1.8681818,
                "tempo": 120.0
            },
            {
                "start_time": 5.725,
                "end_time": 7.5886364,
                "pitch": 76,
                "velocity": 4,
                "duration": 1.8636364,
                "tempo": 120.0
            },
            {
                "start_time": 7.5886364,
                "end_time": 9.4613636,
                "pitch": 76,
                "velocity": 4,
                "duration": 1.8727273,
                "tempo": 120.0
            },
            {
                "start_time": 9.4613636,
                "end_time": 11.325,
                "pitch": 76,
                "velocity": 4,
                "duration": 1.8636364,
                "tempo": 120.0
            },
            {
                "start_time": 11.325,
                "end_time": 13.1954545,
                "pitch": 76,
                "velocity": 4,
                "duration": 1.8704545,
                "tempo": 120.0
            },
            {
                "start_time": 13.1954545,
                "end_time": 15.0545455,
                "pitch": 76,
                "velocity": 4,
                "duration": 1.8590909,
                "tempo": 120.0
            },
            {
                "start_time": 15.0545455,
                "end_time": 15.1477273,
                "pitch": 76,
                "velocity": 80,
                "duration": 0.0931818,
                "tempo": 120.0
            },
            {
                "start_time": 15.1704545,
                "end_time": 15.2681818,
                "pitch": 76,
                "velocity": 80,
                "duration": 0.0977273,
                "tempo": 120.0
            },
            {
                "start_time": 15.2886364,
                "end_time": 15.3886364,
                "pitch": 74,
                "velocity": 80,
                "duration": 0.1,
                "tempo": 120.0
            },
            {
                "start_time": 15.4113636,
                "end_time": 15.5090909,
                "pitch": 71,
                "velocity": 80,
                "duration": 0.0977273,
                "tempo": 120.0
            },
            {
                "start_time": 15.5363636,
                "end_time": 15.6272727,
                "pitch": 74,
                "velocity": 80,
                "duration": 0.0909091,
                "tempo": 120.0
            },
            {
                "start_time": 15.6477273,
                "end_time": 15.7454545,
                "pitch": 74,
                "velocity": 80,
                "duration": 0.0977273,
                "tempo": 120.0
            },
            {
                "start_time": 15.7636364,
                "end_time": 15.8613636,
                "pitch": 73,
                "velocity": 80,
                "duration": 0.0977273,
                "tempo": 120.0
            },
            {
                "start_time": 15.8840909,
                "end_time": 15.9795455,
                "pitch": 69,
                "velocity": 80,
                "duration": 0.0954545,
                "tempo": 120.0
            },
            {
                "start_time": 16.0045455,
                "end_time": 16.0954545,
                "pitch": 71,
                "velocity": 80,
                "duration": 0.0909091,
                "tempo": 120.0
            },
            {
                "start_time": 16.1159091,
                "end_time": 16.2090909,
                "pitch": 71,
                "velocity": 80,
                "duration": 0.0931818,
                "tempo": 120.0
            },
            {
                "start_time": 16.2295455,
                "end_time": 16.325,
                "pitch": 69,
                "velocity": 80,
                "duration": 0.0954545,
                "tempo": 120.0
            },
            {
                "start_time": 16.3454545,
                "end_time": 16.4386364,
                "pitch": 70,
                "velocity": 80,
                "duration": 0.0931818,
                "tempo": 120.0
            },
            {
                "start_time": 16.4636364,
                "end_time": 16.6568182,
                "pitch": 71,
                "velocity": 80,
                "duration": 0.1931818,
                "tempo": 120.0
            },
            {
                "start_time": 16.6931818,
                "end_time": 16.7909091,
                "pitch": 74,
                "velocity": 80,
                "duration": 0.0977273,
                "tempo": 120.0
            },
            {
                "start_time": 16.8136364,
                "end_time": 16.9068182,
                "pitch": 76,
                "velocity": 80,
                "duration": 0.0931818,
                "tempo": 120.0
            },
            {
                "start_time": 16.9340909,
                "end_time": 17.3431818,
                "pitch": 76,
                "velocity": 80,
                "duration": 0.4090909,
                "tempo": 120.0
            },
            {
                "start_time": 17.4022727,
                "end_time": 18.7886364,
                "pitch": 76,
                "velocity": 4,
                "duration": 1.3863636,
                "tempo": 120.0
            },
            {
                "start_time": 18.7886364,
                "end_time": 20.1909091,
                "pitch": 76,
                "velocity": 4,
                "duration": 1.4022727,
                "tempo": 120.0
            },
            {
                "start_time": 20.1909091,
                "end_time": 20.3090909,
                "pitch": 76,
                "velocity": 4,
                "duration": 0.1181818,
                "tempo": 120.0
            },
            {
                "start_time": 20.3090909,
                "end_time": 20.4045455,
                "pitch": 76,
                "velocity": 80,
                "duration": 0.0954545,
                "tempo": 120.0
            },
            {
                "start_time": 20.425,
                "end_time": 20.5386364,
                "pitch": 76,
                "velocity": 4,
                "duration": 0.1136364,
                "tempo": 120.0
            },
            {
                "start_time": 20.5386364,
                "end_time": 20.6318182,
                "pitch": 76,
                "velocity": 80,
                "duration": 0.0931818,
                "tempo": 120.0
            },
            {
                "start_time": 20.6568182,
                "end_time": 22.5227273,
                "pitch": 76,
                "velocity": 4,
                "duration": 1.8659091,
                "tempo": 120.0
            },
            {
                "start_time": 22.525,
                "end_time": 23.1068182,
                "pitch": 76,
                "velocity": 4,
                "duration": 0.5818182,
                "tempo": 120.0
            },
            {
                "start_time": 23.1068182,
                "end_time": 23.2045455,
                "pitch": 74,
                "velocity": 4,
                "duration": 0.0977273,
                "tempo": 120.0
            },
            {
                "start_time": 23.1090909,
                "end_time": 23.2045455,
                "pitch": 74,
                "velocity": 80,
                "duration": 0.0954545,
                "tempo": 120.0
            },
            {
                "start_time": 23.2272727,
                "end_time": 23.3227273,
                "pitch": 75,
                "velocity": 80,
                "duration": 0.0954545,
                "tempo": 120.0
            },
            {
                "start_time": 23.3431818,
                "end_time": 23.4386364,
                "pitch": 76,
                "velocity": 80,
                "duration": 0.0954545,
                "tempo": 120.0
            },
            {
                "start_time": 23.4590909,
                "end_time": 23.5568182,
                "pitch": 67,
                "velocity": 80,
                "duration": 0.0977273,
                "tempo": 120.0
            },
            {
                "start_time": 23.5772727,
                "end_time": 23.675,
                "pitch": 64,
                "velocity": 80,
                "duration": 0.0977273,
                "tempo": 120.0
            },
            {
                "start_time": 23.6931818,
                "end_time": 23.8136364,
                "pitch": 64,
                "velocity": 4,
                "duration": 0.1204545,
                "tempo": 120.0
            },
            {
                "start_time": 23.8136364,
                "end_time": 23.9090909,
                "pitch": 74,
                "velocity": 80,
                "duration": 0.0954545,
                "tempo": 120.0
            },
            {
                "start_time": 23.9295455,
                "end_time": 24.025,
                "pitch": 75,
                "velocity": 80,
                "duration": 0.0954545,
                "tempo": 120.0
            },
            {
                "start_time": 24.0454545,
                "end_time": 24.1386364,
                "pitch": 76,
                "velocity": 80,
                "duration": 0.0931818,
                "tempo": 120.0
            },
            {
                "start_time": 24.1590909,
                "end_time": 24.2545455,
                "pitch": 67,
                "velocity": 80,
                "duration": 0.0954545,
                "tempo": 120.0
            },
            {
                "start_time": 24.2727273,
                "end_time": 24.3681818,
                "pitch": 64,
                "velocity": 80,
                "duration": 0.0954545,
                "tempo": 120.0
            },
            {
                "start_time": 24.3931818,
                "end_time": 24.6227273,
                "pitch": 76,
                "velocity": 4,
                "duration": 0.2295455,
                "tempo": 120.0
            },
            {
                "start_time": 24.625,
                "end_time": 24.8204545,
                "pitch": 76,
                "velocity": 80,
                "duration": 0.1954545,
                "tempo": 120.0
            },
            {
                "start_time": 24.8613636,
                "end_time": 26.2590909,
                "pitch": 76,
                "velocity": 4,
                "duration": 1.3977273,
                "tempo": 120.0
            },
            {
                "start_time": 26.2590909,
                "end_time": 27.1931818,
                "pitch": 76,
                "velocity": 4,
                "duration": 0.9340909,
                "tempo": 120.0
            },
            {
                "start_time": 27.1931818,
                "end_time": 27.3136364,
                "pitch": 76,
                "velocity": 4,
                "duration": 0.1204545,
                "tempo": 120.0
            },
            {
                "start_time": 27.3136364,
                "end_time": 27.4090909,
                "pitch": 69,
                "velocity": 4,
                "duration": 0.0954545,
                "tempo": 120.0
            },
            {
                "start_time": 27.3136364,
                "end_time": 27.4090909,
                "pitch": 69,
                "velocity": 80,
                "duration": 0.0954545,
                "tempo": 120.0
            },
            {
                "start_time": 27.4318182,
                "end_time": 27.5272727,
                "pitch": 70,
                "velocity": 80,
                "duration": 0.0954545,
                "tempo": 120.0
            },
            {
                "start_time": 27.5477273,
                "end_time": 27.6454545,
                "pitch": 71,
                "velocity": 80,
                "duration": 0.0977273,
                "tempo": 120.0
            },
            {
                "start_time": 27.6636364,
                "end_time": 27.7590909,
                "pitch": 74,
                "velocity": 80,
                "duration": 0.0954545,
                "tempo": 120.0
            },
            {
                "start_time": 27.7795455,
                "end_time": 27.875,
                "pitch": 76,
                "velocity": 80,
                "duration": 0.0954545,
                "tempo": 120.0
            },
            {
                "start_time": 27.8954545,
                "end_time": 28.0090909,
                "pitch": 76,
                "velocity": 4,
                "duration": 0.1136364,
                "tempo": 120.0
            },
            {
                "start_time": 28.0090909,
                "end_time": 28.1045455,
                "pitch": 76,
                "velocity": 80,
                "duration": 0.0954545,
                "tempo": 120.0
            },
            {
                "start_time": 28.1272727,
                "end_time": 29.9954545,
                "pitch": 76,
                "velocity": 4,
                "duration": 1.8681818,
                "tempo": 120.0
            },
            {
                "start_time": 29.9954545,
                "end_time": 30.0886364,
                "pitch": 69,
                "velocity": 4,
                "duration": 0.0931818,
                "tempo": 120.0
            },
            {
                "start_time": 29.9954545,
                "end_time": 30.0886364,
                "pitch": 69,
                "velocity": 80,
                "duration": 0.0931818,
                "tempo": 120.0
            },
            {
                "start_time": 30.1159091,
                "end_time": 30.2068182,
                "pitch": 69,
                "velocity": 80,
                "duration": 0.0909091,
                "tempo": 120.0
            },
            {
                "start_time": 30.225,
                "end_time": 30.3227273,
                "pitch": 67,
                "velocity": 80,
                "duration": 0.0977273,
                "tempo": 120.0
            },
            {
                "start_time": 30.3454545,
                "end_time": 30.4409091,
                "pitch": 64,
                "velocity": 80,
                "duration": 0.0954545,
                "tempo": 120.0
            },
            {
                "start_time": 30.4681818,
                "end_time": 30.5590909,
                "pitch": 71,
                "velocity": 80,
                "duration": 0.0909091,
                "tempo": 120.0
            },
            {
                "start_time": 30.5772727,
                "end_time": 30.675,
                "pitch": 71,
                "velocity": 80,
                "duration": 0.0977273,
                "tempo": 120.0
            },
            {
                "start_time": 30.6977273,
                "end_time": 30.7931818,
                "pitch": 67,
                "velocity": 80,
                "duration": 0.0954545,
                "tempo": 120.0
            },
            {
                "start_time": 30.8136364,
                "end_time": 30.9113636,
                "pitch": 64,
                "velocity": 80,
                "duration": 0.0977273,
                "tempo": 120.0
            },
            {
                "start_time": 30.9363636,
                "end_time": 31.0272727,
                "pitch": 71,
                "velocity": 80,
                "duration": 0.0909091,
                "tempo": 120.0
            },
            {
                "start_time": 31.0477273,
                "end_time": 31.1659091,
                "pitch": 71,
                "velocity": 4,
                "duration": 0.1181818,
                "tempo": 120.0
            },
            {
                "start_time": 31.1659091,
                "end_time": 31.2636364,
                "pitch": 71,
                "velocity": 80,
                "duration": 0.0977273,
                "tempo": 120.0
            },
            {
                "start_time": 31.2840909,
                "end_time": 31.4045455,
                "pitch": 71,
                "velocity": 4,
                "duration": 0.1204545,
                "tempo": 120.0
            },
            {
                "start_time": 31.4045455,
                "end_time": 31.5931818,
                "pitch": 71,
                "velocity": 80,
                "duration": 0.1886364,
                "tempo": 120.0
            },
            {
                "start_time": 31.6295455,
                "end_time": 31.725,
                "pitch": 74,
                "velocity": 80,
                "duration": 0.0954545,
                "tempo": 120.0
            },
            {
                "start_time": 31.7522727,
                "end_time": 32.25,
                "pitch": 76,
                "velocity": 80,
                "duration": 0.4977273,
                "tempo": 120.0
            },
            {
                "start_time": 32.3159091,
                "end_time": 33.7181818,
                "pitch": 76,
                "velocity": 4,
                "duration": 1.4022727,
                "tempo": 120.0
            },
            {
                "start_time": 33.7181818,
                "end_time": 34.1977273,
                "pitch": 76,
                "velocity": 4,
                "duration": 0.4795455,
                "tempo": 120.0
            },
            {
                "start_time": 34.2,
                "end_time": 35.5954545,
                "pitch": 76,
                "velocity": 4,
                "duration": 1.3954545,
                "tempo": 120.0
            },
            {
                "start_time": 35.5954545,
                "end_time": 37.4659091,
                "pitch": 76,
                "velocity": 4,
                "duration": 1.8704545,
                "tempo": 120.0
            },
            {
                "start_time": 37.4659091,
                "end_time": 39.3181818,
                "pitch": 76,
                "velocity": 4,
                "duration": 1.8522727,
                "tempo": 120.0
            },
            {
                "start_time": 39.3204545,
                "end_time": 41.1909091,
                "pitch": 76,
                "velocity": 4,
                "duration": 1.8704545,
                "tempo": 120.0
            },
            {
                "start_time": 41.1931818,
                "end_time": 43.0522727,
                "pitch": 76,
                "velocity": 4,
                "duration": 1.8590909,
                "tempo": 120.0
            },
            {
                "start_time": 43.0522727,
                "end_time": 44.9318182,
                "pitch": 76,
                "velocity": 4,
                "duration": 1.8795455,
                "tempo": 120.0
            },
            {
                "start_time": 44.9340909,
                "end_time": 46.4431818,
                "pitch": 76,
                "velocity": 4,
                "duration": 1.5090909,
                "tempo": 120.0
            }
        ],
        "Trumpet": [
            {
                "start_time": 2.35,
                "end_time": 2.4136364,
                "pitch": 64,
                "velocity": 25,
                "duration": 0.0636364,
                "tempo": 120.0
            },
            {
                "start_time": 2.4681818,
                "end_time": 2.5840909,
                "pitch": 64,
                "velocity": 4,
                "duration": 0.1159091,
                "tempo": 120.0
            },
            {
                "start_time": 2.5840909,
                "end_time": 2.6431818,
                "pitch": 66,
                "velocity": 4,
                "duration": 0.0590909,
                "tempo": 120.0
            },
            {
                "start_time": 2.5840909,
                "end_time": 2.6431818,
                "pitch": 66,
                "velocity": 25,
                "duration": 0.0590909,
                "tempo": 120.0
            },
            {
                "start_time": 2.6954545,
                "end_time": 2.8136364,
                "pitch": 66,
                "velocity": 4,
                "duration": 0.1181818,
                "tempo": 120.0
            },
            {
                "start_time": 2.8136364,
                "end_time": 2.8727273,
                "pitch": 67,
                "velocity": 25,
                "duration": 0.0590909,
                "tempo": 120.0
            },
            {
                "start_time": 2.9272727,
                "end_time": 2.9886364,
                "pitch": 69,
                "velocity": 25,
                "duration": 0.0613636,
                "tempo": 120.0
            },
            {
                "start_time": 3.0386364,
                "end_time": 3.1613636,
                "pitch": 69,
                "velocity": 4,
                "duration": 0.1227273,
                "tempo": 120.0
            },
            {
                "start_time": 3.1613636,
                "end_time": 3.1636364,
                "pitch": 76,
                "velocity": 4,
                "duration": 0.0022727,
                "tempo": 120.0
            },
            {
                "start_time": 3.1636364,
                "end_time": 3.3409091,
                "pitch": 64,
                "velocity": 25,
                "duration": 0.1772727,
                "tempo": 120.0
            },
            {
                "start_time": 3.5113636,
                "end_time": 3.5704545,
                "pitch": 62,
                "velocity": 25,
                "duration": 0.0590909,
                "tempo": 120.0
            },
            {
                "start_time": 3.625,
                "end_time": 4.2113636,
                "pitch": 62,
                "velocity": 4,
                "duration": 0.5863636,
                "tempo": 120.0
            },
            {
                "start_time": 6.075,
                "end_time": 6.1363636,
                "pitch": 64,
                "velocity": 32,
                "duration": 0.0613636,
                "tempo": 120.0
            },
            {
                "start_time": 6.1931818,
                "end_time": 6.3113636,
                "pitch": 64,
                "velocity": 4,
                "duration": 0.1181818,
                "tempo": 120.0
            },
            {
                "start_time": 6.3113636,
                "end_time": 6.3727273,
                "pitch": 66,
                "velocity": 4,
                "duration": 0.0613636,
                "tempo": 120.0
            },
            {
                "start_time": 6.3113636,
                "end_time": 6.3727273,
                "pitch": 66,
                "velocity": 32,
                "duration": 0.0613636,
                "tempo": 120.0
            },
            {
                "start_time": 2.8136364,
                "end_time": 6.5454545,
                "pitch": 55,
                "velocity": 4,
                "duration": 3.7318182,
                "tempo": 120.0
            },
            {
                "start_time": 6.425,
                "end_time": 6.5454545,
                "pitch": 66,
                "velocity": 4,
                "duration": 0.1204545,
                "tempo": 120.0
            },
            {
                "start_time": 6.5477273,
                "end_time": 6.6068182,
                "pitch": 67,
                "velocity": 32,
                "duration": 0.0590909,
                "tempo": 120.0
            },
            {
                "start_time": 6.6613636,
                "end_time": 6.725,
                "pitch": 71,
                "velocity": 32,
                "duration": 0.0636364,
                "tempo": 120.0
            },
            {
                "start_time": 6.775,
                "end_time": 6.8977273,
                "pitch": 71,
                "velocity": 4,
                "duration": 0.1227273,
                "tempo": 120.0
            },
            {
                "start_time": 6.8977273,
                "end_time": 7.0772727,
                "pitch": 69,
                "velocity": 32,
                "duration": 0.1795455,
                "tempo": 120.0
            },
            {
                "start_time": 7.2454545,
                "end_time": 7.3068182,
                "pitch": 66,
                "velocity": 32,
                "duration": 0.0613636,
                "tempo": 120.0
            },
            {
                "start_time": 7.3590909,
                "end_time": 7.9431818,
                "pitch": 66,
                "velocity": 4,
                "duration": 0.5840909,
                "tempo": 120.0
            },
            {
                "start_time": 9.8113636,
                "end_time": 9.8727273,
                "pitch": 64,
                "velocity": 25,
                "duration": 0.0613636,
                "tempo": 120.0
            },
            {
                "start_time": 9.9272727,
                "end_time": 10.0431818,
                "pitch": 64,
                "velocity": 4,
                "duration": 0.1159091,
                "tempo": 120.0
            },
            {
                "start_time": 10.0431818,
                "end_time": 10.1022727,
                "pitch": 66,
                "velocity": 4,
                "duration": 0.0590909,
                "tempo": 120.0
            },
            {
                "start_time": 10.0454545,
                "end_time": 10.1022727,
                "pitch": 66,
                "velocity": 25,
                "duration": 0.0568182,
                "tempo": 120.0
            },
            {
                "start_time": 6.5454545,
                "end_time": 10.2727273,
                "pitch": 55,
                "velocity": 4,
                "duration": 3.7272727,
                "tempo": 120.0
            },
            {
                "start_time": 10.1545455,
                "end_time": 10.2727273,
                "pitch": 66,
                "velocity": 4,
                "duration": 0.1181818,
                "tempo": 120.0
            },
            {
                "start_time": 10.275,
                "end_time": 10.3318182,
                "pitch": 67,
                "velocity": 25,
                "duration": 0.0568182,
                "tempo": 120.0
            },
            {
                "start_time": 10.3863636,
                "end_time": 10.45,
                "pitch": 69,
                "velocity": 25,
                "duration": 0.0636364,
                "tempo": 120.0
            },
            {
                "start_time": 10.5022727,
                "end_time": 10.6272727,
                "pitch": 69,
                "velocity": 4,
                "duration": 0.125,
                "tempo": 120.0
            },
            {
                "start_time": 10.6295455,
                "end_time": 10.8113636,
                "pitch": 64,
                "velocity": 25,
                "duration": 0.1818182,
                "tempo": 120.0
            },
            {
                "start_time": 10.9818182,
                "end_time": 11.0431818,
                "pitch": 62,
                "velocity": 25,
                "duration": 0.0613636,
                "tempo": 120.0
            },
            {
                "start_time": 11.0954545,
                "end_time": 11.6818182,
                "pitch": 62,
                "velocity": 4,
                "duration": 0.5863636,
                "tempo": 120.0
            },
            {
                "start_time": 13.5454545,
                "end_time": 13.6090909,
                "pitch": 64,
                "velocity": 32,
                "duration": 0.0636364,
                "tempo": 120.0
            },
            {
                "start_time": 13.6636364,
                "end_time": 13.7795455,
                "pitch": 64,
                "velocity": 4,
                "duration": 0.1159091,
                "tempo": 120.0
            },
            {
                "start_time": 13.7795455,
                "end_time": 13.8386364,
                "pitch": 66,
                "velocity": 4,
                "duration": 0.0590909,
                "tempo": 120.0
            },
            {
                "start_time": 13.7795455,
                "end_time": 13.8386364,
                "pitch": 66,
                "velocity": 32,
                "duration": 0.0590909,
                "tempo": 120.0
            },
            {
                "start_time": 10.2727273,
                "end_time": 14.0090909,
                "pitch": 55,
                "velocity": 4,
                "duration": 3.7363636,
                "tempo": 120.0
            },
            {
                "start_time": 13.8909091,
                "end_time": 14.0090909,
                "pitch": 66,
                "velocity": 4,
                "duration": 0.1181818,
                "tempo": 120.0
            },
            {
                "start_time": 14.0090909,
                "end_time": 14.0681818,
                "pitch": 67,
                "velocity": 32,
                "duration": 0.0590909,
                "tempo": 120.0
            },
            {
                "start_time": 14.1227273,
                "end_time": 14.1840909,
                "pitch": 71,
                "velocity": 32,
                "duration": 0.0613636,
                "tempo": 120.0
            },
            {
                "start_time": 14.2363636,
                "end_time": 14.3590909,
                "pitch": 71,
                "velocity": 4,
                "duration": 0.1227273,
                "tempo": 120.0
            },
            {
                "start_time": 14.3590909,
                "end_time": 14.5363636,
                "pitch": 69,
                "velocity": 32,
                "duration": 0.1772727,
                "tempo": 120.0
            },
            {
                "start_time": 14.7068182,
                "end_time": 14.7659091,
                "pitch": 66,
                "velocity": 32,
                "duration": 0.0590909,
                "tempo": 120.0
            },
            {
                "start_time": 14.8181818,
                "end_time": 15.0545455,
                "pitch": 66,
                "velocity": 4,
                "duration": 0.2363636,
                "tempo": 120.0
            },
            {
                "start_time": 34.0795455,
                "end_time": 34.1431818,
                "pitch": 64,
                "velocity": 25,
                "duration": 0.0636364,
                "tempo": 120.0
            },
            {
                "start_time": 34.2,
                "end_time": 34.3136364,
                "pitch": 64,
                "velocity": 4,
                "duration": 0.1136364,
                "tempo": 120.0
            },
            {
                "start_time": 34.3159091,
                "end_time": 34.375,
                "pitch": 66,
                "velocity": 25,
                "duration": 0.0590909,
                "tempo": 120.0
            },
            {
                "start_time": 14.0090909,
                "end_time": 34.5431818,
                "pitch": 55,
                "velocity": 4,
                "duration": 20.5340909,
                "tempo": 120.0
            },
            {
                "start_time": 34.425,
                "end_time": 34.5431818,
                "pitch": 66,
                "velocity": 4,
                "duration": 0.1181818,
                "tempo": 120.0
            },
            {
                "start_time": 34.5454545,
                "end_time": 34.6022727,
                "pitch": 67,
                "velocity": 25,
                "duration": 0.0568182,
                "tempo": 120.0
            },
            {
                "start_time": 34.6568182,
                "end_time": 34.7204545,
                "pitch": 69,
                "velocity": 25,
                "duration": 0.0636364,
                "tempo": 120.0
            },
            {
                "start_time": 34.7704545,
                "end_time": 34.8931818,
                "pitch": 69,
                "velocity": 4,
                "duration": 0.1227273,
                "tempo": 120.0
            },
            {
                "start_time": 10.6272727,
                "end_time": 34.8931818,
                "pitch": 76,
                "velocity": 4,
                "duration": 24.2659091,
                "tempo": 120.0
            },
            {
                "start_time": 34.8931818,
                "end_time": 35.0727273,
                "pitch": 64,
                "velocity": 25,
                "duration": 0.1795455,
                "tempo": 120.0
            },
            {
                "start_time": 35.2431818,
                "end_time": 35.3068182,
                "pitch": 62,
                "velocity": 25,
                "duration": 0.0636364,
                "tempo": 120.0
            },
            {
                "start_time": 35.3613636,
                "end_time": 35.9522727,
                "pitch": 62,
                "velocity": 4,
                "duration": 0.5909091,
                "tempo": 120.0
            },
            {
                "start_time": 37.8159091,
                "end_time": 37.8795455,
                "pitch": 64,
                "velocity": 32,
                "duration": 0.0636364,
                "tempo": 120.0
            },
            {
                "start_time": 37.9340909,
                "end_time": 38.05,
                "pitch": 64,
                "velocity": 4,
                "duration": 0.1159091,
                "tempo": 120.0
            },
            {
                "start_time": 38.05,
                "end_time": 38.1090909,
                "pitch": 66,
                "velocity": 32,
                "duration": 0.0590909,
                "tempo": 120.0
            },
            {
                "start_time": 34.5431818,
                "end_time": 38.2795455,
                "pitch": 55,
                "velocity": 4,
                "duration": 3.7363636,
                "tempo": 120.0
            },
            {
                "start_time": 38.1613636,
                "end_time": 38.2795455,
                "pitch": 66,
                "velocity": 4,
                "duration": 0.1181818,
                "tempo": 120.0
            },
            {
                "start_time": 38.2795455,
                "end_time": 38.3386364,
                "pitch": 67,
                "velocity": 32,
                "duration": 0.0590909,
                "tempo": 120.0
            },
            {
                "start_time": 38.3931818,
                "end_time": 38.4545455,
                "pitch": 71,
                "velocity": 32,
                "duration": 0.0613636,
                "tempo": 120.0
            },
            {
                "start_time": 38.5068182,
                "end_time": 38.6295455,
                "pitch": 71,
                "velocity": 4,
                "duration": 0.1227273,
                "tempo": 120.0
            },
            {
                "start_time": 38.6295455,
                "end_time": 38.8068182,
                "pitch": 69,
                "velocity": 4,
                "duration": 0.1772727,
                "tempo": 120.0
            },
            {
                "start_time": 38.6295455,
                "end_time": 38.8068182,
                "pitch": 69,
                "velocity": 32,
                "duration": 0.1772727,
                "tempo": 120.0
            },
            {
                "start_time": 38.9772727,
                "end_time": 39.0386364,
                "pitch": 66,
                "velocity": 32,
                "duration": 0.0613636,
                "tempo": 120.0
            },
            {
                "start_time": 39.0886364,
                "end_time": 39.6727273,
                "pitch": 66,
                "velocity": 4,
                "duration": 0.5840909,
                "tempo": 120.0
            },
            {
                "start_time": 41.5477273,
                "end_time": 41.6090909,
                "pitch": 64,
                "velocity": 25,
                "duration": 0.0613636,
                "tempo": 120.0
            },
            {
                "start_time": 41.6659091,
                "end_time": 41.7818182,
                "pitch": 64,
                "velocity": 4,
                "duration": 0.1159091,
                "tempo": 120.0
            },
            {
                "start_time": 41.7818182,
                "end_time": 41.8409091,
                "pitch": 66,
                "velocity": 25,
                "duration": 0.0590909,
                "tempo": 120.0
            },
            {
                "start_time": 38.2795455,
                "end_time": 42.0113636,
                "pitch": 55,
                "velocity": 4,
                "duration": 3.7318182,
                "tempo": 120.0
            },
            {
                "start_time": 41.8931818,
                "end_time": 42.0113636,
                "pitch": 66,
                "velocity": 4,
                "duration": 0.1181818,
                "tempo": 120.0
            },
            {
                "start_time": 42.0136364,
                "end_time": 42.0704545,
                "pitch": 67,
                "velocity": 25,
                "duration": 0.0568182,
                "tempo": 120.0
            },
            {
                "start_time": 42.125,
                "end_time": 42.1863636,
                "pitch": 69,
                "velocity": 25,
                "duration": 0.0613636,
                "tempo": 120.0
            },
            {
                "start_time": 42.2386364,
                "end_time": 42.3613636,
                "pitch": 69,
                "velocity": 4,
                "duration": 0.1227273,
                "tempo": 120.0
            },
            {
                "start_time": 34.8931818,
                "end_time": 42.3613636,
                "pitch": 76,
                "velocity": 4,
                "duration": 7.4681818,
                "tempo": 120.0
            },
            {
                "start_time": 42.3613636,
                "end_time": 42.5386364,
                "pitch": 64,
                "velocity": 25,
                "duration": 0.1772727,
                "tempo": 120.0
            },
            {
                "start_time": 42.7090909,
                "end_time": 42.7704545,
                "pitch": 62,
                "velocity": 25,
                "duration": 0.0613636,
                "tempo": 120.0
            },
            {
                "start_time": 42.8227273,
                "end_time": 43.4090909,
                "pitch": 62,
                "velocity": 4,
                "duration": 0.5863636,
                "tempo": 120.0
            },
            {
                "start_time": 45.2840909,
                "end_time": 45.3454545,
                "pitch": 64,
                "velocity": 32,
                "duration": 0.0613636,
                "tempo": 120.0
            },
            {
                "start_time": 45.4022727,
                "end_time": 45.5181818,
                "pitch": 64,
                "velocity": 4,
                "duration": 0.1159091,
                "tempo": 120.0
            },
            {
                "start_time": 45.5181818,
                "end_time": 45.5772727,
                "pitch": 66,
                "velocity": 32,
                "duration": 0.0590909,
                "tempo": 120.0
            },
            {
                "start_time": 42.0113636,
                "end_time": 45.7477273,
                "pitch": 55,
                "velocity": 4,
                "duration": 3.7363636,
                "tempo": 120.0
            },
            {
                "start_time": 45.6295455,
                "end_time": 45.7477273,
                "pitch": 66,
                "velocity": 4,
                "duration": 0.1181818,
                "tempo": 120.0
            },
            {
                "start_time": 45.7477273,
                "end_time": 45.8068182,
                "pitch": 67,
                "velocity": 32,
                "duration": 0.0590909,
                "tempo": 120.0
            },
            {
                "start_time": 45.8613636,
                "end_time": 45.9227273,
                "pitch": 71,
                "velocity": 32,
                "duration": 0.0613636,
                "tempo": 120.0
            },
            {
                "start_time": 45.9727273,
                "end_time": 46.0977273,
                "pitch": 71,
                "velocity": 4,
                "duration": 0.125,
                "tempo": 120.0
            },
            {
                "start_time": 46.0977273,
                "end_time": 46.275,
                "pitch": 69,
                "velocity": 4,
                "duration": 0.1772727,
                "tempo": 120.0
            },
            {
                "start_time": 46.0977273,
                "end_time": 46.275,
                "pitch": 69,
                "velocity": 32,
                "duration": 0.1772727,
                "tempo": 120.0
            }
        ],
        "Harpsichord": [
            {
                "start_time": 16.9340909,
                "end_time": 16.9909091,
                "pitch": 55,
                "velocity": 64,
                "duration": 0.0568182,
                "tempo": 120.0
            },
            {
                "start_time": 17.0431818,
                "end_time": 17.4,
                "pitch": 55,
                "velocity": 4,
                "duration": 0.3568182,
                "tempo": 120.0
            },
            {
                "start_time": 17.4,
                "end_time": 17.4613636,
                "pitch": 59,
                "velocity": 4,
                "duration": 0.0613636,
                "tempo": 120.0
            },
            {
                "start_time": 17.4022727,
                "end_time": 17.4613636,
                "pitch": 59,
                "velocity": 64,
                "duration": 0.0590909,
                "tempo": 120.0
            },
            {
                "start_time": 17.5136364,
                "end_time": 17.7545455,
                "pitch": 59,
                "velocity": 4,
                "duration": 0.2409091,
                "tempo": 120.0
            },
            {
                "start_time": 17.7545455,
                "end_time": 18.1590909,
                "pitch": 57,
                "velocity": 4,
                "duration": 0.4045455,
                "tempo": 120.0
            },
            {
                "start_time": 17.7545455,
                "end_time": 18.1590909,
                "pitch": 57,
                "velocity": 64,
                "duration": 0.4045455,
                "tempo": 120.0
            },
            {
                "start_time": 18.5568182,
                "end_time": 18.7886364,
                "pitch": 57,
                "velocity": 4,
                "duration": 0.2318182,
                "tempo": 120.0
            },
            {
                "start_time": 18.7886364,
                "end_time": 18.85,
                "pitch": 55,
                "velocity": 4,
                "duration": 0.0613636,
                "tempo": 120.0
            },
            {
                "start_time": 18.7886364,
                "end_time": 18.85,
                "pitch": 55,
                "velocity": 64,
                "duration": 0.0613636,
                "tempo": 120.0
            },
            {
                "start_time": 18.9068182,
                "end_time": 19.0272727,
                "pitch": 55,
                "velocity": 4,
                "duration": 0.1204545,
                "tempo": 120.0
            },
            {
                "start_time": 19.0272727,
                "end_time": 19.0909091,
                "pitch": 55,
                "velocity": 64,
                "duration": 0.0636364,
                "tempo": 120.0
            },
            {
                "start_time": 19.1477273,
                "end_time": 19.2681818,
                "pitch": 55,
                "velocity": 4,
                "duration": 0.1204545,
                "tempo": 120.0
            },
            {
                "start_time": 19.2681818,
                "end_time": 19.3272727,
                "pitch": 57,
                "velocity": 4,
                "duration": 0.0590909,
                "tempo": 120.0
            },
            {
                "start_time": 19.2681818,
                "end_time": 19.3272727,
                "pitch": 57,
                "velocity": 64,
                "duration": 0.0590909,
                "tempo": 120.0
            },
            {
                "start_time": 19.3795455,
                "end_time": 19.6136364,
                "pitch": 57,
                "velocity": 4,
                "duration": 0.2340909,
                "tempo": 120.0
            },
            {
                "start_time": 19.6159091,
                "end_time": 20.0227273,
                "pitch": 57,
                "velocity": 64,
                "duration": 0.4068182,
                "tempo": 120.0
            },
            {
                "start_time": 20.425,
                "end_time": 20.6545455,
                "pitch": 57,
                "velocity": 4,
                "duration": 0.2295455,
                "tempo": 120.0
            },
            {
                "start_time": 20.6545455,
                "end_time": 20.6568182,
                "pitch": 55,
                "velocity": 4,
                "duration": 0.0022727,
                "tempo": 120.0
            },
            {
                "start_time": 20.6568182,
                "end_time": 20.7181818,
                "pitch": 55,
                "velocity": 64,
                "duration": 0.0613636,
                "tempo": 120.0
            },
            {
                "start_time": 20.7727273,
                "end_time": 21.1363636,
                "pitch": 55,
                "velocity": 4,
                "duration": 0.3636364,
                "tempo": 120.0
            },
            {
                "start_time": 21.1363636,
                "end_time": 21.1954545,
                "pitch": 59,
                "velocity": 4,
                "duration": 0.0590909,
                "tempo": 120.0
            },
            {
                "start_time": 21.1363636,
                "end_time": 21.1954545,
                "pitch": 59,
                "velocity": 64,
                "duration": 0.0590909,
                "tempo": 120.0
            },
            {
                "start_time": 21.2477273,
                "end_time": 21.4818182,
                "pitch": 59,
                "velocity": 4,
                "duration": 0.2340909,
                "tempo": 120.0
            },
            {
                "start_time": 21.4818182,
                "end_time": 21.8909091,
                "pitch": 57,
                "velocity": 4,
                "duration": 0.4090909,
                "tempo": 120.0
            },
            {
                "start_time": 21.4818182,
                "end_time": 21.8909091,
                "pitch": 57,
                "velocity": 64,
                "duration": 0.4090909,
                "tempo": 120.0
            },
            {
                "start_time": 22.2931818,
                "end_time": 22.5227273,
                "pitch": 57,
                "velocity": 4,
                "duration": 0.2295455,
                "tempo": 120.0
            },
            {
                "start_time": 22.525,
                "end_time": 22.6386364,
                "pitch": 54,
                "velocity": 64,
                "duration": 0.1136364,
                "tempo": 120.0
            },
            {
                "start_time": 22.7568182,
                "end_time": 22.8772727,
                "pitch": 54,
                "velocity": 4,
                "duration": 0.1204545,
                "tempo": 120.0
            },
            {
                "start_time": 22.8772727,
                "end_time": 22.9363636,
                "pitch": 55,
                "velocity": 64,
                "duration": 0.0590909,
                "tempo": 120.0
            },
            {
                "start_time": 22.9886364,
                "end_time": 24.3909091,
                "pitch": 55,
                "velocity": 4,
                "duration": 1.4022727,
                "tempo": 120.0
            },
            {
                "start_time": 24.3931818,
                "end_time": 24.4522727,
                "pitch": 55,
                "velocity": 64,
                "duration": 0.0590909,
                "tempo": 120.0
            },
            {
                "start_time": 24.5045455,
                "end_time": 24.8613636,
                "pitch": 55,
                "velocity": 4,
                "duration": 0.3568182,
                "tempo": 120.0
            },
            {
                "start_time": 24.8613636,
                "end_time": 24.9227273,
                "pitch": 59,
                "velocity": 4,
                "duration": 0.0613636,
                "tempo": 120.0
            },
            {
                "start_time": 24.8613636,
                "end_time": 24.9227273,
                "pitch": 59,
                "velocity": 64,
                "duration": 0.0613636,
                "tempo": 120.0
            },
            {
                "start_time": 24.975,
                "end_time": 25.2159091,
                "pitch": 59,
                "velocity": 4,
                "duration": 0.2409091,
                "tempo": 120.0
            },
            {
                "start_time": 25.2159091,
                "end_time": 25.6272727,
                "pitch": 57,
                "velocity": 4,
                "duration": 0.4113636,
                "tempo": 120.0
            },
            {
                "start_time": 25.2159091,
                "end_time": 25.6272727,
                "pitch": 57,
                "velocity": 64,
                "duration": 0.4113636,
                "tempo": 120.0
            },
            {
                "start_time": 26.0272727,
                "end_time": 26.2590909,
                "pitch": 57,
                "velocity": 4,
                "duration": 0.2318182,
                "tempo": 120.0
            },
            {
                "start_time": 26.2590909,
                "end_time": 26.3204545,
                "pitch": 55,
                "velocity": 4,
                "duration": 0.0613636,
                "tempo": 120.0
            },
            {
                "start_time": 26.2590909,
                "end_time": 26.3204545,
                "pitch": 55,
                "velocity": 64,
                "duration": 0.0613636,
                "tempo": 120.0
            },
            {
                "start_time": 26.375,
                "end_time": 26.4931818,
                "pitch": 55,
                "velocity": 4,
                "duration": 0.1181818,
                "tempo": 120.0
            },
            {
                "start_time": 26.4931818,
                "end_time": 26.5545455,
                "pitch": 55,
                "velocity": 64,
                "duration": 0.0613636,
                "tempo": 120.0
            },
            {
                "start_time": 26.6090909,
                "end_time": 26.7295455,
                "pitch": 55,
                "velocity": 4,
                "duration": 0.1204545,
                "tempo": 120.0
            },
            {
                "start_time": 26.7295455,
                "end_time": 26.7886364,
                "pitch": 57,
                "velocity": 4,
                "duration": 0.0590909,
                "tempo": 120.0
            },
            {
                "start_time": 26.7295455,
                "end_time": 26.7886364,
                "pitch": 57,
                "velocity": 64,
                "duration": 0.0590909,
                "tempo": 120.0
            },
            {
                "start_time": 26.8431818,
                "end_time": 27.0818182,
                "pitch": 57,
                "velocity": 4,
                "duration": 0.2386364,
                "tempo": 120.0
            },
            {
                "start_time": 27.0840909,
                "end_time": 27.4931818,
                "pitch": 57,
                "velocity": 64,
                "duration": 0.4090909,
                "tempo": 120.0
            },
            {
                "start_time": 27.8954545,
                "end_time": 28.1272727,
                "pitch": 57,
                "velocity": 4,
                "duration": 0.2318182,
                "tempo": 120.0
            },
            {
                "start_time": 28.1272727,
                "end_time": 28.1886364,
                "pitch": 55,
                "velocity": 4,
                "duration": 0.0613636,
                "tempo": 120.0
            },
            {
                "start_time": 28.1272727,
                "end_time": 28.1886364,
                "pitch": 55,
                "velocity": 64,
                "duration": 0.0613636,
                "tempo": 120.0
            },
            {
                "start_time": 28.2409091,
                "end_time": 28.5954545,
                "pitch": 55,
                "velocity": 4,
                "duration": 0.3545455,
                "tempo": 120.0
            },
            {
                "start_time": 28.5954545,
                "end_time": 28.6568182,
                "pitch": 59,
                "velocity": 4,
                "duration": 0.0613636,
                "tempo": 120.0
            },
            {
                "start_time": 28.5977273,
                "end_time": 28.6568182,
                "pitch": 59,
                "velocity": 64,
                "duration": 0.0590909,
                "tempo": 120.0
            },
            {
                "start_time": 28.7090909,
                "end_time": 28.95,
                "pitch": 59,
                "velocity": 4,
                "duration": 0.2409091,
                "tempo": 120.0
            },
            {
                "start_time": 28.95,
                "end_time": 29.3613636,
                "pitch": 57,
                "velocity": 4,
                "duration": 0.4113636,
                "tempo": 120.0
            },
            {
                "start_time": 28.9522727,
                "end_time": 29.3613636,
                "pitch": 57,
                "velocity": 64,
                "duration": 0.4090909,
                "tempo": 120.0
            },
            {
                "start_time": 29.7636364,
                "end_time": 29.9954545,
                "pitch": 57,
                "velocity": 4,
                "duration": 0.2318182,
                "tempo": 120.0
            }
        ]
    }
}