{
    "mood": "happy",
    "instruments": {
        "Acoustic Bass": [
            {
                "start_time": 0.0386364,
                "end_time": 0.2340909,
                "pitch": 37,
                "velocity": 80,
                "duration": 0.1954545,
                "tempo": 120.0
            },
            {
                "start_time": 1.2477273,
                "end_time": 1.4454545,
                "pitch": 32,
                "velocity": 80,
                "duration": 0.1977273,
                "tempo": 120.0
            },
            {
                "start_time": 1.65,
                "end_time": 1.8454545,
                "pitch": 37,
                "velocity": 80,
                "duration": 0.1954545,
                "tempo": 120.0
            },
            {
                "start_time": 2.8522727,
                "end_time": 3.05,
                "pitch": 32,
                "velocity": 80,
                "duration": 0.1977273,
                "tempo": 120.0
            },
            {
                "start_time": 3.2568182,
                "end_time": 3.4522727,
                "pitch": 37,
                "velocity": 80,
                "duration": 0.1954545,
                "tempo": 120.0
            },
            {
                "start_time": 4.4659091,
                "end_time": 4.6659091,
                "pitch": 32,
                "velocity": 80,
                "duration": 0.2,
                "tempo": 120.0
            },
            {
                "start_time": 4.8704545,
                "end_time": 5.0659091,
                "pitch": 37,
                "velocity": 80,
                "duration": 0.1954545,
                "tempo": 120.0
            },
            {
                "start_time": 6.0727273,
                "end_time": 6.2727273,
                "pitch": 32,
                "velocity": 80,
                "duration": 0.2,
                "tempo": 120.0
            },
            {
                "start_time": 6.4818182,
                "end_time": 6.6772727,
                "pitch": 37,
                "velocity": 80,
                "duration": 0.1954545,
                "tempo": 120.0
            },
            {
                "start_time": 6.8772727,
                "end_time": 7.0840909,
                "pitch": 32,
                "velocity": 80,
                "duration": 0.2068182,
                "tempo": 120.0
            },
            {
                "start_time": 7.2909091,
                "end_time": 7.4909091,
                "pitch": 37,
                "velocity": 80,
                "duration": 0.2,
                "tempo": 120.0
            },
            {
                "start_time": 7.6954545,
                "end_time": 7.8886364,
                "pitch": 32,
                "velocity": 80,
                "duration": 0.1931818,
                "tempo": 120.0
            },
            {
                "start_time": 8.0886364,
                "end_time": 8.2863636,
                "pitch": 36,
                "velocity": 80,
                "duration": 0.1977273,
                "tempo": 120.0
            },
            {
                "start_time": 8.4863636,
                "end_time": 8.6909091,
                "pitch": 31,
                "velocity": 80,
                "duration": 0.2045455,
                "tempo": 120.0
            },
            {
                "start_time": 8.8977273,
                "end_time": 9.0931818,
                "pitch": 36,
                "velocity": 80,
                "duration": 0.1954545,
                "tempo": 120.0
            },
            {
                "start_time": 9.2909091,
                "end_time": 9.4909091,
                "pitch": 31,
                "velocity": 80,
                "duration": 0.2,
                "tempo": 120.0
            },
            {
                "start_time": 9.6954545,
                "end_time": 9.8954545,
                "pitch": 35,
                "velocity": 80,
                "duration": 0.2,
                "tempo": 120.0
            },
            {
                "start_time": 10.0954545,
                "end_time": 10.3022727,
                "pitch": 30,
                "velocity": 80,
                "duration": 0.2068182,
                "tempo": 120.0
            },
            {
                "start_time": 10.5090909,
                "end_time": 10.7068182,
                "pitch": 35,
                "velocity": 80,
                "duration": 0.1977273,
                "tempo": 120.0
            },
            {
                "start_time": 10.9090909,
                "end_time": 11.1090909,
                "pitch": 30,
                "velocity": 80,
                "duration": 0.2,
                "tempo": 120.0
            },
            {
                "start_time": 11.3159091,
                "end_time": 11.5136364,
                "pitch": 34,
                "velocity": 80,
                "duration": 0.1977273,
                "tempo": 120.0
            },
            {
                "start_time": 11.7136364,
                "end_time": 11.9159091,
                "pitch": 29,
                "velocity": 80,
                "duration": 0.2022727,
                "tempo": 120.0
            },
            {
                "start_time": 12.1181818,
                "end_time": 12.3181818,
                "pitch": 34,
                "velocity": 80,
                "duration": 0.2,
                "tempo": 120.0
            },
            {
                "start_time": 12.5227273,
                "end_time": 12.7204545,
                "pitch": 29,
                "velocity": 80,
                "duration": 0.1977273,
                "tempo": 120.0
            },
            {
                "start_time": 12.925,
                "end_time": 13.1227273,
                "pitch": 30,
                "velocity": 80,
                "duration": 0.1977273,
                "tempo": 120.0
            },
            {
                "start_time": 13.325,
                "end_time": 13.525,
                "pitch": 25,
                "velocity": 80,
                "duration": 0.2,
                "tempo": 120.0
            },
            {
                "start_time": 13.7295455,
                "end_time": 13.9295455,
                "pitch": 30,
                "velocity": 80,
                "duration": 0.2,
                "tempo": 120.0
            },
            {
                "start_time": 14.1318182,
                "end_time": 14.3318182,
                "pitch": 25,
                "velocity": 80,
                "duration": 0.2,
                "tempo": 120.0
            },
            {
                "start_time": 14.5386364,
                "end_time": 14.7340909,
                "pitch": 29,
                "velocity": 80,
                "duration": 0.1954545,
                "tempo": 120.0
            },
            {
                "start_time": 14.9340909,
                "end_time": 15.1409091,
                "pitch": 24,
                "velocity": 80,
                "duration": 0.2068182,
                "tempo": 120.0
            },
            {
                "start_time": 15.3477273,
                "end_time": 15.5431818,
                "pitch": 34,
                "velocity": 80,
                "duration": 0.1954545,
                "tempo": 120.0
            },
            {
                "start_time": 15.7409091,
                "end_time": 15.9409091,
                "pitch": 29,
                "velocity": 80,
                "duration": 0.2,
                "tempo": 120.0
            },
            {
                "start_time": 16.1454545,
                "end_time": 16.3431818,
                "pitch": 35,
                "velocity": 80,
                "duration": 0.1977273,
                "tempo": 120.0
            },
            {
                "start_time": 16.5454545,
                "end_time": 16.75,
                "pitch": 30,
                "velocity": 80,
                "duration": 0.2045455,
                "tempo": 120.0
            },
            {
                "start_time": 16.9568182,
                "end_time": 17.1568182,
                "pitch": 35,
                "velocity": 80,
                "duration": 0.2,
                "tempo": 120.0
            },
            {
                "start_time": 17.3613636,
                "end_time": 17.5545455,
                "pitch": 30,
                "velocity": 80,
                "duration": 0.1931818,
                "tempo": 120.0
            },
            {
                "start_time": 17.7522727,
                "end_time": 17.9545455,
                "pitch": 32,
                "velocity": 80,
                "duration": 0.2022727,
                "tempo": 120.0
            },
            {
                "start_time": 18.1613636,
                "end_time": 18.3613636,
                "pitch": 27,
                "velocity": 80,
                "duration": 0.2,
                "tempo": 120.0
            },
            {
                "start_time": 18.5636364,
                "end_time": 18.7636364,
                "pitch": 32,
                "velocity": 80,
                "duration": 0.2,
                "tempo": 120.0
            },
            {
                "start_time": 18.9659091,
                "end_time": 19.1659091,
                "pitch": 27,
                "velocity": 80,
                "duration": 0.2,
                "tempo": 120.0
            },
            {
                "start_time": 19.3704545,
                "end_time": 19.5681818,
                "pitch": 37,
                "velocity": 80,
                "duration": 0.1977273,
                "tempo": 120.0
            },
            {
                "start_time": 19.7681818,
                "end_time": 19.9681818,
                "pitch": 32,
                "velocity": 80,
                "duration": 0.2,
                "tempo": 120.0
            },
            {
                "start_time": 20.1704545,
                "end_time": 20.3681818,
                "pitch": 37,
                "velocity": 80,
                "duration": 0.1977273,
                "tempo": 120.0
            },
            {
                "start_time": 20.5727273,
                "end_time": 20.7704545,
                "pitch": 32,
                "velocity": 80,
                "duration": 0.1977273,
                "tempo": 120.0
            },
            {
                "start_time": 20.9772727,
                "end_time": 21.1727273,
                "pitch": 36,
                "velocity": 80,
                "duration": 0.1954545,
                "tempo": 120.0
            },
            {
                "start_time": 21.3727273,
                "end_time": 21.575,
                "pitch": 31,
                "velocity": 80,
                "duration": 0.2022727,
                "tempo": 120.0
            },
            {
                "start_time": 21.7772727,
                "end_time": 21.9772727,
                "pitch": 36,
                "velocity": 80,
                "duration": 0.2,
                "tempo": 120.0
            },
            {
                "start_time": 22.1795455,
                "end_time": 22.3772727,
                "pitch": 31,
                "velocity": 80,
                "duration": 0.1977273,
                "tempo": 120.0
            },
            {
                "start_time": 22.5818182,
                "end_time": 22.7795455,
                "pitch": 35,
                "velocity": 80,
                "duration": 0.1977273,
                "tempo": 120.0
            },
            {
                "start_time": 22.9818182,
                "end_time": 23.1863636,
                "pitch": 30,
                "velocity": 80,
                "duration": 0.2045455,
                "tempo": 120.0
            },
            {
                "start_time": 23.3931818,
                "end_time": 23.5931818,
                "pitch": 35,
                "velocity": 80,
                "duration": 0.2,
                "tempo": 120.0
            },
            {
                "start_time": 23.7931818,
                "end_time": 23.9886364,
                "pitch": 30,
                "velocity": 80,
                "duration": 0.1954545,
                "tempo": 120.0
            },
            {
                "start_time": 24.1886364,
                "end_time": 24.3863636,
                "pitch": 34,
                "velocity": 80,
                "duration": 0.1977273,
                "tempo": 120.0
            },
            {
                "start_time": 24.5863636,
                "end_time": 24.7909091,
                "pitch": 29,
                "velocity": 80,
                "duration": 0.2045455,
                "tempo": 120.0
            },
            {
                "start_time": 24.9977273,
                "end_time": 25.1931818,
                "pitch": 34,
                "velocity": 80,
                "duration": 0.1954545,
                "tempo": 120.0
            },
            {
                "start_time": 25.3909091,
                "end_time": 25.5909091,
                "pitch": 29,
                "velocity": 80,
                "duration": 0.2,
                "tempo": 120.0
            },
            {
                "start_time": 25.7954545,
                "end_time": 25.9931818,
                "pitch": 30,
                "velocity": 80,
                "duration": 0.1977273,
                "tempo": 120.0
            },
            {
                "start_time": 26.1931818,
                "end_time": 26.4,
                "pitch": 25,
                "velocity": 80,
                "duration": 0.2068182,
                "tempo": 120.0
            },
            {
                "start_time": 26.6068182,
                "end_time": 26.8045455,
                "pitch": 30,
                "velocity": 80,
                "duration": 0.1977273,
                "tempo": 120.0
            },
            {
                "start_time": 27.0068182,
                "end_time": 27.2068182,
                "pitch": 25,
                "velocity": 80,
                "duration": 0.2,
                "tempo": 120.0
            },
            {
                "start_time": 27.4113636,
                "end_time": 27.6090909,
                "pitch": 29,
                "velocity": 80,
                "duration": 0.1977273,
                "tempo": 120.0
            },
            {
                "start_time": 27.8090909,
                "end_time": 28.0113636,
                "pitch": 24,
                "velocity": 80,
                "duration": 0.2022727,
                "tempo": 120.0
            },
            {
                "start_time": 28.2136364,
                "end_time": 28.4136364,
                "pitch": 34,
                "velocity": 80,
                "duration": 0.2,
                "tempo": 120.0
            },
            {
                "start_time": 28.6136364,
                "end_time": 28.8136364,
                "pitch": 29,
                "velocity": 80,
                "duration": 0.2,
                "tempo": 120.0
            },
            {
                "start_time": 29.0181818,
                "end_time": 29.2159091,
                "pitch": 35,
                "velocity": 80,
                "duration": 0.1977273,
                "tempo": 120.0
            },
            {
                "start_time": 29.4159091,
                "end_time": 29.6159091,
                "pitch": 30,
                "velocity": 80,
                "duration": 0.2,
                "tempo": 120.0
            },
            {
                "start_time": 29.8204545,
                "end_time": 30.0227273,
                "pitch": 32,
                "velocity": 80,
                "duration": 0.2022727,
                "tempo": 120.0
            },
            {
                "start_time": 30.2295455,
                "end_time": 30.425,
                "pitch": 27,
                "velocity": 80,
                "duration": 0.1954545,
                "tempo": 120.0
            },
            {
                "start_time": 30.625,
                "end_time": 30.8204545,
                "pitch": 37,
                "velocity": 80,
                "duration": 0.1954545,
                "tempo": 120.0
            },
            {
                "start_time": 31.0227273,
                "end_time": 31.2272727,
                "pitch": 32,
                "velocity": 80,
                "duration": 0.2045455,
                "tempo": 120.0
            },
            {
                "start_time": 31.4340909,
                "end_time": 31.6295455,
                "pitch": 37,
                "velocity": 80,
                "duration": 0.1954545,
                "tempo": 120.0
            },
            {
                "start_time": 31.825,
                "end_time": 32.0272727,
                "pitch": 32,
                "velocity": 80,
                "duration": 0.2022727,
                "tempo": 120.0
            },
            {
                "start_time": 32.2340909,
                "end_time": 32.4295455,
                "pitch": 30,
                "velocity": 80,
                "duration": 0.1954545,
                "tempo": 120.0
            },
            {
                "start_time": 32.6318182,
                "end_time": 32.8363636,
                "pitch": 25,
                "velocity": 80,
                "duration": 0.2045455,
                "tempo": 120.0
            },
            {
                "start_time": 33.0431818,
                "end_time": 33.2431818,
                "pitch": 30,
                "velocity": 80,
                "duration": 0.2,
                "tempo": 120.0
            },
            {
                "start_time": 33.4454545,
                "end_time": 33.6409091,
                "pitch": 25,
                "velocity": 80,
                "duration": 0.1954545,
                "tempo": 120.0
            },
            {
                "start_time": 33.8409091,
                "end_time": 34.0431818,
                "pitch": 30,
                "velocity": 80,
                "duration": 0.2022727,
                "tempo": 120.0
            },
            {
                "start_time": 34.25,
                "end_time": 34.45,
                "pitch": 24,
                "velocity": 80,
                "duration": 0.2,
                "tempo": 120.0
            },
            {
                "start_time": 34.6522727,
                "end_time": 34.85,
                "pitch": 30,
                "velocity": 80,
                "duration": 0.1977273,
                "tempo": 120.0
            },
            {
                "start_time": 35.05,
                "end_time": 35.25,
                "pitch": 24,
                "velocity": 80,
                "duration": 0.2,
                "tempo": 120.0
            },
            {
                "start_time": 35.4568182,
                "end_time": 35.6522727,
                "pitch": 37,
                "velocity": 80,
                "duration": 0.1954545,
                "tempo": 120.0
            },
            {
                "start_time": 35.8545455,
                "end_time": 36.0545455,
                "pitch": 32,
                "velocity": 80,
                "duration": 0.2,
                "tempo": 120.0
            },
            {
                "start_time": 36.2568182,
                "end_time": 36.4545455,
                "pitch": 37,
                "velocity": 80,
                "duration": 0.1977273,
                "tempo": 120.0
            },
            {
                "start_time": 36.6568182,
                "end_time": 36.8545455,
                "pitch": 32,
                "velocity": 80,
                "duration": 0.1977273,
                "tempo": 120.0
            },
            {
                "start_time": 37.0590909,
                "end_time": 37.2568182,
                "pitch": 34,
                "velocity": 80,
                "duration": 0.1977273,
                "tempo": 120.0
            },
            {
                "start_time": 37.4590909,
                "end_time": 37.6636364,
                "pitch": 29,
                "velocity": 80,
                "duration": 0.2045455,
                "tempo": 120.0
            },
            {
                "start_time": 37.8727273,
                "end_time": 38.0659091,
                "pitch": 32,
                "velocity": 80,
                "duration": 0.1931818,
                "tempo": 120.0
            },
            {
                "start_time": 38.2636364,
                "end_time": 38.4636364,
                "pitch": 27,
                "velocity": 80,
                "duration": 0.2,
                "tempo": 120.0
            },
            {
                "start_time": 38.6659091,
                "end_time": 38.8636364,
                "pitch": 30,
                "velocity": 80,
                "duration": 0.1977273,
                "tempo": 120.0
            },
            {
                "start_time": 39.0636364,
                "end_time": 39.2681818,
                "pitch": 25,
                "velocity": 80,
                "duration": 0.2045455,
                "tempo": 120.0
            },
            {
                "start_time": 39.4772727,
                "end_time": 39.675,
                "pitch": 30,
                "velocity": 80,
                "duration": 0.1977273,
                "tempo": 120.0
            },
            {
                "start_time": 39.8772727,
                "end_time": 40.0704545,
                "pitch": 25,
                "velocity": 80,
                "duration": 0.1931818,
                "tempo": 120.0
            },
            {
                "start_time": 40.2704545,
                "end_time": 40.4681818,
                "pitch": 35,
                "velocity": 80,
                "duration": 0.1977273,
                "tempo": 120.0
            },
            {
                "start_time": 40.6681818,
                "end_time": 40.875,
                "pitch": 28,
                "velocity": 80,
                "duration": 0.2068182,
                "tempo": 120.0
            },
            {
                "start_time": 41.0818182,
                "end_time": 41.2772727,
                "pitch": 35,
                "velocity": 80,
                "duration": 0.1954545,
                "tempo": 120.0
            },
            {
                "start_time": 41.475,
                "end_time": 41.6727273,
                "pitch": 28,
                "velocity": 80,
                "duration": 0.1977273,
                "tempo": 120.0
            },
            {
                "start_time": 41.875,
                "end_time": 42.0727273,
                "pitch": 40,
                "velocity": 80,
                "duration": 0.1977273,
                "tempo": 120.0
            },
            {
                "start_time": 42.2727273,
                "end_time": 42.4795455,
                "pitch": 35,
                "velocity": 80,
                "duration": 0.2068182,
                "tempo": 120.0
            },
            {
                "start_time": 42.6886364,
                "end_time": 42.8863636,
                "pitch": 40,
                "velocity": 80,
                "duration": 0.1977273,
                "tempo": 120.0
            },
            {
                "start_time": 43.0863636,
                "end_time": 43.2863636,
                "pitch": 35,
                "velocity": 80,
                "duration": 0.2,
                "tempo": 120.0
            },
            {
                "start_time": 43.4886364,
                "end_time": 43.6863636,
                "pitch": 32,
                "velocity": 80,
                "duration": 0.1977273,
                "tempo": 120.0
            },
            {
                "start_time": 43.8886364,
                "end_time": 44.0863636,
                "pitch": 27,
                "velocity": 80,
                "duration": 0.1977273,
                "tempo": 120.0
            },
            {
                "start_time": 44.2886364,
                "end_time": 44.4886364,
                "pitch": 32,
                "velocity": 80,
                "duration": 0.2,
                "tempo": 120.0
            },
            {
                "start_time": 44.6931818,
                "end_time": 44.8909091,
                "pitch": 27,
                "velocity": 80,
                "duration": 0.1977273,
                "tempo": 120.0
            },
            {
                "start_time": 45.0931818,
                "end_time": 45.2909091,
                "pitch": 37,
                "velocity": 80,
                "duration": 0.1977273,
                "tempo": 120.0
            },
            {
                "start_time": 45.4909091,
                "end_time": 45.6977273,
                "pitch": 32,
                "velocity": 80,
                "duration": 0.2068182,
                "tempo": 120.0
            },
            {
                "start_time": 45.9045455,
                "end_time": 46.1045455,
                "pitch": 37,
                "velocity": 80,
                "duration": 0.2,
                "tempo": 120.0
            },
            {
                "start_time": 46.3068182,
                "end_time": 46.5022727,
                "pitch": 32,
                "velocity": 80,
                "duration": 0.1954545,
                "tempo": 120.0
            },
            {
                "start_time": 46.7,
                "end_time": 46.8977273,
                "pitch": 29,
                "velocity": 80,
                "duration": 0.1977273,
                "tempo": 120.0
            },
            {
                "start_time": 47.1,
                "end_time": 47.3045455,
                "pitch": 24,
                "velocity": 80,
                "duration": 0.2045455,
                "tempo": 120.0
            },
            {
                "start_time": 47.5113636,
                "end_time": 47.7068182,
                "pitch": 29,
                "velocity": 80,
                "duration": 0.1954545,
                "tempo": 120.0
            },
            {
                "start_time": 47.9045455,
                "end_time": 48.1022727,
                "pitch": 24,
                "velocity": 80,
                "duration": 0.1977273,
                "tempo": 120.0
            },
            {
                "start_time": 48.3068182,
                "end_time": 48.5045455,
                "pitch": 30,
                "velocity": 80,
                "duration": 0.1977273,
                "tempo": 120.0
            },
            {
                "start_time": 48.7068182,
                "end_time": 48.9136364,
                "pitch": 25,
                "velocity": 80,
                "duration": 0.2068182,
                "tempo": 120.0
            },
            {
                "start_time": 49.1204545,
                "end_time": 49.3181818,
                "pitch": 29,
                "velocity": 80,
                "duration": 0.1977273,
                "tempo": 120.0
            },
            {
                "start_time": 49.5204545,
                "end_time": 49.7159091,
                "pitch": 24,
                "velocity": 80,
                "duration": 0.1954545,
                "tempo": 120.0
            },
            {
                "start_time": 49.9136364,
                "end_time": 50.1159091,
                "pitch": 34,
                "velocity": 80,
                "duration": 0.2022727,
                "tempo": 120.0
            },
            {
                "start_time": 50.3227273,
                "end_time": 50.5227273,
                "pitch": 29,
                "velocity": 80,
                "duration": 0.2,
                "tempo": 120.0
            },
            {
                "start_time": 50.725,
                "end_time": 50.9227273,
                "pitch": 34,
                "velocity": 80,
                "duration": 0.1977273,
                "tempo": 120.0
            },
            {
                "start_time": 51.125,
                "end_time": 51.3227273,
                "pitch": 29,
                "velocity": 80,
                "duration": 0.1977273,
                "tempo": 120.0
            },
            {
                "start_time": 51.5272727,
                "end_time": 51.725,
                "pitch": 39,
                "velocity": 80,
                "duration": 0.1977273,
                "tempo": 120.0
            },
            {
                "start_time": 51.925,
                "end_time": 52.1272727,
                "pitch": 34,
                "velocity": 80,
                "duration": 0.2022727,
                "tempo": 120.0
            },
            {
                "start_time": 52.3295455,
                "end_time": 52.5272727,
                "pitch": 32,
                "velocity": 80,
                "duration": 0.1977273,
                "tempo": 120.0
            },
            {
                "start_time": 52.7295455,
                "end_time": 52.9295455,
                "pitch": 27,
                "velocity": 80,
                "duration": 0.2,
                "tempo": 120.0
            },
            {
                "start_time": 53.1318182,
                "end_time": 53.3295455,
                "pitch": 37,
                "velocity": 80,
                "duration": 0.1977273,
                "tempo": 120.0
            },
            {
                "start_time": 53.5295455,
                "end_time": 53.7295455,
                "pitch": 32,
                "velocity": 80,
                "duration": 0.2,
                "tempo": 120.0
            },
            {
                "start_time": 53.9318182,
                "end_time": 54.1318182,
                "pitch": 34,
                "velocity": 80,
                "duration": 0.2,
                "tempo": 120.0
            },
            {
                "start_time": 54.3340909,
                "end_time": 54.5340909,
                "pitch": 29,
                "velocity": 80,
                "duration": 0.2,
                "tempo": 120.0
            },
            {
                "start_time": 54.7363636,
                "end_time": 54.9340909,
                "pitch": 39,
                "velocity": 80,
                "duration": 0.1977273,
                "tempo": 120.0
            },
            {
                "start_time": 55.1340909,
                "end_time": 55.3409091,
                "pitch": 34,
                "velocity": 80,
                "duration": 0.2068182,
                "tempo": 120.0
            },
            {
                "start_time": 55.5477273,
                "end_time": 55.7477273,
                "pitch": 32,
                "velocity": 80,
                "duration": 0.2,
                "tempo": 120.0
            },
            {
                "start_time": 55.95,
                "end_time": 56.1454545,
                "pitch": 27,
                "velocity": 80,
                "duration": 0.1954545,
                "tempo": 120.0
            },
            {
                "start_time": 56.3431818,
                "end_time": 56.5409091,
                "pitch": 37,
                "velocity": 80,
                "duration": 0.1977273,
                "tempo": 120.0
            },
            {
                "start_time": 56.7431818,
                "end_time": 56.9477273,
                "pitch": 32,
                "velocity": 80,
                "duration": 0.2045455,
                "tempo": 120.0
            },
            {
                "start_time": 57.1545455,
                "end_time": 57.35,
                "pitch": 37,
                "velocity": 80,
                "duration": 0.1954545,
                "tempo": 120.0
            },
            {
                "start_time": 57.5454545,
                "end_time": 57.75,
                "pitch": 32,
                "velocity": 80,
                "duration": 0.2045455,
                "tempo": 120.0
            }
        ],
        "Trumpet": [
            {
                "start_time": 6.475,
                "end_time": 7.2863636,
                "pitch": 65,
                "velocity": 80,
                "duration": 0.8113636,
                "tempo": 120.0
            },
            {
                "start_time": 7.2886364,
                "end_time": 7.6909091,
                "pitch": 66,
                "velocity": 80,
                "duration": 0.4022727,
                "tempo": 120.0
            },
            {
                "start_time": 7.6909091,
                "end_time": 8.0840909,
                "pitch": 65,
                "velocity": 80,
                "duration": 0.3931818,
                "tempo": 120.0
            },
            {
                "start_time": 8.0840909,
                "end_time": 8.8954545,
                "pitch": 65,
                "velocity": 80,
                "duration": 0.8113636,
                "tempo": 120.0
            },
            {
                "start_time": 8.8954545,
                "end_time": 9.6909091,
                "pitch": 63,
                "velocity": 80,
                "duration": 0.7954545,
                "tempo": 120.0
            },
            {
                "start_time": 9.6931818,
                "end_time": 10.5045455,
                "pitch": 63,
                "velocity": 80,
                "duration": 0.8113636,
                "tempo": 120.0
            },
            {
                "start_time": 10.5068182,
                "end_time": 10.7727273,
                "pitch": 65,
                "velocity": 80,
                "duration": 0.2659091,
                "tempo": 120.0
            },
            {
                "start_time": 10.7727273,
                "end_time": 11.0409091,
                "pitch": 63,
                "velocity": 80,
                "duration": 0.2681818,
                "tempo": 120.0
            },
            {
                "start_time": 11.0409091,
                "end_time": 11.3090909,
                "pitch": 65,
                "velocity": 80,
                "duration": 0.2681818,
                "tempo": 120.0
            },
            {
                "start_time": 11.3113636,
                "end_time": 12.9204545,
                "pitch": 61,
                "velocity": 80,
                "duration": 1.6090909,
                "tempo": 120.0
            },
            {
                "start_time": 12.9204545,
                "end_time": 13.725,
                "pitch": 61,
                "velocity": 80,
                "duration": 0.8045455,
                "tempo": 120.0
            },
            {
                "start_time": 13.7272727,
                "end_time": 13.9931818,
                "pitch": 58,
                "velocity": 80,
                "duration": 0.2659091,
                "tempo": 120.0
            },
            {
                "start_time": 13.9954545,
                "end_time": 14.2636364,
                "pitch": 60,
                "velocity": 80,
                "duration": 0.2681818,
                "tempo": 120.0
            },
            {
                "start_time": 14.2636364,
                "end_time": 14.5318182,
                "pitch": 61,
                "velocity": 80,
                "duration": 0.2681818,
                "tempo": 120.0
            },
            {
                "start_time": 14.5340909,
                "end_time": 15.3431818,
                "pitch": 63,
                "velocity": 80,
                "duration": 0.8090909,
                "tempo": 120.0
            },
            {
                "start_time": 15.3454545,
                "end_time": 16.1409091,
                "pitch": 61,
                "velocity": 80,
                "duration": 0.7954545,
                "tempo": 120.0
            },
            {
                "start_time": 16.1409091,
                "end_time": 17.3545455,
                "pitch": 63,
                "velocity": 80,
                "duration": 1.2136364,
                "tempo": 120.0
            },
            {
                "start_time": 17.3568182,
                "end_time": 17.5522727,
                "pitch": 66,
                "velocity": 80,
                "duration": 0.1954545,
                "tempo": 120.0
            },
            {
                "start_time": 17.5522727,
                "end_time": 17.7477273,
                "pitch": 65,
                "velocity": 80,
                "duration": 0.1954545,
                "tempo": 120.0
            },
            {
                "start_time": 17.75,
                "end_time": 19.3636364,
                "pitch": 63,
                "velocity": 80,
                "duration": 1.6136364,
                "tempo": 120.0
            },
            {
                "start_time": 19.3659091,
                "end_time": 20.1659091,
                "pitch": 65,
                "velocity": 80,
                "duration": 0.8,
                "tempo": 120.0
            },
            {
                "start_time": 20.1681818,
                "end_time": 20.5681818,
                "pitch": 66,
                "velocity": 80,
                "duration": 0.4,
                "tempo": 120.0
            },
            {
                "start_time": 20.5681818,
                "end_time": 20.9704545,
                "pitch": 65,
                "velocity": 80,
                "duration": 0.4022727,
                "tempo": 120.0
            },
            {
                "start_time": 20.9727273,
                "end_time": 21.775,
                "pitch": 65,
                "velocity": 80,
                "duration": 0.8022727,
                "tempo": 120.0
            },
            {
                "start_time": 21.775,
                "end_time": 22.575,
                "pitch": 63,
                "velocity": 80,
                "duration": 0.8,
                "tempo": 120.0
            },
            {
                "start_time": 22.5772727,
                "end_time": 23.3909091,
                "pitch": 63,
                "velocity": 80,
                "duration": 0.8136364,
                "tempo": 120.0
            },
            {
                "start_time": 23.3909091,
                "end_time": 23.6568182,
                "pitch": 65,
                "velocity": 80,
                "duration": 0.2659091,
                "tempo": 120.0
            },
            {
                "start_time": 23.6590909,
                "end_time": 23.9204545,
                "pitch": 63,
                "velocity": 80,
                "duration": 0.2613636,
                "tempo": 120.0
            },
            {
                "start_time": 23.9227273,
                "end_time": 24.1840909,
                "pitch": 65,
                "velocity": 80,
                "duration": 0.2613636,
                "tempo": 120.0
            },
            {
                "start_time": 24.1840909,
                "end_time": 25.7909091,
                "pitch": 61,
                "velocity": 80,
                "duration": 1.6068182,
                "tempo": 120.0
            },
            {
                "start_time": 25.7931818,
                "end_time": 26.6022727,
                "pitch": 61,
                "velocity": 80,
                "duration": 0.8090909,
                "tempo": 120.0
            },
            {
                "start_time": 26.6045455,
                "end_time": 26.8704545,
                "pitch": 58,
                "velocity": 80,
                "duration": 0.2659091,
                "tempo": 120.0
            },
            {
                "start_time": 26.8704545,
                "end_time": 27.1363636,
                "pitch": 60,
                "velocity": 80,
                "duration": 0.2659091,
                "tempo": 120.0
            },
            {
                "start_time": 27.1386364,
                "end_time": 27.4068182,
                "pitch": 61,
                "velocity": 80,
                "duration": 0.2681818,
                "tempo": 120.0
            },
            {
                "start_time": 27.4090909,
                "end_time": 28.2113636,
                "pitch": 63,
                "velocity": 80,
                "duration": 0.8022727,
                "tempo": 120.0
            },
            {
                "start_time": 28.2113636,
                "end_time": 29.0113636,
                "pitch": 61,
                "velocity": 80,
                "duration": 0.8,
                "tempo": 120.0
            },
            {
                "start_time": 29.0136364,
                "end_time": 29.8159091,
                "pitch": 63,
                "velocity": 80,
                "duration": 0.8022727,
                "tempo": 120.0
            },
            {
                "start_time": 29.8159091,
                "end_time": 30.0886364,
                "pitch": 66,
                "velocity": 80,
                "duration": 0.2727273,
                "tempo": 120.0
            },
            {
                "start_time": 30.0909091,
                "end_time": 30.3568182,
                "pitch": 65,
                "velocity": 80,
                "duration": 0.2659091,
                "tempo": 120.0
            },
            {
                "start_time": 30.3590909,
                "end_time": 30.6181818,
                "pitch": 63,
                "velocity": 80,
                "duration": 0.2590909,
                "tempo": 120.0
            },
            {
                "start_time": 30.6204545,
                "end_time": 32.2272727,
                "pitch": 61,
                "velocity": 80,
                "duration": 1.6068182,
                "tempo": 120.0
            },
            {
                "start_time": 32.2272727,
                "end_time": 33.0386364,
                "pitch": 70,
                "velocity": 80,
                "duration": 0.8113636,
                "tempo": 120.0
            },
            {
                "start_time": 33.0386364,
                "end_time": 33.4409091,
                "pitch": 63,
                "velocity": 80,
                "duration": 0.4022727,
                "tempo": 120.0
            },
            {
                "start_time": 33.4431818,
                "end_time": 33.8340909,
                "pitch": 61,
                "velocity": 80,
                "duration": 0.3909091,
                "tempo": 120.0
            },
            {
                "start_time": 33.8363636,
                "end_time": 34.6454545,
                "pitch": 60,
                "velocity": 80,
                "duration": 0.8090909,
                "tempo": 120.0
            },
            {
                "start_time": 34.6477273,
                "end_time": 35.45,
                "pitch": 68,
                "velocity": 80,
                "duration": 0.8022727,
                "tempo": 120.0
            },
            {
                "start_time": 35.4522727,
                "end_time": 35.85,
                "pitch": 65,
                "velocity": 80,
                "duration": 0.3977273,
                "tempo": 120.0
            },
            {
                "start_time": 35.8522727,
                "end_time": 36.25,
                "pitch": 66,
                "velocity": 80,
                "duration": 0.3977273,
                "tempo": 120.0
            },
            {
                "start_time": 36.2522727,
                "end_time": 36.6522727,
                "pitch": 65,
                "velocity": 80,
                "duration": 0.4,
                "tempo": 120.0
            },
            {
                "start_time": 36.6522727,
                "end_time": 37.0522727,
                "pitch": 63,
                "velocity": 80,
                "duration": 0.4,
                "tempo": 120.0
            },
            {
                "start_time": 37.0522727,
                "end_time": 37.8659091,
                "pitch": 61,
                "velocity": 80,
                "duration": 0.8136364,
                "tempo": 120.0
            },
            {
                "start_time": 37.8681818,
                "end_time": 38.6590909,
                "pitch": 60,
                "velocity": 80,
                "duration": 0.7909091,
                "tempo": 120.0
            },
            {
                "start_time": 38.6613636,
                "end_time": 39.4704545,
                "pitch": 58,
                "velocity": 80,
                "duration": 0.8090909,
                "tempo": 120.0
            },
            {
                "start_time": 39.4727273,
                "end_time": 39.8727273,
                "pitch": 59,
                "velocity": 80,
                "duration": 0.4,
                "tempo": 120.0
            },
            {
                "start_time": 39.8727273,
                "end_time": 40.2659091,
                "pitch": 61,
                "velocity": 80,
                "duration": 0.3931818,
                "tempo": 120.0
            },
            {
                "start_time": 40.2659091,
                "end_time": 41.0772727,
                "pitch": 63,
                "velocity": 80,
                "duration": 0.8113636,
                "tempo": 120.0
            },
            {
                "start_time": 41.0772727,
                "end_time": 41.4681818,
                "pitch": 64,
                "velocity": 80,
                "duration": 0.3909091,
                "tempo": 120.0
            },
            {
                "start_time": 41.4704545,
                "end_time": 41.8704545,
                "pitch": 66,
                "velocity": 80,
                "duration": 0.4,
                "tempo": 120.0
            },
            {
                "start_time": 41.8704545,
                "end_time": 42.6818182,
                "pitch": 68,
                "velocity": 80,
                "duration": 0.8113636,
                "tempo": 120.0
            },
            {
                "start_time": 42.6818182,
                "end_time": 43.0818182,
                "pitch": 66,
                "velocity": 80,
                "duration": 0.4,
                "tempo": 120.0
            },
            {
                "start_time": 43.0840909,
                "end_time": 43.4818182,
                "pitch": 64,
                "velocity": 80,
                "duration": 0.3977273,
                "tempo": 120.0
            },
            {
                "start_time": 43.4840909,
                "end_time": 44.2840909,
                "pitch": 63,
                "velocity": 80,
                "duration": 0.8,
                "tempo": 120.0
            },
            {
                "start_time": 44.2840909,
                "end_time": 44.6863636,
                "pitch": 65,
                "velocity": 80,
                "duration": 0.4022727,
                "tempo": 120.0
            },
            {
                "start_time": 44.6886364,
                "end_time": 45.0886364,
                "pitch": 66,
                "velocity": 80,
                "duration": 0.4,
                "tempo": 120.0
            },
            {
                "start_time": 45.0886364,
                "end_time": 45.9,
                "pitch": 65,
                "velocity": 101,
                "duration": 0.8113636,
                "tempo": 120.0
            },
            {
                "start_time": 45.9,
                "end_time": 46.3022727,
                "pitch": 66,
                "velocity": 101,
                "duration": 0.4022727,
                "tempo": 120.0
            },
            {
                "start_time": 46.3045455,
                "end_time": 46.6954545,
                "pitch": 65,
                "velocity": 101,
                "duration": 0.3909091,
                "tempo": 120.0
            },
            {
                "start_time": 46.6977273,
                "end_time": 47.5068182,
                "pitch": 65,
                "velocity": 101,
                "duration": 0.8090909,
                "tempo": 120.0
            },
            {
                "start_time": 47.5090909,
                "end_time": 48.3,
                "pitch": 63,
                "velocity": 101,
                "duration": 0.7909091,
                "tempo": 120.0
            },
            {
                "start_time": 48.3022727,
                "end_time": 49.1136364,
                "pitch": 63,
                "velocity": 101,
                "duration": 0.8113636,
                "tempo": 120.0
            },
            {
                "start_time": 49.1159091,
                "end_time": 49.3818182,
                "pitch": 65,
                "velocity": 101,
                "duration": 0.2659091,
                "tempo": 120.0
            },
            {
                "start_time": 49.3818182,
                "end_time": 49.6454545,
                "pitch": 63,
                "velocity": 101,
                "duration": 0.2636364,
                "tempo": 120.0
            },
            {
                "start_time": 49.6477273,
                "end_time": 49.9090909,
                "pitch": 65,
                "velocity": 101,
                "duration": 0.2613636,
                "tempo": 120.0
            },
            {
                "start_time": 49.9090909,
                "end_time": 51.5204545,
                "pitch": 61,
                "velocity": 101,
                "duration": 1.6113636,
                "tempo": 120.0
            },
            {
                "start_time": 51.5227273,
                "end_time": 52.325,
                "pitch": 61,
                "velocity": 101,
                "duration": 0.8022727,
                "tempo": 120.0
            },
            {
                "start_time": 52.325,
                "end_time": 52.5909091,
                "pitch": 63,
                "velocity": 101,
                "duration": 0.2659091,
                "tempo": 120.0
            },
            {
                "start_time": 52.5931818,
                "end_time": 52.8590909,
                "pitch": 65,
                "velocity": 101,
                "duration": 0.2659091,
                "tempo": 120.0
            },
            {
                "start_time": 52.8590909,
                "end_time": 53.125,
                "pitch": 66,
                "velocity": 101,
                "duration": 0.2659091,
                "tempo": 120.0
            },
            {
                "start_time": 53.1272727,
                "end_time": 53.9272727,
                "pitch": 68,
                "velocity": 101,
                "duration": 0.8,
                "tempo": 120.0
            },
            {
                "start_time": 53.9272727,
                "end_time": 54.7295455,
                "pitch": 73,
                "velocity": 101,
                "duration": 0.8022727,
                "tempo": 120.0
            },
            {
                "start_time": 54.7318182,
                "end_time": 55.5431818,
                "pitch": 73,
                "velocity": 101,
                "duration": 0.8113636,
                "tempo": 120.0
            },
            {
                "start_time": 55.5431818,
                "end_time": 55.7431818,
                "pitch": 72,
                "velocity": 101,
                "duration": 0.2,
                "tempo": 120.0
            },
            {
                "start_time": 55.7454545,
                "end_time": 56.1409091,
                "pitch": 73,
                "velocity": 101,
                "duration": 0.3954545,
                "tempo": 120.0
            },
            {
                "start_time": 56.1431818,
                "end_time": 56.3386364,
                "pitch": 75,
                "velocity": 101,
                "duration": 0.1954545,
                "tempo": 120.0
            },
            {
                "start_time": 56.3386364,
                "end_time": 57.9545455,
                "pitch": 73,
                "velocity": 101,
                "duration": 1.6159091,
                "tempo": 120.0
            }
        ],
        "French Horn": [
            {
                "start_time": 6.675,
                "end_time": 6.8772727,
                "pitch": 49,
                "velocity": 64,
                "duration": 0.2022727,
                "tempo": 120.0
            },
            {
                "start_time": 7.0840909,
                "end_time": 7.2886364,
                "pitch": 44,
                "velocity": 64,
                "duration": 0.2045455,
                "tempo": 120.0
            },
            {
                "start_time": 7.4909091,
                "end_time": 7.6931818,
                "pitch": 49,
                "velocity": 64,
                "duration": 0.2022727,
                "tempo": 120.0
            },
            {
                "start_time": 7.8886364,
                "end_time": 8.0863636,
                "pitch": 44,
                "velocity": 64,
                "duration": 0.1977273,
                "tempo": 120.0
            },
            {
                "start_time": 8.2840909,
                "end_time": 8.4840909,
                "pitch": 48,
                "velocity": 64,
                "duration": 0.2,
                "tempo": 120.0
            },
            {
                "start_time": 8.6909091,
                "end_time": 8.8977273,
                "pitch": 43,
                "velocity": 64,
                "duration": 0.2068182,
                "tempo": 120.0
            },
            {
                "start_time": 9.0931818,
                "end_time": 9.2886364,
                "pitch": 48,
                "velocity": 64,
                "duration": 0.1954545,
                "tempo": 120.0
            },
            {
                "start_time": 9.4909091,
                "end_time": 9.6931818,
                "pitch": 43,
                "velocity": 64,
                "duration": 0.2022727,
                "tempo": 120.0
            },
            {
                "start_time": 9.8931818,
                "end_time": 10.0954545,
                "pitch": 47,
                "velocity": 64,
                "duration": 0.2022727,
                "tempo": 120.0
            },
            {
                "start_time": 10.3022727,
                "end_time": 10.5068182,
                "pitch": 42,
                "velocity": 64,
                "duration": 0.2045455,
                "tempo": 120.0
            },
            {
                "start_time": 10.7068182,
                "end_time": 10.9068182,
                "pitch": 47,
                "velocity": 64,
                "duration": 0.2,
                "tempo": 120.0
            },
            {
                "start_time": 11.1090909,
                "end_time": 11.3113636,
                "pitch": 42,
                "velocity": 64,
                "duration": 0.2022727,
                "tempo": 120.0
            },
            {
                "start_time": 11.5113636,
                "end_time": 11.7136364,
                "pitch": 46,
                "velocity": 64,
                "duration": 0.2022727,
                "tempo": 120.0
            },
            {
                "start_time": 11.9159091,
                "end_time": 12.1159091,
                "pitch": 41,
                "velocity": 64,
                "duration": 0.2,
                "tempo": 120.0
            },
            {
                "start_time": 12.3181818,
                "end_time": 12.5204545,
                "pitch": 46,
                "velocity": 64,
                "duration": 0.2022727,
                "tempo": 120.0
            },
            {
                "start_time": 12.7204545,
                "end_time": 12.9227273,
                "pitch": 41,
                "velocity": 64,
                "duration": 0.2022727,
                "tempo": 120.0
            },
            {
                "start_time": 13.1227273,
                "end_time": 13.3227273,
                "pitch": 42,
                "velocity": 64,
                "duration": 0.2,
                "tempo": 120.0
            },
            {
                "start_time": 13.525,
                "end_time": 13.7272727,
                "pitch": 37,
                "velocity": 64,
                "duration": 0.2022727,
                "tempo": 120.0
            },
            {
                "start_time": 13.9295455,
                "end_time": 14.1295455,
                "pitch": 42,
                "velocity": 64,
                "duration": 0.2,
                "tempo": 120.0
            },
            {
                "start_time": 14.3318182,
                "end_time": 14.5340909,
                "pitch": 37,
                "velocity": 64,
                "duration": 0.2022727,
                "tempo": 120.0
            },
            {
                "start_time": 14.7340909,
                "end_time": 14.9340909,
                "pitch": 41,
                "velocity": 64,
                "duration": 0.2,
                "tempo": 120.0
            },
            {
                "start_time": 15.1386364,
                "end_time": 15.3454545,
                "pitch": 36,
                "velocity": 64,
                "duration": 0.2068182,
                "tempo": 120.0
            },
            {
                "start_time": 15.5409091,
                "end_time": 15.7363636,
                "pitch": 46,
                "velocity": 64,
                "duration": 0.1954545,
                "tempo": 120.0
            },
            {
                "start_time": 15.9386364,
                "end_time": 16.1431818,
                "pitch": 41,
                "velocity": 64,
                "duration": 0.2045455,
                "tempo": 120.0
            },
            {
                "start_time": 16.3431818,
                "end_time": 16.5431818,
                "pitch": 47,
                "velocity": 64,
                "duration": 0.2,
                "tempo": 120.0
            },
            {
                "start_time": 16.75,
                "end_time": 16.9545455,
                "pitch": 42,
                "velocity": 64,
                "duration": 0.2045455,
                "tempo": 120.0
            },
            {
                "start_time": 17.1568182,
                "end_time": 17.3568182,
                "pitch": 47,
                "velocity": 64,
                "duration": 0.2,
                "tempo": 120.0
            },
            {
                "start_time": 17.5545455,
                "end_time": 17.75,
                "pitch": 42,
                "velocity": 64,
                "duration": 0.1954545,
                "tempo": 120.0
            },
            {
                "start_time": 17.9545455,
                "end_time": 18.1590909,
                "pitch": 44,
                "velocity": 64,
                "duration": 0.2045455,
                "tempo": 120.0
            },
            {
                "start_time": 18.3613636,
                "end_time": 18.5590909,
                "pitch": 39,
                "velocity": 64,
                "duration": 0.1977273,
                "tempo": 120.0
            },
            {
                "start_time": 18.7636364,
                "end_time": 18.9636364,
                "pitch": 44,
                "velocity": 64,
                "duration": 0.2,
                "tempo": 120.0
            },
            {
                "start_time": 19.1636364,
                "end_time": 19.3659091,
                "pitch": 39,
                "velocity": 64,
                "duration": 0.2022727,
                "tempo": 120.0
            },
            {
                "start_time": 19.5659091,
                "end_time": 19.7659091,
                "pitch": 49,
                "velocity": 64,
                "duration": 0.2,
                "tempo": 120.0
            },
            {
                "start_time": 19.9681818,
                "end_time": 20.1681818,
                "pitch": 44,
                "velocity": 64,
                "duration": 0.2,
                "tempo": 120.0
            },
            {
                "start_time": 20.3681818,
                "end_time": 20.5704545,
                "pitch": 49,
                "velocity": 64,
                "duration": 0.2022727,
                "tempo": 120.0
            },
            {
                "start_time": 20.7704545,
                "end_time": 20.9727273,
                "pitch": 44,
                "velocity": 64,
                "duration": 0.2022727,
                "tempo": 120.0
            },
            {
                "start_time": 21.1727273,
                "end_time": 21.3727273,
                "pitch": 48,
                "velocity": 64,
                "duration": 0.2,
                "tempo": 120.0
            },
            {
                "start_time": 21.575,
                "end_time": 21.7772727,
                "pitch": 43,
                "velocity": 64,
                "duration": 0.2022727,
                "tempo": 120.0
            },
            {
                "start_time": 21.9772727,
                "end_time": 22.175,
                "pitch": 48,
                "velocity": 64,
                "duration": 0.1977273,
                "tempo": 120.0
            },
            {
                "start_time": 22.3772727,
                "end_time": 22.5772727,
                "pitch": 43,
                "velocity": 64,
                "duration": 0.2,
                "tempo": 120.0
            },
            {
                "start_time": 22.7795455,
                "end_time": 22.9795455,
                "pitch": 47,
                "velocity": 64,
                "duration": 0.2,
                "tempo": 120.0
            },
            {
                "start_time": 23.1863636,
                "end_time": 23.3931818,
                "pitch": 42,
                "velocity": 64,
                "duration": 0.2068182,
                "tempo": 120.0
            },
            {
                "start_time": 23.5909091,
                "end_time": 23.7909091,
                "pitch": 47,
                "velocity": 64,
                "duration": 0.2,
                "tempo": 120.0
            },
            {
                "start_time": 23.9886364,
                "end_time": 24.1863636,
                "pitch": 42,
                "velocity": 64,
                "duration": 0.1977273,
                "tempo": 120.0
            },
            {
                "start_time": 24.3840909,
                "end_time": 24.5840909,
                "pitch": 46,
                "velocity": 64,
                "duration": 0.2,
                "tempo": 120.0
            },
            {
                "start_time": 24.7909091,
                "end_time": 24.9954545,
                "pitch": 41,
                "velocity": 64,
                "duration": 0.2045455,
                "tempo": 120.0
            },
            {
                "start_time": 25.1931818,
                "end_time": 25.3886364,
                "pitch": 46,
                "velocity": 64,
                "duration": 0.1954545,
                "tempo": 120.0
            },
            {
                "start_time": 25.5909091,
                "end_time": 25.7931818,
                "pitch": 41,
                "velocity": 64,
                "duration": 0.2022727,
                "tempo": 120.0
            },
            {
                "start_time": 25.9931818,
                "end_time": 26.1931818,
                "pitch": 42,
                "velocity": 64,
                "duration": 0.2,
                "tempo": 120.0
            },
            {
                "start_time": 26.3977273,
                "end_time": 26.6045455,
                "pitch": 37,
                "velocity": 64,
                "duration": 0.2068182,
                "tempo": 120.0
            },
            {
                "start_time": 26.8045455,
                "end_time": 27.0045455,
                "pitch": 42,
                "velocity": 64,
                "duration": 0.2,
                "tempo": 120.0
            },
            {
                "start_time": 27.2068182,
                "end_time": 27.4090909,
                "pitch": 37,
                "velocity": 64,
                "duration": 0.2022727,
                "tempo": 120.0
            },
            {
                "start_time": 27.6090909,
                "end_time": 27.8068182,
                "pitch": 41,
                "velocity": 64,
                "duration": 0.1977273,
                "tempo": 120.0
            },
            {
                "start_time": 28.0090909,
                "end_time": 28.2136364,
                "pitch": 36,
                "velocity": 64,
                "duration": 0.2045455,
                "tempo": 120.0
            },
            {
                "start_time": 28.4113636,
                "end_time": 28.6113636,
                "pitch": 46,
                "velocity": 64,
                "duration": 0.2,
                "tempo": 120.0
            },
            {
                "start_time": 28.8136364,
                "end_time": 29.0136364,
                "pitch": 41,
                "velocity": 64,
                "duration": 0.2,
                "tempo": 120.0
            },
            {
                "start_time": 29.2136364,
                "end_time": 29.4159091,
                "pitch": 47,
                "velocity": 64,
                "duration": 0.2022727,
                "tempo": 120.0
            },
            {
                "start_time": 29.6159091,
                "end_time": 29.8181818,
                "pitch": 42,
                "velocity": 64,
                "duration": 0.2022727,
                "tempo": 120.0
            },
            {
                "start_time": 30.0227273,
                "end_time": 30.2272727,
                "pitch": 44,
                "velocity": 64,
                "duration": 0.2045455,
                "tempo": 120.0
            },
            {
                "start_time": 30.425,
                "end_time": 30.6204545,
                "pitch": 39,
                "velocity": 64,
                "duration": 0.1954545,
                "tempo": 120.0
            },
            {
                "start_time": 30.8204545,
                "end_time": 31.0204545,
                "pitch": 49,
                "velocity": 64,
                "duration": 0.2,
                "tempo": 120.0
            },
            {
                "start_time": 31.2272727,
                "end_time": 31.4318182,
                "pitch": 44,
                "velocity": 64,
                "duration": 0.2045455,
                "tempo": 120.0
            },
            {
                "start_time": 31.6295455,
                "end_time": 31.825,
                "pitch": 49,
                "velocity": 64,
                "duration": 0.1954545,
                "tempo": 120.0
            },
            {
                "start_time": 32.0272727,
                "end_time": 32.2295455,
                "pitch": 44,
                "velocity": 64,
                "duration": 0.2022727,
                "tempo": 120.0
            }
        ],
        "Clarinet": [
            {
                "start_time": 0.0340909,
                "end_time": 0.2318182,
                "pitch": 65,
                "velocity": 64,
                "duration": 0.1977273,
                "tempo": 120.0
            },
            {
                "start_time": 1.2454545,
                "end_time": 1.4454545,
                "pitch": 54,
                "velocity": 64,
                "duration": 0.2,
                "tempo": 120.0
            },
            {
                "start_time": 1.6454545,
                "end_time": 1.8454545,
                "pitch": 65,
                "velocity": 64,
                "duration": 0.2,
                "tempo": 120.0
            },
            {
                "start_time": 2.85,
                "end_time": 3.05,
                "pitch": 54,
                "velocity": 64,
                "duration": 0.2,
                "tempo": 120.0
            },
            {
                "start_time": 3.2522727,
                "end_time": 3.45,
                "pitch": 65,
                "velocity": 64,
                "duration": 0.1977273,
                "tempo": 120.0
            },
            {
                "start_time": 4.4636364,
                "end_time": 4.6636364,
                "pitch": 54,
                "velocity": 64,
                "duration": 0.2,
                "tempo": 120.0
            },
            {
                "start_time": 4.8659091,
                "end_time": 5.0659091,
                "pitch": 65,
                "velocity": 64,
                "duration": 0.2,
                "tempo": 120.0
            },
            {
                "start_time": 6.0704545,
                "end_time": 6.2704545,
                "pitch": 54,
                "velocity": 64,
                "duration": 0.2,
                "tempo": 120.0
            },
            {
                "start_time": 57.9613636,
                "end_time": 57.9659091,
                "pitch": 65,
                "velocity": 64,
                "duration": 0.0045455,
                "tempo": 120.0
            }
        ],
        "Flute": [
            {
                "start_time": 6.4772727,
                "end_time": 7.2886364,
                "pitch": 77,
                "velocity": 64,
                "duration": 0.8113636,
                "tempo": 120.0
            },
            {
                "start_time": 7.2886364,
                "end_time": 7.6909091,
                "pitch": 78,
                "velocity": 64,
                "duration": 0.4022727,
                "tempo": 120.0
            },
            {
                "start_time": 7.6931818,
                "end_time": 8.0840909,
                "pitch": 77,
                "velocity": 64,
                "duration": 0.3909091,
                "tempo": 120.0
            },
            {
                "start_time": 8.0863636,
                "end_time": 8.8954545,
                "pitch": 77,
                "velocity": 64,
                "duration": 0.8090909,
                "tempo": 120.0
            },
            {
                "start_time": 8.8977273,
                "end_time": 9.6931818,
                "pitch": 75,
                "velocity": 64,
                "duration": 0.7954545,
                "tempo": 120.0
            },
            {
                "start_time": 9.6931818,
                "end_time": 10.5068182,
                "pitch": 75,
                "velocity": 64,
                "duration": 0.8136364,
                "tempo": 120.0
            },
            {
                "start_time": 10.5068182,
                "end_time": 10.7727273,
                "pitch": 77,
                "velocity": 64,
                "duration": 0.2659091,
                "tempo": 120.0
            },
            {
                "start_time": 10.775,
                "end_time": 11.0409091,
                "pitch": 75,
                "velocity": 64,
                "duration": 0.2659091,
                "tempo": 120.0
            },
            {
                "start_time": 11.0431818,
                "end_time": 11.3113636,
                "pitch": 77,
                "velocity": 64,
                "duration": 0.2681818,
                "tempo": 120.0
            },
            {
                "start_time": 11.3113636,
                "end_time": 12.9204545,
                "pitch": 73,
                "velocity": 64,
                "duration": 1.6090909,
                "tempo": 120.0
            },
            {
                "start_time": 12.9227273,
                "end_time": 13.7272727,
                "pitch": 73,
                "velocity": 64,
                "duration": 0.8045455,
                "tempo": 120.0
            },
            {
                "start_time": 13.7272727,
                "end_time": 13.9954545,
                "pitch": 70,
                "velocity": 64,
                "duration": 0.2681818,
                "tempo": 120.0
            },
            {
                "start_time": 13.9977273,
                "end_time": 14.2636364,
                "pitch": 72,
                "velocity": 64,
                "duration": 0.2659091,
                "tempo": 120.0
            },
            {
                "start_time": 14.2659091,
                "end_time": 14.5340909,
                "pitch": 73,
                "velocity": 64,
                "duration": 0.2681818,
                "tempo": 120.0
            },
            {
                "start_time": 14.5340909,
                "end_time": 15.3454545,
                "pitch": 75,
                "velocity": 64,
                "duration": 0.8113636,
                "tempo": 120.0
            },
            {
                "start_time": 15.3454545,
                "end_time": 16.1409091,
                "pitch": 73,
                "velocity": 64,
                "duration": 0.7954545,
                "tempo": 120.0
            },
            {
                "start_time": 16.1431818,
                "end_time": 17.3568182,
                "pitch": 75,
                "velocity": 64,
                "duration": 1.2136364,
                "tempo": 120.0
            },
            {
                "start_time": 17.3568182,
                "end_time": 17.5522727,
                "pitch": 78,
                "velocity": 64,
                "duration": 0.1954545,
                "tempo": 120.0
            },
            {
                "start_time": 17.5545455,
                "end_time": 17.75,
                "pitch": 77,
                "velocity": 64,
                "duration": 0.1954545,
                "tempo": 120.0
            },
            {
                "start_time": 17.75,
                "end_time": 19.3659091,
                "pitch": 75,
                "velocity": 64,
                "duration": 1.6159091,
                "tempo": 120.0
            },
            {
                "start_time": 19.3659091,
                "end_time": 20.1681818,
                "pitch": 73,
                "velocity": 64,
                "duration": 0.8022727,
                "tempo": 120.0
            },
            {
                "start_time": 20.1681818,
                "end_time": 20.5681818,
                "pitch": 73,
                "velocity": 64,
                "duration": 0.4,
                "tempo": 120.0
            },
            {
                "start_time": 20.5704545,
                "end_time": 20.9727273,
                "pitch": 73,
                "velocity": 64,
                "duration": 0.4022727,
                "tempo": 120.0
            },
            {
                "start_time": 20.9727273,
                "end_time": 21.775,
                "pitch": 72,
                "velocity": 64,
                "duration": 0.8022727,
                "tempo": 120.0
            },
            {
                "start_time": 21.7772727,
                "end_time": 22.5772727,
                "pitch": 72,
                "velocity": 64,
                "duration": 0.8,
                "tempo": 120.0
            },
            {
                "start_time": 22.5772727,
                "end_time": 23.3909091,
                "pitch": 71,
                "velocity": 64,
                "duration": 0.8136364,
                "tempo": 120.0
            },
            {
                "start_time": 23.3931818,
                "end_time": 23.6590909,
                "pitch": 71,
                "velocity": 64,
                "duration": 0.2659091,
                "tempo": 120.0
            },
            {
                "start_time": 23.6590909,
                "end_time": 23.9227273,
                "pitch": 71,
                "velocity": 64,
                "duration": 0.2636364,
                "tempo": 120.0
            },
            {
                "start_time": 23.9227273,
                "end_time": 24.1840909,
                "pitch": 71,
                "velocity": 64,
                "duration": 0.2613636,
                "tempo": 120.0
            },
            {
                "start_time": 24.1863636,
                "end_time": 25.7931818,
                "pitch": 70,
                "velocity": 64,
                "duration": 1.6068182,
                "tempo": 120.0
            },
            {
                "start_time": 25.7931818,
                "end_time": 26.6045455,
                "pitch": 70,
                "velocity": 64,
                "duration": 0.8113636,
                "tempo": 120.0
            },
            {
                "start_time": 26.6045455,
                "end_time": 26.8704545,
                "pitch": 66,
                "velocity": 64,
                "duration": 0.2659091,
                "tempo": 120.0
            },
            {
                "start_time": 26.8727273,
                "end_time": 27.1386364,
                "pitch": 68,
                "velocity": 64,
                "duration": 0.2659091,
                "tempo": 120.0
            },
            {
                "start_time": 27.1386364,
                "end_time": 27.4090909,
                "pitch": 70,
                "velocity": 64,
                "duration": 0.2704545,
                "tempo": 120.0
            },
            {
                "start_time": 27.4090909,
                "end_time": 28.2113636,
                "pitch": 70,
                "velocity": 64,
                "duration": 0.8022727,
                "tempo": 120.0
            },
            {
                "start_time": 28.2136364,
                "end_time": 29.0136364,
                "pitch": 70,
                "velocity": 64,
                "duration": 0.8,
                "tempo": 120.0
            },
            {
                "start_time": 29.0136364,
                "end_time": 29.8159091,
                "pitch": 71,
                "velocity": 64,
                "duration": 0.8022727,
                "tempo": 120.0
            },
            {
                "start_time": 29.8181818,
                "end_time": 30.0909091,
                "pitch": 68,
                "velocity": 64,
                "duration": 0.2727273,
                "tempo": 120.0
            },
            {
                "start_time": 30.0909091,
                "end_time": 30.3590909,
                "pitch": 68,
                "velocity": 64,
                "duration": 0.2681818,
                "tempo": 120.0
            },
            {
                "start_time": 30.3590909,
                "end_time": 30.6204545,
                "pitch": 68,
                "velocity": 64,
                "duration": 0.2613636,
                "tempo": 120.0
            },
            {
                "start_time": 30.6204545,
                "end_time": 32.2272727,
                "pitch": 65,
                "velocity": 64,
                "duration": 1.6068182,
                "tempo": 120.0
            }
        ]
    }
}