{
    "mood": "happy",
    "instruments": {
        "Acoustic Bass": [
            {
                "start_time": 0.0,
                "end_time": 0.0659091,
                "pitch": 63,
                "velocity": 51,
                "duration": 0.0659091,
                "tempo": 120.0
            },
            {
                "start_time": 0.0772727,
                "end_time": 0.2659091,
                "pitch": 63,
                "velocity": 51,
                "duration": 0.1886364,
                "tempo": 120.0
            },
            {
                "start_time": 0.2772727,
                "end_time": 0.5136364,
                "pitch": 58,
                "velocity": 51,
                "duration": 0.2363636,
                "tempo": 120.0
            },
            {
                "start_time": 0.5318182,
                "end_time": 0.6659091,
                "pitch": 63,
                "velocity": 51,
                "duration": 0.1340909,
                "tempo": 120.0
            },
            {
                "start_time": 0.6840909,
                "end_time": 0.9681818,
                "pitch": 63,
                "velocity": 51,
                "duration": 0.2840909,
                "tempo": 120.0
            },
            {
                "start_time": 0.9840909,
                "end_time": 1.1136364,
                "pitch": 65,
                "velocity": 51,
                "duration": 0.1295455,
                "tempo": 120.0
            },
            {
                "start_time": 1.1318182,
                "end_time": 1.2590909,
                "pitch": 65,
                "velocity": 51,
                "duration": 0.1272727,
                "tempo": 120.0
            },
            {
                "start_time": 1.2772727,
                "end_time": 1.4068182,
                "pitch": 68,
                "velocity": 51,
                "duration": 0.1295455,
                "tempo": 120.0
            },
            {
                "start_time": 1.4227273,
                "end_time": 1.7045455,
                "pitch": 72,
                "velocity": 51,
                "duration": 0.2818182,
                "tempo": 120.0
            },
            {
                "start_time": 1.7204545,
                "end_time": 1.8568182,
                "pitch": 72,
                "velocity": 51,
                "duration": 0.1363636,
                "tempo": 120.0
            },
            {
                "start_time": 1.875,
                "end_time": 2.1636364,
                "pitch": 65,
                "velocity": 51,
                "duration": 0.2886364,
                "tempo": 120.0
            },
            {
                "start_time": 2.1795455,
                "end_time": 2.4659091,
                "pitch": 70,
                "velocity": 51,
                "duration": 0.2863636,
                "tempo": 120.0
            },
            {
                "start_time": 2.4840909,
                "end_time": 2.7704545,
                "pitch": 70,
                "velocity": 51,
                "duration": 0.2863636,
                "tempo": 120.0
            },
            {
                "start_time": 2.7863636,
                "end_time": 3.0727273,
                "pitch": 67,
                "velocity": 51,
                "duration": 0.2863636,
                "tempo": 120.0
            },
            {
                "start_time": 3.0886364,
                "end_time": 3.375,
                "pitch": 65,
                "velocity": 51,
                "duration": 0.2863636,
                "tempo": 120.0
            },
            {
                "start_time": 3.3931818,
                "end_time": 3.975,
                "pitch": 63,
                "velocity": 51,
                "duration": 0.5818182,
                "tempo": 120.0
            }
        ],
        "Trumpet": [
            {
                "start_time": 0.0,
                "end_time": 0.0659091,
                "pitch": 70,
                "velocity": 40,
                "duration": 0.0659091,
                "tempo": 120.0
            },
            {
                "start_time": 0.0772727,
                "end_time": 0.2659091,
                "pitch": 70,
                "velocity": 40,
                "duration": 0.1886364,
                "tempo": 120.0
            },
            {
                "start_time": 0.2772727,
                "end_time": 0.3659091,
                "pitch": 75,
                "velocity": 40,
                "duration": 0.0886364,
                "tempo": 120.0
            },
            {
                "start_time": 0.3795455,
                "end_time": 0.9681818,
                "pitch": 79,
                "velocity": 40,
                "duration": 0.5886364,
                "tempo": 120.0
            },
            {
                "start_time": 0.9840909,
                "end_time": 1.1136364,
                "pitch": 72,
                "velocity": 40,
                "duration": 0.1295455,
                "tempo": 120.0
            },
            {
                "start_time": 1.1318182,
                "end_time": 1.4068182,
                "pitch": 72,
                "velocity": 40,
                "duration": 0.275,
                "tempo": 120.0
            },
            {
                "start_time": 1.4227273,
                "end_time": 1.5522727,
                "pitch": 77,
                "velocity": 40,
                "duration": 0.1295455,
                "tempo": 120.0
            },
            {
                "start_time": 1.5681818,
                "end_time": 2.1636364,
                "pitch": 80,
                "velocity": 40,
                "duration": 0.5954545,
                "tempo": 120.0
            },
            {
                "start_time": 2.1795455,
                "end_time": 2.4659091,
                "pitch": 79,
                "velocity": 40,
                "duration": 0.2863636,
                "tempo": 120.0
            },
            {
                "start_time": 2.4840909,
                "end_time": 2.7704545,
                "pitch": 79,
                "velocity": 40,
                "duration": 0.2863636,
                "tempo": 120.0
            },
            {
                "start_time": 2.7863636,
                "end_time": 3.0727273,
                "pitch": 75,
                "velocity": 40,
                "duration": 0.2863636,
                "tempo": 120.0
            },
            {
                "start_time": 3.0886364,
                "end_time": 3.375,
                "pitch": 74,
                "velocity": 40,
                "duration": 0.2863636,
                "tempo": 120.0
            },
            {
                "start_time": 3.3931818,
                "end_time": 3.975,
                "pitch": 82,
                "velocity": 40,
                "duration": 0.5818182,
                "tempo": 120.0
            }
        ]
    }
}