{
    "mood": "happy",
    "instruments": {
        "Lead 2 (sawtooth)": [
            {
                "start_time": 0.0022727,
                "end_time": 0.0795455,
                "pitch": 60,
                "velocity": 80,
                "duration": 0.0772727,
                "tempo": 120.0
            },
            {
                "start_time": 0.1,
                "end_time": 0.1863636,
                "pitch": 56,
                "velocity": 80,
                "duration": 0.0863636,
                "tempo": 120.0
            },
            {
                "start_time": 0.1954545,
                "end_time": 0.3431818,
                "pitch": 60,
                "velocity": 80,
                "duration": 0.1477273,
                "tempo": 120.0
            },
            {
                "start_time": 0.3772727,
                "end_time": 0.6727273,
                "pitch": 65,
                "velocity": 80,
                "duration": 0.2954545,
                "tempo": 120.0
            },
            {
                "start_time": 0.7068182,
                "end_time": 0.8545455,
                "pitch": 60,
                "velocity": 80,
                "duration": 0.1477273,
                "tempo": 120.0
            },
            {
                "start_time": 0.8704545,
                "end_time": 1.0227273,
                "pitch": 65,
                "velocity": 80,
                "duration": 0.1522727,
                "tempo": 120.0
            },
            {
                "start_time": 1.0568182,
                "end_time": 1.1909091,
                "pitch": 67,
                "velocity": 80,
                "duration": 0.1340909,
                "tempo": 120.0
            },
            {
                "start_time": 1.225,
                "end_time": 2.0727273,
                "pitch": 68,
                "velocity": 80,
                "duration": 0.8477273,
                "tempo": 120.0
            },
            {
                "start_time": 2.1090909,
                "end_time": 2.2454545,
                "pitch": 68,
                "velocity": 80,
                "duration": 0.1363636,
                "tempo": 120.0
            },
            {
                "start_time": 2.2795455,
                "end_time": 2.4272727,
                "pitch": 72,
                "velocity": 80,
                "duration": 0.1477273,
                "tempo": 120.0
            },
            {
                "start_time": 2.4431818,
                "end_time": 2.9227273,
                "pitch": 68,
                "velocity": 80,
                "duration": 0.4795455,
                "tempo": 120.0
            },
            {
                "start_time": 2.9545455,
                "end_time": 3.275,
                "pitch": 67,
                "velocity": 80,
                "duration": 0.3204545,
                "tempo": 120.0
            },
            {
                "start_time": 3.3090909,
                "end_time": 3.4431818,
                "pitch": 60,
                "velocity": 80,
                "duration": 0.1340909,
                "tempo": 120.0
            },
            {
                "start_time": 3.4772727,
                "end_time": 3.6295455,
                "pitch": 65,
                "velocity": 80,
                "duration": 0.1522727,
                "tempo": 120.0
            },
            {
                "start_time": 3.6477273,
                "end_time": 3.7954545,
                "pitch": 72,
                "velocity": 80,
                "duration": 0.1477273,
                "tempo": 120.0
            },
            {
                "start_time": 3.8295455,
                "end_time": 4.8340909,
                "pitch": 67,
                "velocity": 80,
                "duration": 1.0045455,
                "tempo": 120.0
            },
            {
                "start_time": 4.8681818,
                "end_time": 5.0045455,
                "pitch": 63,
                "velocity": 80,
                "duration": 0.1363636,
                "tempo": 120.0
            },
            {
                "start_time": 5.0386364,
                "end_time": 5.175,
                "pitch": 67,
                "velocity": 80,
                "duration": 0.1363636,
                "tempo": 120.0
            },
            {
                "start_time": 5.2090909,
                "end_time": 5.3590909,
                "pitch": 68,
                "velocity": 80,
                "duration": 0.15,
                "tempo": 120.0
            },
            {
                "start_time": 5.3931818,
                "end_time": 5.5295455,
                "pitch": 70,
                "velocity": 80,
                "duration": 0.1363636,
                "tempo": 120.0
            },
            {
                "start_time": 5.5636364,
                "end_time": 5.6977273,
                "pitch": 68,
                "velocity": 80,
                "duration": 0.1340909,
                "tempo": 120.0
            },
            {
                "start_time": 5.7318182,
                "end_time": 5.8795455,
                "pitch": 67,
                "velocity": 80,
                "duration": 0.1477273,
                "tempo": 120.0
            },
            {
                "start_time": 5.8954545,
                "end_time": 6.2090909,
                "pitch": 64,
                "velocity": 80,
                "duration": 0.3136364,
                "tempo": 120.0
            },
            {
                "start_time": 6.2431818,
                "end_time": 6.3909091,
                "pitch": 64,
                "velocity": 80,
                "duration": 0.1477273,
                "tempo": 120.0
            },
            {
                "start_time": 6.4068182,
                "end_time": 6.5545455,
                "pitch": 65,
                "velocity": 80,
                "duration": 0.1477273,
                "tempo": 120.0
            },
            {
                "start_time": 6.5886364,
                "end_time": 6.7204545,
                "pitch": 67,
                "velocity": 80,
                "duration": 0.1318182,
                "tempo": 120.0
            },
            {
                "start_time": 6.7545455,
                "end_time": 7.2363636,
                "pitch": 65,
                "velocity": 80,
                "duration": 0.4818182,
                "tempo": 120.0
            },
            {
                "start_time": 7.2704545,
                "end_time": 7.5954545,
                "pitch": 60,
                "velocity": 80,
                "duration": 0.325,
                "tempo": 120.0
            },
            {
                "start_time": 7.6295455,
                "end_time": 7.7659091,
                "pitch": 60,
                "velocity": 80,
                "duration": 0.1363636,
                "tempo": 120.0
            },
            {
                "start_time": 7.8,
                "end_time": 7.9340909,
                "pitch": 65,
                "velocity": 80,
                "duration": 0.1340909,
                "tempo": 120.0
            },
            {
                "start_time": 7.9681818,
                "end_time": 8.1204545,
                "pitch": 68,
                "velocity": 80,
                "duration": 0.1522727,
                "tempo": 120.0
            },
            {
                "start_time": 8.1386364,
                "end_time": 8.4568182,
                "pitch": 69,
                "velocity": 80,
                "duration": 0.3181818,
                "tempo": 120.0
            },
            {
                "start_time": 8.4909091,
                "end_time": 8.8045455,
                "pitch": 60,
                "velocity": 80,
                "duration": 0.3136364,
                "tempo": 120.0
            },
            {
                "start_time": 8.8386364,
                "end_time": 9.15,
                "pitch": 65,
                "velocity": 80,
                "duration": 0.3113636,
                "tempo": 120.0
            },
            {
                "start_time": 9.1681818,
                "end_time": 9.3181818,
                "pitch": 65,
                "velocity": 80,
                "duration": 0.15,
                "tempo": 120.0
            },
            {
                "start_time": 9.3545455,
                "end_time": 10.0113636,
                "pitch": 65,
                "velocity": 80,
                "duration": 0.6568182,
                "tempo": 120.0
            },
            {
                "start_time": 10.0477273,
                "end_time": 10.5409091,
                "pitch": 64,
                "velocity": 80,
                "duration": 0.4931818,
                "tempo": 120.0
            },
            {
                "start_time": 10.9068182,
                "end_time": 11.0545455,
                "pitch": 60,
                "velocity": 80,
                "duration": 0.1477273,
                "tempo": 120.0
            },
            {
                "start_time": 11.0886364,
                "end_time": 11.2181818,
                "pitch": 56,
                "velocity": 80,
                "duration": 0.1295455,
                "tempo": 120.0
            },
            {
                "start_time": 11.2522727,
                "end_time": 11.4045455,
                "pitch": 60,
                "velocity": 80,
                "duration": 0.1522727,
                "tempo": 120.0
            },
            {
                "start_time": 11.4204545,
                "end_time": 11.7409091,
                "pitch": 65,
                "velocity": 80,
                "duration": 0.3204545,
                "tempo": 120.0
            },
            {
                "start_time": 11.775,
                "end_time": 11.9272727,
                "pitch": 60,
                "velocity": 80,
                "duration": 0.1522727,
                "tempo": 120.0
            },
            {
                "start_time": 11.9431818,
                "end_time": 12.0931818,
                "pitch": 65,
                "velocity": 80,
                "duration": 0.15,
                "tempo": 120.0
            },
            {
                "start_time": 12.125,
                "end_time": 12.2568182,
                "pitch": 67,
                "velocity": 80,
                "duration": 0.1318182,
                "tempo": 120.0
            },
            {
                "start_time": 12.2909091,
                "end_time": 13.1136364,
                "pitch": 68,
                "velocity": 80,
                "duration": 0.8227273,
                "tempo": 120.0
            },
            {
                "start_time": 13.1318182,
                "end_time": 13.2795455,
                "pitch": 68,
                "velocity": 80,
                "duration": 0.1477273,
                "tempo": 120.0
            },
            {
                "start_time": 13.3136364,
                "end_time": 13.45,
                "pitch": 72,
                "velocity": 80,
                "duration": 0.1363636,
                "tempo": 120.0
            },
            {
                "start_time": 13.4863636,
                "end_time": 13.9863636,
                "pitch": 68,
                "velocity": 80,
                "duration": 0.5,
                "tempo": 120.0
            },
            {
                "start_time": 14.0204545,
                "end_time": 14.3340909,
                "pitch": 67,
                "velocity": 80,
                "duration": 0.3136364,
                "tempo": 120.0
            },
            {
                "start_time": 14.3681818,
                "end_time": 14.4977273,
                "pitch": 60,
                "velocity": 80,
                "duration": 0.1295455,
                "tempo": 120.0
            },
            {
                "start_time": 14.5318182,
                "end_time": 14.6636364,
                "pitch": 65,
                "velocity": 80,
                "duration": 0.1318182,
                "tempo": 120.0
            },
            {
                "start_time": 14.6977273,
                "end_time": 14.8477273,
                "pitch": 72,
                "velocity": 80,
                "duration": 0.15,
                "tempo": 120.0
            },
            {
                "start_time": 14.8659091,
                "end_time": 15.8840909,
                "pitch": 67,
                "velocity": 80,
                "duration": 1.0181818,
                "tempo": 120.0
            },
            {
                "start_time": 15.9,
                "end_time": 16.0477273,
                "pitch": 63,
                "velocity": 80,
                "duration": 0.1477273,
                "tempo": 120.0
            },
            {
                "start_time": 16.0818182,
                "end_time": 16.2181818,
                "pitch": 67,
                "velocity": 80,
                "duration": 0.1363636,
                "tempo": 120.0
            },
            {
                "start_time": 16.2522727,
                "end_time": 16.4045455,
                "pitch": 68,
                "velocity": 80,
                "duration": 0.1522727,
                "tempo": 120.0
            },
            {
                "start_time": 16.4227273,
                "end_time": 16.575,
                "pitch": 70,
                "velocity": 80,
                "duration": 0.1522727,
                "tempo": 120.0
            },
            {
                "start_time": 16.6113636,
                "end_time": 16.7454545,
                "pitch": 68,
                "velocity": 80,
                "duration": 0.1340909,
                "tempo": 120.0
            },
            {
                "start_time": 16.7818182,
                "end_time": 16.9136364,
                "pitch": 67,
                "velocity": 80,
                "duration": 0.1318182,
                "tempo": 120.0
            },
            {
                "start_time": 16.9454545,
                "end_time": 17.2590909,
                "pitch": 64,
                "velocity": 80,
                "duration": 0.3136364,
                "tempo": 120.0
            },
            {
                "start_time": 17.2931818,
                "end_time": 17.4227273,
                "pitch": 64,
                "velocity": 80,
                "duration": 0.1295455,
                "tempo": 120.0
            },
            {
                "start_time": 17.4568182,
                "end_time": 17.6090909,
                "pitch": 65,
                "velocity": 80,
                "duration": 0.1522727,
                "tempo": 120.0
            },
            {
                "start_time": 17.625,
                "end_time": 17.7772727,
                "pitch": 67,
                "velocity": 80,
                "duration": 0.1522727,
                "tempo": 120.0
            },
            {
                "start_time": 17.8113636,
                "end_time": 18.2977273,
                "pitch": 65,
                "velocity": 80,
                "duration": 0.4863636,
                "tempo": 120.0
            },
            {
                "start_time": 18.3318182,
                "end_time": 18.5613636,
                "pitch": 72,
                "velocity": 80,
                "duration": 0.2295455,
                "tempo": 120.0
            },
            {
                "start_time": 18.5613636,
                "end_time": 18.6272727,
                "pitch": 70,
                "velocity": 80,
                "duration": 0.0659091,
                "tempo": 120.0
            },
            {
                "start_time": 18.6272727,
                "end_time": 18.6431818,
                "pitch": 67,
                "velocity": 80,
                "duration": 0.0159091,
                "tempo": 120.0
            },
            {
                "start_time": 18.6613636,
                "end_time": 18.8090909,
                "pitch": 60,
                "velocity": 80,
                "duration": 0.1477273,
                "tempo": 120.0
            },
            {
                "start_time": 18.8409091,
                "end_time": 18.9772727,
                "pitch": 65,
                "velocity": 80,
                "duration": 0.1363636,
                "tempo": 120.0
            },
            {
                "start_time": 19.0113636,
                "end_time": 19.1477273,
                "pitch": 65,
                "velocity": 80,
                "duration": 0.1363636,
                "tempo": 120.0
            },
            {
                "start_time": 19.1840909,
                "end_time": 19.3363636,
                "pitch": 68,
                "velocity": 80,
                "duration": 0.1522727,
                "tempo": 120.0
            },
            {
                "start_time": 19.3704545,
                "end_time": 19.5068182,
                "pitch": 67,
                "velocity": 80,
                "duration": 0.1363636,
                "tempo": 120.0
            },
            {
                "start_time": 19.5409091,
                "end_time": 19.675,
                "pitch": 65,
                "velocity": 80,
                "duration": 0.1340909,
                "tempo": 120.0
            },
            {
                "start_time": 19.7090909,
                "end_time": 20.0295455,
                "pitch": 67,
                "velocity": 80,
                "duration": 0.3204545,
                "tempo": 120.0
            },
            {
                "start_time": 20.0636364,
                "end_time": 20.2,
                "pitch": 65,
                "velocity": 80,
                "duration": 0.1363636,
                "tempo": 120.0
            },
            {
                "start_time": 20.2340909,
                "end_time": 20.3818182,
                "pitch": 64,
                "velocity": 80,
                "duration": 0.1477273,
                "tempo": 120.0
            },
            {
                "start_time": 20.3977273,
                "end_time": 21.5681818,
                "pitch": 60,
                "velocity": 80,
                "duration": 1.1704545,
                "tempo": 120.0
            },
            {
                "start_time": 21.9477273,
                "end_time": 22.275,
                "pitch": 61,
                "velocity": 80,
                "duration": 0.3272727,
                "tempo": 120.0
            },
            {
                "start_time": 22.3090909,
                "end_time": 22.4409091,
                "pitch": 68,
                "velocity": 80,
                "duration": 0.1318182,
                "tempo": 120.0
            },
            {
                "start_time": 22.475,
                "end_time": 22.9522727,
                "pitch": 67,
                "velocity": 80,
                "duration": 0.4772727,
                "tempo": 120.0
            },
            {
                "start_time": 22.9863636,
                "end_time": 23.1340909,
                "pitch": 68,
                "velocity": 80,
                "duration": 0.1477273,
                "tempo": 120.0
            },
            {
                "start_time": 23.15,
                "end_time": 23.6454545,
                "pitch": 65,
                "velocity": 80,
                "duration": 0.4954545,
                "tempo": 120.0
            },
            {
                "start_time": 23.6613636,
                "end_time": 23.8136364,
                "pitch": 63,
                "velocity": 80,
                "duration": 0.1522727,
                "tempo": 120.0
            },
            {
                "start_time": 23.8477273,
                "end_time": 24.6659091,
                "pitch": 61,
                "velocity": 80,
                "duration": 0.8181818,
                "tempo": 120.0
            },
            {
                "start_time": 24.7,
                "end_time": 25.0136364,
                "pitch": 60,
                "velocity": 80,
                "duration": 0.3136364,
                "tempo": 120.0
            },
            {
                "start_time": 25.0477273,
                "end_time": 25.1840909,
                "pitch": 67,
                "velocity": 80,
                "duration": 0.1363636,
                "tempo": 120.0
            },
            {
                "start_time": 25.2181818,
                "end_time": 25.7181818,
                "pitch": 65,
                "velocity": 80,
                "duration": 0.5,
                "tempo": 120.0
            },
            {
                "start_time": 25.7545455,
                "end_time": 25.9022727,
                "pitch": 64,
                "velocity": 80,
                "duration": 0.1477273,
                "tempo": 120.0
            },
            {
                "start_time": 25.9204545,
                "end_time": 26.5795455,
                "pitch": 68,
                "velocity": 80,
                "duration": 0.6590909,
                "tempo": 120.0
            },
            {
                "start_time": 26.5954545,
                "end_time": 27.0886364,
                "pitch": 67,
                "velocity": 80,
                "duration": 0.4931818,
                "tempo": 120.0
            },
            {
                "start_time": 27.1068182,
                "end_time": 27.4272727,
                "pitch": 66,
                "velocity": 80,
                "duration": 0.3204545,
                "tempo": 120.0
            },
            {
                "start_time": 27.4613636,
                "end_time": 27.7818182,
                "pitch": 61,
                "velocity": 80,
                "duration": 0.3204545,
                "tempo": 120.0
            },
            {
                "start_time": 27.8159091,
                "end_time": 27.9522727,
                "pitch": 63,
                "velocity": 80,
                "duration": 0.1363636,
                "tempo": 120.0
            },
            {
                "start_time": 27.9863636,
                "end_time": 30.1863636,
                "pitch": 65,
                "velocity": 80,
                "duration": 2.2,
                "tempo": 120.0
            },
            {
                "start_time": 30.2204545,
                "end_time": 30.3727273,
                "pitch": 62,
                "velocity": 80,
                "duration": 0.1522727,
                "tempo": 120.0
            },
            {
                "start_time": 30.3909091,
                "end_time": 30.5409091,
                "pitch": 63,
                "velocity": 80,
                "duration": 0.15,
                "tempo": 120.0
            },
            {
                "start_time": 30.575,
                "end_time": 30.7113636,
                "pitch": 65,
                "velocity": 80,
                "duration": 0.1363636,
                "tempo": 120.0
            },
            {
                "start_time": 30.7454545,
                "end_time": 31.0704545,
                "pitch": 67,
                "velocity": 80,
                "duration": 0.325,
                "tempo": 120.0
            },
            {
                "start_time": 31.1045455,
                "end_time": 31.2409091,
                "pitch": 65,
                "velocity": 80,
                "duration": 0.1363636,
                "tempo": 120.0
            },
            {
                "start_time": 31.275,
                "end_time": 31.4113636,
                "pitch": 63,
                "velocity": 80,
                "duration": 0.1363636,
                "tempo": 120.0
            },
            {
                "start_time": 31.4454545,
                "end_time": 31.7659091,
                "pitch": 65,
                "velocity": 80,
                "duration": 0.3204545,
                "tempo": 120.0
            },
            {
                "start_time": 31.8,
                "end_time": 31.9340909,
                "pitch": 67,
                "velocity": 80,
                "duration": 0.1340909,
                "tempo": 120.0
            },
            {
                "start_time": 31.9681818,
                "end_time": 32.1159091,
                "pitch": 68,
                "velocity": 80,
                "duration": 0.1477273,
                "tempo": 120.0
            },
            {
                "start_time": 32.1318182,
                "end_time": 32.4454545,
                "pitch": 70,
                "velocity": 80,
                "duration": 0.3136364,
                "tempo": 120.0
            },
            {
                "start_time": 32.4795455,
                "end_time": 32.6272727,
                "pitch": 72,
                "velocity": 80,
                "duration": 0.1477273,
                "tempo": 120.0
            },
            {
                "start_time": 32.6431818,
                "end_time": 32.9568182,
                "pitch": 73,
                "velocity": 80,
                "duration": 0.3136364,
                "tempo": 120.0
            },
            {
                "start_time": 32.9909091,
                "end_time": 34.35,
                "pitch": 72,
                "velocity": 80,
                "duration": 1.3590909,
                "tempo": 120.0
            },
            {
                "start_time": 34.3659091,
                "end_time": 35.725,
                "pitch": 72,
                "velocity": 80,
                "duration": 1.3590909,
                "tempo": 120.0
            },
            {
                "start_time": 35.7590909,
                "end_time": 35.8931818,
                "pitch": 72,
                "velocity": 80,
                "duration": 0.1340909,
                "tempo": 120.0
            },
            {
                "start_time": 35.9272727,
                "end_time": 36.0795455,
                "pitch": 68,
                "velocity": 80,
                "duration": 0.1522727,
                "tempo": 120.0
            },
            {
                "start_time": 36.0954545,
                "end_time": 36.2431818,
                "pitch": 65,
                "velocity": 80,
                "duration": 0.1477273,
                "tempo": 120.0
            },
            {
                "start_time": 36.2772727,
                "end_time": 36.5909091,
                "pitch": 72,
                "velocity": 80,
                "duration": 0.3136364,
                "tempo": 120.0
            },
            {
                "start_time": 36.6068182,
                "end_time": 36.7545455,
                "pitch": 68,
                "velocity": 80,
                "duration": 0.1477273,
                "tempo": 120.0
            },
            {
                "start_time": 36.7886364,
                "end_time": 36.925,
                "pitch": 65,
                "velocity": 80,
                "duration": 0.1363636,
                "tempo": 120.0
            },
            {
                "start_time": 36.9590909,
                "end_time": 37.1113636,
                "pitch": 68,
                "velocity": 80,
                "duration": 0.1522727,
                "tempo": 120.0
            },
            {
                "start_time": 37.1295455,
                "end_time": 37.2840909,
                "pitch": 74,
                "velocity": 80,
                "duration": 0.1545455,
                "tempo": 120.0
            },
            {
                "start_time": 37.3181818,
                "end_time": 37.4545455,
                "pitch": 70,
                "velocity": 80,
                "duration": 0.1363636,
                "tempo": 120.0
            },
            {
                "start_time": 37.4886364,
                "end_time": 37.6409091,
                "pitch": 65,
                "velocity": 80,
                "duration": 0.1522727,
                "tempo": 120.0
            },
            {
                "start_time": 37.6568182,
                "end_time": 37.9772727,
                "pitch": 74,
                "velocity": 80,
                "duration": 0.3204545,
                "tempo": 120.0
            },
            {
                "start_time": 38.0113636,
                "end_time": 38.1454545,
                "pitch": 74,
                "velocity": 80,
                "duration": 0.1340909,
                "tempo": 120.0
            },
            {
                "start_time": 38.1795455,
                "end_time": 38.3272727,
                "pitch": 70,
                "velocity": 80,
                "duration": 0.1477273,
                "tempo": 120.0
            },
            {
                "start_time": 38.3454545,
                "end_time": 38.4931818,
                "pitch": 74,
                "velocity": 80,
                "duration": 0.1477273,
                "tempo": 120.0
            },
            {
                "start_time": 38.5272727,
                "end_time": 38.6590909,
                "pitch": 72,
                "velocity": 80,
                "duration": 0.1318182,
                "tempo": 120.0
            },
            {
                "start_time": 38.6909091,
                "end_time": 38.8386364,
                "pitch": 68,
                "velocity": 80,
                "duration": 0.1477273,
                "tempo": 120.0
            },
            {
                "start_time": 38.8568182,
                "end_time": 39.0068182,
                "pitch": 65,
                "velocity": 80,
                "duration": 0.15,
                "tempo": 120.0
            },
            {
                "start_time": 39.0409091,
                "end_time": 39.3613636,
                "pitch": 72,
                "velocity": 80,
                "duration": 0.3204545,
                "tempo": 120.0
            },
            {
                "start_time": 39.3795455,
                "end_time": 39.5318182,
                "pitch": 68,
                "velocity": 80,
                "duration": 0.1522727,
                "tempo": 120.0
            },
            {
                "start_time": 39.5659091,
                "end_time": 39.7,
                "pitch": 65,
                "velocity": 80,
                "duration": 0.1340909,
                "tempo": 120.0
            },
            {
                "start_time": 39.7363636,
                "end_time": 39.8886364,
                "pitch": 68,
                "velocity": 80,
                "duration": 0.1522727,
                "tempo": 120.0
            },
            {
                "start_time": 39.9068182,
                "end_time": 40.0590909,
                "pitch": 74,
                "velocity": 80,
                "duration": 0.1522727,
                "tempo": 120.0
            },
            {
                "start_time": 40.0931818,
                "end_time": 40.2295455,
                "pitch": 70,
                "velocity": 80,
                "duration": 0.1363636,
                "tempo": 120.0
            },
            {
                "start_time": 40.2659091,
                "end_time": 40.3954545,
                "pitch": 65,
                "velocity": 80,
                "duration": 0.1295455,
                "tempo": 120.0
            },
            {
                "start_time": 40.4295455,
                "end_time": 40.7431818,
                "pitch": 77,
                "velocity": 80,
                "duration": 0.3136364,
                "tempo": 120.0
            },
            {
                "start_time": 40.7772727,
                "end_time": 40.9068182,
                "pitch": 75,
                "velocity": 80,
                "duration": 0.1295455,
                "tempo": 120.0
            },
            {
                "start_time": 40.9409091,
                "end_time": 41.2613636,
                "pitch": 74,
                "velocity": 80,
                "duration": 0.3204545,
                "tempo": 120.0
            },
            {
                "start_time": 41.2954545,
                "end_time": 41.4295455,
                "pitch": 72,
                "velocity": 80,
                "duration": 0.1340909,
                "tempo": 120.0
            },
            {
                "start_time": 41.4636364,
                "end_time": 41.6159091,
                "pitch": 68,
                "velocity": 80,
                "duration": 0.1522727,
                "tempo": 120.0
            },
            {
                "start_time": 41.6318182,
                "end_time": 41.7818182,
                "pitch": 65,
                "velocity": 80,
                "duration": 0.15,
                "tempo": 120.0
            },
            {
                "start_time": 41.8136364,
                "end_time": 42.1272727,
                "pitch": 72,
                "velocity": 80,
                "duration": 0.3136364,
                "tempo": 120.0
            },
            {
                "start_time": 42.1431818,
                "end_time": 42.2909091,
                "pitch": 68,
                "velocity": 80,
                "duration": 0.1477273,
                "tempo": 120.0
            },
            {
                "start_time": 42.325,
                "end_time": 42.4613636,
                "pitch": 65,
                "velocity": 80,
                "duration": 0.1363636,
                "tempo": 120.0
            },
            {
                "start_time": 42.4954545,
                "end_time": 42.6318182,
                "pitch": 68,
                "velocity": 80,
                "duration": 0.1363636,
                "tempo": 120.0
            },
            {
                "start_time": 42.6659091,
                "end_time": 42.8204545,
                "pitch": 74,
                "velocity": 80,
                "duration": 0.1545455,
                "tempo": 120.0
            },
            {
                "start_time": 42.8545455,
                "end_time": 42.9909091,
                "pitch": 70,
                "velocity": 80,
                "duration": 0.1363636,
                "tempo": 120.0
            },
            {
                "start_time": 43.025,
                "end_time": 43.1568182,
                "pitch": 65,
                "velocity": 80,
                "duration": 0.1318182,
                "tempo": 120.0
            },
            {
                "start_time": 43.1909091,
                "end_time": 43.5022727,
                "pitch": 74,
                "velocity": 80,
                "duration": 0.3113636,
                "tempo": 120.0
            },
            {
                "start_time": 43.5363636,
                "end_time": 43.6681818,
                "pitch": 74,
                "velocity": 80,
                "duration": 0.1318182,
                "tempo": 120.0
            },
            {
                "start_time": 43.7022727,
                "end_time": 43.8522727,
                "pitch": 70,
                "velocity": 80,
                "duration": 0.15,
                "tempo": 120.0
            },
            {
                "start_time": 43.8704545,
                "end_time": 44.0204545,
                "pitch": 74,
                "velocity": 80,
                "duration": 0.15,
                "tempo": 120.0
            },
            {
                "start_time": 44.0545455,
                "end_time": 44.1909091,
                "pitch": 74,
                "velocity": 80,
                "duration": 0.1363636,
                "tempo": 120.0
            },
            {
                "start_time": 44.225,
                "end_time": 44.375,
                "pitch": 70,
                "velocity": 80,
                "duration": 0.15,
                "tempo": 120.0
            },
            {
                "start_time": 44.3931818,
                "end_time": 44.5409091,
                "pitch": 74,
                "velocity": 80,
                "duration": 0.1477273,
                "tempo": 120.0
            },
            {
                "start_time": 44.575,
                "end_time": 44.8704545,
                "pitch": 79,
                "velocity": 80,
                "duration": 0.2954545,
                "tempo": 120.0
            },
            {
                "start_time": 44.9045455,
                "end_time": 45.0522727,
                "pitch": 74,
                "velocity": 80,
                "duration": 0.1477273,
                "tempo": 120.0
            },
            {
                "start_time": 45.0863636,
                "end_time": 45.2204545,
                "pitch": 79,
                "velocity": 80,
                "duration": 0.1340909,
                "tempo": 120.0
            },
            {
                "start_time": 45.2568182,
                "end_time": 45.5795455,
                "pitch": 84,
                "velocity": 80,
                "duration": 0.3227273,
                "tempo": 120.0
            },
            {
                "start_time": 45.5977273,
                "end_time": 45.75,
                "pitch": 76,
                "velocity": 80,
                "duration": 0.1522727,
                "tempo": 120.0
            },
            {
                "start_time": 45.7863636,
                "end_time": 45.9204545,
                "pitch": 79,
                "velocity": 80,
                "duration": 0.1340909,
                "tempo": 120.0
            },
            {
                "start_time": 45.9545455,
                "end_time": 46.6409091,
                "pitch": 84,
                "velocity": 80,
                "duration": 0.6863636,
                "tempo": 120.0
            },
            {
                "start_time": 46.6409091,
                "end_time": 46.7909091,
                "pitch": 82,
                "velocity": 80,
                "duration": 0.15,
                "tempo": 120.0
            }
        ],
        "Acoustic Bass": [
            {
                "start_time": 0.0045455,
                "end_time": 0.0795455,
                "pitch": 29,
                "velocity": 101,
                "duration": 0.075,
                "tempo": 120.0
            },
            {
                "start_time": 0.1,
                "end_time": 0.1863636,
                "pitch": 29,
                "velocity": 101,
                "duration": 0.0863636,
                "tempo": 120.0
            },
            {
                "start_time": 0.1954545,
                "end_time": 0.3431818,
                "pitch": 29,
                "velocity": 101,
                "duration": 0.1477273,
                "tempo": 120.0
            },
            {
                "start_time": 0.3772727,
                "end_time": 0.5068182,
                "pitch": 29,
                "velocity": 101,
                "duration": 0.1295455,
                "tempo": 120.0
            },
            {
                "start_time": 0.5409091,
                "end_time": 0.5909091,
                "pitch": 29,
                "velocity": 101,
                "duration": 0.05,
                "tempo": 120.0
            },
            {
                "start_time": 0.6227273,
                "end_time": 0.6727273,
                "pitch": 41,
                "velocity": 101,
                "duration": 0.05,
                "tempo": 120.0
            },
            {
                "start_time": 0.7068182,
                "end_time": 0.8545455,
                "pitch": 29,
                "velocity": 101,
                "duration": 0.1477273,
                "tempo": 120.0
            },
            {
                "start_time": 0.8704545,
                "end_time": 1.0227273,
                "pitch": 29,
                "velocity": 101,
                "duration": 0.1522727,
                "tempo": 120.0
            },
            {
                "start_time": 1.0568182,
                "end_time": 1.1909091,
                "pitch": 29,
                "velocity": 101,
                "duration": 0.1340909,
                "tempo": 120.0
            },
            {
                "start_time": 1.225,
                "end_time": 1.3772727,
                "pitch": 27,
                "velocity": 101,
                "duration": 0.1522727,
                "tempo": 120.0
            },
            {
                "start_time": 1.3931818,
                "end_time": 1.5454545,
                "pitch": 27,
                "velocity": 101,
                "duration": 0.1522727,
                "tempo": 120.0
            },
            {
                "start_time": 1.5795455,
                "end_time": 1.7159091,
                "pitch": 27,
                "velocity": 101,
                "duration": 0.1363636,
                "tempo": 120.0
            },
            {
                "start_time": 1.75,
                "end_time": 1.9022727,
                "pitch": 27,
                "velocity": 101,
                "duration": 0.1522727,
                "tempo": 120.0
            },
            {
                "start_time": 1.9204545,
                "end_time": 2.075,
                "pitch": 27,
                "velocity": 101,
                "duration": 0.1545455,
                "tempo": 120.0
            },
            {
                "start_time": 2.1090909,
                "end_time": 2.2454545,
                "pitch": 27,
                "velocity": 101,
                "duration": 0.1363636,
                "tempo": 120.0
            },
            {
                "start_time": 2.2795455,
                "end_time": 2.3272727,
                "pitch": 27,
                "velocity": 101,
                "duration": 0.0477273,
                "tempo": 120.0
            },
            {
                "start_time": 2.3613636,
                "end_time": 2.4272727,
                "pitch": 39,
                "velocity": 101,
                "duration": 0.0659091,
                "tempo": 120.0
            },
            {
                "start_time": 2.4454545,
                "end_time": 2.5909091,
                "pitch": 27,
                "velocity": 101,
                "duration": 0.1454545,
                "tempo": 120.0
            },
            {
                "start_time": 2.625,
                "end_time": 2.7568182,
                "pitch": 37,
                "velocity": 101,
                "duration": 0.1318182,
                "tempo": 120.0
            },
            {
                "start_time": 2.7909091,
                "end_time": 2.9227273,
                "pitch": 37,
                "velocity": 101,
                "duration": 0.1318182,
                "tempo": 120.0
            },
            {
                "start_time": 2.9568182,
                "end_time": 3.1068182,
                "pitch": 37,
                "velocity": 101,
                "duration": 0.15,
                "tempo": 120.0
            },
            {
                "start_time": 3.1409091,
                "end_time": 3.275,
                "pitch": 37,
                "velocity": 101,
                "duration": 0.1340909,
                "tempo": 120.0
            },
            {
                "start_time": 3.3090909,
                "end_time": 3.3590909,
                "pitch": 37,
                "velocity": 101,
                "duration": 0.05,
                "tempo": 120.0
            },
            {
                "start_time": 3.3931818,
                "end_time": 3.4431818,
                "pitch": 37,
                "velocity": 101,
                "duration": 0.05,
                "tempo": 120.0
            },
            {
                "start_time": 3.4795455,
                "end_time": 3.6295455,
                "pitch": 37,
                "velocity": 101,
                "duration": 0.15,
                "tempo": 120.0
            },
            {
                "start_time": 3.6477273,
                "end_time": 3.7954545,
                "pitch": 37,
                "velocity": 101,
                "duration": 0.1477273,
                "tempo": 120.0
            },
            {
                "start_time": 3.8295455,
                "end_time": 3.9590909,
                "pitch": 37,
                "velocity": 101,
                "duration": 0.1295455,
                "tempo": 120.0
            },
            {
                "start_time": 3.9931818,
                "end_time": 4.1409091,
                "pitch": 32,
                "velocity": 101,
                "duration": 0.1477273,
                "tempo": 120.0
            },
            {
                "start_time": 4.1568182,
                "end_time": 4.3068182,
                "pitch": 32,
                "velocity": 101,
                "duration": 0.15,
                "tempo": 120.0
            },
            {
                "start_time": 4.3386364,
                "end_time": 4.475,
                "pitch": 32,
                "velocity": 101,
                "duration": 0.1363636,
                "tempo": 120.0
            },
            {
                "start_time": 4.5090909,
                "end_time": 4.6636364,
                "pitch": 32,
                "velocity": 101,
                "duration": 0.1545455,
                "tempo": 120.0
            },
            {
                "start_time": 4.6795455,
                "end_time": 4.8340909,
                "pitch": 32,
                "velocity": 101,
                "duration": 0.1545455,
                "tempo": 120.0
            },
            {
                "start_time": 4.8681818,
                "end_time": 5.0045455,
                "pitch": 32,
                "velocity": 101,
                "duration": 0.1363636,
                "tempo": 120.0
            },
            {
                "start_time": 5.0409091,
                "end_time": 5.0886364,
                "pitch": 32,
                "velocity": 101,
                "duration": 0.0477273,
                "tempo": 120.0
            },
            {
                "start_time": 5.1227273,
                "end_time": 5.175,
                "pitch": 32,
                "velocity": 101,
                "duration": 0.0522727,
                "tempo": 120.0
            },
            {
                "start_time": 5.2090909,
                "end_time": 5.3590909,
                "pitch": 32,
                "velocity": 101,
                "duration": 0.15,
                "tempo": 120.0
            },
            {
                "start_time": 5.3954545,
                "end_time": 5.5295455,
                "pitch": 31,
                "velocity": 101,
                "duration": 0.1340909,
                "tempo": 120.0
            },
            {
                "start_time": 5.5636364,
                "end_time": 5.6977273,
                "pitch": 31,
                "velocity": 101,
                "duration": 0.1340909,
                "tempo": 120.0
            },
            {
                "start_time": 5.7318182,
                "end_time": 5.8795455,
                "pitch": 31,
                "velocity": 101,
                "duration": 0.1477273,
                "tempo": 120.0
            },
            {
                "start_time": 5.8977273,
                "end_time": 6.2090909,
                "pitch": 36,
                "velocity": 101,
                "duration": 0.3113636,
                "tempo": 120.0
            },
            {
                "start_time": 6.2431818,
                "end_time": 6.3909091,
                "pitch": 36,
                "velocity": 101,
                "duration": 0.1477273,
                "tempo": 120.0
            },
            {
                "start_time": 6.4090909,
                "end_time": 6.4727273,
                "pitch": 36,
                "velocity": 101,
                "duration": 0.0636364,
                "tempo": 120.0
            },
            {
                "start_time": 6.5068182,
                "end_time": 6.5568182,
                "pitch": 31,
                "velocity": 101,
                "duration": 0.05,
                "tempo": 120.0
            },
            {
                "start_time": 6.5886364,
                "end_time": 6.6386364,
                "pitch": 34,
                "velocity": 101,
                "duration": 0.05,
                "tempo": 120.0
            },
            {
                "start_time": 6.6704545,
                "end_time": 6.7204545,
                "pitch": 36,
                "velocity": 101,
                "duration": 0.05,
                "tempo": 120.0
            },
            {
                "start_time": 6.7545455,
                "end_time": 6.9022727,
                "pitch": 29,
                "velocity": 101,
                "duration": 0.1477273,
                "tempo": 120.0
            },
            {
                "start_time": 6.9181818,
                "end_time": 7.0659091,
                "pitch": 29,
                "velocity": 101,
                "duration": 0.1477273,
                "tempo": 120.0
            },
            {
                "start_time": 7.1,
                "end_time": 7.2363636,
                "pitch": 29,
                "velocity": 101,
                "duration": 0.1363636,
                "tempo": 120.0
            },
            {
                "start_time": 7.2704545,
                "end_time": 7.5954545,
                "pitch": 27,
                "velocity": 101,
                "duration": 0.325,
                "tempo": 120.0
            },
            {
                "start_time": 7.6295455,
                "end_time": 7.6795455,
                "pitch": 32,
                "velocity": 101,
                "duration": 0.05,
                "tempo": 120.0
            },
            {
                "start_time": 7.7136364,
                "end_time": 7.7659091,
                "pitch": 34,
                "velocity": 101,
                "duration": 0.0522727,
                "tempo": 120.0
            },
            {
                "start_time": 7.8,
                "end_time": 7.85,
                "pitch": 39,
                "velocity": 101,
                "duration": 0.05,
                "tempo": 120.0
            },
            {
                "start_time": 7.8840909,
                "end_time": 7.9340909,
                "pitch": 34,
                "velocity": 101,
                "duration": 0.05,
                "tempo": 120.0
            },
            {
                "start_time": 7.9704545,
                "end_time": 8.0363636,
                "pitch": 37,
                "velocity": 101,
                "duration": 0.0659091,
                "tempo": 120.0
            },
            {
                "start_time": 8.0522727,
                "end_time": 8.1204545,
                "pitch": 39,
                "velocity": 101,
                "duration": 0.0681818,
                "tempo": 120.0
            },
            {
                "start_time": 8.1386364,
                "end_time": 8.2886364,
                "pitch": 38,
                "velocity": 101,
                "duration": 0.15,
                "tempo": 120.0
            },
            {
                "start_time": 8.3227273,
                "end_time": 8.4590909,
                "pitch": 38,
                "velocity": 101,
                "duration": 0.1363636,
                "tempo": 120.0
            },
            {
                "start_time": 8.4931818,
                "end_time": 8.6409091,
                "pitch": 38,
                "velocity": 101,
                "duration": 0.1477273,
                "tempo": 120.0
            },
            {
                "start_time": 8.6568182,
                "end_time": 8.8045455,
                "pitch": 38,
                "velocity": 101,
                "duration": 0.1477273,
                "tempo": 120.0
            },
            {
                "start_time": 8.8386364,
                "end_time": 8.9704545,
                "pitch": 37,
                "velocity": 101,
                "duration": 0.1318182,
                "tempo": 120.0
            },
            {
                "start_time": 9.0022727,
                "end_time": 9.1522727,
                "pitch": 37,
                "velocity": 101,
                "duration": 0.15,
                "tempo": 120.0
            },
            {
                "start_time": 9.1681818,
                "end_time": 9.3204545,
                "pitch": 37,
                "velocity": 101,
                "duration": 0.1522727,
                "tempo": 120.0
            },
            {
                "start_time": 9.3545455,
                "end_time": 9.4886364,
                "pitch": 37,
                "velocity": 101,
                "duration": 0.1340909,
                "tempo": 120.0
            },
            {
                "start_time": 9.5227273,
                "end_time": 9.6727273,
                "pitch": 36,
                "velocity": 101,
                "duration": 0.15,
                "tempo": 120.0
            },
            {
                "start_time": 9.6909091,
                "end_time": 9.8431818,
                "pitch": 36,
                "velocity": 101,
                "duration": 0.1522727,
                "tempo": 120.0
            },
            {
                "start_time": 9.8772727,
                "end_time": 10.0136364,
                "pitch": 36,
                "velocity": 101,
                "duration": 0.1363636,
                "tempo": 120.0
            },
            {
                "start_time": 10.0477273,
                "end_time": 10.1840909,
                "pitch": 24,
                "velocity": 101,
                "duration": 0.1363636,
                "tempo": 120.0
            },
            {
                "start_time": 10.2181818,
                "end_time": 10.3704545,
                "pitch": 24,
                "velocity": 101,
                "duration": 0.1522727,
                "tempo": 120.0
            },
            {
                "start_time": 10.3886364,
                "end_time": 10.4568182,
                "pitch": 26,
                "velocity": 101,
                "duration": 0.0681818,
                "tempo": 120.0
            },
            {
                "start_time": 10.4909091,
                "end_time": 10.5431818,
                "pitch": 24,
                "velocity": 101,
                "duration": 0.0522727,
                "tempo": 120.0
            },
            {
                "start_time": 10.5772727,
                "end_time": 10.625,
                "pitch": 27,
                "velocity": 101,
                "duration": 0.0477273,
                "tempo": 120.0
            },
            {
                "start_time": 10.6590909,
                "end_time": 10.7068182,
                "pitch": 24,
                "velocity": 101,
                "duration": 0.0477273,
                "tempo": 120.0
            },
            {
                "start_time": 10.7409091,
                "end_time": 10.8068182,
                "pitch": 28,
                "velocity": 101,
                "duration": 0.0659091,
                "tempo": 120.0
            },
            {
                "start_time": 10.8227273,
                "end_time": 10.8886364,
                "pitch": 24,
                "velocity": 101,
                "duration": 0.0659091,
                "tempo": 120.0
            },
            {
                "start_time": 10.9068182,
                "end_time": 11.0545455,
                "pitch": 29,
                "velocity": 101,
                "duration": 0.1477273,
                "tempo": 120.0
            },
            {
                "start_time": 11.0886364,
                "end_time": 11.2204545,
                "pitch": 29,
                "velocity": 101,
                "duration": 0.1318182,
                "tempo": 120.0
            },
            {
                "start_time": 11.2522727,
                "end_time": 11.4045455,
                "pitch": 29,
                "velocity": 101,
                "duration": 0.1522727,
                "tempo": 120.0
            },
            {
                "start_time": 11.4227273,
                "end_time": 11.5727273,
                "pitch": 29,
                "velocity": 101,
                "duration": 0.15,
                "tempo": 120.0
            },
            {
                "start_time": 11.6068182,
                "end_time": 11.6568182,
                "pitch": 29,
                "velocity": 101,
                "duration": 0.05,
                "tempo": 120.0
            },
            {
                "start_time": 11.6909091,
                "end_time": 11.7409091,
                "pitch": 41,
                "velocity": 101,
                "duration": 0.05,
                "tempo": 120.0
            },
            {
                "start_time": 11.775,
                "end_time": 11.9272727,
                "pitch": 29,
                "velocity": 101,
                "duration": 0.1522727,
                "tempo": 120.0
            },
            {
                "start_time": 11.9454545,
                "end_time": 12.0931818,
                "pitch": 29,
                "velocity": 101,
                "duration": 0.1477273,
                "tempo": 120.0
            },
            {
                "start_time": 12.125,
                "end_time": 12.2568182,
                "pitch": 29,
                "velocity": 101,
                "duration": 0.1318182,
                "tempo": 120.0
            },
            {
                "start_time": 12.2909091,
                "end_time": 12.4227273,
                "pitch": 27,
                "velocity": 101,
                "duration": 0.1318182,
                "tempo": 120.0
            },
            {
                "start_time": 12.4545455,
                "end_time": 12.6022727,
                "pitch": 27,
                "velocity": 101,
                "duration": 0.1477273,
                "tempo": 120.0
            },
            {
                "start_time": 12.6204545,
                "end_time": 12.7681818,
                "pitch": 27,
                "velocity": 101,
                "duration": 0.1477273,
                "tempo": 120.0
            },
            {
                "start_time": 12.8022727,
                "end_time": 12.9340909,
                "pitch": 27,
                "velocity": 101,
                "duration": 0.1318182,
                "tempo": 120.0
            },
            {
                "start_time": 12.9659091,
                "end_time": 13.1159091,
                "pitch": 27,
                "velocity": 101,
                "duration": 0.15,
                "tempo": 120.0
            },
            {
                "start_time": 13.1318182,
                "end_time": 13.2795455,
                "pitch": 27,
                "velocity": 101,
                "duration": 0.1477273,
                "tempo": 120.0
            },
            {
                "start_time": 13.3136364,
                "end_time": 13.3636364,
                "pitch": 27,
                "velocity": 101,
                "duration": 0.05,
                "tempo": 120.0
            },
            {
                "start_time": 13.3977273,
                "end_time": 13.45,
                "pitch": 39,
                "velocity": 101,
                "duration": 0.0522727,
                "tempo": 120.0
            },
            {
                "start_time": 13.4863636,
                "end_time": 13.6409091,
                "pitch": 27,
                "velocity": 101,
                "duration": 0.1545455,
                "tempo": 120.0
            },
            {
                "start_time": 13.6568182,
                "end_time": 13.8136364,
                "pitch": 37,
                "velocity": 101,
                "duration": 0.1568182,
                "tempo": 120.0
            },
            {
                "start_time": 13.8477273,
                "end_time": 13.9863636,
                "pitch": 37,
                "velocity": 101,
                "duration": 0.1386364,
                "tempo": 120.0
            },
            {
                "start_time": 14.0204545,
                "end_time": 14.1681818,
                "pitch": 37,
                "velocity": 101,
                "duration": 0.1477273,
                "tempo": 120.0
            },
            {
                "start_time": 14.1863636,
                "end_time": 14.3340909,
                "pitch": 37,
                "velocity": 101,
                "duration": 0.1477273,
                "tempo": 120.0
            },
            {
                "start_time": 14.3681818,
                "end_time": 14.4159091,
                "pitch": 37,
                "velocity": 101,
                "duration": 0.0477273,
                "tempo": 120.0
            },
            {
                "start_time": 14.45,
                "end_time": 14.5,
                "pitch": 37,
                "velocity": 101,
                "duration": 0.05,
                "tempo": 120.0
            },
            {
                "start_time": 14.5318182,
                "end_time": 14.6636364,
                "pitch": 37,
                "velocity": 101,
                "duration": 0.1318182,
                "tempo": 120.0
            },
            {
                "start_time": 14.6977273,
                "end_time": 14.8477273,
                "pitch": 37,
                "velocity": 101,
                "duration": 0.15,
                "tempo": 120.0
            },
            {
                "start_time": 14.8659091,
                "end_time": 15.0159091,
                "pitch": 37,
                "velocity": 101,
                "duration": 0.15,
                "tempo": 120.0
            },
            {
                "start_time": 15.05,
                "end_time": 15.1863636,
                "pitch": 32,
                "velocity": 101,
                "duration": 0.1363636,
                "tempo": 120.0
            },
            {
                "start_time": 15.2204545,
                "end_time": 15.3704545,
                "pitch": 32,
                "velocity": 101,
                "duration": 0.15,
                "tempo": 120.0
            },
            {
                "start_time": 15.3886364,
                "end_time": 15.5363636,
                "pitch": 32,
                "velocity": 101,
                "duration": 0.1477273,
                "tempo": 120.0
            },
            {
                "start_time": 15.5704545,
                "end_time": 15.7022727,
                "pitch": 32,
                "velocity": 101,
                "duration": 0.1318182,
                "tempo": 120.0
            },
            {
                "start_time": 15.7340909,
                "end_time": 15.8840909,
                "pitch": 32,
                "velocity": 101,
                "duration": 0.15,
                "tempo": 120.0
            },
            {
                "start_time": 15.9,
                "end_time": 16.0477273,
                "pitch": 32,
                "velocity": 101,
                "duration": 0.1477273,
                "tempo": 120.0
            },
            {
                "start_time": 16.0818182,
                "end_time": 16.1318182,
                "pitch": 32,
                "velocity": 101,
                "duration": 0.05,
                "tempo": 120.0
            },
            {
                "start_time": 16.1659091,
                "end_time": 16.2181818,
                "pitch": 32,
                "velocity": 101,
                "duration": 0.0522727,
                "tempo": 120.0
            },
            {
                "start_time": 16.2522727,
                "end_time": 16.4045455,
                "pitch": 32,
                "velocity": 101,
                "duration": 0.1522727,
                "tempo": 120.0
            },
            {
                "start_time": 16.4227273,
                "end_time": 16.575,
                "pitch": 31,
                "velocity": 101,
                "duration": 0.1522727,
                "tempo": 120.0
            },
            {
                "start_time": 16.6113636,
                "end_time": 16.7477273,
                "pitch": 31,
                "velocity": 101,
                "duration": 0.1363636,
                "tempo": 120.0
            },
            {
                "start_time": 16.7818182,
                "end_time": 16.9136364,
                "pitch": 31,
                "velocity": 101,
                "duration": 0.1318182,
                "tempo": 120.0
            },
            {
                "start_time": 16.9477273,
                "end_time": 17.2590909,
                "pitch": 36,
                "velocity": 101,
                "duration": 0.3113636,
                "tempo": 120.0
            },
            {
                "start_time": 17.2931818,
                "end_time": 17.425,
                "pitch": 36,
                "velocity": 101,
                "duration": 0.1318182,
                "tempo": 120.0
            },
            {
                "start_time": 17.4568182,
                "end_time": 17.525,
                "pitch": 36,
                "velocity": 101,
                "duration": 0.0681818,
                "tempo": 120.0
            },
            {
                "start_time": 17.5409091,
                "end_time": 17.6090909,
                "pitch": 31,
                "velocity": 101,
                "duration": 0.0681818,
                "tempo": 120.0
            },
            {
                "start_time": 17.6272727,
                "end_time": 17.6931818,
                "pitch": 34,
                "velocity": 101,
                "duration": 0.0659091,
                "tempo": 120.0
            },
            {
                "start_time": 17.7272727,
                "end_time": 17.7772727,
                "pitch": 36,
                "velocity": 101,
                "duration": 0.05,
                "tempo": 120.0
            },
            {
                "start_time": 17.8136364,
                "end_time": 17.9454545,
                "pitch": 29,
                "velocity": 101,
                "duration": 0.1318182,
                "tempo": 120.0
            },
            {
                "start_time": 17.9795455,
                "end_time": 18.1318182,
                "pitch": 29,
                "velocity": 101,
                "duration": 0.1522727,
                "tempo": 120.0
            },
            {
                "start_time": 18.15,
                "end_time": 18.2977273,
                "pitch": 29,
                "velocity": 101,
                "duration": 0.1477273,
                "tempo": 120.0
            },
            {
                "start_time": 18.3318182,
                "end_time": 18.6431818,
                "pitch": 27,
                "velocity": 101,
                "duration": 0.3113636,
                "tempo": 120.0
            },
            {
                "start_time": 18.6613636,
                "end_time": 18.725,
                "pitch": 32,
                "velocity": 101,
                "duration": 0.0636364,
                "tempo": 120.0
            },
            {
                "start_time": 18.7431818,
                "end_time": 18.8090909,
                "pitch": 34,
                "velocity": 101,
                "duration": 0.0659091,
                "tempo": 120.0
            },
            {
                "start_time": 18.8431818,
                "end_time": 18.8931818,
                "pitch": 39,
                "velocity": 101,
                "duration": 0.05,
                "tempo": 120.0
            },
            {
                "start_time": 18.9272727,
                "end_time": 18.9772727,
                "pitch": 34,
                "velocity": 101,
                "duration": 0.05,
                "tempo": 120.0
            },
            {
                "start_time": 19.0136364,
                "end_time": 19.0636364,
                "pitch": 37,
                "velocity": 101,
                "duration": 0.05,
                "tempo": 120.0
            },
            {
                "start_time": 19.0977273,
                "end_time": 19.1477273,
                "pitch": 39,
                "velocity": 101,
                "duration": 0.05,
                "tempo": 120.0
            },
            {
                "start_time": 19.1840909,
                "end_time": 19.3363636,
                "pitch": 37,
                "velocity": 101,
                "duration": 0.1522727,
                "tempo": 120.0
            },
            {
                "start_time": 19.3704545,
                "end_time": 19.5068182,
                "pitch": 37,
                "velocity": 101,
                "duration": 0.1363636,
                "tempo": 120.0
            },
            {
                "start_time": 19.5409091,
                "end_time": 19.6772727,
                "pitch": 37,
                "velocity": 101,
                "duration": 0.1363636,
                "tempo": 120.0
            },
            {
                "start_time": 19.7113636,
                "end_time": 20.0295455,
                "pitch": 36,
                "velocity": 101,
                "duration": 0.3181818,
                "tempo": 120.0
            },
            {
                "start_time": 20.0659091,
                "end_time": 20.2,
                "pitch": 24,
                "velocity": 101,
                "duration": 0.1340909,
                "tempo": 120.0
            },
            {
                "start_time": 20.2340909,
                "end_time": 20.3818182,
                "pitch": 24,
                "velocity": 101,
                "duration": 0.1477273,
                "tempo": 120.0
            },
            {
                "start_time": 20.3977273,
                "end_time": 20.5454545,
                "pitch": 24,
                "velocity": 101,
                "duration": 0.1477273,
                "tempo": 120.0
            },
            {
                "start_time": 20.5795455,
                "end_time": 20.7113636,
                "pitch": 29,
                "velocity": 101,
                "duration": 0.1318182,
                "tempo": 120.0
            },
            {
                "start_time": 20.7431818,
                "end_time": 20.8931818,
                "pitch": 29,
                "velocity": 101,
                "duration": 0.15,
                "tempo": 120.0
            },
            {
                "start_time": 20.9090909,
                "end_time": 21.0568182,
                "pitch": 29,
                "velocity": 101,
                "duration": 0.1477273,
                "tempo": 120.0
            },
            {
                "start_time": 21.0909091,
                "end_time": 21.2227273,
                "pitch": 29,
                "velocity": 101,
                "duration": 0.1318182,
                "tempo": 120.0
            },
            {
                "start_time": 21.2545455,
                "end_time": 21.3045455,
                "pitch": 29,
                "velocity": 101,
                "duration": 0.05,
                "tempo": 120.0
            },
            {
                "start_time": 21.3386364,
                "end_time": 21.4045455,
                "pitch": 29,
                "velocity": 101,
                "duration": 0.0659091,
                "tempo": 120.0
            },
            {
                "start_time": 21.4204545,
                "end_time": 21.5681818,
                "pitch": 29,
                "velocity": 101,
                "duration": 0.1477273,
                "tempo": 120.0
            },
            {
                "start_time": 21.6022727,
                "end_time": 21.7386364,
                "pitch": 29,
                "velocity": 101,
                "duration": 0.1363636,
                "tempo": 120.0
            },
            {
                "start_time": 21.775,
                "end_time": 21.9113636,
                "pitch": 29,
                "velocity": 101,
                "duration": 0.1363636,
                "tempo": 120.0
            },
            {
                "start_time": 21.9477273,
                "end_time": 22.275,
                "pitch": 25,
                "velocity": 101,
                "duration": 0.3272727,
                "tempo": 120.0
            },
            {
                "start_time": 22.475,
                "end_time": 23.3,
                "pitch": 25,
                "velocity": 101,
                "duration": 0.825,
                "tempo": 120.0
            },
            {
                "start_time": 23.3318182,
                "end_time": 23.6454545,
                "pitch": 25,
                "velocity": 101,
                "duration": 0.3136364,
                "tempo": 120.0
            },
            {
                "start_time": 23.8477273,
                "end_time": 24.6681818,
                "pitch": 25,
                "velocity": 101,
                "duration": 0.8204545,
                "tempo": 120.0
            },
            {
                "start_time": 24.7,
                "end_time": 25.0136364,
                "pitch": 24,
                "velocity": 101,
                "duration": 0.3136364,
                "tempo": 120.0
            },
            {
                "start_time": 25.2204545,
                "end_time": 26.0681818,
                "pitch": 24,
                "velocity": 101,
                "duration": 0.8477273,
                "tempo": 120.0
            },
            {
                "start_time": 26.1,
                "end_time": 26.5795455,
                "pitch": 29,
                "velocity": 101,
                "duration": 0.4795455,
                "tempo": 120.0
            },
            {
                "start_time": 26.5954545,
                "end_time": 27.0909091,
                "pitch": 27,
                "velocity": 101,
                "duration": 0.4954545,
                "tempo": 120.0
            },
            {
                "start_time": 27.1068182,
                "end_time": 27.4272727,
                "pitch": 26,
                "velocity": 101,
                "duration": 0.3204545,
                "tempo": 120.0
            },
            {
                "start_time": 27.4613636,
                "end_time": 27.6113636,
                "pitch": 25,
                "velocity": 101,
                "duration": 0.15,
                "tempo": 120.0
            },
            {
                "start_time": 27.6295455,
                "end_time": 27.7818182,
                "pitch": 25,
                "velocity": 101,
                "duration": 0.1522727,
                "tempo": 120.0
            },
            {
                "start_time": 27.8159091,
                "end_time": 27.9522727,
                "pitch": 25,
                "velocity": 101,
                "duration": 0.1363636,
                "tempo": 120.0
            },
            {
                "start_time": 27.9863636,
                "end_time": 28.1386364,
                "pitch": 25,
                "velocity": 101,
                "duration": 0.1522727,
                "tempo": 120.0
            },
            {
                "start_time": 28.1568182,
                "end_time": 28.3090909,
                "pitch": 25,
                "velocity": 101,
                "duration": 0.1522727,
                "tempo": 120.0
            },
            {
                "start_time": 28.3431818,
                "end_time": 28.4795455,
                "pitch": 25,
                "velocity": 101,
                "duration": 0.1363636,
                "tempo": 120.0
            },
            {
                "start_time": 28.5159091,
                "end_time": 28.6454545,
                "pitch": 25,
                "velocity": 101,
                "duration": 0.1295455,
                "tempo": 120.0
            },
            {
                "start_time": 28.6795455,
                "end_time": 28.8272727,
                "pitch": 25,
                "velocity": 101,
                "duration": 0.1477273,
                "tempo": 120.0
            },
            {
                "start_time": 28.8613636,
                "end_time": 28.9931818,
                "pitch": 25,
                "velocity": 101,
                "duration": 0.1318182,
                "tempo": 120.0
            },
            {
                "start_time": 29.025,
                "end_time": 29.1568182,
                "pitch": 25,
                "velocity": 101,
                "duration": 0.1318182,
                "tempo": 120.0
            },
            {
                "start_time": 29.1909091,
                "end_time": 29.3386364,
                "pitch": 25,
                "velocity": 101,
                "duration": 0.1477273,
                "tempo": 120.0
            },
            {
                "start_time": 29.3568182,
                "end_time": 29.5045455,
                "pitch": 25,
                "velocity": 101,
                "duration": 0.1477273,
                "tempo": 120.0
            },
            {
                "start_time": 29.5363636,
                "end_time": 29.6681818,
                "pitch": 25,
                "velocity": 101,
                "duration": 0.1318182,
                "tempo": 120.0
            },
            {
                "start_time": 29.7022727,
                "end_time": 30.0181818,
                "pitch": 27,
                "velocity": 101,
                "duration": 0.3159091,
                "tempo": 120.0
            },
            {
                "start_time": 30.0522727,
                "end_time": 30.1886364,
                "pitch": 27,
                "velocity": 101,
                "duration": 0.1363636,
                "tempo": 120.0
            },
            {
                "start_time": 30.2227273,
                "end_time": 30.3727273,
                "pitch": 26,
                "velocity": 101,
                "duration": 0.15,
                "tempo": 120.0
            },
            {
                "start_time": 30.3909091,
                "end_time": 30.5409091,
                "pitch": 26,
                "velocity": 101,
                "duration": 0.15,
                "tempo": 120.0
            },
            {
                "start_time": 30.5772727,
                "end_time": 30.7113636,
                "pitch": 26,
                "velocity": 101,
                "duration": 0.1340909,
                "tempo": 120.0
            },
            {
                "start_time": 30.7477273,
                "end_time": 30.8818182,
                "pitch": 26,
                "velocity": 101,
                "duration": 0.1340909,
                "tempo": 120.0
            },
            {
                "start_time": 30.9159091,
                "end_time": 31.0704545,
                "pitch": 26,
                "velocity": 101,
                "duration": 0.1545455,
                "tempo": 120.0
            },
            {
                "start_time": 31.1045455,
                "end_time": 31.2409091,
                "pitch": 26,
                "velocity": 101,
                "duration": 0.1363636,
                "tempo": 120.0
            },
            {
                "start_time": 31.2772727,
                "end_time": 31.4113636,
                "pitch": 26,
                "velocity": 101,
                "duration": 0.1340909,
                "tempo": 120.0
            },
            {
                "start_time": 31.4454545,
                "end_time": 31.5954545,
                "pitch": 26,
                "velocity": 101,
                "duration": 0.15,
                "tempo": 120.0
            },
            {
                "start_time": 31.6136364,
                "end_time": 31.7659091,
                "pitch": 25,
                "velocity": 101,
                "duration": 0.1522727,
                "tempo": 120.0
            },
            {
                "start_time": 31.8,
                "end_time": 31.9340909,
                "pitch": 25,
                "velocity": 101,
                "duration": 0.1340909,
                "tempo": 120.0
            },
            {
                "start_time": 31.9681818,
                "end_time": 32.1159091,
                "pitch": 25,
                "velocity": 101,
                "duration": 0.1477273,
                "tempo": 120.0
            },
            {
                "start_time": 32.1340909,
                "end_time": 32.2795455,
                "pitch": 25,
                "velocity": 101,
                "duration": 0.1454545,
                "tempo": 120.0
            },
            {
                "start_time": 32.3136364,
                "end_time": 32.4454545,
                "pitch": 25,
                "velocity": 101,
                "duration": 0.1318182,
                "tempo": 120.0
            },
            {
                "start_time": 32.4795455,
                "end_time": 32.6272727,
                "pitch": 25,
                "velocity": 101,
                "duration": 0.1477273,
                "tempo": 120.0
            },
            {
                "start_time": 32.6454545,
                "end_time": 32.7909091,
                "pitch": 25,
                "velocity": 101,
                "duration": 0.1454545,
                "tempo": 120.0
            },
            {
                "start_time": 32.825,
                "end_time": 32.9568182,
                "pitch": 25,
                "velocity": 101,
                "duration": 0.1318182,
                "tempo": 120.0
            },
            {
                "start_time": 33.3363636,
                "end_time": 34.0022727,
                "pitch": 24,
                "velocity": 101,
                "duration": 0.6659091,
                "tempo": 120.0
            },
            {
                "start_time": 34.0363636,
                "end_time": 34.1681818,
                "pitch": 24,
                "velocity": 101,
                "duration": 0.1318182,
                "tempo": 120.0
            },
            {
                "start_time": 34.2,
                "end_time": 34.2659091,
                "pitch": 29,
                "velocity": 101,
                "duration": 0.0659091,
                "tempo": 120.0
            },
            {
                "start_time": 34.2840909,
                "end_time": 34.35,
                "pitch": 31,
                "velocity": 101,
                "duration": 0.0659091,
                "tempo": 120.0
            },
            {
                "start_time": 34.3659091,
                "end_time": 34.5136364,
                "pitch": 36,
                "velocity": 101,
                "duration": 0.1477273,
                "tempo": 120.0
            },
            {
                "start_time": 34.5477273,
                "end_time": 34.6795455,
                "pitch": 36,
                "velocity": 101,
                "duration": 0.1318182,
                "tempo": 120.0
            },
            {
                "start_time": 34.7113636,
                "end_time": 34.8636364,
                "pitch": 36,
                "velocity": 101,
                "duration": 0.1522727,
                "tempo": 120.0
            },
            {
                "start_time": 34.8818182,
                "end_time": 35.0318182,
                "pitch": 36,
                "velocity": 101,
                "duration": 0.15,
                "tempo": 120.0
            },
            {
                "start_time": 35.0659091,
                "end_time": 35.2,
                "pitch": 36,
                "velocity": 101,
                "duration": 0.1340909,
                "tempo": 120.0
            },
            {
                "start_time": 35.2340909,
                "end_time": 35.3863636,
                "pitch": 36,
                "velocity": 101,
                "duration": 0.1522727,
                "tempo": 120.0
            },
            {
                "start_time": 35.4045455,
                "end_time": 35.5545455,
                "pitch": 36,
                "velocity": 101,
                "duration": 0.15,
                "tempo": 120.0
            },
            {
                "start_time": 35.5886364,
                "end_time": 35.725,
                "pitch": 36,
                "velocity": 101,
                "duration": 0.1363636,
                "tempo": 120.0
            },
            {
                "start_time": 35.7590909,
                "end_time": 35.8931818,
                "pitch": 29,
                "velocity": 101,
                "duration": 0.1340909,
                "tempo": 120.0
            },
            {
                "start_time": 35.9272727,
                "end_time": 36.0795455,
                "pitch": 29,
                "velocity": 101,
                "duration": 0.1522727,
                "tempo": 120.0
            },
            {
                "start_time": 36.0954545,
                "end_time": 36.2431818,
                "pitch": 29,
                "velocity": 101,
                "duration": 0.1477273,
                "tempo": 120.0
            },
            {
                "start_time": 36.2772727,
                "end_time": 36.4090909,
                "pitch": 29,
                "velocity": 101,
                "duration": 0.1318182,
                "tempo": 120.0
            },
            {
                "start_time": 36.4409091,
                "end_time": 36.5068182,
                "pitch": 29,
                "velocity": 101,
                "duration": 0.0659091,
                "tempo": 120.0
            },
            {
                "start_time": 36.525,
                "end_time": 36.5909091,
                "pitch": 29,
                "velocity": 101,
                "duration": 0.0659091,
                "tempo": 120.0
            },
            {
                "start_time": 36.6068182,
                "end_time": 36.7545455,
                "pitch": 29,
                "velocity": 101,
                "duration": 0.1477273,
                "tempo": 120.0
            },
            {
                "start_time": 36.7886364,
                "end_time": 36.925,
                "pitch": 29,
                "velocity": 101,
                "duration": 0.1363636,
                "tempo": 120.0
            },
            {
                "start_time": 36.9590909,
                "end_time": 37.1136364,
                "pitch": 29,
                "velocity": 101,
                "duration": 0.1545455,
                "tempo": 120.0
            },
            {
                "start_time": 37.1295455,
                "end_time": 37.2840909,
                "pitch": 29,
                "velocity": 101,
                "duration": 0.1545455,
                "tempo": 120.0
            },
            {
                "start_time": 37.3181818,
                "end_time": 37.4545455,
                "pitch": 29,
                "velocity": 101,
                "duration": 0.1363636,
                "tempo": 120.0
            },
            {
                "start_time": 37.4886364,
                "end_time": 37.6409091,
                "pitch": 29,
                "velocity": 101,
                "duration": 0.1522727,
                "tempo": 120.0
            },
            {
                "start_time": 37.6568182,
                "end_time": 37.8090909,
                "pitch": 29,
                "velocity": 101,
                "duration": 0.1522727,
                "tempo": 120.0
            },
            {
                "start_time": 37.8431818,
                "end_time": 37.8931818,
                "pitch": 29,
                "velocity": 101,
                "duration": 0.05,
                "tempo": 120.0
            },
            {
                "start_time": 37.9272727,
                "end_time": 37.9772727,
                "pitch": 34,
                "velocity": 101,
                "duration": 0.05,
                "tempo": 120.0
            },
            {
                "start_time": 38.0113636,
                "end_time": 38.0613636,
                "pitch": 38,
                "velocity": 101,
                "duration": 0.05,
                "tempo": 120.0
            },
            {
                "start_time": 38.0954545,
                "end_time": 38.1454545,
                "pitch": 41,
                "velocity": 101,
                "duration": 0.05,
                "tempo": 120.0
            },
            {
                "start_time": 38.1818182,
                "end_time": 38.3295455,
                "pitch": 29,
                "velocity": 101,
                "duration": 0.1477273,
                "tempo": 120.0
            },
            {
                "start_time": 38.3454545,
                "end_time": 38.4931818,
                "pitch": 29,
                "velocity": 101,
                "duration": 0.1477273,
                "tempo": 120.0
            },
            {
                "start_time": 38.5272727,
                "end_time": 38.6590909,
                "pitch": 29,
                "velocity": 101,
                "duration": 0.1318182,
                "tempo": 120.0
            },
            {
                "start_time": 38.6931818,
                "end_time": 38.8409091,
                "pitch": 29,
                "velocity": 101,
                "duration": 0.1477273,
                "tempo": 120.0
            },
            {
                "start_time": 38.8568182,
                "end_time": 39.0068182,
                "pitch": 29,
                "velocity": 101,
                "duration": 0.15,
                "tempo": 120.0
            },
            {
                "start_time": 39.0431818,
                "end_time": 39.1772727,
                "pitch": 29,
                "velocity": 101,
                "duration": 0.1340909,
                "tempo": 120.0
            },
            {
                "start_time": 39.2113636,
                "end_time": 39.2613636,
                "pitch": 29,
                "velocity": 101,
                "duration": 0.05,
                "tempo": 120.0
            },
            {
                "start_time": 39.2954545,
                "end_time": 39.3613636,
                "pitch": 29,
                "velocity": 101,
                "duration": 0.0659091,
                "tempo": 120.0
            },
            {
                "start_time": 39.3795455,
                "end_time": 39.5318182,
                "pitch": 29,
                "velocity": 101,
                "duration": 0.1522727,
                "tempo": 120.0
            },
            {
                "start_time": 39.5659091,
                "end_time": 39.7022727,
                "pitch": 29,
                "velocity": 101,
                "duration": 0.1363636,
                "tempo": 120.0
            },
            {
                "start_time": 39.7363636,
                "end_time": 39.8886364,
                "pitch": 29,
                "velocity": 101,
                "duration": 0.1522727,
                "tempo": 120.0
            },
            {
                "start_time": 39.9068182,
                "end_time": 40.0590909,
                "pitch": 29,
                "velocity": 101,
                "duration": 0.1522727,
                "tempo": 120.0
            },
            {
                "start_time": 40.0954545,
                "end_time": 40.2295455,
                "pitch": 29,
                "velocity": 101,
                "duration": 0.1340909,
                "tempo": 120.0
            },
            {
                "start_time": 40.2659091,
                "end_time": 40.3977273,
                "pitch": 29,
                "velocity": 101,
                "duration": 0.1318182,
                "tempo": 120.0
            },
            {
                "start_time": 40.4295455,
                "end_time": 40.5772727,
                "pitch": 29,
                "velocity": 101,
                "duration": 0.1477273,
                "tempo": 120.0
            },
            {
                "start_time": 40.5954545,
                "end_time": 40.6590909,
                "pitch": 29,
                "velocity": 101,
                "duration": 0.0636364,
                "tempo": 120.0
            },
            {
                "start_time": 40.6931818,
                "end_time": 40.7431818,
                "pitch": 34,
                "velocity": 101,
                "duration": 0.05,
                "tempo": 120.0
            },
            {
                "start_time": 40.7772727,
                "end_time": 40.825,
                "pitch": 39,
                "velocity": 101,
                "duration": 0.0477273,
                "tempo": 120.0
            },
            {
                "start_time": 40.8590909,
                "end_time": 40.9068182,
                "pitch": 41,
                "velocity": 101,
                "duration": 0.0477273,
                "tempo": 120.0
            },
            {
                "start_time": 40.9409091,
                "end_time": 41.0931818,
                "pitch": 29,
                "velocity": 101,
                "duration": 0.1522727,
                "tempo": 120.0
            },
            {
                "start_time": 41.1090909,
                "end_time": 41.2613636,
                "pitch": 29,
                "velocity": 101,
                "duration": 0.1522727,
                "tempo": 120.0
            },
            {
                "start_time": 41.2954545,
                "end_time": 41.4295455,
                "pitch": 29,
                "velocity": 101,
                "duration": 0.1340909,
                "tempo": 120.0
            },
            {
                "start_time": 41.4636364,
                "end_time": 41.6159091,
                "pitch": 29,
                "velocity": 101,
                "duration": 0.1522727,
                "tempo": 120.0
            },
            {
                "start_time": 41.6340909,
                "end_time": 41.7818182,
                "pitch": 29,
                "velocity": 101,
                "duration": 0.1477273,
                "tempo": 120.0
            },
            {
                "start_time": 41.8136364,
                "end_time": 41.9454545,
                "pitch": 29,
                "velocity": 101,
                "duration": 0.1318182,
                "tempo": 120.0
            },
            {
                "start_time": 41.9795455,
                "end_time": 42.0272727,
                "pitch": 29,
                "velocity": 101,
                "duration": 0.0477273,
                "tempo": 120.0
            },
            {
                "start_time": 42.0613636,
                "end_time": 42.1272727,
                "pitch": 29,
                "velocity": 101,
                "duration": 0.0659091,
                "tempo": 120.0
            },
            {
                "start_time": 42.1454545,
                "end_time": 42.2931818,
                "pitch": 29,
                "velocity": 101,
                "duration": 0.1477273,
                "tempo": 120.0
            },
            {
                "start_time": 42.325,
                "end_time": 42.4613636,
                "pitch": 29,
                "velocity": 101,
                "duration": 0.1363636,
                "tempo": 120.0
            },
            {
                "start_time": 42.4954545,
                "end_time": 42.6318182,
                "pitch": 29,
                "velocity": 101,
                "duration": 0.1363636,
                "tempo": 120.0
            },
            {
                "start_time": 42.6681818,
                "end_time": 42.8204545,
                "pitch": 29,
                "velocity": 101,
                "duration": 0.1522727,
                "tempo": 120.0
            },
            {
                "start_time": 42.8545455,
                "end_time": 42.9909091,
                "pitch": 29,
                "velocity": 101,
                "duration": 0.1363636,
                "tempo": 120.0
            },
            {
                "start_time": 43.025,
                "end_time": 43.1568182,
                "pitch": 29,
                "velocity": 101,
                "duration": 0.1318182,
                "tempo": 120.0
            },
            {
                "start_time": 43.1909091,
                "end_time": 43.3386364,
                "pitch": 29,
                "velocity": 101,
                "duration": 0.1477273,
                "tempo": 120.0
            },
            {
                "start_time": 43.3545455,
                "end_time": 43.4204545,
                "pitch": 29,
                "velocity": 101,
                "duration": 0.0659091,
                "tempo": 120.0
            },
            {
                "start_time": 43.4545455,
                "end_time": 43.5022727,
                "pitch": 34,
                "velocity": 101,
                "duration": 0.0477273,
                "tempo": 120.0
            },
            {
                "start_time": 43.5363636,
                "end_time": 43.5840909,
                "pitch": 38,
                "velocity": 101,
                "duration": 0.0477273,
                "tempo": 120.0
            },
            {
                "start_time": 43.6181818,
                "end_time": 43.6681818,
                "pitch": 41,
                "velocity": 101,
                "duration": 0.05,
                "tempo": 120.0
            },
            {
                "start_time": 43.7022727,
                "end_time": 43.8522727,
                "pitch": 29,
                "velocity": 101,
                "duration": 0.15,
                "tempo": 120.0
            },
            {
                "start_time": 43.8704545,
                "end_time": 44.0204545,
                "pitch": 29,
                "velocity": 101,
                "duration": 0.15,
                "tempo": 120.0
            },
            {
                "start_time": 44.0568182,
                "end_time": 44.1909091,
                "pitch": 31,
                "velocity": 101,
                "duration": 0.1340909,
                "tempo": 120.0
            },
            {
                "start_time": 44.225,
                "end_time": 44.375,
                "pitch": 31,
                "velocity": 101,
                "duration": 0.15,
                "tempo": 120.0
            },
            {
                "start_time": 44.3931818,
                "end_time": 44.5409091,
                "pitch": 31,
                "velocity": 101,
                "duration": 0.1477273,
                "tempo": 120.0
            },
            {
                "start_time": 44.575,
                "end_time": 44.7045455,
                "pitch": 31,
                "velocity": 101,
                "duration": 0.1295455,
                "tempo": 120.0
            },
            {
                "start_time": 44.7386364,
                "end_time": 44.7886364,
                "pitch": 31,
                "velocity": 101,
                "duration": 0.05,
                "tempo": 120.0
            },
            {
                "start_time": 44.8204545,
                "end_time": 44.8704545,
                "pitch": 31,
                "velocity": 101,
                "duration": 0.05,
                "tempo": 120.0
            },
            {
                "start_time": 44.9045455,
                "end_time": 45.0522727,
                "pitch": 31,
                "velocity": 101,
                "duration": 0.1477273,
                "tempo": 120.0
            },
            {
                "start_time": 45.0863636,
                "end_time": 45.2227273,
                "pitch": 31,
                "velocity": 101,
                "duration": 0.1363636,
                "tempo": 120.0
            },
            {
                "start_time": 45.2568182,
                "end_time": 45.3931818,
                "pitch": 31,
                "velocity": 101,
                "duration": 0.1363636,
                "tempo": 120.0
            },
            {
                "start_time": 45.4272727,
                "end_time": 45.5795455,
                "pitch": 36,
                "velocity": 101,
                "duration": 0.1522727,
                "tempo": 120.0
            },
            {
                "start_time": 45.5977273,
                "end_time": 45.75,
                "pitch": 36,
                "velocity": 101,
                "duration": 0.1522727,
                "tempo": 120.0
            },
            {
                "start_time": 45.7863636,
                "end_time": 45.9204545,
                "pitch": 36,
                "velocity": 101,
                "duration": 0.1340909,
                "tempo": 120.0
            },
            {
                "start_time": 45.9545455,
                "end_time": 46.1045455,
                "pitch": 24,
                "velocity": 101,
                "duration": 0.15,
                "tempo": 120.0
            },
            {
                "start_time": 46.125,
                "end_time": 46.275,
                "pitch": 24,
                "velocity": 101,
                "duration": 0.15,
                "tempo": 120.0
            },
            {
                "start_time": 46.3090909,
                "end_time": 46.3590909,
                "pitch": 25,
                "velocity": 101,
                "duration": 0.05,
                "tempo": 120.0
            },
            {
                "start_time": 46.3931818,
                "end_time": 46.4431818,
                "pitch": 24,
                "velocity": 101,
                "duration": 0.05,
                "tempo": 120.0
            },
            {
                "start_time": 46.4772727,
                "end_time": 46.5272727,
                "pitch": 27,
                "velocity": 101,
                "duration": 0.05,
                "tempo": 120.0
            },
            {
                "start_time": 46.5590909,
                "end_time": 46.625,
                "pitch": 24,
                "velocity": 101,
                "duration": 0.0659091,
                "tempo": 120.0
            },
            {
                "start_time": 46.6431818,
                "end_time": 46.7090909,
                "pitch": 28,
                "velocity": 101,
                "duration": 0.0659091,
                "tempo": 120.0
            },
            {
                "start_time": 46.725,
                "end_time": 46.7909091,
                "pitch": 24,
                "velocity": 101,
                "duration": 0.0659091,
                "tempo": 120.0
            },
            {
                "start_time": 46.825,
                "end_time": 46.9545455,
                "pitch": 29,
                "velocity": 101,
                "duration": 0.1295455,
                "tempo": 120.0
            },
            {
                "start_time": 46.9886364,
                "end_time": 47.1363636,
                "pitch": 29,
                "velocity": 101,
                "duration": 0.1477273,
                "tempo": 120.0
            },
            {
                "start_time": 47.1545455,
                "end_time": 47.3045455,
                "pitch": 29,
                "velocity": 101,
                "duration": 0.15,
                "tempo": 120.0
            },
            {
                "start_time": 47.3386364,
                "end_time": 47.4727273,
                "pitch": 29,
                "velocity": 101,
                "duration": 0.1340909,
                "tempo": 120.0
            },
            {
                "start_time": 47.5068182,
                "end_time": 47.5568182,
                "pitch": 29,
                "velocity": 101,
                "duration": 0.05,
                "tempo": 120.0
            },
            {
                "start_time": 47.5909091,
                "end_time": 47.6431818,
                "pitch": 29,
                "velocity": 101,
                "duration": 0.0522727,
                "tempo": 120.0
            },
            {
                "start_time": 47.6772727,
                "end_time": 47.8272727,
                "pitch": 29,
                "velocity": 101,
                "duration": 0.15,
                "tempo": 120.0
            },
            {
                "start_time": 47.8454545,
                "end_time": 47.9931818,
                "pitch": 29,
                "velocity": 101,
                "duration": 0.1477273,
                "tempo": 120.0
            },
            {
                "start_time": 48.0272727,
                "end_time": 48.1590909,
                "pitch": 29,
                "velocity": 101,
                "duration": 0.1318182,
                "tempo": 120.0
            },
            {
                "start_time": 48.1909091,
                "end_time": 48.3386364,
                "pitch": 29,
                "velocity": 101,
                "duration": 0.1477273,
                "tempo": 120.0
            },
            {
                "start_time": 48.3568182,
                "end_time": 48.5045455,
                "pitch": 29,
                "velocity": 101,
                "duration": 0.1477273,
                "tempo": 120.0
            },
            {
                "start_time": 48.5386364,
                "end_time": 48.6727273,
                "pitch": 29,
                "velocity": 101,
                "duration": 0.1340909,
                "tempo": 120.0
            },
            {
                "start_time": 48.7090909,
                "end_time": 48.8613636,
                "pitch": 29,
                "velocity": 101,
                "duration": 0.1522727,
                "tempo": 120.0
            },
            {
                "start_time": 48.8795455,
                "end_time": 48.9477273,
                "pitch": 29,
                "velocity": 101,
                "duration": 0.0681818,
                "tempo": 120.0
            },
            {
                "start_time": 48.9636364,
                "end_time": 49.0318182,
                "pitch": 34,
                "velocity": 101,
                "duration": 0.0681818,
                "tempo": 120.0
            },
            {
                "start_time": 49.0659091,
                "end_time": 49.1181818,
                "pitch": 38,
                "velocity": 101,
                "duration": 0.0522727,
                "tempo": 120.0
            },
            {
                "start_time": 49.1522727,
                "end_time": 49.2022727,
                "pitch": 41,
                "velocity": 101,
                "duration": 0.05,
                "tempo": 120.0
            },
            {
                "start_time": 49.2386364,
                "end_time": 49.3863636,
                "pitch": 29,
                "velocity": 101,
                "duration": 0.1477273,
                "tempo": 120.0
            },
            {
                "start_time": 49.4022727,
                "end_time": 49.55,
                "pitch": 29,
                "velocity": 101,
                "duration": 0.1477273,
                "tempo": 120.0
            },
            {
                "start_time": 49.5840909,
                "end_time": 49.7159091,
                "pitch": 29,
                "velocity": 101,
                "duration": 0.1318182,
                "tempo": 120.0
            },
            {
                "start_time": 49.7477273,
                "end_time": 49.8795455,
                "pitch": 29,
                "velocity": 101,
                "duration": 0.1318182,
                "tempo": 120.0
            },
            {
                "start_time": 49.9136364,
                "end_time": 50.0659091,
                "pitch": 29,
                "velocity": 101,
                "duration": 0.1522727,
                "tempo": 120.0
            },
            {
                "start_time": 50.0818182,
                "end_time": 50.2340909,
                "pitch": 29,
                "velocity": 101,
                "duration": 0.1522727,
                "tempo": 120.0
            },
            {
                "start_time": 50.2681818,
                "end_time": 50.3181818,
                "pitch": 29,
                "velocity": 101,
                "duration": 0.05,
                "tempo": 120.0
            },
            {
                "start_time": 50.3522727,
                "end_time": 50.4022727,
                "pitch": 29,
                "velocity": 101,
                "duration": 0.05,
                "tempo": 120.0
            },
            {
                "start_time": 50.4363636,
                "end_time": 50.5886364,
                "pitch": 29,
                "velocity": 101,
                "duration": 0.1522727,
                "tempo": 120.0
            },
            {
                "start_time": 50.6045455,
                "end_time": 50.7522727,
                "pitch": 29,
                "velocity": 101,
                "duration": 0.1477273,
                "tempo": 120.0
            },
            {
                "start_time": 50.7863636,
                "end_time": 50.9181818,
                "pitch": 29,
                "velocity": 101,
                "duration": 0.1318182,
                "tempo": 120.0
            },
            {
                "start_time": 50.9522727,
                "end_time": 51.1,
                "pitch": 29,
                "velocity": 101,
                "duration": 0.1477273,
                "tempo": 120.0
            },
            {
                "start_time": 51.1159091,
                "end_time": 51.2636364,
                "pitch": 29,
                "velocity": 101,
                "duration": 0.1477273,
                "tempo": 120.0
            },
            {
                "start_time": 51.2977273,
                "end_time": 51.4340909,
                "pitch": 29,
                "velocity": 101,
                "duration": 0.1363636,
                "tempo": 120.0
            },
            {
                "start_time": 51.4681818,
                "end_time": 51.6227273,
                "pitch": 29,
                "velocity": 101,
                "duration": 0.1545455,
                "tempo": 120.0
            },
            {
                "start_time": 51.6386364,
                "end_time": 51.7068182,
                "pitch": 29,
                "velocity": 101,
                "duration": 0.0681818,
                "tempo": 120.0
            },
            {
                "start_time": 51.725,
                "end_time": 51.7931818,
                "pitch": 34,
                "velocity": 101,
                "duration": 0.0681818,
                "tempo": 120.0
            },
            {
                "start_time": 51.8272727,
                "end_time": 51.8772727,
                "pitch": 39,
                "velocity": 101,
                "duration": 0.05,
                "tempo": 120.0
            },
            {
                "start_time": 51.9113636,
                "end_time": 51.9636364,
                "pitch": 41,
                "velocity": 101,
                "duration": 0.0522727,
                "tempo": 120.0
            },
            {
                "start_time": 51.9977273,
                "end_time": 52.1318182,
                "pitch": 29,
                "velocity": 101,
                "duration": 0.1340909,
                "tempo": 120.0
            },
            {
                "start_time": 52.1659091,
                "end_time": 52.3181818,
                "pitch": 29,
                "velocity": 101,
                "duration": 0.1522727,
                "tempo": 120.0
            },
            {
                "start_time": 52.3386364,
                "end_time": 52.4863636,
                "pitch": 29,
                "velocity": 101,
                "duration": 0.1477273,
                "tempo": 120.0
            },
            {
                "start_time": 52.5204545,
                "end_time": 52.6545455,
                "pitch": 29,
                "velocity": 101,
                "duration": 0.1340909,
                "tempo": 120.0
            }
        ],
        "Violin": [
            {
                "start_time": 0.0045455,
                "end_time": 0.05,
                "pitch": 77,
                "velocity": 64,
                "duration": 0.0454545,
                "tempo": 120.0
            },
            {
                "start_time": 0.1,
                "end_time": 0.1477273,
                "pitch": 68,
                "velocity": 64,
                "duration": 0.0477273,
                "tempo": 120.0
            },
            {
                "start_time": 0.1954545,
                "end_time": 0.2772727,
                "pitch": 72,
                "velocity": 64,
                "duration": 0.0818182,
                "tempo": 120.0
            },
            {
                "start_time": 0.3772727,
                "end_time": 0.4590909,
                "pitch": 77,
                "velocity": 64,
                "duration": 0.0818182,
                "tempo": 120.0
            },
            {
                "start_time": 0.5409091,
                "end_time": 0.6227273,
                "pitch": 80,
                "velocity": 64,
                "duration": 0.0818182,
                "tempo": 120.0
            },
            {
                "start_time": 0.7068182,
                "end_time": 0.7886364,
                "pitch": 79,
                "velocity": 64,
                "duration": 0.0818182,
                "tempo": 120.0
            },
            {
                "start_time": 0.8727273,
                "end_time": 0.9704545,
                "pitch": 77,
                "velocity": 64,
                "duration": 0.0977273,
                "tempo": 120.0
            },
            {
                "start_time": 1.0568182,
                "end_time": 1.1409091,
                "pitch": 68,
                "velocity": 64,
                "duration": 0.0840909,
                "tempo": 120.0
            },
            {
                "start_time": 1.225,
                "end_time": 1.3090909,
                "pitch": 77,
                "velocity": 64,
                "duration": 0.0840909,
                "tempo": 120.0
            },
            {
                "start_time": 1.3931818,
                "end_time": 1.4954545,
                "pitch": 68,
                "velocity": 64,
                "duration": 0.1022727,
                "tempo": 120.0
            },
            {
                "start_time": 1.5795455,
                "end_time": 1.6636364,
                "pitch": 72,
                "velocity": 64,
                "duration": 0.0840909,
                "tempo": 120.0
            },
            {
                "start_time": 1.75,
                "end_time": 1.8340909,
                "pitch": 77,
                "velocity": 64,
                "duration": 0.0840909,
                "tempo": 120.0
            },
            {
                "start_time": 1.9204545,
                "end_time": 2.0045455,
                "pitch": 80,
                "velocity": 64,
                "duration": 0.0840909,
                "tempo": 120.0
            },
            {
                "start_time": 2.1090909,
                "end_time": 2.1931818,
                "pitch": 79,
                "velocity": 64,
                "duration": 0.0840909,
                "tempo": 120.0
            },
            {
                "start_time": 2.2795455,
                "end_time": 2.3613636,
                "pitch": 77,
                "velocity": 64,
                "duration": 0.0818182,
                "tempo": 120.0
            },
            {
                "start_time": 2.4454545,
                "end_time": 2.5272727,
                "pitch": 68,
                "velocity": 64,
                "duration": 0.0818182,
                "tempo": 120.0
            },
            {
                "start_time": 2.625,
                "end_time": 2.7068182,
                "pitch": 77,
                "velocity": 64,
                "duration": 0.0818182,
                "tempo": 120.0
            },
            {
                "start_time": 2.7909091,
                "end_time": 2.8727273,
                "pitch": 68,
                "velocity": 64,
                "duration": 0.0818182,
                "tempo": 120.0
            },
            {
                "start_time": 2.9568182,
                "end_time": 3.0386364,
                "pitch": 73,
                "velocity": 64,
                "duration": 0.0818182,
                "tempo": 120.0
            },
            {
                "start_time": 3.1409091,
                "end_time": 3.225,
                "pitch": 77,
                "velocity": 64,
                "duration": 0.0840909,
                "tempo": 120.0
            },
            {
                "start_time": 3.3113636,
                "end_time": 3.3931818,
                "pitch": 80,
                "velocity": 64,
                "duration": 0.0818182,
                "tempo": 120.0
            },
            {
                "start_time": 3.4795455,
                "end_time": 3.5613636,
                "pitch": 79,
                "velocity": 64,
                "duration": 0.0818182,
                "tempo": 120.0
            },
            {
                "start_time": 3.6477273,
                "end_time": 3.7454545,
                "pitch": 77,
                "velocity": 64,
                "duration": 0.0977273,
                "tempo": 120.0
            },
            {
                "start_time": 3.8295455,
                "end_time": 3.9113636,
                "pitch": 68,
                "velocity": 64,
                "duration": 0.0818182,
                "tempo": 120.0
            },
            {
                "start_time": 3.9931818,
                "end_time": 4.075,
                "pitch": 75,
                "velocity": 64,
                "duration": 0.0818182,
                "tempo": 120.0
            },
            {
                "start_time": 4.1590909,
                "end_time": 4.2568182,
                "pitch": 67,
                "velocity": 64,
                "duration": 0.0977273,
                "tempo": 120.0
            },
            {
                "start_time": 4.3409091,
                "end_time": 4.425,
                "pitch": 72,
                "velocity": 64,
                "duration": 0.0840909,
                "tempo": 120.0
            },
            {
                "start_time": 4.5113636,
                "end_time": 4.5954545,
                "pitch": 75,
                "velocity": 64,
                "duration": 0.0840909,
                "tempo": 120.0
            },
            {
                "start_time": 4.6818182,
                "end_time": 4.7659091,
                "pitch": 79,
                "velocity": 64,
                "duration": 0.0840909,
                "tempo": 120.0
            },
            {
                "start_time": 4.8704545,
                "end_time": 4.9545455,
                "pitch": 77,
                "velocity": 64,
                "duration": 0.0840909,
                "tempo": 120.0
            },
            {
                "start_time": 5.0409091,
                "end_time": 5.1227273,
                "pitch": 75,
                "velocity": 64,
                "duration": 0.0818182,
                "tempo": 120.0
            },
            {
                "start_time": 5.2090909,
                "end_time": 5.2931818,
                "pitch": 72,
                "velocity": 64,
                "duration": 0.0840909,
                "tempo": 120.0
            },
            {
                "start_time": 5.3954545,
                "end_time": 5.8795455,
                "pitch": 70,
                "velocity": 64,
                "duration": 0.4840909,
                "tempo": 120.0
            },
            {
                "start_time": 5.8977273,
                "end_time": 6.7204545,
                "pitch": 76,
                "velocity": 64,
                "duration": 0.8227273,
                "tempo": 120.0
            },
            {
                "start_time": 6.7568182,
                "end_time": 7.2363636,
                "pitch": 77,
                "velocity": 64,
                "duration": 0.4795455,
                "tempo": 120.0
            },
            {
                "start_time": 7.2727273,
                "end_time": 8.1204545,
                "pitch": 80,
                "velocity": 64,
                "duration": 0.8477273,
                "tempo": 120.0
            },
            {
                "start_time": 8.1386364,
                "end_time": 8.8045455,
                "pitch": 84,
                "velocity": 64,
                "duration": 0.6659091,
                "tempo": 120.0
            },
            {
                "start_time": 8.8386364,
                "end_time": 9.4886364,
                "pitch": 77,
                "velocity": 64,
                "duration": 0.65,
                "tempo": 120.0
            },
            {
                "start_time": 9.5227273,
                "end_time": 10.0136364,
                "pitch": 79,
                "velocity": 64,
                "duration": 0.4909091,
                "tempo": 120.0
            },
            {
                "start_time": 10.0477273,
                "end_time": 10.8909091,
                "pitch": 79,
                "velocity": 64,
                "duration": 0.8431818,
                "tempo": 120.0
            },
            {
                "start_time": 10.9090909,
                "end_time": 11.0045455,
                "pitch": 77,
                "velocity": 64,
                "duration": 0.0954545,
                "tempo": 120.0
            },
            {
                "start_time": 11.0886364,
                "end_time": 11.1704545,
                "pitch": 68,
                "velocity": 64,
                "duration": 0.0818182,
                "tempo": 120.0
            },
            {
                "start_time": 11.2545455,
                "end_time": 11.3363636,
                "pitch": 72,
                "velocity": 64,
                "duration": 0.0818182,
                "tempo": 120.0
            },
            {
                "start_time": 11.4227273,
                "end_time": 11.5045455,
                "pitch": 77,
                "velocity": 64,
                "duration": 0.0818182,
                "tempo": 120.0
            },
            {
                "start_time": 11.6068182,
                "end_time": 11.6909091,
                "pitch": 80,
                "velocity": 64,
                "duration": 0.0840909,
                "tempo": 120.0
            },
            {
                "start_time": 11.7772727,
                "end_time": 11.8590909,
                "pitch": 79,
                "velocity": 64,
                "duration": 0.0818182,
                "tempo": 120.0
            },
            {
                "start_time": 11.9454545,
                "end_time": 12.0272727,
                "pitch": 77,
                "velocity": 64,
                "duration": 0.0818182,
                "tempo": 120.0
            },
            {
                "start_time": 12.1272727,
                "end_time": 12.2068182,
                "pitch": 68,
                "velocity": 64,
                "duration": 0.0795455,
                "tempo": 120.0
            },
            {
                "start_time": 12.2909091,
                "end_time": 12.3727273,
                "pitch": 77,
                "velocity": 64,
                "duration": 0.0818182,
                "tempo": 120.0
            },
            {
                "start_time": 12.4568182,
                "end_time": 12.5363636,
                "pitch": 68,
                "velocity": 64,
                "duration": 0.0795455,
                "tempo": 120.0
            },
            {
                "start_time": 12.6204545,
                "end_time": 12.7181818,
                "pitch": 72,
                "velocity": 64,
                "duration": 0.0977273,
                "tempo": 120.0
            },
            {
                "start_time": 12.8022727,
                "end_time": 12.8840909,
                "pitch": 77,
                "velocity": 64,
                "duration": 0.0818182,
                "tempo": 120.0
            },
            {
                "start_time": 12.9659091,
                "end_time": 13.0477273,
                "pitch": 80,
                "velocity": 64,
                "duration": 0.0818182,
                "tempo": 120.0
            },
            {
                "start_time": 13.1318182,
                "end_time": 13.2295455,
                "pitch": 79,
                "velocity": 64,
                "duration": 0.0977273,
                "tempo": 120.0
            },
            {
                "start_time": 13.3136364,
                "end_time": 13.4,
                "pitch": 77,
                "velocity": 64,
                "duration": 0.0863636,
                "tempo": 120.0
            },
            {
                "start_time": 13.4863636,
                "end_time": 13.5704545,
                "pitch": 68,
                "velocity": 64,
                "duration": 0.0840909,
                "tempo": 120.0
            },
            {
                "start_time": 13.6590909,
                "end_time": 13.7431818,
                "pitch": 77,
                "velocity": 64,
                "duration": 0.0840909,
                "tempo": 120.0
            },
            {
                "start_time": 13.8477273,
                "end_time": 13.9340909,
                "pitch": 68,
                "velocity": 64,
                "duration": 0.0863636,
                "tempo": 120.0
            },
            {
                "start_time": 14.0227273,
                "end_time": 14.1022727,
                "pitch": 73,
                "velocity": 64,
                "duration": 0.0795455,
                "tempo": 120.0
            },
            {
                "start_time": 14.1863636,
                "end_time": 14.2681818,
                "pitch": 77,
                "velocity": 64,
                "duration": 0.0818182,
                "tempo": 120.0
            },
            {
                "start_time": 14.3681818,
                "end_time": 14.45,
                "pitch": 80,
                "velocity": 64,
                "duration": 0.0818182,
                "tempo": 120.0
            },
            {
                "start_time": 14.5340909,
                "end_time": 14.6136364,
                "pitch": 79,
                "velocity": 64,
                "duration": 0.0795455,
                "tempo": 120.0
            },
            {
                "start_time": 14.6977273,
                "end_time": 14.7818182,
                "pitch": 77,
                "velocity": 64,
                "duration": 0.0840909,
                "tempo": 120.0
            },
            {
                "start_time": 14.8659091,
                "end_time": 14.9659091,
                "pitch": 68,
                "velocity": 64,
                "duration": 0.1,
                "tempo": 120.0
            },
            {
                "start_time": 15.0522727,
                "end_time": 15.1340909,
                "pitch": 75,
                "velocity": 64,
                "duration": 0.0818182,
                "tempo": 120.0
            },
            {
                "start_time": 15.2204545,
                "end_time": 15.3045455,
                "pitch": 67,
                "velocity": 64,
                "duration": 0.0840909,
                "tempo": 120.0
            },
            {
                "start_time": 15.3886364,
                "end_time": 15.4863636,
                "pitch": 72,
                "velocity": 64,
                "duration": 0.0977273,
                "tempo": 120.0
            },
            {
                "start_time": 15.5704545,
                "end_time": 15.6522727,
                "pitch": 75,
                "velocity": 64,
                "duration": 0.0818182,
                "tempo": 120.0
            },
            {
                "start_time": 15.7363636,
                "end_time": 15.8181818,
                "pitch": 79,
                "velocity": 64,
                "duration": 0.0818182,
                "tempo": 120.0
            },
            {
                "start_time": 15.9,
                "end_time": 15.9977273,
                "pitch": 77,
                "velocity": 64,
                "duration": 0.0977273,
                "tempo": 120.0
            },
            {
                "start_time": 16.0818182,
                "end_time": 16.1659091,
                "pitch": 75,
                "velocity": 64,
                "duration": 0.0840909,
                "tempo": 120.0
            },
            {
                "start_time": 16.2522727,
                "end_time": 16.3363636,
                "pitch": 72,
                "velocity": 64,
                "duration": 0.0840909,
                "tempo": 120.0
            },
            {
                "start_time": 16.4227273,
                "end_time": 16.9136364,
                "pitch": 70,
                "velocity": 64,
                "duration": 0.4909091,
                "tempo": 120.0
            },
            {
                "start_time": 16.9477273,
                "end_time": 17.7772727,
                "pitch": 76,
                "velocity": 64,
                "duration": 0.8295455,
                "tempo": 120.0
            },
            {
                "start_time": 17.8136364,
                "end_time": 18.2977273,
                "pitch": 77,
                "velocity": 64,
                "duration": 0.4840909,
                "tempo": 120.0
            },
            {
                "start_time": 18.3318182,
                "end_time": 19.1477273,
                "pitch": 75,
                "velocity": 64,
                "duration": 0.8159091,
                "tempo": 120.0
            },
            {
                "start_time": 19.1840909,
                "end_time": 19.6772727,
                "pitch": 77,
                "velocity": 64,
                "duration": 0.4931818,
                "tempo": 120.0
            },
            {
                "start_time": 19.7113636,
                "end_time": 20.5454545,
                "pitch": 76,
                "velocity": 64,
                "duration": 0.8340909,
                "tempo": 120.0
            },
            {
                "start_time": 20.5795455,
                "end_time": 21.5681818,
                "pitch": 77,
                "velocity": 64,
                "duration": 0.9886364,
                "tempo": 120.0
            },
            {
                "start_time": 21.9477273,
                "end_time": 24.6681818,
                "pitch": 89,
                "velocity": 51,
                "duration": 2.7204545,
                "tempo": 120.0
            },
            {
                "start_time": 24.7022727,
                "end_time": 26.0681818,
                "pitch": 88,
                "velocity": 51,
                "duration": 1.3659091,
                "tempo": 120.0
            },
            {
                "start_time": 26.8590909,
                "end_time": 26.9090909,
                "pitch": 84,
                "velocity": 64,
                "duration": 0.05,
                "tempo": 120.0
            },
            {
                "start_time": 26.9409091,
                "end_time": 27.0068182,
                "pitch": 89,
                "velocity": 64,
                "duration": 0.0659091,
                "tempo": 120.0
            },
            {
                "start_time": 27.025,
                "end_time": 27.0909091,
                "pitch": 91,
                "velocity": 64,
                "duration": 0.0659091,
                "tempo": 120.0
            },
            {
                "start_time": 27.1068182,
                "end_time": 27.1727273,
                "pitch": 92,
                "velocity": 64,
                "duration": 0.0659091,
                "tempo": 120.0
            },
            {
                "start_time": 27.2068182,
                "end_time": 27.2590909,
                "pitch": 91,
                "velocity": 64,
                "duration": 0.0522727,
                "tempo": 120.0
            },
            {
                "start_time": 27.2909091,
                "end_time": 27.3431818,
                "pitch": 92,
                "velocity": 64,
                "duration": 0.0522727,
                "tempo": 120.0
            },
            {
                "start_time": 27.3772727,
                "end_time": 27.4272727,
                "pitch": 94,
                "velocity": 64,
                "duration": 0.05,
                "tempo": 120.0
            },
            {
                "start_time": 27.4613636,
                "end_time": 29.6681818,
                "pitch": 96,
                "velocity": 51,
                "duration": 2.2068182,
                "tempo": 120.0
            },
            {
                "start_time": 29.7022727,
                "end_time": 30.1886364,
                "pitch": 94,
                "velocity": 51,
                "duration": 0.4863636,
                "tempo": 120.0
            },
            {
                "start_time": 30.2227273,
                "end_time": 31.5954545,
                "pitch": 96,
                "velocity": 51,
                "duration": 1.3727273,
                "tempo": 120.0
            },
            {
                "start_time": 31.6136364,
                "end_time": 32.9568182,
                "pitch": 101,
                "velocity": 51,
                "duration": 1.3431818,
                "tempo": 120.0
            },
            {
                "start_time": 32.9909091,
                "end_time": 35.725,
                "pitch": 103,
                "velocity": 51,
                "duration": 2.7340909,
                "tempo": 120.0
            },
            {
                "start_time": 35.7590909,
                "end_time": 37.1136364,
                "pitch": 68,
                "velocity": 64,
                "duration": 1.3545455,
                "tempo": 120.0
            },
            {
                "start_time": 37.1318182,
                "end_time": 38.4931818,
                "pitch": 70,
                "velocity": 64,
                "duration": 1.3613636,
                "tempo": 120.0
            },
            {
                "start_time": 38.5272727,
                "end_time": 39.8886364,
                "pitch": 72,
                "velocity": 64,
                "duration": 1.3613636,
                "tempo": 120.0
            },
            {
                "start_time": 39.9068182,
                "end_time": 41.2613636,
                "pitch": 70,
                "velocity": 64,
                "duration": 1.3545455,
                "tempo": 120.0
            },
            {
                "start_time": 41.2954545,
                "end_time": 42.6318182,
                "pitch": 68,
                "velocity": 64,
                "duration": 1.3363636,
                "tempo": 120.0
            },
            {
                "start_time": 42.6681818,
                "end_time": 44.0227273,
                "pitch": 70,
                "velocity": 64,
                "duration": 1.3545455,
                "tempo": 120.0
            },
            {
                "start_time": 44.0568182,
                "end_time": 45.3931818,
                "pitch": 74,
                "velocity": 64,
                "duration": 1.3363636,
                "tempo": 120.0
            },
            {
                "start_time": 45.4272727,
                "end_time": 45.9204545,
                "pitch": 77,
                "velocity": 64,
                "duration": 0.4931818,
                "tempo": 120.0
            },
            {
                "start_time": 45.9545455,
                "end_time": 46.7909091,
                "pitch": 76,
                "velocity": 64,
                "duration": 0.8363636,
                "tempo": 120.0
            },
            {
                "start_time": 46.825,
                "end_time": 48.1590909,
                "pitch": 68,
                "velocity": 64,
                "duration": 1.3340909,
                "tempo": 120.0
            },
            {
                "start_time": 48.1909091,
                "end_time": 49.55,
                "pitch": 70,
                "velocity": 64,
                "duration": 1.3590909,
                "tempo": 120.0
            },
            {
                "start_time": 49.5840909,
                "end_time": 50.2340909,
                "pitch": 72,
                "velocity": 64,
                "duration": 0.65,
                "tempo": 120.0
            },
            {
                "start_time": 50.2681818,
                "end_time": 50.9181818,
                "pitch": 75,
                "velocity": 64,
                "duration": 0.65,
                "tempo": 120.0
            },
            {
                "start_time": 50.9522727,
                "end_time": 52.3181818,
                "pitch": 74,
                "velocity": 64,
                "duration": 1.3659091,
                "tempo": 120.0
            },
            {
                "start_time": 52.3386364,
                "end_time": 52.4363636,
                "pitch": 77,
                "velocity": 64,
                "duration": 0.0977273,
                "tempo": 120.0
            },
            {
                "start_time": 52.5227273,
                "end_time": 52.6045455,
                "pitch": 68,
                "velocity": 64,
                "duration": 0.0818182,
                "tempo": 120.0
            }
        ],
        "Electric Piano 1": [
            {
                "start_time": 0.1977273,
                "end_time": 0.5090909,
                "pitch": 23,
                "velocity": 101,
                "duration": 0.3113636,
                "tempo": 120.0
            },
            {
                "start_time": 0.8727273,
                "end_time": 1.1909091,
                "pitch": 23,
                "velocity": 101,
                "duration": 0.3181818,
                "tempo": 120.0
            },
            {
                "start_time": 1.5795455,
                "end_time": 1.9045455,
                "pitch": 23,
                "velocity": 101,
                "duration": 0.325,
                "tempo": 120.0
            },
            {
                "start_time": 2.2818182,
                "end_time": 2.5931818,
                "pitch": 23,
                "velocity": 101,
                "duration": 0.3113636,
                "tempo": 120.0
            },
            {
                "start_time": 2.9568182,
                "end_time": 3.2772727,
                "pitch": 23,
                "velocity": 101,
                "duration": 0.3204545,
                "tempo": 120.0
            },
            {
                "start_time": 3.65,
                "end_time": 3.9613636,
                "pitch": 23,
                "velocity": 101,
                "duration": 0.3113636,
                "tempo": 120.0
            },
            {
                "start_time": 4.3409091,
                "end_time": 4.6636364,
                "pitch": 23,
                "velocity": 101,
                "duration": 0.3227273,
                "tempo": 120.0
            },
            {
                "start_time": 5.0409091,
                "end_time": 5.3613636,
                "pitch": 23,
                "velocity": 101,
                "duration": 0.3204545,
                "tempo": 120.0
            },
            {
                "start_time": 5.7318182,
                "end_time": 6.0454545,
                "pitch": 23,
                "velocity": 101,
                "duration": 0.3136364,
                "tempo": 120.0
            },
            {
                "start_time": 6.4090909,
                "end_time": 6.7204545,
                "pitch": 23,
                "velocity": 101,
                "duration": 0.3113636,
                "tempo": 120.0
            },
            {
                "start_time": 7.1,
                "end_time": 7.425,
                "pitch": 23,
                "velocity": 101,
                "duration": 0.325,
                "tempo": 120.0
            },
            {
                "start_time": 7.8022727,
                "end_time": 8.1204545,
                "pitch": 23,
                "velocity": 101,
                "duration": 0.3181818,
                "tempo": 120.0
            },
            {
                "start_time": 8.4931818,
                "end_time": 8.8068182,
                "pitch": 23,
                "velocity": 101,
                "duration": 0.3136364,
                "tempo": 120.0
            },
            {
                "start_time": 9.1681818,
                "end_time": 9.4886364,
                "pitch": 23,
                "velocity": 101,
                "duration": 0.3204545,
                "tempo": 120.0
            },
            {
                "start_time": 9.8772727,
                "end_time": 10.1840909,
                "pitch": 23,
                "velocity": 101,
                "duration": 0.3068182,
                "tempo": 120.0
            },
            {
                "start_time": 10.5772727,
                "end_time": 10.7090909,
                "pitch": 23,
                "velocity": 101,
                "duration": 0.1318182,
                "tempo": 120.0
            },
            {
                "start_time": 10.7409091,
                "end_time": 10.8909091,
                "pitch": 23,
                "velocity": 101,
                "duration": 0.15,
                "tempo": 120.0
            },
            {
                "start_time": 11.2545455,
                "end_time": 11.5727273,
                "pitch": 23,
                "velocity": 101,
                "duration": 0.3181818,
                "tempo": 120.0
            },
            {
                "start_time": 11.9454545,
                "end_time": 12.2590909,
                "pitch": 23,
                "velocity": 101,
                "duration": 0.3136364,
                "tempo": 120.0
            },
            {
                "start_time": 12.6227273,
                "end_time": 12.9340909,
                "pitch": 23,
                "velocity": 101,
                "duration": 0.3113636,
                "tempo": 120.0
            },
            {
                "start_time": 13.3159091,
                "end_time": 13.6409091,
                "pitch": 23,
                "velocity": 101,
                "duration": 0.325,
                "tempo": 120.0
            },
            {
                "start_time": 14.0227273,
                "end_time": 14.3340909,
                "pitch": 23,
                "velocity": 101,
                "duration": 0.3113636,
                "tempo": 120.0
            },
            {
                "start_time": 14.7,
                "end_time": 15.0181818,
                "pitch": 23,
                "velocity": 101,
                "duration": 0.3181818,
                "tempo": 120.0
            },
            {
                "start_time": 15.3909091,
                "end_time": 15.7022727,
                "pitch": 23,
                "velocity": 101,
                "duration": 0.3113636,
                "tempo": 120.0
            },
            {
                "start_time": 16.0840909,
                "end_time": 16.4068182,
                "pitch": 23,
                "velocity": 101,
                "duration": 0.3227273,
                "tempo": 120.0
            },
            {
                "start_time": 16.7818182,
                "end_time": 17.0931818,
                "pitch": 23,
                "velocity": 101,
                "duration": 0.3113636,
                "tempo": 120.0
            },
            {
                "start_time": 17.4590909,
                "end_time": 17.7772727,
                "pitch": 23,
                "velocity": 101,
                "duration": 0.3181818,
                "tempo": 120.0
            },
            {
                "start_time": 18.15,
                "end_time": 18.4613636,
                "pitch": 23,
                "velocity": 101,
                "duration": 0.3113636,
                "tempo": 120.0
            },
            {
                "start_time": 18.8431818,
                "end_time": 19.15,
                "pitch": 23,
                "velocity": 101,
                "duration": 0.3068182,
                "tempo": 120.0
            },
            {
                "start_time": 19.5431818,
                "end_time": 19.8613636,
                "pitch": 23,
                "velocity": 101,
                "duration": 0.3181818,
                "tempo": 120.0
            },
            {
                "start_time": 20.2340909,
                "end_time": 20.5477273,
                "pitch": 23,
                "velocity": 101,
                "duration": 0.3136364,
                "tempo": 120.0
            },
            {
                "start_time": 20.9090909,
                "end_time": 21.2227273,
                "pitch": 23,
                "velocity": 101,
                "duration": 0.3136364,
                "tempo": 120.0
            },
            {
                "start_time": 21.6022727,
                "end_time": 21.6522727,
                "pitch": 23,
                "velocity": 101,
                "duration": 0.05,
                "tempo": 120.0
            },
            {
                "start_time": 21.6886364,
                "end_time": 21.7045455,
                "pitch": 36,
                "velocity": 127,
                "duration": 0.0159091,
                "tempo": 120.0
            },
            {
                "start_time": 21.7045455,
                "end_time": 21.7386364,
                "pitch": 33,
                "velocity": 127,
                "duration": 0.0340909,
                "tempo": 120.0
            },
            {
                "start_time": 21.775,
                "end_time": 21.7909091,
                "pitch": 32,
                "velocity": 127,
                "duration": 0.0159091,
                "tempo": 120.0
            },
            {
                "start_time": 21.7909091,
                "end_time": 21.825,
                "pitch": 30,
                "velocity": 127,
                "duration": 0.0340909,
                "tempo": 120.0
            },
            {
                "start_time": 21.8613636,
                "end_time": 21.8772727,
                "pitch": 28,
                "velocity": 127,
                "duration": 0.0159091,
                "tempo": 120.0
            },
            {
                "start_time": 21.8772727,
                "end_time": 21.9136364,
                "pitch": 26,
                "velocity": 127,
                "duration": 0.0363636,
                "tempo": 120.0
            },
            {
                "start_time": 22.9863636,
                "end_time": 23.3,
                "pitch": 23,
                "velocity": 101,
                "duration": 0.3136364,
                "tempo": 120.0
            },
            {
                "start_time": 24.3545455,
                "end_time": 24.6681818,
                "pitch": 23,
                "velocity": 101,
                "duration": 0.3136364,
                "tempo": 120.0
            },
            {
                "start_time": 25.7568182,
                "end_time": 26.0681818,
                "pitch": 23,
                "velocity": 101,
                "duration": 0.3113636,
                "tempo": 120.0
            },
            {
                "start_time": 27.1090909,
                "end_time": 27.2590909,
                "pitch": 23,
                "velocity": 101,
                "duration": 0.15,
                "tempo": 120.0
            },
            {
                "start_time": 27.2931818,
                "end_time": 27.4272727,
                "pitch": 23,
                "velocity": 101,
                "duration": 0.1340909,
                "tempo": 120.0
            },
            {
                "start_time": 27.8159091,
                "end_time": 28.1386364,
                "pitch": 23,
                "velocity": 101,
                "duration": 0.3227273,
                "tempo": 120.0
            },
            {
                "start_time": 28.5159091,
                "end_time": 28.8272727,
                "pitch": 23,
                "velocity": 101,
                "duration": 0.3113636,
                "tempo": 120.0
            },
            {
                "start_time": 29.1909091,
                "end_time": 29.5045455,
                "pitch": 23,
                "velocity": 101,
                "duration": 0.3136364,
                "tempo": 120.0
            },
            {
                "start_time": 29.8681818,
                "end_time": 30.1886364,
                "pitch": 23,
                "velocity": 101,
                "duration": 0.3204545,
                "tempo": 120.0
            },
            {
                "start_time": 30.5772727,
                "end_time": 30.8840909,
                "pitch": 23,
                "velocity": 101,
                "duration": 0.3068182,
                "tempo": 120.0
            },
            {
                "start_time": 31.2772727,
                "end_time": 31.5977273,
                "pitch": 23,
                "velocity": 101,
                "duration": 0.3204545,
                "tempo": 120.0
            },
            {
                "start_time": 31.9681818,
                "end_time": 32.2818182,
                "pitch": 23,
                "velocity": 101,
                "duration": 0.3136364,
                "tempo": 120.0
            },
            {
                "start_time": 32.6454545,
                "end_time": 32.6590909,
                "pitch": 40,
                "velocity": 127,
                "duration": 0.0136364,
                "tempo": 120.0
            },
            {
                "start_time": 32.6590909,
                "end_time": 32.6931818,
                "pitch": 38,
                "velocity": 127,
                "duration": 0.0340909,
                "tempo": 120.0
            },
            {
                "start_time": 32.6931818,
                "end_time": 32.7090909,
                "pitch": 35,
                "velocity": 127,
                "duration": 0.0159091,
                "tempo": 120.0
            },
            {
                "start_time": 32.7272727,
                "end_time": 32.7431818,
                "pitch": 36,
                "velocity": 127,
                "duration": 0.0159091,
                "tempo": 120.0
            },
            {
                "start_time": 32.7431818,
                "end_time": 32.775,
                "pitch": 33,
                "velocity": 127,
                "duration": 0.0318182,
                "tempo": 120.0
            },
            {
                "start_time": 32.775,
                "end_time": 32.7931818,
                "pitch": 31,
                "velocity": 127,
                "duration": 0.0181818,
                "tempo": 120.0
            },
            {
                "start_time": 32.825,
                "end_time": 32.8409091,
                "pitch": 32,
                "velocity": 127,
                "duration": 0.0159091,
                "tempo": 120.0
            },
            {
                "start_time": 21.7909091,
                "end_time": 32.8409091,
                "pitch": 42,
                "velocity": 127,
                "duration": 11.05,
                "tempo": 120.0
            },
            {
                "start_time": 32.8409091,
                "end_time": 32.875,
                "pitch": 30,
                "velocity": 127,
                "duration": 0.0340909,
                "tempo": 120.0
            },
            {
                "start_time": 32.9068182,
                "end_time": 32.925,
                "pitch": 28,
                "velocity": 127,
                "duration": 0.0181818,
                "tempo": 120.0
            },
            {
                "start_time": 32.925,
                "end_time": 32.9568182,
                "pitch": 26,
                "velocity": 127,
                "duration": 0.0318182,
                "tempo": 120.0
            },
            {
                "start_time": 32.9931818,
                "end_time": 34.35,
                "pitch": 23,
                "velocity": 101,
                "duration": 1.3568182,
                "tempo": 120.0
            },
            {
                "start_time": 35.0681818,
                "end_time": 35.1159091,
                "pitch": 23,
                "velocity": 101,
                "duration": 0.0477273,
                "tempo": 120.0
            },
            {
                "start_time": 35.15,
                "end_time": 35.2022727,
                "pitch": 23,
                "velocity": 101,
                "duration": 0.0522727,
                "tempo": 120.0
            },
            {
                "start_time": 35.2363636,
                "end_time": 35.2863636,
                "pitch": 23,
                "velocity": 101,
                "duration": 0.05,
                "tempo": 120.0
            },
            {
                "start_time": 35.3204545,
                "end_time": 35.3863636,
                "pitch": 23,
                "velocity": 101,
                "duration": 0.0659091,
                "tempo": 120.0
            },
            {
                "start_time": 35.4068182,
                "end_time": 35.4204545,
                "pitch": 40,
                "velocity": 127,
                "duration": 0.0136364,
                "tempo": 120.0
            },
            {
                "start_time": 35.4204545,
                "end_time": 35.4545455,
                "pitch": 38,
                "velocity": 127,
                "duration": 0.0340909,
                "tempo": 120.0
            },
            {
                "start_time": 35.4545455,
                "end_time": 35.4704545,
                "pitch": 35,
                "velocity": 127,
                "duration": 0.0159091,
                "tempo": 120.0
            },
            {
                "start_time": 35.4886364,
                "end_time": 35.5045455,
                "pitch": 36,
                "velocity": 127,
                "duration": 0.0159091,
                "tempo": 120.0
            },
            {
                "start_time": 35.5045455,
                "end_time": 35.5386364,
                "pitch": 33,
                "velocity": 127,
                "duration": 0.0340909,
                "tempo": 120.0
            },
            {
                "start_time": 35.5386364,
                "end_time": 35.5568182,
                "pitch": 31,
                "velocity": 127,
                "duration": 0.0181818,
                "tempo": 120.0
            },
            {
                "start_time": 35.5909091,
                "end_time": 35.6068182,
                "pitch": 32,
                "velocity": 127,
                "duration": 0.0159091,
                "tempo": 120.0
            },
            {
                "start_time": 32.8409091,
                "end_time": 35.6068182,
                "pitch": 42,
                "velocity": 127,
                "duration": 2.7659091,
                "tempo": 120.0
            },
            {
                "start_time": 35.6068182,
                "end_time": 35.6409091,
                "pitch": 30,
                "velocity": 127,
                "duration": 0.0340909,
                "tempo": 120.0
            },
            {
                "start_time": 35.675,
                "end_time": 35.6909091,
                "pitch": 28,
                "velocity": 127,
                "duration": 0.0159091,
                "tempo": 120.0
            },
            {
                "start_time": 35.6909091,
                "end_time": 35.725,
                "pitch": 26,
                "velocity": 127,
                "duration": 0.0340909,
                "tempo": 120.0
            },
            {
                "start_time": 36.0977273,
                "end_time": 36.4090909,
                "pitch": 23,
                "velocity": 101,
                "duration": 0.3113636,
                "tempo": 120.0
            },
            {
                "start_time": 36.7886364,
                "end_time": 37.1136364,
                "pitch": 23,
                "velocity": 101,
                "duration": 0.325,
                "tempo": 120.0
            },
            {
                "start_time": 37.4886364,
                "end_time": 37.8090909,
                "pitch": 23,
                "velocity": 101,
                "duration": 0.3204545,
                "tempo": 120.0
            },
            {
                "start_time": 38.1818182,
                "end_time": 38.4931818,
                "pitch": 23,
                "velocity": 101,
                "duration": 0.3113636,
                "tempo": 120.0
            },
            {
                "start_time": 38.8568182,
                "end_time": 39.1772727,
                "pitch": 23,
                "velocity": 101,
                "duration": 0.3204545,
                "tempo": 120.0
            },
            {
                "start_time": 39.5659091,
                "end_time": 39.8909091,
                "pitch": 23,
                "velocity": 101,
                "duration": 0.325,
                "tempo": 120.0
            },
            {
                "start_time": 40.2659091,
                "end_time": 40.5772727,
                "pitch": 23,
                "velocity": 101,
                "duration": 0.3113636,
                "tempo": 120.0
            },
            {
                "start_time": 40.9431818,
                "end_time": 41.2613636,
                "pitch": 23,
                "velocity": 101,
                "duration": 0.3181818,
                "tempo": 120.0
            },
            {
                "start_time": 41.6340909,
                "end_time": 41.9454545,
                "pitch": 23,
                "velocity": 101,
                "duration": 0.3113636,
                "tempo": 120.0
            },
            {
                "start_time": 42.3272727,
                "end_time": 42.6340909,
                "pitch": 23,
                "velocity": 101,
                "duration": 0.3068182,
                "tempo": 120.0
            },
            {
                "start_time": 43.0272727,
                "end_time": 43.3386364,
                "pitch": 23,
                "velocity": 101,
                "duration": 0.3113636,
                "tempo": 120.0
            },
            {
                "start_time": 43.7022727,
                "end_time": 44.0227273,
                "pitch": 23,
                "velocity": 101,
                "duration": 0.3204545,
                "tempo": 120.0
            },
            {
                "start_time": 44.3931818,
                "end_time": 44.7068182,
                "pitch": 23,
                "velocity": 101,
                "duration": 0.3136364,
                "tempo": 120.0
            },
            {
                "start_time": 45.0863636,
                "end_time": 45.3931818,
                "pitch": 23,
                "velocity": 101,
                "duration": 0.3068182,
                "tempo": 120.0
            },
            {
                "start_time": 45.6,
                "end_time": 45.6659091,
                "pitch": 23,
                "velocity": 101,
                "duration": 0.0659091,
                "tempo": 120.0
            },
            {
                "start_time": 45.7,
                "end_time": 45.7522727,
                "pitch": 23,
                "velocity": 101,
                "duration": 0.0522727,
                "tempo": 120.0
            },
            {
                "start_time": 45.7863636,
                "end_time": 46.1068182,
                "pitch": 23,
                "velocity": 101,
                "duration": 0.3204545,
                "tempo": 120.0
            },
            {
                "start_time": 46.3090909,
                "end_time": 46.325,
                "pitch": 36,
                "velocity": 127,
                "duration": 0.0159091,
                "tempo": 120.0
            },
            {
                "start_time": 46.325,
                "end_time": 46.3590909,
                "pitch": 33,
                "velocity": 127,
                "duration": 0.0340909,
                "tempo": 120.0
            },
            {
                "start_time": 46.3931818,
                "end_time": 46.4090909,
                "pitch": 36,
                "velocity": 127,
                "duration": 0.0159091,
                "tempo": 120.0
            },
            {
                "start_time": 46.4090909,
                "end_time": 46.4431818,
                "pitch": 33,
                "velocity": 127,
                "duration": 0.0340909,
                "tempo": 120.0
            },
            {
                "start_time": 46.4772727,
                "end_time": 46.4931818,
                "pitch": 32,
                "velocity": 127,
                "duration": 0.0159091,
                "tempo": 120.0
            },
            {
                "start_time": 35.6068182,
                "end_time": 46.4931818,
                "pitch": 42,
                "velocity": 127,
                "duration": 10.8863636,
                "tempo": 120.0
            },
            {
                "start_time": 46.4931818,
                "end_time": 46.5272727,
                "pitch": 30,
                "velocity": 127,
                "duration": 0.0340909,
                "tempo": 120.0
            },
            {
                "start_time": 46.5613636,
                "end_time": 46.5772727,
                "pitch": 32,
                "velocity": 127,
                "duration": 0.0159091,
                "tempo": 120.0
            },
            {
                "start_time": 46.4931818,
                "end_time": 46.5772727,
                "pitch": 42,
                "velocity": 127,
                "duration": 0.0840909,
                "tempo": 120.0
            },
            {
                "start_time": 46.5772727,
                "end_time": 46.6090909,
                "pitch": 30,
                "velocity": 127,
                "duration": 0.0318182,
                "tempo": 120.0
            },
            {
                "start_time": 46.6090909,
                "end_time": 46.625,
                "pitch": 27,
                "velocity": 127,
                "duration": 0.0159091,
                "tempo": 120.0
            },
            {
                "start_time": 46.6431818,
                "end_time": 46.6590909,
                "pitch": 28,
                "velocity": 127,
                "duration": 0.0159091,
                "tempo": 120.0
            },
            {
                "start_time": 46.6590909,
                "end_time": 46.6909091,
                "pitch": 26,
                "velocity": 127,
                "duration": 0.0318182,
                "tempo": 120.0
            },
            {
                "start_time": 46.6909091,
                "end_time": 46.7090909,
                "pitch": 23,
                "velocity": 127,
                "duration": 0.0181818,
                "tempo": 120.0
            },
            {
                "start_time": 46.725,
                "end_time": 46.7409091,
                "pitch": 28,
                "velocity": 127,
                "duration": 0.0159091,
                "tempo": 120.0
            },
            {
                "start_time": 46.7409091,
                "end_time": 46.775,
                "pitch": 26,
                "velocity": 127,
                "duration": 0.0340909,
                "tempo": 120.0
            },
            {
                "start_time": 46.775,
                "end_time": 46.7909091,
                "pitch": 23,
                "velocity": 127,
                "duration": 0.0159091,
                "tempo": 120.0
            },
            {
                "start_time": 47.1545455,
                "end_time": 47.4727273,
                "pitch": 23,
                "velocity": 101,
                "duration": 0.3181818,
                "tempo": 120.0
            },
            {
                "start_time": 47.8454545,
                "end_time": 48.1590909,
                "pitch": 23,
                "velocity": 101,
                "duration": 0.3136364,
                "tempo": 120.0
            },
            {
                "start_time": 48.5386364,
                "end_time": 48.8613636,
                "pitch": 23,
                "velocity": 101,
                "duration": 0.3227273,
                "tempo": 120.0
            },
            {
                "start_time": 49.2386364,
                "end_time": 49.5522727,
                "pitch": 23,
                "velocity": 101,
                "duration": 0.3136364,
                "tempo": 120.0
            },
            {
                "start_time": 49.9136364,
                "end_time": 50.2340909,
                "pitch": 23,
                "velocity": 101,
                "duration": 0.3204545,
                "tempo": 120.0
            },
            {
                "start_time": 50.6068182,
                "end_time": 50.9181818,
                "pitch": 23,
                "velocity": 101,
                "duration": 0.3113636,
                "tempo": 120.0
            },
            {
                "start_time": 51.2977273,
                "end_time": 51.6227273,
                "pitch": 23,
                "velocity": 101,
                "duration": 0.325,
                "tempo": 120.0
            },
            {
                "start_time": 51.9977273,
                "end_time": 52.0477273,
                "pitch": 23,
                "velocity": 101,
                "duration": 0.05,
                "tempo": 120.0
            },
            {
                "start_time": 52.0818182,
                "end_time": 52.1318182,
                "pitch": 23,
                "velocity": 101,
                "duration": 0.05,
                "tempo": 120.0
            },
            {
                "start_time": 52.1681818,
                "end_time": 52.2340909,
                "pitch": 23,
                "velocity": 101,
                "duration": 0.0659091,
                "tempo": 120.0
            },
            {
                "start_time": 52.25,
                "end_time": 52.3181818,
                "pitch": 23,
                "velocity": 101,
                "duration": 0.0681818,
                "tempo": 120.0
            }
        ]
    }
}