{
    "mood": "happy",
    "instruments": {
        "Electric Piano 1": [
            {
                "start_time": 0.7022727,
                "end_time": 0.875,
                "pitch": 62,
                "velocity": 80,
                "duration": 0.1727273,
                "tempo": 120.0
            },
            {
                "start_time": 0.8772727,
                "end_time": 1.0659091,
                "pitch": 65,
                "velocity": 80,
                "duration": 0.1886364,
                "tempo": 120.0
            },
            {
                "start_time": 1.0659091,
                "end_time": 2.325,
                "pitch": 72,
                "velocity": 80,
                "duration": 1.2590909,
                "tempo": 120.0
            },
            {
                "start_time": 2.325,
                "end_time": 2.3568182,
                "pitch": 73,
                "velocity": 80,
                "duration": 0.0318182,
                "tempo": 120.0
            },
            {
                "start_time": 2.3568182,
                "end_time": 2.4909091,
                "pitch": 74,
                "velocity": 80,
                "duration": 0.1340909,
                "tempo": 120.0
            },
            {
                "start_time": 2.4909091,
                "end_time": 3.7363636,
                "pitch": 72,
                "velocity": 80,
                "duration": 1.2454545,
                "tempo": 120.0
            },
            {
                "start_time": 3.7363636,
                "end_time": 3.7681818,
                "pitch": 75,
                "velocity": 80,
                "duration": 0.0318182,
                "tempo": 120.0
            },
            {
                "start_time": 3.7681818,
                "end_time": 3.9136364,
                "pitch": 74,
                "velocity": 80,
                "duration": 0.1454545,
                "tempo": 120.0
            },
            {
                "start_time": 3.9136364,
                "end_time": 4.4545455,
                "pitch": 76,
                "velocity": 80,
                "duration": 0.5409091,
                "tempo": 120.0
            },
            {
                "start_time": 4.4545455,
                "end_time": 4.8113636,
                "pitch": 72,
                "velocity": 80,
                "duration": 0.3568182,
                "tempo": 120.0
            },
            {
                "start_time": 4.8113636,
                "end_time": 5.1636364,
                "pitch": 69,
                "velocity": 80,
                "duration": 0.3522727,
                "tempo": 120.0
            },
            {
                "start_time": 5.1636364,
                "end_time": 5.1954545,
                "pitch": 75,
                "velocity": 80,
                "duration": 0.0318182,
                "tempo": 120.0
            },
            {
                "start_time": 5.1954545,
                "end_time": 5.3477273,
                "pitch": 76,
                "velocity": 80,
                "duration": 0.1522727,
                "tempo": 120.0
            },
            {
                "start_time": 5.3477273,
                "end_time": 6.4022727,
                "pitch": 74,
                "velocity": 80,
                "duration": 1.0545455,
                "tempo": 120.0
            },
            {
                "start_time": 6.4045455,
                "end_time": 6.5818182,
                "pitch": 62,
                "velocity": 80,
                "duration": 0.1772727,
                "tempo": 120.0
            },
            {
                "start_time": 6.5818182,
                "end_time": 6.7545455,
                "pitch": 65,
                "velocity": 80,
                "duration": 0.1727273,
                "tempo": 120.0
            },
            {
                "start_time": 6.7545455,
                "end_time": 8.0022727,
                "pitch": 72,
                "velocity": 80,
                "duration": 1.2477273,
                "tempo": 120.0
            },
            {
                "start_time": 8.0022727,
                "end_time": 8.05,
                "pitch": 73,
                "velocity": 80,
                "duration": 0.0477273,
                "tempo": 120.0
            },
            {
                "start_time": 8.0522727,
                "end_time": 8.1818182,
                "pitch": 74,
                "velocity": 80,
                "duration": 0.1295455,
                "tempo": 120.0
            },
            {
                "start_time": 8.1818182,
                "end_time": 9.4318182,
                "pitch": 71,
                "velocity": 80,
                "duration": 1.25,
                "tempo": 120.0
            },
            {
                "start_time": 9.4318182,
                "end_time": 9.4659091,
                "pitch": 73,
                "velocity": 80,
                "duration": 0.0340909,
                "tempo": 120.0
            },
            {
                "start_time": 9.4659091,
                "end_time": 9.6159091,
                "pitch": 74,
                "velocity": 80,
                "duration": 0.15,
                "tempo": 120.0
            },
            {
                "start_time": 9.6159091,
                "end_time": 11.0409091,
                "pitch": 69,
                "velocity": 80,
                "duration": 1.425,
                "tempo": 120.0
            },
            {
                "start_time": 11.0409091,
                "end_time": 11.1590909,
                "pitch": 67,
                "velocity": 80,
                "duration": 0.1181818,
                "tempo": 120.0
            },
            {
                "start_time": 11.1590909,
                "end_time": 11.2136364,
                "pitch": 67,
                "velocity": 80,
                "duration": 0.0545455,
                "tempo": 120.0
            },
            {
                "start_time": 11.2136364,
                "end_time": 11.2931818,
                "pitch": 69,
                "velocity": 80,
                "duration": 0.0795455,
                "tempo": 120.0
            },
            {
                "start_time": 11.3909091,
                "end_time": 12.4068182,
                "pitch": 69,
                "velocity": 80,
                "duration": 1.0159091,
                "tempo": 120.0
            },
            {
                "start_time": 11.1590909,
                "end_time": 12.4068182,
                "pitch": 79,
                "velocity": 80,
                "duration": 1.2477273,
                "tempo": 120.0
            },
            {
                "start_time": 12.4068182,
                "end_time": 12.5272727,
                "pitch": 67,
                "velocity": 80,
                "duration": 0.1204545,
                "tempo": 120.0
            },
            {
                "start_time": 12.4068182,
                "end_time": 12.5272727,
                "pitch": 67,
                "velocity": 80,
                "duration": 0.1204545,
                "tempo": 120.0
            },
            {
                "start_time": 12.5272727,
                "end_time": 12.6136364,
                "pitch": 65,
                "velocity": 80,
                "duration": 0.0863636,
                "tempo": 120.0
            },
            {
                "start_time": 12.6136364,
                "end_time": 12.65,
                "pitch": 62,
                "velocity": 80,
                "duration": 0.0363636,
                "tempo": 120.0
            },
            {
                "start_time": 12.6522727,
                "end_time": 12.6818182,
                "pitch": 75,
                "velocity": 80,
                "duration": 0.0295455,
                "tempo": 120.0
            },
            {
                "start_time": 12.6818182,
                "end_time": 12.9909091,
                "pitch": 76,
                "velocity": 80,
                "duration": 0.3090909,
                "tempo": 120.0
            },
            {
                "start_time": 12.9909091,
                "end_time": 13.3477273,
                "pitch": 72,
                "velocity": 80,
                "duration": 0.3568182,
                "tempo": 120.0
            },
            {
                "start_time": 13.35,
                "end_time": 13.7,
                "pitch": 69,
                "velocity": 80,
                "duration": 0.35,
                "tempo": 120.0
            },
            {
                "start_time": 13.7,
                "end_time": 13.8795455,
                "pitch": 76,
                "velocity": 80,
                "duration": 0.1795455,
                "tempo": 120.0
            },
            {
                "start_time": 13.8795455,
                "end_time": 15.1363636,
                "pitch": 74,
                "velocity": 80,
                "duration": 1.2568182,
                "tempo": 120.0
            },
            {
                "start_time": 15.1363636,
                "end_time": 15.3136364,
                "pitch": 71,
                "velocity": 80,
                "duration": 0.1772727,
                "tempo": 120.0
            },
            {
                "start_time": 15.3159091,
                "end_time": 15.4772727,
                "pitch": 72,
                "velocity": 80,
                "duration": 0.1613636,
                "tempo": 120.0
            },
            {
                "start_time": 15.4795455,
                "end_time": 16.375,
                "pitch": 74,
                "velocity": 80,
                "duration": 0.8954545,
                "tempo": 120.0
            },
            {
                "start_time": 16.375,
                "end_time": 16.8204545,
                "pitch": 76,
                "velocity": 80,
                "duration": 0.4454545,
                "tempo": 120.0
            },
            {
                "start_time": 16.8204545,
                "end_time": 16.9045455,
                "pitch": 74,
                "velocity": 80,
                "duration": 0.0840909,
                "tempo": 120.0
            },
            {
                "start_time": 16.9045455,
                "end_time": 18.3227273,
                "pitch": 72,
                "velocity": 80,
                "duration": 1.4181818,
                "tempo": 120.0
            },
            {
                "start_time": 18.3227273,
                "end_time": 18.3568182,
                "pitch": 75,
                "velocity": 80,
                "duration": 0.0340909,
                "tempo": 120.0
            },
            {
                "start_time": 18.3568182,
                "end_time": 18.6840909,
                "pitch": 76,
                "velocity": 80,
                "duration": 0.3272727,
                "tempo": 120.0
            },
            {
                "start_time": 18.6840909,
                "end_time": 19.0409091,
                "pitch": 72,
                "velocity": 80,
                "duration": 0.3568182,
                "tempo": 120.0
            },
            {
                "start_time": 19.0409091,
                "end_time": 19.4,
                "pitch": 69,
                "velocity": 80,
                "duration": 0.3590909,
                "tempo": 120.0
            },
            {
                "start_time": 19.4022727,
                "end_time": 19.5795455,
                "pitch": 76,
                "velocity": 80,
                "duration": 0.1772727,
                "tempo": 120.0
            },
            {
                "start_time": 19.5818182,
                "end_time": 20.6409091,
                "pitch": 74,
                "velocity": 80,
                "duration": 1.0590909,
                "tempo": 120.0
            },
            {
                "start_time": 20.6431818,
                "end_time": 20.8204545,
                "pitch": 71,
                "velocity": 80,
                "duration": 0.1772727,
                "tempo": 120.0
            },
            {
                "start_time": 20.8204545,
                "end_time": 21.0045455,
                "pitch": 71,
                "velocity": 80,
                "duration": 0.1840909,
                "tempo": 120.0
            },
            {
                "start_time": 21.0045455,
                "end_time": 21.1727273,
                "pitch": 72,
                "velocity": 80,
                "duration": 0.1681818,
                "tempo": 120.0
            },
            {
                "start_time": 21.1727273,
                "end_time": 22.0681818,
                "pitch": 74,
                "velocity": 80,
                "duration": 0.8954545,
                "tempo": 120.0
            },
            {
                "start_time": 22.2477273,
                "end_time": 22.3659091,
                "pitch": 67,
                "velocity": 80,
                "duration": 0.1181818,
                "tempo": 120.0
            },
            {
                "start_time": 12.4068182,
                "end_time": 22.3681818,
                "pitch": 79,
                "velocity": 80,
                "duration": 9.9613636,
                "tempo": 120.0
            },
            {
                "start_time": 22.3659091,
                "end_time": 22.3681818,
                "pitch": 79,
                "velocity": 80,
                "duration": 0.0022727,
                "tempo": 120.0
            },
            {
                "start_time": 22.3681818,
                "end_time": 22.6090909,
                "pitch": 67,
                "velocity": 80,
                "duration": 0.2409091,
                "tempo": 120.0
            },
            {
                "start_time": 22.6090909,
                "end_time": 24.0295455,
                "pitch": 69,
                "velocity": 80,
                "duration": 1.4204545,
                "tempo": 120.0
            },
            {
                "start_time": 24.0295455,
                "end_time": 24.1954545,
                "pitch": 69,
                "velocity": 51,
                "duration": 0.1659091,
                "tempo": 120.0
            },
            {
                "start_time": 24.1954545,
                "end_time": 24.3795455,
                "pitch": 69,
                "velocity": 51,
                "duration": 0.1840909,
                "tempo": 120.0
            },
            {
                "start_time": 24.3795455,
                "end_time": 24.7477273,
                "pitch": 76,
                "velocity": 51,
                "duration": 0.3681818,
                "tempo": 120.0
            },
            {
                "start_time": 24.75,
                "end_time": 24.9159091,
                "pitch": 76,
                "velocity": 51,
                "duration": 0.1659091,
                "tempo": 120.0
            },
            {
                "start_time": 24.9159091,
                "end_time": 25.1,
                "pitch": 74,
                "velocity": 51,
                "duration": 0.1840909,
                "tempo": 120.0
            },
            {
                "start_time": 25.1,
                "end_time": 25.2795455,
                "pitch": 72,
                "velocity": 51,
                "duration": 0.1795455,
                "tempo": 120.0
            },
            {
                "start_time": 25.2795455,
                "end_time": 25.6204545,
                "pitch": 71,
                "velocity": 51,
                "duration": 0.3409091,
                "tempo": 120.0
            },
            {
                "start_time": 25.6204545,
                "end_time": 25.8,
                "pitch": 71,
                "velocity": 51,
                "duration": 0.1795455,
                "tempo": 120.0
            },
            {
                "start_time": 25.8,
                "end_time": 25.9886364,
                "pitch": 71,
                "velocity": 51,
                "duration": 0.1886364,
                "tempo": 120.0
            },
            {
                "start_time": 25.9886364,
                "end_time": 26.1590909,
                "pitch": 72,
                "velocity": 51,
                "duration": 0.1704545,
                "tempo": 120.0
            },
            {
                "start_time": 26.1613636,
                "end_time": 26.3386364,
                "pitch": 74,
                "velocity": 51,
                "duration": 0.1772727,
                "tempo": 120.0
            },
            {
                "start_time": 26.3386364,
                "end_time": 26.5181818,
                "pitch": 74,
                "velocity": 51,
                "duration": 0.1795455,
                "tempo": 120.0
            },
            {
                "start_time": 26.5181818,
                "end_time": 26.6886364,
                "pitch": 72,
                "velocity": 51,
                "duration": 0.1704545,
                "tempo": 120.0
            },
            {
                "start_time": 26.6909091,
                "end_time": 27.0568182,
                "pitch": 71,
                "velocity": 51,
                "duration": 0.3659091,
                "tempo": 120.0
            },
            {
                "start_time": 27.0568182,
                "end_time": 27.2363636,
                "pitch": 71,
                "velocity": 51,
                "duration": 0.1795455,
                "tempo": 120.0
            },
            {
                "start_time": 27.2363636,
                "end_time": 27.5954545,
                "pitch": 79,
                "velocity": 51,
                "duration": 0.3590909,
                "tempo": 120.0
            },
            {
                "start_time": 27.5977273,
                "end_time": 27.775,
                "pitch": 79,
                "velocity": 51,
                "duration": 0.1772727,
                "tempo": 120.0
            },
            {
                "start_time": 27.775,
                "end_time": 27.9386364,
                "pitch": 77,
                "velocity": 51,
                "duration": 0.1636364,
                "tempo": 120.0
            },
            {
                "start_time": 27.9386364,
                "end_time": 28.1159091,
                "pitch": 76,
                "velocity": 51,
                "duration": 0.1772727,
                "tempo": 120.0
            },
            {
                "start_time": 28.1181818,
                "end_time": 28.4795455,
                "pitch": 74,
                "velocity": 51,
                "duration": 0.3613636,
                "tempo": 120.0
            },
            {
                "start_time": 28.4795455,
                "end_time": 28.7431818,
                "pitch": 76,
                "velocity": 51,
                "duration": 0.2636364,
                "tempo": 120.0
            },
            {
                "start_time": 28.7431818,
                "end_time": 28.8272727,
                "pitch": 74,
                "velocity": 51,
                "duration": 0.0840909,
                "tempo": 120.0
            },
            {
                "start_time": 28.8272727,
                "end_time": 29.1772727,
                "pitch": 72,
                "velocity": 51,
                "duration": 0.35,
                "tempo": 120.0
            },
            {
                "start_time": 29.1772727,
                "end_time": 29.3659091,
                "pitch": 72,
                "velocity": 51,
                "duration": 0.1886364,
                "tempo": 120.0
            },
            {
                "start_time": 29.3659091,
                "end_time": 29.5454545,
                "pitch": 72,
                "velocity": 51,
                "duration": 0.1795455,
                "tempo": 120.0
            },
            {
                "start_time": 29.5454545,
                "end_time": 29.7227273,
                "pitch": 74,
                "velocity": 51,
                "duration": 0.1772727,
                "tempo": 120.0
            },
            {
                "start_time": 29.7227273,
                "end_time": 29.8954545,
                "pitch": 74,
                "velocity": 51,
                "duration": 0.1727273,
                "tempo": 120.0
            },
            {
                "start_time": 29.8954545,
                "end_time": 30.1477273,
                "pitch": 83,
                "velocity": 51,
                "duration": 0.2522727,
                "tempo": 120.0
            },
            {
                "start_time": 30.1477273,
                "end_time": 30.2136364,
                "pitch": 81,
                "velocity": 51,
                "duration": 0.0659091,
                "tempo": 120.0
            },
            {
                "start_time": 30.2136364,
                "end_time": 30.2636364,
                "pitch": 79,
                "velocity": 51,
                "duration": 0.05,
                "tempo": 120.0
            },
            {
                "start_time": 30.2636364,
                "end_time": 30.375,
                "pitch": 79,
                "velocity": 51,
                "duration": 0.1113636,
                "tempo": 120.0
            },
            {
                "start_time": 30.2136364,
                "end_time": 30.375,
                "pitch": 91,
                "velocity": 51,
                "duration": 0.1613636,
                "tempo": 120.0
            },
            {
                "start_time": 30.375,
                "end_time": 30.5545455,
                "pitch": 79,
                "velocity": 51,
                "duration": 0.1795455,
                "tempo": 120.0
            },
            {
                "start_time": 30.375,
                "end_time": 30.5545455,
                "pitch": 91,
                "velocity": 51,
                "duration": 0.1795455,
                "tempo": 120.0
            },
            {
                "start_time": 30.5545455,
                "end_time": 30.6045455,
                "pitch": 79,
                "velocity": 51,
                "duration": 0.05,
                "tempo": 120.0
            },
            {
                "start_time": 30.6045455,
                "end_time": 30.7840909,
                "pitch": 74,
                "velocity": 51,
                "duration": 0.1795455,
                "tempo": 120.0
            },
            {
                "start_time": 30.7840909,
                "end_time": 30.9704545,
                "pitch": 74,
                "velocity": 51,
                "duration": 0.1863636,
                "tempo": 120.0
            },
            {
                "start_time": 30.9727273,
                "end_time": 31.1431818,
                "pitch": 76,
                "velocity": 51,
                "duration": 0.1704545,
                "tempo": 120.0
            },
            {
                "start_time": 31.1431818,
                "end_time": 31.3227273,
                "pitch": 74,
                "velocity": 51,
                "duration": 0.1795455,
                "tempo": 120.0
            },
            {
                "start_time": 31.3227273,
                "end_time": 31.5681818,
                "pitch": 83,
                "velocity": 51,
                "duration": 0.2454545,
                "tempo": 120.0
            },
            {
                "start_time": 31.5681818,
                "end_time": 31.6181818,
                "pitch": 81,
                "velocity": 51,
                "duration": 0.05,
                "tempo": 120.0
            },
            {
                "start_time": 30.5545455,
                "end_time": 31.6181818,
                "pitch": 91,
                "velocity": 51,
                "duration": 1.0636364,
                "tempo": 120.0
            },
            {
                "start_time": 31.6181818,
                "end_time": 31.6681818,
                "pitch": 79,
                "velocity": 51,
                "duration": 0.05,
                "tempo": 120.0
            },
            {
                "start_time": 31.6704545,
                "end_time": 31.8022727,
                "pitch": 79,
                "velocity": 51,
                "duration": 0.1318182,
                "tempo": 120.0
            },
            {
                "start_time": 31.6181818,
                "end_time": 31.8022727,
                "pitch": 91,
                "velocity": 51,
                "duration": 0.1840909,
                "tempo": 120.0
            },
            {
                "start_time": 31.8022727,
                "end_time": 31.9818182,
                "pitch": 79,
                "velocity": 51,
                "duration": 0.1795455,
                "tempo": 120.0
            },
            {
                "start_time": 31.8022727,
                "end_time": 31.9818182,
                "pitch": 91,
                "velocity": 51,
                "duration": 0.1795455,
                "tempo": 120.0
            },
            {
                "start_time": 31.9818182,
                "end_time": 32.0318182,
                "pitch": 79,
                "velocity": 51,
                "duration": 0.05,
                "tempo": 120.0
            },
            {
                "start_time": 32.0318182,
                "end_time": 32.2113636,
                "pitch": 74,
                "velocity": 51,
                "duration": 0.1795455,
                "tempo": 120.0
            },
            {
                "start_time": 32.2113636,
                "end_time": 32.3818182,
                "pitch": 74,
                "velocity": 51,
                "duration": 0.1704545,
                "tempo": 120.0
            },
            {
                "start_time": 32.3818182,
                "end_time": 32.5704545,
                "pitch": 76,
                "velocity": 51,
                "duration": 0.1886364,
                "tempo": 120.0
            },
            {
                "start_time": 32.5704545,
                "end_time": 32.75,
                "pitch": 74,
                "velocity": 51,
                "duration": 0.1795455,
                "tempo": 120.0
            },
            {
                "start_time": 32.75,
                "end_time": 32.9931818,
                "pitch": 83,
                "velocity": 51,
                "duration": 0.2431818,
                "tempo": 120.0
            },
            {
                "start_time": 32.9931818,
                "end_time": 33.0409091,
                "pitch": 81,
                "velocity": 51,
                "duration": 0.0477273,
                "tempo": 120.0
            },
            {
                "start_time": 31.9818182,
                "end_time": 33.0409091,
                "pitch": 91,
                "velocity": 51,
                "duration": 1.0590909,
                "tempo": 120.0
            },
            {
                "start_time": 33.0409091,
                "end_time": 33.0909091,
                "pitch": 79,
                "velocity": 51,
                "duration": 0.05,
                "tempo": 120.0
            },
            {
                "start_time": 33.0931818,
                "end_time": 33.2204545,
                "pitch": 79,
                "velocity": 51,
                "duration": 0.1272727,
                "tempo": 120.0
            },
            {
                "start_time": 33.0409091,
                "end_time": 33.2204545,
                "pitch": 91,
                "velocity": 51,
                "duration": 0.1795455,
                "tempo": 120.0
            },
            {
                "start_time": 33.2204545,
                "end_time": 33.3886364,
                "pitch": 79,
                "velocity": 51,
                "duration": 0.1681818,
                "tempo": 120.0
            },
            {
                "start_time": 33.2204545,
                "end_time": 33.3886364,
                "pitch": 91,
                "velocity": 51,
                "duration": 0.1681818,
                "tempo": 120.0
            },
            {
                "start_time": 33.3886364,
                "end_time": 33.4590909,
                "pitch": 79,
                "velocity": 51,
                "duration": 0.0704545,
                "tempo": 120.0
            },
            {
                "start_time": 33.4590909,
                "end_time": 33.6318182,
                "pitch": 74,
                "velocity": 51,
                "duration": 0.1727273,
                "tempo": 120.0
            },
            {
                "start_time": 33.6318182,
                "end_time": 33.8090909,
                "pitch": 74,
                "velocity": 51,
                "duration": 0.1772727,
                "tempo": 120.0
            },
            {
                "start_time": 33.8090909,
                "end_time": 33.9886364,
                "pitch": 76,
                "velocity": 51,
                "duration": 0.1795455,
                "tempo": 120.0
            },
            {
                "start_time": 33.9886364,
                "end_time": 34.5272727,
                "pitch": 83,
                "velocity": 51,
                "duration": 0.5386364,
                "tempo": 120.0
            },
            {
                "start_time": 34.5272727,
                "end_time": 34.6090909,
                "pitch": 84,
                "velocity": 51,
                "duration": 0.0818182,
                "tempo": 120.0
            },
            {
                "start_time": 34.6090909,
                "end_time": 34.7068182,
                "pitch": 83,
                "velocity": 51,
                "duration": 0.0977273,
                "tempo": 120.0
            },
            {
                "start_time": 34.7068182,
                "end_time": 35.4113636,
                "pitch": 81,
                "velocity": 51,
                "duration": 0.7045455,
                "tempo": 120.0
            },
            {
                "start_time": 35.4113636,
                "end_time": 35.5886364,
                "pitch": 81,
                "velocity": 51,
                "duration": 0.1772727,
                "tempo": 120.0
            },
            {
                "start_time": 35.5886364,
                "end_time": 35.7681818,
                "pitch": 81,
                "velocity": 51,
                "duration": 0.1795455,
                "tempo": 120.0
            },
            {
                "start_time": 35.7681818,
                "end_time": 36.1204545,
                "pitch": 88,
                "velocity": 51,
                "duration": 0.3522727,
                "tempo": 120.0
            },
            {
                "start_time": 36.1204545,
                "end_time": 36.2977273,
                "pitch": 88,
                "velocity": 51,
                "duration": 0.1772727,
                "tempo": 120.0
            },
            {
                "start_time": 36.2977273,
                "end_time": 36.4772727,
                "pitch": 86,
                "velocity": 51,
                "duration": 0.1795455,
                "tempo": 120.0
            },
            {
                "start_time": 36.4772727,
                "end_time": 36.65,
                "pitch": 84,
                "velocity": 51,
                "duration": 0.1727273,
                "tempo": 120.0
            },
            {
                "start_time": 36.65,
                "end_time": 37.0181818,
                "pitch": 83,
                "velocity": 51,
                "duration": 0.3681818,
                "tempo": 120.0
            },
            {
                "start_time": 37.0181818,
                "end_time": 37.1954545,
                "pitch": 83,
                "velocity": 51,
                "duration": 0.1772727,
                "tempo": 120.0
            },
            {
                "start_time": 37.1954545,
                "end_time": 37.3681818,
                "pitch": 83,
                "velocity": 51,
                "duration": 0.1727273,
                "tempo": 120.0
            },
            {
                "start_time": 37.3681818,
                "end_time": 37.5568182,
                "pitch": 84,
                "velocity": 51,
                "duration": 0.1886364,
                "tempo": 120.0
            },
            {
                "start_time": 37.5568182,
                "end_time": 37.7340909,
                "pitch": 86,
                "velocity": 51,
                "duration": 0.1772727,
                "tempo": 120.0
            },
            {
                "start_time": 37.7340909,
                "end_time": 37.8977273,
                "pitch": 86,
                "velocity": 51,
                "duration": 0.1636364,
                "tempo": 120.0
            },
            {
                "start_time": 37.8977273,
                "end_time": 38.0772727,
                "pitch": 84,
                "velocity": 51,
                "duration": 0.1795455,
                "tempo": 120.0
            },
            {
                "start_time": 38.0772727,
                "end_time": 38.4409091,
                "pitch": 83,
                "velocity": 51,
                "duration": 0.3636364,
                "tempo": 120.0
            },
            {
                "start_time": 38.4409091,
                "end_time": 38.6068182,
                "pitch": 83,
                "velocity": 51,
                "duration": 0.1659091,
                "tempo": 120.0
            },
            {
                "start_time": 33.3886364,
                "end_time": 38.9772727,
                "pitch": 91,
                "velocity": 51,
                "duration": 5.5886364,
                "tempo": 120.0
            },
            {
                "start_time": 38.6090909,
                "end_time": 38.9772727,
                "pitch": 91,
                "velocity": 51,
                "duration": 0.3681818,
                "tempo": 120.0
            },
            {
                "start_time": 38.9772727,
                "end_time": 39.1431818,
                "pitch": 91,
                "velocity": 51,
                "duration": 0.1659091,
                "tempo": 120.0
            },
            {
                "start_time": 39.1431818,
                "end_time": 39.3272727,
                "pitch": 89,
                "velocity": 51,
                "duration": 0.1840909,
                "tempo": 120.0
            },
            {
                "start_time": 39.3272727,
                "end_time": 39.5068182,
                "pitch": 88,
                "velocity": 51,
                "duration": 0.1795455,
                "tempo": 120.0
            },
            {
                "start_time": 39.5068182,
                "end_time": 39.8568182,
                "pitch": 86,
                "velocity": 51,
                "duration": 0.35,
                "tempo": 120.0
            },
            {
                "start_time": 39.8568182,
                "end_time": 40.125,
                "pitch": 88,
                "velocity": 51,
                "duration": 0.2681818,
                "tempo": 120.0
            },
            {
                "start_time": 40.125,
                "end_time": 40.225,
                "pitch": 86,
                "velocity": 51,
                "duration": 0.1,
                "tempo": 120.0
            },
            {
                "start_time": 40.225,
                "end_time": 40.5659091,
                "pitch": 84,
                "velocity": 51,
                "duration": 0.3409091,
                "tempo": 120.0
            },
            {
                "start_time": 40.5659091,
                "end_time": 40.7454545,
                "pitch": 84,
                "velocity": 51,
                "duration": 0.1795455,
                "tempo": 120.0
            },
            {
                "start_time": 40.7454545,
                "end_time": 40.9340909,
                "pitch": 84,
                "velocity": 51,
                "duration": 0.1886364,
                "tempo": 120.0
            },
            {
                "start_time": 40.9340909,
                "end_time": 41.1045455,
                "pitch": 86,
                "velocity": 51,
                "duration": 0.1704545,
                "tempo": 120.0
            },
            {
                "start_time": 41.1068182,
                "end_time": 41.2840909,
                "pitch": 86,
                "velocity": 51,
                "duration": 0.1772727,
                "tempo": 120.0
            },
            {
                "start_time": 41.2840909,
                "end_time": 41.5295455,
                "pitch": 95,
                "velocity": 51,
                "duration": 0.2454545,
                "tempo": 120.0
            },
            {
                "start_time": 41.5295455,
                "end_time": 41.5818182,
                "pitch": 93,
                "velocity": 51,
                "duration": 0.0522727,
                "tempo": 120.0
            },
            {
                "start_time": 41.5818182,
                "end_time": 41.6340909,
                "pitch": 91,
                "velocity": 51,
                "duration": 0.0522727,
                "tempo": 120.0
            },
            {
                "start_time": 41.6363636,
                "end_time": 41.7704545,
                "pitch": 91,
                "velocity": 51,
                "duration": 0.1340909,
                "tempo": 120.0
            },
            {
                "start_time": 41.5818182,
                "end_time": 41.7704545,
                "pitch": 103,
                "velocity": 51,
                "duration": 0.1886364,
                "tempo": 120.0
            },
            {
                "start_time": 41.7704545,
                "end_time": 41.9522727,
                "pitch": 91,
                "velocity": 51,
                "duration": 0.1818182,
                "tempo": 120.0
            },
            {
                "start_time": 41.7704545,
                "end_time": 41.9522727,
                "pitch": 103,
                "velocity": 51,
                "duration": 0.1818182,
                "tempo": 120.0
            },
            {
                "start_time": 41.9522727,
                "end_time": 42.0022727,
                "pitch": 91,
                "velocity": 51,
                "duration": 0.05,
                "tempo": 120.0
            },
            {
                "start_time": 42.0022727,
                "end_time": 42.1818182,
                "pitch": 86,
                "velocity": 51,
                "duration": 0.1795455,
                "tempo": 120.0
            },
            {
                "start_time": 42.1818182,
                "end_time": 42.35,
                "pitch": 86,
                "velocity": 51,
                "duration": 0.1681818,
                "tempo": 120.0
            },
            {
                "start_time": 42.35,
                "end_time": 42.5318182,
                "pitch": 88,
                "velocity": 51,
                "duration": 0.1818182,
                "tempo": 120.0
            },
            {
                "start_time": 42.5340909,
                "end_time": 42.7113636,
                "pitch": 86,
                "velocity": 51,
                "duration": 0.1772727,
                "tempo": 120.0
            },
            {
                "start_time": 42.7136364,
                "end_time": 42.9568182,
                "pitch": 95,
                "velocity": 51,
                "duration": 0.2431818,
                "tempo": 120.0
            },
            {
                "start_time": 42.9568182,
                "end_time": 43.0068182,
                "pitch": 93,
                "velocity": 51,
                "duration": 0.05,
                "tempo": 120.0
            },
            {
                "start_time": 41.9522727,
                "end_time": 43.0068182,
                "pitch": 103,
                "velocity": 51,
                "duration": 1.0545455,
                "tempo": 120.0
            },
            {
                "start_time": 43.0068182,
                "end_time": 43.0590909,
                "pitch": 91,
                "velocity": 51,
                "duration": 0.0522727,
                "tempo": 120.0
            },
            {
                "start_time": 43.0590909,
                "end_time": 43.1909091,
                "pitch": 91,
                "velocity": 51,
                "duration": 0.1318182,
                "tempo": 120.0
            },
            {
                "start_time": 43.0068182,
                "end_time": 43.1909091,
                "pitch": 103,
                "velocity": 51,
                "duration": 0.1840909,
                "tempo": 120.0
            },
            {
                "start_time": 43.1909091,
                "end_time": 43.3590909,
                "pitch": 91,
                "velocity": 51,
                "duration": 0.1681818,
                "tempo": 120.0
            },
            {
                "start_time": 43.1909091,
                "end_time": 43.3590909,
                "pitch": 103,
                "velocity": 51,
                "duration": 0.1681818,
                "tempo": 120.0
            },
            {
                "start_time": 43.3590909,
                "end_time": 43.4272727,
                "pitch": 91,
                "velocity": 51,
                "duration": 0.0681818,
                "tempo": 120.0
            },
            {
                "start_time": 43.4272727,
                "end_time": 43.5954545,
                "pitch": 86,
                "velocity": 51,
                "duration": 0.1681818,
                "tempo": 120.0
            },
            {
                "start_time": 43.5954545,
                "end_time": 43.7727273,
                "pitch": 86,
                "velocity": 51,
                "duration": 0.1772727,
                "tempo": 120.0
            },
            {
                "start_time": 43.775,
                "end_time": 43.9522727,
                "pitch": 88,
                "velocity": 51,
                "duration": 0.1772727,
                "tempo": 120.0
            },
            {
                "start_time": 43.9522727,
                "end_time": 44.125,
                "pitch": 86,
                "velocity": 51,
                "duration": 0.1727273,
                "tempo": 120.0
            },
            {
                "start_time": 44.125,
                "end_time": 44.3772727,
                "pitch": 95,
                "velocity": 51,
                "duration": 0.2522727,
                "tempo": 120.0
            },
            {
                "start_time": 44.3772727,
                "end_time": 44.4409091,
                "pitch": 93,
                "velocity": 51,
                "duration": 0.0636364,
                "tempo": 120.0
            },
            {
                "start_time": 43.3590909,
                "end_time": 44.4409091,
                "pitch": 103,
                "velocity": 51,
                "duration": 1.0818182,
                "tempo": 120.0
            },
            {
                "start_time": 44.4409091,
                "end_time": 44.4909091,
                "pitch": 91,
                "velocity": 51,
                "duration": 0.05,
                "tempo": 120.0
            },
            {
                "start_time": 44.4931818,
                "end_time": 44.6045455,
                "pitch": 91,
                "velocity": 51,
                "duration": 0.1113636,
                "tempo": 120.0
            },
            {
                "start_time": 44.4409091,
                "end_time": 44.6045455,
                "pitch": 103,
                "velocity": 51,
                "duration": 0.1636364,
                "tempo": 120.0
            },
            {
                "start_time": 44.6045455,
                "end_time": 44.7886364,
                "pitch": 91,
                "velocity": 51,
                "duration": 0.1840909,
                "tempo": 120.0
            },
            {
                "start_time": 44.6045455,
                "end_time": 44.7886364,
                "pitch": 103,
                "velocity": 51,
                "duration": 0.1840909,
                "tempo": 120.0
            },
            {
                "start_time": 44.7886364,
                "end_time": 44.8409091,
                "pitch": 91,
                "velocity": 51,
                "duration": 0.0522727,
                "tempo": 120.0
            },
            {
                "start_time": 44.8409091,
                "end_time": 45.0318182,
                "pitch": 86,
                "velocity": 51,
                "duration": 0.1909091,
                "tempo": 120.0
            },
            {
                "start_time": 45.0318182,
                "end_time": 45.2090909,
                "pitch": 86,
                "velocity": 51,
                "duration": 0.1772727,
                "tempo": 120.0
            },
            {
                "start_time": 45.2113636,
                "end_time": 45.3727273,
                "pitch": 88,
                "velocity": 51,
                "duration": 0.1613636,
                "tempo": 120.0
            },
            {
                "start_time": 45.3727273,
                "end_time": 45.9159091,
                "pitch": 95,
                "velocity": 51,
                "duration": 0.5431818,
                "tempo": 120.0
            },
            {
                "start_time": 45.9159091,
                "end_time": 45.9977273,
                "pitch": 96,
                "velocity": 51,
                "duration": 0.0818182,
                "tempo": 120.0
            },
            {
                "start_time": 45.9977273,
                "end_time": 46.0818182,
                "pitch": 95,
                "velocity": 51,
                "duration": 0.0840909,
                "tempo": 120.0
            },
            {
                "start_time": 46.0818182,
                "end_time": 46.8022727,
                "pitch": 93,
                "velocity": 51,
                "duration": 0.7204545,
                "tempo": 120.0
            },
            {
                "start_time": 46.8022727,
                "end_time": 46.8340909,
                "pitch": 75,
                "velocity": 80,
                "duration": 0.0318182,
                "tempo": 120.0
            },
            {
                "start_time": 46.8340909,
                "end_time": 47.0181818,
                "pitch": 76,
                "velocity": 80,
                "duration": 0.1840909,
                "tempo": 120.0
            }
        ],
        "Lead 2 (sawtooth)": [
            {
                "start_time": 12.65,
                "end_time": 12.9909091,
                "pitch": 62,
                "velocity": 64,
                "duration": 0.3409091,
                "tempo": 120.0
            },
            {
                "start_time": 12.9909091,
                "end_time": 13.3477273,
                "pitch": 60,
                "velocity": 64,
                "duration": 0.3568182,
                "tempo": 120.0
            },
            {
                "start_time": 13.3477273,
                "end_time": 13.5318182,
                "pitch": 59,
                "velocity": 64,
                "duration": 0.1840909,
                "tempo": 120.0
            },
            {
                "start_time": 13.5318182,
                "end_time": 13.8772727,
                "pitch": 60,
                "velocity": 64,
                "duration": 0.3454545,
                "tempo": 120.0
            },
            {
                "start_time": 13.8795455,
                "end_time": 14.2272727,
                "pitch": 62,
                "velocity": 64,
                "duration": 0.3477273,
                "tempo": 120.0
            },
            {
                "start_time": 14.2295455,
                "end_time": 14.4159091,
                "pitch": 62,
                "velocity": 64,
                "duration": 0.1863636,
                "tempo": 120.0
            },
            {
                "start_time": 14.4181818,
                "end_time": 14.775,
                "pitch": 60,
                "velocity": 64,
                "duration": 0.3568182,
                "tempo": 120.0
            },
            {
                "start_time": 14.775,
                "end_time": 14.9454545,
                "pitch": 59,
                "velocity": 64,
                "duration": 0.1704545,
                "tempo": 120.0
            },
            {
                "start_time": 14.9454545,
                "end_time": 15.4772727,
                "pitch": 60,
                "velocity": 64,
                "duration": 0.5318182,
                "tempo": 120.0
            },
            {
                "start_time": 15.4772727,
                "end_time": 15.8340909,
                "pitch": 62,
                "velocity": 64,
                "duration": 0.3568182,
                "tempo": 120.0
            },
            {
                "start_time": 15.8340909,
                "end_time": 16.1954545,
                "pitch": 60,
                "velocity": 64,
                "duration": 0.3613636,
                "tempo": 120.0
            },
            {
                "start_time": 16.1954545,
                "end_time": 16.375,
                "pitch": 59,
                "velocity": 64,
                "duration": 0.1795455,
                "tempo": 120.0
            },
            {
                "start_time": 16.375,
                "end_time": 16.7204545,
                "pitch": 60,
                "velocity": 64,
                "duration": 0.3454545,
                "tempo": 120.0
            },
            {
                "start_time": 16.7204545,
                "end_time": 17.0840909,
                "pitch": 64,
                "velocity": 64,
                "duration": 0.3636364,
                "tempo": 120.0
            },
            {
                "start_time": 17.0840909,
                "end_time": 17.2613636,
                "pitch": 64,
                "velocity": 64,
                "duration": 0.1772727,
                "tempo": 120.0
            },
            {
                "start_time": 17.2613636,
                "end_time": 17.6227273,
                "pitch": 62,
                "velocity": 64,
                "duration": 0.3613636,
                "tempo": 120.0
            },
            {
                "start_time": 17.6227273,
                "end_time": 17.8022727,
                "pitch": 60,
                "velocity": 64,
                "duration": 0.1795455,
                "tempo": 120.0
            },
            {
                "start_time": 17.8022727,
                "end_time": 18.3227273,
                "pitch": 64,
                "velocity": 64,
                "duration": 0.5204545,
                "tempo": 120.0
            },
            {
                "start_time": 18.3227273,
                "end_time": 18.6840909,
                "pitch": 62,
                "velocity": 64,
                "duration": 0.3613636,
                "tempo": 120.0
            },
            {
                "start_time": 18.6840909,
                "end_time": 19.0409091,
                "pitch": 60,
                "velocity": 64,
                "duration": 0.3568182,
                "tempo": 120.0
            },
            {
                "start_time": 19.0409091,
                "end_time": 19.2113636,
                "pitch": 59,
                "velocity": 64,
                "duration": 0.1704545,
                "tempo": 120.0
            },
            {
                "start_time": 19.2113636,
                "end_time": 19.5795455,
                "pitch": 60,
                "velocity": 64,
                "duration": 0.3681818,
                "tempo": 120.0
            },
            {
                "start_time": 19.5795455,
                "end_time": 19.925,
                "pitch": 62,
                "velocity": 64,
                "duration": 0.3454545,
                "tempo": 120.0
            },
            {
                "start_time": 19.9272727,
                "end_time": 20.1090909,
                "pitch": 62,
                "velocity": 64,
                "duration": 0.1818182,
                "tempo": 120.0
            },
            {
                "start_time": 20.1113636,
                "end_time": 20.4613636,
                "pitch": 60,
                "velocity": 64,
                "duration": 0.35,
                "tempo": 120.0
            },
            {
                "start_time": 20.4613636,
                "end_time": 20.6409091,
                "pitch": 59,
                "velocity": 64,
                "duration": 0.1795455,
                "tempo": 120.0
            },
            {
                "start_time": 20.6409091,
                "end_time": 21.1727273,
                "pitch": 60,
                "velocity": 64,
                "duration": 0.5318182,
                "tempo": 120.0
            },
            {
                "start_time": 21.1727273,
                "end_time": 21.5295455,
                "pitch": 62,
                "velocity": 64,
                "duration": 0.3568182,
                "tempo": 120.0
            },
            {
                "start_time": 21.5295455,
                "end_time": 21.8909091,
                "pitch": 60,
                "velocity": 64,
                "duration": 0.3613636,
                "tempo": 120.0
            },
            {
                "start_time": 21.8909091,
                "end_time": 22.0681818,
                "pitch": 59,
                "velocity": 64,
                "duration": 0.1772727,
                "tempo": 120.0
            },
            {
                "start_time": 22.0681818,
                "end_time": 22.4181818,
                "pitch": 60,
                "velocity": 64,
                "duration": 0.35,
                "tempo": 120.0
            },
            {
                "start_time": 22.4204545,
                "end_time": 22.7863636,
                "pitch": 64,
                "velocity": 64,
                "duration": 0.3659091,
                "tempo": 120.0
            },
            {
                "start_time": 22.7863636,
                "end_time": 22.95,
                "pitch": 64,
                "velocity": 64,
                "duration": 0.1636364,
                "tempo": 120.0
            },
            {
                "start_time": 22.95,
                "end_time": 23.3068182,
                "pitch": 62,
                "velocity": 64,
                "duration": 0.3568182,
                "tempo": 120.0
            },
            {
                "start_time": 23.3068182,
                "end_time": 23.4909091,
                "pitch": 60,
                "velocity": 64,
                "duration": 0.1840909,
                "tempo": 120.0
            },
            {
                "start_time": 23.4909091,
                "end_time": 24.0295455,
                "pitch": 64,
                "velocity": 64,
                "duration": 0.5386364,
                "tempo": 120.0
            },
            {
                "start_time": 24.0295455,
                "end_time": 24.1954545,
                "pitch": 53,
                "velocity": 64,
                "duration": 0.1659091,
                "tempo": 120.0
            },
            {
                "start_time": 24.1954545,
                "end_time": 24.3795455,
                "pitch": 53,
                "velocity": 64,
                "duration": 0.1840909,
                "tempo": 120.0
            },
            {
                "start_time": 24.3795455,
                "end_time": 24.5636364,
                "pitch": 53,
                "velocity": 64,
                "duration": 0.1840909,
                "tempo": 120.0
            },
            {
                "start_time": 24.5636364,
                "end_time": 24.7477273,
                "pitch": 53,
                "velocity": 64,
                "duration": 0.1840909,
                "tempo": 120.0
            },
            {
                "start_time": 24.7477273,
                "end_time": 25.1,
                "pitch": 53,
                "velocity": 64,
                "duration": 0.3522727,
                "tempo": 120.0
            },
            {
                "start_time": 25.1,
                "end_time": 25.2795455,
                "pitch": 53,
                "velocity": 64,
                "duration": 0.1795455,
                "tempo": 120.0
            },
            {
                "start_time": 25.2795455,
                "end_time": 25.6204545,
                "pitch": 53,
                "velocity": 64,
                "duration": 0.3409091,
                "tempo": 120.0
            },
            {
                "start_time": 25.6204545,
                "end_time": 25.8,
                "pitch": 53,
                "velocity": 64,
                "duration": 0.1795455,
                "tempo": 120.0
            },
            {
                "start_time": 25.8,
                "end_time": 25.9886364,
                "pitch": 53,
                "velocity": 64,
                "duration": 0.1886364,
                "tempo": 120.0
            },
            {
                "start_time": 25.9886364,
                "end_time": 26.1590909,
                "pitch": 53,
                "velocity": 64,
                "duration": 0.1704545,
                "tempo": 120.0
            },
            {
                "start_time": 26.1590909,
                "end_time": 26.5181818,
                "pitch": 57,
                "velocity": 64,
                "duration": 0.3590909,
                "tempo": 120.0
            },
            {
                "start_time": 26.5181818,
                "end_time": 26.6886364,
                "pitch": 65,
                "velocity": 64,
                "duration": 0.1704545,
                "tempo": 120.0
            },
            {
                "start_time": 26.6886364,
                "end_time": 26.9409091,
                "pitch": 55,
                "velocity": 64,
                "duration": 0.2522727,
                "tempo": 120.0
            },
            {
                "start_time": 26.9409091,
                "end_time": 27.0068182,
                "pitch": 55,
                "velocity": 64,
                "duration": 0.0659091,
                "tempo": 120.0
            },
            {
                "start_time": 27.0068182,
                "end_time": 27.0568182,
                "pitch": 55,
                "velocity": 64,
                "duration": 0.05,
                "tempo": 120.0
            },
            {
                "start_time": 27.0568182,
                "end_time": 27.2363636,
                "pitch": 55,
                "velocity": 64,
                "duration": 0.1795455,
                "tempo": 120.0
            },
            {
                "start_time": 27.2363636,
                "end_time": 27.4068182,
                "pitch": 55,
                "velocity": 64,
                "duration": 0.1704545,
                "tempo": 120.0
            },
            {
                "start_time": 27.4068182,
                "end_time": 27.5954545,
                "pitch": 55,
                "velocity": 64,
                "duration": 0.1886364,
                "tempo": 120.0
            },
            {
                "start_time": 27.5954545,
                "end_time": 27.8386364,
                "pitch": 55,
                "velocity": 64,
                "duration": 0.2431818,
                "tempo": 120.0
            },
            {
                "start_time": 26.9409091,
                "end_time": 27.8386364,
                "pitch": 67,
                "velocity": 64,
                "duration": 0.8977273,
                "tempo": 120.0
            },
            {
                "start_time": 27.0068182,
                "end_time": 27.8886364,
                "pitch": 0,
                "velocity": 64,
                "duration": 0.8818182,
                "tempo": 120.0
            },
            {
                "start_time": 27.8386364,
                "end_time": 27.8886364,
                "pitch": 55,
                "velocity": 64,
                "duration": 0.05,
                "tempo": 120.0
            },
            {
                "start_time": 27.8886364,
                "end_time": 27.9363636,
                "pitch": 55,
                "velocity": 64,
                "duration": 0.0477273,
                "tempo": 120.0
            },
            {
                "start_time": 27.9386364,
                "end_time": 28.1159091,
                "pitch": 55,
                "velocity": 64,
                "duration": 0.1772727,
                "tempo": 120.0
            },
            {
                "start_time": 28.1159091,
                "end_time": 28.3613636,
                "pitch": 55,
                "velocity": 64,
                "duration": 0.2454545,
                "tempo": 120.0
            },
            {
                "start_time": 27.8386364,
                "end_time": 28.3613636,
                "pitch": 67,
                "velocity": 64,
                "duration": 0.5227273,
                "tempo": 120.0
            },
            {
                "start_time": 27.8886364,
                "end_time": 28.4113636,
                "pitch": 0,
                "velocity": 64,
                "duration": 0.5227273,
                "tempo": 120.0
            },
            {
                "start_time": 28.3613636,
                "end_time": 28.4113636,
                "pitch": 55,
                "velocity": 64,
                "duration": 0.05,
                "tempo": 120.0
            },
            {
                "start_time": 28.4113636,
                "end_time": 28.4795455,
                "pitch": 55,
                "velocity": 64,
                "duration": 0.0681818,
                "tempo": 120.0
            },
            {
                "start_time": 28.4795455,
                "end_time": 28.6454545,
                "pitch": 55,
                "velocity": 64,
                "duration": 0.1659091,
                "tempo": 120.0
            },
            {
                "start_time": 28.6477273,
                "end_time": 28.825,
                "pitch": 55,
                "velocity": 64,
                "duration": 0.1772727,
                "tempo": 120.0
            },
            {
                "start_time": 28.8272727,
                "end_time": 29.0045455,
                "pitch": 55,
                "velocity": 64,
                "duration": 0.1772727,
                "tempo": 120.0
            },
            {
                "start_time": 29.0045455,
                "end_time": 29.3659091,
                "pitch": 59,
                "velocity": 64,
                "duration": 0.3613636,
                "tempo": 120.0
            },
            {
                "start_time": 28.3613636,
                "end_time": 29.5431818,
                "pitch": 67,
                "velocity": 64,
                "duration": 1.1818182,
                "tempo": 120.0
            },
            {
                "start_time": 29.3659091,
                "end_time": 29.5431818,
                "pitch": 67,
                "velocity": 64,
                "duration": 0.1772727,
                "tempo": 120.0
            },
            {
                "start_time": 29.5454545,
                "end_time": 29.8931818,
                "pitch": 57,
                "velocity": 64,
                "duration": 0.3477273,
                "tempo": 120.0
            },
            {
                "start_time": 29.8954545,
                "end_time": 30.0818182,
                "pitch": 57,
                "velocity": 64,
                "duration": 0.1863636,
                "tempo": 120.0
            },
            {
                "start_time": 30.0840909,
                "end_time": 30.2613636,
                "pitch": 57,
                "velocity": 64,
                "duration": 0.1772727,
                "tempo": 120.0
            },
            {
                "start_time": 30.2636364,
                "end_time": 30.425,
                "pitch": 57,
                "velocity": 64,
                "duration": 0.1613636,
                "tempo": 120.0
            },
            {
                "start_time": 30.425,
                "end_time": 30.7818182,
                "pitch": 57,
                "velocity": 64,
                "duration": 0.3568182,
                "tempo": 120.0
            },
            {
                "start_time": 30.7840909,
                "end_time": 30.9704545,
                "pitch": 57,
                "velocity": 64,
                "duration": 0.1863636,
                "tempo": 120.0
            },
            {
                "start_time": 30.9704545,
                "end_time": 31.3227273,
                "pitch": 57,
                "velocity": 64,
                "duration": 0.3522727,
                "tempo": 120.0
            },
            {
                "start_time": 31.3227273,
                "end_time": 31.5,
                "pitch": 57,
                "velocity": 64,
                "duration": 0.1772727,
                "tempo": 120.0
            },
            {
                "start_time": 31.5,
                "end_time": 31.6681818,
                "pitch": 57,
                "velocity": 64,
                "duration": 0.1681818,
                "tempo": 120.0
            },
            {
                "start_time": 31.6681818,
                "end_time": 31.8522727,
                "pitch": 57,
                "velocity": 64,
                "duration": 0.1840909,
                "tempo": 120.0
            },
            {
                "start_time": 31.8522727,
                "end_time": 32.2113636,
                "pitch": 60,
                "velocity": 64,
                "duration": 0.3590909,
                "tempo": 120.0
            },
            {
                "start_time": 32.2113636,
                "end_time": 32.3818182,
                "pitch": 69,
                "velocity": 64,
                "duration": 0.1704545,
                "tempo": 120.0
            },
            {
                "start_time": 32.3818182,
                "end_time": 32.75,
                "pitch": 57,
                "velocity": 64,
                "duration": 0.3681818,
                "tempo": 120.0
            },
            {
                "start_time": 32.75,
                "end_time": 32.9113636,
                "pitch": 57,
                "velocity": 64,
                "duration": 0.1613636,
                "tempo": 120.0
            },
            {
                "start_time": 32.9113636,
                "end_time": 33.0909091,
                "pitch": 57,
                "velocity": 64,
                "duration": 0.1795455,
                "tempo": 120.0
            },
            {
                "start_time": 33.0909091,
                "end_time": 33.2704545,
                "pitch": 57,
                "velocity": 64,
                "duration": 0.1795455,
                "tempo": 120.0
            },
            {
                "start_time": 33.2704545,
                "end_time": 33.6295455,
                "pitch": 57,
                "velocity": 64,
                "duration": 0.3590909,
                "tempo": 120.0
            },
            {
                "start_time": 33.6295455,
                "end_time": 33.8090909,
                "pitch": 57,
                "velocity": 64,
                "duration": 0.1795455,
                "tempo": 120.0
            },
            {
                "start_time": 33.8090909,
                "end_time": 34.1590909,
                "pitch": 69,
                "velocity": 64,
                "duration": 0.35,
                "tempo": 120.0
            },
            {
                "start_time": 34.1590909,
                "end_time": 34.3477273,
                "pitch": 69,
                "velocity": 64,
                "duration": 0.1886364,
                "tempo": 120.0
            },
            {
                "start_time": 34.3477273,
                "end_time": 34.5272727,
                "pitch": 67,
                "velocity": 64,
                "duration": 0.1795455,
                "tempo": 120.0
            },
            {
                "start_time": 34.5272727,
                "end_time": 34.7068182,
                "pitch": 67,
                "velocity": 64,
                "duration": 0.1795455,
                "tempo": 120.0
            },
            {
                "start_time": 34.7068182,
                "end_time": 34.8727273,
                "pitch": 65,
                "velocity": 64,
                "duration": 0.1659091,
                "tempo": 120.0
            },
            {
                "start_time": 34.8727273,
                "end_time": 35.0568182,
                "pitch": 65,
                "velocity": 64,
                "duration": 0.1840909,
                "tempo": 120.0
            },
            {
                "start_time": 35.0590909,
                "end_time": 35.2409091,
                "pitch": 64,
                "velocity": 64,
                "duration": 0.1818182,
                "tempo": 120.0
            },
            {
                "start_time": 35.2431818,
                "end_time": 35.4113636,
                "pitch": 64,
                "velocity": 64,
                "duration": 0.1681818,
                "tempo": 120.0
            },
            {
                "start_time": 35.4113636,
                "end_time": 35.5886364,
                "pitch": 53,
                "velocity": 64,
                "duration": 0.1772727,
                "tempo": 120.0
            },
            {
                "start_time": 35.5886364,
                "end_time": 35.7681818,
                "pitch": 53,
                "velocity": 64,
                "duration": 0.1795455,
                "tempo": 120.0
            },
            {
                "start_time": 35.7681818,
                "end_time": 35.9522727,
                "pitch": 53,
                "velocity": 64,
                "duration": 0.1840909,
                "tempo": 120.0
            },
            {
                "start_time": 35.9522727,
                "end_time": 36.1204545,
                "pitch": 53,
                "velocity": 64,
                "duration": 0.1681818,
                "tempo": 120.0
            },
            {
                "start_time": 36.1204545,
                "end_time": 36.4772727,
                "pitch": 53,
                "velocity": 64,
                "duration": 0.3568182,
                "tempo": 120.0
            },
            {
                "start_time": 36.4772727,
                "end_time": 36.6477273,
                "pitch": 53,
                "velocity": 64,
                "duration": 0.1704545,
                "tempo": 120.0
            },
            {
                "start_time": 36.65,
                "end_time": 37.0159091,
                "pitch": 53,
                "velocity": 64,
                "duration": 0.3659091,
                "tempo": 120.0
            },
            {
                "start_time": 37.0159091,
                "end_time": 37.1954545,
                "pitch": 53,
                "velocity": 64,
                "duration": 0.1795455,
                "tempo": 120.0
            },
            {
                "start_time": 37.1954545,
                "end_time": 37.3659091,
                "pitch": 53,
                "velocity": 64,
                "duration": 0.1704545,
                "tempo": 120.0
            },
            {
                "start_time": 37.3681818,
                "end_time": 37.5545455,
                "pitch": 53,
                "velocity": 64,
                "duration": 0.1863636,
                "tempo": 120.0
            },
            {
                "start_time": 37.5568182,
                "end_time": 37.8977273,
                "pitch": 57,
                "velocity": 64,
                "duration": 0.3409091,
                "tempo": 120.0
            },
            {
                "start_time": 37.8977273,
                "end_time": 38.0772727,
                "pitch": 65,
                "velocity": 64,
                "duration": 0.1795455,
                "tempo": 120.0
            },
            {
                "start_time": 38.0772727,
                "end_time": 38.3204545,
                "pitch": 55,
                "velocity": 64,
                "duration": 0.2431818,
                "tempo": 120.0
            },
            {
                "start_time": 28.4113636,
                "end_time": 38.3727273,
                "pitch": 0,
                "velocity": 64,
                "duration": 9.9613636,
                "tempo": 120.0
            },
            {
                "start_time": 38.3204545,
                "end_time": 38.3727273,
                "pitch": 55,
                "velocity": 64,
                "duration": 0.0522727,
                "tempo": 120.0
            },
            {
                "start_time": 38.3727273,
                "end_time": 38.4386364,
                "pitch": 55,
                "velocity": 64,
                "duration": 0.0659091,
                "tempo": 120.0
            },
            {
                "start_time": 38.4409091,
                "end_time": 38.6068182,
                "pitch": 55,
                "velocity": 64,
                "duration": 0.1659091,
                "tempo": 120.0
            },
            {
                "start_time": 38.6068182,
                "end_time": 38.7909091,
                "pitch": 55,
                "velocity": 64,
                "duration": 0.1840909,
                "tempo": 120.0
            },
            {
                "start_time": 38.7909091,
                "end_time": 38.975,
                "pitch": 55,
                "velocity": 64,
                "duration": 0.1840909,
                "tempo": 120.0
            },
            {
                "start_time": 38.975,
                "end_time": 39.225,
                "pitch": 55,
                "velocity": 64,
                "duration": 0.25,
                "tempo": 120.0
            },
            {
                "start_time": 38.3204545,
                "end_time": 39.225,
                "pitch": 67,
                "velocity": 64,
                "duration": 0.9045455,
                "tempo": 120.0
            },
            {
                "start_time": 38.3727273,
                "end_time": 39.2772727,
                "pitch": 0,
                "velocity": 64,
                "duration": 0.9045455,
                "tempo": 120.0
            },
            {
                "start_time": 39.225,
                "end_time": 39.2772727,
                "pitch": 55,
                "velocity": 64,
                "duration": 0.0522727,
                "tempo": 120.0
            },
            {
                "start_time": 39.2772727,
                "end_time": 39.3272727,
                "pitch": 55,
                "velocity": 64,
                "duration": 0.05,
                "tempo": 120.0
            },
            {
                "start_time": 39.3272727,
                "end_time": 39.5068182,
                "pitch": 55,
                "velocity": 64,
                "duration": 0.1795455,
                "tempo": 120.0
            },
            {
                "start_time": 39.5068182,
                "end_time": 39.7522727,
                "pitch": 55,
                "velocity": 64,
                "duration": 0.2454545,
                "tempo": 120.0
            },
            {
                "start_time": 39.225,
                "end_time": 39.7522727,
                "pitch": 67,
                "velocity": 64,
                "duration": 0.5272727,
                "tempo": 120.0
            },
            {
                "start_time": 39.2772727,
                "end_time": 39.8045455,
                "pitch": 0,
                "velocity": 64,
                "duration": 0.5272727,
                "tempo": 120.0
            },
            {
                "start_time": 39.7522727,
                "end_time": 39.8045455,
                "pitch": 55,
                "velocity": 64,
                "duration": 0.0522727,
                "tempo": 120.0
            },
            {
                "start_time": 39.8045455,
                "end_time": 39.8568182,
                "pitch": 55,
                "velocity": 64,
                "duration": 0.0522727,
                "tempo": 120.0
            },
            {
                "start_time": 39.8568182,
                "end_time": 40.0454545,
                "pitch": 55,
                "velocity": 64,
                "duration": 0.1886364,
                "tempo": 120.0
            },
            {
                "start_time": 40.0454545,
                "end_time": 40.225,
                "pitch": 55,
                "velocity": 64,
                "duration": 0.1795455,
                "tempo": 120.0
            },
            {
                "start_time": 40.225,
                "end_time": 40.3863636,
                "pitch": 55,
                "velocity": 64,
                "duration": 0.1613636,
                "tempo": 120.0
            },
            {
                "start_time": 40.3863636,
                "end_time": 40.7454545,
                "pitch": 59,
                "velocity": 64,
                "duration": 0.3590909,
                "tempo": 120.0
            },
            {
                "start_time": 39.7522727,
                "end_time": 40.9340909,
                "pitch": 67,
                "velocity": 64,
                "duration": 1.1818182,
                "tempo": 120.0
            },
            {
                "start_time": 40.7454545,
                "end_time": 40.9340909,
                "pitch": 67,
                "velocity": 64,
                "duration": 0.1886364,
                "tempo": 120.0
            },
            {
                "start_time": 40.9340909,
                "end_time": 41.2840909,
                "pitch": 57,
                "velocity": 64,
                "duration": 0.35,
                "tempo": 120.0
            },
            {
                "start_time": 41.2840909,
                "end_time": 41.4613636,
                "pitch": 57,
                "velocity": 64,
                "duration": 0.1772727,
                "tempo": 120.0
            },
            {
                "start_time": 41.4636364,
                "end_time": 41.6340909,
                "pitch": 57,
                "velocity": 64,
                "duration": 0.1704545,
                "tempo": 120.0
            },
            {
                "start_time": 41.6340909,
                "end_time": 41.8227273,
                "pitch": 57,
                "velocity": 64,
                "duration": 0.1886364,
                "tempo": 120.0
            },
            {
                "start_time": 41.8227273,
                "end_time": 42.1818182,
                "pitch": 57,
                "velocity": 64,
                "duration": 0.3590909,
                "tempo": 120.0
            },
            {
                "start_time": 42.1818182,
                "end_time": 42.3477273,
                "pitch": 57,
                "velocity": 64,
                "duration": 0.1659091,
                "tempo": 120.0
            },
            {
                "start_time": 42.35,
                "end_time": 42.7113636,
                "pitch": 57,
                "velocity": 64,
                "duration": 0.3613636,
                "tempo": 120.0
            },
            {
                "start_time": 42.7113636,
                "end_time": 42.8727273,
                "pitch": 57,
                "velocity": 64,
                "duration": 0.1613636,
                "tempo": 120.0
            },
            {
                "start_time": 42.875,
                "end_time": 43.0590909,
                "pitch": 57,
                "velocity": 64,
                "duration": 0.1840909,
                "tempo": 120.0
            },
            {
                "start_time": 43.0590909,
                "end_time": 43.2431818,
                "pitch": 57,
                "velocity": 64,
                "duration": 0.1840909,
                "tempo": 120.0
            },
            {
                "start_time": 43.2431818,
                "end_time": 43.5954545,
                "pitch": 60,
                "velocity": 64,
                "duration": 0.3522727,
                "tempo": 120.0
            },
            {
                "start_time": 43.5954545,
                "end_time": 43.7727273,
                "pitch": 69,
                "velocity": 64,
                "duration": 0.1772727,
                "tempo": 120.0
            },
            {
                "start_time": 43.7727273,
                "end_time": 44.1227273,
                "pitch": 57,
                "velocity": 64,
                "duration": 0.35,
                "tempo": 120.0
            },
            {
                "start_time": 44.125,
                "end_time": 44.3113636,
                "pitch": 57,
                "velocity": 64,
                "duration": 0.1863636,
                "tempo": 120.0
            },
            {
                "start_time": 44.3113636,
                "end_time": 44.4909091,
                "pitch": 57,
                "velocity": 64,
                "duration": 0.1795455,
                "tempo": 120.0
            },
            {
                "start_time": 44.4909091,
                "end_time": 44.6704545,
                "pitch": 57,
                "velocity": 64,
                "duration": 0.1795455,
                "tempo": 120.0
            },
            {
                "start_time": 44.6704545,
                "end_time": 45.0295455,
                "pitch": 57,
                "velocity": 64,
                "duration": 0.3590909,
                "tempo": 120.0
            },
            {
                "start_time": 45.0318182,
                "end_time": 45.2090909,
                "pitch": 57,
                "velocity": 64,
                "duration": 0.1772727,
                "tempo": 120.0
            },
            {
                "start_time": 45.2090909,
                "end_time": 45.55,
                "pitch": 69,
                "velocity": 64,
                "duration": 0.3409091,
                "tempo": 120.0
            },
            {
                "start_time": 45.55,
                "end_time": 45.7295455,
                "pitch": 69,
                "velocity": 64,
                "duration": 0.1795455,
                "tempo": 120.0
            },
            {
                "start_time": 45.7295455,
                "end_time": 45.9136364,
                "pitch": 67,
                "velocity": 64,
                "duration": 0.1840909,
                "tempo": 120.0
            },
            {
                "start_time": 45.9136364,
                "end_time": 46.0818182,
                "pitch": 67,
                "velocity": 64,
                "duration": 0.1681818,
                "tempo": 120.0
            },
            {
                "start_time": 46.0818182,
                "end_time": 46.2590909,
                "pitch": 65,
                "velocity": 64,
                "duration": 0.1772727,
                "tempo": 120.0
            },
            {
                "start_time": 46.2613636,
                "end_time": 46.4386364,
                "pitch": 65,
                "velocity": 64,
                "duration": 0.1772727,
                "tempo": 120.0
            },
            {
                "start_time": 46.4386364,
                "end_time": 46.6113636,
                "pitch": 64,
                "velocity": 64,
                "duration": 0.1727273,
                "tempo": 120.0
            },
            {
                "start_time": 46.6113636,
                "end_time": 46.8022727,
                "pitch": 64,
                "velocity": 64,
                "duration": 0.1909091,
                "tempo": 120.0
            },
            {
                "start_time": 46.8022727,
                "end_time": 47.0181818,
                "pitch": 62,
                "velocity": 64,
                "duration": 0.2159091,
                "tempo": 120.0
            }
        ],
        "Acoustic Bass": [
            {
                "start_time": 1.0659091,
                "end_time": 1.4227273,
                "pitch": 33,
                "velocity": 80,
                "duration": 0.3568182,
                "tempo": 120.0
            },
            {
                "start_time": 1.4227273,
                "end_time": 1.6068182,
                "pitch": 45,
                "velocity": 80,
                "duration": 0.1840909,
                "tempo": 120.0
            },
            {
                "start_time": 1.6068182,
                "end_time": 1.7772727,
                "pitch": 33,
                "velocity": 80,
                "duration": 0.1704545,
                "tempo": 120.0
            },
            {
                "start_time": 1.7772727,
                "end_time": 1.9659091,
                "pitch": 45,
                "velocity": 80,
                "duration": 0.1886364,
                "tempo": 120.0
            },
            {
                "start_time": 1.9659091,
                "end_time": 2.1454545,
                "pitch": 33,
                "velocity": 80,
                "duration": 0.1795455,
                "tempo": 120.0
            },
            {
                "start_time": 2.1454545,
                "end_time": 2.325,
                "pitch": 45,
                "velocity": 80,
                "duration": 0.1795455,
                "tempo": 120.0
            },
            {
                "start_time": 2.325,
                "end_time": 2.4931818,
                "pitch": 33,
                "velocity": 80,
                "duration": 0.1681818,
                "tempo": 120.0
            },
            {
                "start_time": 2.4931818,
                "end_time": 2.8545455,
                "pitch": 31,
                "velocity": 80,
                "duration": 0.3613636,
                "tempo": 120.0
            },
            {
                "start_time": 2.8545455,
                "end_time": 3.0181818,
                "pitch": 43,
                "velocity": 80,
                "duration": 0.1636364,
                "tempo": 120.0
            },
            {
                "start_time": 3.0181818,
                "end_time": 3.1954545,
                "pitch": 31,
                "velocity": 80,
                "duration": 0.1772727,
                "tempo": 120.0
            },
            {
                "start_time": 3.1977273,
                "end_time": 3.375,
                "pitch": 43,
                "velocity": 80,
                "duration": 0.1772727,
                "tempo": 120.0
            },
            {
                "start_time": 3.375,
                "end_time": 3.5636364,
                "pitch": 31,
                "velocity": 80,
                "duration": 0.1886364,
                "tempo": 120.0
            },
            {
                "start_time": 3.5636364,
                "end_time": 3.7363636,
                "pitch": 43,
                "velocity": 80,
                "duration": 0.1727273,
                "tempo": 120.0
            },
            {
                "start_time": 3.7363636,
                "end_time": 3.9159091,
                "pitch": 31,
                "velocity": 80,
                "duration": 0.1795455,
                "tempo": 120.0
            },
            {
                "start_time": 3.9159091,
                "end_time": 4.2636364,
                "pitch": 29,
                "velocity": 80,
                "duration": 0.3477273,
                "tempo": 120.0
            },
            {
                "start_time": 4.2659091,
                "end_time": 4.4545455,
                "pitch": 41,
                "velocity": 80,
                "duration": 0.1886364,
                "tempo": 120.0
            },
            {
                "start_time": 4.4545455,
                "end_time": 4.6318182,
                "pitch": 29,
                "velocity": 80,
                "duration": 0.1772727,
                "tempo": 120.0
            },
            {
                "start_time": 4.6318182,
                "end_time": 4.8136364,
                "pitch": 41,
                "velocity": 80,
                "duration": 0.1818182,
                "tempo": 120.0
            },
            {
                "start_time": 4.8136364,
                "end_time": 4.9795455,
                "pitch": 29,
                "velocity": 80,
                "duration": 0.1659091,
                "tempo": 120.0
            },
            {
                "start_time": 4.9795455,
                "end_time": 5.1636364,
                "pitch": 41,
                "velocity": 80,
                "duration": 0.1840909,
                "tempo": 120.0
            },
            {
                "start_time": 5.1659091,
                "end_time": 5.35,
                "pitch": 29,
                "velocity": 80,
                "duration": 0.1840909,
                "tempo": 120.0
            },
            {
                "start_time": 5.35,
                "end_time": 5.6931818,
                "pitch": 31,
                "velocity": 80,
                "duration": 0.3431818,
                "tempo": 120.0
            },
            {
                "start_time": 5.6931818,
                "end_time": 5.8727273,
                "pitch": 43,
                "velocity": 80,
                "duration": 0.1795455,
                "tempo": 120.0
            },
            {
                "start_time": 5.8727273,
                "end_time": 6.0568182,
                "pitch": 31,
                "velocity": 80,
                "duration": 0.1840909,
                "tempo": 120.0
            },
            {
                "start_time": 6.0568182,
                "end_time": 6.1409091,
                "pitch": 41,
                "velocity": 80,
                "duration": 0.0840909,
                "tempo": 120.0
            },
            {
                "start_time": 6.1409091,
                "end_time": 6.225,
                "pitch": 43,
                "velocity": 80,
                "duration": 0.0840909,
                "tempo": 120.0
            },
            {
                "start_time": 6.225,
                "end_time": 6.4045455,
                "pitch": 31,
                "velocity": 80,
                "duration": 0.1795455,
                "tempo": 120.0
            },
            {
                "start_time": 6.4045455,
                "end_time": 6.5840909,
                "pitch": 43,
                "velocity": 80,
                "duration": 0.1795455,
                "tempo": 120.0
            },
            {
                "start_time": 6.5840909,
                "end_time": 6.7545455,
                "pitch": 31,
                "velocity": 80,
                "duration": 0.1704545,
                "tempo": 120.0
            },
            {
                "start_time": 6.7545455,
                "end_time": 7.1227273,
                "pitch": 33,
                "velocity": 80,
                "duration": 0.3681818,
                "tempo": 120.0
            },
            {
                "start_time": 7.1227273,
                "end_time": 7.3,
                "pitch": 45,
                "velocity": 80,
                "duration": 0.1772727,
                "tempo": 120.0
            },
            {
                "start_time": 7.3022727,
                "end_time": 7.4727273,
                "pitch": 33,
                "velocity": 80,
                "duration": 0.1704545,
                "tempo": 120.0
            },
            {
                "start_time": 7.4727273,
                "end_time": 7.6613636,
                "pitch": 45,
                "velocity": 80,
                "duration": 0.1886364,
                "tempo": 120.0
            },
            {
                "start_time": 7.6613636,
                "end_time": 7.8386364,
                "pitch": 33,
                "velocity": 80,
                "duration": 0.1772727,
                "tempo": 120.0
            },
            {
                "start_time": 7.8409091,
                "end_time": 8.0045455,
                "pitch": 45,
                "velocity": 80,
                "duration": 0.1636364,
                "tempo": 120.0
            },
            {
                "start_time": 8.0045455,
                "end_time": 8.1818182,
                "pitch": 33,
                "velocity": 80,
                "duration": 0.1772727,
                "tempo": 120.0
            },
            {
                "start_time": 8.1840909,
                "end_time": 8.5454545,
                "pitch": 31,
                "velocity": 80,
                "duration": 0.3613636,
                "tempo": 120.0
            },
            {
                "start_time": 8.5454545,
                "end_time": 8.7113636,
                "pitch": 43,
                "velocity": 80,
                "duration": 0.1659091,
                "tempo": 120.0
            },
            {
                "start_time": 8.7136364,
                "end_time": 8.8977273,
                "pitch": 31,
                "velocity": 80,
                "duration": 0.1840909,
                "tempo": 120.0
            },
            {
                "start_time": 8.8977273,
                "end_time": 9.0818182,
                "pitch": 43,
                "velocity": 80,
                "duration": 0.1840909,
                "tempo": 120.0
            },
            {
                "start_time": 9.0818182,
                "end_time": 9.2477273,
                "pitch": 31,
                "velocity": 80,
                "duration": 0.1659091,
                "tempo": 120.0
            },
            {
                "start_time": 9.2477273,
                "end_time": 9.4340909,
                "pitch": 43,
                "velocity": 80,
                "duration": 0.1863636,
                "tempo": 120.0
            },
            {
                "start_time": 9.4340909,
                "end_time": 9.6181818,
                "pitch": 31,
                "velocity": 80,
                "duration": 0.1840909,
                "tempo": 120.0
            },
            {
                "start_time": 9.6181818,
                "end_time": 9.9681818,
                "pitch": 29,
                "velocity": 80,
                "duration": 0.35,
                "tempo": 120.0
            },
            {
                "start_time": 9.9681818,
                "end_time": 10.1522727,
                "pitch": 41,
                "velocity": 80,
                "duration": 0.1840909,
                "tempo": 120.0
            },
            {
                "start_time": 10.1522727,
                "end_time": 10.3318182,
                "pitch": 29,
                "velocity": 80,
                "duration": 0.1795455,
                "tempo": 120.0
            },
            {
                "start_time": 10.3318182,
                "end_time": 10.4931818,
                "pitch": 41,
                "velocity": 80,
                "duration": 0.1613636,
                "tempo": 120.0
            },
            {
                "start_time": 10.4954545,
                "end_time": 10.6727273,
                "pitch": 29,
                "velocity": 80,
                "duration": 0.1772727,
                "tempo": 120.0
            },
            {
                "start_time": 10.6727273,
                "end_time": 10.8522727,
                "pitch": 41,
                "velocity": 80,
                "duration": 0.1795455,
                "tempo": 120.0
            },
            {
                "start_time": 10.8522727,
                "end_time": 11.0409091,
                "pitch": 29,
                "velocity": 80,
                "duration": 0.1886364,
                "tempo": 120.0
            },
            {
                "start_time": 11.0431818,
                "end_time": 11.2136364,
                "pitch": 41,
                "velocity": 80,
                "duration": 0.1704545,
                "tempo": 120.0
            },
            {
                "start_time": 11.2136364,
                "end_time": 11.3931818,
                "pitch": 29,
                "velocity": 80,
                "duration": 0.1795455,
                "tempo": 120.0
            },
            {
                "start_time": 11.3931818,
                "end_time": 11.5704545,
                "pitch": 41,
                "velocity": 80,
                "duration": 0.1772727,
                "tempo": 120.0
            },
            {
                "start_time": 11.5704545,
                "end_time": 11.7409091,
                "pitch": 29,
                "velocity": 80,
                "duration": 0.1704545,
                "tempo": 120.0
            },
            {
                "start_time": 11.7431818,
                "end_time": 11.9295455,
                "pitch": 41,
                "velocity": 80,
                "duration": 0.1863636,
                "tempo": 120.0
            },
            {
                "start_time": 11.9318182,
                "end_time": 12.0272727,
                "pitch": 29,
                "velocity": 80,
                "duration": 0.0954545,
                "tempo": 120.0
            },
            {
                "start_time": 12.0272727,
                "end_time": 12.1090909,
                "pitch": 41,
                "velocity": 80,
                "duration": 0.0818182,
                "tempo": 120.0
            },
            {
                "start_time": 12.1090909,
                "end_time": 12.1909091,
                "pitch": 29,
                "velocity": 80,
                "duration": 0.0818182,
                "tempo": 120.0
            },
            {
                "start_time": 12.1909091,
                "end_time": 12.2886364,
                "pitch": 39,
                "velocity": 80,
                "duration": 0.0977273,
                "tempo": 120.0
            },
            {
                "start_time": 12.2886364,
                "end_time": 12.3727273,
                "pitch": 41,
                "velocity": 80,
                "duration": 0.0840909,
                "tempo": 120.0
            },
            {
                "start_time": 12.3727273,
                "end_time": 12.4590909,
                "pitch": 39,
                "velocity": 80,
                "duration": 0.0863636,
                "tempo": 120.0
            },
            {
                "start_time": 12.4590909,
                "end_time": 12.5454545,
                "pitch": 37,
                "velocity": 80,
                "duration": 0.0863636,
                "tempo": 120.0
            },
            {
                "start_time": 12.5454545,
                "end_time": 12.6136364,
                "pitch": 35,
                "velocity": 80,
                "duration": 0.0681818,
                "tempo": 120.0
            },
            {
                "start_time": 12.6136364,
                "end_time": 12.6522727,
                "pitch": 32,
                "velocity": 80,
                "duration": 0.0386364,
                "tempo": 120.0
            },
            {
                "start_time": 12.6522727,
                "end_time": 12.8272727,
                "pitch": 29,
                "velocity": 80,
                "duration": 0.175,
                "tempo": 120.0
            },
            {
                "start_time": 12.8272727,
                "end_time": 12.9909091,
                "pitch": 41,
                "velocity": 80,
                "duration": 0.1636364,
                "tempo": 120.0
            },
            {
                "start_time": 12.9931818,
                "end_time": 13.1681818,
                "pitch": 29,
                "velocity": 80,
                "duration": 0.175,
                "tempo": 120.0
            },
            {
                "start_time": 13.1704545,
                "end_time": 13.35,
                "pitch": 41,
                "velocity": 80,
                "duration": 0.1795455,
                "tempo": 120.0
            },
            {
                "start_time": 13.35,
                "end_time": 13.5318182,
                "pitch": 29,
                "velocity": 80,
                "duration": 0.1818182,
                "tempo": 120.0
            },
            {
                "start_time": 13.5318182,
                "end_time": 13.7,
                "pitch": 41,
                "velocity": 80,
                "duration": 0.1681818,
                "tempo": 120.0
            },
            {
                "start_time": 13.7,
                "end_time": 13.8795455,
                "pitch": 29,
                "velocity": 80,
                "duration": 0.1795455,
                "tempo": 120.0
            },
            {
                "start_time": 13.8795455,
                "end_time": 14.2295455,
                "pitch": 31,
                "velocity": 80,
                "duration": 0.35,
                "tempo": 120.0
            },
            {
                "start_time": 14.2295455,
                "end_time": 14.4181818,
                "pitch": 43,
                "velocity": 80,
                "duration": 0.1886364,
                "tempo": 120.0
            },
            {
                "start_time": 14.4181818,
                "end_time": 14.5977273,
                "pitch": 31,
                "velocity": 80,
                "duration": 0.1795455,
                "tempo": 120.0
            },
            {
                "start_time": 6.1409091,
                "end_time": 14.6772727,
                "pitch": 0,
                "velocity": 80,
                "duration": 8.5363636,
                "tempo": 120.0
            },
            {
                "start_time": 14.5977273,
                "end_time": 14.6772727,
                "pitch": 41,
                "velocity": 80,
                "duration": 0.0795455,
                "tempo": 120.0
            },
            {
                "start_time": 14.6772727,
                "end_time": 14.7772727,
                "pitch": 43,
                "velocity": 80,
                "duration": 0.1,
                "tempo": 120.0
            },
            {
                "start_time": 14.7772727,
                "end_time": 14.9477273,
                "pitch": 31,
                "velocity": 80,
                "duration": 0.1704545,
                "tempo": 120.0
            },
            {
                "start_time": 14.9477273,
                "end_time": 15.1363636,
                "pitch": 43,
                "velocity": 80,
                "duration": 0.1886364,
                "tempo": 120.0
            },
            {
                "start_time": 15.1363636,
                "end_time": 15.3159091,
                "pitch": 31,
                "velocity": 80,
                "duration": 0.1795455,
                "tempo": 120.0
            },
            {
                "start_time": 15.3159091,
                "end_time": 15.4795455,
                "pitch": 43,
                "velocity": 80,
                "duration": 0.1636364,
                "tempo": 120.0
            },
            {
                "start_time": 15.4795455,
                "end_time": 15.6568182,
                "pitch": 31,
                "velocity": 80,
                "duration": 0.1772727,
                "tempo": 120.0
            },
            {
                "start_time": 15.6568182,
                "end_time": 15.8363636,
                "pitch": 43,
                "velocity": 80,
                "duration": 0.1795455,
                "tempo": 120.0
            },
            {
                "start_time": 15.8363636,
                "end_time": 16.0227273,
                "pitch": 31,
                "velocity": 80,
                "duration": 0.1863636,
                "tempo": 120.0
            },
            {
                "start_time": 16.025,
                "end_time": 16.1954545,
                "pitch": 43,
                "velocity": 80,
                "duration": 0.1704545,
                "tempo": 120.0
            },
            {
                "start_time": 16.1954545,
                "end_time": 16.375,
                "pitch": 31,
                "velocity": 80,
                "duration": 0.1795455,
                "tempo": 120.0
            },
            {
                "start_time": 16.3772727,
                "end_time": 16.5545455,
                "pitch": 43,
                "velocity": 80,
                "duration": 0.1772727,
                "tempo": 120.0
            },
            {
                "start_time": 16.5545455,
                "end_time": 16.7227273,
                "pitch": 31,
                "velocity": 80,
                "duration": 0.1681818,
                "tempo": 120.0
            },
            {
                "start_time": 16.7227273,
                "end_time": 16.9068182,
                "pitch": 45,
                "velocity": 80,
                "duration": 0.1840909,
                "tempo": 120.0
            },
            {
                "start_time": 16.9068182,
                "end_time": 17.0840909,
                "pitch": 33,
                "velocity": 80,
                "duration": 0.1772727,
                "tempo": 120.0
            },
            {
                "start_time": 17.0840909,
                "end_time": 17.2636364,
                "pitch": 45,
                "velocity": 80,
                "duration": 0.1795455,
                "tempo": 120.0
            },
            {
                "start_time": 17.2636364,
                "end_time": 17.4340909,
                "pitch": 33,
                "velocity": 80,
                "duration": 0.1704545,
                "tempo": 120.0
            },
            {
                "start_time": 17.4340909,
                "end_time": 17.625,
                "pitch": 43,
                "velocity": 80,
                "duration": 0.1909091,
                "tempo": 120.0
            },
            {
                "start_time": 17.625,
                "end_time": 17.8022727,
                "pitch": 33,
                "velocity": 80,
                "duration": 0.1772727,
                "tempo": 120.0
            },
            {
                "start_time": 17.8022727,
                "end_time": 17.9636364,
                "pitch": 45,
                "velocity": 80,
                "duration": 0.1613636,
                "tempo": 120.0
            },
            {
                "start_time": 17.9659091,
                "end_time": 18.0931818,
                "pitch": 33,
                "velocity": 80,
                "duration": 0.1272727,
                "tempo": 120.0
            },
            {
                "start_time": 18.0931818,
                "end_time": 18.1431818,
                "pitch": 31,
                "velocity": 80,
                "duration": 0.05,
                "tempo": 120.0
            },
            {
                "start_time": 18.1431818,
                "end_time": 18.325,
                "pitch": 45,
                "velocity": 80,
                "duration": 0.1818182,
                "tempo": 120.0
            },
            {
                "start_time": 18.325,
                "end_time": 18.5113636,
                "pitch": 29,
                "velocity": 80,
                "duration": 0.1863636,
                "tempo": 120.0
            },
            {
                "start_time": 18.5113636,
                "end_time": 18.6840909,
                "pitch": 41,
                "velocity": 80,
                "duration": 0.1727273,
                "tempo": 120.0
            },
            {
                "start_time": 18.6840909,
                "end_time": 18.8613636,
                "pitch": 29,
                "velocity": 80,
                "duration": 0.1772727,
                "tempo": 120.0
            },
            {
                "start_time": 18.8613636,
                "end_time": 19.0431818,
                "pitch": 41,
                "velocity": 80,
                "duration": 0.1818182,
                "tempo": 120.0
            },
            {
                "start_time": 19.0431818,
                "end_time": 19.2113636,
                "pitch": 29,
                "velocity": 80,
                "duration": 0.1681818,
                "tempo": 120.0
            },
            {
                "start_time": 19.2136364,
                "end_time": 19.4022727,
                "pitch": 41,
                "velocity": 80,
                "duration": 0.1886364,
                "tempo": 120.0
            },
            {
                "start_time": 19.4022727,
                "end_time": 19.5818182,
                "pitch": 29,
                "velocity": 80,
                "duration": 0.1795455,
                "tempo": 120.0
            },
            {
                "start_time": 19.5818182,
                "end_time": 19.9272727,
                "pitch": 31,
                "velocity": 80,
                "duration": 0.3454545,
                "tempo": 120.0
            },
            {
                "start_time": 18.0931818,
                "end_time": 20.1113636,
                "pitch": 43,
                "velocity": 80,
                "duration": 2.0181818,
                "tempo": 120.0
            },
            {
                "start_time": 19.9272727,
                "end_time": 20.1113636,
                "pitch": 43,
                "velocity": 80,
                "duration": 0.1840909,
                "tempo": 120.0
            },
            {
                "start_time": 20.1113636,
                "end_time": 20.2954545,
                "pitch": 31,
                "velocity": 80,
                "duration": 0.1840909,
                "tempo": 120.0
            },
            {
                "start_time": 14.6772727,
                "end_time": 20.3772727,
                "pitch": 0,
                "velocity": 80,
                "duration": 5.7,
                "tempo": 120.0
            },
            {
                "start_time": 20.2954545,
                "end_time": 20.3772727,
                "pitch": 41,
                "velocity": 80,
                "duration": 0.0818182,
                "tempo": 120.0
            },
            {
                "start_time": 20.3772727,
                "end_time": 20.4636364,
                "pitch": 43,
                "velocity": 80,
                "duration": 0.0863636,
                "tempo": 120.0
            },
            {
                "start_time": 20.4636364,
                "end_time": 20.6431818,
                "pitch": 31,
                "velocity": 80,
                "duration": 0.1795455,
                "tempo": 120.0
            },
            {
                "start_time": 20.6431818,
                "end_time": 20.8204545,
                "pitch": 43,
                "velocity": 80,
                "duration": 0.1772727,
                "tempo": 120.0
            },
            {
                "start_time": 20.8227273,
                "end_time": 21.0068182,
                "pitch": 31,
                "velocity": 80,
                "duration": 0.1840909,
                "tempo": 120.0
            },
            {
                "start_time": 21.0068182,
                "end_time": 21.175,
                "pitch": 43,
                "velocity": 80,
                "duration": 0.1681818,
                "tempo": 120.0
            },
            {
                "start_time": 21.175,
                "end_time": 21.35,
                "pitch": 31,
                "velocity": 80,
                "duration": 0.175,
                "tempo": 120.0
            },
            {
                "start_time": 21.3522727,
                "end_time": 21.5295455,
                "pitch": 43,
                "velocity": 80,
                "duration": 0.1772727,
                "tempo": 120.0
            },
            {
                "start_time": 21.5318182,
                "end_time": 21.7022727,
                "pitch": 31,
                "velocity": 80,
                "duration": 0.1704545,
                "tempo": 120.0
            },
            {
                "start_time": 21.7022727,
                "end_time": 21.8909091,
                "pitch": 43,
                "velocity": 80,
                "duration": 0.1886364,
                "tempo": 120.0
            },
            {
                "start_time": 21.8909091,
                "end_time": 22.0704545,
                "pitch": 31,
                "velocity": 80,
                "duration": 0.1795455,
                "tempo": 120.0
            },
            {
                "start_time": 22.0704545,
                "end_time": 22.25,
                "pitch": 43,
                "velocity": 80,
                "duration": 0.1795455,
                "tempo": 120.0
            },
            {
                "start_time": 22.25,
                "end_time": 22.4204545,
                "pitch": 31,
                "velocity": 80,
                "duration": 0.1704545,
                "tempo": 120.0
            },
            {
                "start_time": 22.4204545,
                "end_time": 22.6090909,
                "pitch": 45,
                "velocity": 80,
                "duration": 0.1886364,
                "tempo": 120.0
            },
            {
                "start_time": 22.6090909,
                "end_time": 22.7886364,
                "pitch": 33,
                "velocity": 80,
                "duration": 0.1795455,
                "tempo": 120.0
            },
            {
                "start_time": 22.7886364,
                "end_time": 22.95,
                "pitch": 45,
                "velocity": 80,
                "duration": 0.1613636,
                "tempo": 120.0
            },
            {
                "start_time": 22.95,
                "end_time": 23.1295455,
                "pitch": 33,
                "velocity": 80,
                "duration": 0.1795455,
                "tempo": 120.0
            },
            {
                "start_time": 23.1295455,
                "end_time": 23.3090909,
                "pitch": 43,
                "velocity": 80,
                "duration": 0.1795455,
                "tempo": 120.0
            },
            {
                "start_time": 23.3090909,
                "end_time": 23.4931818,
                "pitch": 33,
                "velocity": 80,
                "duration": 0.1840909,
                "tempo": 120.0
            },
            {
                "start_time": 23.4931818,
                "end_time": 23.6590909,
                "pitch": 45,
                "velocity": 80,
                "duration": 0.1659091,
                "tempo": 120.0
            },
            {
                "start_time": 23.6590909,
                "end_time": 23.7931818,
                "pitch": 33,
                "velocity": 80,
                "duration": 0.1340909,
                "tempo": 120.0
            },
            {
                "start_time": 23.7931818,
                "end_time": 23.8431818,
                "pitch": 31,
                "velocity": 80,
                "duration": 0.05,
                "tempo": 120.0
            },
            {
                "start_time": 23.8431818,
                "end_time": 24.0318182,
                "pitch": 45,
                "velocity": 80,
                "duration": 0.1886364,
                "tempo": 120.0
            },
            {
                "start_time": 24.0318182,
                "end_time": 24.1977273,
                "pitch": 29,
                "velocity": 80,
                "duration": 0.1659091,
                "tempo": 120.0
            },
            {
                "start_time": 24.1977273,
                "end_time": 24.2795455,
                "pitch": 29,
                "velocity": 80,
                "duration": 0.0818182,
                "tempo": 120.0
            },
            {
                "start_time": 24.3818182,
                "end_time": 24.5636364,
                "pitch": 29,
                "velocity": 80,
                "duration": 0.1818182,
                "tempo": 120.0
            },
            {
                "start_time": 24.5659091,
                "end_time": 24.6295455,
                "pitch": 29,
                "velocity": 80,
                "duration": 0.0636364,
                "tempo": 120.0
            },
            {
                "start_time": 24.75,
                "end_time": 24.9159091,
                "pitch": 29,
                "velocity": 80,
                "duration": 0.1659091,
                "tempo": 120.0
            },
            {
                "start_time": 24.9181818,
                "end_time": 25.0,
                "pitch": 29,
                "velocity": 80,
                "duration": 0.0818182,
                "tempo": 120.0
            },
            {
                "start_time": 25.1022727,
                "end_time": 25.1636364,
                "pitch": 29,
                "velocity": 80,
                "duration": 0.0613636,
                "tempo": 120.0
            },
            {
                "start_time": 25.2818182,
                "end_time": 25.6227273,
                "pitch": 29,
                "velocity": 80,
                "duration": 0.3409091,
                "tempo": 120.0
            },
            {
                "start_time": 25.6227273,
                "end_time": 25.6840909,
                "pitch": 29,
                "velocity": 80,
                "duration": 0.0613636,
                "tempo": 120.0
            },
            {
                "start_time": 25.8,
                "end_time": 25.9886364,
                "pitch": 29,
                "velocity": 80,
                "duration": 0.1886364,
                "tempo": 120.0
            },
            {
                "start_time": 25.9909091,
                "end_time": 26.0568182,
                "pitch": 29,
                "velocity": 80,
                "duration": 0.0659091,
                "tempo": 120.0
            },
            {
                "start_time": 26.1613636,
                "end_time": 26.2568182,
                "pitch": 29,
                "velocity": 80,
                "duration": 0.0954545,
                "tempo": 120.0
            },
            {
                "start_time": 26.2568182,
                "end_time": 26.3386364,
                "pitch": 41,
                "velocity": 80,
                "duration": 0.0818182,
                "tempo": 120.0
            },
            {
                "start_time": 26.3409091,
                "end_time": 26.4022727,
                "pitch": 29,
                "velocity": 80,
                "duration": 0.0613636,
                "tempo": 120.0
            },
            {
                "start_time": 26.5204545,
                "end_time": 26.5840909,
                "pitch": 29,
                "velocity": 80,
                "duration": 0.0636364,
                "tempo": 120.0
            },
            {
                "start_time": 26.6909091,
                "end_time": 26.775,
                "pitch": 29,
                "velocity": 80,
                "duration": 0.0840909,
                "tempo": 120.0
            },
            {
                "start_time": 26.8772727,
                "end_time": 27.0590909,
                "pitch": 31,
                "velocity": 80,
                "duration": 0.1818182,
                "tempo": 120.0
            },
            {
                "start_time": 27.0590909,
                "end_time": 27.1204545,
                "pitch": 31,
                "velocity": 80,
                "duration": 0.0613636,
                "tempo": 120.0
            },
            {
                "start_time": 27.2386364,
                "end_time": 27.4068182,
                "pitch": 31,
                "velocity": 80,
                "duration": 0.1681818,
                "tempo": 120.0
            },
            {
                "start_time": 27.4068182,
                "end_time": 27.4909091,
                "pitch": 31,
                "velocity": 80,
                "duration": 0.0840909,
                "tempo": 120.0
            },
            {
                "start_time": 27.5977273,
                "end_time": 27.775,
                "pitch": 31,
                "velocity": 80,
                "duration": 0.1772727,
                "tempo": 120.0
            },
            {
                "start_time": 27.7772727,
                "end_time": 27.8386364,
                "pitch": 31,
                "velocity": 80,
                "duration": 0.0613636,
                "tempo": 120.0
            },
            {
                "start_time": 27.9386364,
                "end_time": 28.0181818,
                "pitch": 31,
                "velocity": 80,
                "duration": 0.0795455,
                "tempo": 120.0
            },
            {
                "start_time": 28.1181818,
                "end_time": 28.4818182,
                "pitch": 31,
                "velocity": 80,
                "duration": 0.3636364,
                "tempo": 120.0
            },
            {
                "start_time": 28.4818182,
                "end_time": 28.5454545,
                "pitch": 31,
                "velocity": 80,
                "duration": 0.0636364,
                "tempo": 120.0
            },
            {
                "start_time": 28.6477273,
                "end_time": 28.8272727,
                "pitch": 31,
                "velocity": 80,
                "duration": 0.1795455,
                "tempo": 120.0
            },
            {
                "start_time": 28.8272727,
                "end_time": 28.8909091,
                "pitch": 31,
                "velocity": 80,
                "duration": 0.0636364,
                "tempo": 120.0
            },
            {
                "start_time": 29.0068182,
                "end_time": 29.0909091,
                "pitch": 31,
                "velocity": 80,
                "duration": 0.0840909,
                "tempo": 120.0
            },
            {
                "start_time": 23.7931818,
                "end_time": 29.1772727,
                "pitch": 43,
                "velocity": 80,
                "duration": 5.3840909,
                "tempo": 120.0
            },
            {
                "start_time": 29.0909091,
                "end_time": 29.1772727,
                "pitch": 43,
                "velocity": 80,
                "duration": 0.0863636,
                "tempo": 120.0
            },
            {
                "start_time": 29.1772727,
                "end_time": 29.2613636,
                "pitch": 31,
                "velocity": 80,
                "duration": 0.0840909,
                "tempo": 120.0
            },
            {
                "start_time": 29.3681818,
                "end_time": 29.4295455,
                "pitch": 31,
                "velocity": 80,
                "duration": 0.0613636,
                "tempo": 120.0
            },
            {
                "start_time": 29.5454545,
                "end_time": 29.6090909,
                "pitch": 31,
                "velocity": 80,
                "duration": 0.0636364,
                "tempo": 120.0
            },
            {
                "start_time": 29.725,
                "end_time": 29.8954545,
                "pitch": 33,
                "velocity": 80,
                "duration": 0.1704545,
                "tempo": 120.0
            },
            {
                "start_time": 29.8954545,
                "end_time": 29.9795455,
                "pitch": 33,
                "velocity": 80,
                "duration": 0.0840909,
                "tempo": 120.0
            },
            {
                "start_time": 30.0840909,
                "end_time": 30.2636364,
                "pitch": 33,
                "velocity": 80,
                "duration": 0.1795455,
                "tempo": 120.0
            },
            {
                "start_time": 30.2636364,
                "end_time": 30.3272727,
                "pitch": 33,
                "velocity": 80,
                "duration": 0.0636364,
                "tempo": 120.0
            },
            {
                "start_time": 30.425,
                "end_time": 30.6045455,
                "pitch": 33,
                "velocity": 80,
                "duration": 0.1795455,
                "tempo": 120.0
            },
            {
                "start_time": 30.6045455,
                "end_time": 30.6681818,
                "pitch": 33,
                "velocity": 80,
                "duration": 0.0636364,
                "tempo": 120.0
            },
            {
                "start_time": 30.7840909,
                "end_time": 30.85,
                "pitch": 33,
                "velocity": 80,
                "duration": 0.0659091,
                "tempo": 120.0
            },
            {
                "start_time": 30.9727273,
                "end_time": 31.3227273,
                "pitch": 33,
                "velocity": 80,
                "duration": 0.35,
                "tempo": 120.0
            },
            {
                "start_time": 31.325,
                "end_time": 31.3863636,
                "pitch": 33,
                "velocity": 80,
                "duration": 0.0613636,
                "tempo": 120.0
            },
            {
                "start_time": 31.5022727,
                "end_time": 31.6704545,
                "pitch": 33,
                "velocity": 80,
                "duration": 0.1681818,
                "tempo": 120.0
            },
            {
                "start_time": 31.6704545,
                "end_time": 31.7522727,
                "pitch": 33,
                "velocity": 80,
                "duration": 0.0818182,
                "tempo": 120.0
            },
            {
                "start_time": 31.8545455,
                "end_time": 31.95,
                "pitch": 33,
                "velocity": 80,
                "duration": 0.0954545,
                "tempo": 120.0
            },
            {
                "start_time": 31.95,
                "end_time": 32.0318182,
                "pitch": 45,
                "velocity": 80,
                "duration": 0.0818182,
                "tempo": 120.0
            },
            {
                "start_time": 32.0340909,
                "end_time": 32.0954545,
                "pitch": 33,
                "velocity": 80,
                "duration": 0.0613636,
                "tempo": 120.0
            },
            {
                "start_time": 32.2113636,
                "end_time": 32.2772727,
                "pitch": 33,
                "velocity": 80,
                "duration": 0.0659091,
                "tempo": 120.0
            },
            {
                "start_time": 32.3840909,
                "end_time": 32.4659091,
                "pitch": 33,
                "velocity": 80,
                "duration": 0.0818182,
                "tempo": 120.0
            },
            {
                "start_time": 32.5727273,
                "end_time": 32.7522727,
                "pitch": 33,
                "velocity": 80,
                "duration": 0.1795455,
                "tempo": 120.0
            },
            {
                "start_time": 32.7522727,
                "end_time": 32.8136364,
                "pitch": 33,
                "velocity": 80,
                "duration": 0.0613636,
                "tempo": 120.0
            },
            {
                "start_time": 32.9136364,
                "end_time": 33.0931818,
                "pitch": 33,
                "velocity": 80,
                "duration": 0.1795455,
                "tempo": 120.0
            },
            {
                "start_time": 33.0931818,
                "end_time": 33.1545455,
                "pitch": 33,
                "velocity": 80,
                "duration": 0.0613636,
                "tempo": 120.0
            },
            {
                "start_time": 33.2704545,
                "end_time": 33.4590909,
                "pitch": 33,
                "velocity": 80,
                "duration": 0.1886364,
                "tempo": 120.0
            },
            {
                "start_time": 33.4590909,
                "end_time": 33.5272727,
                "pitch": 33,
                "velocity": 80,
                "duration": 0.0681818,
                "tempo": 120.0
            },
            {
                "start_time": 33.6318182,
                "end_time": 33.7113636,
                "pitch": 33,
                "velocity": 80,
                "duration": 0.0795455,
                "tempo": 120.0
            },
            {
                "start_time": 33.8113636,
                "end_time": 34.1590909,
                "pitch": 33,
                "velocity": 80,
                "duration": 0.3477273,
                "tempo": 120.0
            },
            {
                "start_time": 34.1613636,
                "end_time": 34.3477273,
                "pitch": 45,
                "velocity": 80,
                "duration": 0.1863636,
                "tempo": 120.0
            },
            {
                "start_time": 34.35,
                "end_time": 34.5295455,
                "pitch": 32,
                "velocity": 80,
                "duration": 0.1795455,
                "tempo": 120.0
            },
            {
                "start_time": 34.5295455,
                "end_time": 34.7090909,
                "pitch": 44,
                "velocity": 80,
                "duration": 0.1795455,
                "tempo": 120.0
            },
            {
                "start_time": 34.7090909,
                "end_time": 34.7909091,
                "pitch": 31,
                "velocity": 80,
                "duration": 0.0818182,
                "tempo": 120.0
            },
            {
                "start_time": 34.7909091,
                "end_time": 34.875,
                "pitch": 43,
                "velocity": 80,
                "duration": 0.0840909,
                "tempo": 120.0
            },
            {
                "start_time": 34.875,
                "end_time": 34.975,
                "pitch": 30,
                "velocity": 80,
                "duration": 0.1,
                "tempo": 120.0
            },
            {
                "start_time": 34.975,
                "end_time": 35.0590909,
                "pitch": 42,
                "velocity": 80,
                "duration": 0.0840909,
                "tempo": 120.0
            },
            {
                "start_time": 35.0590909,
                "end_time": 35.1409091,
                "pitch": 29,
                "velocity": 80,
                "duration": 0.0818182,
                "tempo": 120.0
            },
            {
                "start_time": 35.1409091,
                "end_time": 35.2431818,
                "pitch": 41,
                "velocity": 80,
                "duration": 0.1022727,
                "tempo": 120.0
            },
            {
                "start_time": 35.2431818,
                "end_time": 35.325,
                "pitch": 28,
                "velocity": 80,
                "duration": 0.0818182,
                "tempo": 120.0
            },
            {
                "start_time": 35.3272727,
                "end_time": 35.4136364,
                "pitch": 40,
                "velocity": 80,
                "duration": 0.0863636,
                "tempo": 120.0
            },
            {
                "start_time": 35.4136364,
                "end_time": 35.5909091,
                "pitch": 41,
                "velocity": 80,
                "duration": 0.1772727,
                "tempo": 120.0
            },
            {
                "start_time": 35.5909091,
                "end_time": 35.6522727,
                "pitch": 41,
                "velocity": 80,
                "duration": 0.0613636,
                "tempo": 120.0
            },
            {
                "start_time": 35.7704545,
                "end_time": 35.9522727,
                "pitch": 41,
                "velocity": 80,
                "duration": 0.1818182,
                "tempo": 120.0
            },
            {
                "start_time": 35.9522727,
                "end_time": 36.0181818,
                "pitch": 41,
                "velocity": 80,
                "duration": 0.0659091,
                "tempo": 120.0
            },
            {
                "start_time": 36.1227273,
                "end_time": 36.3,
                "pitch": 41,
                "velocity": 80,
                "duration": 0.1772727,
                "tempo": 120.0
            },
            {
                "start_time": 36.3,
                "end_time": 36.3636364,
                "pitch": 41,
                "velocity": 80,
                "duration": 0.0636364,
                "tempo": 120.0
            },
            {
                "start_time": 36.4795455,
                "end_time": 36.5454545,
                "pitch": 41,
                "velocity": 80,
                "duration": 0.0659091,
                "tempo": 120.0
            },
            {
                "start_time": 36.65,
                "end_time": 37.0181818,
                "pitch": 41,
                "velocity": 80,
                "duration": 0.3681818,
                "tempo": 120.0
            },
            {
                "start_time": 37.0181818,
                "end_time": 37.0818182,
                "pitch": 41,
                "velocity": 80,
                "duration": 0.0636364,
                "tempo": 120.0
            },
            {
                "start_time": 37.1977273,
                "end_time": 37.3681818,
                "pitch": 41,
                "velocity": 80,
                "duration": 0.1704545,
                "tempo": 120.0
            },
            {
                "start_time": 37.3681818,
                "end_time": 37.4522727,
                "pitch": 41,
                "velocity": 80,
                "duration": 0.0840909,
                "tempo": 120.0
            },
            {
                "start_time": 37.5568182,
                "end_time": 37.6363636,
                "pitch": 41,
                "velocity": 80,
                "duration": 0.0795455,
                "tempo": 120.0
            },
            {
                "start_time": 37.6386364,
                "end_time": 37.7363636,
                "pitch": 53,
                "velocity": 80,
                "duration": 0.0977273,
                "tempo": 120.0
            },
            {
                "start_time": 37.7363636,
                "end_time": 37.8,
                "pitch": 41,
                "velocity": 80,
                "duration": 0.0636364,
                "tempo": 120.0
            },
            {
                "start_time": 37.9,
                "end_time": 37.9772727,
                "pitch": 41,
                "velocity": 80,
                "duration": 0.0772727,
                "tempo": 120.0
            },
            {
                "start_time": 38.0772727,
                "end_time": 38.1409091,
                "pitch": 41,
                "velocity": 80,
                "duration": 0.0636364,
                "tempo": 120.0
            },
            {
                "start_time": 38.2568182,
                "end_time": 38.4409091,
                "pitch": 43,
                "velocity": 80,
                "duration": 0.1840909,
                "tempo": 120.0
            },
            {
                "start_time": 38.4409091,
                "end_time": 38.5068182,
                "pitch": 43,
                "velocity": 80,
                "duration": 0.0659091,
                "tempo": 120.0
            },
            {
                "start_time": 38.6090909,
                "end_time": 38.7909091,
                "pitch": 43,
                "velocity": 80,
                "duration": 0.1818182,
                "tempo": 120.0
            },
            {
                "start_time": 38.7931818,
                "end_time": 38.8568182,
                "pitch": 43,
                "velocity": 80,
                "duration": 0.0636364,
                "tempo": 120.0
            },
            {
                "start_time": 38.9772727,
                "end_time": 39.1431818,
                "pitch": 43,
                "velocity": 80,
                "duration": 0.1659091,
                "tempo": 120.0
            },
            {
                "start_time": 39.1454545,
                "end_time": 39.2272727,
                "pitch": 43,
                "velocity": 80,
                "duration": 0.0818182,
                "tempo": 120.0
            },
            {
                "start_time": 39.3295455,
                "end_time": 39.3909091,
                "pitch": 43,
                "velocity": 80,
                "duration": 0.0613636,
                "tempo": 120.0
            },
            {
                "start_time": 39.5090909,
                "end_time": 39.8590909,
                "pitch": 43,
                "velocity": 80,
                "duration": 0.35,
                "tempo": 120.0
            },
            {
                "start_time": 39.8590909,
                "end_time": 39.9409091,
                "pitch": 43,
                "velocity": 80,
                "duration": 0.0818182,
                "tempo": 120.0
            },
            {
                "start_time": 40.0477273,
                "end_time": 40.225,
                "pitch": 43,
                "velocity": 80,
                "duration": 0.1772727,
                "tempo": 120.0
            },
            {
                "start_time": 40.2272727,
                "end_time": 40.2886364,
                "pitch": 43,
                "velocity": 80,
                "duration": 0.0613636,
                "tempo": 120.0
            },
            {
                "start_time": 40.3886364,
                "end_time": 40.4840909,
                "pitch": 43,
                "velocity": 80,
                "duration": 0.0954545,
                "tempo": 120.0
            },
            {
                "start_time": 40.4840909,
                "end_time": 40.5681818,
                "pitch": 55,
                "velocity": 80,
                "duration": 0.0840909,
                "tempo": 120.0
            },
            {
                "start_time": 40.5681818,
                "end_time": 40.6295455,
                "pitch": 43,
                "velocity": 80,
                "duration": 0.0613636,
                "tempo": 120.0
            },
            {
                "start_time": 40.7477273,
                "end_time": 40.8136364,
                "pitch": 43,
                "velocity": 80,
                "duration": 0.0659091,
                "tempo": 120.0
            },
            {
                "start_time": 40.9363636,
                "end_time": 41.0022727,
                "pitch": 43,
                "velocity": 80,
                "duration": 0.0659091,
                "tempo": 120.0
            },
            {
                "start_time": 41.1068182,
                "end_time": 41.2863636,
                "pitch": 45,
                "velocity": 80,
                "duration": 0.1795455,
                "tempo": 120.0
            },
            {
                "start_time": 41.2863636,
                "end_time": 41.3477273,
                "pitch": 45,
                "velocity": 80,
                "duration": 0.0613636,
                "tempo": 120.0
            },
            {
                "start_time": 41.4636364,
                "end_time": 41.6363636,
                "pitch": 45,
                "velocity": 80,
                "duration": 0.1727273,
                "tempo": 120.0
            },
            {
                "start_time": 41.6363636,
                "end_time": 41.7204545,
                "pitch": 45,
                "velocity": 80,
                "duration": 0.0840909,
                "tempo": 120.0
            },
            {
                "start_time": 41.825,
                "end_time": 42.0022727,
                "pitch": 45,
                "velocity": 80,
                "duration": 0.1772727,
                "tempo": 120.0
            },
            {
                "start_time": 42.0045455,
                "end_time": 42.0659091,
                "pitch": 45,
                "velocity": 80,
                "duration": 0.0613636,
                "tempo": 120.0
            },
            {
                "start_time": 42.1840909,
                "end_time": 42.2477273,
                "pitch": 45,
                "velocity": 80,
                "duration": 0.0636364,
                "tempo": 120.0
            },
            {
                "start_time": 42.35,
                "end_time": 42.7136364,
                "pitch": 45,
                "velocity": 80,
                "duration": 0.3636364,
                "tempo": 120.0
            },
            {
                "start_time": 42.7136364,
                "end_time": 42.775,
                "pitch": 45,
                "velocity": 80,
                "duration": 0.0613636,
                "tempo": 120.0
            },
            {
                "start_time": 42.875,
                "end_time": 43.0590909,
                "pitch": 45,
                "velocity": 80,
                "duration": 0.1840909,
                "tempo": 120.0
            },
            {
                "start_time": 43.0613636,
                "end_time": 43.125,
                "pitch": 45,
                "velocity": 80,
                "duration": 0.0636364,
                "tempo": 120.0
            },
            {
                "start_time": 43.2431818,
                "end_time": 43.3272727,
                "pitch": 45,
                "velocity": 80,
                "duration": 0.0840909,
                "tempo": 120.0
            },
            {
                "start_time": 43.3272727,
                "end_time": 43.4272727,
                "pitch": 57,
                "velocity": 80,
                "duration": 0.1,
                "tempo": 120.0
            },
            {
                "start_time": 43.4295455,
                "end_time": 43.4931818,
                "pitch": 45,
                "velocity": 80,
                "duration": 0.0636364,
                "tempo": 120.0
            },
            {
                "start_time": 43.5954545,
                "end_time": 43.675,
                "pitch": 45,
                "velocity": 80,
                "duration": 0.0795455,
                "tempo": 120.0
            },
            {
                "start_time": 43.775,
                "end_time": 43.8386364,
                "pitch": 45,
                "velocity": 80,
                "duration": 0.0636364,
                "tempo": 120.0
            },
            {
                "start_time": 43.9545455,
                "end_time": 44.125,
                "pitch": 45,
                "velocity": 80,
                "duration": 0.1704545,
                "tempo": 120.0
            },
            {
                "start_time": 44.125,
                "end_time": 44.2090909,
                "pitch": 45,
                "velocity": 80,
                "duration": 0.0840909,
                "tempo": 120.0
            },
            {
                "start_time": 44.3136364,
                "end_time": 44.4931818,
                "pitch": 45,
                "velocity": 80,
                "duration": 0.1795455,
                "tempo": 120.0
            },
            {
                "start_time": 44.4931818,
                "end_time": 44.5568182,
                "pitch": 45,
                "velocity": 80,
                "duration": 0.0636364,
                "tempo": 120.0
            },
            {
                "start_time": 44.6704545,
                "end_time": 44.8431818,
                "pitch": 45,
                "velocity": 80,
                "duration": 0.1727273,
                "tempo": 120.0
            },
            {
                "start_time": 44.8431818,
                "end_time": 44.9272727,
                "pitch": 45,
                "velocity": 80,
                "duration": 0.0840909,
                "tempo": 120.0
            },
            {
                "start_time": 45.0318182,
                "end_time": 45.0954545,
                "pitch": 45,
                "velocity": 80,
                "duration": 0.0636364,
                "tempo": 120.0
            },
            {
                "start_time": 45.2113636,
                "end_time": 45.5522727,
                "pitch": 45,
                "velocity": 80,
                "duration": 0.3409091,
                "tempo": 120.0
            },
            {
                "start_time": 45.5522727,
                "end_time": 45.7295455,
                "pitch": 57,
                "velocity": 80,
                "duration": 0.1772727,
                "tempo": 120.0
            },
            {
                "start_time": 45.7318182,
                "end_time": 45.9159091,
                "pitch": 44,
                "velocity": 80,
                "duration": 0.1840909,
                "tempo": 120.0
            },
            {
                "start_time": 45.9159091,
                "end_time": 46.0840909,
                "pitch": 56,
                "velocity": 80,
                "duration": 0.1681818,
                "tempo": 120.0
            },
            {
                "start_time": 46.0840909,
                "end_time": 46.1795455,
                "pitch": 43,
                "velocity": 80,
                "duration": 0.0954545,
                "tempo": 120.0
            },
            {
                "start_time": 46.1795455,
                "end_time": 46.2613636,
                "pitch": 55,
                "velocity": 80,
                "duration": 0.0818182,
                "tempo": 120.0
            },
            {
                "start_time": 46.2613636,
                "end_time": 46.3409091,
                "pitch": 42,
                "velocity": 80,
                "duration": 0.0795455,
                "tempo": 120.0
            },
            {
                "start_time": 46.3431818,
                "end_time": 46.4409091,
                "pitch": 54,
                "velocity": 80,
                "duration": 0.0977273,
                "tempo": 120.0
            },
            {
                "start_time": 46.4409091,
                "end_time": 46.525,
                "pitch": 41,
                "velocity": 80,
                "duration": 0.0840909,
                "tempo": 120.0
            },
            {
                "start_time": 46.525,
                "end_time": 46.6113636,
                "pitch": 53,
                "velocity": 80,
                "duration": 0.0863636,
                "tempo": 120.0
            },
            {
                "start_time": 46.6113636,
                "end_time": 46.7136364,
                "pitch": 40,
                "velocity": 80,
                "duration": 0.1022727,
                "tempo": 120.0
            },
            {
                "start_time": 46.7136364,
                "end_time": 46.8045455,
                "pitch": 52,
                "velocity": 80,
                "duration": 0.0909091,
                "tempo": 120.0
            },
            {
                "start_time": 46.8045455,
                "end_time": 46.9840909,
                "pitch": 29,
                "velocity": 80,
                "duration": 0.1795455,
                "tempo": 120.0
            },
            {
                "start_time": 46.9840909,
                "end_time": 47.0181818,
                "pitch": 41,
                "velocity": 80,
                "duration": 0.0340909,
                "tempo": 120.0
            }
        ]
    }
}