{
    "mood": "happy",
    "instruments": {
        "Church Organ": [
            {
                "start_time": 0.0863636,
                "end_time": 1.4068182,
                "pitch": 62,
                "velocity": 80,
                "duration": 1.3204545,
                "tempo": 120.0
            },
            {
                "start_time": 1.4409091,
                "end_time": 2.7704545,
                "pitch": 63,
                "velocity": 80,
                "duration": 1.3295455,
                "tempo": 120.0
            },
            {
                "start_time": 2.8045455,
                "end_time": 4.1272727,
                "pitch": 64,
                "velocity": 80,
                "duration": 1.3227273,
                "tempo": 120.0
            },
            {
                "start_time": 4.1613636,
                "end_time": 5.5090909,
                "pitch": 65,
                "velocity": 80,
                "duration": 1.3477273,
                "tempo": 120.0
            }
        ],
        "Violin": [
            {
                "start_time": 0.0045455,
                "end_time": 0.4181818,
                "pitch": 60,
                "velocity": 80,
                "duration": 0.4136364,
                "tempo": 120.0
            },
            {
                "start_time": 0.4181818,
                "end_time": 0.9295455,
                "pitch": 62,
                "velocity": 80,
                "duration": 0.5113636,
                "tempo": 120.0
            },
            {
                "start_time": 0.9295455,
                "end_time": 1.3227273,
                "pitch": 64,
                "velocity": 80,
                "duration": 0.3931818,
                "tempo": 120.0
            },
            {
                "start_time": 1.3568182,
                "end_time": 1.7727273,
                "pitch": 60,
                "velocity": 80,
                "duration": 0.4159091,
                "tempo": 120.0
            },
            {
                "start_time": 1.7727273,
                "end_time": 2.2909091,
                "pitch": 62,
                "velocity": 80,
                "duration": 0.5181818,
                "tempo": 120.0
            },
            {
                "start_time": 2.2909091,
                "end_time": 2.6863636,
                "pitch": 64,
                "velocity": 80,
                "duration": 0.3954545,
                "tempo": 120.0
            },
            {
                "start_time": 2.7022727,
                "end_time": 3.1227273,
                "pitch": 60,
                "velocity": 80,
                "duration": 0.4204545,
                "tempo": 120.0
            },
            {
                "start_time": 3.1227273,
                "end_time": 3.6431818,
                "pitch": 62,
                "velocity": 80,
                "duration": 0.5204545,
                "tempo": 120.0
            },
            {
                "start_time": 3.6431818,
                "end_time": 4.2477273,
                "pitch": 64,
                "velocity": 80,
                "duration": 0.6045455,
                "tempo": 120.0
            },
            {
                "start_time": 4.2477273,
                "end_time": 4.55,
                "pitch": 66,
                "velocity": 80,
                "duration": 0.3022727,
                "tempo": 120.0
            },
            {
                "start_time": 4.55,
                "end_time": 5.2409091,
                "pitch": 67,
                "velocity": 80,
                "duration": 0.6909091,
                "tempo": 120.0
            },
            {
                "start_time": 5.2409091,
                "end_time": 5.425,
                "pitch": 69,
                "velocity": 80,
                "duration": 0.1840909,
                "tempo": 120.0
            }
        ],
        "Harpsichord": [
            {
                "start_time": 5.4409091,
                "end_time": 5.5909091,
                "pitch": 67,
                "velocity": 80,
                "duration": 0.15,
                "tempo": 120.0
            },
            {
                "start_time": 5.6090909,
                "end_time": 5.7590909,
                "pitch": 70,
                "velocity": 80,
                "duration": 0.15,
                "tempo": 120.0
            },
            {
                "start_time": 5.7931818,
                "end_time": 5.9272727,
                "pitch": 74,
                "velocity": 80,
                "duration": 0.1340909,
                "tempo": 120.0
            },
            {
                "start_time": 5.9590909,
                "end_time": 6.0931818,
                "pitch": 79,
                "velocity": 80,
                "duration": 0.1340909,
                "tempo": 120.0
            },
            {
                "start_time": 6.1272727,
                "end_time": 6.2568182,
                "pitch": 67,
                "velocity": 80,
                "duration": 0.1295455,
                "tempo": 120.0
            },
            {
                "start_time": 6.2909091,
                "end_time": 6.4363636,
                "pitch": 70,
                "velocity": 80,
                "duration": 0.1454545,
                "tempo": 120.0
            },
            {
                "start_time": 6.4522727,
                "end_time": 6.6022727,
                "pitch": 74,
                "velocity": 80,
                "duration": 0.15,
                "tempo": 120.0
            },
            {
                "start_time": 6.6204545,
                "end_time": 6.7704545,
                "pitch": 79,
                "velocity": 80,
                "duration": 0.15,
                "tempo": 120.0
            },
            {
                "start_time": 6.8045455,
                "end_time": 6.9409091,
                "pitch": 67,
                "velocity": 80,
                "duration": 0.1363636,
                "tempo": 120.0
            },
            {
                "start_time": 6.975,
                "end_time": 7.1136364,
                "pitch": 70,
                "velocity": 80,
                "duration": 0.1386364,
                "tempo": 120.0
            },
            {
                "start_time": 7.1477273,
                "end_time": 7.2795455,
                "pitch": 74,
                "velocity": 80,
                "duration": 0.1318182,
                "tempo": 120.0
            },
            {
                "start_time": 7.3113636,
                "end_time": 7.4568182,
                "pitch": 79,
                "velocity": 80,
                "duration": 0.1454545,
                "tempo": 120.0
            },
            {
                "start_time": 7.475,
                "end_time": 7.625,
                "pitch": 67,
                "velocity": 80,
                "duration": 0.15,
                "tempo": 120.0
            },
            {
                "start_time": 7.6409091,
                "end_time": 7.7909091,
                "pitch": 70,
                "velocity": 80,
                "duration": 0.15,
                "tempo": 120.0
            },
            {
                "start_time": 7.825,
                "end_time": 7.9636364,
                "pitch": 74,
                "velocity": 80,
                "duration": 0.1386364,
                "tempo": 120.0
            },
            {
                "start_time": 7.9977273,
                "end_time": 8.1340909,
                "pitch": 79,
                "velocity": 80,
                "duration": 0.1363636,
                "tempo": 120.0
            },
            {
                "start_time": 8.1704545,
                "end_time": 8.3,
                "pitch": 67,
                "velocity": 80,
                "duration": 0.1295455,
                "tempo": 120.0
            },
            {
                "start_time": 8.3318182,
                "end_time": 8.4795455,
                "pitch": 70,
                "velocity": 80,
                "duration": 0.1477273,
                "tempo": 120.0
            },
            {
                "start_time": 8.4954545,
                "end_time": 8.6454545,
                "pitch": 74,
                "velocity": 80,
                "duration": 0.15,
                "tempo": 120.0
            },
            {
                "start_time": 8.6613636,
                "end_time": 8.8136364,
                "pitch": 79,
                "velocity": 80,
                "duration": 0.1522727,
                "tempo": 120.0
            },
            {
                "start_time": 8.8454545,
                "end_time": 8.9795455,
                "pitch": 67,
                "velocity": 80,
                "duration": 0.1340909,
                "tempo": 120.0
            },
            {
                "start_time": 9.0136364,
                "end_time": 9.1477273,
                "pitch": 70,
                "velocity": 80,
                "duration": 0.1340909,
                "tempo": 120.0
            },
            {
                "start_time": 9.1818182,
                "end_time": 9.3159091,
                "pitch": 74,
                "velocity": 80,
                "duration": 0.1340909,
                "tempo": 120.0
            },
            {
                "start_time": 9.3477273,
                "end_time": 9.5,
                "pitch": 79,
                "velocity": 80,
                "duration": 0.1522727,
                "tempo": 120.0
            },
            {
                "start_time": 9.5159091,
                "end_time": 9.6613636,
                "pitch": 67,
                "velocity": 80,
                "duration": 0.1454545,
                "tempo": 120.0
            },
            {
                "start_time": 9.6954545,
                "end_time": 9.825,
                "pitch": 70,
                "velocity": 80,
                "duration": 0.1295455,
                "tempo": 120.0
            },
            {
                "start_time": 9.8568182,
                "end_time": 9.9954545,
                "pitch": 74,
                "velocity": 80,
                "duration": 0.1386364,
                "tempo": 120.0
            },
            {
                "start_time": 10.0295455,
                "end_time": 10.1681818,
                "pitch": 79,
                "velocity": 80,
                "duration": 0.1386364,
                "tempo": 120.0
            },
            {
                "start_time": 10.2022727,
                "end_time": 10.3522727,
                "pitch": 67,
                "velocity": 80,
                "duration": 0.15,
                "tempo": 120.0
            },
            {
                "start_time": 10.3704545,
                "end_time": 10.5204545,
                "pitch": 70,
                "velocity": 80,
                "duration": 0.15,
                "tempo": 120.0
            },
            {
                "start_time": 10.5363636,
                "end_time": 10.6840909,
                "pitch": 74,
                "velocity": 80,
                "duration": 0.1477273,
                "tempo": 120.0
            },
            {
                "start_time": 10.7159091,
                "end_time": 10.8454545,
                "pitch": 79,
                "velocity": 80,
                "duration": 0.1295455,
                "tempo": 120.0
            },
            {
                "start_time": 10.8818182,
                "end_time": 11.0159091,
                "pitch": 67,
                "velocity": 80,
                "duration": 0.1340909,
                "tempo": 120.0
            },
            {
                "start_time": 11.05,
                "end_time": 11.1886364,
                "pitch": 70,
                "velocity": 80,
                "duration": 0.1386364,
                "tempo": 120.0
            },
            {
                "start_time": 11.2227273,
                "end_time": 11.3704545,
                "pitch": 74,
                "velocity": 80,
                "duration": 0.1477273,
                "tempo": 120.0
            },
            {
                "start_time": 11.3863636,
                "end_time": 11.5318182,
                "pitch": 79,
                "velocity": 80,
                "duration": 0.1454545,
                "tempo": 120.0
            },
            {
                "start_time": 11.55,
                "end_time": 11.7,
                "pitch": 67,
                "velocity": 80,
                "duration": 0.15,
                "tempo": 120.0
            },
            {
                "start_time": 11.7340909,
                "end_time": 11.8659091,
                "pitch": 70,
                "velocity": 80,
                "duration": 0.1318182,
                "tempo": 120.0
            },
            {
                "start_time": 11.9,
                "end_time": 12.0386364,
                "pitch": 74,
                "velocity": 80,
                "duration": 0.1386364,
                "tempo": 120.0
            },
            {
                "start_time": 12.0727273,
                "end_time": 12.2090909,
                "pitch": 79,
                "velocity": 80,
                "duration": 0.1363636,
                "tempo": 120.0
            },
            {
                "start_time": 12.2454545,
                "end_time": 12.3909091,
                "pitch": 67,
                "velocity": 80,
                "duration": 0.1454545,
                "tempo": 120.0
            },
            {
                "start_time": 12.4068182,
                "end_time": 12.5545455,
                "pitch": 70,
                "velocity": 80,
                "duration": 0.1477273,
                "tempo": 120.0
            },
            {
                "start_time": 12.5704545,
                "end_time": 12.7204545,
                "pitch": 74,
                "velocity": 80,
                "duration": 0.15,
                "tempo": 120.0
            },
            {
                "start_time": 12.7545455,
                "end_time": 12.8886364,
                "pitch": 79,
                "velocity": 80,
                "duration": 0.1340909,
                "tempo": 120.0
            },
            {
                "start_time": 12.9204545,
                "end_time": 13.0590909,
                "pitch": 67,
                "velocity": 80,
                "duration": 0.1386364,
                "tempo": 120.0
            },
            {
                "start_time": 13.0931818,
                "end_time": 13.2318182,
                "pitch": 70,
                "velocity": 80,
                "duration": 0.1386364,
                "tempo": 120.0
            },
            {
                "start_time": 13.2659091,
                "end_time": 13.4113636,
                "pitch": 74,
                "velocity": 80,
                "duration": 0.1454545,
                "tempo": 120.0
            },
            {
                "start_time": 13.4295455,
                "end_time": 13.575,
                "pitch": 79,
                "velocity": 80,
                "duration": 0.1454545,
                "tempo": 120.0
            },
            {
                "start_time": 13.5931818,
                "end_time": 13.7409091,
                "pitch": 67,
                "velocity": 80,
                "duration": 0.1477273,
                "tempo": 120.0
            },
            {
                "start_time": 13.775,
                "end_time": 13.9090909,
                "pitch": 70,
                "velocity": 80,
                "duration": 0.1340909,
                "tempo": 120.0
            },
            {
                "start_time": 13.9431818,
                "end_time": 14.0772727,
                "pitch": 74,
                "velocity": 80,
                "duration": 0.1340909,
                "tempo": 120.0
            },
            {
                "start_time": 14.1113636,
                "end_time": 14.2431818,
                "pitch": 79,
                "velocity": 80,
                "duration": 0.1318182,
                "tempo": 120.0
            },
            {
                "start_time": 14.2772727,
                "end_time": 14.4272727,
                "pitch": 67,
                "velocity": 80,
                "duration": 0.15,
                "tempo": 120.0
            },
            {
                "start_time": 14.4454545,
                "end_time": 14.5954545,
                "pitch": 70,
                "velocity": 80,
                "duration": 0.15,
                "tempo": 120.0
            },
            {
                "start_time": 14.6295455,
                "end_time": 14.7659091,
                "pitch": 74,
                "velocity": 80,
                "duration": 0.1363636,
                "tempo": 120.0
            },
            {
                "start_time": 14.8022727,
                "end_time": 14.9386364,
                "pitch": 79,
                "velocity": 80,
                "duration": 0.1363636,
                "tempo": 120.0
            },
            {
                "start_time": 14.975,
                "end_time": 15.1045455,
                "pitch": 67,
                "velocity": 80,
                "duration": 0.1295455,
                "tempo": 120.0
            },
            {
                "start_time": 15.1363636,
                "end_time": 15.2818182,
                "pitch": 70,
                "velocity": 80,
                "duration": 0.1454545,
                "tempo": 120.0
            },
            {
                "start_time": 15.3,
                "end_time": 15.45,
                "pitch": 74,
                "velocity": 80,
                "duration": 0.15,
                "tempo": 120.0
            },
            {
                "start_time": 15.4659091,
                "end_time": 15.6159091,
                "pitch": 79,
                "velocity": 80,
                "duration": 0.15,
                "tempo": 120.0
            },
            {
                "start_time": 15.65,
                "end_time": 15.7863636,
                "pitch": 67,
                "velocity": 80,
                "duration": 0.1363636,
                "tempo": 120.0
            },
            {
                "start_time": 15.8227273,
                "end_time": 15.9590909,
                "pitch": 70,
                "velocity": 80,
                "duration": 0.1363636,
                "tempo": 120.0
            },
            {
                "start_time": 15.9954545,
                "end_time": 16.125,
                "pitch": 74,
                "velocity": 80,
                "duration": 0.1295455,
                "tempo": 120.0
            },
            {
                "start_time": 16.1568182,
                "end_time": 16.3045455,
                "pitch": 79,
                "velocity": 80,
                "duration": 0.1477273,
                "tempo": 120.0
            },
            {
                "start_time": 16.3204545,
                "end_time": 16.4704545,
                "pitch": 67,
                "velocity": 80,
                "duration": 0.15,
                "tempo": 120.0
            },
            {
                "start_time": 16.4863636,
                "end_time": 16.6386364,
                "pitch": 70,
                "velocity": 80,
                "duration": 0.1522727,
                "tempo": 120.0
            },
            {
                "start_time": 16.6704545,
                "end_time": 16.8045455,
                "pitch": 74,
                "velocity": 80,
                "duration": 0.1340909,
                "tempo": 120.0
            },
            {
                "start_time": 16.8386364,
                "end_time": 16.9727273,
                "pitch": 79,
                "velocity": 80,
                "duration": 0.1340909,
                "tempo": 120.0
            },
            {
                "start_time": 17.0068182,
                "end_time": 17.1409091,
                "pitch": 67,
                "velocity": 80,
                "duration": 0.1340909,
                "tempo": 120.0
            },
            {
                "start_time": 17.175,
                "end_time": 17.325,
                "pitch": 70,
                "velocity": 80,
                "duration": 0.15,
                "tempo": 120.0
            },
            {
                "start_time": 17.3409091,
                "end_time": 17.4863636,
                "pitch": 74,
                "velocity": 80,
                "duration": 0.1454545,
                "tempo": 120.0
            },
            {
                "start_time": 17.5045455,
                "end_time": 17.65,
                "pitch": 79,
                "velocity": 80,
                "duration": 0.1454545,
                "tempo": 120.0
            },
            {
                "start_time": 17.6840909,
                "end_time": 17.8204545,
                "pitch": 67,
                "velocity": 80,
                "duration": 0.1363636,
                "tempo": 120.0
            },
            {
                "start_time": 17.8545455,
                "end_time": 17.9931818,
                "pitch": 70,
                "velocity": 80,
                "duration": 0.1386364,
                "tempo": 120.0
            },
            {
                "start_time": 18.0272727,
                "end_time": 18.1613636,
                "pitch": 74,
                "velocity": 80,
                "duration": 0.1340909,
                "tempo": 120.0
            },
            {
                "start_time": 18.1954545,
                "end_time": 18.3454545,
                "pitch": 79,
                "velocity": 80,
                "duration": 0.15,
                "tempo": 120.0
            },
            {
                "start_time": 18.3613636,
                "end_time": 18.5090909,
                "pitch": 67,
                "velocity": 80,
                "duration": 0.1477273,
                "tempo": 120.0
            },
            {
                "start_time": 18.525,
                "end_time": 18.6704545,
                "pitch": 70,
                "velocity": 80,
                "duration": 0.1454545,
                "tempo": 120.0
            },
            {
                "start_time": 18.7045455,
                "end_time": 18.8409091,
                "pitch": 74,
                "velocity": 80,
                "duration": 0.1363636,
                "tempo": 120.0
            },
            {
                "start_time": 18.875,
                "end_time": 19.0136364,
                "pitch": 79,
                "velocity": 80,
                "duration": 0.1386364,
                "tempo": 120.0
            },
            {
                "start_time": 19.0477273,
                "end_time": 19.1818182,
                "pitch": 67,
                "velocity": 80,
                "duration": 0.1340909,
                "tempo": 120.0
            },
            {
                "start_time": 19.2159091,
                "end_time": 19.3659091,
                "pitch": 70,
                "velocity": 80,
                "duration": 0.15,
                "tempo": 120.0
            },
            {
                "start_time": 19.3840909,
                "end_time": 19.5295455,
                "pitch": 74,
                "velocity": 80,
                "duration": 0.1454545,
                "tempo": 120.0
            },
            {
                "start_time": 19.5636364,
                "end_time": 19.6931818,
                "pitch": 79,
                "velocity": 80,
                "duration": 0.1295455,
                "tempo": 120.0
            },
            {
                "start_time": 19.725,
                "end_time": 19.8636364,
                "pitch": 67,
                "velocity": 80,
                "duration": 0.1386364,
                "tempo": 120.0
            },
            {
                "start_time": 19.8977273,
                "end_time": 20.0340909,
                "pitch": 70,
                "velocity": 80,
                "duration": 0.1363636,
                "tempo": 120.0
            },
            {
                "start_time": 20.0704545,
                "end_time": 20.2159091,
                "pitch": 74,
                "velocity": 80,
                "duration": 0.1454545,
                "tempo": 120.0
            },
            {
                "start_time": 20.2318182,
                "end_time": 20.3795455,
                "pitch": 79,
                "velocity": 80,
                "duration": 0.1477273,
                "tempo": 120.0
            },
            {
                "start_time": 20.3954545,
                "end_time": 20.5454545,
                "pitch": 67,
                "velocity": 80,
                "duration": 0.15,
                "tempo": 120.0
            },
            {
                "start_time": 20.5795455,
                "end_time": 20.7136364,
                "pitch": 70,
                "velocity": 80,
                "duration": 0.1340909,
                "tempo": 120.0
            },
            {
                "start_time": 20.7477273,
                "end_time": 20.8840909,
                "pitch": 74,
                "velocity": 80,
                "duration": 0.1363636,
                "tempo": 120.0
            },
            {
                "start_time": 20.9181818,
                "end_time": 21.0568182,
                "pitch": 79,
                "velocity": 80,
                "duration": 0.1386364,
                "tempo": 120.0
            },
            {
                "start_time": 21.0909091,
                "end_time": 21.2363636,
                "pitch": 67,
                "velocity": 80,
                "duration": 0.1454545,
                "tempo": 120.0
            },
            {
                "start_time": 21.2545455,
                "end_time": 21.4,
                "pitch": 70,
                "velocity": 80,
                "duration": 0.1454545,
                "tempo": 120.0
            },
            {
                "start_time": 21.4159091,
                "end_time": 21.5659091,
                "pitch": 74,
                "velocity": 80,
                "duration": 0.15,
                "tempo": 120.0
            },
            {
                "start_time": 21.6,
                "end_time": 21.7340909,
                "pitch": 79,
                "velocity": 80,
                "duration": 0.1340909,
                "tempo": 120.0
            },
            {
                "start_time": 21.7681818,
                "end_time": 21.9045455,
                "pitch": 62,
                "velocity": 80,
                "duration": 0.1363636,
                "tempo": 120.0
            },
            {
                "start_time": 21.9386364,
                "end_time": 22.0772727,
                "pitch": 65,
                "velocity": 80,
                "duration": 0.1386364,
                "tempo": 120.0
            },
            {
                "start_time": 22.1113636,
                "end_time": 22.2590909,
                "pitch": 69,
                "velocity": 80,
                "duration": 0.1477273,
                "tempo": 120.0
            },
            {
                "start_time": 22.275,
                "end_time": 22.4204545,
                "pitch": 74,
                "velocity": 80,
                "duration": 0.1454545,
                "tempo": 120.0
            },
            {
                "start_time": 22.4386364,
                "end_time": 22.5840909,
                "pitch": 62,
                "velocity": 80,
                "duration": 0.1454545,
                "tempo": 120.0
            },
            {
                "start_time": 22.6181818,
                "end_time": 22.7477273,
                "pitch": 65,
                "velocity": 80,
                "duration": 0.1295455,
                "tempo": 120.0
            },
            {
                "start_time": 22.7795455,
                "end_time": 22.9181818,
                "pitch": 69,
                "velocity": 80,
                "duration": 0.1386364,
                "tempo": 120.0
            },
            {
                "start_time": 22.9522727,
                "end_time": 23.0886364,
                "pitch": 74,
                "velocity": 80,
                "duration": 0.1363636,
                "tempo": 120.0
            },
            {
                "start_time": 23.125,
                "end_time": 23.275,
                "pitch": 62,
                "velocity": 80,
                "duration": 0.15,
                "tempo": 120.0
            },
            {
                "start_time": 23.2909091,
                "end_time": 23.4431818,
                "pitch": 65,
                "velocity": 80,
                "duration": 0.1522727,
                "tempo": 120.0
            },
            {
                "start_time": 23.4590909,
                "end_time": 23.6045455,
                "pitch": 69,
                "velocity": 80,
                "duration": 0.1454545,
                "tempo": 120.0
            },
            {
                "start_time": 23.6386364,
                "end_time": 23.7681818,
                "pitch": 74,
                "velocity": 80,
                "duration": 0.1295455,
                "tempo": 120.0
            },
            {
                "start_time": 23.8022727,
                "end_time": 23.9386364,
                "pitch": 62,
                "velocity": 80,
                "duration": 0.1363636,
                "tempo": 120.0
            },
            {
                "start_time": 23.9727273,
                "end_time": 24.1113636,
                "pitch": 65,
                "velocity": 80,
                "duration": 0.1386364,
                "tempo": 120.0
            },
            {
                "start_time": 24.1454545,
                "end_time": 24.2954545,
                "pitch": 69,
                "velocity": 80,
                "duration": 0.15,
                "tempo": 120.0
            },
            {
                "start_time": 24.3136364,
                "end_time": 24.4636364,
                "pitch": 74,
                "velocity": 80,
                "duration": 0.15,
                "tempo": 120.0
            },
            {
                "start_time": 24.4977273,
                "end_time": 24.6340909,
                "pitch": 62,
                "velocity": 80,
                "duration": 0.1363636,
                "tempo": 120.0
            },
            {
                "start_time": 24.6681818,
                "end_time": 24.8068182,
                "pitch": 65,
                "velocity": 80,
                "duration": 0.1386364,
                "tempo": 120.0
            },
            {
                "start_time": 24.8409091,
                "end_time": 24.9727273,
                "pitch": 69,
                "velocity": 80,
                "duration": 0.1318182,
                "tempo": 120.0
            },
            {
                "start_time": 25.0045455,
                "end_time": 25.1340909,
                "pitch": 74,
                "velocity": 80,
                "duration": 0.1295455,
                "tempo": 120.0
            },
            {
                "start_time": 25.1681818,
                "end_time": 25.3136364,
                "pitch": 62,
                "velocity": 80,
                "duration": 0.1454545,
                "tempo": 120.0
            },
            {
                "start_time": 25.3295455,
                "end_time": 25.4772727,
                "pitch": 65,
                "velocity": 80,
                "duration": 0.1477273,
                "tempo": 120.0
            },
            {
                "start_time": 25.5090909,
                "end_time": 25.6454545,
                "pitch": 69,
                "velocity": 80,
                "duration": 0.1363636,
                "tempo": 120.0
            },
            {
                "start_time": 25.6818182,
                "end_time": 25.8181818,
                "pitch": 74,
                "velocity": 80,
                "duration": 0.1363636,
                "tempo": 120.0
            },
            {
                "start_time": 25.8545455,
                "end_time": 25.9863636,
                "pitch": 62,
                "velocity": 80,
                "duration": 0.1318182,
                "tempo": 120.0
            },
            {
                "start_time": 26.0204545,
                "end_time": 26.1704545,
                "pitch": 65,
                "velocity": 80,
                "duration": 0.15,
                "tempo": 120.0
            },
            {
                "start_time": 26.1886364,
                "end_time": 26.3340909,
                "pitch": 69,
                "velocity": 80,
                "duration": 0.1454545,
                "tempo": 120.0
            },
            {
                "start_time": 26.3522727,
                "end_time": 26.4977273,
                "pitch": 74,
                "velocity": 80,
                "duration": 0.1454545,
                "tempo": 120.0
            },
            {
                "start_time": 26.5295455,
                "end_time": 26.6681818,
                "pitch": 62,
                "velocity": 80,
                "duration": 0.1386364,
                "tempo": 120.0
            },
            {
                "start_time": 26.7022727,
                "end_time": 26.8386364,
                "pitch": 65,
                "velocity": 80,
                "duration": 0.1363636,
                "tempo": 120.0
            },
            {
                "start_time": 26.875,
                "end_time": 27.0045455,
                "pitch": 69,
                "velocity": 80,
                "duration": 0.1295455,
                "tempo": 120.0
            },
            {
                "start_time": 27.0363636,
                "end_time": 27.1840909,
                "pitch": 74,
                "velocity": 80,
                "duration": 0.1477273,
                "tempo": 120.0
            },
            {
                "start_time": 27.2,
                "end_time": 27.35,
                "pitch": 62,
                "velocity": 80,
                "duration": 0.15,
                "tempo": 120.0
            },
            {
                "start_time": 27.3659091,
                "end_time": 27.5181818,
                "pitch": 65,
                "velocity": 80,
                "duration": 0.1522727,
                "tempo": 120.0
            },
            {
                "start_time": 27.5522727,
                "end_time": 27.6886364,
                "pitch": 69,
                "velocity": 80,
                "duration": 0.1363636,
                "tempo": 120.0
            },
            {
                "start_time": 27.7227273,
                "end_time": 27.8613636,
                "pitch": 74,
                "velocity": 80,
                "duration": 0.1386364,
                "tempo": 120.0
            },
            {
                "start_time": 27.8954545,
                "end_time": 28.025,
                "pitch": 62,
                "velocity": 80,
                "duration": 0.1295455,
                "tempo": 120.0
            },
            {
                "start_time": 28.0590909,
                "end_time": 28.2045455,
                "pitch": 65,
                "velocity": 80,
                "duration": 0.1454545,
                "tempo": 120.0
            },
            {
                "start_time": 28.2204545,
                "end_time": 28.3704545,
                "pitch": 69,
                "velocity": 80,
                "duration": 0.15,
                "tempo": 120.0
            },
            {
                "start_time": 28.3886364,
                "end_time": 28.5386364,
                "pitch": 74,
                "velocity": 80,
                "duration": 0.15,
                "tempo": 120.0
            },
            {
                "start_time": 28.5727273,
                "end_time": 28.7090909,
                "pitch": 62,
                "velocity": 80,
                "duration": 0.1363636,
                "tempo": 120.0
            },
            {
                "start_time": 28.7454545,
                "end_time": 28.8818182,
                "pitch": 65,
                "velocity": 80,
                "duration": 0.1363636,
                "tempo": 120.0
            },
            {
                "start_time": 28.9181818,
                "end_time": 29.0477273,
                "pitch": 69,
                "velocity": 80,
                "duration": 0.1295455,
                "tempo": 120.0
            },
            {
                "start_time": 29.0795455,
                "end_time": 29.2272727,
                "pitch": 74,
                "velocity": 80,
                "duration": 0.1477273,
                "tempo": 120.0
            },
            {
                "start_time": 29.2431818,
                "end_time": 29.3931818,
                "pitch": 62,
                "velocity": 80,
                "duration": 0.15,
                "tempo": 120.0
            },
            {
                "start_time": 29.4090909,
                "end_time": 29.5590909,
                "pitch": 65,
                "velocity": 80,
                "duration": 0.15,
                "tempo": 120.0
            },
            {
                "start_time": 29.5931818,
                "end_time": 29.7272727,
                "pitch": 69,
                "velocity": 80,
                "duration": 0.1340909,
                "tempo": 120.0
            },
            {
                "start_time": 29.7613636,
                "end_time": 29.8954545,
                "pitch": 74,
                "velocity": 80,
                "duration": 0.1340909,
                "tempo": 120.0
            },
            {
                "start_time": 29.9295455,
                "end_time": 30.0613636,
                "pitch": 62,
                "velocity": 80,
                "duration": 0.1318182,
                "tempo": 120.0
            },
            {
                "start_time": 30.0954545,
                "end_time": 30.2454545,
                "pitch": 65,
                "velocity": 80,
                "duration": 0.15,
                "tempo": 120.0
            },
            {
                "start_time": 30.2636364,
                "end_time": 30.4090909,
                "pitch": 69,
                "velocity": 80,
                "duration": 0.1454545,
                "tempo": 120.0
            },
            {
                "start_time": 30.4431818,
                "end_time": 30.5727273,
                "pitch": 74,
                "velocity": 80,
                "duration": 0.1295455,
                "tempo": 120.0
            },
            {
                "start_time": 30.6045455,
                "end_time": 30.7431818,
                "pitch": 62,
                "velocity": 80,
                "duration": 0.1386364,
                "tempo": 120.0
            },
            {
                "start_time": 30.7772727,
                "end_time": 30.9159091,
                "pitch": 65,
                "velocity": 80,
                "duration": 0.1386364,
                "tempo": 120.0
            },
            {
                "start_time": 30.95,
                "end_time": 31.1,
                "pitch": 69,
                "velocity": 80,
                "duration": 0.15,
                "tempo": 120.0
            },
            {
                "start_time": 31.1181818,
                "end_time": 31.2681818,
                "pitch": 74,
                "velocity": 80,
                "duration": 0.15,
                "tempo": 120.0
            },
            {
                "start_time": 31.2840909,
                "end_time": 31.4318182,
                "pitch": 62,
                "velocity": 80,
                "duration": 0.1477273,
                "tempo": 120.0
            },
            {
                "start_time": 31.4636364,
                "end_time": 31.5931818,
                "pitch": 65,
                "velocity": 80,
                "duration": 0.1295455,
                "tempo": 120.0
            },
            {
                "start_time": 31.6272727,
                "end_time": 31.7636364,
                "pitch": 69,
                "velocity": 80,
                "duration": 0.1363636,
                "tempo": 120.0
            },
            {
                "start_time": 31.7977273,
                "end_time": 31.9363636,
                "pitch": 74,
                "velocity": 80,
                "duration": 0.1386364,
                "tempo": 120.0
            },
            {
                "start_time": 31.9704545,
                "end_time": 32.1181818,
                "pitch": 62,
                "velocity": 80,
                "duration": 0.1477273,
                "tempo": 120.0
            },
            {
                "start_time": 32.1340909,
                "end_time": 32.2795455,
                "pitch": 65,
                "velocity": 80,
                "duration": 0.1454545,
                "tempo": 120.0
            },
            {
                "start_time": 32.2954545,
                "end_time": 32.4454545,
                "pitch": 69,
                "velocity": 80,
                "duration": 0.15,
                "tempo": 120.0
            },
            {
                "start_time": 32.4795455,
                "end_time": 32.6136364,
                "pitch": 74,
                "velocity": 80,
                "duration": 0.1340909,
                "tempo": 120.0
            },
            {
                "start_time": 32.6477273,
                "end_time": 32.7840909,
                "pitch": 67,
                "velocity": 80,
                "duration": 0.1363636,
                "tempo": 120.0
            },
            {
                "start_time": 32.8204545,
                "end_time": 32.9568182,
                "pitch": 70,
                "velocity": 80,
                "duration": 0.1363636,
                "tempo": 120.0
            },
            {
                "start_time": 32.9909091,
                "end_time": 33.1386364,
                "pitch": 74,
                "velocity": 80,
                "duration": 0.1477273,
                "tempo": 120.0
            },
            {
                "start_time": 33.1545455,
                "end_time": 33.3,
                "pitch": 79,
                "velocity": 80,
                "duration": 0.1454545,
                "tempo": 120.0
            },
            {
                "start_time": 33.3181818,
                "end_time": 33.4681818,
                "pitch": 67,
                "velocity": 80,
                "duration": 0.15,
                "tempo": 120.0
            },
            {
                "start_time": 33.5022727,
                "end_time": 33.6340909,
                "pitch": 70,
                "velocity": 80,
                "duration": 0.1318182,
                "tempo": 120.0
            },
            {
                "start_time": 33.6681818,
                "end_time": 33.8068182,
                "pitch": 74,
                "velocity": 80,
                "duration": 0.1386364,
                "tempo": 120.0
            },
            {
                "start_time": 33.8409091,
                "end_time": 33.9772727,
                "pitch": 79,
                "velocity": 80,
                "duration": 0.1363636,
                "tempo": 120.0
            },
            {
                "start_time": 34.0136364,
                "end_time": 34.1590909,
                "pitch": 67,
                "velocity": 80,
                "duration": 0.1454545,
                "tempo": 120.0
            },
            {
                "start_time": 34.1772727,
                "end_time": 34.3227273,
                "pitch": 70,
                "velocity": 80,
                "duration": 0.1454545,
                "tempo": 120.0
            },
            {
                "start_time": 34.3386364,
                "end_time": 34.4886364,
                "pitch": 74,
                "velocity": 80,
                "duration": 0.15,
                "tempo": 120.0
            },
            {
                "start_time": 34.5227273,
                "end_time": 34.6568182,
                "pitch": 79,
                "velocity": 80,
                "duration": 0.1340909,
                "tempo": 120.0
            },
            {
                "start_time": 34.6909091,
                "end_time": 34.8227273,
                "pitch": 67,
                "velocity": 80,
                "duration": 0.1318182,
                "tempo": 120.0
            },
            {
                "start_time": 34.8568182,
                "end_time": 34.9909091,
                "pitch": 70,
                "velocity": 80,
                "duration": 0.1340909,
                "tempo": 120.0
            },
            {
                "start_time": 35.025,
                "end_time": 35.175,
                "pitch": 74,
                "velocity": 80,
                "duration": 0.15,
                "tempo": 120.0
            },
            {
                "start_time": 35.1909091,
                "end_time": 35.3431818,
                "pitch": 79,
                "velocity": 80,
                "duration": 0.1522727,
                "tempo": 120.0
            },
            {
                "start_time": 35.3772727,
                "end_time": 35.5136364,
                "pitch": 67,
                "velocity": 80,
                "duration": 0.1363636,
                "tempo": 120.0
            },
            {
                "start_time": 35.5477273,
                "end_time": 35.6863636,
                "pitch": 70,
                "velocity": 80,
                "duration": 0.1386364,
                "tempo": 120.0
            },
            {
                "start_time": 35.7204545,
                "end_time": 35.85,
                "pitch": 74,
                "velocity": 80,
                "duration": 0.1295455,
                "tempo": 120.0
            },
            {
                "start_time": 35.8840909,
                "end_time": 36.0295455,
                "pitch": 79,
                "velocity": 80,
                "duration": 0.1454545,
                "tempo": 120.0
            },
            {
                "start_time": 36.0454545,
                "end_time": 36.1954545,
                "pitch": 67,
                "velocity": 80,
                "duration": 0.15,
                "tempo": 120.0
            },
            {
                "start_time": 36.2136364,
                "end_time": 36.3636364,
                "pitch": 70,
                "velocity": 80,
                "duration": 0.15,
                "tempo": 120.0
            },
            {
                "start_time": 36.3977273,
                "end_time": 36.5340909,
                "pitch": 74,
                "velocity": 80,
                "duration": 0.1363636,
                "tempo": 120.0
            },
            {
                "start_time": 36.5704545,
                "end_time": 36.7068182,
                "pitch": 79,
                "velocity": 80,
                "duration": 0.1363636,
                "tempo": 120.0
            },
            {
                "start_time": 36.7431818,
                "end_time": 36.8727273,
                "pitch": 67,
                "velocity": 80,
                "duration": 0.1295455,
                "tempo": 120.0
            },
            {
                "start_time": 36.9045455,
                "end_time": 37.05,
                "pitch": 70,
                "velocity": 80,
                "duration": 0.1454545,
                "tempo": 120.0
            },
            {
                "start_time": 37.0681818,
                "end_time": 37.2181818,
                "pitch": 74,
                "velocity": 80,
                "duration": 0.15,
                "tempo": 120.0
            },
            {
                "start_time": 37.2340909,
                "end_time": 37.3840909,
                "pitch": 79,
                "velocity": 80,
                "duration": 0.15,
                "tempo": 120.0
            },
            {
                "start_time": 37.4181818,
                "end_time": 37.5522727,
                "pitch": 67,
                "velocity": 80,
                "duration": 0.1340909,
                "tempo": 120.0
            },
            {
                "start_time": 37.5863636,
                "end_time": 37.7204545,
                "pitch": 70,
                "velocity": 80,
                "duration": 0.1340909,
                "tempo": 120.0
            },
            {
                "start_time": 37.7522727,
                "end_time": 37.8863636,
                "pitch": 74,
                "velocity": 80,
                "duration": 0.1340909,
                "tempo": 120.0
            },
            {
                "start_time": 37.9204545,
                "end_time": 38.0704545,
                "pitch": 79,
                "velocity": 80,
                "duration": 0.15,
                "tempo": 120.0
            },
            {
                "start_time": 38.0886364,
                "end_time": 38.2340909,
                "pitch": 67,
                "velocity": 80,
                "duration": 0.1454545,
                "tempo": 120.0
            },
            {
                "start_time": 38.25,
                "end_time": 38.3977273,
                "pitch": 70,
                "velocity": 80,
                "duration": 0.1477273,
                "tempo": 120.0
            },
            {
                "start_time": 38.4295455,
                "end_time": 38.5681818,
                "pitch": 74,
                "velocity": 80,
                "duration": 0.1386364,
                "tempo": 120.0
            },
            {
                "start_time": 38.6022727,
                "end_time": 38.7386364,
                "pitch": 79,
                "velocity": 80,
                "duration": 0.1363636,
                "tempo": 120.0
            },
            {
                "start_time": 38.775,
                "end_time": 38.9090909,
                "pitch": 67,
                "velocity": 80,
                "duration": 0.1340909,
                "tempo": 120.0
            },
            {
                "start_time": 38.9431818,
                "end_time": 39.0931818,
                "pitch": 70,
                "velocity": 80,
                "duration": 0.15,
                "tempo": 120.0
            },
            {
                "start_time": 39.1090909,
                "end_time": 39.2568182,
                "pitch": 74,
                "velocity": 80,
                "duration": 0.1477273,
                "tempo": 120.0
            },
            {
                "start_time": 39.2727273,
                "end_time": 39.4181818,
                "pitch": 79,
                "velocity": 80,
                "duration": 0.1454545,
                "tempo": 120.0
            },
            {
                "start_time": 39.4522727,
                "end_time": 39.5886364,
                "pitch": 67,
                "velocity": 80,
                "duration": 0.1363636,
                "tempo": 120.0
            },
            {
                "start_time": 39.6227273,
                "end_time": 39.7613636,
                "pitch": 70,
                "velocity": 80,
                "duration": 0.1386364,
                "tempo": 120.0
            },
            {
                "start_time": 39.7954545,
                "end_time": 39.925,
                "pitch": 74,
                "velocity": 80,
                "duration": 0.1295455,
                "tempo": 120.0
            },
            {
                "start_time": 39.9590909,
                "end_time": 40.1045455,
                "pitch": 79,
                "velocity": 80,
                "duration": 0.1454545,
                "tempo": 120.0
            },
            {
                "start_time": 40.1204545,
                "end_time": 40.2704545,
                "pitch": 67,
                "velocity": 80,
                "duration": 0.15,
                "tempo": 120.0
            },
            {
                "start_time": 40.3045455,
                "end_time": 40.4386364,
                "pitch": 70,
                "velocity": 80,
                "duration": 0.1340909,
                "tempo": 120.0
            },
            {
                "start_time": 40.4727273,
                "end_time": 40.6090909,
                "pitch": 74,
                "velocity": 80,
                "duration": 0.1363636,
                "tempo": 120.0
            },
            {
                "start_time": 40.6454545,
                "end_time": 40.7818182,
                "pitch": 79,
                "velocity": 80,
                "duration": 0.1363636,
                "tempo": 120.0
            },
            {
                "start_time": 40.8181818,
                "end_time": 40.9636364,
                "pitch": 67,
                "velocity": 80,
                "duration": 0.1454545,
                "tempo": 120.0
            },
            {
                "start_time": 40.9795455,
                "end_time": 41.125,
                "pitch": 70,
                "velocity": 80,
                "duration": 0.1454545,
                "tempo": 120.0
            },
            {
                "start_time": 41.1431818,
                "end_time": 41.2931818,
                "pitch": 74,
                "velocity": 80,
                "duration": 0.15,
                "tempo": 120.0
            },
            {
                "start_time": 41.3272727,
                "end_time": 41.4590909,
                "pitch": 79,
                "velocity": 80,
                "duration": 0.1318182,
                "tempo": 120.0
            },
            {
                "start_time": 41.4931818,
                "end_time": 41.6318182,
                "pitch": 67,
                "velocity": 80,
                "duration": 0.1386364,
                "tempo": 120.0
            },
            {
                "start_time": 41.6659091,
                "end_time": 41.8022727,
                "pitch": 70,
                "velocity": 80,
                "duration": 0.1363636,
                "tempo": 120.0
            },
            {
                "start_time": 41.8386364,
                "end_time": 41.9840909,
                "pitch": 74,
                "velocity": 80,
                "duration": 0.1454545,
                "tempo": 120.0
            },
            {
                "start_time": 42.0022727,
                "end_time": 42.1477273,
                "pitch": 79,
                "velocity": 80,
                "duration": 0.1454545,
                "tempo": 120.0
            },
            {
                "start_time": 42.1636364,
                "end_time": 42.3136364,
                "pitch": 67,
                "velocity": 80,
                "duration": 0.15,
                "tempo": 120.0
            },
            {
                "start_time": 42.3477273,
                "end_time": 42.4818182,
                "pitch": 70,
                "velocity": 80,
                "duration": 0.1340909,
                "tempo": 120.0
            },
            {
                "start_time": 42.5159091,
                "end_time": 42.6477273,
                "pitch": 74,
                "velocity": 80,
                "duration": 0.1318182,
                "tempo": 120.0
            },
            {
                "start_time": 42.6818182,
                "end_time": 42.8159091,
                "pitch": 79,
                "velocity": 80,
                "duration": 0.1340909,
                "tempo": 120.0
            },
            {
                "start_time": 42.85,
                "end_time": 43.0,
                "pitch": 67,
                "velocity": 80,
                "duration": 0.15,
                "tempo": 120.0
            },
            {
                "start_time": 43.0159091,
                "end_time": 43.1681818,
                "pitch": 70,
                "velocity": 80,
                "duration": 0.1522727,
                "tempo": 120.0
            },
            {
                "start_time": 43.1840909,
                "end_time": 43.3295455,
                "pitch": 74,
                "velocity": 80,
                "duration": 0.1454545,
                "tempo": 120.0
            },
            {
                "start_time": 43.3636364,
                "end_time": 43.4931818,
                "pitch": 79,
                "velocity": 80,
                "duration": 0.1295455,
                "tempo": 120.0
            },
            {
                "start_time": 43.5272727,
                "end_time": 43.6636364,
                "pitch": 62,
                "velocity": 80,
                "duration": 0.1363636,
                "tempo": 120.0
            },
            {
                "start_time": 43.6977273,
                "end_time": 43.8363636,
                "pitch": 65,
                "velocity": 80,
                "duration": 0.1386364,
                "tempo": 120.0
            },
            {
                "start_time": 43.8704545,
                "end_time": 44.0204545,
                "pitch": 69,
                "velocity": 80,
                "duration": 0.15,
                "tempo": 120.0
            },
            {
                "start_time": 44.0386364,
                "end_time": 44.1886364,
                "pitch": 74,
                "velocity": 80,
                "duration": 0.15,
                "tempo": 120.0
            },
            {
                "start_time": 44.2068182,
                "end_time": 44.3522727,
                "pitch": 62,
                "velocity": 80,
                "duration": 0.1454545,
                "tempo": 120.0
            },
            {
                "start_time": 44.3840909,
                "end_time": 44.5159091,
                "pitch": 65,
                "velocity": 80,
                "duration": 0.1318182,
                "tempo": 120.0
            },
            {
                "start_time": 44.5477273,
                "end_time": 44.6840909,
                "pitch": 69,
                "velocity": 80,
                "duration": 0.1363636,
                "tempo": 120.0
            },
            {
                "start_time": 44.7204545,
                "end_time": 44.8568182,
                "pitch": 74,
                "velocity": 80,
                "duration": 0.1363636,
                "tempo": 120.0
            },
            {
                "start_time": 44.8931818,
                "end_time": 45.0431818,
                "pitch": 62,
                "velocity": 80,
                "duration": 0.15,
                "tempo": 120.0
            },
            {
                "start_time": 45.0590909,
                "end_time": 45.2090909,
                "pitch": 65,
                "velocity": 80,
                "duration": 0.15,
                "tempo": 120.0
            },
            {
                "start_time": 45.2431818,
                "end_time": 45.3772727,
                "pitch": 69,
                "velocity": 80,
                "duration": 0.1340909,
                "tempo": 120.0
            },
            {
                "start_time": 45.4113636,
                "end_time": 45.5454545,
                "pitch": 74,
                "velocity": 80,
                "duration": 0.1340909,
                "tempo": 120.0
            },
            {
                "start_time": 45.5795455,
                "end_time": 45.7113636,
                "pitch": 62,
                "velocity": 80,
                "duration": 0.1318182,
                "tempo": 120.0
            },
            {
                "start_time": 45.7454545,
                "end_time": 45.8954545,
                "pitch": 65,
                "velocity": 80,
                "duration": 0.15,
                "tempo": 120.0
            },
            {
                "start_time": 45.9136364,
                "end_time": 46.0590909,
                "pitch": 69,
                "velocity": 80,
                "duration": 0.1454545,
                "tempo": 120.0
            },
            {
                "start_time": 46.0772727,
                "end_time": 46.2227273,
                "pitch": 74,
                "velocity": 80,
                "duration": 0.1454545,
                "tempo": 120.0
            },
            {
                "start_time": 46.2545455,
                "end_time": 46.3931818,
                "pitch": 62,
                "velocity": 80,
                "duration": 0.1386364,
                "tempo": 120.0
            },
            {
                "start_time": 46.4272727,
                "end_time": 46.5636364,
                "pitch": 65,
                "velocity": 80,
                "duration": 0.1363636,
                "tempo": 120.0
            },
            {
                "start_time": 46.6,
                "end_time": 46.7340909,
                "pitch": 69,
                "velocity": 80,
                "duration": 0.1340909,
                "tempo": 120.0
            },
            {
                "start_time": 46.7681818,
                "end_time": 46.9181818,
                "pitch": 74,
                "velocity": 80,
                "duration": 0.15,
                "tempo": 120.0
            },
            {
                "start_time": 46.9340909,
                "end_time": 47.0818182,
                "pitch": 62,
                "velocity": 80,
                "duration": 0.1477273,
                "tempo": 120.0
            },
            {
                "start_time": 47.0977273,
                "end_time": 47.2431818,
                "pitch": 65,
                "velocity": 80,
                "duration": 0.1454545,
                "tempo": 120.0
            },
            {
                "start_time": 47.2772727,
                "end_time": 47.4136364,
                "pitch": 69,
                "velocity": 80,
                "duration": 0.1363636,
                "tempo": 120.0
            },
            {
                "start_time": 47.4477273,
                "end_time": 47.5863636,
                "pitch": 74,
                "velocity": 80,
                "duration": 0.1386364,
                "tempo": 120.0
            },
            {
                "start_time": 47.6204545,
                "end_time": 47.7545455,
                "pitch": 62,
                "velocity": 80,
                "duration": 0.1340909,
                "tempo": 120.0
            },
            {
                "start_time": 47.7886364,
                "end_time": 47.9386364,
                "pitch": 65,
                "velocity": 80,
                "duration": 0.15,
                "tempo": 120.0
            },
            {
                "start_time": 47.9568182,
                "end_time": 48.1022727,
                "pitch": 69,
                "velocity": 80,
                "duration": 0.1454545,
                "tempo": 120.0
            },
            {
                "start_time": 48.1204545,
                "end_time": 48.2659091,
                "pitch": 74,
                "velocity": 80,
                "duration": 0.1454545,
                "tempo": 120.0
            },
            {
                "start_time": 48.2977273,
                "end_time": 48.4340909,
                "pitch": 62,
                "velocity": 80,
                "duration": 0.1363636,
                "tempo": 120.0
            },
            {
                "start_time": 48.4704545,
                "end_time": 48.6068182,
                "pitch": 65,
                "velocity": 80,
                "duration": 0.1363636,
                "tempo": 120.0
            },
            {
                "start_time": 48.6409091,
                "end_time": 48.7727273,
                "pitch": 69,
                "velocity": 80,
                "duration": 0.1318182,
                "tempo": 120.0
            },
            {
                "start_time": 48.8045455,
                "end_time": 48.95,
                "pitch": 74,
                "velocity": 80,
                "duration": 0.1454545,
                "tempo": 120.0
            },
            {
                "start_time": 48.9681818,
                "end_time": 49.1181818,
                "pitch": 62,
                "velocity": 80,
                "duration": 0.15,
                "tempo": 120.0
            },
            {
                "start_time": 49.1340909,
                "end_time": 49.2840909,
                "pitch": 65,
                "velocity": 80,
                "duration": 0.15,
                "tempo": 120.0
            },
            {
                "start_time": 49.3181818,
                "end_time": 49.4568182,
                "pitch": 69,
                "velocity": 80,
                "duration": 0.1386364,
                "tempo": 120.0
            },
            {
                "start_time": 49.4909091,
                "end_time": 49.6272727,
                "pitch": 74,
                "velocity": 80,
                "duration": 0.1363636,
                "tempo": 120.0
            },
            {
                "start_time": 49.6636364,
                "end_time": 49.7931818,
                "pitch": 62,
                "velocity": 80,
                "duration": 0.1295455,
                "tempo": 120.0
            },
            {
                "start_time": 49.8272727,
                "end_time": 49.9727273,
                "pitch": 65,
                "velocity": 80,
                "duration": 0.1454545,
                "tempo": 120.0
            },
            {
                "start_time": 49.9886364,
                "end_time": 50.1386364,
                "pitch": 69,
                "velocity": 80,
                "duration": 0.15,
                "tempo": 120.0
            },
            {
                "start_time": 50.1727273,
                "end_time": 50.3068182,
                "pitch": 74,
                "velocity": 80,
                "duration": 0.1340909,
                "tempo": 120.0
            },
            {
                "start_time": 50.3409091,
                "end_time": 50.4772727,
                "pitch": 62,
                "velocity": 80,
                "duration": 0.1363636,
                "tempo": 120.0
            },
            {
                "start_time": 50.5113636,
                "end_time": 50.65,
                "pitch": 65,
                "velocity": 80,
                "duration": 0.1386364,
                "tempo": 120.0
            },
            {
                "start_time": 50.6840909,
                "end_time": 50.8136364,
                "pitch": 69,
                "velocity": 80,
                "duration": 0.1295455,
                "tempo": 120.0
            },
            {
                "start_time": 50.8477273,
                "end_time": 50.9931818,
                "pitch": 74,
                "velocity": 80,
                "duration": 0.1454545,
                "tempo": 120.0
            },
            {
                "start_time": 51.0113636,
                "end_time": 51.1568182,
                "pitch": 62,
                "velocity": 80,
                "duration": 0.1454545,
                "tempo": 120.0
            },
            {
                "start_time": 51.1886364,
                "end_time": 51.3181818,
                "pitch": 65,
                "velocity": 80,
                "duration": 0.1295455,
                "tempo": 120.0
            },
            {
                "start_time": 51.3522727,
                "end_time": 51.4886364,
                "pitch": 69,
                "velocity": 80,
                "duration": 0.1363636,
                "tempo": 120.0
            },
            {
                "start_time": 51.525,
                "end_time": 51.6613636,
                "pitch": 74,
                "velocity": 80,
                "duration": 0.1363636,
                "tempo": 120.0
            },
            {
                "start_time": 51.6954545,
                "end_time": 51.8477273,
                "pitch": 62,
                "velocity": 80,
                "duration": 0.1522727,
                "tempo": 120.0
            },
            {
                "start_time": 51.8636364,
                "end_time": 52.0136364,
                "pitch": 65,
                "velocity": 80,
                "duration": 0.15,
                "tempo": 120.0
            },
            {
                "start_time": 52.0318182,
                "end_time": 52.1772727,
                "pitch": 69,
                "velocity": 80,
                "duration": 0.1454545,
                "tempo": 120.0
            },
            {
                "start_time": 52.2113636,
                "end_time": 52.3409091,
                "pitch": 74,
                "velocity": 80,
                "duration": 0.1295455,
                "tempo": 120.0
            },
            {
                "start_time": 52.3727273,
                "end_time": 52.5113636,
                "pitch": 62,
                "velocity": 80,
                "duration": 0.1386364,
                "tempo": 120.0
            },
            {
                "start_time": 52.5454545,
                "end_time": 52.6818182,
                "pitch": 65,
                "velocity": 80,
                "duration": 0.1363636,
                "tempo": 120.0
            },
            {
                "start_time": 52.7181818,
                "end_time": 52.8681818,
                "pitch": 69,
                "velocity": 80,
                "duration": 0.15,
                "tempo": 120.0
            },
            {
                "start_time": 52.8863636,
                "end_time": 53.0363636,
                "pitch": 74,
                "velocity": 80,
                "duration": 0.15,
                "tempo": 120.0
            },
            {
                "start_time": 53.0522727,
                "end_time": 53.1977273,
                "pitch": 62,
                "velocity": 80,
                "duration": 0.1454545,
                "tempo": 120.0
            },
            {
                "start_time": 53.2318182,
                "end_time": 53.3613636,
                "pitch": 65,
                "velocity": 80,
                "duration": 0.1295455,
                "tempo": 120.0
            },
            {
                "start_time": 53.3954545,
                "end_time": 53.5318182,
                "pitch": 69,
                "velocity": 80,
                "duration": 0.1363636,
                "tempo": 120.0
            },
            {
                "start_time": 53.5659091,
                "end_time": 53.7045455,
                "pitch": 74,
                "velocity": 80,
                "duration": 0.1386364,
                "tempo": 120.0
            },
            {
                "start_time": 53.7386364,
                "end_time": 53.8840909,
                "pitch": 62,
                "velocity": 80,
                "duration": 0.1454545,
                "tempo": 120.0
            },
            {
                "start_time": 53.9022727,
                "end_time": 54.0477273,
                "pitch": 65,
                "velocity": 80,
                "duration": 0.1454545,
                "tempo": 120.0
            },
            {
                "start_time": 54.0636364,
                "end_time": 54.2136364,
                "pitch": 69,
                "velocity": 80,
                "duration": 0.15,
                "tempo": 120.0
            },
            {
                "start_time": 54.2477273,
                "end_time": 54.3818182,
                "pitch": 74,
                "velocity": 80,
                "duration": 0.1340909,
                "tempo": 120.0
            },
            {
                "start_time": 89.7931818,
                "end_time": 89.9295455,
                "pitch": 67,
                "velocity": 80,
                "duration": 0.1363636,
                "tempo": 120.0
            }
        ],
        "Flute": [
            {
                "start_time": 76.1954545,
                "end_time": 76.8363636,
                "pitch": 79,
                "velocity": 64,
                "duration": 0.6409091,
                "tempo": 120.0
            },
            {
                "start_time": 76.8704545,
                "end_time": 77.0068182,
                "pitch": 79,
                "velocity": 64,
                "duration": 0.1363636,
                "tempo": 120.0
            },
            {
                "start_time": 77.0431818,
                "end_time": 77.1795455,
                "pitch": 74,
                "velocity": 64,
                "duration": 0.1363636,
                "tempo": 120.0
            },
            {
                "start_time": 77.2159091,
                "end_time": 77.3454545,
                "pitch": 79,
                "velocity": 64,
                "duration": 0.1295455,
                "tempo": 120.0
            },
            {
                "start_time": 77.3772727,
                "end_time": 77.525,
                "pitch": 82,
                "velocity": 64,
                "duration": 0.1477273,
                "tempo": 120.0
            },
            {
                "start_time": 77.5409091,
                "end_time": 78.2022727,
                "pitch": 79,
                "velocity": 64,
                "duration": 0.6613636,
                "tempo": 120.0
            },
            {
                "start_time": 78.2363636,
                "end_time": 78.3659091,
                "pitch": 79,
                "velocity": 64,
                "duration": 0.1295455,
                "tempo": 120.0
            },
            {
                "start_time": 78.4,
                "end_time": 78.5454545,
                "pitch": 74,
                "velocity": 64,
                "duration": 0.1454545,
                "tempo": 120.0
            },
            {
                "start_time": 78.5613636,
                "end_time": 78.7113636,
                "pitch": 79,
                "velocity": 64,
                "duration": 0.15,
                "tempo": 120.0
            },
            {
                "start_time": 78.7295455,
                "end_time": 78.8795455,
                "pitch": 82,
                "velocity": 64,
                "duration": 0.15,
                "tempo": 120.0
            },
            {
                "start_time": 78.9136364,
                "end_time": 79.5659091,
                "pitch": 79,
                "velocity": 64,
                "duration": 0.6522727,
                "tempo": 120.0
            },
            {
                "start_time": 79.5840909,
                "end_time": 79.7295455,
                "pitch": 79,
                "velocity": 64,
                "duration": 0.1454545,
                "tempo": 120.0
            },
            {
                "start_time": 79.7454545,
                "end_time": 79.8931818,
                "pitch": 74,
                "velocity": 64,
                "duration": 0.1477273,
                "tempo": 120.0
            },
            {
                "start_time": 79.925,
                "end_time": 80.0613636,
                "pitch": 79,
                "velocity": 64,
                "duration": 0.1363636,
                "tempo": 120.0
            },
            {
                "start_time": 80.0977273,
                "end_time": 80.2340909,
                "pitch": 82,
                "velocity": 64,
                "duration": 0.1363636,
                "tempo": 120.0
            },
            {
                "start_time": 80.2704545,
                "end_time": 80.9136364,
                "pitch": 79,
                "velocity": 64,
                "duration": 0.6431818,
                "tempo": 120.0
            },
            {
                "start_time": 80.9477273,
                "end_time": 81.0840909,
                "pitch": 79,
                "velocity": 64,
                "duration": 0.1363636,
                "tempo": 120.0
            },
            {
                "start_time": 81.1181818,
                "end_time": 81.2568182,
                "pitch": 74,
                "velocity": 64,
                "duration": 0.1386364,
                "tempo": 120.0
            },
            {
                "start_time": 81.2909091,
                "end_time": 81.4204545,
                "pitch": 79,
                "velocity": 64,
                "duration": 0.1295455,
                "tempo": 120.0
            },
            {
                "start_time": 81.4545455,
                "end_time": 81.6,
                "pitch": 82,
                "velocity": 64,
                "duration": 0.1454545,
                "tempo": 120.0
            },
            {
                "start_time": 81.6159091,
                "end_time": 82.2772727,
                "pitch": 79,
                "velocity": 64,
                "duration": 0.6613636,
                "tempo": 120.0
            },
            {
                "start_time": 82.3113636,
                "end_time": 82.4590909,
                "pitch": 79,
                "velocity": 64,
                "duration": 0.1477273,
                "tempo": 120.0
            },
            {
                "start_time": 82.475,
                "end_time": 82.6204545,
                "pitch": 74,
                "velocity": 64,
                "duration": 0.1454545,
                "tempo": 120.0
            },
            {
                "start_time": 82.6386364,
                "end_time": 82.7863636,
                "pitch": 79,
                "velocity": 64,
                "duration": 0.1477273,
                "tempo": 120.0
            },
            {
                "start_time": 82.8204545,
                "end_time": 82.9545455,
                "pitch": 82,
                "velocity": 64,
                "duration": 0.1340909,
                "tempo": 120.0
            },
            {
                "start_time": 82.9886364,
                "end_time": 83.6409091,
                "pitch": 79,
                "velocity": 64,
                "duration": 0.6522727,
                "tempo": 120.0
            },
            {
                "start_time": 83.6590909,
                "end_time": 83.8090909,
                "pitch": 79,
                "velocity": 64,
                "duration": 0.15,
                "tempo": 120.0
            },
            {
                "start_time": 83.8431818,
                "end_time": 83.975,
                "pitch": 74,
                "velocity": 64,
                "duration": 0.1318182,
                "tempo": 120.0
            },
            {
                "start_time": 84.0090909,
                "end_time": 84.1431818,
                "pitch": 79,
                "velocity": 64,
                "duration": 0.1340909,
                "tempo": 120.0
            },
            {
                "start_time": 84.1772727,
                "end_time": 84.3113636,
                "pitch": 82,
                "velocity": 64,
                "duration": 0.1340909,
                "tempo": 120.0
            },
            {
                "start_time": 84.3454545,
                "end_time": 84.9886364,
                "pitch": 79,
                "velocity": 64,
                "duration": 0.6431818,
                "tempo": 120.0
            },
            {
                "start_time": 85.0204545,
                "end_time": 85.1590909,
                "pitch": 79,
                "velocity": 64,
                "duration": 0.1386364,
                "tempo": 120.0
            },
            {
                "start_time": 85.1931818,
                "end_time": 85.3295455,
                "pitch": 74,
                "velocity": 64,
                "duration": 0.1363636,
                "tempo": 120.0
            },
            {
                "start_time": 85.3659091,
                "end_time": 85.5159091,
                "pitch": 79,
                "velocity": 64,
                "duration": 0.15,
                "tempo": 120.0
            },
            {
                "start_time": 85.5340909,
                "end_time": 85.6840909,
                "pitch": 82,
                "velocity": 64,
                "duration": 0.15,
                "tempo": 120.0
            },
            {
                "start_time": 85.7,
                "end_time": 86.3522727,
                "pitch": 79,
                "velocity": 64,
                "duration": 0.6522727,
                "tempo": 120.0
            },
            {
                "start_time": 86.3863636,
                "end_time": 86.5363636,
                "pitch": 79,
                "velocity": 64,
                "duration": 0.15,
                "tempo": 120.0
            },
            {
                "start_time": 86.5545455,
                "end_time": 86.7045455,
                "pitch": 74,
                "velocity": 64,
                "duration": 0.15,
                "tempo": 120.0
            },
            {
                "start_time": 86.7386364,
                "end_time": 86.8727273,
                "pitch": 79,
                "velocity": 64,
                "duration": 0.1340909,
                "tempo": 120.0
            },
            {
                "start_time": 86.9068182,
                "end_time": 87.0386364,
                "pitch": 82,
                "velocity": 64,
                "duration": 0.1318182,
                "tempo": 120.0
            },
            {
                "start_time": 87.0727273,
                "end_time": 88.4022727,
                "pitch": 79,
                "velocity": 64,
                "duration": 1.3295455,
                "tempo": 120.0
            },
            {
                "start_time": 88.4181818,
                "end_time": 89.7590909,
                "pitch": 79,
                "velocity": 64,
                "duration": 1.3409091,
                "tempo": 120.0
            }
        ],
        "Electric Guitar (clean)": [
            {
                "start_time": 0.0068182,
                "end_time": 0.1340909,
                "pitch": 31,
                "velocity": 51,
                "duration": 0.1272727,
                "tempo": 120.0
            },
            {
                "start_time": 0.1681818,
                "end_time": 0.3022727,
                "pitch": 38,
                "velocity": 51,
                "duration": 0.1340909,
                "tempo": 120.0
            },
            {
                "start_time": 0.3363636,
                "end_time": 0.4863636,
                "pitch": 43,
                "velocity": 51,
                "duration": 0.15,
                "tempo": 120.0
            },
            {
                "start_time": 0.5022727,
                "end_time": 0.8159091,
                "pitch": 31,
                "velocity": 51,
                "duration": 0.3136364,
                "tempo": 120.0
            },
            {
                "start_time": 0.85,
                "end_time": 0.9795455,
                "pitch": 31,
                "velocity": 51,
                "duration": 0.1295455,
                "tempo": 120.0
            },
            {
                "start_time": 1.0113636,
                "end_time": 1.0636364,
                "pitch": 31,
                "velocity": 51,
                "duration": 0.0522727,
                "tempo": 120.0
            },
            {
                "start_time": 1.0977273,
                "end_time": 1.15,
                "pitch": 38,
                "velocity": 51,
                "duration": 0.0522727,
                "tempo": 120.0
            },
            {
                "start_time": 1.1840909,
                "end_time": 1.2363636,
                "pitch": 43,
                "velocity": 51,
                "duration": 0.0522727,
                "tempo": 120.0
            },
            {
                "start_time": 1.2704545,
                "end_time": 1.3227273,
                "pitch": 38,
                "velocity": 51,
                "duration": 0.0522727,
                "tempo": 120.0
            },
            {
                "start_time": 1.3568182,
                "end_time": 1.5068182,
                "pitch": 31,
                "velocity": 51,
                "duration": 0.15,
                "tempo": 120.0
            },
            {
                "start_time": 1.525,
                "end_time": 1.675,
                "pitch": 38,
                "velocity": 51,
                "duration": 0.15,
                "tempo": 120.0
            },
            {
                "start_time": 1.6909091,
                "end_time": 1.8386364,
                "pitch": 43,
                "velocity": 51,
                "duration": 0.1477273,
                "tempo": 120.0
            },
            {
                "start_time": 1.8704545,
                "end_time": 2.1704545,
                "pitch": 31,
                "velocity": 51,
                "duration": 0.3,
                "tempo": 120.0
            },
            {
                "start_time": 2.2045455,
                "end_time": 2.3431818,
                "pitch": 31,
                "velocity": 51,
                "duration": 0.1386364,
                "tempo": 120.0
            },
            {
                "start_time": 2.3772727,
                "end_time": 2.4431818,
                "pitch": 31,
                "velocity": 51,
                "duration": 0.0659091,
                "tempo": 120.0
            },
            {
                "start_time": 2.4590909,
                "end_time": 2.525,
                "pitch": 38,
                "velocity": 51,
                "duration": 0.0659091,
                "tempo": 120.0
            },
            {
                "start_time": 2.5409091,
                "end_time": 2.6045455,
                "pitch": 43,
                "velocity": 51,
                "duration": 0.0636364,
                "tempo": 120.0
            },
            {
                "start_time": 2.6227273,
                "end_time": 2.6863636,
                "pitch": 38,
                "velocity": 51,
                "duration": 0.0636364,
                "tempo": 120.0
            },
            {
                "start_time": 2.7045455,
                "end_time": 2.8522727,
                "pitch": 31,
                "velocity": 51,
                "duration": 0.1477273,
                "tempo": 120.0
            },
            {
                "start_time": 2.8863636,
                "end_time": 3.0204545,
                "pitch": 38,
                "velocity": 51,
                "duration": 0.1340909,
                "tempo": 120.0
            },
            {
                "start_time": 3.0545455,
                "end_time": 3.1909091,
                "pitch": 43,
                "velocity": 51,
                "duration": 0.1363636,
                "tempo": 120.0
            },
            {
                "start_time": 3.2272727,
                "end_time": 3.5454545,
                "pitch": 31,
                "velocity": 51,
                "duration": 0.3181818,
                "tempo": 120.0
            },
            {
                "start_time": 3.5613636,
                "end_time": 3.7068182,
                "pitch": 31,
                "velocity": 51,
                "duration": 0.1454545,
                "tempo": 120.0
            },
            {
                "start_time": 3.725,
                "end_time": 3.7909091,
                "pitch": 31,
                "velocity": 51,
                "duration": 0.0659091,
                "tempo": 120.0
            },
            {
                "start_time": 3.825,
                "end_time": 3.875,
                "pitch": 38,
                "velocity": 51,
                "duration": 0.05,
                "tempo": 120.0
            },
            {
                "start_time": 3.9090909,
                "end_time": 3.9590909,
                "pitch": 43,
                "velocity": 51,
                "duration": 0.05,
                "tempo": 120.0
            },
            {
                "start_time": 3.9909091,
                "end_time": 4.0431818,
                "pitch": 38,
                "velocity": 51,
                "duration": 0.0522727,
                "tempo": 120.0
            },
            {
                "start_time": 4.0772727,
                "end_time": 4.2136364,
                "pitch": 31,
                "velocity": 51,
                "duration": 0.1363636,
                "tempo": 120.0
            },
            {
                "start_time": 4.2477273,
                "end_time": 4.3863636,
                "pitch": 38,
                "velocity": 51,
                "duration": 0.1386364,
                "tempo": 120.0
            },
            {
                "start_time": 4.4204545,
                "end_time": 4.5659091,
                "pitch": 43,
                "velocity": 51,
                "duration": 0.1454545,
                "tempo": 120.0
            },
            {
                "start_time": 4.5840909,
                "end_time": 4.9,
                "pitch": 31,
                "velocity": 51,
                "duration": 0.3159091,
                "tempo": 120.0
            },
            {
                "start_time": 4.9340909,
                "end_time": 5.0704545,
                "pitch": 31,
                "velocity": 51,
                "duration": 0.1363636,
                "tempo": 120.0
            },
            {
                "start_time": 5.1068182,
                "end_time": 5.1568182,
                "pitch": 31,
                "velocity": 51,
                "duration": 0.05,
                "tempo": 120.0
            },
            {
                "start_time": 5.1909091,
                "end_time": 5.2409091,
                "pitch": 38,
                "velocity": 51,
                "duration": 0.05,
                "tempo": 120.0
            },
            {
                "start_time": 5.275,
                "end_time": 5.325,
                "pitch": 43,
                "velocity": 51,
                "duration": 0.05,
                "tempo": 120.0
            },
            {
                "start_time": 5.3568182,
                "end_time": 5.425,
                "pitch": 38,
                "velocity": 51,
                "duration": 0.0681818,
                "tempo": 120.0
            },
            {
                "start_time": 5.4431818,
                "end_time": 5.5909091,
                "pitch": 31,
                "velocity": 51,
                "duration": 0.1477273,
                "tempo": 120.0
            },
            {
                "start_time": 5.6090909,
                "end_time": 5.7590909,
                "pitch": 31,
                "velocity": 51,
                "duration": 0.15,
                "tempo": 120.0
            },
            {
                "start_time": 5.7931818,
                "end_time": 5.9272727,
                "pitch": 33,
                "velocity": 51,
                "duration": 0.1340909,
                "tempo": 120.0
            },
            {
                "start_time": 5.9613636,
                "end_time": 6.0931818,
                "pitch": 34,
                "velocity": 51,
                "duration": 0.1318182,
                "tempo": 120.0
            },
            {
                "start_time": 6.1272727,
                "end_time": 6.2568182,
                "pitch": 31,
                "velocity": 51,
                "duration": 0.1295455,
                "tempo": 120.0
            },
            {
                "start_time": 6.2909091,
                "end_time": 6.4363636,
                "pitch": 31,
                "velocity": 51,
                "duration": 0.1454545,
                "tempo": 120.0
            },
            {
                "start_time": 6.4522727,
                "end_time": 6.6022727,
                "pitch": 33,
                "velocity": 51,
                "duration": 0.15,
                "tempo": 120.0
            },
            {
                "start_time": 6.6204545,
                "end_time": 6.7704545,
                "pitch": 34,
                "velocity": 51,
                "duration": 0.15,
                "tempo": 120.0
            },
            {
                "start_time": 6.8045455,
                "end_time": 6.9409091,
                "pitch": 31,
                "velocity": 51,
                "duration": 0.1363636,
                "tempo": 120.0
            },
            {
                "start_time": 6.9772727,
                "end_time": 7.1136364,
                "pitch": 31,
                "velocity": 51,
                "duration": 0.1363636,
                "tempo": 120.0
            },
            {
                "start_time": 7.15,
                "end_time": 7.2795455,
                "pitch": 33,
                "velocity": 51,
                "duration": 0.1295455,
                "tempo": 120.0
            },
            {
                "start_time": 7.3113636,
                "end_time": 7.4568182,
                "pitch": 34,
                "velocity": 51,
                "duration": 0.1454545,
                "tempo": 120.0
            },
            {
                "start_time": 7.475,
                "end_time": 7.625,
                "pitch": 31,
                "velocity": 51,
                "duration": 0.15,
                "tempo": 120.0
            },
            {
                "start_time": 7.6409091,
                "end_time": 7.7909091,
                "pitch": 31,
                "velocity": 51,
                "duration": 0.15,
                "tempo": 120.0
            },
            {
                "start_time": 7.825,
                "end_time": 7.9636364,
                "pitch": 33,
                "velocity": 51,
                "duration": 0.1386364,
                "tempo": 120.0
            },
            {
                "start_time": 7.9977273,
                "end_time": 8.1363636,
                "pitch": 34,
                "velocity": 51,
                "duration": 0.1386364,
                "tempo": 120.0
            },
            {
                "start_time": 8.1704545,
                "end_time": 8.3,
                "pitch": 31,
                "velocity": 51,
                "duration": 0.1295455,
                "tempo": 120.0
            },
            {
                "start_time": 8.3340909,
                "end_time": 8.4795455,
                "pitch": 31,
                "velocity": 51,
                "duration": 0.1454545,
                "tempo": 120.0
            },
            {
                "start_time": 8.4954545,
                "end_time": 8.6454545,
                "pitch": 33,
                "velocity": 51,
                "duration": 0.15,
                "tempo": 120.0
            },
            {
                "start_time": 8.6636364,
                "end_time": 8.8136364,
                "pitch": 34,
                "velocity": 51,
                "duration": 0.15,
                "tempo": 120.0
            },
            {
                "start_time": 8.8477273,
                "end_time": 8.9795455,
                "pitch": 31,
                "velocity": 51,
                "duration": 0.1318182,
                "tempo": 120.0
            },
            {
                "start_time": 9.0136364,
                "end_time": 9.1477273,
                "pitch": 31,
                "velocity": 51,
                "duration": 0.1340909,
                "tempo": 120.0
            },
            {
                "start_time": 9.1818182,
                "end_time": 9.3159091,
                "pitch": 33,
                "velocity": 51,
                "duration": 0.1340909,
                "tempo": 120.0
            },
            {
                "start_time": 9.35,
                "end_time": 9.5,
                "pitch": 34,
                "velocity": 51,
                "duration": 0.15,
                "tempo": 120.0
            },
            {
                "start_time": 9.5159091,
                "end_time": 9.6636364,
                "pitch": 31,
                "velocity": 51,
                "duration": 0.1477273,
                "tempo": 120.0
            },
            {
                "start_time": 9.6954545,
                "end_time": 9.825,
                "pitch": 31,
                "velocity": 51,
                "duration": 0.1295455,
                "tempo": 120.0
            },
            {
                "start_time": 9.8590909,
                "end_time": 9.9954545,
                "pitch": 33,
                "velocity": 51,
                "duration": 0.1363636,
                "tempo": 120.0
            },
            {
                "start_time": 10.0295455,
                "end_time": 10.1681818,
                "pitch": 34,
                "velocity": 51,
                "duration": 0.1386364,
                "tempo": 120.0
            },
            {
                "start_time": 10.2022727,
                "end_time": 10.3522727,
                "pitch": 31,
                "velocity": 51,
                "duration": 0.15,
                "tempo": 120.0
            },
            {
                "start_time": 10.3704545,
                "end_time": 10.5204545,
                "pitch": 31,
                "velocity": 51,
                "duration": 0.15,
                "tempo": 120.0
            },
            {
                "start_time": 10.5386364,
                "end_time": 10.6840909,
                "pitch": 33,
                "velocity": 51,
                "duration": 0.1454545,
                "tempo": 120.0
            },
            {
                "start_time": 10.7159091,
                "end_time": 10.8477273,
                "pitch": 34,
                "velocity": 51,
                "duration": 0.1318182,
                "tempo": 120.0
            },
            {
                "start_time": 10.8818182,
                "end_time": 11.0159091,
                "pitch": 31,
                "velocity": 51,
                "duration": 0.1340909,
                "tempo": 120.0
            },
            {
                "start_time": 11.0522727,
                "end_time": 11.1886364,
                "pitch": 31,
                "velocity": 51,
                "duration": 0.1363636,
                "tempo": 120.0
            },
            {
                "start_time": 11.225,
                "end_time": 11.3704545,
                "pitch": 33,
                "velocity": 51,
                "duration": 0.1454545,
                "tempo": 120.0
            },
            {
                "start_time": 11.3863636,
                "end_time": 11.5318182,
                "pitch": 34,
                "velocity": 51,
                "duration": 0.1454545,
                "tempo": 120.0
            },
            {
                "start_time": 11.55,
                "end_time": 11.7,
                "pitch": 31,
                "velocity": 51,
                "duration": 0.15,
                "tempo": 120.0
            },
            {
                "start_time": 11.7340909,
                "end_time": 11.8659091,
                "pitch": 31,
                "velocity": 51,
                "duration": 0.1318182,
                "tempo": 120.0
            },
            {
                "start_time": 11.9022727,
                "end_time": 12.0386364,
                "pitch": 33,
                "velocity": 51,
                "duration": 0.1363636,
                "tempo": 120.0
            },
            {
                "start_time": 12.0727273,
                "end_time": 12.2113636,
                "pitch": 34,
                "velocity": 51,
                "duration": 0.1386364,
                "tempo": 120.0
            },
            {
                "start_time": 12.2454545,
                "end_time": 12.3909091,
                "pitch": 31,
                "velocity": 51,
                "duration": 0.1454545,
                "tempo": 120.0
            },
            {
                "start_time": 12.4090909,
                "end_time": 12.5545455,
                "pitch": 31,
                "velocity": 51,
                "duration": 0.1454545,
                "tempo": 120.0
            },
            {
                "start_time": 12.5704545,
                "end_time": 12.7204545,
                "pitch": 33,
                "velocity": 51,
                "duration": 0.15,
                "tempo": 120.0
            },
            {
                "start_time": 12.7545455,
                "end_time": 12.8886364,
                "pitch": 34,
                "velocity": 51,
                "duration": 0.1340909,
                "tempo": 120.0
            },
            {
                "start_time": 12.9227273,
                "end_time": 13.0590909,
                "pitch": 31,
                "velocity": 51,
                "duration": 0.1363636,
                "tempo": 120.0
            },
            {
                "start_time": 13.0931818,
                "end_time": 13.2318182,
                "pitch": 31,
                "velocity": 51,
                "duration": 0.1386364,
                "tempo": 120.0
            },
            {
                "start_time": 13.2659091,
                "end_time": 13.4136364,
                "pitch": 33,
                "velocity": 51,
                "duration": 0.1477273,
                "tempo": 120.0
            },
            {
                "start_time": 13.4295455,
                "end_time": 13.575,
                "pitch": 34,
                "velocity": 51,
                "duration": 0.1454545,
                "tempo": 120.0
            },
            {
                "start_time": 13.5931818,
                "end_time": 13.7409091,
                "pitch": 31,
                "velocity": 51,
                "duration": 0.1477273,
                "tempo": 120.0
            },
            {
                "start_time": 13.775,
                "end_time": 13.9090909,
                "pitch": 31,
                "velocity": 51,
                "duration": 0.1340909,
                "tempo": 120.0
            },
            {
                "start_time": 13.9431818,
                "end_time": 14.0772727,
                "pitch": 33,
                "velocity": 51,
                "duration": 0.1340909,
                "tempo": 120.0
            },
            {
                "start_time": 14.1113636,
                "end_time": 14.2431818,
                "pitch": 34,
                "velocity": 51,
                "duration": 0.1318182,
                "tempo": 120.0
            },
            {
                "start_time": 14.2772727,
                "end_time": 14.4272727,
                "pitch": 31,
                "velocity": 51,
                "duration": 0.15,
                "tempo": 120.0
            },
            {
                "start_time": 14.4454545,
                "end_time": 14.5954545,
                "pitch": 31,
                "velocity": 51,
                "duration": 0.15,
                "tempo": 120.0
            },
            {
                "start_time": 14.6295455,
                "end_time": 14.7659091,
                "pitch": 33,
                "velocity": 51,
                "duration": 0.1363636,
                "tempo": 120.0
            },
            {
                "start_time": 14.8022727,
                "end_time": 14.9386364,
                "pitch": 34,
                "velocity": 51,
                "duration": 0.1363636,
                "tempo": 120.0
            },
            {
                "start_time": 14.975,
                "end_time": 15.1045455,
                "pitch": 31,
                "velocity": 51,
                "duration": 0.1295455,
                "tempo": 120.0
            },
            {
                "start_time": 15.1386364,
                "end_time": 15.2818182,
                "pitch": 31,
                "velocity": 51,
                "duration": 0.1431818,
                "tempo": 120.0
            },
            {
                "start_time": 15.3,
                "end_time": 15.45,
                "pitch": 33,
                "velocity": 51,
                "duration": 0.15,
                "tempo": 120.0
            },
            {
                "start_time": 15.4659091,
                "end_time": 15.6159091,
                "pitch": 34,
                "velocity": 51,
                "duration": 0.15,
                "tempo": 120.0
            },
            {
                "start_time": 15.65,
                "end_time": 15.7886364,
                "pitch": 31,
                "velocity": 51,
                "duration": 0.1386364,
                "tempo": 120.0
            },
            {
                "start_time": 15.8227273,
                "end_time": 15.9590909,
                "pitch": 31,
                "velocity": 51,
                "duration": 0.1363636,
                "tempo": 120.0
            },
            {
                "start_time": 15.9954545,
                "end_time": 16.125,
                "pitch": 33,
                "velocity": 51,
                "duration": 0.1295455,
                "tempo": 120.0
            },
            {
                "start_time": 16.1568182,
                "end_time": 16.3045455,
                "pitch": 34,
                "velocity": 51,
                "duration": 0.1477273,
                "tempo": 120.0
            },
            {
                "start_time": 16.3227273,
                "end_time": 16.4704545,
                "pitch": 31,
                "velocity": 51,
                "duration": 0.1477273,
                "tempo": 120.0
            },
            {
                "start_time": 16.4886364,
                "end_time": 16.6386364,
                "pitch": 31,
                "velocity": 51,
                "duration": 0.15,
                "tempo": 120.0
            },
            {
                "start_time": 16.6727273,
                "end_time": 16.8045455,
                "pitch": 33,
                "velocity": 51,
                "duration": 0.1318182,
                "tempo": 120.0
            },
            {
                "start_time": 16.8386364,
                "end_time": 16.9727273,
                "pitch": 34,
                "velocity": 51,
                "duration": 0.1340909,
                "tempo": 120.0
            },
            {
                "start_time": 17.0068182,
                "end_time": 17.1409091,
                "pitch": 31,
                "velocity": 51,
                "duration": 0.1340909,
                "tempo": 120.0
            },
            {
                "start_time": 17.175,
                "end_time": 17.325,
                "pitch": 31,
                "velocity": 51,
                "duration": 0.15,
                "tempo": 120.0
            },
            {
                "start_time": 17.3409091,
                "end_time": 17.4886364,
                "pitch": 33,
                "velocity": 51,
                "duration": 0.1477273,
                "tempo": 120.0
            },
            {
                "start_time": 17.5045455,
                "end_time": 17.65,
                "pitch": 34,
                "velocity": 51,
                "duration": 0.1454545,
                "tempo": 120.0
            },
            {
                "start_time": 17.6840909,
                "end_time": 17.8204545,
                "pitch": 31,
                "velocity": 51,
                "duration": 0.1363636,
                "tempo": 120.0
            },
            {
                "start_time": 17.8568182,
                "end_time": 17.9931818,
                "pitch": 31,
                "velocity": 51,
                "duration": 0.1363636,
                "tempo": 120.0
            },
            {
                "start_time": 18.0272727,
                "end_time": 18.1613636,
                "pitch": 33,
                "velocity": 51,
                "duration": 0.1340909,
                "tempo": 120.0
            },
            {
                "start_time": 18.1954545,
                "end_time": 18.3454545,
                "pitch": 34,
                "velocity": 51,
                "duration": 0.15,
                "tempo": 120.0
            },
            {
                "start_time": 18.3636364,
                "end_time": 18.5090909,
                "pitch": 31,
                "velocity": 51,
                "duration": 0.1454545,
                "tempo": 120.0
            },
            {
                "start_time": 18.525,
                "end_time": 18.6704545,
                "pitch": 31,
                "velocity": 51,
                "duration": 0.1454545,
                "tempo": 120.0
            },
            {
                "start_time": 18.7045455,
                "end_time": 18.8409091,
                "pitch": 33,
                "velocity": 51,
                "duration": 0.1363636,
                "tempo": 120.0
            },
            {
                "start_time": 18.8772727,
                "end_time": 19.0136364,
                "pitch": 34,
                "velocity": 51,
                "duration": 0.1363636,
                "tempo": 120.0
            },
            {
                "start_time": 19.05,
                "end_time": 19.1818182,
                "pitch": 31,
                "velocity": 51,
                "duration": 0.1318182,
                "tempo": 120.0
            },
            {
                "start_time": 19.2159091,
                "end_time": 19.3659091,
                "pitch": 31,
                "velocity": 51,
                "duration": 0.15,
                "tempo": 120.0
            },
            {
                "start_time": 19.3840909,
                "end_time": 19.5295455,
                "pitch": 33,
                "velocity": 51,
                "duration": 0.1454545,
                "tempo": 120.0
            },
            {
                "start_time": 19.5636364,
                "end_time": 19.6931818,
                "pitch": 34,
                "velocity": 51,
                "duration": 0.1295455,
                "tempo": 120.0
            },
            {
                "start_time": 19.7272727,
                "end_time": 19.8636364,
                "pitch": 31,
                "velocity": 51,
                "duration": 0.1363636,
                "tempo": 120.0
            },
            {
                "start_time": 19.8977273,
                "end_time": 20.0340909,
                "pitch": 31,
                "velocity": 51,
                "duration": 0.1363636,
                "tempo": 120.0
            },
            {
                "start_time": 20.0704545,
                "end_time": 20.2159091,
                "pitch": 33,
                "velocity": 51,
                "duration": 0.1454545,
                "tempo": 120.0
            },
            {
                "start_time": 20.2340909,
                "end_time": 20.3795455,
                "pitch": 34,
                "velocity": 51,
                "duration": 0.1454545,
                "tempo": 120.0
            },
            {
                "start_time": 20.3977273,
                "end_time": 20.5454545,
                "pitch": 31,
                "velocity": 51,
                "duration": 0.1477273,
                "tempo": 120.0
            },
            {
                "start_time": 20.5795455,
                "end_time": 20.7136364,
                "pitch": 31,
                "velocity": 51,
                "duration": 0.1340909,
                "tempo": 120.0
            },
            {
                "start_time": 20.7477273,
                "end_time": 20.8840909,
                "pitch": 33,
                "velocity": 51,
                "duration": 0.1363636,
                "tempo": 120.0
            },
            {
                "start_time": 20.9204545,
                "end_time": 21.0568182,
                "pitch": 34,
                "velocity": 51,
                "duration": 0.1363636,
                "tempo": 120.0
            },
            {
                "start_time": 21.0909091,
                "end_time": 21.2363636,
                "pitch": 31,
                "velocity": 51,
                "duration": 0.1454545,
                "tempo": 120.0
            },
            {
                "start_time": 21.2545455,
                "end_time": 21.4,
                "pitch": 31,
                "velocity": 51,
                "duration": 0.1454545,
                "tempo": 120.0
            },
            {
                "start_time": 21.4159091,
                "end_time": 21.5659091,
                "pitch": 33,
                "velocity": 51,
                "duration": 0.15,
                "tempo": 120.0
            },
            {
                "start_time": 21.6,
                "end_time": 21.7340909,
                "pitch": 34,
                "velocity": 51,
                "duration": 0.1340909,
                "tempo": 120.0
            },
            {
                "start_time": 21.7704545,
                "end_time": 21.9045455,
                "pitch": 38,
                "velocity": 51,
                "duration": 0.1340909,
                "tempo": 120.0
            },
            {
                "start_time": 21.9409091,
                "end_time": 22.0772727,
                "pitch": 38,
                "velocity": 51,
                "duration": 0.1363636,
                "tempo": 120.0
            },
            {
                "start_time": 22.1136364,
                "end_time": 22.2590909,
                "pitch": 40,
                "velocity": 51,
                "duration": 0.1454545,
                "tempo": 120.0
            },
            {
                "start_time": 22.275,
                "end_time": 22.4227273,
                "pitch": 41,
                "velocity": 51,
                "duration": 0.1477273,
                "tempo": 120.0
            },
            {
                "start_time": 22.4386364,
                "end_time": 22.5840909,
                "pitch": 38,
                "velocity": 51,
                "duration": 0.1454545,
                "tempo": 120.0
            },
            {
                "start_time": 22.6181818,
                "end_time": 22.7477273,
                "pitch": 38,
                "velocity": 51,
                "duration": 0.1295455,
                "tempo": 120.0
            },
            {
                "start_time": 22.7795455,
                "end_time": 22.9181818,
                "pitch": 40,
                "velocity": 51,
                "duration": 0.1386364,
                "tempo": 120.0
            },
            {
                "start_time": 22.9522727,
                "end_time": 23.0886364,
                "pitch": 41,
                "velocity": 51,
                "duration": 0.1363636,
                "tempo": 120.0
            },
            {
                "start_time": 23.125,
                "end_time": 23.275,
                "pitch": 38,
                "velocity": 51,
                "duration": 0.15,
                "tempo": 120.0
            },
            {
                "start_time": 23.2931818,
                "end_time": 23.4431818,
                "pitch": 38,
                "velocity": 51,
                "duration": 0.15,
                "tempo": 120.0
            },
            {
                "start_time": 23.4590909,
                "end_time": 23.6068182,
                "pitch": 40,
                "velocity": 51,
                "duration": 0.1477273,
                "tempo": 120.0
            },
            {
                "start_time": 23.6386364,
                "end_time": 23.7681818,
                "pitch": 41,
                "velocity": 51,
                "duration": 0.1295455,
                "tempo": 120.0
            },
            {
                "start_time": 23.8022727,
                "end_time": 23.9386364,
                "pitch": 38,
                "velocity": 51,
                "duration": 0.1363636,
                "tempo": 120.0
            },
            {
                "start_time": 23.9727273,
                "end_time": 24.1113636,
                "pitch": 38,
                "velocity": 51,
                "duration": 0.1386364,
                "tempo": 120.0
            },
            {
                "start_time": 24.1454545,
                "end_time": 24.2954545,
                "pitch": 40,
                "velocity": 51,
                "duration": 0.15,
                "tempo": 120.0
            },
            {
                "start_time": 24.3136364,
                "end_time": 24.4636364,
                "pitch": 41,
                "velocity": 51,
                "duration": 0.15,
                "tempo": 120.0
            },
            {
                "start_time": 24.4977273,
                "end_time": 24.6340909,
                "pitch": 38,
                "velocity": 51,
                "duration": 0.1363636,
                "tempo": 120.0
            },
            {
                "start_time": 24.6704545,
                "end_time": 24.8068182,
                "pitch": 38,
                "velocity": 51,
                "duration": 0.1363636,
                "tempo": 120.0
            },
            {
                "start_time": 24.8431818,
                "end_time": 24.9727273,
                "pitch": 40,
                "velocity": 51,
                "duration": 0.1295455,
                "tempo": 120.0
            },
            {
                "start_time": 25.0045455,
                "end_time": 25.1340909,
                "pitch": 41,
                "velocity": 51,
                "duration": 0.1295455,
                "tempo": 120.0
            },
            {
                "start_time": 25.1681818,
                "end_time": 25.3136364,
                "pitch": 38,
                "velocity": 51,
                "duration": 0.1454545,
                "tempo": 120.0
            },
            {
                "start_time": 25.3318182,
                "end_time": 25.4772727,
                "pitch": 38,
                "velocity": 51,
                "duration": 0.1454545,
                "tempo": 120.0
            },
            {
                "start_time": 25.5090909,
                "end_time": 25.6477273,
                "pitch": 40,
                "velocity": 51,
                "duration": 0.1386364,
                "tempo": 120.0
            },
            {
                "start_time": 25.6818182,
                "end_time": 25.8181818,
                "pitch": 41,
                "velocity": 51,
                "duration": 0.1363636,
                "tempo": 120.0
            },
            {
                "start_time": 25.8545455,
                "end_time": 25.9886364,
                "pitch": 38,
                "velocity": 51,
                "duration": 0.1340909,
                "tempo": 120.0
            },
            {
                "start_time": 26.0227273,
                "end_time": 26.1727273,
                "pitch": 38,
                "velocity": 51,
                "duration": 0.15,
                "tempo": 120.0
            },
            {
                "start_time": 26.1886364,
                "end_time": 26.3340909,
                "pitch": 40,
                "velocity": 51,
                "duration": 0.1454545,
                "tempo": 120.0
            },
            {
                "start_time": 26.3522727,
                "end_time": 26.4977273,
                "pitch": 41,
                "velocity": 51,
                "duration": 0.1454545,
                "tempo": 120.0
            },
            {
                "start_time": 26.5318182,
                "end_time": 26.6681818,
                "pitch": 38,
                "velocity": 51,
                "duration": 0.1363636,
                "tempo": 120.0
            },
            {
                "start_time": 26.7022727,
                "end_time": 26.8409091,
                "pitch": 38,
                "velocity": 51,
                "duration": 0.1386364,
                "tempo": 120.0
            },
            {
                "start_time": 26.875,
                "end_time": 27.0045455,
                "pitch": 40,
                "velocity": 51,
                "duration": 0.1295455,
                "tempo": 120.0
            },
            {
                "start_time": 27.0386364,
                "end_time": 27.1840909,
                "pitch": 41,
                "velocity": 51,
                "duration": 0.1454545,
                "tempo": 120.0
            },
            {
                "start_time": 27.2022727,
                "end_time": 27.35,
                "pitch": 38,
                "velocity": 51,
                "duration": 0.1477273,
                "tempo": 120.0
            },
            {
                "start_time": 27.3681818,
                "end_time": 27.5181818,
                "pitch": 38,
                "velocity": 51,
                "duration": 0.15,
                "tempo": 120.0
            },
            {
                "start_time": 27.5522727,
                "end_time": 27.6886364,
                "pitch": 40,
                "velocity": 51,
                "duration": 0.1363636,
                "tempo": 120.0
            },
            {
                "start_time": 27.7227273,
                "end_time": 27.8613636,
                "pitch": 41,
                "velocity": 51,
                "duration": 0.1386364,
                "tempo": 120.0
            },
            {
                "start_time": 27.8954545,
                "end_time": 28.025,
                "pitch": 38,
                "velocity": 51,
                "duration": 0.1295455,
                "tempo": 120.0
            },
            {
                "start_time": 28.0590909,
                "end_time": 28.2045455,
                "pitch": 38,
                "velocity": 51,
                "duration": 0.1454545,
                "tempo": 120.0
            },
            {
                "start_time": 28.2227273,
                "end_time": 28.3727273,
                "pitch": 40,
                "velocity": 51,
                "duration": 0.15,
                "tempo": 120.0
            },
            {
                "start_time": 28.3886364,
                "end_time": 28.5386364,
                "pitch": 41,
                "velocity": 51,
                "duration": 0.15,
                "tempo": 120.0
            },
            {
                "start_time": 28.5727273,
                "end_time": 28.7090909,
                "pitch": 38,
                "velocity": 51,
                "duration": 0.1363636,
                "tempo": 120.0
            },
            {
                "start_time": 28.7454545,
                "end_time": 28.8818182,
                "pitch": 38,
                "velocity": 51,
                "duration": 0.1363636,
                "tempo": 120.0
            },
            {
                "start_time": 28.9181818,
                "end_time": 29.0477273,
                "pitch": 40,
                "velocity": 51,
                "duration": 0.1295455,
                "tempo": 120.0
            },
            {
                "start_time": 29.0795455,
                "end_time": 29.2272727,
                "pitch": 41,
                "velocity": 51,
                "duration": 0.1477273,
                "tempo": 120.0
            },
            {
                "start_time": 29.2431818,
                "end_time": 29.3931818,
                "pitch": 38,
                "velocity": 51,
                "duration": 0.15,
                "tempo": 120.0
            },
            {
                "start_time": 29.4113636,
                "end_time": 29.5613636,
                "pitch": 38,
                "velocity": 51,
                "duration": 0.15,
                "tempo": 120.0
            },
            {
                "start_time": 29.5954545,
                "end_time": 29.7272727,
                "pitch": 40,
                "velocity": 51,
                "duration": 0.1318182,
                "tempo": 120.0
            },
            {
                "start_time": 29.7613636,
                "end_time": 29.8954545,
                "pitch": 41,
                "velocity": 51,
                "duration": 0.1340909,
                "tempo": 120.0
            },
            {
                "start_time": 29.9295455,
                "end_time": 30.0613636,
                "pitch": 38,
                "velocity": 51,
                "duration": 0.1318182,
                "tempo": 120.0
            },
            {
                "start_time": 30.0977273,
                "end_time": 30.2454545,
                "pitch": 38,
                "velocity": 51,
                "duration": 0.1477273,
                "tempo": 120.0
            },
            {
                "start_time": 30.2636364,
                "end_time": 30.4090909,
                "pitch": 40,
                "velocity": 51,
                "duration": 0.1454545,
                "tempo": 120.0
            },
            {
                "start_time": 30.4431818,
                "end_time": 30.5727273,
                "pitch": 41,
                "velocity": 51,
                "duration": 0.1295455,
                "tempo": 120.0
            },
            {
                "start_time": 30.6068182,
                "end_time": 30.7431818,
                "pitch": 38,
                "velocity": 51,
                "duration": 0.1363636,
                "tempo": 120.0
            },
            {
                "start_time": 30.7772727,
                "end_time": 30.9159091,
                "pitch": 38,
                "velocity": 51,
                "duration": 0.1386364,
                "tempo": 120.0
            },
            {
                "start_time": 30.95,
                "end_time": 31.1,
                "pitch": 40,
                "velocity": 51,
                "duration": 0.15,
                "tempo": 120.0
            },
            {
                "start_time": 31.1181818,
                "end_time": 31.2681818,
                "pitch": 41,
                "velocity": 51,
                "duration": 0.15,
                "tempo": 120.0
            },
            {
                "start_time": 31.2863636,
                "end_time": 31.4318182,
                "pitch": 38,
                "velocity": 51,
                "duration": 0.1454545,
                "tempo": 120.0
            },
            {
                "start_time": 31.4636364,
                "end_time": 31.5931818,
                "pitch": 38,
                "velocity": 51,
                "duration": 0.1295455,
                "tempo": 120.0
            },
            {
                "start_time": 31.6272727,
                "end_time": 31.7636364,
                "pitch": 40,
                "velocity": 51,
                "duration": 0.1363636,
                "tempo": 120.0
            },
            {
                "start_time": 31.8,
                "end_time": 31.9363636,
                "pitch": 41,
                "velocity": 51,
                "duration": 0.1363636,
                "tempo": 120.0
            },
            {
                "start_time": 31.9704545,
                "end_time": 32.1181818,
                "pitch": 38,
                "velocity": 51,
                "duration": 0.1477273,
                "tempo": 120.0
            },
            {
                "start_time": 32.1340909,
                "end_time": 32.2795455,
                "pitch": 38,
                "velocity": 51,
                "duration": 0.1454545,
                "tempo": 120.0
            },
            {
                "start_time": 32.2977273,
                "end_time": 32.4477273,
                "pitch": 40,
                "velocity": 51,
                "duration": 0.15,
                "tempo": 120.0
            },
            {
                "start_time": 32.4818182,
                "end_time": 32.6136364,
                "pitch": 41,
                "velocity": 51,
                "duration": 0.1318182,
                "tempo": 120.0
            },
            {
                "start_time": 32.65,
                "end_time": 32.7840909,
                "pitch": 31,
                "velocity": 51,
                "duration": 0.1340909,
                "tempo": 120.0
            },
            {
                "start_time": 32.8204545,
                "end_time": 32.9568182,
                "pitch": 31,
                "velocity": 51,
                "duration": 0.1363636,
                "tempo": 120.0
            },
            {
                "start_time": 32.9931818,
                "end_time": 33.1386364,
                "pitch": 33,
                "velocity": 51,
                "duration": 0.1454545,
                "tempo": 120.0
            },
            {
                "start_time": 33.1545455,
                "end_time": 33.3022727,
                "pitch": 34,
                "velocity": 51,
                "duration": 0.1477273,
                "tempo": 120.0
            },
            {
                "start_time": 33.3181818,
                "end_time": 33.4681818,
                "pitch": 31,
                "velocity": 51,
                "duration": 0.15,
                "tempo": 120.0
            },
            {
                "start_time": 33.5022727,
                "end_time": 33.6363636,
                "pitch": 31,
                "velocity": 51,
                "duration": 0.1340909,
                "tempo": 120.0
            },
            {
                "start_time": 33.6704545,
                "end_time": 33.8068182,
                "pitch": 33,
                "velocity": 51,
                "duration": 0.1363636,
                "tempo": 120.0
            },
            {
                "start_time": 33.8409091,
                "end_time": 33.9795455,
                "pitch": 34,
                "velocity": 51,
                "duration": 0.1386364,
                "tempo": 120.0
            },
            {
                "start_time": 34.0136364,
                "end_time": 34.1590909,
                "pitch": 31,
                "velocity": 51,
                "duration": 0.1454545,
                "tempo": 120.0
            },
            {
                "start_time": 34.1772727,
                "end_time": 34.3227273,
                "pitch": 31,
                "velocity": 51,
                "duration": 0.1454545,
                "tempo": 120.0
            },
            {
                "start_time": 34.3386364,
                "end_time": 34.4886364,
                "pitch": 33,
                "velocity": 51,
                "duration": 0.15,
                "tempo": 120.0
            },
            {
                "start_time": 34.525,
                "end_time": 34.6568182,
                "pitch": 34,
                "velocity": 51,
                "duration": 0.1318182,
                "tempo": 120.0
            },
            {
                "start_time": 34.6909091,
                "end_time": 34.825,
                "pitch": 31,
                "velocity": 51,
                "duration": 0.1340909,
                "tempo": 120.0
            },
            {
                "start_time": 34.8568182,
                "end_time": 34.9909091,
                "pitch": 31,
                "velocity": 51,
                "duration": 0.1340909,
                "tempo": 120.0
            },
            {
                "start_time": 35.025,
                "end_time": 35.175,
                "pitch": 33,
                "velocity": 51,
                "duration": 0.15,
                "tempo": 120.0
            },
            {
                "start_time": 35.1931818,
                "end_time": 35.3431818,
                "pitch": 34,
                "velocity": 51,
                "duration": 0.15,
                "tempo": 120.0
            },
            {
                "start_time": 35.3772727,
                "end_time": 35.5136364,
                "pitch": 31,
                "velocity": 51,
                "duration": 0.1363636,
                "tempo": 120.0
            },
            {
                "start_time": 35.5477273,
                "end_time": 35.6863636,
                "pitch": 31,
                "velocity": 51,
                "duration": 0.1386364,
                "tempo": 120.0
            },
            {
                "start_time": 35.7204545,
                "end_time": 35.85,
                "pitch": 33,
                "velocity": 51,
                "duration": 0.1295455,
                "tempo": 120.0
            },
            {
                "start_time": 35.8840909,
                "end_time": 36.0295455,
                "pitch": 34,
                "velocity": 51,
                "duration": 0.1454545,
                "tempo": 120.0
            },
            {
                "start_time": 36.0477273,
                "end_time": 36.1977273,
                "pitch": 31,
                "velocity": 51,
                "duration": 0.15,
                "tempo": 120.0
            },
            {
                "start_time": 36.2136364,
                "end_time": 36.3636364,
                "pitch": 31,
                "velocity": 51,
                "duration": 0.15,
                "tempo": 120.0
            },
            {
                "start_time": 36.3977273,
                "end_time": 36.5340909,
                "pitch": 33,
                "velocity": 51,
                "duration": 0.1363636,
                "tempo": 120.0
            },
            {
                "start_time": 36.5704545,
                "end_time": 36.7068182,
                "pitch": 34,
                "velocity": 51,
                "duration": 0.1363636,
                "tempo": 120.0
            },
            {
                "start_time": 36.7431818,
                "end_time": 36.8727273,
                "pitch": 31,
                "velocity": 51,
                "duration": 0.1295455,
                "tempo": 120.0
            },
            {
                "start_time": 36.9068182,
                "end_time": 37.0522727,
                "pitch": 31,
                "velocity": 51,
                "duration": 0.1454545,
                "tempo": 120.0
            },
            {
                "start_time": 37.0681818,
                "end_time": 37.2181818,
                "pitch": 33,
                "velocity": 51,
                "duration": 0.15,
                "tempo": 120.0
            },
            {
                "start_time": 37.2363636,
                "end_time": 37.3863636,
                "pitch": 34,
                "velocity": 51,
                "duration": 0.15,
                "tempo": 120.0
            },
            {
                "start_time": 37.4204545,
                "end_time": 37.5522727,
                "pitch": 31,
                "velocity": 51,
                "duration": 0.1318182,
                "tempo": 120.0
            },
            {
                "start_time": 37.5863636,
                "end_time": 37.7204545,
                "pitch": 31,
                "velocity": 51,
                "duration": 0.1340909,
                "tempo": 120.0
            },
            {
                "start_time": 37.7545455,
                "end_time": 37.8863636,
                "pitch": 33,
                "velocity": 51,
                "duration": 0.1318182,
                "tempo": 120.0
            },
            {
                "start_time": 37.9204545,
                "end_time": 38.0704545,
                "pitch": 34,
                "velocity": 51,
                "duration": 0.15,
                "tempo": 120.0
            },
            {
                "start_time": 38.0909091,
                "end_time": 38.2340909,
                "pitch": 31,
                "velocity": 51,
                "duration": 0.1431818,
                "tempo": 120.0
            },
            {
                "start_time": 38.2522727,
                "end_time": 38.3977273,
                "pitch": 31,
                "velocity": 51,
                "duration": 0.1454545,
                "tempo": 120.0
            },
            {
                "start_time": 38.4295455,
                "end_time": 38.5681818,
                "pitch": 33,
                "velocity": 51,
                "duration": 0.1386364,
                "tempo": 120.0
            },
            {
                "start_time": 38.6022727,
                "end_time": 38.7409091,
                "pitch": 34,
                "velocity": 51,
                "duration": 0.1386364,
                "tempo": 120.0
            },
            {
                "start_time": 38.775,
                "end_time": 38.9090909,
                "pitch": 31,
                "velocity": 51,
                "duration": 0.1340909,
                "tempo": 120.0
            },
            {
                "start_time": 38.9431818,
                "end_time": 39.0931818,
                "pitch": 31,
                "velocity": 51,
                "duration": 0.15,
                "tempo": 120.0
            },
            {
                "start_time": 39.1113636,
                "end_time": 39.2568182,
                "pitch": 33,
                "velocity": 51,
                "duration": 0.1454545,
                "tempo": 120.0
            },
            {
                "start_time": 39.2727273,
                "end_time": 39.4181818,
                "pitch": 34,
                "velocity": 51,
                "duration": 0.1454545,
                "tempo": 120.0
            },
            {
                "start_time": 39.4522727,
                "end_time": 39.5886364,
                "pitch": 31,
                "velocity": 51,
                "duration": 0.1363636,
                "tempo": 120.0
            },
            {
                "start_time": 39.625,
                "end_time": 39.7613636,
                "pitch": 31,
                "velocity": 51,
                "duration": 0.1363636,
                "tempo": 120.0
            },
            {
                "start_time": 39.7954545,
                "end_time": 39.925,
                "pitch": 33,
                "velocity": 51,
                "duration": 0.1295455,
                "tempo": 120.0
            },
            {
                "start_time": 39.9590909,
                "end_time": 40.1045455,
                "pitch": 34,
                "velocity": 51,
                "duration": 0.1454545,
                "tempo": 120.0
            },
            {
                "start_time": 40.1204545,
                "end_time": 40.2727273,
                "pitch": 31,
                "velocity": 51,
                "duration": 0.1522727,
                "tempo": 120.0
            },
            {
                "start_time": 40.3045455,
                "end_time": 40.4386364,
                "pitch": 31,
                "velocity": 51,
                "duration": 0.1340909,
                "tempo": 120.0
            },
            {
                "start_time": 40.4727273,
                "end_time": 40.6090909,
                "pitch": 33,
                "velocity": 51,
                "duration": 0.1363636,
                "tempo": 120.0
            },
            {
                "start_time": 40.6454545,
                "end_time": 40.7818182,
                "pitch": 34,
                "velocity": 51,
                "duration": 0.1363636,
                "tempo": 120.0
            },
            {
                "start_time": 40.8181818,
                "end_time": 40.9636364,
                "pitch": 31,
                "velocity": 51,
                "duration": 0.1454545,
                "tempo": 120.0
            },
            {
                "start_time": 40.9795455,
                "end_time": 41.1272727,
                "pitch": 31,
                "velocity": 51,
                "duration": 0.1477273,
                "tempo": 120.0
            },
            {
                "start_time": 41.1431818,
                "end_time": 41.2931818,
                "pitch": 33,
                "velocity": 51,
                "duration": 0.15,
                "tempo": 120.0
            },
            {
                "start_time": 41.3272727,
                "end_time": 41.4613636,
                "pitch": 34,
                "velocity": 51,
                "duration": 0.1340909,
                "tempo": 120.0
            },
            {
                "start_time": 41.4954545,
                "end_time": 41.6318182,
                "pitch": 31,
                "velocity": 51,
                "duration": 0.1363636,
                "tempo": 120.0
            },
            {
                "start_time": 41.6659091,
                "end_time": 41.8045455,
                "pitch": 31,
                "velocity": 51,
                "duration": 0.1386364,
                "tempo": 120.0
            },
            {
                "start_time": 41.8386364,
                "end_time": 41.9840909,
                "pitch": 33,
                "velocity": 51,
                "duration": 0.1454545,
                "tempo": 120.0
            },
            {
                "start_time": 42.0022727,
                "end_time": 42.1477273,
                "pitch": 34,
                "velocity": 51,
                "duration": 0.1454545,
                "tempo": 120.0
            },
            {
                "start_time": 42.1659091,
                "end_time": 42.3136364,
                "pitch": 31,
                "velocity": 51,
                "duration": 0.1477273,
                "tempo": 120.0
            },
            {
                "start_time": 42.35,
                "end_time": 42.4818182,
                "pitch": 31,
                "velocity": 51,
                "duration": 0.1318182,
                "tempo": 120.0
            },
            {
                "start_time": 42.5159091,
                "end_time": 42.65,
                "pitch": 33,
                "velocity": 51,
                "duration": 0.1340909,
                "tempo": 120.0
            },
            {
                "start_time": 42.6840909,
                "end_time": 42.8159091,
                "pitch": 34,
                "velocity": 51,
                "duration": 0.1318182,
                "tempo": 120.0
            },
            {
                "start_time": 42.85,
                "end_time": 43.0,
                "pitch": 31,
                "velocity": 51,
                "duration": 0.15,
                "tempo": 120.0
            },
            {
                "start_time": 43.0181818,
                "end_time": 43.1681818,
                "pitch": 31,
                "velocity": 51,
                "duration": 0.15,
                "tempo": 120.0
            },
            {
                "start_time": 43.1840909,
                "end_time": 43.3318182,
                "pitch": 33,
                "velocity": 51,
                "duration": 0.1477273,
                "tempo": 120.0
            },
            {
                "start_time": 43.3636364,
                "end_time": 43.4931818,
                "pitch": 34,
                "velocity": 51,
                "duration": 0.1295455,
                "tempo": 120.0
            },
            {
                "start_time": 43.5272727,
                "end_time": 43.6636364,
                "pitch": 38,
                "velocity": 51,
                "duration": 0.1363636,
                "tempo": 120.0
            },
            {
                "start_time": 43.6977273,
                "end_time": 43.8363636,
                "pitch": 38,
                "velocity": 51,
                "duration": 0.1386364,
                "tempo": 120.0
            },
            {
                "start_time": 43.8704545,
                "end_time": 44.0204545,
                "pitch": 40,
                "velocity": 51,
                "duration": 0.15,
                "tempo": 120.0
            },
            {
                "start_time": 44.0386364,
                "end_time": 44.1886364,
                "pitch": 41,
                "velocity": 51,
                "duration": 0.15,
                "tempo": 120.0
            },
            {
                "start_time": 44.2068182,
                "end_time": 44.3522727,
                "pitch": 38,
                "velocity": 51,
                "duration": 0.1454545,
                "tempo": 120.0
            },
            {
                "start_time": 44.3863636,
                "end_time": 44.5159091,
                "pitch": 38,
                "velocity": 51,
                "duration": 0.1295455,
                "tempo": 120.0
            },
            {
                "start_time": 44.5477273,
                "end_time": 44.6840909,
                "pitch": 40,
                "velocity": 51,
                "duration": 0.1363636,
                "tempo": 120.0
            },
            {
                "start_time": 44.7204545,
                "end_time": 44.8568182,
                "pitch": 41,
                "velocity": 51,
                "duration": 0.1363636,
                "tempo": 120.0
            },
            {
                "start_time": 44.8931818,
                "end_time": 45.0431818,
                "pitch": 38,
                "velocity": 51,
                "duration": 0.15,
                "tempo": 120.0
            },
            {
                "start_time": 45.0613636,
                "end_time": 45.2090909,
                "pitch": 38,
                "velocity": 51,
                "duration": 0.1477273,
                "tempo": 120.0
            },
            {
                "start_time": 45.2454545,
                "end_time": 45.3772727,
                "pitch": 40,
                "velocity": 51,
                "duration": 0.1318182,
                "tempo": 120.0
            },
            {
                "start_time": 45.4113636,
                "end_time": 45.5454545,
                "pitch": 41,
                "velocity": 51,
                "duration": 0.1340909,
                "tempo": 120.0
            },
            {
                "start_time": 45.5795455,
                "end_time": 45.7113636,
                "pitch": 38,
                "velocity": 51,
                "duration": 0.1318182,
                "tempo": 120.0
            },
            {
                "start_time": 45.7454545,
                "end_time": 45.8954545,
                "pitch": 38,
                "velocity": 51,
                "duration": 0.15,
                "tempo": 120.0
            },
            {
                "start_time": 45.9136364,
                "end_time": 46.0590909,
                "pitch": 40,
                "velocity": 51,
                "duration": 0.1454545,
                "tempo": 120.0
            },
            {
                "start_time": 46.0772727,
                "end_time": 46.2227273,
                "pitch": 41,
                "velocity": 51,
                "duration": 0.1454545,
                "tempo": 120.0
            },
            {
                "start_time": 46.2568182,
                "end_time": 46.3931818,
                "pitch": 38,
                "velocity": 51,
                "duration": 0.1363636,
                "tempo": 120.0
            },
            {
                "start_time": 46.4272727,
                "end_time": 46.5659091,
                "pitch": 38,
                "velocity": 51,
                "duration": 0.1386364,
                "tempo": 120.0
            },
            {
                "start_time": 46.6,
                "end_time": 46.7340909,
                "pitch": 40,
                "velocity": 51,
                "duration": 0.1340909,
                "tempo": 120.0
            },
            {
                "start_time": 46.7681818,
                "end_time": 46.9181818,
                "pitch": 41,
                "velocity": 51,
                "duration": 0.15,
                "tempo": 120.0
            },
            {
                "start_time": 46.9340909,
                "end_time": 47.0818182,
                "pitch": 38,
                "velocity": 51,
                "duration": 0.1477273,
                "tempo": 120.0
            },
            {
                "start_time": 47.0977273,
                "end_time": 47.2431818,
                "pitch": 38,
                "velocity": 51,
                "duration": 0.1454545,
                "tempo": 120.0
            },
            {
                "start_time": 47.2772727,
                "end_time": 47.4136364,
                "pitch": 40,
                "velocity": 51,
                "duration": 0.1363636,
                "tempo": 120.0
            },
            {
                "start_time": 47.45,
                "end_time": 47.5863636,
                "pitch": 41,
                "velocity": 51,
                "duration": 0.1363636,
                "tempo": 120.0
            },
            {
                "start_time": 47.6204545,
                "end_time": 47.7545455,
                "pitch": 38,
                "velocity": 51,
                "duration": 0.1340909,
                "tempo": 120.0
            },
            {
                "start_time": 47.7886364,
                "end_time": 47.9386364,
                "pitch": 38,
                "velocity": 51,
                "duration": 0.15,
                "tempo": 120.0
            },
            {
                "start_time": 47.9568182,
                "end_time": 48.1022727,
                "pitch": 40,
                "velocity": 51,
                "duration": 0.1454545,
                "tempo": 120.0
            },
            {
                "start_time": 48.1204545,
                "end_time": 48.2659091,
                "pitch": 41,
                "velocity": 51,
                "duration": 0.1454545,
                "tempo": 120.0
            },
            {
                "start_time": 48.2977273,
                "end_time": 48.4340909,
                "pitch": 38,
                "velocity": 51,
                "duration": 0.1363636,
                "tempo": 120.0
            },
            {
                "start_time": 48.4704545,
                "end_time": 48.6068182,
                "pitch": 38,
                "velocity": 51,
                "duration": 0.1363636,
                "tempo": 120.0
            },
            {
                "start_time": 48.6409091,
                "end_time": 48.7727273,
                "pitch": 40,
                "velocity": 51,
                "duration": 0.1318182,
                "tempo": 120.0
            },
            {
                "start_time": 48.8045455,
                "end_time": 48.9522727,
                "pitch": 41,
                "velocity": 51,
                "duration": 0.1477273,
                "tempo": 120.0
            },
            {
                "start_time": 48.9681818,
                "end_time": 49.1181818,
                "pitch": 38,
                "velocity": 51,
                "duration": 0.15,
                "tempo": 120.0
            },
            {
                "start_time": 49.1340909,
                "end_time": 49.2840909,
                "pitch": 38,
                "velocity": 51,
                "duration": 0.15,
                "tempo": 120.0
            },
            {
                "start_time": 49.3204545,
                "end_time": 49.4568182,
                "pitch": 40,
                "velocity": 51,
                "duration": 0.1363636,
                "tempo": 120.0
            },
            {
                "start_time": 49.4909091,
                "end_time": 49.6295455,
                "pitch": 41,
                "velocity": 51,
                "duration": 0.1386364,
                "tempo": 120.0
            },
            {
                "start_time": 49.6636364,
                "end_time": 49.7931818,
                "pitch": 38,
                "velocity": 51,
                "duration": 0.1295455,
                "tempo": 120.0
            },
            {
                "start_time": 49.8272727,
                "end_time": 49.9727273,
                "pitch": 38,
                "velocity": 51,
                "duration": 0.1454545,
                "tempo": 120.0
            },
            {
                "start_time": 49.9886364,
                "end_time": 50.1386364,
                "pitch": 40,
                "velocity": 51,
                "duration": 0.15,
                "tempo": 120.0
            },
            {
                "start_time": 50.1727273,
                "end_time": 50.3068182,
                "pitch": 41,
                "velocity": 51,
                "duration": 0.1340909,
                "tempo": 120.0
            },
            {
                "start_time": 50.3409091,
                "end_time": 50.4772727,
                "pitch": 38,
                "velocity": 51,
                "duration": 0.1363636,
                "tempo": 120.0
            },
            {
                "start_time": 50.5136364,
                "end_time": 50.65,
                "pitch": 38,
                "velocity": 51,
                "duration": 0.1363636,
                "tempo": 120.0
            },
            {
                "start_time": 50.6840909,
                "end_time": 50.8136364,
                "pitch": 40,
                "velocity": 51,
                "duration": 0.1295455,
                "tempo": 120.0
            },
            {
                "start_time": 50.8477273,
                "end_time": 50.9931818,
                "pitch": 41,
                "velocity": 51,
                "duration": 0.1454545,
                "tempo": 120.0
            },
            {
                "start_time": 51.0113636,
                "end_time": 51.1568182,
                "pitch": 38,
                "velocity": 51,
                "duration": 0.1454545,
                "tempo": 120.0
            },
            {
                "start_time": 51.1886364,
                "end_time": 51.3181818,
                "pitch": 38,
                "velocity": 51,
                "duration": 0.1295455,
                "tempo": 120.0
            },
            {
                "start_time": 51.3522727,
                "end_time": 51.4886364,
                "pitch": 40,
                "velocity": 51,
                "duration": 0.1363636,
                "tempo": 120.0
            },
            {
                "start_time": 51.525,
                "end_time": 51.6613636,
                "pitch": 41,
                "velocity": 51,
                "duration": 0.1363636,
                "tempo": 120.0
            },
            {
                "start_time": 51.6977273,
                "end_time": 51.8477273,
                "pitch": 38,
                "velocity": 51,
                "duration": 0.15,
                "tempo": 120.0
            },
            {
                "start_time": 51.8636364,
                "end_time": 52.0136364,
                "pitch": 38,
                "velocity": 51,
                "duration": 0.15,
                "tempo": 120.0
            },
            {
                "start_time": 52.0318182,
                "end_time": 52.1772727,
                "pitch": 40,
                "velocity": 51,
                "duration": 0.1454545,
                "tempo": 120.0
            },
            {
                "start_time": 52.2113636,
                "end_time": 52.3409091,
                "pitch": 41,
                "velocity": 51,
                "duration": 0.1295455,
                "tempo": 120.0
            },
            {
                "start_time": 52.375,
                "end_time": 52.5113636,
                "pitch": 38,
                "velocity": 51,
                "duration": 0.1363636,
                "tempo": 120.0
            },
            {
                "start_time": 52.5454545,
                "end_time": 52.6818182,
                "pitch": 38,
                "velocity": 51,
                "duration": 0.1363636,
                "tempo": 120.0
            },
            {
                "start_time": 52.7181818,
                "end_time": 52.8681818,
                "pitch": 40,
                "velocity": 51,
                "duration": 0.15,
                "tempo": 120.0
            },
            {
                "start_time": 52.8863636,
                "end_time": 53.0363636,
                "pitch": 41,
                "velocity": 51,
                "duration": 0.15,
                "tempo": 120.0
            },
            {
                "start_time": 53.0522727,
                "end_time": 53.2,
                "pitch": 38,
                "velocity": 51,
                "duration": 0.1477273,
                "tempo": 120.0
            },
            {
                "start_time": 53.2318182,
                "end_time": 53.3613636,
                "pitch": 38,
                "velocity": 51,
                "duration": 0.1295455,
                "tempo": 120.0
            },
            {
                "start_time": 53.3954545,
                "end_time": 53.5318182,
                "pitch": 40,
                "velocity": 51,
                "duration": 0.1363636,
                "tempo": 120.0
            },
            {
                "start_time": 53.5659091,
                "end_time": 53.7045455,
                "pitch": 41,
                "velocity": 51,
                "duration": 0.1386364,
                "tempo": 120.0
            },
            {
                "start_time": 53.7386364,
                "end_time": 53.8840909,
                "pitch": 38,
                "velocity": 51,
                "duration": 0.1454545,
                "tempo": 120.0
            },
            {
                "start_time": 53.9022727,
                "end_time": 54.0477273,
                "pitch": 38,
                "velocity": 51,
                "duration": 0.1454545,
                "tempo": 120.0
            },
            {
                "start_time": 54.0659091,
                "end_time": 54.2136364,
                "pitch": 40,
                "velocity": 51,
                "duration": 0.1477273,
                "tempo": 120.0
            },
            {
                "start_time": 54.2477273,
                "end_time": 54.3818182,
                "pitch": 41,
                "velocity": 51,
                "duration": 0.1340909,
                "tempo": 120.0
            },
            {
                "start_time": 54.4181818,
                "end_time": 54.5522727,
                "pitch": 36,
                "velocity": 51,
                "duration": 0.1340909,
                "tempo": 120.0
            },
            {
                "start_time": 54.5886364,
                "end_time": 54.725,
                "pitch": 36,
                "velocity": 51,
                "duration": 0.1363636,
                "tempo": 120.0
            },
            {
                "start_time": 54.7613636,
                "end_time": 54.9068182,
                "pitch": 36,
                "velocity": 51,
                "duration": 0.1454545,
                "tempo": 120.0
            },
            {
                "start_time": 54.9227273,
                "end_time": 54.9886364,
                "pitch": 36,
                "velocity": 51,
                "duration": 0.0659091,
                "tempo": 120.0
            },
            {
                "start_time": 55.0045455,
                "end_time": 55.0681818,
                "pitch": 36,
                "velocity": 51,
                "duration": 0.0636364,
                "tempo": 120.0
            },
            {
                "start_time": 55.0863636,
                "end_time": 55.2318182,
                "pitch": 36,
                "velocity": 51,
                "duration": 0.1454545,
                "tempo": 120.0
            },
            {
                "start_time": 55.2659091,
                "end_time": 55.3954545,
                "pitch": 36,
                "velocity": 51,
                "duration": 0.1295455,
                "tempo": 120.0
            },
            {
                "start_time": 55.4272727,
                "end_time": 55.5659091,
                "pitch": 36,
                "velocity": 51,
                "duration": 0.1386364,
                "tempo": 120.0
            },
            {
                "start_time": 55.6,
                "end_time": 55.65,
                "pitch": 36,
                "velocity": 51,
                "duration": 0.05,
                "tempo": 120.0
            },
            {
                "start_time": 55.6863636,
                "end_time": 55.7363636,
                "pitch": 36,
                "velocity": 51,
                "duration": 0.05,
                "tempo": 120.0
            },
            {
                "start_time": 55.7727273,
                "end_time": 55.9227273,
                "pitch": 36,
                "velocity": 51,
                "duration": 0.15,
                "tempo": 120.0
            },
            {
                "start_time": 55.9409091,
                "end_time": 56.0909091,
                "pitch": 36,
                "velocity": 51,
                "duration": 0.15,
                "tempo": 120.0
            },
            {
                "start_time": 56.125,
                "end_time": 56.2613636,
                "pitch": 36,
                "velocity": 51,
                "duration": 0.1363636,
                "tempo": 120.0
            },
            {
                "start_time": 56.2954545,
                "end_time": 56.3477273,
                "pitch": 36,
                "velocity": 51,
                "duration": 0.0522727,
                "tempo": 120.0
            },
            {
                "start_time": 56.3818182,
                "end_time": 56.4340909,
                "pitch": 36,
                "velocity": 51,
                "duration": 0.0522727,
                "tempo": 120.0
            },
            {
                "start_time": 56.4681818,
                "end_time": 56.5977273,
                "pitch": 36,
                "velocity": 51,
                "duration": 0.1295455,
                "tempo": 120.0
            },
            {
                "start_time": 56.6318182,
                "end_time": 56.7772727,
                "pitch": 36,
                "velocity": 51,
                "duration": 0.1454545,
                "tempo": 120.0
            },
            {
                "start_time": 56.7931818,
                "end_time": 56.9431818,
                "pitch": 36,
                "velocity": 51,
                "duration": 0.15,
                "tempo": 120.0
            },
            {
                "start_time": 56.9613636,
                "end_time": 57.0272727,
                "pitch": 36,
                "velocity": 51,
                "duration": 0.0659091,
                "tempo": 120.0
            },
            {
                "start_time": 57.0454545,
                "end_time": 57.1113636,
                "pitch": 36,
                "velocity": 51,
                "duration": 0.0659091,
                "tempo": 120.0
            },
            {
                "start_time": 57.1454545,
                "end_time": 57.2818182,
                "pitch": 29,
                "velocity": 51,
                "duration": 0.1363636,
                "tempo": 120.0
            },
            {
                "start_time": 57.3159091,
                "end_time": 57.4545455,
                "pitch": 29,
                "velocity": 51,
                "duration": 0.1386364,
                "tempo": 120.0
            },
            {
                "start_time": 57.4886364,
                "end_time": 57.6204545,
                "pitch": 29,
                "velocity": 51,
                "duration": 0.1318182,
                "tempo": 120.0
            },
            {
                "start_time": 57.6522727,
                "end_time": 57.7,
                "pitch": 29,
                "velocity": 51,
                "duration": 0.0477273,
                "tempo": 120.0
            },
            {
                "start_time": 57.7340909,
                "end_time": 57.7977273,
                "pitch": 29,
                "velocity": 51,
                "duration": 0.0636364,
                "tempo": 120.0
            },
            {
                "start_time": 57.8159091,
                "end_time": 57.9613636,
                "pitch": 29,
                "velocity": 51,
                "duration": 0.1454545,
                "tempo": 120.0
            },
            {
                "start_time": 57.9772727,
                "end_time": 58.1227273,
                "pitch": 29,
                "velocity": 51,
                "duration": 0.1454545,
                "tempo": 120.0
            },
            {
                "start_time": 58.1568182,
                "end_time": 58.2931818,
                "pitch": 29,
                "velocity": 51,
                "duration": 0.1363636,
                "tempo": 120.0
            },
            {
                "start_time": 58.3295455,
                "end_time": 58.3795455,
                "pitch": 29,
                "velocity": 51,
                "duration": 0.05,
                "tempo": 120.0
            },
            {
                "start_time": 58.4136364,
                "end_time": 58.4659091,
                "pitch": 29,
                "velocity": 51,
                "duration": 0.0522727,
                "tempo": 120.0
            },
            {
                "start_time": 58.5022727,
                "end_time": 58.6340909,
                "pitch": 29,
                "velocity": 51,
                "duration": 0.1318182,
                "tempo": 120.0
            },
            {
                "start_time": 58.6681818,
                "end_time": 58.8181818,
                "pitch": 29,
                "velocity": 51,
                "duration": 0.15,
                "tempo": 120.0
            },
            {
                "start_time": 58.8363636,
                "end_time": 58.9818182,
                "pitch": 29,
                "velocity": 51,
                "duration": 0.1454545,
                "tempo": 120.0
            },
            {
                "start_time": 59.0,
                "end_time": 59.0636364,
                "pitch": 29,
                "velocity": 51,
                "duration": 0.0636364,
                "tempo": 120.0
            },
            {
                "start_time": 59.0954545,
                "end_time": 59.1454545,
                "pitch": 29,
                "velocity": 51,
                "duration": 0.05,
                "tempo": 120.0
            },
            {
                "start_time": 59.1795455,
                "end_time": 59.3159091,
                "pitch": 29,
                "velocity": 51,
                "duration": 0.1363636,
                "tempo": 120.0
            },
            {
                "start_time": 59.35,
                "end_time": 59.4886364,
                "pitch": 29,
                "velocity": 51,
                "duration": 0.1386364,
                "tempo": 120.0
            },
            {
                "start_time": 59.5227273,
                "end_time": 59.6568182,
                "pitch": 29,
                "velocity": 51,
                "duration": 0.1340909,
                "tempo": 120.0
            },
            {
                "start_time": 59.6909091,
                "end_time": 59.7568182,
                "pitch": 29,
                "velocity": 51,
                "duration": 0.0659091,
                "tempo": 120.0
            },
            {
                "start_time": 59.7727273,
                "end_time": 59.8409091,
                "pitch": 29,
                "velocity": 51,
                "duration": 0.0681818,
                "tempo": 120.0
            },
            {
                "start_time": 59.8590909,
                "end_time": 60.0045455,
                "pitch": 38,
                "velocity": 51,
                "duration": 0.1454545,
                "tempo": 120.0
            },
            {
                "start_time": 60.0204545,
                "end_time": 60.1659091,
                "pitch": 38,
                "velocity": 51,
                "duration": 0.1454545,
                "tempo": 120.0
            },
            {
                "start_time": 60.2,
                "end_time": 60.3363636,
                "pitch": 38,
                "velocity": 51,
                "duration": 0.1363636,
                "tempo": 120.0
            },
            {
                "start_time": 60.3704545,
                "end_time": 60.4227273,
                "pitch": 38,
                "velocity": 51,
                "duration": 0.0522727,
                "tempo": 120.0
            },
            {
                "start_time": 60.4568182,
                "end_time": 60.5090909,
                "pitch": 38,
                "velocity": 51,
                "duration": 0.0522727,
                "tempo": 120.0
            },
            {
                "start_time": 60.5431818,
                "end_time": 60.6727273,
                "pitch": 38,
                "velocity": 51,
                "duration": 0.1295455,
                "tempo": 120.0
            },
            {
                "start_time": 60.7068182,
                "end_time": 60.8522727,
                "pitch": 38,
                "velocity": 51,
                "duration": 0.1454545,
                "tempo": 120.0
            },
            {
                "start_time": 60.8681818,
                "end_time": 61.0181818,
                "pitch": 38,
                "velocity": 51,
                "duration": 0.15,
                "tempo": 120.0
            },
            {
                "start_time": 61.0522727,
                "end_time": 61.1022727,
                "pitch": 38,
                "velocity": 51,
                "duration": 0.05,
                "tempo": 120.0
            },
            {
                "start_time": 61.1363636,
                "end_time": 61.1863636,
                "pitch": 38,
                "velocity": 51,
                "duration": 0.05,
                "tempo": 120.0
            },
            {
                "start_time": 61.2204545,
                "end_time": 61.3568182,
                "pitch": 38,
                "velocity": 51,
                "duration": 0.1363636,
                "tempo": 120.0
            },
            {
                "start_time": 61.3931818,
                "end_time": 61.5295455,
                "pitch": 38,
                "velocity": 51,
                "duration": 0.1363636,
                "tempo": 120.0
            },
            {
                "start_time": 61.5659091,
                "end_time": 61.7113636,
                "pitch": 38,
                "velocity": 51,
                "duration": 0.1454545,
                "tempo": 120.0
            },
            {
                "start_time": 61.7272727,
                "end_time": 61.7931818,
                "pitch": 38,
                "velocity": 51,
                "duration": 0.0659091,
                "tempo": 120.0
            },
            {
                "start_time": 61.8090909,
                "end_time": 61.875,
                "pitch": 38,
                "velocity": 51,
                "duration": 0.0659091,
                "tempo": 120.0
            },
            {
                "start_time": 61.8909091,
                "end_time": 62.0409091,
                "pitch": 38,
                "velocity": 51,
                "duration": 0.15,
                "tempo": 120.0
            },
            {
                "start_time": 62.075,
                "end_time": 62.2090909,
                "pitch": 38,
                "velocity": 51,
                "duration": 0.1340909,
                "tempo": 120.0
            },
            {
                "start_time": 62.2431818,
                "end_time": 62.3795455,
                "pitch": 38,
                "velocity": 51,
                "duration": 0.1363636,
                "tempo": 120.0
            },
            {
                "start_time": 62.4136364,
                "end_time": 62.4636364,
                "pitch": 38,
                "velocity": 51,
                "duration": 0.05,
                "tempo": 120.0
            },
            {
                "start_time": 62.5,
                "end_time": 62.5522727,
                "pitch": 38,
                "velocity": 51,
                "duration": 0.0522727,
                "tempo": 120.0
            },
            {
                "start_time": 62.5863636,
                "end_time": 62.7318182,
                "pitch": 31,
                "velocity": 51,
                "duration": 0.1454545,
                "tempo": 120.0
            },
            {
                "start_time": 62.75,
                "end_time": 62.8954545,
                "pitch": 31,
                "velocity": 51,
                "duration": 0.1454545,
                "tempo": 120.0
            },
            {
                "start_time": 62.9113636,
                "end_time": 63.0568182,
                "pitch": 31,
                "velocity": 51,
                "duration": 0.1454545,
                "tempo": 120.0
            },
            {
                "start_time": 63.0909091,
                "end_time": 63.1386364,
                "pitch": 31,
                "velocity": 51,
                "duration": 0.0477273,
                "tempo": 120.0
            },
            {
                "start_time": 63.1727273,
                "end_time": 63.2204545,
                "pitch": 31,
                "velocity": 51,
                "duration": 0.0477273,
                "tempo": 120.0
            },
            {
                "start_time": 63.2545455,
                "end_time": 63.3909091,
                "pitch": 31,
                "velocity": 51,
                "duration": 0.1363636,
                "tempo": 120.0
            },
            {
                "start_time": 63.425,
                "end_time": 63.5636364,
                "pitch": 31,
                "velocity": 51,
                "duration": 0.1386364,
                "tempo": 120.0
            },
            {
                "start_time": 63.5977273,
                "end_time": 63.7477273,
                "pitch": 31,
                "velocity": 51,
                "duration": 0.15,
                "tempo": 120.0
            },
            {
                "start_time": 63.7659091,
                "end_time": 63.8318182,
                "pitch": 31,
                "velocity": 51,
                "duration": 0.0659091,
                "tempo": 120.0
            },
            {
                "start_time": 63.85,
                "end_time": 63.9159091,
                "pitch": 31,
                "velocity": 51,
                "duration": 0.0659091,
                "tempo": 120.0
            },
            {
                "start_time": 63.9340909,
                "end_time": 64.0795455,
                "pitch": 31,
                "velocity": 51,
                "duration": 0.1454545,
                "tempo": 120.0
            },
            {
                "start_time": 64.1113636,
                "end_time": 64.2409091,
                "pitch": 31,
                "velocity": 51,
                "duration": 0.1295455,
                "tempo": 120.0
            },
            {
                "start_time": 64.275,
                "end_time": 64.4113636,
                "pitch": 31,
                "velocity": 51,
                "duration": 0.1363636,
                "tempo": 120.0
            },
            {
                "start_time": 64.4477273,
                "end_time": 64.4977273,
                "pitch": 31,
                "velocity": 51,
                "duration": 0.05,
                "tempo": 120.0
            },
            {
                "start_time": 64.5318182,
                "end_time": 64.5840909,
                "pitch": 31,
                "velocity": 51,
                "duration": 0.0522727,
                "tempo": 120.0
            },
            {
                "start_time": 64.6181818,
                "end_time": 64.7659091,
                "pitch": 31,
                "velocity": 51,
                "duration": 0.1477273,
                "tempo": 120.0
            },
            {
                "start_time": 64.7818182,
                "end_time": 64.9272727,
                "pitch": 31,
                "velocity": 51,
                "duration": 0.1454545,
                "tempo": 120.0
            },
            {
                "start_time": 64.9454545,
                "end_time": 65.0954545,
                "pitch": 31,
                "velocity": 51,
                "duration": 0.15,
                "tempo": 120.0
            },
            {
                "start_time": 65.1295455,
                "end_time": 65.1772727,
                "pitch": 31,
                "velocity": 51,
                "duration": 0.0477273,
                "tempo": 120.0
            },
            {
                "start_time": 65.2113636,
                "end_time": 65.2613636,
                "pitch": 31,
                "velocity": 51,
                "duration": 0.05,
                "tempo": 120.0
            },
            {
                "start_time": 65.2977273,
                "end_time": 65.4340909,
                "pitch": 36,
                "velocity": 51,
                "duration": 0.1363636,
                "tempo": 120.0
            },
            {
                "start_time": 65.4681818,
                "end_time": 65.6045455,
                "pitch": 36,
                "velocity": 51,
                "duration": 0.1363636,
                "tempo": 120.0
            },
            {
                "start_time": 65.6409091,
                "end_time": 65.7909091,
                "pitch": 36,
                "velocity": 51,
                "duration": 0.15,
                "tempo": 120.0
            },
            {
                "start_time": 65.8090909,
                "end_time": 65.875,
                "pitch": 36,
                "velocity": 51,
                "duration": 0.0659091,
                "tempo": 120.0
            },
            {
                "start_time": 65.8909091,
                "end_time": 65.9590909,
                "pitch": 36,
                "velocity": 51,
                "duration": 0.0681818,
                "tempo": 120.0
            },
            {
                "start_time": 65.9931818,
                "end_time": 66.125,
                "pitch": 36,
                "velocity": 51,
                "duration": 0.1318182,
                "tempo": 120.0
            },
            {
                "start_time": 66.1590909,
                "end_time": 66.2931818,
                "pitch": 36,
                "velocity": 51,
                "duration": 0.1340909,
                "tempo": 120.0
            },
            {
                "start_time": 66.3272727,
                "end_time": 66.4613636,
                "pitch": 36,
                "velocity": 51,
                "duration": 0.1340909,
                "tempo": 120.0
            },
            {
                "start_time": 66.4954545,
                "end_time": 66.5431818,
                "pitch": 36,
                "velocity": 51,
                "duration": 0.0477273,
                "tempo": 120.0
            },
            {
                "start_time": 66.5772727,
                "end_time": 66.6454545,
                "pitch": 36,
                "velocity": 51,
                "duration": 0.0681818,
                "tempo": 120.0
            },
            {
                "start_time": 66.6613636,
                "end_time": 66.8090909,
                "pitch": 36,
                "velocity": 51,
                "duration": 0.1477273,
                "tempo": 120.0
            },
            {
                "start_time": 66.825,
                "end_time": 66.9704545,
                "pitch": 36,
                "velocity": 51,
                "duration": 0.1454545,
                "tempo": 120.0
            },
            {
                "start_time": 67.0045455,
                "end_time": 67.1409091,
                "pitch": 36,
                "velocity": 51,
                "duration": 0.1363636,
                "tempo": 120.0
            },
            {
                "start_time": 67.1772727,
                "end_time": 67.2272727,
                "pitch": 36,
                "velocity": 51,
                "duration": 0.05,
                "tempo": 120.0
            },
            {
                "start_time": 67.2613636,
                "end_time": 67.3136364,
                "pitch": 36,
                "velocity": 51,
                "duration": 0.0522727,
                "tempo": 120.0
            },
            {
                "start_time": 67.3477273,
                "end_time": 67.4818182,
                "pitch": 36,
                "velocity": 51,
                "duration": 0.1340909,
                "tempo": 120.0
            },
            {
                "start_time": 67.5159091,
                "end_time": 67.6659091,
                "pitch": 36,
                "velocity": 51,
                "duration": 0.15,
                "tempo": 120.0
            },
            {
                "start_time": 67.6840909,
                "end_time": 67.8295455,
                "pitch": 36,
                "velocity": 51,
                "duration": 0.1454545,
                "tempo": 120.0
            },
            {
                "start_time": 67.8454545,
                "end_time": 67.9113636,
                "pitch": 36,
                "velocity": 51,
                "duration": 0.0659091,
                "tempo": 120.0
            },
            {
                "start_time": 67.9272727,
                "end_time": 67.9909091,
                "pitch": 36,
                "velocity": 51,
                "duration": 0.0636364,
                "tempo": 120.0
            },
            {
                "start_time": 68.025,
                "end_time": 68.1613636,
                "pitch": 29,
                "velocity": 51,
                "duration": 0.1363636,
                "tempo": 120.0
            },
            {
                "start_time": 68.1977273,
                "end_time": 68.3340909,
                "pitch": 29,
                "velocity": 51,
                "duration": 0.1363636,
                "tempo": 120.0
            },
            {
                "start_time": 68.3681818,
                "end_time": 68.5,
                "pitch": 29,
                "velocity": 51,
                "duration": 0.1318182,
                "tempo": 120.0
            },
            {
                "start_time": 68.5318182,
                "end_time": 68.5795455,
                "pitch": 29,
                "velocity": 51,
                "duration": 0.0477273,
                "tempo": 120.0
            },
            {
                "start_time": 68.6136364,
                "end_time": 68.6772727,
                "pitch": 29,
                "velocity": 51,
                "duration": 0.0636364,
                "tempo": 120.0
            },
            {
                "start_time": 68.6954545,
                "end_time": 68.8454545,
                "pitch": 29,
                "velocity": 51,
                "duration": 0.15,
                "tempo": 120.0
            },
            {
                "start_time": 68.8613636,
                "end_time": 69.0113636,
                "pitch": 29,
                "velocity": 51,
                "duration": 0.15,
                "tempo": 120.0
            },
            {
                "start_time": 69.0454545,
                "end_time": 69.1840909,
                "pitch": 29,
                "velocity": 51,
                "duration": 0.1386364,
                "tempo": 120.0
            },
            {
                "start_time": 69.2181818,
                "end_time": 69.2681818,
                "pitch": 29,
                "velocity": 51,
                "duration": 0.05,
                "tempo": 120.0
            },
            {
                "start_time": 69.3045455,
                "end_time": 69.3545455,
                "pitch": 29,
                "velocity": 51,
                "duration": 0.05,
                "tempo": 120.0
            },
            {
                "start_time": 69.3909091,
                "end_time": 69.5204545,
                "pitch": 29,
                "velocity": 51,
                "duration": 0.1295455,
                "tempo": 120.0
            },
            {
                "start_time": 69.5522727,
                "end_time": 69.7,
                "pitch": 29,
                "velocity": 51,
                "duration": 0.1477273,
                "tempo": 120.0
            },
            {
                "start_time": 69.7159091,
                "end_time": 69.8659091,
                "pitch": 29,
                "velocity": 51,
                "duration": 0.15,
                "tempo": 120.0
            },
            {
                "start_time": 69.8840909,
                "end_time": 69.95,
                "pitch": 29,
                "velocity": 51,
                "duration": 0.0659091,
                "tempo": 120.0
            },
            {
                "start_time": 69.9840909,
                "end_time": 70.0340909,
                "pitch": 29,
                "velocity": 51,
                "duration": 0.05,
                "tempo": 120.0
            },
            {
                "start_time": 70.0681818,
                "end_time": 70.2,
                "pitch": 29,
                "velocity": 51,
                "duration": 0.1318182,
                "tempo": 120.0
            },
            {
                "start_time": 70.2340909,
                "end_time": 70.3681818,
                "pitch": 29,
                "velocity": 51,
                "duration": 0.1340909,
                "tempo": 120.0
            },
            {
                "start_time": 70.4022727,
                "end_time": 70.5363636,
                "pitch": 29,
                "velocity": 51,
                "duration": 0.1340909,
                "tempo": 120.0
            },
            {
                "start_time": 70.5681818,
                "end_time": 70.6363636,
                "pitch": 29,
                "velocity": 51,
                "duration": 0.0681818,
                "tempo": 120.0
            },
            {
                "start_time": 70.6522727,
                "end_time": 70.7204545,
                "pitch": 29,
                "velocity": 51,
                "duration": 0.0681818,
                "tempo": 120.0
            },
            {
                "start_time": 70.7386364,
                "end_time": 70.8818182,
                "pitch": 33,
                "velocity": 51,
                "duration": 0.1431818,
                "tempo": 120.0
            },
            {
                "start_time": 70.9159091,
                "end_time": 71.0454545,
                "pitch": 33,
                "velocity": 51,
                "duration": 0.1295455,
                "tempo": 120.0
            },
            {
                "start_time": 71.0795455,
                "end_time": 71.2159091,
                "pitch": 33,
                "velocity": 51,
                "duration": 0.1363636,
                "tempo": 120.0
            },
            {
                "start_time": 71.25,
                "end_time": 71.3022727,
                "pitch": 33,
                "velocity": 51,
                "duration": 0.0522727,
                "tempo": 120.0
            },
            {
                "start_time": 71.3363636,
                "end_time": 71.3886364,
                "pitch": 33,
                "velocity": 51,
                "duration": 0.0522727,
                "tempo": 120.0
            },
            {
                "start_time": 71.4227273,
                "end_time": 71.5727273,
                "pitch": 33,
                "velocity": 51,
                "duration": 0.15,
                "tempo": 120.0
            },
            {
                "start_time": 71.5909091,
                "end_time": 71.7409091,
                "pitch": 33,
                "velocity": 51,
                "duration": 0.15,
                "tempo": 120.0
            },
            {
                "start_time": 71.7568182,
                "end_time": 71.9045455,
                "pitch": 33,
                "velocity": 51,
                "duration": 0.1477273,
                "tempo": 120.0
            },
            {
                "start_time": 71.9363636,
                "end_time": 71.9863636,
                "pitch": 33,
                "velocity": 51,
                "duration": 0.05,
                "tempo": 120.0
            },
            {
                "start_time": 72.0181818,
                "end_time": 72.0659091,
                "pitch": 33,
                "velocity": 51,
                "duration": 0.0477273,
                "tempo": 120.0
            },
            {
                "start_time": 72.1,
                "end_time": 72.2363636,
                "pitch": 33,
                "velocity": 51,
                "duration": 0.1363636,
                "tempo": 120.0
            },
            {
                "start_time": 72.2727273,
                "end_time": 72.4090909,
                "pitch": 33,
                "velocity": 51,
                "duration": 0.1363636,
                "tempo": 120.0
            },
            {
                "start_time": 72.4454545,
                "end_time": 72.5954545,
                "pitch": 33,
                "velocity": 51,
                "duration": 0.15,
                "tempo": 120.0
            },
            {
                "start_time": 72.6113636,
                "end_time": 72.6772727,
                "pitch": 33,
                "velocity": 51,
                "duration": 0.0659091,
                "tempo": 120.0
            },
            {
                "start_time": 72.6954545,
                "end_time": 72.7613636,
                "pitch": 33,
                "velocity": 51,
                "duration": 0.0659091,
                "tempo": 120.0
            },
            {
                "start_time": 72.7795455,
                "end_time": 72.925,
                "pitch": 33,
                "velocity": 51,
                "duration": 0.1454545,
                "tempo": 120.0
            },
            {
                "start_time": 72.9590909,
                "end_time": 73.0886364,
                "pitch": 33,
                "velocity": 51,
                "duration": 0.1295455,
                "tempo": 120.0
            },
            {
                "start_time": 73.1204545,
                "end_time": 73.2590909,
                "pitch": 33,
                "velocity": 51,
                "duration": 0.1386364,
                "tempo": 120.0
            },
            {
                "start_time": 73.2931818,
                "end_time": 73.3431818,
                "pitch": 33,
                "velocity": 51,
                "duration": 0.05,
                "tempo": 120.0
            },
            {
                "start_time": 73.3795455,
                "end_time": 73.4295455,
                "pitch": 33,
                "velocity": 51,
                "duration": 0.05,
                "tempo": 120.0
            },
            {
                "start_time": 73.4659091,
                "end_time": 73.6113636,
                "pitch": 38,
                "velocity": 51,
                "duration": 0.1454545,
                "tempo": 120.0
            },
            {
                "start_time": 73.6272727,
                "end_time": 73.775,
                "pitch": 38,
                "velocity": 51,
                "duration": 0.1477273,
                "tempo": 120.0
            },
            {
                "start_time": 73.7909091,
                "end_time": 73.9409091,
                "pitch": 38,
                "velocity": 51,
                "duration": 0.15,
                "tempo": 120.0
            },
            {
                "start_time": 73.975,
                "end_time": 74.025,
                "pitch": 38,
                "velocity": 51,
                "duration": 0.05,
                "tempo": 120.0
            },
            {
                "start_time": 74.0590909,
                "end_time": 74.1090909,
                "pitch": 38,
                "velocity": 51,
                "duration": 0.05,
                "tempo": 120.0
            },
            {
                "start_time": 74.1431818,
                "end_time": 74.275,
                "pitch": 38,
                "velocity": 51,
                "duration": 0.1318182,
                "tempo": 120.0
            },
            {
                "start_time": 74.3090909,
                "end_time": 74.4431818,
                "pitch": 38,
                "velocity": 51,
                "duration": 0.1340909,
                "tempo": 120.0
            },
            {
                "start_time": 74.4772727,
                "end_time": 74.6272727,
                "pitch": 38,
                "velocity": 51,
                "duration": 0.15,
                "tempo": 120.0
            },
            {
                "start_time": 74.6431818,
                "end_time": 74.7113636,
                "pitch": 38,
                "velocity": 51,
                "duration": 0.0681818,
                "tempo": 120.0
            },
            {
                "start_time": 74.7272727,
                "end_time": 74.7954545,
                "pitch": 38,
                "velocity": 51,
                "duration": 0.0681818,
                "tempo": 120.0
            },
            {
                "start_time": 74.8113636,
                "end_time": 74.9568182,
                "pitch": 38,
                "velocity": 51,
                "duration": 0.1454545,
                "tempo": 120.0
            },
            {
                "start_time": 74.9909091,
                "end_time": 75.1204545,
                "pitch": 38,
                "velocity": 51,
                "duration": 0.1295455,
                "tempo": 120.0
            },
            {
                "start_time": 75.1545455,
                "end_time": 75.2931818,
                "pitch": 38,
                "velocity": 51,
                "duration": 0.1386364,
                "tempo": 120.0
            },
            {
                "start_time": 75.3295455,
                "end_time": 75.3818182,
                "pitch": 38,
                "velocity": 51,
                "duration": 0.0522727,
                "tempo": 120.0
            },
            {
                "start_time": 75.4181818,
                "end_time": 75.4727273,
                "pitch": 38,
                "velocity": 51,
                "duration": 0.0545455,
                "tempo": 120.0
            },
            {
                "start_time": 75.5090909,
                "end_time": 75.6545455,
                "pitch": 38,
                "velocity": 51,
                "duration": 0.1454545,
                "tempo": 120.0
            },
            {
                "start_time": 75.6704545,
                "end_time": 75.8159091,
                "pitch": 38,
                "velocity": 51,
                "duration": 0.1454545,
                "tempo": 120.0
            },
            {
                "start_time": 75.85,
                "end_time": 75.9863636,
                "pitch": 38,
                "velocity": 51,
                "duration": 0.1363636,
                "tempo": 120.0
            },
            {
                "start_time": 76.0227273,
                "end_time": 76.0727273,
                "pitch": 38,
                "velocity": 51,
                "duration": 0.05,
                "tempo": 120.0
            },
            {
                "start_time": 76.1068182,
                "end_time": 76.1590909,
                "pitch": 38,
                "velocity": 51,
                "duration": 0.0522727,
                "tempo": 120.0
            },
            {
                "start_time": 76.1954545,
                "end_time": 76.3227273,
                "pitch": 43,
                "velocity": 51,
                "duration": 0.1272727,
                "tempo": 120.0
            },
            {
                "start_time": 76.3568182,
                "end_time": 76.4863636,
                "pitch": 43,
                "velocity": 51,
                "duration": 0.1295455,
                "tempo": 120.0
            },
            {
                "start_time": 76.5204545,
                "end_time": 76.6704545,
                "pitch": 43,
                "velocity": 51,
                "duration": 0.15,
                "tempo": 120.0
            },
            {
                "start_time": 76.6863636,
                "end_time": 76.8363636,
                "pitch": 43,
                "velocity": 51,
                "duration": 0.15,
                "tempo": 120.0
            },
            {
                "start_time": 76.8704545,
                "end_time": 77.0090909,
                "pitch": 43,
                "velocity": 51,
                "duration": 0.1386364,
                "tempo": 120.0
            },
            {
                "start_time": 77.0431818,
                "end_time": 77.1795455,
                "pitch": 43,
                "velocity": 51,
                "duration": 0.1363636,
                "tempo": 120.0
            },
            {
                "start_time": 77.2159091,
                "end_time": 77.3454545,
                "pitch": 43,
                "velocity": 51,
                "duration": 0.1295455,
                "tempo": 120.0
            },
            {
                "start_time": 77.3795455,
                "end_time": 77.525,
                "pitch": 43,
                "velocity": 51,
                "duration": 0.1454545,
                "tempo": 120.0
            },
            {
                "start_time": 77.5409091,
                "end_time": 77.6909091,
                "pitch": 41,
                "velocity": 51,
                "duration": 0.15,
                "tempo": 120.0
            },
            {
                "start_time": 77.7090909,
                "end_time": 77.8590909,
                "pitch": 41,
                "velocity": 51,
                "duration": 0.15,
                "tempo": 120.0
            },
            {
                "start_time": 77.8931818,
                "end_time": 78.0295455,
                "pitch": 41,
                "velocity": 51,
                "duration": 0.1363636,
                "tempo": 120.0
            },
            {
                "start_time": 78.0636364,
                "end_time": 78.2022727,
                "pitch": 41,
                "velocity": 51,
                "duration": 0.1386364,
                "tempo": 120.0
            },
            {
                "start_time": 78.2363636,
                "end_time": 78.3659091,
                "pitch": 41,
                "velocity": 51,
                "duration": 0.1295455,
                "tempo": 120.0
            },
            {
                "start_time": 78.4,
                "end_time": 78.5454545,
                "pitch": 41,
                "velocity": 51,
                "duration": 0.1454545,
                "tempo": 120.0
            },
            {
                "start_time": 78.5636364,
                "end_time": 78.7113636,
                "pitch": 41,
                "velocity": 51,
                "duration": 0.1477273,
                "tempo": 120.0
            },
            {
                "start_time": 78.7295455,
                "end_time": 78.8795455,
                "pitch": 41,
                "velocity": 51,
                "duration": 0.15,
                "tempo": 120.0
            },
            {
                "start_time": 78.9136364,
                "end_time": 79.05,
                "pitch": 40,
                "velocity": 51,
                "duration": 0.1363636,
                "tempo": 120.0
            },
            {
                "start_time": 79.0863636,
                "end_time": 79.2227273,
                "pitch": 40,
                "velocity": 51,
                "duration": 0.1363636,
                "tempo": 120.0
            },
            {
                "start_time": 79.2568182,
                "end_time": 79.3886364,
                "pitch": 40,
                "velocity": 51,
                "duration": 0.1318182,
                "tempo": 120.0
            },
            {
                "start_time": 79.4204545,
                "end_time": 79.5659091,
                "pitch": 40,
                "velocity": 51,
                "duration": 0.1454545,
                "tempo": 120.0
            },
            {
                "start_time": 79.5840909,
                "end_time": 79.7295455,
                "pitch": 40,
                "velocity": 51,
                "duration": 0.1454545,
                "tempo": 120.0
            },
            {
                "start_time": 79.7454545,
                "end_time": 79.8931818,
                "pitch": 40,
                "velocity": 51,
                "duration": 0.1477273,
                "tempo": 120.0
            },
            {
                "start_time": 79.925,
                "end_time": 80.0636364,
                "pitch": 40,
                "velocity": 51,
                "duration": 0.1386364,
                "tempo": 120.0
            },
            {
                "start_time": 80.0977273,
                "end_time": 80.2340909,
                "pitch": 40,
                "velocity": 51,
                "duration": 0.1363636,
                "tempo": 120.0
            },
            {
                "start_time": 80.2704545,
                "end_time": 80.4022727,
                "pitch": 39,
                "velocity": 51,
                "duration": 0.1318182,
                "tempo": 120.0
            },
            {
                "start_time": 80.4363636,
                "end_time": 80.5863636,
                "pitch": 39,
                "velocity": 51,
                "duration": 0.15,
                "tempo": 120.0
            },
            {
                "start_time": 80.6045455,
                "end_time": 80.75,
                "pitch": 39,
                "velocity": 51,
                "duration": 0.1454545,
                "tempo": 120.0
            },
            {
                "start_time": 80.7681818,
                "end_time": 80.9136364,
                "pitch": 39,
                "velocity": 51,
                "duration": 0.1454545,
                "tempo": 120.0
            },
            {
                "start_time": 80.9477273,
                "end_time": 81.0840909,
                "pitch": 39,
                "velocity": 51,
                "duration": 0.1363636,
                "tempo": 120.0
            },
            {
                "start_time": 81.1181818,
                "end_time": 81.2568182,
                "pitch": 39,
                "velocity": 51,
                "duration": 0.1386364,
                "tempo": 120.0
            },
            {
                "start_time": 81.2909091,
                "end_time": 81.4204545,
                "pitch": 39,
                "velocity": 51,
                "duration": 0.1295455,
                "tempo": 120.0
            },
            {
                "start_time": 81.4545455,
                "end_time": 81.6,
                "pitch": 39,
                "velocity": 51,
                "duration": 0.1454545,
                "tempo": 120.0
            },
            {
                "start_time": 81.6181818,
                "end_time": 81.7659091,
                "pitch": 43,
                "velocity": 51,
                "duration": 0.1477273,
                "tempo": 120.0
            },
            {
                "start_time": 81.8,
                "end_time": 81.9340909,
                "pitch": 43,
                "velocity": 51,
                "duration": 0.1340909,
                "tempo": 120.0
            },
            {
                "start_time": 81.9681818,
                "end_time": 82.1045455,
                "pitch": 43,
                "velocity": 51,
                "duration": 0.1363636,
                "tempo": 120.0
            },
            {
                "start_time": 82.1386364,
                "end_time": 82.2772727,
                "pitch": 43,
                "velocity": 51,
                "duration": 0.1386364,
                "tempo": 120.0
            },
            {
                "start_time": 82.3136364,
                "end_time": 82.4590909,
                "pitch": 43,
                "velocity": 51,
                "duration": 0.1454545,
                "tempo": 120.0
            },
            {
                "start_time": 82.475,
                "end_time": 82.6204545,
                "pitch": 43,
                "velocity": 51,
                "duration": 0.1454545,
                "tempo": 120.0
            },
            {
                "start_time": 82.6386364,
                "end_time": 82.7886364,
                "pitch": 43,
                "velocity": 51,
                "duration": 0.15,
                "tempo": 120.0
            },
            {
                "start_time": 82.8227273,
                "end_time": 82.9545455,
                "pitch": 43,
                "velocity": 51,
                "duration": 0.1318182,
                "tempo": 120.0
            },
            {
                "start_time": 82.9886364,
                "end_time": 83.1227273,
                "pitch": 41,
                "velocity": 51,
                "duration": 0.1340909,
                "tempo": 120.0
            },
            {
                "start_time": 83.1568182,
                "end_time": 83.2886364,
                "pitch": 41,
                "velocity": 51,
                "duration": 0.1318182,
                "tempo": 120.0
            },
            {
                "start_time": 83.3227273,
                "end_time": 83.4727273,
                "pitch": 41,
                "velocity": 51,
                "duration": 0.15,
                "tempo": 120.0
            },
            {
                "start_time": 83.4909091,
                "end_time": 83.6409091,
                "pitch": 41,
                "velocity": 51,
                "duration": 0.15,
                "tempo": 120.0
            },
            {
                "start_time": 83.6590909,
                "end_time": 83.8090909,
                "pitch": 41,
                "velocity": 51,
                "duration": 0.15,
                "tempo": 120.0
            },
            {
                "start_time": 83.8431818,
                "end_time": 83.975,
                "pitch": 41,
                "velocity": 51,
                "duration": 0.1318182,
                "tempo": 120.0
            },
            {
                "start_time": 84.0090909,
                "end_time": 84.1431818,
                "pitch": 41,
                "velocity": 51,
                "duration": 0.1340909,
                "tempo": 120.0
            },
            {
                "start_time": 84.1772727,
                "end_time": 84.3113636,
                "pitch": 41,
                "velocity": 51,
                "duration": 0.1340909,
                "tempo": 120.0
            },
            {
                "start_time": 84.3454545,
                "end_time": 84.4954545,
                "pitch": 40,
                "velocity": 51,
                "duration": 0.15,
                "tempo": 120.0
            },
            {
                "start_time": 84.5113636,
                "end_time": 84.6613636,
                "pitch": 40,
                "velocity": 51,
                "duration": 0.15,
                "tempo": 120.0
            },
            {
                "start_time": 84.6795455,
                "end_time": 84.825,
                "pitch": 40,
                "velocity": 51,
                "duration": 0.1454545,
                "tempo": 120.0
            },
            {
                "start_time": 84.8590909,
                "end_time": 84.9886364,
                "pitch": 40,
                "velocity": 51,
                "duration": 0.1295455,
                "tempo": 120.0
            },
            {
                "start_time": 85.0227273,
                "end_time": 85.1590909,
                "pitch": 40,
                "velocity": 51,
                "duration": 0.1363636,
                "tempo": 120.0
            },
            {
                "start_time": 85.1931818,
                "end_time": 85.3318182,
                "pitch": 40,
                "velocity": 51,
                "duration": 0.1386364,
                "tempo": 120.0
            },
            {
                "start_time": 85.3659091,
                "end_time": 85.5159091,
                "pitch": 40,
                "velocity": 51,
                "duration": 0.15,
                "tempo": 120.0
            },
            {
                "start_time": 85.5340909,
                "end_time": 85.6840909,
                "pitch": 40,
                "velocity": 51,
                "duration": 0.15,
                "tempo": 120.0
            },
            {
                "start_time": 85.7022727,
                "end_time": 85.8477273,
                "pitch": 39,
                "velocity": 51,
                "duration": 0.1454545,
                "tempo": 120.0
            },
            {
                "start_time": 85.8795455,
                "end_time": 86.0090909,
                "pitch": 39,
                "velocity": 51,
                "duration": 0.1295455,
                "tempo": 120.0
            },
            {
                "start_time": 86.0431818,
                "end_time": 86.1795455,
                "pitch": 39,
                "velocity": 51,
                "duration": 0.1363636,
                "tempo": 120.0
            },
            {
                "start_time": 86.2136364,
                "end_time": 86.3522727,
                "pitch": 39,
                "velocity": 51,
                "duration": 0.1386364,
                "tempo": 120.0
            },
            {
                "start_time": 86.3863636,
                "end_time": 86.5363636,
                "pitch": 39,
                "velocity": 51,
                "duration": 0.15,
                "tempo": 120.0
            },
            {
                "start_time": 86.5545455,
                "end_time": 86.7045455,
                "pitch": 39,
                "velocity": 51,
                "duration": 0.15,
                "tempo": 120.0
            },
            {
                "start_time": 86.7386364,
                "end_time": 86.8727273,
                "pitch": 39,
                "velocity": 51,
                "duration": 0.1340909,
                "tempo": 120.0
            },
            {
                "start_time": 86.9068182,
                "end_time": 87.0386364,
                "pitch": 39,
                "velocity": 51,
                "duration": 0.1318182,
                "tempo": 120.0
            },
            {
                "start_time": 87.075,
                "end_time": 87.2068182,
                "pitch": 43,
                "velocity": 51,
                "duration": 0.1318182,
                "tempo": 120.0
            },
            {
                "start_time": 87.2409091,
                "end_time": 87.3909091,
                "pitch": 43,
                "velocity": 51,
                "duration": 0.15,
                "tempo": 120.0
            },
            {
                "start_time": 87.4068182,
                "end_time": 87.5545455,
                "pitch": 43,
                "velocity": 51,
                "duration": 0.1477273,
                "tempo": 120.0
            },
            {
                "start_time": 87.5704545,
                "end_time": 87.7159091,
                "pitch": 43,
                "velocity": 51,
                "duration": 0.1454545,
                "tempo": 120.0
            },
            {
                "start_time": 87.75,
                "end_time": 87.8863636,
                "pitch": 43,
                "velocity": 51,
                "duration": 0.1363636,
                "tempo": 120.0
            },
            {
                "start_time": 87.9204545,
                "end_time": 88.0590909,
                "pitch": 43,
                "velocity": 51,
                "duration": 0.1386364,
                "tempo": 120.0
            },
            {
                "start_time": 88.0931818,
                "end_time": 88.2227273,
                "pitch": 43,
                "velocity": 51,
                "duration": 0.1295455,
                "tempo": 120.0
            },
            {
                "start_time": 88.2568182,
                "end_time": 88.4022727,
                "pitch": 43,
                "velocity": 51,
                "duration": 0.1454545,
                "tempo": 120.0
            },
            {
                "start_time": 88.4204545,
                "end_time": 88.5704545,
                "pitch": 43,
                "velocity": 51,
                "duration": 0.15,
                "tempo": 120.0
            },
            {
                "start_time": 88.5863636,
                "end_time": 88.7363636,
                "pitch": 43,
                "velocity": 51,
                "duration": 0.15,
                "tempo": 120.0
            },
            {
                "start_time": 88.7704545,
                "end_time": 88.9090909,
                "pitch": 43,
                "velocity": 51,
                "duration": 0.1386364,
                "tempo": 120.0
            },
            {
                "start_time": 88.9431818,
                "end_time": 89.0795455,
                "pitch": 43,
                "velocity": 51,
                "duration": 0.1363636,
                "tempo": 120.0
            },
            {
                "start_time": 89.1159091,
                "end_time": 89.2454545,
                "pitch": 43,
                "velocity": 51,
                "duration": 0.1295455,
                "tempo": 120.0
            },
            {
                "start_time": 89.2772727,
                "end_time": 89.425,
                "pitch": 43,
                "velocity": 51,
                "duration": 0.1477273,
                "tempo": 120.0
            },
            {
                "start_time": 89.4409091,
                "end_time": 89.5909091,
                "pitch": 43,
                "velocity": 51,
                "duration": 0.15,
                "tempo": 120.0
            },
            {
                "start_time": 89.6068182,
                "end_time": 89.7590909,
                "pitch": 43,
                "velocity": 51,
                "duration": 0.1522727,
                "tempo": 120.0
            },
            {
                "start_time": 89.7954545,
                "end_time": 89.9295455,
                "pitch": 31,
                "velocity": 51,
                "duration": 0.1340909,
                "tempo": 120.0
            }
        ]
    }
}