{
    "mood": "happy",
    "instruments": {
        "Vibraphone": [
            {
                "start_time": 0.0159091,
                "end_time": 0.1477273,
                "pitch": 31,
                "velocity": 127,
                "duration": 0.1318182,
                "tempo": 120.0
            },
            {
                "start_time": 0.1477273,
                "end_time": 0.2659091,
                "pitch": 31,
                "velocity": 127,
                "duration": 0.1181818,
                "tempo": 120.0
            },
            {
                "start_time": 0.2659091,
                "end_time": 0.3840909,
                "pitch": 31,
                "velocity": 127,
                "duration": 0.1181818,
                "tempo": 120.0
            },
            {
                "start_time": 0.3840909,
                "end_time": 0.5,
                "pitch": 31,
                "velocity": 127,
                "duration": 0.1159091,
                "tempo": 120.0
            },
            {
                "start_time": 0.5,
                "end_time": 0.6159091,
                "pitch": 31,
                "velocity": 127,
                "duration": 0.1159091,
                "tempo": 120.0
            },
            {
                "start_time": 0.6159091,
                "end_time": 0.75,
                "pitch": 31,
                "velocity": 127,
                "duration": 0.1340909,
                "tempo": 120.0
            },
            {
                "start_time": 0.75,
                "end_time": 0.8659091,
                "pitch": 31,
                "velocity": 127,
                "duration": 0.1159091,
                "tempo": 120.0
            },
            {
                "start_time": 0.8659091,
                "end_time": 0.9818182,
                "pitch": 31,
                "velocity": 127,
                "duration": 0.1159091,
                "tempo": 120.0
            },
            {
                "start_time": 0.9818182,
                "end_time": 1.0977273,
                "pitch": 31,
                "velocity": 127,
                "duration": 0.1159091,
                "tempo": 120.0
            },
            {
                "start_time": 1.0977273,
                "end_time": 1.2159091,
                "pitch": 31,
                "velocity": 127,
                "duration": 0.1181818,
                "tempo": 120.0
            },
            {
                "start_time": 1.2159091,
                "end_time": 1.3318182,
                "pitch": 31,
                "velocity": 127,
                "duration": 0.1159091,
                "tempo": 120.0
            },
            {
                "start_time": 1.3318182,
                "end_time": 1.4636364,
                "pitch": 31,
                "velocity": 127,
                "duration": 0.1318182,
                "tempo": 120.0
            },
            {
                "start_time": 1.4636364,
                "end_time": 1.5795455,
                "pitch": 31,
                "velocity": 127,
                "duration": 0.1159091,
                "tempo": 120.0
            },
            {
                "start_time": 1.5795455,
                "end_time": 1.6977273,
                "pitch": 31,
                "velocity": 127,
                "duration": 0.1181818,
                "tempo": 120.0
            },
            {
                "start_time": 1.6977273,
                "end_time": 1.8136364,
                "pitch": 31,
                "velocity": 127,
                "duration": 0.1159091,
                "tempo": 120.0
            },
            {
                "start_time": 1.8136364,
                "end_time": 1.9295455,
                "pitch": 31,
                "velocity": 127,
                "duration": 0.1159091,
                "tempo": 120.0
            },
            {
                "start_time": 1.9295455,
                "end_time": 2.0613636,
                "pitch": 31,
                "velocity": 127,
                "duration": 0.1318182,
                "tempo": 120.0
            },
            {
                "start_time": 2.0613636,
                "end_time": 2.175,
                "pitch": 31,
                "velocity": 127,
                "duration": 0.1136364,
                "tempo": 120.0
            },
            {
                "start_time": 2.175,
                "end_time": 2.2886364,
                "pitch": 31,
                "velocity": 127,
                "duration": 0.1136364,
                "tempo": 120.0
            },
            {
                "start_time": 2.2886364,
                "end_time": 2.4045455,
                "pitch": 31,
                "velocity": 127,
                "duration": 0.1159091,
                "tempo": 120.0
            },
            {
                "start_time": 2.4045455,
                "end_time": 2.5204545,
                "pitch": 31,
                "velocity": 127,
                "duration": 0.1159091,
                "tempo": 120.0
            },
            {
                "start_time": 2.5204545,
                "end_time": 2.6386364,
                "pitch": 31,
                "velocity": 127,
                "duration": 0.1181818,
                "tempo": 120.0
            },
            {
                "start_time": 2.6386364,
                "end_time": 2.7727273,
                "pitch": 31,
                "velocity": 127,
                "duration": 0.1340909,
                "tempo": 120.0
            },
            {
                "start_time": 2.7727273,
                "end_time": 2.8909091,
                "pitch": 31,
                "velocity": 127,
                "duration": 0.1181818,
                "tempo": 120.0
            },
            {
                "start_time": 2.8909091,
                "end_time": 3.0068182,
                "pitch": 31,
                "velocity": 127,
                "duration": 0.1159091,
                "tempo": 120.0
            },
            {
                "start_time": 3.0068182,
                "end_time": 3.1227273,
                "pitch": 31,
                "velocity": 127,
                "duration": 0.1159091,
                "tempo": 120.0
            },
            {
                "start_time": 3.1227273,
                "end_time": 3.2386364,
                "pitch": 31,
                "velocity": 127,
                "duration": 0.1159091,
                "tempo": 120.0
            },
            {
                "start_time": 3.2386364,
                "end_time": 3.3545455,
                "pitch": 31,
                "velocity": 127,
                "duration": 0.1159091,
                "tempo": 120.0
            },
            {
                "start_time": 3.3545455,
                "end_time": 3.4863636,
                "pitch": 31,
                "velocity": 127,
                "duration": 0.1318182,
                "tempo": 120.0
            },
            {
                "start_time": 3.4863636,
                "end_time": 3.6,
                "pitch": 31,
                "velocity": 127,
                "duration": 0.1136364,
                "tempo": 120.0
            },
            {
                "start_time": 3.6,
                "end_time": 3.7159091,
                "pitch": 31,
                "velocity": 127,
                "duration": 0.1159091,
                "tempo": 120.0
            },
            {
                "start_time": 3.7159091,
                "end_time": 3.8295455,
                "pitch": 31,
                "velocity": 127,
                "duration": 0.1136364,
                "tempo": 120.0
            },
            {
                "start_time": 3.8295455,
                "end_time": 3.9454545,
                "pitch": 34,
                "velocity": 127,
                "duration": 0.1159091,
                "tempo": 120.0
            },
            {
                "start_time": 3.9454545,
                "end_time": 4.0795455,
                "pitch": 34,
                "velocity": 127,
                "duration": 0.1340909,
                "tempo": 120.0
            },
            {
                "start_time": 4.0795455,
                "end_time": 4.1954545,
                "pitch": 34,
                "velocity": 127,
                "duration": 0.1159091,
                "tempo": 120.0
            },
            {
                "start_time": 4.1954545,
                "end_time": 4.3113636,
                "pitch": 34,
                "velocity": 127,
                "duration": 0.1159091,
                "tempo": 120.0
            },
            {
                "start_time": 4.3113636,
                "end_time": 4.4295455,
                "pitch": 34,
                "velocity": 127,
                "duration": 0.1181818,
                "tempo": 120.0
            },
            {
                "start_time": 4.4295455,
                "end_time": 4.5454545,
                "pitch": 34,
                "velocity": 127,
                "duration": 0.1159091,
                "tempo": 120.0
            },
            {
                "start_time": 4.5454545,
                "end_time": 4.6636364,
                "pitch": 34,
                "velocity": 127,
                "duration": 0.1181818,
                "tempo": 120.0
            },
            {
                "start_time": 4.6636364,
                "end_time": 4.7977273,
                "pitch": 34,
                "velocity": 127,
                "duration": 0.1340909,
                "tempo": 120.0
            },
            {
                "start_time": 4.7977273,
                "end_time": 4.9159091,
                "pitch": 34,
                "velocity": 127,
                "duration": 0.1181818,
                "tempo": 120.0
            },
            {
                "start_time": 4.9159091,
                "end_time": 5.0363636,
                "pitch": 34,
                "velocity": 127,
                "duration": 0.1204545,
                "tempo": 120.0
            },
            {
                "start_time": 5.0363636,
                "end_time": 5.1545455,
                "pitch": 34,
                "velocity": 127,
                "duration": 0.1181818,
                "tempo": 120.0
            },
            {
                "start_time": 5.1545455,
                "end_time": 5.275,
                "pitch": 34,
                "velocity": 127,
                "duration": 0.1204545,
                "tempo": 120.0
            },
            {
                "start_time": 5.275,
                "end_time": 5.3863636,
                "pitch": 34,
                "velocity": 127,
                "duration": 0.1113636,
                "tempo": 120.0
            },
            {
                "start_time": 5.3863636,
                "end_time": 5.5136364,
                "pitch": 34,
                "velocity": 127,
                "duration": 0.1272727,
                "tempo": 120.0
            },
            {
                "start_time": 5.5136364,
                "end_time": 5.625,
                "pitch": 34,
                "velocity": 127,
                "duration": 0.1113636,
                "tempo": 120.0
            },
            {
                "start_time": 5.625,
                "end_time": 5.7363636,
                "pitch": 34,
                "velocity": 127,
                "duration": 0.1113636,
                "tempo": 120.0
            },
            {
                "start_time": 5.7363636,
                "end_time": 5.8568182,
                "pitch": 34,
                "velocity": 127,
                "duration": 0.1204545,
                "tempo": 120.0
            },
            {
                "start_time": 5.8568182,
                "end_time": 5.975,
                "pitch": 34,
                "velocity": 127,
                "duration": 0.1181818,
                "tempo": 120.0
            },
            {
                "start_time": 5.975,
                "end_time": 6.1113636,
                "pitch": 34,
                "velocity": 127,
                "duration": 0.1363636,
                "tempo": 120.0
            },
            {
                "start_time": 6.1113636,
                "end_time": 6.2295455,
                "pitch": 34,
                "velocity": 127,
                "duration": 0.1181818,
                "tempo": 120.0
            },
            {
                "start_time": 6.2295455,
                "end_time": 6.3477273,
                "pitch": 34,
                "velocity": 127,
                "duration": 0.1181818,
                "tempo": 120.0
            },
            {
                "start_time": 6.3477273,
                "end_time": 6.4659091,
                "pitch": 34,
                "velocity": 127,
                "duration": 0.1181818,
                "tempo": 120.0
            },
            {
                "start_time": 6.4659091,
                "end_time": 6.5818182,
                "pitch": 34,
                "velocity": 127,
                "duration": 0.1159091,
                "tempo": 120.0
            },
            {
                "start_time": 6.5818182,
                "end_time": 6.7,
                "pitch": 34,
                "velocity": 127,
                "duration": 0.1181818,
                "tempo": 120.0
            },
            {
                "start_time": 6.7,
                "end_time": 6.8272727,
                "pitch": 34,
                "velocity": 127,
                "duration": 0.1272727,
                "tempo": 120.0
            },
            {
                "start_time": 6.8272727,
                "end_time": 6.9386364,
                "pitch": 34,
                "velocity": 127,
                "duration": 0.1113636,
                "tempo": 120.0
            },
            {
                "start_time": 6.9386364,
                "end_time": 7.05,
                "pitch": 34,
                "velocity": 127,
                "duration": 0.1113636,
                "tempo": 120.0
            },
            {
                "start_time": 7.05,
                "end_time": 7.1636364,
                "pitch": 34,
                "velocity": 127,
                "duration": 0.1136364,
                "tempo": 120.0
            },
            {
                "start_time": 7.1636364,
                "end_time": 7.2795455,
                "pitch": 34,
                "velocity": 127,
                "duration": 0.1159091,
                "tempo": 120.0
            },
            {
                "start_time": 7.2795455,
                "end_time": 7.4113636,
                "pitch": 34,
                "velocity": 127,
                "duration": 0.1318182,
                "tempo": 120.0
            },
            {
                "start_time": 7.4113636,
                "end_time": 7.5295455,
                "pitch": 34,
                "velocity": 127,
                "duration": 0.1181818,
                "tempo": 120.0
            },
            {
                "start_time": 7.5295455,
                "end_time": 7.6454545,
                "pitch": 34,
                "velocity": 127,
                "duration": 0.1159091,
                "tempo": 120.0
            },
            {
                "start_time": 7.6454545,
                "end_time": 7.7636364,
                "pitch": 29,
                "velocity": 127,
                "duration": 0.1181818,
                "tempo": 120.0
            },
            {
                "start_time": 7.7636364,
                "end_time": 7.8840909,
                "pitch": 29,
                "velocity": 127,
                "duration": 0.1204545,
                "tempo": 120.0
            },
            {
                "start_time": 7.8840909,
                "end_time": 8.0022727,
                "pitch": 29,
                "velocity": 127,
                "duration": 0.1181818,
                "tempo": 120.0
            },
            {
                "start_time": 8.0022727,
                "end_time": 8.1386364,
                "pitch": 29,
                "velocity": 127,
                "duration": 0.1363636,
                "tempo": 120.0
            },
            {
                "start_time": 8.1386364,
                "end_time": 8.2568182,
                "pitch": 29,
                "velocity": 127,
                "duration": 0.1181818,
                "tempo": 120.0
            },
            {
                "start_time": 8.2568182,
                "end_time": 8.3727273,
                "pitch": 29,
                "velocity": 127,
                "duration": 0.1159091,
                "tempo": 120.0
            },
            {
                "start_time": 8.3727273,
                "end_time": 8.4909091,
                "pitch": 29,
                "velocity": 127,
                "duration": 0.1181818,
                "tempo": 120.0
            },
            {
                "start_time": 8.4909091,
                "end_time": 8.6068182,
                "pitch": 29,
                "velocity": 127,
                "duration": 0.1159091,
                "tempo": 120.0
            },
            {
                "start_time": 8.6068182,
                "end_time": 8.7204545,
                "pitch": 29,
                "velocity": 127,
                "duration": 0.1136364,
                "tempo": 120.0
            },
            {
                "start_time": 8.7204545,
                "end_time": 8.8477273,
                "pitch": 29,
                "velocity": 127,
                "duration": 0.1272727,
                "tempo": 120.0
            },
            {
                "start_time": 8.8477273,
                "end_time": 8.9590909,
                "pitch": 29,
                "velocity": 127,
                "duration": 0.1113636,
                "tempo": 120.0
            },
            {
                "start_time": 8.9590909,
                "end_time": 9.0704545,
                "pitch": 29,
                "velocity": 127,
                "duration": 0.1113636,
                "tempo": 120.0
            },
            {
                "start_time": 9.0704545,
                "end_time": 9.1886364,
                "pitch": 29,
                "velocity": 127,
                "duration": 0.1181818,
                "tempo": 120.0
            },
            {
                "start_time": 9.1886364,
                "end_time": 9.3045455,
                "pitch": 29,
                "velocity": 127,
                "duration": 0.1159091,
                "tempo": 120.0
            },
            {
                "start_time": 9.3045455,
                "end_time": 9.4386364,
                "pitch": 29,
                "velocity": 127,
                "duration": 0.1340909,
                "tempo": 120.0
            },
            {
                "start_time": 9.4386364,
                "end_time": 9.5568182,
                "pitch": 29,
                "velocity": 127,
                "duration": 0.1181818,
                "tempo": 120.0
            },
            {
                "start_time": 9.5568182,
                "end_time": 9.675,
                "pitch": 29,
                "velocity": 127,
                "duration": 0.1181818,
                "tempo": 120.0
            },
            {
                "start_time": 9.675,
                "end_time": 9.7954545,
                "pitch": 29,
                "velocity": 127,
                "duration": 0.1204545,
                "tempo": 120.0
            },
            {
                "start_time": 9.7954545,
                "end_time": 9.9136364,
                "pitch": 29,
                "velocity": 127,
                "duration": 0.1181818,
                "tempo": 120.0
            },
            {
                "start_time": 9.9136364,
                "end_time": 10.0340909,
                "pitch": 29,
                "velocity": 127,
                "duration": 0.1204545,
                "tempo": 120.0
            },
            {
                "start_time": 10.0340909,
                "end_time": 10.1613636,
                "pitch": 29,
                "velocity": 127,
                "duration": 0.1272727,
                "tempo": 120.0
            },
            {
                "start_time": 10.1613636,
                "end_time": 10.2727273,
                "pitch": 29,
                "velocity": 127,
                "duration": 0.1113636,
                "tempo": 120.0
            },
            {
                "start_time": 10.2727273,
                "end_time": 10.3840909,
                "pitch": 29,
                "velocity": 127,
                "duration": 0.1113636,
                "tempo": 120.0
            },
            {
                "start_time": 10.3840909,
                "end_time": 10.4977273,
                "pitch": 29,
                "velocity": 127,
                "duration": 0.1136364,
                "tempo": 120.0
            },
            {
                "start_time": 10.4977273,
                "end_time": 10.6136364,
                "pitch": 29,
                "velocity": 127,
                "duration": 0.1159091,
                "tempo": 120.0
            },
            {
                "start_time": 10.6136364,
                "end_time": 10.7318182,
                "pitch": 29,
                "velocity": 127,
                "duration": 0.1181818,
                "tempo": 120.0
            },
            {
                "start_time": 10.7318182,
                "end_time": 10.8659091,
                "pitch": 29,
                "velocity": 127,
                "duration": 0.1340909,
                "tempo": 120.0
            },
            {
                "start_time": 10.8659091,
                "end_time": 10.9818182,
                "pitch": 29,
                "velocity": 127,
                "duration": 0.1159091,
                "tempo": 120.0
            },
            {
                "start_time": 10.9818182,
                "end_time": 11.1022727,
                "pitch": 29,
                "velocity": 127,
                "duration": 0.1204545,
                "tempo": 120.0
            },
            {
                "start_time": 11.1022727,
                "end_time": 11.2204545,
                "pitch": 29,
                "velocity": 127,
                "duration": 0.1181818,
                "tempo": 120.0
            },
            {
                "start_time": 11.2204545,
                "end_time": 11.3409091,
                "pitch": 29,
                "velocity": 127,
                "duration": 0.1204545,
                "tempo": 120.0
            },
            {
                "start_time": 11.3409091,
                "end_time": 11.4772727,
                "pitch": 29,
                "velocity": 127,
                "duration": 0.1363636,
                "tempo": 120.0
            },
            {
                "start_time": 3.8295455,
                "end_time": 11.5931818,
                "pitch": 31,
                "velocity": 127,
                "duration": 7.7636364,
                "tempo": 120.0
            },
            {
                "start_time": 11.4772727,
                "end_time": 11.5931818,
                "pitch": 31,
                "velocity": 127,
                "duration": 0.1159091,
                "tempo": 120.0
            },
            {
                "start_time": 11.5931818,
                "end_time": 11.7113636,
                "pitch": 31,
                "velocity": 127,
                "duration": 0.1181818,
                "tempo": 120.0
            },
            {
                "start_time": 11.7113636,
                "end_time": 11.8272727,
                "pitch": 31,
                "velocity": 127,
                "duration": 0.1159091,
                "tempo": 120.0
            },
            {
                "start_time": 11.8272727,
                "end_time": 11.9454545,
                "pitch": 31,
                "velocity": 127,
                "duration": 0.1181818,
                "tempo": 120.0
            },
            {
                "start_time": 11.9454545,
                "end_time": 12.0568182,
                "pitch": 31,
                "velocity": 127,
                "duration": 0.1113636,
                "tempo": 120.0
            },
            {
                "start_time": 12.0568182,
                "end_time": 12.1840909,
                "pitch": 31,
                "velocity": 127,
                "duration": 0.1272727,
                "tempo": 120.0
            },
            {
                "start_time": 12.1840909,
                "end_time": 12.2977273,
                "pitch": 31,
                "velocity": 127,
                "duration": 0.1136364,
                "tempo": 120.0
            },
            {
                "start_time": 12.2977273,
                "end_time": 12.4090909,
                "pitch": 31,
                "velocity": 127,
                "duration": 0.1113636,
                "tempo": 120.0
            },
            {
                "start_time": 12.4090909,
                "end_time": 12.525,
                "pitch": 31,
                "velocity": 127,
                "duration": 0.1159091,
                "tempo": 120.0
            },
            {
                "start_time": 12.525,
                "end_time": 12.6431818,
                "pitch": 31,
                "velocity": 127,
                "duration": 0.1181818,
                "tempo": 120.0
            },
            {
                "start_time": 12.6431818,
                "end_time": 12.7613636,
                "pitch": 31,
                "velocity": 127,
                "duration": 0.1181818,
                "tempo": 120.0
            },
            {
                "start_time": 12.7613636,
                "end_time": 12.8954545,
                "pitch": 31,
                "velocity": 127,
                "duration": 0.1340909,
                "tempo": 120.0
            },
            {
                "start_time": 12.8954545,
                "end_time": 13.0113636,
                "pitch": 31,
                "velocity": 127,
                "duration": 0.1159091,
                "tempo": 120.0
            },
            {
                "start_time": 13.0113636,
                "end_time": 13.1295455,
                "pitch": 31,
                "velocity": 127,
                "duration": 0.1181818,
                "tempo": 120.0
            },
            {
                "start_time": 13.1295455,
                "end_time": 13.2454545,
                "pitch": 31,
                "velocity": 127,
                "duration": 0.1159091,
                "tempo": 120.0
            },
            {
                "start_time": 13.2454545,
                "end_time": 13.3636364,
                "pitch": 31,
                "velocity": 127,
                "duration": 0.1181818,
                "tempo": 120.0
            },
            {
                "start_time": 13.3636364,
                "end_time": 13.4954545,
                "pitch": 34,
                "velocity": 127,
                "duration": 0.1318182,
                "tempo": 120.0
            },
            {
                "start_time": 13.4954545,
                "end_time": 13.6090909,
                "pitch": 34,
                "velocity": 127,
                "duration": 0.1136364,
                "tempo": 120.0
            },
            {
                "start_time": 13.6090909,
                "end_time": 13.7227273,
                "pitch": 34,
                "velocity": 127,
                "duration": 0.1136364,
                "tempo": 120.0
            },
            {
                "start_time": 13.7227273,
                "end_time": 13.8386364,
                "pitch": 34,
                "velocity": 127,
                "duration": 0.1159091,
                "tempo": 120.0
            },
            {
                "start_time": 13.8386364,
                "end_time": 13.9545455,
                "pitch": 34,
                "velocity": 127,
                "duration": 0.1159091,
                "tempo": 120.0
            },
            {
                "start_time": 13.9545455,
                "end_time": 14.0704545,
                "pitch": 34,
                "velocity": 127,
                "duration": 0.1159091,
                "tempo": 120.0
            },
            {
                "start_time": 14.0704545,
                "end_time": 14.2045455,
                "pitch": 34,
                "velocity": 127,
                "duration": 0.1340909,
                "tempo": 120.0
            },
            {
                "start_time": 14.2045455,
                "end_time": 14.3204545,
                "pitch": 34,
                "velocity": 127,
                "duration": 0.1159091,
                "tempo": 120.0
            },
            {
                "start_time": 14.3204545,
                "end_time": 14.4363636,
                "pitch": 34,
                "velocity": 127,
                "duration": 0.1159091,
                "tempo": 120.0
            },
            {
                "start_time": 14.4363636,
                "end_time": 14.5545455,
                "pitch": 34,
                "velocity": 127,
                "duration": 0.1181818,
                "tempo": 120.0
            },
            {
                "start_time": 14.5545455,
                "end_time": 14.6727273,
                "pitch": 34,
                "velocity": 127,
                "duration": 0.1181818,
                "tempo": 120.0
            },
            {
                "start_time": 14.6727273,
                "end_time": 14.8068182,
                "pitch": 34,
                "velocity": 127,
                "duration": 0.1340909,
                "tempo": 120.0
            },
            {
                "start_time": 14.8068182,
                "end_time": 14.925,
                "pitch": 34,
                "velocity": 127,
                "duration": 0.1181818,
                "tempo": 120.0
            },
            {
                "start_time": 14.925,
                "end_time": 15.0431818,
                "pitch": 34,
                "velocity": 127,
                "duration": 0.1181818,
                "tempo": 120.0
            },
            {
                "start_time": 15.0431818,
                "end_time": 15.1636364,
                "pitch": 34,
                "velocity": 127,
                "duration": 0.1204545,
                "tempo": 120.0
            },
            {
                "start_time": 15.1636364,
                "end_time": 15.2818182,
                "pitch": 34,
                "velocity": 127,
                "duration": 0.1181818,
                "tempo": 120.0
            },
            {
                "start_time": 15.2818182,
                "end_time": 15.3931818,
                "pitch": 34,
                "velocity": 127,
                "duration": 0.1113636,
                "tempo": 120.0
            },
            {
                "start_time": 15.3931818,
                "end_time": 15.5227273,
                "pitch": 34,
                "velocity": 127,
                "duration": 0.1295455,
                "tempo": 120.0
            },
            {
                "start_time": 15.5227273,
                "end_time": 15.6340909,
                "pitch": 34,
                "velocity": 127,
                "duration": 0.1113636,
                "tempo": 120.0
            },
            {
                "start_time": 15.6340909,
                "end_time": 15.7454545,
                "pitch": 34,
                "velocity": 127,
                "duration": 0.1113636,
                "tempo": 120.0
            },
            {
                "start_time": 15.7454545,
                "end_time": 15.8636364,
                "pitch": 34,
                "velocity": 127,
                "duration": 0.1181818,
                "tempo": 120.0
            },
            {
                "start_time": 15.8636364,
                "end_time": 15.9795455,
                "pitch": 34,
                "velocity": 127,
                "duration": 0.1159091,
                "tempo": 120.0
            },
            {
                "start_time": 15.9795455,
                "end_time": 16.0977273,
                "pitch": 34,
                "velocity": 127,
                "duration": 0.1181818,
                "tempo": 120.0
            },
            {
                "start_time": 16.0977273,
                "end_time": 16.2318182,
                "pitch": 34,
                "velocity": 127,
                "duration": 0.1340909,
                "tempo": 120.0
            },
            {
                "start_time": 16.2318182,
                "end_time": 16.35,
                "pitch": 34,
                "velocity": 127,
                "duration": 0.1181818,
                "tempo": 120.0
            },
            {
                "start_time": 16.35,
                "end_time": 16.4704545,
                "pitch": 34,
                "velocity": 127,
                "duration": 0.1204545,
                "tempo": 120.0
            },
            {
                "start_time": 16.4704545,
                "end_time": 16.5886364,
                "pitch": 34,
                "velocity": 127,
                "duration": 0.1181818,
                "tempo": 120.0
            },
            {
                "start_time": 16.5886364,
                "end_time": 16.7090909,
                "pitch": 34,
                "velocity": 127,
                "duration": 0.1204545,
                "tempo": 120.0
            },
            {
                "start_time": 16.7090909,
                "end_time": 16.8363636,
                "pitch": 34,
                "velocity": 127,
                "duration": 0.1272727,
                "tempo": 120.0
            },
            {
                "start_time": 16.8363636,
                "end_time": 16.9477273,
                "pitch": 34,
                "velocity": 127,
                "duration": 0.1113636,
                "tempo": 120.0
            },
            {
                "start_time": 16.9477273,
                "end_time": 17.0590909,
                "pitch": 34,
                "velocity": 127,
                "duration": 0.1113636,
                "tempo": 120.0
            },
            {
                "start_time": 17.0590909,
                "end_time": 17.1727273,
                "pitch": 34,
                "velocity": 127,
                "duration": 0.1136364,
                "tempo": 120.0
            },
            {
                "start_time": 17.1727273,
                "end_time": 17.2909091,
                "pitch": 34,
                "velocity": 127,
                "duration": 0.1181818,
                "tempo": 120.0
            },
            {
                "start_time": 17.2909091,
                "end_time": 17.4090909,
                "pitch": 36,
                "velocity": 127,
                "duration": 0.1181818,
                "tempo": 120.0
            },
            {
                "start_time": 17.4090909,
                "end_time": 17.5454545,
                "pitch": 36,
                "velocity": 127,
                "duration": 0.1363636,
                "tempo": 120.0
            },
            {
                "start_time": 17.5454545,
                "end_time": 17.6659091,
                "pitch": 36,
                "velocity": 127,
                "duration": 0.1204545,
                "tempo": 120.0
            },
            {
                "start_time": 17.6659091,
                "end_time": 17.7818182,
                "pitch": 36,
                "velocity": 127,
                "duration": 0.1159091,
                "tempo": 120.0
            },
            {
                "start_time": 17.7818182,
                "end_time": 17.9,
                "pitch": 36,
                "velocity": 127,
                "duration": 0.1181818,
                "tempo": 120.0
            },
            {
                "start_time": 17.9,
                "end_time": 18.0181818,
                "pitch": 36,
                "velocity": 127,
                "duration": 0.1181818,
                "tempo": 120.0
            },
            {
                "start_time": 18.0181818,
                "end_time": 18.1340909,
                "pitch": 36,
                "velocity": 127,
                "duration": 0.1159091,
                "tempo": 120.0
            },
            {
                "start_time": 18.1340909,
                "end_time": 18.2613636,
                "pitch": 36,
                "velocity": 127,
                "duration": 0.1272727,
                "tempo": 120.0
            },
            {
                "start_time": 18.2613636,
                "end_time": 18.375,
                "pitch": 36,
                "velocity": 127,
                "duration": 0.1136364,
                "tempo": 120.0
            },
            {
                "start_time": 18.375,
                "end_time": 18.4863636,
                "pitch": 36,
                "velocity": 127,
                "duration": 0.1113636,
                "tempo": 120.0
            },
            {
                "start_time": 18.4863636,
                "end_time": 18.5977273,
                "pitch": 36,
                "velocity": 127,
                "duration": 0.1113636,
                "tempo": 120.0
            },
            {
                "start_time": 18.5977273,
                "end_time": 18.7159091,
                "pitch": 36,
                "velocity": 127,
                "duration": 0.1181818,
                "tempo": 120.0
            },
            {
                "start_time": 18.7159091,
                "end_time": 18.85,
                "pitch": 36,
                "velocity": 127,
                "duration": 0.1340909,
                "tempo": 120.0
            },
            {
                "start_time": 18.85,
                "end_time": 18.9659091,
                "pitch": 36,
                "velocity": 127,
                "duration": 0.1159091,
                "tempo": 120.0
            },
            {
                "start_time": 18.9659091,
                "end_time": 19.0840909,
                "pitch": 36,
                "velocity": 127,
                "duration": 0.1181818,
                "tempo": 120.0
            },
            {
                "start_time": 19.0840909,
                "end_time": 19.2022727,
                "pitch": 36,
                "velocity": 127,
                "duration": 0.1181818,
                "tempo": 120.0
            },
            {
                "start_time": 19.2022727,
                "end_time": 19.3227273,
                "pitch": 36,
                "velocity": 127,
                "duration": 0.1204545,
                "tempo": 120.0
            },
            {
                "start_time": 19.3227273,
                "end_time": 19.4409091,
                "pitch": 36,
                "velocity": 127,
                "duration": 0.1181818,
                "tempo": 120.0
            },
            {
                "start_time": 19.4409091,
                "end_time": 19.5772727,
                "pitch": 36,
                "velocity": 127,
                "duration": 0.1363636,
                "tempo": 120.0
            },
            {
                "start_time": 19.5772727,
                "end_time": 19.6954545,
                "pitch": 36,
                "velocity": 127,
                "duration": 0.1181818,
                "tempo": 120.0
            },
            {
                "start_time": 19.6954545,
                "end_time": 19.8113636,
                "pitch": 36,
                "velocity": 127,
                "duration": 0.1159091,
                "tempo": 120.0
            },
            {
                "start_time": 19.8113636,
                "end_time": 19.9295455,
                "pitch": 36,
                "velocity": 127,
                "duration": 0.1181818,
                "tempo": 120.0
            },
            {
                "start_time": 19.9295455,
                "end_time": 20.0454545,
                "pitch": 36,
                "velocity": 127,
                "duration": 0.1159091,
                "tempo": 120.0
            },
            {
                "start_time": 20.0454545,
                "end_time": 20.175,
                "pitch": 36,
                "velocity": 127,
                "duration": 0.1295455,
                "tempo": 120.0
            },
            {
                "start_time": 20.175,
                "end_time": 20.2863636,
                "pitch": 36,
                "velocity": 127,
                "duration": 0.1113636,
                "tempo": 120.0
            },
            {
                "start_time": 20.2863636,
                "end_time": 20.3977273,
                "pitch": 36,
                "velocity": 127,
                "duration": 0.1113636,
                "tempo": 120.0
            },
            {
                "start_time": 20.3977273,
                "end_time": 20.5090909,
                "pitch": 36,
                "velocity": 127,
                "duration": 0.1113636,
                "tempo": 120.0
            },
            {
                "start_time": 20.5090909,
                "end_time": 20.6272727,
                "pitch": 36,
                "velocity": 127,
                "duration": 0.1181818,
                "tempo": 120.0
            },
            {
                "start_time": 20.6272727,
                "end_time": 20.7431818,
                "pitch": 36,
                "velocity": 127,
                "duration": 0.1159091,
                "tempo": 120.0
            },
            {
                "start_time": 20.7431818,
                "end_time": 20.8772727,
                "pitch": 36,
                "velocity": 127,
                "duration": 0.1340909,
                "tempo": 120.0
            },
            {
                "start_time": 20.8772727,
                "end_time": 20.9954545,
                "pitch": 36,
                "velocity": 127,
                "duration": 0.1181818,
                "tempo": 120.0
            },
            {
                "start_time": 20.9954545,
                "end_time": 21.1136364,
                "pitch": 38,
                "velocity": 127,
                "duration": 0.1181818,
                "tempo": 120.0
            },
            {
                "start_time": 21.1136364,
                "end_time": 21.2340909,
                "pitch": 38,
                "velocity": 127,
                "duration": 0.1204545,
                "tempo": 120.0
            },
            {
                "start_time": 21.2340909,
                "end_time": 21.3522727,
                "pitch": 38,
                "velocity": 127,
                "duration": 0.1181818,
                "tempo": 120.0
            },
            {
                "start_time": 21.3522727,
                "end_time": 21.4727273,
                "pitch": 38,
                "velocity": 127,
                "duration": 0.1204545,
                "tempo": 120.0
            },
            {
                "start_time": 21.4727273,
                "end_time": 21.6,
                "pitch": 38,
                "velocity": 127,
                "duration": 0.1272727,
                "tempo": 120.0
            },
            {
                "start_time": 21.6,
                "end_time": 21.7113636,
                "pitch": 38,
                "velocity": 127,
                "duration": 0.1113636,
                "tempo": 120.0
            },
            {
                "start_time": 21.7113636,
                "end_time": 21.8227273,
                "pitch": 38,
                "velocity": 127,
                "duration": 0.1113636,
                "tempo": 120.0
            },
            {
                "start_time": 21.8227273,
                "end_time": 21.9363636,
                "pitch": 38,
                "velocity": 127,
                "duration": 0.1136364,
                "tempo": 120.0
            },
            {
                "start_time": 21.9363636,
                "end_time": 22.0522727,
                "pitch": 38,
                "velocity": 127,
                "duration": 0.1159091,
                "tempo": 120.0
            },
            {
                "start_time": 22.0522727,
                "end_time": 22.1863636,
                "pitch": 38,
                "velocity": 127,
                "duration": 0.1340909,
                "tempo": 120.0
            },
            {
                "start_time": 22.1863636,
                "end_time": 22.3045455,
                "pitch": 38,
                "velocity": 127,
                "duration": 0.1181818,
                "tempo": 120.0
            },
            {
                "start_time": 22.3045455,
                "end_time": 22.4204545,
                "pitch": 38,
                "velocity": 127,
                "duration": 0.1159091,
                "tempo": 120.0
            },
            {
                "start_time": 22.4204545,
                "end_time": 22.5409091,
                "pitch": 38,
                "velocity": 127,
                "duration": 0.1204545,
                "tempo": 120.0
            },
            {
                "start_time": 22.5409091,
                "end_time": 22.6590909,
                "pitch": 38,
                "velocity": 127,
                "duration": 0.1181818,
                "tempo": 120.0
            },
            {
                "start_time": 22.6590909,
                "end_time": 22.7795455,
                "pitch": 38,
                "velocity": 127,
                "duration": 0.1204545,
                "tempo": 120.0
            },
            {
                "start_time": 22.7795455,
                "end_time": 22.9159091,
                "pitch": 38,
                "velocity": 127,
                "duration": 0.1363636,
                "tempo": 120.0
            },
            {
                "start_time": 22.9159091,
                "end_time": 23.0318182,
                "pitch": 38,
                "velocity": 127,
                "duration": 0.1159091,
                "tempo": 120.0
            },
            {
                "start_time": 23.0318182,
                "end_time": 23.15,
                "pitch": 38,
                "velocity": 127,
                "duration": 0.1181818,
                "tempo": 120.0
            },
            {
                "start_time": 23.15,
                "end_time": 23.2659091,
                "pitch": 38,
                "velocity": 127,
                "duration": 0.1159091,
                "tempo": 120.0
            },
            {
                "start_time": 23.2659091,
                "end_time": 23.3840909,
                "pitch": 38,
                "velocity": 127,
                "duration": 0.1181818,
                "tempo": 120.0
            },
            {
                "start_time": 23.3840909,
                "end_time": 23.4954545,
                "pitch": 38,
                "velocity": 127,
                "duration": 0.1113636,
                "tempo": 120.0
            },
            {
                "start_time": 23.4954545,
                "end_time": 23.6227273,
                "pitch": 38,
                "velocity": 127,
                "duration": 0.1272727,
                "tempo": 120.0
            },
            {
                "start_time": 23.6227273,
                "end_time": 23.7363636,
                "pitch": 38,
                "velocity": 127,
                "duration": 0.1136364,
                "tempo": 120.0
            },
            {
                "start_time": 23.7363636,
                "end_time": 23.8477273,
                "pitch": 38,
                "velocity": 127,
                "duration": 0.1113636,
                "tempo": 120.0
            },
            {
                "start_time": 23.8477273,
                "end_time": 23.9659091,
                "pitch": 38,
                "velocity": 127,
                "duration": 0.1181818,
                "tempo": 120.0
            },
            {
                "start_time": 23.9659091,
                "end_time": 24.0840909,
                "pitch": 38,
                "velocity": 127,
                "duration": 0.1181818,
                "tempo": 120.0
            },
            {
                "start_time": 24.0863636,
                "end_time": 24.2204545,
                "pitch": 38,
                "velocity": 127,
                "duration": 0.1340909,
                "tempo": 120.0
            },
            {
                "start_time": 24.2204545,
                "end_time": 24.3409091,
                "pitch": 38,
                "velocity": 127,
                "duration": 0.1204545,
                "tempo": 120.0
            },
            {
                "start_time": 24.3409091,
                "end_time": 24.4568182,
                "pitch": 38,
                "velocity": 127,
                "duration": 0.1159091,
                "tempo": 120.0
            },
            {
                "start_time": 24.4568182,
                "end_time": 24.575,
                "pitch": 38,
                "velocity": 127,
                "duration": 0.1181818,
                "tempo": 120.0
            },
            {
                "start_time": 24.575,
                "end_time": 24.6931818,
                "pitch": 38,
                "velocity": 127,
                "duration": 0.1181818,
                "tempo": 120.0
            },
            {
                "start_time": 24.6931818,
                "end_time": 24.8090909,
                "pitch": 38,
                "velocity": 127,
                "duration": 0.1159091,
                "tempo": 120.0
            },
            {
                "start_time": 24.8090909,
                "end_time": 24.9386364,
                "pitch": 38,
                "velocity": 127,
                "duration": 0.1295455,
                "tempo": 120.0
            },
            {
                "start_time": 24.9386364,
                "end_time": 25.05,
                "pitch": 39,
                "velocity": 127,
                "duration": 0.1113636,
                "tempo": 120.0
            },
            {
                "start_time": 25.05,
                "end_time": 25.1613636,
                "pitch": 39,
                "velocity": 127,
                "duration": 0.1113636,
                "tempo": 120.0
            },
            {
                "start_time": 25.1613636,
                "end_time": 25.2727273,
                "pitch": 39,
                "velocity": 127,
                "duration": 0.1113636,
                "tempo": 120.0
            },
            {
                "start_time": 25.2727273,
                "end_time": 25.3909091,
                "pitch": 39,
                "velocity": 127,
                "duration": 0.1181818,
                "tempo": 120.0
            },
            {
                "start_time": 25.3909091,
                "end_time": 25.5068182,
                "pitch": 39,
                "velocity": 127,
                "duration": 0.1159091,
                "tempo": 120.0
            },
            {
                "start_time": 25.5090909,
                "end_time": 25.6409091,
                "pitch": 39,
                "velocity": 127,
                "duration": 0.1318182,
                "tempo": 120.0
            },
            {
                "start_time": 25.6409091,
                "end_time": 25.7590909,
                "pitch": 39,
                "velocity": 127,
                "duration": 0.1181818,
                "tempo": 120.0
            },
            {
                "start_time": 25.7590909,
                "end_time": 25.8772727,
                "pitch": 39,
                "velocity": 127,
                "duration": 0.1181818,
                "tempo": 120.0
            },
            {
                "start_time": 25.8772727,
                "end_time": 25.9931818,
                "pitch": 39,
                "velocity": 127,
                "duration": 0.1159091,
                "tempo": 120.0
            },
            {
                "start_time": 25.9931818,
                "end_time": 26.1113636,
                "pitch": 39,
                "velocity": 127,
                "duration": 0.1181818,
                "tempo": 120.0
            },
            {
                "start_time": 26.1113636,
                "end_time": 26.2454545,
                "pitch": 39,
                "velocity": 127,
                "duration": 0.1340909,
                "tempo": 120.0
            },
            {
                "start_time": 26.2454545,
                "end_time": 26.3636364,
                "pitch": 39,
                "velocity": 127,
                "duration": 0.1181818,
                "tempo": 120.0
            },
            {
                "start_time": 26.3636364,
                "end_time": 26.4840909,
                "pitch": 39,
                "velocity": 127,
                "duration": 0.1204545,
                "tempo": 120.0
            },
            {
                "start_time": 26.4840909,
                "end_time": 26.6022727,
                "pitch": 39,
                "velocity": 127,
                "duration": 0.1181818,
                "tempo": 120.0
            },
            {
                "start_time": 26.6022727,
                "end_time": 26.7227273,
                "pitch": 39,
                "velocity": 127,
                "duration": 0.1204545,
                "tempo": 120.0
            },
            {
                "start_time": 26.7227273,
                "end_time": 26.8340909,
                "pitch": 39,
                "velocity": 127,
                "duration": 0.1113636,
                "tempo": 120.0
            },
            {
                "start_time": 26.8340909,
                "end_time": 26.9613636,
                "pitch": 39,
                "velocity": 127,
                "duration": 0.1272727,
                "tempo": 120.0
            },
            {
                "start_time": 26.9613636,
                "end_time": 27.0727273,
                "pitch": 39,
                "velocity": 127,
                "duration": 0.1113636,
                "tempo": 120.0
            },
            {
                "start_time": 27.0727273,
                "end_time": 27.1840909,
                "pitch": 39,
                "velocity": 127,
                "duration": 0.1113636,
                "tempo": 120.0
            },
            {
                "start_time": 27.1840909,
                "end_time": 27.3022727,
                "pitch": 39,
                "velocity": 127,
                "duration": 0.1181818,
                "tempo": 120.0
            },
            {
                "start_time": 27.3022727,
                "end_time": 27.4204545,
                "pitch": 39,
                "velocity": 127,
                "duration": 0.1181818,
                "tempo": 120.0
            },
            {
                "start_time": 27.4204545,
                "end_time": 27.5545455,
                "pitch": 39,
                "velocity": 127,
                "duration": 0.1340909,
                "tempo": 120.0
            },
            {
                "start_time": 27.5545455,
                "end_time": 27.6704545,
                "pitch": 39,
                "velocity": 127,
                "duration": 0.1159091,
                "tempo": 120.0
            },
            {
                "start_time": 27.6704545,
                "end_time": 27.7886364,
                "pitch": 39,
                "velocity": 127,
                "duration": 0.1181818,
                "tempo": 120.0
            },
            {
                "start_time": 27.7886364,
                "end_time": 27.9045455,
                "pitch": 39,
                "velocity": 127,
                "duration": 0.1159091,
                "tempo": 120.0
            },
            {
                "start_time": 27.9045455,
                "end_time": 28.0227273,
                "pitch": 39,
                "velocity": 127,
                "duration": 0.1181818,
                "tempo": 120.0
            },
            {
                "start_time": 28.0227273,
                "end_time": 28.1409091,
                "pitch": 39,
                "velocity": 127,
                "duration": 0.1181818,
                "tempo": 120.0
            },
            {
                "start_time": 28.1409091,
                "end_time": 28.2704545,
                "pitch": 39,
                "velocity": 127,
                "duration": 0.1295455,
                "tempo": 120.0
            },
            {
                "start_time": 28.2704545,
                "end_time": 28.3840909,
                "pitch": 39,
                "velocity": 127,
                "duration": 0.1136364,
                "tempo": 120.0
            },
            {
                "start_time": 28.3840909,
                "end_time": 28.5,
                "pitch": 39,
                "velocity": 127,
                "duration": 0.1159091,
                "tempo": 120.0
            },
            {
                "start_time": 28.5,
                "end_time": 28.6136364,
                "pitch": 39,
                "velocity": 127,
                "duration": 0.1136364,
                "tempo": 120.0
            },
            {
                "start_time": 28.6136364,
                "end_time": 28.7295455,
                "pitch": 32,
                "velocity": 127,
                "duration": 0.1159091,
                "tempo": 120.0
            },
            {
                "start_time": 28.7295455,
                "end_time": 28.8477273,
                "pitch": 32,
                "velocity": 127,
                "duration": 0.1181818,
                "tempo": 120.0
            },
            {
                "start_time": 28.8477273,
                "end_time": 28.9795455,
                "pitch": 32,
                "velocity": 127,
                "duration": 0.1318182,
                "tempo": 120.0
            },
            {
                "start_time": 28.9795455,
                "end_time": 29.0954545,
                "pitch": 32,
                "velocity": 127,
                "duration": 0.1159091,
                "tempo": 120.0
            },
            {
                "start_time": 29.0954545,
                "end_time": 29.2159091,
                "pitch": 32,
                "velocity": 127,
                "duration": 0.1204545,
                "tempo": 120.0
            },
            {
                "start_time": 29.2159091,
                "end_time": 29.3340909,
                "pitch": 32,
                "velocity": 127,
                "duration": 0.1181818,
                "tempo": 120.0
            },
            {
                "start_time": 29.3340909,
                "end_time": 29.4545455,
                "pitch": 32,
                "velocity": 127,
                "duration": 0.1204545,
                "tempo": 120.0
            },
            {
                "start_time": 29.4545455,
                "end_time": 29.5886364,
                "pitch": 32,
                "velocity": 127,
                "duration": 0.1340909,
                "tempo": 120.0
            },
            {
                "start_time": 29.5886364,
                "end_time": 29.7068182,
                "pitch": 32,
                "velocity": 127,
                "duration": 0.1181818,
                "tempo": 120.0
            },
            {
                "start_time": 29.7068182,
                "end_time": 29.825,
                "pitch": 32,
                "velocity": 127,
                "duration": 0.1181818,
                "tempo": 120.0
            },
            {
                "start_time": 29.825,
                "end_time": 29.9409091,
                "pitch": 32,
                "velocity": 127,
                "duration": 0.1159091,
                "tempo": 120.0
            },
            {
                "start_time": 29.9409091,
                "end_time": 30.0590909,
                "pitch": 32,
                "velocity": 127,
                "duration": 0.1181818,
                "tempo": 120.0
            },
            {
                "start_time": 30.0590909,
                "end_time": 30.1704545,
                "pitch": 32,
                "velocity": 127,
                "duration": 0.1113636,
                "tempo": 120.0
            },
            {
                "start_time": 30.1704545,
                "end_time": 30.2977273,
                "pitch": 32,
                "velocity": 127,
                "duration": 0.1272727,
                "tempo": 120.0
            },
            {
                "start_time": 30.2977273,
                "end_time": 30.4090909,
                "pitch": 32,
                "velocity": 127,
                "duration": 0.1113636,
                "tempo": 120.0
            },
            {
                "start_time": 30.4090909,
                "end_time": 30.5227273,
                "pitch": 32,
                "velocity": 127,
                "duration": 0.1136364,
                "tempo": 120.0
            },
            {
                "start_time": 30.5227273,
                "end_time": 30.6409091,
                "pitch": 32,
                "velocity": 127,
                "duration": 0.1181818,
                "tempo": 120.0
            },
            {
                "start_time": 30.6409091,
                "end_time": 30.7590909,
                "pitch": 32,
                "velocity": 127,
                "duration": 0.1181818,
                "tempo": 120.0
            },
            {
                "start_time": 30.7590909,
                "end_time": 30.8795455,
                "pitch": 32,
                "velocity": 127,
                "duration": 0.1204545,
                "tempo": 120.0
            },
            {
                "start_time": 30.8795455,
                "end_time": 31.0159091,
                "pitch": 32,
                "velocity": 127,
                "duration": 0.1363636,
                "tempo": 120.0
            },
            {
                "start_time": 31.0159091,
                "end_time": 31.1318182,
                "pitch": 32,
                "velocity": 127,
                "duration": 0.1159091,
                "tempo": 120.0
            },
            {
                "start_time": 31.1318182,
                "end_time": 31.25,
                "pitch": 32,
                "velocity": 127,
                "duration": 0.1181818,
                "tempo": 120.0
            },
            {
                "start_time": 31.25,
                "end_time": 31.3681818,
                "pitch": 32,
                "velocity": 127,
                "duration": 0.1181818,
                "tempo": 120.0
            },
            {
                "start_time": 31.3681818,
                "end_time": 31.4840909,
                "pitch": 32,
                "velocity": 127,
                "duration": 0.1159091,
                "tempo": 120.0
            },
            {
                "start_time": 31.4840909,
                "end_time": 31.6113636,
                "pitch": 32,
                "velocity": 127,
                "duration": 0.1272727,
                "tempo": 120.0
            },
            {
                "start_time": 31.6113636,
                "end_time": 31.725,
                "pitch": 32,
                "velocity": 127,
                "duration": 0.1136364,
                "tempo": 120.0
            },
            {
                "start_time": 31.725,
                "end_time": 31.8363636,
                "pitch": 32,
                "velocity": 127,
                "duration": 0.1113636,
                "tempo": 120.0
            },
            {
                "start_time": 31.8363636,
                "end_time": 31.9477273,
                "pitch": 32,
                "velocity": 127,
                "duration": 0.1113636,
                "tempo": 120.0
            },
            {
                "start_time": 31.9477273,
                "end_time": 32.0636364,
                "pitch": 32,
                "velocity": 127,
                "duration": 0.1159091,
                "tempo": 120.0
            },
            {
                "start_time": 32.0636364,
                "end_time": 32.1795455,
                "pitch": 32,
                "velocity": 127,
                "duration": 0.1159091,
                "tempo": 120.0
            },
            {
                "start_time": 32.1795455,
                "end_time": 32.3136364,
                "pitch": 32,
                "velocity": 127,
                "duration": 0.1340909,
                "tempo": 120.0
            },
            {
                "start_time": 32.3136364,
                "end_time": 32.4295455,
                "pitch": 32,
                "velocity": 127,
                "duration": 0.1159091,
                "tempo": 120.0
            },
            {
                "start_time": 32.4295455,
                "end_time": 32.5477273,
                "pitch": 34,
                "velocity": 127,
                "duration": 0.1181818,
                "tempo": 120.0
            },
            {
                "start_time": 32.5477273,
                "end_time": 32.6681818,
                "pitch": 34,
                "velocity": 127,
                "duration": 0.1204545,
                "tempo": 120.0
            },
            {
                "start_time": 32.6681818,
                "end_time": 32.7863636,
                "pitch": 34,
                "velocity": 127,
                "duration": 0.1181818,
                "tempo": 120.0
            },
            {
                "start_time": 32.7863636,
                "end_time": 32.9227273,
                "pitch": 34,
                "velocity": 127,
                "duration": 0.1363636,
                "tempo": 120.0
            },
            {
                "start_time": 32.9227273,
                "end_time": 33.0409091,
                "pitch": 34,
                "velocity": 127,
                "duration": 0.1181818,
                "tempo": 120.0
            },
            {
                "start_time": 33.0409091,
                "end_time": 33.1568182,
                "pitch": 34,
                "velocity": 127,
                "duration": 0.1159091,
                "tempo": 120.0
            },
            {
                "start_time": 33.1568182,
                "end_time": 33.275,
                "pitch": 34,
                "velocity": 127,
                "duration": 0.1181818,
                "tempo": 120.0
            },
            {
                "start_time": 33.275,
                "end_time": 33.3931818,
                "pitch": 34,
                "velocity": 127,
                "duration": 0.1181818,
                "tempo": 120.0
            },
            {
                "start_time": 33.3931818,
                "end_time": 33.5045455,
                "pitch": 34,
                "velocity": 127,
                "duration": 0.1113636,
                "tempo": 120.0
            },
            {
                "start_time": 33.5045455,
                "end_time": 33.6318182,
                "pitch": 34,
                "velocity": 127,
                "duration": 0.1272727,
                "tempo": 120.0
            },
            {
                "start_time": 33.6318182,
                "end_time": 33.7431818,
                "pitch": 34,
                "velocity": 127,
                "duration": 0.1113636,
                "tempo": 120.0
            },
            {
                "start_time": 33.7431818,
                "end_time": 33.8568182,
                "pitch": 34,
                "velocity": 127,
                "duration": 0.1136364,
                "tempo": 120.0
            },
            {
                "start_time": 33.8568182,
                "end_time": 33.9727273,
                "pitch": 34,
                "velocity": 127,
                "duration": 0.1159091,
                "tempo": 120.0
            },
            {
                "start_time": 33.9727273,
                "end_time": 34.0886364,
                "pitch": 34,
                "velocity": 127,
                "duration": 0.1159091,
                "tempo": 120.0
            },
            {
                "start_time": 34.0886364,
                "end_time": 34.2045455,
                "pitch": 34,
                "velocity": 127,
                "duration": 0.1159091,
                "tempo": 120.0
            },
            {
                "start_time": 34.2045455,
                "end_time": 34.3386364,
                "pitch": 34,
                "velocity": 127,
                "duration": 0.1340909,
                "tempo": 120.0
            },
            {
                "start_time": 34.3386364,
                "end_time": 34.4568182,
                "pitch": 34,
                "velocity": 127,
                "duration": 0.1181818,
                "tempo": 120.0
            },
            {
                "start_time": 34.4568182,
                "end_time": 34.575,
                "pitch": 34,
                "velocity": 127,
                "duration": 0.1181818,
                "tempo": 120.0
            },
            {
                "start_time": 34.575,
                "end_time": 34.6954545,
                "pitch": 34,
                "velocity": 127,
                "duration": 0.1204545,
                "tempo": 120.0
            },
            {
                "start_time": 34.6954545,
                "end_time": 34.8136364,
                "pitch": 34,
                "velocity": 127,
                "duration": 0.1181818,
                "tempo": 120.0
            },
            {
                "start_time": 34.8136364,
                "end_time": 34.9409091,
                "pitch": 34,
                "velocity": 127,
                "duration": 0.1272727,
                "tempo": 120.0
            },
            {
                "start_time": 34.9409091,
                "end_time": 35.0545455,
                "pitch": 34,
                "velocity": 127,
                "duration": 0.1136364,
                "tempo": 120.0
            },
            {
                "start_time": 35.0545455,
                "end_time": 35.1659091,
                "pitch": 34,
                "velocity": 127,
                "duration": 0.1113636,
                "tempo": 120.0
            },
            {
                "start_time": 35.1659091,
                "end_time": 35.2772727,
                "pitch": 34,
                "velocity": 127,
                "duration": 0.1113636,
                "tempo": 120.0
            },
            {
                "start_time": 35.2772727,
                "end_time": 35.3954545,
                "pitch": 34,
                "velocity": 127,
                "duration": 0.1181818,
                "tempo": 120.0
            },
            {
                "start_time": 35.3954545,
                "end_time": 35.5159091,
                "pitch": 34,
                "velocity": 127,
                "duration": 0.1204545,
                "tempo": 120.0
            },
            {
                "start_time": 35.5159091,
                "end_time": 35.6522727,
                "pitch": 34,
                "velocity": 127,
                "duration": 0.1363636,
                "tempo": 120.0
            },
            {
                "start_time": 35.6522727,
                "end_time": 35.7704545,
                "pitch": 34,
                "velocity": 127,
                "duration": 0.1181818,
                "tempo": 120.0
            },
            {
                "start_time": 35.7704545,
                "end_time": 35.8863636,
                "pitch": 34,
                "velocity": 127,
                "duration": 0.1159091,
                "tempo": 120.0
            },
            {
                "start_time": 35.8863636,
                "end_time": 36.0045455,
                "pitch": 34,
                "velocity": 127,
                "duration": 0.1181818,
                "tempo": 120.0
            },
            {
                "start_time": 36.0045455,
                "end_time": 36.1204545,
                "pitch": 34,
                "velocity": 127,
                "duration": 0.1159091,
                "tempo": 120.0
            },
            {
                "start_time": 36.1204545,
                "end_time": 36.2363636,
                "pitch": 34,
                "velocity": 127,
                "duration": 0.1159091,
                "tempo": 120.0
            },
            {
                "start_time": 13.3636364,
                "end_time": 36.3636364,
                "pitch": 31,
                "velocity": 127,
                "duration": 23.0,
                "tempo": 120.0
            },
            {
                "start_time": 36.2363636,
                "end_time": 36.3636364,
                "pitch": 31,
                "velocity": 127,
                "duration": 0.1272727,
                "tempo": 120.0
            },
            {
                "start_time": 36.3636364,
                "end_time": 36.4772727,
                "pitch": 31,
                "velocity": 127,
                "duration": 0.1136364,
                "tempo": 120.0
            },
            {
                "start_time": 36.4772727,
                "end_time": 36.5886364,
                "pitch": 31,
                "velocity": 127,
                "duration": 0.1113636,
                "tempo": 120.0
            }
        ]
    }
}