{
    "mood": "happy",
    "instruments": {
        "Trumpet": [
            {
                "start_time": 23.2227273,
                "end_time": 23.9295455,
                "pitch": 67,
                "velocity": 40,
                "duration": 0.7068182,
                "tempo": 120.0
            },
            {
                "start_time": 23.9659091,
                "end_time": 24.1159091,
                "pitch": 63,
                "velocity": 40,
                "duration": 0.15,
                "tempo": 120.0
            },
            {
                "start_time": 24.1340909,
                "end_time": 24.3022727,
                "pitch": 67,
                "velocity": 40,
                "duration": 0.1681818,
                "tempo": 120.0
            },
            {
                "start_time": 24.3204545,
                "end_time": 24.4636364,
                "pitch": 70,
                "velocity": 40,
                "duration": 0.1431818,
                "tempo": 120.0
            },
            {
                "start_time": 24.4977273,
                "end_time": 24.6409091,
                "pitch": 67,
                "velocity": 40,
                "duration": 0.1431818,
                "tempo": 120.0
            },
            {
                "start_time": 24.675,
                "end_time": 24.8931818,
                "pitch": 69,
                "velocity": 40,
                "duration": 0.2181818,
                "tempo": 120.0
            },
            {
                "start_time": 24.9272727,
                "end_time": 25.1272727,
                "pitch": 69,
                "velocity": 32,
                "duration": 0.2,
                "tempo": 120.0
            },
            {
                "start_time": 25.1613636,
                "end_time": 25.375,
                "pitch": 69,
                "velocity": 32,
                "duration": 0.2136364,
                "tempo": 120.0
            },
            {
                "start_time": 25.4090909,
                "end_time": 25.6113636,
                "pitch": 69,
                "velocity": 40,
                "duration": 0.2022727,
                "tempo": 120.0
            },
            {
                "start_time": 25.6454545,
                "end_time": 25.8590909,
                "pitch": 69,
                "velocity": 32,
                "duration": 0.2136364,
                "tempo": 120.0
            },
            {
                "start_time": 25.8931818,
                "end_time": 26.0840909,
                "pitch": 69,
                "velocity": 32,
                "duration": 0.1909091,
                "tempo": 120.0
            },
            {
                "start_time": 26.1181818,
                "end_time": 26.8204545,
                "pitch": 65,
                "velocity": 40,
                "duration": 0.7022727,
                "tempo": 120.0
            },
            {
                "start_time": 26.8545455,
                "end_time": 27.0045455,
                "pitch": 62,
                "velocity": 40,
                "duration": 0.15,
                "tempo": 120.0
            },
            {
                "start_time": 27.0409091,
                "end_time": 27.1909091,
                "pitch": 65,
                "velocity": 40,
                "duration": 0.15,
                "tempo": 120.0
            },
            {
                "start_time": 27.2272727,
                "end_time": 27.3772727,
                "pitch": 69,
                "velocity": 40,
                "duration": 0.15,
                "tempo": 120.0
            },
            {
                "start_time": 27.4136364,
                "end_time": 27.5636364,
                "pitch": 65,
                "velocity": 40,
                "duration": 0.15,
                "tempo": 120.0
            },
            {
                "start_time": 27.5818182,
                "end_time": 27.7886364,
                "pitch": 62,
                "velocity": 40,
                "duration": 0.2068182,
                "tempo": 120.0
            },
            {
                "start_time": 27.8227273,
                "end_time": 28.0340909,
                "pitch": 62,
                "velocity": 32,
                "duration": 0.2113636,
                "tempo": 120.0
            },
            {
                "start_time": 28.0522727,
                "end_time": 28.2727273,
                "pitch": 62,
                "velocity": 32,
                "duration": 0.2204545,
                "tempo": 120.0
            },
            {
                "start_time": 28.3068182,
                "end_time": 28.5204545,
                "pitch": 62,
                "velocity": 40,
                "duration": 0.2136364,
                "tempo": 120.0
            },
            {
                "start_time": 28.5545455,
                "end_time": 28.7522727,
                "pitch": 62,
                "velocity": 32,
                "duration": 0.1977273,
                "tempo": 120.0
            },
            {
                "start_time": 28.7886364,
                "end_time": 29.0068182,
                "pitch": 62,
                "velocity": 32,
                "duration": 0.2181818,
                "tempo": 120.0
            },
            {
                "start_time": 29.0431818,
                "end_time": 29.7181818,
                "pitch": 63,
                "velocity": 40,
                "duration": 0.675,
                "tempo": 120.0
            },
            {
                "start_time": 29.7522727,
                "end_time": 29.9,
                "pitch": 55,
                "velocity": 40,
                "duration": 0.1477273,
                "tempo": 120.0
            },
            {
                "start_time": 29.9340909,
                "end_time": 30.0818182,
                "pitch": 60,
                "velocity": 40,
                "duration": 0.1477273,
                "tempo": 120.0
            },
            {
                "start_time": 30.1159091,
                "end_time": 30.2659091,
                "pitch": 60,
                "velocity": 40,
                "duration": 0.15,
                "tempo": 120.0
            },
            {
                "start_time": 30.3022727,
                "end_time": 30.4522727,
                "pitch": 63,
                "velocity": 40,
                "duration": 0.15,
                "tempo": 120.0
            },
            {
                "start_time": 30.4886364,
                "end_time": 30.6886364,
                "pitch": 65,
                "velocity": 40,
                "duration": 0.2,
                "tempo": 120.0
            },
            {
                "start_time": 30.7227273,
                "end_time": 30.9409091,
                "pitch": 69,
                "velocity": 40,
                "duration": 0.2181818,
                "tempo": 120.0
            },
            {
                "start_time": 30.975,
                "end_time": 31.1727273,
                "pitch": 72,
                "velocity": 40,
                "duration": 0.1977273,
                "tempo": 120.0
            },
            {
                "start_time": 31.2068182,
                "end_time": 31.4204545,
                "pitch": 72,
                "velocity": 40,
                "duration": 0.2136364,
                "tempo": 120.0
            },
            {
                "start_time": 31.4545455,
                "end_time": 31.6681818,
                "pitch": 72,
                "velocity": 40,
                "duration": 0.2136364,
                "tempo": 120.0
            },
            {
                "start_time": 31.6840909,
                "end_time": 31.9,
                "pitch": 69,
                "velocity": 40,
                "duration": 0.2159091,
                "tempo": 120.0
            },
            {
                "start_time": 31.9340909,
                "end_time": 32.4568182,
                "pitch": 69,
                "velocity": 40,
                "duration": 0.5227273,
                "tempo": 120.0
            },
            {
                "start_time": 32.4931818,
                "end_time": 32.9818182,
                "pitch": 69,
                "velocity": 40,
                "duration": 0.4886364,
                "tempo": 120.0
            },
            {
                "start_time": 33.0159091,
                "end_time": 33.3522727,
                "pitch": 69,
                "velocity": 40,
                "duration": 0.3363636,
                "tempo": 120.0
            },
            {
                "start_time": 33.3886364,
                "end_time": 34.8,
                "pitch": 74,
                "velocity": 40,
                "duration": 1.4113636,
                "tempo": 120.0
            },
            {
                "start_time": 34.8363636,
                "end_time": 34.9840909,
                "pitch": 74,
                "velocity": 40,
                "duration": 0.1477273,
                "tempo": 120.0
            },
            {
                "start_time": 35.0181818,
                "end_time": 35.1704545,
                "pitch": 77,
                "velocity": 40,
                "duration": 0.1522727,
                "tempo": 120.0
            },
            {
                "start_time": 35.2045455,
                "end_time": 35.3568182,
                "pitch": 79,
                "velocity": 40,
                "duration": 0.1522727,
                "tempo": 120.0
            },
            {
                "start_time": 35.3909091,
                "end_time": 35.7204545,
                "pitch": 81,
                "velocity": 40,
                "duration": 0.3295455,
                "tempo": 120.0
            },
            {
                "start_time": 35.7522727,
                "end_time": 35.8977273,
                "pitch": 79,
                "velocity": 40,
                "duration": 0.1454545,
                "tempo": 120.0
            },
            {
                "start_time": 35.9295455,
                "end_time": 36.0863636,
                "pitch": 77,
                "velocity": 40,
                "duration": 0.1568182,
                "tempo": 120.0
            },
            {
                "start_time": 36.1045455,
                "end_time": 36.2613636,
                "pitch": 74,
                "velocity": 40,
                "duration": 0.1568182,
                "tempo": 120.0
            },
            {
                "start_time": 36.2977273,
                "end_time": 36.4409091,
                "pitch": 74,
                "velocity": 25,
                "duration": 0.1431818,
                "tempo": 120.0
            },
            {
                "start_time": 36.475,
                "end_time": 36.6181818,
                "pitch": 77,
                "velocity": 25,
                "duration": 0.1431818,
                "tempo": 120.0
            },
            {
                "start_time": 36.65,
                "end_time": 36.7977273,
                "pitch": 79,
                "velocity": 25,
                "duration": 0.1477273,
                "tempo": 120.0
            },
            {
                "start_time": 36.8318182,
                "end_time": 37.1659091,
                "pitch": 81,
                "velocity": 25,
                "duration": 0.3340909,
                "tempo": 120.0
            },
            {
                "start_time": 37.2,
                "end_time": 37.3522727,
                "pitch": 79,
                "velocity": 25,
                "duration": 0.1522727,
                "tempo": 120.0
            },
            {
                "start_time": 37.3863636,
                "end_time": 37.5363636,
                "pitch": 77,
                "velocity": 25,
                "duration": 0.15,
                "tempo": 120.0
            },
            {
                "start_time": 37.5727273,
                "end_time": 37.7227273,
                "pitch": 74,
                "velocity": 25,
                "duration": 0.15,
                "tempo": 120.0
            },
            {
                "start_time": 37.7431818,
                "end_time": 37.9,
                "pitch": 75,
                "velocity": 40,
                "duration": 0.1568182,
                "tempo": 120.0
            },
            {
                "start_time": 37.9181818,
                "end_time": 38.0613636,
                "pitch": 77,
                "velocity": 40,
                "duration": 0.1431818,
                "tempo": 120.0
            },
            {
                "start_time": 38.0931818,
                "end_time": 38.2454545,
                "pitch": 79,
                "velocity": 40,
                "duration": 0.1522727,
                "tempo": 120.0
            },
            {
                "start_time": 38.2795455,
                "end_time": 38.6136364,
                "pitch": 81,
                "velocity": 40,
                "duration": 0.3340909,
                "tempo": 120.0
            },
            {
                "start_time": 38.6477273,
                "end_time": 38.7954545,
                "pitch": 79,
                "velocity": 40,
                "duration": 0.1477273,
                "tempo": 120.0
            },
            {
                "start_time": 38.8295455,
                "end_time": 38.9818182,
                "pitch": 77,
                "velocity": 40,
                "duration": 0.1522727,
                "tempo": 120.0
            },
            {
                "start_time": 39.0159091,
                "end_time": 39.1681818,
                "pitch": 75,
                "velocity": 40,
                "duration": 0.1522727,
                "tempo": 120.0
            },
            {
                "start_time": 39.2022727,
                "end_time": 39.3545455,
                "pitch": 75,
                "velocity": 25,
                "duration": 0.1522727,
                "tempo": 120.0
            },
            {
                "start_time": 39.3909091,
                "end_time": 39.5409091,
                "pitch": 77,
                "velocity": 25,
                "duration": 0.15,
                "tempo": 120.0
            },
            {
                "start_time": 39.5590909,
                "end_time": 39.7022727,
                "pitch": 79,
                "velocity": 25,
                "duration": 0.1431818,
                "tempo": 120.0
            },
            {
                "start_time": 39.7340909,
                "end_time": 40.0590909,
                "pitch": 81,
                "velocity": 25,
                "duration": 0.325,
                "tempo": 120.0
            },
            {
                "start_time": 40.0931818,
                "end_time": 40.2409091,
                "pitch": 79,
                "velocity": 25,
                "duration": 0.1477273,
                "tempo": 120.0
            },
            {
                "start_time": 40.275,
                "end_time": 40.4272727,
                "pitch": 77,
                "velocity": 25,
                "duration": 0.1522727,
                "tempo": 120.0
            },
            {
                "start_time": 40.4613636,
                "end_time": 40.6113636,
                "pitch": 75,
                "velocity": 25,
                "duration": 0.15,
                "tempo": 120.0
            },
            {
                "start_time": 40.65,
                "end_time": 40.7977273,
                "pitch": 75,
                "velocity": 40,
                "duration": 0.1477273,
                "tempo": 120.0
            },
            {
                "start_time": 40.8318182,
                "end_time": 40.9840909,
                "pitch": 77,
                "velocity": 40,
                "duration": 0.1522727,
                "tempo": 120.0
            },
            {
                "start_time": 41.0181818,
                "end_time": 41.1659091,
                "pitch": 79,
                "velocity": 40,
                "duration": 0.1477273,
                "tempo": 120.0
            },
            {
                "start_time": 41.1840909,
                "end_time": 41.5136364,
                "pitch": 81,
                "velocity": 40,
                "duration": 0.3295455,
                "tempo": 120.0
            },
            {
                "start_time": 41.5477273,
                "end_time": 41.6954545,
                "pitch": 79,
                "velocity": 40,
                "duration": 0.1477273,
                "tempo": 120.0
            },
            {
                "start_time": 41.7295455,
                "end_time": 41.8795455,
                "pitch": 77,
                "velocity": 40,
                "duration": 0.15,
                "tempo": 120.0
            },
            {
                "start_time": 41.9159091,
                "end_time": 42.0681818,
                "pitch": 75,
                "velocity": 40,
                "duration": 0.1522727,
                "tempo": 120.0
            },
            {
                "start_time": 42.1022727,
                "end_time": 42.25,
                "pitch": 75,
                "velocity": 40,
                "duration": 0.1477273,
                "tempo": 120.0
            },
            {
                "start_time": 42.2863636,
                "end_time": 42.4318182,
                "pitch": 79,
                "velocity": 40,
                "duration": 0.1454545,
                "tempo": 120.0
            },
            {
                "start_time": 42.4659091,
                "end_time": 42.6159091,
                "pitch": 81,
                "velocity": 40,
                "duration": 0.15,
                "tempo": 120.0
            },
            {
                "start_time": 42.6522727,
                "end_time": 42.9818182,
                "pitch": 82,
                "velocity": 40,
                "duration": 0.3295455,
                "tempo": 120.0
            },
            {
                "start_time": 42.9977273,
                "end_time": 43.1409091,
                "pitch": 81,
                "velocity": 40,
                "duration": 0.1431818,
                "tempo": 120.0
            },
            {
                "start_time": 43.175,
                "end_time": 43.325,
                "pitch": 79,
                "velocity": 40,
                "duration": 0.15,
                "tempo": 120.0
            },
            {
                "start_time": 43.3613636,
                "end_time": 43.5113636,
                "pitch": 81,
                "velocity": 40,
                "duration": 0.15,
                "tempo": 120.0
            },
            {
                "start_time": 43.5477273,
                "end_time": 44.9590909,
                "pitch": 84,
                "velocity": 40,
                "duration": 1.4113636,
                "tempo": 120.0
            },
            {
                "start_time": 44.9931818,
                "end_time": 46.4295455,
                "pitch": 81,
                "velocity": 40,
                "duration": 1.4363636,
                "tempo": 120.0
            },
            {
                "start_time": 46.45,
                "end_time": 46.5954545,
                "pitch": 74,
                "velocity": 40,
                "duration": 0.1454545,
                "tempo": 120.0
            },
            {
                "start_time": 46.6295455,
                "end_time": 46.7772727,
                "pitch": 77,
                "velocity": 40,
                "duration": 0.1477273,
                "tempo": 120.0
            },
            {
                "start_time": 46.8113636,
                "end_time": 46.9613636,
                "pitch": 79,
                "velocity": 40,
                "duration": 0.15,
                "tempo": 120.0
            },
            {
                "start_time": 46.9977273,
                "end_time": 47.3318182,
                "pitch": 81,
                "velocity": 40,
                "duration": 0.3340909,
                "tempo": 120.0
            },
            {
                "start_time": 47.3659091,
                "end_time": 47.5136364,
                "pitch": 79,
                "velocity": 40,
                "duration": 0.1477273,
                "tempo": 120.0
            },
            {
                "start_time": 47.5477273,
                "end_time": 47.6977273,
                "pitch": 77,
                "velocity": 40,
                "duration": 0.15,
                "tempo": 120.0
            },
            {
                "start_time": 47.7318182,
                "end_time": 47.8840909,
                "pitch": 74,
                "velocity": 40,
                "duration": 0.1522727,
                "tempo": 120.0
            },
            {
                "start_time": 47.9204545,
                "end_time": 48.0613636,
                "pitch": 74,
                "velocity": 25,
                "duration": 0.1409091,
                "tempo": 120.0
            },
            {
                "start_time": 48.0818182,
                "end_time": 48.2227273,
                "pitch": 77,
                "velocity": 25,
                "duration": 0.1409091,
                "tempo": 120.0
            },
            {
                "start_time": 48.2568182,
                "end_time": 48.4045455,
                "pitch": 79,
                "velocity": 25,
                "duration": 0.1477273,
                "tempo": 120.0
            },
            {
                "start_time": 48.4386364,
                "end_time": 48.7704545,
                "pitch": 81,
                "velocity": 25,
                "duration": 0.3318182,
                "tempo": 120.0
            },
            {
                "start_time": 48.8068182,
                "end_time": 48.9568182,
                "pitch": 79,
                "velocity": 25,
                "duration": 0.15,
                "tempo": 120.0
            },
            {
                "start_time": 48.9931818,
                "end_time": 49.1431818,
                "pitch": 77,
                "velocity": 25,
                "duration": 0.15,
                "tempo": 120.0
            },
            {
                "start_time": 49.1795455,
                "end_time": 49.3295455,
                "pitch": 74,
                "velocity": 25,
                "duration": 0.15,
                "tempo": 120.0
            },
            {
                "start_time": 49.3659091,
                "end_time": 49.5159091,
                "pitch": 75,
                "velocity": 40,
                "duration": 0.15,
                "tempo": 120.0
            },
            {
                "start_time": 49.55,
                "end_time": 49.7022727,
                "pitch": 77,
                "velocity": 40,
                "duration": 0.1522727,
                "tempo": 120.0
            },
            {
                "start_time": 49.7181818,
                "end_time": 49.8795455,
                "pitch": 79,
                "velocity": 40,
                "duration": 0.1613636,
                "tempo": 120.0
            },
            {
                "start_time": 49.8954545,
                "end_time": 50.2204545,
                "pitch": 81,
                "velocity": 40,
                "duration": 0.325,
                "tempo": 120.0
            },
            {
                "start_time": 50.2545455,
                "end_time": 50.4022727,
                "pitch": 79,
                "velocity": 40,
                "duration": 0.1477273,
                "tempo": 120.0
            },
            {
                "start_time": 50.4363636,
                "end_time": 50.5909091,
                "pitch": 77,
                "velocity": 40,
                "duration": 0.1545455,
                "tempo": 120.0
            },
            {
                "start_time": 50.6272727,
                "end_time": 50.7840909,
                "pitch": 75,
                "velocity": 40,
                "duration": 0.1568182,
                "tempo": 120.0
            },
            {
                "start_time": 50.8204545,
                "end_time": 50.9681818,
                "pitch": 75,
                "velocity": 25,
                "duration": 0.1477273,
                "tempo": 120.0
            },
            {
                "start_time": 51.0045455,
                "end_time": 51.15,
                "pitch": 77,
                "velocity": 25,
                "duration": 0.1454545,
                "tempo": 120.0
            },
            {
                "start_time": 51.1840909,
                "end_time": 51.3318182,
                "pitch": 79,
                "velocity": 25,
                "duration": 0.1477273,
                "tempo": 120.0
            },
            {
                "start_time": 51.35,
                "end_time": 51.675,
                "pitch": 81,
                "velocity": 25,
                "duration": 0.325,
                "tempo": 120.0
            },
            {
                "start_time": 51.7068182,
                "end_time": 51.85,
                "pitch": 79,
                "velocity": 25,
                "duration": 0.1431818,
                "tempo": 120.0
            },
            {
                "start_time": 51.8840909,
                "end_time": 52.0340909,
                "pitch": 77,
                "velocity": 25,
                "duration": 0.15,
                "tempo": 120.0
            },
            {
                "start_time": 52.0704545,
                "end_time": 52.2204545,
                "pitch": 75,
                "velocity": 25,
                "duration": 0.15,
                "tempo": 120.0
            },
            {
                "start_time": 52.2590909,
                "end_time": 52.4068182,
                "pitch": 75,
                "velocity": 40,
                "duration": 0.1477273,
                "tempo": 120.0
            },
            {
                "start_time": 52.4409091,
                "end_time": 52.5931818,
                "pitch": 77,
                "velocity": 40,
                "duration": 0.1522727,
                "tempo": 120.0
            },
            {
                "start_time": 52.6272727,
                "end_time": 52.7795455,
                "pitch": 79,
                "velocity": 40,
                "duration": 0.1522727,
                "tempo": 120.0
            },
            {
                "start_time": 52.8136364,
                "end_time": 53.1477273,
                "pitch": 81,
                "velocity": 40,
                "duration": 0.3340909,
                "tempo": 120.0
            },
            {
                "start_time": 53.1659091,
                "end_time": 53.3136364,
                "pitch": 79,
                "velocity": 40,
                "duration": 0.1477273,
                "tempo": 120.0
            },
            {
                "start_time": 53.3477273,
                "end_time": 53.4954545,
                "pitch": 77,
                "velocity": 40,
                "duration": 0.1477273,
                "tempo": 120.0
            },
            {
                "start_time": 53.5295455,
                "end_time": 53.6772727,
                "pitch": 75,
                "velocity": 40,
                "duration": 0.1477273,
                "tempo": 120.0
            },
            {
                "start_time": 53.7113636,
                "end_time": 53.8590909,
                "pitch": 75,
                "velocity": 40,
                "duration": 0.1477273,
                "tempo": 120.0
            },
            {
                "start_time": 53.8954545,
                "end_time": 54.0409091,
                "pitch": 79,
                "velocity": 40,
                "duration": 0.1454545,
                "tempo": 120.0
            },
            {
                "start_time": 54.075,
                "end_time": 54.2272727,
                "pitch": 81,
                "velocity": 40,
                "duration": 0.1522727,
                "tempo": 120.0
            },
            {
                "start_time": 54.2613636,
                "end_time": 54.5954545,
                "pitch": 82,
                "velocity": 40,
                "duration": 0.3340909,
                "tempo": 120.0
            },
            {
                "start_time": 54.6295455,
                "end_time": 54.7772727,
                "pitch": 81,
                "velocity": 40,
                "duration": 0.1477273,
                "tempo": 120.0
            },
            {
                "start_time": 54.7954545,
                "end_time": 54.9590909,
                "pitch": 79,
                "velocity": 40,
                "duration": 0.1636364,
                "tempo": 120.0
            },
            {
                "start_time": 54.9772727,
                "end_time": 55.1227273,
                "pitch": 81,
                "velocity": 40,
                "duration": 0.1454545,
                "tempo": 120.0
            },
            {
                "start_time": 55.1590909,
                "end_time": 56.5954545,
                "pitch": 84,
                "velocity": 40,
                "duration": 1.4363636,
                "tempo": 120.0
            },
            {
                "start_time": 56.6136364,
                "end_time": 57.3045455,
                "pitch": 81,
                "velocity": 40,
                "duration": 0.6909091,
                "tempo": 120.0
            },
            {
                "start_time": 57.525,
                "end_time": 57.6772727,
                "pitch": 81,
                "velocity": 40,
                "duration": 0.1522727,
                "tempo": 120.0
            },
            {
                "start_time": 57.7113636,
                "end_time": 57.8636364,
                "pitch": 79,
                "velocity": 40,
                "duration": 0.1522727,
                "tempo": 120.0
            },
            {
                "start_time": 57.8977273,
                "end_time": 58.05,
                "pitch": 78,
                "velocity": 40,
                "duration": 0.1522727,
                "tempo": 120.0
            },
            {
                "start_time": 58.0863636,
                "end_time": 59.4931818,
                "pitch": 74,
                "velocity": 40,
                "duration": 1.4068182,
                "tempo": 120.0
            }
        ],
        "Vibraphone": [
            {
                "start_time": 23.4045455,
                "end_time": 23.5568182,
                "pitch": 63,
                "velocity": 64,
                "duration": 0.1522727,
                "tempo": 120.0
            },
            {
                "start_time": 23.5909091,
                "end_time": 23.7431818,
                "pitch": 67,
                "velocity": 64,
                "duration": 0.1522727,
                "tempo": 120.0
            },
            {
                "start_time": 23.7772727,
                "end_time": 23.9295455,
                "pitch": 70,
                "velocity": 64,
                "duration": 0.1522727,
                "tempo": 120.0
            },
            {
                "start_time": 23.9636364,
                "end_time": 24.1159091,
                "pitch": 74,
                "velocity": 64,
                "duration": 0.1522727,
                "tempo": 120.0
            },
            {
                "start_time": 24.1340909,
                "end_time": 24.3022727,
                "pitch": 70,
                "velocity": 64,
                "duration": 0.1681818,
                "tempo": 120.0
            },
            {
                "start_time": 24.3204545,
                "end_time": 24.4636364,
                "pitch": 67,
                "velocity": 64,
                "duration": 0.1431818,
                "tempo": 120.0
            },
            {
                "start_time": 24.4954545,
                "end_time": 24.6409091,
                "pitch": 63,
                "velocity": 64,
                "duration": 0.1454545,
                "tempo": 120.0
            },
            {
                "start_time": 24.8590909,
                "end_time": 25.0090909,
                "pitch": 65,
                "velocity": 64,
                "duration": 0.15,
                "tempo": 120.0
            },
            {
                "start_time": 25.0431818,
                "end_time": 25.1931818,
                "pitch": 69,
                "velocity": 64,
                "duration": 0.15,
                "tempo": 120.0
            },
            {
                "start_time": 25.2272727,
                "end_time": 25.375,
                "pitch": 72,
                "velocity": 64,
                "duration": 0.1477273,
                "tempo": 120.0
            },
            {
                "start_time": 25.4090909,
                "end_time": 25.5590909,
                "pitch": 77,
                "velocity": 64,
                "duration": 0.15,
                "tempo": 120.0
            },
            {
                "start_time": 25.5931818,
                "end_time": 25.7454545,
                "pitch": 72,
                "velocity": 64,
                "duration": 0.1522727,
                "tempo": 120.0
            },
            {
                "start_time": 25.7636364,
                "end_time": 25.9227273,
                "pitch": 69,
                "velocity": 64,
                "duration": 0.1590909,
                "tempo": 120.0
            },
            {
                "start_time": 25.9409091,
                "end_time": 26.0840909,
                "pitch": 65,
                "velocity": 64,
                "duration": 0.1431818,
                "tempo": 120.0
            },
            {
                "start_time": 26.3022727,
                "end_time": 26.4545455,
                "pitch": 62,
                "velocity": 64,
                "duration": 0.1522727,
                "tempo": 120.0
            },
            {
                "start_time": 26.4886364,
                "end_time": 26.6363636,
                "pitch": 65,
                "velocity": 64,
                "duration": 0.1477273,
                "tempo": 120.0
            },
            {
                "start_time": 26.6704545,
                "end_time": 26.8181818,
                "pitch": 69,
                "velocity": 64,
                "duration": 0.1477273,
                "tempo": 120.0
            },
            {
                "start_time": 26.8522727,
                "end_time": 27.0045455,
                "pitch": 72,
                "velocity": 64,
                "duration": 0.1522727,
                "tempo": 120.0
            },
            {
                "start_time": 27.0386364,
                "end_time": 27.1909091,
                "pitch": 69,
                "velocity": 64,
                "duration": 0.1522727,
                "tempo": 120.0
            },
            {
                "start_time": 27.225,
                "end_time": 27.3772727,
                "pitch": 65,
                "velocity": 64,
                "duration": 0.1522727,
                "tempo": 120.0
            },
            {
                "start_time": 27.4113636,
                "end_time": 27.5636364,
                "pitch": 62,
                "velocity": 64,
                "duration": 0.1522727,
                "tempo": 120.0
            },
            {
                "start_time": 27.7568182,
                "end_time": 27.9,
                "pitch": 67,
                "velocity": 64,
                "duration": 0.1431818,
                "tempo": 120.0
            },
            {
                "start_time": 27.9340909,
                "end_time": 28.0840909,
                "pitch": 70,
                "velocity": 64,
                "duration": 0.15,
                "tempo": 120.0
            },
            {
                "start_time": 28.1181818,
                "end_time": 28.2704545,
                "pitch": 74,
                "velocity": 64,
                "duration": 0.1522727,
                "tempo": 120.0
            },
            {
                "start_time": 28.3045455,
                "end_time": 28.4545455,
                "pitch": 77,
                "velocity": 64,
                "duration": 0.15,
                "tempo": 120.0
            },
            {
                "start_time": 28.4863636,
                "end_time": 28.6340909,
                "pitch": 74,
                "velocity": 64,
                "duration": 0.1477273,
                "tempo": 120.0
            },
            {
                "start_time": 28.6681818,
                "end_time": 28.8204545,
                "pitch": 70,
                "velocity": 64,
                "duration": 0.1522727,
                "tempo": 120.0
            },
            {
                "start_time": 28.8545455,
                "end_time": 29.0068182,
                "pitch": 67,
                "velocity": 64,
                "duration": 0.1522727,
                "tempo": 120.0
            },
            {
                "start_time": 29.2090909,
                "end_time": 29.3795455,
                "pitch": 60,
                "velocity": 64,
                "duration": 0.1704545,
                "tempo": 120.0
            },
            {
                "start_time": 29.3954545,
                "end_time": 29.5409091,
                "pitch": 63,
                "velocity": 64,
                "duration": 0.1454545,
                "tempo": 120.0
            },
            {
                "start_time": 29.5727273,
                "end_time": 29.7181818,
                "pitch": 67,
                "velocity": 64,
                "duration": 0.1454545,
                "tempo": 120.0
            },
            {
                "start_time": 29.75,
                "end_time": 29.8977273,
                "pitch": 70,
                "velocity": 64,
                "duration": 0.1477273,
                "tempo": 120.0
            },
            {
                "start_time": 29.9318182,
                "end_time": 30.0795455,
                "pitch": 67,
                "velocity": 64,
                "duration": 0.1477273,
                "tempo": 120.0
            },
            {
                "start_time": 30.1136364,
                "end_time": 30.2659091,
                "pitch": 63,
                "velocity": 64,
                "duration": 0.1522727,
                "tempo": 120.0
            },
            {
                "start_time": 30.3,
                "end_time": 30.4522727,
                "pitch": 67,
                "velocity": 64,
                "duration": 0.1522727,
                "tempo": 120.0
            },
            {
                "start_time": 30.6727273,
                "end_time": 30.8227273,
                "pitch": 65,
                "velocity": 64,
                "duration": 0.15,
                "tempo": 120.0
            },
            {
                "start_time": 30.8568182,
                "end_time": 31.0068182,
                "pitch": 69,
                "velocity": 64,
                "duration": 0.15,
                "tempo": 120.0
            },
            {
                "start_time": 31.0227273,
                "end_time": 31.1727273,
                "pitch": 72,
                "velocity": 64,
                "duration": 0.15,
                "tempo": 120.0
            },
            {
                "start_time": 31.2045455,
                "end_time": 31.3522727,
                "pitch": 77,
                "velocity": 64,
                "duration": 0.1477273,
                "tempo": 120.0
            },
            {
                "start_time": 31.3863636,
                "end_time": 31.5340909,
                "pitch": 72,
                "velocity": 64,
                "duration": 0.1477273,
                "tempo": 120.0
            },
            {
                "start_time": 31.5681818,
                "end_time": 31.7159091,
                "pitch": 69,
                "velocity": 64,
                "duration": 0.1477273,
                "tempo": 120.0
            },
            {
                "start_time": 31.75,
                "end_time": 31.8977273,
                "pitch": 65,
                "velocity": 64,
                "duration": 0.1477273,
                "tempo": 120.0
            },
            {
                "start_time": 32.1181818,
                "end_time": 32.2704545,
                "pitch": 70,
                "velocity": 64,
                "duration": 0.1522727,
                "tempo": 120.0
            },
            {
                "start_time": 32.3045455,
                "end_time": 32.4568182,
                "pitch": 74,
                "velocity": 64,
                "duration": 0.1522727,
                "tempo": 120.0
            },
            {
                "start_time": 32.4909091,
                "end_time": 32.6431818,
                "pitch": 77,
                "velocity": 64,
                "duration": 0.1522727,
                "tempo": 120.0
            },
            {
                "start_time": 32.6590909,
                "end_time": 32.8204545,
                "pitch": 82,
                "velocity": 64,
                "duration": 0.1613636,
                "tempo": 120.0
            },
            {
                "start_time": 32.8363636,
                "end_time": 32.9818182,
                "pitch": 77,
                "velocity": 64,
                "duration": 0.1454545,
                "tempo": 120.0
            },
            {
                "start_time": 33.0136364,
                "end_time": 33.1636364,
                "pitch": 74,
                "velocity": 64,
                "duration": 0.15,
                "tempo": 120.0
            },
            {
                "start_time": 33.1977273,
                "end_time": 33.35,
                "pitch": 70,
                "velocity": 64,
                "duration": 0.1522727,
                "tempo": 120.0
            },
            {
                "start_time": 33.5659091,
                "end_time": 33.7159091,
                "pitch": 69,
                "velocity": 64,
                "duration": 0.15,
                "tempo": 120.0
            },
            {
                "start_time": 33.7477273,
                "end_time": 33.9,
                "pitch": 74,
                "velocity": 64,
                "duration": 0.1522727,
                "tempo": 120.0
            },
            {
                "start_time": 33.9340909,
                "end_time": 34.0863636,
                "pitch": 78,
                "velocity": 64,
                "duration": 0.1522727,
                "tempo": 120.0
            },
            {
                "start_time": 34.1204545,
                "end_time": 34.2681818,
                "pitch": 81,
                "velocity": 64,
                "duration": 0.1477273,
                "tempo": 120.0
            },
            {
                "start_time": 34.2863636,
                "end_time": 34.45,
                "pitch": 78,
                "velocity": 64,
                "duration": 0.1636364,
                "tempo": 120.0
            },
            {
                "start_time": 34.4681818,
                "end_time": 34.6159091,
                "pitch": 74,
                "velocity": 64,
                "duration": 0.1477273,
                "tempo": 120.0
            },
            {
                "start_time": 34.65,
                "end_time": 34.7977273,
                "pitch": 81,
                "velocity": 64,
                "duration": 0.1477273,
                "tempo": 120.0
            },
            {
                "start_time": 34.8318182,
                "end_time": 34.8977273,
                "pitch": 67,
                "velocity": 64,
                "duration": 0.0659091,
                "tempo": 120.0
            },
            {
                "start_time": 34.9318182,
                "end_time": 34.9840909,
                "pitch": 70,
                "velocity": 64,
                "duration": 0.0522727,
                "tempo": 120.0
            },
            {
                "start_time": 35.0181818,
                "end_time": 35.0840909,
                "pitch": 74,
                "velocity": 64,
                "duration": 0.0659091,
                "tempo": 120.0
            },
            {
                "start_time": 35.1181818,
                "end_time": 35.1704545,
                "pitch": 79,
                "velocity": 64,
                "duration": 0.0522727,
                "tempo": 120.0
            },
            {
                "start_time": 35.2045455,
                "end_time": 35.2704545,
                "pitch": 67,
                "velocity": 51,
                "duration": 0.0659091,
                "tempo": 120.0
            },
            {
                "start_time": 35.2886364,
                "end_time": 35.3568182,
                "pitch": 70,
                "velocity": 51,
                "duration": 0.0681818,
                "tempo": 120.0
            },
            {
                "start_time": 35.3909091,
                "end_time": 35.4409091,
                "pitch": 74,
                "velocity": 51,
                "duration": 0.05,
                "tempo": 120.0
            },
            {
                "start_time": 35.475,
                "end_time": 35.5409091,
                "pitch": 79,
                "velocity": 51,
                "duration": 0.0659091,
                "tempo": 120.0
            },
            {
                "start_time": 35.575,
                "end_time": 35.6227273,
                "pitch": 67,
                "velocity": 40,
                "duration": 0.0477273,
                "tempo": 120.0
            },
            {
                "start_time": 35.6568182,
                "end_time": 35.7204545,
                "pitch": 70,
                "velocity": 40,
                "duration": 0.0636364,
                "tempo": 120.0
            },
            {
                "start_time": 35.7522727,
                "end_time": 35.8,
                "pitch": 74,
                "velocity": 40,
                "duration": 0.0477273,
                "tempo": 120.0
            },
            {
                "start_time": 35.8318182,
                "end_time": 35.8954545,
                "pitch": 79,
                "velocity": 40,
                "duration": 0.0636364,
                "tempo": 120.0
            },
            {
                "start_time": 35.9295455,
                "end_time": 35.9795455,
                "pitch": 67,
                "velocity": 32,
                "duration": 0.05,
                "tempo": 120.0
            },
            {
                "start_time": 36.0159091,
                "end_time": 36.0840909,
                "pitch": 70,
                "velocity": 32,
                "duration": 0.0681818,
                "tempo": 120.0
            },
            {
                "start_time": 36.1022727,
                "end_time": 36.1727273,
                "pitch": 74,
                "velocity": 32,
                "duration": 0.0704545,
                "tempo": 120.0
            },
            {
                "start_time": 36.2068182,
                "end_time": 36.2590909,
                "pitch": 79,
                "velocity": 32,
                "duration": 0.0522727,
                "tempo": 120.0
            },
            {
                "start_time": 36.2954545,
                "end_time": 36.3590909,
                "pitch": 67,
                "velocity": 64,
                "duration": 0.0636364,
                "tempo": 120.0
            },
            {
                "start_time": 36.3909091,
                "end_time": 36.4386364,
                "pitch": 70,
                "velocity": 64,
                "duration": 0.0477273,
                "tempo": 120.0
            },
            {
                "start_time": 36.4727273,
                "end_time": 36.5363636,
                "pitch": 74,
                "velocity": 64,
                "duration": 0.0636364,
                "tempo": 120.0
            },
            {
                "start_time": 36.5681818,
                "end_time": 36.6159091,
                "pitch": 79,
                "velocity": 64,
                "duration": 0.0477273,
                "tempo": 120.0
            },
            {
                "start_time": 36.6477273,
                "end_time": 36.7136364,
                "pitch": 67,
                "velocity": 51,
                "duration": 0.0659091,
                "tempo": 120.0
            },
            {
                "start_time": 36.7477273,
                "end_time": 36.7977273,
                "pitch": 70,
                "velocity": 51,
                "duration": 0.05,
                "tempo": 120.0
            },
            {
                "start_time": 36.8295455,
                "end_time": 36.8954545,
                "pitch": 74,
                "velocity": 51,
                "duration": 0.0659091,
                "tempo": 120.0
            },
            {
                "start_time": 36.9113636,
                "end_time": 36.9772727,
                "pitch": 79,
                "velocity": 51,
                "duration": 0.0659091,
                "tempo": 120.0
            },
            {
                "start_time": 37.0113636,
                "end_time": 37.0795455,
                "pitch": 67,
                "velocity": 40,
                "duration": 0.0681818,
                "tempo": 120.0
            },
            {
                "start_time": 37.0954545,
                "end_time": 37.1636364,
                "pitch": 70,
                "velocity": 40,
                "duration": 0.0681818,
                "tempo": 120.0
            },
            {
                "start_time": 37.1977273,
                "end_time": 37.2477273,
                "pitch": 74,
                "velocity": 40,
                "duration": 0.05,
                "tempo": 120.0
            },
            {
                "start_time": 37.2818182,
                "end_time": 37.35,
                "pitch": 79,
                "velocity": 40,
                "duration": 0.0681818,
                "tempo": 120.0
            },
            {
                "start_time": 37.3840909,
                "end_time": 37.4340909,
                "pitch": 67,
                "velocity": 32,
                "duration": 0.05,
                "tempo": 120.0
            },
            {
                "start_time": 37.4681818,
                "end_time": 37.5363636,
                "pitch": 70,
                "velocity": 32,
                "duration": 0.0681818,
                "tempo": 120.0
            },
            {
                "start_time": 37.5704545,
                "end_time": 37.6204545,
                "pitch": 74,
                "velocity": 32,
                "duration": 0.05,
                "tempo": 120.0
            },
            {
                "start_time": 37.6545455,
                "end_time": 37.7227273,
                "pitch": 79,
                "velocity": 32,
                "duration": 0.0681818,
                "tempo": 120.0
            },
            {
                "start_time": 37.7409091,
                "end_time": 37.8045455,
                "pitch": 67,
                "velocity": 64,
                "duration": 0.0636364,
                "tempo": 120.0
            },
            {
                "start_time": 37.8363636,
                "end_time": 37.9,
                "pitch": 70,
                "velocity": 64,
                "duration": 0.0636364,
                "tempo": 120.0
            },
            {
                "start_time": 37.9159091,
                "end_time": 37.9795455,
                "pitch": 75,
                "velocity": 64,
                "duration": 0.0636364,
                "tempo": 120.0
            },
            {
                "start_time": 38.0113636,
                "end_time": 38.0613636,
                "pitch": 79,
                "velocity": 64,
                "duration": 0.05,
                "tempo": 120.0
            },
            {
                "start_time": 38.0931818,
                "end_time": 38.1590909,
                "pitch": 67,
                "velocity": 51,
                "duration": 0.0659091,
                "tempo": 120.0
            },
            {
                "start_time": 38.1931818,
                "end_time": 38.2454545,
                "pitch": 70,
                "velocity": 51,
                "duration": 0.0522727,
                "tempo": 120.0
            },
            {
                "start_time": 38.2795455,
                "end_time": 38.3454545,
                "pitch": 75,
                "velocity": 51,
                "duration": 0.0659091,
                "tempo": 120.0
            },
            {
                "start_time": 38.3795455,
                "end_time": 38.4295455,
                "pitch": 79,
                "velocity": 51,
                "duration": 0.05,
                "tempo": 120.0
            },
            {
                "start_time": 38.4659091,
                "end_time": 38.5295455,
                "pitch": 67,
                "velocity": 40,
                "duration": 0.0636364,
                "tempo": 120.0
            },
            {
                "start_time": 38.5477273,
                "end_time": 38.6136364,
                "pitch": 70,
                "velocity": 40,
                "duration": 0.0659091,
                "tempo": 120.0
            },
            {
                "start_time": 38.6477273,
                "end_time": 38.7113636,
                "pitch": 75,
                "velocity": 40,
                "duration": 0.0636364,
                "tempo": 120.0
            },
            {
                "start_time": 38.7295455,
                "end_time": 38.7954545,
                "pitch": 79,
                "velocity": 40,
                "duration": 0.0659091,
                "tempo": 120.0
            },
            {
                "start_time": 38.8295455,
                "end_time": 38.8795455,
                "pitch": 67,
                "velocity": 32,
                "duration": 0.05,
                "tempo": 120.0
            },
            {
                "start_time": 38.9136364,
                "end_time": 38.9795455,
                "pitch": 70,
                "velocity": 32,
                "duration": 0.0659091,
                "tempo": 120.0
            },
            {
                "start_time": 39.0159091,
                "end_time": 39.0659091,
                "pitch": 75,
                "velocity": 32,
                "duration": 0.05,
                "tempo": 120.0
            },
            {
                "start_time": 39.1,
                "end_time": 39.1659091,
                "pitch": 79,
                "velocity": 32,
                "duration": 0.0659091,
                "tempo": 120.0
            },
            {
                "start_time": 39.2022727,
                "end_time": 39.25,
                "pitch": 67,
                "velocity": 64,
                "duration": 0.0477273,
                "tempo": 120.0
            },
            {
                "start_time": 39.2840909,
                "end_time": 39.3522727,
                "pitch": 70,
                "velocity": 64,
                "duration": 0.0681818,
                "tempo": 120.0
            },
            {
                "start_time": 39.3863636,
                "end_time": 39.4363636,
                "pitch": 75,
                "velocity": 64,
                "duration": 0.05,
                "tempo": 120.0
            },
            {
                "start_time": 39.4704545,
                "end_time": 39.5386364,
                "pitch": 79,
                "velocity": 64,
                "duration": 0.0681818,
                "tempo": 120.0
            },
            {
                "start_time": 39.5568182,
                "end_time": 39.6204545,
                "pitch": 67,
                "velocity": 51,
                "duration": 0.0636364,
                "tempo": 120.0
            },
            {
                "start_time": 39.6522727,
                "end_time": 39.7,
                "pitch": 70,
                "velocity": 51,
                "duration": 0.0477273,
                "tempo": 120.0
            },
            {
                "start_time": 39.7340909,
                "end_time": 39.7977273,
                "pitch": 75,
                "velocity": 51,
                "duration": 0.0636364,
                "tempo": 120.0
            },
            {
                "start_time": 39.8295455,
                "end_time": 39.8772727,
                "pitch": 79,
                "velocity": 51,
                "duration": 0.0477273,
                "tempo": 120.0
            },
            {
                "start_time": 39.9090909,
                "end_time": 39.975,
                "pitch": 67,
                "velocity": 40,
                "duration": 0.0659091,
                "tempo": 120.0
            },
            {
                "start_time": 40.0090909,
                "end_time": 40.0590909,
                "pitch": 70,
                "velocity": 40,
                "duration": 0.05,
                "tempo": 120.0
            },
            {
                "start_time": 40.0909091,
                "end_time": 40.1568182,
                "pitch": 75,
                "velocity": 40,
                "duration": 0.0659091,
                "tempo": 120.0
            },
            {
                "start_time": 40.1909091,
                "end_time": 40.2386364,
                "pitch": 79,
                "velocity": 40,
                "duration": 0.0477273,
                "tempo": 120.0
            },
            {
                "start_time": 40.2727273,
                "end_time": 40.3409091,
                "pitch": 67,
                "velocity": 32,
                "duration": 0.0681818,
                "tempo": 120.0
            },
            {
                "start_time": 40.3568182,
                "end_time": 40.425,
                "pitch": 70,
                "velocity": 32,
                "duration": 0.0681818,
                "tempo": 120.0
            },
            {
                "start_time": 40.4590909,
                "end_time": 40.5090909,
                "pitch": 75,
                "velocity": 32,
                "duration": 0.05,
                "tempo": 120.0
            },
            {
                "start_time": 40.5431818,
                "end_time": 40.6113636,
                "pitch": 79,
                "velocity": 32,
                "duration": 0.0681818,
                "tempo": 120.0
            },
            {
                "start_time": 40.6454545,
                "end_time": 40.6954545,
                "pitch": 67,
                "velocity": 64,
                "duration": 0.05,
                "tempo": 120.0
            },
            {
                "start_time": 40.7295455,
                "end_time": 40.7977273,
                "pitch": 72,
                "velocity": 64,
                "duration": 0.0681818,
                "tempo": 120.0
            },
            {
                "start_time": 40.8318182,
                "end_time": 40.8818182,
                "pitch": 75,
                "velocity": 64,
                "duration": 0.05,
                "tempo": 120.0
            },
            {
                "start_time": 40.9159091,
                "end_time": 40.9840909,
                "pitch": 79,
                "velocity": 64,
                "duration": 0.0681818,
                "tempo": 120.0
            },
            {
                "start_time": 41.0181818,
                "end_time": 41.0659091,
                "pitch": 67,
                "velocity": 51,
                "duration": 0.0477273,
                "tempo": 120.0
            },
            {
                "start_time": 41.1,
                "end_time": 41.1659091,
                "pitch": 72,
                "velocity": 51,
                "duration": 0.0659091,
                "tempo": 120.0
            },
            {
                "start_time": 41.1840909,
                "end_time": 41.2477273,
                "pitch": 75,
                "velocity": 51,
                "duration": 0.0636364,
                "tempo": 120.0
            },
            {
                "start_time": 41.2818182,
                "end_time": 41.3477273,
                "pitch": 79,
                "velocity": 51,
                "duration": 0.0659091,
                "tempo": 120.0
            },
            {
                "start_time": 41.3659091,
                "end_time": 41.4295455,
                "pitch": 67,
                "velocity": 40,
                "duration": 0.0636364,
                "tempo": 120.0
            },
            {
                "start_time": 41.4636364,
                "end_time": 41.5136364,
                "pitch": 72,
                "velocity": 40,
                "duration": 0.05,
                "tempo": 120.0
            },
            {
                "start_time": 41.5477273,
                "end_time": 41.6113636,
                "pitch": 75,
                "velocity": 40,
                "duration": 0.0636364,
                "tempo": 120.0
            },
            {
                "start_time": 41.6454545,
                "end_time": 41.6954545,
                "pitch": 79,
                "velocity": 40,
                "duration": 0.05,
                "tempo": 120.0
            },
            {
                "start_time": 41.7295455,
                "end_time": 41.7954545,
                "pitch": 67,
                "velocity": 32,
                "duration": 0.0659091,
                "tempo": 120.0
            },
            {
                "start_time": 41.8295455,
                "end_time": 41.8795455,
                "pitch": 72,
                "velocity": 32,
                "duration": 0.05,
                "tempo": 120.0
            },
            {
                "start_time": 41.9136364,
                "end_time": 41.9818182,
                "pitch": 75,
                "velocity": 32,
                "duration": 0.0681818,
                "tempo": 120.0
            },
            {
                "start_time": 41.9977273,
                "end_time": 42.0659091,
                "pitch": 79,
                "velocity": 32,
                "duration": 0.0681818,
                "tempo": 120.0
            },
            {
                "start_time": 42.1,
                "end_time": 42.1659091,
                "pitch": 67,
                "velocity": 64,
                "duration": 0.0659091,
                "tempo": 120.0
            },
            {
                "start_time": 42.1840909,
                "end_time": 42.25,
                "pitch": 72,
                "velocity": 64,
                "duration": 0.0659091,
                "tempo": 120.0
            },
            {
                "start_time": 42.2818182,
                "end_time": 42.3318182,
                "pitch": 75,
                "velocity": 64,
                "duration": 0.05,
                "tempo": 120.0
            },
            {
                "start_time": 42.3636364,
                "end_time": 42.4318182,
                "pitch": 79,
                "velocity": 64,
                "duration": 0.0681818,
                "tempo": 120.0
            },
            {
                "start_time": 42.4636364,
                "end_time": 42.5136364,
                "pitch": 67,
                "velocity": 51,
                "duration": 0.05,
                "tempo": 120.0
            },
            {
                "start_time": 42.5477273,
                "end_time": 42.6159091,
                "pitch": 72,
                "velocity": 51,
                "duration": 0.0681818,
                "tempo": 120.0
            },
            {
                "start_time": 42.65,
                "end_time": 42.7,
                "pitch": 75,
                "velocity": 51,
                "duration": 0.05,
                "tempo": 120.0
            },
            {
                "start_time": 42.7340909,
                "end_time": 42.8022727,
                "pitch": 79,
                "velocity": 51,
                "duration": 0.0681818,
                "tempo": 120.0
            },
            {
                "start_time": 42.8204545,
                "end_time": 42.8840909,
                "pitch": 67,
                "velocity": 40,
                "duration": 0.0636364,
                "tempo": 120.0
            },
            {
                "start_time": 42.9159091,
                "end_time": 42.9795455,
                "pitch": 72,
                "velocity": 40,
                "duration": 0.0636364,
                "tempo": 120.0
            },
            {
                "start_time": 42.9954545,
                "end_time": 43.0590909,
                "pitch": 75,
                "velocity": 40,
                "duration": 0.0636364,
                "tempo": 120.0
            },
            {
                "start_time": 43.0931818,
                "end_time": 43.1409091,
                "pitch": 79,
                "velocity": 40,
                "duration": 0.0477273,
                "tempo": 120.0
            },
            {
                "start_time": 43.1727273,
                "end_time": 43.2386364,
                "pitch": 67,
                "velocity": 32,
                "duration": 0.0659091,
                "tempo": 120.0
            },
            {
                "start_time": 43.2727273,
                "end_time": 43.325,
                "pitch": 72,
                "velocity": 32,
                "duration": 0.0522727,
                "tempo": 120.0
            },
            {
                "start_time": 43.3590909,
                "end_time": 43.425,
                "pitch": 75,
                "velocity": 32,
                "duration": 0.0659091,
                "tempo": 120.0
            },
            {
                "start_time": 43.4590909,
                "end_time": 43.5113636,
                "pitch": 79,
                "velocity": 32,
                "duration": 0.0522727,
                "tempo": 120.0
            },
            {
                "start_time": 43.5454545,
                "end_time": 43.6113636,
                "pitch": 67,
                "velocity": 64,
                "duration": 0.0659091,
                "tempo": 120.0
            },
            {
                "start_time": 43.6454545,
                "end_time": 43.6954545,
                "pitch": 72,
                "velocity": 64,
                "duration": 0.05,
                "tempo": 120.0
            },
            {
                "start_time": 43.7295455,
                "end_time": 43.7977273,
                "pitch": 75,
                "velocity": 64,
                "duration": 0.0681818,
                "tempo": 120.0
            },
            {
                "start_time": 43.8159091,
                "end_time": 43.8818182,
                "pitch": 79,
                "velocity": 64,
                "duration": 0.0659091,
                "tempo": 120.0
            },
            {
                "start_time": 43.9159091,
                "end_time": 43.9659091,
                "pitch": 67,
                "velocity": 51,
                "duration": 0.05,
                "tempo": 120.0
            },
            {
                "start_time": 44.0,
                "end_time": 44.0659091,
                "pitch": 72,
                "velocity": 51,
                "duration": 0.0659091,
                "tempo": 120.0
            },
            {
                "start_time": 44.0977273,
                "end_time": 44.1477273,
                "pitch": 75,
                "velocity": 51,
                "duration": 0.05,
                "tempo": 120.0
            },
            {
                "start_time": 44.1818182,
                "end_time": 44.2477273,
                "pitch": 79,
                "velocity": 51,
                "duration": 0.0659091,
                "tempo": 120.0
            },
            {
                "start_time": 44.2795455,
                "end_time": 44.3295455,
                "pitch": 67,
                "velocity": 40,
                "duration": 0.05,
                "tempo": 120.0
            },
            {
                "start_time": 44.3636364,
                "end_time": 44.4295455,
                "pitch": 72,
                "velocity": 40,
                "duration": 0.0659091,
                "tempo": 120.0
            },
            {
                "start_time": 44.4613636,
                "end_time": 44.5113636,
                "pitch": 75,
                "velocity": 40,
                "duration": 0.05,
                "tempo": 120.0
            },
            {
                "start_time": 44.5454545,
                "end_time": 44.6113636,
                "pitch": 79,
                "velocity": 40,
                "duration": 0.0659091,
                "tempo": 120.0
            },
            {
                "start_time": 44.6272727,
                "end_time": 44.6931818,
                "pitch": 67,
                "velocity": 32,
                "duration": 0.0659091,
                "tempo": 120.0
            },
            {
                "start_time": 44.7272727,
                "end_time": 44.775,
                "pitch": 72,
                "velocity": 32,
                "duration": 0.0477273,
                "tempo": 120.0
            },
            {
                "start_time": 44.8090909,
                "end_time": 44.875,
                "pitch": 75,
                "velocity": 32,
                "duration": 0.0659091,
                "tempo": 120.0
            },
            {
                "start_time": 44.9090909,
                "end_time": 44.9568182,
                "pitch": 79,
                "velocity": 32,
                "duration": 0.0477273,
                "tempo": 120.0
            },
            {
                "start_time": 44.9909091,
                "end_time": 45.0568182,
                "pitch": 72,
                "velocity": 64,
                "duration": 0.0659091,
                "tempo": 120.0
            },
            {
                "start_time": 45.0909091,
                "end_time": 45.1386364,
                "pitch": 74,
                "velocity": 64,
                "duration": 0.0477273,
                "tempo": 120.0
            },
            {
                "start_time": 45.1727273,
                "end_time": 45.2386364,
                "pitch": 78,
                "velocity": 64,
                "duration": 0.0659091,
                "tempo": 120.0
            },
            {
                "start_time": 45.2727273,
                "end_time": 45.3204545,
                "pitch": 81,
                "velocity": 64,
                "duration": 0.0477273,
                "tempo": 120.0
            },
            {
                "start_time": 45.3545455,
                "end_time": 45.4227273,
                "pitch": 72,
                "velocity": 51,
                "duration": 0.0681818,
                "tempo": 120.0
            },
            {
                "start_time": 45.4386364,
                "end_time": 45.5068182,
                "pitch": 74,
                "velocity": 51,
                "duration": 0.0681818,
                "tempo": 120.0
            },
            {
                "start_time": 45.5409091,
                "end_time": 45.6090909,
                "pitch": 78,
                "velocity": 51,
                "duration": 0.0681818,
                "tempo": 120.0
            },
            {
                "start_time": 45.625,
                "end_time": 45.6931818,
                "pitch": 81,
                "velocity": 51,
                "duration": 0.0681818,
                "tempo": 120.0
            },
            {
                "start_time": 45.7272727,
                "end_time": 45.7772727,
                "pitch": 72,
                "velocity": 40,
                "duration": 0.05,
                "tempo": 120.0
            },
            {
                "start_time": 45.8113636,
                "end_time": 45.8795455,
                "pitch": 74,
                "velocity": 40,
                "duration": 0.0681818,
                "tempo": 120.0
            },
            {
                "start_time": 45.9136364,
                "end_time": 45.9636364,
                "pitch": 78,
                "velocity": 40,
                "duration": 0.05,
                "tempo": 120.0
            },
            {
                "start_time": 45.9977273,
                "end_time": 46.0659091,
                "pitch": 81,
                "velocity": 40,
                "duration": 0.0681818,
                "tempo": 120.0
            },
            {
                "start_time": 46.1,
                "end_time": 46.1477273,
                "pitch": 72,
                "velocity": 32,
                "duration": 0.0477273,
                "tempo": 120.0
            },
            {
                "start_time": 46.1818182,
                "end_time": 46.2477273,
                "pitch": 74,
                "velocity": 32,
                "duration": 0.0659091,
                "tempo": 120.0
            },
            {
                "start_time": 46.2636364,
                "end_time": 46.3295455,
                "pitch": 78,
                "velocity": 32,
                "duration": 0.0659091,
                "tempo": 120.0
            },
            {
                "start_time": 46.3636364,
                "end_time": 46.4295455,
                "pitch": 81,
                "velocity": 32,
                "duration": 0.0659091,
                "tempo": 120.0
            },
            {
                "start_time": 46.4477273,
                "end_time": 46.5113636,
                "pitch": 67,
                "velocity": 64,
                "duration": 0.0636364,
                "tempo": 120.0
            },
            {
                "start_time": 46.5454545,
                "end_time": 46.5954545,
                "pitch": 70,
                "velocity": 64,
                "duration": 0.05,
                "tempo": 120.0
            },
            {
                "start_time": 46.6272727,
                "end_time": 46.6931818,
                "pitch": 74,
                "velocity": 64,
                "duration": 0.0659091,
                "tempo": 120.0
            },
            {
                "start_time": 46.7272727,
                "end_time": 46.7772727,
                "pitch": 79,
                "velocity": 64,
                "duration": 0.05,
                "tempo": 120.0
            },
            {
                "start_time": 46.8113636,
                "end_time": 46.8772727,
                "pitch": 67,
                "velocity": 51,
                "duration": 0.0659091,
                "tempo": 120.0
            },
            {
                "start_time": 46.9113636,
                "end_time": 46.9613636,
                "pitch": 70,
                "velocity": 51,
                "duration": 0.05,
                "tempo": 120.0
            },
            {
                "start_time": 46.9954545,
                "end_time": 47.0636364,
                "pitch": 74,
                "velocity": 51,
                "duration": 0.0681818,
                "tempo": 120.0
            },
            {
                "start_time": 47.0795455,
                "end_time": 47.1477273,
                "pitch": 79,
                "velocity": 51,
                "duration": 0.0681818,
                "tempo": 120.0
            },
            {
                "start_time": 47.1818182,
                "end_time": 47.2477273,
                "pitch": 67,
                "velocity": 40,
                "duration": 0.0659091,
                "tempo": 120.0
            },
            {
                "start_time": 47.2636364,
                "end_time": 47.3295455,
                "pitch": 70,
                "velocity": 40,
                "duration": 0.0659091,
                "tempo": 120.0
            },
            {
                "start_time": 47.3636364,
                "end_time": 47.4136364,
                "pitch": 74,
                "velocity": 40,
                "duration": 0.05,
                "tempo": 120.0
            },
            {
                "start_time": 47.4454545,
                "end_time": 47.5113636,
                "pitch": 79,
                "velocity": 40,
                "duration": 0.0659091,
                "tempo": 120.0
            },
            {
                "start_time": 47.5454545,
                "end_time": 47.5954545,
                "pitch": 67,
                "velocity": 32,
                "duration": 0.05,
                "tempo": 120.0
            },
            {
                "start_time": 47.6295455,
                "end_time": 47.6977273,
                "pitch": 70,
                "velocity": 32,
                "duration": 0.0681818,
                "tempo": 120.0
            },
            {
                "start_time": 47.7318182,
                "end_time": 47.7818182,
                "pitch": 74,
                "velocity": 32,
                "duration": 0.05,
                "tempo": 120.0
            },
            {
                "start_time": 47.8159091,
                "end_time": 47.8840909,
                "pitch": 79,
                "velocity": 32,
                "duration": 0.0681818,
                "tempo": 120.0
            },
            {
                "start_time": 47.9181818,
                "end_time": 47.9659091,
                "pitch": 67,
                "velocity": 64,
                "duration": 0.0477273,
                "tempo": 120.0
            },
            {
                "start_time": 47.9977273,
                "end_time": 48.0613636,
                "pitch": 70,
                "velocity": 64,
                "duration": 0.0636364,
                "tempo": 120.0
            },
            {
                "start_time": 48.0772727,
                "end_time": 48.1409091,
                "pitch": 74,
                "velocity": 64,
                "duration": 0.0636364,
                "tempo": 120.0
            },
            {
                "start_time": 48.1727273,
                "end_time": 48.2227273,
                "pitch": 79,
                "velocity": 64,
                "duration": 0.05,
                "tempo": 120.0
            },
            {
                "start_time": 48.2545455,
                "end_time": 48.3204545,
                "pitch": 67,
                "velocity": 51,
                "duration": 0.0659091,
                "tempo": 120.0
            },
            {
                "start_time": 48.3522727,
                "end_time": 48.4022727,
                "pitch": 70,
                "velocity": 51,
                "duration": 0.05,
                "tempo": 120.0
            },
            {
                "start_time": 48.4363636,
                "end_time": 48.5022727,
                "pitch": 74,
                "velocity": 51,
                "duration": 0.0659091,
                "tempo": 120.0
            },
            {
                "start_time": 48.5340909,
                "end_time": 48.5840909,
                "pitch": 79,
                "velocity": 51,
                "duration": 0.05,
                "tempo": 120.0
            },
            {
                "start_time": 48.6181818,
                "end_time": 48.6840909,
                "pitch": 67,
                "velocity": 40,
                "duration": 0.0659091,
                "tempo": 120.0
            },
            {
                "start_time": 48.7181818,
                "end_time": 48.7704545,
                "pitch": 70,
                "velocity": 40,
                "duration": 0.0522727,
                "tempo": 120.0
            },
            {
                "start_time": 48.8045455,
                "end_time": 48.8704545,
                "pitch": 74,
                "velocity": 40,
                "duration": 0.0659091,
                "tempo": 120.0
            },
            {
                "start_time": 48.8886364,
                "end_time": 48.9568182,
                "pitch": 79,
                "velocity": 40,
                "duration": 0.0681818,
                "tempo": 120.0
            },
            {
                "start_time": 48.9909091,
                "end_time": 49.0409091,
                "pitch": 67,
                "velocity": 32,
                "duration": 0.05,
                "tempo": 120.0
            },
            {
                "start_time": 49.075,
                "end_time": 49.1431818,
                "pitch": 70,
                "velocity": 32,
                "duration": 0.0681818,
                "tempo": 120.0
            },
            {
                "start_time": 49.1772727,
                "end_time": 49.2272727,
                "pitch": 74,
                "velocity": 32,
                "duration": 0.05,
                "tempo": 120.0
            },
            {
                "start_time": 49.2613636,
                "end_time": 49.3295455,
                "pitch": 79,
                "velocity": 32,
                "duration": 0.0681818,
                "tempo": 120.0
            },
            {
                "start_time": 49.3636364,
                "end_time": 49.4136364,
                "pitch": 67,
                "velocity": 64,
                "duration": 0.05,
                "tempo": 120.0
            },
            {
                "start_time": 49.4477273,
                "end_time": 49.5136364,
                "pitch": 70,
                "velocity": 64,
                "duration": 0.0659091,
                "tempo": 120.0
            },
            {
                "start_time": 49.55,
                "end_time": 49.6,
                "pitch": 75,
                "velocity": 64,
                "duration": 0.05,
                "tempo": 120.0
            },
            {
                "start_time": 49.6340909,
                "end_time": 49.7,
                "pitch": 79,
                "velocity": 64,
                "duration": 0.0659091,
                "tempo": 120.0
            },
            {
                "start_time": 49.7181818,
                "end_time": 49.7818182,
                "pitch": 67,
                "velocity": 51,
                "duration": 0.0636364,
                "tempo": 120.0
            },
            {
                "start_time": 49.8136364,
                "end_time": 49.8795455,
                "pitch": 70,
                "velocity": 51,
                "duration": 0.0659091,
                "tempo": 120.0
            },
            {
                "start_time": 49.8954545,
                "end_time": 49.9590909,
                "pitch": 75,
                "velocity": 51,
                "duration": 0.0636364,
                "tempo": 120.0
            },
            {
                "start_time": 49.9909091,
                "end_time": 50.0386364,
                "pitch": 79,
                "velocity": 51,
                "duration": 0.0477273,
                "tempo": 120.0
            },
            {
                "start_time": 50.0704545,
                "end_time": 50.1363636,
                "pitch": 67,
                "velocity": 40,
                "duration": 0.0659091,
                "tempo": 120.0
            },
            {
                "start_time": 50.1704545,
                "end_time": 50.2204545,
                "pitch": 70,
                "velocity": 40,
                "duration": 0.05,
                "tempo": 120.0
            },
            {
                "start_time": 50.2522727,
                "end_time": 50.3181818,
                "pitch": 75,
                "velocity": 40,
                "duration": 0.0659091,
                "tempo": 120.0
            },
            {
                "start_time": 50.3522727,
                "end_time": 50.4022727,
                "pitch": 79,
                "velocity": 40,
                "duration": 0.05,
                "tempo": 120.0
            },
            {
                "start_time": 50.4340909,
                "end_time": 50.5045455,
                "pitch": 67,
                "velocity": 32,
                "duration": 0.0704545,
                "tempo": 120.0
            },
            {
                "start_time": 50.5204545,
                "end_time": 50.5909091,
                "pitch": 70,
                "velocity": 32,
                "duration": 0.0704545,
                "tempo": 120.0
            },
            {
                "start_time": 50.6272727,
                "end_time": 50.6954545,
                "pitch": 75,
                "velocity": 32,
                "duration": 0.0681818,
                "tempo": 120.0
            },
            {
                "start_time": 50.7136364,
                "end_time": 50.7840909,
                "pitch": 79,
                "velocity": 32,
                "duration": 0.0704545,
                "tempo": 120.0
            },
            {
                "start_time": 50.8181818,
                "end_time": 50.8681818,
                "pitch": 67,
                "velocity": 64,
                "duration": 0.05,
                "tempo": 120.0
            },
            {
                "start_time": 50.9,
                "end_time": 50.9681818,
                "pitch": 70,
                "velocity": 64,
                "duration": 0.0681818,
                "tempo": 120.0
            },
            {
                "start_time": 51.0,
                "end_time": 51.05,
                "pitch": 75,
                "velocity": 64,
                "duration": 0.05,
                "tempo": 120.0
            },
            {
                "start_time": 51.0818182,
                "end_time": 51.15,
                "pitch": 79,
                "velocity": 64,
                "duration": 0.0681818,
                "tempo": 120.0
            },
            {
                "start_time": 51.1818182,
                "end_time": 51.2318182,
                "pitch": 67,
                "velocity": 51,
                "duration": 0.05,
                "tempo": 120.0
            },
            {
                "start_time": 51.2636364,
                "end_time": 51.3295455,
                "pitch": 70,
                "velocity": 51,
                "duration": 0.0659091,
                "tempo": 120.0
            },
            {
                "start_time": 51.3477273,
                "end_time": 51.4136364,
                "pitch": 75,
                "velocity": 51,
                "duration": 0.0659091,
                "tempo": 120.0
            },
            {
                "start_time": 51.4454545,
                "end_time": 51.5113636,
                "pitch": 79,
                "velocity": 51,
                "duration": 0.0659091,
                "tempo": 120.0
            },
            {
                "start_time": 51.5295455,
                "end_time": 51.5931818,
                "pitch": 67,
                "velocity": 40,
                "duration": 0.0636364,
                "tempo": 120.0
            },
            {
                "start_time": 51.625,
                "end_time": 51.6727273,
                "pitch": 70,
                "velocity": 40,
                "duration": 0.0477273,
                "tempo": 120.0
            },
            {
                "start_time": 51.7068182,
                "end_time": 51.7681818,
                "pitch": 75,
                "velocity": 40,
                "duration": 0.0613636,
                "tempo": 120.0
            },
            {
                "start_time": 51.8022727,
                "end_time": 51.85,
                "pitch": 79,
                "velocity": 40,
                "duration": 0.0477273,
                "tempo": 120.0
            },
            {
                "start_time": 51.8818182,
                "end_time": 51.95,
                "pitch": 67,
                "velocity": 32,
                "duration": 0.0681818,
                "tempo": 120.0
            },
            {
                "start_time": 51.9840909,
                "end_time": 52.0340909,
                "pitch": 70,
                "velocity": 32,
                "duration": 0.05,
                "tempo": 120.0
            },
            {
                "start_time": 52.0681818,
                "end_time": 52.1363636,
                "pitch": 75,
                "velocity": 32,
                "duration": 0.0681818,
                "tempo": 120.0
            },
            {
                "start_time": 52.1704545,
                "end_time": 52.2204545,
                "pitch": 79,
                "velocity": 32,
                "duration": 0.05,
                "tempo": 120.0
            },
            {
                "start_time": 52.2545455,
                "end_time": 52.3227273,
                "pitch": 67,
                "velocity": 64,
                "duration": 0.0681818,
                "tempo": 120.0
            },
            {
                "start_time": 52.3386364,
                "end_time": 52.4068182,
                "pitch": 72,
                "velocity": 64,
                "duration": 0.0681818,
                "tempo": 120.0
            },
            {
                "start_time": 52.4409091,
                "end_time": 52.4909091,
                "pitch": 75,
                "velocity": 64,
                "duration": 0.05,
                "tempo": 120.0
            },
            {
                "start_time": 52.525,
                "end_time": 52.5931818,
                "pitch": 79,
                "velocity": 64,
                "duration": 0.0681818,
                "tempo": 120.0
            },
            {
                "start_time": 52.6272727,
                "end_time": 52.6772727,
                "pitch": 67,
                "velocity": 51,
                "duration": 0.05,
                "tempo": 120.0
            },
            {
                "start_time": 52.7113636,
                "end_time": 52.7795455,
                "pitch": 72,
                "velocity": 51,
                "duration": 0.0681818,
                "tempo": 120.0
            },
            {
                "start_time": 52.8136364,
                "end_time": 52.8636364,
                "pitch": 75,
                "velocity": 51,
                "duration": 0.05,
                "tempo": 120.0
            },
            {
                "start_time": 52.8977273,
                "end_time": 52.9659091,
                "pitch": 79,
                "velocity": 51,
                "duration": 0.0681818,
                "tempo": 120.0
            },
            {
                "start_time": 53.0,
                "end_time": 53.0477273,
                "pitch": 67,
                "velocity": 40,
                "duration": 0.0477273,
                "tempo": 120.0
            },
            {
                "start_time": 53.0818182,
                "end_time": 53.1477273,
                "pitch": 72,
                "velocity": 40,
                "duration": 0.0659091,
                "tempo": 120.0
            },
            {
                "start_time": 53.1659091,
                "end_time": 53.2295455,
                "pitch": 75,
                "velocity": 40,
                "duration": 0.0636364,
                "tempo": 120.0
            },
            {
                "start_time": 53.2636364,
                "end_time": 53.3136364,
                "pitch": 79,
                "velocity": 40,
                "duration": 0.05,
                "tempo": 120.0
            },
            {
                "start_time": 53.3477273,
                "end_time": 53.4113636,
                "pitch": 67,
                "velocity": 32,
                "duration": 0.0636364,
                "tempo": 120.0
            },
            {
                "start_time": 53.4454545,
                "end_time": 53.4954545,
                "pitch": 72,
                "velocity": 32,
                "duration": 0.05,
                "tempo": 120.0
            },
            {
                "start_time": 53.5272727,
                "end_time": 53.5931818,
                "pitch": 75,
                "velocity": 32,
                "duration": 0.0659091,
                "tempo": 120.0
            },
            {
                "start_time": 53.6272727,
                "end_time": 53.6772727,
                "pitch": 79,
                "velocity": 32,
                "duration": 0.05,
                "tempo": 120.0
            },
            {
                "start_time": 53.7113636,
                "end_time": 53.775,
                "pitch": 67,
                "velocity": 64,
                "duration": 0.0636364,
                "tempo": 120.0
            },
            {
                "start_time": 53.8090909,
                "end_time": 53.8590909,
                "pitch": 72,
                "velocity": 64,
                "duration": 0.05,
                "tempo": 120.0
            },
            {
                "start_time": 53.8909091,
                "end_time": 53.9568182,
                "pitch": 75,
                "velocity": 64,
                "duration": 0.0659091,
                "tempo": 120.0
            },
            {
                "start_time": 53.975,
                "end_time": 54.0409091,
                "pitch": 79,
                "velocity": 64,
                "duration": 0.0659091,
                "tempo": 120.0
            },
            {
                "start_time": 54.0727273,
                "end_time": 54.1409091,
                "pitch": 67,
                "velocity": 51,
                "duration": 0.0681818,
                "tempo": 120.0
            },
            {
                "start_time": 54.1568182,
                "end_time": 54.225,
                "pitch": 72,
                "velocity": 51,
                "duration": 0.0681818,
                "tempo": 120.0
            },
            {
                "start_time": 54.2590909,
                "end_time": 54.3090909,
                "pitch": 75,
                "velocity": 51,
                "duration": 0.05,
                "tempo": 120.0
            },
            {
                "start_time": 54.3431818,
                "end_time": 54.4113636,
                "pitch": 79,
                "velocity": 51,
                "duration": 0.0681818,
                "tempo": 120.0
            },
            {
                "start_time": 54.4454545,
                "end_time": 54.4954545,
                "pitch": 67,
                "velocity": 40,
                "duration": 0.05,
                "tempo": 120.0
            },
            {
                "start_time": 54.5272727,
                "end_time": 54.5931818,
                "pitch": 72,
                "velocity": 40,
                "duration": 0.0659091,
                "tempo": 120.0
            },
            {
                "start_time": 54.6272727,
                "end_time": 54.6772727,
                "pitch": 75,
                "velocity": 40,
                "duration": 0.05,
                "tempo": 120.0
            },
            {
                "start_time": 54.7090909,
                "end_time": 54.775,
                "pitch": 79,
                "velocity": 40,
                "duration": 0.0659091,
                "tempo": 120.0
            },
            {
                "start_time": 54.7931818,
                "end_time": 54.8590909,
                "pitch": 67,
                "velocity": 32,
                "duration": 0.0659091,
                "tempo": 120.0
            },
            {
                "start_time": 54.8909091,
                "end_time": 54.9568182,
                "pitch": 72,
                "velocity": 32,
                "duration": 0.0659091,
                "tempo": 120.0
            },
            {
                "start_time": 54.975,
                "end_time": 55.0409091,
                "pitch": 75,
                "velocity": 32,
                "duration": 0.0659091,
                "tempo": 120.0
            },
            {
                "start_time": 55.0727273,
                "end_time": 55.1227273,
                "pitch": 79,
                "velocity": 32,
                "duration": 0.05,
                "tempo": 120.0
            },
            {
                "start_time": 55.1568182,
                "end_time": 55.2227273,
                "pitch": 67,
                "velocity": 64,
                "duration": 0.0659091,
                "tempo": 120.0
            },
            {
                "start_time": 55.2568182,
                "end_time": 55.3068182,
                "pitch": 72,
                "velocity": 64,
                "duration": 0.05,
                "tempo": 120.0
            },
            {
                "start_time": 55.3409091,
                "end_time": 55.4090909,
                "pitch": 75,
                "velocity": 64,
                "duration": 0.0681818,
                "tempo": 120.0
            },
            {
                "start_time": 55.4431818,
                "end_time": 55.4931818,
                "pitch": 79,
                "velocity": 64,
                "duration": 0.05,
                "tempo": 120.0
            },
            {
                "start_time": 55.5272727,
                "end_time": 55.5931818,
                "pitch": 67,
                "velocity": 51,
                "duration": 0.0659091,
                "tempo": 120.0
            },
            {
                "start_time": 55.6113636,
                "end_time": 55.6772727,
                "pitch": 72,
                "velocity": 51,
                "duration": 0.0659091,
                "tempo": 120.0
            },
            {
                "start_time": 55.7090909,
                "end_time": 55.775,
                "pitch": 75,
                "velocity": 51,
                "duration": 0.0659091,
                "tempo": 120.0
            },
            {
                "start_time": 55.7931818,
                "end_time": 55.8590909,
                "pitch": 79,
                "velocity": 51,
                "duration": 0.0659091,
                "tempo": 120.0
            },
            {
                "start_time": 55.8909091,
                "end_time": 55.9409091,
                "pitch": 67,
                "velocity": 40,
                "duration": 0.05,
                "tempo": 120.0
            },
            {
                "start_time": 55.975,
                "end_time": 56.0431818,
                "pitch": 72,
                "velocity": 40,
                "duration": 0.0681818,
                "tempo": 120.0
            },
            {
                "start_time": 56.0772727,
                "end_time": 56.1272727,
                "pitch": 75,
                "velocity": 40,
                "duration": 0.05,
                "tempo": 120.0
            },
            {
                "start_time": 56.1613636,
                "end_time": 56.2295455,
                "pitch": 79,
                "velocity": 40,
                "duration": 0.0681818,
                "tempo": 120.0
            },
            {
                "start_time": 56.2636364,
                "end_time": 56.3136364,
                "pitch": 67,
                "velocity": 32,
                "duration": 0.05,
                "tempo": 120.0
            },
            {
                "start_time": 56.3454545,
                "end_time": 56.4113636,
                "pitch": 72,
                "velocity": 32,
                "duration": 0.0659091,
                "tempo": 120.0
            },
            {
                "start_time": 56.4454545,
                "end_time": 56.4954545,
                "pitch": 75,
                "velocity": 32,
                "duration": 0.05,
                "tempo": 120.0
            },
            {
                "start_time": 56.5272727,
                "end_time": 56.5931818,
                "pitch": 79,
                "velocity": 32,
                "duration": 0.0659091,
                "tempo": 120.0
            },
            {
                "start_time": 56.6113636,
                "end_time": 56.6772727,
                "pitch": 72,
                "velocity": 64,
                "duration": 0.0659091,
                "tempo": 120.0
            },
            {
                "start_time": 56.7090909,
                "end_time": 56.7590909,
                "pitch": 74,
                "velocity": 64,
                "duration": 0.05,
                "tempo": 120.0
            },
            {
                "start_time": 56.7931818,
                "end_time": 56.8590909,
                "pitch": 78,
                "velocity": 64,
                "duration": 0.0659091,
                "tempo": 120.0
            },
            {
                "start_time": 56.8909091,
                "end_time": 56.9409091,
                "pitch": 81,
                "velocity": 64,
                "duration": 0.05,
                "tempo": 120.0
            },
            {
                "start_time": 56.975,
                "end_time": 57.0409091,
                "pitch": 72,
                "velocity": 51,
                "duration": 0.0659091,
                "tempo": 120.0
            },
            {
                "start_time": 57.0727273,
                "end_time": 57.1227273,
                "pitch": 74,
                "velocity": 51,
                "duration": 0.05,
                "tempo": 120.0
            },
            {
                "start_time": 57.1568182,
                "end_time": 57.2227273,
                "pitch": 78,
                "velocity": 51,
                "duration": 0.0659091,
                "tempo": 120.0
            },
            {
                "start_time": 57.2545455,
                "end_time": 57.3045455,
                "pitch": 81,
                "velocity": 51,
                "duration": 0.05,
                "tempo": 120.0
            },
            {
                "start_time": 57.3386364,
                "end_time": 57.4045455,
                "pitch": 72,
                "velocity": 40,
                "duration": 0.0659091,
                "tempo": 120.0
            },
            {
                "start_time": 57.4227273,
                "end_time": 57.4909091,
                "pitch": 74,
                "velocity": 40,
                "duration": 0.0681818,
                "tempo": 120.0
            },
            {
                "start_time": 57.525,
                "end_time": 57.575,
                "pitch": 78,
                "velocity": 40,
                "duration": 0.05,
                "tempo": 120.0
            },
            {
                "start_time": 57.6090909,
                "end_time": 57.6772727,
                "pitch": 81,
                "velocity": 40,
                "duration": 0.0681818,
                "tempo": 120.0
            },
            {
                "start_time": 57.7113636,
                "end_time": 57.7613636,
                "pitch": 72,
                "velocity": 32,
                "duration": 0.05,
                "tempo": 120.0
            },
            {
                "start_time": 57.7954545,
                "end_time": 57.8613636,
                "pitch": 74,
                "velocity": 32,
                "duration": 0.0659091,
                "tempo": 120.0
            },
            {
                "start_time": 57.8977273,
                "end_time": 57.9477273,
                "pitch": 78,
                "velocity": 32,
                "duration": 0.05,
                "tempo": 120.0
            },
            {
                "start_time": 57.9818182,
                "end_time": 58.0477273,
                "pitch": 81,
                "velocity": 32,
                "duration": 0.0659091,
                "tempo": 120.0
            },
            {
                "start_time": 58.0840909,
                "end_time": 58.1318182,
                "pitch": 79,
                "velocity": 64,
                "duration": 0.0477273,
                "tempo": 120.0
            },
            {
                "start_time": 58.1659091,
                "end_time": 58.2318182,
                "pitch": 82,
                "velocity": 64,
                "duration": 0.0659091,
                "tempo": 120.0
            },
            {
                "start_time": 58.2477273,
                "end_time": 58.3136364,
                "pitch": 86,
                "velocity": 64,
                "duration": 0.0659091,
                "tempo": 120.0
            },
            {
                "start_time": 58.3477273,
                "end_time": 58.4136364,
                "pitch": 91,
                "velocity": 64,
                "duration": 0.0659091,
                "tempo": 120.0
            },
            {
                "start_time": 58.4295455,
                "end_time": 58.4931818,
                "pitch": 79,
                "velocity": 51,
                "duration": 0.0636364,
                "tempo": 120.0
            },
            {
                "start_time": 58.525,
                "end_time": 58.5727273,
                "pitch": 82,
                "velocity": 51,
                "duration": 0.0477273,
                "tempo": 120.0
            },
            {
                "start_time": 58.6068182,
                "end_time": 58.6704545,
                "pitch": 86,
                "velocity": 51,
                "duration": 0.0636364,
                "tempo": 120.0
            },
            {
                "start_time": 58.7022727,
                "end_time": 58.75,
                "pitch": 91,
                "velocity": 51,
                "duration": 0.0477273,
                "tempo": 120.0
            },
            {
                "start_time": 58.7818182,
                "end_time": 58.85,
                "pitch": 79,
                "velocity": 40,
                "duration": 0.0681818,
                "tempo": 120.0
            },
            {
                "start_time": 58.8840909,
                "end_time": 58.9340909,
                "pitch": 82,
                "velocity": 40,
                "duration": 0.05,
                "tempo": 120.0
            },
            {
                "start_time": 58.9681818,
                "end_time": 59.0363636,
                "pitch": 86,
                "velocity": 40,
                "duration": 0.0681818,
                "tempo": 120.0
            },
            {
                "start_time": 59.0522727,
                "end_time": 59.1204545,
                "pitch": 91,
                "velocity": 40,
                "duration": 0.0681818,
                "tempo": 120.0
            },
            {
                "start_time": 59.1545455,
                "end_time": 59.2227273,
                "pitch": 79,
                "velocity": 32,
                "duration": 0.0681818,
                "tempo": 120.0
            },
            {
                "start_time": 59.2386364,
                "end_time": 59.3068182,
                "pitch": 82,
                "velocity": 32,
                "duration": 0.0681818,
                "tempo": 120.0
            },
            {
                "start_time": 59.3409091,
                "end_time": 59.3909091,
                "pitch": 86,
                "velocity": 32,
                "duration": 0.05,
                "tempo": 120.0
            },
            {
                "start_time": 59.425,
                "end_time": 59.4931818,
                "pitch": 91,
                "velocity": 32,
                "duration": 0.0681818,
                "tempo": 120.0
            },
            {
                "start_time": 59.5272727,
                "end_time": 59.5772727,
                "pitch": 79,
                "velocity": 64,
                "duration": 0.05,
                "tempo": 120.0
            },
            {
                "start_time": 59.6090909,
                "end_time": 59.675,
                "pitch": 82,
                "velocity": 64,
                "duration": 0.0659091,
                "tempo": 120.0
            },
            {
                "start_time": 59.7090909,
                "end_time": 59.7590909,
                "pitch": 86,
                "velocity": 64,
                "duration": 0.05,
                "tempo": 120.0
            },
            {
                "start_time": 59.7909091,
                "end_time": 59.8568182,
                "pitch": 91,
                "velocity": 64,
                "duration": 0.0659091,
                "tempo": 120.0
            },
            {
                "start_time": 59.875,
                "end_time": 59.9386364,
                "pitch": 79,
                "velocity": 51,
                "duration": 0.0636364,
                "tempo": 120.0
            },
            {
                "start_time": 59.9704545,
                "end_time": 60.0340909,
                "pitch": 82,
                "velocity": 51,
                "duration": 0.0636364,
                "tempo": 120.0
            },
            {
                "start_time": 60.05,
                "end_time": 60.1136364,
                "pitch": 86,
                "velocity": 51,
                "duration": 0.0636364,
                "tempo": 120.0
            },
            {
                "start_time": 60.1477273,
                "end_time": 60.1954545,
                "pitch": 91,
                "velocity": 51,
                "duration": 0.0477273,
                "tempo": 120.0
            },
            {
                "start_time": 60.2272727,
                "end_time": 60.2954545,
                "pitch": 79,
                "velocity": 40,
                "duration": 0.0681818,
                "tempo": 120.0
            },
            {
                "start_time": 60.3295455,
                "end_time": 60.3795455,
                "pitch": 82,
                "velocity": 40,
                "duration": 0.05,
                "tempo": 120.0
            },
            {
                "start_time": 60.4136364,
                "end_time": 60.4795455,
                "pitch": 86,
                "velocity": 40,
                "duration": 0.0659091,
                "tempo": 120.0
            },
            {
                "start_time": 60.5136364,
                "end_time": 60.5659091,
                "pitch": 91,
                "velocity": 40,
                "duration": 0.0522727,
                "tempo": 120.0
            },
            {
                "start_time": 60.6,
                "end_time": 60.6659091,
                "pitch": 79,
                "velocity": 32,
                "duration": 0.0659091,
                "tempo": 120.0
            },
            {
                "start_time": 60.7,
                "end_time": 60.7522727,
                "pitch": 82,
                "velocity": 32,
                "duration": 0.0522727,
                "tempo": 120.0
            },
            {
                "start_time": 60.7863636,
                "end_time": 60.8522727,
                "pitch": 86,
                "velocity": 32,
                "duration": 0.0659091,
                "tempo": 120.0
            },
            {
                "start_time": 60.8704545,
                "end_time": 60.9386364,
                "pitch": 91,
                "velocity": 32,
                "duration": 0.0681818,
                "tempo": 120.0
            }
        ],
        "Acoustic Bass": [
            {
                "start_time": 0.0204545,
                "end_time": 0.1681818,
                "pitch": 31,
                "velocity": 51,
                "duration": 0.1477273,
                "tempo": 120.0
            },
            {
                "start_time": 0.1863636,
                "end_time": 0.3545455,
                "pitch": 31,
                "velocity": 51,
                "duration": 0.1681818,
                "tempo": 120.0
            },
            {
                "start_time": 0.3727273,
                "end_time": 0.5159091,
                "pitch": 43,
                "velocity": 51,
                "duration": 0.1431818,
                "tempo": 120.0
            },
            {
                "start_time": 0.55,
                "end_time": 0.6931818,
                "pitch": 31,
                "velocity": 51,
                "duration": 0.1431818,
                "tempo": 120.0
            },
            {
                "start_time": 0.7272727,
                "end_time": 0.8772727,
                "pitch": 31,
                "velocity": 51,
                "duration": 0.15,
                "tempo": 120.0
            },
            {
                "start_time": 0.9113636,
                "end_time": 1.0636364,
                "pitch": 31,
                "velocity": 51,
                "duration": 0.1522727,
                "tempo": 120.0
            },
            {
                "start_time": 1.0977273,
                "end_time": 1.2454545,
                "pitch": 43,
                "velocity": 51,
                "duration": 0.1477273,
                "tempo": 120.0
            },
            {
                "start_time": 1.2795455,
                "end_time": 1.4272727,
                "pitch": 31,
                "velocity": 51,
                "duration": 0.1477273,
                "tempo": 120.0
            },
            {
                "start_time": 1.4613636,
                "end_time": 1.6136364,
                "pitch": 31,
                "velocity": 51,
                "duration": 0.1522727,
                "tempo": 120.0
            },
            {
                "start_time": 1.6477273,
                "end_time": 1.8,
                "pitch": 31,
                "velocity": 51,
                "duration": 0.1522727,
                "tempo": 120.0
            },
            {
                "start_time": 1.8340909,
                "end_time": 1.9863636,
                "pitch": 43,
                "velocity": 51,
                "duration": 0.1522727,
                "tempo": 120.0
            },
            {
                "start_time": 2.0022727,
                "end_time": 2.1545455,
                "pitch": 31,
                "velocity": 51,
                "duration": 0.1522727,
                "tempo": 120.0
            },
            {
                "start_time": 2.1886364,
                "end_time": 2.3340909,
                "pitch": 31,
                "velocity": 51,
                "duration": 0.1454545,
                "tempo": 120.0
            },
            {
                "start_time": 2.3659091,
                "end_time": 2.5090909,
                "pitch": 31,
                "velocity": 51,
                "duration": 0.1431818,
                "tempo": 120.0
            },
            {
                "start_time": 2.5431818,
                "end_time": 2.6931818,
                "pitch": 43,
                "velocity": 51,
                "duration": 0.15,
                "tempo": 120.0
            },
            {
                "start_time": 2.7295455,
                "end_time": 2.8795455,
                "pitch": 31,
                "velocity": 51,
                "duration": 0.15,
                "tempo": 120.0
            },
            {
                "start_time": 2.9159091,
                "end_time": 3.0636364,
                "pitch": 29,
                "velocity": 51,
                "duration": 0.1477273,
                "tempo": 120.0
            },
            {
                "start_time": 3.0954545,
                "end_time": 3.2454545,
                "pitch": 29,
                "velocity": 51,
                "duration": 0.15,
                "tempo": 120.0
            },
            {
                "start_time": 3.2772727,
                "end_time": 3.4295455,
                "pitch": 41,
                "velocity": 51,
                "duration": 0.1522727,
                "tempo": 120.0
            },
            {
                "start_time": 3.4636364,
                "end_time": 3.6159091,
                "pitch": 29,
                "velocity": 51,
                "duration": 0.1522727,
                "tempo": 120.0
            },
            {
                "start_time": 3.6340909,
                "end_time": 3.7931818,
                "pitch": 29,
                "velocity": 51,
                "duration": 0.1590909,
                "tempo": 120.0
            },
            {
                "start_time": 3.8090909,
                "end_time": 3.9545455,
                "pitch": 29,
                "velocity": 51,
                "duration": 0.1454545,
                "tempo": 120.0
            },
            {
                "start_time": 3.9863636,
                "end_time": 4.1386364,
                "pitch": 41,
                "velocity": 51,
                "duration": 0.1522727,
                "tempo": 120.0
            },
            {
                "start_time": 4.1727273,
                "end_time": 4.325,
                "pitch": 29,
                "velocity": 51,
                "duration": 0.1522727,
                "tempo": 120.0
            },
            {
                "start_time": 4.3590909,
                "end_time": 4.5113636,
                "pitch": 29,
                "velocity": 51,
                "duration": 0.1522727,
                "tempo": 120.0
            },
            {
                "start_time": 4.5454545,
                "end_time": 4.6977273,
                "pitch": 29,
                "velocity": 51,
                "duration": 0.1522727,
                "tempo": 120.0
            },
            {
                "start_time": 4.7318182,
                "end_time": 4.8795455,
                "pitch": 41,
                "velocity": 51,
                "duration": 0.1477273,
                "tempo": 120.0
            },
            {
                "start_time": 4.9136364,
                "end_time": 5.0613636,
                "pitch": 29,
                "velocity": 51,
                "duration": 0.1477273,
                "tempo": 120.0
            },
            {
                "start_time": 5.0954545,
                "end_time": 5.2454545,
                "pitch": 29,
                "velocity": 51,
                "duration": 0.15,
                "tempo": 120.0
            },
            {
                "start_time": 5.2818182,
                "end_time": 5.4318182,
                "pitch": 29,
                "velocity": 51,
                "duration": 0.15,
                "tempo": 120.0
            },
            {
                "start_time": 5.45,
                "end_time": 5.5931818,
                "pitch": 41,
                "velocity": 51,
                "duration": 0.1431818,
                "tempo": 120.0
            },
            {
                "start_time": 5.6272727,
                "end_time": 5.7704545,
                "pitch": 29,
                "velocity": 51,
                "duration": 0.1431818,
                "tempo": 120.0
            },
            {
                "start_time": 5.8045455,
                "end_time": 5.9545455,
                "pitch": 27,
                "velocity": 51,
                "duration": 0.15,
                "tempo": 120.0
            },
            {
                "start_time": 5.9886364,
                "end_time": 6.1409091,
                "pitch": 27,
                "velocity": 51,
                "duration": 0.1522727,
                "tempo": 120.0
            },
            {
                "start_time": 6.175,
                "end_time": 6.3227273,
                "pitch": 39,
                "velocity": 51,
                "duration": 0.1477273,
                "tempo": 120.0
            },
            {
                "start_time": 6.3568182,
                "end_time": 6.5045455,
                "pitch": 27,
                "velocity": 51,
                "duration": 0.1477273,
                "tempo": 120.0
            },
            {
                "start_time": 6.5386364,
                "end_time": 6.6909091,
                "pitch": 27,
                "velocity": 51,
                "duration": 0.1522727,
                "tempo": 120.0
            },
            {
                "start_time": 6.725,
                "end_time": 6.8772727,
                "pitch": 27,
                "velocity": 51,
                "duration": 0.1522727,
                "tempo": 120.0
            },
            {
                "start_time": 6.9113636,
                "end_time": 7.0636364,
                "pitch": 39,
                "velocity": 51,
                "duration": 0.1522727,
                "tempo": 120.0
            },
            {
                "start_time": 7.0795455,
                "end_time": 7.25,
                "pitch": 27,
                "velocity": 51,
                "duration": 0.1704545,
                "tempo": 120.0
            },
            {
                "start_time": 7.2681818,
                "end_time": 7.4113636,
                "pitch": 27,
                "velocity": 51,
                "duration": 0.1431818,
                "tempo": 120.0
            },
            {
                "start_time": 7.4431818,
                "end_time": 7.5863636,
                "pitch": 27,
                "velocity": 51,
                "duration": 0.1431818,
                "tempo": 120.0
            },
            {
                "start_time": 7.6204545,
                "end_time": 7.7681818,
                "pitch": 39,
                "velocity": 51,
                "duration": 0.1477273,
                "tempo": 120.0
            },
            {
                "start_time": 7.8022727,
                "end_time": 7.95,
                "pitch": 27,
                "velocity": 51,
                "duration": 0.1477273,
                "tempo": 120.0
            },
            {
                "start_time": 7.9840909,
                "end_time": 8.1363636,
                "pitch": 27,
                "velocity": 51,
                "duration": 0.1522727,
                "tempo": 120.0
            },
            {
                "start_time": 8.1704545,
                "end_time": 8.3227273,
                "pitch": 27,
                "velocity": 51,
                "duration": 0.1522727,
                "tempo": 120.0
            },
            {
                "start_time": 8.3568182,
                "end_time": 8.5068182,
                "pitch": 39,
                "velocity": 51,
                "duration": 0.15,
                "tempo": 120.0
            },
            {
                "start_time": 8.5431818,
                "end_time": 8.6931818,
                "pitch": 27,
                "velocity": 51,
                "duration": 0.15,
                "tempo": 120.0
            },
            {
                "start_time": 8.7136364,
                "end_time": 8.8704545,
                "pitch": 38,
                "velocity": 51,
                "duration": 0.1568182,
                "tempo": 120.0
            },
            {
                "start_time": 8.8886364,
                "end_time": 9.0318182,
                "pitch": 38,
                "velocity": 51,
                "duration": 0.1431818,
                "tempo": 120.0
            },
            {
                "start_time": 9.0636364,
                "end_time": 9.2159091,
                "pitch": 50,
                "velocity": 51,
                "duration": 0.1522727,
                "tempo": 120.0
            },
            {
                "start_time": 9.25,
                "end_time": 9.4022727,
                "pitch": 38,
                "velocity": 51,
                "duration": 0.1522727,
                "tempo": 120.0
            },
            {
                "start_time": 9.4363636,
                "end_time": 9.5840909,
                "pitch": 38,
                "velocity": 51,
                "duration": 0.1477273,
                "tempo": 120.0
            },
            {
                "start_time": 9.6181818,
                "end_time": 9.7659091,
                "pitch": 38,
                "velocity": 51,
                "duration": 0.1477273,
                "tempo": 120.0
            },
            {
                "start_time": 9.8,
                "end_time": 9.9522727,
                "pitch": 50,
                "velocity": 51,
                "duration": 0.1522727,
                "tempo": 120.0
            },
            {
                "start_time": 9.9863636,
                "end_time": 10.1386364,
                "pitch": 38,
                "velocity": 51,
                "duration": 0.1522727,
                "tempo": 120.0
            },
            {
                "start_time": 10.1727273,
                "end_time": 10.325,
                "pitch": 38,
                "velocity": 51,
                "duration": 0.1522727,
                "tempo": 120.0
            },
            {
                "start_time": 10.3590909,
                "end_time": 10.5113636,
                "pitch": 38,
                "velocity": 51,
                "duration": 0.1522727,
                "tempo": 120.0
            },
            {
                "start_time": 10.5272727,
                "end_time": 10.6727273,
                "pitch": 50,
                "velocity": 51,
                "duration": 0.1454545,
                "tempo": 120.0
            },
            {
                "start_time": 10.7045455,
                "end_time": 10.8477273,
                "pitch": 38,
                "velocity": 51,
                "duration": 0.1431818,
                "tempo": 120.0
            },
            {
                "start_time": 10.8818182,
                "end_time": 11.0318182,
                "pitch": 38,
                "velocity": 51,
                "duration": 0.15,
                "tempo": 120.0
            },
            {
                "start_time": 11.0681818,
                "end_time": 11.2181818,
                "pitch": 38,
                "velocity": 51,
                "duration": 0.15,
                "tempo": 120.0
            },
            {
                "start_time": 11.2545455,
                "end_time": 11.4045455,
                "pitch": 50,
                "velocity": 51,
                "duration": 0.15,
                "tempo": 120.0
            },
            {
                "start_time": 11.4409091,
                "end_time": 11.5909091,
                "pitch": 38,
                "velocity": 51,
                "duration": 0.15,
                "tempo": 120.0
            },
            {
                "start_time": 11.6272727,
                "end_time": 11.7727273,
                "pitch": 31,
                "velocity": 51,
                "duration": 0.1454545,
                "tempo": 120.0
            },
            {
                "start_time": 11.8068182,
                "end_time": 11.9545455,
                "pitch": 31,
                "velocity": 51,
                "duration": 0.1477273,
                "tempo": 120.0
            },
            {
                "start_time": 11.9886364,
                "end_time": 12.1409091,
                "pitch": 43,
                "velocity": 51,
                "duration": 0.1522727,
                "tempo": 120.0
            },
            {
                "start_time": 12.1568182,
                "end_time": 12.3272727,
                "pitch": 31,
                "velocity": 51,
                "duration": 0.1704545,
                "tempo": 120.0
            },
            {
                "start_time": 12.3454545,
                "end_time": 12.4886364,
                "pitch": 31,
                "velocity": 51,
                "duration": 0.1431818,
                "tempo": 120.0
            },
            {
                "start_time": 12.5204545,
                "end_time": 12.6659091,
                "pitch": 31,
                "velocity": 51,
                "duration": 0.1454545,
                "tempo": 120.0
            },
            {
                "start_time": 12.6977273,
                "end_time": 12.8454545,
                "pitch": 43,
                "velocity": 51,
                "duration": 0.1477273,
                "tempo": 120.0
            },
            {
                "start_time": 12.8795455,
                "end_time": 13.0272727,
                "pitch": 31,
                "velocity": 51,
                "duration": 0.1477273,
                "tempo": 120.0
            },
            {
                "start_time": 13.0613636,
                "end_time": 13.2136364,
                "pitch": 31,
                "velocity": 51,
                "duration": 0.1522727,
                "tempo": 120.0
            },
            {
                "start_time": 13.2477273,
                "end_time": 13.4,
                "pitch": 31,
                "velocity": 51,
                "duration": 0.1522727,
                "tempo": 120.0
            },
            {
                "start_time": 13.4340909,
                "end_time": 13.5863636,
                "pitch": 43,
                "velocity": 51,
                "duration": 0.1522727,
                "tempo": 120.0
            },
            {
                "start_time": 13.6204545,
                "end_time": 13.7727273,
                "pitch": 31,
                "velocity": 51,
                "duration": 0.1522727,
                "tempo": 120.0
            },
            {
                "start_time": 13.8068182,
                "end_time": 13.9545455,
                "pitch": 31,
                "velocity": 51,
                "duration": 0.1477273,
                "tempo": 120.0
            },
            {
                "start_time": 13.9704545,
                "end_time": 14.1204545,
                "pitch": 31,
                "velocity": 51,
                "duration": 0.15,
                "tempo": 120.0
            },
            {
                "start_time": 14.1545455,
                "end_time": 14.3022727,
                "pitch": 43,
                "velocity": 51,
                "duration": 0.1477273,
                "tempo": 120.0
            },
            {
                "start_time": 14.3340909,
                "end_time": 14.4840909,
                "pitch": 31,
                "velocity": 51,
                "duration": 0.15,
                "tempo": 120.0
            },
            {
                "start_time": 14.5181818,
                "end_time": 14.6681818,
                "pitch": 29,
                "velocity": 51,
                "duration": 0.15,
                "tempo": 120.0
            },
            {
                "start_time": 14.7022727,
                "end_time": 14.8545455,
                "pitch": 29,
                "velocity": 51,
                "duration": 0.1522727,
                "tempo": 120.0
            },
            {
                "start_time": 14.8886364,
                "end_time": 15.0363636,
                "pitch": 41,
                "velocity": 51,
                "duration": 0.1477273,
                "tempo": 120.0
            },
            {
                "start_time": 15.0704545,
                "end_time": 15.2181818,
                "pitch": 29,
                "velocity": 51,
                "duration": 0.1477273,
                "tempo": 120.0
            },
            {
                "start_time": 15.2522727,
                "end_time": 15.4045455,
                "pitch": 29,
                "velocity": 51,
                "duration": 0.1522727,
                "tempo": 120.0
            },
            {
                "start_time": 15.4386364,
                "end_time": 15.5909091,
                "pitch": 29,
                "velocity": 51,
                "duration": 0.1522727,
                "tempo": 120.0
            },
            {
                "start_time": 15.6090909,
                "end_time": 15.7681818,
                "pitch": 41,
                "velocity": 51,
                "duration": 0.1590909,
                "tempo": 120.0
            },
            {
                "start_time": 15.7840909,
                "end_time": 15.9272727,
                "pitch": 29,
                "velocity": 51,
                "duration": 0.1431818,
                "tempo": 120.0
            },
            {
                "start_time": 15.9613636,
                "end_time": 16.1113636,
                "pitch": 29,
                "velocity": 51,
                "duration": 0.15,
                "tempo": 120.0
            },
            {
                "start_time": 16.1454545,
                "end_time": 16.2977273,
                "pitch": 29,
                "velocity": 51,
                "duration": 0.1522727,
                "tempo": 120.0
            },
            {
                "start_time": 16.3318182,
                "end_time": 16.4818182,
                "pitch": 41,
                "velocity": 51,
                "duration": 0.15,
                "tempo": 120.0
            },
            {
                "start_time": 16.5136364,
                "end_time": 16.6636364,
                "pitch": 29,
                "velocity": 51,
                "duration": 0.15,
                "tempo": 120.0
            },
            {
                "start_time": 16.6954545,
                "end_time": 16.8477273,
                "pitch": 29,
                "velocity": 51,
                "duration": 0.1522727,
                "tempo": 120.0
            },
            {
                "start_time": 16.8818182,
                "end_time": 17.0340909,
                "pitch": 29,
                "velocity": 51,
                "duration": 0.1522727,
                "tempo": 120.0
            },
            {
                "start_time": 17.0681818,
                "end_time": 17.2204545,
                "pitch": 41,
                "velocity": 51,
                "duration": 0.1522727,
                "tempo": 120.0
            },
            {
                "start_time": 17.2386364,
                "end_time": 17.4068182,
                "pitch": 29,
                "velocity": 51,
                "duration": 0.1681818,
                "tempo": 120.0
            },
            {
                "start_time": 17.425,
                "end_time": 17.5681818,
                "pitch": 27,
                "velocity": 51,
                "duration": 0.1431818,
                "tempo": 120.0
            },
            {
                "start_time": 17.6,
                "end_time": 17.7454545,
                "pitch": 27,
                "velocity": 51,
                "duration": 0.1454545,
                "tempo": 120.0
            },
            {
                "start_time": 17.7772727,
                "end_time": 17.925,
                "pitch": 39,
                "velocity": 51,
                "duration": 0.1477273,
                "tempo": 120.0
            },
            {
                "start_time": 17.9590909,
                "end_time": 18.1068182,
                "pitch": 27,
                "velocity": 51,
                "duration": 0.1477273,
                "tempo": 120.0
            },
            {
                "start_time": 18.1409091,
                "end_time": 18.2931818,
                "pitch": 27,
                "velocity": 51,
                "duration": 0.1522727,
                "tempo": 120.0
            },
            {
                "start_time": 18.3272727,
                "end_time": 18.4795455,
                "pitch": 27,
                "velocity": 51,
                "duration": 0.1522727,
                "tempo": 120.0
            },
            {
                "start_time": 18.5136364,
                "end_time": 18.6659091,
                "pitch": 39,
                "velocity": 51,
                "duration": 0.1522727,
                "tempo": 120.0
            },
            {
                "start_time": 18.7,
                "end_time": 18.8522727,
                "pitch": 27,
                "velocity": 51,
                "duration": 0.1522727,
                "tempo": 120.0
            },
            {
                "start_time": 18.8863636,
                "end_time": 19.0363636,
                "pitch": 27,
                "velocity": 51,
                "duration": 0.15,
                "tempo": 120.0
            },
            {
                "start_time": 19.0545455,
                "end_time": 19.2068182,
                "pitch": 27,
                "velocity": 51,
                "duration": 0.1522727,
                "tempo": 120.0
            },
            {
                "start_time": 19.2409091,
                "end_time": 19.3863636,
                "pitch": 39,
                "velocity": 51,
                "duration": 0.1454545,
                "tempo": 120.0
            },
            {
                "start_time": 19.4181818,
                "end_time": 19.5613636,
                "pitch": 27,
                "velocity": 51,
                "duration": 0.1431818,
                "tempo": 120.0
            },
            {
                "start_time": 19.5954545,
                "end_time": 19.7431818,
                "pitch": 27,
                "velocity": 51,
                "duration": 0.1477273,
                "tempo": 120.0
            },
            {
                "start_time": 19.7772727,
                "end_time": 19.925,
                "pitch": 27,
                "velocity": 51,
                "duration": 0.1477273,
                "tempo": 120.0
            },
            {
                "start_time": 19.9590909,
                "end_time": 20.1090909,
                "pitch": 39,
                "velocity": 51,
                "duration": 0.15,
                "tempo": 120.0
            },
            {
                "start_time": 20.1454545,
                "end_time": 20.2954545,
                "pitch": 27,
                "velocity": 51,
                "duration": 0.15,
                "tempo": 120.0
            },
            {
                "start_time": 20.3318182,
                "end_time": 20.4818182,
                "pitch": 38,
                "velocity": 51,
                "duration": 0.15,
                "tempo": 120.0
            },
            {
                "start_time": 20.5159091,
                "end_time": 20.6681818,
                "pitch": 38,
                "velocity": 51,
                "duration": 0.1522727,
                "tempo": 120.0
            },
            {
                "start_time": 20.6863636,
                "end_time": 20.8454545,
                "pitch": 50,
                "velocity": 51,
                "duration": 0.1590909,
                "tempo": 120.0
            },
            {
                "start_time": 20.8636364,
                "end_time": 21.0068182,
                "pitch": 38,
                "velocity": 51,
                "duration": 0.1431818,
                "tempo": 120.0
            },
            {
                "start_time": 21.0386364,
                "end_time": 21.1909091,
                "pitch": 38,
                "velocity": 51,
                "duration": 0.1522727,
                "tempo": 120.0
            },
            {
                "start_time": 21.225,
                "end_time": 21.3772727,
                "pitch": 38,
                "velocity": 51,
                "duration": 0.1522727,
                "tempo": 120.0
            },
            {
                "start_time": 21.4113636,
                "end_time": 21.5590909,
                "pitch": 50,
                "velocity": 51,
                "duration": 0.1477273,
                "tempo": 120.0
            },
            {
                "start_time": 21.5931818,
                "end_time": 21.7409091,
                "pitch": 38,
                "velocity": 51,
                "duration": 0.1477273,
                "tempo": 120.0
            },
            {
                "start_time": 21.7772727,
                "end_time": 21.9272727,
                "pitch": 38,
                "velocity": 51,
                "duration": 0.15,
                "tempo": 120.0
            },
            {
                "start_time": 21.9613636,
                "end_time": 22.1113636,
                "pitch": 38,
                "velocity": 51,
                "duration": 0.15,
                "tempo": 120.0
            },
            {
                "start_time": 22.1477273,
                "end_time": 22.2977273,
                "pitch": 50,
                "velocity": 51,
                "duration": 0.15,
                "tempo": 120.0
            },
            {
                "start_time": 22.3318182,
                "end_time": 22.4840909,
                "pitch": 38,
                "velocity": 51,
                "duration": 0.1522727,
                "tempo": 120.0
            },
            {
                "start_time": 22.5022727,
                "end_time": 22.6454545,
                "pitch": 38,
                "velocity": 51,
                "duration": 0.1431818,
                "tempo": 120.0
            },
            {
                "start_time": 22.6795455,
                "end_time": 22.8227273,
                "pitch": 38,
                "velocity": 51,
                "duration": 0.1431818,
                "tempo": 120.0
            },
            {
                "start_time": 22.8545455,
                "end_time": 23.0045455,
                "pitch": 50,
                "velocity": 51,
                "duration": 0.15,
                "tempo": 120.0
            },
            {
                "start_time": 23.0363636,
                "end_time": 23.1863636,
                "pitch": 38,
                "velocity": 51,
                "duration": 0.15,
                "tempo": 120.0
            },
            {
                "start_time": 23.2204545,
                "end_time": 23.3704545,
                "pitch": 27,
                "velocity": 51,
                "duration": 0.15,
                "tempo": 120.0
            },
            {
                "start_time": 23.4045455,
                "end_time": 23.5568182,
                "pitch": 27,
                "velocity": 51,
                "duration": 0.1522727,
                "tempo": 120.0
            },
            {
                "start_time": 23.5909091,
                "end_time": 23.7431818,
                "pitch": 39,
                "velocity": 51,
                "duration": 0.1522727,
                "tempo": 120.0
            },
            {
                "start_time": 23.7772727,
                "end_time": 23.9295455,
                "pitch": 27,
                "velocity": 51,
                "duration": 0.1522727,
                "tempo": 120.0
            },
            {
                "start_time": 23.9636364,
                "end_time": 24.1159091,
                "pitch": 27,
                "velocity": 51,
                "duration": 0.1522727,
                "tempo": 120.0
            },
            {
                "start_time": 24.1340909,
                "end_time": 24.3022727,
                "pitch": 27,
                "velocity": 51,
                "duration": 0.1681818,
                "tempo": 120.0
            },
            {
                "start_time": 24.3204545,
                "end_time": 24.4636364,
                "pitch": 39,
                "velocity": 51,
                "duration": 0.1431818,
                "tempo": 120.0
            },
            {
                "start_time": 24.4977273,
                "end_time": 24.6409091,
                "pitch": 27,
                "velocity": 51,
                "duration": 0.1431818,
                "tempo": 120.0
            },
            {
                "start_time": 24.6727273,
                "end_time": 24.825,
                "pitch": 29,
                "velocity": 51,
                "duration": 0.1522727,
                "tempo": 120.0
            },
            {
                "start_time": 24.8590909,
                "end_time": 25.0113636,
                "pitch": 29,
                "velocity": 51,
                "duration": 0.1522727,
                "tempo": 120.0
            },
            {
                "start_time": 25.0454545,
                "end_time": 25.1931818,
                "pitch": 41,
                "velocity": 51,
                "duration": 0.1477273,
                "tempo": 120.0
            },
            {
                "start_time": 25.2272727,
                "end_time": 25.375,
                "pitch": 29,
                "velocity": 51,
                "duration": 0.1477273,
                "tempo": 120.0
            },
            {
                "start_time": 25.4090909,
                "end_time": 25.5590909,
                "pitch": 29,
                "velocity": 51,
                "duration": 0.15,
                "tempo": 120.0
            },
            {
                "start_time": 25.5954545,
                "end_time": 25.7454545,
                "pitch": 29,
                "velocity": 51,
                "duration": 0.15,
                "tempo": 120.0
            },
            {
                "start_time": 25.7636364,
                "end_time": 25.925,
                "pitch": 41,
                "velocity": 51,
                "duration": 0.1613636,
                "tempo": 120.0
            },
            {
                "start_time": 25.9409091,
                "end_time": 26.0840909,
                "pitch": 29,
                "velocity": 51,
                "duration": 0.1431818,
                "tempo": 120.0
            },
            {
                "start_time": 26.1181818,
                "end_time": 26.2681818,
                "pitch": 38,
                "velocity": 51,
                "duration": 0.15,
                "tempo": 120.0
            },
            {
                "start_time": 26.3022727,
                "end_time": 26.4545455,
                "pitch": 38,
                "velocity": 51,
                "duration": 0.1522727,
                "tempo": 120.0
            },
            {
                "start_time": 26.4886364,
                "end_time": 26.6363636,
                "pitch": 50,
                "velocity": 51,
                "duration": 0.1477273,
                "tempo": 120.0
            },
            {
                "start_time": 26.6704545,
                "end_time": 26.8181818,
                "pitch": 38,
                "velocity": 51,
                "duration": 0.1477273,
                "tempo": 120.0
            },
            {
                "start_time": 26.8522727,
                "end_time": 27.0045455,
                "pitch": 38,
                "velocity": 51,
                "duration": 0.1522727,
                "tempo": 120.0
            },
            {
                "start_time": 27.0386364,
                "end_time": 27.1909091,
                "pitch": 38,
                "velocity": 51,
                "duration": 0.1522727,
                "tempo": 120.0
            },
            {
                "start_time": 27.225,
                "end_time": 27.3772727,
                "pitch": 50,
                "velocity": 51,
                "duration": 0.1522727,
                "tempo": 120.0
            },
            {
                "start_time": 27.4113636,
                "end_time": 27.5636364,
                "pitch": 38,
                "velocity": 51,
                "duration": 0.1522727,
                "tempo": 120.0
            },
            {
                "start_time": 27.5818182,
                "end_time": 27.725,
                "pitch": 31,
                "velocity": 51,
                "duration": 0.1431818,
                "tempo": 120.0
            },
            {
                "start_time": 27.7568182,
                "end_time": 27.9,
                "pitch": 31,
                "velocity": 51,
                "duration": 0.1431818,
                "tempo": 120.0
            },
            {
                "start_time": 27.9340909,
                "end_time": 28.0840909,
                "pitch": 43,
                "velocity": 51,
                "duration": 0.15,
                "tempo": 120.0
            },
            {
                "start_time": 28.1204545,
                "end_time": 28.2704545,
                "pitch": 31,
                "velocity": 51,
                "duration": 0.15,
                "tempo": 120.0
            },
            {
                "start_time": 28.3068182,
                "end_time": 28.4545455,
                "pitch": 31,
                "velocity": 51,
                "duration": 0.1477273,
                "tempo": 120.0
            },
            {
                "start_time": 28.4863636,
                "end_time": 28.6363636,
                "pitch": 31,
                "velocity": 51,
                "duration": 0.15,
                "tempo": 120.0
            },
            {
                "start_time": 28.6681818,
                "end_time": 28.8204545,
                "pitch": 43,
                "velocity": 51,
                "duration": 0.1522727,
                "tempo": 120.0
            },
            {
                "start_time": 28.8545455,
                "end_time": 29.0068182,
                "pitch": 31,
                "velocity": 51,
                "duration": 0.1522727,
                "tempo": 120.0
            },
            {
                "start_time": 29.0431818,
                "end_time": 29.1931818,
                "pitch": 36,
                "velocity": 51,
                "duration": 0.15,
                "tempo": 120.0
            },
            {
                "start_time": 29.2113636,
                "end_time": 29.3795455,
                "pitch": 36,
                "velocity": 51,
                "duration": 0.1681818,
                "tempo": 120.0
            },
            {
                "start_time": 29.3977273,
                "end_time": 29.5409091,
                "pitch": 48,
                "velocity": 51,
                "duration": 0.1431818,
                "tempo": 120.0
            },
            {
                "start_time": 29.5727273,
                "end_time": 29.7181818,
                "pitch": 36,
                "velocity": 51,
                "duration": 0.1454545,
                "tempo": 120.0
            },
            {
                "start_time": 29.75,
                "end_time": 29.8977273,
                "pitch": 36,
                "velocity": 51,
                "duration": 0.1477273,
                "tempo": 120.0
            },
            {
                "start_time": 29.9318182,
                "end_time": 30.0795455,
                "pitch": 36,
                "velocity": 51,
                "duration": 0.1477273,
                "tempo": 120.0
            },
            {
                "start_time": 30.1136364,
                "end_time": 30.2659091,
                "pitch": 48,
                "velocity": 51,
                "duration": 0.1522727,
                "tempo": 120.0
            },
            {
                "start_time": 30.3,
                "end_time": 30.4522727,
                "pitch": 36,
                "velocity": 51,
                "duration": 0.1522727,
                "tempo": 120.0
            },
            {
                "start_time": 30.4863636,
                "end_time": 30.6386364,
                "pitch": 29,
                "velocity": 51,
                "duration": 0.1522727,
                "tempo": 120.0
            },
            {
                "start_time": 30.6727273,
                "end_time": 30.825,
                "pitch": 29,
                "velocity": 51,
                "duration": 0.1522727,
                "tempo": 120.0
            },
            {
                "start_time": 30.8590909,
                "end_time": 31.0068182,
                "pitch": 41,
                "velocity": 51,
                "duration": 0.1477273,
                "tempo": 120.0
            },
            {
                "start_time": 31.0227273,
                "end_time": 31.1727273,
                "pitch": 29,
                "velocity": 51,
                "duration": 0.15,
                "tempo": 120.0
            },
            {
                "start_time": 31.2068182,
                "end_time": 31.3545455,
                "pitch": 29,
                "velocity": 51,
                "duration": 0.1477273,
                "tempo": 120.0
            },
            {
                "start_time": 31.3863636,
                "end_time": 31.5363636,
                "pitch": 29,
                "velocity": 51,
                "duration": 0.15,
                "tempo": 120.0
            },
            {
                "start_time": 31.5681818,
                "end_time": 31.7181818,
                "pitch": 41,
                "velocity": 51,
                "duration": 0.15,
                "tempo": 120.0
            },
            {
                "start_time": 31.75,
                "end_time": 31.9,
                "pitch": 29,
                "velocity": 51,
                "duration": 0.15,
                "tempo": 120.0
            },
            {
                "start_time": 31.9340909,
                "end_time": 32.0840909,
                "pitch": 34,
                "velocity": 51,
                "duration": 0.15,
                "tempo": 120.0
            },
            {
                "start_time": 32.1181818,
                "end_time": 32.2704545,
                "pitch": 34,
                "velocity": 51,
                "duration": 0.1522727,
                "tempo": 120.0
            },
            {
                "start_time": 32.3045455,
                "end_time": 32.4568182,
                "pitch": 46,
                "velocity": 51,
                "duration": 0.1522727,
                "tempo": 120.0
            },
            {
                "start_time": 32.4909091,
                "end_time": 32.6431818,
                "pitch": 34,
                "velocity": 51,
                "duration": 0.1522727,
                "tempo": 120.0
            },
            {
                "start_time": 32.6613636,
                "end_time": 32.8204545,
                "pitch": 34,
                "velocity": 51,
                "duration": 0.1590909,
                "tempo": 120.0
            },
            {
                "start_time": 32.8363636,
                "end_time": 32.9818182,
                "pitch": 34,
                "velocity": 51,
                "duration": 0.1454545,
                "tempo": 120.0
            },
            {
                "start_time": 33.0136364,
                "end_time": 33.1659091,
                "pitch": 46,
                "velocity": 51,
                "duration": 0.1522727,
                "tempo": 120.0
            },
            {
                "start_time": 33.2,
                "end_time": 33.3522727,
                "pitch": 34,
                "velocity": 51,
                "duration": 0.1522727,
                "tempo": 120.0
            },
            {
                "start_time": 33.3863636,
                "end_time": 33.5340909,
                "pitch": 38,
                "velocity": 51,
                "duration": 0.1477273,
                "tempo": 120.0
            },
            {
                "start_time": 33.5681818,
                "end_time": 33.7159091,
                "pitch": 38,
                "velocity": 51,
                "duration": 0.1477273,
                "tempo": 120.0
            },
            {
                "start_time": 33.75,
                "end_time": 33.9,
                "pitch": 50,
                "velocity": 51,
                "duration": 0.15,
                "tempo": 120.0
            },
            {
                "start_time": 33.9340909,
                "end_time": 34.0863636,
                "pitch": 38,
                "velocity": 51,
                "duration": 0.1522727,
                "tempo": 120.0
            },
            {
                "start_time": 34.1204545,
                "end_time": 34.2704545,
                "pitch": 38,
                "velocity": 51,
                "duration": 0.15,
                "tempo": 120.0
            },
            {
                "start_time": 34.2863636,
                "end_time": 34.4522727,
                "pitch": 38,
                "velocity": 51,
                "duration": 0.1659091,
                "tempo": 120.0
            },
            {
                "start_time": 34.4681818,
                "end_time": 34.6159091,
                "pitch": 50,
                "velocity": 51,
                "duration": 0.1477273,
                "tempo": 120.0
            },
            {
                "start_time": 34.65,
                "end_time": 34.7977273,
                "pitch": 38,
                "velocity": 51,
                "duration": 0.1477273,
                "tempo": 120.0
            },
            {
                "start_time": 34.8340909,
                "end_time": 36.2590909,
                "pitch": 31,
                "velocity": 51,
                "duration": 1.425,
                "tempo": 120.0
            },
            {
                "start_time": 36.4727273,
                "end_time": 36.6159091,
                "pitch": 31,
                "velocity": 51,
                "duration": 0.1431818,
                "tempo": 120.0
            },
            {
                "start_time": 36.65,
                "end_time": 36.9795455,
                "pitch": 31,
                "velocity": 51,
                "duration": 0.3295455,
                "tempo": 120.0
            },
            {
                "start_time": 37.0113636,
                "end_time": 37.0795455,
                "pitch": 31,
                "velocity": 51,
                "duration": 0.0681818,
                "tempo": 120.0
            },
            {
                "start_time": 37.0977273,
                "end_time": 37.1636364,
                "pitch": 31,
                "velocity": 51,
                "duration": 0.0659091,
                "tempo": 120.0
            },
            {
                "start_time": 37.1977273,
                "end_time": 37.2477273,
                "pitch": 31,
                "velocity": 51,
                "duration": 0.05,
                "tempo": 120.0
            },
            {
                "start_time": 37.2818182,
                "end_time": 37.35,
                "pitch": 31,
                "velocity": 51,
                "duration": 0.0681818,
                "tempo": 120.0
            },
            {
                "start_time": 37.3840909,
                "end_time": 37.4340909,
                "pitch": 31,
                "velocity": 51,
                "duration": 0.05,
                "tempo": 120.0
            },
            {
                "start_time": 37.4681818,
                "end_time": 37.5363636,
                "pitch": 31,
                "velocity": 51,
                "duration": 0.0681818,
                "tempo": 120.0
            },
            {
                "start_time": 37.5704545,
                "end_time": 37.6204545,
                "pitch": 31,
                "velocity": 51,
                "duration": 0.05,
                "tempo": 120.0
            },
            {
                "start_time": 37.6545455,
                "end_time": 37.7227273,
                "pitch": 31,
                "velocity": 51,
                "duration": 0.0681818,
                "tempo": 120.0
            },
            {
                "start_time": 37.7409091,
                "end_time": 39.1659091,
                "pitch": 27,
                "velocity": 51,
                "duration": 1.425,
                "tempo": 120.0
            },
            {
                "start_time": 39.3886364,
                "end_time": 39.5386364,
                "pitch": 27,
                "velocity": 51,
                "duration": 0.15,
                "tempo": 120.0
            },
            {
                "start_time": 39.5568182,
                "end_time": 39.8772727,
                "pitch": 27,
                "velocity": 51,
                "duration": 0.3204545,
                "tempo": 120.0
            },
            {
                "start_time": 39.9090909,
                "end_time": 39.975,
                "pitch": 27,
                "velocity": 51,
                "duration": 0.0659091,
                "tempo": 120.0
            },
            {
                "start_time": 40.0090909,
                "end_time": 40.0590909,
                "pitch": 27,
                "velocity": 51,
                "duration": 0.05,
                "tempo": 120.0
            },
            {
                "start_time": 40.0931818,
                "end_time": 40.1568182,
                "pitch": 27,
                "velocity": 51,
                "duration": 0.0636364,
                "tempo": 120.0
            },
            {
                "start_time": 40.1909091,
                "end_time": 40.2409091,
                "pitch": 27,
                "velocity": 51,
                "duration": 0.05,
                "tempo": 120.0
            },
            {
                "start_time": 40.275,
                "end_time": 40.3409091,
                "pitch": 27,
                "velocity": 51,
                "duration": 0.0659091,
                "tempo": 120.0
            },
            {
                "start_time": 40.3568182,
                "end_time": 40.425,
                "pitch": 27,
                "velocity": 51,
                "duration": 0.0681818,
                "tempo": 120.0
            },
            {
                "start_time": 40.4590909,
                "end_time": 40.5090909,
                "pitch": 27,
                "velocity": 51,
                "duration": 0.05,
                "tempo": 120.0
            },
            {
                "start_time": 40.5431818,
                "end_time": 40.6113636,
                "pitch": 27,
                "velocity": 51,
                "duration": 0.0681818,
                "tempo": 120.0
            },
            {
                "start_time": 40.6477273,
                "end_time": 42.0659091,
                "pitch": 36,
                "velocity": 51,
                "duration": 1.4181818,
                "tempo": 120.0
            },
            {
                "start_time": 42.2840909,
                "end_time": 42.4318182,
                "pitch": 33,
                "velocity": 51,
                "duration": 0.1477273,
                "tempo": 120.0
            },
            {
                "start_time": 42.4659091,
                "end_time": 42.8022727,
                "pitch": 33,
                "velocity": 51,
                "duration": 0.3363636,
                "tempo": 120.0
            },
            {
                "start_time": 42.8204545,
                "end_time": 42.8840909,
                "pitch": 33,
                "velocity": 51,
                "duration": 0.0636364,
                "tempo": 120.0
            },
            {
                "start_time": 42.9159091,
                "end_time": 42.9795455,
                "pitch": 33,
                "velocity": 51,
                "duration": 0.0636364,
                "tempo": 120.0
            },
            {
                "start_time": 42.9977273,
                "end_time": 43.0590909,
                "pitch": 33,
                "velocity": 51,
                "duration": 0.0613636,
                "tempo": 120.0
            },
            {
                "start_time": 43.0931818,
                "end_time": 43.1409091,
                "pitch": 33,
                "velocity": 51,
                "duration": 0.0477273,
                "tempo": 120.0
            },
            {
                "start_time": 43.1727273,
                "end_time": 43.2386364,
                "pitch": 33,
                "velocity": 51,
                "duration": 0.0659091,
                "tempo": 120.0
            },
            {
                "start_time": 43.275,
                "end_time": 43.325,
                "pitch": 33,
                "velocity": 51,
                "duration": 0.05,
                "tempo": 120.0
            },
            {
                "start_time": 43.3590909,
                "end_time": 43.425,
                "pitch": 33,
                "velocity": 51,
                "duration": 0.0659091,
                "tempo": 120.0
            },
            {
                "start_time": 43.4590909,
                "end_time": 43.5113636,
                "pitch": 33,
                "velocity": 51,
                "duration": 0.0522727,
                "tempo": 120.0
            },
            {
                "start_time": 43.5454545,
                "end_time": 43.6977273,
                "pitch": 38,
                "velocity": 51,
                "duration": 0.1522727,
                "tempo": 120.0
            },
            {
                "start_time": 43.7318182,
                "end_time": 43.8840909,
                "pitch": 38,
                "velocity": 51,
                "duration": 0.1522727,
                "tempo": 120.0
            },
            {
                "start_time": 43.9181818,
                "end_time": 44.0659091,
                "pitch": 50,
                "velocity": 51,
                "duration": 0.1477273,
                "tempo": 120.0
            },
            {
                "start_time": 44.1,
                "end_time": 44.2477273,
                "pitch": 38,
                "velocity": 51,
                "duration": 0.1477273,
                "tempo": 120.0
            },
            {
                "start_time": 44.2818182,
                "end_time": 44.4295455,
                "pitch": 38,
                "velocity": 51,
                "duration": 0.1477273,
                "tempo": 120.0
            },
            {
                "start_time": 44.4636364,
                "end_time": 44.6113636,
                "pitch": 38,
                "velocity": 51,
                "duration": 0.1477273,
                "tempo": 120.0
            },
            {
                "start_time": 44.6272727,
                "end_time": 44.775,
                "pitch": 50,
                "velocity": 51,
                "duration": 0.1477273,
                "tempo": 120.0
            },
            {
                "start_time": 44.8090909,
                "end_time": 44.9590909,
                "pitch": 38,
                "velocity": 51,
                "duration": 0.15,
                "tempo": 120.0
            },
            {
                "start_time": 44.9931818,
                "end_time": 45.1386364,
                "pitch": 38,
                "velocity": 51,
                "duration": 0.1454545,
                "tempo": 120.0
            },
            {
                "start_time": 45.1727273,
                "end_time": 45.3204545,
                "pitch": 38,
                "velocity": 51,
                "duration": 0.1477273,
                "tempo": 120.0
            },
            {
                "start_time": 45.3545455,
                "end_time": 45.5068182,
                "pitch": 50,
                "velocity": 51,
                "duration": 0.1522727,
                "tempo": 120.0
            },
            {
                "start_time": 45.5409091,
                "end_time": 45.6931818,
                "pitch": 38,
                "velocity": 51,
                "duration": 0.1522727,
                "tempo": 120.0
            },
            {
                "start_time": 45.7272727,
                "end_time": 45.8795455,
                "pitch": 38,
                "velocity": 51,
                "duration": 0.1522727,
                "tempo": 120.0
            },
            {
                "start_time": 45.9136364,
                "end_time": 46.0659091,
                "pitch": 38,
                "velocity": 51,
                "duration": 0.1522727,
                "tempo": 120.0
            },
            {
                "start_time": 46.1,
                "end_time": 46.2477273,
                "pitch": 50,
                "velocity": 51,
                "duration": 0.1477273,
                "tempo": 120.0
            },
            {
                "start_time": 46.2659091,
                "end_time": 46.4295455,
                "pitch": 38,
                "velocity": 51,
                "duration": 0.1636364,
                "tempo": 120.0
            },
            {
                "start_time": 46.4477273,
                "end_time": 47.8840909,
                "pitch": 31,
                "velocity": 51,
                "duration": 1.4363636,
                "tempo": 120.0
            },
            {
                "start_time": 48.0795455,
                "end_time": 48.2227273,
                "pitch": 31,
                "velocity": 51,
                "duration": 0.1431818,
                "tempo": 120.0
            },
            {
                "start_time": 48.2545455,
                "end_time": 48.5840909,
                "pitch": 31,
                "velocity": 51,
                "duration": 0.3295455,
                "tempo": 120.0
            },
            {
                "start_time": 48.6181818,
                "end_time": 48.6840909,
                "pitch": 31,
                "velocity": 51,
                "duration": 0.0659091,
                "tempo": 120.0
            },
            {
                "start_time": 48.7204545,
                "end_time": 48.7704545,
                "pitch": 31,
                "velocity": 51,
                "duration": 0.05,
                "tempo": 120.0
            },
            {
                "start_time": 48.8045455,
                "end_time": 48.8704545,
                "pitch": 31,
                "velocity": 51,
                "duration": 0.0659091,
                "tempo": 120.0
            },
            {
                "start_time": 48.8886364,
                "end_time": 48.9568182,
                "pitch": 31,
                "velocity": 51,
                "duration": 0.0681818,
                "tempo": 120.0
            },
            {
                "start_time": 48.9909091,
                "end_time": 49.0409091,
                "pitch": 31,
                "velocity": 51,
                "duration": 0.05,
                "tempo": 120.0
            },
            {
                "start_time": 49.075,
                "end_time": 49.1431818,
                "pitch": 31,
                "velocity": 51,
                "duration": 0.0681818,
                "tempo": 120.0
            },
            {
                "start_time": 49.1772727,
                "end_time": 49.2272727,
                "pitch": 31,
                "velocity": 51,
                "duration": 0.05,
                "tempo": 120.0
            },
            {
                "start_time": 49.2613636,
                "end_time": 49.3295455,
                "pitch": 31,
                "velocity": 51,
                "duration": 0.0681818,
                "tempo": 120.0
            },
            {
                "start_time": 49.3636364,
                "end_time": 50.7840909,
                "pitch": 27,
                "velocity": 51,
                "duration": 1.4204545,
                "tempo": 120.0
            },
            {
                "start_time": 51.0022727,
                "end_time": 51.15,
                "pitch": 27,
                "velocity": 51,
                "duration": 0.1477273,
                "tempo": 120.0
            },
            {
                "start_time": 51.1840909,
                "end_time": 51.5113636,
                "pitch": 27,
                "velocity": 51,
                "duration": 0.3272727,
                "tempo": 120.0
            },
            {
                "start_time": 51.5295455,
                "end_time": 51.5931818,
                "pitch": 27,
                "velocity": 51,
                "duration": 0.0636364,
                "tempo": 120.0
            },
            {
                "start_time": 51.625,
                "end_time": 51.6727273,
                "pitch": 27,
                "velocity": 51,
                "duration": 0.0477273,
                "tempo": 120.0
            },
            {
                "start_time": 51.7068182,
                "end_time": 51.7704545,
                "pitch": 27,
                "velocity": 51,
                "duration": 0.0636364,
                "tempo": 120.0
            },
            {
                "start_time": 51.8022727,
                "end_time": 51.85,
                "pitch": 27,
                "velocity": 51,
                "duration": 0.0477273,
                "tempo": 120.0
            },
            {
                "start_time": 51.8818182,
                "end_time": 51.95,
                "pitch": 27,
                "velocity": 51,
                "duration": 0.0681818,
                "tempo": 120.0
            },
            {
                "start_time": 51.9840909,
                "end_time": 52.0340909,
                "pitch": 27,
                "velocity": 51,
                "duration": 0.05,
                "tempo": 120.0
            },
            {
                "start_time": 52.0681818,
                "end_time": 52.1363636,
                "pitch": 27,
                "velocity": 51,
                "duration": 0.0681818,
                "tempo": 120.0
            },
            {
                "start_time": 52.1704545,
                "end_time": 52.2204545,
                "pitch": 27,
                "velocity": 51,
                "duration": 0.05,
                "tempo": 120.0
            },
            {
                "start_time": 52.2568182,
                "end_time": 53.6772727,
                "pitch": 36,
                "velocity": 51,
                "duration": 1.4204545,
                "tempo": 120.0
            },
            {
                "start_time": 53.8931818,
                "end_time": 54.0409091,
                "pitch": 33,
                "velocity": 51,
                "duration": 0.1477273,
                "tempo": 120.0
            },
            {
                "start_time": 54.075,
                "end_time": 54.4113636,
                "pitch": 33,
                "velocity": 51,
                "duration": 0.3363636,
                "tempo": 120.0
            },
            {
                "start_time": 54.4454545,
                "end_time": 54.4954545,
                "pitch": 33,
                "velocity": 51,
                "duration": 0.05,
                "tempo": 120.0
            },
            {
                "start_time": 54.5295455,
                "end_time": 54.5931818,
                "pitch": 33,
                "velocity": 51,
                "duration": 0.0636364,
                "tempo": 120.0
            },
            {
                "start_time": 54.6272727,
                "end_time": 54.6772727,
                "pitch": 33,
                "velocity": 51,
                "duration": 0.05,
                "tempo": 120.0
            },
            {
                "start_time": 54.7090909,
                "end_time": 54.775,
                "pitch": 33,
                "velocity": 51,
                "duration": 0.0659091,
                "tempo": 120.0
            },
            {
                "start_time": 54.7931818,
                "end_time": 54.8590909,
                "pitch": 33,
                "velocity": 51,
                "duration": 0.0659091,
                "tempo": 120.0
            },
            {
                "start_time": 54.8909091,
                "end_time": 54.9568182,
                "pitch": 33,
                "velocity": 51,
                "duration": 0.0659091,
                "tempo": 120.0
            },
            {
                "start_time": 54.975,
                "end_time": 55.0409091,
                "pitch": 33,
                "velocity": 51,
                "duration": 0.0659091,
                "tempo": 120.0
            },
            {
                "start_time": 55.0727273,
                "end_time": 55.1227273,
                "pitch": 33,
                "velocity": 51,
                "duration": 0.05,
                "tempo": 120.0
            },
            {
                "start_time": 55.1568182,
                "end_time": 55.3068182,
                "pitch": 38,
                "velocity": 51,
                "duration": 0.15,
                "tempo": 120.0
            },
            {
                "start_time": 55.3431818,
                "end_time": 55.4931818,
                "pitch": 38,
                "velocity": 51,
                "duration": 0.15,
                "tempo": 120.0
            },
            {
                "start_time": 55.5295455,
                "end_time": 55.6772727,
                "pitch": 50,
                "velocity": 51,
                "duration": 0.1477273,
                "tempo": 120.0
            },
            {
                "start_time": 55.7113636,
                "end_time": 55.8590909,
                "pitch": 38,
                "velocity": 51,
                "duration": 0.1477273,
                "tempo": 120.0
            },
            {
                "start_time": 55.8931818,
                "end_time": 56.0431818,
                "pitch": 38,
                "velocity": 51,
                "duration": 0.15,
                "tempo": 120.0
            },
            {
                "start_time": 56.0772727,
                "end_time": 56.2295455,
                "pitch": 38,
                "velocity": 51,
                "duration": 0.1522727,
                "tempo": 120.0
            },
            {
                "start_time": 56.2636364,
                "end_time": 56.4136364,
                "pitch": 50,
                "velocity": 51,
                "duration": 0.15,
                "tempo": 120.0
            },
            {
                "start_time": 56.4454545,
                "end_time": 56.5954545,
                "pitch": 38,
                "velocity": 51,
                "duration": 0.15,
                "tempo": 120.0
            },
            {
                "start_time": 56.6113636,
                "end_time": 56.7590909,
                "pitch": 38,
                "velocity": 51,
                "duration": 0.1477273,
                "tempo": 120.0
            },
            {
                "start_time": 56.7931818,
                "end_time": 56.9409091,
                "pitch": 38,
                "velocity": 51,
                "duration": 0.1477273,
                "tempo": 120.0
            },
            {
                "start_time": 56.975,
                "end_time": 57.1227273,
                "pitch": 50,
                "velocity": 51,
                "duration": 0.1477273,
                "tempo": 120.0
            },
            {
                "start_time": 57.1568182,
                "end_time": 57.3045455,
                "pitch": 38,
                "velocity": 51,
                "duration": 0.1477273,
                "tempo": 120.0
            },
            {
                "start_time": 57.3386364,
                "end_time": 57.4909091,
                "pitch": 38,
                "velocity": 51,
                "duration": 0.1522727,
                "tempo": 120.0
            },
            {
                "start_time": 57.525,
                "end_time": 57.6772727,
                "pitch": 38,
                "velocity": 51,
                "duration": 0.1522727,
                "tempo": 120.0
            },
            {
                "start_time": 57.7113636,
                "end_time": 57.8636364,
                "pitch": 50,
                "velocity": 51,
                "duration": 0.1522727,
                "tempo": 120.0
            },
            {
                "start_time": 57.8977273,
                "end_time": 58.05,
                "pitch": 38,
                "velocity": 51,
                "duration": 0.1522727,
                "tempo": 120.0
            },
            {
                "start_time": 58.0840909,
                "end_time": 58.2318182,
                "pitch": 31,
                "velocity": 51,
                "duration": 0.1477273,
                "tempo": 120.0
            },
            {
                "start_time": 58.2477273,
                "end_time": 58.4136364,
                "pitch": 31,
                "velocity": 51,
                "duration": 0.1659091,
                "tempo": 120.0
            },
            {
                "start_time": 58.4295455,
                "end_time": 58.575,
                "pitch": 43,
                "velocity": 51,
                "duration": 0.1454545,
                "tempo": 120.0
            },
            {
                "start_time": 58.6068182,
                "end_time": 58.75,
                "pitch": 31,
                "velocity": 51,
                "duration": 0.1431818,
                "tempo": 120.0
            },
            {
                "start_time": 58.7840909,
                "end_time": 58.9340909,
                "pitch": 31,
                "velocity": 51,
                "duration": 0.15,
                "tempo": 120.0
            },
            {
                "start_time": 58.9681818,
                "end_time": 59.1204545,
                "pitch": 31,
                "velocity": 51,
                "duration": 0.1522727,
                "tempo": 120.0
            },
            {
                "start_time": 59.1545455,
                "end_time": 59.3068182,
                "pitch": 43,
                "velocity": 51,
                "duration": 0.1522727,
                "tempo": 120.0
            },
            {
                "start_time": 59.3409091,
                "end_time": 59.4931818,
                "pitch": 31,
                "velocity": 51,
                "duration": 0.1522727,
                "tempo": 120.0
            },
            {
                "start_time": 59.5295455,
                "end_time": 59.675,
                "pitch": 31,
                "velocity": 51,
                "duration": 0.1454545,
                "tempo": 120.0
            },
            {
                "start_time": 59.7090909,
                "end_time": 59.8568182,
                "pitch": 31,
                "velocity": 51,
                "duration": 0.1477273,
                "tempo": 120.0
            },
            {
                "start_time": 59.875,
                "end_time": 60.0340909,
                "pitch": 43,
                "velocity": 51,
                "duration": 0.1590909,
                "tempo": 120.0
            },
            {
                "start_time": 60.05,
                "end_time": 60.1954545,
                "pitch": 31,
                "velocity": 51,
                "duration": 0.1454545,
                "tempo": 120.0
            },
            {
                "start_time": 60.2272727,
                "end_time": 60.3795455,
                "pitch": 31,
                "velocity": 51,
                "duration": 0.1522727,
                "tempo": 120.0
            },
            {
                "start_time": 60.4136364,
                "end_time": 60.5659091,
                "pitch": 31,
                "velocity": 51,
                "duration": 0.1522727,
                "tempo": 120.0
            },
            {
                "start_time": 60.6,
                "end_time": 60.7522727,
                "pitch": 43,
                "velocity": 51,
                "duration": 0.1522727,
                "tempo": 120.0
            },
            {
                "start_time": 60.7863636,
                "end_time": 60.9386364,
                "pitch": 31,
                "velocity": 51,
                "duration": 0.1522727,
                "tempo": 120.0
            },
            {
                "start_time": 60.9727273,
                "end_time": 61.125,
                "pitch": 31,
                "velocity": 51,
                "duration": 0.1522727,
                "tempo": 120.0
            },
            {
                "start_time": 61.1590909,
                "end_time": 61.3090909,
                "pitch": 31,
                "velocity": 51,
                "duration": 0.15,
                "tempo": 120.0
            },
            {
                "start_time": 61.3454545,
                "end_time": 61.4931818,
                "pitch": 43,
                "velocity": 51,
                "duration": 0.1477273,
                "tempo": 120.0
            },
            {
                "start_time": 61.525,
                "end_time": 61.675,
                "pitch": 31,
                "velocity": 51,
                "duration": 0.15,
                "tempo": 120.0
            },
            {
                "start_time": 61.6909091,
                "end_time": 61.8363636,
                "pitch": 31,
                "velocity": 51,
                "duration": 0.1454545,
                "tempo": 120.0
            },
            {
                "start_time": 61.8681818,
                "end_time": 62.0113636,
                "pitch": 31,
                "velocity": 51,
                "duration": 0.1431818,
                "tempo": 120.0
            },
            {
                "start_time": 62.0431818,
                "end_time": 62.1954545,
                "pitch": 43,
                "velocity": 51,
                "duration": 0.1522727,
                "tempo": 120.0
            },
            {
                "start_time": 62.2295455,
                "end_time": 62.3818182,
                "pitch": 31,
                "velocity": 51,
                "duration": 0.1522727,
                "tempo": 120.0
            },
            {
                "start_time": 62.4159091,
                "end_time": 62.5681818,
                "pitch": 31,
                "velocity": 51,
                "duration": 0.1522727,
                "tempo": 120.0
            },
            {
                "start_time": 62.6022727,
                "end_time": 62.7545455,
                "pitch": 31,
                "velocity": 51,
                "duration": 0.1522727,
                "tempo": 120.0
            },
            {
                "start_time": 62.7886364,
                "end_time": 62.9363636,
                "pitch": 43,
                "velocity": 51,
                "duration": 0.1477273,
                "tempo": 120.0
            },
            {
                "start_time": 62.9704545,
                "end_time": 63.1181818,
                "pitch": 31,
                "velocity": 51,
                "duration": 0.1477273,
                "tempo": 120.0
            },
            {
                "start_time": 63.1522727,
                "end_time": 63.3045455,
                "pitch": 31,
                "velocity": 51,
                "duration": 0.1522727,
                "tempo": 120.0
            },
            {
                "start_time": 63.3227273,
                "end_time": 63.4909091,
                "pitch": 31,
                "velocity": 51,
                "duration": 0.1681818,
                "tempo": 120.0
            },
            {
                "start_time": 63.5068182,
                "end_time": 63.6522727,
                "pitch": 43,
                "velocity": 51,
                "duration": 0.1454545,
                "tempo": 120.0
            },
            {
                "start_time": 63.6840909,
                "end_time": 63.8295455,
                "pitch": 31,
                "velocity": 51,
                "duration": 0.1454545,
                "tempo": 120.0
            },
            {
                "start_time": 63.8636364,
                "end_time": 64.0159091,
                "pitch": 31,
                "velocity": 51,
                "duration": 0.1522727,
                "tempo": 120.0
            },
            {
                "start_time": 64.0522727,
                "end_time": 64.2090909,
                "pitch": 31,
                "velocity": 51,
                "duration": 0.1568182,
                "tempo": 120.0
            }
        ],
        "Electric Piano 1": [
            {
                "start_time": 0.0227273,
                "end_time": 0.1704545,
                "pitch": 31,
                "velocity": 80,
                "duration": 0.1477273,
                "tempo": 120.0
            },
            {
                "start_time": 0.1863636,
                "end_time": 0.3545455,
                "pitch": 31,
                "velocity": 80,
                "duration": 0.1681818,
                "tempo": 120.0
            },
            {
                "start_time": 0.3727273,
                "end_time": 0.5181818,
                "pitch": 43,
                "velocity": 80,
                "duration": 0.1454545,
                "tempo": 120.0
            },
            {
                "start_time": 0.55,
                "end_time": 0.6931818,
                "pitch": 31,
                "velocity": 80,
                "duration": 0.1431818,
                "tempo": 120.0
            },
            {
                "start_time": 0.7272727,
                "end_time": 0.8772727,
                "pitch": 31,
                "velocity": 80,
                "duration": 0.15,
                "tempo": 120.0
            },
            {
                "start_time": 0.9113636,
                "end_time": 1.0636364,
                "pitch": 31,
                "velocity": 80,
                "duration": 0.1522727,
                "tempo": 120.0
            },
            {
                "start_time": 1.0977273,
                "end_time": 1.2454545,
                "pitch": 43,
                "velocity": 80,
                "duration": 0.1477273,
                "tempo": 120.0
            },
            {
                "start_time": 1.2795455,
                "end_time": 1.4295455,
                "pitch": 31,
                "velocity": 80,
                "duration": 0.15,
                "tempo": 120.0
            },
            {
                "start_time": 1.4636364,
                "end_time": 1.6136364,
                "pitch": 31,
                "velocity": 80,
                "duration": 0.15,
                "tempo": 120.0
            },
            {
                "start_time": 1.6477273,
                "end_time": 1.8,
                "pitch": 31,
                "velocity": 80,
                "duration": 0.1522727,
                "tempo": 120.0
            },
            {
                "start_time": 1.8340909,
                "end_time": 1.9863636,
                "pitch": 43,
                "velocity": 80,
                "duration": 0.1522727,
                "tempo": 120.0
            },
            {
                "start_time": 2.0045455,
                "end_time": 2.1545455,
                "pitch": 31,
                "velocity": 80,
                "duration": 0.15,
                "tempo": 120.0
            },
            {
                "start_time": 2.1909091,
                "end_time": 2.3340909,
                "pitch": 31,
                "velocity": 80,
                "duration": 0.1431818,
                "tempo": 120.0
            },
            {
                "start_time": 2.3659091,
                "end_time": 2.5113636,
                "pitch": 31,
                "velocity": 80,
                "duration": 0.1454545,
                "tempo": 120.0
            },
            {
                "start_time": 2.5431818,
                "end_time": 2.6954545,
                "pitch": 43,
                "velocity": 80,
                "duration": 0.1522727,
                "tempo": 120.0
            },
            {
                "start_time": 2.7295455,
                "end_time": 2.8818182,
                "pitch": 31,
                "velocity": 80,
                "duration": 0.1522727,
                "tempo": 120.0
            },
            {
                "start_time": 2.9159091,
                "end_time": 3.0636364,
                "pitch": 29,
                "velocity": 80,
                "duration": 0.1477273,
                "tempo": 120.0
            },
            {
                "start_time": 3.0954545,
                "end_time": 3.2454545,
                "pitch": 29,
                "velocity": 80,
                "duration": 0.15,
                "tempo": 120.0
            },
            {
                "start_time": 3.2772727,
                "end_time": 3.4295455,
                "pitch": 41,
                "velocity": 80,
                "duration": 0.1522727,
                "tempo": 120.0
            },
            {
                "start_time": 3.4659091,
                "end_time": 3.6159091,
                "pitch": 29,
                "velocity": 80,
                "duration": 0.15,
                "tempo": 120.0
            },
            {
                "start_time": 3.6340909,
                "end_time": 3.7931818,
                "pitch": 29,
                "velocity": 80,
                "duration": 0.1590909,
                "tempo": 120.0
            },
            {
                "start_time": 3.8113636,
                "end_time": 3.9545455,
                "pitch": 29,
                "velocity": 80,
                "duration": 0.1431818,
                "tempo": 120.0
            },
            {
                "start_time": 3.9886364,
                "end_time": 4.1386364,
                "pitch": 41,
                "velocity": 80,
                "duration": 0.15,
                "tempo": 120.0
            },
            {
                "start_time": 4.1727273,
                "end_time": 4.325,
                "pitch": 29,
                "velocity": 80,
                "duration": 0.1522727,
                "tempo": 120.0
            },
            {
                "start_time": 4.3613636,
                "end_time": 4.5113636,
                "pitch": 29,
                "velocity": 80,
                "duration": 0.15,
                "tempo": 120.0
            },
            {
                "start_time": 4.5454545,
                "end_time": 4.6977273,
                "pitch": 29,
                "velocity": 80,
                "duration": 0.1522727,
                "tempo": 120.0
            },
            {
                "start_time": 4.7318182,
                "end_time": 4.8795455,
                "pitch": 41,
                "velocity": 80,
                "duration": 0.1477273,
                "tempo": 120.0
            },
            {
                "start_time": 4.9136364,
                "end_time": 5.0613636,
                "pitch": 29,
                "velocity": 80,
                "duration": 0.1477273,
                "tempo": 120.0
            },
            {
                "start_time": 5.0954545,
                "end_time": 5.2477273,
                "pitch": 29,
                "velocity": 80,
                "duration": 0.1522727,
                "tempo": 120.0
            },
            {
                "start_time": 5.2818182,
                "end_time": 5.4340909,
                "pitch": 29,
                "velocity": 80,
                "duration": 0.1522727,
                "tempo": 120.0
            },
            {
                "start_time": 5.45,
                "end_time": 5.5954545,
                "pitch": 41,
                "velocity": 80,
                "duration": 0.1454545,
                "tempo": 120.0
            },
            {
                "start_time": 5.6272727,
                "end_time": 5.7704545,
                "pitch": 29,
                "velocity": 80,
                "duration": 0.1431818,
                "tempo": 120.0
            },
            {
                "start_time": 5.8045455,
                "end_time": 5.9545455,
                "pitch": 27,
                "velocity": 80,
                "duration": 0.15,
                "tempo": 120.0
            },
            {
                "start_time": 5.9886364,
                "end_time": 6.1409091,
                "pitch": 27,
                "velocity": 80,
                "duration": 0.1522727,
                "tempo": 120.0
            },
            {
                "start_time": 6.175,
                "end_time": 6.3227273,
                "pitch": 39,
                "velocity": 80,
                "duration": 0.1477273,
                "tempo": 120.0
            },
            {
                "start_time": 6.3568182,
                "end_time": 6.5068182,
                "pitch": 27,
                "velocity": 80,
                "duration": 0.15,
                "tempo": 120.0
            },
            {
                "start_time": 6.5386364,
                "end_time": 6.6909091,
                "pitch": 27,
                "velocity": 80,
                "duration": 0.1522727,
                "tempo": 120.0
            },
            {
                "start_time": 6.725,
                "end_time": 6.8772727,
                "pitch": 27,
                "velocity": 80,
                "duration": 0.1522727,
                "tempo": 120.0
            },
            {
                "start_time": 6.9113636,
                "end_time": 7.0636364,
                "pitch": 39,
                "velocity": 80,
                "duration": 0.1522727,
                "tempo": 120.0
            },
            {
                "start_time": 7.0818182,
                "end_time": 7.25,
                "pitch": 27,
                "velocity": 80,
                "duration": 0.1681818,
                "tempo": 120.0
            },
            {
                "start_time": 7.2681818,
                "end_time": 7.4113636,
                "pitch": 27,
                "velocity": 80,
                "duration": 0.1431818,
                "tempo": 120.0
            },
            {
                "start_time": 7.4431818,
                "end_time": 7.5863636,
                "pitch": 27,
                "velocity": 80,
                "duration": 0.1431818,
                "tempo": 120.0
            },
            {
                "start_time": 7.6204545,
                "end_time": 7.7681818,
                "pitch": 39,
                "velocity": 80,
                "duration": 0.1477273,
                "tempo": 120.0
            },
            {
                "start_time": 7.8022727,
                "end_time": 7.95,
                "pitch": 27,
                "velocity": 80,
                "duration": 0.1477273,
                "tempo": 120.0
            },
            {
                "start_time": 7.9840909,
                "end_time": 8.1363636,
                "pitch": 27,
                "velocity": 80,
                "duration": 0.1522727,
                "tempo": 120.0
            },
            {
                "start_time": 8.1704545,
                "end_time": 8.3227273,
                "pitch": 27,
                "velocity": 80,
                "duration": 0.1522727,
                "tempo": 120.0
            },
            {
                "start_time": 8.3568182,
                "end_time": 8.5090909,
                "pitch": 39,
                "velocity": 80,
                "duration": 0.1522727,
                "tempo": 120.0
            },
            {
                "start_time": 8.5431818,
                "end_time": 8.6954545,
                "pitch": 27,
                "velocity": 80,
                "duration": 0.1522727,
                "tempo": 120.0
            },
            {
                "start_time": 8.7136364,
                "end_time": 8.8704545,
                "pitch": 38,
                "velocity": 80,
                "duration": 0.1568182,
                "tempo": 120.0
            },
            {
                "start_time": 8.8886364,
                "end_time": 9.0318182,
                "pitch": 38,
                "velocity": 80,
                "duration": 0.1431818,
                "tempo": 120.0
            },
            {
                "start_time": 9.0636364,
                "end_time": 9.2159091,
                "pitch": 50,
                "velocity": 80,
                "duration": 0.1522727,
                "tempo": 120.0
            },
            {
                "start_time": 9.2522727,
                "end_time": 9.4022727,
                "pitch": 38,
                "velocity": 80,
                "duration": 0.15,
                "tempo": 120.0
            },
            {
                "start_time": 9.4363636,
                "end_time": 9.5840909,
                "pitch": 38,
                "velocity": 80,
                "duration": 0.1477273,
                "tempo": 120.0
            },
            {
                "start_time": 9.6181818,
                "end_time": 9.7659091,
                "pitch": 38,
                "velocity": 80,
                "duration": 0.1477273,
                "tempo": 120.0
            },
            {
                "start_time": 9.8,
                "end_time": 9.9522727,
                "pitch": 50,
                "velocity": 80,
                "duration": 0.1522727,
                "tempo": 120.0
            },
            {
                "start_time": 9.9863636,
                "end_time": 10.1386364,
                "pitch": 38,
                "velocity": 80,
                "duration": 0.1522727,
                "tempo": 120.0
            },
            {
                "start_time": 10.175,
                "end_time": 10.325,
                "pitch": 38,
                "velocity": 80,
                "duration": 0.15,
                "tempo": 120.0
            },
            {
                "start_time": 10.3590909,
                "end_time": 10.5113636,
                "pitch": 38,
                "velocity": 80,
                "duration": 0.1522727,
                "tempo": 120.0
            },
            {
                "start_time": 10.5272727,
                "end_time": 10.6727273,
                "pitch": 50,
                "velocity": 80,
                "duration": 0.1454545,
                "tempo": 120.0
            },
            {
                "start_time": 10.7045455,
                "end_time": 10.8477273,
                "pitch": 38,
                "velocity": 80,
                "duration": 0.1431818,
                "tempo": 120.0
            },
            {
                "start_time": 10.8818182,
                "end_time": 11.0340909,
                "pitch": 38,
                "velocity": 80,
                "duration": 0.1522727,
                "tempo": 120.0
            },
            {
                "start_time": 11.0681818,
                "end_time": 11.2181818,
                "pitch": 38,
                "velocity": 80,
                "duration": 0.15,
                "tempo": 120.0
            },
            {
                "start_time": 11.2545455,
                "end_time": 11.4045455,
                "pitch": 50,
                "velocity": 80,
                "duration": 0.15,
                "tempo": 120.0
            },
            {
                "start_time": 11.4409091,
                "end_time": 11.5909091,
                "pitch": 38,
                "velocity": 80,
                "duration": 0.15,
                "tempo": 120.0
            },
            {
                "start_time": 11.6272727,
                "end_time": 11.775,
                "pitch": 31,
                "velocity": 80,
                "duration": 0.1477273,
                "tempo": 120.0
            },
            {
                "start_time": 11.8068182,
                "end_time": 11.9568182,
                "pitch": 31,
                "velocity": 80,
                "duration": 0.15,
                "tempo": 120.0
            },
            {
                "start_time": 11.9886364,
                "end_time": 12.1409091,
                "pitch": 43,
                "velocity": 80,
                "duration": 0.1522727,
                "tempo": 120.0
            },
            {
                "start_time": 12.1590909,
                "end_time": 12.3272727,
                "pitch": 31,
                "velocity": 80,
                "duration": 0.1681818,
                "tempo": 120.0
            },
            {
                "start_time": 12.3454545,
                "end_time": 12.4886364,
                "pitch": 31,
                "velocity": 80,
                "duration": 0.1431818,
                "tempo": 120.0
            },
            {
                "start_time": 12.5204545,
                "end_time": 12.6659091,
                "pitch": 31,
                "velocity": 80,
                "duration": 0.1454545,
                "tempo": 120.0
            },
            {
                "start_time": 12.6977273,
                "end_time": 12.8454545,
                "pitch": 43,
                "velocity": 80,
                "duration": 0.1477273,
                "tempo": 120.0
            },
            {
                "start_time": 12.8795455,
                "end_time": 13.0272727,
                "pitch": 31,
                "velocity": 80,
                "duration": 0.1477273,
                "tempo": 120.0
            },
            {
                "start_time": 13.0636364,
                "end_time": 13.2136364,
                "pitch": 31,
                "velocity": 80,
                "duration": 0.15,
                "tempo": 120.0
            },
            {
                "start_time": 13.2477273,
                "end_time": 13.4,
                "pitch": 31,
                "velocity": 80,
                "duration": 0.1522727,
                "tempo": 120.0
            },
            {
                "start_time": 13.4340909,
                "end_time": 13.5863636,
                "pitch": 43,
                "velocity": 80,
                "duration": 0.1522727,
                "tempo": 120.0
            },
            {
                "start_time": 13.6204545,
                "end_time": 13.7727273,
                "pitch": 31,
                "velocity": 80,
                "duration": 0.1522727,
                "tempo": 120.0
            },
            {
                "start_time": 13.8068182,
                "end_time": 13.9545455,
                "pitch": 31,
                "velocity": 80,
                "duration": 0.1477273,
                "tempo": 120.0
            },
            {
                "start_time": 13.9727273,
                "end_time": 14.1204545,
                "pitch": 31,
                "velocity": 80,
                "duration": 0.1477273,
                "tempo": 120.0
            },
            {
                "start_time": 14.1545455,
                "end_time": 14.3022727,
                "pitch": 43,
                "velocity": 80,
                "duration": 0.1477273,
                "tempo": 120.0
            },
            {
                "start_time": 14.3363636,
                "end_time": 14.4840909,
                "pitch": 31,
                "velocity": 80,
                "duration": 0.1477273,
                "tempo": 120.0
            },
            {
                "start_time": 14.5181818,
                "end_time": 14.6681818,
                "pitch": 29,
                "velocity": 80,
                "duration": 0.15,
                "tempo": 120.0
            },
            {
                "start_time": 14.7022727,
                "end_time": 14.8545455,
                "pitch": 29,
                "velocity": 80,
                "duration": 0.1522727,
                "tempo": 120.0
            },
            {
                "start_time": 14.8886364,
                "end_time": 15.0363636,
                "pitch": 41,
                "velocity": 80,
                "duration": 0.1477273,
                "tempo": 120.0
            },
            {
                "start_time": 15.0704545,
                "end_time": 15.2181818,
                "pitch": 29,
                "velocity": 80,
                "duration": 0.1477273,
                "tempo": 120.0
            },
            {
                "start_time": 15.2522727,
                "end_time": 15.4045455,
                "pitch": 29,
                "velocity": 80,
                "duration": 0.1522727,
                "tempo": 120.0
            },
            {
                "start_time": 15.4386364,
                "end_time": 15.5909091,
                "pitch": 29,
                "velocity": 80,
                "duration": 0.1522727,
                "tempo": 120.0
            },
            {
                "start_time": 15.6090909,
                "end_time": 15.7681818,
                "pitch": 41,
                "velocity": 80,
                "duration": 0.1590909,
                "tempo": 120.0
            },
            {
                "start_time": 15.7840909,
                "end_time": 15.9295455,
                "pitch": 29,
                "velocity": 80,
                "duration": 0.1454545,
                "tempo": 120.0
            },
            {
                "start_time": 15.9613636,
                "end_time": 16.1113636,
                "pitch": 29,
                "velocity": 80,
                "duration": 0.15,
                "tempo": 120.0
            },
            {
                "start_time": 16.1477273,
                "end_time": 16.2977273,
                "pitch": 29,
                "velocity": 80,
                "duration": 0.15,
                "tempo": 120.0
            },
            {
                "start_time": 16.3340909,
                "end_time": 16.4818182,
                "pitch": 41,
                "velocity": 80,
                "duration": 0.1477273,
                "tempo": 120.0
            },
            {
                "start_time": 16.5136364,
                "end_time": 16.6636364,
                "pitch": 29,
                "velocity": 80,
                "duration": 0.15,
                "tempo": 120.0
            },
            {
                "start_time": 16.6954545,
                "end_time": 16.8477273,
                "pitch": 29,
                "velocity": 80,
                "duration": 0.1522727,
                "tempo": 120.0
            },
            {
                "start_time": 16.8818182,
                "end_time": 17.0340909,
                "pitch": 29,
                "velocity": 80,
                "duration": 0.1522727,
                "tempo": 120.0
            },
            {
                "start_time": 17.0681818,
                "end_time": 17.2204545,
                "pitch": 41,
                "velocity": 80,
                "duration": 0.1522727,
                "tempo": 120.0
            },
            {
                "start_time": 17.2386364,
                "end_time": 17.4068182,
                "pitch": 29,
                "velocity": 80,
                "duration": 0.1681818,
                "tempo": 120.0
            },
            {
                "start_time": 17.425,
                "end_time": 17.5681818,
                "pitch": 27,
                "velocity": 80,
                "duration": 0.1431818,
                "tempo": 120.0
            },
            {
                "start_time": 17.6,
                "end_time": 17.7454545,
                "pitch": 27,
                "velocity": 80,
                "duration": 0.1454545,
                "tempo": 120.0
            },
            {
                "start_time": 17.7772727,
                "end_time": 17.925,
                "pitch": 39,
                "velocity": 80,
                "duration": 0.1477273,
                "tempo": 120.0
            },
            {
                "start_time": 17.9590909,
                "end_time": 18.1068182,
                "pitch": 27,
                "velocity": 80,
                "duration": 0.1477273,
                "tempo": 120.0
            },
            {
                "start_time": 18.1409091,
                "end_time": 18.2931818,
                "pitch": 27,
                "velocity": 80,
                "duration": 0.1522727,
                "tempo": 120.0
            },
            {
                "start_time": 18.3272727,
                "end_time": 18.4795455,
                "pitch": 27,
                "velocity": 80,
                "duration": 0.1522727,
                "tempo": 120.0
            },
            {
                "start_time": 18.5136364,
                "end_time": 18.6659091,
                "pitch": 39,
                "velocity": 80,
                "duration": 0.1522727,
                "tempo": 120.0
            },
            {
                "start_time": 18.7,
                "end_time": 18.8522727,
                "pitch": 27,
                "velocity": 80,
                "duration": 0.1522727,
                "tempo": 120.0
            },
            {
                "start_time": 18.8863636,
                "end_time": 19.0386364,
                "pitch": 27,
                "velocity": 80,
                "duration": 0.1522727,
                "tempo": 120.0
            },
            {
                "start_time": 19.0545455,
                "end_time": 19.2068182,
                "pitch": 27,
                "velocity": 80,
                "duration": 0.1522727,
                "tempo": 120.0
            },
            {
                "start_time": 19.2409091,
                "end_time": 19.3863636,
                "pitch": 39,
                "velocity": 80,
                "duration": 0.1454545,
                "tempo": 120.0
            },
            {
                "start_time": 19.4181818,
                "end_time": 19.5613636,
                "pitch": 27,
                "velocity": 80,
                "duration": 0.1431818,
                "tempo": 120.0
            },
            {
                "start_time": 19.5954545,
                "end_time": 19.7431818,
                "pitch": 27,
                "velocity": 80,
                "duration": 0.1477273,
                "tempo": 120.0
            },
            {
                "start_time": 19.7772727,
                "end_time": 19.925,
                "pitch": 27,
                "velocity": 80,
                "duration": 0.1477273,
                "tempo": 120.0
            },
            {
                "start_time": 19.9590909,
                "end_time": 20.1113636,
                "pitch": 39,
                "velocity": 80,
                "duration": 0.1522727,
                "tempo": 120.0
            },
            {
                "start_time": 20.1454545,
                "end_time": 20.2954545,
                "pitch": 27,
                "velocity": 80,
                "duration": 0.15,
                "tempo": 120.0
            },
            {
                "start_time": 20.3318182,
                "end_time": 20.4818182,
                "pitch": 38,
                "velocity": 80,
                "duration": 0.15,
                "tempo": 120.0
            },
            {
                "start_time": 20.5159091,
                "end_time": 20.6681818,
                "pitch": 38,
                "velocity": 80,
                "duration": 0.1522727,
                "tempo": 120.0
            },
            {
                "start_time": 20.6863636,
                "end_time": 20.8454545,
                "pitch": 50,
                "velocity": 80,
                "duration": 0.1590909,
                "tempo": 120.0
            },
            {
                "start_time": 20.8636364,
                "end_time": 21.0068182,
                "pitch": 38,
                "velocity": 80,
                "duration": 0.1431818,
                "tempo": 120.0
            },
            {
                "start_time": 21.0386364,
                "end_time": 21.1909091,
                "pitch": 38,
                "velocity": 80,
                "duration": 0.1522727,
                "tempo": 120.0
            },
            {
                "start_time": 21.225,
                "end_time": 21.3772727,
                "pitch": 38,
                "velocity": 80,
                "duration": 0.1522727,
                "tempo": 120.0
            },
            {
                "start_time": 21.4113636,
                "end_time": 21.5590909,
                "pitch": 50,
                "velocity": 80,
                "duration": 0.1477273,
                "tempo": 120.0
            },
            {
                "start_time": 21.5931818,
                "end_time": 21.7409091,
                "pitch": 38,
                "velocity": 80,
                "duration": 0.1477273,
                "tempo": 120.0
            },
            {
                "start_time": 21.7772727,
                "end_time": 21.9272727,
                "pitch": 38,
                "velocity": 80,
                "duration": 0.15,
                "tempo": 120.0
            },
            {
                "start_time": 21.9613636,
                "end_time": 22.1136364,
                "pitch": 38,
                "velocity": 80,
                "duration": 0.1522727,
                "tempo": 120.0
            },
            {
                "start_time": 22.1477273,
                "end_time": 22.3,
                "pitch": 50,
                "velocity": 80,
                "duration": 0.1522727,
                "tempo": 120.0
            },
            {
                "start_time": 22.3340909,
                "end_time": 22.4840909,
                "pitch": 38,
                "velocity": 80,
                "duration": 0.15,
                "tempo": 120.0
            },
            {
                "start_time": 22.5022727,
                "end_time": 22.6477273,
                "pitch": 38,
                "velocity": 80,
                "duration": 0.1454545,
                "tempo": 120.0
            },
            {
                "start_time": 22.6795455,
                "end_time": 22.8227273,
                "pitch": 38,
                "velocity": 80,
                "duration": 0.1431818,
                "tempo": 120.0
            },
            {
                "start_time": 22.8568182,
                "end_time": 23.0045455,
                "pitch": 50,
                "velocity": 80,
                "duration": 0.1477273,
                "tempo": 120.0
            },
            {
                "start_time": 23.0386364,
                "end_time": 23.1863636,
                "pitch": 38,
                "velocity": 80,
                "duration": 0.1477273,
                "tempo": 120.0
            },
            {
                "start_time": 23.2227273,
                "end_time": 23.3704545,
                "pitch": 27,
                "velocity": 80,
                "duration": 0.1477273,
                "tempo": 120.0
            },
            {
                "start_time": 23.4068182,
                "end_time": 23.5568182,
                "pitch": 27,
                "velocity": 80,
                "duration": 0.15,
                "tempo": 120.0
            },
            {
                "start_time": 23.5931818,
                "end_time": 23.7431818,
                "pitch": 39,
                "velocity": 80,
                "duration": 0.15,
                "tempo": 120.0
            },
            {
                "start_time": 23.7795455,
                "end_time": 23.9295455,
                "pitch": 27,
                "velocity": 80,
                "duration": 0.15,
                "tempo": 120.0
            },
            {
                "start_time": 23.9659091,
                "end_time": 24.1159091,
                "pitch": 27,
                "velocity": 80,
                "duration": 0.15,
                "tempo": 120.0
            },
            {
                "start_time": 24.1340909,
                "end_time": 24.3022727,
                "pitch": 27,
                "velocity": 80,
                "duration": 0.1681818,
                "tempo": 120.0
            },
            {
                "start_time": 24.3204545,
                "end_time": 24.4636364,
                "pitch": 39,
                "velocity": 80,
                "duration": 0.1431818,
                "tempo": 120.0
            },
            {
                "start_time": 24.4977273,
                "end_time": 24.6409091,
                "pitch": 27,
                "velocity": 80,
                "duration": 0.1431818,
                "tempo": 120.0
            },
            {
                "start_time": 24.675,
                "end_time": 24.825,
                "pitch": 29,
                "velocity": 80,
                "duration": 0.15,
                "tempo": 120.0
            },
            {
                "start_time": 24.8590909,
                "end_time": 25.0113636,
                "pitch": 29,
                "velocity": 80,
                "duration": 0.1522727,
                "tempo": 120.0
            },
            {
                "start_time": 25.0454545,
                "end_time": 25.1931818,
                "pitch": 41,
                "velocity": 80,
                "duration": 0.1477273,
                "tempo": 120.0
            },
            {
                "start_time": 25.2272727,
                "end_time": 25.375,
                "pitch": 29,
                "velocity": 80,
                "duration": 0.1477273,
                "tempo": 120.0
            },
            {
                "start_time": 25.4090909,
                "end_time": 25.5613636,
                "pitch": 29,
                "velocity": 80,
                "duration": 0.1522727,
                "tempo": 120.0
            },
            {
                "start_time": 25.5954545,
                "end_time": 25.7477273,
                "pitch": 29,
                "velocity": 80,
                "duration": 0.1522727,
                "tempo": 120.0
            },
            {
                "start_time": 25.7636364,
                "end_time": 25.925,
                "pitch": 41,
                "velocity": 80,
                "duration": 0.1613636,
                "tempo": 120.0
            },
            {
                "start_time": 25.9409091,
                "end_time": 26.0840909,
                "pitch": 29,
                "velocity": 80,
                "duration": 0.1431818,
                "tempo": 120.0
            },
            {
                "start_time": 26.1181818,
                "end_time": 26.2681818,
                "pitch": 38,
                "velocity": 80,
                "duration": 0.15,
                "tempo": 120.0
            },
            {
                "start_time": 26.3022727,
                "end_time": 26.4545455,
                "pitch": 38,
                "velocity": 80,
                "duration": 0.1522727,
                "tempo": 120.0
            },
            {
                "start_time": 26.4886364,
                "end_time": 26.6363636,
                "pitch": 50,
                "velocity": 80,
                "duration": 0.1477273,
                "tempo": 120.0
            },
            {
                "start_time": 26.6704545,
                "end_time": 26.8181818,
                "pitch": 38,
                "velocity": 80,
                "duration": 0.1477273,
                "tempo": 120.0
            },
            {
                "start_time": 26.8545455,
                "end_time": 27.0045455,
                "pitch": 38,
                "velocity": 80,
                "duration": 0.15,
                "tempo": 120.0
            },
            {
                "start_time": 27.0386364,
                "end_time": 27.1909091,
                "pitch": 38,
                "velocity": 80,
                "duration": 0.1522727,
                "tempo": 120.0
            },
            {
                "start_time": 27.225,
                "end_time": 27.3772727,
                "pitch": 50,
                "velocity": 80,
                "duration": 0.1522727,
                "tempo": 120.0
            },
            {
                "start_time": 27.4113636,
                "end_time": 27.5636364,
                "pitch": 38,
                "velocity": 80,
                "duration": 0.1522727,
                "tempo": 120.0
            },
            {
                "start_time": 27.5818182,
                "end_time": 27.725,
                "pitch": 31,
                "velocity": 80,
                "duration": 0.1431818,
                "tempo": 120.0
            },
            {
                "start_time": 27.7568182,
                "end_time": 27.9022727,
                "pitch": 31,
                "velocity": 80,
                "duration": 0.1454545,
                "tempo": 120.0
            },
            {
                "start_time": 27.9340909,
                "end_time": 28.0840909,
                "pitch": 43,
                "velocity": 80,
                "duration": 0.15,
                "tempo": 120.0
            },
            {
                "start_time": 28.1204545,
                "end_time": 28.2704545,
                "pitch": 31,
                "velocity": 80,
                "duration": 0.15,
                "tempo": 120.0
            },
            {
                "start_time": 28.3068182,
                "end_time": 28.4545455,
                "pitch": 31,
                "velocity": 80,
                "duration": 0.1477273,
                "tempo": 120.0
            },
            {
                "start_time": 28.4886364,
                "end_time": 28.6363636,
                "pitch": 31,
                "velocity": 80,
                "duration": 0.1477273,
                "tempo": 120.0
            },
            {
                "start_time": 28.6704545,
                "end_time": 28.8204545,
                "pitch": 43,
                "velocity": 80,
                "duration": 0.15,
                "tempo": 120.0
            },
            {
                "start_time": 28.8568182,
                "end_time": 29.0068182,
                "pitch": 31,
                "velocity": 80,
                "duration": 0.15,
                "tempo": 120.0
            },
            {
                "start_time": 29.0431818,
                "end_time": 29.1931818,
                "pitch": 36,
                "velocity": 80,
                "duration": 0.15,
                "tempo": 120.0
            },
            {
                "start_time": 29.2113636,
                "end_time": 29.3795455,
                "pitch": 36,
                "velocity": 80,
                "duration": 0.1681818,
                "tempo": 120.0
            },
            {
                "start_time": 29.3977273,
                "end_time": 29.5409091,
                "pitch": 48,
                "velocity": 80,
                "duration": 0.1431818,
                "tempo": 120.0
            },
            {
                "start_time": 29.575,
                "end_time": 29.7181818,
                "pitch": 36,
                "velocity": 80,
                "duration": 0.1431818,
                "tempo": 120.0
            },
            {
                "start_time": 29.75,
                "end_time": 29.8977273,
                "pitch": 36,
                "velocity": 80,
                "duration": 0.1477273,
                "tempo": 120.0
            },
            {
                "start_time": 29.9318182,
                "end_time": 30.0795455,
                "pitch": 36,
                "velocity": 80,
                "duration": 0.1477273,
                "tempo": 120.0
            },
            {
                "start_time": 30.1136364,
                "end_time": 30.2659091,
                "pitch": 48,
                "velocity": 80,
                "duration": 0.1522727,
                "tempo": 120.0
            },
            {
                "start_time": 30.3,
                "end_time": 30.4522727,
                "pitch": 36,
                "velocity": 80,
                "duration": 0.1522727,
                "tempo": 120.0
            },
            {
                "start_time": 30.4863636,
                "end_time": 30.6386364,
                "pitch": 29,
                "velocity": 80,
                "duration": 0.1522727,
                "tempo": 120.0
            },
            {
                "start_time": 30.6727273,
                "end_time": 30.825,
                "pitch": 29,
                "velocity": 80,
                "duration": 0.1522727,
                "tempo": 120.0
            },
            {
                "start_time": 30.8590909,
                "end_time": 31.0068182,
                "pitch": 41,
                "velocity": 80,
                "duration": 0.1477273,
                "tempo": 120.0
            },
            {
                "start_time": 31.025,
                "end_time": 31.1727273,
                "pitch": 29,
                "velocity": 80,
                "duration": 0.1477273,
                "tempo": 120.0
            },
            {
                "start_time": 31.2068182,
                "end_time": 31.3545455,
                "pitch": 29,
                "velocity": 80,
                "duration": 0.1477273,
                "tempo": 120.0
            },
            {
                "start_time": 31.3886364,
                "end_time": 31.5363636,
                "pitch": 29,
                "velocity": 80,
                "duration": 0.1477273,
                "tempo": 120.0
            },
            {
                "start_time": 31.5704545,
                "end_time": 31.7181818,
                "pitch": 41,
                "velocity": 80,
                "duration": 0.1477273,
                "tempo": 120.0
            },
            {
                "start_time": 31.7522727,
                "end_time": 31.9,
                "pitch": 29,
                "velocity": 80,
                "duration": 0.1477273,
                "tempo": 120.0
            },
            {
                "start_time": 31.9340909,
                "end_time": 32.0840909,
                "pitch": 34,
                "velocity": 80,
                "duration": 0.15,
                "tempo": 120.0
            },
            {
                "start_time": 32.1181818,
                "end_time": 32.2704545,
                "pitch": 34,
                "velocity": 80,
                "duration": 0.1522727,
                "tempo": 120.0
            },
            {
                "start_time": 32.3045455,
                "end_time": 32.4568182,
                "pitch": 46,
                "velocity": 80,
                "duration": 0.1522727,
                "tempo": 120.0
            },
            {
                "start_time": 32.4909091,
                "end_time": 32.6431818,
                "pitch": 34,
                "velocity": 80,
                "duration": 0.1522727,
                "tempo": 120.0
            },
            {
                "start_time": 32.6613636,
                "end_time": 32.8204545,
                "pitch": 34,
                "velocity": 80,
                "duration": 0.1590909,
                "tempo": 120.0
            },
            {
                "start_time": 32.8363636,
                "end_time": 32.9818182,
                "pitch": 34,
                "velocity": 80,
                "duration": 0.1454545,
                "tempo": 120.0
            },
            {
                "start_time": 33.0136364,
                "end_time": 33.1659091,
                "pitch": 46,
                "velocity": 80,
                "duration": 0.1522727,
                "tempo": 120.0
            },
            {
                "start_time": 33.2,
                "end_time": 33.3522727,
                "pitch": 34,
                "velocity": 80,
                "duration": 0.1522727,
                "tempo": 120.0
            },
            {
                "start_time": 33.3863636,
                "end_time": 33.5340909,
                "pitch": 38,
                "velocity": 80,
                "duration": 0.1477273,
                "tempo": 120.0
            },
            {
                "start_time": 33.5681818,
                "end_time": 33.7159091,
                "pitch": 38,
                "velocity": 80,
                "duration": 0.1477273,
                "tempo": 120.0
            },
            {
                "start_time": 33.75,
                "end_time": 33.9,
                "pitch": 50,
                "velocity": 80,
                "duration": 0.15,
                "tempo": 120.0
            },
            {
                "start_time": 33.9363636,
                "end_time": 34.0863636,
                "pitch": 38,
                "velocity": 80,
                "duration": 0.15,
                "tempo": 120.0
            },
            {
                "start_time": 34.1227273,
                "end_time": 34.2704545,
                "pitch": 38,
                "velocity": 80,
                "duration": 0.1477273,
                "tempo": 120.0
            },
            {
                "start_time": 34.2863636,
                "end_time": 34.4522727,
                "pitch": 38,
                "velocity": 80,
                "duration": 0.1659091,
                "tempo": 120.0
            },
            {
                "start_time": 34.4681818,
                "end_time": 34.6159091,
                "pitch": 50,
                "velocity": 80,
                "duration": 0.1477273,
                "tempo": 120.0
            },
            {
                "start_time": 34.65,
                "end_time": 34.7977273,
                "pitch": 38,
                "velocity": 80,
                "duration": 0.1477273,
                "tempo": 120.0
            },
            {
                "start_time": 34.8340909,
                "end_time": 36.2590909,
                "pitch": 31,
                "velocity": 80,
                "duration": 1.425,
                "tempo": 120.0
            },
            {
                "start_time": 36.475,
                "end_time": 36.4886364,
                "pitch": 36,
                "velocity": 80,
                "duration": 0.0136364,
                "tempo": 120.0
            },
            {
                "start_time": 36.4886364,
                "end_time": 36.5204545,
                "pitch": 34,
                "velocity": 80,
                "duration": 0.0318182,
                "tempo": 120.0
            },
            {
                "start_time": 36.5204545,
                "end_time": 36.5522727,
                "pitch": 31,
                "velocity": 80,
                "duration": 0.0318182,
                "tempo": 120.0
            },
            {
                "start_time": 36.5522727,
                "end_time": 36.5840909,
                "pitch": 27,
                "velocity": 80,
                "duration": 0.0318182,
                "tempo": 120.0
            },
            {
                "start_time": 36.5840909,
                "end_time": 36.6,
                "pitch": 24,
                "velocity": 80,
                "duration": 0.0159091,
                "tempo": 120.0
            },
            {
                "start_time": 36.6,
                "end_time": 36.6159091,
                "pitch": 21,
                "velocity": 80,
                "duration": 0.0159091,
                "tempo": 120.0
            },
            {
                "start_time": 36.65,
                "end_time": 36.6636364,
                "pitch": 36,
                "velocity": 80,
                "duration": 0.0136364,
                "tempo": 120.0
            },
            {
                "start_time": 36.6636364,
                "end_time": 36.6977273,
                "pitch": 34,
                "velocity": 80,
                "duration": 0.0340909,
                "tempo": 120.0
            },
            {
                "start_time": 36.6977273,
                "end_time": 36.7295455,
                "pitch": 31,
                "velocity": 80,
                "duration": 0.0318182,
                "tempo": 120.0
            },
            {
                "start_time": 36.7295455,
                "end_time": 36.7636364,
                "pitch": 27,
                "velocity": 80,
                "duration": 0.0340909,
                "tempo": 120.0
            },
            {
                "start_time": 36.7636364,
                "end_time": 36.7795455,
                "pitch": 24,
                "velocity": 80,
                "duration": 0.0159091,
                "tempo": 120.0
            },
            {
                "start_time": 36.7795455,
                "end_time": 36.7977273,
                "pitch": 21,
                "velocity": 80,
                "duration": 0.0181818,
                "tempo": 120.0
            },
            {
                "start_time": 37.0136364,
                "end_time": 37.0272727,
                "pitch": 32,
                "velocity": 80,
                "duration": 0.0136364,
                "tempo": 120.0
            },
            {
                "start_time": 37.0272727,
                "end_time": 37.0613636,
                "pitch": 30,
                "velocity": 80,
                "duration": 0.0340909,
                "tempo": 120.0
            },
            {
                "start_time": 37.0613636,
                "end_time": 37.0795455,
                "pitch": 27,
                "velocity": 80,
                "duration": 0.0181818,
                "tempo": 120.0
            },
            {
                "start_time": 37.0977273,
                "end_time": 37.1136364,
                "pitch": 32,
                "velocity": 80,
                "duration": 0.0159091,
                "tempo": 120.0
            },
            {
                "start_time": 37.0272727,
                "end_time": 37.1136364,
                "pitch": 42,
                "velocity": 80,
                "duration": 0.0863636,
                "tempo": 120.0
            },
            {
                "start_time": 37.1136364,
                "end_time": 37.1477273,
                "pitch": 30,
                "velocity": 80,
                "duration": 0.0340909,
                "tempo": 120.0
            },
            {
                "start_time": 37.1477273,
                "end_time": 37.1636364,
                "pitch": 27,
                "velocity": 80,
                "duration": 0.0159091,
                "tempo": 120.0
            },
            {
                "start_time": 37.2,
                "end_time": 37.2136364,
                "pitch": 32,
                "velocity": 80,
                "duration": 0.0136364,
                "tempo": 120.0
            },
            {
                "start_time": 37.1136364,
                "end_time": 37.2136364,
                "pitch": 42,
                "velocity": 80,
                "duration": 0.1,
                "tempo": 120.0
            },
            {
                "start_time": 37.2136364,
                "end_time": 37.2477273,
                "pitch": 30,
                "velocity": 80,
                "duration": 0.0340909,
                "tempo": 120.0
            },
            {
                "start_time": 37.2840909,
                "end_time": 37.3,
                "pitch": 32,
                "velocity": 80,
                "duration": 0.0159091,
                "tempo": 120.0
            },
            {
                "start_time": 37.2136364,
                "end_time": 37.3,
                "pitch": 42,
                "velocity": 80,
                "duration": 0.0863636,
                "tempo": 120.0
            },
            {
                "start_time": 37.3,
                "end_time": 37.3340909,
                "pitch": 30,
                "velocity": 80,
                "duration": 0.0340909,
                "tempo": 120.0
            },
            {
                "start_time": 37.3340909,
                "end_time": 37.35,
                "pitch": 27,
                "velocity": 80,
                "duration": 0.0159091,
                "tempo": 120.0
            },
            {
                "start_time": 37.3863636,
                "end_time": 37.4,
                "pitch": 28,
                "velocity": 80,
                "duration": 0.0136364,
                "tempo": 120.0
            },
            {
                "start_time": 37.4,
                "end_time": 37.4340909,
                "pitch": 26,
                "velocity": 80,
                "duration": 0.0340909,
                "tempo": 120.0
            },
            {
                "start_time": 37.4704545,
                "end_time": 37.4863636,
                "pitch": 28,
                "velocity": 80,
                "duration": 0.0159091,
                "tempo": 120.0
            },
            {
                "start_time": 37.4863636,
                "end_time": 37.5181818,
                "pitch": 26,
                "velocity": 80,
                "duration": 0.0318182,
                "tempo": 120.0
            },
            {
                "start_time": 37.5181818,
                "end_time": 37.5363636,
                "pitch": 23,
                "velocity": 80,
                "duration": 0.0181818,
                "tempo": 120.0
            },
            {
                "start_time": 37.5727273,
                "end_time": 37.5863636,
                "pitch": 28,
                "velocity": 80,
                "duration": 0.0136364,
                "tempo": 120.0
            },
            {
                "start_time": 37.5863636,
                "end_time": 37.6204545,
                "pitch": 26,
                "velocity": 80,
                "duration": 0.0340909,
                "tempo": 120.0
            },
            {
                "start_time": 37.6568182,
                "end_time": 37.6727273,
                "pitch": 28,
                "velocity": 80,
                "duration": 0.0159091,
                "tempo": 120.0
            },
            {
                "start_time": 37.6727273,
                "end_time": 37.7045455,
                "pitch": 26,
                "velocity": 80,
                "duration": 0.0318182,
                "tempo": 120.0
            },
            {
                "start_time": 37.7045455,
                "end_time": 37.7227273,
                "pitch": 23,
                "velocity": 80,
                "duration": 0.0181818,
                "tempo": 120.0
            },
            {
                "start_time": 37.7431818,
                "end_time": 39.1681818,
                "pitch": 27,
                "velocity": 80,
                "duration": 1.425,
                "tempo": 120.0
            },
            {
                "start_time": 39.3886364,
                "end_time": 39.4045455,
                "pitch": 36,
                "velocity": 80,
                "duration": 0.0159091,
                "tempo": 120.0
            },
            {
                "start_time": 39.4045455,
                "end_time": 39.4386364,
                "pitch": 34,
                "velocity": 80,
                "duration": 0.0340909,
                "tempo": 120.0
            },
            {
                "start_time": 39.4386364,
                "end_time": 39.4727273,
                "pitch": 31,
                "velocity": 80,
                "duration": 0.0340909,
                "tempo": 120.0
            },
            {
                "start_time": 39.4727273,
                "end_time": 39.5045455,
                "pitch": 27,
                "velocity": 80,
                "duration": 0.0318182,
                "tempo": 120.0
            },
            {
                "start_time": 39.5045455,
                "end_time": 39.5227273,
                "pitch": 24,
                "velocity": 80,
                "duration": 0.0181818,
                "tempo": 120.0
            },
            {
                "start_time": 39.5227273,
                "end_time": 39.5386364,
                "pitch": 21,
                "velocity": 80,
                "duration": 0.0159091,
                "tempo": 120.0
            },
            {
                "start_time": 39.5568182,
                "end_time": 39.5727273,
                "pitch": 36,
                "velocity": 80,
                "duration": 0.0159091,
                "tempo": 120.0
            },
            {
                "start_time": 39.5727273,
                "end_time": 39.6045455,
                "pitch": 34,
                "velocity": 80,
                "duration": 0.0318182,
                "tempo": 120.0
            },
            {
                "start_time": 39.6045455,
                "end_time": 39.6363636,
                "pitch": 31,
                "velocity": 80,
                "duration": 0.0318182,
                "tempo": 120.0
            },
            {
                "start_time": 39.6363636,
                "end_time": 39.6681818,
                "pitch": 27,
                "velocity": 80,
                "duration": 0.0318182,
                "tempo": 120.0
            },
            {
                "start_time": 39.6681818,
                "end_time": 39.6840909,
                "pitch": 24,
                "velocity": 80,
                "duration": 0.0159091,
                "tempo": 120.0
            },
            {
                "start_time": 39.6840909,
                "end_time": 39.7,
                "pitch": 21,
                "velocity": 80,
                "duration": 0.0159091,
                "tempo": 120.0
            },
            {
                "start_time": 39.9113636,
                "end_time": 39.925,
                "pitch": 32,
                "velocity": 80,
                "duration": 0.0136364,
                "tempo": 120.0
            },
            {
                "start_time": 37.3,
                "end_time": 39.925,
                "pitch": 42,
                "velocity": 80,
                "duration": 2.625,
                "tempo": 120.0
            },
            {
                "start_time": 39.925,
                "end_time": 39.9590909,
                "pitch": 30,
                "velocity": 80,
                "duration": 0.0340909,
                "tempo": 120.0
            },
            {
                "start_time": 39.9590909,
                "end_time": 39.975,
                "pitch": 27,
                "velocity": 80,
                "duration": 0.0159091,
                "tempo": 120.0
            },
            {
                "start_time": 40.0090909,
                "end_time": 40.025,
                "pitch": 32,
                "velocity": 80,
                "duration": 0.0159091,
                "tempo": 120.0
            },
            {
                "start_time": 39.925,
                "end_time": 40.025,
                "pitch": 42,
                "velocity": 80,
                "duration": 0.1,
                "tempo": 120.0
            },
            {
                "start_time": 40.025,
                "end_time": 40.0590909,
                "pitch": 30,
                "velocity": 80,
                "duration": 0.0340909,
                "tempo": 120.0
            },
            {
                "start_time": 40.0931818,
                "end_time": 40.1068182,
                "pitch": 32,
                "velocity": 80,
                "duration": 0.0136364,
                "tempo": 120.0
            },
            {
                "start_time": 40.025,
                "end_time": 40.1068182,
                "pitch": 42,
                "velocity": 80,
                "duration": 0.0818182,
                "tempo": 120.0
            },
            {
                "start_time": 40.1068182,
                "end_time": 40.1409091,
                "pitch": 30,
                "velocity": 80,
                "duration": 0.0340909,
                "tempo": 120.0
            },
            {
                "start_time": 40.1409091,
                "end_time": 40.1568182,
                "pitch": 27,
                "velocity": 80,
                "duration": 0.0159091,
                "tempo": 120.0
            },
            {
                "start_time": 40.1909091,
                "end_time": 40.2068182,
                "pitch": 32,
                "velocity": 80,
                "duration": 0.0159091,
                "tempo": 120.0
            },
            {
                "start_time": 40.1068182,
                "end_time": 40.2068182,
                "pitch": 42,
                "velocity": 80,
                "duration": 0.1,
                "tempo": 120.0
            },
            {
                "start_time": 40.2068182,
                "end_time": 40.2409091,
                "pitch": 30,
                "velocity": 80,
                "duration": 0.0340909,
                "tempo": 120.0
            },
            {
                "start_time": 40.275,
                "end_time": 40.2886364,
                "pitch": 28,
                "velocity": 80,
                "duration": 0.0136364,
                "tempo": 120.0
            },
            {
                "start_time": 40.2886364,
                "end_time": 40.3227273,
                "pitch": 26,
                "velocity": 80,
                "duration": 0.0340909,
                "tempo": 120.0
            },
            {
                "start_time": 40.3227273,
                "end_time": 40.3409091,
                "pitch": 23,
                "velocity": 80,
                "duration": 0.0181818,
                "tempo": 120.0
            },
            {
                "start_time": 40.3590909,
                "end_time": 40.375,
                "pitch": 28,
                "velocity": 80,
                "duration": 0.0159091,
                "tempo": 120.0
            },
            {
                "start_time": 40.375,
                "end_time": 40.4090909,
                "pitch": 26,
                "velocity": 80,
                "duration": 0.0340909,
                "tempo": 120.0
            },
            {
                "start_time": 40.4090909,
                "end_time": 40.425,
                "pitch": 23,
                "velocity": 80,
                "duration": 0.0159091,
                "tempo": 120.0
            },
            {
                "start_time": 40.4613636,
                "end_time": 40.475,
                "pitch": 28,
                "velocity": 80,
                "duration": 0.0136364,
                "tempo": 120.0
            },
            {
                "start_time": 40.475,
                "end_time": 40.5090909,
                "pitch": 26,
                "velocity": 80,
                "duration": 0.0340909,
                "tempo": 120.0
            },
            {
                "start_time": 40.5454545,
                "end_time": 40.5613636,
                "pitch": 28,
                "velocity": 80,
                "duration": 0.0159091,
                "tempo": 120.0
            },
            {
                "start_time": 40.5613636,
                "end_time": 40.5931818,
                "pitch": 26,
                "velocity": 80,
                "duration": 0.0318182,
                "tempo": 120.0
            },
            {
                "start_time": 40.5931818,
                "end_time": 40.6113636,
                "pitch": 23,
                "velocity": 80,
                "duration": 0.0181818,
                "tempo": 120.0
            },
            {
                "start_time": 40.6477273,
                "end_time": 42.0659091,
                "pitch": 36,
                "velocity": 80,
                "duration": 1.4181818,
                "tempo": 120.0
            },
            {
                "start_time": 42.2840909,
                "end_time": 42.2977273,
                "pitch": 36,
                "velocity": 80,
                "duration": 0.0136364,
                "tempo": 120.0
            },
            {
                "start_time": 42.2977273,
                "end_time": 42.3318182,
                "pitch": 34,
                "velocity": 80,
                "duration": 0.0340909,
                "tempo": 120.0
            },
            {
                "start_time": 42.3318182,
                "end_time": 42.3659091,
                "pitch": 31,
                "velocity": 80,
                "duration": 0.0340909,
                "tempo": 120.0
            },
            {
                "start_time": 42.3659091,
                "end_time": 42.3977273,
                "pitch": 27,
                "velocity": 80,
                "duration": 0.0318182,
                "tempo": 120.0
            },
            {
                "start_time": 42.3977273,
                "end_time": 42.4136364,
                "pitch": 24,
                "velocity": 80,
                "duration": 0.0159091,
                "tempo": 120.0
            },
            {
                "start_time": 42.4136364,
                "end_time": 42.4318182,
                "pitch": 21,
                "velocity": 80,
                "duration": 0.0181818,
                "tempo": 120.0
            },
            {
                "start_time": 42.4659091,
                "end_time": 42.4795455,
                "pitch": 36,
                "velocity": 80,
                "duration": 0.0136364,
                "tempo": 120.0
            },
            {
                "start_time": 42.4795455,
                "end_time": 42.5136364,
                "pitch": 34,
                "velocity": 80,
                "duration": 0.0340909,
                "tempo": 120.0
            },
            {
                "start_time": 42.5136364,
                "end_time": 42.5477273,
                "pitch": 31,
                "velocity": 80,
                "duration": 0.0340909,
                "tempo": 120.0
            },
            {
                "start_time": 42.5477273,
                "end_time": 42.5818182,
                "pitch": 27,
                "velocity": 80,
                "duration": 0.0340909,
                "tempo": 120.0
            },
            {
                "start_time": 42.5818182,
                "end_time": 42.6,
                "pitch": 24,
                "velocity": 80,
                "duration": 0.0181818,
                "tempo": 120.0
            },
            {
                "start_time": 42.6,
                "end_time": 42.6159091,
                "pitch": 21,
                "velocity": 80,
                "duration": 0.0159091,
                "tempo": 120.0
            },
            {
                "start_time": 42.8204545,
                "end_time": 42.8363636,
                "pitch": 32,
                "velocity": 80,
                "duration": 0.0159091,
                "tempo": 120.0
            },
            {
                "start_time": 40.2068182,
                "end_time": 42.8363636,
                "pitch": 42,
                "velocity": 80,
                "duration": 2.6295455,
                "tempo": 120.0
            },
            {
                "start_time": 42.8363636,
                "end_time": 42.8681818,
                "pitch": 30,
                "velocity": 80,
                "duration": 0.0318182,
                "tempo": 120.0
            },
            {
                "start_time": 42.8681818,
                "end_time": 42.8840909,
                "pitch": 27,
                "velocity": 80,
                "duration": 0.0159091,
                "tempo": 120.0
            },
            {
                "start_time": 42.9159091,
                "end_time": 42.9318182,
                "pitch": 32,
                "velocity": 80,
                "duration": 0.0159091,
                "tempo": 120.0
            },
            {
                "start_time": 42.8363636,
                "end_time": 42.9318182,
                "pitch": 42,
                "velocity": 80,
                "duration": 0.0954545,
                "tempo": 120.0
            },
            {
                "start_time": 42.9318182,
                "end_time": 42.9636364,
                "pitch": 30,
                "velocity": 80,
                "duration": 0.0318182,
                "tempo": 120.0
            },
            {
                "start_time": 42.9636364,
                "end_time": 42.9795455,
                "pitch": 27,
                "velocity": 80,
                "duration": 0.0159091,
                "tempo": 120.0
            },
            {
                "start_time": 42.9977273,
                "end_time": 43.0113636,
                "pitch": 32,
                "velocity": 80,
                "duration": 0.0136364,
                "tempo": 120.0
            },
            {
                "start_time": 42.9318182,
                "end_time": 43.0113636,
                "pitch": 42,
                "velocity": 80,
                "duration": 0.0795455,
                "tempo": 120.0
            },
            {
                "start_time": 43.0113636,
                "end_time": 43.0431818,
                "pitch": 30,
                "velocity": 80,
                "duration": 0.0318182,
                "tempo": 120.0
            },
            {
                "start_time": 43.0431818,
                "end_time": 43.0613636,
                "pitch": 27,
                "velocity": 80,
                "duration": 0.0181818,
                "tempo": 120.0
            },
            {
                "start_time": 43.0931818,
                "end_time": 43.1090909,
                "pitch": 32,
                "velocity": 80,
                "duration": 0.0159091,
                "tempo": 120.0
            },
            {
                "start_time": 43.0113636,
                "end_time": 43.1090909,
                "pitch": 42,
                "velocity": 80,
                "duration": 0.0977273,
                "tempo": 120.0
            },
            {
                "start_time": 43.1090909,
                "end_time": 43.1409091,
                "pitch": 30,
                "velocity": 80,
                "duration": 0.0318182,
                "tempo": 120.0
            },
            {
                "start_time": 43.175,
                "end_time": 43.1886364,
                "pitch": 28,
                "velocity": 80,
                "duration": 0.0136364,
                "tempo": 120.0
            },
            {
                "start_time": 43.1886364,
                "end_time": 43.2227273,
                "pitch": 26,
                "velocity": 80,
                "duration": 0.0340909,
                "tempo": 120.0
            },
            {
                "start_time": 43.2227273,
                "end_time": 43.2409091,
                "pitch": 23,
                "velocity": 80,
                "duration": 0.0181818,
                "tempo": 120.0
            },
            {
                "start_time": 43.275,
                "end_time": 43.2909091,
                "pitch": 28,
                "velocity": 80,
                "duration": 0.0159091,
                "tempo": 120.0
            },
            {
                "start_time": 43.2909091,
                "end_time": 43.325,
                "pitch": 26,
                "velocity": 80,
                "duration": 0.0340909,
                "tempo": 120.0
            },
            {
                "start_time": 43.3590909,
                "end_time": 43.375,
                "pitch": 28,
                "velocity": 80,
                "duration": 0.0159091,
                "tempo": 120.0
            },
            {
                "start_time": 43.375,
                "end_time": 43.4090909,
                "pitch": 26,
                "velocity": 80,
                "duration": 0.0340909,
                "tempo": 120.0
            },
            {
                "start_time": 43.4090909,
                "end_time": 43.4272727,
                "pitch": 23,
                "velocity": 80,
                "duration": 0.0181818,
                "tempo": 120.0
            },
            {
                "start_time": 43.4613636,
                "end_time": 43.4772727,
                "pitch": 28,
                "velocity": 80,
                "duration": 0.0159091,
                "tempo": 120.0
            },
            {
                "start_time": 43.4772727,
                "end_time": 43.5113636,
                "pitch": 26,
                "velocity": 80,
                "duration": 0.0340909,
                "tempo": 120.0
            },
            {
                "start_time": 43.5477273,
                "end_time": 43.6977273,
                "pitch": 38,
                "velocity": 80,
                "duration": 0.15,
                "tempo": 120.0
            },
            {
                "start_time": 43.7318182,
                "end_time": 43.8840909,
                "pitch": 38,
                "velocity": 80,
                "duration": 0.1522727,
                "tempo": 120.0
            },
            {
                "start_time": 43.9181818,
                "end_time": 44.0659091,
                "pitch": 50,
                "velocity": 80,
                "duration": 0.1477273,
                "tempo": 120.0
            },
            {
                "start_time": 44.1,
                "end_time": 44.2477273,
                "pitch": 38,
                "velocity": 80,
                "duration": 0.1477273,
                "tempo": 120.0
            },
            {
                "start_time": 44.2818182,
                "end_time": 44.4295455,
                "pitch": 38,
                "velocity": 80,
                "duration": 0.1477273,
                "tempo": 120.0
            },
            {
                "start_time": 44.4636364,
                "end_time": 44.6113636,
                "pitch": 38,
                "velocity": 80,
                "duration": 0.1477273,
                "tempo": 120.0
            },
            {
                "start_time": 44.6295455,
                "end_time": 44.7772727,
                "pitch": 50,
                "velocity": 80,
                "duration": 0.1477273,
                "tempo": 120.0
            },
            {
                "start_time": 44.8113636,
                "end_time": 44.9590909,
                "pitch": 38,
                "velocity": 80,
                "duration": 0.1477273,
                "tempo": 120.0
            },
            {
                "start_time": 44.9931818,
                "end_time": 45.1409091,
                "pitch": 38,
                "velocity": 80,
                "duration": 0.1477273,
                "tempo": 120.0
            },
            {
                "start_time": 45.1727273,
                "end_time": 45.3227273,
                "pitch": 38,
                "velocity": 80,
                "duration": 0.15,
                "tempo": 120.0
            },
            {
                "start_time": 45.3545455,
                "end_time": 45.5068182,
                "pitch": 50,
                "velocity": 80,
                "duration": 0.1522727,
                "tempo": 120.0
            },
            {
                "start_time": 45.5409091,
                "end_time": 45.6931818,
                "pitch": 38,
                "velocity": 80,
                "duration": 0.1522727,
                "tempo": 120.0
            },
            {
                "start_time": 45.7272727,
                "end_time": 45.8795455,
                "pitch": 38,
                "velocity": 80,
                "duration": 0.1522727,
                "tempo": 120.0
            },
            {
                "start_time": 45.9136364,
                "end_time": 46.0659091,
                "pitch": 38,
                "velocity": 80,
                "duration": 0.1522727,
                "tempo": 120.0
            },
            {
                "start_time": 46.1,
                "end_time": 46.2477273,
                "pitch": 50,
                "velocity": 80,
                "duration": 0.1477273,
                "tempo": 120.0
            },
            {
                "start_time": 46.2659091,
                "end_time": 46.4295455,
                "pitch": 38,
                "velocity": 80,
                "duration": 0.1636364,
                "tempo": 120.0
            },
            {
                "start_time": 46.45,
                "end_time": 47.8840909,
                "pitch": 31,
                "velocity": 80,
                "duration": 1.4340909,
                "tempo": 120.0
            },
            {
                "start_time": 48.0795455,
                "end_time": 48.0931818,
                "pitch": 36,
                "velocity": 80,
                "duration": 0.0136364,
                "tempo": 120.0
            },
            {
                "start_time": 48.0931818,
                "end_time": 48.125,
                "pitch": 34,
                "velocity": 80,
                "duration": 0.0318182,
                "tempo": 120.0
            },
            {
                "start_time": 48.125,
                "end_time": 48.1568182,
                "pitch": 31,
                "velocity": 80,
                "duration": 0.0318182,
                "tempo": 120.0
            },
            {
                "start_time": 48.1568182,
                "end_time": 48.1886364,
                "pitch": 27,
                "velocity": 80,
                "duration": 0.0318182,
                "tempo": 120.0
            },
            {
                "start_time": 48.1886364,
                "end_time": 48.2068182,
                "pitch": 24,
                "velocity": 80,
                "duration": 0.0181818,
                "tempo": 120.0
            },
            {
                "start_time": 48.2068182,
                "end_time": 48.2227273,
                "pitch": 21,
                "velocity": 80,
                "duration": 0.0159091,
                "tempo": 120.0
            },
            {
                "start_time": 48.2545455,
                "end_time": 48.2704545,
                "pitch": 36,
                "velocity": 80,
                "duration": 0.0159091,
                "tempo": 120.0
            },
            {
                "start_time": 48.2704545,
                "end_time": 48.3045455,
                "pitch": 34,
                "velocity": 80,
                "duration": 0.0340909,
                "tempo": 120.0
            },
            {
                "start_time": 48.3045455,
                "end_time": 48.3363636,
                "pitch": 31,
                "velocity": 80,
                "duration": 0.0318182,
                "tempo": 120.0
            },
            {
                "start_time": 48.3363636,
                "end_time": 48.3704545,
                "pitch": 27,
                "velocity": 80,
                "duration": 0.0340909,
                "tempo": 120.0
            },
            {
                "start_time": 48.3704545,
                "end_time": 48.3863636,
                "pitch": 24,
                "velocity": 80,
                "duration": 0.0159091,
                "tempo": 120.0
            },
            {
                "start_time": 48.3863636,
                "end_time": 48.4022727,
                "pitch": 21,
                "velocity": 80,
                "duration": 0.0159091,
                "tempo": 120.0
            },
            {
                "start_time": 48.6181818,
                "end_time": 48.6340909,
                "pitch": 32,
                "velocity": 80,
                "duration": 0.0159091,
                "tempo": 120.0
            },
            {
                "start_time": 43.1090909,
                "end_time": 48.6340909,
                "pitch": 42,
                "velocity": 80,
                "duration": 5.525,
                "tempo": 120.0
            },
            {
                "start_time": 48.6340909,
                "end_time": 48.6681818,
                "pitch": 30,
                "velocity": 80,
                "duration": 0.0340909,
                "tempo": 120.0
            },
            {
                "start_time": 48.6681818,
                "end_time": 48.6863636,
                "pitch": 27,
                "velocity": 80,
                "duration": 0.0181818,
                "tempo": 120.0
            },
            {
                "start_time": 48.7204545,
                "end_time": 48.7363636,
                "pitch": 32,
                "velocity": 80,
                "duration": 0.0159091,
                "tempo": 120.0
            },
            {
                "start_time": 48.6340909,
                "end_time": 48.7363636,
                "pitch": 42,
                "velocity": 80,
                "duration": 0.1022727,
                "tempo": 120.0
            },
            {
                "start_time": 48.7363636,
                "end_time": 48.7704545,
                "pitch": 30,
                "velocity": 80,
                "duration": 0.0340909,
                "tempo": 120.0
            },
            {
                "start_time": 48.8045455,
                "end_time": 48.8204545,
                "pitch": 32,
                "velocity": 80,
                "duration": 0.0159091,
                "tempo": 120.0
            },
            {
                "start_time": 48.7363636,
                "end_time": 48.8204545,
                "pitch": 42,
                "velocity": 80,
                "duration": 0.0840909,
                "tempo": 120.0
            },
            {
                "start_time": 48.8204545,
                "end_time": 48.8545455,
                "pitch": 30,
                "velocity": 80,
                "duration": 0.0340909,
                "tempo": 120.0
            },
            {
                "start_time": 48.8545455,
                "end_time": 48.8727273,
                "pitch": 27,
                "velocity": 80,
                "duration": 0.0181818,
                "tempo": 120.0
            },
            {
                "start_time": 48.8886364,
                "end_time": 48.9045455,
                "pitch": 32,
                "velocity": 80,
                "duration": 0.0159091,
                "tempo": 120.0
            },
            {
                "start_time": 48.8204545,
                "end_time": 48.9045455,
                "pitch": 42,
                "velocity": 80,
                "duration": 0.0840909,
                "tempo": 120.0
            },
            {
                "start_time": 48.9045455,
                "end_time": 48.9386364,
                "pitch": 30,
                "velocity": 80,
                "duration": 0.0340909,
                "tempo": 120.0
            },
            {
                "start_time": 48.9386364,
                "end_time": 48.9568182,
                "pitch": 27,
                "velocity": 80,
                "duration": 0.0181818,
                "tempo": 120.0
            },
            {
                "start_time": 48.9909091,
                "end_time": 49.0068182,
                "pitch": 28,
                "velocity": 80,
                "duration": 0.0159091,
                "tempo": 120.0
            },
            {
                "start_time": 49.0068182,
                "end_time": 49.0409091,
                "pitch": 26,
                "velocity": 80,
                "duration": 0.0340909,
                "tempo": 120.0
            },
            {
                "start_time": 49.075,
                "end_time": 49.0909091,
                "pitch": 28,
                "velocity": 80,
                "duration": 0.0159091,
                "tempo": 120.0
            },
            {
                "start_time": 49.0909091,
                "end_time": 49.125,
                "pitch": 26,
                "velocity": 80,
                "duration": 0.0340909,
                "tempo": 120.0
            },
            {
                "start_time": 49.125,
                "end_time": 49.1431818,
                "pitch": 23,
                "velocity": 80,
                "duration": 0.0181818,
                "tempo": 120.0
            },
            {
                "start_time": 49.1772727,
                "end_time": 49.1931818,
                "pitch": 28,
                "velocity": 80,
                "duration": 0.0159091,
                "tempo": 120.0
            },
            {
                "start_time": 49.1931818,
                "end_time": 49.2272727,
                "pitch": 26,
                "velocity": 80,
                "duration": 0.0340909,
                "tempo": 120.0
            },
            {
                "start_time": 49.2613636,
                "end_time": 49.2772727,
                "pitch": 28,
                "velocity": 80,
                "duration": 0.0159091,
                "tempo": 120.0
            },
            {
                "start_time": 49.2772727,
                "end_time": 49.3113636,
                "pitch": 26,
                "velocity": 80,
                "duration": 0.0340909,
                "tempo": 120.0
            },
            {
                "start_time": 49.3113636,
                "end_time": 49.3295455,
                "pitch": 23,
                "velocity": 80,
                "duration": 0.0181818,
                "tempo": 120.0
            },
            {
                "start_time": 49.3659091,
                "end_time": 50.7840909,
                "pitch": 27,
                "velocity": 80,
                "duration": 1.4181818,
                "tempo": 120.0
            },
            {
                "start_time": 51.0022727,
                "end_time": 51.0159091,
                "pitch": 36,
                "velocity": 80,
                "duration": 0.0136364,
                "tempo": 120.0
            },
            {
                "start_time": 51.0159091,
                "end_time": 51.05,
                "pitch": 34,
                "velocity": 80,
                "duration": 0.0340909,
                "tempo": 120.0
            },
            {
                "start_time": 51.05,
                "end_time": 51.0840909,
                "pitch": 31,
                "velocity": 80,
                "duration": 0.0340909,
                "tempo": 120.0
            },
            {
                "start_time": 51.0840909,
                "end_time": 51.1159091,
                "pitch": 27,
                "velocity": 80,
                "duration": 0.0318182,
                "tempo": 120.0
            },
            {
                "start_time": 51.1159091,
                "end_time": 51.1318182,
                "pitch": 24,
                "velocity": 80,
                "duration": 0.0159091,
                "tempo": 120.0
            },
            {
                "start_time": 51.1318182,
                "end_time": 51.15,
                "pitch": 21,
                "velocity": 80,
                "duration": 0.0181818,
                "tempo": 120.0
            },
            {
                "start_time": 51.1840909,
                "end_time": 51.1977273,
                "pitch": 36,
                "velocity": 80,
                "duration": 0.0136364,
                "tempo": 120.0
            },
            {
                "start_time": 51.1977273,
                "end_time": 51.2318182,
                "pitch": 34,
                "velocity": 80,
                "duration": 0.0340909,
                "tempo": 120.0
            },
            {
                "start_time": 51.2318182,
                "end_time": 51.2659091,
                "pitch": 31,
                "velocity": 80,
                "duration": 0.0340909,
                "tempo": 120.0
            },
            {
                "start_time": 51.2659091,
                "end_time": 51.2977273,
                "pitch": 27,
                "velocity": 80,
                "duration": 0.0318182,
                "tempo": 120.0
            },
            {
                "start_time": 51.2977273,
                "end_time": 51.3136364,
                "pitch": 24,
                "velocity": 80,
                "duration": 0.0159091,
                "tempo": 120.0
            },
            {
                "start_time": 51.3136364,
                "end_time": 51.3318182,
                "pitch": 21,
                "velocity": 80,
                "duration": 0.0181818,
                "tempo": 120.0
            },
            {
                "start_time": 51.5295455,
                "end_time": 51.5454545,
                "pitch": 32,
                "velocity": 80,
                "duration": 0.0159091,
                "tempo": 120.0
            },
            {
                "start_time": 48.9045455,
                "end_time": 51.5454545,
                "pitch": 42,
                "velocity": 80,
                "duration": 2.6409091,
                "tempo": 120.0
            },
            {
                "start_time": 51.5454545,
                "end_time": 51.5772727,
                "pitch": 30,
                "velocity": 80,
                "duration": 0.0318182,
                "tempo": 120.0
            },
            {
                "start_time": 51.5772727,
                "end_time": 51.5931818,
                "pitch": 27,
                "velocity": 80,
                "duration": 0.0159091,
                "tempo": 120.0
            },
            {
                "start_time": 51.625,
                "end_time": 51.6409091,
                "pitch": 32,
                "velocity": 80,
                "duration": 0.0159091,
                "tempo": 120.0
            },
            {
                "start_time": 51.5454545,
                "end_time": 51.6409091,
                "pitch": 42,
                "velocity": 80,
                "duration": 0.0954545,
                "tempo": 120.0
            },
            {
                "start_time": 51.6409091,
                "end_time": 51.6727273,
                "pitch": 30,
                "velocity": 80,
                "duration": 0.0318182,
                "tempo": 120.0
            },
            {
                "start_time": 51.7068182,
                "end_time": 51.7204545,
                "pitch": 32,
                "velocity": 80,
                "duration": 0.0136364,
                "tempo": 120.0
            },
            {
                "start_time": 51.6409091,
                "end_time": 51.7204545,
                "pitch": 42,
                "velocity": 80,
                "duration": 0.0795455,
                "tempo": 120.0
            },
            {
                "start_time": 51.7204545,
                "end_time": 51.7522727,
                "pitch": 30,
                "velocity": 80,
                "duration": 0.0318182,
                "tempo": 120.0
            },
            {
                "start_time": 51.7522727,
                "end_time": 51.7704545,
                "pitch": 27,
                "velocity": 80,
                "duration": 0.0181818,
                "tempo": 120.0
            },
            {
                "start_time": 51.8022727,
                "end_time": 51.8181818,
                "pitch": 32,
                "velocity": 80,
                "duration": 0.0159091,
                "tempo": 120.0
            },
            {
                "start_time": 51.7204545,
                "end_time": 51.8181818,
                "pitch": 42,
                "velocity": 80,
                "duration": 0.0977273,
                "tempo": 120.0
            },
            {
                "start_time": 51.8181818,
                "end_time": 51.85,
                "pitch": 30,
                "velocity": 80,
                "duration": 0.0318182,
                "tempo": 120.0
            },
            {
                "start_time": 51.8840909,
                "end_time": 51.8977273,
                "pitch": 28,
                "velocity": 80,
                "duration": 0.0136364,
                "tempo": 120.0
            },
            {
                "start_time": 51.8977273,
                "end_time": 51.9318182,
                "pitch": 26,
                "velocity": 80,
                "duration": 0.0340909,
                "tempo": 120.0
            },
            {
                "start_time": 51.9318182,
                "end_time": 51.95,
                "pitch": 23,
                "velocity": 80,
                "duration": 0.0181818,
                "tempo": 120.0
            },
            {
                "start_time": 51.9840909,
                "end_time": 52.0,
                "pitch": 28,
                "velocity": 80,
                "duration": 0.0159091,
                "tempo": 120.0
            },
            {
                "start_time": 52.0,
                "end_time": 52.0340909,
                "pitch": 26,
                "velocity": 80,
                "duration": 0.0340909,
                "tempo": 120.0
            },
            {
                "start_time": 52.0704545,
                "end_time": 52.0840909,
                "pitch": 28,
                "velocity": 80,
                "duration": 0.0136364,
                "tempo": 120.0
            },
            {
                "start_time": 52.0840909,
                "end_time": 52.1181818,
                "pitch": 26,
                "velocity": 80,
                "duration": 0.0340909,
                "tempo": 120.0
            },
            {
                "start_time": 52.1181818,
                "end_time": 52.1363636,
                "pitch": 23,
                "velocity": 80,
                "duration": 0.0181818,
                "tempo": 120.0
            },
            {
                "start_time": 52.1704545,
                "end_time": 52.1863636,
                "pitch": 28,
                "velocity": 80,
                "duration": 0.0159091,
                "tempo": 120.0
            },
            {
                "start_time": 52.1863636,
                "end_time": 52.2204545,
                "pitch": 26,
                "velocity": 80,
                "duration": 0.0340909,
                "tempo": 120.0
            },
            {
                "start_time": 52.2568182,
                "end_time": 53.6772727,
                "pitch": 36,
                "velocity": 80,
                "duration": 1.4204545,
                "tempo": 120.0
            },
            {
                "start_time": 53.8931818,
                "end_time": 53.9068182,
                "pitch": 36,
                "velocity": 80,
                "duration": 0.0136364,
                "tempo": 120.0
            },
            {
                "start_time": 53.9068182,
                "end_time": 53.9409091,
                "pitch": 34,
                "velocity": 80,
                "duration": 0.0340909,
                "tempo": 120.0
            },
            {
                "start_time": 53.9409091,
                "end_time": 53.975,
                "pitch": 31,
                "velocity": 80,
                "duration": 0.0340909,
                "tempo": 120.0
            },
            {
                "start_time": 53.975,
                "end_time": 54.0068182,
                "pitch": 27,
                "velocity": 80,
                "duration": 0.0318182,
                "tempo": 120.0
            },
            {
                "start_time": 54.0068182,
                "end_time": 54.0227273,
                "pitch": 24,
                "velocity": 80,
                "duration": 0.0159091,
                "tempo": 120.0
            },
            {
                "start_time": 54.0227273,
                "end_time": 54.0409091,
                "pitch": 21,
                "velocity": 80,
                "duration": 0.0181818,
                "tempo": 120.0
            },
            {
                "start_time": 54.075,
                "end_time": 54.0886364,
                "pitch": 36,
                "velocity": 80,
                "duration": 0.0136364,
                "tempo": 120.0
            },
            {
                "start_time": 54.0886364,
                "end_time": 54.1227273,
                "pitch": 34,
                "velocity": 80,
                "duration": 0.0340909,
                "tempo": 120.0
            },
            {
                "start_time": 54.1227273,
                "end_time": 54.1590909,
                "pitch": 31,
                "velocity": 80,
                "duration": 0.0363636,
                "tempo": 120.0
            },
            {
                "start_time": 54.1590909,
                "end_time": 54.1909091,
                "pitch": 27,
                "velocity": 80,
                "duration": 0.0318182,
                "tempo": 120.0
            },
            {
                "start_time": 54.1909091,
                "end_time": 54.2090909,
                "pitch": 24,
                "velocity": 80,
                "duration": 0.0181818,
                "tempo": 120.0
            },
            {
                "start_time": 54.2090909,
                "end_time": 54.225,
                "pitch": 21,
                "velocity": 80,
                "duration": 0.0159091,
                "tempo": 120.0
            },
            {
                "start_time": 54.4454545,
                "end_time": 54.4613636,
                "pitch": 32,
                "velocity": 80,
                "duration": 0.0159091,
                "tempo": 120.0
            },
            {
                "start_time": 51.8181818,
                "end_time": 54.4613636,
                "pitch": 42,
                "velocity": 80,
                "duration": 2.6431818,
                "tempo": 120.0
            },
            {
                "start_time": 54.4613636,
                "end_time": 54.4954545,
                "pitch": 30,
                "velocity": 80,
                "duration": 0.0340909,
                "tempo": 120.0
            },
            {
                "start_time": 54.5295455,
                "end_time": 54.5454545,
                "pitch": 32,
                "velocity": 80,
                "duration": 0.0159091,
                "tempo": 120.0
            },
            {
                "start_time": 54.4613636,
                "end_time": 54.5454545,
                "pitch": 42,
                "velocity": 80,
                "duration": 0.0840909,
                "tempo": 120.0
            },
            {
                "start_time": 54.5454545,
                "end_time": 54.5772727,
                "pitch": 30,
                "velocity": 80,
                "duration": 0.0318182,
                "tempo": 120.0
            },
            {
                "start_time": 54.5772727,
                "end_time": 54.5954545,
                "pitch": 27,
                "velocity": 80,
                "duration": 0.0181818,
                "tempo": 120.0
            },
            {
                "start_time": 54.6295455,
                "end_time": 54.6431818,
                "pitch": 32,
                "velocity": 80,
                "duration": 0.0136364,
                "tempo": 120.0
            },
            {
                "start_time": 54.5454545,
                "end_time": 54.6431818,
                "pitch": 42,
                "velocity": 80,
                "duration": 0.0977273,
                "tempo": 120.0
            },
            {
                "start_time": 54.6431818,
                "end_time": 54.6772727,
                "pitch": 30,
                "velocity": 80,
                "duration": 0.0340909,
                "tempo": 120.0
            },
            {
                "start_time": 54.7113636,
                "end_time": 54.725,
                "pitch": 32,
                "velocity": 80,
                "duration": 0.0136364,
                "tempo": 120.0
            },
            {
                "start_time": 54.6431818,
                "end_time": 54.7272727,
                "pitch": 42,
                "velocity": 80,
                "duration": 0.0840909,
                "tempo": 120.0
            },
            {
                "start_time": 54.725,
                "end_time": 54.7272727,
                "pitch": 42,
                "velocity": 80,
                "duration": 0.0022727,
                "tempo": 120.0
            },
            {
                "start_time": 54.7272727,
                "end_time": 54.7590909,
                "pitch": 30,
                "velocity": 80,
                "duration": 0.0318182,
                "tempo": 120.0
            },
            {
                "start_time": 54.7590909,
                "end_time": 54.7772727,
                "pitch": 27,
                "velocity": 80,
                "duration": 0.0181818,
                "tempo": 120.0
            },
            {
                "start_time": 54.7931818,
                "end_time": 54.8090909,
                "pitch": 28,
                "velocity": 80,
                "duration": 0.0159091,
                "tempo": 120.0
            },
            {
                "start_time": 54.8090909,
                "end_time": 54.8409091,
                "pitch": 26,
                "velocity": 80,
                "duration": 0.0318182,
                "tempo": 120.0
            },
            {
                "start_time": 54.8409091,
                "end_time": 54.8590909,
                "pitch": 23,
                "velocity": 80,
                "duration": 0.0181818,
                "tempo": 120.0
            },
            {
                "start_time": 54.8931818,
                "end_time": 54.9068182,
                "pitch": 28,
                "velocity": 80,
                "duration": 0.0136364,
                "tempo": 120.0
            },
            {
                "start_time": 54.9068182,
                "end_time": 54.9409091,
                "pitch": 26,
                "velocity": 80,
                "duration": 0.0340909,
                "tempo": 120.0
            },
            {
                "start_time": 54.9409091,
                "end_time": 54.9590909,
                "pitch": 23,
                "velocity": 80,
                "duration": 0.0181818,
                "tempo": 120.0
            },
            {
                "start_time": 54.975,
                "end_time": 54.9909091,
                "pitch": 28,
                "velocity": 80,
                "duration": 0.0159091,
                "tempo": 120.0
            },
            {
                "start_time": 54.9909091,
                "end_time": 55.0227273,
                "pitch": 26,
                "velocity": 80,
                "duration": 0.0318182,
                "tempo": 120.0
            },
            {
                "start_time": 55.0227273,
                "end_time": 55.0409091,
                "pitch": 23,
                "velocity": 80,
                "duration": 0.0181818,
                "tempo": 120.0
            },
            {
                "start_time": 55.075,
                "end_time": 55.0886364,
                "pitch": 28,
                "velocity": 80,
                "duration": 0.0136364,
                "tempo": 120.0
            },
            {
                "start_time": 55.0886364,
                "end_time": 55.1227273,
                "pitch": 26,
                "velocity": 80,
                "duration": 0.0340909,
                "tempo": 120.0
            },
            {
                "start_time": 55.1590909,
                "end_time": 55.3090909,
                "pitch": 38,
                "velocity": 80,
                "duration": 0.15,
                "tempo": 120.0
            },
            {
                "start_time": 55.3431818,
                "end_time": 55.4954545,
                "pitch": 38,
                "velocity": 80,
                "duration": 0.1522727,
                "tempo": 120.0
            },
            {
                "start_time": 55.5295455,
                "end_time": 55.6772727,
                "pitch": 50,
                "velocity": 80,
                "duration": 0.1477273,
                "tempo": 120.0
            },
            {
                "start_time": 55.7113636,
                "end_time": 55.8590909,
                "pitch": 38,
                "velocity": 80,
                "duration": 0.1477273,
                "tempo": 120.0
            },
            {
                "start_time": 55.8931818,
                "end_time": 56.0431818,
                "pitch": 38,
                "velocity": 80,
                "duration": 0.15,
                "tempo": 120.0
            },
            {
                "start_time": 56.0795455,
                "end_time": 56.2295455,
                "pitch": 38,
                "velocity": 80,
                "duration": 0.15,
                "tempo": 120.0
            },
            {
                "start_time": 56.2659091,
                "end_time": 56.4136364,
                "pitch": 50,
                "velocity": 80,
                "duration": 0.1477273,
                "tempo": 120.0
            },
            {
                "start_time": 56.4477273,
                "end_time": 56.5954545,
                "pitch": 38,
                "velocity": 80,
                "duration": 0.1477273,
                "tempo": 120.0
            },
            {
                "start_time": 56.6136364,
                "end_time": 56.7590909,
                "pitch": 38,
                "velocity": 80,
                "duration": 0.1454545,
                "tempo": 120.0
            },
            {
                "start_time": 56.7931818,
                "end_time": 56.9409091,
                "pitch": 38,
                "velocity": 80,
                "duration": 0.1477273,
                "tempo": 120.0
            },
            {
                "start_time": 56.975,
                "end_time": 57.1227273,
                "pitch": 50,
                "velocity": 80,
                "duration": 0.1477273,
                "tempo": 120.0
            },
            {
                "start_time": 57.1568182,
                "end_time": 57.3045455,
                "pitch": 38,
                "velocity": 80,
                "duration": 0.1477273,
                "tempo": 120.0
            },
            {
                "start_time": 57.3386364,
                "end_time": 57.4909091,
                "pitch": 38,
                "velocity": 80,
                "duration": 0.1522727,
                "tempo": 120.0
            },
            {
                "start_time": 57.525,
                "end_time": 57.6772727,
                "pitch": 38,
                "velocity": 80,
                "duration": 0.1522727,
                "tempo": 120.0
            },
            {
                "start_time": 57.7113636,
                "end_time": 57.8636364,
                "pitch": 50,
                "velocity": 80,
                "duration": 0.1522727,
                "tempo": 120.0
            },
            {
                "start_time": 57.8977273,
                "end_time": 58.05,
                "pitch": 38,
                "velocity": 80,
                "duration": 0.1522727,
                "tempo": 120.0
            },
            {
                "start_time": 58.0840909,
                "end_time": 58.2318182,
                "pitch": 31,
                "velocity": 80,
                "duration": 0.1477273,
                "tempo": 120.0
            },
            {
                "start_time": 58.2477273,
                "end_time": 58.4136364,
                "pitch": 31,
                "velocity": 80,
                "duration": 0.1659091,
                "tempo": 120.0
            },
            {
                "start_time": 58.4318182,
                "end_time": 58.575,
                "pitch": 43,
                "velocity": 80,
                "duration": 0.1431818,
                "tempo": 120.0
            },
            {
                "start_time": 58.6068182,
                "end_time": 58.75,
                "pitch": 31,
                "velocity": 80,
                "duration": 0.1431818,
                "tempo": 120.0
            },
            {
                "start_time": 58.7840909,
                "end_time": 58.9340909,
                "pitch": 31,
                "velocity": 80,
                "duration": 0.15,
                "tempo": 120.0
            },
            {
                "start_time": 58.9704545,
                "end_time": 59.1204545,
                "pitch": 31,
                "velocity": 80,
                "duration": 0.15,
                "tempo": 120.0
            },
            {
                "start_time": 59.1568182,
                "end_time": 59.3068182,
                "pitch": 43,
                "velocity": 80,
                "duration": 0.15,
                "tempo": 120.0
            },
            {
                "start_time": 59.3431818,
                "end_time": 59.4931818,
                "pitch": 31,
                "velocity": 80,
                "duration": 0.15,
                "tempo": 120.0
            },
            {
                "start_time": 59.5295455,
                "end_time": 59.675,
                "pitch": 31,
                "velocity": 80,
                "duration": 0.1454545,
                "tempo": 120.0
            },
            {
                "start_time": 59.7090909,
                "end_time": 59.8568182,
                "pitch": 31,
                "velocity": 80,
                "duration": 0.1477273,
                "tempo": 120.0
            },
            {
                "start_time": 59.875,
                "end_time": 60.0340909,
                "pitch": 43,
                "velocity": 80,
                "duration": 0.1590909,
                "tempo": 120.0
            },
            {
                "start_time": 60.0522727,
                "end_time": 60.1954545,
                "pitch": 31,
                "velocity": 80,
                "duration": 0.1431818,
                "tempo": 120.0
            },
            {
                "start_time": 60.2272727,
                "end_time": 60.3795455,
                "pitch": 31,
                "velocity": 80,
                "duration": 0.1522727,
                "tempo": 120.0
            },
            {
                "start_time": 60.4136364,
                "end_time": 60.5659091,
                "pitch": 31,
                "velocity": 80,
                "duration": 0.1522727,
                "tempo": 120.0
            },
            {
                "start_time": 60.6,
                "end_time": 60.7522727,
                "pitch": 43,
                "velocity": 80,
                "duration": 0.1522727,
                "tempo": 120.0
            },
            {
                "start_time": 60.7863636,
                "end_time": 60.9386364,
                "pitch": 31,
                "velocity": 80,
                "duration": 0.1522727,
                "tempo": 120.0
            },
            {
                "start_time": 60.975,
                "end_time": 61.125,
                "pitch": 31,
                "velocity": 80,
                "duration": 0.15,
                "tempo": 120.0
            },
            {
                "start_time": 61.1590909,
                "end_time": 61.3113636,
                "pitch": 31,
                "velocity": 80,
                "duration": 0.1522727,
                "tempo": 120.0
            },
            {
                "start_time": 61.3454545,
                "end_time": 61.4931818,
                "pitch": 43,
                "velocity": 80,
                "duration": 0.1477273,
                "tempo": 120.0
            },
            {
                "start_time": 61.5272727,
                "end_time": 61.675,
                "pitch": 31,
                "velocity": 80,
                "duration": 0.1477273,
                "tempo": 120.0
            },
            {
                "start_time": 61.6909091,
                "end_time": 61.8363636,
                "pitch": 31,
                "velocity": 80,
                "duration": 0.1454545,
                "tempo": 120.0
            },
            {
                "start_time": 61.8681818,
                "end_time": 62.0113636,
                "pitch": 31,
                "velocity": 80,
                "duration": 0.1431818,
                "tempo": 120.0
            },
            {
                "start_time": 62.0454545,
                "end_time": 62.1954545,
                "pitch": 43,
                "velocity": 80,
                "duration": 0.15,
                "tempo": 120.0
            },
            {
                "start_time": 62.2318182,
                "end_time": 62.3818182,
                "pitch": 31,
                "velocity": 80,
                "duration": 0.15,
                "tempo": 120.0
            },
            {
                "start_time": 62.4181818,
                "end_time": 62.5681818,
                "pitch": 31,
                "velocity": 80,
                "duration": 0.15,
                "tempo": 120.0
            },
            {
                "start_time": 62.6022727,
                "end_time": 62.7545455,
                "pitch": 31,
                "velocity": 80,
                "duration": 0.1522727,
                "tempo": 120.0
            },
            {
                "start_time": 62.7886364,
                "end_time": 62.9386364,
                "pitch": 43,
                "velocity": 80,
                "duration": 0.15,
                "tempo": 120.0
            },
            {
                "start_time": 62.9704545,
                "end_time": 63.1204545,
                "pitch": 31,
                "velocity": 80,
                "duration": 0.15,
                "tempo": 120.0
            },
            {
                "start_time": 63.1522727,
                "end_time": 63.3045455,
                "pitch": 31,
                "velocity": 80,
                "duration": 0.1522727,
                "tempo": 120.0
            },
            {
                "start_time": 63.3227273,
                "end_time": 63.4909091,
                "pitch": 31,
                "velocity": 80,
                "duration": 0.1681818,
                "tempo": 120.0
            },
            {
                "start_time": 63.5090909,
                "end_time": 63.6522727,
                "pitch": 43,
                "velocity": 80,
                "duration": 0.1431818,
                "tempo": 120.0
            },
            {
                "start_time": 63.6840909,
                "end_time": 63.8295455,
                "pitch": 31,
                "velocity": 80,
                "duration": 0.1454545,
                "tempo": 120.0
            },
            {
                "start_time": 63.8659091,
                "end_time": 64.0159091,
                "pitch": 31,
                "velocity": 80,
                "duration": 0.15,
                "tempo": 120.0
            },
            {
                "start_time": 64.0522727,
                "end_time": 64.2090909,
                "pitch": 31,
                "velocity": 80,
                "duration": 0.1568182,
                "tempo": 120.0
            }
        ],
        "French Horn": [
            {
                "start_time": 0.1022727,
                "end_time": 0.7931818,
                "pitch": 70,
                "velocity": 40,
                "duration": 0.6909091,
                "tempo": 120.0
            },
            {
                "start_time": 0.8272727,
                "end_time": 1.5113636,
                "pitch": 70,
                "velocity": 40,
                "duration": 0.6840909,
                "tempo": 120.0
            },
            {
                "start_time": 1.5454545,
                "end_time": 2.4295455,
                "pitch": 72,
                "velocity": 40,
                "duration": 0.8840909,
                "tempo": 120.0
            },
            {
                "start_time": 2.4636364,
                "end_time": 2.6090909,
                "pitch": 74,
                "velocity": 40,
                "duration": 0.1454545,
                "tempo": 120.0
            },
            {
                "start_time": 2.6431818,
                "end_time": 2.7954545,
                "pitch": 75,
                "velocity": 40,
                "duration": 0.1522727,
                "tempo": 120.0
            },
            {
                "start_time": 2.8136364,
                "end_time": 2.9795455,
                "pitch": 77,
                "velocity": 40,
                "duration": 0.1659091,
                "tempo": 120.0
            },
            {
                "start_time": 2.9977273,
                "end_time": 3.5159091,
                "pitch": 77,
                "velocity": 40,
                "duration": 0.5181818,
                "tempo": 120.0
            },
            {
                "start_time": 3.55,
                "end_time": 4.0545455,
                "pitch": 72,
                "velocity": 40,
                "duration": 0.5045455,
                "tempo": 120.0
            },
            {
                "start_time": 4.0886364,
                "end_time": 4.4272727,
                "pitch": 69,
                "velocity": 40,
                "duration": 0.3386364,
                "tempo": 120.0
            },
            {
                "start_time": 4.4431818,
                "end_time": 5.8704545,
                "pitch": 77,
                "velocity": 40,
                "duration": 1.4272727,
                "tempo": 120.0
            },
            {
                "start_time": 5.9045455,
                "end_time": 6.5886364,
                "pitch": 70,
                "velocity": 40,
                "duration": 0.6840909,
                "tempo": 120.0
            },
            {
                "start_time": 6.6227273,
                "end_time": 7.3318182,
                "pitch": 70,
                "velocity": 40,
                "duration": 0.7090909,
                "tempo": 120.0
            },
            {
                "start_time": 7.3636364,
                "end_time": 8.2204545,
                "pitch": 79,
                "velocity": 40,
                "duration": 0.8568182,
                "tempo": 120.0
            },
            {
                "start_time": 8.2545455,
                "end_time": 8.4068182,
                "pitch": 75,
                "velocity": 40,
                "duration": 0.1522727,
                "tempo": 120.0
            },
            {
                "start_time": 8.4409091,
                "end_time": 8.5931818,
                "pitch": 77,
                "velocity": 40,
                "duration": 0.1522727,
                "tempo": 120.0
            },
            {
                "start_time": 8.6272727,
                "end_time": 8.775,
                "pitch": 79,
                "velocity": 40,
                "duration": 0.1477273,
                "tempo": 120.0
            },
            {
                "start_time": 8.8090909,
                "end_time": 9.3181818,
                "pitch": 74,
                "velocity": 40,
                "duration": 0.5090909,
                "tempo": 120.0
            },
            {
                "start_time": 9.3522727,
                "end_time": 9.85,
                "pitch": 74,
                "velocity": 40,
                "duration": 0.4977273,
                "tempo": 120.0
            },
            {
                "start_time": 9.8840909,
                "end_time": 10.2227273,
                "pitch": 69,
                "velocity": 40,
                "duration": 0.3386364,
                "tempo": 120.0
            },
            {
                "start_time": 10.2568182,
                "end_time": 11.1340909,
                "pitch": 78,
                "velocity": 40,
                "duration": 0.8772727,
                "tempo": 120.0
            },
            {
                "start_time": 11.1681818,
                "end_time": 11.3204545,
                "pitch": 81,
                "velocity": 40,
                "duration": 0.1522727,
                "tempo": 120.0
            },
            {
                "start_time": 11.3386364,
                "end_time": 11.5068182,
                "pitch": 79,
                "velocity": 40,
                "duration": 0.1681818,
                "tempo": 120.0
            },
            {
                "start_time": 11.525,
                "end_time": 11.675,
                "pitch": 78,
                "velocity": 40,
                "duration": 0.15,
                "tempo": 120.0
            },
            {
                "start_time": 11.7090909,
                "end_time": 12.4090909,
                "pitch": 70,
                "velocity": 40,
                "duration": 0.7,
                "tempo": 120.0
            },
            {
                "start_time": 12.4409091,
                "end_time": 13.1295455,
                "pitch": 70,
                "velocity": 40,
                "duration": 0.6886364,
                "tempo": 120.0
            },
            {
                "start_time": 13.1454545,
                "end_time": 14.0363636,
                "pitch": 72,
                "velocity": 40,
                "duration": 0.8909091,
                "tempo": 120.0
            },
            {
                "start_time": 14.0704545,
                "end_time": 14.2181818,
                "pitch": 74,
                "velocity": 40,
                "duration": 0.1477273,
                "tempo": 120.0
            },
            {
                "start_time": 14.2522727,
                "end_time": 14.4,
                "pitch": 75,
                "velocity": 40,
                "duration": 0.1477273,
                "tempo": 120.0
            },
            {
                "start_time": 14.4340909,
                "end_time": 14.5840909,
                "pitch": 77,
                "velocity": 40,
                "duration": 0.15,
                "tempo": 120.0
            },
            {
                "start_time": 14.6181818,
                "end_time": 15.1204545,
                "pitch": 77,
                "velocity": 40,
                "duration": 0.5022727,
                "tempo": 120.0
            },
            {
                "start_time": 15.1522727,
                "end_time": 15.6727273,
                "pitch": 72,
                "velocity": 40,
                "duration": 0.5204545,
                "tempo": 120.0
            },
            {
                "start_time": 15.7045455,
                "end_time": 16.0272727,
                "pitch": 69,
                "velocity": 40,
                "duration": 0.3227273,
                "tempo": 120.0
            },
            {
                "start_time": 16.0613636,
                "end_time": 17.4886364,
                "pitch": 77,
                "velocity": 40,
                "duration": 1.4272727,
                "tempo": 120.0
            },
            {
                "start_time": 17.5204545,
                "end_time": 18.2090909,
                "pitch": 70,
                "velocity": 40,
                "duration": 0.6886364,
                "tempo": 120.0
            },
            {
                "start_time": 18.225,
                "end_time": 18.9363636,
                "pitch": 70,
                "velocity": 40,
                "duration": 0.7113636,
                "tempo": 120.0
            },
            {
                "start_time": 18.9704545,
                "end_time": 19.8431818,
                "pitch": 79,
                "velocity": 40,
                "duration": 0.8727273,
                "tempo": 120.0
            },
            {
                "start_time": 19.8590909,
                "end_time": 20.025,
                "pitch": 75,
                "velocity": 40,
                "duration": 0.1659091,
                "tempo": 120.0
            },
            {
                "start_time": 20.0431818,
                "end_time": 20.1954545,
                "pitch": 77,
                "velocity": 40,
                "duration": 0.1522727,
                "tempo": 120.0
            },
            {
                "start_time": 20.2295455,
                "end_time": 20.3818182,
                "pitch": 79,
                "velocity": 40,
                "duration": 0.1522727,
                "tempo": 120.0
            },
            {
                "start_time": 20.4159091,
                "end_time": 20.9272727,
                "pitch": 74,
                "velocity": 40,
                "duration": 0.5113636,
                "tempo": 120.0
            },
            {
                "start_time": 20.9590909,
                "end_time": 21.4772727,
                "pitch": 74,
                "velocity": 40,
                "duration": 0.5181818,
                "tempo": 120.0
            },
            {
                "start_time": 21.4931818,
                "end_time": 21.825,
                "pitch": 69,
                "velocity": 40,
                "duration": 0.3318182,
                "tempo": 120.0
            },
            {
                "start_time": 21.8613636,
                "end_time": 23.1863636,
                "pitch": 78,
                "velocity": 40,
                "duration": 1.325,
                "tempo": 120.0
            },
            {
                "start_time": 63.9659091,
                "end_time": 64.2431818,
                "pitch": 70,
                "velocity": 40,
                "duration": 0.2772727,
                "tempo": 120.0
            }
        ]
    }
}