{
    "mood": "happy",
    "instruments": {
        "Electric Piano 1": [
            {
                "start_time": 1.3772727,
                "end_time": 1.5409091,
                "pitch": 54,
                "velocity": 80,
                "duration": 0.1636364,
                "tempo": 120.0
            },
            {
                "start_time": 1.5431818,
                "end_time": 1.7090909,
                "pitch": 54,
                "velocity": 80,
                "duration": 0.1659091,
                "tempo": 120.0
            },
            {
                "start_time": 1.7113636,
                "end_time": 1.8772727,
                "pitch": 49,
                "velocity": 80,
                "duration": 0.1659091,
                "tempo": 120.0
            },
            {
                "start_time": 1.8772727,
                "end_time": 2.0454545,
                "pitch": 50,
                "velocity": 80,
                "duration": 0.1681818,
                "tempo": 120.0
            },
            {
                "start_time": 2.2136364,
                "end_time": 2.3795455,
                "pitch": 52,
                "velocity": 80,
                "duration": 0.1659091,
                "tempo": 120.0
            },
            {
                "start_time": 2.5545455,
                "end_time": 2.725,
                "pitch": 50,
                "velocity": 80,
                "duration": 0.1704545,
                "tempo": 120.0
            },
            {
                "start_time": 2.7272727,
                "end_time": 2.8931818,
                "pitch": 54,
                "velocity": 80,
                "duration": 0.1659091,
                "tempo": 120.0
            },
            {
                "start_time": 2.8931818,
                "end_time": 3.0590909,
                "pitch": 52,
                "velocity": 80,
                "duration": 0.1659091,
                "tempo": 120.0
            },
            {
                "start_time": 3.0613636,
                "end_time": 3.2318182,
                "pitch": 50,
                "velocity": 80,
                "duration": 0.1704545,
                "tempo": 120.0
            },
            {
                "start_time": 3.2340909,
                "end_time": 3.7409091,
                "pitch": 49,
                "velocity": 80,
                "duration": 0.5068182,
                "tempo": 120.0
            },
            {
                "start_time": 4.0772727,
                "end_time": 4.2477273,
                "pitch": 54,
                "velocity": 80,
                "duration": 0.1704545,
                "tempo": 120.0
            },
            {
                "start_time": 4.25,
                "end_time": 4.4204545,
                "pitch": 54,
                "velocity": 80,
                "duration": 0.1704545,
                "tempo": 120.0
            },
            {
                "start_time": 4.4227273,
                "end_time": 4.5886364,
                "pitch": 49,
                "velocity": 80,
                "duration": 0.1659091,
                "tempo": 120.0
            },
            {
                "start_time": 4.5886364,
                "end_time": 4.7545455,
                "pitch": 50,
                "velocity": 80,
                "duration": 0.1659091,
                "tempo": 120.0
            },
            {
                "start_time": 4.925,
                "end_time": 5.0909091,
                "pitch": 52,
                "velocity": 80,
                "duration": 0.1659091,
                "tempo": 120.0
            },
            {
                "start_time": 5.2636364,
                "end_time": 5.4363636,
                "pitch": 50,
                "velocity": 80,
                "duration": 0.1727273,
                "tempo": 120.0
            },
            {
                "start_time": 5.4386364,
                "end_time": 5.6022727,
                "pitch": 54,
                "velocity": 80,
                "duration": 0.1636364,
                "tempo": 120.0
            },
            {
                "start_time": 5.6045455,
                "end_time": 5.7704545,
                "pitch": 52,
                "velocity": 80,
                "duration": 0.1659091,
                "tempo": 120.0
            },
            {
                "start_time": 5.7727273,
                "end_time": 5.9431818,
                "pitch": 50,
                "velocity": 80,
                "duration": 0.1704545,
                "tempo": 120.0
            },
            {
                "start_time": 5.9454545,
                "end_time": 6.45,
                "pitch": 49,
                "velocity": 80,
                "duration": 0.5045455,
                "tempo": 120.0
            },
            {
                "start_time": 6.7886364,
                "end_time": 6.9590909,
                "pitch": 59,
                "velocity": 80,
                "duration": 0.1704545,
                "tempo": 120.0
            },
            {
                "start_time": 6.9590909,
                "end_time": 7.1318182,
                "pitch": 59,
                "velocity": 80,
                "duration": 0.1727273,
                "tempo": 120.0
            },
            {
                "start_time": 7.1318182,
                "end_time": 7.2977273,
                "pitch": 54,
                "velocity": 80,
                "duration": 0.1659091,
                "tempo": 120.0
            },
            {
                "start_time": 7.3,
                "end_time": 7.4659091,
                "pitch": 56,
                "velocity": 80,
                "duration": 0.1659091,
                "tempo": 120.0
            },
            {
                "start_time": 7.6409091,
                "end_time": 7.8113636,
                "pitch": 57,
                "velocity": 80,
                "duration": 0.1704545,
                "tempo": 120.0
            },
            {
                "start_time": 7.9795455,
                "end_time": 8.1477273,
                "pitch": 56,
                "velocity": 80,
                "duration": 0.1681818,
                "tempo": 120.0
            },
            {
                "start_time": 8.1477273,
                "end_time": 8.3136364,
                "pitch": 59,
                "velocity": 80,
                "duration": 0.1659091,
                "tempo": 120.0
            },
            {
                "start_time": 8.3159091,
                "end_time": 8.4818182,
                "pitch": 57,
                "velocity": 80,
                "duration": 0.1659091,
                "tempo": 120.0
            },
            {
                "start_time": 8.4840909,
                "end_time": 8.6545455,
                "pitch": 56,
                "velocity": 80,
                "duration": 0.1704545,
                "tempo": 120.0
            },
            {
                "start_time": 8.6545455,
                "end_time": 9.1613636,
                "pitch": 54,
                "velocity": 80,
                "duration": 0.5068182,
                "tempo": 120.0
            },
            {
                "start_time": 9.5090909,
                "end_time": 9.675,
                "pitch": 59,
                "velocity": 80,
                "duration": 0.1659091,
                "tempo": 120.0
            },
            {
                "start_time": 9.675,
                "end_time": 9.8431818,
                "pitch": 59,
                "velocity": 80,
                "duration": 0.1681818,
                "tempo": 120.0
            },
            {
                "start_time": 9.8431818,
                "end_time": 10.0090909,
                "pitch": 54,
                "velocity": 80,
                "duration": 0.1659091,
                "tempo": 120.0
            },
            {
                "start_time": 10.0113636,
                "end_time": 10.1772727,
                "pitch": 56,
                "velocity": 80,
                "duration": 0.1659091,
                "tempo": 120.0
            },
            {
                "start_time": 10.3454545,
                "end_time": 10.5136364,
                "pitch": 57,
                "velocity": 80,
                "duration": 0.1681818,
                "tempo": 120.0
            },
            {
                "start_time": 10.6863636,
                "end_time": 10.8590909,
                "pitch": 56,
                "velocity": 80,
                "duration": 0.1727273,
                "tempo": 120.0
            },
            {
                "start_time": 10.8590909,
                "end_time": 11.0295455,
                "pitch": 54,
                "velocity": 80,
                "duration": 0.1704545,
                "tempo": 120.0
            },
            {
                "start_time": 11.0318182,
                "end_time": 11.2022727,
                "pitch": 66,
                "velocity": 80,
                "duration": 0.1704545,
                "tempo": 120.0
            },
            {
                "start_time": 11.3704545,
                "end_time": 11.5386364,
                "pitch": 64,
                "velocity": 80,
                "duration": 0.1681818,
                "tempo": 120.0
            },
            {
                "start_time": 11.7068182,
                "end_time": 11.8727273,
                "pitch": 62,
                "velocity": 80,
                "duration": 0.1659091,
                "tempo": 120.0
            },
            {
                "start_time": 12.0431818,
                "end_time": 12.2090909,
                "pitch": 61,
                "velocity": 80,
                "duration": 0.1659091,
                "tempo": 120.0
            },
            {
                "start_time": 12.2113636,
                "end_time": 12.3818182,
                "pitch": 54,
                "velocity": 80,
                "duration": 0.1704545,
                "tempo": 120.0
            },
            {
                "start_time": 12.3818182,
                "end_time": 12.5545455,
                "pitch": 54,
                "velocity": 80,
                "duration": 0.1727273,
                "tempo": 120.0
            },
            {
                "start_time": 12.5545455,
                "end_time": 12.7204545,
                "pitch": 49,
                "velocity": 80,
                "duration": 0.1659091,
                "tempo": 120.0
            },
            {
                "start_time": 12.7227273,
                "end_time": 12.8886364,
                "pitch": 50,
                "velocity": 80,
                "duration": 0.1659091,
                "tempo": 120.0
            },
            {
                "start_time": 13.0568182,
                "end_time": 13.225,
                "pitch": 52,
                "velocity": 80,
                "duration": 0.1681818,
                "tempo": 120.0
            },
            {
                "start_time": 13.3977273,
                "end_time": 13.5704545,
                "pitch": 50,
                "velocity": 80,
                "duration": 0.1727273,
                "tempo": 120.0
            },
            {
                "start_time": 13.5704545,
                "end_time": 13.7363636,
                "pitch": 54,
                "velocity": 80,
                "duration": 0.1659091,
                "tempo": 120.0
            },
            {
                "start_time": 13.7386364,
                "end_time": 13.9045455,
                "pitch": 52,
                "velocity": 80,
                "duration": 0.1659091,
                "tempo": 120.0
            },
            {
                "start_time": 13.9045455,
                "end_time": 14.0772727,
                "pitch": 50,
                "velocity": 80,
                "duration": 0.1727273,
                "tempo": 120.0
            },
            {
                "start_time": 14.0772727,
                "end_time": 14.5840909,
                "pitch": 49,
                "velocity": 80,
                "duration": 0.5068182,
                "tempo": 120.0
            },
            {
                "start_time": 14.9227273,
                "end_time": 15.0909091,
                "pitch": 54,
                "velocity": 80,
                "duration": 0.1681818,
                "tempo": 120.0
            },
            {
                "start_time": 15.0931818,
                "end_time": 15.2636364,
                "pitch": 54,
                "velocity": 80,
                "duration": 0.1704545,
                "tempo": 120.0
            },
            {
                "start_time": 15.2659091,
                "end_time": 15.4318182,
                "pitch": 49,
                "velocity": 80,
                "duration": 0.1659091,
                "tempo": 120.0
            },
            {
                "start_time": 15.4340909,
                "end_time": 15.6,
                "pitch": 50,
                "velocity": 80,
                "duration": 0.1659091,
                "tempo": 120.0
            },
            {
                "start_time": 15.7681818,
                "end_time": 15.9340909,
                "pitch": 52,
                "velocity": 80,
                "duration": 0.1659091,
                "tempo": 120.0
            },
            {
                "start_time": 16.1090909,
                "end_time": 16.2795455,
                "pitch": 50,
                "velocity": 80,
                "duration": 0.1704545,
                "tempo": 120.0
            },
            {
                "start_time": 16.2818182,
                "end_time": 16.4477273,
                "pitch": 54,
                "velocity": 80,
                "duration": 0.1659091,
                "tempo": 120.0
            },
            {
                "start_time": 16.4477273,
                "end_time": 16.6159091,
                "pitch": 52,
                "velocity": 80,
                "duration": 0.1681818,
                "tempo": 120.0
            },
            {
                "start_time": 16.6159091,
                "end_time": 16.7863636,
                "pitch": 50,
                "velocity": 80,
                "duration": 0.1704545,
                "tempo": 120.0
            },
            {
                "start_time": 16.7886364,
                "end_time": 17.2954545,
                "pitch": 49,
                "velocity": 80,
                "duration": 0.5068182,
                "tempo": 120.0
            },
            {
                "start_time": 17.6318182,
                "end_time": 17.8022727,
                "pitch": 59,
                "velocity": 80,
                "duration": 0.1704545,
                "tempo": 120.0
            },
            {
                "start_time": 17.8045455,
                "end_time": 17.975,
                "pitch": 59,
                "velocity": 80,
                "duration": 0.1704545,
                "tempo": 120.0
            },
            {
                "start_time": 17.9772727,
                "end_time": 18.1431818,
                "pitch": 54,
                "velocity": 80,
                "duration": 0.1659091,
                "tempo": 120.0
            },
            {
                "start_time": 18.1454545,
                "end_time": 18.3113636,
                "pitch": 56,
                "velocity": 80,
                "duration": 0.1659091,
                "tempo": 120.0
            },
            {
                "start_time": 18.4840909,
                "end_time": 18.6545455,
                "pitch": 57,
                "velocity": 80,
                "duration": 0.1704545,
                "tempo": 120.0
            },
            {
                "start_time": 18.825,
                "end_time": 18.9909091,
                "pitch": 56,
                "velocity": 80,
                "duration": 0.1659091,
                "tempo": 120.0
            },
            {
                "start_time": 18.9931818,
                "end_time": 19.1590909,
                "pitch": 59,
                "velocity": 80,
                "duration": 0.1659091,
                "tempo": 120.0
            },
            {
                "start_time": 19.1590909,
                "end_time": 19.3272727,
                "pitch": 57,
                "velocity": 80,
                "duration": 0.1681818,
                "tempo": 120.0
            },
            {
                "start_time": 19.3272727,
                "end_time": 19.4977273,
                "pitch": 56,
                "velocity": 80,
                "duration": 0.1704545,
                "tempo": 120.0
            },
            {
                "start_time": 19.5,
                "end_time": 20.0068182,
                "pitch": 54,
                "velocity": 80,
                "duration": 0.5068182,
                "tempo": 120.0
            },
            {
                "start_time": 20.3522727,
                "end_time": 20.5181818,
                "pitch": 59,
                "velocity": 80,
                "duration": 0.1659091,
                "tempo": 120.0
            },
            {
                "start_time": 20.5204545,
                "end_time": 20.6863636,
                "pitch": 59,
                "velocity": 80,
                "duration": 0.1659091,
                "tempo": 120.0
            },
            {
                "start_time": 20.6886364,
                "end_time": 20.8545455,
                "pitch": 54,
                "velocity": 80,
                "duration": 0.1659091,
                "tempo": 120.0
            },
            {
                "start_time": 20.8545455,
                "end_time": 21.0227273,
                "pitch": 56,
                "velocity": 80,
                "duration": 0.1681818,
                "tempo": 120.0
            },
            {
                "start_time": 21.1954545,
                "end_time": 21.3659091,
                "pitch": 57,
                "velocity": 80,
                "duration": 0.1704545,
                "tempo": 120.0
            },
            {
                "start_time": 21.5363636,
                "end_time": 21.7022727,
                "pitch": 56,
                "velocity": 80,
                "duration": 0.1659091,
                "tempo": 120.0
            },
            {
                "start_time": 21.7045455,
                "end_time": 21.8727273,
                "pitch": 54,
                "velocity": 80,
                "duration": 0.1681818,
                "tempo": 120.0
            },
            {
                "start_time": 21.875,
                "end_time": 22.0454545,
                "pitch": 66,
                "velocity": 80,
                "duration": 0.1704545,
                "tempo": 120.0
            },
            {
                "start_time": 22.2159091,
                "end_time": 22.3818182,
                "pitch": 64,
                "velocity": 80,
                "duration": 0.1659091,
                "tempo": 120.0
            },
            {
                "start_time": 22.55,
                "end_time": 22.7181818,
                "pitch": 62,
                "velocity": 80,
                "duration": 0.1681818,
                "tempo": 120.0
            },
            {
                "start_time": 22.8909091,
                "end_time": 23.0613636,
                "pitch": 61,
                "velocity": 80,
                "duration": 0.1704545,
                "tempo": 120.0
            },
            {
                "start_time": 23.2318182,
                "end_time": 23.3136364,
                "pitch": 62,
                "velocity": 80,
                "duration": 0.0818182,
                "tempo": 120.0
            },
            {
                "start_time": 23.4,
                "end_time": 23.4818182,
                "pitch": 62,
                "velocity": 80,
                "duration": 0.0818182,
                "tempo": 120.0
            },
            {
                "start_time": 23.4818182,
                "end_time": 23.5659091,
                "pitch": 64,
                "velocity": 80,
                "duration": 0.0840909,
                "tempo": 120.0
            },
            {
                "start_time": 23.5659091,
                "end_time": 23.7318182,
                "pitch": 62,
                "velocity": 80,
                "duration": 0.1659091,
                "tempo": 120.0
            },
            {
                "start_time": 23.7340909,
                "end_time": 23.8159091,
                "pitch": 61,
                "velocity": 80,
                "duration": 0.0818182,
                "tempo": 120.0
            },
            {
                "start_time": 23.9022727,
                "end_time": 23.9840909,
                "pitch": 61,
                "velocity": 80,
                "duration": 0.0818182,
                "tempo": 120.0
            },
            {
                "start_time": 23.9863636,
                "end_time": 24.0681818,
                "pitch": 62,
                "velocity": 80,
                "duration": 0.0818182,
                "tempo": 120.0
            },
            {
                "start_time": 24.0704545,
                "end_time": 24.1545455,
                "pitch": 61,
                "velocity": 80,
                "duration": 0.0840909,
                "tempo": 120.0
            },
            {
                "start_time": 24.1568182,
                "end_time": 24.4136364,
                "pitch": 57,
                "velocity": 80,
                "duration": 0.2568182,
                "tempo": 120.0
            },
            {
                "start_time": 24.5818182,
                "end_time": 24.6636364,
                "pitch": 61,
                "velocity": 80,
                "duration": 0.0818182,
                "tempo": 120.0
            },
            {
                "start_time": 24.75,
                "end_time": 24.8340909,
                "pitch": 61,
                "velocity": 80,
                "duration": 0.0840909,
                "tempo": 120.0
            },
            {
                "start_time": 24.8363636,
                "end_time": 24.9204545,
                "pitch": 62,
                "velocity": 80,
                "duration": 0.0840909,
                "tempo": 120.0
            },
            {
                "start_time": 24.9227273,
                "end_time": 25.0931818,
                "pitch": 61,
                "velocity": 80,
                "duration": 0.1704545,
                "tempo": 120.0
            },
            {
                "start_time": 25.0954545,
                "end_time": 25.1772727,
                "pitch": 62,
                "velocity": 80,
                "duration": 0.0818182,
                "tempo": 120.0
            },
            {
                "start_time": 25.2613636,
                "end_time": 25.3431818,
                "pitch": 62,
                "velocity": 80,
                "duration": 0.0818182,
                "tempo": 120.0
            },
            {
                "start_time": 25.3454545,
                "end_time": 25.4272727,
                "pitch": 64,
                "velocity": 80,
                "duration": 0.0818182,
                "tempo": 120.0
            },
            {
                "start_time": 25.4295455,
                "end_time": 25.5136364,
                "pitch": 62,
                "velocity": 80,
                "duration": 0.0840909,
                "tempo": 120.0
            },
            {
                "start_time": 25.5159091,
                "end_time": 25.6,
                "pitch": 61,
                "velocity": 80,
                "duration": 0.0840909,
                "tempo": 120.0
            },
            {
                "start_time": 25.6022727,
                "end_time": 25.6863636,
                "pitch": 59,
                "velocity": 80,
                "duration": 0.0840909,
                "tempo": 120.0
            },
            {
                "start_time": 25.6886364,
                "end_time": 25.7727273,
                "pitch": 57,
                "velocity": 80,
                "duration": 0.0840909,
                "tempo": 120.0
            },
            {
                "start_time": 25.9409091,
                "end_time": 26.025,
                "pitch": 62,
                "velocity": 80,
                "duration": 0.0840909,
                "tempo": 120.0
            },
            {
                "start_time": 26.1090909,
                "end_time": 26.1909091,
                "pitch": 62,
                "velocity": 80,
                "duration": 0.0818182,
                "tempo": 120.0
            },
            {
                "start_time": 26.1931818,
                "end_time": 26.275,
                "pitch": 64,
                "velocity": 80,
                "duration": 0.0818182,
                "tempo": 120.0
            },
            {
                "start_time": 26.2772727,
                "end_time": 26.4431818,
                "pitch": 62,
                "velocity": 80,
                "duration": 0.1659091,
                "tempo": 120.0
            },
            {
                "start_time": 26.4454545,
                "end_time": 26.5295455,
                "pitch": 61,
                "velocity": 80,
                "duration": 0.0840909,
                "tempo": 120.0
            },
            {
                "start_time": 26.6181818,
                "end_time": 26.7022727,
                "pitch": 61,
                "velocity": 80,
                "duration": 0.0840909,
                "tempo": 120.0
            },
            {
                "start_time": 26.7045455,
                "end_time": 26.7886364,
                "pitch": 62,
                "velocity": 80,
                "duration": 0.0840909,
                "tempo": 120.0
            },
            {
                "start_time": 26.7909091,
                "end_time": 26.8727273,
                "pitch": 61,
                "velocity": 80,
                "duration": 0.0818182,
                "tempo": 120.0
            },
            {
                "start_time": 26.875,
                "end_time": 27.125,
                "pitch": 57,
                "velocity": 80,
                "duration": 0.25,
                "tempo": 120.0
            },
            {
                "start_time": 27.2931818,
                "end_time": 27.375,
                "pitch": 61,
                "velocity": 80,
                "duration": 0.0818182,
                "tempo": 120.0
            },
            {
                "start_time": 27.4613636,
                "end_time": 27.5454545,
                "pitch": 61,
                "velocity": 80,
                "duration": 0.0840909,
                "tempo": 120.0
            },
            {
                "start_time": 27.5477273,
                "end_time": 27.6318182,
                "pitch": 62,
                "velocity": 80,
                "duration": 0.0840909,
                "tempo": 120.0
            },
            {
                "start_time": 27.6318182,
                "end_time": 27.8045455,
                "pitch": 61,
                "velocity": 80,
                "duration": 0.1727273,
                "tempo": 120.0
            },
            {
                "start_time": 27.8045455,
                "end_time": 28.1386364,
                "pitch": 57,
                "velocity": 80,
                "duration": 0.3340909,
                "tempo": 120.0
            },
            {
                "start_time": 28.1409091,
                "end_time": 28.4840909,
                "pitch": 59,
                "velocity": 80,
                "duration": 0.3431818,
                "tempo": 120.0
            },
            {
                "start_time": 28.6522727,
                "end_time": 28.7363636,
                "pitch": 62,
                "velocity": 80,
                "duration": 0.0840909,
                "tempo": 120.0
            },
            {
                "start_time": 28.8204545,
                "end_time": 28.9022727,
                "pitch": 62,
                "velocity": 80,
                "duration": 0.0818182,
                "tempo": 120.0
            },
            {
                "start_time": 28.9045455,
                "end_time": 28.9863636,
                "pitch": 64,
                "velocity": 80,
                "duration": 0.0818182,
                "tempo": 120.0
            },
            {
                "start_time": 28.9886364,
                "end_time": 29.1545455,
                "pitch": 62,
                "velocity": 80,
                "duration": 0.1659091,
                "tempo": 120.0
            },
            {
                "start_time": 29.1568182,
                "end_time": 29.2409091,
                "pitch": 61,
                "velocity": 80,
                "duration": 0.0840909,
                "tempo": 120.0
            },
            {
                "start_time": 29.3272727,
                "end_time": 29.4136364,
                "pitch": 61,
                "velocity": 80,
                "duration": 0.0863636,
                "tempo": 120.0
            },
            {
                "start_time": 29.4136364,
                "end_time": 29.5,
                "pitch": 62,
                "velocity": 80,
                "duration": 0.0863636,
                "tempo": 120.0
            },
            {
                "start_time": 29.5,
                "end_time": 29.5840909,
                "pitch": 61,
                "velocity": 80,
                "duration": 0.0840909,
                "tempo": 120.0
            },
            {
                "start_time": 29.5840909,
                "end_time": 29.8363636,
                "pitch": 57,
                "velocity": 80,
                "duration": 0.2522727,
                "tempo": 120.0
            },
            {
                "start_time": 30.0045455,
                "end_time": 30.0863636,
                "pitch": 61,
                "velocity": 80,
                "duration": 0.0818182,
                "tempo": 120.0
            },
            {
                "start_time": 30.1727273,
                "end_time": 30.2568182,
                "pitch": 61,
                "velocity": 80,
                "duration": 0.0840909,
                "tempo": 120.0
            },
            {
                "start_time": 30.2568182,
                "end_time": 30.3431818,
                "pitch": 62,
                "velocity": 80,
                "duration": 0.0863636,
                "tempo": 120.0
            },
            {
                "start_time": 30.3431818,
                "end_time": 30.5159091,
                "pitch": 61,
                "velocity": 80,
                "duration": 0.1727273,
                "tempo": 120.0
            },
            {
                "start_time": 30.5159091,
                "end_time": 30.5977273,
                "pitch": 62,
                "velocity": 80,
                "duration": 0.0818182,
                "tempo": 120.0
            },
            {
                "start_time": 30.6840909,
                "end_time": 30.7659091,
                "pitch": 62,
                "velocity": 80,
                "duration": 0.0818182,
                "tempo": 120.0
            },
            {
                "start_time": 30.7681818,
                "end_time": 30.85,
                "pitch": 64,
                "velocity": 80,
                "duration": 0.0818182,
                "tempo": 120.0
            },
            {
                "start_time": 30.8522727,
                "end_time": 30.9363636,
                "pitch": 62,
                "velocity": 80,
                "duration": 0.0840909,
                "tempo": 120.0
            },
            {
                "start_time": 30.9386364,
                "end_time": 31.0227273,
                "pitch": 61,
                "velocity": 80,
                "duration": 0.0840909,
                "tempo": 120.0
            },
            {
                "start_time": 31.025,
                "end_time": 31.1090909,
                "pitch": 59,
                "velocity": 80,
                "duration": 0.0840909,
                "tempo": 120.0
            },
            {
                "start_time": 31.1090909,
                "end_time": 31.1954545,
                "pitch": 57,
                "velocity": 80,
                "duration": 0.0863636,
                "tempo": 120.0
            },
            {
                "start_time": 31.3636364,
                "end_time": 31.4454545,
                "pitch": 62,
                "velocity": 80,
                "duration": 0.0818182,
                "tempo": 120.0
            },
            {
                "start_time": 31.5318182,
                "end_time": 31.6136364,
                "pitch": 62,
                "velocity": 80,
                "duration": 0.0818182,
                "tempo": 120.0
            },
            {
                "start_time": 31.6159091,
                "end_time": 31.6977273,
                "pitch": 64,
                "velocity": 80,
                "duration": 0.0818182,
                "tempo": 120.0
            },
            {
                "start_time": 31.7,
                "end_time": 31.8659091,
                "pitch": 62,
                "velocity": 80,
                "duration": 0.1659091,
                "tempo": 120.0
            },
            {
                "start_time": 31.8681818,
                "end_time": 31.9522727,
                "pitch": 61,
                "velocity": 80,
                "duration": 0.0840909,
                "tempo": 120.0
            },
            {
                "start_time": 32.0386364,
                "end_time": 32.125,
                "pitch": 61,
                "velocity": 80,
                "duration": 0.0863636,
                "tempo": 120.0
            },
            {
                "start_time": 32.125,
                "end_time": 32.2113636,
                "pitch": 62,
                "velocity": 80,
                "duration": 0.0863636,
                "tempo": 120.0
            },
            {
                "start_time": 32.2113636,
                "end_time": 32.2931818,
                "pitch": 61,
                "velocity": 80,
                "duration": 0.0818182,
                "tempo": 120.0
            },
            {
                "start_time": 32.2954545,
                "end_time": 32.3772727,
                "pitch": 62,
                "velocity": 80,
                "duration": 0.0818182,
                "tempo": 120.0
            },
            {
                "start_time": 32.3795455,
                "end_time": 32.5454545,
                "pitch": 57,
                "velocity": 80,
                "duration": 0.1659091,
                "tempo": 120.0
            },
            {
                "start_time": 32.5477273,
                "end_time": 33.0477273,
                "pitch": 59,
                "velocity": 80,
                "duration": 0.5,
                "tempo": 120.0
            },
            {
                "start_time": 33.9136364,
                "end_time": 33.9227273,
                "pitch": 54,
                "velocity": 80,
                "duration": 0.0090909,
                "tempo": 120.0
            }
        ],
        "Acoustic Bass": [
            {
                "start_time": 1.3818182,
                "end_time": 1.7113636,
                "pitch": 35,
                "velocity": 80,
                "duration": 0.3295455,
                "tempo": 120.0
            },
            {
                "start_time": 1.7136364,
                "end_time": 1.8795455,
                "pitch": 47,
                "velocity": 80,
                "duration": 0.1659091,
                "tempo": 120.0
            },
            {
                "start_time": 1.8818182,
                "end_time": 2.2159091,
                "pitch": 35,
                "velocity": 80,
                "duration": 0.3340909,
                "tempo": 120.0
            },
            {
                "start_time": 2.2159091,
                "end_time": 2.5545455,
                "pitch": 45,
                "velocity": 80,
                "duration": 0.3386364,
                "tempo": 120.0
            },
            {
                "start_time": 2.5568182,
                "end_time": 2.7272727,
                "pitch": 44,
                "velocity": 80,
                "duration": 0.1704545,
                "tempo": 120.0
            },
            {
                "start_time": 2.7295455,
                "end_time": 2.8954545,
                "pitch": 35,
                "velocity": 80,
                "duration": 0.1659091,
                "tempo": 120.0
            },
            {
                "start_time": 2.8954545,
                "end_time": 3.2363636,
                "pitch": 47,
                "velocity": 80,
                "duration": 0.3409091,
                "tempo": 120.0
            },
            {
                "start_time": 3.2363636,
                "end_time": 3.575,
                "pitch": 35,
                "velocity": 80,
                "duration": 0.3386364,
                "tempo": 120.0
            },
            {
                "start_time": 3.575,
                "end_time": 3.7409091,
                "pitch": 45,
                "velocity": 80,
                "duration": 0.1659091,
                "tempo": 120.0
            },
            {
                "start_time": 3.7409091,
                "end_time": 3.9068182,
                "pitch": 44,
                "velocity": 80,
                "duration": 0.1659091,
                "tempo": 120.0
            },
            {
                "start_time": 3.9090909,
                "end_time": 4.0795455,
                "pitch": 42,
                "velocity": 80,
                "duration": 0.1704545,
                "tempo": 120.0
            },
            {
                "start_time": 4.0795455,
                "end_time": 4.4227273,
                "pitch": 35,
                "velocity": 80,
                "duration": 0.3431818,
                "tempo": 120.0
            },
            {
                "start_time": 4.425,
                "end_time": 4.5909091,
                "pitch": 47,
                "velocity": 80,
                "duration": 0.1659091,
                "tempo": 120.0
            },
            {
                "start_time": 4.5909091,
                "end_time": 4.9272727,
                "pitch": 35,
                "velocity": 80,
                "duration": 0.3363636,
                "tempo": 120.0
            },
            {
                "start_time": 4.9272727,
                "end_time": 5.2659091,
                "pitch": 45,
                "velocity": 80,
                "duration": 0.3386364,
                "tempo": 120.0
            },
            {
                "start_time": 5.2681818,
                "end_time": 5.4386364,
                "pitch": 44,
                "velocity": 80,
                "duration": 0.1704545,
                "tempo": 120.0
            },
            {
                "start_time": 5.4409091,
                "end_time": 5.6068182,
                "pitch": 35,
                "velocity": 80,
                "duration": 0.1659091,
                "tempo": 120.0
            },
            {
                "start_time": 5.6068182,
                "end_time": 5.9454545,
                "pitch": 47,
                "velocity": 80,
                "duration": 0.3386364,
                "tempo": 120.0
            },
            {
                "start_time": 5.9477273,
                "end_time": 6.2863636,
                "pitch": 35,
                "velocity": 80,
                "duration": 0.3386364,
                "tempo": 120.0
            },
            {
                "start_time": 6.2863636,
                "end_time": 6.4522727,
                "pitch": 45,
                "velocity": 80,
                "duration": 0.1659091,
                "tempo": 120.0
            },
            {
                "start_time": 6.4522727,
                "end_time": 6.6181818,
                "pitch": 44,
                "velocity": 80,
                "duration": 0.1659091,
                "tempo": 120.0
            },
            {
                "start_time": 6.6204545,
                "end_time": 6.7909091,
                "pitch": 42,
                "velocity": 80,
                "duration": 0.1704545,
                "tempo": 120.0
            },
            {
                "start_time": 6.7909091,
                "end_time": 7.1340909,
                "pitch": 40,
                "velocity": 80,
                "duration": 0.3431818,
                "tempo": 120.0
            },
            {
                "start_time": 7.1363636,
                "end_time": 7.3022727,
                "pitch": 52,
                "velocity": 80,
                "duration": 0.1659091,
                "tempo": 120.0
            },
            {
                "start_time": 7.3022727,
                "end_time": 7.6409091,
                "pitch": 40,
                "velocity": 80,
                "duration": 0.3386364,
                "tempo": 120.0
            },
            {
                "start_time": 7.6431818,
                "end_time": 7.9818182,
                "pitch": 50,
                "velocity": 80,
                "duration": 0.3386364,
                "tempo": 120.0
            },
            {
                "start_time": 7.9818182,
                "end_time": 8.15,
                "pitch": 49,
                "velocity": 80,
                "duration": 0.1681818,
                "tempo": 120.0
            },
            {
                "start_time": 8.1522727,
                "end_time": 8.3181818,
                "pitch": 40,
                "velocity": 80,
                "duration": 0.1659091,
                "tempo": 120.0
            },
            {
                "start_time": 8.3181818,
                "end_time": 8.6568182,
                "pitch": 52,
                "velocity": 80,
                "duration": 0.3386364,
                "tempo": 120.0
            },
            {
                "start_time": 8.6590909,
                "end_time": 8.9977273,
                "pitch": 40,
                "velocity": 80,
                "duration": 0.3386364,
                "tempo": 120.0
            },
            {
                "start_time": 8.9977273,
                "end_time": 9.1636364,
                "pitch": 38,
                "velocity": 80,
                "duration": 0.1659091,
                "tempo": 120.0
            },
            {
                "start_time": 9.1636364,
                "end_time": 9.3340909,
                "pitch": 37,
                "velocity": 80,
                "duration": 0.1704545,
                "tempo": 120.0
            },
            {
                "start_time": 9.3340909,
                "end_time": 9.5113636,
                "pitch": 35,
                "velocity": 80,
                "duration": 0.1772727,
                "tempo": 120.0
            },
            {
                "start_time": 9.5113636,
                "end_time": 9.8454545,
                "pitch": 28,
                "velocity": 80,
                "duration": 0.3340909,
                "tempo": 120.0
            },
            {
                "start_time": 9.8454545,
                "end_time": 10.0136364,
                "pitch": 40,
                "velocity": 80,
                "duration": 0.1681818,
                "tempo": 120.0
            },
            {
                "start_time": 10.0136364,
                "end_time": 10.3477273,
                "pitch": 28,
                "velocity": 80,
                "duration": 0.3340909,
                "tempo": 120.0
            },
            {
                "start_time": 10.35,
                "end_time": 10.6886364,
                "pitch": 38,
                "velocity": 80,
                "duration": 0.3386364,
                "tempo": 120.0
            },
            {
                "start_time": 10.6886364,
                "end_time": 10.8613636,
                "pitch": 37,
                "velocity": 80,
                "duration": 0.1727273,
                "tempo": 120.0
            },
            {
                "start_time": 10.8636364,
                "end_time": 11.0340909,
                "pitch": 28,
                "velocity": 80,
                "duration": 0.1704545,
                "tempo": 120.0
            },
            {
                "start_time": 11.0340909,
                "end_time": 11.2022727,
                "pitch": 40,
                "velocity": 80,
                "duration": 0.1681818,
                "tempo": 120.0
            },
            {
                "start_time": 11.2045455,
                "end_time": 11.3727273,
                "pitch": 30,
                "velocity": 80,
                "duration": 0.1681818,
                "tempo": 120.0
            },
            {
                "start_time": 11.375,
                "end_time": 11.5386364,
                "pitch": 42,
                "velocity": 80,
                "duration": 0.1636364,
                "tempo": 120.0
            },
            {
                "start_time": 11.5386364,
                "end_time": 11.7090909,
                "pitch": 31,
                "velocity": 80,
                "duration": 0.1704545,
                "tempo": 120.0
            },
            {
                "start_time": 11.7090909,
                "end_time": 11.875,
                "pitch": 43,
                "velocity": 80,
                "duration": 0.1659091,
                "tempo": 120.0
            },
            {
                "start_time": 11.875,
                "end_time": 12.0431818,
                "pitch": 32,
                "velocity": 80,
                "duration": 0.1681818,
                "tempo": 120.0
            },
            {
                "start_time": 12.0454545,
                "end_time": 12.2159091,
                "pitch": 45,
                "velocity": 80,
                "duration": 0.1704545,
                "tempo": 120.0
            },
            {
                "start_time": 12.2159091,
                "end_time": 12.5568182,
                "pitch": 35,
                "velocity": 80,
                "duration": 0.3409091,
                "tempo": 120.0
            },
            {
                "start_time": 12.5568182,
                "end_time": 12.725,
                "pitch": 47,
                "velocity": 80,
                "duration": 0.1681818,
                "tempo": 120.0
            },
            {
                "start_time": 12.725,
                "end_time": 13.0590909,
                "pitch": 35,
                "velocity": 80,
                "duration": 0.3340909,
                "tempo": 120.0
            },
            {
                "start_time": 13.0613636,
                "end_time": 13.4,
                "pitch": 45,
                "velocity": 80,
                "duration": 0.3386364,
                "tempo": 120.0
            },
            {
                "start_time": 13.4,
                "end_time": 13.5727273,
                "pitch": 44,
                "velocity": 80,
                "duration": 0.1727273,
                "tempo": 120.0
            },
            {
                "start_time": 13.5727273,
                "end_time": 13.7386364,
                "pitch": 35,
                "velocity": 80,
                "duration": 0.1659091,
                "tempo": 120.0
            },
            {
                "start_time": 13.7409091,
                "end_time": 14.0795455,
                "pitch": 47,
                "velocity": 80,
                "duration": 0.3386364,
                "tempo": 120.0
            },
            {
                "start_time": 14.0795455,
                "end_time": 14.4181818,
                "pitch": 35,
                "velocity": 80,
                "duration": 0.3386364,
                "tempo": 120.0
            },
            {
                "start_time": 14.4204545,
                "end_time": 14.5840909,
                "pitch": 45,
                "velocity": 80,
                "duration": 0.1636364,
                "tempo": 120.0
            },
            {
                "start_time": 14.5863636,
                "end_time": 14.7522727,
                "pitch": 44,
                "velocity": 80,
                "duration": 0.1659091,
                "tempo": 120.0
            },
            {
                "start_time": 14.7522727,
                "end_time": 14.9227273,
                "pitch": 42,
                "velocity": 80,
                "duration": 0.1704545,
                "tempo": 120.0
            },
            {
                "start_time": 14.925,
                "end_time": 15.2681818,
                "pitch": 35,
                "velocity": 80,
                "duration": 0.3431818,
                "tempo": 120.0
            },
            {
                "start_time": 15.2681818,
                "end_time": 15.4340909,
                "pitch": 47,
                "velocity": 80,
                "duration": 0.1659091,
                "tempo": 120.0
            },
            {
                "start_time": 15.4363636,
                "end_time": 15.7704545,
                "pitch": 35,
                "velocity": 80,
                "duration": 0.3340909,
                "tempo": 120.0
            },
            {
                "start_time": 15.7704545,
                "end_time": 16.1113636,
                "pitch": 45,
                "velocity": 80,
                "duration": 0.3409091,
                "tempo": 120.0
            },
            {
                "start_time": 16.1113636,
                "end_time": 16.2840909,
                "pitch": 44,
                "velocity": 80,
                "duration": 0.1727273,
                "tempo": 120.0
            },
            {
                "start_time": 16.2840909,
                "end_time": 16.45,
                "pitch": 35,
                "velocity": 80,
                "duration": 0.1659091,
                "tempo": 120.0
            },
            {
                "start_time": 16.4522727,
                "end_time": 16.7909091,
                "pitch": 47,
                "velocity": 80,
                "duration": 0.3386364,
                "tempo": 120.0
            },
            {
                "start_time": 16.7909091,
                "end_time": 17.1295455,
                "pitch": 35,
                "velocity": 80,
                "duration": 0.3386364,
                "tempo": 120.0
            },
            {
                "start_time": 17.1318182,
                "end_time": 17.2954545,
                "pitch": 45,
                "velocity": 80,
                "duration": 0.1636364,
                "tempo": 120.0
            },
            {
                "start_time": 17.2977273,
                "end_time": 17.4636364,
                "pitch": 44,
                "velocity": 80,
                "duration": 0.1659091,
                "tempo": 120.0
            },
            {
                "start_time": 17.4636364,
                "end_time": 17.6340909,
                "pitch": 42,
                "velocity": 80,
                "duration": 0.1704545,
                "tempo": 120.0
            },
            {
                "start_time": 17.6363636,
                "end_time": 17.9795455,
                "pitch": 40,
                "velocity": 80,
                "duration": 0.3431818,
                "tempo": 120.0
            },
            {
                "start_time": 17.9795455,
                "end_time": 18.1454545,
                "pitch": 52,
                "velocity": 80,
                "duration": 0.1659091,
                "tempo": 120.0
            },
            {
                "start_time": 18.1477273,
                "end_time": 18.4863636,
                "pitch": 40,
                "velocity": 80,
                "duration": 0.3386364,
                "tempo": 120.0
            },
            {
                "start_time": 18.4863636,
                "end_time": 18.8272727,
                "pitch": 50,
                "velocity": 80,
                "duration": 0.3409091,
                "tempo": 120.0
            },
            {
                "start_time": 18.8272727,
                "end_time": 18.9954545,
                "pitch": 49,
                "velocity": 80,
                "duration": 0.1681818,
                "tempo": 120.0
            },
            {
                "start_time": 18.9954545,
                "end_time": 19.1613636,
                "pitch": 40,
                "velocity": 80,
                "duration": 0.1659091,
                "tempo": 120.0
            },
            {
                "start_time": 19.1613636,
                "end_time": 19.5022727,
                "pitch": 52,
                "velocity": 80,
                "duration": 0.3409091,
                "tempo": 120.0
            },
            {
                "start_time": 19.5022727,
                "end_time": 19.8409091,
                "pitch": 40,
                "velocity": 80,
                "duration": 0.3386364,
                "tempo": 120.0
            },
            {
                "start_time": 19.8409091,
                "end_time": 20.0068182,
                "pitch": 38,
                "velocity": 80,
                "duration": 0.1659091,
                "tempo": 120.0
            },
            {
                "start_time": 20.0068182,
                "end_time": 20.1795455,
                "pitch": 37,
                "velocity": 80,
                "duration": 0.1727273,
                "tempo": 120.0
            },
            {
                "start_time": 20.1795455,
                "end_time": 20.3545455,
                "pitch": 35,
                "velocity": 80,
                "duration": 0.175,
                "tempo": 120.0
            },
            {
                "start_time": 20.3568182,
                "end_time": 20.6886364,
                "pitch": 28,
                "velocity": 80,
                "duration": 0.3318182,
                "tempo": 120.0
            },
            {
                "start_time": 20.6909091,
                "end_time": 20.8568182,
                "pitch": 40,
                "velocity": 80,
                "duration": 0.1659091,
                "tempo": 120.0
            },
            {
                "start_time": 20.8590909,
                "end_time": 21.1977273,
                "pitch": 28,
                "velocity": 80,
                "duration": 0.3386364,
                "tempo": 120.0
            },
            {
                "start_time": 21.1977273,
                "end_time": 21.5363636,
                "pitch": 38,
                "velocity": 80,
                "duration": 0.3386364,
                "tempo": 120.0
            },
            {
                "start_time": 21.5386364,
                "end_time": 21.7045455,
                "pitch": 37,
                "velocity": 80,
                "duration": 0.1659091,
                "tempo": 120.0
            },
            {
                "start_time": 21.7068182,
                "end_time": 21.8772727,
                "pitch": 28,
                "velocity": 80,
                "duration": 0.1704545,
                "tempo": 120.0
            },
            {
                "start_time": 21.8772727,
                "end_time": 22.0477273,
                "pitch": 40,
                "velocity": 80,
                "duration": 0.1704545,
                "tempo": 120.0
            },
            {
                "start_time": 22.0477273,
                "end_time": 22.2181818,
                "pitch": 30,
                "velocity": 80,
                "duration": 0.1704545,
                "tempo": 120.0
            },
            {
                "start_time": 22.2181818,
                "end_time": 22.3818182,
                "pitch": 42,
                "velocity": 80,
                "duration": 0.1636364,
                "tempo": 120.0
            },
            {
                "start_time": 22.3840909,
                "end_time": 22.5522727,
                "pitch": 31,
                "velocity": 80,
                "duration": 0.1681818,
                "tempo": 120.0
            },
            {
                "start_time": 22.5545455,
                "end_time": 22.7181818,
                "pitch": 43,
                "velocity": 80,
                "duration": 0.1636364,
                "tempo": 120.0
            },
            {
                "start_time": 22.7181818,
                "end_time": 22.8931818,
                "pitch": 32,
                "velocity": 80,
                "duration": 0.175,
                "tempo": 120.0
            },
            {
                "start_time": 22.8931818,
                "end_time": 23.0659091,
                "pitch": 45,
                "velocity": 80,
                "duration": 0.1727273,
                "tempo": 120.0
            },
            {
                "start_time": 23.0659091,
                "end_time": 23.2340909,
                "pitch": 47,
                "velocity": 80,
                "duration": 0.1681818,
                "tempo": 120.0
            },
            {
                "start_time": 23.2340909,
                "end_time": 23.4,
                "pitch": 47,
                "velocity": 80,
                "duration": 0.1659091,
                "tempo": 120.0
            },
            {
                "start_time": 23.4022727,
                "end_time": 23.5681818,
                "pitch": 47,
                "velocity": 80,
                "duration": 0.1659091,
                "tempo": 120.0
            },
            {
                "start_time": 23.5681818,
                "end_time": 23.7363636,
                "pitch": 47,
                "velocity": 80,
                "duration": 0.1681818,
                "tempo": 120.0
            },
            {
                "start_time": 23.7363636,
                "end_time": 23.9045455,
                "pitch": 45,
                "velocity": 80,
                "duration": 0.1681818,
                "tempo": 120.0
            },
            {
                "start_time": 23.9045455,
                "end_time": 24.0727273,
                "pitch": 45,
                "velocity": 80,
                "duration": 0.1681818,
                "tempo": 120.0
            },
            {
                "start_time": 24.0727273,
                "end_time": 24.2431818,
                "pitch": 45,
                "velocity": 80,
                "duration": 0.1704545,
                "tempo": 120.0
            },
            {
                "start_time": 24.2431818,
                "end_time": 24.4159091,
                "pitch": 45,
                "velocity": 80,
                "duration": 0.1727273,
                "tempo": 120.0
            },
            {
                "start_time": 24.4159091,
                "end_time": 24.5840909,
                "pitch": 45,
                "velocity": 80,
                "duration": 0.1681818,
                "tempo": 120.0
            },
            {
                "start_time": 24.5840909,
                "end_time": 24.7522727,
                "pitch": 45,
                "velocity": 80,
                "duration": 0.1681818,
                "tempo": 120.0
            },
            {
                "start_time": 24.7522727,
                "end_time": 24.925,
                "pitch": 45,
                "velocity": 80,
                "duration": 0.1727273,
                "tempo": 120.0
            },
            {
                "start_time": 24.925,
                "end_time": 25.0954545,
                "pitch": 45,
                "velocity": 80,
                "duration": 0.1704545,
                "tempo": 120.0
            },
            {
                "start_time": 25.0977273,
                "end_time": 25.2636364,
                "pitch": 43,
                "velocity": 80,
                "duration": 0.1659091,
                "tempo": 120.0
            },
            {
                "start_time": 25.2636364,
                "end_time": 25.4318182,
                "pitch": 43,
                "velocity": 80,
                "duration": 0.1681818,
                "tempo": 120.0
            },
            {
                "start_time": 25.4318182,
                "end_time": 25.6045455,
                "pitch": 43,
                "velocity": 80,
                "duration": 0.1727273,
                "tempo": 120.0
            },
            {
                "start_time": 25.6045455,
                "end_time": 25.775,
                "pitch": 43,
                "velocity": 80,
                "duration": 0.1704545,
                "tempo": 120.0
            },
            {
                "start_time": 25.7772727,
                "end_time": 25.9431818,
                "pitch": 47,
                "velocity": 80,
                "duration": 0.1659091,
                "tempo": 120.0
            },
            {
                "start_time": 25.9454545,
                "end_time": 26.1113636,
                "pitch": 47,
                "velocity": 80,
                "duration": 0.1659091,
                "tempo": 120.0
            },
            {
                "start_time": 26.1136364,
                "end_time": 26.2795455,
                "pitch": 47,
                "velocity": 80,
                "duration": 0.1659091,
                "tempo": 120.0
            },
            {
                "start_time": 26.2795455,
                "end_time": 26.4477273,
                "pitch": 47,
                "velocity": 80,
                "duration": 0.1681818,
                "tempo": 120.0
            },
            {
                "start_time": 26.4477273,
                "end_time": 26.6204545,
                "pitch": 45,
                "velocity": 80,
                "duration": 0.1727273,
                "tempo": 120.0
            },
            {
                "start_time": 26.6204545,
                "end_time": 26.7909091,
                "pitch": 45,
                "velocity": 80,
                "duration": 0.1704545,
                "tempo": 120.0
            },
            {
                "start_time": 26.7931818,
                "end_time": 26.9590909,
                "pitch": 45,
                "velocity": 80,
                "duration": 0.1659091,
                "tempo": 120.0
            },
            {
                "start_time": 26.9590909,
                "end_time": 27.1272727,
                "pitch": 45,
                "velocity": 80,
                "duration": 0.1681818,
                "tempo": 120.0
            },
            {
                "start_time": 27.1272727,
                "end_time": 27.2954545,
                "pitch": 45,
                "velocity": 80,
                "duration": 0.1681818,
                "tempo": 120.0
            },
            {
                "start_time": 27.2954545,
                "end_time": 27.4636364,
                "pitch": 45,
                "velocity": 80,
                "duration": 0.1681818,
                "tempo": 120.0
            },
            {
                "start_time": 27.4636364,
                "end_time": 27.6340909,
                "pitch": 45,
                "velocity": 80,
                "duration": 0.1704545,
                "tempo": 120.0
            },
            {
                "start_time": 27.6363636,
                "end_time": 27.8068182,
                "pitch": 45,
                "velocity": 80,
                "duration": 0.1704545,
                "tempo": 120.0
            },
            {
                "start_time": 27.8090909,
                "end_time": 27.975,
                "pitch": 38,
                "velocity": 80,
                "duration": 0.1659091,
                "tempo": 120.0
            },
            {
                "start_time": 27.975,
                "end_time": 28.1431818,
                "pitch": 38,
                "velocity": 80,
                "duration": 0.1681818,
                "tempo": 120.0
            },
            {
                "start_time": 28.1431818,
                "end_time": 28.3136364,
                "pitch": 40,
                "velocity": 80,
                "duration": 0.1704545,
                "tempo": 120.0
            },
            {
                "start_time": 28.3136364,
                "end_time": 28.4863636,
                "pitch": 40,
                "velocity": 80,
                "duration": 0.1727273,
                "tempo": 120.0
            },
            {
                "start_time": 28.4886364,
                "end_time": 28.6545455,
                "pitch": 47,
                "velocity": 80,
                "duration": 0.1659091,
                "tempo": 120.0
            },
            {
                "start_time": 28.6568182,
                "end_time": 28.8227273,
                "pitch": 47,
                "velocity": 80,
                "duration": 0.1659091,
                "tempo": 120.0
            },
            {
                "start_time": 28.8227273,
                "end_time": 28.9909091,
                "pitch": 47,
                "velocity": 80,
                "duration": 0.1681818,
                "tempo": 120.0
            },
            {
                "start_time": 28.9909091,
                "end_time": 29.1590909,
                "pitch": 47,
                "velocity": 80,
                "duration": 0.1681818,
                "tempo": 120.0
            },
            {
                "start_time": 29.1590909,
                "end_time": 29.3295455,
                "pitch": 45,
                "velocity": 80,
                "duration": 0.1704545,
                "tempo": 120.0
            },
            {
                "start_time": 29.3318182,
                "end_time": 29.5022727,
                "pitch": 45,
                "velocity": 80,
                "duration": 0.1704545,
                "tempo": 120.0
            },
            {
                "start_time": 29.5045455,
                "end_time": 29.6704545,
                "pitch": 45,
                "velocity": 80,
                "duration": 0.1659091,
                "tempo": 120.0
            },
            {
                "start_time": 29.6704545,
                "end_time": 29.8386364,
                "pitch": 45,
                "velocity": 80,
                "duration": 0.1681818,
                "tempo": 120.0
            },
            {
                "start_time": 29.8386364,
                "end_time": 30.0068182,
                "pitch": 45,
                "velocity": 80,
                "duration": 0.1681818,
                "tempo": 120.0
            },
            {
                "start_time": 30.0068182,
                "end_time": 30.1727273,
                "pitch": 45,
                "velocity": 80,
                "duration": 0.1659091,
                "tempo": 120.0
            },
            {
                "start_time": 30.175,
                "end_time": 30.3454545,
                "pitch": 45,
                "velocity": 80,
                "duration": 0.1704545,
                "tempo": 120.0
            },
            {
                "start_time": 30.3477273,
                "end_time": 30.5181818,
                "pitch": 45,
                "velocity": 80,
                "duration": 0.1704545,
                "tempo": 120.0
            },
            {
                "start_time": 30.5181818,
                "end_time": 30.6863636,
                "pitch": 43,
                "velocity": 80,
                "duration": 0.1681818,
                "tempo": 120.0
            },
            {
                "start_time": 30.6863636,
                "end_time": 30.8545455,
                "pitch": 43,
                "velocity": 80,
                "duration": 0.1681818,
                "tempo": 120.0
            },
            {
                "start_time": 30.8545455,
                "end_time": 31.025,
                "pitch": 43,
                "velocity": 80,
                "duration": 0.1704545,
                "tempo": 120.0
            },
            {
                "start_time": 31.0272727,
                "end_time": 31.1977273,
                "pitch": 43,
                "velocity": 80,
                "duration": 0.1704545,
                "tempo": 120.0
            },
            {
                "start_time": 31.1977273,
                "end_time": 31.3659091,
                "pitch": 47,
                "velocity": 80,
                "duration": 0.1681818,
                "tempo": 120.0
            },
            {
                "start_time": 31.3659091,
                "end_time": 31.5340909,
                "pitch": 47,
                "velocity": 80,
                "duration": 0.1681818,
                "tempo": 120.0
            },
            {
                "start_time": 31.5340909,
                "end_time": 31.7022727,
                "pitch": 47,
                "velocity": 80,
                "duration": 0.1681818,
                "tempo": 120.0
            },
            {
                "start_time": 31.7022727,
                "end_time": 31.8681818,
                "pitch": 47,
                "velocity": 80,
                "duration": 0.1659091,
                "tempo": 120.0
            },
            {
                "start_time": 31.8704545,
                "end_time": 32.0409091,
                "pitch": 45,
                "velocity": 80,
                "duration": 0.1704545,
                "tempo": 120.0
            },
            {
                "start_time": 32.0431818,
                "end_time": 32.2136364,
                "pitch": 45,
                "velocity": 80,
                "duration": 0.1704545,
                "tempo": 120.0
            },
            {
                "start_time": 32.2159091,
                "end_time": 32.3818182,
                "pitch": 45,
                "velocity": 80,
                "duration": 0.1659091,
                "tempo": 120.0
            },
            {
                "start_time": 32.3818182,
                "end_time": 32.55,
                "pitch": 45,
                "velocity": 80,
                "duration": 0.1681818,
                "tempo": 120.0
            },
            {
                "start_time": 32.55,
                "end_time": 33.05,
                "pitch": 40,
                "velocity": 80,
                "duration": 0.5,
                "tempo": 120.0
            },
            {
                "start_time": 33.9181818,
                "end_time": 33.9227273,
                "pitch": 35,
                "velocity": 80,
                "duration": 0.0045455,
                "tempo": 120.0
            }
        ]
    }
}