{
    "mood": "happy",
    "instruments": {
        "Violin": [
            {
                "start_time": 0.0136364,
                "end_time": 0.05,
                "pitch": 68,
                "velocity": 40,
                "duration": 0.0363636,
                "tempo": 120.0
            },
            {
                "start_time": 0.9954545,
                "end_time": 1.2113636,
                "pitch": 52,
                "velocity": 40,
                "duration": 0.2159091,
                "tempo": 120.0
            },
            {
                "start_time": 1.2636364,
                "end_time": 1.3477273,
                "pitch": 52,
                "velocity": 40,
                "duration": 0.0840909,
                "tempo": 120.0
            },
            {
                "start_time": 1.3977273,
                "end_time": 1.4840909,
                "pitch": 47,
                "velocity": 40,
                "duration": 0.0863636,
                "tempo": 120.0
            },
            {
                "start_time": 1.5340909,
                "end_time": 1.6204545,
                "pitch": 49,
                "velocity": 40,
                "duration": 0.0863636,
                "tempo": 120.0
            },
            {
                "start_time": 1.6704545,
                "end_time": 1.7568182,
                "pitch": 50,
                "velocity": 40,
                "duration": 0.0863636,
                "tempo": 120.0
            },
            {
                "start_time": 1.9431818,
                "end_time": 2.0272727,
                "pitch": 49,
                "velocity": 40,
                "duration": 0.0840909,
                "tempo": 120.0
            },
            {
                "start_time": 2.2136364,
                "end_time": 2.3,
                "pitch": 52,
                "velocity": 40,
                "duration": 0.0863636,
                "tempo": 120.0
            },
            {
                "start_time": 2.6181818,
                "end_time": 2.7022727,
                "pitch": 49,
                "velocity": 40,
                "duration": 0.0840909,
                "tempo": 120.0
            },
            {
                "start_time": 2.7522727,
                "end_time": 2.8340909,
                "pitch": 50,
                "velocity": 40,
                "duration": 0.0818182,
                "tempo": 120.0
            },
            {
                "start_time": 2.8840909,
                "end_time": 2.9681818,
                "pitch": 55,
                "velocity": 40,
                "duration": 0.0840909,
                "tempo": 120.0
            },
            {
                "start_time": 3.0181818,
                "end_time": 3.1022727,
                "pitch": 56,
                "velocity": 40,
                "duration": 0.0840909,
                "tempo": 120.0
            },
            {
                "start_time": 3.1522727,
                "end_time": 3.3681818,
                "pitch": 52,
                "velocity": 40,
                "duration": 0.2159091,
                "tempo": 120.0
            },
            {
                "start_time": 3.4204545,
                "end_time": 3.5045455,
                "pitch": 52,
                "velocity": 40,
                "duration": 0.0840909,
                "tempo": 120.0
            },
            {
                "start_time": 3.5545455,
                "end_time": 3.6409091,
                "pitch": 47,
                "velocity": 40,
                "duration": 0.0863636,
                "tempo": 120.0
            },
            {
                "start_time": 3.6909091,
                "end_time": 3.7772727,
                "pitch": 49,
                "velocity": 40,
                "duration": 0.0863636,
                "tempo": 120.0
            },
            {
                "start_time": 3.8272727,
                "end_time": 3.9113636,
                "pitch": 50,
                "velocity": 40,
                "duration": 0.0840909,
                "tempo": 120.0
            },
            {
                "start_time": 3.9636364,
                "end_time": 4.0477273,
                "pitch": 49,
                "velocity": 40,
                "duration": 0.0840909,
                "tempo": 120.0
            },
            {
                "start_time": 4.2295455,
                "end_time": 5.1522727,
                "pitch": 50,
                "velocity": 40,
                "duration": 0.9227273,
                "tempo": 120.0
            },
            {
                "start_time": 5.3363636,
                "end_time": 5.5522727,
                "pitch": 52,
                "velocity": 40,
                "duration": 0.2159091,
                "tempo": 120.0
            },
            {
                "start_time": 5.6022727,
                "end_time": 5.6886364,
                "pitch": 52,
                "velocity": 40,
                "duration": 0.0863636,
                "tempo": 120.0
            },
            {
                "start_time": 5.7386364,
                "end_time": 5.8227273,
                "pitch": 47,
                "velocity": 40,
                "duration": 0.0840909,
                "tempo": 120.0
            },
            {
                "start_time": 5.875,
                "end_time": 5.9590909,
                "pitch": 49,
                "velocity": 40,
                "duration": 0.0840909,
                "tempo": 120.0
            },
            {
                "start_time": 6.0113636,
                "end_time": 6.0954545,
                "pitch": 50,
                "velocity": 40,
                "duration": 0.0840909,
                "tempo": 120.0
            },
            {
                "start_time": 6.2795455,
                "end_time": 6.3636364,
                "pitch": 49,
                "velocity": 40,
                "duration": 0.0840909,
                "tempo": 120.0
            },
            {
                "start_time": 6.5477273,
                "end_time": 6.6318182,
                "pitch": 52,
                "velocity": 40,
                "duration": 0.0840909,
                "tempo": 120.0
            },
            {
                "start_time": 6.9477273,
                "end_time": 7.0318182,
                "pitch": 49,
                "velocity": 40,
                "duration": 0.0840909,
                "tempo": 120.0
            },
            {
                "start_time": 7.0818182,
                "end_time": 7.1659091,
                "pitch": 50,
                "velocity": 40,
                "duration": 0.0840909,
                "tempo": 120.0
            },
            {
                "start_time": 7.2159091,
                "end_time": 7.3,
                "pitch": 55,
                "velocity": 40,
                "duration": 0.0840909,
                "tempo": 120.0
            },
            {
                "start_time": 7.3522727,
                "end_time": 7.4363636,
                "pitch": 56,
                "velocity": 40,
                "duration": 0.0840909,
                "tempo": 120.0
            },
            {
                "start_time": 7.4863636,
                "end_time": 7.7090909,
                "pitch": 52,
                "velocity": 40,
                "duration": 0.2227273,
                "tempo": 120.0
            },
            {
                "start_time": 7.7590909,
                "end_time": 7.8431818,
                "pitch": 52,
                "velocity": 40,
                "duration": 0.0840909,
                "tempo": 120.0
            },
            {
                "start_time": 7.8931818,
                "end_time": 7.9772727,
                "pitch": 47,
                "velocity": 40,
                "duration": 0.0840909,
                "tempo": 120.0
            },
            {
                "start_time": 8.0272727,
                "end_time": 8.1090909,
                "pitch": 49,
                "velocity": 40,
                "duration": 0.0818182,
                "tempo": 120.0
            },
            {
                "start_time": 8.1590909,
                "end_time": 8.2431818,
                "pitch": 50,
                "velocity": 40,
                "duration": 0.0840909,
                "tempo": 120.0
            },
            {
                "start_time": 8.2931818,
                "end_time": 8.3772727,
                "pitch": 49,
                "velocity": 40,
                "duration": 0.0840909,
                "tempo": 120.0
            },
            {
                "start_time": 8.5613636,
                "end_time": 9.4477273,
                "pitch": 50,
                "velocity": 40,
                "duration": 0.8863636,
                "tempo": 120.0
            },
            {
                "start_time": 9.6340909,
                "end_time": 9.8545455,
                "pitch": 57,
                "velocity": 40,
                "duration": 0.2204545,
                "tempo": 120.0
            },
            {
                "start_time": 9.9068182,
                "end_time": 9.9909091,
                "pitch": 45,
                "velocity": 40,
                "duration": 0.0840909,
                "tempo": 120.0
            },
            {
                "start_time": 10.0409091,
                "end_time": 10.1227273,
                "pitch": 40,
                "velocity": 40,
                "duration": 0.0818182,
                "tempo": 120.0
            },
            {
                "start_time": 10.1727273,
                "end_time": 10.2568182,
                "pitch": 42,
                "velocity": 40,
                "duration": 0.0840909,
                "tempo": 120.0
            },
            {
                "start_time": 10.3068182,
                "end_time": 10.3909091,
                "pitch": 43,
                "velocity": 40,
                "duration": 0.0840909,
                "tempo": 120.0
            },
            {
                "start_time": 10.5772727,
                "end_time": 10.6613636,
                "pitch": 42,
                "velocity": 40,
                "duration": 0.0840909,
                "tempo": 120.0
            },
            {
                "start_time": 10.8477273,
                "end_time": 10.9340909,
                "pitch": 45,
                "velocity": 40,
                "duration": 0.0863636,
                "tempo": 120.0
            },
            {
                "start_time": 11.2522727,
                "end_time": 11.3363636,
                "pitch": 42,
                "velocity": 40,
                "duration": 0.0840909,
                "tempo": 120.0
            },
            {
                "start_time": 11.3863636,
                "end_time": 11.4681818,
                "pitch": 43,
                "velocity": 40,
                "duration": 0.0818182,
                "tempo": 120.0
            },
            {
                "start_time": 11.5181818,
                "end_time": 11.6022727,
                "pitch": 48,
                "velocity": 40,
                "duration": 0.0840909,
                "tempo": 120.0
            },
            {
                "start_time": 11.6522727,
                "end_time": 11.7363636,
                "pitch": 49,
                "velocity": 40,
                "duration": 0.0840909,
                "tempo": 120.0
            },
            {
                "start_time": 11.7863636,
                "end_time": 12.0022727,
                "pitch": 45,
                "velocity": 40,
                "duration": 0.2159091,
                "tempo": 120.0
            },
            {
                "start_time": 12.0545455,
                "end_time": 12.1386364,
                "pitch": 45,
                "velocity": 40,
                "duration": 0.0840909,
                "tempo": 120.0
            },
            {
                "start_time": 12.1886364,
                "end_time": 12.275,
                "pitch": 40,
                "velocity": 40,
                "duration": 0.0863636,
                "tempo": 120.0
            },
            {
                "start_time": 12.325,
                "end_time": 12.4113636,
                "pitch": 42,
                "velocity": 40,
                "duration": 0.0863636,
                "tempo": 120.0
            },
            {
                "start_time": 12.4613636,
                "end_time": 12.5454545,
                "pitch": 43,
                "velocity": 40,
                "duration": 0.0840909,
                "tempo": 120.0
            },
            {
                "start_time": 12.5977273,
                "end_time": 12.6818182,
                "pitch": 42,
                "velocity": 40,
                "duration": 0.0840909,
                "tempo": 120.0
            },
            {
                "start_time": 12.8636364,
                "end_time": 13.7522727,
                "pitch": 43,
                "velocity": 40,
                "duration": 0.8886364,
                "tempo": 120.0
            },
            {
                "start_time": 13.9386364,
                "end_time": 14.1590909,
                "pitch": 52,
                "velocity": 40,
                "duration": 0.2204545,
                "tempo": 120.0
            },
            {
                "start_time": 14.2090909,
                "end_time": 14.2931818,
                "pitch": 52,
                "velocity": 40,
                "duration": 0.0840909,
                "tempo": 120.0
            },
            {
                "start_time": 14.3431818,
                "end_time": 14.4272727,
                "pitch": 47,
                "velocity": 40,
                "duration": 0.0840909,
                "tempo": 120.0
            },
            {
                "start_time": 14.4772727,
                "end_time": 14.5613636,
                "pitch": 49,
                "velocity": 40,
                "duration": 0.0840909,
                "tempo": 120.0
            },
            {
                "start_time": 14.6113636,
                "end_time": 14.6954545,
                "pitch": 50,
                "velocity": 40,
                "duration": 0.0840909,
                "tempo": 120.0
            },
            {
                "start_time": 14.8772727,
                "end_time": 14.9613636,
                "pitch": 49,
                "velocity": 40,
                "duration": 0.0840909,
                "tempo": 120.0
            },
            {
                "start_time": 15.1454545,
                "end_time": 15.2295455,
                "pitch": 52,
                "velocity": 40,
                "duration": 0.0840909,
                "tempo": 120.0
            },
            {
                "start_time": 15.5454545,
                "end_time": 15.6295455,
                "pitch": 49,
                "velocity": 40,
                "duration": 0.0840909,
                "tempo": 120.0
            },
            {
                "start_time": 15.6795455,
                "end_time": 15.7636364,
                "pitch": 50,
                "velocity": 40,
                "duration": 0.0840909,
                "tempo": 120.0
            },
            {
                "start_time": 15.8136364,
                "end_time": 15.8977273,
                "pitch": 55,
                "velocity": 40,
                "duration": 0.0840909,
                "tempo": 120.0
            },
            {
                "start_time": 15.95,
                "end_time": 16.0340909,
                "pitch": 56,
                "velocity": 40,
                "duration": 0.0840909,
                "tempo": 120.0
            },
            {
                "start_time": 16.0863636,
                "end_time": 16.3068182,
                "pitch": 52,
                "velocity": 40,
                "duration": 0.2204545,
                "tempo": 120.0
            },
            {
                "start_time": 16.3568182,
                "end_time": 16.4409091,
                "pitch": 52,
                "velocity": 40,
                "duration": 0.0840909,
                "tempo": 120.0
            },
            {
                "start_time": 16.4909091,
                "end_time": 16.575,
                "pitch": 47,
                "velocity": 40,
                "duration": 0.0840909,
                "tempo": 120.0
            },
            {
                "start_time": 16.625,
                "end_time": 16.7068182,
                "pitch": 49,
                "velocity": 40,
                "duration": 0.0818182,
                "tempo": 120.0
            },
            {
                "start_time": 16.7568182,
                "end_time": 16.8409091,
                "pitch": 50,
                "velocity": 40,
                "duration": 0.0840909,
                "tempo": 120.0
            },
            {
                "start_time": 16.8909091,
                "end_time": 16.9772727,
                "pitch": 49,
                "velocity": 40,
                "duration": 0.0863636,
                "tempo": 120.0
            },
            {
                "start_time": 17.1636364,
                "end_time": 18.0477273,
                "pitch": 50,
                "velocity": 40,
                "duration": 0.8840909,
                "tempo": 120.0
            }
        ],
        "Electric Guitar (clean)": [
            {
                "start_time": 0.8613636,
                "end_time": 1.0795455,
                "pitch": 40,
                "velocity": 40,
                "duration": 0.2181818,
                "tempo": 120.0
            },
            {
                "start_time": 1.1295455,
                "end_time": 1.2113636,
                "pitch": 40,
                "velocity": 40,
                "duration": 0.0818182,
                "tempo": 120.0
            },
            {
                "start_time": 1.2636364,
                "end_time": 1.3477273,
                "pitch": 40,
                "velocity": 40,
                "duration": 0.0840909,
                "tempo": 120.0
            },
            {
                "start_time": 1.5340909,
                "end_time": 1.6204545,
                "pitch": 40,
                "velocity": 40,
                "duration": 0.0863636,
                "tempo": 120.0
            },
            {
                "start_time": 1.6704545,
                "end_time": 1.7568182,
                "pitch": 40,
                "velocity": 40,
                "duration": 0.0863636,
                "tempo": 120.0
            },
            {
                "start_time": 1.8068182,
                "end_time": 1.8909091,
                "pitch": 40,
                "velocity": 40,
                "duration": 0.0840909,
                "tempo": 120.0
            },
            {
                "start_time": 1.9431818,
                "end_time": 2.1636364,
                "pitch": 40,
                "velocity": 40,
                "duration": 0.2204545,
                "tempo": 120.0
            },
            {
                "start_time": 2.2136364,
                "end_time": 2.3,
                "pitch": 52,
                "velocity": 40,
                "duration": 0.0863636,
                "tempo": 120.0
            },
            {
                "start_time": 2.4840909,
                "end_time": 2.5681818,
                "pitch": 40,
                "velocity": 40,
                "duration": 0.0840909,
                "tempo": 120.0
            },
            {
                "start_time": 2.6181818,
                "end_time": 2.7022727,
                "pitch": 50,
                "velocity": 40,
                "duration": 0.0840909,
                "tempo": 120.0
            },
            {
                "start_time": 2.7522727,
                "end_time": 2.8340909,
                "pitch": 49,
                "velocity": 40,
                "duration": 0.0818182,
                "tempo": 120.0
            },
            {
                "start_time": 2.8840909,
                "end_time": 2.9681818,
                "pitch": 47,
                "velocity": 40,
                "duration": 0.0840909,
                "tempo": 120.0
            },
            {
                "start_time": 3.0181818,
                "end_time": 3.2363636,
                "pitch": 40,
                "velocity": 40,
                "duration": 0.2181818,
                "tempo": 120.0
            },
            {
                "start_time": 3.2863636,
                "end_time": 3.3681818,
                "pitch": 40,
                "velocity": 40,
                "duration": 0.0818182,
                "tempo": 120.0
            },
            {
                "start_time": 3.4204545,
                "end_time": 3.5045455,
                "pitch": 40,
                "velocity": 40,
                "duration": 0.0840909,
                "tempo": 120.0
            },
            {
                "start_time": 3.6909091,
                "end_time": 3.7772727,
                "pitch": 40,
                "velocity": 40,
                "duration": 0.0863636,
                "tempo": 120.0
            },
            {
                "start_time": 3.8272727,
                "end_time": 3.9113636,
                "pitch": 40,
                "velocity": 40,
                "duration": 0.0840909,
                "tempo": 120.0
            },
            {
                "start_time": 3.9636364,
                "end_time": 4.0477273,
                "pitch": 40,
                "velocity": 40,
                "duration": 0.0840909,
                "tempo": 120.0
            },
            {
                "start_time": 4.0977273,
                "end_time": 4.3136364,
                "pitch": 40,
                "velocity": 40,
                "duration": 0.2159091,
                "tempo": 120.0
            },
            {
                "start_time": 4.3818182,
                "end_time": 4.4636364,
                "pitch": 40,
                "velocity": 40,
                "duration": 0.0818182,
                "tempo": 120.0
            },
            {
                "start_time": 4.5159091,
                "end_time": 4.6022727,
                "pitch": 40,
                "velocity": 40,
                "duration": 0.0863636,
                "tempo": 120.0
            },
            {
                "start_time": 4.8090909,
                "end_time": 4.8772727,
                "pitch": 50,
                "velocity": 40,
                "duration": 0.0681818,
                "tempo": 120.0
            },
            {
                "start_time": 4.9295455,
                "end_time": 5.0159091,
                "pitch": 49,
                "velocity": 40,
                "duration": 0.0863636,
                "tempo": 120.0
            },
            {
                "start_time": 5.0681818,
                "end_time": 5.1522727,
                "pitch": 47,
                "velocity": 40,
                "duration": 0.0840909,
                "tempo": 120.0
            },
            {
                "start_time": 5.2022727,
                "end_time": 5.4181818,
                "pitch": 40,
                "velocity": 40,
                "duration": 0.2159091,
                "tempo": 120.0
            },
            {
                "start_time": 5.4681818,
                "end_time": 5.5522727,
                "pitch": 40,
                "velocity": 40,
                "duration": 0.0840909,
                "tempo": 120.0
            },
            {
                "start_time": 5.6022727,
                "end_time": 5.6886364,
                "pitch": 40,
                "velocity": 40,
                "duration": 0.0863636,
                "tempo": 120.0
            },
            {
                "start_time": 5.875,
                "end_time": 5.9590909,
                "pitch": 40,
                "velocity": 40,
                "duration": 0.0840909,
                "tempo": 120.0
            },
            {
                "start_time": 6.0113636,
                "end_time": 6.0954545,
                "pitch": 40,
                "velocity": 40,
                "duration": 0.0840909,
                "tempo": 120.0
            },
            {
                "start_time": 6.1454545,
                "end_time": 6.2295455,
                "pitch": 40,
                "velocity": 40,
                "duration": 0.0840909,
                "tempo": 120.0
            },
            {
                "start_time": 6.2795455,
                "end_time": 6.4977273,
                "pitch": 40,
                "velocity": 40,
                "duration": 0.2181818,
                "tempo": 120.0
            },
            {
                "start_time": 6.5477273,
                "end_time": 6.6318182,
                "pitch": 52,
                "velocity": 40,
                "duration": 0.0840909,
                "tempo": 120.0
            },
            {
                "start_time": 6.8136364,
                "end_time": 6.8977273,
                "pitch": 40,
                "velocity": 40,
                "duration": 0.0840909,
                "tempo": 120.0
            },
            {
                "start_time": 6.9477273,
                "end_time": 7.0318182,
                "pitch": 50,
                "velocity": 40,
                "duration": 0.0840909,
                "tempo": 120.0
            },
            {
                "start_time": 7.0818182,
                "end_time": 7.1659091,
                "pitch": 49,
                "velocity": 40,
                "duration": 0.0840909,
                "tempo": 120.0
            },
            {
                "start_time": 7.2159091,
                "end_time": 7.3,
                "pitch": 47,
                "velocity": 40,
                "duration": 0.0840909,
                "tempo": 120.0
            },
            {
                "start_time": 7.3522727,
                "end_time": 7.5727273,
                "pitch": 40,
                "velocity": 40,
                "duration": 0.2204545,
                "tempo": 120.0
            },
            {
                "start_time": 7.6227273,
                "end_time": 7.7090909,
                "pitch": 40,
                "velocity": 40,
                "duration": 0.0863636,
                "tempo": 120.0
            },
            {
                "start_time": 7.7590909,
                "end_time": 7.8431818,
                "pitch": 40,
                "velocity": 40,
                "duration": 0.0840909,
                "tempo": 120.0
            },
            {
                "start_time": 8.0272727,
                "end_time": 8.1090909,
                "pitch": 40,
                "velocity": 40,
                "duration": 0.0818182,
                "tempo": 120.0
            },
            {
                "start_time": 8.1590909,
                "end_time": 8.2431818,
                "pitch": 40,
                "velocity": 40,
                "duration": 0.0840909,
                "tempo": 120.0
            },
            {
                "start_time": 8.2931818,
                "end_time": 8.3772727,
                "pitch": 40,
                "velocity": 40,
                "duration": 0.0840909,
                "tempo": 120.0
            },
            {
                "start_time": 8.4272727,
                "end_time": 8.6431818,
                "pitch": 40,
                "velocity": 40,
                "duration": 0.2159091,
                "tempo": 120.0
            },
            {
                "start_time": 8.6954545,
                "end_time": 8.7772727,
                "pitch": 40,
                "velocity": 40,
                "duration": 0.0818182,
                "tempo": 120.0
            },
            {
                "start_time": 8.8272727,
                "end_time": 8.9113636,
                "pitch": 42,
                "velocity": 40,
                "duration": 0.0840909,
                "tempo": 120.0
            },
            {
                "start_time": 8.9613636,
                "end_time": 9.0454545,
                "pitch": 42,
                "velocity": 40,
                "duration": 0.0840909,
                "tempo": 120.0
            },
            {
                "start_time": 9.0954545,
                "end_time": 9.1795455,
                "pitch": 43,
                "velocity": 40,
                "duration": 0.0840909,
                "tempo": 120.0
            },
            {
                "start_time": 9.2295455,
                "end_time": 9.3113636,
                "pitch": 43,
                "velocity": 40,
                "duration": 0.0818182,
                "tempo": 120.0
            },
            {
                "start_time": 9.3636364,
                "end_time": 9.4477273,
                "pitch": 44,
                "velocity": 40,
                "duration": 0.0840909,
                "tempo": 120.0
            },
            {
                "start_time": 9.4977273,
                "end_time": 9.7204545,
                "pitch": 57,
                "velocity": 40,
                "duration": 0.2227273,
                "tempo": 120.0
            },
            {
                "start_time": 9.7704545,
                "end_time": 9.8545455,
                "pitch": 57,
                "velocity": 40,
                "duration": 0.0840909,
                "tempo": 120.0
            },
            {
                "start_time": 9.9068182,
                "end_time": 9.9909091,
                "pitch": 45,
                "velocity": 40,
                "duration": 0.0840909,
                "tempo": 120.0
            },
            {
                "start_time": 10.1727273,
                "end_time": 10.2568182,
                "pitch": 57,
                "velocity": 40,
                "duration": 0.0840909,
                "tempo": 120.0
            },
            {
                "start_time": 10.3068182,
                "end_time": 10.3909091,
                "pitch": 45,
                "velocity": 40,
                "duration": 0.0840909,
                "tempo": 120.0
            },
            {
                "start_time": 10.4409091,
                "end_time": 10.525,
                "pitch": 45,
                "velocity": 40,
                "duration": 0.0840909,
                "tempo": 120.0
            },
            {
                "start_time": 10.5772727,
                "end_time": 10.7977273,
                "pitch": 45,
                "velocity": 40,
                "duration": 0.2204545,
                "tempo": 120.0
            },
            {
                "start_time": 10.8477273,
                "end_time": 10.9340909,
                "pitch": 57,
                "velocity": 40,
                "duration": 0.0863636,
                "tempo": 120.0
            },
            {
                "start_time": 11.1181818,
                "end_time": 11.2022727,
                "pitch": 45,
                "velocity": 40,
                "duration": 0.0840909,
                "tempo": 120.0
            },
            {
                "start_time": 11.2522727,
                "end_time": 11.3363636,
                "pitch": 55,
                "velocity": 40,
                "duration": 0.0840909,
                "tempo": 120.0
            },
            {
                "start_time": 11.3863636,
                "end_time": 11.4681818,
                "pitch": 54,
                "velocity": 40,
                "duration": 0.0818182,
                "tempo": 120.0
            },
            {
                "start_time": 11.5181818,
                "end_time": 11.6022727,
                "pitch": 52,
                "velocity": 40,
                "duration": 0.0840909,
                "tempo": 120.0
            },
            {
                "start_time": 11.6522727,
                "end_time": 11.8704545,
                "pitch": 45,
                "velocity": 40,
                "duration": 0.2181818,
                "tempo": 120.0
            },
            {
                "start_time": 11.9204545,
                "end_time": 12.0022727,
                "pitch": 57,
                "velocity": 40,
                "duration": 0.0818182,
                "tempo": 120.0
            },
            {
                "start_time": 12.0545455,
                "end_time": 12.1386364,
                "pitch": 45,
                "velocity": 40,
                "duration": 0.0840909,
                "tempo": 120.0
            },
            {
                "start_time": 12.325,
                "end_time": 12.4113636,
                "pitch": 57,
                "velocity": 40,
                "duration": 0.0863636,
                "tempo": 120.0
            },
            {
                "start_time": 12.4613636,
                "end_time": 12.5454545,
                "pitch": 45,
                "velocity": 40,
                "duration": 0.0840909,
                "tempo": 120.0
            },
            {
                "start_time": 12.5977273,
                "end_time": 12.6818182,
                "pitch": 45,
                "velocity": 40,
                "duration": 0.0840909,
                "tempo": 120.0
            },
            {
                "start_time": 12.7318182,
                "end_time": 12.9477273,
                "pitch": 45,
                "velocity": 40,
                "duration": 0.2159091,
                "tempo": 120.0
            },
            {
                "start_time": 12.9977273,
                "end_time": 13.0818182,
                "pitch": 44,
                "velocity": 40,
                "duration": 0.0840909,
                "tempo": 120.0
            },
            {
                "start_time": 13.1318182,
                "end_time": 13.2159091,
                "pitch": 45,
                "velocity": 40,
                "duration": 0.0840909,
                "tempo": 120.0
            },
            {
                "start_time": 13.4,
                "end_time": 13.4818182,
                "pitch": 55,
                "velocity": 40,
                "duration": 0.0818182,
                "tempo": 120.0
            },
            {
                "start_time": 13.5318182,
                "end_time": 13.6159091,
                "pitch": 54,
                "velocity": 40,
                "duration": 0.0840909,
                "tempo": 120.0
            },
            {
                "start_time": 13.6659091,
                "end_time": 13.7522727,
                "pitch": 52,
                "velocity": 40,
                "duration": 0.0863636,
                "tempo": 120.0
            },
            {
                "start_time": 13.8022727,
                "end_time": 14.0227273,
                "pitch": 40,
                "velocity": 40,
                "duration": 0.2204545,
                "tempo": 120.0
            },
            {
                "start_time": 14.075,
                "end_time": 14.1590909,
                "pitch": 40,
                "velocity": 40,
                "duration": 0.0840909,
                "tempo": 120.0
            },
            {
                "start_time": 14.2090909,
                "end_time": 14.2931818,
                "pitch": 40,
                "velocity": 40,
                "duration": 0.0840909,
                "tempo": 120.0
            },
            {
                "start_time": 14.4772727,
                "end_time": 14.5613636,
                "pitch": 40,
                "velocity": 40,
                "duration": 0.0840909,
                "tempo": 120.0
            },
            {
                "start_time": 14.6113636,
                "end_time": 14.6954545,
                "pitch": 40,
                "velocity": 40,
                "duration": 0.0840909,
                "tempo": 120.0
            },
            {
                "start_time": 14.7454545,
                "end_time": 14.8272727,
                "pitch": 40,
                "velocity": 40,
                "duration": 0.0818182,
                "tempo": 120.0
            },
            {
                "start_time": 14.8772727,
                "end_time": 15.0954545,
                "pitch": 40,
                "velocity": 40,
                "duration": 0.2181818,
                "tempo": 120.0
            },
            {
                "start_time": 15.1454545,
                "end_time": 15.2295455,
                "pitch": 52,
                "velocity": 40,
                "duration": 0.0840909,
                "tempo": 120.0
            },
            {
                "start_time": 15.4113636,
                "end_time": 15.4954545,
                "pitch": 40,
                "velocity": 40,
                "duration": 0.0840909,
                "tempo": 120.0
            },
            {
                "start_time": 15.5454545,
                "end_time": 15.6295455,
                "pitch": 50,
                "velocity": 40,
                "duration": 0.0840909,
                "tempo": 120.0
            },
            {
                "start_time": 15.6795455,
                "end_time": 15.7636364,
                "pitch": 49,
                "velocity": 40,
                "duration": 0.0840909,
                "tempo": 120.0
            },
            {
                "start_time": 15.8136364,
                "end_time": 15.8977273,
                "pitch": 47,
                "velocity": 40,
                "duration": 0.0840909,
                "tempo": 120.0
            },
            {
                "start_time": 15.95,
                "end_time": 16.1704545,
                "pitch": 40,
                "velocity": 40,
                "duration": 0.2204545,
                "tempo": 120.0
            },
            {
                "start_time": 16.2204545,
                "end_time": 16.3068182,
                "pitch": 40,
                "velocity": 40,
                "duration": 0.0863636,
                "tempo": 120.0
            },
            {
                "start_time": 16.3568182,
                "end_time": 16.4409091,
                "pitch": 40,
                "velocity": 40,
                "duration": 0.0840909,
                "tempo": 120.0
            },
            {
                "start_time": 16.625,
                "end_time": 16.7068182,
                "pitch": 40,
                "velocity": 40,
                "duration": 0.0818182,
                "tempo": 120.0
            },
            {
                "start_time": 16.7568182,
                "end_time": 16.8409091,
                "pitch": 40,
                "velocity": 40,
                "duration": 0.0840909,
                "tempo": 120.0
            },
            {
                "start_time": 16.8909091,
                "end_time": 16.9772727,
                "pitch": 40,
                "velocity": 40,
                "duration": 0.0863636,
                "tempo": 120.0
            },
            {
                "start_time": 17.0272727,
                "end_time": 17.2477273,
                "pitch": 40,
                "velocity": 40,
                "duration": 0.2204545,
                "tempo": 120.0
            },
            {
                "start_time": 17.3,
                "end_time": 17.3840909,
                "pitch": 40,
                "velocity": 40,
                "duration": 0.0840909,
                "tempo": 120.0
            },
            {
                "start_time": 17.4340909,
                "end_time": 17.5159091,
                "pitch": 42,
                "velocity": 40,
                "duration": 0.0818182,
                "tempo": 120.0
            },
            {
                "start_time": 17.5659091,
                "end_time": 17.6477273,
                "pitch": 42,
                "velocity": 40,
                "duration": 0.0818182,
                "tempo": 120.0
            },
            {
                "start_time": 17.6977273,
                "end_time": 17.7795455,
                "pitch": 43,
                "velocity": 40,
                "duration": 0.0818182,
                "tempo": 120.0
            },
            {
                "start_time": 17.8295455,
                "end_time": 17.9113636,
                "pitch": 43,
                "velocity": 40,
                "duration": 0.0818182,
                "tempo": 120.0
            },
            {
                "start_time": 17.9613636,
                "end_time": 18.0477273,
                "pitch": 42,
                "velocity": 40,
                "duration": 0.0863636,
                "tempo": 120.0
            }
        ]
    }
}