{
    "mood": "happy",
    "instruments": {
        "Clarinet": [
            {
                "start_time": 50.5431818,
                "end_time": 50.5772727,
                "pitch": 60,
                "velocity": 51,
                "duration": 0.0340909,
                "tempo": 120.0
            },
            {
                "start_time": 50.5772727,
                "end_time": 50.5931818,
                "pitch": 56,
                "velocity": 51,
                "duration": 0.0159091,
                "tempo": 120.0
            },
            {
                "start_time": 50.5931818,
                "end_time": 50.625,
                "pitch": 54,
                "velocity": 51,
                "duration": 0.0318182,
                "tempo": 120.0
            },
            {
                "start_time": 50.625,
                "end_time": 50.6590909,
                "pitch": 51,
                "velocity": 51,
                "duration": 0.0340909,
                "tempo": 120.0
            },
            {
                "start_time": 50.6590909,
                "end_time": 50.6909091,
                "pitch": 48,
                "velocity": 51,
                "duration": 0.0318182,
                "tempo": 120.0
            },
            {
                "start_time": 50.6909091,
                "end_time": 50.7068182,
                "pitch": 44,
                "velocity": 51,
                "duration": 0.0159091,
                "tempo": 120.0
            },
            {
                "start_time": 50.7068182,
                "end_time": 50.7409091,
                "pitch": 42,
                "velocity": 51,
                "duration": 0.0340909,
                "tempo": 120.0
            },
            {
                "start_time": 50.7409091,
                "end_time": 50.7727273,
                "pitch": 39,
                "velocity": 51,
                "duration": 0.0318182,
                "tempo": 120.0
            },
            {
                "start_time": 50.7727273,
                "end_time": 50.8045455,
                "pitch": 36,
                "velocity": 51,
                "duration": 0.0318182,
                "tempo": 120.0
            },
            {
                "start_time": 50.8045455,
                "end_time": 50.8227273,
                "pitch": 32,
                "velocity": 51,
                "duration": 0.0181818,
                "tempo": 120.0
            },
            {
                "start_time": 50.8227273,
                "end_time": 50.8545455,
                "pitch": 30,
                "velocity": 51,
                "duration": 0.0318182,
                "tempo": 120.0
            },
            {
                "start_time": 50.8545455,
                "end_time": 50.8863636,
                "pitch": 27,
                "velocity": 51,
                "duration": 0.0318182,
                "tempo": 120.0
            },
            {
                "start_time": 50.8863636,
                "end_time": 50.9204545,
                "pitch": 24,
                "velocity": 51,
                "duration": 0.0340909,
                "tempo": 120.0
            },
            {
                "start_time": 50.9204545,
                "end_time": 50.9363636,
                "pitch": 20,
                "velocity": 51,
                "duration": 0.0159091,
                "tempo": 120.0
            },
            {
                "start_time": 50.9363636,
                "end_time": 51.0022727,
                "pitch": 57,
                "velocity": 51,
                "duration": 0.0659091,
                "tempo": 120.0
            },
            {
                "start_time": 51.0022727,
                "end_time": 51.1022727,
                "pitch": 55,
                "velocity": 51,
                "duration": 0.1,
                "tempo": 120.0
            },
            {
                "start_time": 51.1022727,
                "end_time": 51.1863636,
                "pitch": 52,
                "velocity": 51,
                "duration": 0.0840909,
                "tempo": 120.0
            },
            {
                "start_time": 51.1863636,
                "end_time": 51.2022727,
                "pitch": 50,
                "velocity": 51,
                "duration": 0.0159091,
                "tempo": 120.0
            },
            {
                "start_time": 51.2022727,
                "end_time": 51.2681818,
                "pitch": 57,
                "velocity": 51,
                "duration": 0.0659091,
                "tempo": 120.0
            },
            {
                "start_time": 51.2681818,
                "end_time": 51.3363636,
                "pitch": 55,
                "velocity": 51,
                "duration": 0.0681818,
                "tempo": 120.0
            }
        ],
        "Acoustic Bass": [
            {
                "start_time": 0.0159091,
                "end_time": 0.3931818,
                "pitch": 36,
                "velocity": 32,
                "duration": 0.3772727,
                "tempo": 120.0
            },
            {
                "start_time": 0.4090909,
                "end_time": 0.7840909,
                "pitch": 40,
                "velocity": 32,
                "duration": 0.375,
                "tempo": 120.0
            },
            {
                "start_time": 0.8,
                "end_time": 1.1772727,
                "pitch": 43,
                "velocity": 32,
                "duration": 0.3772727,
                "tempo": 120.0
            },
            {
                "start_time": 1.1931818,
                "end_time": 1.45,
                "pitch": 40,
                "velocity": 32,
                "duration": 0.2568182,
                "tempo": 120.0
            },
            {
                "start_time": 1.4681818,
                "end_time": 1.5886364,
                "pitch": 43,
                "velocity": 32,
                "duration": 0.1204545,
                "tempo": 120.0
            },
            {
                "start_time": 1.6045455,
                "end_time": 1.8613636,
                "pitch": 40,
                "velocity": 32,
                "duration": 0.2568182,
                "tempo": 120.0
            },
            {
                "start_time": 1.8795455,
                "end_time": 1.9977273,
                "pitch": 40,
                "velocity": 32,
                "duration": 0.1181818,
                "tempo": 120.0
            },
            {
                "start_time": 2.0136364,
                "end_time": 2.3909091,
                "pitch": 44,
                "velocity": 32,
                "duration": 0.3772727,
                "tempo": 120.0
            },
            {
                "start_time": 2.4068182,
                "end_time": 2.7840909,
                "pitch": 47,
                "velocity": 32,
                "duration": 0.3772727,
                "tempo": 120.0
            },
            {
                "start_time": 2.8,
                "end_time": 3.1931818,
                "pitch": 44,
                "velocity": 32,
                "duration": 0.3931818,
                "tempo": 120.0
            },
            {
                "start_time": 3.2090909,
                "end_time": 3.5863636,
                "pitch": 45,
                "velocity": 32,
                "duration": 0.3772727,
                "tempo": 120.0
            },
            {
                "start_time": 3.6022727,
                "end_time": 3.9954545,
                "pitch": 40,
                "velocity": 32,
                "duration": 0.3931818,
                "tempo": 120.0
            },
            {
                "start_time": 4.0113636,
                "end_time": 4.3886364,
                "pitch": 36,
                "velocity": 32,
                "duration": 0.3772727,
                "tempo": 120.0
            },
            {
                "start_time": 4.4045455,
                "end_time": 4.6613636,
                "pitch": 40,
                "velocity": 32,
                "duration": 0.2568182,
                "tempo": 120.0
            },
            {
                "start_time": 4.6795455,
                "end_time": 5.0681818,
                "pitch": 41,
                "velocity": 32,
                "duration": 0.3886364,
                "tempo": 120.0
            },
            {
                "start_time": 5.0840909,
                "end_time": 5.2022727,
                "pitch": 41,
                "velocity": 32,
                "duration": 0.1181818,
                "tempo": 120.0
            },
            {
                "start_time": 5.2181818,
                "end_time": 5.6045455,
                "pitch": 45,
                "velocity": 32,
                "duration": 0.3863636,
                "tempo": 120.0
            },
            {
                "start_time": 5.6204545,
                "end_time": 5.9977273,
                "pitch": 48,
                "velocity": 32,
                "duration": 0.3772727,
                "tempo": 120.0
            },
            {
                "start_time": 6.0136364,
                "end_time": 6.2704545,
                "pitch": 45,
                "velocity": 32,
                "duration": 0.2568182,
                "tempo": 120.0
            },
            {
                "start_time": 6.4227273,
                "end_time": 6.6681818,
                "pitch": 48,
                "velocity": 32,
                "duration": 0.2454545,
                "tempo": 120.0
            },
            {
                "start_time": 6.6840909,
                "end_time": 6.8,
                "pitch": 52,
                "velocity": 32,
                "duration": 0.1159091,
                "tempo": 120.0
            },
            {
                "start_time": 7.0909091,
                "end_time": 7.4704545,
                "pitch": 43,
                "velocity": 32,
                "duration": 0.3795455,
                "tempo": 120.0
            },
            {
                "start_time": 7.4863636,
                "end_time": 7.6022727,
                "pitch": 43,
                "velocity": 32,
                "duration": 0.1159091,
                "tempo": 120.0
            },
            {
                "start_time": 7.6181818,
                "end_time": 7.875,
                "pitch": 40,
                "velocity": 32,
                "duration": 0.2568182,
                "tempo": 120.0
            },
            {
                "start_time": 7.8931818,
                "end_time": 8.0136364,
                "pitch": 43,
                "velocity": 32,
                "duration": 0.1204545,
                "tempo": 120.0
            },
            {
                "start_time": 8.2977273,
                "end_time": 8.4159091,
                "pitch": 45,
                "velocity": 32,
                "duration": 0.1181818,
                "tempo": 120.0
            },
            {
                "start_time": 8.4318182,
                "end_time": 8.8181818,
                "pitch": 49,
                "velocity": 32,
                "duration": 0.3863636,
                "tempo": 120.0
            },
            {
                "start_time": 8.8340909,
                "end_time": 9.0795455,
                "pitch": 52,
                "velocity": 32,
                "duration": 0.2454545,
                "tempo": 120.0
            },
            {
                "start_time": 9.0954545,
                "end_time": 9.3477273,
                "pitch": 49,
                "velocity": 32,
                "duration": 0.2522727,
                "tempo": 120.0
            },
            {
                "start_time": 9.3636364,
                "end_time": 9.6204545,
                "pitch": 45,
                "velocity": 32,
                "duration": 0.2568182,
                "tempo": 120.0
            },
            {
                "start_time": 9.6386364,
                "end_time": 10.0227273,
                "pitch": 50,
                "velocity": 32,
                "duration": 0.3840909,
                "tempo": 120.0
            },
            {
                "start_time": 10.0409091,
                "end_time": 10.425,
                "pitch": 45,
                "velocity": 32,
                "duration": 0.3840909,
                "tempo": 120.0
            },
            {
                "start_time": 10.4431818,
                "end_time": 10.8181818,
                "pitch": 41,
                "velocity": 32,
                "duration": 0.375,
                "tempo": 120.0
            },
            {
                "start_time": 10.8363636,
                "end_time": 11.0931818,
                "pitch": 45,
                "velocity": 32,
                "duration": 0.2568182,
                "tempo": 120.0
            },
            {
                "start_time": 11.1090909,
                "end_time": 11.4977273,
                "pitch": 43,
                "velocity": 32,
                "duration": 0.3886364,
                "tempo": 120.0
            },
            {
                "start_time": 11.5136364,
                "end_time": 11.6318182,
                "pitch": 43,
                "velocity": 32,
                "duration": 0.1181818,
                "tempo": 120.0
            },
            {
                "start_time": 11.6477273,
                "end_time": 12.0340909,
                "pitch": 47,
                "velocity": 32,
                "duration": 0.3863636,
                "tempo": 120.0
            },
            {
                "start_time": 12.05,
                "end_time": 12.1636364,
                "pitch": 50,
                "velocity": 32,
                "duration": 0.1136364,
                "tempo": 120.0
            },
            {
                "start_time": 12.1818182,
                "end_time": 12.2954545,
                "pitch": 48,
                "velocity": 32,
                "duration": 0.1136364,
                "tempo": 120.0
            },
            {
                "start_time": 12.3113636,
                "end_time": 12.4272727,
                "pitch": 45,
                "velocity": 32,
                "duration": 0.1159091,
                "tempo": 120.0
            },
            {
                "start_time": 12.4431818,
                "end_time": 12.8295455,
                "pitch": 43,
                "velocity": 32,
                "duration": 0.3863636,
                "tempo": 120.0
            },
            {
                "start_time": 12.8477273,
                "end_time": 13.2409091,
                "pitch": 36,
                "velocity": 32,
                "duration": 0.3931818,
                "tempo": 120.0
            },
            {
                "start_time": 13.2568182,
                "end_time": 13.6431818,
                "pitch": 40,
                "velocity": 32,
                "duration": 0.3863636,
                "tempo": 120.0
            },
            {
                "start_time": 13.6590909,
                "end_time": 14.0340909,
                "pitch": 43,
                "velocity": 32,
                "duration": 0.375,
                "tempo": 120.0
            },
            {
                "start_time": 14.0522727,
                "end_time": 14.3090909,
                "pitch": 40,
                "velocity": 32,
                "duration": 0.2568182,
                "tempo": 120.0
            },
            {
                "start_time": 14.3272727,
                "end_time": 14.4454545,
                "pitch": 43,
                "velocity": 32,
                "duration": 0.1181818,
                "tempo": 120.0
            },
            {
                "start_time": 14.4636364,
                "end_time": 14.7204545,
                "pitch": 40,
                "velocity": 32,
                "duration": 0.2568182,
                "tempo": 120.0
            },
            {
                "start_time": 14.7363636,
                "end_time": 14.8568182,
                "pitch": 40,
                "velocity": 32,
                "duration": 0.1204545,
                "tempo": 120.0
            },
            {
                "start_time": 14.8727273,
                "end_time": 15.2477273,
                "pitch": 44,
                "velocity": 32,
                "duration": 0.375,
                "tempo": 120.0
            },
            {
                "start_time": 15.2659091,
                "end_time": 15.6409091,
                "pitch": 47,
                "velocity": 32,
                "duration": 0.375,
                "tempo": 120.0
            },
            {
                "start_time": 15.6590909,
                "end_time": 16.0522727,
                "pitch": 44,
                "velocity": 32,
                "duration": 0.3931818,
                "tempo": 120.0
            },
            {
                "start_time": 16.0681818,
                "end_time": 16.4431818,
                "pitch": 45,
                "velocity": 32,
                "duration": 0.375,
                "tempo": 120.0
            },
            {
                "start_time": 16.4613636,
                "end_time": 16.8545455,
                "pitch": 40,
                "velocity": 32,
                "duration": 0.3931818,
                "tempo": 120.0
            },
            {
                "start_time": 16.8704545,
                "end_time": 17.2477273,
                "pitch": 36,
                "velocity": 32,
                "duration": 0.3772727,
                "tempo": 120.0
            },
            {
                "start_time": 17.2636364,
                "end_time": 17.5204545,
                "pitch": 40,
                "velocity": 32,
                "duration": 0.2568182,
                "tempo": 120.0
            },
            {
                "start_time": 17.5386364,
                "end_time": 17.925,
                "pitch": 41,
                "velocity": 32,
                "duration": 0.3863636,
                "tempo": 120.0
            },
            {
                "start_time": 17.9409091,
                "end_time": 18.0568182,
                "pitch": 41,
                "velocity": 32,
                "duration": 0.1159091,
                "tempo": 120.0
            },
            {
                "start_time": 18.075,
                "end_time": 18.4568182,
                "pitch": 45,
                "velocity": 32,
                "duration": 0.3818182,
                "tempo": 120.0
            },
            {
                "start_time": 18.4727273,
                "end_time": 18.85,
                "pitch": 48,
                "velocity": 32,
                "duration": 0.3772727,
                "tempo": 120.0
            },
            {
                "start_time": 18.8659091,
                "end_time": 19.1227273,
                "pitch": 45,
                "velocity": 32,
                "duration": 0.2568182,
                "tempo": 120.0
            },
            {
                "start_time": 19.275,
                "end_time": 19.6522727,
                "pitch": 36,
                "velocity": 32,
                "duration": 0.3772727,
                "tempo": 120.0
            },
            {
                "start_time": 19.6704545,
                "end_time": 20.0613636,
                "pitch": 40,
                "velocity": 32,
                "duration": 0.3909091,
                "tempo": 120.0
            },
            {
                "start_time": 20.0795455,
                "end_time": 20.4545455,
                "pitch": 43,
                "velocity": 32,
                "duration": 0.375,
                "tempo": 120.0
            },
            {
                "start_time": 20.4727273,
                "end_time": 20.7295455,
                "pitch": 40,
                "velocity": 32,
                "duration": 0.2568182,
                "tempo": 120.0
            },
            {
                "start_time": 20.7454545,
                "end_time": 21.1318182,
                "pitch": 43,
                "velocity": 32,
                "duration": 0.3863636,
                "tempo": 120.0
            },
            {
                "start_time": 21.15,
                "end_time": 21.2659091,
                "pitch": 43,
                "velocity": 32,
                "duration": 0.1159091,
                "tempo": 120.0
            },
            {
                "start_time": 21.2818182,
                "end_time": 21.6681818,
                "pitch": 47,
                "velocity": 32,
                "duration": 0.3863636,
                "tempo": 120.0
            },
            {
                "start_time": 21.6840909,
                "end_time": 22.0613636,
                "pitch": 50,
                "velocity": 32,
                "duration": 0.3772727,
                "tempo": 120.0
            },
            {
                "start_time": 22.0772727,
                "end_time": 22.4636364,
                "pitch": 47,
                "velocity": 32,
                "duration": 0.3863636,
                "tempo": 120.0
            },
            {
                "start_time": 22.4795455,
                "end_time": 22.8636364,
                "pitch": 36,
                "velocity": 32,
                "duration": 0.3840909,
                "tempo": 120.0
            },
            {
                "start_time": 22.8795455,
                "end_time": 23.1363636,
                "pitch": 40,
                "velocity": 32,
                "duration": 0.2568182,
                "tempo": 120.0
            },
            {
                "start_time": 23.1545455,
                "end_time": 23.2727273,
                "pitch": 43,
                "velocity": 32,
                "duration": 0.1181818,
                "tempo": 120.0
            },
            {
                "start_time": 23.2886364,
                "end_time": 23.5340909,
                "pitch": 41,
                "velocity": 32,
                "duration": 0.2454545,
                "tempo": 120.0
            },
            {
                "start_time": 23.55,
                "end_time": 23.6659091,
                "pitch": 45,
                "velocity": 32,
                "duration": 0.1159091,
                "tempo": 120.0
            },
            {
                "start_time": 23.6840909,
                "end_time": 23.9409091,
                "pitch": 48,
                "velocity": 32,
                "duration": 0.2568182,
                "tempo": 120.0
            },
            {
                "start_time": 23.9568182,
                "end_time": 24.075,
                "pitch": 36,
                "velocity": 32,
                "duration": 0.1181818,
                "tempo": 120.0
            },
            {
                "start_time": 24.7590909,
                "end_time": 24.8795455,
                "pitch": 36,
                "velocity": 32,
                "duration": 0.1204545,
                "tempo": 120.0
            },
            {
                "start_time": 24.8977273,
                "end_time": 25.2909091,
                "pitch": 38,
                "velocity": 32,
                "duration": 0.3931818,
                "tempo": 120.0
            },
            {
                "start_time": 25.3068182,
                "end_time": 25.6818182,
                "pitch": 40,
                "velocity": 32,
                "duration": 0.375,
                "tempo": 120.0
            },
            {
                "start_time": 25.7,
                "end_time": 25.9568182,
                "pitch": 41,
                "velocity": 32,
                "duration": 0.2568182,
                "tempo": 120.0
            },
            {
                "start_time": 26.3704545,
                "end_time": 26.4840909,
                "pitch": 41,
                "velocity": 32,
                "duration": 0.1136364,
                "tempo": 120.0
            },
            {
                "start_time": 26.5022727,
                "end_time": 26.7454545,
                "pitch": 45,
                "velocity": 32,
                "duration": 0.2431818,
                "tempo": 120.0
            },
            {
                "start_time": 26.7636364,
                "end_time": 26.8772727,
                "pitch": 48,
                "velocity": 32,
                "duration": 0.1136364,
                "tempo": 120.0
            },
            {
                "start_time": 27.1681818,
                "end_time": 27.55,
                "pitch": 51,
                "velocity": 32,
                "duration": 0.3818182,
                "tempo": 120.0
            },
            {
                "start_time": 27.5659091,
                "end_time": 27.6795455,
                "pitch": 51,
                "velocity": 32,
                "duration": 0.1136364,
                "tempo": 120.0
            },
            {
                "start_time": 27.6977273,
                "end_time": 28.0795455,
                "pitch": 50,
                "velocity": 32,
                "duration": 0.3818182,
                "tempo": 120.0
            },
            {
                "start_time": 28.0977273,
                "end_time": 28.4840909,
                "pitch": 48,
                "velocity": 32,
                "duration": 0.3863636,
                "tempo": 120.0
            },
            {
                "start_time": 28.5,
                "end_time": 28.7568182,
                "pitch": 45,
                "velocity": 32,
                "duration": 0.2568182,
                "tempo": 120.0
            },
            {
                "start_time": 28.775,
                "end_time": 28.8931818,
                "pitch": 48,
                "velocity": 32,
                "duration": 0.1181818,
                "tempo": 120.0
            },
            {
                "start_time": 28.9090909,
                "end_time": 29.1545455,
                "pitch": 36,
                "velocity": 32,
                "duration": 0.2454545,
                "tempo": 120.0
            },
            {
                "start_time": 29.5772727,
                "end_time": 29.6954545,
                "pitch": 36,
                "velocity": 32,
                "duration": 0.1181818,
                "tempo": 120.0
            },
            {
                "start_time": 29.7113636,
                "end_time": 29.9568182,
                "pitch": 40,
                "velocity": 32,
                "duration": 0.2454545,
                "tempo": 120.0
            },
            {
                "start_time": 29.9727273,
                "end_time": 30.0886364,
                "pitch": 43,
                "velocity": 32,
                "duration": 0.1159091,
                "tempo": 120.0
            },
            {
                "start_time": 30.3795455,
                "end_time": 30.7681818,
                "pitch": 46,
                "velocity": 32,
                "duration": 0.3886364,
                "tempo": 120.0
            },
            {
                "start_time": 30.7840909,
                "end_time": 30.9022727,
                "pitch": 46,
                "velocity": 32,
                "duration": 0.1181818,
                "tempo": 120.0
            },
            {
                "start_time": 30.9181818,
                "end_time": 31.2931818,
                "pitch": 45,
                "velocity": 32,
                "duration": 0.375,
                "tempo": 120.0
            },
            {
                "start_time": 31.3113636,
                "end_time": 31.6931818,
                "pitch": 43,
                "velocity": 32,
                "duration": 0.3818182,
                "tempo": 120.0
            },
            {
                "start_time": 31.7113636,
                "end_time": 31.9681818,
                "pitch": 40,
                "velocity": 32,
                "duration": 0.2568182,
                "tempo": 120.0
            },
            {
                "start_time": 31.9840909,
                "end_time": 32.1045455,
                "pitch": 43,
                "velocity": 32,
                "duration": 0.1204545,
                "tempo": 120.0
            },
            {
                "start_time": 32.1204545,
                "end_time": 32.3659091,
                "pitch": 41,
                "velocity": 32,
                "duration": 0.2454545,
                "tempo": 120.0
            },
            {
                "start_time": 32.7886364,
                "end_time": 32.9068182,
                "pitch": 41,
                "velocity": 32,
                "duration": 0.1181818,
                "tempo": 120.0
            },
            {
                "start_time": 32.9227273,
                "end_time": 33.1681818,
                "pitch": 45,
                "velocity": 32,
                "duration": 0.2454545,
                "tempo": 120.0
            },
            {
                "start_time": 33.1840909,
                "end_time": 33.3,
                "pitch": 48,
                "velocity": 32,
                "duration": 0.1159091,
                "tempo": 120.0
            },
            {
                "start_time": 33.5909091,
                "end_time": 33.9704545,
                "pitch": 51,
                "velocity": 32,
                "duration": 0.3795455,
                "tempo": 120.0
            },
            {
                "start_time": 33.9863636,
                "end_time": 34.1022727,
                "pitch": 53,
                "velocity": 32,
                "duration": 0.1159091,
                "tempo": 120.0
            },
            {
                "start_time": 34.1181818,
                "end_time": 34.5022727,
                "pitch": 50,
                "velocity": 32,
                "duration": 0.3840909,
                "tempo": 120.0
            },
            {
                "start_time": 34.5181818,
                "end_time": 34.9045455,
                "pitch": 48,
                "velocity": 32,
                "duration": 0.3863636,
                "tempo": 120.0
            },
            {
                "start_time": 34.9227273,
                "end_time": 35.1795455,
                "pitch": 45,
                "velocity": 32,
                "duration": 0.2568182,
                "tempo": 120.0
            },
            {
                "start_time": 35.1954545,
                "end_time": 35.3159091,
                "pitch": 48,
                "velocity": 32,
                "duration": 0.1204545,
                "tempo": 120.0
            },
            {
                "start_time": 35.3318182,
                "end_time": 35.45,
                "pitch": 43,
                "velocity": 32,
                "duration": 0.1181818,
                "tempo": 120.0
            },
            {
                "start_time": 35.4659091,
                "end_time": 35.5818182,
                "pitch": 43,
                "velocity": 32,
                "duration": 0.1159091,
                "tempo": 120.0
            },
            {
                "start_time": 35.6,
                "end_time": 35.7159091,
                "pitch": 43,
                "velocity": 32,
                "duration": 0.1159091,
                "tempo": 120.0
            },
            {
                "start_time": 35.7318182,
                "end_time": 35.85,
                "pitch": 43,
                "velocity": 32,
                "duration": 0.1181818,
                "tempo": 120.0
            },
            {
                "start_time": 35.8659091,
                "end_time": 35.9840909,
                "pitch": 43,
                "velocity": 32,
                "duration": 0.1181818,
                "tempo": 120.0
            },
            {
                "start_time": 36.0,
                "end_time": 36.1181818,
                "pitch": 43,
                "velocity": 32,
                "duration": 0.1181818,
                "tempo": 120.0
            },
            {
                "start_time": 36.1340909,
                "end_time": 36.2522727,
                "pitch": 47,
                "velocity": 32,
                "duration": 0.1181818,
                "tempo": 120.0
            },
            {
                "start_time": 36.2681818,
                "end_time": 36.3840909,
                "pitch": 47,
                "velocity": 32,
                "duration": 0.1159091,
                "tempo": 120.0
            },
            {
                "start_time": 36.4022727,
                "end_time": 36.5181818,
                "pitch": 47,
                "velocity": 32,
                "duration": 0.1159091,
                "tempo": 120.0
            },
            {
                "start_time": 36.5340909,
                "end_time": 36.6522727,
                "pitch": 47,
                "velocity": 32,
                "duration": 0.1181818,
                "tempo": 120.0
            },
            {
                "start_time": 36.6681818,
                "end_time": 36.7840909,
                "pitch": 47,
                "velocity": 32,
                "duration": 0.1159091,
                "tempo": 120.0
            },
            {
                "start_time": 36.8022727,
                "end_time": 36.9181818,
                "pitch": 47,
                "velocity": 32,
                "duration": 0.1159091,
                "tempo": 120.0
            },
            {
                "start_time": 36.9340909,
                "end_time": 37.1840909,
                "pitch": 55,
                "velocity": 32,
                "duration": 0.25,
                "tempo": 120.0
            },
            {
                "start_time": 37.3340909,
                "end_time": 38.7931818,
                "pitch": 63,
                "velocity": 32,
                "duration": 1.4590909,
                "tempo": 120.0
            },
            {
                "start_time": 39.2090909,
                "end_time": 39.325,
                "pitch": 41,
                "velocity": 32,
                "duration": 0.1159091,
                "tempo": 120.0
            },
            {
                "start_time": 39.3409091,
                "end_time": 39.5863636,
                "pitch": 45,
                "velocity": 32,
                "duration": 0.2454545,
                "tempo": 120.0
            },
            {
                "start_time": 39.6022727,
                "end_time": 39.7181818,
                "pitch": 48,
                "velocity": 32,
                "duration": 0.1159091,
                "tempo": 120.0
            },
            {
                "start_time": 40.0090909,
                "end_time": 40.3886364,
                "pitch": 51,
                "velocity": 32,
                "duration": 0.3795455,
                "tempo": 120.0
            },
            {
                "start_time": 40.4045455,
                "end_time": 40.5204545,
                "pitch": 51,
                "velocity": 32,
                "duration": 0.1159091,
                "tempo": 120.0
            },
            {
                "start_time": 40.5363636,
                "end_time": 40.9227273,
                "pitch": 50,
                "velocity": 32,
                "duration": 0.3863636,
                "tempo": 120.0
            },
            {
                "start_time": 40.9386364,
                "end_time": 41.3227273,
                "pitch": 48,
                "velocity": 32,
                "duration": 0.3840909,
                "tempo": 120.0
            },
            {
                "start_time": 41.3386364,
                "end_time": 41.5886364,
                "pitch": 45,
                "velocity": 32,
                "duration": 0.25,
                "tempo": 120.0
            },
            {
                "start_time": 41.6045455,
                "end_time": 41.7227273,
                "pitch": 48,
                "velocity": 32,
                "duration": 0.1181818,
                "tempo": 120.0
            },
            {
                "start_time": 41.7386364,
                "end_time": 41.9886364,
                "pitch": 36,
                "velocity": 32,
                "duration": 0.25,
                "tempo": 120.0
            },
            {
                "start_time": 42.4045455,
                "end_time": 42.5227273,
                "pitch": 36,
                "velocity": 32,
                "duration": 0.1181818,
                "tempo": 120.0
            },
            {
                "start_time": 42.5386364,
                "end_time": 42.7909091,
                "pitch": 40,
                "velocity": 32,
                "duration": 0.2522727,
                "tempo": 120.0
            },
            {
                "start_time": 42.8068182,
                "end_time": 42.925,
                "pitch": 43,
                "velocity": 32,
                "duration": 0.1181818,
                "tempo": 120.0
            },
            {
                "start_time": 43.2159091,
                "end_time": 43.5977273,
                "pitch": 46,
                "velocity": 32,
                "duration": 0.3818182,
                "tempo": 120.0
            },
            {
                "start_time": 43.6136364,
                "end_time": 43.7272727,
                "pitch": 46,
                "velocity": 32,
                "duration": 0.1136364,
                "tempo": 120.0
            },
            {
                "start_time": 43.7454545,
                "end_time": 44.1272727,
                "pitch": 45,
                "velocity": 32,
                "duration": 0.3818182,
                "tempo": 120.0
            },
            {
                "start_time": 44.1454545,
                "end_time": 44.5272727,
                "pitch": 43,
                "velocity": 32,
                "duration": 0.3818182,
                "tempo": 120.0
            },
            {
                "start_time": 44.5454545,
                "end_time": 44.7954545,
                "pitch": 40,
                "velocity": 32,
                "duration": 0.25,
                "tempo": 120.0
            },
            {
                "start_time": 44.8136364,
                "end_time": 44.9295455,
                "pitch": 43,
                "velocity": 32,
                "duration": 0.1159091,
                "tempo": 120.0
            },
            {
                "start_time": 44.9477273,
                "end_time": 45.1977273,
                "pitch": 41,
                "velocity": 32,
                "duration": 0.25,
                "tempo": 120.0
            },
            {
                "start_time": 45.6227273,
                "end_time": 45.7409091,
                "pitch": 41,
                "velocity": 32,
                "duration": 0.1181818,
                "tempo": 120.0
            },
            {
                "start_time": 45.7568182,
                "end_time": 46.0022727,
                "pitch": 45,
                "velocity": 32,
                "duration": 0.2454545,
                "tempo": 120.0
            },
            {
                "start_time": 46.0181818,
                "end_time": 46.1340909,
                "pitch": 48,
                "velocity": 32,
                "duration": 0.1159091,
                "tempo": 120.0
            },
            {
                "start_time": 46.425,
                "end_time": 46.8045455,
                "pitch": 51,
                "velocity": 32,
                "duration": 0.3795455,
                "tempo": 120.0
            },
            {
                "start_time": 46.8204545,
                "end_time": 46.9363636,
                "pitch": 53,
                "velocity": 32,
                "duration": 0.1159091,
                "tempo": 120.0
            },
            {
                "start_time": 46.9522727,
                "end_time": 47.3363636,
                "pitch": 50,
                "velocity": 32,
                "duration": 0.3840909,
                "tempo": 120.0
            },
            {
                "start_time": 47.3522727,
                "end_time": 47.7363636,
                "pitch": 48,
                "velocity": 32,
                "duration": 0.3840909,
                "tempo": 120.0
            },
            {
                "start_time": 47.7522727,
                "end_time": 48.0022727,
                "pitch": 45,
                "velocity": 32,
                "duration": 0.25,
                "tempo": 120.0
            },
            {
                "start_time": 48.0204545,
                "end_time": 48.1363636,
                "pitch": 48,
                "velocity": 32,
                "duration": 0.1159091,
                "tempo": 120.0
            },
            {
                "start_time": 48.1545455,
                "end_time": 48.2727273,
                "pitch": 43,
                "velocity": 32,
                "duration": 0.1181818,
                "tempo": 120.0
            },
            {
                "start_time": 48.2909091,
                "end_time": 48.4113636,
                "pitch": 43,
                "velocity": 32,
                "duration": 0.1204545,
                "tempo": 120.0
            },
            {
                "start_time": 48.4272727,
                "end_time": 48.5477273,
                "pitch": 43,
                "velocity": 32,
                "duration": 0.1204545,
                "tempo": 120.0
            },
            {
                "start_time": 48.5636364,
                "end_time": 48.6795455,
                "pitch": 43,
                "velocity": 32,
                "duration": 0.1159091,
                "tempo": 120.0
            },
            {
                "start_time": 48.6977273,
                "end_time": 48.8136364,
                "pitch": 43,
                "velocity": 32,
                "duration": 0.1159091,
                "tempo": 120.0
            },
            {
                "start_time": 48.8295455,
                "end_time": 48.9477273,
                "pitch": 43,
                "velocity": 32,
                "duration": 0.1181818,
                "tempo": 120.0
            },
            {
                "start_time": 48.9636364,
                "end_time": 49.0795455,
                "pitch": 47,
                "velocity": 32,
                "duration": 0.1159091,
                "tempo": 120.0
            },
            {
                "start_time": 49.0977273,
                "end_time": 49.2136364,
                "pitch": 47,
                "velocity": 32,
                "duration": 0.1159091,
                "tempo": 120.0
            },
            {
                "start_time": 49.2295455,
                "end_time": 49.3477273,
                "pitch": 47,
                "velocity": 32,
                "duration": 0.1181818,
                "tempo": 120.0
            },
            {
                "start_time": 49.3636364,
                "end_time": 49.4795455,
                "pitch": 47,
                "velocity": 32,
                "duration": 0.1159091,
                "tempo": 120.0
            },
            {
                "start_time": 49.4977273,
                "end_time": 49.6136364,
                "pitch": 47,
                "velocity": 32,
                "duration": 0.1159091,
                "tempo": 120.0
            },
            {
                "start_time": 49.6295455,
                "end_time": 49.7477273,
                "pitch": 47,
                "velocity": 32,
                "duration": 0.1181818,
                "tempo": 120.0
            },
            {
                "start_time": 49.7636364,
                "end_time": 50.0159091,
                "pitch": 55,
                "velocity": 32,
                "duration": 0.2522727,
                "tempo": 120.0
            },
            {
                "start_time": 50.8386364,
                "end_time": 51.3522727,
                "pitch": 55,
                "velocity": 32,
                "duration": 0.5136364,
                "tempo": 120.0
            }
        ],
        "Church Organ": [
            {
                "start_time": 0.375,
                "end_time": 0.7522727,
                "pitch": 64,
                "velocity": 40,
                "duration": 0.3772727,
                "tempo": 120.0
            },
            {
                "start_time": 1.0295455,
                "end_time": 1.1431818,
                "pitch": 64,
                "velocity": 40,
                "duration": 0.1136364,
                "tempo": 120.0
            },
            {
                "start_time": 1.1590909,
                "end_time": 1.5545455,
                "pitch": 60,
                "velocity": 40,
                "duration": 0.3954545,
                "tempo": 120.0
            },
            {
                "start_time": 1.5704545,
                "end_time": 1.9636364,
                "pitch": 59,
                "velocity": 40,
                "duration": 0.3931818,
                "tempo": 120.0
            },
            {
                "start_time": 1.9818182,
                "end_time": 2.3568182,
                "pitch": 59,
                "velocity": 40,
                "duration": 0.375,
                "tempo": 120.0
            },
            {
                "start_time": 2.375,
                "end_time": 2.75,
                "pitch": 64,
                "velocity": 40,
                "duration": 0.375,
                "tempo": 120.0
            },
            {
                "start_time": 2.7659091,
                "end_time": 3.1590909,
                "pitch": 64,
                "velocity": 40,
                "duration": 0.3931818,
                "tempo": 120.0
            },
            {
                "start_time": 3.1772727,
                "end_time": 4.225,
                "pitch": 64,
                "velocity": 40,
                "duration": 1.0477273,
                "tempo": 120.0
            },
            {
                "start_time": 4.2409091,
                "end_time": 4.3545455,
                "pitch": 64,
                "velocity": 40,
                "duration": 0.1136364,
                "tempo": 120.0
            },
            {
                "start_time": 4.3727273,
                "end_time": 4.6272727,
                "pitch": 64,
                "velocity": 40,
                "duration": 0.2545455,
                "tempo": 120.0
            },
            {
                "start_time": 4.6454545,
                "end_time": 5.9636364,
                "pitch": 60,
                "velocity": 40,
                "duration": 1.3181818,
                "tempo": 120.0
            },
            {
                "start_time": 5.9795455,
                "end_time": 6.2363636,
                "pitch": 65,
                "velocity": 40,
                "duration": 0.2568182,
                "tempo": 120.0
            },
            {
                "start_time": 6.3909091,
                "end_time": 6.6363636,
                "pitch": 64,
                "velocity": 40,
                "duration": 0.2454545,
                "tempo": 120.0
            },
            {
                "start_time": 6.6522727,
                "end_time": 6.7659091,
                "pitch": 64,
                "velocity": 40,
                "duration": 0.1136364,
                "tempo": 120.0
            },
            {
                "start_time": 7.5840909,
                "end_time": 7.8409091,
                "pitch": 64,
                "velocity": 40,
                "duration": 0.2568182,
                "tempo": 120.0
            },
            {
                "start_time": 8.6681818,
                "end_time": 8.7840909,
                "pitch": 64,
                "velocity": 40,
                "duration": 0.1159091,
                "tempo": 120.0
            },
            {
                "start_time": 8.8022727,
                "end_time": 9.0454545,
                "pitch": 64,
                "velocity": 40,
                "duration": 0.2431818,
                "tempo": 120.0
            },
            {
                "start_time": 9.0636364,
                "end_time": 9.3136364,
                "pitch": 64,
                "velocity": 40,
                "duration": 0.25,
                "tempo": 120.0
            },
            {
                "start_time": 9.3295455,
                "end_time": 9.5863636,
                "pitch": 64,
                "velocity": 40,
                "duration": 0.2568182,
                "tempo": 120.0
            },
            {
                "start_time": 9.6045455,
                "end_time": 10.6545455,
                "pitch": 65,
                "velocity": 40,
                "duration": 1.05,
                "tempo": 120.0
            },
            {
                "start_time": 10.6704545,
                "end_time": 10.7863636,
                "pitch": 69,
                "velocity": 40,
                "duration": 0.1159091,
                "tempo": 120.0
            },
            {
                "start_time": 11.2113636,
                "end_time": 12.0,
                "pitch": 67,
                "velocity": 40,
                "duration": 0.7886364,
                "tempo": 120.0
            },
            {
                "start_time": 12.0181818,
                "end_time": 12.3931818,
                "pitch": 67,
                "velocity": 40,
                "duration": 0.375,
                "tempo": 120.0
            },
            {
                "start_time": 12.4090909,
                "end_time": 12.7954545,
                "pitch": 67,
                "velocity": 40,
                "duration": 0.3863636,
                "tempo": 120.0
            },
            {
                "start_time": 13.2227273,
                "end_time": 13.6090909,
                "pitch": 64,
                "velocity": 40,
                "duration": 0.3863636,
                "tempo": 120.0
            },
            {
                "start_time": 13.8886364,
                "end_time": 14.0022727,
                "pitch": 64,
                "velocity": 40,
                "duration": 0.1136364,
                "tempo": 120.0
            },
            {
                "start_time": 14.0181818,
                "end_time": 14.4113636,
                "pitch": 60,
                "velocity": 40,
                "duration": 0.3931818,
                "tempo": 120.0
            },
            {
                "start_time": 14.4295455,
                "end_time": 14.8227273,
                "pitch": 59,
                "velocity": 40,
                "duration": 0.3931818,
                "tempo": 120.0
            },
            {
                "start_time": 14.8409091,
                "end_time": 15.2159091,
                "pitch": 59,
                "velocity": 40,
                "duration": 0.375,
                "tempo": 120.0
            },
            {
                "start_time": 15.2318182,
                "end_time": 15.6090909,
                "pitch": 64,
                "velocity": 40,
                "duration": 0.3772727,
                "tempo": 120.0
            },
            {
                "start_time": 15.625,
                "end_time": 16.0181818,
                "pitch": 64,
                "velocity": 40,
                "duration": 0.3931818,
                "tempo": 120.0
            },
            {
                "start_time": 16.0340909,
                "end_time": 17.0818182,
                "pitch": 64,
                "velocity": 40,
                "duration": 1.0477273,
                "tempo": 120.0
            },
            {
                "start_time": 17.1,
                "end_time": 17.2136364,
                "pitch": 64,
                "velocity": 40,
                "duration": 0.1136364,
                "tempo": 120.0
            },
            {
                "start_time": 17.2295455,
                "end_time": 17.4863636,
                "pitch": 64,
                "velocity": 40,
                "duration": 0.2568182,
                "tempo": 120.0
            },
            {
                "start_time": 17.5045455,
                "end_time": 18.8159091,
                "pitch": 60,
                "velocity": 40,
                "duration": 1.3113636,
                "tempo": 120.0
            },
            {
                "start_time": 18.8318182,
                "end_time": 19.0886364,
                "pitch": 65,
                "velocity": 40,
                "duration": 0.2568182,
                "tempo": 120.0
            },
            {
                "start_time": 19.2431818,
                "end_time": 19.8909091,
                "pitch": 64,
                "velocity": 40,
                "duration": 0.6477273,
                "tempo": 120.0
            },
            {
                "start_time": 19.9090909,
                "end_time": 20.0295455,
                "pitch": 64,
                "velocity": 40,
                "duration": 0.1204545,
                "tempo": 120.0
            },
            {
                "start_time": 20.0454545,
                "end_time": 20.2909091,
                "pitch": 64,
                "velocity": 40,
                "duration": 0.2454545,
                "tempo": 120.0
            },
            {
                "start_time": 20.3068182,
                "end_time": 20.8318182,
                "pitch": 64,
                "velocity": 40,
                "duration": 0.525,
                "tempo": 120.0
            },
            {
                "start_time": 20.8477273,
                "end_time": 21.5,
                "pitch": 62,
                "velocity": 40,
                "duration": 0.6522727,
                "tempo": 120.0
            },
            {
                "start_time": 21.5181818,
                "end_time": 21.6340909,
                "pitch": 62,
                "velocity": 40,
                "duration": 0.1159091,
                "tempo": 120.0
            },
            {
                "start_time": 21.6522727,
                "end_time": 21.8954545,
                "pitch": 62,
                "velocity": 40,
                "duration": 0.2431818,
                "tempo": 120.0
            },
            {
                "start_time": 21.9136364,
                "end_time": 22.4295455,
                "pitch": 62,
                "velocity": 40,
                "duration": 0.5159091,
                "tempo": 120.0
            },
            {
                "start_time": 22.4454545,
                "end_time": 22.8295455,
                "pitch": 64,
                "velocity": 40,
                "duration": 0.3840909,
                "tempo": 120.0
            },
            {
                "start_time": 22.8454545,
                "end_time": 23.2409091,
                "pitch": 64,
                "velocity": 40,
                "duration": 0.3954545,
                "tempo": 120.0
            },
            {
                "start_time": 23.2568182,
                "end_time": 23.5022727,
                "pitch": 65,
                "velocity": 40,
                "duration": 0.2454545,
                "tempo": 120.0
            },
            {
                "start_time": 23.5181818,
                "end_time": 23.6318182,
                "pitch": 65,
                "velocity": 40,
                "duration": 0.1136364,
                "tempo": 120.0
            },
            {
                "start_time": 23.9227273,
                "end_time": 24.0431818,
                "pitch": 64,
                "velocity": 40,
                "duration": 0.1204545,
                "tempo": 120.0
            },
            {
                "start_time": 24.8613636,
                "end_time": 25.1181818,
                "pitch": 64,
                "velocity": 40,
                "duration": 0.2568182,
                "tempo": 120.0
            },
            {
                "start_time": 25.1363636,
                "end_time": 25.65,
                "pitch": 64,
                "velocity": 40,
                "duration": 0.5136364,
                "tempo": 120.0
            },
            {
                "start_time": 25.6818182,
                "end_time": 27.2545455,
                "pitch": 65,
                "velocity": 40,
                "duration": 1.5727273,
                "tempo": 120.0
            },
            {
                "start_time": 27.5318182,
                "end_time": 27.6477273,
                "pitch": 65,
                "velocity": 40,
                "duration": 0.1159091,
                "tempo": 120.0
            },
            {
                "start_time": 27.9295455,
                "end_time": 28.0477273,
                "pitch": 65,
                "velocity": 40,
                "duration": 0.1181818,
                "tempo": 120.0
            },
            {
                "start_time": 28.0636364,
                "end_time": 28.45,
                "pitch": 65,
                "velocity": 40,
                "duration": 0.3863636,
                "tempo": 120.0
            },
            {
                "start_time": 28.4659091,
                "end_time": 28.8590909,
                "pitch": 65,
                "velocity": 40,
                "duration": 0.3931818,
                "tempo": 120.0
            },
            {
                "start_time": 28.8772727,
                "end_time": 30.4659091,
                "pitch": 64,
                "velocity": 40,
                "duration": 1.5886364,
                "tempo": 120.0
            },
            {
                "start_time": 30.75,
                "end_time": 30.8681818,
                "pitch": 64,
                "velocity": 40,
                "duration": 0.1181818,
                "tempo": 120.0
            },
            {
                "start_time": 31.1454545,
                "end_time": 31.2613636,
                "pitch": 64,
                "velocity": 40,
                "duration": 0.1159091,
                "tempo": 120.0
            },
            {
                "start_time": 31.2772727,
                "end_time": 31.6613636,
                "pitch": 64,
                "velocity": 40,
                "duration": 0.3840909,
                "tempo": 120.0
            },
            {
                "start_time": 31.6772727,
                "end_time": 32.0704545,
                "pitch": 64,
                "velocity": 40,
                "duration": 0.3931818,
                "tempo": 120.0
            },
            {
                "start_time": 32.0886364,
                "end_time": 33.675,
                "pitch": 65,
                "velocity": 40,
                "duration": 1.5863636,
                "tempo": 120.0
            },
            {
                "start_time": 33.9545455,
                "end_time": 34.0681818,
                "pitch": 65,
                "velocity": 40,
                "duration": 0.1136364,
                "tempo": 120.0
            },
            {
                "start_time": 34.3522727,
                "end_time": 34.4681818,
                "pitch": 65,
                "velocity": 40,
                "duration": 0.1159091,
                "tempo": 120.0
            },
            {
                "start_time": 34.4863636,
                "end_time": 34.8704545,
                "pitch": 65,
                "velocity": 40,
                "duration": 0.3840909,
                "tempo": 120.0
            },
            {
                "start_time": 34.8886364,
                "end_time": 35.2818182,
                "pitch": 65,
                "velocity": 40,
                "duration": 0.3931818,
                "tempo": 120.0
            },
            {
                "start_time": 35.2977273,
                "end_time": 35.4159091,
                "pitch": 67,
                "velocity": 40,
                "duration": 0.1181818,
                "tempo": 120.0
            },
            {
                "start_time": 35.4318182,
                "end_time": 35.55,
                "pitch": 67,
                "velocity": 40,
                "duration": 0.1181818,
                "tempo": 120.0
            },
            {
                "start_time": 35.5659091,
                "end_time": 35.6818182,
                "pitch": 67,
                "velocity": 40,
                "duration": 0.1159091,
                "tempo": 120.0
            },
            {
                "start_time": 35.7,
                "end_time": 35.8159091,
                "pitch": 67,
                "velocity": 40,
                "duration": 0.1159091,
                "tempo": 120.0
            },
            {
                "start_time": 35.8340909,
                "end_time": 35.95,
                "pitch": 67,
                "velocity": 40,
                "duration": 0.1159091,
                "tempo": 120.0
            },
            {
                "start_time": 35.9681818,
                "end_time": 36.0840909,
                "pitch": 67,
                "velocity": 40,
                "duration": 0.1159091,
                "tempo": 120.0
            },
            {
                "start_time": 36.1022727,
                "end_time": 36.2181818,
                "pitch": 67,
                "velocity": 40,
                "duration": 0.1159091,
                "tempo": 120.0
            },
            {
                "start_time": 36.2340909,
                "end_time": 36.3522727,
                "pitch": 67,
                "velocity": 40,
                "duration": 0.1181818,
                "tempo": 120.0
            },
            {
                "start_time": 36.3681818,
                "end_time": 36.4840909,
                "pitch": 67,
                "velocity": 40,
                "duration": 0.1159091,
                "tempo": 120.0
            },
            {
                "start_time": 36.5022727,
                "end_time": 36.6181818,
                "pitch": 67,
                "velocity": 40,
                "duration": 0.1159091,
                "tempo": 120.0
            },
            {
                "start_time": 36.6340909,
                "end_time": 36.7522727,
                "pitch": 67,
                "velocity": 40,
                "duration": 0.1181818,
                "tempo": 120.0
            },
            {
                "start_time": 36.7681818,
                "end_time": 36.8840909,
                "pitch": 67,
                "velocity": 40,
                "duration": 0.1159091,
                "tempo": 120.0
            },
            {
                "start_time": 36.9022727,
                "end_time": 37.0181818,
                "pitch": 67,
                "velocity": 40,
                "duration": 0.1159091,
                "tempo": 120.0
            },
            {
                "start_time": 37.0340909,
                "end_time": 37.1522727,
                "pitch": 67,
                "velocity": 40,
                "duration": 0.1181818,
                "tempo": 120.0
            },
            {
                "start_time": 37.1681818,
                "end_time": 37.2840909,
                "pitch": 67,
                "velocity": 40,
                "duration": 0.1159091,
                "tempo": 120.0
            },
            {
                "start_time": 37.3022727,
                "end_time": 37.4159091,
                "pitch": 67,
                "velocity": 40,
                "duration": 0.1136364,
                "tempo": 120.0
            },
            {
                "start_time": 37.4318182,
                "end_time": 37.5477273,
                "pitch": 67,
                "velocity": 40,
                "duration": 0.1159091,
                "tempo": 120.0
            },
            {
                "start_time": 37.5636364,
                "end_time": 37.6772727,
                "pitch": 67,
                "velocity": 40,
                "duration": 0.1136364,
                "tempo": 120.0
            },
            {
                "start_time": 37.6931818,
                "end_time": 37.9431818,
                "pitch": 67,
                "velocity": 40,
                "duration": 0.25,
                "tempo": 120.0
            },
            {
                "start_time": 37.9613636,
                "end_time": 38.3431818,
                "pitch": 67,
                "velocity": 40,
                "duration": 0.3818182,
                "tempo": 120.0
            },
            {
                "start_time": 38.3613636,
                "end_time": 38.4772727,
                "pitch": 67,
                "velocity": 40,
                "duration": 0.1159091,
                "tempo": 120.0
            },
            {
                "start_time": 38.5113636,
                "end_time": 40.0931818,
                "pitch": 65,
                "velocity": 40,
                "duration": 1.5818182,
                "tempo": 120.0
            },
            {
                "start_time": 40.3727273,
                "end_time": 40.4863636,
                "pitch": 65,
                "velocity": 40,
                "duration": 0.1136364,
                "tempo": 120.0
            },
            {
                "start_time": 40.7704545,
                "end_time": 40.8886364,
                "pitch": 65,
                "velocity": 40,
                "duration": 0.1181818,
                "tempo": 120.0
            },
            {
                "start_time": 40.9045455,
                "end_time": 41.2886364,
                "pitch": 65,
                "velocity": 40,
                "duration": 0.3840909,
                "tempo": 120.0
            },
            {
                "start_time": 41.3045455,
                "end_time": 41.6886364,
                "pitch": 65,
                "velocity": 40,
                "duration": 0.3840909,
                "tempo": 120.0
            },
            {
                "start_time": 41.7045455,
                "end_time": 43.3022727,
                "pitch": 64,
                "velocity": 40,
                "duration": 1.5977273,
                "tempo": 120.0
            },
            {
                "start_time": 43.5795455,
                "end_time": 43.6954545,
                "pitch": 64,
                "velocity": 40,
                "duration": 0.1159091,
                "tempo": 120.0
            },
            {
                "start_time": 43.9772727,
                "end_time": 44.0954545,
                "pitch": 64,
                "velocity": 40,
                "duration": 0.1181818,
                "tempo": 120.0
            },
            {
                "start_time": 44.1113636,
                "end_time": 44.4954545,
                "pitch": 64,
                "velocity": 40,
                "duration": 0.3840909,
                "tempo": 120.0
            },
            {
                "start_time": 44.5113636,
                "end_time": 44.8977273,
                "pitch": 64,
                "velocity": 40,
                "duration": 0.3863636,
                "tempo": 120.0
            },
            {
                "start_time": 44.9136364,
                "end_time": 46.5090909,
                "pitch": 65,
                "velocity": 40,
                "duration": 1.5954545,
                "tempo": 120.0
            },
            {
                "start_time": 46.7886364,
                "end_time": 46.9022727,
                "pitch": 65,
                "velocity": 40,
                "duration": 0.1136364,
                "tempo": 120.0
            },
            {
                "start_time": 47.1863636,
                "end_time": 47.3022727,
                "pitch": 65,
                "velocity": 40,
                "duration": 0.1159091,
                "tempo": 120.0
            },
            {
                "start_time": 47.3204545,
                "end_time": 47.7022727,
                "pitch": 65,
                "velocity": 40,
                "duration": 0.3818182,
                "tempo": 120.0
            },
            {
                "start_time": 47.7204545,
                "end_time": 48.1022727,
                "pitch": 65,
                "velocity": 40,
                "duration": 0.3818182,
                "tempo": 120.0
            },
            {
                "start_time": 48.1204545,
                "end_time": 48.2386364,
                "pitch": 67,
                "velocity": 40,
                "duration": 0.1181818,
                "tempo": 120.0
            },
            {
                "start_time": 48.2568182,
                "end_time": 48.375,
                "pitch": 67,
                "velocity": 40,
                "duration": 0.1181818,
                "tempo": 120.0
            },
            {
                "start_time": 48.3931818,
                "end_time": 48.5136364,
                "pitch": 67,
                "velocity": 40,
                "duration": 0.1204545,
                "tempo": 120.0
            },
            {
                "start_time": 48.5295455,
                "end_time": 48.6477273,
                "pitch": 67,
                "velocity": 40,
                "duration": 0.1181818,
                "tempo": 120.0
            },
            {
                "start_time": 48.6636364,
                "end_time": 48.7795455,
                "pitch": 67,
                "velocity": 40,
                "duration": 0.1159091,
                "tempo": 120.0
            },
            {
                "start_time": 48.7977273,
                "end_time": 48.9136364,
                "pitch": 67,
                "velocity": 40,
                "duration": 0.1159091,
                "tempo": 120.0
            },
            {
                "start_time": 48.9295455,
                "end_time": 49.0477273,
                "pitch": 67,
                "velocity": 40,
                "duration": 0.1181818,
                "tempo": 120.0
            },
            {
                "start_time": 49.0636364,
                "end_time": 49.1795455,
                "pitch": 67,
                "velocity": 40,
                "duration": 0.1159091,
                "tempo": 120.0
            },
            {
                "start_time": 49.1977273,
                "end_time": 49.3136364,
                "pitch": 67,
                "velocity": 40,
                "duration": 0.1159091,
                "tempo": 120.0
            },
            {
                "start_time": 49.3295455,
                "end_time": 49.4477273,
                "pitch": 67,
                "velocity": 40,
                "duration": 0.1181818,
                "tempo": 120.0
            },
            {
                "start_time": 49.4636364,
                "end_time": 49.5795455,
                "pitch": 67,
                "velocity": 40,
                "duration": 0.1159091,
                "tempo": 120.0
            },
            {
                "start_time": 49.5977273,
                "end_time": 49.7136364,
                "pitch": 67,
                "velocity": 40,
                "duration": 0.1159091,
                "tempo": 120.0
            },
            {
                "start_time": 49.7295455,
                "end_time": 49.9818182,
                "pitch": 67,
                "velocity": 40,
                "duration": 0.2522727,
                "tempo": 120.0
            },
            {
                "start_time": 50.8045455,
                "end_time": 51.3181818,
                "pitch": 67,
                "velocity": 40,
                "duration": 0.5136364,
                "tempo": 120.0
            }
        ]
    }
}