{
    "mood": "happy",
    "instruments": {
        "Vibraphone": [
            {
                "start_time": 0.25,
                "end_time": 0.3659091,
                "pitch": 79,
                "velocity": 64,
                "duration": 0.1159091,
                "tempo": 120.0
            },
            {
                "start_time": 0.3840909,
                "end_time": 0.6340909,
                "pitch": 78,
                "velocity": 64,
                "duration": 0.25,
                "tempo": 120.0
            },
            {
                "start_time": 0.65,
                "end_time": 0.7659091,
                "pitch": 76,
                "velocity": 64,
                "duration": 0.1159091,
                "tempo": 120.0
            },
            {
                "start_time": 1.05,
                "end_time": 1.4340909,
                "pitch": 71,
                "velocity": 64,
                "duration": 0.3840909,
                "tempo": 120.0
            },
            {
                "start_time": 1.45,
                "end_time": 1.5659091,
                "pitch": 76,
                "velocity": 64,
                "duration": 0.1159091,
                "tempo": 120.0
            },
            {
                "start_time": 1.5840909,
                "end_time": 1.8409091,
                "pitch": 80,
                "velocity": 64,
                "duration": 0.2568182,
                "tempo": 120.0
            },
            {
                "start_time": 1.8568182,
                "end_time": 1.9772727,
                "pitch": 79,
                "velocity": 64,
                "duration": 0.1204545,
                "tempo": 120.0
            },
            {
                "start_time": 1.9931818,
                "end_time": 2.2386364,
                "pitch": 78,
                "velocity": 64,
                "duration": 0.2454545,
                "tempo": 120.0
            },
            {
                "start_time": 2.2545455,
                "end_time": 2.3704545,
                "pitch": 76,
                "velocity": 64,
                "duration": 0.1159091,
                "tempo": 120.0
            },
            {
                "start_time": 2.6522727,
                "end_time": 3.0431818,
                "pitch": 72,
                "velocity": 64,
                "duration": 0.3909091,
                "tempo": 120.0
            },
            {
                "start_time": 3.0590909,
                "end_time": 3.1795455,
                "pitch": 76,
                "velocity": 64,
                "duration": 0.1204545,
                "tempo": 120.0
            },
            {
                "start_time": 3.1977273,
                "end_time": 3.4409091,
                "pitch": 80,
                "velocity": 64,
                "duration": 0.2431818,
                "tempo": 120.0
            },
            {
                "start_time": 3.4590909,
                "end_time": 3.5727273,
                "pitch": 79,
                "velocity": 64,
                "duration": 0.1136364,
                "tempo": 120.0
            },
            {
                "start_time": 3.5886364,
                "end_time": 3.8386364,
                "pitch": 78,
                "velocity": 64,
                "duration": 0.25,
                "tempo": 120.0
            },
            {
                "start_time": 3.8568182,
                "end_time": 3.9727273,
                "pitch": 76,
                "velocity": 64,
                "duration": 0.1159091,
                "tempo": 120.0
            },
            {
                "start_time": 3.9886364,
                "end_time": 4.2386364,
                "pitch": 73,
                "velocity": 64,
                "duration": 0.25,
                "tempo": 120.0
            },
            {
                "start_time": 4.2568182,
                "end_time": 4.3727273,
                "pitch": 76,
                "velocity": 64,
                "duration": 0.1159091,
                "tempo": 120.0
            },
            {
                "start_time": 4.3886364,
                "end_time": 4.6454545,
                "pitch": 78,
                "velocity": 64,
                "duration": 0.2568182,
                "tempo": 120.0
            },
            {
                "start_time": 4.6636364,
                "end_time": 4.7136364,
                "pitch": 79,
                "velocity": 64,
                "duration": 0.05,
                "tempo": 120.0
            },
            {
                "start_time": 4.7318182,
                "end_time": 5.9772727,
                "pitch": 80,
                "velocity": 64,
                "duration": 1.2454545,
                "tempo": 120.0
            },
            {
                "start_time": 5.9954545,
                "end_time": 6.3886364,
                "pitch": 78,
                "velocity": 64,
                "duration": 0.3931818,
                "tempo": 120.0
            },
            {
                "start_time": 6.4045455,
                "end_time": 7.0477273,
                "pitch": 73,
                "velocity": 64,
                "duration": 0.6431818,
                "tempo": 120.0
            },
            {
                "start_time": 7.0659091,
                "end_time": 7.5840909,
                "pitch": 76,
                "velocity": 64,
                "duration": 0.5181818,
                "tempo": 120.0
            },
            {
                "start_time": 7.6,
                "end_time": 7.9863636,
                "pitch": 73,
                "velocity": 64,
                "duration": 0.3863636,
                "tempo": 120.0
            },
            {
                "start_time": 8.0022727,
                "end_time": 8.0522727,
                "pitch": 78,
                "velocity": 64,
                "duration": 0.05,
                "tempo": 120.0
            },
            {
                "start_time": 8.0704545,
                "end_time": 8.3886364,
                "pitch": 79,
                "velocity": 64,
                "duration": 0.3181818,
                "tempo": 120.0
            },
            {
                "start_time": 8.4045455,
                "end_time": 8.7909091,
                "pitch": 78,
                "velocity": 64,
                "duration": 0.3863636,
                "tempo": 120.0
            },
            {
                "start_time": 8.8068182,
                "end_time": 9.1909091,
                "pitch": 76,
                "velocity": 64,
                "duration": 0.3840909,
                "tempo": 120.0
            },
            {
                "start_time": 9.2068182,
                "end_time": 9.4636364,
                "pitch": 73,
                "velocity": 64,
                "duration": 0.2568182,
                "tempo": 120.0
            },
            {
                "start_time": 9.4818182,
                "end_time": 9.6022727,
                "pitch": 76,
                "velocity": 64,
                "duration": 0.1204545,
                "tempo": 120.0
            },
            {
                "start_time": 9.6181818,
                "end_time": 9.8636364,
                "pitch": 71,
                "velocity": 64,
                "duration": 0.2454545,
                "tempo": 120.0
            },
            {
                "start_time": 9.8795455,
                "end_time": 10.2613636,
                "pitch": 71,
                "velocity": 64,
                "duration": 0.3818182,
                "tempo": 120.0
            },
            {
                "start_time": 10.2795455,
                "end_time": 10.3977273,
                "pitch": 71,
                "velocity": 64,
                "duration": 0.1181818,
                "tempo": 120.0
            },
            {
                "start_time": 10.4136364,
                "end_time": 10.6659091,
                "pitch": 73,
                "velocity": 64,
                "duration": 0.2522727,
                "tempo": 120.0
            },
            {
                "start_time": 10.6818182,
                "end_time": 11.0659091,
                "pitch": 73,
                "velocity": 64,
                "duration": 0.3840909,
                "tempo": 120.0
            },
            {
                "start_time": 11.0818182,
                "end_time": 11.2,
                "pitch": 73,
                "velocity": 64,
                "duration": 0.1181818,
                "tempo": 120.0
            },
            {
                "start_time": 11.2159091,
                "end_time": 11.4681818,
                "pitch": 75,
                "velocity": 64,
                "duration": 0.2522727,
                "tempo": 120.0
            },
            {
                "start_time": 11.4840909,
                "end_time": 11.875,
                "pitch": 75,
                "velocity": 64,
                "duration": 0.3909091,
                "tempo": 120.0
            },
            {
                "start_time": 11.8931818,
                "end_time": 12.0136364,
                "pitch": 75,
                "velocity": 64,
                "duration": 0.1204545,
                "tempo": 120.0
            },
            {
                "start_time": 12.0295455,
                "end_time": 12.4045455,
                "pitch": 76,
                "velocity": 64,
                "duration": 0.375,
                "tempo": 120.0
            },
            {
                "start_time": 12.4227273,
                "end_time": 12.8159091,
                "pitch": 78,
                "velocity": 64,
                "duration": 0.3931818,
                "tempo": 120.0
            },
            {
                "start_time": 12.8318182,
                "end_time": 13.0818182,
                "pitch": 80,
                "velocity": 64,
                "duration": 0.25,
                "tempo": 120.0
            },
            {
                "start_time": 13.1,
                "end_time": 13.2159091,
                "pitch": 79,
                "velocity": 64,
                "duration": 0.1159091,
                "tempo": 120.0
            },
            {
                "start_time": 13.2318182,
                "end_time": 13.4772727,
                "pitch": 78,
                "velocity": 64,
                "duration": 0.2454545,
                "tempo": 120.0
            },
            {
                "start_time": 13.4931818,
                "end_time": 13.6090909,
                "pitch": 76,
                "velocity": 64,
                "duration": 0.1159091,
                "tempo": 120.0
            },
            {
                "start_time": 13.8931818,
                "end_time": 14.2795455,
                "pitch": 71,
                "velocity": 64,
                "duration": 0.3863636,
                "tempo": 120.0
            },
            {
                "start_time": 14.2954545,
                "end_time": 14.4136364,
                "pitch": 76,
                "velocity": 64,
                "duration": 0.1181818,
                "tempo": 120.0
            },
            {
                "start_time": 14.4295455,
                "end_time": 14.6863636,
                "pitch": 80,
                "velocity": 64,
                "duration": 0.2568182,
                "tempo": 120.0
            },
            {
                "start_time": 14.7045455,
                "end_time": 14.8227273,
                "pitch": 79,
                "velocity": 64,
                "duration": 0.1181818,
                "tempo": 120.0
            },
            {
                "start_time": 14.8409091,
                "end_time": 15.0863636,
                "pitch": 78,
                "velocity": 64,
                "duration": 0.2454545,
                "tempo": 120.0
            },
            {
                "start_time": 15.1022727,
                "end_time": 15.2159091,
                "pitch": 76,
                "velocity": 64,
                "duration": 0.1136364,
                "tempo": 120.0
            },
            {
                "start_time": 15.5022727,
                "end_time": 15.8931818,
                "pitch": 72,
                "velocity": 64,
                "duration": 0.3909091,
                "tempo": 120.0
            },
            {
                "start_time": 15.9090909,
                "end_time": 16.0295455,
                "pitch": 76,
                "velocity": 64,
                "duration": 0.1204545,
                "tempo": 120.0
            },
            {
                "start_time": 16.0454545,
                "end_time": 16.2909091,
                "pitch": 80,
                "velocity": 64,
                "duration": 0.2454545,
                "tempo": 120.0
            },
            {
                "start_time": 16.3068182,
                "end_time": 16.4227273,
                "pitch": 79,
                "velocity": 64,
                "duration": 0.1159091,
                "tempo": 120.0
            },
            {
                "start_time": 16.4386364,
                "end_time": 16.6886364,
                "pitch": 78,
                "velocity": 64,
                "duration": 0.25,
                "tempo": 120.0
            },
            {
                "start_time": 16.7045455,
                "end_time": 16.8227273,
                "pitch": 76,
                "velocity": 64,
                "duration": 0.1181818,
                "tempo": 120.0
            },
            {
                "start_time": 16.8386364,
                "end_time": 17.0909091,
                "pitch": 73,
                "velocity": 64,
                "duration": 0.2522727,
                "tempo": 120.0
            },
            {
                "start_time": 17.1068182,
                "end_time": 17.225,
                "pitch": 76,
                "velocity": 64,
                "duration": 0.1181818,
                "tempo": 120.0
            },
            {
                "start_time": 17.2409091,
                "end_time": 17.4977273,
                "pitch": 78,
                "velocity": 64,
                "duration": 0.2568182,
                "tempo": 120.0
            },
            {
                "start_time": 17.5159091,
                "end_time": 17.5659091,
                "pitch": 79,
                "velocity": 64,
                "duration": 0.05,
                "tempo": 120.0
            },
            {
                "start_time": 17.5840909,
                "end_time": 18.8295455,
                "pitch": 80,
                "velocity": 64,
                "duration": 1.2454545,
                "tempo": 120.0
            },
            {
                "start_time": 18.8477273,
                "end_time": 19.2409091,
                "pitch": 78,
                "velocity": 64,
                "duration": 0.3931818,
                "tempo": 120.0
            },
            {
                "start_time": 19.2568182,
                "end_time": 19.9045455,
                "pitch": 73,
                "velocity": 64,
                "duration": 0.6477273,
                "tempo": 120.0
            },
            {
                "start_time": 19.9227273,
                "end_time": 20.4386364,
                "pitch": 76,
                "velocity": 64,
                "duration": 0.5159091,
                "tempo": 120.0
            },
            {
                "start_time": 20.4545455,
                "end_time": 20.85,
                "pitch": 73,
                "velocity": 64,
                "duration": 0.3954545,
                "tempo": 120.0
            },
            {
                "start_time": 20.8659091,
                "end_time": 20.9159091,
                "pitch": 78,
                "velocity": 64,
                "duration": 0.05,
                "tempo": 120.0
            },
            {
                "start_time": 20.9318182,
                "end_time": 21.2409091,
                "pitch": 79,
                "velocity": 64,
                "duration": 0.3090909,
                "tempo": 120.0
            },
            {
                "start_time": 21.2590909,
                "end_time": 21.6409091,
                "pitch": 78,
                "velocity": 64,
                "duration": 0.3818182,
                "tempo": 120.0
            },
            {
                "start_time": 21.6590909,
                "end_time": 21.9090909,
                "pitch": 76,
                "velocity": 64,
                "duration": 0.25,
                "tempo": 120.0
            },
            {
                "start_time": 21.925,
                "end_time": 22.0409091,
                "pitch": 73,
                "velocity": 64,
                "duration": 0.1159091,
                "tempo": 120.0
            },
            {
                "start_time": 22.0590909,
                "end_time": 22.3090909,
                "pitch": 76,
                "velocity": 64,
                "duration": 0.25,
                "tempo": 120.0
            },
            {
                "start_time": 22.3272727,
                "end_time": 22.4431818,
                "pitch": 78,
                "velocity": 64,
                "duration": 0.1159091,
                "tempo": 120.0
            },
            {
                "start_time": 22.7272727,
                "end_time": 22.8431818,
                "pitch": 83,
                "velocity": 64,
                "duration": 0.1159091,
                "tempo": 120.0
            },
            {
                "start_time": 22.8613636,
                "end_time": 23.1113636,
                "pitch": 85,
                "velocity": 64,
                "duration": 0.25,
                "tempo": 120.0
            },
            {
                "start_time": 23.2636364,
                "end_time": 23.5136364,
                "pitch": 80,
                "velocity": 64,
                "duration": 0.25,
                "tempo": 120.0
            },
            {
                "start_time": 23.5295455,
                "end_time": 23.6477273,
                "pitch": 83,
                "velocity": 64,
                "duration": 0.1181818,
                "tempo": 120.0
            },
            {
                "start_time": 23.9363636,
                "end_time": 24.0568182,
                "pitch": 78,
                "velocity": 64,
                "duration": 0.1204545,
                "tempo": 120.0
            },
            {
                "start_time": 24.075,
                "end_time": 24.3181818,
                "pitch": 79,
                "velocity": 64,
                "duration": 0.2431818,
                "tempo": 120.0
            },
            {
                "start_time": 24.3363636,
                "end_time": 24.45,
                "pitch": 80,
                "velocity": 64,
                "duration": 0.1136364,
                "tempo": 120.0
            },
            {
                "start_time": 24.4659091,
                "end_time": 24.7227273,
                "pitch": 79,
                "velocity": 64,
                "duration": 0.2568182,
                "tempo": 120.0
            },
            {
                "start_time": 24.7409091,
                "end_time": 25.2522727,
                "pitch": 76,
                "velocity": 64,
                "duration": 0.5113636,
                "tempo": 120.0
            },
            {
                "start_time": 25.6795455,
                "end_time": 25.925,
                "pitch": 75,
                "velocity": 64,
                "duration": 0.2454545,
                "tempo": 120.0
            },
            {
                "start_time": 26.0704545,
                "end_time": 26.3272727,
                "pitch": 80,
                "velocity": 64,
                "duration": 0.2568182,
                "tempo": 120.0
            },
            {
                "start_time": 26.4818182,
                "end_time": 26.7272727,
                "pitch": 75,
                "velocity": 64,
                "duration": 0.2454545,
                "tempo": 120.0
            },
            {
                "start_time": 26.875,
                "end_time": 27.125,
                "pitch": 80,
                "velocity": 64,
                "duration": 0.25,
                "tempo": 120.0
            },
            {
                "start_time": 27.2772727,
                "end_time": 27.5272727,
                "pitch": 75,
                "velocity": 64,
                "duration": 0.25,
                "tempo": 120.0
            },
            {
                "start_time": 27.5431818,
                "end_time": 27.6613636,
                "pitch": 80,
                "velocity": 64,
                "duration": 0.1181818,
                "tempo": 120.0
            },
            {
                "start_time": 27.9431818,
                "end_time": 28.3295455,
                "pitch": 75,
                "velocity": 64,
                "duration": 0.3863636,
                "tempo": 120.0
            },
            {
                "start_time": 28.3454545,
                "end_time": 28.4636364,
                "pitch": 75,
                "velocity": 64,
                "duration": 0.1181818,
                "tempo": 120.0
            },
            {
                "start_time": 28.4795455,
                "end_time": 28.7363636,
                "pitch": 76,
                "velocity": 64,
                "duration": 0.2568182,
                "tempo": 120.0
            },
            {
                "start_time": 28.7545455,
                "end_time": 28.8727273,
                "pitch": 78,
                "velocity": 64,
                "duration": 0.1181818,
                "tempo": 120.0
            },
            {
                "start_time": 28.8909091,
                "end_time": 29.1363636,
                "pitch": 76,
                "velocity": 64,
                "duration": 0.2454545,
                "tempo": 120.0
            },
            {
                "start_time": 29.2818182,
                "end_time": 29.5318182,
                "pitch": 75,
                "velocity": 64,
                "duration": 0.25,
                "tempo": 120.0
            },
            {
                "start_time": 29.6818182,
                "end_time": 29.9318182,
                "pitch": 76,
                "velocity": 64,
                "duration": 0.25,
                "tempo": 120.0
            },
            {
                "start_time": 30.0818182,
                "end_time": 30.3340909,
                "pitch": 78,
                "velocity": 64,
                "duration": 0.2522727,
                "tempo": 120.0
            },
            {
                "start_time": 30.4840909,
                "end_time": 30.5340909,
                "pitch": 79,
                "velocity": 64,
                "duration": 0.05,
                "tempo": 120.0
            },
            {
                "start_time": 30.5522727,
                "end_time": 30.7340909,
                "pitch": 80,
                "velocity": 64,
                "duration": 0.1818182,
                "tempo": 120.0
            },
            {
                "start_time": 30.7522727,
                "end_time": 30.8681818,
                "pitch": 76,
                "velocity": 64,
                "duration": 0.1159091,
                "tempo": 120.0
            },
            {
                "start_time": 31.1545455,
                "end_time": 31.6704545,
                "pitch": 73,
                "velocity": 64,
                "duration": 0.5159091,
                "tempo": 120.0
            },
            {
                "start_time": 32.0886364,
                "end_time": 32.3454545,
                "pitch": 75,
                "velocity": 64,
                "duration": 0.2568182,
                "tempo": 120.0
            },
            {
                "start_time": 32.4977273,
                "end_time": 32.75,
                "pitch": 80,
                "velocity": 64,
                "duration": 0.2522727,
                "tempo": 120.0
            },
            {
                "start_time": 32.9022727,
                "end_time": 33.1454545,
                "pitch": 75,
                "velocity": 64,
                "duration": 0.2431818,
                "tempo": 120.0
            },
            {
                "start_time": 33.2931818,
                "end_time": 33.5431818,
                "pitch": 80,
                "velocity": 64,
                "duration": 0.25,
                "tempo": 120.0
            },
            {
                "start_time": 33.6931818,
                "end_time": 33.9431818,
                "pitch": 75,
                "velocity": 64,
                "duration": 0.25,
                "tempo": 120.0
            },
            {
                "start_time": 33.9613636,
                "end_time": 34.0772727,
                "pitch": 80,
                "velocity": 64,
                "duration": 0.1159091,
                "tempo": 120.0
            },
            {
                "start_time": 34.3613636,
                "end_time": 34.4772727,
                "pitch": 83,
                "velocity": 64,
                "duration": 0.1159091,
                "tempo": 120.0
            },
            {
                "start_time": 34.7613636,
                "end_time": 34.8795455,
                "pitch": 85,
                "velocity": 64,
                "duration": 0.1181818,
                "tempo": 120.0
            },
            {
                "start_time": 34.8954545,
                "end_time": 35.1522727,
                "pitch": 87,
                "velocity": 64,
                "duration": 0.2568182,
                "tempo": 120.0
            },
            {
                "start_time": 35.3068182,
                "end_time": 36.3545455,
                "pitch": 85,
                "velocity": 64,
                "duration": 1.0477273,
                "tempo": 120.0
            },
            {
                "start_time": 36.3704545,
                "end_time": 36.4863636,
                "pitch": 83,
                "velocity": 64,
                "duration": 0.1159091,
                "tempo": 120.0
            },
            {
                "start_time": 36.5022727,
                "end_time": 36.7545455,
                "pitch": 85,
                "velocity": 64,
                "duration": 0.2522727,
                "tempo": 120.0
            },
            {
                "start_time": 36.7704545,
                "end_time": 36.8886364,
                "pitch": 80,
                "velocity": 64,
                "duration": 0.1181818,
                "tempo": 120.0
            },
            {
                "start_time": 37.1704545,
                "end_time": 37.2886364,
                "pitch": 80,
                "velocity": 64,
                "duration": 0.1181818,
                "tempo": 120.0
            },
            {
                "start_time": 37.5704545,
                "end_time": 37.6886364,
                "pitch": 83,
                "velocity": 64,
                "duration": 0.1181818,
                "tempo": 120.0
            },
            {
                "start_time": 37.7045455,
                "end_time": 37.9545455,
                "pitch": 85,
                "velocity": 64,
                "duration": 0.25,
                "tempo": 120.0
            },
            {
                "start_time": 37.9704545,
                "end_time": 38.0886364,
                "pitch": 83,
                "velocity": 64,
                "duration": 0.1181818,
                "tempo": 120.0
            },
            {
                "start_time": 38.1045455,
                "end_time": 38.4886364,
                "pitch": 80,
                "velocity": 64,
                "duration": 0.3840909,
                "tempo": 120.0
            },
            {
                "start_time": 38.5045455,
                "end_time": 39.1659091,
                "pitch": 78,
                "velocity": 64,
                "duration": 0.6613636,
                "tempo": 120.0
            },
            {
                "start_time": 39.1818182,
                "end_time": 39.6909091,
                "pitch": 76,
                "velocity": 64,
                "duration": 0.5090909,
                "tempo": 120.0
            },
            {
                "start_time": 39.7068182,
                "end_time": 39.9636364,
                "pitch": 73,
                "velocity": 64,
                "duration": 0.2568182,
                "tempo": 120.0
            },
            {
                "start_time": 39.9818182,
                "end_time": 40.1,
                "pitch": 76,
                "velocity": 64,
                "duration": 0.1181818,
                "tempo": 120.0
            },
            {
                "start_time": 40.1181818,
                "end_time": 40.3636364,
                "pitch": 71,
                "velocity": 64,
                "duration": 0.2454545,
                "tempo": 120.0
            },
            {
                "start_time": 40.5113636,
                "end_time": 40.7659091,
                "pitch": 73,
                "velocity": 64,
                "duration": 0.2545455,
                "tempo": 120.0
            },
            {
                "start_time": 40.9204545,
                "end_time": 41.1659091,
                "pitch": 76,
                "velocity": 64,
                "duration": 0.2454545,
                "tempo": 120.0
            },
            {
                "start_time": 41.3136364,
                "end_time": 41.5636364,
                "pitch": 78,
                "velocity": 64,
                "duration": 0.25,
                "tempo": 120.0
            },
            {
                "start_time": 41.6795455,
                "end_time": 41.7295455,
                "pitch": 79,
                "velocity": 64,
                "duration": 0.05,
                "tempo": 120.0
            },
            {
                "start_time": 41.7477273,
                "end_time": 41.9704545,
                "pitch": 79,
                "velocity": 64,
                "duration": 0.2227273,
                "tempo": 120.0
            },
            {
                "start_time": 41.9863636,
                "end_time": 42.2409091,
                "pitch": 79,
                "velocity": 64,
                "duration": 0.2545455,
                "tempo": 120.0
            },
            {
                "start_time": 42.2568182,
                "end_time": 42.5068182,
                "pitch": 79,
                "velocity": 64,
                "duration": 0.25,
                "tempo": 120.0
            },
            {
                "start_time": 42.525,
                "end_time": 42.775,
                "pitch": 79,
                "velocity": 64,
                "duration": 0.25,
                "tempo": 120.0
            },
            {
                "start_time": 42.7909091,
                "end_time": 43.0409091,
                "pitch": 79,
                "velocity": 64,
                "duration": 0.25,
                "tempo": 120.0
            },
            {
                "start_time": 43.1909091,
                "end_time": 43.3068182,
                "pitch": 78,
                "velocity": 64,
                "duration": 0.1159091,
                "tempo": 120.0
            },
            {
                "start_time": 43.3227273,
                "end_time": 44.9022727,
                "pitch": 76,
                "velocity": 64,
                "duration": 1.5795455,
                "tempo": 120.0
            },
            {
                "start_time": 45.7181818,
                "end_time": 46.5113636,
                "pitch": 83,
                "velocity": 64,
                "duration": 0.7931818,
                "tempo": 120.0
            },
            {
                "start_time": 46.5295455,
                "end_time": 46.5454545,
                "pitch": 80,
                "velocity": 64,
                "duration": 0.0159091,
                "tempo": 120.0
            }
        ],
        "Acoustic Bass": [
            {
                "start_time": 0.3840909,
                "end_time": 0.7659091,
                "pitch": 44,
                "velocity": 40,
                "duration": 0.3818182,
                "tempo": 120.0
            },
            {
                "start_time": 0.7840909,
                "end_time": 1.1659091,
                "pitch": 47,
                "velocity": 40,
                "duration": 0.3818182,
                "tempo": 120.0
            },
            {
                "start_time": 1.1840909,
                "end_time": 1.4340909,
                "pitch": 44,
                "velocity": 40,
                "duration": 0.25,
                "tempo": 120.0
            },
            {
                "start_time": 1.45,
                "end_time": 1.8409091,
                "pitch": 40,
                "velocity": 40,
                "duration": 0.3909091,
                "tempo": 120.0
            },
            {
                "start_time": 1.8568182,
                "end_time": 1.9772727,
                "pitch": 40,
                "velocity": 40,
                "duration": 0.1204545,
                "tempo": 120.0
            },
            {
                "start_time": 1.9931818,
                "end_time": 2.3704545,
                "pitch": 44,
                "velocity": 40,
                "duration": 0.3772727,
                "tempo": 120.0
            },
            {
                "start_time": 2.3863636,
                "end_time": 2.7704545,
                "pitch": 48,
                "velocity": 40,
                "duration": 0.3840909,
                "tempo": 120.0
            },
            {
                "start_time": 2.7863636,
                "end_time": 3.1795455,
                "pitch": 44,
                "velocity": 40,
                "duration": 0.3931818,
                "tempo": 120.0
            },
            {
                "start_time": 3.1977273,
                "end_time": 3.5727273,
                "pitch": 40,
                "velocity": 40,
                "duration": 0.375,
                "tempo": 120.0
            },
            {
                "start_time": 3.5886364,
                "end_time": 3.9727273,
                "pitch": 44,
                "velocity": 40,
                "duration": 0.3840909,
                "tempo": 120.0
            },
            {
                "start_time": 3.9886364,
                "end_time": 4.3727273,
                "pitch": 49,
                "velocity": 40,
                "duration": 0.3840909,
                "tempo": 120.0
            },
            {
                "start_time": 4.3886364,
                "end_time": 4.6454545,
                "pitch": 44,
                "velocity": 40,
                "duration": 0.2568182,
                "tempo": 120.0
            },
            {
                "start_time": 4.6636364,
                "end_time": 5.0454545,
                "pitch": 52,
                "velocity": 40,
                "duration": 0.3818182,
                "tempo": 120.0
            },
            {
                "start_time": 5.0613636,
                "end_time": 5.175,
                "pitch": 52,
                "velocity": 40,
                "duration": 0.1136364,
                "tempo": 120.0
            },
            {
                "start_time": 5.1909091,
                "end_time": 5.5863636,
                "pitch": 49,
                "velocity": 40,
                "duration": 0.3954545,
                "tempo": 120.0
            },
            {
                "start_time": 5.6022727,
                "end_time": 5.9772727,
                "pitch": 44,
                "velocity": 40,
                "duration": 0.375,
                "tempo": 120.0
            },
            {
                "start_time": 5.9954545,
                "end_time": 6.3886364,
                "pitch": 40,
                "velocity": 40,
                "duration": 0.3931818,
                "tempo": 120.0
            },
            {
                "start_time": 6.4045455,
                "end_time": 6.7818182,
                "pitch": 45,
                "velocity": 40,
                "duration": 0.3772727,
                "tempo": 120.0
            },
            {
                "start_time": 6.7977273,
                "end_time": 7.1840909,
                "pitch": 49,
                "velocity": 40,
                "duration": 0.3863636,
                "tempo": 120.0
            },
            {
                "start_time": 7.2,
                "end_time": 7.5840909,
                "pitch": 52,
                "velocity": 40,
                "duration": 0.3840909,
                "tempo": 120.0
            },
            {
                "start_time": 7.6,
                "end_time": 7.8522727,
                "pitch": 49,
                "velocity": 40,
                "duration": 0.2522727,
                "tempo": 120.0
            },
            {
                "start_time": 7.8681818,
                "end_time": 8.2545455,
                "pitch": 46,
                "velocity": 40,
                "duration": 0.3863636,
                "tempo": 120.0
            },
            {
                "start_time": 8.2704545,
                "end_time": 8.3886364,
                "pitch": 46,
                "velocity": 40,
                "duration": 0.1181818,
                "tempo": 120.0
            },
            {
                "start_time": 8.4045455,
                "end_time": 8.7909091,
                "pitch": 49,
                "velocity": 40,
                "duration": 0.3863636,
                "tempo": 120.0
            },
            {
                "start_time": 8.8068182,
                "end_time": 9.1909091,
                "pitch": 54,
                "velocity": 40,
                "duration": 0.3840909,
                "tempo": 120.0
            },
            {
                "start_time": 9.2068182,
                "end_time": 9.6022727,
                "pitch": 52,
                "velocity": 40,
                "duration": 0.3954545,
                "tempo": 120.0
            },
            {
                "start_time": 9.6181818,
                "end_time": 9.8636364,
                "pitch": 51,
                "velocity": 40,
                "duration": 0.2454545,
                "tempo": 120.0
            },
            {
                "start_time": 9.8795455,
                "end_time": 9.9954545,
                "pitch": 51,
                "velocity": 40,
                "duration": 0.1159091,
                "tempo": 120.0
            },
            {
                "start_time": 10.0113636,
                "end_time": 10.3977273,
                "pitch": 49,
                "velocity": 40,
                "duration": 0.3863636,
                "tempo": 120.0
            },
            {
                "start_time": 10.4136364,
                "end_time": 10.8,
                "pitch": 47,
                "velocity": 40,
                "duration": 0.3863636,
                "tempo": 120.0
            },
            {
                "start_time": 10.8159091,
                "end_time": 11.2,
                "pitch": 45,
                "velocity": 40,
                "duration": 0.3840909,
                "tempo": 120.0
            },
            {
                "start_time": 11.2159091,
                "end_time": 11.6022727,
                "pitch": 44,
                "velocity": 40,
                "duration": 0.3863636,
                "tempo": 120.0
            },
            {
                "start_time": 11.6181818,
                "end_time": 12.0136364,
                "pitch": 42,
                "velocity": 40,
                "duration": 0.3954545,
                "tempo": 120.0
            },
            {
                "start_time": 12.0295455,
                "end_time": 12.4045455,
                "pitch": 40,
                "velocity": 40,
                "duration": 0.375,
                "tempo": 120.0
            },
            {
                "start_time": 12.4227273,
                "end_time": 12.8159091,
                "pitch": 39,
                "velocity": 40,
                "duration": 0.3931818,
                "tempo": 120.0
            },
            {
                "start_time": 12.8318182,
                "end_time": 13.2159091,
                "pitch": 40,
                "velocity": 40,
                "duration": 0.3840909,
                "tempo": 120.0
            },
            {
                "start_time": 13.2318182,
                "end_time": 13.6090909,
                "pitch": 44,
                "velocity": 40,
                "duration": 0.3772727,
                "tempo": 120.0
            },
            {
                "start_time": 13.625,
                "end_time": 14.0113636,
                "pitch": 47,
                "velocity": 40,
                "duration": 0.3863636,
                "tempo": 120.0
            },
            {
                "start_time": 14.0272727,
                "end_time": 14.2795455,
                "pitch": 44,
                "velocity": 40,
                "duration": 0.2522727,
                "tempo": 120.0
            },
            {
                "start_time": 14.2954545,
                "end_time": 14.6863636,
                "pitch": 40,
                "velocity": 40,
                "duration": 0.3909091,
                "tempo": 120.0
            },
            {
                "start_time": 14.7045455,
                "end_time": 14.8227273,
                "pitch": 40,
                "velocity": 40,
                "duration": 0.1181818,
                "tempo": 120.0
            },
            {
                "start_time": 14.8409091,
                "end_time": 15.2159091,
                "pitch": 44,
                "velocity": 40,
                "duration": 0.375,
                "tempo": 120.0
            },
            {
                "start_time": 15.2318182,
                "end_time": 15.6181818,
                "pitch": 48,
                "velocity": 40,
                "duration": 0.3863636,
                "tempo": 120.0
            },
            {
                "start_time": 15.6363636,
                "end_time": 16.0295455,
                "pitch": 44,
                "velocity": 40,
                "duration": 0.3931818,
                "tempo": 120.0
            },
            {
                "start_time": 16.0454545,
                "end_time": 16.4227273,
                "pitch": 40,
                "velocity": 40,
                "duration": 0.3772727,
                "tempo": 120.0
            },
            {
                "start_time": 16.4386364,
                "end_time": 16.8227273,
                "pitch": 44,
                "velocity": 40,
                "duration": 0.3840909,
                "tempo": 120.0
            },
            {
                "start_time": 16.8386364,
                "end_time": 17.225,
                "pitch": 49,
                "velocity": 40,
                "duration": 0.3863636,
                "tempo": 120.0
            },
            {
                "start_time": 17.2409091,
                "end_time": 17.4977273,
                "pitch": 44,
                "velocity": 40,
                "duration": 0.2568182,
                "tempo": 120.0
            },
            {
                "start_time": 17.5159091,
                "end_time": 17.8977273,
                "pitch": 52,
                "velocity": 40,
                "duration": 0.3818182,
                "tempo": 120.0
            },
            {
                "start_time": 17.9136364,
                "end_time": 18.0272727,
                "pitch": 52,
                "velocity": 40,
                "duration": 0.1136364,
                "tempo": 120.0
            },
            {
                "start_time": 18.0431818,
                "end_time": 18.4295455,
                "pitch": 49,
                "velocity": 40,
                "duration": 0.3863636,
                "tempo": 120.0
            },
            {
                "start_time": 18.4477273,
                "end_time": 18.8295455,
                "pitch": 44,
                "velocity": 40,
                "duration": 0.3818182,
                "tempo": 120.0
            },
            {
                "start_time": 18.8477273,
                "end_time": 19.2409091,
                "pitch": 40,
                "velocity": 40,
                "duration": 0.3931818,
                "tempo": 120.0
            },
            {
                "start_time": 19.2568182,
                "end_time": 19.6431818,
                "pitch": 45,
                "velocity": 40,
                "duration": 0.3863636,
                "tempo": 120.0
            },
            {
                "start_time": 19.6613636,
                "end_time": 20.0363636,
                "pitch": 49,
                "velocity": 40,
                "duration": 0.375,
                "tempo": 120.0
            },
            {
                "start_time": 20.0522727,
                "end_time": 20.4386364,
                "pitch": 52,
                "velocity": 40,
                "duration": 0.3863636,
                "tempo": 120.0
            },
            {
                "start_time": 20.4545455,
                "end_time": 20.7113636,
                "pitch": 49,
                "velocity": 40,
                "duration": 0.2568182,
                "tempo": 120.0
            },
            {
                "start_time": 20.7295455,
                "end_time": 21.1113636,
                "pitch": 46,
                "velocity": 40,
                "duration": 0.3818182,
                "tempo": 120.0
            },
            {
                "start_time": 21.1272727,
                "end_time": 21.2409091,
                "pitch": 47,
                "velocity": 40,
                "duration": 0.1136364,
                "tempo": 120.0
            },
            {
                "start_time": 21.2590909,
                "end_time": 21.6409091,
                "pitch": 51,
                "velocity": 40,
                "duration": 0.3818182,
                "tempo": 120.0
            },
            {
                "start_time": 21.6590909,
                "end_time": 22.0409091,
                "pitch": 54,
                "velocity": 40,
                "duration": 0.3818182,
                "tempo": 120.0
            },
            {
                "start_time": 22.0590909,
                "end_time": 22.4431818,
                "pitch": 51,
                "velocity": 40,
                "duration": 0.3840909,
                "tempo": 120.0
            },
            {
                "start_time": 22.4613636,
                "end_time": 22.8431818,
                "pitch": 52,
                "velocity": 40,
                "duration": 0.3818182,
                "tempo": 120.0
            },
            {
                "start_time": 22.8613636,
                "end_time": 23.2477273,
                "pitch": 47,
                "velocity": 40,
                "duration": 0.3863636,
                "tempo": 120.0
            },
            {
                "start_time": 23.2636364,
                "end_time": 23.5136364,
                "pitch": 44,
                "velocity": 40,
                "duration": 0.25,
                "tempo": 120.0
            },
            {
                "start_time": 23.5295455,
                "end_time": 23.6477273,
                "pitch": 47,
                "velocity": 40,
                "duration": 0.1181818,
                "tempo": 120.0
            },
            {
                "start_time": 23.6636364,
                "end_time": 23.9204545,
                "pitch": 44,
                "velocity": 40,
                "duration": 0.2568182,
                "tempo": 120.0
            },
            {
                "start_time": 23.9363636,
                "end_time": 24.3181818,
                "pitch": 40,
                "velocity": 40,
                "duration": 0.3818182,
                "tempo": 120.0
            },
            {
                "start_time": 24.3363636,
                "end_time": 24.8590909,
                "pitch": 40,
                "velocity": 40,
                "duration": 0.5227273,
                "tempo": 120.0
            },
            {
                "start_time": 24.8772727,
                "end_time": 25.2522727,
                "pitch": 42,
                "velocity": 40,
                "duration": 0.375,
                "tempo": 120.0
            },
            {
                "start_time": 25.2681818,
                "end_time": 25.6613636,
                "pitch": 43,
                "velocity": 40,
                "duration": 0.3931818,
                "tempo": 120.0
            },
            {
                "start_time": 25.6795455,
                "end_time": 26.0545455,
                "pitch": 44,
                "velocity": 40,
                "duration": 0.375,
                "tempo": 120.0
            },
            {
                "start_time": 26.0704545,
                "end_time": 26.4659091,
                "pitch": 44,
                "velocity": 40,
                "duration": 0.3954545,
                "tempo": 120.0
            },
            {
                "start_time": 26.4818182,
                "end_time": 26.8568182,
                "pitch": 48,
                "velocity": 40,
                "duration": 0.375,
                "tempo": 120.0
            },
            {
                "start_time": 26.875,
                "end_time": 27.2590909,
                "pitch": 48,
                "velocity": 40,
                "duration": 0.3840909,
                "tempo": 120.0
            },
            {
                "start_time": 27.2772727,
                "end_time": 27.6613636,
                "pitch": 51,
                "velocity": 40,
                "duration": 0.3840909,
                "tempo": 120.0
            },
            {
                "start_time": 27.6772727,
                "end_time": 28.0613636,
                "pitch": 51,
                "velocity": 40,
                "duration": 0.3840909,
                "tempo": 120.0
            },
            {
                "start_time": 28.0772727,
                "end_time": 28.3295455,
                "pitch": 48,
                "velocity": 40,
                "duration": 0.2522727,
                "tempo": 120.0
            },
            {
                "start_time": 28.3454545,
                "end_time": 28.4636364,
                "pitch": 56,
                "velocity": 40,
                "duration": 0.1181818,
                "tempo": 120.0
            },
            {
                "start_time": 28.4795455,
                "end_time": 28.7363636,
                "pitch": 51,
                "velocity": 40,
                "duration": 0.2568182,
                "tempo": 120.0
            },
            {
                "start_time": 28.7545455,
                "end_time": 28.8727273,
                "pitch": 48,
                "velocity": 40,
                "duration": 0.1181818,
                "tempo": 120.0
            },
            {
                "start_time": 28.8909091,
                "end_time": 29.2659091,
                "pitch": 49,
                "velocity": 40,
                "duration": 0.375,
                "tempo": 120.0
            },
            {
                "start_time": 29.2818182,
                "end_time": 29.6659091,
                "pitch": 49,
                "velocity": 40,
                "duration": 0.3840909,
                "tempo": 120.0
            },
            {
                "start_time": 29.6818182,
                "end_time": 30.0659091,
                "pitch": 44,
                "velocity": 40,
                "duration": 0.3840909,
                "tempo": 120.0
            },
            {
                "start_time": 30.0818182,
                "end_time": 30.4681818,
                "pitch": 44,
                "velocity": 40,
                "duration": 0.3863636,
                "tempo": 120.0
            },
            {
                "start_time": 30.4840909,
                "end_time": 30.7340909,
                "pitch": 40,
                "velocity": 40,
                "duration": 0.25,
                "tempo": 120.0
            },
            {
                "start_time": 30.7522727,
                "end_time": 30.8681818,
                "pitch": 44,
                "velocity": 40,
                "duration": 0.1159091,
                "tempo": 120.0
            },
            {
                "start_time": 30.8863636,
                "end_time": 31.1363636,
                "pitch": 40,
                "velocity": 40,
                "duration": 0.25,
                "tempo": 120.0
            },
            {
                "start_time": 31.2886364,
                "end_time": 32.0704545,
                "pitch": 37,
                "velocity": 40,
                "duration": 0.7818182,
                "tempo": 120.0
            },
            {
                "start_time": 32.0886364,
                "end_time": 32.4818182,
                "pitch": 44,
                "velocity": 40,
                "duration": 0.3931818,
                "tempo": 120.0
            },
            {
                "start_time": 32.4977273,
                "end_time": 32.8840909,
                "pitch": 44,
                "velocity": 40,
                "duration": 0.3863636,
                "tempo": 120.0
            },
            {
                "start_time": 32.9022727,
                "end_time": 33.2772727,
                "pitch": 48,
                "velocity": 40,
                "duration": 0.375,
                "tempo": 120.0
            },
            {
                "start_time": 33.2931818,
                "end_time": 33.6772727,
                "pitch": 48,
                "velocity": 40,
                "duration": 0.3840909,
                "tempo": 120.0
            },
            {
                "start_time": 33.6931818,
                "end_time": 34.0772727,
                "pitch": 51,
                "velocity": 40,
                "duration": 0.3840909,
                "tempo": 120.0
            },
            {
                "start_time": 34.0931818,
                "end_time": 34.4772727,
                "pitch": 51,
                "velocity": 40,
                "duration": 0.3840909,
                "tempo": 120.0
            },
            {
                "start_time": 34.4931818,
                "end_time": 34.7454545,
                "pitch": 48,
                "velocity": 40,
                "duration": 0.2522727,
                "tempo": 120.0
            },
            {
                "start_time": 34.7613636,
                "end_time": 34.8795455,
                "pitch": 56,
                "velocity": 40,
                "duration": 0.1181818,
                "tempo": 120.0
            },
            {
                "start_time": 34.8954545,
                "end_time": 35.1522727,
                "pitch": 51,
                "velocity": 40,
                "duration": 0.2568182,
                "tempo": 120.0
            },
            {
                "start_time": 35.1704545,
                "end_time": 35.2909091,
                "pitch": 48,
                "velocity": 40,
                "duration": 0.1204545,
                "tempo": 120.0
            },
            {
                "start_time": 35.3068182,
                "end_time": 35.6818182,
                "pitch": 49,
                "velocity": 40,
                "duration": 0.375,
                "tempo": 120.0
            },
            {
                "start_time": 35.7,
                "end_time": 36.0931818,
                "pitch": 49,
                "velocity": 40,
                "duration": 0.3931818,
                "tempo": 120.0
            },
            {
                "start_time": 36.1090909,
                "end_time": 36.4863636,
                "pitch": 44,
                "velocity": 40,
                "duration": 0.3772727,
                "tempo": 120.0
            },
            {
                "start_time": 36.5022727,
                "end_time": 36.8886364,
                "pitch": 44,
                "velocity": 40,
                "duration": 0.3863636,
                "tempo": 120.0
            },
            {
                "start_time": 36.9045455,
                "end_time": 37.2886364,
                "pitch": 40,
                "velocity": 40,
                "duration": 0.3840909,
                "tempo": 120.0
            },
            {
                "start_time": 37.3045455,
                "end_time": 37.6886364,
                "pitch": 40,
                "velocity": 40,
                "duration": 0.3840909,
                "tempo": 120.0
            },
            {
                "start_time": 37.7045455,
                "end_time": 38.0886364,
                "pitch": 44,
                "velocity": 40,
                "duration": 0.3840909,
                "tempo": 120.0
            },
            {
                "start_time": 38.1045455,
                "end_time": 38.4886364,
                "pitch": 44,
                "velocity": 40,
                "duration": 0.3840909,
                "tempo": 120.0
            },
            {
                "start_time": 38.5045455,
                "end_time": 38.8977273,
                "pitch": 45,
                "velocity": 40,
                "duration": 0.3931818,
                "tempo": 120.0
            },
            {
                "start_time": 38.9159091,
                "end_time": 39.2977273,
                "pitch": 45,
                "velocity": 40,
                "duration": 0.3818182,
                "tempo": 120.0
            },
            {
                "start_time": 39.3159091,
                "end_time": 39.6909091,
                "pitch": 49,
                "velocity": 40,
                "duration": 0.375,
                "tempo": 120.0
            },
            {
                "start_time": 39.7068182,
                "end_time": 40.1,
                "pitch": 52,
                "velocity": 40,
                "duration": 0.3931818,
                "tempo": 120.0
            },
            {
                "start_time": 40.1181818,
                "end_time": 40.4931818,
                "pitch": 47,
                "velocity": 40,
                "duration": 0.375,
                "tempo": 120.0
            },
            {
                "start_time": 40.5113636,
                "end_time": 40.9045455,
                "pitch": 47,
                "velocity": 40,
                "duration": 0.3931818,
                "tempo": 120.0
            },
            {
                "start_time": 40.9204545,
                "end_time": 41.2954545,
                "pitch": 51,
                "velocity": 40,
                "duration": 0.375,
                "tempo": 120.0
            },
            {
                "start_time": 41.3136364,
                "end_time": 41.6954545,
                "pitch": 54,
                "velocity": 40,
                "duration": 0.3818182,
                "tempo": 120.0
            },
            {
                "start_time": 41.7136364,
                "end_time": 41.9704545,
                "pitch": 55,
                "velocity": 40,
                "duration": 0.2568182,
                "tempo": 120.0
            },
            {
                "start_time": 41.9863636,
                "end_time": 42.2409091,
                "pitch": 55,
                "velocity": 40,
                "duration": 0.2545455,
                "tempo": 120.0
            },
            {
                "start_time": 42.2568182,
                "end_time": 42.5068182,
                "pitch": 55,
                "velocity": 40,
                "duration": 0.25,
                "tempo": 120.0
            },
            {
                "start_time": 42.525,
                "end_time": 42.775,
                "pitch": 55,
                "velocity": 40,
                "duration": 0.25,
                "tempo": 120.0
            },
            {
                "start_time": 42.7909091,
                "end_time": 43.0409091,
                "pitch": 55,
                "velocity": 40,
                "duration": 0.25,
                "tempo": 120.0
            },
            {
                "start_time": 43.1909091,
                "end_time": 43.3068182,
                "pitch": 54,
                "velocity": 40,
                "duration": 0.1159091,
                "tempo": 120.0
            },
            {
                "start_time": 43.3227273,
                "end_time": 44.9022727,
                "pitch": 52,
                "velocity": 40,
                "duration": 1.5795455,
                "tempo": 120.0
            },
            {
                "start_time": 45.7181818,
                "end_time": 45.9681818,
                "pitch": 47,
                "velocity": 40,
                "duration": 0.25,
                "tempo": 120.0
            },
            {
                "start_time": 45.9863636,
                "end_time": 46.1022727,
                "pitch": 47,
                "velocity": 40,
                "duration": 0.1159091,
                "tempo": 120.0
            },
            {
                "start_time": 46.1181818,
                "end_time": 46.375,
                "pitch": 49,
                "velocity": 40,
                "duration": 0.2568182,
                "tempo": 120.0
            },
            {
                "start_time": 46.3931818,
                "end_time": 46.5113636,
                "pitch": 51,
                "velocity": 40,
                "duration": 0.1181818,
                "tempo": 120.0
            },
            {
                "start_time": 46.5295455,
                "end_time": 46.5454545,
                "pitch": 40,
                "velocity": 40,
                "duration": 0.0159091,
                "tempo": 120.0
            }
        ],
        "Acoustic Grand Piano": [
            {
                "start_time": 1.05,
                "end_time": 1.5659091,
                "pitch": 71,
                "velocity": 40,
                "duration": 0.5159091,
                "tempo": 120.0
            },
            {
                "start_time": 1.5840909,
                "end_time": 1.8409091,
                "pitch": 72,
                "velocity": 40,
                "duration": 0.2568182,
                "tempo": 120.0
            },
            {
                "start_time": 2.6522727,
                "end_time": 3.1795455,
                "pitch": 72,
                "velocity": 40,
                "duration": 0.5272727,
                "tempo": 120.0
            },
            {
                "start_time": 3.1977273,
                "end_time": 3.4409091,
                "pitch": 73,
                "velocity": 40,
                "duration": 0.2431818,
                "tempo": 120.0
            },
            {
                "start_time": 4.2568182,
                "end_time": 4.3727273,
                "pitch": 73,
                "velocity": 40,
                "duration": 0.1159091,
                "tempo": 120.0
            },
            {
                "start_time": 4.6636364,
                "end_time": 5.5863636,
                "pitch": 73,
                "velocity": 40,
                "duration": 0.9227273,
                "tempo": 120.0
            },
            {
                "start_time": 5.6022727,
                "end_time": 5.9772727,
                "pitch": 73,
                "velocity": 40,
                "duration": 0.375,
                "tempo": 120.0
            },
            {
                "start_time": 5.9954545,
                "end_time": 6.3886364,
                "pitch": 71,
                "velocity": 40,
                "duration": 0.3931818,
                "tempo": 120.0
            },
            {
                "start_time": 6.4045455,
                "end_time": 7.0477273,
                "pitch": 69,
                "velocity": 40,
                "duration": 0.6431818,
                "tempo": 120.0
            },
            {
                "start_time": 7.0659091,
                "end_time": 7.9863636,
                "pitch": 69,
                "velocity": 40,
                "duration": 0.9204545,
                "tempo": 120.0
            },
            {
                "start_time": 8.0022727,
                "end_time": 8.6568182,
                "pitch": 70,
                "velocity": 40,
                "duration": 0.6545455,
                "tempo": 120.0
            },
            {
                "start_time": 8.6727273,
                "end_time": 9.6022727,
                "pitch": 70,
                "velocity": 40,
                "duration": 0.9295455,
                "tempo": 120.0
            },
            {
                "start_time": 9.6181818,
                "end_time": 10.2613636,
                "pitch": 71,
                "velocity": 40,
                "duration": 0.6431818,
                "tempo": 120.0
            },
            {
                "start_time": 10.2795455,
                "end_time": 11.2,
                "pitch": 71,
                "velocity": 40,
                "duration": 0.9204545,
                "tempo": 120.0
            },
            {
                "start_time": 11.2159091,
                "end_time": 12.0136364,
                "pitch": 71,
                "velocity": 40,
                "duration": 0.7977273,
                "tempo": 120.0
            },
            {
                "start_time": 12.0295455,
                "end_time": 12.275,
                "pitch": 71,
                "velocity": 40,
                "duration": 0.2454545,
                "tempo": 120.0
            },
            {
                "start_time": 12.2909091,
                "end_time": 12.4045455,
                "pitch": 71,
                "velocity": 40,
                "duration": 0.1136364,
                "tempo": 120.0
            },
            {
                "start_time": 12.85,
                "end_time": 13.0818182,
                "pitch": 71,
                "velocity": 40,
                "duration": 0.2318182,
                "tempo": 120.0
            },
            {
                "start_time": 13.8931818,
                "end_time": 14.4136364,
                "pitch": 71,
                "velocity": 40,
                "duration": 0.5204545,
                "tempo": 120.0
            },
            {
                "start_time": 14.4295455,
                "end_time": 14.6863636,
                "pitch": 72,
                "velocity": 40,
                "duration": 0.2568182,
                "tempo": 120.0
            },
            {
                "start_time": 15.5022727,
                "end_time": 16.0295455,
                "pitch": 72,
                "velocity": 40,
                "duration": 0.5272727,
                "tempo": 120.0
            },
            {
                "start_time": 16.0454545,
                "end_time": 16.2909091,
                "pitch": 73,
                "velocity": 40,
                "duration": 0.2454545,
                "tempo": 120.0
            },
            {
                "start_time": 17.1068182,
                "end_time": 17.225,
                "pitch": 73,
                "velocity": 40,
                "duration": 0.1181818,
                "tempo": 120.0
            },
            {
                "start_time": 17.5159091,
                "end_time": 18.4295455,
                "pitch": 73,
                "velocity": 40,
                "duration": 0.9136364,
                "tempo": 120.0
            },
            {
                "start_time": 18.4477273,
                "end_time": 18.8295455,
                "pitch": 73,
                "velocity": 40,
                "duration": 0.3818182,
                "tempo": 120.0
            },
            {
                "start_time": 18.8477273,
                "end_time": 19.2409091,
                "pitch": 71,
                "velocity": 40,
                "duration": 0.3931818,
                "tempo": 120.0
            },
            {
                "start_time": 19.2568182,
                "end_time": 19.9045455,
                "pitch": 69,
                "velocity": 40,
                "duration": 0.6477273,
                "tempo": 120.0
            },
            {
                "start_time": 19.9227273,
                "end_time": 20.85,
                "pitch": 69,
                "velocity": 40,
                "duration": 0.9272727,
                "tempo": 120.0
            },
            {
                "start_time": 20.8659091,
                "end_time": 21.1113636,
                "pitch": 70,
                "velocity": 40,
                "duration": 0.2454545,
                "tempo": 120.0
            },
            {
                "start_time": 21.1272727,
                "end_time": 21.2409091,
                "pitch": 70,
                "velocity": 40,
                "duration": 0.1136364,
                "tempo": 120.0
            },
            {
                "start_time": 21.525,
                "end_time": 22.4431818,
                "pitch": 71,
                "velocity": 40,
                "duration": 0.9181818,
                "tempo": 120.0
            },
            {
                "start_time": 22.4613636,
                "end_time": 22.8431818,
                "pitch": 71,
                "velocity": 40,
                "duration": 0.3818182,
                "tempo": 120.0
            },
            {
                "start_time": 22.8613636,
                "end_time": 23.2477273,
                "pitch": 71,
                "velocity": 40,
                "duration": 0.3863636,
                "tempo": 120.0
            },
            {
                "start_time": 23.2636364,
                "end_time": 23.5136364,
                "pitch": 73,
                "velocity": 40,
                "duration": 0.25,
                "tempo": 120.0
            },
            {
                "start_time": 23.5295455,
                "end_time": 23.6477273,
                "pitch": 73,
                "velocity": 40,
                "duration": 0.1181818,
                "tempo": 120.0
            },
            {
                "start_time": 23.9363636,
                "end_time": 24.8590909,
                "pitch": 71,
                "velocity": 40,
                "duration": 0.9227273,
                "tempo": 120.0
            },
            {
                "start_time": 25.1386364,
                "end_time": 25.2522727,
                "pitch": 88,
                "velocity": 40,
                "duration": 0.1136364,
                "tempo": 120.0
            },
            {
                "start_time": 25.6795455,
                "end_time": 26.0545455,
                "pitch": 72,
                "velocity": 40,
                "duration": 0.375,
                "tempo": 120.0
            },
            {
                "start_time": 26.0704545,
                "end_time": 26.4659091,
                "pitch": 72,
                "velocity": 40,
                "duration": 0.3954545,
                "tempo": 120.0
            },
            {
                "start_time": 26.875,
                "end_time": 27.2590909,
                "pitch": 72,
                "velocity": 40,
                "duration": 0.3840909,
                "tempo": 120.0
            },
            {
                "start_time": 27.6772727,
                "end_time": 28.0613636,
                "pitch": 72,
                "velocity": 40,
                "duration": 0.3840909,
                "tempo": 120.0
            },
            {
                "start_time": 28.4795455,
                "end_time": 28.7363636,
                "pitch": 72,
                "velocity": 40,
                "duration": 0.2568182,
                "tempo": 120.0
            },
            {
                "start_time": 28.7545455,
                "end_time": 28.8727273,
                "pitch": 72,
                "velocity": 40,
                "duration": 0.1181818,
                "tempo": 120.0
            },
            {
                "start_time": 28.8909091,
                "end_time": 29.2659091,
                "pitch": 73,
                "velocity": 40,
                "duration": 0.375,
                "tempo": 120.0
            },
            {
                "start_time": 29.2818182,
                "end_time": 29.6659091,
                "pitch": 73,
                "velocity": 40,
                "duration": 0.3840909,
                "tempo": 120.0
            },
            {
                "start_time": 30.0818182,
                "end_time": 30.4681818,
                "pitch": 73,
                "velocity": 40,
                "duration": 0.3863636,
                "tempo": 120.0
            },
            {
                "start_time": 30.8863636,
                "end_time": 31.2704545,
                "pitch": 73,
                "velocity": 40,
                "duration": 0.3840909,
                "tempo": 120.0
            },
            {
                "start_time": 31.6886364,
                "end_time": 31.9386364,
                "pitch": 73,
                "velocity": 40,
                "duration": 0.25,
                "tempo": 120.0
            },
            {
                "start_time": 31.9545455,
                "end_time": 32.0704545,
                "pitch": 73,
                "velocity": 40,
                "duration": 0.1159091,
                "tempo": 120.0
            },
            {
                "start_time": 32.1045455,
                "end_time": 32.4818182,
                "pitch": 72,
                "velocity": 40,
                "duration": 0.3772727,
                "tempo": 120.0
            },
            {
                "start_time": 32.4977273,
                "end_time": 32.8840909,
                "pitch": 72,
                "velocity": 40,
                "duration": 0.3863636,
                "tempo": 120.0
            },
            {
                "start_time": 33.2931818,
                "end_time": 33.6772727,
                "pitch": 72,
                "velocity": 40,
                "duration": 0.3840909,
                "tempo": 120.0
            },
            {
                "start_time": 34.0931818,
                "end_time": 34.4772727,
                "pitch": 72,
                "velocity": 40,
                "duration": 0.3840909,
                "tempo": 120.0
            },
            {
                "start_time": 34.8954545,
                "end_time": 35.1522727,
                "pitch": 72,
                "velocity": 40,
                "duration": 0.2568182,
                "tempo": 120.0
            },
            {
                "start_time": 35.1704545,
                "end_time": 35.2909091,
                "pitch": 72,
                "velocity": 40,
                "duration": 0.1204545,
                "tempo": 120.0
            },
            {
                "start_time": 35.3068182,
                "end_time": 35.6818182,
                "pitch": 73,
                "velocity": 40,
                "duration": 0.375,
                "tempo": 120.0
            },
            {
                "start_time": 35.7,
                "end_time": 36.0931818,
                "pitch": 73,
                "velocity": 40,
                "duration": 0.3931818,
                "tempo": 120.0
            },
            {
                "start_time": 36.5022727,
                "end_time": 36.8886364,
                "pitch": 73,
                "velocity": 40,
                "duration": 0.3863636,
                "tempo": 120.0
            },
            {
                "start_time": 37.3045455,
                "end_time": 37.6886364,
                "pitch": 73,
                "velocity": 40,
                "duration": 0.3840909,
                "tempo": 120.0
            },
            {
                "start_time": 38.1045455,
                "end_time": 38.3545455,
                "pitch": 73,
                "velocity": 40,
                "duration": 0.25,
                "tempo": 120.0
            },
            {
                "start_time": 38.3704545,
                "end_time": 38.4886364,
                "pitch": 73,
                "velocity": 40,
                "duration": 0.1181818,
                "tempo": 120.0
            },
            {
                "start_time": 38.5045455,
                "end_time": 38.8977273,
                "pitch": 73,
                "velocity": 40,
                "duration": 0.3931818,
                "tempo": 120.0
            },
            {
                "start_time": 38.9159091,
                "end_time": 39.2977273,
                "pitch": 73,
                "velocity": 40,
                "duration": 0.3818182,
                "tempo": 120.0
            },
            {
                "start_time": 39.5772727,
                "end_time": 40.1,
                "pitch": 73,
                "velocity": 40,
                "duration": 0.5227273,
                "tempo": 120.0
            },
            {
                "start_time": 40.1181818,
                "end_time": 40.4931818,
                "pitch": 71,
                "velocity": 40,
                "duration": 0.375,
                "tempo": 120.0
            },
            {
                "start_time": 40.5113636,
                "end_time": 40.9045455,
                "pitch": 71,
                "velocity": 40,
                "duration": 0.3931818,
                "tempo": 120.0
            },
            {
                "start_time": 41.1818182,
                "end_time": 41.6954545,
                "pitch": 71,
                "velocity": 40,
                "duration": 0.5136364,
                "tempo": 120.0
            },
            {
                "start_time": 41.7136364,
                "end_time": 41.9704545,
                "pitch": 73,
                "velocity": 40,
                "duration": 0.2568182,
                "tempo": 120.0
            },
            {
                "start_time": 41.9863636,
                "end_time": 42.2409091,
                "pitch": 73,
                "velocity": 40,
                "duration": 0.2545455,
                "tempo": 120.0
            },
            {
                "start_time": 42.2568182,
                "end_time": 42.5068182,
                "pitch": 73,
                "velocity": 40,
                "duration": 0.25,
                "tempo": 120.0
            },
            {
                "start_time": 42.525,
                "end_time": 42.775,
                "pitch": 73,
                "velocity": 40,
                "duration": 0.25,
                "tempo": 120.0
            },
            {
                "start_time": 42.7909091,
                "end_time": 43.0409091,
                "pitch": 73,
                "velocity": 40,
                "duration": 0.25,
                "tempo": 120.0
            },
            {
                "start_time": 43.3227273,
                "end_time": 44.9022727,
                "pitch": 71,
                "velocity": 40,
                "duration": 1.5795455,
                "tempo": 120.0
            },
            {
                "start_time": 45.7181818,
                "end_time": 46.5113636,
                "pitch": 71,
                "velocity": 40,
                "duration": 0.7931818,
                "tempo": 120.0
            }
        ],
        "Clarinet": [
            {
                "start_time": 28.4795455,
                "end_time": 28.5477273,
                "pitch": 57,
                "velocity": 51,
                "duration": 0.0681818,
                "tempo": 120.0
            },
            {
                "start_time": 28.5477273,
                "end_time": 28.65,
                "pitch": 55,
                "velocity": 51,
                "duration": 0.1022727,
                "tempo": 120.0
            },
            {
                "start_time": 28.65,
                "end_time": 28.7363636,
                "pitch": 52,
                "velocity": 51,
                "duration": 0.0863636,
                "tempo": 120.0
            },
            {
                "start_time": 28.7363636,
                "end_time": 28.7545455,
                "pitch": 50,
                "velocity": 51,
                "duration": 0.0181818,
                "tempo": 120.0
            },
            {
                "start_time": 28.7545455,
                "end_time": 28.7886364,
                "pitch": 60,
                "velocity": 51,
                "duration": 0.0340909,
                "tempo": 120.0
            },
            {
                "start_time": 28.7886364,
                "end_time": 28.8045455,
                "pitch": 56,
                "velocity": 51,
                "duration": 0.0159091,
                "tempo": 120.0
            },
            {
                "start_time": 28.8045455,
                "end_time": 28.8386364,
                "pitch": 54,
                "velocity": 51,
                "duration": 0.0340909,
                "tempo": 120.0
            },
            {
                "start_time": 28.8386364,
                "end_time": 28.8727273,
                "pitch": 51,
                "velocity": 51,
                "duration": 0.0340909,
                "tempo": 120.0
            },
            {
                "start_time": 28.8727273,
                "end_time": 28.8909091,
                "pitch": 48,
                "velocity": 51,
                "duration": 0.0181818,
                "tempo": 120.0
            },
            {
                "start_time": 30.0818182,
                "end_time": 30.1159091,
                "pitch": 60,
                "velocity": 51,
                "duration": 0.0340909,
                "tempo": 120.0
            },
            {
                "start_time": 30.1159091,
                "end_time": 30.1318182,
                "pitch": 56,
                "velocity": 51,
                "duration": 0.0159091,
                "tempo": 120.0
            },
            {
                "start_time": 30.1318182,
                "end_time": 30.1659091,
                "pitch": 54,
                "velocity": 51,
                "duration": 0.0340909,
                "tempo": 120.0
            },
            {
                "start_time": 30.1659091,
                "end_time": 30.2,
                "pitch": 51,
                "velocity": 51,
                "duration": 0.0340909,
                "tempo": 120.0
            },
            {
                "start_time": 30.2,
                "end_time": 30.2340909,
                "pitch": 48,
                "velocity": 51,
                "duration": 0.0340909,
                "tempo": 120.0
            },
            {
                "start_time": 30.2340909,
                "end_time": 30.25,
                "pitch": 44,
                "velocity": 51,
                "duration": 0.0159091,
                "tempo": 120.0
            },
            {
                "start_time": 30.25,
                "end_time": 30.2840909,
                "pitch": 42,
                "velocity": 51,
                "duration": 0.0340909,
                "tempo": 120.0
            },
            {
                "start_time": 30.2840909,
                "end_time": 30.3181818,
                "pitch": 39,
                "velocity": 51,
                "duration": 0.0340909,
                "tempo": 120.0
            },
            {
                "start_time": 30.3181818,
                "end_time": 30.35,
                "pitch": 36,
                "velocity": 51,
                "duration": 0.0318182,
                "tempo": 120.0
            },
            {
                "start_time": 30.35,
                "end_time": 30.3840909,
                "pitch": 60,
                "velocity": 51,
                "duration": 0.0340909,
                "tempo": 120.0
            },
            {
                "start_time": 30.3840909,
                "end_time": 30.4022727,
                "pitch": 56,
                "velocity": 51,
                "duration": 0.0181818,
                "tempo": 120.0
            },
            {
                "start_time": 30.4022727,
                "end_time": 30.4340909,
                "pitch": 54,
                "velocity": 51,
                "duration": 0.0318182,
                "tempo": 120.0
            },
            {
                "start_time": 30.4340909,
                "end_time": 30.4681818,
                "pitch": 51,
                "velocity": 51,
                "duration": 0.0340909,
                "tempo": 120.0
            },
            {
                "start_time": 30.4681818,
                "end_time": 30.4840909,
                "pitch": 48,
                "velocity": 51,
                "duration": 0.0159091,
                "tempo": 120.0
            },
            {
                "start_time": 31.6886364,
                "end_time": 31.7204545,
                "pitch": 60,
                "velocity": 51,
                "duration": 0.0318182,
                "tempo": 120.0
            },
            {
                "start_time": 31.7204545,
                "end_time": 31.7386364,
                "pitch": 56,
                "velocity": 51,
                "duration": 0.0181818,
                "tempo": 120.0
            },
            {
                "start_time": 31.7386364,
                "end_time": 31.7704545,
                "pitch": 54,
                "velocity": 51,
                "duration": 0.0318182,
                "tempo": 120.0
            },
            {
                "start_time": 31.7704545,
                "end_time": 31.8045455,
                "pitch": 51,
                "velocity": 51,
                "duration": 0.0340909,
                "tempo": 120.0
            },
            {
                "start_time": 31.8045455,
                "end_time": 31.8204545,
                "pitch": 48,
                "velocity": 51,
                "duration": 0.0159091,
                "tempo": 120.0
            },
            {
                "start_time": 31.8204545,
                "end_time": 31.8545455,
                "pitch": 60,
                "velocity": 51,
                "duration": 0.0340909,
                "tempo": 120.0
            },
            {
                "start_time": 31.8545455,
                "end_time": 31.8704545,
                "pitch": 56,
                "velocity": 51,
                "duration": 0.0159091,
                "tempo": 120.0
            },
            {
                "start_time": 31.8704545,
                "end_time": 31.9045455,
                "pitch": 54,
                "velocity": 51,
                "duration": 0.0340909,
                "tempo": 120.0
            },
            {
                "start_time": 31.9045455,
                "end_time": 31.9386364,
                "pitch": 51,
                "velocity": 51,
                "duration": 0.0340909,
                "tempo": 120.0
            },
            {
                "start_time": 31.9386364,
                "end_time": 31.9545455,
                "pitch": 48,
                "velocity": 51,
                "duration": 0.0159091,
                "tempo": 120.0
            },
            {
                "start_time": 31.9545455,
                "end_time": 32.0204545,
                "pitch": 57,
                "velocity": 51,
                "duration": 0.0659091,
                "tempo": 120.0
            },
            {
                "start_time": 32.0204545,
                "end_time": 32.0886364,
                "pitch": 55,
                "velocity": 51,
                "duration": 0.0681818,
                "tempo": 120.0
            },
            {
                "start_time": 32.0886364,
                "end_time": 33.3113636,
                "pitch": 80,
                "velocity": 51,
                "duration": 1.2227273,
                "tempo": 120.0
            },
            {
                "start_time": 33.3113636,
                "end_time": 33.3272727,
                "pitch": 58,
                "velocity": 51,
                "duration": 0.0159091,
                "tempo": 120.0
            },
            {
                "start_time": 33.3272727,
                "end_time": 33.3431818,
                "pitch": 56,
                "velocity": 51,
                "duration": 0.0159091,
                "tempo": 120.0
            },
            {
                "start_time": 33.3431818,
                "end_time": 33.3772727,
                "pitch": 54,
                "velocity": 51,
                "duration": 0.0340909,
                "tempo": 120.0
            },
            {
                "start_time": 33.3772727,
                "end_time": 33.4113636,
                "pitch": 51,
                "velocity": 51,
                "duration": 0.0340909,
                "tempo": 120.0
            },
            {
                "start_time": 33.4113636,
                "end_time": 33.4431818,
                "pitch": 48,
                "velocity": 51,
                "duration": 0.0318182,
                "tempo": 120.0
            },
            {
                "start_time": 33.4431818,
                "end_time": 33.4613636,
                "pitch": 44,
                "velocity": 51,
                "duration": 0.0181818,
                "tempo": 120.0
            },
            {
                "start_time": 33.4613636,
                "end_time": 33.4931818,
                "pitch": 42,
                "velocity": 51,
                "duration": 0.0318182,
                "tempo": 120.0
            },
            {
                "start_time": 33.4931818,
                "end_time": 33.5272727,
                "pitch": 39,
                "velocity": 51,
                "duration": 0.0340909,
                "tempo": 120.0
            },
            {
                "start_time": 33.5272727,
                "end_time": 33.5613636,
                "pitch": 36,
                "velocity": 51,
                "duration": 0.0340909,
                "tempo": 120.0
            },
            {
                "start_time": 33.5613636,
                "end_time": 33.5931818,
                "pitch": 60,
                "velocity": 51,
                "duration": 0.0318182,
                "tempo": 120.0
            },
            {
                "start_time": 33.5931818,
                "end_time": 33.6113636,
                "pitch": 56,
                "velocity": 51,
                "duration": 0.0181818,
                "tempo": 120.0
            },
            {
                "start_time": 33.6113636,
                "end_time": 33.6431818,
                "pitch": 54,
                "velocity": 51,
                "duration": 0.0318182,
                "tempo": 120.0
            },
            {
                "start_time": 33.6431818,
                "end_time": 33.6772727,
                "pitch": 51,
                "velocity": 51,
                "duration": 0.0340909,
                "tempo": 120.0
            },
            {
                "start_time": 33.6772727,
                "end_time": 33.6931818,
                "pitch": 48,
                "velocity": 51,
                "duration": 0.0159091,
                "tempo": 120.0
            },
            {
                "start_time": 34.8954545,
                "end_time": 34.9636364,
                "pitch": 57,
                "velocity": 51,
                "duration": 0.0681818,
                "tempo": 120.0
            },
            {
                "start_time": 34.9636364,
                "end_time": 35.0681818,
                "pitch": 55,
                "velocity": 51,
                "duration": 0.1045455,
                "tempo": 120.0
            },
            {
                "start_time": 35.0681818,
                "end_time": 35.1522727,
                "pitch": 52,
                "velocity": 51,
                "duration": 0.0840909,
                "tempo": 120.0
            },
            {
                "start_time": 35.1522727,
                "end_time": 35.1704545,
                "pitch": 50,
                "velocity": 51,
                "duration": 0.0181818,
                "tempo": 120.0
            },
            {
                "start_time": 35.1704545,
                "end_time": 35.2045455,
                "pitch": 60,
                "velocity": 51,
                "duration": 0.0340909,
                "tempo": 120.0
            },
            {
                "start_time": 35.2045455,
                "end_time": 35.2204545,
                "pitch": 56,
                "velocity": 51,
                "duration": 0.0159091,
                "tempo": 120.0
            },
            {
                "start_time": 35.2204545,
                "end_time": 35.2568182,
                "pitch": 54,
                "velocity": 51,
                "duration": 0.0363636,
                "tempo": 120.0
            },
            {
                "start_time": 35.2568182,
                "end_time": 35.2909091,
                "pitch": 51,
                "velocity": 51,
                "duration": 0.0340909,
                "tempo": 120.0
            },
            {
                "start_time": 35.2909091,
                "end_time": 35.3068182,
                "pitch": 48,
                "velocity": 51,
                "duration": 0.0159091,
                "tempo": 120.0
            },
            {
                "start_time": 36.5022727,
                "end_time": 36.5363636,
                "pitch": 60,
                "velocity": 51,
                "duration": 0.0340909,
                "tempo": 120.0
            },
            {
                "start_time": 36.5363636,
                "end_time": 36.5522727,
                "pitch": 56,
                "velocity": 51,
                "duration": 0.0159091,
                "tempo": 120.0
            },
            {
                "start_time": 36.5522727,
                "end_time": 36.5863636,
                "pitch": 54,
                "velocity": 51,
                "duration": 0.0340909,
                "tempo": 120.0
            },
            {
                "start_time": 36.5863636,
                "end_time": 36.6204545,
                "pitch": 51,
                "velocity": 51,
                "duration": 0.0340909,
                "tempo": 120.0
            },
            {
                "start_time": 36.6204545,
                "end_time": 36.6522727,
                "pitch": 48,
                "velocity": 51,
                "duration": 0.0318182,
                "tempo": 120.0
            },
            {
                "start_time": 36.6522727,
                "end_time": 36.6704545,
                "pitch": 44,
                "velocity": 51,
                "duration": 0.0181818,
                "tempo": 120.0
            },
            {
                "start_time": 36.6704545,
                "end_time": 36.7022727,
                "pitch": 42,
                "velocity": 51,
                "duration": 0.0318182,
                "tempo": 120.0
            },
            {
                "start_time": 36.7022727,
                "end_time": 36.7363636,
                "pitch": 39,
                "velocity": 51,
                "duration": 0.0340909,
                "tempo": 120.0
            },
            {
                "start_time": 36.7363636,
                "end_time": 36.7704545,
                "pitch": 36,
                "velocity": 51,
                "duration": 0.0340909,
                "tempo": 120.0
            },
            {
                "start_time": 36.7704545,
                "end_time": 36.8045455,
                "pitch": 60,
                "velocity": 51,
                "duration": 0.0340909,
                "tempo": 120.0
            },
            {
                "start_time": 36.8045455,
                "end_time": 36.8204545,
                "pitch": 56,
                "velocity": 51,
                "duration": 0.0159091,
                "tempo": 120.0
            },
            {
                "start_time": 36.8204545,
                "end_time": 36.8545455,
                "pitch": 54,
                "velocity": 51,
                "duration": 0.0340909,
                "tempo": 120.0
            },
            {
                "start_time": 36.8545455,
                "end_time": 36.8886364,
                "pitch": 51,
                "velocity": 51,
                "duration": 0.0340909,
                "tempo": 120.0
            },
            {
                "start_time": 36.8886364,
                "end_time": 36.9045455,
                "pitch": 48,
                "velocity": 51,
                "duration": 0.0159091,
                "tempo": 120.0
            },
            {
                "start_time": 38.1045455,
                "end_time": 38.1386364,
                "pitch": 60,
                "velocity": 51,
                "duration": 0.0340909,
                "tempo": 120.0
            },
            {
                "start_time": 38.1386364,
                "end_time": 38.1545455,
                "pitch": 56,
                "velocity": 51,
                "duration": 0.0159091,
                "tempo": 120.0
            },
            {
                "start_time": 38.1545455,
                "end_time": 38.1886364,
                "pitch": 54,
                "velocity": 51,
                "duration": 0.0340909,
                "tempo": 120.0
            },
            {
                "start_time": 38.1886364,
                "end_time": 38.2204545,
                "pitch": 51,
                "velocity": 51,
                "duration": 0.0318182,
                "tempo": 120.0
            },
            {
                "start_time": 38.2204545,
                "end_time": 38.2386364,
                "pitch": 48,
                "velocity": 51,
                "duration": 0.0181818,
                "tempo": 120.0
            },
            {
                "start_time": 38.2386364,
                "end_time": 38.2704545,
                "pitch": 60,
                "velocity": 51,
                "duration": 0.0318182,
                "tempo": 120.0
            },
            {
                "start_time": 38.2704545,
                "end_time": 38.2886364,
                "pitch": 56,
                "velocity": 51,
                "duration": 0.0181818,
                "tempo": 120.0
            },
            {
                "start_time": 38.2886364,
                "end_time": 38.3204545,
                "pitch": 54,
                "velocity": 51,
                "duration": 0.0318182,
                "tempo": 120.0
            },
            {
                "start_time": 38.3204545,
                "end_time": 38.3545455,
                "pitch": 51,
                "velocity": 51,
                "duration": 0.0340909,
                "tempo": 120.0
            },
            {
                "start_time": 38.3545455,
                "end_time": 38.3704545,
                "pitch": 48,
                "velocity": 51,
                "duration": 0.0159091,
                "tempo": 120.0
            },
            {
                "start_time": 38.3704545,
                "end_time": 38.4386364,
                "pitch": 57,
                "velocity": 51,
                "duration": 0.0681818,
                "tempo": 120.0
            },
            {
                "start_time": 38.4386364,
                "end_time": 38.5045455,
                "pitch": 55,
                "velocity": 51,
                "duration": 0.0659091,
                "tempo": 120.0
            },
            {
                "start_time": 38.5045455,
                "end_time": 43.3409091,
                "pitch": 81,
                "velocity": 51,
                "duration": 4.8363636,
                "tempo": 120.0
            },
            {
                "start_time": 43.3409091,
                "end_time": 43.3727273,
                "pitch": 62,
                "velocity": 51,
                "duration": 0.0318182,
                "tempo": 120.0
            },
            {
                "start_time": 43.3727273,
                "end_time": 43.4045455,
                "pitch": 58,
                "velocity": 51,
                "duration": 0.0318182,
                "tempo": 120.0
            },
            {
                "start_time": 43.4045455,
                "end_time": 43.4386364,
                "pitch": 54,
                "velocity": 51,
                "duration": 0.0340909,
                "tempo": 120.0
            },
            {
                "start_time": 43.4386364,
                "end_time": 43.4545455,
                "pitch": 52,
                "velocity": 51,
                "duration": 0.0159091,
                "tempo": 120.0
            },
            {
                "start_time": 43.7159091,
                "end_time": 43.75,
                "pitch": 60,
                "velocity": 51,
                "duration": 0.0340909,
                "tempo": 120.0
            },
            {
                "start_time": 43.75,
                "end_time": 43.7659091,
                "pitch": 56,
                "velocity": 51,
                "duration": 0.0159091,
                "tempo": 120.0
            },
            {
                "start_time": 43.7659091,
                "end_time": 43.8,
                "pitch": 54,
                "velocity": 51,
                "duration": 0.0340909,
                "tempo": 120.0
            },
            {
                "start_time": 43.8,
                "end_time": 43.8318182,
                "pitch": 51,
                "velocity": 51,
                "duration": 0.0318182,
                "tempo": 120.0
            },
            {
                "start_time": 43.8318182,
                "end_time": 43.85,
                "pitch": 48,
                "velocity": 51,
                "duration": 0.0181818,
                "tempo": 120.0
            },
            {
                "start_time": 44.1159091,
                "end_time": 44.1818182,
                "pitch": 57,
                "velocity": 51,
                "duration": 0.0659091,
                "tempo": 120.0
            },
            {
                "start_time": 44.1818182,
                "end_time": 44.25,
                "pitch": 55,
                "velocity": 51,
                "duration": 0.0681818,
                "tempo": 120.0
            },
            {
                "start_time": 44.9181818,
                "end_time": 44.9522727,
                "pitch": 63,
                "velocity": 51,
                "duration": 0.0340909,
                "tempo": 120.0
            },
            {
                "start_time": 44.9522727,
                "end_time": 44.9863636,
                "pitch": 60,
                "velocity": 51,
                "duration": 0.0340909,
                "tempo": 120.0
            },
            {
                "start_time": 44.9863636,
                "end_time": 45.0022727,
                "pitch": 56,
                "velocity": 51,
                "duration": 0.0159091,
                "tempo": 120.0
            },
            {
                "start_time": 45.0022727,
                "end_time": 45.0363636,
                "pitch": 54,
                "velocity": 51,
                "duration": 0.0340909,
                "tempo": 120.0
            },
            {
                "start_time": 45.0363636,
                "end_time": 45.0522727,
                "pitch": 52,
                "velocity": 51,
                "duration": 0.0159091,
                "tempo": 120.0
            },
            {
                "start_time": 45.0522727,
                "end_time": 45.0863636,
                "pitch": 63,
                "velocity": 51,
                "duration": 0.0340909,
                "tempo": 120.0
            },
            {
                "start_time": 45.0863636,
                "end_time": 45.1181818,
                "pitch": 60,
                "velocity": 51,
                "duration": 0.0318182,
                "tempo": 120.0
            },
            {
                "start_time": 45.1181818,
                "end_time": 45.1363636,
                "pitch": 56,
                "velocity": 51,
                "duration": 0.0181818,
                "tempo": 120.0
            },
            {
                "start_time": 45.1363636,
                "end_time": 45.1681818,
                "pitch": 54,
                "velocity": 51,
                "duration": 0.0318182,
                "tempo": 120.0
            },
            {
                "start_time": 45.1681818,
                "end_time": 45.1863636,
                "pitch": 52,
                "velocity": 51,
                "duration": 0.0181818,
                "tempo": 120.0
            },
            {
                "start_time": 45.1863636,
                "end_time": 45.2181818,
                "pitch": 60,
                "velocity": 51,
                "duration": 0.0318182,
                "tempo": 120.0
            },
            {
                "start_time": 45.2181818,
                "end_time": 45.2363636,
                "pitch": 56,
                "velocity": 51,
                "duration": 0.0181818,
                "tempo": 120.0
            },
            {
                "start_time": 45.2363636,
                "end_time": 45.2681818,
                "pitch": 54,
                "velocity": 51,
                "duration": 0.0318182,
                "tempo": 120.0
            },
            {
                "start_time": 45.2681818,
                "end_time": 45.3022727,
                "pitch": 51,
                "velocity": 51,
                "duration": 0.0340909,
                "tempo": 120.0
            },
            {
                "start_time": 45.3022727,
                "end_time": 45.3181818,
                "pitch": 48,
                "velocity": 51,
                "duration": 0.0159091,
                "tempo": 120.0
            },
            {
                "start_time": 45.3181818,
                "end_time": 45.3522727,
                "pitch": 60,
                "velocity": 51,
                "duration": 0.0340909,
                "tempo": 120.0
            },
            {
                "start_time": 45.3522727,
                "end_time": 45.3681818,
                "pitch": 56,
                "velocity": 51,
                "duration": 0.0159091,
                "tempo": 120.0
            },
            {
                "start_time": 45.3681818,
                "end_time": 45.4022727,
                "pitch": 54,
                "velocity": 51,
                "duration": 0.0340909,
                "tempo": 120.0
            },
            {
                "start_time": 45.4022727,
                "end_time": 45.4363636,
                "pitch": 51,
                "velocity": 51,
                "duration": 0.0340909,
                "tempo": 120.0
            },
            {
                "start_time": 45.4363636,
                "end_time": 45.4522727,
                "pitch": 48,
                "velocity": 51,
                "duration": 0.0159091,
                "tempo": 120.0
            },
            {
                "start_time": 45.4522727,
                "end_time": 45.5181818,
                "pitch": 57,
                "velocity": 51,
                "duration": 0.0659091,
                "tempo": 120.0
            },
            {
                "start_time": 45.5181818,
                "end_time": 45.5863636,
                "pitch": 55,
                "velocity": 51,
                "duration": 0.0681818,
                "tempo": 120.0
            },
            {
                "start_time": 45.5863636,
                "end_time": 45.6522727,
                "pitch": 57,
                "velocity": 51,
                "duration": 0.0659091,
                "tempo": 120.0
            },
            {
                "start_time": 45.6522727,
                "end_time": 45.7181818,
                "pitch": 55,
                "velocity": 51,
                "duration": 0.0659091,
                "tempo": 120.0
            },
            {
                "start_time": 46.1181818,
                "end_time": 46.1863636,
                "pitch": 57,
                "velocity": 51,
                "duration": 0.0681818,
                "tempo": 120.0
            },
            {
                "start_time": 46.1863636,
                "end_time": 46.2909091,
                "pitch": 55,
                "velocity": 51,
                "duration": 0.1045455,
                "tempo": 120.0
            },
            {
                "start_time": 46.2909091,
                "end_time": 46.375,
                "pitch": 52,
                "velocity": 51,
                "duration": 0.0840909,
                "tempo": 120.0
            },
            {
                "start_time": 46.375,
                "end_time": 46.3931818,
                "pitch": 50,
                "velocity": 51,
                "duration": 0.0181818,
                "tempo": 120.0
            },
            {
                "start_time": 46.3931818,
                "end_time": 46.4613636,
                "pitch": 57,
                "velocity": 51,
                "duration": 0.0681818,
                "tempo": 120.0
            },
            {
                "start_time": 46.4613636,
                "end_time": 46.5295455,
                "pitch": 55,
                "velocity": 51,
                "duration": 0.0681818,
                "tempo": 120.0
            }
        ]
    }
}