{
    "mood": "happy",
    "instruments": {
        "Clarinet": [
            {
                "start_time": 0.6568182,
                "end_time": 0.7772727,
                "pitch": 73,
                "velocity": 64,
                "duration": 0.1204545,
                "tempo": 120.0
            },
            {
                "start_time": 0.7931818,
                "end_time": 0.9113636,
                "pitch": 75,
                "velocity": 64,
                "duration": 0.1181818,
                "tempo": 120.0
            },
            {
                "start_time": 1.0613636,
                "end_time": 1.1772727,
                "pitch": 78,
                "velocity": 64,
                "duration": 0.1159091,
                "tempo": 120.0
            },
            {
                "start_time": 1.4613636,
                "end_time": 1.5772727,
                "pitch": 78,
                "velocity": 64,
                "duration": 0.1159091,
                "tempo": 120.0
            },
            {
                "start_time": 3.2068182,
                "end_time": 3.325,
                "pitch": 73,
                "velocity": 64,
                "duration": 0.1181818,
                "tempo": 120.0
            },
            {
                "start_time": 3.6068182,
                "end_time": 3.7227273,
                "pitch": 73,
                "velocity": 64,
                "duration": 0.1159091,
                "tempo": 120.0
            },
            {
                "start_time": 3.8681818,
                "end_time": 3.9840909,
                "pitch": 73,
                "velocity": 64,
                "duration": 0.1159091,
                "tempo": 120.0
            },
            {
                "start_time": 4.0,
                "end_time": 4.1159091,
                "pitch": 75,
                "velocity": 64,
                "duration": 0.1159091,
                "tempo": 120.0
            },
            {
                "start_time": 4.2659091,
                "end_time": 4.3840909,
                "pitch": 78,
                "velocity": 64,
                "duration": 0.1181818,
                "tempo": 120.0
            },
            {
                "start_time": 4.675,
                "end_time": 4.7931818,
                "pitch": 78,
                "velocity": 64,
                "duration": 0.1181818,
                "tempo": 120.0
            },
            {
                "start_time": 5.0795455,
                "end_time": 5.1295455,
                "pitch": 80,
                "velocity": 64,
                "duration": 0.05,
                "tempo": 120.0
            },
            {
                "start_time": 5.1454545,
                "end_time": 5.1977273,
                "pitch": 81,
                "velocity": 64,
                "duration": 0.0522727,
                "tempo": 120.0
            },
            {
                "start_time": 5.2136364,
                "end_time": 5.3318182,
                "pitch": 80,
                "velocity": 64,
                "duration": 0.1181818,
                "tempo": 120.0
            },
            {
                "start_time": 5.4818182,
                "end_time": 5.6,
                "pitch": 78,
                "velocity": 64,
                "duration": 0.1181818,
                "tempo": 120.0
            },
            {
                "start_time": 6.4181818,
                "end_time": 6.5363636,
                "pitch": 73,
                "velocity": 64,
                "duration": 0.1181818,
                "tempo": 120.0
            },
            {
                "start_time": 7.0795455,
                "end_time": 7.1954545,
                "pitch": 73,
                "velocity": 64,
                "duration": 0.1159091,
                "tempo": 120.0
            },
            {
                "start_time": 7.2113636,
                "end_time": 7.3272727,
                "pitch": 75,
                "velocity": 64,
                "duration": 0.1159091,
                "tempo": 120.0
            },
            {
                "start_time": 7.4772727,
                "end_time": 7.5954545,
                "pitch": 78,
                "velocity": 64,
                "duration": 0.1181818,
                "tempo": 120.0
            },
            {
                "start_time": 7.8795455,
                "end_time": 7.9977273,
                "pitch": 78,
                "velocity": 64,
                "duration": 0.1181818,
                "tempo": 120.0
            },
            {
                "start_time": 9.6227273,
                "end_time": 9.7409091,
                "pitch": 73,
                "velocity": 64,
                "duration": 0.1181818,
                "tempo": 120.0
            },
            {
                "start_time": 10.0318182,
                "end_time": 10.1477273,
                "pitch": 73,
                "velocity": 64,
                "duration": 0.1159091,
                "tempo": 120.0
            },
            {
                "start_time": 10.2931818,
                "end_time": 10.4090909,
                "pitch": 73,
                "velocity": 64,
                "duration": 0.1159091,
                "tempo": 120.0
            },
            {
                "start_time": 10.425,
                "end_time": 10.5431818,
                "pitch": 75,
                "velocity": 64,
                "duration": 0.1181818,
                "tempo": 120.0
            },
            {
                "start_time": 10.6931818,
                "end_time": 10.8113636,
                "pitch": 78,
                "velocity": 64,
                "duration": 0.1181818,
                "tempo": 120.0
            },
            {
                "start_time": 11.1022727,
                "end_time": 11.2204545,
                "pitch": 78,
                "velocity": 64,
                "duration": 0.1181818,
                "tempo": 120.0
            },
            {
                "start_time": 11.5068182,
                "end_time": 11.5568182,
                "pitch": 80,
                "velocity": 64,
                "duration": 0.05,
                "tempo": 120.0
            },
            {
                "start_time": 11.575,
                "end_time": 11.6909091,
                "pitch": 81,
                "velocity": 64,
                "duration": 0.1159091,
                "tempo": 120.0
            },
            {
                "start_time": 11.775,
                "end_time": 11.8931818,
                "pitch": 80,
                "velocity": 64,
                "duration": 0.1181818,
                "tempo": 120.0
            },
            {
                "start_time": 12.0431818,
                "end_time": 12.1590909,
                "pitch": 78,
                "velocity": 64,
                "duration": 0.1159091,
                "tempo": 120.0
            },
            {
                "start_time": 12.8477273,
                "end_time": 12.9636364,
                "pitch": 79,
                "velocity": 64,
                "duration": 0.1159091,
                "tempo": 120.0
            },
            {
                "start_time": 13.2477273,
                "end_time": 13.3636364,
                "pitch": 80,
                "velocity": 64,
                "duration": 0.1159091,
                "tempo": 120.0
            },
            {
                "start_time": 13.65,
                "end_time": 13.7636364,
                "pitch": 79,
                "velocity": 64,
                "duration": 0.1136364,
                "tempo": 120.0
            },
            {
                "start_time": 14.0409091,
                "end_time": 14.1613636,
                "pitch": 80,
                "velocity": 64,
                "duration": 0.1204545,
                "tempo": 120.0
            },
            {
                "start_time": 14.7136364,
                "end_time": 14.8272727,
                "pitch": 79,
                "velocity": 64,
                "duration": 0.1136364,
                "tempo": 120.0
            },
            {
                "start_time": 15.1113636,
                "end_time": 15.2272727,
                "pitch": 80,
                "velocity": 64,
                "duration": 0.1159091,
                "tempo": 120.0
            },
            {
                "start_time": 15.2454545,
                "end_time": 15.3613636,
                "pitch": 83,
                "velocity": 64,
                "duration": 0.1159091,
                "tempo": 120.0
            },
            {
                "start_time": 15.5136364,
                "end_time": 15.6295455,
                "pitch": 83,
                "velocity": 64,
                "duration": 0.1159091,
                "tempo": 120.0
            },
            {
                "start_time": 15.6477273,
                "end_time": 15.7659091,
                "pitch": 80,
                "velocity": 64,
                "duration": 0.1181818,
                "tempo": 120.0
            },
            {
                "start_time": 15.9204545,
                "end_time": 16.0409091,
                "pitch": 79,
                "velocity": 64,
                "duration": 0.1204545,
                "tempo": 120.0
            },
            {
                "start_time": 16.0590909,
                "end_time": 16.175,
                "pitch": 81,
                "velocity": 64,
                "duration": 0.1159091,
                "tempo": 120.0
            },
            {
                "start_time": 16.4613636,
                "end_time": 16.5772727,
                "pitch": 82,
                "velocity": 64,
                "duration": 0.1159091,
                "tempo": 120.0
            },
            {
                "start_time": 16.8636364,
                "end_time": 16.9772727,
                "pitch": 81,
                "velocity": 64,
                "duration": 0.1136364,
                "tempo": 120.0
            },
            {
                "start_time": 17.2545455,
                "end_time": 17.375,
                "pitch": 82,
                "velocity": 64,
                "duration": 0.1204545,
                "tempo": 120.0
            },
            {
                "start_time": 17.9272727,
                "end_time": 18.0409091,
                "pitch": 81,
                "velocity": 64,
                "duration": 0.1136364,
                "tempo": 120.0
            },
            {
                "start_time": 18.3272727,
                "end_time": 18.4431818,
                "pitch": 82,
                "velocity": 64,
                "duration": 0.1159091,
                "tempo": 120.0
            },
            {
                "start_time": 18.4613636,
                "end_time": 18.5772727,
                "pitch": 85,
                "velocity": 64,
                "duration": 0.1159091,
                "tempo": 120.0
            },
            {
                "start_time": 18.7272727,
                "end_time": 18.8431818,
                "pitch": 85,
                "velocity": 64,
                "duration": 0.1159091,
                "tempo": 120.0
            },
            {
                "start_time": 18.8613636,
                "end_time": 18.9795455,
                "pitch": 82,
                "velocity": 64,
                "duration": 0.1181818,
                "tempo": 120.0
            },
            {
                "start_time": 19.1340909,
                "end_time": 19.2545455,
                "pitch": 81,
                "velocity": 64,
                "duration": 0.1204545,
                "tempo": 120.0
            },
            {
                "start_time": 19.2727273,
                "end_time": 19.3909091,
                "pitch": 79,
                "velocity": 64,
                "duration": 0.1181818,
                "tempo": 120.0
            },
            {
                "start_time": 19.6818182,
                "end_time": 19.7977273,
                "pitch": 80,
                "velocity": 64,
                "duration": 0.1159091,
                "tempo": 120.0
            },
            {
                "start_time": 20.075,
                "end_time": 20.1886364,
                "pitch": 79,
                "velocity": 64,
                "duration": 0.1136364,
                "tempo": 120.0
            },
            {
                "start_time": 20.4681818,
                "end_time": 20.5863636,
                "pitch": 80,
                "velocity": 64,
                "duration": 0.1181818,
                "tempo": 120.0
            },
            {
                "start_time": 21.1386364,
                "end_time": 21.2545455,
                "pitch": 87,
                "velocity": 64,
                "duration": 0.1159091,
                "tempo": 120.0
            },
            {
                "start_time": 21.4022727,
                "end_time": 21.5204545,
                "pitch": 85,
                "velocity": 64,
                "duration": 0.1181818,
                "tempo": 120.0
            },
            {
                "start_time": 21.6704545,
                "end_time": 21.7863636,
                "pitch": 83,
                "velocity": 64,
                "duration": 0.1159091,
                "tempo": 120.0
            },
            {
                "start_time": 21.9363636,
                "end_time": 22.0522727,
                "pitch": 82,
                "velocity": 64,
                "duration": 0.1159091,
                "tempo": 120.0
            },
            {
                "start_time": 22.2068182,
                "end_time": 22.3272727,
                "pitch": 80,
                "velocity": 64,
                "duration": 0.1204545,
                "tempo": 120.0
            },
            {
                "start_time": 22.4818182,
                "end_time": 22.6,
                "pitch": 81,
                "velocity": 64,
                "duration": 0.1181818,
                "tempo": 120.0
            },
            {
                "start_time": 22.8909091,
                "end_time": 23.0068182,
                "pitch": 82,
                "velocity": 64,
                "duration": 0.1159091,
                "tempo": 120.0
            },
            {
                "start_time": 23.2840909,
                "end_time": 23.3977273,
                "pitch": 81,
                "velocity": 64,
                "duration": 0.1136364,
                "tempo": 120.0
            },
            {
                "start_time": 23.6772727,
                "end_time": 23.7954545,
                "pitch": 82,
                "velocity": 64,
                "duration": 0.1181818,
                "tempo": 120.0
            },
            {
                "start_time": 24.0863636,
                "end_time": 24.2022727,
                "pitch": 85,
                "velocity": 64,
                "duration": 0.1159091,
                "tempo": 120.0
            },
            {
                "start_time": 24.2181818,
                "end_time": 24.3318182,
                "pitch": 85,
                "velocity": 64,
                "duration": 0.1136364,
                "tempo": 120.0
            },
            {
                "start_time": 24.3477273,
                "end_time": 24.4636364,
                "pitch": 85,
                "velocity": 64,
                "duration": 0.1159091,
                "tempo": 120.0
            },
            {
                "start_time": 24.4795455,
                "end_time": 24.5954545,
                "pitch": 85,
                "velocity": 64,
                "duration": 0.1159091,
                "tempo": 120.0
            },
            {
                "start_time": 24.6113636,
                "end_time": 24.7295455,
                "pitch": 85,
                "velocity": 64,
                "duration": 0.1181818,
                "tempo": 120.0
            },
            {
                "start_time": 24.7454545,
                "end_time": 24.8613636,
                "pitch": 85,
                "velocity": 64,
                "duration": 0.1159091,
                "tempo": 120.0
            },
            {
                "start_time": 24.8795455,
                "end_time": 24.9954545,
                "pitch": 89,
                "velocity": 64,
                "duration": 0.1159091,
                "tempo": 120.0
            },
            {
                "start_time": 25.1477273,
                "end_time": 25.2659091,
                "pitch": 92,
                "velocity": 64,
                "duration": 0.1181818,
                "tempo": 120.0
            },
            {
                "start_time": 25.6931818,
                "end_time": 25.8113636,
                "pitch": 79,
                "velocity": 64,
                "duration": 0.1181818,
                "tempo": 120.0
            },
            {
                "start_time": 26.1045455,
                "end_time": 26.2181818,
                "pitch": 80,
                "velocity": 64,
                "duration": 0.1136364,
                "tempo": 120.0
            },
            {
                "start_time": 26.4954545,
                "end_time": 26.6113636,
                "pitch": 79,
                "velocity": 64,
                "duration": 0.1159091,
                "tempo": 120.0
            },
            {
                "start_time": 26.8886364,
                "end_time": 27.0068182,
                "pitch": 80,
                "velocity": 64,
                "duration": 0.1181818,
                "tempo": 120.0
            },
            {
                "start_time": 27.5590909,
                "end_time": 27.675,
                "pitch": 79,
                "velocity": 64,
                "duration": 0.1159091,
                "tempo": 120.0
            },
            {
                "start_time": 27.9568182,
                "end_time": 28.075,
                "pitch": 80,
                "velocity": 64,
                "duration": 0.1181818,
                "tempo": 120.0
            },
            {
                "start_time": 28.0909091,
                "end_time": 28.2090909,
                "pitch": 83,
                "velocity": 64,
                "duration": 0.1181818,
                "tempo": 120.0
            },
            {
                "start_time": 28.3590909,
                "end_time": 28.4772727,
                "pitch": 83,
                "velocity": 64,
                "duration": 0.1181818,
                "tempo": 120.0
            },
            {
                "start_time": 28.4931818,
                "end_time": 28.6136364,
                "pitch": 80,
                "velocity": 64,
                "duration": 0.1204545,
                "tempo": 120.0
            },
            {
                "start_time": 28.7681818,
                "end_time": 28.8863636,
                "pitch": 79,
                "velocity": 64,
                "duration": 0.1181818,
                "tempo": 120.0
            },
            {
                "start_time": 28.9045455,
                "end_time": 29.025,
                "pitch": 81,
                "velocity": 64,
                "duration": 0.1204545,
                "tempo": 120.0
            },
            {
                "start_time": 29.3159091,
                "end_time": 29.4295455,
                "pitch": 82,
                "velocity": 64,
                "duration": 0.1136364,
                "tempo": 120.0
            },
            {
                "start_time": 29.7068182,
                "end_time": 29.8227273,
                "pitch": 81,
                "velocity": 64,
                "duration": 0.1159091,
                "tempo": 120.0
            },
            {
                "start_time": 30.1,
                "end_time": 30.2204545,
                "pitch": 82,
                "velocity": 64,
                "duration": 0.1204545,
                "tempo": 120.0
            },
            {
                "start_time": 30.7727273,
                "end_time": 30.8863636,
                "pitch": 81,
                "velocity": 64,
                "duration": 0.1136364,
                "tempo": 120.0
            },
            {
                "start_time": 31.1704545,
                "end_time": 31.2886364,
                "pitch": 82,
                "velocity": 64,
                "duration": 0.1181818,
                "tempo": 120.0
            },
            {
                "start_time": 31.3045455,
                "end_time": 31.4227273,
                "pitch": 85,
                "velocity": 64,
                "duration": 0.1181818,
                "tempo": 120.0
            },
            {
                "start_time": 31.5727273,
                "end_time": 31.6886364,
                "pitch": 85,
                "velocity": 64,
                "duration": 0.1159091,
                "tempo": 120.0
            },
            {
                "start_time": 31.7045455,
                "end_time": 31.825,
                "pitch": 82,
                "velocity": 64,
                "duration": 0.1204545,
                "tempo": 120.0
            },
            {
                "start_time": 31.9795455,
                "end_time": 32.1,
                "pitch": 81,
                "velocity": 64,
                "duration": 0.1204545,
                "tempo": 120.0
            },
            {
                "start_time": 32.1159091,
                "end_time": 32.2363636,
                "pitch": 79,
                "velocity": 64,
                "duration": 0.1204545,
                "tempo": 120.0
            },
            {
                "start_time": 32.5272727,
                "end_time": 32.6409091,
                "pitch": 80,
                "velocity": 64,
                "duration": 0.1136364,
                "tempo": 120.0
            },
            {
                "start_time": 32.9204545,
                "end_time": 33.0340909,
                "pitch": 79,
                "velocity": 64,
                "duration": 0.1136364,
                "tempo": 120.0
            },
            {
                "start_time": 33.3113636,
                "end_time": 33.4318182,
                "pitch": 80,
                "velocity": 64,
                "duration": 0.1204545,
                "tempo": 120.0
            },
            {
                "start_time": 33.9840909,
                "end_time": 34.0977273,
                "pitch": 87,
                "velocity": 64,
                "duration": 0.1136364,
                "tempo": 120.0
            },
            {
                "start_time": 34.2477273,
                "end_time": 34.3636364,
                "pitch": 85,
                "velocity": 64,
                "duration": 0.1159091,
                "tempo": 120.0
            },
            {
                "start_time": 34.5136364,
                "end_time": 34.6318182,
                "pitch": 83,
                "velocity": 64,
                "duration": 0.1181818,
                "tempo": 120.0
            },
            {
                "start_time": 34.7840909,
                "end_time": 34.9,
                "pitch": 82,
                "velocity": 64,
                "duration": 0.1159091,
                "tempo": 120.0
            },
            {
                "start_time": 35.0545455,
                "end_time": 35.175,
                "pitch": 80,
                "velocity": 64,
                "duration": 0.1204545,
                "tempo": 120.0
            },
            {
                "start_time": 35.3272727,
                "end_time": 35.4477273,
                "pitch": 78,
                "velocity": 64,
                "duration": 0.1204545,
                "tempo": 120.0
            },
            {
                "start_time": 35.7386364,
                "end_time": 35.8545455,
                "pitch": 78,
                "velocity": 64,
                "duration": 0.1159091,
                "tempo": 120.0
            },
            {
                "start_time": 36.0,
                "end_time": 36.0181818,
                "pitch": 79,
                "velocity": 64,
                "duration": 0.0181818,
                "tempo": 120.0
            },
            {
                "start_time": 36.0340909,
                "end_time": 36.1159091,
                "pitch": 80,
                "velocity": 64,
                "duration": 0.0818182,
                "tempo": 120.0
            },
            {
                "start_time": 36.1318182,
                "end_time": 36.3772727,
                "pitch": 81,
                "velocity": 64,
                "duration": 0.2454545,
                "tempo": 120.0
            },
            {
                "start_time": 36.3931818,
                "end_time": 36.5068182,
                "pitch": 80,
                "velocity": 64,
                "duration": 0.1136364,
                "tempo": 120.0
            },
            {
                "start_time": 36.7931818,
                "end_time": 36.9090909,
                "pitch": 78,
                "velocity": 64,
                "duration": 0.1159091,
                "tempo": 120.0
            },
            {
                "start_time": 38.5272727,
                "end_time": 38.6477273,
                "pitch": 73,
                "velocity": 64,
                "duration": 0.1204545,
                "tempo": 120.0
            },
            {
                "start_time": 39.2022727,
                "end_time": 39.3136364,
                "pitch": 73,
                "velocity": 64,
                "duration": 0.1113636,
                "tempo": 120.0
            },
            {
                "start_time": 39.3295455,
                "end_time": 39.4477273,
                "pitch": 75,
                "velocity": 64,
                "duration": 0.1181818,
                "tempo": 120.0
            },
            {
                "start_time": 39.5977273,
                "end_time": 39.7136364,
                "pitch": 78,
                "velocity": 64,
                "duration": 0.1159091,
                "tempo": 120.0
            },
            {
                "start_time": 39.9977273,
                "end_time": 40.1136364,
                "pitch": 78,
                "velocity": 64,
                "duration": 0.1159091,
                "tempo": 120.0
            },
            {
                "start_time": 41.7318182,
                "end_time": 41.8545455,
                "pitch": 73,
                "velocity": 64,
                "duration": 0.1227273,
                "tempo": 120.0
            },
            {
                "start_time": 42.1545455,
                "end_time": 42.2659091,
                "pitch": 73,
                "velocity": 64,
                "duration": 0.1113636,
                "tempo": 120.0
            },
            {
                "start_time": 42.4090909,
                "end_time": 42.5204545,
                "pitch": 73,
                "velocity": 64,
                "duration": 0.1113636,
                "tempo": 120.0
            },
            {
                "start_time": 42.5363636,
                "end_time": 42.6545455,
                "pitch": 75,
                "velocity": 64,
                "duration": 0.1181818,
                "tempo": 120.0
            },
            {
                "start_time": 42.8045455,
                "end_time": 42.9227273,
                "pitch": 78,
                "velocity": 64,
                "duration": 0.1181818,
                "tempo": 120.0
            },
            {
                "start_time": 43.2136364,
                "end_time": 43.3318182,
                "pitch": 78,
                "velocity": 64,
                "duration": 0.1181818,
                "tempo": 120.0
            },
            {
                "start_time": 43.6227273,
                "end_time": 43.675,
                "pitch": 80,
                "velocity": 64,
                "duration": 0.0522727,
                "tempo": 120.0
            },
            {
                "start_time": 43.6931818,
                "end_time": 43.7431818,
                "pitch": 81,
                "velocity": 64,
                "duration": 0.05,
                "tempo": 120.0
            },
            {
                "start_time": 43.7613636,
                "end_time": 43.875,
                "pitch": 80,
                "velocity": 64,
                "duration": 0.1136364,
                "tempo": 120.0
            },
            {
                "start_time": 44.0227273,
                "end_time": 44.1363636,
                "pitch": 78,
                "velocity": 64,
                "duration": 0.1136364,
                "tempo": 120.0
            },
            {
                "start_time": 44.9568182,
                "end_time": 45.075,
                "pitch": 73,
                "velocity": 64,
                "duration": 0.1181818,
                "tempo": 120.0
            },
            {
                "start_time": 45.6204545,
                "end_time": 45.7318182,
                "pitch": 73,
                "velocity": 64,
                "duration": 0.1113636,
                "tempo": 120.0
            },
            {
                "start_time": 45.75,
                "end_time": 45.8659091,
                "pitch": 75,
                "velocity": 64,
                "duration": 0.1159091,
                "tempo": 120.0
            },
            {
                "start_time": 46.0159091,
                "end_time": 46.1318182,
                "pitch": 78,
                "velocity": 64,
                "duration": 0.1159091,
                "tempo": 120.0
            },
            {
                "start_time": 46.4227273,
                "end_time": 46.5431818,
                "pitch": 78,
                "velocity": 64,
                "duration": 0.1204545,
                "tempo": 120.0
            },
            {
                "start_time": 48.1522727,
                "end_time": 48.275,
                "pitch": 73,
                "velocity": 64,
                "duration": 0.1227273,
                "tempo": 120.0
            },
            {
                "start_time": 48.5727273,
                "end_time": 48.6840909,
                "pitch": 73,
                "velocity": 64,
                "duration": 0.1113636,
                "tempo": 120.0
            },
            {
                "start_time": 48.8272727,
                "end_time": 48.9386364,
                "pitch": 73,
                "velocity": 64,
                "duration": 0.1113636,
                "tempo": 120.0
            },
            {
                "start_time": 48.9545455,
                "end_time": 49.0727273,
                "pitch": 75,
                "velocity": 64,
                "duration": 0.1181818,
                "tempo": 120.0
            },
            {
                "start_time": 49.2227273,
                "end_time": 49.3386364,
                "pitch": 78,
                "velocity": 64,
                "duration": 0.1159091,
                "tempo": 120.0
            },
            {
                "start_time": 49.6227273,
                "end_time": 49.7386364,
                "pitch": 78,
                "velocity": 64,
                "duration": 0.1159091,
                "tempo": 120.0
            },
            {
                "start_time": 50.0363636,
                "end_time": 50.0886364,
                "pitch": 80,
                "velocity": 64,
                "duration": 0.0522727,
                "tempo": 120.0
            },
            {
                "start_time": 50.1068182,
                "end_time": 50.2272727,
                "pitch": 81,
                "velocity": 64,
                "duration": 0.1204545,
                "tempo": 120.0
            },
            {
                "start_time": 50.3090909,
                "end_time": 50.4227273,
                "pitch": 80,
                "velocity": 64,
                "duration": 0.1136364,
                "tempo": 120.0
            },
            {
                "start_time": 50.5704545,
                "end_time": 50.6840909,
                "pitch": 78,
                "velocity": 64,
                "duration": 0.1136364,
                "tempo": 120.0
            },
            {
                "start_time": 51.3727273,
                "end_time": 51.4931818,
                "pitch": 79,
                "velocity": 64,
                "duration": 0.1204545,
                "tempo": 120.0
            },
            {
                "start_time": 51.7840909,
                "end_time": 51.8977273,
                "pitch": 80,
                "velocity": 64,
                "duration": 0.1136364,
                "tempo": 120.0
            },
            {
                "start_time": 52.175,
                "end_time": 52.2909091,
                "pitch": 79,
                "velocity": 64,
                "duration": 0.1159091,
                "tempo": 120.0
            },
            {
                "start_time": 52.5681818,
                "end_time": 52.6886364,
                "pitch": 80,
                "velocity": 64,
                "duration": 0.1204545,
                "tempo": 120.0
            },
            {
                "start_time": 53.2409091,
                "end_time": 53.3545455,
                "pitch": 79,
                "velocity": 64,
                "duration": 0.1136364,
                "tempo": 120.0
            },
            {
                "start_time": 53.6363636,
                "end_time": 53.7545455,
                "pitch": 80,
                "velocity": 64,
                "duration": 0.1181818,
                "tempo": 120.0
            },
            {
                "start_time": 53.7704545,
                "end_time": 53.8863636,
                "pitch": 83,
                "velocity": 64,
                "duration": 0.1159091,
                "tempo": 120.0
            },
            {
                "start_time": 54.0363636,
                "end_time": 54.1545455,
                "pitch": 83,
                "velocity": 64,
                "duration": 0.1181818,
                "tempo": 120.0
            },
            {
                "start_time": 54.1704545,
                "end_time": 54.2909091,
                "pitch": 80,
                "velocity": 64,
                "duration": 0.1204545,
                "tempo": 120.0
            },
            {
                "start_time": 54.4454545,
                "end_time": 54.5636364,
                "pitch": 79,
                "velocity": 64,
                "duration": 0.1181818,
                "tempo": 120.0
            },
            {
                "start_time": 54.5818182,
                "end_time": 54.6977273,
                "pitch": 81,
                "velocity": 64,
                "duration": 0.1159091,
                "tempo": 120.0
            },
            {
                "start_time": 54.9818182,
                "end_time": 55.0977273,
                "pitch": 82,
                "velocity": 64,
                "duration": 0.1159091,
                "tempo": 120.0
            },
            {
                "start_time": 55.3818182,
                "end_time": 55.4954545,
                "pitch": 81,
                "velocity": 64,
                "duration": 0.1136364,
                "tempo": 120.0
            },
            {
                "start_time": 55.7727273,
                "end_time": 55.8931818,
                "pitch": 82,
                "velocity": 64,
                "duration": 0.1204545,
                "tempo": 120.0
            },
            {
                "start_time": 56.4454545,
                "end_time": 56.5590909,
                "pitch": 81,
                "velocity": 64,
                "duration": 0.1136364,
                "tempo": 120.0
            },
            {
                "start_time": 56.8454545,
                "end_time": 56.9613636,
                "pitch": 82,
                "velocity": 64,
                "duration": 0.1159091,
                "tempo": 120.0
            },
            {
                "start_time": 56.9795455,
                "end_time": 57.0954545,
                "pitch": 85,
                "velocity": 64,
                "duration": 0.1159091,
                "tempo": 120.0
            },
            {
                "start_time": 57.2454545,
                "end_time": 57.3636364,
                "pitch": 85,
                "velocity": 64,
                "duration": 0.1181818,
                "tempo": 120.0
            },
            {
                "start_time": 57.3795455,
                "end_time": 57.5,
                "pitch": 82,
                "velocity": 64,
                "duration": 0.1204545,
                "tempo": 120.0
            },
            {
                "start_time": 57.6522727,
                "end_time": 57.7727273,
                "pitch": 81,
                "velocity": 64,
                "duration": 0.1204545,
                "tempo": 120.0
            },
            {
                "start_time": 57.7909091,
                "end_time": 57.9090909,
                "pitch": 79,
                "velocity": 64,
                "duration": 0.1181818,
                "tempo": 120.0
            },
            {
                "start_time": 58.2,
                "end_time": 58.3159091,
                "pitch": 80,
                "velocity": 64,
                "duration": 0.1159091,
                "tempo": 120.0
            },
            {
                "start_time": 58.5931818,
                "end_time": 58.7068182,
                "pitch": 79,
                "velocity": 64,
                "duration": 0.1136364,
                "tempo": 120.0
            },
            {
                "start_time": 58.9863636,
                "end_time": 59.1045455,
                "pitch": 80,
                "velocity": 64,
                "duration": 0.1181818,
                "tempo": 120.0
            },
            {
                "start_time": 59.6568182,
                "end_time": 59.7727273,
                "pitch": 87,
                "velocity": 64,
                "duration": 0.1159091,
                "tempo": 120.0
            },
            {
                "start_time": 59.9227273,
                "end_time": 60.0386364,
                "pitch": 85,
                "velocity": 64,
                "duration": 0.1159091,
                "tempo": 120.0
            },
            {
                "start_time": 60.1886364,
                "end_time": 60.3045455,
                "pitch": 83,
                "velocity": 64,
                "duration": 0.1159091,
                "tempo": 120.0
            },
            {
                "start_time": 60.4545455,
                "end_time": 60.5727273,
                "pitch": 82,
                "velocity": 64,
                "duration": 0.1181818,
                "tempo": 120.0
            },
            {
                "start_time": 60.725,
                "end_time": 60.8454545,
                "pitch": 80,
                "velocity": 64,
                "duration": 0.1204545,
                "tempo": 120.0
            },
            {
                "start_time": 61.0,
                "end_time": 61.1181818,
                "pitch": 81,
                "velocity": 64,
                "duration": 0.1181818,
                "tempo": 120.0
            },
            {
                "start_time": 61.4090909,
                "end_time": 61.525,
                "pitch": 82,
                "velocity": 64,
                "duration": 0.1159091,
                "tempo": 120.0
            },
            {
                "start_time": 61.8022727,
                "end_time": 61.9159091,
                "pitch": 81,
                "velocity": 64,
                "duration": 0.1136364,
                "tempo": 120.0
            },
            {
                "start_time": 62.1954545,
                "end_time": 62.3136364,
                "pitch": 82,
                "velocity": 64,
                "duration": 0.1181818,
                "tempo": 120.0
            },
            {
                "start_time": 62.6045455,
                "end_time": 62.7204545,
                "pitch": 85,
                "velocity": 64,
                "duration": 0.1159091,
                "tempo": 120.0
            },
            {
                "start_time": 62.7363636,
                "end_time": 62.85,
                "pitch": 85,
                "velocity": 64,
                "duration": 0.1136364,
                "tempo": 120.0
            },
            {
                "start_time": 62.8659091,
                "end_time": 62.9818182,
                "pitch": 85,
                "velocity": 64,
                "duration": 0.1159091,
                "tempo": 120.0
            },
            {
                "start_time": 62.9977273,
                "end_time": 63.1136364,
                "pitch": 85,
                "velocity": 64,
                "duration": 0.1159091,
                "tempo": 120.0
            },
            {
                "start_time": 63.1318182,
                "end_time": 63.2477273,
                "pitch": 85,
                "velocity": 64,
                "duration": 0.1159091,
                "tempo": 120.0
            },
            {
                "start_time": 63.2636364,
                "end_time": 63.3818182,
                "pitch": 85,
                "velocity": 64,
                "duration": 0.1181818,
                "tempo": 120.0
            },
            {
                "start_time": 63.3977273,
                "end_time": 63.5136364,
                "pitch": 89,
                "velocity": 64,
                "duration": 0.1159091,
                "tempo": 120.0
            },
            {
                "start_time": 63.6636364,
                "end_time": 63.7818182,
                "pitch": 92,
                "velocity": 64,
                "duration": 0.1181818,
                "tempo": 120.0
            },
            {
                "start_time": 64.2090909,
                "end_time": 64.3272727,
                "pitch": 79,
                "velocity": 64,
                "duration": 0.1181818,
                "tempo": 120.0
            },
            {
                "start_time": 64.6181818,
                "end_time": 64.7340909,
                "pitch": 80,
                "velocity": 64,
                "duration": 0.1159091,
                "tempo": 120.0
            },
            {
                "start_time": 65.0113636,
                "end_time": 65.125,
                "pitch": 79,
                "velocity": 64,
                "duration": 0.1136364,
                "tempo": 120.0
            },
            {
                "start_time": 65.4045455,
                "end_time": 65.5227273,
                "pitch": 80,
                "velocity": 64,
                "duration": 0.1181818,
                "tempo": 120.0
            },
            {
                "start_time": 66.075,
                "end_time": 66.1909091,
                "pitch": 79,
                "velocity": 64,
                "duration": 0.1159091,
                "tempo": 120.0
            },
            {
                "start_time": 66.475,
                "end_time": 66.5931818,
                "pitch": 80,
                "velocity": 64,
                "duration": 0.1181818,
                "tempo": 120.0
            },
            {
                "start_time": 66.6090909,
                "end_time": 66.725,
                "pitch": 83,
                "velocity": 64,
                "duration": 0.1159091,
                "tempo": 120.0
            },
            {
                "start_time": 66.875,
                "end_time": 66.9931818,
                "pitch": 83,
                "velocity": 64,
                "duration": 0.1181818,
                "tempo": 120.0
            },
            {
                "start_time": 67.0090909,
                "end_time": 67.1295455,
                "pitch": 80,
                "velocity": 64,
                "duration": 0.1204545,
                "tempo": 120.0
            },
            {
                "start_time": 67.2818182,
                "end_time": 67.4022727,
                "pitch": 79,
                "velocity": 64,
                "duration": 0.1204545,
                "tempo": 120.0
            },
            {
                "start_time": 67.4204545,
                "end_time": 67.5386364,
                "pitch": 81,
                "velocity": 64,
                "duration": 0.1181818,
                "tempo": 120.0
            },
            {
                "start_time": 67.8318182,
                "end_time": 67.9454545,
                "pitch": 82,
                "velocity": 64,
                "duration": 0.1136364,
                "tempo": 120.0
            },
            {
                "start_time": 68.2227273,
                "end_time": 68.3386364,
                "pitch": 81,
                "velocity": 64,
                "duration": 0.1159091,
                "tempo": 120.0
            },
            {
                "start_time": 68.6159091,
                "end_time": 68.7340909,
                "pitch": 82,
                "velocity": 64,
                "duration": 0.1181818,
                "tempo": 120.0
            },
            {
                "start_time": 69.2863636,
                "end_time": 69.4022727,
                "pitch": 81,
                "velocity": 64,
                "duration": 0.1159091,
                "tempo": 120.0
            },
            {
                "start_time": 69.6863636,
                "end_time": 69.8045455,
                "pitch": 82,
                "velocity": 64,
                "duration": 0.1181818,
                "tempo": 120.0
            },
            {
                "start_time": 69.8204545,
                "end_time": 69.9386364,
                "pitch": 85,
                "velocity": 64,
                "duration": 0.1181818,
                "tempo": 120.0
            },
            {
                "start_time": 70.0886364,
                "end_time": 70.2045455,
                "pitch": 85,
                "velocity": 64,
                "duration": 0.1159091,
                "tempo": 120.0
            },
            {
                "start_time": 70.2204545,
                "end_time": 70.3409091,
                "pitch": 82,
                "velocity": 64,
                "duration": 0.1204545,
                "tempo": 120.0
            },
            {
                "start_time": 70.4954545,
                "end_time": 70.6136364,
                "pitch": 81,
                "velocity": 64,
                "duration": 0.1181818,
                "tempo": 120.0
            },
            {
                "start_time": 70.6318182,
                "end_time": 70.7522727,
                "pitch": 79,
                "velocity": 64,
                "duration": 0.1204545,
                "tempo": 120.0
            },
            {
                "start_time": 71.0431818,
                "end_time": 71.1568182,
                "pitch": 80,
                "velocity": 64,
                "duration": 0.1136364,
                "tempo": 120.0
            },
            {
                "start_time": 71.4340909,
                "end_time": 71.55,
                "pitch": 79,
                "velocity": 64,
                "duration": 0.1159091,
                "tempo": 120.0
            },
            {
                "start_time": 71.8272727,
                "end_time": 71.9477273,
                "pitch": 80,
                "velocity": 64,
                "duration": 0.1204545,
                "tempo": 120.0
            },
            {
                "start_time": 72.5,
                "end_time": 72.6136364,
                "pitch": 87,
                "velocity": 64,
                "duration": 0.1136364,
                "tempo": 120.0
            },
            {
                "start_time": 72.7636364,
                "end_time": 72.8795455,
                "pitch": 85,
                "velocity": 64,
                "duration": 0.1159091,
                "tempo": 120.0
            },
            {
                "start_time": 73.0295455,
                "end_time": 73.1477273,
                "pitch": 83,
                "velocity": 64,
                "duration": 0.1181818,
                "tempo": 120.0
            },
            {
                "start_time": 73.2977273,
                "end_time": 73.4159091,
                "pitch": 82,
                "velocity": 64,
                "duration": 0.1181818,
                "tempo": 120.0
            },
            {
                "start_time": 73.5704545,
                "end_time": 73.6886364,
                "pitch": 80,
                "velocity": 64,
                "duration": 0.1181818,
                "tempo": 120.0
            },
            {
                "start_time": 73.8431818,
                "end_time": 73.9636364,
                "pitch": 78,
                "velocity": 64,
                "duration": 0.1204545,
                "tempo": 120.0
            },
            {
                "start_time": 74.2545455,
                "end_time": 74.3681818,
                "pitch": 78,
                "velocity": 64,
                "duration": 0.1136364,
                "tempo": 120.0
            },
            {
                "start_time": 74.5159091,
                "end_time": 74.5659091,
                "pitch": 79,
                "velocity": 64,
                "duration": 0.05,
                "tempo": 120.0
            },
            {
                "start_time": 74.5818182,
                "end_time": 74.6295455,
                "pitch": 80,
                "velocity": 64,
                "duration": 0.0477273,
                "tempo": 120.0
            },
            {
                "start_time": 74.6477273,
                "end_time": 74.7613636,
                "pitch": 81,
                "velocity": 64,
                "duration": 0.1136364,
                "tempo": 120.0
            },
            {
                "start_time": 74.9090909,
                "end_time": 75.0227273,
                "pitch": 80,
                "velocity": 64,
                "duration": 0.1136364,
                "tempo": 120.0
            },
            {
                "start_time": 75.3068182,
                "end_time": 75.425,
                "pitch": 78,
                "velocity": 64,
                "duration": 0.1181818,
                "tempo": 120.0
            },
            {
                "start_time": 76.2545455,
                "end_time": 76.3704545,
                "pitch": 90,
                "velocity": 64,
                "duration": 0.1159091,
                "tempo": 120.0
            },
            {
                "start_time": 77.0681818,
                "end_time": 77.0863636,
                "pitch": 73,
                "velocity": 64,
                "duration": 0.0181818,
                "tempo": 120.0
            }
        ],
        "Acoustic Bass": [
            {
                "start_time": 0.3840909,
                "end_time": 0.6409091,
                "pitch": 46,
                "velocity": 32,
                "duration": 0.2568182,
                "tempo": 120.0
            },
            {
                "start_time": 0.6568182,
                "end_time": 0.7772727,
                "pitch": 49,
                "velocity": 32,
                "duration": 0.1204545,
                "tempo": 120.0
            },
            {
                "start_time": 0.7931818,
                "end_time": 1.1772727,
                "pitch": 47,
                "velocity": 32,
                "duration": 0.3840909,
                "tempo": 120.0
            },
            {
                "start_time": 1.1931818,
                "end_time": 1.4431818,
                "pitch": 51,
                "velocity": 32,
                "duration": 0.25,
                "tempo": 120.0
            },
            {
                "start_time": 1.4613636,
                "end_time": 1.5772727,
                "pitch": 54,
                "velocity": 32,
                "duration": 0.1159091,
                "tempo": 120.0
            },
            {
                "start_time": 1.8636364,
                "end_time": 1.9795455,
                "pitch": 49,
                "velocity": 32,
                "duration": 0.1159091,
                "tempo": 120.0
            },
            {
                "start_time": 1.9977273,
                "end_time": 2.2477273,
                "pitch": 53,
                "velocity": 32,
                "duration": 0.25,
                "tempo": 120.0
            },
            {
                "start_time": 2.2636364,
                "end_time": 2.3795455,
                "pitch": 56,
                "velocity": 32,
                "duration": 0.1159091,
                "tempo": 120.0
            },
            {
                "start_time": 2.3977273,
                "end_time": 2.6477273,
                "pitch": 54,
                "velocity": 32,
                "duration": 0.25,
                "tempo": 120.0
            },
            {
                "start_time": 2.6636364,
                "end_time": 2.7795455,
                "pitch": 54,
                "velocity": 32,
                "duration": 0.1159091,
                "tempo": 120.0
            },
            {
                "start_time": 2.7977273,
                "end_time": 3.0545455,
                "pitch": 58,
                "velocity": 32,
                "duration": 0.2568182,
                "tempo": 120.0
            },
            {
                "start_time": 3.0704545,
                "end_time": 3.1909091,
                "pitch": 61,
                "velocity": 32,
                "duration": 0.1204545,
                "tempo": 120.0
            },
            {
                "start_time": 3.2068182,
                "end_time": 3.5909091,
                "pitch": 42,
                "velocity": 32,
                "duration": 0.3840909,
                "tempo": 120.0
            },
            {
                "start_time": 3.6068182,
                "end_time": 3.8522727,
                "pitch": 46,
                "velocity": 32,
                "duration": 0.2454545,
                "tempo": 120.0
            },
            {
                "start_time": 3.8681818,
                "end_time": 3.9840909,
                "pitch": 49,
                "velocity": 32,
                "duration": 0.1159091,
                "tempo": 120.0
            },
            {
                "start_time": 4.0,
                "end_time": 4.3840909,
                "pitch": 47,
                "velocity": 32,
                "duration": 0.3840909,
                "tempo": 120.0
            },
            {
                "start_time": 4.4,
                "end_time": 4.6568182,
                "pitch": 51,
                "velocity": 32,
                "duration": 0.2568182,
                "tempo": 120.0
            },
            {
                "start_time": 4.675,
                "end_time": 4.7931818,
                "pitch": 54,
                "velocity": 32,
                "duration": 0.1181818,
                "tempo": 120.0
            },
            {
                "start_time": 4.8113636,
                "end_time": 5.0636364,
                "pitch": 49,
                "velocity": 32,
                "duration": 0.2522727,
                "tempo": 120.0
            },
            {
                "start_time": 5.0795455,
                "end_time": 5.1977273,
                "pitch": 53,
                "velocity": 32,
                "duration": 0.1181818,
                "tempo": 120.0
            },
            {
                "start_time": 5.2136364,
                "end_time": 5.4659091,
                "pitch": 56,
                "velocity": 32,
                "duration": 0.2522727,
                "tempo": 120.0
            },
            {
                "start_time": 5.4818182,
                "end_time": 5.8613636,
                "pitch": 54,
                "velocity": 32,
                "duration": 0.3795455,
                "tempo": 120.0
            },
            {
                "start_time": 5.8772727,
                "end_time": 5.9931818,
                "pitch": 57,
                "velocity": 32,
                "duration": 0.1159091,
                "tempo": 120.0
            },
            {
                "start_time": 6.0090909,
                "end_time": 6.2659091,
                "pitch": 56,
                "velocity": 32,
                "duration": 0.2568182,
                "tempo": 120.0
            },
            {
                "start_time": 6.2818182,
                "end_time": 6.4022727,
                "pitch": 54,
                "velocity": 32,
                "duration": 0.1204545,
                "tempo": 120.0
            },
            {
                "start_time": 6.4181818,
                "end_time": 6.8022727,
                "pitch": 42,
                "velocity": 32,
                "duration": 0.3840909,
                "tempo": 120.0
            },
            {
                "start_time": 6.8181818,
                "end_time": 7.0636364,
                "pitch": 46,
                "velocity": 32,
                "duration": 0.2454545,
                "tempo": 120.0
            },
            {
                "start_time": 7.0795455,
                "end_time": 7.1954545,
                "pitch": 49,
                "velocity": 32,
                "duration": 0.1159091,
                "tempo": 120.0
            },
            {
                "start_time": 7.2113636,
                "end_time": 7.5954545,
                "pitch": 47,
                "velocity": 32,
                "duration": 0.3840909,
                "tempo": 120.0
            },
            {
                "start_time": 7.6113636,
                "end_time": 7.8636364,
                "pitch": 51,
                "velocity": 32,
                "duration": 0.2522727,
                "tempo": 120.0
            },
            {
                "start_time": 7.8795455,
                "end_time": 7.9977273,
                "pitch": 54,
                "velocity": 32,
                "duration": 0.1181818,
                "tempo": 120.0
            },
            {
                "start_time": 8.2818182,
                "end_time": 8.4,
                "pitch": 49,
                "velocity": 32,
                "duration": 0.1181818,
                "tempo": 120.0
            },
            {
                "start_time": 8.4159091,
                "end_time": 8.6681818,
                "pitch": 53,
                "velocity": 32,
                "duration": 0.2522727,
                "tempo": 120.0
            },
            {
                "start_time": 8.6863636,
                "end_time": 8.8022727,
                "pitch": 56,
                "velocity": 32,
                "duration": 0.1159091,
                "tempo": 120.0
            },
            {
                "start_time": 8.8204545,
                "end_time": 9.0704545,
                "pitch": 54,
                "velocity": 32,
                "duration": 0.25,
                "tempo": 120.0
            },
            {
                "start_time": 9.0863636,
                "end_time": 9.2022727,
                "pitch": 54,
                "velocity": 32,
                "duration": 0.1159091,
                "tempo": 120.0
            },
            {
                "start_time": 9.2204545,
                "end_time": 9.4704545,
                "pitch": 58,
                "velocity": 32,
                "duration": 0.25,
                "tempo": 120.0
            },
            {
                "start_time": 9.4886364,
                "end_time": 9.6045455,
                "pitch": 61,
                "velocity": 32,
                "duration": 0.1159091,
                "tempo": 120.0
            },
            {
                "start_time": 9.6227273,
                "end_time": 10.0159091,
                "pitch": 42,
                "velocity": 32,
                "duration": 0.3931818,
                "tempo": 120.0
            },
            {
                "start_time": 10.0318182,
                "end_time": 10.2772727,
                "pitch": 46,
                "velocity": 32,
                "duration": 0.2454545,
                "tempo": 120.0
            },
            {
                "start_time": 10.2931818,
                "end_time": 10.4090909,
                "pitch": 49,
                "velocity": 32,
                "duration": 0.1159091,
                "tempo": 120.0
            },
            {
                "start_time": 10.425,
                "end_time": 10.8113636,
                "pitch": 47,
                "velocity": 32,
                "duration": 0.3863636,
                "tempo": 120.0
            },
            {
                "start_time": 10.8272727,
                "end_time": 11.0840909,
                "pitch": 51,
                "velocity": 32,
                "duration": 0.2568182,
                "tempo": 120.0
            },
            {
                "start_time": 11.1022727,
                "end_time": 11.2204545,
                "pitch": 54,
                "velocity": 32,
                "duration": 0.1181818,
                "tempo": 120.0
            },
            {
                "start_time": 11.2386364,
                "end_time": 11.4909091,
                "pitch": 49,
                "velocity": 32,
                "duration": 0.2522727,
                "tempo": 120.0
            },
            {
                "start_time": 11.5068182,
                "end_time": 11.625,
                "pitch": 53,
                "velocity": 32,
                "duration": 0.1181818,
                "tempo": 120.0
            },
            {
                "start_time": 11.6409091,
                "end_time": 11.8931818,
                "pitch": 56,
                "velocity": 32,
                "duration": 0.2522727,
                "tempo": 120.0
            },
            {
                "start_time": 11.9090909,
                "end_time": 12.2886364,
                "pitch": 54,
                "velocity": 32,
                "duration": 0.3795455,
                "tempo": 120.0
            },
            {
                "start_time": 12.3045455,
                "end_time": 12.4204545,
                "pitch": 57,
                "velocity": 32,
                "duration": 0.1159091,
                "tempo": 120.0
            },
            {
                "start_time": 12.4363636,
                "end_time": 12.6931818,
                "pitch": 56,
                "velocity": 32,
                "duration": 0.2568182,
                "tempo": 120.0
            },
            {
                "start_time": 12.7090909,
                "end_time": 12.8295455,
                "pitch": 54,
                "velocity": 32,
                "duration": 0.1204545,
                "tempo": 120.0
            },
            {
                "start_time": 12.8477273,
                "end_time": 13.2295455,
                "pitch": 49,
                "velocity": 32,
                "duration": 0.3818182,
                "tempo": 120.0
            },
            {
                "start_time": 13.2477273,
                "end_time": 13.6318182,
                "pitch": 49,
                "velocity": 32,
                "duration": 0.3840909,
                "tempo": 120.0
            },
            {
                "start_time": 13.65,
                "end_time": 13.8954545,
                "pitch": 53,
                "velocity": 32,
                "duration": 0.2454545,
                "tempo": 120.0
            },
            {
                "start_time": 13.9113636,
                "end_time": 14.025,
                "pitch": 49,
                "velocity": 32,
                "duration": 0.1136364,
                "tempo": 120.0
            },
            {
                "start_time": 14.3159091,
                "end_time": 14.4363636,
                "pitch": 56,
                "velocity": 32,
                "duration": 0.1204545,
                "tempo": 120.0
            },
            {
                "start_time": 15.1113636,
                "end_time": 15.2272727,
                "pitch": 53,
                "velocity": 32,
                "duration": 0.1159091,
                "tempo": 120.0
            },
            {
                "start_time": 15.2454545,
                "end_time": 15.6295455,
                "pitch": 54,
                "velocity": 32,
                "duration": 0.3840909,
                "tempo": 120.0
            },
            {
                "start_time": 15.6477273,
                "end_time": 15.9045455,
                "pitch": 56,
                "velocity": 32,
                "duration": 0.2568182,
                "tempo": 120.0
            },
            {
                "start_time": 15.9204545,
                "end_time": 16.0409091,
                "pitch": 54,
                "velocity": 32,
                "duration": 0.1204545,
                "tempo": 120.0
            },
            {
                "start_time": 16.0590909,
                "end_time": 16.4431818,
                "pitch": 54,
                "velocity": 32,
                "duration": 0.3840909,
                "tempo": 120.0
            },
            {
                "start_time": 16.4613636,
                "end_time": 16.8477273,
                "pitch": 54,
                "velocity": 32,
                "duration": 0.3863636,
                "tempo": 120.0
            },
            {
                "start_time": 16.8636364,
                "end_time": 17.1090909,
                "pitch": 58,
                "velocity": 32,
                "duration": 0.2454545,
                "tempo": 120.0
            },
            {
                "start_time": 17.125,
                "end_time": 17.2386364,
                "pitch": 54,
                "velocity": 32,
                "duration": 0.1136364,
                "tempo": 120.0
            },
            {
                "start_time": 17.5295455,
                "end_time": 17.65,
                "pitch": 61,
                "velocity": 32,
                "duration": 0.1204545,
                "tempo": 120.0
            },
            {
                "start_time": 18.3272727,
                "end_time": 18.4431818,
                "pitch": 62,
                "velocity": 32,
                "duration": 0.1159091,
                "tempo": 120.0
            },
            {
                "start_time": 18.4613636,
                "end_time": 18.7113636,
                "pitch": 61,
                "velocity": 32,
                "duration": 0.25,
                "tempo": 120.0
            },
            {
                "start_time": 18.7272727,
                "end_time": 18.8431818,
                "pitch": 59,
                "velocity": 32,
                "duration": 0.1159091,
                "tempo": 120.0
            },
            {
                "start_time": 18.8613636,
                "end_time": 19.1181818,
                "pitch": 58,
                "velocity": 32,
                "duration": 0.2568182,
                "tempo": 120.0
            },
            {
                "start_time": 19.1340909,
                "end_time": 19.2545455,
                "pitch": 56,
                "velocity": 32,
                "duration": 0.1204545,
                "tempo": 120.0
            },
            {
                "start_time": 19.2727273,
                "end_time": 19.6659091,
                "pitch": 49,
                "velocity": 32,
                "duration": 0.3931818,
                "tempo": 120.0
            },
            {
                "start_time": 19.6818182,
                "end_time": 20.0590909,
                "pitch": 49,
                "velocity": 32,
                "duration": 0.3772727,
                "tempo": 120.0
            },
            {
                "start_time": 20.075,
                "end_time": 20.3204545,
                "pitch": 53,
                "velocity": 32,
                "duration": 0.2454545,
                "tempo": 120.0
            },
            {
                "start_time": 20.3363636,
                "end_time": 20.45,
                "pitch": 49,
                "velocity": 32,
                "duration": 0.1136364,
                "tempo": 120.0
            },
            {
                "start_time": 20.7409091,
                "end_time": 20.8613636,
                "pitch": 56,
                "velocity": 32,
                "duration": 0.1204545,
                "tempo": 120.0
            },
            {
                "start_time": 21.5363636,
                "end_time": 21.6522727,
                "pitch": 53,
                "velocity": 32,
                "duration": 0.1159091,
                "tempo": 120.0
            },
            {
                "start_time": 21.6704545,
                "end_time": 22.0522727,
                "pitch": 54,
                "velocity": 32,
                "duration": 0.3818182,
                "tempo": 120.0
            },
            {
                "start_time": 22.0704545,
                "end_time": 22.3272727,
                "pitch": 56,
                "velocity": 32,
                "duration": 0.2568182,
                "tempo": 120.0
            },
            {
                "start_time": 22.3431818,
                "end_time": 22.4636364,
                "pitch": 54,
                "velocity": 32,
                "duration": 0.1204545,
                "tempo": 120.0
            },
            {
                "start_time": 22.4818182,
                "end_time": 22.875,
                "pitch": 54,
                "velocity": 32,
                "duration": 0.3931818,
                "tempo": 120.0
            },
            {
                "start_time": 22.8909091,
                "end_time": 23.2681818,
                "pitch": 54,
                "velocity": 32,
                "duration": 0.3772727,
                "tempo": 120.0
            },
            {
                "start_time": 23.2840909,
                "end_time": 23.5295455,
                "pitch": 58,
                "velocity": 32,
                "duration": 0.2454545,
                "tempo": 120.0
            },
            {
                "start_time": 23.5454545,
                "end_time": 23.6590909,
                "pitch": 54,
                "velocity": 32,
                "duration": 0.1136364,
                "tempo": 120.0
            },
            {
                "start_time": 23.95,
                "end_time": 24.0704545,
                "pitch": 61,
                "velocity": 32,
                "duration": 0.1204545,
                "tempo": 120.0
            },
            {
                "start_time": 24.7454545,
                "end_time": 24.8613636,
                "pitch": 62,
                "velocity": 32,
                "duration": 0.1159091,
                "tempo": 120.0
            },
            {
                "start_time": 24.8795455,
                "end_time": 25.1318182,
                "pitch": 61,
                "velocity": 32,
                "duration": 0.2522727,
                "tempo": 120.0
            },
            {
                "start_time": 25.1477273,
                "end_time": 25.2659091,
                "pitch": 59,
                "velocity": 32,
                "duration": 0.1181818,
                "tempo": 120.0
            },
            {
                "start_time": 25.2818182,
                "end_time": 25.5386364,
                "pitch": 58,
                "velocity": 32,
                "duration": 0.2568182,
                "tempo": 120.0
            },
            {
                "start_time": 25.5545455,
                "end_time": 25.675,
                "pitch": 56,
                "velocity": 32,
                "duration": 0.1204545,
                "tempo": 120.0
            },
            {
                "start_time": 25.6931818,
                "end_time": 26.0863636,
                "pitch": 49,
                "velocity": 32,
                "duration": 0.3931818,
                "tempo": 120.0
            },
            {
                "start_time": 26.1045455,
                "end_time": 26.4795455,
                "pitch": 49,
                "velocity": 32,
                "duration": 0.375,
                "tempo": 120.0
            },
            {
                "start_time": 26.4954545,
                "end_time": 26.7409091,
                "pitch": 53,
                "velocity": 32,
                "duration": 0.2454545,
                "tempo": 120.0
            },
            {
                "start_time": 26.7568182,
                "end_time": 26.8727273,
                "pitch": 49,
                "velocity": 32,
                "duration": 0.1159091,
                "tempo": 120.0
            },
            {
                "start_time": 27.1613636,
                "end_time": 27.2818182,
                "pitch": 56,
                "velocity": 32,
                "duration": 0.1204545,
                "tempo": 120.0
            },
            {
                "start_time": 27.9568182,
                "end_time": 28.075,
                "pitch": 53,
                "velocity": 32,
                "duration": 0.1181818,
                "tempo": 120.0
            },
            {
                "start_time": 28.0909091,
                "end_time": 28.4772727,
                "pitch": 54,
                "velocity": 32,
                "duration": 0.3863636,
                "tempo": 120.0
            },
            {
                "start_time": 28.4931818,
                "end_time": 28.75,
                "pitch": 56,
                "velocity": 32,
                "duration": 0.2568182,
                "tempo": 120.0
            },
            {
                "start_time": 28.7681818,
                "end_time": 28.8863636,
                "pitch": 54,
                "velocity": 32,
                "duration": 0.1181818,
                "tempo": 120.0
            },
            {
                "start_time": 28.9045455,
                "end_time": 29.2977273,
                "pitch": 54,
                "velocity": 32,
                "duration": 0.3931818,
                "tempo": 120.0
            },
            {
                "start_time": 29.3159091,
                "end_time": 29.6909091,
                "pitch": 54,
                "velocity": 32,
                "duration": 0.375,
                "tempo": 120.0
            },
            {
                "start_time": 29.7068182,
                "end_time": 29.9522727,
                "pitch": 58,
                "velocity": 32,
                "duration": 0.2454545,
                "tempo": 120.0
            },
            {
                "start_time": 29.9681818,
                "end_time": 30.0840909,
                "pitch": 54,
                "velocity": 32,
                "duration": 0.1159091,
                "tempo": 120.0
            },
            {
                "start_time": 30.3727273,
                "end_time": 30.4931818,
                "pitch": 61,
                "velocity": 32,
                "duration": 0.1204545,
                "tempo": 120.0
            },
            {
                "start_time": 31.1704545,
                "end_time": 31.2886364,
                "pitch": 62,
                "velocity": 32,
                "duration": 0.1181818,
                "tempo": 120.0
            },
            {
                "start_time": 31.3045455,
                "end_time": 31.5545455,
                "pitch": 61,
                "velocity": 32,
                "duration": 0.25,
                "tempo": 120.0
            },
            {
                "start_time": 31.5727273,
                "end_time": 31.6886364,
                "pitch": 59,
                "velocity": 32,
                "duration": 0.1159091,
                "tempo": 120.0
            },
            {
                "start_time": 31.7045455,
                "end_time": 31.9613636,
                "pitch": 58,
                "velocity": 32,
                "duration": 0.2568182,
                "tempo": 120.0
            },
            {
                "start_time": 31.9795455,
                "end_time": 32.1,
                "pitch": 56,
                "velocity": 32,
                "duration": 0.1204545,
                "tempo": 120.0
            },
            {
                "start_time": 32.1159091,
                "end_time": 32.5090909,
                "pitch": 49,
                "velocity": 32,
                "duration": 0.3931818,
                "tempo": 120.0
            },
            {
                "start_time": 32.5272727,
                "end_time": 32.9022727,
                "pitch": 49,
                "velocity": 32,
                "duration": 0.375,
                "tempo": 120.0
            },
            {
                "start_time": 32.9204545,
                "end_time": 33.1636364,
                "pitch": 53,
                "velocity": 32,
                "duration": 0.2431818,
                "tempo": 120.0
            },
            {
                "start_time": 33.1818182,
                "end_time": 33.2954545,
                "pitch": 49,
                "velocity": 32,
                "duration": 0.1136364,
                "tempo": 120.0
            },
            {
                "start_time": 33.5863636,
                "end_time": 33.7045455,
                "pitch": 56,
                "velocity": 32,
                "duration": 0.1181818,
                "tempo": 120.0
            },
            {
                "start_time": 34.3818182,
                "end_time": 34.4977273,
                "pitch": 53,
                "velocity": 32,
                "duration": 0.1159091,
                "tempo": 120.0
            },
            {
                "start_time": 34.5136364,
                "end_time": 34.9,
                "pitch": 54,
                "velocity": 32,
                "duration": 0.3863636,
                "tempo": 120.0
            },
            {
                "start_time": 34.9181818,
                "end_time": 35.175,
                "pitch": 56,
                "velocity": 32,
                "duration": 0.2568182,
                "tempo": 120.0
            },
            {
                "start_time": 35.1909091,
                "end_time": 35.3113636,
                "pitch": 54,
                "velocity": 32,
                "duration": 0.1204545,
                "tempo": 120.0
            },
            {
                "start_time": 35.3272727,
                "end_time": 35.7227273,
                "pitch": 54,
                "velocity": 32,
                "duration": 0.3954545,
                "tempo": 120.0
            },
            {
                "start_time": 35.7386364,
                "end_time": 35.9840909,
                "pitch": 54,
                "velocity": 32,
                "duration": 0.2454545,
                "tempo": 120.0
            },
            {
                "start_time": 36.0,
                "end_time": 36.0181818,
                "pitch": 55,
                "velocity": 32,
                "duration": 0.0181818,
                "tempo": 120.0
            },
            {
                "start_time": 36.0340909,
                "end_time": 36.1159091,
                "pitch": 56,
                "velocity": 32,
                "duration": 0.0818182,
                "tempo": 120.0
            },
            {
                "start_time": 36.1318182,
                "end_time": 36.3772727,
                "pitch": 57,
                "velocity": 32,
                "duration": 0.2454545,
                "tempo": 120.0
            },
            {
                "start_time": 36.3931818,
                "end_time": 36.5068182,
                "pitch": 56,
                "velocity": 32,
                "duration": 0.1136364,
                "tempo": 120.0
            },
            {
                "start_time": 36.7931818,
                "end_time": 36.9090909,
                "pitch": 54,
                "velocity": 32,
                "duration": 0.1159091,
                "tempo": 120.0
            },
            {
                "start_time": 37.7272727,
                "end_time": 38.5090909,
                "pitch": 49,
                "velocity": 32,
                "duration": 0.7818182,
                "tempo": 120.0
            },
            {
                "start_time": 38.5272727,
                "end_time": 38.9295455,
                "pitch": 42,
                "velocity": 32,
                "duration": 0.4022727,
                "tempo": 120.0
            },
            {
                "start_time": 38.9477273,
                "end_time": 39.1863636,
                "pitch": 46,
                "velocity": 32,
                "duration": 0.2386364,
                "tempo": 120.0
            },
            {
                "start_time": 39.2022727,
                "end_time": 39.3136364,
                "pitch": 49,
                "velocity": 32,
                "duration": 0.1113636,
                "tempo": 120.0
            },
            {
                "start_time": 39.3295455,
                "end_time": 39.7136364,
                "pitch": 47,
                "velocity": 32,
                "duration": 0.3840909,
                "tempo": 120.0
            },
            {
                "start_time": 39.7295455,
                "end_time": 39.9795455,
                "pitch": 51,
                "velocity": 32,
                "duration": 0.25,
                "tempo": 120.0
            },
            {
                "start_time": 39.9977273,
                "end_time": 40.1136364,
                "pitch": 54,
                "velocity": 32,
                "duration": 0.1159091,
                "tempo": 120.0
            },
            {
                "start_time": 40.3977273,
                "end_time": 40.5136364,
                "pitch": 49,
                "velocity": 32,
                "duration": 0.1159091,
                "tempo": 120.0
            },
            {
                "start_time": 40.5295455,
                "end_time": 40.7818182,
                "pitch": 53,
                "velocity": 32,
                "duration": 0.2522727,
                "tempo": 120.0
            },
            {
                "start_time": 40.7977273,
                "end_time": 40.9159091,
                "pitch": 56,
                "velocity": 32,
                "duration": 0.1181818,
                "tempo": 120.0
            },
            {
                "start_time": 40.9318182,
                "end_time": 41.1818182,
                "pitch": 54,
                "velocity": 32,
                "duration": 0.25,
                "tempo": 120.0
            },
            {
                "start_time": 41.2,
                "end_time": 41.3159091,
                "pitch": 54,
                "velocity": 32,
                "duration": 0.1159091,
                "tempo": 120.0
            },
            {
                "start_time": 41.3318182,
                "end_time": 41.5818182,
                "pitch": 58,
                "velocity": 32,
                "duration": 0.25,
                "tempo": 120.0
            },
            {
                "start_time": 41.6,
                "end_time": 41.7159091,
                "pitch": 61,
                "velocity": 32,
                "duration": 0.1159091,
                "tempo": 120.0
            },
            {
                "start_time": 41.7318182,
                "end_time": 42.1363636,
                "pitch": 42,
                "velocity": 32,
                "duration": 0.4045455,
                "tempo": 120.0
            },
            {
                "start_time": 42.1545455,
                "end_time": 42.3931818,
                "pitch": 46,
                "velocity": 32,
                "duration": 0.2386364,
                "tempo": 120.0
            },
            {
                "start_time": 42.4090909,
                "end_time": 42.5204545,
                "pitch": 49,
                "velocity": 32,
                "duration": 0.1113636,
                "tempo": 120.0
            },
            {
                "start_time": 42.5363636,
                "end_time": 42.9227273,
                "pitch": 47,
                "velocity": 32,
                "duration": 0.3863636,
                "tempo": 120.0
            },
            {
                "start_time": 42.9386364,
                "end_time": 43.1954545,
                "pitch": 51,
                "velocity": 32,
                "duration": 0.2568182,
                "tempo": 120.0
            },
            {
                "start_time": 43.2136364,
                "end_time": 43.3318182,
                "pitch": 54,
                "velocity": 32,
                "duration": 0.1181818,
                "tempo": 120.0
            },
            {
                "start_time": 43.35,
                "end_time": 43.6068182,
                "pitch": 49,
                "velocity": 32,
                "duration": 0.2568182,
                "tempo": 120.0
            },
            {
                "start_time": 43.6227273,
                "end_time": 43.7431818,
                "pitch": 53,
                "velocity": 32,
                "duration": 0.1204545,
                "tempo": 120.0
            },
            {
                "start_time": 43.7613636,
                "end_time": 44.0068182,
                "pitch": 56,
                "velocity": 32,
                "duration": 0.2454545,
                "tempo": 120.0
            },
            {
                "start_time": 44.0227273,
                "end_time": 44.3977273,
                "pitch": 54,
                "velocity": 32,
                "duration": 0.375,
                "tempo": 120.0
            },
            {
                "start_time": 44.4136364,
                "end_time": 44.5295455,
                "pitch": 57,
                "velocity": 32,
                "duration": 0.1159091,
                "tempo": 120.0
            },
            {
                "start_time": 44.5454545,
                "end_time": 44.8022727,
                "pitch": 56,
                "velocity": 32,
                "duration": 0.2568182,
                "tempo": 120.0
            },
            {
                "start_time": 44.8181818,
                "end_time": 44.9386364,
                "pitch": 54,
                "velocity": 32,
                "duration": 0.1204545,
                "tempo": 120.0
            },
            {
                "start_time": 44.9568182,
                "end_time": 45.35,
                "pitch": 42,
                "velocity": 32,
                "duration": 0.3931818,
                "tempo": 120.0
            },
            {
                "start_time": 45.3659091,
                "end_time": 45.6045455,
                "pitch": 46,
                "velocity": 32,
                "duration": 0.2386364,
                "tempo": 120.0
            },
            {
                "start_time": 45.6204545,
                "end_time": 45.7318182,
                "pitch": 49,
                "velocity": 32,
                "duration": 0.1113636,
                "tempo": 120.0
            },
            {
                "start_time": 45.75,
                "end_time": 46.1318182,
                "pitch": 47,
                "velocity": 32,
                "duration": 0.3818182,
                "tempo": 120.0
            },
            {
                "start_time": 46.15,
                "end_time": 46.4045455,
                "pitch": 51,
                "velocity": 32,
                "duration": 0.2545455,
                "tempo": 120.0
            },
            {
                "start_time": 46.4227273,
                "end_time": 46.5431818,
                "pitch": 54,
                "velocity": 32,
                "duration": 0.1204545,
                "tempo": 120.0
            },
            {
                "start_time": 46.8204545,
                "end_time": 46.9363636,
                "pitch": 49,
                "velocity": 32,
                "duration": 0.1159091,
                "tempo": 120.0
            },
            {
                "start_time": 46.9522727,
                "end_time": 47.2022727,
                "pitch": 53,
                "velocity": 32,
                "duration": 0.25,
                "tempo": 120.0
            },
            {
                "start_time": 47.2181818,
                "end_time": 47.3340909,
                "pitch": 56,
                "velocity": 32,
                "duration": 0.1159091,
                "tempo": 120.0
            },
            {
                "start_time": 47.3522727,
                "end_time": 47.6022727,
                "pitch": 54,
                "velocity": 32,
                "duration": 0.25,
                "tempo": 120.0
            },
            {
                "start_time": 47.6181818,
                "end_time": 47.7340909,
                "pitch": 54,
                "velocity": 32,
                "duration": 0.1159091,
                "tempo": 120.0
            },
            {
                "start_time": 47.7522727,
                "end_time": 48.0022727,
                "pitch": 58,
                "velocity": 32,
                "duration": 0.25,
                "tempo": 120.0
            },
            {
                "start_time": 48.0181818,
                "end_time": 48.1340909,
                "pitch": 61,
                "velocity": 32,
                "duration": 0.1159091,
                "tempo": 120.0
            },
            {
                "start_time": 48.1522727,
                "end_time": 48.5568182,
                "pitch": 42,
                "velocity": 32,
                "duration": 0.4045455,
                "tempo": 120.0
            },
            {
                "start_time": 48.5727273,
                "end_time": 48.8113636,
                "pitch": 46,
                "velocity": 32,
                "duration": 0.2386364,
                "tempo": 120.0
            },
            {
                "start_time": 48.8272727,
                "end_time": 48.9386364,
                "pitch": 49,
                "velocity": 32,
                "duration": 0.1113636,
                "tempo": 120.0
            },
            {
                "start_time": 48.9545455,
                "end_time": 49.3386364,
                "pitch": 47,
                "velocity": 32,
                "duration": 0.3840909,
                "tempo": 120.0
            },
            {
                "start_time": 49.3545455,
                "end_time": 49.6045455,
                "pitch": 51,
                "velocity": 32,
                "duration": 0.25,
                "tempo": 120.0
            },
            {
                "start_time": 49.6227273,
                "end_time": 49.7386364,
                "pitch": 54,
                "velocity": 32,
                "duration": 0.1159091,
                "tempo": 120.0
            },
            {
                "start_time": 49.7545455,
                "end_time": 50.0181818,
                "pitch": 49,
                "velocity": 32,
                "duration": 0.2636364,
                "tempo": 120.0
            },
            {
                "start_time": 50.0363636,
                "end_time": 50.1590909,
                "pitch": 53,
                "velocity": 32,
                "duration": 0.1227273,
                "tempo": 120.0
            },
            {
                "start_time": 50.1772727,
                "end_time": 50.4227273,
                "pitch": 56,
                "velocity": 32,
                "duration": 0.2454545,
                "tempo": 120.0
            },
            {
                "start_time": 50.4386364,
                "end_time": 50.8136364,
                "pitch": 54,
                "velocity": 32,
                "duration": 0.375,
                "tempo": 120.0
            },
            {
                "start_time": 50.8318182,
                "end_time": 50.9454545,
                "pitch": 57,
                "velocity": 32,
                "duration": 0.1136364,
                "tempo": 120.0
            },
            {
                "start_time": 50.9613636,
                "end_time": 51.2181818,
                "pitch": 56,
                "velocity": 32,
                "duration": 0.2568182,
                "tempo": 120.0
            },
            {
                "start_time": 51.2363636,
                "end_time": 51.3545455,
                "pitch": 54,
                "velocity": 32,
                "duration": 0.1181818,
                "tempo": 120.0
            },
            {
                "start_time": 51.3727273,
                "end_time": 51.7659091,
                "pitch": 49,
                "velocity": 32,
                "duration": 0.3931818,
                "tempo": 120.0
            },
            {
                "start_time": 51.7840909,
                "end_time": 52.1590909,
                "pitch": 49,
                "velocity": 32,
                "duration": 0.375,
                "tempo": 120.0
            },
            {
                "start_time": 52.175,
                "end_time": 52.4204545,
                "pitch": 53,
                "velocity": 32,
                "duration": 0.2454545,
                "tempo": 120.0
            },
            {
                "start_time": 52.4363636,
                "end_time": 52.5522727,
                "pitch": 49,
                "velocity": 32,
                "duration": 0.1159091,
                "tempo": 120.0
            },
            {
                "start_time": 52.8409091,
                "end_time": 52.9613636,
                "pitch": 56,
                "velocity": 32,
                "duration": 0.1204545,
                "tempo": 120.0
            },
            {
                "start_time": 53.6363636,
                "end_time": 53.7545455,
                "pitch": 53,
                "velocity": 32,
                "duration": 0.1181818,
                "tempo": 120.0
            },
            {
                "start_time": 53.7704545,
                "end_time": 54.1545455,
                "pitch": 54,
                "velocity": 32,
                "duration": 0.3840909,
                "tempo": 120.0
            },
            {
                "start_time": 54.1704545,
                "end_time": 54.4272727,
                "pitch": 56,
                "velocity": 32,
                "duration": 0.2568182,
                "tempo": 120.0
            },
            {
                "start_time": 54.4454545,
                "end_time": 54.5636364,
                "pitch": 54,
                "velocity": 32,
                "duration": 0.1181818,
                "tempo": 120.0
            },
            {
                "start_time": 54.5818182,
                "end_time": 54.9659091,
                "pitch": 54,
                "velocity": 32,
                "duration": 0.3840909,
                "tempo": 120.0
            },
            {
                "start_time": 54.9818182,
                "end_time": 55.3659091,
                "pitch": 54,
                "velocity": 32,
                "duration": 0.3840909,
                "tempo": 120.0
            },
            {
                "start_time": 55.3818182,
                "end_time": 55.6272727,
                "pitch": 58,
                "velocity": 32,
                "duration": 0.2454545,
                "tempo": 120.0
            },
            {
                "start_time": 55.6431818,
                "end_time": 55.7568182,
                "pitch": 54,
                "velocity": 32,
                "duration": 0.1136364,
                "tempo": 120.0
            },
            {
                "start_time": 56.0477273,
                "end_time": 56.1681818,
                "pitch": 61,
                "velocity": 32,
                "duration": 0.1204545,
                "tempo": 120.0
            },
            {
                "start_time": 56.8454545,
                "end_time": 56.9613636,
                "pitch": 62,
                "velocity": 32,
                "duration": 0.1159091,
                "tempo": 120.0
            },
            {
                "start_time": 56.9795455,
                "end_time": 57.2295455,
                "pitch": 61,
                "velocity": 32,
                "duration": 0.25,
                "tempo": 120.0
            },
            {
                "start_time": 57.2454545,
                "end_time": 57.3636364,
                "pitch": 59,
                "velocity": 32,
                "duration": 0.1181818,
                "tempo": 120.0
            },
            {
                "start_time": 57.3795455,
                "end_time": 57.6363636,
                "pitch": 58,
                "velocity": 32,
                "duration": 0.2568182,
                "tempo": 120.0
            },
            {
                "start_time": 57.6522727,
                "end_time": 57.7727273,
                "pitch": 56,
                "velocity": 32,
                "duration": 0.1204545,
                "tempo": 120.0
            },
            {
                "start_time": 57.7909091,
                "end_time": 58.1840909,
                "pitch": 49,
                "velocity": 32,
                "duration": 0.3931818,
                "tempo": 120.0
            },
            {
                "start_time": 58.2,
                "end_time": 58.5772727,
                "pitch": 49,
                "velocity": 32,
                "duration": 0.3772727,
                "tempo": 120.0
            },
            {
                "start_time": 58.5931818,
                "end_time": 58.8386364,
                "pitch": 53,
                "velocity": 32,
                "duration": 0.2454545,
                "tempo": 120.0
            },
            {
                "start_time": 58.8545455,
                "end_time": 58.9681818,
                "pitch": 49,
                "velocity": 32,
                "duration": 0.1136364,
                "tempo": 120.0
            },
            {
                "start_time": 59.2590909,
                "end_time": 59.3795455,
                "pitch": 56,
                "velocity": 32,
                "duration": 0.1204545,
                "tempo": 120.0
            },
            {
                "start_time": 60.0545455,
                "end_time": 60.1727273,
                "pitch": 53,
                "velocity": 32,
                "duration": 0.1181818,
                "tempo": 120.0
            },
            {
                "start_time": 60.1886364,
                "end_time": 60.5727273,
                "pitch": 54,
                "velocity": 32,
                "duration": 0.3840909,
                "tempo": 120.0
            },
            {
                "start_time": 60.5886364,
                "end_time": 60.8454545,
                "pitch": 56,
                "velocity": 32,
                "duration": 0.2568182,
                "tempo": 120.0
            },
            {
                "start_time": 60.8613636,
                "end_time": 60.9818182,
                "pitch": 54,
                "velocity": 32,
                "duration": 0.1204545,
                "tempo": 120.0
            },
            {
                "start_time": 61.0,
                "end_time": 61.3931818,
                "pitch": 54,
                "velocity": 32,
                "duration": 0.3931818,
                "tempo": 120.0
            },
            {
                "start_time": 61.4090909,
                "end_time": 61.7863636,
                "pitch": 54,
                "velocity": 32,
                "duration": 0.3772727,
                "tempo": 120.0
            },
            {
                "start_time": 61.8022727,
                "end_time": 62.0477273,
                "pitch": 58,
                "velocity": 32,
                "duration": 0.2454545,
                "tempo": 120.0
            },
            {
                "start_time": 62.0636364,
                "end_time": 62.1772727,
                "pitch": 54,
                "velocity": 32,
                "duration": 0.1136364,
                "tempo": 120.0
            },
            {
                "start_time": 62.4681818,
                "end_time": 62.5886364,
                "pitch": 61,
                "velocity": 32,
                "duration": 0.1204545,
                "tempo": 120.0
            },
            {
                "start_time": 63.2636364,
                "end_time": 63.3818182,
                "pitch": 62,
                "velocity": 32,
                "duration": 0.1181818,
                "tempo": 120.0
            },
            {
                "start_time": 63.3977273,
                "end_time": 63.6477273,
                "pitch": 61,
                "velocity": 32,
                "duration": 0.25,
                "tempo": 120.0
            },
            {
                "start_time": 63.6636364,
                "end_time": 63.7818182,
                "pitch": 59,
                "velocity": 32,
                "duration": 0.1181818,
                "tempo": 120.0
            },
            {
                "start_time": 63.7977273,
                "end_time": 64.0545455,
                "pitch": 58,
                "velocity": 32,
                "duration": 0.2568182,
                "tempo": 120.0
            },
            {
                "start_time": 64.0704545,
                "end_time": 64.1909091,
                "pitch": 56,
                "velocity": 32,
                "duration": 0.1204545,
                "tempo": 120.0
            },
            {
                "start_time": 64.2090909,
                "end_time": 64.6022727,
                "pitch": 49,
                "velocity": 32,
                "duration": 0.3931818,
                "tempo": 120.0
            },
            {
                "start_time": 64.6181818,
                "end_time": 64.9954545,
                "pitch": 49,
                "velocity": 32,
                "duration": 0.3772727,
                "tempo": 120.0
            },
            {
                "start_time": 65.0113636,
                "end_time": 65.2568182,
                "pitch": 53,
                "velocity": 32,
                "duration": 0.2454545,
                "tempo": 120.0
            },
            {
                "start_time": 65.2727273,
                "end_time": 65.3863636,
                "pitch": 49,
                "velocity": 32,
                "duration": 0.1136364,
                "tempo": 120.0
            },
            {
                "start_time": 65.6772727,
                "end_time": 65.7977273,
                "pitch": 56,
                "velocity": 32,
                "duration": 0.1204545,
                "tempo": 120.0
            },
            {
                "start_time": 66.475,
                "end_time": 66.5931818,
                "pitch": 53,
                "velocity": 32,
                "duration": 0.1181818,
                "tempo": 120.0
            },
            {
                "start_time": 66.6090909,
                "end_time": 66.9931818,
                "pitch": 54,
                "velocity": 32,
                "duration": 0.3840909,
                "tempo": 120.0
            },
            {
                "start_time": 67.0090909,
                "end_time": 67.2659091,
                "pitch": 56,
                "velocity": 32,
                "duration": 0.2568182,
                "tempo": 120.0
            },
            {
                "start_time": 67.2818182,
                "end_time": 67.4022727,
                "pitch": 54,
                "velocity": 32,
                "duration": 0.1204545,
                "tempo": 120.0
            },
            {
                "start_time": 67.4204545,
                "end_time": 67.8136364,
                "pitch": 54,
                "velocity": 32,
                "duration": 0.3931818,
                "tempo": 120.0
            },
            {
                "start_time": 67.8318182,
                "end_time": 68.2068182,
                "pitch": 54,
                "velocity": 32,
                "duration": 0.375,
                "tempo": 120.0
            },
            {
                "start_time": 68.2227273,
                "end_time": 68.4681818,
                "pitch": 58,
                "velocity": 32,
                "duration": 0.2454545,
                "tempo": 120.0
            },
            {
                "start_time": 68.4840909,
                "end_time": 68.6,
                "pitch": 54,
                "velocity": 32,
                "duration": 0.1159091,
                "tempo": 120.0
            },
            {
                "start_time": 68.8886364,
                "end_time": 69.0090909,
                "pitch": 61,
                "velocity": 32,
                "duration": 0.1204545,
                "tempo": 120.0
            },
            {
                "start_time": 69.6863636,
                "end_time": 69.8045455,
                "pitch": 62,
                "velocity": 32,
                "duration": 0.1181818,
                "tempo": 120.0
            },
            {
                "start_time": 69.8204545,
                "end_time": 70.0704545,
                "pitch": 61,
                "velocity": 32,
                "duration": 0.25,
                "tempo": 120.0
            },
            {
                "start_time": 70.0886364,
                "end_time": 70.2045455,
                "pitch": 59,
                "velocity": 32,
                "duration": 0.1159091,
                "tempo": 120.0
            },
            {
                "start_time": 70.2204545,
                "end_time": 70.4772727,
                "pitch": 58,
                "velocity": 32,
                "duration": 0.2568182,
                "tempo": 120.0
            },
            {
                "start_time": 70.4954545,
                "end_time": 70.6136364,
                "pitch": 56,
                "velocity": 32,
                "duration": 0.1181818,
                "tempo": 120.0
            },
            {
                "start_time": 70.6318182,
                "end_time": 71.025,
                "pitch": 49,
                "velocity": 32,
                "duration": 0.3931818,
                "tempo": 120.0
            },
            {
                "start_time": 71.0431818,
                "end_time": 71.4181818,
                "pitch": 49,
                "velocity": 32,
                "duration": 0.375,
                "tempo": 120.0
            },
            {
                "start_time": 71.4340909,
                "end_time": 71.6795455,
                "pitch": 53,
                "velocity": 32,
                "duration": 0.2454545,
                "tempo": 120.0
            },
            {
                "start_time": 71.6954545,
                "end_time": 71.8113636,
                "pitch": 49,
                "velocity": 32,
                "duration": 0.1159091,
                "tempo": 120.0
            },
            {
                "start_time": 72.1,
                "end_time": 72.2204545,
                "pitch": 56,
                "velocity": 32,
                "duration": 0.1204545,
                "tempo": 120.0
            },
            {
                "start_time": 72.8977273,
                "end_time": 73.0136364,
                "pitch": 53,
                "velocity": 32,
                "duration": 0.1159091,
                "tempo": 120.0
            },
            {
                "start_time": 73.0295455,
                "end_time": 73.4159091,
                "pitch": 54,
                "velocity": 32,
                "duration": 0.3863636,
                "tempo": 120.0
            },
            {
                "start_time": 73.4318182,
                "end_time": 73.6886364,
                "pitch": 56,
                "velocity": 32,
                "duration": 0.2568182,
                "tempo": 120.0
            },
            {
                "start_time": 73.7068182,
                "end_time": 73.8272727,
                "pitch": 54,
                "velocity": 32,
                "duration": 0.1204545,
                "tempo": 120.0
            },
            {
                "start_time": 73.8431818,
                "end_time": 74.2363636,
                "pitch": 54,
                "velocity": 32,
                "duration": 0.3931818,
                "tempo": 120.0
            },
            {
                "start_time": 74.2545455,
                "end_time": 74.5,
                "pitch": 54,
                "velocity": 32,
                "duration": 0.2454545,
                "tempo": 120.0
            },
            {
                "start_time": 74.5159091,
                "end_time": 74.5318182,
                "pitch": 55,
                "velocity": 32,
                "duration": 0.0159091,
                "tempo": 120.0
            },
            {
                "start_time": 74.55,
                "end_time": 74.6295455,
                "pitch": 56,
                "velocity": 32,
                "duration": 0.0795455,
                "tempo": 120.0
            },
            {
                "start_time": 74.6477273,
                "end_time": 74.8909091,
                "pitch": 57,
                "velocity": 32,
                "duration": 0.2431818,
                "tempo": 120.0
            },
            {
                "start_time": 74.9090909,
                "end_time": 75.0227273,
                "pitch": 56,
                "velocity": 32,
                "duration": 0.1136364,
                "tempo": 120.0
            },
            {
                "start_time": 75.3068182,
                "end_time": 75.425,
                "pitch": 54,
                "velocity": 32,
                "duration": 0.1181818,
                "tempo": 120.0
            },
            {
                "start_time": 76.2545455,
                "end_time": 76.5,
                "pitch": 66,
                "velocity": 32,
                "duration": 0.2454545,
                "tempo": 120.0
            },
            {
                "start_time": 76.5159091,
                "end_time": 76.6318182,
                "pitch": 37,
                "velocity": 32,
                "duration": 0.1159091,
                "tempo": 120.0
            },
            {
                "start_time": 76.6477273,
                "end_time": 76.9090909,
                "pitch": 39,
                "velocity": 32,
                "duration": 0.2613636,
                "tempo": 120.0
            },
            {
                "start_time": 76.9272727,
                "end_time": 77.05,
                "pitch": 41,
                "velocity": 32,
                "duration": 0.1227273,
                "tempo": 120.0
            },
            {
                "start_time": 77.0681818,
                "end_time": 77.0863636,
                "pitch": 42,
                "velocity": 32,
                "duration": 0.0181818,
                "tempo": 120.0
            }
        ],
        "Church Organ": [
            {
                "start_time": 0.3840909,
                "end_time": 0.7772727,
                "pitch": 73,
                "velocity": 32,
                "duration": 0.3931818,
                "tempo": 120.0
            },
            {
                "start_time": 1.1931818,
                "end_time": 1.4431818,
                "pitch": 75,
                "velocity": 32,
                "duration": 0.25,
                "tempo": 120.0
            },
            {
                "start_time": 1.4613636,
                "end_time": 1.5772727,
                "pitch": 75,
                "velocity": 32,
                "duration": 0.1159091,
                "tempo": 120.0
            },
            {
                "start_time": 1.9977273,
                "end_time": 2.3795455,
                "pitch": 73,
                "velocity": 32,
                "duration": 0.3818182,
                "tempo": 120.0
            },
            {
                "start_time": 2.7977273,
                "end_time": 3.0545455,
                "pitch": 73,
                "velocity": 32,
                "duration": 0.2568182,
                "tempo": 120.0
            },
            {
                "start_time": 3.0704545,
                "end_time": 3.1909091,
                "pitch": 73,
                "velocity": 32,
                "duration": 0.1204545,
                "tempo": 120.0
            },
            {
                "start_time": 3.6068182,
                "end_time": 3.9840909,
                "pitch": 73,
                "velocity": 32,
                "duration": 0.3772727,
                "tempo": 120.0
            },
            {
                "start_time": 4.4,
                "end_time": 4.6568182,
                "pitch": 75,
                "velocity": 32,
                "duration": 0.2568182,
                "tempo": 120.0
            },
            {
                "start_time": 4.675,
                "end_time": 4.7931818,
                "pitch": 75,
                "velocity": 32,
                "duration": 0.1181818,
                "tempo": 120.0
            },
            {
                "start_time": 5.0795455,
                "end_time": 5.1977273,
                "pitch": 77,
                "velocity": 32,
                "duration": 0.1181818,
                "tempo": 120.0
            },
            {
                "start_time": 5.4818182,
                "end_time": 5.9931818,
                "pitch": 73,
                "velocity": 32,
                "duration": 0.5113636,
                "tempo": 120.0
            },
            {
                "start_time": 6.8181818,
                "end_time": 7.1954545,
                "pitch": 73,
                "velocity": 32,
                "duration": 0.3772727,
                "tempo": 120.0
            },
            {
                "start_time": 7.6113636,
                "end_time": 7.8636364,
                "pitch": 75,
                "velocity": 32,
                "duration": 0.2522727,
                "tempo": 120.0
            },
            {
                "start_time": 7.8795455,
                "end_time": 7.9977273,
                "pitch": 75,
                "velocity": 32,
                "duration": 0.1181818,
                "tempo": 120.0
            },
            {
                "start_time": 8.4159091,
                "end_time": 8.8022727,
                "pitch": 73,
                "velocity": 32,
                "duration": 0.3863636,
                "tempo": 120.0
            },
            {
                "start_time": 9.2204545,
                "end_time": 9.4704545,
                "pitch": 73,
                "velocity": 32,
                "duration": 0.25,
                "tempo": 120.0
            },
            {
                "start_time": 9.4886364,
                "end_time": 9.6045455,
                "pitch": 73,
                "velocity": 32,
                "duration": 0.1159091,
                "tempo": 120.0
            },
            {
                "start_time": 10.0318182,
                "end_time": 10.4090909,
                "pitch": 73,
                "velocity": 32,
                "duration": 0.3772727,
                "tempo": 120.0
            },
            {
                "start_time": 10.8272727,
                "end_time": 11.0840909,
                "pitch": 75,
                "velocity": 32,
                "duration": 0.2568182,
                "tempo": 120.0
            },
            {
                "start_time": 11.1022727,
                "end_time": 11.2204545,
                "pitch": 75,
                "velocity": 32,
                "duration": 0.1181818,
                "tempo": 120.0
            },
            {
                "start_time": 11.5068182,
                "end_time": 11.625,
                "pitch": 77,
                "velocity": 32,
                "duration": 0.1181818,
                "tempo": 120.0
            },
            {
                "start_time": 11.9090909,
                "end_time": 12.4204545,
                "pitch": 73,
                "velocity": 32,
                "duration": 0.5113636,
                "tempo": 120.0
            },
            {
                "start_time": 13.2477273,
                "end_time": 13.6318182,
                "pitch": 73,
                "velocity": 32,
                "duration": 0.3840909,
                "tempo": 120.0
            },
            {
                "start_time": 13.9113636,
                "end_time": 14.025,
                "pitch": 73,
                "velocity": 32,
                "duration": 0.1136364,
                "tempo": 120.0
            },
            {
                "start_time": 14.3159091,
                "end_time": 14.4363636,
                "pitch": 73,
                "velocity": 32,
                "duration": 0.1204545,
                "tempo": 120.0
            },
            {
                "start_time": 15.1113636,
                "end_time": 15.2272727,
                "pitch": 73,
                "velocity": 32,
                "duration": 0.1159091,
                "tempo": 120.0
            },
            {
                "start_time": 15.2454545,
                "end_time": 15.4954545,
                "pitch": 73,
                "velocity": 32,
                "duration": 0.25,
                "tempo": 120.0
            },
            {
                "start_time": 15.5136364,
                "end_time": 16.0409091,
                "pitch": 73,
                "velocity": 32,
                "duration": 0.5272727,
                "tempo": 120.0
            },
            {
                "start_time": 16.4613636,
                "end_time": 16.8477273,
                "pitch": 73,
                "velocity": 32,
                "duration": 0.3863636,
                "tempo": 120.0
            },
            {
                "start_time": 17.125,
                "end_time": 17.2386364,
                "pitch": 73,
                "velocity": 32,
                "duration": 0.1136364,
                "tempo": 120.0
            },
            {
                "start_time": 17.5295455,
                "end_time": 17.65,
                "pitch": 73,
                "velocity": 32,
                "duration": 0.1204545,
                "tempo": 120.0
            },
            {
                "start_time": 18.3272727,
                "end_time": 18.4431818,
                "pitch": 75,
                "velocity": 32,
                "duration": 0.1159091,
                "tempo": 120.0
            },
            {
                "start_time": 18.7272727,
                "end_time": 18.8431818,
                "pitch": 75,
                "velocity": 32,
                "duration": 0.1159091,
                "tempo": 120.0
            },
            {
                "start_time": 18.8613636,
                "end_time": 19.2545455,
                "pitch": 73,
                "velocity": 32,
                "duration": 0.3931818,
                "tempo": 120.0
            },
            {
                "start_time": 19.6818182,
                "end_time": 20.0590909,
                "pitch": 73,
                "velocity": 32,
                "duration": 0.3772727,
                "tempo": 120.0
            },
            {
                "start_time": 20.3363636,
                "end_time": 20.45,
                "pitch": 73,
                "velocity": 32,
                "duration": 0.1136364,
                "tempo": 120.0
            },
            {
                "start_time": 20.7409091,
                "end_time": 20.8613636,
                "pitch": 73,
                "velocity": 32,
                "duration": 0.1204545,
                "tempo": 120.0
            },
            {
                "start_time": 21.5363636,
                "end_time": 21.6522727,
                "pitch": 73,
                "velocity": 32,
                "duration": 0.1159091,
                "tempo": 120.0
            },
            {
                "start_time": 21.6704545,
                "end_time": 21.9204545,
                "pitch": 73,
                "velocity": 32,
                "duration": 0.25,
                "tempo": 120.0
            },
            {
                "start_time": 21.9363636,
                "end_time": 22.4636364,
                "pitch": 73,
                "velocity": 32,
                "duration": 0.5272727,
                "tempo": 120.0
            },
            {
                "start_time": 22.8909091,
                "end_time": 23.2681818,
                "pitch": 73,
                "velocity": 32,
                "duration": 0.3772727,
                "tempo": 120.0
            },
            {
                "start_time": 23.5454545,
                "end_time": 23.6590909,
                "pitch": 73,
                "velocity": 32,
                "duration": 0.1136364,
                "tempo": 120.0
            },
            {
                "start_time": 23.95,
                "end_time": 24.0704545,
                "pitch": 73,
                "velocity": 32,
                "duration": 0.1204545,
                "tempo": 120.0
            },
            {
                "start_time": 24.7454545,
                "end_time": 24.8613636,
                "pitch": 75,
                "velocity": 32,
                "duration": 0.1159091,
                "tempo": 120.0
            },
            {
                "start_time": 25.1477273,
                "end_time": 25.2659091,
                "pitch": 75,
                "velocity": 32,
                "duration": 0.1181818,
                "tempo": 120.0
            },
            {
                "start_time": 25.2818182,
                "end_time": 25.675,
                "pitch": 73,
                "velocity": 32,
                "duration": 0.3931818,
                "tempo": 120.0
            },
            {
                "start_time": 26.1045455,
                "end_time": 26.4795455,
                "pitch": 73,
                "velocity": 32,
                "duration": 0.375,
                "tempo": 120.0
            },
            {
                "start_time": 26.7568182,
                "end_time": 26.8727273,
                "pitch": 73,
                "velocity": 32,
                "duration": 0.1159091,
                "tempo": 120.0
            },
            {
                "start_time": 27.1613636,
                "end_time": 27.2818182,
                "pitch": 73,
                "velocity": 32,
                "duration": 0.1204545,
                "tempo": 120.0
            },
            {
                "start_time": 27.9568182,
                "end_time": 28.075,
                "pitch": 73,
                "velocity": 32,
                "duration": 0.1181818,
                "tempo": 120.0
            },
            {
                "start_time": 28.0909091,
                "end_time": 28.3431818,
                "pitch": 73,
                "velocity": 32,
                "duration": 0.2522727,
                "tempo": 120.0
            },
            {
                "start_time": 28.3590909,
                "end_time": 28.8863636,
                "pitch": 73,
                "velocity": 32,
                "duration": 0.5272727,
                "tempo": 120.0
            },
            {
                "start_time": 29.3159091,
                "end_time": 29.6909091,
                "pitch": 73,
                "velocity": 32,
                "duration": 0.375,
                "tempo": 120.0
            },
            {
                "start_time": 29.9681818,
                "end_time": 30.0840909,
                "pitch": 73,
                "velocity": 32,
                "duration": 0.1159091,
                "tempo": 120.0
            },
            {
                "start_time": 30.3727273,
                "end_time": 30.4931818,
                "pitch": 73,
                "velocity": 32,
                "duration": 0.1204545,
                "tempo": 120.0
            },
            {
                "start_time": 31.1704545,
                "end_time": 31.2886364,
                "pitch": 75,
                "velocity": 32,
                "duration": 0.1181818,
                "tempo": 120.0
            },
            {
                "start_time": 31.5727273,
                "end_time": 31.6886364,
                "pitch": 75,
                "velocity": 32,
                "duration": 0.1159091,
                "tempo": 120.0
            },
            {
                "start_time": 31.7045455,
                "end_time": 32.1,
                "pitch": 73,
                "velocity": 32,
                "duration": 0.3954545,
                "tempo": 120.0
            },
            {
                "start_time": 32.5272727,
                "end_time": 32.9022727,
                "pitch": 73,
                "velocity": 32,
                "duration": 0.375,
                "tempo": 120.0
            },
            {
                "start_time": 33.1818182,
                "end_time": 33.2954545,
                "pitch": 73,
                "velocity": 32,
                "duration": 0.1136364,
                "tempo": 120.0
            },
            {
                "start_time": 33.5863636,
                "end_time": 33.7045455,
                "pitch": 73,
                "velocity": 32,
                "duration": 0.1181818,
                "tempo": 120.0
            },
            {
                "start_time": 34.3818182,
                "end_time": 34.4977273,
                "pitch": 73,
                "velocity": 32,
                "duration": 0.1159091,
                "tempo": 120.0
            },
            {
                "start_time": 34.5136364,
                "end_time": 34.7659091,
                "pitch": 73,
                "velocity": 32,
                "duration": 0.2522727,
                "tempo": 120.0
            },
            {
                "start_time": 34.7840909,
                "end_time": 35.3113636,
                "pitch": 73,
                "velocity": 32,
                "duration": 0.5272727,
                "tempo": 120.0
            },
            {
                "start_time": 35.3272727,
                "end_time": 35.7227273,
                "pitch": 73,
                "velocity": 32,
                "duration": 0.3954545,
                "tempo": 120.0
            },
            {
                "start_time": 35.7386364,
                "end_time": 36.1159091,
                "pitch": 73,
                "velocity": 32,
                "duration": 0.3772727,
                "tempo": 120.0
            },
            {
                "start_time": 36.1318182,
                "end_time": 36.3772727,
                "pitch": 75,
                "velocity": 32,
                "duration": 0.2454545,
                "tempo": 120.0
            },
            {
                "start_time": 36.3931818,
                "end_time": 36.5068182,
                "pitch": 75,
                "velocity": 32,
                "duration": 0.1136364,
                "tempo": 120.0
            },
            {
                "start_time": 36.7931818,
                "end_time": 36.9090909,
                "pitch": 70,
                "velocity": 32,
                "duration": 0.1159091,
                "tempo": 120.0
            },
            {
                "start_time": 37.7272727,
                "end_time": 38.5090909,
                "pitch": 73,
                "velocity": 32,
                "duration": 0.7818182,
                "tempo": 120.0
            },
            {
                "start_time": 38.9477273,
                "end_time": 39.3136364,
                "pitch": 73,
                "velocity": 32,
                "duration": 0.3659091,
                "tempo": 120.0
            },
            {
                "start_time": 39.7295455,
                "end_time": 39.9795455,
                "pitch": 75,
                "velocity": 32,
                "duration": 0.25,
                "tempo": 120.0
            },
            {
                "start_time": 39.9977273,
                "end_time": 40.1136364,
                "pitch": 75,
                "velocity": 32,
                "duration": 0.1159091,
                "tempo": 120.0
            },
            {
                "start_time": 40.5295455,
                "end_time": 40.9159091,
                "pitch": 73,
                "velocity": 32,
                "duration": 0.3863636,
                "tempo": 120.0
            },
            {
                "start_time": 41.3318182,
                "end_time": 41.5818182,
                "pitch": 73,
                "velocity": 32,
                "duration": 0.25,
                "tempo": 120.0
            },
            {
                "start_time": 41.6,
                "end_time": 41.7159091,
                "pitch": 73,
                "velocity": 32,
                "duration": 0.1159091,
                "tempo": 120.0
            },
            {
                "start_time": 42.1545455,
                "end_time": 42.5204545,
                "pitch": 73,
                "velocity": 32,
                "duration": 0.3659091,
                "tempo": 120.0
            },
            {
                "start_time": 42.9386364,
                "end_time": 43.1954545,
                "pitch": 75,
                "velocity": 32,
                "duration": 0.2568182,
                "tempo": 120.0
            },
            {
                "start_time": 43.2136364,
                "end_time": 43.3318182,
                "pitch": 75,
                "velocity": 32,
                "duration": 0.1181818,
                "tempo": 120.0
            },
            {
                "start_time": 43.6227273,
                "end_time": 43.7431818,
                "pitch": 77,
                "velocity": 32,
                "duration": 0.1204545,
                "tempo": 120.0
            },
            {
                "start_time": 44.0227273,
                "end_time": 44.5295455,
                "pitch": 73,
                "velocity": 32,
                "duration": 0.5068182,
                "tempo": 120.0
            },
            {
                "start_time": 45.3659091,
                "end_time": 45.7318182,
                "pitch": 73,
                "velocity": 32,
                "duration": 0.3659091,
                "tempo": 120.0
            },
            {
                "start_time": 46.15,
                "end_time": 46.4045455,
                "pitch": 75,
                "velocity": 32,
                "duration": 0.2545455,
                "tempo": 120.0
            },
            {
                "start_time": 46.4227273,
                "end_time": 46.5431818,
                "pitch": 75,
                "velocity": 32,
                "duration": 0.1204545,
                "tempo": 120.0
            },
            {
                "start_time": 46.9522727,
                "end_time": 47.3340909,
                "pitch": 73,
                "velocity": 32,
                "duration": 0.3818182,
                "tempo": 120.0
            },
            {
                "start_time": 47.7522727,
                "end_time": 48.0022727,
                "pitch": 73,
                "velocity": 32,
                "duration": 0.25,
                "tempo": 120.0
            },
            {
                "start_time": 48.0181818,
                "end_time": 48.1340909,
                "pitch": 73,
                "velocity": 32,
                "duration": 0.1159091,
                "tempo": 120.0
            },
            {
                "start_time": 48.5727273,
                "end_time": 48.9386364,
                "pitch": 73,
                "velocity": 32,
                "duration": 0.3659091,
                "tempo": 120.0
            },
            {
                "start_time": 49.3545455,
                "end_time": 49.6045455,
                "pitch": 75,
                "velocity": 32,
                "duration": 0.25,
                "tempo": 120.0
            },
            {
                "start_time": 49.6227273,
                "end_time": 49.7386364,
                "pitch": 75,
                "velocity": 32,
                "duration": 0.1159091,
                "tempo": 120.0
            },
            {
                "start_time": 50.0363636,
                "end_time": 50.1590909,
                "pitch": 77,
                "velocity": 32,
                "duration": 0.1227273,
                "tempo": 120.0
            },
            {
                "start_time": 50.4386364,
                "end_time": 50.9454545,
                "pitch": 73,
                "velocity": 32,
                "duration": 0.5068182,
                "tempo": 120.0
            },
            {
                "start_time": 51.7840909,
                "end_time": 52.1590909,
                "pitch": 73,
                "velocity": 32,
                "duration": 0.375,
                "tempo": 120.0
            },
            {
                "start_time": 52.4363636,
                "end_time": 52.5522727,
                "pitch": 73,
                "velocity": 32,
                "duration": 0.1159091,
                "tempo": 120.0
            },
            {
                "start_time": 52.8409091,
                "end_time": 52.9613636,
                "pitch": 73,
                "velocity": 32,
                "duration": 0.1204545,
                "tempo": 120.0
            },
            {
                "start_time": 53.6363636,
                "end_time": 53.7545455,
                "pitch": 73,
                "velocity": 32,
                "duration": 0.1181818,
                "tempo": 120.0
            },
            {
                "start_time": 53.7704545,
                "end_time": 54.0204545,
                "pitch": 73,
                "velocity": 32,
                "duration": 0.25,
                "tempo": 120.0
            },
            {
                "start_time": 54.0363636,
                "end_time": 54.5636364,
                "pitch": 73,
                "velocity": 32,
                "duration": 0.5272727,
                "tempo": 120.0
            },
            {
                "start_time": 54.9818182,
                "end_time": 55.3659091,
                "pitch": 73,
                "velocity": 32,
                "duration": 0.3840909,
                "tempo": 120.0
            },
            {
                "start_time": 55.6431818,
                "end_time": 55.7568182,
                "pitch": 73,
                "velocity": 32,
                "duration": 0.1136364,
                "tempo": 120.0
            },
            {
                "start_time": 56.0477273,
                "end_time": 56.1681818,
                "pitch": 73,
                "velocity": 32,
                "duration": 0.1204545,
                "tempo": 120.0
            },
            {
                "start_time": 56.8454545,
                "end_time": 56.9613636,
                "pitch": 75,
                "velocity": 32,
                "duration": 0.1159091,
                "tempo": 120.0
            },
            {
                "start_time": 57.2454545,
                "end_time": 57.3636364,
                "pitch": 75,
                "velocity": 32,
                "duration": 0.1181818,
                "tempo": 120.0
            },
            {
                "start_time": 57.3795455,
                "end_time": 57.7727273,
                "pitch": 73,
                "velocity": 32,
                "duration": 0.3931818,
                "tempo": 120.0
            },
            {
                "start_time": 58.2,
                "end_time": 58.5772727,
                "pitch": 73,
                "velocity": 32,
                "duration": 0.3772727,
                "tempo": 120.0
            },
            {
                "start_time": 58.8545455,
                "end_time": 58.9681818,
                "pitch": 73,
                "velocity": 32,
                "duration": 0.1136364,
                "tempo": 120.0
            },
            {
                "start_time": 59.2590909,
                "end_time": 59.3795455,
                "pitch": 73,
                "velocity": 32,
                "duration": 0.1204545,
                "tempo": 120.0
            },
            {
                "start_time": 60.0545455,
                "end_time": 60.1727273,
                "pitch": 73,
                "velocity": 32,
                "duration": 0.1181818,
                "tempo": 120.0
            },
            {
                "start_time": 60.1886364,
                "end_time": 60.4386364,
                "pitch": 73,
                "velocity": 32,
                "duration": 0.25,
                "tempo": 120.0
            },
            {
                "start_time": 60.4545455,
                "end_time": 60.9818182,
                "pitch": 73,
                "velocity": 32,
                "duration": 0.5272727,
                "tempo": 120.0
            },
            {
                "start_time": 61.4090909,
                "end_time": 61.7863636,
                "pitch": 73,
                "velocity": 32,
                "duration": 0.3772727,
                "tempo": 120.0
            },
            {
                "start_time": 62.0636364,
                "end_time": 62.1772727,
                "pitch": 73,
                "velocity": 32,
                "duration": 0.1136364,
                "tempo": 120.0
            },
            {
                "start_time": 62.4681818,
                "end_time": 62.5886364,
                "pitch": 73,
                "velocity": 32,
                "duration": 0.1204545,
                "tempo": 120.0
            },
            {
                "start_time": 63.2636364,
                "end_time": 63.3818182,
                "pitch": 75,
                "velocity": 32,
                "duration": 0.1181818,
                "tempo": 120.0
            },
            {
                "start_time": 63.6636364,
                "end_time": 63.7818182,
                "pitch": 75,
                "velocity": 32,
                "duration": 0.1181818,
                "tempo": 120.0
            },
            {
                "start_time": 63.7977273,
                "end_time": 64.1909091,
                "pitch": 73,
                "velocity": 32,
                "duration": 0.3931818,
                "tempo": 120.0
            },
            {
                "start_time": 64.6181818,
                "end_time": 64.9954545,
                "pitch": 73,
                "velocity": 32,
                "duration": 0.3772727,
                "tempo": 120.0
            },
            {
                "start_time": 65.2727273,
                "end_time": 65.3863636,
                "pitch": 73,
                "velocity": 32,
                "duration": 0.1136364,
                "tempo": 120.0
            },
            {
                "start_time": 65.6772727,
                "end_time": 65.7977273,
                "pitch": 73,
                "velocity": 32,
                "duration": 0.1204545,
                "tempo": 120.0
            },
            {
                "start_time": 66.475,
                "end_time": 66.5931818,
                "pitch": 73,
                "velocity": 32,
                "duration": 0.1181818,
                "tempo": 120.0
            },
            {
                "start_time": 66.6090909,
                "end_time": 66.8590909,
                "pitch": 73,
                "velocity": 32,
                "duration": 0.25,
                "tempo": 120.0
            },
            {
                "start_time": 66.875,
                "end_time": 67.4022727,
                "pitch": 73,
                "velocity": 32,
                "duration": 0.5272727,
                "tempo": 120.0
            },
            {
                "start_time": 67.8318182,
                "end_time": 68.2068182,
                "pitch": 73,
                "velocity": 32,
                "duration": 0.375,
                "tempo": 120.0
            },
            {
                "start_time": 68.4840909,
                "end_time": 68.6,
                "pitch": 73,
                "velocity": 32,
                "duration": 0.1159091,
                "tempo": 120.0
            },
            {
                "start_time": 68.8886364,
                "end_time": 69.0090909,
                "pitch": 73,
                "velocity": 32,
                "duration": 0.1204545,
                "tempo": 120.0
            },
            {
                "start_time": 69.6863636,
                "end_time": 69.8045455,
                "pitch": 75,
                "velocity": 32,
                "duration": 0.1181818,
                "tempo": 120.0
            },
            {
                "start_time": 70.0886364,
                "end_time": 70.2045455,
                "pitch": 75,
                "velocity": 32,
                "duration": 0.1159091,
                "tempo": 120.0
            },
            {
                "start_time": 70.2204545,
                "end_time": 70.6136364,
                "pitch": 73,
                "velocity": 32,
                "duration": 0.3931818,
                "tempo": 120.0
            },
            {
                "start_time": 71.0431818,
                "end_time": 71.4181818,
                "pitch": 73,
                "velocity": 32,
                "duration": 0.375,
                "tempo": 120.0
            },
            {
                "start_time": 71.6954545,
                "end_time": 71.8113636,
                "pitch": 73,
                "velocity": 32,
                "duration": 0.1159091,
                "tempo": 120.0
            },
            {
                "start_time": 72.1,
                "end_time": 72.2204545,
                "pitch": 73,
                "velocity": 32,
                "duration": 0.1204545,
                "tempo": 120.0
            },
            {
                "start_time": 72.8977273,
                "end_time": 73.0136364,
                "pitch": 73,
                "velocity": 32,
                "duration": 0.1159091,
                "tempo": 120.0
            },
            {
                "start_time": 73.0295455,
                "end_time": 73.2818182,
                "pitch": 73,
                "velocity": 32,
                "duration": 0.2522727,
                "tempo": 120.0
            },
            {
                "start_time": 73.2977273,
                "end_time": 73.8272727,
                "pitch": 73,
                "velocity": 32,
                "duration": 0.5295455,
                "tempo": 120.0
            },
            {
                "start_time": 73.8431818,
                "end_time": 74.2363636,
                "pitch": 73,
                "velocity": 32,
                "duration": 0.3931818,
                "tempo": 120.0
            },
            {
                "start_time": 74.2545455,
                "end_time": 74.6295455,
                "pitch": 73,
                "velocity": 32,
                "duration": 0.375,
                "tempo": 120.0
            },
            {
                "start_time": 74.6477273,
                "end_time": 74.8909091,
                "pitch": 75,
                "velocity": 32,
                "duration": 0.2431818,
                "tempo": 120.0
            },
            {
                "start_time": 74.9090909,
                "end_time": 75.0227273,
                "pitch": 75,
                "velocity": 32,
                "duration": 0.1136364,
                "tempo": 120.0
            },
            {
                "start_time": 75.3068182,
                "end_time": 75.425,
                "pitch": 70,
                "velocity": 32,
                "duration": 0.1181818,
                "tempo": 120.0
            },
            {
                "start_time": 76.2545455,
                "end_time": 76.5,
                "pitch": 78,
                "velocity": 32,
                "duration": 0.2454545,
                "tempo": 120.0
            }
        ]
    }
}