{
    "mood": "happy",
    "instruments": {
        "Clarinet": [
            {
                "start_time": 0.0,
                "end_time": 1.5568182,
                "pitch": 76,
                "velocity": 51,
                "duration": 1.5568182,
                "tempo": 120.0
            },
            {
                "start_time": 1.5727273,
                "end_time": 2.1613636,
                "pitch": 74,
                "velocity": 51,
                "duration": 0.5886364,
                "tempo": 120.0
            },
            {
                "start_time": 2.1795455,
                "end_time": 2.7613636,
                "pitch": 79,
                "velocity": 51,
                "duration": 0.5818182,
                "tempo": 120.0
            },
            {
                "start_time": 2.7795455,
                "end_time": 3.3681818,
                "pitch": 77,
                "velocity": 51,
                "duration": 0.5886364,
                "tempo": 120.0
            },
            {
                "start_time": 3.3840909,
                "end_time": 3.975,
                "pitch": 76,
                "velocity": 51,
                "duration": 0.5909091,
                "tempo": 120.0
            },
            {
                "start_time": 3.9909091,
                "end_time": 4.0068182,
                "pitch": 76,
                "velocity": 51,
                "duration": 0.0159091,
                "tempo": 120.0
            },
            {
                "start_time": 4.0068182,
                "end_time": 4.025,
                "pitch": 74,
                "velocity": 51,
                "duration": 0.0181818,
                "tempo": 120.0
            },
            {
                "start_time": 4.025,
                "end_time": 4.0409091,
                "pitch": 71,
                "velocity": 51,
                "duration": 0.0159091,
                "tempo": 120.0
            },
            {
                "start_time": 4.0409091,
                "end_time": 4.0568182,
                "pitch": 68,
                "velocity": 51,
                "duration": 0.0159091,
                "tempo": 120.0
            },
            {
                "start_time": 4.0568182,
                "end_time": 4.075,
                "pitch": 66,
                "velocity": 51,
                "duration": 0.0181818,
                "tempo": 120.0
            },
            {
                "start_time": 4.075,
                "end_time": 4.0909091,
                "pitch": 63,
                "velocity": 51,
                "duration": 0.0159091,
                "tempo": 120.0
            },
            {
                "start_time": 4.0909091,
                "end_time": 4.1068182,
                "pitch": 61,
                "velocity": 51,
                "duration": 0.0159091,
                "tempo": 120.0
            },
            {
                "start_time": 4.1068182,
                "end_time": 4.125,
                "pitch": 58,
                "velocity": 51,
                "duration": 0.0181818,
                "tempo": 120.0
            },
            {
                "start_time": 4.125,
                "end_time": 4.1409091,
                "pitch": 55,
                "velocity": 51,
                "duration": 0.0159091,
                "tempo": 120.0
            },
            {
                "start_time": 4.1409091,
                "end_time": 4.1568182,
                "pitch": 53,
                "velocity": 51,
                "duration": 0.0159091,
                "tempo": 120.0
            },
            {
                "start_time": 4.1568182,
                "end_time": 4.175,
                "pitch": 51,
                "velocity": 51,
                "duration": 0.0181818,
                "tempo": 120.0
            },
            {
                "start_time": 4.175,
                "end_time": 4.1909091,
                "pitch": 48,
                "velocity": 51,
                "duration": 0.0159091,
                "tempo": 120.0
            },
            {
                "start_time": 4.1909091,
                "end_time": 4.5909091,
                "pitch": 68,
                "velocity": 51,
                "duration": 0.4,
                "tempo": 120.0
            },
            {
                "start_time": 4.5909091,
                "end_time": 5.1795455,
                "pitch": 71,
                "velocity": 51,
                "duration": 0.5886364,
                "tempo": 120.0
            }
        ],
        "Electric Guitar (clean)": [
            {
                "start_time": 0.0,
                "end_time": 0.1113636,
                "pitch": 38,
                "velocity": 32,
                "duration": 0.1113636,
                "tempo": 120.0
            },
            {
                "start_time": 0.1227273,
                "end_time": 0.1772727,
                "pitch": 38,
                "velocity": 32,
                "duration": 0.0545455,
                "tempo": 120.0
            },
            {
                "start_time": 0.1886364,
                "end_time": 0.3113636,
                "pitch": 33,
                "velocity": 32,
                "duration": 0.1227273,
                "tempo": 120.0
            },
            {
                "start_time": 0.3227273,
                "end_time": 0.3772727,
                "pitch": 41,
                "velocity": 32,
                "duration": 0.0545455,
                "tempo": 120.0
            },
            {
                "start_time": 0.5840909,
                "end_time": 0.6659091,
                "pitch": 38,
                "velocity": 32,
                "duration": 0.0818182,
                "tempo": 120.0
            },
            {
                "start_time": 0.6818182,
                "end_time": 0.8590909,
                "pitch": 43,
                "velocity": 32,
                "duration": 0.1772727,
                "tempo": 120.0
            },
            {
                "start_time": 0.875,
                "end_time": 0.9568182,
                "pitch": 41,
                "velocity": 32,
                "duration": 0.0818182,
                "tempo": 120.0
            },
            {
                "start_time": 0.9727273,
                "end_time": 1.1568182,
                "pitch": 45,
                "velocity": 32,
                "duration": 0.1840909,
                "tempo": 120.0
            },
            {
                "start_time": 1.1727273,
                "end_time": 1.2568182,
                "pitch": 41,
                "velocity": 32,
                "duration": 0.0840909,
                "tempo": 120.0
            },
            {
                "start_time": 1.2727273,
                "end_time": 1.4568182,
                "pitch": 41,
                "velocity": 32,
                "duration": 0.1840909,
                "tempo": 120.0
            },
            {
                "start_time": 1.4727273,
                "end_time": 1.6568182,
                "pitch": 48,
                "velocity": 32,
                "duration": 0.1840909,
                "tempo": 120.0
            },
            {
                "start_time": 1.775,
                "end_time": 1.8590909,
                "pitch": 41,
                "velocity": 32,
                "duration": 0.0840909,
                "tempo": 120.0
            },
            {
                "start_time": 1.875,
                "end_time": 1.9590909,
                "pitch": 43,
                "velocity": 32,
                "duration": 0.0840909,
                "tempo": 120.0
            },
            {
                "start_time": 1.9772727,
                "end_time": 2.0613636,
                "pitch": 31,
                "velocity": 32,
                "duration": 0.0840909,
                "tempo": 120.0
            },
            {
                "start_time": 2.0772727,
                "end_time": 2.1613636,
                "pitch": 36,
                "velocity": 32,
                "duration": 0.0840909,
                "tempo": 120.0
            },
            {
                "start_time": 2.1795455,
                "end_time": 2.3613636,
                "pitch": 38,
                "velocity": 32,
                "duration": 0.1818182,
                "tempo": 120.0
            },
            {
                "start_time": 2.3795455,
                "end_time": 2.4613636,
                "pitch": 38,
                "velocity": 32,
                "duration": 0.0818182,
                "tempo": 120.0
            },
            {
                "start_time": 2.4795455,
                "end_time": 2.6613636,
                "pitch": 44,
                "velocity": 32,
                "duration": 0.1818182,
                "tempo": 120.0
            },
            {
                "start_time": 2.6795455,
                "end_time": 2.7613636,
                "pitch": 41,
                "velocity": 32,
                "duration": 0.0818182,
                "tempo": 120.0
            },
            {
                "start_time": 2.9795455,
                "end_time": 3.0659091,
                "pitch": 38,
                "velocity": 32,
                "duration": 0.0863636,
                "tempo": 120.0
            },
            {
                "start_time": 3.0818182,
                "end_time": 3.2659091,
                "pitch": 43,
                "velocity": 32,
                "duration": 0.1840909,
                "tempo": 120.0
            },
            {
                "start_time": 3.2840909,
                "end_time": 3.3681818,
                "pitch": 41,
                "velocity": 32,
                "duration": 0.0840909,
                "tempo": 120.0
            },
            {
                "start_time": 3.3840909,
                "end_time": 3.5704545,
                "pitch": 44,
                "velocity": 32,
                "duration": 0.1863636,
                "tempo": 120.0
            },
            {
                "start_time": 3.5863636,
                "end_time": 3.6704545,
                "pitch": 41,
                "velocity": 32,
                "duration": 0.0840909,
                "tempo": 120.0
            },
            {
                "start_time": 3.6886364,
                "end_time": 3.8727273,
                "pitch": 41,
                "velocity": 32,
                "duration": 0.1840909,
                "tempo": 120.0
            },
            {
                "start_time": 3.8886364,
                "end_time": 4.075,
                "pitch": 48,
                "velocity": 32,
                "duration": 0.1863636,
                "tempo": 120.0
            },
            {
                "start_time": 4.1909091,
                "end_time": 4.275,
                "pitch": 41,
                "velocity": 32,
                "duration": 0.0840909,
                "tempo": 120.0
            },
            {
                "start_time": 4.2909091,
                "end_time": 4.475,
                "pitch": 43,
                "velocity": 32,
                "duration": 0.1840909,
                "tempo": 120.0
            },
            {
                "start_time": 4.4909091,
                "end_time": 4.575,
                "pitch": 36,
                "velocity": 32,
                "duration": 0.0840909,
                "tempo": 120.0
            }
        ],
        "Acoustic Grand Piano": [
            {
                "start_time": 0.0,
                "end_time": 2.1613636,
                "pitch": 57,
                "velocity": 40,
                "duration": 2.1613636,
                "tempo": 120.0
            },
            {
                "start_time": 2.1795455,
                "end_time": 4.575,
                "pitch": 56,
                "velocity": 40,
                "duration": 2.3954545,
                "tempo": 120.0
            }
        ]
    }
}