{
    "mood": "happy",
    "instruments": {
        "Acoustic Grand Piano": [
            {
                "start_time": 0.1909091,
                "end_time": 0.4772727,
                "pitch": 81,
                "velocity": 80,
                "duration": 0.2863636,
                "tempo": 120.0
            },
            {
                "start_time": 0.4931818,
                "end_time": 0.7795455,
                "pitch": 82,
                "velocity": 80,
                "duration": 0.2863636,
                "tempo": 120.0
            },
            {
                "start_time": 0.7954545,
                "end_time": 0.9295455,
                "pitch": 81,
                "velocity": 80,
                "duration": 0.1340909,
                "tempo": 120.0
            },
            {
                "start_time": 0.9454545,
                "end_time": 1.2295455,
                "pitch": 84,
                "velocity": 80,
                "duration": 0.2840909,
                "tempo": 120.0
            },
            {
                "start_time": 1.2454545,
                "end_time": 1.3795455,
                "pitch": 82,
                "velocity": 80,
                "duration": 0.1340909,
                "tempo": 120.0
            },
            {
                "start_time": 1.3954545,
                "end_time": 2.0409091,
                "pitch": 81,
                "velocity": 80,
                "duration": 0.6454545,
                "tempo": 120.0
            },
            {
                "start_time": 2.6022727,
                "end_time": 2.8886364,
                "pitch": 81,
                "velocity": 80,
                "duration": 0.2863636,
                "tempo": 120.0
            },
            {
                "start_time": 2.9045455,
                "end_time": 3.1909091,
                "pitch": 82,
                "velocity": 80,
                "duration": 0.2863636,
                "tempo": 120.0
            },
            {
                "start_time": 3.2090909,
                "end_time": 3.3409091,
                "pitch": 81,
                "velocity": 80,
                "duration": 0.1318182,
                "tempo": 120.0
            },
            {
                "start_time": 3.3590909,
                "end_time": 3.6409091,
                "pitch": 84,
                "velocity": 80,
                "duration": 0.2818182,
                "tempo": 120.0
            },
            {
                "start_time": 3.6590909,
                "end_time": 3.7909091,
                "pitch": 82,
                "velocity": 80,
                "duration": 0.1318182,
                "tempo": 120.0
            },
            {
                "start_time": 3.8090909,
                "end_time": 3.9431818,
                "pitch": 81,
                "velocity": 80,
                "duration": 0.1340909,
                "tempo": 120.0
            },
            {
                "start_time": 3.9590909,
                "end_time": 4.7,
                "pitch": 77,
                "velocity": 80,
                "duration": 0.7409091,
                "tempo": 120.0
            },
            {
                "start_time": 4.7181818,
                "end_time": 5.1545455,
                "pitch": 79,
                "velocity": 80,
                "duration": 0.4363636,
                "tempo": 120.0
            },
            {
                "start_time": 5.1704545,
                "end_time": 5.3045455,
                "pitch": 72,
                "velocity": 80,
                "duration": 0.1340909,
                "tempo": 120.0
            },
            {
                "start_time": 5.3204545,
                "end_time": 6.5068182,
                "pitch": 72,
                "velocity": 80,
                "duration": 1.1863636,
                "tempo": 120.0
            },
            {
                "start_time": 6.5227273,
                "end_time": 6.8090909,
                "pitch": 82,
                "velocity": 80,
                "duration": 0.2863636,
                "tempo": 120.0
            },
            {
                "start_time": 6.8272727,
                "end_time": 7.1090909,
                "pitch": 81,
                "velocity": 80,
                "duration": 0.2818182,
                "tempo": 120.0
            },
            {
                "start_time": 7.1272727,
                "end_time": 8.0159091,
                "pitch": 79,
                "velocity": 80,
                "duration": 0.8886364,
                "tempo": 120.0
            },
            {
                "start_time": 8.0318182,
                "end_time": 8.3159091,
                "pitch": 77,
                "velocity": 80,
                "duration": 0.2840909,
                "tempo": 120.0
            },
            {
                "start_time": 8.3318182,
                "end_time": 9.1659091,
                "pitch": 79,
                "velocity": 80,
                "duration": 0.8340909,
                "tempo": 120.0
            },
            {
                "start_time": 9.8454545,
                "end_time": 10.125,
                "pitch": 81,
                "velocity": 80,
                "duration": 0.2795455,
                "tempo": 120.0
            },
            {
                "start_time": 10.1409091,
                "end_time": 10.4227273,
                "pitch": 82,
                "velocity": 80,
                "duration": 0.2818182,
                "tempo": 120.0
            },
            {
                "start_time": 10.4386364,
                "end_time": 10.5727273,
                "pitch": 81,
                "velocity": 80,
                "duration": 0.1340909,
                "tempo": 120.0
            },
            {
                "start_time": 10.5886364,
                "end_time": 10.8727273,
                "pitch": 84,
                "velocity": 80,
                "duration": 0.2840909,
                "tempo": 120.0
            },
            {
                "start_time": 10.8886364,
                "end_time": 11.0227273,
                "pitch": 82,
                "velocity": 80,
                "duration": 0.1340909,
                "tempo": 120.0
            },
            {
                "start_time": 11.0386364,
                "end_time": 11.6727273,
                "pitch": 81,
                "velocity": 80,
                "duration": 0.6340909,
                "tempo": 120.0
            },
            {
                "start_time": 12.2386364,
                "end_time": 12.5227273,
                "pitch": 81,
                "velocity": 80,
                "duration": 0.2840909,
                "tempo": 120.0
            },
            {
                "start_time": 12.5386364,
                "end_time": 12.8227273,
                "pitch": 82,
                "velocity": 80,
                "duration": 0.2840909,
                "tempo": 120.0
            },
            {
                "start_time": 12.8386364,
                "end_time": 12.9727273,
                "pitch": 81,
                "velocity": 80,
                "duration": 0.1340909,
                "tempo": 120.0
            },
            {
                "start_time": 12.9909091,
                "end_time": 13.2772727,
                "pitch": 84,
                "velocity": 80,
                "duration": 0.2863636,
                "tempo": 120.0
            },
            {
                "start_time": 13.2931818,
                "end_time": 13.4272727,
                "pitch": 82,
                "velocity": 80,
                "duration": 0.1340909,
                "tempo": 120.0
            },
            {
                "start_time": 13.4454545,
                "end_time": 13.5772727,
                "pitch": 81,
                "velocity": 80,
                "duration": 0.1318182,
                "tempo": 120.0
            },
            {
                "start_time": 13.5954545,
                "end_time": 14.3272727,
                "pitch": 77,
                "velocity": 80,
                "duration": 0.7318182,
                "tempo": 120.0
            },
            {
                "start_time": 14.3454545,
                "end_time": 14.7772727,
                "pitch": 79,
                "velocity": 80,
                "duration": 0.4318182,
                "tempo": 120.0
            },
            {
                "start_time": 14.7954545,
                "end_time": 14.9272727,
                "pitch": 72,
                "velocity": 80,
                "duration": 0.1318182,
                "tempo": 120.0
            },
            {
                "start_time": 14.9454545,
                "end_time": 16.1318182,
                "pitch": 72,
                "velocity": 80,
                "duration": 1.1863636,
                "tempo": 120.0
            },
            {
                "start_time": 16.1477273,
                "end_time": 16.4340909,
                "pitch": 82,
                "velocity": 80,
                "duration": 0.2863636,
                "tempo": 120.0
            },
            {
                "start_time": 16.45,
                "end_time": 16.7340909,
                "pitch": 81,
                "velocity": 80,
                "duration": 0.2840909,
                "tempo": 120.0
            },
            {
                "start_time": 16.75,
                "end_time": 17.9363636,
                "pitch": 79,
                "velocity": 80,
                "duration": 1.1863636,
                "tempo": 120.0
            },
            {
                "start_time": 17.9545455,
                "end_time": 18.8681818,
                "pitch": 77,
                "velocity": 80,
                "duration": 0.9136364,
                "tempo": 120.0
            },
            {
                "start_time": 38.7977273,
                "end_time": 38.8295455,
                "pitch": 81,
                "velocity": 80,
                "duration": 0.0318182,
                "tempo": 120.0
            }
        ],
        "Vibraphone": [
            {
                "start_time": 19.4636364,
                "end_time": 19.75,
                "pitch": 81,
                "velocity": 80,
                "duration": 0.2863636,
                "tempo": 120.0
            },
            {
                "start_time": 19.7659091,
                "end_time": 20.0522727,
                "pitch": 82,
                "velocity": 80,
                "duration": 0.2863636,
                "tempo": 120.0
            },
            {
                "start_time": 20.0681818,
                "end_time": 20.3522727,
                "pitch": 81,
                "velocity": 80,
                "duration": 0.2840909,
                "tempo": 120.0
            },
            {
                "start_time": 20.3681818,
                "end_time": 20.9545455,
                "pitch": 84,
                "velocity": 80,
                "duration": 0.5863636,
                "tempo": 120.0
            },
            {
                "start_time": 20.9727273,
                "end_time": 21.1068182,
                "pitch": 84,
                "velocity": 80,
                "duration": 0.1340909,
                "tempo": 120.0
            },
            {
                "start_time": 21.1227273,
                "end_time": 21.4090909,
                "pitch": 82,
                "velocity": 80,
                "duration": 0.2863636,
                "tempo": 120.0
            },
            {
                "start_time": 21.4272727,
                "end_time": 21.5613636,
                "pitch": 81,
                "velocity": 80,
                "duration": 0.1340909,
                "tempo": 120.0
            },
            {
                "start_time": 21.5772727,
                "end_time": 22.6159091,
                "pitch": 79,
                "velocity": 80,
                "duration": 1.0386364,
                "tempo": 120.0
            },
            {
                "start_time": 22.6318182,
                "end_time": 22.7681818,
                "pitch": 72,
                "velocity": 80,
                "duration": 0.1363636,
                "tempo": 120.0
            },
            {
                "start_time": 22.7840909,
                "end_time": 23.7204545,
                "pitch": 72,
                "velocity": 80,
                "duration": 0.9363636,
                "tempo": 120.0
            },
            {
                "start_time": 24.2931818,
                "end_time": 24.8818182,
                "pitch": 74,
                "velocity": 80,
                "duration": 0.5886364,
                "tempo": 120.0
            },
            {
                "start_time": 24.9,
                "end_time": 25.1818182,
                "pitch": 77,
                "velocity": 80,
                "duration": 0.2818182,
                "tempo": 120.0
            },
            {
                "start_time": 25.2,
                "end_time": 25.7863636,
                "pitch": 82,
                "velocity": 80,
                "duration": 0.5863636,
                "tempo": 120.0
            },
            {
                "start_time": 25.8022727,
                "end_time": 26.0886364,
                "pitch": 81,
                "velocity": 80,
                "duration": 0.2863636,
                "tempo": 120.0
            },
            {
                "start_time": 26.1045455,
                "end_time": 26.3886364,
                "pitch": 79,
                "velocity": 80,
                "duration": 0.2840909,
                "tempo": 120.0
            },
            {
                "start_time": 26.4045455,
                "end_time": 27.5977273,
                "pitch": 81,
                "velocity": 80,
                "duration": 1.1931818,
                "tempo": 120.0
            },
            {
                "start_time": 27.6136364,
                "end_time": 28.5795455,
                "pitch": 81,
                "velocity": 80,
                "duration": 0.9659091,
                "tempo": 120.0
            },
            {
                "start_time": 29.1295455,
                "end_time": 29.4113636,
                "pitch": 81,
                "velocity": 80,
                "duration": 0.2818182,
                "tempo": 120.0
            },
            {
                "start_time": 29.4272727,
                "end_time": 29.7068182,
                "pitch": 82,
                "velocity": 80,
                "duration": 0.2795455,
                "tempo": 120.0
            },
            {
                "start_time": 29.725,
                "end_time": 30.0090909,
                "pitch": 81,
                "velocity": 80,
                "duration": 0.2840909,
                "tempo": 120.0
            },
            {
                "start_time": 30.0272727,
                "end_time": 30.6159091,
                "pitch": 84,
                "velocity": 80,
                "duration": 0.5886364,
                "tempo": 120.0
            },
            {
                "start_time": 30.6340909,
                "end_time": 30.7681818,
                "pitch": 84,
                "velocity": 80,
                "duration": 0.1340909,
                "tempo": 120.0
            },
            {
                "start_time": 30.7840909,
                "end_time": 31.0704545,
                "pitch": 82,
                "velocity": 80,
                "duration": 0.2863636,
                "tempo": 120.0
            },
            {
                "start_time": 31.0863636,
                "end_time": 31.2204545,
                "pitch": 81,
                "velocity": 80,
                "duration": 0.1340909,
                "tempo": 120.0
            },
            {
                "start_time": 31.2363636,
                "end_time": 32.275,
                "pitch": 79,
                "velocity": 80,
                "duration": 1.0386364,
                "tempo": 120.0
            },
            {
                "start_time": 32.2931818,
                "end_time": 32.425,
                "pitch": 72,
                "velocity": 80,
                "duration": 0.1318182,
                "tempo": 120.0
            },
            {
                "start_time": 32.4431818,
                "end_time": 33.3818182,
                "pitch": 72,
                "velocity": 80,
                "duration": 0.9386364,
                "tempo": 120.0
            },
            {
                "start_time": 33.9545455,
                "end_time": 34.5431818,
                "pitch": 74,
                "velocity": 80,
                "duration": 0.5886364,
                "tempo": 120.0
            },
            {
                "start_time": 34.5613636,
                "end_time": 34.8431818,
                "pitch": 77,
                "velocity": 80,
                "duration": 0.2818182,
                "tempo": 120.0
            },
            {
                "start_time": 34.8613636,
                "end_time": 35.45,
                "pitch": 82,
                "velocity": 80,
                "duration": 0.5886364,
                "tempo": 120.0
            },
            {
                "start_time": 35.4659091,
                "end_time": 36.0522727,
                "pitch": 81,
                "velocity": 80,
                "duration": 0.5863636,
                "tempo": 120.0
            },
            {
                "start_time": 36.0681818,
                "end_time": 37.2613636,
                "pitch": 77,
                "velocity": 80,
                "duration": 1.1931818,
                "tempo": 120.0
            }
        ],
        "Acoustic Bass": [
            {
                "start_time": 0.0113636,
                "end_time": 0.1772727,
                "pitch": 41,
                "velocity": 51,
                "duration": 0.1659091,
                "tempo": 120.0
            },
            {
                "start_time": 0.1909091,
                "end_time": 0.4772727,
                "pitch": 41,
                "velocity": 51,
                "duration": 0.2863636,
                "tempo": 120.0
            },
            {
                "start_time": 0.4931818,
                "end_time": 0.7795455,
                "pitch": 41,
                "velocity": 51,
                "duration": 0.2863636,
                "tempo": 120.0
            },
            {
                "start_time": 0.7954545,
                "end_time": 0.9295455,
                "pitch": 41,
                "velocity": 51,
                "duration": 0.1340909,
                "tempo": 120.0
            },
            {
                "start_time": 0.9454545,
                "end_time": 1.2295455,
                "pitch": 41,
                "velocity": 51,
                "duration": 0.2840909,
                "tempo": 120.0
            },
            {
                "start_time": 1.2454545,
                "end_time": 1.3795455,
                "pitch": 41,
                "velocity": 51,
                "duration": 0.1340909,
                "tempo": 120.0
            },
            {
                "start_time": 1.3954545,
                "end_time": 1.6840909,
                "pitch": 41,
                "velocity": 51,
                "duration": 0.2886364,
                "tempo": 120.0
            },
            {
                "start_time": 1.7022727,
                "end_time": 1.9909091,
                "pitch": 41,
                "velocity": 51,
                "duration": 0.2886364,
                "tempo": 120.0
            },
            {
                "start_time": 2.0090909,
                "end_time": 2.1409091,
                "pitch": 41,
                "velocity": 51,
                "duration": 0.1318182,
                "tempo": 120.0
            },
            {
                "start_time": 2.1568182,
                "end_time": 2.5863636,
                "pitch": 39,
                "velocity": 51,
                "duration": 0.4295455,
                "tempo": 120.0
            },
            {
                "start_time": 2.6022727,
                "end_time": 2.8886364,
                "pitch": 39,
                "velocity": 51,
                "duration": 0.2863636,
                "tempo": 120.0
            },
            {
                "start_time": 2.9045455,
                "end_time": 3.1909091,
                "pitch": 39,
                "velocity": 51,
                "duration": 0.2863636,
                "tempo": 120.0
            },
            {
                "start_time": 3.2090909,
                "end_time": 3.3409091,
                "pitch": 39,
                "velocity": 51,
                "duration": 0.1318182,
                "tempo": 120.0
            },
            {
                "start_time": 3.3590909,
                "end_time": 3.7909091,
                "pitch": 39,
                "velocity": 51,
                "duration": 0.4318182,
                "tempo": 120.0
            },
            {
                "start_time": 3.8090909,
                "end_time": 4.0954545,
                "pitch": 39,
                "velocity": 51,
                "duration": 0.2863636,
                "tempo": 120.0
            },
            {
                "start_time": 4.1113636,
                "end_time": 4.3977273,
                "pitch": 39,
                "velocity": 51,
                "duration": 0.2863636,
                "tempo": 120.0
            },
            {
                "start_time": 4.4136364,
                "end_time": 4.7,
                "pitch": 39,
                "velocity": 51,
                "duration": 0.2863636,
                "tempo": 120.0
            },
            {
                "start_time": 4.7181818,
                "end_time": 5.0045455,
                "pitch": 36,
                "velocity": 51,
                "duration": 0.2863636,
                "tempo": 120.0
            },
            {
                "start_time": 5.0204545,
                "end_time": 5.3045455,
                "pitch": 36,
                "velocity": 51,
                "duration": 0.2840909,
                "tempo": 120.0
            },
            {
                "start_time": 5.3204545,
                "end_time": 5.6045455,
                "pitch": 36,
                "velocity": 51,
                "duration": 0.2840909,
                "tempo": 120.0
            },
            {
                "start_time": 5.6204545,
                "end_time": 5.9045455,
                "pitch": 36,
                "velocity": 51,
                "duration": 0.2840909,
                "tempo": 120.0
            },
            {
                "start_time": 5.9204545,
                "end_time": 6.2045455,
                "pitch": 36,
                "velocity": 51,
                "duration": 0.2840909,
                "tempo": 120.0
            },
            {
                "start_time": 6.2204545,
                "end_time": 6.5068182,
                "pitch": 36,
                "velocity": 51,
                "duration": 0.2863636,
                "tempo": 120.0
            },
            {
                "start_time": 6.5227273,
                "end_time": 6.8090909,
                "pitch": 36,
                "velocity": 51,
                "duration": 0.2863636,
                "tempo": 120.0
            },
            {
                "start_time": 6.8272727,
                "end_time": 7.1090909,
                "pitch": 36,
                "velocity": 51,
                "duration": 0.2818182,
                "tempo": 120.0
            },
            {
                "start_time": 7.1272727,
                "end_time": 7.4090909,
                "pitch": 34,
                "velocity": 51,
                "duration": 0.2818182,
                "tempo": 120.0
            },
            {
                "start_time": 7.4272727,
                "end_time": 7.7136364,
                "pitch": 34,
                "velocity": 51,
                "duration": 0.2863636,
                "tempo": 120.0
            },
            {
                "start_time": 7.7295455,
                "end_time": 8.0159091,
                "pitch": 34,
                "velocity": 51,
                "duration": 0.2863636,
                "tempo": 120.0
            },
            {
                "start_time": 8.0318182,
                "end_time": 8.3159091,
                "pitch": 34,
                "velocity": 51,
                "duration": 0.2840909,
                "tempo": 120.0
            },
            {
                "start_time": 8.3318182,
                "end_time": 8.6159091,
                "pitch": 36,
                "velocity": 51,
                "duration": 0.2840909,
                "tempo": 120.0
            },
            {
                "start_time": 8.6318182,
                "end_time": 8.9159091,
                "pitch": 36,
                "velocity": 51,
                "duration": 0.2840909,
                "tempo": 120.0
            },
            {
                "start_time": 8.9318182,
                "end_time": 9.2159091,
                "pitch": 34,
                "velocity": 51,
                "duration": 0.2840909,
                "tempo": 120.0
            },
            {
                "start_time": 9.2318182,
                "end_time": 9.5204545,
                "pitch": 36,
                "velocity": 51,
                "duration": 0.2886364,
                "tempo": 120.0
            },
            {
                "start_time": 9.5386364,
                "end_time": 9.8272727,
                "pitch": 41,
                "velocity": 51,
                "duration": 0.2886364,
                "tempo": 120.0
            },
            {
                "start_time": 9.8454545,
                "end_time": 10.125,
                "pitch": 41,
                "velocity": 51,
                "duration": 0.2795455,
                "tempo": 120.0
            },
            {
                "start_time": 10.1409091,
                "end_time": 10.4227273,
                "pitch": 41,
                "velocity": 51,
                "duration": 0.2818182,
                "tempo": 120.0
            },
            {
                "start_time": 10.4386364,
                "end_time": 10.5727273,
                "pitch": 41,
                "velocity": 51,
                "duration": 0.1340909,
                "tempo": 120.0
            },
            {
                "start_time": 10.5886364,
                "end_time": 10.8727273,
                "pitch": 41,
                "velocity": 51,
                "duration": 0.2840909,
                "tempo": 120.0
            },
            {
                "start_time": 10.8886364,
                "end_time": 11.0227273,
                "pitch": 41,
                "velocity": 51,
                "duration": 0.1340909,
                "tempo": 120.0
            },
            {
                "start_time": 11.0386364,
                "end_time": 11.3227273,
                "pitch": 41,
                "velocity": 51,
                "duration": 0.2840909,
                "tempo": 120.0
            },
            {
                "start_time": 11.3386364,
                "end_time": 11.6227273,
                "pitch": 41,
                "velocity": 51,
                "duration": 0.2840909,
                "tempo": 120.0
            },
            {
                "start_time": 11.6386364,
                "end_time": 11.7727273,
                "pitch": 41,
                "velocity": 51,
                "duration": 0.1340909,
                "tempo": 120.0
            },
            {
                "start_time": 11.7886364,
                "end_time": 12.2227273,
                "pitch": 39,
                "velocity": 51,
                "duration": 0.4340909,
                "tempo": 120.0
            },
            {
                "start_time": 12.2386364,
                "end_time": 12.5227273,
                "pitch": 39,
                "velocity": 51,
                "duration": 0.2840909,
                "tempo": 120.0
            },
            {
                "start_time": 12.5386364,
                "end_time": 12.8227273,
                "pitch": 39,
                "velocity": 51,
                "duration": 0.2840909,
                "tempo": 120.0
            },
            {
                "start_time": 12.8386364,
                "end_time": 12.9727273,
                "pitch": 39,
                "velocity": 51,
                "duration": 0.1340909,
                "tempo": 120.0
            },
            {
                "start_time": 12.9909091,
                "end_time": 13.4272727,
                "pitch": 39,
                "velocity": 51,
                "duration": 0.4363636,
                "tempo": 120.0
            },
            {
                "start_time": 13.4454545,
                "end_time": 13.7272727,
                "pitch": 39,
                "velocity": 51,
                "duration": 0.2818182,
                "tempo": 120.0
            },
            {
                "start_time": 13.7454545,
                "end_time": 14.0272727,
                "pitch": 39,
                "velocity": 51,
                "duration": 0.2818182,
                "tempo": 120.0
            },
            {
                "start_time": 14.0454545,
                "end_time": 14.3272727,
                "pitch": 39,
                "velocity": 51,
                "duration": 0.2818182,
                "tempo": 120.0
            },
            {
                "start_time": 14.3454545,
                "end_time": 14.6272727,
                "pitch": 36,
                "velocity": 51,
                "duration": 0.2818182,
                "tempo": 120.0
            },
            {
                "start_time": 14.6454545,
                "end_time": 14.9272727,
                "pitch": 36,
                "velocity": 51,
                "duration": 0.2818182,
                "tempo": 120.0
            },
            {
                "start_time": 14.9454545,
                "end_time": 15.2272727,
                "pitch": 36,
                "velocity": 51,
                "duration": 0.2818182,
                "tempo": 120.0
            },
            {
                "start_time": 15.2454545,
                "end_time": 15.5272727,
                "pitch": 36,
                "velocity": 51,
                "duration": 0.2818182,
                "tempo": 120.0
            },
            {
                "start_time": 15.5454545,
                "end_time": 15.8272727,
                "pitch": 36,
                "velocity": 51,
                "duration": 0.2818182,
                "tempo": 120.0
            },
            {
                "start_time": 15.8454545,
                "end_time": 16.1318182,
                "pitch": 36,
                "velocity": 51,
                "duration": 0.2863636,
                "tempo": 120.0
            },
            {
                "start_time": 16.1477273,
                "end_time": 16.4340909,
                "pitch": 36,
                "velocity": 51,
                "duration": 0.2863636,
                "tempo": 120.0
            },
            {
                "start_time": 16.45,
                "end_time": 16.7340909,
                "pitch": 36,
                "velocity": 51,
                "duration": 0.2840909,
                "tempo": 120.0
            },
            {
                "start_time": 16.75,
                "end_time": 17.0340909,
                "pitch": 34,
                "velocity": 51,
                "duration": 0.2840909,
                "tempo": 120.0
            },
            {
                "start_time": 17.05,
                "end_time": 17.3340909,
                "pitch": 34,
                "velocity": 51,
                "duration": 0.2840909,
                "tempo": 120.0
            },
            {
                "start_time": 17.35,
                "end_time": 17.6340909,
                "pitch": 34,
                "velocity": 51,
                "duration": 0.2840909,
                "tempo": 120.0
            },
            {
                "start_time": 17.65,
                "end_time": 17.9363636,
                "pitch": 34,
                "velocity": 51,
                "duration": 0.2863636,
                "tempo": 120.0
            },
            {
                "start_time": 17.9545455,
                "end_time": 18.2409091,
                "pitch": 36,
                "velocity": 51,
                "duration": 0.2863636,
                "tempo": 120.0
            },
            {
                "start_time": 18.2568182,
                "end_time": 18.5454545,
                "pitch": 36,
                "velocity": 51,
                "duration": 0.2886364,
                "tempo": 120.0
            },
            {
                "start_time": 18.5636364,
                "end_time": 18.8522727,
                "pitch": 34,
                "velocity": 51,
                "duration": 0.2886364,
                "tempo": 120.0
            },
            {
                "start_time": 18.8681818,
                "end_time": 19.15,
                "pitch": 36,
                "velocity": 51,
                "duration": 0.2818182,
                "tempo": 120.0
            },
            {
                "start_time": 19.1659091,
                "end_time": 19.4454545,
                "pitch": 41,
                "velocity": 51,
                "duration": 0.2795455,
                "tempo": 120.0
            },
            {
                "start_time": 19.4636364,
                "end_time": 19.75,
                "pitch": 41,
                "velocity": 51,
                "duration": 0.2863636,
                "tempo": 120.0
            },
            {
                "start_time": 19.7659091,
                "end_time": 20.0522727,
                "pitch": 41,
                "velocity": 51,
                "duration": 0.2863636,
                "tempo": 120.0
            },
            {
                "start_time": 20.0681818,
                "end_time": 20.3522727,
                "pitch": 41,
                "velocity": 51,
                "duration": 0.2840909,
                "tempo": 120.0
            },
            {
                "start_time": 20.3681818,
                "end_time": 20.6522727,
                "pitch": 41,
                "velocity": 51,
                "duration": 0.2840909,
                "tempo": 120.0
            },
            {
                "start_time": 20.6681818,
                "end_time": 20.9545455,
                "pitch": 41,
                "velocity": 51,
                "duration": 0.2863636,
                "tempo": 120.0
            },
            {
                "start_time": 20.9727273,
                "end_time": 21.2590909,
                "pitch": 41,
                "velocity": 51,
                "duration": 0.2863636,
                "tempo": 120.0
            },
            {
                "start_time": 21.275,
                "end_time": 21.5613636,
                "pitch": 41,
                "velocity": 51,
                "duration": 0.2863636,
                "tempo": 120.0
            },
            {
                "start_time": 21.5772727,
                "end_time": 21.8636364,
                "pitch": 36,
                "velocity": 51,
                "duration": 0.2863636,
                "tempo": 120.0
            },
            {
                "start_time": 21.8818182,
                "end_time": 22.1636364,
                "pitch": 36,
                "velocity": 51,
                "duration": 0.2818182,
                "tempo": 120.0
            },
            {
                "start_time": 22.1818182,
                "end_time": 22.4636364,
                "pitch": 36,
                "velocity": 51,
                "duration": 0.2818182,
                "tempo": 120.0
            },
            {
                "start_time": 22.4818182,
                "end_time": 22.7681818,
                "pitch": 36,
                "velocity": 51,
                "duration": 0.2863636,
                "tempo": 120.0
            },
            {
                "start_time": 22.7840909,
                "end_time": 23.0704545,
                "pitch": 36,
                "velocity": 51,
                "duration": 0.2863636,
                "tempo": 120.0
            },
            {
                "start_time": 23.0863636,
                "end_time": 23.3704545,
                "pitch": 36,
                "velocity": 51,
                "duration": 0.2840909,
                "tempo": 120.0
            },
            {
                "start_time": 23.3863636,
                "end_time": 23.6704545,
                "pitch": 33,
                "velocity": 51,
                "duration": 0.2840909,
                "tempo": 120.0
            },
            {
                "start_time": 23.6863636,
                "end_time": 23.9727273,
                "pitch": 34,
                "velocity": 51,
                "duration": 0.2863636,
                "tempo": 120.0
            },
            {
                "start_time": 23.9909091,
                "end_time": 24.2772727,
                "pitch": 34,
                "velocity": 51,
                "duration": 0.2863636,
                "tempo": 120.0
            },
            {
                "start_time": 24.2931818,
                "end_time": 24.5795455,
                "pitch": 34,
                "velocity": 51,
                "duration": 0.2863636,
                "tempo": 120.0
            },
            {
                "start_time": 24.5954545,
                "end_time": 24.8818182,
                "pitch": 34,
                "velocity": 51,
                "duration": 0.2863636,
                "tempo": 120.0
            },
            {
                "start_time": 24.9,
                "end_time": 25.1818182,
                "pitch": 34,
                "velocity": 51,
                "duration": 0.2818182,
                "tempo": 120.0
            },
            {
                "start_time": 25.2,
                "end_time": 25.4818182,
                "pitch": 34,
                "velocity": 51,
                "duration": 0.2818182,
                "tempo": 120.0
            },
            {
                "start_time": 25.5,
                "end_time": 25.7863636,
                "pitch": 34,
                "velocity": 51,
                "duration": 0.2863636,
                "tempo": 120.0
            },
            {
                "start_time": 25.8022727,
                "end_time": 26.0886364,
                "pitch": 33,
                "velocity": 51,
                "duration": 0.2863636,
                "tempo": 120.0
            },
            {
                "start_time": 26.1045455,
                "end_time": 26.3886364,
                "pitch": 34,
                "velocity": 51,
                "duration": 0.2840909,
                "tempo": 120.0
            },
            {
                "start_time": 26.4045455,
                "end_time": 26.6886364,
                "pitch": 36,
                "velocity": 51,
                "duration": 0.2840909,
                "tempo": 120.0
            },
            {
                "start_time": 26.7045455,
                "end_time": 26.9909091,
                "pitch": 36,
                "velocity": 51,
                "duration": 0.2863636,
                "tempo": 120.0
            },
            {
                "start_time": 27.0090909,
                "end_time": 27.2954545,
                "pitch": 36,
                "velocity": 51,
                "duration": 0.2863636,
                "tempo": 120.0
            },
            {
                "start_time": 27.3113636,
                "end_time": 27.5977273,
                "pitch": 36,
                "velocity": 51,
                "duration": 0.2863636,
                "tempo": 120.0
            },
            {
                "start_time": 27.6136364,
                "end_time": 27.9,
                "pitch": 36,
                "velocity": 51,
                "duration": 0.2863636,
                "tempo": 120.0
            },
            {
                "start_time": 27.9181818,
                "end_time": 28.2068182,
                "pitch": 34,
                "velocity": 51,
                "duration": 0.2886364,
                "tempo": 120.0
            },
            {
                "start_time": 28.2227273,
                "end_time": 28.5136364,
                "pitch": 36,
                "velocity": 51,
                "duration": 0.2909091,
                "tempo": 120.0
            },
            {
                "start_time": 28.5295455,
                "end_time": 28.8136364,
                "pitch": 36,
                "velocity": 51,
                "duration": 0.2840909,
                "tempo": 120.0
            },
            {
                "start_time": 28.8295455,
                "end_time": 29.1136364,
                "pitch": 41,
                "velocity": 51,
                "duration": 0.2840909,
                "tempo": 120.0
            },
            {
                "start_time": 29.1295455,
                "end_time": 29.4113636,
                "pitch": 41,
                "velocity": 51,
                "duration": 0.2818182,
                "tempo": 120.0
            },
            {
                "start_time": 29.4272727,
                "end_time": 29.7068182,
                "pitch": 41,
                "velocity": 51,
                "duration": 0.2795455,
                "tempo": 120.0
            },
            {
                "start_time": 29.725,
                "end_time": 30.0090909,
                "pitch": 41,
                "velocity": 51,
                "duration": 0.2840909,
                "tempo": 120.0
            },
            {
                "start_time": 30.0272727,
                "end_time": 30.3136364,
                "pitch": 41,
                "velocity": 51,
                "duration": 0.2863636,
                "tempo": 120.0
            },
            {
                "start_time": 30.3295455,
                "end_time": 30.6159091,
                "pitch": 41,
                "velocity": 51,
                "duration": 0.2863636,
                "tempo": 120.0
            },
            {
                "start_time": 30.6340909,
                "end_time": 30.9181818,
                "pitch": 41,
                "velocity": 51,
                "duration": 0.2840909,
                "tempo": 120.0
            },
            {
                "start_time": 30.9363636,
                "end_time": 31.2204545,
                "pitch": 41,
                "velocity": 51,
                "duration": 0.2840909,
                "tempo": 120.0
            },
            {
                "start_time": 31.2363636,
                "end_time": 31.5204545,
                "pitch": 36,
                "velocity": 51,
                "duration": 0.2840909,
                "tempo": 120.0
            },
            {
                "start_time": 31.5363636,
                "end_time": 31.8227273,
                "pitch": 36,
                "velocity": 51,
                "duration": 0.2863636,
                "tempo": 120.0
            },
            {
                "start_time": 31.8386364,
                "end_time": 32.125,
                "pitch": 36,
                "velocity": 51,
                "duration": 0.2863636,
                "tempo": 120.0
            },
            {
                "start_time": 32.1431818,
                "end_time": 32.425,
                "pitch": 36,
                "velocity": 51,
                "duration": 0.2818182,
                "tempo": 120.0
            },
            {
                "start_time": 32.4431818,
                "end_time": 32.725,
                "pitch": 36,
                "velocity": 51,
                "duration": 0.2818182,
                "tempo": 120.0
            },
            {
                "start_time": 32.7431818,
                "end_time": 33.0272727,
                "pitch": 36,
                "velocity": 51,
                "duration": 0.2840909,
                "tempo": 120.0
            },
            {
                "start_time": 33.0454545,
                "end_time": 33.3318182,
                "pitch": 33,
                "velocity": 51,
                "duration": 0.2863636,
                "tempo": 120.0
            },
            {
                "start_time": 33.3477273,
                "end_time": 33.6340909,
                "pitch": 34,
                "velocity": 51,
                "duration": 0.2863636,
                "tempo": 120.0
            },
            {
                "start_time": 33.6522727,
                "end_time": 33.9363636,
                "pitch": 34,
                "velocity": 51,
                "duration": 0.2840909,
                "tempo": 120.0
            },
            {
                "start_time": 33.9545455,
                "end_time": 34.2409091,
                "pitch": 34,
                "velocity": 51,
                "duration": 0.2863636,
                "tempo": 120.0
            },
            {
                "start_time": 34.2568182,
                "end_time": 34.5431818,
                "pitch": 34,
                "velocity": 51,
                "duration": 0.2863636,
                "tempo": 120.0
            },
            {
                "start_time": 34.5613636,
                "end_time": 34.8431818,
                "pitch": 34,
                "velocity": 51,
                "duration": 0.2818182,
                "tempo": 120.0
            },
            {
                "start_time": 34.8613636,
                "end_time": 35.1431818,
                "pitch": 36,
                "velocity": 51,
                "duration": 0.2818182,
                "tempo": 120.0
            },
            {
                "start_time": 35.1613636,
                "end_time": 35.45,
                "pitch": 36,
                "velocity": 51,
                "duration": 0.2886364,
                "tempo": 120.0
            },
            {
                "start_time": 35.4659091,
                "end_time": 35.7545455,
                "pitch": 34,
                "velocity": 51,
                "duration": 0.2886364,
                "tempo": 120.0
            },
            {
                "start_time": 35.7727273,
                "end_time": 36.0522727,
                "pitch": 36,
                "velocity": 51,
                "duration": 0.2795455,
                "tempo": 120.0
            },
            {
                "start_time": 36.0681818,
                "end_time": 36.35,
                "pitch": 41,
                "velocity": 51,
                "duration": 0.2818182,
                "tempo": 120.0
            },
            {
                "start_time": 36.3659091,
                "end_time": 36.6522727,
                "pitch": 41,
                "velocity": 51,
                "duration": 0.2863636,
                "tempo": 120.0
            },
            {
                "start_time": 36.6704545,
                "end_time": 36.9545455,
                "pitch": 41,
                "velocity": 51,
                "duration": 0.2840909,
                "tempo": 120.0
            },
            {
                "start_time": 36.9727273,
                "end_time": 37.2613636,
                "pitch": 41,
                "velocity": 51,
                "duration": 0.2886364,
                "tempo": 120.0
            },
            {
                "start_time": 37.2795455,
                "end_time": 37.5681818,
                "pitch": 41,
                "velocity": 51,
                "duration": 0.2886364,
                "tempo": 120.0
            },
            {
                "start_time": 37.5840909,
                "end_time": 37.8704545,
                "pitch": 41,
                "velocity": 51,
                "duration": 0.2863636,
                "tempo": 120.0
            },
            {
                "start_time": 37.8886364,
                "end_time": 38.175,
                "pitch": 34,
                "velocity": 51,
                "duration": 0.2863636,
                "tempo": 120.0
            },
            {
                "start_time": 38.1909091,
                "end_time": 38.4772727,
                "pitch": 36,
                "velocity": 51,
                "duration": 0.2863636,
                "tempo": 120.0
            },
            {
                "start_time": 38.4931818,
                "end_time": 38.7795455,
                "pitch": 41,
                "velocity": 51,
                "duration": 0.2863636,
                "tempo": 120.0
            },
            {
                "start_time": 38.7977273,
                "end_time": 38.8295455,
                "pitch": 41,
                "velocity": 51,
                "duration": 0.0318182,
                "tempo": 120.0
            }
        ],
        "Flute": [
            {
                "start_time": 1.8545455,
                "end_time": 1.9909091,
                "pitch": 82,
                "velocity": 51,
                "duration": 0.1363636,
                "tempo": 120.0
            },
            {
                "start_time": 2.0090909,
                "end_time": 2.1409091,
                "pitch": 81,
                "velocity": 51,
                "duration": 0.1318182,
                "tempo": 120.0
            },
            {
                "start_time": 2.1568182,
                "end_time": 2.2886364,
                "pitch": 79,
                "velocity": 51,
                "duration": 0.1318182,
                "tempo": 120.0
            },
            {
                "start_time": 2.3045455,
                "end_time": 3.4909091,
                "pitch": 77,
                "velocity": 51,
                "duration": 1.1863636,
                "tempo": 120.0
            },
            {
                "start_time": 4.2636364,
                "end_time": 4.3977273,
                "pitch": 81,
                "velocity": 51,
                "duration": 0.1340909,
                "tempo": 120.0
            },
            {
                "start_time": 4.4136364,
                "end_time": 4.55,
                "pitch": 79,
                "velocity": 51,
                "duration": 0.1363636,
                "tempo": 120.0
            },
            {
                "start_time": 4.5659091,
                "end_time": 4.7,
                "pitch": 77,
                "velocity": 51,
                "duration": 0.1340909,
                "tempo": 120.0
            },
            {
                "start_time": 8.4818182,
                "end_time": 8.6159091,
                "pitch": 77,
                "velocity": 51,
                "duration": 0.1340909,
                "tempo": 120.0
            },
            {
                "start_time": 8.6318182,
                "end_time": 8.7659091,
                "pitch": 79,
                "velocity": 51,
                "duration": 0.1340909,
                "tempo": 120.0
            },
            {
                "start_time": 8.7818182,
                "end_time": 8.9159091,
                "pitch": 81,
                "velocity": 51,
                "duration": 0.1340909,
                "tempo": 120.0
            },
            {
                "start_time": 8.9318182,
                "end_time": 9.0659091,
                "pitch": 82,
                "velocity": 51,
                "duration": 0.1340909,
                "tempo": 120.0
            },
            {
                "start_time": 9.0818182,
                "end_time": 9.2159091,
                "pitch": 81,
                "velocity": 51,
                "duration": 0.1340909,
                "tempo": 120.0
            },
            {
                "start_time": 9.2318182,
                "end_time": 9.3681818,
                "pitch": 79,
                "velocity": 51,
                "duration": 0.1363636,
                "tempo": 120.0
            },
            {
                "start_time": 9.3863636,
                "end_time": 9.5204545,
                "pitch": 81,
                "velocity": 51,
                "duration": 0.1340909,
                "tempo": 120.0
            },
            {
                "start_time": 11.4886364,
                "end_time": 11.6227273,
                "pitch": 82,
                "velocity": 51,
                "duration": 0.1340909,
                "tempo": 120.0
            },
            {
                "start_time": 11.6386364,
                "end_time": 11.7727273,
                "pitch": 81,
                "velocity": 51,
                "duration": 0.1340909,
                "tempo": 120.0
            },
            {
                "start_time": 11.7886364,
                "end_time": 11.9227273,
                "pitch": 79,
                "velocity": 51,
                "duration": 0.1340909,
                "tempo": 120.0
            },
            {
                "start_time": 11.9386364,
                "end_time": 13.125,
                "pitch": 77,
                "velocity": 51,
                "duration": 1.1863636,
                "tempo": 120.0
            },
            {
                "start_time": 13.8954545,
                "end_time": 14.0272727,
                "pitch": 81,
                "velocity": 51,
                "duration": 0.1318182,
                "tempo": 120.0
            },
            {
                "start_time": 14.0454545,
                "end_time": 14.1772727,
                "pitch": 79,
                "velocity": 51,
                "duration": 0.1318182,
                "tempo": 120.0
            },
            {
                "start_time": 14.1954545,
                "end_time": 14.3272727,
                "pitch": 77,
                "velocity": 51,
                "duration": 0.1318182,
                "tempo": 120.0
            },
            {
                "start_time": 18.1045455,
                "end_time": 18.2409091,
                "pitch": 82,
                "velocity": 51,
                "duration": 0.1363636,
                "tempo": 120.0
            },
            {
                "start_time": 18.2568182,
                "end_time": 18.3931818,
                "pitch": 81,
                "velocity": 51,
                "duration": 0.1363636,
                "tempo": 120.0
            },
            {
                "start_time": 18.4090909,
                "end_time": 18.5454545,
                "pitch": 79,
                "velocity": 51,
                "duration": 0.1363636,
                "tempo": 120.0
            },
            {
                "start_time": 18.5636364,
                "end_time": 18.7,
                "pitch": 82,
                "velocity": 51,
                "duration": 0.1363636,
                "tempo": 120.0
            },
            {
                "start_time": 18.7159091,
                "end_time": 18.8522727,
                "pitch": 81,
                "velocity": 51,
                "duration": 0.1363636,
                "tempo": 120.0
            },
            {
                "start_time": 18.8681818,
                "end_time": 19.0,
                "pitch": 79,
                "velocity": 51,
                "duration": 0.1318182,
                "tempo": 120.0
            },
            {
                "start_time": 19.0181818,
                "end_time": 19.15,
                "pitch": 77,
                "velocity": 51,
                "duration": 0.1318182,
                "tempo": 120.0
            },
            {
                "start_time": 19.4636364,
                "end_time": 19.75,
                "pitch": 81,
                "velocity": 51,
                "duration": 0.2863636,
                "tempo": 120.0
            },
            {
                "start_time": 19.7659091,
                "end_time": 20.0522727,
                "pitch": 82,
                "velocity": 51,
                "duration": 0.2863636,
                "tempo": 120.0
            },
            {
                "start_time": 20.0681818,
                "end_time": 20.3522727,
                "pitch": 81,
                "velocity": 51,
                "duration": 0.2840909,
                "tempo": 120.0
            },
            {
                "start_time": 20.3681818,
                "end_time": 20.9545455,
                "pitch": 84,
                "velocity": 51,
                "duration": 0.5863636,
                "tempo": 120.0
            },
            {
                "start_time": 20.9727273,
                "end_time": 21.1068182,
                "pitch": 84,
                "velocity": 51,
                "duration": 0.1340909,
                "tempo": 120.0
            },
            {
                "start_time": 21.1227273,
                "end_time": 21.4090909,
                "pitch": 82,
                "velocity": 51,
                "duration": 0.2863636,
                "tempo": 120.0
            },
            {
                "start_time": 21.4272727,
                "end_time": 21.5613636,
                "pitch": 81,
                "velocity": 51,
                "duration": 0.1340909,
                "tempo": 120.0
            },
            {
                "start_time": 21.5772727,
                "end_time": 22.6159091,
                "pitch": 79,
                "velocity": 51,
                "duration": 1.0386364,
                "tempo": 120.0
            },
            {
                "start_time": 22.6318182,
                "end_time": 22.7681818,
                "pitch": 72,
                "velocity": 51,
                "duration": 0.1363636,
                "tempo": 120.0
            },
            {
                "start_time": 22.7840909,
                "end_time": 23.7204545,
                "pitch": 72,
                "velocity": 51,
                "duration": 0.9363636,
                "tempo": 120.0
            },
            {
                "start_time": 24.2931818,
                "end_time": 24.8818182,
                "pitch": 74,
                "velocity": 51,
                "duration": 0.5886364,
                "tempo": 120.0
            },
            {
                "start_time": 24.9,
                "end_time": 25.1818182,
                "pitch": 77,
                "velocity": 51,
                "duration": 0.2818182,
                "tempo": 120.0
            },
            {
                "start_time": 25.2,
                "end_time": 25.7863636,
                "pitch": 82,
                "velocity": 51,
                "duration": 0.5863636,
                "tempo": 120.0
            },
            {
                "start_time": 27.7659091,
                "end_time": 27.9,
                "pitch": 77,
                "velocity": 51,
                "duration": 0.1340909,
                "tempo": 120.0
            },
            {
                "start_time": 27.9181818,
                "end_time": 28.0545455,
                "pitch": 79,
                "velocity": 51,
                "duration": 0.1363636,
                "tempo": 120.0
            },
            {
                "start_time": 28.0704545,
                "end_time": 28.2068182,
                "pitch": 81,
                "velocity": 51,
                "duration": 0.1363636,
                "tempo": 120.0
            },
            {
                "start_time": 28.2227273,
                "end_time": 28.5136364,
                "pitch": 82,
                "velocity": 51,
                "duration": 0.2909091,
                "tempo": 120.0
            },
            {
                "start_time": 28.5295455,
                "end_time": 28.8136364,
                "pitch": 81,
                "velocity": 51,
                "duration": 0.2840909,
                "tempo": 120.0
            },
            {
                "start_time": 32.7431818,
                "end_time": 33.0272727,
                "pitch": 77,
                "velocity": 51,
                "duration": 0.2840909,
                "tempo": 120.0
            },
            {
                "start_time": 33.0454545,
                "end_time": 33.3318182,
                "pitch": 79,
                "velocity": 51,
                "duration": 0.2863636,
                "tempo": 120.0
            },
            {
                "start_time": 33.3477273,
                "end_time": 33.6340909,
                "pitch": 81,
                "velocity": 51,
                "duration": 0.2863636,
                "tempo": 120.0
            },
            {
                "start_time": 33.6522727,
                "end_time": 34.8431818,
                "pitch": 82,
                "velocity": 51,
                "duration": 1.1909091,
                "tempo": 120.0
            },
            {
                "start_time": 34.8613636,
                "end_time": 36.35,
                "pitch": 82,
                "velocity": 51,
                "duration": 1.4886364,
                "tempo": 120.0
            },
            {
                "start_time": 36.3659091,
                "end_time": 36.5,
                "pitch": 82,
                "velocity": 51,
                "duration": 0.1340909,
                "tempo": 120.0
            },
            {
                "start_time": 36.5181818,
                "end_time": 36.8045455,
                "pitch": 81,
                "velocity": 51,
                "duration": 0.2863636,
                "tempo": 120.0
            },
            {
                "start_time": 36.8204545,
                "end_time": 36.9545455,
                "pitch": 82,
                "velocity": 51,
                "duration": 0.1340909,
                "tempo": 120.0
            },
            {
                "start_time": 36.9727273,
                "end_time": 37.1090909,
                "pitch": 81,
                "velocity": 51,
                "duration": 0.1363636,
                "tempo": 120.0
            },
            {
                "start_time": 37.125,
                "end_time": 37.2613636,
                "pitch": 79,
                "velocity": 51,
                "duration": 0.1363636,
                "tempo": 120.0
            },
            {
                "start_time": 37.2795455,
                "end_time": 37.5681818,
                "pitch": 82,
                "velocity": 51,
                "duration": 0.2886364,
                "tempo": 120.0
            },
            {
                "start_time": 37.5840909,
                "end_time": 37.8704545,
                "pitch": 82,
                "velocity": 51,
                "duration": 0.2863636,
                "tempo": 120.0
            },
            {
                "start_time": 37.8886364,
                "end_time": 38.175,
                "pitch": 79,
                "velocity": 51,
                "duration": 0.2863636,
                "tempo": 120.0
            },
            {
                "start_time": 38.1909091,
                "end_time": 38.4772727,
                "pitch": 77,
                "velocity": 51,
                "duration": 0.2863636,
                "tempo": 120.0
            }
        ]
    }
}