{
    "mood": "happy",
    "instruments": {
        "Harpsichord": [
            {
                "start_time": 1.7272727,
                "end_time": 1.7931818,
                "pitch": 50,
                "velocity": 80,
                "duration": 0.0659091,
                "tempo": 120.0
            },
            {
                "start_time": 1.8090909,
                "end_time": 2.1613636,
                "pitch": 52,
                "velocity": 80,
                "duration": 0.3522727,
                "tempo": 120.0
            },
            {
                "start_time": 2.1954545,
                "end_time": 2.4,
                "pitch": 45,
                "velocity": 80,
                "duration": 0.2045455,
                "tempo": 120.0
            },
            {
                "start_time": 2.4159091,
                "end_time": 2.6386364,
                "pitch": 45,
                "velocity": 80,
                "duration": 0.2227273,
                "tempo": 120.0
            },
            {
                "start_time": 2.6568182,
                "end_time": 2.8681818,
                "pitch": 45,
                "velocity": 80,
                "duration": 0.2113636,
                "tempo": 120.0
            },
            {
                "start_time": 3.3204545,
                "end_time": 3.5295455,
                "pitch": 62,
                "velocity": 80,
                "duration": 0.2090909,
                "tempo": 120.0
            },
            {
                "start_time": 3.5454545,
                "end_time": 3.7454545,
                "pitch": 62,
                "velocity": 80,
                "duration": 0.2,
                "tempo": 120.0
            },
            {
                "start_time": 3.9977273,
                "end_time": 4.2136364,
                "pitch": 64,
                "velocity": 80,
                "duration": 0.2159091,
                "tempo": 120.0
            },
            {
                "start_time": 4.2318182,
                "end_time": 4.4477273,
                "pitch": 64,
                "velocity": 80,
                "duration": 0.2159091,
                "tempo": 120.0
            },
            {
                "start_time": 4.4659091,
                "end_time": 4.6659091,
                "pitch": 64,
                "velocity": 80,
                "duration": 0.2,
                "tempo": 120.0
            },
            {
                "start_time": 5.1568182,
                "end_time": 5.3613636,
                "pitch": 50,
                "velocity": 80,
                "duration": 0.2045455,
                "tempo": 120.0
            },
            {
                "start_time": 5.3954545,
                "end_time": 5.5954545,
                "pitch": 50,
                "velocity": 80,
                "duration": 0.2,
                "tempo": 120.0
            },
            {
                "start_time": 5.8477273,
                "end_time": 6.0545455,
                "pitch": 49,
                "velocity": 80,
                "duration": 0.2068182,
                "tempo": 120.0
            },
            {
                "start_time": 6.0704545,
                "end_time": 6.2613636,
                "pitch": 49,
                "velocity": 80,
                "duration": 0.1909091,
                "tempo": 120.0
            },
            {
                "start_time": 6.2772727,
                "end_time": 6.5,
                "pitch": 49,
                "velocity": 80,
                "duration": 0.2227273,
                "tempo": 120.0
            },
            {
                "start_time": 6.9954545,
                "end_time": 7.2022727,
                "pitch": 62,
                "velocity": 80,
                "duration": 0.2068182,
                "tempo": 120.0
            },
            {
                "start_time": 7.2181818,
                "end_time": 7.4227273,
                "pitch": 62,
                "velocity": 80,
                "duration": 0.2045455,
                "tempo": 120.0
            },
            {
                "start_time": 7.6568182,
                "end_time": 7.8613636,
                "pitch": 64,
                "velocity": 80,
                "duration": 0.2045455,
                "tempo": 120.0
            },
            {
                "start_time": 7.8795455,
                "end_time": 8.1022727,
                "pitch": 64,
                "velocity": 80,
                "duration": 0.2227273,
                "tempo": 120.0
            },
            {
                "start_time": 8.1181818,
                "end_time": 8.3318182,
                "pitch": 64,
                "velocity": 80,
                "duration": 0.2136364,
                "tempo": 120.0
            },
            {
                "start_time": 8.7931818,
                "end_time": 9.0113636,
                "pitch": 50,
                "velocity": 80,
                "duration": 0.2181818,
                "tempo": 120.0
            },
            {
                "start_time": 9.0272727,
                "end_time": 9.25,
                "pitch": 50,
                "velocity": 80,
                "duration": 0.2227273,
                "tempo": 120.0
            },
            {
                "start_time": 9.4886364,
                "end_time": 9.6977273,
                "pitch": 49,
                "velocity": 80,
                "duration": 0.2090909,
                "tempo": 120.0
            },
            {
                "start_time": 9.7136364,
                "end_time": 9.9204545,
                "pitch": 49,
                "velocity": 80,
                "duration": 0.2068182,
                "tempo": 120.0
            },
            {
                "start_time": 9.9363636,
                "end_time": 10.1409091,
                "pitch": 49,
                "velocity": 80,
                "duration": 0.2045455,
                "tempo": 120.0
            },
            {
                "start_time": 10.6227273,
                "end_time": 10.8295455,
                "pitch": 50,
                "velocity": 80,
                "duration": 0.2068182,
                "tempo": 120.0
            },
            {
                "start_time": 10.8454545,
                "end_time": 11.0545455,
                "pitch": 50,
                "velocity": 80,
                "duration": 0.2090909,
                "tempo": 120.0
            },
            {
                "start_time": 11.3181818,
                "end_time": 11.525,
                "pitch": 52,
                "velocity": 80,
                "duration": 0.2068182,
                "tempo": 120.0
            },
            {
                "start_time": 11.5409091,
                "end_time": 11.7340909,
                "pitch": 52,
                "velocity": 80,
                "duration": 0.1931818,
                "tempo": 120.0
            },
            {
                "start_time": 11.7659091,
                "end_time": 11.9704545,
                "pitch": 52,
                "velocity": 80,
                "duration": 0.2045455,
                "tempo": 120.0
            },
            {
                "start_time": 12.45,
                "end_time": 12.6431818,
                "pitch": 50,
                "velocity": 80,
                "duration": 0.1931818,
                "tempo": 120.0
            },
            {
                "start_time": 12.6590909,
                "end_time": 12.875,
                "pitch": 50,
                "velocity": 80,
                "duration": 0.2159091,
                "tempo": 120.0
            },
            {
                "start_time": 13.1272727,
                "end_time": 13.3272727,
                "pitch": 49,
                "velocity": 80,
                "duration": 0.2,
                "tempo": 120.0
            },
            {
                "start_time": 13.3613636,
                "end_time": 13.5613636,
                "pitch": 49,
                "velocity": 80,
                "duration": 0.2,
                "tempo": 120.0
            },
            {
                "start_time": 13.5772727,
                "end_time": 13.7954545,
                "pitch": 49,
                "velocity": 80,
                "duration": 0.2181818,
                "tempo": 120.0
            },
            {
                "start_time": 14.2636364,
                "end_time": 14.4818182,
                "pitch": 50,
                "velocity": 80,
                "duration": 0.2181818,
                "tempo": 120.0
            },
            {
                "start_time": 14.4977273,
                "end_time": 14.7159091,
                "pitch": 50,
                "velocity": 80,
                "duration": 0.2181818,
                "tempo": 120.0
            },
            {
                "start_time": 14.9659091,
                "end_time": 15.1613636,
                "pitch": 52,
                "velocity": 80,
                "duration": 0.1954545,
                "tempo": 120.0
            },
            {
                "start_time": 15.1772727,
                "end_time": 15.3909091,
                "pitch": 52,
                "velocity": 80,
                "duration": 0.2136364,
                "tempo": 120.0
            },
            {
                "start_time": 15.4068182,
                "end_time": 15.625,
                "pitch": 52,
                "velocity": 80,
                "duration": 0.2181818,
                "tempo": 120.0
            },
            {
                "start_time": 16.0818182,
                "end_time": 16.2886364,
                "pitch": 50,
                "velocity": 80,
                "duration": 0.2068182,
                "tempo": 120.0
            },
            {
                "start_time": 16.3045455,
                "end_time": 16.5113636,
                "pitch": 50,
                "velocity": 80,
                "duration": 0.2068182,
                "tempo": 120.0
            },
            {
                "start_time": 16.7681818,
                "end_time": 16.9795455,
                "pitch": 61,
                "velocity": 80,
                "duration": 0.2113636,
                "tempo": 120.0
            },
            {
                "start_time": 17.4477273,
                "end_time": 17.6704545,
                "pitch": 61,
                "velocity": 80,
                "duration": 0.2227273,
                "tempo": 120.0
            },
            {
                "start_time": 17.6863636,
                "end_time": 17.9,
                "pitch": 62,
                "velocity": 80,
                "duration": 0.2136364,
                "tempo": 120.0
            },
            {
                "start_time": 18.3613636,
                "end_time": 18.5795455,
                "pitch": 62,
                "velocity": 80,
                "duration": 0.2181818,
                "tempo": 120.0
            },
            {
                "start_time": 18.5954545,
                "end_time": 18.8136364,
                "pitch": 64,
                "velocity": 80,
                "duration": 0.2181818,
                "tempo": 120.0
            },
            {
                "start_time": 18.8295455,
                "end_time": 19.0318182,
                "pitch": 64,
                "velocity": 80,
                "duration": 0.2022727,
                "tempo": 120.0
            },
            {
                "start_time": 19.0477273,
                "end_time": 19.2590909,
                "pitch": 64,
                "velocity": 80,
                "duration": 0.2113636,
                "tempo": 120.0
            },
            {
                "start_time": 19.2772727,
                "end_time": 19.4886364,
                "pitch": 64,
                "velocity": 80,
                "duration": 0.2113636,
                "tempo": 120.0
            },
            {
                "start_time": 19.5045455,
                "end_time": 19.7068182,
                "pitch": 62,
                "velocity": 80,
                "duration": 0.2022727,
                "tempo": 120.0
            },
            {
                "start_time": 19.7386364,
                "end_time": 19.8227273,
                "pitch": 62,
                "velocity": 80,
                "duration": 0.0840909,
                "tempo": 120.0
            },
            {
                "start_time": 19.8386364,
                "end_time": 20.0568182,
                "pitch": 62,
                "velocity": 80,
                "duration": 0.2181818,
                "tempo": 120.0
            },
            {
                "start_time": 20.0727273,
                "end_time": 20.175,
                "pitch": 62,
                "velocity": 80,
                "duration": 0.1022727,
                "tempo": 120.0
            },
            {
                "start_time": 20.1909091,
                "end_time": 20.4090909,
                "pitch": 62,
                "velocity": 80,
                "duration": 0.2181818,
                "tempo": 120.0
            },
            {
                "start_time": 20.425,
                "end_time": 20.625,
                "pitch": 61,
                "velocity": 80,
                "duration": 0.2,
                "tempo": 120.0
            },
            {
                "start_time": 21.1045455,
                "end_time": 21.3,
                "pitch": 61,
                "velocity": 80,
                "duration": 0.1954545,
                "tempo": 120.0
            },
            {
                "start_time": 21.3340909,
                "end_time": 21.5386364,
                "pitch": 62,
                "velocity": 80,
                "duration": 0.2045455,
                "tempo": 120.0
            },
            {
                "start_time": 22.0181818,
                "end_time": 22.2113636,
                "pitch": 62,
                "velocity": 80,
                "duration": 0.1931818,
                "tempo": 120.0
            },
            {
                "start_time": 22.2272727,
                "end_time": 22.4431818,
                "pitch": 64,
                "velocity": 80,
                "duration": 0.2159091,
                "tempo": 120.0
            },
            {
                "start_time": 22.4613636,
                "end_time": 22.6772727,
                "pitch": 64,
                "velocity": 80,
                "duration": 0.2159091,
                "tempo": 120.0
            },
            {
                "start_time": 22.6954545,
                "end_time": 22.9,
                "pitch": 64,
                "velocity": 80,
                "duration": 0.2045455,
                "tempo": 120.0
            },
            {
                "start_time": 22.9340909,
                "end_time": 23.1386364,
                "pitch": 64,
                "velocity": 80,
                "duration": 0.2045455,
                "tempo": 120.0
            },
            {
                "start_time": 23.1568182,
                "end_time": 23.3704545,
                "pitch": 62,
                "velocity": 80,
                "duration": 0.2136364,
                "tempo": 120.0
            },
            {
                "start_time": 23.3863636,
                "end_time": 23.4840909,
                "pitch": 62,
                "velocity": 80,
                "duration": 0.0977273,
                "tempo": 120.0
            },
            {
                "start_time": 23.5,
                "end_time": 23.7,
                "pitch": 62,
                "velocity": 80,
                "duration": 0.2,
                "tempo": 120.0
            },
            {
                "start_time": 23.7340909,
                "end_time": 23.8204545,
                "pitch": 62,
                "velocity": 80,
                "duration": 0.0863636,
                "tempo": 120.0
            },
            {
                "start_time": 23.8363636,
                "end_time": 24.0590909,
                "pitch": 62,
                "velocity": 80,
                "duration": 0.2227273,
                "tempo": 120.0
            },
            {
                "start_time": 24.0772727,
                "end_time": 24.2840909,
                "pitch": 61,
                "velocity": 80,
                "duration": 0.2068182,
                "tempo": 120.0
            },
            {
                "start_time": 24.7409091,
                "end_time": 24.9590909,
                "pitch": 61,
                "velocity": 80,
                "duration": 0.2181818,
                "tempo": 120.0
            },
            {
                "start_time": 24.975,
                "end_time": 25.1931818,
                "pitch": 62,
                "velocity": 80,
                "duration": 0.2181818,
                "tempo": 120.0
            },
            {
                "start_time": 25.65,
                "end_time": 25.8590909,
                "pitch": 62,
                "velocity": 80,
                "duration": 0.2090909,
                "tempo": 120.0
            },
            {
                "start_time": 25.875,
                "end_time": 26.0840909,
                "pitch": 64,
                "velocity": 80,
                "duration": 0.2090909,
                "tempo": 120.0
            },
            {
                "start_time": 26.1181818,
                "end_time": 26.3295455,
                "pitch": 64,
                "velocity": 80,
                "duration": 0.2113636,
                "tempo": 120.0
            },
            {
                "start_time": 26.3477273,
                "end_time": 26.5590909,
                "pitch": 64,
                "velocity": 80,
                "duration": 0.2113636,
                "tempo": 120.0
            },
            {
                "start_time": 26.575,
                "end_time": 26.7886364,
                "pitch": 64,
                "velocity": 80,
                "duration": 0.2136364,
                "tempo": 120.0
            },
            {
                "start_time": 26.8045455,
                "end_time": 27.0045455,
                "pitch": 62,
                "velocity": 80,
                "duration": 0.2,
                "tempo": 120.0
            },
            {
                "start_time": 27.0227273,
                "end_time": 27.1227273,
                "pitch": 62,
                "velocity": 80,
                "duration": 0.1,
                "tempo": 120.0
            },
            {
                "start_time": 27.1386364,
                "end_time": 27.3545455,
                "pitch": 62,
                "velocity": 80,
                "duration": 0.2159091,
                "tempo": 120.0
            },
            {
                "start_time": 27.3704545,
                "end_time": 27.4681818,
                "pitch": 62,
                "velocity": 80,
                "duration": 0.0977273,
                "tempo": 120.0
            },
            {
                "start_time": 27.4840909,
                "end_time": 27.6818182,
                "pitch": 62,
                "velocity": 80,
                "duration": 0.1977273,
                "tempo": 120.0
            },
            {
                "start_time": 27.7136364,
                "end_time": 27.9181818,
                "pitch": 61,
                "velocity": 80,
                "duration": 0.2045455,
                "tempo": 120.0
            },
            {
                "start_time": 28.4,
                "end_time": 28.5909091,
                "pitch": 61,
                "velocity": 80,
                "duration": 0.1909091,
                "tempo": 120.0
            },
            {
                "start_time": 28.6068182,
                "end_time": 28.8227273,
                "pitch": 62,
                "velocity": 80,
                "duration": 0.2159091,
                "tempo": 120.0
            },
            {
                "start_time": 29.3090909,
                "end_time": 29.5090909,
                "pitch": 62,
                "velocity": 80,
                "duration": 0.2,
                "tempo": 120.0
            },
            {
                "start_time": 29.525,
                "end_time": 29.7431818,
                "pitch": 64,
                "velocity": 80,
                "duration": 0.2181818,
                "tempo": 120.0
            },
            {
                "start_time": 29.7590909,
                "end_time": 29.9772727,
                "pitch": 64,
                "velocity": 80,
                "duration": 0.2181818,
                "tempo": 120.0
            },
            {
                "start_time": 29.9931818,
                "end_time": 30.1954545,
                "pitch": 64,
                "velocity": 80,
                "duration": 0.2022727,
                "tempo": 120.0
            },
            {
                "start_time": 30.2113636,
                "end_time": 30.4295455,
                "pitch": 64,
                "velocity": 80,
                "duration": 0.2181818,
                "tempo": 120.0
            },
            {
                "start_time": 30.4454545,
                "end_time": 30.6590909,
                "pitch": 62,
                "velocity": 80,
                "duration": 0.2136364,
                "tempo": 120.0
            },
            {
                "start_time": 30.675,
                "end_time": 30.7727273,
                "pitch": 62,
                "velocity": 80,
                "duration": 0.0977273,
                "tempo": 120.0
            },
            {
                "start_time": 30.7886364,
                "end_time": 30.9886364,
                "pitch": 62,
                "velocity": 80,
                "duration": 0.2,
                "tempo": 120.0
            },
            {
                "start_time": 31.0068182,
                "end_time": 31.1090909,
                "pitch": 62,
                "velocity": 80,
                "duration": 0.1022727,
                "tempo": 120.0
            },
            {
                "start_time": 31.125,
                "end_time": 31.3477273,
                "pitch": 62,
                "velocity": 80,
                "duration": 0.2227273,
                "tempo": 120.0
            },
            {
                "start_time": 31.3659091,
                "end_time": 31.5772727,
                "pitch": 49,
                "velocity": 80,
                "duration": 0.2113636,
                "tempo": 120.0
            },
            {
                "start_time": 31.5931818,
                "end_time": 31.7909091,
                "pitch": 49,
                "velocity": 80,
                "duration": 0.1977273,
                "tempo": 120.0
            },
            {
                "start_time": 31.8068182,
                "end_time": 32.0181818,
                "pitch": 49,
                "velocity": 80,
                "duration": 0.2113636,
                "tempo": 120.0
            },
            {
                "start_time": 32.4977273,
                "end_time": 32.6977273,
                "pitch": 50,
                "velocity": 80,
                "duration": 0.2,
                "tempo": 120.0
            },
            {
                "start_time": 32.7159091,
                "end_time": 32.9318182,
                "pitch": 50,
                "velocity": 80,
                "duration": 0.2159091,
                "tempo": 120.0
            },
            {
                "start_time": 33.1840909,
                "end_time": 33.3840909,
                "pitch": 52,
                "velocity": 80,
                "duration": 0.2,
                "tempo": 120.0
            },
            {
                "start_time": 33.4,
                "end_time": 33.6181818,
                "pitch": 52,
                "velocity": 80,
                "duration": 0.2181818,
                "tempo": 120.0
            },
            {
                "start_time": 33.6340909,
                "end_time": 33.8477273,
                "pitch": 52,
                "velocity": 80,
                "duration": 0.2136364,
                "tempo": 120.0
            },
            {
                "start_time": 34.3090909,
                "end_time": 34.5272727,
                "pitch": 50,
                "velocity": 80,
                "duration": 0.2181818,
                "tempo": 120.0
            },
            {
                "start_time": 34.5431818,
                "end_time": 34.7613636,
                "pitch": 50,
                "velocity": 80,
                "duration": 0.2181818,
                "tempo": 120.0
            },
            {
                "start_time": 34.9954545,
                "end_time": 35.2090909,
                "pitch": 49,
                "velocity": 80,
                "duration": 0.2136364,
                "tempo": 120.0
            },
            {
                "start_time": 35.225,
                "end_time": 35.4363636,
                "pitch": 49,
                "velocity": 80,
                "duration": 0.2113636,
                "tempo": 120.0
            },
            {
                "start_time": 35.4522727,
                "end_time": 35.6590909,
                "pitch": 49,
                "velocity": 80,
                "duration": 0.2068182,
                "tempo": 120.0
            },
            {
                "start_time": 36.1386364,
                "end_time": 36.3454545,
                "pitch": 50,
                "velocity": 80,
                "duration": 0.2068182,
                "tempo": 120.0
            },
            {
                "start_time": 36.3613636,
                "end_time": 36.5681818,
                "pitch": 50,
                "velocity": 80,
                "duration": 0.2068182,
                "tempo": 120.0
            },
            {
                "start_time": 36.825,
                "end_time": 37.0363636,
                "pitch": 52,
                "velocity": 80,
                "duration": 0.2113636,
                "tempo": 120.0
            },
            {
                "start_time": 37.0522727,
                "end_time": 37.25,
                "pitch": 52,
                "velocity": 80,
                "duration": 0.1977273,
                "tempo": 120.0
            },
            {
                "start_time": 37.2818182,
                "end_time": 37.4863636,
                "pitch": 52,
                "velocity": 80,
                "duration": 0.2045455,
                "tempo": 120.0
            },
            {
                "start_time": 37.9681818,
                "end_time": 38.1590909,
                "pitch": 50,
                "velocity": 80,
                "duration": 0.1909091,
                "tempo": 120.0
            },
            {
                "start_time": 38.175,
                "end_time": 38.3931818,
                "pitch": 50,
                "velocity": 80,
                "duration": 0.2181818,
                "tempo": 120.0
            },
            {
                "start_time": 38.6431818,
                "end_time": 38.6590909,
                "pitch": 49,
                "velocity": 80,
                "duration": 0.0159091,
                "tempo": 120.0
            }
        ],
        "Acoustic Grand Piano": [
            {
                "start_time": 5.8477273,
                "end_time": 6.0545455,
                "pitch": 33,
                "velocity": 64,
                "duration": 0.2068182,
                "tempo": 120.0
            },
            {
                "start_time": 6.0704545,
                "end_time": 6.2613636,
                "pitch": 33,
                "velocity": 64,
                "duration": 0.1909091,
                "tempo": 120.0
            },
            {
                "start_time": 6.2772727,
                "end_time": 6.5,
                "pitch": 33,
                "velocity": 64,
                "duration": 0.2227273,
                "tempo": 120.0
            },
            {
                "start_time": 6.9954545,
                "end_time": 7.2022727,
                "pitch": 38,
                "velocity": 64,
                "duration": 0.2068182,
                "tempo": 120.0
            },
            {
                "start_time": 7.2181818,
                "end_time": 7.4227273,
                "pitch": 38,
                "velocity": 64,
                "duration": 0.2045455,
                "tempo": 120.0
            },
            {
                "start_time": 7.6568182,
                "end_time": 7.8613636,
                "pitch": 40,
                "velocity": 64,
                "duration": 0.2045455,
                "tempo": 120.0
            },
            {
                "start_time": 7.8795455,
                "end_time": 8.1022727,
                "pitch": 40,
                "velocity": 64,
                "duration": 0.2227273,
                "tempo": 120.0
            },
            {
                "start_time": 8.1181818,
                "end_time": 8.3318182,
                "pitch": 40,
                "velocity": 64,
                "duration": 0.2136364,
                "tempo": 120.0
            },
            {
                "start_time": 8.7931818,
                "end_time": 9.0113636,
                "pitch": 45,
                "velocity": 64,
                "duration": 0.2181818,
                "tempo": 120.0
            },
            {
                "start_time": 9.0272727,
                "end_time": 9.25,
                "pitch": 48,
                "velocity": 64,
                "duration": 0.2227273,
                "tempo": 120.0
            },
            {
                "start_time": 9.2659091,
                "end_time": 9.4727273,
                "pitch": 45,
                "velocity": 64,
                "duration": 0.2068182,
                "tempo": 120.0
            },
            {
                "start_time": 9.4886364,
                "end_time": 9.6977273,
                "pitch": 33,
                "velocity": 64,
                "duration": 0.2090909,
                "tempo": 120.0
            },
            {
                "start_time": 9.7136364,
                "end_time": 9.9204545,
                "pitch": 33,
                "velocity": 64,
                "duration": 0.2068182,
                "tempo": 120.0
            },
            {
                "start_time": 9.9363636,
                "end_time": 10.1409091,
                "pitch": 33,
                "velocity": 64,
                "duration": 0.2045455,
                "tempo": 120.0
            },
            {
                "start_time": 10.6227273,
                "end_time": 10.8295455,
                "pitch": 38,
                "velocity": 64,
                "duration": 0.2068182,
                "tempo": 120.0
            },
            {
                "start_time": 10.8454545,
                "end_time": 11.0545455,
                "pitch": 38,
                "velocity": 64,
                "duration": 0.2090909,
                "tempo": 120.0
            },
            {
                "start_time": 11.3181818,
                "end_time": 11.525,
                "pitch": 40,
                "velocity": 64,
                "duration": 0.2068182,
                "tempo": 120.0
            },
            {
                "start_time": 11.5409091,
                "end_time": 11.7340909,
                "pitch": 40,
                "velocity": 64,
                "duration": 0.1931818,
                "tempo": 120.0
            },
            {
                "start_time": 11.7659091,
                "end_time": 11.9704545,
                "pitch": 40,
                "velocity": 64,
                "duration": 0.2045455,
                "tempo": 120.0
            },
            {
                "start_time": 12.45,
                "end_time": 12.6431818,
                "pitch": 45,
                "velocity": 64,
                "duration": 0.1931818,
                "tempo": 120.0
            },
            {
                "start_time": 12.6590909,
                "end_time": 12.875,
                "pitch": 48,
                "velocity": 64,
                "duration": 0.2159091,
                "tempo": 120.0
            },
            {
                "start_time": 12.8931818,
                "end_time": 13.1090909,
                "pitch": 45,
                "velocity": 64,
                "duration": 0.2159091,
                "tempo": 120.0
            },
            {
                "start_time": 13.1272727,
                "end_time": 13.3272727,
                "pitch": 33,
                "velocity": 64,
                "duration": 0.2,
                "tempo": 120.0
            },
            {
                "start_time": 13.3613636,
                "end_time": 13.5613636,
                "pitch": 33,
                "velocity": 64,
                "duration": 0.2,
                "tempo": 120.0
            },
            {
                "start_time": 13.5772727,
                "end_time": 13.7954545,
                "pitch": 33,
                "velocity": 64,
                "duration": 0.2181818,
                "tempo": 120.0
            },
            {
                "start_time": 14.2636364,
                "end_time": 14.4818182,
                "pitch": 38,
                "velocity": 64,
                "duration": 0.2181818,
                "tempo": 120.0
            },
            {
                "start_time": 14.4977273,
                "end_time": 14.7159091,
                "pitch": 38,
                "velocity": 64,
                "duration": 0.2181818,
                "tempo": 120.0
            },
            {
                "start_time": 14.9659091,
                "end_time": 15.1613636,
                "pitch": 40,
                "velocity": 64,
                "duration": 0.1954545,
                "tempo": 120.0
            },
            {
                "start_time": 15.1772727,
                "end_time": 15.3909091,
                "pitch": 40,
                "velocity": 64,
                "duration": 0.2136364,
                "tempo": 120.0
            },
            {
                "start_time": 15.4068182,
                "end_time": 15.625,
                "pitch": 40,
                "velocity": 64,
                "duration": 0.2181818,
                "tempo": 120.0
            },
            {
                "start_time": 16.0818182,
                "end_time": 16.2886364,
                "pitch": 45,
                "velocity": 64,
                "duration": 0.2068182,
                "tempo": 120.0
            },
            {
                "start_time": 16.3045455,
                "end_time": 16.5113636,
                "pitch": 43,
                "velocity": 64,
                "duration": 0.2068182,
                "tempo": 120.0
            },
            {
                "start_time": 16.5454545,
                "end_time": 16.75,
                "pitch": 40,
                "velocity": 64,
                "duration": 0.2045455,
                "tempo": 120.0
            },
            {
                "start_time": 16.7681818,
                "end_time": 16.9795455,
                "pitch": 33,
                "velocity": 64,
                "duration": 0.2113636,
                "tempo": 120.0
            },
            {
                "start_time": 17.4477273,
                "end_time": 17.6704545,
                "pitch": 33,
                "velocity": 64,
                "duration": 0.2227273,
                "tempo": 120.0
            },
            {
                "start_time": 17.6863636,
                "end_time": 17.9,
                "pitch": 38,
                "velocity": 64,
                "duration": 0.2136364,
                "tempo": 120.0
            },
            {
                "start_time": 18.3613636,
                "end_time": 18.5795455,
                "pitch": 38,
                "velocity": 64,
                "duration": 0.2181818,
                "tempo": 120.0
            },
            {
                "start_time": 18.5954545,
                "end_time": 18.8136364,
                "pitch": 40,
                "velocity": 64,
                "duration": 0.2181818,
                "tempo": 120.0
            },
            {
                "start_time": 18.8295455,
                "end_time": 19.0318182,
                "pitch": 40,
                "velocity": 64,
                "duration": 0.2022727,
                "tempo": 120.0
            },
            {
                "start_time": 19.0477273,
                "end_time": 19.2590909,
                "pitch": 40,
                "velocity": 64,
                "duration": 0.2113636,
                "tempo": 120.0
            },
            {
                "start_time": 19.2772727,
                "end_time": 19.4886364,
                "pitch": 40,
                "velocity": 64,
                "duration": 0.2113636,
                "tempo": 120.0
            },
            {
                "start_time": 19.5045455,
                "end_time": 19.7068182,
                "pitch": 38,
                "velocity": 64,
                "duration": 0.2022727,
                "tempo": 120.0
            },
            {
                "start_time": 19.7386364,
                "end_time": 19.9409091,
                "pitch": 45,
                "velocity": 64,
                "duration": 0.2022727,
                "tempo": 120.0
            },
            {
                "start_time": 19.9568182,
                "end_time": 20.175,
                "pitch": 48,
                "velocity": 64,
                "duration": 0.2181818,
                "tempo": 120.0
            },
            {
                "start_time": 20.1909091,
                "end_time": 20.4090909,
                "pitch": 45,
                "velocity": 64,
                "duration": 0.2181818,
                "tempo": 120.0
            },
            {
                "start_time": 20.425,
                "end_time": 20.625,
                "pitch": 33,
                "velocity": 64,
                "duration": 0.2,
                "tempo": 120.0
            },
            {
                "start_time": 21.1045455,
                "end_time": 21.3,
                "pitch": 33,
                "velocity": 64,
                "duration": 0.1954545,
                "tempo": 120.0
            },
            {
                "start_time": 21.3340909,
                "end_time": 21.5386364,
                "pitch": 38,
                "velocity": 64,
                "duration": 0.2045455,
                "tempo": 120.0
            },
            {
                "start_time": 22.0181818,
                "end_time": 22.2113636,
                "pitch": 38,
                "velocity": 64,
                "duration": 0.1931818,
                "tempo": 120.0
            },
            {
                "start_time": 22.2272727,
                "end_time": 22.4431818,
                "pitch": 40,
                "velocity": 64,
                "duration": 0.2159091,
                "tempo": 120.0
            },
            {
                "start_time": 22.4613636,
                "end_time": 22.6772727,
                "pitch": 40,
                "velocity": 64,
                "duration": 0.2159091,
                "tempo": 120.0
            },
            {
                "start_time": 22.6954545,
                "end_time": 22.9,
                "pitch": 40,
                "velocity": 64,
                "duration": 0.2045455,
                "tempo": 120.0
            },
            {
                "start_time": 22.9340909,
                "end_time": 23.1386364,
                "pitch": 40,
                "velocity": 64,
                "duration": 0.2045455,
                "tempo": 120.0
            },
            {
                "start_time": 23.1568182,
                "end_time": 23.3704545,
                "pitch": 38,
                "velocity": 64,
                "duration": 0.2136364,
                "tempo": 120.0
            },
            {
                "start_time": 23.3863636,
                "end_time": 23.5977273,
                "pitch": 45,
                "velocity": 64,
                "duration": 0.2113636,
                "tempo": 120.0
            },
            {
                "start_time": 23.6136364,
                "end_time": 23.8204545,
                "pitch": 48,
                "velocity": 64,
                "duration": 0.2068182,
                "tempo": 120.0
            },
            {
                "start_time": 23.8363636,
                "end_time": 24.0590909,
                "pitch": 45,
                "velocity": 64,
                "duration": 0.2227273,
                "tempo": 120.0
            },
            {
                "start_time": 24.0772727,
                "end_time": 24.2840909,
                "pitch": 33,
                "velocity": 64,
                "duration": 0.2068182,
                "tempo": 120.0
            },
            {
                "start_time": 24.7409091,
                "end_time": 24.9590909,
                "pitch": 33,
                "velocity": 64,
                "duration": 0.2181818,
                "tempo": 120.0
            },
            {
                "start_time": 24.975,
                "end_time": 25.1931818,
                "pitch": 38,
                "velocity": 64,
                "duration": 0.2181818,
                "tempo": 120.0
            },
            {
                "start_time": 25.65,
                "end_time": 25.8590909,
                "pitch": 38,
                "velocity": 64,
                "duration": 0.2090909,
                "tempo": 120.0
            },
            {
                "start_time": 25.875,
                "end_time": 26.0840909,
                "pitch": 40,
                "velocity": 64,
                "duration": 0.2090909,
                "tempo": 120.0
            },
            {
                "start_time": 26.1181818,
                "end_time": 26.3295455,
                "pitch": 40,
                "velocity": 64,
                "duration": 0.2113636,
                "tempo": 120.0
            },
            {
                "start_time": 26.3477273,
                "end_time": 26.5590909,
                "pitch": 40,
                "velocity": 64,
                "duration": 0.2113636,
                "tempo": 120.0
            },
            {
                "start_time": 26.575,
                "end_time": 26.7886364,
                "pitch": 40,
                "velocity": 64,
                "duration": 0.2136364,
                "tempo": 120.0
            },
            {
                "start_time": 26.8045455,
                "end_time": 27.0045455,
                "pitch": 38,
                "velocity": 64,
                "duration": 0.2,
                "tempo": 120.0
            },
            {
                "start_time": 27.0227273,
                "end_time": 27.2386364,
                "pitch": 50,
                "velocity": 64,
                "duration": 0.2159091,
                "tempo": 120.0
            },
            {
                "start_time": 27.2568182,
                "end_time": 27.4681818,
                "pitch": 48,
                "velocity": 64,
                "duration": 0.2113636,
                "tempo": 120.0
            },
            {
                "start_time": 27.4840909,
                "end_time": 27.6818182,
                "pitch": 45,
                "velocity": 64,
                "duration": 0.1977273,
                "tempo": 120.0
            },
            {
                "start_time": 27.7136364,
                "end_time": 27.9181818,
                "pitch": 33,
                "velocity": 64,
                "duration": 0.2045455,
                "tempo": 120.0
            },
            {
                "start_time": 28.4,
                "end_time": 28.5909091,
                "pitch": 33,
                "velocity": 64,
                "duration": 0.1909091,
                "tempo": 120.0
            },
            {
                "start_time": 28.6068182,
                "end_time": 28.8227273,
                "pitch": 38,
                "velocity": 64,
                "duration": 0.2159091,
                "tempo": 120.0
            },
            {
                "start_time": 29.3090909,
                "end_time": 29.5090909,
                "pitch": 38,
                "velocity": 64,
                "duration": 0.2,
                "tempo": 120.0
            },
            {
                "start_time": 29.525,
                "end_time": 29.7431818,
                "pitch": 40,
                "velocity": 64,
                "duration": 0.2181818,
                "tempo": 120.0
            },
            {
                "start_time": 29.7590909,
                "end_time": 29.9772727,
                "pitch": 40,
                "velocity": 64,
                "duration": 0.2181818,
                "tempo": 120.0
            },
            {
                "start_time": 29.9931818,
                "end_time": 30.1954545,
                "pitch": 40,
                "velocity": 64,
                "duration": 0.2022727,
                "tempo": 120.0
            },
            {
                "start_time": 30.2113636,
                "end_time": 30.4295455,
                "pitch": 40,
                "velocity": 64,
                "duration": 0.2181818,
                "tempo": 120.0
            },
            {
                "start_time": 30.4454545,
                "end_time": 30.6590909,
                "pitch": 38,
                "velocity": 64,
                "duration": 0.2136364,
                "tempo": 120.0
            },
            {
                "start_time": 30.675,
                "end_time": 30.8704545,
                "pitch": 45,
                "velocity": 64,
                "duration": 0.1954545,
                "tempo": 120.0
            },
            {
                "start_time": 30.9022727,
                "end_time": 31.1090909,
                "pitch": 43,
                "velocity": 64,
                "duration": 0.2068182,
                "tempo": 120.0
            },
            {
                "start_time": 31.125,
                "end_time": 31.3477273,
                "pitch": 40,
                "velocity": 64,
                "duration": 0.2227273,
                "tempo": 120.0
            },
            {
                "start_time": 31.3659091,
                "end_time": 31.5772727,
                "pitch": 33,
                "velocity": 64,
                "duration": 0.2113636,
                "tempo": 120.0
            },
            {
                "start_time": 31.5931818,
                "end_time": 31.7909091,
                "pitch": 33,
                "velocity": 64,
                "duration": 0.1977273,
                "tempo": 120.0
            },
            {
                "start_time": 31.8068182,
                "end_time": 32.0181818,
                "pitch": 33,
                "velocity": 64,
                "duration": 0.2113636,
                "tempo": 120.0
            },
            {
                "start_time": 32.4977273,
                "end_time": 32.6977273,
                "pitch": 38,
                "velocity": 64,
                "duration": 0.2,
                "tempo": 120.0
            },
            {
                "start_time": 32.7159091,
                "end_time": 32.9318182,
                "pitch": 38,
                "velocity": 64,
                "duration": 0.2159091,
                "tempo": 120.0
            },
            {
                "start_time": 33.1840909,
                "end_time": 33.3840909,
                "pitch": 40,
                "velocity": 64,
                "duration": 0.2,
                "tempo": 120.0
            },
            {
                "start_time": 33.4,
                "end_time": 33.6181818,
                "pitch": 40,
                "velocity": 64,
                "duration": 0.2181818,
                "tempo": 120.0
            },
            {
                "start_time": 33.6340909,
                "end_time": 33.8477273,
                "pitch": 40,
                "velocity": 64,
                "duration": 0.2136364,
                "tempo": 120.0
            },
            {
                "start_time": 34.3090909,
                "end_time": 34.5272727,
                "pitch": 45,
                "velocity": 64,
                "duration": 0.2181818,
                "tempo": 120.0
            },
            {
                "start_time": 34.5431818,
                "end_time": 34.7613636,
                "pitch": 43,
                "velocity": 64,
                "duration": 0.2181818,
                "tempo": 120.0
            },
            {
                "start_time": 34.7772727,
                "end_time": 34.9795455,
                "pitch": 40,
                "velocity": 64,
                "duration": 0.2022727,
                "tempo": 120.0
            },
            {
                "start_time": 34.9954545,
                "end_time": 35.2090909,
                "pitch": 33,
                "velocity": 64,
                "duration": 0.2136364,
                "tempo": 120.0
            },
            {
                "start_time": 35.225,
                "end_time": 35.4363636,
                "pitch": 33,
                "velocity": 64,
                "duration": 0.2113636,
                "tempo": 120.0
            },
            {
                "start_time": 35.4522727,
                "end_time": 35.6590909,
                "pitch": 33,
                "velocity": 64,
                "duration": 0.2068182,
                "tempo": 120.0
            },
            {
                "start_time": 36.1386364,
                "end_time": 36.3454545,
                "pitch": 38,
                "velocity": 64,
                "duration": 0.2068182,
                "tempo": 120.0
            },
            {
                "start_time": 36.3613636,
                "end_time": 36.5681818,
                "pitch": 38,
                "velocity": 64,
                "duration": 0.2068182,
                "tempo": 120.0
            },
            {
                "start_time": 36.825,
                "end_time": 37.0363636,
                "pitch": 40,
                "velocity": 64,
                "duration": 0.2113636,
                "tempo": 120.0
            },
            {
                "start_time": 37.0522727,
                "end_time": 37.25,
                "pitch": 40,
                "velocity": 64,
                "duration": 0.1977273,
                "tempo": 120.0
            },
            {
                "start_time": 37.2818182,
                "end_time": 37.4863636,
                "pitch": 40,
                "velocity": 64,
                "duration": 0.2045455,
                "tempo": 120.0
            },
            {
                "start_time": 37.9681818,
                "end_time": 38.1590909,
                "pitch": 45,
                "velocity": 64,
                "duration": 0.1909091,
                "tempo": 120.0
            },
            {
                "start_time": 38.175,
                "end_time": 38.3931818,
                "pitch": 48,
                "velocity": 64,
                "duration": 0.2181818,
                "tempo": 120.0
            },
            {
                "start_time": 38.4090909,
                "end_time": 38.6272727,
                "pitch": 45,
                "velocity": 64,
                "duration": 0.2181818,
                "tempo": 120.0
            },
            {
                "start_time": 38.6431818,
                "end_time": 38.6590909,
                "pitch": 33,
                "velocity": 64,
                "duration": 0.0159091,
                "tempo": 120.0
            }
        ],
        "Clarinet": [
            {
                "start_time": 3.3204545,
                "end_time": 3.5295455,
                "pitch": 57,
                "velocity": 51,
                "duration": 0.2090909,
                "tempo": 120.0
            },
            {
                "start_time": 3.5454545,
                "end_time": 3.7454545,
                "pitch": 57,
                "velocity": 51,
                "duration": 0.2,
                "tempo": 120.0
            },
            {
                "start_time": 3.9977273,
                "end_time": 4.2136364,
                "pitch": 59,
                "velocity": 51,
                "duration": 0.2159091,
                "tempo": 120.0
            },
            {
                "start_time": 4.2318182,
                "end_time": 4.4477273,
                "pitch": 59,
                "velocity": 51,
                "duration": 0.2159091,
                "tempo": 120.0
            },
            {
                "start_time": 4.4659091,
                "end_time": 4.6659091,
                "pitch": 59,
                "velocity": 51,
                "duration": 0.2,
                "tempo": 120.0
            },
            {
                "start_time": 5.1568182,
                "end_time": 5.3613636,
                "pitch": 45,
                "velocity": 51,
                "duration": 0.2045455,
                "tempo": 120.0
            },
            {
                "start_time": 5.3954545,
                "end_time": 5.5954545,
                "pitch": 45,
                "velocity": 51,
                "duration": 0.2,
                "tempo": 120.0
            },
            {
                "start_time": 5.8477273,
                "end_time": 6.0545455,
                "pitch": 45,
                "velocity": 51,
                "duration": 0.2068182,
                "tempo": 120.0
            },
            {
                "start_time": 6.0704545,
                "end_time": 6.2613636,
                "pitch": 45,
                "velocity": 51,
                "duration": 0.1909091,
                "tempo": 120.0
            },
            {
                "start_time": 6.2772727,
                "end_time": 6.5,
                "pitch": 45,
                "velocity": 51,
                "duration": 0.2227273,
                "tempo": 120.0
            },
            {
                "start_time": 6.9954545,
                "end_time": 7.2022727,
                "pitch": 50,
                "velocity": 51,
                "duration": 0.2068182,
                "tempo": 120.0
            },
            {
                "start_time": 7.2181818,
                "end_time": 7.4227273,
                "pitch": 50,
                "velocity": 51,
                "duration": 0.2045455,
                "tempo": 120.0
            },
            {
                "start_time": 7.6568182,
                "end_time": 7.8613636,
                "pitch": 52,
                "velocity": 51,
                "duration": 0.2045455,
                "tempo": 120.0
            },
            {
                "start_time": 7.8795455,
                "end_time": 8.1022727,
                "pitch": 52,
                "velocity": 51,
                "duration": 0.2227273,
                "tempo": 120.0
            },
            {
                "start_time": 8.1181818,
                "end_time": 8.3318182,
                "pitch": 52,
                "velocity": 51,
                "duration": 0.2136364,
                "tempo": 120.0
            },
            {
                "start_time": 9.7136364,
                "end_time": 10.1409091,
                "pitch": 45,
                "velocity": 51,
                "duration": 0.4272727,
                "tempo": 120.0
            },
            {
                "start_time": 10.6227273,
                "end_time": 11.0545455,
                "pitch": 47,
                "velocity": 51,
                "duration": 0.4318182,
                "tempo": 120.0
            },
            {
                "start_time": 11.5409091,
                "end_time": 11.9704545,
                "pitch": 49,
                "velocity": 51,
                "duration": 0.4295455,
                "tempo": 120.0
            },
            {
                "start_time": 12.45,
                "end_time": 12.875,
                "pitch": 47,
                "velocity": 51,
                "duration": 0.425,
                "tempo": 120.0
            },
            {
                "start_time": 13.3613636,
                "end_time": 13.7954545,
                "pitch": 40,
                "velocity": 51,
                "duration": 0.4340909,
                "tempo": 120.0
            },
            {
                "start_time": 14.2636364,
                "end_time": 14.7159091,
                "pitch": 42,
                "velocity": 51,
                "duration": 0.4522727,
                "tempo": 120.0
            },
            {
                "start_time": 15.1772727,
                "end_time": 15.625,
                "pitch": 44,
                "velocity": 51,
                "duration": 0.4477273,
                "tempo": 120.0
            },
            {
                "start_time": 16.0818182,
                "end_time": 16.5113636,
                "pitch": 42,
                "velocity": 51,
                "duration": 0.4295455,
                "tempo": 120.0
            },
            {
                "start_time": 16.7681818,
                "end_time": 16.9795455,
                "pitch": 57,
                "velocity": 51,
                "duration": 0.2113636,
                "tempo": 120.0
            },
            {
                "start_time": 17.4477273,
                "end_time": 17.6704545,
                "pitch": 57,
                "velocity": 51,
                "duration": 0.2227273,
                "tempo": 120.0
            },
            {
                "start_time": 17.6863636,
                "end_time": 17.9,
                "pitch": 57,
                "velocity": 51,
                "duration": 0.2136364,
                "tempo": 120.0
            },
            {
                "start_time": 18.3613636,
                "end_time": 18.5795455,
                "pitch": 57,
                "velocity": 51,
                "duration": 0.2181818,
                "tempo": 120.0
            },
            {
                "start_time": 18.5954545,
                "end_time": 18.8136364,
                "pitch": 59,
                "velocity": 51,
                "duration": 0.2181818,
                "tempo": 120.0
            },
            {
                "start_time": 18.8295455,
                "end_time": 19.0318182,
                "pitch": 59,
                "velocity": 51,
                "duration": 0.2022727,
                "tempo": 120.0
            },
            {
                "start_time": 19.0477273,
                "end_time": 19.2590909,
                "pitch": 59,
                "velocity": 51,
                "duration": 0.2113636,
                "tempo": 120.0
            },
            {
                "start_time": 19.2772727,
                "end_time": 19.4886364,
                "pitch": 59,
                "velocity": 51,
                "duration": 0.2113636,
                "tempo": 120.0
            },
            {
                "start_time": 19.5045455,
                "end_time": 19.7068182,
                "pitch": 57,
                "velocity": 51,
                "duration": 0.2022727,
                "tempo": 120.0
            },
            {
                "start_time": 19.7386364,
                "end_time": 19.8227273,
                "pitch": 57,
                "velocity": 51,
                "duration": 0.0840909,
                "tempo": 120.0
            },
            {
                "start_time": 19.8386364,
                "end_time": 20.0568182,
                "pitch": 57,
                "velocity": 51,
                "duration": 0.2181818,
                "tempo": 120.0
            },
            {
                "start_time": 20.0727273,
                "end_time": 20.175,
                "pitch": 57,
                "velocity": 51,
                "duration": 0.1022727,
                "tempo": 120.0
            },
            {
                "start_time": 20.1909091,
                "end_time": 20.4090909,
                "pitch": 57,
                "velocity": 51,
                "duration": 0.2181818,
                "tempo": 120.0
            },
            {
                "start_time": 20.425,
                "end_time": 20.625,
                "pitch": 57,
                "velocity": 51,
                "duration": 0.2,
                "tempo": 120.0
            },
            {
                "start_time": 21.1045455,
                "end_time": 21.3,
                "pitch": 57,
                "velocity": 51,
                "duration": 0.1954545,
                "tempo": 120.0
            },
            {
                "start_time": 21.3340909,
                "end_time": 21.5386364,
                "pitch": 57,
                "velocity": 51,
                "duration": 0.2045455,
                "tempo": 120.0
            },
            {
                "start_time": 22.0181818,
                "end_time": 22.2113636,
                "pitch": 57,
                "velocity": 51,
                "duration": 0.1931818,
                "tempo": 120.0
            },
            {
                "start_time": 22.2272727,
                "end_time": 22.4431818,
                "pitch": 59,
                "velocity": 51,
                "duration": 0.2159091,
                "tempo": 120.0
            },
            {
                "start_time": 22.4613636,
                "end_time": 22.6772727,
                "pitch": 59,
                "velocity": 51,
                "duration": 0.2159091,
                "tempo": 120.0
            },
            {
                "start_time": 22.6954545,
                "end_time": 22.9,
                "pitch": 59,
                "velocity": 51,
                "duration": 0.2045455,
                "tempo": 120.0
            },
            {
                "start_time": 22.9340909,
                "end_time": 23.1386364,
                "pitch": 59,
                "velocity": 51,
                "duration": 0.2045455,
                "tempo": 120.0
            },
            {
                "start_time": 23.1568182,
                "end_time": 23.3704545,
                "pitch": 57,
                "velocity": 51,
                "duration": 0.2136364,
                "tempo": 120.0
            },
            {
                "start_time": 23.3863636,
                "end_time": 23.4840909,
                "pitch": 57,
                "velocity": 51,
                "duration": 0.0977273,
                "tempo": 120.0
            },
            {
                "start_time": 23.5,
                "end_time": 23.7,
                "pitch": 57,
                "velocity": 51,
                "duration": 0.2,
                "tempo": 120.0
            },
            {
                "start_time": 23.7340909,
                "end_time": 23.8204545,
                "pitch": 57,
                "velocity": 51,
                "duration": 0.0863636,
                "tempo": 120.0
            },
            {
                "start_time": 23.8363636,
                "end_time": 24.0590909,
                "pitch": 57,
                "velocity": 51,
                "duration": 0.2227273,
                "tempo": 120.0
            },
            {
                "start_time": 24.0772727,
                "end_time": 24.2840909,
                "pitch": 57,
                "velocity": 51,
                "duration": 0.2068182,
                "tempo": 120.0
            },
            {
                "start_time": 24.7409091,
                "end_time": 24.9590909,
                "pitch": 57,
                "velocity": 51,
                "duration": 0.2181818,
                "tempo": 120.0
            },
            {
                "start_time": 24.975,
                "end_time": 25.1931818,
                "pitch": 57,
                "velocity": 51,
                "duration": 0.2181818,
                "tempo": 120.0
            },
            {
                "start_time": 25.65,
                "end_time": 25.8590909,
                "pitch": 57,
                "velocity": 51,
                "duration": 0.2090909,
                "tempo": 120.0
            },
            {
                "start_time": 25.875,
                "end_time": 26.0840909,
                "pitch": 59,
                "velocity": 51,
                "duration": 0.2090909,
                "tempo": 120.0
            },
            {
                "start_time": 26.1181818,
                "end_time": 26.3295455,
                "pitch": 59,
                "velocity": 51,
                "duration": 0.2113636,
                "tempo": 120.0
            },
            {
                "start_time": 26.3477273,
                "end_time": 26.5590909,
                "pitch": 59,
                "velocity": 51,
                "duration": 0.2113636,
                "tempo": 120.0
            },
            {
                "start_time": 26.575,
                "end_time": 26.7886364,
                "pitch": 59,
                "velocity": 51,
                "duration": 0.2136364,
                "tempo": 120.0
            },
            {
                "start_time": 26.8045455,
                "end_time": 27.0045455,
                "pitch": 57,
                "velocity": 51,
                "duration": 0.2,
                "tempo": 120.0
            },
            {
                "start_time": 27.0227273,
                "end_time": 27.1227273,
                "pitch": 57,
                "velocity": 51,
                "duration": 0.1,
                "tempo": 120.0
            },
            {
                "start_time": 27.1386364,
                "end_time": 27.3545455,
                "pitch": 57,
                "velocity": 51,
                "duration": 0.2159091,
                "tempo": 120.0
            },
            {
                "start_time": 27.3704545,
                "end_time": 27.4681818,
                "pitch": 57,
                "velocity": 51,
                "duration": 0.0977273,
                "tempo": 120.0
            },
            {
                "start_time": 27.4840909,
                "end_time": 27.6818182,
                "pitch": 57,
                "velocity": 51,
                "duration": 0.1977273,
                "tempo": 120.0
            },
            {
                "start_time": 27.7136364,
                "end_time": 27.9181818,
                "pitch": 57,
                "velocity": 51,
                "duration": 0.2045455,
                "tempo": 120.0
            },
            {
                "start_time": 28.4,
                "end_time": 28.5909091,
                "pitch": 57,
                "velocity": 51,
                "duration": 0.1909091,
                "tempo": 120.0
            },
            {
                "start_time": 28.6068182,
                "end_time": 28.8227273,
                "pitch": 57,
                "velocity": 51,
                "duration": 0.2159091,
                "tempo": 120.0
            },
            {
                "start_time": 29.3090909,
                "end_time": 29.5090909,
                "pitch": 57,
                "velocity": 51,
                "duration": 0.2,
                "tempo": 120.0
            },
            {
                "start_time": 29.525,
                "end_time": 29.7431818,
                "pitch": 59,
                "velocity": 51,
                "duration": 0.2181818,
                "tempo": 120.0
            },
            {
                "start_time": 29.7590909,
                "end_time": 29.9772727,
                "pitch": 59,
                "velocity": 51,
                "duration": 0.2181818,
                "tempo": 120.0
            },
            {
                "start_time": 29.9931818,
                "end_time": 30.1954545,
                "pitch": 59,
                "velocity": 51,
                "duration": 0.2022727,
                "tempo": 120.0
            },
            {
                "start_time": 30.2113636,
                "end_time": 30.4295455,
                "pitch": 59,
                "velocity": 51,
                "duration": 0.2181818,
                "tempo": 120.0
            },
            {
                "start_time": 30.4454545,
                "end_time": 30.6590909,
                "pitch": 57,
                "velocity": 51,
                "duration": 0.2136364,
                "tempo": 120.0
            },
            {
                "start_time": 30.675,
                "end_time": 30.7727273,
                "pitch": 57,
                "velocity": 51,
                "duration": 0.0977273,
                "tempo": 120.0
            },
            {
                "start_time": 30.7886364,
                "end_time": 30.9886364,
                "pitch": 57,
                "velocity": 51,
                "duration": 0.2,
                "tempo": 120.0
            },
            {
                "start_time": 31.0068182,
                "end_time": 31.1090909,
                "pitch": 57,
                "velocity": 51,
                "duration": 0.1022727,
                "tempo": 120.0
            },
            {
                "start_time": 31.125,
                "end_time": 31.3477273,
                "pitch": 57,
                "velocity": 51,
                "duration": 0.2227273,
                "tempo": 120.0
            },
            {
                "start_time": 31.5931818,
                "end_time": 32.0181818,
                "pitch": 45,
                "velocity": 51,
                "duration": 0.425,
                "tempo": 120.0
            },
            {
                "start_time": 32.4977273,
                "end_time": 32.9318182,
                "pitch": 47,
                "velocity": 51,
                "duration": 0.4340909,
                "tempo": 120.0
            },
            {
                "start_time": 33.4,
                "end_time": 33.8477273,
                "pitch": 49,
                "velocity": 51,
                "duration": 0.4477273,
                "tempo": 120.0
            },
            {
                "start_time": 34.3090909,
                "end_time": 34.7613636,
                "pitch": 47,
                "velocity": 51,
                "duration": 0.4522727,
                "tempo": 120.0
            },
            {
                "start_time": 35.225,
                "end_time": 35.6590909,
                "pitch": 40,
                "velocity": 51,
                "duration": 0.4340909,
                "tempo": 120.0
            },
            {
                "start_time": 36.1386364,
                "end_time": 36.5681818,
                "pitch": 42,
                "velocity": 51,
                "duration": 0.4295455,
                "tempo": 120.0
            },
            {
                "start_time": 37.0522727,
                "end_time": 37.4863636,
                "pitch": 44,
                "velocity": 51,
                "duration": 0.4340909,
                "tempo": 120.0
            },
            {
                "start_time": 37.9681818,
                "end_time": 38.3931818,
                "pitch": 42,
                "velocity": 51,
                "duration": 0.425,
                "tempo": 120.0
            }
        ]
    }
}