{
    "mood": "happy",
    "instruments": {
        "Acoustic Bass": [
            {
                "start_time": 0.0,
                "end_time": 0.1636364,
                "pitch": 45,
                "velocity": 51,
                "duration": 0.1636364,
                "tempo": 120.0
            },
            {
                "start_time": 0.1772727,
                "end_time": 0.2659091,
                "pitch": 57,
                "velocity": 51,
                "duration": 0.0886364,
                "tempo": 120.0
            },
            {
                "start_time": 0.2818182,
                "end_time": 0.3545455,
                "pitch": 57,
                "velocity": 51,
                "duration": 0.0727273,
                "tempo": 120.0
            },
            {
                "start_time": 0.3727273,
                "end_time": 0.5886364,
                "pitch": 49,
                "velocity": 51,
                "duration": 0.2159091,
                "tempo": 120.0
            },
            {
                "start_time": 0.6068182,
                "end_time": 0.8068182,
                "pitch": 61,
                "velocity": 51,
                "duration": 0.2,
                "tempo": 120.0
            },
            {
                "start_time": 0.8227273,
                "end_time": 1.0409091,
                "pitch": 50,
                "velocity": 51,
                "duration": 0.2181818,
                "tempo": 120.0
            },
            {
                "start_time": 1.0568182,
                "end_time": 1.1568182,
                "pitch": 62,
                "velocity": 51,
                "duration": 0.1,
                "tempo": 120.0
            },
            {
                "start_time": 1.175,
                "end_time": 1.2590909,
                "pitch": 62,
                "velocity": 51,
                "duration": 0.0840909,
                "tempo": 120.0
            },
            {
                "start_time": 1.275,
                "end_time": 1.4931818,
                "pitch": 52,
                "velocity": 51,
                "duration": 0.2181818,
                "tempo": 120.0
            },
            {
                "start_time": 1.5090909,
                "end_time": 1.7090909,
                "pitch": 64,
                "velocity": 51,
                "duration": 0.2,
                "tempo": 120.0
            },
            {
                "start_time": 1.725,
                "end_time": 1.9545455,
                "pitch": 45,
                "velocity": 51,
                "duration": 0.2295455,
                "tempo": 120.0
            },
            {
                "start_time": 1.9704545,
                "end_time": 2.075,
                "pitch": 57,
                "velocity": 51,
                "duration": 0.1045455,
                "tempo": 120.0
            },
            {
                "start_time": 2.0931818,
                "end_time": 2.1818182,
                "pitch": 57,
                "velocity": 51,
                "duration": 0.0886364,
                "tempo": 120.0
            },
            {
                "start_time": 2.1977273,
                "end_time": 2.4045455,
                "pitch": 49,
                "velocity": 51,
                "duration": 0.2068182,
                "tempo": 120.0
            },
            {
                "start_time": 2.4204545,
                "end_time": 2.6136364,
                "pitch": 61,
                "velocity": 51,
                "duration": 0.1931818,
                "tempo": 120.0
            },
            {
                "start_time": 2.6295455,
                "end_time": 2.8477273,
                "pitch": 50,
                "velocity": 51,
                "duration": 0.2181818,
                "tempo": 120.0
            },
            {
                "start_time": 2.8636364,
                "end_time": 2.9636364,
                "pitch": 62,
                "velocity": 51,
                "duration": 0.1,
                "tempo": 120.0
            },
            {
                "start_time": 2.9795455,
                "end_time": 3.0636364,
                "pitch": 62,
                "velocity": 51,
                "duration": 0.0840909,
                "tempo": 120.0
            },
            {
                "start_time": 3.0818182,
                "end_time": 3.2977273,
                "pitch": 47,
                "velocity": 51,
                "duration": 0.2159091,
                "tempo": 120.0
            },
            {
                "start_time": 3.3136364,
                "end_time": 3.5159091,
                "pitch": 59,
                "velocity": 51,
                "duration": 0.2022727,
                "tempo": 120.0
            },
            {
                "start_time": 3.5318182,
                "end_time": 3.75,
                "pitch": 45,
                "velocity": 51,
                "duration": 0.2181818,
                "tempo": 120.0
            },
            {
                "start_time": 3.7659091,
                "end_time": 3.8659091,
                "pitch": 57,
                "velocity": 51,
                "duration": 0.1,
                "tempo": 120.0
            },
            {
                "start_time": 3.8818182,
                "end_time": 3.9659091,
                "pitch": 57,
                "velocity": 51,
                "duration": 0.0840909,
                "tempo": 120.0
            },
            {
                "start_time": 3.9840909,
                "end_time": 4.2045455,
                "pitch": 49,
                "velocity": 51,
                "duration": 0.2204545,
                "tempo": 120.0
            },
            {
                "start_time": 4.2227273,
                "end_time": 4.4272727,
                "pitch": 61,
                "velocity": 51,
                "duration": 0.2045455,
                "tempo": 120.0
            },
            {
                "start_time": 4.4454545,
                "end_time": 4.6681818,
                "pitch": 50,
                "velocity": 51,
                "duration": 0.2227273,
                "tempo": 120.0
            },
            {
                "start_time": 4.6840909,
                "end_time": 4.7863636,
                "pitch": 62,
                "velocity": 51,
                "duration": 0.1022727,
                "tempo": 120.0
            },
            {
                "start_time": 4.8045455,
                "end_time": 4.8886364,
                "pitch": 62,
                "velocity": 51,
                "duration": 0.0840909,
                "tempo": 120.0
            },
            {
                "start_time": 4.9045455,
                "end_time": 5.1136364,
                "pitch": 52,
                "velocity": 51,
                "duration": 0.2090909,
                "tempo": 120.0
            },
            {
                "start_time": 5.1295455,
                "end_time": 5.3204545,
                "pitch": 64,
                "velocity": 51,
                "duration": 0.1909091,
                "tempo": 120.0
            },
            {
                "start_time": 5.3363636,
                "end_time": 5.5636364,
                "pitch": 45,
                "velocity": 51,
                "duration": 0.2272727,
                "tempo": 120.0
            },
            {
                "start_time": 5.5818182,
                "end_time": 5.6863636,
                "pitch": 57,
                "velocity": 51,
                "duration": 0.1045455,
                "tempo": 120.0
            },
            {
                "start_time": 5.7045455,
                "end_time": 5.7931818,
                "pitch": 57,
                "velocity": 51,
                "duration": 0.0886364,
                "tempo": 120.0
            },
            {
                "start_time": 5.8090909,
                "end_time": 6.0272727,
                "pitch": 45,
                "velocity": 51,
                "duration": 0.2181818,
                "tempo": 120.0
            },
            {
                "start_time": 6.0431818,
                "end_time": 6.2431818,
                "pitch": 57,
                "velocity": 51,
                "duration": 0.2,
                "tempo": 120.0
            },
            {
                "start_time": 6.2613636,
                "end_time": 6.4727273,
                "pitch": 45,
                "velocity": 51,
                "duration": 0.2113636,
                "tempo": 120.0
            },
            {
                "start_time": 6.4886364,
                "end_time": 6.5886364,
                "pitch": 57,
                "velocity": 51,
                "duration": 0.1,
                "tempo": 120.0
            },
            {
                "start_time": 6.6045455,
                "end_time": 6.6863636,
                "pitch": 57,
                "velocity": 51,
                "duration": 0.0818182,
                "tempo": 120.0
            },
            {
                "start_time": 6.7022727,
                "end_time": 6.9136364,
                "pitch": 45,
                "velocity": 51,
                "duration": 0.2113636,
                "tempo": 120.0
            },
            {
                "start_time": 6.9318182,
                "end_time": 7.1272727,
                "pitch": 57,
                "velocity": 51,
                "duration": 0.1954545,
                "tempo": 120.0
            },
            {
                "start_time": 7.1431818,
                "end_time": 7.3613636,
                "pitch": 45,
                "velocity": 51,
                "duration": 0.2181818,
                "tempo": 120.0
            },
            {
                "start_time": 7.3772727,
                "end_time": 7.4772727,
                "pitch": 57,
                "velocity": 51,
                "duration": 0.1,
                "tempo": 120.0
            },
            {
                "start_time": 7.4954545,
                "end_time": 7.5772727,
                "pitch": 57,
                "velocity": 51,
                "duration": 0.0818182,
                "tempo": 120.0
            },
            {
                "start_time": 7.5954545,
                "end_time": 7.8113636,
                "pitch": 49,
                "velocity": 51,
                "duration": 0.2159091,
                "tempo": 120.0
            },
            {
                "start_time": 7.8295455,
                "end_time": 8.0295455,
                "pitch": 61,
                "velocity": 51,
                "duration": 0.2,
                "tempo": 120.0
            },
            {
                "start_time": 8.0454545,
                "end_time": 8.2636364,
                "pitch": 50,
                "velocity": 51,
                "duration": 0.2181818,
                "tempo": 120.0
            },
            {
                "start_time": 8.2795455,
                "end_time": 8.3795455,
                "pitch": 62,
                "velocity": 51,
                "duration": 0.1,
                "tempo": 120.0
            },
            {
                "start_time": 8.3977273,
                "end_time": 8.4818182,
                "pitch": 62,
                "velocity": 51,
                "duration": 0.0840909,
                "tempo": 120.0
            },
            {
                "start_time": 8.4977273,
                "end_time": 8.7136364,
                "pitch": 52,
                "velocity": 51,
                "duration": 0.2159091,
                "tempo": 120.0
            },
            {
                "start_time": 8.7318182,
                "end_time": 8.9318182,
                "pitch": 64,
                "velocity": 51,
                "duration": 0.2,
                "tempo": 120.0
            },
            {
                "start_time": 8.9477273,
                "end_time": 9.175,
                "pitch": 45,
                "velocity": 51,
                "duration": 0.2272727,
                "tempo": 120.0
            },
            {
                "start_time": 9.1931818,
                "end_time": 9.2977273,
                "pitch": 57,
                "velocity": 51,
                "duration": 0.1045455,
                "tempo": 120.0
            },
            {
                "start_time": 9.3159091,
                "end_time": 9.4045455,
                "pitch": 57,
                "velocity": 51,
                "duration": 0.0886364,
                "tempo": 120.0
            },
            {
                "start_time": 9.4204545,
                "end_time": 9.6272727,
                "pitch": 49,
                "velocity": 51,
                "duration": 0.2068182,
                "tempo": 120.0
            },
            {
                "start_time": 9.6431818,
                "end_time": 9.8363636,
                "pitch": 61,
                "velocity": 51,
                "duration": 0.1931818,
                "tempo": 120.0
            },
            {
                "start_time": 9.8522727,
                "end_time": 10.0704545,
                "pitch": 50,
                "velocity": 51,
                "duration": 0.2181818,
                "tempo": 120.0
            },
            {
                "start_time": 10.0863636,
                "end_time": 10.1863636,
                "pitch": 62,
                "velocity": 51,
                "duration": 0.1,
                "tempo": 120.0
            },
            {
                "start_time": 10.2022727,
                "end_time": 10.2863636,
                "pitch": 62,
                "velocity": 51,
                "duration": 0.0840909,
                "tempo": 120.0
            },
            {
                "start_time": 10.3022727,
                "end_time": 10.5204545,
                "pitch": 47,
                "velocity": 51,
                "duration": 0.2181818,
                "tempo": 120.0
            },
            {
                "start_time": 10.5363636,
                "end_time": 10.7386364,
                "pitch": 59,
                "velocity": 51,
                "duration": 0.2022727,
                "tempo": 120.0
            },
            {
                "start_time": 10.7545455,
                "end_time": 10.9772727,
                "pitch": 45,
                "velocity": 51,
                "duration": 0.2227273,
                "tempo": 120.0
            },
            {
                "start_time": 10.9931818,
                "end_time": 11.0977273,
                "pitch": 57,
                "velocity": 51,
                "duration": 0.1045455,
                "tempo": 120.0
            },
            {
                "start_time": 11.1136364,
                "end_time": 11.2,
                "pitch": 57,
                "velocity": 51,
                "duration": 0.0863636,
                "tempo": 120.0
            },
            {
                "start_time": 11.2159091,
                "end_time": 11.4272727,
                "pitch": 49,
                "velocity": 51,
                "duration": 0.2113636,
                "tempo": 120.0
            },
            {
                "start_time": 11.4454545,
                "end_time": 11.6409091,
                "pitch": 61,
                "velocity": 51,
                "duration": 0.1954545,
                "tempo": 120.0
            },
            {
                "start_time": 11.6568182,
                "end_time": 11.875,
                "pitch": 50,
                "velocity": 51,
                "duration": 0.2181818,
                "tempo": 120.0
            },
            {
                "start_time": 11.8909091,
                "end_time": 11.9909091,
                "pitch": 62,
                "velocity": 51,
                "duration": 0.1,
                "tempo": 120.0
            },
            {
                "start_time": 12.0090909,
                "end_time": 12.0909091,
                "pitch": 62,
                "velocity": 51,
                "duration": 0.0818182,
                "tempo": 120.0
            },
            {
                "start_time": 12.1090909,
                "end_time": 12.325,
                "pitch": 52,
                "velocity": 51,
                "duration": 0.2159091,
                "tempo": 120.0
            },
            {
                "start_time": 12.3431818,
                "end_time": 12.5431818,
                "pitch": 64,
                "velocity": 51,
                "duration": 0.2,
                "tempo": 120.0
            },
            {
                "start_time": 12.5590909,
                "end_time": 12.7863636,
                "pitch": 45,
                "velocity": 51,
                "duration": 0.2272727,
                "tempo": 120.0
            },
            {
                "start_time": 12.8045455,
                "end_time": 12.9090909,
                "pitch": 57,
                "velocity": 51,
                "duration": 0.1045455,
                "tempo": 120.0
            },
            {
                "start_time": 12.9272727,
                "end_time": 13.0136364,
                "pitch": 57,
                "velocity": 51,
                "duration": 0.0863636,
                "tempo": 120.0
            },
            {
                "start_time": 13.0318182,
                "end_time": 13.25,
                "pitch": 45,
                "velocity": 51,
                "duration": 0.2181818,
                "tempo": 120.0
            },
            {
                "start_time": 13.2659091,
                "end_time": 13.4659091,
                "pitch": 57,
                "velocity": 51,
                "duration": 0.2,
                "tempo": 120.0
            },
            {
                "start_time": 13.4840909,
                "end_time": 13.6954545,
                "pitch": 45,
                "velocity": 51,
                "duration": 0.2113636,
                "tempo": 120.0
            },
            {
                "start_time": 13.7113636,
                "end_time": 13.8113636,
                "pitch": 57,
                "velocity": 51,
                "duration": 0.1,
                "tempo": 120.0
            },
            {
                "start_time": 13.8272727,
                "end_time": 13.9090909,
                "pitch": 57,
                "velocity": 51,
                "duration": 0.0818182,
                "tempo": 120.0
            },
            {
                "start_time": 13.925,
                "end_time": 14.1363636,
                "pitch": 45,
                "velocity": 51,
                "duration": 0.2113636,
                "tempo": 120.0
            },
            {
                "start_time": 14.1545455,
                "end_time": 14.35,
                "pitch": 57,
                "velocity": 51,
                "duration": 0.1954545,
                "tempo": 120.0
            },
            {
                "start_time": 14.3659091,
                "end_time": 14.5840909,
                "pitch": 45,
                "velocity": 51,
                "duration": 0.2181818,
                "tempo": 120.0
            },
            {
                "start_time": 14.6,
                "end_time": 14.7,
                "pitch": 57,
                "velocity": 51,
                "duration": 0.1,
                "tempo": 120.0
            },
            {
                "start_time": 14.7181818,
                "end_time": 14.8,
                "pitch": 57,
                "velocity": 51,
                "duration": 0.0818182,
                "tempo": 120.0
            },
            {
                "start_time": 14.8181818,
                "end_time": 15.0409091,
                "pitch": 49,
                "velocity": 51,
                "duration": 0.2227273,
                "tempo": 120.0
            },
            {
                "start_time": 15.0568182,
                "end_time": 15.2613636,
                "pitch": 61,
                "velocity": 51,
                "duration": 0.2045455,
                "tempo": 120.0
            },
            {
                "start_time": 15.2795455,
                "end_time": 15.5022727,
                "pitch": 50,
                "velocity": 51,
                "duration": 0.2227273,
                "tempo": 120.0
            },
            {
                "start_time": 15.5181818,
                "end_time": 15.6204545,
                "pitch": 62,
                "velocity": 51,
                "duration": 0.1022727,
                "tempo": 120.0
            },
            {
                "start_time": 15.6386364,
                "end_time": 15.725,
                "pitch": 62,
                "velocity": 51,
                "duration": 0.0863636,
                "tempo": 120.0
            },
            {
                "start_time": 15.7409091,
                "end_time": 15.9477273,
                "pitch": 52,
                "velocity": 51,
                "duration": 0.2068182,
                "tempo": 120.0
            },
            {
                "start_time": 15.9636364,
                "end_time": 16.1568182,
                "pitch": 64,
                "velocity": 51,
                "duration": 0.1931818,
                "tempo": 120.0
            },
            {
                "start_time": 16.1727273,
                "end_time": 16.4,
                "pitch": 45,
                "velocity": 51,
                "duration": 0.2272727,
                "tempo": 120.0
            },
            {
                "start_time": 16.4159091,
                "end_time": 16.5204545,
                "pitch": 57,
                "velocity": 51,
                "duration": 0.1045455,
                "tempo": 120.0
            },
            {
                "start_time": 16.5386364,
                "end_time": 16.6272727,
                "pitch": 57,
                "velocity": 51,
                "duration": 0.0886364,
                "tempo": 120.0
            },
            {
                "start_time": 16.6431818,
                "end_time": 16.8568182,
                "pitch": 49,
                "velocity": 51,
                "duration": 0.2136364,
                "tempo": 120.0
            },
            {
                "start_time": 16.8727273,
                "end_time": 17.0681818,
                "pitch": 61,
                "velocity": 51,
                "duration": 0.1954545,
                "tempo": 120.0
            },
            {
                "start_time": 17.0840909,
                "end_time": 17.3022727,
                "pitch": 50,
                "velocity": 51,
                "duration": 0.2181818,
                "tempo": 120.0
            },
            {
                "start_time": 17.3181818,
                "end_time": 17.4181818,
                "pitch": 62,
                "velocity": 51,
                "duration": 0.1,
                "tempo": 120.0
            },
            {
                "start_time": 17.4363636,
                "end_time": 17.5204545,
                "pitch": 62,
                "velocity": 51,
                "duration": 0.0840909,
                "tempo": 120.0
            },
            {
                "start_time": 17.5363636,
                "end_time": 17.7477273,
                "pitch": 47,
                "velocity": 51,
                "duration": 0.2113636,
                "tempo": 120.0
            },
            {
                "start_time": 17.7636364,
                "end_time": 17.9613636,
                "pitch": 59,
                "velocity": 51,
                "duration": 0.1977273,
                "tempo": 120.0
            },
            {
                "start_time": 17.9772727,
                "end_time": 18.1954545,
                "pitch": 45,
                "velocity": 51,
                "duration": 0.2181818,
                "tempo": 120.0
            },
            {
                "start_time": 18.2113636,
                "end_time": 18.3113636,
                "pitch": 57,
                "velocity": 51,
                "duration": 0.1,
                "tempo": 120.0
            },
            {
                "start_time": 18.3295455,
                "end_time": 18.4113636,
                "pitch": 57,
                "velocity": 51,
                "duration": 0.0818182,
                "tempo": 120.0
            },
            {
                "start_time": 18.4295455,
                "end_time": 18.6568182,
                "pitch": 49,
                "velocity": 51,
                "duration": 0.2272727,
                "tempo": 120.0
            },
            {
                "start_time": 18.6727273,
                "end_time": 18.8840909,
                "pitch": 61,
                "velocity": 51,
                "duration": 0.2113636,
                "tempo": 120.0
            },
            {
                "start_time": 18.9022727,
                "end_time": 19.1181818,
                "pitch": 50,
                "velocity": 51,
                "duration": 0.2159091,
                "tempo": 120.0
            },
            {
                "start_time": 19.1363636,
                "end_time": 19.2363636,
                "pitch": 62,
                "velocity": 51,
                "duration": 0.1,
                "tempo": 120.0
            },
            {
                "start_time": 19.2522727,
                "end_time": 19.3363636,
                "pitch": 62,
                "velocity": 51,
                "duration": 0.0840909,
                "tempo": 120.0
            },
            {
                "start_time": 19.3522727,
                "end_time": 19.5590909,
                "pitch": 52,
                "velocity": 51,
                "duration": 0.2068182,
                "tempo": 120.0
            },
            {
                "start_time": 19.575,
                "end_time": 19.7681818,
                "pitch": 64,
                "velocity": 51,
                "duration": 0.1931818,
                "tempo": 120.0
            },
            {
                "start_time": 19.7840909,
                "end_time": 20.0113636,
                "pitch": 45,
                "velocity": 51,
                "duration": 0.2272727,
                "tempo": 120.0
            },
            {
                "start_time": 20.0272727,
                "end_time": 20.1340909,
                "pitch": 57,
                "velocity": 51,
                "duration": 0.1068182,
                "tempo": 120.0
            },
            {
                "start_time": 20.15,
                "end_time": 20.2386364,
                "pitch": 57,
                "velocity": 51,
                "duration": 0.0886364,
                "tempo": 120.0
            },
            {
                "start_time": 20.2545455,
                "end_time": 20.4681818,
                "pitch": 45,
                "velocity": 51,
                "duration": 0.2136364,
                "tempo": 120.0
            },
            {
                "start_time": 20.4840909,
                "end_time": 20.6795455,
                "pitch": 57,
                "velocity": 51,
                "duration": 0.1954545,
                "tempo": 120.0
            },
            {
                "start_time": 20.6977273,
                "end_time": 20.9136364,
                "pitch": 45,
                "velocity": 51,
                "duration": 0.2159091,
                "tempo": 120.0
            },
            {
                "start_time": 20.9318182,
                "end_time": 21.0318182,
                "pitch": 57,
                "velocity": 51,
                "duration": 0.1,
                "tempo": 120.0
            },
            {
                "start_time": 21.0477273,
                "end_time": 21.1318182,
                "pitch": 57,
                "velocity": 51,
                "duration": 0.0840909,
                "tempo": 120.0
            },
            {
                "start_time": 21.1477273,
                "end_time": 21.3704545,
                "pitch": 45,
                "velocity": 51,
                "duration": 0.2227273,
                "tempo": 120.0
            },
            {
                "start_time": 21.3863636,
                "end_time": 21.5931818,
                "pitch": 57,
                "velocity": 51,
                "duration": 0.2068182,
                "tempo": 120.0
            },
            {
                "start_time": 21.6090909,
                "end_time": 21.8159091,
                "pitch": 45,
                "velocity": 51,
                "duration": 0.2068182,
                "tempo": 120.0
            },
            {
                "start_time": 21.8318182,
                "end_time": 21.9272727,
                "pitch": 57,
                "velocity": 51,
                "duration": 0.0954545,
                "tempo": 120.0
            },
            {
                "start_time": 21.9454545,
                "end_time": 22.025,
                "pitch": 57,
                "velocity": 51,
                "duration": 0.0795455,
                "tempo": 120.0
            },
            {
                "start_time": 22.0409091,
                "end_time": 22.2681818,
                "pitch": 49,
                "velocity": 51,
                "duration": 0.2272727,
                "tempo": 120.0
            }
        ],
        "Vibraphone": [
            {
                "start_time": 0.6068182,
                "end_time": 0.7068182,
                "pitch": 81,
                "velocity": 64,
                "duration": 0.1,
                "tempo": 120.0
            },
            {
                "start_time": 0.7227273,
                "end_time": 0.8068182,
                "pitch": 85,
                "velocity": 64,
                "duration": 0.0840909,
                "tempo": 120.0
            },
            {
                "start_time": 0.8227273,
                "end_time": 1.0409091,
                "pitch": 83,
                "velocity": 64,
                "duration": 0.2181818,
                "tempo": 120.0
            },
            {
                "start_time": 1.0568182,
                "end_time": 1.2590909,
                "pitch": 81,
                "velocity": 64,
                "duration": 0.2022727,
                "tempo": 120.0
            },
            {
                "start_time": 1.275,
                "end_time": 1.7090909,
                "pitch": 78,
                "velocity": 64,
                "duration": 0.4340909,
                "tempo": 120.0
            },
            {
                "start_time": 1.725,
                "end_time": 3.5159091,
                "pitch": 76,
                "velocity": 64,
                "duration": 1.7909091,
                "tempo": 120.0
            },
            {
                "start_time": 4.2227273,
                "end_time": 4.325,
                "pitch": 81,
                "velocity": 64,
                "duration": 0.1022727,
                "tempo": 120.0
            },
            {
                "start_time": 4.3431818,
                "end_time": 4.4272727,
                "pitch": 85,
                "velocity": 64,
                "duration": 0.0840909,
                "tempo": 120.0
            },
            {
                "start_time": 4.4454545,
                "end_time": 4.6681818,
                "pitch": 83,
                "velocity": 64,
                "duration": 0.2227273,
                "tempo": 120.0
            },
            {
                "start_time": 4.6840909,
                "end_time": 4.8886364,
                "pitch": 81,
                "velocity": 64,
                "duration": 0.2045455,
                "tempo": 120.0
            },
            {
                "start_time": 4.9045455,
                "end_time": 5.3204545,
                "pitch": 78,
                "velocity": 64,
                "duration": 0.4159091,
                "tempo": 120.0
            },
            {
                "start_time": 5.3363636,
                "end_time": 5.4409091,
                "pitch": 81,
                "velocity": 64,
                "duration": 0.1045455,
                "tempo": 120.0
            },
            {
                "start_time": 5.4590909,
                "end_time": 5.5636364,
                "pitch": 83,
                "velocity": 64,
                "duration": 0.1045455,
                "tempo": 120.0
            },
            {
                "start_time": 5.5818182,
                "end_time": 5.6863636,
                "pitch": 81,
                "velocity": 64,
                "duration": 0.1045455,
                "tempo": 120.0
            },
            {
                "start_time": 5.7045455,
                "end_time": 5.7931818,
                "pitch": 83,
                "velocity": 64,
                "duration": 0.0886364,
                "tempo": 120.0
            },
            {
                "start_time": 5.8090909,
                "end_time": 5.9090909,
                "pitch": 81,
                "velocity": 64,
                "duration": 0.1,
                "tempo": 120.0
            },
            {
                "start_time": 5.9272727,
                "end_time": 6.0272727,
                "pitch": 83,
                "velocity": 64,
                "duration": 0.1,
                "tempo": 120.0
            },
            {
                "start_time": 6.0431818,
                "end_time": 6.1431818,
                "pitch": 81,
                "velocity": 64,
                "duration": 0.1,
                "tempo": 120.0
            },
            {
                "start_time": 6.1613636,
                "end_time": 6.2431818,
                "pitch": 83,
                "velocity": 64,
                "duration": 0.0818182,
                "tempo": 120.0
            },
            {
                "start_time": 6.2613636,
                "end_time": 6.3590909,
                "pitch": 81,
                "velocity": 64,
                "duration": 0.0977273,
                "tempo": 120.0
            },
            {
                "start_time": 6.375,
                "end_time": 6.4727273,
                "pitch": 83,
                "velocity": 64,
                "duration": 0.0977273,
                "tempo": 120.0
            },
            {
                "start_time": 6.4886364,
                "end_time": 6.5886364,
                "pitch": 81,
                "velocity": 64,
                "duration": 0.1,
                "tempo": 120.0
            },
            {
                "start_time": 6.6045455,
                "end_time": 6.6863636,
                "pitch": 83,
                "velocity": 64,
                "duration": 0.0818182,
                "tempo": 120.0
            },
            {
                "start_time": 6.7022727,
                "end_time": 7.1272727,
                "pitch": 81,
                "velocity": 64,
                "duration": 0.425,
                "tempo": 120.0
            },
            {
                "start_time": 7.8295455,
                "end_time": 7.9295455,
                "pitch": 81,
                "velocity": 64,
                "duration": 0.1,
                "tempo": 120.0
            },
            {
                "start_time": 7.9454545,
                "end_time": 8.0295455,
                "pitch": 85,
                "velocity": 64,
                "duration": 0.0840909,
                "tempo": 120.0
            },
            {
                "start_time": 8.0454545,
                "end_time": 8.2636364,
                "pitch": 83,
                "velocity": 64,
                "duration": 0.2181818,
                "tempo": 120.0
            },
            {
                "start_time": 8.2795455,
                "end_time": 8.4818182,
                "pitch": 81,
                "velocity": 64,
                "duration": 0.2022727,
                "tempo": 120.0
            },
            {
                "start_time": 8.4977273,
                "end_time": 8.9318182,
                "pitch": 78,
                "velocity": 64,
                "duration": 0.4340909,
                "tempo": 120.0
            },
            {
                "start_time": 8.9477273,
                "end_time": 9.8363636,
                "pitch": 76,
                "velocity": 64,
                "duration": 0.8886364,
                "tempo": 120.0
            },
            {
                "start_time": 9.8522727,
                "end_time": 9.9522727,
                "pitch": 81,
                "velocity": 64,
                "duration": 0.1,
                "tempo": 120.0
            },
            {
                "start_time": 9.9681818,
                "end_time": 10.0704545,
                "pitch": 83,
                "velocity": 64,
                "duration": 0.1022727,
                "tempo": 120.0
            },
            {
                "start_time": 10.0863636,
                "end_time": 10.1863636,
                "pitch": 81,
                "velocity": 64,
                "duration": 0.1,
                "tempo": 120.0
            },
            {
                "start_time": 10.2022727,
                "end_time": 10.2863636,
                "pitch": 83,
                "velocity": 64,
                "duration": 0.0840909,
                "tempo": 120.0
            },
            {
                "start_time": 10.3022727,
                "end_time": 10.5204545,
                "pitch": 81,
                "velocity": 64,
                "duration": 0.2181818,
                "tempo": 120.0
            },
            {
                "start_time": 10.5363636,
                "end_time": 10.7386364,
                "pitch": 78,
                "velocity": 64,
                "duration": 0.2022727,
                "tempo": 120.0
            },
            {
                "start_time": 10.7545455,
                "end_time": 11.2,
                "pitch": 81,
                "velocity": 64,
                "duration": 0.4454545,
                "tempo": 120.0
            },
            {
                "start_time": 11.4454545,
                "end_time": 11.5431818,
                "pitch": 81,
                "velocity": 64,
                "duration": 0.0977273,
                "tempo": 120.0
            },
            {
                "start_time": 11.5590909,
                "end_time": 11.6409091,
                "pitch": 85,
                "velocity": 64,
                "duration": 0.0818182,
                "tempo": 120.0
            },
            {
                "start_time": 11.6568182,
                "end_time": 11.875,
                "pitch": 83,
                "velocity": 64,
                "duration": 0.2181818,
                "tempo": 120.0
            },
            {
                "start_time": 11.8909091,
                "end_time": 12.0909091,
                "pitch": 81,
                "velocity": 64,
                "duration": 0.2,
                "tempo": 120.0
            },
            {
                "start_time": 12.1090909,
                "end_time": 12.5431818,
                "pitch": 78,
                "velocity": 64,
                "duration": 0.4340909,
                "tempo": 120.0
            },
            {
                "start_time": 12.5590909,
                "end_time": 12.6636364,
                "pitch": 81,
                "velocity": 64,
                "duration": 0.1045455,
                "tempo": 120.0
            },
            {
                "start_time": 12.6818182,
                "end_time": 12.7863636,
                "pitch": 83,
                "velocity": 64,
                "duration": 0.1045455,
                "tempo": 120.0
            },
            {
                "start_time": 12.8045455,
                "end_time": 12.9090909,
                "pitch": 81,
                "velocity": 64,
                "duration": 0.1045455,
                "tempo": 120.0
            },
            {
                "start_time": 12.9272727,
                "end_time": 13.0136364,
                "pitch": 83,
                "velocity": 64,
                "duration": 0.0863636,
                "tempo": 120.0
            },
            {
                "start_time": 13.0318182,
                "end_time": 13.25,
                "pitch": 81,
                "velocity": 64,
                "duration": 0.2181818,
                "tempo": 120.0
            },
            {
                "start_time": 13.2659091,
                "end_time": 13.4659091,
                "pitch": 78,
                "velocity": 64,
                "duration": 0.2,
                "tempo": 120.0
            },
            {
                "start_time": 13.4840909,
                "end_time": 13.5818182,
                "pitch": 81,
                "velocity": 64,
                "duration": 0.0977273,
                "tempo": 120.0
            },
            {
                "start_time": 13.5977273,
                "end_time": 13.6954545,
                "pitch": 83,
                "velocity": 64,
                "duration": 0.0977273,
                "tempo": 120.0
            },
            {
                "start_time": 13.7113636,
                "end_time": 13.8113636,
                "pitch": 81,
                "velocity": 64,
                "duration": 0.1,
                "tempo": 120.0
            },
            {
                "start_time": 13.8272727,
                "end_time": 13.9090909,
                "pitch": 83,
                "velocity": 64,
                "duration": 0.0818182,
                "tempo": 120.0
            },
            {
                "start_time": 13.925,
                "end_time": 14.1363636,
                "pitch": 81,
                "velocity": 64,
                "duration": 0.2113636,
                "tempo": 120.0
            },
            {
                "start_time": 14.1545455,
                "end_time": 14.35,
                "pitch": 78,
                "velocity": 64,
                "duration": 0.1954545,
                "tempo": 120.0
            },
            {
                "start_time": 15.0568182,
                "end_time": 15.1590909,
                "pitch": 81,
                "velocity": 64,
                "duration": 0.1022727,
                "tempo": 120.0
            },
            {
                "start_time": 15.1772727,
                "end_time": 15.2613636,
                "pitch": 85,
                "velocity": 64,
                "duration": 0.0840909,
                "tempo": 120.0
            },
            {
                "start_time": 15.2795455,
                "end_time": 15.5022727,
                "pitch": 83,
                "velocity": 64,
                "duration": 0.2227273,
                "tempo": 120.0
            },
            {
                "start_time": 15.5181818,
                "end_time": 15.725,
                "pitch": 81,
                "velocity": 64,
                "duration": 0.2068182,
                "tempo": 120.0
            },
            {
                "start_time": 15.7409091,
                "end_time": 16.1568182,
                "pitch": 78,
                "velocity": 64,
                "duration": 0.4159091,
                "tempo": 120.0
            },
            {
                "start_time": 16.1727273,
                "end_time": 16.2772727,
                "pitch": 81,
                "velocity": 64,
                "duration": 0.1045455,
                "tempo": 120.0
            },
            {
                "start_time": 16.2931818,
                "end_time": 16.4,
                "pitch": 83,
                "velocity": 64,
                "duration": 0.1068182,
                "tempo": 120.0
            },
            {
                "start_time": 16.4159091,
                "end_time": 16.5204545,
                "pitch": 81,
                "velocity": 64,
                "duration": 0.1045455,
                "tempo": 120.0
            },
            {
                "start_time": 16.5386364,
                "end_time": 16.6272727,
                "pitch": 83,
                "velocity": 64,
                "duration": 0.0886364,
                "tempo": 120.0
            },
            {
                "start_time": 16.6431818,
                "end_time": 16.8568182,
                "pitch": 81,
                "velocity": 64,
                "duration": 0.2136364,
                "tempo": 120.0
            },
            {
                "start_time": 16.8727273,
                "end_time": 17.0681818,
                "pitch": 76,
                "velocity": 64,
                "duration": 0.1954545,
                "tempo": 120.0
            },
            {
                "start_time": 17.0840909,
                "end_time": 17.1863636,
                "pitch": 81,
                "velocity": 64,
                "duration": 0.1022727,
                "tempo": 120.0
            },
            {
                "start_time": 17.2022727,
                "end_time": 17.3022727,
                "pitch": 83,
                "velocity": 64,
                "duration": 0.1,
                "tempo": 120.0
            },
            {
                "start_time": 17.3181818,
                "end_time": 17.4181818,
                "pitch": 81,
                "velocity": 64,
                "duration": 0.1,
                "tempo": 120.0
            },
            {
                "start_time": 17.4363636,
                "end_time": 17.5204545,
                "pitch": 83,
                "velocity": 64,
                "duration": 0.0840909,
                "tempo": 120.0
            },
            {
                "start_time": 17.5363636,
                "end_time": 17.7477273,
                "pitch": 81,
                "velocity": 64,
                "duration": 0.2113636,
                "tempo": 120.0
            },
            {
                "start_time": 17.7636364,
                "end_time": 17.9613636,
                "pitch": 76,
                "velocity": 64,
                "duration": 0.1977273,
                "tempo": 120.0
            },
            {
                "start_time": 17.9772727,
                "end_time": 18.4113636,
                "pitch": 78,
                "velocity": 64,
                "duration": 0.4340909,
                "tempo": 120.0
            },
            {
                "start_time": 18.6727273,
                "end_time": 18.7795455,
                "pitch": 81,
                "velocity": 64,
                "duration": 0.1068182,
                "tempo": 120.0
            },
            {
                "start_time": 18.7954545,
                "end_time": 18.8840909,
                "pitch": 85,
                "velocity": 64,
                "duration": 0.0886364,
                "tempo": 120.0
            },
            {
                "start_time": 18.9022727,
                "end_time": 19.1181818,
                "pitch": 83,
                "velocity": 64,
                "duration": 0.2159091,
                "tempo": 120.0
            },
            {
                "start_time": 19.1363636,
                "end_time": 19.3363636,
                "pitch": 81,
                "velocity": 64,
                "duration": 0.2,
                "tempo": 120.0
            },
            {
                "start_time": 19.3522727,
                "end_time": 19.7681818,
                "pitch": 78,
                "velocity": 64,
                "duration": 0.4159091,
                "tempo": 120.0
            },
            {
                "start_time": 19.7840909,
                "end_time": 19.8886364,
                "pitch": 81,
                "velocity": 64,
                "duration": 0.1045455,
                "tempo": 120.0
            },
            {
                "start_time": 19.9068182,
                "end_time": 20.0113636,
                "pitch": 83,
                "velocity": 64,
                "duration": 0.1045455,
                "tempo": 120.0
            },
            {
                "start_time": 20.0272727,
                "end_time": 20.1340909,
                "pitch": 81,
                "velocity": 64,
                "duration": 0.1068182,
                "tempo": 120.0
            },
            {
                "start_time": 20.15,
                "end_time": 20.2386364,
                "pitch": 83,
                "velocity": 64,
                "duration": 0.0886364,
                "tempo": 120.0
            },
            {
                "start_time": 20.2545455,
                "end_time": 20.3545455,
                "pitch": 81,
                "velocity": 64,
                "duration": 0.1,
                "tempo": 120.0
            },
            {
                "start_time": 20.3704545,
                "end_time": 20.4681818,
                "pitch": 83,
                "velocity": 64,
                "duration": 0.0977273,
                "tempo": 120.0
            },
            {
                "start_time": 20.4840909,
                "end_time": 20.5818182,
                "pitch": 81,
                "velocity": 64,
                "duration": 0.0977273,
                "tempo": 120.0
            },
            {
                "start_time": 20.5977273,
                "end_time": 20.6795455,
                "pitch": 83,
                "velocity": 64,
                "duration": 0.0818182,
                "tempo": 120.0
            },
            {
                "start_time": 20.6977273,
                "end_time": 20.7977273,
                "pitch": 81,
                "velocity": 64,
                "duration": 0.1,
                "tempo": 120.0
            },
            {
                "start_time": 20.8136364,
                "end_time": 20.9136364,
                "pitch": 83,
                "velocity": 64,
                "duration": 0.1,
                "tempo": 120.0
            },
            {
                "start_time": 20.9318182,
                "end_time": 21.0318182,
                "pitch": 81,
                "velocity": 64,
                "duration": 0.1,
                "tempo": 120.0
            },
            {
                "start_time": 21.0477273,
                "end_time": 21.1318182,
                "pitch": 83,
                "velocity": 64,
                "duration": 0.0840909,
                "tempo": 120.0
            },
            {
                "start_time": 21.1477273,
                "end_time": 21.5931818,
                "pitch": 81,
                "velocity": 64,
                "duration": 0.4454545,
                "tempo": 120.0
            }
        ],
        "Clarinet": [
            {
                "start_time": 0.0159091,
                "end_time": 0.0295455,
                "pitch": 81,
                "velocity": 51,
                "duration": 0.0136364,
                "tempo": 120.0
            },
            {
                "start_time": 0.6727273,
                "end_time": 0.7727273,
                "pitch": 81,
                "velocity": 51,
                "duration": 0.1,
                "tempo": 120.0
            },
            {
                "start_time": 0.7909091,
                "end_time": 0.8909091,
                "pitch": 85,
                "velocity": 51,
                "duration": 0.1,
                "tempo": 120.0
            },
            {
                "start_time": 0.9068182,
                "end_time": 1.1068182,
                "pitch": 83,
                "velocity": 51,
                "duration": 0.2,
                "tempo": 120.0
            },
            {
                "start_time": 1.125,
                "end_time": 1.3409091,
                "pitch": 81,
                "velocity": 51,
                "duration": 0.2159091,
                "tempo": 120.0
            },
            {
                "start_time": 1.3590909,
                "end_time": 1.7954545,
                "pitch": 78,
                "velocity": 51,
                "duration": 0.4363636,
                "tempo": 120.0
            },
            {
                "start_time": 1.8136364,
                "end_time": 3.5977273,
                "pitch": 76,
                "velocity": 51,
                "duration": 1.7840909,
                "tempo": 120.0
            },
            {
                "start_time": 4.2909091,
                "end_time": 4.3931818,
                "pitch": 81,
                "velocity": 51,
                "duration": 0.1022727,
                "tempo": 120.0
            },
            {
                "start_time": 4.4113636,
                "end_time": 4.5136364,
                "pitch": 85,
                "velocity": 51,
                "duration": 0.1022727,
                "tempo": 120.0
            },
            {
                "start_time": 4.5295455,
                "end_time": 4.7363636,
                "pitch": 83,
                "velocity": 51,
                "duration": 0.2068182,
                "tempo": 120.0
            },
            {
                "start_time": 4.7522727,
                "end_time": 4.9704545,
                "pitch": 81,
                "velocity": 51,
                "duration": 0.2181818,
                "tempo": 120.0
            },
            {
                "start_time": 4.9863636,
                "end_time": 5.4068182,
                "pitch": 78,
                "velocity": 51,
                "duration": 0.4204545,
                "tempo": 120.0
            },
            {
                "start_time": 5.425,
                "end_time": 7.2113636,
                "pitch": 81,
                "velocity": 51,
                "duration": 1.7863636,
                "tempo": 120.0
            },
            {
                "start_time": 7.8954545,
                "end_time": 7.9954545,
                "pitch": 81,
                "velocity": 51,
                "duration": 0.1,
                "tempo": 120.0
            },
            {
                "start_time": 8.0136364,
                "end_time": 8.1136364,
                "pitch": 85,
                "velocity": 51,
                "duration": 0.1,
                "tempo": 120.0
            },
            {
                "start_time": 8.1295455,
                "end_time": 8.3295455,
                "pitch": 83,
                "velocity": 51,
                "duration": 0.2,
                "tempo": 120.0
            },
            {
                "start_time": 8.3477273,
                "end_time": 8.5636364,
                "pitch": 81,
                "velocity": 51,
                "duration": 0.2159091,
                "tempo": 120.0
            },
            {
                "start_time": 8.5818182,
                "end_time": 9.0181818,
                "pitch": 78,
                "velocity": 51,
                "duration": 0.4363636,
                "tempo": 120.0
            },
            {
                "start_time": 9.0363636,
                "end_time": 10.8227273,
                "pitch": 76,
                "velocity": 51,
                "duration": 1.7863636,
                "tempo": 120.0
            },
            {
                "start_time": 11.5090909,
                "end_time": 11.6068182,
                "pitch": 81,
                "velocity": 51,
                "duration": 0.0977273,
                "tempo": 120.0
            },
            {
                "start_time": 11.625,
                "end_time": 11.725,
                "pitch": 85,
                "velocity": 51,
                "duration": 0.1,
                "tempo": 120.0
            },
            {
                "start_time": 11.7409091,
                "end_time": 11.9409091,
                "pitch": 83,
                "velocity": 51,
                "duration": 0.2,
                "tempo": 120.0
            },
            {
                "start_time": 11.9590909,
                "end_time": 12.175,
                "pitch": 81,
                "velocity": 51,
                "duration": 0.2159091,
                "tempo": 120.0
            },
            {
                "start_time": 12.1931818,
                "end_time": 12.6295455,
                "pitch": 78,
                "velocity": 51,
                "duration": 0.4363636,
                "tempo": 120.0
            },
            {
                "start_time": 12.6477273,
                "end_time": 14.4340909,
                "pitch": 81,
                "velocity": 51,
                "duration": 1.7863636,
                "tempo": 120.0
            },
            {
                "start_time": 15.125,
                "end_time": 15.2272727,
                "pitch": 81,
                "velocity": 51,
                "duration": 0.1022727,
                "tempo": 120.0
            },
            {
                "start_time": 15.2454545,
                "end_time": 15.3477273,
                "pitch": 85,
                "velocity": 51,
                "duration": 0.1022727,
                "tempo": 120.0
            },
            {
                "start_time": 15.3659091,
                "end_time": 15.5704545,
                "pitch": 83,
                "velocity": 51,
                "duration": 0.2045455,
                "tempo": 120.0
            },
            {
                "start_time": 15.5863636,
                "end_time": 15.8045455,
                "pitch": 81,
                "velocity": 51,
                "duration": 0.2181818,
                "tempo": 120.0
            },
            {
                "start_time": 15.8204545,
                "end_time": 16.2409091,
                "pitch": 78,
                "velocity": 51,
                "duration": 0.4204545,
                "tempo": 120.0
            },
            {
                "start_time": 16.2590909,
                "end_time": 18.0454545,
                "pitch": 76,
                "velocity": 51,
                "duration": 1.7863636,
                "tempo": 120.0
            },
            {
                "start_time": 18.7431818,
                "end_time": 18.8477273,
                "pitch": 81,
                "velocity": 51,
                "duration": 0.1045455,
                "tempo": 120.0
            },
            {
                "start_time": 18.8659091,
                "end_time": 18.9681818,
                "pitch": 85,
                "velocity": 51,
                "duration": 0.1022727,
                "tempo": 120.0
            },
            {
                "start_time": 18.9840909,
                "end_time": 19.1863636,
                "pitch": 83,
                "velocity": 51,
                "duration": 0.2022727,
                "tempo": 120.0
            },
            {
                "start_time": 19.2022727,
                "end_time": 19.4159091,
                "pitch": 81,
                "velocity": 51,
                "duration": 0.2136364,
                "tempo": 120.0
            },
            {
                "start_time": 19.4318182,
                "end_time": 19.8522727,
                "pitch": 78,
                "velocity": 51,
                "duration": 0.4204545,
                "tempo": 120.0
            },
            {
                "start_time": 19.8704545,
                "end_time": 21.6727273,
                "pitch": 81,
                "velocity": 51,
                "duration": 1.8022727,
                "tempo": 120.0
            }
        ]
    }
}