{
    "mood": "happy",
    "instruments": {
        "Acoustic Grand Piano": [
            {
                "start_time": 0.0159091,
                "end_time": 0.0659091,
                "pitch": 56,
                "velocity": 80,
                "duration": 0.05,
                "tempo": 120.0
            },
            {
                "start_time": 0.0659091,
                "end_time": 0.1818182,
                "pitch": 56,
                "velocity": 80,
                "duration": 0.1159091,
                "tempo": 120.0
            },
            {
                "start_time": 0.1977273,
                "end_time": 0.3818182,
                "pitch": 58,
                "velocity": 80,
                "duration": 0.1840909,
                "tempo": 120.0
            },
            {
                "start_time": 0.3977273,
                "end_time": 0.5727273,
                "pitch": 60,
                "velocity": 80,
                "duration": 0.175,
                "tempo": 120.0
            },
            {
                "start_time": 0.5886364,
                "end_time": 0.9636364,
                "pitch": 63,
                "velocity": 80,
                "duration": 0.375,
                "tempo": 120.0
            },
            {
                "start_time": 0.9795455,
                "end_time": 1.1636364,
                "pitch": 60,
                "velocity": 80,
                "duration": 0.1840909,
                "tempo": 120.0
            },
            {
                "start_time": 1.1795455,
                "end_time": 1.3681818,
                "pitch": 58,
                "velocity": 80,
                "duration": 0.1886364,
                "tempo": 120.0
            },
            {
                "start_time": 1.3863636,
                "end_time": 1.575,
                "pitch": 56,
                "velocity": 80,
                "duration": 0.1886364,
                "tempo": 120.0
            },
            {
                "start_time": 1.5909091,
                "end_time": 1.675,
                "pitch": 58,
                "velocity": 80,
                "duration": 0.0840909,
                "tempo": 120.0
            },
            {
                "start_time": 1.6909091,
                "end_time": 1.775,
                "pitch": 60,
                "velocity": 80,
                "duration": 0.0840909,
                "tempo": 120.0
            },
            {
                "start_time": 1.7931818,
                "end_time": 1.8772727,
                "pitch": 58,
                "velocity": 80,
                "duration": 0.0840909,
                "tempo": 120.0
            },
            {
                "start_time": 1.8931818,
                "end_time": 1.9772727,
                "pitch": 60,
                "velocity": 80,
                "duration": 0.0840909,
                "tempo": 120.0
            },
            {
                "start_time": 1.9931818,
                "end_time": 2.1772727,
                "pitch": 58,
                "velocity": 80,
                "duration": 0.1840909,
                "tempo": 120.0
            },
            {
                "start_time": 2.1931818,
                "end_time": 2.3772727,
                "pitch": 56,
                "velocity": 80,
                "duration": 0.1840909,
                "tempo": 120.0
            },
            {
                "start_time": 2.3931818,
                "end_time": 2.9727273,
                "pitch": 53,
                "velocity": 80,
                "duration": 0.5795455,
                "tempo": 120.0
            },
            {
                "start_time": 2.9909091,
                "end_time": 3.1704545,
                "pitch": 51,
                "velocity": 80,
                "duration": 0.1795455,
                "tempo": 120.0
            },
            {
                "start_time": 3.1863636,
                "end_time": 3.2704545,
                "pitch": 53,
                "velocity": 80,
                "duration": 0.0840909,
                "tempo": 120.0
            },
            {
                "start_time": 3.2863636,
                "end_time": 3.3704545,
                "pitch": 55,
                "velocity": 80,
                "duration": 0.0840909,
                "tempo": 120.0
            },
            {
                "start_time": 3.3863636,
                "end_time": 3.4704545,
                "pitch": 53,
                "velocity": 80,
                "duration": 0.0840909,
                "tempo": 120.0
            },
            {
                "start_time": 3.4863636,
                "end_time": 3.5704545,
                "pitch": 55,
                "velocity": 80,
                "duration": 0.0840909,
                "tempo": 120.0
            },
            {
                "start_time": 3.5863636,
                "end_time": 3.775,
                "pitch": 60,
                "velocity": 80,
                "duration": 0.1886364,
                "tempo": 120.0
            },
            {
                "start_time": 3.7909091,
                "end_time": 3.9795455,
                "pitch": 48,
                "velocity": 80,
                "duration": 0.1886364,
                "tempo": 120.0
            },
            {
                "start_time": 3.9977273,
                "end_time": 4.0795455,
                "pitch": 53,
                "velocity": 80,
                "duration": 0.0818182,
                "tempo": 120.0
            },
            {
                "start_time": 4.0977273,
                "end_time": 4.1795455,
                "pitch": 55,
                "velocity": 80,
                "duration": 0.0818182,
                "tempo": 120.0
            },
            {
                "start_time": 4.1977273,
                "end_time": 4.2795455,
                "pitch": 53,
                "velocity": 80,
                "duration": 0.0818182,
                "tempo": 120.0
            },
            {
                "start_time": 4.2977273,
                "end_time": 4.3795455,
                "pitch": 55,
                "velocity": 80,
                "duration": 0.0818182,
                "tempo": 120.0
            },
            {
                "start_time": 4.3977273,
                "end_time": 4.5818182,
                "pitch": 60,
                "velocity": 80,
                "duration": 0.1840909,
                "tempo": 120.0
            },
            {
                "start_time": 4.5977273,
                "end_time": 4.7840909,
                "pitch": 48,
                "velocity": 80,
                "duration": 0.1863636,
                "tempo": 120.0
            },
            {
                "start_time": 4.8,
                "end_time": 4.8840909,
                "pitch": 53,
                "velocity": 80,
                "duration": 0.0840909,
                "tempo": 120.0
            },
            {
                "start_time": 4.9,
                "end_time": 4.9840909,
                "pitch": 55,
                "velocity": 80,
                "duration": 0.0840909,
                "tempo": 120.0
            },
            {
                "start_time": 5.0,
                "end_time": 5.0840909,
                "pitch": 53,
                "velocity": 80,
                "duration": 0.0840909,
                "tempo": 120.0
            },
            {
                "start_time": 5.1,
                "end_time": 5.1840909,
                "pitch": 55,
                "velocity": 80,
                "duration": 0.0840909,
                "tempo": 120.0
            },
            {
                "start_time": 5.2,
                "end_time": 5.3840909,
                "pitch": 60,
                "velocity": 80,
                "duration": 0.1840909,
                "tempo": 120.0
            },
            {
                "start_time": 5.4,
                "end_time": 5.9954545,
                "pitch": 53,
                "velocity": 80,
                "duration": 0.5954545,
                "tempo": 120.0
            },
            {
                "start_time": 6.0136364,
                "end_time": 6.3886364,
                "pitch": 51,
                "velocity": 80,
                "duration": 0.375,
                "tempo": 120.0
            },
            {
                "start_time": 6.4045455,
                "end_time": 6.5909091,
                "pitch": 56,
                "velocity": 80,
                "duration": 0.1863636,
                "tempo": 120.0
            },
            {
                "start_time": 6.6068182,
                "end_time": 6.7909091,
                "pitch": 58,
                "velocity": 80,
                "duration": 0.1840909,
                "tempo": 120.0
            },
            {
                "start_time": 6.8090909,
                "end_time": 6.9909091,
                "pitch": 60,
                "velocity": 80,
                "duration": 0.1818182,
                "tempo": 120.0
            },
            {
                "start_time": 7.0090909,
                "end_time": 7.3886364,
                "pitch": 63,
                "velocity": 80,
                "duration": 0.3795455,
                "tempo": 120.0
            },
            {
                "start_time": 7.4045455,
                "end_time": 7.5840909,
                "pitch": 60,
                "velocity": 80,
                "duration": 0.1795455,
                "tempo": 120.0
            },
            {
                "start_time": 7.6,
                "end_time": 7.7840909,
                "pitch": 58,
                "velocity": 80,
                "duration": 0.1840909,
                "tempo": 120.0
            },
            {
                "start_time": 7.8,
                "end_time": 7.9840909,
                "pitch": 56,
                "velocity": 80,
                "duration": 0.1840909,
                "tempo": 120.0
            },
            {
                "start_time": 8.0,
                "end_time": 8.0863636,
                "pitch": 58,
                "velocity": 80,
                "duration": 0.0863636,
                "tempo": 120.0
            },
            {
                "start_time": 8.1022727,
                "end_time": 8.1886364,
                "pitch": 60,
                "velocity": 80,
                "duration": 0.0863636,
                "tempo": 120.0
            },
            {
                "start_time": 8.2045455,
                "end_time": 8.2909091,
                "pitch": 58,
                "velocity": 80,
                "duration": 0.0863636,
                "tempo": 120.0
            },
            {
                "start_time": 8.3090909,
                "end_time": 8.3931818,
                "pitch": 60,
                "velocity": 80,
                "duration": 0.0840909,
                "tempo": 120.0
            },
            {
                "start_time": 8.4113636,
                "end_time": 8.5954545,
                "pitch": 58,
                "velocity": 80,
                "duration": 0.1840909,
                "tempo": 120.0
            },
            {
                "start_time": 8.6136364,
                "end_time": 8.7977273,
                "pitch": 56,
                "velocity": 80,
                "duration": 0.1840909,
                "tempo": 120.0
            },
            {
                "start_time": 8.8136364,
                "end_time": 9.3954545,
                "pitch": 53,
                "velocity": 80,
                "duration": 0.5818182,
                "tempo": 120.0
            },
            {
                "start_time": 9.4113636,
                "end_time": 9.5931818,
                "pitch": 51,
                "velocity": 80,
                "duration": 0.1818182,
                "tempo": 120.0
            },
            {
                "start_time": 9.6090909,
                "end_time": 9.6931818,
                "pitch": 53,
                "velocity": 80,
                "duration": 0.0840909,
                "tempo": 120.0
            },
            {
                "start_time": 9.7090909,
                "end_time": 9.7931818,
                "pitch": 55,
                "velocity": 80,
                "duration": 0.0840909,
                "tempo": 120.0
            },
            {
                "start_time": 9.8090909,
                "end_time": 9.8931818,
                "pitch": 53,
                "velocity": 80,
                "duration": 0.0840909,
                "tempo": 120.0
            },
            {
                "start_time": 9.9113636,
                "end_time": 9.9954545,
                "pitch": 55,
                "velocity": 80,
                "duration": 0.0840909,
                "tempo": 120.0
            },
            {
                "start_time": 10.0113636,
                "end_time": 10.2,
                "pitch": 60,
                "velocity": 80,
                "duration": 0.1886364,
                "tempo": 120.0
            },
            {
                "start_time": 10.2159091,
                "end_time": 10.4045455,
                "pitch": 48,
                "velocity": 80,
                "duration": 0.1886364,
                "tempo": 120.0
            },
            {
                "start_time": 10.4227273,
                "end_time": 10.5068182,
                "pitch": 53,
                "velocity": 80,
                "duration": 0.0840909,
                "tempo": 120.0
            },
            {
                "start_time": 10.5227273,
                "end_time": 10.6068182,
                "pitch": 55,
                "velocity": 80,
                "duration": 0.0840909,
                "tempo": 120.0
            },
            {
                "start_time": 10.6227273,
                "end_time": 10.7068182,
                "pitch": 53,
                "velocity": 80,
                "duration": 0.0840909,
                "tempo": 120.0
            },
            {
                "start_time": 10.725,
                "end_time": 10.8090909,
                "pitch": 55,
                "velocity": 80,
                "duration": 0.0840909,
                "tempo": 120.0
            },
            {
                "start_time": 10.825,
                "end_time": 11.0090909,
                "pitch": 60,
                "velocity": 80,
                "duration": 0.1840909,
                "tempo": 120.0
            },
            {
                "start_time": 11.0272727,
                "end_time": 11.2113636,
                "pitch": 48,
                "velocity": 80,
                "duration": 0.1840909,
                "tempo": 120.0
            },
            {
                "start_time": 11.2272727,
                "end_time": 11.4068182,
                "pitch": 53,
                "velocity": 80,
                "duration": 0.1795455,
                "tempo": 120.0
            },
            {
                "start_time": 11.4227273,
                "end_time": 11.6022727,
                "pitch": 55,
                "velocity": 80,
                "duration": 0.1795455,
                "tempo": 120.0
            },
            {
                "start_time": 11.6204545,
                "end_time": 11.8068182,
                "pitch": 60,
                "velocity": 80,
                "duration": 0.1863636,
                "tempo": 120.0
            },
            {
                "start_time": 11.825,
                "end_time": 12.4159091,
                "pitch": 63,
                "velocity": 80,
                "duration": 0.5909091,
                "tempo": 120.0
            },
            {
                "start_time": 12.4340909,
                "end_time": 12.8181818,
                "pitch": 65,
                "velocity": 80,
                "duration": 0.3840909,
                "tempo": 120.0
            },
            {
                "start_time": 12.8363636,
                "end_time": 13.0159091,
                "pitch": 63,
                "velocity": 80,
                "duration": 0.1795455,
                "tempo": 120.0
            },
            {
                "start_time": 13.0318182,
                "end_time": 13.2113636,
                "pitch": 65,
                "velocity": 80,
                "duration": 0.1795455,
                "tempo": 120.0
            },
            {
                "start_time": 13.2272727,
                "end_time": 13.4136364,
                "pitch": 67,
                "velocity": 80,
                "duration": 0.1863636,
                "tempo": 120.0
            },
            {
                "start_time": 13.4295455,
                "end_time": 14.0068182,
                "pitch": 65,
                "velocity": 80,
                "duration": 0.5772727,
                "tempo": 120.0
            },
            {
                "start_time": 14.0227273,
                "end_time": 14.4159091,
                "pitch": 63,
                "velocity": 80,
                "duration": 0.3931818,
                "tempo": 120.0
            },
            {
                "start_time": 14.4340909,
                "end_time": 14.6181818,
                "pitch": 63,
                "velocity": 80,
                "duration": 0.1840909,
                "tempo": 120.0
            },
            {
                "start_time": 14.6340909,
                "end_time": 14.8204545,
                "pitch": 65,
                "velocity": 80,
                "duration": 0.1863636,
                "tempo": 120.0
            },
            {
                "start_time": 14.8363636,
                "end_time": 15.0204545,
                "pitch": 66,
                "velocity": 80,
                "duration": 0.1840909,
                "tempo": 120.0
            },
            {
                "start_time": 15.0363636,
                "end_time": 15.6227273,
                "pitch": 65,
                "velocity": 80,
                "duration": 0.5863636,
                "tempo": 120.0
            },
            {
                "start_time": 15.6386364,
                "end_time": 16.025,
                "pitch": 63,
                "velocity": 80,
                "duration": 0.3863636,
                "tempo": 120.0
            },
            {
                "start_time": 16.0409091,
                "end_time": 16.2272727,
                "pitch": 63,
                "velocity": 80,
                "duration": 0.1863636,
                "tempo": 120.0
            },
            {
                "start_time": 16.2431818,
                "end_time": 16.4272727,
                "pitch": 65,
                "velocity": 80,
                "duration": 0.1840909,
                "tempo": 120.0
            },
            {
                "start_time": 16.4454545,
                "end_time": 16.6295455,
                "pitch": 67,
                "velocity": 80,
                "duration": 0.1840909,
                "tempo": 120.0
            },
            {
                "start_time": 16.6454545,
                "end_time": 16.8295455,
                "pitch": 65,
                "velocity": 80,
                "duration": 0.1840909,
                "tempo": 120.0
            },
            {
                "start_time": 16.8477273,
                "end_time": 17.0295455,
                "pitch": 63,
                "velocity": 80,
                "duration": 0.1818182,
                "tempo": 120.0
            },
            {
                "start_time": 17.0477273,
                "end_time": 17.2295455,
                "pitch": 65,
                "velocity": 80,
                "duration": 0.1818182,
                "tempo": 120.0
            },
            {
                "start_time": 17.2477273,
                "end_time": 17.4318182,
                "pitch": 66,
                "velocity": 80,
                "duration": 0.1840909,
                "tempo": 120.0
            },
            {
                "start_time": 17.4477273,
                "end_time": 17.6318182,
                "pitch": 65,
                "velocity": 80,
                "duration": 0.1840909,
                "tempo": 120.0
            },
            {
                "start_time": 17.65,
                "end_time": 17.7318182,
                "pitch": 63,
                "velocity": 80,
                "duration": 0.0818182,
                "tempo": 120.0
            },
            {
                "start_time": 17.7477273,
                "end_time": 17.8295455,
                "pitch": 65,
                "velocity": 80,
                "duration": 0.0818182,
                "tempo": 120.0
            },
            {
                "start_time": 17.8454545,
                "end_time": 17.9272727,
                "pitch": 63,
                "velocity": 80,
                "duration": 0.0818182,
                "tempo": 120.0
            },
            {
                "start_time": 17.9431818,
                "end_time": 18.025,
                "pitch": 65,
                "velocity": 80,
                "duration": 0.0818182,
                "tempo": 120.0
            },
            {
                "start_time": 18.0409091,
                "end_time": 18.1272727,
                "pitch": 67,
                "velocity": 80,
                "duration": 0.0863636,
                "tempo": 120.0
            },
            {
                "start_time": 18.1454545,
                "end_time": 18.2295455,
                "pitch": 65,
                "velocity": 80,
                "duration": 0.0840909,
                "tempo": 120.0
            },
            {
                "start_time": 18.2477273,
                "end_time": 18.3318182,
                "pitch": 67,
                "velocity": 80,
                "duration": 0.0840909,
                "tempo": 120.0
            },
            {
                "start_time": 18.35,
                "end_time": 18.4363636,
                "pitch": 65,
                "velocity": 80,
                "duration": 0.0863636,
                "tempo": 120.0
            },
            {
                "start_time": 18.4522727,
                "end_time": 18.5363636,
                "pitch": 63,
                "velocity": 80,
                "duration": 0.0840909,
                "tempo": 120.0
            },
            {
                "start_time": 18.5522727,
                "end_time": 18.6363636,
                "pitch": 65,
                "velocity": 80,
                "duration": 0.0840909,
                "tempo": 120.0
            },
            {
                "start_time": 18.6545455,
                "end_time": 18.7386364,
                "pitch": 67,
                "velocity": 80,
                "duration": 0.0840909,
                "tempo": 120.0
            },
            {
                "start_time": 18.7545455,
                "end_time": 18.8386364,
                "pitch": 65,
                "velocity": 80,
                "duration": 0.0840909,
                "tempo": 120.0
            },
            {
                "start_time": 18.8545455,
                "end_time": 18.9386364,
                "pitch": 63,
                "velocity": 80,
                "duration": 0.0840909,
                "tempo": 120.0
            },
            {
                "start_time": 18.9545455,
                "end_time": 19.0386364,
                "pitch": 61,
                "velocity": 80,
                "duration": 0.0840909,
                "tempo": 120.0
            },
            {
                "start_time": 19.0545455,
                "end_time": 19.1386364,
                "pitch": 60,
                "velocity": 80,
                "duration": 0.0840909,
                "tempo": 120.0
            },
            {
                "start_time": 19.1545455,
                "end_time": 19.2386364,
                "pitch": 58,
                "velocity": 80,
                "duration": 0.0840909,
                "tempo": 120.0
            },
            {
                "start_time": 19.2545455,
                "end_time": 19.4431818,
                "pitch": 56,
                "velocity": 80,
                "duration": 0.1886364,
                "tempo": 120.0
            },
            {
                "start_time": 19.4613636,
                "end_time": 19.65,
                "pitch": 58,
                "velocity": 80,
                "duration": 0.1886364,
                "tempo": 120.0
            },
            {
                "start_time": 19.6659091,
                "end_time": 19.8454545,
                "pitch": 60,
                "velocity": 80,
                "duration": 0.1795455,
                "tempo": 120.0
            },
            {
                "start_time": 19.8613636,
                "end_time": 20.2409091,
                "pitch": 63,
                "velocity": 80,
                "duration": 0.3795455,
                "tempo": 120.0
            },
            {
                "start_time": 20.2590909,
                "end_time": 20.4409091,
                "pitch": 60,
                "velocity": 80,
                "duration": 0.1818182,
                "tempo": 120.0
            },
            {
                "start_time": 20.4590909,
                "end_time": 20.6454545,
                "pitch": 58,
                "velocity": 80,
                "duration": 0.1863636,
                "tempo": 120.0
            },
            {
                "start_time": 20.6636364,
                "end_time": 20.8522727,
                "pitch": 56,
                "velocity": 80,
                "duration": 0.1886364,
                "tempo": 120.0
            },
            {
                "start_time": 20.8681818,
                "end_time": 20.9522727,
                "pitch": 58,
                "velocity": 80,
                "duration": 0.0840909,
                "tempo": 120.0
            },
            {
                "start_time": 20.9704545,
                "end_time": 21.0545455,
                "pitch": 60,
                "velocity": 80,
                "duration": 0.0840909,
                "tempo": 120.0
            },
            {
                "start_time": 21.0704545,
                "end_time": 21.1545455,
                "pitch": 58,
                "velocity": 80,
                "duration": 0.0840909,
                "tempo": 120.0
            },
            {
                "start_time": 21.1704545,
                "end_time": 21.2545455,
                "pitch": 60,
                "velocity": 80,
                "duration": 0.0840909,
                "tempo": 120.0
            },
            {
                "start_time": 21.2727273,
                "end_time": 21.4545455,
                "pitch": 58,
                "velocity": 80,
                "duration": 0.1818182,
                "tempo": 120.0
            },
            {
                "start_time": 21.4727273,
                "end_time": 21.6545455,
                "pitch": 56,
                "velocity": 80,
                "duration": 0.1818182,
                "tempo": 120.0
            },
            {
                "start_time": 21.6727273,
                "end_time": 22.2568182,
                "pitch": 53,
                "velocity": 80,
                "duration": 0.5840909,
                "tempo": 120.0
            },
            {
                "start_time": 22.275,
                "end_time": 22.4568182,
                "pitch": 51,
                "velocity": 80,
                "duration": 0.1818182,
                "tempo": 120.0
            },
            {
                "start_time": 22.475,
                "end_time": 22.5568182,
                "pitch": 53,
                "velocity": 80,
                "duration": 0.0818182,
                "tempo": 120.0
            },
            {
                "start_time": 22.5727273,
                "end_time": 22.6545455,
                "pitch": 55,
                "velocity": 80,
                "duration": 0.0818182,
                "tempo": 120.0
            },
            {
                "start_time": 22.6704545,
                "end_time": 22.7522727,
                "pitch": 53,
                "velocity": 80,
                "duration": 0.0818182,
                "tempo": 120.0
            },
            {
                "start_time": 22.7681818,
                "end_time": 22.85,
                "pitch": 55,
                "velocity": 80,
                "duration": 0.0818182,
                "tempo": 120.0
            },
            {
                "start_time": 22.8659091,
                "end_time": 23.0545455,
                "pitch": 60,
                "velocity": 80,
                "duration": 0.1886364,
                "tempo": 120.0
            },
            {
                "start_time": 23.0727273,
                "end_time": 23.2590909,
                "pitch": 48,
                "velocity": 80,
                "duration": 0.1863636,
                "tempo": 120.0
            },
            {
                "start_time": 23.2772727,
                "end_time": 23.3613636,
                "pitch": 53,
                "velocity": 80,
                "duration": 0.0840909,
                "tempo": 120.0
            },
            {
                "start_time": 23.3772727,
                "end_time": 23.4613636,
                "pitch": 55,
                "velocity": 80,
                "duration": 0.0840909,
                "tempo": 120.0
            },
            {
                "start_time": 23.4772727,
                "end_time": 23.5613636,
                "pitch": 53,
                "velocity": 80,
                "duration": 0.0840909,
                "tempo": 120.0
            },
            {
                "start_time": 23.5772727,
                "end_time": 23.6613636,
                "pitch": 55,
                "velocity": 80,
                "duration": 0.0840909,
                "tempo": 120.0
            },
            {
                "start_time": 23.6772727,
                "end_time": 23.8613636,
                "pitch": 60,
                "velocity": 80,
                "duration": 0.1840909,
                "tempo": 120.0
            },
            {
                "start_time": 23.8795455,
                "end_time": 24.0636364,
                "pitch": 48,
                "velocity": 80,
                "duration": 0.1840909,
                "tempo": 120.0
            },
            {
                "start_time": 24.0795455,
                "end_time": 24.1636364,
                "pitch": 53,
                "velocity": 80,
                "duration": 0.0840909,
                "tempo": 120.0
            },
            {
                "start_time": 24.1795455,
                "end_time": 24.2636364,
                "pitch": 55,
                "velocity": 80,
                "duration": 0.0840909,
                "tempo": 120.0
            },
            {
                "start_time": 24.2795455,
                "end_time": 24.3636364,
                "pitch": 53,
                "velocity": 80,
                "duration": 0.0840909,
                "tempo": 120.0
            },
            {
                "start_time": 24.3795455,
                "end_time": 24.4636364,
                "pitch": 55,
                "velocity": 80,
                "duration": 0.0840909,
                "tempo": 120.0
            },
            {
                "start_time": 24.4795455,
                "end_time": 24.6636364,
                "pitch": 60,
                "velocity": 80,
                "duration": 0.1840909,
                "tempo": 120.0
            },
            {
                "start_time": 24.6795455,
                "end_time": 25.2727273,
                "pitch": 53,
                "velocity": 80,
                "duration": 0.5931818,
                "tempo": 120.0
            },
            {
                "start_time": 25.2909091,
                "end_time": 25.6659091,
                "pitch": 51,
                "velocity": 80,
                "duration": 0.375,
                "tempo": 120.0
            },
            {
                "start_time": 25.6818182,
                "end_time": 25.8681818,
                "pitch": 56,
                "velocity": 80,
                "duration": 0.1863636,
                "tempo": 120.0
            },
            {
                "start_time": 25.8840909,
                "end_time": 26.0681818,
                "pitch": 58,
                "velocity": 80,
                "duration": 0.1840909,
                "tempo": 120.0
            },
            {
                "start_time": 26.0863636,
                "end_time": 26.2681818,
                "pitch": 60,
                "velocity": 80,
                "duration": 0.1818182,
                "tempo": 120.0
            },
            {
                "start_time": 26.2863636,
                "end_time": 26.6659091,
                "pitch": 63,
                "velocity": 80,
                "duration": 0.3795455,
                "tempo": 120.0
            },
            {
                "start_time": 26.6818182,
                "end_time": 26.8613636,
                "pitch": 60,
                "velocity": 80,
                "duration": 0.1795455,
                "tempo": 120.0
            },
            {
                "start_time": 26.8772727,
                "end_time": 27.0659091,
                "pitch": 58,
                "velocity": 80,
                "duration": 0.1886364,
                "tempo": 120.0
            },
            {
                "start_time": 27.0818182,
                "end_time": 27.2704545,
                "pitch": 56,
                "velocity": 80,
                "duration": 0.1886364,
                "tempo": 120.0
            },
            {
                "start_time": 27.2886364,
                "end_time": 27.4681818,
                "pitch": 61,
                "velocity": 80,
                "duration": 0.1795455,
                "tempo": 120.0
            },
            {
                "start_time": 27.4840909,
                "end_time": 27.6636364,
                "pitch": 63,
                "velocity": 80,
                "duration": 0.1795455,
                "tempo": 120.0
            },
            {
                "start_time": 27.6795455,
                "end_time": 27.8636364,
                "pitch": 65,
                "velocity": 80,
                "duration": 0.1840909,
                "tempo": 120.0
            },
            {
                "start_time": 27.8795455,
                "end_time": 28.2727273,
                "pitch": 68,
                "velocity": 80,
                "duration": 0.3931818,
                "tempo": 120.0
            },
            {
                "start_time": 28.2909091,
                "end_time": 28.4840909,
                "pitch": 65,
                "velocity": 80,
                "duration": 0.1931818,
                "tempo": 120.0
            },
            {
                "start_time": 28.5022727,
                "end_time": 28.6818182,
                "pitch": 63,
                "velocity": 80,
                "duration": 0.1795455,
                "tempo": 120.0
            },
            {
                "start_time": 28.6977273,
                "end_time": 28.8772727,
                "pitch": 61,
                "velocity": 80,
                "duration": 0.1795455,
                "tempo": 120.0
            },
            {
                "start_time": 28.8954545,
                "end_time": 29.075,
                "pitch": 56,
                "velocity": 80,
                "duration": 0.1795455,
                "tempo": 120.0
            },
            {
                "start_time": 29.0909091,
                "end_time": 29.2704545,
                "pitch": 58,
                "velocity": 80,
                "duration": 0.1795455,
                "tempo": 120.0
            },
            {
                "start_time": 29.2863636,
                "end_time": 29.475,
                "pitch": 60,
                "velocity": 80,
                "duration": 0.1886364,
                "tempo": 120.0
            },
            {
                "start_time": 29.4931818,
                "end_time": 29.8772727,
                "pitch": 63,
                "velocity": 80,
                "duration": 0.3840909,
                "tempo": 120.0
            },
            {
                "start_time": 29.8931818,
                "end_time": 30.0727273,
                "pitch": 60,
                "velocity": 80,
                "duration": 0.1795455,
                "tempo": 120.0
            },
            {
                "start_time": 30.0886364,
                "end_time": 30.2727273,
                "pitch": 63,
                "velocity": 80,
                "duration": 0.1840909,
                "tempo": 120.0
            },
            {
                "start_time": 30.2886364,
                "end_time": 30.3386364,
                "pitch": 60,
                "velocity": 80,
                "duration": 0.05,
                "tempo": 120.0
            },
            {
                "start_time": 30.3568182,
                "end_time": 30.4068182,
                "pitch": 63,
                "velocity": 80,
                "duration": 0.05,
                "tempo": 120.0
            },
            {
                "start_time": 30.4227273,
                "end_time": 30.4727273,
                "pitch": 65,
                "velocity": 80,
                "duration": 0.05,
                "tempo": 120.0
            },
            {
                "start_time": 30.4886364,
                "end_time": 30.875,
                "pitch": 68,
                "velocity": 80,
                "duration": 0.3863636,
                "tempo": 120.0
            },
            {
                "start_time": 31.1931818,
                "end_time": 31.275,
                "pitch": 68,
                "velocity": 80,
                "duration": 0.0818182,
                "tempo": 120.0
            },
            {
                "start_time": 31.2931818,
                "end_time": 31.6863636,
                "pitch": 80,
                "velocity": 80,
                "duration": 0.3931818,
                "tempo": 120.0
            },
            {
                "start_time": 32.0954545,
                "end_time": 32.1613636,
                "pitch": 56,
                "velocity": 80,
                "duration": 0.0659091,
                "tempo": 120.0
            }
        ],
        "Electric Guitar (clean)": [
            {
                "start_time": 0.0159091,
                "end_time": 0.0659091,
                "pitch": 32,
                "velocity": 51,
                "duration": 0.05,
                "tempo": 120.0
            },
            {
                "start_time": 0.0659091,
                "end_time": 0.1818182,
                "pitch": 32,
                "velocity": 51,
                "duration": 0.1159091,
                "tempo": 120.0
            },
            {
                "start_time": 0.1977273,
                "end_time": 0.3818182,
                "pitch": 44,
                "velocity": 51,
                "duration": 0.1840909,
                "tempo": 120.0
            },
            {
                "start_time": 0.3977273,
                "end_time": 0.5727273,
                "pitch": 32,
                "velocity": 51,
                "duration": 0.175,
                "tempo": 120.0
            },
            {
                "start_time": 0.5886364,
                "end_time": 0.7636364,
                "pitch": 41,
                "velocity": 51,
                "duration": 0.175,
                "tempo": 120.0
            },
            {
                "start_time": 0.7795455,
                "end_time": 0.9636364,
                "pitch": 32,
                "velocity": 51,
                "duration": 0.1840909,
                "tempo": 120.0
            },
            {
                "start_time": 0.9795455,
                "end_time": 1.1636364,
                "pitch": 44,
                "velocity": 51,
                "duration": 0.1840909,
                "tempo": 120.0
            },
            {
                "start_time": 1.1795455,
                "end_time": 1.3681818,
                "pitch": 32,
                "velocity": 51,
                "duration": 0.1886364,
                "tempo": 120.0
            },
            {
                "start_time": 1.3863636,
                "end_time": 1.575,
                "pitch": 48,
                "velocity": 51,
                "duration": 0.1886364,
                "tempo": 120.0
            },
            {
                "start_time": 1.5909091,
                "end_time": 1.775,
                "pitch": 32,
                "velocity": 51,
                "duration": 0.1840909,
                "tempo": 120.0
            },
            {
                "start_time": 1.7931818,
                "end_time": 1.9772727,
                "pitch": 44,
                "velocity": 51,
                "duration": 0.1840909,
                "tempo": 120.0
            },
            {
                "start_time": 1.9931818,
                "end_time": 2.1772727,
                "pitch": 32,
                "velocity": 51,
                "duration": 0.1840909,
                "tempo": 120.0
            },
            {
                "start_time": 2.1931818,
                "end_time": 2.3772727,
                "pitch": 41,
                "velocity": 51,
                "duration": 0.1840909,
                "tempo": 120.0
            },
            {
                "start_time": 2.3931818,
                "end_time": 2.5772727,
                "pitch": 32,
                "velocity": 51,
                "duration": 0.1840909,
                "tempo": 120.0
            },
            {
                "start_time": 2.5931818,
                "end_time": 2.7772727,
                "pitch": 44,
                "velocity": 51,
                "duration": 0.1840909,
                "tempo": 120.0
            },
            {
                "start_time": 2.7931818,
                "end_time": 2.9727273,
                "pitch": 32,
                "velocity": 51,
                "duration": 0.1795455,
                "tempo": 120.0
            },
            {
                "start_time": 2.9909091,
                "end_time": 3.1704545,
                "pitch": 48,
                "velocity": 51,
                "duration": 0.1795455,
                "tempo": 120.0
            },
            {
                "start_time": 3.1863636,
                "end_time": 3.3704545,
                "pitch": 29,
                "velocity": 51,
                "duration": 0.1840909,
                "tempo": 120.0
            },
            {
                "start_time": 3.3863636,
                "end_time": 3.5704545,
                "pitch": 41,
                "velocity": 51,
                "duration": 0.1840909,
                "tempo": 120.0
            },
            {
                "start_time": 3.5863636,
                "end_time": 3.775,
                "pitch": 29,
                "velocity": 51,
                "duration": 0.1886364,
                "tempo": 120.0
            },
            {
                "start_time": 3.7909091,
                "end_time": 3.9795455,
                "pitch": 37,
                "velocity": 51,
                "duration": 0.1886364,
                "tempo": 120.0
            },
            {
                "start_time": 3.9977273,
                "end_time": 4.1795455,
                "pitch": 29,
                "velocity": 51,
                "duration": 0.1818182,
                "tempo": 120.0
            },
            {
                "start_time": 4.1977273,
                "end_time": 4.3795455,
                "pitch": 41,
                "velocity": 51,
                "duration": 0.1818182,
                "tempo": 120.0
            },
            {
                "start_time": 4.3977273,
                "end_time": 4.5818182,
                "pitch": 29,
                "velocity": 51,
                "duration": 0.1840909,
                "tempo": 120.0
            },
            {
                "start_time": 4.5977273,
                "end_time": 4.7840909,
                "pitch": 44,
                "velocity": 51,
                "duration": 0.1863636,
                "tempo": 120.0
            },
            {
                "start_time": 4.8,
                "end_time": 4.9840909,
                "pitch": 27,
                "velocity": 51,
                "duration": 0.1840909,
                "tempo": 120.0
            },
            {
                "start_time": 5.0,
                "end_time": 5.1840909,
                "pitch": 39,
                "velocity": 51,
                "duration": 0.1840909,
                "tempo": 120.0
            },
            {
                "start_time": 5.2,
                "end_time": 5.3840909,
                "pitch": 27,
                "velocity": 51,
                "duration": 0.1840909,
                "tempo": 120.0
            },
            {
                "start_time": 5.4,
                "end_time": 5.5863636,
                "pitch": 36,
                "velocity": 51,
                "duration": 0.1863636,
                "tempo": 120.0
            },
            {
                "start_time": 5.6022727,
                "end_time": 5.7909091,
                "pitch": 27,
                "velocity": 51,
                "duration": 0.1886364,
                "tempo": 120.0
            },
            {
                "start_time": 5.8068182,
                "end_time": 5.9954545,
                "pitch": 39,
                "velocity": 51,
                "duration": 0.1886364,
                "tempo": 120.0
            },
            {
                "start_time": 6.0136364,
                "end_time": 6.1931818,
                "pitch": 27,
                "velocity": 51,
                "duration": 0.1795455,
                "tempo": 120.0
            },
            {
                "start_time": 6.2090909,
                "end_time": 6.3886364,
                "pitch": 43,
                "velocity": 51,
                "duration": 0.1795455,
                "tempo": 120.0
            },
            {
                "start_time": 6.4045455,
                "end_time": 6.5909091,
                "pitch": 32,
                "velocity": 51,
                "duration": 0.1863636,
                "tempo": 120.0
            },
            {
                "start_time": 6.6068182,
                "end_time": 6.7909091,
                "pitch": 44,
                "velocity": 51,
                "duration": 0.1840909,
                "tempo": 120.0
            },
            {
                "start_time": 6.8090909,
                "end_time": 6.9909091,
                "pitch": 32,
                "velocity": 51,
                "duration": 0.1818182,
                "tempo": 120.0
            },
            {
                "start_time": 7.0090909,
                "end_time": 7.1909091,
                "pitch": 41,
                "velocity": 51,
                "duration": 0.1818182,
                "tempo": 120.0
            },
            {
                "start_time": 7.2068182,
                "end_time": 7.3886364,
                "pitch": 32,
                "velocity": 51,
                "duration": 0.1818182,
                "tempo": 120.0
            },
            {
                "start_time": 7.4045455,
                "end_time": 7.5840909,
                "pitch": 44,
                "velocity": 51,
                "duration": 0.1795455,
                "tempo": 120.0
            },
            {
                "start_time": 7.6,
                "end_time": 7.7840909,
                "pitch": 32,
                "velocity": 51,
                "duration": 0.1840909,
                "tempo": 120.0
            },
            {
                "start_time": 7.8,
                "end_time": 7.9840909,
                "pitch": 48,
                "velocity": 51,
                "duration": 0.1840909,
                "tempo": 120.0
            },
            {
                "start_time": 8.0,
                "end_time": 8.1886364,
                "pitch": 32,
                "velocity": 51,
                "duration": 0.1886364,
                "tempo": 120.0
            },
            {
                "start_time": 8.2045455,
                "end_time": 8.3931818,
                "pitch": 44,
                "velocity": 51,
                "duration": 0.1886364,
                "tempo": 120.0
            },
            {
                "start_time": 8.4113636,
                "end_time": 8.5954545,
                "pitch": 32,
                "velocity": 51,
                "duration": 0.1840909,
                "tempo": 120.0
            },
            {
                "start_time": 8.6136364,
                "end_time": 8.7977273,
                "pitch": 41,
                "velocity": 51,
                "duration": 0.1840909,
                "tempo": 120.0
            },
            {
                "start_time": 8.8136364,
                "end_time": 8.9977273,
                "pitch": 32,
                "velocity": 51,
                "duration": 0.1840909,
                "tempo": 120.0
            },
            {
                "start_time": 9.0159091,
                "end_time": 9.2,
                "pitch": 44,
                "velocity": 51,
                "duration": 0.1840909,
                "tempo": 120.0
            },
            {
                "start_time": 9.2159091,
                "end_time": 9.3954545,
                "pitch": 32,
                "velocity": 51,
                "duration": 0.1795455,
                "tempo": 120.0
            },
            {
                "start_time": 9.4113636,
                "end_time": 9.5931818,
                "pitch": 48,
                "velocity": 51,
                "duration": 0.1818182,
                "tempo": 120.0
            },
            {
                "start_time": 9.6090909,
                "end_time": 9.7931818,
                "pitch": 29,
                "velocity": 51,
                "duration": 0.1840909,
                "tempo": 120.0
            },
            {
                "start_time": 9.8090909,
                "end_time": 9.9954545,
                "pitch": 41,
                "velocity": 51,
                "duration": 0.1863636,
                "tempo": 120.0
            },
            {
                "start_time": 10.0113636,
                "end_time": 10.2,
                "pitch": 29,
                "velocity": 51,
                "duration": 0.1886364,
                "tempo": 120.0
            },
            {
                "start_time": 10.2159091,
                "end_time": 10.4045455,
                "pitch": 37,
                "velocity": 51,
                "duration": 0.1886364,
                "tempo": 120.0
            },
            {
                "start_time": 10.4227273,
                "end_time": 10.6068182,
                "pitch": 29,
                "velocity": 51,
                "duration": 0.1840909,
                "tempo": 120.0
            },
            {
                "start_time": 10.6227273,
                "end_time": 10.8090909,
                "pitch": 41,
                "velocity": 51,
                "duration": 0.1863636,
                "tempo": 120.0
            },
            {
                "start_time": 10.825,
                "end_time": 11.0090909,
                "pitch": 29,
                "velocity": 51,
                "duration": 0.1840909,
                "tempo": 120.0
            },
            {
                "start_time": 11.0272727,
                "end_time": 11.2113636,
                "pitch": 44,
                "velocity": 51,
                "duration": 0.1840909,
                "tempo": 120.0
            },
            {
                "start_time": 11.2272727,
                "end_time": 11.4068182,
                "pitch": 27,
                "velocity": 51,
                "duration": 0.1795455,
                "tempo": 120.0
            },
            {
                "start_time": 11.4227273,
                "end_time": 11.6022727,
                "pitch": 39,
                "velocity": 51,
                "duration": 0.1795455,
                "tempo": 120.0
            },
            {
                "start_time": 11.6204545,
                "end_time": 11.8068182,
                "pitch": 27,
                "velocity": 51,
                "duration": 0.1863636,
                "tempo": 120.0
            },
            {
                "start_time": 11.825,
                "end_time": 12.0136364,
                "pitch": 38,
                "velocity": 51,
                "duration": 0.1886364,
                "tempo": 120.0
            },
            {
                "start_time": 12.0295455,
                "end_time": 12.2159091,
                "pitch": 27,
                "velocity": 51,
                "duration": 0.1863636,
                "tempo": 120.0
            },
            {
                "start_time": 12.2318182,
                "end_time": 12.4159091,
                "pitch": 39,
                "velocity": 51,
                "duration": 0.1840909,
                "tempo": 120.0
            },
            {
                "start_time": 12.4340909,
                "end_time": 12.6181818,
                "pitch": 27,
                "velocity": 51,
                "duration": 0.1840909,
                "tempo": 120.0
            },
            {
                "start_time": 12.6340909,
                "end_time": 12.8181818,
                "pitch": 42,
                "velocity": 51,
                "duration": 0.1840909,
                "tempo": 120.0
            },
            {
                "start_time": 12.8363636,
                "end_time": 13.8090909,
                "pitch": 43,
                "velocity": 51,
                "duration": 0.9727273,
                "tempo": 120.0
            },
            {
                "start_time": 13.8272727,
                "end_time": 14.0068182,
                "pitch": 43,
                "velocity": 51,
                "duration": 0.1795455,
                "tempo": 120.0
            },
            {
                "start_time": 14.0227273,
                "end_time": 14.2113636,
                "pitch": 43,
                "velocity": 51,
                "duration": 0.1886364,
                "tempo": 120.0
            },
            {
                "start_time": 14.2272727,
                "end_time": 14.4159091,
                "pitch": 43,
                "velocity": 51,
                "duration": 0.1886364,
                "tempo": 120.0
            },
            {
                "start_time": 14.4340909,
                "end_time": 15.4204545,
                "pitch": 41,
                "velocity": 51,
                "duration": 0.9863636,
                "tempo": 120.0
            },
            {
                "start_time": 15.4386364,
                "end_time": 15.6227273,
                "pitch": 41,
                "velocity": 51,
                "duration": 0.1840909,
                "tempo": 120.0
            },
            {
                "start_time": 15.6386364,
                "end_time": 15.8227273,
                "pitch": 41,
                "velocity": 51,
                "duration": 0.1840909,
                "tempo": 120.0
            },
            {
                "start_time": 15.8409091,
                "end_time": 16.025,
                "pitch": 41,
                "velocity": 51,
                "duration": 0.1840909,
                "tempo": 120.0
            },
            {
                "start_time": 16.0409091,
                "end_time": 16.4272727,
                "pitch": 39,
                "velocity": 51,
                "duration": 0.3863636,
                "tempo": 120.0
            },
            {
                "start_time": 16.8477273,
                "end_time": 17.2295455,
                "pitch": 37,
                "velocity": 51,
                "duration": 0.3818182,
                "tempo": 120.0
            },
            {
                "start_time": 17.8454545,
                "end_time": 18.025,
                "pitch": 36,
                "velocity": 51,
                "duration": 0.1795455,
                "tempo": 120.0
            },
            {
                "start_time": 18.0409091,
                "end_time": 18.2295455,
                "pitch": 36,
                "velocity": 51,
                "duration": 0.1886364,
                "tempo": 120.0
            },
            {
                "start_time": 18.2477273,
                "end_time": 18.4363636,
                "pitch": 36,
                "velocity": 51,
                "duration": 0.1886364,
                "tempo": 120.0
            },
            {
                "start_time": 18.4522727,
                "end_time": 18.6363636,
                "pitch": 34,
                "velocity": 51,
                "duration": 0.1840909,
                "tempo": 120.0
            },
            {
                "start_time": 18.6545455,
                "end_time": 19.2386364,
                "pitch": 34,
                "velocity": 51,
                "duration": 0.5840909,
                "tempo": 120.0
            },
            {
                "start_time": 19.2545455,
                "end_time": 19.4431818,
                "pitch": 32,
                "velocity": 51,
                "duration": 0.1886364,
                "tempo": 120.0
            },
            {
                "start_time": 19.4613636,
                "end_time": 19.65,
                "pitch": 44,
                "velocity": 51,
                "duration": 0.1886364,
                "tempo": 120.0
            },
            {
                "start_time": 19.6659091,
                "end_time": 19.8454545,
                "pitch": 32,
                "velocity": 51,
                "duration": 0.1795455,
                "tempo": 120.0
            },
            {
                "start_time": 19.8613636,
                "end_time": 20.0409091,
                "pitch": 41,
                "velocity": 51,
                "duration": 0.1795455,
                "tempo": 120.0
            },
            {
                "start_time": 20.0590909,
                "end_time": 20.2409091,
                "pitch": 32,
                "velocity": 51,
                "duration": 0.1818182,
                "tempo": 120.0
            },
            {
                "start_time": 20.2590909,
                "end_time": 20.4409091,
                "pitch": 44,
                "velocity": 51,
                "duration": 0.1818182,
                "tempo": 120.0
            },
            {
                "start_time": 20.4590909,
                "end_time": 20.6454545,
                "pitch": 32,
                "velocity": 51,
                "duration": 0.1863636,
                "tempo": 120.0
            },
            {
                "start_time": 20.6636364,
                "end_time": 20.8522727,
                "pitch": 48,
                "velocity": 51,
                "duration": 0.1886364,
                "tempo": 120.0
            },
            {
                "start_time": 20.8681818,
                "end_time": 21.0545455,
                "pitch": 32,
                "velocity": 51,
                "duration": 0.1863636,
                "tempo": 120.0
            },
            {
                "start_time": 21.0704545,
                "end_time": 21.2545455,
                "pitch": 44,
                "velocity": 51,
                "duration": 0.1840909,
                "tempo": 120.0
            },
            {
                "start_time": 21.2727273,
                "end_time": 21.4545455,
                "pitch": 32,
                "velocity": 51,
                "duration": 0.1818182,
                "tempo": 120.0
            },
            {
                "start_time": 21.4727273,
                "end_time": 21.6545455,
                "pitch": 41,
                "velocity": 51,
                "duration": 0.1818182,
                "tempo": 120.0
            },
            {
                "start_time": 21.6727273,
                "end_time": 21.8568182,
                "pitch": 32,
                "velocity": 51,
                "duration": 0.1840909,
                "tempo": 120.0
            },
            {
                "start_time": 21.8727273,
                "end_time": 22.0568182,
                "pitch": 44,
                "velocity": 51,
                "duration": 0.1840909,
                "tempo": 120.0
            },
            {
                "start_time": 22.075,
                "end_time": 22.2568182,
                "pitch": 32,
                "velocity": 51,
                "duration": 0.1818182,
                "tempo": 120.0
            },
            {
                "start_time": 22.275,
                "end_time": 22.4568182,
                "pitch": 48,
                "velocity": 51,
                "duration": 0.1818182,
                "tempo": 120.0
            },
            {
                "start_time": 22.475,
                "end_time": 22.6545455,
                "pitch": 29,
                "velocity": 51,
                "duration": 0.1795455,
                "tempo": 120.0
            },
            {
                "start_time": 22.6704545,
                "end_time": 22.85,
                "pitch": 41,
                "velocity": 51,
                "duration": 0.1795455,
                "tempo": 120.0
            },
            {
                "start_time": 22.8659091,
                "end_time": 23.0545455,
                "pitch": 29,
                "velocity": 51,
                "duration": 0.1886364,
                "tempo": 120.0
            },
            {
                "start_time": 23.0727273,
                "end_time": 23.2590909,
                "pitch": 37,
                "velocity": 51,
                "duration": 0.1863636,
                "tempo": 120.0
            },
            {
                "start_time": 23.2772727,
                "end_time": 23.4613636,
                "pitch": 29,
                "velocity": 51,
                "duration": 0.1840909,
                "tempo": 120.0
            },
            {
                "start_time": 23.4772727,
                "end_time": 23.6613636,
                "pitch": 41,
                "velocity": 51,
                "duration": 0.1840909,
                "tempo": 120.0
            },
            {
                "start_time": 23.6772727,
                "end_time": 23.8613636,
                "pitch": 29,
                "velocity": 51,
                "duration": 0.1840909,
                "tempo": 120.0
            },
            {
                "start_time": 23.8795455,
                "end_time": 24.0636364,
                "pitch": 44,
                "velocity": 51,
                "duration": 0.1840909,
                "tempo": 120.0
            },
            {
                "start_time": 24.0795455,
                "end_time": 24.2636364,
                "pitch": 27,
                "velocity": 51,
                "duration": 0.1840909,
                "tempo": 120.0
            },
            {
                "start_time": 24.2795455,
                "end_time": 24.4636364,
                "pitch": 39,
                "velocity": 51,
                "duration": 0.1840909,
                "tempo": 120.0
            },
            {
                "start_time": 24.4795455,
                "end_time": 24.6636364,
                "pitch": 27,
                "velocity": 51,
                "duration": 0.1840909,
                "tempo": 120.0
            },
            {
                "start_time": 24.6795455,
                "end_time": 24.8636364,
                "pitch": 38,
                "velocity": 51,
                "duration": 0.1840909,
                "tempo": 120.0
            },
            {
                "start_time": 24.8795455,
                "end_time": 25.0681818,
                "pitch": 27,
                "velocity": 51,
                "duration": 0.1886364,
                "tempo": 120.0
            },
            {
                "start_time": 25.0840909,
                "end_time": 25.2727273,
                "pitch": 39,
                "velocity": 51,
                "duration": 0.1886364,
                "tempo": 120.0
            },
            {
                "start_time": 25.2909091,
                "end_time": 25.4704545,
                "pitch": 27,
                "velocity": 51,
                "duration": 0.1795455,
                "tempo": 120.0
            },
            {
                "start_time": 25.4863636,
                "end_time": 25.6659091,
                "pitch": 42,
                "velocity": 51,
                "duration": 0.1795455,
                "tempo": 120.0
            },
            {
                "start_time": 25.6818182,
                "end_time": 25.8681818,
                "pitch": 32,
                "velocity": 51,
                "duration": 0.1863636,
                "tempo": 120.0
            },
            {
                "start_time": 25.8840909,
                "end_time": 26.0681818,
                "pitch": 44,
                "velocity": 51,
                "duration": 0.1840909,
                "tempo": 120.0
            },
            {
                "start_time": 26.0863636,
                "end_time": 26.2681818,
                "pitch": 32,
                "velocity": 51,
                "duration": 0.1818182,
                "tempo": 120.0
            },
            {
                "start_time": 26.2863636,
                "end_time": 26.4681818,
                "pitch": 41,
                "velocity": 51,
                "duration": 0.1818182,
                "tempo": 120.0
            },
            {
                "start_time": 26.4863636,
                "end_time": 26.6659091,
                "pitch": 32,
                "velocity": 51,
                "duration": 0.1795455,
                "tempo": 120.0
            },
            {
                "start_time": 26.6818182,
                "end_time": 26.8613636,
                "pitch": 44,
                "velocity": 51,
                "duration": 0.1795455,
                "tempo": 120.0
            },
            {
                "start_time": 26.8772727,
                "end_time": 27.0659091,
                "pitch": 32,
                "velocity": 51,
                "duration": 0.1886364,
                "tempo": 120.0
            },
            {
                "start_time": 27.0818182,
                "end_time": 27.2704545,
                "pitch": 48,
                "velocity": 51,
                "duration": 0.1886364,
                "tempo": 120.0
            },
            {
                "start_time": 27.2886364,
                "end_time": 27.4681818,
                "pitch": 37,
                "velocity": 51,
                "duration": 0.1795455,
                "tempo": 120.0
            },
            {
                "start_time": 27.4840909,
                "end_time": 27.6636364,
                "pitch": 49,
                "velocity": 51,
                "duration": 0.1795455,
                "tempo": 120.0
            },
            {
                "start_time": 27.6795455,
                "end_time": 27.8636364,
                "pitch": 37,
                "velocity": 51,
                "duration": 0.1840909,
                "tempo": 120.0
            },
            {
                "start_time": 27.8795455,
                "end_time": 28.0636364,
                "pitch": 46,
                "velocity": 51,
                "duration": 0.1840909,
                "tempo": 120.0
            },
            {
                "start_time": 28.0795455,
                "end_time": 28.2727273,
                "pitch": 37,
                "velocity": 51,
                "duration": 0.1931818,
                "tempo": 120.0
            },
            {
                "start_time": 28.2909091,
                "end_time": 28.4840909,
                "pitch": 49,
                "velocity": 51,
                "duration": 0.1931818,
                "tempo": 120.0
            },
            {
                "start_time": 28.5022727,
                "end_time": 28.6818182,
                "pitch": 37,
                "velocity": 51,
                "duration": 0.1795455,
                "tempo": 120.0
            },
            {
                "start_time": 28.6977273,
                "end_time": 28.8772727,
                "pitch": 53,
                "velocity": 51,
                "duration": 0.1795455,
                "tempo": 120.0
            },
            {
                "start_time": 28.8954545,
                "end_time": 29.075,
                "pitch": 32,
                "velocity": 51,
                "duration": 0.1795455,
                "tempo": 120.0
            },
            {
                "start_time": 29.0909091,
                "end_time": 29.2704545,
                "pitch": 44,
                "velocity": 51,
                "duration": 0.1795455,
                "tempo": 120.0
            },
            {
                "start_time": 29.2863636,
                "end_time": 29.475,
                "pitch": 32,
                "velocity": 51,
                "duration": 0.1886364,
                "tempo": 120.0
            },
            {
                "start_time": 29.4931818,
                "end_time": 29.6795455,
                "pitch": 41,
                "velocity": 51,
                "duration": 0.1863636,
                "tempo": 120.0
            },
            {
                "start_time": 29.6977273,
                "end_time": 29.8772727,
                "pitch": 32,
                "velocity": 51,
                "duration": 0.1795455,
                "tempo": 120.0
            },
            {
                "start_time": 29.8931818,
                "end_time": 30.0727273,
                "pitch": 44,
                "velocity": 51,
                "duration": 0.1795455,
                "tempo": 120.0
            },
            {
                "start_time": 30.0886364,
                "end_time": 30.2727273,
                "pitch": 32,
                "velocity": 51,
                "duration": 0.1840909,
                "tempo": 120.0
            },
            {
                "start_time": 30.2886364,
                "end_time": 30.4727273,
                "pitch": 48,
                "velocity": 51,
                "duration": 0.1840909,
                "tempo": 120.0
            },
            {
                "start_time": 30.4886364,
                "end_time": 30.875,
                "pitch": 44,
                "velocity": 51,
                "duration": 0.3863636,
                "tempo": 120.0
            },
            {
                "start_time": 31.2931818,
                "end_time": 31.6863636,
                "pitch": 32,
                "velocity": 51,
                "duration": 0.3931818,
                "tempo": 120.0
            },
            {
                "start_time": 32.0954545,
                "end_time": 32.1613636,
                "pitch": 32,
                "velocity": 51,
                "duration": 0.0659091,
                "tempo": 120.0
            }
        ]
    }
}