{
    "mood": "happy",
    "instruments": {
        "Trumpet": [
            {
                "start_time": 29.6159091,
                "end_time": 30.0590909,
                "pitch": 74,
                "velocity": 40,
                "duration": 0.4431818,
                "tempo": 120.0
            },
            {
                "start_time": 30.075,
                "end_time": 30.5113636,
                "pitch": 75,
                "velocity": 40,
                "duration": 0.4363636,
                "tempo": 120.0
            },
            {
                "start_time": 30.5272727,
                "end_time": 30.8545455,
                "pitch": 77,
                "velocity": 40,
                "duration": 0.3272727,
                "tempo": 120.0
            },
            {
                "start_time": 30.8704545,
                "end_time": 30.9522727,
                "pitch": 79,
                "velocity": 40,
                "duration": 0.0818182,
                "tempo": 120.0
            },
            {
                "start_time": 31.0863636,
                "end_time": 31.1863636,
                "pitch": 79,
                "velocity": 40,
                "duration": 0.1,
                "tempo": 120.0
            },
            {
                "start_time": 31.2022727,
                "end_time": 31.3022727,
                "pitch": 79,
                "velocity": 40,
                "duration": 0.1,
                "tempo": 120.0
            },
            {
                "start_time": 31.4363636,
                "end_time": 31.5340909,
                "pitch": 79,
                "velocity": 40,
                "duration": 0.0977273,
                "tempo": 120.0
            },
            {
                "start_time": 31.6659091,
                "end_time": 31.7477273,
                "pitch": 77,
                "velocity": 40,
                "duration": 0.0818182,
                "tempo": 120.0
            },
            {
                "start_time": 31.8772727,
                "end_time": 32.2045455,
                "pitch": 79,
                "velocity": 40,
                "duration": 0.3272727,
                "tempo": 120.0
            },
            {
                "start_time": 32.2227273,
                "end_time": 32.3204545,
                "pitch": 79,
                "velocity": 40,
                "duration": 0.0977273,
                "tempo": 120.0
            },
            {
                "start_time": 32.8090909,
                "end_time": 33.2409091,
                "pitch": 72,
                "velocity": 40,
                "duration": 0.4318182,
                "tempo": 120.0
            },
            {
                "start_time": 33.2568182,
                "end_time": 33.7,
                "pitch": 74,
                "velocity": 40,
                "duration": 0.4431818,
                "tempo": 120.0
            },
            {
                "start_time": 33.7181818,
                "end_time": 34.1431818,
                "pitch": 75,
                "velocity": 40,
                "duration": 0.425,
                "tempo": 120.0
            },
            {
                "start_time": 34.1772727,
                "end_time": 34.5022727,
                "pitch": 77,
                "velocity": 40,
                "duration": 0.325,
                "tempo": 120.0
            },
            {
                "start_time": 34.5181818,
                "end_time": 34.6204545,
                "pitch": 79,
                "velocity": 40,
                "duration": 0.1022727,
                "tempo": 120.0
            },
            {
                "start_time": 34.7522727,
                "end_time": 34.8522727,
                "pitch": 79,
                "velocity": 40,
                "duration": 0.1,
                "tempo": 120.0
            },
            {
                "start_time": 34.8681818,
                "end_time": 34.95,
                "pitch": 79,
                "velocity": 40,
                "duration": 0.0818182,
                "tempo": 120.0
            },
            {
                "start_time": 35.0795455,
                "end_time": 35.1772727,
                "pitch": 79,
                "velocity": 40,
                "duration": 0.0977273,
                "tempo": 120.0
            },
            {
                "start_time": 35.3045455,
                "end_time": 35.4,
                "pitch": 77,
                "velocity": 40,
                "duration": 0.0954545,
                "tempo": 120.0
            },
            {
                "start_time": 35.5272727,
                "end_time": 35.8522727,
                "pitch": 79,
                "velocity": 40,
                "duration": 0.325,
                "tempo": 120.0
            },
            {
                "start_time": 35.8704545,
                "end_time": 35.9727273,
                "pitch": 79,
                "velocity": 40,
                "duration": 0.1022727,
                "tempo": 120.0
            },
            {
                "start_time": 40.2272727,
                "end_time": 40.325,
                "pitch": 84,
                "velocity": 51,
                "duration": 0.0977273,
                "tempo": 120.0
            },
            {
                "start_time": 40.3431818,
                "end_time": 40.4409091,
                "pitch": 82,
                "velocity": 51,
                "duration": 0.0977273,
                "tempo": 120.0
            },
            {
                "start_time": 40.4568182,
                "end_time": 40.5545455,
                "pitch": 79,
                "velocity": 51,
                "duration": 0.0977273,
                "tempo": 120.0
            },
            {
                "start_time": 40.5727273,
                "end_time": 40.6772727,
                "pitch": 77,
                "velocity": 51,
                "duration": 0.1045455,
                "tempo": 120.0
            },
            {
                "start_time": 40.6954545,
                "end_time": 40.7818182,
                "pitch": 75,
                "velocity": 51,
                "duration": 0.0863636,
                "tempo": 120.0
            },
            {
                "start_time": 40.8159091,
                "end_time": 40.9022727,
                "pitch": 72,
                "velocity": 51,
                "duration": 0.0863636,
                "tempo": 120.0
            },
            {
                "start_time": 40.9204545,
                "end_time": 41.025,
                "pitch": 70,
                "velocity": 51,
                "duration": 0.1045455,
                "tempo": 120.0
            },
            {
                "start_time": 41.0409091,
                "end_time": 41.1386364,
                "pitch": 69,
                "velocity": 51,
                "duration": 0.0977273,
                "tempo": 120.0
            },
            {
                "start_time": 41.1545455,
                "end_time": 41.2545455,
                "pitch": 68,
                "velocity": 51,
                "duration": 0.1,
                "tempo": 120.0
            },
            {
                "start_time": 41.2704545,
                "end_time": 41.3681818,
                "pitch": 67,
                "velocity": 51,
                "duration": 0.0977273,
                "tempo": 120.0
            },
            {
                "start_time": 41.3840909,
                "end_time": 41.4818182,
                "pitch": 66,
                "velocity": 51,
                "duration": 0.0977273,
                "tempo": 120.0
            },
            {
                "start_time": 41.4977273,
                "end_time": 41.5795455,
                "pitch": 63,
                "velocity": 51,
                "duration": 0.0818182,
                "tempo": 120.0
            },
            {
                "start_time": 41.6136364,
                "end_time": 41.8909091,
                "pitch": 64,
                "velocity": 51,
                "duration": 0.2772727,
                "tempo": 120.0
            }
        ],
        "Lead 2 (sawtooth)": [
            {
                "start_time": 0.6681818,
                "end_time": 0.7454545,
                "pitch": 48,
                "velocity": 51,
                "duration": 0.0772727,
                "tempo": 120.0
            },
            {
                "start_time": 0.7613636,
                "end_time": 0.8568182,
                "pitch": 48,
                "velocity": 51,
                "duration": 0.0954545,
                "tempo": 120.0
            },
            {
                "start_time": 0.8704545,
                "end_time": 0.9704545,
                "pitch": 51,
                "velocity": 51,
                "duration": 0.1,
                "tempo": 120.0
            },
            {
                "start_time": 0.9886364,
                "end_time": 1.0886364,
                "pitch": 53,
                "velocity": 51,
                "duration": 0.1,
                "tempo": 120.0
            },
            {
                "start_time": 1.1045455,
                "end_time": 1.2045455,
                "pitch": 51,
                "velocity": 51,
                "duration": 0.1,
                "tempo": 120.0
            },
            {
                "start_time": 1.3386364,
                "end_time": 1.6568182,
                "pitch": 77,
                "velocity": 51,
                "duration": 0.3181818,
                "tempo": 120.0
            },
            {
                "start_time": 1.6727273,
                "end_time": 1.775,
                "pitch": 77,
                "velocity": 51,
                "duration": 0.1022727,
                "tempo": 120.0
            },
            {
                "start_time": 2.3590909,
                "end_time": 2.4590909,
                "pitch": 56,
                "velocity": 51,
                "duration": 0.1,
                "tempo": 120.0
            },
            {
                "start_time": 2.4772727,
                "end_time": 2.5772727,
                "pitch": 58,
                "velocity": 51,
                "duration": 0.1,
                "tempo": 120.0
            },
            {
                "start_time": 2.5931818,
                "end_time": 2.6931818,
                "pitch": 56,
                "velocity": 51,
                "duration": 0.1,
                "tempo": 120.0
            },
            {
                "start_time": 2.7113636,
                "end_time": 2.8090909,
                "pitch": 60,
                "velocity": 51,
                "duration": 0.0977273,
                "tempo": 120.0
            },
            {
                "start_time": 2.825,
                "end_time": 2.9227273,
                "pitch": 58,
                "velocity": 51,
                "duration": 0.0977273,
                "tempo": 120.0
            },
            {
                "start_time": 2.9386364,
                "end_time": 3.0204545,
                "pitch": 56,
                "velocity": 51,
                "duration": 0.0818182,
                "tempo": 120.0
            },
            {
                "start_time": 3.0545455,
                "end_time": 3.1363636,
                "pitch": 53,
                "velocity": 51,
                "duration": 0.0818182,
                "tempo": 120.0
            },
            {
                "start_time": 3.1522727,
                "end_time": 3.25,
                "pitch": 55,
                "velocity": 51,
                "duration": 0.0977273,
                "tempo": 120.0
            },
            {
                "start_time": 3.2659091,
                "end_time": 3.5931818,
                "pitch": 51,
                "velocity": 51,
                "duration": 0.3272727,
                "tempo": 120.0
            },
            {
                "start_time": 4.3022727,
                "end_time": 4.4,
                "pitch": 48,
                "velocity": 51,
                "duration": 0.0977273,
                "tempo": 120.0
            },
            {
                "start_time": 4.4159091,
                "end_time": 4.5136364,
                "pitch": 48,
                "velocity": 51,
                "duration": 0.0977273,
                "tempo": 120.0
            },
            {
                "start_time": 4.5295455,
                "end_time": 4.6136364,
                "pitch": 51,
                "velocity": 51,
                "duration": 0.0840909,
                "tempo": 120.0
            },
            {
                "start_time": 4.6477273,
                "end_time": 4.7318182,
                "pitch": 53,
                "velocity": 51,
                "duration": 0.0840909,
                "tempo": 120.0
            },
            {
                "start_time": 4.7477273,
                "end_time": 4.8477273,
                "pitch": 51,
                "velocity": 51,
                "duration": 0.1,
                "tempo": 120.0
            },
            {
                "start_time": 4.9818182,
                "end_time": 5.3090909,
                "pitch": 77,
                "velocity": 51,
                "duration": 0.3272727,
                "tempo": 120.0
            },
            {
                "start_time": 5.325,
                "end_time": 5.4068182,
                "pitch": 77,
                "velocity": 51,
                "duration": 0.0818182,
                "tempo": 120.0
            },
            {
                "start_time": 6.025,
                "end_time": 6.1204545,
                "pitch": 56,
                "velocity": 51,
                "duration": 0.0954545,
                "tempo": 120.0
            },
            {
                "start_time": 6.1363636,
                "end_time": 6.2159091,
                "pitch": 58,
                "velocity": 51,
                "duration": 0.0795455,
                "tempo": 120.0
            },
            {
                "start_time": 6.2477273,
                "end_time": 6.3272727,
                "pitch": 56,
                "velocity": 51,
                "duration": 0.0795455,
                "tempo": 120.0
            },
            {
                "start_time": 6.3431818,
                "end_time": 6.4431818,
                "pitch": 60,
                "velocity": 51,
                "duration": 0.1,
                "tempo": 120.0
            },
            {
                "start_time": 6.4590909,
                "end_time": 6.5568182,
                "pitch": 58,
                "velocity": 51,
                "duration": 0.0977273,
                "tempo": 120.0
            },
            {
                "start_time": 6.5727273,
                "end_time": 6.6704545,
                "pitch": 56,
                "velocity": 51,
                "duration": 0.0977273,
                "tempo": 120.0
            },
            {
                "start_time": 6.6886364,
                "end_time": 6.7863636,
                "pitch": 53,
                "velocity": 51,
                "duration": 0.0977273,
                "tempo": 120.0
            },
            {
                "start_time": 6.8022727,
                "end_time": 6.9022727,
                "pitch": 55,
                "velocity": 51,
                "duration": 0.1,
                "tempo": 120.0
            },
            {
                "start_time": 6.9181818,
                "end_time": 7.2363636,
                "pitch": 51,
                "velocity": 51,
                "duration": 0.3181818,
                "tempo": 120.0
            },
            {
                "start_time": 7.9386364,
                "end_time": 8.0409091,
                "pitch": 48,
                "velocity": 51,
                "duration": 0.1022727,
                "tempo": 120.0
            },
            {
                "start_time": 8.0568182,
                "end_time": 8.1568182,
                "pitch": 48,
                "velocity": 51,
                "duration": 0.1,
                "tempo": 120.0
            },
            {
                "start_time": 8.1727273,
                "end_time": 8.2727273,
                "pitch": 51,
                "velocity": 51,
                "duration": 0.1,
                "tempo": 120.0
            },
            {
                "start_time": 8.2886364,
                "end_time": 8.3863636,
                "pitch": 53,
                "velocity": 51,
                "duration": 0.0977273,
                "tempo": 120.0
            },
            {
                "start_time": 8.4022727,
                "end_time": 8.5,
                "pitch": 51,
                "velocity": 51,
                "duration": 0.0977273,
                "tempo": 120.0
            },
            {
                "start_time": 8.6318182,
                "end_time": 8.9568182,
                "pitch": 77,
                "velocity": 51,
                "duration": 0.325,
                "tempo": 120.0
            },
            {
                "start_time": 8.9727273,
                "end_time": 9.0772727,
                "pitch": 77,
                "velocity": 51,
                "duration": 0.1045455,
                "tempo": 120.0
            },
            {
                "start_time": 9.6568182,
                "end_time": 9.7545455,
                "pitch": 56,
                "velocity": 51,
                "duration": 0.0977273,
                "tempo": 120.0
            },
            {
                "start_time": 9.7704545,
                "end_time": 9.8659091,
                "pitch": 58,
                "velocity": 51,
                "duration": 0.0954545,
                "tempo": 120.0
            },
            {
                "start_time": 9.8818182,
                "end_time": 9.9772727,
                "pitch": 56,
                "velocity": 51,
                "duration": 0.0954545,
                "tempo": 120.0
            },
            {
                "start_time": 9.9931818,
                "end_time": 10.0931818,
                "pitch": 60,
                "velocity": 51,
                "duration": 0.1,
                "tempo": 120.0
            },
            {
                "start_time": 10.1113636,
                "end_time": 10.1931818,
                "pitch": 58,
                "velocity": 51,
                "duration": 0.0818182,
                "tempo": 120.0
            },
            {
                "start_time": 10.2272727,
                "end_time": 10.3113636,
                "pitch": 56,
                "velocity": 51,
                "duration": 0.0840909,
                "tempo": 120.0
            },
            {
                "start_time": 10.3272727,
                "end_time": 10.4295455,
                "pitch": 53,
                "velocity": 51,
                "duration": 0.1022727,
                "tempo": 120.0
            },
            {
                "start_time": 10.4454545,
                "end_time": 10.5431818,
                "pitch": 55,
                "velocity": 51,
                "duration": 0.0977273,
                "tempo": 120.0
            },
            {
                "start_time": 10.5590909,
                "end_time": 10.8863636,
                "pitch": 51,
                "velocity": 51,
                "duration": 0.3272727,
                "tempo": 120.0
            },
            {
                "start_time": 11.6,
                "end_time": 11.6954545,
                "pitch": 48,
                "velocity": 51,
                "duration": 0.0954545,
                "tempo": 120.0
            },
            {
                "start_time": 11.7113636,
                "end_time": 11.7909091,
                "pitch": 48,
                "velocity": 51,
                "duration": 0.0795455,
                "tempo": 120.0
            },
            {
                "start_time": 11.8227273,
                "end_time": 11.9090909,
                "pitch": 51,
                "velocity": 51,
                "duration": 0.0863636,
                "tempo": 120.0
            },
            {
                "start_time": 11.925,
                "end_time": 12.0295455,
                "pitch": 53,
                "velocity": 51,
                "duration": 0.1045455,
                "tempo": 120.0
            },
            {
                "start_time": 12.0454545,
                "end_time": 12.1477273,
                "pitch": 51,
                "velocity": 51,
                "duration": 0.1022727,
                "tempo": 120.0
            },
            {
                "start_time": 12.2863636,
                "end_time": 12.5954545,
                "pitch": 77,
                "velocity": 51,
                "duration": 0.3090909,
                "tempo": 120.0
            },
            {
                "start_time": 12.6295455,
                "end_time": 12.7113636,
                "pitch": 77,
                "velocity": 51,
                "duration": 0.0818182,
                "tempo": 120.0
            },
            {
                "start_time": 13.3113636,
                "end_time": 13.3954545,
                "pitch": 56,
                "velocity": 51,
                "duration": 0.0840909,
                "tempo": 120.0
            },
            {
                "start_time": 13.4295455,
                "end_time": 13.5136364,
                "pitch": 58,
                "velocity": 51,
                "duration": 0.0840909,
                "tempo": 120.0
            },
            {
                "start_time": 13.5295455,
                "end_time": 13.6295455,
                "pitch": 56,
                "velocity": 51,
                "duration": 0.1,
                "tempo": 120.0
            },
            {
                "start_time": 13.6477273,
                "end_time": 13.7431818,
                "pitch": 60,
                "velocity": 51,
                "duration": 0.0954545,
                "tempo": 120.0
            },
            {
                "start_time": 13.7590909,
                "end_time": 13.8545455,
                "pitch": 58,
                "velocity": 51,
                "duration": 0.0954545,
                "tempo": 120.0
            },
            {
                "start_time": 13.8704545,
                "end_time": 13.9659091,
                "pitch": 56,
                "velocity": 51,
                "duration": 0.0954545,
                "tempo": 120.0
            },
            {
                "start_time": 13.9818182,
                "end_time": 14.0795455,
                "pitch": 53,
                "velocity": 51,
                "duration": 0.0977273,
                "tempo": 120.0
            },
            {
                "start_time": 14.0954545,
                "end_time": 14.1795455,
                "pitch": 55,
                "velocity": 51,
                "duration": 0.0840909,
                "tempo": 120.0
            },
            {
                "start_time": 14.2136364,
                "end_time": 14.5386364,
                "pitch": 51,
                "velocity": 51,
                "duration": 0.325,
                "tempo": 120.0
            }
        ],
        "Electric Guitar (clean)": [
            {
                "start_time": 0.0136364,
                "end_time": 0.3159091,
                "pitch": 41,
                "velocity": 64,
                "duration": 0.3022727,
                "tempo": 120.0
            },
            {
                "start_time": 0.3318182,
                "end_time": 0.4318182,
                "pitch": 41,
                "velocity": 64,
                "duration": 0.1,
                "tempo": 120.0
            },
            {
                "start_time": 1.6727273,
                "end_time": 1.775,
                "pitch": 39,
                "velocity": 64,
                "duration": 0.1022727,
                "tempo": 120.0
            },
            {
                "start_time": 1.7909091,
                "end_time": 2.125,
                "pitch": 41,
                "velocity": 64,
                "duration": 0.3340909,
                "tempo": 120.0
            },
            {
                "start_time": 2.1409091,
                "end_time": 2.225,
                "pitch": 41,
                "velocity": 64,
                "duration": 0.0840909,
                "tempo": 120.0
            },
            {
                "start_time": 3.6090909,
                "end_time": 3.9340909,
                "pitch": 41,
                "velocity": 64,
                "duration": 0.325,
                "tempo": 120.0
            },
            {
                "start_time": 3.9522727,
                "end_time": 4.0545455,
                "pitch": 41,
                "velocity": 64,
                "duration": 0.1022727,
                "tempo": 120.0
            },
            {
                "start_time": 5.325,
                "end_time": 5.4068182,
                "pitch": 39,
                "velocity": 64,
                "duration": 0.0818182,
                "tempo": 120.0
            },
            {
                "start_time": 5.4386364,
                "end_time": 5.7727273,
                "pitch": 41,
                "velocity": 64,
                "duration": 0.3340909,
                "tempo": 120.0
            },
            {
                "start_time": 5.7886364,
                "end_time": 5.8954545,
                "pitch": 41,
                "velocity": 64,
                "duration": 0.1068182,
                "tempo": 120.0
            },
            {
                "start_time": 7.2545455,
                "end_time": 7.5886364,
                "pitch": 41,
                "velocity": 64,
                "duration": 0.3340909,
                "tempo": 120.0
            },
            {
                "start_time": 7.6045455,
                "end_time": 7.7045455,
                "pitch": 41,
                "velocity": 64,
                "duration": 0.1,
                "tempo": 120.0
            },
            {
                "start_time": 8.9727273,
                "end_time": 9.0772727,
                "pitch": 39,
                "velocity": 64,
                "duration": 0.1045455,
                "tempo": 120.0
            },
            {
                "start_time": 9.0931818,
                "end_time": 9.4113636,
                "pitch": 41,
                "velocity": 64,
                "duration": 0.3181818,
                "tempo": 120.0
            },
            {
                "start_time": 9.4454545,
                "end_time": 9.5295455,
                "pitch": 41,
                "velocity": 64,
                "duration": 0.0840909,
                "tempo": 120.0
            },
            {
                "start_time": 10.9022727,
                "end_time": 11.2340909,
                "pitch": 41,
                "velocity": 64,
                "duration": 0.3318182,
                "tempo": 120.0
            },
            {
                "start_time": 11.2522727,
                "end_time": 11.3590909,
                "pitch": 41,
                "velocity": 64,
                "duration": 0.1068182,
                "tempo": 120.0
            },
            {
                "start_time": 12.6295455,
                "end_time": 12.7113636,
                "pitch": 39,
                "velocity": 64,
                "duration": 0.0818182,
                "tempo": 120.0
            },
            {
                "start_time": 12.7272727,
                "end_time": 13.0613636,
                "pitch": 41,
                "velocity": 64,
                "duration": 0.3340909,
                "tempo": 120.0
            },
            {
                "start_time": 13.0772727,
                "end_time": 13.1772727,
                "pitch": 41,
                "velocity": 64,
                "duration": 0.1,
                "tempo": 120.0
            },
            {
                "start_time": 14.5568182,
                "end_time": 14.8909091,
                "pitch": 41,
                "velocity": 64,
                "duration": 0.3340909,
                "tempo": 120.0
            },
            {
                "start_time": 14.9090909,
                "end_time": 14.9909091,
                "pitch": 41,
                "velocity": 64,
                "duration": 0.0818182,
                "tempo": 120.0
            },
            {
                "start_time": 16.2590909,
                "end_time": 16.3590909,
                "pitch": 39,
                "velocity": 64,
                "duration": 0.1,
                "tempo": 120.0
            },
            {
                "start_time": 16.3772727,
                "end_time": 16.7022727,
                "pitch": 41,
                "velocity": 64,
                "duration": 0.325,
                "tempo": 120.0
            },
            {
                "start_time": 16.7181818,
                "end_time": 16.8204545,
                "pitch": 41,
                "velocity": 64,
                "duration": 0.1022727,
                "tempo": 120.0
            },
            {
                "start_time": 18.2068182,
                "end_time": 18.5386364,
                "pitch": 41,
                "velocity": 64,
                "duration": 0.3318182,
                "tempo": 120.0
            },
            {
                "start_time": 18.5568182,
                "end_time": 18.6613636,
                "pitch": 41,
                "velocity": 64,
                "duration": 0.1045455,
                "tempo": 120.0
            },
            {
                "start_time": 19.9,
                "end_time": 20.0045455,
                "pitch": 39,
                "velocity": 64,
                "duration": 0.1045455,
                "tempo": 120.0
            },
            {
                "start_time": 20.0204545,
                "end_time": 20.3636364,
                "pitch": 41,
                "velocity": 64,
                "duration": 0.3431818,
                "tempo": 120.0
            },
            {
                "start_time": 20.3795455,
                "end_time": 20.4840909,
                "pitch": 41,
                "velocity": 64,
                "duration": 0.1045455,
                "tempo": 120.0
            },
            {
                "start_time": 21.8613636,
                "end_time": 22.1795455,
                "pitch": 41,
                "velocity": 64,
                "duration": 0.3181818,
                "tempo": 120.0
            },
            {
                "start_time": 22.2136364,
                "end_time": 22.2977273,
                "pitch": 41,
                "velocity": 64,
                "duration": 0.0840909,
                "tempo": 120.0
            },
            {
                "start_time": 23.5568182,
                "end_time": 23.6545455,
                "pitch": 39,
                "velocity": 64,
                "duration": 0.0977273,
                "tempo": 120.0
            },
            {
                "start_time": 23.6704545,
                "end_time": 24.0045455,
                "pitch": 41,
                "velocity": 64,
                "duration": 0.3340909,
                "tempo": 120.0
            },
            {
                "start_time": 24.0204545,
                "end_time": 24.1272727,
                "pitch": 41,
                "velocity": 64,
                "duration": 0.1068182,
                "tempo": 120.0
            },
            {
                "start_time": 25.4954545,
                "end_time": 25.8295455,
                "pitch": 41,
                "velocity": 64,
                "duration": 0.3340909,
                "tempo": 120.0
            },
            {
                "start_time": 25.8454545,
                "end_time": 25.9477273,
                "pitch": 41,
                "velocity": 64,
                "duration": 0.1022727,
                "tempo": 120.0
            },
            {
                "start_time": 27.2045455,
                "end_time": 27.3068182,
                "pitch": 39,
                "velocity": 64,
                "duration": 0.1022727,
                "tempo": 120.0
            },
            {
                "start_time": 27.325,
                "end_time": 27.6590909,
                "pitch": 41,
                "velocity": 64,
                "duration": 0.3340909,
                "tempo": 120.0
            },
            {
                "start_time": 27.6772727,
                "end_time": 27.7590909,
                "pitch": 41,
                "velocity": 64,
                "duration": 0.0818182,
                "tempo": 120.0
            },
            {
                "start_time": 29.1454545,
                "end_time": 29.6,
                "pitch": 41,
                "velocity": 64,
                "duration": 0.4545455,
                "tempo": 120.0
            },
            {
                "start_time": 29.6159091,
                "end_time": 30.0590909,
                "pitch": 43,
                "velocity": 64,
                "duration": 0.4431818,
                "tempo": 120.0
            },
            {
                "start_time": 30.075,
                "end_time": 30.5113636,
                "pitch": 44,
                "velocity": 64,
                "duration": 0.4363636,
                "tempo": 120.0
            },
            {
                "start_time": 30.5272727,
                "end_time": 30.8545455,
                "pitch": 46,
                "velocity": 64,
                "duration": 0.3272727,
                "tempo": 120.0
            },
            {
                "start_time": 30.8704545,
                "end_time": 30.9522727,
                "pitch": 48,
                "velocity": 64,
                "duration": 0.0818182,
                "tempo": 120.0
            },
            {
                "start_time": 31.0863636,
                "end_time": 31.1863636,
                "pitch": 48,
                "velocity": 64,
                "duration": 0.1,
                "tempo": 120.0
            },
            {
                "start_time": 31.2022727,
                "end_time": 31.3022727,
                "pitch": 48,
                "velocity": 64,
                "duration": 0.1,
                "tempo": 120.0
            },
            {
                "start_time": 31.4363636,
                "end_time": 31.5340909,
                "pitch": 48,
                "velocity": 64,
                "duration": 0.0977273,
                "tempo": 120.0
            },
            {
                "start_time": 31.6659091,
                "end_time": 31.7477273,
                "pitch": 46,
                "velocity": 64,
                "duration": 0.0818182,
                "tempo": 120.0
            },
            {
                "start_time": 31.8772727,
                "end_time": 32.2045455,
                "pitch": 48,
                "velocity": 64,
                "duration": 0.3272727,
                "tempo": 120.0
            },
            {
                "start_time": 32.2227273,
                "end_time": 32.3204545,
                "pitch": 48,
                "velocity": 64,
                "duration": 0.0977273,
                "tempo": 120.0
            },
            {
                "start_time": 32.8090909,
                "end_time": 33.2409091,
                "pitch": 41,
                "velocity": 64,
                "duration": 0.4318182,
                "tempo": 120.0
            },
            {
                "start_time": 33.2568182,
                "end_time": 33.7,
                "pitch": 43,
                "velocity": 64,
                "duration": 0.4431818,
                "tempo": 120.0
            },
            {
                "start_time": 33.7181818,
                "end_time": 34.1431818,
                "pitch": 44,
                "velocity": 64,
                "duration": 0.425,
                "tempo": 120.0
            },
            {
                "start_time": 34.1772727,
                "end_time": 34.5022727,
                "pitch": 46,
                "velocity": 64,
                "duration": 0.325,
                "tempo": 120.0
            },
            {
                "start_time": 34.5181818,
                "end_time": 34.6204545,
                "pitch": 48,
                "velocity": 64,
                "duration": 0.1022727,
                "tempo": 120.0
            },
            {
                "start_time": 34.7522727,
                "end_time": 34.8522727,
                "pitch": 48,
                "velocity": 64,
                "duration": 0.1,
                "tempo": 120.0
            },
            {
                "start_time": 34.8681818,
                "end_time": 34.95,
                "pitch": 48,
                "velocity": 64,
                "duration": 0.0818182,
                "tempo": 120.0
            },
            {
                "start_time": 35.0795455,
                "end_time": 35.1772727,
                "pitch": 48,
                "velocity": 64,
                "duration": 0.0977273,
                "tempo": 120.0
            },
            {
                "start_time": 35.3045455,
                "end_time": 35.4,
                "pitch": 46,
                "velocity": 64,
                "duration": 0.0954545,
                "tempo": 120.0
            },
            {
                "start_time": 35.5272727,
                "end_time": 35.8522727,
                "pitch": 48,
                "velocity": 64,
                "duration": 0.325,
                "tempo": 120.0
            },
            {
                "start_time": 35.8704545,
                "end_time": 35.9727273,
                "pitch": 48,
                "velocity": 64,
                "duration": 0.1022727,
                "tempo": 120.0
            },
            {
                "start_time": 36.4590909,
                "end_time": 36.8931818,
                "pitch": 41,
                "velocity": 64,
                "duration": 0.4340909,
                "tempo": 120.0
            },
            {
                "start_time": 36.9113636,
                "end_time": 37.3272727,
                "pitch": 43,
                "velocity": 64,
                "duration": 0.4159091,
                "tempo": 120.0
            },
            {
                "start_time": 37.3590909,
                "end_time": 37.7931818,
                "pitch": 44,
                "velocity": 64,
                "duration": 0.4340909,
                "tempo": 120.0
            },
            {
                "start_time": 37.8090909,
                "end_time": 38.1204545,
                "pitch": 46,
                "velocity": 64,
                "duration": 0.3113636,
                "tempo": 120.0
            },
            {
                "start_time": 38.1522727,
                "end_time": 40.0636364,
                "pitch": 48,
                "velocity": 64,
                "duration": 1.9113636,
                "tempo": 120.0
            },
            {
                "start_time": 40.1954545,
                "end_time": 40.2931818,
                "pitch": 48,
                "velocity": 64,
                "duration": 0.0977273,
                "tempo": 120.0
            },
            {
                "start_time": 40.3090909,
                "end_time": 40.4068182,
                "pitch": 46,
                "velocity": 64,
                "duration": 0.0977273,
                "tempo": 120.0
            },
            {
                "start_time": 40.425,
                "end_time": 40.5068182,
                "pitch": 43,
                "velocity": 64,
                "duration": 0.0818182,
                "tempo": 120.0
            },
            {
                "start_time": 40.5386364,
                "end_time": 40.625,
                "pitch": 41,
                "velocity": 64,
                "duration": 0.0863636,
                "tempo": 120.0
            },
            {
                "start_time": 40.6431818,
                "end_time": 40.7477273,
                "pitch": 39,
                "velocity": 64,
                "duration": 0.1045455,
                "tempo": 120.0
            },
            {
                "start_time": 40.7636364,
                "end_time": 40.8681818,
                "pitch": 36,
                "velocity": 64,
                "duration": 0.1045455,
                "tempo": 120.0
            },
            {
                "start_time": 40.8863636,
                "end_time": 40.9909091,
                "pitch": 34,
                "velocity": 64,
                "duration": 0.1045455,
                "tempo": 120.0
            },
            {
                "start_time": 41.0068182,
                "end_time": 41.1068182,
                "pitch": 33,
                "velocity": 64,
                "duration": 0.1,
                "tempo": 120.0
            },
            {
                "start_time": 41.1227273,
                "end_time": 41.2204545,
                "pitch": 32,
                "velocity": 64,
                "duration": 0.0977273,
                "tempo": 120.0
            },
            {
                "start_time": 41.2363636,
                "end_time": 41.3181818,
                "pitch": 31,
                "velocity": 64,
                "duration": 0.0818182,
                "tempo": 120.0
            },
            {
                "start_time": 41.3522727,
                "end_time": 41.4340909,
                "pitch": 30,
                "velocity": 64,
                "duration": 0.0818182,
                "tempo": 120.0
            },
            {
                "start_time": 41.45,
                "end_time": 41.5477273,
                "pitch": 27,
                "velocity": 64,
                "duration": 0.0977273,
                "tempo": 120.0
            },
            {
                "start_time": 41.5636364,
                "end_time": 41.8909091,
                "pitch": 28,
                "velocity": 64,
                "duration": 0.3272727,
                "tempo": 120.0
            },
            {
                "start_time": 41.9068182,
                "end_time": 42.15,
                "pitch": 41,
                "velocity": 64,
                "duration": 0.2431818,
                "tempo": 120.0
            }
        ],
        "Oboe": [
            {
                "start_time": 0.0136364,
                "end_time": 0.0818182,
                "pitch": 53,
                "velocity": 64,
                "duration": 0.0681818,
                "tempo": 120.0
            },
            {
                "start_time": 0.0977273,
                "end_time": 0.1977273,
                "pitch": 53,
                "velocity": 64,
                "duration": 0.1,
                "tempo": 120.0
            },
            {
                "start_time": 0.2159091,
                "end_time": 0.3159091,
                "pitch": 51,
                "velocity": 64,
                "duration": 0.1,
                "tempo": 120.0
            },
            {
                "start_time": 0.45,
                "end_time": 0.5431818,
                "pitch": 53,
                "velocity": 64,
                "duration": 0.0931818,
                "tempo": 120.0
            },
            {
                "start_time": 0.6681818,
                "end_time": 0.7454545,
                "pitch": 51,
                "velocity": 64,
                "duration": 0.0772727,
                "tempo": 120.0
            },
            {
                "start_time": 0.8704545,
                "end_time": 0.9704545,
                "pitch": 53,
                "velocity": 64,
                "duration": 0.1,
                "tempo": 120.0
            },
            {
                "start_time": 1.1045455,
                "end_time": 1.2045455,
                "pitch": 51,
                "velocity": 64,
                "duration": 0.1,
                "tempo": 120.0
            },
            {
                "start_time": 1.3386364,
                "end_time": 1.6568182,
                "pitch": 53,
                "velocity": 64,
                "duration": 0.3181818,
                "tempo": 120.0
            },
            {
                "start_time": 1.6727273,
                "end_time": 1.775,
                "pitch": 53,
                "velocity": 64,
                "duration": 0.1022727,
                "tempo": 120.0
            },
            {
                "start_time": 1.9068182,
                "end_time": 2.0090909,
                "pitch": 53,
                "velocity": 64,
                "duration": 0.1022727,
                "tempo": 120.0
            },
            {
                "start_time": 2.025,
                "end_time": 2.125,
                "pitch": 51,
                "velocity": 64,
                "duration": 0.1,
                "tempo": 120.0
            },
            {
                "start_time": 2.2590909,
                "end_time": 2.3431818,
                "pitch": 53,
                "velocity": 64,
                "duration": 0.0840909,
                "tempo": 120.0
            },
            {
                "start_time": 2.4772727,
                "end_time": 2.5772727,
                "pitch": 51,
                "velocity": 64,
                "duration": 0.1,
                "tempo": 120.0
            },
            {
                "start_time": 2.7113636,
                "end_time": 2.8090909,
                "pitch": 53,
                "velocity": 64,
                "duration": 0.0977273,
                "tempo": 120.0
            },
            {
                "start_time": 2.9386364,
                "end_time": 3.0204545,
                "pitch": 51,
                "velocity": 64,
                "duration": 0.0818182,
                "tempo": 120.0
            },
            {
                "start_time": 3.1522727,
                "end_time": 3.5931818,
                "pitch": 53,
                "velocity": 64,
                "duration": 0.4409091,
                "tempo": 120.0
            },
            {
                "start_time": 3.6090909,
                "end_time": 3.7113636,
                "pitch": 53,
                "velocity": 64,
                "duration": 0.1022727,
                "tempo": 120.0
            },
            {
                "start_time": 3.7295455,
                "end_time": 3.8159091,
                "pitch": 53,
                "velocity": 64,
                "duration": 0.0863636,
                "tempo": 120.0
            },
            {
                "start_time": 3.85,
                "end_time": 3.9340909,
                "pitch": 51,
                "velocity": 64,
                "duration": 0.0840909,
                "tempo": 120.0
            },
            {
                "start_time": 4.0727273,
                "end_time": 4.1704545,
                "pitch": 53,
                "velocity": 64,
                "duration": 0.0977273,
                "tempo": 120.0
            },
            {
                "start_time": 4.3022727,
                "end_time": 4.4,
                "pitch": 51,
                "velocity": 64,
                "duration": 0.0977273,
                "tempo": 120.0
            },
            {
                "start_time": 4.5295455,
                "end_time": 4.6136364,
                "pitch": 53,
                "velocity": 64,
                "duration": 0.0840909,
                "tempo": 120.0
            },
            {
                "start_time": 4.7477273,
                "end_time": 4.8477273,
                "pitch": 51,
                "velocity": 64,
                "duration": 0.1,
                "tempo": 120.0
            },
            {
                "start_time": 4.9818182,
                "end_time": 5.3090909,
                "pitch": 53,
                "velocity": 64,
                "duration": 0.3272727,
                "tempo": 120.0
            },
            {
                "start_time": 5.325,
                "end_time": 5.4068182,
                "pitch": 53,
                "velocity": 64,
                "duration": 0.0818182,
                "tempo": 120.0
            },
            {
                "start_time": 5.5431818,
                "end_time": 5.65,
                "pitch": 53,
                "velocity": 64,
                "duration": 0.1068182,
                "tempo": 120.0
            },
            {
                "start_time": 5.6659091,
                "end_time": 5.7727273,
                "pitch": 51,
                "velocity": 64,
                "duration": 0.1068182,
                "tempo": 120.0
            },
            {
                "start_time": 5.9113636,
                "end_time": 6.0090909,
                "pitch": 53,
                "velocity": 64,
                "duration": 0.0977273,
                "tempo": 120.0
            },
            {
                "start_time": 6.1363636,
                "end_time": 6.2159091,
                "pitch": 51,
                "velocity": 64,
                "duration": 0.0795455,
                "tempo": 120.0
            },
            {
                "start_time": 6.3431818,
                "end_time": 6.4431818,
                "pitch": 53,
                "velocity": 64,
                "duration": 0.1,
                "tempo": 120.0
            },
            {
                "start_time": 6.5727273,
                "end_time": 6.6704545,
                "pitch": 51,
                "velocity": 64,
                "duration": 0.0977273,
                "tempo": 120.0
            },
            {
                "start_time": 6.8022727,
                "end_time": 7.2363636,
                "pitch": 53,
                "velocity": 64,
                "duration": 0.4340909,
                "tempo": 120.0
            },
            {
                "start_time": 7.2545455,
                "end_time": 7.3545455,
                "pitch": 53,
                "velocity": 64,
                "duration": 0.1,
                "tempo": 120.0
            },
            {
                "start_time": 7.3704545,
                "end_time": 7.4704545,
                "pitch": 53,
                "velocity": 64,
                "duration": 0.1,
                "tempo": 120.0
            },
            {
                "start_time": 7.4886364,
                "end_time": 7.5886364,
                "pitch": 51,
                "velocity": 64,
                "duration": 0.1,
                "tempo": 120.0
            },
            {
                "start_time": 7.7227273,
                "end_time": 7.8045455,
                "pitch": 53,
                "velocity": 64,
                "duration": 0.0818182,
                "tempo": 120.0
            },
            {
                "start_time": 7.9386364,
                "end_time": 8.0409091,
                "pitch": 51,
                "velocity": 64,
                "duration": 0.1022727,
                "tempo": 120.0
            },
            {
                "start_time": 8.1727273,
                "end_time": 8.2727273,
                "pitch": 53,
                "velocity": 64,
                "duration": 0.1,
                "tempo": 120.0
            },
            {
                "start_time": 8.4022727,
                "end_time": 8.5,
                "pitch": 51,
                "velocity": 64,
                "duration": 0.0977273,
                "tempo": 120.0
            },
            {
                "start_time": 8.6318182,
                "end_time": 8.9568182,
                "pitch": 53,
                "velocity": 64,
                "duration": 0.325,
                "tempo": 120.0
            },
            {
                "start_time": 8.9727273,
                "end_time": 9.0772727,
                "pitch": 53,
                "velocity": 64,
                "duration": 0.1045455,
                "tempo": 120.0
            },
            {
                "start_time": 9.2113636,
                "end_time": 9.3113636,
                "pitch": 53,
                "velocity": 64,
                "duration": 0.1,
                "tempo": 120.0
            },
            {
                "start_time": 9.3272727,
                "end_time": 9.4113636,
                "pitch": 51,
                "velocity": 64,
                "duration": 0.0840909,
                "tempo": 120.0
            },
            {
                "start_time": 9.5454545,
                "end_time": 9.6409091,
                "pitch": 53,
                "velocity": 64,
                "duration": 0.0954545,
                "tempo": 120.0
            },
            {
                "start_time": 9.7704545,
                "end_time": 9.8659091,
                "pitch": 51,
                "velocity": 64,
                "duration": 0.0954545,
                "tempo": 120.0
            },
            {
                "start_time": 9.9931818,
                "end_time": 10.0931818,
                "pitch": 53,
                "velocity": 64,
                "duration": 0.1,
                "tempo": 120.0
            },
            {
                "start_time": 10.2272727,
                "end_time": 10.3113636,
                "pitch": 51,
                "velocity": 64,
                "duration": 0.0840909,
                "tempo": 120.0
            },
            {
                "start_time": 10.4454545,
                "end_time": 10.8863636,
                "pitch": 53,
                "velocity": 64,
                "duration": 0.4409091,
                "tempo": 120.0
            },
            {
                "start_time": 10.9022727,
                "end_time": 10.9886364,
                "pitch": 53,
                "velocity": 64,
                "duration": 0.0863636,
                "tempo": 120.0
            },
            {
                "start_time": 11.025,
                "end_time": 11.1113636,
                "pitch": 53,
                "velocity": 64,
                "duration": 0.0863636,
                "tempo": 120.0
            },
            {
                "start_time": 11.1295455,
                "end_time": 11.2340909,
                "pitch": 51,
                "velocity": 64,
                "duration": 0.1045455,
                "tempo": 120.0
            },
            {
                "start_time": 11.375,
                "end_time": 11.4727273,
                "pitch": 53,
                "velocity": 64,
                "duration": 0.0977273,
                "tempo": 120.0
            },
            {
                "start_time": 11.6,
                "end_time": 11.6954545,
                "pitch": 51,
                "velocity": 64,
                "duration": 0.0954545,
                "tempo": 120.0
            },
            {
                "start_time": 11.8227273,
                "end_time": 11.9090909,
                "pitch": 53,
                "velocity": 64,
                "duration": 0.0863636,
                "tempo": 120.0
            },
            {
                "start_time": 12.0454545,
                "end_time": 12.1477273,
                "pitch": 51,
                "velocity": 64,
                "duration": 0.1022727,
                "tempo": 120.0
            },
            {
                "start_time": 12.2863636,
                "end_time": 12.5954545,
                "pitch": 53,
                "velocity": 64,
                "duration": 0.3090909,
                "tempo": 120.0
            },
            {
                "start_time": 12.6295455,
                "end_time": 12.7113636,
                "pitch": 53,
                "velocity": 64,
                "duration": 0.0818182,
                "tempo": 120.0
            },
            {
                "start_time": 12.8431818,
                "end_time": 12.9431818,
                "pitch": 53,
                "velocity": 64,
                "duration": 0.1,
                "tempo": 120.0
            },
            {
                "start_time": 12.9613636,
                "end_time": 13.0613636,
                "pitch": 51,
                "velocity": 64,
                "duration": 0.1,
                "tempo": 120.0
            },
            {
                "start_time": 13.1954545,
                "end_time": 13.2954545,
                "pitch": 53,
                "velocity": 64,
                "duration": 0.1,
                "tempo": 120.0
            },
            {
                "start_time": 13.4295455,
                "end_time": 13.5136364,
                "pitch": 51,
                "velocity": 64,
                "duration": 0.0840909,
                "tempo": 120.0
            },
            {
                "start_time": 13.6477273,
                "end_time": 13.7431818,
                "pitch": 53,
                "velocity": 64,
                "duration": 0.0954545,
                "tempo": 120.0
            },
            {
                "start_time": 13.8704545,
                "end_time": 13.9659091,
                "pitch": 51,
                "velocity": 64,
                "duration": 0.0954545,
                "tempo": 120.0
            },
            {
                "start_time": 14.0954545,
                "end_time": 14.5386364,
                "pitch": 53,
                "velocity": 64,
                "duration": 0.4431818,
                "tempo": 120.0
            },
            {
                "start_time": 14.5568182,
                "end_time": 14.6568182,
                "pitch": 51,
                "velocity": 64,
                "duration": 0.1,
                "tempo": 120.0
            },
            {
                "start_time": 14.675,
                "end_time": 14.775,
                "pitch": 51,
                "velocity": 64,
                "duration": 0.1,
                "tempo": 120.0
            },
            {
                "start_time": 14.7909091,
                "end_time": 14.8909091,
                "pitch": 51,
                "velocity": 64,
                "duration": 0.1,
                "tempo": 120.0
            },
            {
                "start_time": 14.9090909,
                "end_time": 14.9909091,
                "pitch": 51,
                "velocity": 64,
                "duration": 0.0818182,
                "tempo": 120.0
            },
            {
                "start_time": 15.025,
                "end_time": 15.1090909,
                "pitch": 51,
                "velocity": 64,
                "duration": 0.0840909,
                "tempo": 120.0
            },
            {
                "start_time": 15.125,
                "end_time": 15.225,
                "pitch": 51,
                "velocity": 64,
                "duration": 0.1,
                "tempo": 120.0
            },
            {
                "start_time": 15.2431818,
                "end_time": 15.3431818,
                "pitch": 51,
                "velocity": 64,
                "duration": 0.1,
                "tempo": 120.0
            },
            {
                "start_time": 15.3590909,
                "end_time": 15.4590909,
                "pitch": 51,
                "velocity": 64,
                "duration": 0.1,
                "tempo": 120.0
            },
            {
                "start_time": 15.4772727,
                "end_time": 15.5727273,
                "pitch": 50,
                "velocity": 64,
                "duration": 0.0954545,
                "tempo": 120.0
            },
            {
                "start_time": 15.5886364,
                "end_time": 15.6840909,
                "pitch": 50,
                "velocity": 64,
                "duration": 0.0954545,
                "tempo": 120.0
            },
            {
                "start_time": 15.7,
                "end_time": 15.7795455,
                "pitch": 50,
                "velocity": 64,
                "duration": 0.0795455,
                "tempo": 120.0
            },
            {
                "start_time": 15.8113636,
                "end_time": 15.8931818,
                "pitch": 50,
                "velocity": 64,
                "duration": 0.0818182,
                "tempo": 120.0
            },
            {
                "start_time": 15.9090909,
                "end_time": 16.0090909,
                "pitch": 50,
                "velocity": 64,
                "duration": 0.1,
                "tempo": 120.0
            },
            {
                "start_time": 16.025,
                "end_time": 16.125,
                "pitch": 50,
                "velocity": 64,
                "duration": 0.1,
                "tempo": 120.0
            },
            {
                "start_time": 16.1431818,
                "end_time": 16.2431818,
                "pitch": 50,
                "velocity": 64,
                "duration": 0.1,
                "tempo": 120.0
            },
            {
                "start_time": 16.2590909,
                "end_time": 16.3590909,
                "pitch": 50,
                "velocity": 64,
                "duration": 0.1,
                "tempo": 120.0
            },
            {
                "start_time": 16.3772727,
                "end_time": 16.4795455,
                "pitch": 49,
                "velocity": 64,
                "duration": 0.1022727,
                "tempo": 120.0
            },
            {
                "start_time": 16.4954545,
                "end_time": 16.5818182,
                "pitch": 49,
                "velocity": 64,
                "duration": 0.0863636,
                "tempo": 120.0
            },
            {
                "start_time": 16.6159091,
                "end_time": 16.7022727,
                "pitch": 49,
                "velocity": 64,
                "duration": 0.0863636,
                "tempo": 120.0
            },
            {
                "start_time": 16.7181818,
                "end_time": 16.8204545,
                "pitch": 49,
                "velocity": 64,
                "duration": 0.1022727,
                "tempo": 120.0
            },
            {
                "start_time": 16.8386364,
                "end_time": 16.9363636,
                "pitch": 49,
                "velocity": 64,
                "duration": 0.0977273,
                "tempo": 120.0
            },
            {
                "start_time": 16.9545455,
                "end_time": 17.0522727,
                "pitch": 49,
                "velocity": 64,
                "duration": 0.0977273,
                "tempo": 120.0
            },
            {
                "start_time": 17.0681818,
                "end_time": 17.1659091,
                "pitch": 49,
                "velocity": 64,
                "duration": 0.0977273,
                "tempo": 120.0
            },
            {
                "start_time": 17.1818182,
                "end_time": 17.2795455,
                "pitch": 49,
                "velocity": 64,
                "duration": 0.0977273,
                "tempo": 120.0
            },
            {
                "start_time": 17.2977273,
                "end_time": 17.3795455,
                "pitch": 48,
                "velocity": 64,
                "duration": 0.0818182,
                "tempo": 120.0
            },
            {
                "start_time": 17.4136364,
                "end_time": 17.4977273,
                "pitch": 48,
                "velocity": 64,
                "duration": 0.0840909,
                "tempo": 120.0
            },
            {
                "start_time": 17.5136364,
                "end_time": 17.6136364,
                "pitch": 48,
                "velocity": 64,
                "duration": 0.1,
                "tempo": 120.0
            },
            {
                "start_time": 17.6318182,
                "end_time": 17.7318182,
                "pitch": 48,
                "velocity": 64,
                "duration": 0.1,
                "tempo": 120.0
            },
            {
                "start_time": 17.7477273,
                "end_time": 17.8454545,
                "pitch": 48,
                "velocity": 64,
                "duration": 0.0977273,
                "tempo": 120.0
            },
            {
                "start_time": 17.8636364,
                "end_time": 17.9613636,
                "pitch": 48,
                "velocity": 64,
                "duration": 0.0977273,
                "tempo": 120.0
            },
            {
                "start_time": 17.9772727,
                "end_time": 18.075,
                "pitch": 48,
                "velocity": 64,
                "duration": 0.0977273,
                "tempo": 120.0
            },
            {
                "start_time": 18.0909091,
                "end_time": 18.1727273,
                "pitch": 48,
                "velocity": 64,
                "duration": 0.0818182,
                "tempo": 120.0
            },
            {
                "start_time": 18.2068182,
                "end_time": 18.2931818,
                "pitch": 53,
                "velocity": 64,
                "duration": 0.0863636,
                "tempo": 120.0
            },
            {
                "start_time": 18.3113636,
                "end_time": 18.4159091,
                "pitch": 53,
                "velocity": 64,
                "duration": 0.1045455,
                "tempo": 120.0
            },
            {
                "start_time": 18.4340909,
                "end_time": 18.5386364,
                "pitch": 53,
                "velocity": 64,
                "duration": 0.1045455,
                "tempo": 120.0
            },
            {
                "start_time": 18.5568182,
                "end_time": 18.6613636,
                "pitch": 53,
                "velocity": 64,
                "duration": 0.1045455,
                "tempo": 120.0
            },
            {
                "start_time": 18.6795455,
                "end_time": 18.775,
                "pitch": 53,
                "velocity": 64,
                "duration": 0.0954545,
                "tempo": 120.0
            },
            {
                "start_time": 18.7909091,
                "end_time": 18.8863636,
                "pitch": 53,
                "velocity": 64,
                "duration": 0.0954545,
                "tempo": 120.0
            },
            {
                "start_time": 18.9022727,
                "end_time": 18.9840909,
                "pitch": 53,
                "velocity": 64,
                "duration": 0.0818182,
                "tempo": 120.0
            },
            {
                "start_time": 19.0159091,
                "end_time": 19.0954545,
                "pitch": 53,
                "velocity": 64,
                "duration": 0.0795455,
                "tempo": 120.0
            },
            {
                "start_time": 19.1113636,
                "end_time": 19.2068182,
                "pitch": 52,
                "velocity": 64,
                "duration": 0.0954545,
                "tempo": 120.0
            },
            {
                "start_time": 19.2227273,
                "end_time": 19.3181818,
                "pitch": 52,
                "velocity": 64,
                "duration": 0.0954545,
                "tempo": 120.0
            },
            {
                "start_time": 19.3340909,
                "end_time": 19.4295455,
                "pitch": 52,
                "velocity": 64,
                "duration": 0.0954545,
                "tempo": 120.0
            },
            {
                "start_time": 19.4477273,
                "end_time": 19.5431818,
                "pitch": 52,
                "velocity": 64,
                "duration": 0.0954545,
                "tempo": 120.0
            },
            {
                "start_time": 19.5590909,
                "end_time": 19.6613636,
                "pitch": 52,
                "velocity": 64,
                "duration": 0.1022727,
                "tempo": 120.0
            },
            {
                "start_time": 19.6795455,
                "end_time": 19.7636364,
                "pitch": 52,
                "velocity": 64,
                "duration": 0.0840909,
                "tempo": 120.0
            },
            {
                "start_time": 19.7977273,
                "end_time": 19.8840909,
                "pitch": 52,
                "velocity": 64,
                "duration": 0.0863636,
                "tempo": 120.0
            },
            {
                "start_time": 19.9,
                "end_time": 20.0045455,
                "pitch": 52,
                "velocity": 64,
                "duration": 0.1045455,
                "tempo": 120.0
            },
            {
                "start_time": 20.0204545,
                "end_time": 20.1227273,
                "pitch": 51,
                "velocity": 64,
                "duration": 0.1022727,
                "tempo": 120.0
            },
            {
                "start_time": 20.1409091,
                "end_time": 20.2431818,
                "pitch": 51,
                "velocity": 64,
                "duration": 0.1022727,
                "tempo": 120.0
            },
            {
                "start_time": 20.2613636,
                "end_time": 20.3636364,
                "pitch": 51,
                "velocity": 64,
                "duration": 0.1022727,
                "tempo": 120.0
            },
            {
                "start_time": 20.3795455,
                "end_time": 20.4840909,
                "pitch": 51,
                "velocity": 64,
                "duration": 0.1045455,
                "tempo": 120.0
            },
            {
                "start_time": 20.5,
                "end_time": 20.5818182,
                "pitch": 51,
                "velocity": 64,
                "duration": 0.0818182,
                "tempo": 120.0
            },
            {
                "start_time": 20.6159091,
                "end_time": 20.6977273,
                "pitch": 51,
                "velocity": 64,
                "duration": 0.0818182,
                "tempo": 120.0
            },
            {
                "start_time": 20.7136364,
                "end_time": 20.8113636,
                "pitch": 51,
                "velocity": 64,
                "duration": 0.0977273,
                "tempo": 120.0
            },
            {
                "start_time": 20.8272727,
                "end_time": 20.925,
                "pitch": 51,
                "velocity": 64,
                "duration": 0.0977273,
                "tempo": 120.0
            },
            {
                "start_time": 20.9409091,
                "end_time": 21.0409091,
                "pitch": 50,
                "velocity": 64,
                "duration": 0.1,
                "tempo": 120.0
            },
            {
                "start_time": 21.0568182,
                "end_time": 21.1545455,
                "pitch": 50,
                "velocity": 64,
                "duration": 0.0977273,
                "tempo": 120.0
            },
            {
                "start_time": 21.1704545,
                "end_time": 21.2681818,
                "pitch": 50,
                "velocity": 64,
                "duration": 0.0977273,
                "tempo": 120.0
            },
            {
                "start_time": 21.2863636,
                "end_time": 21.3659091,
                "pitch": 50,
                "velocity": 64,
                "duration": 0.0795455,
                "tempo": 120.0
            },
            {
                "start_time": 21.4,
                "end_time": 21.4840909,
                "pitch": 50,
                "velocity": 64,
                "duration": 0.0840909,
                "tempo": 120.0
            },
            {
                "start_time": 21.5022727,
                "end_time": 21.6045455,
                "pitch": 50,
                "velocity": 64,
                "duration": 0.1022727,
                "tempo": 120.0
            },
            {
                "start_time": 21.6227273,
                "end_time": 21.725,
                "pitch": 50,
                "velocity": 64,
                "duration": 0.1022727,
                "tempo": 120.0
            },
            {
                "start_time": 21.7409091,
                "end_time": 21.8454545,
                "pitch": 50,
                "velocity": 64,
                "duration": 0.1045455,
                "tempo": 120.0
            },
            {
                "start_time": 21.8613636,
                "end_time": 21.9613636,
                "pitch": 51,
                "velocity": 64,
                "duration": 0.1,
                "tempo": 120.0
            },
            {
                "start_time": 21.9795455,
                "end_time": 22.0795455,
                "pitch": 51,
                "velocity": 64,
                "duration": 0.1,
                "tempo": 120.0
            },
            {
                "start_time": 22.0954545,
                "end_time": 22.1795455,
                "pitch": 51,
                "velocity": 64,
                "duration": 0.0840909,
                "tempo": 120.0
            },
            {
                "start_time": 22.2136364,
                "end_time": 22.2977273,
                "pitch": 51,
                "velocity": 64,
                "duration": 0.0840909,
                "tempo": 120.0
            },
            {
                "start_time": 22.3136364,
                "end_time": 22.4090909,
                "pitch": 51,
                "velocity": 64,
                "duration": 0.0954545,
                "tempo": 120.0
            },
            {
                "start_time": 22.425,
                "end_time": 22.5227273,
                "pitch": 51,
                "velocity": 64,
                "duration": 0.0977273,
                "tempo": 120.0
            },
            {
                "start_time": 22.5386364,
                "end_time": 22.6340909,
                "pitch": 51,
                "velocity": 64,
                "duration": 0.0954545,
                "tempo": 120.0
            },
            {
                "start_time": 22.65,
                "end_time": 22.7454545,
                "pitch": 51,
                "velocity": 64,
                "duration": 0.0954545,
                "tempo": 120.0
            },
            {
                "start_time": 22.7613636,
                "end_time": 22.8613636,
                "pitch": 50,
                "velocity": 64,
                "duration": 0.1,
                "tempo": 120.0
            },
            {
                "start_time": 22.8795455,
                "end_time": 22.9613636,
                "pitch": 50,
                "velocity": 64,
                "duration": 0.0818182,
                "tempo": 120.0
            },
            {
                "start_time": 22.9954545,
                "end_time": 23.0795455,
                "pitch": 50,
                "velocity": 64,
                "duration": 0.0840909,
                "tempo": 120.0
            },
            {
                "start_time": 23.0954545,
                "end_time": 23.1977273,
                "pitch": 50,
                "velocity": 64,
                "duration": 0.1022727,
                "tempo": 120.0
            },
            {
                "start_time": 23.2136364,
                "end_time": 23.3113636,
                "pitch": 50,
                "velocity": 64,
                "duration": 0.0977273,
                "tempo": 120.0
            },
            {
                "start_time": 23.3272727,
                "end_time": 23.425,
                "pitch": 50,
                "velocity": 64,
                "duration": 0.0977273,
                "tempo": 120.0
            },
            {
                "start_time": 23.4431818,
                "end_time": 23.5409091,
                "pitch": 50,
                "velocity": 64,
                "duration": 0.0977273,
                "tempo": 120.0
            },
            {
                "start_time": 23.5568182,
                "end_time": 23.6545455,
                "pitch": 50,
                "velocity": 64,
                "duration": 0.0977273,
                "tempo": 120.0
            },
            {
                "start_time": 23.6704545,
                "end_time": 23.7568182,
                "pitch": 49,
                "velocity": 64,
                "duration": 0.0863636,
                "tempo": 120.0
            },
            {
                "start_time": 23.7931818,
                "end_time": 23.8818182,
                "pitch": 49,
                "velocity": 64,
                "duration": 0.0886364,
                "tempo": 120.0
            },
            {
                "start_time": 23.8977273,
                "end_time": 24.0045455,
                "pitch": 49,
                "velocity": 64,
                "duration": 0.1068182,
                "tempo": 120.0
            },
            {
                "start_time": 24.0204545,
                "end_time": 24.1272727,
                "pitch": 49,
                "velocity": 64,
                "duration": 0.1068182,
                "tempo": 120.0
            },
            {
                "start_time": 24.1431818,
                "end_time": 24.2409091,
                "pitch": 49,
                "velocity": 64,
                "duration": 0.0977273,
                "tempo": 120.0
            },
            {
                "start_time": 24.2568182,
                "end_time": 24.3522727,
                "pitch": 49,
                "velocity": 64,
                "duration": 0.0954545,
                "tempo": 120.0
            },
            {
                "start_time": 24.3681818,
                "end_time": 24.4636364,
                "pitch": 49,
                "velocity": 64,
                "duration": 0.0954545,
                "tempo": 120.0
            },
            {
                "start_time": 24.4795455,
                "end_time": 24.5590909,
                "pitch": 49,
                "velocity": 64,
                "duration": 0.0795455,
                "tempo": 120.0
            },
            {
                "start_time": 24.5909091,
                "end_time": 24.675,
                "pitch": 48,
                "velocity": 64,
                "duration": 0.0840909,
                "tempo": 120.0
            },
            {
                "start_time": 24.6931818,
                "end_time": 24.7931818,
                "pitch": 48,
                "velocity": 64,
                "duration": 0.1,
                "tempo": 120.0
            },
            {
                "start_time": 24.8090909,
                "end_time": 24.9090909,
                "pitch": 48,
                "velocity": 64,
                "duration": 0.1,
                "tempo": 120.0
            },
            {
                "start_time": 24.9272727,
                "end_time": 25.0272727,
                "pitch": 48,
                "velocity": 64,
                "duration": 0.1,
                "tempo": 120.0
            },
            {
                "start_time": 25.0431818,
                "end_time": 25.1431818,
                "pitch": 48,
                "velocity": 64,
                "duration": 0.1,
                "tempo": 120.0
            },
            {
                "start_time": 25.1613636,
                "end_time": 25.2613636,
                "pitch": 48,
                "velocity": 64,
                "duration": 0.1,
                "tempo": 120.0
            },
            {
                "start_time": 25.2772727,
                "end_time": 25.3613636,
                "pitch": 48,
                "velocity": 64,
                "duration": 0.0840909,
                "tempo": 120.0
            },
            {
                "start_time": 25.3954545,
                "end_time": 25.4795455,
                "pitch": 48,
                "velocity": 64,
                "duration": 0.0840909,
                "tempo": 120.0
            },
            {
                "start_time": 25.4954545,
                "end_time": 25.5954545,
                "pitch": 46,
                "velocity": 64,
                "duration": 0.1,
                "tempo": 120.0
            },
            {
                "start_time": 25.6113636,
                "end_time": 25.7136364,
                "pitch": 46,
                "velocity": 64,
                "duration": 0.1022727,
                "tempo": 120.0
            },
            {
                "start_time": 25.7295455,
                "end_time": 25.8295455,
                "pitch": 46,
                "velocity": 64,
                "duration": 0.1,
                "tempo": 120.0
            },
            {
                "start_time": 25.8454545,
                "end_time": 25.9477273,
                "pitch": 46,
                "velocity": 64,
                "duration": 0.1022727,
                "tempo": 120.0
            },
            {
                "start_time": 25.9636364,
                "end_time": 26.0636364,
                "pitch": 46,
                "velocity": 64,
                "duration": 0.1,
                "tempo": 120.0
            },
            {
                "start_time": 26.0795455,
                "end_time": 26.1636364,
                "pitch": 46,
                "velocity": 64,
                "duration": 0.0840909,
                "tempo": 120.0
            },
            {
                "start_time": 26.1977273,
                "end_time": 26.2818182,
                "pitch": 46,
                "velocity": 64,
                "duration": 0.0840909,
                "tempo": 120.0
            },
            {
                "start_time": 26.2977273,
                "end_time": 26.3977273,
                "pitch": 46,
                "velocity": 64,
                "duration": 0.1,
                "tempo": 120.0
            },
            {
                "start_time": 26.4159091,
                "end_time": 26.5113636,
                "pitch": 45,
                "velocity": 64,
                "duration": 0.0954545,
                "tempo": 120.0
            },
            {
                "start_time": 26.5272727,
                "end_time": 26.6227273,
                "pitch": 45,
                "velocity": 64,
                "duration": 0.0954545,
                "tempo": 120.0
            },
            {
                "start_time": 26.6386364,
                "end_time": 26.7340909,
                "pitch": 45,
                "velocity": 64,
                "duration": 0.0954545,
                "tempo": 120.0
            },
            {
                "start_time": 26.75,
                "end_time": 26.8477273,
                "pitch": 45,
                "velocity": 64,
                "duration": 0.0977273,
                "tempo": 120.0
            },
            {
                "start_time": 26.8636364,
                "end_time": 26.9477273,
                "pitch": 45,
                "velocity": 64,
                "duration": 0.0840909,
                "tempo": 120.0
            },
            {
                "start_time": 26.9818182,
                "end_time": 27.0681818,
                "pitch": 45,
                "velocity": 64,
                "duration": 0.0863636,
                "tempo": 120.0
            },
            {
                "start_time": 27.0863636,
                "end_time": 27.1886364,
                "pitch": 45,
                "velocity": 64,
                "duration": 0.1022727,
                "tempo": 120.0
            },
            {
                "start_time": 27.2045455,
                "end_time": 27.3068182,
                "pitch": 45,
                "velocity": 64,
                "duration": 0.1022727,
                "tempo": 120.0
            },
            {
                "start_time": 27.325,
                "end_time": 27.425,
                "pitch": 42,
                "velocity": 64,
                "duration": 0.1,
                "tempo": 120.0
            },
            {
                "start_time": 27.4431818,
                "end_time": 27.5431818,
                "pitch": 42,
                "velocity": 64,
                "duration": 0.1,
                "tempo": 120.0
            },
            {
                "start_time": 27.5590909,
                "end_time": 27.6590909,
                "pitch": 42,
                "velocity": 64,
                "duration": 0.1,
                "tempo": 120.0
            },
            {
                "start_time": 27.6772727,
                "end_time": 27.7590909,
                "pitch": 42,
                "velocity": 64,
                "duration": 0.0818182,
                "tempo": 120.0
            },
            {
                "start_time": 27.7931818,
                "end_time": 27.8772727,
                "pitch": 42,
                "velocity": 64,
                "duration": 0.0840909,
                "tempo": 120.0
            },
            {
                "start_time": 27.8931818,
                "end_time": 27.9954545,
                "pitch": 42,
                "velocity": 64,
                "duration": 0.1022727,
                "tempo": 120.0
            },
            {
                "start_time": 28.0113636,
                "end_time": 28.1113636,
                "pitch": 42,
                "velocity": 64,
                "duration": 0.1,
                "tempo": 120.0
            },
            {
                "start_time": 28.1272727,
                "end_time": 28.2295455,
                "pitch": 42,
                "velocity": 64,
                "duration": 0.1022727,
                "tempo": 120.0
            },
            {
                "start_time": 41.9068182,
                "end_time": 42.0113636,
                "pitch": 53,
                "velocity": 64,
                "duration": 0.1045455,
                "tempo": 120.0
            },
            {
                "start_time": 42.0272727,
                "end_time": 42.1159091,
                "pitch": 53,
                "velocity": 64,
                "duration": 0.0886364,
                "tempo": 120.0
            }
        ],
        "Harpsichord": [
            {
                "start_time": 14.7909091,
                "end_time": 15.4590909,
                "pitch": 63,
                "velocity": 51,
                "duration": 0.6681818,
                "tempo": 120.0
            },
            {
                "start_time": 15.7,
                "end_time": 16.3590909,
                "pitch": 62,
                "velocity": 51,
                "duration": 0.6590909,
                "tempo": 120.0
            },
            {
                "start_time": 16.6159091,
                "end_time": 17.2795455,
                "pitch": 61,
                "velocity": 51,
                "duration": 0.6636364,
                "tempo": 120.0
            },
            {
                "start_time": 17.5136364,
                "end_time": 18.1727273,
                "pitch": 60,
                "velocity": 51,
                "duration": 0.6590909,
                "tempo": 120.0
            },
            {
                "start_time": 18.4340909,
                "end_time": 19.0954545,
                "pitch": 65,
                "velocity": 51,
                "duration": 0.6613636,
                "tempo": 120.0
            },
            {
                "start_time": 19.3340909,
                "end_time": 20.0045455,
                "pitch": 64,
                "velocity": 51,
                "duration": 0.6704545,
                "tempo": 120.0
            },
            {
                "start_time": 20.2613636,
                "end_time": 20.925,
                "pitch": 63,
                "velocity": 51,
                "duration": 0.6636364,
                "tempo": 120.0
            },
            {
                "start_time": 21.1704545,
                "end_time": 21.8454545,
                "pitch": 62,
                "velocity": 51,
                "duration": 0.675,
                "tempo": 120.0
            },
            {
                "start_time": 22.0954545,
                "end_time": 22.7454545,
                "pitch": 70,
                "velocity": 51,
                "duration": 0.65,
                "tempo": 120.0
            },
            {
                "start_time": 22.9954545,
                "end_time": 23.6545455,
                "pitch": 71,
                "velocity": 51,
                "duration": 0.6590909,
                "tempo": 120.0
            },
            {
                "start_time": 23.8977273,
                "end_time": 24.5590909,
                "pitch": 72,
                "velocity": 51,
                "duration": 0.6613636,
                "tempo": 120.0
            },
            {
                "start_time": 24.8090909,
                "end_time": 25.4795455,
                "pitch": 73,
                "velocity": 51,
                "duration": 0.6704545,
                "tempo": 120.0
            },
            {
                "start_time": 25.7295455,
                "end_time": 26.3977273,
                "pitch": 74,
                "velocity": 51,
                "duration": 0.6681818,
                "tempo": 120.0
            },
            {
                "start_time": 26.6386364,
                "end_time": 27.3068182,
                "pitch": 75,
                "velocity": 51,
                "duration": 0.6681818,
                "tempo": 120.0
            },
            {
                "start_time": 27.5590909,
                "end_time": 28.2295455,
                "pitch": 64,
                "velocity": 51,
                "duration": 0.6704545,
                "tempo": 120.0
            },
            {
                "start_time": 28.2454545,
                "end_time": 28.2954545,
                "pitch": 53,
                "velocity": 51,
                "duration": 0.05,
                "tempo": 120.0
            },
            {
                "start_time": 28.3295455,
                "end_time": 28.3795455,
                "pitch": 55,
                "velocity": 51,
                "duration": 0.05,
                "tempo": 120.0
            },
            {
                "start_time": 28.3954545,
                "end_time": 28.4636364,
                "pitch": 56,
                "velocity": 51,
                "duration": 0.0681818,
                "tempo": 120.0
            },
            {
                "start_time": 28.4795455,
                "end_time": 28.5295455,
                "pitch": 58,
                "velocity": 51,
                "duration": 0.05,
                "tempo": 120.0
            },
            {
                "start_time": 28.5454545,
                "end_time": 28.6136364,
                "pitch": 60,
                "velocity": 51,
                "duration": 0.0681818,
                "tempo": 120.0
            },
            {
                "start_time": 28.6295455,
                "end_time": 28.6795455,
                "pitch": 61,
                "velocity": 51,
                "duration": 0.05,
                "tempo": 120.0
            },
            {
                "start_time": 28.6977273,
                "end_time": 28.7613636,
                "pitch": 62,
                "velocity": 51,
                "duration": 0.0636364,
                "tempo": 120.0
            },
            {
                "start_time": 28.7772727,
                "end_time": 28.825,
                "pitch": 63,
                "velocity": 51,
                "duration": 0.0477273,
                "tempo": 120.0
            },
            {
                "start_time": 28.8568182,
                "end_time": 28.9045455,
                "pitch": 64,
                "velocity": 51,
                "duration": 0.0477273,
                "tempo": 120.0
            },
            {
                "start_time": 28.9204545,
                "end_time": 28.9840909,
                "pitch": 65,
                "velocity": 51,
                "duration": 0.0636364,
                "tempo": 120.0
            },
            {
                "start_time": 29.0,
                "end_time": 29.05,
                "pitch": 66,
                "velocity": 51,
                "duration": 0.05,
                "tempo": 120.0
            },
            {
                "start_time": 29.0659091,
                "end_time": 29.1295455,
                "pitch": 67,
                "velocity": 51,
                "duration": 0.0636364,
                "tempo": 120.0
            },
            {
                "start_time": 29.1613636,
                "end_time": 29.6,
                "pitch": 48,
                "velocity": 51,
                "duration": 0.4386364,
                "tempo": 120.0
            },
            {
                "start_time": 29.6340909,
                "end_time": 30.0590909,
                "pitch": 50,
                "velocity": 51,
                "duration": 0.425,
                "tempo": 120.0
            },
            {
                "start_time": 30.075,
                "end_time": 30.5113636,
                "pitch": 51,
                "velocity": 51,
                "duration": 0.4363636,
                "tempo": 120.0
            },
            {
                "start_time": 30.5272727,
                "end_time": 30.8545455,
                "pitch": 53,
                "velocity": 51,
                "duration": 0.3272727,
                "tempo": 120.0
            },
            {
                "start_time": 30.8704545,
                "end_time": 30.9522727,
                "pitch": 55,
                "velocity": 51,
                "duration": 0.0818182,
                "tempo": 120.0
            },
            {
                "start_time": 31.0863636,
                "end_time": 31.1863636,
                "pitch": 55,
                "velocity": 51,
                "duration": 0.1,
                "tempo": 120.0
            },
            {
                "start_time": 31.2022727,
                "end_time": 31.3022727,
                "pitch": 55,
                "velocity": 51,
                "duration": 0.1,
                "tempo": 120.0
            },
            {
                "start_time": 31.4363636,
                "end_time": 31.5340909,
                "pitch": 55,
                "velocity": 51,
                "duration": 0.0977273,
                "tempo": 120.0
            },
            {
                "start_time": 31.6659091,
                "end_time": 31.7477273,
                "pitch": 53,
                "velocity": 51,
                "duration": 0.0818182,
                "tempo": 120.0
            },
            {
                "start_time": 31.8772727,
                "end_time": 32.2045455,
                "pitch": 55,
                "velocity": 51,
                "duration": 0.3272727,
                "tempo": 120.0
            },
            {
                "start_time": 32.2227273,
                "end_time": 32.3204545,
                "pitch": 55,
                "velocity": 51,
                "duration": 0.0977273,
                "tempo": 120.0
            },
            {
                "start_time": 32.825,
                "end_time": 33.2409091,
                "pitch": 48,
                "velocity": 51,
                "duration": 0.4159091,
                "tempo": 120.0
            },
            {
                "start_time": 33.2568182,
                "end_time": 33.7,
                "pitch": 50,
                "velocity": 51,
                "duration": 0.4431818,
                "tempo": 120.0
            },
            {
                "start_time": 33.7181818,
                "end_time": 34.1431818,
                "pitch": 51,
                "velocity": 51,
                "duration": 0.425,
                "tempo": 120.0
            },
            {
                "start_time": 34.1772727,
                "end_time": 34.5022727,
                "pitch": 53,
                "velocity": 51,
                "duration": 0.325,
                "tempo": 120.0
            },
            {
                "start_time": 34.5181818,
                "end_time": 34.6204545,
                "pitch": 55,
                "velocity": 51,
                "duration": 0.1022727,
                "tempo": 120.0
            },
            {
                "start_time": 34.7522727,
                "end_time": 34.8522727,
                "pitch": 55,
                "velocity": 51,
                "duration": 0.1,
                "tempo": 120.0
            },
            {
                "start_time": 34.8681818,
                "end_time": 34.95,
                "pitch": 55,
                "velocity": 51,
                "duration": 0.0818182,
                "tempo": 120.0
            },
            {
                "start_time": 35.0795455,
                "end_time": 35.1772727,
                "pitch": 55,
                "velocity": 51,
                "duration": 0.0977273,
                "tempo": 120.0
            },
            {
                "start_time": 35.3045455,
                "end_time": 35.4,
                "pitch": 53,
                "velocity": 51,
                "duration": 0.0954545,
                "tempo": 120.0
            },
            {
                "start_time": 35.5272727,
                "end_time": 35.8522727,
                "pitch": 55,
                "velocity": 51,
                "duration": 0.325,
                "tempo": 120.0
            },
            {
                "start_time": 35.8704545,
                "end_time": 35.9727273,
                "pitch": 55,
                "velocity": 51,
                "duration": 0.1022727,
                "tempo": 120.0
            },
            {
                "start_time": 36.475,
                "end_time": 36.8931818,
                "pitch": 48,
                "velocity": 51,
                "duration": 0.4181818,
                "tempo": 120.0
            },
            {
                "start_time": 36.9113636,
                "end_time": 37.3272727,
                "pitch": 50,
                "velocity": 51,
                "duration": 0.4159091,
                "tempo": 120.0
            },
            {
                "start_time": 37.3590909,
                "end_time": 37.7931818,
                "pitch": 51,
                "velocity": 51,
                "duration": 0.4340909,
                "tempo": 120.0
            },
            {
                "start_time": 37.8090909,
                "end_time": 38.1204545,
                "pitch": 53,
                "velocity": 51,
                "duration": 0.3113636,
                "tempo": 120.0
            },
            {
                "start_time": 38.1522727,
                "end_time": 40.0636364,
                "pitch": 55,
                "velocity": 51,
                "duration": 1.9113636,
                "tempo": 120.0
            },
            {
                "start_time": 40.1954545,
                "end_time": 40.2931818,
                "pitch": 60,
                "velocity": 51,
                "duration": 0.0977273,
                "tempo": 120.0
            },
            {
                "start_time": 40.3090909,
                "end_time": 40.4068182,
                "pitch": 58,
                "velocity": 51,
                "duration": 0.0977273,
                "tempo": 120.0
            },
            {
                "start_time": 40.425,
                "end_time": 40.5068182,
                "pitch": 55,
                "velocity": 51,
                "duration": 0.0818182,
                "tempo": 120.0
            },
            {
                "start_time": 40.5386364,
                "end_time": 40.625,
                "pitch": 53,
                "velocity": 51,
                "duration": 0.0863636,
                "tempo": 120.0
            },
            {
                "start_time": 40.6431818,
                "end_time": 40.7477273,
                "pitch": 51,
                "velocity": 51,
                "duration": 0.1045455,
                "tempo": 120.0
            },
            {
                "start_time": 40.7636364,
                "end_time": 40.8681818,
                "pitch": 48,
                "velocity": 51,
                "duration": 0.1045455,
                "tempo": 120.0
            },
            {
                "start_time": 40.8863636,
                "end_time": 40.9909091,
                "pitch": 46,
                "velocity": 51,
                "duration": 0.1045455,
                "tempo": 120.0
            },
            {
                "start_time": 41.0068182,
                "end_time": 41.1068182,
                "pitch": 45,
                "velocity": 51,
                "duration": 0.1,
                "tempo": 120.0
            },
            {
                "start_time": 41.1227273,
                "end_time": 41.2204545,
                "pitch": 44,
                "velocity": 51,
                "duration": 0.0977273,
                "tempo": 120.0
            },
            {
                "start_time": 41.2363636,
                "end_time": 41.3181818,
                "pitch": 43,
                "velocity": 51,
                "duration": 0.0818182,
                "tempo": 120.0
            },
            {
                "start_time": 41.3522727,
                "end_time": 41.4340909,
                "pitch": 42,
                "velocity": 51,
                "duration": 0.0818182,
                "tempo": 120.0
            },
            {
                "start_time": 41.45,
                "end_time": 41.5477273,
                "pitch": 39,
                "velocity": 51,
                "duration": 0.0977273,
                "tempo": 120.0
            },
            {
                "start_time": 41.5636364,
                "end_time": 41.8909091,
                "pitch": 40,
                "velocity": 51,
                "duration": 0.3272727,
                "tempo": 120.0
            }
        ]
    }
}