{
    "mood": "happy",
    "instruments": {
        "Lead 2 (sawtooth)": [
            {
                "start_time": 0.0,
                "end_time": 0.3727273,
                "pitch": 71,
                "velocity": 80,
                "duration": 0.3727273,
                "tempo": 120.0
            },
            {
                "start_time": 0.3886364,
                "end_time": 0.3931818,
                "pitch": 83,
                "velocity": 80,
                "duration": 0.0045455,
                "tempo": 120.0
            },
            {
                "start_time": 0.3931818,
                "end_time": 1.2022727,
                "pitch": 83,
                "velocity": 80,
                "duration": 0.8090909,
                "tempo": 120.0
            },
            {
                "start_time": 1.2204545,
                "end_time": 1.4022727,
                "pitch": 83,
                "velocity": 80,
                "duration": 0.1818182,
                "tempo": 120.0
            },
            {
                "start_time": 1.4204545,
                "end_time": 1.5022727,
                "pitch": 81,
                "velocity": 80,
                "duration": 0.0818182,
                "tempo": 120.0
            },
            {
                "start_time": 1.6204545,
                "end_time": 1.8045455,
                "pitch": 79,
                "velocity": 80,
                "duration": 0.1840909,
                "tempo": 120.0
            },
            {
                "start_time": 1.8204545,
                "end_time": 1.9045455,
                "pitch": 78,
                "velocity": 80,
                "duration": 0.0840909,
                "tempo": 120.0
            },
            {
                "start_time": 1.9204545,
                "end_time": 2.8159091,
                "pitch": 81,
                "velocity": 80,
                "duration": 0.8954545,
                "tempo": 120.0
            },
            {
                "start_time": 2.8318182,
                "end_time": 2.9136364,
                "pitch": 78,
                "velocity": 80,
                "duration": 0.0818182,
                "tempo": 120.0
            },
            {
                "start_time": 2.9318182,
                "end_time": 3.0113636,
                "pitch": 79,
                "velocity": 80,
                "duration": 0.0795455,
                "tempo": 120.0
            },
            {
                "start_time": 3.0295455,
                "end_time": 3.1113636,
                "pitch": 78,
                "velocity": 80,
                "duration": 0.0818182,
                "tempo": 120.0
            },
            {
                "start_time": 3.1272727,
                "end_time": 3.2090909,
                "pitch": 76,
                "velocity": 80,
                "duration": 0.0818182,
                "tempo": 120.0
            },
            {
                "start_time": 3.225,
                "end_time": 3.3090909,
                "pitch": 74,
                "velocity": 80,
                "duration": 0.0840909,
                "tempo": 120.0
            },
            {
                "start_time": 3.3272727,
                "end_time": 3.4136364,
                "pitch": 71,
                "velocity": 80,
                "duration": 0.0863636,
                "tempo": 120.0
            },
            {
                "start_time": 3.5318182,
                "end_time": 3.6181818,
                "pitch": 76,
                "velocity": 80,
                "duration": 0.0863636,
                "tempo": 120.0
            },
            {
                "start_time": 3.7295455,
                "end_time": 4.8136364,
                "pitch": 71,
                "velocity": 80,
                "duration": 1.0840909,
                "tempo": 120.0
            },
            {
                "start_time": 4.8295455,
                "end_time": 5.1204545,
                "pitch": 83,
                "velocity": 80,
                "duration": 0.2909091,
                "tempo": 120.0
            },
            {
                "start_time": 5.1386364,
                "end_time": 6.4204545,
                "pitch": 81,
                "velocity": 80,
                "duration": 1.2818182,
                "tempo": 120.0
            },
            {
                "start_time": 6.6386364,
                "end_time": 6.8227273,
                "pitch": 71,
                "velocity": 80,
                "duration": 0.1840909,
                "tempo": 120.0
            },
            {
                "start_time": 6.8386364,
                "end_time": 7.8295455,
                "pitch": 83,
                "velocity": 80,
                "duration": 0.9909091,
                "tempo": 120.0
            },
            {
                "start_time": 7.8454545,
                "end_time": 8.025,
                "pitch": 81,
                "velocity": 80,
                "duration": 0.1795455,
                "tempo": 120.0
            },
            {
                "start_time": 8.0409091,
                "end_time": 8.2295455,
                "pitch": 79,
                "velocity": 80,
                "duration": 0.1886364,
                "tempo": 120.0
            },
            {
                "start_time": 8.2477273,
                "end_time": 8.3318182,
                "pitch": 78,
                "velocity": 80,
                "duration": 0.0840909,
                "tempo": 120.0
            },
            {
                "start_time": 8.35,
                "end_time": 9.2386364,
                "pitch": 81,
                "velocity": 80,
                "duration": 0.8886364,
                "tempo": 120.0
            },
            {
                "start_time": 9.2545455,
                "end_time": 9.3386364,
                "pitch": 78,
                "velocity": 80,
                "duration": 0.0840909,
                "tempo": 120.0
            },
            {
                "start_time": 9.3568182,
                "end_time": 9.4409091,
                "pitch": 79,
                "velocity": 80,
                "duration": 0.0840909,
                "tempo": 120.0
            },
            {
                "start_time": 9.4568182,
                "end_time": 9.5409091,
                "pitch": 78,
                "velocity": 80,
                "duration": 0.0840909,
                "tempo": 120.0
            },
            {
                "start_time": 9.5568182,
                "end_time": 9.6409091,
                "pitch": 76,
                "velocity": 80,
                "duration": 0.0840909,
                "tempo": 120.0
            },
            {
                "start_time": 9.6590909,
                "end_time": 9.7386364,
                "pitch": 74,
                "velocity": 80,
                "duration": 0.0795455,
                "tempo": 120.0
            },
            {
                "start_time": 9.7568182,
                "end_time": 9.8386364,
                "pitch": 71,
                "velocity": 80,
                "duration": 0.0818182,
                "tempo": 120.0
            },
            {
                "start_time": 9.9522727,
                "end_time": 10.0340909,
                "pitch": 76,
                "velocity": 80,
                "duration": 0.0818182,
                "tempo": 120.0
            },
            {
                "start_time": 10.1522727,
                "end_time": 11.2386364,
                "pitch": 83,
                "velocity": 80,
                "duration": 1.0863636,
                "tempo": 120.0
            },
            {
                "start_time": 11.2568182,
                "end_time": 11.5409091,
                "pitch": 88,
                "velocity": 80,
                "duration": 0.2840909,
                "tempo": 120.0
            },
            {
                "start_time": 11.5568182,
                "end_time": 13.2477273,
                "pitch": 86,
                "velocity": 80,
                "duration": 1.6909091,
                "tempo": 120.0
            },
            {
                "start_time": 13.2636364,
                "end_time": 15.8613636,
                "pitch": 71,
                "velocity": 80,
                "duration": 2.5977273,
                "tempo": 120.0
            },
            {
                "start_time": 15.8772727,
                "end_time": 16.1613636,
                "pitch": 69,
                "velocity": 80,
                "duration": 0.2840909,
                "tempo": 120.0
            },
            {
                "start_time": 16.1795455,
                "end_time": 16.4636364,
                "pitch": 67,
                "velocity": 80,
                "duration": 0.2840909,
                "tempo": 120.0
            },
            {
                "start_time": 16.4795455,
                "end_time": 16.7704545,
                "pitch": 66,
                "velocity": 80,
                "duration": 0.2909091,
                "tempo": 120.0
            },
            {
                "start_time": 16.7886364,
                "end_time": 17.075,
                "pitch": 67,
                "velocity": 80,
                "duration": 0.2863636,
                "tempo": 120.0
            },
            {
                "start_time": 17.0909091,
                "end_time": 18.9704545,
                "pitch": 64,
                "velocity": 80,
                "duration": 1.8795455,
                "tempo": 120.0
            },
            {
                "start_time": 19.4886364,
                "end_time": 19.5704545,
                "pitch": 64,
                "velocity": 80,
                "duration": 0.0818182,
                "tempo": 120.0
            },
            {
                "start_time": 19.5886364,
                "end_time": 19.6727273,
                "pitch": 66,
                "velocity": 80,
                "duration": 0.0840909,
                "tempo": 120.0
            },
            {
                "start_time": 19.6886364,
                "end_time": 19.7727273,
                "pitch": 67,
                "velocity": 80,
                "duration": 0.0840909,
                "tempo": 120.0
            },
            {
                "start_time": 19.7886364,
                "end_time": 19.8727273,
                "pitch": 66,
                "velocity": 80,
                "duration": 0.0840909,
                "tempo": 120.0
            },
            {
                "start_time": 19.8886364,
                "end_time": 20.8863636,
                "pitch": 67,
                "velocity": 80,
                "duration": 0.9977273,
                "tempo": 120.0
            },
            {
                "start_time": 20.9022727,
                "end_time": 21.1863636,
                "pitch": 66,
                "velocity": 80,
                "duration": 0.2840909,
                "tempo": 120.0
            },
            {
                "start_time": 21.2022727,
                "end_time": 22.4818182,
                "pitch": 69,
                "velocity": 80,
                "duration": 1.2795455,
                "tempo": 120.0
            },
            {
                "start_time": 22.4977273,
                "end_time": 22.8909091,
                "pitch": 62,
                "velocity": 80,
                "duration": 0.3931818,
                "tempo": 120.0
            },
            {
                "start_time": 22.9090909,
                "end_time": 24.8863636,
                "pitch": 71,
                "velocity": 80,
                "duration": 1.9772727,
                "tempo": 120.0
            },
            {
                "start_time": 25.9068182,
                "end_time": 25.9863636,
                "pitch": 66,
                "velocity": 80,
                "duration": 0.0795455,
                "tempo": 120.0
            },
            {
                "start_time": 26.0022727,
                "end_time": 26.0818182,
                "pitch": 67,
                "velocity": 80,
                "duration": 0.0795455,
                "tempo": 120.0
            },
            {
                "start_time": 26.0977273,
                "end_time": 27.4045455,
                "pitch": 66,
                "velocity": 80,
                "duration": 1.3068182,
                "tempo": 120.0
            },
            {
                "start_time": 27.4204545,
                "end_time": 27.6,
                "pitch": 67,
                "velocity": 80,
                "duration": 0.1795455,
                "tempo": 120.0
            },
            {
                "start_time": 27.6159091,
                "end_time": 27.6977273,
                "pitch": 69,
                "velocity": 80,
                "duration": 0.0818182,
                "tempo": 120.0
            },
            {
                "start_time": 27.7159091,
                "end_time": 28.5,
                "pitch": 66,
                "velocity": 80,
                "duration": 0.7840909,
                "tempo": 120.0
            },
            {
                "start_time": 28.5181818,
                "end_time": 28.8,
                "pitch": 66,
                "velocity": 80,
                "duration": 0.2818182,
                "tempo": 120.0
            },
            {
                "start_time": 28.8181818,
                "end_time": 28.9,
                "pitch": 67,
                "velocity": 80,
                "duration": 0.0818182,
                "tempo": 120.0
            },
            {
                "start_time": 29.0204545,
                "end_time": 29.2090909,
                "pitch": 66,
                "velocity": 80,
                "duration": 0.1886364,
                "tempo": 120.0
            },
            {
                "start_time": 29.225,
                "end_time": 29.3113636,
                "pitch": 62,
                "velocity": 80,
                "duration": 0.0863636,
                "tempo": 120.0
            },
            {
                "start_time": 29.3272727,
                "end_time": 30.5136364,
                "pitch": 64,
                "velocity": 80,
                "duration": 1.1863636,
                "tempo": 120.0
            },
            {
                "start_time": 30.5318182,
                "end_time": 30.8090909,
                "pitch": 69,
                "velocity": 80,
                "duration": 0.2772727,
                "tempo": 120.0
            },
            {
                "start_time": 30.825,
                "end_time": 32.3090909,
                "pitch": 67,
                "velocity": 80,
                "duration": 1.4840909,
                "tempo": 120.0
            },
            {
                "start_time": 32.325,
                "end_time": 32.4090909,
                "pitch": 64,
                "velocity": 80,
                "duration": 0.0840909,
                "tempo": 120.0
            },
            {
                "start_time": 32.425,
                "end_time": 32.5090909,
                "pitch": 66,
                "velocity": 80,
                "duration": 0.0840909,
                "tempo": 120.0
            },
            {
                "start_time": 32.525,
                "end_time": 32.6090909,
                "pitch": 67,
                "velocity": 80,
                "duration": 0.0840909,
                "tempo": 120.0
            },
            {
                "start_time": 32.625,
                "end_time": 32.7090909,
                "pitch": 66,
                "velocity": 80,
                "duration": 0.0840909,
                "tempo": 120.0
            },
            {
                "start_time": 32.725,
                "end_time": 33.7204545,
                "pitch": 67,
                "velocity": 80,
                "duration": 0.9954545,
                "tempo": 120.0
            },
            {
                "start_time": 33.7363636,
                "end_time": 33.8181818,
                "pitch": 66,
                "velocity": 80,
                "duration": 0.0818182,
                "tempo": 120.0
            },
            {
                "start_time": 33.8340909,
                "end_time": 33.9159091,
                "pitch": 67,
                "velocity": 80,
                "duration": 0.0818182,
                "tempo": 120.0
            },
            {
                "start_time": 33.9340909,
                "end_time": 35.3159091,
                "pitch": 69,
                "velocity": 80,
                "duration": 1.3818182,
                "tempo": 120.0
            },
            {
                "start_time": 35.3318182,
                "end_time": 35.6227273,
                "pitch": 62,
                "velocity": 80,
                "duration": 0.2909091,
                "tempo": 120.0
            },
            {
                "start_time": 35.6409091,
                "end_time": 37.3204545,
                "pitch": 71,
                "velocity": 80,
                "duration": 1.6795455,
                "tempo": 120.0
            },
            {
                "start_time": 37.3386364,
                "end_time": 38.9136364,
                "pitch": 71,
                "velocity": 80,
                "duration": 1.575,
                "tempo": 120.0
            },
            {
                "start_time": 40.1522727,
                "end_time": 40.5272727,
                "pitch": 81,
                "velocity": 80,
                "duration": 0.375,
                "tempo": 120.0
            },
            {
                "start_time": 40.5431818,
                "end_time": 41.3295455,
                "pitch": 79,
                "velocity": 80,
                "duration": 0.7863636,
                "tempo": 120.0
            },
            {
                "start_time": 41.3454545,
                "end_time": 41.6363636,
                "pitch": 78,
                "velocity": 80,
                "duration": 0.2909091,
                "tempo": 120.0
            },
            {
                "start_time": 41.6545455,
                "end_time": 41.8386364,
                "pitch": 79,
                "velocity": 80,
                "duration": 0.1840909,
                "tempo": 120.0
            },
            {
                "start_time": 41.8545455,
                "end_time": 42.0340909,
                "pitch": 78,
                "velocity": 80,
                "duration": 0.1795455,
                "tempo": 120.0
            },
            {
                "start_time": 42.05,
                "end_time": 42.1318182,
                "pitch": 74,
                "velocity": 80,
                "duration": 0.0818182,
                "tempo": 120.0
            },
            {
                "start_time": 42.15,
                "end_time": 43.3431818,
                "pitch": 76,
                "velocity": 80,
                "duration": 1.1931818,
                "tempo": 120.0
            },
            {
                "start_time": 43.3590909,
                "end_time": 43.6363636,
                "pitch": 81,
                "velocity": 80,
                "duration": 0.2772727,
                "tempo": 120.0
            },
            {
                "start_time": 43.6545455,
                "end_time": 44.9386364,
                "pitch": 78,
                "velocity": 80,
                "duration": 1.2840909,
                "tempo": 120.0
            },
            {
                "start_time": 44.9545455,
                "end_time": 45.0386364,
                "pitch": 78,
                "velocity": 80,
                "duration": 0.0840909,
                "tempo": 120.0
            },
            {
                "start_time": 45.0545455,
                "end_time": 45.1386364,
                "pitch": 79,
                "velocity": 80,
                "duration": 0.0840909,
                "tempo": 120.0
            },
            {
                "start_time": 45.1568182,
                "end_time": 45.2409091,
                "pitch": 78,
                "velocity": 80,
                "duration": 0.0840909,
                "tempo": 120.0
            },
            {
                "start_time": 45.2568182,
                "end_time": 46.55,
                "pitch": 74,
                "velocity": 80,
                "duration": 1.2931818,
                "tempo": 120.0
            },
            {
                "start_time": 46.5681818,
                "end_time": 46.8522727,
                "pitch": 72,
                "velocity": 80,
                "duration": 0.2840909,
                "tempo": 120.0
            },
            {
                "start_time": 46.8681818,
                "end_time": 48.1522727,
                "pitch": 71,
                "velocity": 80,
                "duration": 1.2840909,
                "tempo": 120.0
            },
            {
                "start_time": 48.1681818,
                "end_time": 48.25,
                "pitch": 69,
                "velocity": 80,
                "duration": 0.0818182,
                "tempo": 120.0
            },
            {
                "start_time": 48.2659091,
                "end_time": 48.3477273,
                "pitch": 71,
                "velocity": 80,
                "duration": 0.0818182,
                "tempo": 120.0
            },
            {
                "start_time": 48.3636364,
                "end_time": 48.4454545,
                "pitch": 69,
                "velocity": 80,
                "duration": 0.0818182,
                "tempo": 120.0
            },
            {
                "start_time": 48.4636364,
                "end_time": 50.15,
                "pitch": 67,
                "velocity": 80,
                "duration": 1.6863636,
                "tempo": 120.0
            },
            {
                "start_time": 50.1659091,
                "end_time": 50.95,
                "pitch": 67,
                "velocity": 80,
                "duration": 0.7840909,
                "tempo": 120.0
            },
            {
                "start_time": 50.9659091,
                "end_time": 51.25,
                "pitch": 66,
                "velocity": 80,
                "duration": 0.2840909,
                "tempo": 120.0
            },
            {
                "start_time": 51.2681818,
                "end_time": 51.3522727,
                "pitch": 67,
                "velocity": 80,
                "duration": 0.0840909,
                "tempo": 120.0
            },
            {
                "start_time": 51.4681818,
                "end_time": 51.6522727,
                "pitch": 66,
                "velocity": 80,
                "duration": 0.1840909,
                "tempo": 120.0
            },
            {
                "start_time": 51.6681818,
                "end_time": 51.7522727,
                "pitch": 62,
                "velocity": 80,
                "duration": 0.0840909,
                "tempo": 120.0
            },
            {
                "start_time": 51.7681818,
                "end_time": 52.9477273,
                "pitch": 64,
                "velocity": 80,
                "duration": 1.1795455,
                "tempo": 120.0
            },
            {
                "start_time": 52.9636364,
                "end_time": 53.2613636,
                "pitch": 71,
                "velocity": 80,
                "duration": 0.2977273,
                "tempo": 120.0
            },
            {
                "start_time": 53.2795455,
                "end_time": 54.1681818,
                "pitch": 69,
                "velocity": 80,
                "duration": 0.8886364,
                "tempo": 120.0
            },
            {
                "start_time": 54.1863636,
                "end_time": 54.4636364,
                "pitch": 66,
                "velocity": 80,
                "duration": 0.2772727,
                "tempo": 120.0
            },
            {
                "start_time": 54.4795455,
                "end_time": 54.6613636,
                "pitch": 67,
                "velocity": 80,
                "duration": 0.1818182,
                "tempo": 120.0
            },
            {
                "start_time": 54.6772727,
                "end_time": 54.8613636,
                "pitch": 66,
                "velocity": 80,
                "duration": 0.1840909,
                "tempo": 120.0
            },
            {
                "start_time": 54.8772727,
                "end_time": 56.175,
                "pitch": 62,
                "velocity": 80,
                "duration": 1.2977273,
                "tempo": 120.0
            },
            {
                "start_time": 56.1909091,
                "end_time": 56.4681818,
                "pitch": 69,
                "velocity": 80,
                "duration": 0.2772727,
                "tempo": 120.0
            },
            {
                "start_time": 56.4863636,
                "end_time": 57.3704545,
                "pitch": 67,
                "velocity": 80,
                "duration": 0.8840909,
                "tempo": 120.0
            },
            {
                "start_time": 57.3863636,
                "end_time": 57.6772727,
                "pitch": 66,
                "velocity": 80,
                "duration": 0.2909091,
                "tempo": 120.0
            },
            {
                "start_time": 57.6931818,
                "end_time": 57.7795455,
                "pitch": 67,
                "velocity": 80,
                "duration": 0.0863636,
                "tempo": 120.0
            },
            {
                "start_time": 57.8977273,
                "end_time": 58.0795455,
                "pitch": 66,
                "velocity": 80,
                "duration": 0.1818182,
                "tempo": 120.0
            },
            {
                "start_time": 58.0977273,
                "end_time": 58.1795455,
                "pitch": 62,
                "velocity": 80,
                "duration": 0.0818182,
                "tempo": 120.0
            },
            {
                "start_time": 58.1977273,
                "end_time": 59.3840909,
                "pitch": 64,
                "velocity": 80,
                "duration": 1.1863636,
                "tempo": 120.0
            },
            {
                "start_time": 59.4022727,
                "end_time": 59.6795455,
                "pitch": 71,
                "velocity": 80,
                "duration": 0.2772727,
                "tempo": 120.0
            },
            {
                "start_time": 59.6954545,
                "end_time": 60.5795455,
                "pitch": 69,
                "velocity": 80,
                "duration": 0.8840909,
                "tempo": 120.0
            },
            {
                "start_time": 60.5977273,
                "end_time": 60.875,
                "pitch": 67,
                "velocity": 80,
                "duration": 0.2772727,
                "tempo": 120.0
            },
            {
                "start_time": 60.8909091,
                "end_time": 61.075,
                "pitch": 66,
                "velocity": 80,
                "duration": 0.1840909,
                "tempo": 120.0
            },
            {
                "start_time": 61.0931818,
                "end_time": 61.2795455,
                "pitch": 67,
                "velocity": 80,
                "duration": 0.1863636,
                "tempo": 120.0
            },
            {
                "start_time": 61.2977273,
                "end_time": 61.3840909,
                "pitch": 69,
                "velocity": 80,
                "duration": 0.0863636,
                "tempo": 120.0
            },
            {
                "start_time": 61.4,
                "end_time": 62.5863636,
                "pitch": 71,
                "velocity": 80,
                "duration": 1.1863636,
                "tempo": 120.0
            },
            {
                "start_time": 62.6045455,
                "end_time": 62.8863636,
                "pitch": 79,
                "velocity": 80,
                "duration": 0.2818182,
                "tempo": 120.0
            },
            {
                "start_time": 62.9045455,
                "end_time": 64.5931818,
                "pitch": 78,
                "velocity": 80,
                "duration": 1.6886364,
                "tempo": 120.0
            },
            {
                "start_time": 64.6090909,
                "end_time": 64.6113636,
                "pitch": 83,
                "velocity": 80,
                "duration": 0.0022727,
                "tempo": 120.0
            }
        ],
        "Acoustic Bass": [
            {
                "start_time": 0.2909091,
                "end_time": 0.3931818,
                "pitch": 40,
                "velocity": 80,
                "duration": 0.1022727,
                "tempo": 120.0
            },
            {
                "start_time": 0.3931818,
                "end_time": 0.4863636,
                "pitch": 40,
                "velocity": 80,
                "duration": 0.0931818,
                "tempo": 120.0
            },
            {
                "start_time": 0.5022727,
                "end_time": 0.6818182,
                "pitch": 40,
                "velocity": 80,
                "duration": 0.1795455,
                "tempo": 120.0
            },
            {
                "start_time": 0.7,
                "end_time": 0.7795455,
                "pitch": 40,
                "velocity": 80,
                "duration": 0.0795455,
                "tempo": 120.0
            },
            {
                "start_time": 0.7977273,
                "end_time": 0.8840909,
                "pitch": 50,
                "velocity": 80,
                "duration": 0.0863636,
                "tempo": 120.0
            },
            {
                "start_time": 0.9022727,
                "end_time": 0.9909091,
                "pitch": 52,
                "velocity": 80,
                "duration": 0.0886364,
                "tempo": 120.0
            },
            {
                "start_time": 1.0090909,
                "end_time": 1.0954545,
                "pitch": 40,
                "velocity": 80,
                "duration": 0.0863636,
                "tempo": 120.0
            },
            {
                "start_time": 1.1136364,
                "end_time": 1.6022727,
                "pitch": 40,
                "velocity": 80,
                "duration": 0.4886364,
                "tempo": 120.0
            },
            {
                "start_time": 1.6204545,
                "end_time": 1.8045455,
                "pitch": 35,
                "velocity": 80,
                "duration": 0.1840909,
                "tempo": 120.0
            },
            {
                "start_time": 1.8204545,
                "end_time": 1.9045455,
                "pitch": 38,
                "velocity": 80,
                "duration": 0.0840909,
                "tempo": 120.0
            },
            {
                "start_time": 1.9227273,
                "end_time": 2.1045455,
                "pitch": 36,
                "velocity": 80,
                "duration": 0.1818182,
                "tempo": 120.0
            },
            {
                "start_time": 2.1227273,
                "end_time": 2.3045455,
                "pitch": 36,
                "velocity": 80,
                "duration": 0.1818182,
                "tempo": 120.0
            },
            {
                "start_time": 2.3227273,
                "end_time": 2.4045455,
                "pitch": 36,
                "velocity": 80,
                "duration": 0.0818182,
                "tempo": 120.0
            },
            {
                "start_time": 2.4227273,
                "end_time": 2.5068182,
                "pitch": 47,
                "velocity": 80,
                "duration": 0.0840909,
                "tempo": 120.0
            },
            {
                "start_time": 2.525,
                "end_time": 2.6090909,
                "pitch": 48,
                "velocity": 80,
                "duration": 0.0840909,
                "tempo": 120.0
            },
            {
                "start_time": 2.6272727,
                "end_time": 2.7136364,
                "pitch": 36,
                "velocity": 80,
                "duration": 0.0863636,
                "tempo": 120.0
            },
            {
                "start_time": 2.7295455,
                "end_time": 2.9136364,
                "pitch": 36,
                "velocity": 80,
                "duration": 0.1840909,
                "tempo": 120.0
            },
            {
                "start_time": 2.9318182,
                "end_time": 3.1113636,
                "pitch": 36,
                "velocity": 80,
                "duration": 0.1795455,
                "tempo": 120.0
            },
            {
                "start_time": 3.1272727,
                "end_time": 3.2090909,
                "pitch": 36,
                "velocity": 80,
                "duration": 0.0818182,
                "tempo": 120.0
            },
            {
                "start_time": 3.225,
                "end_time": 3.5159091,
                "pitch": 38,
                "velocity": 80,
                "duration": 0.2909091,
                "tempo": 120.0
            },
            {
                "start_time": 3.5340909,
                "end_time": 3.7136364,
                "pitch": 40,
                "velocity": 80,
                "duration": 0.1795455,
                "tempo": 120.0
            },
            {
                "start_time": 3.7295455,
                "end_time": 3.9045455,
                "pitch": 40,
                "velocity": 80,
                "duration": 0.175,
                "tempo": 120.0
            },
            {
                "start_time": 3.9204545,
                "end_time": 4.0,
                "pitch": 40,
                "velocity": 80,
                "duration": 0.0795455,
                "tempo": 120.0
            },
            {
                "start_time": 4.0181818,
                "end_time": 4.1022727,
                "pitch": 50,
                "velocity": 80,
                "duration": 0.0840909,
                "tempo": 120.0
            },
            {
                "start_time": 4.1204545,
                "end_time": 4.2045455,
                "pitch": 52,
                "velocity": 80,
                "duration": 0.0840909,
                "tempo": 120.0
            },
            {
                "start_time": 4.2227273,
                "end_time": 4.3090909,
                "pitch": 40,
                "velocity": 80,
                "duration": 0.0863636,
                "tempo": 120.0
            },
            {
                "start_time": 4.325,
                "end_time": 4.8136364,
                "pitch": 40,
                "velocity": 80,
                "duration": 0.4886364,
                "tempo": 120.0
            },
            {
                "start_time": 4.8318182,
                "end_time": 5.0181818,
                "pitch": 35,
                "velocity": 80,
                "duration": 0.1863636,
                "tempo": 120.0
            },
            {
                "start_time": 5.0363636,
                "end_time": 5.1204545,
                "pitch": 38,
                "velocity": 80,
                "duration": 0.0840909,
                "tempo": 120.0
            },
            {
                "start_time": 5.1386364,
                "end_time": 5.3227273,
                "pitch": 36,
                "velocity": 80,
                "duration": 0.1840909,
                "tempo": 120.0
            },
            {
                "start_time": 5.3386364,
                "end_time": 5.5181818,
                "pitch": 36,
                "velocity": 80,
                "duration": 0.1795455,
                "tempo": 120.0
            },
            {
                "start_time": 5.5363636,
                "end_time": 5.6159091,
                "pitch": 36,
                "velocity": 80,
                "duration": 0.0795455,
                "tempo": 120.0
            },
            {
                "start_time": 5.6340909,
                "end_time": 5.7181818,
                "pitch": 47,
                "velocity": 80,
                "duration": 0.0840909,
                "tempo": 120.0
            },
            {
                "start_time": 5.7363636,
                "end_time": 5.8204545,
                "pitch": 48,
                "velocity": 80,
                "duration": 0.0840909,
                "tempo": 120.0
            },
            {
                "start_time": 5.8386364,
                "end_time": 5.925,
                "pitch": 36,
                "velocity": 80,
                "duration": 0.0863636,
                "tempo": 120.0
            },
            {
                "start_time": 5.9409091,
                "end_time": 6.125,
                "pitch": 36,
                "velocity": 80,
                "duration": 0.1840909,
                "tempo": 120.0
            },
            {
                "start_time": 6.1431818,
                "end_time": 6.2227273,
                "pitch": 33,
                "velocity": 80,
                "duration": 0.0795455,
                "tempo": 120.0
            },
            {
                "start_time": 6.2409091,
                "end_time": 6.3227273,
                "pitch": 45,
                "velocity": 80,
                "duration": 0.0818182,
                "tempo": 120.0
            },
            {
                "start_time": 6.3386364,
                "end_time": 6.4204545,
                "pitch": 33,
                "velocity": 80,
                "duration": 0.0818182,
                "tempo": 120.0
            },
            {
                "start_time": 6.4363636,
                "end_time": 6.5204545,
                "pitch": 35,
                "velocity": 80,
                "duration": 0.0840909,
                "tempo": 120.0
            },
            {
                "start_time": 6.5363636,
                "end_time": 6.8227273,
                "pitch": 47,
                "velocity": 80,
                "duration": 0.2863636,
                "tempo": 120.0
            },
            {
                "start_time": 6.8386364,
                "end_time": 6.925,
                "pitch": 40,
                "velocity": 80,
                "duration": 0.0863636,
                "tempo": 120.0
            },
            {
                "start_time": 6.9409091,
                "end_time": 7.1295455,
                "pitch": 40,
                "velocity": 80,
                "duration": 0.1886364,
                "tempo": 120.0
            },
            {
                "start_time": 7.1477273,
                "end_time": 7.2318182,
                "pitch": 40,
                "velocity": 80,
                "duration": 0.0840909,
                "tempo": 120.0
            },
            {
                "start_time": 7.25,
                "end_time": 7.3340909,
                "pitch": 50,
                "velocity": 80,
                "duration": 0.0840909,
                "tempo": 120.0
            },
            {
                "start_time": 7.35,
                "end_time": 7.4340909,
                "pitch": 52,
                "velocity": 80,
                "duration": 0.0840909,
                "tempo": 120.0
            },
            {
                "start_time": 7.45,
                "end_time": 7.5340909,
                "pitch": 40,
                "velocity": 80,
                "duration": 0.0840909,
                "tempo": 120.0
            },
            {
                "start_time": 7.55,
                "end_time": 8.025,
                "pitch": 40,
                "velocity": 80,
                "duration": 0.475,
                "tempo": 120.0
            },
            {
                "start_time": 8.0431818,
                "end_time": 8.2295455,
                "pitch": 35,
                "velocity": 80,
                "duration": 0.1863636,
                "tempo": 120.0
            },
            {
                "start_time": 8.2477273,
                "end_time": 8.3318182,
                "pitch": 38,
                "velocity": 80,
                "duration": 0.0840909,
                "tempo": 120.0
            },
            {
                "start_time": 8.35,
                "end_time": 8.5340909,
                "pitch": 36,
                "velocity": 80,
                "duration": 0.1840909,
                "tempo": 120.0
            },
            {
                "start_time": 8.55,
                "end_time": 8.7295455,
                "pitch": 36,
                "velocity": 80,
                "duration": 0.1795455,
                "tempo": 120.0
            },
            {
                "start_time": 8.7477273,
                "end_time": 8.8272727,
                "pitch": 36,
                "velocity": 80,
                "duration": 0.0795455,
                "tempo": 120.0
            },
            {
                "start_time": 8.8454545,
                "end_time": 8.9295455,
                "pitch": 47,
                "velocity": 80,
                "duration": 0.0840909,
                "tempo": 120.0
            },
            {
                "start_time": 8.9477273,
                "end_time": 9.0318182,
                "pitch": 48,
                "velocity": 80,
                "duration": 0.0840909,
                "tempo": 120.0
            },
            {
                "start_time": 9.05,
                "end_time": 9.1363636,
                "pitch": 36,
                "velocity": 80,
                "duration": 0.0863636,
                "tempo": 120.0
            },
            {
                "start_time": 9.1522727,
                "end_time": 9.3386364,
                "pitch": 36,
                "velocity": 80,
                "duration": 0.1863636,
                "tempo": 120.0
            },
            {
                "start_time": 9.3568182,
                "end_time": 9.5409091,
                "pitch": 36,
                "velocity": 80,
                "duration": 0.1840909,
                "tempo": 120.0
            },
            {
                "start_time": 9.5568182,
                "end_time": 9.6409091,
                "pitch": 36,
                "velocity": 80,
                "duration": 0.0840909,
                "tempo": 120.0
            },
            {
                "start_time": 9.6590909,
                "end_time": 9.9363636,
                "pitch": 38,
                "velocity": 80,
                "duration": 0.2772727,
                "tempo": 120.0
            },
            {
                "start_time": 9.9522727,
                "end_time": 10.1363636,
                "pitch": 40,
                "velocity": 80,
                "duration": 0.1840909,
                "tempo": 120.0
            },
            {
                "start_time": 10.1522727,
                "end_time": 10.3409091,
                "pitch": 40,
                "velocity": 80,
                "duration": 0.1886364,
                "tempo": 120.0
            },
            {
                "start_time": 10.3590909,
                "end_time": 10.4431818,
                "pitch": 40,
                "velocity": 80,
                "duration": 0.0840909,
                "tempo": 120.0
            },
            {
                "start_time": 10.4613636,
                "end_time": 10.5454545,
                "pitch": 50,
                "velocity": 80,
                "duration": 0.0840909,
                "tempo": 120.0
            },
            {
                "start_time": 10.5613636,
                "end_time": 10.6454545,
                "pitch": 52,
                "velocity": 80,
                "duration": 0.0840909,
                "tempo": 120.0
            },
            {
                "start_time": 10.6613636,
                "end_time": 10.7454545,
                "pitch": 40,
                "velocity": 80,
                "duration": 0.0840909,
                "tempo": 120.0
            },
            {
                "start_time": 10.7636364,
                "end_time": 11.2386364,
                "pitch": 40,
                "velocity": 80,
                "duration": 0.475,
                "tempo": 120.0
            },
            {
                "start_time": 11.2568182,
                "end_time": 11.4409091,
                "pitch": 35,
                "velocity": 80,
                "duration": 0.1840909,
                "tempo": 120.0
            },
            {
                "start_time": 11.4568182,
                "end_time": 11.5409091,
                "pitch": 38,
                "velocity": 80,
                "duration": 0.0840909,
                "tempo": 120.0
            },
            {
                "start_time": 11.5590909,
                "end_time": 11.7386364,
                "pitch": 36,
                "velocity": 80,
                "duration": 0.1795455,
                "tempo": 120.0
            },
            {
                "start_time": 11.7568182,
                "end_time": 11.9363636,
                "pitch": 36,
                "velocity": 80,
                "duration": 0.1795455,
                "tempo": 120.0
            },
            {
                "start_time": 11.9522727,
                "end_time": 12.0340909,
                "pitch": 36,
                "velocity": 80,
                "duration": 0.0818182,
                "tempo": 120.0
            },
            {
                "start_time": 12.05,
                "end_time": 12.1363636,
                "pitch": 47,
                "velocity": 80,
                "duration": 0.0863636,
                "tempo": 120.0
            },
            {
                "start_time": 12.1522727,
                "end_time": 12.2386364,
                "pitch": 48,
                "velocity": 80,
                "duration": 0.0863636,
                "tempo": 120.0
            },
            {
                "start_time": 12.2568182,
                "end_time": 12.3409091,
                "pitch": 35,
                "velocity": 80,
                "duration": 0.0840909,
                "tempo": 120.0
            },
            {
                "start_time": 12.3590909,
                "end_time": 12.5431818,
                "pitch": 33,
                "velocity": 80,
                "duration": 0.1840909,
                "tempo": 120.0
            },
            {
                "start_time": 12.5590909,
                "end_time": 12.6409091,
                "pitch": 33,
                "velocity": 80,
                "duration": 0.0818182,
                "tempo": 120.0
            },
            {
                "start_time": 12.6568182,
                "end_time": 12.7386364,
                "pitch": 45,
                "velocity": 80,
                "duration": 0.0818182,
                "tempo": 120.0
            },
            {
                "start_time": 12.7545455,
                "end_time": 12.8363636,
                "pitch": 33,
                "velocity": 80,
                "duration": 0.0818182,
                "tempo": 120.0
            },
            {
                "start_time": 12.8522727,
                "end_time": 12.9386364,
                "pitch": 35,
                "velocity": 80,
                "duration": 0.0863636,
                "tempo": 120.0
            },
            {
                "start_time": 12.9568182,
                "end_time": 13.0409091,
                "pitch": 47,
                "velocity": 80,
                "duration": 0.0840909,
                "tempo": 120.0
            },
            {
                "start_time": 13.0590909,
                "end_time": 13.1431818,
                "pitch": 50,
                "velocity": 80,
                "duration": 0.0840909,
                "tempo": 120.0
            },
            {
                "start_time": 13.1613636,
                "end_time": 13.2477273,
                "pitch": 33,
                "velocity": 80,
                "duration": 0.0863636,
                "tempo": 120.0
            },
            {
                "start_time": 13.2636364,
                "end_time": 13.55,
                "pitch": 38,
                "velocity": 80,
                "duration": 0.2863636,
                "tempo": 120.0
            },
            {
                "start_time": 13.5659091,
                "end_time": 13.65,
                "pitch": 40,
                "velocity": 80,
                "duration": 0.0840909,
                "tempo": 120.0
            },
            {
                "start_time": 14.5795455,
                "end_time": 14.6590909,
                "pitch": 42,
                "velocity": 80,
                "duration": 0.0795455,
                "tempo": 120.0
            },
            {
                "start_time": 14.6772727,
                "end_time": 14.7568182,
                "pitch": 38,
                "velocity": 80,
                "duration": 0.0795455,
                "tempo": 120.0
            },
            {
                "start_time": 14.775,
                "end_time": 14.8568182,
                "pitch": 35,
                "velocity": 80,
                "duration": 0.0818182,
                "tempo": 120.0
            },
            {
                "start_time": 14.8727273,
                "end_time": 15.1568182,
                "pitch": 38,
                "velocity": 80,
                "duration": 0.2840909,
                "tempo": 120.0
            },
            {
                "start_time": 15.175,
                "end_time": 15.2590909,
                "pitch": 40,
                "velocity": 80,
                "duration": 0.0840909,
                "tempo": 120.0
            },
            {
                "start_time": 16.3795455,
                "end_time": 16.4636364,
                "pitch": 38,
                "velocity": 80,
                "duration": 0.0840909,
                "tempo": 120.0
            },
            {
                "start_time": 16.4818182,
                "end_time": 16.7704545,
                "pitch": 38,
                "velocity": 80,
                "duration": 0.2886364,
                "tempo": 120.0
            },
            {
                "start_time": 16.7886364,
                "end_time": 16.875,
                "pitch": 40,
                "velocity": 80,
                "duration": 0.0863636,
                "tempo": 120.0
            },
            {
                "start_time": 17.7886364,
                "end_time": 17.8704545,
                "pitch": 40,
                "velocity": 80,
                "duration": 0.0818182,
                "tempo": 120.0
            },
            {
                "start_time": 17.8886364,
                "end_time": 17.9681818,
                "pitch": 38,
                "velocity": 80,
                "duration": 0.0795455,
                "tempo": 120.0
            },
            {
                "start_time": 17.9863636,
                "end_time": 18.0681818,
                "pitch": 35,
                "velocity": 80,
                "duration": 0.0818182,
                "tempo": 120.0
            },
            {
                "start_time": 18.0840909,
                "end_time": 18.375,
                "pitch": 38,
                "velocity": 80,
                "duration": 0.2909091,
                "tempo": 120.0
            },
            {
                "start_time": 18.3909091,
                "end_time": 18.4772727,
                "pitch": 40,
                "velocity": 80,
                "duration": 0.0863636,
                "tempo": 120.0
            },
            {
                "start_time": 18.5931818,
                "end_time": 18.6727273,
                "pitch": 33,
                "velocity": 80,
                "duration": 0.0795455,
                "tempo": 120.0
            },
            {
                "start_time": 18.6909091,
                "end_time": 18.7727273,
                "pitch": 35,
                "velocity": 80,
                "duration": 0.0818182,
                "tempo": 120.0
            },
            {
                "start_time": 18.7886364,
                "end_time": 18.8704545,
                "pitch": 38,
                "velocity": 80,
                "duration": 0.0818182,
                "tempo": 120.0
            },
            {
                "start_time": 18.8863636,
                "end_time": 19.1704545,
                "pitch": 42,
                "velocity": 80,
                "duration": 0.2840909,
                "tempo": 120.0
            },
            {
                "start_time": 19.1863636,
                "end_time": 19.4704545,
                "pitch": 38,
                "velocity": 80,
                "duration": 0.2840909,
                "tempo": 120.0
            },
            {
                "start_time": 19.4886364,
                "end_time": 19.6727273,
                "pitch": 35,
                "velocity": 80,
                "duration": 0.1840909,
                "tempo": 120.0
            },
            {
                "start_time": 19.6886364,
                "end_time": 19.9727273,
                "pitch": 36,
                "velocity": 80,
                "duration": 0.2840909,
                "tempo": 120.0
            },
            {
                "start_time": 19.9886364,
                "end_time": 20.0727273,
                "pitch": 36,
                "velocity": 80,
                "duration": 0.0840909,
                "tempo": 120.0
            },
            {
                "start_time": 20.7022727,
                "end_time": 20.8863636,
                "pitch": 45,
                "velocity": 80,
                "duration": 0.1840909,
                "tempo": 120.0
            },
            {
                "start_time": 20.9022727,
                "end_time": 20.9863636,
                "pitch": 43,
                "velocity": 80,
                "duration": 0.0840909,
                "tempo": 120.0
            },
            {
                "start_time": 21.0022727,
                "end_time": 21.2863636,
                "pitch": 42,
                "velocity": 80,
                "duration": 0.2840909,
                "tempo": 120.0
            },
            {
                "start_time": 21.3022727,
                "end_time": 21.5863636,
                "pitch": 38,
                "velocity": 80,
                "duration": 0.2840909,
                "tempo": 120.0
            },
            {
                "start_time": 21.6022727,
                "end_time": 21.6863636,
                "pitch": 38,
                "velocity": 80,
                "duration": 0.0840909,
                "tempo": 120.0
            },
            {
                "start_time": 22.3022727,
                "end_time": 22.4818182,
                "pitch": 47,
                "velocity": 80,
                "duration": 0.1795455,
                "tempo": 120.0
            },
            {
                "start_time": 22.4977273,
                "end_time": 22.5818182,
                "pitch": 45,
                "velocity": 80,
                "duration": 0.0840909,
                "tempo": 120.0
            },
            {
                "start_time": 22.6,
                "end_time": 22.8909091,
                "pitch": 43,
                "velocity": 80,
                "duration": 0.2909091,
                "tempo": 120.0
            },
            {
                "start_time": 22.9090909,
                "end_time": 22.9909091,
                "pitch": 36,
                "velocity": 80,
                "duration": 0.0818182,
                "tempo": 120.0
            },
            {
                "start_time": 23.0090909,
                "end_time": 23.0909091,
                "pitch": 36,
                "velocity": 80,
                "duration": 0.0818182,
                "tempo": 120.0
            },
            {
                "start_time": 23.1090909,
                "end_time": 23.1909091,
                "pitch": 35,
                "velocity": 80,
                "duration": 0.0818182,
                "tempo": 120.0
            },
            {
                "start_time": 23.2090909,
                "end_time": 23.2909091,
                "pitch": 36,
                "velocity": 80,
                "duration": 0.0818182,
                "tempo": 120.0
            },
            {
                "start_time": 23.7090909,
                "end_time": 23.9931818,
                "pitch": 36,
                "velocity": 80,
                "duration": 0.2840909,
                "tempo": 120.0
            },
            {
                "start_time": 24.0113636,
                "end_time": 24.0931818,
                "pitch": 36,
                "velocity": 80,
                "duration": 0.0818182,
                "tempo": 120.0
            },
            {
                "start_time": 24.5022727,
                "end_time": 24.9840909,
                "pitch": 36,
                "velocity": 80,
                "duration": 0.4818182,
                "tempo": 120.0
            },
            {
                "start_time": 25.0,
                "end_time": 25.0818182,
                "pitch": 33,
                "velocity": 80,
                "duration": 0.0818182,
                "tempo": 120.0
            },
            {
                "start_time": 25.1,
                "end_time": 25.1795455,
                "pitch": 45,
                "velocity": 80,
                "duration": 0.0795455,
                "tempo": 120.0
            },
            {
                "start_time": 25.1977273,
                "end_time": 25.2795455,
                "pitch": 33,
                "velocity": 80,
                "duration": 0.0818182,
                "tempo": 120.0
            },
            {
                "start_time": 25.2954545,
                "end_time": 25.5931818,
                "pitch": 33,
                "velocity": 80,
                "duration": 0.2977273,
                "tempo": 120.0
            },
            {
                "start_time": 25.6113636,
                "end_time": 25.7954545,
                "pitch": 35,
                "velocity": 80,
                "duration": 0.1840909,
                "tempo": 120.0
            },
            {
                "start_time": 25.8113636,
                "end_time": 26.0818182,
                "pitch": 35,
                "velocity": 80,
                "duration": 0.2704545,
                "tempo": 120.0
            },
            {
                "start_time": 26.0977273,
                "end_time": 26.3954545,
                "pitch": 38,
                "velocity": 80,
                "duration": 0.2977273,
                "tempo": 120.0
            },
            {
                "start_time": 26.4136364,
                "end_time": 26.5022727,
                "pitch": 40,
                "velocity": 80,
                "duration": 0.0886364,
                "tempo": 120.0
            },
            {
                "start_time": 27.4204545,
                "end_time": 27.5022727,
                "pitch": 42,
                "velocity": 80,
                "duration": 0.0818182,
                "tempo": 120.0
            },
            {
                "start_time": 27.5181818,
                "end_time": 27.6,
                "pitch": 38,
                "velocity": 80,
                "duration": 0.0818182,
                "tempo": 120.0
            },
            {
                "start_time": 27.6181818,
                "end_time": 27.6977273,
                "pitch": 35,
                "velocity": 80,
                "duration": 0.0795455,
                "tempo": 120.0
            },
            {
                "start_time": 27.7159091,
                "end_time": 28.0045455,
                "pitch": 38,
                "velocity": 80,
                "duration": 0.2886364,
                "tempo": 120.0
            },
            {
                "start_time": 28.0227273,
                "end_time": 28.1090909,
                "pitch": 40,
                "velocity": 80,
                "duration": 0.0863636,
                "tempo": 120.0
            },
            {
                "start_time": 29.225,
                "end_time": 29.3113636,
                "pitch": 38,
                "velocity": 80,
                "duration": 0.0863636,
                "tempo": 120.0
            },
            {
                "start_time": 29.3295455,
                "end_time": 29.6068182,
                "pitch": 38,
                "velocity": 80,
                "duration": 0.2772727,
                "tempo": 120.0
            },
            {
                "start_time": 29.6227273,
                "end_time": 29.7045455,
                "pitch": 40,
                "velocity": 80,
                "duration": 0.0818182,
                "tempo": 120.0
            },
            {
                "start_time": 30.6295455,
                "end_time": 30.7113636,
                "pitch": 40,
                "velocity": 80,
                "duration": 0.0818182,
                "tempo": 120.0
            },
            {
                "start_time": 30.7272727,
                "end_time": 30.8090909,
                "pitch": 38,
                "velocity": 80,
                "duration": 0.0818182,
                "tempo": 120.0
            },
            {
                "start_time": 30.825,
                "end_time": 30.9068182,
                "pitch": 35,
                "velocity": 80,
                "duration": 0.0818182,
                "tempo": 120.0
            },
            {
                "start_time": 30.9227273,
                "end_time": 31.2136364,
                "pitch": 38,
                "velocity": 80,
                "duration": 0.2909091,
                "tempo": 120.0
            },
            {
                "start_time": 31.2318182,
                "end_time": 31.3159091,
                "pitch": 40,
                "velocity": 80,
                "duration": 0.0840909,
                "tempo": 120.0
            },
            {
                "start_time": 31.4318182,
                "end_time": 31.5136364,
                "pitch": 33,
                "velocity": 80,
                "duration": 0.0818182,
                "tempo": 120.0
            },
            {
                "start_time": 31.5295455,
                "end_time": 31.6113636,
                "pitch": 35,
                "velocity": 80,
                "duration": 0.0818182,
                "tempo": 120.0
            },
            {
                "start_time": 31.6272727,
                "end_time": 31.7090909,
                "pitch": 38,
                "velocity": 80,
                "duration": 0.0818182,
                "tempo": 120.0
            },
            {
                "start_time": 31.725,
                "end_time": 32.0090909,
                "pitch": 42,
                "velocity": 80,
                "duration": 0.2840909,
                "tempo": 120.0
            },
            {
                "start_time": 32.025,
                "end_time": 32.3090909,
                "pitch": 38,
                "velocity": 80,
                "duration": 0.2840909,
                "tempo": 120.0
            },
            {
                "start_time": 32.3272727,
                "end_time": 32.5090909,
                "pitch": 35,
                "velocity": 80,
                "duration": 0.1818182,
                "tempo": 120.0
            },
            {
                "start_time": 32.5272727,
                "end_time": 32.8090909,
                "pitch": 36,
                "velocity": 80,
                "duration": 0.2818182,
                "tempo": 120.0
            },
            {
                "start_time": 32.825,
                "end_time": 32.9090909,
                "pitch": 36,
                "velocity": 80,
                "duration": 0.0840909,
                "tempo": 120.0
            },
            {
                "start_time": 33.5363636,
                "end_time": 33.7204545,
                "pitch": 45,
                "velocity": 80,
                "duration": 0.1840909,
                "tempo": 120.0
            },
            {
                "start_time": 33.7363636,
                "end_time": 33.8181818,
                "pitch": 43,
                "velocity": 80,
                "duration": 0.0818182,
                "tempo": 120.0
            },
            {
                "start_time": 33.8363636,
                "end_time": 34.1136364,
                "pitch": 42,
                "velocity": 80,
                "duration": 0.2772727,
                "tempo": 120.0
            },
            {
                "start_time": 34.1295455,
                "end_time": 34.4204545,
                "pitch": 38,
                "velocity": 80,
                "duration": 0.2909091,
                "tempo": 120.0
            },
            {
                "start_time": 34.4363636,
                "end_time": 34.5227273,
                "pitch": 38,
                "velocity": 80,
                "duration": 0.0863636,
                "tempo": 120.0
            },
            {
                "start_time": 35.1363636,
                "end_time": 35.3159091,
                "pitch": 47,
                "velocity": 80,
                "duration": 0.1795455,
                "tempo": 120.0
            },
            {
                "start_time": 35.3318182,
                "end_time": 35.4181818,
                "pitch": 45,
                "velocity": 80,
                "duration": 0.0863636,
                "tempo": 120.0
            },
            {
                "start_time": 35.4340909,
                "end_time": 35.725,
                "pitch": 43,
                "velocity": 80,
                "duration": 0.2909091,
                "tempo": 120.0
            },
            {
                "start_time": 35.7431818,
                "end_time": 36.025,
                "pitch": 36,
                "velocity": 80,
                "duration": 0.2818182,
                "tempo": 120.0
            },
            {
                "start_time": 36.0431818,
                "end_time": 36.125,
                "pitch": 36,
                "velocity": 80,
                "duration": 0.0818182,
                "tempo": 120.0
            },
            {
                "start_time": 36.2431818,
                "end_time": 36.3272727,
                "pitch": 47,
                "velocity": 80,
                "duration": 0.0840909,
                "tempo": 120.0
            },
            {
                "start_time": 36.3431818,
                "end_time": 36.4272727,
                "pitch": 48,
                "velocity": 80,
                "duration": 0.0840909,
                "tempo": 120.0
            },
            {
                "start_time": 36.4454545,
                "end_time": 36.5295455,
                "pitch": 36,
                "velocity": 80,
                "duration": 0.0840909,
                "tempo": 120.0
            },
            {
                "start_time": 36.5454545,
                "end_time": 36.8295455,
                "pitch": 35,
                "velocity": 80,
                "duration": 0.2840909,
                "tempo": 120.0
            },
            {
                "start_time": 36.8454545,
                "end_time": 37.0272727,
                "pitch": 43,
                "velocity": 80,
                "duration": 0.1818182,
                "tempo": 120.0
            },
            {
                "start_time": 37.0431818,
                "end_time": 37.2227273,
                "pitch": 42,
                "velocity": 80,
                "duration": 0.1795455,
                "tempo": 120.0
            },
            {
                "start_time": 37.2386364,
                "end_time": 37.9204545,
                "pitch": 38,
                "velocity": 80,
                "duration": 0.6818182,
                "tempo": 120.0
            },
            {
                "start_time": 37.9386364,
                "end_time": 38.1204545,
                "pitch": 38,
                "velocity": 80,
                "duration": 0.1818182,
                "tempo": 120.0
            },
            {
                "start_time": 38.1386364,
                "end_time": 38.325,
                "pitch": 50,
                "velocity": 80,
                "duration": 0.1863636,
                "tempo": 120.0
            },
            {
                "start_time": 38.3431818,
                "end_time": 38.4272727,
                "pitch": 38,
                "velocity": 80,
                "duration": 0.0840909,
                "tempo": 120.0
            },
            {
                "start_time": 38.4454545,
                "end_time": 38.6272727,
                "pitch": 48,
                "velocity": 80,
                "duration": 0.1818182,
                "tempo": 120.0
            },
            {
                "start_time": 38.6431818,
                "end_time": 38.8181818,
                "pitch": 47,
                "velocity": 80,
                "duration": 0.175,
                "tempo": 120.0
            },
            {
                "start_time": 38.8340909,
                "end_time": 38.9136364,
                "pitch": 38,
                "velocity": 80,
                "duration": 0.0795455,
                "tempo": 120.0
            },
            {
                "start_time": 38.9295455,
                "end_time": 39.0159091,
                "pitch": 45,
                "velocity": 80,
                "duration": 0.0863636,
                "tempo": 120.0
            },
            {
                "start_time": 39.0318182,
                "end_time": 39.1181818,
                "pitch": 47,
                "velocity": 80,
                "duration": 0.0863636,
                "tempo": 120.0
            },
            {
                "start_time": 39.2386364,
                "end_time": 39.3227273,
                "pitch": 36,
                "velocity": 80,
                "duration": 0.0840909,
                "tempo": 120.0
            },
            {
                "start_time": 39.8431818,
                "end_time": 39.9295455,
                "pitch": 36,
                "velocity": 80,
                "duration": 0.0863636,
                "tempo": 120.0
            },
            {
                "start_time": 40.1522727,
                "end_time": 40.4295455,
                "pitch": 36,
                "velocity": 80,
                "duration": 0.2772727,
                "tempo": 120.0
            },
            {
                "start_time": 40.4454545,
                "end_time": 40.5272727,
                "pitch": 36,
                "velocity": 80,
                "duration": 0.0818182,
                "tempo": 120.0
            },
            {
                "start_time": 40.6454545,
                "end_time": 40.7318182,
                "pitch": 36,
                "velocity": 80,
                "duration": 0.0863636,
                "tempo": 120.0
            },
            {
                "start_time": 40.7477273,
                "end_time": 41.3295455,
                "pitch": 36,
                "velocity": 80,
                "duration": 0.5818182,
                "tempo": 120.0
            },
            {
                "start_time": 41.3454545,
                "end_time": 41.6363636,
                "pitch": 35,
                "velocity": 80,
                "duration": 0.2909091,
                "tempo": 120.0
            },
            {
                "start_time": 41.6545455,
                "end_time": 42.1318182,
                "pitch": 36,
                "velocity": 80,
                "duration": 0.4772727,
                "tempo": 120.0
            },
            {
                "start_time": 42.15,
                "end_time": 42.2318182,
                "pitch": 45,
                "velocity": 80,
                "duration": 0.0818182,
                "tempo": 120.0
            },
            {
                "start_time": 42.25,
                "end_time": 42.3318182,
                "pitch": 47,
                "velocity": 80,
                "duration": 0.0818182,
                "tempo": 120.0
            },
            {
                "start_time": 42.45,
                "end_time": 42.5318182,
                "pitch": 38,
                "velocity": 80,
                "duration": 0.0818182,
                "tempo": 120.0
            },
            {
                "start_time": 43.0590909,
                "end_time": 43.1431818,
                "pitch": 38,
                "velocity": 80,
                "duration": 0.0840909,
                "tempo": 120.0
            },
            {
                "start_time": 43.3590909,
                "end_time": 43.6363636,
                "pitch": 38,
                "velocity": 80,
                "duration": 0.2772727,
                "tempo": 120.0
            },
            {
                "start_time": 43.6545455,
                "end_time": 43.7363636,
                "pitch": 38,
                "velocity": 80,
                "duration": 0.0818182,
                "tempo": 120.0
            },
            {
                "start_time": 43.8522727,
                "end_time": 43.9340909,
                "pitch": 38,
                "velocity": 80,
                "duration": 0.0818182,
                "tempo": 120.0
            },
            {
                "start_time": 43.9522727,
                "end_time": 44.5454545,
                "pitch": 38,
                "velocity": 80,
                "duration": 0.5931818,
                "tempo": 120.0
            },
            {
                "start_time": 44.5636364,
                "end_time": 44.8409091,
                "pitch": 36,
                "velocity": 80,
                "duration": 0.2772727,
                "tempo": 120.0
            },
            {
                "start_time": 44.8568182,
                "end_time": 45.3409091,
                "pitch": 38,
                "velocity": 80,
                "duration": 0.4840909,
                "tempo": 120.0
            },
            {
                "start_time": 45.3568182,
                "end_time": 45.6409091,
                "pitch": 33,
                "velocity": 80,
                "duration": 0.2840909,
                "tempo": 120.0
            },
            {
                "start_time": 45.6568182,
                "end_time": 45.7409091,
                "pitch": 33,
                "velocity": 80,
                "duration": 0.0840909,
                "tempo": 120.0
            },
            {
                "start_time": 46.5681818,
                "end_time": 46.6522727,
                "pitch": 33,
                "velocity": 80,
                "duration": 0.0840909,
                "tempo": 120.0
            },
            {
                "start_time": 46.6681818,
                "end_time": 46.9522727,
                "pitch": 45,
                "velocity": 80,
                "duration": 0.2840909,
                "tempo": 120.0
            },
            {
                "start_time": 46.9681818,
                "end_time": 47.2522727,
                "pitch": 35,
                "velocity": 80,
                "duration": 0.2840909,
                "tempo": 120.0
            },
            {
                "start_time": 47.2681818,
                "end_time": 47.3522727,
                "pitch": 35,
                "velocity": 80,
                "duration": 0.0840909,
                "tempo": 120.0
            },
            {
                "start_time": 48.1681818,
                "end_time": 48.25,
                "pitch": 35,
                "velocity": 80,
                "duration": 0.0818182,
                "tempo": 120.0
            },
            {
                "start_time": 48.2659091,
                "end_time": 48.5431818,
                "pitch": 47,
                "velocity": 80,
                "duration": 0.2772727,
                "tempo": 120.0
            },
            {
                "start_time": 48.5613636,
                "end_time": 48.8522727,
                "pitch": 33,
                "velocity": 80,
                "duration": 0.2909091,
                "tempo": 120.0
            },
            {
                "start_time": 48.8681818,
                "end_time": 48.9545455,
                "pitch": 35,
                "velocity": 80,
                "duration": 0.0863636,
                "tempo": 120.0
            },
            {
                "start_time": 49.1681818,
                "end_time": 49.8545455,
                "pitch": 40,
                "velocity": 80,
                "duration": 0.6863636,
                "tempo": 120.0
            },
            {
                "start_time": 49.8727273,
                "end_time": 49.9522727,
                "pitch": 40,
                "velocity": 80,
                "duration": 0.0795455,
                "tempo": 120.0
            },
            {
                "start_time": 49.9704545,
                "end_time": 50.0522727,
                "pitch": 52,
                "velocity": 80,
                "duration": 0.0818182,
                "tempo": 120.0
            },
            {
                "start_time": 50.0681818,
                "end_time": 50.15,
                "pitch": 40,
                "velocity": 80,
                "duration": 0.0818182,
                "tempo": 120.0
            },
            {
                "start_time": 50.1659091,
                "end_time": 50.45,
                "pitch": 47,
                "velocity": 80,
                "duration": 0.2840909,
                "tempo": 120.0
            },
            {
                "start_time": 50.4659091,
                "end_time": 50.75,
                "pitch": 52,
                "velocity": 80,
                "duration": 0.2840909,
                "tempo": 120.0
            },
            {
                "start_time": 50.7659091,
                "end_time": 51.5522727,
                "pitch": 40,
                "velocity": 80,
                "duration": 0.7863636,
                "tempo": 120.0
            },
            {
                "start_time": 51.7681818,
                "end_time": 51.8545455,
                "pitch": 47,
                "velocity": 80,
                "duration": 0.0863636,
                "tempo": 120.0
            },
            {
                "start_time": 51.8704545,
                "end_time": 51.9568182,
                "pitch": 48,
                "velocity": 80,
                "duration": 0.0863636,
                "tempo": 120.0
            },
            {
                "start_time": 51.975,
                "end_time": 52.0590909,
                "pitch": 36,
                "velocity": 80,
                "duration": 0.0840909,
                "tempo": 120.0
            },
            {
                "start_time": 52.0772727,
                "end_time": 52.1613636,
                "pitch": 36,
                "velocity": 80,
                "duration": 0.0840909,
                "tempo": 120.0
            },
            {
                "start_time": 52.375,
                "end_time": 52.4568182,
                "pitch": 47,
                "velocity": 80,
                "duration": 0.0818182,
                "tempo": 120.0
            },
            {
                "start_time": 52.4727273,
                "end_time": 52.5545455,
                "pitch": 48,
                "velocity": 80,
                "duration": 0.0818182,
                "tempo": 120.0
            },
            {
                "start_time": 52.6704545,
                "end_time": 52.75,
                "pitch": 36,
                "velocity": 80,
                "duration": 0.0795455,
                "tempo": 120.0
            },
            {
                "start_time": 52.8659091,
                "end_time": 52.9477273,
                "pitch": 36,
                "velocity": 80,
                "duration": 0.0818182,
                "tempo": 120.0
            },
            {
                "start_time": 52.9636364,
                "end_time": 53.05,
                "pitch": 45,
                "velocity": 80,
                "duration": 0.0863636,
                "tempo": 120.0
            },
            {
                "start_time": 53.0681818,
                "end_time": 53.1568182,
                "pitch": 36,
                "velocity": 80,
                "duration": 0.0886364,
                "tempo": 120.0
            },
            {
                "start_time": 53.175,
                "end_time": 53.2613636,
                "pitch": 47,
                "velocity": 80,
                "duration": 0.0863636,
                "tempo": 120.0
            },
            {
                "start_time": 53.3863636,
                "end_time": 53.4681818,
                "pitch": 47,
                "velocity": 80,
                "duration": 0.0818182,
                "tempo": 120.0
            },
            {
                "start_time": 53.4863636,
                "end_time": 53.5681818,
                "pitch": 48,
                "velocity": 80,
                "duration": 0.0818182,
                "tempo": 120.0
            },
            {
                "start_time": 53.5863636,
                "end_time": 53.6681818,
                "pitch": 36,
                "velocity": 80,
                "duration": 0.0818182,
                "tempo": 120.0
            },
            {
                "start_time": 53.6863636,
                "end_time": 53.7681818,
                "pitch": 36,
                "velocity": 80,
                "duration": 0.0818182,
                "tempo": 120.0
            },
            {
                "start_time": 54.0863636,
                "end_time": 54.2681818,
                "pitch": 33,
                "velocity": 80,
                "duration": 0.1818182,
                "tempo": 120.0
            },
            {
                "start_time": 54.2840909,
                "end_time": 54.3659091,
                "pitch": 33,
                "velocity": 80,
                "duration": 0.0818182,
                "tempo": 120.0
            },
            {
                "start_time": 54.3818182,
                "end_time": 54.4636364,
                "pitch": 43,
                "velocity": 80,
                "duration": 0.0818182,
                "tempo": 120.0
            },
            {
                "start_time": 54.4795455,
                "end_time": 54.5613636,
                "pitch": 33,
                "velocity": 80,
                "duration": 0.0818182,
                "tempo": 120.0
            },
            {
                "start_time": 54.5772727,
                "end_time": 54.9613636,
                "pitch": 35,
                "velocity": 80,
                "duration": 0.3840909,
                "tempo": 120.0
            },
            {
                "start_time": 54.9772727,
                "end_time": 55.0613636,
                "pitch": 48,
                "velocity": 80,
                "duration": 0.0840909,
                "tempo": 120.0
            },
            {
                "start_time": 55.0795455,
                "end_time": 55.1636364,
                "pitch": 50,
                "velocity": 80,
                "duration": 0.0840909,
                "tempo": 120.0
            },
            {
                "start_time": 55.1795455,
                "end_time": 55.2636364,
                "pitch": 38,
                "velocity": 80,
                "duration": 0.0840909,
                "tempo": 120.0
            },
            {
                "start_time": 55.2795455,
                "end_time": 55.3636364,
                "pitch": 38,
                "velocity": 80,
                "duration": 0.0840909,
                "tempo": 120.0
            },
            {
                "start_time": 55.5818182,
                "end_time": 55.6636364,
                "pitch": 48,
                "velocity": 80,
                "duration": 0.0818182,
                "tempo": 120.0
            },
            {
                "start_time": 55.6818182,
                "end_time": 55.7636364,
                "pitch": 50,
                "velocity": 80,
                "duration": 0.0818182,
                "tempo": 120.0
            },
            {
                "start_time": 55.7818182,
                "end_time": 55.8659091,
                "pitch": 36,
                "velocity": 80,
                "duration": 0.0840909,
                "tempo": 120.0
            },
            {
                "start_time": 55.8840909,
                "end_time": 55.9681818,
                "pitch": 36,
                "velocity": 80,
                "duration": 0.0840909,
                "tempo": 120.0
            },
            {
                "start_time": 56.1909091,
                "end_time": 56.2727273,
                "pitch": 48,
                "velocity": 80,
                "duration": 0.0818182,
                "tempo": 120.0
            },
            {
                "start_time": 56.2886364,
                "end_time": 56.3704545,
                "pitch": 50,
                "velocity": 80,
                "duration": 0.0818182,
                "tempo": 120.0
            },
            {
                "start_time": 56.3886364,
                "end_time": 56.4681818,
                "pitch": 36,
                "velocity": 80,
                "duration": 0.0795455,
                "tempo": 120.0
            },
            {
                "start_time": 56.4863636,
                "end_time": 56.5681818,
                "pitch": 36,
                "velocity": 80,
                "duration": 0.0818182,
                "tempo": 120.0
            },
            {
                "start_time": 56.5840909,
                "end_time": 56.6681818,
                "pitch": 48,
                "velocity": 80,
                "duration": 0.0840909,
                "tempo": 120.0
            },
            {
                "start_time": 56.6863636,
                "end_time": 56.7704545,
                "pitch": 50,
                "velocity": 80,
                "duration": 0.0840909,
                "tempo": 120.0
            },
            {
                "start_time": 56.7886364,
                "end_time": 56.875,
                "pitch": 36,
                "velocity": 80,
                "duration": 0.0863636,
                "tempo": 120.0
            },
            {
                "start_time": 56.8909091,
                "end_time": 56.9772727,
                "pitch": 36,
                "velocity": 80,
                "duration": 0.0863636,
                "tempo": 120.0
            },
            {
                "start_time": 57.2886364,
                "end_time": 57.4704545,
                "pitch": 33,
                "velocity": 80,
                "duration": 0.1818182,
                "tempo": 120.0
            },
            {
                "start_time": 57.4886364,
                "end_time": 57.575,
                "pitch": 33,
                "velocity": 80,
                "duration": 0.0863636,
                "tempo": 120.0
            },
            {
                "start_time": 57.5909091,
                "end_time": 57.6772727,
                "pitch": 45,
                "velocity": 80,
                "duration": 0.0863636,
                "tempo": 120.0
            },
            {
                "start_time": 57.6954545,
                "end_time": 57.7795455,
                "pitch": 33,
                "velocity": 80,
                "duration": 0.0840909,
                "tempo": 120.0
            },
            {
                "start_time": 57.7977273,
                "end_time": 58.1795455,
                "pitch": 42,
                "velocity": 80,
                "duration": 0.3818182,
                "tempo": 120.0
            },
            {
                "start_time": 58.1977273,
                "end_time": 58.2818182,
                "pitch": 33,
                "velocity": 80,
                "duration": 0.0840909,
                "tempo": 120.0
            },
            {
                "start_time": 58.2977273,
                "end_time": 58.3818182,
                "pitch": 33,
                "velocity": 80,
                "duration": 0.0840909,
                "tempo": 120.0
            },
            {
                "start_time": 58.3977273,
                "end_time": 58.4818182,
                "pitch": 45,
                "velocity": 80,
                "duration": 0.0840909,
                "tempo": 120.0
            },
            {
                "start_time": 58.5,
                "end_time": 58.5818182,
                "pitch": 33,
                "velocity": 80,
                "duration": 0.0818182,
                "tempo": 120.0
            },
            {
                "start_time": 59.0954545,
                "end_time": 59.2818182,
                "pitch": 33,
                "velocity": 80,
                "duration": 0.1863636,
                "tempo": 120.0
            },
            {
                "start_time": 59.3,
                "end_time": 59.3863636,
                "pitch": 33,
                "velocity": 80,
                "duration": 0.0863636,
                "tempo": 120.0
            },
            {
                "start_time": 59.4022727,
                "end_time": 59.4840909,
                "pitch": 45,
                "velocity": 80,
                "duration": 0.0818182,
                "tempo": 120.0
            },
            {
                "start_time": 59.5,
                "end_time": 59.5818182,
                "pitch": 33,
                "velocity": 80,
                "duration": 0.0818182,
                "tempo": 120.0
            },
            {
                "start_time": 59.5977273,
                "end_time": 59.6795455,
                "pitch": 33,
                "velocity": 80,
                "duration": 0.0818182,
                "tempo": 120.0
            },
            {
                "start_time": 59.6977273,
                "end_time": 59.7772727,
                "pitch": 33,
                "velocity": 80,
                "duration": 0.0795455,
                "tempo": 120.0
            },
            {
                "start_time": 59.7954545,
                "end_time": 59.8795455,
                "pitch": 35,
                "velocity": 80,
                "duration": 0.0840909,
                "tempo": 120.0
            },
            {
                "start_time": 59.8977273,
                "end_time": 59.9818182,
                "pitch": 35,
                "velocity": 80,
                "duration": 0.0840909,
                "tempo": 120.0
            },
            {
                "start_time": 60.0,
                "end_time": 60.0840909,
                "pitch": 47,
                "velocity": 80,
                "duration": 0.0840909,
                "tempo": 120.0
            },
            {
                "start_time": 60.1022727,
                "end_time": 60.1886364,
                "pitch": 35,
                "velocity": 80,
                "duration": 0.0863636,
                "tempo": 120.0
            },
            {
                "start_time": 60.6954545,
                "end_time": 60.875,
                "pitch": 35,
                "velocity": 80,
                "duration": 0.1795455,
                "tempo": 120.0
            },
            {
                "start_time": 60.8909091,
                "end_time": 60.9727273,
                "pitch": 35,
                "velocity": 80,
                "duration": 0.0818182,
                "tempo": 120.0
            },
            {
                "start_time": 60.9886364,
                "end_time": 61.075,
                "pitch": 47,
                "velocity": 80,
                "duration": 0.0863636,
                "tempo": 120.0
            },
            {
                "start_time": 61.0931818,
                "end_time": 61.1772727,
                "pitch": 48,
                "velocity": 80,
                "duration": 0.0840909,
                "tempo": 120.0
            },
            {
                "start_time": 61.1954545,
                "end_time": 61.2795455,
                "pitch": 47,
                "velocity": 80,
                "duration": 0.0840909,
                "tempo": 120.0
            },
            {
                "start_time": 61.4,
                "end_time": 61.4863636,
                "pitch": 36,
                "velocity": 80,
                "duration": 0.0863636,
                "tempo": 120.0
            },
            {
                "start_time": 61.5022727,
                "end_time": 61.5886364,
                "pitch": 36,
                "velocity": 80,
                "duration": 0.0863636,
                "tempo": 120.0
            },
            {
                "start_time": 61.6068182,
                "end_time": 61.6909091,
                "pitch": 36,
                "velocity": 80,
                "duration": 0.0840909,
                "tempo": 120.0
            },
            {
                "start_time": 61.7090909,
                "end_time": 61.7931818,
                "pitch": 50,
                "velocity": 80,
                "duration": 0.0840909,
                "tempo": 120.0
            },
            {
                "start_time": 61.9090909,
                "end_time": 61.9909091,
                "pitch": 36,
                "velocity": 80,
                "duration": 0.0818182,
                "tempo": 120.0
            },
            {
                "start_time": 62.0068182,
                "end_time": 62.0886364,
                "pitch": 47,
                "velocity": 80,
                "duration": 0.0818182,
                "tempo": 120.0
            },
            {
                "start_time": 62.1045455,
                "end_time": 62.1863636,
                "pitch": 48,
                "velocity": 80,
                "duration": 0.0818182,
                "tempo": 120.0
            },
            {
                "start_time": 62.2045455,
                "end_time": 62.2863636,
                "pitch": 36,
                "velocity": 80,
                "duration": 0.0818182,
                "tempo": 120.0
            },
            {
                "start_time": 62.3045455,
                "end_time": 62.3863636,
                "pitch": 36,
                "velocity": 80,
                "duration": 0.0818182,
                "tempo": 120.0
            },
            {
                "start_time": 62.4045455,
                "end_time": 62.4863636,
                "pitch": 48,
                "velocity": 80,
                "duration": 0.0818182,
                "tempo": 120.0
            },
            {
                "start_time": 62.6045455,
                "end_time": 62.6863636,
                "pitch": 35,
                "velocity": 80,
                "duration": 0.0818182,
                "tempo": 120.0
            },
            {
                "start_time": 62.7045455,
                "end_time": 62.8863636,
                "pitch": 36,
                "velocity": 80,
                "duration": 0.1818182,
                "tempo": 120.0
            },
            {
                "start_time": 62.9045455,
                "end_time": 62.9863636,
                "pitch": 38,
                "velocity": 80,
                "duration": 0.0818182,
                "tempo": 120.0
            },
            {
                "start_time": 63.0045455,
                "end_time": 63.2886364,
                "pitch": 38,
                "velocity": 80,
                "duration": 0.2840909,
                "tempo": 120.0
            },
            {
                "start_time": 63.3045455,
                "end_time": 63.3886364,
                "pitch": 38,
                "velocity": 80,
                "duration": 0.0840909,
                "tempo": 120.0
            },
            {
                "start_time": 63.4068182,
                "end_time": 63.4886364,
                "pitch": 50,
                "velocity": 80,
                "duration": 0.0818182,
                "tempo": 120.0
            },
            {
                "start_time": 63.5068182,
                "end_time": 63.7886364,
                "pitch": 38,
                "velocity": 80,
                "duration": 0.2818182,
                "tempo": 120.0
            },
            {
                "start_time": 63.8068182,
                "end_time": 64.0977273,
                "pitch": 39,
                "velocity": 80,
                "duration": 0.2909091,
                "tempo": 120.0
            },
            {
                "start_time": 64.1136364,
                "end_time": 64.2,
                "pitch": 39,
                "velocity": 80,
                "duration": 0.0863636,
                "tempo": 120.0
            },
            {
                "start_time": 64.2159091,
                "end_time": 64.2977273,
                "pitch": 51,
                "velocity": 80,
                "duration": 0.0818182,
                "tempo": 120.0
            },
            {
                "start_time": 64.3159091,
                "end_time": 64.4954545,
                "pitch": 39,
                "velocity": 80,
                "duration": 0.1795455,
                "tempo": 120.0
            },
            {
                "start_time": 64.5113636,
                "end_time": 64.6113636,
                "pitch": 40,
                "velocity": 80,
                "duration": 0.1,
                "tempo": 120.0
            }
        ],
        "Harpsichord": [
            {
                "start_time": 0.7977273,
                "end_time": 1.0977273,
                "pitch": 62,
                "velocity": 64,
                "duration": 0.3,
                "tempo": 120.0
            },
            {
                "start_time": 1.1159091,
                "end_time": 1.7045455,
                "pitch": 64,
                "velocity": 64,
                "duration": 0.5886364,
                "tempo": 120.0
            },
            {
                "start_time": 2.3227273,
                "end_time": 2.6113636,
                "pitch": 62,
                "velocity": 64,
                "duration": 0.2886364,
                "tempo": 120.0
            },
            {
                "start_time": 2.6295455,
                "end_time": 3.2090909,
                "pitch": 62,
                "velocity": 64,
                "duration": 0.5795455,
                "tempo": 120.0
            },
            {
                "start_time": 4.0181818,
                "end_time": 4.3090909,
                "pitch": 62,
                "velocity": 64,
                "duration": 0.2909091,
                "tempo": 120.0
            },
            {
                "start_time": 4.3272727,
                "end_time": 4.9159091,
                "pitch": 64,
                "velocity": 64,
                "duration": 0.5886364,
                "tempo": 120.0
            },
            {
                "start_time": 5.5363636,
                "end_time": 5.8227273,
                "pitch": 62,
                "velocity": 64,
                "duration": 0.2863636,
                "tempo": 120.0
            },
            {
                "start_time": 5.8409091,
                "end_time": 6.5204545,
                "pitch": 62,
                "velocity": 64,
                "duration": 0.6795455,
                "tempo": 120.0
            },
            {
                "start_time": 7.25,
                "end_time": 7.5340909,
                "pitch": 62,
                "velocity": 64,
                "duration": 0.2840909,
                "tempo": 120.0
            },
            {
                "start_time": 7.5522727,
                "end_time": 8.1272727,
                "pitch": 64,
                "velocity": 64,
                "duration": 0.575,
                "tempo": 120.0
            },
            {
                "start_time": 8.7477273,
                "end_time": 9.0318182,
                "pitch": 62,
                "velocity": 64,
                "duration": 0.2840909,
                "tempo": 120.0
            },
            {
                "start_time": 9.0522727,
                "end_time": 9.6409091,
                "pitch": 62,
                "velocity": 64,
                "duration": 0.5886364,
                "tempo": 120.0
            },
            {
                "start_time": 10.4613636,
                "end_time": 10.7454545,
                "pitch": 62,
                "velocity": 64,
                "duration": 0.2840909,
                "tempo": 120.0
            },
            {
                "start_time": 10.7636364,
                "end_time": 11.3409091,
                "pitch": 64,
                "velocity": 64,
                "duration": 0.5772727,
                "tempo": 120.0
            },
            {
                "start_time": 12.0522727,
                "end_time": 12.2386364,
                "pitch": 59,
                "velocity": 64,
                "duration": 0.1863636,
                "tempo": 120.0
            },
            {
                "start_time": 12.3590909,
                "end_time": 12.4454545,
                "pitch": 59,
                "velocity": 64,
                "duration": 0.0863636,
                "tempo": 120.0
            },
            {
                "start_time": 12.5590909,
                "end_time": 12.6409091,
                "pitch": 62,
                "velocity": 64,
                "duration": 0.0818182,
                "tempo": 120.0
            },
            {
                "start_time": 13.2659091,
                "end_time": 15.6613636,
                "pitch": 62,
                "velocity": 64,
                "duration": 2.3954545,
                "tempo": 120.0
            },
            {
                "start_time": 15.6795455,
                "end_time": 15.8613636,
                "pitch": 66,
                "velocity": 64,
                "duration": 0.1818182,
                "tempo": 120.0
            },
            {
                "start_time": 15.8795455,
                "end_time": 15.9613636,
                "pitch": 67,
                "velocity": 64,
                "duration": 0.0818182,
                "tempo": 120.0
            },
            {
                "start_time": 15.9795455,
                "end_time": 16.1613636,
                "pitch": 69,
                "velocity": 64,
                "duration": 0.1818182,
                "tempo": 120.0
            },
            {
                "start_time": 16.1795455,
                "end_time": 16.3636364,
                "pitch": 66,
                "velocity": 64,
                "duration": 0.1840909,
                "tempo": 120.0
            },
            {
                "start_time": 16.3818182,
                "end_time": 16.4636364,
                "pitch": 62,
                "velocity": 64,
                "duration": 0.0818182,
                "tempo": 120.0
            },
            {
                "start_time": 16.4818182,
                "end_time": 19.6727273,
                "pitch": 64,
                "velocity": 64,
                "duration": 3.1909091,
                "tempo": 120.0
            },
            {
                "start_time": 19.6909091,
                "end_time": 21.2863636,
                "pitch": 64,
                "velocity": 64,
                "duration": 1.5954545,
                "tempo": 120.0
            },
            {
                "start_time": 21.3045455,
                "end_time": 22.8909091,
                "pitch": 66,
                "velocity": 64,
                "duration": 1.5863636,
                "tempo": 120.0
            },
            {
                "start_time": 22.9090909,
                "end_time": 24.8863636,
                "pitch": 62,
                "velocity": 64,
                "duration": 1.9772727,
                "tempo": 120.0
            },
            {
                "start_time": 25.2954545,
                "end_time": 25.5931818,
                "pitch": 66,
                "velocity": 64,
                "duration": 0.2977273,
                "tempo": 120.0
            },
            {
                "start_time": 25.6136364,
                "end_time": 25.7954545,
                "pitch": 64,
                "velocity": 64,
                "duration": 0.1818182,
                "tempo": 120.0
            },
            {
                "start_time": 25.8113636,
                "end_time": 26.0818182,
                "pitch": 62,
                "velocity": 64,
                "duration": 0.2704545,
                "tempo": 120.0
            },
            {
                "start_time": 26.1,
                "end_time": 28.5022727,
                "pitch": 62,
                "velocity": 64,
                "duration": 2.4022727,
                "tempo": 120.0
            },
            {
                "start_time": 28.5181818,
                "end_time": 28.7,
                "pitch": 66,
                "velocity": 64,
                "duration": 0.1818182,
                "tempo": 120.0
            },
            {
                "start_time": 28.7181818,
                "end_time": 28.8,
                "pitch": 67,
                "velocity": 64,
                "duration": 0.0818182,
                "tempo": 120.0
            },
            {
                "start_time": 28.8181818,
                "end_time": 29.0022727,
                "pitch": 69,
                "velocity": 64,
                "duration": 0.1840909,
                "tempo": 120.0
            },
            {
                "start_time": 29.0204545,
                "end_time": 29.2090909,
                "pitch": 66,
                "velocity": 64,
                "duration": 0.1886364,
                "tempo": 120.0
            },
            {
                "start_time": 29.2272727,
                "end_time": 29.3113636,
                "pitch": 62,
                "velocity": 64,
                "duration": 0.0840909,
                "tempo": 120.0
            },
            {
                "start_time": 29.3295455,
                "end_time": 32.5090909,
                "pitch": 64,
                "velocity": 64,
                "duration": 3.1795455,
                "tempo": 120.0
            },
            {
                "start_time": 32.5272727,
                "end_time": 34.1136364,
                "pitch": 64,
                "velocity": 64,
                "duration": 1.5863636,
                "tempo": 120.0
            },
            {
                "start_time": 34.1295455,
                "end_time": 35.725,
                "pitch": 66,
                "velocity": 64,
                "duration": 1.5954545,
                "tempo": 120.0
            },
            {
                "start_time": 35.7431818,
                "end_time": 37.2227273,
                "pitch": 62,
                "velocity": 64,
                "duration": 1.4795455,
                "tempo": 120.0
            },
            {
                "start_time": 37.2409091,
                "end_time": 38.1204545,
                "pitch": 71,
                "velocity": 64,
                "duration": 0.8795455,
                "tempo": 120.0
            },
            {
                "start_time": 38.1386364,
                "end_time": 38.4295455,
                "pitch": 71,
                "velocity": 64,
                "duration": 0.2909091,
                "tempo": 120.0
            },
            {
                "start_time": 38.9318182,
                "end_time": 40.5272727,
                "pitch": 64,
                "velocity": 64,
                "duration": 1.5954545,
                "tempo": 120.0
            },
            {
                "start_time": 40.5454545,
                "end_time": 42.1318182,
                "pitch": 69,
                "velocity": 64,
                "duration": 1.5863636,
                "tempo": 120.0
            },
            {
                "start_time": 42.15,
                "end_time": 43.7363636,
                "pitch": 62,
                "velocity": 64,
                "duration": 1.5863636,
                "tempo": 120.0
            },
            {
                "start_time": 44.5636364,
                "end_time": 44.7431818,
                "pitch": 66,
                "velocity": 64,
                "duration": 0.1795455,
                "tempo": 120.0
            },
            {
                "start_time": 44.7590909,
                "end_time": 44.8409091,
                "pitch": 67,
                "velocity": 64,
                "duration": 0.0818182,
                "tempo": 120.0
            },
            {
                "start_time": 44.8568182,
                "end_time": 45.0386364,
                "pitch": 66,
                "velocity": 64,
                "duration": 0.1818182,
                "tempo": 120.0
            },
            {
                "start_time": 45.0568182,
                "end_time": 45.3409091,
                "pitch": 62,
                "velocity": 64,
                "duration": 0.2840909,
                "tempo": 120.0
            },
            {
                "start_time": 45.3590909,
                "end_time": 46.5522727,
                "pitch": 64,
                "velocity": 64,
                "duration": 1.1931818,
                "tempo": 120.0
            },
            {
                "start_time": 46.5704545,
                "end_time": 46.9522727,
                "pitch": 69,
                "velocity": 64,
                "duration": 0.3818182,
                "tempo": 120.0
            },
            {
                "start_time": 46.9704545,
                "end_time": 47.6522727,
                "pitch": 66,
                "velocity": 64,
                "duration": 0.6818182,
                "tempo": 120.0
            },
            {
                "start_time": 48.2681818,
                "end_time": 48.5454545,
                "pitch": 71,
                "velocity": 64,
                "duration": 0.2772727,
                "tempo": 120.0
            },
            {
                "start_time": 48.5613636,
                "end_time": 49.15,
                "pitch": 69,
                "velocity": 64,
                "duration": 0.5886364,
                "tempo": 120.0
            },
            {
                "start_time": 49.1681818,
                "end_time": 51.2522727,
                "pitch": 71,
                "velocity": 64,
                "duration": 2.0840909,
                "tempo": 120.0
            },
            {
                "start_time": 51.7704545,
                "end_time": 52.85,
                "pitch": 71,
                "velocity": 64,
                "duration": 1.0795455,
                "tempo": 120.0
            },
            {
                "start_time": 52.8659091,
                "end_time": 53.1568182,
                "pitch": 69,
                "velocity": 64,
                "duration": 0.2909091,
                "tempo": 120.0
            },
            {
                "start_time": 56.1931818,
                "end_time": 56.5681818,
                "pitch": 62,
                "velocity": 64,
                "duration": 0.375,
                "tempo": 120.0
            },
            {
                "start_time": 58.1977273,
                "end_time": 59.7772727,
                "pitch": 64,
                "velocity": 64,
                "duration": 1.5795455,
                "tempo": 120.0
            },
            {
                "start_time": 59.7954545,
                "end_time": 61.3840909,
                "pitch": 66,
                "velocity": 64,
                "duration": 1.5886364,
                "tempo": 120.0
            },
            {
                "start_time": 61.4022727,
                "end_time": 62.5863636,
                "pitch": 64,
                "velocity": 64,
                "duration": 1.1840909,
                "tempo": 120.0
            },
            {
                "start_time": 62.6045455,
                "end_time": 62.8863636,
                "pitch": 64,
                "velocity": 64,
                "duration": 0.2818182,
                "tempo": 120.0
            },
            {
                "start_time": 62.9045455,
                "end_time": 63.3886364,
                "pitch": 66,
                "velocity": 64,
                "duration": 0.4840909,
                "tempo": 120.0
            },
            {
                "start_time": 63.8068182,
                "end_time": 64.2,
                "pitch": 66,
                "velocity": 64,
                "duration": 0.3931818,
                "tempo": 120.0
            }
        ]
    }
}