{
    "mood": "happy",
    "instruments": {
        "Flute": [
            {
                "start_time": 0.0,
                "end_time": 0.0522727,
                "pitch": 84,
                "velocity": 64,
                "duration": 0.0522727,
                "tempo": 120.0
            },
            {
                "start_time": 0.0636364,
                "end_time": 0.1204545,
                "pitch": 82,
                "velocity": 64,
                "duration": 0.0568182,
                "tempo": 120.0
            },
            {
                "start_time": 0.1363636,
                "end_time": 0.3204545,
                "pitch": 81,
                "velocity": 64,
                "duration": 0.1840909,
                "tempo": 120.0
            },
            {
                "start_time": 0.3363636,
                "end_time": 0.5204545,
                "pitch": 81,
                "velocity": 64,
                "duration": 0.1840909,
                "tempo": 120.0
            },
            {
                "start_time": 0.5363636,
                "end_time": 0.6204545,
                "pitch": 81,
                "velocity": 64,
                "duration": 0.0840909,
                "tempo": 120.0
            },
            {
                "start_time": 0.6363636,
                "end_time": 0.8227273,
                "pitch": 79,
                "velocity": 64,
                "duration": 0.1863636,
                "tempo": 120.0
            },
            {
                "start_time": 0.8409091,
                "end_time": 1.0318182,
                "pitch": 84,
                "velocity": 64,
                "duration": 0.1909091,
                "tempo": 120.0
            },
            {
                "start_time": 1.0477273,
                "end_time": 1.1340909,
                "pitch": 82,
                "velocity": 64,
                "duration": 0.0863636,
                "tempo": 120.0
            },
            {
                "start_time": 1.1522727,
                "end_time": 1.3431818,
                "pitch": 81,
                "velocity": 64,
                "duration": 0.1909091,
                "tempo": 120.0
            },
            {
                "start_time": 1.3590909,
                "end_time": 1.5386364,
                "pitch": 79,
                "velocity": 64,
                "duration": 0.1795455,
                "tempo": 120.0
            },
            {
                "start_time": 1.5545455,
                "end_time": 1.6340909,
                "pitch": 84,
                "velocity": 64,
                "duration": 0.0795455,
                "tempo": 120.0
            },
            {
                "start_time": 1.65,
                "end_time": 1.7318182,
                "pitch": 82,
                "velocity": 64,
                "duration": 0.0818182,
                "tempo": 120.0
            },
            {
                "start_time": 1.7477273,
                "end_time": 1.925,
                "pitch": 81,
                "velocity": 64,
                "duration": 0.1772727,
                "tempo": 120.0
            },
            {
                "start_time": 1.9431818,
                "end_time": 2.1340909,
                "pitch": 81,
                "velocity": 64,
                "duration": 0.1909091,
                "tempo": 120.0
            },
            {
                "start_time": 2.15,
                "end_time": 2.2363636,
                "pitch": 81,
                "velocity": 64,
                "duration": 0.0863636,
                "tempo": 120.0
            },
            {
                "start_time": 2.2545455,
                "end_time": 2.4454545,
                "pitch": 79,
                "velocity": 64,
                "duration": 0.1909091,
                "tempo": 120.0
            },
            {
                "start_time": 2.4636364,
                "end_time": 2.65,
                "pitch": 79,
                "velocity": 64,
                "duration": 0.1863636,
                "tempo": 120.0
            },
            {
                "start_time": 2.6659091,
                "end_time": 2.7477273,
                "pitch": 79,
                "velocity": 64,
                "duration": 0.0818182,
                "tempo": 120.0
            },
            {
                "start_time": 2.7636364,
                "end_time": 2.9454545,
                "pitch": 84,
                "velocity": 64,
                "duration": 0.1818182,
                "tempo": 120.0
            },
            {
                "start_time": 2.9636364,
                "end_time": 3.1431818,
                "pitch": 82,
                "velocity": 64,
                "duration": 0.1795455,
                "tempo": 120.0
            },
            {
                "start_time": 3.1613636,
                "end_time": 3.7568182,
                "pitch": 75,
                "velocity": 64,
                "duration": 0.5954545,
                "tempo": 120.0
            },
            {
                "start_time": 3.7727273,
                "end_time": 4.1522727,
                "pitch": 75,
                "velocity": 64,
                "duration": 0.3795455,
                "tempo": 120.0
            },
            {
                "start_time": 4.1681818,
                "end_time": 4.35,
                "pitch": 82,
                "velocity": 64,
                "duration": 0.1818182,
                "tempo": 120.0
            },
            {
                "start_time": 4.3659091,
                "end_time": 4.55,
                "pitch": 81,
                "velocity": 64,
                "duration": 0.1840909,
                "tempo": 120.0
            },
            {
                "start_time": 4.5659091,
                "end_time": 4.75,
                "pitch": 79,
                "velocity": 64,
                "duration": 0.1840909,
                "tempo": 120.0
            },
            {
                "start_time": 4.7659091,
                "end_time": 5.3545455,
                "pitch": 77,
                "velocity": 64,
                "duration": 0.5886364,
                "tempo": 120.0
            },
            {
                "start_time": 5.3704545,
                "end_time": 5.9568182,
                "pitch": 84,
                "velocity": 64,
                "duration": 0.5863636,
                "tempo": 120.0
            },
            {
                "start_time": 5.9727273,
                "end_time": 6.3590909,
                "pitch": 81,
                "velocity": 64,
                "duration": 0.3863636,
                "tempo": 120.0
            },
            {
                "start_time": 6.375,
                "end_time": 6.4590909,
                "pitch": 79,
                "velocity": 64,
                "duration": 0.0840909,
                "tempo": 120.0
            },
            {
                "start_time": 6.475,
                "end_time": 6.6613636,
                "pitch": 79,
                "velocity": 64,
                "duration": 0.1863636,
                "tempo": 120.0
            },
            {
                "start_time": 6.6772727,
                "end_time": 6.7613636,
                "pitch": 79,
                "velocity": 64,
                "duration": 0.0840909,
                "tempo": 120.0
            },
            {
                "start_time": 6.7795455,
                "end_time": 6.9613636,
                "pitch": 79,
                "velocity": 64,
                "duration": 0.1818182,
                "tempo": 120.0
            },
            {
                "start_time": 6.9795455,
                "end_time": 7.0613636,
                "pitch": 79,
                "velocity": 64,
                "duration": 0.0818182,
                "tempo": 120.0
            },
            {
                "start_time": 7.0795455,
                "end_time": 7.2295455,
                "pitch": 79,
                "velocity": 64,
                "duration": 0.15,
                "tempo": 120.0
            }
        ],
        "Electric Guitar (clean)": [
            {
                "start_time": 0.0090909,
                "end_time": 0.0522727,
                "pitch": 48,
                "velocity": 40,
                "duration": 0.0431818,
                "tempo": 120.0
            },
            {
                "start_time": 0.0636364,
                "end_time": 0.1204545,
                "pitch": 57,
                "velocity": 40,
                "duration": 0.0568182,
                "tempo": 120.0
            },
            {
                "start_time": 0.1363636,
                "end_time": 0.3204545,
                "pitch": 58,
                "velocity": 40,
                "duration": 0.1840909,
                "tempo": 120.0
            },
            {
                "start_time": 0.3363636,
                "end_time": 0.5204545,
                "pitch": 48,
                "velocity": 40,
                "duration": 0.1840909,
                "tempo": 120.0
            },
            {
                "start_time": 0.5363636,
                "end_time": 0.6204545,
                "pitch": 55,
                "velocity": 40,
                "duration": 0.0840909,
                "tempo": 120.0
            },
            {
                "start_time": 0.6363636,
                "end_time": 0.8227273,
                "pitch": 55,
                "velocity": 40,
                "duration": 0.1863636,
                "tempo": 120.0
            },
            {
                "start_time": 0.8409091,
                "end_time": 1.0318182,
                "pitch": 57,
                "velocity": 40,
                "duration": 0.1909091,
                "tempo": 120.0
            },
            {
                "start_time": 1.0477273,
                "end_time": 1.1340909,
                "pitch": 58,
                "velocity": 40,
                "duration": 0.0863636,
                "tempo": 120.0
            },
            {
                "start_time": 1.1522727,
                "end_time": 1.3431818,
                "pitch": 58,
                "velocity": 40,
                "duration": 0.1909091,
                "tempo": 120.0
            },
            {
                "start_time": 1.3590909,
                "end_time": 1.5386364,
                "pitch": 55,
                "velocity": 40,
                "duration": 0.1795455,
                "tempo": 120.0
            },
            {
                "start_time": 1.5545455,
                "end_time": 1.6340909,
                "pitch": 48,
                "velocity": 40,
                "duration": 0.0795455,
                "tempo": 120.0
            },
            {
                "start_time": 1.65,
                "end_time": 1.7318182,
                "pitch": 57,
                "velocity": 40,
                "duration": 0.0818182,
                "tempo": 120.0
            },
            {
                "start_time": 1.7477273,
                "end_time": 1.925,
                "pitch": 58,
                "velocity": 40,
                "duration": 0.1772727,
                "tempo": 120.0
            },
            {
                "start_time": 1.9431818,
                "end_time": 2.1340909,
                "pitch": 48,
                "velocity": 40,
                "duration": 0.1909091,
                "tempo": 120.0
            },
            {
                "start_time": 2.15,
                "end_time": 2.2363636,
                "pitch": 55,
                "velocity": 40,
                "duration": 0.0863636,
                "tempo": 120.0
            },
            {
                "start_time": 2.2545455,
                "end_time": 2.4454545,
                "pitch": 57,
                "velocity": 40,
                "duration": 0.1909091,
                "tempo": 120.0
            },
            {
                "start_time": 2.4636364,
                "end_time": 2.65,
                "pitch": 58,
                "velocity": 40,
                "duration": 0.1863636,
                "tempo": 120.0
            },
            {
                "start_time": 2.6659091,
                "end_time": 2.7477273,
                "pitch": 57,
                "velocity": 40,
                "duration": 0.0818182,
                "tempo": 120.0
            },
            {
                "start_time": 2.7636364,
                "end_time": 2.9454545,
                "pitch": 55,
                "velocity": 40,
                "duration": 0.1818182,
                "tempo": 120.0
            },
            {
                "start_time": 2.9636364,
                "end_time": 3.1431818,
                "pitch": 57,
                "velocity": 40,
                "duration": 0.1795455,
                "tempo": 120.0
            },
            {
                "start_time": 3.1613636,
                "end_time": 3.45,
                "pitch": 44,
                "velocity": 40,
                "duration": 0.2886364,
                "tempo": 120.0
            },
            {
                "start_time": 3.4659091,
                "end_time": 3.7568182,
                "pitch": 44,
                "velocity": 40,
                "duration": 0.2909091,
                "tempo": 120.0
            },
            {
                "start_time": 3.7727273,
                "end_time": 4.1522727,
                "pitch": 51,
                "velocity": 40,
                "duration": 0.3795455,
                "tempo": 120.0
            },
            {
                "start_time": 4.1681818,
                "end_time": 4.35,
                "pitch": 51,
                "velocity": 40,
                "duration": 0.1818182,
                "tempo": 120.0
            },
            {
                "start_time": 4.3659091,
                "end_time": 4.75,
                "pitch": 51,
                "velocity": 40,
                "duration": 0.3840909,
                "tempo": 120.0
            },
            {
                "start_time": 4.7659091,
                "end_time": 5.05,
                "pitch": 46,
                "velocity": 40,
                "duration": 0.2840909,
                "tempo": 120.0
            },
            {
                "start_time": 5.0681818,
                "end_time": 5.1522727,
                "pitch": 46,
                "velocity": 40,
                "duration": 0.0840909,
                "tempo": 120.0
            },
            {
                "start_time": 5.1681818,
                "end_time": 5.3545455,
                "pitch": 46,
                "velocity": 40,
                "duration": 0.1863636,
                "tempo": 120.0
            },
            {
                "start_time": 5.3704545,
                "end_time": 5.7568182,
                "pitch": 53,
                "velocity": 40,
                "duration": 0.3863636,
                "tempo": 120.0
            },
            {
                "start_time": 5.7727273,
                "end_time": 5.9568182,
                "pitch": 46,
                "velocity": 40,
                "duration": 0.1840909,
                "tempo": 120.0
            },
            {
                "start_time": 5.9727273,
                "end_time": 6.3590909,
                "pitch": 53,
                "velocity": 40,
                "duration": 0.3863636,
                "tempo": 120.0
            },
            {
                "start_time": 6.375,
                "end_time": 6.4590909,
                "pitch": 48,
                "velocity": 40,
                "duration": 0.0840909,
                "tempo": 120.0
            },
            {
                "start_time": 6.475,
                "end_time": 6.6613636,
                "pitch": 48,
                "velocity": 40,
                "duration": 0.1863636,
                "tempo": 120.0
            },
            {
                "start_time": 6.6772727,
                "end_time": 6.7613636,
                "pitch": 48,
                "velocity": 40,
                "duration": 0.0840909,
                "tempo": 120.0
            },
            {
                "start_time": 6.7795455,
                "end_time": 6.9613636,
                "pitch": 48,
                "velocity": 40,
                "duration": 0.1818182,
                "tempo": 120.0
            },
            {
                "start_time": 6.9795455,
                "end_time": 7.1295455,
                "pitch": 48,
                "velocity": 40,
                "duration": 0.15,
                "tempo": 120.0
            }
        ],
        "Lead 2 (sawtooth)": [
            {
                "start_time": 0.0090909,
                "end_time": 0.0522727,
                "pitch": 91,
                "velocity": 51,
                "duration": 0.0431818,
                "tempo": 120.0
            },
            {
                "start_time": 0.0636364,
                "end_time": 0.1204545,
                "pitch": 89,
                "velocity": 51,
                "duration": 0.0568182,
                "tempo": 120.0
            },
            {
                "start_time": 0.1363636,
                "end_time": 0.2204545,
                "pitch": 88,
                "velocity": 51,
                "duration": 0.0840909,
                "tempo": 120.0
            },
            {
                "start_time": 0.2363636,
                "end_time": 0.3204545,
                "pitch": 86,
                "velocity": 51,
                "duration": 0.0840909,
                "tempo": 120.0
            },
            {
                "start_time": 0.3363636,
                "end_time": 0.4204545,
                "pitch": 89,
                "velocity": 51,
                "duration": 0.0840909,
                "tempo": 120.0
            },
            {
                "start_time": 0.4363636,
                "end_time": 0.5204545,
                "pitch": 88,
                "velocity": 51,
                "duration": 0.0840909,
                "tempo": 120.0
            },
            {
                "start_time": 0.5363636,
                "end_time": 0.6204545,
                "pitch": 86,
                "velocity": 51,
                "duration": 0.0840909,
                "tempo": 120.0
            },
            {
                "start_time": 0.6363636,
                "end_time": 0.7204545,
                "pitch": 84,
                "velocity": 51,
                "duration": 0.0840909,
                "tempo": 120.0
            },
            {
                "start_time": 0.7363636,
                "end_time": 0.8227273,
                "pitch": 84,
                "velocity": 51,
                "duration": 0.0863636,
                "tempo": 120.0
            },
            {
                "start_time": 0.8409091,
                "end_time": 0.9272727,
                "pitch": 86,
                "velocity": 51,
                "duration": 0.0863636,
                "tempo": 120.0
            },
            {
                "start_time": 0.9431818,
                "end_time": 1.0318182,
                "pitch": 88,
                "velocity": 51,
                "duration": 0.0886364,
                "tempo": 120.0
            },
            {
                "start_time": 1.0477273,
                "end_time": 1.1340909,
                "pitch": 89,
                "velocity": 51,
                "duration": 0.0863636,
                "tempo": 120.0
            },
            {
                "start_time": 1.1522727,
                "end_time": 1.2386364,
                "pitch": 91,
                "velocity": 51,
                "duration": 0.0863636,
                "tempo": 120.0
            },
            {
                "start_time": 1.2568182,
                "end_time": 1.3431818,
                "pitch": 89,
                "velocity": 51,
                "duration": 0.0863636,
                "tempo": 120.0
            },
            {
                "start_time": 1.3590909,
                "end_time": 1.4409091,
                "pitch": 88,
                "velocity": 51,
                "duration": 0.0818182,
                "tempo": 120.0
            },
            {
                "start_time": 1.4568182,
                "end_time": 1.5386364,
                "pitch": 86,
                "velocity": 51,
                "duration": 0.0818182,
                "tempo": 120.0
            },
            {
                "start_time": 1.5545455,
                "end_time": 1.6340909,
                "pitch": 91,
                "velocity": 51,
                "duration": 0.0795455,
                "tempo": 120.0
            },
            {
                "start_time": 1.65,
                "end_time": 1.7318182,
                "pitch": 89,
                "velocity": 51,
                "duration": 0.0818182,
                "tempo": 120.0
            },
            {
                "start_time": 1.7477273,
                "end_time": 1.8295455,
                "pitch": 88,
                "velocity": 51,
                "duration": 0.0818182,
                "tempo": 120.0
            },
            {
                "start_time": 1.8454545,
                "end_time": 1.925,
                "pitch": 86,
                "velocity": 51,
                "duration": 0.0795455,
                "tempo": 120.0
            },
            {
                "start_time": 1.9431818,
                "end_time": 2.0295455,
                "pitch": 89,
                "velocity": 51,
                "duration": 0.0863636,
                "tempo": 120.0
            },
            {
                "start_time": 2.0454545,
                "end_time": 2.1340909,
                "pitch": 88,
                "velocity": 51,
                "duration": 0.0886364,
                "tempo": 120.0
            },
            {
                "start_time": 2.15,
                "end_time": 2.2363636,
                "pitch": 86,
                "velocity": 51,
                "duration": 0.0863636,
                "tempo": 120.0
            },
            {
                "start_time": 2.2545455,
                "end_time": 2.3409091,
                "pitch": 84,
                "velocity": 51,
                "duration": 0.0863636,
                "tempo": 120.0
            },
            {
                "start_time": 2.3590909,
                "end_time": 2.4454545,
                "pitch": 84,
                "velocity": 51,
                "duration": 0.0863636,
                "tempo": 120.0
            },
            {
                "start_time": 2.4636364,
                "end_time": 2.55,
                "pitch": 86,
                "velocity": 51,
                "duration": 0.0863636,
                "tempo": 120.0
            },
            {
                "start_time": 2.5659091,
                "end_time": 2.65,
                "pitch": 88,
                "velocity": 51,
                "duration": 0.0840909,
                "tempo": 120.0
            },
            {
                "start_time": 2.6659091,
                "end_time": 2.7477273,
                "pitch": 89,
                "velocity": 51,
                "duration": 0.0818182,
                "tempo": 120.0
            },
            {
                "start_time": 2.7636364,
                "end_time": 2.8477273,
                "pitch": 91,
                "velocity": 51,
                "duration": 0.0840909,
                "tempo": 120.0
            },
            {
                "start_time": 2.8636364,
                "end_time": 2.9454545,
                "pitch": 91,
                "velocity": 51,
                "duration": 0.0818182,
                "tempo": 120.0
            },
            {
                "start_time": 2.9636364,
                "end_time": 3.0454545,
                "pitch": 91,
                "velocity": 51,
                "duration": 0.0818182,
                "tempo": 120.0
            },
            {
                "start_time": 3.0613636,
                "end_time": 3.1431818,
                "pitch": 91,
                "velocity": 51,
                "duration": 0.0818182,
                "tempo": 120.0
            },
            {
                "start_time": 3.1613636,
                "end_time": 3.7568182,
                "pitch": 80,
                "velocity": 51,
                "duration": 0.5954545,
                "tempo": 120.0
            },
            {
                "start_time": 3.7727273,
                "end_time": 4.1522727,
                "pitch": 87,
                "velocity": 51,
                "duration": 0.3795455,
                "tempo": 120.0
            },
            {
                "start_time": 4.1681818,
                "end_time": 4.35,
                "pitch": 87,
                "velocity": 51,
                "duration": 0.1818182,
                "tempo": 120.0
            },
            {
                "start_time": 4.3659091,
                "end_time": 4.75,
                "pitch": 87,
                "velocity": 51,
                "duration": 0.3840909,
                "tempo": 120.0
            },
            {
                "start_time": 4.7659091,
                "end_time": 5.3545455,
                "pitch": 82,
                "velocity": 51,
                "duration": 0.5886364,
                "tempo": 120.0
            },
            {
                "start_time": 5.3704545,
                "end_time": 5.9568182,
                "pitch": 89,
                "velocity": 51,
                "duration": 0.5863636,
                "tempo": 120.0
            },
            {
                "start_time": 5.9727273,
                "end_time": 6.3590909,
                "pitch": 89,
                "velocity": 51,
                "duration": 0.3863636,
                "tempo": 120.0
            },
            {
                "start_time": 6.375,
                "end_time": 6.4590909,
                "pitch": 88,
                "velocity": 51,
                "duration": 0.0840909,
                "tempo": 120.0
            },
            {
                "start_time": 6.475,
                "end_time": 6.6613636,
                "pitch": 88,
                "velocity": 51,
                "duration": 0.1863636,
                "tempo": 120.0
            },
            {
                "start_time": 6.6772727,
                "end_time": 6.7613636,
                "pitch": 88,
                "velocity": 51,
                "duration": 0.0840909,
                "tempo": 120.0
            },
            {
                "start_time": 6.7795455,
                "end_time": 6.9613636,
                "pitch": 88,
                "velocity": 51,
                "duration": 0.1818182,
                "tempo": 120.0
            },
            {
                "start_time": 6.9795455,
                "end_time": 7.0613636,
                "pitch": 88,
                "velocity": 51,
                "duration": 0.0818182,
                "tempo": 120.0
            },
            {
                "start_time": 7.0795455,
                "end_time": 7.1954545,
                "pitch": 88,
                "velocity": 51,
                "duration": 0.1159091,
                "tempo": 120.0
            }
        ]
    }
}