{
    "mood": "happy",
    "instruments": {
        "Harpsichord": [
            {
                "start_time": 0.1659091,
                "end_time": 0.2863636,
                "pitch": 83,
                "velocity": 32,
                "duration": 0.1204545,
                "tempo": 120.0
            },
            {
                "start_time": 0.2863636,
                "end_time": 0.5909091,
                "pitch": 79,
                "velocity": 32,
                "duration": 0.3045455,
                "tempo": 120.0
            },
            {
                "start_time": 0.5909091,
                "end_time": 0.8931818,
                "pitch": 74,
                "velocity": 32,
                "duration": 0.3022727,
                "tempo": 120.0
            },
            {
                "start_time": 0.8931818,
                "end_time": 1.0431818,
                "pitch": 74,
                "velocity": 32,
                "duration": 0.15,
                "tempo": 120.0
            },
            {
                "start_time": 1.0431818,
                "end_time": 1.1931818,
                "pitch": 76,
                "velocity": 32,
                "duration": 0.15,
                "tempo": 120.0
            },
            {
                "start_time": 1.1931818,
                "end_time": 1.3431818,
                "pitch": 78,
                "velocity": 32,
                "duration": 0.15,
                "tempo": 120.0
            },
            {
                "start_time": 1.3431818,
                "end_time": 1.9477273,
                "pitch": 79,
                "velocity": 32,
                "duration": 0.6045455,
                "tempo": 120.0
            },
            {
                "start_time": 1.9477273,
                "end_time": 2.5590909,
                "pitch": 84,
                "velocity": 32,
                "duration": 0.6113636,
                "tempo": 120.0
            },
            {
                "start_time": 2.5590909,
                "end_time": 2.7113636,
                "pitch": 84,
                "velocity": 32,
                "duration": 0.1522727,
                "tempo": 120.0
            },
            {
                "start_time": 2.7113636,
                "end_time": 3.0136364,
                "pitch": 83,
                "velocity": 32,
                "duration": 0.3022727,
                "tempo": 120.0
            },
            {
                "start_time": 3.0136364,
                "end_time": 3.3181818,
                "pitch": 81,
                "velocity": 32,
                "duration": 0.3045455,
                "tempo": 120.0
            },
            {
                "start_time": 3.3181818,
                "end_time": 3.475,
                "pitch": 81,
                "velocity": 32,
                "duration": 0.1568182,
                "tempo": 120.0
            },
            {
                "start_time": 3.475,
                "end_time": 3.6318182,
                "pitch": 81,
                "velocity": 32,
                "duration": 0.1568182,
                "tempo": 120.0
            },
            {
                "start_time": 3.6318182,
                "end_time": 3.7863636,
                "pitch": 83,
                "velocity": 32,
                "duration": 0.1545455,
                "tempo": 120.0
            },
            {
                "start_time": 3.7863636,
                "end_time": 4.3840909,
                "pitch": 81,
                "velocity": 32,
                "duration": 0.5977273,
                "tempo": 120.0
            },
            {
                "start_time": 4.3840909,
                "end_time": 4.9954545,
                "pitch": 81,
                "velocity": 32,
                "duration": 0.6113636,
                "tempo": 120.0
            },
            {
                "start_time": 4.9954545,
                "end_time": 5.1477273,
                "pitch": 82,
                "velocity": 32,
                "duration": 0.1522727,
                "tempo": 120.0
            },
            {
                "start_time": 5.1477273,
                "end_time": 5.45,
                "pitch": 82,
                "velocity": 32,
                "duration": 0.3022727,
                "tempo": 120.0
            },
            {
                "start_time": 5.45,
                "end_time": 5.7522727,
                "pitch": 89,
                "velocity": 32,
                "duration": 0.3022727,
                "tempo": 120.0
            },
            {
                "start_time": 5.7522727,
                "end_time": 5.9022727,
                "pitch": 89,
                "velocity": 32,
                "duration": 0.15,
                "tempo": 120.0
            },
            {
                "start_time": 5.9022727,
                "end_time": 6.0522727,
                "pitch": 87,
                "velocity": 32,
                "duration": 0.15,
                "tempo": 120.0
            },
            {
                "start_time": 6.0522727,
                "end_time": 6.2022727,
                "pitch": 86,
                "velocity": 32,
                "duration": 0.15,
                "tempo": 120.0
            },
            {
                "start_time": 6.2022727,
                "end_time": 6.8181818,
                "pitch": 84,
                "velocity": 32,
                "duration": 0.6159091,
                "tempo": 120.0
            },
            {
                "start_time": 6.8181818,
                "end_time": 7.425,
                "pitch": 79,
                "velocity": 32,
                "duration": 0.6068182,
                "tempo": 120.0
            },
            {
                "start_time": 7.425,
                "end_time": 7.575,
                "pitch": 82,
                "velocity": 32,
                "duration": 0.15,
                "tempo": 120.0
            },
            {
                "start_time": 7.575,
                "end_time": 7.875,
                "pitch": 82,
                "velocity": 32,
                "duration": 0.3,
                "tempo": 120.0
            },
            {
                "start_time": 7.875,
                "end_time": 8.175,
                "pitch": 82,
                "velocity": 32,
                "duration": 0.3,
                "tempo": 120.0
            },
            {
                "start_time": 8.175,
                "end_time": 8.3272727,
                "pitch": 82,
                "velocity": 32,
                "duration": 0.1522727,
                "tempo": 120.0
            },
            {
                "start_time": 8.3272727,
                "end_time": 8.4795455,
                "pitch": 84,
                "velocity": 32,
                "duration": 0.1522727,
                "tempo": 120.0
            },
            {
                "start_time": 8.4795455,
                "end_time": 8.6295455,
                "pitch": 84,
                "velocity": 32,
                "duration": 0.15,
                "tempo": 120.0
            },
            {
                "start_time": 8.6295455,
                "end_time": 9.2522727,
                "pitch": 86,
                "velocity": 32,
                "duration": 0.6227273,
                "tempo": 120.0
            },
            {
                "start_time": 9.2522727,
                "end_time": 9.8568182,
                "pitch": 89,
                "velocity": 32,
                "duration": 0.6045455,
                "tempo": 120.0
            },
            {
                "start_time": 9.8568182,
                "end_time": 10.0068182,
                "pitch": 91,
                "velocity": 32,
                "duration": 0.15,
                "tempo": 120.0
            },
            {
                "start_time": 10.0068182,
                "end_time": 10.3090909,
                "pitch": 91,
                "velocity": 32,
                "duration": 0.3022727,
                "tempo": 120.0
            },
            {
                "start_time": 10.3090909,
                "end_time": 10.6136364,
                "pitch": 94,
                "velocity": 32,
                "duration": 0.3045455,
                "tempo": 120.0
            },
            {
                "start_time": 10.6136364,
                "end_time": 10.7840909,
                "pitch": 91,
                "velocity": 32,
                "duration": 0.1704545,
                "tempo": 120.0
            },
            {
                "start_time": 10.7840909,
                "end_time": 10.9363636,
                "pitch": 89,
                "velocity": 32,
                "duration": 0.1522727,
                "tempo": 120.0
            },
            {
                "start_time": 10.9363636,
                "end_time": 11.0909091,
                "pitch": 86,
                "velocity": 32,
                "duration": 0.1545455,
                "tempo": 120.0
            },
            {
                "start_time": 11.0909091,
                "end_time": 11.2409091,
                "pitch": 89,
                "velocity": 32,
                "duration": 0.15,
                "tempo": 120.0
            },
            {
                "start_time": 11.2409091,
                "end_time": 11.5386364,
                "pitch": 89,
                "velocity": 32,
                "duration": 0.2977273,
                "tempo": 120.0
            },
            {
                "start_time": 11.5386364,
                "end_time": 12.2863636,
                "pitch": 91,
                "velocity": 32,
                "duration": 0.7477273,
                "tempo": 120.0
            },
            {
                "start_time": 12.2863636,
                "end_time": 12.4363636,
                "pitch": 86,
                "velocity": 32,
                "duration": 0.15,
                "tempo": 120.0
            },
            {
                "start_time": 12.4363636,
                "end_time": 12.7363636,
                "pitch": 86,
                "velocity": 32,
                "duration": 0.3,
                "tempo": 120.0
            },
            {
                "start_time": 12.7363636,
                "end_time": 13.0386364,
                "pitch": 89,
                "velocity": 32,
                "duration": 0.3022727,
                "tempo": 120.0
            },
            {
                "start_time": 13.0386364,
                "end_time": 13.1931818,
                "pitch": 86,
                "velocity": 32,
                "duration": 0.1545455,
                "tempo": 120.0
            },
            {
                "start_time": 13.1931818,
                "end_time": 13.35,
                "pitch": 86,
                "velocity": 32,
                "duration": 0.1568182,
                "tempo": 120.0
            },
            {
                "start_time": 13.35,
                "end_time": 13.5068182,
                "pitch": 82,
                "velocity": 32,
                "duration": 0.1568182,
                "tempo": 120.0
            },
            {
                "start_time": 13.5068182,
                "end_time": 13.6590909,
                "pitch": 79,
                "velocity": 32,
                "duration": 0.1522727,
                "tempo": 120.0
            },
            {
                "start_time": 13.6590909,
                "end_time": 13.9568182,
                "pitch": 79,
                "velocity": 32,
                "duration": 0.2977273,
                "tempo": 120.0
            },
            {
                "start_time": 13.9568182,
                "end_time": 14.7136364,
                "pitch": 84,
                "velocity": 32,
                "duration": 0.7568182,
                "tempo": 120.0
            },
            {
                "start_time": 14.7136364,
                "end_time": 16.9,
                "pitch": 81,
                "velocity": 32,
                "duration": 2.1863636,
                "tempo": 120.0
            }
        ]
    }
}