{
    "mood": "happy",
    "instruments": {
        "Violin": [
            {
                "start_time": 0.0,
                "end_time": 0.0295455,
                "pitch": 76,
                "velocity": 101,
                "duration": 0.0295455,
                "tempo": 120.0
            },
            {
                "start_time": 0.0613636,
                "end_time": 0.1272727,
                "pitch": 86,
                "velocity": 101,
                "duration": 0.0659091,
                "tempo": 120.0
            },
            {
                "start_time": 0.1613636,
                "end_time": 0.225,
                "pitch": 88,
                "velocity": 101,
                "duration": 0.0636364,
                "tempo": 120.0
            },
            {
                "start_time": 0.2590909,
                "end_time": 0.3227273,
                "pitch": 83,
                "velocity": 101,
                "duration": 0.0636364,
                "tempo": 120.0
            },
            {
                "start_time": 0.3568182,
                "end_time": 0.4227273,
                "pitch": 86,
                "velocity": 101,
                "duration": 0.0659091,
                "tempo": 120.0
            },
            {
                "start_time": 0.4545455,
                "end_time": 0.5227273,
                "pitch": 83,
                "velocity": 101,
                "duration": 0.0681818,
                "tempo": 120.0
            },
            {
                "start_time": 0.5568182,
                "end_time": 0.625,
                "pitch": 81,
                "velocity": 101,
                "duration": 0.0681818,
                "tempo": 120.0
            },
            {
                "start_time": 0.6590909,
                "end_time": 1.1272727,
                "pitch": 83,
                "velocity": 101,
                "duration": 0.4681818,
                "tempo": 120.0
            },
            {
                "start_time": 1.1590909,
                "end_time": 1.425,
                "pitch": 76,
                "velocity": 101,
                "duration": 0.2659091,
                "tempo": 120.0
            },
            {
                "start_time": 1.4568182,
                "end_time": 1.525,
                "pitch": 77,
                "velocity": 101,
                "duration": 0.0681818,
                "tempo": 120.0
            },
            {
                "start_time": 1.5568182,
                "end_time": 1.725,
                "pitch": 74,
                "velocity": 101,
                "duration": 0.1681818,
                "tempo": 120.0
            },
            {
                "start_time": 1.7590909,
                "end_time": 2.4272727,
                "pitch": 83,
                "velocity": 101,
                "duration": 0.6681818,
                "tempo": 120.0
            },
            {
                "start_time": 2.4590909,
                "end_time": 2.8363636,
                "pitch": 76,
                "velocity": 101,
                "duration": 0.3772727,
                "tempo": 120.0
            },
            {
                "start_time": 2.8704545,
                "end_time": 3.1318182,
                "pitch": 67,
                "velocity": 101,
                "duration": 0.2613636,
                "tempo": 120.0
            },
            {
                "start_time": 3.1636364,
                "end_time": 4.7272727,
                "pitch": 74,
                "velocity": 101,
                "duration": 1.5636364,
                "tempo": 120.0
            },
            {
                "start_time": 4.7590909,
                "end_time": 4.825,
                "pitch": 76,
                "velocity": 101,
                "duration": 0.0659091,
                "tempo": 120.0
            },
            {
                "start_time": 4.8568182,
                "end_time": 4.9272727,
                "pitch": 75,
                "velocity": 101,
                "duration": 0.0704545,
                "tempo": 120.0
            },
            {
                "start_time": 4.9636364,
                "end_time": 5.0340909,
                "pitch": 74,
                "velocity": 101,
                "duration": 0.0704545,
                "tempo": 120.0
            },
            {
                "start_time": 5.0681818,
                "end_time": 5.1386364,
                "pitch": 73,
                "velocity": 101,
                "duration": 0.0704545,
                "tempo": 120.0
            },
            {
                "start_time": 5.175,
                "end_time": 5.2454545,
                "pitch": 72,
                "velocity": 101,
                "duration": 0.0704545,
                "tempo": 120.0
            },
            {
                "start_time": 5.2795455,
                "end_time": 5.3454545,
                "pitch": 71,
                "velocity": 101,
                "duration": 0.0659091,
                "tempo": 120.0
            },
            {
                "start_time": 5.3772727,
                "end_time": 5.5409091,
                "pitch": 69,
                "velocity": 101,
                "duration": 0.1636364,
                "tempo": 120.0
            },
            {
                "start_time": 5.5727273,
                "end_time": 6.3409091,
                "pitch": 71,
                "velocity": 101,
                "duration": 0.7681818,
                "tempo": 120.0
            },
            {
                "start_time": 6.375,
                "end_time": 6.4409091,
                "pitch": 76,
                "velocity": 101,
                "duration": 0.0659091,
                "tempo": 120.0
            },
            {
                "start_time": 6.475,
                "end_time": 6.5409091,
                "pitch": 86,
                "velocity": 101,
                "duration": 0.0659091,
                "tempo": 120.0
            },
            {
                "start_time": 6.575,
                "end_time": 6.6431818,
                "pitch": 88,
                "velocity": 101,
                "duration": 0.0681818,
                "tempo": 120.0
            },
            {
                "start_time": 6.675,
                "end_time": 6.7431818,
                "pitch": 83,
                "velocity": 101,
                "duration": 0.0681818,
                "tempo": 120.0
            },
            {
                "start_time": 6.7772727,
                "end_time": 6.8431818,
                "pitch": 86,
                "velocity": 101,
                "duration": 0.0659091,
                "tempo": 120.0
            },
            {
                "start_time": 6.8772727,
                "end_time": 6.9454545,
                "pitch": 83,
                "velocity": 101,
                "duration": 0.0681818,
                "tempo": 120.0
            },
            {
                "start_time": 6.9795455,
                "end_time": 7.0477273,
                "pitch": 81,
                "velocity": 101,
                "duration": 0.0681818,
                "tempo": 120.0
            },
            {
                "start_time": 7.0818182,
                "end_time": 7.55,
                "pitch": 83,
                "velocity": 101,
                "duration": 0.4681818,
                "tempo": 120.0
            },
            {
                "start_time": 7.5818182,
                "end_time": 7.8477273,
                "pitch": 76,
                "velocity": 101,
                "duration": 0.2659091,
                "tempo": 120.0
            },
            {
                "start_time": 7.8818182,
                "end_time": 7.9477273,
                "pitch": 77,
                "velocity": 101,
                "duration": 0.0659091,
                "tempo": 120.0
            },
            {
                "start_time": 7.9818182,
                "end_time": 8.15,
                "pitch": 74,
                "velocity": 101,
                "duration": 0.1681818,
                "tempo": 120.0
            },
            {
                "start_time": 8.1863636,
                "end_time": 8.8204545,
                "pitch": 83,
                "velocity": 101,
                "duration": 0.6340909,
                "tempo": 120.0
            },
            {
                "start_time": 8.8522727,
                "end_time": 9.2613636,
                "pitch": 76,
                "velocity": 101,
                "duration": 0.4090909,
                "tempo": 120.0
            },
            {
                "start_time": 9.2954545,
                "end_time": 9.5568182,
                "pitch": 67,
                "velocity": 101,
                "duration": 0.2613636,
                "tempo": 120.0
            },
            {
                "start_time": 9.5909091,
                "end_time": 11.1545455,
                "pitch": 74,
                "velocity": 101,
                "duration": 1.5636364,
                "tempo": 120.0
            },
            {
                "start_time": 11.1886364,
                "end_time": 11.25,
                "pitch": 76,
                "velocity": 101,
                "duration": 0.0613636,
                "tempo": 120.0
            },
            {
                "start_time": 11.2795455,
                "end_time": 11.3386364,
                "pitch": 75,
                "velocity": 101,
                "duration": 0.0590909,
                "tempo": 120.0
            },
            {
                "start_time": 11.3681818,
                "end_time": 11.425,
                "pitch": 74,
                "velocity": 101,
                "duration": 0.0568182,
                "tempo": 120.0
            },
            {
                "start_time": 11.4545455,
                "end_time": 11.5136364,
                "pitch": 73,
                "velocity": 101,
                "duration": 0.0590909,
                "tempo": 120.0
            },
            {
                "start_time": 11.5431818,
                "end_time": 11.6045455,
                "pitch": 72,
                "velocity": 101,
                "duration": 0.0613636,
                "tempo": 120.0
            },
            {
                "start_time": 11.6340909,
                "end_time": 11.6954545,
                "pitch": 71,
                "velocity": 101,
                "duration": 0.0613636,
                "tempo": 120.0
            },
            {
                "start_time": 11.7272727,
                "end_time": 11.8818182,
                "pitch": 69,
                "velocity": 101,
                "duration": 0.1545455,
                "tempo": 120.0
            },
            {
                "start_time": 11.9136364,
                "end_time": 12.6818182,
                "pitch": 71,
                "velocity": 101,
                "duration": 0.7681818,
                "tempo": 120.0
            },
            {
                "start_time": 12.7136364,
                "end_time": 12.9818182,
                "pitch": 72,
                "velocity": 101,
                "duration": 0.2681818,
                "tempo": 120.0
            },
            {
                "start_time": 13.0159091,
                "end_time": 13.2795455,
                "pitch": 72,
                "velocity": 101,
                "duration": 0.2636364,
                "tempo": 120.0
            },
            {
                "start_time": 13.3136364,
                "end_time": 13.4772727,
                "pitch": 69,
                "velocity": 101,
                "duration": 0.1636364,
                "tempo": 120.0
            },
            {
                "start_time": 13.5090909,
                "end_time": 13.7886364,
                "pitch": 67,
                "velocity": 101,
                "duration": 0.2795455,
                "tempo": 120.0
            },
            {
                "start_time": 13.825,
                "end_time": 14.0886364,
                "pitch": 67,
                "velocity": 101,
                "duration": 0.2636364,
                "tempo": 120.0
            },
            {
                "start_time": 14.1204545,
                "end_time": 14.2795455,
                "pitch": 69,
                "velocity": 101,
                "duration": 0.1590909,
                "tempo": 120.0
            },
            {
                "start_time": 14.3113636,
                "end_time": 14.5863636,
                "pitch": 71,
                "velocity": 101,
                "duration": 0.275,
                "tempo": 120.0
            },
            {
                "start_time": 14.6204545,
                "end_time": 14.6886364,
                "pitch": 71,
                "velocity": 101,
                "duration": 0.0681818,
                "tempo": 120.0
            },
            {
                "start_time": 14.7227273,
                "end_time": 15.8863636,
                "pitch": 71,
                "velocity": 101,
                "duration": 1.1636364,
                "tempo": 120.0
            },
            {
                "start_time": 15.9181818,
                "end_time": 16.3022727,
                "pitch": 74,
                "velocity": 101,
                "duration": 0.3840909,
                "tempo": 120.0
            },
            {
                "start_time": 16.3386364,
                "end_time": 16.5022727,
                "pitch": 74,
                "velocity": 101,
                "duration": 0.1636364,
                "tempo": 120.0
            },
            {
                "start_time": 16.5340909,
                "end_time": 16.6977273,
                "pitch": 71,
                "velocity": 101,
                "duration": 0.1636364,
                "tempo": 120.0
            },
            {
                "start_time": 16.7318182,
                "end_time": 17.0977273,
                "pitch": 79,
                "velocity": 101,
                "duration": 0.3659091,
                "tempo": 120.0
            },
            {
                "start_time": 17.1318182,
                "end_time": 17.5,
                "pitch": 77,
                "velocity": 101,
                "duration": 0.3681818,
                "tempo": 120.0
            },
            {
                "start_time": 17.5340909,
                "end_time": 19.0704545,
                "pitch": 81,
                "velocity": 101,
                "duration": 1.5363636,
                "tempo": 120.0
            },
            {
                "start_time": 19.1363636,
                "end_time": 19.2022727,
                "pitch": 76,
                "velocity": 101,
                "duration": 0.0659091,
                "tempo": 120.0
            },
            {
                "start_time": 19.2340909,
                "end_time": 19.3,
                "pitch": 86,
                "velocity": 101,
                "duration": 0.0659091,
                "tempo": 120.0
            },
            {
                "start_time": 19.3318182,
                "end_time": 19.3977273,
                "pitch": 88,
                "velocity": 101,
                "duration": 0.0659091,
                "tempo": 120.0
            },
            {
                "start_time": 19.4318182,
                "end_time": 19.4954545,
                "pitch": 83,
                "velocity": 101,
                "duration": 0.0636364,
                "tempo": 120.0
            },
            {
                "start_time": 19.5295455,
                "end_time": 19.5954545,
                "pitch": 86,
                "velocity": 101,
                "duration": 0.0659091,
                "tempo": 120.0
            },
            {
                "start_time": 19.6295455,
                "end_time": 19.6954545,
                "pitch": 83,
                "velocity": 101,
                "duration": 0.0659091,
                "tempo": 120.0
            },
            {
                "start_time": 19.7295455,
                "end_time": 19.7954545,
                "pitch": 81,
                "velocity": 101,
                "duration": 0.0659091,
                "tempo": 120.0
            },
            {
                "start_time": 19.8295455,
                "end_time": 20.3295455,
                "pitch": 83,
                "velocity": 101,
                "duration": 0.5,
                "tempo": 120.0
            },
            {
                "start_time": 20.3659091,
                "end_time": 20.6681818,
                "pitch": 76,
                "velocity": 101,
                "duration": 0.3022727,
                "tempo": 120.0
            },
            {
                "start_time": 20.7068182,
                "end_time": 20.7840909,
                "pitch": 77,
                "velocity": 101,
                "duration": 0.0772727,
                "tempo": 120.0
            },
            {
                "start_time": 20.8227273,
                "end_time": 21.0068182,
                "pitch": 74,
                "velocity": 101,
                "duration": 0.1840909,
                "tempo": 120.0
            },
            {
                "start_time": 21.0409091,
                "end_time": 21.7090909,
                "pitch": 83,
                "velocity": 101,
                "duration": 0.6681818,
                "tempo": 120.0
            },
            {
                "start_time": 21.7431818,
                "end_time": 22.1181818,
                "pitch": 76,
                "velocity": 101,
                "duration": 0.375,
                "tempo": 120.0
            },
            {
                "start_time": 22.1522727,
                "end_time": 22.4136364,
                "pitch": 67,
                "velocity": 101,
                "duration": 0.2613636,
                "tempo": 120.0
            },
            {
                "start_time": 22.4477273,
                "end_time": 24.0113636,
                "pitch": 74,
                "velocity": 101,
                "duration": 1.5636364,
                "tempo": 120.0
            },
            {
                "start_time": 24.0454545,
                "end_time": 24.1090909,
                "pitch": 76,
                "velocity": 101,
                "duration": 0.0636364,
                "tempo": 120.0
            },
            {
                "start_time": 24.1431818,
                "end_time": 24.2113636,
                "pitch": 75,
                "velocity": 101,
                "duration": 0.0681818,
                "tempo": 120.0
            },
            {
                "start_time": 24.2477273,
                "end_time": 24.3181818,
                "pitch": 74,
                "velocity": 101,
                "duration": 0.0704545,
                "tempo": 120.0
            },
            {
                "start_time": 24.3522727,
                "end_time": 24.4227273,
                "pitch": 73,
                "velocity": 101,
                "duration": 0.0704545,
                "tempo": 120.0
            },
            {
                "start_time": 24.4590909,
                "end_time": 24.5295455,
                "pitch": 72,
                "velocity": 101,
                "duration": 0.0704545,
                "tempo": 120.0
            },
            {
                "start_time": 24.5636364,
                "end_time": 24.6318182,
                "pitch": 71,
                "velocity": 101,
                "duration": 0.0681818,
                "tempo": 120.0
            },
            {
                "start_time": 24.6659091,
                "end_time": 24.8318182,
                "pitch": 69,
                "velocity": 101,
                "duration": 0.1659091,
                "tempo": 120.0
            },
            {
                "start_time": 24.8659091,
                "end_time": 25.625,
                "pitch": 71,
                "velocity": 101,
                "duration": 0.7590909,
                "tempo": 120.0
            },
            {
                "start_time": 25.6590909,
                "end_time": 25.7272727,
                "pitch": 76,
                "velocity": 101,
                "duration": 0.0681818,
                "tempo": 120.0
            },
            {
                "start_time": 25.7590909,
                "end_time": 25.8272727,
                "pitch": 86,
                "velocity": 101,
                "duration": 0.0681818,
                "tempo": 120.0
            },
            {
                "start_time": 25.8613636,
                "end_time": 25.9318182,
                "pitch": 88,
                "velocity": 101,
                "duration": 0.0704545,
                "tempo": 120.0
            },
            {
                "start_time": 25.9659091,
                "end_time": 26.0340909,
                "pitch": 83,
                "velocity": 101,
                "duration": 0.0681818,
                "tempo": 120.0
            },
            {
                "start_time": 26.0681818,
                "end_time": 26.1363636,
                "pitch": 86,
                "velocity": 101,
                "duration": 0.0681818,
                "tempo": 120.0
            },
            {
                "start_time": 26.1704545,
                "end_time": 26.2363636,
                "pitch": 83,
                "velocity": 101,
                "duration": 0.0659091,
                "tempo": 120.0
            },
            {
                "start_time": 26.2681818,
                "end_time": 26.3340909,
                "pitch": 81,
                "velocity": 101,
                "duration": 0.0659091,
                "tempo": 120.0
            },
            {
                "start_time": 26.3659091,
                "end_time": 26.8318182,
                "pitch": 83,
                "velocity": 101,
                "duration": 0.4659091,
                "tempo": 120.0
            },
            {
                "start_time": 26.8636364,
                "end_time": 27.1318182,
                "pitch": 76,
                "velocity": 101,
                "duration": 0.2681818,
                "tempo": 120.0
            },
            {
                "start_time": 27.1659091,
                "end_time": 27.2318182,
                "pitch": 77,
                "velocity": 101,
                "duration": 0.0659091,
                "tempo": 120.0
            },
            {
                "start_time": 27.2659091,
                "end_time": 27.4340909,
                "pitch": 74,
                "velocity": 101,
                "duration": 0.1681818,
                "tempo": 120.0
            },
            {
                "start_time": 27.4681818,
                "end_time": 28.1022727,
                "pitch": 83,
                "velocity": 101,
                "duration": 0.6340909,
                "tempo": 120.0
            },
            {
                "start_time": 28.1363636,
                "end_time": 28.5340909,
                "pitch": 76,
                "velocity": 101,
                "duration": 0.3977273,
                "tempo": 120.0
            },
            {
                "start_time": 28.5681818,
                "end_time": 28.8363636,
                "pitch": 67,
                "velocity": 101,
                "duration": 0.2681818,
                "tempo": 120.0
            },
            {
                "start_time": 28.8704545,
                "end_time": 30.4272727,
                "pitch": 74,
                "velocity": 101,
                "duration": 1.5568182,
                "tempo": 120.0
            },
            {
                "start_time": 30.4590909,
                "end_time": 30.5204545,
                "pitch": 76,
                "velocity": 101,
                "duration": 0.0613636,
                "tempo": 120.0
            },
            {
                "start_time": 30.55,
                "end_time": 30.6090909,
                "pitch": 75,
                "velocity": 101,
                "duration": 0.0590909,
                "tempo": 120.0
            },
            {
                "start_time": 30.6386364,
                "end_time": 30.6954545,
                "pitch": 74,
                "velocity": 101,
                "duration": 0.0568182,
                "tempo": 120.0
            },
            {
                "start_time": 30.725,
                "end_time": 30.7840909,
                "pitch": 73,
                "velocity": 101,
                "duration": 0.0590909,
                "tempo": 120.0
            },
            {
                "start_time": 30.8136364,
                "end_time": 30.8772727,
                "pitch": 72,
                "velocity": 101,
                "duration": 0.0636364,
                "tempo": 120.0
            },
            {
                "start_time": 30.9090909,
                "end_time": 30.9727273,
                "pitch": 71,
                "velocity": 101,
                "duration": 0.0636364,
                "tempo": 120.0
            },
            {
                "start_time": 31.0045455,
                "end_time": 31.1636364,
                "pitch": 69,
                "velocity": 101,
                "duration": 0.1590909,
                "tempo": 120.0
            },
            {
                "start_time": 31.1954545,
                "end_time": 31.9636364,
                "pitch": 71,
                "velocity": 101,
                "duration": 0.7681818,
                "tempo": 120.0
            },
            {
                "start_time": 31.9977273,
                "end_time": 32.9590909,
                "pitch": 81,
                "velocity": 101,
                "duration": 0.9613636,
                "tempo": 120.0
            },
            {
                "start_time": 32.9931818,
                "end_time": 33.1318182,
                "pitch": 79,
                "velocity": 101,
                "duration": 0.1386364,
                "tempo": 120.0
            },
            {
                "start_time": 33.1659091,
                "end_time": 33.3636364,
                "pitch": 81,
                "velocity": 101,
                "duration": 0.1977273,
                "tempo": 120.0
            },
            {
                "start_time": 33.3954545,
                "end_time": 33.5590909,
                "pitch": 74,
                "velocity": 101,
                "duration": 0.1636364,
                "tempo": 120.0
            },
            {
                "start_time": 33.5909091,
                "end_time": 34.1727273,
                "pitch": 76,
                "velocity": 101,
                "duration": 0.5818182,
                "tempo": 120.0
            },
            {
                "start_time": 34.2045455,
                "end_time": 34.5659091,
                "pitch": 77,
                "velocity": 101,
                "duration": 0.3613636,
                "tempo": 120.0
            },
            {
                "start_time": 34.6,
                "end_time": 34.7704545,
                "pitch": 76,
                "velocity": 101,
                "duration": 0.1704545,
                "tempo": 120.0
            },
            {
                "start_time": 34.8045455,
                "end_time": 35.175,
                "pitch": 72,
                "velocity": 101,
                "duration": 0.3704545,
                "tempo": 120.0
            },
            {
                "start_time": 35.2068182,
                "end_time": 35.5090909,
                "pitch": 74,
                "velocity": 101,
                "duration": 0.3022727,
                "tempo": 120.0
            },
            {
                "start_time": 36.0,
                "end_time": 36.7704545,
                "pitch": 67,
                "velocity": 101,
                "duration": 0.7704545,
                "tempo": 120.0
            },
            {
                "start_time": 36.8022727,
                "end_time": 37.9818182,
                "pitch": 69,
                "velocity": 101,
                "duration": 1.1795455,
                "tempo": 120.0
            },
            {
                "start_time": 38.0159091,
                "end_time": 38.0840909,
                "pitch": 72,
                "velocity": 101,
                "duration": 0.0681818,
                "tempo": 120.0
            },
            {
                "start_time": 38.1181818,
                "end_time": 38.1863636,
                "pitch": 74,
                "velocity": 101,
                "duration": 0.0681818,
                "tempo": 120.0
            },
            {
                "start_time": 38.2204545,
                "end_time": 38.3931818,
                "pitch": 72,
                "velocity": 101,
                "duration": 0.1727273,
                "tempo": 120.0
            },
            {
                "start_time": 38.4272727,
                "end_time": 38.9818182,
                "pitch": 79,
                "velocity": 101,
                "duration": 0.5545455,
                "tempo": 120.0
            },
            {
                "start_time": 39.0159091,
                "end_time": 39.0818182,
                "pitch": 77,
                "velocity": 101,
                "duration": 0.0659091,
                "tempo": 120.0
            },
            {
                "start_time": 39.1136364,
                "end_time": 39.5977273,
                "pitch": 76,
                "velocity": 101,
                "duration": 0.4840909,
                "tempo": 120.0
            },
            {
                "start_time": 39.6318182,
                "end_time": 39.7909091,
                "pitch": 74,
                "velocity": 101,
                "duration": 0.1590909,
                "tempo": 120.0
            },
            {
                "start_time": 39.8227273,
                "end_time": 39.9818182,
                "pitch": 72,
                "velocity": 101,
                "duration": 0.1590909,
                "tempo": 120.0
            },
            {
                "start_time": 40.0136364,
                "end_time": 40.5886364,
                "pitch": 77,
                "velocity": 101,
                "duration": 0.575,
                "tempo": 120.0
            },
            {
                "start_time": 40.6204545,
                "end_time": 40.7840909,
                "pitch": 76,
                "velocity": 101,
                "duration": 0.1636364,
                "tempo": 120.0
            },
            {
                "start_time": 40.8181818,
                "end_time": 40.9886364,
                "pitch": 74,
                "velocity": 101,
                "duration": 0.1704545,
                "tempo": 120.0
            },
            {
                "start_time": 41.0227273,
                "end_time": 41.1931818,
                "pitch": 72,
                "velocity": 101,
                "duration": 0.1704545,
                "tempo": 120.0
            },
            {
                "start_time": 41.2272727,
                "end_time": 41.2931818,
                "pitch": 74,
                "velocity": 101,
                "duration": 0.0659091,
                "tempo": 120.0
            },
            {
                "start_time": 41.325,
                "end_time": 41.5863636,
                "pitch": 77,
                "velocity": 101,
                "duration": 0.2613636,
                "tempo": 120.0
            },
            {
                "start_time": 41.6204545,
                "end_time": 42.3977273,
                "pitch": 76,
                "velocity": 101,
                "duration": 0.7772727,
                "tempo": 120.0
            },
            {
                "start_time": 42.4295455,
                "end_time": 43.1,
                "pitch": 72,
                "velocity": 101,
                "duration": 0.6704545,
                "tempo": 120.0
            },
            {
                "start_time": 43.1318182,
                "end_time": 43.2,
                "pitch": 71,
                "velocity": 101,
                "duration": 0.0681818,
                "tempo": 120.0
            },
            {
                "start_time": 43.2340909,
                "end_time": 44.8022727,
                "pitch": 69,
                "velocity": 101,
                "duration": 1.5681818,
                "tempo": 120.0
            },
            {
                "start_time": 44.8363636,
                "end_time": 45.4022727,
                "pitch": 79,
                "velocity": 101,
                "duration": 0.5659091,
                "tempo": 120.0
            },
            {
                "start_time": 45.4340909,
                "end_time": 45.5,
                "pitch": 77,
                "velocity": 101,
                "duration": 0.0659091,
                "tempo": 120.0
            },
            {
                "start_time": 45.5318182,
                "end_time": 45.5977273,
                "pitch": 76,
                "velocity": 101,
                "duration": 0.0659091,
                "tempo": 120.0
            },
            {
                "start_time": 45.6318182,
                "end_time": 46.2113636,
                "pitch": 74,
                "velocity": 101,
                "duration": 0.5795455,
                "tempo": 120.0
            },
            {
                "start_time": 46.2431818,
                "end_time": 46.4022727,
                "pitch": 72,
                "velocity": 101,
                "duration": 0.1590909,
                "tempo": 120.0
            },
            {
                "start_time": 46.4340909,
                "end_time": 46.6090909,
                "pitch": 74,
                "velocity": 101,
                "duration": 0.175,
                "tempo": 120.0
            },
            {
                "start_time": 46.6431818,
                "end_time": 47.0181818,
                "pitch": 76,
                "velocity": 101,
                "duration": 0.375,
                "tempo": 120.0
            },
            {
                "start_time": 47.0522727,
                "end_time": 47.6136364,
                "pitch": 69,
                "velocity": 101,
                "duration": 0.5613636,
                "tempo": 120.0
            },
            {
                "start_time": 47.6477273,
                "end_time": 47.7136364,
                "pitch": 65,
                "velocity": 101,
                "duration": 0.0659091,
                "tempo": 120.0
            },
            {
                "start_time": 47.7477273,
                "end_time": 47.8136364,
                "pitch": 67,
                "velocity": 101,
                "duration": 0.0659091,
                "tempo": 120.0
            },
            {
                "start_time": 47.8477273,
                "end_time": 47.9136364,
                "pitch": 69,
                "velocity": 101,
                "duration": 0.0659091,
                "tempo": 120.0
            },
            {
                "start_time": 47.9477273,
                "end_time": 48.2113636,
                "pitch": 72,
                "velocity": 101,
                "duration": 0.2636364,
                "tempo": 120.0
            },
            {
                "start_time": 48.2431818,
                "end_time": 48.4068182,
                "pitch": 69,
                "velocity": 101,
                "duration": 0.1636364,
                "tempo": 120.0
            },
            {
                "start_time": 48.4386364,
                "end_time": 48.7136364,
                "pitch": 79,
                "velocity": 101,
                "duration": 0.275,
                "tempo": 120.0
            },
            {
                "start_time": 48.7477273,
                "end_time": 49.0181818,
                "pitch": 77,
                "velocity": 101,
                "duration": 0.2704545,
                "tempo": 120.0
            },
            {
                "start_time": 49.0522727,
                "end_time": 49.2204545,
                "pitch": 76,
                "velocity": 101,
                "duration": 0.1681818,
                "tempo": 120.0
            },
            {
                "start_time": 49.2522727,
                "end_time": 50.4136364,
                "pitch": 74,
                "velocity": 101,
                "duration": 1.1613636,
                "tempo": 120.0
            },
            {
                "start_time": 50.4477273,
                "end_time": 51.2272727,
                "pitch": 79,
                "velocity": 101,
                "duration": 0.7795455,
                "tempo": 120.0
            }
        ],
        "Electric Guitar (clean)": [
            {
                "start_time": 0.0,
                "end_time": 0.0295455,
                "pitch": 28,
                "velocity": 32,
                "duration": 0.0295455,
                "tempo": 120.0
            },
            {
                "start_time": 0.0613636,
                "end_time": 0.1272727,
                "pitch": 38,
                "velocity": 32,
                "duration": 0.0659091,
                "tempo": 120.0
            },
            {
                "start_time": 0.1613636,
                "end_time": 0.225,
                "pitch": 40,
                "velocity": 32,
                "duration": 0.0636364,
                "tempo": 120.0
            },
            {
                "start_time": 0.2590909,
                "end_time": 0.3227273,
                "pitch": 35,
                "velocity": 32,
                "duration": 0.0636364,
                "tempo": 120.0
            },
            {
                "start_time": 0.3568182,
                "end_time": 0.4227273,
                "pitch": 38,
                "velocity": 32,
                "duration": 0.0659091,
                "tempo": 120.0
            },
            {
                "start_time": 0.4545455,
                "end_time": 0.5227273,
                "pitch": 35,
                "velocity": 32,
                "duration": 0.0681818,
                "tempo": 120.0
            },
            {
                "start_time": 0.5568182,
                "end_time": 0.625,
                "pitch": 33,
                "velocity": 32,
                "duration": 0.0681818,
                "tempo": 120.0
            },
            {
                "start_time": 0.6590909,
                "end_time": 1.1272727,
                "pitch": 35,
                "velocity": 32,
                "duration": 0.4681818,
                "tempo": 120.0
            },
            {
                "start_time": 1.1590909,
                "end_time": 1.425,
                "pitch": 31,
                "velocity": 32,
                "duration": 0.2659091,
                "tempo": 120.0
            },
            {
                "start_time": 1.4568182,
                "end_time": 1.525,
                "pitch": 33,
                "velocity": 32,
                "duration": 0.0681818,
                "tempo": 120.0
            },
            {
                "start_time": 1.5568182,
                "end_time": 1.625,
                "pitch": 29,
                "velocity": 32,
                "duration": 0.0681818,
                "tempo": 120.0
            },
            {
                "start_time": 1.6568182,
                "end_time": 1.725,
                "pitch": 31,
                "velocity": 32,
                "duration": 0.0681818,
                "tempo": 120.0
            },
            {
                "start_time": 1.7590909,
                "end_time": 2.4272727,
                "pitch": 38,
                "velocity": 32,
                "duration": 0.6681818,
                "tempo": 120.0
            },
            {
                "start_time": 2.4590909,
                "end_time": 2.8363636,
                "pitch": 38,
                "velocity": 32,
                "duration": 0.3772727,
                "tempo": 120.0
            },
            {
                "start_time": 2.8704545,
                "end_time": 3.1318182,
                "pitch": 36,
                "velocity": 32,
                "duration": 0.2613636,
                "tempo": 120.0
            },
            {
                "start_time": 3.1636364,
                "end_time": 4.7272727,
                "pitch": 35,
                "velocity": 32,
                "duration": 1.5636364,
                "tempo": 120.0
            },
            {
                "start_time": 4.7590909,
                "end_time": 4.825,
                "pitch": 40,
                "velocity": 32,
                "duration": 0.0659091,
                "tempo": 120.0
            },
            {
                "start_time": 4.8568182,
                "end_time": 4.9272727,
                "pitch": 39,
                "velocity": 32,
                "duration": 0.0704545,
                "tempo": 120.0
            },
            {
                "start_time": 4.9636364,
                "end_time": 4.9977273,
                "pitch": 38,
                "velocity": 32,
                "duration": 0.0340909,
                "tempo": 120.0
            },
            {
                "start_time": 5.0340909,
                "end_time": 5.1386364,
                "pitch": 37,
                "velocity": 32,
                "duration": 0.1045455,
                "tempo": 120.0
            },
            {
                "start_time": 5.175,
                "end_time": 5.2454545,
                "pitch": 36,
                "velocity": 32,
                "duration": 0.0704545,
                "tempo": 120.0
            },
            {
                "start_time": 5.2795455,
                "end_time": 5.3454545,
                "pitch": 35,
                "velocity": 32,
                "duration": 0.0659091,
                "tempo": 120.0
            },
            {
                "start_time": 5.3772727,
                "end_time": 5.5409091,
                "pitch": 39,
                "velocity": 32,
                "duration": 0.1636364,
                "tempo": 120.0
            },
            {
                "start_time": 5.5727273,
                "end_time": 5.7386364,
                "pitch": 31,
                "velocity": 32,
                "duration": 0.1659091,
                "tempo": 120.0
            },
            {
                "start_time": 5.7727273,
                "end_time": 5.9409091,
                "pitch": 28,
                "velocity": 32,
                "duration": 0.1681818,
                "tempo": 120.0
            },
            {
                "start_time": 5.9727273,
                "end_time": 6.0409091,
                "pitch": 26,
                "velocity": 32,
                "duration": 0.0681818,
                "tempo": 120.0
            },
            {
                "start_time": 6.075,
                "end_time": 6.3409091,
                "pitch": 28,
                "velocity": 32,
                "duration": 0.2659091,
                "tempo": 120.0
            },
            {
                "start_time": 6.375,
                "end_time": 6.4409091,
                "pitch": 28,
                "velocity": 32,
                "duration": 0.0659091,
                "tempo": 120.0
            },
            {
                "start_time": 6.475,
                "end_time": 6.5409091,
                "pitch": 38,
                "velocity": 32,
                "duration": 0.0659091,
                "tempo": 120.0
            },
            {
                "start_time": 6.575,
                "end_time": 6.6431818,
                "pitch": 40,
                "velocity": 32,
                "duration": 0.0681818,
                "tempo": 120.0
            },
            {
                "start_time": 6.675,
                "end_time": 6.7431818,
                "pitch": 35,
                "velocity": 32,
                "duration": 0.0681818,
                "tempo": 120.0
            },
            {
                "start_time": 6.7772727,
                "end_time": 6.8431818,
                "pitch": 38,
                "velocity": 32,
                "duration": 0.0659091,
                "tempo": 120.0
            },
            {
                "start_time": 6.8772727,
                "end_time": 6.9454545,
                "pitch": 35,
                "velocity": 32,
                "duration": 0.0681818,
                "tempo": 120.0
            },
            {
                "start_time": 6.9795455,
                "end_time": 7.0477273,
                "pitch": 33,
                "velocity": 32,
                "duration": 0.0681818,
                "tempo": 120.0
            },
            {
                "start_time": 7.0818182,
                "end_time": 7.55,
                "pitch": 35,
                "velocity": 32,
                "duration": 0.4681818,
                "tempo": 120.0
            },
            {
                "start_time": 7.5818182,
                "end_time": 7.8477273,
                "pitch": 31,
                "velocity": 32,
                "duration": 0.2659091,
                "tempo": 120.0
            },
            {
                "start_time": 7.8818182,
                "end_time": 7.9477273,
                "pitch": 33,
                "velocity": 32,
                "duration": 0.0659091,
                "tempo": 120.0
            },
            {
                "start_time": 7.9818182,
                "end_time": 8.05,
                "pitch": 29,
                "velocity": 32,
                "duration": 0.0681818,
                "tempo": 120.0
            },
            {
                "start_time": 8.0818182,
                "end_time": 8.15,
                "pitch": 31,
                "velocity": 32,
                "duration": 0.0681818,
                "tempo": 120.0
            },
            {
                "start_time": 8.1863636,
                "end_time": 8.8522727,
                "pitch": 38,
                "velocity": 32,
                "duration": 0.6659091,
                "tempo": 120.0
            },
            {
                "start_time": 8.8863636,
                "end_time": 9.2613636,
                "pitch": 38,
                "velocity": 32,
                "duration": 0.375,
                "tempo": 120.0
            },
            {
                "start_time": 9.2954545,
                "end_time": 9.5568182,
                "pitch": 36,
                "velocity": 32,
                "duration": 0.2613636,
                "tempo": 120.0
            },
            {
                "start_time": 9.5909091,
                "end_time": 11.1545455,
                "pitch": 35,
                "velocity": 32,
                "duration": 1.5636364,
                "tempo": 120.0
            },
            {
                "start_time": 11.1886364,
                "end_time": 11.25,
                "pitch": 40,
                "velocity": 32,
                "duration": 0.0613636,
                "tempo": 120.0
            },
            {
                "start_time": 11.2795455,
                "end_time": 11.3386364,
                "pitch": 39,
                "velocity": 32,
                "duration": 0.0590909,
                "tempo": 120.0
            },
            {
                "start_time": 11.3681818,
                "end_time": 11.425,
                "pitch": 38,
                "velocity": 32,
                "duration": 0.0568182,
                "tempo": 120.0
            },
            {
                "start_time": 11.4545455,
                "end_time": 11.5136364,
                "pitch": 37,
                "velocity": 32,
                "duration": 0.0590909,
                "tempo": 120.0
            },
            {
                "start_time": 11.5431818,
                "end_time": 11.6045455,
                "pitch": 36,
                "velocity": 32,
                "duration": 0.0613636,
                "tempo": 120.0
            },
            {
                "start_time": 11.6340909,
                "end_time": 11.6954545,
                "pitch": 35,
                "velocity": 32,
                "duration": 0.0613636,
                "tempo": 120.0
            },
            {
                "start_time": 11.7272727,
                "end_time": 11.8818182,
                "pitch": 39,
                "velocity": 32,
                "duration": 0.1545455,
                "tempo": 120.0
            },
            {
                "start_time": 11.9136364,
                "end_time": 12.0818182,
                "pitch": 31,
                "velocity": 32,
                "duration": 0.1681818,
                "tempo": 120.0
            },
            {
                "start_time": 12.1159091,
                "end_time": 12.2886364,
                "pitch": 28,
                "velocity": 32,
                "duration": 0.1727273,
                "tempo": 120.0
            },
            {
                "start_time": 12.3227273,
                "end_time": 12.3886364,
                "pitch": 26,
                "velocity": 32,
                "duration": 0.0659091,
                "tempo": 120.0
            },
            {
                "start_time": 12.4204545,
                "end_time": 12.6818182,
                "pitch": 28,
                "velocity": 32,
                "duration": 0.2613636,
                "tempo": 120.0
            },
            {
                "start_time": 12.7136364,
                "end_time": 12.9818182,
                "pitch": 29,
                "velocity": 32,
                "duration": 0.2681818,
                "tempo": 120.0
            },
            {
                "start_time": 13.0159091,
                "end_time": 13.3772727,
                "pitch": 41,
                "velocity": 32,
                "duration": 0.3613636,
                "tempo": 120.0
            },
            {
                "start_time": 13.4113636,
                "end_time": 13.4772727,
                "pitch": 28,
                "velocity": 32,
                "duration": 0.0659091,
                "tempo": 120.0
            },
            {
                "start_time": 13.5090909,
                "end_time": 13.7886364,
                "pitch": 31,
                "velocity": 32,
                "duration": 0.2795455,
                "tempo": 120.0
            },
            {
                "start_time": 13.825,
                "end_time": 14.0886364,
                "pitch": 43,
                "velocity": 32,
                "duration": 0.2636364,
                "tempo": 120.0
            },
            {
                "start_time": 14.1204545,
                "end_time": 14.2795455,
                "pitch": 31,
                "velocity": 32,
                "duration": 0.1590909,
                "tempo": 120.0
            },
            {
                "start_time": 14.3113636,
                "end_time": 15.5,
                "pitch": 33,
                "velocity": 32,
                "duration": 1.1886364,
                "tempo": 120.0
            },
            {
                "start_time": 15.5363636,
                "end_time": 15.7909091,
                "pitch": 40,
                "velocity": 32,
                "duration": 0.2545455,
                "tempo": 120.0
            },
            {
                "start_time": 15.8227273,
                "end_time": 15.8863636,
                "pitch": 38,
                "velocity": 32,
                "duration": 0.0636364,
                "tempo": 120.0
            },
            {
                "start_time": 15.9181818,
                "end_time": 16.1613636,
                "pitch": 45,
                "velocity": 32,
                "duration": 0.2431818,
                "tempo": 120.0
            },
            {
                "start_time": 16.1977273,
                "end_time": 16.3022727,
                "pitch": 33,
                "velocity": 32,
                "duration": 0.1045455,
                "tempo": 120.0
            },
            {
                "start_time": 16.3386364,
                "end_time": 16.4045455,
                "pitch": 45,
                "velocity": 32,
                "duration": 0.0659091,
                "tempo": 120.0
            },
            {
                "start_time": 16.4363636,
                "end_time": 16.5022727,
                "pitch": 35,
                "velocity": 32,
                "duration": 0.0659091,
                "tempo": 120.0
            },
            {
                "start_time": 16.5340909,
                "end_time": 16.6,
                "pitch": 47,
                "velocity": 32,
                "duration": 0.0659091,
                "tempo": 120.0
            },
            {
                "start_time": 16.6340909,
                "end_time": 16.6977273,
                "pitch": 36,
                "velocity": 32,
                "duration": 0.0636364,
                "tempo": 120.0
            },
            {
                "start_time": 16.7318182,
                "end_time": 17.0977273,
                "pitch": 48,
                "velocity": 32,
                "duration": 0.3659091,
                "tempo": 120.0
            },
            {
                "start_time": 17.1318182,
                "end_time": 17.2977273,
                "pitch": 47,
                "velocity": 32,
                "duration": 0.1659091,
                "tempo": 120.0
            },
            {
                "start_time": 17.3318182,
                "end_time": 17.5,
                "pitch": 41,
                "velocity": 32,
                "duration": 0.1681818,
                "tempo": 120.0
            },
            {
                "start_time": 17.5340909,
                "end_time": 18.4636364,
                "pitch": 43,
                "velocity": 32,
                "duration": 0.9295455,
                "tempo": 120.0
            },
            {
                "start_time": 18.4977273,
                "end_time": 18.7022727,
                "pitch": 50,
                "velocity": 32,
                "duration": 0.2045455,
                "tempo": 120.0
            },
            {
                "start_time": 18.7363636,
                "end_time": 18.9045455,
                "pitch": 38,
                "velocity": 32,
                "duration": 0.1681818,
                "tempo": 120.0
            },
            {
                "start_time": 18.9363636,
                "end_time": 19.0363636,
                "pitch": 40,
                "velocity": 32,
                "duration": 0.1,
                "tempo": 120.0
            },
            {
                "start_time": 19.1363636,
                "end_time": 19.2022727,
                "pitch": 28,
                "velocity": 32,
                "duration": 0.0659091,
                "tempo": 120.0
            },
            {
                "start_time": 19.2340909,
                "end_time": 19.3,
                "pitch": 38,
                "velocity": 32,
                "duration": 0.0659091,
                "tempo": 120.0
            },
            {
                "start_time": 19.3318182,
                "end_time": 19.3977273,
                "pitch": 40,
                "velocity": 32,
                "duration": 0.0659091,
                "tempo": 120.0
            },
            {
                "start_time": 19.4318182,
                "end_time": 19.4954545,
                "pitch": 35,
                "velocity": 32,
                "duration": 0.0636364,
                "tempo": 120.0
            },
            {
                "start_time": 19.5295455,
                "end_time": 19.5954545,
                "pitch": 38,
                "velocity": 32,
                "duration": 0.0659091,
                "tempo": 120.0
            },
            {
                "start_time": 19.6295455,
                "end_time": 19.6954545,
                "pitch": 35,
                "velocity": 32,
                "duration": 0.0659091,
                "tempo": 120.0
            },
            {
                "start_time": 19.7295455,
                "end_time": 19.7954545,
                "pitch": 33,
                "velocity": 32,
                "duration": 0.0659091,
                "tempo": 120.0
            },
            {
                "start_time": 19.8295455,
                "end_time": 20.3295455,
                "pitch": 35,
                "velocity": 32,
                "duration": 0.5,
                "tempo": 120.0
            },
            {
                "start_time": 20.3659091,
                "end_time": 20.6681818,
                "pitch": 31,
                "velocity": 32,
                "duration": 0.3022727,
                "tempo": 120.0
            },
            {
                "start_time": 20.7068182,
                "end_time": 20.7840909,
                "pitch": 33,
                "velocity": 32,
                "duration": 0.0772727,
                "tempo": 120.0
            },
            {
                "start_time": 20.8227273,
                "end_time": 20.9,
                "pitch": 29,
                "velocity": 32,
                "duration": 0.0772727,
                "tempo": 120.0
            },
            {
                "start_time": 20.9386364,
                "end_time": 21.0068182,
                "pitch": 31,
                "velocity": 32,
                "duration": 0.0681818,
                "tempo": 120.0
            },
            {
                "start_time": 21.0409091,
                "end_time": 21.7090909,
                "pitch": 38,
                "velocity": 32,
                "duration": 0.6681818,
                "tempo": 120.0
            },
            {
                "start_time": 21.7431818,
                "end_time": 22.1181818,
                "pitch": 38,
                "velocity": 32,
                "duration": 0.375,
                "tempo": 120.0
            },
            {
                "start_time": 22.1522727,
                "end_time": 22.4136364,
                "pitch": 36,
                "velocity": 32,
                "duration": 0.2613636,
                "tempo": 120.0
            },
            {
                "start_time": 22.4477273,
                "end_time": 24.0113636,
                "pitch": 35,
                "velocity": 32,
                "duration": 1.5636364,
                "tempo": 120.0
            },
            {
                "start_time": 24.0454545,
                "end_time": 24.1090909,
                "pitch": 40,
                "velocity": 32,
                "duration": 0.0636364,
                "tempo": 120.0
            },
            {
                "start_time": 24.1431818,
                "end_time": 24.2113636,
                "pitch": 39,
                "velocity": 32,
                "duration": 0.0681818,
                "tempo": 120.0
            },
            {
                "start_time": 24.2477273,
                "end_time": 24.2818182,
                "pitch": 38,
                "velocity": 32,
                "duration": 0.0340909,
                "tempo": 120.0
            },
            {
                "start_time": 24.3181818,
                "end_time": 24.4227273,
                "pitch": 37,
                "velocity": 32,
                "duration": 0.1045455,
                "tempo": 120.0
            },
            {
                "start_time": 24.4590909,
                "end_time": 24.5295455,
                "pitch": 36,
                "velocity": 32,
                "duration": 0.0704545,
                "tempo": 120.0
            },
            {
                "start_time": 24.5636364,
                "end_time": 24.6318182,
                "pitch": 35,
                "velocity": 32,
                "duration": 0.0681818,
                "tempo": 120.0
            },
            {
                "start_time": 24.6659091,
                "end_time": 24.8318182,
                "pitch": 39,
                "velocity": 32,
                "duration": 0.1659091,
                "tempo": 120.0
            },
            {
                "start_time": 24.8659091,
                "end_time": 25.0295455,
                "pitch": 31,
                "velocity": 32,
                "duration": 0.1636364,
                "tempo": 120.0
            },
            {
                "start_time": 25.0636364,
                "end_time": 25.2272727,
                "pitch": 28,
                "velocity": 32,
                "duration": 0.1636364,
                "tempo": 120.0
            },
            {
                "start_time": 25.2590909,
                "end_time": 25.325,
                "pitch": 26,
                "velocity": 32,
                "duration": 0.0659091,
                "tempo": 120.0
            },
            {
                "start_time": 25.3568182,
                "end_time": 25.625,
                "pitch": 28,
                "velocity": 32,
                "duration": 0.2681818,
                "tempo": 120.0
            },
            {
                "start_time": 25.6590909,
                "end_time": 25.7272727,
                "pitch": 28,
                "velocity": 32,
                "duration": 0.0681818,
                "tempo": 120.0
            },
            {
                "start_time": 25.7590909,
                "end_time": 25.8272727,
                "pitch": 38,
                "velocity": 32,
                "duration": 0.0681818,
                "tempo": 120.0
            },
            {
                "start_time": 25.8613636,
                "end_time": 25.9318182,
                "pitch": 40,
                "velocity": 32,
                "duration": 0.0704545,
                "tempo": 120.0
            },
            {
                "start_time": 25.9659091,
                "end_time": 26.0340909,
                "pitch": 35,
                "velocity": 32,
                "duration": 0.0681818,
                "tempo": 120.0
            },
            {
                "start_time": 26.0681818,
                "end_time": 26.1363636,
                "pitch": 38,
                "velocity": 32,
                "duration": 0.0681818,
                "tempo": 120.0
            },
            {
                "start_time": 26.1704545,
                "end_time": 26.2363636,
                "pitch": 35,
                "velocity": 32,
                "duration": 0.0659091,
                "tempo": 120.0
            },
            {
                "start_time": 26.2681818,
                "end_time": 26.3340909,
                "pitch": 33,
                "velocity": 32,
                "duration": 0.0659091,
                "tempo": 120.0
            },
            {
                "start_time": 26.3659091,
                "end_time": 26.8318182,
                "pitch": 35,
                "velocity": 32,
                "duration": 0.4659091,
                "tempo": 120.0
            },
            {
                "start_time": 26.8636364,
                "end_time": 27.1318182,
                "pitch": 31,
                "velocity": 32,
                "duration": 0.2681818,
                "tempo": 120.0
            },
            {
                "start_time": 27.1659091,
                "end_time": 27.2318182,
                "pitch": 33,
                "velocity": 32,
                "duration": 0.0659091,
                "tempo": 120.0
            },
            {
                "start_time": 27.2659091,
                "end_time": 27.3318182,
                "pitch": 29,
                "velocity": 32,
                "duration": 0.0659091,
                "tempo": 120.0
            },
            {
                "start_time": 27.3659091,
                "end_time": 27.4340909,
                "pitch": 31,
                "velocity": 32,
                "duration": 0.0681818,
                "tempo": 120.0
            },
            {
                "start_time": 27.4681818,
                "end_time": 28.1363636,
                "pitch": 38,
                "velocity": 32,
                "duration": 0.6681818,
                "tempo": 120.0
            },
            {
                "start_time": 28.1681818,
                "end_time": 28.5340909,
                "pitch": 38,
                "velocity": 32,
                "duration": 0.3659091,
                "tempo": 120.0
            },
            {
                "start_time": 28.5681818,
                "end_time": 28.8363636,
                "pitch": 36,
                "velocity": 32,
                "duration": 0.2681818,
                "tempo": 120.0
            },
            {
                "start_time": 28.8704545,
                "end_time": 30.4272727,
                "pitch": 35,
                "velocity": 32,
                "duration": 1.5568182,
                "tempo": 120.0
            },
            {
                "start_time": 30.4590909,
                "end_time": 30.5204545,
                "pitch": 40,
                "velocity": 32,
                "duration": 0.0613636,
                "tempo": 120.0
            },
            {
                "start_time": 30.55,
                "end_time": 30.6090909,
                "pitch": 39,
                "velocity": 32,
                "duration": 0.0590909,
                "tempo": 120.0
            },
            {
                "start_time": 30.6386364,
                "end_time": 30.6954545,
                "pitch": 38,
                "velocity": 32,
                "duration": 0.0568182,
                "tempo": 120.0
            },
            {
                "start_time": 30.725,
                "end_time": 30.7840909,
                "pitch": 37,
                "velocity": 32,
                "duration": 0.0590909,
                "tempo": 120.0
            },
            {
                "start_time": 30.8136364,
                "end_time": 30.8772727,
                "pitch": 36,
                "velocity": 32,
                "duration": 0.0636364,
                "tempo": 120.0
            },
            {
                "start_time": 30.9090909,
                "end_time": 30.9727273,
                "pitch": 35,
                "velocity": 32,
                "duration": 0.0636364,
                "tempo": 120.0
            },
            {
                "start_time": 31.0045455,
                "end_time": 31.1636364,
                "pitch": 39,
                "velocity": 32,
                "duration": 0.1590909,
                "tempo": 120.0
            },
            {
                "start_time": 31.1954545,
                "end_time": 31.3636364,
                "pitch": 31,
                "velocity": 32,
                "duration": 0.1681818,
                "tempo": 120.0
            },
            {
                "start_time": 31.4,
                "end_time": 31.5704545,
                "pitch": 28,
                "velocity": 32,
                "duration": 0.1704545,
                "tempo": 120.0
            },
            {
                "start_time": 31.6045455,
                "end_time": 31.6704545,
                "pitch": 26,
                "velocity": 32,
                "duration": 0.0659091,
                "tempo": 120.0
            },
            {
                "start_time": 31.7022727,
                "end_time": 31.9636364,
                "pitch": 28,
                "velocity": 32,
                "duration": 0.2613636,
                "tempo": 120.0
            },
            {
                "start_time": 31.9977273,
                "end_time": 32.2636364,
                "pitch": 29,
                "velocity": 32,
                "duration": 0.2659091,
                "tempo": 120.0
            },
            {
                "start_time": 32.2977273,
                "end_time": 32.6590909,
                "pitch": 41,
                "velocity": 32,
                "duration": 0.3613636,
                "tempo": 120.0
            },
            {
                "start_time": 32.6909091,
                "end_time": 32.7568182,
                "pitch": 28,
                "velocity": 32,
                "duration": 0.0659091,
                "tempo": 120.0
            },
            {
                "start_time": 32.7886364,
                "end_time": 33.0636364,
                "pitch": 31,
                "velocity": 32,
                "duration": 0.275,
                "tempo": 120.0
            },
            {
                "start_time": 33.0977273,
                "end_time": 33.3636364,
                "pitch": 43,
                "velocity": 32,
                "duration": 0.2659091,
                "tempo": 120.0
            },
            {
                "start_time": 33.3954545,
                "end_time": 33.5590909,
                "pitch": 31,
                "velocity": 32,
                "duration": 0.1636364,
                "tempo": 120.0
            },
            {
                "start_time": 33.5909091,
                "end_time": 34.7704545,
                "pitch": 33,
                "velocity": 32,
                "duration": 1.1795455,
                "tempo": 120.0
            },
            {
                "start_time": 34.8045455,
                "end_time": 35.0727273,
                "pitch": 40,
                "velocity": 32,
                "duration": 0.2681818,
                "tempo": 120.0
            },
            {
                "start_time": 35.1068182,
                "end_time": 35.175,
                "pitch": 38,
                "velocity": 32,
                "duration": 0.0681818,
                "tempo": 120.0
            },
            {
                "start_time": 35.2068182,
                "end_time": 35.4409091,
                "pitch": 45,
                "velocity": 32,
                "duration": 0.2340909,
                "tempo": 120.0
            },
            {
                "start_time": 35.475,
                "end_time": 35.575,
                "pitch": 33,
                "velocity": 32,
                "duration": 0.1,
                "tempo": 120.0
            },
            {
                "start_time": 35.6068182,
                "end_time": 35.6727273,
                "pitch": 45,
                "velocity": 32,
                "duration": 0.0659091,
                "tempo": 120.0
            },
            {
                "start_time": 35.7068182,
                "end_time": 35.7704545,
                "pitch": 35,
                "velocity": 32,
                "duration": 0.0636364,
                "tempo": 120.0
            },
            {
                "start_time": 35.8045455,
                "end_time": 35.8704545,
                "pitch": 47,
                "velocity": 32,
                "duration": 0.0659091,
                "tempo": 120.0
            },
            {
                "start_time": 35.9022727,
                "end_time": 35.9681818,
                "pitch": 36,
                "velocity": 32,
                "duration": 0.0659091,
                "tempo": 120.0
            },
            {
                "start_time": 36.0,
                "end_time": 36.3772727,
                "pitch": 48,
                "velocity": 32,
                "duration": 0.3772727,
                "tempo": 120.0
            },
            {
                "start_time": 36.4113636,
                "end_time": 36.575,
                "pitch": 47,
                "velocity": 32,
                "duration": 0.1636364,
                "tempo": 120.0
            },
            {
                "start_time": 36.6068182,
                "end_time": 36.7704545,
                "pitch": 41,
                "velocity": 32,
                "duration": 0.1636364,
                "tempo": 120.0
            },
            {
                "start_time": 36.8022727,
                "end_time": 37.7409091,
                "pitch": 43,
                "velocity": 32,
                "duration": 0.9386364,
                "tempo": 120.0
            },
            {
                "start_time": 37.7772727,
                "end_time": 37.9818182,
                "pitch": 50,
                "velocity": 32,
                "duration": 0.2045455,
                "tempo": 120.0
            },
            {
                "start_time": 38.0159091,
                "end_time": 38.1863636,
                "pitch": 38,
                "velocity": 32,
                "duration": 0.1704545,
                "tempo": 120.0
            },
            {
                "start_time": 38.2204545,
                "end_time": 38.325,
                "pitch": 40,
                "velocity": 32,
                "duration": 0.1045455,
                "tempo": 120.0
            },
            {
                "start_time": 38.4272727,
                "end_time": 38.6886364,
                "pitch": 29,
                "velocity": 32,
                "duration": 0.2613636,
                "tempo": 120.0
            },
            {
                "start_time": 38.7204545,
                "end_time": 39.0818182,
                "pitch": 41,
                "velocity": 32,
                "duration": 0.3613636,
                "tempo": 120.0
            },
            {
                "start_time": 39.1136364,
                "end_time": 39.1795455,
                "pitch": 28,
                "velocity": 32,
                "duration": 0.0659091,
                "tempo": 120.0
            },
            {
                "start_time": 39.2113636,
                "end_time": 39.4909091,
                "pitch": 31,
                "velocity": 32,
                "duration": 0.2795455,
                "tempo": 120.0
            },
            {
                "start_time": 39.5272727,
                "end_time": 39.7909091,
                "pitch": 43,
                "velocity": 32,
                "duration": 0.2636364,
                "tempo": 120.0
            },
            {
                "start_time": 39.8227273,
                "end_time": 39.9818182,
                "pitch": 31,
                "velocity": 32,
                "duration": 0.1590909,
                "tempo": 120.0
            },
            {
                "start_time": 40.0136364,
                "end_time": 41.1931818,
                "pitch": 33,
                "velocity": 32,
                "duration": 1.1795455,
                "tempo": 120.0
            },
            {
                "start_time": 41.2272727,
                "end_time": 41.4886364,
                "pitch": 40,
                "velocity": 32,
                "duration": 0.2613636,
                "tempo": 120.0
            },
            {
                "start_time": 41.5227273,
                "end_time": 41.5863636,
                "pitch": 38,
                "velocity": 32,
                "duration": 0.0636364,
                "tempo": 120.0
            },
            {
                "start_time": 41.6204545,
                "end_time": 41.8590909,
                "pitch": 45,
                "velocity": 32,
                "duration": 0.2386364,
                "tempo": 120.0
            },
            {
                "start_time": 41.8931818,
                "end_time": 41.9954545,
                "pitch": 33,
                "velocity": 32,
                "duration": 0.1022727,
                "tempo": 120.0
            },
            {
                "start_time": 42.0295455,
                "end_time": 42.0977273,
                "pitch": 45,
                "velocity": 32,
                "duration": 0.0681818,
                "tempo": 120.0
            },
            {
                "start_time": 42.1295455,
                "end_time": 42.1977273,
                "pitch": 35,
                "velocity": 32,
                "duration": 0.0681818,
                "tempo": 120.0
            },
            {
                "start_time": 42.2295455,
                "end_time": 42.2977273,
                "pitch": 47,
                "velocity": 32,
                "duration": 0.0681818,
                "tempo": 120.0
            },
            {
                "start_time": 42.3295455,
                "end_time": 42.3977273,
                "pitch": 36,
                "velocity": 32,
                "duration": 0.0681818,
                "tempo": 120.0
            },
            {
                "start_time": 42.4295455,
                "end_time": 42.7977273,
                "pitch": 48,
                "velocity": 32,
                "duration": 0.3681818,
                "tempo": 120.0
            },
            {
                "start_time": 42.8295455,
                "end_time": 42.9977273,
                "pitch": 47,
                "velocity": 32,
                "duration": 0.1681818,
                "tempo": 120.0
            },
            {
                "start_time": 43.0318182,
                "end_time": 43.2,
                "pitch": 41,
                "velocity": 32,
                "duration": 0.1681818,
                "tempo": 120.0
            },
            {
                "start_time": 43.2340909,
                "end_time": 44.1613636,
                "pitch": 43,
                "velocity": 32,
                "duration": 0.9272727,
                "tempo": 120.0
            },
            {
                "start_time": 44.1954545,
                "end_time": 44.4022727,
                "pitch": 50,
                "velocity": 32,
                "duration": 0.2068182,
                "tempo": 120.0
            },
            {
                "start_time": 44.4363636,
                "end_time": 44.6022727,
                "pitch": 38,
                "velocity": 32,
                "duration": 0.1659091,
                "tempo": 120.0
            },
            {
                "start_time": 44.6363636,
                "end_time": 44.7363636,
                "pitch": 40,
                "velocity": 32,
                "duration": 0.1,
                "tempo": 120.0
            },
            {
                "start_time": 44.8363636,
                "end_time": 45.1045455,
                "pitch": 29,
                "velocity": 32,
                "duration": 0.2681818,
                "tempo": 120.0
            },
            {
                "start_time": 45.1386364,
                "end_time": 45.5,
                "pitch": 41,
                "velocity": 32,
                "duration": 0.3613636,
                "tempo": 120.0
            },
            {
                "start_time": 45.5318182,
                "end_time": 45.5977273,
                "pitch": 28,
                "velocity": 32,
                "duration": 0.0659091,
                "tempo": 120.0
            },
            {
                "start_time": 45.6318182,
                "end_time": 45.9113636,
                "pitch": 31,
                "velocity": 32,
                "duration": 0.2795455,
                "tempo": 120.0
            },
            {
                "start_time": 45.9454545,
                "end_time": 46.2113636,
                "pitch": 43,
                "velocity": 32,
                "duration": 0.2659091,
                "tempo": 120.0
            },
            {
                "start_time": 46.2431818,
                "end_time": 46.4022727,
                "pitch": 31,
                "velocity": 32,
                "duration": 0.1590909,
                "tempo": 120.0
            },
            {
                "start_time": 46.4340909,
                "end_time": 47.6136364,
                "pitch": 33,
                "velocity": 32,
                "duration": 1.1795455,
                "tempo": 120.0
            },
            {
                "start_time": 47.6477273,
                "end_time": 47.9136364,
                "pitch": 40,
                "velocity": 32,
                "duration": 0.2659091,
                "tempo": 120.0
            },
            {
                "start_time": 47.9477273,
                "end_time": 48.0136364,
                "pitch": 38,
                "velocity": 32,
                "duration": 0.0659091,
                "tempo": 120.0
            },
            {
                "start_time": 48.0477273,
                "end_time": 48.275,
                "pitch": 45,
                "velocity": 32,
                "duration": 0.2272727,
                "tempo": 120.0
            },
            {
                "start_time": 48.3090909,
                "end_time": 48.4068182,
                "pitch": 33,
                "velocity": 32,
                "duration": 0.0977273,
                "tempo": 120.0
            },
            {
                "start_time": 48.4386364,
                "end_time": 48.5068182,
                "pitch": 45,
                "velocity": 32,
                "duration": 0.0681818,
                "tempo": 120.0
            },
            {
                "start_time": 48.5409091,
                "end_time": 48.6113636,
                "pitch": 35,
                "velocity": 32,
                "duration": 0.0704545,
                "tempo": 120.0
            },
            {
                "start_time": 48.6454545,
                "end_time": 48.7136364,
                "pitch": 47,
                "velocity": 32,
                "duration": 0.0681818,
                "tempo": 120.0
            },
            {
                "start_time": 48.7477273,
                "end_time": 48.8159091,
                "pitch": 36,
                "velocity": 32,
                "duration": 0.0681818,
                "tempo": 120.0
            },
            {
                "start_time": 48.85,
                "end_time": 49.2204545,
                "pitch": 48,
                "velocity": 32,
                "duration": 0.3704545,
                "tempo": 120.0
            },
            {
                "start_time": 49.2522727,
                "end_time": 49.4159091,
                "pitch": 47,
                "velocity": 32,
                "duration": 0.1636364,
                "tempo": 120.0
            },
            {
                "start_time": 49.45,
                "end_time": 49.6113636,
                "pitch": 41,
                "velocity": 32,
                "duration": 0.1613636,
                "tempo": 120.0
            },
            {
                "start_time": 49.6454545,
                "end_time": 50.5840909,
                "pitch": 43,
                "velocity": 32,
                "duration": 0.9386364,
                "tempo": 120.0
            },
            {
                "start_time": 50.6181818,
                "end_time": 50.825,
                "pitch": 50,
                "velocity": 32,
                "duration": 0.2068182,
                "tempo": 120.0
            },
            {
                "start_time": 50.8590909,
                "end_time": 51.0272727,
                "pitch": 38,
                "velocity": 32,
                "duration": 0.1681818,
                "tempo": 120.0
            },
            {
                "start_time": 51.0590909,
                "end_time": 51.1613636,
                "pitch": 40,
                "velocity": 32,
                "duration": 0.1022727,
                "tempo": 120.0
            }
        ],
        "Church Organ": [
            {
                "start_time": 0.0,
                "end_time": 0.0295455,
                "pitch": 76,
                "velocity": 51,
                "duration": 0.0295455,
                "tempo": 120.0
            },
            {
                "start_time": 0.0613636,
                "end_time": 0.1272727,
                "pitch": 86,
                "velocity": 51,
                "duration": 0.0659091,
                "tempo": 120.0
            },
            {
                "start_time": 0.1613636,
                "end_time": 0.225,
                "pitch": 88,
                "velocity": 51,
                "duration": 0.0636364,
                "tempo": 120.0
            },
            {
                "start_time": 0.2590909,
                "end_time": 0.3227273,
                "pitch": 83,
                "velocity": 51,
                "duration": 0.0636364,
                "tempo": 120.0
            },
            {
                "start_time": 0.3568182,
                "end_time": 0.4227273,
                "pitch": 86,
                "velocity": 51,
                "duration": 0.0659091,
                "tempo": 120.0
            },
            {
                "start_time": 0.4545455,
                "end_time": 0.5227273,
                "pitch": 83,
                "velocity": 51,
                "duration": 0.0681818,
                "tempo": 120.0
            },
            {
                "start_time": 0.5568182,
                "end_time": 0.625,
                "pitch": 81,
                "velocity": 51,
                "duration": 0.0681818,
                "tempo": 120.0
            },
            {
                "start_time": 0.6590909,
                "end_time": 1.0931818,
                "pitch": 83,
                "velocity": 51,
                "duration": 0.4340909,
                "tempo": 120.0
            },
            {
                "start_time": 1.1272727,
                "end_time": 1.425,
                "pitch": 79,
                "velocity": 51,
                "duration": 0.2977273,
                "tempo": 120.0
            },
            {
                "start_time": 1.4568182,
                "end_time": 1.525,
                "pitch": 81,
                "velocity": 51,
                "duration": 0.0681818,
                "tempo": 120.0
            },
            {
                "start_time": 1.5568182,
                "end_time": 1.6909091,
                "pitch": 77,
                "velocity": 51,
                "duration": 0.1340909,
                "tempo": 120.0
            },
            {
                "start_time": 1.725,
                "end_time": 2.4272727,
                "pitch": 86,
                "velocity": 51,
                "duration": 0.7022727,
                "tempo": 120.0
            },
            {
                "start_time": 2.4590909,
                "end_time": 2.8363636,
                "pitch": 71,
                "velocity": 51,
                "duration": 0.3772727,
                "tempo": 120.0
            },
            {
                "start_time": 2.8704545,
                "end_time": 3.1318182,
                "pitch": 71,
                "velocity": 51,
                "duration": 0.2613636,
                "tempo": 120.0
            },
            {
                "start_time": 3.1636364,
                "end_time": 4.7272727,
                "pitch": 71,
                "velocity": 51,
                "duration": 1.5636364,
                "tempo": 120.0
            },
            {
                "start_time": 4.7590909,
                "end_time": 4.825,
                "pitch": 76,
                "velocity": 51,
                "duration": 0.0659091,
                "tempo": 120.0
            },
            {
                "start_time": 4.8568182,
                "end_time": 4.9272727,
                "pitch": 75,
                "velocity": 51,
                "duration": 0.0704545,
                "tempo": 120.0
            },
            {
                "start_time": 4.9636364,
                "end_time": 5.0340909,
                "pitch": 74,
                "velocity": 51,
                "duration": 0.0704545,
                "tempo": 120.0
            },
            {
                "start_time": 5.0681818,
                "end_time": 5.1386364,
                "pitch": 73,
                "velocity": 51,
                "duration": 0.0704545,
                "tempo": 120.0
            },
            {
                "start_time": 5.175,
                "end_time": 5.2454545,
                "pitch": 72,
                "velocity": 51,
                "duration": 0.0704545,
                "tempo": 120.0
            },
            {
                "start_time": 5.2795455,
                "end_time": 5.3454545,
                "pitch": 71,
                "velocity": 51,
                "duration": 0.0659091,
                "tempo": 120.0
            },
            {
                "start_time": 5.3772727,
                "end_time": 5.5409091,
                "pitch": 69,
                "velocity": 51,
                "duration": 0.1636364,
                "tempo": 120.0
            },
            {
                "start_time": 5.5727273,
                "end_time": 6.3409091,
                "pitch": 79,
                "velocity": 51,
                "duration": 0.7681818,
                "tempo": 120.0
            },
            {
                "start_time": 6.375,
                "end_time": 6.4409091,
                "pitch": 76,
                "velocity": 51,
                "duration": 0.0659091,
                "tempo": 120.0
            },
            {
                "start_time": 6.475,
                "end_time": 6.5409091,
                "pitch": 86,
                "velocity": 51,
                "duration": 0.0659091,
                "tempo": 120.0
            },
            {
                "start_time": 6.575,
                "end_time": 6.6431818,
                "pitch": 88,
                "velocity": 51,
                "duration": 0.0681818,
                "tempo": 120.0
            },
            {
                "start_time": 6.675,
                "end_time": 6.7431818,
                "pitch": 83,
                "velocity": 51,
                "duration": 0.0681818,
                "tempo": 120.0
            },
            {
                "start_time": 6.7772727,
                "end_time": 6.8431818,
                "pitch": 86,
                "velocity": 51,
                "duration": 0.0659091,
                "tempo": 120.0
            },
            {
                "start_time": 6.8772727,
                "end_time": 6.9454545,
                "pitch": 83,
                "velocity": 51,
                "duration": 0.0681818,
                "tempo": 120.0
            },
            {
                "start_time": 6.9795455,
                "end_time": 7.0477273,
                "pitch": 81,
                "velocity": 51,
                "duration": 0.0681818,
                "tempo": 120.0
            },
            {
                "start_time": 7.0818182,
                "end_time": 7.55,
                "pitch": 83,
                "velocity": 51,
                "duration": 0.4681818,
                "tempo": 120.0
            },
            {
                "start_time": 7.5818182,
                "end_time": 7.8477273,
                "pitch": 79,
                "velocity": 51,
                "duration": 0.2659091,
                "tempo": 120.0
            },
            {
                "start_time": 7.8818182,
                "end_time": 7.9477273,
                "pitch": 81,
                "velocity": 51,
                "duration": 0.0659091,
                "tempo": 120.0
            },
            {
                "start_time": 7.9818182,
                "end_time": 8.15,
                "pitch": 77,
                "velocity": 51,
                "duration": 0.1681818,
                "tempo": 120.0
            },
            {
                "start_time": 8.1863636,
                "end_time": 8.8522727,
                "pitch": 86,
                "velocity": 51,
                "duration": 0.6659091,
                "tempo": 120.0
            },
            {
                "start_time": 8.8863636,
                "end_time": 9.2613636,
                "pitch": 71,
                "velocity": 51,
                "duration": 0.375,
                "tempo": 120.0
            },
            {
                "start_time": 9.2954545,
                "end_time": 9.5568182,
                "pitch": 71,
                "velocity": 51,
                "duration": 0.2613636,
                "tempo": 120.0
            },
            {
                "start_time": 9.5909091,
                "end_time": 11.1545455,
                "pitch": 71,
                "velocity": 51,
                "duration": 1.5636364,
                "tempo": 120.0
            },
            {
                "start_time": 11.1886364,
                "end_time": 11.25,
                "pitch": 76,
                "velocity": 51,
                "duration": 0.0613636,
                "tempo": 120.0
            },
            {
                "start_time": 11.2795455,
                "end_time": 11.3386364,
                "pitch": 75,
                "velocity": 51,
                "duration": 0.0590909,
                "tempo": 120.0
            },
            {
                "start_time": 11.3681818,
                "end_time": 11.425,
                "pitch": 74,
                "velocity": 51,
                "duration": 0.0568182,
                "tempo": 120.0
            },
            {
                "start_time": 11.4545455,
                "end_time": 11.5136364,
                "pitch": 73,
                "velocity": 51,
                "duration": 0.0590909,
                "tempo": 120.0
            },
            {
                "start_time": 11.5431818,
                "end_time": 11.5727273,
                "pitch": 72,
                "velocity": 51,
                "duration": 0.0295455,
                "tempo": 120.0
            },
            {
                "start_time": 11.6045455,
                "end_time": 11.6954545,
                "pitch": 71,
                "velocity": 51,
                "duration": 0.0909091,
                "tempo": 120.0
            },
            {
                "start_time": 11.7272727,
                "end_time": 11.8818182,
                "pitch": 69,
                "velocity": 51,
                "duration": 0.1545455,
                "tempo": 120.0
            },
            {
                "start_time": 11.9136364,
                "end_time": 12.6818182,
                "pitch": 79,
                "velocity": 51,
                "duration": 0.7681818,
                "tempo": 120.0
            },
            {
                "start_time": 12.7136364,
                "end_time": 12.9818182,
                "pitch": 77,
                "velocity": 51,
                "duration": 0.2681818,
                "tempo": 120.0
            },
            {
                "start_time": 13.0159091,
                "end_time": 13.2795455,
                "pitch": 77,
                "velocity": 51,
                "duration": 0.2636364,
                "tempo": 120.0
            },
            {
                "start_time": 13.3136364,
                "end_time": 13.4772727,
                "pitch": 69,
                "velocity": 51,
                "duration": 0.1636364,
                "tempo": 120.0
            },
            {
                "start_time": 13.5090909,
                "end_time": 13.7886364,
                "pitch": 79,
                "velocity": 51,
                "duration": 0.2795455,
                "tempo": 120.0
            },
            {
                "start_time": 13.825,
                "end_time": 14.0886364,
                "pitch": 79,
                "velocity": 51,
                "duration": 0.2636364,
                "tempo": 120.0
            },
            {
                "start_time": 14.1204545,
                "end_time": 14.2795455,
                "pitch": 71,
                "velocity": 51,
                "duration": 0.1590909,
                "tempo": 120.0
            },
            {
                "start_time": 14.3113636,
                "end_time": 14.5863636,
                "pitch": 81,
                "velocity": 51,
                "duration": 0.275,
                "tempo": 120.0
            },
            {
                "start_time": 14.6204545,
                "end_time": 14.6886364,
                "pitch": 81,
                "velocity": 51,
                "duration": 0.0681818,
                "tempo": 120.0
            },
            {
                "start_time": 14.7227273,
                "end_time": 15.8863636,
                "pitch": 81,
                "velocity": 51,
                "duration": 1.1636364,
                "tempo": 120.0
            },
            {
                "start_time": 15.9181818,
                "end_time": 16.3022727,
                "pitch": 81,
                "velocity": 51,
                "duration": 0.3840909,
                "tempo": 120.0
            },
            {
                "start_time": 16.3386364,
                "end_time": 16.5022727,
                "pitch": 81,
                "velocity": 51,
                "duration": 0.1636364,
                "tempo": 120.0
            },
            {
                "start_time": 16.5340909,
                "end_time": 16.6977273,
                "pitch": 71,
                "velocity": 51,
                "duration": 0.1636364,
                "tempo": 120.0
            },
            {
                "start_time": 16.7318182,
                "end_time": 17.0977273,
                "pitch": 72,
                "velocity": 51,
                "duration": 0.3659091,
                "tempo": 120.0
            },
            {
                "start_time": 17.1318182,
                "end_time": 17.5,
                "pitch": 74,
                "velocity": 51,
                "duration": 0.3681818,
                "tempo": 120.0
            },
            {
                "start_time": 17.5340909,
                "end_time": 19.0704545,
                "pitch": 76,
                "velocity": 51,
                "duration": 1.5363636,
                "tempo": 120.0
            },
            {
                "start_time": 19.1363636,
                "end_time": 19.2022727,
                "pitch": 76,
                "velocity": 51,
                "duration": 0.0659091,
                "tempo": 120.0
            },
            {
                "start_time": 19.2340909,
                "end_time": 19.3,
                "pitch": 86,
                "velocity": 51,
                "duration": 0.0659091,
                "tempo": 120.0
            },
            {
                "start_time": 19.3318182,
                "end_time": 19.3977273,
                "pitch": 88,
                "velocity": 51,
                "duration": 0.0659091,
                "tempo": 120.0
            },
            {
                "start_time": 19.4318182,
                "end_time": 19.4954545,
                "pitch": 83,
                "velocity": 51,
                "duration": 0.0636364,
                "tempo": 120.0
            },
            {
                "start_time": 19.5295455,
                "end_time": 19.5954545,
                "pitch": 86,
                "velocity": 51,
                "duration": 0.0659091,
                "tempo": 120.0
            },
            {
                "start_time": 19.6295455,
                "end_time": 19.6954545,
                "pitch": 83,
                "velocity": 51,
                "duration": 0.0659091,
                "tempo": 120.0
            },
            {
                "start_time": 19.7295455,
                "end_time": 19.7954545,
                "pitch": 81,
                "velocity": 51,
                "duration": 0.0659091,
                "tempo": 120.0
            },
            {
                "start_time": 19.8295455,
                "end_time": 20.2931818,
                "pitch": 83,
                "velocity": 51,
                "duration": 0.4636364,
                "tempo": 120.0
            },
            {
                "start_time": 20.3295455,
                "end_time": 20.6681818,
                "pitch": 79,
                "velocity": 51,
                "duration": 0.3386364,
                "tempo": 120.0
            },
            {
                "start_time": 20.7068182,
                "end_time": 20.7840909,
                "pitch": 81,
                "velocity": 51,
                "duration": 0.0772727,
                "tempo": 120.0
            },
            {
                "start_time": 20.8227273,
                "end_time": 20.9727273,
                "pitch": 77,
                "velocity": 51,
                "duration": 0.15,
                "tempo": 120.0
            },
            {
                "start_time": 21.0068182,
                "end_time": 21.7090909,
                "pitch": 86,
                "velocity": 51,
                "duration": 0.7022727,
                "tempo": 120.0
            },
            {
                "start_time": 21.7431818,
                "end_time": 22.1181818,
                "pitch": 71,
                "velocity": 51,
                "duration": 0.375,
                "tempo": 120.0
            },
            {
                "start_time": 22.1522727,
                "end_time": 22.4136364,
                "pitch": 71,
                "velocity": 51,
                "duration": 0.2613636,
                "tempo": 120.0
            },
            {
                "start_time": 22.4477273,
                "end_time": 24.0113636,
                "pitch": 71,
                "velocity": 51,
                "duration": 1.5636364,
                "tempo": 120.0
            },
            {
                "start_time": 24.0454545,
                "end_time": 24.1090909,
                "pitch": 76,
                "velocity": 51,
                "duration": 0.0636364,
                "tempo": 120.0
            },
            {
                "start_time": 24.1431818,
                "end_time": 24.2113636,
                "pitch": 75,
                "velocity": 51,
                "duration": 0.0681818,
                "tempo": 120.0
            },
            {
                "start_time": 24.2477273,
                "end_time": 24.3181818,
                "pitch": 74,
                "velocity": 51,
                "duration": 0.0704545,
                "tempo": 120.0
            },
            {
                "start_time": 24.3522727,
                "end_time": 24.4227273,
                "pitch": 73,
                "velocity": 51,
                "duration": 0.0704545,
                "tempo": 120.0
            },
            {
                "start_time": 24.4590909,
                "end_time": 24.5295455,
                "pitch": 72,
                "velocity": 51,
                "duration": 0.0704545,
                "tempo": 120.0
            },
            {
                "start_time": 24.5636364,
                "end_time": 24.6318182,
                "pitch": 71,
                "velocity": 51,
                "duration": 0.0681818,
                "tempo": 120.0
            },
            {
                "start_time": 24.6659091,
                "end_time": 24.8318182,
                "pitch": 69,
                "velocity": 51,
                "duration": 0.1659091,
                "tempo": 120.0
            },
            {
                "start_time": 24.8659091,
                "end_time": 25.625,
                "pitch": 79,
                "velocity": 51,
                "duration": 0.7590909,
                "tempo": 120.0
            },
            {
                "start_time": 25.6590909,
                "end_time": 25.7272727,
                "pitch": 76,
                "velocity": 51,
                "duration": 0.0681818,
                "tempo": 120.0
            },
            {
                "start_time": 25.7590909,
                "end_time": 25.8272727,
                "pitch": 86,
                "velocity": 51,
                "duration": 0.0681818,
                "tempo": 120.0
            },
            {
                "start_time": 25.8613636,
                "end_time": 25.9318182,
                "pitch": 88,
                "velocity": 51,
                "duration": 0.0704545,
                "tempo": 120.0
            },
            {
                "start_time": 25.9659091,
                "end_time": 26.0340909,
                "pitch": 83,
                "velocity": 51,
                "duration": 0.0681818,
                "tempo": 120.0
            },
            {
                "start_time": 26.0681818,
                "end_time": 26.1363636,
                "pitch": 86,
                "velocity": 51,
                "duration": 0.0681818,
                "tempo": 120.0
            },
            {
                "start_time": 26.1704545,
                "end_time": 26.2363636,
                "pitch": 83,
                "velocity": 51,
                "duration": 0.0659091,
                "tempo": 120.0
            },
            {
                "start_time": 26.2681818,
                "end_time": 26.3340909,
                "pitch": 81,
                "velocity": 51,
                "duration": 0.0659091,
                "tempo": 120.0
            },
            {
                "start_time": 26.3659091,
                "end_time": 26.8318182,
                "pitch": 83,
                "velocity": 51,
                "duration": 0.4659091,
                "tempo": 120.0
            },
            {
                "start_time": 26.8636364,
                "end_time": 27.1318182,
                "pitch": 79,
                "velocity": 51,
                "duration": 0.2681818,
                "tempo": 120.0
            },
            {
                "start_time": 27.1659091,
                "end_time": 27.2318182,
                "pitch": 81,
                "velocity": 51,
                "duration": 0.0659091,
                "tempo": 120.0
            },
            {
                "start_time": 27.2659091,
                "end_time": 27.4340909,
                "pitch": 77,
                "velocity": 51,
                "duration": 0.1681818,
                "tempo": 120.0
            },
            {
                "start_time": 27.4681818,
                "end_time": 28.1363636,
                "pitch": 86,
                "velocity": 51,
                "duration": 0.6681818,
                "tempo": 120.0
            },
            {
                "start_time": 28.1681818,
                "end_time": 28.5340909,
                "pitch": 71,
                "velocity": 51,
                "duration": 0.3659091,
                "tempo": 120.0
            },
            {
                "start_time": 28.5681818,
                "end_time": 28.8363636,
                "pitch": 71,
                "velocity": 51,
                "duration": 0.2681818,
                "tempo": 120.0
            },
            {
                "start_time": 28.8704545,
                "end_time": 30.4272727,
                "pitch": 71,
                "velocity": 51,
                "duration": 1.5568182,
                "tempo": 120.0
            },
            {
                "start_time": 30.4590909,
                "end_time": 30.5204545,
                "pitch": 76,
                "velocity": 51,
                "duration": 0.0613636,
                "tempo": 120.0
            },
            {
                "start_time": 30.55,
                "end_time": 30.6090909,
                "pitch": 75,
                "velocity": 51,
                "duration": 0.0590909,
                "tempo": 120.0
            },
            {
                "start_time": 30.6386364,
                "end_time": 30.6954545,
                "pitch": 74,
                "velocity": 51,
                "duration": 0.0568182,
                "tempo": 120.0
            },
            {
                "start_time": 30.725,
                "end_time": 30.7840909,
                "pitch": 73,
                "velocity": 51,
                "duration": 0.0590909,
                "tempo": 120.0
            },
            {
                "start_time": 30.8136364,
                "end_time": 30.8454545,
                "pitch": 72,
                "velocity": 51,
                "duration": 0.0318182,
                "tempo": 120.0
            },
            {
                "start_time": 30.8772727,
                "end_time": 30.9727273,
                "pitch": 71,
                "velocity": 51,
                "duration": 0.0954545,
                "tempo": 120.0
            },
            {
                "start_time": 31.0045455,
                "end_time": 31.1636364,
                "pitch": 69,
                "velocity": 51,
                "duration": 0.1590909,
                "tempo": 120.0
            },
            {
                "start_time": 31.1954545,
                "end_time": 31.9636364,
                "pitch": 79,
                "velocity": 51,
                "duration": 0.7681818,
                "tempo": 120.0
            },
            {
                "start_time": 31.9977273,
                "end_time": 32.2636364,
                "pitch": 77,
                "velocity": 51,
                "duration": 0.2659091,
                "tempo": 120.0
            },
            {
                "start_time": 32.2977273,
                "end_time": 32.5590909,
                "pitch": 77,
                "velocity": 51,
                "duration": 0.2613636,
                "tempo": 120.0
            },
            {
                "start_time": 32.5931818,
                "end_time": 32.7568182,
                "pitch": 69,
                "velocity": 51,
                "duration": 0.1636364,
                "tempo": 120.0
            },
            {
                "start_time": 32.7886364,
                "end_time": 33.0636364,
                "pitch": 79,
                "velocity": 51,
                "duration": 0.275,
                "tempo": 120.0
            },
            {
                "start_time": 33.0977273,
                "end_time": 33.3636364,
                "pitch": 79,
                "velocity": 51,
                "duration": 0.2659091,
                "tempo": 120.0
            },
            {
                "start_time": 33.3954545,
                "end_time": 33.5590909,
                "pitch": 71,
                "velocity": 51,
                "duration": 0.1636364,
                "tempo": 120.0
            },
            {
                "start_time": 33.5909091,
                "end_time": 33.8727273,
                "pitch": 81,
                "velocity": 51,
                "duration": 0.2818182,
                "tempo": 120.0
            },
            {
                "start_time": 33.9068182,
                "end_time": 33.9772727,
                "pitch": 81,
                "velocity": 51,
                "duration": 0.0704545,
                "tempo": 120.0
            },
            {
                "start_time": 34.0113636,
                "end_time": 35.175,
                "pitch": 81,
                "velocity": 51,
                "duration": 1.1636364,
                "tempo": 120.0
            },
            {
                "start_time": 35.2068182,
                "end_time": 35.575,
                "pitch": 81,
                "velocity": 51,
                "duration": 0.3681818,
                "tempo": 120.0
            },
            {
                "start_time": 35.6068182,
                "end_time": 35.7704545,
                "pitch": 81,
                "velocity": 51,
                "duration": 0.1636364,
                "tempo": 120.0
            },
            {
                "start_time": 35.8045455,
                "end_time": 35.9681818,
                "pitch": 71,
                "velocity": 51,
                "duration": 0.1636364,
                "tempo": 120.0
            },
            {
                "start_time": 36.0,
                "end_time": 36.3772727,
                "pitch": 72,
                "velocity": 51,
                "duration": 0.3772727,
                "tempo": 120.0
            },
            {
                "start_time": 36.4113636,
                "end_time": 36.7704545,
                "pitch": 74,
                "velocity": 51,
                "duration": 0.3590909,
                "tempo": 120.0
            },
            {
                "start_time": 36.8022727,
                "end_time": 38.3590909,
                "pitch": 76,
                "velocity": 51,
                "duration": 1.5568182,
                "tempo": 120.0
            },
            {
                "start_time": 38.4272727,
                "end_time": 38.6886364,
                "pitch": 77,
                "velocity": 51,
                "duration": 0.2613636,
                "tempo": 120.0
            },
            {
                "start_time": 38.7204545,
                "end_time": 38.9818182,
                "pitch": 77,
                "velocity": 51,
                "duration": 0.2613636,
                "tempo": 120.0
            },
            {
                "start_time": 39.0159091,
                "end_time": 39.1795455,
                "pitch": 69,
                "velocity": 51,
                "duration": 0.1636364,
                "tempo": 120.0
            },
            {
                "start_time": 39.2113636,
                "end_time": 39.4909091,
                "pitch": 79,
                "velocity": 51,
                "duration": 0.2795455,
                "tempo": 120.0
            },
            {
                "start_time": 39.5272727,
                "end_time": 39.7909091,
                "pitch": 79,
                "velocity": 51,
                "duration": 0.2636364,
                "tempo": 120.0
            },
            {
                "start_time": 39.8227273,
                "end_time": 39.9818182,
                "pitch": 71,
                "velocity": 51,
                "duration": 0.1590909,
                "tempo": 120.0
            },
            {
                "start_time": 40.0136364,
                "end_time": 40.2886364,
                "pitch": 81,
                "velocity": 51,
                "duration": 0.275,
                "tempo": 120.0
            },
            {
                "start_time": 40.3227273,
                "end_time": 40.3909091,
                "pitch": 81,
                "velocity": 51,
                "duration": 0.0681818,
                "tempo": 120.0
            },
            {
                "start_time": 40.425,
                "end_time": 41.5863636,
                "pitch": 81,
                "velocity": 51,
                "duration": 1.1613636,
                "tempo": 120.0
            },
            {
                "start_time": 41.6204545,
                "end_time": 41.9954545,
                "pitch": 81,
                "velocity": 51,
                "duration": 0.375,
                "tempo": 120.0
            },
            {
                "start_time": 42.0295455,
                "end_time": 42.1977273,
                "pitch": 81,
                "velocity": 51,
                "duration": 0.1681818,
                "tempo": 120.0
            },
            {
                "start_time": 42.2295455,
                "end_time": 42.3977273,
                "pitch": 71,
                "velocity": 51,
                "duration": 0.1681818,
                "tempo": 120.0
            },
            {
                "start_time": 42.4295455,
                "end_time": 42.7977273,
                "pitch": 72,
                "velocity": 51,
                "duration": 0.3681818,
                "tempo": 120.0
            },
            {
                "start_time": 42.8295455,
                "end_time": 43.2,
                "pitch": 74,
                "velocity": 51,
                "duration": 0.3704545,
                "tempo": 120.0
            },
            {
                "start_time": 43.2340909,
                "end_time": 44.7704545,
                "pitch": 76,
                "velocity": 51,
                "duration": 1.5363636,
                "tempo": 120.0
            },
            {
                "start_time": 44.8363636,
                "end_time": 45.1045455,
                "pitch": 77,
                "velocity": 51,
                "duration": 0.2681818,
                "tempo": 120.0
            },
            {
                "start_time": 45.1386364,
                "end_time": 45.4022727,
                "pitch": 77,
                "velocity": 51,
                "duration": 0.2636364,
                "tempo": 120.0
            },
            {
                "start_time": 45.4340909,
                "end_time": 45.5977273,
                "pitch": 69,
                "velocity": 51,
                "duration": 0.1636364,
                "tempo": 120.0
            },
            {
                "start_time": 45.6318182,
                "end_time": 45.9113636,
                "pitch": 79,
                "velocity": 51,
                "duration": 0.2795455,
                "tempo": 120.0
            },
            {
                "start_time": 45.9454545,
                "end_time": 46.2113636,
                "pitch": 79,
                "velocity": 51,
                "duration": 0.2659091,
                "tempo": 120.0
            },
            {
                "start_time": 46.2431818,
                "end_time": 46.4022727,
                "pitch": 71,
                "velocity": 51,
                "duration": 0.1590909,
                "tempo": 120.0
            },
            {
                "start_time": 46.4340909,
                "end_time": 46.7136364,
                "pitch": 81,
                "velocity": 51,
                "duration": 0.2795455,
                "tempo": 120.0
            },
            {
                "start_time": 46.75,
                "end_time": 46.8204545,
                "pitch": 81,
                "velocity": 51,
                "duration": 0.0704545,
                "tempo": 120.0
            },
            {
                "start_time": 46.8545455,
                "end_time": 48.0136364,
                "pitch": 81,
                "velocity": 51,
                "duration": 1.1590909,
                "tempo": 120.0
            },
            {
                "start_time": 48.0477273,
                "end_time": 48.4068182,
                "pitch": 81,
                "velocity": 51,
                "duration": 0.3590909,
                "tempo": 120.0
            },
            {
                "start_time": 48.4386364,
                "end_time": 48.6113636,
                "pitch": 81,
                "velocity": 51,
                "duration": 0.1727273,
                "tempo": 120.0
            },
            {
                "start_time": 48.6454545,
                "end_time": 48.8159091,
                "pitch": 71,
                "velocity": 51,
                "duration": 0.1704545,
                "tempo": 120.0
            },
            {
                "start_time": 48.85,
                "end_time": 49.2204545,
                "pitch": 72,
                "velocity": 51,
                "duration": 0.3704545,
                "tempo": 120.0
            },
            {
                "start_time": 49.2522727,
                "end_time": 49.6113636,
                "pitch": 74,
                "velocity": 51,
                "duration": 0.3590909,
                "tempo": 120.0
            },
            {
                "start_time": 49.6454545,
                "end_time": 51.1931818,
                "pitch": 76,
                "velocity": 51,
                "duration": 1.5477273,
                "tempo": 120.0
            }
        ]
    }
}