{
    "mood": "happy",
    "instruments": {
        "Vibraphone": [
            {
                "start_time": 0.1363636,
                "end_time": 0.2022727,
                "pitch": 79,
                "velocity": 51,
                "duration": 0.0659091,
                "tempo": 120.0
            },
            {
                "start_time": 0.2204545,
                "end_time": 0.2863636,
                "pitch": 72,
                "velocity": 51,
                "duration": 0.0659091,
                "tempo": 120.0
            },
            {
                "start_time": 0.3045455,
                "end_time": 0.3681818,
                "pitch": 86,
                "velocity": 51,
                "duration": 0.0636364,
                "tempo": 120.0
            },
            {
                "start_time": 0.3863636,
                "end_time": 0.45,
                "pitch": 79,
                "velocity": 51,
                "duration": 0.0636364,
                "tempo": 120.0
            },
            {
                "start_time": 0.4659091,
                "end_time": 0.5318182,
                "pitch": 72,
                "velocity": 51,
                "duration": 0.0659091,
                "tempo": 120.0
            },
            {
                "start_time": 0.5477273,
                "end_time": 0.6113636,
                "pitch": 86,
                "velocity": 51,
                "duration": 0.0636364,
                "tempo": 120.0
            },
            {
                "start_time": 0.6295455,
                "end_time": 0.6954545,
                "pitch": 79,
                "velocity": 51,
                "duration": 0.0659091,
                "tempo": 120.0
            },
            {
                "start_time": 0.7113636,
                "end_time": 0.7795455,
                "pitch": 72,
                "velocity": 51,
                "duration": 0.0681818,
                "tempo": 120.0
            },
            {
                "start_time": 0.7954545,
                "end_time": 0.8613636,
                "pitch": 86,
                "velocity": 51,
                "duration": 0.0659091,
                "tempo": 120.0
            },
            {
                "start_time": 0.8795455,
                "end_time": 0.9454545,
                "pitch": 79,
                "velocity": 51,
                "duration": 0.0659091,
                "tempo": 120.0
            },
            {
                "start_time": 0.9636364,
                "end_time": 1.0295455,
                "pitch": 72,
                "velocity": 51,
                "duration": 0.0659091,
                "tempo": 120.0
            },
            {
                "start_time": 1.0454545,
                "end_time": 1.1136364,
                "pitch": 86,
                "velocity": 51,
                "duration": 0.0681818,
                "tempo": 120.0
            },
            {
                "start_time": 1.1295455,
                "end_time": 1.1977273,
                "pitch": 79,
                "velocity": 51,
                "duration": 0.0681818,
                "tempo": 120.0
            },
            {
                "start_time": 1.2136364,
                "end_time": 1.2818182,
                "pitch": 72,
                "velocity": 51,
                "duration": 0.0681818,
                "tempo": 120.0
            },
            {
                "start_time": 1.2977273,
                "end_time": 1.3659091,
                "pitch": 79,
                "velocity": 51,
                "duration": 0.0681818,
                "tempo": 120.0
            },
            {
                "start_time": 1.3840909,
                "end_time": 1.4522727,
                "pitch": 86,
                "velocity": 51,
                "duration": 0.0681818,
                "tempo": 120.0
            },
            {
                "start_time": 1.4704545,
                "end_time": 1.5386364,
                "pitch": 79,
                "velocity": 51,
                "duration": 0.0681818,
                "tempo": 120.0
            },
            {
                "start_time": 1.5545455,
                "end_time": 1.625,
                "pitch": 72,
                "velocity": 51,
                "duration": 0.0704545,
                "tempo": 120.0
            },
            {
                "start_time": 1.6409091,
                "end_time": 1.7090909,
                "pitch": 86,
                "velocity": 51,
                "duration": 0.0681818,
                "tempo": 120.0
            },
            {
                "start_time": 1.725,
                "end_time": 1.7931818,
                "pitch": 79,
                "velocity": 51,
                "duration": 0.0681818,
                "tempo": 120.0
            },
            {
                "start_time": 1.8090909,
                "end_time": 1.8772727,
                "pitch": 72,
                "velocity": 51,
                "duration": 0.0681818,
                "tempo": 120.0
            },
            {
                "start_time": 1.8931818,
                "end_time": 1.9613636,
                "pitch": 86,
                "velocity": 51,
                "duration": 0.0681818,
                "tempo": 120.0
            },
            {
                "start_time": 1.9772727,
                "end_time": 2.0431818,
                "pitch": 79,
                "velocity": 51,
                "duration": 0.0659091,
                "tempo": 120.0
            },
            {
                "start_time": 2.0613636,
                "end_time": 2.1272727,
                "pitch": 72,
                "velocity": 51,
                "duration": 0.0659091,
                "tempo": 120.0
            },
            {
                "start_time": 2.1454545,
                "end_time": 2.2113636,
                "pitch": 86,
                "velocity": 51,
                "duration": 0.0659091,
                "tempo": 120.0
            },
            {
                "start_time": 2.2272727,
                "end_time": 2.2954545,
                "pitch": 79,
                "velocity": 51,
                "duration": 0.0681818,
                "tempo": 120.0
            },
            {
                "start_time": 2.3113636,
                "end_time": 2.3795455,
                "pitch": 72,
                "velocity": 51,
                "duration": 0.0681818,
                "tempo": 120.0
            },
            {
                "start_time": 2.3977273,
                "end_time": 2.4659091,
                "pitch": 86,
                "velocity": 51,
                "duration": 0.0681818,
                "tempo": 120.0
            },
            {
                "start_time": 2.4840909,
                "end_time": 2.5522727,
                "pitch": 79,
                "velocity": 51,
                "duration": 0.0681818,
                "tempo": 120.0
            },
            {
                "start_time": 2.5704545,
                "end_time": 2.6386364,
                "pitch": 72,
                "velocity": 51,
                "duration": 0.0681818,
                "tempo": 120.0
            },
            {
                "start_time": 2.6568182,
                "end_time": 2.7227273,
                "pitch": 79,
                "velocity": 51,
                "duration": 0.0659091,
                "tempo": 120.0
            },
            {
                "start_time": 2.7409091,
                "end_time": 2.8068182,
                "pitch": 86,
                "velocity": 51,
                "duration": 0.0659091,
                "tempo": 120.0
            },
            {
                "start_time": 2.8227273,
                "end_time": 2.8909091,
                "pitch": 79,
                "velocity": 51,
                "duration": 0.0681818,
                "tempo": 120.0
            },
            {
                "start_time": 2.9068182,
                "end_time": 2.975,
                "pitch": 72,
                "velocity": 51,
                "duration": 0.0681818,
                "tempo": 120.0
            },
            {
                "start_time": 2.9909091,
                "end_time": 3.075,
                "pitch": 86,
                "velocity": 51,
                "duration": 0.0840909,
                "tempo": 120.0
            },
            {
                "start_time": 3.0909091,
                "end_time": 3.1590909,
                "pitch": 79,
                "velocity": 51,
                "duration": 0.0681818,
                "tempo": 120.0
            },
            {
                "start_time": 3.175,
                "end_time": 3.2431818,
                "pitch": 72,
                "velocity": 51,
                "duration": 0.0681818,
                "tempo": 120.0
            },
            {
                "start_time": 3.2590909,
                "end_time": 3.325,
                "pitch": 86,
                "velocity": 51,
                "duration": 0.0659091,
                "tempo": 120.0
            },
            {
                "start_time": 3.3431818,
                "end_time": 3.4136364,
                "pitch": 79,
                "velocity": 51,
                "duration": 0.0704545,
                "tempo": 120.0
            },
            {
                "start_time": 3.4318182,
                "end_time": 3.5022727,
                "pitch": 72,
                "velocity": 51,
                "duration": 0.0704545,
                "tempo": 120.0
            },
            {
                "start_time": 3.5204545,
                "end_time": 3.5909091,
                "pitch": 86,
                "velocity": 51,
                "duration": 0.0704545,
                "tempo": 120.0
            },
            {
                "start_time": 3.6090909,
                "end_time": 3.6795455,
                "pitch": 79,
                "velocity": 51,
                "duration": 0.0704545,
                "tempo": 120.0
            },
            {
                "start_time": 3.6977273,
                "end_time": 3.7636364,
                "pitch": 72,
                "velocity": 51,
                "duration": 0.0659091,
                "tempo": 120.0
            },
            {
                "start_time": 3.7818182,
                "end_time": 3.8477273,
                "pitch": 86,
                "velocity": 51,
                "duration": 0.0659091,
                "tempo": 120.0
            },
            {
                "start_time": 3.8636364,
                "end_time": 3.9318182,
                "pitch": 79,
                "velocity": 51,
                "duration": 0.0681818,
                "tempo": 120.0
            },
            {
                "start_time": 3.9477273,
                "end_time": 4.0159091,
                "pitch": 72,
                "velocity": 51,
                "duration": 0.0681818,
                "tempo": 120.0
            },
            {
                "start_time": 4.0318182,
                "end_time": 4.1,
                "pitch": 79,
                "velocity": 51,
                "duration": 0.0681818,
                "tempo": 120.0
            },
            {
                "start_time": 4.1181818,
                "end_time": 4.1863636,
                "pitch": 86,
                "velocity": 51,
                "duration": 0.0681818,
                "tempo": 120.0
            },
            {
                "start_time": 4.2045455,
                "end_time": 4.2727273,
                "pitch": 79,
                "velocity": 51,
                "duration": 0.0681818,
                "tempo": 120.0
            },
            {
                "start_time": 4.2909091,
                "end_time": 4.3590909,
                "pitch": 72,
                "velocity": 51,
                "duration": 0.0681818,
                "tempo": 120.0
            },
            {
                "start_time": 4.375,
                "end_time": 4.4431818,
                "pitch": 86,
                "velocity": 51,
                "duration": 0.0681818,
                "tempo": 120.0
            },
            {
                "start_time": 4.4590909,
                "end_time": 4.5272727,
                "pitch": 79,
                "velocity": 51,
                "duration": 0.0681818,
                "tempo": 120.0
            },
            {
                "start_time": 4.5431818,
                "end_time": 4.6113636,
                "pitch": 72,
                "velocity": 51,
                "duration": 0.0681818,
                "tempo": 120.0
            },
            {
                "start_time": 4.6272727,
                "end_time": 4.6954545,
                "pitch": 86,
                "velocity": 51,
                "duration": 0.0681818,
                "tempo": 120.0
            },
            {
                "start_time": 4.7113636,
                "end_time": 4.7772727,
                "pitch": 79,
                "velocity": 51,
                "duration": 0.0659091,
                "tempo": 120.0
            },
            {
                "start_time": 4.7954545,
                "end_time": 4.8613636,
                "pitch": 72,
                "velocity": 51,
                "duration": 0.0659091,
                "tempo": 120.0
            },
            {
                "start_time": 4.8795455,
                "end_time": 4.9454545,
                "pitch": 86,
                "velocity": 51,
                "duration": 0.0659091,
                "tempo": 120.0
            },
            {
                "start_time": 4.9613636,
                "end_time": 5.0295455,
                "pitch": 79,
                "velocity": 51,
                "duration": 0.0681818,
                "tempo": 120.0
            },
            {
                "start_time": 5.0454545,
                "end_time": 5.1136364,
                "pitch": 72,
                "velocity": 51,
                "duration": 0.0681818,
                "tempo": 120.0
            },
            {
                "start_time": 5.1318182,
                "end_time": 5.2,
                "pitch": 86,
                "velocity": 51,
                "duration": 0.0681818,
                "tempo": 120.0
            },
            {
                "start_time": 5.2181818,
                "end_time": 5.2863636,
                "pitch": 79,
                "velocity": 51,
                "duration": 0.0681818,
                "tempo": 120.0
            },
            {
                "start_time": 5.3045455,
                "end_time": 5.3727273,
                "pitch": 72,
                "velocity": 51,
                "duration": 0.0681818,
                "tempo": 120.0
            },
            {
                "start_time": 5.4068182,
                "end_time": 5.8977273,
                "pitch": 66,
                "velocity": 51,
                "duration": 0.4909091,
                "tempo": 120.0
            },
            {
                "start_time": 5.9136364,
                "end_time": 6.775,
                "pitch": 55,
                "velocity": 51,
                "duration": 0.8613636,
                "tempo": 120.0
            },
            {
                "start_time": 6.7931818,
                "end_time": 7.2772727,
                "pitch": 66,
                "velocity": 51,
                "duration": 0.4840909,
                "tempo": 120.0
            },
            {
                "start_time": 7.2954545,
                "end_time": 8.125,
                "pitch": 55,
                "velocity": 51,
                "duration": 0.8295455,
                "tempo": 120.0
            },
            {
                "start_time": 8.1409091,
                "end_time": 8.6318182,
                "pitch": 64,
                "velocity": 51,
                "duration": 0.4909091,
                "tempo": 120.0
            },
            {
                "start_time": 8.6477273,
                "end_time": 9.5,
                "pitch": 53,
                "velocity": 51,
                "duration": 0.8522727,
                "tempo": 120.0
            },
            {
                "start_time": 9.5181818,
                "end_time": 10.0159091,
                "pitch": 64,
                "velocity": 51,
                "duration": 0.4977273,
                "tempo": 120.0
            },
            {
                "start_time": 10.0340909,
                "end_time": 10.8590909,
                "pitch": 53,
                "velocity": 51,
                "duration": 0.825,
                "tempo": 120.0
            },
            {
                "start_time": 10.875,
                "end_time": 12.1863636,
                "pitch": 64,
                "velocity": 51,
                "duration": 1.3113636,
                "tempo": 120.0
            }
        ],
        "Electric Guitar (clean)": [
            {
                "start_time": 5.575,
                "end_time": 5.725,
                "pitch": 40,
                "velocity": 51,
                "duration": 0.15,
                "tempo": 120.0
            },
            {
                "start_time": 5.7431818,
                "end_time": 5.8977273,
                "pitch": 40,
                "velocity": 51,
                "duration": 0.1545455,
                "tempo": 120.0
            },
            {
                "start_time": 5.9136364,
                "end_time": 6.0681818,
                "pitch": 40,
                "velocity": 51,
                "duration": 0.1545455,
                "tempo": 120.0
            },
            {
                "start_time": 6.0863636,
                "end_time": 6.2545455,
                "pitch": 40,
                "velocity": 51,
                "duration": 0.1681818,
                "tempo": 120.0
            },
            {
                "start_time": 6.2704545,
                "end_time": 6.4204545,
                "pitch": 40,
                "velocity": 51,
                "duration": 0.15,
                "tempo": 120.0
            },
            {
                "start_time": 6.4386364,
                "end_time": 6.5977273,
                "pitch": 40,
                "velocity": 51,
                "duration": 0.1590909,
                "tempo": 120.0
            },
            {
                "start_time": 6.6159091,
                "end_time": 6.775,
                "pitch": 35,
                "velocity": 51,
                "duration": 0.1590909,
                "tempo": 120.0
            },
            {
                "start_time": 6.7931818,
                "end_time": 6.9431818,
                "pitch": 39,
                "velocity": 51,
                "duration": 0.15,
                "tempo": 120.0
            },
            {
                "start_time": 6.9590909,
                "end_time": 7.1113636,
                "pitch": 39,
                "velocity": 51,
                "duration": 0.1522727,
                "tempo": 120.0
            },
            {
                "start_time": 7.1272727,
                "end_time": 7.2772727,
                "pitch": 39,
                "velocity": 51,
                "duration": 0.15,
                "tempo": 120.0
            },
            {
                "start_time": 7.2954545,
                "end_time": 7.4454545,
                "pitch": 39,
                "velocity": 51,
                "duration": 0.15,
                "tempo": 120.0
            },
            {
                "start_time": 7.4613636,
                "end_time": 7.6136364,
                "pitch": 39,
                "velocity": 51,
                "duration": 0.1522727,
                "tempo": 120.0
            },
            {
                "start_time": 7.6295455,
                "end_time": 7.7795455,
                "pitch": 39,
                "velocity": 51,
                "duration": 0.15,
                "tempo": 120.0
            },
            {
                "start_time": 7.7977273,
                "end_time": 7.9522727,
                "pitch": 39,
                "velocity": 51,
                "duration": 0.1545455,
                "tempo": 120.0
            },
            {
                "start_time": 7.9704545,
                "end_time": 8.125,
                "pitch": 39,
                "velocity": 51,
                "duration": 0.1545455,
                "tempo": 120.0
            },
            {
                "start_time": 8.1409091,
                "end_time": 8.2931818,
                "pitch": 38,
                "velocity": 51,
                "duration": 0.1522727,
                "tempo": 120.0
            },
            {
                "start_time": 8.3090909,
                "end_time": 8.4590909,
                "pitch": 38,
                "velocity": 51,
                "duration": 0.15,
                "tempo": 120.0
            },
            {
                "start_time": 8.4772727,
                "end_time": 8.6318182,
                "pitch": 38,
                "velocity": 51,
                "duration": 0.1545455,
                "tempo": 120.0
            },
            {
                "start_time": 8.6477273,
                "end_time": 8.8045455,
                "pitch": 38,
                "velocity": 51,
                "duration": 0.1568182,
                "tempo": 120.0
            },
            {
                "start_time": 8.8204545,
                "end_time": 8.9704545,
                "pitch": 38,
                "velocity": 51,
                "duration": 0.15,
                "tempo": 120.0
            },
            {
                "start_time": 8.9886364,
                "end_time": 9.1386364,
                "pitch": 38,
                "velocity": 51,
                "duration": 0.15,
                "tempo": 120.0
            },
            {
                "start_time": 9.1545455,
                "end_time": 9.3272727,
                "pitch": 38,
                "velocity": 51,
                "duration": 0.1727273,
                "tempo": 120.0
            },
            {
                "start_time": 9.3454545,
                "end_time": 9.5,
                "pitch": 33,
                "velocity": 51,
                "duration": 0.1545455,
                "tempo": 120.0
            },
            {
                "start_time": 9.5181818,
                "end_time": 9.6727273,
                "pitch": 37,
                "velocity": 51,
                "duration": 0.1545455,
                "tempo": 120.0
            },
            {
                "start_time": 9.6886364,
                "end_time": 9.8454545,
                "pitch": 37,
                "velocity": 51,
                "duration": 0.1568182,
                "tempo": 120.0
            },
            {
                "start_time": 9.8613636,
                "end_time": 10.0159091,
                "pitch": 37,
                "velocity": 51,
                "duration": 0.1545455,
                "tempo": 120.0
            },
            {
                "start_time": 10.0340909,
                "end_time": 10.1886364,
                "pitch": 37,
                "velocity": 51,
                "duration": 0.1545455,
                "tempo": 120.0
            },
            {
                "start_time": 10.2068182,
                "end_time": 10.3568182,
                "pitch": 37,
                "velocity": 51,
                "duration": 0.15,
                "tempo": 120.0
            },
            {
                "start_time": 10.3727273,
                "end_time": 10.525,
                "pitch": 37,
                "velocity": 51,
                "duration": 0.1522727,
                "tempo": 120.0
            },
            {
                "start_time": 10.5409091,
                "end_time": 10.6909091,
                "pitch": 37,
                "velocity": 51,
                "duration": 0.15,
                "tempo": 120.0
            },
            {
                "start_time": 10.7090909,
                "end_time": 10.8590909,
                "pitch": 37,
                "velocity": 51,
                "duration": 0.15,
                "tempo": 120.0
            },
            {
                "start_time": 10.875,
                "end_time": 12.1863636,
                "pitch": 36,
                "velocity": 51,
                "duration": 1.3113636,
                "tempo": 120.0
            }
        ],
        "Acoustic Grand Piano": [
            {
                "start_time": 0.0681818,
                "end_time": 5.6409091,
                "pitch": 86,
                "velocity": 32,
                "duration": 5.5727273,
                "tempo": 120.0
            },
            {
                "start_time": 5.6590909,
                "end_time": 5.8113636,
                "pitch": 62,
                "velocity": 32,
                "duration": 0.1522727,
                "tempo": 120.0
            },
            {
                "start_time": 5.8272727,
                "end_time": 5.9840909,
                "pitch": 66,
                "velocity": 32,
                "duration": 0.1568182,
                "tempo": 120.0
            },
            {
                "start_time": 6.0,
                "end_time": 6.1704545,
                "pitch": 59,
                "velocity": 32,
                "duration": 0.1704545,
                "tempo": 120.0
            },
            {
                "start_time": 6.1863636,
                "end_time": 6.3386364,
                "pitch": 62,
                "velocity": 32,
                "duration": 0.1522727,
                "tempo": 120.0
            },
            {
                "start_time": 6.3545455,
                "end_time": 6.5090909,
                "pitch": 66,
                "velocity": 32,
                "duration": 0.1545455,
                "tempo": 120.0
            },
            {
                "start_time": 6.5272727,
                "end_time": 6.6863636,
                "pitch": 52,
                "velocity": 32,
                "duration": 0.1590909,
                "tempo": 120.0
            },
            {
                "start_time": 6.7045455,
                "end_time": 6.8590909,
                "pitch": 55,
                "velocity": 32,
                "duration": 0.1545455,
                "tempo": 120.0
            },
            {
                "start_time": 6.8772727,
                "end_time": 7.0272727,
                "pitch": 61,
                "velocity": 32,
                "duration": 0.15,
                "tempo": 120.0
            },
            {
                "start_time": 7.0431818,
                "end_time": 7.1931818,
                "pitch": 66,
                "velocity": 32,
                "duration": 0.15,
                "tempo": 120.0
            },
            {
                "start_time": 7.2113636,
                "end_time": 7.3613636,
                "pitch": 61,
                "velocity": 32,
                "duration": 0.15,
                "tempo": 120.0
            },
            {
                "start_time": 7.3795455,
                "end_time": 7.5295455,
                "pitch": 52,
                "velocity": 32,
                "duration": 0.15,
                "tempo": 120.0
            },
            {
                "start_time": 7.5454545,
                "end_time": 7.6977273,
                "pitch": 54,
                "velocity": 32,
                "duration": 0.1522727,
                "tempo": 120.0
            },
            {
                "start_time": 7.7136364,
                "end_time": 7.8659091,
                "pitch": 66,
                "velocity": 32,
                "duration": 0.1522727,
                "tempo": 120.0
            },
            {
                "start_time": 7.8840909,
                "end_time": 8.0386364,
                "pitch": 61,
                "velocity": 32,
                "duration": 0.1545455,
                "tempo": 120.0
            },
            {
                "start_time": 8.0545455,
                "end_time": 8.2090909,
                "pitch": 55,
                "velocity": 32,
                "duration": 0.1545455,
                "tempo": 120.0
            },
            {
                "start_time": 8.225,
                "end_time": 8.375,
                "pitch": 53,
                "velocity": 32,
                "duration": 0.15,
                "tempo": 120.0
            },
            {
                "start_time": 8.3931818,
                "end_time": 8.5454545,
                "pitch": 60,
                "velocity": 32,
                "duration": 0.1522727,
                "tempo": 120.0
            },
            {
                "start_time": 8.5636364,
                "end_time": 8.7181818,
                "pitch": 64,
                "velocity": 32,
                "duration": 0.1545455,
                "tempo": 120.0
            },
            {
                "start_time": 8.7340909,
                "end_time": 8.8886364,
                "pitch": 57,
                "velocity": 32,
                "duration": 0.1545455,
                "tempo": 120.0
            },
            {
                "start_time": 8.9045455,
                "end_time": 9.0545455,
                "pitch": 60,
                "velocity": 32,
                "duration": 0.15,
                "tempo": 120.0
            },
            {
                "start_time": 9.0727273,
                "end_time": 9.2409091,
                "pitch": 64,
                "velocity": 32,
                "duration": 0.1681818,
                "tempo": 120.0
            },
            {
                "start_time": 9.2590909,
                "end_time": 9.4136364,
                "pitch": 50,
                "velocity": 32,
                "duration": 0.1545455,
                "tempo": 120.0
            },
            {
                "start_time": 9.4318182,
                "end_time": 9.5863636,
                "pitch": 53,
                "velocity": 32,
                "duration": 0.1545455,
                "tempo": 120.0
            },
            {
                "start_time": 9.6022727,
                "end_time": 9.7590909,
                "pitch": 59,
                "velocity": 32,
                "duration": 0.1568182,
                "tempo": 120.0
            },
            {
                "start_time": 9.775,
                "end_time": 9.9295455,
                "pitch": 64,
                "velocity": 32,
                "duration": 0.1545455,
                "tempo": 120.0
            },
            {
                "start_time": 9.9477273,
                "end_time": 10.1022727,
                "pitch": 59,
                "velocity": 32,
                "duration": 0.1545455,
                "tempo": 120.0
            },
            {
                "start_time": 10.1204545,
                "end_time": 10.2727273,
                "pitch": 50,
                "velocity": 32,
                "duration": 0.1522727,
                "tempo": 120.0
            },
            {
                "start_time": 10.2886364,
                "end_time": 10.4409091,
                "pitch": 52,
                "velocity": 32,
                "duration": 0.1522727,
                "tempo": 120.0
            },
            {
                "start_time": 10.4568182,
                "end_time": 10.6068182,
                "pitch": 64,
                "velocity": 32,
                "duration": 0.15,
                "tempo": 120.0
            },
            {
                "start_time": 10.625,
                "end_time": 10.775,
                "pitch": 59,
                "velocity": 32,
                "duration": 0.15,
                "tempo": 120.0
            },
            {
                "start_time": 10.7909091,
                "end_time": 10.9454545,
                "pitch": 53,
                "velocity": 32,
                "duration": 0.1545455,
                "tempo": 120.0
            },
            {
                "start_time": 10.9613636,
                "end_time": 12.2840909,
                "pitch": 57,
                "velocity": 32,
                "duration": 1.3227273,
                "tempo": 120.0
            }
        ]
    }
}