{
    "mood": "happy",
    "instruments": {
        "Clarinet": [
            {
                "start_time": 0.0204545,
                "end_time": 0.7272727,
                "pitch": 76,
                "velocity": 40,
                "duration": 0.7068182,
                "tempo": 120.0
            },
            {
                "start_time": 0.7613636,
                "end_time": 0.9909091,
                "pitch": 75,
                "velocity": 40,
                "duration": 0.2295455,
                "tempo": 120.0
            },
            {
                "start_time": 1.0227273,
                "end_time": 1.2522727,
                "pitch": 76,
                "velocity": 40,
                "duration": 0.2295455,
                "tempo": 120.0
            },
            {
                "start_time": 1.2863636,
                "end_time": 1.5295455,
                "pitch": 79,
                "velocity": 40,
                "duration": 0.2431818,
                "tempo": 120.0
            },
            {
                "start_time": 1.5636364,
                "end_time": 2.6045455,
                "pitch": 84,
                "velocity": 40,
                "duration": 1.0409091,
                "tempo": 120.0
            },
            {
                "start_time": 2.6363636,
                "end_time": 2.8659091,
                "pitch": 83,
                "velocity": 40,
                "duration": 0.2295455,
                "tempo": 120.0
            },
            {
                "start_time": 2.9,
                "end_time": 3.1431818,
                "pitch": 84,
                "velocity": 40,
                "duration": 0.2431818,
                "tempo": 120.0
            },
            {
                "start_time": 3.1772727,
                "end_time": 3.4204545,
                "pitch": 86,
                "velocity": 40,
                "duration": 0.2431818,
                "tempo": 120.0
            },
            {
                "start_time": 3.4522727,
                "end_time": 3.6863636,
                "pitch": 84,
                "velocity": 40,
                "duration": 0.2340909,
                "tempo": 120.0
            },
            {
                "start_time": 3.7204545,
                "end_time": 3.9545455,
                "pitch": 83,
                "velocity": 40,
                "duration": 0.2340909,
                "tempo": 120.0
            },
            {
                "start_time": 3.9886364,
                "end_time": 4.2204545,
                "pitch": 84,
                "velocity": 40,
                "duration": 0.2318182,
                "tempo": 120.0
            },
            {
                "start_time": 4.2545455,
                "end_time": 4.4886364,
                "pitch": 76,
                "velocity": 40,
                "duration": 0.2340909,
                "tempo": 120.0
            },
            {
                "start_time": 4.5227273,
                "end_time": 4.7613636,
                "pitch": 79,
                "velocity": 40,
                "duration": 0.2386364,
                "tempo": 120.0
            },
            {
                "start_time": 4.7954545,
                "end_time": 5.5659091,
                "pitch": 83,
                "velocity": 40,
                "duration": 0.7704545,
                "tempo": 120.0
            },
            {
                "start_time": 5.6,
                "end_time": 6.3727273,
                "pitch": 81,
                "velocity": 40,
                "duration": 0.7727273,
                "tempo": 120.0
            },
            {
                "start_time": 6.4068182,
                "end_time": 7.1795455,
                "pitch": 77,
                "velocity": 40,
                "duration": 0.7727273,
                "tempo": 120.0
            },
            {
                "start_time": 7.2136364,
                "end_time": 7.4477273,
                "pitch": 76,
                "velocity": 40,
                "duration": 0.2340909,
                "tempo": 120.0
            },
            {
                "start_time": 7.4795455,
                "end_time": 7.7136364,
                "pitch": 77,
                "velocity": 40,
                "duration": 0.2340909,
                "tempo": 120.0
            },
            {
                "start_time": 7.7477273,
                "end_time": 7.9863636,
                "pitch": 79,
                "velocity": 40,
                "duration": 0.2386364,
                "tempo": 120.0
            },
            {
                "start_time": 8.0204545,
                "end_time": 9.0545455,
                "pitch": 83,
                "velocity": 40,
                "duration": 1.0340909,
                "tempo": 120.0
            },
            {
                "start_time": 9.0886364,
                "end_time": 9.3181818,
                "pitch": 81,
                "velocity": 40,
                "duration": 0.2295455,
                "tempo": 120.0
            },
            {
                "start_time": 9.3522727,
                "end_time": 9.5931818,
                "pitch": 83,
                "velocity": 40,
                "duration": 0.2409091,
                "tempo": 120.0
            },
            {
                "start_time": 9.6272727,
                "end_time": 9.8704545,
                "pitch": 84,
                "velocity": 40,
                "duration": 0.2431818,
                "tempo": 120.0
            },
            {
                "start_time": 9.9045455,
                "end_time": 10.1227273,
                "pitch": 83,
                "velocity": 40,
                "duration": 0.2181818,
                "tempo": 120.0
            },
            {
                "start_time": 10.1386364,
                "end_time": 10.4045455,
                "pitch": 81,
                "velocity": 40,
                "duration": 0.2659091,
                "tempo": 120.0
            },
            {
                "start_time": 10.4386364,
                "end_time": 10.6727273,
                "pitch": 83,
                "velocity": 40,
                "duration": 0.2340909,
                "tempo": 120.0
            },
            {
                "start_time": 10.7068182,
                "end_time": 10.9409091,
                "pitch": 74,
                "velocity": 40,
                "duration": 0.2340909,
                "tempo": 120.0
            },
            {
                "start_time": 10.9727273,
                "end_time": 11.2113636,
                "pitch": 77,
                "velocity": 40,
                "duration": 0.2386364,
                "tempo": 120.0
            },
            {
                "start_time": 11.2454545,
                "end_time": 12.0181818,
                "pitch": 81,
                "velocity": 40,
                "duration": 0.7727273,
                "tempo": 120.0
            },
            {
                "start_time": 12.0522727,
                "end_time": 12.825,
                "pitch": 79,
                "velocity": 40,
                "duration": 0.7727273,
                "tempo": 120.0
            },
            {
                "start_time": 12.8590909,
                "end_time": 13.3636364,
                "pitch": 79,
                "velocity": 40,
                "duration": 0.5045455,
                "tempo": 120.0
            },
            {
                "start_time": 13.3977273,
                "end_time": 13.6318182,
                "pitch": 76,
                "velocity": 40,
                "duration": 0.2340909,
                "tempo": 120.0
            },
            {
                "start_time": 13.6636364,
                "end_time": 13.8977273,
                "pitch": 75,
                "velocity": 40,
                "duration": 0.2340909,
                "tempo": 120.0
            },
            {
                "start_time": 13.9318182,
                "end_time": 14.1659091,
                "pitch": 75,
                "velocity": 40,
                "duration": 0.2340909,
                "tempo": 120.0
            },
            {
                "start_time": 14.2,
                "end_time": 14.4363636,
                "pitch": 79,
                "velocity": 40,
                "duration": 0.2363636,
                "tempo": 120.0
            },
            {
                "start_time": 14.4704545,
                "end_time": 15.5068182,
                "pitch": 84,
                "velocity": 40,
                "duration": 1.0363636,
                "tempo": 120.0
            },
            {
                "start_time": 15.5386364,
                "end_time": 15.7681818,
                "pitch": 83,
                "velocity": 40,
                "duration": 0.2295455,
                "tempo": 120.0
            },
            {
                "start_time": 15.8022727,
                "end_time": 16.0454545,
                "pitch": 84,
                "velocity": 40,
                "duration": 0.2431818,
                "tempo": 120.0
            },
            {
                "start_time": 16.0795455,
                "end_time": 16.3227273,
                "pitch": 86,
                "velocity": 40,
                "duration": 0.2431818,
                "tempo": 120.0
            },
            {
                "start_time": 16.3568182,
                "end_time": 16.5886364,
                "pitch": 84,
                "velocity": 40,
                "duration": 0.2318182,
                "tempo": 120.0
            },
            {
                "start_time": 16.6227273,
                "end_time": 16.8568182,
                "pitch": 83,
                "velocity": 40,
                "duration": 0.2340909,
                "tempo": 120.0
            },
            {
                "start_time": 16.8909091,
                "end_time": 17.125,
                "pitch": 84,
                "velocity": 40,
                "duration": 0.2340909,
                "tempo": 120.0
            },
            {
                "start_time": 17.1568182,
                "end_time": 17.3909091,
                "pitch": 77,
                "velocity": 40,
                "duration": 0.2340909,
                "tempo": 120.0
            },
            {
                "start_time": 17.425,
                "end_time": 17.6636364,
                "pitch": 81,
                "velocity": 40,
                "duration": 0.2386364,
                "tempo": 120.0
            },
            {
                "start_time": 17.6977273,
                "end_time": 18.4704545,
                "pitch": 82,
                "velocity": 40,
                "duration": 0.7727273,
                "tempo": 120.0
            },
            {
                "start_time": 18.5022727,
                "end_time": 19.2704545,
                "pitch": 80,
                "velocity": 40,
                "duration": 0.7681818,
                "tempo": 120.0
            },
            {
                "start_time": 19.3045455,
                "end_time": 20.3454545,
                "pitch": 79,
                "velocity": 40,
                "duration": 1.0409091,
                "tempo": 120.0
            },
            {
                "start_time": 20.3772727,
                "end_time": 20.6068182,
                "pitch": 78,
                "velocity": 40,
                "duration": 0.2295455,
                "tempo": 120.0
            },
            {
                "start_time": 20.6409091,
                "end_time": 20.8840909,
                "pitch": 79,
                "velocity": 40,
                "duration": 0.2431818,
                "tempo": 120.0
            },
            {
                "start_time": 20.9181818,
                "end_time": 21.1613636,
                "pitch": 76,
                "velocity": 40,
                "duration": 0.2431818,
                "tempo": 120.0
            },
            {
                "start_time": 21.1954545,
                "end_time": 21.4272727,
                "pitch": 79,
                "velocity": 40,
                "duration": 0.2318182,
                "tempo": 120.0
            },
            {
                "start_time": 21.4613636,
                "end_time": 21.6954545,
                "pitch": 83,
                "velocity": 40,
                "duration": 0.2340909,
                "tempo": 120.0
            },
            {
                "start_time": 21.7295455,
                "end_time": 21.9636364,
                "pitch": 86,
                "velocity": 40,
                "duration": 0.2340909,
                "tempo": 120.0
            },
            {
                "start_time": 21.9954545,
                "end_time": 22.2295455,
                "pitch": 84,
                "velocity": 40,
                "duration": 0.2340909,
                "tempo": 120.0
            },
            {
                "start_time": 22.2636364,
                "end_time": 22.5022727,
                "pitch": 83,
                "velocity": 40,
                "duration": 0.2386364,
                "tempo": 120.0
            },
            {
                "start_time": 22.5363636,
                "end_time": 22.7727273,
                "pitch": 81,
                "velocity": 40,
                "duration": 0.2363636,
                "tempo": 120.0
            },
            {
                "start_time": 22.8068182,
                "end_time": 23.0409091,
                "pitch": 79,
                "velocity": 40,
                "duration": 0.2340909,
                "tempo": 120.0
            },
            {
                "start_time": 23.075,
                "end_time": 23.3090909,
                "pitch": 81,
                "velocity": 40,
                "duration": 0.2340909,
                "tempo": 120.0
            },
            {
                "start_time": 23.3409091,
                "end_time": 23.575,
                "pitch": 83,
                "velocity": 40,
                "duration": 0.2340909,
                "tempo": 120.0
            },
            {
                "start_time": 23.6090909,
                "end_time": 23.8431818,
                "pitch": 76,
                "velocity": 40,
                "duration": 0.2340909,
                "tempo": 120.0
            },
            {
                "start_time": 23.8772727,
                "end_time": 24.1136364,
                "pitch": 79,
                "velocity": 40,
                "duration": 0.2363636,
                "tempo": 120.0
            },
            {
                "start_time": 24.1477273,
                "end_time": 24.3863636,
                "pitch": 84,
                "velocity": 40,
                "duration": 0.2386364,
                "tempo": 120.0
            },
            {
                "start_time": 24.4204545,
                "end_time": 24.6545455,
                "pitch": 79,
                "velocity": 40,
                "duration": 0.2340909,
                "tempo": 120.0
            },
            {
                "start_time": 24.6863636,
                "end_time": 24.9204545,
                "pitch": 76,
                "velocity": 40,
                "duration": 0.2340909,
                "tempo": 120.0
            },
            {
                "start_time": 24.9545455,
                "end_time": 25.1840909,
                "pitch": 72,
                "velocity": 40,
                "duration": 0.2295455,
                "tempo": 120.0
            }
        ],
        "Acoustic Bass": [
            {
                "start_time": 0.0068182,
                "end_time": 0.1840909,
                "pitch": 48,
                "velocity": 64,
                "duration": 0.1772727,
                "tempo": 120.0
            },
            {
                "start_time": 0.1954545,
                "end_time": 0.4454545,
                "pitch": 55,
                "velocity": 64,
                "duration": 0.25,
                "tempo": 120.0
            },
            {
                "start_time": 0.4613636,
                "end_time": 0.7113636,
                "pitch": 55,
                "velocity": 64,
                "duration": 0.25,
                "tempo": 120.0
            },
            {
                "start_time": 0.7272727,
                "end_time": 0.975,
                "pitch": 43,
                "velocity": 64,
                "duration": 0.2477273,
                "tempo": 120.0
            },
            {
                "start_time": 0.9909091,
                "end_time": 1.2363636,
                "pitch": 55,
                "velocity": 64,
                "duration": 0.2454545,
                "tempo": 120.0
            },
            {
                "start_time": 1.2522727,
                "end_time": 1.5113636,
                "pitch": 55,
                "velocity": 64,
                "duration": 0.2590909,
                "tempo": 120.0
            },
            {
                "start_time": 1.5295455,
                "end_time": 1.7886364,
                "pitch": 48,
                "velocity": 64,
                "duration": 0.2590909,
                "tempo": 120.0
            },
            {
                "start_time": 1.8068182,
                "end_time": 2.0568182,
                "pitch": 55,
                "velocity": 64,
                "duration": 0.25,
                "tempo": 120.0
            },
            {
                "start_time": 2.075,
                "end_time": 2.325,
                "pitch": 55,
                "velocity": 64,
                "duration": 0.25,
                "tempo": 120.0
            },
            {
                "start_time": 2.3409091,
                "end_time": 2.5863636,
                "pitch": 43,
                "velocity": 64,
                "duration": 0.2454545,
                "tempo": 120.0
            },
            {
                "start_time": 2.6045455,
                "end_time": 2.85,
                "pitch": 55,
                "velocity": 64,
                "duration": 0.2454545,
                "tempo": 120.0
            },
            {
                "start_time": 2.8659091,
                "end_time": 3.125,
                "pitch": 55,
                "velocity": 64,
                "duration": 0.2590909,
                "tempo": 120.0
            },
            {
                "start_time": 3.1431818,
                "end_time": 3.4022727,
                "pitch": 48,
                "velocity": 64,
                "duration": 0.2590909,
                "tempo": 120.0
            },
            {
                "start_time": 3.4204545,
                "end_time": 3.6704545,
                "pitch": 55,
                "velocity": 64,
                "duration": 0.25,
                "tempo": 120.0
            },
            {
                "start_time": 3.6863636,
                "end_time": 3.9386364,
                "pitch": 55,
                "velocity": 64,
                "duration": 0.2522727,
                "tempo": 120.0
            },
            {
                "start_time": 3.9545455,
                "end_time": 4.2045455,
                "pitch": 43,
                "velocity": 64,
                "duration": 0.25,
                "tempo": 120.0
            },
            {
                "start_time": 4.2204545,
                "end_time": 4.4727273,
                "pitch": 55,
                "velocity": 64,
                "duration": 0.2522727,
                "tempo": 120.0
            },
            {
                "start_time": 4.4886364,
                "end_time": 4.7431818,
                "pitch": 55,
                "velocity": 64,
                "duration": 0.2545455,
                "tempo": 120.0
            },
            {
                "start_time": 4.7613636,
                "end_time": 5.0159091,
                "pitch": 50,
                "velocity": 64,
                "duration": 0.2545455,
                "tempo": 120.0
            },
            {
                "start_time": 5.0318182,
                "end_time": 5.2840909,
                "pitch": 55,
                "velocity": 64,
                "duration": 0.2522727,
                "tempo": 120.0
            },
            {
                "start_time": 5.3,
                "end_time": 5.55,
                "pitch": 55,
                "velocity": 64,
                "duration": 0.25,
                "tempo": 120.0
            },
            {
                "start_time": 5.5659091,
                "end_time": 5.8181818,
                "pitch": 43,
                "velocity": 64,
                "duration": 0.2522727,
                "tempo": 120.0
            },
            {
                "start_time": 5.8340909,
                "end_time": 6.0840909,
                "pitch": 55,
                "velocity": 64,
                "duration": 0.25,
                "tempo": 120.0
            },
            {
                "start_time": 6.1022727,
                "end_time": 6.3568182,
                "pitch": 55,
                "velocity": 64,
                "duration": 0.2545455,
                "tempo": 120.0
            },
            {
                "start_time": 6.3727273,
                "end_time": 6.6272727,
                "pitch": 50,
                "velocity": 64,
                "duration": 0.2545455,
                "tempo": 120.0
            },
            {
                "start_time": 6.6454545,
                "end_time": 6.8954545,
                "pitch": 55,
                "velocity": 64,
                "duration": 0.25,
                "tempo": 120.0
            },
            {
                "start_time": 6.9136364,
                "end_time": 7.1636364,
                "pitch": 55,
                "velocity": 64,
                "duration": 0.25,
                "tempo": 120.0
            },
            {
                "start_time": 7.1795455,
                "end_time": 7.4295455,
                "pitch": 43,
                "velocity": 64,
                "duration": 0.25,
                "tempo": 120.0
            },
            {
                "start_time": 7.4477273,
                "end_time": 7.6977273,
                "pitch": 55,
                "velocity": 64,
                "duration": 0.25,
                "tempo": 120.0
            },
            {
                "start_time": 7.7136364,
                "end_time": 7.9681818,
                "pitch": 55,
                "velocity": 64,
                "duration": 0.2545455,
                "tempo": 120.0
            },
            {
                "start_time": 7.9863636,
                "end_time": 8.2409091,
                "pitch": 50,
                "velocity": 64,
                "duration": 0.2545455,
                "tempo": 120.0
            },
            {
                "start_time": 8.2568182,
                "end_time": 8.5090909,
                "pitch": 55,
                "velocity": 64,
                "duration": 0.2522727,
                "tempo": 120.0
            },
            {
                "start_time": 8.525,
                "end_time": 8.775,
                "pitch": 55,
                "velocity": 64,
                "duration": 0.25,
                "tempo": 120.0
            },
            {
                "start_time": 8.7931818,
                "end_time": 9.0386364,
                "pitch": 43,
                "velocity": 64,
                "duration": 0.2454545,
                "tempo": 120.0
            },
            {
                "start_time": 9.0545455,
                "end_time": 9.3,
                "pitch": 55,
                "velocity": 64,
                "duration": 0.2454545,
                "tempo": 120.0
            },
            {
                "start_time": 9.3181818,
                "end_time": 9.5772727,
                "pitch": 55,
                "velocity": 64,
                "duration": 0.2590909,
                "tempo": 120.0
            },
            {
                "start_time": 9.5931818,
                "end_time": 9.8545455,
                "pitch": 50,
                "velocity": 64,
                "duration": 0.2613636,
                "tempo": 120.0
            },
            {
                "start_time": 9.8704545,
                "end_time": 10.1227273,
                "pitch": 55,
                "velocity": 64,
                "duration": 0.2522727,
                "tempo": 120.0
            },
            {
                "start_time": 10.1386364,
                "end_time": 10.3886364,
                "pitch": 55,
                "velocity": 64,
                "duration": 0.25,
                "tempo": 120.0
            },
            {
                "start_time": 10.4045455,
                "end_time": 10.6568182,
                "pitch": 43,
                "velocity": 64,
                "duration": 0.2522727,
                "tempo": 120.0
            },
            {
                "start_time": 10.6727273,
                "end_time": 10.9227273,
                "pitch": 55,
                "velocity": 64,
                "duration": 0.25,
                "tempo": 120.0
            },
            {
                "start_time": 10.9409091,
                "end_time": 11.1954545,
                "pitch": 55,
                "velocity": 64,
                "duration": 0.2545455,
                "tempo": 120.0
            },
            {
                "start_time": 11.2113636,
                "end_time": 11.4659091,
                "pitch": 48,
                "velocity": 64,
                "duration": 0.2545455,
                "tempo": 120.0
            },
            {
                "start_time": 11.4840909,
                "end_time": 11.7340909,
                "pitch": 55,
                "velocity": 64,
                "duration": 0.25,
                "tempo": 120.0
            },
            {
                "start_time": 11.75,
                "end_time": 12.0022727,
                "pitch": 55,
                "velocity": 64,
                "duration": 0.2522727,
                "tempo": 120.0
            },
            {
                "start_time": 12.0181818,
                "end_time": 12.2681818,
                "pitch": 48,
                "velocity": 64,
                "duration": 0.25,
                "tempo": 120.0
            },
            {
                "start_time": 12.2863636,
                "end_time": 12.5363636,
                "pitch": 59,
                "velocity": 64,
                "duration": 0.25,
                "tempo": 120.0
            },
            {
                "start_time": 12.5522727,
                "end_time": 12.8068182,
                "pitch": 57,
                "velocity": 64,
                "duration": 0.2545455,
                "tempo": 120.0
            },
            {
                "start_time": 12.825,
                "end_time": 13.0795455,
                "pitch": 48,
                "velocity": 64,
                "duration": 0.2545455,
                "tempo": 120.0
            },
            {
                "start_time": 13.0954545,
                "end_time": 13.3477273,
                "pitch": 55,
                "velocity": 64,
                "duration": 0.2522727,
                "tempo": 120.0
            },
            {
                "start_time": 13.3636364,
                "end_time": 13.6136364,
                "pitch": 55,
                "velocity": 64,
                "duration": 0.25,
                "tempo": 120.0
            },
            {
                "start_time": 13.6318182,
                "end_time": 13.8818182,
                "pitch": 43,
                "velocity": 64,
                "duration": 0.25,
                "tempo": 120.0
            },
            {
                "start_time": 13.8977273,
                "end_time": 14.1477273,
                "pitch": 55,
                "velocity": 64,
                "duration": 0.25,
                "tempo": 120.0
            },
            {
                "start_time": 14.1659091,
                "end_time": 14.4204545,
                "pitch": 55,
                "velocity": 64,
                "duration": 0.2545455,
                "tempo": 120.0
            },
            {
                "start_time": 14.4363636,
                "end_time": 14.6931818,
                "pitch": 48,
                "velocity": 64,
                "duration": 0.2568182,
                "tempo": 120.0
            },
            {
                "start_time": 14.7090909,
                "end_time": 14.9590909,
                "pitch": 55,
                "velocity": 64,
                "duration": 0.25,
                "tempo": 120.0
            },
            {
                "start_time": 14.9772727,
                "end_time": 15.2272727,
                "pitch": 55,
                "velocity": 64,
                "duration": 0.25,
                "tempo": 120.0
            },
            {
                "start_time": 15.2431818,
                "end_time": 15.4886364,
                "pitch": 43,
                "velocity": 64,
                "duration": 0.2454545,
                "tempo": 120.0
            },
            {
                "start_time": 15.5068182,
                "end_time": 15.7522727,
                "pitch": 55,
                "velocity": 64,
                "duration": 0.2454545,
                "tempo": 120.0
            },
            {
                "start_time": 15.7681818,
                "end_time": 16.0272727,
                "pitch": 55,
                "velocity": 64,
                "duration": 0.2590909,
                "tempo": 120.0
            },
            {
                "start_time": 16.0454545,
                "end_time": 16.3045455,
                "pitch": 48,
                "velocity": 64,
                "duration": 0.2590909,
                "tempo": 120.0
            },
            {
                "start_time": 16.3227273,
                "end_time": 16.5727273,
                "pitch": 55,
                "velocity": 64,
                "duration": 0.25,
                "tempo": 120.0
            },
            {
                "start_time": 16.5886364,
                "end_time": 16.8409091,
                "pitch": 55,
                "velocity": 64,
                "duration": 0.2522727,
                "tempo": 120.0
            },
            {
                "start_time": 16.8568182,
                "end_time": 17.1068182,
                "pitch": 43,
                "velocity": 64,
                "duration": 0.25,
                "tempo": 120.0
            },
            {
                "start_time": 17.125,
                "end_time": 17.375,
                "pitch": 55,
                "velocity": 64,
                "duration": 0.25,
                "tempo": 120.0
            },
            {
                "start_time": 17.3909091,
                "end_time": 17.6454545,
                "pitch": 55,
                "velocity": 64,
                "duration": 0.2545455,
                "tempo": 120.0
            },
            {
                "start_time": 17.6636364,
                "end_time": 17.9181818,
                "pitch": 44,
                "velocity": 64,
                "duration": 0.2545455,
                "tempo": 120.0
            },
            {
                "start_time": 17.9340909,
                "end_time": 18.1863636,
                "pitch": 51,
                "velocity": 64,
                "duration": 0.2522727,
                "tempo": 120.0
            },
            {
                "start_time": 18.2022727,
                "end_time": 18.4522727,
                "pitch": 51,
                "velocity": 64,
                "duration": 0.25,
                "tempo": 120.0
            },
            {
                "start_time": 18.4704545,
                "end_time": 18.7159091,
                "pitch": 44,
                "velocity": 64,
                "duration": 0.2454545,
                "tempo": 120.0
            },
            {
                "start_time": 18.7318182,
                "end_time": 18.9772727,
                "pitch": 51,
                "velocity": 64,
                "duration": 0.2454545,
                "tempo": 120.0
            },
            {
                "start_time": 18.9954545,
                "end_time": 19.2522727,
                "pitch": 51,
                "velocity": 64,
                "duration": 0.2568182,
                "tempo": 120.0
            },
            {
                "start_time": 19.2704545,
                "end_time": 19.5295455,
                "pitch": 43,
                "velocity": 64,
                "duration": 0.2590909,
                "tempo": 120.0
            },
            {
                "start_time": 19.5477273,
                "end_time": 19.7977273,
                "pitch": 50,
                "velocity": 64,
                "duration": 0.25,
                "tempo": 120.0
            },
            {
                "start_time": 19.8159091,
                "end_time": 20.0659091,
                "pitch": 50,
                "velocity": 64,
                "duration": 0.25,
                "tempo": 120.0
            },
            {
                "start_time": 20.0818182,
                "end_time": 20.3295455,
                "pitch": 43,
                "velocity": 64,
                "duration": 0.2477273,
                "tempo": 120.0
            },
            {
                "start_time": 20.3454545,
                "end_time": 20.5909091,
                "pitch": 55,
                "velocity": 64,
                "duration": 0.2454545,
                "tempo": 120.0
            },
            {
                "start_time": 20.6068182,
                "end_time": 20.8659091,
                "pitch": 55,
                "velocity": 64,
                "duration": 0.2590909,
                "tempo": 120.0
            },
            {
                "start_time": 20.8840909,
                "end_time": 21.1431818,
                "pitch": 48,
                "velocity": 64,
                "duration": 0.2590909,
                "tempo": 120.0
            },
            {
                "start_time": 21.1613636,
                "end_time": 21.4113636,
                "pitch": 55,
                "velocity": 64,
                "duration": 0.25,
                "tempo": 120.0
            },
            {
                "start_time": 21.4272727,
                "end_time": 21.6795455,
                "pitch": 55,
                "velocity": 64,
                "duration": 0.2522727,
                "tempo": 120.0
            },
            {
                "start_time": 21.6954545,
                "end_time": 21.9454545,
                "pitch": 43,
                "velocity": 64,
                "duration": 0.25,
                "tempo": 120.0
            },
            {
                "start_time": 21.9636364,
                "end_time": 22.2136364,
                "pitch": 55,
                "velocity": 64,
                "duration": 0.25,
                "tempo": 120.0
            },
            {
                "start_time": 22.2295455,
                "end_time": 22.4840909,
                "pitch": 55,
                "velocity": 64,
                "duration": 0.2545455,
                "tempo": 120.0
            },
            {
                "start_time": 22.5022727,
                "end_time": 22.7568182,
                "pitch": 41,
                "velocity": 64,
                "duration": 0.2545455,
                "tempo": 120.0
            },
            {
                "start_time": 22.7727273,
                "end_time": 23.025,
                "pitch": 50,
                "velocity": 64,
                "duration": 0.2522727,
                "tempo": 120.0
            },
            {
                "start_time": 23.0409091,
                "end_time": 23.2909091,
                "pitch": 50,
                "velocity": 64,
                "duration": 0.25,
                "tempo": 120.0
            },
            {
                "start_time": 23.3090909,
                "end_time": 23.5590909,
                "pitch": 43,
                "velocity": 64,
                "duration": 0.25,
                "tempo": 120.0
            },
            {
                "start_time": 23.575,
                "end_time": 23.825,
                "pitch": 53,
                "velocity": 64,
                "duration": 0.25,
                "tempo": 120.0
            },
            {
                "start_time": 23.8431818,
                "end_time": 24.0977273,
                "pitch": 55,
                "velocity": 64,
                "duration": 0.2545455,
                "tempo": 120.0
            },
            {
                "start_time": 24.1136364,
                "end_time": 24.3704545,
                "pitch": 48,
                "velocity": 64,
                "duration": 0.2568182,
                "tempo": 120.0
            },
            {
                "start_time": 24.3863636,
                "end_time": 24.6363636,
                "pitch": 55,
                "velocity": 64,
                "duration": 0.25,
                "tempo": 120.0
            },
            {
                "start_time": 24.6545455,
                "end_time": 24.9045455,
                "pitch": 59,
                "velocity": 64,
                "duration": 0.25,
                "tempo": 120.0
            },
            {
                "start_time": 24.9204545,
                "end_time": 25.1659091,
                "pitch": 65,
                "velocity": 64,
                "duration": 0.2454545,
                "tempo": 120.0
            },
            {
                "start_time": 25.1840909,
                "end_time": 25.4295455,
                "pitch": 64,
                "velocity": 64,
                "duration": 0.2454545,
                "tempo": 120.0
            }
        ]
    }
}