{
    "mood": "happy",
    "instruments": {
        "Trumpet": [
            {
                "start_time": 0.0,
                "end_time": 0.3795455,
                "pitch": 75,
                "velocity": 64,
                "duration": 0.3795455,
                "tempo": 120.0
            },
            {
                "start_time": 0.3954545,
                "end_time": 0.5772727,
                "pitch": 75,
                "velocity": 64,
                "duration": 0.1818182,
                "tempo": 120.0
            },
            {
                "start_time": 0.6022727,
                "end_time": 1.3590909,
                "pitch": 73,
                "velocity": 64,
                "duration": 0.7568182,
                "tempo": 120.0
            },
            {
                "start_time": 1.3931818,
                "end_time": 1.7545455,
                "pitch": 73,
                "velocity": 64,
                "duration": 0.3613636,
                "tempo": 120.0
            },
            {
                "start_time": 1.7886364,
                "end_time": 2.15,
                "pitch": 73,
                "velocity": 64,
                "duration": 0.3613636,
                "tempo": 120.0
            },
            {
                "start_time": 2.1818182,
                "end_time": 2.9409091,
                "pitch": 71,
                "velocity": 64,
                "duration": 0.7590909,
                "tempo": 120.0
            },
            {
                "start_time": 2.9727273,
                "end_time": 3.3340909,
                "pitch": 71,
                "velocity": 64,
                "duration": 0.3613636,
                "tempo": 120.0
            },
            {
                "start_time": 3.3681818,
                "end_time": 3.7295455,
                "pitch": 73,
                "velocity": 64,
                "duration": 0.3613636,
                "tempo": 120.0
            },
            {
                "start_time": 3.7636364,
                "end_time": 4.1340909,
                "pitch": 73,
                "velocity": 64,
                "duration": 0.3704545,
                "tempo": 120.0
            },
            {
                "start_time": 4.1681818,
                "end_time": 4.5409091,
                "pitch": 73,
                "velocity": 64,
                "duration": 0.3727273,
                "tempo": 120.0
            },
            {
                "start_time": 4.575,
                "end_time": 4.9454545,
                "pitch": 73,
                "velocity": 64,
                "duration": 0.3704545,
                "tempo": 120.0
            },
            {
                "start_time": 4.9795455,
                "end_time": 5.7431818,
                "pitch": 75,
                "velocity": 64,
                "duration": 0.7636364,
                "tempo": 120.0
            },
            {
                "start_time": 5.775,
                "end_time": 6.1318182,
                "pitch": 75,
                "velocity": 64,
                "duration": 0.3568182,
                "tempo": 120.0
            },
            {
                "start_time": 6.1659091,
                "end_time": 6.9113636,
                "pitch": 73,
                "velocity": 64,
                "duration": 0.7454545,
                "tempo": 120.0
            },
            {
                "start_time": 6.9454545,
                "end_time": 7.3068182,
                "pitch": 73,
                "velocity": 64,
                "duration": 0.3613636,
                "tempo": 120.0
            },
            {
                "start_time": 7.3409091,
                "end_time": 7.7022727,
                "pitch": 73,
                "velocity": 64,
                "duration": 0.3613636,
                "tempo": 120.0
            },
            {
                "start_time": 7.7363636,
                "end_time": 8.4931818,
                "pitch": 77,
                "velocity": 64,
                "duration": 0.7568182,
                "tempo": 120.0
            },
            {
                "start_time": 8.525,
                "end_time": 8.8931818,
                "pitch": 77,
                "velocity": 64,
                "duration": 0.3681818,
                "tempo": 120.0
            },
            {
                "start_time": 8.9272727,
                "end_time": 12.2613636,
                "pitch": 78,
                "velocity": 64,
                "duration": 3.3340909,
                "tempo": 120.0
            }
        ],
        "Oboe": [
            {
                "start_time": 0.0,
                "end_time": 0.3795455,
                "pitch": 59,
                "velocity": 51,
                "duration": 0.3795455,
                "tempo": 120.0
            },
            {
                "start_time": 0.3954545,
                "end_time": 0.5772727,
                "pitch": 59,
                "velocity": 51,
                "duration": 0.1818182,
                "tempo": 120.0
            },
            {
                "start_time": 0.6022727,
                "end_time": 1.3590909,
                "pitch": 58,
                "velocity": 51,
                "duration": 0.7568182,
                "tempo": 120.0
            },
            {
                "start_time": 1.3931818,
                "end_time": 1.7545455,
                "pitch": 58,
                "velocity": 51,
                "duration": 0.3613636,
                "tempo": 120.0
            },
            {
                "start_time": 1.7886364,
                "end_time": 2.15,
                "pitch": 58,
                "velocity": 51,
                "duration": 0.3613636,
                "tempo": 120.0
            },
            {
                "start_time": 2.1818182,
                "end_time": 2.9409091,
                "pitch": 56,
                "velocity": 51,
                "duration": 0.7590909,
                "tempo": 120.0
            },
            {
                "start_time": 2.9727273,
                "end_time": 3.3340909,
                "pitch": 56,
                "velocity": 51,
                "duration": 0.3613636,
                "tempo": 120.0
            },
            {
                "start_time": 3.3681818,
                "end_time": 3.7295455,
                "pitch": 58,
                "velocity": 51,
                "duration": 0.3613636,
                "tempo": 120.0
            },
            {
                "start_time": 3.7636364,
                "end_time": 4.1340909,
                "pitch": 58,
                "velocity": 51,
                "duration": 0.3704545,
                "tempo": 120.0
            },
            {
                "start_time": 4.1681818,
                "end_time": 4.5409091,
                "pitch": 58,
                "velocity": 51,
                "duration": 0.3727273,
                "tempo": 120.0
            },
            {
                "start_time": 4.575,
                "end_time": 4.9454545,
                "pitch": 58,
                "velocity": 51,
                "duration": 0.3704545,
                "tempo": 120.0
            },
            {
                "start_time": 4.9795455,
                "end_time": 5.7431818,
                "pitch": 59,
                "velocity": 51,
                "duration": 0.7636364,
                "tempo": 120.0
            },
            {
                "start_time": 5.775,
                "end_time": 6.1318182,
                "pitch": 59,
                "velocity": 51,
                "duration": 0.3568182,
                "tempo": 120.0
            },
            {
                "start_time": 6.1659091,
                "end_time": 6.9113636,
                "pitch": 58,
                "velocity": 51,
                "duration": 0.7454545,
                "tempo": 120.0
            },
            {
                "start_time": 6.9454545,
                "end_time": 7.3068182,
                "pitch": 58,
                "velocity": 51,
                "duration": 0.3613636,
                "tempo": 120.0
            },
            {
                "start_time": 7.3409091,
                "end_time": 7.7022727,
                "pitch": 58,
                "velocity": 51,
                "duration": 0.3613636,
                "tempo": 120.0
            },
            {
                "start_time": 7.7363636,
                "end_time": 8.4931818,
                "pitch": 61,
                "velocity": 51,
                "duration": 0.7568182,
                "tempo": 120.0
            },
            {
                "start_time": 8.525,
                "end_time": 8.8931818,
                "pitch": 61,
                "velocity": 51,
                "duration": 0.3681818,
                "tempo": 120.0
            },
            {
                "start_time": 8.9272727,
                "end_time": 12.2613636,
                "pitch": 63,
                "velocity": 51,
                "duration": 3.3340909,
                "tempo": 120.0
            }
        ],
        "Harpsichord": [
            {
                "start_time": 0.0,
                "end_time": 0.3795455,
                "pitch": 66,
                "velocity": 40,
                "duration": 0.3795455,
                "tempo": 120.0
            },
            {
                "start_time": 0.3954545,
                "end_time": 0.5772727,
                "pitch": 66,
                "velocity": 40,
                "duration": 0.1818182,
                "tempo": 120.0
            },
            {
                "start_time": 0.6022727,
                "end_time": 1.3590909,
                "pitch": 65,
                "velocity": 40,
                "duration": 0.7568182,
                "tempo": 120.0
            },
            {
                "start_time": 1.3931818,
                "end_time": 1.7545455,
                "pitch": 65,
                "velocity": 40,
                "duration": 0.3613636,
                "tempo": 120.0
            },
            {
                "start_time": 1.7886364,
                "end_time": 2.15,
                "pitch": 65,
                "velocity": 40,
                "duration": 0.3613636,
                "tempo": 120.0
            },
            {
                "start_time": 2.1818182,
                "end_time": 2.9409091,
                "pitch": 63,
                "velocity": 40,
                "duration": 0.7590909,
                "tempo": 120.0
            },
            {
                "start_time": 2.9727273,
                "end_time": 3.3340909,
                "pitch": 63,
                "velocity": 40,
                "duration": 0.3613636,
                "tempo": 120.0
            },
            {
                "start_time": 3.3681818,
                "end_time": 3.7295455,
                "pitch": 66,
                "velocity": 40,
                "duration": 0.3613636,
                "tempo": 120.0
            },
            {
                "start_time": 3.7636364,
                "end_time": 4.1340909,
                "pitch": 66,
                "velocity": 40,
                "duration": 0.3704545,
                "tempo": 120.0
            },
            {
                "start_time": 4.1681818,
                "end_time": 4.5409091,
                "pitch": 66,
                "velocity": 40,
                "duration": 0.3727273,
                "tempo": 120.0
            },
            {
                "start_time": 4.575,
                "end_time": 4.9454545,
                "pitch": 66,
                "velocity": 40,
                "duration": 0.3704545,
                "tempo": 120.0
            },
            {
                "start_time": 4.9795455,
                "end_time": 5.7431818,
                "pitch": 66,
                "velocity": 40,
                "duration": 0.7636364,
                "tempo": 120.0
            },
            {
                "start_time": 5.775,
                "end_time": 6.1318182,
                "pitch": 66,
                "velocity": 40,
                "duration": 0.3568182,
                "tempo": 120.0
            },
            {
                "start_time": 6.1659091,
                "end_time": 6.9113636,
                "pitch": 66,
                "velocity": 40,
                "duration": 0.7454545,
                "tempo": 120.0
            },
            {
                "start_time": 6.9454545,
                "end_time": 7.3068182,
                "pitch": 66,
                "velocity": 40,
                "duration": 0.3613636,
                "tempo": 120.0
            },
            {
                "start_time": 7.3409091,
                "end_time": 7.7022727,
                "pitch": 66,
                "velocity": 40,
                "duration": 0.3613636,
                "tempo": 120.0
            },
            {
                "start_time": 7.7363636,
                "end_time": 8.4931818,
                "pitch": 68,
                "velocity": 40,
                "duration": 0.7568182,
                "tempo": 120.0
            },
            {
                "start_time": 8.525,
                "end_time": 8.8931818,
                "pitch": 68,
                "velocity": 40,
                "duration": 0.3681818,
                "tempo": 120.0
            },
            {
                "start_time": 8.9272727,
                "end_time": 12.2613636,
                "pitch": 70,
                "velocity": 40,
                "duration": 3.3340909,
                "tempo": 120.0
            }
        ]
    }
}