{
    "mood": "happy",
    "instruments": {
        "Electric Guitar (clean)": [
            {
                "start_time": 0.4,
                "end_time": 0.5795455,
                "pitch": 59,
                "velocity": 25,
                "duration": 0.1795455,
                "tempo": 120.0
            },
            {
                "start_time": 0.5954545,
                "end_time": 0.775,
                "pitch": 71,
                "velocity": 25,
                "duration": 0.1795455,
                "tempo": 120.0
            },
            {
                "start_time": 0.7931818,
                "end_time": 0.9727273,
                "pitch": 66,
                "velocity": 25,
                "duration": 0.1795455,
                "tempo": 120.0
            },
            {
                "start_time": 0.9886364,
                "end_time": 1.3727273,
                "pitch": 69,
                "velocity": 25,
                "duration": 0.3840909,
                "tempo": 120.0
            },
            {
                "start_time": 1.3909091,
                "end_time": 1.5772727,
                "pitch": 68,
                "velocity": 25,
                "duration": 0.1863636,
                "tempo": 120.0
            },
            {
                "start_time": 1.5954545,
                "end_time": 1.7795455,
                "pitch": 66,
                "velocity": 25,
                "duration": 0.1840909,
                "tempo": 120.0
            },
            {
                "start_time": 1.7977273,
                "end_time": 1.9818182,
                "pitch": 64,
                "velocity": 25,
                "duration": 0.1840909,
                "tempo": 120.0
            },
            {
                "start_time": 1.9977273,
                "end_time": 2.1818182,
                "pitch": 63,
                "velocity": 25,
                "duration": 0.1840909,
                "tempo": 120.0
            },
            {
                "start_time": 2.1977273,
                "end_time": 2.3818182,
                "pitch": 64,
                "velocity": 25,
                "duration": 0.1840909,
                "tempo": 120.0
            },
            {
                "start_time": 2.3977273,
                "end_time": 2.5772727,
                "pitch": 66,
                "velocity": 25,
                "duration": 0.1795455,
                "tempo": 120.0
            },
            {
                "start_time": 2.5931818,
                "end_time": 2.9772727,
                "pitch": 59,
                "velocity": 25,
                "duration": 0.3840909,
                "tempo": 120.0
            },
            {
                "start_time": 2.9954545,
                "end_time": 3.1840909,
                "pitch": 63,
                "velocity": 25,
                "duration": 0.1886364,
                "tempo": 120.0
            },
            {
                "start_time": 3.2,
                "end_time": 3.3863636,
                "pitch": 64,
                "velocity": 25,
                "duration": 0.1863636,
                "tempo": 120.0
            },
            {
                "start_time": 3.4022727,
                "end_time": 3.5863636,
                "pitch": 66,
                "velocity": 25,
                "duration": 0.1840909,
                "tempo": 120.0
            },
            {
                "start_time": 3.6045455,
                "end_time": 3.7863636,
                "pitch": 64,
                "velocity": 25,
                "duration": 0.1818182,
                "tempo": 120.0
            },
            {
                "start_time": 3.8045455,
                "end_time": 3.9863636,
                "pitch": 76,
                "velocity": 25,
                "duration": 0.1818182,
                "tempo": 120.0
            },
            {
                "start_time": 4.0022727,
                "end_time": 4.1840909,
                "pitch": 71,
                "velocity": 25,
                "duration": 0.1818182,
                "tempo": 120.0
            },
            {
                "start_time": 4.2,
                "end_time": 4.5840909,
                "pitch": 74,
                "velocity": 25,
                "duration": 0.3840909,
                "tempo": 120.0
            },
            {
                "start_time": 4.6,
                "end_time": 4.7886364,
                "pitch": 73,
                "velocity": 25,
                "duration": 0.1886364,
                "tempo": 120.0
            },
            {
                "start_time": 4.8068182,
                "end_time": 4.9909091,
                "pitch": 71,
                "velocity": 25,
                "duration": 0.1840909,
                "tempo": 120.0
            },
            {
                "start_time": 5.0068182,
                "end_time": 5.1909091,
                "pitch": 69,
                "velocity": 25,
                "duration": 0.1840909,
                "tempo": 120.0
            },
            {
                "start_time": 5.2068182,
                "end_time": 5.3909091,
                "pitch": 68,
                "velocity": 25,
                "duration": 0.1840909,
                "tempo": 120.0
            },
            {
                "start_time": 5.4068182,
                "end_time": 5.5931818,
                "pitch": 69,
                "velocity": 25,
                "duration": 0.1863636,
                "tempo": 120.0
            },
            {
                "start_time": 5.6090909,
                "end_time": 5.7886364,
                "pitch": 71,
                "velocity": 25,
                "duration": 0.1795455,
                "tempo": 120.0
            },
            {
                "start_time": 5.8045455,
                "end_time": 6.1886364,
                "pitch": 64,
                "velocity": 25,
                "duration": 0.3840909,
                "tempo": 120.0
            },
            {
                "start_time": 6.2068182,
                "end_time": 6.3954545,
                "pitch": 68,
                "velocity": 25,
                "duration": 0.1886364,
                "tempo": 120.0
            },
            {
                "start_time": 6.4113636,
                "end_time": 6.5954545,
                "pitch": 69,
                "velocity": 25,
                "duration": 0.1840909,
                "tempo": 120.0
            },
            {
                "start_time": 6.6136364,
                "end_time": 6.7977273,
                "pitch": 71,
                "velocity": 25,
                "duration": 0.1840909,
                "tempo": 120.0
            },
            {
                "start_time": 6.8136364,
                "end_time": 6.9977273,
                "pitch": 59,
                "velocity": 25,
                "duration": 0.1840909,
                "tempo": 120.0
            },
            {
                "start_time": 7.0136364,
                "end_time": 7.1977273,
                "pitch": 71,
                "velocity": 25,
                "duration": 0.1840909,
                "tempo": 120.0
            },
            {
                "start_time": 7.2136364,
                "end_time": 7.3931818,
                "pitch": 66,
                "velocity": 25,
                "duration": 0.1795455,
                "tempo": 120.0
            },
            {
                "start_time": 7.4113636,
                "end_time": 7.7954545,
                "pitch": 69,
                "velocity": 25,
                "duration": 0.3840909,
                "tempo": 120.0
            },
            {
                "start_time": 7.8113636,
                "end_time": 8.0,
                "pitch": 68,
                "velocity": 25,
                "duration": 0.1886364,
                "tempo": 120.0
            },
            {
                "start_time": 8.0181818,
                "end_time": 8.2022727,
                "pitch": 66,
                "velocity": 25,
                "duration": 0.1840909,
                "tempo": 120.0
            },
            {
                "start_time": 8.2181818,
                "end_time": 8.4045455,
                "pitch": 64,
                "velocity": 25,
                "duration": 0.1863636,
                "tempo": 120.0
            },
            {
                "start_time": 8.4204545,
                "end_time": 8.6045455,
                "pitch": 63,
                "velocity": 25,
                "duration": 0.1840909,
                "tempo": 120.0
            },
            {
                "start_time": 8.6227273,
                "end_time": 8.8068182,
                "pitch": 64,
                "velocity": 25,
                "duration": 0.1840909,
                "tempo": 120.0
            },
            {
                "start_time": 8.8227273,
                "end_time": 9.0068182,
                "pitch": 66,
                "velocity": 25,
                "duration": 0.1840909,
                "tempo": 120.0
            },
            {
                "start_time": 9.025,
                "end_time": 9.4090909,
                "pitch": 59,
                "velocity": 25,
                "duration": 0.3840909,
                "tempo": 120.0
            },
            {
                "start_time": 9.425,
                "end_time": 9.6090909,
                "pitch": 63,
                "velocity": 25,
                "duration": 0.1840909,
                "tempo": 120.0
            },
            {
                "start_time": 9.625,
                "end_time": 9.8113636,
                "pitch": 64,
                "velocity": 25,
                "duration": 0.1863636,
                "tempo": 120.0
            },
            {
                "start_time": 9.8272727,
                "end_time": 10.0113636,
                "pitch": 66,
                "velocity": 25,
                "duration": 0.1840909,
                "tempo": 120.0
            },
            {
                "start_time": 10.0272727,
                "end_time": 10.2136364,
                "pitch": 64,
                "velocity": 25,
                "duration": 0.1863636,
                "tempo": 120.0
            },
            {
                "start_time": 10.2295455,
                "end_time": 10.4136364,
                "pitch": 76,
                "velocity": 25,
                "duration": 0.1840909,
                "tempo": 120.0
            },
            {
                "start_time": 10.4318182,
                "end_time": 10.6159091,
                "pitch": 71,
                "velocity": 25,
                "duration": 0.1840909,
                "tempo": 120.0
            },
            {
                "start_time": 10.6318182,
                "end_time": 11.0181818,
                "pitch": 74,
                "velocity": 25,
                "duration": 0.3863636,
                "tempo": 120.0
            },
            {
                "start_time": 11.0340909,
                "end_time": 11.2204545,
                "pitch": 73,
                "velocity": 25,
                "duration": 0.1863636,
                "tempo": 120.0
            },
            {
                "start_time": 11.2363636,
                "end_time": 11.4204545,
                "pitch": 71,
                "velocity": 25,
                "duration": 0.1840909,
                "tempo": 120.0
            },
            {
                "start_time": 11.4363636,
                "end_time": 11.6204545,
                "pitch": 69,
                "velocity": 25,
                "duration": 0.1840909,
                "tempo": 120.0
            },
            {
                "start_time": 11.6363636,
                "end_time": 11.8204545,
                "pitch": 68,
                "velocity": 25,
                "duration": 0.1840909,
                "tempo": 120.0
            },
            {
                "start_time": 11.8386364,
                "end_time": 12.0227273,
                "pitch": 69,
                "velocity": 25,
                "duration": 0.1840909,
                "tempo": 120.0
            },
            {
                "start_time": 12.0386364,
                "end_time": 12.2227273,
                "pitch": 71,
                "velocity": 25,
                "duration": 0.1840909,
                "tempo": 120.0
            },
            {
                "start_time": 12.2409091,
                "end_time": 12.6272727,
                "pitch": 64,
                "velocity": 25,
                "duration": 0.3863636,
                "tempo": 120.0
            },
            {
                "start_time": 12.6431818,
                "end_time": 12.8272727,
                "pitch": 68,
                "velocity": 25,
                "duration": 0.1840909,
                "tempo": 120.0
            },
            {
                "start_time": 12.8454545,
                "end_time": 13.0318182,
                "pitch": 69,
                "velocity": 25,
                "duration": 0.1863636,
                "tempo": 120.0
            },
            {
                "start_time": 13.05,
                "end_time": 13.2386364,
                "pitch": 71,
                "velocity": 25,
                "duration": 0.1886364,
                "tempo": 120.0
            },
            {
                "start_time": 26.0977273,
                "end_time": 26.2772727,
                "pitch": 59,
                "velocity": 25,
                "duration": 0.1795455,
                "tempo": 120.0
            },
            {
                "start_time": 26.2954545,
                "end_time": 26.3113636,
                "pitch": 71,
                "velocity": 25,
                "duration": 0.0159091,
                "tempo": 120.0
            }
        ],
        "Trumpet": [
            {
                "start_time": 13.2545455,
                "end_time": 13.4340909,
                "pitch": 69,
                "velocity": 25,
                "duration": 0.1795455,
                "tempo": 120.0
            },
            {
                "start_time": 13.4522727,
                "end_time": 13.6318182,
                "pitch": 73,
                "velocity": 25,
                "duration": 0.1795455,
                "tempo": 120.0
            },
            {
                "start_time": 13.6477273,
                "end_time": 13.8318182,
                "pitch": 71,
                "velocity": 25,
                "duration": 0.1840909,
                "tempo": 120.0
            },
            {
                "start_time": 13.8477273,
                "end_time": 14.0340909,
                "pitch": 73,
                "velocity": 25,
                "duration": 0.1863636,
                "tempo": 120.0
            },
            {
                "start_time": 14.05,
                "end_time": 14.2340909,
                "pitch": 69,
                "velocity": 25,
                "duration": 0.1840909,
                "tempo": 120.0
            },
            {
                "start_time": 14.2522727,
                "end_time": 14.4363636,
                "pitch": 73,
                "velocity": 25,
                "duration": 0.1840909,
                "tempo": 120.0
            },
            {
                "start_time": 14.4522727,
                "end_time": 14.6363636,
                "pitch": 71,
                "velocity": 25,
                "duration": 0.1840909,
                "tempo": 120.0
            },
            {
                "start_time": 14.6545455,
                "end_time": 14.8386364,
                "pitch": 73,
                "velocity": 25,
                "duration": 0.1840909,
                "tempo": 120.0
            },
            {
                "start_time": 14.8545455,
                "end_time": 15.0409091,
                "pitch": 68,
                "velocity": 25,
                "duration": 0.1863636,
                "tempo": 120.0
            },
            {
                "start_time": 15.0568182,
                "end_time": 15.2409091,
                "pitch": 71,
                "velocity": 25,
                "duration": 0.1840909,
                "tempo": 120.0
            },
            {
                "start_time": 15.2590909,
                "end_time": 15.4409091,
                "pitch": 69,
                "velocity": 25,
                "duration": 0.1818182,
                "tempo": 120.0
            },
            {
                "start_time": 15.4590909,
                "end_time": 15.6409091,
                "pitch": 71,
                "velocity": 25,
                "duration": 0.1818182,
                "tempo": 120.0
            },
            {
                "start_time": 15.6590909,
                "end_time": 15.8431818,
                "pitch": 68,
                "velocity": 25,
                "duration": 0.1840909,
                "tempo": 120.0
            },
            {
                "start_time": 15.8590909,
                "end_time": 16.0431818,
                "pitch": 71,
                "velocity": 25,
                "duration": 0.1840909,
                "tempo": 120.0
            },
            {
                "start_time": 16.0613636,
                "end_time": 16.2454545,
                "pitch": 69,
                "velocity": 25,
                "duration": 0.1840909,
                "tempo": 120.0
            },
            {
                "start_time": 16.2613636,
                "end_time": 16.4477273,
                "pitch": 71,
                "velocity": 25,
                "duration": 0.1863636,
                "tempo": 120.0
            },
            {
                "start_time": 16.4636364,
                "end_time": 16.6477273,
                "pitch": 66,
                "velocity": 25,
                "duration": 0.1840909,
                "tempo": 120.0
            },
            {
                "start_time": 16.6636364,
                "end_time": 16.8477273,
                "pitch": 69,
                "velocity": 25,
                "duration": 0.1840909,
                "tempo": 120.0
            },
            {
                "start_time": 16.8636364,
                "end_time": 17.0477273,
                "pitch": 68,
                "velocity": 25,
                "duration": 0.1840909,
                "tempo": 120.0
            },
            {
                "start_time": 17.0659091,
                "end_time": 17.25,
                "pitch": 69,
                "velocity": 25,
                "duration": 0.1840909,
                "tempo": 120.0
            },
            {
                "start_time": 17.2659091,
                "end_time": 17.45,
                "pitch": 66,
                "velocity": 25,
                "duration": 0.1840909,
                "tempo": 120.0
            },
            {
                "start_time": 17.4659091,
                "end_time": 17.65,
                "pitch": 69,
                "velocity": 25,
                "duration": 0.1840909,
                "tempo": 120.0
            },
            {
                "start_time": 17.6659091,
                "end_time": 17.85,
                "pitch": 68,
                "velocity": 25,
                "duration": 0.1840909,
                "tempo": 120.0
            },
            {
                "start_time": 17.8681818,
                "end_time": 18.0522727,
                "pitch": 69,
                "velocity": 25,
                "duration": 0.1840909,
                "tempo": 120.0
            },
            {
                "start_time": 18.0681818,
                "end_time": 18.2522727,
                "pitch": 64,
                "velocity": 25,
                "duration": 0.1840909,
                "tempo": 120.0
            },
            {
                "start_time": 18.2681818,
                "end_time": 18.4522727,
                "pitch": 68,
                "velocity": 25,
                "duration": 0.1840909,
                "tempo": 120.0
            },
            {
                "start_time": 18.4681818,
                "end_time": 18.6522727,
                "pitch": 66,
                "velocity": 25,
                "duration": 0.1840909,
                "tempo": 120.0
            },
            {
                "start_time": 18.6681818,
                "end_time": 18.8522727,
                "pitch": 68,
                "velocity": 25,
                "duration": 0.1840909,
                "tempo": 120.0
            },
            {
                "start_time": 18.8681818,
                "end_time": 19.0545455,
                "pitch": 64,
                "velocity": 25,
                "duration": 0.1863636,
                "tempo": 120.0
            },
            {
                "start_time": 19.0704545,
                "end_time": 19.2545455,
                "pitch": 68,
                "velocity": 25,
                "duration": 0.1840909,
                "tempo": 120.0
            },
            {
                "start_time": 19.2704545,
                "end_time": 19.4545455,
                "pitch": 66,
                "velocity": 25,
                "duration": 0.1840909,
                "tempo": 120.0
            },
            {
                "start_time": 19.4704545,
                "end_time": 19.6545455,
                "pitch": 68,
                "velocity": 25,
                "duration": 0.1840909,
                "tempo": 120.0
            },
            {
                "start_time": 19.6704545,
                "end_time": 19.8568182,
                "pitch": 69,
                "velocity": 25,
                "duration": 0.1863636,
                "tempo": 120.0
            },
            {
                "start_time": 19.8727273,
                "end_time": 20.0568182,
                "pitch": 73,
                "velocity": 25,
                "duration": 0.1840909,
                "tempo": 120.0
            },
            {
                "start_time": 20.075,
                "end_time": 20.2568182,
                "pitch": 71,
                "velocity": 25,
                "duration": 0.1818182,
                "tempo": 120.0
            },
            {
                "start_time": 20.275,
                "end_time": 20.4568182,
                "pitch": 73,
                "velocity": 25,
                "duration": 0.1818182,
                "tempo": 120.0
            },
            {
                "start_time": 20.475,
                "end_time": 20.6568182,
                "pitch": 69,
                "velocity": 25,
                "duration": 0.1818182,
                "tempo": 120.0
            },
            {
                "start_time": 20.675,
                "end_time": 20.8568182,
                "pitch": 73,
                "velocity": 25,
                "duration": 0.1818182,
                "tempo": 120.0
            },
            {
                "start_time": 20.875,
                "end_time": 21.0590909,
                "pitch": 71,
                "velocity": 25,
                "duration": 0.1840909,
                "tempo": 120.0
            },
            {
                "start_time": 21.075,
                "end_time": 21.2590909,
                "pitch": 73,
                "velocity": 25,
                "duration": 0.1840909,
                "tempo": 120.0
            },
            {
                "start_time": 21.2772727,
                "end_time": 21.4613636,
                "pitch": 68,
                "velocity": 25,
                "duration": 0.1840909,
                "tempo": 120.0
            },
            {
                "start_time": 21.4772727,
                "end_time": 21.6613636,
                "pitch": 71,
                "velocity": 25,
                "duration": 0.1840909,
                "tempo": 120.0
            },
            {
                "start_time": 21.6772727,
                "end_time": 21.8613636,
                "pitch": 69,
                "velocity": 25,
                "duration": 0.1840909,
                "tempo": 120.0
            },
            {
                "start_time": 21.8772727,
                "end_time": 22.0636364,
                "pitch": 71,
                "velocity": 25,
                "duration": 0.1863636,
                "tempo": 120.0
            },
            {
                "start_time": 22.0795455,
                "end_time": 22.2636364,
                "pitch": 68,
                "velocity": 25,
                "duration": 0.1840909,
                "tempo": 120.0
            },
            {
                "start_time": 22.2795455,
                "end_time": 22.4636364,
                "pitch": 71,
                "velocity": 25,
                "duration": 0.1840909,
                "tempo": 120.0
            },
            {
                "start_time": 22.4795455,
                "end_time": 22.6636364,
                "pitch": 69,
                "velocity": 25,
                "duration": 0.1840909,
                "tempo": 120.0
            },
            {
                "start_time": 22.6795455,
                "end_time": 22.8636364,
                "pitch": 71,
                "velocity": 25,
                "duration": 0.1840909,
                "tempo": 120.0
            },
            {
                "start_time": 22.8795455,
                "end_time": 23.0636364,
                "pitch": 66,
                "velocity": 25,
                "duration": 0.1840909,
                "tempo": 120.0
            },
            {
                "start_time": 23.0818182,
                "end_time": 23.2659091,
                "pitch": 69,
                "velocity": 25,
                "duration": 0.1840909,
                "tempo": 120.0
            },
            {
                "start_time": 23.2818182,
                "end_time": 23.4659091,
                "pitch": 68,
                "velocity": 25,
                "duration": 0.1840909,
                "tempo": 120.0
            },
            {
                "start_time": 23.4818182,
                "end_time": 23.6659091,
                "pitch": 69,
                "velocity": 25,
                "duration": 0.1840909,
                "tempo": 120.0
            },
            {
                "start_time": 23.6818182,
                "end_time": 23.8659091,
                "pitch": 66,
                "velocity": 25,
                "duration": 0.1840909,
                "tempo": 120.0
            },
            {
                "start_time": 23.8840909,
                "end_time": 24.0681818,
                "pitch": 69,
                "velocity": 25,
                "duration": 0.1840909,
                "tempo": 120.0
            },
            {
                "start_time": 24.0840909,
                "end_time": 24.2681818,
                "pitch": 68,
                "velocity": 25,
                "duration": 0.1840909,
                "tempo": 120.0
            },
            {
                "start_time": 24.2840909,
                "end_time": 24.4681818,
                "pitch": 69,
                "velocity": 25,
                "duration": 0.1840909,
                "tempo": 120.0
            },
            {
                "start_time": 24.4840909,
                "end_time": 24.6681818,
                "pitch": 64,
                "velocity": 25,
                "duration": 0.1840909,
                "tempo": 120.0
            },
            {
                "start_time": 24.6840909,
                "end_time": 24.8681818,
                "pitch": 68,
                "velocity": 25,
                "duration": 0.1840909,
                "tempo": 120.0
            },
            {
                "start_time": 24.8840909,
                "end_time": 25.0704545,
                "pitch": 66,
                "velocity": 25,
                "duration": 0.1863636,
                "tempo": 120.0
            },
            {
                "start_time": 25.0863636,
                "end_time": 25.2704545,
                "pitch": 68,
                "velocity": 25,
                "duration": 0.1840909,
                "tempo": 120.0
            },
            {
                "start_time": 25.2886364,
                "end_time": 25.4704545,
                "pitch": 64,
                "velocity": 25,
                "duration": 0.1818182,
                "tempo": 120.0
            },
            {
                "start_time": 25.4886364,
                "end_time": 25.6704545,
                "pitch": 76,
                "velocity": 25,
                "duration": 0.1818182,
                "tempo": 120.0
            },
            {
                "start_time": 25.6886364,
                "end_time": 25.875,
                "pitch": 71,
                "velocity": 25,
                "duration": 0.1863636,
                "tempo": 120.0
            },
            {
                "start_time": 25.8931818,
                "end_time": 26.0818182,
                "pitch": 68,
                "velocity": 25,
                "duration": 0.1886364,
                "tempo": 120.0
            }
        ],
        "Acoustic Bass": [
            {
                "start_time": 0.0159091,
                "end_time": 0.5795455,
                "pitch": 35,
                "velocity": 51,
                "duration": 0.5636364,
                "tempo": 120.0
            },
            {
                "start_time": 0.5954545,
                "end_time": 0.9727273,
                "pitch": 39,
                "velocity": 51,
                "duration": 0.3772727,
                "tempo": 120.0
            },
            {
                "start_time": 0.9886364,
                "end_time": 1.1681818,
                "pitch": 40,
                "velocity": 51,
                "duration": 0.1795455,
                "tempo": 120.0
            },
            {
                "start_time": 1.1840909,
                "end_time": 1.3727273,
                "pitch": 41,
                "velocity": 51,
                "duration": 0.1886364,
                "tempo": 120.0
            },
            {
                "start_time": 1.3909091,
                "end_time": 1.5772727,
                "pitch": 42,
                "velocity": 51,
                "duration": 0.1863636,
                "tempo": 120.0
            },
            {
                "start_time": 1.5954545,
                "end_time": 1.7795455,
                "pitch": 35,
                "velocity": 51,
                "duration": 0.1840909,
                "tempo": 120.0
            },
            {
                "start_time": 1.7977273,
                "end_time": 1.9818182,
                "pitch": 44,
                "velocity": 51,
                "duration": 0.1840909,
                "tempo": 120.0
            },
            {
                "start_time": 1.9977273,
                "end_time": 2.1818182,
                "pitch": 42,
                "velocity": 51,
                "duration": 0.1840909,
                "tempo": 120.0
            },
            {
                "start_time": 2.1977273,
                "end_time": 2.5772727,
                "pitch": 45,
                "velocity": 51,
                "duration": 0.3795455,
                "tempo": 120.0
            },
            {
                "start_time": 2.5931818,
                "end_time": 2.7727273,
                "pitch": 44,
                "velocity": 51,
                "duration": 0.1795455,
                "tempo": 120.0
            },
            {
                "start_time": 2.7909091,
                "end_time": 2.9772727,
                "pitch": 42,
                "velocity": 51,
                "duration": 0.1863636,
                "tempo": 120.0
            },
            {
                "start_time": 2.9954545,
                "end_time": 3.1840909,
                "pitch": 39,
                "velocity": 51,
                "duration": 0.1886364,
                "tempo": 120.0
            },
            {
                "start_time": 3.2,
                "end_time": 3.7863636,
                "pitch": 40,
                "velocity": 51,
                "duration": 0.5863636,
                "tempo": 120.0
            },
            {
                "start_time": 3.8045455,
                "end_time": 4.1840909,
                "pitch": 44,
                "velocity": 51,
                "duration": 0.3795455,
                "tempo": 120.0
            },
            {
                "start_time": 4.2,
                "end_time": 4.3795455,
                "pitch": 45,
                "velocity": 51,
                "duration": 0.1795455,
                "tempo": 120.0
            },
            {
                "start_time": 4.3954545,
                "end_time": 4.5840909,
                "pitch": 46,
                "velocity": 51,
                "duration": 0.1886364,
                "tempo": 120.0
            },
            {
                "start_time": 4.6,
                "end_time": 4.7886364,
                "pitch": 47,
                "velocity": 51,
                "duration": 0.1886364,
                "tempo": 120.0
            },
            {
                "start_time": 4.8068182,
                "end_time": 4.9909091,
                "pitch": 40,
                "velocity": 51,
                "duration": 0.1840909,
                "tempo": 120.0
            },
            {
                "start_time": 5.0068182,
                "end_time": 5.1909091,
                "pitch": 49,
                "velocity": 51,
                "duration": 0.1840909,
                "tempo": 120.0
            },
            {
                "start_time": 5.2068182,
                "end_time": 5.3909091,
                "pitch": 47,
                "velocity": 51,
                "duration": 0.1840909,
                "tempo": 120.0
            },
            {
                "start_time": 5.4068182,
                "end_time": 5.7886364,
                "pitch": 50,
                "velocity": 51,
                "duration": 0.3818182,
                "tempo": 120.0
            },
            {
                "start_time": 5.8045455,
                "end_time": 5.9840909,
                "pitch": 49,
                "velocity": 51,
                "duration": 0.1795455,
                "tempo": 120.0
            },
            {
                "start_time": 6.0,
                "end_time": 6.1886364,
                "pitch": 47,
                "velocity": 51,
                "duration": 0.1886364,
                "tempo": 120.0
            },
            {
                "start_time": 6.2068182,
                "end_time": 6.3954545,
                "pitch": 44,
                "velocity": 51,
                "duration": 0.1886364,
                "tempo": 120.0
            },
            {
                "start_time": 6.4113636,
                "end_time": 6.9977273,
                "pitch": 35,
                "velocity": 51,
                "duration": 0.5863636,
                "tempo": 120.0
            },
            {
                "start_time": 7.0136364,
                "end_time": 7.3931818,
                "pitch": 39,
                "velocity": 51,
                "duration": 0.3795455,
                "tempo": 120.0
            },
            {
                "start_time": 7.4113636,
                "end_time": 7.5909091,
                "pitch": 40,
                "velocity": 51,
                "duration": 0.1795455,
                "tempo": 120.0
            },
            {
                "start_time": 7.6068182,
                "end_time": 7.7954545,
                "pitch": 41,
                "velocity": 51,
                "duration": 0.1886364,
                "tempo": 120.0
            },
            {
                "start_time": 7.8113636,
                "end_time": 8.0,
                "pitch": 42,
                "velocity": 51,
                "duration": 0.1886364,
                "tempo": 120.0
            },
            {
                "start_time": 8.0181818,
                "end_time": 8.2022727,
                "pitch": 35,
                "velocity": 51,
                "duration": 0.1840909,
                "tempo": 120.0
            },
            {
                "start_time": 8.2181818,
                "end_time": 8.4045455,
                "pitch": 44,
                "velocity": 51,
                "duration": 0.1863636,
                "tempo": 120.0
            },
            {
                "start_time": 8.4204545,
                "end_time": 8.6045455,
                "pitch": 42,
                "velocity": 51,
                "duration": 0.1840909,
                "tempo": 120.0
            },
            {
                "start_time": 8.6227273,
                "end_time": 9.0068182,
                "pitch": 45,
                "velocity": 51,
                "duration": 0.3840909,
                "tempo": 120.0
            },
            {
                "start_time": 9.025,
                "end_time": 9.2090909,
                "pitch": 44,
                "velocity": 51,
                "duration": 0.1840909,
                "tempo": 120.0
            },
            {
                "start_time": 9.225,
                "end_time": 9.4090909,
                "pitch": 42,
                "velocity": 51,
                "duration": 0.1840909,
                "tempo": 120.0
            },
            {
                "start_time": 9.425,
                "end_time": 9.6090909,
                "pitch": 39,
                "velocity": 51,
                "duration": 0.1840909,
                "tempo": 120.0
            },
            {
                "start_time": 9.625,
                "end_time": 10.2136364,
                "pitch": 40,
                "velocity": 51,
                "duration": 0.5886364,
                "tempo": 120.0
            },
            {
                "start_time": 10.2295455,
                "end_time": 10.6159091,
                "pitch": 44,
                "velocity": 51,
                "duration": 0.3863636,
                "tempo": 120.0
            },
            {
                "start_time": 10.6318182,
                "end_time": 10.8159091,
                "pitch": 45,
                "velocity": 51,
                "duration": 0.1840909,
                "tempo": 120.0
            },
            {
                "start_time": 10.8340909,
                "end_time": 11.0181818,
                "pitch": 46,
                "velocity": 51,
                "duration": 0.1840909,
                "tempo": 120.0
            },
            {
                "start_time": 11.0340909,
                "end_time": 11.2204545,
                "pitch": 47,
                "velocity": 51,
                "duration": 0.1863636,
                "tempo": 120.0
            },
            {
                "start_time": 11.2363636,
                "end_time": 11.4204545,
                "pitch": 40,
                "velocity": 51,
                "duration": 0.1840909,
                "tempo": 120.0
            },
            {
                "start_time": 11.4363636,
                "end_time": 11.6204545,
                "pitch": 49,
                "velocity": 51,
                "duration": 0.1840909,
                "tempo": 120.0
            },
            {
                "start_time": 11.6363636,
                "end_time": 11.8204545,
                "pitch": 47,
                "velocity": 51,
                "duration": 0.1840909,
                "tempo": 120.0
            },
            {
                "start_time": 11.8386364,
                "end_time": 12.2227273,
                "pitch": 50,
                "velocity": 51,
                "duration": 0.3840909,
                "tempo": 120.0
            },
            {
                "start_time": 12.2409091,
                "end_time": 12.425,
                "pitch": 49,
                "velocity": 51,
                "duration": 0.1840909,
                "tempo": 120.0
            },
            {
                "start_time": 12.4409091,
                "end_time": 12.6272727,
                "pitch": 47,
                "velocity": 51,
                "duration": 0.1863636,
                "tempo": 120.0
            },
            {
                "start_time": 12.6431818,
                "end_time": 12.8272727,
                "pitch": 44,
                "velocity": 51,
                "duration": 0.1840909,
                "tempo": 120.0
            },
            {
                "start_time": 12.8454545,
                "end_time": 13.2386364,
                "pitch": 33,
                "velocity": 51,
                "duration": 0.3931818,
                "tempo": 120.0
            },
            {
                "start_time": 13.4522727,
                "end_time": 13.8318182,
                "pitch": 33,
                "velocity": 51,
                "duration": 0.3795455,
                "tempo": 120.0
            },
            {
                "start_time": 13.8477273,
                "end_time": 14.0340909,
                "pitch": 33,
                "velocity": 51,
                "duration": 0.1863636,
                "tempo": 120.0
            },
            {
                "start_time": 14.05,
                "end_time": 14.2340909,
                "pitch": 37,
                "velocity": 51,
                "duration": 0.1840909,
                "tempo": 120.0
            },
            {
                "start_time": 14.2522727,
                "end_time": 14.4363636,
                "pitch": 40,
                "velocity": 51,
                "duration": 0.1840909,
                "tempo": 120.0
            },
            {
                "start_time": 14.4522727,
                "end_time": 14.8386364,
                "pitch": 32,
                "velocity": 51,
                "duration": 0.3863636,
                "tempo": 120.0
            },
            {
                "start_time": 15.0568182,
                "end_time": 15.2409091,
                "pitch": 32,
                "velocity": 51,
                "duration": 0.1840909,
                "tempo": 120.0
            },
            {
                "start_time": 15.2590909,
                "end_time": 15.4409091,
                "pitch": 32,
                "velocity": 51,
                "duration": 0.1818182,
                "tempo": 120.0
            },
            {
                "start_time": 15.4590909,
                "end_time": 15.6409091,
                "pitch": 35,
                "velocity": 51,
                "duration": 0.1818182,
                "tempo": 120.0
            },
            {
                "start_time": 15.6590909,
                "end_time": 15.8431818,
                "pitch": 40,
                "velocity": 51,
                "duration": 0.1840909,
                "tempo": 120.0
            },
            {
                "start_time": 15.8590909,
                "end_time": 16.2454545,
                "pitch": 30,
                "velocity": 51,
                "duration": 0.3863636,
                "tempo": 120.0
            },
            {
                "start_time": 16.4636364,
                "end_time": 16.8477273,
                "pitch": 30,
                "velocity": 51,
                "duration": 0.3840909,
                "tempo": 120.0
            },
            {
                "start_time": 16.8636364,
                "end_time": 17.25,
                "pitch": 32,
                "velocity": 51,
                "duration": 0.3863636,
                "tempo": 120.0
            },
            {
                "start_time": 17.2659091,
                "end_time": 17.65,
                "pitch": 30,
                "velocity": 51,
                "duration": 0.3840909,
                "tempo": 120.0
            },
            {
                "start_time": 17.6659091,
                "end_time": 18.0522727,
                "pitch": 28,
                "velocity": 51,
                "duration": 0.3863636,
                "tempo": 120.0
            },
            {
                "start_time": 18.2681818,
                "end_time": 18.4522727,
                "pitch": 28,
                "velocity": 51,
                "duration": 0.1840909,
                "tempo": 120.0
            },
            {
                "start_time": 18.6681818,
                "end_time": 18.8522727,
                "pitch": 28,
                "velocity": 51,
                "duration": 0.1840909,
                "tempo": 120.0
            },
            {
                "start_time": 19.0704545,
                "end_time": 19.2545455,
                "pitch": 28,
                "velocity": 51,
                "duration": 0.1840909,
                "tempo": 120.0
            },
            {
                "start_time": 19.2704545,
                "end_time": 19.6545455,
                "pitch": 33,
                "velocity": 51,
                "duration": 0.3840909,
                "tempo": 120.0
            },
            {
                "start_time": 19.8727273,
                "end_time": 20.2568182,
                "pitch": 33,
                "velocity": 51,
                "duration": 0.3840909,
                "tempo": 120.0
            },
            {
                "start_time": 20.275,
                "end_time": 20.6568182,
                "pitch": 33,
                "velocity": 51,
                "duration": 0.3818182,
                "tempo": 120.0
            },
            {
                "start_time": 20.675,
                "end_time": 20.8568182,
                "pitch": 37,
                "velocity": 51,
                "duration": 0.1818182,
                "tempo": 120.0
            },
            {
                "start_time": 20.875,
                "end_time": 21.2590909,
                "pitch": 40,
                "velocity": 51,
                "duration": 0.3840909,
                "tempo": 120.0
            },
            {
                "start_time": 21.4772727,
                "end_time": 21.8613636,
                "pitch": 40,
                "velocity": 51,
                "duration": 0.3840909,
                "tempo": 120.0
            },
            {
                "start_time": 21.8772727,
                "end_time": 22.2636364,
                "pitch": 40,
                "velocity": 51,
                "duration": 0.3863636,
                "tempo": 120.0
            },
            {
                "start_time": 22.2795455,
                "end_time": 22.4636364,
                "pitch": 40,
                "velocity": 51,
                "duration": 0.1840909,
                "tempo": 120.0
            },
            {
                "start_time": 22.4795455,
                "end_time": 22.8636364,
                "pitch": 39,
                "velocity": 51,
                "duration": 0.3840909,
                "tempo": 120.0
            },
            {
                "start_time": 23.0818182,
                "end_time": 23.4659091,
                "pitch": 39,
                "velocity": 51,
                "duration": 0.3840909,
                "tempo": 120.0
            },
            {
                "start_time": 23.4818182,
                "end_time": 23.8659091,
                "pitch": 40,
                "velocity": 51,
                "duration": 0.3840909,
                "tempo": 120.0
            },
            {
                "start_time": 23.8840909,
                "end_time": 24.0681818,
                "pitch": 42,
                "velocity": 51,
                "duration": 0.1840909,
                "tempo": 120.0
            },
            {
                "start_time": 24.0840909,
                "end_time": 24.4681818,
                "pitch": 28,
                "velocity": 51,
                "duration": 0.3840909,
                "tempo": 120.0
            },
            {
                "start_time": 24.6840909,
                "end_time": 24.8681818,
                "pitch": 28,
                "velocity": 51,
                "duration": 0.1840909,
                "tempo": 120.0
            },
            {
                "start_time": 25.0863636,
                "end_time": 25.2704545,
                "pitch": 28,
                "velocity": 51,
                "duration": 0.1840909,
                "tempo": 120.0
            },
            {
                "start_time": 25.4886364,
                "end_time": 25.6704545,
                "pitch": 28,
                "velocity": 51,
                "duration": 0.1818182,
                "tempo": 120.0
            },
            {
                "start_time": 25.6886364,
                "end_time": 26.2772727,
                "pitch": 35,
                "velocity": 51,
                "duration": 0.5886364,
                "tempo": 120.0
            },
            {
                "start_time": 26.2954545,
                "end_time": 26.3113636,
                "pitch": 39,
                "velocity": 51,
                "duration": 0.0159091,
                "tempo": 120.0
            }
        ]
    }
}