{
    "mood": "happy",
    "instruments": {
        "Oboe": [
            {
                "start_time": 0.0,
                "end_time": 4.2113636,
                "pitch": 0,
                "velocity": 80,
                "duration": 4.2113636,
                "tempo": 120.0
            },
            {
                "start_time": 4.2454545,
                "end_time": 6.3840909,
                "pitch": 0,
                "velocity": 80,
                "duration": 2.1386364,
                "tempo": 120.0
            },
            {
                "start_time": 6.4181818,
                "end_time": 10.3409091,
                "pitch": 0,
                "velocity": 80,
                "duration": 3.9227273,
                "tempo": 120.0
            },
            {
                "start_time": 10.375,
                "end_time": 12.5204545,
                "pitch": 0,
                "velocity": 80,
                "duration": 2.1454545,
                "tempo": 120.0
            },
            {
                "start_time": 12.5545455,
                "end_time": 16.7772727,
                "pitch": 0,
                "velocity": 80,
                "duration": 4.2227273,
                "tempo": 120.0
            },
            {
                "start_time": 16.8113636,
                "end_time": 18.9431818,
                "pitch": 0,
                "velocity": 80,
                "duration": 2.1318182,
                "tempo": 120.0
            },
            {
                "start_time": 18.975,
                "end_time": 23.1590909,
                "pitch": 0,
                "velocity": 80,
                "duration": 4.1840909,
                "tempo": 120.0
            },
            {
                "start_time": 23.1931818,
                "end_time": 25.325,
                "pitch": 0,
                "velocity": 80,
                "duration": 2.1318182,
                "tempo": 120.0
            },
            {
                "start_time": 25.3568182,
                "end_time": 25.3909091,
                "pitch": 62,
                "velocity": 80,
                "duration": 0.0340909,
                "tempo": 120.0
            },
            {
                "start_time": 25.425,
                "end_time": 25.4568182,
                "pitch": 64,
                "velocity": 80,
                "duration": 0.0318182,
                "tempo": 120.0
            },
            {
                "start_time": 25.4909091,
                "end_time": 25.525,
                "pitch": 67,
                "velocity": 80,
                "duration": 0.0340909,
                "tempo": 120.0
            },
            {
                "start_time": 25.5568182,
                "end_time": 25.5909091,
                "pitch": 64,
                "velocity": 80,
                "duration": 0.0340909,
                "tempo": 120.0
            },
            {
                "start_time": 25.625,
                "end_time": 25.6568182,
                "pitch": 67,
                "velocity": 80,
                "duration": 0.0318182,
                "tempo": 120.0
            },
            {
                "start_time": 25.6909091,
                "end_time": 25.725,
                "pitch": 69,
                "velocity": 80,
                "duration": 0.0340909,
                "tempo": 120.0
            },
            {
                "start_time": 25.7590909,
                "end_time": 25.7954545,
                "pitch": 67,
                "velocity": 80,
                "duration": 0.0363636,
                "tempo": 120.0
            },
            {
                "start_time": 25.8295455,
                "end_time": 25.8659091,
                "pitch": 69,
                "velocity": 80,
                "duration": 0.0363636,
                "tempo": 120.0
            },
            {
                "start_time": 25.9,
                "end_time": 25.9363636,
                "pitch": 72,
                "velocity": 80,
                "duration": 0.0363636,
                "tempo": 120.0
            },
            {
                "start_time": 25.9704545,
                "end_time": 26.0068182,
                "pitch": 69,
                "velocity": 80,
                "duration": 0.0363636,
                "tempo": 120.0
            },
            {
                "start_time": 26.0409091,
                "end_time": 26.0772727,
                "pitch": 72,
                "velocity": 80,
                "duration": 0.0363636,
                "tempo": 120.0
            },
            {
                "start_time": 26.1113636,
                "end_time": 26.1454545,
                "pitch": 74,
                "velocity": 80,
                "duration": 0.0340909,
                "tempo": 120.0
            },
            {
                "start_time": 26.1772727,
                "end_time": 26.2113636,
                "pitch": 72,
                "velocity": 80,
                "duration": 0.0340909,
                "tempo": 120.0
            },
            {
                "start_time": 26.2431818,
                "end_time": 26.2772727,
                "pitch": 74,
                "velocity": 80,
                "duration": 0.0340909,
                "tempo": 120.0
            },
            {
                "start_time": 26.3090909,
                "end_time": 26.3409091,
                "pitch": 76,
                "velocity": 80,
                "duration": 0.0318182,
                "tempo": 120.0
            },
            {
                "start_time": 26.375,
                "end_time": 26.4068182,
                "pitch": 74,
                "velocity": 80,
                "duration": 0.0318182,
                "tempo": 120.0
            },
            {
                "start_time": 26.4386364,
                "end_time": 26.4727273,
                "pitch": 76,
                "velocity": 80,
                "duration": 0.0340909,
                "tempo": 120.0
            },
            {
                "start_time": 26.5045455,
                "end_time": 26.5386364,
                "pitch": 79,
                "velocity": 80,
                "duration": 0.0340909,
                "tempo": 120.0
            },
            {
                "start_time": 26.5727273,
                "end_time": 26.6409091,
                "pitch": 81,
                "velocity": 80,
                "duration": 0.0681818,
                "tempo": 120.0
            },
            {
                "start_time": 26.675,
                "end_time": 26.8454545,
                "pitch": 0,
                "velocity": 80,
                "duration": 0.1704545,
                "tempo": 120.0
            },
            {
                "start_time": 26.8795455,
                "end_time": 29.75,
                "pitch": 86,
                "velocity": 80,
                "duration": 2.8704545,
                "tempo": 120.0
            },
            {
                "start_time": 29.7818182,
                "end_time": 30.1477273,
                "pitch": 0,
                "velocity": 80,
                "duration": 0.3659091,
                "tempo": 120.0
            },
            {
                "start_time": 30.1818182,
                "end_time": 34.4,
                "pitch": 0,
                "velocity": 80,
                "duration": 4.2181818,
                "tempo": 120.0
            },
            {
                "start_time": 34.4318182,
                "end_time": 36.5659091,
                "pitch": 0,
                "velocity": 80,
                "duration": 2.1340909,
                "tempo": 120.0
            },
            {
                "start_time": 36.6,
                "end_time": 36.8659091,
                "pitch": 76,
                "velocity": 80,
                "duration": 0.2659091,
                "tempo": 120.0
            },
            {
                "start_time": 36.9,
                "end_time": 37.1659091,
                "pitch": 74,
                "velocity": 80,
                "duration": 0.2659091,
                "tempo": 120.0
            },
            {
                "start_time": 37.2,
                "end_time": 37.3659091,
                "pitch": 79,
                "velocity": 80,
                "duration": 0.1659091,
                "tempo": 120.0
            },
            {
                "start_time": 37.4,
                "end_time": 37.6659091,
                "pitch": 76,
                "velocity": 80,
                "duration": 0.2659091,
                "tempo": 120.0
            },
            {
                "start_time": 37.7,
                "end_time": 37.9681818,
                "pitch": 74,
                "velocity": 80,
                "duration": 0.2681818,
                "tempo": 120.0
            },
            {
                "start_time": 38.0022727,
                "end_time": 38.1681818,
                "pitch": 72,
                "velocity": 80,
                "duration": 0.1659091,
                "tempo": 120.0
            },
            {
                "start_time": 38.2022727,
                "end_time": 38.4681818,
                "pitch": 74,
                "velocity": 80,
                "duration": 0.2659091,
                "tempo": 120.0
            },
            {
                "start_time": 38.5022727,
                "end_time": 38.7681818,
                "pitch": 71,
                "velocity": 80,
                "duration": 0.2659091,
                "tempo": 120.0
            },
            {
                "start_time": 38.8022727,
                "end_time": 39.3681818,
                "pitch": 67,
                "velocity": 80,
                "duration": 0.5659091,
                "tempo": 120.0
            },
            {
                "start_time": 39.4022727,
                "end_time": 39.7681818,
                "pitch": 0,
                "velocity": 80,
                "duration": 0.3659091,
                "tempo": 120.0
            },
            {
                "start_time": 39.8022727,
                "end_time": 40.0704545,
                "pitch": 72,
                "velocity": 80,
                "duration": 0.2681818,
                "tempo": 120.0
            },
            {
                "start_time": 40.1045455,
                "end_time": 40.3727273,
                "pitch": 71,
                "velocity": 80,
                "duration": 0.2681818,
                "tempo": 120.0
            },
            {
                "start_time": 40.4045455,
                "end_time": 40.5727273,
                "pitch": 74,
                "velocity": 80,
                "duration": 0.1681818,
                "tempo": 120.0
            },
            {
                "start_time": 40.6045455,
                "end_time": 40.8727273,
                "pitch": 72,
                "velocity": 80,
                "duration": 0.2681818,
                "tempo": 120.0
            },
            {
                "start_time": 40.9045455,
                "end_time": 41.1727273,
                "pitch": 71,
                "velocity": 80,
                "duration": 0.2681818,
                "tempo": 120.0
            },
            {
                "start_time": 41.2045455,
                "end_time": 41.3727273,
                "pitch": 64,
                "velocity": 80,
                "duration": 0.1681818,
                "tempo": 120.0
            },
            {
                "start_time": 41.4045455,
                "end_time": 41.6727273,
                "pitch": 69,
                "velocity": 80,
                "duration": 0.2681818,
                "tempo": 120.0
            },
            {
                "start_time": 41.7045455,
                "end_time": 41.7727273,
                "pitch": 71,
                "velocity": 80,
                "duration": 0.0681818,
                "tempo": 120.0
            },
            {
                "start_time": 41.8045455,
                "end_time": 42.575,
                "pitch": 69,
                "velocity": 80,
                "duration": 0.7704545,
                "tempo": 120.0
            },
            {
                "start_time": 42.6068182,
                "end_time": 42.975,
                "pitch": 0,
                "velocity": 80,
                "duration": 0.3681818,
                "tempo": 120.0
            },
            {
                "start_time": 43.0068182,
                "end_time": 43.275,
                "pitch": 76,
                "velocity": 80,
                "duration": 0.2681818,
                "tempo": 120.0
            },
            {
                "start_time": 43.3068182,
                "end_time": 43.575,
                "pitch": 74,
                "velocity": 80,
                "duration": 0.2681818,
                "tempo": 120.0
            },
            {
                "start_time": 43.6068182,
                "end_time": 43.775,
                "pitch": 79,
                "velocity": 80,
                "duration": 0.1681818,
                "tempo": 120.0
            },
            {
                "start_time": 43.8090909,
                "end_time": 44.0772727,
                "pitch": 76,
                "velocity": 80,
                "duration": 0.2681818,
                "tempo": 120.0
            },
            {
                "start_time": 44.1090909,
                "end_time": 44.3772727,
                "pitch": 74,
                "velocity": 80,
                "duration": 0.2681818,
                "tempo": 120.0
            },
            {
                "start_time": 44.4113636,
                "end_time": 44.5772727,
                "pitch": 72,
                "velocity": 80,
                "duration": 0.1659091,
                "tempo": 120.0
            },
            {
                "start_time": 44.6113636,
                "end_time": 44.8772727,
                "pitch": 74,
                "velocity": 80,
                "duration": 0.2659091,
                "tempo": 120.0
            },
            {
                "start_time": 44.9113636,
                "end_time": 45.1772727,
                "pitch": 71,
                "velocity": 80,
                "duration": 0.2659091,
                "tempo": 120.0
            },
            {
                "start_time": 45.2113636,
                "end_time": 45.7772727,
                "pitch": 67,
                "velocity": 80,
                "duration": 0.5659091,
                "tempo": 120.0
            },
            {
                "start_time": 45.8113636,
                "end_time": 46.1795455,
                "pitch": 0,
                "velocity": 80,
                "duration": 0.3681818,
                "tempo": 120.0
            },
            {
                "start_time": 46.2136364,
                "end_time": 46.4795455,
                "pitch": 72,
                "velocity": 80,
                "duration": 0.2659091,
                "tempo": 120.0
            },
            {
                "start_time": 46.5136364,
                "end_time": 46.7795455,
                "pitch": 71,
                "velocity": 80,
                "duration": 0.2659091,
                "tempo": 120.0
            },
            {
                "start_time": 46.8136364,
                "end_time": 46.9795455,
                "pitch": 74,
                "velocity": 80,
                "duration": 0.1659091,
                "tempo": 120.0
            },
            {
                "start_time": 47.0136364,
                "end_time": 47.2795455,
                "pitch": 72,
                "velocity": 80,
                "duration": 0.2659091,
                "tempo": 120.0
            },
            {
                "start_time": 47.3136364,
                "end_time": 47.5795455,
                "pitch": 71,
                "velocity": 80,
                "duration": 0.2659091,
                "tempo": 120.0
            },
            {
                "start_time": 47.6136364,
                "end_time": 47.6795455,
                "pitch": 64,
                "velocity": 80,
                "duration": 0.0659091,
                "tempo": 120.0
            },
            {
                "start_time": 47.7136364,
                "end_time": 47.7795455,
                "pitch": 67,
                "velocity": 80,
                "duration": 0.0659091,
                "tempo": 120.0
            },
            {
                "start_time": 47.8136364,
                "end_time": 48.0818182,
                "pitch": 71,
                "velocity": 80,
                "duration": 0.2681818,
                "tempo": 120.0
            },
            {
                "start_time": 48.1159091,
                "end_time": 49.0818182,
                "pitch": 69,
                "velocity": 80,
                "duration": 0.9659091,
                "tempo": 120.0
            },
            {
                "start_time": 49.1159091,
                "end_time": 49.3818182,
                "pitch": 67,
                "velocity": 80,
                "duration": 0.2659091,
                "tempo": 120.0
            },
            {
                "start_time": 49.4159091,
                "end_time": 49.8840909,
                "pitch": 65,
                "velocity": 80,
                "duration": 0.4681818,
                "tempo": 120.0
            },
            {
                "start_time": 49.9159091,
                "end_time": 50.0840909,
                "pitch": 67,
                "velocity": 80,
                "duration": 0.1681818,
                "tempo": 120.0
            },
            {
                "start_time": 50.1181818,
                "end_time": 50.1840909,
                "pitch": 69,
                "velocity": 80,
                "duration": 0.0659091,
                "tempo": 120.0
            },
            {
                "start_time": 50.2181818,
                "end_time": 50.5863636,
                "pitch": 67,
                "velocity": 80,
                "duration": 0.3681818,
                "tempo": 120.0
            },
            {
                "start_time": 50.6204545,
                "end_time": 50.7909091,
                "pitch": 65,
                "velocity": 80,
                "duration": 0.1704545,
                "tempo": 120.0
            },
            {
                "start_time": 50.825,
                "end_time": 50.9954545,
                "pitch": 64,
                "velocity": 80,
                "duration": 0.1704545,
                "tempo": 120.0
            },
            {
                "start_time": 51.0272727,
                "end_time": 51.2886364,
                "pitch": 62,
                "velocity": 80,
                "duration": 0.2613636,
                "tempo": 120.0
            },
            {
                "start_time": 51.3227273,
                "end_time": 51.3886364,
                "pitch": 64,
                "velocity": 80,
                "duration": 0.0659091,
                "tempo": 120.0
            },
            {
                "start_time": 51.4227273,
                "end_time": 52.1795455,
                "pitch": 60,
                "velocity": 80,
                "duration": 0.7568182,
                "tempo": 120.0
            },
            {
                "start_time": 52.2136364,
                "end_time": 52.5909091,
                "pitch": 0,
                "velocity": 80,
                "duration": 0.3772727,
                "tempo": 120.0
            },
            {
                "start_time": 52.625,
                "end_time": 53.0909091,
                "pitch": 65,
                "velocity": 80,
                "duration": 0.4659091,
                "tempo": 120.0
            },
            {
                "start_time": 53.125,
                "end_time": 53.2909091,
                "pitch": 67,
                "velocity": 80,
                "duration": 0.1659091,
                "tempo": 120.0
            },
            {
                "start_time": 53.325,
                "end_time": 53.3909091,
                "pitch": 69,
                "velocity": 80,
                "duration": 0.0659091,
                "tempo": 120.0
            },
            {
                "start_time": 53.425,
                "end_time": 53.7909091,
                "pitch": 67,
                "velocity": 80,
                "duration": 0.3659091,
                "tempo": 120.0
            },
            {
                "start_time": 53.825,
                "end_time": 53.9954545,
                "pitch": 64,
                "velocity": 80,
                "duration": 0.1704545,
                "tempo": 120.0
            },
            {
                "start_time": 54.0318182,
                "end_time": 54.2022727,
                "pitch": 72,
                "velocity": 80,
                "duration": 0.1704545,
                "tempo": 120.0
            },
            {
                "start_time": 54.2340909,
                "end_time": 54.4954545,
                "pitch": 71,
                "velocity": 80,
                "duration": 0.2613636,
                "tempo": 120.0
            },
            {
                "start_time": 54.5272727,
                "end_time": 55.4909091,
                "pitch": 69,
                "velocity": 80,
                "duration": 0.9636364,
                "tempo": 120.0
            },
            {
                "start_time": 55.5272727,
                "end_time": 55.8068182,
                "pitch": 67,
                "velocity": 80,
                "duration": 0.2795455,
                "tempo": 120.0
            },
            {
                "start_time": 55.8386364,
                "end_time": 56.3,
                "pitch": 65,
                "velocity": 80,
                "duration": 0.4613636,
                "tempo": 120.0
            },
            {
                "start_time": 56.3318182,
                "end_time": 56.5,
                "pitch": 67,
                "velocity": 80,
                "duration": 0.1681818,
                "tempo": 120.0
            },
            {
                "start_time": 56.5318182,
                "end_time": 56.6,
                "pitch": 69,
                "velocity": 80,
                "duration": 0.0681818,
                "tempo": 120.0
            },
            {
                "start_time": 56.6340909,
                "end_time": 57.0113636,
                "pitch": 67,
                "velocity": 80,
                "duration": 0.3772727,
                "tempo": 120.0
            },
            {
                "start_time": 57.0431818,
                "end_time": 57.2113636,
                "pitch": 65,
                "velocity": 80,
                "duration": 0.1681818,
                "tempo": 120.0
            },
            {
                "start_time": 57.2431818,
                "end_time": 57.4090909,
                "pitch": 64,
                "velocity": 80,
                "duration": 0.1659091,
                "tempo": 120.0
            },
            {
                "start_time": 57.4431818,
                "end_time": 57.7045455,
                "pitch": 62,
                "velocity": 80,
                "duration": 0.2613636,
                "tempo": 120.0
            },
            {
                "start_time": 57.7363636,
                "end_time": 57.8022727,
                "pitch": 64,
                "velocity": 80,
                "duration": 0.0659091,
                "tempo": 120.0
            },
            {
                "start_time": 57.8363636,
                "end_time": 58.7,
                "pitch": 60,
                "velocity": 80,
                "duration": 0.8636364,
                "tempo": 120.0
            },
            {
                "start_time": 58.7340909,
                "end_time": 59.0090909,
                "pitch": 64,
                "velocity": 80,
                "duration": 0.275,
                "tempo": 120.0
            },
            {
                "start_time": 59.0409091,
                "end_time": 59.5090909,
                "pitch": 65,
                "velocity": 80,
                "duration": 0.4681818,
                "tempo": 120.0
            },
            {
                "start_time": 59.5409091,
                "end_time": 59.7090909,
                "pitch": 67,
                "velocity": 80,
                "duration": 0.1681818,
                "tempo": 120.0
            },
            {
                "start_time": 59.7409091,
                "end_time": 59.8090909,
                "pitch": 69,
                "velocity": 80,
                "duration": 0.0681818,
                "tempo": 120.0
            },
            {
                "start_time": 59.8431818,
                "end_time": 60.2181818,
                "pitch": 67,
                "velocity": 80,
                "duration": 0.375,
                "tempo": 120.0
            },
            {
                "start_time": 60.2522727,
                "end_time": 60.4136364,
                "pitch": 64,
                "velocity": 80,
                "duration": 0.1613636,
                "tempo": 120.0
            },
            {
                "start_time": 60.4477273,
                "end_time": 60.6113636,
                "pitch": 72,
                "velocity": 80,
                "duration": 0.1636364,
                "tempo": 120.0
            },
            {
                "start_time": 60.6454545,
                "end_time": 60.9181818,
                "pitch": 71,
                "velocity": 80,
                "duration": 0.2727273,
                "tempo": 120.0
            },
            {
                "start_time": 60.9545455,
                "end_time": 61.8136364,
                "pitch": 69,
                "velocity": 80,
                "duration": 0.8590909,
                "tempo": 120.0
            },
            {
                "start_time": 61.8477273,
                "end_time": 62.2159091,
                "pitch": 0,
                "velocity": 80,
                "duration": 0.3681818,
                "tempo": 120.0
            },
            {
                "start_time": 62.25,
                "end_time": 65.425,
                "pitch": 0,
                "velocity": 80,
                "duration": 3.175,
                "tempo": 120.0
            },
            {
                "start_time": 65.4568182,
                "end_time": 69.6772727,
                "pitch": 0,
                "velocity": 80,
                "duration": 4.2204545,
                "tempo": 120.0
            },
            {
                "start_time": 69.7113636,
                "end_time": 71.85,
                "pitch": 0,
                "velocity": 80,
                "duration": 2.1386364,
                "tempo": 120.0
            },
            {
                "start_time": 71.8840909,
                "end_time": 72.1522727,
                "pitch": 76,
                "velocity": 80,
                "duration": 0.2681818,
                "tempo": 120.0
            },
            {
                "start_time": 72.1863636,
                "end_time": 72.4522727,
                "pitch": 74,
                "velocity": 80,
                "duration": 0.2659091,
                "tempo": 120.0
            },
            {
                "start_time": 72.4863636,
                "end_time": 72.6522727,
                "pitch": 79,
                "velocity": 80,
                "duration": 0.1659091,
                "tempo": 120.0
            },
            {
                "start_time": 72.6863636,
                "end_time": 72.9545455,
                "pitch": 76,
                "velocity": 80,
                "duration": 0.2681818,
                "tempo": 120.0
            },
            {
                "start_time": 72.9886364,
                "end_time": 73.2568182,
                "pitch": 74,
                "velocity": 80,
                "duration": 0.2681818,
                "tempo": 120.0
            },
            {
                "start_time": 73.2909091,
                "end_time": 73.4568182,
                "pitch": 72,
                "velocity": 80,
                "duration": 0.1659091,
                "tempo": 120.0
            },
            {
                "start_time": 73.4909091,
                "end_time": 73.7568182,
                "pitch": 74,
                "velocity": 80,
                "duration": 0.2659091,
                "tempo": 120.0
            },
            {
                "start_time": 73.7909091,
                "end_time": 74.0590909,
                "pitch": 71,
                "velocity": 80,
                "duration": 0.2681818,
                "tempo": 120.0
            },
            {
                "start_time": 74.0931818,
                "end_time": 74.6613636,
                "pitch": 67,
                "velocity": 80,
                "duration": 0.5681818,
                "tempo": 120.0
            },
            {
                "start_time": 74.6931818,
                "end_time": 75.0636364,
                "pitch": 0,
                "velocity": 80,
                "duration": 0.3704545,
                "tempo": 120.0
            },
            {
                "start_time": 75.0977273,
                "end_time": 75.3659091,
                "pitch": 72,
                "velocity": 80,
                "duration": 0.2681818,
                "tempo": 120.0
            },
            {
                "start_time": 75.4,
                "end_time": 75.6659091,
                "pitch": 71,
                "velocity": 80,
                "duration": 0.2659091,
                "tempo": 120.0
            },
            {
                "start_time": 75.7,
                "end_time": 75.8659091,
                "pitch": 74,
                "velocity": 80,
                "duration": 0.1659091,
                "tempo": 120.0
            },
            {
                "start_time": 75.9,
                "end_time": 76.1681818,
                "pitch": 72,
                "velocity": 80,
                "duration": 0.2681818,
                "tempo": 120.0
            },
            {
                "start_time": 76.2022727,
                "end_time": 76.4681818,
                "pitch": 71,
                "velocity": 80,
                "duration": 0.2659091,
                "tempo": 120.0
            },
            {
                "start_time": 76.5022727,
                "end_time": 76.6681818,
                "pitch": 64,
                "velocity": 80,
                "duration": 0.1659091,
                "tempo": 120.0
            },
            {
                "start_time": 76.7022727,
                "end_time": 76.9704545,
                "pitch": 69,
                "velocity": 80,
                "duration": 0.2681818,
                "tempo": 120.0
            },
            {
                "start_time": 77.0045455,
                "end_time": 77.0704545,
                "pitch": 71,
                "velocity": 80,
                "duration": 0.0659091,
                "tempo": 120.0
            },
            {
                "start_time": 77.1045455,
                "end_time": 77.875,
                "pitch": 69,
                "velocity": 80,
                "duration": 0.7704545,
                "tempo": 120.0
            },
            {
                "start_time": 77.9068182,
                "end_time": 78.2772727,
                "pitch": 0,
                "velocity": 80,
                "duration": 0.3704545,
                "tempo": 120.0
            },
            {
                "start_time": 78.3090909,
                "end_time": 78.5772727,
                "pitch": 76,
                "velocity": 80,
                "duration": 0.2681818,
                "tempo": 120.0
            },
            {
                "start_time": 78.6090909,
                "end_time": 78.8772727,
                "pitch": 74,
                "velocity": 80,
                "duration": 0.2681818,
                "tempo": 120.0
            },
            {
                "start_time": 78.9113636,
                "end_time": 79.0795455,
                "pitch": 79,
                "velocity": 80,
                "duration": 0.1681818,
                "tempo": 120.0
            },
            {
                "start_time": 79.1136364,
                "end_time": 79.3818182,
                "pitch": 76,
                "velocity": 80,
                "duration": 0.2681818,
                "tempo": 120.0
            },
            {
                "start_time": 79.4159091,
                "end_time": 79.6818182,
                "pitch": 74,
                "velocity": 80,
                "duration": 0.2659091,
                "tempo": 120.0
            },
            {
                "start_time": 79.7159091,
                "end_time": 79.8818182,
                "pitch": 72,
                "velocity": 80,
                "duration": 0.1659091,
                "tempo": 120.0
            },
            {
                "start_time": 79.9159091,
                "end_time": 80.1840909,
                "pitch": 74,
                "velocity": 80,
                "duration": 0.2681818,
                "tempo": 120.0
            },
            {
                "start_time": 80.2181818,
                "end_time": 80.4840909,
                "pitch": 71,
                "velocity": 80,
                "duration": 0.2659091,
                "tempo": 120.0
            },
            {
                "start_time": 80.5181818,
                "end_time": 81.0886364,
                "pitch": 67,
                "velocity": 80,
                "duration": 0.5704545,
                "tempo": 120.0
            },
            {
                "start_time": 81.1204545,
                "end_time": 81.4909091,
                "pitch": 0,
                "velocity": 80,
                "duration": 0.3704545,
                "tempo": 120.0
            },
            {
                "start_time": 81.5227273,
                "end_time": 81.7909091,
                "pitch": 72,
                "velocity": 80,
                "duration": 0.2681818,
                "tempo": 120.0
            },
            {
                "start_time": 81.8227273,
                "end_time": 82.0909091,
                "pitch": 71,
                "velocity": 80,
                "duration": 0.2681818,
                "tempo": 120.0
            },
            {
                "start_time": 82.125,
                "end_time": 82.2931818,
                "pitch": 74,
                "velocity": 80,
                "duration": 0.1681818,
                "tempo": 120.0
            },
            {
                "start_time": 82.3272727,
                "end_time": 82.5931818,
                "pitch": 72,
                "velocity": 80,
                "duration": 0.2659091,
                "tempo": 120.0
            },
            {
                "start_time": 82.6272727,
                "end_time": 82.8931818,
                "pitch": 71,
                "velocity": 80,
                "duration": 0.2659091,
                "tempo": 120.0
            },
            {
                "start_time": 82.9272727,
                "end_time": 82.9954545,
                "pitch": 64,
                "velocity": 80,
                "duration": 0.0681818,
                "tempo": 120.0
            },
            {
                "start_time": 83.0295455,
                "end_time": 83.0954545,
                "pitch": 67,
                "velocity": 80,
                "duration": 0.0659091,
                "tempo": 120.0
            },
            {
                "start_time": 83.1295455,
                "end_time": 83.3977273,
                "pitch": 71,
                "velocity": 80,
                "duration": 0.2681818,
                "tempo": 120.0
            },
            {
                "start_time": 83.4318182,
                "end_time": 84.4,
                "pitch": 69,
                "velocity": 80,
                "duration": 0.9681818,
                "tempo": 120.0
            },
            {
                "start_time": 84.4340909,
                "end_time": 84.7,
                "pitch": 67,
                "velocity": 80,
                "duration": 0.2659091,
                "tempo": 120.0
            },
            {
                "start_time": 84.7340909,
                "end_time": 85.2045455,
                "pitch": 65,
                "velocity": 80,
                "duration": 0.4704545,
                "tempo": 120.0
            },
            {
                "start_time": 85.2386364,
                "end_time": 85.4068182,
                "pitch": 67,
                "velocity": 80,
                "duration": 0.1681818,
                "tempo": 120.0
            },
            {
                "start_time": 85.4386364,
                "end_time": 85.5068182,
                "pitch": 69,
                "velocity": 80,
                "duration": 0.0681818,
                "tempo": 120.0
            },
            {
                "start_time": 85.5386364,
                "end_time": 85.9068182,
                "pitch": 67,
                "velocity": 80,
                "duration": 0.3681818,
                "tempo": 120.0
            },
            {
                "start_time": 85.9409091,
                "end_time": 86.1113636,
                "pitch": 65,
                "velocity": 80,
                "duration": 0.1704545,
                "tempo": 120.0
            },
            {
                "start_time": 86.1454545,
                "end_time": 86.3159091,
                "pitch": 64,
                "velocity": 80,
                "duration": 0.1704545,
                "tempo": 120.0
            },
            {
                "start_time": 86.35,
                "end_time": 86.6113636,
                "pitch": 62,
                "velocity": 80,
                "duration": 0.2613636,
                "tempo": 120.0
            },
            {
                "start_time": 86.6431818,
                "end_time": 86.7090909,
                "pitch": 64,
                "velocity": 80,
                "duration": 0.0659091,
                "tempo": 120.0
            },
            {
                "start_time": 86.7431818,
                "end_time": 87.5,
                "pitch": 60,
                "velocity": 80,
                "duration": 0.7568182,
                "tempo": 120.0
            },
            {
                "start_time": 87.5363636,
                "end_time": 87.9227273,
                "pitch": 0,
                "velocity": 80,
                "duration": 0.3863636,
                "tempo": 120.0
            },
            {
                "start_time": 87.9545455,
                "end_time": 88.4136364,
                "pitch": 65,
                "velocity": 80,
                "duration": 0.4590909,
                "tempo": 120.0
            },
            {
                "start_time": 88.4477273,
                "end_time": 88.6136364,
                "pitch": 67,
                "velocity": 80,
                "duration": 0.1659091,
                "tempo": 120.0
            },
            {
                "start_time": 88.6477273,
                "end_time": 88.7159091,
                "pitch": 69,
                "velocity": 80,
                "duration": 0.0681818,
                "tempo": 120.0
            },
            {
                "start_time": 88.7477273,
                "end_time": 89.1181818,
                "pitch": 67,
                "velocity": 80,
                "duration": 0.3704545,
                "tempo": 120.0
            },
            {
                "start_time": 89.1522727,
                "end_time": 89.3227273,
                "pitch": 64,
                "velocity": 80,
                "duration": 0.1704545,
                "tempo": 120.0
            },
            {
                "start_time": 89.3568182,
                "end_time": 89.5272727,
                "pitch": 72,
                "velocity": 80,
                "duration": 0.1704545,
                "tempo": 120.0
            },
            {
                "start_time": 89.5613636,
                "end_time": 89.8227273,
                "pitch": 71,
                "velocity": 80,
                "duration": 0.2613636,
                "tempo": 120.0
            },
            {
                "start_time": 89.8545455,
                "end_time": 90.8204545,
                "pitch": 69,
                "velocity": 80,
                "duration": 0.9659091,
                "tempo": 120.0
            },
            {
                "start_time": 90.8568182,
                "end_time": 91.1363636,
                "pitch": 67,
                "velocity": 80,
                "duration": 0.2795455,
                "tempo": 120.0
            },
            {
                "start_time": 91.1681818,
                "end_time": 91.6295455,
                "pitch": 65,
                "velocity": 80,
                "duration": 0.4613636,
                "tempo": 120.0
            },
            {
                "start_time": 91.6613636,
                "end_time": 91.8295455,
                "pitch": 67,
                "velocity": 80,
                "duration": 0.1681818,
                "tempo": 120.0
            },
            {
                "start_time": 91.8613636,
                "end_time": 91.9295455,
                "pitch": 69,
                "velocity": 80,
                "duration": 0.0681818,
                "tempo": 120.0
            },
            {
                "start_time": 91.9613636,
                "end_time": 92.3318182,
                "pitch": 67,
                "velocity": 80,
                "duration": 0.3704545,
                "tempo": 120.0
            },
            {
                "start_time": 92.3659091,
                "end_time": 92.5318182,
                "pitch": 65,
                "velocity": 80,
                "duration": 0.1659091,
                "tempo": 120.0
            },
            {
                "start_time": 92.5659091,
                "end_time": 92.7318182,
                "pitch": 64,
                "velocity": 80,
                "duration": 0.1659091,
                "tempo": 120.0
            },
            {
                "start_time": 92.7659091,
                "end_time": 93.0340909,
                "pitch": 62,
                "velocity": 80,
                "duration": 0.2681818,
                "tempo": 120.0
            },
            {
                "start_time": 93.0681818,
                "end_time": 93.1340909,
                "pitch": 64,
                "velocity": 80,
                "duration": 0.0659091,
                "tempo": 120.0
            },
            {
                "start_time": 93.1681818,
                "end_time": 94.0340909,
                "pitch": 60,
                "velocity": 80,
                "duration": 0.8659091,
                "tempo": 120.0
            },
            {
                "start_time": 94.0704545,
                "end_time": 94.35,
                "pitch": 64,
                "velocity": 80,
                "duration": 0.2795455,
                "tempo": 120.0
            },
            {
                "start_time": 94.3818182,
                "end_time": 94.8431818,
                "pitch": 65,
                "velocity": 80,
                "duration": 0.4613636,
                "tempo": 120.0
            },
            {
                "start_time": 94.8772727,
                "end_time": 95.0454545,
                "pitch": 67,
                "velocity": 80,
                "duration": 0.1681818,
                "tempo": 120.0
            },
            {
                "start_time": 95.0772727,
                "end_time": 95.1454545,
                "pitch": 69,
                "velocity": 80,
                "duration": 0.0681818,
                "tempo": 120.0
            },
            {
                "start_time": 95.1795455,
                "end_time": 95.5477273,
                "pitch": 67,
                "velocity": 80,
                "duration": 0.3681818,
                "tempo": 120.0
            },
            {
                "start_time": 95.5818182,
                "end_time": 95.7477273,
                "pitch": 64,
                "velocity": 80,
                "duration": 0.1659091,
                "tempo": 120.0
            },
            {
                "start_time": 95.7818182,
                "end_time": 95.9477273,
                "pitch": 72,
                "velocity": 80,
                "duration": 0.1659091,
                "tempo": 120.0
            },
            {
                "start_time": 95.9795455,
                "end_time": 96.2409091,
                "pitch": 71,
                "velocity": 80,
                "duration": 0.2613636,
                "tempo": 120.0
            },
            {
                "start_time": 96.275,
                "end_time": 97.1545455,
                "pitch": 69,
                "velocity": 80,
                "duration": 0.8795455,
                "tempo": 120.0
            },
            {
                "start_time": 97.1863636,
                "end_time": 97.5568182,
                "pitch": 0,
                "velocity": 80,
                "duration": 0.3704545,
                "tempo": 120.0
            },
            {
                "start_time": 97.5886364,
                "end_time": 100.7659091,
                "pitch": 0,
                "velocity": 80,
                "duration": 3.1772727,
                "tempo": 120.0
            },
            {
                "start_time": 100.8,
                "end_time": 100.8636364,
                "pitch": 0,
                "velocity": 80,
                "duration": 0.0636364,
                "tempo": 120.0
            },
            {
                "start_time": 100.8977273,
                "end_time": 100.9636364,
                "pitch": 57,
                "velocity": 80,
                "duration": 0.0659091,
                "tempo": 120.0
            },
            {
                "start_time": 100.9954545,
                "end_time": 101.0613636,
                "pitch": 0,
                "velocity": 80,
                "duration": 0.0659091,
                "tempo": 120.0
            },
            {
                "start_time": 101.0931818,
                "end_time": 101.1545455,
                "pitch": 60,
                "velocity": 80,
                "duration": 0.0613636,
                "tempo": 120.0
            },
            {
                "start_time": 101.1863636,
                "end_time": 101.2477273,
                "pitch": 0,
                "velocity": 80,
                "duration": 0.0613636,
                "tempo": 120.0
            },
            {
                "start_time": 101.2795455,
                "end_time": 101.3409091,
                "pitch": 62,
                "velocity": 80,
                "duration": 0.0613636,
                "tempo": 120.0
            },
            {
                "start_time": 101.3727273,
                "end_time": 101.4340909,
                "pitch": 0,
                "velocity": 80,
                "duration": 0.0613636,
                "tempo": 120.0
            },
            {
                "start_time": 101.4636364,
                "end_time": 101.5295455,
                "pitch": 64,
                "velocity": 80,
                "duration": 0.0659091,
                "tempo": 120.0
            },
            {
                "start_time": 101.5636364,
                "end_time": 101.6318182,
                "pitch": 0,
                "velocity": 80,
                "duration": 0.0681818,
                "tempo": 120.0
            },
            {
                "start_time": 101.6659091,
                "end_time": 101.7318182,
                "pitch": 62,
                "velocity": 80,
                "duration": 0.0659091,
                "tempo": 120.0
            },
            {
                "start_time": 101.7659091,
                "end_time": 101.8318182,
                "pitch": 0,
                "velocity": 80,
                "duration": 0.0659091,
                "tempo": 120.0
            },
            {
                "start_time": 101.8659091,
                "end_time": 101.9295455,
                "pitch": 64,
                "velocity": 80,
                "duration": 0.0636364,
                "tempo": 120.0
            },
            {
                "start_time": 101.9613636,
                "end_time": 102.025,
                "pitch": 0,
                "velocity": 80,
                "duration": 0.0636364,
                "tempo": 120.0
            },
            {
                "start_time": 102.0568182,
                "end_time": 102.1204545,
                "pitch": 67,
                "velocity": 80,
                "duration": 0.0636364,
                "tempo": 120.0
            },
            {
                "start_time": 102.1522727,
                "end_time": 102.2159091,
                "pitch": 0,
                "velocity": 80,
                "duration": 0.0636364,
                "tempo": 120.0
            },
            {
                "start_time": 102.2454545,
                "end_time": 102.3045455,
                "pitch": 69,
                "velocity": 80,
                "duration": 0.0590909,
                "tempo": 120.0
            },
            {
                "start_time": 102.3363636,
                "end_time": 102.3954545,
                "pitch": 0,
                "velocity": 80,
                "duration": 0.0590909,
                "tempo": 120.0
            },
            {
                "start_time": 102.425,
                "end_time": 102.4863636,
                "pitch": 69,
                "velocity": 80,
                "duration": 0.0613636,
                "tempo": 120.0
            },
            {
                "start_time": 102.5159091,
                "end_time": 102.5772727,
                "pitch": 0,
                "velocity": 80,
                "duration": 0.0613636,
                "tempo": 120.0
            },
            {
                "start_time": 102.6113636,
                "end_time": 102.6795455,
                "pitch": 72,
                "velocity": 80,
                "duration": 0.0681818,
                "tempo": 120.0
            },
            {
                "start_time": 102.7136364,
                "end_time": 102.7795455,
                "pitch": 0,
                "velocity": 80,
                "duration": 0.0659091,
                "tempo": 120.0
            },
            {
                "start_time": 102.8136364,
                "end_time": 102.8795455,
                "pitch": 74,
                "velocity": 80,
                "duration": 0.0659091,
                "tempo": 120.0
            },
            {
                "start_time": 102.9136364,
                "end_time": 102.9818182,
                "pitch": 0,
                "velocity": 80,
                "duration": 0.0681818,
                "tempo": 120.0
            },
            {
                "start_time": 103.0136364,
                "end_time": 103.0818182,
                "pitch": 76,
                "velocity": 80,
                "duration": 0.0681818,
                "tempo": 120.0
            },
            {
                "start_time": 103.1136364,
                "end_time": 103.1818182,
                "pitch": 0,
                "velocity": 80,
                "duration": 0.0681818,
                "tempo": 120.0
            },
            {
                "start_time": 103.2136364,
                "end_time": 103.2818182,
                "pitch": 79,
                "velocity": 80,
                "duration": 0.0681818,
                "tempo": 120.0
            },
            {
                "start_time": 103.3136364,
                "end_time": 103.3795455,
                "pitch": 0,
                "velocity": 80,
                "duration": 0.0659091,
                "tempo": 120.0
            },
            {
                "start_time": 103.4136364,
                "end_time": 103.4772727,
                "pitch": 80,
                "velocity": 80,
                "duration": 0.0636364,
                "tempo": 120.0
            },
            {
                "start_time": 103.5113636,
                "end_time": 103.5772727,
                "pitch": 0,
                "velocity": 80,
                "duration": 0.0659091,
                "tempo": 120.0
            },
            {
                "start_time": 103.6090909,
                "end_time": 105.0863636,
                "pitch": 81,
                "velocity": 80,
                "duration": 1.4772727,
                "tempo": 120.0
            },
            {
                "start_time": 105.1204545,
                "end_time": 105.4909091,
                "pitch": 0,
                "velocity": 80,
                "duration": 0.3704545,
                "tempo": 120.0
            },
            {
                "start_time": 105.525,
                "end_time": 105.5931818,
                "pitch": 0,
                "velocity": 80,
                "duration": 0.0681818,
                "tempo": 120.0
            },
            {
                "start_time": 105.6272727,
                "end_time": 105.6954545,
                "pitch": 84,
                "velocity": 80,
                "duration": 0.0681818,
                "tempo": 120.0
            },
            {
                "start_time": 105.7295455,
                "end_time": 105.7977273,
                "pitch": 0,
                "velocity": 80,
                "duration": 0.0681818,
                "tempo": 120.0
            },
            {
                "start_time": 105.8318182,
                "end_time": 105.9068182,
                "pitch": 84,
                "velocity": 80,
                "duration": 0.075,
                "tempo": 120.0
            },
            {
                "start_time": 105.9431818,
                "end_time": 106.2363636,
                "pitch": 0,
                "velocity": 80,
                "duration": 0.2931818,
                "tempo": 120.0
            },
            {
                "start_time": 106.2727273,
                "end_time": 106.3431818,
                "pitch": 86,
                "velocity": 80,
                "duration": 0.0704545,
                "tempo": 120.0
            },
            {
                "start_time": 106.3772727,
                "end_time": 106.4454545,
                "pitch": 0,
                "velocity": 80,
                "duration": 0.0681818,
                "tempo": 120.0
            },
            {
                "start_time": 106.4795455,
                "end_time": 106.5477273,
                "pitch": 86,
                "velocity": 80,
                "duration": 0.0681818,
                "tempo": 120.0
            },
            {
                "start_time": 106.5818182,
                "end_time": 107.2863636,
                "pitch": 0,
                "velocity": 80,
                "duration": 0.7045455,
                "tempo": 120.0
            },
            {
                "start_time": 107.3181818,
                "end_time": 107.3863636,
                "pitch": 86,
                "velocity": 80,
                "duration": 0.0681818,
                "tempo": 120.0
            },
            {
                "start_time": 107.4204545,
                "end_time": 107.4863636,
                "pitch": 0,
                "velocity": 80,
                "duration": 0.0659091,
                "tempo": 120.0
            },
            {
                "start_time": 107.5204545,
                "end_time": 107.5886364,
                "pitch": 86,
                "velocity": 80,
                "duration": 0.0681818,
                "tempo": 120.0
            },
            {
                "start_time": 107.6227273,
                "end_time": 107.9045455,
                "pitch": 0,
                "velocity": 80,
                "duration": 0.2818182,
                "tempo": 120.0
            },
            {
                "start_time": 107.9409091,
                "end_time": 108.0090909,
                "pitch": 88,
                "velocity": 80,
                "duration": 0.0681818,
                "tempo": 120.0
            },
            {
                "start_time": 108.0431818,
                "end_time": 108.1090909,
                "pitch": 0,
                "velocity": 80,
                "duration": 0.0659091,
                "tempo": 120.0
            },
            {
                "start_time": 108.1431818,
                "end_time": 108.2090909,
                "pitch": 88,
                "velocity": 80,
                "duration": 0.0659091,
                "tempo": 120.0
            },
            {
                "start_time": 108.2431818,
                "end_time": 108.9,
                "pitch": 0,
                "velocity": 80,
                "duration": 0.6568182,
                "tempo": 120.0
            },
            {
                "start_time": 108.9318182,
                "end_time": 108.9977273,
                "pitch": 84,
                "velocity": 80,
                "duration": 0.0659091,
                "tempo": 120.0
            },
            {
                "start_time": 109.0295455,
                "end_time": 109.0954545,
                "pitch": 0,
                "velocity": 80,
                "duration": 0.0659091,
                "tempo": 120.0
            },
            {
                "start_time": 109.1295455,
                "end_time": 109.1954545,
                "pitch": 84,
                "velocity": 80,
                "duration": 0.0659091,
                "tempo": 120.0
            },
            {
                "start_time": 109.2295455,
                "end_time": 109.5113636,
                "pitch": 0,
                "velocity": 80,
                "duration": 0.2818182,
                "tempo": 120.0
            },
            {
                "start_time": 109.5454545,
                "end_time": 109.6136364,
                "pitch": 86,
                "velocity": 80,
                "duration": 0.0681818,
                "tempo": 120.0
            },
            {
                "start_time": 109.6454545,
                "end_time": 109.7090909,
                "pitch": 0,
                "velocity": 80,
                "duration": 0.0636364,
                "tempo": 120.0
            },
            {
                "start_time": 109.7409091,
                "end_time": 109.8045455,
                "pitch": 86,
                "velocity": 80,
                "duration": 0.0636364,
                "tempo": 120.0
            },
            {
                "start_time": 109.8363636,
                "end_time": 110.5045455,
                "pitch": 0,
                "velocity": 80,
                "duration": 0.6681818,
                "tempo": 120.0
            },
            {
                "start_time": 110.5386364,
                "end_time": 110.6045455,
                "pitch": 86,
                "velocity": 80,
                "duration": 0.0659091,
                "tempo": 120.0
            },
            {
                "start_time": 110.6363636,
                "end_time": 110.7022727,
                "pitch": 0,
                "velocity": 80,
                "duration": 0.0659091,
                "tempo": 120.0
            },
            {
                "start_time": 110.7340909,
                "end_time": 110.8,
                "pitch": 86,
                "velocity": 80,
                "duration": 0.0659091,
                "tempo": 120.0
            },
            {
                "start_time": 110.8340909,
                "end_time": 111.1159091,
                "pitch": 0,
                "velocity": 80,
                "duration": 0.2818182,
                "tempo": 120.0
            },
            {
                "start_time": 111.1522727,
                "end_time": 111.2227273,
                "pitch": 88,
                "velocity": 80,
                "duration": 0.0704545,
                "tempo": 120.0
            },
            {
                "start_time": 111.2545455,
                "end_time": 111.3227273,
                "pitch": 0,
                "velocity": 80,
                "duration": 0.0681818,
                "tempo": 120.0
            },
            {
                "start_time": 111.3545455,
                "end_time": 111.4227273,
                "pitch": 88,
                "velocity": 80,
                "duration": 0.0681818,
                "tempo": 120.0
            },
            {
                "start_time": 111.4545455,
                "end_time": 111.7204545,
                "pitch": 0,
                "velocity": 80,
                "duration": 0.2659091,
                "tempo": 120.0
            },
            {
                "start_time": 111.7522727,
                "end_time": 113.6227273,
                "pitch": 86,
                "velocity": 80,
                "duration": 1.8704545,
                "tempo": 120.0
            },
            {
                "start_time": 113.6568182,
                "end_time": 115.2295455,
                "pitch": 0,
                "velocity": 80,
                "duration": 1.5727273,
                "tempo": 120.0
            },
            {
                "start_time": 115.2636364,
                "end_time": 115.2977273,
                "pitch": 67,
                "velocity": 80,
                "duration": 0.0340909,
                "tempo": 120.0
            },
            {
                "start_time": 115.3295455,
                "end_time": 115.3636364,
                "pitch": 68,
                "velocity": 80,
                "duration": 0.0340909,
                "tempo": 120.0
            },
            {
                "start_time": 115.3977273,
                "end_time": 115.4318182,
                "pitch": 69,
                "velocity": 80,
                "duration": 0.0340909,
                "tempo": 120.0
            },
            {
                "start_time": 115.4636364,
                "end_time": 115.4977273,
                "pitch": 69,
                "velocity": 80,
                "duration": 0.0340909,
                "tempo": 120.0
            },
            {
                "start_time": 115.5318182,
                "end_time": 115.5659091,
                "pitch": 69,
                "velocity": 80,
                "duration": 0.0340909,
                "tempo": 120.0
            },
            {
                "start_time": 115.5977273,
                "end_time": 115.6318182,
                "pitch": 69,
                "velocity": 80,
                "duration": 0.0340909,
                "tempo": 120.0
            },
            {
                "start_time": 115.6659091,
                "end_time": 115.6977273,
                "pitch": 69,
                "velocity": 80,
                "duration": 0.0318182,
                "tempo": 120.0
            },
            {
                "start_time": 115.7318182,
                "end_time": 115.7659091,
                "pitch": 69,
                "velocity": 80,
                "duration": 0.0340909,
                "tempo": 120.0
            },
            {
                "start_time": 115.7977273,
                "end_time": 115.8318182,
                "pitch": 69,
                "velocity": 80,
                "duration": 0.0340909,
                "tempo": 120.0
            },
            {
                "start_time": 115.8659091,
                "end_time": 115.8977273,
                "pitch": 69,
                "velocity": 80,
                "duration": 0.0318182,
                "tempo": 120.0
            },
            {
                "start_time": 115.9318182,
                "end_time": 115.9659091,
                "pitch": 69,
                "velocity": 80,
                "duration": 0.0340909,
                "tempo": 120.0
            },
            {
                "start_time": 115.9977273,
                "end_time": 116.0318182,
                "pitch": 69,
                "velocity": 80,
                "duration": 0.0340909,
                "tempo": 120.0
            },
            {
                "start_time": 116.0659091,
                "end_time": 116.1,
                "pitch": 69,
                "velocity": 80,
                "duration": 0.0340909,
                "tempo": 120.0
            },
            {
                "start_time": 116.1340909,
                "end_time": 116.1681818,
                "pitch": 69,
                "velocity": 80,
                "duration": 0.0340909,
                "tempo": 120.0
            },
            {
                "start_time": 116.2045455,
                "end_time": 116.2386364,
                "pitch": 69,
                "velocity": 80,
                "duration": 0.0340909,
                "tempo": 120.0
            },
            {
                "start_time": 116.2727273,
                "end_time": 116.3068182,
                "pitch": 69,
                "velocity": 80,
                "duration": 0.0340909,
                "tempo": 120.0
            },
            {
                "start_time": 116.3409091,
                "end_time": 116.375,
                "pitch": 69,
                "velocity": 80,
                "duration": 0.0340909,
                "tempo": 120.0
            },
            {
                "start_time": 116.4090909,
                "end_time": 116.4431818,
                "pitch": 69,
                "velocity": 80,
                "duration": 0.0340909,
                "tempo": 120.0
            },
            {
                "start_time": 116.475,
                "end_time": 116.5068182,
                "pitch": 69,
                "velocity": 80,
                "duration": 0.0318182,
                "tempo": 120.0
            },
            {
                "start_time": 116.5727273,
                "end_time": 116.6386364,
                "pitch": 71,
                "velocity": 80,
                "duration": 0.0659091,
                "tempo": 120.0
            },
            {
                "start_time": 116.6704545,
                "end_time": 116.7363636,
                "pitch": 69,
                "velocity": 80,
                "duration": 0.0659091,
                "tempo": 120.0
            },
            {
                "start_time": 116.7681818,
                "end_time": 117.1363636,
                "pitch": 72,
                "velocity": 80,
                "duration": 0.3681818,
                "tempo": 120.0
            },
            {
                "start_time": 117.1704545,
                "end_time": 117.4386364,
                "pitch": 71,
                "velocity": 80,
                "duration": 0.2681818,
                "tempo": 120.0
            },
            {
                "start_time": 117.4727273,
                "end_time": 118.05,
                "pitch": 69,
                "velocity": 80,
                "duration": 0.5772727,
                "tempo": 120.0
            },
            {
                "start_time": 118.0840909,
                "end_time": 118.2477273,
                "pitch": 0,
                "velocity": 80,
                "duration": 0.1636364,
                "tempo": 120.0
            },
            {
                "start_time": 118.2795455,
                "end_time": 118.3113636,
                "pitch": 68,
                "velocity": 80,
                "duration": 0.0318182,
                "tempo": 120.0
            },
            {
                "start_time": 118.3454545,
                "end_time": 118.3772727,
                "pitch": 67,
                "velocity": 80,
                "duration": 0.0318182,
                "tempo": 120.0
            },
            {
                "start_time": 118.4090909,
                "end_time": 118.4431818,
                "pitch": 69,
                "velocity": 80,
                "duration": 0.0340909,
                "tempo": 120.0
            },
            {
                "start_time": 118.4772727,
                "end_time": 118.5090909,
                "pitch": 69,
                "velocity": 80,
                "duration": 0.0318182,
                "tempo": 120.0
            },
            {
                "start_time": 118.5431818,
                "end_time": 118.5772727,
                "pitch": 69,
                "velocity": 80,
                "duration": 0.0340909,
                "tempo": 120.0
            },
            {
                "start_time": 118.6090909,
                "end_time": 118.6431818,
                "pitch": 69,
                "velocity": 80,
                "duration": 0.0340909,
                "tempo": 120.0
            },
            {
                "start_time": 118.6772727,
                "end_time": 118.7090909,
                "pitch": 69,
                "velocity": 80,
                "duration": 0.0318182,
                "tempo": 120.0
            },
            {
                "start_time": 118.7431818,
                "end_time": 118.7772727,
                "pitch": 69,
                "velocity": 80,
                "duration": 0.0340909,
                "tempo": 120.0
            },
            {
                "start_time": 118.8090909,
                "end_time": 118.8431818,
                "pitch": 69,
                "velocity": 80,
                "duration": 0.0340909,
                "tempo": 120.0
            },
            {
                "start_time": 118.8772727,
                "end_time": 119.0454545,
                "pitch": 0,
                "velocity": 80,
                "duration": 0.1681818,
                "tempo": 120.0
            },
            {
                "start_time": 119.0772727,
                "end_time": 119.1113636,
                "pitch": 68,
                "velocity": 80,
                "duration": 0.0340909,
                "tempo": 120.0
            },
            {
                "start_time": 119.1454545,
                "end_time": 119.1795455,
                "pitch": 67,
                "velocity": 80,
                "duration": 0.0340909,
                "tempo": 120.0
            },
            {
                "start_time": 119.2113636,
                "end_time": 119.2454545,
                "pitch": 69,
                "velocity": 80,
                "duration": 0.0340909,
                "tempo": 120.0
            },
            {
                "start_time": 119.2795455,
                "end_time": 119.3136364,
                "pitch": 69,
                "velocity": 80,
                "duration": 0.0340909,
                "tempo": 120.0
            },
            {
                "start_time": 119.35,
                "end_time": 119.3840909,
                "pitch": 69,
                "velocity": 80,
                "duration": 0.0340909,
                "tempo": 120.0
            },
            {
                "start_time": 119.4181818,
                "end_time": 119.4522727,
                "pitch": 69,
                "velocity": 80,
                "duration": 0.0340909,
                "tempo": 120.0
            },
            {
                "start_time": 119.4863636,
                "end_time": 119.5204545,
                "pitch": 69,
                "velocity": 80,
                "duration": 0.0340909,
                "tempo": 120.0
            },
            {
                "start_time": 119.5545455,
                "end_time": 119.5886364,
                "pitch": 69,
                "velocity": 80,
                "duration": 0.0340909,
                "tempo": 120.0
            },
            {
                "start_time": 119.6227273,
                "end_time": 119.6568182,
                "pitch": 69,
                "velocity": 80,
                "duration": 0.0340909,
                "tempo": 120.0
            },
            {
                "start_time": 119.6886364,
                "end_time": 119.7227273,
                "pitch": 69,
                "velocity": 80,
                "duration": 0.0340909,
                "tempo": 120.0
            },
            {
                "start_time": 119.7545455,
                "end_time": 119.7863636,
                "pitch": 69,
                "velocity": 80,
                "duration": 0.0318182,
                "tempo": 120.0
            },
            {
                "start_time": 119.8204545,
                "end_time": 119.8522727,
                "pitch": 69,
                "velocity": 80,
                "duration": 0.0318182,
                "tempo": 120.0
            },
            {
                "start_time": 119.8840909,
                "end_time": 119.9181818,
                "pitch": 69,
                "velocity": 80,
                "duration": 0.0340909,
                "tempo": 120.0
            },
            {
                "start_time": 119.95,
                "end_time": 119.9840909,
                "pitch": 69,
                "velocity": 80,
                "duration": 0.0340909,
                "tempo": 120.0
            },
            {
                "start_time": 120.0159091,
                "end_time": 120.05,
                "pitch": 69,
                "velocity": 80,
                "duration": 0.0340909,
                "tempo": 120.0
            },
            {
                "start_time": 120.0818182,
                "end_time": 120.35,
                "pitch": 72,
                "velocity": 80,
                "duration": 0.2681818,
                "tempo": 120.0
            },
            {
                "start_time": 120.3840909,
                "end_time": 120.6522727,
                "pitch": 71,
                "velocity": 80,
                "duration": 0.2681818,
                "tempo": 120.0
            },
            {
                "start_time": 120.6840909,
                "end_time": 120.8522727,
                "pitch": 69,
                "velocity": 80,
                "duration": 0.1681818,
                "tempo": 120.0
            },
            {
                "start_time": 120.8863636,
                "end_time": 120.9545455,
                "pitch": 0,
                "velocity": 80,
                "duration": 0.0681818,
                "tempo": 120.0
            },
            {
                "start_time": 120.9886364,
                "end_time": 121.0568182,
                "pitch": 74,
                "velocity": 80,
                "duration": 0.0681818,
                "tempo": 120.0
            },
            {
                "start_time": 121.0909091,
                "end_time": 121.1590909,
                "pitch": 0,
                "velocity": 80,
                "duration": 0.0681818,
                "tempo": 120.0
            },
            {
                "start_time": 121.1931818,
                "end_time": 121.2613636,
                "pitch": 74,
                "velocity": 80,
                "duration": 0.0681818,
                "tempo": 120.0
            },
            {
                "start_time": 121.2954545,
                "end_time": 121.3590909,
                "pitch": 0,
                "velocity": 80,
                "duration": 0.0636364,
                "tempo": 120.0
            },
            {
                "start_time": 121.3931818,
                "end_time": 121.4568182,
                "pitch": 74,
                "velocity": 80,
                "duration": 0.0636364,
                "tempo": 120.0
            },
            {
                "start_time": 121.4909091,
                "end_time": 121.5568182,
                "pitch": 75,
                "velocity": 80,
                "duration": 0.0659091,
                "tempo": 120.0
            },
            {
                "start_time": 121.5886364,
                "end_time": 121.6545455,
                "pitch": 76,
                "velocity": 80,
                "duration": 0.0659091,
                "tempo": 120.0
            },
            {
                "start_time": 121.6886364,
                "end_time": 121.8545455,
                "pitch": 79,
                "velocity": 80,
                "duration": 0.1659091,
                "tempo": 120.0
            },
            {
                "start_time": 121.8886364,
                "end_time": 121.9545455,
                "pitch": 69,
                "velocity": 80,
                "duration": 0.0659091,
                "tempo": 120.0
            },
            {
                "start_time": 121.9886364,
                "end_time": 122.0545455,
                "pitch": 76,
                "velocity": 80,
                "duration": 0.0659091,
                "tempo": 120.0
            },
            {
                "start_time": 122.0886364,
                "end_time": 122.1545455,
                "pitch": 0,
                "velocity": 80,
                "duration": 0.0659091,
                "tempo": 120.0
            },
            {
                "start_time": 122.1886364,
                "end_time": 122.2568182,
                "pitch": 79,
                "velocity": 80,
                "duration": 0.0681818,
                "tempo": 120.0
            },
            {
                "start_time": 122.2886364,
                "end_time": 122.3568182,
                "pitch": 69,
                "velocity": 80,
                "duration": 0.0681818,
                "tempo": 120.0
            },
            {
                "start_time": 122.3909091,
                "end_time": 122.4568182,
                "pitch": 76,
                "velocity": 80,
                "duration": 0.0659091,
                "tempo": 120.0
            },
            {
                "start_time": 122.4909091,
                "end_time": 122.5590909,
                "pitch": 76,
                "velocity": 80,
                "duration": 0.0681818,
                "tempo": 120.0
            },
            {
                "start_time": 122.5931818,
                "end_time": 122.6636364,
                "pitch": 74,
                "velocity": 80,
                "duration": 0.0704545,
                "tempo": 120.0
            },
            {
                "start_time": 122.6977273,
                "end_time": 122.7659091,
                "pitch": 0,
                "velocity": 80,
                "duration": 0.0681818,
                "tempo": 120.0
            },
            {
                "start_time": 122.8,
                "end_time": 122.9659091,
                "pitch": 72,
                "velocity": 80,
                "duration": 0.1659091,
                "tempo": 120.0
            },
            {
                "start_time": 122.9977273,
                "end_time": 123.0636364,
                "pitch": 74,
                "velocity": 80,
                "duration": 0.0659091,
                "tempo": 120.0
            },
            {
                "start_time": 123.0954545,
                "end_time": 123.1613636,
                "pitch": 72,
                "velocity": 80,
                "duration": 0.0659091,
                "tempo": 120.0
            },
            {
                "start_time": 123.1931818,
                "end_time": 123.2590909,
                "pitch": 0,
                "velocity": 80,
                "duration": 0.0659091,
                "tempo": 120.0
            },
            {
                "start_time": 123.2931818,
                "end_time": 123.3613636,
                "pitch": 72,
                "velocity": 80,
                "duration": 0.0681818,
                "tempo": 120.0
            },
            {
                "start_time": 123.3931818,
                "end_time": 123.4613636,
                "pitch": 72,
                "velocity": 80,
                "duration": 0.0681818,
                "tempo": 120.0
            },
            {
                "start_time": 123.4954545,
                "end_time": 123.5295455,
                "pitch": 72,
                "velocity": 80,
                "duration": 0.0340909,
                "tempo": 120.0
            },
            {
                "start_time": 123.5613636,
                "end_time": 123.5954545,
                "pitch": 72,
                "velocity": 80,
                "duration": 0.0340909,
                "tempo": 120.0
            },
            {
                "start_time": 123.6295455,
                "end_time": 123.6636364,
                "pitch": 72,
                "velocity": 80,
                "duration": 0.0340909,
                "tempo": 120.0
            },
            {
                "start_time": 123.6954545,
                "end_time": 123.7636364,
                "pitch": 72,
                "velocity": 80,
                "duration": 0.0681818,
                "tempo": 120.0
            },
            {
                "start_time": 123.7954545,
                "end_time": 123.8636364,
                "pitch": 71,
                "velocity": 80,
                "duration": 0.0681818,
                "tempo": 120.0
            },
            {
                "start_time": 123.8954545,
                "end_time": 123.9295455,
                "pitch": 71,
                "velocity": 80,
                "duration": 0.0340909,
                "tempo": 120.0
            },
            {
                "start_time": 123.9636364,
                "end_time": 123.9954545,
                "pitch": 71,
                "velocity": 80,
                "duration": 0.0318182,
                "tempo": 120.0
            },
            {
                "start_time": 124.0295455,
                "end_time": 124.0636364,
                "pitch": 71,
                "velocity": 80,
                "duration": 0.0340909,
                "tempo": 120.0
            },
            {
                "start_time": 124.0977273,
                "end_time": 124.1659091,
                "pitch": 71,
                "velocity": 80,
                "duration": 0.0681818,
                "tempo": 120.0
            },
            {
                "start_time": 124.2,
                "end_time": 124.2681818,
                "pitch": 71,
                "velocity": 80,
                "duration": 0.0681818,
                "tempo": 120.0
            },
            {
                "start_time": 124.3022727,
                "end_time": 124.3704545,
                "pitch": 69,
                "velocity": 80,
                "duration": 0.0681818,
                "tempo": 120.0
            },
            {
                "start_time": 124.4045455,
                "end_time": 124.4727273,
                "pitch": 69,
                "velocity": 80,
                "duration": 0.0681818,
                "tempo": 120.0
            },
            {
                "start_time": 124.5045455,
                "end_time": 124.5386364,
                "pitch": 67,
                "velocity": 80,
                "duration": 0.0340909,
                "tempo": 120.0
            },
            {
                "start_time": 124.5704545,
                "end_time": 124.6045455,
                "pitch": 67,
                "velocity": 80,
                "duration": 0.0340909,
                "tempo": 120.0
            },
            {
                "start_time": 124.6363636,
                "end_time": 124.6681818,
                "pitch": 67,
                "velocity": 80,
                "duration": 0.0318182,
                "tempo": 120.0
            },
            {
                "start_time": 124.7022727,
                "end_time": 124.8659091,
                "pitch": 66,
                "velocity": 80,
                "duration": 0.1636364,
                "tempo": 120.0
            },
            {
                "start_time": 124.9,
                "end_time": 124.9659091,
                "pitch": 62,
                "velocity": 80,
                "duration": 0.0659091,
                "tempo": 120.0
            },
            {
                "start_time": 125.0,
                "end_time": 125.1681818,
                "pitch": 67,
                "velocity": 80,
                "duration": 0.1681818,
                "tempo": 120.0
            },
            {
                "start_time": 125.2,
                "end_time": 125.2681818,
                "pitch": 64,
                "velocity": 80,
                "duration": 0.0681818,
                "tempo": 120.0
            },
            {
                "start_time": 125.3022727,
                "end_time": 125.3681818,
                "pitch": 0,
                "velocity": 80,
                "duration": 0.0659091,
                "tempo": 120.0
            },
            {
                "start_time": 125.4022727,
                "end_time": 125.4704545,
                "pitch": 66,
                "velocity": 80,
                "duration": 0.0681818,
                "tempo": 120.0
            },
            {
                "start_time": 125.5022727,
                "end_time": 125.5704545,
                "pitch": 62,
                "velocity": 80,
                "duration": 0.0681818,
                "tempo": 120.0
            },
            {
                "start_time": 125.6045455,
                "end_time": 125.6704545,
                "pitch": 67,
                "velocity": 80,
                "duration": 0.0659091,
                "tempo": 120.0
            },
            {
                "start_time": 125.7045455,
                "end_time": 125.7727273,
                "pitch": 64,
                "velocity": 80,
                "duration": 0.0681818,
                "tempo": 120.0
            },
            {
                "start_time": 125.8090909,
                "end_time": 125.8772727,
                "pitch": 69,
                "velocity": 80,
                "duration": 0.0681818,
                "tempo": 120.0
            },
            {
                "start_time": 125.9113636,
                "end_time": 126.0818182,
                "pitch": 67,
                "velocity": 80,
                "duration": 0.1704545,
                "tempo": 120.0
            },
            {
                "start_time": 126.1136364,
                "end_time": 126.1795455,
                "pitch": 62,
                "velocity": 80,
                "duration": 0.0659091,
                "tempo": 120.0
            },
            {
                "start_time": 126.2113636,
                "end_time": 126.2772727,
                "pitch": 67,
                "velocity": 80,
                "duration": 0.0659091,
                "tempo": 120.0
            },
            {
                "start_time": 126.3090909,
                "end_time": 126.4727273,
                "pitch": 64,
                "velocity": 80,
                "duration": 0.1636364,
                "tempo": 120.0
            },
            {
                "start_time": 126.5068182,
                "end_time": 126.5727273,
                "pitch": 67,
                "velocity": 80,
                "duration": 0.0659091,
                "tempo": 120.0
            },
            {
                "start_time": 126.6068182,
                "end_time": 126.6727273,
                "pitch": 64,
                "velocity": 80,
                "duration": 0.0659091,
                "tempo": 120.0
            },
            {
                "start_time": 126.7068182,
                "end_time": 126.8727273,
                "pitch": 69,
                "velocity": 80,
                "duration": 0.1659091,
                "tempo": 120.0
            },
            {
                "start_time": 126.9068182,
                "end_time": 126.9409091,
                "pitch": 0,
                "velocity": 80,
                "duration": 0.0340909,
                "tempo": 120.0
            },
            {
                "start_time": 126.975,
                "end_time": 127.0090909,
                "pitch": 67,
                "velocity": 80,
                "duration": 0.0340909,
                "tempo": 120.0
            },
            {
                "start_time": 127.0409091,
                "end_time": 127.075,
                "pitch": 67,
                "velocity": 80,
                "duration": 0.0340909,
                "tempo": 120.0
            },
            {
                "start_time": 127.1090909,
                "end_time": 127.1431818,
                "pitch": 67,
                "velocity": 80,
                "duration": 0.0340909,
                "tempo": 120.0
            },
            {
                "start_time": 127.175,
                "end_time": 127.2090909,
                "pitch": 67,
                "velocity": 80,
                "duration": 0.0340909,
                "tempo": 120.0
            },
            {
                "start_time": 127.2431818,
                "end_time": 127.275,
                "pitch": 67,
                "velocity": 80,
                "duration": 0.0318182,
                "tempo": 120.0
            },
            {
                "start_time": 127.3090909,
                "end_time": 127.3409091,
                "pitch": 69,
                "velocity": 80,
                "duration": 0.0318182,
                "tempo": 120.0
            },
            {
                "start_time": 127.3727273,
                "end_time": 127.4068182,
                "pitch": 69,
                "velocity": 80,
                "duration": 0.0340909,
                "tempo": 120.0
            },
            {
                "start_time": 127.4386364,
                "end_time": 127.4727273,
                "pitch": 71,
                "velocity": 80,
                "duration": 0.0340909,
                "tempo": 120.0
            },
            {
                "start_time": 127.5045455,
                "end_time": 127.5363636,
                "pitch": 71,
                "velocity": 80,
                "duration": 0.0318182,
                "tempo": 120.0
            },
            {
                "start_time": 127.5704545,
                "end_time": 127.6022727,
                "pitch": 71,
                "velocity": 80,
                "duration": 0.0318182,
                "tempo": 120.0
            },
            {
                "start_time": 127.6363636,
                "end_time": 127.6681818,
                "pitch": 72,
                "velocity": 80,
                "duration": 0.0318182,
                "tempo": 120.0
            },
            {
                "start_time": 127.7022727,
                "end_time": 127.7363636,
                "pitch": 72,
                "velocity": 80,
                "duration": 0.0340909,
                "tempo": 120.0
            },
            {
                "start_time": 127.7704545,
                "end_time": 127.8068182,
                "pitch": 72,
                "velocity": 80,
                "duration": 0.0363636,
                "tempo": 120.0
            },
            {
                "start_time": 127.8409091,
                "end_time": 127.875,
                "pitch": 74,
                "velocity": 80,
                "duration": 0.0340909,
                "tempo": 120.0
            },
            {
                "start_time": 127.9090909,
                "end_time": 127.9431818,
                "pitch": 74,
                "velocity": 80,
                "duration": 0.0340909,
                "tempo": 120.0
            },
            {
                "start_time": 127.9772727,
                "end_time": 128.0113636,
                "pitch": 76,
                "velocity": 80,
                "duration": 0.0340909,
                "tempo": 120.0
            },
            {
                "start_time": 128.0454545,
                "end_time": 128.0795455,
                "pitch": 76,
                "velocity": 80,
                "duration": 0.0340909,
                "tempo": 120.0
            },
            {
                "start_time": 128.1136364,
                "end_time": 128.2818182,
                "pitch": 64,
                "velocity": 80,
                "duration": 0.1681818,
                "tempo": 120.0
            },
            {
                "start_time": 128.3136364,
                "end_time": 128.3818182,
                "pitch": 67,
                "velocity": 80,
                "duration": 0.0681818,
                "tempo": 120.0
            },
            {
                "start_time": 128.4159091,
                "end_time": 128.4818182,
                "pitch": 69,
                "velocity": 80,
                "duration": 0.0659091,
                "tempo": 120.0
            },
            {
                "start_time": 128.5159091,
                "end_time": 128.5818182,
                "pitch": 0,
                "velocity": 80,
                "duration": 0.0659091,
                "tempo": 120.0
            },
            {
                "start_time": 128.6159091,
                "end_time": 128.6818182,
                "pitch": 64,
                "velocity": 80,
                "duration": 0.0659091,
                "tempo": 120.0
            },
            {
                "start_time": 128.7159091,
                "end_time": 128.7818182,
                "pitch": 64,
                "velocity": 80,
                "duration": 0.0659091,
                "tempo": 120.0
            },
            {
                "start_time": 128.8159091,
                "end_time": 128.8818182,
                "pitch": 64,
                "velocity": 80,
                "duration": 0.0659091,
                "tempo": 120.0
            },
            {
                "start_time": 128.9159091,
                "end_time": 128.9840909,
                "pitch": 64,
                "velocity": 80,
                "duration": 0.0681818,
                "tempo": 120.0
            },
            {
                "start_time": 129.0181818,
                "end_time": 129.1909091,
                "pitch": 67,
                "velocity": 80,
                "duration": 0.1727273,
                "tempo": 120.0
            },
            {
                "start_time": 129.225,
                "end_time": 129.2931818,
                "pitch": 69,
                "velocity": 80,
                "duration": 0.0681818,
                "tempo": 120.0
            },
            {
                "start_time": 129.325,
                "end_time": 129.3909091,
                "pitch": 64,
                "velocity": 80,
                "duration": 0.0659091,
                "tempo": 120.0
            },
            {
                "start_time": 129.4227273,
                "end_time": 129.4886364,
                "pitch": 64,
                "velocity": 80,
                "duration": 0.0659091,
                "tempo": 120.0
            },
            {
                "start_time": 129.5204545,
                "end_time": 129.5545455,
                "pitch": 64,
                "velocity": 80,
                "duration": 0.0340909,
                "tempo": 120.0
            },
            {
                "start_time": 129.5863636,
                "end_time": 129.6181818,
                "pitch": 64,
                "velocity": 80,
                "duration": 0.0318182,
                "tempo": 120.0
            },
            {
                "start_time": 129.6522727,
                "end_time": 129.6840909,
                "pitch": 64,
                "velocity": 80,
                "duration": 0.0318182,
                "tempo": 120.0
            },
            {
                "start_time": 129.7181818,
                "end_time": 129.7863636,
                "pitch": 0,
                "velocity": 80,
                "duration": 0.0681818,
                "tempo": 120.0
            },
            {
                "start_time": 129.8181818,
                "end_time": 129.8863636,
                "pitch": 71,
                "velocity": 80,
                "duration": 0.0681818,
                "tempo": 120.0
            },
            {
                "start_time": 129.9204545,
                "end_time": 129.9863636,
                "pitch": 0,
                "velocity": 80,
                "duration": 0.0659091,
                "tempo": 120.0
            },
            {
                "start_time": 130.0204545,
                "end_time": 130.0863636,
                "pitch": 72,
                "velocity": 80,
                "duration": 0.0659091,
                "tempo": 120.0
            },
            {
                "start_time": 130.1204545,
                "end_time": 130.1863636,
                "pitch": 72,
                "velocity": 80,
                "duration": 0.0659091,
                "tempo": 120.0
            },
            {
                "start_time": 130.2204545,
                "end_time": 130.3545455,
                "pitch": 71,
                "velocity": 80,
                "duration": 0.1340909,
                "tempo": 120.0
            },
            {
                "start_time": 130.3863636,
                "end_time": 130.4204545,
                "pitch": 71,
                "velocity": 80,
                "duration": 0.0340909,
                "tempo": 120.0
            },
            {
                "start_time": 130.4545455,
                "end_time": 130.4886364,
                "pitch": 71,
                "velocity": 80,
                "duration": 0.0340909,
                "tempo": 120.0
            },
            {
                "start_time": 130.5227273,
                "end_time": 130.5909091,
                "pitch": 71,
                "velocity": 80,
                "duration": 0.0681818,
                "tempo": 120.0
            },
            {
                "start_time": 130.625,
                "end_time": 130.6931818,
                "pitch": 71,
                "velocity": 80,
                "duration": 0.0681818,
                "tempo": 120.0
            },
            {
                "start_time": 130.7272727,
                "end_time": 130.7613636,
                "pitch": 71,
                "velocity": 80,
                "duration": 0.0340909,
                "tempo": 120.0
            },
            {
                "start_time": 130.7954545,
                "end_time": 130.8295455,
                "pitch": 71,
                "velocity": 80,
                "duration": 0.0340909,
                "tempo": 120.0
            },
            {
                "start_time": 130.8636364,
                "end_time": 130.8977273,
                "pitch": 71,
                "velocity": 80,
                "duration": 0.0340909,
                "tempo": 120.0
            },
            {
                "start_time": 130.9295455,
                "end_time": 131.0931818,
                "pitch": 69,
                "velocity": 80,
                "duration": 0.1636364,
                "tempo": 120.0
            },
            {
                "start_time": 131.1272727,
                "end_time": 131.1909091,
                "pitch": 67,
                "velocity": 80,
                "duration": 0.0636364,
                "tempo": 120.0
            },
            {
                "start_time": 131.225,
                "end_time": 131.2909091,
                "pitch": 69,
                "velocity": 80,
                "duration": 0.0659091,
                "tempo": 120.0
            },
            {
                "start_time": 131.325,
                "end_time": 131.4909091,
                "pitch": 0,
                "velocity": 80,
                "duration": 0.1659091,
                "tempo": 120.0
            },
            {
                "start_time": 131.525,
                "end_time": 131.5931818,
                "pitch": 69,
                "velocity": 80,
                "duration": 0.0681818,
                "tempo": 120.0
            },
            {
                "start_time": 131.625,
                "end_time": 131.6931818,
                "pitch": 69,
                "velocity": 80,
                "duration": 0.0681818,
                "tempo": 120.0
            },
            {
                "start_time": 131.7272727,
                "end_time": 131.7931818,
                "pitch": 0,
                "velocity": 80,
                "duration": 0.0659091,
                "tempo": 120.0
            },
            {
                "start_time": 131.8272727,
                "end_time": 131.8954545,
                "pitch": 69,
                "velocity": 80,
                "duration": 0.0681818,
                "tempo": 120.0
            },
            {
                "start_time": 131.9272727,
                "end_time": 131.9954545,
                "pitch": 71,
                "velocity": 80,
                "duration": 0.0681818,
                "tempo": 120.0
            },
            {
                "start_time": 132.0295455,
                "end_time": 132.0954545,
                "pitch": 72,
                "velocity": 80,
                "duration": 0.0659091,
                "tempo": 120.0
            },
            {
                "start_time": 132.1295455,
                "end_time": 132.1977273,
                "pitch": 0,
                "velocity": 80,
                "duration": 0.0681818,
                "tempo": 120.0
            },
            {
                "start_time": 132.2318182,
                "end_time": 132.3022727,
                "pitch": 69,
                "velocity": 80,
                "duration": 0.0704545,
                "tempo": 120.0
            },
            {
                "start_time": 132.3363636,
                "end_time": 132.4045455,
                "pitch": 69,
                "velocity": 80,
                "duration": 0.0681818,
                "tempo": 120.0
            },
            {
                "start_time": 132.4386364,
                "end_time": 132.5068182,
                "pitch": 71,
                "velocity": 80,
                "duration": 0.0681818,
                "tempo": 120.0
            },
            {
                "start_time": 132.5386364,
                "end_time": 132.6045455,
                "pitch": 72,
                "velocity": 80,
                "duration": 0.0659091,
                "tempo": 120.0
            },
            {
                "start_time": 132.6363636,
                "end_time": 132.7022727,
                "pitch": 69,
                "velocity": 80,
                "duration": 0.0659091,
                "tempo": 120.0
            },
            {
                "start_time": 132.7340909,
                "end_time": 132.8,
                "pitch": 69,
                "velocity": 80,
                "duration": 0.0659091,
                "tempo": 120.0
            },
            {
                "start_time": 132.8318182,
                "end_time": 132.8977273,
                "pitch": 71,
                "velocity": 80,
                "duration": 0.0659091,
                "tempo": 120.0
            },
            {
                "start_time": 132.9318182,
                "end_time": 133.0,
                "pitch": 0,
                "velocity": 80,
                "duration": 0.0681818,
                "tempo": 120.0
            },
            {
                "start_time": 133.0318182,
                "end_time": 133.2,
                "pitch": 72,
                "velocity": 80,
                "duration": 0.1681818,
                "tempo": 120.0
            },
            {
                "start_time": 133.2340909,
                "end_time": 133.3022727,
                "pitch": 69,
                "velocity": 80,
                "duration": 0.0681818,
                "tempo": 120.0
            },
            {
                "start_time": 133.3340909,
                "end_time": 133.4022727,
                "pitch": 71,
                "velocity": 80,
                "duration": 0.0681818,
                "tempo": 120.0
            },
            {
                "start_time": 133.4363636,
                "end_time": 133.5022727,
                "pitch": 0,
                "velocity": 80,
                "duration": 0.0659091,
                "tempo": 120.0
            },
            {
                "start_time": 133.5363636,
                "end_time": 133.6022727,
                "pitch": 72,
                "velocity": 80,
                "duration": 0.0659091,
                "tempo": 120.0
            },
            {
                "start_time": 133.6363636,
                "end_time": 133.7045455,
                "pitch": 69,
                "velocity": 80,
                "duration": 0.0681818,
                "tempo": 120.0
            },
            {
                "start_time": 133.7386364,
                "end_time": 133.8409091,
                "pitch": 69,
                "velocity": 80,
                "duration": 0.1022727,
                "tempo": 120.0
            },
            {
                "start_time": 133.875,
                "end_time": 133.9772727,
                "pitch": 71,
                "velocity": 80,
                "duration": 0.1022727,
                "tempo": 120.0
            },
            {
                "start_time": 134.0113636,
                "end_time": 134.1136364,
                "pitch": 72,
                "velocity": 80,
                "duration": 0.1022727,
                "tempo": 120.0
            },
            {
                "start_time": 134.1477273,
                "end_time": 134.2454545,
                "pitch": 74,
                "velocity": 80,
                "duration": 0.0977273,
                "tempo": 120.0
            },
            {
                "start_time": 134.2772727,
                "end_time": 134.375,
                "pitch": 76,
                "velocity": 80,
                "duration": 0.0977273,
                "tempo": 120.0
            },
            {
                "start_time": 134.4090909,
                "end_time": 134.5068182,
                "pitch": 76,
                "velocity": 80,
                "duration": 0.0977273,
                "tempo": 120.0
            },
            {
                "start_time": 134.5409091,
                "end_time": 134.6068182,
                "pitch": 0,
                "velocity": 80,
                "duration": 0.0659091,
                "tempo": 120.0
            },
            {
                "start_time": 134.6409091,
                "end_time": 134.7090909,
                "pitch": 76,
                "velocity": 80,
                "duration": 0.0681818,
                "tempo": 120.0
            },
            {
                "start_time": 134.7409091,
                "end_time": 134.8090909,
                "pitch": 0,
                "velocity": 80,
                "duration": 0.0681818,
                "tempo": 120.0
            },
            {
                "start_time": 134.8431818,
                "end_time": 134.9090909,
                "pitch": 76,
                "velocity": 80,
                "duration": 0.0659091,
                "tempo": 120.0
            },
            {
                "start_time": 134.9431818,
                "end_time": 135.0113636,
                "pitch": 69,
                "velocity": 80,
                "duration": 0.0681818,
                "tempo": 120.0
            },
            {
                "start_time": 135.0431818,
                "end_time": 135.2113636,
                "pitch": 74,
                "velocity": 80,
                "duration": 0.1681818,
                "tempo": 120.0
            },
            {
                "start_time": 135.2454545,
                "end_time": 135.3113636,
                "pitch": 69,
                "velocity": 80,
                "duration": 0.0659091,
                "tempo": 120.0
            },
            {
                "start_time": 135.3477273,
                "end_time": 135.4159091,
                "pitch": 72,
                "velocity": 80,
                "duration": 0.0681818,
                "tempo": 120.0
            },
            {
                "start_time": 135.45,
                "end_time": 135.6204545,
                "pitch": 67,
                "velocity": 80,
                "duration": 0.1704545,
                "tempo": 120.0
            },
            {
                "start_time": 135.6545455,
                "end_time": 135.7227273,
                "pitch": 69,
                "velocity": 80,
                "duration": 0.0681818,
                "tempo": 120.0
            },
            {
                "start_time": 135.7545455,
                "end_time": 135.7886364,
                "pitch": 72,
                "velocity": 80,
                "duration": 0.0340909,
                "tempo": 120.0
            },
            {
                "start_time": 135.8204545,
                "end_time": 135.8522727,
                "pitch": 73,
                "velocity": 80,
                "duration": 0.0318182,
                "tempo": 120.0
            },
            {
                "start_time": 135.8863636,
                "end_time": 135.9181818,
                "pitch": 74,
                "velocity": 80,
                "duration": 0.0318182,
                "tempo": 120.0
            },
            {
                "start_time": 135.9522727,
                "end_time": 136.0159091,
                "pitch": 74,
                "velocity": 80,
                "duration": 0.0636364,
                "tempo": 120.0
            },
            {
                "start_time": 136.05,
                "end_time": 136.1159091,
                "pitch": 74,
                "velocity": 80,
                "duration": 0.0659091,
                "tempo": 120.0
            },
            {
                "start_time": 136.1477273,
                "end_time": 136.1818182,
                "pitch": 0,
                "velocity": 80,
                "duration": 0.0340909,
                "tempo": 120.0
            },
            {
                "start_time": 136.2159091,
                "end_time": 136.2477273,
                "pitch": 72,
                "velocity": 80,
                "duration": 0.0318182,
                "tempo": 120.0
            },
            {
                "start_time": 136.2818182,
                "end_time": 136.3159091,
                "pitch": 71,
                "velocity": 80,
                "duration": 0.0340909,
                "tempo": 120.0
            },
            {
                "start_time": 136.3477273,
                "end_time": 136.3818182,
                "pitch": 69,
                "velocity": 80,
                "duration": 0.0340909,
                "tempo": 120.0
            },
            {
                "start_time": 136.4159091,
                "end_time": 136.4477273,
                "pitch": 0,
                "velocity": 80,
                "duration": 0.0318182,
                "tempo": 120.0
            },
            {
                "start_time": 136.4818182,
                "end_time": 136.5159091,
                "pitch": 72,
                "velocity": 80,
                "duration": 0.0340909,
                "tempo": 120.0
            },
            {
                "start_time": 136.5477273,
                "end_time": 136.5818182,
                "pitch": 71,
                "velocity": 80,
                "duration": 0.0340909,
                "tempo": 120.0
            },
            {
                "start_time": 136.6159091,
                "end_time": 136.65,
                "pitch": 69,
                "velocity": 80,
                "duration": 0.0340909,
                "tempo": 120.0
            },
            {
                "start_time": 136.6840909,
                "end_time": 136.7159091,
                "pitch": 0,
                "velocity": 80,
                "duration": 0.0318182,
                "tempo": 120.0
            },
            {
                "start_time": 136.75,
                "end_time": 136.7840909,
                "pitch": 72,
                "velocity": 80,
                "duration": 0.0340909,
                "tempo": 120.0
            },
            {
                "start_time": 136.8181818,
                "end_time": 136.85,
                "pitch": 71,
                "velocity": 80,
                "duration": 0.0318182,
                "tempo": 120.0
            },
            {
                "start_time": 136.8840909,
                "end_time": 136.9181818,
                "pitch": 69,
                "velocity": 80,
                "duration": 0.0340909,
                "tempo": 120.0
            },
            {
                "start_time": 136.9522727,
                "end_time": 137.0204545,
                "pitch": 0,
                "velocity": 80,
                "duration": 0.0681818,
                "tempo": 120.0
            },
            {
                "start_time": 137.0545455,
                "end_time": 137.2272727,
                "pitch": 71,
                "velocity": 80,
                "duration": 0.1727273,
                "tempo": 120.0
            },
            {
                "start_time": 137.2613636,
                "end_time": 137.3272727,
                "pitch": 69,
                "velocity": 80,
                "duration": 0.0659091,
                "tempo": 120.0
            },
            {
                "start_time": 137.3613636,
                "end_time": 137.3931818,
                "pitch": 67,
                "velocity": 80,
                "duration": 0.0318182,
                "tempo": 120.0
            },
            {
                "start_time": 137.4272727,
                "end_time": 137.4590909,
                "pitch": 67,
                "velocity": 80,
                "duration": 0.0318182,
                "tempo": 120.0
            },
            {
                "start_time": 137.4909091,
                "end_time": 137.525,
                "pitch": 67,
                "velocity": 80,
                "duration": 0.0340909,
                "tempo": 120.0
            },
            {
                "start_time": 137.5568182,
                "end_time": 137.6227273,
                "pitch": 69,
                "velocity": 80,
                "duration": 0.0659091,
                "tempo": 120.0
            },
            {
                "start_time": 137.6545455,
                "end_time": 137.7204545,
                "pitch": 69,
                "velocity": 80,
                "duration": 0.0659091,
                "tempo": 120.0
            },
            {
                "start_time": 137.7545455,
                "end_time": 137.7886364,
                "pitch": 69,
                "velocity": 80,
                "duration": 0.0340909,
                "tempo": 120.0
            },
            {
                "start_time": 137.8204545,
                "end_time": 137.8545455,
                "pitch": 69,
                "velocity": 80,
                "duration": 0.0340909,
                "tempo": 120.0
            },
            {
                "start_time": 137.8886364,
                "end_time": 137.9227273,
                "pitch": 69,
                "velocity": 80,
                "duration": 0.0340909,
                "tempo": 120.0
            },
            {
                "start_time": 137.9568182,
                "end_time": 137.9886364,
                "pitch": 69,
                "velocity": 80,
                "duration": 0.0318182,
                "tempo": 120.0
            },
            {
                "start_time": 138.0227273,
                "end_time": 138.0568182,
                "pitch": 69,
                "velocity": 80,
                "duration": 0.0340909,
                "tempo": 120.0
            },
            {
                "start_time": 138.0909091,
                "end_time": 138.1227273,
                "pitch": 69,
                "velocity": 80,
                "duration": 0.0318182,
                "tempo": 120.0
            },
            {
                "start_time": 138.1568182,
                "end_time": 138.2227273,
                "pitch": 69,
                "velocity": 80,
                "duration": 0.0659091,
                "tempo": 120.0
            },
            {
                "start_time": 138.2568182,
                "end_time": 138.3227273,
                "pitch": 69,
                "velocity": 80,
                "duration": 0.0659091,
                "tempo": 120.0
            },
            {
                "start_time": 138.3568182,
                "end_time": 138.4227273,
                "pitch": 69,
                "velocity": 80,
                "duration": 0.0659091,
                "tempo": 120.0
            },
            {
                "start_time": 138.4568182,
                "end_time": 138.5227273,
                "pitch": 69,
                "velocity": 80,
                "duration": 0.0659091,
                "tempo": 120.0
            },
            {
                "start_time": 138.5568182,
                "end_time": 138.6272727,
                "pitch": 69,
                "velocity": 80,
                "duration": 0.0704545,
                "tempo": 120.0
            },
            {
                "start_time": 138.6613636,
                "end_time": 138.7295455,
                "pitch": 67,
                "velocity": 80,
                "duration": 0.0681818,
                "tempo": 120.0
            },
            {
                "start_time": 138.7636364,
                "end_time": 138.8318182,
                "pitch": 66,
                "velocity": 80,
                "duration": 0.0681818,
                "tempo": 120.0
            },
            {
                "start_time": 138.8659091,
                "end_time": 138.9340909,
                "pitch": 64,
                "velocity": 80,
                "duration": 0.0681818,
                "tempo": 120.0
            },
            {
                "start_time": 138.9659091,
                "end_time": 139.0318182,
                "pitch": 67,
                "velocity": 80,
                "duration": 0.0659091,
                "tempo": 120.0
            },
            {
                "start_time": 139.0636364,
                "end_time": 139.1295455,
                "pitch": 66,
                "velocity": 80,
                "duration": 0.0659091,
                "tempo": 120.0
            },
            {
                "start_time": 139.1636364,
                "end_time": 139.2272727,
                "pitch": 67,
                "velocity": 80,
                "duration": 0.0636364,
                "tempo": 120.0
            },
            {
                "start_time": 139.2613636,
                "end_time": 139.3272727,
                "pitch": 64,
                "velocity": 80,
                "duration": 0.0659091,
                "tempo": 120.0
            },
            {
                "start_time": 139.3590909,
                "end_time": 139.4272727,
                "pitch": 0,
                "velocity": 80,
                "duration": 0.0681818,
                "tempo": 120.0
            },
            {
                "start_time": 139.4613636,
                "end_time": 139.5272727,
                "pitch": 62,
                "velocity": 80,
                "duration": 0.0659091,
                "tempo": 120.0
            },
            {
                "start_time": 139.5613636,
                "end_time": 139.6272727,
                "pitch": 0,
                "velocity": 80,
                "duration": 0.0659091,
                "tempo": 120.0
            },
            {
                "start_time": 139.6613636,
                "end_time": 139.7295455,
                "pitch": 62,
                "velocity": 80,
                "duration": 0.0681818,
                "tempo": 120.0
            },
            {
                "start_time": 139.7636364,
                "end_time": 139.8295455,
                "pitch": 62,
                "velocity": 80,
                "duration": 0.0659091,
                "tempo": 120.0
            },
            {
                "start_time": 139.8636364,
                "end_time": 139.9295455,
                "pitch": 60,
                "velocity": 80,
                "duration": 0.0659091,
                "tempo": 120.0
            },
            {
                "start_time": 139.9636364,
                "end_time": 140.0318182,
                "pitch": 0,
                "velocity": 80,
                "duration": 0.0681818,
                "tempo": 120.0
            },
            {
                "start_time": 140.0636364,
                "end_time": 140.1318182,
                "pitch": 60,
                "velocity": 80,
                "duration": 0.0681818,
                "tempo": 120.0
            },
            {
                "start_time": 140.1659091,
                "end_time": 140.2659091,
                "pitch": 60,
                "velocity": 80,
                "duration": 0.1,
                "tempo": 120.0
            },
            {
                "start_time": 140.2977273,
                "end_time": 140.3977273,
                "pitch": 59,
                "velocity": 80,
                "duration": 0.1,
                "tempo": 120.0
            },
            {
                "start_time": 140.4318182,
                "end_time": 140.5318182,
                "pitch": 57,
                "velocity": 80,
                "duration": 0.1,
                "tempo": 120.0
            },
            {
                "start_time": 140.5659091,
                "end_time": 140.6659091,
                "pitch": 55,
                "velocity": 80,
                "duration": 0.1,
                "tempo": 120.0
            },
            {
                "start_time": 140.7,
                "end_time": 140.8,
                "pitch": 55,
                "velocity": 80,
                "duration": 0.1,
                "tempo": 120.0
            },
            {
                "start_time": 140.8340909,
                "end_time": 140.9340909,
                "pitch": 52,
                "velocity": 80,
                "duration": 0.1,
                "tempo": 120.0
            },
            {
                "start_time": 140.9681818,
                "end_time": 141.0340909,
                "pitch": 0,
                "velocity": 80,
                "duration": 0.0659091,
                "tempo": 120.0
            },
            {
                "start_time": 141.0681818,
                "end_time": 141.1363636,
                "pitch": 57,
                "velocity": 80,
                "duration": 0.0681818,
                "tempo": 120.0
            },
            {
                "start_time": 141.1704545,
                "end_time": 141.2363636,
                "pitch": 0,
                "velocity": 80,
                "duration": 0.0659091,
                "tempo": 120.0
            },
            {
                "start_time": 141.2704545,
                "end_time": 141.3363636,
                "pitch": 59,
                "velocity": 80,
                "duration": 0.0659091,
                "tempo": 120.0
            },
            {
                "start_time": 141.3704545,
                "end_time": 141.4386364,
                "pitch": 0,
                "velocity": 80,
                "duration": 0.0681818,
                "tempo": 120.0
            },
            {
                "start_time": 141.4704545,
                "end_time": 141.5386364,
                "pitch": 57,
                "velocity": 80,
                "duration": 0.0681818,
                "tempo": 120.0
            },
            {
                "start_time": 141.5727273,
                "end_time": 141.6386364,
                "pitch": 52,
                "velocity": 80,
                "duration": 0.0659091,
                "tempo": 120.0
            },
            {
                "start_time": 141.6727273,
                "end_time": 141.7409091,
                "pitch": 59,
                "velocity": 80,
                "duration": 0.0681818,
                "tempo": 120.0
            },
            {
                "start_time": 141.775,
                "end_time": 141.8431818,
                "pitch": 57,
                "velocity": 80,
                "duration": 0.0681818,
                "tempo": 120.0
            },
            {
                "start_time": 141.8772727,
                "end_time": 142.0477273,
                "pitch": 52,
                "velocity": 80,
                "duration": 0.1704545,
                "tempo": 120.0
            },
            {
                "start_time": 142.0818182,
                "end_time": 142.15,
                "pitch": 55,
                "velocity": 80,
                "duration": 0.0681818,
                "tempo": 120.0
            },
            {
                "start_time": 142.1818182,
                "end_time": 142.2477273,
                "pitch": 57,
                "velocity": 80,
                "duration": 0.0659091,
                "tempo": 120.0
            },
            {
                "start_time": 142.2818182,
                "end_time": 142.3454545,
                "pitch": 59,
                "velocity": 80,
                "duration": 0.0636364,
                "tempo": 120.0
            },
            {
                "start_time": 142.3795455,
                "end_time": 142.4431818,
                "pitch": 57,
                "velocity": 80,
                "duration": 0.0636364,
                "tempo": 120.0
            },
            {
                "start_time": 142.4772727,
                "end_time": 142.5431818,
                "pitch": 60,
                "velocity": 80,
                "duration": 0.0659091,
                "tempo": 120.0
            },
            {
                "start_time": 142.5772727,
                "end_time": 142.6431818,
                "pitch": 0,
                "velocity": 80,
                "duration": 0.0659091,
                "tempo": 120.0
            },
            {
                "start_time": 142.6772727,
                "end_time": 142.8454545,
                "pitch": 62,
                "velocity": 80,
                "duration": 0.1681818,
                "tempo": 120.0
            },
            {
                "start_time": 142.8772727,
                "end_time": 143.0454545,
                "pitch": 57,
                "velocity": 80,
                "duration": 0.1681818,
                "tempo": 120.0
            },
            {
                "start_time": 143.0795455,
                "end_time": 143.1477273,
                "pitch": 60,
                "velocity": 80,
                "duration": 0.0681818,
                "tempo": 120.0
            },
            {
                "start_time": 143.1795455,
                "end_time": 143.2477273,
                "pitch": 62,
                "velocity": 80,
                "duration": 0.0681818,
                "tempo": 120.0
            },
            {
                "start_time": 143.2818182,
                "end_time": 143.4159091,
                "pitch": 0,
                "velocity": 80,
                "duration": 0.1340909,
                "tempo": 120.0
            },
            {
                "start_time": 143.4477273,
                "end_time": 143.4818182,
                "pitch": 65,
                "velocity": 80,
                "duration": 0.0340909,
                "tempo": 120.0
            },
            {
                "start_time": 143.5159091,
                "end_time": 143.55,
                "pitch": 0,
                "velocity": 80,
                "duration": 0.0340909,
                "tempo": 120.0
            },
            {
                "start_time": 143.5840909,
                "end_time": 143.6159091,
                "pitch": 65,
                "velocity": 80,
                "duration": 0.0318182,
                "tempo": 120.0
            },
            {
                "start_time": 143.65,
                "end_time": 143.75,
                "pitch": 0,
                "velocity": 80,
                "duration": 0.1,
                "tempo": 120.0
            },
            {
                "start_time": 143.7840909,
                "end_time": 143.8522727,
                "pitch": 62,
                "velocity": 80,
                "duration": 0.0681818,
                "tempo": 120.0
            },
            {
                "start_time": 143.8840909,
                "end_time": 143.9522727,
                "pitch": 63,
                "velocity": 80,
                "duration": 0.0681818,
                "tempo": 120.0
            },
            {
                "start_time": 143.9863636,
                "end_time": 144.0522727,
                "pitch": 64,
                "velocity": 80,
                "duration": 0.0659091,
                "tempo": 120.0
            },
            {
                "start_time": 144.0863636,
                "end_time": 144.1522727,
                "pitch": 67,
                "velocity": 80,
                "duration": 0.0659091,
                "tempo": 120.0
            },
            {
                "start_time": 144.1863636,
                "end_time": 144.3522727,
                "pitch": 0,
                "velocity": 80,
                "duration": 0.1659091,
                "tempo": 120.0
            },
            {
                "start_time": 144.3863636,
                "end_time": 144.4522727,
                "pitch": 69,
                "velocity": 80,
                "duration": 0.0659091,
                "tempo": 120.0
            },
            {
                "start_time": 144.4863636,
                "end_time": 144.5545455,
                "pitch": 69,
                "velocity": 80,
                "duration": 0.0681818,
                "tempo": 120.0
            },
            {
                "start_time": 144.5863636,
                "end_time": 144.6545455,
                "pitch": 0,
                "velocity": 80,
                "duration": 0.0681818,
                "tempo": 120.0
            },
            {
                "start_time": 144.6886364,
                "end_time": 144.7545455,
                "pitch": 69,
                "velocity": 80,
                "duration": 0.0659091,
                "tempo": 120.0
            },
            {
                "start_time": 144.7886364,
                "end_time": 144.8545455,
                "pitch": 69,
                "velocity": 80,
                "duration": 0.0659091,
                "tempo": 120.0
            },
            {
                "start_time": 144.8886364,
                "end_time": 144.9568182,
                "pitch": 69,
                "velocity": 80,
                "duration": 0.0681818,
                "tempo": 120.0
            },
            {
                "start_time": 144.9909091,
                "end_time": 145.025,
                "pitch": 69,
                "velocity": 80,
                "duration": 0.0340909,
                "tempo": 120.0
            },
            {
                "start_time": 145.0931818,
                "end_time": 145.1613636,
                "pitch": 71,
                "velocity": 80,
                "duration": 0.0681818,
                "tempo": 120.0
            },
            {
                "start_time": 145.1954545,
                "end_time": 145.3659091,
                "pitch": 72,
                "velocity": 80,
                "duration": 0.1704545,
                "tempo": 120.0
            },
            {
                "start_time": 145.4,
                "end_time": 145.4636364,
                "pitch": 72,
                "velocity": 80,
                "duration": 0.0636364,
                "tempo": 120.0
            },
            {
                "start_time": 145.4977273,
                "end_time": 145.5636364,
                "pitch": 69,
                "velocity": 80,
                "duration": 0.0659091,
                "tempo": 120.0
            },
            {
                "start_time": 145.5954545,
                "end_time": 145.6613636,
                "pitch": 71,
                "velocity": 80,
                "duration": 0.0659091,
                "tempo": 120.0
            },
            {
                "start_time": 145.6931818,
                "end_time": 145.7590909,
                "pitch": 72,
                "velocity": 80,
                "duration": 0.0659091,
                "tempo": 120.0
            },
            {
                "start_time": 145.7931818,
                "end_time": 145.8590909,
                "pitch": 0,
                "velocity": 80,
                "duration": 0.0659091,
                "tempo": 120.0
            },
            {
                "start_time": 145.8931818,
                "end_time": 145.9613636,
                "pitch": 69,
                "velocity": 80,
                "duration": 0.0681818,
                "tempo": 120.0
            },
            {
                "start_time": 145.9931818,
                "end_time": 146.0613636,
                "pitch": 71,
                "velocity": 80,
                "duration": 0.0681818,
                "tempo": 120.0
            },
            {
                "start_time": 146.0954545,
                "end_time": 146.1613636,
                "pitch": 72,
                "velocity": 80,
                "duration": 0.0659091,
                "tempo": 120.0
            },
            {
                "start_time": 146.1954545,
                "end_time": 146.2613636,
                "pitch": 69,
                "velocity": 80,
                "duration": 0.0659091,
                "tempo": 120.0
            },
            {
                "start_time": 146.2954545,
                "end_time": 146.3613636,
                "pitch": 71,
                "velocity": 80,
                "duration": 0.0659091,
                "tempo": 120.0
            },
            {
                "start_time": 146.3954545,
                "end_time": 146.4613636,
                "pitch": 72,
                "velocity": 80,
                "duration": 0.0659091,
                "tempo": 120.0
            },
            {
                "start_time": 146.4954545,
                "end_time": 146.5613636,
                "pitch": 69,
                "velocity": 80,
                "duration": 0.0659091,
                "tempo": 120.0
            },
            {
                "start_time": 146.5954545,
                "end_time": 146.6636364,
                "pitch": 71,
                "velocity": 80,
                "duration": 0.0681818,
                "tempo": 120.0
            },
            {
                "start_time": 146.6977273,
                "end_time": 146.7681818,
                "pitch": 72,
                "velocity": 80,
                "duration": 0.0704545,
                "tempo": 120.0
            },
            {
                "start_time": 146.8022727,
                "end_time": 146.8704545,
                "pitch": 69,
                "velocity": 80,
                "duration": 0.0681818,
                "tempo": 120.0
            },
            {
                "start_time": 146.9045455,
                "end_time": 146.9727273,
                "pitch": 71,
                "velocity": 80,
                "duration": 0.0681818,
                "tempo": 120.0
            },
            {
                "start_time": 147.0045455,
                "end_time": 147.0704545,
                "pitch": 72,
                "velocity": 80,
                "duration": 0.0659091,
                "tempo": 120.0
            },
            {
                "start_time": 147.1022727,
                "end_time": 147.1681818,
                "pitch": 69,
                "velocity": 80,
                "duration": 0.0659091,
                "tempo": 120.0
            },
            {
                "start_time": 147.2,
                "end_time": 147.2659091,
                "pitch": 74,
                "velocity": 80,
                "duration": 0.0659091,
                "tempo": 120.0
            },
            {
                "start_time": 147.2977273,
                "end_time": 147.3636364,
                "pitch": 74,
                "velocity": 80,
                "duration": 0.0659091,
                "tempo": 120.0
            },
            {
                "start_time": 147.3977273,
                "end_time": 147.4659091,
                "pitch": 74,
                "velocity": 80,
                "duration": 0.0681818,
                "tempo": 120.0
            },
            {
                "start_time": 147.4977273,
                "end_time": 147.5659091,
                "pitch": 69,
                "velocity": 80,
                "duration": 0.0681818,
                "tempo": 120.0
            },
            {
                "start_time": 147.6,
                "end_time": 147.6659091,
                "pitch": 69,
                "velocity": 80,
                "duration": 0.0659091,
                "tempo": 120.0
            },
            {
                "start_time": 147.7,
                "end_time": 147.7681818,
                "pitch": 74,
                "velocity": 80,
                "duration": 0.0681818,
                "tempo": 120.0
            },
            {
                "start_time": 147.8,
                "end_time": 147.8681818,
                "pitch": 74,
                "velocity": 80,
                "duration": 0.0681818,
                "tempo": 120.0
            },
            {
                "start_time": 147.9022727,
                "end_time": 147.9681818,
                "pitch": 69,
                "velocity": 80,
                "duration": 0.0659091,
                "tempo": 120.0
            },
            {
                "start_time": 148.0022727,
                "end_time": 148.0681818,
                "pitch": 76,
                "velocity": 80,
                "duration": 0.0659091,
                "tempo": 120.0
            },
            {
                "start_time": 148.1022727,
                "end_time": 148.1704545,
                "pitch": 76,
                "velocity": 80,
                "duration": 0.0681818,
                "tempo": 120.0
            },
            {
                "start_time": 148.2045455,
                "end_time": 148.2727273,
                "pitch": 76,
                "velocity": 80,
                "duration": 0.0681818,
                "tempo": 120.0
            },
            {
                "start_time": 148.3068182,
                "end_time": 148.375,
                "pitch": 69,
                "velocity": 80,
                "duration": 0.0681818,
                "tempo": 120.0
            },
            {
                "start_time": 148.4090909,
                "end_time": 148.4772727,
                "pitch": 69,
                "velocity": 80,
                "duration": 0.0681818,
                "tempo": 120.0
            },
            {
                "start_time": 148.5136364,
                "end_time": 148.5795455,
                "pitch": 78,
                "velocity": 80,
                "duration": 0.0659091,
                "tempo": 120.0
            },
            {
                "start_time": 148.6136364,
                "end_time": 148.6772727,
                "pitch": 78,
                "velocity": 80,
                "duration": 0.0636364,
                "tempo": 120.0
            },
            {
                "start_time": 148.7113636,
                "end_time": 148.7772727,
                "pitch": 69,
                "velocity": 80,
                "duration": 0.0659091,
                "tempo": 120.0
            },
            {
                "start_time": 148.8090909,
                "end_time": 148.875,
                "pitch": 69,
                "velocity": 80,
                "duration": 0.0659091,
                "tempo": 120.0
            },
            {
                "start_time": 148.9068182,
                "end_time": 148.9727273,
                "pitch": 69,
                "velocity": 80,
                "duration": 0.0659091,
                "tempo": 120.0
            },
            {
                "start_time": 149.0068182,
                "end_time": 149.0727273,
                "pitch": 0,
                "velocity": 80,
                "duration": 0.0659091,
                "tempo": 120.0
            },
            {
                "start_time": 149.1068182,
                "end_time": 149.175,
                "pitch": 79,
                "velocity": 80,
                "duration": 0.0681818,
                "tempo": 120.0
            },
            {
                "start_time": 149.2068182,
                "end_time": 149.275,
                "pitch": 79,
                "velocity": 80,
                "duration": 0.0681818,
                "tempo": 120.0
            },
            {
                "start_time": 149.3090909,
                "end_time": 149.375,
                "pitch": 69,
                "velocity": 80,
                "duration": 0.0659091,
                "tempo": 120.0
            },
            {
                "start_time": 149.4090909,
                "end_time": 149.4772727,
                "pitch": 69,
                "velocity": 80,
                "duration": 0.0681818,
                "tempo": 120.0
            },
            {
                "start_time": 149.5090909,
                "end_time": 149.5772727,
                "pitch": 0,
                "velocity": 80,
                "duration": 0.0681818,
                "tempo": 120.0
            },
            {
                "start_time": 149.6113636,
                "end_time": 149.6772727,
                "pitch": 81,
                "velocity": 80,
                "duration": 0.0659091,
                "tempo": 120.0
            },
            {
                "start_time": 149.7113636,
                "end_time": 149.7772727,
                "pitch": 81,
                "velocity": 80,
                "duration": 0.0659091,
                "tempo": 120.0
            },
            {
                "start_time": 149.8136364,
                "end_time": 149.8818182,
                "pitch": 0,
                "velocity": 80,
                "duration": 0.0681818,
                "tempo": 120.0
            },
            {
                "start_time": 149.9159091,
                "end_time": 149.9840909,
                "pitch": 79,
                "velocity": 80,
                "duration": 0.0681818,
                "tempo": 120.0
            },
            {
                "start_time": 150.0181818,
                "end_time": 150.0863636,
                "pitch": 79,
                "velocity": 80,
                "duration": 0.0681818,
                "tempo": 120.0
            },
            {
                "start_time": 150.1204545,
                "end_time": 150.1886364,
                "pitch": 79,
                "velocity": 80,
                "duration": 0.0681818,
                "tempo": 120.0
            },
            {
                "start_time": 150.2204545,
                "end_time": 150.2545455,
                "pitch": 79,
                "velocity": 80,
                "duration": 0.0340909,
                "tempo": 120.0
            },
            {
                "start_time": 150.2863636,
                "end_time": 150.3181818,
                "pitch": 79,
                "velocity": 80,
                "duration": 0.0318182,
                "tempo": 120.0
            },
            {
                "start_time": 150.3522727,
                "end_time": 150.3840909,
                "pitch": 80,
                "velocity": 80,
                "duration": 0.0318182,
                "tempo": 120.0
            },
            {
                "start_time": 150.4181818,
                "end_time": 150.45,
                "pitch": 81,
                "velocity": 80,
                "duration": 0.0318182,
                "tempo": 120.0
            },
            {
                "start_time": 150.4818182,
                "end_time": 150.5159091,
                "pitch": 81,
                "velocity": 80,
                "duration": 0.0340909,
                "tempo": 120.0
            },
            {
                "start_time": 150.5477273,
                "end_time": 150.5818182,
                "pitch": 83,
                "velocity": 80,
                "duration": 0.0340909,
                "tempo": 120.0
            },
            {
                "start_time": 150.6136364,
                "end_time": 150.6818182,
                "pitch": 81,
                "velocity": 80,
                "duration": 0.0681818,
                "tempo": 120.0
            },
            {
                "start_time": 150.7159091,
                "end_time": 150.7818182,
                "pitch": 81,
                "velocity": 80,
                "duration": 0.0659091,
                "tempo": 120.0
            },
            {
                "start_time": 150.8159091,
                "end_time": 150.8840909,
                "pitch": 76,
                "velocity": 80,
                "duration": 0.0681818,
                "tempo": 120.0
            },
            {
                "start_time": 150.9159091,
                "end_time": 150.9840909,
                "pitch": 79,
                "velocity": 80,
                "duration": 0.0681818,
                "tempo": 120.0
            },
            {
                "start_time": 151.0181818,
                "end_time": 151.0840909,
                "pitch": 81,
                "velocity": 80,
                "duration": 0.0659091,
                "tempo": 120.0
            },
            {
                "start_time": 151.1181818,
                "end_time": 151.1840909,
                "pitch": 76,
                "velocity": 80,
                "duration": 0.0659091,
                "tempo": 120.0
            },
            {
                "start_time": 151.2181818,
                "end_time": 151.2863636,
                "pitch": 79,
                "velocity": 80,
                "duration": 0.0681818,
                "tempo": 120.0
            },
            {
                "start_time": 151.3204545,
                "end_time": 151.3863636,
                "pitch": 81,
                "velocity": 80,
                "duration": 0.0659091,
                "tempo": 120.0
            },
            {
                "start_time": 151.4204545,
                "end_time": 151.4886364,
                "pitch": 76,
                "velocity": 80,
                "duration": 0.0681818,
                "tempo": 120.0
            },
            {
                "start_time": 151.5227273,
                "end_time": 151.5931818,
                "pitch": 79,
                "velocity": 80,
                "duration": 0.0704545,
                "tempo": 120.0
            },
            {
                "start_time": 151.6272727,
                "end_time": 151.6954545,
                "pitch": 81,
                "velocity": 80,
                "duration": 0.0681818,
                "tempo": 120.0
            },
            {
                "start_time": 151.7295455,
                "end_time": 151.7977273,
                "pitch": 83,
                "velocity": 80,
                "duration": 0.0681818,
                "tempo": 120.0
            },
            {
                "start_time": 151.8295455,
                "end_time": 151.8954545,
                "pitch": 0,
                "velocity": 80,
                "duration": 0.0659091,
                "tempo": 120.0
            },
            {
                "start_time": 151.9272727,
                "end_time": 151.9931818,
                "pitch": 84,
                "velocity": 80,
                "duration": 0.0659091,
                "tempo": 120.0
            },
            {
                "start_time": 152.025,
                "end_time": 152.0909091,
                "pitch": 0,
                "velocity": 80,
                "duration": 0.0659091,
                "tempo": 120.0
            },
            {
                "start_time": 152.1227273,
                "end_time": 152.1886364,
                "pitch": 83,
                "velocity": 80,
                "duration": 0.0659091,
                "tempo": 120.0
            },
            {
                "start_time": 152.2227273,
                "end_time": 152.2886364,
                "pitch": 0,
                "velocity": 80,
                "duration": 0.0659091,
                "tempo": 120.0
            },
            {
                "start_time": 152.3227273,
                "end_time": 152.3886364,
                "pitch": 81,
                "velocity": 80,
                "duration": 0.0659091,
                "tempo": 120.0
            },
            {
                "start_time": 152.4227273,
                "end_time": 152.4886364,
                "pitch": 0,
                "velocity": 80,
                "duration": 0.0659091,
                "tempo": 120.0
            },
            {
                "start_time": 152.5227273,
                "end_time": 152.5886364,
                "pitch": 79,
                "velocity": 80,
                "duration": 0.0659091,
                "tempo": 120.0
            },
            {
                "start_time": 152.6227273,
                "end_time": 152.6909091,
                "pitch": 0,
                "velocity": 80,
                "duration": 0.0681818,
                "tempo": 120.0
            },
            {
                "start_time": 152.7227273,
                "end_time": 152.7909091,
                "pitch": 78,
                "velocity": 80,
                "duration": 0.0681818,
                "tempo": 120.0
            },
            {
                "start_time": 152.825,
                "end_time": 152.8909091,
                "pitch": 0,
                "velocity": 80,
                "duration": 0.0659091,
                "tempo": 120.0
            },
            {
                "start_time": 152.925,
                "end_time": 152.9931818,
                "pitch": 76,
                "velocity": 80,
                "duration": 0.0681818,
                "tempo": 120.0
            },
            {
                "start_time": 153.025,
                "end_time": 153.0931818,
                "pitch": 0,
                "velocity": 80,
                "duration": 0.0681818,
                "tempo": 120.0
            },
            {
                "start_time": 153.1272727,
                "end_time": 153.1931818,
                "pitch": 74,
                "velocity": 80,
                "duration": 0.0659091,
                "tempo": 120.0
            },
            {
                "start_time": 153.2272727,
                "end_time": 153.2931818,
                "pitch": 0,
                "velocity": 80,
                "duration": 0.0659091,
                "tempo": 120.0
            },
            {
                "start_time": 153.3272727,
                "end_time": 153.3954545,
                "pitch": 72,
                "velocity": 80,
                "duration": 0.0681818,
                "tempo": 120.0
            },
            {
                "start_time": 153.4272727,
                "end_time": 153.4954545,
                "pitch": 0,
                "velocity": 80,
                "duration": 0.0681818,
                "tempo": 120.0
            },
            {
                "start_time": 153.5295455,
                "end_time": 153.5954545,
                "pitch": 71,
                "velocity": 80,
                "duration": 0.0659091,
                "tempo": 120.0
            },
            {
                "start_time": 153.6295455,
                "end_time": 153.6977273,
                "pitch": 0,
                "velocity": 80,
                "duration": 0.0681818,
                "tempo": 120.0
            },
            {
                "start_time": 153.7295455,
                "end_time": 153.7977273,
                "pitch": 69,
                "velocity": 80,
                "duration": 0.0681818,
                "tempo": 120.0
            },
            {
                "start_time": 153.8318182,
                "end_time": 154.2,
                "pitch": 67,
                "velocity": 80,
                "duration": 0.3681818,
                "tempo": 120.0
            },
            {
                "start_time": 154.2340909,
                "end_time": 154.5,
                "pitch": 69,
                "velocity": 80,
                "duration": 0.2659091,
                "tempo": 120.0
            },
            {
                "start_time": 154.5340909,
                "end_time": 154.7022727,
                "pitch": 72,
                "velocity": 80,
                "duration": 0.1681818,
                "tempo": 120.0
            },
            {
                "start_time": 154.7363636,
                "end_time": 154.8068182,
                "pitch": 71,
                "velocity": 80,
                "duration": 0.0704545,
                "tempo": 120.0
            },
            {
                "start_time": 154.8409091,
                "end_time": 155.0113636,
                "pitch": 67,
                "velocity": 80,
                "duration": 0.1704545,
                "tempo": 120.0
            },
            {
                "start_time": 155.0431818,
                "end_time": 155.2068182,
                "pitch": 69,
                "velocity": 80,
                "duration": 0.1636364,
                "tempo": 120.0
            },
            {
                "start_time": 155.2386364,
                "end_time": 155.4022727,
                "pitch": 0,
                "velocity": 80,
                "duration": 0.1636364,
                "tempo": 120.0
            },
            {
                "start_time": 155.4363636,
                "end_time": 155.8068182,
                "pitch": 69,
                "velocity": 80,
                "duration": 0.3704545,
                "tempo": 120.0
            },
            {
                "start_time": 155.8386364,
                "end_time": 156.1068182,
                "pitch": 71,
                "velocity": 80,
                "duration": 0.2681818,
                "tempo": 120.0
            },
            {
                "start_time": 156.1409091,
                "end_time": 156.3113636,
                "pitch": 72,
                "velocity": 80,
                "duration": 0.1704545,
                "tempo": 120.0
            },
            {
                "start_time": 156.3454545,
                "end_time": 156.4136364,
                "pitch": 71,
                "velocity": 80,
                "duration": 0.0681818,
                "tempo": 120.0
            },
            {
                "start_time": 156.4477273,
                "end_time": 156.6181818,
                "pitch": 69,
                "velocity": 80,
                "duration": 0.1704545,
                "tempo": 120.0
            },
            {
                "start_time": 156.6522727,
                "end_time": 156.8136364,
                "pitch": 71,
                "velocity": 80,
                "duration": 0.1613636,
                "tempo": 120.0
            },
            {
                "start_time": 156.8477273,
                "end_time": 156.9136364,
                "pitch": 67,
                "velocity": 80,
                "duration": 0.0659091,
                "tempo": 120.0
            },
            {
                "start_time": 156.9454545,
                "end_time": 157.0113636,
                "pitch": 69,
                "velocity": 80,
                "duration": 0.0659091,
                "tempo": 120.0
            },
            {
                "start_time": 157.0454545,
                "end_time": 157.4136364,
                "pitch": 69,
                "velocity": 80,
                "duration": 0.3681818,
                "tempo": 120.0
            },
            {
                "start_time": 157.4477273,
                "end_time": 157.7159091,
                "pitch": 71,
                "velocity": 80,
                "duration": 0.2681818,
                "tempo": 120.0
            },
            {
                "start_time": 157.75,
                "end_time": 157.9204545,
                "pitch": 72,
                "velocity": 80,
                "duration": 0.1704545,
                "tempo": 120.0
            },
            {
                "start_time": 157.9545455,
                "end_time": 158.0227273,
                "pitch": 67,
                "velocity": 80,
                "duration": 0.0681818,
                "tempo": 120.0
            },
            {
                "start_time": 158.0568182,
                "end_time": 158.2272727,
                "pitch": 67,
                "velocity": 80,
                "duration": 0.1704545,
                "tempo": 120.0
            },
            {
                "start_time": 158.2590909,
                "end_time": 158.5204545,
                "pitch": 69,
                "velocity": 80,
                "duration": 0.2613636,
                "tempo": 120.0
            },
            {
                "start_time": 158.5545455,
                "end_time": 158.6204545,
                "pitch": 74,
                "velocity": 80,
                "duration": 0.0659091,
                "tempo": 120.0
            },
            {
                "start_time": 158.6522727,
                "end_time": 158.7204545,
                "pitch": 0,
                "velocity": 80,
                "duration": 0.0681818,
                "tempo": 120.0
            },
            {
                "start_time": 158.7545455,
                "end_time": 158.8204545,
                "pitch": 74,
                "velocity": 80,
                "duration": 0.0659091,
                "tempo": 120.0
            },
            {
                "start_time": 158.8545455,
                "end_time": 158.9204545,
                "pitch": 72,
                "velocity": 80,
                "duration": 0.0659091,
                "tempo": 120.0
            },
            {
                "start_time": 158.9545455,
                "end_time": 159.0227273,
                "pitch": 69,
                "velocity": 80,
                "duration": 0.0681818,
                "tempo": 120.0
            },
            {
                "start_time": 159.0568182,
                "end_time": 159.1227273,
                "pitch": 0,
                "velocity": 80,
                "duration": 0.0659091,
                "tempo": 120.0
            },
            {
                "start_time": 159.1568182,
                "end_time": 159.2227273,
                "pitch": 76,
                "velocity": 80,
                "duration": 0.0659091,
                "tempo": 120.0
            },
            {
                "start_time": 159.2568182,
                "end_time": 159.325,
                "pitch": 74,
                "velocity": 80,
                "duration": 0.0681818,
                "tempo": 120.0
            },
            {
                "start_time": 159.3568182,
                "end_time": 159.425,
                "pitch": 69,
                "velocity": 80,
                "duration": 0.0681818,
                "tempo": 120.0
            },
            {
                "start_time": 159.4590909,
                "end_time": 159.525,
                "pitch": 0,
                "velocity": 80,
                "duration": 0.0659091,
                "tempo": 120.0
            },
            {
                "start_time": 159.5590909,
                "end_time": 159.6272727,
                "pitch": 78,
                "velocity": 80,
                "duration": 0.0681818,
                "tempo": 120.0
            },
            {
                "start_time": 159.6590909,
                "end_time": 159.7272727,
                "pitch": 76,
                "velocity": 80,
                "duration": 0.0681818,
                "tempo": 120.0
            },
            {
                "start_time": 159.7613636,
                "end_time": 159.8272727,
                "pitch": 74,
                "velocity": 80,
                "duration": 0.0659091,
                "tempo": 120.0
            },
            {
                "start_time": 159.8613636,
                "end_time": 159.9272727,
                "pitch": 0,
                "velocity": 80,
                "duration": 0.0659091,
                "tempo": 120.0
            },
            {
                "start_time": 159.9613636,
                "end_time": 160.0295455,
                "pitch": 74,
                "velocity": 80,
                "duration": 0.0681818,
                "tempo": 120.0
            },
            {
                "start_time": 160.0636364,
                "end_time": 160.1295455,
                "pitch": 75,
                "velocity": 80,
                "duration": 0.0659091,
                "tempo": 120.0
            },
            {
                "start_time": 160.1636364,
                "end_time": 160.2295455,
                "pitch": 76,
                "velocity": 80,
                "duration": 0.0659091,
                "tempo": 120.0
            },
            {
                "start_time": 160.2636364,
                "end_time": 160.2977273,
                "pitch": 74,
                "velocity": 80,
                "duration": 0.0340909,
                "tempo": 120.0
            },
            {
                "start_time": 160.3295455,
                "end_time": 160.3636364,
                "pitch": 75,
                "velocity": 80,
                "duration": 0.0340909,
                "tempo": 120.0
            },
            {
                "start_time": 160.3977273,
                "end_time": 160.4295455,
                "pitch": 76,
                "velocity": 80,
                "duration": 0.0318182,
                "tempo": 120.0
            },
            {
                "start_time": 160.4636364,
                "end_time": 160.5295455,
                "pitch": 76,
                "velocity": 80,
                "duration": 0.0659091,
                "tempo": 120.0
            },
            {
                "start_time": 160.5636364,
                "end_time": 160.6295455,
                "pitch": 76,
                "velocity": 80,
                "duration": 0.0659091,
                "tempo": 120.0
            },
            {
                "start_time": 160.6636364,
                "end_time": 160.6977273,
                "pitch": 74,
                "velocity": 80,
                "duration": 0.0340909,
                "tempo": 120.0
            },
            {
                "start_time": 160.7318182,
                "end_time": 160.7636364,
                "pitch": 75,
                "velocity": 80,
                "duration": 0.0318182,
                "tempo": 120.0
            },
            {
                "start_time": 160.7977273,
                "end_time": 160.8318182,
                "pitch": 76,
                "velocity": 80,
                "duration": 0.0340909,
                "tempo": 120.0
            },
            {
                "start_time": 160.8659091,
                "end_time": 160.9318182,
                "pitch": 76,
                "velocity": 80,
                "duration": 0.0659091,
                "tempo": 120.0
            },
            {
                "start_time": 160.9659091,
                "end_time": 161.0340909,
                "pitch": 76,
                "velocity": 80,
                "duration": 0.0681818,
                "tempo": 120.0
            },
            {
                "start_time": 161.0681818,
                "end_time": 161.1022727,
                "pitch": 74,
                "velocity": 80,
                "duration": 0.0340909,
                "tempo": 120.0
            },
            {
                "start_time": 161.1363636,
                "end_time": 161.1704545,
                "pitch": 75,
                "velocity": 80,
                "duration": 0.0340909,
                "tempo": 120.0
            },
            {
                "start_time": 161.2045455,
                "end_time": 161.2386364,
                "pitch": 76,
                "velocity": 80,
                "duration": 0.0340909,
                "tempo": 120.0
            },
            {
                "start_time": 161.2727273,
                "end_time": 161.3409091,
                "pitch": 76,
                "velocity": 80,
                "duration": 0.0681818,
                "tempo": 120.0
            },
            {
                "start_time": 161.375,
                "end_time": 161.4431818,
                "pitch": 76,
                "velocity": 80,
                "duration": 0.0681818,
                "tempo": 120.0
            },
            {
                "start_time": 161.475,
                "end_time": 161.5090909,
                "pitch": 74,
                "velocity": 80,
                "duration": 0.0340909,
                "tempo": 120.0
            },
            {
                "start_time": 161.5409091,
                "end_time": 161.575,
                "pitch": 75,
                "velocity": 80,
                "duration": 0.0340909,
                "tempo": 120.0
            },
            {
                "start_time": 161.6068182,
                "end_time": 161.6386364,
                "pitch": 76,
                "velocity": 80,
                "duration": 0.0318182,
                "tempo": 120.0
            },
            {
                "start_time": 161.6727273,
                "end_time": 161.7363636,
                "pitch": 76,
                "velocity": 80,
                "duration": 0.0636364,
                "tempo": 120.0
            },
            {
                "start_time": 161.7704545,
                "end_time": 161.8363636,
                "pitch": 76,
                "velocity": 80,
                "duration": 0.0659091,
                "tempo": 120.0
            },
            {
                "start_time": 161.8704545,
                "end_time": 161.9022727,
                "pitch": 74,
                "velocity": 80,
                "duration": 0.0318182,
                "tempo": 120.0
            },
            {
                "start_time": 161.9363636,
                "end_time": 161.9704545,
                "pitch": 75,
                "velocity": 80,
                "duration": 0.0340909,
                "tempo": 120.0
            },
            {
                "start_time": 162.0045455,
                "end_time": 162.0363636,
                "pitch": 76,
                "velocity": 80,
                "duration": 0.0318182,
                "tempo": 120.0
            },
            {
                "start_time": 162.0704545,
                "end_time": 162.1045455,
                "pitch": 76,
                "velocity": 80,
                "duration": 0.0340909,
                "tempo": 120.0
            },
            {
                "start_time": 162.1386364,
                "end_time": 162.1704545,
                "pitch": 76,
                "velocity": 80,
                "duration": 0.0318182,
                "tempo": 120.0
            },
            {
                "start_time": 162.2045455,
                "end_time": 162.2386364,
                "pitch": 76,
                "velocity": 80,
                "duration": 0.0340909,
                "tempo": 120.0
            },
            {
                "start_time": 162.2727273,
                "end_time": 162.3386364,
                "pitch": 76,
                "velocity": 80,
                "duration": 0.0659091,
                "tempo": 120.0
            },
            {
                "start_time": 162.3727273,
                "end_time": 162.4386364,
                "pitch": 76,
                "velocity": 80,
                "duration": 0.0659091,
                "tempo": 120.0
            },
            {
                "start_time": 162.4727273,
                "end_time": 162.5386364,
                "pitch": 76,
                "velocity": 80,
                "duration": 0.0659091,
                "tempo": 120.0
            },
            {
                "start_time": 162.5727273,
                "end_time": 162.6045455,
                "pitch": 76,
                "velocity": 80,
                "duration": 0.0318182,
                "tempo": 120.0
            },
            {
                "start_time": 162.6727273,
                "end_time": 162.7068182,
                "pitch": 76,
                "velocity": 80,
                "duration": 0.0340909,
                "tempo": 120.0
            },
            {
                "start_time": 162.7409091,
                "end_time": 162.775,
                "pitch": 76,
                "velocity": 80,
                "duration": 0.0340909,
                "tempo": 120.0
            },
            {
                "start_time": 162.8090909,
                "end_time": 162.8431818,
                "pitch": 76,
                "velocity": 80,
                "duration": 0.0340909,
                "tempo": 120.0
            },
            {
                "start_time": 162.8772727,
                "end_time": 162.9477273,
                "pitch": 76,
                "velocity": 80,
                "duration": 0.0704545,
                "tempo": 120.0
            },
            {
                "start_time": 162.9818182,
                "end_time": 163.0477273,
                "pitch": 76,
                "velocity": 80,
                "duration": 0.0659091,
                "tempo": 120.0
            },
            {
                "start_time": 163.0818182,
                "end_time": 163.1477273,
                "pitch": 76,
                "velocity": 80,
                "duration": 0.0659091,
                "tempo": 120.0
            },
            {
                "start_time": 163.1795455,
                "end_time": 163.2454545,
                "pitch": 74,
                "velocity": 80,
                "duration": 0.0659091,
                "tempo": 120.0
            },
            {
                "start_time": 163.2772727,
                "end_time": 163.3431818,
                "pitch": 74,
                "velocity": 80,
                "duration": 0.0659091,
                "tempo": 120.0
            },
            {
                "start_time": 163.375,
                "end_time": 163.4409091,
                "pitch": 74,
                "velocity": 80,
                "duration": 0.0659091,
                "tempo": 120.0
            },
            {
                "start_time": 163.475,
                "end_time": 163.5431818,
                "pitch": 74,
                "velocity": 80,
                "duration": 0.0681818,
                "tempo": 120.0
            },
            {
                "start_time": 163.575,
                "end_time": 163.6431818,
                "pitch": 72,
                "velocity": 80,
                "duration": 0.0681818,
                "tempo": 120.0
            },
            {
                "start_time": 163.6772727,
                "end_time": 163.7431818,
                "pitch": 72,
                "velocity": 80,
                "duration": 0.0659091,
                "tempo": 120.0
            },
            {
                "start_time": 163.7772727,
                "end_time": 163.8431818,
                "pitch": 72,
                "velocity": 80,
                "duration": 0.0659091,
                "tempo": 120.0
            },
            {
                "start_time": 163.8772727,
                "end_time": 163.9454545,
                "pitch": 71,
                "velocity": 80,
                "duration": 0.0681818,
                "tempo": 120.0
            },
            {
                "start_time": 163.9772727,
                "end_time": 164.0454545,
                "pitch": 71,
                "velocity": 80,
                "duration": 0.0681818,
                "tempo": 120.0
            },
            {
                "start_time": 164.0795455,
                "end_time": 164.1454545,
                "pitch": 71,
                "velocity": 80,
                "duration": 0.0659091,
                "tempo": 120.0
            },
            {
                "start_time": 164.1795455,
                "end_time": 164.2136364,
                "pitch": 71,
                "velocity": 80,
                "duration": 0.0340909,
                "tempo": 120.0
            },
            {
                "start_time": 164.2795455,
                "end_time": 164.3477273,
                "pitch": 71,
                "velocity": 80,
                "duration": 0.0681818,
                "tempo": 120.0
            },
            {
                "start_time": 164.3795455,
                "end_time": 164.4477273,
                "pitch": 71,
                "velocity": 80,
                "duration": 0.0681818,
                "tempo": 120.0
            },
            {
                "start_time": 164.4795455,
                "end_time": 164.5136364,
                "pitch": 71,
                "velocity": 80,
                "duration": 0.0340909,
                "tempo": 120.0
            },
            {
                "start_time": 164.5477273,
                "end_time": 164.5795455,
                "pitch": 69,
                "velocity": 80,
                "duration": 0.0318182,
                "tempo": 120.0
            },
            {
                "start_time": 164.6136364,
                "end_time": 164.6477273,
                "pitch": 69,
                "velocity": 80,
                "duration": 0.0340909,
                "tempo": 120.0
            },
            {
                "start_time": 164.6795455,
                "end_time": 164.7477273,
                "pitch": 69,
                "velocity": 80,
                "duration": 0.0681818,
                "tempo": 120.0
            },
            {
                "start_time": 164.7818182,
                "end_time": 164.8477273,
                "pitch": 67,
                "velocity": 80,
                "duration": 0.0659091,
                "tempo": 120.0
            },
            {
                "start_time": 164.8818182,
                "end_time": 164.9477273,
                "pitch": 67,
                "velocity": 80,
                "duration": 0.0659091,
                "tempo": 120.0
            },
            {
                "start_time": 164.9818182,
                "end_time": 165.05,
                "pitch": 66,
                "velocity": 80,
                "duration": 0.0681818,
                "tempo": 120.0
            },
            {
                "start_time": 165.0840909,
                "end_time": 165.15,
                "pitch": 0,
                "velocity": 80,
                "duration": 0.0659091,
                "tempo": 120.0
            },
            {
                "start_time": 165.1840909,
                "end_time": 165.25,
                "pitch": 66,
                "velocity": 80,
                "duration": 0.0659091,
                "tempo": 120.0
            },
            {
                "start_time": 165.2840909,
                "end_time": 165.3522727,
                "pitch": 64,
                "velocity": 80,
                "duration": 0.0681818,
                "tempo": 120.0
            },
            {
                "start_time": 165.3840909,
                "end_time": 165.4522727,
                "pitch": 67,
                "velocity": 80,
                "duration": 0.0681818,
                "tempo": 120.0
            },
            {
                "start_time": 165.4863636,
                "end_time": 165.5522727,
                "pitch": 62,
                "velocity": 80,
                "duration": 0.0659091,
                "tempo": 120.0
            },
            {
                "start_time": 165.5863636,
                "end_time": 165.6545455,
                "pitch": 69,
                "velocity": 80,
                "duration": 0.0681818,
                "tempo": 120.0
            },
            {
                "start_time": 165.6863636,
                "end_time": 165.7545455,
                "pitch": 64,
                "velocity": 80,
                "duration": 0.0681818,
                "tempo": 120.0
            },
            {
                "start_time": 165.7886364,
                "end_time": 165.8545455,
                "pitch": 67,
                "velocity": 80,
                "duration": 0.0659091,
                "tempo": 120.0
            },
            {
                "start_time": 165.8863636,
                "end_time": 165.9522727,
                "pitch": 66,
                "velocity": 80,
                "duration": 0.0659091,
                "tempo": 120.0
            },
            {
                "start_time": 165.9840909,
                "end_time": 166.05,
                "pitch": 69,
                "velocity": 80,
                "duration": 0.0659091,
                "tempo": 120.0
            },
            {
                "start_time": 166.0818182,
                "end_time": 166.1159091,
                "pitch": 69,
                "velocity": 80,
                "duration": 0.0340909,
                "tempo": 120.0
            },
            {
                "start_time": 166.1477273,
                "end_time": 166.1818182,
                "pitch": 69,
                "velocity": 80,
                "duration": 0.0340909,
                "tempo": 120.0
            },
            {
                "start_time": 166.2136364,
                "end_time": 166.2477273,
                "pitch": 69,
                "velocity": 80,
                "duration": 0.0340909,
                "tempo": 120.0
            },
            {
                "start_time": 166.2818182,
                "end_time": 166.35,
                "pitch": 69,
                "velocity": 80,
                "duration": 0.0681818,
                "tempo": 120.0
            },
            {
                "start_time": 166.3840909,
                "end_time": 166.4522727,
                "pitch": 69,
                "velocity": 80,
                "duration": 0.0681818,
                "tempo": 120.0
            },
            {
                "start_time": 166.4863636,
                "end_time": 166.5545455,
                "pitch": 71,
                "velocity": 80,
                "duration": 0.0681818,
                "tempo": 120.0
            },
            {
                "start_time": 166.5886364,
                "end_time": 166.6568182,
                "pitch": 69,
                "velocity": 80,
                "duration": 0.0681818,
                "tempo": 120.0
            },
            {
                "start_time": 166.6909091,
                "end_time": 166.7590909,
                "pitch": 0,
                "velocity": 80,
                "duration": 0.0681818,
                "tempo": 120.0
            },
            {
                "start_time": 166.7909091,
                "end_time": 166.8590909,
                "pitch": 57,
                "velocity": 80,
                "duration": 0.0681818,
                "tempo": 120.0
            },
            {
                "start_time": 166.8931818,
                "end_time": 166.9590909,
                "pitch": 0,
                "velocity": 80,
                "duration": 0.0659091,
                "tempo": 120.0
            },
            {
                "start_time": 166.9931818,
                "end_time": 167.0545455,
                "pitch": 60,
                "velocity": 80,
                "duration": 0.0613636,
                "tempo": 120.0
            },
            {
                "start_time": 167.0840909,
                "end_time": 167.1454545,
                "pitch": 0,
                "velocity": 80,
                "duration": 0.0613636,
                "tempo": 120.0
            },
            {
                "start_time": 167.175,
                "end_time": 167.2363636,
                "pitch": 62,
                "velocity": 80,
                "duration": 0.0613636,
                "tempo": 120.0
            },
            {
                "start_time": 167.2659091,
                "end_time": 167.325,
                "pitch": 0,
                "velocity": 80,
                "duration": 0.0590909,
                "tempo": 120.0
            },
            {
                "start_time": 167.3568182,
                "end_time": 167.4227273,
                "pitch": 64,
                "velocity": 80,
                "duration": 0.0659091,
                "tempo": 120.0
            },
            {
                "start_time": 167.4545455,
                "end_time": 167.5227273,
                "pitch": 0,
                "velocity": 80,
                "duration": 0.0681818,
                "tempo": 120.0
            },
            {
                "start_time": 167.5568182,
                "end_time": 167.6227273,
                "pitch": 62,
                "velocity": 80,
                "duration": 0.0659091,
                "tempo": 120.0
            },
            {
                "start_time": 167.6568182,
                "end_time": 167.7227273,
                "pitch": 0,
                "velocity": 80,
                "duration": 0.0659091,
                "tempo": 120.0
            },
            {
                "start_time": 167.7568182,
                "end_time": 167.8204545,
                "pitch": 64,
                "velocity": 80,
                "duration": 0.0636364,
                "tempo": 120.0
            },
            {
                "start_time": 167.8522727,
                "end_time": 167.9159091,
                "pitch": 0,
                "velocity": 80,
                "duration": 0.0636364,
                "tempo": 120.0
            },
            {
                "start_time": 167.9477273,
                "end_time": 168.0113636,
                "pitch": 67,
                "velocity": 80,
                "duration": 0.0636364,
                "tempo": 120.0
            },
            {
                "start_time": 168.0431818,
                "end_time": 168.1068182,
                "pitch": 0,
                "velocity": 80,
                "duration": 0.0636364,
                "tempo": 120.0
            },
            {
                "start_time": 168.1363636,
                "end_time": 168.1977273,
                "pitch": 69,
                "velocity": 80,
                "duration": 0.0613636,
                "tempo": 120.0
            },
            {
                "start_time": 168.2272727,
                "end_time": 168.2863636,
                "pitch": 0,
                "velocity": 80,
                "duration": 0.0590909,
                "tempo": 120.0
            },
            {
                "start_time": 168.3181818,
                "end_time": 168.3772727,
                "pitch": 69,
                "velocity": 80,
                "duration": 0.0590909,
                "tempo": 120.0
            },
            {
                "start_time": 168.4068182,
                "end_time": 168.4704545,
                "pitch": 0,
                "velocity": 80,
                "duration": 0.0636364,
                "tempo": 120.0
            },
            {
                "start_time": 168.5022727,
                "end_time": 168.5704545,
                "pitch": 72,
                "velocity": 80,
                "duration": 0.0681818,
                "tempo": 120.0
            },
            {
                "start_time": 168.6045455,
                "end_time": 168.6704545,
                "pitch": 0,
                "velocity": 80,
                "duration": 0.0659091,
                "tempo": 120.0
            },
            {
                "start_time": 168.7045455,
                "end_time": 168.7704545,
                "pitch": 74,
                "velocity": 80,
                "duration": 0.0659091,
                "tempo": 120.0
            },
            {
                "start_time": 168.8045455,
                "end_time": 168.8727273,
                "pitch": 0,
                "velocity": 80,
                "duration": 0.0681818,
                "tempo": 120.0
            },
            {
                "start_time": 168.9068182,
                "end_time": 168.9727273,
                "pitch": 76,
                "velocity": 80,
                "duration": 0.0659091,
                "tempo": 120.0
            },
            {
                "start_time": 169.0068182,
                "end_time": 169.0727273,
                "pitch": 0,
                "velocity": 80,
                "duration": 0.0659091,
                "tempo": 120.0
            },
            {
                "start_time": 169.1068182,
                "end_time": 169.175,
                "pitch": 79,
                "velocity": 80,
                "duration": 0.0681818,
                "tempo": 120.0
            },
            {
                "start_time": 169.2068182,
                "end_time": 169.275,
                "pitch": 0,
                "velocity": 80,
                "duration": 0.0681818,
                "tempo": 120.0
            },
            {
                "start_time": 169.3068182,
                "end_time": 169.3727273,
                "pitch": 80,
                "velocity": 80,
                "duration": 0.0659091,
                "tempo": 120.0
            },
            {
                "start_time": 169.4045455,
                "end_time": 169.4704545,
                "pitch": 0,
                "velocity": 80,
                "duration": 0.0659091,
                "tempo": 120.0
            },
            {
                "start_time": 169.5022727,
                "end_time": 170.9818182,
                "pitch": 81,
                "velocity": 80,
                "duration": 1.4795455,
                "tempo": 120.0
            },
            {
                "start_time": 171.0159091,
                "end_time": 171.3863636,
                "pitch": 0,
                "velocity": 80,
                "duration": 0.3704545,
                "tempo": 120.0
            },
            {
                "start_time": 171.4204545,
                "end_time": 171.4886364,
                "pitch": 0,
                "velocity": 80,
                "duration": 0.0681818,
                "tempo": 120.0
            },
            {
                "start_time": 171.5227273,
                "end_time": 171.5909091,
                "pitch": 84,
                "velocity": 80,
                "duration": 0.0681818,
                "tempo": 120.0
            },
            {
                "start_time": 171.625,
                "end_time": 171.6954545,
                "pitch": 0,
                "velocity": 80,
                "duration": 0.0704545,
                "tempo": 120.0
            },
            {
                "start_time": 171.7295455,
                "end_time": 171.8022727,
                "pitch": 84,
                "velocity": 80,
                "duration": 0.0727273,
                "tempo": 120.0
            },
            {
                "start_time": 171.8386364,
                "end_time": 172.1340909,
                "pitch": 0,
                "velocity": 80,
                "duration": 0.2954545,
                "tempo": 120.0
            },
            {
                "start_time": 172.1704545,
                "end_time": 172.2363636,
                "pitch": 86,
                "velocity": 80,
                "duration": 0.0659091,
                "tempo": 120.0
            },
            {
                "start_time": 172.2704545,
                "end_time": 172.3386364,
                "pitch": 0,
                "velocity": 80,
                "duration": 0.0681818,
                "tempo": 120.0
            },
            {
                "start_time": 172.3704545,
                "end_time": 172.4386364,
                "pitch": 86,
                "velocity": 80,
                "duration": 0.0681818,
                "tempo": 120.0
            },
            {
                "start_time": 172.4727273,
                "end_time": 173.1818182,
                "pitch": 0,
                "velocity": 80,
                "duration": 0.7090909,
                "tempo": 120.0
            },
            {
                "start_time": 173.2159091,
                "end_time": 173.2818182,
                "pitch": 86,
                "velocity": 80,
                "duration": 0.0659091,
                "tempo": 120.0
            },
            {
                "start_time": 173.3159091,
                "end_time": 173.3840909,
                "pitch": 0,
                "velocity": 80,
                "duration": 0.0681818,
                "tempo": 120.0
            },
            {
                "start_time": 173.4159091,
                "end_time": 173.4840909,
                "pitch": 86,
                "velocity": 80,
                "duration": 0.0681818,
                "tempo": 120.0
            },
            {
                "start_time": 173.5181818,
                "end_time": 173.8,
                "pitch": 0,
                "velocity": 80,
                "duration": 0.2818182,
                "tempo": 120.0
            },
            {
                "start_time": 173.8363636,
                "end_time": 173.9068182,
                "pitch": 88,
                "velocity": 80,
                "duration": 0.0704545,
                "tempo": 120.0
            },
            {
                "start_time": 173.9409091,
                "end_time": 174.0068182,
                "pitch": 0,
                "velocity": 80,
                "duration": 0.0659091,
                "tempo": 120.0
            },
            {
                "start_time": 174.0409091,
                "end_time": 174.1068182,
                "pitch": 88,
                "velocity": 80,
                "duration": 0.0659091,
                "tempo": 120.0
            },
            {
                "start_time": 174.1409091,
                "end_time": 174.8022727,
                "pitch": 0,
                "velocity": 80,
                "duration": 0.6613636,
                "tempo": 120.0
            },
            {
                "start_time": 174.8363636,
                "end_time": 174.9022727,
                "pitch": 84,
                "velocity": 80,
                "duration": 0.0659091,
                "tempo": 120.0
            },
            {
                "start_time": 174.9363636,
                "end_time": 175.0022727,
                "pitch": 0,
                "velocity": 80,
                "duration": 0.0659091,
                "tempo": 120.0
            },
            {
                "start_time": 175.0363636,
                "end_time": 175.1045455,
                "pitch": 84,
                "velocity": 80,
                "duration": 0.0681818,
                "tempo": 120.0
            },
            {
                "start_time": 175.1386364,
                "end_time": 175.4113636,
                "pitch": 0,
                "velocity": 80,
                "duration": 0.2727273,
                "tempo": 120.0
            },
            {
                "start_time": 175.4454545,
                "end_time": 175.5136364,
                "pitch": 86,
                "velocity": 80,
                "duration": 0.0681818,
                "tempo": 120.0
            },
            {
                "start_time": 175.5454545,
                "end_time": 175.6090909,
                "pitch": 0,
                "velocity": 80,
                "duration": 0.0636364,
                "tempo": 120.0
            },
            {
                "start_time": 175.6409091,
                "end_time": 175.7045455,
                "pitch": 86,
                "velocity": 80,
                "duration": 0.0636364,
                "tempo": 120.0
            },
            {
                "start_time": 175.7363636,
                "end_time": 176.4045455,
                "pitch": 0,
                "velocity": 80,
                "duration": 0.6681818,
                "tempo": 120.0
            },
            {
                "start_time": 176.4363636,
                "end_time": 176.5022727,
                "pitch": 86,
                "velocity": 80,
                "duration": 0.0659091,
                "tempo": 120.0
            },
            {
                "start_time": 176.5340909,
                "end_time": 176.6,
                "pitch": 0,
                "velocity": 80,
                "duration": 0.0659091,
                "tempo": 120.0
            },
            {
                "start_time": 176.6318182,
                "end_time": 176.6977273,
                "pitch": 86,
                "velocity": 80,
                "duration": 0.0659091,
                "tempo": 120.0
            },
            {
                "start_time": 176.7340909,
                "end_time": 177.0159091,
                "pitch": 0,
                "velocity": 80,
                "duration": 0.2818182,
                "tempo": 120.0
            },
            {
                "start_time": 177.05,
                "end_time": 177.1204545,
                "pitch": 88,
                "velocity": 80,
                "duration": 0.0704545,
                "tempo": 120.0
            },
            {
                "start_time": 177.1545455,
                "end_time": 177.2204545,
                "pitch": 0,
                "velocity": 80,
                "duration": 0.0659091,
                "tempo": 120.0
            },
            {
                "start_time": 177.2545455,
                "end_time": 177.3204545,
                "pitch": 88,
                "velocity": 80,
                "duration": 0.0659091,
                "tempo": 120.0
            },
            {
                "start_time": 177.3545455,
                "end_time": 177.6181818,
                "pitch": 0,
                "velocity": 80,
                "duration": 0.2636364,
                "tempo": 120.0
            },
            {
                "start_time": 177.6522727,
                "end_time": 179.5295455,
                "pitch": 86,
                "velocity": 80,
                "duration": 1.8772727,
                "tempo": 120.0
            }
        ],
        "Acoustic Bass": [
            {
                "start_time": 0.3,
                "end_time": 0.4681818,
                "pitch": 52,
                "velocity": 80,
                "duration": 0.1681818,
                "tempo": 120.0
            },
            {
                "start_time": 0.5022727,
                "end_time": 0.6681818,
                "pitch": 43,
                "velocity": 80,
                "duration": 0.1659091,
                "tempo": 120.0
            },
            {
                "start_time": 0.7022727,
                "end_time": 0.9704545,
                "pitch": 42,
                "velocity": 80,
                "duration": 0.2681818,
                "tempo": 120.0
            },
            {
                "start_time": 1.0022727,
                "end_time": 1.1704545,
                "pitch": 50,
                "velocity": 80,
                "duration": 0.1681818,
                "tempo": 120.0
            },
            {
                "start_time": 1.2045455,
                "end_time": 1.2704545,
                "pitch": 50,
                "velocity": 80,
                "duration": 0.0659091,
                "tempo": 120.0
            },
            {
                "start_time": 1.3045455,
                "end_time": 1.3704545,
                "pitch": 42,
                "velocity": 80,
                "duration": 0.0659091,
                "tempo": 120.0
            },
            {
                "start_time": 1.4045455,
                "end_time": 1.5727273,
                "pitch": 43,
                "velocity": 80,
                "duration": 0.1681818,
                "tempo": 120.0
            },
            {
                "start_time": 1.6045455,
                "end_time": 1.8727273,
                "pitch": 45,
                "velocity": 80,
                "duration": 0.2681818,
                "tempo": 120.0
            },
            {
                "start_time": 1.9045455,
                "end_time": 2.0727273,
                "pitch": 52,
                "velocity": 80,
                "duration": 0.1681818,
                "tempo": 120.0
            },
            {
                "start_time": 2.1045455,
                "end_time": 2.2727273,
                "pitch": 43,
                "velocity": 80,
                "duration": 0.1681818,
                "tempo": 120.0
            },
            {
                "start_time": 2.3045455,
                "end_time": 2.3727273,
                "pitch": 42,
                "velocity": 80,
                "duration": 0.0681818,
                "tempo": 120.0
            },
            {
                "start_time": 2.4068182,
                "end_time": 3.1659091,
                "pitch": 0,
                "velocity": 80,
                "duration": 0.7590909,
                "tempo": 120.0
            },
            {
                "start_time": 3.2,
                "end_time": 3.4659091,
                "pitch": 45,
                "velocity": 80,
                "duration": 0.2659091,
                "tempo": 120.0
            },
            {
                "start_time": 3.5,
                "end_time": 3.6727273,
                "pitch": 52,
                "velocity": 80,
                "duration": 0.1727273,
                "tempo": 120.0
            },
            {
                "start_time": 3.7068182,
                "end_time": 3.8772727,
                "pitch": 43,
                "velocity": 80,
                "duration": 0.1704545,
                "tempo": 120.0
            },
            {
                "start_time": 3.9113636,
                "end_time": 4.1772727,
                "pitch": 42,
                "velocity": 80,
                "duration": 0.2659091,
                "tempo": 120.0
            },
            {
                "start_time": 4.2113636,
                "end_time": 4.375,
                "pitch": 50,
                "velocity": 80,
                "duration": 0.1636364,
                "tempo": 120.0
            },
            {
                "start_time": 4.4090909,
                "end_time": 4.475,
                "pitch": 50,
                "velocity": 80,
                "duration": 0.0659091,
                "tempo": 120.0
            },
            {
                "start_time": 4.5068182,
                "end_time": 4.5727273,
                "pitch": 42,
                "velocity": 80,
                "duration": 0.0659091,
                "tempo": 120.0
            },
            {
                "start_time": 4.6045455,
                "end_time": 4.7704545,
                "pitch": 43,
                "velocity": 80,
                "duration": 0.1659091,
                "tempo": 120.0
            },
            {
                "start_time": 4.8022727,
                "end_time": 5.0704545,
                "pitch": 45,
                "velocity": 80,
                "duration": 0.2681818,
                "tempo": 120.0
            },
            {
                "start_time": 5.1022727,
                "end_time": 5.2795455,
                "pitch": 52,
                "velocity": 80,
                "duration": 0.1772727,
                "tempo": 120.0
            },
            {
                "start_time": 5.3136364,
                "end_time": 5.4909091,
                "pitch": 43,
                "velocity": 80,
                "duration": 0.1772727,
                "tempo": 120.0
            },
            {
                "start_time": 5.525,
                "end_time": 5.5909091,
                "pitch": 42,
                "velocity": 80,
                "duration": 0.0659091,
                "tempo": 120.0
            },
            {
                "start_time": 5.6227273,
                "end_time": 5.7863636,
                "pitch": 0,
                "velocity": 80,
                "duration": 0.1636364,
                "tempo": 120.0
            },
            {
                "start_time": 5.8181818,
                "end_time": 5.9840909,
                "pitch": 42,
                "velocity": 80,
                "duration": 0.1659091,
                "tempo": 120.0
            },
            {
                "start_time": 6.0181818,
                "end_time": 6.1840909,
                "pitch": 43,
                "velocity": 80,
                "duration": 0.1659091,
                "tempo": 120.0
            },
            {
                "start_time": 6.2181818,
                "end_time": 6.3840909,
                "pitch": 44,
                "velocity": 80,
                "duration": 0.1659091,
                "tempo": 120.0
            },
            {
                "start_time": 6.4181818,
                "end_time": 6.6863636,
                "pitch": 45,
                "velocity": 80,
                "duration": 0.2681818,
                "tempo": 120.0
            },
            {
                "start_time": 6.7159091,
                "end_time": 6.8704545,
                "pitch": 52,
                "velocity": 80,
                "duration": 0.1545455,
                "tempo": 120.0
            },
            {
                "start_time": 6.9022727,
                "end_time": 7.0568182,
                "pitch": 43,
                "velocity": 80,
                "duration": 0.1545455,
                "tempo": 120.0
            },
            {
                "start_time": 7.0886364,
                "end_time": 7.3431818,
                "pitch": 42,
                "velocity": 80,
                "duration": 0.2545455,
                "tempo": 120.0
            },
            {
                "start_time": 7.375,
                "end_time": 7.5272727,
                "pitch": 50,
                "velocity": 80,
                "duration": 0.1522727,
                "tempo": 120.0
            },
            {
                "start_time": 7.5568182,
                "end_time": 7.6159091,
                "pitch": 50,
                "velocity": 80,
                "duration": 0.0590909,
                "tempo": 120.0
            },
            {
                "start_time": 7.6477273,
                "end_time": 7.7068182,
                "pitch": 42,
                "velocity": 80,
                "duration": 0.0590909,
                "tempo": 120.0
            },
            {
                "start_time": 7.7386364,
                "end_time": 7.8977273,
                "pitch": 43,
                "velocity": 80,
                "duration": 0.1590909,
                "tempo": 120.0
            },
            {
                "start_time": 7.9295455,
                "end_time": 8.1795455,
                "pitch": 45,
                "velocity": 80,
                "duration": 0.25,
                "tempo": 120.0
            },
            {
                "start_time": 8.2113636,
                "end_time": 8.3659091,
                "pitch": 52,
                "velocity": 80,
                "duration": 0.1545455,
                "tempo": 120.0
            },
            {
                "start_time": 8.3977273,
                "end_time": 8.5431818,
                "pitch": 43,
                "velocity": 80,
                "duration": 0.1454545,
                "tempo": 120.0
            },
            {
                "start_time": 8.5727273,
                "end_time": 8.6295455,
                "pitch": 42,
                "velocity": 80,
                "duration": 0.0568182,
                "tempo": 120.0
            },
            {
                "start_time": 8.6590909,
                "end_time": 9.3863636,
                "pitch": 0,
                "velocity": 80,
                "duration": 0.7272727,
                "tempo": 120.0
            },
            {
                "start_time": 9.4159091,
                "end_time": 9.65,
                "pitch": 45,
                "velocity": 80,
                "duration": 0.2340909,
                "tempo": 120.0
            },
            {
                "start_time": 9.6795455,
                "end_time": 9.8295455,
                "pitch": 52,
                "velocity": 80,
                "duration": 0.15,
                "tempo": 120.0
            },
            {
                "start_time": 9.8613636,
                "end_time": 10.0159091,
                "pitch": 43,
                "velocity": 80,
                "duration": 0.1545455,
                "tempo": 120.0
            },
            {
                "start_time": 10.0454545,
                "end_time": 10.3090909,
                "pitch": 42,
                "velocity": 80,
                "duration": 0.2636364,
                "tempo": 120.0
            },
            {
                "start_time": 10.3409091,
                "end_time": 10.5090909,
                "pitch": 50,
                "velocity": 80,
                "duration": 0.1681818,
                "tempo": 120.0
            },
            {
                "start_time": 10.5431818,
                "end_time": 10.6113636,
                "pitch": 50,
                "velocity": 80,
                "duration": 0.0681818,
                "tempo": 120.0
            },
            {
                "start_time": 10.6454545,
                "end_time": 10.7136364,
                "pitch": 42,
                "velocity": 80,
                "duration": 0.0681818,
                "tempo": 120.0
            },
            {
                "start_time": 10.75,
                "end_time": 10.9204545,
                "pitch": 43,
                "velocity": 80,
                "duration": 0.1704545,
                "tempo": 120.0
            },
            {
                "start_time": 10.9545455,
                "end_time": 11.2227273,
                "pitch": 45,
                "velocity": 80,
                "duration": 0.2681818,
                "tempo": 120.0
            },
            {
                "start_time": 11.2568182,
                "end_time": 11.4227273,
                "pitch": 52,
                "velocity": 80,
                "duration": 0.1659091,
                "tempo": 120.0
            },
            {
                "start_time": 11.4545455,
                "end_time": 11.6181818,
                "pitch": 43,
                "velocity": 80,
                "duration": 0.1636364,
                "tempo": 120.0
            },
            {
                "start_time": 11.65,
                "end_time": 11.7159091,
                "pitch": 42,
                "velocity": 80,
                "duration": 0.0659091,
                "tempo": 120.0
            },
            {
                "start_time": 11.75,
                "end_time": 12.5204545,
                "pitch": 0,
                "velocity": 80,
                "duration": 0.7704545,
                "tempo": 120.0
            },
            {
                "start_time": 12.5545455,
                "end_time": 12.8204545,
                "pitch": 45,
                "velocity": 80,
                "duration": 0.2659091,
                "tempo": 120.0
            },
            {
                "start_time": 12.8545455,
                "end_time": 13.0204545,
                "pitch": 52,
                "velocity": 80,
                "duration": 0.1659091,
                "tempo": 120.0
            },
            {
                "start_time": 13.0545455,
                "end_time": 13.2227273,
                "pitch": 43,
                "velocity": 80,
                "duration": 0.1681818,
                "tempo": 120.0
            },
            {
                "start_time": 13.2568182,
                "end_time": 13.525,
                "pitch": 42,
                "velocity": 80,
                "duration": 0.2681818,
                "tempo": 120.0
            },
            {
                "start_time": 13.5590909,
                "end_time": 13.7272727,
                "pitch": 50,
                "velocity": 80,
                "duration": 0.1681818,
                "tempo": 120.0
            },
            {
                "start_time": 13.7590909,
                "end_time": 13.8272727,
                "pitch": 50,
                "velocity": 80,
                "duration": 0.0681818,
                "tempo": 120.0
            },
            {
                "start_time": 13.8613636,
                "end_time": 13.9272727,
                "pitch": 42,
                "velocity": 80,
                "duration": 0.0659091,
                "tempo": 120.0
            },
            {
                "start_time": 13.9613636,
                "end_time": 14.1295455,
                "pitch": 43,
                "velocity": 80,
                "duration": 0.1681818,
                "tempo": 120.0
            },
            {
                "start_time": 14.1636364,
                "end_time": 14.4363636,
                "pitch": 45,
                "velocity": 80,
                "duration": 0.2727273,
                "tempo": 120.0
            },
            {
                "start_time": 14.4704545,
                "end_time": 14.6386364,
                "pitch": 52,
                "velocity": 80,
                "duration": 0.1681818,
                "tempo": 120.0
            },
            {
                "start_time": 14.6704545,
                "end_time": 14.8340909,
                "pitch": 43,
                "velocity": 80,
                "duration": 0.1636364,
                "tempo": 120.0
            },
            {
                "start_time": 14.8659091,
                "end_time": 14.9318182,
                "pitch": 42,
                "velocity": 80,
                "duration": 0.0659091,
                "tempo": 120.0
            },
            {
                "start_time": 14.9659091,
                "end_time": 15.7454545,
                "pitch": 0,
                "velocity": 80,
                "duration": 0.7795455,
                "tempo": 120.0
            },
            {
                "start_time": 15.7772727,
                "end_time": 16.0386364,
                "pitch": 45,
                "velocity": 80,
                "duration": 0.2613636,
                "tempo": 120.0
            },
            {
                "start_time": 16.0727273,
                "end_time": 16.2386364,
                "pitch": 52,
                "velocity": 80,
                "duration": 0.1659091,
                "tempo": 120.0
            },
            {
                "start_time": 16.2704545,
                "end_time": 16.4386364,
                "pitch": 43,
                "velocity": 80,
                "duration": 0.1681818,
                "tempo": 120.0
            },
            {
                "start_time": 16.4704545,
                "end_time": 16.7431818,
                "pitch": 42,
                "velocity": 80,
                "duration": 0.2727273,
                "tempo": 120.0
            },
            {
                "start_time": 16.7772727,
                "end_time": 16.9477273,
                "pitch": 50,
                "velocity": 80,
                "duration": 0.1704545,
                "tempo": 120.0
            },
            {
                "start_time": 16.9818182,
                "end_time": 17.0454545,
                "pitch": 50,
                "velocity": 80,
                "duration": 0.0636364,
                "tempo": 120.0
            },
            {
                "start_time": 17.0795455,
                "end_time": 17.1454545,
                "pitch": 42,
                "velocity": 80,
                "duration": 0.0659091,
                "tempo": 120.0
            },
            {
                "start_time": 17.1772727,
                "end_time": 17.3409091,
                "pitch": 43,
                "velocity": 80,
                "duration": 0.1636364,
                "tempo": 120.0
            },
            {
                "start_time": 17.3727273,
                "end_time": 17.6477273,
                "pitch": 45,
                "velocity": 80,
                "duration": 0.275,
                "tempo": 120.0
            },
            {
                "start_time": 17.6818182,
                "end_time": 17.85,
                "pitch": 52,
                "velocity": 80,
                "duration": 0.1681818,
                "tempo": 120.0
            },
            {
                "start_time": 17.8818182,
                "end_time": 18.0454545,
                "pitch": 43,
                "velocity": 80,
                "duration": 0.1636364,
                "tempo": 120.0
            },
            {
                "start_time": 18.0772727,
                "end_time": 18.1431818,
                "pitch": 42,
                "velocity": 80,
                "duration": 0.0659091,
                "tempo": 120.0
            },
            {
                "start_time": 18.175,
                "end_time": 18.9431818,
                "pitch": 0,
                "velocity": 80,
                "duration": 0.7681818,
                "tempo": 120.0
            },
            {
                "start_time": 18.975,
                "end_time": 19.2227273,
                "pitch": 45,
                "velocity": 80,
                "duration": 0.2477273,
                "tempo": 120.0
            },
            {
                "start_time": 19.2522727,
                "end_time": 19.4159091,
                "pitch": 52,
                "velocity": 80,
                "duration": 0.1636364,
                "tempo": 120.0
            },
            {
                "start_time": 19.45,
                "end_time": 19.6181818,
                "pitch": 43,
                "velocity": 80,
                "duration": 0.1681818,
                "tempo": 120.0
            },
            {
                "start_time": 19.6522727,
                "end_time": 19.9181818,
                "pitch": 42,
                "velocity": 80,
                "duration": 0.2659091,
                "tempo": 120.0
            },
            {
                "start_time": 19.9522727,
                "end_time": 20.1181818,
                "pitch": 50,
                "velocity": 80,
                "duration": 0.1659091,
                "tempo": 120.0
            },
            {
                "start_time": 20.1522727,
                "end_time": 20.2181818,
                "pitch": 50,
                "velocity": 80,
                "duration": 0.0659091,
                "tempo": 120.0
            },
            {
                "start_time": 20.2522727,
                "end_time": 20.3204545,
                "pitch": 42,
                "velocity": 80,
                "duration": 0.0681818,
                "tempo": 120.0
            },
            {
                "start_time": 20.3522727,
                "end_time": 20.5204545,
                "pitch": 43,
                "velocity": 80,
                "duration": 0.1681818,
                "tempo": 120.0
            },
            {
                "start_time": 20.5545455,
                "end_time": 20.8204545,
                "pitch": 45,
                "velocity": 80,
                "duration": 0.2659091,
                "tempo": 120.0
            },
            {
                "start_time": 20.8545455,
                "end_time": 21.0204545,
                "pitch": 52,
                "velocity": 80,
                "duration": 0.1659091,
                "tempo": 120.0
            },
            {
                "start_time": 21.0545455,
                "end_time": 21.2204545,
                "pitch": 43,
                "velocity": 80,
                "duration": 0.1659091,
                "tempo": 120.0
            },
            {
                "start_time": 21.2545455,
                "end_time": 21.3204545,
                "pitch": 42,
                "velocity": 80,
                "duration": 0.0659091,
                "tempo": 120.0
            },
            {
                "start_time": 21.3545455,
                "end_time": 22.1227273,
                "pitch": 0,
                "velocity": 80,
                "duration": 0.7681818,
                "tempo": 120.0
            },
            {
                "start_time": 22.1568182,
                "end_time": 22.425,
                "pitch": 45,
                "velocity": 80,
                "duration": 0.2681818,
                "tempo": 120.0
            },
            {
                "start_time": 22.4590909,
                "end_time": 22.6272727,
                "pitch": 52,
                "velocity": 80,
                "duration": 0.1681818,
                "tempo": 120.0
            },
            {
                "start_time": 22.6590909,
                "end_time": 22.8272727,
                "pitch": 43,
                "velocity": 80,
                "duration": 0.1681818,
                "tempo": 120.0
            },
            {
                "start_time": 22.8590909,
                "end_time": 23.1272727,
                "pitch": 42,
                "velocity": 80,
                "duration": 0.2681818,
                "tempo": 120.0
            },
            {
                "start_time": 23.1590909,
                "end_time": 23.3272727,
                "pitch": 50,
                "velocity": 80,
                "duration": 0.1681818,
                "tempo": 120.0
            },
            {
                "start_time": 23.3590909,
                "end_time": 23.4272727,
                "pitch": 50,
                "velocity": 80,
                "duration": 0.0681818,
                "tempo": 120.0
            },
            {
                "start_time": 23.4613636,
                "end_time": 23.5272727,
                "pitch": 42,
                "velocity": 80,
                "duration": 0.0659091,
                "tempo": 120.0
            },
            {
                "start_time": 23.5613636,
                "end_time": 23.7295455,
                "pitch": 43,
                "velocity": 80,
                "duration": 0.1681818,
                "tempo": 120.0
            },
            {
                "start_time": 23.7613636,
                "end_time": 24.0295455,
                "pitch": 45,
                "velocity": 80,
                "duration": 0.2681818,
                "tempo": 120.0
            },
            {
                "start_time": 24.0613636,
                "end_time": 24.2295455,
                "pitch": 52,
                "velocity": 80,
                "duration": 0.1681818,
                "tempo": 120.0
            },
            {
                "start_time": 24.2636364,
                "end_time": 24.4318182,
                "pitch": 43,
                "velocity": 80,
                "duration": 0.1681818,
                "tempo": 120.0
            },
            {
                "start_time": 24.4636364,
                "end_time": 24.5318182,
                "pitch": 42,
                "velocity": 80,
                "duration": 0.0681818,
                "tempo": 120.0
            },
            {
                "start_time": 24.5659091,
                "end_time": 25.325,
                "pitch": 0,
                "velocity": 80,
                "duration": 0.7590909,
                "tempo": 120.0
            },
            {
                "start_time": 25.3568182,
                "end_time": 26.8454545,
                "pitch": 0,
                "velocity": 80,
                "duration": 1.4886364,
                "tempo": 120.0
            },
            {
                "start_time": 26.8795455,
                "end_time": 29.3568182,
                "pitch": 40,
                "velocity": 80,
                "duration": 2.4772727,
                "tempo": 120.0
            },
            {
                "start_time": 29.3886364,
                "end_time": 29.4545455,
                "pitch": 0,
                "velocity": 80,
                "duration": 0.0659091,
                "tempo": 120.0
            },
            {
                "start_time": 29.4863636,
                "end_time": 29.5522727,
                "pitch": 48,
                "velocity": 80,
                "duration": 0.0659091,
                "tempo": 120.0
            },
            {
                "start_time": 29.5840909,
                "end_time": 29.65,
                "pitch": 0,
                "velocity": 80,
                "duration": 0.0659091,
                "tempo": 120.0
            },
            {
                "start_time": 29.6840909,
                "end_time": 29.75,
                "pitch": 47,
                "velocity": 80,
                "duration": 0.0659091,
                "tempo": 120.0
            },
            {
                "start_time": 29.7818182,
                "end_time": 29.85,
                "pitch": 0,
                "velocity": 80,
                "duration": 0.0681818,
                "tempo": 120.0
            },
            {
                "start_time": 29.8818182,
                "end_time": 29.95,
                "pitch": 40,
                "velocity": 80,
                "duration": 0.0681818,
                "tempo": 120.0
            },
            {
                "start_time": 29.9818182,
                "end_time": 30.05,
                "pitch": 0,
                "velocity": 80,
                "duration": 0.0681818,
                "tempo": 120.0
            },
            {
                "start_time": 30.0818182,
                "end_time": 30.1477273,
                "pitch": 43,
                "velocity": 80,
                "duration": 0.0659091,
                "tempo": 120.0
            },
            {
                "start_time": 30.1818182,
                "end_time": 30.4431818,
                "pitch": 45,
                "velocity": 80,
                "duration": 0.2613636,
                "tempo": 120.0
            },
            {
                "start_time": 30.475,
                "end_time": 30.5409091,
                "pitch": 45,
                "velocity": 80,
                "duration": 0.0659091,
                "tempo": 120.0
            },
            {
                "start_time": 30.5772727,
                "end_time": 30.7522727,
                "pitch": 0,
                "velocity": 80,
                "duration": 0.175,
                "tempo": 120.0
            },
            {
                "start_time": 30.7863636,
                "end_time": 30.9613636,
                "pitch": 45,
                "velocity": 80,
                "duration": 0.175,
                "tempo": 120.0
            },
            {
                "start_time": 30.9954545,
                "end_time": 31.1590909,
                "pitch": 0,
                "velocity": 80,
                "duration": 0.1636364,
                "tempo": 120.0
            },
            {
                "start_time": 31.1909091,
                "end_time": 31.2568182,
                "pitch": 43,
                "velocity": 80,
                "duration": 0.0659091,
                "tempo": 120.0
            },
            {
                "start_time": 31.2886364,
                "end_time": 31.3545455,
                "pitch": 0,
                "velocity": 80,
                "duration": 0.0659091,
                "tempo": 120.0
            },
            {
                "start_time": 31.3886364,
                "end_time": 31.5568182,
                "pitch": 45,
                "velocity": 80,
                "duration": 0.1681818,
                "tempo": 120.0
            },
            {
                "start_time": 31.5909091,
                "end_time": 31.7568182,
                "pitch": 0,
                "velocity": 80,
                "duration": 0.1659091,
                "tempo": 120.0
            },
            {
                "start_time": 31.7909091,
                "end_time": 32.0568182,
                "pitch": 45,
                "velocity": 80,
                "duration": 0.2659091,
                "tempo": 120.0
            },
            {
                "start_time": 32.0909091,
                "end_time": 32.1568182,
                "pitch": 45,
                "velocity": 80,
                "duration": 0.0659091,
                "tempo": 120.0
            },
            {
                "start_time": 32.1909091,
                "end_time": 32.3636364,
                "pitch": 0,
                "velocity": 80,
                "duration": 0.1727273,
                "tempo": 120.0
            },
            {
                "start_time": 32.3977273,
                "end_time": 32.5681818,
                "pitch": 45,
                "velocity": 80,
                "duration": 0.1704545,
                "tempo": 120.0
            },
            {
                "start_time": 32.6022727,
                "end_time": 32.7681818,
                "pitch": 0,
                "velocity": 80,
                "duration": 0.1659091,
                "tempo": 120.0
            },
            {
                "start_time": 32.8022727,
                "end_time": 32.8681818,
                "pitch": 43,
                "velocity": 80,
                "duration": 0.0659091,
                "tempo": 120.0
            },
            {
                "start_time": 32.9022727,
                "end_time": 32.9681818,
                "pitch": 0,
                "velocity": 80,
                "duration": 0.0659091,
                "tempo": 120.0
            },
            {
                "start_time": 33.0,
                "end_time": 33.1636364,
                "pitch": 45,
                "velocity": 80,
                "duration": 0.1636364,
                "tempo": 120.0
            },
            {
                "start_time": 33.1977273,
                "end_time": 33.3613636,
                "pitch": 40,
                "velocity": 80,
                "duration": 0.1636364,
                "tempo": 120.0
            },
            {
                "start_time": 33.3931818,
                "end_time": 33.6613636,
                "pitch": 45,
                "velocity": 80,
                "duration": 0.2681818,
                "tempo": 120.0
            },
            {
                "start_time": 33.6931818,
                "end_time": 33.7613636,
                "pitch": 45,
                "velocity": 80,
                "duration": 0.0681818,
                "tempo": 120.0
            },
            {
                "start_time": 33.7954545,
                "end_time": 33.9659091,
                "pitch": 0,
                "velocity": 80,
                "duration": 0.1704545,
                "tempo": 120.0
            },
            {
                "start_time": 34.0,
                "end_time": 34.1704545,
                "pitch": 45,
                "velocity": 80,
                "duration": 0.1704545,
                "tempo": 120.0
            },
            {
                "start_time": 34.2045455,
                "end_time": 34.3659091,
                "pitch": 0,
                "velocity": 80,
                "duration": 0.1613636,
                "tempo": 120.0
            },
            {
                "start_time": 34.4,
                "end_time": 34.4659091,
                "pitch": 43,
                "velocity": 80,
                "duration": 0.0659091,
                "tempo": 120.0
            },
            {
                "start_time": 34.4977273,
                "end_time": 34.5636364,
                "pitch": 0,
                "velocity": 80,
                "duration": 0.0659091,
                "tempo": 120.0
            },
            {
                "start_time": 34.5977273,
                "end_time": 34.7636364,
                "pitch": 45,
                "velocity": 80,
                "duration": 0.1659091,
                "tempo": 120.0
            },
            {
                "start_time": 34.7977273,
                "end_time": 34.9636364,
                "pitch": 0,
                "velocity": 80,
                "duration": 0.1659091,
                "tempo": 120.0
            },
            {
                "start_time": 34.9977273,
                "end_time": 35.2636364,
                "pitch": 45,
                "velocity": 80,
                "duration": 0.2659091,
                "tempo": 120.0
            },
            {
                "start_time": 35.2977273,
                "end_time": 35.3636364,
                "pitch": 45,
                "velocity": 80,
                "duration": 0.0659091,
                "tempo": 120.0
            },
            {
                "start_time": 35.3977273,
                "end_time": 35.5636364,
                "pitch": 0,
                "velocity": 80,
                "duration": 0.1659091,
                "tempo": 120.0
            },
            {
                "start_time": 35.5977273,
                "end_time": 35.7636364,
                "pitch": 45,
                "velocity": 80,
                "duration": 0.1659091,
                "tempo": 120.0
            },
            {
                "start_time": 35.7977273,
                "end_time": 35.9681818,
                "pitch": 0,
                "velocity": 80,
                "duration": 0.1704545,
                "tempo": 120.0
            },
            {
                "start_time": 36.0022727,
                "end_time": 36.0727273,
                "pitch": 43,
                "velocity": 80,
                "duration": 0.0704545,
                "tempo": 120.0
            },
            {
                "start_time": 36.1068182,
                "end_time": 36.1727273,
                "pitch": 0,
                "velocity": 80,
                "duration": 0.0659091,
                "tempo": 120.0
            },
            {
                "start_time": 36.2068182,
                "end_time": 36.3704545,
                "pitch": 45,
                "velocity": 80,
                "duration": 0.1636364,
                "tempo": 120.0
            },
            {
                "start_time": 36.4022727,
                "end_time": 36.5659091,
                "pitch": 0,
                "velocity": 80,
                "duration": 0.1636364,
                "tempo": 120.0
            },
            {
                "start_time": 36.6,
                "end_time": 36.8659091,
                "pitch": 45,
                "velocity": 80,
                "duration": 0.2659091,
                "tempo": 120.0
            },
            {
                "start_time": 36.9,
                "end_time": 36.9659091,
                "pitch": 40,
                "velocity": 80,
                "duration": 0.0659091,
                "tempo": 120.0
            },
            {
                "start_time": 37.0,
                "end_time": 37.2659091,
                "pitch": 40,
                "velocity": 80,
                "duration": 0.2659091,
                "tempo": 120.0
            },
            {
                "start_time": 37.3,
                "end_time": 37.3659091,
                "pitch": 45,
                "velocity": 80,
                "duration": 0.0659091,
                "tempo": 120.0
            },
            {
                "start_time": 37.4,
                "end_time": 37.6659091,
                "pitch": 45,
                "velocity": 80,
                "duration": 0.2659091,
                "tempo": 120.0
            },
            {
                "start_time": 37.7,
                "end_time": 37.7659091,
                "pitch": 40,
                "velocity": 80,
                "duration": 0.0659091,
                "tempo": 120.0
            },
            {
                "start_time": 37.8,
                "end_time": 37.9681818,
                "pitch": 40,
                "velocity": 80,
                "duration": 0.1681818,
                "tempo": 120.0
            },
            {
                "start_time": 38.0022727,
                "end_time": 38.0681818,
                "pitch": 43,
                "velocity": 80,
                "duration": 0.0659091,
                "tempo": 120.0
            },
            {
                "start_time": 38.1022727,
                "end_time": 38.1681818,
                "pitch": 45,
                "velocity": 80,
                "duration": 0.0659091,
                "tempo": 120.0
            },
            {
                "start_time": 38.2022727,
                "end_time": 38.4681818,
                "pitch": 43,
                "velocity": 80,
                "duration": 0.2659091,
                "tempo": 120.0
            },
            {
                "start_time": 38.5022727,
                "end_time": 38.5681818,
                "pitch": 38,
                "velocity": 80,
                "duration": 0.0659091,
                "tempo": 120.0
            },
            {
                "start_time": 38.6022727,
                "end_time": 38.8681818,
                "pitch": 38,
                "velocity": 80,
                "duration": 0.2659091,
                "tempo": 120.0
            },
            {
                "start_time": 38.9022727,
                "end_time": 38.9681818,
                "pitch": 43,
                "velocity": 80,
                "duration": 0.0659091,
                "tempo": 120.0
            },
            {
                "start_time": 39.0022727,
                "end_time": 39.2681818,
                "pitch": 43,
                "velocity": 80,
                "duration": 0.2659091,
                "tempo": 120.0
            },
            {
                "start_time": 39.3022727,
                "end_time": 39.3681818,
                "pitch": 38,
                "velocity": 80,
                "duration": 0.0659091,
                "tempo": 120.0
            },
            {
                "start_time": 39.4022727,
                "end_time": 39.4681818,
                "pitch": 38,
                "velocity": 80,
                "duration": 0.0659091,
                "tempo": 120.0
            },
            {
                "start_time": 39.5022727,
                "end_time": 39.5681818,
                "pitch": 45,
                "velocity": 80,
                "duration": 0.0659091,
                "tempo": 120.0
            },
            {
                "start_time": 39.6022727,
                "end_time": 39.6681818,
                "pitch": 43,
                "velocity": 80,
                "duration": 0.0659091,
                "tempo": 120.0
            },
            {
                "start_time": 39.7022727,
                "end_time": 39.7681818,
                "pitch": 42,
                "velocity": 80,
                "duration": 0.0659091,
                "tempo": 120.0
            },
            {
                "start_time": 39.8022727,
                "end_time": 40.0704545,
                "pitch": 43,
                "velocity": 80,
                "duration": 0.2681818,
                "tempo": 120.0
            },
            {
                "start_time": 40.1045455,
                "end_time": 40.1727273,
                "pitch": 38,
                "velocity": 80,
                "duration": 0.0681818,
                "tempo": 120.0
            },
            {
                "start_time": 40.2045455,
                "end_time": 40.4727273,
                "pitch": 38,
                "velocity": 80,
                "duration": 0.2681818,
                "tempo": 120.0
            },
            {
                "start_time": 40.5045455,
                "end_time": 40.5727273,
                "pitch": 43,
                "velocity": 80,
                "duration": 0.0681818,
                "tempo": 120.0
            },
            {
                "start_time": 40.6045455,
                "end_time": 40.8727273,
                "pitch": 43,
                "velocity": 80,
                "duration": 0.2681818,
                "tempo": 120.0
            },
            {
                "start_time": 40.9045455,
                "end_time": 40.9727273,
                "pitch": 38,
                "velocity": 80,
                "duration": 0.0681818,
                "tempo": 120.0
            },
            {
                "start_time": 41.0045455,
                "end_time": 41.1727273,
                "pitch": 38,
                "velocity": 80,
                "duration": 0.1681818,
                "tempo": 120.0
            },
            {
                "start_time": 41.2045455,
                "end_time": 41.2727273,
                "pitch": 43,
                "velocity": 80,
                "duration": 0.0681818,
                "tempo": 120.0
            },
            {
                "start_time": 41.3045455,
                "end_time": 41.3727273,
                "pitch": 44,
                "velocity": 80,
                "duration": 0.0681818,
                "tempo": 120.0
            },
            {
                "start_time": 41.4045455,
                "end_time": 41.6727273,
                "pitch": 45,
                "velocity": 80,
                "duration": 0.2681818,
                "tempo": 120.0
            },
            {
                "start_time": 41.7045455,
                "end_time": 41.7727273,
                "pitch": 40,
                "velocity": 80,
                "duration": 0.0681818,
                "tempo": 120.0
            },
            {
                "start_time": 41.8045455,
                "end_time": 42.0727273,
                "pitch": 40,
                "velocity": 80,
                "duration": 0.2681818,
                "tempo": 120.0
            },
            {
                "start_time": 42.1068182,
                "end_time": 42.175,
                "pitch": 45,
                "velocity": 80,
                "duration": 0.0681818,
                "tempo": 120.0
            },
            {
                "start_time": 42.2068182,
                "end_time": 42.475,
                "pitch": 45,
                "velocity": 80,
                "duration": 0.2681818,
                "tempo": 120.0
            },
            {
                "start_time": 42.5068182,
                "end_time": 42.575,
                "pitch": 40,
                "velocity": 80,
                "duration": 0.0681818,
                "tempo": 120.0
            },
            {
                "start_time": 42.6068182,
                "end_time": 42.775,
                "pitch": 40,
                "velocity": 80,
                "duration": 0.1681818,
                "tempo": 120.0
            },
            {
                "start_time": 42.8068182,
                "end_time": 42.875,
                "pitch": 43,
                "velocity": 80,
                "duration": 0.0681818,
                "tempo": 120.0
            },
            {
                "start_time": 42.9068182,
                "end_time": 42.975,
                "pitch": 45,
                "velocity": 80,
                "duration": 0.0681818,
                "tempo": 120.0
            },
            {
                "start_time": 43.0068182,
                "end_time": 43.275,
                "pitch": 45,
                "velocity": 80,
                "duration": 0.2681818,
                "tempo": 120.0
            },
            {
                "start_time": 43.3068182,
                "end_time": 43.375,
                "pitch": 40,
                "velocity": 80,
                "duration": 0.0681818,
                "tempo": 120.0
            },
            {
                "start_time": 43.4068182,
                "end_time": 43.675,
                "pitch": 40,
                "velocity": 80,
                "duration": 0.2681818,
                "tempo": 120.0
            },
            {
                "start_time": 43.7068182,
                "end_time": 43.775,
                "pitch": 45,
                "velocity": 80,
                "duration": 0.0681818,
                "tempo": 120.0
            },
            {
                "start_time": 43.8090909,
                "end_time": 44.0772727,
                "pitch": 45,
                "velocity": 80,
                "duration": 0.2681818,
                "tempo": 120.0
            },
            {
                "start_time": 44.1090909,
                "end_time": 44.1772727,
                "pitch": 40,
                "velocity": 80,
                "duration": 0.0681818,
                "tempo": 120.0
            },
            {
                "start_time": 44.2113636,
                "end_time": 44.3772727,
                "pitch": 40,
                "velocity": 80,
                "duration": 0.1659091,
                "tempo": 120.0
            },
            {
                "start_time": 44.4113636,
                "end_time": 44.4772727,
                "pitch": 43,
                "velocity": 80,
                "duration": 0.0659091,
                "tempo": 120.0
            },
            {
                "start_time": 44.5113636,
                "end_time": 44.5772727,
                "pitch": 45,
                "velocity": 80,
                "duration": 0.0659091,
                "tempo": 120.0
            },
            {
                "start_time": 44.6113636,
                "end_time": 44.8772727,
                "pitch": 43,
                "velocity": 80,
                "duration": 0.2659091,
                "tempo": 120.0
            },
            {
                "start_time": 44.9113636,
                "end_time": 44.9772727,
                "pitch": 38,
                "velocity": 80,
                "duration": 0.0659091,
                "tempo": 120.0
            },
            {
                "start_time": 45.0113636,
                "end_time": 45.2772727,
                "pitch": 38,
                "velocity": 80,
                "duration": 0.2659091,
                "tempo": 120.0
            },
            {
                "start_time": 45.3113636,
                "end_time": 45.3772727,
                "pitch": 43,
                "velocity": 80,
                "duration": 0.0659091,
                "tempo": 120.0
            },
            {
                "start_time": 45.4113636,
                "end_time": 45.6772727,
                "pitch": 43,
                "velocity": 80,
                "duration": 0.2659091,
                "tempo": 120.0
            },
            {
                "start_time": 45.7113636,
                "end_time": 45.7772727,
                "pitch": 48,
                "velocity": 80,
                "duration": 0.0659091,
                "tempo": 120.0
            },
            {
                "start_time": 45.8113636,
                "end_time": 45.8772727,
                "pitch": 48,
                "velocity": 80,
                "duration": 0.0659091,
                "tempo": 120.0
            },
            {
                "start_time": 45.9113636,
                "end_time": 45.9795455,
                "pitch": 47,
                "velocity": 80,
                "duration": 0.0681818,
                "tempo": 120.0
            },
            {
                "start_time": 46.0113636,
                "end_time": 46.1795455,
                "pitch": 43,
                "velocity": 80,
                "duration": 0.1681818,
                "tempo": 120.0
            },
            {
                "start_time": 46.2136364,
                "end_time": 46.4795455,
                "pitch": 43,
                "velocity": 80,
                "duration": 0.2659091,
                "tempo": 120.0
            },
            {
                "start_time": 46.5136364,
                "end_time": 46.5795455,
                "pitch": 38,
                "velocity": 80,
                "duration": 0.0659091,
                "tempo": 120.0
            },
            {
                "start_time": 46.6136364,
                "end_time": 46.8795455,
                "pitch": 38,
                "velocity": 80,
                "duration": 0.2659091,
                "tempo": 120.0
            },
            {
                "start_time": 46.9136364,
                "end_time": 46.9795455,
                "pitch": 43,
                "velocity": 80,
                "duration": 0.0659091,
                "tempo": 120.0
            },
            {
                "start_time": 47.0136364,
                "end_time": 47.2795455,
                "pitch": 43,
                "velocity": 80,
                "duration": 0.2659091,
                "tempo": 120.0
            },
            {
                "start_time": 47.3136364,
                "end_time": 47.3795455,
                "pitch": 38,
                "velocity": 80,
                "duration": 0.0659091,
                "tempo": 120.0
            },
            {
                "start_time": 47.4136364,
                "end_time": 47.5795455,
                "pitch": 38,
                "velocity": 80,
                "duration": 0.1659091,
                "tempo": 120.0
            },
            {
                "start_time": 47.6136364,
                "end_time": 47.6795455,
                "pitch": 43,
                "velocity": 80,
                "duration": 0.0659091,
                "tempo": 120.0
            },
            {
                "start_time": 47.7136364,
                "end_time": 47.7795455,
                "pitch": 44,
                "velocity": 80,
                "duration": 0.0659091,
                "tempo": 120.0
            },
            {
                "start_time": 47.8136364,
                "end_time": 47.8795455,
                "pitch": 45,
                "velocity": 80,
                "duration": 0.0659091,
                "tempo": 120.0
            },
            {
                "start_time": 47.9136364,
                "end_time": 47.9818182,
                "pitch": 45,
                "velocity": 80,
                "duration": 0.0681818,
                "tempo": 120.0
            },
            {
                "start_time": 48.0136364,
                "end_time": 48.0818182,
                "pitch": 45,
                "velocity": 80,
                "duration": 0.0681818,
                "tempo": 120.0
            },
            {
                "start_time": 48.1159091,
                "end_time": 48.3818182,
                "pitch": 0,
                "velocity": 80,
                "duration": 0.2659091,
                "tempo": 120.0
            },
            {
                "start_time": 48.4159091,
                "end_time": 48.4818182,
                "pitch": 45,
                "velocity": 80,
                "duration": 0.0659091,
                "tempo": 120.0
            },
            {
                "start_time": 48.5159091,
                "end_time": 48.5818182,
                "pitch": 45,
                "velocity": 80,
                "duration": 0.0659091,
                "tempo": 120.0
            },
            {
                "start_time": 48.6159091,
                "end_time": 48.6818182,
                "pitch": 45,
                "velocity": 80,
                "duration": 0.0659091,
                "tempo": 120.0
            },
            {
                "start_time": 48.7159091,
                "end_time": 48.9818182,
                "pitch": 0,
                "velocity": 80,
                "duration": 0.2659091,
                "tempo": 120.0
            },
            {
                "start_time": 49.0159091,
                "end_time": 49.3818182,
                "pitch": 0,
                "velocity": 80,
                "duration": 0.3659091,
                "tempo": 120.0
            },
            {
                "start_time": 49.4159091,
                "end_time": 49.6818182,
                "pitch": 41,
                "velocity": 80,
                "duration": 0.2659091,
                "tempo": 120.0
            },
            {
                "start_time": 49.7159091,
                "end_time": 49.7818182,
                "pitch": 48,
                "velocity": 80,
                "duration": 0.0659091,
                "tempo": 120.0
            },
            {
                "start_time": 49.8159091,
                "end_time": 49.8840909,
                "pitch": 48,
                "velocity": 80,
                "duration": 0.0681818,
                "tempo": 120.0
            },
            {
                "start_time": 49.9159091,
                "end_time": 50.0840909,
                "pitch": 53,
                "velocity": 80,
                "duration": 0.1681818,
                "tempo": 120.0
            },
            {
                "start_time": 50.1181818,
                "end_time": 50.1840909,
                "pitch": 48,
                "velocity": 80,
                "duration": 0.0659091,
                "tempo": 120.0
            },
            {
                "start_time": 50.2181818,
                "end_time": 50.4840909,
                "pitch": 43,
                "velocity": 80,
                "duration": 0.2659091,
                "tempo": 120.0
            },
            {
                "start_time": 50.5181818,
                "end_time": 50.5863636,
                "pitch": 50,
                "velocity": 80,
                "duration": 0.0681818,
                "tempo": 120.0
            },
            {
                "start_time": 50.6204545,
                "end_time": 50.6886364,
                "pitch": 50,
                "velocity": 80,
                "duration": 0.0681818,
                "tempo": 120.0
            },
            {
                "start_time": 50.7227273,
                "end_time": 50.8931818,
                "pitch": 55,
                "velocity": 80,
                "duration": 0.1704545,
                "tempo": 120.0
            },
            {
                "start_time": 50.9272727,
                "end_time": 50.9954545,
                "pitch": 50,
                "velocity": 80,
                "duration": 0.0681818,
                "tempo": 120.0
            },
            {
                "start_time": 51.0272727,
                "end_time": 51.2886364,
                "pitch": 45,
                "velocity": 80,
                "duration": 0.2613636,
                "tempo": 120.0
            },
            {
                "start_time": 51.3227273,
                "end_time": 51.3886364,
                "pitch": 52,
                "velocity": 80,
                "duration": 0.0659091,
                "tempo": 120.0
            },
            {
                "start_time": 51.4227273,
                "end_time": 51.4909091,
                "pitch": 52,
                "velocity": 80,
                "duration": 0.0681818,
                "tempo": 120.0
            },
            {
                "start_time": 51.525,
                "end_time": 51.6954545,
                "pitch": 57,
                "velocity": 80,
                "duration": 0.1704545,
                "tempo": 120.0
            },
            {
                "start_time": 51.7295455,
                "end_time": 51.8931818,
                "pitch": 55,
                "velocity": 80,
                "duration": 0.1636364,
                "tempo": 120.0
            },
            {
                "start_time": 51.925,
                "end_time": 51.9886364,
                "pitch": 52,
                "velocity": 80,
                "duration": 0.0636364,
                "tempo": 120.0
            },
            {
                "start_time": 52.0204545,
                "end_time": 52.0840909,
                "pitch": 52,
                "velocity": 80,
                "duration": 0.0636364,
                "tempo": 120.0
            },
            {
                "start_time": 52.1159091,
                "end_time": 52.1795455,
                "pitch": 59,
                "velocity": 80,
                "duration": 0.0636364,
                "tempo": 120.0
            },
            {
                "start_time": 52.2136364,
                "end_time": 52.5909091,
                "pitch": 57,
                "velocity": 80,
                "duration": 0.3772727,
                "tempo": 120.0
            },
            {
                "start_time": 52.625,
                "end_time": 52.8909091,
                "pitch": 41,
                "velocity": 80,
                "duration": 0.2659091,
                "tempo": 120.0
            },
            {
                "start_time": 52.925,
                "end_time": 52.9909091,
                "pitch": 48,
                "velocity": 80,
                "duration": 0.0659091,
                "tempo": 120.0
            },
            {
                "start_time": 53.025,
                "end_time": 53.0909091,
                "pitch": 48,
                "velocity": 80,
                "duration": 0.0659091,
                "tempo": 120.0
            },
            {
                "start_time": 53.125,
                "end_time": 53.2909091,
                "pitch": 53,
                "velocity": 80,
                "duration": 0.1659091,
                "tempo": 120.0
            },
            {
                "start_time": 53.325,
                "end_time": 53.3909091,
                "pitch": 48,
                "velocity": 80,
                "duration": 0.0659091,
                "tempo": 120.0
            },
            {
                "start_time": 53.425,
                "end_time": 53.6909091,
                "pitch": 43,
                "velocity": 80,
                "duration": 0.2659091,
                "tempo": 120.0
            },
            {
                "start_time": 53.725,
                "end_time": 53.7909091,
                "pitch": 50,
                "velocity": 80,
                "duration": 0.0659091,
                "tempo": 120.0
            },
            {
                "start_time": 53.825,
                "end_time": 53.8931818,
                "pitch": 50,
                "velocity": 80,
                "duration": 0.0681818,
                "tempo": 120.0
            },
            {
                "start_time": 53.9272727,
                "end_time": 54.1,
                "pitch": 55,
                "velocity": 80,
                "duration": 0.1727273,
                "tempo": 120.0
            },
            {
                "start_time": 54.1340909,
                "end_time": 54.2022727,
                "pitch": 50,
                "velocity": 80,
                "duration": 0.0681818,
                "tempo": 120.0
            },
            {
                "start_time": 54.2340909,
                "end_time": 54.4954545,
                "pitch": 45,
                "velocity": 80,
                "duration": 0.2613636,
                "tempo": 120.0
            },
            {
                "start_time": 54.5272727,
                "end_time": 54.5931818,
                "pitch": 52,
                "velocity": 80,
                "duration": 0.0659091,
                "tempo": 120.0
            },
            {
                "start_time": 54.6272727,
                "end_time": 54.6931818,
                "pitch": 52,
                "velocity": 80,
                "duration": 0.0659091,
                "tempo": 120.0
            },
            {
                "start_time": 54.7272727,
                "end_time": 54.8931818,
                "pitch": 59,
                "velocity": 80,
                "duration": 0.1659091,
                "tempo": 120.0
            },
            {
                "start_time": 54.9272727,
                "end_time": 55.1886364,
                "pitch": 57,
                "velocity": 80,
                "duration": 0.2613636,
                "tempo": 120.0
            },
            {
                "start_time": 55.2227273,
                "end_time": 55.3863636,
                "pitch": 57,
                "velocity": 80,
                "duration": 0.1636364,
                "tempo": 120.0
            },
            {
                "start_time": 55.4204545,
                "end_time": 55.5977273,
                "pitch": 57,
                "velocity": 80,
                "duration": 0.1772727,
                "tempo": 120.0
            },
            {
                "start_time": 55.6318182,
                "end_time": 55.8068182,
                "pitch": 55,
                "velocity": 80,
                "duration": 0.175,
                "tempo": 120.0
            },
            {
                "start_time": 55.8386364,
                "end_time": 56.1022727,
                "pitch": 41,
                "velocity": 80,
                "duration": 0.2636364,
                "tempo": 120.0
            },
            {
                "start_time": 56.1340909,
                "end_time": 56.2,
                "pitch": 48,
                "velocity": 80,
                "duration": 0.0659091,
                "tempo": 120.0
            },
            {
                "start_time": 56.2318182,
                "end_time": 56.3,
                "pitch": 48,
                "velocity": 80,
                "duration": 0.0681818,
                "tempo": 120.0
            },
            {
                "start_time": 56.3318182,
                "end_time": 56.5,
                "pitch": 53,
                "velocity": 80,
                "duration": 0.1681818,
                "tempo": 120.0
            },
            {
                "start_time": 56.5318182,
                "end_time": 56.6,
                "pitch": 48,
                "velocity": 80,
                "duration": 0.0681818,
                "tempo": 120.0
            },
            {
                "start_time": 56.6340909,
                "end_time": 56.9068182,
                "pitch": 43,
                "velocity": 80,
                "duration": 0.2727273,
                "tempo": 120.0
            },
            {
                "start_time": 56.9431818,
                "end_time": 57.0113636,
                "pitch": 50,
                "velocity": 80,
                "duration": 0.0681818,
                "tempo": 120.0
            },
            {
                "start_time": 57.0431818,
                "end_time": 57.1113636,
                "pitch": 50,
                "velocity": 80,
                "duration": 0.0681818,
                "tempo": 120.0
            },
            {
                "start_time": 57.1431818,
                "end_time": 57.3113636,
                "pitch": 55,
                "velocity": 80,
                "duration": 0.1681818,
                "tempo": 120.0
            },
            {
                "start_time": 57.3431818,
                "end_time": 57.4090909,
                "pitch": 50,
                "velocity": 80,
                "duration": 0.0659091,
                "tempo": 120.0
            },
            {
                "start_time": 57.4431818,
                "end_time": 57.7045455,
                "pitch": 45,
                "velocity": 80,
                "duration": 0.2613636,
                "tempo": 120.0
            },
            {
                "start_time": 57.7363636,
                "end_time": 57.8022727,
                "pitch": 52,
                "velocity": 80,
                "duration": 0.0659091,
                "tempo": 120.0
            },
            {
                "start_time": 57.8363636,
                "end_time": 57.9045455,
                "pitch": 52,
                "velocity": 80,
                "duration": 0.0681818,
                "tempo": 120.0
            },
            {
                "start_time": 57.9363636,
                "end_time": 58.1045455,
                "pitch": 57,
                "velocity": 80,
                "duration": 0.1681818,
                "tempo": 120.0
            },
            {
                "start_time": 58.1386364,
                "end_time": 58.3022727,
                "pitch": 55,
                "velocity": 80,
                "duration": 0.1636364,
                "tempo": 120.0
            },
            {
                "start_time": 58.3363636,
                "end_time": 58.4,
                "pitch": 52,
                "velocity": 80,
                "duration": 0.0636364,
                "tempo": 120.0
            },
            {
                "start_time": 58.4340909,
                "end_time": 58.4977273,
                "pitch": 52,
                "velocity": 80,
                "duration": 0.0636364,
                "tempo": 120.0
            },
            {
                "start_time": 58.5318182,
                "end_time": 58.5977273,
                "pitch": 59,
                "velocity": 80,
                "duration": 0.0659091,
                "tempo": 120.0
            },
            {
                "start_time": 58.6318182,
                "end_time": 59.0090909,
                "pitch": 57,
                "velocity": 80,
                "duration": 0.3772727,
                "tempo": 120.0
            },
            {
                "start_time": 59.0409091,
                "end_time": 59.3090909,
                "pitch": 41,
                "velocity": 80,
                "duration": 0.2681818,
                "tempo": 120.0
            },
            {
                "start_time": 59.3409091,
                "end_time": 59.4090909,
                "pitch": 48,
                "velocity": 80,
                "duration": 0.0681818,
                "tempo": 120.0
            },
            {
                "start_time": 59.4409091,
                "end_time": 59.5090909,
                "pitch": 48,
                "velocity": 80,
                "duration": 0.0681818,
                "tempo": 120.0
            },
            {
                "start_time": 59.5409091,
                "end_time": 59.7090909,
                "pitch": 53,
                "velocity": 80,
                "duration": 0.1681818,
                "tempo": 120.0
            },
            {
                "start_time": 59.7409091,
                "end_time": 59.8090909,
                "pitch": 48,
                "velocity": 80,
                "duration": 0.0681818,
                "tempo": 120.0
            },
            {
                "start_time": 59.8431818,
                "end_time": 60.1159091,
                "pitch": 43,
                "velocity": 80,
                "duration": 0.2727273,
                "tempo": 120.0
            },
            {
                "start_time": 60.15,
                "end_time": 60.2181818,
                "pitch": 50,
                "velocity": 80,
                "duration": 0.0681818,
                "tempo": 120.0
            },
            {
                "start_time": 60.2522727,
                "end_time": 60.3159091,
                "pitch": 50,
                "velocity": 80,
                "duration": 0.0636364,
                "tempo": 120.0
            },
            {
                "start_time": 60.35,
                "end_time": 60.5136364,
                "pitch": 55,
                "velocity": 80,
                "duration": 0.1636364,
                "tempo": 120.0
            },
            {
                "start_time": 60.5454545,
                "end_time": 60.6113636,
                "pitch": 50,
                "velocity": 80,
                "duration": 0.0659091,
                "tempo": 120.0
            },
            {
                "start_time": 60.6454545,
                "end_time": 60.9181818,
                "pitch": 45,
                "velocity": 80,
                "duration": 0.2727273,
                "tempo": 120.0
            },
            {
                "start_time": 60.9545455,
                "end_time": 61.0204545,
                "pitch": 52,
                "velocity": 80,
                "duration": 0.0659091,
                "tempo": 120.0
            },
            {
                "start_time": 61.0545455,
                "end_time": 61.1181818,
                "pitch": 52,
                "velocity": 80,
                "duration": 0.0636364,
                "tempo": 120.0
            },
            {
                "start_time": 61.1522727,
                "end_time": 61.3159091,
                "pitch": 59,
                "velocity": 80,
                "duration": 0.1636364,
                "tempo": 120.0
            },
            {
                "start_time": 61.3477273,
                "end_time": 61.6136364,
                "pitch": 57,
                "velocity": 80,
                "duration": 0.2659091,
                "tempo": 120.0
            },
            {
                "start_time": 61.6477273,
                "end_time": 61.8136364,
                "pitch": 57,
                "velocity": 80,
                "duration": 0.1659091,
                "tempo": 120.0
            },
            {
                "start_time": 61.8477273,
                "end_time": 62.0159091,
                "pitch": 57,
                "velocity": 80,
                "duration": 0.1681818,
                "tempo": 120.0
            },
            {
                "start_time": 62.0477273,
                "end_time": 62.2159091,
                "pitch": 55,
                "velocity": 80,
                "duration": 0.1681818,
                "tempo": 120.0
            },
            {
                "start_time": 62.25,
                "end_time": 62.4159091,
                "pitch": 57,
                "velocity": 80,
                "duration": 0.1659091,
                "tempo": 120.0
            },
            {
                "start_time": 62.45,
                "end_time": 65.425,
                "pitch": 0,
                "velocity": 80,
                "duration": 2.975,
                "tempo": 120.0
            },
            {
                "start_time": 65.4568182,
                "end_time": 65.725,
                "pitch": 45,
                "velocity": 80,
                "duration": 0.2681818,
                "tempo": 120.0
            },
            {
                "start_time": 65.7568182,
                "end_time": 65.825,
                "pitch": 45,
                "velocity": 80,
                "duration": 0.0681818,
                "tempo": 120.0
            },
            {
                "start_time": 65.8590909,
                "end_time": 66.0295455,
                "pitch": 0,
                "velocity": 80,
                "duration": 0.1704545,
                "tempo": 120.0
            },
            {
                "start_time": 66.0636364,
                "end_time": 66.2363636,
                "pitch": 45,
                "velocity": 80,
                "duration": 0.1727273,
                "tempo": 120.0
            },
            {
                "start_time": 66.2681818,
                "end_time": 66.4363636,
                "pitch": 0,
                "velocity": 80,
                "duration": 0.1681818,
                "tempo": 120.0
            },
            {
                "start_time": 66.4704545,
                "end_time": 66.5363636,
                "pitch": 43,
                "velocity": 80,
                "duration": 0.0659091,
                "tempo": 120.0
            },
            {
                "start_time": 66.5704545,
                "end_time": 66.6386364,
                "pitch": 0,
                "velocity": 80,
                "duration": 0.0681818,
                "tempo": 120.0
            },
            {
                "start_time": 66.6704545,
                "end_time": 66.8340909,
                "pitch": 45,
                "velocity": 80,
                "duration": 0.1636364,
                "tempo": 120.0
            },
            {
                "start_time": 66.8659091,
                "end_time": 67.0295455,
                "pitch": 0,
                "velocity": 80,
                "duration": 0.1636364,
                "tempo": 120.0
            },
            {
                "start_time": 67.0636364,
                "end_time": 67.3318182,
                "pitch": 45,
                "velocity": 80,
                "duration": 0.2681818,
                "tempo": 120.0
            },
            {
                "start_time": 67.3659091,
                "end_time": 67.4340909,
                "pitch": 45,
                "velocity": 80,
                "duration": 0.0681818,
                "tempo": 120.0
            },
            {
                "start_time": 67.4681818,
                "end_time": 67.6386364,
                "pitch": 0,
                "velocity": 80,
                "duration": 0.1704545,
                "tempo": 120.0
            },
            {
                "start_time": 67.6727273,
                "end_time": 67.8431818,
                "pitch": 45,
                "velocity": 80,
                "duration": 0.1704545,
                "tempo": 120.0
            },
            {
                "start_time": 67.8772727,
                "end_time": 68.0431818,
                "pitch": 0,
                "velocity": 80,
                "duration": 0.1659091,
                "tempo": 120.0
            },
            {
                "start_time": 68.0772727,
                "end_time": 68.1431818,
                "pitch": 43,
                "velocity": 80,
                "duration": 0.0659091,
                "tempo": 120.0
            },
            {
                "start_time": 68.1772727,
                "end_time": 68.2431818,
                "pitch": 0,
                "velocity": 80,
                "duration": 0.0659091,
                "tempo": 120.0
            },
            {
                "start_time": 68.2772727,
                "end_time": 68.4386364,
                "pitch": 45,
                "velocity": 80,
                "duration": 0.1613636,
                "tempo": 120.0
            },
            {
                "start_time": 68.4727273,
                "end_time": 68.6363636,
                "pitch": 40,
                "velocity": 80,
                "duration": 0.1636364,
                "tempo": 120.0
            },
            {
                "start_time": 68.6704545,
                "end_time": 68.9386364,
                "pitch": 45,
                "velocity": 80,
                "duration": 0.2681818,
                "tempo": 120.0
            },
            {
                "start_time": 68.9727273,
                "end_time": 69.0386364,
                "pitch": 45,
                "velocity": 80,
                "duration": 0.0659091,
                "tempo": 120.0
            },
            {
                "start_time": 69.0727273,
                "end_time": 69.2454545,
                "pitch": 0,
                "velocity": 80,
                "duration": 0.1727273,
                "tempo": 120.0
            },
            {
                "start_time": 69.2795455,
                "end_time": 69.45,
                "pitch": 45,
                "velocity": 80,
                "duration": 0.1704545,
                "tempo": 120.0
            },
            {
                "start_time": 69.4818182,
                "end_time": 69.6454545,
                "pitch": 0,
                "velocity": 80,
                "duration": 0.1636364,
                "tempo": 120.0
            },
            {
                "start_time": 69.6772727,
                "end_time": 69.7431818,
                "pitch": 43,
                "velocity": 80,
                "duration": 0.0659091,
                "tempo": 120.0
            },
            {
                "start_time": 69.775,
                "end_time": 69.8409091,
                "pitch": 0,
                "velocity": 80,
                "duration": 0.0659091,
                "tempo": 120.0
            },
            {
                "start_time": 69.875,
                "end_time": 70.0431818,
                "pitch": 45,
                "velocity": 80,
                "duration": 0.1681818,
                "tempo": 120.0
            },
            {
                "start_time": 70.0772727,
                "end_time": 70.2431818,
                "pitch": 0,
                "velocity": 80,
                "duration": 0.1659091,
                "tempo": 120.0
            },
            {
                "start_time": 70.2772727,
                "end_time": 70.5431818,
                "pitch": 45,
                "velocity": 80,
                "duration": 0.2659091,
                "tempo": 120.0
            },
            {
                "start_time": 70.5772727,
                "end_time": 70.6454545,
                "pitch": 45,
                "velocity": 80,
                "duration": 0.0681818,
                "tempo": 120.0
            },
            {
                "start_time": 70.6772727,
                "end_time": 70.8454545,
                "pitch": 0,
                "velocity": 80,
                "duration": 0.1681818,
                "tempo": 120.0
            },
            {
                "start_time": 70.8795455,
                "end_time": 71.0477273,
                "pitch": 45,
                "velocity": 80,
                "duration": 0.1681818,
                "tempo": 120.0
            },
            {
                "start_time": 71.0818182,
                "end_time": 71.2522727,
                "pitch": 0,
                "velocity": 80,
                "duration": 0.1704545,
                "tempo": 120.0
            },
            {
                "start_time": 71.2863636,
                "end_time": 71.3545455,
                "pitch": 43,
                "velocity": 80,
                "duration": 0.0681818,
                "tempo": 120.0
            },
            {
                "start_time": 71.3886364,
                "end_time": 71.4568182,
                "pitch": 0,
                "velocity": 80,
                "duration": 0.0681818,
                "tempo": 120.0
            },
            {
                "start_time": 71.4909091,
                "end_time": 71.6545455,
                "pitch": 45,
                "velocity": 80,
                "duration": 0.1636364,
                "tempo": 120.0
            },
            {
                "start_time": 71.6863636,
                "end_time": 71.85,
                "pitch": 0,
                "velocity": 80,
                "duration": 0.1636364,
                "tempo": 120.0
            },
            {
                "start_time": 71.8840909,
                "end_time": 72.1522727,
                "pitch": 45,
                "velocity": 80,
                "duration": 0.2681818,
                "tempo": 120.0
            },
            {
                "start_time": 72.1863636,
                "end_time": 72.2522727,
                "pitch": 40,
                "velocity": 80,
                "duration": 0.0659091,
                "tempo": 120.0
            },
            {
                "start_time": 72.2863636,
                "end_time": 72.5522727,
                "pitch": 40,
                "velocity": 80,
                "duration": 0.2659091,
                "tempo": 120.0
            },
            {
                "start_time": 72.5863636,
                "end_time": 72.6522727,
                "pitch": 45,
                "velocity": 80,
                "duration": 0.0659091,
                "tempo": 120.0
            },
            {
                "start_time": 72.6863636,
                "end_time": 72.9545455,
                "pitch": 45,
                "velocity": 80,
                "duration": 0.2681818,
                "tempo": 120.0
            },
            {
                "start_time": 72.9886364,
                "end_time": 73.0545455,
                "pitch": 40,
                "velocity": 80,
                "duration": 0.0659091,
                "tempo": 120.0
            },
            {
                "start_time": 73.0886364,
                "end_time": 73.2568182,
                "pitch": 40,
                "velocity": 80,
                "duration": 0.1681818,
                "tempo": 120.0
            },
            {
                "start_time": 73.2909091,
                "end_time": 73.3568182,
                "pitch": 43,
                "velocity": 80,
                "duration": 0.0659091,
                "tempo": 120.0
            },
            {
                "start_time": 73.3909091,
                "end_time": 73.4568182,
                "pitch": 45,
                "velocity": 80,
                "duration": 0.0659091,
                "tempo": 120.0
            },
            {
                "start_time": 73.4909091,
                "end_time": 73.7568182,
                "pitch": 43,
                "velocity": 80,
                "duration": 0.2659091,
                "tempo": 120.0
            },
            {
                "start_time": 73.7909091,
                "end_time": 73.8590909,
                "pitch": 38,
                "velocity": 80,
                "duration": 0.0681818,
                "tempo": 120.0
            },
            {
                "start_time": 73.8909091,
                "end_time": 74.1590909,
                "pitch": 38,
                "velocity": 80,
                "duration": 0.2681818,
                "tempo": 120.0
            },
            {
                "start_time": 74.1931818,
                "end_time": 74.2613636,
                "pitch": 43,
                "velocity": 80,
                "duration": 0.0681818,
                "tempo": 120.0
            },
            {
                "start_time": 74.2931818,
                "end_time": 74.5613636,
                "pitch": 43,
                "velocity": 80,
                "duration": 0.2681818,
                "tempo": 120.0
            },
            {
                "start_time": 74.5931818,
                "end_time": 74.6613636,
                "pitch": 38,
                "velocity": 80,
                "duration": 0.0681818,
                "tempo": 120.0
            },
            {
                "start_time": 74.6931818,
                "end_time": 74.7613636,
                "pitch": 38,
                "velocity": 80,
                "duration": 0.0681818,
                "tempo": 120.0
            },
            {
                "start_time": 74.7954545,
                "end_time": 74.8613636,
                "pitch": 45,
                "velocity": 80,
                "duration": 0.0659091,
                "tempo": 120.0
            },
            {
                "start_time": 74.8954545,
                "end_time": 74.9636364,
                "pitch": 43,
                "velocity": 80,
                "duration": 0.0681818,
                "tempo": 120.0
            },
            {
                "start_time": 74.9954545,
                "end_time": 75.0636364,
                "pitch": 42,
                "velocity": 80,
                "duration": 0.0681818,
                "tempo": 120.0
            },
            {
                "start_time": 75.0977273,
                "end_time": 75.3659091,
                "pitch": 43,
                "velocity": 80,
                "duration": 0.2681818,
                "tempo": 120.0
            },
            {
                "start_time": 75.4,
                "end_time": 75.4659091,
                "pitch": 38,
                "velocity": 80,
                "duration": 0.0659091,
                "tempo": 120.0
            },
            {
                "start_time": 75.5,
                "end_time": 75.7659091,
                "pitch": 38,
                "velocity": 80,
                "duration": 0.2659091,
                "tempo": 120.0
            },
            {
                "start_time": 75.8,
                "end_time": 75.8659091,
                "pitch": 43,
                "velocity": 80,
                "duration": 0.0659091,
                "tempo": 120.0
            },
            {
                "start_time": 75.9,
                "end_time": 76.1681818,
                "pitch": 43,
                "velocity": 80,
                "duration": 0.2681818,
                "tempo": 120.0
            },
            {
                "start_time": 76.2022727,
                "end_time": 76.2681818,
                "pitch": 38,
                "velocity": 80,
                "duration": 0.0659091,
                "tempo": 120.0
            },
            {
                "start_time": 76.3022727,
                "end_time": 76.4681818,
                "pitch": 38,
                "velocity": 80,
                "duration": 0.1659091,
                "tempo": 120.0
            },
            {
                "start_time": 76.5022727,
                "end_time": 76.5681818,
                "pitch": 43,
                "velocity": 80,
                "duration": 0.0659091,
                "tempo": 120.0
            },
            {
                "start_time": 76.6022727,
                "end_time": 76.6681818,
                "pitch": 44,
                "velocity": 80,
                "duration": 0.0659091,
                "tempo": 120.0
            },
            {
                "start_time": 76.7022727,
                "end_time": 76.9704545,
                "pitch": 45,
                "velocity": 80,
                "duration": 0.2681818,
                "tempo": 120.0
            },
            {
                "start_time": 77.0045455,
                "end_time": 77.0704545,
                "pitch": 40,
                "velocity": 80,
                "duration": 0.0659091,
                "tempo": 120.0
            },
            {
                "start_time": 77.1045455,
                "end_time": 77.3727273,
                "pitch": 40,
                "velocity": 80,
                "duration": 0.2681818,
                "tempo": 120.0
            },
            {
                "start_time": 77.4068182,
                "end_time": 77.475,
                "pitch": 45,
                "velocity": 80,
                "duration": 0.0681818,
                "tempo": 120.0
            },
            {
                "start_time": 77.5068182,
                "end_time": 77.775,
                "pitch": 45,
                "velocity": 80,
                "duration": 0.2681818,
                "tempo": 120.0
            },
            {
                "start_time": 77.8068182,
                "end_time": 77.875,
                "pitch": 40,
                "velocity": 80,
                "duration": 0.0681818,
                "tempo": 120.0
            },
            {
                "start_time": 77.9068182,
                "end_time": 78.075,
                "pitch": 40,
                "velocity": 80,
                "duration": 0.1681818,
                "tempo": 120.0
            },
            {
                "start_time": 78.1090909,
                "end_time": 78.1772727,
                "pitch": 43,
                "velocity": 80,
                "duration": 0.0681818,
                "tempo": 120.0
            },
            {
                "start_time": 78.2090909,
                "end_time": 78.2772727,
                "pitch": 45,
                "velocity": 80,
                "duration": 0.0681818,
                "tempo": 120.0
            },
            {
                "start_time": 78.3090909,
                "end_time": 78.5772727,
                "pitch": 45,
                "velocity": 80,
                "duration": 0.2681818,
                "tempo": 120.0
            },
            {
                "start_time": 78.6090909,
                "end_time": 78.6772727,
                "pitch": 40,
                "velocity": 80,
                "duration": 0.0681818,
                "tempo": 120.0
            },
            {
                "start_time": 78.7113636,
                "end_time": 78.9795455,
                "pitch": 40,
                "velocity": 80,
                "duration": 0.2681818,
                "tempo": 120.0
            },
            {
                "start_time": 79.0113636,
                "end_time": 79.0795455,
                "pitch": 45,
                "velocity": 80,
                "duration": 0.0681818,
                "tempo": 120.0
            },
            {
                "start_time": 79.1136364,
                "end_time": 79.3818182,
                "pitch": 45,
                "velocity": 80,
                "duration": 0.2681818,
                "tempo": 120.0
            },
            {
                "start_time": 79.4159091,
                "end_time": 79.4818182,
                "pitch": 40,
                "velocity": 80,
                "duration": 0.0659091,
                "tempo": 120.0
            },
            {
                "start_time": 79.5159091,
                "end_time": 79.6818182,
                "pitch": 40,
                "velocity": 80,
                "duration": 0.1659091,
                "tempo": 120.0
            },
            {
                "start_time": 79.7159091,
                "end_time": 79.7818182,
                "pitch": 43,
                "velocity": 80,
                "duration": 0.0659091,
                "tempo": 120.0
            },
            {
                "start_time": 79.8159091,
                "end_time": 79.8818182,
                "pitch": 45,
                "velocity": 80,
                "duration": 0.0659091,
                "tempo": 120.0
            },
            {
                "start_time": 79.9159091,
                "end_time": 80.1840909,
                "pitch": 43,
                "velocity": 80,
                "duration": 0.2681818,
                "tempo": 120.0
            },
            {
                "start_time": 80.2181818,
                "end_time": 80.2840909,
                "pitch": 38,
                "velocity": 80,
                "duration": 0.0659091,
                "tempo": 120.0
            },
            {
                "start_time": 80.3181818,
                "end_time": 80.5840909,
                "pitch": 38,
                "velocity": 80,
                "duration": 0.2659091,
                "tempo": 120.0
            },
            {
                "start_time": 80.6181818,
                "end_time": 80.6840909,
                "pitch": 43,
                "velocity": 80,
                "duration": 0.0659091,
                "tempo": 120.0
            },
            {
                "start_time": 80.7181818,
                "end_time": 80.9863636,
                "pitch": 43,
                "velocity": 80,
                "duration": 0.2681818,
                "tempo": 120.0
            },
            {
                "start_time": 81.0204545,
                "end_time": 81.0886364,
                "pitch": 48,
                "velocity": 80,
                "duration": 0.0681818,
                "tempo": 120.0
            },
            {
                "start_time": 81.1204545,
                "end_time": 81.1886364,
                "pitch": 48,
                "velocity": 80,
                "duration": 0.0681818,
                "tempo": 120.0
            },
            {
                "start_time": 81.2227273,
                "end_time": 81.2886364,
                "pitch": 47,
                "velocity": 80,
                "duration": 0.0659091,
                "tempo": 120.0
            },
            {
                "start_time": 81.3227273,
                "end_time": 81.4909091,
                "pitch": 43,
                "velocity": 80,
                "duration": 0.1681818,
                "tempo": 120.0
            },
            {
                "start_time": 81.5227273,
                "end_time": 81.7909091,
                "pitch": 43,
                "velocity": 80,
                "duration": 0.2681818,
                "tempo": 120.0
            },
            {
                "start_time": 81.8227273,
                "end_time": 81.8909091,
                "pitch": 38,
                "velocity": 80,
                "duration": 0.0681818,
                "tempo": 120.0
            },
            {
                "start_time": 81.9227273,
                "end_time": 82.1931818,
                "pitch": 38,
                "velocity": 80,
                "duration": 0.2704545,
                "tempo": 120.0
            },
            {
                "start_time": 82.225,
                "end_time": 82.2931818,
                "pitch": 43,
                "velocity": 80,
                "duration": 0.0681818,
                "tempo": 120.0
            },
            {
                "start_time": 82.3272727,
                "end_time": 82.5931818,
                "pitch": 43,
                "velocity": 80,
                "duration": 0.2659091,
                "tempo": 120.0
            },
            {
                "start_time": 82.6272727,
                "end_time": 82.6931818,
                "pitch": 38,
                "velocity": 80,
                "duration": 0.0659091,
                "tempo": 120.0
            },
            {
                "start_time": 82.7272727,
                "end_time": 82.8931818,
                "pitch": 38,
                "velocity": 80,
                "duration": 0.1659091,
                "tempo": 120.0
            },
            {
                "start_time": 82.9272727,
                "end_time": 82.9954545,
                "pitch": 43,
                "velocity": 80,
                "duration": 0.0681818,
                "tempo": 120.0
            },
            {
                "start_time": 83.0295455,
                "end_time": 83.0954545,
                "pitch": 44,
                "velocity": 80,
                "duration": 0.0659091,
                "tempo": 120.0
            },
            {
                "start_time": 83.1295455,
                "end_time": 83.1954545,
                "pitch": 45,
                "velocity": 80,
                "duration": 0.0659091,
                "tempo": 120.0
            },
            {
                "start_time": 83.2295455,
                "end_time": 83.2977273,
                "pitch": 45,
                "velocity": 80,
                "duration": 0.0681818,
                "tempo": 120.0
            },
            {
                "start_time": 83.3295455,
                "end_time": 83.3977273,
                "pitch": 45,
                "velocity": 80,
                "duration": 0.0681818,
                "tempo": 120.0
            },
            {
                "start_time": 83.4318182,
                "end_time": 83.6977273,
                "pitch": 0,
                "velocity": 80,
                "duration": 0.2659091,
                "tempo": 120.0
            },
            {
                "start_time": 83.7318182,
                "end_time": 83.7977273,
                "pitch": 45,
                "velocity": 80,
                "duration": 0.0659091,
                "tempo": 120.0
            },
            {
                "start_time": 83.8318182,
                "end_time": 83.8977273,
                "pitch": 45,
                "velocity": 80,
                "duration": 0.0659091,
                "tempo": 120.0
            },
            {
                "start_time": 83.9318182,
                "end_time": 84.0,
                "pitch": 45,
                "velocity": 80,
                "duration": 0.0681818,
                "tempo": 120.0
            },
            {
                "start_time": 84.0318182,
                "end_time": 84.3,
                "pitch": 0,
                "velocity": 80,
                "duration": 0.2681818,
                "tempo": 120.0
            },
            {
                "start_time": 84.3340909,
                "end_time": 84.7,
                "pitch": 0,
                "velocity": 80,
                "duration": 0.3659091,
                "tempo": 120.0
            },
            {
                "start_time": 84.7340909,
                "end_time": 85.0022727,
                "pitch": 41,
                "velocity": 80,
                "duration": 0.2681818,
                "tempo": 120.0
            },
            {
                "start_time": 85.0363636,
                "end_time": 85.1045455,
                "pitch": 48,
                "velocity": 80,
                "duration": 0.0681818,
                "tempo": 120.0
            },
            {
                "start_time": 85.1363636,
                "end_time": 85.2045455,
                "pitch": 48,
                "velocity": 80,
                "duration": 0.0681818,
                "tempo": 120.0
            },
            {
                "start_time": 85.2386364,
                "end_time": 85.4068182,
                "pitch": 53,
                "velocity": 80,
                "duration": 0.1681818,
                "tempo": 120.0
            },
            {
                "start_time": 85.4386364,
                "end_time": 85.5068182,
                "pitch": 48,
                "velocity": 80,
                "duration": 0.0681818,
                "tempo": 120.0
            },
            {
                "start_time": 85.5386364,
                "end_time": 85.8068182,
                "pitch": 43,
                "velocity": 80,
                "duration": 0.2681818,
                "tempo": 120.0
            },
            {
                "start_time": 85.8386364,
                "end_time": 85.9068182,
                "pitch": 50,
                "velocity": 80,
                "duration": 0.0681818,
                "tempo": 120.0
            },
            {
                "start_time": 85.9409091,
                "end_time": 86.0090909,
                "pitch": 50,
                "velocity": 80,
                "duration": 0.0681818,
                "tempo": 120.0
            },
            {
                "start_time": 86.0431818,
                "end_time": 86.2136364,
                "pitch": 55,
                "velocity": 80,
                "duration": 0.1704545,
                "tempo": 120.0
            },
            {
                "start_time": 86.25,
                "end_time": 86.3159091,
                "pitch": 50,
                "velocity": 80,
                "duration": 0.0659091,
                "tempo": 120.0
            },
            {
                "start_time": 86.35,
                "end_time": 86.6113636,
                "pitch": 45,
                "velocity": 80,
                "duration": 0.2613636,
                "tempo": 120.0
            },
            {
                "start_time": 86.6431818,
                "end_time": 86.7090909,
                "pitch": 52,
                "velocity": 80,
                "duration": 0.0659091,
                "tempo": 120.0
            },
            {
                "start_time": 86.7431818,
                "end_time": 86.8113636,
                "pitch": 52,
                "velocity": 80,
                "duration": 0.0681818,
                "tempo": 120.0
            },
            {
                "start_time": 86.8454545,
                "end_time": 87.0181818,
                "pitch": 57,
                "velocity": 80,
                "duration": 0.1727273,
                "tempo": 120.0
            },
            {
                "start_time": 87.0522727,
                "end_time": 87.2136364,
                "pitch": 55,
                "velocity": 80,
                "duration": 0.1613636,
                "tempo": 120.0
            },
            {
                "start_time": 87.2454545,
                "end_time": 87.3090909,
                "pitch": 52,
                "velocity": 80,
                "duration": 0.0636364,
                "tempo": 120.0
            },
            {
                "start_time": 87.3409091,
                "end_time": 87.4045455,
                "pitch": 52,
                "velocity": 80,
                "duration": 0.0636364,
                "tempo": 120.0
            },
            {
                "start_time": 87.4363636,
                "end_time": 87.5,
                "pitch": 59,
                "velocity": 80,
                "duration": 0.0636364,
                "tempo": 120.0
            },
            {
                "start_time": 87.5363636,
                "end_time": 87.9227273,
                "pitch": 57,
                "velocity": 80,
                "duration": 0.3863636,
                "tempo": 120.0
            },
            {
                "start_time": 87.9545455,
                "end_time": 88.2159091,
                "pitch": 41,
                "velocity": 80,
                "duration": 0.2613636,
                "tempo": 120.0
            },
            {
                "start_time": 88.25,
                "end_time": 88.3136364,
                "pitch": 48,
                "velocity": 80,
                "duration": 0.0636364,
                "tempo": 120.0
            },
            {
                "start_time": 88.3477273,
                "end_time": 88.4136364,
                "pitch": 48,
                "velocity": 80,
                "duration": 0.0659091,
                "tempo": 120.0
            },
            {
                "start_time": 88.4477273,
                "end_time": 88.6136364,
                "pitch": 53,
                "velocity": 80,
                "duration": 0.1659091,
                "tempo": 120.0
            },
            {
                "start_time": 88.6477273,
                "end_time": 88.7159091,
                "pitch": 48,
                "velocity": 80,
                "duration": 0.0681818,
                "tempo": 120.0
            },
            {
                "start_time": 88.7477273,
                "end_time": 89.0159091,
                "pitch": 43,
                "velocity": 80,
                "duration": 0.2681818,
                "tempo": 120.0
            },
            {
                "start_time": 89.05,
                "end_time": 89.1181818,
                "pitch": 50,
                "velocity": 80,
                "duration": 0.0681818,
                "tempo": 120.0
            },
            {
                "start_time": 89.1522727,
                "end_time": 89.2204545,
                "pitch": 50,
                "velocity": 80,
                "duration": 0.0681818,
                "tempo": 120.0
            },
            {
                "start_time": 89.2545455,
                "end_time": 89.425,
                "pitch": 55,
                "velocity": 80,
                "duration": 0.1704545,
                "tempo": 120.0
            },
            {
                "start_time": 89.4590909,
                "end_time": 89.5272727,
                "pitch": 50,
                "velocity": 80,
                "duration": 0.0681818,
                "tempo": 120.0
            },
            {
                "start_time": 89.5613636,
                "end_time": 89.8227273,
                "pitch": 45,
                "velocity": 80,
                "duration": 0.2613636,
                "tempo": 120.0
            },
            {
                "start_time": 89.8545455,
                "end_time": 89.9204545,
                "pitch": 52,
                "velocity": 80,
                "duration": 0.0659091,
                "tempo": 120.0
            },
            {
                "start_time": 89.9545455,
                "end_time": 90.0204545,
                "pitch": 52,
                "velocity": 80,
                "duration": 0.0659091,
                "tempo": 120.0
            },
            {
                "start_time": 90.0545455,
                "end_time": 90.2227273,
                "pitch": 59,
                "velocity": 80,
                "duration": 0.1681818,
                "tempo": 120.0
            },
            {
                "start_time": 90.2568182,
                "end_time": 90.5181818,
                "pitch": 57,
                "velocity": 80,
                "duration": 0.2613636,
                "tempo": 120.0
            },
            {
                "start_time": 90.5522727,
                "end_time": 90.7159091,
                "pitch": 57,
                "velocity": 80,
                "duration": 0.1636364,
                "tempo": 120.0
            },
            {
                "start_time": 90.75,
                "end_time": 90.9272727,
                "pitch": 57,
                "velocity": 80,
                "duration": 0.1772727,
                "tempo": 120.0
            },
            {
                "start_time": 90.9613636,
                "end_time": 91.1363636,
                "pitch": 55,
                "velocity": 80,
                "duration": 0.175,
                "tempo": 120.0
            },
            {
                "start_time": 91.1681818,
                "end_time": 91.4295455,
                "pitch": 41,
                "velocity": 80,
                "duration": 0.2613636,
                "tempo": 120.0
            },
            {
                "start_time": 91.4636364,
                "end_time": 91.5295455,
                "pitch": 48,
                "velocity": 80,
                "duration": 0.0659091,
                "tempo": 120.0
            },
            {
                "start_time": 91.5613636,
                "end_time": 91.6295455,
                "pitch": 48,
                "velocity": 80,
                "duration": 0.0681818,
                "tempo": 120.0
            },
            {
                "start_time": 91.6613636,
                "end_time": 91.8295455,
                "pitch": 53,
                "velocity": 80,
                "duration": 0.1681818,
                "tempo": 120.0
            },
            {
                "start_time": 91.8613636,
                "end_time": 91.9295455,
                "pitch": 48,
                "velocity": 80,
                "duration": 0.0681818,
                "tempo": 120.0
            },
            {
                "start_time": 91.9613636,
                "end_time": 92.2318182,
                "pitch": 43,
                "velocity": 80,
                "duration": 0.2704545,
                "tempo": 120.0
            },
            {
                "start_time": 92.2636364,
                "end_time": 92.3318182,
                "pitch": 50,
                "velocity": 80,
                "duration": 0.0681818,
                "tempo": 120.0
            },
            {
                "start_time": 92.3659091,
                "end_time": 92.4318182,
                "pitch": 50,
                "velocity": 80,
                "duration": 0.0659091,
                "tempo": 120.0
            },
            {
                "start_time": 92.4659091,
                "end_time": 92.6318182,
                "pitch": 55,
                "velocity": 80,
                "duration": 0.1659091,
                "tempo": 120.0
            },
            {
                "start_time": 92.6659091,
                "end_time": 92.7318182,
                "pitch": 50,
                "velocity": 80,
                "duration": 0.0659091,
                "tempo": 120.0
            },
            {
                "start_time": 92.7659091,
                "end_time": 93.0340909,
                "pitch": 45,
                "velocity": 80,
                "duration": 0.2681818,
                "tempo": 120.0
            },
            {
                "start_time": 93.0681818,
                "end_time": 93.1340909,
                "pitch": 52,
                "velocity": 80,
                "duration": 0.0659091,
                "tempo": 120.0
            },
            {
                "start_time": 93.1681818,
                "end_time": 93.2340909,
                "pitch": 52,
                "velocity": 80,
                "duration": 0.0659091,
                "tempo": 120.0
            },
            {
                "start_time": 93.2681818,
                "end_time": 93.4363636,
                "pitch": 57,
                "velocity": 80,
                "duration": 0.1681818,
                "tempo": 120.0
            },
            {
                "start_time": 93.4704545,
                "end_time": 93.6340909,
                "pitch": 55,
                "velocity": 80,
                "duration": 0.1636364,
                "tempo": 120.0
            },
            {
                "start_time": 93.6659091,
                "end_time": 93.7318182,
                "pitch": 52,
                "velocity": 80,
                "duration": 0.0659091,
                "tempo": 120.0
            },
            {
                "start_time": 93.7659091,
                "end_time": 93.8295455,
                "pitch": 52,
                "velocity": 80,
                "duration": 0.0636364,
                "tempo": 120.0
            },
            {
                "start_time": 93.8636364,
                "end_time": 93.9295455,
                "pitch": 59,
                "velocity": 80,
                "duration": 0.0659091,
                "tempo": 120.0
            },
            {
                "start_time": 93.9636364,
                "end_time": 94.35,
                "pitch": 57,
                "velocity": 80,
                "duration": 0.3863636,
                "tempo": 120.0
            },
            {
                "start_time": 94.3818182,
                "end_time": 94.6454545,
                "pitch": 41,
                "velocity": 80,
                "duration": 0.2636364,
                "tempo": 120.0
            },
            {
                "start_time": 94.6772727,
                "end_time": 94.7431818,
                "pitch": 48,
                "velocity": 80,
                "duration": 0.0659091,
                "tempo": 120.0
            },
            {
                "start_time": 94.7772727,
                "end_time": 94.8431818,
                "pitch": 48,
                "velocity": 80,
                "duration": 0.0659091,
                "tempo": 120.0
            },
            {
                "start_time": 94.8772727,
                "end_time": 95.0454545,
                "pitch": 53,
                "velocity": 80,
                "duration": 0.1681818,
                "tempo": 120.0
            },
            {
                "start_time": 95.0772727,
                "end_time": 95.1454545,
                "pitch": 48,
                "velocity": 80,
                "duration": 0.0681818,
                "tempo": 120.0
            },
            {
                "start_time": 95.1795455,
                "end_time": 95.4477273,
                "pitch": 43,
                "velocity": 80,
                "duration": 0.2681818,
                "tempo": 120.0
            },
            {
                "start_time": 95.4818182,
                "end_time": 95.5477273,
                "pitch": 50,
                "velocity": 80,
                "duration": 0.0659091,
                "tempo": 120.0
            },
            {
                "start_time": 95.5818182,
                "end_time": 95.6477273,
                "pitch": 50,
                "velocity": 80,
                "duration": 0.0659091,
                "tempo": 120.0
            },
            {
                "start_time": 95.6818182,
                "end_time": 95.8477273,
                "pitch": 55,
                "velocity": 80,
                "duration": 0.1659091,
                "tempo": 120.0
            },
            {
                "start_time": 95.8818182,
                "end_time": 95.9477273,
                "pitch": 50,
                "velocity": 80,
                "duration": 0.0659091,
                "tempo": 120.0
            },
            {
                "start_time": 95.9795455,
                "end_time": 96.2409091,
                "pitch": 45,
                "velocity": 80,
                "duration": 0.2613636,
                "tempo": 120.0
            },
            {
                "start_time": 96.275,
                "end_time": 96.3409091,
                "pitch": 52,
                "velocity": 80,
                "duration": 0.0659091,
                "tempo": 120.0
            },
            {
                "start_time": 96.375,
                "end_time": 96.4431818,
                "pitch": 52,
                "velocity": 80,
                "duration": 0.0681818,
                "tempo": 120.0
            },
            {
                "start_time": 96.4772727,
                "end_time": 96.6477273,
                "pitch": 59,
                "velocity": 80,
                "duration": 0.1704545,
                "tempo": 120.0
            },
            {
                "start_time": 96.6840909,
                "end_time": 96.9522727,
                "pitch": 57,
                "velocity": 80,
                "duration": 0.2681818,
                "tempo": 120.0
            },
            {
                "start_time": 96.9863636,
                "end_time": 97.1545455,
                "pitch": 57,
                "velocity": 80,
                "duration": 0.1681818,
                "tempo": 120.0
            },
            {
                "start_time": 97.1863636,
                "end_time": 97.3545455,
                "pitch": 57,
                "velocity": 80,
                "duration": 0.1681818,
                "tempo": 120.0
            },
            {
                "start_time": 97.3886364,
                "end_time": 97.5568182,
                "pitch": 55,
                "velocity": 80,
                "duration": 0.1681818,
                "tempo": 120.0
            },
            {
                "start_time": 97.5886364,
                "end_time": 97.7568182,
                "pitch": 57,
                "velocity": 80,
                "duration": 0.1681818,
                "tempo": 120.0
            },
            {
                "start_time": 97.7886364,
                "end_time": 100.7659091,
                "pitch": 0,
                "velocity": 80,
                "duration": 2.9772727,
                "tempo": 120.0
            },
            {
                "start_time": 100.8,
                "end_time": 100.8636364,
                "pitch": 0,
                "velocity": 80,
                "duration": 0.0636364,
                "tempo": 120.0
            },
            {
                "start_time": 100.8977273,
                "end_time": 100.9636364,
                "pitch": 45,
                "velocity": 80,
                "duration": 0.0659091,
                "tempo": 120.0
            },
            {
                "start_time": 100.9954545,
                "end_time": 101.0613636,
                "pitch": 0,
                "velocity": 80,
                "duration": 0.0659091,
                "tempo": 120.0
            },
            {
                "start_time": 101.0931818,
                "end_time": 101.1545455,
                "pitch": 48,
                "velocity": 80,
                "duration": 0.0613636,
                "tempo": 120.0
            },
            {
                "start_time": 101.1863636,
                "end_time": 101.2477273,
                "pitch": 0,
                "velocity": 80,
                "duration": 0.0613636,
                "tempo": 120.0
            },
            {
                "start_time": 101.2795455,
                "end_time": 101.3409091,
                "pitch": 50,
                "velocity": 80,
                "duration": 0.0613636,
                "tempo": 120.0
            },
            {
                "start_time": 101.3727273,
                "end_time": 101.4340909,
                "pitch": 0,
                "velocity": 80,
                "duration": 0.0613636,
                "tempo": 120.0
            },
            {
                "start_time": 101.4636364,
                "end_time": 101.5295455,
                "pitch": 52,
                "velocity": 80,
                "duration": 0.0659091,
                "tempo": 120.0
            },
            {
                "start_time": 101.5636364,
                "end_time": 101.6318182,
                "pitch": 0,
                "velocity": 80,
                "duration": 0.0681818,
                "tempo": 120.0
            },
            {
                "start_time": 101.6659091,
                "end_time": 101.7318182,
                "pitch": 50,
                "velocity": 80,
                "duration": 0.0659091,
                "tempo": 120.0
            },
            {
                "start_time": 101.7659091,
                "end_time": 101.8318182,
                "pitch": 0,
                "velocity": 80,
                "duration": 0.0659091,
                "tempo": 120.0
            },
            {
                "start_time": 101.8659091,
                "end_time": 101.9295455,
                "pitch": 52,
                "velocity": 80,
                "duration": 0.0636364,
                "tempo": 120.0
            },
            {
                "start_time": 101.9613636,
                "end_time": 102.025,
                "pitch": 0,
                "velocity": 80,
                "duration": 0.0636364,
                "tempo": 120.0
            },
            {
                "start_time": 102.0568182,
                "end_time": 102.1204545,
                "pitch": 55,
                "velocity": 80,
                "duration": 0.0636364,
                "tempo": 120.0
            },
            {
                "start_time": 102.1522727,
                "end_time": 102.2159091,
                "pitch": 0,
                "velocity": 80,
                "duration": 0.0636364,
                "tempo": 120.0
            },
            {
                "start_time": 102.2454545,
                "end_time": 102.3045455,
                "pitch": 57,
                "velocity": 80,
                "duration": 0.0590909,
                "tempo": 120.0
            },
            {
                "start_time": 102.3363636,
                "end_time": 102.3954545,
                "pitch": 0,
                "velocity": 80,
                "duration": 0.0590909,
                "tempo": 120.0
            },
            {
                "start_time": 102.425,
                "end_time": 102.4863636,
                "pitch": 57,
                "velocity": 80,
                "duration": 0.0613636,
                "tempo": 120.0
            },
            {
                "start_time": 102.5159091,
                "end_time": 102.5772727,
                "pitch": 0,
                "velocity": 80,
                "duration": 0.0613636,
                "tempo": 120.0
            },
            {
                "start_time": 102.6113636,
                "end_time": 102.6795455,
                "pitch": 60,
                "velocity": 80,
                "duration": 0.0681818,
                "tempo": 120.0
            },
            {
                "start_time": 102.7136364,
                "end_time": 102.7795455,
                "pitch": 0,
                "velocity": 80,
                "duration": 0.0659091,
                "tempo": 120.0
            },
            {
                "start_time": 102.8136364,
                "end_time": 102.8795455,
                "pitch": 62,
                "velocity": 80,
                "duration": 0.0659091,
                "tempo": 120.0
            },
            {
                "start_time": 102.9136364,
                "end_time": 102.9818182,
                "pitch": 0,
                "velocity": 80,
                "duration": 0.0681818,
                "tempo": 120.0
            },
            {
                "start_time": 103.0136364,
                "end_time": 103.0818182,
                "pitch": 64,
                "velocity": 80,
                "duration": 0.0681818,
                "tempo": 120.0
            },
            {
                "start_time": 103.1136364,
                "end_time": 103.1818182,
                "pitch": 0,
                "velocity": 80,
                "duration": 0.0681818,
                "tempo": 120.0
            },
            {
                "start_time": 103.2136364,
                "end_time": 103.2818182,
                "pitch": 67,
                "velocity": 80,
                "duration": 0.0681818,
                "tempo": 120.0
            },
            {
                "start_time": 103.3136364,
                "end_time": 103.3795455,
                "pitch": 0,
                "velocity": 80,
                "duration": 0.0659091,
                "tempo": 120.0
            },
            {
                "start_time": 103.4136364,
                "end_time": 103.4772727,
                "pitch": 68,
                "velocity": 80,
                "duration": 0.0636364,
                "tempo": 120.0
            },
            {
                "start_time": 103.5113636,
                "end_time": 103.5772727,
                "pitch": 0,
                "velocity": 80,
                "duration": 0.0659091,
                "tempo": 120.0
            },
            {
                "start_time": 103.6090909,
                "end_time": 105.0863636,
                "pitch": 69,
                "velocity": 80,
                "duration": 1.4772727,
                "tempo": 120.0
            },
            {
                "start_time": 105.1204545,
                "end_time": 105.5931818,
                "pitch": 0,
                "velocity": 80,
                "duration": 0.4727273,
                "tempo": 120.0
            },
            {
                "start_time": 105.6272727,
                "end_time": 105.6954545,
                "pitch": 41,
                "velocity": 80,
                "duration": 0.0681818,
                "tempo": 120.0
            },
            {
                "start_time": 105.7295455,
                "end_time": 105.7977273,
                "pitch": 0,
                "velocity": 80,
                "duration": 0.0681818,
                "tempo": 120.0
            },
            {
                "start_time": 105.8318182,
                "end_time": 105.9068182,
                "pitch": 53,
                "velocity": 80,
                "duration": 0.075,
                "tempo": 120.0
            },
            {
                "start_time": 105.9431818,
                "end_time": 106.2363636,
                "pitch": 0,
                "velocity": 80,
                "duration": 0.2931818,
                "tempo": 120.0
            },
            {
                "start_time": 106.2727273,
                "end_time": 106.3431818,
                "pitch": 43,
                "velocity": 80,
                "duration": 0.0704545,
                "tempo": 120.0
            },
            {
                "start_time": 106.3772727,
                "end_time": 106.4454545,
                "pitch": 0,
                "velocity": 80,
                "duration": 0.0681818,
                "tempo": 120.0
            },
            {
                "start_time": 106.4795455,
                "end_time": 106.5477273,
                "pitch": 55,
                "velocity": 80,
                "duration": 0.0681818,
                "tempo": 120.0
            },
            {
                "start_time": 106.5818182,
                "end_time": 107.2863636,
                "pitch": 0,
                "velocity": 80,
                "duration": 0.7045455,
                "tempo": 120.0
            },
            {
                "start_time": 107.3181818,
                "end_time": 107.3863636,
                "pitch": 43,
                "velocity": 80,
                "duration": 0.0681818,
                "tempo": 120.0
            },
            {
                "start_time": 107.4204545,
                "end_time": 107.4863636,
                "pitch": 0,
                "velocity": 80,
                "duration": 0.0659091,
                "tempo": 120.0
            },
            {
                "start_time": 107.5204545,
                "end_time": 107.5886364,
                "pitch": 55,
                "velocity": 80,
                "duration": 0.0681818,
                "tempo": 120.0
            },
            {
                "start_time": 107.6227273,
                "end_time": 107.9045455,
                "pitch": 0,
                "velocity": 80,
                "duration": 0.2818182,
                "tempo": 120.0
            },
            {
                "start_time": 107.9409091,
                "end_time": 108.0090909,
                "pitch": 45,
                "velocity": 80,
                "duration": 0.0681818,
                "tempo": 120.0
            },
            {
                "start_time": 108.0431818,
                "end_time": 108.1090909,
                "pitch": 0,
                "velocity": 80,
                "duration": 0.0659091,
                "tempo": 120.0
            },
            {
                "start_time": 108.1431818,
                "end_time": 108.2090909,
                "pitch": 57,
                "velocity": 80,
                "duration": 0.0659091,
                "tempo": 120.0
            },
            {
                "start_time": 108.2431818,
                "end_time": 108.9,
                "pitch": 0,
                "velocity": 80,
                "duration": 0.6568182,
                "tempo": 120.0
            },
            {
                "start_time": 108.9318182,
                "end_time": 108.9977273,
                "pitch": 41,
                "velocity": 80,
                "duration": 0.0659091,
                "tempo": 120.0
            },
            {
                "start_time": 109.0295455,
                "end_time": 109.0954545,
                "pitch": 0,
                "velocity": 80,
                "duration": 0.0659091,
                "tempo": 120.0
            },
            {
                "start_time": 109.1295455,
                "end_time": 109.1954545,
                "pitch": 53,
                "velocity": 80,
                "duration": 0.0659091,
                "tempo": 120.0
            },
            {
                "start_time": 109.2295455,
                "end_time": 109.5113636,
                "pitch": 0,
                "velocity": 80,
                "duration": 0.2818182,
                "tempo": 120.0
            },
            {
                "start_time": 109.5454545,
                "end_time": 109.6136364,
                "pitch": 43,
                "velocity": 80,
                "duration": 0.0681818,
                "tempo": 120.0
            },
            {
                "start_time": 109.6454545,
                "end_time": 109.7090909,
                "pitch": 0,
                "velocity": 80,
                "duration": 0.0636364,
                "tempo": 120.0
            },
            {
                "start_time": 109.7409091,
                "end_time": 109.8045455,
                "pitch": 55,
                "velocity": 80,
                "duration": 0.0636364,
                "tempo": 120.0
            },
            {
                "start_time": 109.8363636,
                "end_time": 110.5045455,
                "pitch": 0,
                "velocity": 80,
                "duration": 0.6681818,
                "tempo": 120.0
            },
            {
                "start_time": 110.5386364,
                "end_time": 110.6045455,
                "pitch": 43,
                "velocity": 80,
                "duration": 0.0659091,
                "tempo": 120.0
            },
            {
                "start_time": 110.6363636,
                "end_time": 110.7022727,
                "pitch": 0,
                "velocity": 80,
                "duration": 0.0659091,
                "tempo": 120.0
            },
            {
                "start_time": 110.7340909,
                "end_time": 110.8,
                "pitch": 55,
                "velocity": 80,
                "duration": 0.0659091,
                "tempo": 120.0
            },
            {
                "start_time": 110.8340909,
                "end_time": 111.1159091,
                "pitch": 0,
                "velocity": 80,
                "duration": 0.2818182,
                "tempo": 120.0
            },
            {
                "start_time": 111.1522727,
                "end_time": 111.2227273,
                "pitch": 45,
                "velocity": 80,
                "duration": 0.0704545,
                "tempo": 120.0
            },
            {
                "start_time": 111.2545455,
                "end_time": 111.3227273,
                "pitch": 0,
                "velocity": 80,
                "duration": 0.0681818,
                "tempo": 120.0
            },
            {
                "start_time": 111.3545455,
                "end_time": 111.4227273,
                "pitch": 57,
                "velocity": 80,
                "duration": 0.0681818,
                "tempo": 120.0
            },
            {
                "start_time": 111.4545455,
                "end_time": 111.7204545,
                "pitch": 0,
                "velocity": 80,
                "duration": 0.2659091,
                "tempo": 120.0
            },
            {
                "start_time": 111.7522727,
                "end_time": 114.2227273,
                "pitch": 40,
                "velocity": 80,
                "duration": 2.4704545,
                "tempo": 120.0
            },
            {
                "start_time": 114.2568182,
                "end_time": 114.325,
                "pitch": 0,
                "velocity": 80,
                "duration": 0.0681818,
                "tempo": 120.0
            },
            {
                "start_time": 114.3590909,
                "end_time": 114.4272727,
                "pitch": 40,
                "velocity": 80,
                "duration": 0.0681818,
                "tempo": 120.0
            },
            {
                "start_time": 114.4590909,
                "end_time": 114.5272727,
                "pitch": 40,
                "velocity": 80,
                "duration": 0.0681818,
                "tempo": 120.0
            },
            {
                "start_time": 114.5590909,
                "end_time": 114.6272727,
                "pitch": 0,
                "velocity": 80,
                "duration": 0.0681818,
                "tempo": 120.0
            },
            {
                "start_time": 114.6590909,
                "end_time": 114.7272727,
                "pitch": 52,
                "velocity": 80,
                "duration": 0.0681818,
                "tempo": 120.0
            },
            {
                "start_time": 114.7590909,
                "end_time": 114.8272727,
                "pitch": 40,
                "velocity": 80,
                "duration": 0.0681818,
                "tempo": 120.0
            },
            {
                "start_time": 114.8613636,
                "end_time": 114.9272727,
                "pitch": 50,
                "velocity": 80,
                "duration": 0.0659091,
                "tempo": 120.0
            },
            {
                "start_time": 114.9613636,
                "end_time": 115.0272727,
                "pitch": 51,
                "velocity": 80,
                "duration": 0.0659091,
                "tempo": 120.0
            },
            {
                "start_time": 115.0613636,
                "end_time": 115.1295455,
                "pitch": 52,
                "velocity": 80,
                "duration": 0.0681818,
                "tempo": 120.0
            },
            {
                "start_time": 115.1613636,
                "end_time": 115.2295455,
                "pitch": 53,
                "velocity": 80,
                "duration": 0.0681818,
                "tempo": 120.0
            },
            {
                "start_time": 115.2636364,
                "end_time": 115.5318182,
                "pitch": 45,
                "velocity": 80,
                "duration": 0.2681818,
                "tempo": 120.0
            },
            {
                "start_time": 115.5659091,
                "end_time": 115.6318182,
                "pitch": 52,
                "velocity": 80,
                "duration": 0.0659091,
                "tempo": 120.0
            },
            {
                "start_time": 115.6659091,
                "end_time": 115.9318182,
                "pitch": 52,
                "velocity": 80,
                "duration": 0.2659091,
                "tempo": 120.0
            },
            {
                "start_time": 115.9659091,
                "end_time": 116.0318182,
                "pitch": 57,
                "velocity": 80,
                "duration": 0.0659091,
                "tempo": 120.0
            },
            {
                "start_time": 116.0659091,
                "end_time": 116.3409091,
                "pitch": 57,
                "velocity": 80,
                "duration": 0.275,
                "tempo": 120.0
            },
            {
                "start_time": 116.375,
                "end_time": 116.4431818,
                "pitch": 52,
                "velocity": 80,
                "duration": 0.0681818,
                "tempo": 120.0
            },
            {
                "start_time": 116.475,
                "end_time": 116.6386364,
                "pitch": 52,
                "velocity": 80,
                "duration": 0.1636364,
                "tempo": 120.0
            },
            {
                "start_time": 116.6704545,
                "end_time": 116.8340909,
                "pitch": 45,
                "velocity": 80,
                "duration": 0.1636364,
                "tempo": 120.0
            },
            {
                "start_time": 116.8681818,
                "end_time": 117.1363636,
                "pitch": 50,
                "velocity": 80,
                "duration": 0.2681818,
                "tempo": 120.0
            },
            {
                "start_time": 117.1704545,
                "end_time": 117.2386364,
                "pitch": 57,
                "velocity": 80,
                "duration": 0.0681818,
                "tempo": 120.0
            },
            {
                "start_time": 117.2704545,
                "end_time": 117.5386364,
                "pitch": 57,
                "velocity": 80,
                "duration": 0.2681818,
                "tempo": 120.0
            },
            {
                "start_time": 117.5727273,
                "end_time": 117.6409091,
                "pitch": 62,
                "velocity": 80,
                "duration": 0.0681818,
                "tempo": 120.0
            },
            {
                "start_time": 117.675,
                "end_time": 117.9477273,
                "pitch": 62,
                "velocity": 80,
                "duration": 0.2727273,
                "tempo": 120.0
            },
            {
                "start_time": 117.9840909,
                "end_time": 118.05,
                "pitch": 57,
                "velocity": 80,
                "duration": 0.0659091,
                "tempo": 120.0
            },
            {
                "start_time": 118.0840909,
                "end_time": 118.1477273,
                "pitch": 57,
                "velocity": 80,
                "duration": 0.0636364,
                "tempo": 120.0
            },
            {
                "start_time": 118.1818182,
                "end_time": 118.4431818,
                "pitch": 50,
                "velocity": 80,
                "duration": 0.2613636,
                "tempo": 120.0
            },
            {
                "start_time": 118.4772727,
                "end_time": 118.7431818,
                "pitch": 45,
                "velocity": 80,
                "duration": 0.2659091,
                "tempo": 120.0
            },
            {
                "start_time": 118.7772727,
                "end_time": 118.8431818,
                "pitch": 52,
                "velocity": 80,
                "duration": 0.0659091,
                "tempo": 120.0
            },
            {
                "start_time": 118.8772727,
                "end_time": 119.1454545,
                "pitch": 52,
                "velocity": 80,
                "duration": 0.2681818,
                "tempo": 120.0
            },
            {
                "start_time": 119.1795455,
                "end_time": 119.2454545,
                "pitch": 57,
                "velocity": 80,
                "duration": 0.0659091,
                "tempo": 120.0
            },
            {
                "start_time": 119.2795455,
                "end_time": 119.5545455,
                "pitch": 57,
                "velocity": 80,
                "duration": 0.275,
                "tempo": 120.0
            },
            {
                "start_time": 119.5886364,
                "end_time": 119.6568182,
                "pitch": 52,
                "velocity": 80,
                "duration": 0.0681818,
                "tempo": 120.0
            },
            {
                "start_time": 119.6886364,
                "end_time": 119.8522727,
                "pitch": 52,
                "velocity": 80,
                "duration": 0.1636364,
                "tempo": 120.0
            },
            {
                "start_time": 119.8840909,
                "end_time": 120.05,
                "pitch": 45,
                "velocity": 80,
                "duration": 0.1659091,
                "tempo": 120.0
            },
            {
                "start_time": 120.0818182,
                "end_time": 120.35,
                "pitch": 50,
                "velocity": 80,
                "duration": 0.2681818,
                "tempo": 120.0
            },
            {
                "start_time": 120.3840909,
                "end_time": 120.4522727,
                "pitch": 57,
                "velocity": 80,
                "duration": 0.0681818,
                "tempo": 120.0
            },
            {
                "start_time": 120.4840909,
                "end_time": 120.7522727,
                "pitch": 57,
                "velocity": 80,
                "duration": 0.2681818,
                "tempo": 120.0
            },
            {
                "start_time": 120.7840909,
                "end_time": 120.8522727,
                "pitch": 62,
                "velocity": 80,
                "duration": 0.0681818,
                "tempo": 120.0
            },
            {
                "start_time": 120.8863636,
                "end_time": 120.9545455,
                "pitch": 62,
                "velocity": 80,
                "duration": 0.0681818,
                "tempo": 120.0
            },
            {
                "start_time": 120.9886364,
                "end_time": 121.0568182,
                "pitch": 60,
                "velocity": 80,
                "duration": 0.0681818,
                "tempo": 120.0
            },
            {
                "start_time": 121.0909091,
                "end_time": 121.1590909,
                "pitch": 61,
                "velocity": 80,
                "duration": 0.0681818,
                "tempo": 120.0
            },
            {
                "start_time": 121.1931818,
                "end_time": 121.2613636,
                "pitch": 62,
                "velocity": 80,
                "duration": 0.0681818,
                "tempo": 120.0
            },
            {
                "start_time": 121.2954545,
                "end_time": 121.3590909,
                "pitch": 0,
                "velocity": 80,
                "duration": 0.0636364,
                "tempo": 120.0
            },
            {
                "start_time": 121.3931818,
                "end_time": 121.4568182,
                "pitch": 55,
                "velocity": 80,
                "duration": 0.0636364,
                "tempo": 120.0
            },
            {
                "start_time": 121.4909091,
                "end_time": 121.5568182,
                "pitch": 56,
                "velocity": 80,
                "duration": 0.0659091,
                "tempo": 120.0
            },
            {
                "start_time": 121.5886364,
                "end_time": 121.6545455,
                "pitch": 57,
                "velocity": 80,
                "duration": 0.0659091,
                "tempo": 120.0
            },
            {
                "start_time": 121.6886364,
                "end_time": 121.9545455,
                "pitch": 45,
                "velocity": 80,
                "duration": 0.2659091,
                "tempo": 120.0
            },
            {
                "start_time": 121.9886364,
                "end_time": 122.0545455,
                "pitch": 52,
                "velocity": 80,
                "duration": 0.0659091,
                "tempo": 120.0
            },
            {
                "start_time": 122.0886364,
                "end_time": 122.3568182,
                "pitch": 52,
                "velocity": 80,
                "duration": 0.2681818,
                "tempo": 120.0
            },
            {
                "start_time": 122.3909091,
                "end_time": 122.4568182,
                "pitch": 57,
                "velocity": 80,
                "duration": 0.0659091,
                "tempo": 120.0
            },
            {
                "start_time": 122.4909091,
                "end_time": 122.7659091,
                "pitch": 57,
                "velocity": 80,
                "duration": 0.275,
                "tempo": 120.0
            },
            {
                "start_time": 122.8,
                "end_time": 122.8681818,
                "pitch": 52,
                "velocity": 80,
                "duration": 0.0681818,
                "tempo": 120.0
            },
            {
                "start_time": 122.9,
                "end_time": 123.0636364,
                "pitch": 52,
                "velocity": 80,
                "duration": 0.1636364,
                "tempo": 120.0
            },
            {
                "start_time": 123.0954545,
                "end_time": 123.2590909,
                "pitch": 45,
                "velocity": 80,
                "duration": 0.1636364,
                "tempo": 120.0
            },
            {
                "start_time": 123.2931818,
                "end_time": 123.5613636,
                "pitch": 50,
                "velocity": 80,
                "duration": 0.2681818,
                "tempo": 120.0
            },
            {
                "start_time": 123.5954545,
                "end_time": 123.6636364,
                "pitch": 57,
                "velocity": 80,
                "duration": 0.0681818,
                "tempo": 120.0
            },
            {
                "start_time": 123.6954545,
                "end_time": 123.9636364,
                "pitch": 57,
                "velocity": 80,
                "duration": 0.2681818,
                "tempo": 120.0
            },
            {
                "start_time": 123.9954545,
                "end_time": 124.0636364,
                "pitch": 62,
                "velocity": 80,
                "duration": 0.0681818,
                "tempo": 120.0
            },
            {
                "start_time": 124.0977273,
                "end_time": 124.3704545,
                "pitch": 62,
                "velocity": 80,
                "duration": 0.2727273,
                "tempo": 120.0
            },
            {
                "start_time": 124.4045455,
                "end_time": 124.4727273,
                "pitch": 57,
                "velocity": 80,
                "duration": 0.0681818,
                "tempo": 120.0
            },
            {
                "start_time": 124.5045455,
                "end_time": 124.5704545,
                "pitch": 57,
                "velocity": 80,
                "duration": 0.0659091,
                "tempo": 120.0
            },
            {
                "start_time": 124.6045455,
                "end_time": 124.8659091,
                "pitch": 50,
                "velocity": 80,
                "duration": 0.2613636,
                "tempo": 120.0
            },
            {
                "start_time": 124.9,
                "end_time": 125.1681818,
                "pitch": 45,
                "velocity": 80,
                "duration": 0.2681818,
                "tempo": 120.0
            },
            {
                "start_time": 125.2,
                "end_time": 125.2681818,
                "pitch": 52,
                "velocity": 80,
                "duration": 0.0681818,
                "tempo": 120.0
            },
            {
                "start_time": 125.3022727,
                "end_time": 125.5704545,
                "pitch": 52,
                "velocity": 80,
                "duration": 0.2681818,
                "tempo": 120.0
            },
            {
                "start_time": 125.6045455,
                "end_time": 125.6704545,
                "pitch": 57,
                "velocity": 80,
                "duration": 0.0659091,
                "tempo": 120.0
            },
            {
                "start_time": 125.7045455,
                "end_time": 125.9795455,
                "pitch": 57,
                "velocity": 80,
                "duration": 0.275,
                "tempo": 120.0
            },
            {
                "start_time": 126.0136364,
                "end_time": 126.0818182,
                "pitch": 52,
                "velocity": 80,
                "duration": 0.0681818,
                "tempo": 120.0
            },
            {
                "start_time": 126.1136364,
                "end_time": 126.1795455,
                "pitch": 52,
                "velocity": 80,
                "duration": 0.0659091,
                "tempo": 120.0
            },
            {
                "start_time": 126.2113636,
                "end_time": 126.2772727,
                "pitch": 50,
                "velocity": 80,
                "duration": 0.0659091,
                "tempo": 120.0
            },
            {
                "start_time": 126.3090909,
                "end_time": 126.375,
                "pitch": 51,
                "velocity": 80,
                "duration": 0.0659091,
                "tempo": 120.0
            },
            {
                "start_time": 126.4090909,
                "end_time": 126.4727273,
                "pitch": 52,
                "velocity": 80,
                "duration": 0.0636364,
                "tempo": 120.0
            },
            {
                "start_time": 126.5068182,
                "end_time": 126.7727273,
                "pitch": 50,
                "velocity": 80,
                "duration": 0.2659091,
                "tempo": 120.0
            },
            {
                "start_time": 126.8068182,
                "end_time": 126.8727273,
                "pitch": 57,
                "velocity": 80,
                "duration": 0.0659091,
                "tempo": 120.0
            },
            {
                "start_time": 126.9068182,
                "end_time": 127.175,
                "pitch": 57,
                "velocity": 80,
                "duration": 0.2681818,
                "tempo": 120.0
            },
            {
                "start_time": 127.2090909,
                "end_time": 127.275,
                "pitch": 50,
                "velocity": 80,
                "duration": 0.0659091,
                "tempo": 120.0
            },
            {
                "start_time": 127.3090909,
                "end_time": 127.4068182,
                "pitch": 64,
                "velocity": 80,
                "duration": 0.0977273,
                "tempo": 120.0
            },
            {
                "start_time": 127.4386364,
                "end_time": 127.5363636,
                "pitch": 64,
                "velocity": 80,
                "duration": 0.0977273,
                "tempo": 120.0
            },
            {
                "start_time": 127.5704545,
                "end_time": 127.6681818,
                "pitch": 64,
                "velocity": 80,
                "duration": 0.0977273,
                "tempo": 120.0
            },
            {
                "start_time": 127.7022727,
                "end_time": 127.8068182,
                "pitch": 62,
                "velocity": 80,
                "duration": 0.1045455,
                "tempo": 120.0
            },
            {
                "start_time": 127.8409091,
                "end_time": 128.0795455,
                "pitch": 55,
                "velocity": 80,
                "duration": 0.2386364,
                "tempo": 120.0
            },
            {
                "start_time": 128.1136364,
                "end_time": 128.3818182,
                "pitch": 45,
                "velocity": 80,
                "duration": 0.2681818,
                "tempo": 120.0
            },
            {
                "start_time": 128.4159091,
                "end_time": 128.4818182,
                "pitch": 52,
                "velocity": 80,
                "duration": 0.0659091,
                "tempo": 120.0
            },
            {
                "start_time": 128.5159091,
                "end_time": 128.7818182,
                "pitch": 52,
                "velocity": 80,
                "duration": 0.2659091,
                "tempo": 120.0
            },
            {
                "start_time": 128.8159091,
                "end_time": 128.8818182,
                "pitch": 57,
                "velocity": 80,
                "duration": 0.0659091,
                "tempo": 120.0
            },
            {
                "start_time": 128.9159091,
                "end_time": 129.1909091,
                "pitch": 57,
                "velocity": 80,
                "duration": 0.275,
                "tempo": 120.0
            },
            {
                "start_time": 129.225,
                "end_time": 129.2931818,
                "pitch": 52,
                "velocity": 80,
                "duration": 0.0681818,
                "tempo": 120.0
            },
            {
                "start_time": 129.325,
                "end_time": 129.4886364,
                "pitch": 52,
                "velocity": 80,
                "duration": 0.1636364,
                "tempo": 120.0
            },
            {
                "start_time": 129.5204545,
                "end_time": 129.6840909,
                "pitch": 45,
                "velocity": 80,
                "duration": 0.1636364,
                "tempo": 120.0
            },
            {
                "start_time": 129.7181818,
                "end_time": 129.9863636,
                "pitch": 50,
                "velocity": 80,
                "duration": 0.2681818,
                "tempo": 120.0
            },
            {
                "start_time": 130.0204545,
                "end_time": 130.0863636,
                "pitch": 57,
                "velocity": 80,
                "duration": 0.0659091,
                "tempo": 120.0
            },
            {
                "start_time": 130.1204545,
                "end_time": 130.3863636,
                "pitch": 57,
                "velocity": 80,
                "duration": 0.2659091,
                "tempo": 120.0
            },
            {
                "start_time": 130.4204545,
                "end_time": 130.4886364,
                "pitch": 62,
                "velocity": 80,
                "duration": 0.0681818,
                "tempo": 120.0
            },
            {
                "start_time": 130.5227273,
                "end_time": 130.7954545,
                "pitch": 62,
                "velocity": 80,
                "duration": 0.2727273,
                "tempo": 120.0
            },
            {
                "start_time": 130.8295455,
                "end_time": 130.8977273,
                "pitch": 57,
                "velocity": 80,
                "duration": 0.0681818,
                "tempo": 120.0
            },
            {
                "start_time": 130.9295455,
                "end_time": 130.9954545,
                "pitch": 57,
                "velocity": 80,
                "duration": 0.0659091,
                "tempo": 120.0
            },
            {
                "start_time": 131.0295455,
                "end_time": 131.2909091,
                "pitch": 50,
                "velocity": 80,
                "duration": 0.2613636,
                "tempo": 120.0
            },
            {
                "start_time": 131.325,
                "end_time": 131.5931818,
                "pitch": 45,
                "velocity": 80,
                "duration": 0.2681818,
                "tempo": 120.0
            },
            {
                "start_time": 131.625,
                "end_time": 131.6931818,
                "pitch": 52,
                "velocity": 80,
                "duration": 0.0681818,
                "tempo": 120.0
            },
            {
                "start_time": 131.7272727,
                "end_time": 131.9954545,
                "pitch": 52,
                "velocity": 80,
                "duration": 0.2681818,
                "tempo": 120.0
            },
            {
                "start_time": 132.0295455,
                "end_time": 132.0954545,
                "pitch": 57,
                "velocity": 80,
                "duration": 0.0659091,
                "tempo": 120.0
            },
            {
                "start_time": 132.1295455,
                "end_time": 132.4045455,
                "pitch": 57,
                "velocity": 80,
                "duration": 0.275,
                "tempo": 120.0
            },
            {
                "start_time": 132.4386364,
                "end_time": 132.5068182,
                "pitch": 52,
                "velocity": 80,
                "duration": 0.0681818,
                "tempo": 120.0
            },
            {
                "start_time": 132.5386364,
                "end_time": 132.7022727,
                "pitch": 52,
                "velocity": 80,
                "duration": 0.1636364,
                "tempo": 120.0
            },
            {
                "start_time": 132.7340909,
                "end_time": 132.8977273,
                "pitch": 45,
                "velocity": 80,
                "duration": 0.1636364,
                "tempo": 120.0
            },
            {
                "start_time": 132.9318182,
                "end_time": 133.2,
                "pitch": 50,
                "velocity": 80,
                "duration": 0.2681818,
                "tempo": 120.0
            },
            {
                "start_time": 133.2340909,
                "end_time": 133.3022727,
                "pitch": 57,
                "velocity": 80,
                "duration": 0.0681818,
                "tempo": 120.0
            },
            {
                "start_time": 133.3340909,
                "end_time": 133.6022727,
                "pitch": 57,
                "velocity": 80,
                "duration": 0.2681818,
                "tempo": 120.0
            },
            {
                "start_time": 133.6363636,
                "end_time": 133.7045455,
                "pitch": 62,
                "velocity": 80,
                "duration": 0.0681818,
                "tempo": 120.0
            },
            {
                "start_time": 133.7386364,
                "end_time": 133.8068182,
                "pitch": 62,
                "velocity": 80,
                "duration": 0.0681818,
                "tempo": 120.0
            },
            {
                "start_time": 133.8409091,
                "end_time": 133.9090909,
                "pitch": 60,
                "velocity": 80,
                "duration": 0.0681818,
                "tempo": 120.0
            },
            {
                "start_time": 133.9431818,
                "end_time": 134.0113636,
                "pitch": 61,
                "velocity": 80,
                "duration": 0.0681818,
                "tempo": 120.0
            },
            {
                "start_time": 134.0477273,
                "end_time": 134.1136364,
                "pitch": 62,
                "velocity": 80,
                "duration": 0.0659091,
                "tempo": 120.0
            },
            {
                "start_time": 134.1477273,
                "end_time": 134.2113636,
                "pitch": 0,
                "velocity": 80,
                "duration": 0.0636364,
                "tempo": 120.0
            },
            {
                "start_time": 134.2454545,
                "end_time": 134.3113636,
                "pitch": 55,
                "velocity": 80,
                "duration": 0.0659091,
                "tempo": 120.0
            },
            {
                "start_time": 134.3431818,
                "end_time": 134.4090909,
                "pitch": 56,
                "velocity": 80,
                "duration": 0.0659091,
                "tempo": 120.0
            },
            {
                "start_time": 134.4409091,
                "end_time": 134.5068182,
                "pitch": 57,
                "velocity": 80,
                "duration": 0.0659091,
                "tempo": 120.0
            },
            {
                "start_time": 134.5409091,
                "end_time": 134.8090909,
                "pitch": 45,
                "velocity": 80,
                "duration": 0.2681818,
                "tempo": 120.0
            },
            {
                "start_time": 134.8431818,
                "end_time": 134.9090909,
                "pitch": 52,
                "velocity": 80,
                "duration": 0.0659091,
                "tempo": 120.0
            },
            {
                "start_time": 134.9431818,
                "end_time": 135.2113636,
                "pitch": 52,
                "velocity": 80,
                "duration": 0.2681818,
                "tempo": 120.0
            },
            {
                "start_time": 135.2454545,
                "end_time": 135.3113636,
                "pitch": 57,
                "velocity": 80,
                "duration": 0.0659091,
                "tempo": 120.0
            },
            {
                "start_time": 135.3477273,
                "end_time": 135.6204545,
                "pitch": 57,
                "velocity": 80,
                "duration": 0.2727273,
                "tempo": 120.0
            },
            {
                "start_time": 135.6545455,
                "end_time": 135.7227273,
                "pitch": 52,
                "velocity": 80,
                "duration": 0.0681818,
                "tempo": 120.0
            },
            {
                "start_time": 135.7545455,
                "end_time": 135.9181818,
                "pitch": 52,
                "velocity": 80,
                "duration": 0.1636364,
                "tempo": 120.0
            },
            {
                "start_time": 135.9522727,
                "end_time": 136.1159091,
                "pitch": 45,
                "velocity": 80,
                "duration": 0.1636364,
                "tempo": 120.0
            },
            {
                "start_time": 136.1477273,
                "end_time": 136.4159091,
                "pitch": 50,
                "velocity": 80,
                "duration": 0.2681818,
                "tempo": 120.0
            },
            {
                "start_time": 136.4477273,
                "end_time": 136.5159091,
                "pitch": 57,
                "velocity": 80,
                "duration": 0.0681818,
                "tempo": 120.0
            },
            {
                "start_time": 136.5477273,
                "end_time": 136.8181818,
                "pitch": 57,
                "velocity": 80,
                "duration": 0.2704545,
                "tempo": 120.0
            },
            {
                "start_time": 136.85,
                "end_time": 136.9181818,
                "pitch": 62,
                "velocity": 80,
                "duration": 0.0681818,
                "tempo": 120.0
            },
            {
                "start_time": 136.9522727,
                "end_time": 137.2272727,
                "pitch": 62,
                "velocity": 80,
                "duration": 0.275,
                "tempo": 120.0
            },
            {
                "start_time": 137.2613636,
                "end_time": 137.3272727,
                "pitch": 57,
                "velocity": 80,
                "duration": 0.0659091,
                "tempo": 120.0
            },
            {
                "start_time": 137.3613636,
                "end_time": 137.4272727,
                "pitch": 57,
                "velocity": 80,
                "duration": 0.0659091,
                "tempo": 120.0
            },
            {
                "start_time": 137.4590909,
                "end_time": 137.7204545,
                "pitch": 50,
                "velocity": 80,
                "duration": 0.2613636,
                "tempo": 120.0
            },
            {
                "start_time": 137.7545455,
                "end_time": 138.0227273,
                "pitch": 45,
                "velocity": 80,
                "duration": 0.2681818,
                "tempo": 120.0
            },
            {
                "start_time": 138.0568182,
                "end_time": 138.1227273,
                "pitch": 52,
                "velocity": 80,
                "duration": 0.0659091,
                "tempo": 120.0
            },
            {
                "start_time": 138.1568182,
                "end_time": 138.4227273,
                "pitch": 52,
                "velocity": 80,
                "duration": 0.2659091,
                "tempo": 120.0
            },
            {
                "start_time": 138.4568182,
                "end_time": 138.5227273,
                "pitch": 57,
                "velocity": 80,
                "duration": 0.0659091,
                "tempo": 120.0
            },
            {
                "start_time": 138.5568182,
                "end_time": 138.8318182,
                "pitch": 57,
                "velocity": 80,
                "duration": 0.275,
                "tempo": 120.0
            },
            {
                "start_time": 138.8659091,
                "end_time": 138.9340909,
                "pitch": 52,
                "velocity": 80,
                "duration": 0.0681818,
                "tempo": 120.0
            },
            {
                "start_time": 138.9659091,
                "end_time": 139.0318182,
                "pitch": 52,
                "velocity": 80,
                "duration": 0.0659091,
                "tempo": 120.0
            },
            {
                "start_time": 139.0636364,
                "end_time": 139.1295455,
                "pitch": 50,
                "velocity": 80,
                "duration": 0.0659091,
                "tempo": 120.0
            },
            {
                "start_time": 139.1636364,
                "end_time": 139.2272727,
                "pitch": 51,
                "velocity": 80,
                "duration": 0.0636364,
                "tempo": 120.0
            },
            {
                "start_time": 139.2613636,
                "end_time": 139.3272727,
                "pitch": 52,
                "velocity": 80,
                "duration": 0.0659091,
                "tempo": 120.0
            },
            {
                "start_time": 139.3590909,
                "end_time": 139.6272727,
                "pitch": 50,
                "velocity": 80,
                "duration": 0.2681818,
                "tempo": 120.0
            },
            {
                "start_time": 139.6613636,
                "end_time": 139.7295455,
                "pitch": 57,
                "velocity": 80,
                "duration": 0.0681818,
                "tempo": 120.0
            },
            {
                "start_time": 139.7636364,
                "end_time": 140.0318182,
                "pitch": 57,
                "velocity": 80,
                "duration": 0.2681818,
                "tempo": 120.0
            },
            {
                "start_time": 140.0636364,
                "end_time": 140.1318182,
                "pitch": 50,
                "velocity": 80,
                "duration": 0.0681818,
                "tempo": 120.0
            },
            {
                "start_time": 140.1659091,
                "end_time": 140.2318182,
                "pitch": 50,
                "velocity": 80,
                "duration": 0.0659091,
                "tempo": 120.0
            },
            {
                "start_time": 140.2659091,
                "end_time": 140.3318182,
                "pitch": 0,
                "velocity": 80,
                "duration": 0.0659091,
                "tempo": 120.0
            },
            {
                "start_time": 140.3659091,
                "end_time": 140.5318182,
                "pitch": 55,
                "velocity": 80,
                "duration": 0.1659091,
                "tempo": 120.0
            },
            {
                "start_time": 140.5659091,
                "end_time": 140.7340909,
                "pitch": 56,
                "velocity": 80,
                "duration": 0.1681818,
                "tempo": 120.0
            },
            {
                "start_time": 140.7659091,
                "end_time": 140.9340909,
                "pitch": 57,
                "velocity": 80,
                "duration": 0.1681818,
                "tempo": 120.0
            },
            {
                "start_time": 140.9681818,
                "end_time": 141.2363636,
                "pitch": 45,
                "velocity": 80,
                "duration": 0.2681818,
                "tempo": 120.0
            },
            {
                "start_time": 141.2704545,
                "end_time": 141.3363636,
                "pitch": 52,
                "velocity": 80,
                "duration": 0.0659091,
                "tempo": 120.0
            },
            {
                "start_time": 141.3704545,
                "end_time": 141.6386364,
                "pitch": 52,
                "velocity": 80,
                "duration": 0.2681818,
                "tempo": 120.0
            },
            {
                "start_time": 141.6727273,
                "end_time": 141.7409091,
                "pitch": 57,
                "velocity": 80,
                "duration": 0.0681818,
                "tempo": 120.0
            },
            {
                "start_time": 141.775,
                "end_time": 142.0477273,
                "pitch": 57,
                "velocity": 80,
                "duration": 0.2727273,
                "tempo": 120.0
            },
            {
                "start_time": 142.0818182,
                "end_time": 142.15,
                "pitch": 52,
                "velocity": 80,
                "duration": 0.0681818,
                "tempo": 120.0
            },
            {
                "start_time": 142.1818182,
                "end_time": 142.3454545,
                "pitch": 52,
                "velocity": 80,
                "duration": 0.1636364,
                "tempo": 120.0
            },
            {
                "start_time": 142.3795455,
                "end_time": 142.5431818,
                "pitch": 45,
                "velocity": 80,
                "duration": 0.1636364,
                "tempo": 120.0
            },
            {
                "start_time": 142.5772727,
                "end_time": 142.8454545,
                "pitch": 50,
                "velocity": 80,
                "duration": 0.2681818,
                "tempo": 120.0
            },
            {
                "start_time": 142.8772727,
                "end_time": 142.9454545,
                "pitch": 57,
                "velocity": 80,
                "duration": 0.0681818,
                "tempo": 120.0
            },
            {
                "start_time": 142.9795455,
                "end_time": 143.2477273,
                "pitch": 57,
                "velocity": 80,
                "duration": 0.2681818,
                "tempo": 120.0
            },
            {
                "start_time": 143.2818182,
                "end_time": 143.3477273,
                "pitch": 62,
                "velocity": 80,
                "duration": 0.0659091,
                "tempo": 120.0
            },
            {
                "start_time": 143.3818182,
                "end_time": 143.65,
                "pitch": 62,
                "velocity": 80,
                "duration": 0.2681818,
                "tempo": 120.0
            },
            {
                "start_time": 143.6840909,
                "end_time": 143.75,
                "pitch": 57,
                "velocity": 80,
                "duration": 0.0659091,
                "tempo": 120.0
            },
            {
                "start_time": 143.7840909,
                "end_time": 143.8522727,
                "pitch": 57,
                "velocity": 80,
                "duration": 0.0681818,
                "tempo": 120.0
            },
            {
                "start_time": 143.8840909,
                "end_time": 144.1522727,
                "pitch": 50,
                "velocity": 80,
                "duration": 0.2681818,
                "tempo": 120.0
            },
            {
                "start_time": 144.1863636,
                "end_time": 144.4522727,
                "pitch": 45,
                "velocity": 80,
                "duration": 0.2659091,
                "tempo": 120.0
            },
            {
                "start_time": 144.4863636,
                "end_time": 144.5545455,
                "pitch": 52,
                "velocity": 80,
                "duration": 0.0681818,
                "tempo": 120.0
            },
            {
                "start_time": 144.5863636,
                "end_time": 144.8545455,
                "pitch": 52,
                "velocity": 80,
                "duration": 0.2681818,
                "tempo": 120.0
            },
            {
                "start_time": 144.8886364,
                "end_time": 144.9568182,
                "pitch": 57,
                "velocity": 80,
                "duration": 0.0681818,
                "tempo": 120.0
            },
            {
                "start_time": 144.9909091,
                "end_time": 145.2636364,
                "pitch": 57,
                "velocity": 80,
                "duration": 0.2727273,
                "tempo": 120.0
            },
            {
                "start_time": 145.2977273,
                "end_time": 145.3659091,
                "pitch": 52,
                "velocity": 80,
                "duration": 0.0681818,
                "tempo": 120.0
            },
            {
                "start_time": 145.4,
                "end_time": 145.5636364,
                "pitch": 52,
                "velocity": 80,
                "duration": 0.1636364,
                "tempo": 120.0
            },
            {
                "start_time": 145.5954545,
                "end_time": 145.7590909,
                "pitch": 45,
                "velocity": 80,
                "duration": 0.1636364,
                "tempo": 120.0
            },
            {
                "start_time": 145.7931818,
                "end_time": 146.0613636,
                "pitch": 50,
                "velocity": 80,
                "duration": 0.2681818,
                "tempo": 120.0
            },
            {
                "start_time": 146.0954545,
                "end_time": 146.1613636,
                "pitch": 57,
                "velocity": 80,
                "duration": 0.0659091,
                "tempo": 120.0
            },
            {
                "start_time": 146.1954545,
                "end_time": 146.4613636,
                "pitch": 57,
                "velocity": 80,
                "duration": 0.2659091,
                "tempo": 120.0
            },
            {
                "start_time": 146.4954545,
                "end_time": 146.5613636,
                "pitch": 62,
                "velocity": 80,
                "duration": 0.0659091,
                "tempo": 120.0
            },
            {
                "start_time": 146.5954545,
                "end_time": 146.6636364,
                "pitch": 62,
                "velocity": 80,
                "duration": 0.0681818,
                "tempo": 120.0
            },
            {
                "start_time": 146.6977273,
                "end_time": 146.7681818,
                "pitch": 60,
                "velocity": 80,
                "duration": 0.0704545,
                "tempo": 120.0
            },
            {
                "start_time": 146.8022727,
                "end_time": 146.8704545,
                "pitch": 61,
                "velocity": 80,
                "duration": 0.0681818,
                "tempo": 120.0
            },
            {
                "start_time": 146.9045455,
                "end_time": 146.9727273,
                "pitch": 62,
                "velocity": 80,
                "duration": 0.0681818,
                "tempo": 120.0
            },
            {
                "start_time": 147.0045455,
                "end_time": 147.0704545,
                "pitch": 0,
                "velocity": 80,
                "duration": 0.0659091,
                "tempo": 120.0
            },
            {
                "start_time": 147.1022727,
                "end_time": 147.1681818,
                "pitch": 55,
                "velocity": 80,
                "duration": 0.0659091,
                "tempo": 120.0
            },
            {
                "start_time": 147.2,
                "end_time": 147.2659091,
                "pitch": 56,
                "velocity": 80,
                "duration": 0.0659091,
                "tempo": 120.0
            },
            {
                "start_time": 147.2977273,
                "end_time": 147.3636364,
                "pitch": 57,
                "velocity": 80,
                "duration": 0.0659091,
                "tempo": 120.0
            },
            {
                "start_time": 147.3977273,
                "end_time": 147.6659091,
                "pitch": 45,
                "velocity": 80,
                "duration": 0.2681818,
                "tempo": 120.0
            },
            {
                "start_time": 147.7,
                "end_time": 147.7681818,
                "pitch": 52,
                "velocity": 80,
                "duration": 0.0681818,
                "tempo": 120.0
            },
            {
                "start_time": 147.8,
                "end_time": 148.0681818,
                "pitch": 52,
                "velocity": 80,
                "duration": 0.2681818,
                "tempo": 120.0
            },
            {
                "start_time": 148.1022727,
                "end_time": 148.1704545,
                "pitch": 57,
                "velocity": 80,
                "duration": 0.0681818,
                "tempo": 120.0
            },
            {
                "start_time": 148.2045455,
                "end_time": 148.4772727,
                "pitch": 57,
                "velocity": 80,
                "duration": 0.2727273,
                "tempo": 120.0
            },
            {
                "start_time": 148.5136364,
                "end_time": 148.5795455,
                "pitch": 52,
                "velocity": 80,
                "duration": 0.0659091,
                "tempo": 120.0
            },
            {
                "start_time": 148.6136364,
                "end_time": 148.7772727,
                "pitch": 52,
                "velocity": 80,
                "duration": 0.1636364,
                "tempo": 120.0
            },
            {
                "start_time": 148.8090909,
                "end_time": 148.9727273,
                "pitch": 45,
                "velocity": 80,
                "duration": 0.1636364,
                "tempo": 120.0
            },
            {
                "start_time": 149.0068182,
                "end_time": 149.275,
                "pitch": 50,
                "velocity": 80,
                "duration": 0.2681818,
                "tempo": 120.0
            },
            {
                "start_time": 149.3090909,
                "end_time": 149.375,
                "pitch": 57,
                "velocity": 80,
                "duration": 0.0659091,
                "tempo": 120.0
            },
            {
                "start_time": 149.4090909,
                "end_time": 149.6772727,
                "pitch": 57,
                "velocity": 80,
                "duration": 0.2681818,
                "tempo": 120.0
            },
            {
                "start_time": 149.7113636,
                "end_time": 149.7772727,
                "pitch": 62,
                "velocity": 80,
                "duration": 0.0659091,
                "tempo": 120.0
            },
            {
                "start_time": 149.8136364,
                "end_time": 150.0863636,
                "pitch": 62,
                "velocity": 80,
                "duration": 0.2727273,
                "tempo": 120.0
            },
            {
                "start_time": 150.1204545,
                "end_time": 150.1886364,
                "pitch": 57,
                "velocity": 80,
                "duration": 0.0681818,
                "tempo": 120.0
            },
            {
                "start_time": 150.2204545,
                "end_time": 150.2863636,
                "pitch": 57,
                "velocity": 80,
                "duration": 0.0659091,
                "tempo": 120.0
            },
            {
                "start_time": 150.3181818,
                "end_time": 150.5818182,
                "pitch": 50,
                "velocity": 80,
                "duration": 0.2636364,
                "tempo": 120.0
            },
            {
                "start_time": 150.6136364,
                "end_time": 150.8840909,
                "pitch": 45,
                "velocity": 80,
                "duration": 0.2704545,
                "tempo": 120.0
            },
            {
                "start_time": 150.9159091,
                "end_time": 150.9840909,
                "pitch": 52,
                "velocity": 80,
                "duration": 0.0681818,
                "tempo": 120.0
            },
            {
                "start_time": 151.0181818,
                "end_time": 151.2863636,
                "pitch": 52,
                "velocity": 80,
                "duration": 0.2681818,
                "tempo": 120.0
            },
            {
                "start_time": 151.3204545,
                "end_time": 151.3863636,
                "pitch": 57,
                "velocity": 80,
                "duration": 0.0659091,
                "tempo": 120.0
            },
            {
                "start_time": 151.4204545,
                "end_time": 151.6954545,
                "pitch": 57,
                "velocity": 80,
                "duration": 0.275,
                "tempo": 120.0
            },
            {
                "start_time": 151.7295455,
                "end_time": 151.7977273,
                "pitch": 52,
                "velocity": 80,
                "duration": 0.0681818,
                "tempo": 120.0
            },
            {
                "start_time": 151.8295455,
                "end_time": 151.8954545,
                "pitch": 52,
                "velocity": 80,
                "duration": 0.0659091,
                "tempo": 120.0
            },
            {
                "start_time": 151.9272727,
                "end_time": 151.9931818,
                "pitch": 50,
                "velocity": 80,
                "duration": 0.0659091,
                "tempo": 120.0
            },
            {
                "start_time": 152.025,
                "end_time": 152.0909091,
                "pitch": 51,
                "velocity": 80,
                "duration": 0.0659091,
                "tempo": 120.0
            },
            {
                "start_time": 152.1227273,
                "end_time": 152.1886364,
                "pitch": 52,
                "velocity": 80,
                "duration": 0.0659091,
                "tempo": 120.0
            },
            {
                "start_time": 152.2227273,
                "end_time": 152.4886364,
                "pitch": 50,
                "velocity": 80,
                "duration": 0.2659091,
                "tempo": 120.0
            },
            {
                "start_time": 152.5227273,
                "end_time": 152.5886364,
                "pitch": 57,
                "velocity": 80,
                "duration": 0.0659091,
                "tempo": 120.0
            },
            {
                "start_time": 152.6227273,
                "end_time": 152.8909091,
                "pitch": 57,
                "velocity": 80,
                "duration": 0.2681818,
                "tempo": 120.0
            },
            {
                "start_time": 152.925,
                "end_time": 152.9931818,
                "pitch": 50,
                "velocity": 80,
                "duration": 0.0681818,
                "tempo": 120.0
            },
            {
                "start_time": 153.025,
                "end_time": 153.0931818,
                "pitch": 50,
                "velocity": 80,
                "duration": 0.0681818,
                "tempo": 120.0
            },
            {
                "start_time": 153.1272727,
                "end_time": 153.1931818,
                "pitch": 0,
                "velocity": 80,
                "duration": 0.0659091,
                "tempo": 120.0
            },
            {
                "start_time": 153.2272727,
                "end_time": 153.3954545,
                "pitch": 55,
                "velocity": 80,
                "duration": 0.1681818,
                "tempo": 120.0
            },
            {
                "start_time": 153.4272727,
                "end_time": 153.5954545,
                "pitch": 56,
                "velocity": 80,
                "duration": 0.1681818,
                "tempo": 120.0
            },
            {
                "start_time": 153.6295455,
                "end_time": 153.7977273,
                "pitch": 57,
                "velocity": 80,
                "duration": 0.1681818,
                "tempo": 120.0
            },
            {
                "start_time": 153.8318182,
                "end_time": 154.1,
                "pitch": 45,
                "velocity": 80,
                "duration": 0.2681818,
                "tempo": 120.0
            },
            {
                "start_time": 154.1340909,
                "end_time": 154.2,
                "pitch": 52,
                "velocity": 80,
                "duration": 0.0659091,
                "tempo": 120.0
            },
            {
                "start_time": 154.2340909,
                "end_time": 154.5,
                "pitch": 52,
                "velocity": 80,
                "duration": 0.2659091,
                "tempo": 120.0
            },
            {
                "start_time": 154.5340909,
                "end_time": 154.6,
                "pitch": 57,
                "velocity": 80,
                "duration": 0.0659091,
                "tempo": 120.0
            },
            {
                "start_time": 154.6340909,
                "end_time": 154.9090909,
                "pitch": 57,
                "velocity": 80,
                "duration": 0.275,
                "tempo": 120.0
            },
            {
                "start_time": 154.9431818,
                "end_time": 155.0113636,
                "pitch": 52,
                "velocity": 80,
                "duration": 0.0681818,
                "tempo": 120.0
            },
            {
                "start_time": 155.0431818,
                "end_time": 155.2068182,
                "pitch": 52,
                "velocity": 80,
                "duration": 0.1636364,
                "tempo": 120.0
            },
            {
                "start_time": 155.2386364,
                "end_time": 155.4022727,
                "pitch": 45,
                "velocity": 80,
                "duration": 0.1636364,
                "tempo": 120.0
            },
            {
                "start_time": 155.4363636,
                "end_time": 155.7045455,
                "pitch": 50,
                "velocity": 80,
                "duration": 0.2681818,
                "tempo": 120.0
            },
            {
                "start_time": 155.7386364,
                "end_time": 155.8068182,
                "pitch": 57,
                "velocity": 80,
                "duration": 0.0681818,
                "tempo": 120.0
            },
            {
                "start_time": 155.8386364,
                "end_time": 156.1068182,
                "pitch": 57,
                "velocity": 80,
                "duration": 0.2681818,
                "tempo": 120.0
            },
            {
                "start_time": 156.1409091,
                "end_time": 156.2090909,
                "pitch": 62,
                "velocity": 80,
                "duration": 0.0681818,
                "tempo": 120.0
            },
            {
                "start_time": 156.2431818,
                "end_time": 156.5159091,
                "pitch": 62,
                "velocity": 80,
                "duration": 0.2727273,
                "tempo": 120.0
            },
            {
                "start_time": 156.55,
                "end_time": 156.6181818,
                "pitch": 57,
                "velocity": 80,
                "duration": 0.0681818,
                "tempo": 120.0
            },
            {
                "start_time": 156.6522727,
                "end_time": 156.7159091,
                "pitch": 57,
                "velocity": 80,
                "duration": 0.0636364,
                "tempo": 120.0
            },
            {
                "start_time": 156.75,
                "end_time": 157.0113636,
                "pitch": 50,
                "velocity": 80,
                "duration": 0.2613636,
                "tempo": 120.0
            },
            {
                "start_time": 157.0454545,
                "end_time": 157.3136364,
                "pitch": 45,
                "velocity": 80,
                "duration": 0.2681818,
                "tempo": 120.0
            },
            {
                "start_time": 157.3477273,
                "end_time": 157.4136364,
                "pitch": 52,
                "velocity": 80,
                "duration": 0.0659091,
                "tempo": 120.0
            },
            {
                "start_time": 157.4477273,
                "end_time": 157.7159091,
                "pitch": 52,
                "velocity": 80,
                "duration": 0.2681818,
                "tempo": 120.0
            },
            {
                "start_time": 157.75,
                "end_time": 157.8159091,
                "pitch": 57,
                "velocity": 80,
                "duration": 0.0659091,
                "tempo": 120.0
            },
            {
                "start_time": 157.85,
                "end_time": 158.125,
                "pitch": 57,
                "velocity": 80,
                "duration": 0.275,
                "tempo": 120.0
            },
            {
                "start_time": 158.1590909,
                "end_time": 158.2272727,
                "pitch": 52,
                "velocity": 80,
                "duration": 0.0681818,
                "tempo": 120.0
            },
            {
                "start_time": 158.2590909,
                "end_time": 158.4227273,
                "pitch": 52,
                "velocity": 80,
                "duration": 0.1636364,
                "tempo": 120.0
            },
            {
                "start_time": 158.4568182,
                "end_time": 158.6204545,
                "pitch": 45,
                "velocity": 80,
                "duration": 0.1636364,
                "tempo": 120.0
            },
            {
                "start_time": 158.6522727,
                "end_time": 158.9204545,
                "pitch": 50,
                "velocity": 80,
                "duration": 0.2681818,
                "tempo": 120.0
            },
            {
                "start_time": 158.9545455,
                "end_time": 159.0227273,
                "pitch": 57,
                "velocity": 80,
                "duration": 0.0681818,
                "tempo": 120.0
            },
            {
                "start_time": 159.0568182,
                "end_time": 159.325,
                "pitch": 57,
                "velocity": 80,
                "duration": 0.2681818,
                "tempo": 120.0
            },
            {
                "start_time": 159.3568182,
                "end_time": 159.425,
                "pitch": 62,
                "velocity": 80,
                "duration": 0.0681818,
                "tempo": 120.0
            },
            {
                "start_time": 159.4590909,
                "end_time": 159.525,
                "pitch": 62,
                "velocity": 80,
                "duration": 0.0659091,
                "tempo": 120.0
            },
            {
                "start_time": 159.5590909,
                "end_time": 159.6272727,
                "pitch": 60,
                "velocity": 80,
                "duration": 0.0681818,
                "tempo": 120.0
            },
            {
                "start_time": 159.6590909,
                "end_time": 159.7272727,
                "pitch": 61,
                "velocity": 80,
                "duration": 0.0681818,
                "tempo": 120.0
            },
            {
                "start_time": 159.7613636,
                "end_time": 159.8272727,
                "pitch": 62,
                "velocity": 80,
                "duration": 0.0659091,
                "tempo": 120.0
            },
            {
                "start_time": 159.8613636,
                "end_time": 159.9272727,
                "pitch": 0,
                "velocity": 80,
                "duration": 0.0659091,
                "tempo": 120.0
            },
            {
                "start_time": 159.9613636,
                "end_time": 160.0295455,
                "pitch": 55,
                "velocity": 80,
                "duration": 0.0681818,
                "tempo": 120.0
            },
            {
                "start_time": 160.0636364,
                "end_time": 160.1295455,
                "pitch": 56,
                "velocity": 80,
                "duration": 0.0659091,
                "tempo": 120.0
            },
            {
                "start_time": 160.1636364,
                "end_time": 160.2295455,
                "pitch": 57,
                "velocity": 80,
                "duration": 0.0659091,
                "tempo": 120.0
            },
            {
                "start_time": 160.2636364,
                "end_time": 160.5295455,
                "pitch": 45,
                "velocity": 80,
                "duration": 0.2659091,
                "tempo": 120.0
            },
            {
                "start_time": 160.5636364,
                "end_time": 160.6295455,
                "pitch": 52,
                "velocity": 80,
                "duration": 0.0659091,
                "tempo": 120.0
            },
            {
                "start_time": 160.6636364,
                "end_time": 160.9318182,
                "pitch": 52,
                "velocity": 80,
                "duration": 0.2681818,
                "tempo": 120.0
            },
            {
                "start_time": 160.9659091,
                "end_time": 161.0340909,
                "pitch": 57,
                "velocity": 80,
                "duration": 0.0681818,
                "tempo": 120.0
            },
            {
                "start_time": 161.0681818,
                "end_time": 161.3409091,
                "pitch": 57,
                "velocity": 80,
                "duration": 0.2727273,
                "tempo": 120.0
            },
            {
                "start_time": 161.375,
                "end_time": 161.4431818,
                "pitch": 52,
                "velocity": 80,
                "duration": 0.0681818,
                "tempo": 120.0
            },
            {
                "start_time": 161.475,
                "end_time": 161.6386364,
                "pitch": 52,
                "velocity": 80,
                "duration": 0.1636364,
                "tempo": 120.0
            },
            {
                "start_time": 161.6727273,
                "end_time": 161.8363636,
                "pitch": 45,
                "velocity": 80,
                "duration": 0.1636364,
                "tempo": 120.0
            },
            {
                "start_time": 161.8704545,
                "end_time": 162.1386364,
                "pitch": 50,
                "velocity": 80,
                "duration": 0.2681818,
                "tempo": 120.0
            },
            {
                "start_time": 162.1704545,
                "end_time": 162.2386364,
                "pitch": 57,
                "velocity": 80,
                "duration": 0.0681818,
                "tempo": 120.0
            },
            {
                "start_time": 162.2727273,
                "end_time": 162.5386364,
                "pitch": 57,
                "velocity": 80,
                "duration": 0.2659091,
                "tempo": 120.0
            },
            {
                "start_time": 162.5727273,
                "end_time": 162.6386364,
                "pitch": 62,
                "velocity": 80,
                "duration": 0.0659091,
                "tempo": 120.0
            },
            {
                "start_time": 162.6727273,
                "end_time": 162.9477273,
                "pitch": 62,
                "velocity": 80,
                "duration": 0.275,
                "tempo": 120.0
            },
            {
                "start_time": 162.9818182,
                "end_time": 163.0477273,
                "pitch": 57,
                "velocity": 80,
                "duration": 0.0659091,
                "tempo": 120.0
            },
            {
                "start_time": 163.0818182,
                "end_time": 163.1477273,
                "pitch": 57,
                "velocity": 80,
                "duration": 0.0659091,
                "tempo": 120.0
            },
            {
                "start_time": 163.1795455,
                "end_time": 163.4409091,
                "pitch": 50,
                "velocity": 80,
                "duration": 0.2613636,
                "tempo": 120.0
            },
            {
                "start_time": 163.475,
                "end_time": 163.7431818,
                "pitch": 45,
                "velocity": 80,
                "duration": 0.2681818,
                "tempo": 120.0
            },
            {
                "start_time": 163.7772727,
                "end_time": 163.8431818,
                "pitch": 52,
                "velocity": 80,
                "duration": 0.0659091,
                "tempo": 120.0
            },
            {
                "start_time": 163.8772727,
                "end_time": 164.1454545,
                "pitch": 52,
                "velocity": 80,
                "duration": 0.2681818,
                "tempo": 120.0
            },
            {
                "start_time": 164.1795455,
                "end_time": 164.2477273,
                "pitch": 57,
                "velocity": 80,
                "duration": 0.0681818,
                "tempo": 120.0
            },
            {
                "start_time": 164.2795455,
                "end_time": 164.5477273,
                "pitch": 57,
                "velocity": 80,
                "duration": 0.2681818,
                "tempo": 120.0
            },
            {
                "start_time": 164.5795455,
                "end_time": 164.6477273,
                "pitch": 52,
                "velocity": 80,
                "duration": 0.0681818,
                "tempo": 120.0
            },
            {
                "start_time": 164.6795455,
                "end_time": 164.7477273,
                "pitch": 52,
                "velocity": 80,
                "duration": 0.0681818,
                "tempo": 120.0
            },
            {
                "start_time": 164.7818182,
                "end_time": 164.8477273,
                "pitch": 50,
                "velocity": 80,
                "duration": 0.0659091,
                "tempo": 120.0
            },
            {
                "start_time": 164.8818182,
                "end_time": 164.9477273,
                "pitch": 51,
                "velocity": 80,
                "duration": 0.0659091,
                "tempo": 120.0
            },
            {
                "start_time": 164.9818182,
                "end_time": 165.05,
                "pitch": 52,
                "velocity": 80,
                "duration": 0.0681818,
                "tempo": 120.0
            },
            {
                "start_time": 165.0840909,
                "end_time": 165.3522727,
                "pitch": 50,
                "velocity": 80,
                "duration": 0.2681818,
                "tempo": 120.0
            },
            {
                "start_time": 165.3840909,
                "end_time": 165.4522727,
                "pitch": 57,
                "velocity": 80,
                "duration": 0.0681818,
                "tempo": 120.0
            },
            {
                "start_time": 165.4863636,
                "end_time": 165.7545455,
                "pitch": 57,
                "velocity": 80,
                "duration": 0.2681818,
                "tempo": 120.0
            },
            {
                "start_time": 165.7886364,
                "end_time": 165.8545455,
                "pitch": 50,
                "velocity": 80,
                "duration": 0.0659091,
                "tempo": 120.0
            },
            {
                "start_time": 165.8863636,
                "end_time": 165.9522727,
                "pitch": 50,
                "velocity": 80,
                "duration": 0.0659091,
                "tempo": 120.0
            },
            {
                "start_time": 165.9840909,
                "end_time": 166.05,
                "pitch": 0,
                "velocity": 80,
                "duration": 0.0659091,
                "tempo": 120.0
            },
            {
                "start_time": 166.0818182,
                "end_time": 166.2477273,
                "pitch": 55,
                "velocity": 80,
                "duration": 0.1659091,
                "tempo": 120.0
            },
            {
                "start_time": 166.2818182,
                "end_time": 166.4522727,
                "pitch": 56,
                "velocity": 80,
                "duration": 0.1704545,
                "tempo": 120.0
            },
            {
                "start_time": 166.4863636,
                "end_time": 166.6568182,
                "pitch": 57,
                "velocity": 80,
                "duration": 0.1704545,
                "tempo": 120.0
            },
            {
                "start_time": 166.6909091,
                "end_time": 166.7590909,
                "pitch": 0,
                "velocity": 80,
                "duration": 0.0681818,
                "tempo": 120.0
            },
            {
                "start_time": 166.7909091,
                "end_time": 166.8590909,
                "pitch": 45,
                "velocity": 80,
                "duration": 0.0681818,
                "tempo": 120.0
            },
            {
                "start_time": 166.8931818,
                "end_time": 166.9590909,
                "pitch": 0,
                "velocity": 80,
                "duration": 0.0659091,
                "tempo": 120.0
            },
            {
                "start_time": 166.9931818,
                "end_time": 167.0545455,
                "pitch": 48,
                "velocity": 80,
                "duration": 0.0613636,
                "tempo": 120.0
            },
            {
                "start_time": 167.0840909,
                "end_time": 167.1454545,
                "pitch": 0,
                "velocity": 80,
                "duration": 0.0613636,
                "tempo": 120.0
            },
            {
                "start_time": 167.175,
                "end_time": 167.2363636,
                "pitch": 50,
                "velocity": 80,
                "duration": 0.0613636,
                "tempo": 120.0
            },
            {
                "start_time": 167.2659091,
                "end_time": 167.325,
                "pitch": 0,
                "velocity": 80,
                "duration": 0.0590909,
                "tempo": 120.0
            },
            {
                "start_time": 167.3568182,
                "end_time": 167.4227273,
                "pitch": 52,
                "velocity": 80,
                "duration": 0.0659091,
                "tempo": 120.0
            },
            {
                "start_time": 167.4545455,
                "end_time": 167.5227273,
                "pitch": 0,
                "velocity": 80,
                "duration": 0.0681818,
                "tempo": 120.0
            },
            {
                "start_time": 167.5568182,
                "end_time": 167.6227273,
                "pitch": 50,
                "velocity": 80,
                "duration": 0.0659091,
                "tempo": 120.0
            },
            {
                "start_time": 167.6568182,
                "end_time": 167.7227273,
                "pitch": 0,
                "velocity": 80,
                "duration": 0.0659091,
                "tempo": 120.0
            },
            {
                "start_time": 167.7568182,
                "end_time": 167.8204545,
                "pitch": 52,
                "velocity": 80,
                "duration": 0.0636364,
                "tempo": 120.0
            },
            {
                "start_time": 167.8522727,
                "end_time": 167.9159091,
                "pitch": 0,
                "velocity": 80,
                "duration": 0.0636364,
                "tempo": 120.0
            },
            {
                "start_time": 167.9477273,
                "end_time": 168.0113636,
                "pitch": 55,
                "velocity": 80,
                "duration": 0.0636364,
                "tempo": 120.0
            },
            {
                "start_time": 168.0431818,
                "end_time": 168.1068182,
                "pitch": 0,
                "velocity": 80,
                "duration": 0.0636364,
                "tempo": 120.0
            },
            {
                "start_time": 168.1363636,
                "end_time": 168.1977273,
                "pitch": 57,
                "velocity": 80,
                "duration": 0.0613636,
                "tempo": 120.0
            },
            {
                "start_time": 168.2272727,
                "end_time": 168.2863636,
                "pitch": 0,
                "velocity": 80,
                "duration": 0.0590909,
                "tempo": 120.0
            },
            {
                "start_time": 168.3181818,
                "end_time": 168.3772727,
                "pitch": 57,
                "velocity": 80,
                "duration": 0.0590909,
                "tempo": 120.0
            },
            {
                "start_time": 168.4068182,
                "end_time": 168.4704545,
                "pitch": 0,
                "velocity": 80,
                "duration": 0.0636364,
                "tempo": 120.0
            },
            {
                "start_time": 168.5022727,
                "end_time": 168.5704545,
                "pitch": 60,
                "velocity": 80,
                "duration": 0.0681818,
                "tempo": 120.0
            },
            {
                "start_time": 168.6045455,
                "end_time": 168.6704545,
                "pitch": 0,
                "velocity": 80,
                "duration": 0.0659091,
                "tempo": 120.0
            },
            {
                "start_time": 168.7045455,
                "end_time": 168.7704545,
                "pitch": 62,
                "velocity": 80,
                "duration": 0.0659091,
                "tempo": 120.0
            },
            {
                "start_time": 168.8045455,
                "end_time": 168.8727273,
                "pitch": 0,
                "velocity": 80,
                "duration": 0.0681818,
                "tempo": 120.0
            },
            {
                "start_time": 168.9068182,
                "end_time": 168.9727273,
                "pitch": 64,
                "velocity": 80,
                "duration": 0.0659091,
                "tempo": 120.0
            },
            {
                "start_time": 169.0068182,
                "end_time": 169.0727273,
                "pitch": 0,
                "velocity": 80,
                "duration": 0.0659091,
                "tempo": 120.0
            },
            {
                "start_time": 169.1068182,
                "end_time": 169.175,
                "pitch": 67,
                "velocity": 80,
                "duration": 0.0681818,
                "tempo": 120.0
            },
            {
                "start_time": 169.2068182,
                "end_time": 169.275,
                "pitch": 0,
                "velocity": 80,
                "duration": 0.0681818,
                "tempo": 120.0
            },
            {
                "start_time": 169.3068182,
                "end_time": 169.3727273,
                "pitch": 68,
                "velocity": 80,
                "duration": 0.0659091,
                "tempo": 120.0
            },
            {
                "start_time": 169.4045455,
                "end_time": 169.4704545,
                "pitch": 0,
                "velocity": 80,
                "duration": 0.0659091,
                "tempo": 120.0
            },
            {
                "start_time": 169.5022727,
                "end_time": 170.9818182,
                "pitch": 69,
                "velocity": 80,
                "duration": 1.4795455,
                "tempo": 120.0
            },
            {
                "start_time": 171.0159091,
                "end_time": 171.4886364,
                "pitch": 0,
                "velocity": 80,
                "duration": 0.4727273,
                "tempo": 120.0
            },
            {
                "start_time": 171.5227273,
                "end_time": 171.5909091,
                "pitch": 41,
                "velocity": 80,
                "duration": 0.0681818,
                "tempo": 120.0
            },
            {
                "start_time": 171.625,
                "end_time": 171.6954545,
                "pitch": 0,
                "velocity": 80,
                "duration": 0.0704545,
                "tempo": 120.0
            },
            {
                "start_time": 171.7295455,
                "end_time": 171.8022727,
                "pitch": 53,
                "velocity": 80,
                "duration": 0.0727273,
                "tempo": 120.0
            },
            {
                "start_time": 171.8386364,
                "end_time": 172.1340909,
                "pitch": 0,
                "velocity": 80,
                "duration": 0.2954545,
                "tempo": 120.0
            },
            {
                "start_time": 172.1704545,
                "end_time": 172.2363636,
                "pitch": 43,
                "velocity": 80,
                "duration": 0.0659091,
                "tempo": 120.0
            },
            {
                "start_time": 172.2704545,
                "end_time": 172.3386364,
                "pitch": 0,
                "velocity": 80,
                "duration": 0.0681818,
                "tempo": 120.0
            },
            {
                "start_time": 172.3704545,
                "end_time": 172.4386364,
                "pitch": 55,
                "velocity": 80,
                "duration": 0.0681818,
                "tempo": 120.0
            },
            {
                "start_time": 172.4727273,
                "end_time": 173.1818182,
                "pitch": 0,
                "velocity": 80,
                "duration": 0.7090909,
                "tempo": 120.0
            },
            {
                "start_time": 173.2159091,
                "end_time": 173.2818182,
                "pitch": 43,
                "velocity": 80,
                "duration": 0.0659091,
                "tempo": 120.0
            },
            {
                "start_time": 173.3159091,
                "end_time": 173.3840909,
                "pitch": 0,
                "velocity": 80,
                "duration": 0.0681818,
                "tempo": 120.0
            },
            {
                "start_time": 173.4159091,
                "end_time": 173.4840909,
                "pitch": 55,
                "velocity": 80,
                "duration": 0.0681818,
                "tempo": 120.0
            },
            {
                "start_time": 173.5181818,
                "end_time": 173.8,
                "pitch": 0,
                "velocity": 80,
                "duration": 0.2818182,
                "tempo": 120.0
            },
            {
                "start_time": 173.8363636,
                "end_time": 173.9068182,
                "pitch": 45,
                "velocity": 80,
                "duration": 0.0704545,
                "tempo": 120.0
            },
            {
                "start_time": 173.9409091,
                "end_time": 174.0068182,
                "pitch": 0,
                "velocity": 80,
                "duration": 0.0659091,
                "tempo": 120.0
            },
            {
                "start_time": 174.0409091,
                "end_time": 174.1068182,
                "pitch": 57,
                "velocity": 80,
                "duration": 0.0659091,
                "tempo": 120.0
            },
            {
                "start_time": 174.1409091,
                "end_time": 174.8022727,
                "pitch": 0,
                "velocity": 80,
                "duration": 0.6613636,
                "tempo": 120.0
            },
            {
                "start_time": 174.8363636,
                "end_time": 174.9022727,
                "pitch": 41,
                "velocity": 80,
                "duration": 0.0659091,
                "tempo": 120.0
            },
            {
                "start_time": 174.9363636,
                "end_time": 175.0022727,
                "pitch": 0,
                "velocity": 80,
                "duration": 0.0659091,
                "tempo": 120.0
            },
            {
                "start_time": 175.0363636,
                "end_time": 175.1045455,
                "pitch": 53,
                "velocity": 80,
                "duration": 0.0681818,
                "tempo": 120.0
            },
            {
                "start_time": 175.1386364,
                "end_time": 175.4113636,
                "pitch": 0,
                "velocity": 80,
                "duration": 0.2727273,
                "tempo": 120.0
            },
            {
                "start_time": 175.4454545,
                "end_time": 175.5136364,
                "pitch": 43,
                "velocity": 80,
                "duration": 0.0681818,
                "tempo": 120.0
            },
            {
                "start_time": 175.5454545,
                "end_time": 175.6090909,
                "pitch": 0,
                "velocity": 80,
                "duration": 0.0636364,
                "tempo": 120.0
            },
            {
                "start_time": 175.6409091,
                "end_time": 175.7045455,
                "pitch": 55,
                "velocity": 80,
                "duration": 0.0636364,
                "tempo": 120.0
            },
            {
                "start_time": 175.7363636,
                "end_time": 176.4045455,
                "pitch": 0,
                "velocity": 80,
                "duration": 0.6681818,
                "tempo": 120.0
            },
            {
                "start_time": 176.4363636,
                "end_time": 176.5022727,
                "pitch": 43,
                "velocity": 80,
                "duration": 0.0659091,
                "tempo": 120.0
            },
            {
                "start_time": 176.5340909,
                "end_time": 176.6,
                "pitch": 0,
                "velocity": 80,
                "duration": 0.0659091,
                "tempo": 120.0
            },
            {
                "start_time": 176.6318182,
                "end_time": 176.6977273,
                "pitch": 55,
                "velocity": 80,
                "duration": 0.0659091,
                "tempo": 120.0
            },
            {
                "start_time": 176.7340909,
                "end_time": 177.0159091,
                "pitch": 0,
                "velocity": 80,
                "duration": 0.2818182,
                "tempo": 120.0
            },
            {
                "start_time": 177.05,
                "end_time": 177.1204545,
                "pitch": 45,
                "velocity": 80,
                "duration": 0.0704545,
                "tempo": 120.0
            },
            {
                "start_time": 177.1545455,
                "end_time": 177.2204545,
                "pitch": 0,
                "velocity": 80,
                "duration": 0.0659091,
                "tempo": 120.0
            },
            {
                "start_time": 177.2545455,
                "end_time": 177.3204545,
                "pitch": 57,
                "velocity": 80,
                "duration": 0.0659091,
                "tempo": 120.0
            },
            {
                "start_time": 177.3545455,
                "end_time": 177.6181818,
                "pitch": 0,
                "velocity": 80,
                "duration": 0.2636364,
                "tempo": 120.0
            }
        ],
        "Acoustic Guitar (nylon)": [
            {
                "start_time": 0.2,
                "end_time": 0.2659091,
                "pitch": 72,
                "velocity": 64,
                "duration": 0.0659091,
                "tempo": 120.0
            },
            {
                "start_time": 0.3,
                "end_time": 0.4681818,
                "pitch": 0,
                "velocity": 64,
                "duration": 0.1681818,
                "tempo": 120.0
            },
            {
                "start_time": 0.5022727,
                "end_time": 0.6681818,
                "pitch": 67,
                "velocity": 64,
                "duration": 0.1659091,
                "tempo": 120.0
            },
            {
                "start_time": 0.7022727,
                "end_time": 0.8704545,
                "pitch": 66,
                "velocity": 64,
                "duration": 0.1681818,
                "tempo": 120.0
            },
            {
                "start_time": 0.9022727,
                "end_time": 0.9704545,
                "pitch": 69,
                "velocity": 64,
                "duration": 0.0681818,
                "tempo": 120.0
            },
            {
                "start_time": 1.0022727,
                "end_time": 1.1704545,
                "pitch": 0,
                "velocity": 64,
                "duration": 0.1681818,
                "tempo": 120.0
            },
            {
                "start_time": 1.2045455,
                "end_time": 1.2704545,
                "pitch": 66,
                "velocity": 64,
                "duration": 0.0659091,
                "tempo": 120.0
            },
            {
                "start_time": 1.3045455,
                "end_time": 1.3704545,
                "pitch": 66,
                "velocity": 64,
                "duration": 0.0659091,
                "tempo": 120.0
            },
            {
                "start_time": 1.4045455,
                "end_time": 1.5727273,
                "pitch": 67,
                "velocity": 64,
                "duration": 0.1681818,
                "tempo": 120.0
            },
            {
                "start_time": 1.6045455,
                "end_time": 1.7727273,
                "pitch": 69,
                "velocity": 64,
                "duration": 0.1681818,
                "tempo": 120.0
            },
            {
                "start_time": 1.8045455,
                "end_time": 1.8727273,
                "pitch": 72,
                "velocity": 64,
                "duration": 0.0681818,
                "tempo": 120.0
            },
            {
                "start_time": 1.9045455,
                "end_time": 2.0727273,
                "pitch": 0,
                "velocity": 64,
                "duration": 0.1681818,
                "tempo": 120.0
            },
            {
                "start_time": 2.1045455,
                "end_time": 2.2727273,
                "pitch": 67,
                "velocity": 64,
                "duration": 0.1681818,
                "tempo": 120.0
            },
            {
                "start_time": 2.3045455,
                "end_time": 2.3727273,
                "pitch": 66,
                "velocity": 64,
                "duration": 0.0681818,
                "tempo": 120.0
            },
            {
                "start_time": 2.4068182,
                "end_time": 3.1659091,
                "pitch": 0,
                "velocity": 64,
                "duration": 0.7590909,
                "tempo": 120.0
            },
            {
                "start_time": 3.2,
                "end_time": 3.3659091,
                "pitch": 69,
                "velocity": 64,
                "duration": 0.1659091,
                "tempo": 120.0
            },
            {
                "start_time": 3.4,
                "end_time": 3.4659091,
                "pitch": 72,
                "velocity": 64,
                "duration": 0.0659091,
                "tempo": 120.0
            },
            {
                "start_time": 3.5,
                "end_time": 3.6727273,
                "pitch": 0,
                "velocity": 64,
                "duration": 0.1727273,
                "tempo": 120.0
            },
            {
                "start_time": 3.7068182,
                "end_time": 3.8772727,
                "pitch": 67,
                "velocity": 64,
                "duration": 0.1704545,
                "tempo": 120.0
            },
            {
                "start_time": 3.9113636,
                "end_time": 4.0772727,
                "pitch": 66,
                "velocity": 64,
                "duration": 0.1659091,
                "tempo": 120.0
            },
            {
                "start_time": 4.1113636,
                "end_time": 4.1772727,
                "pitch": 69,
                "velocity": 64,
                "duration": 0.0659091,
                "tempo": 120.0
            },
            {
                "start_time": 4.2113636,
                "end_time": 4.375,
                "pitch": 0,
                "velocity": 64,
                "duration": 0.1636364,
                "tempo": 120.0
            },
            {
                "start_time": 4.4090909,
                "end_time": 4.475,
                "pitch": 66,
                "velocity": 64,
                "duration": 0.0659091,
                "tempo": 120.0
            },
            {
                "start_time": 4.5068182,
                "end_time": 4.5727273,
                "pitch": 66,
                "velocity": 64,
                "duration": 0.0659091,
                "tempo": 120.0
            },
            {
                "start_time": 4.6045455,
                "end_time": 4.7704545,
                "pitch": 67,
                "velocity": 64,
                "duration": 0.1659091,
                "tempo": 120.0
            },
            {
                "start_time": 4.8022727,
                "end_time": 4.9704545,
                "pitch": 69,
                "velocity": 64,
                "duration": 0.1681818,
                "tempo": 120.0
            },
            {
                "start_time": 5.0022727,
                "end_time": 5.0704545,
                "pitch": 72,
                "velocity": 64,
                "duration": 0.0681818,
                "tempo": 120.0
            },
            {
                "start_time": 5.1022727,
                "end_time": 5.1727273,
                "pitch": 76,
                "velocity": 64,
                "duration": 0.0704545,
                "tempo": 120.0
            },
            {
                "start_time": 5.2090909,
                "end_time": 5.2795455,
                "pitch": 0,
                "velocity": 64,
                "duration": 0.0704545,
                "tempo": 120.0
            },
            {
                "start_time": 5.3136364,
                "end_time": 5.4909091,
                "pitch": 67,
                "velocity": 64,
                "duration": 0.1772727,
                "tempo": 120.0
            },
            {
                "start_time": 5.525,
                "end_time": 5.5909091,
                "pitch": 66,
                "velocity": 64,
                "duration": 0.0659091,
                "tempo": 120.0
            },
            {
                "start_time": 5.6227273,
                "end_time": 6.3840909,
                "pitch": 0,
                "velocity": 64,
                "duration": 0.7613636,
                "tempo": 120.0
            },
            {
                "start_time": 6.4181818,
                "end_time": 6.5863636,
                "pitch": 69,
                "velocity": 64,
                "duration": 0.1681818,
                "tempo": 120.0
            },
            {
                "start_time": 6.6204545,
                "end_time": 6.6863636,
                "pitch": 72,
                "velocity": 64,
                "duration": 0.0659091,
                "tempo": 120.0
            },
            {
                "start_time": 6.7159091,
                "end_time": 6.8704545,
                "pitch": 0,
                "velocity": 64,
                "duration": 0.1545455,
                "tempo": 120.0
            },
            {
                "start_time": 6.9022727,
                "end_time": 7.0568182,
                "pitch": 67,
                "velocity": 64,
                "duration": 0.1545455,
                "tempo": 120.0
            },
            {
                "start_time": 7.0886364,
                "end_time": 7.2477273,
                "pitch": 66,
                "velocity": 64,
                "duration": 0.1590909,
                "tempo": 120.0
            },
            {
                "start_time": 7.2795455,
                "end_time": 7.3431818,
                "pitch": 69,
                "velocity": 64,
                "duration": 0.0636364,
                "tempo": 120.0
            },
            {
                "start_time": 7.375,
                "end_time": 7.5272727,
                "pitch": 0,
                "velocity": 64,
                "duration": 0.1522727,
                "tempo": 120.0
            },
            {
                "start_time": 7.5568182,
                "end_time": 7.6159091,
                "pitch": 66,
                "velocity": 64,
                "duration": 0.0590909,
                "tempo": 120.0
            },
            {
                "start_time": 7.6477273,
                "end_time": 7.7068182,
                "pitch": 66,
                "velocity": 64,
                "duration": 0.0590909,
                "tempo": 120.0
            },
            {
                "start_time": 7.7386364,
                "end_time": 7.8977273,
                "pitch": 67,
                "velocity": 64,
                "duration": 0.1590909,
                "tempo": 120.0
            },
            {
                "start_time": 7.9295455,
                "end_time": 8.0886364,
                "pitch": 69,
                "velocity": 64,
                "duration": 0.1590909,
                "tempo": 120.0
            },
            {
                "start_time": 8.1181818,
                "end_time": 8.1795455,
                "pitch": 72,
                "velocity": 64,
                "duration": 0.0613636,
                "tempo": 120.0
            },
            {
                "start_time": 8.2113636,
                "end_time": 8.3659091,
                "pitch": 0,
                "velocity": 64,
                "duration": 0.1545455,
                "tempo": 120.0
            },
            {
                "start_time": 8.3977273,
                "end_time": 8.5431818,
                "pitch": 67,
                "velocity": 64,
                "duration": 0.1454545,
                "tempo": 120.0
            },
            {
                "start_time": 8.5727273,
                "end_time": 8.6295455,
                "pitch": 66,
                "velocity": 64,
                "duration": 0.0568182,
                "tempo": 120.0
            },
            {
                "start_time": 8.6590909,
                "end_time": 9.3863636,
                "pitch": 0,
                "velocity": 64,
                "duration": 0.7272727,
                "tempo": 120.0
            },
            {
                "start_time": 9.4159091,
                "end_time": 9.5636364,
                "pitch": 69,
                "velocity": 64,
                "duration": 0.1477273,
                "tempo": 120.0
            },
            {
                "start_time": 9.5931818,
                "end_time": 9.65,
                "pitch": 72,
                "velocity": 64,
                "duration": 0.0568182,
                "tempo": 120.0
            },
            {
                "start_time": 9.6795455,
                "end_time": 9.8295455,
                "pitch": 0,
                "velocity": 64,
                "duration": 0.15,
                "tempo": 120.0
            },
            {
                "start_time": 9.8613636,
                "end_time": 10.0159091,
                "pitch": 67,
                "velocity": 64,
                "duration": 0.1545455,
                "tempo": 120.0
            },
            {
                "start_time": 10.0454545,
                "end_time": 10.2068182,
                "pitch": 66,
                "velocity": 64,
                "duration": 0.1613636,
                "tempo": 120.0
            },
            {
                "start_time": 10.2409091,
                "end_time": 10.3090909,
                "pitch": 69,
                "velocity": 64,
                "duration": 0.0681818,
                "tempo": 120.0
            },
            {
                "start_time": 10.3409091,
                "end_time": 10.5090909,
                "pitch": 0,
                "velocity": 64,
                "duration": 0.1681818,
                "tempo": 120.0
            },
            {
                "start_time": 10.5431818,
                "end_time": 10.6113636,
                "pitch": 66,
                "velocity": 64,
                "duration": 0.0681818,
                "tempo": 120.0
            },
            {
                "start_time": 10.6454545,
                "end_time": 10.7136364,
                "pitch": 66,
                "velocity": 64,
                "duration": 0.0681818,
                "tempo": 120.0
            },
            {
                "start_time": 10.75,
                "end_time": 10.9204545,
                "pitch": 67,
                "velocity": 64,
                "duration": 0.1704545,
                "tempo": 120.0
            },
            {
                "start_time": 10.9545455,
                "end_time": 11.1227273,
                "pitch": 69,
                "velocity": 64,
                "duration": 0.1681818,
                "tempo": 120.0
            },
            {
                "start_time": 11.1545455,
                "end_time": 11.2227273,
                "pitch": 72,
                "velocity": 64,
                "duration": 0.0681818,
                "tempo": 120.0
            },
            {
                "start_time": 11.2568182,
                "end_time": 11.3227273,
                "pitch": 76,
                "velocity": 64,
                "duration": 0.0659091,
                "tempo": 120.0
            },
            {
                "start_time": 11.3568182,
                "end_time": 11.4227273,
                "pitch": 0,
                "velocity": 64,
                "duration": 0.0659091,
                "tempo": 120.0
            },
            {
                "start_time": 11.4545455,
                "end_time": 11.6181818,
                "pitch": 67,
                "velocity": 64,
                "duration": 0.1636364,
                "tempo": 120.0
            },
            {
                "start_time": 11.65,
                "end_time": 11.7159091,
                "pitch": 66,
                "velocity": 64,
                "duration": 0.0659091,
                "tempo": 120.0
            },
            {
                "start_time": 11.75,
                "end_time": 12.5204545,
                "pitch": 0,
                "velocity": 64,
                "duration": 0.7704545,
                "tempo": 120.0
            },
            {
                "start_time": 12.5545455,
                "end_time": 12.7204545,
                "pitch": 69,
                "velocity": 64,
                "duration": 0.1659091,
                "tempo": 120.0
            },
            {
                "start_time": 12.7545455,
                "end_time": 12.8204545,
                "pitch": 72,
                "velocity": 64,
                "duration": 0.0659091,
                "tempo": 120.0
            },
            {
                "start_time": 12.8545455,
                "end_time": 13.0204545,
                "pitch": 0,
                "velocity": 64,
                "duration": 0.1659091,
                "tempo": 120.0
            },
            {
                "start_time": 13.0545455,
                "end_time": 13.2227273,
                "pitch": 67,
                "velocity": 64,
                "duration": 0.1681818,
                "tempo": 120.0
            },
            {
                "start_time": 13.2568182,
                "end_time": 13.425,
                "pitch": 66,
                "velocity": 64,
                "duration": 0.1681818,
                "tempo": 120.0
            },
            {
                "start_time": 13.4568182,
                "end_time": 13.525,
                "pitch": 69,
                "velocity": 64,
                "duration": 0.0681818,
                "tempo": 120.0
            },
            {
                "start_time": 13.5590909,
                "end_time": 13.7272727,
                "pitch": 0,
                "velocity": 64,
                "duration": 0.1681818,
                "tempo": 120.0
            },
            {
                "start_time": 13.7590909,
                "end_time": 13.8272727,
                "pitch": 66,
                "velocity": 64,
                "duration": 0.0681818,
                "tempo": 120.0
            },
            {
                "start_time": 13.8613636,
                "end_time": 13.9272727,
                "pitch": 66,
                "velocity": 64,
                "duration": 0.0659091,
                "tempo": 120.0
            },
            {
                "start_time": 13.9613636,
                "end_time": 14.1295455,
                "pitch": 67,
                "velocity": 64,
                "duration": 0.1681818,
                "tempo": 120.0
            },
            {
                "start_time": 14.1636364,
                "end_time": 14.3340909,
                "pitch": 69,
                "velocity": 64,
                "duration": 0.1704545,
                "tempo": 120.0
            },
            {
                "start_time": 14.3681818,
                "end_time": 14.4363636,
                "pitch": 72,
                "velocity": 64,
                "duration": 0.0681818,
                "tempo": 120.0
            },
            {
                "start_time": 14.4704545,
                "end_time": 14.6386364,
                "pitch": 0,
                "velocity": 64,
                "duration": 0.1681818,
                "tempo": 120.0
            },
            {
                "start_time": 14.6704545,
                "end_time": 14.8340909,
                "pitch": 67,
                "velocity": 64,
                "duration": 0.1636364,
                "tempo": 120.0
            },
            {
                "start_time": 14.8659091,
                "end_time": 14.9318182,
                "pitch": 66,
                "velocity": 64,
                "duration": 0.0659091,
                "tempo": 120.0
            },
            {
                "start_time": 14.9659091,
                "end_time": 15.7454545,
                "pitch": 0,
                "velocity": 64,
                "duration": 0.7795455,
                "tempo": 120.0
            },
            {
                "start_time": 15.7772727,
                "end_time": 15.9409091,
                "pitch": 69,
                "velocity": 64,
                "duration": 0.1636364,
                "tempo": 120.0
            },
            {
                "start_time": 15.975,
                "end_time": 16.0386364,
                "pitch": 72,
                "velocity": 64,
                "duration": 0.0636364,
                "tempo": 120.0
            },
            {
                "start_time": 16.0727273,
                "end_time": 16.2386364,
                "pitch": 0,
                "velocity": 64,
                "duration": 0.1659091,
                "tempo": 120.0
            },
            {
                "start_time": 16.2704545,
                "end_time": 16.4386364,
                "pitch": 67,
                "velocity": 64,
                "duration": 0.1681818,
                "tempo": 120.0
            },
            {
                "start_time": 16.4704545,
                "end_time": 16.6386364,
                "pitch": 66,
                "velocity": 64,
                "duration": 0.1681818,
                "tempo": 120.0
            },
            {
                "start_time": 16.6727273,
                "end_time": 16.7431818,
                "pitch": 69,
                "velocity": 64,
                "duration": 0.0704545,
                "tempo": 120.0
            },
            {
                "start_time": 16.7772727,
                "end_time": 16.9477273,
                "pitch": 0,
                "velocity": 64,
                "duration": 0.1704545,
                "tempo": 120.0
            },
            {
                "start_time": 16.9818182,
                "end_time": 17.0454545,
                "pitch": 66,
                "velocity": 64,
                "duration": 0.0636364,
                "tempo": 120.0
            },
            {
                "start_time": 17.0795455,
                "end_time": 17.1454545,
                "pitch": 66,
                "velocity": 64,
                "duration": 0.0659091,
                "tempo": 120.0
            },
            {
                "start_time": 17.1772727,
                "end_time": 17.3409091,
                "pitch": 67,
                "velocity": 64,
                "duration": 0.1636364,
                "tempo": 120.0
            },
            {
                "start_time": 17.3727273,
                "end_time": 17.5454545,
                "pitch": 69,
                "velocity": 64,
                "duration": 0.1727273,
                "tempo": 120.0
            },
            {
                "start_time": 17.5795455,
                "end_time": 17.6477273,
                "pitch": 72,
                "velocity": 64,
                "duration": 0.0681818,
                "tempo": 120.0
            },
            {
                "start_time": 17.6818182,
                "end_time": 17.75,
                "pitch": 76,
                "velocity": 64,
                "duration": 0.0681818,
                "tempo": 120.0
            },
            {
                "start_time": 17.7840909,
                "end_time": 17.85,
                "pitch": 0,
                "velocity": 64,
                "duration": 0.0659091,
                "tempo": 120.0
            },
            {
                "start_time": 17.8818182,
                "end_time": 18.0454545,
                "pitch": 67,
                "velocity": 64,
                "duration": 0.1636364,
                "tempo": 120.0
            },
            {
                "start_time": 18.0772727,
                "end_time": 18.1431818,
                "pitch": 66,
                "velocity": 64,
                "duration": 0.0659091,
                "tempo": 120.0
            },
            {
                "start_time": 18.175,
                "end_time": 18.9431818,
                "pitch": 0,
                "velocity": 64,
                "duration": 0.7681818,
                "tempo": 120.0
            },
            {
                "start_time": 18.975,
                "end_time": 19.1295455,
                "pitch": 69,
                "velocity": 64,
                "duration": 0.1545455,
                "tempo": 120.0
            },
            {
                "start_time": 19.1590909,
                "end_time": 19.2227273,
                "pitch": 72,
                "velocity": 64,
                "duration": 0.0636364,
                "tempo": 120.0
            },
            {
                "start_time": 19.2522727,
                "end_time": 19.4159091,
                "pitch": 0,
                "velocity": 64,
                "duration": 0.1636364,
                "tempo": 120.0
            },
            {
                "start_time": 19.45,
                "end_time": 19.6181818,
                "pitch": 67,
                "velocity": 64,
                "duration": 0.1681818,
                "tempo": 120.0
            },
            {
                "start_time": 19.6522727,
                "end_time": 19.8181818,
                "pitch": 66,
                "velocity": 64,
                "duration": 0.1659091,
                "tempo": 120.0
            },
            {
                "start_time": 19.8522727,
                "end_time": 19.9181818,
                "pitch": 69,
                "velocity": 64,
                "duration": 0.0659091,
                "tempo": 120.0
            },
            {
                "start_time": 19.9522727,
                "end_time": 20.1181818,
                "pitch": 0,
                "velocity": 64,
                "duration": 0.1659091,
                "tempo": 120.0
            },
            {
                "start_time": 20.1522727,
                "end_time": 20.2181818,
                "pitch": 66,
                "velocity": 64,
                "duration": 0.0659091,
                "tempo": 120.0
            },
            {
                "start_time": 20.2522727,
                "end_time": 20.3204545,
                "pitch": 66,
                "velocity": 64,
                "duration": 0.0681818,
                "tempo": 120.0
            },
            {
                "start_time": 20.3522727,
                "end_time": 20.5204545,
                "pitch": 67,
                "velocity": 64,
                "duration": 0.1681818,
                "tempo": 120.0
            },
            {
                "start_time": 20.5545455,
                "end_time": 20.7204545,
                "pitch": 69,
                "velocity": 64,
                "duration": 0.1659091,
                "tempo": 120.0
            },
            {
                "start_time": 20.7545455,
                "end_time": 20.8204545,
                "pitch": 72,
                "velocity": 64,
                "duration": 0.0659091,
                "tempo": 120.0
            },
            {
                "start_time": 20.8545455,
                "end_time": 21.0204545,
                "pitch": 0,
                "velocity": 64,
                "duration": 0.1659091,
                "tempo": 120.0
            },
            {
                "start_time": 21.0545455,
                "end_time": 21.2204545,
                "pitch": 67,
                "velocity": 64,
                "duration": 0.1659091,
                "tempo": 120.0
            },
            {
                "start_time": 21.2545455,
                "end_time": 21.3204545,
                "pitch": 66,
                "velocity": 64,
                "duration": 0.0659091,
                "tempo": 120.0
            },
            {
                "start_time": 21.3545455,
                "end_time": 22.1227273,
                "pitch": 0,
                "velocity": 64,
                "duration": 0.7681818,
                "tempo": 120.0
            },
            {
                "start_time": 22.1568182,
                "end_time": 22.325,
                "pitch": 69,
                "velocity": 64,
                "duration": 0.1681818,
                "tempo": 120.0
            },
            {
                "start_time": 22.3590909,
                "end_time": 22.425,
                "pitch": 72,
                "velocity": 64,
                "duration": 0.0659091,
                "tempo": 120.0
            },
            {
                "start_time": 22.4590909,
                "end_time": 22.6272727,
                "pitch": 0,
                "velocity": 64,
                "duration": 0.1681818,
                "tempo": 120.0
            },
            {
                "start_time": 22.6590909,
                "end_time": 22.8272727,
                "pitch": 67,
                "velocity": 64,
                "duration": 0.1681818,
                "tempo": 120.0
            },
            {
                "start_time": 22.8590909,
                "end_time": 23.0272727,
                "pitch": 66,
                "velocity": 64,
                "duration": 0.1681818,
                "tempo": 120.0
            },
            {
                "start_time": 23.0590909,
                "end_time": 23.1272727,
                "pitch": 69,
                "velocity": 64,
                "duration": 0.0681818,
                "tempo": 120.0
            },
            {
                "start_time": 23.1590909,
                "end_time": 23.3272727,
                "pitch": 0,
                "velocity": 64,
                "duration": 0.1681818,
                "tempo": 120.0
            },
            {
                "start_time": 23.3590909,
                "end_time": 23.4272727,
                "pitch": 66,
                "velocity": 64,
                "duration": 0.0681818,
                "tempo": 120.0
            },
            {
                "start_time": 23.4613636,
                "end_time": 23.5272727,
                "pitch": 66,
                "velocity": 64,
                "duration": 0.0659091,
                "tempo": 120.0
            },
            {
                "start_time": 23.5613636,
                "end_time": 23.7295455,
                "pitch": 67,
                "velocity": 64,
                "duration": 0.1681818,
                "tempo": 120.0
            },
            {
                "start_time": 23.7613636,
                "end_time": 23.9295455,
                "pitch": 69,
                "velocity": 64,
                "duration": 0.1681818,
                "tempo": 120.0
            },
            {
                "start_time": 23.9613636,
                "end_time": 24.0295455,
                "pitch": 72,
                "velocity": 64,
                "duration": 0.0681818,
                "tempo": 120.0
            },
            {
                "start_time": 24.0613636,
                "end_time": 24.1295455,
                "pitch": 76,
                "velocity": 64,
                "duration": 0.0681818,
                "tempo": 120.0
            },
            {
                "start_time": 24.1636364,
                "end_time": 24.2295455,
                "pitch": 0,
                "velocity": 64,
                "duration": 0.0659091,
                "tempo": 120.0
            },
            {
                "start_time": 24.2636364,
                "end_time": 24.4318182,
                "pitch": 67,
                "velocity": 64,
                "duration": 0.1681818,
                "tempo": 120.0
            },
            {
                "start_time": 24.4636364,
                "end_time": 24.5318182,
                "pitch": 66,
                "velocity": 64,
                "duration": 0.0681818,
                "tempo": 120.0
            },
            {
                "start_time": 24.5659091,
                "end_time": 25.325,
                "pitch": 0,
                "velocity": 64,
                "duration": 0.7590909,
                "tempo": 120.0
            },
            {
                "start_time": 25.3568182,
                "end_time": 25.3909091,
                "pitch": 62,
                "velocity": 64,
                "duration": 0.0340909,
                "tempo": 120.0
            },
            {
                "start_time": 25.425,
                "end_time": 25.4568182,
                "pitch": 64,
                "velocity": 64,
                "duration": 0.0318182,
                "tempo": 120.0
            },
            {
                "start_time": 25.4909091,
                "end_time": 25.525,
                "pitch": 67,
                "velocity": 64,
                "duration": 0.0340909,
                "tempo": 120.0
            },
            {
                "start_time": 25.5568182,
                "end_time": 25.5909091,
                "pitch": 64,
                "velocity": 64,
                "duration": 0.0340909,
                "tempo": 120.0
            },
            {
                "start_time": 25.625,
                "end_time": 25.6568182,
                "pitch": 67,
                "velocity": 64,
                "duration": 0.0318182,
                "tempo": 120.0
            },
            {
                "start_time": 25.6909091,
                "end_time": 25.725,
                "pitch": 69,
                "velocity": 64,
                "duration": 0.0340909,
                "tempo": 120.0
            },
            {
                "start_time": 25.7590909,
                "end_time": 25.7954545,
                "pitch": 67,
                "velocity": 64,
                "duration": 0.0363636,
                "tempo": 120.0
            },
            {
                "start_time": 25.8295455,
                "end_time": 25.8659091,
                "pitch": 69,
                "velocity": 64,
                "duration": 0.0363636,
                "tempo": 120.0
            },
            {
                "start_time": 25.9,
                "end_time": 25.9363636,
                "pitch": 72,
                "velocity": 64,
                "duration": 0.0363636,
                "tempo": 120.0
            },
            {
                "start_time": 25.9704545,
                "end_time": 26.0068182,
                "pitch": 69,
                "velocity": 64,
                "duration": 0.0363636,
                "tempo": 120.0
            },
            {
                "start_time": 26.0409091,
                "end_time": 26.0772727,
                "pitch": 72,
                "velocity": 64,
                "duration": 0.0363636,
                "tempo": 120.0
            },
            {
                "start_time": 26.1113636,
                "end_time": 26.1454545,
                "pitch": 74,
                "velocity": 64,
                "duration": 0.0340909,
                "tempo": 120.0
            },
            {
                "start_time": 26.1772727,
                "end_time": 26.2113636,
                "pitch": 72,
                "velocity": 64,
                "duration": 0.0340909,
                "tempo": 120.0
            },
            {
                "start_time": 26.2431818,
                "end_time": 26.2772727,
                "pitch": 74,
                "velocity": 64,
                "duration": 0.0340909,
                "tempo": 120.0
            },
            {
                "start_time": 26.3090909,
                "end_time": 26.3409091,
                "pitch": 76,
                "velocity": 64,
                "duration": 0.0318182,
                "tempo": 120.0
            },
            {
                "start_time": 26.375,
                "end_time": 26.4068182,
                "pitch": 74,
                "velocity": 64,
                "duration": 0.0318182,
                "tempo": 120.0
            },
            {
                "start_time": 26.4386364,
                "end_time": 26.4727273,
                "pitch": 76,
                "velocity": 64,
                "duration": 0.0340909,
                "tempo": 120.0
            },
            {
                "start_time": 26.5045455,
                "end_time": 26.5386364,
                "pitch": 79,
                "velocity": 64,
                "duration": 0.0340909,
                "tempo": 120.0
            },
            {
                "start_time": 26.5727273,
                "end_time": 26.6409091,
                "pitch": 81,
                "velocity": 64,
                "duration": 0.0681818,
                "tempo": 120.0
            },
            {
                "start_time": 26.675,
                "end_time": 26.8454545,
                "pitch": 0,
                "velocity": 64,
                "duration": 0.1704545,
                "tempo": 120.0
            },
            {
                "start_time": 26.8795455,
                "end_time": 29.75,
                "pitch": 86,
                "velocity": 64,
                "duration": 2.8704545,
                "tempo": 120.0
            },
            {
                "start_time": 29.7818182,
                "end_time": 30.1477273,
                "pitch": 0,
                "velocity": 64,
                "duration": 0.3659091,
                "tempo": 120.0
            },
            {
                "start_time": 30.1818182,
                "end_time": 30.4431818,
                "pitch": 72,
                "velocity": 64,
                "duration": 0.2613636,
                "tempo": 120.0
            },
            {
                "start_time": 30.475,
                "end_time": 30.5409091,
                "pitch": 72,
                "velocity": 64,
                "duration": 0.0659091,
                "tempo": 120.0
            },
            {
                "start_time": 30.5772727,
                "end_time": 30.7522727,
                "pitch": 0,
                "velocity": 64,
                "duration": 0.175,
                "tempo": 120.0
            },
            {
                "start_time": 30.7863636,
                "end_time": 30.9613636,
                "pitch": 72,
                "velocity": 64,
                "duration": 0.175,
                "tempo": 120.0
            },
            {
                "start_time": 30.9954545,
                "end_time": 31.1590909,
                "pitch": 0,
                "velocity": 64,
                "duration": 0.1636364,
                "tempo": 120.0
            },
            {
                "start_time": 31.1909091,
                "end_time": 31.2568182,
                "pitch": 71,
                "velocity": 64,
                "duration": 0.0659091,
                "tempo": 120.0
            },
            {
                "start_time": 31.2886364,
                "end_time": 31.3545455,
                "pitch": 0,
                "velocity": 64,
                "duration": 0.0659091,
                "tempo": 120.0
            },
            {
                "start_time": 31.3886364,
                "end_time": 31.5568182,
                "pitch": 72,
                "velocity": 64,
                "duration": 0.1681818,
                "tempo": 120.0
            },
            {
                "start_time": 31.5909091,
                "end_time": 31.7568182,
                "pitch": 0,
                "velocity": 64,
                "duration": 0.1659091,
                "tempo": 120.0
            },
            {
                "start_time": 31.7909091,
                "end_time": 32.0568182,
                "pitch": 72,
                "velocity": 64,
                "duration": 0.2659091,
                "tempo": 120.0
            },
            {
                "start_time": 32.0909091,
                "end_time": 32.1568182,
                "pitch": 72,
                "velocity": 64,
                "duration": 0.0659091,
                "tempo": 120.0
            },
            {
                "start_time": 32.1909091,
                "end_time": 32.3636364,
                "pitch": 0,
                "velocity": 64,
                "duration": 0.1727273,
                "tempo": 120.0
            },
            {
                "start_time": 32.3977273,
                "end_time": 32.5681818,
                "pitch": 72,
                "velocity": 64,
                "duration": 0.1704545,
                "tempo": 120.0
            },
            {
                "start_time": 32.6022727,
                "end_time": 32.7681818,
                "pitch": 0,
                "velocity": 64,
                "duration": 0.1659091,
                "tempo": 120.0
            },
            {
                "start_time": 32.8022727,
                "end_time": 32.8681818,
                "pitch": 71,
                "velocity": 64,
                "duration": 0.0659091,
                "tempo": 120.0
            },
            {
                "start_time": 32.9022727,
                "end_time": 32.9681818,
                "pitch": 0,
                "velocity": 64,
                "duration": 0.0659091,
                "tempo": 120.0
            },
            {
                "start_time": 33.0,
                "end_time": 33.1636364,
                "pitch": 72,
                "velocity": 64,
                "duration": 0.1636364,
                "tempo": 120.0
            },
            {
                "start_time": 33.1977273,
                "end_time": 33.3613636,
                "pitch": 0,
                "velocity": 64,
                "duration": 0.1636364,
                "tempo": 120.0
            },
            {
                "start_time": 33.3931818,
                "end_time": 33.6613636,
                "pitch": 72,
                "velocity": 64,
                "duration": 0.2681818,
                "tempo": 120.0
            },
            {
                "start_time": 33.6931818,
                "end_time": 33.7613636,
                "pitch": 72,
                "velocity": 64,
                "duration": 0.0681818,
                "tempo": 120.0
            },
            {
                "start_time": 33.7954545,
                "end_time": 33.9659091,
                "pitch": 0,
                "velocity": 64,
                "duration": 0.1704545,
                "tempo": 120.0
            },
            {
                "start_time": 34.0,
                "end_time": 34.1704545,
                "pitch": 72,
                "velocity": 64,
                "duration": 0.1704545,
                "tempo": 120.0
            },
            {
                "start_time": 34.2045455,
                "end_time": 34.3659091,
                "pitch": 0,
                "velocity": 64,
                "duration": 0.1613636,
                "tempo": 120.0
            },
            {
                "start_time": 34.4,
                "end_time": 34.4659091,
                "pitch": 71,
                "velocity": 64,
                "duration": 0.0659091,
                "tempo": 120.0
            },
            {
                "start_time": 34.4977273,
                "end_time": 34.5636364,
                "pitch": 0,
                "velocity": 64,
                "duration": 0.0659091,
                "tempo": 120.0
            },
            {
                "start_time": 34.5977273,
                "end_time": 34.7636364,
                "pitch": 72,
                "velocity": 64,
                "duration": 0.1659091,
                "tempo": 120.0
            },
            {
                "start_time": 34.7977273,
                "end_time": 34.9636364,
                "pitch": 0,
                "velocity": 64,
                "duration": 0.1659091,
                "tempo": 120.0
            },
            {
                "start_time": 34.9977273,
                "end_time": 35.2636364,
                "pitch": 72,
                "velocity": 64,
                "duration": 0.2659091,
                "tempo": 120.0
            },
            {
                "start_time": 35.2977273,
                "end_time": 35.3636364,
                "pitch": 72,
                "velocity": 64,
                "duration": 0.0659091,
                "tempo": 120.0
            },
            {
                "start_time": 35.3977273,
                "end_time": 35.5636364,
                "pitch": 0,
                "velocity": 64,
                "duration": 0.1659091,
                "tempo": 120.0
            },
            {
                "start_time": 35.5977273,
                "end_time": 35.7636364,
                "pitch": 72,
                "velocity": 64,
                "duration": 0.1659091,
                "tempo": 120.0
            },
            {
                "start_time": 35.7977273,
                "end_time": 35.9681818,
                "pitch": 0,
                "velocity": 64,
                "duration": 0.1704545,
                "tempo": 120.0
            },
            {
                "start_time": 36.0022727,
                "end_time": 36.0727273,
                "pitch": 71,
                "velocity": 64,
                "duration": 0.0704545,
                "tempo": 120.0
            },
            {
                "start_time": 36.1068182,
                "end_time": 36.1727273,
                "pitch": 0,
                "velocity": 64,
                "duration": 0.0659091,
                "tempo": 120.0
            },
            {
                "start_time": 36.2068182,
                "end_time": 36.3704545,
                "pitch": 72,
                "velocity": 64,
                "duration": 0.1636364,
                "tempo": 120.0
            },
            {
                "start_time": 36.4022727,
                "end_time": 36.5659091,
                "pitch": 0,
                "velocity": 64,
                "duration": 0.1636364,
                "tempo": 120.0
            },
            {
                "start_time": 36.6,
                "end_time": 36.7659091,
                "pitch": 72,
                "velocity": 64,
                "duration": 0.1659091,
                "tempo": 120.0
            },
            {
                "start_time": 36.8,
                "end_time": 36.9659091,
                "pitch": 69,
                "velocity": 64,
                "duration": 0.1659091,
                "tempo": 120.0
            },
            {
                "start_time": 37.0,
                "end_time": 37.0659091,
                "pitch": 0,
                "velocity": 64,
                "duration": 0.0659091,
                "tempo": 120.0
            },
            {
                "start_time": 37.1,
                "end_time": 37.1659091,
                "pitch": 69,
                "velocity": 64,
                "duration": 0.0659091,
                "tempo": 120.0
            },
            {
                "start_time": 37.2,
                "end_time": 37.2659091,
                "pitch": 0,
                "velocity": 64,
                "duration": 0.0659091,
                "tempo": 120.0
            },
            {
                "start_time": 37.3,
                "end_time": 37.4659091,
                "pitch": 69,
                "velocity": 64,
                "duration": 0.1659091,
                "tempo": 120.0
            },
            {
                "start_time": 37.5,
                "end_time": 37.5659091,
                "pitch": 72,
                "velocity": 64,
                "duration": 0.0659091,
                "tempo": 120.0
            },
            {
                "start_time": 37.6,
                "end_time": 37.6659091,
                "pitch": 0,
                "velocity": 64,
                "duration": 0.0659091,
                "tempo": 120.0
            },
            {
                "start_time": 37.7,
                "end_time": 37.7659091,
                "pitch": 69,
                "velocity": 64,
                "duration": 0.0659091,
                "tempo": 120.0
            },
            {
                "start_time": 37.8,
                "end_time": 37.9681818,
                "pitch": 71,
                "velocity": 64,
                "duration": 0.1681818,
                "tempo": 120.0
            },
            {
                "start_time": 38.0022727,
                "end_time": 38.1681818,
                "pitch": 72,
                "velocity": 64,
                "duration": 0.1659091,
                "tempo": 120.0
            },
            {
                "start_time": 38.2022727,
                "end_time": 38.3681818,
                "pitch": 71,
                "velocity": 64,
                "duration": 0.1659091,
                "tempo": 120.0
            },
            {
                "start_time": 38.4022727,
                "end_time": 38.5681818,
                "pitch": 67,
                "velocity": 64,
                "duration": 0.1659091,
                "tempo": 120.0
            },
            {
                "start_time": 38.6022727,
                "end_time": 38.6681818,
                "pitch": 0,
                "velocity": 64,
                "duration": 0.0659091,
                "tempo": 120.0
            },
            {
                "start_time": 38.7022727,
                "end_time": 38.7681818,
                "pitch": 67,
                "velocity": 64,
                "duration": 0.0659091,
                "tempo": 120.0
            },
            {
                "start_time": 38.8022727,
                "end_time": 38.8681818,
                "pitch": 0,
                "velocity": 64,
                "duration": 0.0659091,
                "tempo": 120.0
            },
            {
                "start_time": 38.9022727,
                "end_time": 39.0681818,
                "pitch": 67,
                "velocity": 64,
                "duration": 0.1659091,
                "tempo": 120.0
            },
            {
                "start_time": 39.1022727,
                "end_time": 39.1681818,
                "pitch": 71,
                "velocity": 64,
                "duration": 0.0659091,
                "tempo": 120.0
            },
            {
                "start_time": 39.2022727,
                "end_time": 39.2681818,
                "pitch": 0,
                "velocity": 64,
                "duration": 0.0659091,
                "tempo": 120.0
            },
            {
                "start_time": 39.3022727,
                "end_time": 39.3681818,
                "pitch": 67,
                "velocity": 64,
                "duration": 0.0659091,
                "tempo": 120.0
            },
            {
                "start_time": 39.4022727,
                "end_time": 39.4681818,
                "pitch": 72,
                "velocity": 64,
                "duration": 0.0659091,
                "tempo": 120.0
            },
            {
                "start_time": 39.5022727,
                "end_time": 39.5681818,
                "pitch": 72,
                "velocity": 64,
                "duration": 0.0659091,
                "tempo": 120.0
            },
            {
                "start_time": 39.6022727,
                "end_time": 39.7681818,
                "pitch": 67,
                "velocity": 64,
                "duration": 0.1659091,
                "tempo": 120.0
            },
            {
                "start_time": 39.8022727,
                "end_time": 39.9704545,
                "pitch": 71,
                "velocity": 64,
                "duration": 0.1681818,
                "tempo": 120.0
            },
            {
                "start_time": 40.0045455,
                "end_time": 40.1727273,
                "pitch": 67,
                "velocity": 64,
                "duration": 0.1681818,
                "tempo": 120.0
            },
            {
                "start_time": 40.2045455,
                "end_time": 40.2727273,
                "pitch": 0,
                "velocity": 64,
                "duration": 0.0681818,
                "tempo": 120.0
            },
            {
                "start_time": 40.3045455,
                "end_time": 40.3727273,
                "pitch": 67,
                "velocity": 64,
                "duration": 0.0681818,
                "tempo": 120.0
            },
            {
                "start_time": 40.4045455,
                "end_time": 40.4727273,
                "pitch": 0,
                "velocity": 64,
                "duration": 0.0681818,
                "tempo": 120.0
            },
            {
                "start_time": 40.5045455,
                "end_time": 40.6727273,
                "pitch": 67,
                "velocity": 64,
                "duration": 0.1681818,
                "tempo": 120.0
            },
            {
                "start_time": 40.7045455,
                "end_time": 40.7727273,
                "pitch": 69,
                "velocity": 64,
                "duration": 0.0681818,
                "tempo": 120.0
            },
            {
                "start_time": 40.8045455,
                "end_time": 40.8727273,
                "pitch": 0,
                "velocity": 64,
                "duration": 0.0681818,
                "tempo": 120.0
            },
            {
                "start_time": 40.9045455,
                "end_time": 40.9727273,
                "pitch": 71,
                "velocity": 64,
                "duration": 0.0681818,
                "tempo": 120.0
            },
            {
                "start_time": 41.0045455,
                "end_time": 41.1727273,
                "pitch": 72,
                "velocity": 64,
                "duration": 0.1681818,
                "tempo": 120.0
            },
            {
                "start_time": 41.2045455,
                "end_time": 41.3727273,
                "pitch": 67,
                "velocity": 64,
                "duration": 0.1681818,
                "tempo": 120.0
            },
            {
                "start_time": 41.4045455,
                "end_time": 41.5727273,
                "pitch": 72,
                "velocity": 64,
                "duration": 0.1681818,
                "tempo": 120.0
            },
            {
                "start_time": 41.6045455,
                "end_time": 41.7727273,
                "pitch": 69,
                "velocity": 64,
                "duration": 0.1681818,
                "tempo": 120.0
            },
            {
                "start_time": 41.8045455,
                "end_time": 41.8727273,
                "pitch": 0,
                "velocity": 64,
                "duration": 0.0681818,
                "tempo": 120.0
            },
            {
                "start_time": 41.9068182,
                "end_time": 41.9727273,
                "pitch": 69,
                "velocity": 64,
                "duration": 0.0659091,
                "tempo": 120.0
            },
            {
                "start_time": 42.0068182,
                "end_time": 42.0727273,
                "pitch": 0,
                "velocity": 64,
                "duration": 0.0659091,
                "tempo": 120.0
            },
            {
                "start_time": 42.1068182,
                "end_time": 42.275,
                "pitch": 69,
                "velocity": 64,
                "duration": 0.1681818,
                "tempo": 120.0
            },
            {
                "start_time": 42.3068182,
                "end_time": 42.375,
                "pitch": 72,
                "velocity": 64,
                "duration": 0.0681818,
                "tempo": 120.0
            },
            {
                "start_time": 42.4068182,
                "end_time": 42.475,
                "pitch": 0,
                "velocity": 64,
                "duration": 0.0681818,
                "tempo": 120.0
            },
            {
                "start_time": 42.5068182,
                "end_time": 42.575,
                "pitch": 69,
                "velocity": 64,
                "duration": 0.0681818,
                "tempo": 120.0
            },
            {
                "start_time": 42.6068182,
                "end_time": 42.675,
                "pitch": 71,
                "velocity": 64,
                "duration": 0.0681818,
                "tempo": 120.0
            },
            {
                "start_time": 42.7068182,
                "end_time": 42.775,
                "pitch": 71,
                "velocity": 64,
                "duration": 0.0681818,
                "tempo": 120.0
            },
            {
                "start_time": 42.8068182,
                "end_time": 42.975,
                "pitch": 72,
                "velocity": 64,
                "duration": 0.1681818,
                "tempo": 120.0
            },
            {
                "start_time": 43.0068182,
                "end_time": 43.175,
                "pitch": 72,
                "velocity": 64,
                "duration": 0.1681818,
                "tempo": 120.0
            },
            {
                "start_time": 43.2068182,
                "end_time": 43.375,
                "pitch": 69,
                "velocity": 64,
                "duration": 0.1681818,
                "tempo": 120.0
            },
            {
                "start_time": 43.4068182,
                "end_time": 43.475,
                "pitch": 0,
                "velocity": 64,
                "duration": 0.0681818,
                "tempo": 120.0
            },
            {
                "start_time": 43.5068182,
                "end_time": 43.575,
                "pitch": 69,
                "velocity": 64,
                "duration": 0.0681818,
                "tempo": 120.0
            },
            {
                "start_time": 43.6068182,
                "end_time": 43.675,
                "pitch": 0,
                "velocity": 64,
                "duration": 0.0681818,
                "tempo": 120.0
            },
            {
                "start_time": 43.7068182,
                "end_time": 43.875,
                "pitch": 69,
                "velocity": 64,
                "duration": 0.1681818,
                "tempo": 120.0
            },
            {
                "start_time": 43.9090909,
                "end_time": 43.975,
                "pitch": 72,
                "velocity": 64,
                "duration": 0.0659091,
                "tempo": 120.0
            },
            {
                "start_time": 44.0090909,
                "end_time": 44.0772727,
                "pitch": 0,
                "velocity": 64,
                "duration": 0.0681818,
                "tempo": 120.0
            },
            {
                "start_time": 44.1090909,
                "end_time": 44.1772727,
                "pitch": 69,
                "velocity": 64,
                "duration": 0.0681818,
                "tempo": 120.0
            },
            {
                "start_time": 44.2113636,
                "end_time": 44.3772727,
                "pitch": 71,
                "velocity": 64,
                "duration": 0.1659091,
                "tempo": 120.0
            },
            {
                "start_time": 44.4113636,
                "end_time": 44.5772727,
                "pitch": 72,
                "velocity": 64,
                "duration": 0.1659091,
                "tempo": 120.0
            },
            {
                "start_time": 44.6113636,
                "end_time": 44.7772727,
                "pitch": 71,
                "velocity": 64,
                "duration": 0.1659091,
                "tempo": 120.0
            },
            {
                "start_time": 44.8113636,
                "end_time": 44.9772727,
                "pitch": 67,
                "velocity": 64,
                "duration": 0.1659091,
                "tempo": 120.0
            },
            {
                "start_time": 45.0113636,
                "end_time": 45.0772727,
                "pitch": 0,
                "velocity": 64,
                "duration": 0.0659091,
                "tempo": 120.0
            },
            {
                "start_time": 45.1113636,
                "end_time": 45.1772727,
                "pitch": 67,
                "velocity": 64,
                "duration": 0.0659091,
                "tempo": 120.0
            },
            {
                "start_time": 45.2113636,
                "end_time": 45.2772727,
                "pitch": 0,
                "velocity": 64,
                "duration": 0.0659091,
                "tempo": 120.0
            },
            {
                "start_time": 45.3113636,
                "end_time": 45.4772727,
                "pitch": 67,
                "velocity": 64,
                "duration": 0.1659091,
                "tempo": 120.0
            },
            {
                "start_time": 45.5113636,
                "end_time": 45.5772727,
                "pitch": 71,
                "velocity": 64,
                "duration": 0.0659091,
                "tempo": 120.0
            },
            {
                "start_time": 45.6113636,
                "end_time": 45.6772727,
                "pitch": 0,
                "velocity": 64,
                "duration": 0.0659091,
                "tempo": 120.0
            },
            {
                "start_time": 45.7113636,
                "end_time": 45.7772727,
                "pitch": 67,
                "velocity": 64,
                "duration": 0.0659091,
                "tempo": 120.0
            },
            {
                "start_time": 45.8113636,
                "end_time": 45.8772727,
                "pitch": 72,
                "velocity": 64,
                "duration": 0.0659091,
                "tempo": 120.0
            },
            {
                "start_time": 45.9113636,
                "end_time": 45.9795455,
                "pitch": 72,
                "velocity": 64,
                "duration": 0.0681818,
                "tempo": 120.0
            },
            {
                "start_time": 46.0113636,
                "end_time": 46.1795455,
                "pitch": 67,
                "velocity": 64,
                "duration": 0.1681818,
                "tempo": 120.0
            },
            {
                "start_time": 46.2136364,
                "end_time": 46.3795455,
                "pitch": 71,
                "velocity": 64,
                "duration": 0.1659091,
                "tempo": 120.0
            },
            {
                "start_time": 46.4136364,
                "end_time": 46.5795455,
                "pitch": 67,
                "velocity": 64,
                "duration": 0.1659091,
                "tempo": 120.0
            },
            {
                "start_time": 46.6136364,
                "end_time": 46.6795455,
                "pitch": 0,
                "velocity": 64,
                "duration": 0.0659091,
                "tempo": 120.0
            },
            {
                "start_time": 46.7136364,
                "end_time": 46.7795455,
                "pitch": 67,
                "velocity": 64,
                "duration": 0.0659091,
                "tempo": 120.0
            },
            {
                "start_time": 46.8136364,
                "end_time": 46.8795455,
                "pitch": 0,
                "velocity": 64,
                "duration": 0.0659091,
                "tempo": 120.0
            },
            {
                "start_time": 46.9136364,
                "end_time": 47.0795455,
                "pitch": 67,
                "velocity": 64,
                "duration": 0.1659091,
                "tempo": 120.0
            },
            {
                "start_time": 47.1136364,
                "end_time": 47.1795455,
                "pitch": 69,
                "velocity": 64,
                "duration": 0.0659091,
                "tempo": 120.0
            },
            {
                "start_time": 47.2136364,
                "end_time": 47.2795455,
                "pitch": 0,
                "velocity": 64,
                "duration": 0.0659091,
                "tempo": 120.0
            },
            {
                "start_time": 47.3136364,
                "end_time": 47.3795455,
                "pitch": 71,
                "velocity": 64,
                "duration": 0.0659091,
                "tempo": 120.0
            },
            {
                "start_time": 47.4136364,
                "end_time": 47.5795455,
                "pitch": 72,
                "velocity": 64,
                "duration": 0.1659091,
                "tempo": 120.0
            },
            {
                "start_time": 47.6136364,
                "end_time": 47.7795455,
                "pitch": 67,
                "velocity": 64,
                "duration": 0.1659091,
                "tempo": 120.0
            },
            {
                "start_time": 47.8136364,
                "end_time": 47.8795455,
                "pitch": 72,
                "velocity": 64,
                "duration": 0.0659091,
                "tempo": 120.0
            },
            {
                "start_time": 47.9136364,
                "end_time": 47.9818182,
                "pitch": 72,
                "velocity": 64,
                "duration": 0.0681818,
                "tempo": 120.0
            },
            {
                "start_time": 48.0136364,
                "end_time": 48.0818182,
                "pitch": 72,
                "velocity": 64,
                "duration": 0.0681818,
                "tempo": 120.0
            },
            {
                "start_time": 48.1159091,
                "end_time": 48.3818182,
                "pitch": 0,
                "velocity": 64,
                "duration": 0.2659091,
                "tempo": 120.0
            },
            {
                "start_time": 48.4159091,
                "end_time": 48.4818182,
                "pitch": 72,
                "velocity": 64,
                "duration": 0.0659091,
                "tempo": 120.0
            },
            {
                "start_time": 48.5159091,
                "end_time": 48.5818182,
                "pitch": 72,
                "velocity": 64,
                "duration": 0.0659091,
                "tempo": 120.0
            },
            {
                "start_time": 48.6159091,
                "end_time": 48.6818182,
                "pitch": 72,
                "velocity": 64,
                "duration": 0.0659091,
                "tempo": 120.0
            },
            {
                "start_time": 48.7159091,
                "end_time": 49.3818182,
                "pitch": 0,
                "velocity": 64,
                "duration": 0.6659091,
                "tempo": 120.0
            },
            {
                "start_time": 49.4159091,
                "end_time": 49.5818182,
                "pitch": 69,
                "velocity": 64,
                "duration": 0.1659091,
                "tempo": 120.0
            },
            {
                "start_time": 49.6159091,
                "end_time": 49.6818182,
                "pitch": 72,
                "velocity": 64,
                "duration": 0.0659091,
                "tempo": 120.0
            },
            {
                "start_time": 49.7159091,
                "end_time": 49.8840909,
                "pitch": 0,
                "velocity": 64,
                "duration": 0.1681818,
                "tempo": 120.0
            },
            {
                "start_time": 49.9159091,
                "end_time": 50.0840909,
                "pitch": 69,
                "velocity": 64,
                "duration": 0.1681818,
                "tempo": 120.0
            },
            {
                "start_time": 50.1181818,
                "end_time": 50.1840909,
                "pitch": 71,
                "velocity": 64,
                "duration": 0.0659091,
                "tempo": 120.0
            },
            {
                "start_time": 50.2181818,
                "end_time": 50.3840909,
                "pitch": 71,
                "velocity": 64,
                "duration": 0.1659091,
                "tempo": 120.0
            },
            {
                "start_time": 50.4181818,
                "end_time": 50.4840909,
                "pitch": 74,
                "velocity": 64,
                "duration": 0.0659091,
                "tempo": 120.0
            },
            {
                "start_time": 50.5181818,
                "end_time": 50.6886364,
                "pitch": 0,
                "velocity": 64,
                "duration": 0.1704545,
                "tempo": 120.0
            },
            {
                "start_time": 50.7227273,
                "end_time": 50.8931818,
                "pitch": 71,
                "velocity": 64,
                "duration": 0.1704545,
                "tempo": 120.0
            },
            {
                "start_time": 50.9272727,
                "end_time": 50.9954545,
                "pitch": 72,
                "velocity": 64,
                "duration": 0.0681818,
                "tempo": 120.0
            },
            {
                "start_time": 51.0272727,
                "end_time": 51.1909091,
                "pitch": 72,
                "velocity": 64,
                "duration": 0.1636364,
                "tempo": 120.0
            },
            {
                "start_time": 51.225,
                "end_time": 51.2886364,
                "pitch": 76,
                "velocity": 64,
                "duration": 0.0636364,
                "tempo": 120.0
            },
            {
                "start_time": 51.3227273,
                "end_time": 51.4909091,
                "pitch": 0,
                "velocity": 64,
                "duration": 0.1681818,
                "tempo": 120.0
            },
            {
                "start_time": 51.525,
                "end_time": 51.6954545,
                "pitch": 72,
                "velocity": 64,
                "duration": 0.1704545,
                "tempo": 120.0
            },
            {
                "start_time": 51.7295455,
                "end_time": 51.8931818,
                "pitch": 72,
                "velocity": 64,
                "duration": 0.1636364,
                "tempo": 120.0
            },
            {
                "start_time": 51.925,
                "end_time": 52.0840909,
                "pitch": 76,
                "velocity": 64,
                "duration": 0.1590909,
                "tempo": 120.0
            },
            {
                "start_time": 52.1159091,
                "end_time": 52.1795455,
                "pitch": 72,
                "velocity": 64,
                "duration": 0.0636364,
                "tempo": 120.0
            },
            {
                "start_time": 52.2136364,
                "end_time": 52.3863636,
                "pitch": 74,
                "velocity": 64,
                "duration": 0.1727273,
                "tempo": 120.0
            },
            {
                "start_time": 52.4204545,
                "end_time": 52.5909091,
                "pitch": 76,
                "velocity": 64,
                "duration": 0.1704545,
                "tempo": 120.0
            },
            {
                "start_time": 52.625,
                "end_time": 52.7909091,
                "pitch": 69,
                "velocity": 64,
                "duration": 0.1659091,
                "tempo": 120.0
            },
            {
                "start_time": 52.825,
                "end_time": 52.8909091,
                "pitch": 72,
                "velocity": 64,
                "duration": 0.0659091,
                "tempo": 120.0
            },
            {
                "start_time": 52.925,
                "end_time": 53.0909091,
                "pitch": 0,
                "velocity": 64,
                "duration": 0.1659091,
                "tempo": 120.0
            },
            {
                "start_time": 53.125,
                "end_time": 53.2909091,
                "pitch": 69,
                "velocity": 64,
                "duration": 0.1659091,
                "tempo": 120.0
            },
            {
                "start_time": 53.325,
                "end_time": 53.3909091,
                "pitch": 71,
                "velocity": 64,
                "duration": 0.0659091,
                "tempo": 120.0
            },
            {
                "start_time": 53.425,
                "end_time": 53.5909091,
                "pitch": 71,
                "velocity": 64,
                "duration": 0.1659091,
                "tempo": 120.0
            },
            {
                "start_time": 53.625,
                "end_time": 53.6909091,
                "pitch": 74,
                "velocity": 64,
                "duration": 0.0659091,
                "tempo": 120.0
            },
            {
                "start_time": 53.725,
                "end_time": 53.8931818,
                "pitch": 0,
                "velocity": 64,
                "duration": 0.1681818,
                "tempo": 120.0
            },
            {
                "start_time": 53.9272727,
                "end_time": 54.1,
                "pitch": 71,
                "velocity": 64,
                "duration": 0.1727273,
                "tempo": 120.0
            },
            {
                "start_time": 54.1340909,
                "end_time": 54.2022727,
                "pitch": 72,
                "velocity": 64,
                "duration": 0.0681818,
                "tempo": 120.0
            },
            {
                "start_time": 54.2340909,
                "end_time": 54.3977273,
                "pitch": 72,
                "velocity": 64,
                "duration": 0.1636364,
                "tempo": 120.0
            },
            {
                "start_time": 54.4295455,
                "end_time": 54.4954545,
                "pitch": 76,
                "velocity": 64,
                "duration": 0.0659091,
                "tempo": 120.0
            },
            {
                "start_time": 54.5272727,
                "end_time": 54.6931818,
                "pitch": 0,
                "velocity": 64,
                "duration": 0.1659091,
                "tempo": 120.0
            },
            {
                "start_time": 54.7272727,
                "end_time": 54.8931818,
                "pitch": 72,
                "velocity": 64,
                "duration": 0.1659091,
                "tempo": 120.0
            },
            {
                "start_time": 54.9272727,
                "end_time": 55.0909091,
                "pitch": 72,
                "velocity": 64,
                "duration": 0.1636364,
                "tempo": 120.0
            },
            {
                "start_time": 55.1227273,
                "end_time": 55.2863636,
                "pitch": 76,
                "velocity": 64,
                "duration": 0.1636364,
                "tempo": 120.0
            },
            {
                "start_time": 55.3204545,
                "end_time": 55.3863636,
                "pitch": 72,
                "velocity": 64,
                "duration": 0.0659091,
                "tempo": 120.0
            },
            {
                "start_time": 55.4204545,
                "end_time": 55.5977273,
                "pitch": 74,
                "velocity": 64,
                "duration": 0.1772727,
                "tempo": 120.0
            },
            {
                "start_time": 55.6318182,
                "end_time": 55.8068182,
                "pitch": 76,
                "velocity": 64,
                "duration": 0.175,
                "tempo": 120.0
            },
            {
                "start_time": 55.8386364,
                "end_time": 56.0022727,
                "pitch": 69,
                "velocity": 64,
                "duration": 0.1636364,
                "tempo": 120.0
            },
            {
                "start_time": 56.0363636,
                "end_time": 56.1022727,
                "pitch": 72,
                "velocity": 64,
                "duration": 0.0659091,
                "tempo": 120.0
            },
            {
                "start_time": 56.1340909,
                "end_time": 56.3,
                "pitch": 0,
                "velocity": 64,
                "duration": 0.1659091,
                "tempo": 120.0
            },
            {
                "start_time": 56.3318182,
                "end_time": 56.5,
                "pitch": 69,
                "velocity": 64,
                "duration": 0.1681818,
                "tempo": 120.0
            },
            {
                "start_time": 56.5318182,
                "end_time": 56.6,
                "pitch": 71,
                "velocity": 64,
                "duration": 0.0681818,
                "tempo": 120.0
            },
            {
                "start_time": 56.6340909,
                "end_time": 56.8045455,
                "pitch": 71,
                "velocity": 64,
                "duration": 0.1704545,
                "tempo": 120.0
            },
            {
                "start_time": 56.8386364,
                "end_time": 56.9068182,
                "pitch": 74,
                "velocity": 64,
                "duration": 0.0681818,
                "tempo": 120.0
            },
            {
                "start_time": 56.9431818,
                "end_time": 57.1113636,
                "pitch": 0,
                "velocity": 64,
                "duration": 0.1681818,
                "tempo": 120.0
            },
            {
                "start_time": 57.1431818,
                "end_time": 57.3113636,
                "pitch": 71,
                "velocity": 64,
                "duration": 0.1681818,
                "tempo": 120.0
            },
            {
                "start_time": 57.3431818,
                "end_time": 57.4090909,
                "pitch": 72,
                "velocity": 64,
                "duration": 0.0659091,
                "tempo": 120.0
            },
            {
                "start_time": 57.4431818,
                "end_time": 57.6068182,
                "pitch": 72,
                "velocity": 64,
                "duration": 0.1636364,
                "tempo": 120.0
            },
            {
                "start_time": 57.6386364,
                "end_time": 57.7045455,
                "pitch": 76,
                "velocity": 64,
                "duration": 0.0659091,
                "tempo": 120.0
            },
            {
                "start_time": 57.7363636,
                "end_time": 57.9045455,
                "pitch": 0,
                "velocity": 64,
                "duration": 0.1681818,
                "tempo": 120.0
            },
            {
                "start_time": 57.9363636,
                "end_time": 58.1045455,
                "pitch": 72,
                "velocity": 64,
                "duration": 0.1681818,
                "tempo": 120.0
            },
            {
                "start_time": 58.1386364,
                "end_time": 58.3022727,
                "pitch": 72,
                "velocity": 64,
                "duration": 0.1636364,
                "tempo": 120.0
            },
            {
                "start_time": 58.3363636,
                "end_time": 58.4977273,
                "pitch": 76,
                "velocity": 64,
                "duration": 0.1613636,
                "tempo": 120.0
            },
            {
                "start_time": 58.5318182,
                "end_time": 58.5977273,
                "pitch": 72,
                "velocity": 64,
                "duration": 0.0659091,
                "tempo": 120.0
            },
            {
                "start_time": 58.6318182,
                "end_time": 58.8022727,
                "pitch": 74,
                "velocity": 64,
                "duration": 0.1704545,
                "tempo": 120.0
            },
            {
                "start_time": 58.8363636,
                "end_time": 59.0090909,
                "pitch": 76,
                "velocity": 64,
                "duration": 0.1727273,
                "tempo": 120.0
            },
            {
                "start_time": 59.0409091,
                "end_time": 59.2090909,
                "pitch": 69,
                "velocity": 64,
                "duration": 0.1681818,
                "tempo": 120.0
            },
            {
                "start_time": 59.2409091,
                "end_time": 59.3090909,
                "pitch": 72,
                "velocity": 64,
                "duration": 0.0681818,
                "tempo": 120.0
            },
            {
                "start_time": 59.3409091,
                "end_time": 59.5090909,
                "pitch": 0,
                "velocity": 64,
                "duration": 0.1681818,
                "tempo": 120.0
            },
            {
                "start_time": 59.5409091,
                "end_time": 59.7090909,
                "pitch": 69,
                "velocity": 64,
                "duration": 0.1681818,
                "tempo": 120.0
            },
            {
                "start_time": 59.7409091,
                "end_time": 59.8090909,
                "pitch": 71,
                "velocity": 64,
                "duration": 0.0681818,
                "tempo": 120.0
            },
            {
                "start_time": 59.8431818,
                "end_time": 60.0136364,
                "pitch": 71,
                "velocity": 64,
                "duration": 0.1704545,
                "tempo": 120.0
            },
            {
                "start_time": 60.0477273,
                "end_time": 60.1159091,
                "pitch": 74,
                "velocity": 64,
                "duration": 0.0681818,
                "tempo": 120.0
            },
            {
                "start_time": 60.15,
                "end_time": 60.3159091,
                "pitch": 0,
                "velocity": 64,
                "duration": 0.1659091,
                "tempo": 120.0
            },
            {
                "start_time": 60.35,
                "end_time": 60.5136364,
                "pitch": 71,
                "velocity": 64,
                "duration": 0.1636364,
                "tempo": 120.0
            },
            {
                "start_time": 60.5454545,
                "end_time": 60.6113636,
                "pitch": 72,
                "velocity": 64,
                "duration": 0.0659091,
                "tempo": 120.0
            },
            {
                "start_time": 60.6454545,
                "end_time": 60.8159091,
                "pitch": 72,
                "velocity": 64,
                "duration": 0.1704545,
                "tempo": 120.0
            },
            {
                "start_time": 60.85,
                "end_time": 60.9181818,
                "pitch": 76,
                "velocity": 64,
                "duration": 0.0681818,
                "tempo": 120.0
            },
            {
                "start_time": 60.9545455,
                "end_time": 61.1181818,
                "pitch": 0,
                "velocity": 64,
                "duration": 0.1636364,
                "tempo": 120.0
            },
            {
                "start_time": 61.1522727,
                "end_time": 61.3159091,
                "pitch": 72,
                "velocity": 64,
                "duration": 0.1636364,
                "tempo": 120.0
            },
            {
                "start_time": 61.3477273,
                "end_time": 61.5136364,
                "pitch": 72,
                "velocity": 64,
                "duration": 0.1659091,
                "tempo": 120.0
            },
            {
                "start_time": 61.5477273,
                "end_time": 61.7136364,
                "pitch": 76,
                "velocity": 64,
                "duration": 0.1659091,
                "tempo": 120.0
            },
            {
                "start_time": 61.7477273,
                "end_time": 61.8136364,
                "pitch": 72,
                "velocity": 64,
                "duration": 0.0659091,
                "tempo": 120.0
            },
            {
                "start_time": 61.8477273,
                "end_time": 62.0159091,
                "pitch": 74,
                "velocity": 64,
                "duration": 0.1681818,
                "tempo": 120.0
            },
            {
                "start_time": 62.0477273,
                "end_time": 62.2159091,
                "pitch": 76,
                "velocity": 64,
                "duration": 0.1681818,
                "tempo": 120.0
            },
            {
                "start_time": 62.25,
                "end_time": 62.4159091,
                "pitch": 76,
                "velocity": 64,
                "duration": 0.1659091,
                "tempo": 120.0
            },
            {
                "start_time": 62.45,
                "end_time": 65.425,
                "pitch": 0,
                "velocity": 64,
                "duration": 2.975,
                "tempo": 120.0
            },
            {
                "start_time": 65.4568182,
                "end_time": 65.725,
                "pitch": 72,
                "velocity": 64,
                "duration": 0.2681818,
                "tempo": 120.0
            },
            {
                "start_time": 65.7568182,
                "end_time": 65.825,
                "pitch": 72,
                "velocity": 64,
                "duration": 0.0681818,
                "tempo": 120.0
            },
            {
                "start_time": 65.8590909,
                "end_time": 66.0295455,
                "pitch": 0,
                "velocity": 64,
                "duration": 0.1704545,
                "tempo": 120.0
            },
            {
                "start_time": 66.0636364,
                "end_time": 66.2363636,
                "pitch": 72,
                "velocity": 64,
                "duration": 0.1727273,
                "tempo": 120.0
            },
            {
                "start_time": 66.2681818,
                "end_time": 66.4363636,
                "pitch": 0,
                "velocity": 64,
                "duration": 0.1681818,
                "tempo": 120.0
            },
            {
                "start_time": 66.4704545,
                "end_time": 66.5363636,
                "pitch": 71,
                "velocity": 64,
                "duration": 0.0659091,
                "tempo": 120.0
            },
            {
                "start_time": 66.5704545,
                "end_time": 66.6386364,
                "pitch": 0,
                "velocity": 64,
                "duration": 0.0681818,
                "tempo": 120.0
            },
            {
                "start_time": 66.6704545,
                "end_time": 66.8340909,
                "pitch": 72,
                "velocity": 64,
                "duration": 0.1636364,
                "tempo": 120.0
            },
            {
                "start_time": 66.8659091,
                "end_time": 67.0295455,
                "pitch": 0,
                "velocity": 64,
                "duration": 0.1636364,
                "tempo": 120.0
            },
            {
                "start_time": 67.0636364,
                "end_time": 67.3318182,
                "pitch": 72,
                "velocity": 64,
                "duration": 0.2681818,
                "tempo": 120.0
            },
            {
                "start_time": 67.3659091,
                "end_time": 67.4340909,
                "pitch": 72,
                "velocity": 64,
                "duration": 0.0681818,
                "tempo": 120.0
            },
            {
                "start_time": 67.4681818,
                "end_time": 67.6386364,
                "pitch": 0,
                "velocity": 64,
                "duration": 0.1704545,
                "tempo": 120.0
            },
            {
                "start_time": 67.6727273,
                "end_time": 67.8431818,
                "pitch": 72,
                "velocity": 64,
                "duration": 0.1704545,
                "tempo": 120.0
            },
            {
                "start_time": 67.8772727,
                "end_time": 68.0431818,
                "pitch": 0,
                "velocity": 64,
                "duration": 0.1659091,
                "tempo": 120.0
            },
            {
                "start_time": 68.0772727,
                "end_time": 68.1431818,
                "pitch": 71,
                "velocity": 64,
                "duration": 0.0659091,
                "tempo": 120.0
            },
            {
                "start_time": 68.1772727,
                "end_time": 68.2431818,
                "pitch": 0,
                "velocity": 64,
                "duration": 0.0659091,
                "tempo": 120.0
            },
            {
                "start_time": 68.2772727,
                "end_time": 68.4386364,
                "pitch": 72,
                "velocity": 64,
                "duration": 0.1613636,
                "tempo": 120.0
            },
            {
                "start_time": 68.4727273,
                "end_time": 68.6363636,
                "pitch": 0,
                "velocity": 64,
                "duration": 0.1636364,
                "tempo": 120.0
            },
            {
                "start_time": 68.6704545,
                "end_time": 68.9386364,
                "pitch": 72,
                "velocity": 64,
                "duration": 0.2681818,
                "tempo": 120.0
            },
            {
                "start_time": 68.9727273,
                "end_time": 69.0386364,
                "pitch": 72,
                "velocity": 64,
                "duration": 0.0659091,
                "tempo": 120.0
            },
            {
                "start_time": 69.0727273,
                "end_time": 69.2454545,
                "pitch": 0,
                "velocity": 64,
                "duration": 0.1727273,
                "tempo": 120.0
            },
            {
                "start_time": 69.2795455,
                "end_time": 69.45,
                "pitch": 72,
                "velocity": 64,
                "duration": 0.1704545,
                "tempo": 120.0
            },
            {
                "start_time": 69.4818182,
                "end_time": 69.6454545,
                "pitch": 0,
                "velocity": 64,
                "duration": 0.1636364,
                "tempo": 120.0
            },
            {
                "start_time": 69.6772727,
                "end_time": 69.7431818,
                "pitch": 71,
                "velocity": 64,
                "duration": 0.0659091,
                "tempo": 120.0
            },
            {
                "start_time": 69.775,
                "end_time": 69.8409091,
                "pitch": 0,
                "velocity": 64,
                "duration": 0.0659091,
                "tempo": 120.0
            },
            {
                "start_time": 69.875,
                "end_time": 70.0431818,
                "pitch": 72,
                "velocity": 64,
                "duration": 0.1681818,
                "tempo": 120.0
            },
            {
                "start_time": 70.0772727,
                "end_time": 70.2431818,
                "pitch": 0,
                "velocity": 64,
                "duration": 0.1659091,
                "tempo": 120.0
            },
            {
                "start_time": 70.2772727,
                "end_time": 70.5431818,
                "pitch": 72,
                "velocity": 64,
                "duration": 0.2659091,
                "tempo": 120.0
            },
            {
                "start_time": 70.5772727,
                "end_time": 70.6454545,
                "pitch": 72,
                "velocity": 64,
                "duration": 0.0681818,
                "tempo": 120.0
            },
            {
                "start_time": 70.6772727,
                "end_time": 70.8454545,
                "pitch": 0,
                "velocity": 64,
                "duration": 0.1681818,
                "tempo": 120.0
            },
            {
                "start_time": 70.8795455,
                "end_time": 71.0477273,
                "pitch": 72,
                "velocity": 64,
                "duration": 0.1681818,
                "tempo": 120.0
            },
            {
                "start_time": 71.0818182,
                "end_time": 71.2522727,
                "pitch": 0,
                "velocity": 64,
                "duration": 0.1704545,
                "tempo": 120.0
            },
            {
                "start_time": 71.2863636,
                "end_time": 71.3545455,
                "pitch": 71,
                "velocity": 64,
                "duration": 0.0681818,
                "tempo": 120.0
            },
            {
                "start_time": 71.3886364,
                "end_time": 71.4568182,
                "pitch": 0,
                "velocity": 64,
                "duration": 0.0681818,
                "tempo": 120.0
            },
            {
                "start_time": 71.4909091,
                "end_time": 71.6545455,
                "pitch": 72,
                "velocity": 64,
                "duration": 0.1636364,
                "tempo": 120.0
            },
            {
                "start_time": 71.6863636,
                "end_time": 71.85,
                "pitch": 0,
                "velocity": 64,
                "duration": 0.1636364,
                "tempo": 120.0
            },
            {
                "start_time": 71.8840909,
                "end_time": 72.0522727,
                "pitch": 72,
                "velocity": 64,
                "duration": 0.1681818,
                "tempo": 120.0
            },
            {
                "start_time": 72.0840909,
                "end_time": 72.2522727,
                "pitch": 69,
                "velocity": 64,
                "duration": 0.1681818,
                "tempo": 120.0
            },
            {
                "start_time": 72.2863636,
                "end_time": 72.3522727,
                "pitch": 0,
                "velocity": 64,
                "duration": 0.0659091,
                "tempo": 120.0
            },
            {
                "start_time": 72.3863636,
                "end_time": 72.4522727,
                "pitch": 69,
                "velocity": 64,
                "duration": 0.0659091,
                "tempo": 120.0
            },
            {
                "start_time": 72.4863636,
                "end_time": 72.5522727,
                "pitch": 0,
                "velocity": 64,
                "duration": 0.0659091,
                "tempo": 120.0
            },
            {
                "start_time": 72.5863636,
                "end_time": 72.7522727,
                "pitch": 69,
                "velocity": 64,
                "duration": 0.1659091,
                "tempo": 120.0
            },
            {
                "start_time": 72.7863636,
                "end_time": 72.8545455,
                "pitch": 72,
                "velocity": 64,
                "duration": 0.0681818,
                "tempo": 120.0
            },
            {
                "start_time": 72.8886364,
                "end_time": 72.9545455,
                "pitch": 0,
                "velocity": 64,
                "duration": 0.0659091,
                "tempo": 120.0
            },
            {
                "start_time": 72.9886364,
                "end_time": 73.0545455,
                "pitch": 69,
                "velocity": 64,
                "duration": 0.0659091,
                "tempo": 120.0
            },
            {
                "start_time": 73.0886364,
                "end_time": 73.2568182,
                "pitch": 71,
                "velocity": 64,
                "duration": 0.1681818,
                "tempo": 120.0
            },
            {
                "start_time": 73.2909091,
                "end_time": 73.4568182,
                "pitch": 72,
                "velocity": 64,
                "duration": 0.1659091,
                "tempo": 120.0
            },
            {
                "start_time": 73.4909091,
                "end_time": 73.6568182,
                "pitch": 71,
                "velocity": 64,
                "duration": 0.1659091,
                "tempo": 120.0
            },
            {
                "start_time": 73.6909091,
                "end_time": 73.8590909,
                "pitch": 67,
                "velocity": 64,
                "duration": 0.1681818,
                "tempo": 120.0
            },
            {
                "start_time": 73.8909091,
                "end_time": 73.9590909,
                "pitch": 0,
                "velocity": 64,
                "duration": 0.0681818,
                "tempo": 120.0
            },
            {
                "start_time": 73.9931818,
                "end_time": 74.0590909,
                "pitch": 67,
                "velocity": 64,
                "duration": 0.0659091,
                "tempo": 120.0
            },
            {
                "start_time": 74.0931818,
                "end_time": 74.1590909,
                "pitch": 0,
                "velocity": 64,
                "duration": 0.0659091,
                "tempo": 120.0
            },
            {
                "start_time": 74.1931818,
                "end_time": 74.3613636,
                "pitch": 67,
                "velocity": 64,
                "duration": 0.1681818,
                "tempo": 120.0
            },
            {
                "start_time": 74.3931818,
                "end_time": 74.4613636,
                "pitch": 71,
                "velocity": 64,
                "duration": 0.0681818,
                "tempo": 120.0
            },
            {
                "start_time": 74.4931818,
                "end_time": 74.5613636,
                "pitch": 0,
                "velocity": 64,
                "duration": 0.0681818,
                "tempo": 120.0
            },
            {
                "start_time": 74.5931818,
                "end_time": 74.6613636,
                "pitch": 67,
                "velocity": 64,
                "duration": 0.0681818,
                "tempo": 120.0
            },
            {
                "start_time": 74.6931818,
                "end_time": 74.7613636,
                "pitch": 72,
                "velocity": 64,
                "duration": 0.0681818,
                "tempo": 120.0
            },
            {
                "start_time": 74.7954545,
                "end_time": 74.8613636,
                "pitch": 72,
                "velocity": 64,
                "duration": 0.0659091,
                "tempo": 120.0
            },
            {
                "start_time": 74.8954545,
                "end_time": 75.0636364,
                "pitch": 67,
                "velocity": 64,
                "duration": 0.1681818,
                "tempo": 120.0
            },
            {
                "start_time": 75.0977273,
                "end_time": 75.2636364,
                "pitch": 71,
                "velocity": 64,
                "duration": 0.1659091,
                "tempo": 120.0
            },
            {
                "start_time": 75.2977273,
                "end_time": 75.4659091,
                "pitch": 67,
                "velocity": 64,
                "duration": 0.1681818,
                "tempo": 120.0
            },
            {
                "start_time": 75.5,
                "end_time": 75.5659091,
                "pitch": 0,
                "velocity": 64,
                "duration": 0.0659091,
                "tempo": 120.0
            },
            {
                "start_time": 75.6,
                "end_time": 75.6659091,
                "pitch": 67,
                "velocity": 64,
                "duration": 0.0659091,
                "tempo": 120.0
            },
            {
                "start_time": 75.7,
                "end_time": 75.7659091,
                "pitch": 0,
                "velocity": 64,
                "duration": 0.0659091,
                "tempo": 120.0
            },
            {
                "start_time": 75.8,
                "end_time": 75.9659091,
                "pitch": 67,
                "velocity": 64,
                "duration": 0.1659091,
                "tempo": 120.0
            },
            {
                "start_time": 76.0,
                "end_time": 76.0681818,
                "pitch": 69,
                "velocity": 64,
                "duration": 0.0681818,
                "tempo": 120.0
            },
            {
                "start_time": 76.1,
                "end_time": 76.1681818,
                "pitch": 0,
                "velocity": 64,
                "duration": 0.0681818,
                "tempo": 120.0
            },
            {
                "start_time": 76.2022727,
                "end_time": 76.2681818,
                "pitch": 71,
                "velocity": 64,
                "duration": 0.0659091,
                "tempo": 120.0
            },
            {
                "start_time": 76.3022727,
                "end_time": 76.4681818,
                "pitch": 72,
                "velocity": 64,
                "duration": 0.1659091,
                "tempo": 120.0
            },
            {
                "start_time": 76.5022727,
                "end_time": 76.6681818,
                "pitch": 67,
                "velocity": 64,
                "duration": 0.1659091,
                "tempo": 120.0
            },
            {
                "start_time": 76.7022727,
                "end_time": 76.8704545,
                "pitch": 72,
                "velocity": 64,
                "duration": 0.1681818,
                "tempo": 120.0
            },
            {
                "start_time": 76.9045455,
                "end_time": 77.0704545,
                "pitch": 69,
                "velocity": 64,
                "duration": 0.1659091,
                "tempo": 120.0
            },
            {
                "start_time": 77.1045455,
                "end_time": 77.1727273,
                "pitch": 0,
                "velocity": 64,
                "duration": 0.0681818,
                "tempo": 120.0
            },
            {
                "start_time": 77.2068182,
                "end_time": 77.2727273,
                "pitch": 69,
                "velocity": 64,
                "duration": 0.0659091,
                "tempo": 120.0
            },
            {
                "start_time": 77.3068182,
                "end_time": 77.3727273,
                "pitch": 0,
                "velocity": 64,
                "duration": 0.0659091,
                "tempo": 120.0
            },
            {
                "start_time": 77.4068182,
                "end_time": 77.575,
                "pitch": 69,
                "velocity": 64,
                "duration": 0.1681818,
                "tempo": 120.0
            },
            {
                "start_time": 77.6068182,
                "end_time": 77.675,
                "pitch": 72,
                "velocity": 64,
                "duration": 0.0681818,
                "tempo": 120.0
            },
            {
                "start_time": 77.7068182,
                "end_time": 77.775,
                "pitch": 0,
                "velocity": 64,
                "duration": 0.0681818,
                "tempo": 120.0
            },
            {
                "start_time": 77.8068182,
                "end_time": 77.875,
                "pitch": 69,
                "velocity": 64,
                "duration": 0.0681818,
                "tempo": 120.0
            },
            {
                "start_time": 77.9068182,
                "end_time": 77.975,
                "pitch": 71,
                "velocity": 64,
                "duration": 0.0681818,
                "tempo": 120.0
            },
            {
                "start_time": 78.0090909,
                "end_time": 78.075,
                "pitch": 71,
                "velocity": 64,
                "duration": 0.0659091,
                "tempo": 120.0
            },
            {
                "start_time": 78.1090909,
                "end_time": 78.2772727,
                "pitch": 72,
                "velocity": 64,
                "duration": 0.1681818,
                "tempo": 120.0
            },
            {
                "start_time": 78.3090909,
                "end_time": 78.4772727,
                "pitch": 72,
                "velocity": 64,
                "duration": 0.1681818,
                "tempo": 120.0
            },
            {
                "start_time": 78.5090909,
                "end_time": 78.6772727,
                "pitch": 69,
                "velocity": 64,
                "duration": 0.1681818,
                "tempo": 120.0
            },
            {
                "start_time": 78.7113636,
                "end_time": 78.7772727,
                "pitch": 0,
                "velocity": 64,
                "duration": 0.0659091,
                "tempo": 120.0
            },
            {
                "start_time": 78.8113636,
                "end_time": 78.8772727,
                "pitch": 69,
                "velocity": 64,
                "duration": 0.0659091,
                "tempo": 120.0
            },
            {
                "start_time": 78.9113636,
                "end_time": 78.9795455,
                "pitch": 0,
                "velocity": 64,
                "duration": 0.0681818,
                "tempo": 120.0
            },
            {
                "start_time": 79.0113636,
                "end_time": 79.1795455,
                "pitch": 69,
                "velocity": 64,
                "duration": 0.1681818,
                "tempo": 120.0
            },
            {
                "start_time": 79.2136364,
                "end_time": 79.2818182,
                "pitch": 72,
                "velocity": 64,
                "duration": 0.0681818,
                "tempo": 120.0
            },
            {
                "start_time": 79.3136364,
                "end_time": 79.3818182,
                "pitch": 0,
                "velocity": 64,
                "duration": 0.0681818,
                "tempo": 120.0
            },
            {
                "start_time": 79.4159091,
                "end_time": 79.4818182,
                "pitch": 69,
                "velocity": 64,
                "duration": 0.0659091,
                "tempo": 120.0
            },
            {
                "start_time": 79.5159091,
                "end_time": 79.6818182,
                "pitch": 71,
                "velocity": 64,
                "duration": 0.1659091,
                "tempo": 120.0
            },
            {
                "start_time": 79.7159091,
                "end_time": 79.8818182,
                "pitch": 72,
                "velocity": 64,
                "duration": 0.1659091,
                "tempo": 120.0
            },
            {
                "start_time": 79.9159091,
                "end_time": 80.0840909,
                "pitch": 71,
                "velocity": 64,
                "duration": 0.1681818,
                "tempo": 120.0
            },
            {
                "start_time": 80.1181818,
                "end_time": 80.2840909,
                "pitch": 67,
                "velocity": 64,
                "duration": 0.1659091,
                "tempo": 120.0
            },
            {
                "start_time": 80.3181818,
                "end_time": 80.3840909,
                "pitch": 0,
                "velocity": 64,
                "duration": 0.0659091,
                "tempo": 120.0
            },
            {
                "start_time": 80.4181818,
                "end_time": 80.4840909,
                "pitch": 67,
                "velocity": 64,
                "duration": 0.0659091,
                "tempo": 120.0
            },
            {
                "start_time": 80.5181818,
                "end_time": 80.5840909,
                "pitch": 0,
                "velocity": 64,
                "duration": 0.0659091,
                "tempo": 120.0
            },
            {
                "start_time": 80.6181818,
                "end_time": 80.7863636,
                "pitch": 67,
                "velocity": 64,
                "duration": 0.1681818,
                "tempo": 120.0
            },
            {
                "start_time": 80.8181818,
                "end_time": 80.8863636,
                "pitch": 71,
                "velocity": 64,
                "duration": 0.0681818,
                "tempo": 120.0
            },
            {
                "start_time": 80.9204545,
                "end_time": 80.9863636,
                "pitch": 0,
                "velocity": 64,
                "duration": 0.0659091,
                "tempo": 120.0
            },
            {
                "start_time": 81.0204545,
                "end_time": 81.0886364,
                "pitch": 67,
                "velocity": 64,
                "duration": 0.0681818,
                "tempo": 120.0
            },
            {
                "start_time": 81.1204545,
                "end_time": 81.1886364,
                "pitch": 72,
                "velocity": 64,
                "duration": 0.0681818,
                "tempo": 120.0
            },
            {
                "start_time": 81.2227273,
                "end_time": 81.2886364,
                "pitch": 72,
                "velocity": 64,
                "duration": 0.0659091,
                "tempo": 120.0
            },
            {
                "start_time": 81.3227273,
                "end_time": 81.4909091,
                "pitch": 67,
                "velocity": 64,
                "duration": 0.1681818,
                "tempo": 120.0
            },
            {
                "start_time": 81.5227273,
                "end_time": 81.6909091,
                "pitch": 71,
                "velocity": 64,
                "duration": 0.1681818,
                "tempo": 120.0
            },
            {
                "start_time": 81.7227273,
                "end_time": 81.8909091,
                "pitch": 67,
                "velocity": 64,
                "duration": 0.1681818,
                "tempo": 120.0
            },
            {
                "start_time": 81.9227273,
                "end_time": 81.9909091,
                "pitch": 0,
                "velocity": 64,
                "duration": 0.0681818,
                "tempo": 120.0
            },
            {
                "start_time": 82.025,
                "end_time": 82.0909091,
                "pitch": 67,
                "velocity": 64,
                "duration": 0.0659091,
                "tempo": 120.0
            },
            {
                "start_time": 82.125,
                "end_time": 82.1931818,
                "pitch": 0,
                "velocity": 64,
                "duration": 0.0681818,
                "tempo": 120.0
            },
            {
                "start_time": 82.225,
                "end_time": 82.3931818,
                "pitch": 67,
                "velocity": 64,
                "duration": 0.1681818,
                "tempo": 120.0
            },
            {
                "start_time": 82.4272727,
                "end_time": 82.4931818,
                "pitch": 69,
                "velocity": 64,
                "duration": 0.0659091,
                "tempo": 120.0
            },
            {
                "start_time": 82.5272727,
                "end_time": 82.5931818,
                "pitch": 0,
                "velocity": 64,
                "duration": 0.0659091,
                "tempo": 120.0
            },
            {
                "start_time": 82.6272727,
                "end_time": 82.6931818,
                "pitch": 71,
                "velocity": 64,
                "duration": 0.0659091,
                "tempo": 120.0
            },
            {
                "start_time": 82.7272727,
                "end_time": 82.8931818,
                "pitch": 72,
                "velocity": 64,
                "duration": 0.1659091,
                "tempo": 120.0
            },
            {
                "start_time": 82.9272727,
                "end_time": 83.0954545,
                "pitch": 67,
                "velocity": 64,
                "duration": 0.1681818,
                "tempo": 120.0
            },
            {
                "start_time": 83.1295455,
                "end_time": 83.1954545,
                "pitch": 72,
                "velocity": 64,
                "duration": 0.0659091,
                "tempo": 120.0
            },
            {
                "start_time": 83.2295455,
                "end_time": 83.2977273,
                "pitch": 72,
                "velocity": 64,
                "duration": 0.0681818,
                "tempo": 120.0
            },
            {
                "start_time": 83.3295455,
                "end_time": 83.3977273,
                "pitch": 72,
                "velocity": 64,
                "duration": 0.0681818,
                "tempo": 120.0
            },
            {
                "start_time": 83.4318182,
                "end_time": 83.6977273,
                "pitch": 0,
                "velocity": 64,
                "duration": 0.2659091,
                "tempo": 120.0
            },
            {
                "start_time": 83.7318182,
                "end_time": 83.7977273,
                "pitch": 72,
                "velocity": 64,
                "duration": 0.0659091,
                "tempo": 120.0
            },
            {
                "start_time": 83.8318182,
                "end_time": 83.8977273,
                "pitch": 72,
                "velocity": 64,
                "duration": 0.0659091,
                "tempo": 120.0
            },
            {
                "start_time": 83.9318182,
                "end_time": 84.0,
                "pitch": 72,
                "velocity": 64,
                "duration": 0.0681818,
                "tempo": 120.0
            },
            {
                "start_time": 84.0318182,
                "end_time": 84.7,
                "pitch": 0,
                "velocity": 64,
                "duration": 0.6681818,
                "tempo": 120.0
            },
            {
                "start_time": 84.7340909,
                "end_time": 84.9022727,
                "pitch": 69,
                "velocity": 64,
                "duration": 0.1681818,
                "tempo": 120.0
            },
            {
                "start_time": 84.9363636,
                "end_time": 85.0022727,
                "pitch": 72,
                "velocity": 64,
                "duration": 0.0659091,
                "tempo": 120.0
            },
            {
                "start_time": 85.0363636,
                "end_time": 85.2045455,
                "pitch": 0,
                "velocity": 64,
                "duration": 0.1681818,
                "tempo": 120.0
            },
            {
                "start_time": 85.2386364,
                "end_time": 85.4068182,
                "pitch": 69,
                "velocity": 64,
                "duration": 0.1681818,
                "tempo": 120.0
            },
            {
                "start_time": 85.4386364,
                "end_time": 85.5068182,
                "pitch": 71,
                "velocity": 64,
                "duration": 0.0681818,
                "tempo": 120.0
            },
            {
                "start_time": 85.5386364,
                "end_time": 85.7068182,
                "pitch": 71,
                "velocity": 64,
                "duration": 0.1681818,
                "tempo": 120.0
            },
            {
                "start_time": 85.7386364,
                "end_time": 85.8068182,
                "pitch": 74,
                "velocity": 64,
                "duration": 0.0681818,
                "tempo": 120.0
            },
            {
                "start_time": 85.8386364,
                "end_time": 86.0090909,
                "pitch": 0,
                "velocity": 64,
                "duration": 0.1704545,
                "tempo": 120.0
            },
            {
                "start_time": 86.0431818,
                "end_time": 86.2136364,
                "pitch": 71,
                "velocity": 64,
                "duration": 0.1704545,
                "tempo": 120.0
            },
            {
                "start_time": 86.25,
                "end_time": 86.3159091,
                "pitch": 72,
                "velocity": 64,
                "duration": 0.0659091,
                "tempo": 120.0
            },
            {
                "start_time": 86.35,
                "end_time": 86.5136364,
                "pitch": 72,
                "velocity": 64,
                "duration": 0.1636364,
                "tempo": 120.0
            },
            {
                "start_time": 86.5454545,
                "end_time": 86.6113636,
                "pitch": 76,
                "velocity": 64,
                "duration": 0.0659091,
                "tempo": 120.0
            },
            {
                "start_time": 86.6431818,
                "end_time": 86.8113636,
                "pitch": 0,
                "velocity": 64,
                "duration": 0.1681818,
                "tempo": 120.0
            },
            {
                "start_time": 86.8454545,
                "end_time": 87.0181818,
                "pitch": 72,
                "velocity": 64,
                "duration": 0.1727273,
                "tempo": 120.0
            },
            {
                "start_time": 87.0522727,
                "end_time": 87.2136364,
                "pitch": 72,
                "velocity": 64,
                "duration": 0.1613636,
                "tempo": 120.0
            },
            {
                "start_time": 87.2454545,
                "end_time": 87.4045455,
                "pitch": 76,
                "velocity": 64,
                "duration": 0.1590909,
                "tempo": 120.0
            },
            {
                "start_time": 87.4363636,
                "end_time": 87.5,
                "pitch": 72,
                "velocity": 64,
                "duration": 0.0636364,
                "tempo": 120.0
            },
            {
                "start_time": 87.5363636,
                "end_time": 87.7113636,
                "pitch": 74,
                "velocity": 64,
                "duration": 0.175,
                "tempo": 120.0
            },
            {
                "start_time": 87.7477273,
                "end_time": 87.9227273,
                "pitch": 76,
                "velocity": 64,
                "duration": 0.175,
                "tempo": 120.0
            },
            {
                "start_time": 87.9545455,
                "end_time": 88.1181818,
                "pitch": 69,
                "velocity": 64,
                "duration": 0.1636364,
                "tempo": 120.0
            },
            {
                "start_time": 88.15,
                "end_time": 88.2159091,
                "pitch": 72,
                "velocity": 64,
                "duration": 0.0659091,
                "tempo": 120.0
            },
            {
                "start_time": 88.25,
                "end_time": 88.4136364,
                "pitch": 0,
                "velocity": 64,
                "duration": 0.1636364,
                "tempo": 120.0
            },
            {
                "start_time": 88.4477273,
                "end_time": 88.6136364,
                "pitch": 69,
                "velocity": 64,
                "duration": 0.1659091,
                "tempo": 120.0
            },
            {
                "start_time": 88.6477273,
                "end_time": 88.7159091,
                "pitch": 71,
                "velocity": 64,
                "duration": 0.0681818,
                "tempo": 120.0
            },
            {
                "start_time": 88.7477273,
                "end_time": 88.9159091,
                "pitch": 71,
                "velocity": 64,
                "duration": 0.1681818,
                "tempo": 120.0
            },
            {
                "start_time": 88.95,
                "end_time": 89.0159091,
                "pitch": 74,
                "velocity": 64,
                "duration": 0.0659091,
                "tempo": 120.0
            },
            {
                "start_time": 89.05,
                "end_time": 89.2204545,
                "pitch": 0,
                "velocity": 64,
                "duration": 0.1704545,
                "tempo": 120.0
            },
            {
                "start_time": 89.2545455,
                "end_time": 89.425,
                "pitch": 71,
                "velocity": 64,
                "duration": 0.1704545,
                "tempo": 120.0
            },
            {
                "start_time": 89.4590909,
                "end_time": 89.5272727,
                "pitch": 72,
                "velocity": 64,
                "duration": 0.0681818,
                "tempo": 120.0
            },
            {
                "start_time": 89.5613636,
                "end_time": 89.725,
                "pitch": 72,
                "velocity": 64,
                "duration": 0.1636364,
                "tempo": 120.0
            },
            {
                "start_time": 89.7568182,
                "end_time": 89.8227273,
                "pitch": 76,
                "velocity": 64,
                "duration": 0.0659091,
                "tempo": 120.0
            },
            {
                "start_time": 89.8545455,
                "end_time": 90.0204545,
                "pitch": 0,
                "velocity": 64,
                "duration": 0.1659091,
                "tempo": 120.0
            },
            {
                "start_time": 90.0545455,
                "end_time": 90.2227273,
                "pitch": 72,
                "velocity": 64,
                "duration": 0.1681818,
                "tempo": 120.0
            },
            {
                "start_time": 90.2568182,
                "end_time": 90.4204545,
                "pitch": 72,
                "velocity": 64,
                "duration": 0.1636364,
                "tempo": 120.0
            },
            {
                "start_time": 90.4522727,
                "end_time": 90.6159091,
                "pitch": 76,
                "velocity": 64,
                "duration": 0.1636364,
                "tempo": 120.0
            },
            {
                "start_time": 90.65,
                "end_time": 90.7159091,
                "pitch": 72,
                "velocity": 64,
                "duration": 0.0659091,
                "tempo": 120.0
            },
            {
                "start_time": 90.75,
                "end_time": 90.9272727,
                "pitch": 74,
                "velocity": 64,
                "duration": 0.1772727,
                "tempo": 120.0
            },
            {
                "start_time": 90.9613636,
                "end_time": 91.1363636,
                "pitch": 76,
                "velocity": 64,
                "duration": 0.175,
                "tempo": 120.0
            },
            {
                "start_time": 91.1681818,
                "end_time": 91.3318182,
                "pitch": 69,
                "velocity": 64,
                "duration": 0.1636364,
                "tempo": 120.0
            },
            {
                "start_time": 91.3659091,
                "end_time": 91.4295455,
                "pitch": 72,
                "velocity": 64,
                "duration": 0.0636364,
                "tempo": 120.0
            },
            {
                "start_time": 91.4636364,
                "end_time": 91.6295455,
                "pitch": 0,
                "velocity": 64,
                "duration": 0.1659091,
                "tempo": 120.0
            },
            {
                "start_time": 91.6613636,
                "end_time": 91.8295455,
                "pitch": 69,
                "velocity": 64,
                "duration": 0.1681818,
                "tempo": 120.0
            },
            {
                "start_time": 91.8613636,
                "end_time": 91.9295455,
                "pitch": 71,
                "velocity": 64,
                "duration": 0.0681818,
                "tempo": 120.0
            },
            {
                "start_time": 91.9613636,
                "end_time": 92.1295455,
                "pitch": 71,
                "velocity": 64,
                "duration": 0.1681818,
                "tempo": 120.0
            },
            {
                "start_time": 92.1636364,
                "end_time": 92.2318182,
                "pitch": 74,
                "velocity": 64,
                "duration": 0.0681818,
                "tempo": 120.0
            },
            {
                "start_time": 92.2636364,
                "end_time": 92.4318182,
                "pitch": 0,
                "velocity": 64,
                "duration": 0.1681818,
                "tempo": 120.0
            },
            {
                "start_time": 92.4659091,
                "end_time": 92.6318182,
                "pitch": 71,
                "velocity": 64,
                "duration": 0.1659091,
                "tempo": 120.0
            },
            {
                "start_time": 92.6659091,
                "end_time": 92.7318182,
                "pitch": 72,
                "velocity": 64,
                "duration": 0.0659091,
                "tempo": 120.0
            },
            {
                "start_time": 92.7659091,
                "end_time": 92.9340909,
                "pitch": 72,
                "velocity": 64,
                "duration": 0.1681818,
                "tempo": 120.0
            },
            {
                "start_time": 92.9659091,
                "end_time": 93.0340909,
                "pitch": 76,
                "velocity": 64,
                "duration": 0.0681818,
                "tempo": 120.0
            },
            {
                "start_time": 93.0681818,
                "end_time": 93.2340909,
                "pitch": 0,
                "velocity": 64,
                "duration": 0.1659091,
                "tempo": 120.0
            },
            {
                "start_time": 93.2681818,
                "end_time": 93.4363636,
                "pitch": 72,
                "velocity": 64,
                "duration": 0.1681818,
                "tempo": 120.0
            },
            {
                "start_time": 93.4704545,
                "end_time": 93.6340909,
                "pitch": 72,
                "velocity": 64,
                "duration": 0.1636364,
                "tempo": 120.0
            },
            {
                "start_time": 93.6659091,
                "end_time": 93.8295455,
                "pitch": 76,
                "velocity": 64,
                "duration": 0.1636364,
                "tempo": 120.0
            },
            {
                "start_time": 93.8636364,
                "end_time": 93.9295455,
                "pitch": 72,
                "velocity": 64,
                "duration": 0.0659091,
                "tempo": 120.0
            },
            {
                "start_time": 93.9636364,
                "end_time": 94.1409091,
                "pitch": 74,
                "velocity": 64,
                "duration": 0.1772727,
                "tempo": 120.0
            },
            {
                "start_time": 94.175,
                "end_time": 94.35,
                "pitch": 76,
                "velocity": 64,
                "duration": 0.175,
                "tempo": 120.0
            },
            {
                "start_time": 94.3818182,
                "end_time": 94.5454545,
                "pitch": 69,
                "velocity": 64,
                "duration": 0.1636364,
                "tempo": 120.0
            },
            {
                "start_time": 94.5795455,
                "end_time": 94.6454545,
                "pitch": 72,
                "velocity": 64,
                "duration": 0.0659091,
                "tempo": 120.0
            },
            {
                "start_time": 94.6772727,
                "end_time": 94.8431818,
                "pitch": 0,
                "velocity": 64,
                "duration": 0.1659091,
                "tempo": 120.0
            },
            {
                "start_time": 94.8772727,
                "end_time": 95.0454545,
                "pitch": 69,
                "velocity": 64,
                "duration": 0.1681818,
                "tempo": 120.0
            },
            {
                "start_time": 95.0772727,
                "end_time": 95.1454545,
                "pitch": 71,
                "velocity": 64,
                "duration": 0.0681818,
                "tempo": 120.0
            },
            {
                "start_time": 95.1795455,
                "end_time": 95.3477273,
                "pitch": 71,
                "velocity": 64,
                "duration": 0.1681818,
                "tempo": 120.0
            },
            {
                "start_time": 95.3795455,
                "end_time": 95.4477273,
                "pitch": 74,
                "velocity": 64,
                "duration": 0.0681818,
                "tempo": 120.0
            },
            {
                "start_time": 95.4818182,
                "end_time": 95.6477273,
                "pitch": 0,
                "velocity": 64,
                "duration": 0.1659091,
                "tempo": 120.0
            },
            {
                "start_time": 95.6818182,
                "end_time": 95.8477273,
                "pitch": 71,
                "velocity": 64,
                "duration": 0.1659091,
                "tempo": 120.0
            },
            {
                "start_time": 95.8818182,
                "end_time": 95.9477273,
                "pitch": 72,
                "velocity": 64,
                "duration": 0.0659091,
                "tempo": 120.0
            },
            {
                "start_time": 95.9795455,
                "end_time": 96.1431818,
                "pitch": 72,
                "velocity": 64,
                "duration": 0.1636364,
                "tempo": 120.0
            },
            {
                "start_time": 96.1772727,
                "end_time": 96.2409091,
                "pitch": 76,
                "velocity": 64,
                "duration": 0.0636364,
                "tempo": 120.0
            },
            {
                "start_time": 96.275,
                "end_time": 96.4431818,
                "pitch": 0,
                "velocity": 64,
                "duration": 0.1681818,
                "tempo": 120.0
            },
            {
                "start_time": 96.4772727,
                "end_time": 96.6477273,
                "pitch": 72,
                "velocity": 64,
                "duration": 0.1704545,
                "tempo": 120.0
            },
            {
                "start_time": 96.6840909,
                "end_time": 96.8522727,
                "pitch": 72,
                "velocity": 64,
                "duration": 0.1681818,
                "tempo": 120.0
            },
            {
                "start_time": 96.8863636,
                "end_time": 97.0522727,
                "pitch": 76,
                "velocity": 64,
                "duration": 0.1659091,
                "tempo": 120.0
            },
            {
                "start_time": 97.0863636,
                "end_time": 97.1545455,
                "pitch": 72,
                "velocity": 64,
                "duration": 0.0681818,
                "tempo": 120.0
            },
            {
                "start_time": 97.1863636,
                "end_time": 97.3545455,
                "pitch": 74,
                "velocity": 64,
                "duration": 0.1681818,
                "tempo": 120.0
            },
            {
                "start_time": 97.3886364,
                "end_time": 97.5568182,
                "pitch": 76,
                "velocity": 64,
                "duration": 0.1681818,
                "tempo": 120.0
            },
            {
                "start_time": 97.5886364,
                "end_time": 97.7568182,
                "pitch": 76,
                "velocity": 64,
                "duration": 0.1681818,
                "tempo": 120.0
            },
            {
                "start_time": 97.7886364,
                "end_time": 100.7659091,
                "pitch": 0,
                "velocity": 64,
                "duration": 2.9772727,
                "tempo": 120.0
            },
            {
                "start_time": 100.8,
                "end_time": 100.8636364,
                "pitch": 0,
                "velocity": 64,
                "duration": 0.0636364,
                "tempo": 120.0
            },
            {
                "start_time": 100.8977273,
                "end_time": 100.9636364,
                "pitch": 57,
                "velocity": 64,
                "duration": 0.0659091,
                "tempo": 120.0
            },
            {
                "start_time": 100.9954545,
                "end_time": 101.0613636,
                "pitch": 0,
                "velocity": 64,
                "duration": 0.0659091,
                "tempo": 120.0
            },
            {
                "start_time": 101.0931818,
                "end_time": 101.1545455,
                "pitch": 60,
                "velocity": 64,
                "duration": 0.0613636,
                "tempo": 120.0
            },
            {
                "start_time": 101.1863636,
                "end_time": 101.2477273,
                "pitch": 0,
                "velocity": 64,
                "duration": 0.0613636,
                "tempo": 120.0
            },
            {
                "start_time": 101.2795455,
                "end_time": 101.3409091,
                "pitch": 62,
                "velocity": 64,
                "duration": 0.0613636,
                "tempo": 120.0
            },
            {
                "start_time": 101.3727273,
                "end_time": 101.4340909,
                "pitch": 0,
                "velocity": 64,
                "duration": 0.0613636,
                "tempo": 120.0
            },
            {
                "start_time": 101.4636364,
                "end_time": 101.5295455,
                "pitch": 64,
                "velocity": 64,
                "duration": 0.0659091,
                "tempo": 120.0
            },
            {
                "start_time": 101.5636364,
                "end_time": 101.6318182,
                "pitch": 0,
                "velocity": 64,
                "duration": 0.0681818,
                "tempo": 120.0
            },
            {
                "start_time": 101.6659091,
                "end_time": 101.7318182,
                "pitch": 62,
                "velocity": 64,
                "duration": 0.0659091,
                "tempo": 120.0
            },
            {
                "start_time": 101.7659091,
                "end_time": 101.8318182,
                "pitch": 0,
                "velocity": 64,
                "duration": 0.0659091,
                "tempo": 120.0
            },
            {
                "start_time": 101.8659091,
                "end_time": 101.9295455,
                "pitch": 64,
                "velocity": 64,
                "duration": 0.0636364,
                "tempo": 120.0
            },
            {
                "start_time": 101.9613636,
                "end_time": 102.025,
                "pitch": 0,
                "velocity": 64,
                "duration": 0.0636364,
                "tempo": 120.0
            },
            {
                "start_time": 102.0568182,
                "end_time": 102.1204545,
                "pitch": 67,
                "velocity": 64,
                "duration": 0.0636364,
                "tempo": 120.0
            },
            {
                "start_time": 102.1522727,
                "end_time": 102.2159091,
                "pitch": 0,
                "velocity": 64,
                "duration": 0.0636364,
                "tempo": 120.0
            },
            {
                "start_time": 102.2454545,
                "end_time": 102.3045455,
                "pitch": 69,
                "velocity": 64,
                "duration": 0.0590909,
                "tempo": 120.0
            },
            {
                "start_time": 102.3363636,
                "end_time": 102.3954545,
                "pitch": 0,
                "velocity": 64,
                "duration": 0.0590909,
                "tempo": 120.0
            },
            {
                "start_time": 102.425,
                "end_time": 102.4863636,
                "pitch": 69,
                "velocity": 64,
                "duration": 0.0613636,
                "tempo": 120.0
            },
            {
                "start_time": 102.5159091,
                "end_time": 102.5772727,
                "pitch": 0,
                "velocity": 64,
                "duration": 0.0613636,
                "tempo": 120.0
            },
            {
                "start_time": 102.6113636,
                "end_time": 102.6795455,
                "pitch": 72,
                "velocity": 64,
                "duration": 0.0681818,
                "tempo": 120.0
            },
            {
                "start_time": 102.7136364,
                "end_time": 102.7795455,
                "pitch": 0,
                "velocity": 64,
                "duration": 0.0659091,
                "tempo": 120.0
            },
            {
                "start_time": 102.8136364,
                "end_time": 102.8795455,
                "pitch": 74,
                "velocity": 64,
                "duration": 0.0659091,
                "tempo": 120.0
            },
            {
                "start_time": 102.9136364,
                "end_time": 102.9818182,
                "pitch": 0,
                "velocity": 64,
                "duration": 0.0681818,
                "tempo": 120.0
            },
            {
                "start_time": 103.0136364,
                "end_time": 103.0818182,
                "pitch": 76,
                "velocity": 64,
                "duration": 0.0681818,
                "tempo": 120.0
            },
            {
                "start_time": 103.1136364,
                "end_time": 103.1818182,
                "pitch": 0,
                "velocity": 64,
                "duration": 0.0681818,
                "tempo": 120.0
            },
            {
                "start_time": 103.2136364,
                "end_time": 103.2818182,
                "pitch": 79,
                "velocity": 64,
                "duration": 0.0681818,
                "tempo": 120.0
            },
            {
                "start_time": 103.3136364,
                "end_time": 103.3795455,
                "pitch": 0,
                "velocity": 64,
                "duration": 0.0659091,
                "tempo": 120.0
            },
            {
                "start_time": 103.4136364,
                "end_time": 103.4772727,
                "pitch": 80,
                "velocity": 64,
                "duration": 0.0636364,
                "tempo": 120.0
            },
            {
                "start_time": 103.5113636,
                "end_time": 103.5772727,
                "pitch": 0,
                "velocity": 64,
                "duration": 0.0659091,
                "tempo": 120.0
            },
            {
                "start_time": 103.6090909,
                "end_time": 105.0863636,
                "pitch": 81,
                "velocity": 64,
                "duration": 1.4772727,
                "tempo": 120.0
            },
            {
                "start_time": 105.1204545,
                "end_time": 105.5931818,
                "pitch": 0,
                "velocity": 64,
                "duration": 0.4727273,
                "tempo": 120.0
            },
            {
                "start_time": 105.6272727,
                "end_time": 105.6954545,
                "pitch": 84,
                "velocity": 64,
                "duration": 0.0681818,
                "tempo": 120.0
            },
            {
                "start_time": 105.7295455,
                "end_time": 105.7977273,
                "pitch": 0,
                "velocity": 64,
                "duration": 0.0681818,
                "tempo": 120.0
            },
            {
                "start_time": 105.8318182,
                "end_time": 105.9068182,
                "pitch": 84,
                "velocity": 64,
                "duration": 0.075,
                "tempo": 120.0
            },
            {
                "start_time": 105.9431818,
                "end_time": 106.2363636,
                "pitch": 0,
                "velocity": 64,
                "duration": 0.2931818,
                "tempo": 120.0
            },
            {
                "start_time": 106.2727273,
                "end_time": 106.3431818,
                "pitch": 86,
                "velocity": 64,
                "duration": 0.0704545,
                "tempo": 120.0
            },
            {
                "start_time": 106.3772727,
                "end_time": 106.4454545,
                "pitch": 0,
                "velocity": 64,
                "duration": 0.0681818,
                "tempo": 120.0
            },
            {
                "start_time": 106.4795455,
                "end_time": 106.5477273,
                "pitch": 86,
                "velocity": 64,
                "duration": 0.0681818,
                "tempo": 120.0
            },
            {
                "start_time": 106.5818182,
                "end_time": 107.2863636,
                "pitch": 0,
                "velocity": 64,
                "duration": 0.7045455,
                "tempo": 120.0
            },
            {
                "start_time": 107.3181818,
                "end_time": 107.3863636,
                "pitch": 86,
                "velocity": 64,
                "duration": 0.0681818,
                "tempo": 120.0
            },
            {
                "start_time": 107.4204545,
                "end_time": 107.4863636,
                "pitch": 0,
                "velocity": 64,
                "duration": 0.0659091,
                "tempo": 120.0
            },
            {
                "start_time": 107.5204545,
                "end_time": 107.5886364,
                "pitch": 86,
                "velocity": 64,
                "duration": 0.0681818,
                "tempo": 120.0
            },
            {
                "start_time": 107.6227273,
                "end_time": 107.9045455,
                "pitch": 0,
                "velocity": 64,
                "duration": 0.2818182,
                "tempo": 120.0
            },
            {
                "start_time": 107.9409091,
                "end_time": 108.0090909,
                "pitch": 88,
                "velocity": 64,
                "duration": 0.0681818,
                "tempo": 120.0
            },
            {
                "start_time": 108.0431818,
                "end_time": 108.1090909,
                "pitch": 0,
                "velocity": 64,
                "duration": 0.0659091,
                "tempo": 120.0
            },
            {
                "start_time": 108.1431818,
                "end_time": 108.2090909,
                "pitch": 88,
                "velocity": 64,
                "duration": 0.0659091,
                "tempo": 120.0
            },
            {
                "start_time": 108.2431818,
                "end_time": 108.9,
                "pitch": 0,
                "velocity": 64,
                "duration": 0.6568182,
                "tempo": 120.0
            },
            {
                "start_time": 108.9318182,
                "end_time": 108.9977273,
                "pitch": 84,
                "velocity": 64,
                "duration": 0.0659091,
                "tempo": 120.0
            },
            {
                "start_time": 109.0295455,
                "end_time": 109.0954545,
                "pitch": 0,
                "velocity": 64,
                "duration": 0.0659091,
                "tempo": 120.0
            },
            {
                "start_time": 109.1295455,
                "end_time": 109.1954545,
                "pitch": 84,
                "velocity": 64,
                "duration": 0.0659091,
                "tempo": 120.0
            },
            {
                "start_time": 109.2295455,
                "end_time": 109.5113636,
                "pitch": 0,
                "velocity": 64,
                "duration": 0.2818182,
                "tempo": 120.0
            },
            {
                "start_time": 109.5454545,
                "end_time": 109.6136364,
                "pitch": 86,
                "velocity": 64,
                "duration": 0.0681818,
                "tempo": 120.0
            },
            {
                "start_time": 109.6454545,
                "end_time": 109.7090909,
                "pitch": 0,
                "velocity": 64,
                "duration": 0.0636364,
                "tempo": 120.0
            },
            {
                "start_time": 109.7409091,
                "end_time": 109.8045455,
                "pitch": 86,
                "velocity": 64,
                "duration": 0.0636364,
                "tempo": 120.0
            },
            {
                "start_time": 109.8363636,
                "end_time": 110.5045455,
                "pitch": 0,
                "velocity": 64,
                "duration": 0.6681818,
                "tempo": 120.0
            },
            {
                "start_time": 110.5386364,
                "end_time": 110.6045455,
                "pitch": 86,
                "velocity": 64,
                "duration": 0.0659091,
                "tempo": 120.0
            },
            {
                "start_time": 110.6363636,
                "end_time": 110.7022727,
                "pitch": 0,
                "velocity": 64,
                "duration": 0.0659091,
                "tempo": 120.0
            },
            {
                "start_time": 110.7340909,
                "end_time": 110.8,
                "pitch": 86,
                "velocity": 64,
                "duration": 0.0659091,
                "tempo": 120.0
            },
            {
                "start_time": 110.8340909,
                "end_time": 111.1159091,
                "pitch": 0,
                "velocity": 64,
                "duration": 0.2818182,
                "tempo": 120.0
            },
            {
                "start_time": 111.1522727,
                "end_time": 111.2227273,
                "pitch": 88,
                "velocity": 64,
                "duration": 0.0704545,
                "tempo": 120.0
            },
            {
                "start_time": 111.2545455,
                "end_time": 111.3227273,
                "pitch": 0,
                "velocity": 64,
                "duration": 0.0681818,
                "tempo": 120.0
            },
            {
                "start_time": 111.3545455,
                "end_time": 111.4227273,
                "pitch": 88,
                "velocity": 64,
                "duration": 0.0681818,
                "tempo": 120.0
            },
            {
                "start_time": 111.4545455,
                "end_time": 111.7204545,
                "pitch": 0,
                "velocity": 64,
                "duration": 0.2659091,
                "tempo": 120.0
            },
            {
                "start_time": 111.7522727,
                "end_time": 113.6227273,
                "pitch": 86,
                "velocity": 64,
                "duration": 1.8704545,
                "tempo": 120.0
            },
            {
                "start_time": 113.6568182,
                "end_time": 115.2295455,
                "pitch": 0,
                "velocity": 64,
                "duration": 1.5727273,
                "tempo": 120.0
            },
            {
                "start_time": 115.2636364,
                "end_time": 115.4318182,
                "pitch": 69,
                "velocity": 64,
                "duration": 0.1681818,
                "tempo": 120.0
            },
            {
                "start_time": 115.4636364,
                "end_time": 115.5318182,
                "pitch": 72,
                "velocity": 64,
                "duration": 0.0681818,
                "tempo": 120.0
            },
            {
                "start_time": 115.5659091,
                "end_time": 115.7318182,
                "pitch": 0,
                "velocity": 64,
                "duration": 0.1659091,
                "tempo": 120.0
            },
            {
                "start_time": 115.7659091,
                "end_time": 115.9318182,
                "pitch": 69,
                "velocity": 64,
                "duration": 0.1659091,
                "tempo": 120.0
            },
            {
                "start_time": 115.9659091,
                "end_time": 116.1340909,
                "pitch": 69,
                "velocity": 64,
                "duration": 0.1681818,
                "tempo": 120.0
            },
            {
                "start_time": 116.1681818,
                "end_time": 116.3409091,
                "pitch": 72,
                "velocity": 64,
                "duration": 0.1727273,
                "tempo": 120.0
            },
            {
                "start_time": 116.375,
                "end_time": 116.4431818,
                "pitch": 0,
                "velocity": 64,
                "duration": 0.0681818,
                "tempo": 120.0
            },
            {
                "start_time": 116.475,
                "end_time": 116.5409091,
                "pitch": 69,
                "velocity": 64,
                "duration": 0.0659091,
                "tempo": 120.0
            },
            {
                "start_time": 116.5727273,
                "end_time": 116.6386364,
                "pitch": 69,
                "velocity": 64,
                "duration": 0.0659091,
                "tempo": 120.0
            },
            {
                "start_time": 116.6704545,
                "end_time": 116.8340909,
                "pitch": 67,
                "velocity": 64,
                "duration": 0.1636364,
                "tempo": 120.0
            },
            {
                "start_time": 116.8681818,
                "end_time": 117.0363636,
                "pitch": 66,
                "velocity": 64,
                "duration": 0.1681818,
                "tempo": 120.0
            },
            {
                "start_time": 117.0704545,
                "end_time": 117.1363636,
                "pitch": 69,
                "velocity": 64,
                "duration": 0.0659091,
                "tempo": 120.0
            },
            {
                "start_time": 117.1704545,
                "end_time": 117.3386364,
                "pitch": 0,
                "velocity": 64,
                "duration": 0.1681818,
                "tempo": 120.0
            },
            {
                "start_time": 117.3727273,
                "end_time": 117.5386364,
                "pitch": 66,
                "velocity": 64,
                "duration": 0.1659091,
                "tempo": 120.0
            },
            {
                "start_time": 117.5727273,
                "end_time": 117.7431818,
                "pitch": 66,
                "velocity": 64,
                "duration": 0.1704545,
                "tempo": 120.0
            },
            {
                "start_time": 117.7772727,
                "end_time": 117.9477273,
                "pitch": 69,
                "velocity": 64,
                "duration": 0.1704545,
                "tempo": 120.0
            },
            {
                "start_time": 117.9840909,
                "end_time": 118.05,
                "pitch": 0,
                "velocity": 64,
                "duration": 0.0659091,
                "tempo": 120.0
            },
            {
                "start_time": 118.0840909,
                "end_time": 118.1477273,
                "pitch": 66,
                "velocity": 64,
                "duration": 0.0636364,
                "tempo": 120.0
            },
            {
                "start_time": 118.1818182,
                "end_time": 118.2477273,
                "pitch": 66,
                "velocity": 64,
                "duration": 0.0659091,
                "tempo": 120.0
            },
            {
                "start_time": 118.2795455,
                "end_time": 118.4431818,
                "pitch": 67,
                "velocity": 64,
                "duration": 0.1636364,
                "tempo": 120.0
            },
            {
                "start_time": 118.4772727,
                "end_time": 118.6431818,
                "pitch": 69,
                "velocity": 64,
                "duration": 0.1659091,
                "tempo": 120.0
            },
            {
                "start_time": 118.6772727,
                "end_time": 118.7431818,
                "pitch": 72,
                "velocity": 64,
                "duration": 0.0659091,
                "tempo": 120.0
            },
            {
                "start_time": 118.7772727,
                "end_time": 118.9431818,
                "pitch": 0,
                "velocity": 64,
                "duration": 0.1659091,
                "tempo": 120.0
            },
            {
                "start_time": 118.9772727,
                "end_time": 119.1454545,
                "pitch": 69,
                "velocity": 64,
                "duration": 0.1681818,
                "tempo": 120.0
            },
            {
                "start_time": 119.1795455,
                "end_time": 119.35,
                "pitch": 69,
                "velocity": 64,
                "duration": 0.1704545,
                "tempo": 120.0
            },
            {
                "start_time": 119.3840909,
                "end_time": 119.5545455,
                "pitch": 72,
                "velocity": 64,
                "duration": 0.1704545,
                "tempo": 120.0
            },
            {
                "start_time": 119.5886364,
                "end_time": 119.6568182,
                "pitch": 0,
                "velocity": 64,
                "duration": 0.0681818,
                "tempo": 120.0
            },
            {
                "start_time": 119.6886364,
                "end_time": 119.7545455,
                "pitch": 69,
                "velocity": 64,
                "duration": 0.0659091,
                "tempo": 120.0
            },
            {
                "start_time": 119.7863636,
                "end_time": 119.8522727,
                "pitch": 69,
                "velocity": 64,
                "duration": 0.0659091,
                "tempo": 120.0
            },
            {
                "start_time": 119.8840909,
                "end_time": 120.05,
                "pitch": 67,
                "velocity": 64,
                "duration": 0.1659091,
                "tempo": 120.0
            },
            {
                "start_time": 120.0818182,
                "end_time": 120.25,
                "pitch": 66,
                "velocity": 64,
                "duration": 0.1681818,
                "tempo": 120.0
            },
            {
                "start_time": 120.2840909,
                "end_time": 120.35,
                "pitch": 69,
                "velocity": 64,
                "duration": 0.0659091,
                "tempo": 120.0
            },
            {
                "start_time": 120.3840909,
                "end_time": 120.5522727,
                "pitch": 0,
                "velocity": 64,
                "duration": 0.1681818,
                "tempo": 120.0
            },
            {
                "start_time": 120.5840909,
                "end_time": 120.7522727,
                "pitch": 66,
                "velocity": 64,
                "duration": 0.1681818,
                "tempo": 120.0
            },
            {
                "start_time": 120.7840909,
                "end_time": 120.9545455,
                "pitch": 66,
                "velocity": 64,
                "duration": 0.1704545,
                "tempo": 120.0
            },
            {
                "start_time": 120.9886364,
                "end_time": 121.1590909,
                "pitch": 69,
                "velocity": 64,
                "duration": 0.1704545,
                "tempo": 120.0
            },
            {
                "start_time": 121.1931818,
                "end_time": 121.2613636,
                "pitch": 0,
                "velocity": 64,
                "duration": 0.0681818,
                "tempo": 120.0
            },
            {
                "start_time": 121.2954545,
                "end_time": 121.3590909,
                "pitch": 74,
                "velocity": 64,
                "duration": 0.0636364,
                "tempo": 120.0
            },
            {
                "start_time": 121.3931818,
                "end_time": 121.4568182,
                "pitch": 74,
                "velocity": 64,
                "duration": 0.0636364,
                "tempo": 120.0
            },
            {
                "start_time": 121.4909091,
                "end_time": 121.6545455,
                "pitch": 67,
                "velocity": 64,
                "duration": 0.1636364,
                "tempo": 120.0
            },
            {
                "start_time": 121.6886364,
                "end_time": 121.8545455,
                "pitch": 69,
                "velocity": 64,
                "duration": 0.1659091,
                "tempo": 120.0
            },
            {
                "start_time": 121.8886364,
                "end_time": 121.9545455,
                "pitch": 72,
                "velocity": 64,
                "duration": 0.0659091,
                "tempo": 120.0
            },
            {
                "start_time": 121.9886364,
                "end_time": 122.1545455,
                "pitch": 0,
                "velocity": 64,
                "duration": 0.1659091,
                "tempo": 120.0
            },
            {
                "start_time": 122.1886364,
                "end_time": 122.3568182,
                "pitch": 69,
                "velocity": 64,
                "duration": 0.1681818,
                "tempo": 120.0
            },
            {
                "start_time": 122.3909091,
                "end_time": 122.5590909,
                "pitch": 69,
                "velocity": 64,
                "duration": 0.1681818,
                "tempo": 120.0
            },
            {
                "start_time": 122.5931818,
                "end_time": 122.7659091,
                "pitch": 72,
                "velocity": 64,
                "duration": 0.1727273,
                "tempo": 120.0
            },
            {
                "start_time": 122.8,
                "end_time": 122.8681818,
                "pitch": 0,
                "velocity": 64,
                "duration": 0.0681818,
                "tempo": 120.0
            },
            {
                "start_time": 122.9,
                "end_time": 122.9659091,
                "pitch": 69,
                "velocity": 64,
                "duration": 0.0659091,
                "tempo": 120.0
            },
            {
                "start_time": 122.9977273,
                "end_time": 123.0636364,
                "pitch": 69,
                "velocity": 64,
                "duration": 0.0659091,
                "tempo": 120.0
            },
            {
                "start_time": 123.0954545,
                "end_time": 123.2590909,
                "pitch": 55,
                "velocity": 64,
                "duration": 0.1636364,
                "tempo": 120.0
            },
            {
                "start_time": 123.2931818,
                "end_time": 123.4613636,
                "pitch": 66,
                "velocity": 64,
                "duration": 0.1681818,
                "tempo": 120.0
            },
            {
                "start_time": 123.4954545,
                "end_time": 123.5613636,
                "pitch": 69,
                "velocity": 64,
                "duration": 0.0659091,
                "tempo": 120.0
            },
            {
                "start_time": 123.5954545,
                "end_time": 123.7636364,
                "pitch": 0,
                "velocity": 64,
                "duration": 0.1681818,
                "tempo": 120.0
            },
            {
                "start_time": 123.7954545,
                "end_time": 123.9636364,
                "pitch": 66,
                "velocity": 64,
                "duration": 0.1681818,
                "tempo": 120.0
            },
            {
                "start_time": 123.9954545,
                "end_time": 124.1659091,
                "pitch": 66,
                "velocity": 64,
                "duration": 0.1704545,
                "tempo": 120.0
            },
            {
                "start_time": 124.2,
                "end_time": 124.3704545,
                "pitch": 69,
                "velocity": 64,
                "duration": 0.1704545,
                "tempo": 120.0
            },
            {
                "start_time": 124.4045455,
                "end_time": 124.4727273,
                "pitch": 0,
                "velocity": 64,
                "duration": 0.0681818,
                "tempo": 120.0
            },
            {
                "start_time": 124.5045455,
                "end_time": 124.5704545,
                "pitch": 66,
                "velocity": 64,
                "duration": 0.0659091,
                "tempo": 120.0
            },
            {
                "start_time": 124.6045455,
                "end_time": 124.6681818,
                "pitch": 66,
                "velocity": 64,
                "duration": 0.0636364,
                "tempo": 120.0
            },
            {
                "start_time": 124.7022727,
                "end_time": 124.8659091,
                "pitch": 67,
                "velocity": 64,
                "duration": 0.1636364,
                "tempo": 120.0
            },
            {
                "start_time": 124.9,
                "end_time": 125.0659091,
                "pitch": 69,
                "velocity": 64,
                "duration": 0.1659091,
                "tempo": 120.0
            },
            {
                "start_time": 125.1,
                "end_time": 125.1681818,
                "pitch": 72,
                "velocity": 64,
                "duration": 0.0681818,
                "tempo": 120.0
            },
            {
                "start_time": 125.2,
                "end_time": 125.3681818,
                "pitch": 0,
                "velocity": 64,
                "duration": 0.1681818,
                "tempo": 120.0
            },
            {
                "start_time": 125.4022727,
                "end_time": 125.5704545,
                "pitch": 69,
                "velocity": 64,
                "duration": 0.1681818,
                "tempo": 120.0
            },
            {
                "start_time": 125.6045455,
                "end_time": 125.7727273,
                "pitch": 69,
                "velocity": 64,
                "duration": 0.1681818,
                "tempo": 120.0
            },
            {
                "start_time": 125.8090909,
                "end_time": 125.9795455,
                "pitch": 72,
                "velocity": 64,
                "duration": 0.1704545,
                "tempo": 120.0
            },
            {
                "start_time": 126.0136364,
                "end_time": 126.0818182,
                "pitch": 0,
                "velocity": 64,
                "duration": 0.0681818,
                "tempo": 120.0
            },
            {
                "start_time": 126.1136364,
                "end_time": 126.1795455,
                "pitch": 69,
                "velocity": 64,
                "duration": 0.0659091,
                "tempo": 120.0
            },
            {
                "start_time": 126.2113636,
                "end_time": 126.2772727,
                "pitch": 69,
                "velocity": 64,
                "duration": 0.0659091,
                "tempo": 120.0
            },
            {
                "start_time": 126.3090909,
                "end_time": 126.4727273,
                "pitch": 55,
                "velocity": 64,
                "duration": 0.1636364,
                "tempo": 120.0
            },
            {
                "start_time": 126.5068182,
                "end_time": 126.6727273,
                "pitch": 66,
                "velocity": 64,
                "duration": 0.1659091,
                "tempo": 120.0
            },
            {
                "start_time": 126.7068182,
                "end_time": 126.7727273,
                "pitch": 69,
                "velocity": 64,
                "duration": 0.0659091,
                "tempo": 120.0
            },
            {
                "start_time": 126.8068182,
                "end_time": 126.975,
                "pitch": 0,
                "velocity": 64,
                "duration": 0.1681818,
                "tempo": 120.0
            },
            {
                "start_time": 127.0090909,
                "end_time": 127.175,
                "pitch": 66,
                "velocity": 64,
                "duration": 0.1659091,
                "tempo": 120.0
            },
            {
                "start_time": 127.2090909,
                "end_time": 127.275,
                "pitch": 66,
                "velocity": 64,
                "duration": 0.0659091,
                "tempo": 120.0
            },
            {
                "start_time": 127.3090909,
                "end_time": 127.4068182,
                "pitch": 0,
                "velocity": 64,
                "duration": 0.0977273,
                "tempo": 120.0
            },
            {
                "start_time": 127.4386364,
                "end_time": 127.5363636,
                "pitch": 74,
                "velocity": 64,
                "duration": 0.0977273,
                "tempo": 120.0
            },
            {
                "start_time": 127.5704545,
                "end_time": 127.6681818,
                "pitch": 74,
                "velocity": 64,
                "duration": 0.0977273,
                "tempo": 120.0
            },
            {
                "start_time": 127.7022727,
                "end_time": 127.8068182,
                "pitch": 74,
                "velocity": 64,
                "duration": 0.1045455,
                "tempo": 120.0
            },
            {
                "start_time": 127.8409091,
                "end_time": 127.9431818,
                "pitch": 74,
                "velocity": 64,
                "duration": 0.1022727,
                "tempo": 120.0
            },
            {
                "start_time": 127.9772727,
                "end_time": 128.0795455,
                "pitch": 74,
                "velocity": 64,
                "duration": 0.1022727,
                "tempo": 120.0
            },
            {
                "start_time": 128.1136364,
                "end_time": 128.2818182,
                "pitch": 69,
                "velocity": 64,
                "duration": 0.1681818,
                "tempo": 120.0
            },
            {
                "start_time": 128.3136364,
                "end_time": 128.3818182,
                "pitch": 72,
                "velocity": 64,
                "duration": 0.0681818,
                "tempo": 120.0
            },
            {
                "start_time": 128.4159091,
                "end_time": 128.5818182,
                "pitch": 0,
                "velocity": 64,
                "duration": 0.1659091,
                "tempo": 120.0
            },
            {
                "start_time": 128.6159091,
                "end_time": 128.7818182,
                "pitch": 69,
                "velocity": 64,
                "duration": 0.1659091,
                "tempo": 120.0
            },
            {
                "start_time": 128.8159091,
                "end_time": 128.9840909,
                "pitch": 69,
                "velocity": 64,
                "duration": 0.1681818,
                "tempo": 120.0
            },
            {
                "start_time": 129.0181818,
                "end_time": 129.1909091,
                "pitch": 72,
                "velocity": 64,
                "duration": 0.1727273,
                "tempo": 120.0
            },
            {
                "start_time": 129.225,
                "end_time": 129.2931818,
                "pitch": 0,
                "velocity": 64,
                "duration": 0.0681818,
                "tempo": 120.0
            },
            {
                "start_time": 129.325,
                "end_time": 129.3909091,
                "pitch": 69,
                "velocity": 64,
                "duration": 0.0659091,
                "tempo": 120.0
            },
            {
                "start_time": 129.4227273,
                "end_time": 129.4886364,
                "pitch": 69,
                "velocity": 64,
                "duration": 0.0659091,
                "tempo": 120.0
            },
            {
                "start_time": 129.5204545,
                "end_time": 129.6840909,
                "pitch": 67,
                "velocity": 64,
                "duration": 0.1636364,
                "tempo": 120.0
            },
            {
                "start_time": 129.7181818,
                "end_time": 129.8863636,
                "pitch": 66,
                "velocity": 64,
                "duration": 0.1681818,
                "tempo": 120.0
            },
            {
                "start_time": 129.9204545,
                "end_time": 129.9863636,
                "pitch": 69,
                "velocity": 64,
                "duration": 0.0659091,
                "tempo": 120.0
            },
            {
                "start_time": 130.0204545,
                "end_time": 130.1863636,
                "pitch": 0,
                "velocity": 64,
                "duration": 0.1659091,
                "tempo": 120.0
            },
            {
                "start_time": 130.2204545,
                "end_time": 130.3863636,
                "pitch": 66,
                "velocity": 64,
                "duration": 0.1659091,
                "tempo": 120.0
            },
            {
                "start_time": 130.4204545,
                "end_time": 130.5909091,
                "pitch": 66,
                "velocity": 64,
                "duration": 0.1704545,
                "tempo": 120.0
            },
            {
                "start_time": 130.625,
                "end_time": 130.7954545,
                "pitch": 69,
                "velocity": 64,
                "duration": 0.1704545,
                "tempo": 120.0
            },
            {
                "start_time": 130.8295455,
                "end_time": 130.8977273,
                "pitch": 0,
                "velocity": 64,
                "duration": 0.0681818,
                "tempo": 120.0
            },
            {
                "start_time": 130.9295455,
                "end_time": 130.9954545,
                "pitch": 66,
                "velocity": 64,
                "duration": 0.0659091,
                "tempo": 120.0
            },
            {
                "start_time": 131.0295455,
                "end_time": 131.0931818,
                "pitch": 66,
                "velocity": 64,
                "duration": 0.0636364,
                "tempo": 120.0
            },
            {
                "start_time": 131.1272727,
                "end_time": 131.2909091,
                "pitch": 67,
                "velocity": 64,
                "duration": 0.1636364,
                "tempo": 120.0
            },
            {
                "start_time": 131.325,
                "end_time": 131.4909091,
                "pitch": 69,
                "velocity": 64,
                "duration": 0.1659091,
                "tempo": 120.0
            },
            {
                "start_time": 131.525,
                "end_time": 131.5931818,
                "pitch": 72,
                "velocity": 64,
                "duration": 0.0681818,
                "tempo": 120.0
            },
            {
                "start_time": 131.625,
                "end_time": 131.7931818,
                "pitch": 0,
                "velocity": 64,
                "duration": 0.1681818,
                "tempo": 120.0
            },
            {
                "start_time": 131.8272727,
                "end_time": 131.9954545,
                "pitch": 69,
                "velocity": 64,
                "duration": 0.1681818,
                "tempo": 120.0
            },
            {
                "start_time": 132.0295455,
                "end_time": 132.1977273,
                "pitch": 69,
                "velocity": 64,
                "duration": 0.1681818,
                "tempo": 120.0
            },
            {
                "start_time": 132.2318182,
                "end_time": 132.4045455,
                "pitch": 72,
                "velocity": 64,
                "duration": 0.1727273,
                "tempo": 120.0
            },
            {
                "start_time": 132.4386364,
                "end_time": 132.5068182,
                "pitch": 0,
                "velocity": 64,
                "duration": 0.0681818,
                "tempo": 120.0
            },
            {
                "start_time": 132.5386364,
                "end_time": 132.6045455,
                "pitch": 69,
                "velocity": 64,
                "duration": 0.0659091,
                "tempo": 120.0
            },
            {
                "start_time": 132.6363636,
                "end_time": 132.7022727,
                "pitch": 69,
                "velocity": 64,
                "duration": 0.0659091,
                "tempo": 120.0
            },
            {
                "start_time": 132.7340909,
                "end_time": 132.8977273,
                "pitch": 67,
                "velocity": 64,
                "duration": 0.1636364,
                "tempo": 120.0
            },
            {
                "start_time": 132.9318182,
                "end_time": 133.1,
                "pitch": 66,
                "velocity": 64,
                "duration": 0.1681818,
                "tempo": 120.0
            },
            {
                "start_time": 133.1340909,
                "end_time": 133.2,
                "pitch": 69,
                "velocity": 64,
                "duration": 0.0659091,
                "tempo": 120.0
            },
            {
                "start_time": 133.2340909,
                "end_time": 133.4022727,
                "pitch": 0,
                "velocity": 64,
                "duration": 0.1681818,
                "tempo": 120.0
            },
            {
                "start_time": 133.4363636,
                "end_time": 133.6022727,
                "pitch": 66,
                "velocity": 64,
                "duration": 0.1659091,
                "tempo": 120.0
            },
            {
                "start_time": 133.6363636,
                "end_time": 133.8068182,
                "pitch": 66,
                "velocity": 64,
                "duration": 0.1704545,
                "tempo": 120.0
            },
            {
                "start_time": 133.8409091,
                "end_time": 134.0113636,
                "pitch": 69,
                "velocity": 64,
                "duration": 0.1704545,
                "tempo": 120.0
            },
            {
                "start_time": 134.0477273,
                "end_time": 134.1136364,
                "pitch": 0,
                "velocity": 64,
                "duration": 0.0659091,
                "tempo": 120.0
            },
            {
                "start_time": 134.1477273,
                "end_time": 134.2113636,
                "pitch": 74,
                "velocity": 64,
                "duration": 0.0636364,
                "tempo": 120.0
            },
            {
                "start_time": 134.2454545,
                "end_time": 134.3113636,
                "pitch": 74,
                "velocity": 64,
                "duration": 0.0659091,
                "tempo": 120.0
            },
            {
                "start_time": 134.3431818,
                "end_time": 134.5068182,
                "pitch": 67,
                "velocity": 64,
                "duration": 0.1636364,
                "tempo": 120.0
            },
            {
                "start_time": 134.5409091,
                "end_time": 134.7090909,
                "pitch": 69,
                "velocity": 64,
                "duration": 0.1681818,
                "tempo": 120.0
            },
            {
                "start_time": 134.7409091,
                "end_time": 134.8090909,
                "pitch": 72,
                "velocity": 64,
                "duration": 0.0681818,
                "tempo": 120.0
            },
            {
                "start_time": 134.8431818,
                "end_time": 135.0113636,
                "pitch": 0,
                "velocity": 64,
                "duration": 0.1681818,
                "tempo": 120.0
            },
            {
                "start_time": 135.0431818,
                "end_time": 135.2113636,
                "pitch": 69,
                "velocity": 64,
                "duration": 0.1681818,
                "tempo": 120.0
            },
            {
                "start_time": 135.2454545,
                "end_time": 135.4159091,
                "pitch": 69,
                "velocity": 64,
                "duration": 0.1704545,
                "tempo": 120.0
            },
            {
                "start_time": 135.45,
                "end_time": 135.6204545,
                "pitch": 72,
                "velocity": 64,
                "duration": 0.1704545,
                "tempo": 120.0
            },
            {
                "start_time": 135.6545455,
                "end_time": 135.7227273,
                "pitch": 0,
                "velocity": 64,
                "duration": 0.0681818,
                "tempo": 120.0
            },
            {
                "start_time": 135.7545455,
                "end_time": 135.8204545,
                "pitch": 69,
                "velocity": 64,
                "duration": 0.0659091,
                "tempo": 120.0
            },
            {
                "start_time": 135.8522727,
                "end_time": 135.9181818,
                "pitch": 69,
                "velocity": 64,
                "duration": 0.0659091,
                "tempo": 120.0
            },
            {
                "start_time": 135.9522727,
                "end_time": 136.1159091,
                "pitch": 55,
                "velocity": 64,
                "duration": 0.1636364,
                "tempo": 120.0
            },
            {
                "start_time": 136.1477273,
                "end_time": 136.3159091,
                "pitch": 66,
                "velocity": 64,
                "duration": 0.1681818,
                "tempo": 120.0
            },
            {
                "start_time": 136.3477273,
                "end_time": 136.4159091,
                "pitch": 69,
                "velocity": 64,
                "duration": 0.0681818,
                "tempo": 120.0
            },
            {
                "start_time": 136.4477273,
                "end_time": 136.6159091,
                "pitch": 0,
                "velocity": 64,
                "duration": 0.1681818,
                "tempo": 120.0
            },
            {
                "start_time": 136.65,
                "end_time": 136.8181818,
                "pitch": 66,
                "velocity": 64,
                "duration": 0.1681818,
                "tempo": 120.0
            },
            {
                "start_time": 136.85,
                "end_time": 137.0204545,
                "pitch": 66,
                "velocity": 64,
                "duration": 0.1704545,
                "tempo": 120.0
            },
            {
                "start_time": 137.0545455,
                "end_time": 137.2272727,
                "pitch": 69,
                "velocity": 64,
                "duration": 0.1727273,
                "tempo": 120.0
            },
            {
                "start_time": 137.2613636,
                "end_time": 137.3272727,
                "pitch": 0,
                "velocity": 64,
                "duration": 0.0659091,
                "tempo": 120.0
            },
            {
                "start_time": 137.3613636,
                "end_time": 137.4272727,
                "pitch": 66,
                "velocity": 64,
                "duration": 0.0659091,
                "tempo": 120.0
            },
            {
                "start_time": 137.4590909,
                "end_time": 137.525,
                "pitch": 66,
                "velocity": 64,
                "duration": 0.0659091,
                "tempo": 120.0
            },
            {
                "start_time": 137.5568182,
                "end_time": 137.7204545,
                "pitch": 67,
                "velocity": 64,
                "duration": 0.1636364,
                "tempo": 120.0
            },
            {
                "start_time": 137.7545455,
                "end_time": 137.9227273,
                "pitch": 69,
                "velocity": 64,
                "duration": 0.1681818,
                "tempo": 120.0
            },
            {
                "start_time": 137.9568182,
                "end_time": 138.0227273,
                "pitch": 72,
                "velocity": 64,
                "duration": 0.0659091,
                "tempo": 120.0
            },
            {
                "start_time": 138.0568182,
                "end_time": 138.2227273,
                "pitch": 0,
                "velocity": 64,
                "duration": 0.1659091,
                "tempo": 120.0
            },
            {
                "start_time": 138.2568182,
                "end_time": 138.4227273,
                "pitch": 69,
                "velocity": 64,
                "duration": 0.1659091,
                "tempo": 120.0
            },
            {
                "start_time": 138.4568182,
                "end_time": 138.6272727,
                "pitch": 69,
                "velocity": 64,
                "duration": 0.1704545,
                "tempo": 120.0
            },
            {
                "start_time": 138.6613636,
                "end_time": 138.8318182,
                "pitch": 72,
                "velocity": 64,
                "duration": 0.1704545,
                "tempo": 120.0
            },
            {
                "start_time": 138.8659091,
                "end_time": 138.9340909,
                "pitch": 0,
                "velocity": 64,
                "duration": 0.0681818,
                "tempo": 120.0
            },
            {
                "start_time": 138.9659091,
                "end_time": 139.0318182,
                "pitch": 69,
                "velocity": 64,
                "duration": 0.0659091,
                "tempo": 120.0
            },
            {
                "start_time": 139.0636364,
                "end_time": 139.1295455,
                "pitch": 69,
                "velocity": 64,
                "duration": 0.0659091,
                "tempo": 120.0
            },
            {
                "start_time": 139.1636364,
                "end_time": 139.3272727,
                "pitch": 55,
                "velocity": 64,
                "duration": 0.1636364,
                "tempo": 120.0
            },
            {
                "start_time": 139.3590909,
                "end_time": 139.5272727,
                "pitch": 66,
                "velocity": 64,
                "duration": 0.1681818,
                "tempo": 120.0
            },
            {
                "start_time": 139.5613636,
                "end_time": 139.6272727,
                "pitch": 69,
                "velocity": 64,
                "duration": 0.0659091,
                "tempo": 120.0
            },
            {
                "start_time": 139.6613636,
                "end_time": 139.8295455,
                "pitch": 0,
                "velocity": 64,
                "duration": 0.1681818,
                "tempo": 120.0
            },
            {
                "start_time": 139.8636364,
                "end_time": 140.0318182,
                "pitch": 66,
                "velocity": 64,
                "duration": 0.1681818,
                "tempo": 120.0
            },
            {
                "start_time": 140.0636364,
                "end_time": 140.1318182,
                "pitch": 66,
                "velocity": 64,
                "duration": 0.0681818,
                "tempo": 120.0
            },
            {
                "start_time": 140.1659091,
                "end_time": 140.2659091,
                "pitch": 0,
                "velocity": 64,
                "duration": 0.1,
                "tempo": 120.0
            },
            {
                "start_time": 140.2977273,
                "end_time": 140.3977273,
                "pitch": 74,
                "velocity": 64,
                "duration": 0.1,
                "tempo": 120.0
            },
            {
                "start_time": 140.4318182,
                "end_time": 140.5318182,
                "pitch": 74,
                "velocity": 64,
                "duration": 0.1,
                "tempo": 120.0
            },
            {
                "start_time": 140.5659091,
                "end_time": 140.6659091,
                "pitch": 74,
                "velocity": 64,
                "duration": 0.1,
                "tempo": 120.0
            },
            {
                "start_time": 140.7,
                "end_time": 140.8,
                "pitch": 74,
                "velocity": 64,
                "duration": 0.1,
                "tempo": 120.0
            },
            {
                "start_time": 140.8340909,
                "end_time": 140.9340909,
                "pitch": 74,
                "velocity": 64,
                "duration": 0.1,
                "tempo": 120.0
            },
            {
                "start_time": 140.9681818,
                "end_time": 141.1363636,
                "pitch": 69,
                "velocity": 64,
                "duration": 0.1681818,
                "tempo": 120.0
            },
            {
                "start_time": 141.1704545,
                "end_time": 141.2363636,
                "pitch": 72,
                "velocity": 64,
                "duration": 0.0659091,
                "tempo": 120.0
            },
            {
                "start_time": 141.2704545,
                "end_time": 141.4386364,
                "pitch": 0,
                "velocity": 64,
                "duration": 0.1681818,
                "tempo": 120.0
            },
            {
                "start_time": 141.4704545,
                "end_time": 141.6386364,
                "pitch": 69,
                "velocity": 64,
                "duration": 0.1681818,
                "tempo": 120.0
            },
            {
                "start_time": 141.6727273,
                "end_time": 141.8431818,
                "pitch": 69,
                "velocity": 64,
                "duration": 0.1704545,
                "tempo": 120.0
            },
            {
                "start_time": 141.8772727,
                "end_time": 142.0477273,
                "pitch": 72,
                "velocity": 64,
                "duration": 0.1704545,
                "tempo": 120.0
            },
            {
                "start_time": 142.0818182,
                "end_time": 142.15,
                "pitch": 0,
                "velocity": 64,
                "duration": 0.0681818,
                "tempo": 120.0
            },
            {
                "start_time": 142.1818182,
                "end_time": 142.2477273,
                "pitch": 69,
                "velocity": 64,
                "duration": 0.0659091,
                "tempo": 120.0
            },
            {
                "start_time": 142.2818182,
                "end_time": 142.3454545,
                "pitch": 69,
                "velocity": 64,
                "duration": 0.0636364,
                "tempo": 120.0
            },
            {
                "start_time": 142.3795455,
                "end_time": 142.5431818,
                "pitch": 67,
                "velocity": 64,
                "duration": 0.1636364,
                "tempo": 120.0
            },
            {
                "start_time": 142.5772727,
                "end_time": 142.7431818,
                "pitch": 66,
                "velocity": 64,
                "duration": 0.1659091,
                "tempo": 120.0
            },
            {
                "start_time": 142.7772727,
                "end_time": 142.8454545,
                "pitch": 69,
                "velocity": 64,
                "duration": 0.0681818,
                "tempo": 120.0
            },
            {
                "start_time": 142.8772727,
                "end_time": 143.0454545,
                "pitch": 0,
                "velocity": 64,
                "duration": 0.1681818,
                "tempo": 120.0
            },
            {
                "start_time": 143.0795455,
                "end_time": 143.2477273,
                "pitch": 66,
                "velocity": 64,
                "duration": 0.1681818,
                "tempo": 120.0
            },
            {
                "start_time": 143.2818182,
                "end_time": 143.4477273,
                "pitch": 66,
                "velocity": 64,
                "duration": 0.1659091,
                "tempo": 120.0
            },
            {
                "start_time": 143.4818182,
                "end_time": 143.65,
                "pitch": 69,
                "velocity": 64,
                "duration": 0.1681818,
                "tempo": 120.0
            },
            {
                "start_time": 143.6840909,
                "end_time": 143.75,
                "pitch": 0,
                "velocity": 64,
                "duration": 0.0659091,
                "tempo": 120.0
            },
            {
                "start_time": 143.7840909,
                "end_time": 143.8522727,
                "pitch": 66,
                "velocity": 64,
                "duration": 0.0681818,
                "tempo": 120.0
            },
            {
                "start_time": 143.8840909,
                "end_time": 143.9522727,
                "pitch": 66,
                "velocity": 64,
                "duration": 0.0681818,
                "tempo": 120.0
            },
            {
                "start_time": 143.9863636,
                "end_time": 144.1522727,
                "pitch": 67,
                "velocity": 64,
                "duration": 0.1659091,
                "tempo": 120.0
            },
            {
                "start_time": 144.1863636,
                "end_time": 144.3522727,
                "pitch": 69,
                "velocity": 64,
                "duration": 0.1659091,
                "tempo": 120.0
            },
            {
                "start_time": 144.3863636,
                "end_time": 144.4522727,
                "pitch": 72,
                "velocity": 64,
                "duration": 0.0659091,
                "tempo": 120.0
            },
            {
                "start_time": 144.4863636,
                "end_time": 144.6545455,
                "pitch": 0,
                "velocity": 64,
                "duration": 0.1681818,
                "tempo": 120.0
            },
            {
                "start_time": 144.6886364,
                "end_time": 144.8545455,
                "pitch": 69,
                "velocity": 64,
                "duration": 0.1659091,
                "tempo": 120.0
            },
            {
                "start_time": 144.8886364,
                "end_time": 145.0590909,
                "pitch": 69,
                "velocity": 64,
                "duration": 0.1704545,
                "tempo": 120.0
            },
            {
                "start_time": 145.0931818,
                "end_time": 145.2636364,
                "pitch": 72,
                "velocity": 64,
                "duration": 0.1704545,
                "tempo": 120.0
            },
            {
                "start_time": 145.2977273,
                "end_time": 145.3659091,
                "pitch": 0,
                "velocity": 64,
                "duration": 0.0681818,
                "tempo": 120.0
            },
            {
                "start_time": 145.4,
                "end_time": 145.4636364,
                "pitch": 69,
                "velocity": 64,
                "duration": 0.0636364,
                "tempo": 120.0
            },
            {
                "start_time": 145.4977273,
                "end_time": 145.5636364,
                "pitch": 69,
                "velocity": 64,
                "duration": 0.0659091,
                "tempo": 120.0
            },
            {
                "start_time": 145.5954545,
                "end_time": 145.7590909,
                "pitch": 67,
                "velocity": 64,
                "duration": 0.1636364,
                "tempo": 120.0
            },
            {
                "start_time": 145.7931818,
                "end_time": 145.9613636,
                "pitch": 66,
                "velocity": 64,
                "duration": 0.1681818,
                "tempo": 120.0
            },
            {
                "start_time": 145.9931818,
                "end_time": 146.0613636,
                "pitch": 69,
                "velocity": 64,
                "duration": 0.0681818,
                "tempo": 120.0
            },
            {
                "start_time": 146.0954545,
                "end_time": 146.2613636,
                "pitch": 0,
                "velocity": 64,
                "duration": 0.1659091,
                "tempo": 120.0
            },
            {
                "start_time": 146.2954545,
                "end_time": 146.4613636,
                "pitch": 66,
                "velocity": 64,
                "duration": 0.1659091,
                "tempo": 120.0
            },
            {
                "start_time": 146.4954545,
                "end_time": 146.6636364,
                "pitch": 66,
                "velocity": 64,
                "duration": 0.1681818,
                "tempo": 120.0
            },
            {
                "start_time": 146.6977273,
                "end_time": 146.8704545,
                "pitch": 69,
                "velocity": 64,
                "duration": 0.1727273,
                "tempo": 120.0
            },
            {
                "start_time": 146.9045455,
                "end_time": 146.9727273,
                "pitch": 0,
                "velocity": 64,
                "duration": 0.0681818,
                "tempo": 120.0
            },
            {
                "start_time": 147.0045455,
                "end_time": 147.0704545,
                "pitch": 74,
                "velocity": 64,
                "duration": 0.0659091,
                "tempo": 120.0
            },
            {
                "start_time": 147.1022727,
                "end_time": 147.1681818,
                "pitch": 74,
                "velocity": 64,
                "duration": 0.0659091,
                "tempo": 120.0
            },
            {
                "start_time": 147.2,
                "end_time": 147.3636364,
                "pitch": 67,
                "velocity": 64,
                "duration": 0.1636364,
                "tempo": 120.0
            },
            {
                "start_time": 147.3977273,
                "end_time": 147.5659091,
                "pitch": 69,
                "velocity": 64,
                "duration": 0.1681818,
                "tempo": 120.0
            },
            {
                "start_time": 147.6,
                "end_time": 147.6659091,
                "pitch": 72,
                "velocity": 64,
                "duration": 0.0659091,
                "tempo": 120.0
            },
            {
                "start_time": 147.7,
                "end_time": 147.8681818,
                "pitch": 0,
                "velocity": 64,
                "duration": 0.1681818,
                "tempo": 120.0
            },
            {
                "start_time": 147.9022727,
                "end_time": 148.0681818,
                "pitch": 69,
                "velocity": 64,
                "duration": 0.1659091,
                "tempo": 120.0
            },
            {
                "start_time": 148.1022727,
                "end_time": 148.2727273,
                "pitch": 69,
                "velocity": 64,
                "duration": 0.1704545,
                "tempo": 120.0
            },
            {
                "start_time": 148.3068182,
                "end_time": 148.4772727,
                "pitch": 72,
                "velocity": 64,
                "duration": 0.1704545,
                "tempo": 120.0
            },
            {
                "start_time": 148.5136364,
                "end_time": 148.5795455,
                "pitch": 0,
                "velocity": 64,
                "duration": 0.0659091,
                "tempo": 120.0
            },
            {
                "start_time": 148.6136364,
                "end_time": 148.6772727,
                "pitch": 69,
                "velocity": 64,
                "duration": 0.0636364,
                "tempo": 120.0
            },
            {
                "start_time": 148.7113636,
                "end_time": 148.7772727,
                "pitch": 69,
                "velocity": 64,
                "duration": 0.0659091,
                "tempo": 120.0
            },
            {
                "start_time": 148.8090909,
                "end_time": 148.9727273,
                "pitch": 55,
                "velocity": 64,
                "duration": 0.1636364,
                "tempo": 120.0
            },
            {
                "start_time": 149.0068182,
                "end_time": 149.175,
                "pitch": 66,
                "velocity": 64,
                "duration": 0.1681818,
                "tempo": 120.0
            },
            {
                "start_time": 149.2068182,
                "end_time": 149.275,
                "pitch": 69,
                "velocity": 64,
                "duration": 0.0681818,
                "tempo": 120.0
            },
            {
                "start_time": 149.3090909,
                "end_time": 149.4772727,
                "pitch": 0,
                "velocity": 64,
                "duration": 0.1681818,
                "tempo": 120.0
            },
            {
                "start_time": 149.5090909,
                "end_time": 149.6772727,
                "pitch": 66,
                "velocity": 64,
                "duration": 0.1681818,
                "tempo": 120.0
            },
            {
                "start_time": 149.7113636,
                "end_time": 149.8818182,
                "pitch": 66,
                "velocity": 64,
                "duration": 0.1704545,
                "tempo": 120.0
            },
            {
                "start_time": 149.9159091,
                "end_time": 150.0863636,
                "pitch": 69,
                "velocity": 64,
                "duration": 0.1704545,
                "tempo": 120.0
            },
            {
                "start_time": 150.1204545,
                "end_time": 150.1886364,
                "pitch": 0,
                "velocity": 64,
                "duration": 0.0681818,
                "tempo": 120.0
            },
            {
                "start_time": 150.2204545,
                "end_time": 150.2863636,
                "pitch": 66,
                "velocity": 64,
                "duration": 0.0659091,
                "tempo": 120.0
            },
            {
                "start_time": 150.3181818,
                "end_time": 150.3840909,
                "pitch": 66,
                "velocity": 64,
                "duration": 0.0659091,
                "tempo": 120.0
            },
            {
                "start_time": 150.4181818,
                "end_time": 150.5818182,
                "pitch": 67,
                "velocity": 64,
                "duration": 0.1636364,
                "tempo": 120.0
            },
            {
                "start_time": 150.6136364,
                "end_time": 150.7818182,
                "pitch": 69,
                "velocity": 64,
                "duration": 0.1681818,
                "tempo": 120.0
            },
            {
                "start_time": 150.8159091,
                "end_time": 150.8840909,
                "pitch": 72,
                "velocity": 64,
                "duration": 0.0681818,
                "tempo": 120.0
            },
            {
                "start_time": 150.9159091,
                "end_time": 151.0840909,
                "pitch": 0,
                "velocity": 64,
                "duration": 0.1681818,
                "tempo": 120.0
            },
            {
                "start_time": 151.1181818,
                "end_time": 151.2863636,
                "pitch": 69,
                "velocity": 64,
                "duration": 0.1681818,
                "tempo": 120.0
            },
            {
                "start_time": 151.3204545,
                "end_time": 151.4886364,
                "pitch": 69,
                "velocity": 64,
                "duration": 0.1681818,
                "tempo": 120.0
            },
            {
                "start_time": 151.5227273,
                "end_time": 151.6954545,
                "pitch": 72,
                "velocity": 64,
                "duration": 0.1727273,
                "tempo": 120.0
            },
            {
                "start_time": 151.7295455,
                "end_time": 151.7977273,
                "pitch": 0,
                "velocity": 64,
                "duration": 0.0681818,
                "tempo": 120.0
            },
            {
                "start_time": 151.8295455,
                "end_time": 151.8954545,
                "pitch": 69,
                "velocity": 64,
                "duration": 0.0659091,
                "tempo": 120.0
            },
            {
                "start_time": 151.9272727,
                "end_time": 151.9931818,
                "pitch": 69,
                "velocity": 64,
                "duration": 0.0659091,
                "tempo": 120.0
            },
            {
                "start_time": 152.025,
                "end_time": 152.1886364,
                "pitch": 55,
                "velocity": 64,
                "duration": 0.1636364,
                "tempo": 120.0
            },
            {
                "start_time": 152.2227273,
                "end_time": 152.3886364,
                "pitch": 66,
                "velocity": 64,
                "duration": 0.1659091,
                "tempo": 120.0
            },
            {
                "start_time": 152.4227273,
                "end_time": 152.4886364,
                "pitch": 69,
                "velocity": 64,
                "duration": 0.0659091,
                "tempo": 120.0
            },
            {
                "start_time": 152.5227273,
                "end_time": 152.6909091,
                "pitch": 0,
                "velocity": 64,
                "duration": 0.1681818,
                "tempo": 120.0
            },
            {
                "start_time": 152.7227273,
                "end_time": 152.8909091,
                "pitch": 66,
                "velocity": 64,
                "duration": 0.1681818,
                "tempo": 120.0
            },
            {
                "start_time": 152.925,
                "end_time": 152.9931818,
                "pitch": 66,
                "velocity": 64,
                "duration": 0.0681818,
                "tempo": 120.0
            },
            {
                "start_time": 153.025,
                "end_time": 153.1272727,
                "pitch": 0,
                "velocity": 64,
                "duration": 0.1022727,
                "tempo": 120.0
            },
            {
                "start_time": 153.1590909,
                "end_time": 153.2613636,
                "pitch": 74,
                "velocity": 64,
                "duration": 0.1022727,
                "tempo": 120.0
            },
            {
                "start_time": 153.2931818,
                "end_time": 153.3954545,
                "pitch": 74,
                "velocity": 64,
                "duration": 0.1022727,
                "tempo": 120.0
            },
            {
                "start_time": 153.4272727,
                "end_time": 153.5295455,
                "pitch": 74,
                "velocity": 64,
                "duration": 0.1022727,
                "tempo": 120.0
            },
            {
                "start_time": 153.5636364,
                "end_time": 153.6636364,
                "pitch": 74,
                "velocity": 64,
                "duration": 0.1,
                "tempo": 120.0
            },
            {
                "start_time": 153.6977273,
                "end_time": 153.7977273,
                "pitch": 74,
                "velocity": 64,
                "duration": 0.1,
                "tempo": 120.0
            },
            {
                "start_time": 153.8318182,
                "end_time": 153.9977273,
                "pitch": 69,
                "velocity": 64,
                "duration": 0.1659091,
                "tempo": 120.0
            },
            {
                "start_time": 154.0318182,
                "end_time": 154.1,
                "pitch": 72,
                "velocity": 64,
                "duration": 0.0681818,
                "tempo": 120.0
            },
            {
                "start_time": 154.1340909,
                "end_time": 154.3,
                "pitch": 0,
                "velocity": 64,
                "duration": 0.1659091,
                "tempo": 120.0
            },
            {
                "start_time": 154.3340909,
                "end_time": 154.5,
                "pitch": 69,
                "velocity": 64,
                "duration": 0.1659091,
                "tempo": 120.0
            },
            {
                "start_time": 154.5340909,
                "end_time": 154.7022727,
                "pitch": 69,
                "velocity": 64,
                "duration": 0.1681818,
                "tempo": 120.0
            },
            {
                "start_time": 154.7363636,
                "end_time": 154.9090909,
                "pitch": 72,
                "velocity": 64,
                "duration": 0.1727273,
                "tempo": 120.0
            },
            {
                "start_time": 154.9431818,
                "end_time": 155.0113636,
                "pitch": 0,
                "velocity": 64,
                "duration": 0.0681818,
                "tempo": 120.0
            },
            {
                "start_time": 155.0431818,
                "end_time": 155.1090909,
                "pitch": 69,
                "velocity": 64,
                "duration": 0.0659091,
                "tempo": 120.0
            },
            {
                "start_time": 155.1409091,
                "end_time": 155.2068182,
                "pitch": 69,
                "velocity": 64,
                "duration": 0.0659091,
                "tempo": 120.0
            },
            {
                "start_time": 155.2386364,
                "end_time": 155.4022727,
                "pitch": 67,
                "velocity": 64,
                "duration": 0.1636364,
                "tempo": 120.0
            },
            {
                "start_time": 155.4363636,
                "end_time": 155.6045455,
                "pitch": 66,
                "velocity": 64,
                "duration": 0.1681818,
                "tempo": 120.0
            },
            {
                "start_time": 155.6386364,
                "end_time": 155.7045455,
                "pitch": 69,
                "velocity": 64,
                "duration": 0.0659091,
                "tempo": 120.0
            },
            {
                "start_time": 155.7386364,
                "end_time": 155.9068182,
                "pitch": 0,
                "velocity": 64,
                "duration": 0.1681818,
                "tempo": 120.0
            },
            {
                "start_time": 155.9409091,
                "end_time": 156.1068182,
                "pitch": 66,
                "velocity": 64,
                "duration": 0.1659091,
                "tempo": 120.0
            },
            {
                "start_time": 156.1409091,
                "end_time": 156.3113636,
                "pitch": 66,
                "velocity": 64,
                "duration": 0.1704545,
                "tempo": 120.0
            },
            {
                "start_time": 156.3454545,
                "end_time": 156.5159091,
                "pitch": 69,
                "velocity": 64,
                "duration": 0.1704545,
                "tempo": 120.0
            },
            {
                "start_time": 156.55,
                "end_time": 156.6181818,
                "pitch": 0,
                "velocity": 64,
                "duration": 0.0681818,
                "tempo": 120.0
            },
            {
                "start_time": 156.6522727,
                "end_time": 156.7159091,
                "pitch": 66,
                "velocity": 64,
                "duration": 0.0636364,
                "tempo": 120.0
            },
            {
                "start_time": 156.75,
                "end_time": 156.8136364,
                "pitch": 66,
                "velocity": 64,
                "duration": 0.0636364,
                "tempo": 120.0
            },
            {
                "start_time": 156.8477273,
                "end_time": 157.0113636,
                "pitch": 67,
                "velocity": 64,
                "duration": 0.1636364,
                "tempo": 120.0
            },
            {
                "start_time": 157.0454545,
                "end_time": 157.2136364,
                "pitch": 69,
                "velocity": 64,
                "duration": 0.1681818,
                "tempo": 120.0
            },
            {
                "start_time": 157.2454545,
                "end_time": 157.3136364,
                "pitch": 72,
                "velocity": 64,
                "duration": 0.0681818,
                "tempo": 120.0
            },
            {
                "start_time": 157.3477273,
                "end_time": 157.5136364,
                "pitch": 0,
                "velocity": 64,
                "duration": 0.1659091,
                "tempo": 120.0
            },
            {
                "start_time": 157.5477273,
                "end_time": 157.7159091,
                "pitch": 69,
                "velocity": 64,
                "duration": 0.1681818,
                "tempo": 120.0
            },
            {
                "start_time": 157.75,
                "end_time": 157.9204545,
                "pitch": 69,
                "velocity": 64,
                "duration": 0.1704545,
                "tempo": 120.0
            },
            {
                "start_time": 157.9545455,
                "end_time": 158.125,
                "pitch": 72,
                "velocity": 64,
                "duration": 0.1704545,
                "tempo": 120.0
            },
            {
                "start_time": 158.1590909,
                "end_time": 158.2272727,
                "pitch": 0,
                "velocity": 64,
                "duration": 0.0681818,
                "tempo": 120.0
            },
            {
                "start_time": 158.2590909,
                "end_time": 158.325,
                "pitch": 69,
                "velocity": 64,
                "duration": 0.0659091,
                "tempo": 120.0
            },
            {
                "start_time": 158.3568182,
                "end_time": 158.4227273,
                "pitch": 69,
                "velocity": 64,
                "duration": 0.0659091,
                "tempo": 120.0
            },
            {
                "start_time": 158.4568182,
                "end_time": 158.6204545,
                "pitch": 67,
                "velocity": 64,
                "duration": 0.1636364,
                "tempo": 120.0
            },
            {
                "start_time": 158.6522727,
                "end_time": 158.8204545,
                "pitch": 66,
                "velocity": 64,
                "duration": 0.1681818,
                "tempo": 120.0
            },
            {
                "start_time": 158.8545455,
                "end_time": 158.9204545,
                "pitch": 69,
                "velocity": 64,
                "duration": 0.0659091,
                "tempo": 120.0
            },
            {
                "start_time": 158.9545455,
                "end_time": 159.1227273,
                "pitch": 0,
                "velocity": 64,
                "duration": 0.1681818,
                "tempo": 120.0
            },
            {
                "start_time": 159.1568182,
                "end_time": 159.325,
                "pitch": 66,
                "velocity": 64,
                "duration": 0.1681818,
                "tempo": 120.0
            },
            {
                "start_time": 159.3568182,
                "end_time": 159.525,
                "pitch": 66,
                "velocity": 64,
                "duration": 0.1681818,
                "tempo": 120.0
            },
            {
                "start_time": 159.5590909,
                "end_time": 159.7272727,
                "pitch": 69,
                "velocity": 64,
                "duration": 0.1681818,
                "tempo": 120.0
            },
            {
                "start_time": 159.7613636,
                "end_time": 159.8272727,
                "pitch": 0,
                "velocity": 64,
                "duration": 0.0659091,
                "tempo": 120.0
            },
            {
                "start_time": 159.8613636,
                "end_time": 159.9272727,
                "pitch": 74,
                "velocity": 64,
                "duration": 0.0659091,
                "tempo": 120.0
            },
            {
                "start_time": 159.9613636,
                "end_time": 160.0295455,
                "pitch": 74,
                "velocity": 64,
                "duration": 0.0681818,
                "tempo": 120.0
            },
            {
                "start_time": 160.0636364,
                "end_time": 160.2295455,
                "pitch": 67,
                "velocity": 64,
                "duration": 0.1659091,
                "tempo": 120.0
            },
            {
                "start_time": 160.2636364,
                "end_time": 160.4295455,
                "pitch": 69,
                "velocity": 64,
                "duration": 0.1659091,
                "tempo": 120.0
            },
            {
                "start_time": 160.4636364,
                "end_time": 160.5295455,
                "pitch": 72,
                "velocity": 64,
                "duration": 0.0659091,
                "tempo": 120.0
            },
            {
                "start_time": 160.5636364,
                "end_time": 160.7318182,
                "pitch": 0,
                "velocity": 64,
                "duration": 0.1681818,
                "tempo": 120.0
            },
            {
                "start_time": 160.7636364,
                "end_time": 160.9318182,
                "pitch": 69,
                "velocity": 64,
                "duration": 0.1681818,
                "tempo": 120.0
            },
            {
                "start_time": 160.9659091,
                "end_time": 161.1363636,
                "pitch": 69,
                "velocity": 64,
                "duration": 0.1704545,
                "tempo": 120.0
            },
            {
                "start_time": 161.1704545,
                "end_time": 161.3409091,
                "pitch": 72,
                "velocity": 64,
                "duration": 0.1704545,
                "tempo": 120.0
            },
            {
                "start_time": 161.375,
                "end_time": 161.4431818,
                "pitch": 0,
                "velocity": 64,
                "duration": 0.0681818,
                "tempo": 120.0
            },
            {
                "start_time": 161.475,
                "end_time": 161.5409091,
                "pitch": 69,
                "velocity": 64,
                "duration": 0.0659091,
                "tempo": 120.0
            },
            {
                "start_time": 161.575,
                "end_time": 161.6386364,
                "pitch": 69,
                "velocity": 64,
                "duration": 0.0636364,
                "tempo": 120.0
            },
            {
                "start_time": 161.6727273,
                "end_time": 161.8363636,
                "pitch": 55,
                "velocity": 64,
                "duration": 0.1636364,
                "tempo": 120.0
            },
            {
                "start_time": 161.8704545,
                "end_time": 162.0363636,
                "pitch": 66,
                "velocity": 64,
                "duration": 0.1659091,
                "tempo": 120.0
            },
            {
                "start_time": 162.0704545,
                "end_time": 162.1386364,
                "pitch": 69,
                "velocity": 64,
                "duration": 0.0681818,
                "tempo": 120.0
            },
            {
                "start_time": 162.1704545,
                "end_time": 162.3386364,
                "pitch": 0,
                "velocity": 64,
                "duration": 0.1681818,
                "tempo": 120.0
            },
            {
                "start_time": 162.3727273,
                "end_time": 162.5386364,
                "pitch": 66,
                "velocity": 64,
                "duration": 0.1659091,
                "tempo": 120.0
            },
            {
                "start_time": 162.5727273,
                "end_time": 162.7409091,
                "pitch": 66,
                "velocity": 64,
                "duration": 0.1681818,
                "tempo": 120.0
            },
            {
                "start_time": 162.775,
                "end_time": 162.9477273,
                "pitch": 69,
                "velocity": 64,
                "duration": 0.1727273,
                "tempo": 120.0
            },
            {
                "start_time": 162.9818182,
                "end_time": 163.0477273,
                "pitch": 0,
                "velocity": 64,
                "duration": 0.0659091,
                "tempo": 120.0
            },
            {
                "start_time": 163.0818182,
                "end_time": 163.1477273,
                "pitch": 66,
                "velocity": 64,
                "duration": 0.0659091,
                "tempo": 120.0
            },
            {
                "start_time": 163.1795455,
                "end_time": 163.2454545,
                "pitch": 66,
                "velocity": 64,
                "duration": 0.0659091,
                "tempo": 120.0
            },
            {
                "start_time": 163.2772727,
                "end_time": 163.4409091,
                "pitch": 67,
                "velocity": 64,
                "duration": 0.1636364,
                "tempo": 120.0
            },
            {
                "start_time": 163.475,
                "end_time": 163.6431818,
                "pitch": 69,
                "velocity": 64,
                "duration": 0.1681818,
                "tempo": 120.0
            },
            {
                "start_time": 163.6772727,
                "end_time": 163.7431818,
                "pitch": 72,
                "velocity": 64,
                "duration": 0.0659091,
                "tempo": 120.0
            },
            {
                "start_time": 163.7772727,
                "end_time": 163.9454545,
                "pitch": 0,
                "velocity": 64,
                "duration": 0.1681818,
                "tempo": 120.0
            },
            {
                "start_time": 163.9772727,
                "end_time": 164.1454545,
                "pitch": 69,
                "velocity": 64,
                "duration": 0.1681818,
                "tempo": 120.0
            },
            {
                "start_time": 164.1795455,
                "end_time": 164.3477273,
                "pitch": 69,
                "velocity": 64,
                "duration": 0.1681818,
                "tempo": 120.0
            },
            {
                "start_time": 164.3795455,
                "end_time": 164.5477273,
                "pitch": 72,
                "velocity": 64,
                "duration": 0.1681818,
                "tempo": 120.0
            },
            {
                "start_time": 164.5795455,
                "end_time": 164.6477273,
                "pitch": 0,
                "velocity": 64,
                "duration": 0.0681818,
                "tempo": 120.0
            },
            {
                "start_time": 164.6795455,
                "end_time": 164.7477273,
                "pitch": 69,
                "velocity": 64,
                "duration": 0.0681818,
                "tempo": 120.0
            },
            {
                "start_time": 164.7818182,
                "end_time": 164.8477273,
                "pitch": 69,
                "velocity": 64,
                "duration": 0.0659091,
                "tempo": 120.0
            },
            {
                "start_time": 164.8818182,
                "end_time": 165.05,
                "pitch": 55,
                "velocity": 64,
                "duration": 0.1681818,
                "tempo": 120.0
            },
            {
                "start_time": 165.0840909,
                "end_time": 165.25,
                "pitch": 66,
                "velocity": 64,
                "duration": 0.1659091,
                "tempo": 120.0
            },
            {
                "start_time": 165.2840909,
                "end_time": 165.3522727,
                "pitch": 69,
                "velocity": 64,
                "duration": 0.0681818,
                "tempo": 120.0
            },
            {
                "start_time": 165.3840909,
                "end_time": 165.5522727,
                "pitch": 0,
                "velocity": 64,
                "duration": 0.1681818,
                "tempo": 120.0
            },
            {
                "start_time": 165.5863636,
                "end_time": 165.7545455,
                "pitch": 66,
                "velocity": 64,
                "duration": 0.1681818,
                "tempo": 120.0
            },
            {
                "start_time": 165.7886364,
                "end_time": 165.8545455,
                "pitch": 66,
                "velocity": 64,
                "duration": 0.0659091,
                "tempo": 120.0
            },
            {
                "start_time": 165.8863636,
                "end_time": 165.9840909,
                "pitch": 0,
                "velocity": 64,
                "duration": 0.0977273,
                "tempo": 120.0
            },
            {
                "start_time": 166.0181818,
                "end_time": 166.1159091,
                "pitch": 74,
                "velocity": 64,
                "duration": 0.0977273,
                "tempo": 120.0
            },
            {
                "start_time": 166.1477273,
                "end_time": 166.2477273,
                "pitch": 74,
                "velocity": 64,
                "duration": 0.1,
                "tempo": 120.0
            },
            {
                "start_time": 166.2818182,
                "end_time": 166.3840909,
                "pitch": 74,
                "velocity": 64,
                "duration": 0.1022727,
                "tempo": 120.0
            },
            {
                "start_time": 166.4181818,
                "end_time": 166.5204545,
                "pitch": 74,
                "velocity": 64,
                "duration": 0.1022727,
                "tempo": 120.0
            },
            {
                "start_time": 166.5545455,
                "end_time": 166.6568182,
                "pitch": 74,
                "velocity": 64,
                "duration": 0.1022727,
                "tempo": 120.0
            },
            {
                "start_time": 166.6909091,
                "end_time": 166.7590909,
                "pitch": 0,
                "velocity": 64,
                "duration": 0.0681818,
                "tempo": 120.0
            },
            {
                "start_time": 166.7909091,
                "end_time": 166.8590909,
                "pitch": 57,
                "velocity": 64,
                "duration": 0.0681818,
                "tempo": 120.0
            },
            {
                "start_time": 166.8931818,
                "end_time": 166.9590909,
                "pitch": 0,
                "velocity": 64,
                "duration": 0.0659091,
                "tempo": 120.0
            },
            {
                "start_time": 166.9931818,
                "end_time": 167.0545455,
                "pitch": 60,
                "velocity": 64,
                "duration": 0.0613636,
                "tempo": 120.0
            },
            {
                "start_time": 167.0840909,
                "end_time": 167.1454545,
                "pitch": 0,
                "velocity": 64,
                "duration": 0.0613636,
                "tempo": 120.0
            },
            {
                "start_time": 167.175,
                "end_time": 167.2363636,
                "pitch": 62,
                "velocity": 64,
                "duration": 0.0613636,
                "tempo": 120.0
            },
            {
                "start_time": 167.2659091,
                "end_time": 167.325,
                "pitch": 0,
                "velocity": 64,
                "duration": 0.0590909,
                "tempo": 120.0
            },
            {
                "start_time": 167.3568182,
                "end_time": 167.4227273,
                "pitch": 64,
                "velocity": 64,
                "duration": 0.0659091,
                "tempo": 120.0
            },
            {
                "start_time": 167.4545455,
                "end_time": 167.5227273,
                "pitch": 0,
                "velocity": 64,
                "duration": 0.0681818,
                "tempo": 120.0
            },
            {
                "start_time": 167.5568182,
                "end_time": 167.6227273,
                "pitch": 62,
                "velocity": 64,
                "duration": 0.0659091,
                "tempo": 120.0
            },
            {
                "start_time": 167.6568182,
                "end_time": 167.7227273,
                "pitch": 0,
                "velocity": 64,
                "duration": 0.0659091,
                "tempo": 120.0
            },
            {
                "start_time": 167.7568182,
                "end_time": 167.8204545,
                "pitch": 64,
                "velocity": 64,
                "duration": 0.0636364,
                "tempo": 120.0
            },
            {
                "start_time": 167.8522727,
                "end_time": 167.9159091,
                "pitch": 0,
                "velocity": 64,
                "duration": 0.0636364,
                "tempo": 120.0
            },
            {
                "start_time": 167.9477273,
                "end_time": 168.0113636,
                "pitch": 67,
                "velocity": 64,
                "duration": 0.0636364,
                "tempo": 120.0
            },
            {
                "start_time": 168.0431818,
                "end_time": 168.1068182,
                "pitch": 0,
                "velocity": 64,
                "duration": 0.0636364,
                "tempo": 120.0
            },
            {
                "start_time": 168.1363636,
                "end_time": 168.1977273,
                "pitch": 69,
                "velocity": 64,
                "duration": 0.0613636,
                "tempo": 120.0
            },
            {
                "start_time": 168.2272727,
                "end_time": 168.2863636,
                "pitch": 0,
                "velocity": 64,
                "duration": 0.0590909,
                "tempo": 120.0
            },
            {
                "start_time": 168.3181818,
                "end_time": 168.3772727,
                "pitch": 69,
                "velocity": 64,
                "duration": 0.0590909,
                "tempo": 120.0
            },
            {
                "start_time": 168.4068182,
                "end_time": 168.4704545,
                "pitch": 0,
                "velocity": 64,
                "duration": 0.0636364,
                "tempo": 120.0
            },
            {
                "start_time": 168.5022727,
                "end_time": 168.5704545,
                "pitch": 72,
                "velocity": 64,
                "duration": 0.0681818,
                "tempo": 120.0
            },
            {
                "start_time": 168.6045455,
                "end_time": 168.6704545,
                "pitch": 0,
                "velocity": 64,
                "duration": 0.0659091,
                "tempo": 120.0
            },
            {
                "start_time": 168.7045455,
                "end_time": 168.7704545,
                "pitch": 74,
                "velocity": 64,
                "duration": 0.0659091,
                "tempo": 120.0
            },
            {
                "start_time": 168.8045455,
                "end_time": 168.8727273,
                "pitch": 0,
                "velocity": 64,
                "duration": 0.0681818,
                "tempo": 120.0
            },
            {
                "start_time": 168.9068182,
                "end_time": 168.9727273,
                "pitch": 76,
                "velocity": 64,
                "duration": 0.0659091,
                "tempo": 120.0
            },
            {
                "start_time": 169.0068182,
                "end_time": 169.0727273,
                "pitch": 0,
                "velocity": 64,
                "duration": 0.0659091,
                "tempo": 120.0
            },
            {
                "start_time": 169.1068182,
                "end_time": 169.175,
                "pitch": 79,
                "velocity": 64,
                "duration": 0.0681818,
                "tempo": 120.0
            },
            {
                "start_time": 169.2068182,
                "end_time": 169.275,
                "pitch": 0,
                "velocity": 64,
                "duration": 0.0681818,
                "tempo": 120.0
            },
            {
                "start_time": 169.3068182,
                "end_time": 169.3727273,
                "pitch": 80,
                "velocity": 64,
                "duration": 0.0659091,
                "tempo": 120.0
            },
            {
                "start_time": 169.4045455,
                "end_time": 169.4704545,
                "pitch": 0,
                "velocity": 64,
                "duration": 0.0659091,
                "tempo": 120.0
            },
            {
                "start_time": 169.5022727,
                "end_time": 170.9818182,
                "pitch": 81,
                "velocity": 64,
                "duration": 1.4795455,
                "tempo": 120.0
            },
            {
                "start_time": 171.0159091,
                "end_time": 171.4886364,
                "pitch": 0,
                "velocity": 64,
                "duration": 0.4727273,
                "tempo": 120.0
            },
            {
                "start_time": 171.5227273,
                "end_time": 171.5909091,
                "pitch": 84,
                "velocity": 64,
                "duration": 0.0681818,
                "tempo": 120.0
            },
            {
                "start_time": 171.625,
                "end_time": 171.6954545,
                "pitch": 0,
                "velocity": 64,
                "duration": 0.0704545,
                "tempo": 120.0
            },
            {
                "start_time": 171.7295455,
                "end_time": 171.8022727,
                "pitch": 84,
                "velocity": 64,
                "duration": 0.0727273,
                "tempo": 120.0
            },
            {
                "start_time": 171.8386364,
                "end_time": 172.1340909,
                "pitch": 0,
                "velocity": 64,
                "duration": 0.2954545,
                "tempo": 120.0
            },
            {
                "start_time": 172.1704545,
                "end_time": 172.2363636,
                "pitch": 86,
                "velocity": 64,
                "duration": 0.0659091,
                "tempo": 120.0
            },
            {
                "start_time": 172.2704545,
                "end_time": 172.3386364,
                "pitch": 0,
                "velocity": 64,
                "duration": 0.0681818,
                "tempo": 120.0
            },
            {
                "start_time": 172.3704545,
                "end_time": 172.4386364,
                "pitch": 86,
                "velocity": 64,
                "duration": 0.0681818,
                "tempo": 120.0
            },
            {
                "start_time": 172.4727273,
                "end_time": 173.1818182,
                "pitch": 0,
                "velocity": 64,
                "duration": 0.7090909,
                "tempo": 120.0
            },
            {
                "start_time": 173.2159091,
                "end_time": 173.2818182,
                "pitch": 86,
                "velocity": 64,
                "duration": 0.0659091,
                "tempo": 120.0
            },
            {
                "start_time": 173.3159091,
                "end_time": 173.3840909,
                "pitch": 0,
                "velocity": 64,
                "duration": 0.0681818,
                "tempo": 120.0
            },
            {
                "start_time": 173.4159091,
                "end_time": 173.4840909,
                "pitch": 86,
                "velocity": 64,
                "duration": 0.0681818,
                "tempo": 120.0
            },
            {
                "start_time": 173.5181818,
                "end_time": 173.8,
                "pitch": 0,
                "velocity": 64,
                "duration": 0.2818182,
                "tempo": 120.0
            },
            {
                "start_time": 173.8363636,
                "end_time": 173.9068182,
                "pitch": 88,
                "velocity": 64,
                "duration": 0.0704545,
                "tempo": 120.0
            },
            {
                "start_time": 173.9409091,
                "end_time": 174.0068182,
                "pitch": 0,
                "velocity": 64,
                "duration": 0.0659091,
                "tempo": 120.0
            },
            {
                "start_time": 174.0409091,
                "end_time": 174.1068182,
                "pitch": 88,
                "velocity": 64,
                "duration": 0.0659091,
                "tempo": 120.0
            },
            {
                "start_time": 174.1409091,
                "end_time": 174.8022727,
                "pitch": 0,
                "velocity": 64,
                "duration": 0.6613636,
                "tempo": 120.0
            },
            {
                "start_time": 174.8363636,
                "end_time": 174.9022727,
                "pitch": 84,
                "velocity": 64,
                "duration": 0.0659091,
                "tempo": 120.0
            },
            {
                "start_time": 174.9363636,
                "end_time": 175.0022727,
                "pitch": 0,
                "velocity": 64,
                "duration": 0.0659091,
                "tempo": 120.0
            },
            {
                "start_time": 175.0363636,
                "end_time": 175.1045455,
                "pitch": 84,
                "velocity": 64,
                "duration": 0.0681818,
                "tempo": 120.0
            },
            {
                "start_time": 175.1386364,
                "end_time": 175.4113636,
                "pitch": 0,
                "velocity": 64,
                "duration": 0.2727273,
                "tempo": 120.0
            },
            {
                "start_time": 175.4454545,
                "end_time": 175.5136364,
                "pitch": 86,
                "velocity": 64,
                "duration": 0.0681818,
                "tempo": 120.0
            },
            {
                "start_time": 175.5454545,
                "end_time": 175.6090909,
                "pitch": 0,
                "velocity": 64,
                "duration": 0.0636364,
                "tempo": 120.0
            },
            {
                "start_time": 175.6409091,
                "end_time": 175.7045455,
                "pitch": 86,
                "velocity": 64,
                "duration": 0.0636364,
                "tempo": 120.0
            },
            {
                "start_time": 175.7363636,
                "end_time": 176.4045455,
                "pitch": 0,
                "velocity": 64,
                "duration": 0.6681818,
                "tempo": 120.0
            },
            {
                "start_time": 176.4363636,
                "end_time": 176.5022727,
                "pitch": 86,
                "velocity": 64,
                "duration": 0.0659091,
                "tempo": 120.0
            },
            {
                "start_time": 176.5340909,
                "end_time": 176.6,
                "pitch": 0,
                "velocity": 64,
                "duration": 0.0659091,
                "tempo": 120.0
            },
            {
                "start_time": 176.6318182,
                "end_time": 176.6977273,
                "pitch": 86,
                "velocity": 64,
                "duration": 0.0659091,
                "tempo": 120.0
            },
            {
                "start_time": 176.7340909,
                "end_time": 177.0159091,
                "pitch": 0,
                "velocity": 64,
                "duration": 0.2818182,
                "tempo": 120.0
            },
            {
                "start_time": 177.05,
                "end_time": 177.1204545,
                "pitch": 88,
                "velocity": 64,
                "duration": 0.0704545,
                "tempo": 120.0
            },
            {
                "start_time": 177.1545455,
                "end_time": 177.2204545,
                "pitch": 0,
                "velocity": 64,
                "duration": 0.0659091,
                "tempo": 120.0
            },
            {
                "start_time": 177.2545455,
                "end_time": 177.3204545,
                "pitch": 88,
                "velocity": 64,
                "duration": 0.0659091,
                "tempo": 120.0
            },
            {
                "start_time": 177.3545455,
                "end_time": 177.6181818,
                "pitch": 0,
                "velocity": 64,
                "duration": 0.2636364,
                "tempo": 120.0
            },
            {
                "start_time": 177.6522727,
                "end_time": 179.5295455,
                "pitch": 86,
                "velocity": 64,
                "duration": 1.8772727,
                "tempo": 120.0
            }
        ]
    }
}