{
    "mood": "happy",
    "instruments": {
        "Acoustic Grand Piano": [
            {
                "start_time": 0.0,
                "end_time": 0.1659091,
                "pitch": 76,
                "velocity": 51,
                "duration": 0.1659091,
                "tempo": 120.0
            },
            {
                "start_time": 0.1840909,
                "end_time": 0.3659091,
                "pitch": 76,
                "velocity": 51,
                "duration": 0.1818182,
                "tempo": 120.0
            },
            {
                "start_time": 0.3840909,
                "end_time": 0.5681818,
                "pitch": 77,
                "velocity": 51,
                "duration": 0.1840909,
                "tempo": 120.0
            },
            {
                "start_time": 0.5840909,
                "end_time": 0.6681818,
                "pitch": 77,
                "velocity": 51,
                "duration": 0.0840909,
                "tempo": 120.0
            },
            {
                "start_time": 0.6863636,
                "end_time": 0.8704545,
                "pitch": 79,
                "velocity": 51,
                "duration": 0.1840909,
                "tempo": 120.0
            },
            {
                "start_time": 0.8863636,
                "end_time": 1.0704545,
                "pitch": 79,
                "velocity": 51,
                "duration": 0.1840909,
                "tempo": 120.0
            },
            {
                "start_time": 1.0863636,
                "end_time": 1.1704545,
                "pitch": 79,
                "velocity": 51,
                "duration": 0.0840909,
                "tempo": 120.0
            },
            {
                "start_time": 1.1863636,
                "end_time": 1.3704545,
                "pitch": 77,
                "velocity": 51,
                "duration": 0.1840909,
                "tempo": 120.0
            },
            {
                "start_time": 1.3863636,
                "end_time": 1.5704545,
                "pitch": 77,
                "velocity": 51,
                "duration": 0.1840909,
                "tempo": 120.0
            },
            {
                "start_time": 1.5863636,
                "end_time": 1.7704545,
                "pitch": 76,
                "velocity": 51,
                "duration": 0.1840909,
                "tempo": 120.0
            },
            {
                "start_time": 1.7863636,
                "end_time": 1.9727273,
                "pitch": 76,
                "velocity": 51,
                "duration": 0.1863636,
                "tempo": 120.0
            },
            {
                "start_time": 1.9886364,
                "end_time": 2.1727273,
                "pitch": 77,
                "velocity": 51,
                "duration": 0.1840909,
                "tempo": 120.0
            },
            {
                "start_time": 2.1886364,
                "end_time": 2.2727273,
                "pitch": 77,
                "velocity": 51,
                "duration": 0.0840909,
                "tempo": 120.0
            },
            {
                "start_time": 2.2886364,
                "end_time": 2.9772727,
                "pitch": 79,
                "velocity": 51,
                "duration": 0.6886364,
                "tempo": 120.0
            },
            {
                "start_time": 2.9931818,
                "end_time": 3.1818182,
                "pitch": 77,
                "velocity": 51,
                "duration": 0.1886364,
                "tempo": 120.0
            },
            {
                "start_time": 3.2,
                "end_time": 3.3795455,
                "pitch": 76,
                "velocity": 51,
                "duration": 0.1795455,
                "tempo": 120.0
            },
            {
                "start_time": 3.3954545,
                "end_time": 3.575,
                "pitch": 76,
                "velocity": 51,
                "duration": 0.1795455,
                "tempo": 120.0
            },
            {
                "start_time": 3.5909091,
                "end_time": 3.775,
                "pitch": 77,
                "velocity": 51,
                "duration": 0.1840909,
                "tempo": 120.0
            },
            {
                "start_time": 3.7909091,
                "end_time": 3.875,
                "pitch": 77,
                "velocity": 51,
                "duration": 0.0840909,
                "tempo": 120.0
            },
            {
                "start_time": 3.8909091,
                "end_time": 4.075,
                "pitch": 79,
                "velocity": 51,
                "duration": 0.1840909,
                "tempo": 120.0
            },
            {
                "start_time": 4.0909091,
                "end_time": 4.275,
                "pitch": 79,
                "velocity": 51,
                "duration": 0.1840909,
                "tempo": 120.0
            },
            {
                "start_time": 4.2909091,
                "end_time": 4.375,
                "pitch": 79,
                "velocity": 51,
                "duration": 0.0840909,
                "tempo": 120.0
            },
            {
                "start_time": 4.3909091,
                "end_time": 4.575,
                "pitch": 77,
                "velocity": 51,
                "duration": 0.1840909,
                "tempo": 120.0
            },
            {
                "start_time": 4.5909091,
                "end_time": 4.775,
                "pitch": 77,
                "velocity": 51,
                "duration": 0.1840909,
                "tempo": 120.0
            },
            {
                "start_time": 4.7909091,
                "end_time": 4.9772727,
                "pitch": 76,
                "velocity": 51,
                "duration": 0.1863636,
                "tempo": 120.0
            },
            {
                "start_time": 4.9931818,
                "end_time": 5.1772727,
                "pitch": 76,
                "velocity": 51,
                "duration": 0.1840909,
                "tempo": 120.0
            },
            {
                "start_time": 5.1931818,
                "end_time": 5.3772727,
                "pitch": 77,
                "velocity": 51,
                "duration": 0.1840909,
                "tempo": 120.0
            },
            {
                "start_time": 5.3931818,
                "end_time": 5.4772727,
                "pitch": 77,
                "velocity": 51,
                "duration": 0.0840909,
                "tempo": 120.0
            },
            {
                "start_time": 5.4931818,
                "end_time": 6.1818182,
                "pitch": 79,
                "velocity": 51,
                "duration": 0.6886364,
                "tempo": 120.0
            },
            {
                "start_time": 6.1977273,
                "end_time": 6.3818182,
                "pitch": 78,
                "velocity": 51,
                "duration": 0.1840909,
                "tempo": 120.0
            },
            {
                "start_time": 6.4,
                "end_time": 6.65,
                "pitch": 81,
                "velocity": 51,
                "duration": 0.25,
                "tempo": 120.0
            },
            {
                "start_time": 6.6659091,
                "end_time": 6.9840909,
                "pitch": 83,
                "velocity": 51,
                "duration": 0.3181818,
                "tempo": 120.0
            },
            {
                "start_time": 7.0,
                "end_time": 7.3863636,
                "pitch": 84,
                "velocity": 51,
                "duration": 0.3863636,
                "tempo": 120.0
            },
            {
                "start_time": 7.4022727,
                "end_time": 7.5863636,
                "pitch": 81,
                "velocity": 51,
                "duration": 0.1840909,
                "tempo": 120.0
            },
            {
                "start_time": 7.6022727,
                "end_time": 7.7863636,
                "pitch": 83,
                "velocity": 51,
                "duration": 0.1840909,
                "tempo": 120.0
            },
            {
                "start_time": 7.8045455,
                "end_time": 7.9886364,
                "pitch": 84,
                "velocity": 51,
                "duration": 0.1840909,
                "tempo": 120.0
            },
            {
                "start_time": 8.0045455,
                "end_time": 8.2568182,
                "pitch": 81,
                "velocity": 51,
                "duration": 0.2522727,
                "tempo": 120.0
            },
            {
                "start_time": 8.2727273,
                "end_time": 8.5931818,
                "pitch": 83,
                "velocity": 51,
                "duration": 0.3204545,
                "tempo": 120.0
            },
            {
                "start_time": 8.6090909,
                "end_time": 9.3954545,
                "pitch": 84,
                "velocity": 51,
                "duration": 0.7863636,
                "tempo": 120.0
            },
            {
                "start_time": 9.4113636,
                "end_time": 9.5954545,
                "pitch": 83,
                "velocity": 51,
                "duration": 0.1840909,
                "tempo": 120.0
            },
            {
                "start_time": 9.6136364,
                "end_time": 9.8659091,
                "pitch": 81,
                "velocity": 51,
                "duration": 0.2522727,
                "tempo": 120.0
            },
            {
                "start_time": 9.8818182,
                "end_time": 10.2,
                "pitch": 83,
                "velocity": 51,
                "duration": 0.3181818,
                "tempo": 120.0
            },
            {
                "start_time": 10.2181818,
                "end_time": 10.6022727,
                "pitch": 84,
                "velocity": 51,
                "duration": 0.3840909,
                "tempo": 120.0
            },
            {
                "start_time": 10.6204545,
                "end_time": 10.8045455,
                "pitch": 81,
                "velocity": 51,
                "duration": 0.1840909,
                "tempo": 120.0
            },
            {
                "start_time": 10.8204545,
                "end_time": 11.0045455,
                "pitch": 83,
                "velocity": 51,
                "duration": 0.1840909,
                "tempo": 120.0
            },
            {
                "start_time": 11.0204545,
                "end_time": 11.2045455,
                "pitch": 84,
                "velocity": 51,
                "duration": 0.1840909,
                "tempo": 120.0
            },
            {
                "start_time": 11.2204545,
                "end_time": 11.4727273,
                "pitch": 83,
                "velocity": 51,
                "duration": 0.2522727,
                "tempo": 120.0
            },
            {
                "start_time": 11.4886364,
                "end_time": 11.8090909,
                "pitch": 84,
                "velocity": 51,
                "duration": 0.3204545,
                "tempo": 120.0
            },
            {
                "start_time": 11.825,
                "end_time": 12.2113636,
                "pitch": 86,
                "velocity": 51,
                "duration": 0.3863636,
                "tempo": 120.0
            },
            {
                "start_time": 12.2272727,
                "end_time": 12.3113636,
                "pitch": 80,
                "velocity": 51,
                "duration": 0.0840909,
                "tempo": 120.0
            },
            {
                "start_time": 12.3295455,
                "end_time": 12.4113636,
                "pitch": 77,
                "velocity": 51,
                "duration": 0.0818182,
                "tempo": 120.0
            },
            {
                "start_time": 12.4295455,
                "end_time": 12.6136364,
                "pitch": 74,
                "velocity": 51,
                "duration": 0.1840909,
                "tempo": 120.0
            },
            {
                "start_time": 12.6295455,
                "end_time": 12.8159091,
                "pitch": 71,
                "velocity": 51,
                "duration": 0.1863636,
                "tempo": 120.0
            },
            {
                "start_time": 12.8318182,
                "end_time": 13.0159091,
                "pitch": 76,
                "velocity": 51,
                "duration": 0.1840909,
                "tempo": 120.0
            },
            {
                "start_time": 13.0318182,
                "end_time": 13.2159091,
                "pitch": 76,
                "velocity": 51,
                "duration": 0.1840909,
                "tempo": 120.0
            },
            {
                "start_time": 13.2318182,
                "end_time": 13.4159091,
                "pitch": 77,
                "velocity": 51,
                "duration": 0.1840909,
                "tempo": 120.0
            },
            {
                "start_time": 13.4340909,
                "end_time": 13.5181818,
                "pitch": 77,
                "velocity": 51,
                "duration": 0.0840909,
                "tempo": 120.0
            },
            {
                "start_time": 13.5340909,
                "end_time": 13.7181818,
                "pitch": 79,
                "velocity": 51,
                "duration": 0.1840909,
                "tempo": 120.0
            },
            {
                "start_time": 13.7363636,
                "end_time": 13.9204545,
                "pitch": 79,
                "velocity": 51,
                "duration": 0.1840909,
                "tempo": 120.0
            },
            {
                "start_time": 13.9363636,
                "end_time": 14.0204545,
                "pitch": 79,
                "velocity": 51,
                "duration": 0.0840909,
                "tempo": 120.0
            },
            {
                "start_time": 14.0363636,
                "end_time": 14.2227273,
                "pitch": 77,
                "velocity": 51,
                "duration": 0.1863636,
                "tempo": 120.0
            },
            {
                "start_time": 14.2386364,
                "end_time": 14.4227273,
                "pitch": 77,
                "velocity": 51,
                "duration": 0.1840909,
                "tempo": 120.0
            },
            {
                "start_time": 14.4409091,
                "end_time": 15.0227273,
                "pitch": 76,
                "velocity": 51,
                "duration": 0.5818182,
                "tempo": 120.0
            },
            {
                "start_time": 15.0386364,
                "end_time": 15.0863636,
                "pitch": 72,
                "velocity": 51,
                "duration": 0.0477273,
                "tempo": 120.0
            },
            {
                "start_time": 15.1045455,
                "end_time": 15.1522727,
                "pitch": 76,
                "velocity": 51,
                "duration": 0.0477273,
                "tempo": 120.0
            },
            {
                "start_time": 15.1681818,
                "end_time": 15.2181818,
                "pitch": 79,
                "velocity": 51,
                "duration": 0.05,
                "tempo": 120.0
            },
            {
                "start_time": 15.2340909,
                "end_time": 16.0318182,
                "pitch": 83,
                "velocity": 51,
                "duration": 0.7977273,
                "tempo": 120.0
            }
        ],
        "Acoustic Bass": [
            {
                "start_time": 0.0,
                "end_time": 0.3659091,
                "pitch": 36,
                "velocity": 40,
                "duration": 0.3659091,
                "tempo": 120.0
            },
            {
                "start_time": 0.3840909,
                "end_time": 0.6340909,
                "pitch": 38,
                "velocity": 40,
                "duration": 0.25,
                "tempo": 120.0
            },
            {
                "start_time": 0.6522727,
                "end_time": 1.1704545,
                "pitch": 40,
                "velocity": 40,
                "duration": 0.5181818,
                "tempo": 120.0
            },
            {
                "start_time": 1.1863636,
                "end_time": 1.5704545,
                "pitch": 38,
                "velocity": 40,
                "duration": 0.3840909,
                "tempo": 120.0
            },
            {
                "start_time": 1.5863636,
                "end_time": 1.9727273,
                "pitch": 36,
                "velocity": 40,
                "duration": 0.3863636,
                "tempo": 120.0
            },
            {
                "start_time": 1.9886364,
                "end_time": 2.2386364,
                "pitch": 38,
                "velocity": 40,
                "duration": 0.25,
                "tempo": 120.0
            },
            {
                "start_time": 2.2545455,
                "end_time": 2.7727273,
                "pitch": 40,
                "velocity": 40,
                "duration": 0.5181818,
                "tempo": 120.0
            },
            {
                "start_time": 2.7886364,
                "end_time": 3.1818182,
                "pitch": 38,
                "velocity": 40,
                "duration": 0.3931818,
                "tempo": 120.0
            },
            {
                "start_time": 3.2,
                "end_time": 3.575,
                "pitch": 36,
                "velocity": 40,
                "duration": 0.375,
                "tempo": 120.0
            },
            {
                "start_time": 3.5909091,
                "end_time": 3.8409091,
                "pitch": 38,
                "velocity": 40,
                "duration": 0.25,
                "tempo": 120.0
            },
            {
                "start_time": 3.8590909,
                "end_time": 4.375,
                "pitch": 40,
                "velocity": 40,
                "duration": 0.5159091,
                "tempo": 120.0
            },
            {
                "start_time": 4.3909091,
                "end_time": 4.775,
                "pitch": 38,
                "velocity": 40,
                "duration": 0.3840909,
                "tempo": 120.0
            },
            {
                "start_time": 4.7909091,
                "end_time": 5.1772727,
                "pitch": 36,
                "velocity": 40,
                "duration": 0.3863636,
                "tempo": 120.0
            },
            {
                "start_time": 5.1931818,
                "end_time": 5.4431818,
                "pitch": 38,
                "velocity": 40,
                "duration": 0.25,
                "tempo": 120.0
            },
            {
                "start_time": 5.4613636,
                "end_time": 5.9795455,
                "pitch": 40,
                "velocity": 40,
                "duration": 0.5181818,
                "tempo": 120.0
            },
            {
                "start_time": 5.9977273,
                "end_time": 6.3818182,
                "pitch": 39,
                "velocity": 40,
                "duration": 0.3840909,
                "tempo": 120.0
            },
            {
                "start_time": 6.4,
                "end_time": 6.65,
                "pitch": 41,
                "velocity": 40,
                "duration": 0.25,
                "tempo": 120.0
            },
            {
                "start_time": 6.6659091,
                "end_time": 6.9840909,
                "pitch": 43,
                "velocity": 40,
                "duration": 0.3181818,
                "tempo": 120.0
            },
            {
                "start_time": 7.0,
                "end_time": 7.3863636,
                "pitch": 45,
                "velocity": 40,
                "duration": 0.3863636,
                "tempo": 120.0
            },
            {
                "start_time": 7.4022727,
                "end_time": 7.5863636,
                "pitch": 41,
                "velocity": 40,
                "duration": 0.1840909,
                "tempo": 120.0
            },
            {
                "start_time": 7.6022727,
                "end_time": 7.7863636,
                "pitch": 43,
                "velocity": 40,
                "duration": 0.1840909,
                "tempo": 120.0
            },
            {
                "start_time": 7.8045455,
                "end_time": 7.9886364,
                "pitch": 45,
                "velocity": 40,
                "duration": 0.1840909,
                "tempo": 120.0
            },
            {
                "start_time": 8.0045455,
                "end_time": 8.2568182,
                "pitch": 41,
                "velocity": 40,
                "duration": 0.2522727,
                "tempo": 120.0
            },
            {
                "start_time": 8.2727273,
                "end_time": 8.5931818,
                "pitch": 43,
                "velocity": 40,
                "duration": 0.3204545,
                "tempo": 120.0
            },
            {
                "start_time": 8.6090909,
                "end_time": 8.9931818,
                "pitch": 45,
                "velocity": 40,
                "duration": 0.3840909,
                "tempo": 120.0
            },
            {
                "start_time": 9.0113636,
                "end_time": 9.5954545,
                "pitch": 43,
                "velocity": 40,
                "duration": 0.5840909,
                "tempo": 120.0
            },
            {
                "start_time": 9.6136364,
                "end_time": 9.8659091,
                "pitch": 41,
                "velocity": 40,
                "duration": 0.2522727,
                "tempo": 120.0
            },
            {
                "start_time": 9.8818182,
                "end_time": 10.2,
                "pitch": 43,
                "velocity": 40,
                "duration": 0.3181818,
                "tempo": 120.0
            },
            {
                "start_time": 10.2181818,
                "end_time": 10.6022727,
                "pitch": 45,
                "velocity": 40,
                "duration": 0.3840909,
                "tempo": 120.0
            },
            {
                "start_time": 10.6204545,
                "end_time": 10.8045455,
                "pitch": 41,
                "velocity": 40,
                "duration": 0.1840909,
                "tempo": 120.0
            },
            {
                "start_time": 10.8204545,
                "end_time": 11.0045455,
                "pitch": 43,
                "velocity": 40,
                "duration": 0.1840909,
                "tempo": 120.0
            },
            {
                "start_time": 11.0204545,
                "end_time": 11.2045455,
                "pitch": 45,
                "velocity": 40,
                "duration": 0.1840909,
                "tempo": 120.0
            },
            {
                "start_time": 11.2204545,
                "end_time": 11.5068182,
                "pitch": 43,
                "velocity": 40,
                "duration": 0.2863636,
                "tempo": 120.0
            },
            {
                "start_time": 11.5227273,
                "end_time": 11.8090909,
                "pitch": 45,
                "velocity": 40,
                "duration": 0.2863636,
                "tempo": 120.0
            },
            {
                "start_time": 11.825,
                "end_time": 12.2113636,
                "pitch": 47,
                "velocity": 40,
                "duration": 0.3863636,
                "tempo": 120.0
            },
            {
                "start_time": 12.2272727,
                "end_time": 12.3113636,
                "pitch": 50,
                "velocity": 40,
                "duration": 0.0840909,
                "tempo": 120.0
            },
            {
                "start_time": 12.3295455,
                "end_time": 12.4113636,
                "pitch": 47,
                "velocity": 40,
                "duration": 0.0818182,
                "tempo": 120.0
            },
            {
                "start_time": 12.4295455,
                "end_time": 12.6136364,
                "pitch": 35,
                "velocity": 40,
                "duration": 0.1840909,
                "tempo": 120.0
            },
            {
                "start_time": 12.6295455,
                "end_time": 12.8159091,
                "pitch": 31,
                "velocity": 40,
                "duration": 0.1863636,
                "tempo": 120.0
            },
            {
                "start_time": 12.8318182,
                "end_time": 13.2159091,
                "pitch": 36,
                "velocity": 40,
                "duration": 0.3840909,
                "tempo": 120.0
            },
            {
                "start_time": 13.2318182,
                "end_time": 13.4840909,
                "pitch": 38,
                "velocity": 40,
                "duration": 0.2522727,
                "tempo": 120.0
            },
            {
                "start_time": 13.5,
                "end_time": 14.0204545,
                "pitch": 40,
                "velocity": 40,
                "duration": 0.5204545,
                "tempo": 120.0
            },
            {
                "start_time": 14.0363636,
                "end_time": 14.4227273,
                "pitch": 38,
                "velocity": 40,
                "duration": 0.3863636,
                "tempo": 120.0
            },
            {
                "start_time": 14.4409091,
                "end_time": 16.0318182,
                "pitch": 36,
                "velocity": 40,
                "duration": 1.5909091,
                "tempo": 120.0
            }
        ],
        "Flute": [
            {
                "start_time": 0.1840909,
                "end_time": 0.3659091,
                "pitch": 71,
                "velocity": 32,
                "duration": 0.1818182,
                "tempo": 120.0
            },
            {
                "start_time": 0.3840909,
                "end_time": 0.5681818,
                "pitch": 72,
                "velocity": 32,
                "duration": 0.1840909,
                "tempo": 120.0
            },
            {
                "start_time": 0.5840909,
                "end_time": 0.6681818,
                "pitch": 72,
                "velocity": 32,
                "duration": 0.0840909,
                "tempo": 120.0
            },
            {
                "start_time": 0.6863636,
                "end_time": 0.8704545,
                "pitch": 74,
                "velocity": 32,
                "duration": 0.1840909,
                "tempo": 120.0
            },
            {
                "start_time": 0.8863636,
                "end_time": 1.0704545,
                "pitch": 74,
                "velocity": 32,
                "duration": 0.1840909,
                "tempo": 120.0
            },
            {
                "start_time": 1.0863636,
                "end_time": 1.1704545,
                "pitch": 74,
                "velocity": 32,
                "duration": 0.0840909,
                "tempo": 120.0
            },
            {
                "start_time": 1.1863636,
                "end_time": 1.3704545,
                "pitch": 72,
                "velocity": 32,
                "duration": 0.1840909,
                "tempo": 120.0
            },
            {
                "start_time": 1.3863636,
                "end_time": 1.5704545,
                "pitch": 72,
                "velocity": 32,
                "duration": 0.1840909,
                "tempo": 120.0
            },
            {
                "start_time": 1.5863636,
                "end_time": 1.7704545,
                "pitch": 71,
                "velocity": 32,
                "duration": 0.1840909,
                "tempo": 120.0
            },
            {
                "start_time": 1.7863636,
                "end_time": 1.9727273,
                "pitch": 71,
                "velocity": 32,
                "duration": 0.1863636,
                "tempo": 120.0
            },
            {
                "start_time": 1.9886364,
                "end_time": 2.1727273,
                "pitch": 72,
                "velocity": 32,
                "duration": 0.1840909,
                "tempo": 120.0
            },
            {
                "start_time": 2.1886364,
                "end_time": 2.2727273,
                "pitch": 72,
                "velocity": 32,
                "duration": 0.0840909,
                "tempo": 120.0
            },
            {
                "start_time": 2.2886364,
                "end_time": 2.9772727,
                "pitch": 74,
                "velocity": 32,
                "duration": 0.6886364,
                "tempo": 120.0
            },
            {
                "start_time": 2.9931818,
                "end_time": 3.1818182,
                "pitch": 72,
                "velocity": 32,
                "duration": 0.1886364,
                "tempo": 120.0
            },
            {
                "start_time": 3.2,
                "end_time": 3.3795455,
                "pitch": 71,
                "velocity": 32,
                "duration": 0.1795455,
                "tempo": 120.0
            },
            {
                "start_time": 3.3954545,
                "end_time": 3.575,
                "pitch": 71,
                "velocity": 32,
                "duration": 0.1795455,
                "tempo": 120.0
            },
            {
                "start_time": 3.5909091,
                "end_time": 3.775,
                "pitch": 72,
                "velocity": 32,
                "duration": 0.1840909,
                "tempo": 120.0
            },
            {
                "start_time": 3.7909091,
                "end_time": 3.875,
                "pitch": 72,
                "velocity": 32,
                "duration": 0.0840909,
                "tempo": 120.0
            },
            {
                "start_time": 3.8909091,
                "end_time": 4.075,
                "pitch": 74,
                "velocity": 32,
                "duration": 0.1840909,
                "tempo": 120.0
            },
            {
                "start_time": 4.0909091,
                "end_time": 4.275,
                "pitch": 74,
                "velocity": 32,
                "duration": 0.1840909,
                "tempo": 120.0
            },
            {
                "start_time": 4.2909091,
                "end_time": 4.375,
                "pitch": 74,
                "velocity": 32,
                "duration": 0.0840909,
                "tempo": 120.0
            },
            {
                "start_time": 4.3909091,
                "end_time": 4.575,
                "pitch": 72,
                "velocity": 32,
                "duration": 0.1840909,
                "tempo": 120.0
            },
            {
                "start_time": 4.5909091,
                "end_time": 4.775,
                "pitch": 72,
                "velocity": 32,
                "duration": 0.1840909,
                "tempo": 120.0
            },
            {
                "start_time": 4.7909091,
                "end_time": 4.9772727,
                "pitch": 71,
                "velocity": 32,
                "duration": 0.1863636,
                "tempo": 120.0
            },
            {
                "start_time": 4.9931818,
                "end_time": 5.1772727,
                "pitch": 71,
                "velocity": 32,
                "duration": 0.1840909,
                "tempo": 120.0
            },
            {
                "start_time": 5.1931818,
                "end_time": 5.3772727,
                "pitch": 72,
                "velocity": 32,
                "duration": 0.1840909,
                "tempo": 120.0
            },
            {
                "start_time": 5.3931818,
                "end_time": 5.4772727,
                "pitch": 72,
                "velocity": 32,
                "duration": 0.0840909,
                "tempo": 120.0
            },
            {
                "start_time": 5.4931818,
                "end_time": 6.1818182,
                "pitch": 74,
                "velocity": 32,
                "duration": 0.6886364,
                "tempo": 120.0
            },
            {
                "start_time": 6.1977273,
                "end_time": 6.3818182,
                "pitch": 73,
                "velocity": 32,
                "duration": 0.1840909,
                "tempo": 120.0
            },
            {
                "start_time": 6.4,
                "end_time": 6.65,
                "pitch": 76,
                "velocity": 32,
                "duration": 0.25,
                "tempo": 120.0
            },
            {
                "start_time": 6.6659091,
                "end_time": 6.9840909,
                "pitch": 77,
                "velocity": 32,
                "duration": 0.3181818,
                "tempo": 120.0
            },
            {
                "start_time": 7.0,
                "end_time": 7.3863636,
                "pitch": 79,
                "velocity": 32,
                "duration": 0.3863636,
                "tempo": 120.0
            },
            {
                "start_time": 7.4022727,
                "end_time": 7.5863636,
                "pitch": 76,
                "velocity": 32,
                "duration": 0.1840909,
                "tempo": 120.0
            },
            {
                "start_time": 7.6022727,
                "end_time": 7.7863636,
                "pitch": 77,
                "velocity": 32,
                "duration": 0.1840909,
                "tempo": 120.0
            },
            {
                "start_time": 7.8045455,
                "end_time": 7.9886364,
                "pitch": 79,
                "velocity": 32,
                "duration": 0.1840909,
                "tempo": 120.0
            },
            {
                "start_time": 8.0045455,
                "end_time": 8.2568182,
                "pitch": 76,
                "velocity": 32,
                "duration": 0.2522727,
                "tempo": 120.0
            },
            {
                "start_time": 8.2727273,
                "end_time": 8.5931818,
                "pitch": 77,
                "velocity": 32,
                "duration": 0.3204545,
                "tempo": 120.0
            },
            {
                "start_time": 8.6090909,
                "end_time": 9.3954545,
                "pitch": 79,
                "velocity": 32,
                "duration": 0.7863636,
                "tempo": 120.0
            },
            {
                "start_time": 9.4113636,
                "end_time": 9.5954545,
                "pitch": 77,
                "velocity": 32,
                "duration": 0.1840909,
                "tempo": 120.0
            },
            {
                "start_time": 9.6136364,
                "end_time": 9.8659091,
                "pitch": 76,
                "velocity": 32,
                "duration": 0.2522727,
                "tempo": 120.0
            },
            {
                "start_time": 9.8818182,
                "end_time": 10.2,
                "pitch": 77,
                "velocity": 32,
                "duration": 0.3181818,
                "tempo": 120.0
            },
            {
                "start_time": 10.2181818,
                "end_time": 10.6022727,
                "pitch": 79,
                "velocity": 32,
                "duration": 0.3840909,
                "tempo": 120.0
            },
            {
                "start_time": 10.6204545,
                "end_time": 10.8045455,
                "pitch": 76,
                "velocity": 32,
                "duration": 0.1840909,
                "tempo": 120.0
            },
            {
                "start_time": 10.8204545,
                "end_time": 11.0045455,
                "pitch": 77,
                "velocity": 32,
                "duration": 0.1840909,
                "tempo": 120.0
            },
            {
                "start_time": 11.0204545,
                "end_time": 11.2045455,
                "pitch": 79,
                "velocity": 32,
                "duration": 0.1840909,
                "tempo": 120.0
            },
            {
                "start_time": 11.2204545,
                "end_time": 11.4727273,
                "pitch": 77,
                "velocity": 32,
                "duration": 0.2522727,
                "tempo": 120.0
            },
            {
                "start_time": 11.4886364,
                "end_time": 11.8090909,
                "pitch": 79,
                "velocity": 32,
                "duration": 0.3204545,
                "tempo": 120.0
            },
            {
                "start_time": 11.825,
                "end_time": 12.2113636,
                "pitch": 81,
                "velocity": 32,
                "duration": 0.3863636,
                "tempo": 120.0
            },
            {
                "start_time": 12.2272727,
                "end_time": 12.3113636,
                "pitch": 80,
                "velocity": 32,
                "duration": 0.0840909,
                "tempo": 120.0
            },
            {
                "start_time": 12.3295455,
                "end_time": 12.4113636,
                "pitch": 77,
                "velocity": 32,
                "duration": 0.0818182,
                "tempo": 120.0
            },
            {
                "start_time": 12.4295455,
                "end_time": 12.6136364,
                "pitch": 74,
                "velocity": 32,
                "duration": 0.1840909,
                "tempo": 120.0
            },
            {
                "start_time": 12.6295455,
                "end_time": 12.8159091,
                "pitch": 71,
                "velocity": 32,
                "duration": 0.1863636,
                "tempo": 120.0
            },
            {
                "start_time": 12.8318182,
                "end_time": 13.0159091,
                "pitch": 71,
                "velocity": 32,
                "duration": 0.1840909,
                "tempo": 120.0
            },
            {
                "start_time": 13.0318182,
                "end_time": 13.2159091,
                "pitch": 71,
                "velocity": 32,
                "duration": 0.1840909,
                "tempo": 120.0
            },
            {
                "start_time": 13.2318182,
                "end_time": 13.4159091,
                "pitch": 72,
                "velocity": 32,
                "duration": 0.1840909,
                "tempo": 120.0
            },
            {
                "start_time": 13.4340909,
                "end_time": 13.5181818,
                "pitch": 72,
                "velocity": 32,
                "duration": 0.0840909,
                "tempo": 120.0
            },
            {
                "start_time": 13.5340909,
                "end_time": 13.7181818,
                "pitch": 74,
                "velocity": 32,
                "duration": 0.1840909,
                "tempo": 120.0
            },
            {
                "start_time": 13.7363636,
                "end_time": 13.9204545,
                "pitch": 74,
                "velocity": 32,
                "duration": 0.1840909,
                "tempo": 120.0
            },
            {
                "start_time": 13.9363636,
                "end_time": 14.0204545,
                "pitch": 74,
                "velocity": 32,
                "duration": 0.0840909,
                "tempo": 120.0
            },
            {
                "start_time": 14.0363636,
                "end_time": 14.2227273,
                "pitch": 72,
                "velocity": 32,
                "duration": 0.1863636,
                "tempo": 120.0
            },
            {
                "start_time": 14.2386364,
                "end_time": 14.4227273,
                "pitch": 72,
                "velocity": 32,
                "duration": 0.1840909,
                "tempo": 120.0
            },
            {
                "start_time": 14.4409091,
                "end_time": 15.2181818,
                "pitch": 71,
                "velocity": 32,
                "duration": 0.7772727,
                "tempo": 120.0
            },
            {
                "start_time": 15.2340909,
                "end_time": 16.0318182,
                "pitch": 76,
                "velocity": 32,
                "duration": 0.7977273,
                "tempo": 120.0
            }
        ]
    }
}