{
    "mood": "happy",
    "instruments": {
        "Synth Bass 1": [
            {
                "start_time": 25.6931818,
                "end_time": 25.875,
                "pitch": 87,
                "velocity": 51,
                "duration": 0.1818182,
                "tempo": 120.0
            },
            {
                "start_time": 25.8931818,
                "end_time": 26.2863636,
                "pitch": 87,
                "velocity": 51,
                "duration": 0.3931818,
                "tempo": 120.0
            },
            {
                "start_time": 26.3022727,
                "end_time": 26.4818182,
                "pitch": 88,
                "velocity": 51,
                "duration": 0.1795455,
                "tempo": 120.0
            },
            {
                "start_time": 26.5,
                "end_time": 26.8795455,
                "pitch": 88,
                "velocity": 51,
                "duration": 0.3795455,
                "tempo": 120.0
            },
            {
                "start_time": 26.8977273,
                "end_time": 27.0818182,
                "pitch": 87,
                "velocity": 51,
                "duration": 0.1840909,
                "tempo": 120.0
            },
            {
                "start_time": 27.0977273,
                "end_time": 27.4818182,
                "pitch": 87,
                "velocity": 51,
                "duration": 0.3840909,
                "tempo": 120.0
            },
            {
                "start_time": 27.4977273,
                "end_time": 27.6818182,
                "pitch": 86,
                "velocity": 51,
                "duration": 0.1840909,
                "tempo": 120.0
            },
            {
                "start_time": 27.6977273,
                "end_time": 28.8863636,
                "pitch": 86,
                "velocity": 51,
                "duration": 1.1886364,
                "tempo": 120.0
            },
            {
                "start_time": 28.9022727,
                "end_time": 29.0863636,
                "pitch": 87,
                "velocity": 51,
                "duration": 0.1840909,
                "tempo": 120.0
            },
            {
                "start_time": 29.1022727,
                "end_time": 29.4863636,
                "pitch": 87,
                "velocity": 51,
                "duration": 0.3840909,
                "tempo": 120.0
            },
            {
                "start_time": 29.5022727,
                "end_time": 29.6863636,
                "pitch": 88,
                "velocity": 51,
                "duration": 0.1840909,
                "tempo": 120.0
            },
            {
                "start_time": 29.7022727,
                "end_time": 30.0886364,
                "pitch": 88,
                "velocity": 51,
                "duration": 0.3863636,
                "tempo": 120.0
            },
            {
                "start_time": 30.1045455,
                "end_time": 30.2886364,
                "pitch": 87,
                "velocity": 51,
                "duration": 0.1840909,
                "tempo": 120.0
            },
            {
                "start_time": 30.3068182,
                "end_time": 30.6886364,
                "pitch": 87,
                "velocity": 51,
                "duration": 0.3818182,
                "tempo": 120.0
            },
            {
                "start_time": 30.7068182,
                "end_time": 30.8909091,
                "pitch": 86,
                "velocity": 51,
                "duration": 0.1840909,
                "tempo": 120.0
            },
            {
                "start_time": 30.9068182,
                "end_time": 32.0931818,
                "pitch": 86,
                "velocity": 51,
                "duration": 1.1863636,
                "tempo": 120.0
            },
            {
                "start_time": 32.5068182,
                "end_time": 32.5227273,
                "pitch": 90,
                "velocity": 51,
                "duration": 0.0159091,
                "tempo": 120.0
            },
            {
                "start_time": 32.5409091,
                "end_time": 32.8886364,
                "pitch": 91,
                "velocity": 51,
                "duration": 0.3477273,
                "tempo": 120.0
            }
        ],
        "Clarinet": [
            {
                "start_time": 0.0204545,
                "end_time": 0.1863636,
                "pitch": 84,
                "velocity": 32,
                "duration": 0.1659091,
                "tempo": 120.0
            },
            {
                "start_time": 0.2045455,
                "end_time": 0.3863636,
                "pitch": 79,
                "velocity": 32,
                "duration": 0.1818182,
                "tempo": 120.0
            },
            {
                "start_time": 0.4045455,
                "end_time": 0.5863636,
                "pitch": 76,
                "velocity": 32,
                "duration": 0.1818182,
                "tempo": 120.0
            },
            {
                "start_time": 0.6045455,
                "end_time": 0.7863636,
                "pitch": 79,
                "velocity": 32,
                "duration": 0.1818182,
                "tempo": 120.0
            },
            {
                "start_time": 0.8045455,
                "end_time": 0.9863636,
                "pitch": 76,
                "velocity": 32,
                "duration": 0.1818182,
                "tempo": 120.0
            },
            {
                "start_time": 1.0045455,
                "end_time": 1.1863636,
                "pitch": 72,
                "velocity": 32,
                "duration": 0.1818182,
                "tempo": 120.0
            },
            {
                "start_time": 1.2045455,
                "end_time": 1.3863636,
                "pitch": 76,
                "velocity": 32,
                "duration": 0.1818182,
                "tempo": 120.0
            },
            {
                "start_time": 1.4045455,
                "end_time": 1.5863636,
                "pitch": 72,
                "velocity": 32,
                "duration": 0.1818182,
                "tempo": 120.0
            },
            {
                "start_time": 1.6045455,
                "end_time": 1.7863636,
                "pitch": 67,
                "velocity": 32,
                "duration": 0.1818182,
                "tempo": 120.0
            },
            {
                "start_time": 1.8045455,
                "end_time": 1.9886364,
                "pitch": 72,
                "velocity": 32,
                "duration": 0.1840909,
                "tempo": 120.0
            },
            {
                "start_time": 2.0045455,
                "end_time": 2.1886364,
                "pitch": 67,
                "velocity": 32,
                "duration": 0.1840909,
                "tempo": 120.0
            },
            {
                "start_time": 2.2068182,
                "end_time": 2.3909091,
                "pitch": 64,
                "velocity": 32,
                "duration": 0.1840909,
                "tempo": 120.0
            },
            {
                "start_time": 2.4068182,
                "end_time": 2.5931818,
                "pitch": 67,
                "velocity": 32,
                "duration": 0.1863636,
                "tempo": 120.0
            },
            {
                "start_time": 2.6090909,
                "end_time": 2.7931818,
                "pitch": 64,
                "velocity": 32,
                "duration": 0.1840909,
                "tempo": 120.0
            },
            {
                "start_time": 2.8090909,
                "end_time": 2.9931818,
                "pitch": 60,
                "velocity": 32,
                "duration": 0.1840909,
                "tempo": 120.0
            },
            {
                "start_time": 3.0090909,
                "end_time": 3.1931818,
                "pitch": 64,
                "velocity": 32,
                "duration": 0.1840909,
                "tempo": 120.0
            },
            {
                "start_time": 3.2090909,
                "end_time": 3.3931818,
                "pitch": 60,
                "velocity": 32,
                "duration": 0.1840909,
                "tempo": 120.0
            },
            {
                "start_time": 3.4090909,
                "end_time": 3.5931818,
                "pitch": 64,
                "velocity": 32,
                "duration": 0.1840909,
                "tempo": 120.0
            },
            {
                "start_time": 3.6090909,
                "end_time": 3.7931818,
                "pitch": 67,
                "velocity": 32,
                "duration": 0.1840909,
                "tempo": 120.0
            },
            {
                "start_time": 3.8090909,
                "end_time": 3.9931818,
                "pitch": 64,
                "velocity": 32,
                "duration": 0.1840909,
                "tempo": 120.0
            },
            {
                "start_time": 4.0090909,
                "end_time": 4.1931818,
                "pitch": 67,
                "velocity": 32,
                "duration": 0.1840909,
                "tempo": 120.0
            },
            {
                "start_time": 4.2090909,
                "end_time": 4.3931818,
                "pitch": 72,
                "velocity": 32,
                "duration": 0.1840909,
                "tempo": 120.0
            },
            {
                "start_time": 4.4113636,
                "end_time": 4.5954545,
                "pitch": 67,
                "velocity": 32,
                "duration": 0.1840909,
                "tempo": 120.0
            },
            {
                "start_time": 4.6113636,
                "end_time": 4.7954545,
                "pitch": 72,
                "velocity": 32,
                "duration": 0.1840909,
                "tempo": 120.0
            },
            {
                "start_time": 4.8113636,
                "end_time": 4.9954545,
                "pitch": 76,
                "velocity": 32,
                "duration": 0.1840909,
                "tempo": 120.0
            },
            {
                "start_time": 5.0113636,
                "end_time": 5.1954545,
                "pitch": 72,
                "velocity": 32,
                "duration": 0.1840909,
                "tempo": 120.0
            },
            {
                "start_time": 5.2136364,
                "end_time": 5.3977273,
                "pitch": 76,
                "velocity": 32,
                "duration": 0.1840909,
                "tempo": 120.0
            },
            {
                "start_time": 5.4136364,
                "end_time": 5.6,
                "pitch": 79,
                "velocity": 32,
                "duration": 0.1863636,
                "tempo": 120.0
            },
            {
                "start_time": 5.6159091,
                "end_time": 5.8,
                "pitch": 76,
                "velocity": 32,
                "duration": 0.1840909,
                "tempo": 120.0
            },
            {
                "start_time": 5.8181818,
                "end_time": 6.0,
                "pitch": 79,
                "velocity": 32,
                "duration": 0.1818182,
                "tempo": 120.0
            },
            {
                "start_time": 6.0181818,
                "end_time": 6.2,
                "pitch": 84,
                "velocity": 32,
                "duration": 0.1818182,
                "tempo": 120.0
            },
            {
                "start_time": 6.2181818,
                "end_time": 6.4022727,
                "pitch": 79,
                "velocity": 32,
                "duration": 0.1840909,
                "tempo": 120.0
            },
            {
                "start_time": 6.4181818,
                "end_time": 6.6022727,
                "pitch": 83,
                "velocity": 32,
                "duration": 0.1840909,
                "tempo": 120.0
            },
            {
                "start_time": 6.6204545,
                "end_time": 6.8022727,
                "pitch": 79,
                "velocity": 32,
                "duration": 0.1818182,
                "tempo": 120.0
            },
            {
                "start_time": 6.8204545,
                "end_time": 7.0022727,
                "pitch": 77,
                "velocity": 32,
                "duration": 0.1818182,
                "tempo": 120.0
            },
            {
                "start_time": 7.0204545,
                "end_time": 7.2045455,
                "pitch": 79,
                "velocity": 32,
                "duration": 0.1840909,
                "tempo": 120.0
            },
            {
                "start_time": 7.2204545,
                "end_time": 7.4068182,
                "pitch": 77,
                "velocity": 32,
                "duration": 0.1863636,
                "tempo": 120.0
            },
            {
                "start_time": 7.4227273,
                "end_time": 7.6068182,
                "pitch": 74,
                "velocity": 32,
                "duration": 0.1840909,
                "tempo": 120.0
            },
            {
                "start_time": 7.625,
                "end_time": 7.8090909,
                "pitch": 77,
                "velocity": 32,
                "duration": 0.1840909,
                "tempo": 120.0
            },
            {
                "start_time": 7.825,
                "end_time": 8.0090909,
                "pitch": 74,
                "velocity": 32,
                "duration": 0.1840909,
                "tempo": 120.0
            },
            {
                "start_time": 8.025,
                "end_time": 8.2090909,
                "pitch": 71,
                "velocity": 32,
                "duration": 0.1840909,
                "tempo": 120.0
            },
            {
                "start_time": 8.225,
                "end_time": 8.4090909,
                "pitch": 74,
                "velocity": 32,
                "duration": 0.1840909,
                "tempo": 120.0
            },
            {
                "start_time": 8.425,
                "end_time": 8.6090909,
                "pitch": 71,
                "velocity": 32,
                "duration": 0.1840909,
                "tempo": 120.0
            },
            {
                "start_time": 8.625,
                "end_time": 8.8090909,
                "pitch": 67,
                "velocity": 32,
                "duration": 0.1840909,
                "tempo": 120.0
            },
            {
                "start_time": 8.8272727,
                "end_time": 9.0113636,
                "pitch": 71,
                "velocity": 32,
                "duration": 0.1840909,
                "tempo": 120.0
            },
            {
                "start_time": 9.0272727,
                "end_time": 9.2136364,
                "pitch": 67,
                "velocity": 32,
                "duration": 0.1863636,
                "tempo": 120.0
            },
            {
                "start_time": 9.2295455,
                "end_time": 9.4136364,
                "pitch": 65,
                "velocity": 32,
                "duration": 0.1840909,
                "tempo": 120.0
            },
            {
                "start_time": 9.4318182,
                "end_time": 9.6159091,
                "pitch": 67,
                "velocity": 32,
                "duration": 0.1840909,
                "tempo": 120.0
            },
            {
                "start_time": 9.6318182,
                "end_time": 9.8159091,
                "pitch": 62,
                "velocity": 32,
                "duration": 0.1840909,
                "tempo": 120.0
            },
            {
                "start_time": 9.8340909,
                "end_time": 10.0181818,
                "pitch": 65,
                "velocity": 32,
                "duration": 0.1840909,
                "tempo": 120.0
            },
            {
                "start_time": 10.0340909,
                "end_time": 10.2181818,
                "pitch": 67,
                "velocity": 32,
                "duration": 0.1840909,
                "tempo": 120.0
            },
            {
                "start_time": 10.2363636,
                "end_time": 10.4204545,
                "pitch": 65,
                "velocity": 32,
                "duration": 0.1840909,
                "tempo": 120.0
            },
            {
                "start_time": 10.4363636,
                "end_time": 10.6204545,
                "pitch": 67,
                "velocity": 32,
                "duration": 0.1840909,
                "tempo": 120.0
            },
            {
                "start_time": 10.6363636,
                "end_time": 10.8204545,
                "pitch": 71,
                "velocity": 32,
                "duration": 0.1840909,
                "tempo": 120.0
            },
            {
                "start_time": 10.8363636,
                "end_time": 11.0227273,
                "pitch": 67,
                "velocity": 32,
                "duration": 0.1863636,
                "tempo": 120.0
            },
            {
                "start_time": 11.0386364,
                "end_time": 11.2227273,
                "pitch": 71,
                "velocity": 32,
                "duration": 0.1840909,
                "tempo": 120.0
            },
            {
                "start_time": 11.2409091,
                "end_time": 11.425,
                "pitch": 74,
                "velocity": 32,
                "duration": 0.1840909,
                "tempo": 120.0
            },
            {
                "start_time": 11.4409091,
                "end_time": 11.625,
                "pitch": 71,
                "velocity": 32,
                "duration": 0.1840909,
                "tempo": 120.0
            },
            {
                "start_time": 11.6431818,
                "end_time": 11.8272727,
                "pitch": 74,
                "velocity": 32,
                "duration": 0.1840909,
                "tempo": 120.0
            },
            {
                "start_time": 11.8431818,
                "end_time": 12.0295455,
                "pitch": 77,
                "velocity": 32,
                "duration": 0.1863636,
                "tempo": 120.0
            },
            {
                "start_time": 12.0454545,
                "end_time": 12.2295455,
                "pitch": 74,
                "velocity": 32,
                "duration": 0.1840909,
                "tempo": 120.0
            },
            {
                "start_time": 12.2477273,
                "end_time": 12.4295455,
                "pitch": 77,
                "velocity": 32,
                "duration": 0.1818182,
                "tempo": 120.0
            },
            {
                "start_time": 12.4477273,
                "end_time": 12.6295455,
                "pitch": 79,
                "velocity": 32,
                "duration": 0.1818182,
                "tempo": 120.0
            },
            {
                "start_time": 12.6477273,
                "end_time": 12.8318182,
                "pitch": 83,
                "velocity": 32,
                "duration": 0.1840909,
                "tempo": 120.0
            },
            {
                "start_time": 12.8477273,
                "end_time": 13.0318182,
                "pitch": 84,
                "velocity": 32,
                "duration": 0.1840909,
                "tempo": 120.0
            },
            {
                "start_time": 13.05,
                "end_time": 13.2340909,
                "pitch": 79,
                "velocity": 32,
                "duration": 0.1840909,
                "tempo": 120.0
            },
            {
                "start_time": 13.25,
                "end_time": 13.4363636,
                "pitch": 76,
                "velocity": 32,
                "duration": 0.1863636,
                "tempo": 120.0
            },
            {
                "start_time": 13.4522727,
                "end_time": 13.6363636,
                "pitch": 79,
                "velocity": 32,
                "duration": 0.1840909,
                "tempo": 120.0
            },
            {
                "start_time": 13.6545455,
                "end_time": 13.8386364,
                "pitch": 76,
                "velocity": 32,
                "duration": 0.1840909,
                "tempo": 120.0
            },
            {
                "start_time": 13.8545455,
                "end_time": 14.0386364,
                "pitch": 72,
                "velocity": 32,
                "duration": 0.1840909,
                "tempo": 120.0
            },
            {
                "start_time": 14.0568182,
                "end_time": 14.2409091,
                "pitch": 76,
                "velocity": 32,
                "duration": 0.1840909,
                "tempo": 120.0
            },
            {
                "start_time": 14.2568182,
                "end_time": 14.4409091,
                "pitch": 72,
                "velocity": 32,
                "duration": 0.1840909,
                "tempo": 120.0
            },
            {
                "start_time": 14.4568182,
                "end_time": 14.6409091,
                "pitch": 67,
                "velocity": 32,
                "duration": 0.1840909,
                "tempo": 120.0
            },
            {
                "start_time": 14.6568182,
                "end_time": 14.8431818,
                "pitch": 72,
                "velocity": 32,
                "duration": 0.1863636,
                "tempo": 120.0
            },
            {
                "start_time": 14.8590909,
                "end_time": 15.0431818,
                "pitch": 67,
                "velocity": 32,
                "duration": 0.1840909,
                "tempo": 120.0
            },
            {
                "start_time": 15.0613636,
                "end_time": 15.2454545,
                "pitch": 64,
                "velocity": 32,
                "duration": 0.1840909,
                "tempo": 120.0
            },
            {
                "start_time": 15.2613636,
                "end_time": 15.4454545,
                "pitch": 67,
                "velocity": 32,
                "duration": 0.1840909,
                "tempo": 120.0
            },
            {
                "start_time": 15.4636364,
                "end_time": 15.6477273,
                "pitch": 64,
                "velocity": 32,
                "duration": 0.1840909,
                "tempo": 120.0
            },
            {
                "start_time": 15.6636364,
                "end_time": 15.8477273,
                "pitch": 60,
                "velocity": 32,
                "duration": 0.1840909,
                "tempo": 120.0
            },
            {
                "start_time": 15.8659091,
                "end_time": 16.05,
                "pitch": 64,
                "velocity": 32,
                "duration": 0.1840909,
                "tempo": 120.0
            },
            {
                "start_time": 16.0659091,
                "end_time": 16.2522727,
                "pitch": 60,
                "velocity": 32,
                "duration": 0.1863636,
                "tempo": 120.0
            },
            {
                "start_time": 16.2681818,
                "end_time": 16.4522727,
                "pitch": 64,
                "velocity": 32,
                "duration": 0.1840909,
                "tempo": 120.0
            },
            {
                "start_time": 16.4681818,
                "end_time": 16.6522727,
                "pitch": 67,
                "velocity": 32,
                "duration": 0.1840909,
                "tempo": 120.0
            },
            {
                "start_time": 16.6681818,
                "end_time": 16.8522727,
                "pitch": 64,
                "velocity": 32,
                "duration": 0.1840909,
                "tempo": 120.0
            },
            {
                "start_time": 16.8704545,
                "end_time": 17.0545455,
                "pitch": 67,
                "velocity": 32,
                "duration": 0.1840909,
                "tempo": 120.0
            },
            {
                "start_time": 17.0704545,
                "end_time": 17.2545455,
                "pitch": 72,
                "velocity": 32,
                "duration": 0.1840909,
                "tempo": 120.0
            },
            {
                "start_time": 17.2704545,
                "end_time": 17.4545455,
                "pitch": 67,
                "velocity": 32,
                "duration": 0.1840909,
                "tempo": 120.0
            },
            {
                "start_time": 17.4704545,
                "end_time": 17.6545455,
                "pitch": 72,
                "velocity": 32,
                "duration": 0.1840909,
                "tempo": 120.0
            },
            {
                "start_time": 17.6704545,
                "end_time": 17.8545455,
                "pitch": 76,
                "velocity": 32,
                "duration": 0.1840909,
                "tempo": 120.0
            },
            {
                "start_time": 17.8704545,
                "end_time": 18.0545455,
                "pitch": 72,
                "velocity": 32,
                "duration": 0.1840909,
                "tempo": 120.0
            },
            {
                "start_time": 18.0727273,
                "end_time": 18.2568182,
                "pitch": 76,
                "velocity": 32,
                "duration": 0.1840909,
                "tempo": 120.0
            },
            {
                "start_time": 18.2727273,
                "end_time": 18.4568182,
                "pitch": 79,
                "velocity": 32,
                "duration": 0.1840909,
                "tempo": 120.0
            },
            {
                "start_time": 18.4727273,
                "end_time": 18.6568182,
                "pitch": 76,
                "velocity": 32,
                "duration": 0.1840909,
                "tempo": 120.0
            },
            {
                "start_time": 18.6727273,
                "end_time": 18.8590909,
                "pitch": 79,
                "velocity": 32,
                "duration": 0.1863636,
                "tempo": 120.0
            },
            {
                "start_time": 18.875,
                "end_time": 19.0590909,
                "pitch": 84,
                "velocity": 32,
                "duration": 0.1840909,
                "tempo": 120.0
            },
            {
                "start_time": 19.0772727,
                "end_time": 19.2590909,
                "pitch": 79,
                "velocity": 32,
                "duration": 0.1818182,
                "tempo": 120.0
            },
            {
                "start_time": 19.2772727,
                "end_time": 19.4590909,
                "pitch": 83,
                "velocity": 32,
                "duration": 0.1818182,
                "tempo": 120.0
            },
            {
                "start_time": 19.4772727,
                "end_time": 19.6590909,
                "pitch": 79,
                "velocity": 32,
                "duration": 0.1818182,
                "tempo": 120.0
            },
            {
                "start_time": 19.6772727,
                "end_time": 19.8590909,
                "pitch": 77,
                "velocity": 32,
                "duration": 0.1818182,
                "tempo": 120.0
            },
            {
                "start_time": 19.8772727,
                "end_time": 20.0613636,
                "pitch": 79,
                "velocity": 32,
                "duration": 0.1840909,
                "tempo": 120.0
            },
            {
                "start_time": 20.0772727,
                "end_time": 20.2613636,
                "pitch": 77,
                "velocity": 32,
                "duration": 0.1840909,
                "tempo": 120.0
            },
            {
                "start_time": 20.2795455,
                "end_time": 20.4613636,
                "pitch": 74,
                "velocity": 32,
                "duration": 0.1818182,
                "tempo": 120.0
            },
            {
                "start_time": 20.4795455,
                "end_time": 20.6613636,
                "pitch": 77,
                "velocity": 32,
                "duration": 0.1818182,
                "tempo": 120.0
            },
            {
                "start_time": 20.6795455,
                "end_time": 20.8636364,
                "pitch": 74,
                "velocity": 32,
                "duration": 0.1840909,
                "tempo": 120.0
            },
            {
                "start_time": 20.8795455,
                "end_time": 21.0659091,
                "pitch": 71,
                "velocity": 32,
                "duration": 0.1863636,
                "tempo": 120.0
            },
            {
                "start_time": 21.0818182,
                "end_time": 21.2659091,
                "pitch": 74,
                "velocity": 32,
                "duration": 0.1840909,
                "tempo": 120.0
            },
            {
                "start_time": 21.2818182,
                "end_time": 21.4659091,
                "pitch": 71,
                "velocity": 32,
                "duration": 0.1840909,
                "tempo": 120.0
            },
            {
                "start_time": 21.4818182,
                "end_time": 21.6659091,
                "pitch": 67,
                "velocity": 32,
                "duration": 0.1840909,
                "tempo": 120.0
            },
            {
                "start_time": 21.6818182,
                "end_time": 21.8659091,
                "pitch": 71,
                "velocity": 32,
                "duration": 0.1840909,
                "tempo": 120.0
            },
            {
                "start_time": 21.8818182,
                "end_time": 22.0659091,
                "pitch": 67,
                "velocity": 32,
                "duration": 0.1840909,
                "tempo": 120.0
            },
            {
                "start_time": 22.0840909,
                "end_time": 22.2681818,
                "pitch": 65,
                "velocity": 32,
                "duration": 0.1840909,
                "tempo": 120.0
            },
            {
                "start_time": 22.2840909,
                "end_time": 22.4681818,
                "pitch": 67,
                "velocity": 32,
                "duration": 0.1840909,
                "tempo": 120.0
            },
            {
                "start_time": 22.4840909,
                "end_time": 22.6681818,
                "pitch": 62,
                "velocity": 32,
                "duration": 0.1840909,
                "tempo": 120.0
            },
            {
                "start_time": 22.6840909,
                "end_time": 22.8681818,
                "pitch": 65,
                "velocity": 32,
                "duration": 0.1840909,
                "tempo": 120.0
            },
            {
                "start_time": 22.8863636,
                "end_time": 23.0704545,
                "pitch": 67,
                "velocity": 32,
                "duration": 0.1840909,
                "tempo": 120.0
            },
            {
                "start_time": 23.0863636,
                "end_time": 23.2704545,
                "pitch": 65,
                "velocity": 32,
                "duration": 0.1840909,
                "tempo": 120.0
            },
            {
                "start_time": 23.2863636,
                "end_time": 23.4704545,
                "pitch": 67,
                "velocity": 32,
                "duration": 0.1840909,
                "tempo": 120.0
            },
            {
                "start_time": 23.4863636,
                "end_time": 23.6704545,
                "pitch": 71,
                "velocity": 32,
                "duration": 0.1840909,
                "tempo": 120.0
            },
            {
                "start_time": 23.6863636,
                "end_time": 23.8704545,
                "pitch": 67,
                "velocity": 32,
                "duration": 0.1840909,
                "tempo": 120.0
            },
            {
                "start_time": 23.8863636,
                "end_time": 24.0727273,
                "pitch": 71,
                "velocity": 32,
                "duration": 0.1863636,
                "tempo": 120.0
            },
            {
                "start_time": 24.0886364,
                "end_time": 24.2727273,
                "pitch": 74,
                "velocity": 32,
                "duration": 0.1840909,
                "tempo": 120.0
            },
            {
                "start_time": 24.2886364,
                "end_time": 24.4727273,
                "pitch": 71,
                "velocity": 32,
                "duration": 0.1840909,
                "tempo": 120.0
            },
            {
                "start_time": 24.4886364,
                "end_time": 24.6727273,
                "pitch": 74,
                "velocity": 32,
                "duration": 0.1840909,
                "tempo": 120.0
            },
            {
                "start_time": 24.6909091,
                "end_time": 24.875,
                "pitch": 77,
                "velocity": 32,
                "duration": 0.1840909,
                "tempo": 120.0
            },
            {
                "start_time": 24.8909091,
                "end_time": 25.075,
                "pitch": 74,
                "velocity": 32,
                "duration": 0.1840909,
                "tempo": 120.0
            },
            {
                "start_time": 25.0931818,
                "end_time": 25.275,
                "pitch": 77,
                "velocity": 32,
                "duration": 0.1818182,
                "tempo": 120.0
            },
            {
                "start_time": 25.2931818,
                "end_time": 25.475,
                "pitch": 79,
                "velocity": 32,
                "duration": 0.1818182,
                "tempo": 120.0
            },
            {
                "start_time": 25.4931818,
                "end_time": 25.675,
                "pitch": 83,
                "velocity": 32,
                "duration": 0.1818182,
                "tempo": 120.0
            },
            {
                "start_time": 25.6931818,
                "end_time": 25.875,
                "pitch": 72,
                "velocity": 32,
                "duration": 0.1818182,
                "tempo": 120.0
            },
            {
                "start_time": 25.8931818,
                "end_time": 26.2863636,
                "pitch": 72,
                "velocity": 32,
                "duration": 0.3931818,
                "tempo": 120.0
            },
            {
                "start_time": 26.3022727,
                "end_time": 26.4818182,
                "pitch": 73,
                "velocity": 32,
                "duration": 0.1795455,
                "tempo": 120.0
            },
            {
                "start_time": 26.5,
                "end_time": 26.8795455,
                "pitch": 73,
                "velocity": 32,
                "duration": 0.3795455,
                "tempo": 120.0
            },
            {
                "start_time": 26.8977273,
                "end_time": 27.0818182,
                "pitch": 72,
                "velocity": 32,
                "duration": 0.1840909,
                "tempo": 120.0
            },
            {
                "start_time": 27.0977273,
                "end_time": 27.4818182,
                "pitch": 72,
                "velocity": 32,
                "duration": 0.3840909,
                "tempo": 120.0
            },
            {
                "start_time": 27.4977273,
                "end_time": 27.6818182,
                "pitch": 71,
                "velocity": 32,
                "duration": 0.1840909,
                "tempo": 120.0
            },
            {
                "start_time": 27.6977273,
                "end_time": 28.2840909,
                "pitch": 71,
                "velocity": 32,
                "duration": 0.5863636,
                "tempo": 120.0
            },
            {
                "start_time": 28.3,
                "end_time": 28.4840909,
                "pitch": 71,
                "velocity": 32,
                "duration": 0.1840909,
                "tempo": 120.0
            },
            {
                "start_time": 28.5,
                "end_time": 28.6840909,
                "pitch": 72,
                "velocity": 32,
                "duration": 0.1840909,
                "tempo": 120.0
            },
            {
                "start_time": 28.7,
                "end_time": 28.8863636,
                "pitch": 71,
                "velocity": 32,
                "duration": 0.1863636,
                "tempo": 120.0
            },
            {
                "start_time": 28.9022727,
                "end_time": 29.0863636,
                "pitch": 72,
                "velocity": 32,
                "duration": 0.1840909,
                "tempo": 120.0
            },
            {
                "start_time": 29.1022727,
                "end_time": 29.4863636,
                "pitch": 72,
                "velocity": 32,
                "duration": 0.3840909,
                "tempo": 120.0
            },
            {
                "start_time": 29.5022727,
                "end_time": 29.6863636,
                "pitch": 73,
                "velocity": 32,
                "duration": 0.1840909,
                "tempo": 120.0
            },
            {
                "start_time": 29.7022727,
                "end_time": 30.0886364,
                "pitch": 73,
                "velocity": 32,
                "duration": 0.3863636,
                "tempo": 120.0
            },
            {
                "start_time": 30.1045455,
                "end_time": 30.2886364,
                "pitch": 72,
                "velocity": 32,
                "duration": 0.1840909,
                "tempo": 120.0
            },
            {
                "start_time": 30.3068182,
                "end_time": 30.6886364,
                "pitch": 72,
                "velocity": 32,
                "duration": 0.3818182,
                "tempo": 120.0
            },
            {
                "start_time": 30.7068182,
                "end_time": 30.8909091,
                "pitch": 71,
                "velocity": 32,
                "duration": 0.1840909,
                "tempo": 120.0
            },
            {
                "start_time": 30.9068182,
                "end_time": 31.4909091,
                "pitch": 71,
                "velocity": 32,
                "duration": 0.5840909,
                "tempo": 120.0
            },
            {
                "start_time": 31.5090909,
                "end_time": 31.6909091,
                "pitch": 71,
                "velocity": 32,
                "duration": 0.1818182,
                "tempo": 120.0
            },
            {
                "start_time": 31.7090909,
                "end_time": 31.8909091,
                "pitch": 71,
                "velocity": 32,
                "duration": 0.1818182,
                "tempo": 120.0
            },
            {
                "start_time": 31.9090909,
                "end_time": 32.0931818,
                "pitch": 71,
                "velocity": 32,
                "duration": 0.1840909,
                "tempo": 120.0
            },
            {
                "start_time": 32.1090909,
                "end_time": 32.4909091,
                "pitch": 71,
                "velocity": 32,
                "duration": 0.3818182,
                "tempo": 120.0
            },
            {
                "start_time": 33.7068182,
                "end_time": 33.8386364,
                "pitch": 84,
                "velocity": 32,
                "duration": 0.1318182,
                "tempo": 120.0
            }
        ],
        "Acoustic Grand Piano": [
            {
                "start_time": 0.0204545,
                "end_time": 0.1863636,
                "pitch": 36,
                "velocity": 40,
                "duration": 0.1659091,
                "tempo": 120.0
            },
            {
                "start_time": 0.2045455,
                "end_time": 0.3863636,
                "pitch": 43,
                "velocity": 40,
                "duration": 0.1818182,
                "tempo": 120.0
            },
            {
                "start_time": 0.4045455,
                "end_time": 0.5863636,
                "pitch": 42,
                "velocity": 40,
                "duration": 0.1818182,
                "tempo": 120.0
            },
            {
                "start_time": 0.6045455,
                "end_time": 0.7863636,
                "pitch": 43,
                "velocity": 40,
                "duration": 0.1818182,
                "tempo": 120.0
            },
            {
                "start_time": 0.8045455,
                "end_time": 0.9863636,
                "pitch": 36,
                "velocity": 40,
                "duration": 0.1818182,
                "tempo": 120.0
            },
            {
                "start_time": 1.0045455,
                "end_time": 1.1863636,
                "pitch": 43,
                "velocity": 40,
                "duration": 0.1818182,
                "tempo": 120.0
            },
            {
                "start_time": 1.2045455,
                "end_time": 1.3863636,
                "pitch": 45,
                "velocity": 40,
                "duration": 0.1818182,
                "tempo": 120.0
            },
            {
                "start_time": 1.4045455,
                "end_time": 1.5863636,
                "pitch": 43,
                "velocity": 40,
                "duration": 0.1818182,
                "tempo": 120.0
            },
            {
                "start_time": 1.6045455,
                "end_time": 1.7863636,
                "pitch": 36,
                "velocity": 40,
                "duration": 0.1818182,
                "tempo": 120.0
            },
            {
                "start_time": 1.8045455,
                "end_time": 1.9886364,
                "pitch": 43,
                "velocity": 40,
                "duration": 0.1840909,
                "tempo": 120.0
            },
            {
                "start_time": 2.0045455,
                "end_time": 2.1886364,
                "pitch": 42,
                "velocity": 40,
                "duration": 0.1840909,
                "tempo": 120.0
            },
            {
                "start_time": 2.2068182,
                "end_time": 2.3909091,
                "pitch": 43,
                "velocity": 40,
                "duration": 0.1840909,
                "tempo": 120.0
            },
            {
                "start_time": 2.4068182,
                "end_time": 2.5931818,
                "pitch": 36,
                "velocity": 40,
                "duration": 0.1863636,
                "tempo": 120.0
            },
            {
                "start_time": 2.6090909,
                "end_time": 2.7931818,
                "pitch": 43,
                "velocity": 40,
                "duration": 0.1840909,
                "tempo": 120.0
            },
            {
                "start_time": 2.8090909,
                "end_time": 2.9931818,
                "pitch": 45,
                "velocity": 40,
                "duration": 0.1840909,
                "tempo": 120.0
            },
            {
                "start_time": 3.0090909,
                "end_time": 3.1931818,
                "pitch": 43,
                "velocity": 40,
                "duration": 0.1840909,
                "tempo": 120.0
            },
            {
                "start_time": 3.2090909,
                "end_time": 3.3931818,
                "pitch": 36,
                "velocity": 40,
                "duration": 0.1840909,
                "tempo": 120.0
            },
            {
                "start_time": 3.4090909,
                "end_time": 3.5931818,
                "pitch": 43,
                "velocity": 40,
                "duration": 0.1840909,
                "tempo": 120.0
            },
            {
                "start_time": 3.6090909,
                "end_time": 3.7931818,
                "pitch": 42,
                "velocity": 40,
                "duration": 0.1840909,
                "tempo": 120.0
            },
            {
                "start_time": 3.8090909,
                "end_time": 3.9931818,
                "pitch": 43,
                "velocity": 40,
                "duration": 0.1840909,
                "tempo": 120.0
            },
            {
                "start_time": 4.0090909,
                "end_time": 4.1931818,
                "pitch": 36,
                "velocity": 40,
                "duration": 0.1840909,
                "tempo": 120.0
            },
            {
                "start_time": 4.2090909,
                "end_time": 4.3931818,
                "pitch": 43,
                "velocity": 40,
                "duration": 0.1840909,
                "tempo": 120.0
            },
            {
                "start_time": 4.4113636,
                "end_time": 4.5954545,
                "pitch": 45,
                "velocity": 40,
                "duration": 0.1840909,
                "tempo": 120.0
            },
            {
                "start_time": 4.6113636,
                "end_time": 4.7954545,
                "pitch": 43,
                "velocity": 40,
                "duration": 0.1840909,
                "tempo": 120.0
            },
            {
                "start_time": 4.8113636,
                "end_time": 4.9954545,
                "pitch": 36,
                "velocity": 40,
                "duration": 0.1840909,
                "tempo": 120.0
            },
            {
                "start_time": 5.0113636,
                "end_time": 5.1954545,
                "pitch": 43,
                "velocity": 40,
                "duration": 0.1840909,
                "tempo": 120.0
            },
            {
                "start_time": 5.2136364,
                "end_time": 5.3977273,
                "pitch": 42,
                "velocity": 40,
                "duration": 0.1840909,
                "tempo": 120.0
            },
            {
                "start_time": 5.4136364,
                "end_time": 5.6,
                "pitch": 43,
                "velocity": 40,
                "duration": 0.1863636,
                "tempo": 120.0
            },
            {
                "start_time": 5.6159091,
                "end_time": 5.8,
                "pitch": 36,
                "velocity": 40,
                "duration": 0.1840909,
                "tempo": 120.0
            },
            {
                "start_time": 5.8181818,
                "end_time": 6.0,
                "pitch": 43,
                "velocity": 40,
                "duration": 0.1818182,
                "tempo": 120.0
            },
            {
                "start_time": 6.0181818,
                "end_time": 6.2,
                "pitch": 42,
                "velocity": 40,
                "duration": 0.1818182,
                "tempo": 120.0
            },
            {
                "start_time": 6.2181818,
                "end_time": 6.4022727,
                "pitch": 41,
                "velocity": 40,
                "duration": 0.1840909,
                "tempo": 120.0
            },
            {
                "start_time": 6.4181818,
                "end_time": 6.6022727,
                "pitch": 31,
                "velocity": 40,
                "duration": 0.1840909,
                "tempo": 120.0
            },
            {
                "start_time": 6.6204545,
                "end_time": 6.8022727,
                "pitch": 38,
                "velocity": 40,
                "duration": 0.1818182,
                "tempo": 120.0
            },
            {
                "start_time": 6.8204545,
                "end_time": 7.0022727,
                "pitch": 37,
                "velocity": 40,
                "duration": 0.1818182,
                "tempo": 120.0
            },
            {
                "start_time": 7.0204545,
                "end_time": 7.2045455,
                "pitch": 38,
                "velocity": 40,
                "duration": 0.1840909,
                "tempo": 120.0
            },
            {
                "start_time": 7.2204545,
                "end_time": 7.4068182,
                "pitch": 31,
                "velocity": 40,
                "duration": 0.1863636,
                "tempo": 120.0
            },
            {
                "start_time": 7.4227273,
                "end_time": 7.6068182,
                "pitch": 38,
                "velocity": 40,
                "duration": 0.1840909,
                "tempo": 120.0
            },
            {
                "start_time": 7.625,
                "end_time": 7.8090909,
                "pitch": 40,
                "velocity": 40,
                "duration": 0.1840909,
                "tempo": 120.0
            },
            {
                "start_time": 7.825,
                "end_time": 8.0090909,
                "pitch": 38,
                "velocity": 40,
                "duration": 0.1840909,
                "tempo": 120.0
            },
            {
                "start_time": 8.025,
                "end_time": 8.2090909,
                "pitch": 31,
                "velocity": 40,
                "duration": 0.1840909,
                "tempo": 120.0
            },
            {
                "start_time": 8.225,
                "end_time": 8.4090909,
                "pitch": 38,
                "velocity": 40,
                "duration": 0.1840909,
                "tempo": 120.0
            },
            {
                "start_time": 8.425,
                "end_time": 8.6090909,
                "pitch": 37,
                "velocity": 40,
                "duration": 0.1840909,
                "tempo": 120.0
            },
            {
                "start_time": 8.625,
                "end_time": 8.8090909,
                "pitch": 38,
                "velocity": 40,
                "duration": 0.1840909,
                "tempo": 120.0
            },
            {
                "start_time": 8.8272727,
                "end_time": 9.0113636,
                "pitch": 31,
                "velocity": 40,
                "duration": 0.1840909,
                "tempo": 120.0
            },
            {
                "start_time": 9.0272727,
                "end_time": 9.2136364,
                "pitch": 38,
                "velocity": 40,
                "duration": 0.1863636,
                "tempo": 120.0
            },
            {
                "start_time": 9.2295455,
                "end_time": 9.4136364,
                "pitch": 40,
                "velocity": 40,
                "duration": 0.1840909,
                "tempo": 120.0
            },
            {
                "start_time": 9.4318182,
                "end_time": 9.6159091,
                "pitch": 38,
                "velocity": 40,
                "duration": 0.1840909,
                "tempo": 120.0
            },
            {
                "start_time": 9.6318182,
                "end_time": 9.8159091,
                "pitch": 31,
                "velocity": 40,
                "duration": 0.1840909,
                "tempo": 120.0
            },
            {
                "start_time": 9.8340909,
                "end_time": 10.0181818,
                "pitch": 38,
                "velocity": 40,
                "duration": 0.1840909,
                "tempo": 120.0
            },
            {
                "start_time": 10.0340909,
                "end_time": 10.2181818,
                "pitch": 37,
                "velocity": 40,
                "duration": 0.1840909,
                "tempo": 120.0
            },
            {
                "start_time": 10.2363636,
                "end_time": 10.4204545,
                "pitch": 38,
                "velocity": 40,
                "duration": 0.1840909,
                "tempo": 120.0
            },
            {
                "start_time": 10.4363636,
                "end_time": 10.6204545,
                "pitch": 31,
                "velocity": 40,
                "duration": 0.1840909,
                "tempo": 120.0
            },
            {
                "start_time": 10.6363636,
                "end_time": 10.8204545,
                "pitch": 38,
                "velocity": 40,
                "duration": 0.1840909,
                "tempo": 120.0
            },
            {
                "start_time": 10.8363636,
                "end_time": 11.0227273,
                "pitch": 40,
                "velocity": 40,
                "duration": 0.1863636,
                "tempo": 120.0
            },
            {
                "start_time": 11.0386364,
                "end_time": 11.2227273,
                "pitch": 38,
                "velocity": 40,
                "duration": 0.1840909,
                "tempo": 120.0
            },
            {
                "start_time": 11.2409091,
                "end_time": 11.425,
                "pitch": 31,
                "velocity": 40,
                "duration": 0.1840909,
                "tempo": 120.0
            },
            {
                "start_time": 11.4409091,
                "end_time": 11.625,
                "pitch": 38,
                "velocity": 40,
                "duration": 0.1840909,
                "tempo": 120.0
            },
            {
                "start_time": 11.6431818,
                "end_time": 11.8272727,
                "pitch": 37,
                "velocity": 40,
                "duration": 0.1840909,
                "tempo": 120.0
            },
            {
                "start_time": 11.8431818,
                "end_time": 12.0295455,
                "pitch": 38,
                "velocity": 40,
                "duration": 0.1863636,
                "tempo": 120.0
            },
            {
                "start_time": 12.0454545,
                "end_time": 12.2295455,
                "pitch": 31,
                "velocity": 40,
                "duration": 0.1840909,
                "tempo": 120.0
            },
            {
                "start_time": 12.2477273,
                "end_time": 12.4295455,
                "pitch": 33,
                "velocity": 40,
                "duration": 0.1818182,
                "tempo": 120.0
            },
            {
                "start_time": 12.4477273,
                "end_time": 12.6295455,
                "pitch": 34,
                "velocity": 40,
                "duration": 0.1818182,
                "tempo": 120.0
            },
            {
                "start_time": 12.6477273,
                "end_time": 12.8318182,
                "pitch": 35,
                "velocity": 40,
                "duration": 0.1840909,
                "tempo": 120.0
            },
            {
                "start_time": 12.8477273,
                "end_time": 13.0318182,
                "pitch": 36,
                "velocity": 40,
                "duration": 0.1840909,
                "tempo": 120.0
            },
            {
                "start_time": 13.05,
                "end_time": 13.2340909,
                "pitch": 43,
                "velocity": 40,
                "duration": 0.1840909,
                "tempo": 120.0
            },
            {
                "start_time": 13.25,
                "end_time": 13.4363636,
                "pitch": 42,
                "velocity": 40,
                "duration": 0.1863636,
                "tempo": 120.0
            },
            {
                "start_time": 13.4522727,
                "end_time": 13.6363636,
                "pitch": 43,
                "velocity": 40,
                "duration": 0.1840909,
                "tempo": 120.0
            },
            {
                "start_time": 13.6545455,
                "end_time": 13.8386364,
                "pitch": 36,
                "velocity": 40,
                "duration": 0.1840909,
                "tempo": 120.0
            },
            {
                "start_time": 13.8545455,
                "end_time": 14.0386364,
                "pitch": 43,
                "velocity": 40,
                "duration": 0.1840909,
                "tempo": 120.0
            },
            {
                "start_time": 14.0568182,
                "end_time": 14.2409091,
                "pitch": 45,
                "velocity": 40,
                "duration": 0.1840909,
                "tempo": 120.0
            },
            {
                "start_time": 14.2568182,
                "end_time": 14.4409091,
                "pitch": 43,
                "velocity": 40,
                "duration": 0.1840909,
                "tempo": 120.0
            },
            {
                "start_time": 14.4568182,
                "end_time": 14.6409091,
                "pitch": 36,
                "velocity": 40,
                "duration": 0.1840909,
                "tempo": 120.0
            },
            {
                "start_time": 14.6568182,
                "end_time": 14.8431818,
                "pitch": 43,
                "velocity": 40,
                "duration": 0.1863636,
                "tempo": 120.0
            },
            {
                "start_time": 14.8590909,
                "end_time": 15.0431818,
                "pitch": 42,
                "velocity": 40,
                "duration": 0.1840909,
                "tempo": 120.0
            },
            {
                "start_time": 15.0613636,
                "end_time": 15.2454545,
                "pitch": 43,
                "velocity": 40,
                "duration": 0.1840909,
                "tempo": 120.0
            },
            {
                "start_time": 15.2613636,
                "end_time": 15.4454545,
                "pitch": 36,
                "velocity": 40,
                "duration": 0.1840909,
                "tempo": 120.0
            },
            {
                "start_time": 15.4636364,
                "end_time": 15.6477273,
                "pitch": 43,
                "velocity": 40,
                "duration": 0.1840909,
                "tempo": 120.0
            },
            {
                "start_time": 15.6636364,
                "end_time": 15.8477273,
                "pitch": 45,
                "velocity": 40,
                "duration": 0.1840909,
                "tempo": 120.0
            },
            {
                "start_time": 15.8659091,
                "end_time": 16.05,
                "pitch": 43,
                "velocity": 40,
                "duration": 0.1840909,
                "tempo": 120.0
            },
            {
                "start_time": 16.0659091,
                "end_time": 16.2522727,
                "pitch": 36,
                "velocity": 40,
                "duration": 0.1863636,
                "tempo": 120.0
            },
            {
                "start_time": 16.2681818,
                "end_time": 16.4522727,
                "pitch": 43,
                "velocity": 40,
                "duration": 0.1840909,
                "tempo": 120.0
            },
            {
                "start_time": 16.4681818,
                "end_time": 16.6522727,
                "pitch": 42,
                "velocity": 40,
                "duration": 0.1840909,
                "tempo": 120.0
            },
            {
                "start_time": 16.6681818,
                "end_time": 16.8522727,
                "pitch": 43,
                "velocity": 40,
                "duration": 0.1840909,
                "tempo": 120.0
            },
            {
                "start_time": 16.8704545,
                "end_time": 17.0545455,
                "pitch": 36,
                "velocity": 40,
                "duration": 0.1840909,
                "tempo": 120.0
            },
            {
                "start_time": 17.0704545,
                "end_time": 17.2545455,
                "pitch": 43,
                "velocity": 40,
                "duration": 0.1840909,
                "tempo": 120.0
            },
            {
                "start_time": 17.2704545,
                "end_time": 17.4545455,
                "pitch": 45,
                "velocity": 40,
                "duration": 0.1840909,
                "tempo": 120.0
            },
            {
                "start_time": 17.4704545,
                "end_time": 17.6545455,
                "pitch": 43,
                "velocity": 40,
                "duration": 0.1840909,
                "tempo": 120.0
            },
            {
                "start_time": 17.6704545,
                "end_time": 17.8545455,
                "pitch": 36,
                "velocity": 40,
                "duration": 0.1840909,
                "tempo": 120.0
            },
            {
                "start_time": 17.8704545,
                "end_time": 18.0545455,
                "pitch": 43,
                "velocity": 40,
                "duration": 0.1840909,
                "tempo": 120.0
            },
            {
                "start_time": 18.0727273,
                "end_time": 18.2568182,
                "pitch": 42,
                "velocity": 40,
                "duration": 0.1840909,
                "tempo": 120.0
            },
            {
                "start_time": 18.2727273,
                "end_time": 18.4568182,
                "pitch": 43,
                "velocity": 40,
                "duration": 0.1840909,
                "tempo": 120.0
            },
            {
                "start_time": 18.4727273,
                "end_time": 18.6568182,
                "pitch": 36,
                "velocity": 40,
                "duration": 0.1840909,
                "tempo": 120.0
            },
            {
                "start_time": 18.6727273,
                "end_time": 18.8590909,
                "pitch": 43,
                "velocity": 40,
                "duration": 0.1863636,
                "tempo": 120.0
            },
            {
                "start_time": 18.875,
                "end_time": 19.0590909,
                "pitch": 42,
                "velocity": 40,
                "duration": 0.1840909,
                "tempo": 120.0
            },
            {
                "start_time": 19.0772727,
                "end_time": 19.2590909,
                "pitch": 41,
                "velocity": 40,
                "duration": 0.1818182,
                "tempo": 120.0
            },
            {
                "start_time": 19.2772727,
                "end_time": 19.4590909,
                "pitch": 31,
                "velocity": 40,
                "duration": 0.1818182,
                "tempo": 120.0
            },
            {
                "start_time": 19.4772727,
                "end_time": 19.6590909,
                "pitch": 38,
                "velocity": 40,
                "duration": 0.1818182,
                "tempo": 120.0
            },
            {
                "start_time": 19.6772727,
                "end_time": 19.8590909,
                "pitch": 37,
                "velocity": 40,
                "duration": 0.1818182,
                "tempo": 120.0
            },
            {
                "start_time": 19.8772727,
                "end_time": 20.0613636,
                "pitch": 38,
                "velocity": 40,
                "duration": 0.1840909,
                "tempo": 120.0
            },
            {
                "start_time": 20.0772727,
                "end_time": 20.2613636,
                "pitch": 31,
                "velocity": 40,
                "duration": 0.1840909,
                "tempo": 120.0
            },
            {
                "start_time": 20.2795455,
                "end_time": 20.4613636,
                "pitch": 38,
                "velocity": 40,
                "duration": 0.1818182,
                "tempo": 120.0
            },
            {
                "start_time": 20.4795455,
                "end_time": 20.6613636,
                "pitch": 40,
                "velocity": 40,
                "duration": 0.1818182,
                "tempo": 120.0
            },
            {
                "start_time": 20.6795455,
                "end_time": 20.8636364,
                "pitch": 38,
                "velocity": 40,
                "duration": 0.1840909,
                "tempo": 120.0
            },
            {
                "start_time": 20.8795455,
                "end_time": 21.0659091,
                "pitch": 31,
                "velocity": 40,
                "duration": 0.1863636,
                "tempo": 120.0
            },
            {
                "start_time": 21.0818182,
                "end_time": 21.2659091,
                "pitch": 38,
                "velocity": 40,
                "duration": 0.1840909,
                "tempo": 120.0
            },
            {
                "start_time": 21.2818182,
                "end_time": 21.4659091,
                "pitch": 37,
                "velocity": 40,
                "duration": 0.1840909,
                "tempo": 120.0
            },
            {
                "start_time": 21.4818182,
                "end_time": 21.6659091,
                "pitch": 38,
                "velocity": 40,
                "duration": 0.1840909,
                "tempo": 120.0
            },
            {
                "start_time": 21.6818182,
                "end_time": 21.8659091,
                "pitch": 31,
                "velocity": 40,
                "duration": 0.1840909,
                "tempo": 120.0
            },
            {
                "start_time": 21.8818182,
                "end_time": 22.0659091,
                "pitch": 38,
                "velocity": 40,
                "duration": 0.1840909,
                "tempo": 120.0
            },
            {
                "start_time": 22.0840909,
                "end_time": 22.2681818,
                "pitch": 40,
                "velocity": 40,
                "duration": 0.1840909,
                "tempo": 120.0
            },
            {
                "start_time": 22.2840909,
                "end_time": 22.4681818,
                "pitch": 38,
                "velocity": 40,
                "duration": 0.1840909,
                "tempo": 120.0
            },
            {
                "start_time": 22.4840909,
                "end_time": 22.6681818,
                "pitch": 31,
                "velocity": 40,
                "duration": 0.1840909,
                "tempo": 120.0
            },
            {
                "start_time": 22.6840909,
                "end_time": 22.8681818,
                "pitch": 38,
                "velocity": 40,
                "duration": 0.1840909,
                "tempo": 120.0
            },
            {
                "start_time": 22.8863636,
                "end_time": 23.0704545,
                "pitch": 37,
                "velocity": 40,
                "duration": 0.1840909,
                "tempo": 120.0
            },
            {
                "start_time": 23.0863636,
                "end_time": 23.2704545,
                "pitch": 38,
                "velocity": 40,
                "duration": 0.1840909,
                "tempo": 120.0
            },
            {
                "start_time": 23.2863636,
                "end_time": 23.4704545,
                "pitch": 31,
                "velocity": 40,
                "duration": 0.1840909,
                "tempo": 120.0
            },
            {
                "start_time": 23.4863636,
                "end_time": 23.6704545,
                "pitch": 38,
                "velocity": 40,
                "duration": 0.1840909,
                "tempo": 120.0
            },
            {
                "start_time": 23.6863636,
                "end_time": 23.8704545,
                "pitch": 40,
                "velocity": 40,
                "duration": 0.1840909,
                "tempo": 120.0
            },
            {
                "start_time": 23.8863636,
                "end_time": 24.0727273,
                "pitch": 38,
                "velocity": 40,
                "duration": 0.1863636,
                "tempo": 120.0
            },
            {
                "start_time": 24.0886364,
                "end_time": 24.2727273,
                "pitch": 31,
                "velocity": 40,
                "duration": 0.1840909,
                "tempo": 120.0
            },
            {
                "start_time": 24.2886364,
                "end_time": 24.4727273,
                "pitch": 38,
                "velocity": 40,
                "duration": 0.1840909,
                "tempo": 120.0
            },
            {
                "start_time": 24.4886364,
                "end_time": 24.6727273,
                "pitch": 37,
                "velocity": 40,
                "duration": 0.1840909,
                "tempo": 120.0
            },
            {
                "start_time": 24.6909091,
                "end_time": 24.875,
                "pitch": 38,
                "velocity": 40,
                "duration": 0.1840909,
                "tempo": 120.0
            },
            {
                "start_time": 24.8909091,
                "end_time": 25.075,
                "pitch": 31,
                "velocity": 40,
                "duration": 0.1840909,
                "tempo": 120.0
            },
            {
                "start_time": 25.0931818,
                "end_time": 25.275,
                "pitch": 33,
                "velocity": 40,
                "duration": 0.1818182,
                "tempo": 120.0
            },
            {
                "start_time": 25.2931818,
                "end_time": 25.475,
                "pitch": 34,
                "velocity": 40,
                "duration": 0.1818182,
                "tempo": 120.0
            },
            {
                "start_time": 25.4931818,
                "end_time": 25.675,
                "pitch": 35,
                "velocity": 40,
                "duration": 0.1818182,
                "tempo": 120.0
            },
            {
                "start_time": 25.6931818,
                "end_time": 25.875,
                "pitch": 32,
                "velocity": 40,
                "duration": 0.1818182,
                "tempo": 120.0
            },
            {
                "start_time": 25.8931818,
                "end_time": 26.2863636,
                "pitch": 32,
                "velocity": 40,
                "duration": 0.3931818,
                "tempo": 120.0
            },
            {
                "start_time": 26.3022727,
                "end_time": 26.4818182,
                "pitch": 33,
                "velocity": 40,
                "duration": 0.1795455,
                "tempo": 120.0
            },
            {
                "start_time": 26.5,
                "end_time": 26.8795455,
                "pitch": 33,
                "velocity": 40,
                "duration": 0.3795455,
                "tempo": 120.0
            },
            {
                "start_time": 26.8977273,
                "end_time": 27.0818182,
                "pitch": 32,
                "velocity": 40,
                "duration": 0.1840909,
                "tempo": 120.0
            },
            {
                "start_time": 27.0977273,
                "end_time": 27.4818182,
                "pitch": 32,
                "velocity": 40,
                "duration": 0.3840909,
                "tempo": 120.0
            },
            {
                "start_time": 27.4977273,
                "end_time": 27.6818182,
                "pitch": 31,
                "velocity": 40,
                "duration": 0.1840909,
                "tempo": 120.0
            },
            {
                "start_time": 27.6977273,
                "end_time": 28.2840909,
                "pitch": 31,
                "velocity": 40,
                "duration": 0.5863636,
                "tempo": 120.0
            },
            {
                "start_time": 28.3,
                "end_time": 28.4840909,
                "pitch": 31,
                "velocity": 40,
                "duration": 0.1840909,
                "tempo": 120.0
            },
            {
                "start_time": 28.5,
                "end_time": 28.6840909,
                "pitch": 32,
                "velocity": 40,
                "duration": 0.1840909,
                "tempo": 120.0
            },
            {
                "start_time": 28.7,
                "end_time": 28.8863636,
                "pitch": 31,
                "velocity": 40,
                "duration": 0.1863636,
                "tempo": 120.0
            },
            {
                "start_time": 28.9022727,
                "end_time": 29.0863636,
                "pitch": 32,
                "velocity": 40,
                "duration": 0.1840909,
                "tempo": 120.0
            },
            {
                "start_time": 29.1022727,
                "end_time": 29.4863636,
                "pitch": 32,
                "velocity": 40,
                "duration": 0.3840909,
                "tempo": 120.0
            },
            {
                "start_time": 29.5022727,
                "end_time": 29.6863636,
                "pitch": 33,
                "velocity": 40,
                "duration": 0.1840909,
                "tempo": 120.0
            },
            {
                "start_time": 29.7022727,
                "end_time": 30.0886364,
                "pitch": 33,
                "velocity": 40,
                "duration": 0.3863636,
                "tempo": 120.0
            },
            {
                "start_time": 30.1045455,
                "end_time": 30.2886364,
                "pitch": 32,
                "velocity": 40,
                "duration": 0.1840909,
                "tempo": 120.0
            },
            {
                "start_time": 30.3068182,
                "end_time": 30.6886364,
                "pitch": 32,
                "velocity": 40,
                "duration": 0.3818182,
                "tempo": 120.0
            },
            {
                "start_time": 30.7068182,
                "end_time": 30.8909091,
                "pitch": 31,
                "velocity": 40,
                "duration": 0.1840909,
                "tempo": 120.0
            },
            {
                "start_time": 30.9068182,
                "end_time": 31.4909091,
                "pitch": 31,
                "velocity": 40,
                "duration": 0.5840909,
                "tempo": 120.0
            },
            {
                "start_time": 31.5090909,
                "end_time": 31.6909091,
                "pitch": 31,
                "velocity": 40,
                "duration": 0.1818182,
                "tempo": 120.0
            },
            {
                "start_time": 31.7090909,
                "end_time": 31.8909091,
                "pitch": 32,
                "velocity": 40,
                "duration": 0.1818182,
                "tempo": 120.0
            },
            {
                "start_time": 31.9090909,
                "end_time": 32.0931818,
                "pitch": 31,
                "velocity": 40,
                "duration": 0.1840909,
                "tempo": 120.0
            },
            {
                "start_time": 32.1090909,
                "end_time": 32.4909091,
                "pitch": 31,
                "velocity": 40,
                "duration": 0.3818182,
                "tempo": 120.0
            },
            {
                "start_time": 33.3068182,
                "end_time": 33.6886364,
                "pitch": 43,
                "velocity": 40,
                "duration": 0.3818182,
                "tempo": 120.0
            },
            {
                "start_time": 33.7068182,
                "end_time": 33.8386364,
                "pitch": 36,
                "velocity": 40,
                "duration": 0.1318182,
                "tempo": 120.0
            }
        ]
    }
}