{
    "mood": "happy",
    "instruments": {
        "Vibraphone": [
            {
                "start_time": 0.0,
                "end_time": 0.5840909,
                "pitch": 69,
                "velocity": 101,
                "duration": 0.5840909,
                "tempo": 120.0
            },
            {
                "start_time": 0.6,
                "end_time": 1.1840909,
                "pitch": 67,
                "velocity": 101,
                "duration": 0.5840909,
                "tempo": 120.0
            },
            {
                "start_time": 1.2,
                "end_time": 1.5840909,
                "pitch": 65,
                "velocity": 101,
                "duration": 0.3840909,
                "tempo": 120.0
            },
            {
                "start_time": 1.6,
                "end_time": 2.1863636,
                "pitch": 67,
                "velocity": 101,
                "duration": 0.5863636,
                "tempo": 120.0
            },
            {
                "start_time": 2.2022727,
                "end_time": 3.1863636,
                "pitch": 64,
                "velocity": 101,
                "duration": 0.9840909,
                "tempo": 120.0
            },
            {
                "start_time": 3.2022727,
                "end_time": 3.7886364,
                "pitch": 62,
                "velocity": 101,
                "duration": 0.5863636,
                "tempo": 120.0
            },
            {
                "start_time": 3.8045455,
                "end_time": 4.3886364,
                "pitch": 65,
                "velocity": 101,
                "duration": 0.5840909,
                "tempo": 120.0
            },
            {
                "start_time": 4.4045455,
                "end_time": 4.5909091,
                "pitch": 62,
                "velocity": 101,
                "duration": 0.1863636,
                "tempo": 120.0
            },
            {
                "start_time": 4.6068182,
                "end_time": 4.9909091,
                "pitch": 69,
                "velocity": 101,
                "duration": 0.3840909,
                "tempo": 120.0
            },
            {
                "start_time": 5.0090909,
                "end_time": 5.1909091,
                "pitch": 69,
                "velocity": 101,
                "duration": 0.1818182,
                "tempo": 120.0
            },
            {
                "start_time": 5.2090909,
                "end_time": 5.5931818,
                "pitch": 67,
                "velocity": 101,
                "duration": 0.3840909,
                "tempo": 120.0
            },
            {
                "start_time": 5.6113636,
                "end_time": 5.7931818,
                "pitch": 65,
                "velocity": 101,
                "duration": 0.1818182,
                "tempo": 120.0
            },
            {
                "start_time": 5.8113636,
                "end_time": 6.3977273,
                "pitch": 67,
                "velocity": 101,
                "duration": 0.5863636,
                "tempo": 120.0
            },
            {
                "start_time": 6.4136364,
                "end_time": 7.0,
                "pitch": 69,
                "velocity": 101,
                "duration": 0.5863636,
                "tempo": 120.0
            },
            {
                "start_time": 7.0159091,
                "end_time": 7.6022727,
                "pitch": 67,
                "velocity": 101,
                "duration": 0.5863636,
                "tempo": 120.0
            },
            {
                "start_time": 7.6181818,
                "end_time": 8.0022727,
                "pitch": 65,
                "velocity": 101,
                "duration": 0.3840909,
                "tempo": 120.0
            },
            {
                "start_time": 8.0181818,
                "end_time": 8.6068182,
                "pitch": 67,
                "velocity": 101,
                "duration": 0.5886364,
                "tempo": 120.0
            },
            {
                "start_time": 8.6227273,
                "end_time": 9.8113636,
                "pitch": 64,
                "velocity": 101,
                "duration": 1.1886364,
                "tempo": 120.0
            },
            {
                "start_time": 9.8272727,
                "end_time": 10.0136364,
                "pitch": 60,
                "velocity": 101,
                "duration": 0.1863636,
                "tempo": 120.0
            },
            {
                "start_time": 10.0295455,
                "end_time": 10.2136364,
                "pitch": 62,
                "velocity": 101,
                "duration": 0.1840909,
                "tempo": 120.0
            },
            {
                "start_time": 10.2318182,
                "end_time": 10.4159091,
                "pitch": 65,
                "velocity": 101,
                "duration": 0.1840909,
                "tempo": 120.0
            },
            {
                "start_time": 10.4318182,
                "end_time": 10.8181818,
                "pitch": 67,
                "velocity": 101,
                "duration": 0.3863636,
                "tempo": 120.0
            },
            {
                "start_time": 10.8340909,
                "end_time": 11.0204545,
                "pitch": 65,
                "velocity": 101,
                "duration": 0.1863636,
                "tempo": 120.0
            },
            {
                "start_time": 11.0363636,
                "end_time": 11.4204545,
                "pitch": 70,
                "velocity": 101,
                "duration": 0.3840909,
                "tempo": 120.0
            },
            {
                "start_time": 11.4386364,
                "end_time": 11.6204545,
                "pitch": 70,
                "velocity": 101,
                "duration": 0.1818182,
                "tempo": 120.0
            },
            {
                "start_time": 11.6386364,
                "end_time": 12.0227273,
                "pitch": 69,
                "velocity": 101,
                "duration": 0.3840909,
                "tempo": 120.0
            },
            {
                "start_time": 12.0409091,
                "end_time": 12.4272727,
                "pitch": 67,
                "velocity": 101,
                "duration": 0.3863636,
                "tempo": 120.0
            },
            {
                "start_time": 12.4431818,
                "end_time": 12.8295455,
                "pitch": 65,
                "velocity": 101,
                "duration": 0.3863636,
                "tempo": 120.0
            }
        ],
        "Church Organ": [
            {
                "start_time": 0.0,
                "end_time": 0.5840909,
                "pitch": 41,
                "velocity": 51,
                "duration": 0.5840909,
                "tempo": 120.0
            },
            {
                "start_time": 0.6,
                "end_time": 0.9840909,
                "pitch": 41,
                "velocity": 51,
                "duration": 0.3840909,
                "tempo": 120.0
            },
            {
                "start_time": 1.0,
                "end_time": 1.1840909,
                "pitch": 36,
                "velocity": 51,
                "duration": 0.1840909,
                "tempo": 120.0
            },
            {
                "start_time": 1.2,
                "end_time": 1.5840909,
                "pitch": 41,
                "velocity": 51,
                "duration": 0.3840909,
                "tempo": 120.0
            },
            {
                "start_time": 1.6,
                "end_time": 2.1863636,
                "pitch": 36,
                "velocity": 51,
                "duration": 0.5863636,
                "tempo": 120.0
            },
            {
                "start_time": 2.2022727,
                "end_time": 2.5863636,
                "pitch": 36,
                "velocity": 51,
                "duration": 0.3840909,
                "tempo": 120.0
            },
            {
                "start_time": 2.6022727,
                "end_time": 2.7863636,
                "pitch": 43,
                "velocity": 51,
                "duration": 0.1840909,
                "tempo": 120.0
            },
            {
                "start_time": 2.8022727,
                "end_time": 2.9863636,
                "pitch": 41,
                "velocity": 51,
                "duration": 0.1840909,
                "tempo": 120.0
            },
            {
                "start_time": 3.0022727,
                "end_time": 3.1863636,
                "pitch": 40,
                "velocity": 51,
                "duration": 0.1840909,
                "tempo": 120.0
            },
            {
                "start_time": 3.2022727,
                "end_time": 3.7886364,
                "pitch": 34,
                "velocity": 51,
                "duration": 0.5863636,
                "tempo": 120.0
            },
            {
                "start_time": 3.8045455,
                "end_time": 4.1886364,
                "pitch": 34,
                "velocity": 51,
                "duration": 0.3840909,
                "tempo": 120.0
            },
            {
                "start_time": 4.2045455,
                "end_time": 4.3886364,
                "pitch": 34,
                "velocity": 51,
                "duration": 0.1840909,
                "tempo": 120.0
            },
            {
                "start_time": 4.4045455,
                "end_time": 4.5909091,
                "pitch": 34,
                "velocity": 51,
                "duration": 0.1863636,
                "tempo": 120.0
            },
            {
                "start_time": 4.6068182,
                "end_time": 4.9909091,
                "pitch": 41,
                "velocity": 51,
                "duration": 0.3840909,
                "tempo": 120.0
            },
            {
                "start_time": 5.0090909,
                "end_time": 5.1909091,
                "pitch": 41,
                "velocity": 51,
                "duration": 0.1818182,
                "tempo": 120.0
            },
            {
                "start_time": 5.2090909,
                "end_time": 5.5931818,
                "pitch": 41,
                "velocity": 51,
                "duration": 0.3840909,
                "tempo": 120.0
            },
            {
                "start_time": 5.6113636,
                "end_time": 5.7931818,
                "pitch": 36,
                "velocity": 51,
                "duration": 0.1818182,
                "tempo": 120.0
            },
            {
                "start_time": 5.8113636,
                "end_time": 6.3977273,
                "pitch": 41,
                "velocity": 51,
                "duration": 0.5863636,
                "tempo": 120.0
            },
            {
                "start_time": 6.4136364,
                "end_time": 7.0,
                "pitch": 41,
                "velocity": 51,
                "duration": 0.5863636,
                "tempo": 120.0
            },
            {
                "start_time": 7.0159091,
                "end_time": 7.4,
                "pitch": 41,
                "velocity": 51,
                "duration": 0.3840909,
                "tempo": 120.0
            },
            {
                "start_time": 7.4181818,
                "end_time": 7.6022727,
                "pitch": 36,
                "velocity": 51,
                "duration": 0.1840909,
                "tempo": 120.0
            },
            {
                "start_time": 7.6181818,
                "end_time": 8.0022727,
                "pitch": 41,
                "velocity": 51,
                "duration": 0.3840909,
                "tempo": 120.0
            },
            {
                "start_time": 8.0181818,
                "end_time": 8.6068182,
                "pitch": 36,
                "velocity": 51,
                "duration": 0.5886364,
                "tempo": 120.0
            },
            {
                "start_time": 8.6227273,
                "end_time": 9.0090909,
                "pitch": 36,
                "velocity": 51,
                "duration": 0.3863636,
                "tempo": 120.0
            },
            {
                "start_time": 9.025,
                "end_time": 9.2090909,
                "pitch": 43,
                "velocity": 51,
                "duration": 0.1840909,
                "tempo": 120.0
            },
            {
                "start_time": 9.2272727,
                "end_time": 9.4090909,
                "pitch": 41,
                "velocity": 51,
                "duration": 0.1818182,
                "tempo": 120.0
            },
            {
                "start_time": 9.4272727,
                "end_time": 9.6090909,
                "pitch": 40,
                "velocity": 51,
                "duration": 0.1818182,
                "tempo": 120.0
            },
            {
                "start_time": 9.6272727,
                "end_time": 10.2136364,
                "pitch": 34,
                "velocity": 51,
                "duration": 0.5863636,
                "tempo": 120.0
            },
            {
                "start_time": 10.2318182,
                "end_time": 10.6159091,
                "pitch": 34,
                "velocity": 51,
                "duration": 0.3840909,
                "tempo": 120.0
            },
            {
                "start_time": 10.6340909,
                "end_time": 10.8181818,
                "pitch": 34,
                "velocity": 51,
                "duration": 0.1840909,
                "tempo": 120.0
            },
            {
                "start_time": 10.8340909,
                "end_time": 11.0204545,
                "pitch": 34,
                "velocity": 51,
                "duration": 0.1863636,
                "tempo": 120.0
            },
            {
                "start_time": 11.0363636,
                "end_time": 11.4204545,
                "pitch": 41,
                "velocity": 51,
                "duration": 0.3840909,
                "tempo": 120.0
            },
            {
                "start_time": 11.4386364,
                "end_time": 11.6204545,
                "pitch": 41,
                "velocity": 51,
                "duration": 0.1818182,
                "tempo": 120.0
            },
            {
                "start_time": 11.6386364,
                "end_time": 12.0227273,
                "pitch": 41,
                "velocity": 51,
                "duration": 0.3840909,
                "tempo": 120.0
            },
            {
                "start_time": 12.0409091,
                "end_time": 12.4272727,
                "pitch": 36,
                "velocity": 51,
                "duration": 0.3863636,
                "tempo": 120.0
            },
            {
                "start_time": 12.4431818,
                "end_time": 12.8295455,
                "pitch": 41,
                "velocity": 51,
                "duration": 0.3863636,
                "tempo": 120.0
            },
            {
                "start_time": 12.8454545,
                "end_time": 13.4318182,
                "pitch": 43,
                "velocity": 51,
                "duration": 0.5863636,
                "tempo": 120.0
            },
            {
                "start_time": 13.4477273,
                "end_time": 13.7340909,
                "pitch": 38,
                "velocity": 51,
                "duration": 0.2863636,
                "tempo": 120.0
            },
            {
                "start_time": 13.75,
                "end_time": 14.2386364,
                "pitch": 38,
                "velocity": 51,
                "duration": 0.4886364,
                "tempo": 120.0
            },
            {
                "start_time": 14.2545455,
                "end_time": 14.6363636,
                "pitch": 43,
                "velocity": 51,
                "duration": 0.3818182,
                "tempo": 120.0
            },
            {
                "start_time": 14.6522727,
                "end_time": 14.8363636,
                "pitch": 43,
                "velocity": 51,
                "duration": 0.1840909,
                "tempo": 120.0
            },
            {
                "start_time": 14.8545455,
                "end_time": 15.2386364,
                "pitch": 43,
                "velocity": 51,
                "duration": 0.3840909,
                "tempo": 120.0
            },
            {
                "start_time": 15.2568182,
                "end_time": 15.4454545,
                "pitch": 43,
                "velocity": 51,
                "duration": 0.1886364,
                "tempo": 120.0
            },
            {
                "start_time": 15.4613636,
                "end_time": 15.8477273,
                "pitch": 38,
                "velocity": 51,
                "duration": 0.3863636,
                "tempo": 120.0
            },
            {
                "start_time": 15.8636364,
                "end_time": 16.0431818,
                "pitch": 38,
                "velocity": 51,
                "duration": 0.1795455,
                "tempo": 120.0
            },
            {
                "start_time": 16.0590909,
                "end_time": 16.6454545,
                "pitch": 34,
                "velocity": 51,
                "duration": 0.5863636,
                "tempo": 120.0
            },
            {
                "start_time": 16.6613636,
                "end_time": 17.05,
                "pitch": 34,
                "velocity": 51,
                "duration": 0.3886364,
                "tempo": 120.0
            },
            {
                "start_time": 17.0681818,
                "end_time": 17.2568182,
                "pitch": 41,
                "velocity": 51,
                "duration": 0.1886364,
                "tempo": 120.0
            },
            {
                "start_time": 17.2727273,
                "end_time": 17.4522727,
                "pitch": 34,
                "velocity": 51,
                "duration": 0.1795455,
                "tempo": 120.0
            },
            {
                "start_time": 17.4681818,
                "end_time": 17.85,
                "pitch": 36,
                "velocity": 51,
                "duration": 0.3818182,
                "tempo": 120.0
            },
            {
                "start_time": 17.8659091,
                "end_time": 18.05,
                "pitch": 36,
                "velocity": 51,
                "duration": 0.1840909,
                "tempo": 120.0
            },
            {
                "start_time": 18.0681818,
                "end_time": 18.45,
                "pitch": 36,
                "velocity": 51,
                "duration": 0.3818182,
                "tempo": 120.0
            },
            {
                "start_time": 18.4681818,
                "end_time": 18.8613636,
                "pitch": 43,
                "velocity": 51,
                "duration": 0.3931818,
                "tempo": 120.0
            },
            {
                "start_time": 18.8772727,
                "end_time": 19.2545455,
                "pitch": 36,
                "velocity": 51,
                "duration": 0.3772727,
                "tempo": 120.0
            },
            {
                "start_time": 19.2704545,
                "end_time": 19.8545455,
                "pitch": 43,
                "velocity": 51,
                "duration": 0.5840909,
                "tempo": 120.0
            },
            {
                "start_time": 19.8727273,
                "end_time": 20.0568182,
                "pitch": 43,
                "velocity": 51,
                "duration": 0.1840909,
                "tempo": 120.0
            },
            {
                "start_time": 20.0727273,
                "end_time": 20.6636364,
                "pitch": 43,
                "velocity": 51,
                "duration": 0.5909091,
                "tempo": 120.0
            },
            {
                "start_time": 20.6795455,
                "end_time": 21.0613636,
                "pitch": 38,
                "velocity": 51,
                "duration": 0.3818182,
                "tempo": 120.0
            },
            {
                "start_time": 21.0772727,
                "end_time": 21.2613636,
                "pitch": 43,
                "velocity": 51,
                "duration": 0.1840909,
                "tempo": 120.0
            },
            {
                "start_time": 21.2795455,
                "end_time": 21.6613636,
                "pitch": 43,
                "velocity": 51,
                "duration": 0.3818182,
                "tempo": 120.0
            },
            {
                "start_time": 21.6795455,
                "end_time": 21.8659091,
                "pitch": 43,
                "velocity": 51,
                "duration": 0.1863636,
                "tempo": 120.0
            },
            {
                "start_time": 21.8840909,
                "end_time": 22.2681818,
                "pitch": 38,
                "velocity": 51,
                "duration": 0.3840909,
                "tempo": 120.0
            },
            {
                "start_time": 22.2863636,
                "end_time": 22.4659091,
                "pitch": 38,
                "velocity": 51,
                "duration": 0.1795455,
                "tempo": 120.0
            },
            {
                "start_time": 22.4818182,
                "end_time": 22.8659091,
                "pitch": 34,
                "velocity": 51,
                "duration": 0.3840909,
                "tempo": 120.0
            },
            {
                "start_time": 22.8818182,
                "end_time": 23.2681818,
                "pitch": 34,
                "velocity": 51,
                "duration": 0.3863636,
                "tempo": 120.0
            },
            {
                "start_time": 23.2840909,
                "end_time": 23.6772727,
                "pitch": 34,
                "velocity": 51,
                "duration": 0.3931818,
                "tempo": 120.0
            },
            {
                "start_time": 23.6954545,
                "end_time": 24.0704545,
                "pitch": 34,
                "velocity": 51,
                "duration": 0.375,
                "tempo": 120.0
            },
            {
                "start_time": 24.0863636,
                "end_time": 24.4704545,
                "pitch": 43,
                "velocity": 51,
                "duration": 0.3840909,
                "tempo": 120.0
            },
            {
                "start_time": 24.4863636,
                "end_time": 24.8704545,
                "pitch": 40,
                "velocity": 51,
                "duration": 0.3840909,
                "tempo": 120.0
            },
            {
                "start_time": 24.8863636,
                "end_time": 25.2727273,
                "pitch": 36,
                "velocity": 51,
                "duration": 0.3863636,
                "tempo": 120.0
            },
            {
                "start_time": 25.2909091,
                "end_time": 25.875,
                "pitch": 36,
                "velocity": 51,
                "duration": 0.5840909,
                "tempo": 120.0
            },
            {
                "start_time": 25.8909091,
                "end_time": 26.075,
                "pitch": 36,
                "velocity": 51,
                "duration": 0.1840909,
                "tempo": 120.0
            },
            {
                "start_time": 26.0931818,
                "end_time": 26.475,
                "pitch": 36,
                "velocity": 51,
                "duration": 0.3818182,
                "tempo": 120.0
            },
            {
                "start_time": 26.4931818,
                "end_time": 26.875,
                "pitch": 36,
                "velocity": 51,
                "duration": 0.3818182,
                "tempo": 120.0
            },
            {
                "start_time": 26.8931818,
                "end_time": 27.2795455,
                "pitch": 36,
                "velocity": 51,
                "duration": 0.3863636,
                "tempo": 120.0
            }
        ],
        "Acoustic Grand Piano": [
            {
                "start_time": 0.0,
                "end_time": 0.5840909,
                "pitch": 65,
                "velocity": 51,
                "duration": 0.5840909,
                "tempo": 120.0
            },
            {
                "start_time": 0.6,
                "end_time": 1.1840909,
                "pitch": 60,
                "velocity": 51,
                "duration": 0.5840909,
                "tempo": 120.0
            },
            {
                "start_time": 1.2,
                "end_time": 1.5840909,
                "pitch": 65,
                "velocity": 51,
                "duration": 0.3840909,
                "tempo": 120.0
            },
            {
                "start_time": 1.6,
                "end_time": 2.1863636,
                "pitch": 64,
                "velocity": 51,
                "duration": 0.5863636,
                "tempo": 120.0
            },
            {
                "start_time": 2.2022727,
                "end_time": 3.1863636,
                "pitch": 60,
                "velocity": 51,
                "duration": 0.9840909,
                "tempo": 120.0
            },
            {
                "start_time": 3.2022727,
                "end_time": 3.7886364,
                "pitch": 62,
                "velocity": 51,
                "duration": 0.5863636,
                "tempo": 120.0
            },
            {
                "start_time": 3.8045455,
                "end_time": 4.3886364,
                "pitch": 58,
                "velocity": 51,
                "duration": 0.5840909,
                "tempo": 120.0
            },
            {
                "start_time": 4.4045455,
                "end_time": 4.5909091,
                "pitch": 62,
                "velocity": 51,
                "duration": 0.1863636,
                "tempo": 120.0
            },
            {
                "start_time": 4.6068182,
                "end_time": 4.9909091,
                "pitch": 65,
                "velocity": 51,
                "duration": 0.3840909,
                "tempo": 120.0
            },
            {
                "start_time": 5.0090909,
                "end_time": 5.1909091,
                "pitch": 65,
                "velocity": 51,
                "duration": 0.1818182,
                "tempo": 120.0
            },
            {
                "start_time": 5.2090909,
                "end_time": 5.5931818,
                "pitch": 64,
                "velocity": 51,
                "duration": 0.3840909,
                "tempo": 120.0
            },
            {
                "start_time": 5.6113636,
                "end_time": 5.7931818,
                "pitch": 62,
                "velocity": 51,
                "duration": 0.1818182,
                "tempo": 120.0
            },
            {
                "start_time": 5.8113636,
                "end_time": 6.3977273,
                "pitch": 64,
                "velocity": 51,
                "duration": 0.5863636,
                "tempo": 120.0
            },
            {
                "start_time": 6.4136364,
                "end_time": 7.0,
                "pitch": 65,
                "velocity": 51,
                "duration": 0.5863636,
                "tempo": 120.0
            },
            {
                "start_time": 7.0159091,
                "end_time": 7.6022727,
                "pitch": 60,
                "velocity": 51,
                "duration": 0.5863636,
                "tempo": 120.0
            },
            {
                "start_time": 7.6181818,
                "end_time": 8.0022727,
                "pitch": 65,
                "velocity": 51,
                "duration": 0.3840909,
                "tempo": 120.0
            },
            {
                "start_time": 8.0181818,
                "end_time": 8.6068182,
                "pitch": 64,
                "velocity": 51,
                "duration": 0.5886364,
                "tempo": 120.0
            },
            {
                "start_time": 8.6227273,
                "end_time": 9.6090909,
                "pitch": 60,
                "velocity": 51,
                "duration": 0.9863636,
                "tempo": 120.0
            },
            {
                "start_time": 9.6272727,
                "end_time": 10.2136364,
                "pitch": 62,
                "velocity": 51,
                "duration": 0.5863636,
                "tempo": 120.0
            },
            {
                "start_time": 10.2318182,
                "end_time": 10.8181818,
                "pitch": 58,
                "velocity": 51,
                "duration": 0.5863636,
                "tempo": 120.0
            },
            {
                "start_time": 10.8340909,
                "end_time": 11.0204545,
                "pitch": 62,
                "velocity": 51,
                "duration": 0.1863636,
                "tempo": 120.0
            },
            {
                "start_time": 11.0363636,
                "end_time": 11.4204545,
                "pitch": 65,
                "velocity": 51,
                "duration": 0.3840909,
                "tempo": 120.0
            },
            {
                "start_time": 11.4386364,
                "end_time": 11.6204545,
                "pitch": 65,
                "velocity": 51,
                "duration": 0.1818182,
                "tempo": 120.0
            },
            {
                "start_time": 11.6386364,
                "end_time": 12.0227273,
                "pitch": 64,
                "velocity": 51,
                "duration": 0.3840909,
                "tempo": 120.0
            },
            {
                "start_time": 12.0409091,
                "end_time": 12.4272727,
                "pitch": 62,
                "velocity": 51,
                "duration": 0.3863636,
                "tempo": 120.0
            },
            {
                "start_time": 12.4431818,
                "end_time": 12.8295455,
                "pitch": 60,
                "velocity": 51,
                "duration": 0.3863636,
                "tempo": 120.0
            },
            {
                "start_time": 12.8454545,
                "end_time": 13.4318182,
                "pitch": 67,
                "velocity": 51,
                "duration": 0.5863636,
                "tempo": 120.0
            },
            {
                "start_time": 13.4477273,
                "end_time": 14.0409091,
                "pitch": 67,
                "velocity": 51,
                "duration": 0.5931818,
                "tempo": 120.0
            },
            {
                "start_time": 14.0590909,
                "end_time": 14.4340909,
                "pitch": 58,
                "velocity": 51,
                "duration": 0.375,
                "tempo": 120.0
            },
            {
                "start_time": 14.4522727,
                "end_time": 14.6363636,
                "pitch": 67,
                "velocity": 51,
                "duration": 0.1840909,
                "tempo": 120.0
            },
            {
                "start_time": 14.6522727,
                "end_time": 15.2386364,
                "pitch": 62,
                "velocity": 51,
                "duration": 0.5863636,
                "tempo": 120.0
            },
            {
                "start_time": 15.2568182,
                "end_time": 15.65,
                "pitch": 58,
                "velocity": 51,
                "duration": 0.3931818,
                "tempo": 120.0
            },
            {
                "start_time": 15.6681818,
                "end_time": 16.0431818,
                "pitch": 62,
                "velocity": 51,
                "duration": 0.375,
                "tempo": 120.0
            },
            {
                "start_time": 16.0590909,
                "end_time": 17.05,
                "pitch": 64,
                "velocity": 51,
                "duration": 0.9909091,
                "tempo": 120.0
            },
            {
                "start_time": 17.0681818,
                "end_time": 17.2568182,
                "pitch": 65,
                "velocity": 51,
                "duration": 0.1886364,
                "tempo": 120.0
            },
            {
                "start_time": 17.2727273,
                "end_time": 17.4522727,
                "pitch": 64,
                "velocity": 51,
                "duration": 0.1795455,
                "tempo": 120.0
            },
            {
                "start_time": 17.4681818,
                "end_time": 18.05,
                "pitch": 62,
                "velocity": 51,
                "duration": 0.5818182,
                "tempo": 120.0
            },
            {
                "start_time": 18.0681818,
                "end_time": 18.45,
                "pitch": 60,
                "velocity": 51,
                "duration": 0.3818182,
                "tempo": 120.0
            },
            {
                "start_time": 18.4681818,
                "end_time": 18.6568182,
                "pitch": 62,
                "velocity": 51,
                "duration": 0.1886364,
                "tempo": 120.0
            },
            {
                "start_time": 18.6727273,
                "end_time": 19.2545455,
                "pitch": 64,
                "velocity": 51,
                "duration": 0.5818182,
                "tempo": 120.0
            },
            {
                "start_time": 19.2704545,
                "end_time": 19.8545455,
                "pitch": 67,
                "velocity": 51,
                "duration": 0.5840909,
                "tempo": 120.0
            },
            {
                "start_time": 19.8727273,
                "end_time": 20.4659091,
                "pitch": 67,
                "velocity": 51,
                "duration": 0.5931818,
                "tempo": 120.0
            },
            {
                "start_time": 20.4840909,
                "end_time": 20.8590909,
                "pitch": 58,
                "velocity": 51,
                "duration": 0.375,
                "tempo": 120.0
            },
            {
                "start_time": 20.875,
                "end_time": 21.0613636,
                "pitch": 67,
                "velocity": 51,
                "duration": 0.1863636,
                "tempo": 120.0
            },
            {
                "start_time": 21.0772727,
                "end_time": 21.6613636,
                "pitch": 62,
                "velocity": 51,
                "duration": 0.5840909,
                "tempo": 120.0
            },
            {
                "start_time": 21.6795455,
                "end_time": 22.0727273,
                "pitch": 58,
                "velocity": 51,
                "duration": 0.3931818,
                "tempo": 120.0
            },
            {
                "start_time": 22.0886364,
                "end_time": 22.4659091,
                "pitch": 62,
                "velocity": 51,
                "duration": 0.3772727,
                "tempo": 120.0
            },
            {
                "start_time": 22.4818182,
                "end_time": 23.0659091,
                "pitch": 67,
                "velocity": 51,
                "duration": 0.5840909,
                "tempo": 120.0
            },
            {
                "start_time": 23.0840909,
                "end_time": 23.6772727,
                "pitch": 67,
                "velocity": 51,
                "duration": 0.5931818,
                "tempo": 120.0
            },
            {
                "start_time": 23.6954545,
                "end_time": 24.0704545,
                "pitch": 64,
                "velocity": 51,
                "duration": 0.375,
                "tempo": 120.0
            },
            {
                "start_time": 24.0863636,
                "end_time": 24.4704545,
                "pitch": 65,
                "velocity": 51,
                "duration": 0.3840909,
                "tempo": 120.0
            },
            {
                "start_time": 24.4863636,
                "end_time": 24.8704545,
                "pitch": 67,
                "velocity": 51,
                "duration": 0.3840909,
                "tempo": 120.0
            },
            {
                "start_time": 24.8863636,
                "end_time": 25.2727273,
                "pitch": 64,
                "velocity": 51,
                "duration": 0.3863636,
                "tempo": 120.0
            },
            {
                "start_time": 25.2909091,
                "end_time": 25.875,
                "pitch": 60,
                "velocity": 51,
                "duration": 0.5840909,
                "tempo": 120.0
            },
            {
                "start_time": 25.8909091,
                "end_time": 26.075,
                "pitch": 67,
                "velocity": 51,
                "duration": 0.1840909,
                "tempo": 120.0
            },
            {
                "start_time": 26.0931818,
                "end_time": 26.475,
                "pitch": 67,
                "velocity": 51,
                "duration": 0.3818182,
                "tempo": 120.0
            },
            {
                "start_time": 26.4931818,
                "end_time": 26.875,
                "pitch": 67,
                "velocity": 51,
                "duration": 0.3818182,
                "tempo": 120.0
            },
            {
                "start_time": 26.8931818,
                "end_time": 27.2795455,
                "pitch": 67,
                "velocity": 51,
                "duration": 0.3863636,
                "tempo": 120.0
            }
        ]
    }
}