{
    "mood": "happy",
    "instruments": {
        "Electric Guitar (clean)": [
            {
                "start_time": 0.0136364,
                "end_time": 0.2340909,
                "pitch": 34,
                "velocity": 64,
                "duration": 0.2204545,
                "tempo": 120.0
            },
            {
                "start_time": 0.2522727,
                "end_time": 0.4909091,
                "pitch": 46,
                "velocity": 64,
                "duration": 0.2386364,
                "tempo": 120.0
            },
            {
                "start_time": 0.5090909,
                "end_time": 0.725,
                "pitch": 34,
                "velocity": 64,
                "duration": 0.2159091,
                "tempo": 120.0
            },
            {
                "start_time": 0.7409091,
                "end_time": 0.8409091,
                "pitch": 41,
                "velocity": 64,
                "duration": 0.1,
                "tempo": 120.0
            },
            {
                "start_time": 0.8590909,
                "end_time": 0.9590909,
                "pitch": 43,
                "velocity": 64,
                "duration": 0.1,
                "tempo": 120.0
            },
            {
                "start_time": 0.9909091,
                "end_time": 1.2090909,
                "pitch": 34,
                "velocity": 64,
                "duration": 0.2181818,
                "tempo": 120.0
            },
            {
                "start_time": 1.225,
                "end_time": 1.4409091,
                "pitch": 46,
                "velocity": 64,
                "duration": 0.2159091,
                "tempo": 120.0
            },
            {
                "start_time": 1.4590909,
                "end_time": 1.6886364,
                "pitch": 34,
                "velocity": 64,
                "duration": 0.2295455,
                "tempo": 120.0
            },
            {
                "start_time": 1.7045455,
                "end_time": 1.8022727,
                "pitch": 41,
                "velocity": 64,
                "duration": 0.0977273,
                "tempo": 120.0
            },
            {
                "start_time": 1.8181818,
                "end_time": 1.9181818,
                "pitch": 43,
                "velocity": 64,
                "duration": 0.1,
                "tempo": 120.0
            },
            {
                "start_time": 1.9340909,
                "end_time": 2.15,
                "pitch": 34,
                "velocity": 64,
                "duration": 0.2159091,
                "tempo": 120.0
            },
            {
                "start_time": 2.1840909,
                "end_time": 2.4,
                "pitch": 46,
                "velocity": 64,
                "duration": 0.2159091,
                "tempo": 120.0
            },
            {
                "start_time": 2.4181818,
                "end_time": 2.6386364,
                "pitch": 32,
                "velocity": 64,
                "duration": 0.2204545,
                "tempo": 120.0
            },
            {
                "start_time": 2.6568182,
                "end_time": 2.8954545,
                "pitch": 44,
                "velocity": 64,
                "duration": 0.2386364,
                "tempo": 120.0
            },
            {
                "start_time": 2.9113636,
                "end_time": 3.1295455,
                "pitch": 31,
                "velocity": 64,
                "duration": 0.2181818,
                "tempo": 120.0
            },
            {
                "start_time": 3.1454545,
                "end_time": 3.3613636,
                "pitch": 43,
                "velocity": 64,
                "duration": 0.2159091,
                "tempo": 120.0
            },
            {
                "start_time": 3.3954545,
                "end_time": 3.6181818,
                "pitch": 29,
                "velocity": 64,
                "duration": 0.2227273,
                "tempo": 120.0
            },
            {
                "start_time": 3.6340909,
                "end_time": 3.8568182,
                "pitch": 41,
                "velocity": 64,
                "duration": 0.2227273,
                "tempo": 120.0
            },
            {
                "start_time": 3.8727273,
                "end_time": 4.0977273,
                "pitch": 32,
                "velocity": 64,
                "duration": 0.225,
                "tempo": 120.0
            },
            {
                "start_time": 4.1136364,
                "end_time": 4.3227273,
                "pitch": 44,
                "velocity": 64,
                "duration": 0.2090909,
                "tempo": 120.0
            },
            {
                "start_time": 4.3386364,
                "end_time": 4.5590909,
                "pitch": 32,
                "velocity": 64,
                "duration": 0.2204545,
                "tempo": 120.0
            },
            {
                "start_time": 4.5931818,
                "end_time": 4.8159091,
                "pitch": 44,
                "velocity": 64,
                "duration": 0.2227273,
                "tempo": 120.0
            },
            {
                "start_time": 4.8318182,
                "end_time": 5.0454545,
                "pitch": 32,
                "velocity": 64,
                "duration": 0.2136364,
                "tempo": 120.0
            },
            {
                "start_time": 5.0613636,
                "end_time": 5.2931818,
                "pitch": 44,
                "velocity": 64,
                "duration": 0.2318182,
                "tempo": 120.0
            },
            {
                "start_time": 5.3090909,
                "end_time": 5.5295455,
                "pitch": 32,
                "velocity": 64,
                "duration": 0.2204545,
                "tempo": 120.0
            },
            {
                "start_time": 5.5477273,
                "end_time": 5.7704545,
                "pitch": 44,
                "velocity": 64,
                "duration": 0.2227273,
                "tempo": 120.0
            },
            {
                "start_time": 5.8045455,
                "end_time": 6.0227273,
                "pitch": 32,
                "velocity": 64,
                "duration": 0.2181818,
                "tempo": 120.0
            },
            {
                "start_time": 6.0386364,
                "end_time": 6.2568182,
                "pitch": 44,
                "velocity": 64,
                "duration": 0.2181818,
                "tempo": 120.0
            },
            {
                "start_time": 6.275,
                "end_time": 6.5045455,
                "pitch": 32,
                "velocity": 64,
                "duration": 0.2295455,
                "tempo": 120.0
            },
            {
                "start_time": 6.5204545,
                "end_time": 6.7340909,
                "pitch": 44,
                "velocity": 64,
                "duration": 0.2136364,
                "tempo": 120.0
            },
            {
                "start_time": 6.75,
                "end_time": 6.9681818,
                "pitch": 32,
                "velocity": 64,
                "duration": 0.2181818,
                "tempo": 120.0
            },
            {
                "start_time": 7.0022727,
                "end_time": 7.2204545,
                "pitch": 44,
                "velocity": 64,
                "duration": 0.2181818,
                "tempo": 120.0
            },
            {
                "start_time": 7.2363636,
                "end_time": 7.4590909,
                "pitch": 39,
                "velocity": 64,
                "duration": 0.2227273,
                "tempo": 120.0
            },
            {
                "start_time": 7.475,
                "end_time": 7.7159091,
                "pitch": 51,
                "velocity": 64,
                "duration": 0.2409091,
                "tempo": 120.0
            },
            {
                "start_time": 7.7318182,
                "end_time": 7.95,
                "pitch": 34,
                "velocity": 64,
                "duration": 0.2181818,
                "tempo": 120.0
            },
            {
                "start_time": 7.9681818,
                "end_time": 8.1863636,
                "pitch": 46,
                "velocity": 64,
                "duration": 0.2181818,
                "tempo": 120.0
            },
            {
                "start_time": 8.2181818,
                "end_time": 8.4363636,
                "pitch": 34,
                "velocity": 64,
                "duration": 0.2181818,
                "tempo": 120.0
            },
            {
                "start_time": 8.4522727,
                "end_time": 8.5522727,
                "pitch": 41,
                "velocity": 64,
                "duration": 0.1,
                "tempo": 120.0
            },
            {
                "start_time": 8.5681818,
                "end_time": 8.6681818,
                "pitch": 43,
                "velocity": 64,
                "duration": 0.1,
                "tempo": 120.0
            },
            {
                "start_time": 8.6863636,
                "end_time": 8.9159091,
                "pitch": 34,
                "velocity": 64,
                "duration": 0.2295455,
                "tempo": 120.0
            },
            {
                "start_time": 8.9318182,
                "end_time": 9.1454545,
                "pitch": 46,
                "velocity": 64,
                "duration": 0.2136364,
                "tempo": 120.0
            },
            {
                "start_time": 9.1613636,
                "end_time": 9.3795455,
                "pitch": 34,
                "velocity": 64,
                "duration": 0.2181818,
                "tempo": 120.0
            },
            {
                "start_time": 9.4136364,
                "end_time": 9.5136364,
                "pitch": 41,
                "velocity": 64,
                "duration": 0.1,
                "tempo": 120.0
            },
            {
                "start_time": 9.5318182,
                "end_time": 9.6318182,
                "pitch": 43,
                "velocity": 64,
                "duration": 0.1,
                "tempo": 120.0
            },
            {
                "start_time": 9.6477273,
                "end_time": 9.8704545,
                "pitch": 34,
                "velocity": 64,
                "duration": 0.2227273,
                "tempo": 120.0
            },
            {
                "start_time": 9.8886364,
                "end_time": 10.1272727,
                "pitch": 46,
                "velocity": 64,
                "duration": 0.2386364,
                "tempo": 120.0
            },
            {
                "start_time": 10.1431818,
                "end_time": 10.3613636,
                "pitch": 32,
                "velocity": 64,
                "duration": 0.2181818,
                "tempo": 120.0
            },
            {
                "start_time": 10.3795455,
                "end_time": 10.5977273,
                "pitch": 44,
                "velocity": 64,
                "duration": 0.2181818,
                "tempo": 120.0
            },
            {
                "start_time": 10.6318182,
                "end_time": 10.85,
                "pitch": 31,
                "velocity": 64,
                "duration": 0.2181818,
                "tempo": 120.0
            },
            {
                "start_time": 10.8659091,
                "end_time": 11.0840909,
                "pitch": 43,
                "velocity": 64,
                "duration": 0.2181818,
                "tempo": 120.0
            },
            {
                "start_time": 11.1022727,
                "end_time": 11.3318182,
                "pitch": 29,
                "velocity": 64,
                "duration": 0.2295455,
                "tempo": 120.0
            },
            {
                "start_time": 11.3477273,
                "end_time": 11.5613636,
                "pitch": 41,
                "velocity": 64,
                "duration": 0.2136364,
                "tempo": 120.0
            },
            {
                "start_time": 11.5772727,
                "end_time": 11.7931818,
                "pitch": 32,
                "velocity": 64,
                "duration": 0.2159091,
                "tempo": 120.0
            },
            {
                "start_time": 11.8272727,
                "end_time": 12.0431818,
                "pitch": 44,
                "velocity": 64,
                "duration": 0.2159091,
                "tempo": 120.0
            },
            {
                "start_time": 12.0613636,
                "end_time": 12.2818182,
                "pitch": 32,
                "velocity": 64,
                "duration": 0.2204545,
                "tempo": 120.0
            },
            {
                "start_time": 12.3,
                "end_time": 12.5386364,
                "pitch": 44,
                "velocity": 64,
                "duration": 0.2386364,
                "tempo": 120.0
            },
            {
                "start_time": 12.5545455,
                "end_time": 12.775,
                "pitch": 32,
                "velocity": 64,
                "duration": 0.2204545,
                "tempo": 120.0
            },
            {
                "start_time": 12.7909091,
                "end_time": 13.0090909,
                "pitch": 44,
                "velocity": 64,
                "duration": 0.2181818,
                "tempo": 120.0
            },
            {
                "start_time": 13.0431818,
                "end_time": 13.2613636,
                "pitch": 32,
                "velocity": 64,
                "duration": 0.2181818,
                "tempo": 120.0
            },
            {
                "start_time": 13.2772727,
                "end_time": 13.4954545,
                "pitch": 44,
                "velocity": 64,
                "duration": 0.2181818,
                "tempo": 120.0
            },
            {
                "start_time": 13.5136364,
                "end_time": 13.7431818,
                "pitch": 32,
                "velocity": 64,
                "duration": 0.2295455,
                "tempo": 120.0
            },
            {
                "start_time": 13.7590909,
                "end_time": 13.9727273,
                "pitch": 44,
                "velocity": 64,
                "duration": 0.2136364,
                "tempo": 120.0
            },
            {
                "start_time": 13.9886364,
                "end_time": 14.2113636,
                "pitch": 32,
                "velocity": 64,
                "duration": 0.2227273,
                "tempo": 120.0
            },
            {
                "start_time": 14.2454545,
                "end_time": 14.4659091,
                "pitch": 44,
                "velocity": 64,
                "duration": 0.2204545,
                "tempo": 120.0
            },
            {
                "start_time": 14.4840909,
                "end_time": 14.6977273,
                "pitch": 32,
                "velocity": 64,
                "duration": 0.2136364,
                "tempo": 120.0
            },
            {
                "start_time": 14.7136364,
                "end_time": 14.9431818,
                "pitch": 44,
                "velocity": 64,
                "duration": 0.2295455,
                "tempo": 120.0
            },
            {
                "start_time": 14.9590909,
                "end_time": 15.1818182,
                "pitch": 39,
                "velocity": 64,
                "duration": 0.2227273,
                "tempo": 120.0
            },
            {
                "start_time": 15.1977273,
                "end_time": 15.4204545,
                "pitch": 51,
                "velocity": 64,
                "duration": 0.2227273,
                "tempo": 120.0
            },
            {
                "start_time": 15.4545455,
                "end_time": 15.5545455,
                "pitch": 34,
                "velocity": 64,
                "duration": 0.1,
                "tempo": 120.0
            },
            {
                "start_time": 15.5727273,
                "end_time": 15.6727273,
                "pitch": 34,
                "velocity": 64,
                "duration": 0.1,
                "tempo": 120.0
            },
            {
                "start_time": 15.6886364,
                "end_time": 15.7909091,
                "pitch": 34,
                "velocity": 64,
                "duration": 0.1022727,
                "tempo": 120.0
            },
            {
                "start_time": 15.8068182,
                "end_time": 15.9068182,
                "pitch": 34,
                "velocity": 64,
                "duration": 0.1,
                "tempo": 120.0
            },
            {
                "start_time": 15.925,
                "end_time": 16.0227273,
                "pitch": 34,
                "velocity": 64,
                "duration": 0.0977273,
                "tempo": 120.0
            },
            {
                "start_time": 16.0568182,
                "end_time": 16.1545455,
                "pitch": 34,
                "velocity": 64,
                "duration": 0.0977273,
                "tempo": 120.0
            },
            {
                "start_time": 16.1704545,
                "end_time": 16.2681818,
                "pitch": 34,
                "velocity": 64,
                "duration": 0.0977273,
                "tempo": 120.0
            },
            {
                "start_time": 16.2863636,
                "end_time": 16.3840909,
                "pitch": 34,
                "velocity": 64,
                "duration": 0.0977273,
                "tempo": 120.0
            },
            {
                "start_time": 16.4,
                "end_time": 16.5,
                "pitch": 34,
                "velocity": 64,
                "duration": 0.1,
                "tempo": 120.0
            },
            {
                "start_time": 16.5159091,
                "end_time": 16.6159091,
                "pitch": 34,
                "velocity": 64,
                "duration": 0.1,
                "tempo": 120.0
            },
            {
                "start_time": 16.65,
                "end_time": 16.75,
                "pitch": 34,
                "velocity": 64,
                "duration": 0.1,
                "tempo": 120.0
            },
            {
                "start_time": 16.7659091,
                "end_time": 16.8659091,
                "pitch": 34,
                "velocity": 64,
                "duration": 0.1,
                "tempo": 120.0
            },
            {
                "start_time": 16.8840909,
                "end_time": 16.9863636,
                "pitch": 34,
                "velocity": 64,
                "duration": 0.1022727,
                "tempo": 120.0
            },
            {
                "start_time": 17.0022727,
                "end_time": 17.1045455,
                "pitch": 34,
                "velocity": 64,
                "duration": 0.1022727,
                "tempo": 120.0
            },
            {
                "start_time": 17.1227273,
                "end_time": 17.225,
                "pitch": 34,
                "velocity": 64,
                "duration": 0.1022727,
                "tempo": 120.0
            },
            {
                "start_time": 17.2590909,
                "end_time": 17.3613636,
                "pitch": 34,
                "velocity": 64,
                "duration": 0.1022727,
                "tempo": 120.0
            },
            {
                "start_time": 17.3795455,
                "end_time": 17.4795455,
                "pitch": 27,
                "velocity": 64,
                "duration": 0.1,
                "tempo": 120.0
            },
            {
                "start_time": 17.4954545,
                "end_time": 17.5977273,
                "pitch": 27,
                "velocity": 64,
                "duration": 0.1022727,
                "tempo": 120.0
            },
            {
                "start_time": 17.6136364,
                "end_time": 17.7136364,
                "pitch": 27,
                "velocity": 64,
                "duration": 0.1,
                "tempo": 120.0
            },
            {
                "start_time": 17.7318182,
                "end_time": 17.8318182,
                "pitch": 27,
                "velocity": 64,
                "duration": 0.1,
                "tempo": 120.0
            },
            {
                "start_time": 17.8659091,
                "end_time": 17.9681818,
                "pitch": 27,
                "velocity": 64,
                "duration": 0.1022727,
                "tempo": 120.0
            },
            {
                "start_time": 17.9863636,
                "end_time": 18.0886364,
                "pitch": 27,
                "velocity": 64,
                "duration": 0.1022727,
                "tempo": 120.0
            },
            {
                "start_time": 18.1045455,
                "end_time": 18.2068182,
                "pitch": 27,
                "velocity": 64,
                "duration": 0.1022727,
                "tempo": 120.0
            },
            {
                "start_time": 18.225,
                "end_time": 18.3272727,
                "pitch": 27,
                "velocity": 64,
                "duration": 0.1022727,
                "tempo": 120.0
            },
            {
                "start_time": 18.3431818,
                "end_time": 18.4409091,
                "pitch": 27,
                "velocity": 64,
                "duration": 0.0977273,
                "tempo": 120.0
            },
            {
                "start_time": 18.4727273,
                "end_time": 18.5681818,
                "pitch": 27,
                "velocity": 64,
                "duration": 0.0954545,
                "tempo": 120.0
            },
            {
                "start_time": 18.5840909,
                "end_time": 18.6795455,
                "pitch": 27,
                "velocity": 64,
                "duration": 0.0954545,
                "tempo": 120.0
            },
            {
                "start_time": 18.6954545,
                "end_time": 18.7931818,
                "pitch": 27,
                "velocity": 64,
                "duration": 0.0977273,
                "tempo": 120.0
            },
            {
                "start_time": 18.8090909,
                "end_time": 18.9090909,
                "pitch": 27,
                "velocity": 64,
                "duration": 0.1,
                "tempo": 120.0
            },
            {
                "start_time": 18.9272727,
                "end_time": 19.0272727,
                "pitch": 27,
                "velocity": 64,
                "duration": 0.1,
                "tempo": 120.0
            },
            {
                "start_time": 19.0613636,
                "end_time": 19.1613636,
                "pitch": 27,
                "velocity": 64,
                "duration": 0.1,
                "tempo": 120.0
            },
            {
                "start_time": 19.1772727,
                "end_time": 19.2795455,
                "pitch": 27,
                "velocity": 64,
                "duration": 0.1022727,
                "tempo": 120.0
            },
            {
                "start_time": 19.2954545,
                "end_time": 19.3977273,
                "pitch": 34,
                "velocity": 64,
                "duration": 0.1022727,
                "tempo": 120.0
            },
            {
                "start_time": 19.4159091,
                "end_time": 19.5181818,
                "pitch": 34,
                "velocity": 64,
                "duration": 0.1022727,
                "tempo": 120.0
            },
            {
                "start_time": 19.5340909,
                "end_time": 19.6363636,
                "pitch": 34,
                "velocity": 64,
                "duration": 0.1022727,
                "tempo": 120.0
            },
            {
                "start_time": 19.6704545,
                "end_time": 19.775,
                "pitch": 34,
                "velocity": 64,
                "duration": 0.1045455,
                "tempo": 120.0
            },
            {
                "start_time": 19.7909091,
                "end_time": 19.8909091,
                "pitch": 34,
                "velocity": 64,
                "duration": 0.1,
                "tempo": 120.0
            },
            {
                "start_time": 19.9090909,
                "end_time": 20.0090909,
                "pitch": 34,
                "velocity": 64,
                "duration": 0.1,
                "tempo": 120.0
            },
            {
                "start_time": 20.0272727,
                "end_time": 20.1272727,
                "pitch": 34,
                "velocity": 64,
                "duration": 0.1,
                "tempo": 120.0
            },
            {
                "start_time": 20.1431818,
                "end_time": 20.2454545,
                "pitch": 34,
                "velocity": 64,
                "duration": 0.1022727,
                "tempo": 120.0
            },
            {
                "start_time": 20.2772727,
                "end_time": 20.3795455,
                "pitch": 34,
                "velocity": 64,
                "duration": 0.1022727,
                "tempo": 120.0
            },
            {
                "start_time": 20.3954545,
                "end_time": 20.4977273,
                "pitch": 34,
                "velocity": 64,
                "duration": 0.1022727,
                "tempo": 120.0
            },
            {
                "start_time": 20.5136364,
                "end_time": 20.6136364,
                "pitch": 34,
                "velocity": 64,
                "duration": 0.1,
                "tempo": 120.0
            },
            {
                "start_time": 20.6318182,
                "end_time": 20.7318182,
                "pitch": 34,
                "velocity": 64,
                "duration": 0.1,
                "tempo": 120.0
            },
            {
                "start_time": 20.7477273,
                "end_time": 20.8477273,
                "pitch": 34,
                "velocity": 64,
                "duration": 0.1,
                "tempo": 120.0
            },
            {
                "start_time": 20.8795455,
                "end_time": 20.9772727,
                "pitch": 34,
                "velocity": 64,
                "duration": 0.0977273,
                "tempo": 120.0
            },
            {
                "start_time": 20.9954545,
                "end_time": 21.0931818,
                "pitch": 34,
                "velocity": 64,
                "duration": 0.0977273,
                "tempo": 120.0
            },
            {
                "start_time": 21.1090909,
                "end_time": 21.2068182,
                "pitch": 34,
                "velocity": 64,
                "duration": 0.0977273,
                "tempo": 120.0
            },
            {
                "start_time": 21.225,
                "end_time": 21.325,
                "pitch": 27,
                "velocity": 64,
                "duration": 0.1,
                "tempo": 120.0
            },
            {
                "start_time": 21.3409091,
                "end_time": 21.4431818,
                "pitch": 27,
                "velocity": 64,
                "duration": 0.1022727,
                "tempo": 120.0
            },
            {
                "start_time": 21.4772727,
                "end_time": 21.5772727,
                "pitch": 27,
                "velocity": 64,
                "duration": 0.1,
                "tempo": 120.0
            },
            {
                "start_time": 21.5931818,
                "end_time": 21.6954545,
                "pitch": 27,
                "velocity": 64,
                "duration": 0.1022727,
                "tempo": 120.0
            },
            {
                "start_time": 21.7113636,
                "end_time": 21.8136364,
                "pitch": 27,
                "velocity": 64,
                "duration": 0.1022727,
                "tempo": 120.0
            },
            {
                "start_time": 21.8318182,
                "end_time": 21.9340909,
                "pitch": 27,
                "velocity": 64,
                "duration": 0.1022727,
                "tempo": 120.0
            },
            {
                "start_time": 21.95,
                "end_time": 22.0522727,
                "pitch": 27,
                "velocity": 64,
                "duration": 0.1022727,
                "tempo": 120.0
            },
            {
                "start_time": 22.0863636,
                "end_time": 22.1886364,
                "pitch": 27,
                "velocity": 64,
                "duration": 0.1022727,
                "tempo": 120.0
            },
            {
                "start_time": 22.2068182,
                "end_time": 22.3068182,
                "pitch": 27,
                "velocity": 64,
                "duration": 0.1,
                "tempo": 120.0
            },
            {
                "start_time": 22.325,
                "end_time": 22.425,
                "pitch": 27,
                "velocity": 64,
                "duration": 0.1,
                "tempo": 120.0
            },
            {
                "start_time": 22.4409091,
                "end_time": 22.5431818,
                "pitch": 27,
                "velocity": 64,
                "duration": 0.1022727,
                "tempo": 120.0
            },
            {
                "start_time": 22.5590909,
                "end_time": 22.6613636,
                "pitch": 27,
                "velocity": 64,
                "duration": 0.1022727,
                "tempo": 120.0
            },
            {
                "start_time": 22.6931818,
                "end_time": 22.7954545,
                "pitch": 27,
                "velocity": 64,
                "duration": 0.1022727,
                "tempo": 120.0
            },
            {
                "start_time": 22.8136364,
                "end_time": 22.9159091,
                "pitch": 27,
                "velocity": 64,
                "duration": 0.1022727,
                "tempo": 120.0
            },
            {
                "start_time": 22.9318182,
                "end_time": 23.0363636,
                "pitch": 27,
                "velocity": 64,
                "duration": 0.1045455,
                "tempo": 120.0
            },
            {
                "start_time": 23.0522727,
                "end_time": 23.1545455,
                "pitch": 27,
                "velocity": 64,
                "duration": 0.1022727,
                "tempo": 120.0
            },
            {
                "start_time": 23.1727273,
                "end_time": 23.2681818,
                "pitch": 34,
                "velocity": 64,
                "duration": 0.0954545,
                "tempo": 120.0
            },
            {
                "start_time": 23.3,
                "end_time": 23.3954545,
                "pitch": 34,
                "velocity": 64,
                "duration": 0.0954545,
                "tempo": 120.0
            },
            {
                "start_time": 23.4113636,
                "end_time": 23.5090909,
                "pitch": 34,
                "velocity": 64,
                "duration": 0.0977273,
                "tempo": 120.0
            },
            {
                "start_time": 23.525,
                "end_time": 23.6204545,
                "pitch": 34,
                "velocity": 64,
                "duration": 0.0954545,
                "tempo": 120.0
            },
            {
                "start_time": 23.6363636,
                "end_time": 23.7386364,
                "pitch": 34,
                "velocity": 64,
                "duration": 0.1022727,
                "tempo": 120.0
            },
            {
                "start_time": 23.7568182,
                "end_time": 23.8590909,
                "pitch": 34,
                "velocity": 64,
                "duration": 0.1022727,
                "tempo": 120.0
            },
            {
                "start_time": 23.8931818,
                "end_time": 23.9954545,
                "pitch": 34,
                "velocity": 64,
                "duration": 0.1022727,
                "tempo": 120.0
            },
            {
                "start_time": 24.0113636,
                "end_time": 24.1136364,
                "pitch": 34,
                "velocity": 64,
                "duration": 0.1022727,
                "tempo": 120.0
            },
            {
                "start_time": 24.1318182,
                "end_time": 24.2318182,
                "pitch": 34,
                "velocity": 64,
                "duration": 0.1,
                "tempo": 120.0
            },
            {
                "start_time": 24.25,
                "end_time": 24.35,
                "pitch": 34,
                "velocity": 64,
                "duration": 0.1,
                "tempo": 120.0
            },
            {
                "start_time": 24.3659091,
                "end_time": 24.4681818,
                "pitch": 34,
                "velocity": 64,
                "duration": 0.1022727,
                "tempo": 120.0
            },
            {
                "start_time": 24.5,
                "end_time": 24.6022727,
                "pitch": 34,
                "velocity": 64,
                "duration": 0.1022727,
                "tempo": 120.0
            },
            {
                "start_time": 24.6181818,
                "end_time": 24.7204545,
                "pitch": 34,
                "velocity": 64,
                "duration": 0.1022727,
                "tempo": 120.0
            },
            {
                "start_time": 24.7363636,
                "end_time": 24.8363636,
                "pitch": 34,
                "velocity": 64,
                "duration": 0.1,
                "tempo": 120.0
            },
            {
                "start_time": 24.8545455,
                "end_time": 24.9545455,
                "pitch": 34,
                "velocity": 64,
                "duration": 0.1,
                "tempo": 120.0
            },
            {
                "start_time": 24.9704545,
                "end_time": 25.0727273,
                "pitch": 34,
                "velocity": 64,
                "duration": 0.1022727,
                "tempo": 120.0
            },
            {
                "start_time": 25.1068182,
                "end_time": 25.2068182,
                "pitch": 27,
                "velocity": 64,
                "duration": 0.1,
                "tempo": 120.0
            },
            {
                "start_time": 25.2227273,
                "end_time": 25.325,
                "pitch": 27,
                "velocity": 64,
                "duration": 0.1022727,
                "tempo": 120.0
            },
            {
                "start_time": 25.3409091,
                "end_time": 25.4409091,
                "pitch": 27,
                "velocity": 64,
                "duration": 0.1,
                "tempo": 120.0
            },
            {
                "start_time": 25.4590909,
                "end_time": 25.5590909,
                "pitch": 27,
                "velocity": 64,
                "duration": 0.1,
                "tempo": 120.0
            },
            {
                "start_time": 25.5772727,
                "end_time": 25.675,
                "pitch": 27,
                "velocity": 64,
                "duration": 0.0977273,
                "tempo": 120.0
            },
            {
                "start_time": 25.7068182,
                "end_time": 25.8068182,
                "pitch": 27,
                "velocity": 64,
                "duration": 0.1,
                "tempo": 120.0
            },
            {
                "start_time": 25.8227273,
                "end_time": 25.9204545,
                "pitch": 27,
                "velocity": 64,
                "duration": 0.0977273,
                "tempo": 120.0
            },
            {
                "start_time": 25.9363636,
                "end_time": 26.0363636,
                "pitch": 27,
                "velocity": 64,
                "duration": 0.1,
                "tempo": 120.0
            },
            {
                "start_time": 26.0522727,
                "end_time": 26.1522727,
                "pitch": 27,
                "velocity": 64,
                "duration": 0.1,
                "tempo": 120.0
            },
            {
                "start_time": 26.1704545,
                "end_time": 26.2704545,
                "pitch": 27,
                "velocity": 64,
                "duration": 0.1,
                "tempo": 120.0
            },
            {
                "start_time": 26.3045455,
                "end_time": 26.4045455,
                "pitch": 27,
                "velocity": 64,
                "duration": 0.1,
                "tempo": 120.0
            },
            {
                "start_time": 26.4204545,
                "end_time": 26.5227273,
                "pitch": 27,
                "velocity": 64,
                "duration": 0.1022727,
                "tempo": 120.0
            },
            {
                "start_time": 26.5386364,
                "end_time": 26.6409091,
                "pitch": 27,
                "velocity": 64,
                "duration": 0.1022727,
                "tempo": 120.0
            },
            {
                "start_time": 26.6590909,
                "end_time": 26.7613636,
                "pitch": 27,
                "velocity": 64,
                "duration": 0.1022727,
                "tempo": 120.0
            },
            {
                "start_time": 26.7772727,
                "end_time": 26.8795455,
                "pitch": 27,
                "velocity": 64,
                "duration": 0.1022727,
                "tempo": 120.0
            },
            {
                "start_time": 26.9136364,
                "end_time": 27.0181818,
                "pitch": 27,
                "velocity": 64,
                "duration": 0.1045455,
                "tempo": 120.0
            },
            {
                "start_time": 27.0340909,
                "end_time": 27.1340909,
                "pitch": 34,
                "velocity": 64,
                "duration": 0.1,
                "tempo": 120.0
            },
            {
                "start_time": 27.15,
                "end_time": 27.25,
                "pitch": 34,
                "velocity": 64,
                "duration": 0.1,
                "tempo": 120.0
            },
            {
                "start_time": 27.2681818,
                "end_time": 27.3681818,
                "pitch": 34,
                "velocity": 64,
                "duration": 0.1,
                "tempo": 120.0
            },
            {
                "start_time": 27.3840909,
                "end_time": 27.4840909,
                "pitch": 34,
                "velocity": 64,
                "duration": 0.1,
                "tempo": 120.0
            },
            {
                "start_time": 27.5181818,
                "end_time": 27.6181818,
                "pitch": 34,
                "velocity": 64,
                "duration": 0.1,
                "tempo": 120.0
            },
            {
                "start_time": 27.6340909,
                "end_time": 27.7363636,
                "pitch": 34,
                "velocity": 64,
                "duration": 0.1022727,
                "tempo": 120.0
            },
            {
                "start_time": 27.7522727,
                "end_time": 27.8545455,
                "pitch": 34,
                "velocity": 64,
                "duration": 0.1022727,
                "tempo": 120.0
            },
            {
                "start_time": 27.8704545,
                "end_time": 27.9704545,
                "pitch": 34,
                "velocity": 64,
                "duration": 0.1,
                "tempo": 120.0
            },
            {
                "start_time": 27.9886364,
                "end_time": 28.0863636,
                "pitch": 34,
                "velocity": 64,
                "duration": 0.0977273,
                "tempo": 120.0
            },
            {
                "start_time": 28.1181818,
                "end_time": 28.2181818,
                "pitch": 34,
                "velocity": 64,
                "duration": 0.1,
                "tempo": 120.0
            },
            {
                "start_time": 28.2340909,
                "end_time": 28.3318182,
                "pitch": 34,
                "velocity": 64,
                "duration": 0.0977273,
                "tempo": 120.0
            },
            {
                "start_time": 28.3477273,
                "end_time": 28.4477273,
                "pitch": 34,
                "velocity": 64,
                "duration": 0.1,
                "tempo": 120.0
            },
            {
                "start_time": 28.4636364,
                "end_time": 28.5659091,
                "pitch": 34,
                "velocity": 64,
                "duration": 0.1022727,
                "tempo": 120.0
            },
            {
                "start_time": 28.5818182,
                "end_time": 28.6863636,
                "pitch": 34,
                "velocity": 64,
                "duration": 0.1045455,
                "tempo": 120.0
            },
            {
                "start_time": 28.7204545,
                "end_time": 28.8227273,
                "pitch": 34,
                "velocity": 64,
                "duration": 0.1022727,
                "tempo": 120.0
            },
            {
                "start_time": 28.8386364,
                "end_time": 28.9409091,
                "pitch": 34,
                "velocity": 64,
                "duration": 0.1022727,
                "tempo": 120.0
            },
            {
                "start_time": 28.9590909,
                "end_time": 29.0590909,
                "pitch": 27,
                "velocity": 64,
                "duration": 0.1,
                "tempo": 120.0
            },
            {
                "start_time": 29.0772727,
                "end_time": 29.1772727,
                "pitch": 27,
                "velocity": 64,
                "duration": 0.1,
                "tempo": 120.0
            },
            {
                "start_time": 29.1931818,
                "end_time": 29.2954545,
                "pitch": 27,
                "velocity": 64,
                "duration": 0.1022727,
                "tempo": 120.0
            },
            {
                "start_time": 29.3272727,
                "end_time": 29.4295455,
                "pitch": 27,
                "velocity": 64,
                "duration": 0.1022727,
                "tempo": 120.0
            },
            {
                "start_time": 29.4454545,
                "end_time": 29.5454545,
                "pitch": 27,
                "velocity": 64,
                "duration": 0.1,
                "tempo": 120.0
            },
            {
                "start_time": 29.5636364,
                "end_time": 29.6636364,
                "pitch": 27,
                "velocity": 64,
                "duration": 0.1,
                "tempo": 120.0
            },
            {
                "start_time": 29.6818182,
                "end_time": 29.7818182,
                "pitch": 27,
                "velocity": 64,
                "duration": 0.1,
                "tempo": 120.0
            },
            {
                "start_time": 29.7977273,
                "end_time": 29.9,
                "pitch": 27,
                "velocity": 64,
                "duration": 0.1022727,
                "tempo": 120.0
            },
            {
                "start_time": 29.9318182,
                "end_time": 30.0340909,
                "pitch": 27,
                "velocity": 64,
                "duration": 0.1022727,
                "tempo": 120.0
            },
            {
                "start_time": 30.05,
                "end_time": 30.1522727,
                "pitch": 27,
                "velocity": 64,
                "duration": 0.1022727,
                "tempo": 120.0
            },
            {
                "start_time": 30.1681818,
                "end_time": 30.2681818,
                "pitch": 27,
                "velocity": 64,
                "duration": 0.1,
                "tempo": 120.0
            },
            {
                "start_time": 30.2863636,
                "end_time": 30.3863636,
                "pitch": 27,
                "velocity": 64,
                "duration": 0.1,
                "tempo": 120.0
            },
            {
                "start_time": 30.4022727,
                "end_time": 30.5022727,
                "pitch": 27,
                "velocity": 64,
                "duration": 0.1,
                "tempo": 120.0
            },
            {
                "start_time": 30.5340909,
                "end_time": 30.6318182,
                "pitch": 27,
                "velocity": 64,
                "duration": 0.0977273,
                "tempo": 120.0
            },
            {
                "start_time": 30.65,
                "end_time": 30.7477273,
                "pitch": 27,
                "velocity": 64,
                "duration": 0.0977273,
                "tempo": 120.0
            },
            {
                "start_time": 30.7636364,
                "end_time": 30.8636364,
                "pitch": 27,
                "velocity": 64,
                "duration": 0.1,
                "tempo": 120.0
            },
            {
                "start_time": 30.8795455,
                "end_time": 31.0977273,
                "pitch": 34,
                "velocity": 64,
                "duration": 0.2181818,
                "tempo": 120.0
            },
            {
                "start_time": 31.1318182,
                "end_time": 31.35,
                "pitch": 46,
                "velocity": 64,
                "duration": 0.2181818,
                "tempo": 120.0
            },
            {
                "start_time": 31.3659091,
                "end_time": 31.5886364,
                "pitch": 36,
                "velocity": 64,
                "duration": 0.2227273,
                "tempo": 120.0
            },
            {
                "start_time": 31.6045455,
                "end_time": 31.8431818,
                "pitch": 48,
                "velocity": 64,
                "duration": 0.2386364,
                "tempo": 120.0
            },
            {
                "start_time": 31.8613636,
                "end_time": 32.0795455,
                "pitch": 37,
                "velocity": 64,
                "duration": 0.2181818,
                "tempo": 120.0
            },
            {
                "start_time": 32.0954545,
                "end_time": 32.3159091,
                "pitch": 49,
                "velocity": 64,
                "duration": 0.2204545,
                "tempo": 120.0
            },
            {
                "start_time": 32.3477273,
                "end_time": 32.45,
                "pitch": 41,
                "velocity": 64,
                "duration": 0.1022727,
                "tempo": 120.0
            },
            {
                "start_time": 32.4681818,
                "end_time": 32.5704545,
                "pitch": 58,
                "velocity": 64,
                "duration": 0.1022727,
                "tempo": 120.0
            },
            {
                "start_time": 32.5863636,
                "end_time": 32.6909091,
                "pitch": 53,
                "velocity": 64,
                "duration": 0.1045455,
                "tempo": 120.0
            },
            {
                "start_time": 32.7068182,
                "end_time": 32.8090909,
                "pitch": 58,
                "velocity": 64,
                "duration": 0.1022727,
                "tempo": 120.0
            },
            {
                "start_time": 32.8272727,
                "end_time": 33.05,
                "pitch": 39,
                "velocity": 64,
                "duration": 0.2227273,
                "tempo": 120.0
            },
            {
                "start_time": 33.0659091,
                "end_time": 33.275,
                "pitch": 51,
                "velocity": 64,
                "duration": 0.2090909,
                "tempo": 120.0
            },
            {
                "start_time": 33.2909091,
                "end_time": 33.5136364,
                "pitch": 37,
                "velocity": 64,
                "duration": 0.2227273,
                "tempo": 120.0
            },
            {
                "start_time": 33.5477273,
                "end_time": 33.7681818,
                "pitch": 49,
                "velocity": 64,
                "duration": 0.2204545,
                "tempo": 120.0
            },
            {
                "start_time": 33.7863636,
                "end_time": 34.0,
                "pitch": 36,
                "velocity": 64,
                "duration": 0.2136364,
                "tempo": 120.0
            },
            {
                "start_time": 34.0159091,
                "end_time": 34.2454545,
                "pitch": 48,
                "velocity": 64,
                "duration": 0.2295455,
                "tempo": 120.0
            },
            {
                "start_time": 34.2613636,
                "end_time": 34.3636364,
                "pitch": 34,
                "velocity": 64,
                "duration": 0.1022727,
                "tempo": 120.0
            },
            {
                "start_time": 34.3818182,
                "end_time": 34.4840909,
                "pitch": 63,
                "velocity": 64,
                "duration": 0.1022727,
                "tempo": 120.0
            },
            {
                "start_time": 34.5,
                "end_time": 34.6022727,
                "pitch": 46,
                "velocity": 64,
                "duration": 0.1022727,
                "tempo": 120.0
            },
            {
                "start_time": 34.6204545,
                "end_time": 34.7227273,
                "pitch": 63,
                "velocity": 64,
                "duration": 0.1022727,
                "tempo": 120.0
            },
            {
                "start_time": 34.7568182,
                "end_time": 34.9727273,
                "pitch": 32,
                "velocity": 64,
                "duration": 0.2159091,
                "tempo": 120.0
            },
            {
                "start_time": 34.9909091,
                "end_time": 35.2068182,
                "pitch": 44,
                "velocity": 64,
                "duration": 0.2159091,
                "tempo": 120.0
            },
            {
                "start_time": 35.2227273,
                "end_time": 35.4522727,
                "pitch": 34,
                "velocity": 64,
                "duration": 0.2295455,
                "tempo": 120.0
            },
            {
                "start_time": 35.4681818,
                "end_time": 35.6818182,
                "pitch": 46,
                "velocity": 64,
                "duration": 0.2136364,
                "tempo": 120.0
            },
            {
                "start_time": 35.6977273,
                "end_time": 35.9181818,
                "pitch": 36,
                "velocity": 64,
                "duration": 0.2204545,
                "tempo": 120.0
            },
            {
                "start_time": 35.95,
                "end_time": 36.1681818,
                "pitch": 48,
                "velocity": 64,
                "duration": 0.2181818,
                "tempo": 120.0
            },
            {
                "start_time": 36.1863636,
                "end_time": 36.2886364,
                "pitch": 39,
                "velocity": 64,
                "duration": 0.1022727,
                "tempo": 120.0
            },
            {
                "start_time": 36.3045455,
                "end_time": 36.4090909,
                "pitch": 56,
                "velocity": 64,
                "duration": 0.1045455,
                "tempo": 120.0
            },
            {
                "start_time": 36.425,
                "end_time": 36.5272727,
                "pitch": 51,
                "velocity": 64,
                "duration": 0.1022727,
                "tempo": 120.0
            },
            {
                "start_time": 36.5613636,
                "end_time": 36.6636364,
                "pitch": 56,
                "velocity": 64,
                "duration": 0.1022727,
                "tempo": 120.0
            },
            {
                "start_time": 36.6818182,
                "end_time": 36.8977273,
                "pitch": 41,
                "velocity": 64,
                "duration": 0.2159091,
                "tempo": 120.0
            },
            {
                "start_time": 36.9136364,
                "end_time": 37.1318182,
                "pitch": 53,
                "velocity": 64,
                "duration": 0.2181818,
                "tempo": 120.0
            },
            {
                "start_time": 37.1636364,
                "end_time": 37.3818182,
                "pitch": 39,
                "velocity": 64,
                "duration": 0.2181818,
                "tempo": 120.0
            },
            {
                "start_time": 37.3977273,
                "end_time": 37.6136364,
                "pitch": 51,
                "velocity": 64,
                "duration": 0.2159091,
                "tempo": 120.0
            },
            {
                "start_time": 37.6318182,
                "end_time": 37.8613636,
                "pitch": 37,
                "velocity": 64,
                "duration": 0.2295455,
                "tempo": 120.0
            },
            {
                "start_time": 37.8772727,
                "end_time": 38.0909091,
                "pitch": 49,
                "velocity": 64,
                "duration": 0.2136364,
                "tempo": 120.0
            },
            {
                "start_time": 38.1068182,
                "end_time": 38.2068182,
                "pitch": 36,
                "velocity": 64,
                "duration": 0.1,
                "tempo": 120.0
            },
            {
                "start_time": 38.2227273,
                "end_time": 38.3227273,
                "pitch": 36,
                "velocity": 64,
                "duration": 0.1,
                "tempo": 120.0
            },
            {
                "start_time": 38.3568182,
                "end_time": 38.4568182,
                "pitch": 48,
                "velocity": 64,
                "duration": 0.1,
                "tempo": 120.0
            },
            {
                "start_time": 38.4727273,
                "end_time": 38.5727273,
                "pitch": 53,
                "velocity": 64,
                "duration": 0.1,
                "tempo": 120.0
            },
            {
                "start_time": 38.5909091,
                "end_time": 38.8068182,
                "pitch": 34,
                "velocity": 64,
                "duration": 0.2159091,
                "tempo": 120.0
            },
            {
                "start_time": 38.8227273,
                "end_time": 39.0568182,
                "pitch": 46,
                "velocity": 64,
                "duration": 0.2340909,
                "tempo": 120.0
            },
            {
                "start_time": 39.0727273,
                "end_time": 39.2954545,
                "pitch": 36,
                "velocity": 64,
                "duration": 0.2227273,
                "tempo": 120.0
            },
            {
                "start_time": 39.3113636,
                "end_time": 39.5340909,
                "pitch": 48,
                "velocity": 64,
                "duration": 0.2227273,
                "tempo": 120.0
            },
            {
                "start_time": 39.5681818,
                "end_time": 39.7863636,
                "pitch": 37,
                "velocity": 64,
                "duration": 0.2181818,
                "tempo": 120.0
            },
            {
                "start_time": 39.8045455,
                "end_time": 40.0227273,
                "pitch": 49,
                "velocity": 64,
                "duration": 0.2181818,
                "tempo": 120.0
            },
            {
                "start_time": 40.0386364,
                "end_time": 40.1363636,
                "pitch": 41,
                "velocity": 64,
                "duration": 0.0977273,
                "tempo": 120.0
            },
            {
                "start_time": 40.1704545,
                "end_time": 40.2681818,
                "pitch": 58,
                "velocity": 64,
                "duration": 0.0977273,
                "tempo": 120.0
            },
            {
                "start_time": 40.2840909,
                "end_time": 40.3840909,
                "pitch": 53,
                "velocity": 64,
                "duration": 0.1,
                "tempo": 120.0
            },
            {
                "start_time": 40.4,
                "end_time": 40.4977273,
                "pitch": 58,
                "velocity": 64,
                "duration": 0.0977273,
                "tempo": 120.0
            },
            {
                "start_time": 40.5136364,
                "end_time": 40.7318182,
                "pitch": 39,
                "velocity": 64,
                "duration": 0.2181818,
                "tempo": 120.0
            },
            {
                "start_time": 40.7636364,
                "end_time": 40.9818182,
                "pitch": 51,
                "velocity": 64,
                "duration": 0.2181818,
                "tempo": 120.0
            },
            {
                "start_time": 40.9977273,
                "end_time": 41.2204545,
                "pitch": 37,
                "velocity": 64,
                "duration": 0.2227273,
                "tempo": 120.0
            },
            {
                "start_time": 41.2363636,
                "end_time": 41.475,
                "pitch": 49,
                "velocity": 64,
                "duration": 0.2386364,
                "tempo": 120.0
            },
            {
                "start_time": 41.4931818,
                "end_time": 41.7090909,
                "pitch": 36,
                "velocity": 64,
                "duration": 0.2159091,
                "tempo": 120.0
            },
            {
                "start_time": 41.7272727,
                "end_time": 41.9431818,
                "pitch": 48,
                "velocity": 64,
                "duration": 0.2159091,
                "tempo": 120.0
            },
            {
                "start_time": 41.9772727,
                "end_time": 42.0795455,
                "pitch": 34,
                "velocity": 64,
                "duration": 0.1022727,
                "tempo": 120.0
            },
            {
                "start_time": 42.0954545,
                "end_time": 42.1977273,
                "pitch": 63,
                "velocity": 64,
                "duration": 0.1022727,
                "tempo": 120.0
            },
            {
                "start_time": 42.2159091,
                "end_time": 42.3181818,
                "pitch": 46,
                "velocity": 64,
                "duration": 0.1022727,
                "tempo": 120.0
            },
            {
                "start_time": 42.3340909,
                "end_time": 42.4363636,
                "pitch": 63,
                "velocity": 64,
                "duration": 0.1022727,
                "tempo": 120.0
            },
            {
                "start_time": 42.4545455,
                "end_time": 42.6795455,
                "pitch": 32,
                "velocity": 64,
                "duration": 0.225,
                "tempo": 120.0
            },
            {
                "start_time": 42.6954545,
                "end_time": 42.9022727,
                "pitch": 44,
                "velocity": 64,
                "duration": 0.2068182,
                "tempo": 120.0
            },
            {
                "start_time": 42.9181818,
                "end_time": 43.1409091,
                "pitch": 34,
                "velocity": 64,
                "duration": 0.2227273,
                "tempo": 120.0
            },
            {
                "start_time": 43.175,
                "end_time": 43.3954545,
                "pitch": 46,
                "velocity": 64,
                "duration": 0.2204545,
                "tempo": 120.0
            },
            {
                "start_time": 43.4136364,
                "end_time": 43.6272727,
                "pitch": 36,
                "velocity": 64,
                "duration": 0.2136364,
                "tempo": 120.0
            },
            {
                "start_time": 43.6431818,
                "end_time": 43.8727273,
                "pitch": 48,
                "velocity": 64,
                "duration": 0.2295455,
                "tempo": 120.0
            },
            {
                "start_time": 43.8886364,
                "end_time": 43.9909091,
                "pitch": 37,
                "velocity": 64,
                "duration": 0.1022727,
                "tempo": 120.0
            },
            {
                "start_time": 44.0090909,
                "end_time": 44.1113636,
                "pitch": 56,
                "velocity": 64,
                "duration": 0.1022727,
                "tempo": 120.0
            },
            {
                "start_time": 44.1272727,
                "end_time": 44.2295455,
                "pitch": 49,
                "velocity": 64,
                "duration": 0.1022727,
                "tempo": 120.0
            },
            {
                "start_time": 44.2477273,
                "end_time": 44.35,
                "pitch": 56,
                "velocity": 64,
                "duration": 0.1022727,
                "tempo": 120.0
            },
            {
                "start_time": 44.3840909,
                "end_time": 44.6,
                "pitch": 41,
                "velocity": 64,
                "duration": 0.2159091,
                "tempo": 120.0
            },
            {
                "start_time": 44.6181818,
                "end_time": 44.8340909,
                "pitch": 53,
                "velocity": 64,
                "duration": 0.2159091,
                "tempo": 120.0
            },
            {
                "start_time": 44.85,
                "end_time": 45.0795455,
                "pitch": 39,
                "velocity": 64,
                "duration": 0.2295455,
                "tempo": 120.0
            },
            {
                "start_time": 45.0977273,
                "end_time": 45.3090909,
                "pitch": 51,
                "velocity": 64,
                "duration": 0.2113636,
                "tempo": 120.0
            },
            {
                "start_time": 45.3272727,
                "end_time": 45.5454545,
                "pitch": 37,
                "velocity": 64,
                "duration": 0.2181818,
                "tempo": 120.0
            },
            {
                "start_time": 45.5795455,
                "end_time": 45.7977273,
                "pitch": 49,
                "velocity": 64,
                "duration": 0.2181818,
                "tempo": 120.0
            },
            {
                "start_time": 45.8136364,
                "end_time": 45.9159091,
                "pitch": 36,
                "velocity": 64,
                "duration": 0.1022727,
                "tempo": 120.0
            },
            {
                "start_time": 45.9340909,
                "end_time": 46.0363636,
                "pitch": 36,
                "velocity": 64,
                "duration": 0.1022727,
                "tempo": 120.0
            },
            {
                "start_time": 46.0522727,
                "end_time": 46.1545455,
                "pitch": 36,
                "velocity": 64,
                "duration": 0.1022727,
                "tempo": 120.0
            },
            {
                "start_time": 46.1886364,
                "end_time": 46.2909091,
                "pitch": 36,
                "velocity": 64,
                "duration": 0.1022727,
                "tempo": 120.0
            }
        ],
        "Oboe": [
            {
                "start_time": 0.0136364,
                "end_time": 0.0295455,
                "pitch": 70,
                "velocity": 51,
                "duration": 0.0159091,
                "tempo": 120.0
            },
            {
                "start_time": 0.0477273,
                "end_time": 0.7590909,
                "pitch": 70,
                "velocity": 51,
                "duration": 0.7113636,
                "tempo": 120.0
            },
            {
                "start_time": 0.7909091,
                "end_time": 0.8909091,
                "pitch": 70,
                "velocity": 51,
                "duration": 0.1,
                "tempo": 120.0
            },
            {
                "start_time": 0.9090909,
                "end_time": 1.0090909,
                "pitch": 72,
                "velocity": 51,
                "duration": 0.1,
                "tempo": 120.0
            },
            {
                "start_time": 1.025,
                "end_time": 1.7204545,
                "pitch": 70,
                "velocity": 51,
                "duration": 0.6954545,
                "tempo": 120.0
            },
            {
                "start_time": 1.7363636,
                "end_time": 1.8363636,
                "pitch": 65,
                "velocity": 51,
                "duration": 0.1,
                "tempo": 120.0
            },
            {
                "start_time": 1.8522727,
                "end_time": 1.95,
                "pitch": 67,
                "velocity": 51,
                "duration": 0.0977273,
                "tempo": 120.0
            },
            {
                "start_time": 1.9840909,
                "end_time": 2.2,
                "pitch": 70,
                "velocity": 51,
                "duration": 0.2159091,
                "tempo": 120.0
            },
            {
                "start_time": 2.2181818,
                "end_time": 2.4340909,
                "pitch": 70,
                "velocity": 51,
                "duration": 0.2159091,
                "tempo": 120.0
            },
            {
                "start_time": 2.4522727,
                "end_time": 2.6909091,
                "pitch": 67,
                "velocity": 51,
                "duration": 0.2386364,
                "tempo": 120.0
            },
            {
                "start_time": 2.7068182,
                "end_time": 3.1613636,
                "pitch": 70,
                "velocity": 51,
                "duration": 0.4545455,
                "tempo": 120.0
            },
            {
                "start_time": 3.1954545,
                "end_time": 3.6522727,
                "pitch": 67,
                "velocity": 51,
                "duration": 0.4568182,
                "tempo": 120.0
            },
            {
                "start_time": 3.6681818,
                "end_time": 3.9068182,
                "pitch": 65,
                "velocity": 51,
                "duration": 0.2386364,
                "tempo": 120.0
            },
            {
                "start_time": 3.9227273,
                "end_time": 4.0181818,
                "pitch": 82,
                "velocity": 51,
                "duration": 0.0954545,
                "tempo": 120.0
            },
            {
                "start_time": 4.0340909,
                "end_time": 4.1295455,
                "pitch": 82,
                "velocity": 51,
                "duration": 0.0954545,
                "tempo": 120.0
            },
            {
                "start_time": 4.1454545,
                "end_time": 4.3545455,
                "pitch": 82,
                "velocity": 51,
                "duration": 0.2090909,
                "tempo": 120.0
            },
            {
                "start_time": 4.3886364,
                "end_time": 4.4909091,
                "pitch": 77,
                "velocity": 51,
                "duration": 0.1022727,
                "tempo": 120.0
            },
            {
                "start_time": 4.5090909,
                "end_time": 4.6113636,
                "pitch": 77,
                "velocity": 51,
                "duration": 0.1022727,
                "tempo": 120.0
            },
            {
                "start_time": 4.6272727,
                "end_time": 4.85,
                "pitch": 79,
                "velocity": 51,
                "duration": 0.2227273,
                "tempo": 120.0
            },
            {
                "start_time": 4.8659091,
                "end_time": 4.9636364,
                "pitch": 75,
                "velocity": 51,
                "duration": 0.0977273,
                "tempo": 120.0
            },
            {
                "start_time": 4.9977273,
                "end_time": 5.0954545,
                "pitch": 75,
                "velocity": 51,
                "duration": 0.0977273,
                "tempo": 120.0
            },
            {
                "start_time": 5.1113636,
                "end_time": 5.325,
                "pitch": 77,
                "velocity": 51,
                "duration": 0.2136364,
                "tempo": 120.0
            },
            {
                "start_time": 5.3431818,
                "end_time": 5.5636364,
                "pitch": 79,
                "velocity": 51,
                "duration": 0.2204545,
                "tempo": 120.0
            },
            {
                "start_time": 5.5977273,
                "end_time": 5.8204545,
                "pitch": 77,
                "velocity": 51,
                "duration": 0.2227273,
                "tempo": 120.0
            },
            {
                "start_time": 5.8363636,
                "end_time": 5.9386364,
                "pitch": 82,
                "velocity": 51,
                "duration": 0.1022727,
                "tempo": 120.0
            },
            {
                "start_time": 5.9545455,
                "end_time": 6.0545455,
                "pitch": 82,
                "velocity": 51,
                "duration": 0.1,
                "tempo": 120.0
            },
            {
                "start_time": 6.0727273,
                "end_time": 6.3068182,
                "pitch": 82,
                "velocity": 51,
                "duration": 0.2340909,
                "tempo": 120.0
            },
            {
                "start_time": 6.3227273,
                "end_time": 6.4227273,
                "pitch": 77,
                "velocity": 51,
                "duration": 0.1,
                "tempo": 120.0
            },
            {
                "start_time": 6.4386364,
                "end_time": 6.5363636,
                "pitch": 77,
                "velocity": 51,
                "duration": 0.0977273,
                "tempo": 120.0
            },
            {
                "start_time": 6.5522727,
                "end_time": 6.7659091,
                "pitch": 79,
                "velocity": 51,
                "duration": 0.2136364,
                "tempo": 120.0
            },
            {
                "start_time": 6.8,
                "end_time": 6.9,
                "pitch": 75,
                "velocity": 51,
                "duration": 0.1,
                "tempo": 120.0
            },
            {
                "start_time": 6.9181818,
                "end_time": 7.0181818,
                "pitch": 75,
                "velocity": 51,
                "duration": 0.1,
                "tempo": 120.0
            },
            {
                "start_time": 7.0363636,
                "end_time": 7.2545455,
                "pitch": 77,
                "velocity": 51,
                "duration": 0.2181818,
                "tempo": 120.0
            },
            {
                "start_time": 7.2704545,
                "end_time": 7.5090909,
                "pitch": 79,
                "velocity": 51,
                "duration": 0.2386364,
                "tempo": 120.0
            },
            {
                "start_time": 7.5272727,
                "end_time": 7.75,
                "pitch": 77,
                "velocity": 51,
                "duration": 0.2227273,
                "tempo": 120.0
            },
            {
                "start_time": 7.7659091,
                "end_time": 8.4681818,
                "pitch": 70,
                "velocity": 51,
                "duration": 0.7022727,
                "tempo": 120.0
            },
            {
                "start_time": 8.4863636,
                "end_time": 8.5863636,
                "pitch": 70,
                "velocity": 51,
                "duration": 0.1,
                "tempo": 120.0
            },
            {
                "start_time": 8.6181818,
                "end_time": 8.7181818,
                "pitch": 72,
                "velocity": 51,
                "duration": 0.1,
                "tempo": 120.0
            },
            {
                "start_time": 8.7340909,
                "end_time": 9.4295455,
                "pitch": 70,
                "velocity": 51,
                "duration": 0.6954545,
                "tempo": 120.0
            },
            {
                "start_time": 9.4477273,
                "end_time": 9.5477273,
                "pitch": 65,
                "velocity": 51,
                "duration": 0.1,
                "tempo": 120.0
            },
            {
                "start_time": 9.5659091,
                "end_time": 9.6659091,
                "pitch": 67,
                "velocity": 51,
                "duration": 0.1,
                "tempo": 120.0
            },
            {
                "start_time": 9.6818182,
                "end_time": 9.9227273,
                "pitch": 70,
                "velocity": 51,
                "duration": 0.2409091,
                "tempo": 120.0
            },
            {
                "start_time": 9.9386364,
                "end_time": 10.1613636,
                "pitch": 70,
                "velocity": 51,
                "duration": 0.2227273,
                "tempo": 120.0
            },
            {
                "start_time": 10.1772727,
                "end_time": 10.3954545,
                "pitch": 67,
                "velocity": 51,
                "duration": 0.2181818,
                "tempo": 120.0
            },
            {
                "start_time": 10.4295455,
                "end_time": 10.8840909,
                "pitch": 70,
                "velocity": 51,
                "duration": 0.4545455,
                "tempo": 120.0
            },
            {
                "start_time": 10.9,
                "end_time": 11.1340909,
                "pitch": 70,
                "velocity": 51,
                "duration": 0.2340909,
                "tempo": 120.0
            },
            {
                "start_time": 11.15,
                "end_time": 11.3636364,
                "pitch": 67,
                "velocity": 51,
                "duration": 0.2136364,
                "tempo": 120.0
            },
            {
                "start_time": 11.3795455,
                "end_time": 11.5931818,
                "pitch": 65,
                "velocity": 51,
                "duration": 0.2136364,
                "tempo": 120.0
            },
            {
                "start_time": 11.6272727,
                "end_time": 11.7272727,
                "pitch": 82,
                "velocity": 51,
                "duration": 0.1,
                "tempo": 120.0
            },
            {
                "start_time": 11.7431818,
                "end_time": 11.8431818,
                "pitch": 82,
                "velocity": 51,
                "duration": 0.1,
                "tempo": 120.0
            },
            {
                "start_time": 11.8613636,
                "end_time": 12.0772727,
                "pitch": 82,
                "velocity": 51,
                "duration": 0.2159091,
                "tempo": 120.0
            },
            {
                "start_time": 12.0954545,
                "end_time": 12.1977273,
                "pitch": 77,
                "velocity": 51,
                "duration": 0.1022727,
                "tempo": 120.0
            },
            {
                "start_time": 12.2318182,
                "end_time": 12.3340909,
                "pitch": 77,
                "velocity": 51,
                "duration": 0.1022727,
                "tempo": 120.0
            },
            {
                "start_time": 12.35,
                "end_time": 12.5727273,
                "pitch": 79,
                "velocity": 51,
                "duration": 0.2227273,
                "tempo": 120.0
            },
            {
                "start_time": 12.5886364,
                "end_time": 12.6909091,
                "pitch": 75,
                "velocity": 51,
                "duration": 0.1022727,
                "tempo": 120.0
            },
            {
                "start_time": 12.7068182,
                "end_time": 12.8068182,
                "pitch": 75,
                "velocity": 51,
                "duration": 0.1,
                "tempo": 120.0
            },
            {
                "start_time": 12.8409091,
                "end_time": 13.0590909,
                "pitch": 77,
                "velocity": 51,
                "duration": 0.2181818,
                "tempo": 120.0
            },
            {
                "start_time": 13.0772727,
                "end_time": 13.2954545,
                "pitch": 79,
                "velocity": 51,
                "duration": 0.2181818,
                "tempo": 120.0
            },
            {
                "start_time": 13.3113636,
                "end_time": 13.5454545,
                "pitch": 77,
                "velocity": 51,
                "duration": 0.2340909,
                "tempo": 120.0
            },
            {
                "start_time": 13.5613636,
                "end_time": 13.6613636,
                "pitch": 82,
                "velocity": 51,
                "duration": 0.1,
                "tempo": 120.0
            },
            {
                "start_time": 13.6772727,
                "end_time": 13.775,
                "pitch": 82,
                "velocity": 51,
                "duration": 0.0977273,
                "tempo": 120.0
            },
            {
                "start_time": 13.7909091,
                "end_time": 14.0045455,
                "pitch": 82,
                "velocity": 51,
                "duration": 0.2136364,
                "tempo": 120.0
            },
            {
                "start_time": 14.0409091,
                "end_time": 14.1431818,
                "pitch": 77,
                "velocity": 51,
                "duration": 0.1022727,
                "tempo": 120.0
            },
            {
                "start_time": 14.1590909,
                "end_time": 14.2613636,
                "pitch": 77,
                "velocity": 51,
                "duration": 0.1022727,
                "tempo": 120.0
            },
            {
                "start_time": 14.2795455,
                "end_time": 14.5,
                "pitch": 79,
                "velocity": 51,
                "duration": 0.2204545,
                "tempo": 120.0
            },
            {
                "start_time": 14.5159091,
                "end_time": 14.6136364,
                "pitch": 75,
                "velocity": 51,
                "duration": 0.0977273,
                "tempo": 120.0
            },
            {
                "start_time": 14.6477273,
                "end_time": 14.7454545,
                "pitch": 75,
                "velocity": 51,
                "duration": 0.0977273,
                "tempo": 120.0
            },
            {
                "start_time": 14.7613636,
                "end_time": 14.9772727,
                "pitch": 77,
                "velocity": 51,
                "duration": 0.2159091,
                "tempo": 120.0
            },
            {
                "start_time": 14.9931818,
                "end_time": 15.2159091,
                "pitch": 79,
                "velocity": 51,
                "duration": 0.2227273,
                "tempo": 120.0
            },
            {
                "start_time": 15.25,
                "end_time": 15.4704545,
                "pitch": 77,
                "velocity": 51,
                "duration": 0.2204545,
                "tempo": 120.0
            },
            {
                "start_time": 15.4886364,
                "end_time": 15.9568182,
                "pitch": 70,
                "velocity": 51,
                "duration": 0.4681818,
                "tempo": 120.0
            },
            {
                "start_time": 15.9727273,
                "end_time": 16.4181818,
                "pitch": 77,
                "velocity": 51,
                "duration": 0.4454545,
                "tempo": 120.0
            },
            {
                "start_time": 16.45,
                "end_time": 16.9,
                "pitch": 79,
                "velocity": 51,
                "duration": 0.45,
                "tempo": 120.0
            },
            {
                "start_time": 16.9181818,
                "end_time": 17.3954545,
                "pitch": 82,
                "velocity": 51,
                "duration": 0.4772727,
                "tempo": 120.0
            },
            {
                "start_time": 17.4113636,
                "end_time": 17.5136364,
                "pitch": 84,
                "velocity": 51,
                "duration": 0.1022727,
                "tempo": 120.0
            },
            {
                "start_time": 17.5295455,
                "end_time": 17.6318182,
                "pitch": 82,
                "velocity": 51,
                "duration": 0.1022727,
                "tempo": 120.0
            },
            {
                "start_time": 17.6636364,
                "end_time": 17.7659091,
                "pitch": 79,
                "velocity": 51,
                "duration": 0.1022727,
                "tempo": 120.0
            },
            {
                "start_time": 17.7818182,
                "end_time": 17.8818182,
                "pitch": 82,
                "velocity": 51,
                "duration": 0.1,
                "tempo": 120.0
            },
            {
                "start_time": 17.9,
                "end_time": 18.0022727,
                "pitch": 79,
                "velocity": 51,
                "duration": 0.1022727,
                "tempo": 120.0
            },
            {
                "start_time": 18.0204545,
                "end_time": 18.1227273,
                "pitch": 77,
                "velocity": 51,
                "duration": 0.1022727,
                "tempo": 120.0
            },
            {
                "start_time": 18.1386364,
                "end_time": 18.2409091,
                "pitch": 77,
                "velocity": 51,
                "duration": 0.1022727,
                "tempo": 120.0
            },
            {
                "start_time": 18.275,
                "end_time": 18.375,
                "pitch": 73,
                "velocity": 51,
                "duration": 0.1,
                "tempo": 120.0
            },
            {
                "start_time": 18.3909091,
                "end_time": 18.4886364,
                "pitch": 77,
                "velocity": 51,
                "duration": 0.0977273,
                "tempo": 120.0
            },
            {
                "start_time": 18.5045455,
                "end_time": 18.6,
                "pitch": 73,
                "velocity": 51,
                "duration": 0.0954545,
                "tempo": 120.0
            },
            {
                "start_time": 18.6159091,
                "end_time": 18.7113636,
                "pitch": 79,
                "velocity": 51,
                "duration": 0.0954545,
                "tempo": 120.0
            },
            {
                "start_time": 18.7295455,
                "end_time": 18.825,
                "pitch": 77,
                "velocity": 51,
                "duration": 0.0954545,
                "tempo": 120.0
            },
            {
                "start_time": 18.8590909,
                "end_time": 18.9590909,
                "pitch": 73,
                "velocity": 51,
                "duration": 0.1,
                "tempo": 120.0
            },
            {
                "start_time": 18.9772727,
                "end_time": 19.0772727,
                "pitch": 72,
                "velocity": 51,
                "duration": 0.1,
                "tempo": 120.0
            },
            {
                "start_time": 19.0954545,
                "end_time": 19.1954545,
                "pitch": 70,
                "velocity": 51,
                "duration": 0.1,
                "tempo": 120.0
            },
            {
                "start_time": 19.2113636,
                "end_time": 19.3136364,
                "pitch": 73,
                "velocity": 51,
                "duration": 0.1022727,
                "tempo": 120.0
            },
            {
                "start_time": 19.3295455,
                "end_time": 19.8068182,
                "pitch": 70,
                "velocity": 51,
                "duration": 0.4772727,
                "tempo": 120.0
            },
            {
                "start_time": 19.825,
                "end_time": 20.2954545,
                "pitch": 77,
                "velocity": 51,
                "duration": 0.4704545,
                "tempo": 120.0
            },
            {
                "start_time": 20.3113636,
                "end_time": 20.7818182,
                "pitch": 79,
                "velocity": 51,
                "duration": 0.4704545,
                "tempo": 120.0
            },
            {
                "start_time": 20.7977273,
                "end_time": 21.2409091,
                "pitch": 82,
                "velocity": 51,
                "duration": 0.4431818,
                "tempo": 120.0
            },
            {
                "start_time": 21.275,
                "end_time": 21.7295455,
                "pitch": 70,
                "velocity": 51,
                "duration": 0.4545455,
                "tempo": 120.0
            },
            {
                "start_time": 21.7454545,
                "end_time": 22.2227273,
                "pitch": 72,
                "velocity": 51,
                "duration": 0.4772727,
                "tempo": 120.0
            },
            {
                "start_time": 22.2409091,
                "end_time": 23.2045455,
                "pitch": 67,
                "velocity": 51,
                "duration": 0.9636364,
                "tempo": 120.0
            },
            {
                "start_time": 23.2204545,
                "end_time": 23.6522727,
                "pitch": 70,
                "velocity": 51,
                "duration": 0.4318182,
                "tempo": 120.0
            },
            {
                "start_time": 23.6863636,
                "end_time": 24.1477273,
                "pitch": 77,
                "velocity": 51,
                "duration": 0.4613636,
                "tempo": 120.0
            },
            {
                "start_time": 24.1659091,
                "end_time": 24.6363636,
                "pitch": 79,
                "velocity": 51,
                "duration": 0.4704545,
                "tempo": 120.0
            },
            {
                "start_time": 24.6522727,
                "end_time": 25.1227273,
                "pitch": 82,
                "velocity": 51,
                "duration": 0.4704545,
                "tempo": 120.0
            },
            {
                "start_time": 25.1386364,
                "end_time": 25.2409091,
                "pitch": 84,
                "velocity": 51,
                "duration": 0.1022727,
                "tempo": 120.0
            },
            {
                "start_time": 25.2568182,
                "end_time": 25.3568182,
                "pitch": 82,
                "velocity": 51,
                "duration": 0.1,
                "tempo": 120.0
            },
            {
                "start_time": 25.375,
                "end_time": 25.475,
                "pitch": 79,
                "velocity": 51,
                "duration": 0.1,
                "tempo": 120.0
            },
            {
                "start_time": 25.5090909,
                "end_time": 25.6090909,
                "pitch": 82,
                "velocity": 51,
                "duration": 0.1,
                "tempo": 120.0
            },
            {
                "start_time": 25.625,
                "end_time": 25.7227273,
                "pitch": 79,
                "velocity": 51,
                "duration": 0.0977273,
                "tempo": 120.0
            },
            {
                "start_time": 25.7409091,
                "end_time": 25.8386364,
                "pitch": 77,
                "velocity": 51,
                "duration": 0.0977273,
                "tempo": 120.0
            },
            {
                "start_time": 25.8545455,
                "end_time": 25.9545455,
                "pitch": 77,
                "velocity": 51,
                "duration": 0.1,
                "tempo": 120.0
            },
            {
                "start_time": 25.9704545,
                "end_time": 26.0681818,
                "pitch": 73,
                "velocity": 51,
                "duration": 0.0977273,
                "tempo": 120.0
            },
            {
                "start_time": 26.1022727,
                "end_time": 26.2022727,
                "pitch": 77,
                "velocity": 51,
                "duration": 0.1,
                "tempo": 120.0
            },
            {
                "start_time": 26.2204545,
                "end_time": 26.3204545,
                "pitch": 73,
                "velocity": 51,
                "duration": 0.1,
                "tempo": 120.0
            },
            {
                "start_time": 26.3363636,
                "end_time": 26.4386364,
                "pitch": 79,
                "velocity": 51,
                "duration": 0.1022727,
                "tempo": 120.0
            },
            {
                "start_time": 26.4545455,
                "end_time": 26.5568182,
                "pitch": 77,
                "velocity": 51,
                "duration": 0.1022727,
                "tempo": 120.0
            },
            {
                "start_time": 26.5727273,
                "end_time": 26.675,
                "pitch": 73,
                "velocity": 51,
                "duration": 0.1022727,
                "tempo": 120.0
            },
            {
                "start_time": 26.7090909,
                "end_time": 26.8113636,
                "pitch": 72,
                "velocity": 51,
                "duration": 0.1022727,
                "tempo": 120.0
            },
            {
                "start_time": 26.8295455,
                "end_time": 26.9318182,
                "pitch": 70,
                "velocity": 51,
                "duration": 0.1022727,
                "tempo": 120.0
            },
            {
                "start_time": 26.9477273,
                "end_time": 27.05,
                "pitch": 73,
                "velocity": 51,
                "duration": 0.1022727,
                "tempo": 120.0
            },
            {
                "start_time": 27.0681818,
                "end_time": 27.5340909,
                "pitch": 70,
                "velocity": 51,
                "duration": 0.4659091,
                "tempo": 120.0
            },
            {
                "start_time": 27.55,
                "end_time": 28.0204545,
                "pitch": 77,
                "velocity": 51,
                "duration": 0.4704545,
                "tempo": 120.0
            },
            {
                "start_time": 28.0363636,
                "end_time": 28.4795455,
                "pitch": 79,
                "velocity": 51,
                "duration": 0.4431818,
                "tempo": 120.0
            },
            {
                "start_time": 28.5136364,
                "end_time": 28.975,
                "pitch": 82,
                "velocity": 51,
                "duration": 0.4613636,
                "tempo": 120.0
            },
            {
                "start_time": 28.9931818,
                "end_time": 29.4636364,
                "pitch": 70,
                "velocity": 51,
                "duration": 0.4704545,
                "tempo": 120.0
            },
            {
                "start_time": 29.4795455,
                "end_time": 29.95,
                "pitch": 72,
                "velocity": 51,
                "duration": 0.4704545,
                "tempo": 120.0
            },
            {
                "start_time": 29.9659091,
                "end_time": 30.8954545,
                "pitch": 67,
                "velocity": 51,
                "duration": 0.9295455,
                "tempo": 120.0
            },
            {
                "start_time": 30.9295455,
                "end_time": 31.0295455,
                "pitch": 89,
                "velocity": 51,
                "duration": 0.1,
                "tempo": 120.0
            },
            {
                "start_time": 31.0477273,
                "end_time": 31.1477273,
                "pitch": 87,
                "velocity": 51,
                "duration": 0.1,
                "tempo": 120.0
            },
            {
                "start_time": 31.1636364,
                "end_time": 31.3840909,
                "pitch": 85,
                "velocity": 51,
                "duration": 0.2204545,
                "tempo": 120.0
            },
            {
                "start_time": 31.4,
                "end_time": 31.5022727,
                "pitch": 82,
                "velocity": 51,
                "duration": 0.1022727,
                "tempo": 120.0
            },
            {
                "start_time": 31.5363636,
                "end_time": 31.6386364,
                "pitch": 82,
                "velocity": 51,
                "duration": 0.1022727,
                "tempo": 120.0
            },
            {
                "start_time": 31.6568182,
                "end_time": 32.4840909,
                "pitch": 84,
                "velocity": 51,
                "duration": 0.8272727,
                "tempo": 120.0
            },
            {
                "start_time": 32.5022727,
                "end_time": 32.6045455,
                "pitch": 77,
                "velocity": 51,
                "duration": 0.1022727,
                "tempo": 120.0
            },
            {
                "start_time": 32.6227273,
                "end_time": 32.725,
                "pitch": 72,
                "velocity": 51,
                "duration": 0.1022727,
                "tempo": 120.0
            },
            {
                "start_time": 32.7590909,
                "end_time": 33.0818182,
                "pitch": 77,
                "velocity": 51,
                "duration": 0.3227273,
                "tempo": 120.0
            },
            {
                "start_time": 33.1,
                "end_time": 33.1954545,
                "pitch": 63,
                "velocity": 51,
                "duration": 0.0954545,
                "tempo": 120.0
            },
            {
                "start_time": 33.2113636,
                "end_time": 33.5636364,
                "pitch": 63,
                "velocity": 51,
                "duration": 0.3522727,
                "tempo": 120.0
            },
            {
                "start_time": 33.5818182,
                "end_time": 33.6840909,
                "pitch": 65,
                "velocity": 51,
                "duration": 0.1022727,
                "tempo": 120.0
            },
            {
                "start_time": 33.7,
                "end_time": 34.0477273,
                "pitch": 65,
                "velocity": 51,
                "duration": 0.3477273,
                "tempo": 120.0
            },
            {
                "start_time": 34.0636364,
                "end_time": 34.1636364,
                "pitch": 69,
                "velocity": 51,
                "duration": 0.1,
                "tempo": 120.0
            },
            {
                "start_time": 34.1795455,
                "end_time": 34.3977273,
                "pitch": 69,
                "velocity": 51,
                "duration": 0.2181818,
                "tempo": 120.0
            },
            {
                "start_time": 34.4159091,
                "end_time": 34.5181818,
                "pitch": 82,
                "velocity": 51,
                "duration": 0.1022727,
                "tempo": 120.0
            },
            {
                "start_time": 34.5522727,
                "end_time": 34.6545455,
                "pitch": 65,
                "velocity": 51,
                "duration": 0.1022727,
                "tempo": 120.0
            },
            {
                "start_time": 34.6704545,
                "end_time": 34.7727273,
                "pitch": 82,
                "velocity": 51,
                "duration": 0.1022727,
                "tempo": 120.0
            },
            {
                "start_time": 34.7909091,
                "end_time": 34.8909091,
                "pitch": 89,
                "velocity": 51,
                "duration": 0.1,
                "tempo": 120.0
            },
            {
                "start_time": 34.9068182,
                "end_time": 35.0068182,
                "pitch": 87,
                "velocity": 51,
                "duration": 0.1,
                "tempo": 120.0
            },
            {
                "start_time": 35.0227273,
                "end_time": 35.2568182,
                "pitch": 85,
                "velocity": 51,
                "duration": 0.2340909,
                "tempo": 120.0
            },
            {
                "start_time": 35.2727273,
                "end_time": 35.3704545,
                "pitch": 82,
                "velocity": 51,
                "duration": 0.0977273,
                "tempo": 120.0
            },
            {
                "start_time": 35.3863636,
                "end_time": 35.4863636,
                "pitch": 82,
                "velocity": 51,
                "duration": 0.1,
                "tempo": 120.0
            },
            {
                "start_time": 35.5022727,
                "end_time": 36.3227273,
                "pitch": 80,
                "velocity": 51,
                "duration": 0.8204545,
                "tempo": 120.0
            },
            {
                "start_time": 36.3568182,
                "end_time": 36.4590909,
                "pitch": 75,
                "velocity": 51,
                "duration": 0.1022727,
                "tempo": 120.0
            },
            {
                "start_time": 36.4772727,
                "end_time": 36.5795455,
                "pitch": 70,
                "velocity": 51,
                "duration": 0.1022727,
                "tempo": 120.0
            },
            {
                "start_time": 36.5954545,
                "end_time": 36.9318182,
                "pitch": 75,
                "velocity": 51,
                "duration": 0.3363636,
                "tempo": 120.0
            },
            {
                "start_time": 36.9636364,
                "end_time": 37.0636364,
                "pitch": 75,
                "velocity": 51,
                "duration": 0.1,
                "tempo": 120.0
            },
            {
                "start_time": 37.0818182,
                "end_time": 37.4136364,
                "pitch": 75,
                "velocity": 51,
                "duration": 0.3318182,
                "tempo": 120.0
            },
            {
                "start_time": 37.4318182,
                "end_time": 37.5318182,
                "pitch": 69,
                "velocity": 51,
                "duration": 0.1,
                "tempo": 120.0
            },
            {
                "start_time": 37.5636364,
                "end_time": 37.8931818,
                "pitch": 69,
                "velocity": 51,
                "duration": 0.3295455,
                "tempo": 120.0
            },
            {
                "start_time": 37.9090909,
                "end_time": 38.0090909,
                "pitch": 65,
                "velocity": 51,
                "duration": 0.1,
                "tempo": 120.0
            },
            {
                "start_time": 38.025,
                "end_time": 38.2568182,
                "pitch": 65,
                "velocity": 51,
                "duration": 0.2318182,
                "tempo": 120.0
            },
            {
                "start_time": 38.2727273,
                "end_time": 38.3727273,
                "pitch": 72,
                "velocity": 51,
                "duration": 0.1,
                "tempo": 120.0
            },
            {
                "start_time": 38.3909091,
                "end_time": 38.4909091,
                "pitch": 67,
                "velocity": 51,
                "duration": 0.1,
                "tempo": 120.0
            },
            {
                "start_time": 38.5068182,
                "end_time": 38.6068182,
                "pitch": 72,
                "velocity": 51,
                "duration": 0.1,
                "tempo": 120.0
            },
            {
                "start_time": 38.6227273,
                "end_time": 38.7227273,
                "pitch": 89,
                "velocity": 51,
                "duration": 0.1,
                "tempo": 120.0
            },
            {
                "start_time": 38.7568182,
                "end_time": 38.8568182,
                "pitch": 87,
                "velocity": 51,
                "duration": 0.1,
                "tempo": 120.0
            },
            {
                "start_time": 38.8727273,
                "end_time": 39.0909091,
                "pitch": 85,
                "velocity": 51,
                "duration": 0.2181818,
                "tempo": 120.0
            },
            {
                "start_time": 39.1068182,
                "end_time": 39.2090909,
                "pitch": 82,
                "velocity": 51,
                "duration": 0.1022727,
                "tempo": 120.0
            },
            {
                "start_time": 39.2272727,
                "end_time": 39.3295455,
                "pitch": 82,
                "velocity": 51,
                "duration": 0.1022727,
                "tempo": 120.0
            },
            {
                "start_time": 39.3636364,
                "end_time": 40.1863636,
                "pitch": 84,
                "velocity": 51,
                "duration": 0.8227273,
                "tempo": 120.0
            },
            {
                "start_time": 40.2022727,
                "end_time": 40.3022727,
                "pitch": 77,
                "velocity": 51,
                "duration": 0.1,
                "tempo": 120.0
            },
            {
                "start_time": 40.3181818,
                "end_time": 40.4159091,
                "pitch": 72,
                "velocity": 51,
                "duration": 0.0977273,
                "tempo": 120.0
            },
            {
                "start_time": 40.4318182,
                "end_time": 40.7818182,
                "pitch": 77,
                "velocity": 51,
                "duration": 0.35,
                "tempo": 120.0
            },
            {
                "start_time": 40.7977273,
                "end_time": 40.8977273,
                "pitch": 63,
                "velocity": 51,
                "duration": 0.1,
                "tempo": 120.0
            },
            {
                "start_time": 40.9136364,
                "end_time": 41.2704545,
                "pitch": 63,
                "velocity": 51,
                "duration": 0.3568182,
                "tempo": 120.0
            },
            {
                "start_time": 41.2886364,
                "end_time": 41.3909091,
                "pitch": 65,
                "velocity": 51,
                "duration": 0.1022727,
                "tempo": 120.0
            },
            {
                "start_time": 41.4068182,
                "end_time": 41.7431818,
                "pitch": 65,
                "velocity": 51,
                "duration": 0.3363636,
                "tempo": 120.0
            },
            {
                "start_time": 41.7772727,
                "end_time": 41.8772727,
                "pitch": 69,
                "velocity": 51,
                "duration": 0.1,
                "tempo": 120.0
            },
            {
                "start_time": 41.8931818,
                "end_time": 42.1136364,
                "pitch": 69,
                "velocity": 51,
                "duration": 0.2204545,
                "tempo": 120.0
            },
            {
                "start_time": 42.1295455,
                "end_time": 42.2318182,
                "pitch": 82,
                "velocity": 51,
                "duration": 0.1022727,
                "tempo": 120.0
            },
            {
                "start_time": 42.25,
                "end_time": 42.3522727,
                "pitch": 65,
                "velocity": 51,
                "duration": 0.1022727,
                "tempo": 120.0
            },
            {
                "start_time": 42.3863636,
                "end_time": 42.4863636,
                "pitch": 82,
                "velocity": 51,
                "duration": 0.1,
                "tempo": 120.0
            },
            {
                "start_time": 42.5022727,
                "end_time": 42.5977273,
                "pitch": 89,
                "velocity": 51,
                "duration": 0.0954545,
                "tempo": 120.0
            },
            {
                "start_time": 42.6136364,
                "end_time": 42.7113636,
                "pitch": 87,
                "velocity": 51,
                "duration": 0.0977273,
                "tempo": 120.0
            },
            {
                "start_time": 42.7272727,
                "end_time": 42.9363636,
                "pitch": 85,
                "velocity": 51,
                "duration": 0.2090909,
                "tempo": 120.0
            },
            {
                "start_time": 42.9704545,
                "end_time": 43.0727273,
                "pitch": 82,
                "velocity": 51,
                "duration": 0.1022727,
                "tempo": 120.0
            },
            {
                "start_time": 43.0886364,
                "end_time": 43.1909091,
                "pitch": 82,
                "velocity": 51,
                "duration": 0.1022727,
                "tempo": 120.0
            },
            {
                "start_time": 43.2090909,
                "end_time": 44.025,
                "pitch": 80,
                "velocity": 51,
                "duration": 0.8159091,
                "tempo": 120.0
            },
            {
                "start_time": 44.0431818,
                "end_time": 44.1454545,
                "pitch": 75,
                "velocity": 51,
                "duration": 0.1022727,
                "tempo": 120.0
            },
            {
                "start_time": 44.1795455,
                "end_time": 44.2818182,
                "pitch": 68,
                "velocity": 51,
                "duration": 0.1022727,
                "tempo": 120.0
            },
            {
                "start_time": 44.2977273,
                "end_time": 44.6340909,
                "pitch": 75,
                "velocity": 51,
                "duration": 0.3363636,
                "tempo": 120.0
            },
            {
                "start_time": 44.65,
                "end_time": 44.75,
                "pitch": 70,
                "velocity": 51,
                "duration": 0.1,
                "tempo": 120.0
            },
            {
                "start_time": 44.7840909,
                "end_time": 45.1136364,
                "pitch": 70,
                "velocity": 51,
                "duration": 0.3295455,
                "tempo": 120.0
            },
            {
                "start_time": 45.1295455,
                "end_time": 45.2272727,
                "pitch": 69,
                "velocity": 51,
                "duration": 0.0977273,
                "tempo": 120.0
            },
            {
                "start_time": 45.2454545,
                "end_time": 45.5954545,
                "pitch": 69,
                "velocity": 51,
                "duration": 0.35,
                "tempo": 120.0
            },
            {
                "start_time": 45.6113636,
                "end_time": 45.7136364,
                "pitch": 68,
                "velocity": 51,
                "duration": 0.1022727,
                "tempo": 120.0
            },
            {
                "start_time": 45.7295455,
                "end_time": 45.8318182,
                "pitch": 65,
                "velocity": 51,
                "duration": 0.1022727,
                "tempo": 120.0
            },
            {
                "start_time": 45.8477273,
                "end_time": 45.95,
                "pitch": 63,
                "velocity": 51,
                "duration": 0.1022727,
                "tempo": 120.0
            },
            {
                "start_time": 45.9840909,
                "end_time": 46.0863636,
                "pitch": 72,
                "velocity": 51,
                "duration": 0.1022727,
                "tempo": 120.0
            },
            {
                "start_time": 46.1045455,
                "end_time": 46.2068182,
                "pitch": 72,
                "velocity": 51,
                "duration": 0.1022727,
                "tempo": 120.0
            },
            {
                "start_time": 46.2227273,
                "end_time": 46.2909091,
                "pitch": 72,
                "velocity": 51,
                "duration": 0.0681818,
                "tempo": 120.0
            }
        ],
        "Trumpet": [
            {
                "start_time": 0.0136364,
                "end_time": 0.0295455,
                "pitch": 58,
                "velocity": 40,
                "duration": 0.0159091,
                "tempo": 120.0
            },
            {
                "start_time": 0.0477273,
                "end_time": 0.2863636,
                "pitch": 58,
                "velocity": 40,
                "duration": 0.2386364,
                "tempo": 120.0
            },
            {
                "start_time": 0.3045455,
                "end_time": 0.7590909,
                "pitch": 58,
                "velocity": 40,
                "duration": 0.4545455,
                "tempo": 120.0
            },
            {
                "start_time": 0.7909091,
                "end_time": 0.8909091,
                "pitch": 65,
                "velocity": 40,
                "duration": 0.1,
                "tempo": 120.0
            },
            {
                "start_time": 0.9090909,
                "end_time": 1.0090909,
                "pitch": 67,
                "velocity": 40,
                "duration": 0.1,
                "tempo": 120.0
            },
            {
                "start_time": 1.025,
                "end_time": 1.7204545,
                "pitch": 70,
                "velocity": 40,
                "duration": 0.6954545,
                "tempo": 120.0
            },
            {
                "start_time": 1.7363636,
                "end_time": 1.8363636,
                "pitch": 65,
                "velocity": 40,
                "duration": 0.1,
                "tempo": 120.0
            },
            {
                "start_time": 1.8522727,
                "end_time": 1.95,
                "pitch": 67,
                "velocity": 40,
                "duration": 0.0977273,
                "tempo": 120.0
            },
            {
                "start_time": 1.9840909,
                "end_time": 2.2,
                "pitch": 58,
                "velocity": 40,
                "duration": 0.2159091,
                "tempo": 120.0
            },
            {
                "start_time": 2.2181818,
                "end_time": 2.4340909,
                "pitch": 58,
                "velocity": 40,
                "duration": 0.2159091,
                "tempo": 120.0
            },
            {
                "start_time": 2.4522727,
                "end_time": 2.6909091,
                "pitch": 67,
                "velocity": 40,
                "duration": 0.2386364,
                "tempo": 120.0
            },
            {
                "start_time": 2.7068182,
                "end_time": 3.1613636,
                "pitch": 63,
                "velocity": 40,
                "duration": 0.4545455,
                "tempo": 120.0
            },
            {
                "start_time": 3.1954545,
                "end_time": 3.6522727,
                "pitch": 60,
                "velocity": 40,
                "duration": 0.4568182,
                "tempo": 120.0
            },
            {
                "start_time": 3.6681818,
                "end_time": 3.9068182,
                "pitch": 58,
                "velocity": 40,
                "duration": 0.2386364,
                "tempo": 120.0
            },
            {
                "start_time": 3.9227273,
                "end_time": 5.5636364,
                "pitch": 63,
                "velocity": 40,
                "duration": 1.6409091,
                "tempo": 120.0
            },
            {
                "start_time": 5.5977273,
                "end_time": 5.8204545,
                "pitch": 65,
                "velocity": 40,
                "duration": 0.2227273,
                "tempo": 120.0
            },
            {
                "start_time": 5.8363636,
                "end_time": 7.75,
                "pitch": 63,
                "velocity": 40,
                "duration": 1.9136364,
                "tempo": 120.0
            },
            {
                "start_time": 7.7659091,
                "end_time": 7.9840909,
                "pitch": 58,
                "velocity": 40,
                "duration": 0.2181818,
                "tempo": 120.0
            },
            {
                "start_time": 8.0181818,
                "end_time": 8.4681818,
                "pitch": 58,
                "velocity": 40,
                "duration": 0.45,
                "tempo": 120.0
            },
            {
                "start_time": 8.4863636,
                "end_time": 8.5863636,
                "pitch": 65,
                "velocity": 40,
                "duration": 0.1,
                "tempo": 120.0
            },
            {
                "start_time": 8.6181818,
                "end_time": 8.7181818,
                "pitch": 67,
                "velocity": 40,
                "duration": 0.1,
                "tempo": 120.0
            },
            {
                "start_time": 8.7340909,
                "end_time": 9.4295455,
                "pitch": 70,
                "velocity": 40,
                "duration": 0.6954545,
                "tempo": 120.0
            },
            {
                "start_time": 9.4477273,
                "end_time": 9.5477273,
                "pitch": 65,
                "velocity": 40,
                "duration": 0.1,
                "tempo": 120.0
            },
            {
                "start_time": 9.5659091,
                "end_time": 9.6659091,
                "pitch": 67,
                "velocity": 40,
                "duration": 0.1,
                "tempo": 120.0
            },
            {
                "start_time": 9.6818182,
                "end_time": 9.9227273,
                "pitch": 70,
                "velocity": 40,
                "duration": 0.2409091,
                "tempo": 120.0
            },
            {
                "start_time": 9.9386364,
                "end_time": 10.1613636,
                "pitch": 70,
                "velocity": 40,
                "duration": 0.2227273,
                "tempo": 120.0
            },
            {
                "start_time": 10.1772727,
                "end_time": 10.3954545,
                "pitch": 67,
                "velocity": 40,
                "duration": 0.2181818,
                "tempo": 120.0
            },
            {
                "start_time": 10.4295455,
                "end_time": 10.8840909,
                "pitch": 70,
                "velocity": 40,
                "duration": 0.4545455,
                "tempo": 120.0
            },
            {
                "start_time": 10.9,
                "end_time": 11.1340909,
                "pitch": 70,
                "velocity": 40,
                "duration": 0.2340909,
                "tempo": 120.0
            },
            {
                "start_time": 11.15,
                "end_time": 11.3636364,
                "pitch": 67,
                "velocity": 40,
                "duration": 0.2136364,
                "tempo": 120.0
            },
            {
                "start_time": 11.3795455,
                "end_time": 11.5931818,
                "pitch": 65,
                "velocity": 40,
                "duration": 0.2136364,
                "tempo": 120.0
            },
            {
                "start_time": 11.6272727,
                "end_time": 13.2954545,
                "pitch": 63,
                "velocity": 40,
                "duration": 1.6681818,
                "tempo": 120.0
            },
            {
                "start_time": 13.3113636,
                "end_time": 13.4113636,
                "pitch": 63,
                "velocity": 40,
                "duration": 0.1,
                "tempo": 120.0
            },
            {
                "start_time": 13.4454545,
                "end_time": 13.5454545,
                "pitch": 65,
                "velocity": 40,
                "duration": 0.1,
                "tempo": 120.0
            },
            {
                "start_time": 13.5613636,
                "end_time": 15.4704545,
                "pitch": 63,
                "velocity": 40,
                "duration": 1.9090909,
                "tempo": 120.0
            },
            {
                "start_time": 15.4886364,
                "end_time": 15.9568182,
                "pitch": 63,
                "velocity": 40,
                "duration": 0.4681818,
                "tempo": 120.0
            },
            {
                "start_time": 15.9727273,
                "end_time": 16.4181818,
                "pitch": 72,
                "velocity": 40,
                "duration": 0.4454545,
                "tempo": 120.0
            },
            {
                "start_time": 16.45,
                "end_time": 16.9,
                "pitch": 67,
                "velocity": 40,
                "duration": 0.45,
                "tempo": 120.0
            },
            {
                "start_time": 16.9181818,
                "end_time": 17.3954545,
                "pitch": 70,
                "velocity": 40,
                "duration": 0.4772727,
                "tempo": 120.0
            },
            {
                "start_time": 17.4113636,
                "end_time": 17.5136364,
                "pitch": 79,
                "velocity": 40,
                "duration": 0.1022727,
                "tempo": 120.0
            },
            {
                "start_time": 17.5295455,
                "end_time": 17.6318182,
                "pitch": 77,
                "velocity": 40,
                "duration": 0.1022727,
                "tempo": 120.0
            },
            {
                "start_time": 17.6636364,
                "end_time": 17.7659091,
                "pitch": 73,
                "velocity": 40,
                "duration": 0.1022727,
                "tempo": 120.0
            },
            {
                "start_time": 17.7818182,
                "end_time": 17.8818182,
                "pitch": 77,
                "velocity": 40,
                "duration": 0.1,
                "tempo": 120.0
            },
            {
                "start_time": 17.9,
                "end_time": 18.0022727,
                "pitch": 73,
                "velocity": 40,
                "duration": 0.1022727,
                "tempo": 120.0
            },
            {
                "start_time": 18.0204545,
                "end_time": 18.1227273,
                "pitch": 72,
                "velocity": 40,
                "duration": 0.1022727,
                "tempo": 120.0
            },
            {
                "start_time": 18.1386364,
                "end_time": 18.2409091,
                "pitch": 72,
                "velocity": 40,
                "duration": 0.1022727,
                "tempo": 120.0
            },
            {
                "start_time": 18.275,
                "end_time": 18.375,
                "pitch": 68,
                "velocity": 40,
                "duration": 0.1,
                "tempo": 120.0
            },
            {
                "start_time": 18.3909091,
                "end_time": 18.4886364,
                "pitch": 72,
                "velocity": 40,
                "duration": 0.0977273,
                "tempo": 120.0
            },
            {
                "start_time": 18.5045455,
                "end_time": 18.6,
                "pitch": 68,
                "velocity": 40,
                "duration": 0.0954545,
                "tempo": 120.0
            },
            {
                "start_time": 18.6159091,
                "end_time": 18.7113636,
                "pitch": 73,
                "velocity": 40,
                "duration": 0.0954545,
                "tempo": 120.0
            },
            {
                "start_time": 18.7295455,
                "end_time": 18.825,
                "pitch": 72,
                "velocity": 40,
                "duration": 0.0954545,
                "tempo": 120.0
            },
            {
                "start_time": 18.8590909,
                "end_time": 18.9590909,
                "pitch": 68,
                "velocity": 40,
                "duration": 0.1,
                "tempo": 120.0
            },
            {
                "start_time": 18.9772727,
                "end_time": 19.0772727,
                "pitch": 67,
                "velocity": 40,
                "duration": 0.1,
                "tempo": 120.0
            },
            {
                "start_time": 19.0954545,
                "end_time": 19.1954545,
                "pitch": 65,
                "velocity": 40,
                "duration": 0.1,
                "tempo": 120.0
            },
            {
                "start_time": 19.2113636,
                "end_time": 19.3136364,
                "pitch": 68,
                "velocity": 40,
                "duration": 0.1022727,
                "tempo": 120.0
            },
            {
                "start_time": 19.3295455,
                "end_time": 19.8068182,
                "pitch": 65,
                "velocity": 40,
                "duration": 0.4772727,
                "tempo": 120.0
            },
            {
                "start_time": 19.825,
                "end_time": 20.2954545,
                "pitch": 72,
                "velocity": 40,
                "duration": 0.4704545,
                "tempo": 120.0
            },
            {
                "start_time": 20.3113636,
                "end_time": 20.7818182,
                "pitch": 67,
                "velocity": 40,
                "duration": 0.4704545,
                "tempo": 120.0
            },
            {
                "start_time": 20.7977273,
                "end_time": 21.2409091,
                "pitch": 70,
                "velocity": 40,
                "duration": 0.4431818,
                "tempo": 120.0
            },
            {
                "start_time": 21.275,
                "end_time": 21.7295455,
                "pitch": 63,
                "velocity": 40,
                "duration": 0.4545455,
                "tempo": 120.0
            },
            {
                "start_time": 21.7454545,
                "end_time": 22.2227273,
                "pitch": 67,
                "velocity": 40,
                "duration": 0.4772727,
                "tempo": 120.0
            },
            {
                "start_time": 22.2409091,
                "end_time": 23.2045455,
                "pitch": 60,
                "velocity": 40,
                "duration": 0.9636364,
                "tempo": 120.0
            },
            {
                "start_time": 23.2204545,
                "end_time": 23.6522727,
                "pitch": 65,
                "velocity": 40,
                "duration": 0.4318182,
                "tempo": 120.0
            },
            {
                "start_time": 23.6863636,
                "end_time": 24.1477273,
                "pitch": 72,
                "velocity": 40,
                "duration": 0.4613636,
                "tempo": 120.0
            },
            {
                "start_time": 24.1659091,
                "end_time": 24.6363636,
                "pitch": 67,
                "velocity": 40,
                "duration": 0.4704545,
                "tempo": 120.0
            },
            {
                "start_time": 24.6522727,
                "end_time": 25.1227273,
                "pitch": 70,
                "velocity": 40,
                "duration": 0.4704545,
                "tempo": 120.0
            },
            {
                "start_time": 25.1386364,
                "end_time": 25.2409091,
                "pitch": 79,
                "velocity": 40,
                "duration": 0.1022727,
                "tempo": 120.0
            },
            {
                "start_time": 25.2568182,
                "end_time": 25.3568182,
                "pitch": 77,
                "velocity": 40,
                "duration": 0.1,
                "tempo": 120.0
            },
            {
                "start_time": 25.375,
                "end_time": 25.475,
                "pitch": 73,
                "velocity": 40,
                "duration": 0.1,
                "tempo": 120.0
            },
            {
                "start_time": 25.5090909,
                "end_time": 25.6090909,
                "pitch": 77,
                "velocity": 40,
                "duration": 0.1,
                "tempo": 120.0
            },
            {
                "start_time": 25.625,
                "end_time": 25.7227273,
                "pitch": 73,
                "velocity": 40,
                "duration": 0.0977273,
                "tempo": 120.0
            },
            {
                "start_time": 25.7409091,
                "end_time": 25.8386364,
                "pitch": 72,
                "velocity": 40,
                "duration": 0.0977273,
                "tempo": 120.0
            },
            {
                "start_time": 25.8545455,
                "end_time": 25.9545455,
                "pitch": 72,
                "velocity": 40,
                "duration": 0.1,
                "tempo": 120.0
            },
            {
                "start_time": 25.9704545,
                "end_time": 26.0681818,
                "pitch": 68,
                "velocity": 40,
                "duration": 0.0977273,
                "tempo": 120.0
            },
            {
                "start_time": 26.1022727,
                "end_time": 26.2022727,
                "pitch": 72,
                "velocity": 40,
                "duration": 0.1,
                "tempo": 120.0
            },
            {
                "start_time": 26.2204545,
                "end_time": 26.3204545,
                "pitch": 68,
                "velocity": 40,
                "duration": 0.1,
                "tempo": 120.0
            },
            {
                "start_time": 26.3363636,
                "end_time": 26.4386364,
                "pitch": 73,
                "velocity": 40,
                "duration": 0.1022727,
                "tempo": 120.0
            },
            {
                "start_time": 26.4545455,
                "end_time": 26.5568182,
                "pitch": 72,
                "velocity": 40,
                "duration": 0.1022727,
                "tempo": 120.0
            },
            {
                "start_time": 26.5727273,
                "end_time": 26.675,
                "pitch": 68,
                "velocity": 40,
                "duration": 0.1022727,
                "tempo": 120.0
            },
            {
                "start_time": 26.7090909,
                "end_time": 26.8113636,
                "pitch": 67,
                "velocity": 40,
                "duration": 0.1022727,
                "tempo": 120.0
            },
            {
                "start_time": 26.8295455,
                "end_time": 26.9318182,
                "pitch": 65,
                "velocity": 40,
                "duration": 0.1022727,
                "tempo": 120.0
            },
            {
                "start_time": 26.9477273,
                "end_time": 27.05,
                "pitch": 68,
                "velocity": 40,
                "duration": 0.1022727,
                "tempo": 120.0
            },
            {
                "start_time": 27.0681818,
                "end_time": 27.5340909,
                "pitch": 65,
                "velocity": 40,
                "duration": 0.4659091,
                "tempo": 120.0
            },
            {
                "start_time": 27.55,
                "end_time": 28.0204545,
                "pitch": 72,
                "velocity": 40,
                "duration": 0.4704545,
                "tempo": 120.0
            },
            {
                "start_time": 28.0363636,
                "end_time": 28.4795455,
                "pitch": 67,
                "velocity": 40,
                "duration": 0.4431818,
                "tempo": 120.0
            },
            {
                "start_time": 28.5136364,
                "end_time": 28.975,
                "pitch": 70,
                "velocity": 40,
                "duration": 0.4613636,
                "tempo": 120.0
            },
            {
                "start_time": 28.9931818,
                "end_time": 29.4636364,
                "pitch": 63,
                "velocity": 40,
                "duration": 0.4704545,
                "tempo": 120.0
            },
            {
                "start_time": 29.4795455,
                "end_time": 29.9,
                "pitch": 67,
                "velocity": 40,
                "duration": 0.4204545,
                "tempo": 120.0
            },
            {
                "start_time": 29.9318182,
                "end_time": 30.8954545,
                "pitch": 60,
                "velocity": 40,
                "duration": 0.9636364,
                "tempo": 120.0
            },
            {
                "start_time": 30.9295455,
                "end_time": 31.0295455,
                "pitch": 84,
                "velocity": 40,
                "duration": 0.1,
                "tempo": 120.0
            },
            {
                "start_time": 31.0477273,
                "end_time": 31.1477273,
                "pitch": 82,
                "velocity": 40,
                "duration": 0.1,
                "tempo": 120.0
            },
            {
                "start_time": 31.1636364,
                "end_time": 31.3840909,
                "pitch": 85,
                "velocity": 40,
                "duration": 0.2204545,
                "tempo": 120.0
            },
            {
                "start_time": 31.4,
                "end_time": 31.5022727,
                "pitch": 85,
                "velocity": 40,
                "duration": 0.1022727,
                "tempo": 120.0
            },
            {
                "start_time": 31.5363636,
                "end_time": 31.6386364,
                "pitch": 85,
                "velocity": 40,
                "duration": 0.1022727,
                "tempo": 120.0
            },
            {
                "start_time": 31.6568182,
                "end_time": 32.4840909,
                "pitch": 80,
                "velocity": 40,
                "duration": 0.8272727,
                "tempo": 120.0
            },
            {
                "start_time": 32.5022727,
                "end_time": 32.6045455,
                "pitch": 73,
                "velocity": 40,
                "duration": 0.1022727,
                "tempo": 120.0
            },
            {
                "start_time": 32.6227273,
                "end_time": 32.725,
                "pitch": 68,
                "velocity": 40,
                "duration": 0.1022727,
                "tempo": 120.0
            },
            {
                "start_time": 32.7590909,
                "end_time": 33.0818182,
                "pitch": 73,
                "velocity": 40,
                "duration": 0.3227273,
                "tempo": 120.0
            },
            {
                "start_time": 33.1,
                "end_time": 33.1954545,
                "pitch": 60,
                "velocity": 40,
                "duration": 0.0954545,
                "tempo": 120.0
            },
            {
                "start_time": 33.2113636,
                "end_time": 33.5636364,
                "pitch": 60,
                "velocity": 40,
                "duration": 0.3522727,
                "tempo": 120.0
            },
            {
                "start_time": 33.5818182,
                "end_time": 34.0477273,
                "pitch": 61,
                "velocity": 40,
                "duration": 0.4659091,
                "tempo": 120.0
            },
            {
                "start_time": 34.0636364,
                "end_time": 34.1636364,
                "pitch": 60,
                "velocity": 40,
                "duration": 0.1,
                "tempo": 120.0
            },
            {
                "start_time": 34.1795455,
                "end_time": 34.3977273,
                "pitch": 69,
                "velocity": 40,
                "duration": 0.2181818,
                "tempo": 120.0
            },
            {
                "start_time": 34.4159091,
                "end_time": 34.5181818,
                "pitch": 79,
                "velocity": 40,
                "duration": 0.1022727,
                "tempo": 120.0
            },
            {
                "start_time": 34.5522727,
                "end_time": 34.6545455,
                "pitch": 61,
                "velocity": 40,
                "duration": 0.1022727,
                "tempo": 120.0
            },
            {
                "start_time": 34.6704545,
                "end_time": 34.7727273,
                "pitch": 79,
                "velocity": 40,
                "duration": 0.1022727,
                "tempo": 120.0
            },
            {
                "start_time": 34.7909091,
                "end_time": 34.8909091,
                "pitch": 85,
                "velocity": 40,
                "duration": 0.1,
                "tempo": 120.0
            },
            {
                "start_time": 34.9068182,
                "end_time": 35.0068182,
                "pitch": 84,
                "velocity": 40,
                "duration": 0.1,
                "tempo": 120.0
            },
            {
                "start_time": 35.0227273,
                "end_time": 35.2568182,
                "pitch": 82,
                "velocity": 40,
                "duration": 0.2340909,
                "tempo": 120.0
            },
            {
                "start_time": 35.2727273,
                "end_time": 35.3704545,
                "pitch": 77,
                "velocity": 40,
                "duration": 0.0977273,
                "tempo": 120.0
            },
            {
                "start_time": 35.3863636,
                "end_time": 35.4863636,
                "pitch": 77,
                "velocity": 40,
                "duration": 0.1,
                "tempo": 120.0
            },
            {
                "start_time": 35.5022727,
                "end_time": 36.3227273,
                "pitch": 77,
                "velocity": 40,
                "duration": 0.8204545,
                "tempo": 120.0
            },
            {
                "start_time": 36.3568182,
                "end_time": 36.4590909,
                "pitch": 72,
                "velocity": 40,
                "duration": 0.1022727,
                "tempo": 120.0
            },
            {
                "start_time": 36.4772727,
                "end_time": 36.5795455,
                "pitch": 67,
                "velocity": 40,
                "duration": 0.1022727,
                "tempo": 120.0
            },
            {
                "start_time": 36.5954545,
                "end_time": 36.9318182,
                "pitch": 72,
                "velocity": 40,
                "duration": 0.3363636,
                "tempo": 120.0
            },
            {
                "start_time": 36.9636364,
                "end_time": 37.4136364,
                "pitch": 65,
                "velocity": 40,
                "duration": 0.45,
                "tempo": 120.0
            },
            {
                "start_time": 37.4318182,
                "end_time": 37.8931818,
                "pitch": 63,
                "velocity": 40,
                "duration": 0.4613636,
                "tempo": 120.0
            },
            {
                "start_time": 37.9090909,
                "end_time": 38.0090909,
                "pitch": 61,
                "velocity": 40,
                "duration": 0.1,
                "tempo": 120.0
            },
            {
                "start_time": 38.025,
                "end_time": 38.2568182,
                "pitch": 65,
                "velocity": 40,
                "duration": 0.2318182,
                "tempo": 120.0
            },
            {
                "start_time": 38.2727273,
                "end_time": 38.3727273,
                "pitch": 69,
                "velocity": 40,
                "duration": 0.1,
                "tempo": 120.0
            },
            {
                "start_time": 38.3909091,
                "end_time": 38.4909091,
                "pitch": 65,
                "velocity": 40,
                "duration": 0.1,
                "tempo": 120.0
            },
            {
                "start_time": 38.5068182,
                "end_time": 38.6068182,
                "pitch": 69,
                "velocity": 40,
                "duration": 0.1,
                "tempo": 120.0
            },
            {
                "start_time": 38.6227273,
                "end_time": 38.7227273,
                "pitch": 84,
                "velocity": 40,
                "duration": 0.1,
                "tempo": 120.0
            },
            {
                "start_time": 38.7568182,
                "end_time": 38.8568182,
                "pitch": 82,
                "velocity": 40,
                "duration": 0.1,
                "tempo": 120.0
            },
            {
                "start_time": 38.8727273,
                "end_time": 39.0909091,
                "pitch": 85,
                "velocity": 40,
                "duration": 0.2181818,
                "tempo": 120.0
            },
            {
                "start_time": 39.1068182,
                "end_time": 39.2090909,
                "pitch": 82,
                "velocity": 40,
                "duration": 0.1022727,
                "tempo": 120.0
            },
            {
                "start_time": 39.2272727,
                "end_time": 39.3295455,
                "pitch": 82,
                "velocity": 40,
                "duration": 0.1022727,
                "tempo": 120.0
            },
            {
                "start_time": 39.3636364,
                "end_time": 40.1863636,
                "pitch": 80,
                "velocity": 40,
                "duration": 0.8227273,
                "tempo": 120.0
            },
            {
                "start_time": 40.2022727,
                "end_time": 40.3022727,
                "pitch": 73,
                "velocity": 40,
                "duration": 0.1,
                "tempo": 120.0
            },
            {
                "start_time": 40.3181818,
                "end_time": 40.4159091,
                "pitch": 68,
                "velocity": 40,
                "duration": 0.0977273,
                "tempo": 120.0
            },
            {
                "start_time": 40.4318182,
                "end_time": 40.7818182,
                "pitch": 73,
                "velocity": 40,
                "duration": 0.35,
                "tempo": 120.0
            },
            {
                "start_time": 40.7977273,
                "end_time": 40.8977273,
                "pitch": 60,
                "velocity": 40,
                "duration": 0.1,
                "tempo": 120.0
            },
            {
                "start_time": 40.9136364,
                "end_time": 41.2704545,
                "pitch": 60,
                "velocity": 40,
                "duration": 0.3568182,
                "tempo": 120.0
            },
            {
                "start_time": 41.2886364,
                "end_time": 41.7431818,
                "pitch": 61,
                "velocity": 40,
                "duration": 0.4545455,
                "tempo": 120.0
            },
            {
                "start_time": 41.7772727,
                "end_time": 42.1136364,
                "pitch": 60,
                "velocity": 40,
                "duration": 0.3363636,
                "tempo": 120.0
            },
            {
                "start_time": 42.1295455,
                "end_time": 42.2318182,
                "pitch": 79,
                "velocity": 40,
                "duration": 0.1022727,
                "tempo": 120.0
            },
            {
                "start_time": 42.25,
                "end_time": 42.3522727,
                "pitch": 61,
                "velocity": 40,
                "duration": 0.1022727,
                "tempo": 120.0
            },
            {
                "start_time": 42.3863636,
                "end_time": 42.4863636,
                "pitch": 79,
                "velocity": 40,
                "duration": 0.1,
                "tempo": 120.0
            },
            {
                "start_time": 42.5022727,
                "end_time": 42.5977273,
                "pitch": 85,
                "velocity": 40,
                "duration": 0.0954545,
                "tempo": 120.0
            },
            {
                "start_time": 42.6136364,
                "end_time": 42.7113636,
                "pitch": 84,
                "velocity": 40,
                "duration": 0.0977273,
                "tempo": 120.0
            },
            {
                "start_time": 42.7272727,
                "end_time": 42.9363636,
                "pitch": 82,
                "velocity": 40,
                "duration": 0.2090909,
                "tempo": 120.0
            },
            {
                "start_time": 42.9704545,
                "end_time": 43.0727273,
                "pitch": 77,
                "velocity": 40,
                "duration": 0.1022727,
                "tempo": 120.0
            },
            {
                "start_time": 43.0886364,
                "end_time": 43.1909091,
                "pitch": 77,
                "velocity": 40,
                "duration": 0.1022727,
                "tempo": 120.0
            },
            {
                "start_time": 43.2090909,
                "end_time": 44.025,
                "pitch": 77,
                "velocity": 40,
                "duration": 0.8159091,
                "tempo": 120.0
            },
            {
                "start_time": 44.0431818,
                "end_time": 44.1454545,
                "pitch": 72,
                "velocity": 40,
                "duration": 0.1022727,
                "tempo": 120.0
            },
            {
                "start_time": 44.1795455,
                "end_time": 44.2818182,
                "pitch": 65,
                "velocity": 40,
                "duration": 0.1022727,
                "tempo": 120.0
            },
            {
                "start_time": 44.2977273,
                "end_time": 44.6340909,
                "pitch": 72,
                "velocity": 40,
                "duration": 0.3363636,
                "tempo": 120.0
            },
            {
                "start_time": 44.65,
                "end_time": 45.1136364,
                "pitch": 72,
                "velocity": 40,
                "duration": 0.4636364,
                "tempo": 120.0
            },
            {
                "start_time": 45.1295455,
                "end_time": 45.5954545,
                "pitch": 63,
                "velocity": 40,
                "duration": 0.4659091,
                "tempo": 120.0
            },
            {
                "start_time": 45.6113636,
                "end_time": 45.7136364,
                "pitch": 61,
                "velocity": 40,
                "duration": 0.1022727,
                "tempo": 120.0
            },
            {
                "start_time": 45.7295455,
                "end_time": 45.8318182,
                "pitch": 65,
                "velocity": 40,
                "duration": 0.1022727,
                "tempo": 120.0
            },
            {
                "start_time": 45.8477273,
                "end_time": 45.95,
                "pitch": 60,
                "velocity": 40,
                "duration": 0.1022727,
                "tempo": 120.0
            },
            {
                "start_time": 45.9840909,
                "end_time": 46.0863636,
                "pitch": 69,
                "velocity": 40,
                "duration": 0.1022727,
                "tempo": 120.0
            },
            {
                "start_time": 46.1045455,
                "end_time": 46.2068182,
                "pitch": 69,
                "velocity": 40,
                "duration": 0.1022727,
                "tempo": 120.0
            },
            {
                "start_time": 46.2227273,
                "end_time": 46.2909091,
                "pitch": 69,
                "velocity": 40,
                "duration": 0.0681818,
                "tempo": 120.0
            }
        ]
    }
}