{
    "mood": "happy",
    "instruments": {
        "Acoustic Grand Piano": [
            {
                "start_time": 0.0113636,
                "end_time": 0.5636364,
                "pitch": 42,
                "velocity": 51,
                "duration": 0.5522727,
                "tempo": 120.0
            },
            {
                "start_time": 0.5795455,
                "end_time": 0.8431818,
                "pitch": 61,
                "velocity": 51,
                "duration": 0.2636364,
                "tempo": 120.0
            },
            {
                "start_time": 0.875,
                "end_time": 1.3681818,
                "pitch": 42,
                "velocity": 51,
                "duration": 0.4931818,
                "tempo": 120.0
            },
            {
                "start_time": 1.3840909,
                "end_time": 1.6954545,
                "pitch": 42,
                "velocity": 51,
                "duration": 0.3113636,
                "tempo": 120.0
            },
            {
                "start_time": 1.7295455,
                "end_time": 1.9840909,
                "pitch": 66,
                "velocity": 51,
                "duration": 0.2545455,
                "tempo": 120.0
            },
            {
                "start_time": 2.0022727,
                "end_time": 2.275,
                "pitch": 42,
                "velocity": 51,
                "duration": 0.2727273,
                "tempo": 120.0
            },
            {
                "start_time": 2.3090909,
                "end_time": 2.8522727,
                "pitch": 42,
                "velocity": 51,
                "duration": 0.5431818,
                "tempo": 120.0
            },
            {
                "start_time": 2.8681818,
                "end_time": 3.1477273,
                "pitch": 61,
                "velocity": 51,
                "duration": 0.2795455,
                "tempo": 120.0
            },
            {
                "start_time": 3.1636364,
                "end_time": 3.6931818,
                "pitch": 42,
                "velocity": 51,
                "duration": 0.5295455,
                "tempo": 120.0
            },
            {
                "start_time": 3.7431818,
                "end_time": 3.9954545,
                "pitch": 42,
                "velocity": 51,
                "duration": 0.2522727,
                "tempo": 120.0
            },
            {
                "start_time": 4.0272727,
                "end_time": 4.2795455,
                "pitch": 66,
                "velocity": 51,
                "duration": 0.2522727,
                "tempo": 120.0
            },
            {
                "start_time": 4.2954545,
                "end_time": 4.5795455,
                "pitch": 42,
                "velocity": 51,
                "duration": 0.2840909,
                "tempo": 120.0
            },
            {
                "start_time": 4.5977273,
                "end_time": 4.7295455,
                "pitch": 49,
                "velocity": 51,
                "duration": 0.1318182,
                "tempo": 120.0
            },
            {
                "start_time": 4.7454545,
                "end_time": 4.8590909,
                "pitch": 49,
                "velocity": 51,
                "duration": 0.1136364,
                "tempo": 120.0
            },
            {
                "start_time": 4.8772727,
                "end_time": 4.9909091,
                "pitch": 51,
                "velocity": 51,
                "duration": 0.1136364,
                "tempo": 120.0
            },
            {
                "start_time": 5.025,
                "end_time": 5.1386364,
                "pitch": 51,
                "velocity": 51,
                "duration": 0.1136364,
                "tempo": 120.0
            },
            {
                "start_time": 5.1727273,
                "end_time": 5.2886364,
                "pitch": 51,
                "velocity": 51,
                "duration": 0.1159091,
                "tempo": 120.0
            },
            {
                "start_time": 5.3227273,
                "end_time": 5.4409091,
                "pitch": 54,
                "velocity": 51,
                "duration": 0.1181818,
                "tempo": 120.0
            },
            {
                "start_time": 5.4568182,
                "end_time": 6.0204545,
                "pitch": 49,
                "velocity": 51,
                "duration": 0.5636364,
                "tempo": 120.0
            },
            {
                "start_time": 6.0363636,
                "end_time": 6.5659091,
                "pitch": 49,
                "velocity": 51,
                "duration": 0.5295455,
                "tempo": 120.0
            },
            {
                "start_time": 6.6181818,
                "end_time": 6.8681818,
                "pitch": 49,
                "velocity": 51,
                "duration": 0.25,
                "tempo": 120.0
            },
            {
                "start_time": 6.8840909,
                "end_time": 7.0159091,
                "pitch": 49,
                "velocity": 51,
                "duration": 0.1318182,
                "tempo": 120.0
            },
            {
                "start_time": 7.0318182,
                "end_time": 7.1477273,
                "pitch": 49,
                "velocity": 51,
                "duration": 0.1159091,
                "tempo": 120.0
            },
            {
                "start_time": 7.1636364,
                "end_time": 7.2795455,
                "pitch": 51,
                "velocity": 51,
                "duration": 0.1159091,
                "tempo": 120.0
            },
            {
                "start_time": 7.3272727,
                "end_time": 7.4431818,
                "pitch": 51,
                "velocity": 51,
                "duration": 0.1159091,
                "tempo": 120.0
            },
            {
                "start_time": 7.4590909,
                "end_time": 7.5772727,
                "pitch": 51,
                "velocity": 51,
                "duration": 0.1181818,
                "tempo": 120.0
            },
            {
                "start_time": 7.6113636,
                "end_time": 7.7272727,
                "pitch": 54,
                "velocity": 51,
                "duration": 0.1159091,
                "tempo": 120.0
            },
            {
                "start_time": 7.7431818,
                "end_time": 8.3136364,
                "pitch": 49,
                "velocity": 51,
                "duration": 0.5704545,
                "tempo": 120.0
            },
            {
                "start_time": 8.3295455,
                "end_time": 8.8772727,
                "pitch": 49,
                "velocity": 51,
                "duration": 0.5477273,
                "tempo": 120.0
            },
            {
                "start_time": 8.9090909,
                "end_time": 9.1568182,
                "pitch": 49,
                "velocity": 51,
                "duration": 0.2477273,
                "tempo": 120.0
            },
            {
                "start_time": 9.1727273,
                "end_time": 9.7318182,
                "pitch": 47,
                "velocity": 51,
                "duration": 0.5590909,
                "tempo": 120.0
            },
            {
                "start_time": 9.7477273,
                "end_time": 10.0159091,
                "pitch": 63,
                "velocity": 51,
                "duration": 0.2681818,
                "tempo": 120.0
            },
            {
                "start_time": 10.0318182,
                "end_time": 10.6,
                "pitch": 47,
                "velocity": 51,
                "duration": 0.5681818,
                "tempo": 120.0
            },
            {
                "start_time": 10.6181818,
                "end_time": 10.8681818,
                "pitch": 47,
                "velocity": 51,
                "duration": 0.25,
                "tempo": 120.0
            },
            {
                "start_time": 10.9181818,
                "end_time": 11.175,
                "pitch": 63,
                "velocity": 51,
                "duration": 0.2568182,
                "tempo": 120.0
            },
            {
                "start_time": 11.2090909,
                "end_time": 11.4659091,
                "pitch": 47,
                "velocity": 51,
                "duration": 0.2568182,
                "tempo": 120.0
            },
            {
                "start_time": 11.4818182,
                "end_time": 12.0204545,
                "pitch": 47,
                "velocity": 51,
                "duration": 0.5386364,
                "tempo": 120.0
            },
            {
                "start_time": 12.0363636,
                "end_time": 12.3045455,
                "pitch": 47,
                "velocity": 51,
                "duration": 0.2681818,
                "tempo": 120.0
            },
            {
                "start_time": 12.3363636,
                "end_time": 12.8909091,
                "pitch": 47,
                "velocity": 51,
                "duration": 0.5545455,
                "tempo": 120.0
            },
            {
                "start_time": 12.9068182,
                "end_time": 13.1909091,
                "pitch": 47,
                "velocity": 51,
                "duration": 0.2840909,
                "tempo": 120.0
            },
            {
                "start_time": 13.2068182,
                "end_time": 13.4636364,
                "pitch": 63,
                "velocity": 51,
                "duration": 0.2568182,
                "tempo": 120.0
            },
            {
                "start_time": 13.4977273,
                "end_time": 13.7545455,
                "pitch": 47,
                "velocity": 51,
                "duration": 0.2568182,
                "tempo": 120.0
            },
            {
                "start_time": 13.8045455,
                "end_time": 14.6272727,
                "pitch": 42,
                "velocity": 51,
                "duration": 0.8227273,
                "tempo": 120.0
            },
            {
                "start_time": 14.6431818,
                "end_time": 15.1795455,
                "pitch": 42,
                "velocity": 51,
                "duration": 0.5363636,
                "tempo": 120.0
            },
            {
                "start_time": 15.2136364,
                "end_time": 15.4795455,
                "pitch": 42,
                "velocity": 51,
                "duration": 0.2659091,
                "tempo": 120.0
            },
            {
                "start_time": 15.4977273,
                "end_time": 15.7522727,
                "pitch": 61,
                "velocity": 51,
                "duration": 0.2545455,
                "tempo": 120.0
            },
            {
                "start_time": 15.7863636,
                "end_time": 16.0613636,
                "pitch": 42,
                "velocity": 51,
                "duration": 0.275,
                "tempo": 120.0
            },
            {
                "start_time": 16.0954545,
                "end_time": 16.6295455,
                "pitch": 42,
                "velocity": 51,
                "duration": 0.5340909,
                "tempo": 120.0
            },
            {
                "start_time": 16.6636364,
                "end_time": 16.9272727,
                "pitch": 63,
                "velocity": 51,
                "duration": 0.2636364,
                "tempo": 120.0
            },
            {
                "start_time": 16.9431818,
                "end_time": 17.4954545,
                "pitch": 42,
                "velocity": 51,
                "duration": 0.5522727,
                "tempo": 120.0
            },
            {
                "start_time": 17.5113636,
                "end_time": 17.7704545,
                "pitch": 42,
                "velocity": 51,
                "duration": 0.2590909,
                "tempo": 120.0
            },
            {
                "start_time": 17.7863636,
                "end_time": 18.0409091,
                "pitch": 61,
                "velocity": 51,
                "duration": 0.2545455,
                "tempo": 120.0
            },
            {
                "start_time": 18.0931818,
                "end_time": 18.3477273,
                "pitch": 42,
                "velocity": 51,
                "duration": 0.2545455,
                "tempo": 120.0
            },
            {
                "start_time": 18.3840909,
                "end_time": 18.6340909,
                "pitch": 54,
                "velocity": 51,
                "duration": 0.25,
                "tempo": 120.0
            },
            {
                "start_time": 18.65,
                "end_time": 18.9363636,
                "pitch": 56,
                "velocity": 51,
                "duration": 0.2863636,
                "tempo": 120.0
            },
            {
                "start_time": 19.5272727,
                "end_time": 19.7954545,
                "pitch": 54,
                "velocity": 51,
                "duration": 0.2681818,
                "tempo": 120.0
            },
            {
                "start_time": 19.8113636,
                "end_time": 20.375,
                "pitch": 56,
                "velocity": 51,
                "duration": 0.5636364,
                "tempo": 120.0
            },
            {
                "start_time": 20.3909091,
                "end_time": 20.5068182,
                "pitch": 70,
                "velocity": 51,
                "duration": 0.1159091,
                "tempo": 120.0
            },
            {
                "start_time": 20.5227273,
                "end_time": 20.6386364,
                "pitch": 68,
                "velocity": 51,
                "duration": 0.1159091,
                "tempo": 120.0
            },
            {
                "start_time": 20.6704545,
                "end_time": 21.2227273,
                "pitch": 49,
                "velocity": 51,
                "duration": 0.5522727,
                "tempo": 120.0
            },
            {
                "start_time": 21.2386364,
                "end_time": 21.3704545,
                "pitch": 71,
                "velocity": 51,
                "duration": 0.1318182,
                "tempo": 120.0
            },
            {
                "start_time": 21.3886364,
                "end_time": 21.5022727,
                "pitch": 71,
                "velocity": 51,
                "duration": 0.1136364,
                "tempo": 120.0
            },
            {
                "start_time": 21.5181818,
                "end_time": 22.0818182,
                "pitch": 49,
                "velocity": 51,
                "duration": 0.5636364,
                "tempo": 120.0
            },
            {
                "start_time": 22.1,
                "end_time": 22.3659091,
                "pitch": 49,
                "velocity": 51,
                "duration": 0.2659091,
                "tempo": 120.0
            },
            {
                "start_time": 22.4,
                "end_time": 22.6727273,
                "pitch": 70,
                "velocity": 51,
                "duration": 0.2727273,
                "tempo": 120.0
            },
            {
                "start_time": 22.6909091,
                "end_time": 22.9454545,
                "pitch": 49,
                "velocity": 51,
                "duration": 0.2545455,
                "tempo": 120.0
            },
            {
                "start_time": 22.9795455,
                "end_time": 23.5113636,
                "pitch": 51,
                "velocity": 51,
                "duration": 0.5318182,
                "tempo": 120.0
            },
            {
                "start_time": 23.5272727,
                "end_time": 23.7909091,
                "pitch": 71,
                "velocity": 51,
                "duration": 0.2636364,
                "tempo": 120.0
            },
            {
                "start_time": 23.8227273,
                "end_time": 24.3704545,
                "pitch": 51,
                "velocity": 51,
                "duration": 0.5477273,
                "tempo": 120.0
            },
            {
                "start_time": 24.3863636,
                "end_time": 24.6727273,
                "pitch": 51,
                "velocity": 51,
                "duration": 0.2863636,
                "tempo": 120.0
            },
            {
                "start_time": 24.6886364,
                "end_time": 24.8090909,
                "pitch": 68,
                "velocity": 51,
                "duration": 0.1204545,
                "tempo": 120.0
            },
            {
                "start_time": 24.825,
                "end_time": 24.9613636,
                "pitch": 71,
                "velocity": 51,
                "duration": 0.1363636,
                "tempo": 120.0
            },
            {
                "start_time": 24.9795455,
                "end_time": 25.2340909,
                "pitch": 68,
                "velocity": 51,
                "duration": 0.2545455,
                "tempo": 120.0
            },
            {
                "start_time": 25.2863636,
                "end_time": 25.8113636,
                "pitch": 49,
                "velocity": 51,
                "duration": 0.525,
                "tempo": 120.0
            },
            {
                "start_time": 25.8272727,
                "end_time": 26.1022727,
                "pitch": 70,
                "velocity": 51,
                "duration": 0.275,
                "tempo": 120.0
            },
            {
                "start_time": 26.1181818,
                "end_time": 26.6590909,
                "pitch": 49,
                "velocity": 51,
                "duration": 0.5409091,
                "tempo": 120.0
            },
            {
                "start_time": 26.6931818,
                "end_time": 26.9613636,
                "pitch": 49,
                "velocity": 51,
                "duration": 0.2681818,
                "tempo": 120.0
            },
            {
                "start_time": 26.9772727,
                "end_time": 27.25,
                "pitch": 70,
                "velocity": 51,
                "duration": 0.2727273,
                "tempo": 120.0
            },
            {
                "start_time": 27.2681818,
                "end_time": 27.5568182,
                "pitch": 49,
                "velocity": 51,
                "duration": 0.2886364,
                "tempo": 120.0
            },
            {
                "start_time": 27.575,
                "end_time": 28.1113636,
                "pitch": 51,
                "velocity": 51,
                "duration": 0.5363636,
                "tempo": 120.0
            },
            {
                "start_time": 28.1613636,
                "end_time": 28.4113636,
                "pitch": 71,
                "velocity": 51,
                "duration": 0.25,
                "tempo": 120.0
            },
            {
                "start_time": 28.4272727,
                "end_time": 28.9818182,
                "pitch": 51,
                "velocity": 51,
                "duration": 0.5545455,
                "tempo": 120.0
            },
            {
                "start_time": 28.9977273,
                "end_time": 29.25,
                "pitch": 51,
                "velocity": 51,
                "duration": 0.2522727,
                "tempo": 120.0
            },
            {
                "start_time": 29.2659091,
                "end_time": 29.3863636,
                "pitch": 68,
                "velocity": 51,
                "duration": 0.1204545,
                "tempo": 120.0
            },
            {
                "start_time": 29.4022727,
                "end_time": 29.5386364,
                "pitch": 71,
                "velocity": 51,
                "duration": 0.1363636,
                "tempo": 120.0
            },
            {
                "start_time": 29.5727273,
                "end_time": 29.8454545,
                "pitch": 68,
                "velocity": 51,
                "duration": 0.2727273,
                "tempo": 120.0
            },
            {
                "start_time": 29.8636364,
                "end_time": 30.4045455,
                "pitch": 49,
                "velocity": 51,
                "duration": 0.5409091,
                "tempo": 120.0
            },
            {
                "start_time": 30.4386364,
                "end_time": 30.5568182,
                "pitch": 71,
                "velocity": 51,
                "duration": 0.1181818,
                "tempo": 120.0
            },
            {
                "start_time": 30.575,
                "end_time": 30.6931818,
                "pitch": 71,
                "velocity": 51,
                "duration": 0.1181818,
                "tempo": 120.0
            },
            {
                "start_time": 30.7113636,
                "end_time": 31.2818182,
                "pitch": 49,
                "velocity": 51,
                "duration": 0.5704545,
                "tempo": 120.0
            },
            {
                "start_time": 31.2977273,
                "end_time": 31.5590909,
                "pitch": 49,
                "velocity": 51,
                "duration": 0.2613636,
                "tempo": 120.0
            },
            {
                "start_time": 31.5772727,
                "end_time": 31.8568182,
                "pitch": 70,
                "velocity": 51,
                "duration": 0.2795455,
                "tempo": 120.0
            },
            {
                "start_time": 31.8727273,
                "end_time": 32.1340909,
                "pitch": 49,
                "velocity": 51,
                "duration": 0.2613636,
                "tempo": 120.0
            },
            {
                "start_time": 32.1522727,
                "end_time": 32.7045455,
                "pitch": 51,
                "velocity": 51,
                "duration": 0.5522727,
                "tempo": 120.0
            },
            {
                "start_time": 32.7363636,
                "end_time": 32.9886364,
                "pitch": 71,
                "velocity": 51,
                "duration": 0.2522727,
                "tempo": 120.0
            },
            {
                "start_time": 33.0045455,
                "end_time": 33.5681818,
                "pitch": 51,
                "velocity": 51,
                "duration": 0.5636364,
                "tempo": 120.0
            },
            {
                "start_time": 33.5863636,
                "end_time": 33.8477273,
                "pitch": 51,
                "velocity": 51,
                "duration": 0.2613636,
                "tempo": 120.0
            },
            {
                "start_time": 33.8818182,
                "end_time": 33.9977273,
                "pitch": 68,
                "velocity": 51,
                "duration": 0.1159091,
                "tempo": 120.0
            },
            {
                "start_time": 34.0318182,
                "end_time": 34.1477273,
                "pitch": 71,
                "velocity": 51,
                "duration": 0.1159091,
                "tempo": 120.0
            },
            {
                "start_time": 34.1659091,
                "end_time": 34.4340909,
                "pitch": 68,
                "velocity": 51,
                "duration": 0.2681818,
                "tempo": 120.0
            },
            {
                "start_time": 34.45,
                "end_time": 34.9818182,
                "pitch": 49,
                "velocity": 51,
                "duration": 0.5318182,
                "tempo": 120.0
            },
            {
                "start_time": 35.0136364,
                "end_time": 35.1340909,
                "pitch": 71,
                "velocity": 51,
                "duration": 0.1204545,
                "tempo": 120.0
            },
            {
                "start_time": 35.15,
                "end_time": 35.2704545,
                "pitch": 71,
                "velocity": 51,
                "duration": 0.1204545,
                "tempo": 120.0
            },
            {
                "start_time": 35.3204545,
                "end_time": 35.8522727,
                "pitch": 49,
                "velocity": 51,
                "duration": 0.5318182,
                "tempo": 120.0
            },
            {
                "start_time": 35.8681818,
                "end_time": 36.4295455,
                "pitch": 49,
                "velocity": 51,
                "duration": 0.5613636,
                "tempo": 120.0
            },
            {
                "start_time": 36.4477273,
                "end_time": 36.7204545,
                "pitch": 49,
                "velocity": 51,
                "duration": 0.2727273,
                "tempo": 120.0
            },
            {
                "start_time": 36.7545455,
                "end_time": 37.2909091,
                "pitch": 51,
                "velocity": 51,
                "duration": 0.5363636,
                "tempo": 120.0
            },
            {
                "start_time": 37.325,
                "end_time": 37.5863636,
                "pitch": 71,
                "velocity": 51,
                "duration": 0.2613636,
                "tempo": 120.0
            },
            {
                "start_time": 37.6204545,
                "end_time": 38.1454545,
                "pitch": 51,
                "velocity": 51,
                "duration": 0.525,
                "tempo": 120.0
            },
            {
                "start_time": 38.1772727,
                "end_time": 38.4409091,
                "pitch": 51,
                "velocity": 51,
                "duration": 0.2636364,
                "tempo": 120.0
            },
            {
                "start_time": 38.4568182,
                "end_time": 38.575,
                "pitch": 68,
                "velocity": 51,
                "duration": 0.1181818,
                "tempo": 120.0
            },
            {
                "start_time": 38.6068182,
                "end_time": 38.725,
                "pitch": 71,
                "velocity": 51,
                "duration": 0.1181818,
                "tempo": 120.0
            },
            {
                "start_time": 38.7409091,
                "end_time": 39.025,
                "pitch": 68,
                "velocity": 51,
                "duration": 0.2840909,
                "tempo": 120.0
            },
            {
                "start_time": 39.0431818,
                "end_time": 39.5772727,
                "pitch": 42,
                "velocity": 51,
                "duration": 0.5340909,
                "tempo": 120.0
            },
            {
                "start_time": 39.6295455,
                "end_time": 39.8840909,
                "pitch": 61,
                "velocity": 51,
                "duration": 0.2545455,
                "tempo": 120.0
            },
            {
                "start_time": 39.9181818,
                "end_time": 40.4613636,
                "pitch": 42,
                "velocity": 51,
                "duration": 0.5431818,
                "tempo": 120.0
            },
            {
                "start_time": 40.4772727,
                "end_time": 40.7295455,
                "pitch": 42,
                "velocity": 51,
                "duration": 0.2522727,
                "tempo": 120.0
            },
            {
                "start_time": 40.7454545,
                "end_time": 41.0136364,
                "pitch": 66,
                "velocity": 51,
                "duration": 0.2681818,
                "tempo": 120.0
            },
            {
                "start_time": 41.0477273,
                "end_time": 41.3136364,
                "pitch": 42,
                "velocity": 51,
                "duration": 0.2659091,
                "tempo": 120.0
            },
            {
                "start_time": 41.3318182,
                "end_time": 41.9,
                "pitch": 42,
                "velocity": 51,
                "duration": 0.5681818,
                "tempo": 120.0
            },
            {
                "start_time": 41.9181818,
                "end_time": 42.1727273,
                "pitch": 61,
                "velocity": 51,
                "duration": 0.2545455,
                "tempo": 120.0
            },
            {
                "start_time": 42.2068182,
                "end_time": 42.7659091,
                "pitch": 42,
                "velocity": 51,
                "duration": 0.5590909,
                "tempo": 120.0
            },
            {
                "start_time": 42.7818182,
                "end_time": 43.05,
                "pitch": 42,
                "velocity": 51,
                "duration": 0.2681818,
                "tempo": 120.0
            },
            {
                "start_time": 43.0659091,
                "end_time": 43.3363636,
                "pitch": 66,
                "velocity": 51,
                "duration": 0.2704545,
                "tempo": 120.0
            },
            {
                "start_time": 43.3522727,
                "end_time": 43.6045455,
                "pitch": 42,
                "velocity": 51,
                "duration": 0.2522727,
                "tempo": 120.0
            },
            {
                "start_time": 43.6204545,
                "end_time": 44.1909091,
                "pitch": 49,
                "velocity": 51,
                "duration": 0.5704545,
                "tempo": 120.0
            },
            {
                "start_time": 44.2068182,
                "end_time": 44.4636364,
                "pitch": 65,
                "velocity": 51,
                "duration": 0.2568182,
                "tempo": 120.0
            },
            {
                "start_time": 44.4977273,
                "end_time": 45.0545455,
                "pitch": 49,
                "velocity": 51,
                "duration": 0.5568182,
                "tempo": 120.0
            },
            {
                "start_time": 45.0727273,
                "end_time": 45.3386364,
                "pitch": 49,
                "velocity": 51,
                "duration": 0.2659091,
                "tempo": 120.0
            },
            {
                "start_time": 45.3727273,
                "end_time": 45.6363636,
                "pitch": 65,
                "velocity": 51,
                "duration": 0.2636364,
                "tempo": 120.0
            },
            {
                "start_time": 45.6522727,
                "end_time": 45.9159091,
                "pitch": 49,
                "velocity": 51,
                "duration": 0.2636364,
                "tempo": 120.0
            },
            {
                "start_time": 45.9318182,
                "end_time": 46.4795455,
                "pitch": 49,
                "velocity": 51,
                "duration": 0.5477273,
                "tempo": 120.0
            },
            {
                "start_time": 46.4954545,
                "end_time": 46.75,
                "pitch": 68,
                "velocity": 51,
                "duration": 0.2545455,
                "tempo": 120.0
            },
            {
                "start_time": 46.8022727,
                "end_time": 47.3431818,
                "pitch": 49,
                "velocity": 51,
                "duration": 0.5409091,
                "tempo": 120.0
            },
            {
                "start_time": 47.3590909,
                "end_time": 47.6454545,
                "pitch": 49,
                "velocity": 51,
                "duration": 0.2863636,
                "tempo": 120.0
            },
            {
                "start_time": 47.6613636,
                "end_time": 47.925,
                "pitch": 68,
                "velocity": 51,
                "duration": 0.2636364,
                "tempo": 120.0
            },
            {
                "start_time": 47.9409091,
                "end_time": 48.2022727,
                "pitch": 49,
                "velocity": 51,
                "duration": 0.2613636,
                "tempo": 120.0
            },
            {
                "start_time": 48.2363636,
                "end_time": 48.7886364,
                "pitch": 47,
                "velocity": 51,
                "duration": 0.5522727,
                "tempo": 120.0
            },
            {
                "start_time": 48.8045455,
                "end_time": 49.0840909,
                "pitch": 66,
                "velocity": 51,
                "duration": 0.2795455,
                "tempo": 120.0
            },
            {
                "start_time": 49.1,
                "end_time": 49.6318182,
                "pitch": 47,
                "velocity": 51,
                "duration": 0.5318182,
                "tempo": 120.0
            },
            {
                "start_time": 49.6818182,
                "end_time": 49.9318182,
                "pitch": 47,
                "velocity": 51,
                "duration": 0.25,
                "tempo": 120.0
            },
            {
                "start_time": 49.95,
                "end_time": 50.2113636,
                "pitch": 63,
                "velocity": 51,
                "duration": 0.2613636,
                "tempo": 120.0
            },
            {
                "start_time": 50.2272727,
                "end_time": 50.5068182,
                "pitch": 47,
                "velocity": 51,
                "duration": 0.2795455,
                "tempo": 120.0
            },
            {
                "start_time": 50.5227273,
                "end_time": 51.0772727,
                "pitch": 47,
                "velocity": 51,
                "duration": 0.5545455,
                "tempo": 120.0
            },
            {
                "start_time": 51.1090909,
                "end_time": 51.3818182,
                "pitch": 66,
                "velocity": 51,
                "duration": 0.2727273,
                "tempo": 120.0
            },
            {
                "start_time": 51.4,
                "end_time": 51.9477273,
                "pitch": 47,
                "velocity": 51,
                "duration": 0.5477273,
                "tempo": 120.0
            },
            {
                "start_time": 51.9795455,
                "end_time": 52.2227273,
                "pitch": 47,
                "velocity": 51,
                "duration": 0.2431818,
                "tempo": 120.0
            },
            {
                "start_time": 52.2386364,
                "end_time": 52.5,
                "pitch": 63,
                "velocity": 51,
                "duration": 0.2613636,
                "tempo": 120.0
            },
            {
                "start_time": 52.5340909,
                "end_time": 52.7954545,
                "pitch": 47,
                "velocity": 51,
                "duration": 0.2613636,
                "tempo": 120.0
            },
            {
                "start_time": 52.8113636,
                "end_time": 53.3818182,
                "pitch": 42,
                "velocity": 51,
                "duration": 0.5704545,
                "tempo": 120.0
            },
            {
                "start_time": 53.3977273,
                "end_time": 53.6704545,
                "pitch": 66,
                "velocity": 51,
                "duration": 0.2727273,
                "tempo": 120.0
            },
            {
                "start_time": 53.6886364,
                "end_time": 54.2409091,
                "pitch": 42,
                "velocity": 51,
                "duration": 0.5522727,
                "tempo": 120.0
            },
            {
                "start_time": 54.275,
                "end_time": 54.5204545,
                "pitch": 42,
                "velocity": 51,
                "duration": 0.2454545,
                "tempo": 120.0
            },
            {
                "start_time": 54.5363636,
                "end_time": 54.8113636,
                "pitch": 61,
                "velocity": 51,
                "duration": 0.275,
                "tempo": 120.0
            },
            {
                "start_time": 54.8272727,
                "end_time": 55.0840909,
                "pitch": 42,
                "velocity": 51,
                "duration": 0.2568182,
                "tempo": 120.0
            },
            {
                "start_time": 55.1,
                "end_time": 55.6704545,
                "pitch": 42,
                "velocity": 51,
                "duration": 0.5704545,
                "tempo": 120.0
            },
            {
                "start_time": 55.6863636,
                "end_time": 55.9590909,
                "pitch": 42,
                "velocity": 51,
                "duration": 0.2727273,
                "tempo": 120.0
            },
            {
                "start_time": 55.9772727,
                "end_time": 56.5295455,
                "pitch": 42,
                "velocity": 51,
                "duration": 0.5522727,
                "tempo": 120.0
            },
            {
                "start_time": 56.5636364,
                "end_time": 56.8090909,
                "pitch": 42,
                "velocity": 51,
                "duration": 0.2454545,
                "tempo": 120.0
            },
            {
                "start_time": 56.8590909,
                "end_time": 57.1136364,
                "pitch": 61,
                "velocity": 51,
                "duration": 0.2545455,
                "tempo": 120.0
            },
            {
                "start_time": 57.1318182,
                "end_time": 57.4045455,
                "pitch": 42,
                "velocity": 51,
                "duration": 0.2727273,
                "tempo": 120.0
            }
        ],
        "Vibraphone": [
            {
                "start_time": 0.0113636,
                "end_time": 0.1113636,
                "pitch": 75,
                "velocity": 80,
                "duration": 0.1,
                "tempo": 120.0
            },
            {
                "start_time": 0.1613636,
                "end_time": 0.2772727,
                "pitch": 75,
                "velocity": 80,
                "duration": 0.1159091,
                "tempo": 120.0
            },
            {
                "start_time": 0.2954545,
                "end_time": 0.5636364,
                "pitch": 73,
                "velocity": 80,
                "duration": 0.2681818,
                "tempo": 120.0
            },
            {
                "start_time": 0.5795455,
                "end_time": 0.8431818,
                "pitch": 66,
                "velocity": 80,
                "duration": 0.2636364,
                "tempo": 120.0
            },
            {
                "start_time": 0.875,
                "end_time": 0.9909091,
                "pitch": 73,
                "velocity": 80,
                "duration": 0.1159091,
                "tempo": 120.0
            },
            {
                "start_time": 1.0068182,
                "end_time": 1.2681818,
                "pitch": 73,
                "velocity": 80,
                "duration": 0.2613636,
                "tempo": 120.0
            },
            {
                "start_time": 1.2863636,
                "end_time": 1.4,
                "pitch": 68,
                "velocity": 80,
                "duration": 0.1136364,
                "tempo": 120.0
            },
            {
                "start_time": 1.4340909,
                "end_time": 1.9840909,
                "pitch": 70,
                "velocity": 80,
                "duration": 0.55,
                "tempo": 120.0
            },
            {
                "start_time": 2.0022727,
                "end_time": 2.275,
                "pitch": 75,
                "velocity": 80,
                "duration": 0.2727273,
                "tempo": 120.0
            },
            {
                "start_time": 2.3090909,
                "end_time": 2.4409091,
                "pitch": 75,
                "velocity": 80,
                "duration": 0.1318182,
                "tempo": 120.0
            },
            {
                "start_time": 2.4568182,
                "end_time": 2.5727273,
                "pitch": 75,
                "velocity": 80,
                "duration": 0.1159091,
                "tempo": 120.0
            },
            {
                "start_time": 2.5886364,
                "end_time": 2.8522727,
                "pitch": 73,
                "velocity": 80,
                "duration": 0.2636364,
                "tempo": 120.0
            },
            {
                "start_time": 2.8681818,
                "end_time": 3.1477273,
                "pitch": 66,
                "velocity": 80,
                "duration": 0.2795455,
                "tempo": 120.0
            },
            {
                "start_time": 3.1636364,
                "end_time": 3.2772727,
                "pitch": 73,
                "velocity": 80,
                "duration": 0.1136364,
                "tempo": 120.0
            },
            {
                "start_time": 3.2954545,
                "end_time": 3.5590909,
                "pitch": 73,
                "velocity": 80,
                "duration": 0.2636364,
                "tempo": 120.0
            },
            {
                "start_time": 3.5772727,
                "end_time": 3.6931818,
                "pitch": 68,
                "velocity": 80,
                "duration": 0.1159091,
                "tempo": 120.0
            },
            {
                "start_time": 3.7431818,
                "end_time": 4.2795455,
                "pitch": 70,
                "velocity": 80,
                "duration": 0.5363636,
                "tempo": 120.0
            },
            {
                "start_time": 4.2954545,
                "end_time": 4.5795455,
                "pitch": 75,
                "velocity": 80,
                "duration": 0.2840909,
                "tempo": 120.0
            },
            {
                "start_time": 4.5977273,
                "end_time": 4.7295455,
                "pitch": 58,
                "velocity": 80,
                "duration": 0.1318182,
                "tempo": 120.0
            },
            {
                "start_time": 4.7454545,
                "end_time": 4.8590909,
                "pitch": 70,
                "velocity": 80,
                "duration": 0.1136364,
                "tempo": 120.0
            },
            {
                "start_time": 4.8772727,
                "end_time": 4.9909091,
                "pitch": 68,
                "velocity": 80,
                "duration": 0.1136364,
                "tempo": 120.0
            },
            {
                "start_time": 5.025,
                "end_time": 5.1386364,
                "pitch": 68,
                "velocity": 80,
                "duration": 0.1136364,
                "tempo": 120.0
            },
            {
                "start_time": 5.1727273,
                "end_time": 5.2886364,
                "pitch": 68,
                "velocity": 80,
                "duration": 0.1159091,
                "tempo": 120.0
            },
            {
                "start_time": 5.3227273,
                "end_time": 5.4409091,
                "pitch": 54,
                "velocity": 80,
                "duration": 0.1181818,
                "tempo": 120.0
            },
            {
                "start_time": 5.4568182,
                "end_time": 5.5727273,
                "pitch": 58,
                "velocity": 80,
                "duration": 0.1159091,
                "tempo": 120.0
            },
            {
                "start_time": 5.5909091,
                "end_time": 5.725,
                "pitch": 68,
                "velocity": 80,
                "duration": 0.1340909,
                "tempo": 120.0
            },
            {
                "start_time": 5.7409091,
                "end_time": 5.8568182,
                "pitch": 61,
                "velocity": 80,
                "duration": 0.1159091,
                "tempo": 120.0
            },
            {
                "start_time": 5.8886364,
                "end_time": 6.0204545,
                "pitch": 61,
                "velocity": 80,
                "duration": 0.1318182,
                "tempo": 120.0
            },
            {
                "start_time": 6.0363636,
                "end_time": 6.1522727,
                "pitch": 58,
                "velocity": 80,
                "duration": 0.1159091,
                "tempo": 120.0
            },
            {
                "start_time": 6.1681818,
                "end_time": 6.2840909,
                "pitch": 63,
                "velocity": 80,
                "duration": 0.1159091,
                "tempo": 120.0
            },
            {
                "start_time": 6.3159091,
                "end_time": 6.4340909,
                "pitch": 63,
                "velocity": 80,
                "duration": 0.1181818,
                "tempo": 120.0
            },
            {
                "start_time": 6.45,
                "end_time": 6.5659091,
                "pitch": 66,
                "velocity": 80,
                "duration": 0.1159091,
                "tempo": 120.0
            },
            {
                "start_time": 6.6181818,
                "end_time": 6.7340909,
                "pitch": 58,
                "velocity": 80,
                "duration": 0.1159091,
                "tempo": 120.0
            },
            {
                "start_time": 6.75,
                "end_time": 6.8681818,
                "pitch": 68,
                "velocity": 80,
                "duration": 0.1181818,
                "tempo": 120.0
            },
            {
                "start_time": 6.8840909,
                "end_time": 7.0159091,
                "pitch": 58,
                "velocity": 80,
                "duration": 0.1318182,
                "tempo": 120.0
            },
            {
                "start_time": 7.0318182,
                "end_time": 7.1477273,
                "pitch": 70,
                "velocity": 80,
                "duration": 0.1159091,
                "tempo": 120.0
            },
            {
                "start_time": 7.1636364,
                "end_time": 7.2795455,
                "pitch": 68,
                "velocity": 80,
                "duration": 0.1159091,
                "tempo": 120.0
            },
            {
                "start_time": 7.3272727,
                "end_time": 7.4431818,
                "pitch": 68,
                "velocity": 80,
                "duration": 0.1159091,
                "tempo": 120.0
            },
            {
                "start_time": 7.4590909,
                "end_time": 7.5772727,
                "pitch": 68,
                "velocity": 80,
                "duration": 0.1181818,
                "tempo": 120.0
            },
            {
                "start_time": 7.6113636,
                "end_time": 7.7272727,
                "pitch": 54,
                "velocity": 80,
                "duration": 0.1159091,
                "tempo": 120.0
            },
            {
                "start_time": 7.7431818,
                "end_time": 7.8613636,
                "pitch": 58,
                "velocity": 80,
                "duration": 0.1181818,
                "tempo": 120.0
            },
            {
                "start_time": 7.8772727,
                "end_time": 8.0113636,
                "pitch": 68,
                "velocity": 80,
                "duration": 0.1340909,
                "tempo": 120.0
            },
            {
                "start_time": 8.0454545,
                "end_time": 8.1636364,
                "pitch": 61,
                "velocity": 80,
                "duration": 0.1181818,
                "tempo": 120.0
            },
            {
                "start_time": 8.1795455,
                "end_time": 8.3136364,
                "pitch": 61,
                "velocity": 80,
                "duration": 0.1340909,
                "tempo": 120.0
            },
            {
                "start_time": 8.3295455,
                "end_time": 8.4477273,
                "pitch": 58,
                "velocity": 80,
                "duration": 0.1181818,
                "tempo": 120.0
            },
            {
                "start_time": 8.4636364,
                "end_time": 8.5818182,
                "pitch": 63,
                "velocity": 80,
                "duration": 0.1181818,
                "tempo": 120.0
            },
            {
                "start_time": 8.6136364,
                "end_time": 8.7295455,
                "pitch": 63,
                "velocity": 80,
                "duration": 0.1159091,
                "tempo": 120.0
            },
            {
                "start_time": 8.7613636,
                "end_time": 8.8772727,
                "pitch": 66,
                "velocity": 80,
                "duration": 0.1159091,
                "tempo": 120.0
            },
            {
                "start_time": 8.9090909,
                "end_time": 9.025,
                "pitch": 58,
                "velocity": 80,
                "duration": 0.1159091,
                "tempo": 120.0
            },
            {
                "start_time": 9.0409091,
                "end_time": 9.1568182,
                "pitch": 68,
                "velocity": 80,
                "duration": 0.1159091,
                "tempo": 120.0
            },
            {
                "start_time": 9.1727273,
                "end_time": 9.7318182,
                "pitch": 68,
                "velocity": 80,
                "duration": 0.5590909,
                "tempo": 120.0
            },
            {
                "start_time": 9.7477273,
                "end_time": 10.0159091,
                "pitch": 66,
                "velocity": 80,
                "duration": 0.2681818,
                "tempo": 120.0
            },
            {
                "start_time": 10.0318182,
                "end_time": 10.6,
                "pitch": 73,
                "velocity": 80,
                "duration": 0.5681818,
                "tempo": 120.0
            },
            {
                "start_time": 10.6181818,
                "end_time": 10.8681818,
                "pitch": 75,
                "velocity": 80,
                "duration": 0.25,
                "tempo": 120.0
            },
            {
                "start_time": 10.9181818,
                "end_time": 11.175,
                "pitch": 66,
                "velocity": 80,
                "duration": 0.2568182,
                "tempo": 120.0
            },
            {
                "start_time": 11.2090909,
                "end_time": 11.4659091,
                "pitch": 73,
                "velocity": 80,
                "duration": 0.2568182,
                "tempo": 120.0
            },
            {
                "start_time": 11.4818182,
                "end_time": 11.6090909,
                "pitch": 75,
                "velocity": 80,
                "duration": 0.1272727,
                "tempo": 120.0
            },
            {
                "start_time": 11.6409091,
                "end_time": 11.7522727,
                "pitch": 75,
                "velocity": 80,
                "duration": 0.1113636,
                "tempo": 120.0
            },
            {
                "start_time": 11.7681818,
                "end_time": 12.0204545,
                "pitch": 73,
                "velocity": 80,
                "duration": 0.2522727,
                "tempo": 120.0
            },
            {
                "start_time": 12.0363636,
                "end_time": 12.3045455,
                "pitch": 66,
                "velocity": 80,
                "duration": 0.2681818,
                "tempo": 120.0
            },
            {
                "start_time": 12.3363636,
                "end_time": 12.4545455,
                "pitch": 73,
                "velocity": 80,
                "duration": 0.1181818,
                "tempo": 120.0
            },
            {
                "start_time": 12.4886364,
                "end_time": 12.7386364,
                "pitch": 73,
                "velocity": 80,
                "duration": 0.25,
                "tempo": 120.0
            },
            {
                "start_time": 12.7568182,
                "end_time": 12.8909091,
                "pitch": 68,
                "velocity": 80,
                "duration": 0.1340909,
                "tempo": 120.0
            },
            {
                "start_time": 12.9068182,
                "end_time": 13.1909091,
                "pitch": 70,
                "velocity": 80,
                "duration": 0.2840909,
                "tempo": 120.0
            },
            {
                "start_time": 13.2068182,
                "end_time": 13.4636364,
                "pitch": 66,
                "velocity": 80,
                "duration": 0.2568182,
                "tempo": 120.0
            },
            {
                "start_time": 13.4977273,
                "end_time": 13.7545455,
                "pitch": 75,
                "velocity": 80,
                "duration": 0.2568182,
                "tempo": 120.0
            },
            {
                "start_time": 13.8045455,
                "end_time": 13.9227273,
                "pitch": 73,
                "velocity": 80,
                "duration": 0.1181818,
                "tempo": 120.0
            },
            {
                "start_time": 13.9386364,
                "end_time": 14.0568182,
                "pitch": 73,
                "velocity": 80,
                "duration": 0.1181818,
                "tempo": 120.0
            },
            {
                "start_time": 14.0727273,
                "end_time": 14.3409091,
                "pitch": 70,
                "velocity": 80,
                "duration": 0.2681818,
                "tempo": 120.0
            },
            {
                "start_time": 14.3568182,
                "end_time": 14.6272727,
                "pitch": 68,
                "velocity": 80,
                "duration": 0.2704545,
                "tempo": 120.0
            },
            {
                "start_time": 14.6431818,
                "end_time": 14.7522727,
                "pitch": 68,
                "velocity": 80,
                "duration": 0.1090909,
                "tempo": 120.0
            },
            {
                "start_time": 14.7840909,
                "end_time": 15.0295455,
                "pitch": 70,
                "velocity": 80,
                "duration": 0.2454545,
                "tempo": 120.0
            },
            {
                "start_time": 15.0454545,
                "end_time": 15.1795455,
                "pitch": 73,
                "velocity": 80,
                "duration": 0.1340909,
                "tempo": 120.0
            },
            {
                "start_time": 15.2136364,
                "end_time": 15.4795455,
                "pitch": 73,
                "velocity": 80,
                "duration": 0.2659091,
                "tempo": 120.0
            },
            {
                "start_time": 15.4977273,
                "end_time": 15.7522727,
                "pitch": 66,
                "velocity": 80,
                "duration": 0.2545455,
                "tempo": 120.0
            },
            {
                "start_time": 15.7863636,
                "end_time": 16.0613636,
                "pitch": 73,
                "velocity": 80,
                "duration": 0.275,
                "tempo": 120.0
            },
            {
                "start_time": 16.0954545,
                "end_time": 16.2113636,
                "pitch": 75,
                "velocity": 80,
                "duration": 0.1159091,
                "tempo": 120.0
            },
            {
                "start_time": 16.2272727,
                "end_time": 16.3454545,
                "pitch": 73,
                "velocity": 80,
                "duration": 0.1181818,
                "tempo": 120.0
            },
            {
                "start_time": 16.3613636,
                "end_time": 16.6295455,
                "pitch": 70,
                "velocity": 80,
                "duration": 0.2681818,
                "tempo": 120.0
            },
            {
                "start_time": 16.6636364,
                "end_time": 16.9272727,
                "pitch": 63,
                "velocity": 80,
                "duration": 0.2636364,
                "tempo": 120.0
            },
            {
                "start_time": 16.9431818,
                "end_time": 17.4954545,
                "pitch": 68,
                "velocity": 80,
                "duration": 0.5522727,
                "tempo": 120.0
            },
            {
                "start_time": 17.5113636,
                "end_time": 17.625,
                "pitch": 68,
                "velocity": 80,
                "duration": 0.1136364,
                "tempo": 120.0
            },
            {
                "start_time": 17.6409091,
                "end_time": 17.7704545,
                "pitch": 70,
                "velocity": 80,
                "duration": 0.1295455,
                "tempo": 120.0
            },
            {
                "start_time": 17.7863636,
                "end_time": 18.0409091,
                "pitch": 66,
                "velocity": 80,
                "duration": 0.2545455,
                "tempo": 120.0
            },
            {
                "start_time": 18.0931818,
                "end_time": 18.2113636,
                "pitch": 68,
                "velocity": 80,
                "duration": 0.1181818,
                "tempo": 120.0
            },
            {
                "start_time": 18.2295455,
                "end_time": 18.3477273,
                "pitch": 66,
                "velocity": 80,
                "duration": 0.1181818,
                "tempo": 120.0
            },
            {
                "start_time": 18.3840909,
                "end_time": 18.6340909,
                "pitch": 70,
                "velocity": 80,
                "duration": 0.25,
                "tempo": 120.0
            },
            {
                "start_time": 18.65,
                "end_time": 18.9363636,
                "pitch": 72,
                "velocity": 80,
                "duration": 0.2863636,
                "tempo": 120.0
            },
            {
                "start_time": 18.9522727,
                "end_time": 19.0840909,
                "pitch": 75,
                "velocity": 80,
                "duration": 0.1318182,
                "tempo": 120.0
            },
            {
                "start_time": 19.1,
                "end_time": 19.2159091,
                "pitch": 73,
                "velocity": 80,
                "duration": 0.1159091,
                "tempo": 120.0
            },
            {
                "start_time": 19.2318182,
                "end_time": 19.3454545,
                "pitch": 70,
                "velocity": 80,
                "duration": 0.1136364,
                "tempo": 120.0
            },
            {
                "start_time": 19.3795455,
                "end_time": 19.4931818,
                "pitch": 68,
                "velocity": 80,
                "duration": 0.1136364,
                "tempo": 120.0
            },
            {
                "start_time": 19.5272727,
                "end_time": 19.7954545,
                "pitch": 70,
                "velocity": 80,
                "duration": 0.2681818,
                "tempo": 120.0
            },
            {
                "start_time": 19.8113636,
                "end_time": 20.0795455,
                "pitch": 72,
                "velocity": 80,
                "duration": 0.2681818,
                "tempo": 120.0
            },
            {
                "start_time": 20.0954545,
                "end_time": 20.2113636,
                "pitch": 75,
                "velocity": 80,
                "duration": 0.1159091,
                "tempo": 120.0
            },
            {
                "start_time": 20.2431818,
                "end_time": 20.375,
                "pitch": 73,
                "velocity": 80,
                "duration": 0.1318182,
                "tempo": 120.0
            },
            {
                "start_time": 20.3909091,
                "end_time": 20.5068182,
                "pitch": 75,
                "velocity": 80,
                "duration": 0.1159091,
                "tempo": 120.0
            },
            {
                "start_time": 20.5227273,
                "end_time": 20.6386364,
                "pitch": 68,
                "velocity": 80,
                "duration": 0.1159091,
                "tempo": 120.0
            },
            {
                "start_time": 20.6704545,
                "end_time": 20.9227273,
                "pitch": 61,
                "velocity": 80,
                "duration": 0.2522727,
                "tempo": 120.0
            },
            {
                "start_time": 20.9727273,
                "end_time": 21.0886364,
                "pitch": 68,
                "velocity": 80,
                "duration": 0.1159091,
                "tempo": 120.0
            },
            {
                "start_time": 21.1068182,
                "end_time": 21.2227273,
                "pitch": 71,
                "velocity": 80,
                "duration": 0.1159091,
                "tempo": 120.0
            },
            {
                "start_time": 21.2386364,
                "end_time": 21.3704545,
                "pitch": 75,
                "velocity": 80,
                "duration": 0.1318182,
                "tempo": 120.0
            },
            {
                "start_time": 21.3886364,
                "end_time": 21.5022727,
                "pitch": 75,
                "velocity": 80,
                "duration": 0.1136364,
                "tempo": 120.0
            },
            {
                "start_time": 21.5181818,
                "end_time": 22.0818182,
                "pitch": 61,
                "velocity": 80,
                "duration": 0.5636364,
                "tempo": 120.0
            },
            {
                "start_time": 22.1,
                "end_time": 22.3659091,
                "pitch": 61,
                "velocity": 80,
                "duration": 0.2659091,
                "tempo": 120.0
            },
            {
                "start_time": 22.4,
                "end_time": 22.6727273,
                "pitch": 73,
                "velocity": 80,
                "duration": 0.2727273,
                "tempo": 120.0
            },
            {
                "start_time": 22.6909091,
                "end_time": 22.9454545,
                "pitch": 61,
                "velocity": 80,
                "duration": 0.2545455,
                "tempo": 120.0
            },
            {
                "start_time": 22.9795455,
                "end_time": 23.2386364,
                "pitch": 63,
                "velocity": 80,
                "duration": 0.2590909,
                "tempo": 120.0
            },
            {
                "start_time": 23.2704545,
                "end_time": 23.3840909,
                "pitch": 68,
                "velocity": 80,
                "duration": 0.1136364,
                "tempo": 120.0
            },
            {
                "start_time": 23.4,
                "end_time": 23.5113636,
                "pitch": 71,
                "velocity": 80,
                "duration": 0.1113636,
                "tempo": 120.0
            },
            {
                "start_time": 23.5272727,
                "end_time": 23.7909091,
                "pitch": 75,
                "velocity": 80,
                "duration": 0.2636364,
                "tempo": 120.0
            },
            {
                "start_time": 23.8227273,
                "end_time": 24.3704545,
                "pitch": 63,
                "velocity": 80,
                "duration": 0.5477273,
                "tempo": 120.0
            },
            {
                "start_time": 24.3863636,
                "end_time": 24.6727273,
                "pitch": 63,
                "velocity": 80,
                "duration": 0.2863636,
                "tempo": 120.0
            },
            {
                "start_time": 24.6886364,
                "end_time": 24.8090909,
                "pitch": 71,
                "velocity": 80,
                "duration": 0.1204545,
                "tempo": 120.0
            },
            {
                "start_time": 24.825,
                "end_time": 24.9613636,
                "pitch": 75,
                "velocity": 80,
                "duration": 0.1363636,
                "tempo": 120.0
            },
            {
                "start_time": 24.9795455,
                "end_time": 25.2340909,
                "pitch": 71,
                "velocity": 80,
                "duration": 0.2545455,
                "tempo": 120.0
            },
            {
                "start_time": 25.2863636,
                "end_time": 25.5318182,
                "pitch": 61,
                "velocity": 80,
                "duration": 0.2454545,
                "tempo": 120.0
            },
            {
                "start_time": 25.5659091,
                "end_time": 25.6795455,
                "pitch": 68,
                "velocity": 80,
                "duration": 0.1136364,
                "tempo": 120.0
            },
            {
                "start_time": 25.6954545,
                "end_time": 25.8113636,
                "pitch": 71,
                "velocity": 80,
                "duration": 0.1159091,
                "tempo": 120.0
            },
            {
                "start_time": 25.8272727,
                "end_time": 25.9568182,
                "pitch": 75,
                "velocity": 80,
                "duration": 0.1295455,
                "tempo": 120.0
            },
            {
                "start_time": 25.9886364,
                "end_time": 26.1022727,
                "pitch": 75,
                "velocity": 80,
                "duration": 0.1136364,
                "tempo": 120.0
            },
            {
                "start_time": 26.1181818,
                "end_time": 26.6590909,
                "pitch": 61,
                "velocity": 80,
                "duration": 0.5409091,
                "tempo": 120.0
            },
            {
                "start_time": 26.6931818,
                "end_time": 26.9613636,
                "pitch": 61,
                "velocity": 80,
                "duration": 0.2681818,
                "tempo": 120.0
            },
            {
                "start_time": 26.9772727,
                "end_time": 27.25,
                "pitch": 73,
                "velocity": 80,
                "duration": 0.2727273,
                "tempo": 120.0
            },
            {
                "start_time": 27.2681818,
                "end_time": 27.5568182,
                "pitch": 61,
                "velocity": 80,
                "duration": 0.2886364,
                "tempo": 120.0
            },
            {
                "start_time": 27.575,
                "end_time": 27.825,
                "pitch": 63,
                "velocity": 80,
                "duration": 0.25,
                "tempo": 120.0
            },
            {
                "start_time": 27.8590909,
                "end_time": 27.9772727,
                "pitch": 68,
                "velocity": 80,
                "duration": 0.1181818,
                "tempo": 120.0
            },
            {
                "start_time": 27.9931818,
                "end_time": 28.1113636,
                "pitch": 71,
                "velocity": 80,
                "duration": 0.1181818,
                "tempo": 120.0
            },
            {
                "start_time": 28.1613636,
                "end_time": 28.4113636,
                "pitch": 75,
                "velocity": 80,
                "duration": 0.25,
                "tempo": 120.0
            },
            {
                "start_time": 28.4272727,
                "end_time": 28.9818182,
                "pitch": 63,
                "velocity": 80,
                "duration": 0.5545455,
                "tempo": 120.0
            },
            {
                "start_time": 28.9977273,
                "end_time": 29.25,
                "pitch": 63,
                "velocity": 80,
                "duration": 0.2522727,
                "tempo": 120.0
            },
            {
                "start_time": 29.2659091,
                "end_time": 29.3863636,
                "pitch": 71,
                "velocity": 80,
                "duration": 0.1204545,
                "tempo": 120.0
            },
            {
                "start_time": 29.4022727,
                "end_time": 29.5386364,
                "pitch": 75,
                "velocity": 80,
                "duration": 0.1363636,
                "tempo": 120.0
            },
            {
                "start_time": 29.5727273,
                "end_time": 29.8454545,
                "pitch": 71,
                "velocity": 80,
                "duration": 0.2727273,
                "tempo": 120.0
            },
            {
                "start_time": 29.8636364,
                "end_time": 30.1090909,
                "pitch": 61,
                "velocity": 80,
                "duration": 0.2454545,
                "tempo": 120.0
            },
            {
                "start_time": 30.1431818,
                "end_time": 30.2568182,
                "pitch": 68,
                "velocity": 80,
                "duration": 0.1136364,
                "tempo": 120.0
            },
            {
                "start_time": 30.2909091,
                "end_time": 30.4045455,
                "pitch": 71,
                "velocity": 80,
                "duration": 0.1136364,
                "tempo": 120.0
            },
            {
                "start_time": 30.4386364,
                "end_time": 30.5568182,
                "pitch": 75,
                "velocity": 80,
                "duration": 0.1181818,
                "tempo": 120.0
            },
            {
                "start_time": 30.575,
                "end_time": 30.6931818,
                "pitch": 75,
                "velocity": 80,
                "duration": 0.1181818,
                "tempo": 120.0
            },
            {
                "start_time": 30.7113636,
                "end_time": 31.2818182,
                "pitch": 61,
                "velocity": 80,
                "duration": 0.5704545,
                "tempo": 120.0
            },
            {
                "start_time": 31.2977273,
                "end_time": 31.5590909,
                "pitch": 61,
                "velocity": 80,
                "duration": 0.2613636,
                "tempo": 120.0
            },
            {
                "start_time": 31.5772727,
                "end_time": 31.8568182,
                "pitch": 73,
                "velocity": 80,
                "duration": 0.2795455,
                "tempo": 120.0
            },
            {
                "start_time": 31.8727273,
                "end_time": 32.1340909,
                "pitch": 61,
                "velocity": 80,
                "duration": 0.2613636,
                "tempo": 120.0
            },
            {
                "start_time": 32.1522727,
                "end_time": 32.4022727,
                "pitch": 63,
                "velocity": 80,
                "duration": 0.25,
                "tempo": 120.0
            },
            {
                "start_time": 32.4522727,
                "end_time": 32.5704545,
                "pitch": 68,
                "velocity": 80,
                "duration": 0.1181818,
                "tempo": 120.0
            },
            {
                "start_time": 32.5863636,
                "end_time": 32.7045455,
                "pitch": 71,
                "velocity": 80,
                "duration": 0.1181818,
                "tempo": 120.0
            },
            {
                "start_time": 32.7363636,
                "end_time": 32.9886364,
                "pitch": 75,
                "velocity": 80,
                "duration": 0.2522727,
                "tempo": 120.0
            },
            {
                "start_time": 33.0045455,
                "end_time": 33.5681818,
                "pitch": 63,
                "velocity": 80,
                "duration": 0.5636364,
                "tempo": 120.0
            },
            {
                "start_time": 33.5863636,
                "end_time": 33.8477273,
                "pitch": 63,
                "velocity": 80,
                "duration": 0.2613636,
                "tempo": 120.0
            },
            {
                "start_time": 33.8818182,
                "end_time": 33.9977273,
                "pitch": 71,
                "velocity": 80,
                "duration": 0.1159091,
                "tempo": 120.0
            },
            {
                "start_time": 34.0318182,
                "end_time": 34.1477273,
                "pitch": 75,
                "velocity": 80,
                "duration": 0.1159091,
                "tempo": 120.0
            },
            {
                "start_time": 34.1659091,
                "end_time": 34.4340909,
                "pitch": 71,
                "velocity": 80,
                "duration": 0.2681818,
                "tempo": 120.0
            },
            {
                "start_time": 34.45,
                "end_time": 34.7227273,
                "pitch": 61,
                "velocity": 80,
                "duration": 0.2727273,
                "tempo": 120.0
            },
            {
                "start_time": 34.7386364,
                "end_time": 34.8522727,
                "pitch": 68,
                "velocity": 80,
                "duration": 0.1136364,
                "tempo": 120.0
            },
            {
                "start_time": 34.8681818,
                "end_time": 34.9818182,
                "pitch": 71,
                "velocity": 80,
                "duration": 0.1136364,
                "tempo": 120.0
            },
            {
                "start_time": 35.0136364,
                "end_time": 35.1340909,
                "pitch": 75,
                "velocity": 80,
                "duration": 0.1204545,
                "tempo": 120.0
            },
            {
                "start_time": 35.15,
                "end_time": 35.2704545,
                "pitch": 75,
                "velocity": 80,
                "duration": 0.1204545,
                "tempo": 120.0
            },
            {
                "start_time": 35.3204545,
                "end_time": 35.8522727,
                "pitch": 61,
                "velocity": 80,
                "duration": 0.5318182,
                "tempo": 120.0
            },
            {
                "start_time": 35.8681818,
                "end_time": 36.1409091,
                "pitch": 61,
                "velocity": 80,
                "duration": 0.2727273,
                "tempo": 120.0
            },
            {
                "start_time": 36.1568182,
                "end_time": 36.4295455,
                "pitch": 70,
                "velocity": 80,
                "duration": 0.2727273,
                "tempo": 120.0
            },
            {
                "start_time": 36.4477273,
                "end_time": 36.7204545,
                "pitch": 61,
                "velocity": 80,
                "duration": 0.2727273,
                "tempo": 120.0
            },
            {
                "start_time": 36.7545455,
                "end_time": 37.0227273,
                "pitch": 63,
                "velocity": 80,
                "duration": 0.2681818,
                "tempo": 120.0
            },
            {
                "start_time": 37.0386364,
                "end_time": 37.1568182,
                "pitch": 68,
                "velocity": 80,
                "duration": 0.1181818,
                "tempo": 120.0
            },
            {
                "start_time": 37.1727273,
                "end_time": 37.2909091,
                "pitch": 71,
                "velocity": 80,
                "duration": 0.1181818,
                "tempo": 120.0
            },
            {
                "start_time": 37.325,
                "end_time": 37.4386364,
                "pitch": 75,
                "velocity": 80,
                "duration": 0.1136364,
                "tempo": 120.0
            },
            {
                "start_time": 37.4727273,
                "end_time": 37.5863636,
                "pitch": 75,
                "velocity": 80,
                "duration": 0.1136364,
                "tempo": 120.0
            },
            {
                "start_time": 37.6204545,
                "end_time": 38.1454545,
                "pitch": 63,
                "velocity": 80,
                "duration": 0.525,
                "tempo": 120.0
            },
            {
                "start_time": 38.1772727,
                "end_time": 38.4409091,
                "pitch": 63,
                "velocity": 80,
                "duration": 0.2636364,
                "tempo": 120.0
            },
            {
                "start_time": 38.4568182,
                "end_time": 38.575,
                "pitch": 71,
                "velocity": 80,
                "duration": 0.1181818,
                "tempo": 120.0
            },
            {
                "start_time": 38.6068182,
                "end_time": 38.725,
                "pitch": 75,
                "velocity": 80,
                "duration": 0.1181818,
                "tempo": 120.0
            },
            {
                "start_time": 38.7409091,
                "end_time": 39.025,
                "pitch": 71,
                "velocity": 80,
                "duration": 0.2840909,
                "tempo": 120.0
            },
            {
                "start_time": 39.0431818,
                "end_time": 39.5772727,
                "pitch": 82,
                "velocity": 80,
                "duration": 0.5340909,
                "tempo": 120.0
            },
            {
                "start_time": 39.6295455,
                "end_time": 39.8840909,
                "pitch": 66,
                "velocity": 80,
                "duration": 0.2545455,
                "tempo": 120.0
            },
            {
                "start_time": 39.9181818,
                "end_time": 40.0386364,
                "pitch": 80,
                "velocity": 80,
                "duration": 0.1204545,
                "tempo": 120.0
            },
            {
                "start_time": 40.0545455,
                "end_time": 40.175,
                "pitch": 82,
                "velocity": 80,
                "duration": 0.1204545,
                "tempo": 120.0
            },
            {
                "start_time": 40.1909091,
                "end_time": 40.7295455,
                "pitch": 73,
                "velocity": 80,
                "duration": 0.5386364,
                "tempo": 120.0
            },
            {
                "start_time": 40.7454545,
                "end_time": 41.0136364,
                "pitch": 70,
                "velocity": 80,
                "duration": 0.2681818,
                "tempo": 120.0
            },
            {
                "start_time": 41.0477273,
                "end_time": 41.1636364,
                "pitch": 80,
                "velocity": 80,
                "duration": 0.1159091,
                "tempo": 120.0
            },
            {
                "start_time": 41.1977273,
                "end_time": 41.3136364,
                "pitch": 82,
                "velocity": 80,
                "duration": 0.1159091,
                "tempo": 120.0
            },
            {
                "start_time": 41.3318182,
                "end_time": 41.9,
                "pitch": 85,
                "velocity": 80,
                "duration": 0.5681818,
                "tempo": 120.0
            },
            {
                "start_time": 41.9181818,
                "end_time": 42.1727273,
                "pitch": 66,
                "velocity": 80,
                "duration": 0.2545455,
                "tempo": 120.0
            },
            {
                "start_time": 42.2068182,
                "end_time": 42.4636364,
                "pitch": 87,
                "velocity": 80,
                "duration": 0.2568182,
                "tempo": 120.0
            },
            {
                "start_time": 42.5136364,
                "end_time": 42.7659091,
                "pitch": 85,
                "velocity": 80,
                "duration": 0.2522727,
                "tempo": 120.0
            },
            {
                "start_time": 42.7818182,
                "end_time": 43.05,
                "pitch": 82,
                "velocity": 80,
                "duration": 0.2681818,
                "tempo": 120.0
            },
            {
                "start_time": 43.0659091,
                "end_time": 43.3363636,
                "pitch": 71,
                "velocity": 80,
                "duration": 0.2704545,
                "tempo": 120.0
            },
            {
                "start_time": 43.3522727,
                "end_time": 43.6045455,
                "pitch": 82,
                "velocity": 80,
                "duration": 0.2522727,
                "tempo": 120.0
            },
            {
                "start_time": 43.6204545,
                "end_time": 44.1909091,
                "pitch": 73,
                "velocity": 80,
                "duration": 0.5704545,
                "tempo": 120.0
            },
            {
                "start_time": 44.2068182,
                "end_time": 44.4636364,
                "pitch": 68,
                "velocity": 80,
                "duration": 0.2568182,
                "tempo": 120.0
            },
            {
                "start_time": 44.4977273,
                "end_time": 44.7704545,
                "pitch": 80,
                "velocity": 80,
                "duration": 0.2727273,
                "tempo": 120.0
            },
            {
                "start_time": 44.8045455,
                "end_time": 45.3386364,
                "pitch": 82,
                "velocity": 80,
                "duration": 0.5340909,
                "tempo": 120.0
            },
            {
                "start_time": 45.3727273,
                "end_time": 45.6363636,
                "pitch": 68,
                "velocity": 80,
                "duration": 0.2636364,
                "tempo": 120.0
            },
            {
                "start_time": 45.6522727,
                "end_time": 45.9159091,
                "pitch": 85,
                "velocity": 80,
                "duration": 0.2636364,
                "tempo": 120.0
            },
            {
                "start_time": 45.9318182,
                "end_time": 46.2045455,
                "pitch": 87,
                "velocity": 80,
                "duration": 0.2727273,
                "tempo": 120.0
            },
            {
                "start_time": 46.2204545,
                "end_time": 46.4795455,
                "pitch": 87,
                "velocity": 80,
                "duration": 0.2590909,
                "tempo": 120.0
            },
            {
                "start_time": 46.4954545,
                "end_time": 46.6136364,
                "pitch": 71,
                "velocity": 80,
                "duration": 0.1181818,
                "tempo": 120.0
            },
            {
                "start_time": 46.6318182,
                "end_time": 46.9227273,
                "pitch": 87,
                "velocity": 80,
                "duration": 0.2909091,
                "tempo": 120.0
            },
            {
                "start_time": 46.9386364,
                "end_time": 47.2090909,
                "pitch": 82,
                "velocity": 80,
                "duration": 0.2704545,
                "tempo": 120.0
            },
            {
                "start_time": 47.2272727,
                "end_time": 47.4931818,
                "pitch": 82,
                "velocity": 80,
                "duration": 0.2659091,
                "tempo": 120.0
            },
            {
                "start_time": 47.5272727,
                "end_time": 47.6454545,
                "pitch": 80,
                "velocity": 80,
                "duration": 0.1181818,
                "tempo": 120.0
            },
            {
                "start_time": 47.6613636,
                "end_time": 47.925,
                "pitch": 75,
                "velocity": 80,
                "duration": 0.2636364,
                "tempo": 120.0
            },
            {
                "start_time": 47.9409091,
                "end_time": 48.2022727,
                "pitch": 80,
                "velocity": 80,
                "duration": 0.2613636,
                "tempo": 120.0
            },
            {
                "start_time": 48.2363636,
                "end_time": 48.7886364,
                "pitch": 73,
                "velocity": 80,
                "duration": 0.5522727,
                "tempo": 120.0
            },
            {
                "start_time": 48.8045455,
                "end_time": 49.0840909,
                "pitch": 71,
                "velocity": 80,
                "duration": 0.2795455,
                "tempo": 120.0
            },
            {
                "start_time": 49.1,
                "end_time": 49.6318182,
                "pitch": 82,
                "velocity": 80,
                "duration": 0.5318182,
                "tempo": 120.0
            },
            {
                "start_time": 49.6818182,
                "end_time": 49.9318182,
                "pitch": 85,
                "velocity": 80,
                "duration": 0.25,
                "tempo": 120.0
            },
            {
                "start_time": 49.95,
                "end_time": 50.2113636,
                "pitch": 66,
                "velocity": 80,
                "duration": 0.2613636,
                "tempo": 120.0
            },
            {
                "start_time": 50.2272727,
                "end_time": 50.5068182,
                "pitch": 87,
                "velocity": 80,
                "duration": 0.2795455,
                "tempo": 120.0
            },
            {
                "start_time": 50.5227273,
                "end_time": 51.0772727,
                "pitch": 85,
                "velocity": 80,
                "duration": 0.5545455,
                "tempo": 120.0
            },
            {
                "start_time": 51.1090909,
                "end_time": 51.3818182,
                "pitch": 71,
                "velocity": 80,
                "duration": 0.2727273,
                "tempo": 120.0
            },
            {
                "start_time": 51.4,
                "end_time": 51.9477273,
                "pitch": 80,
                "velocity": 80,
                "duration": 0.5477273,
                "tempo": 120.0
            },
            {
                "start_time": 51.9795455,
                "end_time": 52.2227273,
                "pitch": 82,
                "velocity": 80,
                "duration": 0.2431818,
                "tempo": 120.0
            },
            {
                "start_time": 52.2386364,
                "end_time": 52.5,
                "pitch": 66,
                "velocity": 80,
                "duration": 0.2613636,
                "tempo": 120.0
            },
            {
                "start_time": 52.5340909,
                "end_time": 52.7954545,
                "pitch": 80,
                "velocity": 80,
                "duration": 0.2613636,
                "tempo": 120.0
            },
            {
                "start_time": 52.8113636,
                "end_time": 53.3818182,
                "pitch": 73,
                "velocity": 80,
                "duration": 0.5704545,
                "tempo": 120.0
            },
            {
                "start_time": 53.3977273,
                "end_time": 53.6704545,
                "pitch": 70,
                "velocity": 80,
                "duration": 0.2727273,
                "tempo": 120.0
            },
            {
                "start_time": 53.6886364,
                "end_time": 54.2409091,
                "pitch": 75,
                "velocity": 80,
                "duration": 0.5522727,
                "tempo": 120.0
            },
            {
                "start_time": 54.275,
                "end_time": 54.5204545,
                "pitch": 82,
                "velocity": 80,
                "duration": 0.2454545,
                "tempo": 120.0
            },
            {
                "start_time": 54.5363636,
                "end_time": 54.8113636,
                "pitch": 66,
                "velocity": 80,
                "duration": 0.275,
                "tempo": 120.0
            },
            {
                "start_time": 54.8272727,
                "end_time": 55.0840909,
                "pitch": 80,
                "velocity": 80,
                "duration": 0.2568182,
                "tempo": 120.0
            },
            {
                "start_time": 55.1,
                "end_time": 55.6704545,
                "pitch": 73,
                "velocity": 80,
                "duration": 0.5704545,
                "tempo": 120.0
            },
            {
                "start_time": 55.6863636,
                "end_time": 55.9590909,
                "pitch": 73,
                "velocity": 80,
                "duration": 0.2727273,
                "tempo": 120.0
            },
            {
                "start_time": 55.9772727,
                "end_time": 56.8090909,
                "pitch": 75,
                "velocity": 80,
                "duration": 0.8318182,
                "tempo": 120.0
            },
            {
                "start_time": 56.8590909,
                "end_time": 57.4045455,
                "pitch": 66,
                "velocity": 80,
                "duration": 0.5454545,
                "tempo": 120.0
            }
        ],
        "Violin": [
            {
                "start_time": 0.0113636,
                "end_time": 0.1113636,
                "pitch": 75,
                "velocity": 101,
                "duration": 0.1,
                "tempo": 120.0
            },
            {
                "start_time": 0.1613636,
                "end_time": 0.2772727,
                "pitch": 75,
                "velocity": 101,
                "duration": 0.1159091,
                "tempo": 120.0
            },
            {
                "start_time": 0.2954545,
                "end_time": 0.5636364,
                "pitch": 73,
                "velocity": 101,
                "duration": 0.2681818,
                "tempo": 120.0
            },
            {
                "start_time": 0.5795455,
                "end_time": 0.8431818,
                "pitch": 70,
                "velocity": 101,
                "duration": 0.2636364,
                "tempo": 120.0
            },
            {
                "start_time": 0.875,
                "end_time": 0.9909091,
                "pitch": 73,
                "velocity": 101,
                "duration": 0.1159091,
                "tempo": 120.0
            },
            {
                "start_time": 1.0068182,
                "end_time": 1.2681818,
                "pitch": 73,
                "velocity": 101,
                "duration": 0.2613636,
                "tempo": 120.0
            },
            {
                "start_time": 1.2863636,
                "end_time": 1.4,
                "pitch": 68,
                "velocity": 101,
                "duration": 0.1136364,
                "tempo": 120.0
            },
            {
                "start_time": 1.4340909,
                "end_time": 1.6954545,
                "pitch": 70,
                "velocity": 101,
                "duration": 0.2613636,
                "tempo": 120.0
            },
            {
                "start_time": 1.7295455,
                "end_time": 1.9840909,
                "pitch": 73,
                "velocity": 101,
                "duration": 0.2545455,
                "tempo": 120.0
            },
            {
                "start_time": 2.0022727,
                "end_time": 2.275,
                "pitch": 75,
                "velocity": 101,
                "duration": 0.2727273,
                "tempo": 120.0
            },
            {
                "start_time": 2.3090909,
                "end_time": 2.4409091,
                "pitch": 75,
                "velocity": 101,
                "duration": 0.1318182,
                "tempo": 120.0
            },
            {
                "start_time": 2.4568182,
                "end_time": 2.5727273,
                "pitch": 75,
                "velocity": 101,
                "duration": 0.1159091,
                "tempo": 120.0
            },
            {
                "start_time": 2.5886364,
                "end_time": 2.8522727,
                "pitch": 73,
                "velocity": 101,
                "duration": 0.2636364,
                "tempo": 120.0
            },
            {
                "start_time": 2.8681818,
                "end_time": 3.1477273,
                "pitch": 70,
                "velocity": 101,
                "duration": 0.2795455,
                "tempo": 120.0
            },
            {
                "start_time": 3.1636364,
                "end_time": 3.2772727,
                "pitch": 73,
                "velocity": 101,
                "duration": 0.1136364,
                "tempo": 120.0
            },
            {
                "start_time": 3.2954545,
                "end_time": 3.5590909,
                "pitch": 73,
                "velocity": 101,
                "duration": 0.2636364,
                "tempo": 120.0
            },
            {
                "start_time": 3.5772727,
                "end_time": 3.6931818,
                "pitch": 68,
                "velocity": 101,
                "duration": 0.1159091,
                "tempo": 120.0
            },
            {
                "start_time": 3.7431818,
                "end_time": 3.9954545,
                "pitch": 70,
                "velocity": 101,
                "duration": 0.2522727,
                "tempo": 120.0
            },
            {
                "start_time": 4.0272727,
                "end_time": 4.2795455,
                "pitch": 73,
                "velocity": 101,
                "duration": 0.2522727,
                "tempo": 120.0
            },
            {
                "start_time": 4.2954545,
                "end_time": 4.5795455,
                "pitch": 75,
                "velocity": 101,
                "duration": 0.2840909,
                "tempo": 120.0
            },
            {
                "start_time": 4.5977273,
                "end_time": 4.7295455,
                "pitch": 70,
                "velocity": 101,
                "duration": 0.1318182,
                "tempo": 120.0
            },
            {
                "start_time": 4.7454545,
                "end_time": 4.8590909,
                "pitch": 70,
                "velocity": 101,
                "duration": 0.1136364,
                "tempo": 120.0
            },
            {
                "start_time": 4.8772727,
                "end_time": 4.9909091,
                "pitch": 68,
                "velocity": 101,
                "duration": 0.1136364,
                "tempo": 120.0
            },
            {
                "start_time": 5.025,
                "end_time": 5.1386364,
                "pitch": 68,
                "velocity": 101,
                "duration": 0.1136364,
                "tempo": 120.0
            },
            {
                "start_time": 5.1727273,
                "end_time": 5.2886364,
                "pitch": 68,
                "velocity": 101,
                "duration": 0.1159091,
                "tempo": 120.0
            },
            {
                "start_time": 5.3227273,
                "end_time": 5.4409091,
                "pitch": 66,
                "velocity": 101,
                "duration": 0.1181818,
                "tempo": 120.0
            },
            {
                "start_time": 5.4568182,
                "end_time": 5.5727273,
                "pitch": 68,
                "velocity": 101,
                "duration": 0.1159091,
                "tempo": 120.0
            },
            {
                "start_time": 5.5909091,
                "end_time": 5.725,
                "pitch": 68,
                "velocity": 101,
                "duration": 0.1340909,
                "tempo": 120.0
            },
            {
                "start_time": 5.7409091,
                "end_time": 5.8568182,
                "pitch": 61,
                "velocity": 101,
                "duration": 0.1159091,
                "tempo": 120.0
            },
            {
                "start_time": 5.8886364,
                "end_time": 6.0204545,
                "pitch": 61,
                "velocity": 101,
                "duration": 0.1318182,
                "tempo": 120.0
            },
            {
                "start_time": 6.0363636,
                "end_time": 6.1522727,
                "pitch": 63,
                "velocity": 101,
                "duration": 0.1159091,
                "tempo": 120.0
            },
            {
                "start_time": 6.1681818,
                "end_time": 6.2840909,
                "pitch": 63,
                "velocity": 101,
                "duration": 0.1159091,
                "tempo": 120.0
            },
            {
                "start_time": 6.3159091,
                "end_time": 6.4340909,
                "pitch": 63,
                "velocity": 101,
                "duration": 0.1181818,
                "tempo": 120.0
            },
            {
                "start_time": 6.45,
                "end_time": 6.5659091,
                "pitch": 66,
                "velocity": 101,
                "duration": 0.1159091,
                "tempo": 120.0
            },
            {
                "start_time": 6.6181818,
                "end_time": 6.7340909,
                "pitch": 68,
                "velocity": 101,
                "duration": 0.1159091,
                "tempo": 120.0
            },
            {
                "start_time": 6.75,
                "end_time": 6.8681818,
                "pitch": 68,
                "velocity": 101,
                "duration": 0.1181818,
                "tempo": 120.0
            },
            {
                "start_time": 6.8840909,
                "end_time": 7.0159091,
                "pitch": 70,
                "velocity": 101,
                "duration": 0.1318182,
                "tempo": 120.0
            },
            {
                "start_time": 7.0318182,
                "end_time": 7.1477273,
                "pitch": 70,
                "velocity": 101,
                "duration": 0.1159091,
                "tempo": 120.0
            },
            {
                "start_time": 7.1636364,
                "end_time": 7.2795455,
                "pitch": 68,
                "velocity": 101,
                "duration": 0.1159091,
                "tempo": 120.0
            },
            {
                "start_time": 7.3272727,
                "end_time": 7.4431818,
                "pitch": 68,
                "velocity": 101,
                "duration": 0.1159091,
                "tempo": 120.0
            },
            {
                "start_time": 7.4590909,
                "end_time": 7.5772727,
                "pitch": 68,
                "velocity": 101,
                "duration": 0.1181818,
                "tempo": 120.0
            },
            {
                "start_time": 7.6113636,
                "end_time": 7.7272727,
                "pitch": 66,
                "velocity": 101,
                "duration": 0.1159091,
                "tempo": 120.0
            },
            {
                "start_time": 7.7431818,
                "end_time": 7.8613636,
                "pitch": 68,
                "velocity": 101,
                "duration": 0.1181818,
                "tempo": 120.0
            },
            {
                "start_time": 7.8772727,
                "end_time": 8.0113636,
                "pitch": 68,
                "velocity": 101,
                "duration": 0.1340909,
                "tempo": 120.0
            },
            {
                "start_time": 8.0454545,
                "end_time": 8.1636364,
                "pitch": 61,
                "velocity": 101,
                "duration": 0.1181818,
                "tempo": 120.0
            },
            {
                "start_time": 8.1795455,
                "end_time": 8.3136364,
                "pitch": 61,
                "velocity": 101,
                "duration": 0.1340909,
                "tempo": 120.0
            },
            {
                "start_time": 8.3295455,
                "end_time": 8.4477273,
                "pitch": 63,
                "velocity": 101,
                "duration": 0.1181818,
                "tempo": 120.0
            },
            {
                "start_time": 8.4636364,
                "end_time": 8.5818182,
                "pitch": 63,
                "velocity": 101,
                "duration": 0.1181818,
                "tempo": 120.0
            },
            {
                "start_time": 8.6136364,
                "end_time": 8.7295455,
                "pitch": 63,
                "velocity": 101,
                "duration": 0.1159091,
                "tempo": 120.0
            },
            {
                "start_time": 8.7613636,
                "end_time": 8.8772727,
                "pitch": 66,
                "velocity": 101,
                "duration": 0.1159091,
                "tempo": 120.0
            },
            {
                "start_time": 8.9090909,
                "end_time": 9.025,
                "pitch": 68,
                "velocity": 101,
                "duration": 0.1159091,
                "tempo": 120.0
            },
            {
                "start_time": 9.0409091,
                "end_time": 9.1568182,
                "pitch": 68,
                "velocity": 101,
                "duration": 0.1159091,
                "tempo": 120.0
            },
            {
                "start_time": 9.1727273,
                "end_time": 9.7318182,
                "pitch": 68,
                "velocity": 101,
                "duration": 0.5590909,
                "tempo": 120.0
            },
            {
                "start_time": 9.7477273,
                "end_time": 10.0159091,
                "pitch": 68,
                "velocity": 101,
                "duration": 0.2681818,
                "tempo": 120.0
            },
            {
                "start_time": 10.0318182,
                "end_time": 10.6,
                "pitch": 73,
                "velocity": 101,
                "duration": 0.5681818,
                "tempo": 120.0
            },
            {
                "start_time": 10.6181818,
                "end_time": 10.8681818,
                "pitch": 75,
                "velocity": 101,
                "duration": 0.25,
                "tempo": 120.0
            },
            {
                "start_time": 10.9181818,
                "end_time": 11.175,
                "pitch": 70,
                "velocity": 101,
                "duration": 0.2568182,
                "tempo": 120.0
            },
            {
                "start_time": 11.2090909,
                "end_time": 11.4659091,
                "pitch": 73,
                "velocity": 101,
                "duration": 0.2568182,
                "tempo": 120.0
            },
            {
                "start_time": 11.4818182,
                "end_time": 11.6090909,
                "pitch": 75,
                "velocity": 101,
                "duration": 0.1272727,
                "tempo": 120.0
            },
            {
                "start_time": 11.6409091,
                "end_time": 11.7522727,
                "pitch": 75,
                "velocity": 101,
                "duration": 0.1113636,
                "tempo": 120.0
            },
            {
                "start_time": 11.7681818,
                "end_time": 12.0204545,
                "pitch": 73,
                "velocity": 101,
                "duration": 0.2522727,
                "tempo": 120.0
            },
            {
                "start_time": 12.0363636,
                "end_time": 12.3045455,
                "pitch": 70,
                "velocity": 101,
                "duration": 0.2681818,
                "tempo": 120.0
            },
            {
                "start_time": 12.3363636,
                "end_time": 12.4545455,
                "pitch": 73,
                "velocity": 101,
                "duration": 0.1181818,
                "tempo": 120.0
            },
            {
                "start_time": 12.4886364,
                "end_time": 12.7386364,
                "pitch": 73,
                "velocity": 101,
                "duration": 0.25,
                "tempo": 120.0
            },
            {
                "start_time": 12.7568182,
                "end_time": 12.8909091,
                "pitch": 68,
                "velocity": 101,
                "duration": 0.1340909,
                "tempo": 120.0
            },
            {
                "start_time": 12.9068182,
                "end_time": 13.1909091,
                "pitch": 70,
                "velocity": 101,
                "duration": 0.2840909,
                "tempo": 120.0
            },
            {
                "start_time": 13.2068182,
                "end_time": 13.4636364,
                "pitch": 70,
                "velocity": 101,
                "duration": 0.2568182,
                "tempo": 120.0
            },
            {
                "start_time": 13.4977273,
                "end_time": 13.7545455,
                "pitch": 75,
                "velocity": 101,
                "duration": 0.2568182,
                "tempo": 120.0
            },
            {
                "start_time": 13.8045455,
                "end_time": 13.9227273,
                "pitch": 73,
                "velocity": 101,
                "duration": 0.1181818,
                "tempo": 120.0
            },
            {
                "start_time": 13.9386364,
                "end_time": 14.0568182,
                "pitch": 73,
                "velocity": 101,
                "duration": 0.1181818,
                "tempo": 120.0
            },
            {
                "start_time": 14.0727273,
                "end_time": 14.3409091,
                "pitch": 70,
                "velocity": 101,
                "duration": 0.2681818,
                "tempo": 120.0
            },
            {
                "start_time": 14.3568182,
                "end_time": 14.6272727,
                "pitch": 68,
                "velocity": 101,
                "duration": 0.2704545,
                "tempo": 120.0
            },
            {
                "start_time": 14.6431818,
                "end_time": 14.7522727,
                "pitch": 68,
                "velocity": 101,
                "duration": 0.1090909,
                "tempo": 120.0
            },
            {
                "start_time": 14.7840909,
                "end_time": 15.0295455,
                "pitch": 70,
                "velocity": 101,
                "duration": 0.2454545,
                "tempo": 120.0
            },
            {
                "start_time": 15.0454545,
                "end_time": 15.1795455,
                "pitch": 73,
                "velocity": 101,
                "duration": 0.1340909,
                "tempo": 120.0
            },
            {
                "start_time": 15.2136364,
                "end_time": 15.4795455,
                "pitch": 73,
                "velocity": 101,
                "duration": 0.2659091,
                "tempo": 120.0
            },
            {
                "start_time": 15.4977273,
                "end_time": 15.7522727,
                "pitch": 70,
                "velocity": 101,
                "duration": 0.2545455,
                "tempo": 120.0
            },
            {
                "start_time": 15.7863636,
                "end_time": 16.0613636,
                "pitch": 73,
                "velocity": 101,
                "duration": 0.275,
                "tempo": 120.0
            },
            {
                "start_time": 16.0954545,
                "end_time": 16.2113636,
                "pitch": 75,
                "velocity": 101,
                "duration": 0.1159091,
                "tempo": 120.0
            },
            {
                "start_time": 16.2272727,
                "end_time": 16.3454545,
                "pitch": 73,
                "velocity": 101,
                "duration": 0.1181818,
                "tempo": 120.0
            },
            {
                "start_time": 16.3613636,
                "end_time": 16.6295455,
                "pitch": 70,
                "velocity": 101,
                "duration": 0.2681818,
                "tempo": 120.0
            },
            {
                "start_time": 16.6636364,
                "end_time": 16.9272727,
                "pitch": 68,
                "velocity": 101,
                "duration": 0.2636364,
                "tempo": 120.0
            },
            {
                "start_time": 16.9431818,
                "end_time": 17.4954545,
                "pitch": 71,
                "velocity": 101,
                "duration": 0.5522727,
                "tempo": 120.0
            },
            {
                "start_time": 17.5113636,
                "end_time": 17.625,
                "pitch": 71,
                "velocity": 101,
                "duration": 0.1136364,
                "tempo": 120.0
            },
            {
                "start_time": 17.6409091,
                "end_time": 17.7704545,
                "pitch": 70,
                "velocity": 101,
                "duration": 0.1295455,
                "tempo": 120.0
            },
            {
                "start_time": 17.7863636,
                "end_time": 18.0409091,
                "pitch": 70,
                "velocity": 101,
                "duration": 0.2545455,
                "tempo": 120.0
            },
            {
                "start_time": 18.0931818,
                "end_time": 18.2113636,
                "pitch": 68,
                "velocity": 101,
                "duration": 0.1181818,
                "tempo": 120.0
            },
            {
                "start_time": 18.2295455,
                "end_time": 18.3477273,
                "pitch": 66,
                "velocity": 101,
                "duration": 0.1181818,
                "tempo": 120.0
            },
            {
                "start_time": 18.3840909,
                "end_time": 18.6340909,
                "pitch": 73,
                "velocity": 101,
                "duration": 0.25,
                "tempo": 120.0
            },
            {
                "start_time": 18.65,
                "end_time": 18.9363636,
                "pitch": 75,
                "velocity": 101,
                "duration": 0.2863636,
                "tempo": 120.0
            },
            {
                "start_time": 18.9522727,
                "end_time": 19.0840909,
                "pitch": 80,
                "velocity": 101,
                "duration": 0.1318182,
                "tempo": 120.0
            },
            {
                "start_time": 19.1,
                "end_time": 19.2159091,
                "pitch": 78,
                "velocity": 101,
                "duration": 0.1159091,
                "tempo": 120.0
            },
            {
                "start_time": 19.2318182,
                "end_time": 19.3454545,
                "pitch": 75,
                "velocity": 101,
                "duration": 0.1136364,
                "tempo": 120.0
            },
            {
                "start_time": 19.3795455,
                "end_time": 19.4931818,
                "pitch": 73,
                "velocity": 101,
                "duration": 0.1136364,
                "tempo": 120.0
            },
            {
                "start_time": 19.5272727,
                "end_time": 19.7954545,
                "pitch": 73,
                "velocity": 101,
                "duration": 0.2681818,
                "tempo": 120.0
            },
            {
                "start_time": 19.8113636,
                "end_time": 20.0795455,
                "pitch": 75,
                "velocity": 101,
                "duration": 0.2681818,
                "tempo": 120.0
            },
            {
                "start_time": 20.0954545,
                "end_time": 20.2113636,
                "pitch": 80,
                "velocity": 101,
                "duration": 0.1159091,
                "tempo": 120.0
            },
            {
                "start_time": 20.2431818,
                "end_time": 20.375,
                "pitch": 78,
                "velocity": 101,
                "duration": 0.1318182,
                "tempo": 120.0
            },
            {
                "start_time": 20.3909091,
                "end_time": 20.5068182,
                "pitch": 80,
                "velocity": 101,
                "duration": 0.1159091,
                "tempo": 120.0
            },
            {
                "start_time": 20.5227273,
                "end_time": 20.6386364,
                "pitch": 73,
                "velocity": 101,
                "duration": 0.1159091,
                "tempo": 120.0
            },
            {
                "start_time": 20.6704545,
                "end_time": 20.9227273,
                "pitch": 80,
                "velocity": 101,
                "duration": 0.2522727,
                "tempo": 120.0
            },
            {
                "start_time": 20.9727273,
                "end_time": 21.0886364,
                "pitch": 73,
                "velocity": 101,
                "duration": 0.1159091,
                "tempo": 120.0
            },
            {
                "start_time": 21.1068182,
                "end_time": 21.2227273,
                "pitch": 75,
                "velocity": 101,
                "duration": 0.1159091,
                "tempo": 120.0
            },
            {
                "start_time": 21.2386364,
                "end_time": 21.3704545,
                "pitch": 78,
                "velocity": 101,
                "duration": 0.1318182,
                "tempo": 120.0
            },
            {
                "start_time": 21.3886364,
                "end_time": 21.5022727,
                "pitch": 80,
                "velocity": 101,
                "duration": 0.1136364,
                "tempo": 120.0
            },
            {
                "start_time": 21.5181818,
                "end_time": 21.6340909,
                "pitch": 83,
                "velocity": 101,
                "duration": 0.1159091,
                "tempo": 120.0
            },
            {
                "start_time": 21.6840909,
                "end_time": 21.7977273,
                "pitch": 85,
                "velocity": 101,
                "duration": 0.1136364,
                "tempo": 120.0
            },
            {
                "start_time": 21.8136364,
                "end_time": 22.0818182,
                "pitch": 85,
                "velocity": 101,
                "duration": 0.2681818,
                "tempo": 120.0
            },
            {
                "start_time": 22.1,
                "end_time": 22.3659091,
                "pitch": 83,
                "velocity": 101,
                "duration": 0.2659091,
                "tempo": 120.0
            },
            {
                "start_time": 22.4,
                "end_time": 22.6727273,
                "pitch": 80,
                "velocity": 101,
                "duration": 0.2727273,
                "tempo": 120.0
            },
            {
                "start_time": 22.6909091,
                "end_time": 23.2386364,
                "pitch": 78,
                "velocity": 101,
                "duration": 0.5477273,
                "tempo": 120.0
            },
            {
                "start_time": 23.2704545,
                "end_time": 23.3840909,
                "pitch": 73,
                "velocity": 101,
                "duration": 0.1136364,
                "tempo": 120.0
            },
            {
                "start_time": 23.4,
                "end_time": 23.5113636,
                "pitch": 75,
                "velocity": 101,
                "duration": 0.1113636,
                "tempo": 120.0
            },
            {
                "start_time": 23.5272727,
                "end_time": 23.6590909,
                "pitch": 78,
                "velocity": 101,
                "duration": 0.1318182,
                "tempo": 120.0
            },
            {
                "start_time": 23.675,
                "end_time": 23.7909091,
                "pitch": 80,
                "velocity": 101,
                "duration": 0.1159091,
                "tempo": 120.0
            },
            {
                "start_time": 23.8227273,
                "end_time": 24.0863636,
                "pitch": 80,
                "velocity": 101,
                "duration": 0.2636364,
                "tempo": 120.0
            },
            {
                "start_time": 24.1022727,
                "end_time": 24.3704545,
                "pitch": 80,
                "velocity": 101,
                "duration": 0.2681818,
                "tempo": 120.0
            },
            {
                "start_time": 24.3863636,
                "end_time": 24.6727273,
                "pitch": 78,
                "velocity": 101,
                "duration": 0.2863636,
                "tempo": 120.0
            },
            {
                "start_time": 24.6886364,
                "end_time": 24.8090909,
                "pitch": 75,
                "velocity": 101,
                "duration": 0.1204545,
                "tempo": 120.0
            },
            {
                "start_time": 24.825,
                "end_time": 24.9613636,
                "pitch": 78,
                "velocity": 101,
                "duration": 0.1363636,
                "tempo": 120.0
            },
            {
                "start_time": 24.9795455,
                "end_time": 25.2340909,
                "pitch": 75,
                "velocity": 101,
                "duration": 0.2545455,
                "tempo": 120.0
            },
            {
                "start_time": 25.2863636,
                "end_time": 25.5318182,
                "pitch": 80,
                "velocity": 101,
                "duration": 0.2454545,
                "tempo": 120.0
            },
            {
                "start_time": 25.5659091,
                "end_time": 25.6795455,
                "pitch": 73,
                "velocity": 101,
                "duration": 0.1136364,
                "tempo": 120.0
            },
            {
                "start_time": 25.6954545,
                "end_time": 25.8113636,
                "pitch": 75,
                "velocity": 101,
                "duration": 0.1159091,
                "tempo": 120.0
            },
            {
                "start_time": 25.8272727,
                "end_time": 25.9568182,
                "pitch": 78,
                "velocity": 101,
                "duration": 0.1295455,
                "tempo": 120.0
            },
            {
                "start_time": 25.9886364,
                "end_time": 26.1022727,
                "pitch": 80,
                "velocity": 101,
                "duration": 0.1136364,
                "tempo": 120.0
            },
            {
                "start_time": 26.1181818,
                "end_time": 26.2454545,
                "pitch": 83,
                "velocity": 101,
                "duration": 0.1272727,
                "tempo": 120.0
            },
            {
                "start_time": 26.2636364,
                "end_time": 26.375,
                "pitch": 85,
                "velocity": 101,
                "duration": 0.1113636,
                "tempo": 120.0
            },
            {
                "start_time": 26.3909091,
                "end_time": 26.6590909,
                "pitch": 85,
                "velocity": 101,
                "duration": 0.2681818,
                "tempo": 120.0
            },
            {
                "start_time": 26.6931818,
                "end_time": 26.9613636,
                "pitch": 83,
                "velocity": 101,
                "duration": 0.2681818,
                "tempo": 120.0
            },
            {
                "start_time": 26.9772727,
                "end_time": 27.25,
                "pitch": 80,
                "velocity": 101,
                "duration": 0.2727273,
                "tempo": 120.0
            },
            {
                "start_time": 27.2681818,
                "end_time": 27.825,
                "pitch": 78,
                "velocity": 101,
                "duration": 0.5568182,
                "tempo": 120.0
            },
            {
                "start_time": 27.8590909,
                "end_time": 27.9772727,
                "pitch": 73,
                "velocity": 101,
                "duration": 0.1181818,
                "tempo": 120.0
            },
            {
                "start_time": 27.9931818,
                "end_time": 28.1113636,
                "pitch": 75,
                "velocity": 101,
                "duration": 0.1181818,
                "tempo": 120.0
            },
            {
                "start_time": 28.1613636,
                "end_time": 28.2772727,
                "pitch": 78,
                "velocity": 101,
                "duration": 0.1159091,
                "tempo": 120.0
            },
            {
                "start_time": 28.2954545,
                "end_time": 28.4113636,
                "pitch": 80,
                "velocity": 101,
                "duration": 0.1159091,
                "tempo": 120.0
            },
            {
                "start_time": 28.4272727,
                "end_time": 28.6954545,
                "pitch": 80,
                "velocity": 101,
                "duration": 0.2681818,
                "tempo": 120.0
            },
            {
                "start_time": 28.7136364,
                "end_time": 28.9818182,
                "pitch": 80,
                "velocity": 101,
                "duration": 0.2681818,
                "tempo": 120.0
            },
            {
                "start_time": 28.9977273,
                "end_time": 29.25,
                "pitch": 78,
                "velocity": 101,
                "duration": 0.2522727,
                "tempo": 120.0
            },
            {
                "start_time": 29.2659091,
                "end_time": 29.3863636,
                "pitch": 75,
                "velocity": 101,
                "duration": 0.1204545,
                "tempo": 120.0
            },
            {
                "start_time": 29.4022727,
                "end_time": 29.5386364,
                "pitch": 78,
                "velocity": 101,
                "duration": 0.1363636,
                "tempo": 120.0
            },
            {
                "start_time": 29.5727273,
                "end_time": 29.8454545,
                "pitch": 75,
                "velocity": 101,
                "duration": 0.2727273,
                "tempo": 120.0
            },
            {
                "start_time": 29.8636364,
                "end_time": 30.1090909,
                "pitch": 80,
                "velocity": 101,
                "duration": 0.2454545,
                "tempo": 120.0
            },
            {
                "start_time": 30.1431818,
                "end_time": 30.2568182,
                "pitch": 73,
                "velocity": 101,
                "duration": 0.1136364,
                "tempo": 120.0
            },
            {
                "start_time": 30.2909091,
                "end_time": 30.4045455,
                "pitch": 75,
                "velocity": 101,
                "duration": 0.1136364,
                "tempo": 120.0
            },
            {
                "start_time": 30.4386364,
                "end_time": 30.5568182,
                "pitch": 78,
                "velocity": 101,
                "duration": 0.1181818,
                "tempo": 120.0
            },
            {
                "start_time": 30.575,
                "end_time": 30.6931818,
                "pitch": 80,
                "velocity": 101,
                "duration": 0.1181818,
                "tempo": 120.0
            },
            {
                "start_time": 30.7113636,
                "end_time": 30.8477273,
                "pitch": 83,
                "velocity": 101,
                "duration": 0.1363636,
                "tempo": 120.0
            },
            {
                "start_time": 30.8636364,
                "end_time": 30.9840909,
                "pitch": 85,
                "velocity": 101,
                "duration": 0.1204545,
                "tempo": 120.0
            },
            {
                "start_time": 31.0181818,
                "end_time": 31.2818182,
                "pitch": 85,
                "velocity": 101,
                "duration": 0.2636364,
                "tempo": 120.0
            },
            {
                "start_time": 31.2977273,
                "end_time": 31.5590909,
                "pitch": 83,
                "velocity": 101,
                "duration": 0.2613636,
                "tempo": 120.0
            },
            {
                "start_time": 31.5772727,
                "end_time": 31.8568182,
                "pitch": 80,
                "velocity": 101,
                "duration": 0.2795455,
                "tempo": 120.0
            },
            {
                "start_time": 31.8727273,
                "end_time": 32.4022727,
                "pitch": 78,
                "velocity": 101,
                "duration": 0.5295455,
                "tempo": 120.0
            },
            {
                "start_time": 32.4522727,
                "end_time": 32.5704545,
                "pitch": 73,
                "velocity": 101,
                "duration": 0.1181818,
                "tempo": 120.0
            },
            {
                "start_time": 32.5863636,
                "end_time": 32.7045455,
                "pitch": 75,
                "velocity": 101,
                "duration": 0.1181818,
                "tempo": 120.0
            },
            {
                "start_time": 32.7363636,
                "end_time": 32.8545455,
                "pitch": 78,
                "velocity": 101,
                "duration": 0.1181818,
                "tempo": 120.0
            },
            {
                "start_time": 32.8704545,
                "end_time": 32.9886364,
                "pitch": 80,
                "velocity": 101,
                "duration": 0.1181818,
                "tempo": 120.0
            },
            {
                "start_time": 33.0045455,
                "end_time": 33.2886364,
                "pitch": 80,
                "velocity": 101,
                "duration": 0.2840909,
                "tempo": 120.0
            },
            {
                "start_time": 33.3068182,
                "end_time": 33.5681818,
                "pitch": 80,
                "velocity": 101,
                "duration": 0.2613636,
                "tempo": 120.0
            },
            {
                "start_time": 33.5863636,
                "end_time": 33.8477273,
                "pitch": 78,
                "velocity": 101,
                "duration": 0.2613636,
                "tempo": 120.0
            },
            {
                "start_time": 33.8818182,
                "end_time": 33.9977273,
                "pitch": 75,
                "velocity": 101,
                "duration": 0.1159091,
                "tempo": 120.0
            },
            {
                "start_time": 34.0318182,
                "end_time": 34.1477273,
                "pitch": 78,
                "velocity": 101,
                "duration": 0.1159091,
                "tempo": 120.0
            },
            {
                "start_time": 34.1659091,
                "end_time": 34.4340909,
                "pitch": 75,
                "velocity": 101,
                "duration": 0.2681818,
                "tempo": 120.0
            },
            {
                "start_time": 34.45,
                "end_time": 34.7227273,
                "pitch": 80,
                "velocity": 101,
                "duration": 0.2727273,
                "tempo": 120.0
            },
            {
                "start_time": 34.7386364,
                "end_time": 34.8522727,
                "pitch": 73,
                "velocity": 101,
                "duration": 0.1136364,
                "tempo": 120.0
            },
            {
                "start_time": 34.8681818,
                "end_time": 34.9818182,
                "pitch": 75,
                "velocity": 101,
                "duration": 0.1136364,
                "tempo": 120.0
            },
            {
                "start_time": 35.0136364,
                "end_time": 35.1340909,
                "pitch": 78,
                "velocity": 101,
                "duration": 0.1204545,
                "tempo": 120.0
            },
            {
                "start_time": 35.15,
                "end_time": 35.2704545,
                "pitch": 80,
                "velocity": 101,
                "duration": 0.1204545,
                "tempo": 120.0
            },
            {
                "start_time": 35.3204545,
                "end_time": 35.4409091,
                "pitch": 83,
                "velocity": 101,
                "duration": 0.1204545,
                "tempo": 120.0
            },
            {
                "start_time": 35.4568182,
                "end_time": 35.5772727,
                "pitch": 85,
                "velocity": 101,
                "duration": 0.1204545,
                "tempo": 120.0
            },
            {
                "start_time": 35.5931818,
                "end_time": 35.8522727,
                "pitch": 85,
                "velocity": 101,
                "duration": 0.2590909,
                "tempo": 120.0
            },
            {
                "start_time": 35.8681818,
                "end_time": 36.1409091,
                "pitch": 85,
                "velocity": 101,
                "duration": 0.2727273,
                "tempo": 120.0
            },
            {
                "start_time": 36.1568182,
                "end_time": 36.4295455,
                "pitch": 80,
                "velocity": 101,
                "duration": 0.2727273,
                "tempo": 120.0
            },
            {
                "start_time": 36.4477273,
                "end_time": 36.7204545,
                "pitch": 78,
                "velocity": 101,
                "duration": 0.2727273,
                "tempo": 120.0
            },
            {
                "start_time": 36.7545455,
                "end_time": 37.0227273,
                "pitch": 78,
                "velocity": 101,
                "duration": 0.2681818,
                "tempo": 120.0
            },
            {
                "start_time": 37.0386364,
                "end_time": 37.1568182,
                "pitch": 73,
                "velocity": 101,
                "duration": 0.1181818,
                "tempo": 120.0
            },
            {
                "start_time": 37.1727273,
                "end_time": 37.2909091,
                "pitch": 75,
                "velocity": 101,
                "duration": 0.1181818,
                "tempo": 120.0
            },
            {
                "start_time": 37.325,
                "end_time": 37.4386364,
                "pitch": 78,
                "velocity": 101,
                "duration": 0.1136364,
                "tempo": 120.0
            },
            {
                "start_time": 37.4727273,
                "end_time": 37.5863636,
                "pitch": 80,
                "velocity": 101,
                "duration": 0.1136364,
                "tempo": 120.0
            },
            {
                "start_time": 37.6204545,
                "end_time": 37.8659091,
                "pitch": 80,
                "velocity": 101,
                "duration": 0.2454545,
                "tempo": 120.0
            },
            {
                "start_time": 37.8818182,
                "end_time": 38.1454545,
                "pitch": 80,
                "velocity": 101,
                "duration": 0.2636364,
                "tempo": 120.0
            },
            {
                "start_time": 38.1772727,
                "end_time": 38.4409091,
                "pitch": 78,
                "velocity": 101,
                "duration": 0.2636364,
                "tempo": 120.0
            },
            {
                "start_time": 38.4568182,
                "end_time": 38.575,
                "pitch": 75,
                "velocity": 101,
                "duration": 0.1181818,
                "tempo": 120.0
            },
            {
                "start_time": 38.6068182,
                "end_time": 38.725,
                "pitch": 78,
                "velocity": 101,
                "duration": 0.1181818,
                "tempo": 120.0
            },
            {
                "start_time": 38.7409091,
                "end_time": 39.025,
                "pitch": 75,
                "velocity": 101,
                "duration": 0.2840909,
                "tempo": 120.0
            },
            {
                "start_time": 39.0431818,
                "end_time": 39.5772727,
                "pitch": 82,
                "velocity": 101,
                "duration": 0.5340909,
                "tempo": 120.0
            },
            {
                "start_time": 39.6295455,
                "end_time": 39.8840909,
                "pitch": 70,
                "velocity": 101,
                "duration": 0.2545455,
                "tempo": 120.0
            },
            {
                "start_time": 39.9181818,
                "end_time": 40.0386364,
                "pitch": 80,
                "velocity": 101,
                "duration": 0.1204545,
                "tempo": 120.0
            },
            {
                "start_time": 40.0545455,
                "end_time": 40.175,
                "pitch": 82,
                "velocity": 101,
                "duration": 0.1204545,
                "tempo": 120.0
            },
            {
                "start_time": 40.1909091,
                "end_time": 41.0136364,
                "pitch": 73,
                "velocity": 101,
                "duration": 0.8227273,
                "tempo": 120.0
            },
            {
                "start_time": 41.0477273,
                "end_time": 41.1636364,
                "pitch": 80,
                "velocity": 101,
                "duration": 0.1159091,
                "tempo": 120.0
            },
            {
                "start_time": 41.1977273,
                "end_time": 41.3136364,
                "pitch": 82,
                "velocity": 101,
                "duration": 0.1159091,
                "tempo": 120.0
            },
            {
                "start_time": 41.3318182,
                "end_time": 41.9,
                "pitch": 85,
                "velocity": 101,
                "duration": 0.5681818,
                "tempo": 120.0
            },
            {
                "start_time": 41.9181818,
                "end_time": 42.1727273,
                "pitch": 70,
                "velocity": 101,
                "duration": 0.2545455,
                "tempo": 120.0
            },
            {
                "start_time": 42.2068182,
                "end_time": 42.4636364,
                "pitch": 87,
                "velocity": 101,
                "duration": 0.2568182,
                "tempo": 120.0
            },
            {
                "start_time": 42.5136364,
                "end_time": 42.7659091,
                "pitch": 85,
                "velocity": 101,
                "duration": 0.2522727,
                "tempo": 120.0
            },
            {
                "start_time": 42.7818182,
                "end_time": 43.05,
                "pitch": 82,
                "velocity": 101,
                "duration": 0.2681818,
                "tempo": 120.0
            },
            {
                "start_time": 43.0659091,
                "end_time": 43.3363636,
                "pitch": 80,
                "velocity": 101,
                "duration": 0.2704545,
                "tempo": 120.0
            },
            {
                "start_time": 43.3522727,
                "end_time": 43.6045455,
                "pitch": 82,
                "velocity": 101,
                "duration": 0.2522727,
                "tempo": 120.0
            },
            {
                "start_time": 43.6204545,
                "end_time": 44.1909091,
                "pitch": 73,
                "velocity": 101,
                "duration": 0.5704545,
                "tempo": 120.0
            },
            {
                "start_time": 44.2068182,
                "end_time": 44.4636364,
                "pitch": 71,
                "velocity": 101,
                "duration": 0.2568182,
                "tempo": 120.0
            },
            {
                "start_time": 44.4977273,
                "end_time": 44.7704545,
                "pitch": 80,
                "velocity": 101,
                "duration": 0.2727273,
                "tempo": 120.0
            },
            {
                "start_time": 44.8045455,
                "end_time": 45.3386364,
                "pitch": 82,
                "velocity": 101,
                "duration": 0.5340909,
                "tempo": 120.0
            },
            {
                "start_time": 45.3727273,
                "end_time": 45.6363636,
                "pitch": 71,
                "velocity": 101,
                "duration": 0.2636364,
                "tempo": 120.0
            },
            {
                "start_time": 45.6522727,
                "end_time": 45.9159091,
                "pitch": 85,
                "velocity": 101,
                "duration": 0.2636364,
                "tempo": 120.0
            },
            {
                "start_time": 45.9318182,
                "end_time": 46.2045455,
                "pitch": 87,
                "velocity": 101,
                "duration": 0.2727273,
                "tempo": 120.0
            },
            {
                "start_time": 46.2204545,
                "end_time": 46.4795455,
                "pitch": 87,
                "velocity": 101,
                "duration": 0.2590909,
                "tempo": 120.0
            },
            {
                "start_time": 46.4954545,
                "end_time": 46.6136364,
                "pitch": 85,
                "velocity": 101,
                "duration": 0.1181818,
                "tempo": 120.0
            },
            {
                "start_time": 46.6318182,
                "end_time": 46.9227273,
                "pitch": 87,
                "velocity": 101,
                "duration": 0.2909091,
                "tempo": 120.0
            },
            {
                "start_time": 46.9386364,
                "end_time": 47.2090909,
                "pitch": 82,
                "velocity": 101,
                "duration": 0.2704545,
                "tempo": 120.0
            },
            {
                "start_time": 47.2272727,
                "end_time": 47.4931818,
                "pitch": 82,
                "velocity": 101,
                "duration": 0.2659091,
                "tempo": 120.0
            },
            {
                "start_time": 47.5272727,
                "end_time": 47.6454545,
                "pitch": 80,
                "velocity": 101,
                "duration": 0.1181818,
                "tempo": 120.0
            },
            {
                "start_time": 47.6613636,
                "end_time": 47.925,
                "pitch": 80,
                "velocity": 101,
                "duration": 0.2636364,
                "tempo": 120.0
            },
            {
                "start_time": 47.9409091,
                "end_time": 48.2022727,
                "pitch": 80,
                "velocity": 101,
                "duration": 0.2613636,
                "tempo": 120.0
            },
            {
                "start_time": 48.2363636,
                "end_time": 48.7886364,
                "pitch": 73,
                "velocity": 101,
                "duration": 0.5522727,
                "tempo": 120.0
            },
            {
                "start_time": 48.8045455,
                "end_time": 49.0840909,
                "pitch": 73,
                "velocity": 101,
                "duration": 0.2795455,
                "tempo": 120.0
            },
            {
                "start_time": 49.1,
                "end_time": 49.6318182,
                "pitch": 82,
                "velocity": 101,
                "duration": 0.5318182,
                "tempo": 120.0
            },
            {
                "start_time": 49.6818182,
                "end_time": 49.9318182,
                "pitch": 85,
                "velocity": 101,
                "duration": 0.25,
                "tempo": 120.0
            },
            {
                "start_time": 49.95,
                "end_time": 50.2113636,
                "pitch": 70,
                "velocity": 101,
                "duration": 0.2613636,
                "tempo": 120.0
            },
            {
                "start_time": 50.2272727,
                "end_time": 50.5068182,
                "pitch": 87,
                "velocity": 101,
                "duration": 0.2795455,
                "tempo": 120.0
            },
            {
                "start_time": 50.5227273,
                "end_time": 51.0772727,
                "pitch": 85,
                "velocity": 101,
                "duration": 0.5545455,
                "tempo": 120.0
            },
            {
                "start_time": 51.1090909,
                "end_time": 51.3818182,
                "pitch": 82,
                "velocity": 101,
                "duration": 0.2727273,
                "tempo": 120.0
            },
            {
                "start_time": 51.4,
                "end_time": 51.9477273,
                "pitch": 80,
                "velocity": 101,
                "duration": 0.5477273,
                "tempo": 120.0
            },
            {
                "start_time": 51.9795455,
                "end_time": 52.2227273,
                "pitch": 82,
                "velocity": 101,
                "duration": 0.2431818,
                "tempo": 120.0
            },
            {
                "start_time": 52.2386364,
                "end_time": 52.5,
                "pitch": 70,
                "velocity": 101,
                "duration": 0.2613636,
                "tempo": 120.0
            },
            {
                "start_time": 52.5340909,
                "end_time": 52.7954545,
                "pitch": 80,
                "velocity": 101,
                "duration": 0.2613636,
                "tempo": 120.0
            },
            {
                "start_time": 52.8113636,
                "end_time": 53.6704545,
                "pitch": 73,
                "velocity": 101,
                "duration": 0.8590909,
                "tempo": 120.0
            },
            {
                "start_time": 53.6886364,
                "end_time": 54.2409091,
                "pitch": 75,
                "velocity": 101,
                "duration": 0.5522727,
                "tempo": 120.0
            },
            {
                "start_time": 54.275,
                "end_time": 54.5204545,
                "pitch": 82,
                "velocity": 101,
                "duration": 0.2454545,
                "tempo": 120.0
            },
            {
                "start_time": 54.5363636,
                "end_time": 54.8113636,
                "pitch": 70,
                "velocity": 101,
                "duration": 0.275,
                "tempo": 120.0
            },
            {
                "start_time": 54.8272727,
                "end_time": 55.0840909,
                "pitch": 80,
                "velocity": 101,
                "duration": 0.2568182,
                "tempo": 120.0
            },
            {
                "start_time": 55.1,
                "end_time": 55.6704545,
                "pitch": 73,
                "velocity": 101,
                "duration": 0.5704545,
                "tempo": 120.0
            },
            {
                "start_time": 55.6863636,
                "end_time": 55.9590909,
                "pitch": 73,
                "velocity": 101,
                "duration": 0.2727273,
                "tempo": 120.0
            },
            {
                "start_time": 55.9772727,
                "end_time": 56.8090909,
                "pitch": 75,
                "velocity": 101,
                "duration": 0.8318182,
                "tempo": 120.0
            },
            {
                "start_time": 56.8590909,
                "end_time": 57.4045455,
                "pitch": 70,
                "velocity": 101,
                "duration": 0.5454545,
                "tempo": 120.0
            }
        ],
        "Acoustic Bass": [
            {
                "start_time": 0.0113636,
                "end_time": 0.5636364,
                "pitch": 30,
                "velocity": 80,
                "duration": 0.5522727,
                "tempo": 120.0
            },
            {
                "start_time": 0.5795455,
                "end_time": 0.8431818,
                "pitch": 49,
                "velocity": 80,
                "duration": 0.2636364,
                "tempo": 120.0
            },
            {
                "start_time": 0.875,
                "end_time": 1.3681818,
                "pitch": 30,
                "velocity": 80,
                "duration": 0.4931818,
                "tempo": 120.0
            },
            {
                "start_time": 1.3840909,
                "end_time": 1.6954545,
                "pitch": 30,
                "velocity": 80,
                "duration": 0.3113636,
                "tempo": 120.0
            },
            {
                "start_time": 1.7295455,
                "end_time": 1.9840909,
                "pitch": 54,
                "velocity": 80,
                "duration": 0.2545455,
                "tempo": 120.0
            },
            {
                "start_time": 2.0022727,
                "end_time": 2.275,
                "pitch": 30,
                "velocity": 80,
                "duration": 0.2727273,
                "tempo": 120.0
            },
            {
                "start_time": 2.3090909,
                "end_time": 2.8522727,
                "pitch": 30,
                "velocity": 80,
                "duration": 0.5431818,
                "tempo": 120.0
            },
            {
                "start_time": 2.8681818,
                "end_time": 3.1477273,
                "pitch": 49,
                "velocity": 80,
                "duration": 0.2795455,
                "tempo": 120.0
            },
            {
                "start_time": 3.1636364,
                "end_time": 3.6931818,
                "pitch": 30,
                "velocity": 80,
                "duration": 0.5295455,
                "tempo": 120.0
            },
            {
                "start_time": 3.7431818,
                "end_time": 3.9954545,
                "pitch": 30,
                "velocity": 80,
                "duration": 0.2522727,
                "tempo": 120.0
            },
            {
                "start_time": 4.0272727,
                "end_time": 4.2795455,
                "pitch": 54,
                "velocity": 80,
                "duration": 0.2522727,
                "tempo": 120.0
            },
            {
                "start_time": 4.2954545,
                "end_time": 4.5795455,
                "pitch": 30,
                "velocity": 80,
                "duration": 0.2840909,
                "tempo": 120.0
            },
            {
                "start_time": 4.5977273,
                "end_time": 4.7295455,
                "pitch": 37,
                "velocity": 80,
                "duration": 0.1318182,
                "tempo": 120.0
            },
            {
                "start_time": 4.7454545,
                "end_time": 4.8590909,
                "pitch": 37,
                "velocity": 80,
                "duration": 0.1136364,
                "tempo": 120.0
            },
            {
                "start_time": 4.8772727,
                "end_time": 4.9909091,
                "pitch": 39,
                "velocity": 80,
                "duration": 0.1136364,
                "tempo": 120.0
            },
            {
                "start_time": 5.025,
                "end_time": 5.1386364,
                "pitch": 39,
                "velocity": 80,
                "duration": 0.1136364,
                "tempo": 120.0
            },
            {
                "start_time": 5.1727273,
                "end_time": 5.2886364,
                "pitch": 39,
                "velocity": 80,
                "duration": 0.1159091,
                "tempo": 120.0
            },
            {
                "start_time": 5.3227273,
                "end_time": 5.4409091,
                "pitch": 42,
                "velocity": 80,
                "duration": 0.1181818,
                "tempo": 120.0
            },
            {
                "start_time": 5.4568182,
                "end_time": 6.0204545,
                "pitch": 37,
                "velocity": 80,
                "duration": 0.5636364,
                "tempo": 120.0
            },
            {
                "start_time": 6.0363636,
                "end_time": 6.5659091,
                "pitch": 37,
                "velocity": 80,
                "duration": 0.5295455,
                "tempo": 120.0
            },
            {
                "start_time": 6.6181818,
                "end_time": 6.8681818,
                "pitch": 37,
                "velocity": 80,
                "duration": 0.25,
                "tempo": 120.0
            },
            {
                "start_time": 6.8840909,
                "end_time": 7.0159091,
                "pitch": 37,
                "velocity": 80,
                "duration": 0.1318182,
                "tempo": 120.0
            },
            {
                "start_time": 7.0318182,
                "end_time": 7.1477273,
                "pitch": 37,
                "velocity": 80,
                "duration": 0.1159091,
                "tempo": 120.0
            },
            {
                "start_time": 7.1636364,
                "end_time": 7.2795455,
                "pitch": 39,
                "velocity": 80,
                "duration": 0.1159091,
                "tempo": 120.0
            },
            {
                "start_time": 7.3272727,
                "end_time": 7.4431818,
                "pitch": 39,
                "velocity": 80,
                "duration": 0.1159091,
                "tempo": 120.0
            },
            {
                "start_time": 7.4590909,
                "end_time": 7.5772727,
                "pitch": 39,
                "velocity": 80,
                "duration": 0.1181818,
                "tempo": 120.0
            },
            {
                "start_time": 7.6113636,
                "end_time": 7.7272727,
                "pitch": 42,
                "velocity": 80,
                "duration": 0.1159091,
                "tempo": 120.0
            },
            {
                "start_time": 7.7431818,
                "end_time": 8.3136364,
                "pitch": 37,
                "velocity": 80,
                "duration": 0.5704545,
                "tempo": 120.0
            },
            {
                "start_time": 8.3295455,
                "end_time": 8.8772727,
                "pitch": 37,
                "velocity": 80,
                "duration": 0.5477273,
                "tempo": 120.0
            },
            {
                "start_time": 8.9090909,
                "end_time": 9.1568182,
                "pitch": 37,
                "velocity": 80,
                "duration": 0.2477273,
                "tempo": 120.0
            },
            {
                "start_time": 9.1727273,
                "end_time": 9.7318182,
                "pitch": 35,
                "velocity": 80,
                "duration": 0.5590909,
                "tempo": 120.0
            },
            {
                "start_time": 9.7477273,
                "end_time": 10.0159091,
                "pitch": 51,
                "velocity": 80,
                "duration": 0.2681818,
                "tempo": 120.0
            },
            {
                "start_time": 10.0318182,
                "end_time": 10.6,
                "pitch": 35,
                "velocity": 80,
                "duration": 0.5681818,
                "tempo": 120.0
            },
            {
                "start_time": 10.6181818,
                "end_time": 10.8681818,
                "pitch": 35,
                "velocity": 80,
                "duration": 0.25,
                "tempo": 120.0
            },
            {
                "start_time": 10.9181818,
                "end_time": 11.175,
                "pitch": 51,
                "velocity": 80,
                "duration": 0.2568182,
                "tempo": 120.0
            },
            {
                "start_time": 11.2090909,
                "end_time": 11.4659091,
                "pitch": 35,
                "velocity": 80,
                "duration": 0.2568182,
                "tempo": 120.0
            },
            {
                "start_time": 11.4818182,
                "end_time": 12.0204545,
                "pitch": 35,
                "velocity": 80,
                "duration": 0.5386364,
                "tempo": 120.0
            },
            {
                "start_time": 12.0363636,
                "end_time": 12.3045455,
                "pitch": 35,
                "velocity": 80,
                "duration": 0.2681818,
                "tempo": 120.0
            },
            {
                "start_time": 12.3363636,
                "end_time": 12.8909091,
                "pitch": 35,
                "velocity": 80,
                "duration": 0.5545455,
                "tempo": 120.0
            },
            {
                "start_time": 12.9068182,
                "end_time": 13.1909091,
                "pitch": 35,
                "velocity": 80,
                "duration": 0.2840909,
                "tempo": 120.0
            },
            {
                "start_time": 13.2068182,
                "end_time": 13.4636364,
                "pitch": 51,
                "velocity": 80,
                "duration": 0.2568182,
                "tempo": 120.0
            },
            {
                "start_time": 13.4977273,
                "end_time": 13.7545455,
                "pitch": 35,
                "velocity": 80,
                "duration": 0.2568182,
                "tempo": 120.0
            },
            {
                "start_time": 13.8045455,
                "end_time": 14.6272727,
                "pitch": 30,
                "velocity": 80,
                "duration": 0.8227273,
                "tempo": 120.0
            },
            {
                "start_time": 14.6431818,
                "end_time": 15.1795455,
                "pitch": 30,
                "velocity": 80,
                "duration": 0.5363636,
                "tempo": 120.0
            },
            {
                "start_time": 15.2136364,
                "end_time": 15.4795455,
                "pitch": 30,
                "velocity": 80,
                "duration": 0.2659091,
                "tempo": 120.0
            },
            {
                "start_time": 15.4977273,
                "end_time": 15.7522727,
                "pitch": 49,
                "velocity": 80,
                "duration": 0.2545455,
                "tempo": 120.0
            },
            {
                "start_time": 15.7863636,
                "end_time": 16.0613636,
                "pitch": 30,
                "velocity": 80,
                "duration": 0.275,
                "tempo": 120.0
            },
            {
                "start_time": 16.0954545,
                "end_time": 16.6295455,
                "pitch": 30,
                "velocity": 80,
                "duration": 0.5340909,
                "tempo": 120.0
            },
            {
                "start_time": 16.6636364,
                "end_time": 16.9272727,
                "pitch": 51,
                "velocity": 80,
                "duration": 0.2636364,
                "tempo": 120.0
            },
            {
                "start_time": 16.9431818,
                "end_time": 17.4954545,
                "pitch": 30,
                "velocity": 80,
                "duration": 0.5522727,
                "tempo": 120.0
            },
            {
                "start_time": 17.5113636,
                "end_time": 17.7704545,
                "pitch": 30,
                "velocity": 80,
                "duration": 0.2590909,
                "tempo": 120.0
            },
            {
                "start_time": 17.7863636,
                "end_time": 18.0409091,
                "pitch": 49,
                "velocity": 80,
                "duration": 0.2545455,
                "tempo": 120.0
            },
            {
                "start_time": 18.0931818,
                "end_time": 18.3477273,
                "pitch": 30,
                "velocity": 80,
                "duration": 0.2545455,
                "tempo": 120.0
            },
            {
                "start_time": 18.3840909,
                "end_time": 18.6340909,
                "pitch": 42,
                "velocity": 80,
                "duration": 0.25,
                "tempo": 120.0
            },
            {
                "start_time": 18.65,
                "end_time": 18.9363636,
                "pitch": 44,
                "velocity": 80,
                "duration": 0.2863636,
                "tempo": 120.0
            },
            {
                "start_time": 19.5272727,
                "end_time": 19.7954545,
                "pitch": 42,
                "velocity": 80,
                "duration": 0.2681818,
                "tempo": 120.0
            },
            {
                "start_time": 19.8113636,
                "end_time": 20.375,
                "pitch": 44,
                "velocity": 80,
                "duration": 0.5636364,
                "tempo": 120.0
            },
            {
                "start_time": 20.3909091,
                "end_time": 20.5068182,
                "pitch": 58,
                "velocity": 80,
                "duration": 0.1159091,
                "tempo": 120.0
            },
            {
                "start_time": 20.5227273,
                "end_time": 20.6386364,
                "pitch": 56,
                "velocity": 80,
                "duration": 0.1159091,
                "tempo": 120.0
            },
            {
                "start_time": 20.6704545,
                "end_time": 21.2227273,
                "pitch": 37,
                "velocity": 80,
                "duration": 0.5522727,
                "tempo": 120.0
            },
            {
                "start_time": 21.2386364,
                "end_time": 21.3704545,
                "pitch": 59,
                "velocity": 80,
                "duration": 0.1318182,
                "tempo": 120.0
            },
            {
                "start_time": 21.3886364,
                "end_time": 21.5022727,
                "pitch": 59,
                "velocity": 80,
                "duration": 0.1136364,
                "tempo": 120.0
            },
            {
                "start_time": 21.5181818,
                "end_time": 22.0818182,
                "pitch": 37,
                "velocity": 80,
                "duration": 0.5636364,
                "tempo": 120.0
            },
            {
                "start_time": 22.1,
                "end_time": 22.3659091,
                "pitch": 37,
                "velocity": 80,
                "duration": 0.2659091,
                "tempo": 120.0
            },
            {
                "start_time": 22.4,
                "end_time": 22.6727273,
                "pitch": 58,
                "velocity": 80,
                "duration": 0.2727273,
                "tempo": 120.0
            },
            {
                "start_time": 22.6909091,
                "end_time": 22.9454545,
                "pitch": 37,
                "velocity": 80,
                "duration": 0.2545455,
                "tempo": 120.0
            },
            {
                "start_time": 22.9795455,
                "end_time": 23.5113636,
                "pitch": 39,
                "velocity": 80,
                "duration": 0.5318182,
                "tempo": 120.0
            },
            {
                "start_time": 23.5272727,
                "end_time": 23.7909091,
                "pitch": 59,
                "velocity": 80,
                "duration": 0.2636364,
                "tempo": 120.0
            },
            {
                "start_time": 23.8227273,
                "end_time": 24.3704545,
                "pitch": 39,
                "velocity": 80,
                "duration": 0.5477273,
                "tempo": 120.0
            },
            {
                "start_time": 24.3863636,
                "end_time": 24.6727273,
                "pitch": 39,
                "velocity": 80,
                "duration": 0.2863636,
                "tempo": 120.0
            },
            {
                "start_time": 24.6886364,
                "end_time": 24.8090909,
                "pitch": 56,
                "velocity": 80,
                "duration": 0.1204545,
                "tempo": 120.0
            },
            {
                "start_time": 24.825,
                "end_time": 24.9613636,
                "pitch": 59,
                "velocity": 80,
                "duration": 0.1363636,
                "tempo": 120.0
            },
            {
                "start_time": 24.9795455,
                "end_time": 25.2340909,
                "pitch": 56,
                "velocity": 80,
                "duration": 0.2545455,
                "tempo": 120.0
            },
            {
                "start_time": 25.2863636,
                "end_time": 25.8113636,
                "pitch": 37,
                "velocity": 80,
                "duration": 0.525,
                "tempo": 120.0
            },
            {
                "start_time": 25.8272727,
                "end_time": 26.1022727,
                "pitch": 58,
                "velocity": 80,
                "duration": 0.275,
                "tempo": 120.0
            },
            {
                "start_time": 26.1181818,
                "end_time": 26.6590909,
                "pitch": 37,
                "velocity": 80,
                "duration": 0.5409091,
                "tempo": 120.0
            },
            {
                "start_time": 26.6931818,
                "end_time": 26.9613636,
                "pitch": 37,
                "velocity": 80,
                "duration": 0.2681818,
                "tempo": 120.0
            },
            {
                "start_time": 26.9772727,
                "end_time": 27.25,
                "pitch": 58,
                "velocity": 80,
                "duration": 0.2727273,
                "tempo": 120.0
            },
            {
                "start_time": 27.2681818,
                "end_time": 27.5568182,
                "pitch": 37,
                "velocity": 80,
                "duration": 0.2886364,
                "tempo": 120.0
            },
            {
                "start_time": 27.575,
                "end_time": 28.1113636,
                "pitch": 39,
                "velocity": 80,
                "duration": 0.5363636,
                "tempo": 120.0
            },
            {
                "start_time": 28.1613636,
                "end_time": 28.4113636,
                "pitch": 59,
                "velocity": 80,
                "duration": 0.25,
                "tempo": 120.0
            },
            {
                "start_time": 28.4272727,
                "end_time": 28.9818182,
                "pitch": 39,
                "velocity": 80,
                "duration": 0.5545455,
                "tempo": 120.0
            },
            {
                "start_time": 28.9977273,
                "end_time": 29.25,
                "pitch": 39,
                "velocity": 80,
                "duration": 0.2522727,
                "tempo": 120.0
            },
            {
                "start_time": 29.2659091,
                "end_time": 29.3863636,
                "pitch": 56,
                "velocity": 80,
                "duration": 0.1204545,
                "tempo": 120.0
            },
            {
                "start_time": 29.4022727,
                "end_time": 29.5386364,
                "pitch": 59,
                "velocity": 80,
                "duration": 0.1363636,
                "tempo": 120.0
            },
            {
                "start_time": 29.5727273,
                "end_time": 29.8454545,
                "pitch": 56,
                "velocity": 80,
                "duration": 0.2727273,
                "tempo": 120.0
            },
            {
                "start_time": 29.8636364,
                "end_time": 30.4045455,
                "pitch": 37,
                "velocity": 80,
                "duration": 0.5409091,
                "tempo": 120.0
            },
            {
                "start_time": 30.4386364,
                "end_time": 30.5568182,
                "pitch": 59,
                "velocity": 80,
                "duration": 0.1181818,
                "tempo": 120.0
            },
            {
                "start_time": 30.575,
                "end_time": 30.6931818,
                "pitch": 59,
                "velocity": 80,
                "duration": 0.1181818,
                "tempo": 120.0
            },
            {
                "start_time": 30.7113636,
                "end_time": 31.2818182,
                "pitch": 37,
                "velocity": 80,
                "duration": 0.5704545,
                "tempo": 120.0
            },
            {
                "start_time": 31.2977273,
                "end_time": 31.5590909,
                "pitch": 37,
                "velocity": 80,
                "duration": 0.2613636,
                "tempo": 120.0
            },
            {
                "start_time": 31.5772727,
                "end_time": 31.8568182,
                "pitch": 58,
                "velocity": 80,
                "duration": 0.2795455,
                "tempo": 120.0
            },
            {
                "start_time": 31.8727273,
                "end_time": 32.1340909,
                "pitch": 37,
                "velocity": 80,
                "duration": 0.2613636,
                "tempo": 120.0
            },
            {
                "start_time": 32.1522727,
                "end_time": 32.7045455,
                "pitch": 39,
                "velocity": 80,
                "duration": 0.5522727,
                "tempo": 120.0
            },
            {
                "start_time": 32.7363636,
                "end_time": 32.9886364,
                "pitch": 59,
                "velocity": 80,
                "duration": 0.2522727,
                "tempo": 120.0
            },
            {
                "start_time": 33.0045455,
                "end_time": 33.5681818,
                "pitch": 39,
                "velocity": 80,
                "duration": 0.5636364,
                "tempo": 120.0
            },
            {
                "start_time": 33.5863636,
                "end_time": 33.8477273,
                "pitch": 39,
                "velocity": 80,
                "duration": 0.2613636,
                "tempo": 120.0
            },
            {
                "start_time": 33.8818182,
                "end_time": 33.9977273,
                "pitch": 56,
                "velocity": 80,
                "duration": 0.1159091,
                "tempo": 120.0
            },
            {
                "start_time": 34.0318182,
                "end_time": 34.1477273,
                "pitch": 59,
                "velocity": 80,
                "duration": 0.1159091,
                "tempo": 120.0
            },
            {
                "start_time": 34.1659091,
                "end_time": 34.4340909,
                "pitch": 56,
                "velocity": 80,
                "duration": 0.2681818,
                "tempo": 120.0
            },
            {
                "start_time": 34.45,
                "end_time": 34.9818182,
                "pitch": 37,
                "velocity": 80,
                "duration": 0.5318182,
                "tempo": 120.0
            },
            {
                "start_time": 35.0136364,
                "end_time": 35.1340909,
                "pitch": 59,
                "velocity": 80,
                "duration": 0.1204545,
                "tempo": 120.0
            },
            {
                "start_time": 35.15,
                "end_time": 35.2704545,
                "pitch": 59,
                "velocity": 80,
                "duration": 0.1204545,
                "tempo": 120.0
            },
            {
                "start_time": 35.3204545,
                "end_time": 35.8522727,
                "pitch": 37,
                "velocity": 80,
                "duration": 0.5318182,
                "tempo": 120.0
            },
            {
                "start_time": 35.8681818,
                "end_time": 36.4295455,
                "pitch": 37,
                "velocity": 80,
                "duration": 0.5613636,
                "tempo": 120.0
            },
            {
                "start_time": 36.4477273,
                "end_time": 36.7204545,
                "pitch": 37,
                "velocity": 80,
                "duration": 0.2727273,
                "tempo": 120.0
            },
            {
                "start_time": 36.7545455,
                "end_time": 37.2909091,
                "pitch": 39,
                "velocity": 80,
                "duration": 0.5363636,
                "tempo": 120.0
            },
            {
                "start_time": 37.325,
                "end_time": 37.5863636,
                "pitch": 59,
                "velocity": 80,
                "duration": 0.2613636,
                "tempo": 120.0
            },
            {
                "start_time": 37.6204545,
                "end_time": 38.1454545,
                "pitch": 39,
                "velocity": 80,
                "duration": 0.525,
                "tempo": 120.0
            },
            {
                "start_time": 38.1772727,
                "end_time": 38.4409091,
                "pitch": 39,
                "velocity": 80,
                "duration": 0.2636364,
                "tempo": 120.0
            },
            {
                "start_time": 38.4568182,
                "end_time": 38.575,
                "pitch": 56,
                "velocity": 80,
                "duration": 0.1181818,
                "tempo": 120.0
            },
            {
                "start_time": 38.6068182,
                "end_time": 38.725,
                "pitch": 59,
                "velocity": 80,
                "duration": 0.1181818,
                "tempo": 120.0
            },
            {
                "start_time": 38.7409091,
                "end_time": 39.025,
                "pitch": 56,
                "velocity": 80,
                "duration": 0.2840909,
                "tempo": 120.0
            },
            {
                "start_time": 39.0431818,
                "end_time": 39.5772727,
                "pitch": 30,
                "velocity": 80,
                "duration": 0.5340909,
                "tempo": 120.0
            },
            {
                "start_time": 39.6295455,
                "end_time": 39.8840909,
                "pitch": 49,
                "velocity": 80,
                "duration": 0.2545455,
                "tempo": 120.0
            },
            {
                "start_time": 39.9181818,
                "end_time": 40.4613636,
                "pitch": 30,
                "velocity": 80,
                "duration": 0.5431818,
                "tempo": 120.0
            },
            {
                "start_time": 40.4772727,
                "end_time": 40.7295455,
                "pitch": 30,
                "velocity": 80,
                "duration": 0.2522727,
                "tempo": 120.0
            },
            {
                "start_time": 40.7454545,
                "end_time": 41.0136364,
                "pitch": 54,
                "velocity": 80,
                "duration": 0.2681818,
                "tempo": 120.0
            },
            {
                "start_time": 41.0477273,
                "end_time": 41.3136364,
                "pitch": 30,
                "velocity": 80,
                "duration": 0.2659091,
                "tempo": 120.0
            },
            {
                "start_time": 41.3318182,
                "end_time": 41.9,
                "pitch": 30,
                "velocity": 80,
                "duration": 0.5681818,
                "tempo": 120.0
            },
            {
                "start_time": 41.9181818,
                "end_time": 42.1727273,
                "pitch": 49,
                "velocity": 80,
                "duration": 0.2545455,
                "tempo": 120.0
            },
            {
                "start_time": 42.2068182,
                "end_time": 42.7659091,
                "pitch": 30,
                "velocity": 80,
                "duration": 0.5590909,
                "tempo": 120.0
            },
            {
                "start_time": 42.7818182,
                "end_time": 43.05,
                "pitch": 30,
                "velocity": 80,
                "duration": 0.2681818,
                "tempo": 120.0
            },
            {
                "start_time": 43.0659091,
                "end_time": 43.3363636,
                "pitch": 54,
                "velocity": 80,
                "duration": 0.2704545,
                "tempo": 120.0
            },
            {
                "start_time": 43.3522727,
                "end_time": 43.6045455,
                "pitch": 30,
                "velocity": 80,
                "duration": 0.2522727,
                "tempo": 120.0
            },
            {
                "start_time": 43.6204545,
                "end_time": 44.1909091,
                "pitch": 37,
                "velocity": 80,
                "duration": 0.5704545,
                "tempo": 120.0
            },
            {
                "start_time": 44.2068182,
                "end_time": 44.4636364,
                "pitch": 53,
                "velocity": 80,
                "duration": 0.2568182,
                "tempo": 120.0
            },
            {
                "start_time": 44.4977273,
                "end_time": 45.0545455,
                "pitch": 37,
                "velocity": 80,
                "duration": 0.5568182,
                "tempo": 120.0
            },
            {
                "start_time": 45.0727273,
                "end_time": 45.3386364,
                "pitch": 37,
                "velocity": 80,
                "duration": 0.2659091,
                "tempo": 120.0
            },
            {
                "start_time": 45.3727273,
                "end_time": 45.6363636,
                "pitch": 53,
                "velocity": 80,
                "duration": 0.2636364,
                "tempo": 120.0
            },
            {
                "start_time": 45.6522727,
                "end_time": 45.9159091,
                "pitch": 37,
                "velocity": 80,
                "duration": 0.2636364,
                "tempo": 120.0
            },
            {
                "start_time": 45.9318182,
                "end_time": 46.4795455,
                "pitch": 37,
                "velocity": 80,
                "duration": 0.5477273,
                "tempo": 120.0
            },
            {
                "start_time": 46.4954545,
                "end_time": 46.75,
                "pitch": 56,
                "velocity": 80,
                "duration": 0.2545455,
                "tempo": 120.0
            },
            {
                "start_time": 46.8022727,
                "end_time": 47.3431818,
                "pitch": 37,
                "velocity": 80,
                "duration": 0.5409091,
                "tempo": 120.0
            },
            {
                "start_time": 47.3590909,
                "end_time": 47.6454545,
                "pitch": 37,
                "velocity": 80,
                "duration": 0.2863636,
                "tempo": 120.0
            },
            {
                "start_time": 47.6613636,
                "end_time": 47.925,
                "pitch": 56,
                "velocity": 80,
                "duration": 0.2636364,
                "tempo": 120.0
            },
            {
                "start_time": 47.9409091,
                "end_time": 48.2022727,
                "pitch": 37,
                "velocity": 80,
                "duration": 0.2613636,
                "tempo": 120.0
            },
            {
                "start_time": 48.2363636,
                "end_time": 48.7886364,
                "pitch": 35,
                "velocity": 80,
                "duration": 0.5522727,
                "tempo": 120.0
            },
            {
                "start_time": 48.8045455,
                "end_time": 49.0840909,
                "pitch": 54,
                "velocity": 80,
                "duration": 0.2795455,
                "tempo": 120.0
            },
            {
                "start_time": 49.1,
                "end_time": 49.6318182,
                "pitch": 35,
                "velocity": 80,
                "duration": 0.5318182,
                "tempo": 120.0
            },
            {
                "start_time": 49.6818182,
                "end_time": 49.9318182,
                "pitch": 35,
                "velocity": 80,
                "duration": 0.25,
                "tempo": 120.0
            },
            {
                "start_time": 49.95,
                "end_time": 50.2113636,
                "pitch": 51,
                "velocity": 80,
                "duration": 0.2613636,
                "tempo": 120.0
            },
            {
                "start_time": 50.2272727,
                "end_time": 50.5068182,
                "pitch": 35,
                "velocity": 80,
                "duration": 0.2795455,
                "tempo": 120.0
            },
            {
                "start_time": 50.5227273,
                "end_time": 51.0772727,
                "pitch": 35,
                "velocity": 80,
                "duration": 0.5545455,
                "tempo": 120.0
            },
            {
                "start_time": 51.1090909,
                "end_time": 51.3818182,
                "pitch": 54,
                "velocity": 80,
                "duration": 0.2727273,
                "tempo": 120.0
            },
            {
                "start_time": 51.4,
                "end_time": 51.9477273,
                "pitch": 35,
                "velocity": 80,
                "duration": 0.5477273,
                "tempo": 120.0
            },
            {
                "start_time": 51.9795455,
                "end_time": 52.2227273,
                "pitch": 35,
                "velocity": 80,
                "duration": 0.2431818,
                "tempo": 120.0
            },
            {
                "start_time": 52.2386364,
                "end_time": 52.5,
                "pitch": 51,
                "velocity": 80,
                "duration": 0.2613636,
                "tempo": 120.0
            },
            {
                "start_time": 52.5340909,
                "end_time": 52.7954545,
                "pitch": 35,
                "velocity": 80,
                "duration": 0.2613636,
                "tempo": 120.0
            },
            {
                "start_time": 52.8113636,
                "end_time": 53.3818182,
                "pitch": 30,
                "velocity": 80,
                "duration": 0.5704545,
                "tempo": 120.0
            },
            {
                "start_time": 53.3977273,
                "end_time": 53.6704545,
                "pitch": 54,
                "velocity": 80,
                "duration": 0.2727273,
                "tempo": 120.0
            },
            {
                "start_time": 53.6886364,
                "end_time": 54.2409091,
                "pitch": 30,
                "velocity": 80,
                "duration": 0.5522727,
                "tempo": 120.0
            },
            {
                "start_time": 54.275,
                "end_time": 54.5204545,
                "pitch": 30,
                "velocity": 80,
                "duration": 0.2454545,
                "tempo": 120.0
            },
            {
                "start_time": 54.5363636,
                "end_time": 54.8113636,
                "pitch": 49,
                "velocity": 80,
                "duration": 0.275,
                "tempo": 120.0
            },
            {
                "start_time": 54.8272727,
                "end_time": 55.0840909,
                "pitch": 30,
                "velocity": 80,
                "duration": 0.2568182,
                "tempo": 120.0
            },
            {
                "start_time": 55.1,
                "end_time": 55.6704545,
                "pitch": 30,
                "velocity": 80,
                "duration": 0.5704545,
                "tempo": 120.0
            },
            {
                "start_time": 55.6863636,
                "end_time": 55.9590909,
                "pitch": 30,
                "velocity": 80,
                "duration": 0.2727273,
                "tempo": 120.0
            },
            {
                "start_time": 55.9772727,
                "end_time": 56.5295455,
                "pitch": 30,
                "velocity": 80,
                "duration": 0.5522727,
                "tempo": 120.0
            },
            {
                "start_time": 56.5636364,
                "end_time": 56.8090909,
                "pitch": 30,
                "velocity": 80,
                "duration": 0.2454545,
                "tempo": 120.0
            },
            {
                "start_time": 56.8590909,
                "end_time": 57.1136364,
                "pitch": 49,
                "velocity": 80,
                "duration": 0.2545455,
                "tempo": 120.0
            },
            {
                "start_time": 57.1318182,
                "end_time": 57.4045455,
                "pitch": 30,
                "velocity": 80,
                "duration": 0.2727273,
                "tempo": 120.0
            }
        ]
    }
}