{
    "mood": "happy",
    "instruments": {
        "Acoustic Bass": [
            {
                "start_time": 0.0136364,
                "end_time": 0.2295455,
                "pitch": 34,
                "velocity": 64,
                "duration": 0.2159091,
                "tempo": 120.0
            },
            {
                "start_time": 0.2636364,
                "end_time": 0.5977273,
                "pitch": 34,
                "velocity": 64,
                "duration": 0.3340909,
                "tempo": 120.0
            },
            {
                "start_time": 0.6136364,
                "end_time": 0.7136364,
                "pitch": 67,
                "velocity": 64,
                "duration": 0.1,
                "tempo": 120.0
            },
            {
                "start_time": 0.7295455,
                "end_time": 1.9136364,
                "pitch": 65,
                "velocity": 64,
                "duration": 1.1840909,
                "tempo": 120.0
            },
            {
                "start_time": 1.9295455,
                "end_time": 2.1590909,
                "pitch": 34,
                "velocity": 64,
                "duration": 0.2295455,
                "tempo": 120.0
            },
            {
                "start_time": 2.175,
                "end_time": 2.5068182,
                "pitch": 34,
                "velocity": 64,
                "duration": 0.3318182,
                "tempo": 120.0
            },
            {
                "start_time": 2.525,
                "end_time": 2.6272727,
                "pitch": 67,
                "velocity": 64,
                "duration": 0.1022727,
                "tempo": 120.0
            },
            {
                "start_time": 2.6613636,
                "end_time": 3.8363636,
                "pitch": 65,
                "velocity": 64,
                "duration": 1.175,
                "tempo": 120.0
            },
            {
                "start_time": 3.8704545,
                "end_time": 4.5681818,
                "pitch": 38,
                "velocity": 64,
                "duration": 0.6977273,
                "tempo": 120.0
            },
            {
                "start_time": 4.5840909,
                "end_time": 4.7977273,
                "pitch": 36,
                "velocity": 64,
                "duration": 0.2136364,
                "tempo": 120.0
            },
            {
                "start_time": 4.8136364,
                "end_time": 5.525,
                "pitch": 31,
                "velocity": 64,
                "duration": 0.7113636,
                "tempo": 120.0
            },
            {
                "start_time": 5.5409091,
                "end_time": 5.775,
                "pitch": 33,
                "velocity": 64,
                "duration": 0.2340909,
                "tempo": 120.0
            },
            {
                "start_time": 5.7909091,
                "end_time": 6.5,
                "pitch": 38,
                "velocity": 64,
                "duration": 0.7090909,
                "tempo": 120.0
            },
            {
                "start_time": 6.5181818,
                "end_time": 6.7386364,
                "pitch": 36,
                "velocity": 64,
                "duration": 0.2204545,
                "tempo": 120.0
            },
            {
                "start_time": 6.7568182,
                "end_time": 7.4431818,
                "pitch": 31,
                "velocity": 64,
                "duration": 0.6863636,
                "tempo": 120.0
            },
            {
                "start_time": 7.4772727,
                "end_time": 7.7,
                "pitch": 33,
                "velocity": 64,
                "duration": 0.2227273,
                "tempo": 120.0
            },
            {
                "start_time": 7.7159091,
                "end_time": 7.9340909,
                "pitch": 34,
                "velocity": 64,
                "duration": 0.2181818,
                "tempo": 120.0
            },
            {
                "start_time": 7.9522727,
                "end_time": 8.3022727,
                "pitch": 34,
                "velocity": 64,
                "duration": 0.35,
                "tempo": 120.0
            },
            {
                "start_time": 8.3204545,
                "end_time": 8.4204545,
                "pitch": 67,
                "velocity": 64,
                "duration": 0.1,
                "tempo": 120.0
            },
            {
                "start_time": 8.4363636,
                "end_time": 8.6522727,
                "pitch": 65,
                "velocity": 64,
                "duration": 0.2159091,
                "tempo": 120.0
            },
            {
                "start_time": 8.6863636,
                "end_time": 8.7863636,
                "pitch": 67,
                "velocity": 64,
                "duration": 0.1,
                "tempo": 120.0
            },
            {
                "start_time": 8.8045455,
                "end_time": 8.9045455,
                "pitch": 65,
                "velocity": 64,
                "duration": 0.1,
                "tempo": 120.0
            },
            {
                "start_time": 8.9227273,
                "end_time": 9.1409091,
                "pitch": 62,
                "velocity": 64,
                "duration": 0.2181818,
                "tempo": 120.0
            },
            {
                "start_time": 9.1568182,
                "end_time": 9.2545455,
                "pitch": 70,
                "velocity": 64,
                "duration": 0.0977273,
                "tempo": 120.0
            },
            {
                "start_time": 9.2886364,
                "end_time": 9.3863636,
                "pitch": 67,
                "velocity": 64,
                "duration": 0.0977273,
                "tempo": 120.0
            },
            {
                "start_time": 9.4022727,
                "end_time": 9.6159091,
                "pitch": 65,
                "velocity": 64,
                "duration": 0.2136364,
                "tempo": 120.0
            },
            {
                "start_time": 9.6318182,
                "end_time": 11.5,
                "pitch": 42,
                "velocity": 64,
                "duration": 1.8681818,
                "tempo": 120.0
            }
        ],
        "Harpsichord": [
            {
                "start_time": 0.0136364,
                "end_time": 0.3636364,
                "pitch": 41,
                "velocity": 64,
                "duration": 0.35,
                "tempo": 120.0
            },
            {
                "start_time": 0.3795455,
                "end_time": 0.4795455,
                "pitch": 41,
                "velocity": 64,
                "duration": 0.1,
                "tempo": 120.0
            },
            {
                "start_time": 0.4977273,
                "end_time": 0.7136364,
                "pitch": 70,
                "velocity": 64,
                "duration": 0.2159091,
                "tempo": 120.0
            },
            {
                "start_time": 0.7295455,
                "end_time": 0.8295455,
                "pitch": 70,
                "velocity": 64,
                "duration": 0.1,
                "tempo": 120.0
            },
            {
                "start_time": 0.8636364,
                "end_time": 0.9636364,
                "pitch": 70,
                "velocity": 64,
                "duration": 0.1,
                "tempo": 120.0
            },
            {
                "start_time": 0.9795455,
                "end_time": 1.0795455,
                "pitch": 67,
                "velocity": 64,
                "duration": 0.1,
                "tempo": 120.0
            },
            {
                "start_time": 1.0954545,
                "end_time": 1.1954545,
                "pitch": 65,
                "velocity": 64,
                "duration": 0.1,
                "tempo": 120.0
            },
            {
                "start_time": 1.2136364,
                "end_time": 1.5636364,
                "pitch": 62,
                "velocity": 64,
                "duration": 0.35,
                "tempo": 120.0
            },
            {
                "start_time": 1.5795455,
                "end_time": 1.6795455,
                "pitch": 62,
                "velocity": 64,
                "duration": 0.1,
                "tempo": 120.0
            },
            {
                "start_time": 1.6954545,
                "end_time": 1.9136364,
                "pitch": 65,
                "velocity": 64,
                "duration": 0.2181818,
                "tempo": 120.0
            },
            {
                "start_time": 1.9295455,
                "end_time": 2.275,
                "pitch": 41,
                "velocity": 64,
                "duration": 0.3454545,
                "tempo": 120.0
            },
            {
                "start_time": 2.2909091,
                "end_time": 2.3886364,
                "pitch": 41,
                "velocity": 64,
                "duration": 0.0977273,
                "tempo": 120.0
            },
            {
                "start_time": 2.4045455,
                "end_time": 2.6272727,
                "pitch": 70,
                "velocity": 64,
                "duration": 0.2227273,
                "tempo": 120.0
            },
            {
                "start_time": 2.6613636,
                "end_time": 2.7636364,
                "pitch": 70,
                "velocity": 64,
                "duration": 0.1022727,
                "tempo": 120.0
            },
            {
                "start_time": 2.7818182,
                "end_time": 2.8840909,
                "pitch": 70,
                "velocity": 64,
                "duration": 0.1022727,
                "tempo": 120.0
            },
            {
                "start_time": 2.9,
                "end_time": 2.9977273,
                "pitch": 67,
                "velocity": 64,
                "duration": 0.0977273,
                "tempo": 120.0
            },
            {
                "start_time": 3.0159091,
                "end_time": 3.1136364,
                "pitch": 65,
                "velocity": 64,
                "duration": 0.0977273,
                "tempo": 120.0
            },
            {
                "start_time": 3.1295455,
                "end_time": 3.4772727,
                "pitch": 62,
                "velocity": 64,
                "duration": 0.3477273,
                "tempo": 120.0
            },
            {
                "start_time": 3.4954545,
                "end_time": 3.5977273,
                "pitch": 62,
                "velocity": 64,
                "duration": 0.1022727,
                "tempo": 120.0
            },
            {
                "start_time": 3.6159091,
                "end_time": 3.8363636,
                "pitch": 65,
                "velocity": 64,
                "duration": 0.2204545,
                "tempo": 120.0
            },
            {
                "start_time": 3.8704545,
                "end_time": 3.9704545,
                "pitch": 62,
                "velocity": 64,
                "duration": 0.1,
                "tempo": 120.0
            },
            {
                "start_time": 3.9886364,
                "end_time": 4.0886364,
                "pitch": 62,
                "velocity": 64,
                "duration": 0.1,
                "tempo": 120.0
            },
            {
                "start_time": 4.1045455,
                "end_time": 4.2045455,
                "pitch": 62,
                "velocity": 64,
                "duration": 0.1,
                "tempo": 120.0
            },
            {
                "start_time": 4.2204545,
                "end_time": 4.3204545,
                "pitch": 62,
                "velocity": 64,
                "duration": 0.1,
                "tempo": 120.0
            },
            {
                "start_time": 4.3363636,
                "end_time": 4.5681818,
                "pitch": 60,
                "velocity": 64,
                "duration": 0.2318182,
                "tempo": 120.0
            },
            {
                "start_time": 4.5840909,
                "end_time": 4.7977273,
                "pitch": 60,
                "velocity": 64,
                "duration": 0.2136364,
                "tempo": 120.0
            },
            {
                "start_time": 4.8136364,
                "end_time": 5.0340909,
                "pitch": 55,
                "velocity": 64,
                "duration": 0.2204545,
                "tempo": 120.0
            },
            {
                "start_time": 5.0681818,
                "end_time": 5.2909091,
                "pitch": 57,
                "velocity": 64,
                "duration": 0.2227273,
                "tempo": 120.0
            },
            {
                "start_time": 5.3090909,
                "end_time": 5.4090909,
                "pitch": 50,
                "velocity": 64,
                "duration": 0.1,
                "tempo": 120.0
            },
            {
                "start_time": 5.425,
                "end_time": 5.525,
                "pitch": 50,
                "velocity": 64,
                "duration": 0.1,
                "tempo": 120.0
            },
            {
                "start_time": 5.5409091,
                "end_time": 5.775,
                "pitch": 52,
                "velocity": 64,
                "duration": 0.2340909,
                "tempo": 120.0
            },
            {
                "start_time": 5.7909091,
                "end_time": 6.0090909,
                "pitch": 62,
                "velocity": 64,
                "duration": 0.2181818,
                "tempo": 120.0
            },
            {
                "start_time": 6.0272727,
                "end_time": 6.1272727,
                "pitch": 62,
                "velocity": 64,
                "duration": 0.1,
                "tempo": 120.0
            },
            {
                "start_time": 6.1431818,
                "end_time": 6.2454545,
                "pitch": 62,
                "velocity": 64,
                "duration": 0.1022727,
                "tempo": 120.0
            },
            {
                "start_time": 6.2795455,
                "end_time": 6.5,
                "pitch": 60,
                "velocity": 64,
                "duration": 0.2204545,
                "tempo": 120.0
            },
            {
                "start_time": 6.5181818,
                "end_time": 6.7386364,
                "pitch": 60,
                "velocity": 64,
                "duration": 0.2204545,
                "tempo": 120.0
            },
            {
                "start_time": 6.7568182,
                "end_time": 6.9818182,
                "pitch": 55,
                "velocity": 64,
                "duration": 0.225,
                "tempo": 120.0
            },
            {
                "start_time": 6.9977273,
                "end_time": 7.2045455,
                "pitch": 57,
                "velocity": 64,
                "duration": 0.2068182,
                "tempo": 120.0
            },
            {
                "start_time": 7.2204545,
                "end_time": 7.3227273,
                "pitch": 50,
                "velocity": 64,
                "duration": 0.1022727,
                "tempo": 120.0
            },
            {
                "start_time": 7.3409091,
                "end_time": 7.4431818,
                "pitch": 50,
                "velocity": 64,
                "duration": 0.1022727,
                "tempo": 120.0
            },
            {
                "start_time": 7.4772727,
                "end_time": 7.7,
                "pitch": 52,
                "velocity": 64,
                "duration": 0.2227273,
                "tempo": 120.0
            },
            {
                "start_time": 7.7159091,
                "end_time": 8.0522727,
                "pitch": 41,
                "velocity": 64,
                "duration": 0.3363636,
                "tempo": 120.0
            },
            {
                "start_time": 8.0863636,
                "end_time": 8.1863636,
                "pitch": 41,
                "velocity": 64,
                "duration": 0.1,
                "tempo": 120.0
            },
            {
                "start_time": 8.2022727,
                "end_time": 8.4204545,
                "pitch": 70,
                "velocity": 64,
                "duration": 0.2181818,
                "tempo": 120.0
            },
            {
                "start_time": 8.4363636,
                "end_time": 8.5363636,
                "pitch": 70,
                "velocity": 64,
                "duration": 0.1,
                "tempo": 120.0
            },
            {
                "start_time": 8.5522727,
                "end_time": 8.6522727,
                "pitch": 70,
                "velocity": 64,
                "duration": 0.1,
                "tempo": 120.0
            },
            {
                "start_time": 8.6863636,
                "end_time": 8.7863636,
                "pitch": 67,
                "velocity": 64,
                "duration": 0.1,
                "tempo": 120.0
            },
            {
                "start_time": 8.8045455,
                "end_time": 8.9045455,
                "pitch": 65,
                "velocity": 64,
                "duration": 0.1,
                "tempo": 120.0
            },
            {
                "start_time": 8.9227273,
                "end_time": 9.2227273,
                "pitch": 62,
                "velocity": 64,
                "duration": 0.3,
                "tempo": 120.0
            },
            {
                "start_time": 9.2386364,
                "end_time": 9.3863636,
                "pitch": 62,
                "velocity": 64,
                "duration": 0.1477273,
                "tempo": 120.0
            },
            {
                "start_time": 9.4022727,
                "end_time": 9.6159091,
                "pitch": 65,
                "velocity": 64,
                "duration": 0.2136364,
                "tempo": 120.0
            },
            {
                "start_time": 9.6318182,
                "end_time": 11.5,
                "pitch": 71,
                "velocity": 64,
                "duration": 1.8681818,
                "tempo": 120.0
            }
        ],
        "Electric Guitar (clean)": [
            {
                "start_time": 0.0136364,
                "end_time": 0.0295455,
                "pitch": 78,
                "velocity": 40,
                "duration": 0.0159091,
                "tempo": 120.0
            },
            {
                "start_time": 0.0636364,
                "end_time": 0.1136364,
                "pitch": 78,
                "velocity": 40,
                "duration": 0.05,
                "tempo": 120.0
            },
            {
                "start_time": 0.1295455,
                "end_time": 0.4795455,
                "pitch": 46,
                "velocity": 40,
                "duration": 0.35,
                "tempo": 120.0
            },
            {
                "start_time": 0.4977273,
                "end_time": 0.5977273,
                "pitch": 46,
                "velocity": 40,
                "duration": 0.1,
                "tempo": 120.0
            },
            {
                "start_time": 0.6136364,
                "end_time": 0.7136364,
                "pitch": 70,
                "velocity": 40,
                "duration": 0.1,
                "tempo": 120.0
            },
            {
                "start_time": 0.7295455,
                "end_time": 0.8295455,
                "pitch": 77,
                "velocity": 40,
                "duration": 0.1,
                "tempo": 120.0
            },
            {
                "start_time": 0.8636364,
                "end_time": 0.9636364,
                "pitch": 77,
                "velocity": 40,
                "duration": 0.1,
                "tempo": 120.0
            },
            {
                "start_time": 0.9795455,
                "end_time": 1.0795455,
                "pitch": 77,
                "velocity": 40,
                "duration": 0.1,
                "tempo": 120.0
            },
            {
                "start_time": 1.0954545,
                "end_time": 1.1954545,
                "pitch": 67,
                "velocity": 40,
                "duration": 0.1,
                "tempo": 120.0
            },
            {
                "start_time": 1.2136364,
                "end_time": 1.3136364,
                "pitch": 65,
                "velocity": 40,
                "duration": 0.1,
                "tempo": 120.0
            },
            {
                "start_time": 1.3295455,
                "end_time": 1.5636364,
                "pitch": 62,
                "velocity": 40,
                "duration": 0.2340909,
                "tempo": 120.0
            },
            {
                "start_time": 1.5795455,
                "end_time": 1.6795455,
                "pitch": 62,
                "velocity": 40,
                "duration": 0.1,
                "tempo": 120.0
            },
            {
                "start_time": 1.6954545,
                "end_time": 1.7954545,
                "pitch": 67,
                "velocity": 40,
                "duration": 0.1,
                "tempo": 120.0
            },
            {
                "start_time": 1.8136364,
                "end_time": 2.0272727,
                "pitch": 65,
                "velocity": 40,
                "duration": 0.2136364,
                "tempo": 120.0
            },
            {
                "start_time": 2.0613636,
                "end_time": 2.3886364,
                "pitch": 46,
                "velocity": 40,
                "duration": 0.3272727,
                "tempo": 120.0
            },
            {
                "start_time": 2.4045455,
                "end_time": 2.5068182,
                "pitch": 46,
                "velocity": 40,
                "duration": 0.1022727,
                "tempo": 120.0
            },
            {
                "start_time": 2.525,
                "end_time": 2.6272727,
                "pitch": 70,
                "velocity": 40,
                "duration": 0.1022727,
                "tempo": 120.0
            },
            {
                "start_time": 2.6613636,
                "end_time": 2.7636364,
                "pitch": 77,
                "velocity": 40,
                "duration": 0.1022727,
                "tempo": 120.0
            },
            {
                "start_time": 2.7818182,
                "end_time": 2.8840909,
                "pitch": 77,
                "velocity": 40,
                "duration": 0.1022727,
                "tempo": 120.0
            },
            {
                "start_time": 2.9,
                "end_time": 2.9977273,
                "pitch": 77,
                "velocity": 40,
                "duration": 0.0977273,
                "tempo": 120.0
            },
            {
                "start_time": 3.0159091,
                "end_time": 3.1136364,
                "pitch": 67,
                "velocity": 40,
                "duration": 0.0977273,
                "tempo": 120.0
            },
            {
                "start_time": 3.1295455,
                "end_time": 3.2272727,
                "pitch": 65,
                "velocity": 40,
                "duration": 0.0977273,
                "tempo": 120.0
            },
            {
                "start_time": 3.2613636,
                "end_time": 3.4772727,
                "pitch": 62,
                "velocity": 40,
                "duration": 0.2159091,
                "tempo": 120.0
            },
            {
                "start_time": 3.4954545,
                "end_time": 3.5977273,
                "pitch": 62,
                "velocity": 40,
                "duration": 0.1022727,
                "tempo": 120.0
            },
            {
                "start_time": 3.6159091,
                "end_time": 3.7181818,
                "pitch": 67,
                "velocity": 40,
                "duration": 0.1022727,
                "tempo": 120.0
            },
            {
                "start_time": 3.7340909,
                "end_time": 3.9704545,
                "pitch": 65,
                "velocity": 40,
                "duration": 0.2363636,
                "tempo": 120.0
            },
            {
                "start_time": 3.9886364,
                "end_time": 4.0886364,
                "pitch": 62,
                "velocity": 40,
                "duration": 0.1,
                "tempo": 120.0
            },
            {
                "start_time": 4.1045455,
                "end_time": 4.2045455,
                "pitch": 64,
                "velocity": 40,
                "duration": 0.1,
                "tempo": 120.0
            },
            {
                "start_time": 4.2204545,
                "end_time": 4.3204545,
                "pitch": 67,
                "velocity": 40,
                "duration": 0.1,
                "tempo": 120.0
            },
            {
                "start_time": 4.3363636,
                "end_time": 4.4363636,
                "pitch": 69,
                "velocity": 40,
                "duration": 0.1,
                "tempo": 120.0
            },
            {
                "start_time": 4.4681818,
                "end_time": 4.5681818,
                "pitch": 72,
                "velocity": 40,
                "duration": 0.1,
                "tempo": 120.0
            },
            {
                "start_time": 4.5840909,
                "end_time": 4.6818182,
                "pitch": 74,
                "velocity": 40,
                "duration": 0.0977273,
                "tempo": 120.0
            },
            {
                "start_time": 4.6977273,
                "end_time": 4.7977273,
                "pitch": 72,
                "velocity": 40,
                "duration": 0.1,
                "tempo": 120.0
            },
            {
                "start_time": 4.8136364,
                "end_time": 4.9159091,
                "pitch": 69,
                "velocity": 40,
                "duration": 0.1022727,
                "tempo": 120.0
            },
            {
                "start_time": 4.9318182,
                "end_time": 5.0340909,
                "pitch": 67,
                "velocity": 40,
                "duration": 0.1022727,
                "tempo": 120.0
            },
            {
                "start_time": 5.0681818,
                "end_time": 5.1704545,
                "pitch": 69,
                "velocity": 40,
                "duration": 0.1022727,
                "tempo": 120.0
            },
            {
                "start_time": 5.1886364,
                "end_time": 5.2909091,
                "pitch": 62,
                "velocity": 40,
                "duration": 0.1022727,
                "tempo": 120.0
            },
            {
                "start_time": 5.3090909,
                "end_time": 5.4090909,
                "pitch": 64,
                "velocity": 40,
                "duration": 0.1,
                "tempo": 120.0
            },
            {
                "start_time": 5.425,
                "end_time": 5.525,
                "pitch": 67,
                "velocity": 40,
                "duration": 0.1,
                "tempo": 120.0
            },
            {
                "start_time": 5.5409091,
                "end_time": 5.6409091,
                "pitch": 69,
                "velocity": 40,
                "duration": 0.1,
                "tempo": 120.0
            },
            {
                "start_time": 5.675,
                "end_time": 5.775,
                "pitch": 72,
                "velocity": 40,
                "duration": 0.1,
                "tempo": 120.0
            },
            {
                "start_time": 5.7909091,
                "end_time": 5.8931818,
                "pitch": 74,
                "velocity": 40,
                "duration": 0.1022727,
                "tempo": 120.0
            },
            {
                "start_time": 5.9090909,
                "end_time": 6.0090909,
                "pitch": 62,
                "velocity": 40,
                "duration": 0.1,
                "tempo": 120.0
            },
            {
                "start_time": 6.0272727,
                "end_time": 6.1272727,
                "pitch": 64,
                "velocity": 40,
                "duration": 0.1,
                "tempo": 120.0
            },
            {
                "start_time": 6.1431818,
                "end_time": 6.2454545,
                "pitch": 67,
                "velocity": 40,
                "duration": 0.1022727,
                "tempo": 120.0
            },
            {
                "start_time": 6.2795455,
                "end_time": 6.3818182,
                "pitch": 69,
                "velocity": 40,
                "duration": 0.1022727,
                "tempo": 120.0
            },
            {
                "start_time": 6.3977273,
                "end_time": 6.5,
                "pitch": 72,
                "velocity": 40,
                "duration": 0.1022727,
                "tempo": 120.0
            },
            {
                "start_time": 6.5181818,
                "end_time": 6.6204545,
                "pitch": 74,
                "velocity": 40,
                "duration": 0.1022727,
                "tempo": 120.0
            },
            {
                "start_time": 6.6363636,
                "end_time": 6.7386364,
                "pitch": 72,
                "velocity": 40,
                "duration": 0.1022727,
                "tempo": 120.0
            },
            {
                "start_time": 6.7568182,
                "end_time": 6.8522727,
                "pitch": 69,
                "velocity": 40,
                "duration": 0.0954545,
                "tempo": 120.0
            },
            {
                "start_time": 6.8840909,
                "end_time": 6.9818182,
                "pitch": 67,
                "velocity": 40,
                "duration": 0.0977273,
                "tempo": 120.0
            },
            {
                "start_time": 6.9977273,
                "end_time": 7.0931818,
                "pitch": 69,
                "velocity": 40,
                "duration": 0.0954545,
                "tempo": 120.0
            },
            {
                "start_time": 7.1090909,
                "end_time": 7.2045455,
                "pitch": 62,
                "velocity": 40,
                "duration": 0.0954545,
                "tempo": 120.0
            },
            {
                "start_time": 7.2204545,
                "end_time": 7.3227273,
                "pitch": 64,
                "velocity": 40,
                "duration": 0.1022727,
                "tempo": 120.0
            },
            {
                "start_time": 7.3409091,
                "end_time": 7.4431818,
                "pitch": 67,
                "velocity": 40,
                "duration": 0.1022727,
                "tempo": 120.0
            },
            {
                "start_time": 7.4772727,
                "end_time": 7.5795455,
                "pitch": 69,
                "velocity": 40,
                "duration": 0.1022727,
                "tempo": 120.0
            },
            {
                "start_time": 7.5977273,
                "end_time": 7.7,
                "pitch": 72,
                "velocity": 40,
                "duration": 0.1022727,
                "tempo": 120.0
            },
            {
                "start_time": 7.7159091,
                "end_time": 7.8159091,
                "pitch": 74,
                "velocity": 40,
                "duration": 0.1,
                "tempo": 120.0
            },
            {
                "start_time": 7.8340909,
                "end_time": 8.1863636,
                "pitch": 46,
                "velocity": 40,
                "duration": 0.3522727,
                "tempo": 120.0
            },
            {
                "start_time": 8.2022727,
                "end_time": 8.3022727,
                "pitch": 46,
                "velocity": 40,
                "duration": 0.1,
                "tempo": 120.0
            },
            {
                "start_time": 8.3204545,
                "end_time": 8.4204545,
                "pitch": 70,
                "velocity": 40,
                "duration": 0.1,
                "tempo": 120.0
            },
            {
                "start_time": 8.4363636,
                "end_time": 8.5363636,
                "pitch": 77,
                "velocity": 40,
                "duration": 0.1,
                "tempo": 120.0
            },
            {
                "start_time": 8.5522727,
                "end_time": 8.6522727,
                "pitch": 77,
                "velocity": 40,
                "duration": 0.1,
                "tempo": 120.0
            },
            {
                "start_time": 8.6863636,
                "end_time": 8.7863636,
                "pitch": 77,
                "velocity": 40,
                "duration": 0.1,
                "tempo": 120.0
            },
            {
                "start_time": 8.8045455,
                "end_time": 8.9045455,
                "pitch": 67,
                "velocity": 40,
                "duration": 0.1,
                "tempo": 120.0
            },
            {
                "start_time": 8.9227273,
                "end_time": 9.0227273,
                "pitch": 65,
                "velocity": 40,
                "duration": 0.1,
                "tempo": 120.0
            },
            {
                "start_time": 9.0386364,
                "end_time": 9.2545455,
                "pitch": 62,
                "velocity": 40,
                "duration": 0.2159091,
                "tempo": 120.0
            },
            {
                "start_time": 9.2886364,
                "end_time": 9.3863636,
                "pitch": 62,
                "velocity": 40,
                "duration": 0.0977273,
                "tempo": 120.0
            },
            {
                "start_time": 9.4022727,
                "end_time": 9.5022727,
                "pitch": 67,
                "velocity": 40,
                "duration": 0.1,
                "tempo": 120.0
            },
            {
                "start_time": 9.5181818,
                "end_time": 9.7318182,
                "pitch": 65,
                "velocity": 40,
                "duration": 0.2136364,
                "tempo": 120.0
            },
            {
                "start_time": 9.75,
                "end_time": 11.6204545,
                "pitch": 78,
                "velocity": 40,
                "duration": 1.8704545,
                "tempo": 120.0
            }
        ]
    }
}