{
    "mood": "happy",
    "instruments": {
        "Electric Guitar (clean)": [
            {
                "start_time": 0.8590909,
                "end_time": 1.0431818,
                "pitch": 73,
                "velocity": 64,
                "duration": 0.1840909,
                "tempo": 120.0
            },
            {
                "start_time": 1.0613636,
                "end_time": 1.2613636,
                "pitch": 71,
                "velocity": 64,
                "duration": 0.2,
                "tempo": 120.0
            },
            {
                "start_time": 1.2954545,
                "end_time": 1.7136364,
                "pitch": 70,
                "velocity": 64,
                "duration": 0.4181818,
                "tempo": 120.0
            },
            {
                "start_time": 1.7295455,
                "end_time": 1.9136364,
                "pitch": 70,
                "velocity": 64,
                "duration": 0.1840909,
                "tempo": 120.0
            },
            {
                "start_time": 1.9477273,
                "end_time": 2.1318182,
                "pitch": 70,
                "velocity": 64,
                "duration": 0.1840909,
                "tempo": 120.0
            },
            {
                "start_time": 2.1477273,
                "end_time": 2.5568182,
                "pitch": 68,
                "velocity": 64,
                "duration": 0.4090909,
                "tempo": 120.0
            },
            {
                "start_time": 2.5909091,
                "end_time": 2.8,
                "pitch": 68,
                "velocity": 64,
                "duration": 0.2090909,
                "tempo": 120.0
            },
            {
                "start_time": 2.8181818,
                "end_time": 3.0090909,
                "pitch": 68,
                "velocity": 64,
                "duration": 0.1909091,
                "tempo": 120.0
            },
            {
                "start_time": 3.0454545,
                "end_time": 4.3159091,
                "pitch": 66,
                "velocity": 64,
                "duration": 1.2704545,
                "tempo": 120.0
            },
            {
                "start_time": 4.3340909,
                "end_time": 4.5340909,
                "pitch": 73,
                "velocity": 64,
                "duration": 0.2,
                "tempo": 120.0
            },
            {
                "start_time": 4.55,
                "end_time": 4.7522727,
                "pitch": 71,
                "velocity": 64,
                "duration": 0.2022727,
                "tempo": 120.0
            },
            {
                "start_time": 4.7681818,
                "end_time": 5.1613636,
                "pitch": 70,
                "velocity": 64,
                "duration": 0.3931818,
                "tempo": 120.0
            },
            {
                "start_time": 5.2113636,
                "end_time": 5.3886364,
                "pitch": 70,
                "velocity": 64,
                "duration": 0.1772727,
                "tempo": 120.0
            },
            {
                "start_time": 5.425,
                "end_time": 5.6409091,
                "pitch": 70,
                "velocity": 64,
                "duration": 0.2159091,
                "tempo": 120.0
            },
            {
                "start_time": 5.6568182,
                "end_time": 6.0545455,
                "pitch": 68,
                "velocity": 64,
                "duration": 0.3977273,
                "tempo": 120.0
            },
            {
                "start_time": 6.0704545,
                "end_time": 6.2590909,
                "pitch": 68,
                "velocity": 64,
                "duration": 0.1886364,
                "tempo": 120.0
            },
            {
                "start_time": 6.2931818,
                "end_time": 6.4818182,
                "pitch": 68,
                "velocity": 64,
                "duration": 0.1886364,
                "tempo": 120.0
            },
            {
                "start_time": 6.5,
                "end_time": 7.7977273,
                "pitch": 66,
                "velocity": 64,
                "duration": 1.2977273,
                "tempo": 120.0
            },
            {
                "start_time": 7.8136364,
                "end_time": 8.0113636,
                "pitch": 73,
                "velocity": 64,
                "duration": 0.1977273,
                "tempo": 120.0
            },
            {
                "start_time": 8.0431818,
                "end_time": 8.2409091,
                "pitch": 71,
                "velocity": 64,
                "duration": 0.1977273,
                "tempo": 120.0
            },
            {
                "start_time": 8.2568182,
                "end_time": 8.6590909,
                "pitch": 70,
                "velocity": 64,
                "duration": 0.4022727,
                "tempo": 120.0
            },
            {
                "start_time": 8.675,
                "end_time": 8.875,
                "pitch": 70,
                "velocity": 64,
                "duration": 0.2,
                "tempo": 120.0
            },
            {
                "start_time": 8.8931818,
                "end_time": 9.0931818,
                "pitch": 70,
                "velocity": 64,
                "duration": 0.2,
                "tempo": 120.0
            },
            {
                "start_time": 9.1090909,
                "end_time": 9.5113636,
                "pitch": 68,
                "velocity": 64,
                "duration": 0.4022727,
                "tempo": 120.0
            },
            {
                "start_time": 9.5613636,
                "end_time": 9.7590909,
                "pitch": 68,
                "velocity": 64,
                "duration": 0.1977273,
                "tempo": 120.0
            },
            {
                "start_time": 9.7772727,
                "end_time": 9.9909091,
                "pitch": 68,
                "velocity": 64,
                "duration": 0.2136364,
                "tempo": 120.0
            },
            {
                "start_time": 10.0090909,
                "end_time": 11.2954545,
                "pitch": 66,
                "velocity": 64,
                "duration": 1.2863636,
                "tempo": 120.0
            },
            {
                "start_time": 11.3113636,
                "end_time": 11.5090909,
                "pitch": 73,
                "velocity": 64,
                "duration": 0.1977273,
                "tempo": 120.0
            },
            {
                "start_time": 11.525,
                "end_time": 11.7045455,
                "pitch": 71,
                "velocity": 64,
                "duration": 0.1795455,
                "tempo": 120.0
            },
            {
                "start_time": 11.7386364,
                "end_time": 12.1477273,
                "pitch": 70,
                "velocity": 64,
                "duration": 0.4090909,
                "tempo": 120.0
            },
            {
                "start_time": 12.1818182,
                "end_time": 12.3840909,
                "pitch": 70,
                "velocity": 64,
                "duration": 0.2022727,
                "tempo": 120.0
            },
            {
                "start_time": 12.4,
                "end_time": 12.6,
                "pitch": 70,
                "velocity": 64,
                "duration": 0.2,
                "tempo": 120.0
            },
            {
                "start_time": 12.6181818,
                "end_time": 13.0113636,
                "pitch": 68,
                "velocity": 64,
                "duration": 0.3931818,
                "tempo": 120.0
            },
            {
                "start_time": 13.0272727,
                "end_time": 13.2272727,
                "pitch": 68,
                "velocity": 64,
                "duration": 0.2,
                "tempo": 120.0
            },
            {
                "start_time": 13.2431818,
                "end_time": 13.4454545,
                "pitch": 68,
                "velocity": 64,
                "duration": 0.2022727,
                "tempo": 120.0
            },
            {
                "start_time": 13.4795455,
                "end_time": 13.8795455,
                "pitch": 66,
                "velocity": 64,
                "duration": 0.4,
                "tempo": 120.0
            },
            {
                "start_time": 13.9136364,
                "end_time": 14.1022727,
                "pitch": 45,
                "velocity": 64,
                "duration": 0.1886364,
                "tempo": 120.0
            },
            {
                "start_time": 14.1181818,
                "end_time": 15.6409091,
                "pitch": 45,
                "velocity": 64,
                "duration": 1.5227273,
                "tempo": 120.0
            },
            {
                "start_time": 15.6568182,
                "end_time": 15.8613636,
                "pitch": 47,
                "velocity": 64,
                "duration": 0.2045455,
                "tempo": 120.0
            },
            {
                "start_time": 15.8795455,
                "end_time": 17.3727273,
                "pitch": 47,
                "velocity": 64,
                "duration": 1.4931818,
                "tempo": 120.0
            },
            {
                "start_time": 17.3909091,
                "end_time": 17.5909091,
                "pitch": 45,
                "velocity": 64,
                "duration": 0.2,
                "tempo": 120.0
            },
            {
                "start_time": 17.625,
                "end_time": 19.1295455,
                "pitch": 45,
                "velocity": 64,
                "duration": 1.5045455,
                "tempo": 120.0
            },
            {
                "start_time": 19.1477273,
                "end_time": 19.3340909,
                "pitch": 42,
                "velocity": 64,
                "duration": 0.1863636,
                "tempo": 120.0
            },
            {
                "start_time": 19.3704545,
                "end_time": 20.8818182,
                "pitch": 42,
                "velocity": 64,
                "duration": 1.5113636,
                "tempo": 120.0
            },
            {
                "start_time": 20.9,
                "end_time": 21.0954545,
                "pitch": 45,
                "velocity": 64,
                "duration": 0.1954545,
                "tempo": 120.0
            },
            {
                "start_time": 21.1113636,
                "end_time": 22.5886364,
                "pitch": 45,
                "velocity": 64,
                "duration": 1.4772727,
                "tempo": 120.0
            },
            {
                "start_time": 22.6204545,
                "end_time": 22.8136364,
                "pitch": 47,
                "velocity": 64,
                "duration": 0.1931818,
                "tempo": 120.0
            },
            {
                "start_time": 22.8318182,
                "end_time": 24.3477273,
                "pitch": 47,
                "velocity": 64,
                "duration": 1.5159091,
                "tempo": 120.0
            },
            {
                "start_time": 24.3818182,
                "end_time": 24.5909091,
                "pitch": 45,
                "velocity": 64,
                "duration": 0.2090909,
                "tempo": 120.0
            },
            {
                "start_time": 24.6068182,
                "end_time": 26.1068182,
                "pitch": 45,
                "velocity": 64,
                "duration": 1.5,
                "tempo": 120.0
            },
            {
                "start_time": 26.125,
                "end_time": 26.3204545,
                "pitch": 42,
                "velocity": 64,
                "duration": 0.1954545,
                "tempo": 120.0
            },
            {
                "start_time": 26.3363636,
                "end_time": 27.8477273,
                "pitch": 42,
                "velocity": 64,
                "duration": 1.5113636,
                "tempo": 120.0
            },
            {
                "start_time": 27.8659091,
                "end_time": 28.0522727,
                "pitch": 45,
                "velocity": 64,
                "duration": 0.1863636,
                "tempo": 120.0
            },
            {
                "start_time": 28.0863636,
                "end_time": 29.5818182,
                "pitch": 45,
                "velocity": 64,
                "duration": 1.4954545,
                "tempo": 120.0
            },
            {
                "start_time": 29.5977273,
                "end_time": 29.7954545,
                "pitch": 47,
                "velocity": 64,
                "duration": 0.1977273,
                "tempo": 120.0
            },
            {
                "start_time": 29.8272727,
                "end_time": 31.3045455,
                "pitch": 47,
                "velocity": 64,
                "duration": 1.4772727,
                "tempo": 120.0
            },
            {
                "start_time": 31.3545455,
                "end_time": 31.5431818,
                "pitch": 45,
                "velocity": 64,
                "duration": 0.1886364,
                "tempo": 120.0
            },
            {
                "start_time": 31.5613636,
                "end_time": 33.0727273,
                "pitch": 45,
                "velocity": 64,
                "duration": 1.5113636,
                "tempo": 120.0
            },
            {
                "start_time": 33.0886364,
                "end_time": 33.2931818,
                "pitch": 42,
                "velocity": 64,
                "duration": 0.2045455,
                "tempo": 120.0
            },
            {
                "start_time": 33.3113636,
                "end_time": 34.8136364,
                "pitch": 42,
                "velocity": 64,
                "duration": 1.5022727,
                "tempo": 120.0
            },
            {
                "start_time": 34.8318182,
                "end_time": 35.0272727,
                "pitch": 45,
                "velocity": 64,
                "duration": 0.1954545,
                "tempo": 120.0
            },
            {
                "start_time": 35.0431818,
                "end_time": 36.5454545,
                "pitch": 45,
                "velocity": 64,
                "duration": 1.5022727,
                "tempo": 120.0
            },
            {
                "start_time": 36.5795455,
                "end_time": 36.7545455,
                "pitch": 47,
                "velocity": 64,
                "duration": 0.175,
                "tempo": 120.0
            },
            {
                "start_time": 36.8068182,
                "end_time": 38.3022727,
                "pitch": 47,
                "velocity": 64,
                "duration": 1.4954545,
                "tempo": 120.0
            },
            {
                "start_time": 38.3181818,
                "end_time": 38.5204545,
                "pitch": 45,
                "velocity": 64,
                "duration": 0.2022727,
                "tempo": 120.0
            },
            {
                "start_time": 38.5363636,
                "end_time": 40.025,
                "pitch": 45,
                "velocity": 64,
                "duration": 1.4886364,
                "tempo": 120.0
            },
            {
                "start_time": 40.0590909,
                "end_time": 40.2522727,
                "pitch": 42,
                "velocity": 64,
                "duration": 0.1931818,
                "tempo": 120.0
            },
            {
                "start_time": 40.2681818,
                "end_time": 41.7727273,
                "pitch": 42,
                "velocity": 64,
                "duration": 1.5045455,
                "tempo": 120.0
            },
            {
                "start_time": 41.7909091,
                "end_time": 41.9909091,
                "pitch": 40,
                "velocity": 64,
                "duration": 0.2,
                "tempo": 120.0
            },
            {
                "start_time": 42.025,
                "end_time": 42.1909091,
                "pitch": 40,
                "velocity": 64,
                "duration": 0.1659091,
                "tempo": 120.0
            },
            {
                "start_time": 43.5181818,
                "end_time": 43.7295455,
                "pitch": 42,
                "velocity": 64,
                "duration": 0.2113636,
                "tempo": 120.0
            },
            {
                "start_time": 43.7454545,
                "end_time": 43.9568182,
                "pitch": 42,
                "velocity": 64,
                "duration": 0.2113636,
                "tempo": 120.0
            },
            {
                "start_time": 45.2886364,
                "end_time": 45.4727273,
                "pitch": 40,
                "velocity": 64,
                "duration": 0.1840909,
                "tempo": 120.0
            },
            {
                "start_time": 45.5068182,
                "end_time": 45.6909091,
                "pitch": 40,
                "velocity": 64,
                "duration": 0.1840909,
                "tempo": 120.0
            },
            {
                "start_time": 47.0022727,
                "end_time": 47.2045455,
                "pitch": 42,
                "velocity": 64,
                "duration": 0.2022727,
                "tempo": 120.0
            },
            {
                "start_time": 47.2204545,
                "end_time": 47.4204545,
                "pitch": 42,
                "velocity": 64,
                "duration": 0.2,
                "tempo": 120.0
            },
            {
                "start_time": 48.7772727,
                "end_time": 48.9477273,
                "pitch": 40,
                "velocity": 64,
                "duration": 0.1704545,
                "tempo": 120.0
            },
            {
                "start_time": 48.9818182,
                "end_time": 49.1886364,
                "pitch": 40,
                "velocity": 64,
                "duration": 0.2068182,
                "tempo": 120.0
            },
            {
                "start_time": 50.4909091,
                "end_time": 50.7,
                "pitch": 42,
                "velocity": 64,
                "duration": 0.2090909,
                "tempo": 120.0
            },
            {
                "start_time": 50.7181818,
                "end_time": 50.9090909,
                "pitch": 42,
                "velocity": 64,
                "duration": 0.1909091,
                "tempo": 120.0
            },
            {
                "start_time": 52.2522727,
                "end_time": 52.4431818,
                "pitch": 40,
                "velocity": 64,
                "duration": 0.1909091,
                "tempo": 120.0
            },
            {
                "start_time": 52.4590909,
                "end_time": 52.65,
                "pitch": 40,
                "velocity": 64,
                "duration": 0.1909091,
                "tempo": 120.0
            },
            {
                "start_time": 53.9681818,
                "end_time": 54.1568182,
                "pitch": 42,
                "velocity": 64,
                "duration": 0.1886364,
                "tempo": 120.0
            },
            {
                "start_time": 54.2090909,
                "end_time": 54.3795455,
                "pitch": 42,
                "velocity": 64,
                "duration": 0.1704545,
                "tempo": 120.0
            },
            {
                "start_time": 55.7386364,
                "end_time": 57.0,
                "pitch": 45,
                "velocity": 64,
                "duration": 1.2613636,
                "tempo": 120.0
            },
            {
                "start_time": 57.0340909,
                "end_time": 57.4613636,
                "pitch": 45,
                "velocity": 64,
                "duration": 0.4272727,
                "tempo": 120.0
            },
            {
                "start_time": 57.4977273,
                "end_time": 58.7681818,
                "pitch": 42,
                "velocity": 64,
                "duration": 1.2704545,
                "tempo": 120.0
            },
            {
                "start_time": 58.7863636,
                "end_time": 59.2045455,
                "pitch": 40,
                "velocity": 64,
                "duration": 0.4181818,
                "tempo": 120.0
            },
            {
                "start_time": 59.2204545,
                "end_time": 60.5113636,
                "pitch": 45,
                "velocity": 64,
                "duration": 1.2909091,
                "tempo": 120.0
            },
            {
                "start_time": 60.5272727,
                "end_time": 60.9295455,
                "pitch": 45,
                "velocity": 64,
                "duration": 0.4022727,
                "tempo": 120.0
            },
            {
                "start_time": 60.9454545,
                "end_time": 62.2431818,
                "pitch": 42,
                "velocity": 64,
                "duration": 1.2977273,
                "tempo": 120.0
            },
            {
                "start_time": 62.2613636,
                "end_time": 62.6954545,
                "pitch": 42,
                "velocity": 64,
                "duration": 0.4340909,
                "tempo": 120.0
            },
            {
                "start_time": 62.7113636,
                "end_time": 63.9681818,
                "pitch": 45,
                "velocity": 64,
                "duration": 1.2568182,
                "tempo": 120.0
            },
            {
                "start_time": 64.0181818,
                "end_time": 64.4272727,
                "pitch": 45,
                "velocity": 64,
                "duration": 0.4090909,
                "tempo": 120.0
            },
            {
                "start_time": 64.4454545,
                "end_time": 65.7340909,
                "pitch": 42,
                "velocity": 64,
                "duration": 1.2886364,
                "tempo": 120.0
            },
            {
                "start_time": 65.75,
                "end_time": 66.1613636,
                "pitch": 42,
                "velocity": 64,
                "duration": 0.4113636,
                "tempo": 120.0
            },
            {
                "start_time": 66.1954545,
                "end_time": 67.4659091,
                "pitch": 45,
                "velocity": 64,
                "duration": 1.2704545,
                "tempo": 120.0
            },
            {
                "start_time": 67.4840909,
                "end_time": 67.9022727,
                "pitch": 45,
                "velocity": 64,
                "duration": 0.4181818,
                "tempo": 120.0
            },
            {
                "start_time": 67.9363636,
                "end_time": 69.2068182,
                "pitch": 42,
                "velocity": 64,
                "duration": 1.2704545,
                "tempo": 120.0
            },
            {
                "start_time": 69.2409091,
                "end_time": 69.6681818,
                "pitch": 42,
                "velocity": 64,
                "duration": 0.4272727,
                "tempo": 120.0
            }
        ],
        "Clarinet": [
            {
                "start_time": 0.0159091,
                "end_time": 0.4159091,
                "pitch": 54,
                "velocity": 64,
                "duration": 0.4,
                "tempo": 120.0
            },
            {
                "start_time": 0.4340909,
                "end_time": 0.8272727,
                "pitch": 54,
                "velocity": 64,
                "duration": 0.3931818,
                "tempo": 120.0
            },
            {
                "start_time": 0.8590909,
                "end_time": 3.4454545,
                "pitch": 78,
                "velocity": 64,
                "duration": 2.5863636,
                "tempo": 120.0
            },
            {
                "start_time": 3.4636364,
                "end_time": 3.8727273,
                "pitch": 54,
                "velocity": 64,
                "duration": 0.4090909,
                "tempo": 120.0
            },
            {
                "start_time": 3.9068182,
                "end_time": 4.3159091,
                "pitch": 54,
                "velocity": 64,
                "duration": 0.4090909,
                "tempo": 120.0
            },
            {
                "start_time": 4.3340909,
                "end_time": 6.925,
                "pitch": 83,
                "velocity": 64,
                "duration": 2.5909091,
                "tempo": 120.0
            },
            {
                "start_time": 6.9409091,
                "end_time": 7.3522727,
                "pitch": 54,
                "velocity": 64,
                "duration": 0.4113636,
                "tempo": 120.0
            },
            {
                "start_time": 7.3863636,
                "end_time": 7.7977273,
                "pitch": 54,
                "velocity": 64,
                "duration": 0.4113636,
                "tempo": 120.0
            },
            {
                "start_time": 7.8136364,
                "end_time": 10.4068182,
                "pitch": 78,
                "velocity": 64,
                "duration": 2.5931818,
                "tempo": 120.0
            },
            {
                "start_time": 10.4227273,
                "end_time": 10.825,
                "pitch": 54,
                "velocity": 64,
                "duration": 0.4022727,
                "tempo": 120.0
            },
            {
                "start_time": 10.8590909,
                "end_time": 11.2954545,
                "pitch": 54,
                "velocity": 64,
                "duration": 0.4363636,
                "tempo": 120.0
            },
            {
                "start_time": 11.3113636,
                "end_time": 13.8795455,
                "pitch": 83,
                "velocity": 64,
                "duration": 2.5681818,
                "tempo": 120.0
            },
            {
                "start_time": 13.9136364,
                "end_time": 14.1022727,
                "pitch": 52,
                "velocity": 64,
                "duration": 0.1886364,
                "tempo": 120.0
            },
            {
                "start_time": 14.1181818,
                "end_time": 15.6409091,
                "pitch": 52,
                "velocity": 64,
                "duration": 1.5227273,
                "tempo": 120.0
            },
            {
                "start_time": 15.6568182,
                "end_time": 15.8613636,
                "pitch": 54,
                "velocity": 64,
                "duration": 0.2045455,
                "tempo": 120.0
            },
            {
                "start_time": 15.8795455,
                "end_time": 17.3727273,
                "pitch": 54,
                "velocity": 64,
                "duration": 1.4931818,
                "tempo": 120.0
            },
            {
                "start_time": 17.3909091,
                "end_time": 17.5909091,
                "pitch": 52,
                "velocity": 64,
                "duration": 0.2,
                "tempo": 120.0
            },
            {
                "start_time": 17.625,
                "end_time": 19.1295455,
                "pitch": 52,
                "velocity": 64,
                "duration": 1.5045455,
                "tempo": 120.0
            },
            {
                "start_time": 19.1477273,
                "end_time": 19.3340909,
                "pitch": 49,
                "velocity": 64,
                "duration": 0.1863636,
                "tempo": 120.0
            },
            {
                "start_time": 19.3704545,
                "end_time": 20.8818182,
                "pitch": 49,
                "velocity": 64,
                "duration": 1.5113636,
                "tempo": 120.0
            },
            {
                "start_time": 20.9,
                "end_time": 21.0954545,
                "pitch": 52,
                "velocity": 64,
                "duration": 0.1954545,
                "tempo": 120.0
            },
            {
                "start_time": 21.1113636,
                "end_time": 22.5886364,
                "pitch": 52,
                "velocity": 64,
                "duration": 1.4772727,
                "tempo": 120.0
            },
            {
                "start_time": 22.6204545,
                "end_time": 22.8136364,
                "pitch": 54,
                "velocity": 64,
                "duration": 0.1931818,
                "tempo": 120.0
            },
            {
                "start_time": 22.8318182,
                "end_time": 24.3477273,
                "pitch": 54,
                "velocity": 64,
                "duration": 1.5159091,
                "tempo": 120.0
            },
            {
                "start_time": 24.3818182,
                "end_time": 24.5909091,
                "pitch": 52,
                "velocity": 64,
                "duration": 0.2090909,
                "tempo": 120.0
            },
            {
                "start_time": 24.6068182,
                "end_time": 26.1068182,
                "pitch": 52,
                "velocity": 64,
                "duration": 1.5,
                "tempo": 120.0
            },
            {
                "start_time": 26.125,
                "end_time": 26.3204545,
                "pitch": 49,
                "velocity": 64,
                "duration": 0.1954545,
                "tempo": 120.0
            },
            {
                "start_time": 26.3363636,
                "end_time": 27.8477273,
                "pitch": 49,
                "velocity": 64,
                "duration": 1.5113636,
                "tempo": 120.0
            },
            {
                "start_time": 27.8659091,
                "end_time": 28.0522727,
                "pitch": 52,
                "velocity": 64,
                "duration": 0.1863636,
                "tempo": 120.0
            },
            {
                "start_time": 28.0863636,
                "end_time": 29.5818182,
                "pitch": 52,
                "velocity": 64,
                "duration": 1.4954545,
                "tempo": 120.0
            },
            {
                "start_time": 29.5977273,
                "end_time": 29.7954545,
                "pitch": 54,
                "velocity": 64,
                "duration": 0.1977273,
                "tempo": 120.0
            },
            {
                "start_time": 29.8272727,
                "end_time": 31.3045455,
                "pitch": 54,
                "velocity": 64,
                "duration": 1.4772727,
                "tempo": 120.0
            },
            {
                "start_time": 31.3545455,
                "end_time": 31.5431818,
                "pitch": 52,
                "velocity": 64,
                "duration": 0.1886364,
                "tempo": 120.0
            },
            {
                "start_time": 31.5613636,
                "end_time": 33.0727273,
                "pitch": 52,
                "velocity": 64,
                "duration": 1.5113636,
                "tempo": 120.0
            },
            {
                "start_time": 33.0886364,
                "end_time": 33.2931818,
                "pitch": 49,
                "velocity": 64,
                "duration": 0.2045455,
                "tempo": 120.0
            },
            {
                "start_time": 33.3113636,
                "end_time": 34.8136364,
                "pitch": 49,
                "velocity": 64,
                "duration": 1.5022727,
                "tempo": 120.0
            },
            {
                "start_time": 34.8318182,
                "end_time": 35.0272727,
                "pitch": 52,
                "velocity": 64,
                "duration": 0.1954545,
                "tempo": 120.0
            },
            {
                "start_time": 35.0431818,
                "end_time": 36.5454545,
                "pitch": 52,
                "velocity": 64,
                "duration": 1.5022727,
                "tempo": 120.0
            },
            {
                "start_time": 36.5795455,
                "end_time": 36.7545455,
                "pitch": 54,
                "velocity": 64,
                "duration": 0.175,
                "tempo": 120.0
            },
            {
                "start_time": 36.8068182,
                "end_time": 38.3022727,
                "pitch": 54,
                "velocity": 64,
                "duration": 1.4954545,
                "tempo": 120.0
            },
            {
                "start_time": 38.3181818,
                "end_time": 38.5204545,
                "pitch": 52,
                "velocity": 64,
                "duration": 0.2022727,
                "tempo": 120.0
            },
            {
                "start_time": 38.5363636,
                "end_time": 40.025,
                "pitch": 52,
                "velocity": 64,
                "duration": 1.4886364,
                "tempo": 120.0
            },
            {
                "start_time": 40.0590909,
                "end_time": 40.2522727,
                "pitch": 49,
                "velocity": 64,
                "duration": 0.1931818,
                "tempo": 120.0
            },
            {
                "start_time": 40.2681818,
                "end_time": 41.7727273,
                "pitch": 49,
                "velocity": 64,
                "duration": 1.5045455,
                "tempo": 120.0
            },
            {
                "start_time": 41.7909091,
                "end_time": 41.9909091,
                "pitch": 47,
                "velocity": 64,
                "duration": 0.2,
                "tempo": 120.0
            },
            {
                "start_time": 42.025,
                "end_time": 42.1909091,
                "pitch": 47,
                "velocity": 64,
                "duration": 0.1659091,
                "tempo": 120.0
            },
            {
                "start_time": 42.2409091,
                "end_time": 42.4295455,
                "pitch": 59,
                "velocity": 64,
                "duration": 0.1886364,
                "tempo": 120.0
            },
            {
                "start_time": 42.4477273,
                "end_time": 42.6522727,
                "pitch": 61,
                "velocity": 64,
                "duration": 0.2045455,
                "tempo": 120.0
            },
            {
                "start_time": 42.6681818,
                "end_time": 42.8590909,
                "pitch": 64,
                "velocity": 64,
                "duration": 0.1909091,
                "tempo": 120.0
            },
            {
                "start_time": 42.875,
                "end_time": 43.0659091,
                "pitch": 66,
                "velocity": 64,
                "duration": 0.1909091,
                "tempo": 120.0
            },
            {
                "start_time": 43.0840909,
                "end_time": 43.2681818,
                "pitch": 78,
                "velocity": 64,
                "duration": 0.1840909,
                "tempo": 120.0
            },
            {
                "start_time": 43.3181818,
                "end_time": 43.4863636,
                "pitch": 78,
                "velocity": 64,
                "duration": 0.1681818,
                "tempo": 120.0
            },
            {
                "start_time": 43.5181818,
                "end_time": 43.7295455,
                "pitch": 49,
                "velocity": 64,
                "duration": 0.2113636,
                "tempo": 120.0
            },
            {
                "start_time": 43.7454545,
                "end_time": 43.9568182,
                "pitch": 49,
                "velocity": 64,
                "duration": 0.2113636,
                "tempo": 120.0
            },
            {
                "start_time": 43.9727273,
                "end_time": 44.1795455,
                "pitch": 71,
                "velocity": 64,
                "duration": 0.2068182,
                "tempo": 120.0
            },
            {
                "start_time": 44.1954545,
                "end_time": 44.3840909,
                "pitch": 69,
                "velocity": 64,
                "duration": 0.1886364,
                "tempo": 120.0
            },
            {
                "start_time": 44.4181818,
                "end_time": 44.6022727,
                "pitch": 64,
                "velocity": 64,
                "duration": 0.1840909,
                "tempo": 120.0
            },
            {
                "start_time": 44.6181818,
                "end_time": 44.8204545,
                "pitch": 78,
                "velocity": 64,
                "duration": 0.2022727,
                "tempo": 120.0
            },
            {
                "start_time": 44.8522727,
                "end_time": 45.0545455,
                "pitch": 76,
                "velocity": 64,
                "duration": 0.2022727,
                "tempo": 120.0
            },
            {
                "start_time": 45.0704545,
                "end_time": 45.2727273,
                "pitch": 78,
                "velocity": 64,
                "duration": 0.2022727,
                "tempo": 120.0
            },
            {
                "start_time": 45.2886364,
                "end_time": 45.4727273,
                "pitch": 47,
                "velocity": 64,
                "duration": 0.1840909,
                "tempo": 120.0
            },
            {
                "start_time": 45.5068182,
                "end_time": 45.6909091,
                "pitch": 47,
                "velocity": 64,
                "duration": 0.1840909,
                "tempo": 120.0
            },
            {
                "start_time": 45.7068182,
                "end_time": 45.9022727,
                "pitch": 59,
                "velocity": 64,
                "duration": 0.1954545,
                "tempo": 120.0
            },
            {
                "start_time": 45.9204545,
                "end_time": 46.1159091,
                "pitch": 61,
                "velocity": 64,
                "duration": 0.1954545,
                "tempo": 120.0
            },
            {
                "start_time": 46.15,
                "end_time": 46.3454545,
                "pitch": 64,
                "velocity": 64,
                "duration": 0.1954545,
                "tempo": 120.0
            },
            {
                "start_time": 46.3613636,
                "end_time": 46.5431818,
                "pitch": 66,
                "velocity": 64,
                "duration": 0.1818182,
                "tempo": 120.0
            },
            {
                "start_time": 46.575,
                "end_time": 46.7636364,
                "pitch": 78,
                "velocity": 64,
                "duration": 0.1886364,
                "tempo": 120.0
            },
            {
                "start_time": 46.7818182,
                "end_time": 46.9863636,
                "pitch": 78,
                "velocity": 64,
                "duration": 0.2045455,
                "tempo": 120.0
            },
            {
                "start_time": 47.0022727,
                "end_time": 47.2045455,
                "pitch": 49,
                "velocity": 64,
                "duration": 0.2022727,
                "tempo": 120.0
            },
            {
                "start_time": 47.2204545,
                "end_time": 47.4204545,
                "pitch": 49,
                "velocity": 64,
                "duration": 0.2,
                "tempo": 120.0
            },
            {
                "start_time": 47.4545455,
                "end_time": 47.6340909,
                "pitch": 71,
                "velocity": 64,
                "duration": 0.1795455,
                "tempo": 120.0
            },
            {
                "start_time": 47.6886364,
                "end_time": 47.8840909,
                "pitch": 69,
                "velocity": 64,
                "duration": 0.1954545,
                "tempo": 120.0
            },
            {
                "start_time": 47.9022727,
                "end_time": 48.0931818,
                "pitch": 64,
                "velocity": 64,
                "duration": 0.1909091,
                "tempo": 120.0
            },
            {
                "start_time": 48.1090909,
                "end_time": 48.3,
                "pitch": 78,
                "velocity": 64,
                "duration": 0.1909091,
                "tempo": 120.0
            },
            {
                "start_time": 48.3159091,
                "end_time": 48.5204545,
                "pitch": 76,
                "velocity": 64,
                "duration": 0.2045455,
                "tempo": 120.0
            },
            {
                "start_time": 48.5386364,
                "end_time": 48.7272727,
                "pitch": 78,
                "velocity": 64,
                "duration": 0.1886364,
                "tempo": 120.0
            },
            {
                "start_time": 48.7772727,
                "end_time": 48.9477273,
                "pitch": 47,
                "velocity": 64,
                "duration": 0.1704545,
                "tempo": 120.0
            },
            {
                "start_time": 48.9818182,
                "end_time": 49.1886364,
                "pitch": 47,
                "velocity": 64,
                "duration": 0.2068182,
                "tempo": 120.0
            },
            {
                "start_time": 49.2045455,
                "end_time": 49.4068182,
                "pitch": 59,
                "velocity": 64,
                "duration": 0.2022727,
                "tempo": 120.0
            },
            {
                "start_time": 49.4227273,
                "end_time": 49.6227273,
                "pitch": 61,
                "velocity": 64,
                "duration": 0.2,
                "tempo": 120.0
            },
            {
                "start_time": 49.6386364,
                "end_time": 49.8136364,
                "pitch": 64,
                "velocity": 64,
                "duration": 0.175,
                "tempo": 120.0
            },
            {
                "start_time": 49.8454545,
                "end_time": 50.0227273,
                "pitch": 66,
                "velocity": 64,
                "duration": 0.1772727,
                "tempo": 120.0
            },
            {
                "start_time": 50.0386364,
                "end_time": 50.2386364,
                "pitch": 78,
                "velocity": 64,
                "duration": 0.2,
                "tempo": 120.0
            },
            {
                "start_time": 50.2727273,
                "end_time": 50.4727273,
                "pitch": 78,
                "velocity": 64,
                "duration": 0.2,
                "tempo": 120.0
            },
            {
                "start_time": 50.4909091,
                "end_time": 50.7,
                "pitch": 49,
                "velocity": 64,
                "duration": 0.2090909,
                "tempo": 120.0
            },
            {
                "start_time": 50.7181818,
                "end_time": 50.9090909,
                "pitch": 49,
                "velocity": 64,
                "duration": 0.1909091,
                "tempo": 120.0
            },
            {
                "start_time": 50.9454545,
                "end_time": 51.1318182,
                "pitch": 71,
                "velocity": 64,
                "duration": 0.1863636,
                "tempo": 120.0
            },
            {
                "start_time": 51.15,
                "end_time": 51.3545455,
                "pitch": 69,
                "velocity": 64,
                "duration": 0.2045455,
                "tempo": 120.0
            },
            {
                "start_time": 51.3727273,
                "end_time": 51.5727273,
                "pitch": 64,
                "velocity": 64,
                "duration": 0.2,
                "tempo": 120.0
            },
            {
                "start_time": 51.6068182,
                "end_time": 51.8068182,
                "pitch": 66,
                "velocity": 64,
                "duration": 0.2,
                "tempo": 120.0
            },
            {
                "start_time": 51.825,
                "end_time": 52.0113636,
                "pitch": 76,
                "velocity": 64,
                "duration": 0.1863636,
                "tempo": 120.0
            },
            {
                "start_time": 52.0477273,
                "end_time": 52.2340909,
                "pitch": 78,
                "velocity": 64,
                "duration": 0.1863636,
                "tempo": 120.0
            },
            {
                "start_time": 52.2522727,
                "end_time": 52.4431818,
                "pitch": 47,
                "velocity": 64,
                "duration": 0.1909091,
                "tempo": 120.0
            },
            {
                "start_time": 52.4590909,
                "end_time": 52.65,
                "pitch": 47,
                "velocity": 64,
                "duration": 0.1909091,
                "tempo": 120.0
            },
            {
                "start_time": 52.6659091,
                "end_time": 52.8704545,
                "pitch": 59,
                "velocity": 64,
                "duration": 0.2045455,
                "tempo": 120.0
            },
            {
                "start_time": 52.9045455,
                "end_time": 53.075,
                "pitch": 61,
                "velocity": 64,
                "duration": 0.1704545,
                "tempo": 120.0
            },
            {
                "start_time": 53.1272727,
                "end_time": 53.3159091,
                "pitch": 64,
                "velocity": 64,
                "duration": 0.1886364,
                "tempo": 120.0
            },
            {
                "start_time": 53.3318182,
                "end_time": 53.5386364,
                "pitch": 66,
                "velocity": 64,
                "duration": 0.2068182,
                "tempo": 120.0
            },
            {
                "start_time": 53.5545455,
                "end_time": 53.7454545,
                "pitch": 78,
                "velocity": 64,
                "duration": 0.1909091,
                "tempo": 120.0
            },
            {
                "start_time": 53.7613636,
                "end_time": 53.9522727,
                "pitch": 78,
                "velocity": 64,
                "duration": 0.1909091,
                "tempo": 120.0
            },
            {
                "start_time": 53.9681818,
                "end_time": 54.1568182,
                "pitch": 49,
                "velocity": 64,
                "duration": 0.1886364,
                "tempo": 120.0
            },
            {
                "start_time": 54.2090909,
                "end_time": 54.3795455,
                "pitch": 49,
                "velocity": 64,
                "duration": 0.1704545,
                "tempo": 120.0
            },
            {
                "start_time": 54.4136364,
                "end_time": 54.6181818,
                "pitch": 71,
                "velocity": 64,
                "duration": 0.2045455,
                "tempo": 120.0
            },
            {
                "start_time": 54.6363636,
                "end_time": 54.8409091,
                "pitch": 69,
                "velocity": 64,
                "duration": 0.2045455,
                "tempo": 120.0
            },
            {
                "start_time": 54.8568182,
                "end_time": 55.0590909,
                "pitch": 64,
                "velocity": 64,
                "duration": 0.2022727,
                "tempo": 120.0
            },
            {
                "start_time": 55.075,
                "end_time": 55.2590909,
                "pitch": 66,
                "velocity": 64,
                "duration": 0.1840909,
                "tempo": 120.0
            },
            {
                "start_time": 55.2931818,
                "end_time": 55.4818182,
                "pitch": 76,
                "velocity": 64,
                "duration": 0.1886364,
                "tempo": 120.0
            },
            {
                "start_time": 55.4977273,
                "end_time": 55.7022727,
                "pitch": 78,
                "velocity": 64,
                "duration": 0.2045455,
                "tempo": 120.0
            },
            {
                "start_time": 55.7386364,
                "end_time": 57.0,
                "pitch": 52,
                "velocity": 64,
                "duration": 1.2613636,
                "tempo": 120.0
            },
            {
                "start_time": 57.0340909,
                "end_time": 57.4613636,
                "pitch": 52,
                "velocity": 64,
                "duration": 0.4272727,
                "tempo": 120.0
            },
            {
                "start_time": 57.4977273,
                "end_time": 58.7681818,
                "pitch": 49,
                "velocity": 64,
                "duration": 1.2704545,
                "tempo": 120.0
            },
            {
                "start_time": 58.7863636,
                "end_time": 59.2045455,
                "pitch": 49,
                "velocity": 64,
                "duration": 0.4181818,
                "tempo": 120.0
            },
            {
                "start_time": 59.2204545,
                "end_time": 60.5113636,
                "pitch": 52,
                "velocity": 64,
                "duration": 1.2909091,
                "tempo": 120.0
            },
            {
                "start_time": 60.5272727,
                "end_time": 60.9295455,
                "pitch": 52,
                "velocity": 64,
                "duration": 0.4022727,
                "tempo": 120.0
            },
            {
                "start_time": 60.9454545,
                "end_time": 62.2431818,
                "pitch": 49,
                "velocity": 64,
                "duration": 1.2977273,
                "tempo": 120.0
            },
            {
                "start_time": 62.2613636,
                "end_time": 62.6954545,
                "pitch": 49,
                "velocity": 64,
                "duration": 0.4340909,
                "tempo": 120.0
            },
            {
                "start_time": 62.7113636,
                "end_time": 63.9681818,
                "pitch": 52,
                "velocity": 64,
                "duration": 1.2568182,
                "tempo": 120.0
            },
            {
                "start_time": 64.0181818,
                "end_time": 64.4272727,
                "pitch": 52,
                "velocity": 64,
                "duration": 0.4090909,
                "tempo": 120.0
            },
            {
                "start_time": 64.4454545,
                "end_time": 65.7340909,
                "pitch": 49,
                "velocity": 64,
                "duration": 1.2886364,
                "tempo": 120.0
            },
            {
                "start_time": 65.75,
                "end_time": 66.1613636,
                "pitch": 49,
                "velocity": 64,
                "duration": 0.4113636,
                "tempo": 120.0
            },
            {
                "start_time": 66.1954545,
                "end_time": 67.4659091,
                "pitch": 52,
                "velocity": 64,
                "duration": 1.2704545,
                "tempo": 120.0
            },
            {
                "start_time": 67.4840909,
                "end_time": 67.9022727,
                "pitch": 52,
                "velocity": 64,
                "duration": 0.4181818,
                "tempo": 120.0
            },
            {
                "start_time": 67.9363636,
                "end_time": 69.2068182,
                "pitch": 49,
                "velocity": 64,
                "duration": 1.2704545,
                "tempo": 120.0
            },
            {
                "start_time": 69.2409091,
                "end_time": 69.6681818,
                "pitch": 49,
                "velocity": 64,
                "duration": 0.4272727,
                "tempo": 120.0
            }
        ],
        "Trumpet": [
            {
                "start_time": 0.8590909,
                "end_time": 1.0431818,
                "pitch": 80,
                "velocity": 64,
                "duration": 0.1840909,
                "tempo": 120.0
            },
            {
                "start_time": 1.0613636,
                "end_time": 1.2613636,
                "pitch": 78,
                "velocity": 64,
                "duration": 0.2,
                "tempo": 120.0
            },
            {
                "start_time": 1.2954545,
                "end_time": 1.7136364,
                "pitch": 77,
                "velocity": 64,
                "duration": 0.4181818,
                "tempo": 120.0
            },
            {
                "start_time": 1.7295455,
                "end_time": 1.9136364,
                "pitch": 77,
                "velocity": 64,
                "duration": 0.1840909,
                "tempo": 120.0
            },
            {
                "start_time": 1.9477273,
                "end_time": 2.1318182,
                "pitch": 77,
                "velocity": 64,
                "duration": 0.1840909,
                "tempo": 120.0
            },
            {
                "start_time": 2.1477273,
                "end_time": 2.5568182,
                "pitch": 75,
                "velocity": 64,
                "duration": 0.4090909,
                "tempo": 120.0
            },
            {
                "start_time": 2.5909091,
                "end_time": 2.8,
                "pitch": 75,
                "velocity": 64,
                "duration": 0.2090909,
                "tempo": 120.0
            },
            {
                "start_time": 2.8181818,
                "end_time": 3.0090909,
                "pitch": 75,
                "velocity": 64,
                "duration": 0.1909091,
                "tempo": 120.0
            },
            {
                "start_time": 3.0454545,
                "end_time": 4.3159091,
                "pitch": 73,
                "velocity": 64,
                "duration": 1.2704545,
                "tempo": 120.0
            },
            {
                "start_time": 4.3340909,
                "end_time": 4.5340909,
                "pitch": 80,
                "velocity": 64,
                "duration": 0.2,
                "tempo": 120.0
            },
            {
                "start_time": 4.55,
                "end_time": 4.7522727,
                "pitch": 78,
                "velocity": 64,
                "duration": 0.2022727,
                "tempo": 120.0
            },
            {
                "start_time": 4.7681818,
                "end_time": 5.1613636,
                "pitch": 77,
                "velocity": 64,
                "duration": 0.3931818,
                "tempo": 120.0
            },
            {
                "start_time": 5.2113636,
                "end_time": 5.3886364,
                "pitch": 77,
                "velocity": 64,
                "duration": 0.1772727,
                "tempo": 120.0
            },
            {
                "start_time": 5.425,
                "end_time": 5.6409091,
                "pitch": 77,
                "velocity": 64,
                "duration": 0.2159091,
                "tempo": 120.0
            },
            {
                "start_time": 5.6568182,
                "end_time": 6.0545455,
                "pitch": 75,
                "velocity": 64,
                "duration": 0.3977273,
                "tempo": 120.0
            },
            {
                "start_time": 6.0704545,
                "end_time": 6.2590909,
                "pitch": 75,
                "velocity": 64,
                "duration": 0.1886364,
                "tempo": 120.0
            },
            {
                "start_time": 6.2931818,
                "end_time": 6.4818182,
                "pitch": 75,
                "velocity": 64,
                "duration": 0.1886364,
                "tempo": 120.0
            },
            {
                "start_time": 6.5,
                "end_time": 7.7977273,
                "pitch": 73,
                "velocity": 64,
                "duration": 1.2977273,
                "tempo": 120.0
            },
            {
                "start_time": 7.8136364,
                "end_time": 8.0113636,
                "pitch": 80,
                "velocity": 64,
                "duration": 0.1977273,
                "tempo": 120.0
            },
            {
                "start_time": 8.0431818,
                "end_time": 8.2409091,
                "pitch": 78,
                "velocity": 64,
                "duration": 0.1977273,
                "tempo": 120.0
            },
            {
                "start_time": 8.2568182,
                "end_time": 8.6590909,
                "pitch": 77,
                "velocity": 64,
                "duration": 0.4022727,
                "tempo": 120.0
            },
            {
                "start_time": 8.675,
                "end_time": 8.875,
                "pitch": 77,
                "velocity": 64,
                "duration": 0.2,
                "tempo": 120.0
            },
            {
                "start_time": 8.8931818,
                "end_time": 9.0931818,
                "pitch": 77,
                "velocity": 64,
                "duration": 0.2,
                "tempo": 120.0
            },
            {
                "start_time": 9.1090909,
                "end_time": 9.5113636,
                "pitch": 75,
                "velocity": 64,
                "duration": 0.4022727,
                "tempo": 120.0
            },
            {
                "start_time": 9.5613636,
                "end_time": 9.7590909,
                "pitch": 75,
                "velocity": 64,
                "duration": 0.1977273,
                "tempo": 120.0
            },
            {
                "start_time": 9.7772727,
                "end_time": 9.9909091,
                "pitch": 75,
                "velocity": 64,
                "duration": 0.2136364,
                "tempo": 120.0
            },
            {
                "start_time": 10.0090909,
                "end_time": 11.2954545,
                "pitch": 73,
                "velocity": 64,
                "duration": 1.2863636,
                "tempo": 120.0
            },
            {
                "start_time": 11.3113636,
                "end_time": 11.5090909,
                "pitch": 80,
                "velocity": 64,
                "duration": 0.1977273,
                "tempo": 120.0
            },
            {
                "start_time": 11.525,
                "end_time": 11.7045455,
                "pitch": 78,
                "velocity": 64,
                "duration": 0.1795455,
                "tempo": 120.0
            },
            {
                "start_time": 11.7386364,
                "end_time": 12.1477273,
                "pitch": 77,
                "velocity": 64,
                "duration": 0.4090909,
                "tempo": 120.0
            },
            {
                "start_time": 12.1818182,
                "end_time": 12.3840909,
                "pitch": 77,
                "velocity": 64,
                "duration": 0.2022727,
                "tempo": 120.0
            },
            {
                "start_time": 12.4,
                "end_time": 12.6,
                "pitch": 77,
                "velocity": 64,
                "duration": 0.2,
                "tempo": 120.0
            },
            {
                "start_time": 12.6181818,
                "end_time": 13.0113636,
                "pitch": 75,
                "velocity": 64,
                "duration": 0.3931818,
                "tempo": 120.0
            },
            {
                "start_time": 13.0272727,
                "end_time": 13.2272727,
                "pitch": 75,
                "velocity": 64,
                "duration": 0.2,
                "tempo": 120.0
            },
            {
                "start_time": 13.2431818,
                "end_time": 13.4454545,
                "pitch": 75,
                "velocity": 64,
                "duration": 0.2022727,
                "tempo": 120.0
            },
            {
                "start_time": 13.4795455,
                "end_time": 13.8795455,
                "pitch": 73,
                "velocity": 64,
                "duration": 0.4,
                "tempo": 120.0
            },
            {
                "start_time": 13.9136364,
                "end_time": 14.1022727,
                "pitch": 52,
                "velocity": 64,
                "duration": 0.1886364,
                "tempo": 120.0
            },
            {
                "start_time": 14.1181818,
                "end_time": 15.6409091,
                "pitch": 52,
                "velocity": 64,
                "duration": 1.5227273,
                "tempo": 120.0
            },
            {
                "start_time": 15.6568182,
                "end_time": 15.8613636,
                "pitch": 54,
                "velocity": 64,
                "duration": 0.2045455,
                "tempo": 120.0
            },
            {
                "start_time": 15.8795455,
                "end_time": 17.3727273,
                "pitch": 54,
                "velocity": 64,
                "duration": 1.4931818,
                "tempo": 120.0
            },
            {
                "start_time": 17.3909091,
                "end_time": 17.5909091,
                "pitch": 52,
                "velocity": 64,
                "duration": 0.2,
                "tempo": 120.0
            },
            {
                "start_time": 17.625,
                "end_time": 19.1295455,
                "pitch": 52,
                "velocity": 64,
                "duration": 1.5045455,
                "tempo": 120.0
            },
            {
                "start_time": 19.1477273,
                "end_time": 19.3340909,
                "pitch": 49,
                "velocity": 64,
                "duration": 0.1863636,
                "tempo": 120.0
            },
            {
                "start_time": 19.3704545,
                "end_time": 20.8818182,
                "pitch": 49,
                "velocity": 64,
                "duration": 1.5113636,
                "tempo": 120.0
            },
            {
                "start_time": 20.9,
                "end_time": 21.0954545,
                "pitch": 52,
                "velocity": 64,
                "duration": 0.1954545,
                "tempo": 120.0
            },
            {
                "start_time": 21.1113636,
                "end_time": 22.5886364,
                "pitch": 52,
                "velocity": 64,
                "duration": 1.4772727,
                "tempo": 120.0
            },
            {
                "start_time": 22.6204545,
                "end_time": 22.8136364,
                "pitch": 54,
                "velocity": 64,
                "duration": 0.1931818,
                "tempo": 120.0
            },
            {
                "start_time": 22.8318182,
                "end_time": 24.3477273,
                "pitch": 54,
                "velocity": 64,
                "duration": 1.5159091,
                "tempo": 120.0
            },
            {
                "start_time": 24.3818182,
                "end_time": 24.5909091,
                "pitch": 52,
                "velocity": 64,
                "duration": 0.2090909,
                "tempo": 120.0
            },
            {
                "start_time": 24.6068182,
                "end_time": 26.1068182,
                "pitch": 52,
                "velocity": 64,
                "duration": 1.5,
                "tempo": 120.0
            },
            {
                "start_time": 26.125,
                "end_time": 26.3204545,
                "pitch": 49,
                "velocity": 64,
                "duration": 0.1954545,
                "tempo": 120.0
            },
            {
                "start_time": 26.3363636,
                "end_time": 27.8477273,
                "pitch": 49,
                "velocity": 64,
                "duration": 1.5113636,
                "tempo": 120.0
            },
            {
                "start_time": 27.8659091,
                "end_time": 28.0522727,
                "pitch": 52,
                "velocity": 64,
                "duration": 0.1863636,
                "tempo": 120.0
            },
            {
                "start_time": 28.0863636,
                "end_time": 29.5818182,
                "pitch": 52,
                "velocity": 64,
                "duration": 1.4954545,
                "tempo": 120.0
            },
            {
                "start_time": 29.5977273,
                "end_time": 29.7954545,
                "pitch": 54,
                "velocity": 64,
                "duration": 0.1977273,
                "tempo": 120.0
            },
            {
                "start_time": 29.8272727,
                "end_time": 31.3045455,
                "pitch": 54,
                "velocity": 64,
                "duration": 1.4772727,
                "tempo": 120.0
            },
            {
                "start_time": 31.3545455,
                "end_time": 31.5431818,
                "pitch": 52,
                "velocity": 64,
                "duration": 0.1886364,
                "tempo": 120.0
            },
            {
                "start_time": 31.5613636,
                "end_time": 33.0727273,
                "pitch": 52,
                "velocity": 64,
                "duration": 1.5113636,
                "tempo": 120.0
            },
            {
                "start_time": 33.0886364,
                "end_time": 33.2931818,
                "pitch": 49,
                "velocity": 64,
                "duration": 0.2045455,
                "tempo": 120.0
            },
            {
                "start_time": 33.3113636,
                "end_time": 34.8136364,
                "pitch": 49,
                "velocity": 64,
                "duration": 1.5022727,
                "tempo": 120.0
            },
            {
                "start_time": 34.8318182,
                "end_time": 35.0272727,
                "pitch": 52,
                "velocity": 64,
                "duration": 0.1954545,
                "tempo": 120.0
            },
            {
                "start_time": 35.0431818,
                "end_time": 36.5454545,
                "pitch": 52,
                "velocity": 64,
                "duration": 1.5022727,
                "tempo": 120.0
            },
            {
                "start_time": 36.5795455,
                "end_time": 36.7545455,
                "pitch": 54,
                "velocity": 64,
                "duration": 0.175,
                "tempo": 120.0
            },
            {
                "start_time": 36.8068182,
                "end_time": 38.3022727,
                "pitch": 54,
                "velocity": 64,
                "duration": 1.4954545,
                "tempo": 120.0
            },
            {
                "start_time": 38.3181818,
                "end_time": 38.5204545,
                "pitch": 52,
                "velocity": 64,
                "duration": 0.2022727,
                "tempo": 120.0
            },
            {
                "start_time": 38.5363636,
                "end_time": 40.025,
                "pitch": 52,
                "velocity": 64,
                "duration": 1.4886364,
                "tempo": 120.0
            },
            {
                "start_time": 40.0590909,
                "end_time": 40.2522727,
                "pitch": 49,
                "velocity": 64,
                "duration": 0.1931818,
                "tempo": 120.0
            },
            {
                "start_time": 40.2681818,
                "end_time": 41.7727273,
                "pitch": 49,
                "velocity": 64,
                "duration": 1.5045455,
                "tempo": 120.0
            },
            {
                "start_time": 41.7909091,
                "end_time": 41.9909091,
                "pitch": 47,
                "velocity": 64,
                "duration": 0.2,
                "tempo": 120.0
            },
            {
                "start_time": 42.025,
                "end_time": 42.1909091,
                "pitch": 47,
                "velocity": 64,
                "duration": 0.1659091,
                "tempo": 120.0
            },
            {
                "start_time": 43.5181818,
                "end_time": 43.7295455,
                "pitch": 49,
                "velocity": 64,
                "duration": 0.2113636,
                "tempo": 120.0
            },
            {
                "start_time": 43.7454545,
                "end_time": 43.9568182,
                "pitch": 49,
                "velocity": 64,
                "duration": 0.2113636,
                "tempo": 120.0
            },
            {
                "start_time": 45.2886364,
                "end_time": 45.4727273,
                "pitch": 47,
                "velocity": 64,
                "duration": 0.1840909,
                "tempo": 120.0
            },
            {
                "start_time": 45.5068182,
                "end_time": 45.6909091,
                "pitch": 47,
                "velocity": 64,
                "duration": 0.1840909,
                "tempo": 120.0
            },
            {
                "start_time": 47.0022727,
                "end_time": 47.2045455,
                "pitch": 49,
                "velocity": 64,
                "duration": 0.2022727,
                "tempo": 120.0
            },
            {
                "start_time": 47.2204545,
                "end_time": 47.4204545,
                "pitch": 49,
                "velocity": 64,
                "duration": 0.2,
                "tempo": 120.0
            },
            {
                "start_time": 48.7772727,
                "end_time": 48.9477273,
                "pitch": 47,
                "velocity": 64,
                "duration": 0.1704545,
                "tempo": 120.0
            },
            {
                "start_time": 48.9818182,
                "end_time": 49.1886364,
                "pitch": 47,
                "velocity": 64,
                "duration": 0.2068182,
                "tempo": 120.0
            },
            {
                "start_time": 50.4909091,
                "end_time": 50.7,
                "pitch": 49,
                "velocity": 64,
                "duration": 0.2090909,
                "tempo": 120.0
            },
            {
                "start_time": 50.7181818,
                "end_time": 50.9090909,
                "pitch": 49,
                "velocity": 64,
                "duration": 0.1909091,
                "tempo": 120.0
            },
            {
                "start_time": 52.2522727,
                "end_time": 52.4431818,
                "pitch": 47,
                "velocity": 64,
                "duration": 0.1909091,
                "tempo": 120.0
            },
            {
                "start_time": 52.4590909,
                "end_time": 52.65,
                "pitch": 47,
                "velocity": 64,
                "duration": 0.1909091,
                "tempo": 120.0
            },
            {
                "start_time": 53.9681818,
                "end_time": 54.1568182,
                "pitch": 49,
                "velocity": 64,
                "duration": 0.1886364,
                "tempo": 120.0
            },
            {
                "start_time": 54.2090909,
                "end_time": 54.3795455,
                "pitch": 49,
                "velocity": 64,
                "duration": 0.1704545,
                "tempo": 120.0
            },
            {
                "start_time": 55.7386364,
                "end_time": 57.0,
                "pitch": 52,
                "velocity": 64,
                "duration": 1.2613636,
                "tempo": 120.0
            },
            {
                "start_time": 57.0340909,
                "end_time": 57.4613636,
                "pitch": 52,
                "velocity": 64,
                "duration": 0.4272727,
                "tempo": 120.0
            },
            {
                "start_time": 57.4977273,
                "end_time": 58.7681818,
                "pitch": 49,
                "velocity": 64,
                "duration": 1.2704545,
                "tempo": 120.0
            },
            {
                "start_time": 58.7863636,
                "end_time": 59.2045455,
                "pitch": 47,
                "velocity": 64,
                "duration": 0.4181818,
                "tempo": 120.0
            },
            {
                "start_time": 59.2204545,
                "end_time": 60.5113636,
                "pitch": 52,
                "velocity": 64,
                "duration": 1.2909091,
                "tempo": 120.0
            },
            {
                "start_time": 60.5272727,
                "end_time": 60.9295455,
                "pitch": 52,
                "velocity": 64,
                "duration": 0.4022727,
                "tempo": 120.0
            },
            {
                "start_time": 60.9454545,
                "end_time": 62.2431818,
                "pitch": 49,
                "velocity": 64,
                "duration": 1.2977273,
                "tempo": 120.0
            },
            {
                "start_time": 62.2613636,
                "end_time": 62.6954545,
                "pitch": 49,
                "velocity": 64,
                "duration": 0.4340909,
                "tempo": 120.0
            },
            {
                "start_time": 62.7113636,
                "end_time": 63.9681818,
                "pitch": 52,
                "velocity": 64,
                "duration": 1.2568182,
                "tempo": 120.0
            },
            {
                "start_time": 64.0181818,
                "end_time": 64.4272727,
                "pitch": 52,
                "velocity": 64,
                "duration": 0.4090909,
                "tempo": 120.0
            },
            {
                "start_time": 64.4454545,
                "end_time": 65.7340909,
                "pitch": 49,
                "velocity": 64,
                "duration": 1.2886364,
                "tempo": 120.0
            },
            {
                "start_time": 65.75,
                "end_time": 66.1613636,
                "pitch": 49,
                "velocity": 64,
                "duration": 0.4113636,
                "tempo": 120.0
            },
            {
                "start_time": 66.1954545,
                "end_time": 67.4659091,
                "pitch": 52,
                "velocity": 64,
                "duration": 1.2704545,
                "tempo": 120.0
            },
            {
                "start_time": 67.4840909,
                "end_time": 67.9022727,
                "pitch": 52,
                "velocity": 64,
                "duration": 0.4181818,
                "tempo": 120.0
            },
            {
                "start_time": 67.9363636,
                "end_time": 69.2068182,
                "pitch": 49,
                "velocity": 64,
                "duration": 1.2704545,
                "tempo": 120.0
            },
            {
                "start_time": 69.2409091,
                "end_time": 69.6681818,
                "pitch": 49,
                "velocity": 64,
                "duration": 0.4272727,
                "tempo": 120.0
            }
        ],
        "Oboe": [
            {
                "start_time": 0.0159091,
                "end_time": 0.4159091,
                "pitch": 61,
                "velocity": 64,
                "duration": 0.4,
                "tempo": 120.0
            },
            {
                "start_time": 0.4340909,
                "end_time": 0.8272727,
                "pitch": 61,
                "velocity": 64,
                "duration": 0.3931818,
                "tempo": 120.0
            },
            {
                "start_time": 0.8590909,
                "end_time": 3.4454545,
                "pitch": 85,
                "velocity": 64,
                "duration": 2.5863636,
                "tempo": 120.0
            },
            {
                "start_time": 3.4636364,
                "end_time": 3.8727273,
                "pitch": 61,
                "velocity": 64,
                "duration": 0.4090909,
                "tempo": 120.0
            },
            {
                "start_time": 3.9068182,
                "end_time": 4.3159091,
                "pitch": 61,
                "velocity": 64,
                "duration": 0.4090909,
                "tempo": 120.0
            },
            {
                "start_time": 4.3340909,
                "end_time": 6.925,
                "pitch": 88,
                "velocity": 64,
                "duration": 2.5909091,
                "tempo": 120.0
            },
            {
                "start_time": 6.9409091,
                "end_time": 7.3522727,
                "pitch": 61,
                "velocity": 64,
                "duration": 0.4113636,
                "tempo": 120.0
            },
            {
                "start_time": 7.3863636,
                "end_time": 7.7977273,
                "pitch": 61,
                "velocity": 64,
                "duration": 0.4113636,
                "tempo": 120.0
            },
            {
                "start_time": 7.8136364,
                "end_time": 10.4068182,
                "pitch": 85,
                "velocity": 64,
                "duration": 2.5931818,
                "tempo": 120.0
            },
            {
                "start_time": 10.4227273,
                "end_time": 10.825,
                "pitch": 61,
                "velocity": 64,
                "duration": 0.4022727,
                "tempo": 120.0
            },
            {
                "start_time": 10.8590909,
                "end_time": 11.2954545,
                "pitch": 61,
                "velocity": 64,
                "duration": 0.4363636,
                "tempo": 120.0
            },
            {
                "start_time": 11.3113636,
                "end_time": 13.8795455,
                "pitch": 90,
                "velocity": 64,
                "duration": 2.5681818,
                "tempo": 120.0
            },
            {
                "start_time": 13.9136364,
                "end_time": 14.1022727,
                "pitch": 64,
                "velocity": 64,
                "duration": 0.1886364,
                "tempo": 120.0
            },
            {
                "start_time": 14.1181818,
                "end_time": 14.325,
                "pitch": 66,
                "velocity": 64,
                "duration": 0.2068182,
                "tempo": 120.0
            },
            {
                "start_time": 14.3409091,
                "end_time": 14.5431818,
                "pitch": 69,
                "velocity": 64,
                "duration": 0.2022727,
                "tempo": 120.0
            },
            {
                "start_time": 14.5590909,
                "end_time": 14.7590909,
                "pitch": 71,
                "velocity": 64,
                "duration": 0.2,
                "tempo": 120.0
            },
            {
                "start_time": 14.7931818,
                "end_time": 14.9681818,
                "pitch": 66,
                "velocity": 64,
                "duration": 0.175,
                "tempo": 120.0
            },
            {
                "start_time": 15.0204545,
                "end_time": 17.3727273,
                "pitch": 64,
                "velocity": 64,
                "duration": 2.3522727,
                "tempo": 120.0
            },
            {
                "start_time": 17.3909091,
                "end_time": 17.5909091,
                "pitch": 59,
                "velocity": 64,
                "duration": 0.2,
                "tempo": 120.0
            },
            {
                "start_time": 17.625,
                "end_time": 17.825,
                "pitch": 61,
                "velocity": 64,
                "duration": 0.2,
                "tempo": 120.0
            },
            {
                "start_time": 17.8409091,
                "end_time": 18.0431818,
                "pitch": 64,
                "velocity": 64,
                "duration": 0.2022727,
                "tempo": 120.0
            },
            {
                "start_time": 18.0590909,
                "end_time": 18.6863636,
                "pitch": 66,
                "velocity": 64,
                "duration": 0.6272727,
                "tempo": 120.0
            },
            {
                "start_time": 18.7045455,
                "end_time": 19.1295455,
                "pitch": 64,
                "velocity": 64,
                "duration": 0.425,
                "tempo": 120.0
            },
            {
                "start_time": 19.1477273,
                "end_time": 19.3340909,
                "pitch": 66,
                "velocity": 64,
                "duration": 0.1863636,
                "tempo": 120.0
            },
            {
                "start_time": 19.3704545,
                "end_time": 20.8818182,
                "pitch": 66,
                "velocity": 64,
                "duration": 1.5113636,
                "tempo": 120.0
            },
            {
                "start_time": 20.9,
                "end_time": 21.0954545,
                "pitch": 64,
                "velocity": 64,
                "duration": 0.1954545,
                "tempo": 120.0
            },
            {
                "start_time": 21.1113636,
                "end_time": 21.3090909,
                "pitch": 66,
                "velocity": 64,
                "duration": 0.1977273,
                "tempo": 120.0
            },
            {
                "start_time": 21.325,
                "end_time": 21.5045455,
                "pitch": 69,
                "velocity": 64,
                "duration": 0.1795455,
                "tempo": 120.0
            },
            {
                "start_time": 21.5545455,
                "end_time": 21.9568182,
                "pitch": 71,
                "velocity": 64,
                "duration": 0.4022727,
                "tempo": 120.0
            },
            {
                "start_time": 21.9727273,
                "end_time": 22.1795455,
                "pitch": 71,
                "velocity": 64,
                "duration": 0.2068182,
                "tempo": 120.0
            },
            {
                "start_time": 22.1954545,
                "end_time": 22.5886364,
                "pitch": 64,
                "velocity": 64,
                "duration": 0.3931818,
                "tempo": 120.0
            },
            {
                "start_time": 22.6204545,
                "end_time": 22.8136364,
                "pitch": 66,
                "velocity": 64,
                "duration": 0.1931818,
                "tempo": 120.0
            },
            {
                "start_time": 22.8318182,
                "end_time": 24.3477273,
                "pitch": 66,
                "velocity": 64,
                "duration": 1.5159091,
                "tempo": 120.0
            },
            {
                "start_time": 24.3818182,
                "end_time": 24.5909091,
                "pitch": 59,
                "velocity": 64,
                "duration": 0.2090909,
                "tempo": 120.0
            },
            {
                "start_time": 24.6068182,
                "end_time": 24.8,
                "pitch": 61,
                "velocity": 64,
                "duration": 0.1931818,
                "tempo": 120.0
            },
            {
                "start_time": 24.8340909,
                "end_time": 25.0159091,
                "pitch": 64,
                "velocity": 64,
                "duration": 0.1818182,
                "tempo": 120.0
            },
            {
                "start_time": 25.0318182,
                "end_time": 25.6545455,
                "pitch": 66,
                "velocity": 64,
                "duration": 0.6227273,
                "tempo": 120.0
            },
            {
                "start_time": 25.6863636,
                "end_time": 26.1068182,
                "pitch": 64,
                "velocity": 64,
                "duration": 0.4204545,
                "tempo": 120.0
            },
            {
                "start_time": 26.125,
                "end_time": 26.3204545,
                "pitch": 66,
                "velocity": 64,
                "duration": 0.1954545,
                "tempo": 120.0
            },
            {
                "start_time": 26.3363636,
                "end_time": 27.8477273,
                "pitch": 66,
                "velocity": 64,
                "duration": 1.5113636,
                "tempo": 120.0
            },
            {
                "start_time": 27.8659091,
                "end_time": 28.7181818,
                "pitch": 66,
                "velocity": 64,
                "duration": 0.8522727,
                "tempo": 120.0
            },
            {
                "start_time": 28.7340909,
                "end_time": 29.3636364,
                "pitch": 66,
                "velocity": 64,
                "duration": 0.6295455,
                "tempo": 120.0
            },
            {
                "start_time": 29.3795455,
                "end_time": 29.5818182,
                "pitch": 64,
                "velocity": 64,
                "duration": 0.2022727,
                "tempo": 120.0
            },
            {
                "start_time": 29.5977273,
                "end_time": 30.45,
                "pitch": 66,
                "velocity": 64,
                "duration": 0.8522727,
                "tempo": 120.0
            },
            {
                "start_time": 30.4681818,
                "end_time": 31.3045455,
                "pitch": 61,
                "velocity": 64,
                "duration": 0.8363636,
                "tempo": 120.0
            },
            {
                "start_time": 31.3545455,
                "end_time": 31.5431818,
                "pitch": 64,
                "velocity": 64,
                "duration": 0.1886364,
                "tempo": 120.0
            },
            {
                "start_time": 31.5613636,
                "end_time": 31.7659091,
                "pitch": 66,
                "velocity": 64,
                "duration": 0.2045455,
                "tempo": 120.0
            },
            {
                "start_time": 31.7818182,
                "end_time": 31.9795455,
                "pitch": 66,
                "velocity": 64,
                "duration": 0.1977273,
                "tempo": 120.0
            },
            {
                "start_time": 31.9954545,
                "end_time": 32.3977273,
                "pitch": 66,
                "velocity": 64,
                "duration": 0.4022727,
                "tempo": 120.0
            },
            {
                "start_time": 32.4477273,
                "end_time": 32.6181818,
                "pitch": 64,
                "velocity": 64,
                "duration": 0.1704545,
                "tempo": 120.0
            },
            {
                "start_time": 32.6522727,
                "end_time": 32.8545455,
                "pitch": 66,
                "velocity": 64,
                "duration": 0.2022727,
                "tempo": 120.0
            },
            {
                "start_time": 32.8704545,
                "end_time": 33.0727273,
                "pitch": 71,
                "velocity": 64,
                "duration": 0.2022727,
                "tempo": 120.0
            },
            {
                "start_time": 33.0886364,
                "end_time": 33.925,
                "pitch": 69,
                "velocity": 64,
                "duration": 0.8363636,
                "tempo": 120.0
            },
            {
                "start_time": 33.9590909,
                "end_time": 34.1636364,
                "pitch": 69,
                "velocity": 64,
                "duration": 0.2045455,
                "tempo": 120.0
            },
            {
                "start_time": 34.1818182,
                "end_time": 34.8136364,
                "pitch": 61,
                "velocity": 64,
                "duration": 0.6318182,
                "tempo": 120.0
            },
            {
                "start_time": 34.8318182,
                "end_time": 35.6840909,
                "pitch": 66,
                "velocity": 64,
                "duration": 0.8522727,
                "tempo": 120.0
            },
            {
                "start_time": 35.7181818,
                "end_time": 36.3318182,
                "pitch": 66,
                "velocity": 64,
                "duration": 0.6136364,
                "tempo": 120.0
            },
            {
                "start_time": 36.35,
                "end_time": 36.5454545,
                "pitch": 64,
                "velocity": 64,
                "duration": 0.1954545,
                "tempo": 120.0
            },
            {
                "start_time": 36.5795455,
                "end_time": 37.4136364,
                "pitch": 66,
                "velocity": 64,
                "duration": 0.8340909,
                "tempo": 120.0
            },
            {
                "start_time": 37.4295455,
                "end_time": 38.3022727,
                "pitch": 61,
                "velocity": 64,
                "duration": 0.8727273,
                "tempo": 120.0
            },
            {
                "start_time": 38.3181818,
                "end_time": 38.5204545,
                "pitch": 61,
                "velocity": 64,
                "duration": 0.2022727,
                "tempo": 120.0
            },
            {
                "start_time": 38.5363636,
                "end_time": 38.7363636,
                "pitch": 64,
                "velocity": 64,
                "duration": 0.2,
                "tempo": 120.0
            },
            {
                "start_time": 38.7545455,
                "end_time": 38.9386364,
                "pitch": 66,
                "velocity": 64,
                "duration": 0.1840909,
                "tempo": 120.0
            },
            {
                "start_time": 38.9704545,
                "end_time": 39.1545455,
                "pitch": 64,
                "velocity": 64,
                "duration": 0.1840909,
                "tempo": 120.0
            },
            {
                "start_time": 39.1727273,
                "end_time": 39.3681818,
                "pitch": 66,
                "velocity": 64,
                "duration": 0.1954545,
                "tempo": 120.0
            },
            {
                "start_time": 39.4022727,
                "end_time": 39.5977273,
                "pitch": 69,
                "velocity": 64,
                "duration": 0.1954545,
                "tempo": 120.0
            },
            {
                "start_time": 39.6159091,
                "end_time": 40.025,
                "pitch": 71,
                "velocity": 64,
                "duration": 0.4090909,
                "tempo": 120.0
            },
            {
                "start_time": 40.0590909,
                "end_time": 41.7727273,
                "pitch": 66,
                "velocity": 64,
                "duration": 1.7136364,
                "tempo": 120.0
            },
            {
                "start_time": 41.7909091,
                "end_time": 41.9909091,
                "pitch": 83,
                "velocity": 64,
                "duration": 0.2,
                "tempo": 120.0
            },
            {
                "start_time": 42.025,
                "end_time": 42.1909091,
                "pitch": 83,
                "velocity": 64,
                "duration": 0.1659091,
                "tempo": 120.0
            },
            {
                "start_time": 42.2409091,
                "end_time": 42.4295455,
                "pitch": 83,
                "velocity": 64,
                "duration": 0.1886364,
                "tempo": 120.0
            },
            {
                "start_time": 42.4477273,
                "end_time": 42.6522727,
                "pitch": 83,
                "velocity": 64,
                "duration": 0.2045455,
                "tempo": 120.0
            },
            {
                "start_time": 42.6681818,
                "end_time": 42.8590909,
                "pitch": 82,
                "velocity": 64,
                "duration": 0.1909091,
                "tempo": 120.0
            },
            {
                "start_time": 42.875,
                "end_time": 43.0659091,
                "pitch": 82,
                "velocity": 64,
                "duration": 0.1909091,
                "tempo": 120.0
            },
            {
                "start_time": 43.0840909,
                "end_time": 43.2681818,
                "pitch": 78,
                "velocity": 64,
                "duration": 0.1840909,
                "tempo": 120.0
            },
            {
                "start_time": 43.3181818,
                "end_time": 43.4863636,
                "pitch": 78,
                "velocity": 64,
                "duration": 0.1681818,
                "tempo": 120.0
            },
            {
                "start_time": 43.5181818,
                "end_time": 43.7295455,
                "pitch": 76,
                "velocity": 64,
                "duration": 0.2113636,
                "tempo": 120.0
            },
            {
                "start_time": 43.7454545,
                "end_time": 43.9568182,
                "pitch": 76,
                "velocity": 64,
                "duration": 0.2113636,
                "tempo": 120.0
            },
            {
                "start_time": 43.9727273,
                "end_time": 44.1795455,
                "pitch": 75,
                "velocity": 64,
                "duration": 0.2068182,
                "tempo": 120.0
            },
            {
                "start_time": 44.1954545,
                "end_time": 44.3840909,
                "pitch": 75,
                "velocity": 64,
                "duration": 0.1886364,
                "tempo": 120.0
            },
            {
                "start_time": 44.4181818,
                "end_time": 44.6022727,
                "pitch": 73,
                "velocity": 64,
                "duration": 0.1840909,
                "tempo": 120.0
            },
            {
                "start_time": 44.6181818,
                "end_time": 44.8204545,
                "pitch": 73,
                "velocity": 64,
                "duration": 0.2022727,
                "tempo": 120.0
            },
            {
                "start_time": 44.8522727,
                "end_time": 45.0545455,
                "pitch": 76,
                "velocity": 64,
                "duration": 0.2022727,
                "tempo": 120.0
            },
            {
                "start_time": 45.0704545,
                "end_time": 45.2727273,
                "pitch": 76,
                "velocity": 64,
                "duration": 0.2022727,
                "tempo": 120.0
            },
            {
                "start_time": 45.2886364,
                "end_time": 45.4727273,
                "pitch": 83,
                "velocity": 64,
                "duration": 0.1840909,
                "tempo": 120.0
            },
            {
                "start_time": 45.5068182,
                "end_time": 45.6909091,
                "pitch": 83,
                "velocity": 64,
                "duration": 0.1840909,
                "tempo": 120.0
            },
            {
                "start_time": 45.7068182,
                "end_time": 45.9022727,
                "pitch": 83,
                "velocity": 64,
                "duration": 0.1954545,
                "tempo": 120.0
            },
            {
                "start_time": 45.9204545,
                "end_time": 46.1159091,
                "pitch": 83,
                "velocity": 64,
                "duration": 0.1954545,
                "tempo": 120.0
            },
            {
                "start_time": 46.15,
                "end_time": 46.3454545,
                "pitch": 82,
                "velocity": 64,
                "duration": 0.1954545,
                "tempo": 120.0
            },
            {
                "start_time": 46.3613636,
                "end_time": 46.5431818,
                "pitch": 82,
                "velocity": 64,
                "duration": 0.1818182,
                "tempo": 120.0
            },
            {
                "start_time": 46.575,
                "end_time": 46.7636364,
                "pitch": 78,
                "velocity": 64,
                "duration": 0.1886364,
                "tempo": 120.0
            },
            {
                "start_time": 46.7818182,
                "end_time": 46.9863636,
                "pitch": 78,
                "velocity": 64,
                "duration": 0.2045455,
                "tempo": 120.0
            },
            {
                "start_time": 47.0022727,
                "end_time": 47.2045455,
                "pitch": 76,
                "velocity": 64,
                "duration": 0.2022727,
                "tempo": 120.0
            },
            {
                "start_time": 47.2204545,
                "end_time": 47.4204545,
                "pitch": 78,
                "velocity": 64,
                "duration": 0.2,
                "tempo": 120.0
            },
            {
                "start_time": 47.4545455,
                "end_time": 47.6340909,
                "pitch": 82,
                "velocity": 64,
                "duration": 0.1795455,
                "tempo": 120.0
            },
            {
                "start_time": 47.6886364,
                "end_time": 47.8840909,
                "pitch": 83,
                "velocity": 64,
                "duration": 0.1954545,
                "tempo": 120.0
            },
            {
                "start_time": 47.9022727,
                "end_time": 48.0931818,
                "pitch": 82,
                "velocity": 64,
                "duration": 0.1909091,
                "tempo": 120.0
            },
            {
                "start_time": 48.1090909,
                "end_time": 48.3,
                "pitch": 78,
                "velocity": 64,
                "duration": 0.1909091,
                "tempo": 120.0
            },
            {
                "start_time": 48.3159091,
                "end_time": 48.5204545,
                "pitch": 76,
                "velocity": 64,
                "duration": 0.2045455,
                "tempo": 120.0
            },
            {
                "start_time": 48.5386364,
                "end_time": 48.7272727,
                "pitch": 78,
                "velocity": 64,
                "duration": 0.1886364,
                "tempo": 120.0
            },
            {
                "start_time": 48.7772727,
                "end_time": 48.9477273,
                "pitch": 83,
                "velocity": 64,
                "duration": 0.1704545,
                "tempo": 120.0
            },
            {
                "start_time": 48.9818182,
                "end_time": 49.1886364,
                "pitch": 83,
                "velocity": 64,
                "duration": 0.2068182,
                "tempo": 120.0
            },
            {
                "start_time": 49.2045455,
                "end_time": 49.4068182,
                "pitch": 83,
                "velocity": 64,
                "duration": 0.2022727,
                "tempo": 120.0
            },
            {
                "start_time": 49.4227273,
                "end_time": 49.6227273,
                "pitch": 83,
                "velocity": 64,
                "duration": 0.2,
                "tempo": 120.0
            },
            {
                "start_time": 49.6386364,
                "end_time": 49.8136364,
                "pitch": 82,
                "velocity": 64,
                "duration": 0.175,
                "tempo": 120.0
            },
            {
                "start_time": 49.8454545,
                "end_time": 50.0227273,
                "pitch": 82,
                "velocity": 64,
                "duration": 0.1772727,
                "tempo": 120.0
            },
            {
                "start_time": 50.0386364,
                "end_time": 50.2386364,
                "pitch": 78,
                "velocity": 64,
                "duration": 0.2,
                "tempo": 120.0
            },
            {
                "start_time": 50.2727273,
                "end_time": 50.4727273,
                "pitch": 78,
                "velocity": 64,
                "duration": 0.2,
                "tempo": 120.0
            },
            {
                "start_time": 50.4909091,
                "end_time": 50.7,
                "pitch": 76,
                "velocity": 64,
                "duration": 0.2090909,
                "tempo": 120.0
            },
            {
                "start_time": 50.7181818,
                "end_time": 50.9090909,
                "pitch": 76,
                "velocity": 64,
                "duration": 0.1909091,
                "tempo": 120.0
            },
            {
                "start_time": 50.9454545,
                "end_time": 51.1318182,
                "pitch": 75,
                "velocity": 64,
                "duration": 0.1863636,
                "tempo": 120.0
            },
            {
                "start_time": 51.15,
                "end_time": 51.3545455,
                "pitch": 75,
                "velocity": 64,
                "duration": 0.2045455,
                "tempo": 120.0
            },
            {
                "start_time": 51.3727273,
                "end_time": 51.5727273,
                "pitch": 73,
                "velocity": 64,
                "duration": 0.2,
                "tempo": 120.0
            },
            {
                "start_time": 51.6068182,
                "end_time": 51.8068182,
                "pitch": 73,
                "velocity": 64,
                "duration": 0.2,
                "tempo": 120.0
            },
            {
                "start_time": 51.825,
                "end_time": 52.0113636,
                "pitch": 76,
                "velocity": 64,
                "duration": 0.1863636,
                "tempo": 120.0
            },
            {
                "start_time": 52.0477273,
                "end_time": 52.2340909,
                "pitch": 76,
                "velocity": 64,
                "duration": 0.1863636,
                "tempo": 120.0
            },
            {
                "start_time": 52.2522727,
                "end_time": 52.4431818,
                "pitch": 83,
                "velocity": 64,
                "duration": 0.1909091,
                "tempo": 120.0
            },
            {
                "start_time": 52.4590909,
                "end_time": 52.65,
                "pitch": 83,
                "velocity": 64,
                "duration": 0.1909091,
                "tempo": 120.0
            },
            {
                "start_time": 52.6659091,
                "end_time": 52.8704545,
                "pitch": 83,
                "velocity": 64,
                "duration": 0.2045455,
                "tempo": 120.0
            },
            {
                "start_time": 52.9045455,
                "end_time": 53.075,
                "pitch": 83,
                "velocity": 64,
                "duration": 0.1704545,
                "tempo": 120.0
            },
            {
                "start_time": 53.1272727,
                "end_time": 53.3159091,
                "pitch": 82,
                "velocity": 64,
                "duration": 0.1886364,
                "tempo": 120.0
            },
            {
                "start_time": 53.3318182,
                "end_time": 53.5386364,
                "pitch": 82,
                "velocity": 64,
                "duration": 0.2068182,
                "tempo": 120.0
            },
            {
                "start_time": 53.5545455,
                "end_time": 53.7454545,
                "pitch": 78,
                "velocity": 64,
                "duration": 0.1909091,
                "tempo": 120.0
            },
            {
                "start_time": 53.7613636,
                "end_time": 53.9522727,
                "pitch": 78,
                "velocity": 64,
                "duration": 0.1909091,
                "tempo": 120.0
            },
            {
                "start_time": 53.9681818,
                "end_time": 54.1568182,
                "pitch": 76,
                "velocity": 64,
                "duration": 0.1886364,
                "tempo": 120.0
            },
            {
                "start_time": 54.2090909,
                "end_time": 54.3795455,
                "pitch": 78,
                "velocity": 64,
                "duration": 0.1704545,
                "tempo": 120.0
            },
            {
                "start_time": 54.4136364,
                "end_time": 54.6181818,
                "pitch": 82,
                "velocity": 64,
                "duration": 0.2045455,
                "tempo": 120.0
            },
            {
                "start_time": 54.6363636,
                "end_time": 54.8409091,
                "pitch": 83,
                "velocity": 64,
                "duration": 0.2045455,
                "tempo": 120.0
            },
            {
                "start_time": 54.8568182,
                "end_time": 55.0590909,
                "pitch": 82,
                "velocity": 64,
                "duration": 0.2022727,
                "tempo": 120.0
            },
            {
                "start_time": 55.075,
                "end_time": 55.2590909,
                "pitch": 78,
                "velocity": 64,
                "duration": 0.1840909,
                "tempo": 120.0
            },
            {
                "start_time": 55.2931818,
                "end_time": 55.4818182,
                "pitch": 76,
                "velocity": 64,
                "duration": 0.1886364,
                "tempo": 120.0
            },
            {
                "start_time": 55.4977273,
                "end_time": 55.7022727,
                "pitch": 78,
                "velocity": 64,
                "duration": 0.2045455,
                "tempo": 120.0
            },
            {
                "start_time": 55.7386364,
                "end_time": 57.4613636,
                "pitch": 71,
                "velocity": 64,
                "duration": 1.7227273,
                "tempo": 120.0
            },
            {
                "start_time": 57.4977273,
                "end_time": 57.6772727,
                "pitch": 73,
                "velocity": 64,
                "duration": 0.1795455,
                "tempo": 120.0
            },
            {
                "start_time": 57.6931818,
                "end_time": 57.8909091,
                "pitch": 76,
                "velocity": 64,
                "duration": 0.1977273,
                "tempo": 120.0
            },
            {
                "start_time": 57.9068182,
                "end_time": 58.325,
                "pitch": 78,
                "velocity": 64,
                "duration": 0.4181818,
                "tempo": 120.0
            },
            {
                "start_time": 58.3590909,
                "end_time": 59.2045455,
                "pitch": 78,
                "velocity": 64,
                "duration": 0.8454545,
                "tempo": 120.0
            },
            {
                "start_time": 59.2204545,
                "end_time": 59.4181818,
                "pitch": 73,
                "velocity": 64,
                "duration": 0.1977273,
                "tempo": 120.0
            },
            {
                "start_time": 59.4340909,
                "end_time": 59.8386364,
                "pitch": 71,
                "velocity": 64,
                "duration": 0.4045455,
                "tempo": 120.0
            },
            {
                "start_time": 59.8727273,
                "end_time": 60.7113636,
                "pitch": 73,
                "velocity": 64,
                "duration": 0.8386364,
                "tempo": 120.0
            },
            {
                "start_time": 60.7454545,
                "end_time": 61.8068182,
                "pitch": 66,
                "velocity": 64,
                "duration": 1.0613636,
                "tempo": 120.0
            },
            {
                "start_time": 61.8409091,
                "end_time": 62.6954545,
                "pitch": 73,
                "velocity": 64,
                "duration": 0.8545455,
                "tempo": 120.0
            },
            {
                "start_time": 62.7113636,
                "end_time": 63.9681818,
                "pitch": 71,
                "velocity": 64,
                "duration": 1.2568182,
                "tempo": 120.0
            },
            {
                "start_time": 64.0181818,
                "end_time": 64.4272727,
                "pitch": 73,
                "velocity": 64,
                "duration": 0.4090909,
                "tempo": 120.0
            },
            {
                "start_time": 64.4454545,
                "end_time": 64.6409091,
                "pitch": 76,
                "velocity": 64,
                "duration": 0.1954545,
                "tempo": 120.0
            },
            {
                "start_time": 64.6590909,
                "end_time": 65.0590909,
                "pitch": 78,
                "velocity": 64,
                "duration": 0.4,
                "tempo": 120.0
            },
            {
                "start_time": 65.1090909,
                "end_time": 66.1613636,
                "pitch": 76,
                "velocity": 64,
                "duration": 1.0522727,
                "tempo": 120.0
            },
            {
                "start_time": 66.1954545,
                "end_time": 66.3795455,
                "pitch": 71,
                "velocity": 64,
                "duration": 0.1840909,
                "tempo": 120.0
            },
            {
                "start_time": 66.3954545,
                "end_time": 66.5977273,
                "pitch": 73,
                "velocity": 64,
                "duration": 0.2022727,
                "tempo": 120.0
            },
            {
                "start_time": 66.6295455,
                "end_time": 66.8318182,
                "pitch": 76,
                "velocity": 64,
                "duration": 0.2022727,
                "tempo": 120.0
            },
            {
                "start_time": 66.8477273,
                "end_time": 67.9022727,
                "pitch": 78,
                "velocity": 64,
                "duration": 1.0545455,
                "tempo": 120.0
            },
            {
                "start_time": 67.9363636,
                "end_time": 68.1409091,
                "pitch": 83,
                "velocity": 64,
                "duration": 0.2045455,
                "tempo": 120.0
            },
            {
                "start_time": 68.1568182,
                "end_time": 68.3454545,
                "pitch": 81,
                "velocity": 64,
                "duration": 0.1886364,
                "tempo": 120.0
            },
            {
                "start_time": 68.3795455,
                "end_time": 68.5636364,
                "pitch": 78,
                "velocity": 64,
                "duration": 0.1840909,
                "tempo": 120.0
            },
            {
                "start_time": 68.5818182,
                "end_time": 69.6681818,
                "pitch": 78,
                "velocity": 64,
                "duration": 1.0863636,
                "tempo": 120.0
            }
        ]
    }
}