{
    "mood": "happy",
    "instruments": {
        "Harpsichord": [
            {
                "start_time": 0.3909091,
                "end_time": 0.8,
                "pitch": 51,
                "velocity": 101,
                "duration": 0.4090909,
                "tempo": 120.0
            },
            {
                "start_time": 0.9136364,
                "end_time": 1.3318182,
                "pitch": 47,
                "velocity": 101,
                "duration": 0.4181818,
                "tempo": 120.0
            },
            {
                "start_time": 1.4477273,
                "end_time": 1.8727273,
                "pitch": 47,
                "velocity": 101,
                "duration": 0.425,
                "tempo": 120.0
            },
            {
                "start_time": 1.9931818,
                "end_time": 2.4090909,
                "pitch": 49,
                "velocity": 101,
                "duration": 0.4159091,
                "tempo": 120.0
            },
            {
                "start_time": 2.5272727,
                "end_time": 2.9454545,
                "pitch": 49,
                "velocity": 101,
                "duration": 0.4181818,
                "tempo": 120.0
            },
            {
                "start_time": 3.0613636,
                "end_time": 3.4863636,
                "pitch": 46,
                "velocity": 101,
                "duration": 0.425,
                "tempo": 120.0
            },
            {
                "start_time": 3.6045455,
                "end_time": 4.0227273,
                "pitch": 46,
                "velocity": 101,
                "duration": 0.4181818,
                "tempo": 120.0
            },
            {
                "start_time": 4.1409091,
                "end_time": 4.5636364,
                "pitch": 47,
                "velocity": 101,
                "duration": 0.4227273,
                "tempo": 120.0
            },
            {
                "start_time": 4.6840909,
                "end_time": 5.1022727,
                "pitch": 47,
                "velocity": 101,
                "duration": 0.4181818,
                "tempo": 120.0
            },
            {
                "start_time": 5.2181818,
                "end_time": 5.6363636,
                "pitch": 49,
                "velocity": 101,
                "duration": 0.4181818,
                "tempo": 120.0
            },
            {
                "start_time": 5.7522727,
                "end_time": 6.1704545,
                "pitch": 49,
                "velocity": 101,
                "duration": 0.4181818,
                "tempo": 120.0
            },
            {
                "start_time": 6.2863636,
                "end_time": 6.7113636,
                "pitch": 54,
                "velocity": 101,
                "duration": 0.425,
                "tempo": 120.0
            },
            {
                "start_time": 6.8318182,
                "end_time": 7.2477273,
                "pitch": 54,
                "velocity": 101,
                "duration": 0.4159091,
                "tempo": 120.0
            },
            {
                "start_time": 7.3659091,
                "end_time": 7.7818182,
                "pitch": 54,
                "velocity": 101,
                "duration": 0.4159091,
                "tempo": 120.0
            },
            {
                "start_time": 7.9,
                "end_time": 8.325,
                "pitch": 54,
                "velocity": 101,
                "duration": 0.425,
                "tempo": 120.0
            },
            {
                "start_time": 8.4431818,
                "end_time": 8.8613636,
                "pitch": 51,
                "velocity": 101,
                "duration": 0.4181818,
                "tempo": 120.0
            },
            {
                "start_time": 8.9772727,
                "end_time": 9.3954545,
                "pitch": 51,
                "velocity": 101,
                "duration": 0.4181818,
                "tempo": 120.0
            },
            {
                "start_time": 9.5113636,
                "end_time": 9.9363636,
                "pitch": 47,
                "velocity": 101,
                "duration": 0.425,
                "tempo": 120.0
            },
            {
                "start_time": 10.0568182,
                "end_time": 10.4727273,
                "pitch": 47,
                "velocity": 101,
                "duration": 0.4159091,
                "tempo": 120.0
            },
            {
                "start_time": 10.5909091,
                "end_time": 11.0090909,
                "pitch": 49,
                "velocity": 101,
                "duration": 0.4181818,
                "tempo": 120.0
            },
            {
                "start_time": 11.125,
                "end_time": 11.55,
                "pitch": 49,
                "velocity": 101,
                "duration": 0.425,
                "tempo": 120.0
            },
            {
                "start_time": 11.6681818,
                "end_time": 12.0863636,
                "pitch": 54,
                "velocity": 101,
                "duration": 0.4181818,
                "tempo": 120.0
            },
            {
                "start_time": 12.2022727,
                "end_time": 12.6204545,
                "pitch": 54,
                "velocity": 101,
                "duration": 0.4181818,
                "tempo": 120.0
            },
            {
                "start_time": 12.7386364,
                "end_time": 13.1636364,
                "pitch": 47,
                "velocity": 101,
                "duration": 0.425,
                "tempo": 120.0
            },
            {
                "start_time": 13.2818182,
                "end_time": 13.7,
                "pitch": 47,
                "velocity": 101,
                "duration": 0.4181818,
                "tempo": 120.0
            },
            {
                "start_time": 13.8159091,
                "end_time": 14.2409091,
                "pitch": 49,
                "velocity": 101,
                "duration": 0.425,
                "tempo": 120.0
            },
            {
                "start_time": 14.3590909,
                "end_time": 14.7772727,
                "pitch": 49,
                "velocity": 101,
                "duration": 0.4181818,
                "tempo": 120.0
            },
            {
                "start_time": 14.8954545,
                "end_time": 15.3113636,
                "pitch": 54,
                "velocity": 101,
                "duration": 0.4159091,
                "tempo": 120.0
            },
            {
                "start_time": 15.4295455,
                "end_time": 15.8545455,
                "pitch": 54,
                "velocity": 101,
                "duration": 0.425,
                "tempo": 120.0
            },
            {
                "start_time": 15.9727273,
                "end_time": 16.3909091,
                "pitch": 54,
                "velocity": 101,
                "duration": 0.4181818,
                "tempo": 120.0
            },
            {
                "start_time": 16.5068182,
                "end_time": 16.925,
                "pitch": 54,
                "velocity": 101,
                "duration": 0.4181818,
                "tempo": 120.0
            },
            {
                "start_time": 17.0409091,
                "end_time": 17.2454545,
                "pitch": 51,
                "velocity": 80,
                "duration": 0.2045455,
                "tempo": 120.0
            },
            {
                "start_time": 17.0409091,
                "end_time": 17.2454545,
                "pitch": 51,
                "velocity": 80,
                "duration": 0.2045455,
                "tempo": 120.0
            },
            {
                "start_time": 17.3136364,
                "end_time": 17.5181818,
                "pitch": 46,
                "velocity": 80,
                "duration": 0.2045455,
                "tempo": 120.0
            },
            {
                "start_time": 17.5863636,
                "end_time": 17.7863636,
                "pitch": 54,
                "velocity": 80,
                "duration": 0.2,
                "tempo": 120.0
            },
            {
                "start_time": 17.8522727,
                "end_time": 18.0522727,
                "pitch": 46,
                "velocity": 80,
                "duration": 0.2,
                "tempo": 120.0
            },
            {
                "start_time": 18.1204545,
                "end_time": 18.3204545,
                "pitch": 51,
                "velocity": 80,
                "duration": 0.2,
                "tempo": 120.0
            },
            {
                "start_time": 18.3863636,
                "end_time": 18.5863636,
                "pitch": 47,
                "velocity": 80,
                "duration": 0.2,
                "tempo": 120.0
            },
            {
                "start_time": 18.6545455,
                "end_time": 18.8545455,
                "pitch": 54,
                "velocity": 80,
                "duration": 0.2,
                "tempo": 120.0
            },
            {
                "start_time": 18.9204545,
                "end_time": 19.1227273,
                "pitch": 47,
                "velocity": 80,
                "duration": 0.2022727,
                "tempo": 120.0
            },
            {
                "start_time": 19.1886364,
                "end_time": 19.3931818,
                "pitch": 49,
                "velocity": 80,
                "duration": 0.2045455,
                "tempo": 120.0
            },
            {
                "start_time": 19.4613636,
                "end_time": 19.6636364,
                "pitch": 44,
                "velocity": 80,
                "duration": 0.2022727,
                "tempo": 120.0
            },
            {
                "start_time": 19.7318182,
                "end_time": 19.9318182,
                "pitch": 53,
                "velocity": 80,
                "duration": 0.2,
                "tempo": 120.0
            },
            {
                "start_time": 20.0,
                "end_time": 20.2,
                "pitch": 44,
                "velocity": 80,
                "duration": 0.2,
                "tempo": 120.0
            },
            {
                "start_time": 20.2659091,
                "end_time": 20.4704545,
                "pitch": 49,
                "velocity": 80,
                "duration": 0.2045455,
                "tempo": 120.0
            },
            {
                "start_time": 20.5386364,
                "end_time": 20.7431818,
                "pitch": 46,
                "velocity": 80,
                "duration": 0.2045455,
                "tempo": 120.0
            },
            {
                "start_time": 20.8113636,
                "end_time": 21.0113636,
                "pitch": 53,
                "velocity": 80,
                "duration": 0.2,
                "tempo": 120.0
            },
            {
                "start_time": 21.0772727,
                "end_time": 21.2795455,
                "pitch": 44,
                "velocity": 80,
                "duration": 0.2022727,
                "tempo": 120.0
            },
            {
                "start_time": 21.3454545,
                "end_time": 21.5454545,
                "pitch": 51,
                "velocity": 80,
                "duration": 0.2,
                "tempo": 120.0
            },
            {
                "start_time": 21.6113636,
                "end_time": 21.8136364,
                "pitch": 47,
                "velocity": 80,
                "duration": 0.2022727,
                "tempo": 120.0
            },
            {
                "start_time": 21.8795455,
                "end_time": 22.0840909,
                "pitch": 54,
                "velocity": 80,
                "duration": 0.2045455,
                "tempo": 120.0
            },
            {
                "start_time": 22.1522727,
                "end_time": 22.3545455,
                "pitch": 47,
                "velocity": 80,
                "duration": 0.2022727,
                "tempo": 120.0
            },
            {
                "start_time": 22.4227273,
                "end_time": 22.625,
                "pitch": 49,
                "velocity": 80,
                "duration": 0.2022727,
                "tempo": 120.0
            },
            {
                "start_time": 22.6909091,
                "end_time": 22.8909091,
                "pitch": 44,
                "velocity": 80,
                "duration": 0.2,
                "tempo": 120.0
            },
            {
                "start_time": 22.9590909,
                "end_time": 23.1590909,
                "pitch": 53,
                "velocity": 80,
                "duration": 0.2,
                "tempo": 120.0
            },
            {
                "start_time": 23.225,
                "end_time": 23.425,
                "pitch": 44,
                "velocity": 80,
                "duration": 0.2,
                "tempo": 120.0
            },
            {
                "start_time": 23.4931818,
                "end_time": 23.6954545,
                "pitch": 49,
                "velocity": 80,
                "duration": 0.2022727,
                "tempo": 120.0
            },
            {
                "start_time": 23.7636364,
                "end_time": 23.9681818,
                "pitch": 46,
                "velocity": 80,
                "duration": 0.2045455,
                "tempo": 120.0
            },
            {
                "start_time": 24.0363636,
                "end_time": 24.2363636,
                "pitch": 54,
                "velocity": 80,
                "duration": 0.2,
                "tempo": 120.0
            },
            {
                "start_time": 24.3045455,
                "end_time": 24.5045455,
                "pitch": 46,
                "velocity": 80,
                "duration": 0.2,
                "tempo": 120.0
            },
            {
                "start_time": 24.5704545,
                "end_time": 24.775,
                "pitch": 46,
                "velocity": 80,
                "duration": 0.2045455,
                "tempo": 120.0
            },
            {
                "start_time": 24.8431818,
                "end_time": 25.0454545,
                "pitch": 44,
                "velocity": 80,
                "duration": 0.2022727,
                "tempo": 120.0
            },
            {
                "start_time": 25.1136364,
                "end_time": 25.3159091,
                "pitch": 42,
                "velocity": 80,
                "duration": 0.2022727,
                "tempo": 120.0
            },
            {
                "start_time": 25.3818182,
                "end_time": 25.5818182,
                "pitch": 41,
                "velocity": 80,
                "duration": 0.2,
                "tempo": 120.0
            },
            {
                "start_time": 25.65,
                "end_time": 25.85,
                "pitch": 51,
                "velocity": 80,
                "duration": 0.2,
                "tempo": 120.0
            },
            {
                "start_time": 25.9159091,
                "end_time": 26.1159091,
                "pitch": 46,
                "velocity": 80,
                "duration": 0.2,
                "tempo": 120.0
            },
            {
                "start_time": 26.1840909,
                "end_time": 26.3840909,
                "pitch": 54,
                "velocity": 80,
                "duration": 0.2,
                "tempo": 120.0
            },
            {
                "start_time": 26.45,
                "end_time": 26.65,
                "pitch": 46,
                "velocity": 80,
                "duration": 0.2,
                "tempo": 120.0
            },
            {
                "start_time": 26.7181818,
                "end_time": 26.9227273,
                "pitch": 51,
                "velocity": 80,
                "duration": 0.2045455,
                "tempo": 120.0
            },
            {
                "start_time": 26.9886364,
                "end_time": 27.1931818,
                "pitch": 47,
                "velocity": 80,
                "duration": 0.2045455,
                "tempo": 120.0
            },
            {
                "start_time": 27.2613636,
                "end_time": 27.4613636,
                "pitch": 54,
                "velocity": 80,
                "duration": 0.2,
                "tempo": 120.0
            },
            {
                "start_time": 27.5295455,
                "end_time": 27.7295455,
                "pitch": 47,
                "velocity": 80,
                "duration": 0.2,
                "tempo": 120.0
            },
            {
                "start_time": 27.7954545,
                "end_time": 28.0,
                "pitch": 49,
                "velocity": 80,
                "duration": 0.2045455,
                "tempo": 120.0
            },
            {
                "start_time": 28.0681818,
                "end_time": 28.2727273,
                "pitch": 44,
                "velocity": 80,
                "duration": 0.2045455,
                "tempo": 120.0
            },
            {
                "start_time": 28.3409091,
                "end_time": 28.5363636,
                "pitch": 53,
                "velocity": 80,
                "duration": 0.1954545,
                "tempo": 120.0
            },
            {
                "start_time": 28.6022727,
                "end_time": 28.8,
                "pitch": 54,
                "velocity": 80,
                "duration": 0.1977273,
                "tempo": 120.0
            },
            {
                "start_time": 28.8659091,
                "end_time": 29.0681818,
                "pitch": 54,
                "velocity": 80,
                "duration": 0.2022727,
                "tempo": 120.0
            },
            {
                "start_time": 29.1363636,
                "end_time": 29.3409091,
                "pitch": 49,
                "velocity": 80,
                "duration": 0.2045455,
                "tempo": 120.0
            },
            {
                "start_time": 29.4090909,
                "end_time": 29.6090909,
                "pitch": 47,
                "velocity": 80,
                "duration": 0.2,
                "tempo": 120.0
            },
            {
                "start_time": 29.675,
                "end_time": 29.8772727,
                "pitch": 46,
                "velocity": 80,
                "duration": 0.2022727,
                "tempo": 120.0
            },
            {
                "start_time": 29.9431818,
                "end_time": 30.1477273,
                "pitch": 47,
                "velocity": 80,
                "duration": 0.2045455,
                "tempo": 120.0
            },
            {
                "start_time": 30.2159091,
                "end_time": 30.4181818,
                "pitch": 42,
                "velocity": 80,
                "duration": 0.2022727,
                "tempo": 120.0
            },
            {
                "start_time": 30.4863636,
                "end_time": 30.6886364,
                "pitch": 51,
                "velocity": 80,
                "duration": 0.2022727,
                "tempo": 120.0
            },
            {
                "start_time": 30.7545455,
                "end_time": 30.9545455,
                "pitch": 47,
                "velocity": 80,
                "duration": 0.2,
                "tempo": 120.0
            },
            {
                "start_time": 31.0204545,
                "end_time": 31.225,
                "pitch": 49,
                "velocity": 80,
                "duration": 0.2045455,
                "tempo": 120.0
            },
            {
                "start_time": 31.2931818,
                "end_time": 31.4977273,
                "pitch": 44,
                "velocity": 80,
                "duration": 0.2045455,
                "tempo": 120.0
            },
            {
                "start_time": 31.5659091,
                "end_time": 31.7659091,
                "pitch": 53,
                "velocity": 80,
                "duration": 0.2,
                "tempo": 120.0
            },
            {
                "start_time": 31.8318182,
                "end_time": 32.0340909,
                "pitch": 49,
                "velocity": 80,
                "duration": 0.2022727,
                "tempo": 120.0
            },
            {
                "start_time": 32.1,
                "end_time": 32.3,
                "pitch": 49,
                "velocity": 80,
                "duration": 0.2,
                "tempo": 120.0
            },
            {
                "start_time": 32.3659091,
                "end_time": 32.5681818,
                "pitch": 46,
                "velocity": 80,
                "duration": 0.2022727,
                "tempo": 120.0
            },
            {
                "start_time": 32.6340909,
                "end_time": 32.8340909,
                "pitch": 42,
                "velocity": 80,
                "duration": 0.2,
                "tempo": 120.0
            },
            {
                "start_time": 32.9022727,
                "end_time": 33.1022727,
                "pitch": 46,
                "velocity": 80,
                "duration": 0.2,
                "tempo": 120.0
            },
            {
                "start_time": 33.1681818,
                "end_time": 33.3681818,
                "pitch": 49,
                "velocity": 80,
                "duration": 0.2,
                "tempo": 120.0
            },
            {
                "start_time": 33.4363636,
                "end_time": 33.6363636,
                "pitch": 51,
                "velocity": 80,
                "duration": 0.2,
                "tempo": 120.0
            },
            {
                "start_time": 33.7022727,
                "end_time": 33.9068182,
                "pitch": 53,
                "velocity": 80,
                "duration": 0.2045455,
                "tempo": 120.0
            },
            {
                "start_time": 33.975,
                "end_time": 34.1795455,
                "pitch": 54,
                "velocity": 80,
                "duration": 0.2045455,
                "tempo": 120.0
            },
            {
                "start_time": 34.2477273,
                "end_time": 34.4477273,
                "pitch": 51,
                "velocity": 80,
                "duration": 0.2,
                "tempo": 120.0
            },
            {
                "start_time": 34.5136364,
                "end_time": 34.7136364,
                "pitch": 46,
                "velocity": 80,
                "duration": 0.2,
                "tempo": 120.0
            },
            {
                "start_time": 34.7818182,
                "end_time": 34.9818182,
                "pitch": 54,
                "velocity": 80,
                "duration": 0.2,
                "tempo": 120.0
            },
            {
                "start_time": 35.0477273,
                "end_time": 35.25,
                "pitch": 46,
                "velocity": 80,
                "duration": 0.2022727,
                "tempo": 120.0
            },
            {
                "start_time": 35.3159091,
                "end_time": 35.5204545,
                "pitch": 51,
                "velocity": 80,
                "duration": 0.2045455,
                "tempo": 120.0
            },
            {
                "start_time": 35.5886364,
                "end_time": 35.7909091,
                "pitch": 47,
                "velocity": 80,
                "duration": 0.2022727,
                "tempo": 120.0
            },
            {
                "start_time": 35.8590909,
                "end_time": 36.0590909,
                "pitch": 54,
                "velocity": 80,
                "duration": 0.2,
                "tempo": 120.0
            },
            {
                "start_time": 36.1272727,
                "end_time": 36.3272727,
                "pitch": 47,
                "velocity": 80,
                "duration": 0.2,
                "tempo": 120.0
            },
            {
                "start_time": 36.3931818,
                "end_time": 36.5977273,
                "pitch": 49,
                "velocity": 80,
                "duration": 0.2045455,
                "tempo": 120.0
            },
            {
                "start_time": 36.6659091,
                "end_time": 36.8704545,
                "pitch": 44,
                "velocity": 80,
                "duration": 0.2045455,
                "tempo": 120.0
            },
            {
                "start_time": 36.9386364,
                "end_time": 37.1386364,
                "pitch": 53,
                "velocity": 80,
                "duration": 0.2,
                "tempo": 120.0
            },
            {
                "start_time": 37.2045455,
                "end_time": 37.4045455,
                "pitch": 44,
                "velocity": 80,
                "duration": 0.2,
                "tempo": 120.0
            },
            {
                "start_time": 37.4727273,
                "end_time": 37.675,
                "pitch": 49,
                "velocity": 80,
                "duration": 0.2022727,
                "tempo": 120.0
            },
            {
                "start_time": 37.7431818,
                "end_time": 37.9477273,
                "pitch": 46,
                "velocity": 80,
                "duration": 0.2045455,
                "tempo": 120.0
            },
            {
                "start_time": 38.0159091,
                "end_time": 38.2159091,
                "pitch": 53,
                "velocity": 80,
                "duration": 0.2,
                "tempo": 120.0
            },
            {
                "start_time": 38.2840909,
                "end_time": 38.4840909,
                "pitch": 44,
                "velocity": 80,
                "duration": 0.2,
                "tempo": 120.0
            },
            {
                "start_time": 38.55,
                "end_time": 38.75,
                "pitch": 51,
                "velocity": 80,
                "duration": 0.2,
                "tempo": 120.0
            },
            {
                "start_time": 38.8181818,
                "end_time": 39.0181818,
                "pitch": 47,
                "velocity": 80,
                "duration": 0.2,
                "tempo": 120.0
            },
            {
                "start_time": 39.0840909,
                "end_time": 39.2863636,
                "pitch": 54,
                "velocity": 80,
                "duration": 0.2022727,
                "tempo": 120.0
            },
            {
                "start_time": 39.3522727,
                "end_time": 39.5522727,
                "pitch": 47,
                "velocity": 80,
                "duration": 0.2,
                "tempo": 120.0
            },
            {
                "start_time": 39.6204545,
                "end_time": 39.8227273,
                "pitch": 49,
                "velocity": 80,
                "duration": 0.2022727,
                "tempo": 120.0
            },
            {
                "start_time": 39.8909091,
                "end_time": 40.0954545,
                "pitch": 44,
                "velocity": 80,
                "duration": 0.2045455,
                "tempo": 120.0
            },
            {
                "start_time": 40.1636364,
                "end_time": 40.3636364,
                "pitch": 53,
                "velocity": 80,
                "duration": 0.2,
                "tempo": 120.0
            },
            {
                "start_time": 40.4295455,
                "end_time": 40.6318182,
                "pitch": 44,
                "velocity": 80,
                "duration": 0.2022727,
                "tempo": 120.0
            },
            {
                "start_time": 40.6977273,
                "end_time": 40.9022727,
                "pitch": 49,
                "velocity": 80,
                "duration": 0.2045455,
                "tempo": 120.0
            },
            {
                "start_time": 40.9704545,
                "end_time": 41.1727273,
                "pitch": 46,
                "velocity": 80,
                "duration": 0.2022727,
                "tempo": 120.0
            },
            {
                "start_time": 41.2409091,
                "end_time": 41.4431818,
                "pitch": 54,
                "velocity": 80,
                "duration": 0.2022727,
                "tempo": 120.0
            },
            {
                "start_time": 41.5090909,
                "end_time": 41.7090909,
                "pitch": 46,
                "velocity": 80,
                "duration": 0.2,
                "tempo": 120.0
            },
            {
                "start_time": 41.775,
                "end_time": 41.9772727,
                "pitch": 46,
                "velocity": 80,
                "duration": 0.2022727,
                "tempo": 120.0
            },
            {
                "start_time": 42.0431818,
                "end_time": 42.2431818,
                "pitch": 44,
                "velocity": 80,
                "duration": 0.2,
                "tempo": 120.0
            },
            {
                "start_time": 42.3113636,
                "end_time": 42.5113636,
                "pitch": 42,
                "velocity": 80,
                "duration": 0.2,
                "tempo": 120.0
            },
            {
                "start_time": 42.5772727,
                "end_time": 42.7772727,
                "pitch": 41,
                "velocity": 80,
                "duration": 0.2,
                "tempo": 120.0
            },
            {
                "start_time": 42.8454545,
                "end_time": 43.0477273,
                "pitch": 51,
                "velocity": 80,
                "duration": 0.2022727,
                "tempo": 120.0
            },
            {
                "start_time": 43.1159091,
                "end_time": 43.3204545,
                "pitch": 46,
                "velocity": 80,
                "duration": 0.2045455,
                "tempo": 120.0
            },
            {
                "start_time": 43.3886364,
                "end_time": 43.5886364,
                "pitch": 54,
                "velocity": 80,
                "duration": 0.2,
                "tempo": 120.0
            },
            {
                "start_time": 43.6568182,
                "end_time": 43.8568182,
                "pitch": 46,
                "velocity": 80,
                "duration": 0.2,
                "tempo": 120.0
            },
            {
                "start_time": 43.9227273,
                "end_time": 44.1272727,
                "pitch": 51,
                "velocity": 80,
                "duration": 0.2045455,
                "tempo": 120.0
            },
            {
                "start_time": 44.1954545,
                "end_time": 44.4,
                "pitch": 47,
                "velocity": 80,
                "duration": 0.2045455,
                "tempo": 120.0
            },
            {
                "start_time": 44.4659091,
                "end_time": 44.6681818,
                "pitch": 54,
                "velocity": 80,
                "duration": 0.2022727,
                "tempo": 120.0
            },
            {
                "start_time": 44.7340909,
                "end_time": 44.9340909,
                "pitch": 47,
                "velocity": 80,
                "duration": 0.2,
                "tempo": 120.0
            },
            {
                "start_time": 45.0022727,
                "end_time": 45.2022727,
                "pitch": 49,
                "velocity": 80,
                "duration": 0.2,
                "tempo": 120.0
            },
            {
                "start_time": 45.2681818,
                "end_time": 45.4681818,
                "pitch": 44,
                "velocity": 80,
                "duration": 0.2,
                "tempo": 120.0
            },
            {
                "start_time": 45.5363636,
                "end_time": 45.7363636,
                "pitch": 53,
                "velocity": 80,
                "duration": 0.2,
                "tempo": 120.0
            },
            {
                "start_time": 45.8022727,
                "end_time": 46.0045455,
                "pitch": 54,
                "velocity": 80,
                "duration": 0.2022727,
                "tempo": 120.0
            },
            {
                "start_time": 46.0704545,
                "end_time": 46.275,
                "pitch": 54,
                "velocity": 80,
                "duration": 0.2045455,
                "tempo": 120.0
            },
            {
                "start_time": 46.3431818,
                "end_time": 46.5454545,
                "pitch": 49,
                "velocity": 80,
                "duration": 0.2022727,
                "tempo": 120.0
            },
            {
                "start_time": 46.6136364,
                "end_time": 46.8136364,
                "pitch": 47,
                "velocity": 80,
                "duration": 0.2,
                "tempo": 120.0
            },
            {
                "start_time": 46.8818182,
                "end_time": 47.0818182,
                "pitch": 46,
                "velocity": 80,
                "duration": 0.2,
                "tempo": 120.0
            },
            {
                "start_time": 47.1477273,
                "end_time": 47.35,
                "pitch": 47,
                "velocity": 80,
                "duration": 0.2022727,
                "tempo": 120.0
            },
            {
                "start_time": 47.4159091,
                "end_time": 47.6159091,
                "pitch": 42,
                "velocity": 80,
                "duration": 0.2,
                "tempo": 120.0
            },
            {
                "start_time": 47.6840909,
                "end_time": 47.8863636,
                "pitch": 51,
                "velocity": 80,
                "duration": 0.2022727,
                "tempo": 120.0
            },
            {
                "start_time": 47.9545455,
                "end_time": 48.1590909,
                "pitch": 47,
                "velocity": 80,
                "duration": 0.2045455,
                "tempo": 120.0
            },
            {
                "start_time": 48.2272727,
                "end_time": 48.4272727,
                "pitch": 49,
                "velocity": 80,
                "duration": 0.2,
                "tempo": 120.0
            },
            {
                "start_time": 48.4931818,
                "end_time": 48.6954545,
                "pitch": 44,
                "velocity": 80,
                "duration": 0.2022727,
                "tempo": 120.0
            },
            {
                "start_time": 48.7613636,
                "end_time": 48.9659091,
                "pitch": 53,
                "velocity": 80,
                "duration": 0.2045455,
                "tempo": 120.0
            },
            {
                "start_time": 49.0340909,
                "end_time": 49.2363636,
                "pitch": 49,
                "velocity": 80,
                "duration": 0.2022727,
                "tempo": 120.0
            },
            {
                "start_time": 49.3045455,
                "end_time": 49.5068182,
                "pitch": 49,
                "velocity": 80,
                "duration": 0.2022727,
                "tempo": 120.0
            },
            {
                "start_time": 49.5727273,
                "end_time": 49.7727273,
                "pitch": 46,
                "velocity": 80,
                "duration": 0.2,
                "tempo": 120.0
            },
            {
                "start_time": 49.8386364,
                "end_time": 50.0409091,
                "pitch": 42,
                "velocity": 80,
                "duration": 0.2022727,
                "tempo": 120.0
            },
            {
                "start_time": 50.1068182,
                "end_time": 50.3068182,
                "pitch": 46,
                "velocity": 80,
                "duration": 0.2,
                "tempo": 120.0
            },
            {
                "start_time": 50.375,
                "end_time": 50.575,
                "pitch": 49,
                "velocity": 80,
                "duration": 0.2,
                "tempo": 120.0
            },
            {
                "start_time": 50.6409091,
                "end_time": 50.8409091,
                "pitch": 51,
                "velocity": 80,
                "duration": 0.2,
                "tempo": 120.0
            },
            {
                "start_time": 50.9090909,
                "end_time": 51.1090909,
                "pitch": 53,
                "velocity": 80,
                "duration": 0.2,
                "tempo": 120.0
            },
            {
                "start_time": 51.175,
                "end_time": 51.375,
                "pitch": 54,
                "velocity": 80,
                "duration": 0.2,
                "tempo": 120.0
            },
            {
                "start_time": 51.4431818,
                "end_time": 51.6477273,
                "pitch": 51,
                "velocity": 80,
                "duration": 0.2045455,
                "tempo": 120.0
            },
            {
                "start_time": 51.7136364,
                "end_time": 51.9181818,
                "pitch": 46,
                "velocity": 80,
                "duration": 0.2045455,
                "tempo": 120.0
            },
            {
                "start_time": 51.9863636,
                "end_time": 52.1863636,
                "pitch": 54,
                "velocity": 80,
                "duration": 0.2,
                "tempo": 120.0
            },
            {
                "start_time": 52.2545455,
                "end_time": 52.4545455,
                "pitch": 46,
                "velocity": 80,
                "duration": 0.2,
                "tempo": 120.0
            },
            {
                "start_time": 52.5204545,
                "end_time": 52.725,
                "pitch": 51,
                "velocity": 80,
                "duration": 0.2045455,
                "tempo": 120.0
            },
            {
                "start_time": 52.7931818,
                "end_time": 52.9977273,
                "pitch": 47,
                "velocity": 80,
                "duration": 0.2045455,
                "tempo": 120.0
            },
            {
                "start_time": 53.0659091,
                "end_time": 53.2659091,
                "pitch": 54,
                "velocity": 80,
                "duration": 0.2,
                "tempo": 120.0
            },
            {
                "start_time": 53.3318182,
                "end_time": 53.5318182,
                "pitch": 47,
                "velocity": 80,
                "duration": 0.2,
                "tempo": 120.0
            },
            {
                "start_time": 53.6,
                "end_time": 53.8,
                "pitch": 49,
                "velocity": 80,
                "duration": 0.2,
                "tempo": 120.0
            },
            {
                "start_time": 53.8659091,
                "end_time": 54.0681818,
                "pitch": 44,
                "velocity": 80,
                "duration": 0.2022727,
                "tempo": 120.0
            },
            {
                "start_time": 54.1340909,
                "end_time": 54.3386364,
                "pitch": 53,
                "velocity": 80,
                "duration": 0.2045455,
                "tempo": 120.0
            },
            {
                "start_time": 54.4068182,
                "end_time": 54.6090909,
                "pitch": 44,
                "velocity": 80,
                "duration": 0.2022727,
                "tempo": 120.0
            },
            {
                "start_time": 54.6772727,
                "end_time": 54.8772727,
                "pitch": 49,
                "velocity": 80,
                "duration": 0.2,
                "tempo": 120.0
            },
            {
                "start_time": 54.9454545,
                "end_time": 55.1454545,
                "pitch": 46,
                "velocity": 80,
                "duration": 0.2,
                "tempo": 120.0
            },
            {
                "start_time": 55.2113636,
                "end_time": 55.4136364,
                "pitch": 53,
                "velocity": 80,
                "duration": 0.2022727,
                "tempo": 120.0
            },
            {
                "start_time": 55.4795455,
                "end_time": 55.6795455,
                "pitch": 44,
                "velocity": 80,
                "duration": 0.2,
                "tempo": 120.0
            },
            {
                "start_time": 55.7454545,
                "end_time": 55.95,
                "pitch": 51,
                "velocity": 80,
                "duration": 0.2045455,
                "tempo": 120.0
            },
            {
                "start_time": 56.0181818,
                "end_time": 56.2227273,
                "pitch": 47,
                "velocity": 80,
                "duration": 0.2045455,
                "tempo": 120.0
            },
            {
                "start_time": 56.2909091,
                "end_time": 56.4909091,
                "pitch": 54,
                "velocity": 80,
                "duration": 0.2,
                "tempo": 120.0
            },
            {
                "start_time": 56.5568182,
                "end_time": 56.7590909,
                "pitch": 47,
                "velocity": 80,
                "duration": 0.2022727,
                "tempo": 120.0
            },
            {
                "start_time": 56.825,
                "end_time": 57.025,
                "pitch": 49,
                "velocity": 80,
                "duration": 0.2,
                "tempo": 120.0
            },
            {
                "start_time": 57.0931818,
                "end_time": 57.2931818,
                "pitch": 44,
                "velocity": 80,
                "duration": 0.2,
                "tempo": 120.0
            },
            {
                "start_time": 57.3590909,
                "end_time": 57.5636364,
                "pitch": 53,
                "velocity": 80,
                "duration": 0.2045455,
                "tempo": 120.0
            },
            {
                "start_time": 57.6318182,
                "end_time": 57.8340909,
                "pitch": 44,
                "velocity": 80,
                "duration": 0.2022727,
                "tempo": 120.0
            },
            {
                "start_time": 57.9022727,
                "end_time": 58.1045455,
                "pitch": 49,
                "velocity": 80,
                "duration": 0.2022727,
                "tempo": 120.0
            },
            {
                "start_time": 58.1704545,
                "end_time": 58.3704545,
                "pitch": 46,
                "velocity": 80,
                "duration": 0.2,
                "tempo": 120.0
            },
            {
                "start_time": 58.4386364,
                "end_time": 58.6386364,
                "pitch": 54,
                "velocity": 80,
                "duration": 0.2,
                "tempo": 120.0
            },
            {
                "start_time": 58.7045455,
                "end_time": 58.9045455,
                "pitch": 46,
                "velocity": 80,
                "duration": 0.2,
                "tempo": 120.0
            },
            {
                "start_time": 58.9727273,
                "end_time": 59.1727273,
                "pitch": 46,
                "velocity": 80,
                "duration": 0.2,
                "tempo": 120.0
            },
            {
                "start_time": 59.2386364,
                "end_time": 59.4386364,
                "pitch": 44,
                "velocity": 80,
                "duration": 0.2,
                "tempo": 120.0
            },
            {
                "start_time": 59.5068182,
                "end_time": 59.7113636,
                "pitch": 42,
                "velocity": 80,
                "duration": 0.2045455,
                "tempo": 120.0
            },
            {
                "start_time": 59.7772727,
                "end_time": 59.9818182,
                "pitch": 41,
                "velocity": 80,
                "duration": 0.2045455,
                "tempo": 120.0
            },
            {
                "start_time": 60.05,
                "end_time": 60.25,
                "pitch": 51,
                "velocity": 80,
                "duration": 0.2,
                "tempo": 120.0
            },
            {
                "start_time": 60.3181818,
                "end_time": 60.5181818,
                "pitch": 46,
                "velocity": 80,
                "duration": 0.2,
                "tempo": 120.0
            },
            {
                "start_time": 60.5840909,
                "end_time": 60.7840909,
                "pitch": 54,
                "velocity": 80,
                "duration": 0.2,
                "tempo": 120.0
            },
            {
                "start_time": 60.8522727,
                "end_time": 61.0522727,
                "pitch": 46,
                "velocity": 80,
                "duration": 0.2,
                "tempo": 120.0
            },
            {
                "start_time": 61.1181818,
                "end_time": 61.3227273,
                "pitch": 51,
                "velocity": 80,
                "duration": 0.2045455,
                "tempo": 120.0
            },
            {
                "start_time": 61.3909091,
                "end_time": 61.5954545,
                "pitch": 47,
                "velocity": 80,
                "duration": 0.2045455,
                "tempo": 120.0
            },
            {
                "start_time": 61.6636364,
                "end_time": 61.8636364,
                "pitch": 54,
                "velocity": 80,
                "duration": 0.2,
                "tempo": 120.0
            },
            {
                "start_time": 61.9295455,
                "end_time": 62.1295455,
                "pitch": 47,
                "velocity": 80,
                "duration": 0.2,
                "tempo": 120.0
            },
            {
                "start_time": 62.1977273,
                "end_time": 62.3977273,
                "pitch": 49,
                "velocity": 80,
                "duration": 0.2,
                "tempo": 120.0
            },
            {
                "start_time": 62.4636364,
                "end_time": 62.6659091,
                "pitch": 44,
                "velocity": 80,
                "duration": 0.2022727,
                "tempo": 120.0
            },
            {
                "start_time": 62.7318182,
                "end_time": 62.9318182,
                "pitch": 53,
                "velocity": 80,
                "duration": 0.2,
                "tempo": 120.0
            },
            {
                "start_time": 63.0,
                "end_time": 63.2,
                "pitch": 54,
                "velocity": 80,
                "duration": 0.2,
                "tempo": 120.0
            },
            {
                "start_time": 63.2659091,
                "end_time": 63.4704545,
                "pitch": 54,
                "velocity": 80,
                "duration": 0.2045455,
                "tempo": 120.0
            },
            {
                "start_time": 63.5386364,
                "end_time": 63.7431818,
                "pitch": 49,
                "velocity": 80,
                "duration": 0.2045455,
                "tempo": 120.0
            },
            {
                "start_time": 63.8090909,
                "end_time": 64.0136364,
                "pitch": 47,
                "velocity": 80,
                "duration": 0.2045455,
                "tempo": 120.0
            },
            {
                "start_time": 64.0818182,
                "end_time": 64.2863636,
                "pitch": 46,
                "velocity": 80,
                "duration": 0.2045455,
                "tempo": 120.0
            },
            {
                "start_time": 64.3545455,
                "end_time": 64.5545455,
                "pitch": 47,
                "velocity": 80,
                "duration": 0.2,
                "tempo": 120.0
            },
            {
                "start_time": 64.6204545,
                "end_time": 64.8227273,
                "pitch": 42,
                "velocity": 80,
                "duration": 0.2022727,
                "tempo": 120.0
            },
            {
                "start_time": 64.8886364,
                "end_time": 65.0886364,
                "pitch": 51,
                "velocity": 80,
                "duration": 0.2,
                "tempo": 120.0
            },
            {
                "start_time": 65.1568182,
                "end_time": 65.3568182,
                "pitch": 47,
                "velocity": 80,
                "duration": 0.2,
                "tempo": 120.0
            },
            {
                "start_time": 65.4227273,
                "end_time": 65.6227273,
                "pitch": 49,
                "velocity": 80,
                "duration": 0.2,
                "tempo": 120.0
            },
            {
                "start_time": 65.6909091,
                "end_time": 65.8909091,
                "pitch": 44,
                "velocity": 80,
                "duration": 0.2,
                "tempo": 120.0
            },
            {
                "start_time": 65.9568182,
                "end_time": 66.1613636,
                "pitch": 53,
                "velocity": 80,
                "duration": 0.2045455,
                "tempo": 120.0
            },
            {
                "start_time": 66.2295455,
                "end_time": 66.4340909,
                "pitch": 49,
                "velocity": 80,
                "duration": 0.2045455,
                "tempo": 120.0
            },
            {
                "start_time": 66.5022727,
                "end_time": 66.7022727,
                "pitch": 49,
                "velocity": 80,
                "duration": 0.2,
                "tempo": 120.0
            },
            {
                "start_time": 66.7681818,
                "end_time": 66.9681818,
                "pitch": 46,
                "velocity": 80,
                "duration": 0.2,
                "tempo": 120.0
            },
            {
                "start_time": 67.0363636,
                "end_time": 67.2386364,
                "pitch": 42,
                "velocity": 80,
                "duration": 0.2022727,
                "tempo": 120.0
            },
            {
                "start_time": 67.3068182,
                "end_time": 67.5113636,
                "pitch": 46,
                "velocity": 80,
                "duration": 0.2045455,
                "tempo": 120.0
            },
            {
                "start_time": 67.5795455,
                "end_time": 67.7795455,
                "pitch": 49,
                "velocity": 80,
                "duration": 0.2,
                "tempo": 120.0
            },
            {
                "start_time": 67.8477273,
                "end_time": 68.0477273,
                "pitch": 51,
                "velocity": 80,
                "duration": 0.2,
                "tempo": 120.0
            },
            {
                "start_time": 68.1136364,
                "end_time": 68.3136364,
                "pitch": 53,
                "velocity": 80,
                "duration": 0.2,
                "tempo": 120.0
            },
            {
                "start_time": 68.3818182,
                "end_time": 68.6477273,
                "pitch": 54,
                "velocity": 80,
                "duration": 0.2659091,
                "tempo": 120.0
            }
        ],
        "Violin": [
            {
                "start_time": 0.0,
                "end_time": 17.0409091,
                "pitch": 39,
                "velocity": 4,
                "duration": 17.0409091,
                "tempo": 120.0
            },
            {
                "start_time": 17.0409091,
                "end_time": 17.9022727,
                "pitch": 82,
                "velocity": 127,
                "duration": 0.8613636,
                "tempo": 120.0
            },
            {
                "start_time": 17.0409091,
                "end_time": 17.9022727,
                "pitch": 82,
                "velocity": 127,
                "duration": 0.8613636,
                "tempo": 120.0
            },
            {
                "start_time": 18.1204545,
                "end_time": 18.9704545,
                "pitch": 78,
                "velocity": 127,
                "duration": 0.85,
                "tempo": 120.0
            },
            {
                "start_time": 19.1886364,
                "end_time": 19.3931818,
                "pitch": 77,
                "velocity": 127,
                "duration": 0.2045455,
                "tempo": 120.0
            },
            {
                "start_time": 19.4613636,
                "end_time": 19.6636364,
                "pitch": 78,
                "velocity": 127,
                "duration": 0.2022727,
                "tempo": 120.0
            },
            {
                "start_time": 19.7318182,
                "end_time": 19.9318182,
                "pitch": 80,
                "velocity": 127,
                "duration": 0.2,
                "tempo": 120.0
            },
            {
                "start_time": 20.0,
                "end_time": 20.2,
                "pitch": 75,
                "velocity": 127,
                "duration": 0.2,
                "tempo": 120.0
            },
            {
                "start_time": 20.2659091,
                "end_time": 20.6909091,
                "pitch": 73,
                "velocity": 127,
                "duration": 0.425,
                "tempo": 120.0
            },
            {
                "start_time": 20.8113636,
                "end_time": 21.0113636,
                "pitch": 75,
                "velocity": 127,
                "duration": 0.2,
                "tempo": 120.0
            },
            {
                "start_time": 21.0772727,
                "end_time": 21.2795455,
                "pitch": 77,
                "velocity": 127,
                "duration": 0.2022727,
                "tempo": 120.0
            },
            {
                "start_time": 21.3454545,
                "end_time": 21.7636364,
                "pitch": 78,
                "velocity": 127,
                "duration": 0.4181818,
                "tempo": 120.0
            },
            {
                "start_time": 21.8795455,
                "end_time": 22.3045455,
                "pitch": 73,
                "velocity": 127,
                "duration": 0.425,
                "tempo": 120.0
            },
            {
                "start_time": 22.4227273,
                "end_time": 22.8409091,
                "pitch": 71,
                "velocity": 127,
                "duration": 0.4181818,
                "tempo": 120.0
            },
            {
                "start_time": 22.9590909,
                "end_time": 23.1590909,
                "pitch": 70,
                "velocity": 127,
                "duration": 0.2,
                "tempo": 120.0
            },
            {
                "start_time": 23.225,
                "end_time": 23.425,
                "pitch": 68,
                "velocity": 127,
                "duration": 0.2,
                "tempo": 120.0
            },
            {
                "start_time": 23.4931818,
                "end_time": 23.9181818,
                "pitch": 70,
                "velocity": 127,
                "duration": 0.425,
                "tempo": 120.0
            },
            {
                "start_time": 24.0363636,
                "end_time": 24.4545455,
                "pitch": 71,
                "velocity": 127,
                "duration": 0.4181818,
                "tempo": 120.0
            },
            {
                "start_time": 24.5704545,
                "end_time": 25.4318182,
                "pitch": 73,
                "velocity": 127,
                "duration": 0.8613636,
                "tempo": 120.0
            },
            {
                "start_time": 25.65,
                "end_time": 26.5,
                "pitch": 82,
                "velocity": 127,
                "duration": 0.85,
                "tempo": 120.0
            },
            {
                "start_time": 26.7181818,
                "end_time": 27.1431818,
                "pitch": 78,
                "velocity": 127,
                "duration": 0.425,
                "tempo": 120.0
            },
            {
                "start_time": 27.2613636,
                "end_time": 27.4613636,
                "pitch": 80,
                "velocity": 127,
                "duration": 0.2,
                "tempo": 120.0
            },
            {
                "start_time": 27.5295455,
                "end_time": 27.7295455,
                "pitch": 82,
                "velocity": 127,
                "duration": 0.2,
                "tempo": 120.0
            },
            {
                "start_time": 27.7954545,
                "end_time": 28.0,
                "pitch": 83,
                "velocity": 127,
                "duration": 0.2045455,
                "tempo": 120.0
            },
            {
                "start_time": 28.0681818,
                "end_time": 28.2727273,
                "pitch": 82,
                "velocity": 127,
                "duration": 0.2045455,
                "tempo": 120.0
            },
            {
                "start_time": 28.3409091,
                "end_time": 28.5363636,
                "pitch": 80,
                "velocity": 127,
                "duration": 0.1954545,
                "tempo": 120.0
            },
            {
                "start_time": 28.6022727,
                "end_time": 28.8,
                "pitch": 77,
                "velocity": 127,
                "duration": 0.1977273,
                "tempo": 120.0
            },
            {
                "start_time": 28.8659091,
                "end_time": 29.2886364,
                "pitch": 78,
                "velocity": 127,
                "duration": 0.4227273,
                "tempo": 120.0
            },
            {
                "start_time": 29.4090909,
                "end_time": 29.6090909,
                "pitch": 80,
                "velocity": 127,
                "duration": 0.2,
                "tempo": 120.0
            },
            {
                "start_time": 29.675,
                "end_time": 29.8772727,
                "pitch": 78,
                "velocity": 127,
                "duration": 0.2022727,
                "tempo": 120.0
            },
            {
                "start_time": 29.9431818,
                "end_time": 30.8045455,
                "pitch": 77,
                "velocity": 127,
                "duration": 0.8613636,
                "tempo": 120.0
            },
            {
                "start_time": 31.0204545,
                "end_time": 31.4454545,
                "pitch": 75,
                "velocity": 127,
                "duration": 0.425,
                "tempo": 120.0
            },
            {
                "start_time": 31.5659091,
                "end_time": 31.9818182,
                "pitch": 77,
                "velocity": 127,
                "duration": 0.4159091,
                "tempo": 120.0
            },
            {
                "start_time": 32.1,
                "end_time": 33.8045455,
                "pitch": 78,
                "velocity": 127,
                "duration": 1.7045455,
                "tempo": 120.0
            },
            {
                "start_time": 34.2477273,
                "end_time": 34.4477273,
                "pitch": 75,
                "velocity": 127,
                "duration": 0.2,
                "tempo": 120.0
            },
            {
                "start_time": 34.5136364,
                "end_time": 34.7136364,
                "pitch": 70,
                "velocity": 127,
                "duration": 0.2,
                "tempo": 120.0
            },
            {
                "start_time": 34.7818182,
                "end_time": 34.9818182,
                "pitch": 77,
                "velocity": 127,
                "duration": 0.2,
                "tempo": 120.0
            },
            {
                "start_time": 35.0477273,
                "end_time": 35.25,
                "pitch": 70,
                "velocity": 127,
                "duration": 0.2022727,
                "tempo": 120.0
            },
            {
                "start_time": 35.3159091,
                "end_time": 35.5204545,
                "pitch": 78,
                "velocity": 127,
                "duration": 0.2045455,
                "tempo": 120.0
            },
            {
                "start_time": 35.5886364,
                "end_time": 35.7909091,
                "pitch": 70,
                "velocity": 127,
                "duration": 0.2022727,
                "tempo": 120.0
            },
            {
                "start_time": 35.8590909,
                "end_time": 36.0590909,
                "pitch": 75,
                "velocity": 127,
                "duration": 0.2,
                "tempo": 120.0
            },
            {
                "start_time": 36.1272727,
                "end_time": 36.3272727,
                "pitch": 70,
                "velocity": 127,
                "duration": 0.2,
                "tempo": 120.0
            },
            {
                "start_time": 36.3931818,
                "end_time": 36.5977273,
                "pitch": 78,
                "velocity": 127,
                "duration": 0.2045455,
                "tempo": 120.0
            },
            {
                "start_time": 36.6659091,
                "end_time": 36.8704545,
                "pitch": 73,
                "velocity": 127,
                "duration": 0.2045455,
                "tempo": 120.0
            },
            {
                "start_time": 36.9386364,
                "end_time": 37.1386364,
                "pitch": 80,
                "velocity": 127,
                "duration": 0.2,
                "tempo": 120.0
            },
            {
                "start_time": 37.2045455,
                "end_time": 37.4045455,
                "pitch": 73,
                "velocity": 127,
                "duration": 0.2,
                "tempo": 120.0
            },
            {
                "start_time": 37.4727273,
                "end_time": 37.675,
                "pitch": 82,
                "velocity": 127,
                "duration": 0.2022727,
                "tempo": 120.0
            },
            {
                "start_time": 37.7431818,
                "end_time": 37.9477273,
                "pitch": 73,
                "velocity": 127,
                "duration": 0.2045455,
                "tempo": 120.0
            },
            {
                "start_time": 38.0159091,
                "end_time": 38.2159091,
                "pitch": 78,
                "velocity": 127,
                "duration": 0.2,
                "tempo": 120.0
            },
            {
                "start_time": 38.2840909,
                "end_time": 38.4840909,
                "pitch": 73,
                "velocity": 127,
                "duration": 0.2,
                "tempo": 120.0
            },
            {
                "start_time": 38.55,
                "end_time": 38.9681818,
                "pitch": 75,
                "velocity": 127,
                "duration": 0.4181818,
                "tempo": 120.0
            },
            {
                "start_time": 39.0840909,
                "end_time": 39.2863636,
                "pitch": 77,
                "velocity": 127,
                "duration": 0.2022727,
                "tempo": 120.0
            },
            {
                "start_time": 39.3522727,
                "end_time": 39.5522727,
                "pitch": 78,
                "velocity": 127,
                "duration": 0.2,
                "tempo": 120.0
            },
            {
                "start_time": 39.6204545,
                "end_time": 39.7204545,
                "pitch": 77,
                "velocity": 127,
                "duration": 0.1,
                "tempo": 120.0
            },
            {
                "start_time": 39.7545455,
                "end_time": 39.8568182,
                "pitch": 78,
                "velocity": 127,
                "duration": 0.1022727,
                "tempo": 120.0
            },
            {
                "start_time": 39.8909091,
                "end_time": 39.9931818,
                "pitch": 77,
                "velocity": 127,
                "duration": 0.1022727,
                "tempo": 120.0
            },
            {
                "start_time": 40.0272727,
                "end_time": 40.1295455,
                "pitch": 78,
                "velocity": 127,
                "duration": 0.1022727,
                "tempo": 120.0
            },
            {
                "start_time": 40.1636364,
                "end_time": 40.3636364,
                "pitch": 77,
                "velocity": 127,
                "duration": 0.2,
                "tempo": 120.0
            },
            {
                "start_time": 40.4295455,
                "end_time": 40.6318182,
                "pitch": 75,
                "velocity": 127,
                "duration": 0.2022727,
                "tempo": 120.0
            },
            {
                "start_time": 40.6977273,
                "end_time": 41.1227273,
                "pitch": 73,
                "velocity": 127,
                "duration": 0.425,
                "tempo": 120.0
            },
            {
                "start_time": 41.2409091,
                "end_time": 41.6590909,
                "pitch": 71,
                "velocity": 127,
                "duration": 0.4181818,
                "tempo": 120.0
            },
            {
                "start_time": 41.775,
                "end_time": 42.1931818,
                "pitch": 70,
                "velocity": 127,
                "duration": 0.4181818,
                "tempo": 120.0
            },
            {
                "start_time": 42.8454545,
                "end_time": 43.0477273,
                "pitch": 75,
                "velocity": 127,
                "duration": 0.2022727,
                "tempo": 120.0
            },
            {
                "start_time": 43.1159091,
                "end_time": 43.3204545,
                "pitch": 70,
                "velocity": 127,
                "duration": 0.2045455,
                "tempo": 120.0
            },
            {
                "start_time": 43.3886364,
                "end_time": 43.5886364,
                "pitch": 77,
                "velocity": 127,
                "duration": 0.2,
                "tempo": 120.0
            },
            {
                "start_time": 43.6568182,
                "end_time": 43.8568182,
                "pitch": 70,
                "velocity": 127,
                "duration": 0.2,
                "tempo": 120.0
            },
            {
                "start_time": 43.9227273,
                "end_time": 44.1272727,
                "pitch": 78,
                "velocity": 127,
                "duration": 0.2045455,
                "tempo": 120.0
            },
            {
                "start_time": 44.1954545,
                "end_time": 44.4,
                "pitch": 70,
                "velocity": 127,
                "duration": 0.2045455,
                "tempo": 120.0
            },
            {
                "start_time": 44.4659091,
                "end_time": 44.6681818,
                "pitch": 75,
                "velocity": 127,
                "duration": 0.2022727,
                "tempo": 120.0
            },
            {
                "start_time": 44.7340909,
                "end_time": 44.9340909,
                "pitch": 70,
                "velocity": 127,
                "duration": 0.2,
                "tempo": 120.0
            },
            {
                "start_time": 45.0022727,
                "end_time": 45.2022727,
                "pitch": 78,
                "velocity": 127,
                "duration": 0.2,
                "tempo": 120.0
            },
            {
                "start_time": 45.2681818,
                "end_time": 45.4681818,
                "pitch": 73,
                "velocity": 127,
                "duration": 0.2,
                "tempo": 120.0
            },
            {
                "start_time": 45.5363636,
                "end_time": 45.7363636,
                "pitch": 80,
                "velocity": 127,
                "duration": 0.2,
                "tempo": 120.0
            },
            {
                "start_time": 45.8022727,
                "end_time": 46.0045455,
                "pitch": 73,
                "velocity": 127,
                "duration": 0.2022727,
                "tempo": 120.0
            },
            {
                "start_time": 46.0704545,
                "end_time": 46.275,
                "pitch": 82,
                "velocity": 127,
                "duration": 0.2045455,
                "tempo": 120.0
            },
            {
                "start_time": 46.3431818,
                "end_time": 46.5454545,
                "pitch": 73,
                "velocity": 127,
                "duration": 0.2022727,
                "tempo": 120.0
            },
            {
                "start_time": 46.6136364,
                "end_time": 46.8136364,
                "pitch": 83,
                "velocity": 127,
                "duration": 0.2,
                "tempo": 120.0
            },
            {
                "start_time": 46.8818182,
                "end_time": 47.0818182,
                "pitch": 82,
                "velocity": 127,
                "duration": 0.2,
                "tempo": 120.0
            },
            {
                "start_time": 47.1477273,
                "end_time": 47.5659091,
                "pitch": 80,
                "velocity": 127,
                "duration": 0.4181818,
                "tempo": 120.0
            },
            {
                "start_time": 47.6840909,
                "end_time": 47.8863636,
                "pitch": 80,
                "velocity": 127,
                "duration": 0.2022727,
                "tempo": 120.0
            },
            {
                "start_time": 47.9545455,
                "end_time": 48.1590909,
                "pitch": 78,
                "velocity": 127,
                "duration": 0.2045455,
                "tempo": 120.0
            },
            {
                "start_time": 48.2272727,
                "end_time": 48.4272727,
                "pitch": 77,
                "velocity": 127,
                "duration": 0.2,
                "tempo": 120.0
            },
            {
                "start_time": 48.4931818,
                "end_time": 48.6954545,
                "pitch": 73,
                "velocity": 127,
                "duration": 0.2022727,
                "tempo": 120.0
            },
            {
                "start_time": 48.7613636,
                "end_time": 48.9659091,
                "pitch": 82,
                "velocity": 127,
                "duration": 0.2045455,
                "tempo": 120.0
            },
            {
                "start_time": 49.0340909,
                "end_time": 49.2363636,
                "pitch": 77,
                "velocity": 127,
                "duration": 0.2022727,
                "tempo": 120.0
            },
            {
                "start_time": 49.3045455,
                "end_time": 51.0090909,
                "pitch": 78,
                "velocity": 127,
                "duration": 1.7045455,
                "tempo": 120.0
            },
            {
                "start_time": 51.4431818,
                "end_time": 52.3045455,
                "pitch": 66,
                "velocity": 127,
                "duration": 0.8613636,
                "tempo": 120.0
            },
            {
                "start_time": 52.5204545,
                "end_time": 52.725,
                "pitch": 78,
                "velocity": 127,
                "duration": 0.2045455,
                "tempo": 120.0
            },
            {
                "start_time": 52.7931818,
                "end_time": 52.9977273,
                "pitch": 80,
                "velocity": 127,
                "duration": 0.2045455,
                "tempo": 120.0
            },
            {
                "start_time": 53.0659091,
                "end_time": 53.2659091,
                "pitch": 82,
                "velocity": 127,
                "duration": 0.2,
                "tempo": 120.0
            },
            {
                "start_time": 53.3318182,
                "end_time": 53.5318182,
                "pitch": 78,
                "velocity": 127,
                "duration": 0.2,
                "tempo": 120.0
            },
            {
                "start_time": 53.6,
                "end_time": 54.0159091,
                "pitch": 83,
                "velocity": 127,
                "duration": 0.4159091,
                "tempo": 120.0
            },
            {
                "start_time": 54.1340909,
                "end_time": 54.3386364,
                "pitch": 82,
                "velocity": 127,
                "duration": 0.2045455,
                "tempo": 120.0
            },
            {
                "start_time": 54.4068182,
                "end_time": 54.6090909,
                "pitch": 80,
                "velocity": 127,
                "duration": 0.2022727,
                "tempo": 120.0
            },
            {
                "start_time": 54.6772727,
                "end_time": 55.0954545,
                "pitch": 77,
                "velocity": 127,
                "duration": 0.4181818,
                "tempo": 120.0
            },
            {
                "start_time": 55.2113636,
                "end_time": 55.4136364,
                "pitch": 78,
                "velocity": 127,
                "duration": 0.2022727,
                "tempo": 120.0
            },
            {
                "start_time": 55.4795455,
                "end_time": 55.6795455,
                "pitch": 80,
                "velocity": 127,
                "duration": 0.2,
                "tempo": 120.0
            },
            {
                "start_time": 55.7454545,
                "end_time": 56.1704545,
                "pitch": 78,
                "velocity": 127,
                "duration": 0.425,
                "tempo": 120.0
            },
            {
                "start_time": 56.2909091,
                "end_time": 56.7090909,
                "pitch": 73,
                "velocity": 127,
                "duration": 0.4181818,
                "tempo": 120.0
            },
            {
                "start_time": 56.825,
                "end_time": 57.2431818,
                "pitch": 80,
                "velocity": 127,
                "duration": 0.4181818,
                "tempo": 120.0
            },
            {
                "start_time": 57.3590909,
                "end_time": 57.7840909,
                "pitch": 73,
                "velocity": 127,
                "duration": 0.425,
                "tempo": 120.0
            },
            {
                "start_time": 57.9022727,
                "end_time": 58.3204545,
                "pitch": 82,
                "velocity": 127,
                "duration": 0.4181818,
                "tempo": 120.0
            },
            {
                "start_time": 58.4386364,
                "end_time": 58.6386364,
                "pitch": 78,
                "velocity": 127,
                "duration": 0.2,
                "tempo": 120.0
            },
            {
                "start_time": 58.7045455,
                "end_time": 58.9045455,
                "pitch": 80,
                "velocity": 127,
                "duration": 0.2,
                "tempo": 120.0
            },
            {
                "start_time": 58.9727273,
                "end_time": 59.1727273,
                "pitch": 82,
                "velocity": 127,
                "duration": 0.2,
                "tempo": 120.0
            },
            {
                "start_time": 59.2386364,
                "end_time": 59.4386364,
                "pitch": 83,
                "velocity": 127,
                "duration": 0.2,
                "tempo": 120.0
            },
            {
                "start_time": 59.5068182,
                "end_time": 59.7113636,
                "pitch": 82,
                "velocity": 127,
                "duration": 0.2045455,
                "tempo": 120.0
            },
            {
                "start_time": 59.7772727,
                "end_time": 59.9818182,
                "pitch": 77,
                "velocity": 127,
                "duration": 0.2045455,
                "tempo": 120.0
            },
            {
                "start_time": 60.05,
                "end_time": 60.9022727,
                "pitch": 66,
                "velocity": 127,
                "duration": 0.8522727,
                "tempo": 120.0
            },
            {
                "start_time": 61.1181818,
                "end_time": 61.3227273,
                "pitch": 78,
                "velocity": 127,
                "duration": 0.2045455,
                "tempo": 120.0
            },
            {
                "start_time": 61.3909091,
                "end_time": 61.5954545,
                "pitch": 80,
                "velocity": 127,
                "duration": 0.2045455,
                "tempo": 120.0
            },
            {
                "start_time": 61.6636364,
                "end_time": 61.8636364,
                "pitch": 82,
                "velocity": 127,
                "duration": 0.2,
                "tempo": 120.0
            },
            {
                "start_time": 61.9295455,
                "end_time": 62.1295455,
                "pitch": 78,
                "velocity": 127,
                "duration": 0.2,
                "tempo": 120.0
            },
            {
                "start_time": 62.1977273,
                "end_time": 62.3977273,
                "pitch": 85,
                "velocity": 127,
                "duration": 0.2,
                "tempo": 120.0
            },
            {
                "start_time": 62.4636364,
                "end_time": 62.6659091,
                "pitch": 83,
                "velocity": 127,
                "duration": 0.2022727,
                "tempo": 120.0
            },
            {
                "start_time": 62.7318182,
                "end_time": 62.9318182,
                "pitch": 82,
                "velocity": 127,
                "duration": 0.2,
                "tempo": 120.0
            },
            {
                "start_time": 63.0,
                "end_time": 63.2,
                "pitch": 83,
                "velocity": 127,
                "duration": 0.2,
                "tempo": 120.0
            },
            {
                "start_time": 63.2659091,
                "end_time": 63.6909091,
                "pitch": 82,
                "velocity": 127,
                "duration": 0.425,
                "tempo": 120.0
            },
            {
                "start_time": 63.8090909,
                "end_time": 64.0136364,
                "pitch": 80,
                "velocity": 127,
                "duration": 0.2045455,
                "tempo": 120.0
            },
            {
                "start_time": 64.0818182,
                "end_time": 64.2863636,
                "pitch": 82,
                "velocity": 127,
                "duration": 0.2045455,
                "tempo": 120.0
            },
            {
                "start_time": 64.3545455,
                "end_time": 64.7727273,
                "pitch": 80,
                "velocity": 127,
                "duration": 0.4181818,
                "tempo": 120.0
            },
            {
                "start_time": 64.8886364,
                "end_time": 65.0886364,
                "pitch": 82,
                "velocity": 127,
                "duration": 0.2,
                "tempo": 120.0
            },
            {
                "start_time": 65.1568182,
                "end_time": 65.3568182,
                "pitch": 83,
                "velocity": 127,
                "duration": 0.2,
                "tempo": 120.0
            },
            {
                "start_time": 65.4227273,
                "end_time": 65.8409091,
                "pitch": 85,
                "velocity": 127,
                "duration": 0.4181818,
                "tempo": 120.0
            },
            {
                "start_time": 65.9568182,
                "end_time": 66.1613636,
                "pitch": 87,
                "velocity": 127,
                "duration": 0.2045455,
                "tempo": 120.0
            },
            {
                "start_time": 66.2295455,
                "end_time": 66.4340909,
                "pitch": 89,
                "velocity": 127,
                "duration": 0.2045455,
                "tempo": 120.0
            },
            {
                "start_time": 66.5022727,
                "end_time": 68.2136364,
                "pitch": 90,
                "velocity": 127,
                "duration": 1.7113636,
                "tempo": 120.0
            }
        ],
        "Clarinet": [
            {
                "start_time": 23.4931818,
                "end_time": 24.3545455,
                "pitch": 58,
                "velocity": 51,
                "duration": 0.8613636,
                "tempo": 120.0
            },
            {
                "start_time": 24.5704545,
                "end_time": 24.775,
                "pitch": 58,
                "velocity": 51,
                "duration": 0.2045455,
                "tempo": 120.0
            },
            {
                "start_time": 24.8431818,
                "end_time": 25.0454545,
                "pitch": 56,
                "velocity": 51,
                "duration": 0.2022727,
                "tempo": 120.0
            },
            {
                "start_time": 25.1136364,
                "end_time": 25.3159091,
                "pitch": 54,
                "velocity": 51,
                "duration": 0.2022727,
                "tempo": 120.0
            },
            {
                "start_time": 25.3818182,
                "end_time": 25.5818182,
                "pitch": 53,
                "velocity": 51,
                "duration": 0.2,
                "tempo": 120.0
            },
            {
                "start_time": 25.65,
                "end_time": 26.5,
                "pitch": 51,
                "velocity": 51,
                "duration": 0.85,
                "tempo": 120.0
            },
            {
                "start_time": 26.7181818,
                "end_time": 27.5795455,
                "pitch": 47,
                "velocity": 51,
                "duration": 0.8613636,
                "tempo": 120.0
            },
            {
                "start_time": 27.7954545,
                "end_time": 28.4386364,
                "pitch": 49,
                "velocity": 51,
                "duration": 0.6431818,
                "tempo": 120.0
            },
            {
                "start_time": 28.6022727,
                "end_time": 28.8,
                "pitch": 53,
                "velocity": 51,
                "duration": 0.1977273,
                "tempo": 120.0
            },
            {
                "start_time": 28.8659091,
                "end_time": 29.725,
                "pitch": 54,
                "velocity": 51,
                "duration": 0.8590909,
                "tempo": 120.0
            },
            {
                "start_time": 29.9431818,
                "end_time": 30.8045455,
                "pitch": 51,
                "velocity": 51,
                "duration": 0.8613636,
                "tempo": 120.0
            },
            {
                "start_time": 31.0204545,
                "end_time": 31.4454545,
                "pitch": 53,
                "velocity": 51,
                "duration": 0.425,
                "tempo": 120.0
            },
            {
                "start_time": 31.5659091,
                "end_time": 31.7659091,
                "pitch": 51,
                "velocity": 51,
                "duration": 0.2,
                "tempo": 120.0
            },
            {
                "start_time": 31.8318182,
                "end_time": 32.0340909,
                "pitch": 53,
                "velocity": 51,
                "duration": 0.2022727,
                "tempo": 120.0
            },
            {
                "start_time": 32.1,
                "end_time": 33.8045455,
                "pitch": 54,
                "velocity": 51,
                "duration": 1.7045455,
                "tempo": 120.0
            },
            {
                "start_time": 34.2477273,
                "end_time": 35.0977273,
                "pitch": 51,
                "velocity": 51,
                "duration": 0.85,
                "tempo": 120.0
            },
            {
                "start_time": 35.3159091,
                "end_time": 35.5204545,
                "pitch": 51,
                "velocity": 51,
                "duration": 0.2045455,
                "tempo": 120.0
            },
            {
                "start_time": 35.5886364,
                "end_time": 35.7909091,
                "pitch": 49,
                "velocity": 51,
                "duration": 0.2022727,
                "tempo": 120.0
            },
            {
                "start_time": 35.8590909,
                "end_time": 36.0590909,
                "pitch": 47,
                "velocity": 51,
                "duration": 0.2,
                "tempo": 120.0
            },
            {
                "start_time": 36.1272727,
                "end_time": 36.3272727,
                "pitch": 51,
                "velocity": 51,
                "duration": 0.2,
                "tempo": 120.0
            },
            {
                "start_time": 36.3931818,
                "end_time": 36.8181818,
                "pitch": 49,
                "velocity": 51,
                "duration": 0.425,
                "tempo": 120.0
            },
            {
                "start_time": 36.9386364,
                "end_time": 37.3545455,
                "pitch": 47,
                "velocity": 51,
                "duration": 0.4159091,
                "tempo": 120.0
            },
            {
                "start_time": 37.4727273,
                "end_time": 37.8977273,
                "pitch": 46,
                "velocity": 51,
                "duration": 0.425,
                "tempo": 120.0
            },
            {
                "start_time": 38.0159091,
                "end_time": 38.2159091,
                "pitch": 47,
                "velocity": 51,
                "duration": 0.2,
                "tempo": 120.0
            },
            {
                "start_time": 38.2840909,
                "end_time": 38.4840909,
                "pitch": 49,
                "velocity": 51,
                "duration": 0.2,
                "tempo": 120.0
            },
            {
                "start_time": 38.55,
                "end_time": 38.9681818,
                "pitch": 51,
                "velocity": 51,
                "duration": 0.4181818,
                "tempo": 120.0
            },
            {
                "start_time": 39.0840909,
                "end_time": 39.2863636,
                "pitch": 47,
                "velocity": 51,
                "duration": 0.2022727,
                "tempo": 120.0
            },
            {
                "start_time": 39.3522727,
                "end_time": 39.5522727,
                "pitch": 51,
                "velocity": 51,
                "duration": 0.2,
                "tempo": 120.0
            },
            {
                "start_time": 39.6204545,
                "end_time": 39.8227273,
                "pitch": 53,
                "velocity": 51,
                "duration": 0.2022727,
                "tempo": 120.0
            },
            {
                "start_time": 39.8909091,
                "end_time": 40.0954545,
                "pitch": 51,
                "velocity": 51,
                "duration": 0.2045455,
                "tempo": 120.0
            },
            {
                "start_time": 40.1636364,
                "end_time": 40.3636364,
                "pitch": 49,
                "velocity": 51,
                "duration": 0.2,
                "tempo": 120.0
            },
            {
                "start_time": 40.4295455,
                "end_time": 40.6318182,
                "pitch": 53,
                "velocity": 51,
                "duration": 0.2022727,
                "tempo": 120.0
            },
            {
                "start_time": 40.6977273,
                "end_time": 41.1227273,
                "pitch": 54,
                "velocity": 51,
                "duration": 0.425,
                "tempo": 120.0
            },
            {
                "start_time": 41.2409091,
                "end_time": 41.6590909,
                "pitch": 56,
                "velocity": 51,
                "duration": 0.4181818,
                "tempo": 120.0
            },
            {
                "start_time": 41.775,
                "end_time": 42.6272727,
                "pitch": 58,
                "velocity": 51,
                "duration": 0.8522727,
                "tempo": 120.0
            },
            {
                "start_time": 42.8454545,
                "end_time": 43.7068182,
                "pitch": 51,
                "velocity": 51,
                "duration": 0.8613636,
                "tempo": 120.0
            },
            {
                "start_time": 43.9227273,
                "end_time": 44.1272727,
                "pitch": 51,
                "velocity": 51,
                "duration": 0.2045455,
                "tempo": 120.0
            },
            {
                "start_time": 44.1954545,
                "end_time": 44.4,
                "pitch": 49,
                "velocity": 51,
                "duration": 0.2045455,
                "tempo": 120.0
            },
            {
                "start_time": 44.4659091,
                "end_time": 44.6681818,
                "pitch": 47,
                "velocity": 51,
                "duration": 0.2022727,
                "tempo": 120.0
            },
            {
                "start_time": 44.7340909,
                "end_time": 44.9340909,
                "pitch": 51,
                "velocity": 51,
                "duration": 0.2,
                "tempo": 120.0
            },
            {
                "start_time": 45.0022727,
                "end_time": 45.4181818,
                "pitch": 49,
                "velocity": 51,
                "duration": 0.4159091,
                "tempo": 120.0
            },
            {
                "start_time": 45.5363636,
                "end_time": 45.9522727,
                "pitch": 47,
                "velocity": 51,
                "duration": 0.4159091,
                "tempo": 120.0
            },
            {
                "start_time": 46.0704545,
                "end_time": 46.4954545,
                "pitch": 46,
                "velocity": 51,
                "duration": 0.425,
                "tempo": 120.0
            },
            {
                "start_time": 46.6136364,
                "end_time": 46.8136364,
                "pitch": 47,
                "velocity": 51,
                "duration": 0.2,
                "tempo": 120.0
            },
            {
                "start_time": 46.8818182,
                "end_time": 47.0818182,
                "pitch": 49,
                "velocity": 51,
                "duration": 0.2,
                "tempo": 120.0
            },
            {
                "start_time": 47.1477273,
                "end_time": 47.5659091,
                "pitch": 51,
                "velocity": 51,
                "duration": 0.4181818,
                "tempo": 120.0
            },
            {
                "start_time": 47.6840909,
                "end_time": 47.8863636,
                "pitch": 47,
                "velocity": 51,
                "duration": 0.2022727,
                "tempo": 120.0
            },
            {
                "start_time": 47.9545455,
                "end_time": 48.1590909,
                "pitch": 51,
                "velocity": 51,
                "duration": 0.2045455,
                "tempo": 120.0
            },
            {
                "start_time": 48.2272727,
                "end_time": 48.4272727,
                "pitch": 53,
                "velocity": 51,
                "duration": 0.2,
                "tempo": 120.0
            },
            {
                "start_time": 48.4931818,
                "end_time": 48.6954545,
                "pitch": 51,
                "velocity": 51,
                "duration": 0.2022727,
                "tempo": 120.0
            },
            {
                "start_time": 48.7613636,
                "end_time": 48.9659091,
                "pitch": 49,
                "velocity": 51,
                "duration": 0.2045455,
                "tempo": 120.0
            },
            {
                "start_time": 49.0340909,
                "end_time": 49.2363636,
                "pitch": 53,
                "velocity": 51,
                "duration": 0.2022727,
                "tempo": 120.0
            },
            {
                "start_time": 49.3045455,
                "end_time": 51.0090909,
                "pitch": 54,
                "velocity": 51,
                "duration": 1.7045455,
                "tempo": 120.0
            }
        ]
    }
}