{
    "mood": "happy",
    "instruments": {
        "French Horn": [
            {
                "start_time": 6.8022727,
                "end_time": 6.9454545,
                "pitch": 84,
                "velocity": 51,
                "duration": 0.1431818,
                "tempo": 120.0
            },
            {
                "start_time": 6.9931818,
                "end_time": 7.1363636,
                "pitch": 84,
                "velocity": 51,
                "duration": 0.1431818,
                "tempo": 120.0
            },
            {
                "start_time": 7.1840909,
                "end_time": 7.3340909,
                "pitch": 83,
                "velocity": 51,
                "duration": 0.15,
                "tempo": 120.0
            },
            {
                "start_time": 7.5840909,
                "end_time": 7.7340909,
                "pitch": 84,
                "velocity": 51,
                "duration": 0.15,
                "tempo": 120.0
            },
            {
                "start_time": 7.7863636,
                "end_time": 7.9363636,
                "pitch": 84,
                "velocity": 51,
                "duration": 0.15,
                "tempo": 120.0
            },
            {
                "start_time": 7.9863636,
                "end_time": 8.1386364,
                "pitch": 86,
                "velocity": 51,
                "duration": 0.1522727,
                "tempo": 120.0
            },
            {
                "start_time": 8.3886364,
                "end_time": 8.5409091,
                "pitch": 84,
                "velocity": 51,
                "duration": 0.1522727,
                "tempo": 120.0
            },
            {
                "start_time": 8.5909091,
                "end_time": 8.7409091,
                "pitch": 83,
                "velocity": 51,
                "duration": 0.15,
                "tempo": 120.0
            },
            {
                "start_time": 8.7931818,
                "end_time": 8.9431818,
                "pitch": 84,
                "velocity": 51,
                "duration": 0.15,
                "tempo": 120.0
            },
            {
                "start_time": 9.9977273,
                "end_time": 10.1477273,
                "pitch": 84,
                "velocity": 51,
                "duration": 0.15,
                "tempo": 120.0
            },
            {
                "start_time": 10.2,
                "end_time": 10.35,
                "pitch": 84,
                "velocity": 51,
                "duration": 0.15,
                "tempo": 120.0
            },
            {
                "start_time": 10.4,
                "end_time": 10.5522727,
                "pitch": 83,
                "velocity": 51,
                "duration": 0.1522727,
                "tempo": 120.0
            },
            {
                "start_time": 10.8022727,
                "end_time": 10.9522727,
                "pitch": 84,
                "velocity": 51,
                "duration": 0.15,
                "tempo": 120.0
            },
            {
                "start_time": 11.0022727,
                "end_time": 11.1522727,
                "pitch": 84,
                "velocity": 51,
                "duration": 0.15,
                "tempo": 120.0
            },
            {
                "start_time": 11.2022727,
                "end_time": 11.3545455,
                "pitch": 79,
                "velocity": 51,
                "duration": 0.1522727,
                "tempo": 120.0
            },
            {
                "start_time": 11.6045455,
                "end_time": 11.7568182,
                "pitch": 75,
                "velocity": 51,
                "duration": 0.1522727,
                "tempo": 120.0
            },
            {
                "start_time": 12.0090909,
                "end_time": 12.1590909,
                "pitch": 74,
                "velocity": 51,
                "duration": 0.15,
                "tempo": 120.0
            },
            {
                "start_time": 12.4113636,
                "end_time": 12.5613636,
                "pitch": 79,
                "velocity": 51,
                "duration": 0.15,
                "tempo": 120.0
            },
            {
                "start_time": 13.2136364,
                "end_time": 13.3636364,
                "pitch": 84,
                "velocity": 51,
                "duration": 0.15,
                "tempo": 120.0
            },
            {
                "start_time": 13.4159091,
                "end_time": 13.5659091,
                "pitch": 84,
                "velocity": 51,
                "duration": 0.15,
                "tempo": 120.0
            },
            {
                "start_time": 13.6159091,
                "end_time": 13.7681818,
                "pitch": 83,
                "velocity": 51,
                "duration": 0.1522727,
                "tempo": 120.0
            },
            {
                "start_time": 14.0181818,
                "end_time": 14.1704545,
                "pitch": 84,
                "velocity": 51,
                "duration": 0.1522727,
                "tempo": 120.0
            },
            {
                "start_time": 14.2204545,
                "end_time": 14.3704545,
                "pitch": 84,
                "velocity": 51,
                "duration": 0.15,
                "tempo": 120.0
            },
            {
                "start_time": 14.4227273,
                "end_time": 14.5727273,
                "pitch": 86,
                "velocity": 51,
                "duration": 0.15,
                "tempo": 120.0
            },
            {
                "start_time": 14.825,
                "end_time": 14.975,
                "pitch": 84,
                "velocity": 51,
                "duration": 0.15,
                "tempo": 120.0
            },
            {
                "start_time": 15.025,
                "end_time": 15.175,
                "pitch": 83,
                "velocity": 51,
                "duration": 0.15,
                "tempo": 120.0
            },
            {
                "start_time": 15.225,
                "end_time": 15.375,
                "pitch": 84,
                "velocity": 51,
                "duration": 0.15,
                "tempo": 120.0
            },
            {
                "start_time": 16.4318182,
                "end_time": 16.5818182,
                "pitch": 84,
                "velocity": 51,
                "duration": 0.15,
                "tempo": 120.0
            },
            {
                "start_time": 16.6318182,
                "end_time": 16.7818182,
                "pitch": 84,
                "velocity": 51,
                "duration": 0.15,
                "tempo": 120.0
            },
            {
                "start_time": 16.8318182,
                "end_time": 16.9840909,
                "pitch": 83,
                "velocity": 51,
                "duration": 0.1522727,
                "tempo": 120.0
            },
            {
                "start_time": 17.2340909,
                "end_time": 17.3840909,
                "pitch": 84,
                "velocity": 51,
                "duration": 0.15,
                "tempo": 120.0
            },
            {
                "start_time": 17.4340909,
                "end_time": 17.5840909,
                "pitch": 84,
                "velocity": 51,
                "duration": 0.15,
                "tempo": 120.0
            },
            {
                "start_time": 17.6340909,
                "end_time": 17.7840909,
                "pitch": 79,
                "velocity": 51,
                "duration": 0.15,
                "tempo": 120.0
            },
            {
                "start_time": 18.0340909,
                "end_time": 18.1863636,
                "pitch": 75,
                "velocity": 51,
                "duration": 0.1522727,
                "tempo": 120.0
            },
            {
                "start_time": 18.4386364,
                "end_time": 18.5886364,
                "pitch": 74,
                "velocity": 51,
                "duration": 0.15,
                "tempo": 120.0
            },
            {
                "start_time": 18.8386364,
                "end_time": 18.9886364,
                "pitch": 72,
                "velocity": 51,
                "duration": 0.15,
                "tempo": 120.0
            },
            {
                "start_time": 19.6409091,
                "end_time": 19.7909091,
                "pitch": 81,
                "velocity": 51,
                "duration": 0.15,
                "tempo": 120.0
            },
            {
                "start_time": 19.8409091,
                "end_time": 19.9909091,
                "pitch": 81,
                "velocity": 51,
                "duration": 0.15,
                "tempo": 120.0
            },
            {
                "start_time": 20.0409091,
                "end_time": 20.1909091,
                "pitch": 80,
                "velocity": 51,
                "duration": 0.15,
                "tempo": 120.0
            },
            {
                "start_time": 20.4431818,
                "end_time": 20.5931818,
                "pitch": 81,
                "velocity": 51,
                "duration": 0.15,
                "tempo": 120.0
            },
            {
                "start_time": 20.6431818,
                "end_time": 20.7931818,
                "pitch": 81,
                "velocity": 51,
                "duration": 0.15,
                "tempo": 120.0
            },
            {
                "start_time": 20.8431818,
                "end_time": 20.9931818,
                "pitch": 83,
                "velocity": 51,
                "duration": 0.15,
                "tempo": 120.0
            },
            {
                "start_time": 21.2454545,
                "end_time": 21.3954545,
                "pitch": 81,
                "velocity": 51,
                "duration": 0.15,
                "tempo": 120.0
            },
            {
                "start_time": 21.4454545,
                "end_time": 21.5954545,
                "pitch": 80,
                "velocity": 51,
                "duration": 0.15,
                "tempo": 120.0
            },
            {
                "start_time": 21.6454545,
                "end_time": 21.7954545,
                "pitch": 81,
                "velocity": 51,
                "duration": 0.15,
                "tempo": 120.0
            },
            {
                "start_time": 22.0454545,
                "end_time": 22.1977273,
                "pitch": 83,
                "velocity": 51,
                "duration": 0.1522727,
                "tempo": 120.0
            },
            {
                "start_time": 22.2477273,
                "end_time": 22.3977273,
                "pitch": 84,
                "velocity": 51,
                "duration": 0.15,
                "tempo": 120.0
            },
            {
                "start_time": 22.4477273,
                "end_time": 22.5977273,
                "pitch": 86,
                "velocity": 51,
                "duration": 0.15,
                "tempo": 120.0
            },
            {
                "start_time": 22.8477273,
                "end_time": 23.0,
                "pitch": 84,
                "velocity": 51,
                "duration": 0.1522727,
                "tempo": 120.0
            },
            {
                "start_time": 23.05,
                "end_time": 23.2,
                "pitch": 83,
                "velocity": 51,
                "duration": 0.15,
                "tempo": 120.0
            },
            {
                "start_time": 23.2522727,
                "end_time": 23.4022727,
                "pitch": 84,
                "velocity": 51,
                "duration": 0.15,
                "tempo": 120.0
            },
            {
                "start_time": 23.6522727,
                "end_time": 23.8022727,
                "pitch": 86,
                "velocity": 51,
                "duration": 0.15,
                "tempo": 120.0
            },
            {
                "start_time": 23.8522727,
                "end_time": 24.0022727,
                "pitch": 88,
                "velocity": 51,
                "duration": 0.15,
                "tempo": 120.0
            },
            {
                "start_time": 24.0522727,
                "end_time": 24.2022727,
                "pitch": 89,
                "velocity": 51,
                "duration": 0.15,
                "tempo": 120.0
            },
            {
                "start_time": 24.4545455,
                "end_time": 24.6045455,
                "pitch": 88,
                "velocity": 51,
                "duration": 0.15,
                "tempo": 120.0
            },
            {
                "start_time": 26.0568182,
                "end_time": 26.2068182,
                "pitch": 81,
                "velocity": 51,
                "duration": 0.15,
                "tempo": 120.0
            },
            {
                "start_time": 26.2568182,
                "end_time": 26.4090909,
                "pitch": 81,
                "velocity": 51,
                "duration": 0.1522727,
                "tempo": 120.0
            },
            {
                "start_time": 26.4590909,
                "end_time": 26.6090909,
                "pitch": 80,
                "velocity": 51,
                "duration": 0.15,
                "tempo": 120.0
            },
            {
                "start_time": 26.8590909,
                "end_time": 27.0113636,
                "pitch": 81,
                "velocity": 51,
                "duration": 0.1522727,
                "tempo": 120.0
            },
            {
                "start_time": 27.0613636,
                "end_time": 27.2113636,
                "pitch": 81,
                "velocity": 51,
                "duration": 0.15,
                "tempo": 120.0
            },
            {
                "start_time": 27.2613636,
                "end_time": 27.4113636,
                "pitch": 83,
                "velocity": 51,
                "duration": 0.15,
                "tempo": 120.0
            },
            {
                "start_time": 27.6613636,
                "end_time": 27.8113636,
                "pitch": 81,
                "velocity": 51,
                "duration": 0.15,
                "tempo": 120.0
            },
            {
                "start_time": 27.8613636,
                "end_time": 28.0113636,
                "pitch": 80,
                "velocity": 51,
                "duration": 0.15,
                "tempo": 120.0
            },
            {
                "start_time": 28.0613636,
                "end_time": 28.2136364,
                "pitch": 81,
                "velocity": 51,
                "duration": 0.1522727,
                "tempo": 120.0
            },
            {
                "start_time": 28.4636364,
                "end_time": 28.6136364,
                "pitch": 83,
                "velocity": 51,
                "duration": 0.15,
                "tempo": 120.0
            },
            {
                "start_time": 28.6636364,
                "end_time": 28.8136364,
                "pitch": 84,
                "velocity": 51,
                "duration": 0.15,
                "tempo": 120.0
            },
            {
                "start_time": 28.8636364,
                "end_time": 29.0159091,
                "pitch": 86,
                "velocity": 51,
                "duration": 0.1522727,
                "tempo": 120.0
            },
            {
                "start_time": 29.0659091,
                "end_time": 29.2159091,
                "pitch": 84,
                "velocity": 51,
                "duration": 0.15,
                "tempo": 120.0
            },
            {
                "start_time": 29.2681818,
                "end_time": 29.4181818,
                "pitch": 83,
                "velocity": 51,
                "duration": 0.15,
                "tempo": 120.0
            },
            {
                "start_time": 29.4681818,
                "end_time": 29.6181818,
                "pitch": 81,
                "velocity": 51,
                "duration": 0.15,
                "tempo": 120.0
            },
            {
                "start_time": 29.6681818,
                "end_time": 29.8181818,
                "pitch": 84,
                "velocity": 51,
                "duration": 0.15,
                "tempo": 120.0
            },
            {
                "start_time": 29.8681818,
                "end_time": 30.0181818,
                "pitch": 83,
                "velocity": 51,
                "duration": 0.15,
                "tempo": 120.0
            },
            {
                "start_time": 30.0681818,
                "end_time": 30.2181818,
                "pitch": 81,
                "velocity": 51,
                "duration": 0.15,
                "tempo": 120.0
            },
            {
                "start_time": 30.2681818,
                "end_time": 30.4204545,
                "pitch": 80,
                "velocity": 51,
                "duration": 0.1522727,
                "tempo": 120.0
            },
            {
                "start_time": 30.4704545,
                "end_time": 30.6204545,
                "pitch": 81,
                "velocity": 51,
                "duration": 0.15,
                "tempo": 120.0
            },
            {
                "start_time": 32.0886364,
                "end_time": 32.2272727,
                "pitch": 72,
                "velocity": 51,
                "duration": 0.1386364,
                "tempo": 120.0
            },
            {
                "start_time": 32.2772727,
                "end_time": 32.4318182,
                "pitch": 63,
                "velocity": 51,
                "duration": 0.1545455,
                "tempo": 120.0
            },
            {
                "start_time": 32.4840909,
                "end_time": 32.6295455,
                "pitch": 79,
                "velocity": 51,
                "duration": 0.1454545,
                "tempo": 120.0
            },
            {
                "start_time": 32.6795455,
                "end_time": 32.8272727,
                "pitch": 84,
                "velocity": 51,
                "duration": 0.1477273,
                "tempo": 120.0
            },
            {
                "start_time": 32.875,
                "end_time": 33.5090909,
                "pitch": 83,
                "velocity": 51,
                "duration": 0.6340909,
                "tempo": 120.0
            },
            {
                "start_time": 33.675,
                "end_time": 33.825,
                "pitch": 72,
                "velocity": 51,
                "duration": 0.15,
                "tempo": 120.0
            },
            {
                "start_time": 33.875,
                "end_time": 34.025,
                "pitch": 63,
                "velocity": 51,
                "duration": 0.15,
                "tempo": 120.0
            },
            {
                "start_time": 34.075,
                "end_time": 34.225,
                "pitch": 79,
                "velocity": 51,
                "duration": 0.15,
                "tempo": 120.0
            },
            {
                "start_time": 34.275,
                "end_time": 34.425,
                "pitch": 84,
                "velocity": 51,
                "duration": 0.15,
                "tempo": 120.0
            },
            {
                "start_time": 34.475,
                "end_time": 35.1113636,
                "pitch": 83,
                "velocity": 51,
                "duration": 0.6363636,
                "tempo": 120.0
            },
            {
                "start_time": 35.2772727,
                "end_time": 35.4272727,
                "pitch": 67,
                "velocity": 51,
                "duration": 0.15,
                "tempo": 120.0
            },
            {
                "start_time": 35.4772727,
                "end_time": 35.6272727,
                "pitch": 72,
                "velocity": 51,
                "duration": 0.15,
                "tempo": 120.0
            },
            {
                "start_time": 35.6772727,
                "end_time": 35.8272727,
                "pitch": 75,
                "velocity": 51,
                "duration": 0.15,
                "tempo": 120.0
            },
            {
                "start_time": 35.8772727,
                "end_time": 36.0272727,
                "pitch": 79,
                "velocity": 51,
                "duration": 0.15,
                "tempo": 120.0
            },
            {
                "start_time": 36.0772727,
                "end_time": 36.2272727,
                "pitch": 77,
                "velocity": 51,
                "duration": 0.15,
                "tempo": 120.0
            },
            {
                "start_time": 36.4772727,
                "end_time": 36.6295455,
                "pitch": 74,
                "velocity": 51,
                "duration": 0.1522727,
                "tempo": 120.0
            },
            {
                "start_time": 36.8818182,
                "end_time": 36.9818182,
                "pitch": 75,
                "velocity": 51,
                "duration": 0.1,
                "tempo": 120.0
            },
            {
                "start_time": 37.0136364,
                "end_time": 37.1136364,
                "pitch": 79,
                "velocity": 51,
                "duration": 0.1,
                "tempo": 120.0
            },
            {
                "start_time": 37.1477273,
                "end_time": 37.2477273,
                "pitch": 84,
                "velocity": 51,
                "duration": 0.1,
                "tempo": 120.0
            },
            {
                "start_time": 37.2818182,
                "end_time": 37.3818182,
                "pitch": 79,
                "velocity": 51,
                "duration": 0.1,
                "tempo": 120.0
            },
            {
                "start_time": 37.4136364,
                "end_time": 37.5136364,
                "pitch": 75,
                "velocity": 51,
                "duration": 0.1,
                "tempo": 120.0
            },
            {
                "start_time": 37.5477273,
                "end_time": 37.6477273,
                "pitch": 72,
                "velocity": 51,
                "duration": 0.1,
                "tempo": 120.0
            },
            {
                "start_time": 37.6818182,
                "end_time": 37.7636364,
                "pitch": 71,
                "velocity": 51,
                "duration": 0.0818182,
                "tempo": 120.0
            },
            {
                "start_time": 37.7818182,
                "end_time": 37.8636364,
                "pitch": 72,
                "velocity": 51,
                "duration": 0.0818182,
                "tempo": 120.0
            },
            {
                "start_time": 37.8818182,
                "end_time": 37.9636364,
                "pitch": 74,
                "velocity": 51,
                "duration": 0.0818182,
                "tempo": 120.0
            },
            {
                "start_time": 37.9818182,
                "end_time": 38.0636364,
                "pitch": 75,
                "velocity": 51,
                "duration": 0.0818182,
                "tempo": 120.0
            },
            {
                "start_time": 38.0818182,
                "end_time": 38.1636364,
                "pitch": 74,
                "velocity": 51,
                "duration": 0.0818182,
                "tempo": 120.0
            },
            {
                "start_time": 38.1818182,
                "end_time": 38.2636364,
                "pitch": 72,
                "velocity": 51,
                "duration": 0.0818182,
                "tempo": 120.0
            },
            {
                "start_time": 38.2818182,
                "end_time": 38.3636364,
                "pitch": 71,
                "velocity": 51,
                "duration": 0.0818182,
                "tempo": 120.0
            },
            {
                "start_time": 38.3818182,
                "end_time": 38.4636364,
                "pitch": 68,
                "velocity": 51,
                "duration": 0.0818182,
                "tempo": 120.0
            },
            {
                "start_time": 38.4818182,
                "end_time": 38.5818182,
                "pitch": 79,
                "velocity": 51,
                "duration": 0.1,
                "tempo": 120.0
            },
            {
                "start_time": 38.6159091,
                "end_time": 38.7159091,
                "pitch": 78,
                "velocity": 51,
                "duration": 0.1,
                "tempo": 120.0
            },
            {
                "start_time": 38.75,
                "end_time": 38.85,
                "pitch": 79,
                "velocity": 51,
                "duration": 0.1,
                "tempo": 120.0
            },
            {
                "start_time": 38.8840909,
                "end_time": 38.9840909,
                "pitch": 78,
                "velocity": 51,
                "duration": 0.1,
                "tempo": 120.0
            },
            {
                "start_time": 39.0159091,
                "end_time": 39.1159091,
                "pitch": 79,
                "velocity": 51,
                "duration": 0.1,
                "tempo": 120.0
            },
            {
                "start_time": 39.15,
                "end_time": 39.25,
                "pitch": 78,
                "velocity": 51,
                "duration": 0.1,
                "tempo": 120.0
            },
            {
                "start_time": 39.2840909,
                "end_time": 39.6,
                "pitch": 77,
                "velocity": 51,
                "duration": 0.3159091,
                "tempo": 120.0
            },
            {
                "start_time": 39.6840909,
                "end_time": 40.0,
                "pitch": 75,
                "velocity": 51,
                "duration": 0.3159091,
                "tempo": 120.0
            },
            {
                "start_time": 40.0840909,
                "end_time": 40.1659091,
                "pitch": 87,
                "velocity": 51,
                "duration": 0.0818182,
                "tempo": 120.0
            },
            {
                "start_time": 40.1840909,
                "end_time": 40.2659091,
                "pitch": 86,
                "velocity": 51,
                "duration": 0.0818182,
                "tempo": 120.0
            },
            {
                "start_time": 40.2840909,
                "end_time": 40.3659091,
                "pitch": 84,
                "velocity": 51,
                "duration": 0.0818182,
                "tempo": 120.0
            },
            {
                "start_time": 40.3840909,
                "end_time": 40.4659091,
                "pitch": 83,
                "velocity": 51,
                "duration": 0.0818182,
                "tempo": 120.0
            },
            {
                "start_time": 40.4840909,
                "end_time": 40.5681818,
                "pitch": 80,
                "velocity": 51,
                "duration": 0.0840909,
                "tempo": 120.0
            },
            {
                "start_time": 40.5840909,
                "end_time": 40.6681818,
                "pitch": 79,
                "velocity": 51,
                "duration": 0.0840909,
                "tempo": 120.0
            },
            {
                "start_time": 40.6840909,
                "end_time": 40.7681818,
                "pitch": 77,
                "velocity": 51,
                "duration": 0.0840909,
                "tempo": 120.0
            },
            {
                "start_time": 40.7863636,
                "end_time": 40.8704545,
                "pitch": 75,
                "velocity": 51,
                "duration": 0.0840909,
                "tempo": 120.0
            },
            {
                "start_time": 40.8863636,
                "end_time": 41.2022727,
                "pitch": 74,
                "velocity": 51,
                "duration": 0.3159091,
                "tempo": 120.0
            },
            {
                "start_time": 41.2863636,
                "end_time": 41.6022727,
                "pitch": 62,
                "velocity": 51,
                "duration": 0.3159091,
                "tempo": 120.0
            },
            {
                "start_time": 41.6863636,
                "end_time": 41.8363636,
                "pitch": 79,
                "velocity": 51,
                "duration": 0.15,
                "tempo": 120.0
            },
            {
                "start_time": 41.8863636,
                "end_time": 42.0363636,
                "pitch": 72,
                "velocity": 51,
                "duration": 0.15,
                "tempo": 120.0
            },
            {
                "start_time": 42.0863636,
                "end_time": 42.2363636,
                "pitch": 75,
                "velocity": 51,
                "duration": 0.15,
                "tempo": 120.0
            },
            {
                "start_time": 42.2863636,
                "end_time": 42.4363636,
                "pitch": 79,
                "velocity": 51,
                "duration": 0.15,
                "tempo": 120.0
            },
            {
                "start_time": 42.4863636,
                "end_time": 42.6363636,
                "pitch": 80,
                "velocity": 51,
                "duration": 0.15,
                "tempo": 120.0
            },
            {
                "start_time": 42.6886364,
                "end_time": 42.8386364,
                "pitch": 74,
                "velocity": 51,
                "duration": 0.15,
                "tempo": 120.0
            },
            {
                "start_time": 42.8886364,
                "end_time": 43.0386364,
                "pitch": 77,
                "velocity": 51,
                "duration": 0.15,
                "tempo": 120.0
            },
            {
                "start_time": 43.0886364,
                "end_time": 43.2386364,
                "pitch": 80,
                "velocity": 51,
                "duration": 0.15,
                "tempo": 120.0
            },
            {
                "start_time": 43.2886364,
                "end_time": 43.4386364,
                "pitch": 84,
                "velocity": 51,
                "duration": 0.15,
                "tempo": 120.0
            },
            {
                "start_time": 43.4886364,
                "end_time": 43.6386364,
                "pitch": 75,
                "velocity": 51,
                "duration": 0.15,
                "tempo": 120.0
            },
            {
                "start_time": 43.6886364,
                "end_time": 43.8386364,
                "pitch": 79,
                "velocity": 51,
                "duration": 0.15,
                "tempo": 120.0
            },
            {
                "start_time": 43.8886364,
                "end_time": 44.0386364,
                "pitch": 84,
                "velocity": 51,
                "duration": 0.15,
                "tempo": 120.0
            },
            {
                "start_time": 44.0886364,
                "end_time": 44.4045455,
                "pitch": 83,
                "velocity": 51,
                "duration": 0.3159091,
                "tempo": 120.0
            },
            {
                "start_time": 44.4886364,
                "end_time": 44.6409091,
                "pitch": 86,
                "velocity": 51,
                "duration": 0.1522727,
                "tempo": 120.0
            },
            {
                "start_time": 44.6909091,
                "end_time": 44.8409091,
                "pitch": 74,
                "velocity": 51,
                "duration": 0.15,
                "tempo": 120.0
            },
            {
                "start_time": 44.8909091,
                "end_time": 45.0409091,
                "pitch": 84,
                "velocity": 51,
                "duration": 0.15,
                "tempo": 120.0
            },
            {
                "start_time": 45.0909091,
                "end_time": 45.2409091,
                "pitch": 81,
                "velocity": 51,
                "duration": 0.15,
                "tempo": 120.0
            },
            {
                "start_time": 45.2909091,
                "end_time": 45.4409091,
                "pitch": 76,
                "velocity": 51,
                "duration": 0.15,
                "tempo": 120.0
            },
            {
                "start_time": 45.4909091,
                "end_time": 45.6409091,
                "pitch": 72,
                "velocity": 51,
                "duration": 0.15,
                "tempo": 120.0
            },
            {
                "start_time": 45.6909091,
                "end_time": 45.7909091,
                "pitch": 80,
                "velocity": 51,
                "duration": 0.1,
                "tempo": 120.0
            },
            {
                "start_time": 45.825,
                "end_time": 45.925,
                "pitch": 77,
                "velocity": 51,
                "duration": 0.1,
                "tempo": 120.0
            },
            {
                "start_time": 45.9590909,
                "end_time": 46.0590909,
                "pitch": 76,
                "velocity": 51,
                "duration": 0.1,
                "tempo": 120.0
            },
            {
                "start_time": 46.0909091,
                "end_time": 46.1909091,
                "pitch": 74,
                "velocity": 51,
                "duration": 0.1,
                "tempo": 120.0
            },
            {
                "start_time": 46.225,
                "end_time": 46.325,
                "pitch": 76,
                "velocity": 51,
                "duration": 0.1,
                "tempo": 120.0
            },
            {
                "start_time": 46.3590909,
                "end_time": 46.4590909,
                "pitch": 77,
                "velocity": 51,
                "duration": 0.1,
                "tempo": 120.0
            },
            {
                "start_time": 46.4909091,
                "end_time": 46.6431818,
                "pitch": 76,
                "velocity": 51,
                "duration": 0.1522727,
                "tempo": 120.0
            },
            {
                "start_time": 46.8954545,
                "end_time": 47.0454545,
                "pitch": 74,
                "velocity": 51,
                "duration": 0.15,
                "tempo": 120.0
            },
            {
                "start_time": 47.0954545,
                "end_time": 47.2454545,
                "pitch": 72,
                "velocity": 51,
                "duration": 0.15,
                "tempo": 120.0
            },
            {
                "start_time": 47.2954545,
                "end_time": 47.3954545,
                "pitch": 71,
                "velocity": 51,
                "duration": 0.1,
                "tempo": 120.0
            },
            {
                "start_time": 47.4272727,
                "end_time": 47.5272727,
                "pitch": 69,
                "velocity": 51,
                "duration": 0.1,
                "tempo": 120.0
            },
            {
                "start_time": 47.5613636,
                "end_time": 47.6613636,
                "pitch": 68,
                "velocity": 51,
                "duration": 0.1,
                "tempo": 120.0
            },
            {
                "start_time": 47.6954545,
                "end_time": 47.7954545,
                "pitch": 65,
                "velocity": 51,
                "duration": 0.1,
                "tempo": 120.0
            },
            {
                "start_time": 47.8272727,
                "end_time": 47.9272727,
                "pitch": 64,
                "velocity": 51,
                "duration": 0.1,
                "tempo": 120.0
            },
            {
                "start_time": 47.9613636,
                "end_time": 48.0613636,
                "pitch": 62,
                "velocity": 51,
                "duration": 0.1,
                "tempo": 120.0
            },
            {
                "start_time": 48.0954545,
                "end_time": 48.1954545,
                "pitch": 64,
                "velocity": 51,
                "duration": 0.1,
                "tempo": 120.0
            },
            {
                "start_time": 48.2272727,
                "end_time": 48.3272727,
                "pitch": 72,
                "velocity": 51,
                "duration": 0.1,
                "tempo": 120.0
            },
            {
                "start_time": 48.3613636,
                "end_time": 48.4613636,
                "pitch": 64,
                "velocity": 51,
                "duration": 0.1,
                "tempo": 120.0
            },
            {
                "start_time": 48.4954545,
                "end_time": 48.5954545,
                "pitch": 72,
                "velocity": 51,
                "duration": 0.1,
                "tempo": 120.0
            },
            {
                "start_time": 48.6295455,
                "end_time": 48.7295455,
                "pitch": 64,
                "velocity": 51,
                "duration": 0.1,
                "tempo": 120.0
            },
            {
                "start_time": 48.7636364,
                "end_time": 48.8636364,
                "pitch": 72,
                "velocity": 51,
                "duration": 0.1,
                "tempo": 120.0
            },
            {
                "start_time": 48.8977273,
                "end_time": 48.9977273,
                "pitch": 65,
                "velocity": 51,
                "duration": 0.1,
                "tempo": 120.0
            },
            {
                "start_time": 49.0295455,
                "end_time": 49.1295455,
                "pitch": 74,
                "velocity": 51,
                "duration": 0.1,
                "tempo": 120.0
            },
            {
                "start_time": 49.1636364,
                "end_time": 49.2636364,
                "pitch": 65,
                "velocity": 51,
                "duration": 0.1,
                "tempo": 120.0
            },
            {
                "start_time": 49.2977273,
                "end_time": 49.3977273,
                "pitch": 74,
                "velocity": 51,
                "duration": 0.1,
                "tempo": 120.0
            },
            {
                "start_time": 49.4295455,
                "end_time": 49.5295455,
                "pitch": 65,
                "velocity": 51,
                "duration": 0.1,
                "tempo": 120.0
            },
            {
                "start_time": 49.5636364,
                "end_time": 49.6636364,
                "pitch": 74,
                "velocity": 51,
                "duration": 0.1,
                "tempo": 120.0
            },
            {
                "start_time": 49.6977273,
                "end_time": 49.7977273,
                "pitch": 76,
                "velocity": 51,
                "duration": 0.1,
                "tempo": 120.0
            },
            {
                "start_time": 49.8295455,
                "end_time": 49.9295455,
                "pitch": 74,
                "velocity": 51,
                "duration": 0.1,
                "tempo": 120.0
            },
            {
                "start_time": 49.9636364,
                "end_time": 50.0636364,
                "pitch": 72,
                "velocity": 51,
                "duration": 0.1,
                "tempo": 120.0
            },
            {
                "start_time": 50.0977273,
                "end_time": 50.1977273,
                "pitch": 60,
                "velocity": 51,
                "duration": 0.1,
                "tempo": 120.0
            },
            {
                "start_time": 50.2295455,
                "end_time": 50.3295455,
                "pitch": 62,
                "velocity": 51,
                "duration": 0.1,
                "tempo": 120.0
            },
            {
                "start_time": 50.3636364,
                "end_time": 50.4636364,
                "pitch": 64,
                "velocity": 51,
                "duration": 0.1,
                "tempo": 120.0
            },
            {
                "start_time": 50.4977273,
                "end_time": 50.5818182,
                "pitch": 74,
                "velocity": 51,
                "duration": 0.0840909,
                "tempo": 120.0
            },
            {
                "start_time": 50.5977273,
                "end_time": 50.6818182,
                "pitch": 72,
                "velocity": 51,
                "duration": 0.0840909,
                "tempo": 120.0
            },
            {
                "start_time": 50.6977273,
                "end_time": 50.7818182,
                "pitch": 71,
                "velocity": 51,
                "duration": 0.0840909,
                "tempo": 120.0
            },
            {
                "start_time": 50.8,
                "end_time": 50.8818182,
                "pitch": 69,
                "velocity": 51,
                "duration": 0.0818182,
                "tempo": 120.0
            },
            {
                "start_time": 50.9,
                "end_time": 50.9840909,
                "pitch": 62,
                "velocity": 51,
                "duration": 0.0840909,
                "tempo": 120.0
            },
            {
                "start_time": 51.0,
                "end_time": 51.0840909,
                "pitch": 64,
                "velocity": 51,
                "duration": 0.0840909,
                "tempo": 120.0
            },
            {
                "start_time": 51.1,
                "end_time": 51.1840909,
                "pitch": 65,
                "velocity": 51,
                "duration": 0.0840909,
                "tempo": 120.0
            },
            {
                "start_time": 51.2,
                "end_time": 51.2840909,
                "pitch": 68,
                "velocity": 51,
                "duration": 0.0840909,
                "tempo": 120.0
            },
            {
                "start_time": 51.3,
                "end_time": 51.3840909,
                "pitch": 69,
                "velocity": 51,
                "duration": 0.0840909,
                "tempo": 120.0
            },
            {
                "start_time": 51.4,
                "end_time": 51.4840909,
                "pitch": 71,
                "velocity": 51,
                "duration": 0.0840909,
                "tempo": 120.0
            },
            {
                "start_time": 51.5,
                "end_time": 51.5840909,
                "pitch": 72,
                "velocity": 51,
                "duration": 0.0840909,
                "tempo": 120.0
            },
            {
                "start_time": 51.6,
                "end_time": 51.6840909,
                "pitch": 74,
                "velocity": 51,
                "duration": 0.0840909,
                "tempo": 120.0
            },
            {
                "start_time": 51.7,
                "end_time": 51.7840909,
                "pitch": 76,
                "velocity": 51,
                "duration": 0.0840909,
                "tempo": 120.0
            },
            {
                "start_time": 51.8,
                "end_time": 51.8840909,
                "pitch": 77,
                "velocity": 51,
                "duration": 0.0840909,
                "tempo": 120.0
            },
            {
                "start_time": 51.9,
                "end_time": 51.9840909,
                "pitch": 80,
                "velocity": 51,
                "duration": 0.0840909,
                "tempo": 120.0
            },
            {
                "start_time": 52.0,
                "end_time": 52.0840909,
                "pitch": 81,
                "velocity": 51,
                "duration": 0.0840909,
                "tempo": 120.0
            },
            {
                "start_time": 52.1,
                "end_time": 52.1840909,
                "pitch": 83,
                "velocity": 51,
                "duration": 0.0840909,
                "tempo": 120.0
            },
            {
                "start_time": 52.2,
                "end_time": 52.2840909,
                "pitch": 81,
                "velocity": 51,
                "duration": 0.0840909,
                "tempo": 120.0
            },
            {
                "start_time": 52.3,
                "end_time": 52.3840909,
                "pitch": 80,
                "velocity": 51,
                "duration": 0.0840909,
                "tempo": 120.0
            },
            {
                "start_time": 52.4,
                "end_time": 52.55,
                "pitch": 77,
                "velocity": 51,
                "duration": 0.15,
                "tempo": 120.0
            },
            {
                "start_time": 52.6,
                "end_time": 52.6840909,
                "pitch": 80,
                "velocity": 51,
                "duration": 0.0840909,
                "tempo": 120.0
            },
            {
                "start_time": 52.7,
                "end_time": 52.7840909,
                "pitch": 77,
                "velocity": 51,
                "duration": 0.0840909,
                "tempo": 120.0
            },
            {
                "start_time": 52.8022727,
                "end_time": 52.8863636,
                "pitch": 76,
                "velocity": 51,
                "duration": 0.0840909,
                "tempo": 120.0
            },
            {
                "start_time": 52.9022727,
                "end_time": 53.0022727,
                "pitch": 81,
                "velocity": 51,
                "duration": 0.1,
                "tempo": 120.0
            },
            {
                "start_time": 53.0363636,
                "end_time": 53.1363636,
                "pitch": 72,
                "velocity": 51,
                "duration": 0.1,
                "tempo": 120.0
            },
            {
                "start_time": 53.1681818,
                "end_time": 53.2681818,
                "pitch": 81,
                "velocity": 51,
                "duration": 0.1,
                "tempo": 120.0
            },
            {
                "start_time": 53.3022727,
                "end_time": 53.4022727,
                "pitch": 72,
                "velocity": 51,
                "duration": 0.1,
                "tempo": 120.0
            },
            {
                "start_time": 53.4363636,
                "end_time": 53.5363636,
                "pitch": 81,
                "velocity": 51,
                "duration": 0.1,
                "tempo": 120.0
            },
            {
                "start_time": 53.5681818,
                "end_time": 53.6681818,
                "pitch": 72,
                "velocity": 51,
                "duration": 0.1,
                "tempo": 120.0
            },
            {
                "start_time": 53.7022727,
                "end_time": 53.8522727,
                "pitch": 81,
                "velocity": 51,
                "duration": 0.15,
                "tempo": 120.0
            },
            {
                "start_time": 53.9022727,
                "end_time": 54.0522727,
                "pitch": 74,
                "velocity": 51,
                "duration": 0.15,
                "tempo": 120.0
            },
            {
                "start_time": 54.1022727,
                "end_time": 54.2522727,
                "pitch": 81,
                "velocity": 51,
                "duration": 0.15,
                "tempo": 120.0
            },
            {
                "start_time": 54.3022727,
                "end_time": 54.4522727,
                "pitch": 74,
                "velocity": 51,
                "duration": 0.15,
                "tempo": 120.0
            },
            {
                "start_time": 54.5022727,
                "end_time": 54.6022727,
                "pitch": 81,
                "velocity": 51,
                "duration": 0.1,
                "tempo": 120.0
            },
            {
                "start_time": 54.6363636,
                "end_time": 54.7363636,
                "pitch": 76,
                "velocity": 51,
                "duration": 0.1,
                "tempo": 120.0
            },
            {
                "start_time": 54.7704545,
                "end_time": 54.8704545,
                "pitch": 81,
                "velocity": 51,
                "duration": 0.1,
                "tempo": 120.0
            },
            {
                "start_time": 54.9045455,
                "end_time": 55.0045455,
                "pitch": 76,
                "velocity": 51,
                "duration": 0.1,
                "tempo": 120.0
            },
            {
                "start_time": 55.0386364,
                "end_time": 55.1386364,
                "pitch": 81,
                "velocity": 51,
                "duration": 0.1,
                "tempo": 120.0
            },
            {
                "start_time": 55.1727273,
                "end_time": 55.2727273,
                "pitch": 76,
                "velocity": 51,
                "duration": 0.1,
                "tempo": 120.0
            },
            {
                "start_time": 55.3045455,
                "end_time": 55.3886364,
                "pitch": 83,
                "velocity": 51,
                "duration": 0.0840909,
                "tempo": 120.0
            },
            {
                "start_time": 55.4045455,
                "end_time": 55.4886364,
                "pitch": 80,
                "velocity": 51,
                "duration": 0.0840909,
                "tempo": 120.0
            },
            {
                "start_time": 55.5045455,
                "end_time": 55.5886364,
                "pitch": 77,
                "velocity": 51,
                "duration": 0.0840909,
                "tempo": 120.0
            },
            {
                "start_time": 55.6045455,
                "end_time": 55.6886364,
                "pitch": 74,
                "velocity": 51,
                "duration": 0.0840909,
                "tempo": 120.0
            },
            {
                "start_time": 55.7045455,
                "end_time": 55.7886364,
                "pitch": 80,
                "velocity": 51,
                "duration": 0.0840909,
                "tempo": 120.0
            },
            {
                "start_time": 55.8045455,
                "end_time": 55.8886364,
                "pitch": 77,
                "velocity": 51,
                "duration": 0.0840909,
                "tempo": 120.0
            },
            {
                "start_time": 55.9045455,
                "end_time": 55.9886364,
                "pitch": 74,
                "velocity": 51,
                "duration": 0.0840909,
                "tempo": 120.0
            },
            {
                "start_time": 56.0045455,
                "end_time": 56.0886364,
                "pitch": 71,
                "velocity": 51,
                "duration": 0.0840909,
                "tempo": 120.0
            },
            {
                "start_time": 56.1045455,
                "end_time": 56.2545455,
                "pitch": 69,
                "velocity": 51,
                "duration": 0.15,
                "tempo": 120.0
            },
            {
                "start_time": 56.5045455,
                "end_time": 56.6568182,
                "pitch": 72,
                "velocity": 51,
                "duration": 0.1522727,
                "tempo": 120.0
            },
            {
                "start_time": 56.9068182,
                "end_time": 57.0568182,
                "pitch": 71,
                "velocity": 51,
                "duration": 0.15,
                "tempo": 120.0
            },
            {
                "start_time": 58.1068182,
                "end_time": 58.425,
                "pitch": 81,
                "velocity": 51,
                "duration": 0.3181818,
                "tempo": 120.0
            },
            {
                "start_time": 58.5068182,
                "end_time": 58.8272727,
                "pitch": 79,
                "velocity": 51,
                "duration": 0.3204545,
                "tempo": 120.0
            },
            {
                "start_time": 58.9113636,
                "end_time": 58.9613636,
                "pitch": 95,
                "velocity": 51,
                "duration": 0.05,
                "tempo": 120.0
            },
            {
                "start_time": 58.9613636,
                "end_time": 58.9931818,
                "pitch": 92,
                "velocity": 51,
                "duration": 0.0318182,
                "tempo": 120.0
            },
            {
                "start_time": 58.9931818,
                "end_time": 59.0431818,
                "pitch": 90,
                "velocity": 51,
                "duration": 0.05,
                "tempo": 120.0
            },
            {
                "start_time": 59.0431818,
                "end_time": 59.0772727,
                "pitch": 87,
                "velocity": 51,
                "duration": 0.0340909,
                "tempo": 120.0
            },
            {
                "start_time": 59.0772727,
                "end_time": 59.1113636,
                "pitch": 85,
                "velocity": 51,
                "duration": 0.0340909,
                "tempo": 120.0
            },
            {
                "start_time": 59.1113636,
                "end_time": 59.1613636,
                "pitch": 83,
                "velocity": 51,
                "duration": 0.05,
                "tempo": 120.0
            },
            {
                "start_time": 59.1613636,
                "end_time": 59.1931818,
                "pitch": 80,
                "velocity": 51,
                "duration": 0.0318182,
                "tempo": 120.0
            },
            {
                "start_time": 59.1931818,
                "end_time": 59.2431818,
                "pitch": 78,
                "velocity": 51,
                "duration": 0.05,
                "tempo": 120.0
            },
            {
                "start_time": 59.2431818,
                "end_time": 59.2772727,
                "pitch": 75,
                "velocity": 51,
                "duration": 0.0340909,
                "tempo": 120.0
            },
            {
                "start_time": 59.2772727,
                "end_time": 59.3113636,
                "pitch": 73,
                "velocity": 51,
                "duration": 0.0340909,
                "tempo": 120.0
            },
            {
                "start_time": 59.3113636,
                "end_time": 59.4613636,
                "pitch": 66,
                "velocity": 51,
                "duration": 0.15,
                "tempo": 120.0
            },
            {
                "start_time": 59.5113636,
                "end_time": 59.6613636,
                "pitch": 62,
                "velocity": 51,
                "duration": 0.15,
                "tempo": 120.0
            },
            {
                "start_time": 59.7113636,
                "end_time": 59.8613636,
                "pitch": 66,
                "velocity": 51,
                "duration": 0.15,
                "tempo": 120.0
            },
            {
                "start_time": 59.9113636,
                "end_time": 60.2272727,
                "pitch": 64,
                "velocity": 51,
                "duration": 0.3159091,
                "tempo": 120.0
            },
            {
                "start_time": 60.5113636,
                "end_time": 60.6613636,
                "pitch": 66,
                "velocity": 51,
                "duration": 0.15,
                "tempo": 120.0
            },
            {
                "start_time": 60.7113636,
                "end_time": 60.8636364,
                "pitch": 68,
                "velocity": 51,
                "duration": 0.1522727,
                "tempo": 120.0
            },
            {
                "start_time": 61.3136364,
                "end_time": 61.6295455,
                "pitch": 81,
                "velocity": 51,
                "duration": 0.3159091,
                "tempo": 120.0
            },
            {
                "start_time": 61.7136364,
                "end_time": 62.0295455,
                "pitch": 79,
                "velocity": 51,
                "duration": 0.3159091,
                "tempo": 120.0
            },
            {
                "start_time": 62.1136364,
                "end_time": 62.1636364,
                "pitch": 95,
                "velocity": 51,
                "duration": 0.05,
                "tempo": 120.0
            },
            {
                "start_time": 62.1636364,
                "end_time": 62.1954545,
                "pitch": 92,
                "velocity": 51,
                "duration": 0.0318182,
                "tempo": 120.0
            },
            {
                "start_time": 62.1954545,
                "end_time": 62.2454545,
                "pitch": 90,
                "velocity": 51,
                "duration": 0.05,
                "tempo": 120.0
            },
            {
                "start_time": 62.2454545,
                "end_time": 62.2795455,
                "pitch": 87,
                "velocity": 51,
                "duration": 0.0340909,
                "tempo": 120.0
            },
            {
                "start_time": 62.2795455,
                "end_time": 62.3136364,
                "pitch": 85,
                "velocity": 51,
                "duration": 0.0340909,
                "tempo": 120.0
            },
            {
                "start_time": 62.3136364,
                "end_time": 62.3636364,
                "pitch": 83,
                "velocity": 51,
                "duration": 0.05,
                "tempo": 120.0
            },
            {
                "start_time": 62.3636364,
                "end_time": 62.3954545,
                "pitch": 80,
                "velocity": 51,
                "duration": 0.0318182,
                "tempo": 120.0
            },
            {
                "start_time": 62.3954545,
                "end_time": 62.4454545,
                "pitch": 78,
                "velocity": 51,
                "duration": 0.05,
                "tempo": 120.0
            },
            {
                "start_time": 62.4454545,
                "end_time": 62.4795455,
                "pitch": 75,
                "velocity": 51,
                "duration": 0.0340909,
                "tempo": 120.0
            },
            {
                "start_time": 62.4795455,
                "end_time": 62.5136364,
                "pitch": 73,
                "velocity": 51,
                "duration": 0.0340909,
                "tempo": 120.0
            },
            {
                "start_time": 62.5136364,
                "end_time": 62.6636364,
                "pitch": 65,
                "velocity": 51,
                "duration": 0.15,
                "tempo": 120.0
            },
            {
                "start_time": 62.7136364,
                "end_time": 62.8659091,
                "pitch": 72,
                "velocity": 51,
                "duration": 0.1522727,
                "tempo": 120.0
            },
            {
                "start_time": 62.9159091,
                "end_time": 63.0659091,
                "pitch": 69,
                "velocity": 51,
                "duration": 0.15,
                "tempo": 120.0
            },
            {
                "start_time": 63.1159091,
                "end_time": 63.2659091,
                "pitch": 65,
                "velocity": 51,
                "duration": 0.15,
                "tempo": 120.0
            },
            {
                "start_time": 63.3159091,
                "end_time": 63.4659091,
                "pitch": 64,
                "velocity": 51,
                "duration": 0.15,
                "tempo": 120.0
            },
            {
                "start_time": 63.5159091,
                "end_time": 63.6659091,
                "pitch": 68,
                "velocity": 51,
                "duration": 0.15,
                "tempo": 120.0
            },
            {
                "start_time": 63.7159091,
                "end_time": 63.8659091,
                "pitch": 71,
                "velocity": 51,
                "duration": 0.15,
                "tempo": 120.0
            },
            {
                "start_time": 63.9159091,
                "end_time": 64.0659091,
                "pitch": 68,
                "velocity": 51,
                "duration": 0.15,
                "tempo": 120.0
            },
            {
                "start_time": 64.5159091,
                "end_time": 64.8318182,
                "pitch": 81,
                "velocity": 51,
                "duration": 0.3159091,
                "tempo": 120.0
            },
            {
                "start_time": 64.9159091,
                "end_time": 65.2340909,
                "pitch": 79,
                "velocity": 51,
                "duration": 0.3181818,
                "tempo": 120.0
            },
            {
                "start_time": 65.3181818,
                "end_time": 65.3681818,
                "pitch": 95,
                "velocity": 51,
                "duration": 0.05,
                "tempo": 120.0
            },
            {
                "start_time": 65.3681818,
                "end_time": 65.4022727,
                "pitch": 92,
                "velocity": 51,
                "duration": 0.0340909,
                "tempo": 120.0
            },
            {
                "start_time": 65.4022727,
                "end_time": 65.4522727,
                "pitch": 90,
                "velocity": 51,
                "duration": 0.05,
                "tempo": 120.0
            },
            {
                "start_time": 65.4522727,
                "end_time": 65.4863636,
                "pitch": 87,
                "velocity": 51,
                "duration": 0.0340909,
                "tempo": 120.0
            },
            {
                "start_time": 65.4863636,
                "end_time": 65.5204545,
                "pitch": 85,
                "velocity": 51,
                "duration": 0.0340909,
                "tempo": 120.0
            },
            {
                "start_time": 65.5204545,
                "end_time": 65.5704545,
                "pitch": 83,
                "velocity": 51,
                "duration": 0.05,
                "tempo": 120.0
            },
            {
                "start_time": 65.5704545,
                "end_time": 65.6045455,
                "pitch": 80,
                "velocity": 51,
                "duration": 0.0340909,
                "tempo": 120.0
            },
            {
                "start_time": 65.6045455,
                "end_time": 65.6545455,
                "pitch": 78,
                "velocity": 51,
                "duration": 0.05,
                "tempo": 120.0
            },
            {
                "start_time": 65.6545455,
                "end_time": 65.6886364,
                "pitch": 75,
                "velocity": 51,
                "duration": 0.0340909,
                "tempo": 120.0
            },
            {
                "start_time": 65.6886364,
                "end_time": 65.7204545,
                "pitch": 73,
                "velocity": 51,
                "duration": 0.0318182,
                "tempo": 120.0
            },
            {
                "start_time": 65.7204545,
                "end_time": 65.8704545,
                "pitch": 66,
                "velocity": 51,
                "duration": 0.15,
                "tempo": 120.0
            },
            {
                "start_time": 65.9204545,
                "end_time": 66.0704545,
                "pitch": 62,
                "velocity": 51,
                "duration": 0.15,
                "tempo": 120.0
            },
            {
                "start_time": 66.1204545,
                "end_time": 66.2727273,
                "pitch": 66,
                "velocity": 51,
                "duration": 0.1522727,
                "tempo": 120.0
            },
            {
                "start_time": 66.3227273,
                "end_time": 66.6409091,
                "pitch": 64,
                "velocity": 51,
                "duration": 0.3181818,
                "tempo": 120.0
            },
            {
                "start_time": 66.925,
                "end_time": 67.075,
                "pitch": 66,
                "velocity": 51,
                "duration": 0.15,
                "tempo": 120.0
            },
            {
                "start_time": 67.125,
                "end_time": 67.2772727,
                "pitch": 68,
                "velocity": 51,
                "duration": 0.1522727,
                "tempo": 120.0
            },
            {
                "start_time": 67.7295455,
                "end_time": 68.0454545,
                "pitch": 81,
                "velocity": 51,
                "duration": 0.3159091,
                "tempo": 120.0
            },
            {
                "start_time": 68.1295455,
                "end_time": 68.4477273,
                "pitch": 79,
                "velocity": 51,
                "duration": 0.3181818,
                "tempo": 120.0
            },
            {
                "start_time": 68.5318182,
                "end_time": 68.5818182,
                "pitch": 95,
                "velocity": 51,
                "duration": 0.05,
                "tempo": 120.0
            },
            {
                "start_time": 68.5818182,
                "end_time": 68.6159091,
                "pitch": 92,
                "velocity": 51,
                "duration": 0.0340909,
                "tempo": 120.0
            },
            {
                "start_time": 68.6159091,
                "end_time": 68.6659091,
                "pitch": 90,
                "velocity": 51,
                "duration": 0.05,
                "tempo": 120.0
            },
            {
                "start_time": 68.6659091,
                "end_time": 68.6977273,
                "pitch": 87,
                "velocity": 51,
                "duration": 0.0318182,
                "tempo": 120.0
            },
            {
                "start_time": 68.6977273,
                "end_time": 68.7318182,
                "pitch": 85,
                "velocity": 51,
                "duration": 0.0340909,
                "tempo": 120.0
            },
            {
                "start_time": 68.7318182,
                "end_time": 68.7818182,
                "pitch": 83,
                "velocity": 51,
                "duration": 0.05,
                "tempo": 120.0
            },
            {
                "start_time": 68.7818182,
                "end_time": 68.8159091,
                "pitch": 80,
                "velocity": 51,
                "duration": 0.0340909,
                "tempo": 120.0
            },
            {
                "start_time": 68.8159091,
                "end_time": 68.8659091,
                "pitch": 78,
                "velocity": 51,
                "duration": 0.05,
                "tempo": 120.0
            },
            {
                "start_time": 68.8659091,
                "end_time": 68.8977273,
                "pitch": 75,
                "velocity": 51,
                "duration": 0.0318182,
                "tempo": 120.0
            },
            {
                "start_time": 68.8977273,
                "end_time": 68.9318182,
                "pitch": 73,
                "velocity": 51,
                "duration": 0.0340909,
                "tempo": 120.0
            },
            {
                "start_time": 68.9318182,
                "end_time": 69.0818182,
                "pitch": 65,
                "velocity": 51,
                "duration": 0.15,
                "tempo": 120.0
            },
            {
                "start_time": 69.1340909,
                "end_time": 69.2840909,
                "pitch": 72,
                "velocity": 51,
                "duration": 0.15,
                "tempo": 120.0
            },
            {
                "start_time": 69.3340909,
                "end_time": 69.4863636,
                "pitch": 69,
                "velocity": 51,
                "duration": 0.1522727,
                "tempo": 120.0
            },
            {
                "start_time": 69.5363636,
                "end_time": 69.6863636,
                "pitch": 65,
                "velocity": 51,
                "duration": 0.15,
                "tempo": 120.0
            },
            {
                "start_time": 69.7363636,
                "end_time": 69.8863636,
                "pitch": 67,
                "velocity": 51,
                "duration": 0.15,
                "tempo": 120.0
            },
            {
                "start_time": 69.9363636,
                "end_time": 70.0863636,
                "pitch": 71,
                "velocity": 51,
                "duration": 0.15,
                "tempo": 120.0
            },
            {
                "start_time": 70.1363636,
                "end_time": 70.2886364,
                "pitch": 74,
                "velocity": 51,
                "duration": 0.1522727,
                "tempo": 120.0
            },
            {
                "start_time": 70.3386364,
                "end_time": 70.4886364,
                "pitch": 71,
                "velocity": 51,
                "duration": 0.15,
                "tempo": 120.0
            },
            {
                "start_time": 96.6454545,
                "end_time": 96.7909091,
                "pitch": 84,
                "velocity": 51,
                "duration": 0.1454545,
                "tempo": 120.0
            },
            {
                "start_time": 96.8409091,
                "end_time": 96.9886364,
                "pitch": 84,
                "velocity": 51,
                "duration": 0.1477273,
                "tempo": 120.0
            },
            {
                "start_time": 97.0363636,
                "end_time": 97.1886364,
                "pitch": 83,
                "velocity": 51,
                "duration": 0.1522727,
                "tempo": 120.0
            },
            {
                "start_time": 97.4386364,
                "end_time": 97.5909091,
                "pitch": 84,
                "velocity": 51,
                "duration": 0.1522727,
                "tempo": 120.0
            },
            {
                "start_time": 97.6409091,
                "end_time": 97.7909091,
                "pitch": 84,
                "velocity": 51,
                "duration": 0.15,
                "tempo": 120.0
            },
            {
                "start_time": 97.8431818,
                "end_time": 97.9931818,
                "pitch": 86,
                "velocity": 51,
                "duration": 0.15,
                "tempo": 120.0
            },
            {
                "start_time": 98.2431818,
                "end_time": 98.3931818,
                "pitch": 84,
                "velocity": 51,
                "duration": 0.15,
                "tempo": 120.0
            },
            {
                "start_time": 98.4431818,
                "end_time": 98.5954545,
                "pitch": 83,
                "velocity": 51,
                "duration": 0.1522727,
                "tempo": 120.0
            },
            {
                "start_time": 98.6454545,
                "end_time": 98.7954545,
                "pitch": 84,
                "velocity": 51,
                "duration": 0.15,
                "tempo": 120.0
            },
            {
                "start_time": 99.85,
                "end_time": 100.0,
                "pitch": 84,
                "velocity": 51,
                "duration": 0.15,
                "tempo": 120.0
            },
            {
                "start_time": 100.05,
                "end_time": 100.2,
                "pitch": 84,
                "velocity": 51,
                "duration": 0.15,
                "tempo": 120.0
            },
            {
                "start_time": 100.25,
                "end_time": 100.4022727,
                "pitch": 83,
                "velocity": 51,
                "duration": 0.1522727,
                "tempo": 120.0
            },
            {
                "start_time": 100.6522727,
                "end_time": 100.8022727,
                "pitch": 84,
                "velocity": 51,
                "duration": 0.15,
                "tempo": 120.0
            },
            {
                "start_time": 100.8522727,
                "end_time": 101.0022727,
                "pitch": 84,
                "velocity": 51,
                "duration": 0.15,
                "tempo": 120.0
            },
            {
                "start_time": 101.0522727,
                "end_time": 101.2045455,
                "pitch": 79,
                "velocity": 51,
                "duration": 0.1522727,
                "tempo": 120.0
            },
            {
                "start_time": 101.4568182,
                "end_time": 101.6068182,
                "pitch": 75,
                "velocity": 51,
                "duration": 0.15,
                "tempo": 120.0
            },
            {
                "start_time": 101.8590909,
                "end_time": 102.0090909,
                "pitch": 74,
                "velocity": 51,
                "duration": 0.15,
                "tempo": 120.0
            },
            {
                "start_time": 102.2590909,
                "end_time": 102.4090909,
                "pitch": 79,
                "velocity": 51,
                "duration": 0.15,
                "tempo": 120.0
            },
            {
                "start_time": 103.0613636,
                "end_time": 103.2113636,
                "pitch": 84,
                "velocity": 51,
                "duration": 0.15,
                "tempo": 120.0
            },
            {
                "start_time": 103.2613636,
                "end_time": 103.4136364,
                "pitch": 84,
                "velocity": 51,
                "duration": 0.1522727,
                "tempo": 120.0
            },
            {
                "start_time": 103.4636364,
                "end_time": 103.6159091,
                "pitch": 83,
                "velocity": 51,
                "duration": 0.1522727,
                "tempo": 120.0
            },
            {
                "start_time": 103.8659091,
                "end_time": 104.0159091,
                "pitch": 84,
                "velocity": 51,
                "duration": 0.15,
                "tempo": 120.0
            },
            {
                "start_time": 104.0659091,
                "end_time": 104.2159091,
                "pitch": 84,
                "velocity": 51,
                "duration": 0.15,
                "tempo": 120.0
            },
            {
                "start_time": 104.2659091,
                "end_time": 104.4181818,
                "pitch": 86,
                "velocity": 51,
                "duration": 0.1522727,
                "tempo": 120.0
            },
            {
                "start_time": 104.6681818,
                "end_time": 104.8181818,
                "pitch": 84,
                "velocity": 51,
                "duration": 0.15,
                "tempo": 120.0
            },
            {
                "start_time": 104.8681818,
                "end_time": 105.0181818,
                "pitch": 83,
                "velocity": 51,
                "duration": 0.15,
                "tempo": 120.0
            },
            {
                "start_time": 105.0681818,
                "end_time": 105.2204545,
                "pitch": 84,
                "velocity": 51,
                "duration": 0.1522727,
                "tempo": 120.0
            },
            {
                "start_time": 106.275,
                "end_time": 106.425,
                "pitch": 84,
                "velocity": 51,
                "duration": 0.15,
                "tempo": 120.0
            },
            {
                "start_time": 106.475,
                "end_time": 106.6272727,
                "pitch": 84,
                "velocity": 51,
                "duration": 0.1522727,
                "tempo": 120.0
            },
            {
                "start_time": 106.6772727,
                "end_time": 106.8272727,
                "pitch": 83,
                "velocity": 51,
                "duration": 0.15,
                "tempo": 120.0
            },
            {
                "start_time": 107.0772727,
                "end_time": 107.2272727,
                "pitch": 84,
                "velocity": 51,
                "duration": 0.15,
                "tempo": 120.0
            },
            {
                "start_time": 107.2795455,
                "end_time": 107.4295455,
                "pitch": 84,
                "velocity": 51,
                "duration": 0.15,
                "tempo": 120.0
            },
            {
                "start_time": 107.4795455,
                "end_time": 107.6318182,
                "pitch": 79,
                "velocity": 51,
                "duration": 0.1522727,
                "tempo": 120.0
            },
            {
                "start_time": 107.8818182,
                "end_time": 108.0318182,
                "pitch": 75,
                "velocity": 51,
                "duration": 0.15,
                "tempo": 120.0
            },
            {
                "start_time": 108.2818182,
                "end_time": 108.4340909,
                "pitch": 74,
                "velocity": 51,
                "duration": 0.1522727,
                "tempo": 120.0
            },
            {
                "start_time": 108.6863636,
                "end_time": 108.8363636,
                "pitch": 72,
                "velocity": 51,
                "duration": 0.15,
                "tempo": 120.0
            },
            {
                "start_time": 109.4886364,
                "end_time": 109.6386364,
                "pitch": 81,
                "velocity": 51,
                "duration": 0.15,
                "tempo": 120.0
            },
            {
                "start_time": 109.6886364,
                "end_time": 109.8409091,
                "pitch": 81,
                "velocity": 51,
                "duration": 0.1522727,
                "tempo": 120.0
            },
            {
                "start_time": 109.8909091,
                "end_time": 110.0409091,
                "pitch": 80,
                "velocity": 51,
                "duration": 0.15,
                "tempo": 120.0
            },
            {
                "start_time": 110.2909091,
                "end_time": 110.4409091,
                "pitch": 81,
                "velocity": 51,
                "duration": 0.15,
                "tempo": 120.0
            },
            {
                "start_time": 110.4909091,
                "end_time": 110.6431818,
                "pitch": 81,
                "velocity": 51,
                "duration": 0.1522727,
                "tempo": 120.0
            },
            {
                "start_time": 110.6931818,
                "end_time": 110.8431818,
                "pitch": 83,
                "velocity": 51,
                "duration": 0.15,
                "tempo": 120.0
            },
            {
                "start_time": 111.0931818,
                "end_time": 111.2454545,
                "pitch": 81,
                "velocity": 51,
                "duration": 0.1522727,
                "tempo": 120.0
            },
            {
                "start_time": 111.2954545,
                "end_time": 111.4454545,
                "pitch": 80,
                "velocity": 51,
                "duration": 0.15,
                "tempo": 120.0
            },
            {
                "start_time": 111.4954545,
                "end_time": 111.6477273,
                "pitch": 81,
                "velocity": 51,
                "duration": 0.1522727,
                "tempo": 120.0
            },
            {
                "start_time": 111.8977273,
                "end_time": 112.0477273,
                "pitch": 83,
                "velocity": 51,
                "duration": 0.15,
                "tempo": 120.0
            },
            {
                "start_time": 112.0977273,
                "end_time": 112.2477273,
                "pitch": 84,
                "velocity": 51,
                "duration": 0.15,
                "tempo": 120.0
            },
            {
                "start_time": 112.2977273,
                "end_time": 112.45,
                "pitch": 86,
                "velocity": 51,
                "duration": 0.1522727,
                "tempo": 120.0
            },
            {
                "start_time": 112.7022727,
                "end_time": 112.8522727,
                "pitch": 84,
                "velocity": 51,
                "duration": 0.15,
                "tempo": 120.0
            },
            {
                "start_time": 112.9022727,
                "end_time": 113.0522727,
                "pitch": 83,
                "velocity": 51,
                "duration": 0.15,
                "tempo": 120.0
            },
            {
                "start_time": 113.1022727,
                "end_time": 113.2522727,
                "pitch": 84,
                "velocity": 51,
                "duration": 0.15,
                "tempo": 120.0
            },
            {
                "start_time": 113.5045455,
                "end_time": 113.6545455,
                "pitch": 86,
                "velocity": 51,
                "duration": 0.15,
                "tempo": 120.0
            },
            {
                "start_time": 113.7045455,
                "end_time": 113.8568182,
                "pitch": 88,
                "velocity": 51,
                "duration": 0.1522727,
                "tempo": 120.0
            },
            {
                "start_time": 113.9068182,
                "end_time": 114.0568182,
                "pitch": 89,
                "velocity": 51,
                "duration": 0.15,
                "tempo": 120.0
            },
            {
                "start_time": 114.3068182,
                "end_time": 114.4568182,
                "pitch": 88,
                "velocity": 51,
                "duration": 0.15,
                "tempo": 120.0
            },
            {
                "start_time": 115.9159091,
                "end_time": 116.0659091,
                "pitch": 81,
                "velocity": 51,
                "duration": 0.15,
                "tempo": 120.0
            },
            {
                "start_time": 116.1159091,
                "end_time": 116.2659091,
                "pitch": 81,
                "velocity": 51,
                "duration": 0.15,
                "tempo": 120.0
            },
            {
                "start_time": 116.3159091,
                "end_time": 116.4659091,
                "pitch": 80,
                "velocity": 51,
                "duration": 0.15,
                "tempo": 120.0
            },
            {
                "start_time": 116.7181818,
                "end_time": 116.8681818,
                "pitch": 81,
                "velocity": 51,
                "duration": 0.15,
                "tempo": 120.0
            },
            {
                "start_time": 116.9181818,
                "end_time": 117.0681818,
                "pitch": 81,
                "velocity": 51,
                "duration": 0.15,
                "tempo": 120.0
            },
            {
                "start_time": 117.1181818,
                "end_time": 117.2681818,
                "pitch": 83,
                "velocity": 51,
                "duration": 0.15,
                "tempo": 120.0
            },
            {
                "start_time": 117.5204545,
                "end_time": 117.6704545,
                "pitch": 81,
                "velocity": 51,
                "duration": 0.15,
                "tempo": 120.0
            },
            {
                "start_time": 117.7204545,
                "end_time": 117.8727273,
                "pitch": 80,
                "velocity": 51,
                "duration": 0.1522727,
                "tempo": 120.0
            },
            {
                "start_time": 117.9227273,
                "end_time": 118.0727273,
                "pitch": 81,
                "velocity": 51,
                "duration": 0.15,
                "tempo": 120.0
            },
            {
                "start_time": 118.3227273,
                "end_time": 118.475,
                "pitch": 83,
                "velocity": 51,
                "duration": 0.1522727,
                "tempo": 120.0
            },
            {
                "start_time": 118.525,
                "end_time": 118.675,
                "pitch": 84,
                "velocity": 51,
                "duration": 0.15,
                "tempo": 120.0
            },
            {
                "start_time": 118.725,
                "end_time": 118.875,
                "pitch": 86,
                "velocity": 51,
                "duration": 0.15,
                "tempo": 120.0
            },
            {
                "start_time": 118.925,
                "end_time": 119.075,
                "pitch": 84,
                "velocity": 51,
                "duration": 0.15,
                "tempo": 120.0
            },
            {
                "start_time": 119.125,
                "end_time": 119.2772727,
                "pitch": 83,
                "velocity": 51,
                "duration": 0.1522727,
                "tempo": 120.0
            },
            {
                "start_time": 119.3272727,
                "end_time": 119.4772727,
                "pitch": 81,
                "velocity": 51,
                "duration": 0.15,
                "tempo": 120.0
            },
            {
                "start_time": 119.5272727,
                "end_time": 119.6795455,
                "pitch": 84,
                "velocity": 51,
                "duration": 0.1522727,
                "tempo": 120.0
            },
            {
                "start_time": 119.7295455,
                "end_time": 119.8795455,
                "pitch": 83,
                "velocity": 51,
                "duration": 0.15,
                "tempo": 120.0
            },
            {
                "start_time": 119.9318182,
                "end_time": 120.0818182,
                "pitch": 81,
                "velocity": 51,
                "duration": 0.15,
                "tempo": 120.0
            },
            {
                "start_time": 120.1318182,
                "end_time": 120.2818182,
                "pitch": 80,
                "velocity": 51,
                "duration": 0.15,
                "tempo": 120.0
            },
            {
                "start_time": 120.3318182,
                "end_time": 120.4818182,
                "pitch": 81,
                "velocity": 51,
                "duration": 0.15,
                "tempo": 120.0
            },
            {
                "start_time": 121.9568182,
                "end_time": 122.0931818,
                "pitch": 72,
                "velocity": 51,
                "duration": 0.1363636,
                "tempo": 120.0
            },
            {
                "start_time": 122.1431818,
                "end_time": 122.2977273,
                "pitch": 63,
                "velocity": 51,
                "duration": 0.1545455,
                "tempo": 120.0
            },
            {
                "start_time": 122.35,
                "end_time": 122.4977273,
                "pitch": 79,
                "velocity": 51,
                "duration": 0.1477273,
                "tempo": 120.0
            },
            {
                "start_time": 122.5454545,
                "end_time": 122.6931818,
                "pitch": 84,
                "velocity": 51,
                "duration": 0.1477273,
                "tempo": 120.0
            },
            {
                "start_time": 122.7409091,
                "end_time": 123.3772727,
                "pitch": 83,
                "velocity": 51,
                "duration": 0.6363636,
                "tempo": 120.0
            },
            {
                "start_time": 123.5454545,
                "end_time": 123.6954545,
                "pitch": 72,
                "velocity": 51,
                "duration": 0.15,
                "tempo": 120.0
            },
            {
                "start_time": 123.7454545,
                "end_time": 123.8977273,
                "pitch": 63,
                "velocity": 51,
                "duration": 0.1522727,
                "tempo": 120.0
            },
            {
                "start_time": 123.9477273,
                "end_time": 124.0977273,
                "pitch": 79,
                "velocity": 51,
                "duration": 0.15,
                "tempo": 120.0
            },
            {
                "start_time": 124.1477273,
                "end_time": 124.2977273,
                "pitch": 84,
                "velocity": 51,
                "duration": 0.15,
                "tempo": 120.0
            },
            {
                "start_time": 124.3477273,
                "end_time": 124.9840909,
                "pitch": 83,
                "velocity": 51,
                "duration": 0.6363636,
                "tempo": 120.0
            },
            {
                "start_time": 125.15,
                "end_time": 125.3,
                "pitch": 67,
                "velocity": 51,
                "duration": 0.15,
                "tempo": 120.0
            },
            {
                "start_time": 125.3522727,
                "end_time": 125.5022727,
                "pitch": 72,
                "velocity": 51,
                "duration": 0.15,
                "tempo": 120.0
            },
            {
                "start_time": 125.5522727,
                "end_time": 125.7045455,
                "pitch": 75,
                "velocity": 51,
                "duration": 0.1522727,
                "tempo": 120.0
            },
            {
                "start_time": 125.7545455,
                "end_time": 125.9045455,
                "pitch": 79,
                "velocity": 51,
                "duration": 0.15,
                "tempo": 120.0
            },
            {
                "start_time": 125.9545455,
                "end_time": 126.1045455,
                "pitch": 77,
                "velocity": 51,
                "duration": 0.15,
                "tempo": 120.0
            },
            {
                "start_time": 126.3545455,
                "end_time": 126.5068182,
                "pitch": 74,
                "velocity": 51,
                "duration": 0.1522727,
                "tempo": 120.0
            },
            {
                "start_time": 126.7590909,
                "end_time": 126.8590909,
                "pitch": 75,
                "velocity": 51,
                "duration": 0.1,
                "tempo": 120.0
            },
            {
                "start_time": 126.8909091,
                "end_time": 126.9909091,
                "pitch": 79,
                "velocity": 51,
                "duration": 0.1,
                "tempo": 120.0
            },
            {
                "start_time": 127.025,
                "end_time": 127.125,
                "pitch": 84,
                "velocity": 51,
                "duration": 0.1,
                "tempo": 120.0
            },
            {
                "start_time": 127.1590909,
                "end_time": 127.2590909,
                "pitch": 79,
                "velocity": 51,
                "duration": 0.1,
                "tempo": 120.0
            },
            {
                "start_time": 127.2931818,
                "end_time": 127.3931818,
                "pitch": 75,
                "velocity": 51,
                "duration": 0.1,
                "tempo": 120.0
            },
            {
                "start_time": 127.4272727,
                "end_time": 127.5272727,
                "pitch": 72,
                "velocity": 51,
                "duration": 0.1,
                "tempo": 120.0
            },
            {
                "start_time": 127.5613636,
                "end_time": 127.6454545,
                "pitch": 71,
                "velocity": 51,
                "duration": 0.0840909,
                "tempo": 120.0
            },
            {
                "start_time": 127.6613636,
                "end_time": 127.7454545,
                "pitch": 72,
                "velocity": 51,
                "duration": 0.0840909,
                "tempo": 120.0
            },
            {
                "start_time": 127.7613636,
                "end_time": 127.8454545,
                "pitch": 74,
                "velocity": 51,
                "duration": 0.0840909,
                "tempo": 120.0
            },
            {
                "start_time": 127.8636364,
                "end_time": 127.9454545,
                "pitch": 75,
                "velocity": 51,
                "duration": 0.0818182,
                "tempo": 120.0
            },
            {
                "start_time": 127.9636364,
                "end_time": 128.0477273,
                "pitch": 74,
                "velocity": 51,
                "duration": 0.0840909,
                "tempo": 120.0
            },
            {
                "start_time": 128.0636364,
                "end_time": 128.1477273,
                "pitch": 72,
                "velocity": 51,
                "duration": 0.0840909,
                "tempo": 120.0
            },
            {
                "start_time": 128.1636364,
                "end_time": 128.2477273,
                "pitch": 71,
                "velocity": 51,
                "duration": 0.0840909,
                "tempo": 120.0
            },
            {
                "start_time": 128.2636364,
                "end_time": 128.3477273,
                "pitch": 68,
                "velocity": 51,
                "duration": 0.0840909,
                "tempo": 120.0
            },
            {
                "start_time": 128.3636364,
                "end_time": 128.4636364,
                "pitch": 79,
                "velocity": 51,
                "duration": 0.1,
                "tempo": 120.0
            },
            {
                "start_time": 128.4977273,
                "end_time": 128.5977273,
                "pitch": 78,
                "velocity": 51,
                "duration": 0.1,
                "tempo": 120.0
            },
            {
                "start_time": 128.6318182,
                "end_time": 128.7318182,
                "pitch": 79,
                "velocity": 51,
                "duration": 0.1,
                "tempo": 120.0
            },
            {
                "start_time": 128.7659091,
                "end_time": 128.8659091,
                "pitch": 78,
                "velocity": 51,
                "duration": 0.1,
                "tempo": 120.0
            },
            {
                "start_time": 128.9,
                "end_time": 129.0,
                "pitch": 79,
                "velocity": 51,
                "duration": 0.1,
                "tempo": 120.0
            },
            {
                "start_time": 129.0318182,
                "end_time": 129.1318182,
                "pitch": 78,
                "velocity": 51,
                "duration": 0.1,
                "tempo": 120.0
            },
            {
                "start_time": 129.1659091,
                "end_time": 129.4840909,
                "pitch": 77,
                "velocity": 51,
                "duration": 0.3181818,
                "tempo": 120.0
            },
            {
                "start_time": 129.5681818,
                "end_time": 129.8886364,
                "pitch": 75,
                "velocity": 51,
                "duration": 0.3204545,
                "tempo": 120.0
            },
            {
                "start_time": 129.9704545,
                "end_time": 130.0545455,
                "pitch": 87,
                "velocity": 51,
                "duration": 0.0840909,
                "tempo": 120.0
            },
            {
                "start_time": 130.0727273,
                "end_time": 130.1568182,
                "pitch": 86,
                "velocity": 51,
                "duration": 0.0840909,
                "tempo": 120.0
            },
            {
                "start_time": 130.1727273,
                "end_time": 130.2568182,
                "pitch": 84,
                "velocity": 51,
                "duration": 0.0840909,
                "tempo": 120.0
            },
            {
                "start_time": 130.2727273,
                "end_time": 130.3568182,
                "pitch": 83,
                "velocity": 51,
                "duration": 0.0840909,
                "tempo": 120.0
            },
            {
                "start_time": 130.375,
                "end_time": 130.4568182,
                "pitch": 80,
                "velocity": 51,
                "duration": 0.0818182,
                "tempo": 120.0
            },
            {
                "start_time": 130.475,
                "end_time": 130.5568182,
                "pitch": 79,
                "velocity": 51,
                "duration": 0.0818182,
                "tempo": 120.0
            },
            {
                "start_time": 130.575,
                "end_time": 130.6568182,
                "pitch": 77,
                "velocity": 51,
                "duration": 0.0818182,
                "tempo": 120.0
            },
            {
                "start_time": 130.675,
                "end_time": 130.7568182,
                "pitch": 75,
                "velocity": 51,
                "duration": 0.0818182,
                "tempo": 120.0
            },
            {
                "start_time": 130.775,
                "end_time": 131.0931818,
                "pitch": 74,
                "velocity": 51,
                "duration": 0.3181818,
                "tempo": 120.0
            },
            {
                "start_time": 131.1772727,
                "end_time": 131.4954545,
                "pitch": 62,
                "velocity": 51,
                "duration": 0.3181818,
                "tempo": 120.0
            },
            {
                "start_time": 131.5795455,
                "end_time": 131.7295455,
                "pitch": 79,
                "velocity": 51,
                "duration": 0.15,
                "tempo": 120.0
            },
            {
                "start_time": 131.7818182,
                "end_time": 131.9318182,
                "pitch": 72,
                "velocity": 51,
                "duration": 0.15,
                "tempo": 120.0
            },
            {
                "start_time": 131.9818182,
                "end_time": 132.1340909,
                "pitch": 75,
                "velocity": 51,
                "duration": 0.1522727,
                "tempo": 120.0
            },
            {
                "start_time": 132.1840909,
                "end_time": 132.3340909,
                "pitch": 79,
                "velocity": 51,
                "duration": 0.15,
                "tempo": 120.0
            },
            {
                "start_time": 132.3840909,
                "end_time": 132.5340909,
                "pitch": 80,
                "velocity": 51,
                "duration": 0.15,
                "tempo": 120.0
            },
            {
                "start_time": 132.5840909,
                "end_time": 132.7340909,
                "pitch": 74,
                "velocity": 51,
                "duration": 0.15,
                "tempo": 120.0
            },
            {
                "start_time": 132.7840909,
                "end_time": 132.9363636,
                "pitch": 77,
                "velocity": 51,
                "duration": 0.1522727,
                "tempo": 120.0
            },
            {
                "start_time": 132.9863636,
                "end_time": 133.1363636,
                "pitch": 80,
                "velocity": 51,
                "duration": 0.15,
                "tempo": 120.0
            },
            {
                "start_time": 133.1886364,
                "end_time": 133.3386364,
                "pitch": 84,
                "velocity": 51,
                "duration": 0.15,
                "tempo": 120.0
            },
            {
                "start_time": 133.3886364,
                "end_time": 133.5409091,
                "pitch": 75,
                "velocity": 51,
                "duration": 0.1522727,
                "tempo": 120.0
            },
            {
                "start_time": 133.5909091,
                "end_time": 133.7409091,
                "pitch": 79,
                "velocity": 51,
                "duration": 0.15,
                "tempo": 120.0
            },
            {
                "start_time": 133.7909091,
                "end_time": 133.9431818,
                "pitch": 84,
                "velocity": 51,
                "duration": 0.1522727,
                "tempo": 120.0
            },
            {
                "start_time": 133.9931818,
                "end_time": 134.3113636,
                "pitch": 83,
                "velocity": 51,
                "duration": 0.3181818,
                "tempo": 120.0
            },
            {
                "start_time": 134.3954545,
                "end_time": 134.5431818,
                "pitch": 86,
                "velocity": 51,
                "duration": 0.1477273,
                "tempo": 120.0
            },
            {
                "start_time": 134.5909091,
                "end_time": 134.7386364,
                "pitch": 74,
                "velocity": 51,
                "duration": 0.1477273,
                "tempo": 120.0
            },
            {
                "start_time": 134.7886364,
                "end_time": 134.9409091,
                "pitch": 84,
                "velocity": 51,
                "duration": 0.1522727,
                "tempo": 120.0
            },
            {
                "start_time": 134.9931818,
                "end_time": 135.1477273,
                "pitch": 81,
                "velocity": 51,
                "duration": 0.1545455,
                "tempo": 120.0
            },
            {
                "start_time": 135.1977273,
                "end_time": 135.35,
                "pitch": 76,
                "velocity": 51,
                "duration": 0.1522727,
                "tempo": 120.0
            },
            {
                "start_time": 135.4,
                "end_time": 135.55,
                "pitch": 72,
                "velocity": 51,
                "duration": 0.15,
                "tempo": 120.0
            },
            {
                "start_time": 135.6,
                "end_time": 135.7022727,
                "pitch": 80,
                "velocity": 51,
                "duration": 0.1022727,
                "tempo": 120.0
            },
            {
                "start_time": 135.7363636,
                "end_time": 135.8363636,
                "pitch": 77,
                "velocity": 51,
                "duration": 0.1,
                "tempo": 120.0
            },
            {
                "start_time": 135.8704545,
                "end_time": 135.9704545,
                "pitch": 76,
                "velocity": 51,
                "duration": 0.1,
                "tempo": 120.0
            },
            {
                "start_time": 136.0045455,
                "end_time": 136.1045455,
                "pitch": 74,
                "velocity": 51,
                "duration": 0.1,
                "tempo": 120.0
            },
            {
                "start_time": 136.1386364,
                "end_time": 136.2386364,
                "pitch": 76,
                "velocity": 51,
                "duration": 0.1,
                "tempo": 120.0
            },
            {
                "start_time": 136.2727273,
                "end_time": 136.3727273,
                "pitch": 77,
                "velocity": 51,
                "duration": 0.1,
                "tempo": 120.0
            },
            {
                "start_time": 136.4068182,
                "end_time": 136.5568182,
                "pitch": 76,
                "velocity": 51,
                "duration": 0.15,
                "tempo": 120.0
            },
            {
                "start_time": 136.8068182,
                "end_time": 136.9568182,
                "pitch": 74,
                "velocity": 51,
                "duration": 0.15,
                "tempo": 120.0
            },
            {
                "start_time": 137.0068182,
                "end_time": 137.1590909,
                "pitch": 72,
                "velocity": 51,
                "duration": 0.1522727,
                "tempo": 120.0
            },
            {
                "start_time": 137.2090909,
                "end_time": 137.3090909,
                "pitch": 71,
                "velocity": 51,
                "duration": 0.1,
                "tempo": 120.0
            },
            {
                "start_time": 137.3431818,
                "end_time": 137.4431818,
                "pitch": 69,
                "velocity": 51,
                "duration": 0.1,
                "tempo": 120.0
            },
            {
                "start_time": 137.4772727,
                "end_time": 137.5772727,
                "pitch": 68,
                "velocity": 51,
                "duration": 0.1,
                "tempo": 120.0
            },
            {
                "start_time": 137.6113636,
                "end_time": 137.7136364,
                "pitch": 65,
                "velocity": 51,
                "duration": 0.1022727,
                "tempo": 120.0
            },
            {
                "start_time": 137.7454545,
                "end_time": 137.8477273,
                "pitch": 64,
                "velocity": 51,
                "duration": 0.1022727,
                "tempo": 120.0
            },
            {
                "start_time": 137.8795455,
                "end_time": 137.9818182,
                "pitch": 62,
                "velocity": 51,
                "duration": 0.1022727,
                "tempo": 120.0
            },
            {
                "start_time": 138.0136364,
                "end_time": 138.1159091,
                "pitch": 64,
                "velocity": 51,
                "duration": 0.1022727,
                "tempo": 120.0
            },
            {
                "start_time": 138.1477273,
                "end_time": 138.25,
                "pitch": 72,
                "velocity": 51,
                "duration": 0.1022727,
                "tempo": 120.0
            },
            {
                "start_time": 138.2840909,
                "end_time": 138.3840909,
                "pitch": 64,
                "velocity": 51,
                "duration": 0.1,
                "tempo": 120.0
            },
            {
                "start_time": 138.4181818,
                "end_time": 138.5181818,
                "pitch": 72,
                "velocity": 51,
                "duration": 0.1,
                "tempo": 120.0
            },
            {
                "start_time": 138.55,
                "end_time": 138.65,
                "pitch": 64,
                "velocity": 51,
                "duration": 0.1,
                "tempo": 120.0
            },
            {
                "start_time": 138.6840909,
                "end_time": 138.7840909,
                "pitch": 72,
                "velocity": 51,
                "duration": 0.1,
                "tempo": 120.0
            },
            {
                "start_time": 138.8181818,
                "end_time": 138.9181818,
                "pitch": 65,
                "velocity": 51,
                "duration": 0.1,
                "tempo": 120.0
            },
            {
                "start_time": 138.9522727,
                "end_time": 139.0522727,
                "pitch": 74,
                "velocity": 51,
                "duration": 0.1,
                "tempo": 120.0
            },
            {
                "start_time": 139.0863636,
                "end_time": 139.1863636,
                "pitch": 65,
                "velocity": 51,
                "duration": 0.1,
                "tempo": 120.0
            },
            {
                "start_time": 139.2204545,
                "end_time": 139.3204545,
                "pitch": 74,
                "velocity": 51,
                "duration": 0.1,
                "tempo": 120.0
            },
            {
                "start_time": 139.3545455,
                "end_time": 139.4545455,
                "pitch": 65,
                "velocity": 51,
                "duration": 0.1,
                "tempo": 120.0
            },
            {
                "start_time": 139.4886364,
                "end_time": 139.5886364,
                "pitch": 74,
                "velocity": 51,
                "duration": 0.1,
                "tempo": 120.0
            },
            {
                "start_time": 139.6227273,
                "end_time": 139.7227273,
                "pitch": 76,
                "velocity": 51,
                "duration": 0.1,
                "tempo": 120.0
            },
            {
                "start_time": 139.7568182,
                "end_time": 139.8568182,
                "pitch": 74,
                "velocity": 51,
                "duration": 0.1,
                "tempo": 120.0
            },
            {
                "start_time": 139.8909091,
                "end_time": 139.9909091,
                "pitch": 72,
                "velocity": 51,
                "duration": 0.1,
                "tempo": 120.0
            },
            {
                "start_time": 140.025,
                "end_time": 140.125,
                "pitch": 60,
                "velocity": 51,
                "duration": 0.1,
                "tempo": 120.0
            },
            {
                "start_time": 140.1590909,
                "end_time": 140.2590909,
                "pitch": 62,
                "velocity": 51,
                "duration": 0.1,
                "tempo": 120.0
            },
            {
                "start_time": 140.2931818,
                "end_time": 140.3954545,
                "pitch": 64,
                "velocity": 51,
                "duration": 0.1022727,
                "tempo": 120.0
            },
            {
                "start_time": 140.4272727,
                "end_time": 140.5113636,
                "pitch": 74,
                "velocity": 51,
                "duration": 0.0840909,
                "tempo": 120.0
            },
            {
                "start_time": 140.5272727,
                "end_time": 140.6113636,
                "pitch": 72,
                "velocity": 51,
                "duration": 0.0840909,
                "tempo": 120.0
            },
            {
                "start_time": 140.6272727,
                "end_time": 140.7113636,
                "pitch": 71,
                "velocity": 51,
                "duration": 0.0840909,
                "tempo": 120.0
            },
            {
                "start_time": 140.7272727,
                "end_time": 140.8113636,
                "pitch": 69,
                "velocity": 51,
                "duration": 0.0840909,
                "tempo": 120.0
            },
            {
                "start_time": 140.8272727,
                "end_time": 140.9113636,
                "pitch": 62,
                "velocity": 51,
                "duration": 0.0840909,
                "tempo": 120.0
            },
            {
                "start_time": 140.9295455,
                "end_time": 141.0136364,
                "pitch": 64,
                "velocity": 51,
                "duration": 0.0840909,
                "tempo": 120.0
            },
            {
                "start_time": 141.0295455,
                "end_time": 141.1136364,
                "pitch": 65,
                "velocity": 51,
                "duration": 0.0840909,
                "tempo": 120.0
            },
            {
                "start_time": 141.1295455,
                "end_time": 141.2136364,
                "pitch": 68,
                "velocity": 51,
                "duration": 0.0840909,
                "tempo": 120.0
            },
            {
                "start_time": 141.2295455,
                "end_time": 141.3136364,
                "pitch": 69,
                "velocity": 51,
                "duration": 0.0840909,
                "tempo": 120.0
            },
            {
                "start_time": 141.3318182,
                "end_time": 141.4159091,
                "pitch": 71,
                "velocity": 51,
                "duration": 0.0840909,
                "tempo": 120.0
            },
            {
                "start_time": 141.4318182,
                "end_time": 141.5159091,
                "pitch": 72,
                "velocity": 51,
                "duration": 0.0840909,
                "tempo": 120.0
            },
            {
                "start_time": 141.5318182,
                "end_time": 141.6159091,
                "pitch": 74,
                "velocity": 51,
                "duration": 0.0840909,
                "tempo": 120.0
            },
            {
                "start_time": 141.6340909,
                "end_time": 141.7181818,
                "pitch": 76,
                "velocity": 51,
                "duration": 0.0840909,
                "tempo": 120.0
            },
            {
                "start_time": 141.7340909,
                "end_time": 141.8181818,
                "pitch": 77,
                "velocity": 51,
                "duration": 0.0840909,
                "tempo": 120.0
            },
            {
                "start_time": 141.8340909,
                "end_time": 141.9181818,
                "pitch": 80,
                "velocity": 51,
                "duration": 0.0840909,
                "tempo": 120.0
            },
            {
                "start_time": 141.9363636,
                "end_time": 142.0181818,
                "pitch": 81,
                "velocity": 51,
                "duration": 0.0818182,
                "tempo": 120.0
            },
            {
                "start_time": 142.0363636,
                "end_time": 142.1204545,
                "pitch": 83,
                "velocity": 51,
                "duration": 0.0840909,
                "tempo": 120.0
            },
            {
                "start_time": 142.1363636,
                "end_time": 142.2204545,
                "pitch": 81,
                "velocity": 51,
                "duration": 0.0840909,
                "tempo": 120.0
            },
            {
                "start_time": 142.2363636,
                "end_time": 142.3204545,
                "pitch": 80,
                "velocity": 51,
                "duration": 0.0840909,
                "tempo": 120.0
            },
            {
                "start_time": 142.3386364,
                "end_time": 142.4886364,
                "pitch": 77,
                "velocity": 51,
                "duration": 0.15,
                "tempo": 120.0
            },
            {
                "start_time": 142.5386364,
                "end_time": 142.6227273,
                "pitch": 80,
                "velocity": 51,
                "duration": 0.0840909,
                "tempo": 120.0
            },
            {
                "start_time": 142.6386364,
                "end_time": 142.7227273,
                "pitch": 77,
                "velocity": 51,
                "duration": 0.0840909,
                "tempo": 120.0
            },
            {
                "start_time": 142.7386364,
                "end_time": 142.8227273,
                "pitch": 76,
                "velocity": 51,
                "duration": 0.0840909,
                "tempo": 120.0
            },
            {
                "start_time": 142.8386364,
                "end_time": 142.9386364,
                "pitch": 81,
                "velocity": 51,
                "duration": 0.1,
                "tempo": 120.0
            },
            {
                "start_time": 142.9727273,
                "end_time": 143.0727273,
                "pitch": 72,
                "velocity": 51,
                "duration": 0.1,
                "tempo": 120.0
            },
            {
                "start_time": 143.1068182,
                "end_time": 143.2068182,
                "pitch": 81,
                "velocity": 51,
                "duration": 0.1,
                "tempo": 120.0
            },
            {
                "start_time": 143.2409091,
                "end_time": 143.3431818,
                "pitch": 72,
                "velocity": 51,
                "duration": 0.1022727,
                "tempo": 120.0
            },
            {
                "start_time": 143.375,
                "end_time": 143.4772727,
                "pitch": 81,
                "velocity": 51,
                "duration": 0.1022727,
                "tempo": 120.0
            },
            {
                "start_time": 143.5090909,
                "end_time": 143.6113636,
                "pitch": 72,
                "velocity": 51,
                "duration": 0.1022727,
                "tempo": 120.0
            },
            {
                "start_time": 143.6431818,
                "end_time": 143.7954545,
                "pitch": 81,
                "velocity": 51,
                "duration": 0.1522727,
                "tempo": 120.0
            },
            {
                "start_time": 143.8454545,
                "end_time": 143.9954545,
                "pitch": 74,
                "velocity": 51,
                "duration": 0.15,
                "tempo": 120.0
            },
            {
                "start_time": 144.0477273,
                "end_time": 144.1977273,
                "pitch": 81,
                "velocity": 51,
                "duration": 0.15,
                "tempo": 120.0
            },
            {
                "start_time": 144.2477273,
                "end_time": 144.4,
                "pitch": 74,
                "velocity": 51,
                "duration": 0.1522727,
                "tempo": 120.0
            },
            {
                "start_time": 144.45,
                "end_time": 144.55,
                "pitch": 81,
                "velocity": 51,
                "duration": 0.1,
                "tempo": 120.0
            },
            {
                "start_time": 144.5818182,
                "end_time": 144.6818182,
                "pitch": 76,
                "velocity": 51,
                "duration": 0.1,
                "tempo": 120.0
            },
            {
                "start_time": 144.7159091,
                "end_time": 144.8159091,
                "pitch": 81,
                "velocity": 51,
                "duration": 0.1,
                "tempo": 120.0
            },
            {
                "start_time": 144.85,
                "end_time": 144.95,
                "pitch": 76,
                "velocity": 51,
                "duration": 0.1,
                "tempo": 120.0
            },
            {
                "start_time": 144.9840909,
                "end_time": 145.0840909,
                "pitch": 81,
                "velocity": 51,
                "duration": 0.1,
                "tempo": 120.0
            },
            {
                "start_time": 145.1181818,
                "end_time": 145.2181818,
                "pitch": 76,
                "velocity": 51,
                "duration": 0.1,
                "tempo": 120.0
            },
            {
                "start_time": 145.2522727,
                "end_time": 145.3363636,
                "pitch": 83,
                "velocity": 51,
                "duration": 0.0840909,
                "tempo": 120.0
            },
            {
                "start_time": 145.3522727,
                "end_time": 145.4363636,
                "pitch": 80,
                "velocity": 51,
                "duration": 0.0840909,
                "tempo": 120.0
            },
            {
                "start_time": 145.4545455,
                "end_time": 145.5363636,
                "pitch": 77,
                "velocity": 51,
                "duration": 0.0818182,
                "tempo": 120.0
            },
            {
                "start_time": 145.5545455,
                "end_time": 145.6386364,
                "pitch": 74,
                "velocity": 51,
                "duration": 0.0840909,
                "tempo": 120.0
            },
            {
                "start_time": 145.6545455,
                "end_time": 145.7386364,
                "pitch": 80,
                "velocity": 51,
                "duration": 0.0840909,
                "tempo": 120.0
            },
            {
                "start_time": 145.7545455,
                "end_time": 145.8386364,
                "pitch": 77,
                "velocity": 51,
                "duration": 0.0840909,
                "tempo": 120.0
            },
            {
                "start_time": 145.8568182,
                "end_time": 145.9409091,
                "pitch": 74,
                "velocity": 51,
                "duration": 0.0840909,
                "tempo": 120.0
            },
            {
                "start_time": 145.9568182,
                "end_time": 146.0409091,
                "pitch": 71,
                "velocity": 51,
                "duration": 0.0840909,
                "tempo": 120.0
            },
            {
                "start_time": 146.0568182,
                "end_time": 146.2090909,
                "pitch": 69,
                "velocity": 51,
                "duration": 0.1522727,
                "tempo": 120.0
            },
            {
                "start_time": 146.4590909,
                "end_time": 146.6090909,
                "pitch": 72,
                "velocity": 51,
                "duration": 0.15,
                "tempo": 120.0
            },
            {
                "start_time": 146.8590909,
                "end_time": 147.0113636,
                "pitch": 71,
                "velocity": 51,
                "duration": 0.1522727,
                "tempo": 120.0
            },
            {
                "start_time": 148.0681818,
                "end_time": 148.3863636,
                "pitch": 81,
                "velocity": 51,
                "duration": 0.3181818,
                "tempo": 120.0
            },
            {
                "start_time": 148.4704545,
                "end_time": 148.7886364,
                "pitch": 79,
                "velocity": 51,
                "duration": 0.3181818,
                "tempo": 120.0
            },
            {
                "start_time": 148.8704545,
                "end_time": 148.9204545,
                "pitch": 95,
                "velocity": 51,
                "duration": 0.05,
                "tempo": 120.0
            },
            {
                "start_time": 148.9204545,
                "end_time": 148.9545455,
                "pitch": 92,
                "velocity": 51,
                "duration": 0.0340909,
                "tempo": 120.0
            },
            {
                "start_time": 148.9545455,
                "end_time": 149.0045455,
                "pitch": 90,
                "velocity": 51,
                "duration": 0.05,
                "tempo": 120.0
            },
            {
                "start_time": 149.0045455,
                "end_time": 149.0386364,
                "pitch": 87,
                "velocity": 51,
                "duration": 0.0340909,
                "tempo": 120.0
            },
            {
                "start_time": 149.0386364,
                "end_time": 149.0727273,
                "pitch": 85,
                "velocity": 51,
                "duration": 0.0340909,
                "tempo": 120.0
            },
            {
                "start_time": 149.0727273,
                "end_time": 149.1227273,
                "pitch": 83,
                "velocity": 51,
                "duration": 0.05,
                "tempo": 120.0
            },
            {
                "start_time": 149.1227273,
                "end_time": 149.1568182,
                "pitch": 80,
                "velocity": 51,
                "duration": 0.0340909,
                "tempo": 120.0
            },
            {
                "start_time": 149.1568182,
                "end_time": 149.2068182,
                "pitch": 78,
                "velocity": 51,
                "duration": 0.05,
                "tempo": 120.0
            },
            {
                "start_time": 149.2068182,
                "end_time": 149.2409091,
                "pitch": 75,
                "velocity": 51,
                "duration": 0.0340909,
                "tempo": 120.0
            },
            {
                "start_time": 149.2409091,
                "end_time": 149.2727273,
                "pitch": 73,
                "velocity": 51,
                "duration": 0.0318182,
                "tempo": 120.0
            },
            {
                "start_time": 149.2727273,
                "end_time": 149.425,
                "pitch": 66,
                "velocity": 51,
                "duration": 0.1522727,
                "tempo": 120.0
            },
            {
                "start_time": 149.475,
                "end_time": 149.625,
                "pitch": 62,
                "velocity": 51,
                "duration": 0.15,
                "tempo": 120.0
            },
            {
                "start_time": 149.6772727,
                "end_time": 149.8272727,
                "pitch": 66,
                "velocity": 51,
                "duration": 0.15,
                "tempo": 120.0
            },
            {
                "start_time": 149.8772727,
                "end_time": 150.1954545,
                "pitch": 64,
                "velocity": 51,
                "duration": 0.3181818,
                "tempo": 120.0
            },
            {
                "start_time": 150.4818182,
                "end_time": 150.6318182,
                "pitch": 66,
                "velocity": 51,
                "duration": 0.15,
                "tempo": 120.0
            },
            {
                "start_time": 150.6818182,
                "end_time": 150.8318182,
                "pitch": 68,
                "velocity": 51,
                "duration": 0.15,
                "tempo": 120.0
            },
            {
                "start_time": 151.2840909,
                "end_time": 151.6022727,
                "pitch": 81,
                "velocity": 51,
                "duration": 0.3181818,
                "tempo": 120.0
            },
            {
                "start_time": 151.6863636,
                "end_time": 152.0068182,
                "pitch": 79,
                "velocity": 51,
                "duration": 0.3204545,
                "tempo": 120.0
            },
            {
                "start_time": 152.0886364,
                "end_time": 152.1409091,
                "pitch": 95,
                "velocity": 51,
                "duration": 0.0522727,
                "tempo": 120.0
            },
            {
                "start_time": 152.1409091,
                "end_time": 152.1727273,
                "pitch": 92,
                "velocity": 51,
                "duration": 0.0318182,
                "tempo": 120.0
            },
            {
                "start_time": 152.1727273,
                "end_time": 152.225,
                "pitch": 90,
                "velocity": 51,
                "duration": 0.0522727,
                "tempo": 120.0
            },
            {
                "start_time": 152.225,
                "end_time": 152.2568182,
                "pitch": 87,
                "velocity": 51,
                "duration": 0.0318182,
                "tempo": 120.0
            },
            {
                "start_time": 152.2568182,
                "end_time": 152.2909091,
                "pitch": 85,
                "velocity": 51,
                "duration": 0.0340909,
                "tempo": 120.0
            },
            {
                "start_time": 152.2909091,
                "end_time": 152.3409091,
                "pitch": 83,
                "velocity": 51,
                "duration": 0.05,
                "tempo": 120.0
            },
            {
                "start_time": 152.3409091,
                "end_time": 152.375,
                "pitch": 80,
                "velocity": 51,
                "duration": 0.0340909,
                "tempo": 120.0
            },
            {
                "start_time": 152.375,
                "end_time": 152.425,
                "pitch": 78,
                "velocity": 51,
                "duration": 0.05,
                "tempo": 120.0
            },
            {
                "start_time": 152.425,
                "end_time": 152.4590909,
                "pitch": 75,
                "velocity": 51,
                "duration": 0.0340909,
                "tempo": 120.0
            },
            {
                "start_time": 152.4590909,
                "end_time": 152.4931818,
                "pitch": 73,
                "velocity": 51,
                "duration": 0.0340909,
                "tempo": 120.0
            },
            {
                "start_time": 152.4931818,
                "end_time": 152.6431818,
                "pitch": 65,
                "velocity": 51,
                "duration": 0.15,
                "tempo": 120.0
            },
            {
                "start_time": 152.6931818,
                "end_time": 152.8431818,
                "pitch": 72,
                "velocity": 51,
                "duration": 0.15,
                "tempo": 120.0
            },
            {
                "start_time": 152.8931818,
                "end_time": 153.0431818,
                "pitch": 69,
                "velocity": 51,
                "duration": 0.15,
                "tempo": 120.0
            },
            {
                "start_time": 153.0931818,
                "end_time": 153.2454545,
                "pitch": 65,
                "velocity": 51,
                "duration": 0.1522727,
                "tempo": 120.0
            },
            {
                "start_time": 153.2954545,
                "end_time": 153.4454545,
                "pitch": 64,
                "velocity": 51,
                "duration": 0.15,
                "tempo": 120.0
            },
            {
                "start_time": 153.4954545,
                "end_time": 153.6477273,
                "pitch": 68,
                "velocity": 51,
                "duration": 0.1522727,
                "tempo": 120.0
            },
            {
                "start_time": 153.6977273,
                "end_time": 153.8477273,
                "pitch": 71,
                "velocity": 51,
                "duration": 0.15,
                "tempo": 120.0
            },
            {
                "start_time": 153.9,
                "end_time": 154.05,
                "pitch": 68,
                "velocity": 51,
                "duration": 0.15,
                "tempo": 120.0
            },
            {
                "start_time": 154.5022727,
                "end_time": 154.8204545,
                "pitch": 81,
                "velocity": 51,
                "duration": 0.3181818,
                "tempo": 120.0
            },
            {
                "start_time": 154.9022727,
                "end_time": 155.2227273,
                "pitch": 79,
                "velocity": 51,
                "duration": 0.3204545,
                "tempo": 120.0
            },
            {
                "start_time": 155.3068182,
                "end_time": 155.3568182,
                "pitch": 95,
                "velocity": 51,
                "duration": 0.05,
                "tempo": 120.0
            },
            {
                "start_time": 155.3568182,
                "end_time": 155.3886364,
                "pitch": 92,
                "velocity": 51,
                "duration": 0.0318182,
                "tempo": 120.0
            },
            {
                "start_time": 155.3886364,
                "end_time": 155.4409091,
                "pitch": 90,
                "velocity": 51,
                "duration": 0.0522727,
                "tempo": 120.0
            },
            {
                "start_time": 155.4409091,
                "end_time": 155.4727273,
                "pitch": 87,
                "velocity": 51,
                "duration": 0.0318182,
                "tempo": 120.0
            },
            {
                "start_time": 155.4727273,
                "end_time": 155.5068182,
                "pitch": 85,
                "velocity": 51,
                "duration": 0.0340909,
                "tempo": 120.0
            },
            {
                "start_time": 155.5068182,
                "end_time": 155.5568182,
                "pitch": 83,
                "velocity": 51,
                "duration": 0.05,
                "tempo": 120.0
            },
            {
                "start_time": 155.5568182,
                "end_time": 155.5909091,
                "pitch": 80,
                "velocity": 51,
                "duration": 0.0340909,
                "tempo": 120.0
            },
            {
                "start_time": 155.5909091,
                "end_time": 155.6409091,
                "pitch": 78,
                "velocity": 51,
                "duration": 0.05,
                "tempo": 120.0
            },
            {
                "start_time": 155.6409091,
                "end_time": 155.675,
                "pitch": 75,
                "velocity": 51,
                "duration": 0.0340909,
                "tempo": 120.0
            },
            {
                "start_time": 155.675,
                "end_time": 155.7090909,
                "pitch": 73,
                "velocity": 51,
                "duration": 0.0340909,
                "tempo": 120.0
            },
            {
                "start_time": 155.7090909,
                "end_time": 155.8590909,
                "pitch": 66,
                "velocity": 51,
                "duration": 0.15,
                "tempo": 120.0
            },
            {
                "start_time": 155.9090909,
                "end_time": 156.0613636,
                "pitch": 62,
                "velocity": 51,
                "duration": 0.1522727,
                "tempo": 120.0
            },
            {
                "start_time": 156.1113636,
                "end_time": 156.2613636,
                "pitch": 66,
                "velocity": 51,
                "duration": 0.15,
                "tempo": 120.0
            },
            {
                "start_time": 156.3136364,
                "end_time": 156.6340909,
                "pitch": 64,
                "velocity": 51,
                "duration": 0.3204545,
                "tempo": 120.0
            },
            {
                "start_time": 156.925,
                "end_time": 157.0727273,
                "pitch": 66,
                "velocity": 51,
                "duration": 0.1477273,
                "tempo": 120.0
            },
            {
                "start_time": 157.1204545,
                "end_time": 157.2681818,
                "pitch": 68,
                "velocity": 51,
                "duration": 0.1477273,
                "tempo": 120.0
            },
            {
                "start_time": 157.7204545,
                "end_time": 158.0386364,
                "pitch": 81,
                "velocity": 51,
                "duration": 0.3181818,
                "tempo": 120.0
            },
            {
                "start_time": 158.1227273,
                "end_time": 158.4409091,
                "pitch": 79,
                "velocity": 51,
                "duration": 0.3181818,
                "tempo": 120.0
            },
            {
                "start_time": 158.525,
                "end_time": 158.575,
                "pitch": 95,
                "velocity": 51,
                "duration": 0.05,
                "tempo": 120.0
            },
            {
                "start_time": 158.575,
                "end_time": 158.6090909,
                "pitch": 92,
                "velocity": 51,
                "duration": 0.0340909,
                "tempo": 120.0
            },
            {
                "start_time": 158.6090909,
                "end_time": 158.6590909,
                "pitch": 90,
                "velocity": 51,
                "duration": 0.05,
                "tempo": 120.0
            },
            {
                "start_time": 158.6590909,
                "end_time": 158.6909091,
                "pitch": 87,
                "velocity": 51,
                "duration": 0.0318182,
                "tempo": 120.0
            },
            {
                "start_time": 158.6909091,
                "end_time": 158.725,
                "pitch": 85,
                "velocity": 51,
                "duration": 0.0340909,
                "tempo": 120.0
            },
            {
                "start_time": 158.725,
                "end_time": 158.775,
                "pitch": 83,
                "velocity": 51,
                "duration": 0.05,
                "tempo": 120.0
            },
            {
                "start_time": 158.775,
                "end_time": 158.8090909,
                "pitch": 80,
                "velocity": 51,
                "duration": 0.0340909,
                "tempo": 120.0
            },
            {
                "start_time": 158.8090909,
                "end_time": 158.8590909,
                "pitch": 78,
                "velocity": 51,
                "duration": 0.05,
                "tempo": 120.0
            },
            {
                "start_time": 158.8590909,
                "end_time": 158.8909091,
                "pitch": 75,
                "velocity": 51,
                "duration": 0.0318182,
                "tempo": 120.0
            },
            {
                "start_time": 158.8909091,
                "end_time": 158.925,
                "pitch": 73,
                "velocity": 51,
                "duration": 0.0340909,
                "tempo": 120.0
            },
            {
                "start_time": 158.925,
                "end_time": 159.075,
                "pitch": 65,
                "velocity": 51,
                "duration": 0.15,
                "tempo": 120.0
            },
            {
                "start_time": 159.1272727,
                "end_time": 159.2772727,
                "pitch": 72,
                "velocity": 51,
                "duration": 0.15,
                "tempo": 120.0
            },
            {
                "start_time": 159.3272727,
                "end_time": 159.4795455,
                "pitch": 69,
                "velocity": 51,
                "duration": 0.1522727,
                "tempo": 120.0
            },
            {
                "start_time": 159.5295455,
                "end_time": 159.6795455,
                "pitch": 65,
                "velocity": 51,
                "duration": 0.15,
                "tempo": 120.0
            },
            {
                "start_time": 159.7295455,
                "end_time": 159.8818182,
                "pitch": 67,
                "velocity": 51,
                "duration": 0.1522727,
                "tempo": 120.0
            },
            {
                "start_time": 159.9318182,
                "end_time": 160.0818182,
                "pitch": 71,
                "velocity": 51,
                "duration": 0.15,
                "tempo": 120.0
            },
            {
                "start_time": 160.1318182,
                "end_time": 160.2840909,
                "pitch": 74,
                "velocity": 51,
                "duration": 0.1522727,
                "tempo": 120.0
            },
            {
                "start_time": 160.3340909,
                "end_time": 160.5363636,
                "pitch": 71,
                "velocity": 51,
                "duration": 0.2022727,
                "tempo": 120.0
            }
        ],
        "Trumpet": [
            {
                "start_time": 81.3795455,
                "end_time": 81.5295455,
                "pitch": 75,
                "velocity": 80,
                "duration": 0.15,
                "tempo": 120.0
            },
            {
                "start_time": 81.5795455,
                "end_time": 81.7318182,
                "pitch": 75,
                "velocity": 80,
                "duration": 0.1522727,
                "tempo": 120.0
            },
            {
                "start_time": 81.7818182,
                "end_time": 81.8636364,
                "pitch": 74,
                "velocity": 80,
                "duration": 0.0818182,
                "tempo": 120.0
            },
            {
                "start_time": 81.8818182,
                "end_time": 81.9636364,
                "pitch": 66,
                "velocity": 80,
                "duration": 0.0818182,
                "tempo": 120.0
            },
            {
                "start_time": 81.9818182,
                "end_time": 82.0636364,
                "pitch": 69,
                "velocity": 80,
                "duration": 0.0818182,
                "tempo": 120.0
            },
            {
                "start_time": 82.0818182,
                "end_time": 82.1636364,
                "pitch": 74,
                "velocity": 80,
                "duration": 0.0818182,
                "tempo": 120.0
            },
            {
                "start_time": 82.1818182,
                "end_time": 82.3318182,
                "pitch": 75,
                "velocity": 80,
                "duration": 0.15,
                "tempo": 120.0
            },
            {
                "start_time": 82.3818182,
                "end_time": 82.5340909,
                "pitch": 75,
                "velocity": 80,
                "duration": 0.1522727,
                "tempo": 120.0
            },
            {
                "start_time": 82.9840909,
                "end_time": 83.1340909,
                "pitch": 86,
                "velocity": 80,
                "duration": 0.15,
                "tempo": 120.0
            },
            {
                "start_time": 83.1840909,
                "end_time": 83.3363636,
                "pitch": 86,
                "velocity": 80,
                "duration": 0.1522727,
                "tempo": 120.0
            }
        ],
        "Clarinet": [
            {
                "start_time": 0.0,
                "end_time": 0.4,
                "pitch": 39,
                "velocity": 40,
                "duration": 0.4,
                "tempo": 120.0
            },
            {
                "start_time": 0.5113636,
                "end_time": 0.6068182,
                "pitch": 41,
                "velocity": 40,
                "duration": 0.0954545,
                "tempo": 120.0
            },
            {
                "start_time": 0.6386364,
                "end_time": 0.7340909,
                "pitch": 39,
                "velocity": 40,
                "duration": 0.0954545,
                "tempo": 120.0
            },
            {
                "start_time": 0.7659091,
                "end_time": 1.2045455,
                "pitch": 38,
                "velocity": 40,
                "duration": 0.4386364,
                "tempo": 120.0
            },
            {
                "start_time": 1.3204545,
                "end_time": 1.4204545,
                "pitch": 39,
                "velocity": 40,
                "duration": 0.1,
                "tempo": 120.0
            },
            {
                "start_time": 1.4545455,
                "end_time": 1.5545455,
                "pitch": 38,
                "velocity": 40,
                "duration": 0.1,
                "tempo": 120.0
            },
            {
                "start_time": 1.5863636,
                "end_time": 2.0045455,
                "pitch": 37,
                "velocity": 40,
                "duration": 0.4181818,
                "tempo": 120.0
            },
            {
                "start_time": 2.1159091,
                "end_time": 2.2113636,
                "pitch": 38,
                "velocity": 40,
                "duration": 0.0954545,
                "tempo": 120.0
            },
            {
                "start_time": 2.2431818,
                "end_time": 2.3386364,
                "pitch": 37,
                "velocity": 40,
                "duration": 0.0954545,
                "tempo": 120.0
            },
            {
                "start_time": 2.3704545,
                "end_time": 2.8090909,
                "pitch": 36,
                "velocity": 40,
                "duration": 0.4386364,
                "tempo": 120.0
            },
            {
                "start_time": 2.9204545,
                "end_time": 3.0159091,
                "pitch": 37,
                "velocity": 40,
                "duration": 0.0954545,
                "tempo": 120.0
            },
            {
                "start_time": 3.0477273,
                "end_time": 3.1431818,
                "pitch": 36,
                "velocity": 40,
                "duration": 0.0954545,
                "tempo": 120.0
            },
            {
                "start_time": 3.175,
                "end_time": 3.5068182,
                "pitch": 47,
                "velocity": 40,
                "duration": 0.3318182,
                "tempo": 120.0
            },
            {
                "start_time": 3.5954545,
                "end_time": 3.8977273,
                "pitch": 48,
                "velocity": 40,
                "duration": 0.3022727,
                "tempo": 120.0
            },
            {
                "start_time": 3.9772727,
                "end_time": 4.2931818,
                "pitch": 50,
                "velocity": 40,
                "duration": 0.3159091,
                "tempo": 120.0
            },
            {
                "start_time": 4.3772727,
                "end_time": 4.6931818,
                "pitch": 51,
                "velocity": 40,
                "duration": 0.3159091,
                "tempo": 120.0
            },
            {
                "start_time": 4.7772727,
                "end_time": 4.8613636,
                "pitch": 44,
                "velocity": 40,
                "duration": 0.0840909,
                "tempo": 120.0
            },
            {
                "start_time": 4.8795455,
                "end_time": 4.9659091,
                "pitch": 43,
                "velocity": 40,
                "duration": 0.0863636,
                "tempo": 120.0
            },
            {
                "start_time": 4.9818182,
                "end_time": 5.0681818,
                "pitch": 44,
                "velocity": 40,
                "duration": 0.0863636,
                "tempo": 120.0
            },
            {
                "start_time": 5.0840909,
                "end_time": 5.1704545,
                "pitch": 43,
                "velocity": 40,
                "duration": 0.0863636,
                "tempo": 120.0
            },
            {
                "start_time": 5.1886364,
                "end_time": 5.2727273,
                "pitch": 44,
                "velocity": 40,
                "duration": 0.0840909,
                "tempo": 120.0
            },
            {
                "start_time": 5.2909091,
                "end_time": 5.3772727,
                "pitch": 43,
                "velocity": 40,
                "duration": 0.0863636,
                "tempo": 120.0
            },
            {
                "start_time": 5.3931818,
                "end_time": 5.4795455,
                "pitch": 44,
                "velocity": 40,
                "duration": 0.0863636,
                "tempo": 120.0
            },
            {
                "start_time": 5.4954545,
                "end_time": 5.5818182,
                "pitch": 43,
                "velocity": 40,
                "duration": 0.0863636,
                "tempo": 120.0
            },
            {
                "start_time": 5.5977273,
                "end_time": 5.6818182,
                "pitch": 44,
                "velocity": 40,
                "duration": 0.0840909,
                "tempo": 120.0
            },
            {
                "start_time": 5.7,
                "end_time": 5.7818182,
                "pitch": 43,
                "velocity": 40,
                "duration": 0.0818182,
                "tempo": 120.0
            },
            {
                "start_time": 5.8,
                "end_time": 5.8818182,
                "pitch": 44,
                "velocity": 40,
                "duration": 0.0818182,
                "tempo": 120.0
            },
            {
                "start_time": 5.9,
                "end_time": 5.9818182,
                "pitch": 43,
                "velocity": 40,
                "duration": 0.0818182,
                "tempo": 120.0
            },
            {
                "start_time": 6.0,
                "end_time": 6.0795455,
                "pitch": 44,
                "velocity": 40,
                "duration": 0.0795455,
                "tempo": 120.0
            },
            {
                "start_time": 6.0954545,
                "end_time": 6.175,
                "pitch": 43,
                "velocity": 40,
                "duration": 0.0795455,
                "tempo": 120.0
            },
            {
                "start_time": 6.1909091,
                "end_time": 6.2704545,
                "pitch": 44,
                "velocity": 40,
                "duration": 0.0795455,
                "tempo": 120.0
            },
            {
                "start_time": 6.2863636,
                "end_time": 6.3659091,
                "pitch": 43,
                "velocity": 40,
                "duration": 0.0795455,
                "tempo": 120.0
            }
        ],
        "Acoustic Bass": [
            {
                "start_time": 6.5909091,
                "end_time": 6.75,
                "pitch": 39,
                "velocity": 40,
                "duration": 0.1590909,
                "tempo": 120.0
            },
            {
                "start_time": 6.8022727,
                "end_time": 6.9454545,
                "pitch": 43,
                "velocity": 40,
                "duration": 0.1431818,
                "tempo": 120.0
            },
            {
                "start_time": 6.9931818,
                "end_time": 7.1363636,
                "pitch": 39,
                "velocity": 40,
                "duration": 0.1431818,
                "tempo": 120.0
            },
            {
                "start_time": 7.1840909,
                "end_time": 7.3340909,
                "pitch": 38,
                "velocity": 40,
                "duration": 0.15,
                "tempo": 120.0
            },
            {
                "start_time": 7.3840909,
                "end_time": 7.5340909,
                "pitch": 41,
                "velocity": 40,
                "duration": 0.15,
                "tempo": 120.0
            },
            {
                "start_time": 7.5840909,
                "end_time": 7.7340909,
                "pitch": 44,
                "velocity": 40,
                "duration": 0.15,
                "tempo": 120.0
            },
            {
                "start_time": 7.7863636,
                "end_time": 7.9363636,
                "pitch": 38,
                "velocity": 40,
                "duration": 0.15,
                "tempo": 120.0
            },
            {
                "start_time": 7.9863636,
                "end_time": 8.1386364,
                "pitch": 39,
                "velocity": 40,
                "duration": 0.1522727,
                "tempo": 120.0
            },
            {
                "start_time": 8.1886364,
                "end_time": 8.3386364,
                "pitch": 43,
                "velocity": 40,
                "duration": 0.15,
                "tempo": 120.0
            },
            {
                "start_time": 8.3886364,
                "end_time": 8.5409091,
                "pitch": 36,
                "velocity": 40,
                "duration": 0.1522727,
                "tempo": 120.0
            },
            {
                "start_time": 8.5909091,
                "end_time": 8.7409091,
                "pitch": 39,
                "velocity": 40,
                "duration": 0.15,
                "tempo": 120.0
            },
            {
                "start_time": 8.7931818,
                "end_time": 8.9431818,
                "pitch": 41,
                "velocity": 40,
                "duration": 0.15,
                "tempo": 120.0
            },
            {
                "start_time": 8.9931818,
                "end_time": 9.1431818,
                "pitch": 44,
                "velocity": 40,
                "duration": 0.15,
                "tempo": 120.0
            },
            {
                "start_time": 9.1931818,
                "end_time": 9.3431818,
                "pitch": 50,
                "velocity": 40,
                "duration": 0.15,
                "tempo": 120.0
            },
            {
                "start_time": 9.3931818,
                "end_time": 9.5454545,
                "pitch": 41,
                "velocity": 40,
                "duration": 0.1522727,
                "tempo": 120.0
            },
            {
                "start_time": 9.5954545,
                "end_time": 9.7454545,
                "pitch": 39,
                "velocity": 40,
                "duration": 0.15,
                "tempo": 120.0
            },
            {
                "start_time": 9.7954545,
                "end_time": 9.9477273,
                "pitch": 43,
                "velocity": 40,
                "duration": 0.1522727,
                "tempo": 120.0
            },
            {
                "start_time": 9.9977273,
                "end_time": 10.1477273,
                "pitch": 36,
                "velocity": 40,
                "duration": 0.15,
                "tempo": 120.0
            },
            {
                "start_time": 10.2,
                "end_time": 10.35,
                "pitch": 39,
                "velocity": 40,
                "duration": 0.15,
                "tempo": 120.0
            },
            {
                "start_time": 10.4,
                "end_time": 10.5522727,
                "pitch": 38,
                "velocity": 40,
                "duration": 0.1522727,
                "tempo": 120.0
            },
            {
                "start_time": 10.6022727,
                "end_time": 10.7522727,
                "pitch": 41,
                "velocity": 40,
                "duration": 0.15,
                "tempo": 120.0
            },
            {
                "start_time": 10.8022727,
                "end_time": 10.9522727,
                "pitch": 44,
                "velocity": 40,
                "duration": 0.15,
                "tempo": 120.0
            },
            {
                "start_time": 11.0022727,
                "end_time": 11.1522727,
                "pitch": 41,
                "velocity": 40,
                "duration": 0.15,
                "tempo": 120.0
            },
            {
                "start_time": 11.2022727,
                "end_time": 11.3545455,
                "pitch": 36,
                "velocity": 40,
                "duration": 0.1522727,
                "tempo": 120.0
            },
            {
                "start_time": 11.4045455,
                "end_time": 11.5545455,
                "pitch": 39,
                "velocity": 40,
                "duration": 0.15,
                "tempo": 120.0
            },
            {
                "start_time": 11.6045455,
                "end_time": 11.7568182,
                "pitch": 43,
                "velocity": 40,
                "duration": 0.1522727,
                "tempo": 120.0
            },
            {
                "start_time": 11.8068182,
                "end_time": 11.9568182,
                "pitch": 36,
                "velocity": 40,
                "duration": 0.15,
                "tempo": 120.0
            },
            {
                "start_time": 12.0090909,
                "end_time": 12.1590909,
                "pitch": 35,
                "velocity": 40,
                "duration": 0.15,
                "tempo": 120.0
            },
            {
                "start_time": 12.2090909,
                "end_time": 12.3613636,
                "pitch": 38,
                "velocity": 40,
                "duration": 0.1522727,
                "tempo": 120.0
            },
            {
                "start_time": 12.4113636,
                "end_time": 12.5613636,
                "pitch": 41,
                "velocity": 40,
                "duration": 0.15,
                "tempo": 120.0
            },
            {
                "start_time": 12.6113636,
                "end_time": 12.7636364,
                "pitch": 35,
                "velocity": 40,
                "duration": 0.1522727,
                "tempo": 120.0
            },
            {
                "start_time": 12.8136364,
                "end_time": 12.9636364,
                "pitch": 36,
                "velocity": 40,
                "duration": 0.15,
                "tempo": 120.0
            },
            {
                "start_time": 13.0136364,
                "end_time": 13.1636364,
                "pitch": 39,
                "velocity": 40,
                "duration": 0.15,
                "tempo": 120.0
            },
            {
                "start_time": 13.2136364,
                "end_time": 13.3636364,
                "pitch": 43,
                "velocity": 40,
                "duration": 0.15,
                "tempo": 120.0
            },
            {
                "start_time": 13.4159091,
                "end_time": 13.5659091,
                "pitch": 39,
                "velocity": 40,
                "duration": 0.15,
                "tempo": 120.0
            },
            {
                "start_time": 13.6159091,
                "end_time": 13.7681818,
                "pitch": 38,
                "velocity": 40,
                "duration": 0.1522727,
                "tempo": 120.0
            },
            {
                "start_time": 13.8181818,
                "end_time": 13.9681818,
                "pitch": 41,
                "velocity": 40,
                "duration": 0.15,
                "tempo": 120.0
            },
            {
                "start_time": 14.0181818,
                "end_time": 14.1704545,
                "pitch": 44,
                "velocity": 40,
                "duration": 0.1522727,
                "tempo": 120.0
            },
            {
                "start_time": 14.2204545,
                "end_time": 14.3704545,
                "pitch": 38,
                "velocity": 40,
                "duration": 0.15,
                "tempo": 120.0
            },
            {
                "start_time": 14.4227273,
                "end_time": 14.5727273,
                "pitch": 39,
                "velocity": 40,
                "duration": 0.15,
                "tempo": 120.0
            },
            {
                "start_time": 14.6227273,
                "end_time": 14.775,
                "pitch": 43,
                "velocity": 40,
                "duration": 0.1522727,
                "tempo": 120.0
            },
            {
                "start_time": 14.825,
                "end_time": 14.975,
                "pitch": 36,
                "velocity": 40,
                "duration": 0.15,
                "tempo": 120.0
            },
            {
                "start_time": 15.025,
                "end_time": 15.175,
                "pitch": 39,
                "velocity": 40,
                "duration": 0.15,
                "tempo": 120.0
            },
            {
                "start_time": 15.225,
                "end_time": 15.375,
                "pitch": 41,
                "velocity": 40,
                "duration": 0.15,
                "tempo": 120.0
            },
            {
                "start_time": 15.425,
                "end_time": 15.5772727,
                "pitch": 44,
                "velocity": 40,
                "duration": 0.1522727,
                "tempo": 120.0
            },
            {
                "start_time": 15.6272727,
                "end_time": 15.7772727,
                "pitch": 50,
                "velocity": 40,
                "duration": 0.15,
                "tempo": 120.0
            },
            {
                "start_time": 15.8272727,
                "end_time": 15.9795455,
                "pitch": 41,
                "velocity": 40,
                "duration": 0.1522727,
                "tempo": 120.0
            },
            {
                "start_time": 16.0295455,
                "end_time": 16.1818182,
                "pitch": 39,
                "velocity": 40,
                "duration": 0.1522727,
                "tempo": 120.0
            },
            {
                "start_time": 16.2318182,
                "end_time": 16.3818182,
                "pitch": 43,
                "velocity": 40,
                "duration": 0.15,
                "tempo": 120.0
            },
            {
                "start_time": 16.4318182,
                "end_time": 16.5818182,
                "pitch": 36,
                "velocity": 40,
                "duration": 0.15,
                "tempo": 120.0
            },
            {
                "start_time": 16.6318182,
                "end_time": 16.7818182,
                "pitch": 39,
                "velocity": 40,
                "duration": 0.15,
                "tempo": 120.0
            },
            {
                "start_time": 16.8318182,
                "end_time": 16.9840909,
                "pitch": 38,
                "velocity": 40,
                "duration": 0.1522727,
                "tempo": 120.0
            },
            {
                "start_time": 17.0340909,
                "end_time": 17.1840909,
                "pitch": 41,
                "velocity": 40,
                "duration": 0.15,
                "tempo": 120.0
            },
            {
                "start_time": 17.2340909,
                "end_time": 17.3840909,
                "pitch": 44,
                "velocity": 40,
                "duration": 0.15,
                "tempo": 120.0
            },
            {
                "start_time": 17.4340909,
                "end_time": 17.5840909,
                "pitch": 41,
                "velocity": 40,
                "duration": 0.15,
                "tempo": 120.0
            },
            {
                "start_time": 17.6340909,
                "end_time": 17.7840909,
                "pitch": 36,
                "velocity": 40,
                "duration": 0.15,
                "tempo": 120.0
            },
            {
                "start_time": 17.8340909,
                "end_time": 17.9840909,
                "pitch": 39,
                "velocity": 40,
                "duration": 0.15,
                "tempo": 120.0
            },
            {
                "start_time": 18.0340909,
                "end_time": 18.1863636,
                "pitch": 43,
                "velocity": 40,
                "duration": 0.1522727,
                "tempo": 120.0
            },
            {
                "start_time": 18.2363636,
                "end_time": 18.3863636,
                "pitch": 36,
                "velocity": 40,
                "duration": 0.15,
                "tempo": 120.0
            },
            {
                "start_time": 18.4386364,
                "end_time": 18.5886364,
                "pitch": 35,
                "velocity": 40,
                "duration": 0.15,
                "tempo": 120.0
            },
            {
                "start_time": 18.6386364,
                "end_time": 18.7886364,
                "pitch": 38,
                "velocity": 40,
                "duration": 0.15,
                "tempo": 120.0
            },
            {
                "start_time": 18.8386364,
                "end_time": 18.9886364,
                "pitch": 41,
                "velocity": 40,
                "duration": 0.15,
                "tempo": 120.0
            },
            {
                "start_time": 19.0386364,
                "end_time": 19.1909091,
                "pitch": 35,
                "velocity": 40,
                "duration": 0.1522727,
                "tempo": 120.0
            },
            {
                "start_time": 19.2409091,
                "end_time": 19.3909091,
                "pitch": 33,
                "velocity": 40,
                "duration": 0.15,
                "tempo": 120.0
            },
            {
                "start_time": 19.4409091,
                "end_time": 19.5909091,
                "pitch": 36,
                "velocity": 40,
                "duration": 0.15,
                "tempo": 120.0
            },
            {
                "start_time": 19.6409091,
                "end_time": 19.7909091,
                "pitch": 40,
                "velocity": 40,
                "duration": 0.15,
                "tempo": 120.0
            },
            {
                "start_time": 19.8409091,
                "end_time": 19.9909091,
                "pitch": 33,
                "velocity": 40,
                "duration": 0.15,
                "tempo": 120.0
            },
            {
                "start_time": 20.0409091,
                "end_time": 20.1909091,
                "pitch": 35,
                "velocity": 40,
                "duration": 0.15,
                "tempo": 120.0
            },
            {
                "start_time": 20.2409091,
                "end_time": 20.3931818,
                "pitch": 38,
                "velocity": 40,
                "duration": 0.1522727,
                "tempo": 120.0
            },
            {
                "start_time": 20.4431818,
                "end_time": 20.5931818,
                "pitch": 41,
                "velocity": 40,
                "duration": 0.15,
                "tempo": 120.0
            },
            {
                "start_time": 20.6431818,
                "end_time": 20.7931818,
                "pitch": 35,
                "velocity": 40,
                "duration": 0.15,
                "tempo": 120.0
            },
            {
                "start_time": 20.8431818,
                "end_time": 20.9931818,
                "pitch": 36,
                "velocity": 40,
                "duration": 0.15,
                "tempo": 120.0
            },
            {
                "start_time": 21.0454545,
                "end_time": 21.1954545,
                "pitch": 40,
                "velocity": 40,
                "duration": 0.15,
                "tempo": 120.0
            },
            {
                "start_time": 21.2454545,
                "end_time": 21.3954545,
                "pitch": 43,
                "velocity": 40,
                "duration": 0.15,
                "tempo": 120.0
            },
            {
                "start_time": 21.4454545,
                "end_time": 21.5954545,
                "pitch": 36,
                "velocity": 40,
                "duration": 0.15,
                "tempo": 120.0
            },
            {
                "start_time": 21.6454545,
                "end_time": 21.7954545,
                "pitch": 38,
                "velocity": 40,
                "duration": 0.15,
                "tempo": 120.0
            },
            {
                "start_time": 21.8454545,
                "end_time": 21.9954545,
                "pitch": 41,
                "velocity": 40,
                "duration": 0.15,
                "tempo": 120.0
            },
            {
                "start_time": 22.0454545,
                "end_time": 22.1977273,
                "pitch": 45,
                "velocity": 40,
                "duration": 0.1522727,
                "tempo": 120.0
            },
            {
                "start_time": 22.2477273,
                "end_time": 22.3977273,
                "pitch": 38,
                "velocity": 40,
                "duration": 0.15,
                "tempo": 120.0
            },
            {
                "start_time": 22.4477273,
                "end_time": 22.5977273,
                "pitch": 40,
                "velocity": 40,
                "duration": 0.15,
                "tempo": 120.0
            },
            {
                "start_time": 22.6477273,
                "end_time": 22.7977273,
                "pitch": 43,
                "velocity": 40,
                "duration": 0.15,
                "tempo": 120.0
            },
            {
                "start_time": 22.8477273,
                "end_time": 23.0,
                "pitch": 48,
                "velocity": 40,
                "duration": 0.1522727,
                "tempo": 120.0
            },
            {
                "start_time": 23.05,
                "end_time": 23.2,
                "pitch": 40,
                "velocity": 40,
                "duration": 0.15,
                "tempo": 120.0
            },
            {
                "start_time": 23.2522727,
                "end_time": 23.4022727,
                "pitch": 38,
                "velocity": 40,
                "duration": 0.15,
                "tempo": 120.0
            },
            {
                "start_time": 23.4522727,
                "end_time": 23.6022727,
                "pitch": 41,
                "velocity": 40,
                "duration": 0.15,
                "tempo": 120.0
            },
            {
                "start_time": 23.6522727,
                "end_time": 23.8022727,
                "pitch": 47,
                "velocity": 40,
                "duration": 0.15,
                "tempo": 120.0
            },
            {
                "start_time": 23.8522727,
                "end_time": 24.0022727,
                "pitch": 38,
                "velocity": 40,
                "duration": 0.15,
                "tempo": 120.0
            },
            {
                "start_time": 24.0522727,
                "end_time": 24.2022727,
                "pitch": 36,
                "velocity": 40,
                "duration": 0.15,
                "tempo": 120.0
            },
            {
                "start_time": 24.2522727,
                "end_time": 24.4045455,
                "pitch": 40,
                "velocity": 40,
                "duration": 0.1522727,
                "tempo": 120.0
            },
            {
                "start_time": 24.4545455,
                "end_time": 24.6045455,
                "pitch": 45,
                "velocity": 40,
                "duration": 0.15,
                "tempo": 120.0
            },
            {
                "start_time": 24.6545455,
                "end_time": 24.8045455,
                "pitch": 36,
                "velocity": 40,
                "duration": 0.15,
                "tempo": 120.0
            },
            {
                "start_time": 24.8545455,
                "end_time": 25.0045455,
                "pitch": 35,
                "velocity": 40,
                "duration": 0.15,
                "tempo": 120.0
            },
            {
                "start_time": 25.0545455,
                "end_time": 25.2068182,
                "pitch": 38,
                "velocity": 40,
                "duration": 0.1522727,
                "tempo": 120.0
            },
            {
                "start_time": 25.2568182,
                "end_time": 25.4068182,
                "pitch": 43,
                "velocity": 40,
                "duration": 0.15,
                "tempo": 120.0
            },
            {
                "start_time": 25.4568182,
                "end_time": 25.6068182,
                "pitch": 35,
                "velocity": 40,
                "duration": 0.15,
                "tempo": 120.0
            },
            {
                "start_time": 25.6568182,
                "end_time": 25.8068182,
                "pitch": 33,
                "velocity": 40,
                "duration": 0.15,
                "tempo": 120.0
            },
            {
                "start_time": 25.8568182,
                "end_time": 26.0068182,
                "pitch": 36,
                "velocity": 40,
                "duration": 0.15,
                "tempo": 120.0
            },
            {
                "start_time": 26.0568182,
                "end_time": 26.2068182,
                "pitch": 40,
                "velocity": 40,
                "duration": 0.15,
                "tempo": 120.0
            },
            {
                "start_time": 26.2568182,
                "end_time": 26.4090909,
                "pitch": 33,
                "velocity": 40,
                "duration": 0.1522727,
                "tempo": 120.0
            },
            {
                "start_time": 26.4590909,
                "end_time": 26.6090909,
                "pitch": 35,
                "velocity": 40,
                "duration": 0.15,
                "tempo": 120.0
            },
            {
                "start_time": 26.6590909,
                "end_time": 26.8090909,
                "pitch": 38,
                "velocity": 40,
                "duration": 0.15,
                "tempo": 120.0
            },
            {
                "start_time": 26.8590909,
                "end_time": 27.0113636,
                "pitch": 41,
                "velocity": 40,
                "duration": 0.1522727,
                "tempo": 120.0
            },
            {
                "start_time": 27.0613636,
                "end_time": 27.2113636,
                "pitch": 35,
                "velocity": 40,
                "duration": 0.15,
                "tempo": 120.0
            },
            {
                "start_time": 27.2613636,
                "end_time": 27.4113636,
                "pitch": 36,
                "velocity": 40,
                "duration": 0.15,
                "tempo": 120.0
            },
            {
                "start_time": 27.4613636,
                "end_time": 27.6113636,
                "pitch": 40,
                "velocity": 40,
                "duration": 0.15,
                "tempo": 120.0
            },
            {
                "start_time": 27.6613636,
                "end_time": 27.8113636,
                "pitch": 43,
                "velocity": 40,
                "duration": 0.15,
                "tempo": 120.0
            },
            {
                "start_time": 27.8613636,
                "end_time": 28.0113636,
                "pitch": 36,
                "velocity": 40,
                "duration": 0.15,
                "tempo": 120.0
            },
            {
                "start_time": 28.0613636,
                "end_time": 28.2136364,
                "pitch": 38,
                "velocity": 40,
                "duration": 0.1522727,
                "tempo": 120.0
            },
            {
                "start_time": 28.2636364,
                "end_time": 28.4136364,
                "pitch": 41,
                "velocity": 40,
                "duration": 0.15,
                "tempo": 120.0
            },
            {
                "start_time": 28.4636364,
                "end_time": 28.6136364,
                "pitch": 45,
                "velocity": 40,
                "duration": 0.15,
                "tempo": 120.0
            },
            {
                "start_time": 28.6636364,
                "end_time": 28.8136364,
                "pitch": 38,
                "velocity": 40,
                "duration": 0.15,
                "tempo": 120.0
            },
            {
                "start_time": 28.8636364,
                "end_time": 29.0159091,
                "pitch": 40,
                "velocity": 40,
                "duration": 0.1522727,
                "tempo": 120.0
            },
            {
                "start_time": 29.0659091,
                "end_time": 29.2159091,
                "pitch": 43,
                "velocity": 40,
                "duration": 0.15,
                "tempo": 120.0
            },
            {
                "start_time": 29.2681818,
                "end_time": 29.4181818,
                "pitch": 48,
                "velocity": 40,
                "duration": 0.15,
                "tempo": 120.0
            },
            {
                "start_time": 29.4681818,
                "end_time": 29.6181818,
                "pitch": 40,
                "velocity": 40,
                "duration": 0.15,
                "tempo": 120.0
            },
            {
                "start_time": 29.6681818,
                "end_time": 29.8181818,
                "pitch": 38,
                "velocity": 40,
                "duration": 0.15,
                "tempo": 120.0
            },
            {
                "start_time": 29.8681818,
                "end_time": 30.0181818,
                "pitch": 41,
                "velocity": 40,
                "duration": 0.15,
                "tempo": 120.0
            },
            {
                "start_time": 30.0681818,
                "end_time": 30.2181818,
                "pitch": 47,
                "velocity": 40,
                "duration": 0.15,
                "tempo": 120.0
            },
            {
                "start_time": 30.2681818,
                "end_time": 30.4204545,
                "pitch": 38,
                "velocity": 40,
                "duration": 0.1522727,
                "tempo": 120.0
            },
            {
                "start_time": 30.4704545,
                "end_time": 30.6204545,
                "pitch": 36,
                "velocity": 40,
                "duration": 0.15,
                "tempo": 120.0
            },
            {
                "start_time": 30.6704545,
                "end_time": 30.8204545,
                "pitch": 40,
                "velocity": 40,
                "duration": 0.15,
                "tempo": 120.0
            },
            {
                "start_time": 30.8704545,
                "end_time": 31.0204545,
                "pitch": 45,
                "velocity": 40,
                "duration": 0.15,
                "tempo": 120.0
            },
            {
                "start_time": 31.0704545,
                "end_time": 31.2227273,
                "pitch": 36,
                "velocity": 40,
                "duration": 0.1522727,
                "tempo": 120.0
            },
            {
                "start_time": 31.2727273,
                "end_time": 31.4227273,
                "pitch": 35,
                "velocity": 40,
                "duration": 0.15,
                "tempo": 120.0
            },
            {
                "start_time": 31.4727273,
                "end_time": 31.6227273,
                "pitch": 38,
                "velocity": 40,
                "duration": 0.15,
                "tempo": 120.0
            },
            {
                "start_time": 31.6727273,
                "end_time": 31.8227273,
                "pitch": 43,
                "velocity": 40,
                "duration": 0.15,
                "tempo": 120.0
            },
            {
                "start_time": 31.8727273,
                "end_time": 32.0227273,
                "pitch": 35,
                "velocity": 40,
                "duration": 0.15,
                "tempo": 120.0
            },
            {
                "start_time": 32.0886364,
                "end_time": 32.2272727,
                "pitch": 36,
                "velocity": 40,
                "duration": 0.1386364,
                "tempo": 120.0
            },
            {
                "start_time": 32.2772727,
                "end_time": 32.4318182,
                "pitch": 39,
                "velocity": 40,
                "duration": 0.1545455,
                "tempo": 120.0
            },
            {
                "start_time": 32.4840909,
                "end_time": 32.6295455,
                "pitch": 43,
                "velocity": 40,
                "duration": 0.1454545,
                "tempo": 120.0
            },
            {
                "start_time": 32.6795455,
                "end_time": 32.8272727,
                "pitch": 39,
                "velocity": 40,
                "duration": 0.1477273,
                "tempo": 120.0
            },
            {
                "start_time": 32.875,
                "end_time": 33.025,
                "pitch": 38,
                "velocity": 40,
                "duration": 0.15,
                "tempo": 120.0
            },
            {
                "start_time": 33.075,
                "end_time": 33.225,
                "pitch": 41,
                "velocity": 40,
                "duration": 0.15,
                "tempo": 120.0
            },
            {
                "start_time": 33.275,
                "end_time": 33.425,
                "pitch": 44,
                "velocity": 40,
                "duration": 0.15,
                "tempo": 120.0
            },
            {
                "start_time": 33.475,
                "end_time": 33.625,
                "pitch": 38,
                "velocity": 40,
                "duration": 0.15,
                "tempo": 120.0
            },
            {
                "start_time": 33.675,
                "end_time": 33.825,
                "pitch": 39,
                "velocity": 40,
                "duration": 0.15,
                "tempo": 120.0
            },
            {
                "start_time": 33.875,
                "end_time": 34.025,
                "pitch": 43,
                "velocity": 40,
                "duration": 0.15,
                "tempo": 120.0
            },
            {
                "start_time": 34.075,
                "end_time": 34.225,
                "pitch": 36,
                "velocity": 40,
                "duration": 0.15,
                "tempo": 120.0
            },
            {
                "start_time": 34.275,
                "end_time": 34.425,
                "pitch": 39,
                "velocity": 40,
                "duration": 0.15,
                "tempo": 120.0
            },
            {
                "start_time": 34.475,
                "end_time": 34.6272727,
                "pitch": 41,
                "velocity": 40,
                "duration": 0.1522727,
                "tempo": 120.0
            },
            {
                "start_time": 34.6772727,
                "end_time": 34.8272727,
                "pitch": 44,
                "velocity": 40,
                "duration": 0.15,
                "tempo": 120.0
            },
            {
                "start_time": 34.8772727,
                "end_time": 35.0272727,
                "pitch": 50,
                "velocity": 40,
                "duration": 0.15,
                "tempo": 120.0
            },
            {
                "start_time": 35.0772727,
                "end_time": 35.2272727,
                "pitch": 41,
                "velocity": 40,
                "duration": 0.15,
                "tempo": 120.0
            },
            {
                "start_time": 35.2772727,
                "end_time": 35.4272727,
                "pitch": 39,
                "velocity": 40,
                "duration": 0.15,
                "tempo": 120.0
            },
            {
                "start_time": 35.4772727,
                "end_time": 35.6272727,
                "pitch": 43,
                "velocity": 40,
                "duration": 0.15,
                "tempo": 120.0
            },
            {
                "start_time": 35.6772727,
                "end_time": 35.8272727,
                "pitch": 36,
                "velocity": 40,
                "duration": 0.15,
                "tempo": 120.0
            },
            {
                "start_time": 35.8772727,
                "end_time": 36.0272727,
                "pitch": 39,
                "velocity": 40,
                "duration": 0.15,
                "tempo": 120.0
            },
            {
                "start_time": 36.0772727,
                "end_time": 36.2272727,
                "pitch": 38,
                "velocity": 40,
                "duration": 0.15,
                "tempo": 120.0
            },
            {
                "start_time": 36.2772727,
                "end_time": 36.4272727,
                "pitch": 41,
                "velocity": 40,
                "duration": 0.15,
                "tempo": 120.0
            },
            {
                "start_time": 36.4772727,
                "end_time": 36.6295455,
                "pitch": 44,
                "velocity": 40,
                "duration": 0.1522727,
                "tempo": 120.0
            },
            {
                "start_time": 36.6795455,
                "end_time": 36.8295455,
                "pitch": 41,
                "velocity": 40,
                "duration": 0.15,
                "tempo": 120.0
            },
            {
                "start_time": 36.8818182,
                "end_time": 37.0318182,
                "pitch": 36,
                "velocity": 40,
                "duration": 0.15,
                "tempo": 120.0
            },
            {
                "start_time": 37.0818182,
                "end_time": 37.2318182,
                "pitch": 39,
                "velocity": 40,
                "duration": 0.15,
                "tempo": 120.0
            },
            {
                "start_time": 37.2818182,
                "end_time": 37.4318182,
                "pitch": 43,
                "velocity": 40,
                "duration": 0.15,
                "tempo": 120.0
            },
            {
                "start_time": 37.4818182,
                "end_time": 37.6318182,
                "pitch": 36,
                "velocity": 40,
                "duration": 0.15,
                "tempo": 120.0
            },
            {
                "start_time": 37.6818182,
                "end_time": 37.8318182,
                "pitch": 35,
                "velocity": 40,
                "duration": 0.15,
                "tempo": 120.0
            },
            {
                "start_time": 37.8818182,
                "end_time": 38.0318182,
                "pitch": 38,
                "velocity": 40,
                "duration": 0.15,
                "tempo": 120.0
            },
            {
                "start_time": 38.0818182,
                "end_time": 38.2318182,
                "pitch": 41,
                "velocity": 40,
                "duration": 0.15,
                "tempo": 120.0
            },
            {
                "start_time": 38.2818182,
                "end_time": 38.4318182,
                "pitch": 35,
                "velocity": 40,
                "duration": 0.15,
                "tempo": 120.0
            },
            {
                "start_time": 38.4818182,
                "end_time": 38.6318182,
                "pitch": 36,
                "velocity": 40,
                "duration": 0.15,
                "tempo": 120.0
            },
            {
                "start_time": 38.6818182,
                "end_time": 38.8340909,
                "pitch": 39,
                "velocity": 40,
                "duration": 0.1522727,
                "tempo": 120.0
            },
            {
                "start_time": 38.8840909,
                "end_time": 39.0340909,
                "pitch": 43,
                "velocity": 40,
                "duration": 0.15,
                "tempo": 120.0
            },
            {
                "start_time": 39.0840909,
                "end_time": 39.2340909,
                "pitch": 39,
                "velocity": 40,
                "duration": 0.15,
                "tempo": 120.0
            },
            {
                "start_time": 39.2840909,
                "end_time": 39.4340909,
                "pitch": 38,
                "velocity": 40,
                "duration": 0.15,
                "tempo": 120.0
            },
            {
                "start_time": 39.4840909,
                "end_time": 39.6340909,
                "pitch": 41,
                "velocity": 40,
                "duration": 0.15,
                "tempo": 120.0
            },
            {
                "start_time": 39.6840909,
                "end_time": 39.8340909,
                "pitch": 44,
                "velocity": 40,
                "duration": 0.15,
                "tempo": 120.0
            },
            {
                "start_time": 39.8840909,
                "end_time": 40.0340909,
                "pitch": 38,
                "velocity": 40,
                "duration": 0.15,
                "tempo": 120.0
            },
            {
                "start_time": 40.0840909,
                "end_time": 40.2340909,
                "pitch": 39,
                "velocity": 40,
                "duration": 0.15,
                "tempo": 120.0
            },
            {
                "start_time": 40.2840909,
                "end_time": 40.4340909,
                "pitch": 43,
                "velocity": 40,
                "duration": 0.15,
                "tempo": 120.0
            },
            {
                "start_time": 40.4840909,
                "end_time": 40.6340909,
                "pitch": 36,
                "velocity": 40,
                "duration": 0.15,
                "tempo": 120.0
            },
            {
                "start_time": 40.6840909,
                "end_time": 40.8363636,
                "pitch": 39,
                "velocity": 40,
                "duration": 0.1522727,
                "tempo": 120.0
            },
            {
                "start_time": 40.8863636,
                "end_time": 41.0363636,
                "pitch": 41,
                "velocity": 40,
                "duration": 0.15,
                "tempo": 120.0
            },
            {
                "start_time": 41.0863636,
                "end_time": 41.2363636,
                "pitch": 44,
                "velocity": 40,
                "duration": 0.15,
                "tempo": 120.0
            },
            {
                "start_time": 41.2863636,
                "end_time": 41.4363636,
                "pitch": 50,
                "velocity": 40,
                "duration": 0.15,
                "tempo": 120.0
            },
            {
                "start_time": 41.4863636,
                "end_time": 41.6363636,
                "pitch": 41,
                "velocity": 40,
                "duration": 0.15,
                "tempo": 120.0
            },
            {
                "start_time": 41.6863636,
                "end_time": 41.8363636,
                "pitch": 39,
                "velocity": 40,
                "duration": 0.15,
                "tempo": 120.0
            },
            {
                "start_time": 41.8863636,
                "end_time": 42.0363636,
                "pitch": 43,
                "velocity": 40,
                "duration": 0.15,
                "tempo": 120.0
            },
            {
                "start_time": 42.0863636,
                "end_time": 42.2363636,
                "pitch": 36,
                "velocity": 40,
                "duration": 0.15,
                "tempo": 120.0
            },
            {
                "start_time": 42.2863636,
                "end_time": 42.4363636,
                "pitch": 39,
                "velocity": 40,
                "duration": 0.15,
                "tempo": 120.0
            },
            {
                "start_time": 42.4863636,
                "end_time": 42.6363636,
                "pitch": 38,
                "velocity": 40,
                "duration": 0.15,
                "tempo": 120.0
            },
            {
                "start_time": 42.6886364,
                "end_time": 42.8386364,
                "pitch": 41,
                "velocity": 40,
                "duration": 0.15,
                "tempo": 120.0
            },
            {
                "start_time": 42.8886364,
                "end_time": 43.0386364,
                "pitch": 44,
                "velocity": 40,
                "duration": 0.15,
                "tempo": 120.0
            },
            {
                "start_time": 43.0886364,
                "end_time": 43.2386364,
                "pitch": 41,
                "velocity": 40,
                "duration": 0.15,
                "tempo": 120.0
            },
            {
                "start_time": 43.2886364,
                "end_time": 43.4386364,
                "pitch": 36,
                "velocity": 40,
                "duration": 0.15,
                "tempo": 120.0
            },
            {
                "start_time": 43.4886364,
                "end_time": 43.6386364,
                "pitch": 39,
                "velocity": 40,
                "duration": 0.15,
                "tempo": 120.0
            },
            {
                "start_time": 43.6886364,
                "end_time": 43.8386364,
                "pitch": 43,
                "velocity": 40,
                "duration": 0.15,
                "tempo": 120.0
            },
            {
                "start_time": 43.8886364,
                "end_time": 44.0386364,
                "pitch": 36,
                "velocity": 40,
                "duration": 0.15,
                "tempo": 120.0
            },
            {
                "start_time": 44.0886364,
                "end_time": 44.2386364,
                "pitch": 35,
                "velocity": 40,
                "duration": 0.15,
                "tempo": 120.0
            },
            {
                "start_time": 44.2886364,
                "end_time": 44.4386364,
                "pitch": 38,
                "velocity": 40,
                "duration": 0.15,
                "tempo": 120.0
            },
            {
                "start_time": 44.4886364,
                "end_time": 44.6409091,
                "pitch": 41,
                "velocity": 40,
                "duration": 0.1522727,
                "tempo": 120.0
            },
            {
                "start_time": 44.6909091,
                "end_time": 44.8409091,
                "pitch": 35,
                "velocity": 40,
                "duration": 0.15,
                "tempo": 120.0
            },
            {
                "start_time": 44.8909091,
                "end_time": 45.0409091,
                "pitch": 33,
                "velocity": 40,
                "duration": 0.15,
                "tempo": 120.0
            },
            {
                "start_time": 45.0909091,
                "end_time": 45.2409091,
                "pitch": 36,
                "velocity": 40,
                "duration": 0.15,
                "tempo": 120.0
            },
            {
                "start_time": 45.2909091,
                "end_time": 45.4409091,
                "pitch": 40,
                "velocity": 40,
                "duration": 0.15,
                "tempo": 120.0
            },
            {
                "start_time": 45.4909091,
                "end_time": 45.6409091,
                "pitch": 33,
                "velocity": 40,
                "duration": 0.15,
                "tempo": 120.0
            },
            {
                "start_time": 45.6909091,
                "end_time": 45.8409091,
                "pitch": 35,
                "velocity": 40,
                "duration": 0.15,
                "tempo": 120.0
            },
            {
                "start_time": 45.8909091,
                "end_time": 46.0409091,
                "pitch": 38,
                "velocity": 40,
                "duration": 0.15,
                "tempo": 120.0
            },
            {
                "start_time": 46.0909091,
                "end_time": 46.2409091,
                "pitch": 41,
                "velocity": 40,
                "duration": 0.15,
                "tempo": 120.0
            },
            {
                "start_time": 46.2909091,
                "end_time": 46.4409091,
                "pitch": 35,
                "velocity": 40,
                "duration": 0.15,
                "tempo": 120.0
            },
            {
                "start_time": 46.4909091,
                "end_time": 46.6431818,
                "pitch": 36,
                "velocity": 40,
                "duration": 0.1522727,
                "tempo": 120.0
            },
            {
                "start_time": 46.6931818,
                "end_time": 46.8431818,
                "pitch": 40,
                "velocity": 40,
                "duration": 0.15,
                "tempo": 120.0
            },
            {
                "start_time": 46.8954545,
                "end_time": 47.0454545,
                "pitch": 43,
                "velocity": 40,
                "duration": 0.15,
                "tempo": 120.0
            },
            {
                "start_time": 47.0954545,
                "end_time": 47.2454545,
                "pitch": 36,
                "velocity": 40,
                "duration": 0.15,
                "tempo": 120.0
            },
            {
                "start_time": 47.2954545,
                "end_time": 47.4454545,
                "pitch": 38,
                "velocity": 40,
                "duration": 0.15,
                "tempo": 120.0
            },
            {
                "start_time": 47.4954545,
                "end_time": 47.6454545,
                "pitch": 41,
                "velocity": 40,
                "duration": 0.15,
                "tempo": 120.0
            },
            {
                "start_time": 47.6954545,
                "end_time": 47.8454545,
                "pitch": 45,
                "velocity": 40,
                "duration": 0.15,
                "tempo": 120.0
            },
            {
                "start_time": 47.8954545,
                "end_time": 48.0454545,
                "pitch": 38,
                "velocity": 40,
                "duration": 0.15,
                "tempo": 120.0
            },
            {
                "start_time": 48.0954545,
                "end_time": 48.2454545,
                "pitch": 40,
                "velocity": 40,
                "duration": 0.15,
                "tempo": 120.0
            },
            {
                "start_time": 48.2954545,
                "end_time": 48.4454545,
                "pitch": 43,
                "velocity": 40,
                "duration": 0.15,
                "tempo": 120.0
            },
            {
                "start_time": 48.4954545,
                "end_time": 48.6454545,
                "pitch": 48,
                "velocity": 40,
                "duration": 0.15,
                "tempo": 120.0
            },
            {
                "start_time": 48.6954545,
                "end_time": 48.8477273,
                "pitch": 40,
                "velocity": 40,
                "duration": 0.1522727,
                "tempo": 120.0
            },
            {
                "start_time": 48.8977273,
                "end_time": 49.0477273,
                "pitch": 38,
                "velocity": 40,
                "duration": 0.15,
                "tempo": 120.0
            },
            {
                "start_time": 49.0977273,
                "end_time": 49.2477273,
                "pitch": 41,
                "velocity": 40,
                "duration": 0.15,
                "tempo": 120.0
            },
            {
                "start_time": 49.2977273,
                "end_time": 49.4477273,
                "pitch": 47,
                "velocity": 40,
                "duration": 0.15,
                "tempo": 120.0
            },
            {
                "start_time": 49.4977273,
                "end_time": 49.6477273,
                "pitch": 38,
                "velocity": 40,
                "duration": 0.15,
                "tempo": 120.0
            },
            {
                "start_time": 49.6977273,
                "end_time": 49.8477273,
                "pitch": 36,
                "velocity": 40,
                "duration": 0.15,
                "tempo": 120.0
            },
            {
                "start_time": 49.8977273,
                "end_time": 50.0477273,
                "pitch": 40,
                "velocity": 40,
                "duration": 0.15,
                "tempo": 120.0
            },
            {
                "start_time": 50.0977273,
                "end_time": 50.2477273,
                "pitch": 45,
                "velocity": 40,
                "duration": 0.15,
                "tempo": 120.0
            },
            {
                "start_time": 50.2977273,
                "end_time": 50.4477273,
                "pitch": 36,
                "velocity": 40,
                "duration": 0.15,
                "tempo": 120.0
            },
            {
                "start_time": 50.4977273,
                "end_time": 50.6477273,
                "pitch": 35,
                "velocity": 40,
                "duration": 0.15,
                "tempo": 120.0
            },
            {
                "start_time": 50.6977273,
                "end_time": 50.85,
                "pitch": 38,
                "velocity": 40,
                "duration": 0.1522727,
                "tempo": 120.0
            },
            {
                "start_time": 50.9,
                "end_time": 51.05,
                "pitch": 43,
                "velocity": 40,
                "duration": 0.15,
                "tempo": 120.0
            },
            {
                "start_time": 51.1,
                "end_time": 51.25,
                "pitch": 35,
                "velocity": 40,
                "duration": 0.15,
                "tempo": 120.0
            },
            {
                "start_time": 51.3,
                "end_time": 51.45,
                "pitch": 33,
                "velocity": 40,
                "duration": 0.15,
                "tempo": 120.0
            },
            {
                "start_time": 51.5,
                "end_time": 51.65,
                "pitch": 36,
                "velocity": 40,
                "duration": 0.15,
                "tempo": 120.0
            },
            {
                "start_time": 51.7,
                "end_time": 51.85,
                "pitch": 40,
                "velocity": 40,
                "duration": 0.15,
                "tempo": 120.0
            },
            {
                "start_time": 51.9,
                "end_time": 52.05,
                "pitch": 33,
                "velocity": 40,
                "duration": 0.15,
                "tempo": 120.0
            },
            {
                "start_time": 52.1,
                "end_time": 52.25,
                "pitch": 35,
                "velocity": 40,
                "duration": 0.15,
                "tempo": 120.0
            },
            {
                "start_time": 52.3,
                "end_time": 52.45,
                "pitch": 38,
                "velocity": 40,
                "duration": 0.15,
                "tempo": 120.0
            },
            {
                "start_time": 52.5,
                "end_time": 52.65,
                "pitch": 41,
                "velocity": 40,
                "duration": 0.15,
                "tempo": 120.0
            },
            {
                "start_time": 52.7,
                "end_time": 52.8522727,
                "pitch": 35,
                "velocity": 40,
                "duration": 0.1522727,
                "tempo": 120.0
            },
            {
                "start_time": 52.9022727,
                "end_time": 53.0522727,
                "pitch": 36,
                "velocity": 40,
                "duration": 0.15,
                "tempo": 120.0
            },
            {
                "start_time": 53.1022727,
                "end_time": 53.2522727,
                "pitch": 40,
                "velocity": 40,
                "duration": 0.15,
                "tempo": 120.0
            },
            {
                "start_time": 53.3022727,
                "end_time": 53.4522727,
                "pitch": 43,
                "velocity": 40,
                "duration": 0.15,
                "tempo": 120.0
            },
            {
                "start_time": 53.5022727,
                "end_time": 53.6522727,
                "pitch": 36,
                "velocity": 40,
                "duration": 0.15,
                "tempo": 120.0
            },
            {
                "start_time": 53.7022727,
                "end_time": 53.8522727,
                "pitch": 38,
                "velocity": 40,
                "duration": 0.15,
                "tempo": 120.0
            },
            {
                "start_time": 53.9022727,
                "end_time": 54.0522727,
                "pitch": 41,
                "velocity": 40,
                "duration": 0.15,
                "tempo": 120.0
            },
            {
                "start_time": 54.1022727,
                "end_time": 54.2522727,
                "pitch": 45,
                "velocity": 40,
                "duration": 0.15,
                "tempo": 120.0
            },
            {
                "start_time": 54.3022727,
                "end_time": 54.4522727,
                "pitch": 38,
                "velocity": 40,
                "duration": 0.15,
                "tempo": 120.0
            },
            {
                "start_time": 54.5022727,
                "end_time": 54.6522727,
                "pitch": 40,
                "velocity": 40,
                "duration": 0.15,
                "tempo": 120.0
            },
            {
                "start_time": 54.7045455,
                "end_time": 54.8545455,
                "pitch": 43,
                "velocity": 40,
                "duration": 0.15,
                "tempo": 120.0
            },
            {
                "start_time": 54.9045455,
                "end_time": 55.0545455,
                "pitch": 48,
                "velocity": 40,
                "duration": 0.15,
                "tempo": 120.0
            },
            {
                "start_time": 55.1045455,
                "end_time": 55.2545455,
                "pitch": 40,
                "velocity": 40,
                "duration": 0.15,
                "tempo": 120.0
            },
            {
                "start_time": 55.3045455,
                "end_time": 55.4545455,
                "pitch": 38,
                "velocity": 40,
                "duration": 0.15,
                "tempo": 120.0
            },
            {
                "start_time": 55.5045455,
                "end_time": 55.6545455,
                "pitch": 41,
                "velocity": 40,
                "duration": 0.15,
                "tempo": 120.0
            },
            {
                "start_time": 55.7045455,
                "end_time": 55.8545455,
                "pitch": 47,
                "velocity": 40,
                "duration": 0.15,
                "tempo": 120.0
            },
            {
                "start_time": 55.9045455,
                "end_time": 56.0545455,
                "pitch": 38,
                "velocity": 40,
                "duration": 0.15,
                "tempo": 120.0
            },
            {
                "start_time": 56.1045455,
                "end_time": 56.2545455,
                "pitch": 36,
                "velocity": 40,
                "duration": 0.15,
                "tempo": 120.0
            },
            {
                "start_time": 56.3045455,
                "end_time": 56.4545455,
                "pitch": 40,
                "velocity": 40,
                "duration": 0.15,
                "tempo": 120.0
            },
            {
                "start_time": 56.5045455,
                "end_time": 56.6568182,
                "pitch": 45,
                "velocity": 40,
                "duration": 0.1522727,
                "tempo": 120.0
            },
            {
                "start_time": 56.7068182,
                "end_time": 56.8568182,
                "pitch": 36,
                "velocity": 40,
                "duration": 0.15,
                "tempo": 120.0
            },
            {
                "start_time": 56.9068182,
                "end_time": 57.0568182,
                "pitch": 35,
                "velocity": 40,
                "duration": 0.15,
                "tempo": 120.0
            },
            {
                "start_time": 57.1068182,
                "end_time": 57.2568182,
                "pitch": 38,
                "velocity": 40,
                "duration": 0.15,
                "tempo": 120.0
            },
            {
                "start_time": 57.3068182,
                "end_time": 57.4568182,
                "pitch": 43,
                "velocity": 40,
                "duration": 0.15,
                "tempo": 120.0
            },
            {
                "start_time": 57.5068182,
                "end_time": 57.6568182,
                "pitch": 35,
                "velocity": 40,
                "duration": 0.15,
                "tempo": 120.0
            },
            {
                "start_time": 57.7068182,
                "end_time": 57.8568182,
                "pitch": 36,
                "velocity": 40,
                "duration": 0.15,
                "tempo": 120.0
            },
            {
                "start_time": 57.9068182,
                "end_time": 58.0568182,
                "pitch": 40,
                "velocity": 40,
                "duration": 0.15,
                "tempo": 120.0
            },
            {
                "start_time": 58.1068182,
                "end_time": 58.2568182,
                "pitch": 45,
                "velocity": 40,
                "duration": 0.15,
                "tempo": 120.0
            },
            {
                "start_time": 58.3068182,
                "end_time": 58.4568182,
                "pitch": 40,
                "velocity": 40,
                "duration": 0.15,
                "tempo": 120.0
            },
            {
                "start_time": 58.5068182,
                "end_time": 58.6590909,
                "pitch": 35,
                "velocity": 40,
                "duration": 0.1522727,
                "tempo": 120.0
            },
            {
                "start_time": 58.7090909,
                "end_time": 58.8590909,
                "pitch": 38,
                "velocity": 40,
                "duration": 0.15,
                "tempo": 120.0
            },
            {
                "start_time": 58.9113636,
                "end_time": 59.0613636,
                "pitch": 43,
                "velocity": 40,
                "duration": 0.15,
                "tempo": 120.0
            },
            {
                "start_time": 59.1113636,
                "end_time": 59.2613636,
                "pitch": 38,
                "velocity": 40,
                "duration": 0.15,
                "tempo": 120.0
            },
            {
                "start_time": 59.3113636,
                "end_time": 59.4613636,
                "pitch": 38,
                "velocity": 40,
                "duration": 0.15,
                "tempo": 120.0
            },
            {
                "start_time": 59.5113636,
                "end_time": 59.6613636,
                "pitch": 42,
                "velocity": 40,
                "duration": 0.15,
                "tempo": 120.0
            },
            {
                "start_time": 59.7113636,
                "end_time": 59.8613636,
                "pitch": 47,
                "velocity": 40,
                "duration": 0.15,
                "tempo": 120.0
            },
            {
                "start_time": 59.9113636,
                "end_time": 60.0613636,
                "pitch": 42,
                "velocity": 40,
                "duration": 0.15,
                "tempo": 120.0
            },
            {
                "start_time": 60.1113636,
                "end_time": 60.2613636,
                "pitch": 40,
                "velocity": 40,
                "duration": 0.15,
                "tempo": 120.0
            },
            {
                "start_time": 60.3113636,
                "end_time": 60.4613636,
                "pitch": 44,
                "velocity": 40,
                "duration": 0.15,
                "tempo": 120.0
            },
            {
                "start_time": 60.5113636,
                "end_time": 60.6613636,
                "pitch": 47,
                "velocity": 40,
                "duration": 0.15,
                "tempo": 120.0
            },
            {
                "start_time": 60.7113636,
                "end_time": 60.8636364,
                "pitch": 44,
                "velocity": 40,
                "duration": 0.1522727,
                "tempo": 120.0
            },
            {
                "start_time": 60.9136364,
                "end_time": 61.0636364,
                "pitch": 36,
                "velocity": 40,
                "duration": 0.15,
                "tempo": 120.0
            },
            {
                "start_time": 61.1136364,
                "end_time": 61.2636364,
                "pitch": 40,
                "velocity": 40,
                "duration": 0.15,
                "tempo": 120.0
            },
            {
                "start_time": 61.3136364,
                "end_time": 61.4636364,
                "pitch": 45,
                "velocity": 40,
                "duration": 0.15,
                "tempo": 120.0
            },
            {
                "start_time": 61.5136364,
                "end_time": 61.6636364,
                "pitch": 40,
                "velocity": 40,
                "duration": 0.15,
                "tempo": 120.0
            },
            {
                "start_time": 61.7136364,
                "end_time": 61.8636364,
                "pitch": 35,
                "velocity": 40,
                "duration": 0.15,
                "tempo": 120.0
            },
            {
                "start_time": 61.9136364,
                "end_time": 62.0636364,
                "pitch": 38,
                "velocity": 40,
                "duration": 0.15,
                "tempo": 120.0
            },
            {
                "start_time": 62.1136364,
                "end_time": 62.2636364,
                "pitch": 43,
                "velocity": 40,
                "duration": 0.15,
                "tempo": 120.0
            },
            {
                "start_time": 62.3136364,
                "end_time": 62.4636364,
                "pitch": 38,
                "velocity": 40,
                "duration": 0.15,
                "tempo": 120.0
            },
            {
                "start_time": 62.5136364,
                "end_time": 62.6636364,
                "pitch": 33,
                "velocity": 40,
                "duration": 0.15,
                "tempo": 120.0
            },
            {
                "start_time": 62.7136364,
                "end_time": 62.8659091,
                "pitch": 36,
                "velocity": 40,
                "duration": 0.1522727,
                "tempo": 120.0
            },
            {
                "start_time": 62.9159091,
                "end_time": 63.0659091,
                "pitch": 43,
                "velocity": 40,
                "duration": 0.15,
                "tempo": 120.0
            },
            {
                "start_time": 63.1159091,
                "end_time": 63.2659091,
                "pitch": 36,
                "velocity": 40,
                "duration": 0.15,
                "tempo": 120.0
            },
            {
                "start_time": 63.3159091,
                "end_time": 63.4659091,
                "pitch": 32,
                "velocity": 40,
                "duration": 0.15,
                "tempo": 120.0
            },
            {
                "start_time": 63.5159091,
                "end_time": 63.6659091,
                "pitch": 35,
                "velocity": 40,
                "duration": 0.15,
                "tempo": 120.0
            },
            {
                "start_time": 63.7159091,
                "end_time": 63.8659091,
                "pitch": 38,
                "velocity": 40,
                "duration": 0.15,
                "tempo": 120.0
            },
            {
                "start_time": 63.9159091,
                "end_time": 64.0659091,
                "pitch": 35,
                "velocity": 40,
                "duration": 0.15,
                "tempo": 120.0
            },
            {
                "start_time": 64.1159091,
                "end_time": 64.2659091,
                "pitch": 36,
                "velocity": 40,
                "duration": 0.15,
                "tempo": 120.0
            },
            {
                "start_time": 64.3159091,
                "end_time": 64.4659091,
                "pitch": 40,
                "velocity": 40,
                "duration": 0.15,
                "tempo": 120.0
            },
            {
                "start_time": 64.5159091,
                "end_time": 64.6659091,
                "pitch": 45,
                "velocity": 40,
                "duration": 0.15,
                "tempo": 120.0
            },
            {
                "start_time": 64.7159091,
                "end_time": 64.8659091,
                "pitch": 40,
                "velocity": 40,
                "duration": 0.15,
                "tempo": 120.0
            },
            {
                "start_time": 64.9159091,
                "end_time": 65.0659091,
                "pitch": 35,
                "velocity": 40,
                "duration": 0.15,
                "tempo": 120.0
            },
            {
                "start_time": 65.1181818,
                "end_time": 65.2681818,
                "pitch": 38,
                "velocity": 40,
                "duration": 0.15,
                "tempo": 120.0
            },
            {
                "start_time": 65.3181818,
                "end_time": 65.4704545,
                "pitch": 43,
                "velocity": 40,
                "duration": 0.1522727,
                "tempo": 120.0
            },
            {
                "start_time": 65.5204545,
                "end_time": 65.6704545,
                "pitch": 38,
                "velocity": 40,
                "duration": 0.15,
                "tempo": 120.0
            },
            {
                "start_time": 65.7204545,
                "end_time": 65.8704545,
                "pitch": 38,
                "velocity": 40,
                "duration": 0.15,
                "tempo": 120.0
            },
            {
                "start_time": 65.9204545,
                "end_time": 66.0704545,
                "pitch": 42,
                "velocity": 40,
                "duration": 0.15,
                "tempo": 120.0
            },
            {
                "start_time": 66.1204545,
                "end_time": 66.2727273,
                "pitch": 47,
                "velocity": 40,
                "duration": 0.1522727,
                "tempo": 120.0
            },
            {
                "start_time": 66.3227273,
                "end_time": 66.4727273,
                "pitch": 42,
                "velocity": 40,
                "duration": 0.15,
                "tempo": 120.0
            },
            {
                "start_time": 66.5227273,
                "end_time": 66.6727273,
                "pitch": 40,
                "velocity": 40,
                "duration": 0.15,
                "tempo": 120.0
            },
            {
                "start_time": 66.7227273,
                "end_time": 66.8727273,
                "pitch": 44,
                "velocity": 40,
                "duration": 0.15,
                "tempo": 120.0
            },
            {
                "start_time": 66.925,
                "end_time": 67.075,
                "pitch": 47,
                "velocity": 40,
                "duration": 0.15,
                "tempo": 120.0
            },
            {
                "start_time": 67.125,
                "end_time": 67.2772727,
                "pitch": 44,
                "velocity": 40,
                "duration": 0.1522727,
                "tempo": 120.0
            },
            {
                "start_time": 67.3272727,
                "end_time": 67.4772727,
                "pitch": 36,
                "velocity": 40,
                "duration": 0.15,
                "tempo": 120.0
            },
            {
                "start_time": 67.5272727,
                "end_time": 67.6795455,
                "pitch": 40,
                "velocity": 40,
                "duration": 0.1522727,
                "tempo": 120.0
            },
            {
                "start_time": 67.7295455,
                "end_time": 67.8795455,
                "pitch": 45,
                "velocity": 40,
                "duration": 0.15,
                "tempo": 120.0
            },
            {
                "start_time": 67.9295455,
                "end_time": 68.0795455,
                "pitch": 40,
                "velocity": 40,
                "duration": 0.15,
                "tempo": 120.0
            },
            {
                "start_time": 68.1295455,
                "end_time": 68.2795455,
                "pitch": 35,
                "velocity": 40,
                "duration": 0.15,
                "tempo": 120.0
            },
            {
                "start_time": 68.3295455,
                "end_time": 68.4818182,
                "pitch": 38,
                "velocity": 40,
                "duration": 0.1522727,
                "tempo": 120.0
            },
            {
                "start_time": 68.5318182,
                "end_time": 68.6818182,
                "pitch": 43,
                "velocity": 40,
                "duration": 0.15,
                "tempo": 120.0
            },
            {
                "start_time": 68.7318182,
                "end_time": 68.8818182,
                "pitch": 38,
                "velocity": 40,
                "duration": 0.15,
                "tempo": 120.0
            },
            {
                "start_time": 68.9318182,
                "end_time": 69.0818182,
                "pitch": 33,
                "velocity": 40,
                "duration": 0.15,
                "tempo": 120.0
            },
            {
                "start_time": 69.1340909,
                "end_time": 69.2840909,
                "pitch": 36,
                "velocity": 40,
                "duration": 0.15,
                "tempo": 120.0
            },
            {
                "start_time": 69.3340909,
                "end_time": 69.4863636,
                "pitch": 43,
                "velocity": 40,
                "duration": 0.1522727,
                "tempo": 120.0
            },
            {
                "start_time": 69.5363636,
                "end_time": 69.6863636,
                "pitch": 36,
                "velocity": 40,
                "duration": 0.15,
                "tempo": 120.0
            },
            {
                "start_time": 69.7363636,
                "end_time": 69.8863636,
                "pitch": 35,
                "velocity": 40,
                "duration": 0.15,
                "tempo": 120.0
            },
            {
                "start_time": 69.9363636,
                "end_time": 70.0863636,
                "pitch": 38,
                "velocity": 40,
                "duration": 0.15,
                "tempo": 120.0
            },
            {
                "start_time": 70.1363636,
                "end_time": 70.2886364,
                "pitch": 43,
                "velocity": 40,
                "duration": 0.1522727,
                "tempo": 120.0
            },
            {
                "start_time": 70.3386364,
                "end_time": 70.4886364,
                "pitch": 38,
                "velocity": 40,
                "duration": 0.15,
                "tempo": 120.0
            },
            {
                "start_time": 70.5409091,
                "end_time": 71.1863636,
                "pitch": 44,
                "velocity": 64,
                "duration": 0.6454545,
                "tempo": 120.0
            },
            {
                "start_time": 83.3863636,
                "end_time": 83.5363636,
                "pitch": 44,
                "velocity": 51,
                "duration": 0.15,
                "tempo": 120.0
            },
            {
                "start_time": 83.5886364,
                "end_time": 83.7386364,
                "pitch": 44,
                "velocity": 51,
                "duration": 0.15,
                "tempo": 120.0
            },
            {
                "start_time": 83.7886364,
                "end_time": 83.9431818,
                "pitch": 44,
                "velocity": 51,
                "duration": 0.1545455,
                "tempo": 120.0
            },
            {
                "start_time": 83.9954545,
                "end_time": 84.1477273,
                "pitch": 44,
                "velocity": 51,
                "duration": 0.1522727,
                "tempo": 120.0
            },
            {
                "start_time": 84.2,
                "end_time": 84.35,
                "pitch": 44,
                "velocity": 51,
                "duration": 0.15,
                "tempo": 120.0
            },
            {
                "start_time": 84.4,
                "end_time": 84.55,
                "pitch": 44,
                "velocity": 51,
                "duration": 0.15,
                "tempo": 120.0
            },
            {
                "start_time": 84.6,
                "end_time": 84.7522727,
                "pitch": 44,
                "velocity": 51,
                "duration": 0.1522727,
                "tempo": 120.0
            },
            {
                "start_time": 84.8022727,
                "end_time": 84.9522727,
                "pitch": 44,
                "velocity": 51,
                "duration": 0.15,
                "tempo": 120.0
            },
            {
                "start_time": 85.0022727,
                "end_time": 85.1545455,
                "pitch": 43,
                "velocity": 51,
                "duration": 0.1522727,
                "tempo": 120.0
            },
            {
                "start_time": 85.2045455,
                "end_time": 85.3545455,
                "pitch": 43,
                "velocity": 51,
                "duration": 0.15,
                "tempo": 120.0
            },
            {
                "start_time": 85.4045455,
                "end_time": 85.5545455,
                "pitch": 43,
                "velocity": 51,
                "duration": 0.15,
                "tempo": 120.0
            },
            {
                "start_time": 85.6045455,
                "end_time": 85.7545455,
                "pitch": 43,
                "velocity": 51,
                "duration": 0.15,
                "tempo": 120.0
            },
            {
                "start_time": 85.8045455,
                "end_time": 85.9568182,
                "pitch": 43,
                "velocity": 51,
                "duration": 0.1522727,
                "tempo": 120.0
            },
            {
                "start_time": 86.0068182,
                "end_time": 86.1568182,
                "pitch": 39,
                "velocity": 51,
                "duration": 0.15,
                "tempo": 120.0
            },
            {
                "start_time": 86.2090909,
                "end_time": 86.3545455,
                "pitch": 41,
                "velocity": 51,
                "duration": 0.1454545,
                "tempo": 120.0
            },
            {
                "start_time": 86.4045455,
                "end_time": 86.5522727,
                "pitch": 43,
                "velocity": 51,
                "duration": 0.1477273,
                "tempo": 120.0
            },
            {
                "start_time": 86.6,
                "end_time": 86.75,
                "pitch": 44,
                "velocity": 51,
                "duration": 0.15,
                "tempo": 120.0
            },
            {
                "start_time": 86.8,
                "end_time": 86.95,
                "pitch": 44,
                "velocity": 51,
                "duration": 0.15,
                "tempo": 120.0
            },
            {
                "start_time": 87.0,
                "end_time": 87.1545455,
                "pitch": 44,
                "velocity": 51,
                "duration": 0.1545455,
                "tempo": 120.0
            },
            {
                "start_time": 87.2045455,
                "end_time": 87.3590909,
                "pitch": 44,
                "velocity": 51,
                "duration": 0.1545455,
                "tempo": 120.0
            },
            {
                "start_time": 87.4113636,
                "end_time": 87.5613636,
                "pitch": 44,
                "velocity": 51,
                "duration": 0.15,
                "tempo": 120.0
            },
            {
                "start_time": 87.6113636,
                "end_time": 87.7613636,
                "pitch": 44,
                "velocity": 51,
                "duration": 0.15,
                "tempo": 120.0
            },
            {
                "start_time": 87.8113636,
                "end_time": 87.9613636,
                "pitch": 44,
                "velocity": 51,
                "duration": 0.15,
                "tempo": 120.0
            },
            {
                "start_time": 88.0136364,
                "end_time": 88.1636364,
                "pitch": 44,
                "velocity": 51,
                "duration": 0.15,
                "tempo": 120.0
            },
            {
                "start_time": 88.2136364,
                "end_time": 88.3636364,
                "pitch": 43,
                "velocity": 51,
                "duration": 0.15,
                "tempo": 120.0
            },
            {
                "start_time": 88.4136364,
                "end_time": 88.5636364,
                "pitch": 43,
                "velocity": 51,
                "duration": 0.15,
                "tempo": 120.0
            },
            {
                "start_time": 88.6136364,
                "end_time": 88.7659091,
                "pitch": 43,
                "velocity": 51,
                "duration": 0.1522727,
                "tempo": 120.0
            },
            {
                "start_time": 88.8159091,
                "end_time": 88.9659091,
                "pitch": 43,
                "velocity": 51,
                "duration": 0.15,
                "tempo": 120.0
            },
            {
                "start_time": 89.0159091,
                "end_time": 89.1636364,
                "pitch": 43,
                "velocity": 51,
                "duration": 0.1477273,
                "tempo": 120.0
            },
            {
                "start_time": 89.2136364,
                "end_time": 89.3590909,
                "pitch": 43,
                "velocity": 51,
                "duration": 0.1454545,
                "tempo": 120.0
            },
            {
                "start_time": 89.4090909,
                "end_time": 89.5590909,
                "pitch": 43,
                "velocity": 51,
                "duration": 0.15,
                "tempo": 120.0
            },
            {
                "start_time": 89.6090909,
                "end_time": 89.7613636,
                "pitch": 42,
                "velocity": 51,
                "duration": 0.1522727,
                "tempo": 120.0
            },
            {
                "start_time": 89.8113636,
                "end_time": 89.9613636,
                "pitch": 41,
                "velocity": 51,
                "duration": 0.15,
                "tempo": 120.0
            },
            {
                "start_time": 90.0113636,
                "end_time": 90.1613636,
                "pitch": 41,
                "velocity": 51,
                "duration": 0.15,
                "tempo": 120.0
            },
            {
                "start_time": 90.2113636,
                "end_time": 90.3659091,
                "pitch": 41,
                "velocity": 51,
                "duration": 0.1545455,
                "tempo": 120.0
            },
            {
                "start_time": 90.4159091,
                "end_time": 90.5704545,
                "pitch": 41,
                "velocity": 51,
                "duration": 0.1545455,
                "tempo": 120.0
            },
            {
                "start_time": 90.6227273,
                "end_time": 90.7727273,
                "pitch": 41,
                "velocity": 51,
                "duration": 0.15,
                "tempo": 120.0
            },
            {
                "start_time": 90.8227273,
                "end_time": 90.975,
                "pitch": 41,
                "velocity": 51,
                "duration": 0.1522727,
                "tempo": 120.0
            },
            {
                "start_time": 91.025,
                "end_time": 91.175,
                "pitch": 41,
                "velocity": 51,
                "duration": 0.15,
                "tempo": 120.0
            },
            {
                "start_time": 91.2272727,
                "end_time": 91.3772727,
                "pitch": 41,
                "velocity": 51,
                "duration": 0.15,
                "tempo": 120.0
            },
            {
                "start_time": 91.4272727,
                "end_time": 91.575,
                "pitch": 43,
                "velocity": 51,
                "duration": 0.1477273,
                "tempo": 120.0
            },
            {
                "start_time": 91.6227273,
                "end_time": 91.7704545,
                "pitch": 43,
                "velocity": 51,
                "duration": 0.1477273,
                "tempo": 120.0
            },
            {
                "start_time": 91.8204545,
                "end_time": 91.9727273,
                "pitch": 43,
                "velocity": 51,
                "duration": 0.1522727,
                "tempo": 120.0
            },
            {
                "start_time": 92.025,
                "end_time": 92.1795455,
                "pitch": 43,
                "velocity": 51,
                "duration": 0.1545455,
                "tempo": 120.0
            },
            {
                "start_time": 92.2295455,
                "end_time": 92.3795455,
                "pitch": 43,
                "velocity": 51,
                "duration": 0.15,
                "tempo": 120.0
            },
            {
                "start_time": 92.4295455,
                "end_time": 92.5795455,
                "pitch": 43,
                "velocity": 51,
                "duration": 0.15,
                "tempo": 120.0
            },
            {
                "start_time": 92.6295455,
                "end_time": 92.7772727,
                "pitch": 43,
                "velocity": 51,
                "duration": 0.1477273,
                "tempo": 120.0
            },
            {
                "start_time": 92.8272727,
                "end_time": 92.9727273,
                "pitch": 43,
                "velocity": 51,
                "duration": 0.1454545,
                "tempo": 120.0
            },
            {
                "start_time": 93.0227273,
                "end_time": 93.1772727,
                "pitch": 44,
                "velocity": 51,
                "duration": 0.1545455,
                "tempo": 120.0
            },
            {
                "start_time": 93.2272727,
                "end_time": 93.3818182,
                "pitch": 44,
                "velocity": 51,
                "duration": 0.1545455,
                "tempo": 120.0
            },
            {
                "start_time": 93.4340909,
                "end_time": 93.5840909,
                "pitch": 44,
                "velocity": 51,
                "duration": 0.15,
                "tempo": 120.0
            },
            {
                "start_time": 93.6340909,
                "end_time": 93.7840909,
                "pitch": 44,
                "velocity": 51,
                "duration": 0.15,
                "tempo": 120.0
            },
            {
                "start_time": 93.8340909,
                "end_time": 93.9840909,
                "pitch": 44,
                "velocity": 51,
                "duration": 0.15,
                "tempo": 120.0
            },
            {
                "start_time": 94.0340909,
                "end_time": 94.1863636,
                "pitch": 44,
                "velocity": 51,
                "duration": 0.1522727,
                "tempo": 120.0
            },
            {
                "start_time": 94.2363636,
                "end_time": 94.3863636,
                "pitch": 44,
                "velocity": 51,
                "duration": 0.15,
                "tempo": 120.0
            },
            {
                "start_time": 94.4363636,
                "end_time": 94.5863636,
                "pitch": 44,
                "velocity": 51,
                "duration": 0.15,
                "tempo": 120.0
            },
            {
                "start_time": 94.6363636,
                "end_time": 94.7840909,
                "pitch": 48,
                "velocity": 51,
                "duration": 0.1477273,
                "tempo": 120.0
            },
            {
                "start_time": 95.0272727,
                "end_time": 95.1795455,
                "pitch": 47,
                "velocity": 51,
                "duration": 0.1522727,
                "tempo": 120.0
            },
            {
                "start_time": 95.2295455,
                "end_time": 95.3818182,
                "pitch": 43,
                "velocity": 51,
                "duration": 0.1522727,
                "tempo": 120.0
            },
            {
                "start_time": 95.4318182,
                "end_time": 95.5818182,
                "pitch": 41,
                "velocity": 51,
                "duration": 0.15,
                "tempo": 120.0
            },
            {
                "start_time": 95.6318182,
                "end_time": 95.7840909,
                "pitch": 43,
                "velocity": 51,
                "duration": 0.1522727,
                "tempo": 120.0
            },
            {
                "start_time": 95.8340909,
                "end_time": 95.9886364,
                "pitch": 47,
                "velocity": 51,
                "duration": 0.1545455,
                "tempo": 120.0
            },
            {
                "start_time": 96.0386364,
                "end_time": 96.1931818,
                "pitch": 50,
                "velocity": 51,
                "duration": 0.1545455,
                "tempo": 120.0
            },
            {
                "start_time": 96.2613636,
                "end_time": 96.3954545,
                "pitch": 36,
                "velocity": 51,
                "duration": 0.1340909,
                "tempo": 120.0
            },
            {
                "start_time": 96.4454545,
                "end_time": 96.5954545,
                "pitch": 39,
                "velocity": 40,
                "duration": 0.15,
                "tempo": 120.0
            },
            {
                "start_time": 96.6454545,
                "end_time": 96.7909091,
                "pitch": 43,
                "velocity": 40,
                "duration": 0.1454545,
                "tempo": 120.0
            },
            {
                "start_time": 96.8409091,
                "end_time": 96.9886364,
                "pitch": 39,
                "velocity": 40,
                "duration": 0.1477273,
                "tempo": 120.0
            },
            {
                "start_time": 97.0363636,
                "end_time": 97.1886364,
                "pitch": 38,
                "velocity": 40,
                "duration": 0.1522727,
                "tempo": 120.0
            },
            {
                "start_time": 97.2386364,
                "end_time": 97.3886364,
                "pitch": 41,
                "velocity": 40,
                "duration": 0.15,
                "tempo": 120.0
            },
            {
                "start_time": 97.4386364,
                "end_time": 97.5909091,
                "pitch": 44,
                "velocity": 40,
                "duration": 0.1522727,
                "tempo": 120.0
            },
            {
                "start_time": 97.6409091,
                "end_time": 97.7909091,
                "pitch": 38,
                "velocity": 40,
                "duration": 0.15,
                "tempo": 120.0
            },
            {
                "start_time": 97.8431818,
                "end_time": 97.9931818,
                "pitch": 39,
                "velocity": 40,
                "duration": 0.15,
                "tempo": 120.0
            },
            {
                "start_time": 98.0431818,
                "end_time": 98.1931818,
                "pitch": 43,
                "velocity": 40,
                "duration": 0.15,
                "tempo": 120.0
            },
            {
                "start_time": 98.2431818,
                "end_time": 98.3931818,
                "pitch": 36,
                "velocity": 40,
                "duration": 0.15,
                "tempo": 120.0
            },
            {
                "start_time": 98.4431818,
                "end_time": 98.5954545,
                "pitch": 39,
                "velocity": 40,
                "duration": 0.1522727,
                "tempo": 120.0
            },
            {
                "start_time": 98.6454545,
                "end_time": 98.7954545,
                "pitch": 41,
                "velocity": 40,
                "duration": 0.15,
                "tempo": 120.0
            },
            {
                "start_time": 98.8454545,
                "end_time": 98.9954545,
                "pitch": 44,
                "velocity": 40,
                "duration": 0.15,
                "tempo": 120.0
            },
            {
                "start_time": 99.0454545,
                "end_time": 99.1954545,
                "pitch": 50,
                "velocity": 40,
                "duration": 0.15,
                "tempo": 120.0
            },
            {
                "start_time": 99.2454545,
                "end_time": 99.3977273,
                "pitch": 41,
                "velocity": 40,
                "duration": 0.1522727,
                "tempo": 120.0
            },
            {
                "start_time": 99.4477273,
                "end_time": 99.5977273,
                "pitch": 39,
                "velocity": 40,
                "duration": 0.15,
                "tempo": 120.0
            },
            {
                "start_time": 99.65,
                "end_time": 99.8,
                "pitch": 43,
                "velocity": 40,
                "duration": 0.15,
                "tempo": 120.0
            },
            {
                "start_time": 99.85,
                "end_time": 100.0,
                "pitch": 36,
                "velocity": 40,
                "duration": 0.15,
                "tempo": 120.0
            },
            {
                "start_time": 100.05,
                "end_time": 100.2,
                "pitch": 39,
                "velocity": 40,
                "duration": 0.15,
                "tempo": 120.0
            },
            {
                "start_time": 100.25,
                "end_time": 100.4022727,
                "pitch": 38,
                "velocity": 40,
                "duration": 0.1522727,
                "tempo": 120.0
            },
            {
                "start_time": 100.4522727,
                "end_time": 100.6022727,
                "pitch": 41,
                "velocity": 40,
                "duration": 0.15,
                "tempo": 120.0
            },
            {
                "start_time": 100.6522727,
                "end_time": 100.8022727,
                "pitch": 44,
                "velocity": 40,
                "duration": 0.15,
                "tempo": 120.0
            },
            {
                "start_time": 100.8522727,
                "end_time": 101.0022727,
                "pitch": 41,
                "velocity": 40,
                "duration": 0.15,
                "tempo": 120.0
            },
            {
                "start_time": 101.0522727,
                "end_time": 101.2045455,
                "pitch": 36,
                "velocity": 40,
                "duration": 0.1522727,
                "tempo": 120.0
            },
            {
                "start_time": 101.2545455,
                "end_time": 101.4045455,
                "pitch": 39,
                "velocity": 40,
                "duration": 0.15,
                "tempo": 120.0
            },
            {
                "start_time": 101.4568182,
                "end_time": 101.6068182,
                "pitch": 43,
                "velocity": 40,
                "duration": 0.15,
                "tempo": 120.0
            },
            {
                "start_time": 101.6568182,
                "end_time": 101.8090909,
                "pitch": 36,
                "velocity": 40,
                "duration": 0.1522727,
                "tempo": 120.0
            },
            {
                "start_time": 101.8590909,
                "end_time": 102.0090909,
                "pitch": 35,
                "velocity": 40,
                "duration": 0.15,
                "tempo": 120.0
            },
            {
                "start_time": 102.0590909,
                "end_time": 102.2090909,
                "pitch": 38,
                "velocity": 40,
                "duration": 0.15,
                "tempo": 120.0
            },
            {
                "start_time": 102.2590909,
                "end_time": 102.4090909,
                "pitch": 41,
                "velocity": 40,
                "duration": 0.15,
                "tempo": 120.0
            },
            {
                "start_time": 102.4590909,
                "end_time": 102.6113636,
                "pitch": 35,
                "velocity": 40,
                "duration": 0.1522727,
                "tempo": 120.0
            },
            {
                "start_time": 102.6613636,
                "end_time": 102.8113636,
                "pitch": 36,
                "velocity": 40,
                "duration": 0.15,
                "tempo": 120.0
            },
            {
                "start_time": 102.8613636,
                "end_time": 103.0113636,
                "pitch": 39,
                "velocity": 40,
                "duration": 0.15,
                "tempo": 120.0
            },
            {
                "start_time": 103.0613636,
                "end_time": 103.2113636,
                "pitch": 43,
                "velocity": 40,
                "duration": 0.15,
                "tempo": 120.0
            },
            {
                "start_time": 103.2613636,
                "end_time": 103.4136364,
                "pitch": 39,
                "velocity": 40,
                "duration": 0.1522727,
                "tempo": 120.0
            },
            {
                "start_time": 103.4636364,
                "end_time": 103.6159091,
                "pitch": 38,
                "velocity": 40,
                "duration": 0.1522727,
                "tempo": 120.0
            },
            {
                "start_time": 103.6659091,
                "end_time": 103.8159091,
                "pitch": 41,
                "velocity": 40,
                "duration": 0.15,
                "tempo": 120.0
            },
            {
                "start_time": 103.8659091,
                "end_time": 104.0159091,
                "pitch": 44,
                "velocity": 40,
                "duration": 0.15,
                "tempo": 120.0
            },
            {
                "start_time": 104.0659091,
                "end_time": 104.2159091,
                "pitch": 38,
                "velocity": 40,
                "duration": 0.15,
                "tempo": 120.0
            },
            {
                "start_time": 104.2659091,
                "end_time": 104.4181818,
                "pitch": 39,
                "velocity": 40,
                "duration": 0.1522727,
                "tempo": 120.0
            },
            {
                "start_time": 104.4681818,
                "end_time": 104.6181818,
                "pitch": 43,
                "velocity": 40,
                "duration": 0.15,
                "tempo": 120.0
            },
            {
                "start_time": 104.6681818,
                "end_time": 104.8181818,
                "pitch": 36,
                "velocity": 40,
                "duration": 0.15,
                "tempo": 120.0
            },
            {
                "start_time": 104.8681818,
                "end_time": 105.0181818,
                "pitch": 39,
                "velocity": 40,
                "duration": 0.15,
                "tempo": 120.0
            },
            {
                "start_time": 105.0681818,
                "end_time": 105.2204545,
                "pitch": 41,
                "velocity": 40,
                "duration": 0.1522727,
                "tempo": 120.0
            },
            {
                "start_time": 105.2704545,
                "end_time": 105.4204545,
                "pitch": 44,
                "velocity": 40,
                "duration": 0.15,
                "tempo": 120.0
            },
            {
                "start_time": 105.4727273,
                "end_time": 105.6227273,
                "pitch": 50,
                "velocity": 40,
                "duration": 0.15,
                "tempo": 120.0
            },
            {
                "start_time": 105.6727273,
                "end_time": 105.825,
                "pitch": 41,
                "velocity": 40,
                "duration": 0.1522727,
                "tempo": 120.0
            },
            {
                "start_time": 105.875,
                "end_time": 106.025,
                "pitch": 39,
                "velocity": 40,
                "duration": 0.15,
                "tempo": 120.0
            },
            {
                "start_time": 106.075,
                "end_time": 106.225,
                "pitch": 43,
                "velocity": 40,
                "duration": 0.15,
                "tempo": 120.0
            },
            {
                "start_time": 106.275,
                "end_time": 106.425,
                "pitch": 36,
                "velocity": 40,
                "duration": 0.15,
                "tempo": 120.0
            },
            {
                "start_time": 106.475,
                "end_time": 106.6272727,
                "pitch": 39,
                "velocity": 40,
                "duration": 0.1522727,
                "tempo": 120.0
            },
            {
                "start_time": 106.6772727,
                "end_time": 106.8272727,
                "pitch": 38,
                "velocity": 40,
                "duration": 0.15,
                "tempo": 120.0
            },
            {
                "start_time": 106.8772727,
                "end_time": 107.0272727,
                "pitch": 41,
                "velocity": 40,
                "duration": 0.15,
                "tempo": 120.0
            },
            {
                "start_time": 107.0772727,
                "end_time": 107.2272727,
                "pitch": 44,
                "velocity": 40,
                "duration": 0.15,
                "tempo": 120.0
            },
            {
                "start_time": 107.2795455,
                "end_time": 107.4295455,
                "pitch": 41,
                "velocity": 40,
                "duration": 0.15,
                "tempo": 120.0
            },
            {
                "start_time": 107.4795455,
                "end_time": 107.6318182,
                "pitch": 36,
                "velocity": 40,
                "duration": 0.1522727,
                "tempo": 120.0
            },
            {
                "start_time": 107.6818182,
                "end_time": 107.8318182,
                "pitch": 39,
                "velocity": 40,
                "duration": 0.15,
                "tempo": 120.0
            },
            {
                "start_time": 107.8818182,
                "end_time": 108.0318182,
                "pitch": 43,
                "velocity": 40,
                "duration": 0.15,
                "tempo": 120.0
            },
            {
                "start_time": 108.0818182,
                "end_time": 108.2318182,
                "pitch": 36,
                "velocity": 40,
                "duration": 0.15,
                "tempo": 120.0
            },
            {
                "start_time": 108.2818182,
                "end_time": 108.4340909,
                "pitch": 35,
                "velocity": 40,
                "duration": 0.1522727,
                "tempo": 120.0
            },
            {
                "start_time": 108.4840909,
                "end_time": 108.6340909,
                "pitch": 38,
                "velocity": 40,
                "duration": 0.15,
                "tempo": 120.0
            },
            {
                "start_time": 108.6863636,
                "end_time": 108.8363636,
                "pitch": 41,
                "velocity": 40,
                "duration": 0.15,
                "tempo": 120.0
            },
            {
                "start_time": 108.8863636,
                "end_time": 109.0363636,
                "pitch": 35,
                "velocity": 40,
                "duration": 0.15,
                "tempo": 120.0
            },
            {
                "start_time": 109.0863636,
                "end_time": 109.2363636,
                "pitch": 33,
                "velocity": 40,
                "duration": 0.15,
                "tempo": 120.0
            },
            {
                "start_time": 109.2863636,
                "end_time": 109.4386364,
                "pitch": 36,
                "velocity": 40,
                "duration": 0.1522727,
                "tempo": 120.0
            },
            {
                "start_time": 109.4886364,
                "end_time": 109.6386364,
                "pitch": 40,
                "velocity": 40,
                "duration": 0.15,
                "tempo": 120.0
            },
            {
                "start_time": 109.6886364,
                "end_time": 109.8409091,
                "pitch": 33,
                "velocity": 40,
                "duration": 0.1522727,
                "tempo": 120.0
            },
            {
                "start_time": 109.8909091,
                "end_time": 110.0409091,
                "pitch": 35,
                "velocity": 40,
                "duration": 0.15,
                "tempo": 120.0
            },
            {
                "start_time": 110.0909091,
                "end_time": 110.2409091,
                "pitch": 38,
                "velocity": 40,
                "duration": 0.15,
                "tempo": 120.0
            },
            {
                "start_time": 110.2909091,
                "end_time": 110.4409091,
                "pitch": 41,
                "velocity": 40,
                "duration": 0.15,
                "tempo": 120.0
            },
            {
                "start_time": 110.4909091,
                "end_time": 110.6431818,
                "pitch": 35,
                "velocity": 40,
                "duration": 0.1522727,
                "tempo": 120.0
            },
            {
                "start_time": 110.6931818,
                "end_time": 110.8431818,
                "pitch": 36,
                "velocity": 40,
                "duration": 0.15,
                "tempo": 120.0
            },
            {
                "start_time": 110.8931818,
                "end_time": 111.0431818,
                "pitch": 40,
                "velocity": 40,
                "duration": 0.15,
                "tempo": 120.0
            },
            {
                "start_time": 111.0931818,
                "end_time": 111.2454545,
                "pitch": 43,
                "velocity": 40,
                "duration": 0.1522727,
                "tempo": 120.0
            },
            {
                "start_time": 111.2954545,
                "end_time": 111.4454545,
                "pitch": 36,
                "velocity": 40,
                "duration": 0.15,
                "tempo": 120.0
            },
            {
                "start_time": 111.4954545,
                "end_time": 111.6477273,
                "pitch": 38,
                "velocity": 40,
                "duration": 0.1522727,
                "tempo": 120.0
            },
            {
                "start_time": 111.6977273,
                "end_time": 111.8477273,
                "pitch": 41,
                "velocity": 40,
                "duration": 0.15,
                "tempo": 120.0
            },
            {
                "start_time": 111.8977273,
                "end_time": 112.0477273,
                "pitch": 45,
                "velocity": 40,
                "duration": 0.15,
                "tempo": 120.0
            },
            {
                "start_time": 112.0977273,
                "end_time": 112.2477273,
                "pitch": 38,
                "velocity": 40,
                "duration": 0.15,
                "tempo": 120.0
            },
            {
                "start_time": 112.2977273,
                "end_time": 112.45,
                "pitch": 40,
                "velocity": 40,
                "duration": 0.1522727,
                "tempo": 120.0
            },
            {
                "start_time": 112.5,
                "end_time": 112.65,
                "pitch": 43,
                "velocity": 40,
                "duration": 0.15,
                "tempo": 120.0
            },
            {
                "start_time": 112.7022727,
                "end_time": 112.8522727,
                "pitch": 48,
                "velocity": 40,
                "duration": 0.15,
                "tempo": 120.0
            },
            {
                "start_time": 112.9022727,
                "end_time": 113.0522727,
                "pitch": 40,
                "velocity": 40,
                "duration": 0.15,
                "tempo": 120.0
            },
            {
                "start_time": 113.1022727,
                "end_time": 113.2522727,
                "pitch": 38,
                "velocity": 40,
                "duration": 0.15,
                "tempo": 120.0
            },
            {
                "start_time": 113.3022727,
                "end_time": 113.4545455,
                "pitch": 41,
                "velocity": 40,
                "duration": 0.1522727,
                "tempo": 120.0
            },
            {
                "start_time": 113.5045455,
                "end_time": 113.6545455,
                "pitch": 47,
                "velocity": 40,
                "duration": 0.15,
                "tempo": 120.0
            },
            {
                "start_time": 113.7045455,
                "end_time": 113.8568182,
                "pitch": 38,
                "velocity": 40,
                "duration": 0.1522727,
                "tempo": 120.0
            },
            {
                "start_time": 113.9068182,
                "end_time": 114.0568182,
                "pitch": 36,
                "velocity": 40,
                "duration": 0.15,
                "tempo": 120.0
            },
            {
                "start_time": 114.1068182,
                "end_time": 114.2568182,
                "pitch": 40,
                "velocity": 40,
                "duration": 0.15,
                "tempo": 120.0
            },
            {
                "start_time": 114.3068182,
                "end_time": 114.4568182,
                "pitch": 45,
                "velocity": 40,
                "duration": 0.15,
                "tempo": 120.0
            },
            {
                "start_time": 114.5090909,
                "end_time": 114.6590909,
                "pitch": 36,
                "velocity": 40,
                "duration": 0.15,
                "tempo": 120.0
            },
            {
                "start_time": 114.7090909,
                "end_time": 114.8590909,
                "pitch": 35,
                "velocity": 40,
                "duration": 0.15,
                "tempo": 120.0
            },
            {
                "start_time": 114.9090909,
                "end_time": 115.0590909,
                "pitch": 38,
                "velocity": 40,
                "duration": 0.15,
                "tempo": 120.0
            },
            {
                "start_time": 115.1090909,
                "end_time": 115.2613636,
                "pitch": 43,
                "velocity": 40,
                "duration": 0.1522727,
                "tempo": 120.0
            },
            {
                "start_time": 115.3113636,
                "end_time": 115.4613636,
                "pitch": 35,
                "velocity": 40,
                "duration": 0.15,
                "tempo": 120.0
            },
            {
                "start_time": 115.5113636,
                "end_time": 115.6636364,
                "pitch": 33,
                "velocity": 40,
                "duration": 0.1522727,
                "tempo": 120.0
            },
            {
                "start_time": 115.7136364,
                "end_time": 115.8636364,
                "pitch": 36,
                "velocity": 40,
                "duration": 0.15,
                "tempo": 120.0
            },
            {
                "start_time": 115.9159091,
                "end_time": 116.0659091,
                "pitch": 40,
                "velocity": 40,
                "duration": 0.15,
                "tempo": 120.0
            },
            {
                "start_time": 116.1159091,
                "end_time": 116.2659091,
                "pitch": 33,
                "velocity": 40,
                "duration": 0.15,
                "tempo": 120.0
            },
            {
                "start_time": 116.3159091,
                "end_time": 116.4659091,
                "pitch": 35,
                "velocity": 40,
                "duration": 0.15,
                "tempo": 120.0
            },
            {
                "start_time": 116.5159091,
                "end_time": 116.6681818,
                "pitch": 38,
                "velocity": 40,
                "duration": 0.1522727,
                "tempo": 120.0
            },
            {
                "start_time": 116.7181818,
                "end_time": 116.8681818,
                "pitch": 41,
                "velocity": 40,
                "duration": 0.15,
                "tempo": 120.0
            },
            {
                "start_time": 116.9181818,
                "end_time": 117.0681818,
                "pitch": 35,
                "velocity": 40,
                "duration": 0.15,
                "tempo": 120.0
            },
            {
                "start_time": 117.1181818,
                "end_time": 117.2681818,
                "pitch": 36,
                "velocity": 40,
                "duration": 0.15,
                "tempo": 120.0
            },
            {
                "start_time": 117.3181818,
                "end_time": 117.4704545,
                "pitch": 40,
                "velocity": 40,
                "duration": 0.1522727,
                "tempo": 120.0
            },
            {
                "start_time": 117.5204545,
                "end_time": 117.6704545,
                "pitch": 43,
                "velocity": 40,
                "duration": 0.15,
                "tempo": 120.0
            },
            {
                "start_time": 117.7204545,
                "end_time": 117.8727273,
                "pitch": 36,
                "velocity": 40,
                "duration": 0.1522727,
                "tempo": 120.0
            },
            {
                "start_time": 117.9227273,
                "end_time": 118.0727273,
                "pitch": 38,
                "velocity": 40,
                "duration": 0.15,
                "tempo": 120.0
            },
            {
                "start_time": 118.1227273,
                "end_time": 118.2727273,
                "pitch": 41,
                "velocity": 40,
                "duration": 0.15,
                "tempo": 120.0
            },
            {
                "start_time": 118.3227273,
                "end_time": 118.475,
                "pitch": 45,
                "velocity": 40,
                "duration": 0.1522727,
                "tempo": 120.0
            },
            {
                "start_time": 118.525,
                "end_time": 118.675,
                "pitch": 38,
                "velocity": 40,
                "duration": 0.15,
                "tempo": 120.0
            },
            {
                "start_time": 118.725,
                "end_time": 118.875,
                "pitch": 40,
                "velocity": 40,
                "duration": 0.15,
                "tempo": 120.0
            },
            {
                "start_time": 118.925,
                "end_time": 119.075,
                "pitch": 43,
                "velocity": 40,
                "duration": 0.15,
                "tempo": 120.0
            },
            {
                "start_time": 119.125,
                "end_time": 119.2772727,
                "pitch": 48,
                "velocity": 40,
                "duration": 0.1522727,
                "tempo": 120.0
            },
            {
                "start_time": 119.3272727,
                "end_time": 119.4772727,
                "pitch": 40,
                "velocity": 40,
                "duration": 0.15,
                "tempo": 120.0
            },
            {
                "start_time": 119.5272727,
                "end_time": 119.6795455,
                "pitch": 38,
                "velocity": 40,
                "duration": 0.1522727,
                "tempo": 120.0
            },
            {
                "start_time": 119.7295455,
                "end_time": 119.8795455,
                "pitch": 41,
                "velocity": 40,
                "duration": 0.15,
                "tempo": 120.0
            },
            {
                "start_time": 119.9318182,
                "end_time": 120.0818182,
                "pitch": 47,
                "velocity": 40,
                "duration": 0.15,
                "tempo": 120.0
            },
            {
                "start_time": 120.1318182,
                "end_time": 120.2818182,
                "pitch": 38,
                "velocity": 40,
                "duration": 0.15,
                "tempo": 120.0
            },
            {
                "start_time": 120.3318182,
                "end_time": 120.4818182,
                "pitch": 36,
                "velocity": 40,
                "duration": 0.15,
                "tempo": 120.0
            },
            {
                "start_time": 120.5318182,
                "end_time": 120.6840909,
                "pitch": 40,
                "velocity": 40,
                "duration": 0.1522727,
                "tempo": 120.0
            },
            {
                "start_time": 120.7340909,
                "end_time": 120.8840909,
                "pitch": 45,
                "velocity": 40,
                "duration": 0.15,
                "tempo": 120.0
            },
            {
                "start_time": 120.9340909,
                "end_time": 121.0840909,
                "pitch": 36,
                "velocity": 40,
                "duration": 0.15,
                "tempo": 120.0
            },
            {
                "start_time": 121.1340909,
                "end_time": 121.2840909,
                "pitch": 35,
                "velocity": 40,
                "duration": 0.15,
                "tempo": 120.0
            },
            {
                "start_time": 121.3340909,
                "end_time": 121.4863636,
                "pitch": 38,
                "velocity": 40,
                "duration": 0.1522727,
                "tempo": 120.0
            },
            {
                "start_time": 121.5363636,
                "end_time": 121.6863636,
                "pitch": 43,
                "velocity": 40,
                "duration": 0.15,
                "tempo": 120.0
            },
            {
                "start_time": 121.7386364,
                "end_time": 121.8886364,
                "pitch": 35,
                "velocity": 40,
                "duration": 0.15,
                "tempo": 120.0
            },
            {
                "start_time": 121.9568182,
                "end_time": 122.0931818,
                "pitch": 36,
                "velocity": 40,
                "duration": 0.1363636,
                "tempo": 120.0
            },
            {
                "start_time": 122.1431818,
                "end_time": 122.2977273,
                "pitch": 39,
                "velocity": 40,
                "duration": 0.1545455,
                "tempo": 120.0
            },
            {
                "start_time": 122.35,
                "end_time": 122.4977273,
                "pitch": 43,
                "velocity": 40,
                "duration": 0.1477273,
                "tempo": 120.0
            },
            {
                "start_time": 122.5454545,
                "end_time": 122.6931818,
                "pitch": 39,
                "velocity": 40,
                "duration": 0.1477273,
                "tempo": 120.0
            },
            {
                "start_time": 122.7409091,
                "end_time": 122.8909091,
                "pitch": 38,
                "velocity": 40,
                "duration": 0.15,
                "tempo": 120.0
            },
            {
                "start_time": 122.9409091,
                "end_time": 123.0909091,
                "pitch": 41,
                "velocity": 40,
                "duration": 0.15,
                "tempo": 120.0
            },
            {
                "start_time": 123.1409091,
                "end_time": 123.2931818,
                "pitch": 44,
                "velocity": 40,
                "duration": 0.1522727,
                "tempo": 120.0
            },
            {
                "start_time": 123.3431818,
                "end_time": 123.4931818,
                "pitch": 38,
                "velocity": 40,
                "duration": 0.15,
                "tempo": 120.0
            },
            {
                "start_time": 123.5454545,
                "end_time": 123.6954545,
                "pitch": 39,
                "velocity": 40,
                "duration": 0.15,
                "tempo": 120.0
            },
            {
                "start_time": 123.7454545,
                "end_time": 123.8977273,
                "pitch": 43,
                "velocity": 40,
                "duration": 0.1522727,
                "tempo": 120.0
            },
            {
                "start_time": 123.9477273,
                "end_time": 124.0977273,
                "pitch": 36,
                "velocity": 40,
                "duration": 0.15,
                "tempo": 120.0
            },
            {
                "start_time": 124.1477273,
                "end_time": 124.2977273,
                "pitch": 39,
                "velocity": 40,
                "duration": 0.15,
                "tempo": 120.0
            },
            {
                "start_time": 124.3477273,
                "end_time": 124.4977273,
                "pitch": 41,
                "velocity": 40,
                "duration": 0.15,
                "tempo": 120.0
            },
            {
                "start_time": 124.5477273,
                "end_time": 124.7,
                "pitch": 44,
                "velocity": 40,
                "duration": 0.1522727,
                "tempo": 120.0
            },
            {
                "start_time": 124.75,
                "end_time": 124.9,
                "pitch": 50,
                "velocity": 40,
                "duration": 0.15,
                "tempo": 120.0
            },
            {
                "start_time": 124.95,
                "end_time": 125.1,
                "pitch": 41,
                "velocity": 40,
                "duration": 0.15,
                "tempo": 120.0
            },
            {
                "start_time": 125.15,
                "end_time": 125.3,
                "pitch": 39,
                "velocity": 40,
                "duration": 0.15,
                "tempo": 120.0
            },
            {
                "start_time": 125.3522727,
                "end_time": 125.5022727,
                "pitch": 43,
                "velocity": 40,
                "duration": 0.15,
                "tempo": 120.0
            },
            {
                "start_time": 125.5522727,
                "end_time": 125.7045455,
                "pitch": 36,
                "velocity": 40,
                "duration": 0.1522727,
                "tempo": 120.0
            },
            {
                "start_time": 125.7545455,
                "end_time": 125.9045455,
                "pitch": 39,
                "velocity": 40,
                "duration": 0.15,
                "tempo": 120.0
            },
            {
                "start_time": 125.9545455,
                "end_time": 126.1045455,
                "pitch": 38,
                "velocity": 40,
                "duration": 0.15,
                "tempo": 120.0
            },
            {
                "start_time": 126.1545455,
                "end_time": 126.3045455,
                "pitch": 41,
                "velocity": 40,
                "duration": 0.15,
                "tempo": 120.0
            },
            {
                "start_time": 126.3545455,
                "end_time": 126.5068182,
                "pitch": 44,
                "velocity": 40,
                "duration": 0.1522727,
                "tempo": 120.0
            },
            {
                "start_time": 126.5568182,
                "end_time": 126.7068182,
                "pitch": 41,
                "velocity": 40,
                "duration": 0.15,
                "tempo": 120.0
            },
            {
                "start_time": 126.7590909,
                "end_time": 126.9090909,
                "pitch": 36,
                "velocity": 40,
                "duration": 0.15,
                "tempo": 120.0
            },
            {
                "start_time": 126.9590909,
                "end_time": 127.1090909,
                "pitch": 39,
                "velocity": 40,
                "duration": 0.15,
                "tempo": 120.0
            },
            {
                "start_time": 127.1590909,
                "end_time": 127.3090909,
                "pitch": 43,
                "velocity": 40,
                "duration": 0.15,
                "tempo": 120.0
            },
            {
                "start_time": 127.3590909,
                "end_time": 127.5113636,
                "pitch": 36,
                "velocity": 40,
                "duration": 0.1522727,
                "tempo": 120.0
            },
            {
                "start_time": 127.5613636,
                "end_time": 127.7113636,
                "pitch": 35,
                "velocity": 40,
                "duration": 0.15,
                "tempo": 120.0
            },
            {
                "start_time": 127.7613636,
                "end_time": 127.9136364,
                "pitch": 38,
                "velocity": 40,
                "duration": 0.1522727,
                "tempo": 120.0
            },
            {
                "start_time": 127.9636364,
                "end_time": 128.1136364,
                "pitch": 41,
                "velocity": 40,
                "duration": 0.15,
                "tempo": 120.0
            },
            {
                "start_time": 128.1636364,
                "end_time": 128.3136364,
                "pitch": 35,
                "velocity": 40,
                "duration": 0.15,
                "tempo": 120.0
            },
            {
                "start_time": 128.3636364,
                "end_time": 128.5136364,
                "pitch": 36,
                "velocity": 40,
                "duration": 0.15,
                "tempo": 120.0
            },
            {
                "start_time": 128.5636364,
                "end_time": 128.7159091,
                "pitch": 39,
                "velocity": 40,
                "duration": 0.1522727,
                "tempo": 120.0
            },
            {
                "start_time": 128.7659091,
                "end_time": 128.9159091,
                "pitch": 43,
                "velocity": 40,
                "duration": 0.15,
                "tempo": 120.0
            },
            {
                "start_time": 128.9659091,
                "end_time": 129.1159091,
                "pitch": 39,
                "velocity": 40,
                "duration": 0.15,
                "tempo": 120.0
            },
            {
                "start_time": 129.1659091,
                "end_time": 129.3181818,
                "pitch": 38,
                "velocity": 40,
                "duration": 0.1522727,
                "tempo": 120.0
            },
            {
                "start_time": 129.3681818,
                "end_time": 129.5181818,
                "pitch": 41,
                "velocity": 40,
                "duration": 0.15,
                "tempo": 120.0
            },
            {
                "start_time": 129.5681818,
                "end_time": 129.7204545,
                "pitch": 44,
                "velocity": 40,
                "duration": 0.1522727,
                "tempo": 120.0
            },
            {
                "start_time": 129.7704545,
                "end_time": 129.9204545,
                "pitch": 38,
                "velocity": 40,
                "duration": 0.15,
                "tempo": 120.0
            },
            {
                "start_time": 129.9704545,
                "end_time": 130.1227273,
                "pitch": 39,
                "velocity": 40,
                "duration": 0.1522727,
                "tempo": 120.0
            },
            {
                "start_time": 130.1727273,
                "end_time": 130.3227273,
                "pitch": 43,
                "velocity": 40,
                "duration": 0.15,
                "tempo": 120.0
            },
            {
                "start_time": 130.375,
                "end_time": 130.525,
                "pitch": 36,
                "velocity": 40,
                "duration": 0.15,
                "tempo": 120.0
            },
            {
                "start_time": 130.575,
                "end_time": 130.725,
                "pitch": 39,
                "velocity": 40,
                "duration": 0.15,
                "tempo": 120.0
            },
            {
                "start_time": 130.775,
                "end_time": 130.925,
                "pitch": 41,
                "velocity": 40,
                "duration": 0.15,
                "tempo": 120.0
            },
            {
                "start_time": 130.975,
                "end_time": 131.1272727,
                "pitch": 44,
                "velocity": 40,
                "duration": 0.1522727,
                "tempo": 120.0
            },
            {
                "start_time": 131.1772727,
                "end_time": 131.3272727,
                "pitch": 50,
                "velocity": 40,
                "duration": 0.15,
                "tempo": 120.0
            },
            {
                "start_time": 131.3772727,
                "end_time": 131.5295455,
                "pitch": 41,
                "velocity": 40,
                "duration": 0.1522727,
                "tempo": 120.0
            },
            {
                "start_time": 131.5795455,
                "end_time": 131.7295455,
                "pitch": 39,
                "velocity": 40,
                "duration": 0.15,
                "tempo": 120.0
            },
            {
                "start_time": 131.7818182,
                "end_time": 131.9318182,
                "pitch": 43,
                "velocity": 40,
                "duration": 0.15,
                "tempo": 120.0
            },
            {
                "start_time": 131.9818182,
                "end_time": 132.1340909,
                "pitch": 36,
                "velocity": 40,
                "duration": 0.1522727,
                "tempo": 120.0
            },
            {
                "start_time": 132.1840909,
                "end_time": 132.3340909,
                "pitch": 39,
                "velocity": 40,
                "duration": 0.15,
                "tempo": 120.0
            },
            {
                "start_time": 132.3840909,
                "end_time": 132.5340909,
                "pitch": 38,
                "velocity": 40,
                "duration": 0.15,
                "tempo": 120.0
            },
            {
                "start_time": 132.5840909,
                "end_time": 132.7340909,
                "pitch": 41,
                "velocity": 40,
                "duration": 0.15,
                "tempo": 120.0
            },
            {
                "start_time": 132.7840909,
                "end_time": 132.9363636,
                "pitch": 44,
                "velocity": 40,
                "duration": 0.1522727,
                "tempo": 120.0
            },
            {
                "start_time": 132.9863636,
                "end_time": 133.1363636,
                "pitch": 41,
                "velocity": 40,
                "duration": 0.15,
                "tempo": 120.0
            },
            {
                "start_time": 133.1886364,
                "end_time": 133.3386364,
                "pitch": 36,
                "velocity": 40,
                "duration": 0.15,
                "tempo": 120.0
            },
            {
                "start_time": 133.3886364,
                "end_time": 133.5409091,
                "pitch": 39,
                "velocity": 40,
                "duration": 0.1522727,
                "tempo": 120.0
            },
            {
                "start_time": 133.5909091,
                "end_time": 133.7409091,
                "pitch": 43,
                "velocity": 40,
                "duration": 0.15,
                "tempo": 120.0
            },
            {
                "start_time": 133.7909091,
                "end_time": 133.9431818,
                "pitch": 36,
                "velocity": 40,
                "duration": 0.1522727,
                "tempo": 120.0
            },
            {
                "start_time": 133.9931818,
                "end_time": 134.1431818,
                "pitch": 35,
                "velocity": 40,
                "duration": 0.15,
                "tempo": 120.0
            },
            {
                "start_time": 134.1931818,
                "end_time": 134.3454545,
                "pitch": 38,
                "velocity": 40,
                "duration": 0.1522727,
                "tempo": 120.0
            },
            {
                "start_time": 134.3954545,
                "end_time": 134.5431818,
                "pitch": 41,
                "velocity": 40,
                "duration": 0.1477273,
                "tempo": 120.0
            },
            {
                "start_time": 134.5909091,
                "end_time": 134.7386364,
                "pitch": 35,
                "velocity": 40,
                "duration": 0.1477273,
                "tempo": 120.0
            },
            {
                "start_time": 134.7886364,
                "end_time": 134.9409091,
                "pitch": 33,
                "velocity": 40,
                "duration": 0.1522727,
                "tempo": 120.0
            },
            {
                "start_time": 134.9931818,
                "end_time": 135.1477273,
                "pitch": 36,
                "velocity": 40,
                "duration": 0.1545455,
                "tempo": 120.0
            },
            {
                "start_time": 135.1977273,
                "end_time": 135.35,
                "pitch": 40,
                "velocity": 40,
                "duration": 0.1522727,
                "tempo": 120.0
            },
            {
                "start_time": 135.4,
                "end_time": 135.55,
                "pitch": 33,
                "velocity": 40,
                "duration": 0.15,
                "tempo": 120.0
            },
            {
                "start_time": 135.6,
                "end_time": 135.7522727,
                "pitch": 35,
                "velocity": 40,
                "duration": 0.1522727,
                "tempo": 120.0
            },
            {
                "start_time": 135.8022727,
                "end_time": 135.9545455,
                "pitch": 38,
                "velocity": 40,
                "duration": 0.1522727,
                "tempo": 120.0
            },
            {
                "start_time": 136.0045455,
                "end_time": 136.1545455,
                "pitch": 41,
                "velocity": 40,
                "duration": 0.15,
                "tempo": 120.0
            },
            {
                "start_time": 136.2045455,
                "end_time": 136.3568182,
                "pitch": 35,
                "velocity": 40,
                "duration": 0.1522727,
                "tempo": 120.0
            },
            {
                "start_time": 136.4068182,
                "end_time": 136.5568182,
                "pitch": 36,
                "velocity": 40,
                "duration": 0.15,
                "tempo": 120.0
            },
            {
                "start_time": 136.6068182,
                "end_time": 136.7568182,
                "pitch": 40,
                "velocity": 40,
                "duration": 0.15,
                "tempo": 120.0
            },
            {
                "start_time": 136.8068182,
                "end_time": 136.9568182,
                "pitch": 43,
                "velocity": 40,
                "duration": 0.15,
                "tempo": 120.0
            },
            {
                "start_time": 137.0068182,
                "end_time": 137.1590909,
                "pitch": 36,
                "velocity": 40,
                "duration": 0.1522727,
                "tempo": 120.0
            },
            {
                "start_time": 137.2090909,
                "end_time": 137.3590909,
                "pitch": 38,
                "velocity": 40,
                "duration": 0.15,
                "tempo": 120.0
            },
            {
                "start_time": 137.4113636,
                "end_time": 137.5613636,
                "pitch": 41,
                "velocity": 40,
                "duration": 0.15,
                "tempo": 120.0
            },
            {
                "start_time": 137.6113636,
                "end_time": 137.7636364,
                "pitch": 45,
                "velocity": 40,
                "duration": 0.1522727,
                "tempo": 120.0
            },
            {
                "start_time": 137.8136364,
                "end_time": 137.9636364,
                "pitch": 38,
                "velocity": 40,
                "duration": 0.15,
                "tempo": 120.0
            },
            {
                "start_time": 138.0136364,
                "end_time": 138.1659091,
                "pitch": 40,
                "velocity": 40,
                "duration": 0.1522727,
                "tempo": 120.0
            },
            {
                "start_time": 138.2159091,
                "end_time": 138.3659091,
                "pitch": 43,
                "velocity": 40,
                "duration": 0.15,
                "tempo": 120.0
            },
            {
                "start_time": 138.4181818,
                "end_time": 138.5681818,
                "pitch": 48,
                "velocity": 40,
                "duration": 0.15,
                "tempo": 120.0
            },
            {
                "start_time": 138.6181818,
                "end_time": 138.7681818,
                "pitch": 40,
                "velocity": 40,
                "duration": 0.15,
                "tempo": 120.0
            },
            {
                "start_time": 138.8181818,
                "end_time": 138.9681818,
                "pitch": 38,
                "velocity": 40,
                "duration": 0.15,
                "tempo": 120.0
            },
            {
                "start_time": 139.0181818,
                "end_time": 139.1704545,
                "pitch": 41,
                "velocity": 40,
                "duration": 0.1522727,
                "tempo": 120.0
            },
            {
                "start_time": 139.2204545,
                "end_time": 139.3704545,
                "pitch": 47,
                "velocity": 40,
                "duration": 0.15,
                "tempo": 120.0
            },
            {
                "start_time": 139.4204545,
                "end_time": 139.5727273,
                "pitch": 38,
                "velocity": 40,
                "duration": 0.1522727,
                "tempo": 120.0
            },
            {
                "start_time": 139.6227273,
                "end_time": 139.7727273,
                "pitch": 36,
                "velocity": 40,
                "duration": 0.15,
                "tempo": 120.0
            },
            {
                "start_time": 139.825,
                "end_time": 139.975,
                "pitch": 40,
                "velocity": 40,
                "duration": 0.15,
                "tempo": 120.0
            },
            {
                "start_time": 140.025,
                "end_time": 140.1772727,
                "pitch": 45,
                "velocity": 40,
                "duration": 0.1522727,
                "tempo": 120.0
            },
            {
                "start_time": 140.2272727,
                "end_time": 140.3772727,
                "pitch": 36,
                "velocity": 40,
                "duration": 0.15,
                "tempo": 120.0
            },
            {
                "start_time": 140.4272727,
                "end_time": 140.5772727,
                "pitch": 35,
                "velocity": 40,
                "duration": 0.15,
                "tempo": 120.0
            },
            {
                "start_time": 140.6272727,
                "end_time": 140.7772727,
                "pitch": 38,
                "velocity": 40,
                "duration": 0.15,
                "tempo": 120.0
            },
            {
                "start_time": 140.8272727,
                "end_time": 140.9795455,
                "pitch": 43,
                "velocity": 40,
                "duration": 0.1522727,
                "tempo": 120.0
            },
            {
                "start_time": 141.0295455,
                "end_time": 141.1795455,
                "pitch": 35,
                "velocity": 40,
                "duration": 0.15,
                "tempo": 120.0
            },
            {
                "start_time": 141.2295455,
                "end_time": 141.3818182,
                "pitch": 33,
                "velocity": 40,
                "duration": 0.1522727,
                "tempo": 120.0
            },
            {
                "start_time": 141.4318182,
                "end_time": 141.5840909,
                "pitch": 36,
                "velocity": 40,
                "duration": 0.1522727,
                "tempo": 120.0
            },
            {
                "start_time": 141.6340909,
                "end_time": 141.7840909,
                "pitch": 40,
                "velocity": 40,
                "duration": 0.15,
                "tempo": 120.0
            },
            {
                "start_time": 141.8340909,
                "end_time": 141.9863636,
                "pitch": 33,
                "velocity": 40,
                "duration": 0.1522727,
                "tempo": 120.0
            },
            {
                "start_time": 142.0363636,
                "end_time": 142.1863636,
                "pitch": 35,
                "velocity": 40,
                "duration": 0.15,
                "tempo": 120.0
            },
            {
                "start_time": 142.2363636,
                "end_time": 142.3886364,
                "pitch": 38,
                "velocity": 40,
                "duration": 0.1522727,
                "tempo": 120.0
            },
            {
                "start_time": 142.4386364,
                "end_time": 142.5886364,
                "pitch": 41,
                "velocity": 40,
                "duration": 0.15,
                "tempo": 120.0
            },
            {
                "start_time": 142.6386364,
                "end_time": 142.7886364,
                "pitch": 35,
                "velocity": 40,
                "duration": 0.15,
                "tempo": 120.0
            },
            {
                "start_time": 142.8386364,
                "end_time": 142.9886364,
                "pitch": 36,
                "velocity": 40,
                "duration": 0.15,
                "tempo": 120.0
            },
            {
                "start_time": 143.0409091,
                "end_time": 143.1909091,
                "pitch": 40,
                "velocity": 40,
                "duration": 0.15,
                "tempo": 120.0
            },
            {
                "start_time": 143.2409091,
                "end_time": 143.3931818,
                "pitch": 43,
                "velocity": 40,
                "duration": 0.1522727,
                "tempo": 120.0
            },
            {
                "start_time": 143.4431818,
                "end_time": 143.5931818,
                "pitch": 36,
                "velocity": 40,
                "duration": 0.15,
                "tempo": 120.0
            },
            {
                "start_time": 143.6431818,
                "end_time": 143.7954545,
                "pitch": 38,
                "velocity": 40,
                "duration": 0.1522727,
                "tempo": 120.0
            },
            {
                "start_time": 143.8454545,
                "end_time": 143.9954545,
                "pitch": 41,
                "velocity": 40,
                "duration": 0.15,
                "tempo": 120.0
            },
            {
                "start_time": 144.0477273,
                "end_time": 144.1977273,
                "pitch": 45,
                "velocity": 40,
                "duration": 0.15,
                "tempo": 120.0
            },
            {
                "start_time": 144.2477273,
                "end_time": 144.4,
                "pitch": 38,
                "velocity": 40,
                "duration": 0.1522727,
                "tempo": 120.0
            },
            {
                "start_time": 144.45,
                "end_time": 144.6,
                "pitch": 40,
                "velocity": 40,
                "duration": 0.15,
                "tempo": 120.0
            },
            {
                "start_time": 144.65,
                "end_time": 144.8,
                "pitch": 43,
                "velocity": 40,
                "duration": 0.15,
                "tempo": 120.0
            },
            {
                "start_time": 144.85,
                "end_time": 145.0,
                "pitch": 48,
                "velocity": 40,
                "duration": 0.15,
                "tempo": 120.0
            },
            {
                "start_time": 145.05,
                "end_time": 145.2022727,
                "pitch": 40,
                "velocity": 40,
                "duration": 0.1522727,
                "tempo": 120.0
            },
            {
                "start_time": 145.2522727,
                "end_time": 145.4022727,
                "pitch": 38,
                "velocity": 40,
                "duration": 0.15,
                "tempo": 120.0
            },
            {
                "start_time": 145.4545455,
                "end_time": 145.6045455,
                "pitch": 41,
                "velocity": 40,
                "duration": 0.15,
                "tempo": 120.0
            },
            {
                "start_time": 145.6545455,
                "end_time": 145.8068182,
                "pitch": 47,
                "velocity": 40,
                "duration": 0.1522727,
                "tempo": 120.0
            },
            {
                "start_time": 145.8568182,
                "end_time": 146.0068182,
                "pitch": 38,
                "velocity": 40,
                "duration": 0.15,
                "tempo": 120.0
            },
            {
                "start_time": 146.0568182,
                "end_time": 146.2090909,
                "pitch": 36,
                "velocity": 40,
                "duration": 0.1522727,
                "tempo": 120.0
            },
            {
                "start_time": 146.2590909,
                "end_time": 146.4090909,
                "pitch": 40,
                "velocity": 40,
                "duration": 0.15,
                "tempo": 120.0
            },
            {
                "start_time": 146.4590909,
                "end_time": 146.6090909,
                "pitch": 45,
                "velocity": 40,
                "duration": 0.15,
                "tempo": 120.0
            },
            {
                "start_time": 146.6590909,
                "end_time": 146.8090909,
                "pitch": 36,
                "velocity": 40,
                "duration": 0.15,
                "tempo": 120.0
            },
            {
                "start_time": 146.8590909,
                "end_time": 147.0113636,
                "pitch": 35,
                "velocity": 40,
                "duration": 0.1522727,
                "tempo": 120.0
            },
            {
                "start_time": 147.0613636,
                "end_time": 147.2136364,
                "pitch": 38,
                "velocity": 40,
                "duration": 0.1522727,
                "tempo": 120.0
            },
            {
                "start_time": 147.2636364,
                "end_time": 147.4136364,
                "pitch": 43,
                "velocity": 40,
                "duration": 0.15,
                "tempo": 120.0
            },
            {
                "start_time": 147.4636364,
                "end_time": 147.6159091,
                "pitch": 35,
                "velocity": 40,
                "duration": 0.1522727,
                "tempo": 120.0
            },
            {
                "start_time": 147.6659091,
                "end_time": 147.8159091,
                "pitch": 36,
                "velocity": 40,
                "duration": 0.15,
                "tempo": 120.0
            },
            {
                "start_time": 147.8659091,
                "end_time": 148.0181818,
                "pitch": 40,
                "velocity": 40,
                "duration": 0.1522727,
                "tempo": 120.0
            },
            {
                "start_time": 148.0681818,
                "end_time": 148.2181818,
                "pitch": 45,
                "velocity": 40,
                "duration": 0.15,
                "tempo": 120.0
            },
            {
                "start_time": 148.2704545,
                "end_time": 148.4204545,
                "pitch": 40,
                "velocity": 40,
                "duration": 0.15,
                "tempo": 120.0
            },
            {
                "start_time": 148.4704545,
                "end_time": 148.6204545,
                "pitch": 35,
                "velocity": 40,
                "duration": 0.15,
                "tempo": 120.0
            },
            {
                "start_time": 148.6704545,
                "end_time": 148.8204545,
                "pitch": 38,
                "velocity": 40,
                "duration": 0.15,
                "tempo": 120.0
            },
            {
                "start_time": 148.8704545,
                "end_time": 149.0227273,
                "pitch": 43,
                "velocity": 40,
                "duration": 0.1522727,
                "tempo": 120.0
            },
            {
                "start_time": 149.0727273,
                "end_time": 149.2227273,
                "pitch": 38,
                "velocity": 40,
                "duration": 0.15,
                "tempo": 120.0
            },
            {
                "start_time": 149.2727273,
                "end_time": 149.425,
                "pitch": 38,
                "velocity": 40,
                "duration": 0.1522727,
                "tempo": 120.0
            },
            {
                "start_time": 149.475,
                "end_time": 149.625,
                "pitch": 42,
                "velocity": 40,
                "duration": 0.15,
                "tempo": 120.0
            },
            {
                "start_time": 149.6772727,
                "end_time": 149.8272727,
                "pitch": 47,
                "velocity": 40,
                "duration": 0.15,
                "tempo": 120.0
            },
            {
                "start_time": 149.8772727,
                "end_time": 150.0295455,
                "pitch": 42,
                "velocity": 40,
                "duration": 0.1522727,
                "tempo": 120.0
            },
            {
                "start_time": 150.0795455,
                "end_time": 150.2295455,
                "pitch": 40,
                "velocity": 40,
                "duration": 0.15,
                "tempo": 120.0
            },
            {
                "start_time": 150.2795455,
                "end_time": 150.4318182,
                "pitch": 44,
                "velocity": 40,
                "duration": 0.1522727,
                "tempo": 120.0
            },
            {
                "start_time": 150.4818182,
                "end_time": 150.6318182,
                "pitch": 47,
                "velocity": 40,
                "duration": 0.15,
                "tempo": 120.0
            },
            {
                "start_time": 150.6818182,
                "end_time": 150.8318182,
                "pitch": 44,
                "velocity": 40,
                "duration": 0.15,
                "tempo": 120.0
            },
            {
                "start_time": 150.8818182,
                "end_time": 151.0318182,
                "pitch": 36,
                "velocity": 40,
                "duration": 0.15,
                "tempo": 120.0
            },
            {
                "start_time": 151.0840909,
                "end_time": 151.2340909,
                "pitch": 40,
                "velocity": 40,
                "duration": 0.15,
                "tempo": 120.0
            },
            {
                "start_time": 151.2840909,
                "end_time": 151.4363636,
                "pitch": 45,
                "velocity": 40,
                "duration": 0.1522727,
                "tempo": 120.0
            },
            {
                "start_time": 151.4863636,
                "end_time": 151.6363636,
                "pitch": 40,
                "velocity": 40,
                "duration": 0.15,
                "tempo": 120.0
            },
            {
                "start_time": 151.6863636,
                "end_time": 151.8386364,
                "pitch": 35,
                "velocity": 40,
                "duration": 0.1522727,
                "tempo": 120.0
            },
            {
                "start_time": 151.8886364,
                "end_time": 152.0386364,
                "pitch": 38,
                "velocity": 40,
                "duration": 0.15,
                "tempo": 120.0
            },
            {
                "start_time": 152.0886364,
                "end_time": 152.2409091,
                "pitch": 43,
                "velocity": 40,
                "duration": 0.1522727,
                "tempo": 120.0
            },
            {
                "start_time": 152.2909091,
                "end_time": 152.4431818,
                "pitch": 38,
                "velocity": 40,
                "duration": 0.1522727,
                "tempo": 120.0
            },
            {
                "start_time": 152.4931818,
                "end_time": 152.6431818,
                "pitch": 33,
                "velocity": 40,
                "duration": 0.15,
                "tempo": 120.0
            },
            {
                "start_time": 152.6931818,
                "end_time": 152.8431818,
                "pitch": 36,
                "velocity": 40,
                "duration": 0.15,
                "tempo": 120.0
            },
            {
                "start_time": 152.8931818,
                "end_time": 153.0431818,
                "pitch": 43,
                "velocity": 40,
                "duration": 0.15,
                "tempo": 120.0
            },
            {
                "start_time": 153.0931818,
                "end_time": 153.2454545,
                "pitch": 36,
                "velocity": 40,
                "duration": 0.1522727,
                "tempo": 120.0
            },
            {
                "start_time": 153.2954545,
                "end_time": 153.4454545,
                "pitch": 32,
                "velocity": 40,
                "duration": 0.15,
                "tempo": 120.0
            },
            {
                "start_time": 153.4954545,
                "end_time": 153.6477273,
                "pitch": 35,
                "velocity": 40,
                "duration": 0.1522727,
                "tempo": 120.0
            },
            {
                "start_time": 153.6977273,
                "end_time": 153.8477273,
                "pitch": 38,
                "velocity": 40,
                "duration": 0.15,
                "tempo": 120.0
            },
            {
                "start_time": 153.9,
                "end_time": 154.05,
                "pitch": 35,
                "velocity": 40,
                "duration": 0.15,
                "tempo": 120.0
            },
            {
                "start_time": 154.1,
                "end_time": 154.2522727,
                "pitch": 36,
                "velocity": 40,
                "duration": 0.1522727,
                "tempo": 120.0
            },
            {
                "start_time": 154.3022727,
                "end_time": 154.4522727,
                "pitch": 40,
                "velocity": 40,
                "duration": 0.15,
                "tempo": 120.0
            },
            {
                "start_time": 154.5022727,
                "end_time": 154.6522727,
                "pitch": 45,
                "velocity": 40,
                "duration": 0.15,
                "tempo": 120.0
            },
            {
                "start_time": 154.7022727,
                "end_time": 154.8522727,
                "pitch": 40,
                "velocity": 40,
                "duration": 0.15,
                "tempo": 120.0
            },
            {
                "start_time": 154.9022727,
                "end_time": 155.0545455,
                "pitch": 35,
                "velocity": 40,
                "duration": 0.1522727,
                "tempo": 120.0
            },
            {
                "start_time": 155.1045455,
                "end_time": 155.2545455,
                "pitch": 38,
                "velocity": 40,
                "duration": 0.15,
                "tempo": 120.0
            },
            {
                "start_time": 155.3068182,
                "end_time": 155.4568182,
                "pitch": 43,
                "velocity": 40,
                "duration": 0.15,
                "tempo": 120.0
            },
            {
                "start_time": 155.5068182,
                "end_time": 155.6590909,
                "pitch": 38,
                "velocity": 40,
                "duration": 0.1522727,
                "tempo": 120.0
            },
            {
                "start_time": 155.7090909,
                "end_time": 155.8590909,
                "pitch": 38,
                "velocity": 40,
                "duration": 0.15,
                "tempo": 120.0
            },
            {
                "start_time": 155.9090909,
                "end_time": 156.0613636,
                "pitch": 42,
                "velocity": 40,
                "duration": 0.1522727,
                "tempo": 120.0
            },
            {
                "start_time": 156.1113636,
                "end_time": 156.2613636,
                "pitch": 47,
                "velocity": 40,
                "duration": 0.15,
                "tempo": 120.0
            },
            {
                "start_time": 156.3136364,
                "end_time": 156.4636364,
                "pitch": 42,
                "velocity": 40,
                "duration": 0.15,
                "tempo": 120.0
            },
            {
                "start_time": 156.5136364,
                "end_time": 156.6681818,
                "pitch": 40,
                "velocity": 40,
                "duration": 0.1545455,
                "tempo": 120.0
            },
            {
                "start_time": 156.7181818,
                "end_time": 156.8727273,
                "pitch": 44,
                "velocity": 40,
                "duration": 0.1545455,
                "tempo": 120.0
            },
            {
                "start_time": 156.925,
                "end_time": 157.0727273,
                "pitch": 47,
                "velocity": 40,
                "duration": 0.1477273,
                "tempo": 120.0
            },
            {
                "start_time": 157.1204545,
                "end_time": 157.2681818,
                "pitch": 44,
                "velocity": 40,
                "duration": 0.1477273,
                "tempo": 120.0
            },
            {
                "start_time": 157.3159091,
                "end_time": 157.4681818,
                "pitch": 36,
                "velocity": 40,
                "duration": 0.1522727,
                "tempo": 120.0
            },
            {
                "start_time": 157.5181818,
                "end_time": 157.6681818,
                "pitch": 40,
                "velocity": 40,
                "duration": 0.15,
                "tempo": 120.0
            },
            {
                "start_time": 157.7204545,
                "end_time": 157.8704545,
                "pitch": 45,
                "velocity": 40,
                "duration": 0.15,
                "tempo": 120.0
            },
            {
                "start_time": 157.9204545,
                "end_time": 158.0727273,
                "pitch": 40,
                "velocity": 40,
                "duration": 0.1522727,
                "tempo": 120.0
            },
            {
                "start_time": 158.1227273,
                "end_time": 158.2727273,
                "pitch": 35,
                "velocity": 40,
                "duration": 0.15,
                "tempo": 120.0
            },
            {
                "start_time": 158.3227273,
                "end_time": 158.475,
                "pitch": 38,
                "velocity": 40,
                "duration": 0.1522727,
                "tempo": 120.0
            },
            {
                "start_time": 158.525,
                "end_time": 158.675,
                "pitch": 43,
                "velocity": 40,
                "duration": 0.15,
                "tempo": 120.0
            },
            {
                "start_time": 158.725,
                "end_time": 158.875,
                "pitch": 38,
                "velocity": 40,
                "duration": 0.15,
                "tempo": 120.0
            },
            {
                "start_time": 158.925,
                "end_time": 159.075,
                "pitch": 33,
                "velocity": 40,
                "duration": 0.15,
                "tempo": 120.0
            },
            {
                "start_time": 159.1272727,
                "end_time": 159.2772727,
                "pitch": 36,
                "velocity": 40,
                "duration": 0.15,
                "tempo": 120.0
            },
            {
                "start_time": 159.3272727,
                "end_time": 159.4795455,
                "pitch": 43,
                "velocity": 40,
                "duration": 0.1522727,
                "tempo": 120.0
            },
            {
                "start_time": 159.5295455,
                "end_time": 159.6795455,
                "pitch": 36,
                "velocity": 40,
                "duration": 0.15,
                "tempo": 120.0
            },
            {
                "start_time": 159.7295455,
                "end_time": 159.8818182,
                "pitch": 35,
                "velocity": 40,
                "duration": 0.1522727,
                "tempo": 120.0
            },
            {
                "start_time": 159.9318182,
                "end_time": 160.0818182,
                "pitch": 38,
                "velocity": 40,
                "duration": 0.15,
                "tempo": 120.0
            },
            {
                "start_time": 160.1318182,
                "end_time": 160.2840909,
                "pitch": 43,
                "velocity": 40,
                "duration": 0.1522727,
                "tempo": 120.0
            },
            {
                "start_time": 160.3340909,
                "end_time": 160.5363636,
                "pitch": 38,
                "velocity": 40,
                "duration": 0.2022727,
                "tempo": 120.0
            }
        ],
        "Acoustic Grand Piano": [
            {
                "start_time": 6.8022727,
                "end_time": 6.9454545,
                "pitch": 84,
                "velocity": 40,
                "duration": 0.1431818,
                "tempo": 120.0
            },
            {
                "start_time": 6.9931818,
                "end_time": 7.1363636,
                "pitch": 84,
                "velocity": 40,
                "duration": 0.1431818,
                "tempo": 120.0
            },
            {
                "start_time": 7.1840909,
                "end_time": 7.3340909,
                "pitch": 83,
                "velocity": 40,
                "duration": 0.15,
                "tempo": 120.0
            },
            {
                "start_time": 7.5840909,
                "end_time": 7.7340909,
                "pitch": 84,
                "velocity": 40,
                "duration": 0.15,
                "tempo": 120.0
            },
            {
                "start_time": 7.7863636,
                "end_time": 7.9363636,
                "pitch": 84,
                "velocity": 40,
                "duration": 0.15,
                "tempo": 120.0
            },
            {
                "start_time": 7.9863636,
                "end_time": 8.1386364,
                "pitch": 86,
                "velocity": 40,
                "duration": 0.1522727,
                "tempo": 120.0
            },
            {
                "start_time": 8.3886364,
                "end_time": 8.5409091,
                "pitch": 84,
                "velocity": 40,
                "duration": 0.1522727,
                "tempo": 120.0
            },
            {
                "start_time": 8.5909091,
                "end_time": 8.7409091,
                "pitch": 83,
                "velocity": 40,
                "duration": 0.15,
                "tempo": 120.0
            },
            {
                "start_time": 8.7931818,
                "end_time": 8.9431818,
                "pitch": 84,
                "velocity": 40,
                "duration": 0.15,
                "tempo": 120.0
            },
            {
                "start_time": 9.9977273,
                "end_time": 10.1477273,
                "pitch": 84,
                "velocity": 40,
                "duration": 0.15,
                "tempo": 120.0
            },
            {
                "start_time": 10.2,
                "end_time": 10.35,
                "pitch": 84,
                "velocity": 40,
                "duration": 0.15,
                "tempo": 120.0
            },
            {
                "start_time": 10.4,
                "end_time": 10.5522727,
                "pitch": 83,
                "velocity": 40,
                "duration": 0.1522727,
                "tempo": 120.0
            },
            {
                "start_time": 10.8022727,
                "end_time": 10.9522727,
                "pitch": 84,
                "velocity": 40,
                "duration": 0.15,
                "tempo": 120.0
            },
            {
                "start_time": 11.0022727,
                "end_time": 11.1522727,
                "pitch": 84,
                "velocity": 40,
                "duration": 0.15,
                "tempo": 120.0
            },
            {
                "start_time": 11.2022727,
                "end_time": 11.3545455,
                "pitch": 79,
                "velocity": 40,
                "duration": 0.1522727,
                "tempo": 120.0
            },
            {
                "start_time": 11.6045455,
                "end_time": 11.7568182,
                "pitch": 75,
                "velocity": 40,
                "duration": 0.1522727,
                "tempo": 120.0
            },
            {
                "start_time": 12.0090909,
                "end_time": 12.1590909,
                "pitch": 74,
                "velocity": 40,
                "duration": 0.15,
                "tempo": 120.0
            },
            {
                "start_time": 12.4113636,
                "end_time": 12.5613636,
                "pitch": 79,
                "velocity": 40,
                "duration": 0.15,
                "tempo": 120.0
            },
            {
                "start_time": 13.2136364,
                "end_time": 13.3636364,
                "pitch": 84,
                "velocity": 40,
                "duration": 0.15,
                "tempo": 120.0
            },
            {
                "start_time": 13.4159091,
                "end_time": 13.5659091,
                "pitch": 84,
                "velocity": 40,
                "duration": 0.15,
                "tempo": 120.0
            },
            {
                "start_time": 13.6159091,
                "end_time": 13.7681818,
                "pitch": 83,
                "velocity": 40,
                "duration": 0.1522727,
                "tempo": 120.0
            },
            {
                "start_time": 14.0181818,
                "end_time": 14.1704545,
                "pitch": 84,
                "velocity": 40,
                "duration": 0.1522727,
                "tempo": 120.0
            },
            {
                "start_time": 14.2204545,
                "end_time": 14.3704545,
                "pitch": 84,
                "velocity": 40,
                "duration": 0.15,
                "tempo": 120.0
            },
            {
                "start_time": 14.4227273,
                "end_time": 14.5727273,
                "pitch": 86,
                "velocity": 40,
                "duration": 0.15,
                "tempo": 120.0
            },
            {
                "start_time": 14.825,
                "end_time": 14.975,
                "pitch": 84,
                "velocity": 40,
                "duration": 0.15,
                "tempo": 120.0
            },
            {
                "start_time": 15.025,
                "end_time": 15.175,
                "pitch": 83,
                "velocity": 40,
                "duration": 0.15,
                "tempo": 120.0
            },
            {
                "start_time": 15.225,
                "end_time": 15.375,
                "pitch": 84,
                "velocity": 40,
                "duration": 0.15,
                "tempo": 120.0
            },
            {
                "start_time": 16.4318182,
                "end_time": 16.5818182,
                "pitch": 84,
                "velocity": 40,
                "duration": 0.15,
                "tempo": 120.0
            },
            {
                "start_time": 16.6318182,
                "end_time": 16.7818182,
                "pitch": 84,
                "velocity": 40,
                "duration": 0.15,
                "tempo": 120.0
            },
            {
                "start_time": 16.8318182,
                "end_time": 16.9840909,
                "pitch": 83,
                "velocity": 40,
                "duration": 0.1522727,
                "tempo": 120.0
            },
            {
                "start_time": 17.2340909,
                "end_time": 17.3840909,
                "pitch": 84,
                "velocity": 40,
                "duration": 0.15,
                "tempo": 120.0
            },
            {
                "start_time": 17.4340909,
                "end_time": 17.5840909,
                "pitch": 84,
                "velocity": 40,
                "duration": 0.15,
                "tempo": 120.0
            },
            {
                "start_time": 17.6340909,
                "end_time": 17.7840909,
                "pitch": 79,
                "velocity": 40,
                "duration": 0.15,
                "tempo": 120.0
            },
            {
                "start_time": 18.0340909,
                "end_time": 18.1863636,
                "pitch": 75,
                "velocity": 40,
                "duration": 0.1522727,
                "tempo": 120.0
            },
            {
                "start_time": 18.4386364,
                "end_time": 18.5886364,
                "pitch": 74,
                "velocity": 40,
                "duration": 0.15,
                "tempo": 120.0
            },
            {
                "start_time": 18.8386364,
                "end_time": 18.9886364,
                "pitch": 72,
                "velocity": 40,
                "duration": 0.15,
                "tempo": 120.0
            },
            {
                "start_time": 19.6409091,
                "end_time": 19.7909091,
                "pitch": 81,
                "velocity": 40,
                "duration": 0.15,
                "tempo": 120.0
            },
            {
                "start_time": 19.8409091,
                "end_time": 19.9909091,
                "pitch": 81,
                "velocity": 40,
                "duration": 0.15,
                "tempo": 120.0
            },
            {
                "start_time": 20.0409091,
                "end_time": 20.1909091,
                "pitch": 80,
                "velocity": 40,
                "duration": 0.15,
                "tempo": 120.0
            },
            {
                "start_time": 20.4431818,
                "end_time": 20.5931818,
                "pitch": 81,
                "velocity": 40,
                "duration": 0.15,
                "tempo": 120.0
            },
            {
                "start_time": 20.6431818,
                "end_time": 20.7931818,
                "pitch": 81,
                "velocity": 40,
                "duration": 0.15,
                "tempo": 120.0
            },
            {
                "start_time": 20.8431818,
                "end_time": 20.9931818,
                "pitch": 83,
                "velocity": 40,
                "duration": 0.15,
                "tempo": 120.0
            },
            {
                "start_time": 21.2454545,
                "end_time": 21.3954545,
                "pitch": 81,
                "velocity": 40,
                "duration": 0.15,
                "tempo": 120.0
            },
            {
                "start_time": 21.4454545,
                "end_time": 21.5954545,
                "pitch": 80,
                "velocity": 40,
                "duration": 0.15,
                "tempo": 120.0
            },
            {
                "start_time": 21.6454545,
                "end_time": 21.7954545,
                "pitch": 81,
                "velocity": 40,
                "duration": 0.15,
                "tempo": 120.0
            },
            {
                "start_time": 22.0454545,
                "end_time": 22.1977273,
                "pitch": 83,
                "velocity": 40,
                "duration": 0.1522727,
                "tempo": 120.0
            },
            {
                "start_time": 22.2477273,
                "end_time": 22.3977273,
                "pitch": 84,
                "velocity": 40,
                "duration": 0.15,
                "tempo": 120.0
            },
            {
                "start_time": 22.4477273,
                "end_time": 22.5977273,
                "pitch": 86,
                "velocity": 40,
                "duration": 0.15,
                "tempo": 120.0
            },
            {
                "start_time": 22.8477273,
                "end_time": 23.0,
                "pitch": 84,
                "velocity": 40,
                "duration": 0.1522727,
                "tempo": 120.0
            },
            {
                "start_time": 23.05,
                "end_time": 23.2,
                "pitch": 83,
                "velocity": 40,
                "duration": 0.15,
                "tempo": 120.0
            },
            {
                "start_time": 23.2522727,
                "end_time": 23.4022727,
                "pitch": 84,
                "velocity": 40,
                "duration": 0.15,
                "tempo": 120.0
            },
            {
                "start_time": 23.6522727,
                "end_time": 23.8022727,
                "pitch": 86,
                "velocity": 40,
                "duration": 0.15,
                "tempo": 120.0
            },
            {
                "start_time": 23.8522727,
                "end_time": 24.0022727,
                "pitch": 88,
                "velocity": 40,
                "duration": 0.15,
                "tempo": 120.0
            },
            {
                "start_time": 24.0522727,
                "end_time": 24.2022727,
                "pitch": 89,
                "velocity": 40,
                "duration": 0.15,
                "tempo": 120.0
            },
            {
                "start_time": 24.4545455,
                "end_time": 24.6045455,
                "pitch": 88,
                "velocity": 40,
                "duration": 0.15,
                "tempo": 120.0
            },
            {
                "start_time": 26.0568182,
                "end_time": 26.2068182,
                "pitch": 81,
                "velocity": 40,
                "duration": 0.15,
                "tempo": 120.0
            },
            {
                "start_time": 26.2568182,
                "end_time": 26.4090909,
                "pitch": 81,
                "velocity": 40,
                "duration": 0.1522727,
                "tempo": 120.0
            },
            {
                "start_time": 26.4590909,
                "end_time": 26.6090909,
                "pitch": 80,
                "velocity": 40,
                "duration": 0.15,
                "tempo": 120.0
            },
            {
                "start_time": 26.8590909,
                "end_time": 27.0113636,
                "pitch": 81,
                "velocity": 40,
                "duration": 0.1522727,
                "tempo": 120.0
            },
            {
                "start_time": 27.0613636,
                "end_time": 27.2113636,
                "pitch": 81,
                "velocity": 40,
                "duration": 0.15,
                "tempo": 120.0
            },
            {
                "start_time": 27.2613636,
                "end_time": 27.4113636,
                "pitch": 83,
                "velocity": 40,
                "duration": 0.15,
                "tempo": 120.0
            },
            {
                "start_time": 27.6613636,
                "end_time": 27.8113636,
                "pitch": 81,
                "velocity": 40,
                "duration": 0.15,
                "tempo": 120.0
            },
            {
                "start_time": 27.8613636,
                "end_time": 28.0113636,
                "pitch": 80,
                "velocity": 40,
                "duration": 0.15,
                "tempo": 120.0
            },
            {
                "start_time": 28.0613636,
                "end_time": 28.2136364,
                "pitch": 81,
                "velocity": 40,
                "duration": 0.1522727,
                "tempo": 120.0
            },
            {
                "start_time": 28.4636364,
                "end_time": 28.6136364,
                "pitch": 83,
                "velocity": 40,
                "duration": 0.15,
                "tempo": 120.0
            },
            {
                "start_time": 28.6636364,
                "end_time": 28.8136364,
                "pitch": 84,
                "velocity": 40,
                "duration": 0.15,
                "tempo": 120.0
            },
            {
                "start_time": 28.8636364,
                "end_time": 29.0159091,
                "pitch": 86,
                "velocity": 40,
                "duration": 0.1522727,
                "tempo": 120.0
            },
            {
                "start_time": 29.0659091,
                "end_time": 29.2159091,
                "pitch": 84,
                "velocity": 40,
                "duration": 0.15,
                "tempo": 120.0
            },
            {
                "start_time": 29.2681818,
                "end_time": 29.4181818,
                "pitch": 83,
                "velocity": 40,
                "duration": 0.15,
                "tempo": 120.0
            },
            {
                "start_time": 29.4681818,
                "end_time": 29.6181818,
                "pitch": 81,
                "velocity": 40,
                "duration": 0.15,
                "tempo": 120.0
            },
            {
                "start_time": 29.6681818,
                "end_time": 29.8181818,
                "pitch": 84,
                "velocity": 40,
                "duration": 0.15,
                "tempo": 120.0
            },
            {
                "start_time": 29.8681818,
                "end_time": 30.0181818,
                "pitch": 83,
                "velocity": 40,
                "duration": 0.15,
                "tempo": 120.0
            },
            {
                "start_time": 30.0681818,
                "end_time": 30.2181818,
                "pitch": 81,
                "velocity": 40,
                "duration": 0.15,
                "tempo": 120.0
            },
            {
                "start_time": 30.2681818,
                "end_time": 30.4204545,
                "pitch": 80,
                "velocity": 40,
                "duration": 0.1522727,
                "tempo": 120.0
            },
            {
                "start_time": 30.4704545,
                "end_time": 30.6204545,
                "pitch": 81,
                "velocity": 40,
                "duration": 0.15,
                "tempo": 120.0
            },
            {
                "start_time": 32.0886364,
                "end_time": 96.6454545,
                "pitch": 60,
                "velocity": 40,
                "duration": 64.5568182,
                "tempo": 120.0
            },
            {
                "start_time": 96.6454545,
                "end_time": 96.7909091,
                "pitch": 84,
                "velocity": 40,
                "duration": 0.1454545,
                "tempo": 120.0
            },
            {
                "start_time": 96.8409091,
                "end_time": 96.9886364,
                "pitch": 84,
                "velocity": 40,
                "duration": 0.1477273,
                "tempo": 120.0
            },
            {
                "start_time": 97.0363636,
                "end_time": 97.1886364,
                "pitch": 83,
                "velocity": 40,
                "duration": 0.1522727,
                "tempo": 120.0
            },
            {
                "start_time": 97.4386364,
                "end_time": 97.5909091,
                "pitch": 84,
                "velocity": 40,
                "duration": 0.1522727,
                "tempo": 120.0
            },
            {
                "start_time": 97.6409091,
                "end_time": 97.7909091,
                "pitch": 84,
                "velocity": 40,
                "duration": 0.15,
                "tempo": 120.0
            },
            {
                "start_time": 97.8431818,
                "end_time": 97.9931818,
                "pitch": 86,
                "velocity": 40,
                "duration": 0.15,
                "tempo": 120.0
            },
            {
                "start_time": 98.2431818,
                "end_time": 98.3931818,
                "pitch": 84,
                "velocity": 40,
                "duration": 0.15,
                "tempo": 120.0
            },
            {
                "start_time": 98.4431818,
                "end_time": 98.5954545,
                "pitch": 83,
                "velocity": 40,
                "duration": 0.1522727,
                "tempo": 120.0
            },
            {
                "start_time": 98.6454545,
                "end_time": 98.7954545,
                "pitch": 84,
                "velocity": 40,
                "duration": 0.15,
                "tempo": 120.0
            },
            {
                "start_time": 99.85,
                "end_time": 100.0,
                "pitch": 84,
                "velocity": 40,
                "duration": 0.15,
                "tempo": 120.0
            },
            {
                "start_time": 100.05,
                "end_time": 100.2,
                "pitch": 84,
                "velocity": 40,
                "duration": 0.15,
                "tempo": 120.0
            },
            {
                "start_time": 100.25,
                "end_time": 100.4022727,
                "pitch": 83,
                "velocity": 40,
                "duration": 0.1522727,
                "tempo": 120.0
            },
            {
                "start_time": 100.6522727,
                "end_time": 100.8022727,
                "pitch": 84,
                "velocity": 40,
                "duration": 0.15,
                "tempo": 120.0
            },
            {
                "start_time": 100.8522727,
                "end_time": 101.0022727,
                "pitch": 84,
                "velocity": 40,
                "duration": 0.15,
                "tempo": 120.0
            },
            {
                "start_time": 101.0522727,
                "end_time": 101.2045455,
                "pitch": 79,
                "velocity": 40,
                "duration": 0.1522727,
                "tempo": 120.0
            },
            {
                "start_time": 101.4568182,
                "end_time": 101.6068182,
                "pitch": 75,
                "velocity": 40,
                "duration": 0.15,
                "tempo": 120.0
            },
            {
                "start_time": 101.8590909,
                "end_time": 102.0090909,
                "pitch": 74,
                "velocity": 40,
                "duration": 0.15,
                "tempo": 120.0
            },
            {
                "start_time": 102.2590909,
                "end_time": 102.4090909,
                "pitch": 79,
                "velocity": 40,
                "duration": 0.15,
                "tempo": 120.0
            },
            {
                "start_time": 103.0613636,
                "end_time": 103.2113636,
                "pitch": 84,
                "velocity": 40,
                "duration": 0.15,
                "tempo": 120.0
            },
            {
                "start_time": 103.2613636,
                "end_time": 103.4136364,
                "pitch": 84,
                "velocity": 40,
                "duration": 0.1522727,
                "tempo": 120.0
            },
            {
                "start_time": 103.4636364,
                "end_time": 103.6159091,
                "pitch": 83,
                "velocity": 40,
                "duration": 0.1522727,
                "tempo": 120.0
            },
            {
                "start_time": 103.8659091,
                "end_time": 104.0159091,
                "pitch": 84,
                "velocity": 40,
                "duration": 0.15,
                "tempo": 120.0
            },
            {
                "start_time": 104.0659091,
                "end_time": 104.2159091,
                "pitch": 84,
                "velocity": 40,
                "duration": 0.15,
                "tempo": 120.0
            },
            {
                "start_time": 104.2659091,
                "end_time": 104.4181818,
                "pitch": 86,
                "velocity": 40,
                "duration": 0.1522727,
                "tempo": 120.0
            },
            {
                "start_time": 104.6681818,
                "end_time": 104.8181818,
                "pitch": 84,
                "velocity": 40,
                "duration": 0.15,
                "tempo": 120.0
            },
            {
                "start_time": 104.8681818,
                "end_time": 105.0181818,
                "pitch": 83,
                "velocity": 40,
                "duration": 0.15,
                "tempo": 120.0
            },
            {
                "start_time": 105.0681818,
                "end_time": 105.2204545,
                "pitch": 84,
                "velocity": 40,
                "duration": 0.1522727,
                "tempo": 120.0
            },
            {
                "start_time": 106.275,
                "end_time": 106.425,
                "pitch": 84,
                "velocity": 40,
                "duration": 0.15,
                "tempo": 120.0
            },
            {
                "start_time": 106.475,
                "end_time": 106.6272727,
                "pitch": 84,
                "velocity": 40,
                "duration": 0.1522727,
                "tempo": 120.0
            },
            {
                "start_time": 106.6772727,
                "end_time": 106.8272727,
                "pitch": 83,
                "velocity": 40,
                "duration": 0.15,
                "tempo": 120.0
            },
            {
                "start_time": 107.0772727,
                "end_time": 107.2272727,
                "pitch": 84,
                "velocity": 40,
                "duration": 0.15,
                "tempo": 120.0
            },
            {
                "start_time": 107.2795455,
                "end_time": 107.4295455,
                "pitch": 84,
                "velocity": 40,
                "duration": 0.15,
                "tempo": 120.0
            },
            {
                "start_time": 107.4795455,
                "end_time": 107.6318182,
                "pitch": 79,
                "velocity": 40,
                "duration": 0.1522727,
                "tempo": 120.0
            },
            {
                "start_time": 107.8818182,
                "end_time": 108.0318182,
                "pitch": 75,
                "velocity": 40,
                "duration": 0.15,
                "tempo": 120.0
            },
            {
                "start_time": 108.2818182,
                "end_time": 108.4340909,
                "pitch": 74,
                "velocity": 40,
                "duration": 0.1522727,
                "tempo": 120.0
            },
            {
                "start_time": 108.6863636,
                "end_time": 108.8363636,
                "pitch": 72,
                "velocity": 40,
                "duration": 0.15,
                "tempo": 120.0
            },
            {
                "start_time": 109.4886364,
                "end_time": 109.6386364,
                "pitch": 81,
                "velocity": 40,
                "duration": 0.15,
                "tempo": 120.0
            },
            {
                "start_time": 109.6886364,
                "end_time": 109.8409091,
                "pitch": 81,
                "velocity": 40,
                "duration": 0.1522727,
                "tempo": 120.0
            },
            {
                "start_time": 109.8909091,
                "end_time": 110.0409091,
                "pitch": 80,
                "velocity": 40,
                "duration": 0.15,
                "tempo": 120.0
            },
            {
                "start_time": 110.2909091,
                "end_time": 110.4409091,
                "pitch": 81,
                "velocity": 40,
                "duration": 0.15,
                "tempo": 120.0
            },
            {
                "start_time": 110.4909091,
                "end_time": 110.6431818,
                "pitch": 81,
                "velocity": 40,
                "duration": 0.1522727,
                "tempo": 120.0
            },
            {
                "start_time": 110.6931818,
                "end_time": 110.8431818,
                "pitch": 83,
                "velocity": 40,
                "duration": 0.15,
                "tempo": 120.0
            },
            {
                "start_time": 111.0931818,
                "end_time": 111.2454545,
                "pitch": 81,
                "velocity": 40,
                "duration": 0.1522727,
                "tempo": 120.0
            },
            {
                "start_time": 111.2954545,
                "end_time": 111.4454545,
                "pitch": 80,
                "velocity": 40,
                "duration": 0.15,
                "tempo": 120.0
            },
            {
                "start_time": 111.4954545,
                "end_time": 111.6477273,
                "pitch": 81,
                "velocity": 40,
                "duration": 0.1522727,
                "tempo": 120.0
            },
            {
                "start_time": 111.8977273,
                "end_time": 112.0477273,
                "pitch": 83,
                "velocity": 40,
                "duration": 0.15,
                "tempo": 120.0
            },
            {
                "start_time": 112.0977273,
                "end_time": 112.2477273,
                "pitch": 84,
                "velocity": 40,
                "duration": 0.15,
                "tempo": 120.0
            },
            {
                "start_time": 112.2977273,
                "end_time": 112.45,
                "pitch": 86,
                "velocity": 40,
                "duration": 0.1522727,
                "tempo": 120.0
            },
            {
                "start_time": 112.7022727,
                "end_time": 112.8522727,
                "pitch": 84,
                "velocity": 40,
                "duration": 0.15,
                "tempo": 120.0
            },
            {
                "start_time": 112.9022727,
                "end_time": 113.0522727,
                "pitch": 83,
                "velocity": 40,
                "duration": 0.15,
                "tempo": 120.0
            },
            {
                "start_time": 113.1022727,
                "end_time": 113.2522727,
                "pitch": 84,
                "velocity": 40,
                "duration": 0.15,
                "tempo": 120.0
            },
            {
                "start_time": 113.5045455,
                "end_time": 113.6545455,
                "pitch": 86,
                "velocity": 40,
                "duration": 0.15,
                "tempo": 120.0
            },
            {
                "start_time": 113.7045455,
                "end_time": 113.8568182,
                "pitch": 88,
                "velocity": 40,
                "duration": 0.1522727,
                "tempo": 120.0
            },
            {
                "start_time": 113.9068182,
                "end_time": 114.0568182,
                "pitch": 89,
                "velocity": 40,
                "duration": 0.15,
                "tempo": 120.0
            },
            {
                "start_time": 114.3068182,
                "end_time": 114.4568182,
                "pitch": 88,
                "velocity": 40,
                "duration": 0.15,
                "tempo": 120.0
            },
            {
                "start_time": 115.9159091,
                "end_time": 116.0659091,
                "pitch": 81,
                "velocity": 40,
                "duration": 0.15,
                "tempo": 120.0
            },
            {
                "start_time": 116.1159091,
                "end_time": 116.2659091,
                "pitch": 81,
                "velocity": 40,
                "duration": 0.15,
                "tempo": 120.0
            },
            {
                "start_time": 116.3159091,
                "end_time": 116.4659091,
                "pitch": 80,
                "velocity": 40,
                "duration": 0.15,
                "tempo": 120.0
            },
            {
                "start_time": 116.7181818,
                "end_time": 116.8681818,
                "pitch": 81,
                "velocity": 40,
                "duration": 0.15,
                "tempo": 120.0
            },
            {
                "start_time": 116.9181818,
                "end_time": 117.0681818,
                "pitch": 81,
                "velocity": 40,
                "duration": 0.15,
                "tempo": 120.0
            },
            {
                "start_time": 117.1181818,
                "end_time": 117.2681818,
                "pitch": 83,
                "velocity": 40,
                "duration": 0.15,
                "tempo": 120.0
            },
            {
                "start_time": 117.5204545,
                "end_time": 117.6704545,
                "pitch": 81,
                "velocity": 40,
                "duration": 0.15,
                "tempo": 120.0
            },
            {
                "start_time": 117.7204545,
                "end_time": 117.8727273,
                "pitch": 80,
                "velocity": 40,
                "duration": 0.1522727,
                "tempo": 120.0
            },
            {
                "start_time": 117.9227273,
                "end_time": 118.0727273,
                "pitch": 81,
                "velocity": 40,
                "duration": 0.15,
                "tempo": 120.0
            },
            {
                "start_time": 118.3227273,
                "end_time": 118.475,
                "pitch": 83,
                "velocity": 40,
                "duration": 0.1522727,
                "tempo": 120.0
            },
            {
                "start_time": 118.525,
                "end_time": 118.675,
                "pitch": 84,
                "velocity": 40,
                "duration": 0.15,
                "tempo": 120.0
            },
            {
                "start_time": 118.725,
                "end_time": 118.875,
                "pitch": 86,
                "velocity": 40,
                "duration": 0.15,
                "tempo": 120.0
            },
            {
                "start_time": 118.925,
                "end_time": 119.075,
                "pitch": 84,
                "velocity": 40,
                "duration": 0.15,
                "tempo": 120.0
            },
            {
                "start_time": 119.125,
                "end_time": 119.2772727,
                "pitch": 83,
                "velocity": 40,
                "duration": 0.1522727,
                "tempo": 120.0
            },
            {
                "start_time": 119.3272727,
                "end_time": 119.4772727,
                "pitch": 81,
                "velocity": 40,
                "duration": 0.15,
                "tempo": 120.0
            },
            {
                "start_time": 119.5272727,
                "end_time": 119.6795455,
                "pitch": 84,
                "velocity": 40,
                "duration": 0.1522727,
                "tempo": 120.0
            },
            {
                "start_time": 119.7295455,
                "end_time": 119.8795455,
                "pitch": 83,
                "velocity": 40,
                "duration": 0.15,
                "tempo": 120.0
            },
            {
                "start_time": 119.9318182,
                "end_time": 120.0818182,
                "pitch": 81,
                "velocity": 40,
                "duration": 0.15,
                "tempo": 120.0
            },
            {
                "start_time": 120.1318182,
                "end_time": 120.2818182,
                "pitch": 80,
                "velocity": 40,
                "duration": 0.15,
                "tempo": 120.0
            },
            {
                "start_time": 120.3318182,
                "end_time": 120.4818182,
                "pitch": 81,
                "velocity": 40,
                "duration": 0.15,
                "tempo": 120.0
            }
        ],
        "Flute": [
            {
                "start_time": 0.0,
                "end_time": 0.1340909,
                "pitch": 60,
                "velocity": 32,
                "duration": 0.1340909,
                "tempo": 120.0
            },
            {
                "start_time": 0.1840909,
                "end_time": 0.3340909,
                "pitch": 67,
                "velocity": 32,
                "duration": 0.15,
                "tempo": 120.0
            },
            {
                "start_time": 0.575,
                "end_time": 0.7181818,
                "pitch": 67,
                "velocity": 32,
                "duration": 0.1431818,
                "tempo": 120.0
            },
            {
                "start_time": 0.7659091,
                "end_time": 0.9227273,
                "pitch": 66,
                "velocity": 32,
                "duration": 0.1568182,
                "tempo": 120.0
            },
            {
                "start_time": 1.1863636,
                "end_time": 1.3363636,
                "pitch": 67,
                "velocity": 32,
                "duration": 0.15,
                "tempo": 120.0
            },
            {
                "start_time": 1.3863636,
                "end_time": 1.5363636,
                "pitch": 67,
                "velocity": 32,
                "duration": 0.15,
                "tempo": 120.0
            },
            {
                "start_time": 1.5863636,
                "end_time": 1.7386364,
                "pitch": 68,
                "velocity": 32,
                "duration": 0.1522727,
                "tempo": 120.0
            },
            {
                "start_time": 1.7886364,
                "end_time": 1.9386364,
                "pitch": 67,
                "velocity": 32,
                "duration": 0.15,
                "tempo": 120.0
            },
            {
                "start_time": 1.9886364,
                "end_time": 2.1318182,
                "pitch": 66,
                "velocity": 32,
                "duration": 0.1431818,
                "tempo": 120.0
            },
            {
                "start_time": 2.1795455,
                "end_time": 2.3227273,
                "pitch": 67,
                "velocity": 32,
                "duration": 0.1431818,
                "tempo": 120.0
            },
            {
                "start_time": 2.3704545,
                "end_time": 2.5272727,
                "pitch": 72,
                "velocity": 32,
                "duration": 0.1568182,
                "tempo": 120.0
            },
            {
                "start_time": 2.5818182,
                "end_time": 2.7386364,
                "pitch": 67,
                "velocity": 32,
                "duration": 0.1568182,
                "tempo": 120.0
            },
            {
                "start_time": 2.7931818,
                "end_time": 2.9363636,
                "pitch": 66,
                "velocity": 32,
                "duration": 0.1431818,
                "tempo": 120.0
            },
            {
                "start_time": 2.9840909,
                "end_time": 3.1272727,
                "pitch": 67,
                "velocity": 32,
                "duration": 0.1431818,
                "tempo": 120.0
            },
            {
                "start_time": 3.175,
                "end_time": 3.2772727,
                "pitch": 62,
                "velocity": 32,
                "duration": 0.1022727,
                "tempo": 120.0
            },
            {
                "start_time": 3.3136364,
                "end_time": 3.4181818,
                "pitch": 63,
                "velocity": 32,
                "duration": 0.1045455,
                "tempo": 120.0
            },
            {
                "start_time": 3.4545455,
                "end_time": 3.5590909,
                "pitch": 65,
                "velocity": 32,
                "duration": 0.1045455,
                "tempo": 120.0
            },
            {
                "start_time": 3.5954545,
                "end_time": 3.6909091,
                "pitch": 67,
                "velocity": 32,
                "duration": 0.0954545,
                "tempo": 120.0
            },
            {
                "start_time": 3.7227273,
                "end_time": 3.8181818,
                "pitch": 68,
                "velocity": 32,
                "duration": 0.0954545,
                "tempo": 120.0
            },
            {
                "start_time": 3.85,
                "end_time": 3.9454545,
                "pitch": 71,
                "velocity": 32,
                "duration": 0.0954545,
                "tempo": 120.0
            },
            {
                "start_time": 3.9772727,
                "end_time": 4.0772727,
                "pitch": 72,
                "velocity": 32,
                "duration": 0.1,
                "tempo": 120.0
            },
            {
                "start_time": 4.1113636,
                "end_time": 4.2113636,
                "pitch": 71,
                "velocity": 32,
                "duration": 0.1,
                "tempo": 120.0
            },
            {
                "start_time": 4.2431818,
                "end_time": 4.3431818,
                "pitch": 68,
                "velocity": 32,
                "duration": 0.1,
                "tempo": 120.0
            },
            {
                "start_time": 4.3772727,
                "end_time": 4.4772727,
                "pitch": 67,
                "velocity": 32,
                "duration": 0.1,
                "tempo": 120.0
            },
            {
                "start_time": 4.5113636,
                "end_time": 4.6113636,
                "pitch": 65,
                "velocity": 32,
                "duration": 0.1,
                "tempo": 120.0
            },
            {
                "start_time": 4.6431818,
                "end_time": 4.7431818,
                "pitch": 63,
                "velocity": 32,
                "duration": 0.1,
                "tempo": 120.0
            },
            {
                "start_time": 4.7772727,
                "end_time": 4.9318182,
                "pitch": 62,
                "velocity": 32,
                "duration": 0.1545455,
                "tempo": 120.0
            },
            {
                "start_time": 4.9818182,
                "end_time": 5.1363636,
                "pitch": 59,
                "velocity": 32,
                "duration": 0.1545455,
                "tempo": 120.0
            },
            {
                "start_time": 5.1886364,
                "end_time": 5.3409091,
                "pitch": 59,
                "velocity": 32,
                "duration": 0.1522727,
                "tempo": 120.0
            },
            {
                "start_time": 5.3931818,
                "end_time": 5.5477273,
                "pitch": 62,
                "velocity": 32,
                "duration": 0.1545455,
                "tempo": 120.0
            },
            {
                "start_time": 5.5977273,
                "end_time": 5.75,
                "pitch": 59,
                "velocity": 32,
                "duration": 0.1522727,
                "tempo": 120.0
            },
            {
                "start_time": 5.8,
                "end_time": 5.95,
                "pitch": 59,
                "velocity": 32,
                "duration": 0.15,
                "tempo": 120.0
            },
            {
                "start_time": 6.0,
                "end_time": 6.1431818,
                "pitch": 62,
                "velocity": 32,
                "duration": 0.1431818,
                "tempo": 120.0
            },
            {
                "start_time": 6.1909091,
                "end_time": 6.3340909,
                "pitch": 59,
                "velocity": 32,
                "duration": 0.1431818,
                "tempo": 120.0
            }
        ],
        "Oboe": [
            {
                "start_time": 32.875,
                "end_time": 33.025,
                "pitch": 71,
                "velocity": 32,
                "duration": 0.15,
                "tempo": 120.0
            },
            {
                "start_time": 33.075,
                "end_time": 33.225,
                "pitch": 68,
                "velocity": 32,
                "duration": 0.15,
                "tempo": 120.0
            },
            {
                "start_time": 33.275,
                "end_time": 33.425,
                "pitch": 65,
                "velocity": 32,
                "duration": 0.15,
                "tempo": 120.0
            },
            {
                "start_time": 33.475,
                "end_time": 33.625,
                "pitch": 62,
                "velocity": 32,
                "duration": 0.15,
                "tempo": 120.0
            },
            {
                "start_time": 33.675,
                "end_time": 33.825,
                "pitch": 60,
                "velocity": 32,
                "duration": 0.15,
                "tempo": 120.0
            },
            {
                "start_time": 34.475,
                "end_time": 34.6272727,
                "pitch": 71,
                "velocity": 32,
                "duration": 0.1522727,
                "tempo": 120.0
            },
            {
                "start_time": 34.6772727,
                "end_time": 34.8272727,
                "pitch": 68,
                "velocity": 32,
                "duration": 0.15,
                "tempo": 120.0
            },
            {
                "start_time": 34.8772727,
                "end_time": 35.0272727,
                "pitch": 65,
                "velocity": 32,
                "duration": 0.15,
                "tempo": 120.0
            },
            {
                "start_time": 35.0772727,
                "end_time": 35.2272727,
                "pitch": 62,
                "velocity": 32,
                "duration": 0.15,
                "tempo": 120.0
            },
            {
                "start_time": 35.2772727,
                "end_time": 35.4272727,
                "pitch": 63,
                "velocity": 32,
                "duration": 0.15,
                "tempo": 120.0
            },
            {
                "start_time": 36.0772727,
                "end_time": 36.1772727,
                "pitch": 65,
                "velocity": 32,
                "duration": 0.1,
                "tempo": 120.0
            },
            {
                "start_time": 36.2113636,
                "end_time": 36.3113636,
                "pitch": 74,
                "velocity": 32,
                "duration": 0.1,
                "tempo": 120.0
            },
            {
                "start_time": 36.3454545,
                "end_time": 36.4454545,
                "pitch": 72,
                "velocity": 32,
                "duration": 0.1,
                "tempo": 120.0
            },
            {
                "start_time": 36.4772727,
                "end_time": 36.5795455,
                "pitch": 71,
                "velocity": 32,
                "duration": 0.1022727,
                "tempo": 120.0
            },
            {
                "start_time": 36.6113636,
                "end_time": 36.7136364,
                "pitch": 68,
                "velocity": 32,
                "duration": 0.1022727,
                "tempo": 120.0
            },
            {
                "start_time": 36.7477273,
                "end_time": 36.8477273,
                "pitch": 67,
                "velocity": 32,
                "duration": 0.1,
                "tempo": 120.0
            },
            {
                "start_time": 36.8818182,
                "end_time": 37.0318182,
                "pitch": 63,
                "velocity": 32,
                "duration": 0.15,
                "tempo": 120.0
            },
            {
                "start_time": 37.6818182,
                "end_time": 37.8318182,
                "pitch": 62,
                "velocity": 32,
                "duration": 0.15,
                "tempo": 120.0
            },
            {
                "start_time": 38.4818182,
                "end_time": 39.1159091,
                "pitch": 60,
                "velocity": 32,
                "duration": 0.6340909,
                "tempo": 120.0
            },
            {
                "start_time": 39.2840909,
                "end_time": 39.3840909,
                "pitch": 65,
                "velocity": 32,
                "duration": 0.1,
                "tempo": 120.0
            },
            {
                "start_time": 39.4159091,
                "end_time": 39.5159091,
                "pitch": 67,
                "velocity": 32,
                "duration": 0.1,
                "tempo": 120.0
            },
            {
                "start_time": 39.55,
                "end_time": 39.65,
                "pitch": 68,
                "velocity": 32,
                "duration": 0.1,
                "tempo": 120.0
            },
            {
                "start_time": 39.6840909,
                "end_time": 39.7840909,
                "pitch": 71,
                "velocity": 32,
                "duration": 0.1,
                "tempo": 120.0
            },
            {
                "start_time": 39.8159091,
                "end_time": 39.9159091,
                "pitch": 72,
                "velocity": 32,
                "duration": 0.1,
                "tempo": 120.0
            },
            {
                "start_time": 39.95,
                "end_time": 40.05,
                "pitch": 74,
                "velocity": 32,
                "duration": 0.1,
                "tempo": 120.0
            },
            {
                "start_time": 40.0840909,
                "end_time": 40.7181818,
                "pitch": 72,
                "velocity": 32,
                "duration": 0.6340909,
                "tempo": 120.0
            },
            {
                "start_time": 40.8863636,
                "end_time": 40.9704545,
                "pitch": 86,
                "velocity": 32,
                "duration": 0.0840909,
                "tempo": 120.0
            },
            {
                "start_time": 40.9863636,
                "end_time": 41.0704545,
                "pitch": 84,
                "velocity": 32,
                "duration": 0.0840909,
                "tempo": 120.0
            },
            {
                "start_time": 41.0863636,
                "end_time": 41.1704545,
                "pitch": 83,
                "velocity": 32,
                "duration": 0.0840909,
                "tempo": 120.0
            },
            {
                "start_time": 41.1863636,
                "end_time": 41.2704545,
                "pitch": 81,
                "velocity": 32,
                "duration": 0.0840909,
                "tempo": 120.0
            },
            {
                "start_time": 41.2863636,
                "end_time": 41.3704545,
                "pitch": 79,
                "velocity": 32,
                "duration": 0.0840909,
                "tempo": 120.0
            },
            {
                "start_time": 41.3863636,
                "end_time": 41.4704545,
                "pitch": 77,
                "velocity": 32,
                "duration": 0.0840909,
                "tempo": 120.0
            },
            {
                "start_time": 41.4863636,
                "end_time": 41.5704545,
                "pitch": 75,
                "velocity": 32,
                "duration": 0.0840909,
                "tempo": 120.0
            },
            {
                "start_time": 41.5863636,
                "end_time": 41.6704545,
                "pitch": 74,
                "velocity": 32,
                "duration": 0.0840909,
                "tempo": 120.0
            },
            {
                "start_time": 41.6863636,
                "end_time": 42.3204545,
                "pitch": 75,
                "velocity": 32,
                "duration": 0.6340909,
                "tempo": 120.0
            },
            {
                "start_time": 42.4863636,
                "end_time": 43.1227273,
                "pitch": 74,
                "velocity": 32,
                "duration": 0.6363636,
                "tempo": 120.0
            },
            {
                "start_time": 43.2886364,
                "end_time": 43.9227273,
                "pitch": 72,
                "velocity": 32,
                "duration": 0.6340909,
                "tempo": 120.0
            },
            {
                "start_time": 44.0886364,
                "end_time": 44.1886364,
                "pitch": 71,
                "velocity": 32,
                "duration": 0.1,
                "tempo": 120.0
            },
            {
                "start_time": 44.2227273,
                "end_time": 44.3227273,
                "pitch": 65,
                "velocity": 32,
                "duration": 0.1,
                "tempo": 120.0
            },
            {
                "start_time": 44.3545455,
                "end_time": 44.4545455,
                "pitch": 71,
                "velocity": 32,
                "duration": 0.1,
                "tempo": 120.0
            },
            {
                "start_time": 44.4886364,
                "end_time": 44.5886364,
                "pitch": 65,
                "velocity": 32,
                "duration": 0.1,
                "tempo": 120.0
            },
            {
                "start_time": 44.6227273,
                "end_time": 44.725,
                "pitch": 71,
                "velocity": 32,
                "duration": 0.1022727,
                "tempo": 120.0
            },
            {
                "start_time": 44.7568182,
                "end_time": 44.8590909,
                "pitch": 65,
                "velocity": 32,
                "duration": 0.1022727,
                "tempo": 120.0
            },
            {
                "start_time": 44.8909091,
                "end_time": 45.0409091,
                "pitch": 76,
                "velocity": 32,
                "duration": 0.15,
                "tempo": 120.0
            },
            {
                "start_time": 45.6909091,
                "end_time": 46.0090909,
                "pitch": 68,
                "velocity": 32,
                "duration": 0.3181818,
                "tempo": 120.0
            },
            {
                "start_time": 46.0909091,
                "end_time": 46.4090909,
                "pitch": 71,
                "velocity": 32,
                "duration": 0.3181818,
                "tempo": 120.0
            },
            {
                "start_time": 46.4909091,
                "end_time": 46.6431818,
                "pitch": 72,
                "velocity": 32,
                "duration": 0.1522727,
                "tempo": 120.0
            },
            {
                "start_time": 47.2954545,
                "end_time": 47.6113636,
                "pitch": 65,
                "velocity": 32,
                "duration": 0.3159091,
                "tempo": 120.0
            },
            {
                "start_time": 47.6954545,
                "end_time": 47.7954545,
                "pitch": 74,
                "velocity": 32,
                "duration": 0.1,
                "tempo": 120.0
            },
            {
                "start_time": 47.8272727,
                "end_time": 47.9272727,
                "pitch": 72,
                "velocity": 32,
                "duration": 0.1,
                "tempo": 120.0
            },
            {
                "start_time": 47.9613636,
                "end_time": 48.0613636,
                "pitch": 69,
                "velocity": 32,
                "duration": 0.1,
                "tempo": 120.0
            },
            {
                "start_time": 48.0954545,
                "end_time": 48.2454545,
                "pitch": 76,
                "velocity": 32,
                "duration": 0.15,
                "tempo": 120.0
            },
            {
                "start_time": 48.4954545,
                "end_time": 48.6454545,
                "pitch": 74,
                "velocity": 32,
                "duration": 0.15,
                "tempo": 120.0
            },
            {
                "start_time": 48.6954545,
                "end_time": 48.8477273,
                "pitch": 72,
                "velocity": 32,
                "duration": 0.1522727,
                "tempo": 120.0
            },
            {
                "start_time": 48.8977273,
                "end_time": 48.9977273,
                "pitch": 71,
                "velocity": 32,
                "duration": 0.1,
                "tempo": 120.0
            },
            {
                "start_time": 49.0295455,
                "end_time": 49.1295455,
                "pitch": 69,
                "velocity": 32,
                "duration": 0.1,
                "tempo": 120.0
            },
            {
                "start_time": 49.1636364,
                "end_time": 49.2636364,
                "pitch": 68,
                "velocity": 32,
                "duration": 0.1,
                "tempo": 120.0
            },
            {
                "start_time": 49.2977273,
                "end_time": 49.3977273,
                "pitch": 65,
                "velocity": 32,
                "duration": 0.1,
                "tempo": 120.0
            },
            {
                "start_time": 49.4295455,
                "end_time": 49.5295455,
                "pitch": 64,
                "velocity": 32,
                "duration": 0.1,
                "tempo": 120.0
            },
            {
                "start_time": 49.5636364,
                "end_time": 49.6636364,
                "pitch": 62,
                "velocity": 32,
                "duration": 0.1,
                "tempo": 120.0
            },
            {
                "start_time": 49.6977273,
                "end_time": 50.0136364,
                "pitch": 72,
                "velocity": 32,
                "duration": 0.3159091,
                "tempo": 120.0
            },
            {
                "start_time": 50.0977273,
                "end_time": 50.1977273,
                "pitch": 57,
                "velocity": 32,
                "duration": 0.1,
                "tempo": 120.0
            },
            {
                "start_time": 50.2295455,
                "end_time": 50.3295455,
                "pitch": 59,
                "velocity": 32,
                "duration": 0.1,
                "tempo": 120.0
            },
            {
                "start_time": 50.3636364,
                "end_time": 50.4636364,
                "pitch": 60,
                "velocity": 32,
                "duration": 0.1,
                "tempo": 120.0
            },
            {
                "start_time": 50.4977273,
                "end_time": 50.8159091,
                "pitch": 71,
                "velocity": 32,
                "duration": 0.3181818,
                "tempo": 120.0
            },
            {
                "start_time": 50.9,
                "end_time": 50.9840909,
                "pitch": 59,
                "velocity": 32,
                "duration": 0.0840909,
                "tempo": 120.0
            },
            {
                "start_time": 51.0,
                "end_time": 51.0840909,
                "pitch": 60,
                "velocity": 32,
                "duration": 0.0840909,
                "tempo": 120.0
            },
            {
                "start_time": 51.1,
                "end_time": 51.1840909,
                "pitch": 62,
                "velocity": 32,
                "duration": 0.0840909,
                "tempo": 120.0
            },
            {
                "start_time": 51.2,
                "end_time": 51.2840909,
                "pitch": 65,
                "velocity": 32,
                "duration": 0.0840909,
                "tempo": 120.0
            },
            {
                "start_time": 51.3,
                "end_time": 51.6159091,
                "pitch": 69,
                "velocity": 32,
                "duration": 0.3159091,
                "tempo": 120.0
            },
            {
                "start_time": 51.7,
                "end_time": 51.85,
                "pitch": 71,
                "velocity": 32,
                "duration": 0.15,
                "tempo": 120.0
            },
            {
                "start_time": 51.9,
                "end_time": 52.05,
                "pitch": 72,
                "velocity": 32,
                "duration": 0.15,
                "tempo": 120.0
            },
            {
                "start_time": 52.1,
                "end_time": 52.1840909,
                "pitch": 74,
                "velocity": 32,
                "duration": 0.0840909,
                "tempo": 120.0
            },
            {
                "start_time": 52.2,
                "end_time": 52.2840909,
                "pitch": 72,
                "velocity": 32,
                "duration": 0.0840909,
                "tempo": 120.0
            },
            {
                "start_time": 52.3,
                "end_time": 52.3840909,
                "pitch": 71,
                "velocity": 32,
                "duration": 0.0840909,
                "tempo": 120.0
            },
            {
                "start_time": 52.4,
                "end_time": 52.4840909,
                "pitch": 69,
                "velocity": 32,
                "duration": 0.0840909,
                "tempo": 120.0
            },
            {
                "start_time": 52.5,
                "end_time": 52.5840909,
                "pitch": 62,
                "velocity": 32,
                "duration": 0.0840909,
                "tempo": 120.0
            },
            {
                "start_time": 52.6,
                "end_time": 52.6840909,
                "pitch": 64,
                "velocity": 32,
                "duration": 0.0840909,
                "tempo": 120.0
            },
            {
                "start_time": 52.7,
                "end_time": 52.7840909,
                "pitch": 65,
                "velocity": 32,
                "duration": 0.0840909,
                "tempo": 120.0
            },
            {
                "start_time": 52.8022727,
                "end_time": 52.8863636,
                "pitch": 68,
                "velocity": 32,
                "duration": 0.0840909,
                "tempo": 120.0
            },
            {
                "start_time": 52.9022727,
                "end_time": 52.9863636,
                "pitch": 69,
                "velocity": 32,
                "duration": 0.0840909,
                "tempo": 120.0
            },
            {
                "start_time": 53.0022727,
                "end_time": 53.0863636,
                "pitch": 71,
                "velocity": 32,
                "duration": 0.0840909,
                "tempo": 120.0
            },
            {
                "start_time": 53.1022727,
                "end_time": 53.1863636,
                "pitch": 72,
                "velocity": 32,
                "duration": 0.0840909,
                "tempo": 120.0
            },
            {
                "start_time": 53.2022727,
                "end_time": 53.2863636,
                "pitch": 74,
                "velocity": 32,
                "duration": 0.0840909,
                "tempo": 120.0
            },
            {
                "start_time": 53.3022727,
                "end_time": 53.3863636,
                "pitch": 76,
                "velocity": 32,
                "duration": 0.0840909,
                "tempo": 120.0
            },
            {
                "start_time": 53.4022727,
                "end_time": 53.4863636,
                "pitch": 77,
                "velocity": 32,
                "duration": 0.0840909,
                "tempo": 120.0
            },
            {
                "start_time": 53.5022727,
                "end_time": 53.5863636,
                "pitch": 80,
                "velocity": 32,
                "duration": 0.0840909,
                "tempo": 120.0
            },
            {
                "start_time": 53.6022727,
                "end_time": 53.6863636,
                "pitch": 81,
                "velocity": 32,
                "duration": 0.0840909,
                "tempo": 120.0
            },
            {
                "start_time": 53.7022727,
                "end_time": 53.7863636,
                "pitch": 83,
                "velocity": 32,
                "duration": 0.0840909,
                "tempo": 120.0
            },
            {
                "start_time": 53.8022727,
                "end_time": 53.8863636,
                "pitch": 81,
                "velocity": 32,
                "duration": 0.0840909,
                "tempo": 120.0
            },
            {
                "start_time": 53.9022727,
                "end_time": 53.9863636,
                "pitch": 80,
                "velocity": 32,
                "duration": 0.0840909,
                "tempo": 120.0
            },
            {
                "start_time": 54.0022727,
                "end_time": 54.1522727,
                "pitch": 77,
                "velocity": 32,
                "duration": 0.15,
                "tempo": 120.0
            },
            {
                "start_time": 54.2022727,
                "end_time": 54.2863636,
                "pitch": 80,
                "velocity": 32,
                "duration": 0.0840909,
                "tempo": 120.0
            },
            {
                "start_time": 54.3022727,
                "end_time": 54.3863636,
                "pitch": 77,
                "velocity": 32,
                "duration": 0.0840909,
                "tempo": 120.0
            },
            {
                "start_time": 54.4022727,
                "end_time": 54.4863636,
                "pitch": 76,
                "velocity": 32,
                "duration": 0.0840909,
                "tempo": 120.0
            },
            {
                "start_time": 54.5022727,
                "end_time": 54.6022727,
                "pitch": 81,
                "velocity": 32,
                "duration": 0.1,
                "tempo": 120.0
            },
            {
                "start_time": 54.6363636,
                "end_time": 54.7363636,
                "pitch": 72,
                "velocity": 32,
                "duration": 0.1,
                "tempo": 120.0
            },
            {
                "start_time": 54.7704545,
                "end_time": 54.8704545,
                "pitch": 81,
                "velocity": 32,
                "duration": 0.1,
                "tempo": 120.0
            },
            {
                "start_time": 54.9045455,
                "end_time": 55.0045455,
                "pitch": 72,
                "velocity": 32,
                "duration": 0.1,
                "tempo": 120.0
            },
            {
                "start_time": 55.0386364,
                "end_time": 55.1386364,
                "pitch": 81,
                "velocity": 32,
                "duration": 0.1,
                "tempo": 120.0
            },
            {
                "start_time": 55.1727273,
                "end_time": 55.2727273,
                "pitch": 72,
                "velocity": 32,
                "duration": 0.1,
                "tempo": 120.0
            },
            {
                "start_time": 55.3045455,
                "end_time": 55.4545455,
                "pitch": 74,
                "velocity": 32,
                "duration": 0.15,
                "tempo": 120.0
            },
            {
                "start_time": 55.5045455,
                "end_time": 55.6545455,
                "pitch": 71,
                "velocity": 32,
                "duration": 0.15,
                "tempo": 120.0
            },
            {
                "start_time": 55.7045455,
                "end_time": 55.8545455,
                "pitch": 74,
                "velocity": 32,
                "duration": 0.15,
                "tempo": 120.0
            },
            {
                "start_time": 55.9045455,
                "end_time": 56.0545455,
                "pitch": 71,
                "velocity": 32,
                "duration": 0.15,
                "tempo": 120.0
            },
            {
                "start_time": 56.1045455,
                "end_time": 56.2545455,
                "pitch": 57,
                "velocity": 32,
                "duration": 0.15,
                "tempo": 120.0
            },
            {
                "start_time": 56.5045455,
                "end_time": 56.6568182,
                "pitch": 57,
                "velocity": 32,
                "duration": 0.1522727,
                "tempo": 120.0
            },
            {
                "start_time": 56.9068182,
                "end_time": 57.0568182,
                "pitch": 55,
                "velocity": 32,
                "duration": 0.15,
                "tempo": 120.0
            },
            {
                "start_time": 58.1068182,
                "end_time": 58.425,
                "pitch": 81,
                "velocity": 51,
                "duration": 0.3181818,
                "tempo": 120.0
            },
            {
                "start_time": 58.5068182,
                "end_time": 58.8272727,
                "pitch": 79,
                "velocity": 51,
                "duration": 0.3204545,
                "tempo": 120.0
            },
            {
                "start_time": 59.3113636,
                "end_time": 59.4613636,
                "pitch": 66,
                "velocity": 51,
                "duration": 0.15,
                "tempo": 120.0
            },
            {
                "start_time": 59.5113636,
                "end_time": 59.6613636,
                "pitch": 62,
                "velocity": 51,
                "duration": 0.15,
                "tempo": 120.0
            },
            {
                "start_time": 59.7113636,
                "end_time": 59.8613636,
                "pitch": 66,
                "velocity": 51,
                "duration": 0.15,
                "tempo": 120.0
            },
            {
                "start_time": 59.9113636,
                "end_time": 60.2272727,
                "pitch": 64,
                "velocity": 51,
                "duration": 0.3159091,
                "tempo": 120.0
            },
            {
                "start_time": 60.5113636,
                "end_time": 60.6613636,
                "pitch": 66,
                "velocity": 51,
                "duration": 0.15,
                "tempo": 120.0
            },
            {
                "start_time": 60.7113636,
                "end_time": 60.8636364,
                "pitch": 68,
                "velocity": 51,
                "duration": 0.1522727,
                "tempo": 120.0
            },
            {
                "start_time": 61.3136364,
                "end_time": 61.6295455,
                "pitch": 81,
                "velocity": 51,
                "duration": 0.3159091,
                "tempo": 120.0
            },
            {
                "start_time": 61.7136364,
                "end_time": 62.0295455,
                "pitch": 79,
                "velocity": 51,
                "duration": 0.3159091,
                "tempo": 120.0
            },
            {
                "start_time": 62.5136364,
                "end_time": 62.6636364,
                "pitch": 57,
                "velocity": 51,
                "duration": 0.15,
                "tempo": 120.0
            },
            {
                "start_time": 62.7136364,
                "end_time": 62.8659091,
                "pitch": 65,
                "velocity": 51,
                "duration": 0.1522727,
                "tempo": 120.0
            },
            {
                "start_time": 62.9159091,
                "end_time": 63.0659091,
                "pitch": 60,
                "velocity": 51,
                "duration": 0.15,
                "tempo": 120.0
            },
            {
                "start_time": 63.1159091,
                "end_time": 63.2659091,
                "pitch": 57,
                "velocity": 51,
                "duration": 0.15,
                "tempo": 120.0
            },
            {
                "start_time": 63.3159091,
                "end_time": 63.4659091,
                "pitch": 56,
                "velocity": 51,
                "duration": 0.15,
                "tempo": 120.0
            },
            {
                "start_time": 63.5159091,
                "end_time": 63.6659091,
                "pitch": 59,
                "velocity": 51,
                "duration": 0.15,
                "tempo": 120.0
            },
            {
                "start_time": 63.7159091,
                "end_time": 63.8659091,
                "pitch": 64,
                "velocity": 51,
                "duration": 0.15,
                "tempo": 120.0
            },
            {
                "start_time": 63.9159091,
                "end_time": 64.0659091,
                "pitch": 59,
                "velocity": 51,
                "duration": 0.15,
                "tempo": 120.0
            },
            {
                "start_time": 64.5159091,
                "end_time": 64.8318182,
                "pitch": 81,
                "velocity": 51,
                "duration": 0.3159091,
                "tempo": 120.0
            },
            {
                "start_time": 64.9159091,
                "end_time": 65.2340909,
                "pitch": 79,
                "velocity": 51,
                "duration": 0.3181818,
                "tempo": 120.0
            },
            {
                "start_time": 65.7204545,
                "end_time": 65.8704545,
                "pitch": 66,
                "velocity": 51,
                "duration": 0.15,
                "tempo": 120.0
            },
            {
                "start_time": 65.9204545,
                "end_time": 66.0704545,
                "pitch": 62,
                "velocity": 51,
                "duration": 0.15,
                "tempo": 120.0
            },
            {
                "start_time": 66.1204545,
                "end_time": 66.2727273,
                "pitch": 66,
                "velocity": 51,
                "duration": 0.1522727,
                "tempo": 120.0
            },
            {
                "start_time": 66.3227273,
                "end_time": 66.6409091,
                "pitch": 64,
                "velocity": 51,
                "duration": 0.3181818,
                "tempo": 120.0
            },
            {
                "start_time": 66.925,
                "end_time": 67.075,
                "pitch": 66,
                "velocity": 51,
                "duration": 0.15,
                "tempo": 120.0
            },
            {
                "start_time": 67.125,
                "end_time": 67.2772727,
                "pitch": 68,
                "velocity": 51,
                "duration": 0.1522727,
                "tempo": 120.0
            },
            {
                "start_time": 67.7295455,
                "end_time": 68.0454545,
                "pitch": 81,
                "velocity": 51,
                "duration": 0.3159091,
                "tempo": 120.0
            },
            {
                "start_time": 68.1295455,
                "end_time": 68.4477273,
                "pitch": 79,
                "velocity": 51,
                "duration": 0.3181818,
                "tempo": 120.0
            },
            {
                "start_time": 68.9318182,
                "end_time": 69.0818182,
                "pitch": 57,
                "velocity": 51,
                "duration": 0.15,
                "tempo": 120.0
            },
            {
                "start_time": 69.1340909,
                "end_time": 69.2840909,
                "pitch": 65,
                "velocity": 51,
                "duration": 0.15,
                "tempo": 120.0
            },
            {
                "start_time": 69.3340909,
                "end_time": 69.4863636,
                "pitch": 60,
                "velocity": 51,
                "duration": 0.1522727,
                "tempo": 120.0
            },
            {
                "start_time": 69.5363636,
                "end_time": 69.6863636,
                "pitch": 57,
                "velocity": 51,
                "duration": 0.15,
                "tempo": 120.0
            },
            {
                "start_time": 69.7363636,
                "end_time": 69.8863636,
                "pitch": 59,
                "velocity": 51,
                "duration": 0.15,
                "tempo": 120.0
            },
            {
                "start_time": 69.9363636,
                "end_time": 70.0863636,
                "pitch": 62,
                "velocity": 51,
                "duration": 0.15,
                "tempo": 120.0
            },
            {
                "start_time": 70.1363636,
                "end_time": 70.2886364,
                "pitch": 67,
                "velocity": 51,
                "duration": 0.1522727,
                "tempo": 120.0
            },
            {
                "start_time": 70.3386364,
                "end_time": 70.4886364,
                "pitch": 62,
                "velocity": 51,
                "duration": 0.15,
                "tempo": 120.0
            },
            {
                "start_time": 70.5409091,
                "end_time": 122.0931818,
                "pitch": 60,
                "velocity": 51,
                "duration": 51.5522727,
                "tempo": 120.0
            },
            {
                "start_time": 122.7409091,
                "end_time": 122.8909091,
                "pitch": 71,
                "velocity": 32,
                "duration": 0.15,
                "tempo": 120.0
            },
            {
                "start_time": 122.9409091,
                "end_time": 123.0909091,
                "pitch": 68,
                "velocity": 32,
                "duration": 0.15,
                "tempo": 120.0
            },
            {
                "start_time": 123.1409091,
                "end_time": 123.2931818,
                "pitch": 65,
                "velocity": 32,
                "duration": 0.1522727,
                "tempo": 120.0
            },
            {
                "start_time": 123.3431818,
                "end_time": 123.4931818,
                "pitch": 62,
                "velocity": 32,
                "duration": 0.15,
                "tempo": 120.0
            },
            {
                "start_time": 123.5454545,
                "end_time": 123.6954545,
                "pitch": 60,
                "velocity": 32,
                "duration": 0.15,
                "tempo": 120.0
            },
            {
                "start_time": 124.3477273,
                "end_time": 124.4977273,
                "pitch": 71,
                "velocity": 32,
                "duration": 0.15,
                "tempo": 120.0
            },
            {
                "start_time": 124.5477273,
                "end_time": 124.7,
                "pitch": 68,
                "velocity": 32,
                "duration": 0.1522727,
                "tempo": 120.0
            },
            {
                "start_time": 124.75,
                "end_time": 124.9,
                "pitch": 65,
                "velocity": 32,
                "duration": 0.15,
                "tempo": 120.0
            },
            {
                "start_time": 124.95,
                "end_time": 125.1,
                "pitch": 62,
                "velocity": 32,
                "duration": 0.15,
                "tempo": 120.0
            },
            {
                "start_time": 125.15,
                "end_time": 125.3,
                "pitch": 63,
                "velocity": 32,
                "duration": 0.15,
                "tempo": 120.0
            },
            {
                "start_time": 125.9545455,
                "end_time": 126.0545455,
                "pitch": 65,
                "velocity": 32,
                "duration": 0.1,
                "tempo": 120.0
            },
            {
                "start_time": 126.0886364,
                "end_time": 126.1886364,
                "pitch": 74,
                "velocity": 32,
                "duration": 0.1,
                "tempo": 120.0
            },
            {
                "start_time": 126.2227273,
                "end_time": 126.3227273,
                "pitch": 72,
                "velocity": 32,
                "duration": 0.1,
                "tempo": 120.0
            },
            {
                "start_time": 126.3545455,
                "end_time": 126.4568182,
                "pitch": 71,
                "velocity": 32,
                "duration": 0.1022727,
                "tempo": 120.0
            },
            {
                "start_time": 126.4886364,
                "end_time": 126.5909091,
                "pitch": 68,
                "velocity": 32,
                "duration": 0.1022727,
                "tempo": 120.0
            },
            {
                "start_time": 126.6227273,
                "end_time": 126.725,
                "pitch": 67,
                "velocity": 32,
                "duration": 0.1022727,
                "tempo": 120.0
            },
            {
                "start_time": 126.7590909,
                "end_time": 126.9090909,
                "pitch": 63,
                "velocity": 32,
                "duration": 0.15,
                "tempo": 120.0
            },
            {
                "start_time": 127.5613636,
                "end_time": 127.7113636,
                "pitch": 62,
                "velocity": 32,
                "duration": 0.15,
                "tempo": 120.0
            },
            {
                "start_time": 128.3636364,
                "end_time": 129.0,
                "pitch": 60,
                "velocity": 32,
                "duration": 0.6363636,
                "tempo": 120.0
            },
            {
                "start_time": 129.1659091,
                "end_time": 129.2659091,
                "pitch": 65,
                "velocity": 32,
                "duration": 0.1,
                "tempo": 120.0
            },
            {
                "start_time": 129.3,
                "end_time": 129.4,
                "pitch": 67,
                "velocity": 32,
                "duration": 0.1,
                "tempo": 120.0
            },
            {
                "start_time": 129.4340909,
                "end_time": 129.5340909,
                "pitch": 68,
                "velocity": 32,
                "duration": 0.1,
                "tempo": 120.0
            },
            {
                "start_time": 129.5681818,
                "end_time": 129.6704545,
                "pitch": 71,
                "velocity": 32,
                "duration": 0.1022727,
                "tempo": 120.0
            },
            {
                "start_time": 129.7022727,
                "end_time": 129.8045455,
                "pitch": 72,
                "velocity": 32,
                "duration": 0.1022727,
                "tempo": 120.0
            },
            {
                "start_time": 129.8363636,
                "end_time": 129.9386364,
                "pitch": 74,
                "velocity": 32,
                "duration": 0.1022727,
                "tempo": 120.0
            },
            {
                "start_time": 129.9704545,
                "end_time": 130.6068182,
                "pitch": 72,
                "velocity": 32,
                "duration": 0.6363636,
                "tempo": 120.0
            },
            {
                "start_time": 130.775,
                "end_time": 130.8590909,
                "pitch": 86,
                "velocity": 32,
                "duration": 0.0840909,
                "tempo": 120.0
            },
            {
                "start_time": 130.875,
                "end_time": 130.9590909,
                "pitch": 84,
                "velocity": 32,
                "duration": 0.0840909,
                "tempo": 120.0
            },
            {
                "start_time": 130.975,
                "end_time": 131.0590909,
                "pitch": 83,
                "velocity": 32,
                "duration": 0.0840909,
                "tempo": 120.0
            },
            {
                "start_time": 131.075,
                "end_time": 131.1590909,
                "pitch": 81,
                "velocity": 32,
                "duration": 0.0840909,
                "tempo": 120.0
            },
            {
                "start_time": 131.1772727,
                "end_time": 131.2613636,
                "pitch": 79,
                "velocity": 32,
                "duration": 0.0840909,
                "tempo": 120.0
            },
            {
                "start_time": 131.2772727,
                "end_time": 131.3613636,
                "pitch": 77,
                "velocity": 32,
                "duration": 0.0840909,
                "tempo": 120.0
            },
            {
                "start_time": 131.3772727,
                "end_time": 131.4613636,
                "pitch": 75,
                "velocity": 32,
                "duration": 0.0840909,
                "tempo": 120.0
            },
            {
                "start_time": 131.4795455,
                "end_time": 131.5636364,
                "pitch": 74,
                "velocity": 32,
                "duration": 0.0840909,
                "tempo": 120.0
            },
            {
                "start_time": 131.5795455,
                "end_time": 132.2181818,
                "pitch": 75,
                "velocity": 32,
                "duration": 0.6386364,
                "tempo": 120.0
            },
            {
                "start_time": 132.3840909,
                "end_time": 133.0204545,
                "pitch": 74,
                "velocity": 32,
                "duration": 0.6363636,
                "tempo": 120.0
            },
            {
                "start_time": 133.1886364,
                "end_time": 133.825,
                "pitch": 72,
                "velocity": 32,
                "duration": 0.6363636,
                "tempo": 120.0
            },
            {
                "start_time": 133.9931818,
                "end_time": 134.0931818,
                "pitch": 71,
                "velocity": 32,
                "duration": 0.1,
                "tempo": 120.0
            },
            {
                "start_time": 134.1272727,
                "end_time": 134.2272727,
                "pitch": 65,
                "velocity": 32,
                "duration": 0.1,
                "tempo": 120.0
            },
            {
                "start_time": 134.2613636,
                "end_time": 134.3613636,
                "pitch": 71,
                "velocity": 32,
                "duration": 0.1,
                "tempo": 120.0
            },
            {
                "start_time": 134.3954545,
                "end_time": 134.4931818,
                "pitch": 65,
                "velocity": 32,
                "duration": 0.0977273,
                "tempo": 120.0
            },
            {
                "start_time": 134.525,
                "end_time": 134.625,
                "pitch": 71,
                "velocity": 32,
                "duration": 0.1,
                "tempo": 120.0
            },
            {
                "start_time": 134.6568182,
                "end_time": 134.7545455,
                "pitch": 65,
                "velocity": 32,
                "duration": 0.0977273,
                "tempo": 120.0
            },
            {
                "start_time": 134.7886364,
                "end_time": 134.9409091,
                "pitch": 76,
                "velocity": 32,
                "duration": 0.1522727,
                "tempo": 120.0
            },
            {
                "start_time": 135.6,
                "end_time": 135.9204545,
                "pitch": 68,
                "velocity": 32,
                "duration": 0.3204545,
                "tempo": 120.0
            },
            {
                "start_time": 136.0045455,
                "end_time": 136.3227273,
                "pitch": 71,
                "velocity": 32,
                "duration": 0.3181818,
                "tempo": 120.0
            },
            {
                "start_time": 136.4068182,
                "end_time": 136.5568182,
                "pitch": 72,
                "velocity": 32,
                "duration": 0.15,
                "tempo": 120.0
            },
            {
                "start_time": 137.2090909,
                "end_time": 137.5272727,
                "pitch": 65,
                "velocity": 32,
                "duration": 0.3181818,
                "tempo": 120.0
            },
            {
                "start_time": 137.6113636,
                "end_time": 137.7136364,
                "pitch": 74,
                "velocity": 32,
                "duration": 0.1022727,
                "tempo": 120.0
            },
            {
                "start_time": 137.7454545,
                "end_time": 137.8477273,
                "pitch": 72,
                "velocity": 32,
                "duration": 0.1022727,
                "tempo": 120.0
            },
            {
                "start_time": 137.8795455,
                "end_time": 137.9818182,
                "pitch": 69,
                "velocity": 32,
                "duration": 0.1022727,
                "tempo": 120.0
            },
            {
                "start_time": 138.0136364,
                "end_time": 138.1659091,
                "pitch": 76,
                "velocity": 32,
                "duration": 0.1522727,
                "tempo": 120.0
            },
            {
                "start_time": 138.4181818,
                "end_time": 138.5681818,
                "pitch": 74,
                "velocity": 32,
                "duration": 0.15,
                "tempo": 120.0
            },
            {
                "start_time": 138.6181818,
                "end_time": 138.7681818,
                "pitch": 72,
                "velocity": 32,
                "duration": 0.15,
                "tempo": 120.0
            },
            {
                "start_time": 138.8181818,
                "end_time": 138.9181818,
                "pitch": 71,
                "velocity": 32,
                "duration": 0.1,
                "tempo": 120.0
            },
            {
                "start_time": 138.9522727,
                "end_time": 139.0522727,
                "pitch": 69,
                "velocity": 32,
                "duration": 0.1,
                "tempo": 120.0
            },
            {
                "start_time": 139.0863636,
                "end_time": 139.1863636,
                "pitch": 68,
                "velocity": 32,
                "duration": 0.1,
                "tempo": 120.0
            },
            {
                "start_time": 139.2204545,
                "end_time": 139.3204545,
                "pitch": 65,
                "velocity": 32,
                "duration": 0.1,
                "tempo": 120.0
            },
            {
                "start_time": 139.3545455,
                "end_time": 139.4545455,
                "pitch": 64,
                "velocity": 32,
                "duration": 0.1,
                "tempo": 120.0
            },
            {
                "start_time": 139.4886364,
                "end_time": 139.5886364,
                "pitch": 62,
                "velocity": 32,
                "duration": 0.1,
                "tempo": 120.0
            },
            {
                "start_time": 139.6227273,
                "end_time": 139.9409091,
                "pitch": 72,
                "velocity": 32,
                "duration": 0.3181818,
                "tempo": 120.0
            },
            {
                "start_time": 140.025,
                "end_time": 140.125,
                "pitch": 57,
                "velocity": 32,
                "duration": 0.1,
                "tempo": 120.0
            },
            {
                "start_time": 140.1590909,
                "end_time": 140.2590909,
                "pitch": 59,
                "velocity": 32,
                "duration": 0.1,
                "tempo": 120.0
            },
            {
                "start_time": 140.2931818,
                "end_time": 140.3954545,
                "pitch": 60,
                "velocity": 32,
                "duration": 0.1022727,
                "tempo": 120.0
            },
            {
                "start_time": 140.4272727,
                "end_time": 140.7454545,
                "pitch": 71,
                "velocity": 32,
                "duration": 0.3181818,
                "tempo": 120.0
            },
            {
                "start_time": 140.8272727,
                "end_time": 140.9113636,
                "pitch": 59,
                "velocity": 32,
                "duration": 0.0840909,
                "tempo": 120.0
            },
            {
                "start_time": 140.9295455,
                "end_time": 141.0136364,
                "pitch": 60,
                "velocity": 32,
                "duration": 0.0840909,
                "tempo": 120.0
            },
            {
                "start_time": 141.0295455,
                "end_time": 141.1136364,
                "pitch": 62,
                "velocity": 32,
                "duration": 0.0840909,
                "tempo": 120.0
            },
            {
                "start_time": 141.1295455,
                "end_time": 141.2136364,
                "pitch": 65,
                "velocity": 32,
                "duration": 0.0840909,
                "tempo": 120.0
            },
            {
                "start_time": 141.2295455,
                "end_time": 141.55,
                "pitch": 69,
                "velocity": 32,
                "duration": 0.3204545,
                "tempo": 120.0
            },
            {
                "start_time": 141.6340909,
                "end_time": 141.7840909,
                "pitch": 71,
                "velocity": 32,
                "duration": 0.15,
                "tempo": 120.0
            },
            {
                "start_time": 141.8340909,
                "end_time": 141.9863636,
                "pitch": 72,
                "velocity": 32,
                "duration": 0.1522727,
                "tempo": 120.0
            },
            {
                "start_time": 142.0363636,
                "end_time": 142.1204545,
                "pitch": 74,
                "velocity": 32,
                "duration": 0.0840909,
                "tempo": 120.0
            },
            {
                "start_time": 142.1363636,
                "end_time": 142.2204545,
                "pitch": 72,
                "velocity": 32,
                "duration": 0.0840909,
                "tempo": 120.0
            },
            {
                "start_time": 142.2363636,
                "end_time": 142.3204545,
                "pitch": 71,
                "velocity": 32,
                "duration": 0.0840909,
                "tempo": 120.0
            },
            {
                "start_time": 142.3386364,
                "end_time": 142.4227273,
                "pitch": 69,
                "velocity": 32,
                "duration": 0.0840909,
                "tempo": 120.0
            },
            {
                "start_time": 142.4386364,
                "end_time": 142.5227273,
                "pitch": 62,
                "velocity": 32,
                "duration": 0.0840909,
                "tempo": 120.0
            },
            {
                "start_time": 142.5386364,
                "end_time": 142.6227273,
                "pitch": 64,
                "velocity": 32,
                "duration": 0.0840909,
                "tempo": 120.0
            },
            {
                "start_time": 142.6386364,
                "end_time": 142.7227273,
                "pitch": 65,
                "velocity": 32,
                "duration": 0.0840909,
                "tempo": 120.0
            },
            {
                "start_time": 142.7386364,
                "end_time": 142.8227273,
                "pitch": 68,
                "velocity": 32,
                "duration": 0.0840909,
                "tempo": 120.0
            },
            {
                "start_time": 142.8386364,
                "end_time": 142.9227273,
                "pitch": 69,
                "velocity": 32,
                "duration": 0.0840909,
                "tempo": 120.0
            },
            {
                "start_time": 142.9386364,
                "end_time": 143.0227273,
                "pitch": 71,
                "velocity": 32,
                "duration": 0.0840909,
                "tempo": 120.0
            },
            {
                "start_time": 143.0409091,
                "end_time": 143.125,
                "pitch": 72,
                "velocity": 32,
                "duration": 0.0840909,
                "tempo": 120.0
            },
            {
                "start_time": 143.1409091,
                "end_time": 143.225,
                "pitch": 74,
                "velocity": 32,
                "duration": 0.0840909,
                "tempo": 120.0
            },
            {
                "start_time": 143.2409091,
                "end_time": 143.325,
                "pitch": 76,
                "velocity": 32,
                "duration": 0.0840909,
                "tempo": 120.0
            },
            {
                "start_time": 143.3431818,
                "end_time": 143.425,
                "pitch": 77,
                "velocity": 32,
                "duration": 0.0818182,
                "tempo": 120.0
            },
            {
                "start_time": 143.4431818,
                "end_time": 143.5272727,
                "pitch": 80,
                "velocity": 32,
                "duration": 0.0840909,
                "tempo": 120.0
            },
            {
                "start_time": 143.5431818,
                "end_time": 143.6272727,
                "pitch": 81,
                "velocity": 32,
                "duration": 0.0840909,
                "tempo": 120.0
            },
            {
                "start_time": 143.6431818,
                "end_time": 143.7272727,
                "pitch": 83,
                "velocity": 32,
                "duration": 0.0840909,
                "tempo": 120.0
            },
            {
                "start_time": 143.7454545,
                "end_time": 143.8295455,
                "pitch": 81,
                "velocity": 32,
                "duration": 0.0840909,
                "tempo": 120.0
            },
            {
                "start_time": 143.8454545,
                "end_time": 143.9295455,
                "pitch": 80,
                "velocity": 32,
                "duration": 0.0840909,
                "tempo": 120.0
            },
            {
                "start_time": 143.9454545,
                "end_time": 144.0977273,
                "pitch": 77,
                "velocity": 32,
                "duration": 0.1522727,
                "tempo": 120.0
            },
            {
                "start_time": 144.1477273,
                "end_time": 144.2318182,
                "pitch": 80,
                "velocity": 32,
                "duration": 0.0840909,
                "tempo": 120.0
            },
            {
                "start_time": 144.2477273,
                "end_time": 144.3318182,
                "pitch": 77,
                "velocity": 32,
                "duration": 0.0840909,
                "tempo": 120.0
            },
            {
                "start_time": 144.3477273,
                "end_time": 144.4318182,
                "pitch": 76,
                "velocity": 32,
                "duration": 0.0840909,
                "tempo": 120.0
            },
            {
                "start_time": 144.45,
                "end_time": 144.55,
                "pitch": 81,
                "velocity": 32,
                "duration": 0.1,
                "tempo": 120.0
            },
            {
                "start_time": 144.5818182,
                "end_time": 144.6818182,
                "pitch": 72,
                "velocity": 32,
                "duration": 0.1,
                "tempo": 120.0
            },
            {
                "start_time": 144.7159091,
                "end_time": 144.8159091,
                "pitch": 81,
                "velocity": 32,
                "duration": 0.1,
                "tempo": 120.0
            },
            {
                "start_time": 144.85,
                "end_time": 144.95,
                "pitch": 72,
                "velocity": 32,
                "duration": 0.1,
                "tempo": 120.0
            },
            {
                "start_time": 144.9840909,
                "end_time": 145.0840909,
                "pitch": 81,
                "velocity": 32,
                "duration": 0.1,
                "tempo": 120.0
            },
            {
                "start_time": 145.1181818,
                "end_time": 145.2181818,
                "pitch": 72,
                "velocity": 32,
                "duration": 0.1,
                "tempo": 120.0
            },
            {
                "start_time": 145.2522727,
                "end_time": 145.4022727,
                "pitch": 74,
                "velocity": 32,
                "duration": 0.15,
                "tempo": 120.0
            },
            {
                "start_time": 145.4545455,
                "end_time": 145.6045455,
                "pitch": 71,
                "velocity": 32,
                "duration": 0.15,
                "tempo": 120.0
            },
            {
                "start_time": 145.6545455,
                "end_time": 145.8068182,
                "pitch": 74,
                "velocity": 32,
                "duration": 0.1522727,
                "tempo": 120.0
            },
            {
                "start_time": 145.8568182,
                "end_time": 146.0068182,
                "pitch": 71,
                "velocity": 32,
                "duration": 0.15,
                "tempo": 120.0
            },
            {
                "start_time": 146.0568182,
                "end_time": 146.2090909,
                "pitch": 57,
                "velocity": 32,
                "duration": 0.1522727,
                "tempo": 120.0
            },
            {
                "start_time": 146.4590909,
                "end_time": 146.6090909,
                "pitch": 57,
                "velocity": 32,
                "duration": 0.15,
                "tempo": 120.0
            },
            {
                "start_time": 146.8590909,
                "end_time": 147.0113636,
                "pitch": 55,
                "velocity": 32,
                "duration": 0.1522727,
                "tempo": 120.0
            },
            {
                "start_time": 148.0681818,
                "end_time": 148.3863636,
                "pitch": 81,
                "velocity": 51,
                "duration": 0.3181818,
                "tempo": 120.0
            },
            {
                "start_time": 148.4704545,
                "end_time": 148.7886364,
                "pitch": 79,
                "velocity": 51,
                "duration": 0.3181818,
                "tempo": 120.0
            },
            {
                "start_time": 149.2727273,
                "end_time": 149.425,
                "pitch": 66,
                "velocity": 51,
                "duration": 0.1522727,
                "tempo": 120.0
            },
            {
                "start_time": 149.475,
                "end_time": 149.625,
                "pitch": 62,
                "velocity": 51,
                "duration": 0.15,
                "tempo": 120.0
            },
            {
                "start_time": 149.6772727,
                "end_time": 149.8272727,
                "pitch": 66,
                "velocity": 51,
                "duration": 0.15,
                "tempo": 120.0
            },
            {
                "start_time": 149.8772727,
                "end_time": 150.1954545,
                "pitch": 64,
                "velocity": 51,
                "duration": 0.3181818,
                "tempo": 120.0
            },
            {
                "start_time": 150.4818182,
                "end_time": 150.6318182,
                "pitch": 66,
                "velocity": 51,
                "duration": 0.15,
                "tempo": 120.0
            },
            {
                "start_time": 150.6818182,
                "end_time": 150.8318182,
                "pitch": 68,
                "velocity": 51,
                "duration": 0.15,
                "tempo": 120.0
            },
            {
                "start_time": 151.2840909,
                "end_time": 151.6022727,
                "pitch": 81,
                "velocity": 51,
                "duration": 0.3181818,
                "tempo": 120.0
            },
            {
                "start_time": 151.6863636,
                "end_time": 152.0068182,
                "pitch": 79,
                "velocity": 51,
                "duration": 0.3204545,
                "tempo": 120.0
            },
            {
                "start_time": 152.4931818,
                "end_time": 152.6431818,
                "pitch": 57,
                "velocity": 51,
                "duration": 0.15,
                "tempo": 120.0
            },
            {
                "start_time": 152.6931818,
                "end_time": 152.8431818,
                "pitch": 65,
                "velocity": 51,
                "duration": 0.15,
                "tempo": 120.0
            },
            {
                "start_time": 152.8931818,
                "end_time": 153.0431818,
                "pitch": 60,
                "velocity": 51,
                "duration": 0.15,
                "tempo": 120.0
            },
            {
                "start_time": 153.0931818,
                "end_time": 153.2454545,
                "pitch": 57,
                "velocity": 51,
                "duration": 0.1522727,
                "tempo": 120.0
            },
            {
                "start_time": 153.2954545,
                "end_time": 153.4454545,
                "pitch": 56,
                "velocity": 51,
                "duration": 0.15,
                "tempo": 120.0
            },
            {
                "start_time": 153.4954545,
                "end_time": 153.6477273,
                "pitch": 59,
                "velocity": 51,
                "duration": 0.1522727,
                "tempo": 120.0
            },
            {
                "start_time": 153.6977273,
                "end_time": 153.8477273,
                "pitch": 64,
                "velocity": 51,
                "duration": 0.15,
                "tempo": 120.0
            },
            {
                "start_time": 153.9,
                "end_time": 154.05,
                "pitch": 59,
                "velocity": 51,
                "duration": 0.15,
                "tempo": 120.0
            },
            {
                "start_time": 154.5022727,
                "end_time": 154.8204545,
                "pitch": 81,
                "velocity": 51,
                "duration": 0.3181818,
                "tempo": 120.0
            },
            {
                "start_time": 154.9022727,
                "end_time": 155.2227273,
                "pitch": 79,
                "velocity": 51,
                "duration": 0.3204545,
                "tempo": 120.0
            },
            {
                "start_time": 155.7090909,
                "end_time": 155.8590909,
                "pitch": 66,
                "velocity": 51,
                "duration": 0.15,
                "tempo": 120.0
            },
            {
                "start_time": 155.9090909,
                "end_time": 156.0613636,
                "pitch": 62,
                "velocity": 51,
                "duration": 0.1522727,
                "tempo": 120.0
            },
            {
                "start_time": 156.1113636,
                "end_time": 156.2613636,
                "pitch": 66,
                "velocity": 51,
                "duration": 0.15,
                "tempo": 120.0
            },
            {
                "start_time": 156.3136364,
                "end_time": 156.6340909,
                "pitch": 64,
                "velocity": 51,
                "duration": 0.3204545,
                "tempo": 120.0
            },
            {
                "start_time": 156.925,
                "end_time": 157.0727273,
                "pitch": 66,
                "velocity": 51,
                "duration": 0.1477273,
                "tempo": 120.0
            },
            {
                "start_time": 157.1204545,
                "end_time": 157.2681818,
                "pitch": 68,
                "velocity": 51,
                "duration": 0.1477273,
                "tempo": 120.0
            },
            {
                "start_time": 157.7204545,
                "end_time": 158.0386364,
                "pitch": 81,
                "velocity": 51,
                "duration": 0.3181818,
                "tempo": 120.0
            },
            {
                "start_time": 158.1227273,
                "end_time": 158.4409091,
                "pitch": 79,
                "velocity": 51,
                "duration": 0.3181818,
                "tempo": 120.0
            },
            {
                "start_time": 158.925,
                "end_time": 159.075,
                "pitch": 57,
                "velocity": 51,
                "duration": 0.15,
                "tempo": 120.0
            },
            {
                "start_time": 159.1272727,
                "end_time": 159.2772727,
                "pitch": 65,
                "velocity": 51,
                "duration": 0.15,
                "tempo": 120.0
            },
            {
                "start_time": 159.3272727,
                "end_time": 159.4795455,
                "pitch": 60,
                "velocity": 51,
                "duration": 0.1522727,
                "tempo": 120.0
            },
            {
                "start_time": 159.5295455,
                "end_time": 159.6795455,
                "pitch": 57,
                "velocity": 51,
                "duration": 0.15,
                "tempo": 120.0
            },
            {
                "start_time": 159.7295455,
                "end_time": 159.8818182,
                "pitch": 59,
                "velocity": 51,
                "duration": 0.1522727,
                "tempo": 120.0
            },
            {
                "start_time": 159.9318182,
                "end_time": 160.0818182,
                "pitch": 62,
                "velocity": 51,
                "duration": 0.15,
                "tempo": 120.0
            },
            {
                "start_time": 160.1318182,
                "end_time": 160.2840909,
                "pitch": 67,
                "velocity": 51,
                "duration": 0.1522727,
                "tempo": 120.0
            },
            {
                "start_time": 160.3340909,
                "end_time": 160.5363636,
                "pitch": 62,
                "velocity": 51,
                "duration": 0.2022727,
                "tempo": 120.0
            }
        ],
        "Violin": [
            {
                "start_time": 6.3977273,
                "end_time": 84.0295455,
                "pitch": 60,
                "velocity": 4,
                "duration": 77.6318182,
                "tempo": 120.0
            },
            {
                "start_time": 84.2,
                "end_time": 84.8340909,
                "pitch": 62,
                "velocity": 101,
                "duration": 0.6340909,
                "tempo": 120.0
            },
            {
                "start_time": 85.0022727,
                "end_time": 85.6386364,
                "pitch": 63,
                "velocity": 101,
                "duration": 0.6363636,
                "tempo": 120.0
            },
            {
                "start_time": 85.8045455,
                "end_time": 86.4363636,
                "pitch": 65,
                "velocity": 101,
                "duration": 0.6318182,
                "tempo": 120.0
            },
            {
                "start_time": 86.6,
                "end_time": 87.2409091,
                "pitch": 60,
                "velocity": 101,
                "duration": 0.6409091,
                "tempo": 120.0
            },
            {
                "start_time": 87.4113636,
                "end_time": 88.0454545,
                "pitch": 62,
                "velocity": 101,
                "duration": 0.6340909,
                "tempo": 120.0
            },
            {
                "start_time": 88.2136364,
                "end_time": 88.8477273,
                "pitch": 63,
                "velocity": 101,
                "duration": 0.6340909,
                "tempo": 120.0
            },
            {
                "start_time": 89.0159091,
                "end_time": 89.6431818,
                "pitch": 65,
                "velocity": 101,
                "duration": 0.6272727,
                "tempo": 120.0
            },
            {
                "start_time": 89.8113636,
                "end_time": 89.8954545,
                "pitch": 65,
                "velocity": 101,
                "duration": 0.0840909,
                "tempo": 120.0
            },
            {
                "start_time": 89.9113636,
                "end_time": 89.9954545,
                "pitch": 67,
                "velocity": 101,
                "duration": 0.0840909,
                "tempo": 120.0
            },
            {
                "start_time": 90.0113636,
                "end_time": 90.0954545,
                "pitch": 65,
                "velocity": 101,
                "duration": 0.0840909,
                "tempo": 120.0
            },
            {
                "start_time": 90.1113636,
                "end_time": 90.1954545,
                "pitch": 63,
                "velocity": 101,
                "duration": 0.0840909,
                "tempo": 120.0
            },
            {
                "start_time": 90.2113636,
                "end_time": 90.2977273,
                "pitch": 65,
                "velocity": 101,
                "duration": 0.0863636,
                "tempo": 120.0
            },
            {
                "start_time": 90.3136364,
                "end_time": 90.4,
                "pitch": 63,
                "velocity": 101,
                "duration": 0.0863636,
                "tempo": 120.0
            },
            {
                "start_time": 90.4159091,
                "end_time": 90.5022727,
                "pitch": 62,
                "velocity": 101,
                "duration": 0.0863636,
                "tempo": 120.0
            },
            {
                "start_time": 90.5204545,
                "end_time": 90.6045455,
                "pitch": 63,
                "velocity": 101,
                "duration": 0.0840909,
                "tempo": 120.0
            },
            {
                "start_time": 90.6227273,
                "end_time": 90.7068182,
                "pitch": 62,
                "velocity": 101,
                "duration": 0.0840909,
                "tempo": 120.0
            },
            {
                "start_time": 90.7227273,
                "end_time": 90.8068182,
                "pitch": 60,
                "velocity": 101,
                "duration": 0.0840909,
                "tempo": 120.0
            },
            {
                "start_time": 90.8227273,
                "end_time": 90.9068182,
                "pitch": 62,
                "velocity": 101,
                "duration": 0.0840909,
                "tempo": 120.0
            },
            {
                "start_time": 90.925,
                "end_time": 91.0090909,
                "pitch": 63,
                "velocity": 101,
                "duration": 0.0840909,
                "tempo": 120.0
            },
            {
                "start_time": 91.025,
                "end_time": 91.1090909,
                "pitch": 65,
                "velocity": 101,
                "duration": 0.0840909,
                "tempo": 120.0
            },
            {
                "start_time": 91.125,
                "end_time": 91.2090909,
                "pitch": 67,
                "velocity": 101,
                "duration": 0.0840909,
                "tempo": 120.0
            },
            {
                "start_time": 91.2272727,
                "end_time": 91.3113636,
                "pitch": 68,
                "velocity": 101,
                "duration": 0.0840909,
                "tempo": 120.0
            },
            {
                "start_time": 91.3272727,
                "end_time": 91.4113636,
                "pitch": 70,
                "velocity": 101,
                "duration": 0.0840909,
                "tempo": 120.0
            },
            {
                "start_time": 91.4272727,
                "end_time": 91.5090909,
                "pitch": 67,
                "velocity": 101,
                "duration": 0.0818182,
                "tempo": 120.0
            },
            {
                "start_time": 91.525,
                "end_time": 91.6068182,
                "pitch": 68,
                "velocity": 101,
                "duration": 0.0818182,
                "tempo": 120.0
            },
            {
                "start_time": 91.6227273,
                "end_time": 91.7045455,
                "pitch": 67,
                "velocity": 101,
                "duration": 0.0818182,
                "tempo": 120.0
            },
            {
                "start_time": 91.7227273,
                "end_time": 91.8045455,
                "pitch": 65,
                "velocity": 101,
                "duration": 0.0818182,
                "tempo": 120.0
            },
            {
                "start_time": 91.8204545,
                "end_time": 91.9045455,
                "pitch": 67,
                "velocity": 101,
                "duration": 0.0840909,
                "tempo": 120.0
            },
            {
                "start_time": 91.9227273,
                "end_time": 92.0068182,
                "pitch": 65,
                "velocity": 101,
                "duration": 0.0840909,
                "tempo": 120.0
            },
            {
                "start_time": 92.025,
                "end_time": 92.1113636,
                "pitch": 63,
                "velocity": 101,
                "duration": 0.0863636,
                "tempo": 120.0
            },
            {
                "start_time": 92.1272727,
                "end_time": 92.2136364,
                "pitch": 65,
                "velocity": 101,
                "duration": 0.0863636,
                "tempo": 120.0
            },
            {
                "start_time": 92.2295455,
                "end_time": 92.3136364,
                "pitch": 63,
                "velocity": 101,
                "duration": 0.0840909,
                "tempo": 120.0
            },
            {
                "start_time": 92.3295455,
                "end_time": 92.4136364,
                "pitch": 62,
                "velocity": 101,
                "duration": 0.0840909,
                "tempo": 120.0
            },
            {
                "start_time": 92.4295455,
                "end_time": 92.5136364,
                "pitch": 63,
                "velocity": 101,
                "duration": 0.0840909,
                "tempo": 120.0
            },
            {
                "start_time": 92.5295455,
                "end_time": 92.6136364,
                "pitch": 65,
                "velocity": 101,
                "duration": 0.0840909,
                "tempo": 120.0
            },
            {
                "start_time": 92.6295455,
                "end_time": 92.7113636,
                "pitch": 67,
                "velocity": 101,
                "duration": 0.0818182,
                "tempo": 120.0
            },
            {
                "start_time": 92.7295455,
                "end_time": 92.8113636,
                "pitch": 68,
                "velocity": 101,
                "duration": 0.0818182,
                "tempo": 120.0
            },
            {
                "start_time": 92.8272727,
                "end_time": 92.9090909,
                "pitch": 70,
                "velocity": 101,
                "duration": 0.0818182,
                "tempo": 120.0
            },
            {
                "start_time": 92.925,
                "end_time": 93.0068182,
                "pitch": 72,
                "velocity": 101,
                "duration": 0.0818182,
                "tempo": 120.0
            },
            {
                "start_time": 93.0227273,
                "end_time": 93.1090909,
                "pitch": 68,
                "velocity": 101,
                "duration": 0.0863636,
                "tempo": 120.0
            },
            {
                "start_time": 93.125,
                "end_time": 93.2113636,
                "pitch": 70,
                "velocity": 101,
                "duration": 0.0863636,
                "tempo": 120.0
            },
            {
                "start_time": 93.2272727,
                "end_time": 93.3136364,
                "pitch": 68,
                "velocity": 101,
                "duration": 0.0863636,
                "tempo": 120.0
            },
            {
                "start_time": 93.3295455,
                "end_time": 93.4159091,
                "pitch": 67,
                "velocity": 101,
                "duration": 0.0863636,
                "tempo": 120.0
            },
            {
                "start_time": 93.4340909,
                "end_time": 93.5159091,
                "pitch": 68,
                "velocity": 101,
                "duration": 0.0818182,
                "tempo": 120.0
            },
            {
                "start_time": 93.5340909,
                "end_time": 93.6159091,
                "pitch": 67,
                "velocity": 101,
                "duration": 0.0818182,
                "tempo": 120.0
            },
            {
                "start_time": 93.6340909,
                "end_time": 93.7159091,
                "pitch": 65,
                "velocity": 101,
                "duration": 0.0818182,
                "tempo": 120.0
            },
            {
                "start_time": 93.7340909,
                "end_time": 93.8159091,
                "pitch": 67,
                "velocity": 101,
                "duration": 0.0818182,
                "tempo": 120.0
            },
            {
                "start_time": 93.8340909,
                "end_time": 93.9181818,
                "pitch": 68,
                "velocity": 101,
                "duration": 0.0840909,
                "tempo": 120.0
            },
            {
                "start_time": 93.9340909,
                "end_time": 94.0181818,
                "pitch": 70,
                "velocity": 101,
                "duration": 0.0840909,
                "tempo": 120.0
            },
            {
                "start_time": 94.0340909,
                "end_time": 94.1181818,
                "pitch": 72,
                "velocity": 101,
                "duration": 0.0840909,
                "tempo": 120.0
            },
            {
                "start_time": 94.1363636,
                "end_time": 94.2204545,
                "pitch": 74,
                "velocity": 101,
                "duration": 0.0840909,
                "tempo": 120.0
            },
            {
                "start_time": 94.2363636,
                "end_time": 94.3204545,
                "pitch": 75,
                "velocity": 101,
                "duration": 0.0840909,
                "tempo": 120.0
            },
            {
                "start_time": 94.3363636,
                "end_time": 94.4204545,
                "pitch": 77,
                "velocity": 101,
                "duration": 0.0840909,
                "tempo": 120.0
            },
            {
                "start_time": 94.4363636,
                "end_time": 94.5204545,
                "pitch": 79,
                "velocity": 101,
                "duration": 0.0840909,
                "tempo": 120.0
            },
            {
                "start_time": 94.5363636,
                "end_time": 94.6204545,
                "pitch": 80,
                "velocity": 101,
                "duration": 0.0840909,
                "tempo": 120.0
            },
            {
                "start_time": 94.6363636,
                "end_time": 94.9477273,
                "pitch": 72,
                "velocity": 101,
                "duration": 0.3113636,
                "tempo": 120.0
            },
            {
                "start_time": 95.0272727,
                "end_time": 95.1795455,
                "pitch": 71,
                "velocity": 101,
                "duration": 0.1522727,
                "tempo": 120.0
            },
            {
                "start_time": 95.2295455,
                "end_time": 95.3136364,
                "pitch": 68,
                "velocity": 101,
                "duration": 0.0840909,
                "tempo": 120.0
            },
            {
                "start_time": 95.4318182,
                "end_time": 95.5159091,
                "pitch": 71,
                "velocity": 101,
                "duration": 0.0840909,
                "tempo": 120.0
            },
            {
                "start_time": 95.6318182,
                "end_time": 95.7159091,
                "pitch": 72,
                "velocity": 101,
                "duration": 0.0840909,
                "tempo": 120.0
            },
            {
                "start_time": 95.8340909,
                "end_time": 95.9181818,
                "pitch": 74,
                "velocity": 101,
                "duration": 0.0840909,
                "tempo": 120.0
            },
            {
                "start_time": 96.0386364,
                "end_time": 96.125,
                "pitch": 71,
                "velocity": 101,
                "duration": 0.0863636,
                "tempo": 120.0
            }
        ],
        "Lead 2 (sawtooth)": [
            {
                "start_time": 6.4840909,
                "end_time": 6.5727273,
                "pitch": 55,
                "velocity": 32,
                "duration": 0.0886364,
                "tempo": 120.0
            },
            {
                "start_time": 6.5909091,
                "end_time": 6.6795455,
                "pitch": 60,
                "velocity": 32,
                "duration": 0.0886364,
                "tempo": 120.0
            },
            {
                "start_time": 6.6954545,
                "end_time": 6.7840909,
                "pitch": 55,
                "velocity": 32,
                "duration": 0.0886364,
                "tempo": 120.0
            },
            {
                "start_time": 6.8022727,
                "end_time": 6.8818182,
                "pitch": 63,
                "velocity": 32,
                "duration": 0.0795455,
                "tempo": 120.0
            },
            {
                "start_time": 6.8977273,
                "end_time": 6.9772727,
                "pitch": 55,
                "velocity": 32,
                "duration": 0.0795455,
                "tempo": 120.0
            },
            {
                "start_time": 6.9931818,
                "end_time": 7.0727273,
                "pitch": 63,
                "velocity": 32,
                "duration": 0.0795455,
                "tempo": 120.0
            },
            {
                "start_time": 7.0886364,
                "end_time": 7.1681818,
                "pitch": 55,
                "velocity": 32,
                "duration": 0.0795455,
                "tempo": 120.0
            },
            {
                "start_time": 7.1840909,
                "end_time": 7.2681818,
                "pitch": 62,
                "velocity": 32,
                "duration": 0.0840909,
                "tempo": 120.0
            },
            {
                "start_time": 7.2840909,
                "end_time": 7.3681818,
                "pitch": 53,
                "velocity": 32,
                "duration": 0.0840909,
                "tempo": 120.0
            },
            {
                "start_time": 7.3840909,
                "end_time": 7.4681818,
                "pitch": 60,
                "velocity": 32,
                "duration": 0.0840909,
                "tempo": 120.0
            },
            {
                "start_time": 7.4840909,
                "end_time": 7.5681818,
                "pitch": 53,
                "velocity": 32,
                "duration": 0.0840909,
                "tempo": 120.0
            },
            {
                "start_time": 7.5840909,
                "end_time": 7.6681818,
                "pitch": 63,
                "velocity": 32,
                "duration": 0.0840909,
                "tempo": 120.0
            },
            {
                "start_time": 7.6840909,
                "end_time": 7.7681818,
                "pitch": 53,
                "velocity": 32,
                "duration": 0.0840909,
                "tempo": 120.0
            },
            {
                "start_time": 7.7863636,
                "end_time": 7.8704545,
                "pitch": 63,
                "velocity": 32,
                "duration": 0.0840909,
                "tempo": 120.0
            },
            {
                "start_time": 7.8863636,
                "end_time": 7.9704545,
                "pitch": 53,
                "velocity": 32,
                "duration": 0.0840909,
                "tempo": 120.0
            },
            {
                "start_time": 7.9863636,
                "end_time": 8.0704545,
                "pitch": 65,
                "velocity": 32,
                "duration": 0.0840909,
                "tempo": 120.0
            },
            {
                "start_time": 8.0863636,
                "end_time": 8.1704545,
                "pitch": 51,
                "velocity": 32,
                "duration": 0.0840909,
                "tempo": 120.0
            },
            {
                "start_time": 8.1886364,
                "end_time": 8.2727273,
                "pitch": 60,
                "velocity": 32,
                "duration": 0.0840909,
                "tempo": 120.0
            },
            {
                "start_time": 8.2886364,
                "end_time": 8.3727273,
                "pitch": 51,
                "velocity": 32,
                "duration": 0.0840909,
                "tempo": 120.0
            },
            {
                "start_time": 8.3886364,
                "end_time": 8.4727273,
                "pitch": 63,
                "velocity": 32,
                "duration": 0.0840909,
                "tempo": 120.0
            },
            {
                "start_time": 8.4909091,
                "end_time": 8.575,
                "pitch": 53,
                "velocity": 32,
                "duration": 0.0840909,
                "tempo": 120.0
            },
            {
                "start_time": 8.5909091,
                "end_time": 8.675,
                "pitch": 62,
                "velocity": 32,
                "duration": 0.0840909,
                "tempo": 120.0
            },
            {
                "start_time": 8.6909091,
                "end_time": 8.775,
                "pitch": 51,
                "velocity": 32,
                "duration": 0.0840909,
                "tempo": 120.0
            },
            {
                "start_time": 8.7931818,
                "end_time": 8.875,
                "pitch": 60,
                "velocity": 32,
                "duration": 0.0818182,
                "tempo": 120.0
            },
            {
                "start_time": 8.8931818,
                "end_time": 8.975,
                "pitch": 50,
                "velocity": 32,
                "duration": 0.0818182,
                "tempo": 120.0
            },
            {
                "start_time": 8.9931818,
                "end_time": 9.075,
                "pitch": 48,
                "velocity": 32,
                "duration": 0.0818182,
                "tempo": 120.0
            },
            {
                "start_time": 9.0931818,
                "end_time": 9.175,
                "pitch": 60,
                "velocity": 32,
                "duration": 0.0818182,
                "tempo": 120.0
            },
            {
                "start_time": 9.1931818,
                "end_time": 9.275,
                "pitch": 48,
                "velocity": 32,
                "duration": 0.0818182,
                "tempo": 120.0
            },
            {
                "start_time": 9.2931818,
                "end_time": 9.3772727,
                "pitch": 50,
                "velocity": 32,
                "duration": 0.0840909,
                "tempo": 120.0
            },
            {
                "start_time": 9.3931818,
                "end_time": 9.4772727,
                "pitch": 60,
                "velocity": 32,
                "duration": 0.0840909,
                "tempo": 120.0
            },
            {
                "start_time": 9.4931818,
                "end_time": 9.5772727,
                "pitch": 50,
                "velocity": 32,
                "duration": 0.0840909,
                "tempo": 120.0
            },
            {
                "start_time": 9.5954545,
                "end_time": 9.6795455,
                "pitch": 60,
                "velocity": 32,
                "duration": 0.0840909,
                "tempo": 120.0
            },
            {
                "start_time": 9.6954545,
                "end_time": 9.7795455,
                "pitch": 47,
                "velocity": 32,
                "duration": 0.0840909,
                "tempo": 120.0
            },
            {
                "start_time": 9.7954545,
                "end_time": 9.8795455,
                "pitch": 60,
                "velocity": 32,
                "duration": 0.0840909,
                "tempo": 120.0
            },
            {
                "start_time": 9.8977273,
                "end_time": 9.9818182,
                "pitch": 47,
                "velocity": 32,
                "duration": 0.0840909,
                "tempo": 120.0
            },
            {
                "start_time": 9.9977273,
                "end_time": 10.0818182,
                "pitch": 63,
                "velocity": 32,
                "duration": 0.0840909,
                "tempo": 120.0
            },
            {
                "start_time": 10.0977273,
                "end_time": 10.1818182,
                "pitch": 48,
                "velocity": 32,
                "duration": 0.0840909,
                "tempo": 120.0
            },
            {
                "start_time": 10.2,
                "end_time": 10.2818182,
                "pitch": 63,
                "velocity": 32,
                "duration": 0.0818182,
                "tempo": 120.0
            },
            {
                "start_time": 10.3,
                "end_time": 10.3840909,
                "pitch": 48,
                "velocity": 32,
                "duration": 0.0840909,
                "tempo": 120.0
            },
            {
                "start_time": 10.4,
                "end_time": 10.4840909,
                "pitch": 62,
                "velocity": 32,
                "duration": 0.0840909,
                "tempo": 120.0
            },
            {
                "start_time": 10.5,
                "end_time": 10.5840909,
                "pitch": 50,
                "velocity": 32,
                "duration": 0.0840909,
                "tempo": 120.0
            },
            {
                "start_time": 10.6022727,
                "end_time": 10.6863636,
                "pitch": 60,
                "velocity": 32,
                "duration": 0.0840909,
                "tempo": 120.0
            },
            {
                "start_time": 10.7022727,
                "end_time": 10.7863636,
                "pitch": 50,
                "velocity": 32,
                "duration": 0.0840909,
                "tempo": 120.0
            },
            {
                "start_time": 10.8022727,
                "end_time": 10.8863636,
                "pitch": 63,
                "velocity": 32,
                "duration": 0.0840909,
                "tempo": 120.0
            },
            {
                "start_time": 10.9022727,
                "end_time": 10.9863636,
                "pitch": 50,
                "velocity": 32,
                "duration": 0.0840909,
                "tempo": 120.0
            },
            {
                "start_time": 11.0022727,
                "end_time": 11.0863636,
                "pitch": 63,
                "velocity": 32,
                "duration": 0.0840909,
                "tempo": 120.0
            },
            {
                "start_time": 11.1022727,
                "end_time": 11.1863636,
                "pitch": 50,
                "velocity": 32,
                "duration": 0.0840909,
                "tempo": 120.0
            },
            {
                "start_time": 11.2022727,
                "end_time": 11.2863636,
                "pitch": 67,
                "velocity": 32,
                "duration": 0.0840909,
                "tempo": 120.0
            },
            {
                "start_time": 11.3045455,
                "end_time": 11.3863636,
                "pitch": 51,
                "velocity": 32,
                "duration": 0.0818182,
                "tempo": 120.0
            },
            {
                "start_time": 11.4045455,
                "end_time": 11.4886364,
                "pitch": 60,
                "velocity": 32,
                "duration": 0.0840909,
                "tempo": 120.0
            },
            {
                "start_time": 11.5045455,
                "end_time": 11.5886364,
                "pitch": 51,
                "velocity": 32,
                "duration": 0.0840909,
                "tempo": 120.0
            },
            {
                "start_time": 11.6045455,
                "end_time": 11.6886364,
                "pitch": 60,
                "velocity": 32,
                "duration": 0.0840909,
                "tempo": 120.0
            },
            {
                "start_time": 11.7068182,
                "end_time": 11.7909091,
                "pitch": 50,
                "velocity": 32,
                "duration": 0.0840909,
                "tempo": 120.0
            },
            {
                "start_time": 11.8068182,
                "end_time": 11.8909091,
                "pitch": 60,
                "velocity": 32,
                "duration": 0.0840909,
                "tempo": 120.0
            },
            {
                "start_time": 11.9068182,
                "end_time": 11.9909091,
                "pitch": 51,
                "velocity": 32,
                "duration": 0.0840909,
                "tempo": 120.0
            },
            {
                "start_time": 12.0090909,
                "end_time": 12.0931818,
                "pitch": 60,
                "velocity": 32,
                "duration": 0.0840909,
                "tempo": 120.0
            },
            {
                "start_time": 12.1090909,
                "end_time": 12.1931818,
                "pitch": 53,
                "velocity": 32,
                "duration": 0.0840909,
                "tempo": 120.0
            },
            {
                "start_time": 12.2090909,
                "end_time": 12.2931818,
                "pitch": 60,
                "velocity": 32,
                "duration": 0.0840909,
                "tempo": 120.0
            },
            {
                "start_time": 12.3113636,
                "end_time": 12.3931818,
                "pitch": 53,
                "velocity": 32,
                "duration": 0.0818182,
                "tempo": 120.0
            },
            {
                "start_time": 12.4113636,
                "end_time": 12.4954545,
                "pitch": 60,
                "velocity": 32,
                "duration": 0.0840909,
                "tempo": 120.0
            },
            {
                "start_time": 12.5113636,
                "end_time": 12.5954545,
                "pitch": 53,
                "velocity": 32,
                "duration": 0.0840909,
                "tempo": 120.0
            },
            {
                "start_time": 12.6113636,
                "end_time": 12.6954545,
                "pitch": 60,
                "velocity": 32,
                "duration": 0.0840909,
                "tempo": 120.0
            },
            {
                "start_time": 12.7136364,
                "end_time": 12.7977273,
                "pitch": 53,
                "velocity": 32,
                "duration": 0.0840909,
                "tempo": 120.0
            },
            {
                "start_time": 12.8136364,
                "end_time": 12.8977273,
                "pitch": 60,
                "velocity": 32,
                "duration": 0.0840909,
                "tempo": 120.0
            },
            {
                "start_time": 12.9136364,
                "end_time": 12.9977273,
                "pitch": 55,
                "velocity": 32,
                "duration": 0.0840909,
                "tempo": 120.0
            },
            {
                "start_time": 13.0136364,
                "end_time": 13.0977273,
                "pitch": 60,
                "velocity": 32,
                "duration": 0.0840909,
                "tempo": 120.0
            },
            {
                "start_time": 13.1136364,
                "end_time": 13.1977273,
                "pitch": 55,
                "velocity": 32,
                "duration": 0.0840909,
                "tempo": 120.0
            },
            {
                "start_time": 13.2136364,
                "end_time": 13.2977273,
                "pitch": 63,
                "velocity": 32,
                "duration": 0.0840909,
                "tempo": 120.0
            },
            {
                "start_time": 13.3136364,
                "end_time": 13.3977273,
                "pitch": 55,
                "velocity": 32,
                "duration": 0.0840909,
                "tempo": 120.0
            },
            {
                "start_time": 13.4159091,
                "end_time": 13.5,
                "pitch": 63,
                "velocity": 32,
                "duration": 0.0840909,
                "tempo": 120.0
            },
            {
                "start_time": 13.5159091,
                "end_time": 13.6,
                "pitch": 55,
                "velocity": 32,
                "duration": 0.0840909,
                "tempo": 120.0
            },
            {
                "start_time": 13.6159091,
                "end_time": 13.7,
                "pitch": 62,
                "velocity": 32,
                "duration": 0.0840909,
                "tempo": 120.0
            },
            {
                "start_time": 13.7159091,
                "end_time": 13.8,
                "pitch": 53,
                "velocity": 32,
                "duration": 0.0840909,
                "tempo": 120.0
            },
            {
                "start_time": 13.8181818,
                "end_time": 13.9022727,
                "pitch": 60,
                "velocity": 32,
                "duration": 0.0840909,
                "tempo": 120.0
            },
            {
                "start_time": 13.9181818,
                "end_time": 14.0022727,
                "pitch": 53,
                "velocity": 32,
                "duration": 0.0840909,
                "tempo": 120.0
            },
            {
                "start_time": 14.0181818,
                "end_time": 14.1022727,
                "pitch": 63,
                "velocity": 32,
                "duration": 0.0840909,
                "tempo": 120.0
            },
            {
                "start_time": 14.1204545,
                "end_time": 14.2045455,
                "pitch": 53,
                "velocity": 32,
                "duration": 0.0840909,
                "tempo": 120.0
            },
            {
                "start_time": 14.2204545,
                "end_time": 14.3045455,
                "pitch": 63,
                "velocity": 32,
                "duration": 0.0840909,
                "tempo": 120.0
            },
            {
                "start_time": 14.3204545,
                "end_time": 14.4045455,
                "pitch": 53,
                "velocity": 32,
                "duration": 0.0840909,
                "tempo": 120.0
            },
            {
                "start_time": 14.4227273,
                "end_time": 14.5045455,
                "pitch": 65,
                "velocity": 32,
                "duration": 0.0818182,
                "tempo": 120.0
            },
            {
                "start_time": 14.5227273,
                "end_time": 14.6068182,
                "pitch": 51,
                "velocity": 32,
                "duration": 0.0840909,
                "tempo": 120.0
            },
            {
                "start_time": 14.6227273,
                "end_time": 14.7068182,
                "pitch": 60,
                "velocity": 32,
                "duration": 0.0840909,
                "tempo": 120.0
            },
            {
                "start_time": 14.7227273,
                "end_time": 14.8068182,
                "pitch": 51,
                "velocity": 32,
                "duration": 0.0840909,
                "tempo": 120.0
            },
            {
                "start_time": 14.825,
                "end_time": 14.9068182,
                "pitch": 63,
                "velocity": 32,
                "duration": 0.0818182,
                "tempo": 120.0
            },
            {
                "start_time": 14.925,
                "end_time": 15.0068182,
                "pitch": 53,
                "velocity": 32,
                "duration": 0.0818182,
                "tempo": 120.0
            },
            {
                "start_time": 15.025,
                "end_time": 15.1068182,
                "pitch": 62,
                "velocity": 32,
                "duration": 0.0818182,
                "tempo": 120.0
            },
            {
                "start_time": 15.125,
                "end_time": 15.2068182,
                "pitch": 51,
                "velocity": 32,
                "duration": 0.0818182,
                "tempo": 120.0
            },
            {
                "start_time": 15.225,
                "end_time": 15.3090909,
                "pitch": 60,
                "velocity": 32,
                "duration": 0.0840909,
                "tempo": 120.0
            },
            {
                "start_time": 15.325,
                "end_time": 15.4090909,
                "pitch": 50,
                "velocity": 32,
                "duration": 0.0840909,
                "tempo": 120.0
            },
            {
                "start_time": 15.425,
                "end_time": 15.5090909,
                "pitch": 48,
                "velocity": 32,
                "duration": 0.0840909,
                "tempo": 120.0
            },
            {
                "start_time": 15.5272727,
                "end_time": 15.6113636,
                "pitch": 60,
                "velocity": 32,
                "duration": 0.0840909,
                "tempo": 120.0
            },
            {
                "start_time": 15.6272727,
                "end_time": 15.7113636,
                "pitch": 48,
                "velocity": 32,
                "duration": 0.0840909,
                "tempo": 120.0
            },
            {
                "start_time": 15.7272727,
                "end_time": 15.8113636,
                "pitch": 50,
                "velocity": 32,
                "duration": 0.0840909,
                "tempo": 120.0
            },
            {
                "start_time": 15.8272727,
                "end_time": 15.9113636,
                "pitch": 60,
                "velocity": 32,
                "duration": 0.0840909,
                "tempo": 120.0
            },
            {
                "start_time": 15.9295455,
                "end_time": 16.0136364,
                "pitch": 50,
                "velocity": 32,
                "duration": 0.0840909,
                "tempo": 120.0
            },
            {
                "start_time": 16.0295455,
                "end_time": 16.1136364,
                "pitch": 60,
                "velocity": 32,
                "duration": 0.0840909,
                "tempo": 120.0
            },
            {
                "start_time": 16.1295455,
                "end_time": 16.2136364,
                "pitch": 47,
                "velocity": 32,
                "duration": 0.0840909,
                "tempo": 120.0
            },
            {
                "start_time": 16.2318182,
                "end_time": 16.3159091,
                "pitch": 60,
                "velocity": 32,
                "duration": 0.0840909,
                "tempo": 120.0
            },
            {
                "start_time": 16.3318182,
                "end_time": 16.4159091,
                "pitch": 47,
                "velocity": 32,
                "duration": 0.0840909,
                "tempo": 120.0
            },
            {
                "start_time": 16.4318182,
                "end_time": 16.5159091,
                "pitch": 63,
                "velocity": 32,
                "duration": 0.0840909,
                "tempo": 120.0
            },
            {
                "start_time": 16.5318182,
                "end_time": 16.6159091,
                "pitch": 48,
                "velocity": 32,
                "duration": 0.0840909,
                "tempo": 120.0
            },
            {
                "start_time": 16.6318182,
                "end_time": 16.7159091,
                "pitch": 63,
                "velocity": 32,
                "duration": 0.0840909,
                "tempo": 120.0
            },
            {
                "start_time": 16.7318182,
                "end_time": 16.8159091,
                "pitch": 48,
                "velocity": 32,
                "duration": 0.0840909,
                "tempo": 120.0
            },
            {
                "start_time": 16.8318182,
                "end_time": 16.9159091,
                "pitch": 62,
                "velocity": 32,
                "duration": 0.0840909,
                "tempo": 120.0
            },
            {
                "start_time": 16.9340909,
                "end_time": 17.0159091,
                "pitch": 50,
                "velocity": 32,
                "duration": 0.0818182,
                "tempo": 120.0
            },
            {
                "start_time": 17.0340909,
                "end_time": 17.1181818,
                "pitch": 60,
                "velocity": 32,
                "duration": 0.0840909,
                "tempo": 120.0
            },
            {
                "start_time": 17.1340909,
                "end_time": 17.2181818,
                "pitch": 50,
                "velocity": 32,
                "duration": 0.0840909,
                "tempo": 120.0
            },
            {
                "start_time": 17.2340909,
                "end_time": 17.3181818,
                "pitch": 63,
                "velocity": 32,
                "duration": 0.0840909,
                "tempo": 120.0
            },
            {
                "start_time": 17.3340909,
                "end_time": 17.4181818,
                "pitch": 50,
                "velocity": 32,
                "duration": 0.0840909,
                "tempo": 120.0
            },
            {
                "start_time": 17.4340909,
                "end_time": 17.5181818,
                "pitch": 63,
                "velocity": 32,
                "duration": 0.0840909,
                "tempo": 120.0
            },
            {
                "start_time": 17.5340909,
                "end_time": 17.6181818,
                "pitch": 50,
                "velocity": 32,
                "duration": 0.0840909,
                "tempo": 120.0
            },
            {
                "start_time": 17.6340909,
                "end_time": 17.7181818,
                "pitch": 67,
                "velocity": 32,
                "duration": 0.0840909,
                "tempo": 120.0
            },
            {
                "start_time": 17.7340909,
                "end_time": 17.8181818,
                "pitch": 51,
                "velocity": 32,
                "duration": 0.0840909,
                "tempo": 120.0
            },
            {
                "start_time": 17.8340909,
                "end_time": 17.9181818,
                "pitch": 60,
                "velocity": 32,
                "duration": 0.0840909,
                "tempo": 120.0
            },
            {
                "start_time": 17.9340909,
                "end_time": 18.0181818,
                "pitch": 51,
                "velocity": 32,
                "duration": 0.0840909,
                "tempo": 120.0
            },
            {
                "start_time": 18.0340909,
                "end_time": 18.1181818,
                "pitch": 60,
                "velocity": 32,
                "duration": 0.0840909,
                "tempo": 120.0
            },
            {
                "start_time": 18.1363636,
                "end_time": 18.2204545,
                "pitch": 50,
                "velocity": 32,
                "duration": 0.0840909,
                "tempo": 120.0
            },
            {
                "start_time": 18.2363636,
                "end_time": 18.3204545,
                "pitch": 60,
                "velocity": 32,
                "duration": 0.0840909,
                "tempo": 120.0
            },
            {
                "start_time": 18.3363636,
                "end_time": 18.4204545,
                "pitch": 51,
                "velocity": 32,
                "duration": 0.0840909,
                "tempo": 120.0
            },
            {
                "start_time": 18.4386364,
                "end_time": 18.5204545,
                "pitch": 60,
                "velocity": 32,
                "duration": 0.0818182,
                "tempo": 120.0
            },
            {
                "start_time": 18.5386364,
                "end_time": 18.6204545,
                "pitch": 53,
                "velocity": 32,
                "duration": 0.0818182,
                "tempo": 120.0
            },
            {
                "start_time": 18.6386364,
                "end_time": 18.7204545,
                "pitch": 60,
                "velocity": 32,
                "duration": 0.0818182,
                "tempo": 120.0
            },
            {
                "start_time": 18.7386364,
                "end_time": 18.8204545,
                "pitch": 53,
                "velocity": 32,
                "duration": 0.0818182,
                "tempo": 120.0
            },
            {
                "start_time": 18.8386364,
                "end_time": 18.9227273,
                "pitch": 60,
                "velocity": 32,
                "duration": 0.0840909,
                "tempo": 120.0
            },
            {
                "start_time": 18.9386364,
                "end_time": 19.0227273,
                "pitch": 53,
                "velocity": 32,
                "duration": 0.0840909,
                "tempo": 120.0
            },
            {
                "start_time": 19.0386364,
                "end_time": 19.1227273,
                "pitch": 60,
                "velocity": 32,
                "duration": 0.0840909,
                "tempo": 120.0
            },
            {
                "start_time": 19.1409091,
                "end_time": 19.2227273,
                "pitch": 53,
                "velocity": 32,
                "duration": 0.0818182,
                "tempo": 120.0
            },
            {
                "start_time": 19.2409091,
                "end_time": 19.3227273,
                "pitch": 69,
                "velocity": 32,
                "duration": 0.0818182,
                "tempo": 120.0
            },
            {
                "start_time": 19.3409091,
                "end_time": 19.4227273,
                "pitch": 60,
                "velocity": 32,
                "duration": 0.0818182,
                "tempo": 120.0
            },
            {
                "start_time": 19.4409091,
                "end_time": 19.5227273,
                "pitch": 69,
                "velocity": 32,
                "duration": 0.0818182,
                "tempo": 120.0
            },
            {
                "start_time": 19.5409091,
                "end_time": 19.6227273,
                "pitch": 60,
                "velocity": 32,
                "duration": 0.0818182,
                "tempo": 120.0
            },
            {
                "start_time": 19.6409091,
                "end_time": 19.7227273,
                "pitch": 69,
                "velocity": 32,
                "duration": 0.0818182,
                "tempo": 120.0
            },
            {
                "start_time": 19.7409091,
                "end_time": 19.8227273,
                "pitch": 60,
                "velocity": 32,
                "duration": 0.0818182,
                "tempo": 120.0
            },
            {
                "start_time": 19.8409091,
                "end_time": 19.9227273,
                "pitch": 69,
                "velocity": 32,
                "duration": 0.0818182,
                "tempo": 120.0
            },
            {
                "start_time": 19.9409091,
                "end_time": 20.0227273,
                "pitch": 60,
                "velocity": 32,
                "duration": 0.0818182,
                "tempo": 120.0
            },
            {
                "start_time": 20.0409091,
                "end_time": 20.125,
                "pitch": 68,
                "velocity": 32,
                "duration": 0.0840909,
                "tempo": 120.0
            },
            {
                "start_time": 20.1409091,
                "end_time": 20.225,
                "pitch": 59,
                "velocity": 32,
                "duration": 0.0840909,
                "tempo": 120.0
            },
            {
                "start_time": 20.2409091,
                "end_time": 20.325,
                "pitch": 69,
                "velocity": 32,
                "duration": 0.0840909,
                "tempo": 120.0
            },
            {
                "start_time": 20.3431818,
                "end_time": 20.4272727,
                "pitch": 59,
                "velocity": 32,
                "duration": 0.0840909,
                "tempo": 120.0
            },
            {
                "start_time": 20.4431818,
                "end_time": 20.5272727,
                "pitch": 69,
                "velocity": 32,
                "duration": 0.0840909,
                "tempo": 120.0
            },
            {
                "start_time": 20.5431818,
                "end_time": 20.6272727,
                "pitch": 59,
                "velocity": 32,
                "duration": 0.0840909,
                "tempo": 120.0
            },
            {
                "start_time": 20.6431818,
                "end_time": 20.7272727,
                "pitch": 69,
                "velocity": 32,
                "duration": 0.0840909,
                "tempo": 120.0
            },
            {
                "start_time": 20.7431818,
                "end_time": 20.8272727,
                "pitch": 59,
                "velocity": 32,
                "duration": 0.0840909,
                "tempo": 120.0
            },
            {
                "start_time": 20.8431818,
                "end_time": 20.9272727,
                "pitch": 59,
                "velocity": 32,
                "duration": 0.0840909,
                "tempo": 120.0
            },
            {
                "start_time": 20.9431818,
                "end_time": 21.0272727,
                "pitch": 57,
                "velocity": 32,
                "duration": 0.0840909,
                "tempo": 120.0
            },
            {
                "start_time": 21.0454545,
                "end_time": 21.1272727,
                "pitch": 69,
                "velocity": 32,
                "duration": 0.0818182,
                "tempo": 120.0
            },
            {
                "start_time": 21.1454545,
                "end_time": 21.2295455,
                "pitch": 59,
                "velocity": 32,
                "duration": 0.0840909,
                "tempo": 120.0
            },
            {
                "start_time": 21.2454545,
                "end_time": 21.3295455,
                "pitch": 69,
                "velocity": 32,
                "duration": 0.0840909,
                "tempo": 120.0
            },
            {
                "start_time": 21.3454545,
                "end_time": 21.4295455,
                "pitch": 57,
                "velocity": 32,
                "duration": 0.0840909,
                "tempo": 120.0
            },
            {
                "start_time": 21.4454545,
                "end_time": 21.5295455,
                "pitch": 68,
                "velocity": 32,
                "duration": 0.0840909,
                "tempo": 120.0
            },
            {
                "start_time": 21.5454545,
                "end_time": 21.6295455,
                "pitch": 56,
                "velocity": 32,
                "duration": 0.0840909,
                "tempo": 120.0
            },
            {
                "start_time": 21.6454545,
                "end_time": 21.7295455,
                "pitch": 69,
                "velocity": 32,
                "duration": 0.0840909,
                "tempo": 120.0
            },
            {
                "start_time": 21.7454545,
                "end_time": 21.8295455,
                "pitch": 55,
                "velocity": 32,
                "duration": 0.0840909,
                "tempo": 120.0
            },
            {
                "start_time": 21.8454545,
                "end_time": 21.9295455,
                "pitch": 69,
                "velocity": 32,
                "duration": 0.0840909,
                "tempo": 120.0
            },
            {
                "start_time": 21.9454545,
                "end_time": 22.0295455,
                "pitch": 55,
                "velocity": 32,
                "duration": 0.0840909,
                "tempo": 120.0
            },
            {
                "start_time": 22.0454545,
                "end_time": 22.1295455,
                "pitch": 71,
                "velocity": 32,
                "duration": 0.0840909,
                "tempo": 120.0
            },
            {
                "start_time": 22.1454545,
                "end_time": 22.2295455,
                "pitch": 55,
                "velocity": 32,
                "duration": 0.0840909,
                "tempo": 120.0
            },
            {
                "start_time": 22.2477273,
                "end_time": 22.3318182,
                "pitch": 72,
                "velocity": 32,
                "duration": 0.0840909,
                "tempo": 120.0
            },
            {
                "start_time": 22.3477273,
                "end_time": 22.4318182,
                "pitch": 55,
                "velocity": 32,
                "duration": 0.0840909,
                "tempo": 120.0
            },
            {
                "start_time": 22.4477273,
                "end_time": 22.5318182,
                "pitch": 74,
                "velocity": 32,
                "duration": 0.0840909,
                "tempo": 120.0
            },
            {
                "start_time": 22.5477273,
                "end_time": 22.6318182,
                "pitch": 52,
                "velocity": 32,
                "duration": 0.0840909,
                "tempo": 120.0
            },
            {
                "start_time": 22.6477273,
                "end_time": 22.7318182,
                "pitch": 69,
                "velocity": 32,
                "duration": 0.0840909,
                "tempo": 120.0
            },
            {
                "start_time": 22.7477273,
                "end_time": 22.8318182,
                "pitch": 52,
                "velocity": 32,
                "duration": 0.0840909,
                "tempo": 120.0
            },
            {
                "start_time": 22.8477273,
                "end_time": 22.9318182,
                "pitch": 72,
                "velocity": 32,
                "duration": 0.0840909,
                "tempo": 120.0
            },
            {
                "start_time": 22.95,
                "end_time": 23.0340909,
                "pitch": 57,
                "velocity": 32,
                "duration": 0.0840909,
                "tempo": 120.0
            },
            {
                "start_time": 23.05,
                "end_time": 23.1340909,
                "pitch": 71,
                "velocity": 32,
                "duration": 0.0840909,
                "tempo": 120.0
            },
            {
                "start_time": 23.15,
                "end_time": 23.2340909,
                "pitch": 57,
                "velocity": 32,
                "duration": 0.0840909,
                "tempo": 120.0
            },
            {
                "start_time": 23.2522727,
                "end_time": 23.3340909,
                "pitch": 72,
                "velocity": 32,
                "duration": 0.0818182,
                "tempo": 120.0
            },
            {
                "start_time": 23.3522727,
                "end_time": 23.4340909,
                "pitch": 59,
                "velocity": 32,
                "duration": 0.0818182,
                "tempo": 120.0
            },
            {
                "start_time": 23.4522727,
                "end_time": 23.5340909,
                "pitch": 69,
                "velocity": 32,
                "duration": 0.0818182,
                "tempo": 120.0
            },
            {
                "start_time": 23.5522727,
                "end_time": 23.6340909,
                "pitch": 59,
                "velocity": 32,
                "duration": 0.0818182,
                "tempo": 120.0
            },
            {
                "start_time": 23.6522727,
                "end_time": 23.7340909,
                "pitch": 74,
                "velocity": 32,
                "duration": 0.0818182,
                "tempo": 120.0
            },
            {
                "start_time": 23.7522727,
                "end_time": 23.8340909,
                "pitch": 57,
                "velocity": 32,
                "duration": 0.0818182,
                "tempo": 120.0
            },
            {
                "start_time": 23.8522727,
                "end_time": 23.9340909,
                "pitch": 76,
                "velocity": 32,
                "duration": 0.0818182,
                "tempo": 120.0
            },
            {
                "start_time": 23.9522727,
                "end_time": 24.0340909,
                "pitch": 59,
                "velocity": 32,
                "duration": 0.0818182,
                "tempo": 120.0
            },
            {
                "start_time": 24.0522727,
                "end_time": 24.1340909,
                "pitch": 77,
                "velocity": 32,
                "duration": 0.0818182,
                "tempo": 120.0
            },
            {
                "start_time": 24.1522727,
                "end_time": 24.2363636,
                "pitch": 60,
                "velocity": 32,
                "duration": 0.0840909,
                "tempo": 120.0
            },
            {
                "start_time": 24.2522727,
                "end_time": 24.3363636,
                "pitch": 69,
                "velocity": 32,
                "duration": 0.0840909,
                "tempo": 120.0
            },
            {
                "start_time": 24.3522727,
                "end_time": 24.4363636,
                "pitch": 60,
                "velocity": 32,
                "duration": 0.0840909,
                "tempo": 120.0
            },
            {
                "start_time": 24.4545455,
                "end_time": 24.5363636,
                "pitch": 76,
                "velocity": 32,
                "duration": 0.0818182,
                "tempo": 120.0
            },
            {
                "start_time": 24.5545455,
                "end_time": 24.6363636,
                "pitch": 59,
                "velocity": 32,
                "duration": 0.0818182,
                "tempo": 120.0
            },
            {
                "start_time": 24.6545455,
                "end_time": 24.7363636,
                "pitch": 69,
                "velocity": 32,
                "duration": 0.0818182,
                "tempo": 120.0
            },
            {
                "start_time": 24.7545455,
                "end_time": 24.8363636,
                "pitch": 60,
                "velocity": 32,
                "duration": 0.0818182,
                "tempo": 120.0
            },
            {
                "start_time": 24.8545455,
                "end_time": 24.9386364,
                "pitch": 69,
                "velocity": 32,
                "duration": 0.0840909,
                "tempo": 120.0
            },
            {
                "start_time": 24.9545455,
                "end_time": 25.0386364,
                "pitch": 62,
                "velocity": 32,
                "duration": 0.0840909,
                "tempo": 120.0
            },
            {
                "start_time": 25.0545455,
                "end_time": 25.1386364,
                "pitch": 57,
                "velocity": 32,
                "duration": 0.0840909,
                "tempo": 120.0
            },
            {
                "start_time": 25.1568182,
                "end_time": 25.2409091,
                "pitch": 69,
                "velocity": 32,
                "duration": 0.0840909,
                "tempo": 120.0
            },
            {
                "start_time": 25.2568182,
                "end_time": 25.3409091,
                "pitch": 57,
                "velocity": 32,
                "duration": 0.0840909,
                "tempo": 120.0
            },
            {
                "start_time": 25.3568182,
                "end_time": 25.4409091,
                "pitch": 62,
                "velocity": 32,
                "duration": 0.0840909,
                "tempo": 120.0
            },
            {
                "start_time": 25.4568182,
                "end_time": 25.5409091,
                "pitch": 69,
                "velocity": 32,
                "duration": 0.0840909,
                "tempo": 120.0
            },
            {
                "start_time": 25.5568182,
                "end_time": 25.6409091,
                "pitch": 62,
                "velocity": 32,
                "duration": 0.0840909,
                "tempo": 120.0
            },
            {
                "start_time": 25.6568182,
                "end_time": 25.7409091,
                "pitch": 69,
                "velocity": 32,
                "duration": 0.0840909,
                "tempo": 120.0
            },
            {
                "start_time": 25.7568182,
                "end_time": 25.8409091,
                "pitch": 60,
                "velocity": 32,
                "duration": 0.0840909,
                "tempo": 120.0
            },
            {
                "start_time": 25.8568182,
                "end_time": 25.9409091,
                "pitch": 69,
                "velocity": 32,
                "duration": 0.0840909,
                "tempo": 120.0
            },
            {
                "start_time": 25.9568182,
                "end_time": 26.0409091,
                "pitch": 60,
                "velocity": 32,
                "duration": 0.0840909,
                "tempo": 120.0
            },
            {
                "start_time": 26.0568182,
                "end_time": 26.1409091,
                "pitch": 69,
                "velocity": 32,
                "duration": 0.0840909,
                "tempo": 120.0
            },
            {
                "start_time": 26.1568182,
                "end_time": 26.2409091,
                "pitch": 60,
                "velocity": 32,
                "duration": 0.0840909,
                "tempo": 120.0
            },
            {
                "start_time": 26.2568182,
                "end_time": 26.3409091,
                "pitch": 69,
                "velocity": 32,
                "duration": 0.0840909,
                "tempo": 120.0
            },
            {
                "start_time": 26.3590909,
                "end_time": 26.4431818,
                "pitch": 60,
                "velocity": 32,
                "duration": 0.0840909,
                "tempo": 120.0
            },
            {
                "start_time": 26.4590909,
                "end_time": 26.5431818,
                "pitch": 68,
                "velocity": 32,
                "duration": 0.0840909,
                "tempo": 120.0
            },
            {
                "start_time": 26.5590909,
                "end_time": 26.6431818,
                "pitch": 59,
                "velocity": 32,
                "duration": 0.0840909,
                "tempo": 120.0
            },
            {
                "start_time": 26.6590909,
                "end_time": 26.7431818,
                "pitch": 69,
                "velocity": 32,
                "duration": 0.0840909,
                "tempo": 120.0
            },
            {
                "start_time": 26.7590909,
                "end_time": 26.8431818,
                "pitch": 59,
                "velocity": 32,
                "duration": 0.0840909,
                "tempo": 120.0
            },
            {
                "start_time": 26.8590909,
                "end_time": 26.9431818,
                "pitch": 69,
                "velocity": 32,
                "duration": 0.0840909,
                "tempo": 120.0
            },
            {
                "start_time": 26.9590909,
                "end_time": 27.0431818,
                "pitch": 59,
                "velocity": 32,
                "duration": 0.0840909,
                "tempo": 120.0
            },
            {
                "start_time": 27.0613636,
                "end_time": 27.1454545,
                "pitch": 69,
                "velocity": 32,
                "duration": 0.0840909,
                "tempo": 120.0
            },
            {
                "start_time": 27.1613636,
                "end_time": 27.2454545,
                "pitch": 59,
                "velocity": 32,
                "duration": 0.0840909,
                "tempo": 120.0
            },
            {
                "start_time": 27.2613636,
                "end_time": 27.3454545,
                "pitch": 59,
                "velocity": 32,
                "duration": 0.0840909,
                "tempo": 120.0
            },
            {
                "start_time": 27.3613636,
                "end_time": 27.4454545,
                "pitch": 57,
                "velocity": 32,
                "duration": 0.0840909,
                "tempo": 120.0
            },
            {
                "start_time": 27.4613636,
                "end_time": 27.5454545,
                "pitch": 69,
                "velocity": 32,
                "duration": 0.0840909,
                "tempo": 120.0
            },
            {
                "start_time": 27.5613636,
                "end_time": 27.6454545,
                "pitch": 59,
                "velocity": 32,
                "duration": 0.0840909,
                "tempo": 120.0
            },
            {
                "start_time": 27.6613636,
                "end_time": 27.7454545,
                "pitch": 69,
                "velocity": 32,
                "duration": 0.0840909,
                "tempo": 120.0
            },
            {
                "start_time": 27.7613636,
                "end_time": 27.8454545,
                "pitch": 57,
                "velocity": 32,
                "duration": 0.0840909,
                "tempo": 120.0
            },
            {
                "start_time": 27.8613636,
                "end_time": 27.9454545,
                "pitch": 68,
                "velocity": 32,
                "duration": 0.0840909,
                "tempo": 120.0
            },
            {
                "start_time": 27.9613636,
                "end_time": 28.0454545,
                "pitch": 56,
                "velocity": 32,
                "duration": 0.0840909,
                "tempo": 120.0
            },
            {
                "start_time": 28.0613636,
                "end_time": 28.1454545,
                "pitch": 69,
                "velocity": 32,
                "duration": 0.0840909,
                "tempo": 120.0
            },
            {
                "start_time": 28.1636364,
                "end_time": 28.2454545,
                "pitch": 55,
                "velocity": 32,
                "duration": 0.0818182,
                "tempo": 120.0
            },
            {
                "start_time": 28.2636364,
                "end_time": 28.3477273,
                "pitch": 69,
                "velocity": 32,
                "duration": 0.0840909,
                "tempo": 120.0
            },
            {
                "start_time": 28.3636364,
                "end_time": 28.4477273,
                "pitch": 55,
                "velocity": 32,
                "duration": 0.0840909,
                "tempo": 120.0
            },
            {
                "start_time": 28.4636364,
                "end_time": 28.5477273,
                "pitch": 71,
                "velocity": 32,
                "duration": 0.0840909,
                "tempo": 120.0
            },
            {
                "start_time": 28.5636364,
                "end_time": 28.6477273,
                "pitch": 55,
                "velocity": 32,
                "duration": 0.0840909,
                "tempo": 120.0
            },
            {
                "start_time": 28.6636364,
                "end_time": 28.7477273,
                "pitch": 72,
                "velocity": 32,
                "duration": 0.0840909,
                "tempo": 120.0
            },
            {
                "start_time": 28.7636364,
                "end_time": 28.8477273,
                "pitch": 55,
                "velocity": 32,
                "duration": 0.0840909,
                "tempo": 120.0
            },
            {
                "start_time": 28.8636364,
                "end_time": 28.9477273,
                "pitch": 74,
                "velocity": 32,
                "duration": 0.0840909,
                "tempo": 120.0
            },
            {
                "start_time": 28.9659091,
                "end_time": 29.05,
                "pitch": 52,
                "velocity": 32,
                "duration": 0.0840909,
                "tempo": 120.0
            },
            {
                "start_time": 29.0659091,
                "end_time": 29.15,
                "pitch": 72,
                "velocity": 32,
                "duration": 0.0840909,
                "tempo": 120.0
            },
            {
                "start_time": 29.1659091,
                "end_time": 29.25,
                "pitch": 52,
                "velocity": 32,
                "duration": 0.0840909,
                "tempo": 120.0
            },
            {
                "start_time": 29.2681818,
                "end_time": 29.35,
                "pitch": 71,
                "velocity": 32,
                "duration": 0.0818182,
                "tempo": 120.0
            },
            {
                "start_time": 29.3681818,
                "end_time": 29.45,
                "pitch": 57,
                "velocity": 32,
                "duration": 0.0818182,
                "tempo": 120.0
            },
            {
                "start_time": 29.4681818,
                "end_time": 29.55,
                "pitch": 69,
                "velocity": 32,
                "duration": 0.0818182,
                "tempo": 120.0
            },
            {
                "start_time": 29.5681818,
                "end_time": 29.65,
                "pitch": 57,
                "velocity": 32,
                "duration": 0.0818182,
                "tempo": 120.0
            },
            {
                "start_time": 29.6681818,
                "end_time": 29.75,
                "pitch": 72,
                "velocity": 32,
                "duration": 0.0818182,
                "tempo": 120.0
            },
            {
                "start_time": 29.7681818,
                "end_time": 29.85,
                "pitch": 50,
                "velocity": 32,
                "duration": 0.0818182,
                "tempo": 120.0
            },
            {
                "start_time": 29.8681818,
                "end_time": 29.95,
                "pitch": 71,
                "velocity": 32,
                "duration": 0.0818182,
                "tempo": 120.0
            },
            {
                "start_time": 29.9681818,
                "end_time": 30.05,
                "pitch": 50,
                "velocity": 32,
                "duration": 0.0818182,
                "tempo": 120.0
            },
            {
                "start_time": 30.0681818,
                "end_time": 30.1522727,
                "pitch": 69,
                "velocity": 32,
                "duration": 0.0840909,
                "tempo": 120.0
            },
            {
                "start_time": 30.1681818,
                "end_time": 30.2522727,
                "pitch": 59,
                "velocity": 32,
                "duration": 0.0840909,
                "tempo": 120.0
            },
            {
                "start_time": 30.2681818,
                "end_time": 30.3522727,
                "pitch": 68,
                "velocity": 32,
                "duration": 0.0840909,
                "tempo": 120.0
            },
            {
                "start_time": 30.3704545,
                "end_time": 30.4522727,
                "pitch": 59,
                "velocity": 32,
                "duration": 0.0818182,
                "tempo": 120.0
            },
            {
                "start_time": 30.4704545,
                "end_time": 30.5522727,
                "pitch": 69,
                "velocity": 32,
                "duration": 0.0818182,
                "tempo": 120.0
            },
            {
                "start_time": 30.5704545,
                "end_time": 30.6522727,
                "pitch": 57,
                "velocity": 32,
                "duration": 0.0818182,
                "tempo": 120.0
            },
            {
                "start_time": 30.6704545,
                "end_time": 30.7522727,
                "pitch": 71,
                "velocity": 32,
                "duration": 0.0818182,
                "tempo": 120.0
            },
            {
                "start_time": 30.7704545,
                "end_time": 30.8522727,
                "pitch": 57,
                "velocity": 32,
                "duration": 0.0818182,
                "tempo": 120.0
            },
            {
                "start_time": 30.8704545,
                "end_time": 30.9545455,
                "pitch": 72,
                "velocity": 32,
                "duration": 0.0840909,
                "tempo": 120.0
            },
            {
                "start_time": 30.9704545,
                "end_time": 31.0545455,
                "pitch": 57,
                "velocity": 32,
                "duration": 0.0840909,
                "tempo": 120.0
            },
            {
                "start_time": 31.0704545,
                "end_time": 31.1545455,
                "pitch": 72,
                "velocity": 32,
                "duration": 0.0840909,
                "tempo": 120.0
            },
            {
                "start_time": 31.1727273,
                "end_time": 31.2568182,
                "pitch": 57,
                "velocity": 32,
                "duration": 0.0840909,
                "tempo": 120.0
            },
            {
                "start_time": 31.2727273,
                "end_time": 31.3568182,
                "pitch": 71,
                "velocity": 32,
                "duration": 0.0840909,
                "tempo": 120.0
            },
            {
                "start_time": 31.3727273,
                "end_time": 31.4568182,
                "pitch": 57,
                "velocity": 32,
                "duration": 0.0840909,
                "tempo": 120.0
            },
            {
                "start_time": 31.4727273,
                "end_time": 31.5568182,
                "pitch": 72,
                "velocity": 32,
                "duration": 0.0840909,
                "tempo": 120.0
            },
            {
                "start_time": 31.5727273,
                "end_time": 31.6568182,
                "pitch": 57,
                "velocity": 32,
                "duration": 0.0840909,
                "tempo": 120.0
            },
            {
                "start_time": 31.6727273,
                "end_time": 31.7568182,
                "pitch": 74,
                "velocity": 32,
                "duration": 0.0840909,
                "tempo": 120.0
            },
            {
                "start_time": 31.7727273,
                "end_time": 31.8568182,
                "pitch": 57,
                "velocity": 32,
                "duration": 0.0840909,
                "tempo": 120.0
            },
            {
                "start_time": 31.8727273,
                "end_time": 31.9568182,
                "pitch": 74,
                "velocity": 32,
                "duration": 0.0840909,
                "tempo": 120.0
            },
            {
                "start_time": 31.9727273,
                "end_time": 32.0568182,
                "pitch": 57,
                "velocity": 32,
                "duration": 0.0840909,
                "tempo": 120.0
            },
            {
                "start_time": 32.0886364,
                "end_time": 96.3272727,
                "pitch": 72,
                "velocity": 32,
                "duration": 64.2386364,
                "tempo": 120.0
            },
            {
                "start_time": 96.3454545,
                "end_time": 96.4272727,
                "pitch": 55,
                "velocity": 32,
                "duration": 0.0818182,
                "tempo": 120.0
            },
            {
                "start_time": 96.4454545,
                "end_time": 96.5272727,
                "pitch": 60,
                "velocity": 32,
                "duration": 0.0818182,
                "tempo": 120.0
            },
            {
                "start_time": 96.5454545,
                "end_time": 96.6272727,
                "pitch": 55,
                "velocity": 32,
                "duration": 0.0818182,
                "tempo": 120.0
            },
            {
                "start_time": 96.6454545,
                "end_time": 96.7272727,
                "pitch": 63,
                "velocity": 32,
                "duration": 0.0818182,
                "tempo": 120.0
            },
            {
                "start_time": 96.7431818,
                "end_time": 96.825,
                "pitch": 55,
                "velocity": 32,
                "duration": 0.0818182,
                "tempo": 120.0
            },
            {
                "start_time": 96.8409091,
                "end_time": 96.9227273,
                "pitch": 63,
                "velocity": 32,
                "duration": 0.0818182,
                "tempo": 120.0
            },
            {
                "start_time": 96.9386364,
                "end_time": 97.0204545,
                "pitch": 55,
                "velocity": 32,
                "duration": 0.0818182,
                "tempo": 120.0
            },
            {
                "start_time": 97.0363636,
                "end_time": 97.1204545,
                "pitch": 62,
                "velocity": 32,
                "duration": 0.0840909,
                "tempo": 120.0
            },
            {
                "start_time": 97.1386364,
                "end_time": 97.2204545,
                "pitch": 53,
                "velocity": 32,
                "duration": 0.0818182,
                "tempo": 120.0
            },
            {
                "start_time": 97.2386364,
                "end_time": 97.3227273,
                "pitch": 60,
                "velocity": 32,
                "duration": 0.0840909,
                "tempo": 120.0
            },
            {
                "start_time": 97.3386364,
                "end_time": 97.4227273,
                "pitch": 53,
                "velocity": 32,
                "duration": 0.0840909,
                "tempo": 120.0
            },
            {
                "start_time": 97.4386364,
                "end_time": 97.5227273,
                "pitch": 63,
                "velocity": 32,
                "duration": 0.0840909,
                "tempo": 120.0
            },
            {
                "start_time": 97.5409091,
                "end_time": 97.625,
                "pitch": 53,
                "velocity": 32,
                "duration": 0.0840909,
                "tempo": 120.0
            },
            {
                "start_time": 97.6409091,
                "end_time": 97.725,
                "pitch": 63,
                "velocity": 32,
                "duration": 0.0840909,
                "tempo": 120.0
            },
            {
                "start_time": 97.7409091,
                "end_time": 97.825,
                "pitch": 53,
                "velocity": 32,
                "duration": 0.0840909,
                "tempo": 120.0
            },
            {
                "start_time": 97.8431818,
                "end_time": 97.925,
                "pitch": 65,
                "velocity": 32,
                "duration": 0.0818182,
                "tempo": 120.0
            },
            {
                "start_time": 97.9431818,
                "end_time": 98.025,
                "pitch": 51,
                "velocity": 32,
                "duration": 0.0818182,
                "tempo": 120.0
            },
            {
                "start_time": 98.0431818,
                "end_time": 98.125,
                "pitch": 60,
                "velocity": 32,
                "duration": 0.0818182,
                "tempo": 120.0
            },
            {
                "start_time": 98.1431818,
                "end_time": 98.225,
                "pitch": 51,
                "velocity": 32,
                "duration": 0.0818182,
                "tempo": 120.0
            },
            {
                "start_time": 98.2431818,
                "end_time": 98.3272727,
                "pitch": 63,
                "velocity": 32,
                "duration": 0.0840909,
                "tempo": 120.0
            },
            {
                "start_time": 98.3431818,
                "end_time": 98.4272727,
                "pitch": 53,
                "velocity": 32,
                "duration": 0.0840909,
                "tempo": 120.0
            },
            {
                "start_time": 98.4431818,
                "end_time": 98.5272727,
                "pitch": 62,
                "velocity": 32,
                "duration": 0.0840909,
                "tempo": 120.0
            },
            {
                "start_time": 98.5454545,
                "end_time": 98.6272727,
                "pitch": 51,
                "velocity": 32,
                "duration": 0.0818182,
                "tempo": 120.0
            },
            {
                "start_time": 98.6454545,
                "end_time": 98.7272727,
                "pitch": 60,
                "velocity": 32,
                "duration": 0.0818182,
                "tempo": 120.0
            },
            {
                "start_time": 98.7454545,
                "end_time": 98.8272727,
                "pitch": 50,
                "velocity": 32,
                "duration": 0.0818182,
                "tempo": 120.0
            },
            {
                "start_time": 98.8454545,
                "end_time": 98.9272727,
                "pitch": 48,
                "velocity": 32,
                "duration": 0.0818182,
                "tempo": 120.0
            },
            {
                "start_time": 98.9454545,
                "end_time": 99.0272727,
                "pitch": 60,
                "velocity": 32,
                "duration": 0.0818182,
                "tempo": 120.0
            },
            {
                "start_time": 99.0454545,
                "end_time": 99.1295455,
                "pitch": 48,
                "velocity": 32,
                "duration": 0.0840909,
                "tempo": 120.0
            },
            {
                "start_time": 99.1454545,
                "end_time": 99.2295455,
                "pitch": 50,
                "velocity": 32,
                "duration": 0.0840909,
                "tempo": 120.0
            },
            {
                "start_time": 99.2454545,
                "end_time": 99.3295455,
                "pitch": 60,
                "velocity": 32,
                "duration": 0.0840909,
                "tempo": 120.0
            },
            {
                "start_time": 99.3477273,
                "end_time": 99.4318182,
                "pitch": 50,
                "velocity": 32,
                "duration": 0.0840909,
                "tempo": 120.0
            },
            {
                "start_time": 99.4477273,
                "end_time": 99.5318182,
                "pitch": 60,
                "velocity": 32,
                "duration": 0.0840909,
                "tempo": 120.0
            },
            {
                "start_time": 99.5477273,
                "end_time": 99.6318182,
                "pitch": 47,
                "velocity": 32,
                "duration": 0.0840909,
                "tempo": 120.0
            },
            {
                "start_time": 99.65,
                "end_time": 99.7318182,
                "pitch": 60,
                "velocity": 32,
                "duration": 0.0818182,
                "tempo": 120.0
            },
            {
                "start_time": 99.75,
                "end_time": 99.8340909,
                "pitch": 47,
                "velocity": 32,
                "duration": 0.0840909,
                "tempo": 120.0
            },
            {
                "start_time": 99.85,
                "end_time": 99.9340909,
                "pitch": 63,
                "velocity": 32,
                "duration": 0.0840909,
                "tempo": 120.0
            },
            {
                "start_time": 99.95,
                "end_time": 100.0340909,
                "pitch": 48,
                "velocity": 32,
                "duration": 0.0840909,
                "tempo": 120.0
            },
            {
                "start_time": 100.05,
                "end_time": 100.1340909,
                "pitch": 63,
                "velocity": 32,
                "duration": 0.0840909,
                "tempo": 120.0
            },
            {
                "start_time": 100.15,
                "end_time": 100.2340909,
                "pitch": 48,
                "velocity": 32,
                "duration": 0.0840909,
                "tempo": 120.0
            },
            {
                "start_time": 100.25,
                "end_time": 100.3340909,
                "pitch": 62,
                "velocity": 32,
                "duration": 0.0840909,
                "tempo": 120.0
            },
            {
                "start_time": 100.35,
                "end_time": 100.4340909,
                "pitch": 50,
                "velocity": 32,
                "duration": 0.0840909,
                "tempo": 120.0
            },
            {
                "start_time": 100.4522727,
                "end_time": 100.5363636,
                "pitch": 60,
                "velocity": 32,
                "duration": 0.0840909,
                "tempo": 120.0
            },
            {
                "start_time": 100.5522727,
                "end_time": 100.6363636,
                "pitch": 50,
                "velocity": 32,
                "duration": 0.0840909,
                "tempo": 120.0
            },
            {
                "start_time": 100.6522727,
                "end_time": 100.7363636,
                "pitch": 63,
                "velocity": 32,
                "duration": 0.0840909,
                "tempo": 120.0
            },
            {
                "start_time": 100.7522727,
                "end_time": 100.8363636,
                "pitch": 50,
                "velocity": 32,
                "duration": 0.0840909,
                "tempo": 120.0
            },
            {
                "start_time": 100.8522727,
                "end_time": 100.9363636,
                "pitch": 63,
                "velocity": 32,
                "duration": 0.0840909,
                "tempo": 120.0
            },
            {
                "start_time": 100.9522727,
                "end_time": 101.0363636,
                "pitch": 50,
                "velocity": 32,
                "duration": 0.0840909,
                "tempo": 120.0
            },
            {
                "start_time": 101.0522727,
                "end_time": 101.1363636,
                "pitch": 67,
                "velocity": 32,
                "duration": 0.0840909,
                "tempo": 120.0
            },
            {
                "start_time": 101.1545455,
                "end_time": 101.2386364,
                "pitch": 51,
                "velocity": 32,
                "duration": 0.0840909,
                "tempo": 120.0
            },
            {
                "start_time": 101.2545455,
                "end_time": 101.3386364,
                "pitch": 60,
                "velocity": 32,
                "duration": 0.0840909,
                "tempo": 120.0
            },
            {
                "start_time": 101.3545455,
                "end_time": 101.4386364,
                "pitch": 51,
                "velocity": 32,
                "duration": 0.0840909,
                "tempo": 120.0
            },
            {
                "start_time": 101.4568182,
                "end_time": 101.5386364,
                "pitch": 60,
                "velocity": 32,
                "duration": 0.0818182,
                "tempo": 120.0
            },
            {
                "start_time": 101.5568182,
                "end_time": 101.6409091,
                "pitch": 50,
                "velocity": 32,
                "duration": 0.0840909,
                "tempo": 120.0
            },
            {
                "start_time": 101.6568182,
                "end_time": 101.7409091,
                "pitch": 60,
                "velocity": 32,
                "duration": 0.0840909,
                "tempo": 120.0
            },
            {
                "start_time": 101.7568182,
                "end_time": 101.8409091,
                "pitch": 51,
                "velocity": 32,
                "duration": 0.0840909,
                "tempo": 120.0
            },
            {
                "start_time": 101.8590909,
                "end_time": 101.9409091,
                "pitch": 60,
                "velocity": 32,
                "duration": 0.0818182,
                "tempo": 120.0
            },
            {
                "start_time": 101.9590909,
                "end_time": 102.0409091,
                "pitch": 53,
                "velocity": 32,
                "duration": 0.0818182,
                "tempo": 120.0
            },
            {
                "start_time": 102.0590909,
                "end_time": 102.1409091,
                "pitch": 60,
                "velocity": 32,
                "duration": 0.0818182,
                "tempo": 120.0
            },
            {
                "start_time": 102.1590909,
                "end_time": 102.2409091,
                "pitch": 53,
                "velocity": 32,
                "duration": 0.0818182,
                "tempo": 120.0
            },
            {
                "start_time": 102.2590909,
                "end_time": 102.3431818,
                "pitch": 60,
                "velocity": 32,
                "duration": 0.0840909,
                "tempo": 120.0
            },
            {
                "start_time": 102.3590909,
                "end_time": 102.4431818,
                "pitch": 53,
                "velocity": 32,
                "duration": 0.0840909,
                "tempo": 120.0
            },
            {
                "start_time": 102.4590909,
                "end_time": 102.5431818,
                "pitch": 60,
                "velocity": 32,
                "duration": 0.0840909,
                "tempo": 120.0
            },
            {
                "start_time": 102.5613636,
                "end_time": 102.6454545,
                "pitch": 53,
                "velocity": 32,
                "duration": 0.0840909,
                "tempo": 120.0
            },
            {
                "start_time": 102.6613636,
                "end_time": 102.7454545,
                "pitch": 60,
                "velocity": 32,
                "duration": 0.0840909,
                "tempo": 120.0
            },
            {
                "start_time": 102.7613636,
                "end_time": 102.8454545,
                "pitch": 55,
                "velocity": 32,
                "duration": 0.0840909,
                "tempo": 120.0
            },
            {
                "start_time": 102.8613636,
                "end_time": 102.9454545,
                "pitch": 60,
                "velocity": 32,
                "duration": 0.0840909,
                "tempo": 120.0
            },
            {
                "start_time": 102.9613636,
                "end_time": 103.0454545,
                "pitch": 55,
                "velocity": 32,
                "duration": 0.0840909,
                "tempo": 120.0
            },
            {
                "start_time": 103.0613636,
                "end_time": 103.1454545,
                "pitch": 63,
                "velocity": 32,
                "duration": 0.0840909,
                "tempo": 120.0
            },
            {
                "start_time": 103.1613636,
                "end_time": 103.2454545,
                "pitch": 55,
                "velocity": 32,
                "duration": 0.0840909,
                "tempo": 120.0
            },
            {
                "start_time": 103.2613636,
                "end_time": 103.3454545,
                "pitch": 63,
                "velocity": 32,
                "duration": 0.0840909,
                "tempo": 120.0
            },
            {
                "start_time": 103.3636364,
                "end_time": 103.4477273,
                "pitch": 55,
                "velocity": 32,
                "duration": 0.0840909,
                "tempo": 120.0
            },
            {
                "start_time": 103.4636364,
                "end_time": 103.5477273,
                "pitch": 62,
                "velocity": 32,
                "duration": 0.0840909,
                "tempo": 120.0
            },
            {
                "start_time": 103.5636364,
                "end_time": 103.6477273,
                "pitch": 53,
                "velocity": 32,
                "duration": 0.0840909,
                "tempo": 120.0
            },
            {
                "start_time": 103.6659091,
                "end_time": 103.75,
                "pitch": 60,
                "velocity": 32,
                "duration": 0.0840909,
                "tempo": 120.0
            },
            {
                "start_time": 103.7659091,
                "end_time": 103.85,
                "pitch": 53,
                "velocity": 32,
                "duration": 0.0840909,
                "tempo": 120.0
            },
            {
                "start_time": 103.8659091,
                "end_time": 103.95,
                "pitch": 63,
                "velocity": 32,
                "duration": 0.0840909,
                "tempo": 120.0
            },
            {
                "start_time": 103.9659091,
                "end_time": 104.05,
                "pitch": 53,
                "velocity": 32,
                "duration": 0.0840909,
                "tempo": 120.0
            },
            {
                "start_time": 104.0659091,
                "end_time": 104.15,
                "pitch": 63,
                "velocity": 32,
                "duration": 0.0840909,
                "tempo": 120.0
            },
            {
                "start_time": 104.1659091,
                "end_time": 104.25,
                "pitch": 53,
                "velocity": 32,
                "duration": 0.0840909,
                "tempo": 120.0
            },
            {
                "start_time": 104.2659091,
                "end_time": 104.35,
                "pitch": 65,
                "velocity": 32,
                "duration": 0.0840909,
                "tempo": 120.0
            },
            {
                "start_time": 104.3681818,
                "end_time": 104.45,
                "pitch": 51,
                "velocity": 32,
                "duration": 0.0818182,
                "tempo": 120.0
            },
            {
                "start_time": 104.4681818,
                "end_time": 104.5522727,
                "pitch": 60,
                "velocity": 32,
                "duration": 0.0840909,
                "tempo": 120.0
            },
            {
                "start_time": 104.5681818,
                "end_time": 104.6522727,
                "pitch": 51,
                "velocity": 32,
                "duration": 0.0840909,
                "tempo": 120.0
            },
            {
                "start_time": 104.6681818,
                "end_time": 104.7522727,
                "pitch": 63,
                "velocity": 32,
                "duration": 0.0840909,
                "tempo": 120.0
            },
            {
                "start_time": 104.7681818,
                "end_time": 104.8522727,
                "pitch": 53,
                "velocity": 32,
                "duration": 0.0840909,
                "tempo": 120.0
            },
            {
                "start_time": 104.8681818,
                "end_time": 104.9522727,
                "pitch": 62,
                "velocity": 32,
                "duration": 0.0840909,
                "tempo": 120.0
            },
            {
                "start_time": 104.9681818,
                "end_time": 105.0522727,
                "pitch": 51,
                "velocity": 32,
                "duration": 0.0840909,
                "tempo": 120.0
            },
            {
                "start_time": 105.0681818,
                "end_time": 105.1522727,
                "pitch": 60,
                "velocity": 32,
                "duration": 0.0840909,
                "tempo": 120.0
            },
            {
                "start_time": 105.1704545,
                "end_time": 105.2545455,
                "pitch": 50,
                "velocity": 32,
                "duration": 0.0840909,
                "tempo": 120.0
            },
            {
                "start_time": 105.2704545,
                "end_time": 105.3545455,
                "pitch": 48,
                "velocity": 32,
                "duration": 0.0840909,
                "tempo": 120.0
            },
            {
                "start_time": 105.3704545,
                "end_time": 105.4545455,
                "pitch": 60,
                "velocity": 32,
                "duration": 0.0840909,
                "tempo": 120.0
            },
            {
                "start_time": 105.4727273,
                "end_time": 105.5568182,
                "pitch": 48,
                "velocity": 32,
                "duration": 0.0840909,
                "tempo": 120.0
            },
            {
                "start_time": 105.5727273,
                "end_time": 105.6568182,
                "pitch": 50,
                "velocity": 32,
                "duration": 0.0840909,
                "tempo": 120.0
            },
            {
                "start_time": 105.6727273,
                "end_time": 105.7568182,
                "pitch": 60,
                "velocity": 32,
                "duration": 0.0840909,
                "tempo": 120.0
            },
            {
                "start_time": 105.7727273,
                "end_time": 105.8568182,
                "pitch": 50,
                "velocity": 32,
                "duration": 0.0840909,
                "tempo": 120.0
            },
            {
                "start_time": 105.875,
                "end_time": 105.9568182,
                "pitch": 60,
                "velocity": 32,
                "duration": 0.0818182,
                "tempo": 120.0
            },
            {
                "start_time": 105.975,
                "end_time": 106.0568182,
                "pitch": 47,
                "velocity": 32,
                "duration": 0.0818182,
                "tempo": 120.0
            },
            {
                "start_time": 106.075,
                "end_time": 106.1568182,
                "pitch": 60,
                "velocity": 32,
                "duration": 0.0818182,
                "tempo": 120.0
            },
            {
                "start_time": 106.175,
                "end_time": 106.2568182,
                "pitch": 47,
                "velocity": 32,
                "duration": 0.0818182,
                "tempo": 120.0
            },
            {
                "start_time": 106.275,
                "end_time": 106.3590909,
                "pitch": 63,
                "velocity": 32,
                "duration": 0.0840909,
                "tempo": 120.0
            },
            {
                "start_time": 106.375,
                "end_time": 106.4590909,
                "pitch": 48,
                "velocity": 32,
                "duration": 0.0840909,
                "tempo": 120.0
            },
            {
                "start_time": 106.475,
                "end_time": 106.5590909,
                "pitch": 63,
                "velocity": 32,
                "duration": 0.0840909,
                "tempo": 120.0
            },
            {
                "start_time": 106.5772727,
                "end_time": 106.6613636,
                "pitch": 48,
                "velocity": 32,
                "duration": 0.0840909,
                "tempo": 120.0
            },
            {
                "start_time": 106.6772727,
                "end_time": 106.7613636,
                "pitch": 62,
                "velocity": 32,
                "duration": 0.0840909,
                "tempo": 120.0
            },
            {
                "start_time": 106.7772727,
                "end_time": 106.8613636,
                "pitch": 50,
                "velocity": 32,
                "duration": 0.0840909,
                "tempo": 120.0
            },
            {
                "start_time": 106.8772727,
                "end_time": 106.9613636,
                "pitch": 60,
                "velocity": 32,
                "duration": 0.0840909,
                "tempo": 120.0
            },
            {
                "start_time": 106.9772727,
                "end_time": 107.0613636,
                "pitch": 50,
                "velocity": 32,
                "duration": 0.0840909,
                "tempo": 120.0
            },
            {
                "start_time": 107.0772727,
                "end_time": 107.1613636,
                "pitch": 63,
                "velocity": 32,
                "duration": 0.0840909,
                "tempo": 120.0
            },
            {
                "start_time": 107.1772727,
                "end_time": 107.2613636,
                "pitch": 50,
                "velocity": 32,
                "duration": 0.0840909,
                "tempo": 120.0
            },
            {
                "start_time": 107.2795455,
                "end_time": 107.3613636,
                "pitch": 63,
                "velocity": 32,
                "duration": 0.0818182,
                "tempo": 120.0
            },
            {
                "start_time": 107.3795455,
                "end_time": 107.4636364,
                "pitch": 50,
                "velocity": 32,
                "duration": 0.0840909,
                "tempo": 120.0
            },
            {
                "start_time": 107.4795455,
                "end_time": 107.5636364,
                "pitch": 67,
                "velocity": 32,
                "duration": 0.0840909,
                "tempo": 120.0
            },
            {
                "start_time": 107.5795455,
                "end_time": 107.6636364,
                "pitch": 51,
                "velocity": 32,
                "duration": 0.0840909,
                "tempo": 120.0
            },
            {
                "start_time": 107.6818182,
                "end_time": 107.7659091,
                "pitch": 60,
                "velocity": 32,
                "duration": 0.0840909,
                "tempo": 120.0
            },
            {
                "start_time": 107.7818182,
                "end_time": 107.8659091,
                "pitch": 51,
                "velocity": 32,
                "duration": 0.0840909,
                "tempo": 120.0
            },
            {
                "start_time": 107.8818182,
                "end_time": 107.9659091,
                "pitch": 60,
                "velocity": 32,
                "duration": 0.0840909,
                "tempo": 120.0
            },
            {
                "start_time": 107.9818182,
                "end_time": 108.0659091,
                "pitch": 50,
                "velocity": 32,
                "duration": 0.0840909,
                "tempo": 120.0
            },
            {
                "start_time": 108.0818182,
                "end_time": 108.1659091,
                "pitch": 60,
                "velocity": 32,
                "duration": 0.0840909,
                "tempo": 120.0
            },
            {
                "start_time": 108.1818182,
                "end_time": 108.2659091,
                "pitch": 51,
                "velocity": 32,
                "duration": 0.0840909,
                "tempo": 120.0
            },
            {
                "start_time": 108.2818182,
                "end_time": 108.3659091,
                "pitch": 60,
                "velocity": 32,
                "duration": 0.0840909,
                "tempo": 120.0
            },
            {
                "start_time": 108.3840909,
                "end_time": 108.4681818,
                "pitch": 53,
                "velocity": 32,
                "duration": 0.0840909,
                "tempo": 120.0
            },
            {
                "start_time": 108.4840909,
                "end_time": 108.5681818,
                "pitch": 60,
                "velocity": 32,
                "duration": 0.0840909,
                "tempo": 120.0
            },
            {
                "start_time": 108.5840909,
                "end_time": 108.6681818,
                "pitch": 53,
                "velocity": 32,
                "duration": 0.0840909,
                "tempo": 120.0
            },
            {
                "start_time": 108.6863636,
                "end_time": 108.7681818,
                "pitch": 60,
                "velocity": 32,
                "duration": 0.0818182,
                "tempo": 120.0
            },
            {
                "start_time": 108.7863636,
                "end_time": 108.8681818,
                "pitch": 53,
                "velocity": 32,
                "duration": 0.0818182,
                "tempo": 120.0
            },
            {
                "start_time": 108.8863636,
                "end_time": 108.9681818,
                "pitch": 60,
                "velocity": 32,
                "duration": 0.0818182,
                "tempo": 120.0
            },
            {
                "start_time": 108.9863636,
                "end_time": 109.0681818,
                "pitch": 53,
                "velocity": 32,
                "duration": 0.0818182,
                "tempo": 120.0
            },
            {
                "start_time": 109.0863636,
                "end_time": 109.1681818,
                "pitch": 69,
                "velocity": 32,
                "duration": 0.0818182,
                "tempo": 120.0
            },
            {
                "start_time": 109.1863636,
                "end_time": 109.2704545,
                "pitch": 60,
                "velocity": 32,
                "duration": 0.0840909,
                "tempo": 120.0
            },
            {
                "start_time": 109.2863636,
                "end_time": 109.3704545,
                "pitch": 69,
                "velocity": 32,
                "duration": 0.0840909,
                "tempo": 120.0
            },
            {
                "start_time": 109.3863636,
                "end_time": 109.4704545,
                "pitch": 60,
                "velocity": 32,
                "duration": 0.0840909,
                "tempo": 120.0
            },
            {
                "start_time": 109.4886364,
                "end_time": 109.5727273,
                "pitch": 69,
                "velocity": 32,
                "duration": 0.0840909,
                "tempo": 120.0
            },
            {
                "start_time": 109.5886364,
                "end_time": 109.6727273,
                "pitch": 60,
                "velocity": 32,
                "duration": 0.0840909,
                "tempo": 120.0
            },
            {
                "start_time": 109.6886364,
                "end_time": 109.7727273,
                "pitch": 69,
                "velocity": 32,
                "duration": 0.0840909,
                "tempo": 120.0
            },
            {
                "start_time": 109.7909091,
                "end_time": 109.875,
                "pitch": 60,
                "velocity": 32,
                "duration": 0.0840909,
                "tempo": 120.0
            },
            {
                "start_time": 109.8909091,
                "end_time": 109.975,
                "pitch": 68,
                "velocity": 32,
                "duration": 0.0840909,
                "tempo": 120.0
            },
            {
                "start_time": 109.9909091,
                "end_time": 110.075,
                "pitch": 59,
                "velocity": 32,
                "duration": 0.0840909,
                "tempo": 120.0
            },
            {
                "start_time": 110.0909091,
                "end_time": 110.175,
                "pitch": 69,
                "velocity": 32,
                "duration": 0.0840909,
                "tempo": 120.0
            },
            {
                "start_time": 110.1909091,
                "end_time": 110.275,
                "pitch": 59,
                "velocity": 32,
                "duration": 0.0840909,
                "tempo": 120.0
            },
            {
                "start_time": 110.2909091,
                "end_time": 110.375,
                "pitch": 69,
                "velocity": 32,
                "duration": 0.0840909,
                "tempo": 120.0
            },
            {
                "start_time": 110.3909091,
                "end_time": 110.475,
                "pitch": 59,
                "velocity": 32,
                "duration": 0.0840909,
                "tempo": 120.0
            },
            {
                "start_time": 110.4909091,
                "end_time": 110.575,
                "pitch": 69,
                "velocity": 32,
                "duration": 0.0840909,
                "tempo": 120.0
            },
            {
                "start_time": 110.5931818,
                "end_time": 110.6772727,
                "pitch": 59,
                "velocity": 32,
                "duration": 0.0840909,
                "tempo": 120.0
            },
            {
                "start_time": 110.6931818,
                "end_time": 110.7772727,
                "pitch": 59,
                "velocity": 32,
                "duration": 0.0840909,
                "tempo": 120.0
            },
            {
                "start_time": 110.7931818,
                "end_time": 110.8772727,
                "pitch": 57,
                "velocity": 32,
                "duration": 0.0840909,
                "tempo": 120.0
            },
            {
                "start_time": 110.8931818,
                "end_time": 110.9772727,
                "pitch": 69,
                "velocity": 32,
                "duration": 0.0840909,
                "tempo": 120.0
            },
            {
                "start_time": 110.9931818,
                "end_time": 111.0772727,
                "pitch": 59,
                "velocity": 32,
                "duration": 0.0840909,
                "tempo": 120.0
            },
            {
                "start_time": 111.0931818,
                "end_time": 111.1772727,
                "pitch": 69,
                "velocity": 32,
                "duration": 0.0840909,
                "tempo": 120.0
            },
            {
                "start_time": 111.1931818,
                "end_time": 111.2772727,
                "pitch": 57,
                "velocity": 32,
                "duration": 0.0840909,
                "tempo": 120.0
            },
            {
                "start_time": 111.2954545,
                "end_time": 111.3795455,
                "pitch": 68,
                "velocity": 32,
                "duration": 0.0840909,
                "tempo": 120.0
            },
            {
                "start_time": 111.3954545,
                "end_time": 111.4795455,
                "pitch": 56,
                "velocity": 32,
                "duration": 0.0840909,
                "tempo": 120.0
            },
            {
                "start_time": 111.4954545,
                "end_time": 111.5795455,
                "pitch": 69,
                "velocity": 32,
                "duration": 0.0840909,
                "tempo": 120.0
            },
            {
                "start_time": 111.5977273,
                "end_time": 111.6795455,
                "pitch": 55,
                "velocity": 32,
                "duration": 0.0818182,
                "tempo": 120.0
            },
            {
                "start_time": 111.6977273,
                "end_time": 111.7818182,
                "pitch": 69,
                "velocity": 32,
                "duration": 0.0840909,
                "tempo": 120.0
            },
            {
                "start_time": 111.7977273,
                "end_time": 111.8818182,
                "pitch": 55,
                "velocity": 32,
                "duration": 0.0840909,
                "tempo": 120.0
            },
            {
                "start_time": 111.8977273,
                "end_time": 111.9818182,
                "pitch": 71,
                "velocity": 32,
                "duration": 0.0840909,
                "tempo": 120.0
            },
            {
                "start_time": 111.9977273,
                "end_time": 112.0818182,
                "pitch": 55,
                "velocity": 32,
                "duration": 0.0840909,
                "tempo": 120.0
            },
            {
                "start_time": 112.0977273,
                "end_time": 112.1818182,
                "pitch": 72,
                "velocity": 32,
                "duration": 0.0840909,
                "tempo": 120.0
            },
            {
                "start_time": 112.1977273,
                "end_time": 112.2818182,
                "pitch": 55,
                "velocity": 32,
                "duration": 0.0840909,
                "tempo": 120.0
            },
            {
                "start_time": 112.2977273,
                "end_time": 112.3818182,
                "pitch": 74,
                "velocity": 32,
                "duration": 0.0840909,
                "tempo": 120.0
            },
            {
                "start_time": 112.4,
                "end_time": 112.4840909,
                "pitch": 52,
                "velocity": 32,
                "duration": 0.0840909,
                "tempo": 120.0
            },
            {
                "start_time": 112.5,
                "end_time": 112.5840909,
                "pitch": 69,
                "velocity": 32,
                "duration": 0.0840909,
                "tempo": 120.0
            },
            {
                "start_time": 112.6,
                "end_time": 112.6840909,
                "pitch": 52,
                "velocity": 32,
                "duration": 0.0840909,
                "tempo": 120.0
            },
            {
                "start_time": 112.7022727,
                "end_time": 112.7840909,
                "pitch": 72,
                "velocity": 32,
                "duration": 0.0818182,
                "tempo": 120.0
            },
            {
                "start_time": 112.8022727,
                "end_time": 112.8840909,
                "pitch": 57,
                "velocity": 32,
                "duration": 0.0818182,
                "tempo": 120.0
            },
            {
                "start_time": 112.9022727,
                "end_time": 112.9840909,
                "pitch": 71,
                "velocity": 32,
                "duration": 0.0818182,
                "tempo": 120.0
            },
            {
                "start_time": 113.0022727,
                "end_time": 113.0840909,
                "pitch": 57,
                "velocity": 32,
                "duration": 0.0818182,
                "tempo": 120.0
            },
            {
                "start_time": 113.1022727,
                "end_time": 113.1863636,
                "pitch": 72,
                "velocity": 32,
                "duration": 0.0840909,
                "tempo": 120.0
            },
            {
                "start_time": 113.2022727,
                "end_time": 113.2863636,
                "pitch": 59,
                "velocity": 32,
                "duration": 0.0840909,
                "tempo": 120.0
            },
            {
                "start_time": 113.3022727,
                "end_time": 113.3863636,
                "pitch": 69,
                "velocity": 32,
                "duration": 0.0840909,
                "tempo": 120.0
            },
            {
                "start_time": 113.4022727,
                "end_time": 113.4863636,
                "pitch": 59,
                "velocity": 32,
                "duration": 0.0840909,
                "tempo": 120.0
            },
            {
                "start_time": 113.5045455,
                "end_time": 113.5886364,
                "pitch": 74,
                "velocity": 32,
                "duration": 0.0840909,
                "tempo": 120.0
            },
            {
                "start_time": 113.6045455,
                "end_time": 113.6886364,
                "pitch": 57,
                "velocity": 32,
                "duration": 0.0840909,
                "tempo": 120.0
            },
            {
                "start_time": 113.7045455,
                "end_time": 113.7886364,
                "pitch": 76,
                "velocity": 32,
                "duration": 0.0840909,
                "tempo": 120.0
            },
            {
                "start_time": 113.8068182,
                "end_time": 113.8909091,
                "pitch": 59,
                "velocity": 32,
                "duration": 0.0840909,
                "tempo": 120.0
            },
            {
                "start_time": 113.9068182,
                "end_time": 113.9909091,
                "pitch": 77,
                "velocity": 32,
                "duration": 0.0840909,
                "tempo": 120.0
            },
            {
                "start_time": 114.0068182,
                "end_time": 114.0909091,
                "pitch": 60,
                "velocity": 32,
                "duration": 0.0840909,
                "tempo": 120.0
            },
            {
                "start_time": 114.1068182,
                "end_time": 114.1909091,
                "pitch": 69,
                "velocity": 32,
                "duration": 0.0840909,
                "tempo": 120.0
            },
            {
                "start_time": 114.2068182,
                "end_time": 114.2909091,
                "pitch": 60,
                "velocity": 32,
                "duration": 0.0840909,
                "tempo": 120.0
            },
            {
                "start_time": 114.3068182,
                "end_time": 114.3909091,
                "pitch": 76,
                "velocity": 32,
                "duration": 0.0840909,
                "tempo": 120.0
            },
            {
                "start_time": 114.4068182,
                "end_time": 114.4909091,
                "pitch": 59,
                "velocity": 32,
                "duration": 0.0840909,
                "tempo": 120.0
            },
            {
                "start_time": 114.5090909,
                "end_time": 114.5909091,
                "pitch": 69,
                "velocity": 32,
                "duration": 0.0818182,
                "tempo": 120.0
            },
            {
                "start_time": 114.6090909,
                "end_time": 114.6931818,
                "pitch": 60,
                "velocity": 32,
                "duration": 0.0840909,
                "tempo": 120.0
            },
            {
                "start_time": 114.7090909,
                "end_time": 114.7931818,
                "pitch": 69,
                "velocity": 32,
                "duration": 0.0840909,
                "tempo": 120.0
            },
            {
                "start_time": 114.8090909,
                "end_time": 114.8931818,
                "pitch": 62,
                "velocity": 32,
                "duration": 0.0840909,
                "tempo": 120.0
            },
            {
                "start_time": 114.9090909,
                "end_time": 114.9931818,
                "pitch": 57,
                "velocity": 32,
                "duration": 0.0840909,
                "tempo": 120.0
            },
            {
                "start_time": 115.0090909,
                "end_time": 115.0931818,
                "pitch": 69,
                "velocity": 32,
                "duration": 0.0840909,
                "tempo": 120.0
            },
            {
                "start_time": 115.1090909,
                "end_time": 115.1931818,
                "pitch": 57,
                "velocity": 32,
                "duration": 0.0840909,
                "tempo": 120.0
            },
            {
                "start_time": 115.2090909,
                "end_time": 115.2931818,
                "pitch": 62,
                "velocity": 32,
                "duration": 0.0840909,
                "tempo": 120.0
            },
            {
                "start_time": 115.3113636,
                "end_time": 115.3954545,
                "pitch": 69,
                "velocity": 32,
                "duration": 0.0840909,
                "tempo": 120.0
            },
            {
                "start_time": 115.4113636,
                "end_time": 115.4954545,
                "pitch": 62,
                "velocity": 32,
                "duration": 0.0840909,
                "tempo": 120.0
            },
            {
                "start_time": 115.5113636,
                "end_time": 115.5954545,
                "pitch": 69,
                "velocity": 32,
                "duration": 0.0840909,
                "tempo": 120.0
            },
            {
                "start_time": 115.6136364,
                "end_time": 115.6977273,
                "pitch": 60,
                "velocity": 32,
                "duration": 0.0840909,
                "tempo": 120.0
            },
            {
                "start_time": 115.7136364,
                "end_time": 115.7977273,
                "pitch": 69,
                "velocity": 32,
                "duration": 0.0840909,
                "tempo": 120.0
            },
            {
                "start_time": 115.8136364,
                "end_time": 115.8977273,
                "pitch": 60,
                "velocity": 32,
                "duration": 0.0840909,
                "tempo": 120.0
            },
            {
                "start_time": 115.9159091,
                "end_time": 115.9977273,
                "pitch": 69,
                "velocity": 32,
                "duration": 0.0818182,
                "tempo": 120.0
            },
            {
                "start_time": 116.0159091,
                "end_time": 116.0977273,
                "pitch": 60,
                "velocity": 32,
                "duration": 0.0818182,
                "tempo": 120.0
            },
            {
                "start_time": 116.1159091,
                "end_time": 116.1977273,
                "pitch": 69,
                "velocity": 32,
                "duration": 0.0818182,
                "tempo": 120.0
            },
            {
                "start_time": 116.2159091,
                "end_time": 116.2977273,
                "pitch": 60,
                "velocity": 32,
                "duration": 0.0818182,
                "tempo": 120.0
            },
            {
                "start_time": 116.3159091,
                "end_time": 116.3977273,
                "pitch": 68,
                "velocity": 32,
                "duration": 0.0818182,
                "tempo": 120.0
            },
            {
                "start_time": 116.4159091,
                "end_time": 116.5,
                "pitch": 59,
                "velocity": 32,
                "duration": 0.0840909,
                "tempo": 120.0
            },
            {
                "start_time": 116.5159091,
                "end_time": 116.6,
                "pitch": 69,
                "velocity": 32,
                "duration": 0.0840909,
                "tempo": 120.0
            },
            {
                "start_time": 116.6159091,
                "end_time": 116.7,
                "pitch": 59,
                "velocity": 32,
                "duration": 0.0840909,
                "tempo": 120.0
            },
            {
                "start_time": 116.7181818,
                "end_time": 116.8,
                "pitch": 69,
                "velocity": 32,
                "duration": 0.0818182,
                "tempo": 120.0
            },
            {
                "start_time": 116.8181818,
                "end_time": 116.9,
                "pitch": 59,
                "velocity": 32,
                "duration": 0.0818182,
                "tempo": 120.0
            },
            {
                "start_time": 116.9181818,
                "end_time": 117.0,
                "pitch": 69,
                "velocity": 32,
                "duration": 0.0818182,
                "tempo": 120.0
            },
            {
                "start_time": 117.0181818,
                "end_time": 117.1,
                "pitch": 59,
                "velocity": 32,
                "duration": 0.0818182,
                "tempo": 120.0
            },
            {
                "start_time": 117.1181818,
                "end_time": 117.2022727,
                "pitch": 59,
                "velocity": 32,
                "duration": 0.0840909,
                "tempo": 120.0
            },
            {
                "start_time": 117.2181818,
                "end_time": 117.3022727,
                "pitch": 57,
                "velocity": 32,
                "duration": 0.0840909,
                "tempo": 120.0
            },
            {
                "start_time": 117.3181818,
                "end_time": 117.4022727,
                "pitch": 69,
                "velocity": 32,
                "duration": 0.0840909,
                "tempo": 120.0
            },
            {
                "start_time": 117.4204545,
                "end_time": 117.5022727,
                "pitch": 59,
                "velocity": 32,
                "duration": 0.0818182,
                "tempo": 120.0
            },
            {
                "start_time": 117.5204545,
                "end_time": 117.6045455,
                "pitch": 69,
                "velocity": 32,
                "duration": 0.0840909,
                "tempo": 120.0
            },
            {
                "start_time": 117.6204545,
                "end_time": 117.7045455,
                "pitch": 57,
                "velocity": 32,
                "duration": 0.0840909,
                "tempo": 120.0
            },
            {
                "start_time": 117.7204545,
                "end_time": 117.8045455,
                "pitch": 68,
                "velocity": 32,
                "duration": 0.0840909,
                "tempo": 120.0
            },
            {
                "start_time": 117.8227273,
                "end_time": 117.9068182,
                "pitch": 56,
                "velocity": 32,
                "duration": 0.0840909,
                "tempo": 120.0
            },
            {
                "start_time": 117.9227273,
                "end_time": 118.0068182,
                "pitch": 69,
                "velocity": 32,
                "duration": 0.0840909,
                "tempo": 120.0
            },
            {
                "start_time": 118.0227273,
                "end_time": 118.1068182,
                "pitch": 55,
                "velocity": 32,
                "duration": 0.0840909,
                "tempo": 120.0
            },
            {
                "start_time": 118.1227273,
                "end_time": 118.2068182,
                "pitch": 69,
                "velocity": 32,
                "duration": 0.0840909,
                "tempo": 120.0
            },
            {
                "start_time": 118.2227273,
                "end_time": 118.3068182,
                "pitch": 55,
                "velocity": 32,
                "duration": 0.0840909,
                "tempo": 120.0
            },
            {
                "start_time": 118.3227273,
                "end_time": 118.4068182,
                "pitch": 71,
                "velocity": 32,
                "duration": 0.0840909,
                "tempo": 120.0
            },
            {
                "start_time": 118.4227273,
                "end_time": 118.5068182,
                "pitch": 55,
                "velocity": 32,
                "duration": 0.0840909,
                "tempo": 120.0
            },
            {
                "start_time": 118.525,
                "end_time": 118.6090909,
                "pitch": 72,
                "velocity": 32,
                "duration": 0.0840909,
                "tempo": 120.0
            },
            {
                "start_time": 118.625,
                "end_time": 118.7090909,
                "pitch": 55,
                "velocity": 32,
                "duration": 0.0840909,
                "tempo": 120.0
            },
            {
                "start_time": 118.725,
                "end_time": 118.8090909,
                "pitch": 74,
                "velocity": 32,
                "duration": 0.0840909,
                "tempo": 120.0
            },
            {
                "start_time": 118.825,
                "end_time": 118.9090909,
                "pitch": 52,
                "velocity": 32,
                "duration": 0.0840909,
                "tempo": 120.0
            },
            {
                "start_time": 118.925,
                "end_time": 119.0090909,
                "pitch": 72,
                "velocity": 32,
                "duration": 0.0840909,
                "tempo": 120.0
            },
            {
                "start_time": 119.025,
                "end_time": 119.1090909,
                "pitch": 52,
                "velocity": 32,
                "duration": 0.0840909,
                "tempo": 120.0
            },
            {
                "start_time": 119.125,
                "end_time": 119.2090909,
                "pitch": 71,
                "velocity": 32,
                "duration": 0.0840909,
                "tempo": 120.0
            },
            {
                "start_time": 119.2272727,
                "end_time": 119.3090909,
                "pitch": 57,
                "velocity": 32,
                "duration": 0.0818182,
                "tempo": 120.0
            },
            {
                "start_time": 119.3272727,
                "end_time": 119.4113636,
                "pitch": 69,
                "velocity": 32,
                "duration": 0.0840909,
                "tempo": 120.0
            },
            {
                "start_time": 119.4272727,
                "end_time": 119.5113636,
                "pitch": 57,
                "velocity": 32,
                "duration": 0.0840909,
                "tempo": 120.0
            },
            {
                "start_time": 119.5272727,
                "end_time": 119.6113636,
                "pitch": 72,
                "velocity": 32,
                "duration": 0.0840909,
                "tempo": 120.0
            },
            {
                "start_time": 119.6295455,
                "end_time": 119.7136364,
                "pitch": 50,
                "velocity": 32,
                "duration": 0.0840909,
                "tempo": 120.0
            },
            {
                "start_time": 119.7295455,
                "end_time": 119.8136364,
                "pitch": 71,
                "velocity": 32,
                "duration": 0.0840909,
                "tempo": 120.0
            },
            {
                "start_time": 119.8295455,
                "end_time": 119.9136364,
                "pitch": 50,
                "velocity": 32,
                "duration": 0.0840909,
                "tempo": 120.0
            },
            {
                "start_time": 119.9318182,
                "end_time": 120.0136364,
                "pitch": 69,
                "velocity": 32,
                "duration": 0.0818182,
                "tempo": 120.0
            },
            {
                "start_time": 120.0318182,
                "end_time": 120.1136364,
                "pitch": 59,
                "velocity": 32,
                "duration": 0.0818182,
                "tempo": 120.0
            },
            {
                "start_time": 120.1318182,
                "end_time": 120.2136364,
                "pitch": 68,
                "velocity": 32,
                "duration": 0.0818182,
                "tempo": 120.0
            },
            {
                "start_time": 120.2318182,
                "end_time": 120.3136364,
                "pitch": 59,
                "velocity": 32,
                "duration": 0.0818182,
                "tempo": 120.0
            },
            {
                "start_time": 120.3318182,
                "end_time": 120.4159091,
                "pitch": 69,
                "velocity": 32,
                "duration": 0.0840909,
                "tempo": 120.0
            },
            {
                "start_time": 120.4318182,
                "end_time": 120.5159091,
                "pitch": 57,
                "velocity": 32,
                "duration": 0.0840909,
                "tempo": 120.0
            },
            {
                "start_time": 120.5318182,
                "end_time": 120.6159091,
                "pitch": 71,
                "velocity": 32,
                "duration": 0.0840909,
                "tempo": 120.0
            },
            {
                "start_time": 120.6318182,
                "end_time": 120.7159091,
                "pitch": 57,
                "velocity": 32,
                "duration": 0.0840909,
                "tempo": 120.0
            },
            {
                "start_time": 120.7340909,
                "end_time": 120.8159091,
                "pitch": 72,
                "velocity": 32,
                "duration": 0.0818182,
                "tempo": 120.0
            },
            {
                "start_time": 120.8340909,
                "end_time": 120.9159091,
                "pitch": 57,
                "velocity": 32,
                "duration": 0.0818182,
                "tempo": 120.0
            },
            {
                "start_time": 120.9340909,
                "end_time": 121.0159091,
                "pitch": 72,
                "velocity": 32,
                "duration": 0.0818182,
                "tempo": 120.0
            },
            {
                "start_time": 121.0340909,
                "end_time": 121.1159091,
                "pitch": 57,
                "velocity": 32,
                "duration": 0.0818182,
                "tempo": 120.0
            },
            {
                "start_time": 121.1340909,
                "end_time": 121.2181818,
                "pitch": 71,
                "velocity": 32,
                "duration": 0.0840909,
                "tempo": 120.0
            },
            {
                "start_time": 121.2340909,
                "end_time": 121.3181818,
                "pitch": 57,
                "velocity": 32,
                "duration": 0.0840909,
                "tempo": 120.0
            },
            {
                "start_time": 121.3340909,
                "end_time": 121.4181818,
                "pitch": 72,
                "velocity": 32,
                "duration": 0.0840909,
                "tempo": 120.0
            },
            {
                "start_time": 121.4363636,
                "end_time": 121.5204545,
                "pitch": 57,
                "velocity": 32,
                "duration": 0.0840909,
                "tempo": 120.0
            },
            {
                "start_time": 121.5363636,
                "end_time": 121.6204545,
                "pitch": 74,
                "velocity": 32,
                "duration": 0.0840909,
                "tempo": 120.0
            },
            {
                "start_time": 121.6363636,
                "end_time": 121.7204545,
                "pitch": 57,
                "velocity": 32,
                "duration": 0.0840909,
                "tempo": 120.0
            },
            {
                "start_time": 121.7386364,
                "end_time": 121.8204545,
                "pitch": 74,
                "velocity": 32,
                "duration": 0.0818182,
                "tempo": 120.0
            },
            {
                "start_time": 121.8386364,
                "end_time": 121.9227273,
                "pitch": 57,
                "velocity": 32,
                "duration": 0.0840909,
                "tempo": 120.0
            }
        ],
        "Vibraphone": [
            {
                "start_time": 32.875,
                "end_time": 33.5090909,
                "pitch": 71,
                "velocity": 51,
                "duration": 0.6340909,
                "tempo": 120.0
            },
            {
                "start_time": 33.675,
                "end_time": 34.3090909,
                "pitch": 72,
                "velocity": 51,
                "duration": 0.6340909,
                "tempo": 120.0
            },
            {
                "start_time": 34.475,
                "end_time": 35.1113636,
                "pitch": 71,
                "velocity": 51,
                "duration": 0.6363636,
                "tempo": 120.0
            },
            {
                "start_time": 35.2772727,
                "end_time": 35.9113636,
                "pitch": 75,
                "velocity": 51,
                "duration": 0.6340909,
                "tempo": 120.0
            },
            {
                "start_time": 36.0772727,
                "end_time": 36.3954545,
                "pitch": 77,
                "velocity": 51,
                "duration": 0.3181818,
                "tempo": 120.0
            },
            {
                "start_time": 36.4772727,
                "end_time": 36.7977273,
                "pitch": 74,
                "velocity": 51,
                "duration": 0.3204545,
                "tempo": 120.0
            },
            {
                "start_time": 36.8818182,
                "end_time": 37.5136364,
                "pitch": 75,
                "velocity": 51,
                "duration": 0.6318182,
                "tempo": 120.0
            },
            {
                "start_time": 37.6818182,
                "end_time": 38.3136364,
                "pitch": 74,
                "velocity": 51,
                "duration": 0.6318182,
                "tempo": 120.0
            },
            {
                "start_time": 38.4818182,
                "end_time": 39.1159091,
                "pitch": 72,
                "velocity": 51,
                "duration": 0.6340909,
                "tempo": 120.0
            },
            {
                "start_time": 39.2840909,
                "end_time": 39.9159091,
                "pitch": 71,
                "velocity": 51,
                "duration": 0.6318182,
                "tempo": 120.0
            },
            {
                "start_time": 40.0840909,
                "end_time": 40.7181818,
                "pitch": 72,
                "velocity": 51,
                "duration": 0.6340909,
                "tempo": 120.0
            },
            {
                "start_time": 40.8863636,
                "end_time": 41.5204545,
                "pitch": 74,
                "velocity": 51,
                "duration": 0.6340909,
                "tempo": 120.0
            },
            {
                "start_time": 41.6863636,
                "end_time": 42.3204545,
                "pitch": 79,
                "velocity": 51,
                "duration": 0.6340909,
                "tempo": 120.0
            },
            {
                "start_time": 42.4863636,
                "end_time": 43.1227273,
                "pitch": 77,
                "velocity": 51,
                "duration": 0.6363636,
                "tempo": 120.0
            },
            {
                "start_time": 43.2886364,
                "end_time": 43.9227273,
                "pitch": 75,
                "velocity": 51,
                "duration": 0.6340909,
                "tempo": 120.0
            },
            {
                "start_time": 44.0886364,
                "end_time": 44.2886364,
                "pitch": 74,
                "velocity": 51,
                "duration": 0.2,
                "tempo": 120.0
            },
            {
                "start_time": 44.3545455,
                "end_time": 44.5568182,
                "pitch": 77,
                "velocity": 51,
                "duration": 0.2022727,
                "tempo": 120.0
            },
            {
                "start_time": 44.6227273,
                "end_time": 44.825,
                "pitch": 83,
                "velocity": 51,
                "duration": 0.2022727,
                "tempo": 120.0
            },
            {
                "start_time": 44.8909091,
                "end_time": 45.525,
                "pitch": 72,
                "velocity": 51,
                "duration": 0.6340909,
                "tempo": 120.0
            },
            {
                "start_time": 45.6909091,
                "end_time": 46.325,
                "pitch": 71,
                "velocity": 51,
                "duration": 0.6340909,
                "tempo": 120.0
            },
            {
                "start_time": 46.4909091,
                "end_time": 46.6431818,
                "pitch": 76,
                "velocity": 51,
                "duration": 0.1522727,
                "tempo": 120.0
            },
            {
                "start_time": 46.8954545,
                "end_time": 47.0454545,
                "pitch": 74,
                "velocity": 51,
                "duration": 0.15,
                "tempo": 120.0
            },
            {
                "start_time": 47.0954545,
                "end_time": 47.2454545,
                "pitch": 72,
                "velocity": 51,
                "duration": 0.15,
                "tempo": 120.0
            },
            {
                "start_time": 47.2954545,
                "end_time": 47.3954545,
                "pitch": 71,
                "velocity": 51,
                "duration": 0.1,
                "tempo": 120.0
            },
            {
                "start_time": 47.4272727,
                "end_time": 47.5272727,
                "pitch": 69,
                "velocity": 51,
                "duration": 0.1,
                "tempo": 120.0
            },
            {
                "start_time": 47.5613636,
                "end_time": 47.6613636,
                "pitch": 68,
                "velocity": 51,
                "duration": 0.1,
                "tempo": 120.0
            },
            {
                "start_time": 47.6954545,
                "end_time": 47.7954545,
                "pitch": 65,
                "velocity": 51,
                "duration": 0.1,
                "tempo": 120.0
            },
            {
                "start_time": 47.8272727,
                "end_time": 47.9272727,
                "pitch": 64,
                "velocity": 51,
                "duration": 0.1,
                "tempo": 120.0
            },
            {
                "start_time": 47.9613636,
                "end_time": 48.0613636,
                "pitch": 62,
                "velocity": 51,
                "duration": 0.1,
                "tempo": 120.0
            },
            {
                "start_time": 48.0954545,
                "end_time": 48.1954545,
                "pitch": 64,
                "velocity": 51,
                "duration": 0.1,
                "tempo": 120.0
            },
            {
                "start_time": 48.2272727,
                "end_time": 48.3272727,
                "pitch": 72,
                "velocity": 51,
                "duration": 0.1,
                "tempo": 120.0
            },
            {
                "start_time": 48.3613636,
                "end_time": 48.4613636,
                "pitch": 64,
                "velocity": 51,
                "duration": 0.1,
                "tempo": 120.0
            },
            {
                "start_time": 48.4954545,
                "end_time": 48.5954545,
                "pitch": 72,
                "velocity": 51,
                "duration": 0.1,
                "tempo": 120.0
            },
            {
                "start_time": 48.6295455,
                "end_time": 48.7295455,
                "pitch": 64,
                "velocity": 51,
                "duration": 0.1,
                "tempo": 120.0
            },
            {
                "start_time": 48.7636364,
                "end_time": 48.8636364,
                "pitch": 72,
                "velocity": 51,
                "duration": 0.1,
                "tempo": 120.0
            },
            {
                "start_time": 48.8977273,
                "end_time": 48.9977273,
                "pitch": 65,
                "velocity": 51,
                "duration": 0.1,
                "tempo": 120.0
            },
            {
                "start_time": 49.0295455,
                "end_time": 49.1295455,
                "pitch": 74,
                "velocity": 51,
                "duration": 0.1,
                "tempo": 120.0
            },
            {
                "start_time": 49.1636364,
                "end_time": 49.2636364,
                "pitch": 65,
                "velocity": 51,
                "duration": 0.1,
                "tempo": 120.0
            },
            {
                "start_time": 49.2977273,
                "end_time": 49.3977273,
                "pitch": 74,
                "velocity": 51,
                "duration": 0.1,
                "tempo": 120.0
            },
            {
                "start_time": 49.4295455,
                "end_time": 49.5295455,
                "pitch": 65,
                "velocity": 51,
                "duration": 0.1,
                "tempo": 120.0
            },
            {
                "start_time": 49.5636364,
                "end_time": 49.6636364,
                "pitch": 74,
                "velocity": 51,
                "duration": 0.1,
                "tempo": 120.0
            },
            {
                "start_time": 49.6977273,
                "end_time": 49.7477273,
                "pitch": 76,
                "velocity": 51,
                "duration": 0.05,
                "tempo": 120.0
            },
            {
                "start_time": 49.7636364,
                "end_time": 49.8136364,
                "pitch": 69,
                "velocity": 51,
                "duration": 0.05,
                "tempo": 120.0
            },
            {
                "start_time": 49.8295455,
                "end_time": 49.8795455,
                "pitch": 74,
                "velocity": 51,
                "duration": 0.05,
                "tempo": 120.0
            },
            {
                "start_time": 49.8977273,
                "end_time": 49.9477273,
                "pitch": 67,
                "velocity": 51,
                "duration": 0.05,
                "tempo": 120.0
            },
            {
                "start_time": 49.9636364,
                "end_time": 50.0136364,
                "pitch": 72,
                "velocity": 51,
                "duration": 0.05,
                "tempo": 120.0
            },
            {
                "start_time": 50.0295455,
                "end_time": 50.0795455,
                "pitch": 64,
                "velocity": 51,
                "duration": 0.05,
                "tempo": 120.0
            },
            {
                "start_time": 50.0977273,
                "end_time": 50.1977273,
                "pitch": 48,
                "velocity": 51,
                "duration": 0.1,
                "tempo": 120.0
            },
            {
                "start_time": 50.2295455,
                "end_time": 50.3295455,
                "pitch": 50,
                "velocity": 51,
                "duration": 0.1,
                "tempo": 120.0
            },
            {
                "start_time": 50.3636364,
                "end_time": 50.4636364,
                "pitch": 52,
                "velocity": 51,
                "duration": 0.1,
                "tempo": 120.0
            },
            {
                "start_time": 50.4977273,
                "end_time": 50.5818182,
                "pitch": 62,
                "velocity": 51,
                "duration": 0.0840909,
                "tempo": 120.0
            },
            {
                "start_time": 50.5977273,
                "end_time": 50.6818182,
                "pitch": 60,
                "velocity": 51,
                "duration": 0.0840909,
                "tempo": 120.0
            },
            {
                "start_time": 50.6977273,
                "end_time": 50.7818182,
                "pitch": 59,
                "velocity": 51,
                "duration": 0.0840909,
                "tempo": 120.0
            },
            {
                "start_time": 50.8,
                "end_time": 50.8818182,
                "pitch": 57,
                "velocity": 51,
                "duration": 0.0818182,
                "tempo": 120.0
            },
            {
                "start_time": 50.9,
                "end_time": 50.9840909,
                "pitch": 50,
                "velocity": 51,
                "duration": 0.0840909,
                "tempo": 120.0
            },
            {
                "start_time": 51.0,
                "end_time": 51.0840909,
                "pitch": 52,
                "velocity": 51,
                "duration": 0.0840909,
                "tempo": 120.0
            },
            {
                "start_time": 51.1,
                "end_time": 51.1840909,
                "pitch": 53,
                "velocity": 51,
                "duration": 0.0840909,
                "tempo": 120.0
            },
            {
                "start_time": 51.2,
                "end_time": 51.2840909,
                "pitch": 56,
                "velocity": 51,
                "duration": 0.0840909,
                "tempo": 120.0
            },
            {
                "start_time": 51.3,
                "end_time": 51.3840909,
                "pitch": 69,
                "velocity": 51,
                "duration": 0.0840909,
                "tempo": 120.0
            },
            {
                "start_time": 51.4,
                "end_time": 51.4840909,
                "pitch": 71,
                "velocity": 51,
                "duration": 0.0840909,
                "tempo": 120.0
            },
            {
                "start_time": 51.5,
                "end_time": 51.5840909,
                "pitch": 72,
                "velocity": 51,
                "duration": 0.0840909,
                "tempo": 120.0
            },
            {
                "start_time": 51.6,
                "end_time": 51.6840909,
                "pitch": 74,
                "velocity": 51,
                "duration": 0.0840909,
                "tempo": 120.0
            },
            {
                "start_time": 51.7,
                "end_time": 51.7840909,
                "pitch": 76,
                "velocity": 51,
                "duration": 0.0840909,
                "tempo": 120.0
            },
            {
                "start_time": 51.8,
                "end_time": 51.8840909,
                "pitch": 77,
                "velocity": 51,
                "duration": 0.0840909,
                "tempo": 120.0
            },
            {
                "start_time": 51.9,
                "end_time": 51.9840909,
                "pitch": 80,
                "velocity": 51,
                "duration": 0.0840909,
                "tempo": 120.0
            },
            {
                "start_time": 52.0,
                "end_time": 52.0840909,
                "pitch": 81,
                "velocity": 51,
                "duration": 0.0840909,
                "tempo": 120.0
            },
            {
                "start_time": 52.1,
                "end_time": 52.1840909,
                "pitch": 83,
                "velocity": 51,
                "duration": 0.0840909,
                "tempo": 120.0
            },
            {
                "start_time": 52.2,
                "end_time": 52.2840909,
                "pitch": 81,
                "velocity": 51,
                "duration": 0.0840909,
                "tempo": 120.0
            },
            {
                "start_time": 52.3,
                "end_time": 52.3840909,
                "pitch": 80,
                "velocity": 51,
                "duration": 0.0840909,
                "tempo": 120.0
            },
            {
                "start_time": 52.4,
                "end_time": 52.55,
                "pitch": 77,
                "velocity": 51,
                "duration": 0.15,
                "tempo": 120.0
            },
            {
                "start_time": 52.6,
                "end_time": 52.6840909,
                "pitch": 80,
                "velocity": 51,
                "duration": 0.0840909,
                "tempo": 120.0
            },
            {
                "start_time": 52.7,
                "end_time": 52.7840909,
                "pitch": 77,
                "velocity": 51,
                "duration": 0.0840909,
                "tempo": 120.0
            },
            {
                "start_time": 52.8022727,
                "end_time": 52.8863636,
                "pitch": 76,
                "velocity": 51,
                "duration": 0.0840909,
                "tempo": 120.0
            },
            {
                "start_time": 52.9022727,
                "end_time": 53.0022727,
                "pitch": 81,
                "velocity": 51,
                "duration": 0.1,
                "tempo": 120.0
            },
            {
                "start_time": 53.0363636,
                "end_time": 53.1363636,
                "pitch": 72,
                "velocity": 51,
                "duration": 0.1,
                "tempo": 120.0
            },
            {
                "start_time": 53.1681818,
                "end_time": 53.2681818,
                "pitch": 81,
                "velocity": 51,
                "duration": 0.1,
                "tempo": 120.0
            },
            {
                "start_time": 53.3022727,
                "end_time": 53.4022727,
                "pitch": 72,
                "velocity": 51,
                "duration": 0.1,
                "tempo": 120.0
            },
            {
                "start_time": 53.4363636,
                "end_time": 53.5363636,
                "pitch": 81,
                "velocity": 51,
                "duration": 0.1,
                "tempo": 120.0
            },
            {
                "start_time": 53.5681818,
                "end_time": 53.6681818,
                "pitch": 72,
                "velocity": 51,
                "duration": 0.1,
                "tempo": 120.0
            },
            {
                "start_time": 53.7022727,
                "end_time": 53.8522727,
                "pitch": 81,
                "velocity": 51,
                "duration": 0.15,
                "tempo": 120.0
            },
            {
                "start_time": 53.9022727,
                "end_time": 54.0522727,
                "pitch": 74,
                "velocity": 51,
                "duration": 0.15,
                "tempo": 120.0
            },
            {
                "start_time": 54.1022727,
                "end_time": 54.2522727,
                "pitch": 81,
                "velocity": 51,
                "duration": 0.15,
                "tempo": 120.0
            },
            {
                "start_time": 54.3022727,
                "end_time": 54.4522727,
                "pitch": 74,
                "velocity": 51,
                "duration": 0.15,
                "tempo": 120.0
            },
            {
                "start_time": 54.5022727,
                "end_time": 54.6022727,
                "pitch": 81,
                "velocity": 51,
                "duration": 0.1,
                "tempo": 120.0
            },
            {
                "start_time": 54.6363636,
                "end_time": 54.7363636,
                "pitch": 76,
                "velocity": 51,
                "duration": 0.1,
                "tempo": 120.0
            },
            {
                "start_time": 54.7704545,
                "end_time": 54.8704545,
                "pitch": 81,
                "velocity": 51,
                "duration": 0.1,
                "tempo": 120.0
            },
            {
                "start_time": 54.9045455,
                "end_time": 55.0045455,
                "pitch": 76,
                "velocity": 51,
                "duration": 0.1,
                "tempo": 120.0
            },
            {
                "start_time": 55.0386364,
                "end_time": 55.1386364,
                "pitch": 81,
                "velocity": 51,
                "duration": 0.1,
                "tempo": 120.0
            },
            {
                "start_time": 55.1727273,
                "end_time": 55.2727273,
                "pitch": 76,
                "velocity": 51,
                "duration": 0.1,
                "tempo": 120.0
            },
            {
                "start_time": 55.3045455,
                "end_time": 55.3886364,
                "pitch": 83,
                "velocity": 51,
                "duration": 0.0840909,
                "tempo": 120.0
            },
            {
                "start_time": 55.4045455,
                "end_time": 55.4886364,
                "pitch": 80,
                "velocity": 51,
                "duration": 0.0840909,
                "tempo": 120.0
            },
            {
                "start_time": 55.5045455,
                "end_time": 55.5886364,
                "pitch": 77,
                "velocity": 51,
                "duration": 0.0840909,
                "tempo": 120.0
            },
            {
                "start_time": 55.6045455,
                "end_time": 55.6886364,
                "pitch": 74,
                "velocity": 51,
                "duration": 0.0840909,
                "tempo": 120.0
            },
            {
                "start_time": 55.7045455,
                "end_time": 55.7886364,
                "pitch": 80,
                "velocity": 51,
                "duration": 0.0840909,
                "tempo": 120.0
            },
            {
                "start_time": 55.8045455,
                "end_time": 55.8886364,
                "pitch": 77,
                "velocity": 51,
                "duration": 0.0840909,
                "tempo": 120.0
            },
            {
                "start_time": 55.9045455,
                "end_time": 55.9886364,
                "pitch": 74,
                "velocity": 51,
                "duration": 0.0840909,
                "tempo": 120.0
            },
            {
                "start_time": 56.0045455,
                "end_time": 56.0886364,
                "pitch": 71,
                "velocity": 51,
                "duration": 0.0840909,
                "tempo": 120.0
            },
            {
                "start_time": 56.1045455,
                "end_time": 56.2545455,
                "pitch": 69,
                "velocity": 51,
                "duration": 0.15,
                "tempo": 120.0
            },
            {
                "start_time": 56.5045455,
                "end_time": 56.6568182,
                "pitch": 72,
                "velocity": 51,
                "duration": 0.1522727,
                "tempo": 120.0
            },
            {
                "start_time": 56.9068182,
                "end_time": 57.0568182,
                "pitch": 71,
                "velocity": 51,
                "duration": 0.15,
                "tempo": 120.0
            },
            {
                "start_time": 57.7068182,
                "end_time": 58.3409091,
                "pitch": 57,
                "velocity": 51,
                "duration": 0.6340909,
                "tempo": 120.0
            },
            {
                "start_time": 58.5068182,
                "end_time": 59.1431818,
                "pitch": 55,
                "velocity": 51,
                "duration": 0.6363636,
                "tempo": 120.0
            },
            {
                "start_time": 59.3113636,
                "end_time": 59.9431818,
                "pitch": 54,
                "velocity": 51,
                "duration": 0.6318182,
                "tempo": 120.0
            },
            {
                "start_time": 60.1113636,
                "end_time": 60.7454545,
                "pitch": 52,
                "velocity": 51,
                "duration": 0.6340909,
                "tempo": 120.0
            },
            {
                "start_time": 60.9136364,
                "end_time": 61.5454545,
                "pitch": 52,
                "velocity": 51,
                "duration": 0.6318182,
                "tempo": 120.0
            },
            {
                "start_time": 61.7136364,
                "end_time": 62.3454545,
                "pitch": 50,
                "velocity": 51,
                "duration": 0.6318182,
                "tempo": 120.0
            },
            {
                "start_time": 62.5136364,
                "end_time": 63.15,
                "pitch": 48,
                "velocity": 51,
                "duration": 0.6363636,
                "tempo": 120.0
            },
            {
                "start_time": 63.3159091,
                "end_time": 63.95,
                "pitch": 47,
                "velocity": 51,
                "duration": 0.6340909,
                "tempo": 120.0
            },
            {
                "start_time": 64.1159091,
                "end_time": 64.75,
                "pitch": 57,
                "velocity": 51,
                "duration": 0.6340909,
                "tempo": 120.0
            },
            {
                "start_time": 64.9159091,
                "end_time": 65.5522727,
                "pitch": 55,
                "velocity": 51,
                "duration": 0.6363636,
                "tempo": 120.0
            },
            {
                "start_time": 65.7204545,
                "end_time": 66.3568182,
                "pitch": 54,
                "velocity": 51,
                "duration": 0.6363636,
                "tempo": 120.0
            },
            {
                "start_time": 66.5227273,
                "end_time": 67.1590909,
                "pitch": 56,
                "velocity": 51,
                "duration": 0.6363636,
                "tempo": 120.0
            },
            {
                "start_time": 67.3272727,
                "end_time": 67.9636364,
                "pitch": 57,
                "velocity": 51,
                "duration": 0.6363636,
                "tempo": 120.0
            },
            {
                "start_time": 68.1295455,
                "end_time": 68.7659091,
                "pitch": 59,
                "velocity": 51,
                "duration": 0.6363636,
                "tempo": 120.0
            },
            {
                "start_time": 68.9318182,
                "end_time": 69.5704545,
                "pitch": 60,
                "velocity": 51,
                "duration": 0.6386364,
                "tempo": 120.0
            },
            {
                "start_time": 69.7363636,
                "end_time": 70.3727273,
                "pitch": 62,
                "velocity": 51,
                "duration": 0.6363636,
                "tempo": 120.0
            },
            {
                "start_time": 70.95,
                "end_time": 71.0340909,
                "pitch": 67,
                "velocity": 51,
                "duration": 0.0840909,
                "tempo": 120.0
            },
            {
                "start_time": 71.0522727,
                "end_time": 71.1363636,
                "pitch": 60,
                "velocity": 51,
                "duration": 0.0840909,
                "tempo": 120.0
            },
            {
                "start_time": 71.1522727,
                "end_time": 71.2363636,
                "pitch": 63,
                "velocity": 51,
                "duration": 0.0840909,
                "tempo": 120.0
            },
            {
                "start_time": 71.2522727,
                "end_time": 71.3363636,
                "pitch": 60,
                "velocity": 51,
                "duration": 0.0840909,
                "tempo": 120.0
            },
            {
                "start_time": 71.3545455,
                "end_time": 71.5045455,
                "pitch": 59,
                "velocity": 51,
                "duration": 0.15,
                "tempo": 120.0
            },
            {
                "start_time": 71.7545455,
                "end_time": 71.8363636,
                "pitch": 68,
                "velocity": 51,
                "duration": 0.0818182,
                "tempo": 120.0
            },
            {
                "start_time": 71.8522727,
                "end_time": 71.9340909,
                "pitch": 60,
                "velocity": 51,
                "duration": 0.0818182,
                "tempo": 120.0
            },
            {
                "start_time": 71.95,
                "end_time": 72.0318182,
                "pitch": 62,
                "velocity": 51,
                "duration": 0.0818182,
                "tempo": 120.0
            },
            {
                "start_time": 72.0477273,
                "end_time": 72.1295455,
                "pitch": 60,
                "velocity": 51,
                "duration": 0.0818182,
                "tempo": 120.0
            },
            {
                "start_time": 72.1454545,
                "end_time": 72.3,
                "pitch": 62,
                "velocity": 51,
                "duration": 0.1545455,
                "tempo": 120.0
            },
            {
                "start_time": 72.5568182,
                "end_time": 72.6386364,
                "pitch": 60,
                "velocity": 51,
                "duration": 0.0818182,
                "tempo": 120.0
            },
            {
                "start_time": 72.6545455,
                "end_time": 72.7363636,
                "pitch": 60,
                "velocity": 51,
                "duration": 0.0818182,
                "tempo": 120.0
            },
            {
                "start_time": 72.7522727,
                "end_time": 72.8340909,
                "pitch": 63,
                "velocity": 51,
                "duration": 0.0818182,
                "tempo": 120.0
            },
            {
                "start_time": 72.85,
                "end_time": 72.9318182,
                "pitch": 59,
                "velocity": 51,
                "duration": 0.0818182,
                "tempo": 120.0
            },
            {
                "start_time": 72.9477273,
                "end_time": 73.1022727,
                "pitch": 60,
                "velocity": 51,
                "duration": 0.1545455,
                "tempo": 120.0
            },
            {
                "start_time": 74.1522727,
                "end_time": 74.2340909,
                "pitch": 60,
                "velocity": 51,
                "duration": 0.0818182,
                "tempo": 120.0
            },
            {
                "start_time": 74.2522727,
                "end_time": 74.3363636,
                "pitch": 60,
                "velocity": 51,
                "duration": 0.0840909,
                "tempo": 120.0
            },
            {
                "start_time": 74.3522727,
                "end_time": 74.4363636,
                "pitch": 63,
                "velocity": 51,
                "duration": 0.0840909,
                "tempo": 120.0
            },
            {
                "start_time": 74.4522727,
                "end_time": 74.5363636,
                "pitch": 60,
                "velocity": 51,
                "duration": 0.0840909,
                "tempo": 120.0
            },
            {
                "start_time": 74.5545455,
                "end_time": 74.7068182,
                "pitch": 59,
                "velocity": 51,
                "duration": 0.1522727,
                "tempo": 120.0
            },
            {
                "start_time": 74.9636364,
                "end_time": 75.0454545,
                "pitch": 68,
                "velocity": 51,
                "duration": 0.0818182,
                "tempo": 120.0
            },
            {
                "start_time": 75.0636364,
                "end_time": 75.1431818,
                "pitch": 60,
                "velocity": 51,
                "duration": 0.0795455,
                "tempo": 120.0
            },
            {
                "start_time": 75.1613636,
                "end_time": 75.2431818,
                "pitch": 65,
                "velocity": 51,
                "duration": 0.0818182,
                "tempo": 120.0
            },
            {
                "start_time": 75.2590909,
                "end_time": 75.3409091,
                "pitch": 60,
                "velocity": 51,
                "duration": 0.0818182,
                "tempo": 120.0
            },
            {
                "start_time": 75.3568182,
                "end_time": 75.4409091,
                "pitch": 60,
                "velocity": 51,
                "duration": 0.0840909,
                "tempo": 120.0
            },
            {
                "start_time": 75.4590909,
                "end_time": 75.5454545,
                "pitch": 55,
                "velocity": 51,
                "duration": 0.0863636,
                "tempo": 120.0
            },
            {
                "start_time": 75.7681818,
                "end_time": 75.8522727,
                "pitch": 67,
                "velocity": 51,
                "duration": 0.0840909,
                "tempo": 120.0
            },
            {
                "start_time": 75.8681818,
                "end_time": 75.9522727,
                "pitch": 63,
                "velocity": 51,
                "duration": 0.0840909,
                "tempo": 120.0
            },
            {
                "start_time": 76.1704545,
                "end_time": 76.2522727,
                "pitch": 59,
                "velocity": 51,
                "duration": 0.0818182,
                "tempo": 120.0
            },
            {
                "start_time": 76.2681818,
                "end_time": 76.35,
                "pitch": 50,
                "velocity": 51,
                "duration": 0.0818182,
                "tempo": 120.0
            },
            {
                "start_time": 76.5613636,
                "end_time": 76.6454545,
                "pitch": 65,
                "velocity": 51,
                "duration": 0.0840909,
                "tempo": 120.0
            },
            {
                "start_time": 76.6613636,
                "end_time": 76.7454545,
                "pitch": 67,
                "velocity": 51,
                "duration": 0.0840909,
                "tempo": 120.0
            },
            {
                "start_time": 77.3727273,
                "end_time": 77.4545455,
                "pitch": 67,
                "velocity": 51,
                "duration": 0.0818182,
                "tempo": 120.0
            },
            {
                "start_time": 77.4704545,
                "end_time": 77.5522727,
                "pitch": 60,
                "velocity": 51,
                "duration": 0.0818182,
                "tempo": 120.0
            },
            {
                "start_time": 77.5681818,
                "end_time": 77.65,
                "pitch": 63,
                "velocity": 51,
                "duration": 0.0818182,
                "tempo": 120.0
            },
            {
                "start_time": 77.6659091,
                "end_time": 77.7477273,
                "pitch": 60,
                "velocity": 51,
                "duration": 0.0818182,
                "tempo": 120.0
            },
            {
                "start_time": 77.7659091,
                "end_time": 77.9181818,
                "pitch": 59,
                "velocity": 51,
                "duration": 0.1522727,
                "tempo": 120.0
            },
            {
                "start_time": 78.175,
                "end_time": 78.2568182,
                "pitch": 68,
                "velocity": 51,
                "duration": 0.0818182,
                "tempo": 120.0
            },
            {
                "start_time": 78.2727273,
                "end_time": 78.3545455,
                "pitch": 60,
                "velocity": 51,
                "duration": 0.0818182,
                "tempo": 120.0
            },
            {
                "start_time": 78.3727273,
                "end_time": 78.4522727,
                "pitch": 62,
                "velocity": 51,
                "duration": 0.0795455,
                "tempo": 120.0
            },
            {
                "start_time": 78.4704545,
                "end_time": 78.5522727,
                "pitch": 60,
                "velocity": 51,
                "duration": 0.0818182,
                "tempo": 120.0
            },
            {
                "start_time": 78.5681818,
                "end_time": 78.7204545,
                "pitch": 62,
                "velocity": 51,
                "duration": 0.1522727,
                "tempo": 120.0
            },
            {
                "start_time": 78.9772727,
                "end_time": 79.0590909,
                "pitch": 60,
                "velocity": 51,
                "duration": 0.0818182,
                "tempo": 120.0
            },
            {
                "start_time": 79.0772727,
                "end_time": 79.1568182,
                "pitch": 60,
                "velocity": 51,
                "duration": 0.0795455,
                "tempo": 120.0
            },
            {
                "start_time": 79.175,
                "end_time": 79.2568182,
                "pitch": 63,
                "velocity": 51,
                "duration": 0.0818182,
                "tempo": 120.0
            },
            {
                "start_time": 79.2727273,
                "end_time": 79.3545455,
                "pitch": 59,
                "velocity": 51,
                "duration": 0.0818182,
                "tempo": 120.0
            },
            {
                "start_time": 79.3704545,
                "end_time": 79.525,
                "pitch": 60,
                "velocity": 51,
                "duration": 0.1545455,
                "tempo": 120.0
            },
            {
                "start_time": 80.575,
                "end_time": 80.6590909,
                "pitch": 60,
                "velocity": 51,
                "duration": 0.0840909,
                "tempo": 120.0
            },
            {
                "start_time": 80.675,
                "end_time": 80.7590909,
                "pitch": 60,
                "velocity": 51,
                "duration": 0.0840909,
                "tempo": 120.0
            },
            {
                "start_time": 80.775,
                "end_time": 80.8590909,
                "pitch": 63,
                "velocity": 51,
                "duration": 0.0840909,
                "tempo": 120.0
            },
            {
                "start_time": 80.875,
                "end_time": 80.9590909,
                "pitch": 60,
                "velocity": 51,
                "duration": 0.0840909,
                "tempo": 120.0
            },
            {
                "start_time": 80.975,
                "end_time": 81.1272727,
                "pitch": 59,
                "velocity": 51,
                "duration": 0.1522727,
                "tempo": 120.0
            },
            {
                "start_time": 81.3795455,
                "end_time": 81.4613636,
                "pitch": 68,
                "velocity": 51,
                "duration": 0.0818182,
                "tempo": 120.0
            },
            {
                "start_time": 81.4795455,
                "end_time": 81.5636364,
                "pitch": 60,
                "velocity": 51,
                "duration": 0.0840909,
                "tempo": 120.0
            },
            {
                "start_time": 81.5795455,
                "end_time": 81.6636364,
                "pitch": 65,
                "velocity": 51,
                "duration": 0.0840909,
                "tempo": 120.0
            },
            {
                "start_time": 81.6795455,
                "end_time": 81.7636364,
                "pitch": 60,
                "velocity": 51,
                "duration": 0.0840909,
                "tempo": 120.0
            },
            {
                "start_time": 82.1818182,
                "end_time": 82.2659091,
                "pitch": 67,
                "velocity": 51,
                "duration": 0.0840909,
                "tempo": 120.0
            },
            {
                "start_time": 82.2818182,
                "end_time": 82.3659091,
                "pitch": 67,
                "velocity": 51,
                "duration": 0.0840909,
                "tempo": 120.0
            },
            {
                "start_time": 82.3818182,
                "end_time": 82.4659091,
                "pitch": 72,
                "velocity": 51,
                "duration": 0.0840909,
                "tempo": 120.0
            },
            {
                "start_time": 82.4840909,
                "end_time": 82.5659091,
                "pitch": 67,
                "velocity": 51,
                "duration": 0.0818182,
                "tempo": 120.0
            },
            {
                "start_time": 82.9840909,
                "end_time": 83.0681818,
                "pitch": 65,
                "velocity": 51,
                "duration": 0.0840909,
                "tempo": 120.0
            },
            {
                "start_time": 83.0840909,
                "end_time": 83.1681818,
                "pitch": 67,
                "velocity": 51,
                "duration": 0.0840909,
                "tempo": 120.0
            },
            {
                "start_time": 83.1840909,
                "end_time": 83.2681818,
                "pitch": 70,
                "velocity": 51,
                "duration": 0.0840909,
                "tempo": 120.0
            },
            {
                "start_time": 83.2863636,
                "end_time": 83.3704545,
                "pitch": 67,
                "velocity": 51,
                "duration": 0.0840909,
                "tempo": 120.0
            },
            {
                "start_time": 83.4022727,
                "end_time": 122.5772727,
                "pitch": 60,
                "velocity": 51,
                "duration": 39.175,
                "tempo": 120.0
            },
            {
                "start_time": 122.7409091,
                "end_time": 123.3772727,
                "pitch": 71,
                "velocity": 51,
                "duration": 0.6363636,
                "tempo": 120.0
            },
            {
                "start_time": 123.5454545,
                "end_time": 124.1795455,
                "pitch": 72,
                "velocity": 51,
                "duration": 0.6340909,
                "tempo": 120.0
            },
            {
                "start_time": 124.3477273,
                "end_time": 124.9840909,
                "pitch": 71,
                "velocity": 51,
                "duration": 0.6363636,
                "tempo": 120.0
            },
            {
                "start_time": 125.15,
                "end_time": 125.7886364,
                "pitch": 75,
                "velocity": 51,
                "duration": 0.6386364,
                "tempo": 120.0
            },
            {
                "start_time": 125.9545455,
                "end_time": 126.2727273,
                "pitch": 77,
                "velocity": 51,
                "duration": 0.3181818,
                "tempo": 120.0
            },
            {
                "start_time": 126.3545455,
                "end_time": 126.675,
                "pitch": 74,
                "velocity": 51,
                "duration": 0.3204545,
                "tempo": 120.0
            },
            {
                "start_time": 126.7590909,
                "end_time": 127.3931818,
                "pitch": 75,
                "velocity": 51,
                "duration": 0.6340909,
                "tempo": 120.0
            },
            {
                "start_time": 127.5613636,
                "end_time": 128.1977273,
                "pitch": 74,
                "velocity": 51,
                "duration": 0.6363636,
                "tempo": 120.0
            },
            {
                "start_time": 128.3636364,
                "end_time": 129.0,
                "pitch": 72,
                "velocity": 51,
                "duration": 0.6363636,
                "tempo": 120.0
            },
            {
                "start_time": 129.1659091,
                "end_time": 129.8045455,
                "pitch": 71,
                "velocity": 51,
                "duration": 0.6386364,
                "tempo": 120.0
            },
            {
                "start_time": 129.9704545,
                "end_time": 130.6068182,
                "pitch": 72,
                "velocity": 51,
                "duration": 0.6363636,
                "tempo": 120.0
            },
            {
                "start_time": 130.775,
                "end_time": 131.4113636,
                "pitch": 74,
                "velocity": 51,
                "duration": 0.6363636,
                "tempo": 120.0
            },
            {
                "start_time": 131.5795455,
                "end_time": 132.2181818,
                "pitch": 79,
                "velocity": 51,
                "duration": 0.6386364,
                "tempo": 120.0
            },
            {
                "start_time": 132.3840909,
                "end_time": 133.0204545,
                "pitch": 77,
                "velocity": 51,
                "duration": 0.6363636,
                "tempo": 120.0
            },
            {
                "start_time": 133.1886364,
                "end_time": 133.825,
                "pitch": 75,
                "velocity": 51,
                "duration": 0.6363636,
                "tempo": 120.0
            },
            {
                "start_time": 133.9931818,
                "end_time": 134.1931818,
                "pitch": 74,
                "velocity": 51,
                "duration": 0.2,
                "tempo": 120.0
            },
            {
                "start_time": 134.2613636,
                "end_time": 134.4613636,
                "pitch": 77,
                "velocity": 51,
                "duration": 0.2,
                "tempo": 120.0
            },
            {
                "start_time": 134.525,
                "end_time": 134.7227273,
                "pitch": 83,
                "velocity": 51,
                "duration": 0.1977273,
                "tempo": 120.0
            },
            {
                "start_time": 134.7886364,
                "end_time": 135.4340909,
                "pitch": 72,
                "velocity": 51,
                "duration": 0.6454545,
                "tempo": 120.0
            },
            {
                "start_time": 135.6,
                "end_time": 136.2386364,
                "pitch": 71,
                "velocity": 51,
                "duration": 0.6386364,
                "tempo": 120.0
            },
            {
                "start_time": 136.4068182,
                "end_time": 136.5568182,
                "pitch": 76,
                "velocity": 51,
                "duration": 0.15,
                "tempo": 120.0
            },
            {
                "start_time": 136.8068182,
                "end_time": 136.9568182,
                "pitch": 74,
                "velocity": 51,
                "duration": 0.15,
                "tempo": 120.0
            },
            {
                "start_time": 137.0068182,
                "end_time": 137.1590909,
                "pitch": 72,
                "velocity": 51,
                "duration": 0.1522727,
                "tempo": 120.0
            },
            {
                "start_time": 137.2090909,
                "end_time": 137.3090909,
                "pitch": 71,
                "velocity": 51,
                "duration": 0.1,
                "tempo": 120.0
            },
            {
                "start_time": 137.3431818,
                "end_time": 137.4431818,
                "pitch": 69,
                "velocity": 51,
                "duration": 0.1,
                "tempo": 120.0
            },
            {
                "start_time": 137.4772727,
                "end_time": 137.5772727,
                "pitch": 68,
                "velocity": 51,
                "duration": 0.1,
                "tempo": 120.0
            },
            {
                "start_time": 137.6113636,
                "end_time": 137.7136364,
                "pitch": 65,
                "velocity": 51,
                "duration": 0.1022727,
                "tempo": 120.0
            },
            {
                "start_time": 137.7454545,
                "end_time": 137.8477273,
                "pitch": 64,
                "velocity": 51,
                "duration": 0.1022727,
                "tempo": 120.0
            },
            {
                "start_time": 137.8795455,
                "end_time": 137.9818182,
                "pitch": 62,
                "velocity": 51,
                "duration": 0.1022727,
                "tempo": 120.0
            },
            {
                "start_time": 138.0136364,
                "end_time": 138.1159091,
                "pitch": 64,
                "velocity": 51,
                "duration": 0.1022727,
                "tempo": 120.0
            },
            {
                "start_time": 138.1477273,
                "end_time": 138.25,
                "pitch": 72,
                "velocity": 51,
                "duration": 0.1022727,
                "tempo": 120.0
            },
            {
                "start_time": 138.2840909,
                "end_time": 138.3840909,
                "pitch": 64,
                "velocity": 51,
                "duration": 0.1,
                "tempo": 120.0
            },
            {
                "start_time": 138.4181818,
                "end_time": 138.5181818,
                "pitch": 72,
                "velocity": 51,
                "duration": 0.1,
                "tempo": 120.0
            },
            {
                "start_time": 138.55,
                "end_time": 138.65,
                "pitch": 64,
                "velocity": 51,
                "duration": 0.1,
                "tempo": 120.0
            },
            {
                "start_time": 138.6840909,
                "end_time": 138.7840909,
                "pitch": 72,
                "velocity": 51,
                "duration": 0.1,
                "tempo": 120.0
            },
            {
                "start_time": 138.8181818,
                "end_time": 138.9181818,
                "pitch": 65,
                "velocity": 51,
                "duration": 0.1,
                "tempo": 120.0
            },
            {
                "start_time": 138.9522727,
                "end_time": 139.0522727,
                "pitch": 74,
                "velocity": 51,
                "duration": 0.1,
                "tempo": 120.0
            },
            {
                "start_time": 139.0863636,
                "end_time": 139.1863636,
                "pitch": 65,
                "velocity": 51,
                "duration": 0.1,
                "tempo": 120.0
            },
            {
                "start_time": 139.2204545,
                "end_time": 139.3204545,
                "pitch": 74,
                "velocity": 51,
                "duration": 0.1,
                "tempo": 120.0
            },
            {
                "start_time": 139.3545455,
                "end_time": 139.4545455,
                "pitch": 65,
                "velocity": 51,
                "duration": 0.1,
                "tempo": 120.0
            },
            {
                "start_time": 139.4886364,
                "end_time": 139.5886364,
                "pitch": 74,
                "velocity": 51,
                "duration": 0.1,
                "tempo": 120.0
            },
            {
                "start_time": 139.6227273,
                "end_time": 139.6727273,
                "pitch": 76,
                "velocity": 51,
                "duration": 0.05,
                "tempo": 120.0
            },
            {
                "start_time": 139.6886364,
                "end_time": 139.7409091,
                "pitch": 69,
                "velocity": 51,
                "duration": 0.0522727,
                "tempo": 120.0
            },
            {
                "start_time": 139.7568182,
                "end_time": 139.8068182,
                "pitch": 74,
                "velocity": 51,
                "duration": 0.05,
                "tempo": 120.0
            },
            {
                "start_time": 139.825,
                "end_time": 139.875,
                "pitch": 67,
                "velocity": 51,
                "duration": 0.05,
                "tempo": 120.0
            },
            {
                "start_time": 139.8909091,
                "end_time": 139.9409091,
                "pitch": 72,
                "velocity": 51,
                "duration": 0.05,
                "tempo": 120.0
            },
            {
                "start_time": 139.9590909,
                "end_time": 140.0090909,
                "pitch": 64,
                "velocity": 51,
                "duration": 0.05,
                "tempo": 120.0
            },
            {
                "start_time": 140.025,
                "end_time": 140.125,
                "pitch": 48,
                "velocity": 51,
                "duration": 0.1,
                "tempo": 120.0
            },
            {
                "start_time": 140.1590909,
                "end_time": 140.2590909,
                "pitch": 50,
                "velocity": 51,
                "duration": 0.1,
                "tempo": 120.0
            },
            {
                "start_time": 140.2931818,
                "end_time": 140.3954545,
                "pitch": 52,
                "velocity": 51,
                "duration": 0.1022727,
                "tempo": 120.0
            },
            {
                "start_time": 140.4272727,
                "end_time": 140.5113636,
                "pitch": 62,
                "velocity": 51,
                "duration": 0.0840909,
                "tempo": 120.0
            },
            {
                "start_time": 140.5272727,
                "end_time": 140.6113636,
                "pitch": 60,
                "velocity": 51,
                "duration": 0.0840909,
                "tempo": 120.0
            },
            {
                "start_time": 140.6272727,
                "end_time": 140.7113636,
                "pitch": 59,
                "velocity": 51,
                "duration": 0.0840909,
                "tempo": 120.0
            },
            {
                "start_time": 140.7272727,
                "end_time": 140.8113636,
                "pitch": 57,
                "velocity": 51,
                "duration": 0.0840909,
                "tempo": 120.0
            },
            {
                "start_time": 140.8272727,
                "end_time": 140.9113636,
                "pitch": 50,
                "velocity": 51,
                "duration": 0.0840909,
                "tempo": 120.0
            },
            {
                "start_time": 140.9295455,
                "end_time": 141.0136364,
                "pitch": 52,
                "velocity": 51,
                "duration": 0.0840909,
                "tempo": 120.0
            },
            {
                "start_time": 141.0295455,
                "end_time": 141.1136364,
                "pitch": 53,
                "velocity": 51,
                "duration": 0.0840909,
                "tempo": 120.0
            },
            {
                "start_time": 141.1295455,
                "end_time": 141.2136364,
                "pitch": 56,
                "velocity": 51,
                "duration": 0.0840909,
                "tempo": 120.0
            },
            {
                "start_time": 141.2295455,
                "end_time": 141.3136364,
                "pitch": 69,
                "velocity": 51,
                "duration": 0.0840909,
                "tempo": 120.0
            },
            {
                "start_time": 141.3318182,
                "end_time": 141.4159091,
                "pitch": 71,
                "velocity": 51,
                "duration": 0.0840909,
                "tempo": 120.0
            },
            {
                "start_time": 141.4318182,
                "end_time": 141.5159091,
                "pitch": 72,
                "velocity": 51,
                "duration": 0.0840909,
                "tempo": 120.0
            },
            {
                "start_time": 141.5318182,
                "end_time": 141.6159091,
                "pitch": 74,
                "velocity": 51,
                "duration": 0.0840909,
                "tempo": 120.0
            },
            {
                "start_time": 141.6340909,
                "end_time": 141.7181818,
                "pitch": 76,
                "velocity": 51,
                "duration": 0.0840909,
                "tempo": 120.0
            },
            {
                "start_time": 141.7340909,
                "end_time": 141.8181818,
                "pitch": 77,
                "velocity": 51,
                "duration": 0.0840909,
                "tempo": 120.0
            },
            {
                "start_time": 141.8340909,
                "end_time": 141.9181818,
                "pitch": 80,
                "velocity": 51,
                "duration": 0.0840909,
                "tempo": 120.0
            },
            {
                "start_time": 141.9363636,
                "end_time": 142.0181818,
                "pitch": 81,
                "velocity": 51,
                "duration": 0.0818182,
                "tempo": 120.0
            },
            {
                "start_time": 142.0363636,
                "end_time": 142.1204545,
                "pitch": 83,
                "velocity": 51,
                "duration": 0.0840909,
                "tempo": 120.0
            },
            {
                "start_time": 142.1363636,
                "end_time": 142.2204545,
                "pitch": 81,
                "velocity": 51,
                "duration": 0.0840909,
                "tempo": 120.0
            },
            {
                "start_time": 142.2363636,
                "end_time": 142.3204545,
                "pitch": 80,
                "velocity": 51,
                "duration": 0.0840909,
                "tempo": 120.0
            },
            {
                "start_time": 142.3386364,
                "end_time": 142.4886364,
                "pitch": 77,
                "velocity": 51,
                "duration": 0.15,
                "tempo": 120.0
            },
            {
                "start_time": 142.5386364,
                "end_time": 142.6227273,
                "pitch": 80,
                "velocity": 51,
                "duration": 0.0840909,
                "tempo": 120.0
            },
            {
                "start_time": 142.6386364,
                "end_time": 142.7227273,
                "pitch": 77,
                "velocity": 51,
                "duration": 0.0840909,
                "tempo": 120.0
            },
            {
                "start_time": 142.7386364,
                "end_time": 142.8227273,
                "pitch": 76,
                "velocity": 51,
                "duration": 0.0840909,
                "tempo": 120.0
            },
            {
                "start_time": 142.8386364,
                "end_time": 142.9386364,
                "pitch": 81,
                "velocity": 51,
                "duration": 0.1,
                "tempo": 120.0
            },
            {
                "start_time": 142.9727273,
                "end_time": 143.0727273,
                "pitch": 72,
                "velocity": 51,
                "duration": 0.1,
                "tempo": 120.0
            },
            {
                "start_time": 143.1068182,
                "end_time": 143.2068182,
                "pitch": 81,
                "velocity": 51,
                "duration": 0.1,
                "tempo": 120.0
            },
            {
                "start_time": 143.2409091,
                "end_time": 143.3431818,
                "pitch": 72,
                "velocity": 51,
                "duration": 0.1022727,
                "tempo": 120.0
            },
            {
                "start_time": 143.375,
                "end_time": 143.4772727,
                "pitch": 81,
                "velocity": 51,
                "duration": 0.1022727,
                "tempo": 120.0
            },
            {
                "start_time": 143.5090909,
                "end_time": 143.6113636,
                "pitch": 72,
                "velocity": 51,
                "duration": 0.1022727,
                "tempo": 120.0
            },
            {
                "start_time": 143.6431818,
                "end_time": 143.7954545,
                "pitch": 81,
                "velocity": 51,
                "duration": 0.1522727,
                "tempo": 120.0
            },
            {
                "start_time": 143.8454545,
                "end_time": 143.9954545,
                "pitch": 74,
                "velocity": 51,
                "duration": 0.15,
                "tempo": 120.0
            },
            {
                "start_time": 144.0477273,
                "end_time": 144.1977273,
                "pitch": 81,
                "velocity": 51,
                "duration": 0.15,
                "tempo": 120.0
            },
            {
                "start_time": 144.2477273,
                "end_time": 144.4,
                "pitch": 74,
                "velocity": 51,
                "duration": 0.1522727,
                "tempo": 120.0
            },
            {
                "start_time": 144.45,
                "end_time": 144.55,
                "pitch": 81,
                "velocity": 51,
                "duration": 0.1,
                "tempo": 120.0
            },
            {
                "start_time": 144.5818182,
                "end_time": 144.6818182,
                "pitch": 76,
                "velocity": 51,
                "duration": 0.1,
                "tempo": 120.0
            },
            {
                "start_time": 144.7159091,
                "end_time": 144.8159091,
                "pitch": 81,
                "velocity": 51,
                "duration": 0.1,
                "tempo": 120.0
            },
            {
                "start_time": 144.85,
                "end_time": 144.95,
                "pitch": 76,
                "velocity": 51,
                "duration": 0.1,
                "tempo": 120.0
            },
            {
                "start_time": 144.9840909,
                "end_time": 145.0840909,
                "pitch": 81,
                "velocity": 51,
                "duration": 0.1,
                "tempo": 120.0
            },
            {
                "start_time": 145.1181818,
                "end_time": 145.2181818,
                "pitch": 76,
                "velocity": 51,
                "duration": 0.1,
                "tempo": 120.0
            },
            {
                "start_time": 145.2522727,
                "end_time": 145.3363636,
                "pitch": 83,
                "velocity": 51,
                "duration": 0.0840909,
                "tempo": 120.0
            },
            {
                "start_time": 145.3522727,
                "end_time": 145.4363636,
                "pitch": 80,
                "velocity": 51,
                "duration": 0.0840909,
                "tempo": 120.0
            },
            {
                "start_time": 145.4545455,
                "end_time": 145.5363636,
                "pitch": 77,
                "velocity": 51,
                "duration": 0.0818182,
                "tempo": 120.0
            },
            {
                "start_time": 145.5545455,
                "end_time": 145.6386364,
                "pitch": 74,
                "velocity": 51,
                "duration": 0.0840909,
                "tempo": 120.0
            },
            {
                "start_time": 145.6545455,
                "end_time": 145.7386364,
                "pitch": 80,
                "velocity": 51,
                "duration": 0.0840909,
                "tempo": 120.0
            },
            {
                "start_time": 145.7545455,
                "end_time": 145.8386364,
                "pitch": 77,
                "velocity": 51,
                "duration": 0.0840909,
                "tempo": 120.0
            },
            {
                "start_time": 145.8568182,
                "end_time": 145.9409091,
                "pitch": 74,
                "velocity": 51,
                "duration": 0.0840909,
                "tempo": 120.0
            },
            {
                "start_time": 145.9568182,
                "end_time": 146.0409091,
                "pitch": 71,
                "velocity": 51,
                "duration": 0.0840909,
                "tempo": 120.0
            },
            {
                "start_time": 146.0568182,
                "end_time": 146.2090909,
                "pitch": 69,
                "velocity": 51,
                "duration": 0.1522727,
                "tempo": 120.0
            },
            {
                "start_time": 146.4590909,
                "end_time": 146.6090909,
                "pitch": 72,
                "velocity": 51,
                "duration": 0.15,
                "tempo": 120.0
            },
            {
                "start_time": 146.8590909,
                "end_time": 147.0113636,
                "pitch": 71,
                "velocity": 51,
                "duration": 0.1522727,
                "tempo": 120.0
            },
            {
                "start_time": 147.6659091,
                "end_time": 148.3022727,
                "pitch": 57,
                "velocity": 51,
                "duration": 0.6363636,
                "tempo": 120.0
            },
            {
                "start_time": 148.4704545,
                "end_time": 149.1068182,
                "pitch": 55,
                "velocity": 51,
                "duration": 0.6363636,
                "tempo": 120.0
            },
            {
                "start_time": 149.2727273,
                "end_time": 149.9113636,
                "pitch": 54,
                "velocity": 51,
                "duration": 0.6386364,
                "tempo": 120.0
            },
            {
                "start_time": 150.0795455,
                "end_time": 150.7159091,
                "pitch": 52,
                "velocity": 51,
                "duration": 0.6363636,
                "tempo": 120.0
            },
            {
                "start_time": 150.8818182,
                "end_time": 151.5181818,
                "pitch": 52,
                "velocity": 51,
                "duration": 0.6363636,
                "tempo": 120.0
            },
            {
                "start_time": 151.6863636,
                "end_time": 152.325,
                "pitch": 50,
                "velocity": 51,
                "duration": 0.6386364,
                "tempo": 120.0
            },
            {
                "start_time": 152.4931818,
                "end_time": 153.1272727,
                "pitch": 48,
                "velocity": 51,
                "duration": 0.6340909,
                "tempo": 120.0
            },
            {
                "start_time": 153.2954545,
                "end_time": 153.9318182,
                "pitch": 47,
                "velocity": 51,
                "duration": 0.6363636,
                "tempo": 120.0
            },
            {
                "start_time": 154.1,
                "end_time": 154.7363636,
                "pitch": 57,
                "velocity": 51,
                "duration": 0.6363636,
                "tempo": 120.0
            },
            {
                "start_time": 154.9022727,
                "end_time": 155.5409091,
                "pitch": 55,
                "velocity": 51,
                "duration": 0.6386364,
                "tempo": 120.0
            },
            {
                "start_time": 155.7090909,
                "end_time": 156.3454545,
                "pitch": 54,
                "velocity": 51,
                "duration": 0.6363636,
                "tempo": 120.0
            },
            {
                "start_time": 156.5136364,
                "end_time": 157.1522727,
                "pitch": 56,
                "velocity": 51,
                "duration": 0.6386364,
                "tempo": 120.0
            },
            {
                "start_time": 157.3159091,
                "end_time": 157.9545455,
                "pitch": 57,
                "velocity": 51,
                "duration": 0.6386364,
                "tempo": 120.0
            },
            {
                "start_time": 158.1227273,
                "end_time": 158.7590909,
                "pitch": 59,
                "velocity": 51,
                "duration": 0.6363636,
                "tempo": 120.0
            },
            {
                "start_time": 158.925,
                "end_time": 159.5613636,
                "pitch": 60,
                "velocity": 51,
                "duration": 0.6363636,
                "tempo": 120.0
            },
            {
                "start_time": 159.7295455,
                "end_time": 160.3681818,
                "pitch": 62,
                "velocity": 51,
                "duration": 0.6386364,
                "tempo": 120.0
            }
        ]
    }
}