{
    "mood": "happy",
    "instruments": {
        "Trumpet": [
            {
                "start_time": 0.0,
                "end_time": 0.1795455,
                "pitch": 60,
                "velocity": 25,
                "duration": 0.1795455,
                "tempo": 120.0
            },
            {
                "start_time": 0.1954545,
                "end_time": 0.2454545,
                "pitch": 72,
                "velocity": 25,
                "duration": 0.05,
                "tempo": 120.0
            },
            {
                "start_time": 0.5477273,
                "end_time": 0.6318182,
                "pitch": 72,
                "velocity": 25,
                "duration": 0.0840909,
                "tempo": 120.0
            },
            {
                "start_time": 0.9204545,
                "end_time": 1.0068182,
                "pitch": 70,
                "velocity": 25,
                "duration": 0.0863636,
                "tempo": 120.0
            },
            {
                "start_time": 1.2886364,
                "end_time": 1.4954545,
                "pitch": 70,
                "velocity": 25,
                "duration": 0.2068182,
                "tempo": 120.0
            },
            {
                "start_time": 1.5136364,
                "end_time": 1.6090909,
                "pitch": 70,
                "velocity": 25,
                "duration": 0.0954545,
                "tempo": 120.0
            },
            {
                "start_time": 1.625,
                "end_time": 1.7954545,
                "pitch": 72,
                "velocity": 25,
                "duration": 0.1704545,
                "tempo": 120.0
            },
            {
                "start_time": 2.1204545,
                "end_time": 2.1522727,
                "pitch": 72,
                "velocity": 25,
                "duration": 0.0318182,
                "tempo": 120.0
            },
            {
                "start_time": 2.4863636,
                "end_time": 2.8204545,
                "pitch": 70,
                "velocity": 25,
                "duration": 0.3340909,
                "tempo": 120.0
            },
            {
                "start_time": 2.8363636,
                "end_time": 3.1886364,
                "pitch": 68,
                "velocity": 25,
                "duration": 0.3522727,
                "tempo": 120.0
            },
            {
                "start_time": 3.2068182,
                "end_time": 3.4272727,
                "pitch": 68,
                "velocity": 25,
                "duration": 0.2204545,
                "tempo": 120.0
            },
            {
                "start_time": 3.4454545,
                "end_time": 3.5477273,
                "pitch": 68,
                "velocity": 25,
                "duration": 0.1022727,
                "tempo": 120.0
            },
            {
                "start_time": 3.5636364,
                "end_time": 4.0227273,
                "pitch": 70,
                "velocity": 25,
                "duration": 0.4590909,
                "tempo": 120.0
            },
            {
                "start_time": 4.0409091,
                "end_time": 4.1068182,
                "pitch": 72,
                "velocity": 25,
                "duration": 0.0659091,
                "tempo": 120.0
            },
            {
                "start_time": 4.4090909,
                "end_time": 4.7431818,
                "pitch": 70,
                "velocity": 25,
                "duration": 0.3340909,
                "tempo": 120.0
            },
            {
                "start_time": 4.7613636,
                "end_time": 5.1113636,
                "pitch": 70,
                "velocity": 25,
                "duration": 0.35,
                "tempo": 120.0
            },
            {
                "start_time": 5.1272727,
                "end_time": 5.3477273,
                "pitch": 70,
                "velocity": 25,
                "duration": 0.2204545,
                "tempo": 120.0
            },
            {
                "start_time": 5.3636364,
                "end_time": 5.4636364,
                "pitch": 70,
                "velocity": 25,
                "duration": 0.1,
                "tempo": 120.0
            },
            {
                "start_time": 5.4977273,
                "end_time": 5.9590909,
                "pitch": 72,
                "velocity": 25,
                "duration": 0.4613636,
                "tempo": 120.0
            },
            {
                "start_time": 5.975,
                "end_time": 6.0568182,
                "pitch": 72,
                "velocity": 25,
                "duration": 0.0818182,
                "tempo": 120.0
            },
            {
                "start_time": 6.3272727,
                "end_time": 6.6613636,
                "pitch": 72,
                "velocity": 25,
                "duration": 0.3340909,
                "tempo": 120.0
            },
            {
                "start_time": 6.6954545,
                "end_time": 7.0363636,
                "pitch": 77,
                "velocity": 25,
                "duration": 0.3409091,
                "tempo": 120.0
            },
            {
                "start_time": 7.0522727,
                "end_time": 7.6454545,
                "pitch": 77,
                "velocity": 25,
                "duration": 0.5931818,
                "tempo": 120.0
            },
            {
                "start_time": 7.6613636,
                "end_time": 7.8840909,
                "pitch": 60,
                "velocity": 25,
                "duration": 0.2227273,
                "tempo": 120.0
            },
            {
                "start_time": 7.9181818,
                "end_time": 7.9840909,
                "pitch": 72,
                "velocity": 25,
                "duration": 0.0659091,
                "tempo": 120.0
            },
            {
                "start_time": 8.2681818,
                "end_time": 8.6090909,
                "pitch": 72,
                "velocity": 25,
                "duration": 0.3409091,
                "tempo": 120.0
            },
            {
                "start_time": 8.625,
                "end_time": 8.95,
                "pitch": 70,
                "velocity": 25,
                "duration": 0.325,
                "tempo": 120.0
            },
            {
                "start_time": 8.9681818,
                "end_time": 9.2068182,
                "pitch": 70,
                "velocity": 25,
                "duration": 0.2386364,
                "tempo": 120.0
            },
            {
                "start_time": 9.225,
                "end_time": 9.3272727,
                "pitch": 70,
                "velocity": 25,
                "duration": 0.1022727,
                "tempo": 120.0
            },
            {
                "start_time": 9.3431818,
                "end_time": 9.8136364,
                "pitch": 72,
                "velocity": 25,
                "duration": 0.4704545,
                "tempo": 120.0
            },
            {
                "start_time": 9.8318182,
                "end_time": 10.1659091,
                "pitch": 72,
                "velocity": 25,
                "duration": 0.3340909,
                "tempo": 120.0
            },
            {
                "start_time": 10.1840909,
                "end_time": 10.5409091,
                "pitch": 72,
                "velocity": 25,
                "duration": 0.3568182,
                "tempo": 120.0
            },
            {
                "start_time": 10.5568182,
                "end_time": 10.8954545,
                "pitch": 70,
                "velocity": 25,
                "duration": 0.3386364,
                "tempo": 120.0
            },
            {
                "start_time": 10.9272727,
                "end_time": 11.4909091,
                "pitch": 70,
                "velocity": 25,
                "duration": 0.5636364,
                "tempo": 120.0
            },
            {
                "start_time": 11.525,
                "end_time": 11.8590909,
                "pitch": 70,
                "velocity": 25,
                "duration": 0.3340909,
                "tempo": 120.0
            },
            {
                "start_time": 11.8772727,
                "end_time": 12.5886364,
                "pitch": 70,
                "velocity": 25,
                "duration": 0.7113636,
                "tempo": 120.0
            },
            {
                "start_time": 12.6045455,
                "end_time": 12.8431818,
                "pitch": 70,
                "velocity": 25,
                "duration": 0.2386364,
                "tempo": 120.0
            },
            {
                "start_time": 12.8590909,
                "end_time": 13.0772727,
                "pitch": 70,
                "velocity": 25,
                "duration": 0.2181818,
                "tempo": 120.0
            },
            {
                "start_time": 13.0954545,
                "end_time": 13.1954545,
                "pitch": 70,
                "velocity": 25,
                "duration": 0.1,
                "tempo": 120.0
            },
            {
                "start_time": 13.2113636,
                "end_time": 13.4409091,
                "pitch": 70,
                "velocity": 25,
                "duration": 0.2295455,
                "tempo": 120.0
            },
            {
                "start_time": 13.4590909,
                "end_time": 14.5113636,
                "pitch": 72,
                "velocity": 25,
                "duration": 1.0522727,
                "tempo": 120.0
            },
            {
                "start_time": 14.5454545,
                "end_time": 15.6068182,
                "pitch": 71,
                "velocity": 25,
                "duration": 1.0613636,
                "tempo": 120.0
            },
            {
                "start_time": 15.6227273,
                "end_time": 15.9113636,
                "pitch": 72,
                "velocity": 25,
                "duration": 0.2886364,
                "tempo": 120.0
            },
            {
                "start_time": 15.9431818,
                "end_time": 16.1727273,
                "pitch": 72,
                "velocity": 25,
                "duration": 0.2295455,
                "tempo": 120.0
            },
            {
                "start_time": 16.1909091,
                "end_time": 16.2931818,
                "pitch": 72,
                "velocity": 25,
                "duration": 0.1022727,
                "tempo": 120.0
            },
            {
                "start_time": 16.3090909,
                "end_time": 16.65,
                "pitch": 70,
                "velocity": 25,
                "duration": 0.3409091,
                "tempo": 120.0
            },
            {
                "start_time": 16.6681818,
                "end_time": 16.8863636,
                "pitch": 70,
                "velocity": 25,
                "duration": 0.2181818,
                "tempo": 120.0
            },
            {
                "start_time": 16.9022727,
                "end_time": 17.0204545,
                "pitch": 70,
                "velocity": 25,
                "duration": 0.1181818,
                "tempo": 120.0
            },
            {
                "start_time": 17.0545455,
                "end_time": 17.1204545,
                "pitch": 72,
                "velocity": 25,
                "duration": 0.0659091,
                "tempo": 120.0
            },
            {
                "start_time": 17.1545455,
                "end_time": 17.2727273,
                "pitch": 70,
                "velocity": 25,
                "duration": 0.1181818,
                "tempo": 120.0
            },
            {
                "start_time": 17.2886364,
                "end_time": 17.6090909,
                "pitch": 68,
                "velocity": 25,
                "duration": 0.3204545,
                "tempo": 120.0
            },
            {
                "start_time": 17.625,
                "end_time": 17.8818182,
                "pitch": 68,
                "velocity": 25,
                "duration": 0.2568182,
                "tempo": 120.0
            },
            {
                "start_time": 17.9,
                "end_time": 18.0181818,
                "pitch": 68,
                "velocity": 25,
                "duration": 0.1181818,
                "tempo": 120.0
            },
            {
                "start_time": 18.0363636,
                "end_time": 19.2136364,
                "pitch": 68,
                "velocity": 25,
                "duration": 1.1772727,
                "tempo": 120.0
            },
            {
                "start_time": 19.2295455,
                "end_time": 19.4659091,
                "pitch": 48,
                "velocity": 25,
                "duration": 0.2363636,
                "tempo": 120.0
            },
            {
                "start_time": 19.4818182,
                "end_time": 19.5659091,
                "pitch": 72,
                "velocity": 25,
                "duration": 0.0840909,
                "tempo": 120.0
            },
            {
                "start_time": 19.8181818,
                "end_time": 20.1909091,
                "pitch": 70,
                "velocity": 25,
                "duration": 0.3727273,
                "tempo": 120.0
            },
            {
                "start_time": 20.2090909,
                "end_time": 20.4295455,
                "pitch": 72,
                "velocity": 25,
                "duration": 0.2204545,
                "tempo": 120.0
            },
            {
                "start_time": 20.4477273,
                "end_time": 20.6386364,
                "pitch": 75,
                "velocity": 25,
                "duration": 0.1909091,
                "tempo": 120.0
            },
            {
                "start_time": 20.6727273,
                "end_time": 20.7681818,
                "pitch": 75,
                "velocity": 25,
                "duration": 0.0954545,
                "tempo": 120.0
            },
            {
                "start_time": 20.7840909,
                "end_time": 21.1340909,
                "pitch": 70,
                "velocity": 25,
                "duration": 0.35,
                "tempo": 120.0
            },
            {
                "start_time": 21.1681818,
                "end_time": 21.5068182,
                "pitch": 72,
                "velocity": 25,
                "duration": 0.3386364,
                "tempo": 120.0
            },
            {
                "start_time": 21.525,
                "end_time": 21.7431818,
                "pitch": 72,
                "velocity": 25,
                "duration": 0.2181818,
                "tempo": 120.0
            },
            {
                "start_time": 21.7772727,
                "end_time": 21.8772727,
                "pitch": 72,
                "velocity": 25,
                "duration": 0.1,
                "tempo": 120.0
            },
            {
                "start_time": 21.8931818,
                "end_time": 22.1113636,
                "pitch": 72,
                "velocity": 25,
                "duration": 0.2181818,
                "tempo": 120.0
            },
            {
                "start_time": 22.1272727,
                "end_time": 22.4795455,
                "pitch": 77,
                "velocity": 25,
                "duration": 0.3522727,
                "tempo": 120.0
            },
            {
                "start_time": 22.4977273,
                "end_time": 22.8386364,
                "pitch": 77,
                "velocity": 25,
                "duration": 0.3409091,
                "tempo": 120.0
            },
            {
                "start_time": 22.8545455,
                "end_time": 23.3159091,
                "pitch": 72,
                "velocity": 25,
                "duration": 0.4613636,
                "tempo": 120.0
            },
            {
                "start_time": 23.3318182,
                "end_time": 23.4318182,
                "pitch": 72,
                "velocity": 25,
                "duration": 0.1,
                "tempo": 120.0
            },
            {
                "start_time": 23.7,
                "end_time": 23.8022727,
                "pitch": 72,
                "velocity": 25,
                "duration": 0.1022727,
                "tempo": 120.0
            },
            {
                "start_time": 24.0863636,
                "end_time": 24.4068182,
                "pitch": 72,
                "velocity": 25,
                "duration": 0.3204545,
                "tempo": 120.0
            },
            {
                "start_time": 24.4227273,
                "end_time": 24.6409091,
                "pitch": 72,
                "velocity": 25,
                "duration": 0.2181818,
                "tempo": 120.0
            },
            {
                "start_time": 24.6590909,
                "end_time": 24.7590909,
                "pitch": 72,
                "velocity": 25,
                "duration": 0.1,
                "tempo": 120.0
            },
            {
                "start_time": 24.7931818,
                "end_time": 25.0159091,
                "pitch": 72,
                "velocity": 25,
                "duration": 0.2227273,
                "tempo": 120.0
            },
            {
                "start_time": 25.0318182,
                "end_time": 25.35,
                "pitch": 70,
                "velocity": 25,
                "duration": 0.3181818,
                "tempo": 120.0
            },
            {
                "start_time": 25.3659091,
                "end_time": 25.6068182,
                "pitch": 68,
                "velocity": 25,
                "duration": 0.2409091,
                "tempo": 120.0
            },
            {
                "start_time": 25.6227273,
                "end_time": 25.7204545,
                "pitch": 68,
                "velocity": 25,
                "duration": 0.0977273,
                "tempo": 120.0
            },
            {
                "start_time": 25.7363636,
                "end_time": 26.7977273,
                "pitch": 68,
                "velocity": 25,
                "duration": 1.0613636,
                "tempo": 120.0
            },
            {
                "start_time": 27.2,
                "end_time": 27.2681818,
                "pitch": 70,
                "velocity": 25,
                "duration": 0.0681818,
                "tempo": 120.0
            },
            {
                "start_time": 27.5772727,
                "end_time": 27.775,
                "pitch": 70,
                "velocity": 25,
                "duration": 0.1977273,
                "tempo": 120.0
            },
            {
                "start_time": 27.8068182,
                "end_time": 27.9022727,
                "pitch": 70,
                "velocity": 25,
                "duration": 0.0954545,
                "tempo": 120.0
            },
            {
                "start_time": 27.9181818,
                "end_time": 28.3477273,
                "pitch": 70,
                "velocity": 25,
                "duration": 0.4295455,
                "tempo": 120.0
            },
            {
                "start_time": 28.3659091,
                "end_time": 28.8409091,
                "pitch": 70,
                "velocity": 25,
                "duration": 0.475,
                "tempo": 120.0
            },
            {
                "start_time": 28.8568182,
                "end_time": 29.2090909,
                "pitch": 72,
                "velocity": 25,
                "duration": 0.3522727,
                "tempo": 120.0
            },
            {
                "start_time": 29.2272727,
                "end_time": 29.4454545,
                "pitch": 72,
                "velocity": 25,
                "duration": 0.2181818,
                "tempo": 120.0
            },
            {
                "start_time": 29.4613636,
                "end_time": 29.5795455,
                "pitch": 72,
                "velocity": 25,
                "duration": 0.1181818,
                "tempo": 120.0
            },
            {
                "start_time": 29.6136364,
                "end_time": 29.75,
                "pitch": 72,
                "velocity": 25,
                "duration": 0.1363636,
                "tempo": 120.0
            },
            {
                "start_time": 30.0909091,
                "end_time": 30.3204545,
                "pitch": 77,
                "velocity": 25,
                "duration": 0.2295455,
                "tempo": 120.0
            },
            {
                "start_time": 30.3363636,
                "end_time": 30.55,
                "pitch": 75,
                "velocity": 25,
                "duration": 0.2136364,
                "tempo": 120.0
            },
            {
                "start_time": 30.5659091,
                "end_time": 31.0363636,
                "pitch": 72,
                "velocity": 25,
                "duration": 0.4704545,
                "tempo": 120.0
            },
            {
                "start_time": 31.0545455,
                "end_time": 31.3909091,
                "pitch": 72,
                "velocity": 25,
                "duration": 0.3363636,
                "tempo": 120.0
            },
            {
                "start_time": 31.4227273,
                "end_time": 32.5727273,
                "pitch": 72,
                "velocity": 25,
                "duration": 1.15,
                "tempo": 120.0
            },
            {
                "start_time": 32.9818182,
                "end_time": 33.0818182,
                "pitch": 70,
                "velocity": 25,
                "duration": 0.1,
                "tempo": 120.0
            },
            {
                "start_time": 33.1,
                "end_time": 33.3318182,
                "pitch": 70,
                "velocity": 25,
                "duration": 0.2318182,
                "tempo": 120.0
            },
            {
                "start_time": 33.35,
                "end_time": 34.4704545,
                "pitch": 70,
                "velocity": 25,
                "duration": 1.1204545,
                "tempo": 120.0
            },
            {
                "start_time": 34.675,
                "end_time": 34.8977273,
                "pitch": 72,
                "velocity": 25,
                "duration": 0.2227273,
                "tempo": 120.0
            },
            {
                "start_time": 34.9136364,
                "end_time": 35.0136364,
                "pitch": 72,
                "velocity": 25,
                "duration": 0.1,
                "tempo": 120.0
            },
            {
                "start_time": 35.0454545,
                "end_time": 35.2590909,
                "pitch": 72,
                "velocity": 25,
                "duration": 0.2136364,
                "tempo": 120.0
            },
            {
                "start_time": 35.275,
                "end_time": 35.6090909,
                "pitch": 72,
                "velocity": 25,
                "duration": 0.3340909,
                "tempo": 120.0
            },
            {
                "start_time": 36.5931818,
                "end_time": 36.6931818,
                "pitch": 73,
                "velocity": 25,
                "duration": 0.1,
                "tempo": 120.0
            },
            {
                "start_time": 36.7113636,
                "end_time": 36.7613636,
                "pitch": 73,
                "velocity": 25,
                "duration": 0.05,
                "tempo": 120.0
            },
            {
                "start_time": 37.2022727,
                "end_time": 37.5522727,
                "pitch": 73,
                "velocity": 25,
                "duration": 0.35,
                "tempo": 120.0
            },
            {
                "start_time": 37.5681818,
                "end_time": 37.8977273,
                "pitch": 75,
                "velocity": 25,
                "duration": 0.3295455,
                "tempo": 120.0
            },
            {
                "start_time": 37.9159091,
                "end_time": 38.9863636,
                "pitch": 75,
                "velocity": 25,
                "duration": 1.0704545,
                "tempo": 120.0
            },
            {
                "start_time": 39.0022727,
                "end_time": 39.2227273,
                "pitch": 75,
                "velocity": 25,
                "duration": 0.2204545,
                "tempo": 120.0
            },
            {
                "start_time": 39.2545455,
                "end_time": 39.4590909,
                "pitch": 75,
                "velocity": 25,
                "duration": 0.2045455,
                "tempo": 120.0
            },
            {
                "start_time": 39.7340909,
                "end_time": 39.8136364,
                "pitch": 72,
                "velocity": 25,
                "duration": 0.0795455,
                "tempo": 120.0
            },
            {
                "start_time": 40.0863636,
                "end_time": 40.3,
                "pitch": 72,
                "velocity": 25,
                "duration": 0.2136364,
                "tempo": 120.0
            },
            {
                "start_time": 40.3181818,
                "end_time": 41.2772727,
                "pitch": 72,
                "velocity": 25,
                "duration": 0.9590909,
                "tempo": 120.0
            },
            {
                "start_time": 41.6636364,
                "end_time": 42.0045455,
                "pitch": 68,
                "velocity": 25,
                "duration": 0.3409091,
                "tempo": 120.0
            },
            {
                "start_time": 42.0227273,
                "end_time": 42.2409091,
                "pitch": 73,
                "velocity": 25,
                "duration": 0.2181818,
                "tempo": 120.0
            },
            {
                "start_time": 42.2727273,
                "end_time": 43.2181818,
                "pitch": 73,
                "velocity": 25,
                "duration": 0.9454545,
                "tempo": 120.0
            },
            {
                "start_time": 43.5886364,
                "end_time": 43.9295455,
                "pitch": 70,
                "velocity": 25,
                "duration": 0.3409091,
                "tempo": 120.0
            },
            {
                "start_time": 43.9454545,
                "end_time": 44.3022727,
                "pitch": 75,
                "velocity": 25,
                "duration": 0.3568182,
                "tempo": 120.0
            },
            {
                "start_time": 44.3181818,
                "end_time": 44.6522727,
                "pitch": 75,
                "velocity": 25,
                "duration": 0.3340909,
                "tempo": 120.0
            },
            {
                "start_time": 44.6840909,
                "end_time": 45.0136364,
                "pitch": 75,
                "velocity": 25,
                "duration": 0.3295455,
                "tempo": 120.0
            },
            {
                "start_time": 45.0295455,
                "end_time": 45.2454545,
                "pitch": 72,
                "velocity": 25,
                "duration": 0.2159091,
                "tempo": 120.0
            },
            {
                "start_time": 45.2795455,
                "end_time": 46.225,
                "pitch": 72,
                "velocity": 25,
                "duration": 0.9454545,
                "tempo": 120.0
            }
        ],
        "Electric Guitar (clean)": [
            {
                "start_time": 0.0,
                "end_time": 0.0136364,
                "pitch": 60,
                "velocity": 25,
                "duration": 0.0136364,
                "tempo": 120.0
            },
            {
                "start_time": 0.0272727,
                "end_time": 0.2113636,
                "pitch": 65,
                "velocity": 25,
                "duration": 0.1840909,
                "tempo": 120.0
            },
            {
                "start_time": 0.2295455,
                "end_time": 0.2954545,
                "pitch": 77,
                "velocity": 25,
                "duration": 0.0659091,
                "tempo": 120.0
            },
            {
                "start_time": 0.5977273,
                "end_time": 0.6477273,
                "pitch": 75,
                "velocity": 25,
                "duration": 0.05,
                "tempo": 120.0
            },
            {
                "start_time": 0.9545455,
                "end_time": 1.3045455,
                "pitch": 74,
                "velocity": 25,
                "duration": 0.35,
                "tempo": 120.0
            },
            {
                "start_time": 1.3204545,
                "end_time": 1.5295455,
                "pitch": 74,
                "velocity": 25,
                "duration": 0.2090909,
                "tempo": 120.0
            },
            {
                "start_time": 1.5454545,
                "end_time": 1.6409091,
                "pitch": 74,
                "velocity": 25,
                "duration": 0.0954545,
                "tempo": 120.0
            },
            {
                "start_time": 1.675,
                "end_time": 1.8795455,
                "pitch": 75,
                "velocity": 25,
                "duration": 0.2045455,
                "tempo": 120.0
            },
            {
                "start_time": 2.1522727,
                "end_time": 2.2204545,
                "pitch": 77,
                "velocity": 25,
                "duration": 0.0681818,
                "tempo": 120.0
            },
            {
                "start_time": 2.5204545,
                "end_time": 2.8522727,
                "pitch": 75,
                "velocity": 25,
                "duration": 0.3318182,
                "tempo": 120.0
            },
            {
                "start_time": 2.8863636,
                "end_time": 3.2227273,
                "pitch": 73,
                "velocity": 25,
                "duration": 0.3363636,
                "tempo": 120.0
            },
            {
                "start_time": 3.2409091,
                "end_time": 3.4613636,
                "pitch": 73,
                "velocity": 25,
                "duration": 0.2204545,
                "tempo": 120.0
            },
            {
                "start_time": 3.4954545,
                "end_time": 3.5977273,
                "pitch": 73,
                "velocity": 25,
                "duration": 0.1022727,
                "tempo": 120.0
            },
            {
                "start_time": 3.6136364,
                "end_time": 3.7931818,
                "pitch": 75,
                "velocity": 25,
                "duration": 0.1795455,
                "tempo": 120.0
            },
            {
                "start_time": 3.8431818,
                "end_time": 4.0568182,
                "pitch": 65,
                "velocity": 25,
                "duration": 0.2136364,
                "tempo": 120.0
            },
            {
                "start_time": 4.0909091,
                "end_time": 4.1409091,
                "pitch": 77,
                "velocity": 25,
                "duration": 0.05,
                "tempo": 120.0
            },
            {
                "start_time": 4.4431818,
                "end_time": 4.5113636,
                "pitch": 75,
                "velocity": 25,
                "duration": 0.0681818,
                "tempo": 120.0
            },
            {
                "start_time": 4.8113636,
                "end_time": 5.1454545,
                "pitch": 74,
                "velocity": 25,
                "duration": 0.3340909,
                "tempo": 120.0
            },
            {
                "start_time": 5.1613636,
                "end_time": 5.3977273,
                "pitch": 74,
                "velocity": 25,
                "duration": 0.2363636,
                "tempo": 120.0
            },
            {
                "start_time": 5.4136364,
                "end_time": 5.5159091,
                "pitch": 74,
                "velocity": 25,
                "duration": 0.1022727,
                "tempo": 120.0
            },
            {
                "start_time": 5.5318182,
                "end_time": 5.7363636,
                "pitch": 75,
                "velocity": 25,
                "duration": 0.2045455,
                "tempo": 120.0
            },
            {
                "start_time": 6.0227273,
                "end_time": 6.0727273,
                "pitch": 77,
                "velocity": 25,
                "duration": 0.05,
                "tempo": 120.0
            },
            {
                "start_time": 6.3613636,
                "end_time": 6.7136364,
                "pitch": 75,
                "velocity": 25,
                "duration": 0.3522727,
                "tempo": 120.0
            },
            {
                "start_time": 6.7295455,
                "end_time": 7.0704545,
                "pitch": 82,
                "velocity": 25,
                "duration": 0.3409091,
                "tempo": 120.0
            },
            {
                "start_time": 7.1022727,
                "end_time": 7.6454545,
                "pitch": 82,
                "velocity": 25,
                "duration": 0.5431818,
                "tempo": 120.0
            },
            {
                "start_time": 7.95,
                "end_time": 8.2840909,
                "pitch": 77,
                "velocity": 25,
                "duration": 0.3340909,
                "tempo": 120.0
            },
            {
                "start_time": 8.3181818,
                "end_time": 8.6409091,
                "pitch": 75,
                "velocity": 25,
                "duration": 0.3227273,
                "tempo": 120.0
            },
            {
                "start_time": 8.6568182,
                "end_time": 9.0022727,
                "pitch": 74,
                "velocity": 25,
                "duration": 0.3454545,
                "tempo": 120.0
            },
            {
                "start_time": 9.0204545,
                "end_time": 9.2409091,
                "pitch": 74,
                "velocity": 25,
                "duration": 0.2204545,
                "tempo": 120.0
            },
            {
                "start_time": 9.2590909,
                "end_time": 9.3613636,
                "pitch": 74,
                "velocity": 25,
                "duration": 0.1022727,
                "tempo": 120.0
            },
            {
                "start_time": 9.3772727,
                "end_time": 9.8477273,
                "pitch": 75,
                "velocity": 25,
                "duration": 0.4704545,
                "tempo": 120.0
            },
            {
                "start_time": 9.8636364,
                "end_time": 10.2181818,
                "pitch": 77,
                "velocity": 25,
                "duration": 0.3545455,
                "tempo": 120.0
            },
            {
                "start_time": 10.2340909,
                "end_time": 10.575,
                "pitch": 75,
                "velocity": 25,
                "duration": 0.3409091,
                "tempo": 120.0
            },
            {
                "start_time": 10.5909091,
                "end_time": 10.9431818,
                "pitch": 73,
                "velocity": 25,
                "duration": 0.3522727,
                "tempo": 120.0
            },
            {
                "start_time": 10.9613636,
                "end_time": 11.5409091,
                "pitch": 73,
                "velocity": 25,
                "duration": 0.5795455,
                "tempo": 120.0
            },
            {
                "start_time": 11.5568182,
                "end_time": 11.625,
                "pitch": 73,
                "velocity": 25,
                "duration": 0.0681818,
                "tempo": 120.0
            },
            {
                "start_time": 11.9272727,
                "end_time": 12.6386364,
                "pitch": 75,
                "velocity": 25,
                "duration": 0.7113636,
                "tempo": 120.0
            },
            {
                "start_time": 12.6568182,
                "end_time": 12.875,
                "pitch": 75,
                "velocity": 25,
                "duration": 0.2181818,
                "tempo": 120.0
            },
            {
                "start_time": 12.8931818,
                "end_time": 13.1113636,
                "pitch": 75,
                "velocity": 25,
                "duration": 0.2181818,
                "tempo": 120.0
            },
            {
                "start_time": 13.1454545,
                "end_time": 13.2454545,
                "pitch": 75,
                "velocity": 25,
                "duration": 0.1,
                "tempo": 120.0
            },
            {
                "start_time": 13.2613636,
                "end_time": 13.475,
                "pitch": 75,
                "velocity": 25,
                "duration": 0.2136364,
                "tempo": 120.0
            },
            {
                "start_time": 13.4909091,
                "end_time": 14.5613636,
                "pitch": 77,
                "velocity": 25,
                "duration": 1.0704545,
                "tempo": 120.0
            },
            {
                "start_time": 14.5772727,
                "end_time": 14.6795455,
                "pitch": 77,
                "velocity": 25,
                "duration": 0.1022727,
                "tempo": 120.0
            },
            {
                "start_time": 14.6954545,
                "end_time": 14.7977273,
                "pitch": 77,
                "velocity": 25,
                "duration": 0.1022727,
                "tempo": 120.0
            },
            {
                "start_time": 14.8159091,
                "end_time": 14.9181818,
                "pitch": 77,
                "velocity": 25,
                "duration": 0.1022727,
                "tempo": 120.0
            },
            {
                "start_time": 14.9522727,
                "end_time": 15.4068182,
                "pitch": 77,
                "velocity": 25,
                "duration": 0.4545455,
                "tempo": 120.0
            },
            {
                "start_time": 15.425,
                "end_time": 15.6568182,
                "pitch": 53,
                "velocity": 25,
                "duration": 0.2318182,
                "tempo": 120.0
            },
            {
                "start_time": 15.6727273,
                "end_time": 15.7045455,
                "pitch": 77,
                "velocity": 25,
                "duration": 0.0318182,
                "tempo": 120.0
            },
            {
                "start_time": 16.0090909,
                "end_time": 16.2409091,
                "pitch": 75,
                "velocity": 25,
                "duration": 0.2318182,
                "tempo": 120.0
            },
            {
                "start_time": 16.2590909,
                "end_time": 16.3613636,
                "pitch": 75,
                "velocity": 25,
                "duration": 0.1022727,
                "tempo": 120.0
            },
            {
                "start_time": 16.3795455,
                "end_time": 16.4636364,
                "pitch": 74,
                "velocity": 25,
                "duration": 0.0840909,
                "tempo": 120.0
            },
            {
                "start_time": 16.7522727,
                "end_time": 16.9704545,
                "pitch": 74,
                "velocity": 25,
                "duration": 0.2181818,
                "tempo": 120.0
            },
            {
                "start_time": 16.9863636,
                "end_time": 17.0863636,
                "pitch": 74,
                "velocity": 25,
                "duration": 0.1,
                "tempo": 120.0
            },
            {
                "start_time": 17.1045455,
                "end_time": 17.2045455,
                "pitch": 75,
                "velocity": 25,
                "duration": 0.1,
                "tempo": 120.0
            },
            {
                "start_time": 17.2227273,
                "end_time": 17.3227273,
                "pitch": 74,
                "velocity": 25,
                "duration": 0.1,
                "tempo": 120.0
            },
            {
                "start_time": 17.3568182,
                "end_time": 17.4068182,
                "pitch": 73,
                "velocity": 25,
                "duration": 0.05,
                "tempo": 120.0
            },
            {
                "start_time": 17.7113636,
                "end_time": 17.9340909,
                "pitch": 72,
                "velocity": 25,
                "duration": 0.2227273,
                "tempo": 120.0
            },
            {
                "start_time": 17.9681818,
                "end_time": 18.0681818,
                "pitch": 72,
                "velocity": 25,
                "duration": 0.1,
                "tempo": 120.0
            },
            {
                "start_time": 18.0840909,
                "end_time": 18.9772727,
                "pitch": 73,
                "velocity": 25,
                "duration": 0.8931818,
                "tempo": 120.0
            },
            {
                "start_time": 19.5159091,
                "end_time": 19.5659091,
                "pitch": 75,
                "velocity": 25,
                "duration": 0.05,
                "tempo": 120.0
            },
            {
                "start_time": 19.8863636,
                "end_time": 19.9181818,
                "pitch": 73,
                "velocity": 25,
                "duration": 0.0318182,
                "tempo": 120.0
            },
            {
                "start_time": 20.2431818,
                "end_time": 20.4795455,
                "pitch": 75,
                "velocity": 25,
                "duration": 0.2363636,
                "tempo": 120.0
            },
            {
                "start_time": 20.4954545,
                "end_time": 20.7045455,
                "pitch": 79,
                "velocity": 25,
                "duration": 0.2090909,
                "tempo": 120.0
            },
            {
                "start_time": 20.7204545,
                "end_time": 20.8159091,
                "pitch": 79,
                "velocity": 25,
                "duration": 0.0954545,
                "tempo": 120.0
            },
            {
                "start_time": 20.8318182,
                "end_time": 21.1840909,
                "pitch": 75,
                "velocity": 25,
                "duration": 0.3522727,
                "tempo": 120.0
            },
            {
                "start_time": 21.2022727,
                "end_time": 21.2704545,
                "pitch": 77,
                "velocity": 25,
                "duration": 0.0681818,
                "tempo": 120.0
            },
            {
                "start_time": 21.575,
                "end_time": 21.7931818,
                "pitch": 75,
                "velocity": 25,
                "duration": 0.2181818,
                "tempo": 120.0
            },
            {
                "start_time": 21.8113636,
                "end_time": 21.9113636,
                "pitch": 75,
                "velocity": 25,
                "duration": 0.1,
                "tempo": 120.0
            },
            {
                "start_time": 21.9272727,
                "end_time": 22.1431818,
                "pitch": 77,
                "velocity": 25,
                "duration": 0.2159091,
                "tempo": 120.0
            },
            {
                "start_time": 22.1772727,
                "end_time": 22.5136364,
                "pitch": 82,
                "velocity": 25,
                "duration": 0.3363636,
                "tempo": 120.0
            },
            {
                "start_time": 22.5318182,
                "end_time": 22.8886364,
                "pitch": 81,
                "velocity": 25,
                "duration": 0.3568182,
                "tempo": 120.0
            },
            {
                "start_time": 22.9045455,
                "end_time": 23.1181818,
                "pitch": 77,
                "velocity": 25,
                "duration": 0.2136364,
                "tempo": 120.0
            },
            {
                "start_time": 23.1340909,
                "end_time": 23.3477273,
                "pitch": 53,
                "velocity": 25,
                "duration": 0.2136364,
                "tempo": 120.0
            },
            {
                "start_time": 23.3818182,
                "end_time": 23.4159091,
                "pitch": 77,
                "velocity": 25,
                "duration": 0.0340909,
                "tempo": 120.0
            },
            {
                "start_time": 23.7340909,
                "end_time": 23.9522727,
                "pitch": 75,
                "velocity": 25,
                "duration": 0.2181818,
                "tempo": 120.0
            },
            {
                "start_time": 23.9863636,
                "end_time": 24.0863636,
                "pitch": 75,
                "velocity": 25,
                "duration": 0.1,
                "tempo": 120.0
            },
            {
                "start_time": 24.1045455,
                "end_time": 24.1886364,
                "pitch": 74,
                "velocity": 25,
                "duration": 0.0840909,
                "tempo": 120.0
            },
            {
                "start_time": 24.4568182,
                "end_time": 24.6931818,
                "pitch": 74,
                "velocity": 25,
                "duration": 0.2363636,
                "tempo": 120.0
            },
            {
                "start_time": 24.7090909,
                "end_time": 24.8090909,
                "pitch": 74,
                "velocity": 25,
                "duration": 0.1,
                "tempo": 120.0
            },
            {
                "start_time": 24.8272727,
                "end_time": 24.9295455,
                "pitch": 75,
                "velocity": 25,
                "duration": 0.1022727,
                "tempo": 120.0
            },
            {
                "start_time": 24.9477273,
                "end_time": 25.05,
                "pitch": 74,
                "velocity": 25,
                "duration": 0.1022727,
                "tempo": 120.0
            },
            {
                "start_time": 25.0659091,
                "end_time": 25.1340909,
                "pitch": 73,
                "velocity": 25,
                "duration": 0.0681818,
                "tempo": 120.0
            },
            {
                "start_time": 25.4318182,
                "end_time": 25.6386364,
                "pitch": 72,
                "velocity": 25,
                "duration": 0.2068182,
                "tempo": 120.0
            },
            {
                "start_time": 25.6545455,
                "end_time": 25.7522727,
                "pitch": 72,
                "velocity": 25,
                "duration": 0.0977273,
                "tempo": 120.0
            },
            {
                "start_time": 25.7863636,
                "end_time": 26.6977273,
                "pitch": 73,
                "velocity": 25,
                "duration": 0.9113636,
                "tempo": 120.0
            },
            {
                "start_time": 27.2340909,
                "end_time": 27.3386364,
                "pitch": 75,
                "velocity": 25,
                "duration": 0.1045455,
                "tempo": 120.0
            },
            {
                "start_time": 27.3545455,
                "end_time": 27.5772727,
                "pitch": 74,
                "velocity": 25,
                "duration": 0.2227273,
                "tempo": 120.0
            },
            {
                "start_time": 27.6113636,
                "end_time": 27.8227273,
                "pitch": 75,
                "velocity": 25,
                "duration": 0.2113636,
                "tempo": 120.0
            },
            {
                "start_time": 27.8386364,
                "end_time": 27.9340909,
                "pitch": 74,
                "velocity": 25,
                "duration": 0.0954545,
                "tempo": 120.0
            },
            {
                "start_time": 27.9522727,
                "end_time": 28.0636364,
                "pitch": 74,
                "velocity": 25,
                "duration": 0.1113636,
                "tempo": 120.0
            },
            {
                "start_time": 28.4340909,
                "end_time": 28.9068182,
                "pitch": 79,
                "velocity": 25,
                "duration": 0.4727273,
                "tempo": 120.0
            },
            {
                "start_time": 28.925,
                "end_time": 29.2590909,
                "pitch": 77,
                "velocity": 25,
                "duration": 0.3340909,
                "tempo": 120.0
            },
            {
                "start_time": 29.2772727,
                "end_time": 29.5113636,
                "pitch": 75,
                "velocity": 25,
                "duration": 0.2340909,
                "tempo": 120.0
            },
            {
                "start_time": 29.5295455,
                "end_time": 29.6295455,
                "pitch": 75,
                "velocity": 25,
                "duration": 0.1,
                "tempo": 120.0
            },
            {
                "start_time": 29.6477273,
                "end_time": 30.125,
                "pitch": 77,
                "velocity": 25,
                "duration": 0.4772727,
                "tempo": 120.0
            },
            {
                "start_time": 30.1409091,
                "end_time": 30.3545455,
                "pitch": 82,
                "velocity": 25,
                "duration": 0.2136364,
                "tempo": 120.0
            },
            {
                "start_time": 30.3704545,
                "end_time": 30.5840909,
                "pitch": 81,
                "velocity": 25,
                "duration": 0.2136364,
                "tempo": 120.0
            },
            {
                "start_time": 30.6181818,
                "end_time": 30.8363636,
                "pitch": 79,
                "velocity": 25,
                "duration": 0.2181818,
                "tempo": 120.0
            },
            {
                "start_time": 30.8522727,
                "end_time": 30.9522727,
                "pitch": 60,
                "velocity": 25,
                "duration": 0.1,
                "tempo": 120.0
            },
            {
                "start_time": 30.9704545,
                "end_time": 31.0704545,
                "pitch": 60,
                "velocity": 25,
                "duration": 0.1,
                "tempo": 120.0
            },
            {
                "start_time": 31.0886364,
                "end_time": 31.4409091,
                "pitch": 77,
                "velocity": 25,
                "duration": 0.3522727,
                "tempo": 120.0
            },
            {
                "start_time": 31.4568182,
                "end_time": 32.6386364,
                "pitch": 76,
                "velocity": 25,
                "duration": 1.1818182,
                "tempo": 120.0
            },
            {
                "start_time": 33.0318182,
                "end_time": 33.1318182,
                "pitch": 75,
                "velocity": 25,
                "duration": 0.1,
                "tempo": 120.0
            },
            {
                "start_time": 33.15,
                "end_time": 33.3659091,
                "pitch": 74,
                "velocity": 25,
                "duration": 0.2159091,
                "tempo": 120.0
            },
            {
                "start_time": 33.3818182,
                "end_time": 34.5727273,
                "pitch": 75,
                "velocity": 25,
                "duration": 1.1909091,
                "tempo": 120.0
            },
            {
                "start_time": 34.7090909,
                "end_time": 34.9477273,
                "pitch": 77,
                "velocity": 25,
                "duration": 0.2386364,
                "tempo": 120.0
            },
            {
                "start_time": 34.9636364,
                "end_time": 35.0613636,
                "pitch": 77,
                "velocity": 25,
                "duration": 0.0977273,
                "tempo": 120.0
            },
            {
                "start_time": 35.0795455,
                "end_time": 35.2909091,
                "pitch": 77,
                "velocity": 25,
                "duration": 0.2113636,
                "tempo": 120.0
            },
            {
                "start_time": 35.3090909,
                "end_time": 36.4931818,
                "pitch": 76,
                "velocity": 25,
                "duration": 1.1840909,
                "tempo": 120.0
            },
            {
                "start_time": 36.6431818,
                "end_time": 36.7431818,
                "pitch": 77,
                "velocity": 25,
                "duration": 0.1,
                "tempo": 120.0
            },
            {
                "start_time": 36.7613636,
                "end_time": 36.7931818,
                "pitch": 77,
                "velocity": 25,
                "duration": 0.0318182,
                "tempo": 120.0
            },
            {
                "start_time": 37.2545455,
                "end_time": 37.5840909,
                "pitch": 77,
                "velocity": 25,
                "duration": 0.3295455,
                "tempo": 120.0
            },
            {
                "start_time": 37.6,
                "end_time": 38.0,
                "pitch": 79,
                "velocity": 25,
                "duration": 0.4,
                "tempo": 120.0
            },
            {
                "start_time": 38.0159091,
                "end_time": 39.0204545,
                "pitch": 79,
                "velocity": 25,
                "duration": 1.0045455,
                "tempo": 120.0
            },
            {
                "start_time": 39.0545455,
                "end_time": 39.2727273,
                "pitch": 79,
                "velocity": 25,
                "duration": 0.2181818,
                "tempo": 120.0
            },
            {
                "start_time": 39.2886364,
                "end_time": 39.5113636,
                "pitch": 79,
                "velocity": 25,
                "duration": 0.2227273,
                "tempo": 120.0
            },
            {
                "start_time": 39.5295455,
                "end_time": 39.7659091,
                "pitch": 60,
                "velocity": 25,
                "duration": 0.2363636,
                "tempo": 120.0
            },
            {
                "start_time": 39.7818182,
                "end_time": 39.8295455,
                "pitch": 77,
                "velocity": 25,
                "duration": 0.0477273,
                "tempo": 120.0
            },
            {
                "start_time": 40.1181818,
                "end_time": 40.3522727,
                "pitch": 76,
                "velocity": 25,
                "duration": 0.2340909,
                "tempo": 120.0
            },
            {
                "start_time": 40.3681818,
                "end_time": 41.2272727,
                "pitch": 77,
                "velocity": 25,
                "duration": 0.8590909,
                "tempo": 120.0
            },
            {
                "start_time": 41.6977273,
                "end_time": 41.7818182,
                "pitch": 73,
                "velocity": 25,
                "duration": 0.0840909,
                "tempo": 120.0
            },
            {
                "start_time": 42.0727273,
                "end_time": 42.2886364,
                "pitch": 79,
                "velocity": 25,
                "duration": 0.2159091,
                "tempo": 120.0
            },
            {
                "start_time": 42.3045455,
                "end_time": 43.3704545,
                "pitch": 77,
                "velocity": 25,
                "duration": 1.0659091,
                "tempo": 120.0
            },
            {
                "start_time": 43.3863636,
                "end_time": 43.6045455,
                "pitch": 63,
                "velocity": 25,
                "duration": 0.2181818,
                "tempo": 120.0
            },
            {
                "start_time": 43.6227273,
                "end_time": 43.9795455,
                "pitch": 75,
                "velocity": 25,
                "duration": 0.3568182,
                "tempo": 120.0
            },
            {
                "start_time": 43.9977273,
                "end_time": 44.3340909,
                "pitch": 79,
                "velocity": 25,
                "duration": 0.3363636,
                "tempo": 120.0
            },
            {
                "start_time": 44.3522727,
                "end_time": 44.7,
                "pitch": 82,
                "velocity": 25,
                "duration": 0.3477273,
                "tempo": 120.0
            },
            {
                "start_time": 44.7181818,
                "end_time": 45.0454545,
                "pitch": 81,
                "velocity": 25,
                "duration": 0.3272727,
                "tempo": 120.0
            },
            {
                "start_time": 45.0795455,
                "end_time": 45.2954545,
                "pitch": 77,
                "velocity": 25,
                "duration": 0.2159091,
                "tempo": 120.0
            },
            {
                "start_time": 45.3113636,
                "end_time": 46.2590909,
                "pitch": 81,
                "velocity": 25,
                "duration": 0.9477273,
                "tempo": 120.0
            }
        ]
    }
}