{
    "mood": "happy",
    "instruments": {
        "Vibraphone": [
            {
                "start_time": 0.0136364,
                "end_time": 0.1113636,
                "pitch": 45,
                "velocity": 25,
                "duration": 0.0977273,
                "tempo": 120.0
            },
            {
                "start_time": 0.125,
                "end_time": 0.1795455,
                "pitch": 45,
                "velocity": 25,
                "duration": 0.0545455,
                "tempo": 120.0
            },
            {
                "start_time": 0.1954545,
                "end_time": 0.3318182,
                "pitch": 45,
                "velocity": 25,
                "duration": 0.1363636,
                "tempo": 120.0
            },
            {
                "start_time": 0.3477273,
                "end_time": 0.4181818,
                "pitch": 45,
                "velocity": 25,
                "duration": 0.0704545,
                "tempo": 120.0
            },
            {
                "start_time": 0.4340909,
                "end_time": 0.5886364,
                "pitch": 45,
                "velocity": 25,
                "duration": 0.1545455,
                "tempo": 120.0
            },
            {
                "start_time": 0.6045455,
                "end_time": 0.6568182,
                "pitch": 45,
                "velocity": 25,
                "duration": 0.0522727,
                "tempo": 120.0
            },
            {
                "start_time": 0.6909091,
                "end_time": 0.8227273,
                "pitch": 45,
                "velocity": 25,
                "duration": 0.1318182,
                "tempo": 120.0
            },
            {
                "start_time": 0.8409091,
                "end_time": 0.9068182,
                "pitch": 45,
                "velocity": 25,
                "duration": 0.0659091,
                "tempo": 120.0
            },
            {
                "start_time": 0.9227273,
                "end_time": 1.0568182,
                "pitch": 45,
                "velocity": 25,
                "duration": 0.1340909,
                "tempo": 120.0
            },
            {
                "start_time": 1.0909091,
                "end_time": 1.1409091,
                "pitch": 45,
                "velocity": 25,
                "duration": 0.05,
                "tempo": 120.0
            },
            {
                "start_time": 1.1568182,
                "end_time": 1.3045455,
                "pitch": 43,
                "velocity": 25,
                "duration": 0.1477273,
                "tempo": 120.0
            },
            {
                "start_time": 1.3204545,
                "end_time": 1.3863636,
                "pitch": 43,
                "velocity": 25,
                "duration": 0.0659091,
                "tempo": 120.0
            },
            {
                "start_time": 1.4022727,
                "end_time": 1.5340909,
                "pitch": 42,
                "velocity": 25,
                "duration": 0.1318182,
                "tempo": 120.0
            },
            {
                "start_time": 1.55,
                "end_time": 1.6159091,
                "pitch": 42,
                "velocity": 25,
                "duration": 0.0659091,
                "tempo": 120.0
            },
            {
                "start_time": 1.6318182,
                "end_time": 1.7863636,
                "pitch": 43,
                "velocity": 25,
                "duration": 0.1545455,
                "tempo": 120.0
            },
            {
                "start_time": 1.8022727,
                "end_time": 1.8545455,
                "pitch": 45,
                "velocity": 25,
                "duration": 0.0522727,
                "tempo": 120.0
            },
            {
                "start_time": 1.8886364,
                "end_time": 2.025,
                "pitch": 38,
                "velocity": 25,
                "duration": 0.1363636,
                "tempo": 120.0
            },
            {
                "start_time": 2.0409091,
                "end_time": 2.1113636,
                "pitch": 38,
                "velocity": 25,
                "duration": 0.0704545,
                "tempo": 120.0
            },
            {
                "start_time": 2.1272727,
                "end_time": 2.2613636,
                "pitch": 38,
                "velocity": 25,
                "duration": 0.1340909,
                "tempo": 120.0
            },
            {
                "start_time": 2.2931818,
                "end_time": 2.3431818,
                "pitch": 38,
                "velocity": 25,
                "duration": 0.05,
                "tempo": 120.0
            },
            {
                "start_time": 2.3613636,
                "end_time": 2.5113636,
                "pitch": 38,
                "velocity": 25,
                "duration": 0.15,
                "tempo": 120.0
            },
            {
                "start_time": 2.5272727,
                "end_time": 2.5931818,
                "pitch": 38,
                "velocity": 25,
                "duration": 0.0659091,
                "tempo": 120.0
            },
            {
                "start_time": 2.6113636,
                "end_time": 2.7431818,
                "pitch": 38,
                "velocity": 25,
                "duration": 0.1318182,
                "tempo": 120.0
            },
            {
                "start_time": 2.7613636,
                "end_time": 2.8272727,
                "pitch": 38,
                "velocity": 25,
                "duration": 0.0659091,
                "tempo": 120.0
            },
            {
                "start_time": 2.8431818,
                "end_time": 2.9931818,
                "pitch": 38,
                "velocity": 25,
                "duration": 0.15,
                "tempo": 120.0
            },
            {
                "start_time": 3.0113636,
                "end_time": 3.0613636,
                "pitch": 38,
                "velocity": 25,
                "duration": 0.05,
                "tempo": 120.0
            },
            {
                "start_time": 3.0931818,
                "end_time": 3.2272727,
                "pitch": 38,
                "velocity": 25,
                "duration": 0.1340909,
                "tempo": 120.0
            },
            {
                "start_time": 3.2431818,
                "end_time": 3.3113636,
                "pitch": 38,
                "velocity": 25,
                "duration": 0.0681818,
                "tempo": 120.0
            },
            {
                "start_time": 3.3272727,
                "end_time": 3.4613636,
                "pitch": 38,
                "velocity": 25,
                "duration": 0.1340909,
                "tempo": 120.0
            },
            {
                "start_time": 3.4931818,
                "end_time": 3.5431818,
                "pitch": 37,
                "velocity": 25,
                "duration": 0.05,
                "tempo": 120.0
            },
            {
                "start_time": 3.5613636,
                "end_time": 3.7090909,
                "pitch": 38,
                "velocity": 25,
                "duration": 0.1477273,
                "tempo": 120.0
            },
            {
                "start_time": 3.725,
                "end_time": 3.7909091,
                "pitch": 40,
                "velocity": 25,
                "duration": 0.0659091,
                "tempo": 120.0
            },
            {
                "start_time": 3.8068182,
                "end_time": 3.9386364,
                "pitch": 45,
                "velocity": 25,
                "duration": 0.1318182,
                "tempo": 120.0
            },
            {
                "start_time": 3.9545455,
                "end_time": 4.0204545,
                "pitch": 45,
                "velocity": 25,
                "duration": 0.0659091,
                "tempo": 120.0
            },
            {
                "start_time": 4.0363636,
                "end_time": 4.1886364,
                "pitch": 45,
                "velocity": 25,
                "duration": 0.1522727,
                "tempo": 120.0
            },
            {
                "start_time": 4.2068182,
                "end_time": 4.2590909,
                "pitch": 45,
                "velocity": 25,
                "duration": 0.0522727,
                "tempo": 120.0
            },
            {
                "start_time": 4.2931818,
                "end_time": 4.4295455,
                "pitch": 45,
                "velocity": 25,
                "duration": 0.1363636,
                "tempo": 120.0
            },
            {
                "start_time": 4.4454545,
                "end_time": 4.5136364,
                "pitch": 45,
                "velocity": 25,
                "duration": 0.0681818,
                "tempo": 120.0
            },
            {
                "start_time": 4.5318182,
                "end_time": 4.6636364,
                "pitch": 45,
                "velocity": 25,
                "duration": 0.1318182,
                "tempo": 120.0
            },
            {
                "start_time": 4.6977273,
                "end_time": 4.7477273,
                "pitch": 45,
                "velocity": 25,
                "duration": 0.05,
                "tempo": 120.0
            },
            {
                "start_time": 4.7636364,
                "end_time": 4.9136364,
                "pitch": 45,
                "velocity": 25,
                "duration": 0.15,
                "tempo": 120.0
            },
            {
                "start_time": 4.9318182,
                "end_time": 4.9977273,
                "pitch": 45,
                "velocity": 25,
                "duration": 0.0659091,
                "tempo": 120.0
            },
            {
                "start_time": 5.0136364,
                "end_time": 5.15,
                "pitch": 43,
                "velocity": 25,
                "duration": 0.1363636,
                "tempo": 120.0
            },
            {
                "start_time": 5.1659091,
                "end_time": 5.2340909,
                "pitch": 43,
                "velocity": 25,
                "duration": 0.0681818,
                "tempo": 120.0
            },
            {
                "start_time": 5.25,
                "end_time": 5.4,
                "pitch": 42,
                "velocity": 25,
                "duration": 0.15,
                "tempo": 120.0
            },
            {
                "start_time": 5.4181818,
                "end_time": 5.4681818,
                "pitch": 42,
                "velocity": 25,
                "duration": 0.05,
                "tempo": 120.0
            },
            {
                "start_time": 5.5022727,
                "end_time": 5.6340909,
                "pitch": 43,
                "velocity": 25,
                "duration": 0.1318182,
                "tempo": 120.0
            },
            {
                "start_time": 5.6522727,
                "end_time": 5.7181818,
                "pitch": 45,
                "velocity": 25,
                "duration": 0.0659091,
                "tempo": 120.0
            },
            {
                "start_time": 5.7340909,
                "end_time": 5.8681818,
                "pitch": 38,
                "velocity": 25,
                "duration": 0.1340909,
                "tempo": 120.0
            },
            {
                "start_time": 5.9022727,
                "end_time": 5.9522727,
                "pitch": 38,
                "velocity": 25,
                "duration": 0.05,
                "tempo": 120.0
            },
            {
                "start_time": 5.9681818,
                "end_time": 6.1159091,
                "pitch": 38,
                "velocity": 25,
                "duration": 0.1477273,
                "tempo": 120.0
            },
            {
                "start_time": 6.1318182,
                "end_time": 6.1977273,
                "pitch": 38,
                "velocity": 25,
                "duration": 0.0659091,
                "tempo": 120.0
            },
            {
                "start_time": 6.2136364,
                "end_time": 6.3454545,
                "pitch": 38,
                "velocity": 25,
                "duration": 0.1318182,
                "tempo": 120.0
            },
            {
                "start_time": 6.3613636,
                "end_time": 6.4272727,
                "pitch": 38,
                "velocity": 25,
                "duration": 0.0659091,
                "tempo": 120.0
            },
            {
                "start_time": 6.4431818,
                "end_time": 6.5977273,
                "pitch": 38,
                "velocity": 25,
                "duration": 0.1545455,
                "tempo": 120.0
            },
            {
                "start_time": 6.6136364,
                "end_time": 6.6659091,
                "pitch": 38,
                "velocity": 25,
                "duration": 0.0522727,
                "tempo": 120.0
            },
            {
                "start_time": 6.7,
                "end_time": 6.8363636,
                "pitch": 38,
                "velocity": 25,
                "duration": 0.1363636,
                "tempo": 120.0
            },
            {
                "start_time": 6.8545455,
                "end_time": 6.9227273,
                "pitch": 38,
                "velocity": 25,
                "duration": 0.0681818,
                "tempo": 120.0
            },
            {
                "start_time": 6.9386364,
                "end_time": 7.0727273,
                "pitch": 42,
                "velocity": 25,
                "duration": 0.1340909,
                "tempo": 120.0
            },
            {
                "start_time": 7.1068182,
                "end_time": 7.1568182,
                "pitch": 42,
                "velocity": 25,
                "duration": 0.05,
                "tempo": 120.0
            },
            {
                "start_time": 7.175,
                "end_time": 7.325,
                "pitch": 43,
                "velocity": 25,
                "duration": 0.15,
                "tempo": 120.0
            },
            {
                "start_time": 7.3431818,
                "end_time": 7.4090909,
                "pitch": 43,
                "velocity": 25,
                "duration": 0.0659091,
                "tempo": 120.0
            },
            {
                "start_time": 7.4272727,
                "end_time": 7.5636364,
                "pitch": 44,
                "velocity": 25,
                "duration": 0.1363636,
                "tempo": 120.0
            },
            {
                "start_time": 7.5795455,
                "end_time": 7.6477273,
                "pitch": 44,
                "velocity": 25,
                "duration": 0.0681818,
                "tempo": 120.0
            },
            {
                "start_time": 7.6659091,
                "end_time": 7.8181818,
                "pitch": 45,
                "velocity": 25,
                "duration": 0.1522727,
                "tempo": 120.0
            },
            {
                "start_time": 7.8363636,
                "end_time": 7.8863636,
                "pitch": 45,
                "velocity": 25,
                "duration": 0.05,
                "tempo": 120.0
            },
            {
                "start_time": 7.9204545,
                "end_time": 8.0522727,
                "pitch": 45,
                "velocity": 25,
                "duration": 0.1318182,
                "tempo": 120.0
            },
            {
                "start_time": 8.0681818,
                "end_time": 8.1340909,
                "pitch": 45,
                "velocity": 25,
                "duration": 0.0659091,
                "tempo": 120.0
            },
            {
                "start_time": 8.15,
                "end_time": 8.2818182,
                "pitch": 45,
                "velocity": 25,
                "duration": 0.1318182,
                "tempo": 120.0
            },
            {
                "start_time": 8.3136364,
                "end_time": 8.3636364,
                "pitch": 45,
                "velocity": 25,
                "duration": 0.05,
                "tempo": 120.0
            },
            {
                "start_time": 8.3795455,
                "end_time": 8.5272727,
                "pitch": 45,
                "velocity": 25,
                "duration": 0.1477273,
                "tempo": 120.0
            },
            {
                "start_time": 8.5431818,
                "end_time": 8.6090909,
                "pitch": 45,
                "velocity": 25,
                "duration": 0.0659091,
                "tempo": 120.0
            },
            {
                "start_time": 8.6272727,
                "end_time": 8.7568182,
                "pitch": 45,
                "velocity": 25,
                "duration": 0.1295455,
                "tempo": 120.0
            },
            {
                "start_time": 8.775,
                "end_time": 8.8386364,
                "pitch": 45,
                "velocity": 25,
                "duration": 0.0636364,
                "tempo": 120.0
            },
            {
                "start_time": 8.8568182,
                "end_time": 9.0090909,
                "pitch": 43,
                "velocity": 25,
                "duration": 0.1522727,
                "tempo": 120.0
            },
            {
                "start_time": 9.0272727,
                "end_time": 9.0772727,
                "pitch": 43,
                "velocity": 25,
                "duration": 0.05,
                "tempo": 120.0
            },
            {
                "start_time": 9.1113636,
                "end_time": 9.2477273,
                "pitch": 42,
                "velocity": 25,
                "duration": 0.1363636,
                "tempo": 120.0
            },
            {
                "start_time": 9.2659091,
                "end_time": 9.3340909,
                "pitch": 42,
                "velocity": 25,
                "duration": 0.0681818,
                "tempo": 120.0
            },
            {
                "start_time": 9.35,
                "end_time": 9.4863636,
                "pitch": 43,
                "velocity": 25,
                "duration": 0.1363636,
                "tempo": 120.0
            },
            {
                "start_time": 9.5181818,
                "end_time": 9.5704545,
                "pitch": 45,
                "velocity": 25,
                "duration": 0.0522727,
                "tempo": 120.0
            },
            {
                "start_time": 9.5863636,
                "end_time": 9.7363636,
                "pitch": 38,
                "velocity": 25,
                "duration": 0.15,
                "tempo": 120.0
            },
            {
                "start_time": 9.7545455,
                "end_time": 9.8204545,
                "pitch": 38,
                "velocity": 25,
                "duration": 0.0659091,
                "tempo": 120.0
            },
            {
                "start_time": 9.8386364,
                "end_time": 9.9727273,
                "pitch": 38,
                "velocity": 25,
                "duration": 0.1340909,
                "tempo": 120.0
            },
            {
                "start_time": 9.9886364,
                "end_time": 10.0568182,
                "pitch": 38,
                "velocity": 25,
                "duration": 0.0681818,
                "tempo": 120.0
            },
            {
                "start_time": 10.0727273,
                "end_time": 10.225,
                "pitch": 38,
                "velocity": 25,
                "duration": 0.1522727,
                "tempo": 120.0
            },
            {
                "start_time": 10.2409091,
                "end_time": 10.2909091,
                "pitch": 38,
                "velocity": 25,
                "duration": 0.05,
                "tempo": 120.0
            },
            {
                "start_time": 10.325,
                "end_time": 10.4613636,
                "pitch": 38,
                "velocity": 25,
                "duration": 0.1363636,
                "tempo": 120.0
            },
            {
                "start_time": 10.4795455,
                "end_time": 10.5477273,
                "pitch": 38,
                "velocity": 25,
                "duration": 0.0681818,
                "tempo": 120.0
            },
            {
                "start_time": 10.5636364,
                "end_time": 10.7,
                "pitch": 38,
                "velocity": 25,
                "duration": 0.1363636,
                "tempo": 120.0
            },
            {
                "start_time": 10.7340909,
                "end_time": 10.7863636,
                "pitch": 38,
                "velocity": 25,
                "duration": 0.0522727,
                "tempo": 120.0
            },
            {
                "start_time": 10.8022727,
                "end_time": 10.9477273,
                "pitch": 38,
                "velocity": 25,
                "duration": 0.1454545,
                "tempo": 120.0
            },
            {
                "start_time": 10.9636364,
                "end_time": 11.0272727,
                "pitch": 38,
                "velocity": 25,
                "duration": 0.0636364,
                "tempo": 120.0
            },
            {
                "start_time": 11.0431818,
                "end_time": 11.1727273,
                "pitch": 38,
                "velocity": 25,
                "duration": 0.1295455,
                "tempo": 120.0
            },
            {
                "start_time": 11.1886364,
                "end_time": 11.2522727,
                "pitch": 37,
                "velocity": 25,
                "duration": 0.0636364,
                "tempo": 120.0
            },
            {
                "start_time": 11.2681818,
                "end_time": 11.4886364,
                "pitch": 38,
                "velocity": 25,
                "duration": 0.2204545,
                "tempo": 120.0
            },
            {
                "start_time": 11.5227273,
                "end_time": 11.6613636,
                "pitch": 40,
                "velocity": 25,
                "duration": 0.1386364,
                "tempo": 120.0
            },
            {
                "start_time": 11.6772727,
                "end_time": 11.7454545,
                "pitch": 40,
                "velocity": 25,
                "duration": 0.0681818,
                "tempo": 120.0
            },
            {
                "start_time": 11.7636364,
                "end_time": 11.8977273,
                "pitch": 40,
                "velocity": 25,
                "duration": 0.1340909,
                "tempo": 120.0
            },
            {
                "start_time": 11.9318182,
                "end_time": 11.9818182,
                "pitch": 40,
                "velocity": 25,
                "duration": 0.05,
                "tempo": 120.0
            },
            {
                "start_time": 11.9977273,
                "end_time": 12.15,
                "pitch": 40,
                "velocity": 25,
                "duration": 0.1522727,
                "tempo": 120.0
            },
            {
                "start_time": 12.1659091,
                "end_time": 12.2340909,
                "pitch": 40,
                "velocity": 25,
                "duration": 0.0681818,
                "tempo": 120.0
            },
            {
                "start_time": 12.25,
                "end_time": 12.3840909,
                "pitch": 40,
                "velocity": 25,
                "duration": 0.1340909,
                "tempo": 120.0
            },
            {
                "start_time": 12.4022727,
                "end_time": 12.4681818,
                "pitch": 40,
                "velocity": 25,
                "duration": 0.0659091,
                "tempo": 120.0
            },
            {
                "start_time": 12.4840909,
                "end_time": 12.6363636,
                "pitch": 40,
                "velocity": 25,
                "duration": 0.1522727,
                "tempo": 120.0
            },
            {
                "start_time": 12.6522727,
                "end_time": 12.7045455,
                "pitch": 40,
                "velocity": 25,
                "duration": 0.0522727,
                "tempo": 120.0
            },
            {
                "start_time": 12.7363636,
                "end_time": 12.8704545,
                "pitch": 40,
                "velocity": 25,
                "duration": 0.1340909,
                "tempo": 120.0
            },
            {
                "start_time": 12.8886364,
                "end_time": 12.9545455,
                "pitch": 40,
                "velocity": 25,
                "duration": 0.0659091,
                "tempo": 120.0
            },
            {
                "start_time": 12.9727273,
                "end_time": 13.1068182,
                "pitch": 40,
                "velocity": 25,
                "duration": 0.1340909,
                "tempo": 120.0
            },
            {
                "start_time": 13.1409091,
                "end_time": 13.1909091,
                "pitch": 40,
                "velocity": 25,
                "duration": 0.05,
                "tempo": 120.0
            },
            {
                "start_time": 13.2068182,
                "end_time": 13.3545455,
                "pitch": 40,
                "velocity": 25,
                "duration": 0.1477273,
                "tempo": 120.0
            },
            {
                "start_time": 13.3704545,
                "end_time": 13.4363636,
                "pitch": 40,
                "velocity": 25,
                "duration": 0.0659091,
                "tempo": 120.0
            },
            {
                "start_time": 13.4545455,
                "end_time": 13.5840909,
                "pitch": 40,
                "velocity": 25,
                "duration": 0.1295455,
                "tempo": 120.0
            },
            {
                "start_time": 13.6022727,
                "end_time": 13.6659091,
                "pitch": 40,
                "velocity": 25,
                "duration": 0.0636364,
                "tempo": 120.0
            },
            {
                "start_time": 13.6840909,
                "end_time": 14.075,
                "pitch": 40,
                "velocity": 25,
                "duration": 0.3909091,
                "tempo": 120.0
            },
            {
                "start_time": 14.0931818,
                "end_time": 14.1613636,
                "pitch": 40,
                "velocity": 25,
                "duration": 0.0681818,
                "tempo": 120.0
            },
            {
                "start_time": 14.1772727,
                "end_time": 14.3136364,
                "pitch": 40,
                "velocity": 25,
                "duration": 0.1363636,
                "tempo": 120.0
            },
            {
                "start_time": 14.3454545,
                "end_time": 14.3977273,
                "pitch": 40,
                "velocity": 25,
                "duration": 0.0522727,
                "tempo": 120.0
            },
            {
                "start_time": 14.4136364,
                "end_time": 14.5636364,
                "pitch": 40,
                "velocity": 25,
                "duration": 0.15,
                "tempo": 120.0
            },
            {
                "start_time": 14.5818182,
                "end_time": 14.6477273,
                "pitch": 40,
                "velocity": 25,
                "duration": 0.0659091,
                "tempo": 120.0
            },
            {
                "start_time": 14.6659091,
                "end_time": 14.8,
                "pitch": 45,
                "velocity": 25,
                "duration": 0.1340909,
                "tempo": 120.0
            },
            {
                "start_time": 14.8159091,
                "end_time": 14.8840909,
                "pitch": 45,
                "velocity": 25,
                "duration": 0.0681818,
                "tempo": 120.0
            },
            {
                "start_time": 14.9,
                "end_time": 15.0522727,
                "pitch": 44,
                "velocity": 25,
                "duration": 0.1522727,
                "tempo": 120.0
            },
            {
                "start_time": 15.0681818,
                "end_time": 15.1181818,
                "pitch": 44,
                "velocity": 25,
                "duration": 0.05,
                "tempo": 120.0
            },
            {
                "start_time": 15.1522727,
                "end_time": 15.375,
                "pitch": 43,
                "velocity": 25,
                "duration": 0.2227273,
                "tempo": 120.0
            },
            {
                "start_time": 15.3909091,
                "end_time": 15.5272727,
                "pitch": 36,
                "velocity": 25,
                "duration": 0.1363636,
                "tempo": 120.0
            },
            {
                "start_time": 15.5613636,
                "end_time": 15.6136364,
                "pitch": 36,
                "velocity": 25,
                "duration": 0.0522727,
                "tempo": 120.0
            },
            {
                "start_time": 16.1068182,
                "end_time": 16.2545455,
                "pitch": 36,
                "velocity": 25,
                "duration": 0.1477273,
                "tempo": 120.0
            },
            {
                "start_time": 16.2704545,
                "end_time": 17.3045455,
                "pitch": 36,
                "velocity": 25,
                "duration": 1.0340909,
                "tempo": 120.0
            },
            {
                "start_time": 17.3204545,
                "end_time": 17.4727273,
                "pitch": 38,
                "velocity": 25,
                "duration": 0.1522727,
                "tempo": 120.0
            },
            {
                "start_time": 17.4886364,
                "end_time": 17.5386364,
                "pitch": 38,
                "velocity": 25,
                "duration": 0.05,
                "tempo": 120.0
            },
            {
                "start_time": 18.0431818,
                "end_time": 18.1863636,
                "pitch": 38,
                "velocity": 25,
                "duration": 0.1431818,
                "tempo": 120.0
            },
            {
                "start_time": 18.2022727,
                "end_time": 19.2204545,
                "pitch": 38,
                "velocity": 25,
                "duration": 1.0181818,
                "tempo": 120.0
            },
            {
                "start_time": 19.2386364,
                "end_time": 19.3886364,
                "pitch": 36,
                "velocity": 25,
                "duration": 0.15,
                "tempo": 120.0
            },
            {
                "start_time": 19.4045455,
                "end_time": 19.4727273,
                "pitch": 36,
                "velocity": 25,
                "duration": 0.0681818,
                "tempo": 120.0
            },
            {
                "start_time": 19.9840909,
                "end_time": 20.1159091,
                "pitch": 36,
                "velocity": 25,
                "duration": 0.1318182,
                "tempo": 120.0
            },
            {
                "start_time": 20.1318182,
                "end_time": 21.1522727,
                "pitch": 36,
                "velocity": 25,
                "duration": 1.0204545,
                "tempo": 120.0
            },
            {
                "start_time": 21.1840909,
                "end_time": 21.3159091,
                "pitch": 38,
                "velocity": 25,
                "duration": 0.1318182,
                "tempo": 120.0
            },
            {
                "start_time": 21.3318182,
                "end_time": 21.5477273,
                "pitch": 38,
                "velocity": 25,
                "duration": 0.2159091,
                "tempo": 120.0
            },
            {
                "start_time": 21.5818182,
                "end_time": 21.6318182,
                "pitch": 38,
                "velocity": 25,
                "duration": 0.05,
                "tempo": 120.0
            },
            {
                "start_time": 21.65,
                "end_time": 21.8,
                "pitch": 38,
                "velocity": 25,
                "duration": 0.15,
                "tempo": 120.0
            },
            {
                "start_time": 21.8181818,
                "end_time": 21.8840909,
                "pitch": 38,
                "velocity": 25,
                "duration": 0.0659091,
                "tempo": 120.0
            },
            {
                "start_time": 21.9,
                "end_time": 22.0340909,
                "pitch": 38,
                "velocity": 25,
                "duration": 0.1340909,
                "tempo": 120.0
            },
            {
                "start_time": 22.05,
                "end_time": 22.1181818,
                "pitch": 38,
                "velocity": 25,
                "duration": 0.0681818,
                "tempo": 120.0
            },
            {
                "start_time": 22.1340909,
                "end_time": 22.35,
                "pitch": 40,
                "velocity": 25,
                "duration": 0.2159091,
                "tempo": 120.0
            },
            {
                "start_time": 22.3840909,
                "end_time": 22.5204545,
                "pitch": 40,
                "velocity": 25,
                "duration": 0.1363636,
                "tempo": 120.0
            },
            {
                "start_time": 22.5386364,
                "end_time": 22.7590909,
                "pitch": 40,
                "velocity": 25,
                "duration": 0.2204545,
                "tempo": 120.0
            },
            {
                "start_time": 22.7931818,
                "end_time": 22.8454545,
                "pitch": 40,
                "velocity": 25,
                "duration": 0.0522727,
                "tempo": 120.0
            },
            {
                "start_time": 22.8613636,
                "end_time": 23.0113636,
                "pitch": 40,
                "velocity": 25,
                "duration": 0.15,
                "tempo": 120.0
            },
            {
                "start_time": 23.0272727,
                "end_time": 23.1045455,
                "pitch": 40,
                "velocity": 25,
                "duration": 0.0772727,
                "tempo": 120.0
            }
        ],
        "Harpsichord": [
            {
                "start_time": 15.5613636,
                "end_time": 15.5954545,
                "pitch": 55,
                "velocity": 40,
                "duration": 0.0340909,
                "tempo": 120.0
            },
            {
                "start_time": 16.1068182,
                "end_time": 16.2545455,
                "pitch": 55,
                "velocity": 40,
                "duration": 0.1477273,
                "tempo": 120.0
            },
            {
                "start_time": 16.2704545,
                "end_time": 16.4840909,
                "pitch": 55,
                "velocity": 40,
                "duration": 0.2136364,
                "tempo": 120.0
            },
            {
                "start_time": 16.5,
                "end_time": 16.5659091,
                "pitch": 57,
                "velocity": 40,
                "duration": 0.0659091,
                "tempo": 120.0
            },
            {
                "start_time": 16.5818182,
                "end_time": 16.7204545,
                "pitch": 59,
                "velocity": 40,
                "duration": 0.1386364,
                "tempo": 120.0
            },
            {
                "start_time": 16.7545455,
                "end_time": 16.8068182,
                "pitch": 60,
                "velocity": 40,
                "duration": 0.0522727,
                "tempo": 120.0
            },
            {
                "start_time": 16.825,
                "end_time": 16.9818182,
                "pitch": 62,
                "velocity": 40,
                "duration": 0.1568182,
                "tempo": 120.0
            },
            {
                "start_time": 16.9977273,
                "end_time": 17.2204545,
                "pitch": 60,
                "velocity": 40,
                "duration": 0.2227273,
                "tempo": 120.0
            },
            {
                "start_time": 17.2363636,
                "end_time": 17.3045455,
                "pitch": 59,
                "velocity": 40,
                "duration": 0.0681818,
                "tempo": 120.0
            },
            {
                "start_time": 17.3204545,
                "end_time": 17.4727273,
                "pitch": 57,
                "velocity": 40,
                "duration": 0.1522727,
                "tempo": 120.0
            },
            {
                "start_time": 17.4886364,
                "end_time": 17.5227273,
                "pitch": 57,
                "velocity": 40,
                "duration": 0.0340909,
                "tempo": 120.0
            },
            {
                "start_time": 18.0431818,
                "end_time": 18.1863636,
                "pitch": 57,
                "velocity": 40,
                "duration": 0.1431818,
                "tempo": 120.0
            },
            {
                "start_time": 18.2022727,
                "end_time": 18.4113636,
                "pitch": 57,
                "velocity": 40,
                "duration": 0.2090909,
                "tempo": 120.0
            },
            {
                "start_time": 18.4272727,
                "end_time": 18.4909091,
                "pitch": 62,
                "velocity": 40,
                "duration": 0.0636364,
                "tempo": 120.0
            },
            {
                "start_time": 18.5068182,
                "end_time": 18.6613636,
                "pitch": 67,
                "velocity": 40,
                "duration": 0.1545455,
                "tempo": 120.0
            },
            {
                "start_time": 18.6772727,
                "end_time": 18.7295455,
                "pitch": 66,
                "velocity": 40,
                "duration": 0.0522727,
                "tempo": 120.0
            },
            {
                "start_time": 18.7636364,
                "end_time": 19.2204545,
                "pitch": 62,
                "velocity": 40,
                "duration": 0.4568182,
                "tempo": 120.0
            },
            {
                "start_time": 19.2386364,
                "end_time": 19.3886364,
                "pitch": 55,
                "velocity": 40,
                "duration": 0.15,
                "tempo": 120.0
            },
            {
                "start_time": 19.4045455,
                "end_time": 19.4227273,
                "pitch": 55,
                "velocity": 40,
                "duration": 0.0181818,
                "tempo": 120.0
            },
            {
                "start_time": 19.9840909,
                "end_time": 20.1159091,
                "pitch": 55,
                "velocity": 40,
                "duration": 0.1318182,
                "tempo": 120.0
            },
            {
                "start_time": 20.1318182,
                "end_time": 20.3454545,
                "pitch": 55,
                "velocity": 40,
                "duration": 0.2136364,
                "tempo": 120.0
            },
            {
                "start_time": 20.3772727,
                "end_time": 20.4272727,
                "pitch": 62,
                "velocity": 40,
                "duration": 0.05,
                "tempo": 120.0
            },
            {
                "start_time": 20.4431818,
                "end_time": 20.5977273,
                "pitch": 57,
                "velocity": 40,
                "duration": 0.1545455,
                "tempo": 120.0
            },
            {
                "start_time": 20.6136364,
                "end_time": 20.6818182,
                "pitch": 59,
                "velocity": 40,
                "duration": 0.0681818,
                "tempo": 120.0
            },
            {
                "start_time": 20.7,
                "end_time": 20.8363636,
                "pitch": 64,
                "velocity": 40,
                "duration": 0.1363636,
                "tempo": 120.0
            },
            {
                "start_time": 20.8522727,
                "end_time": 21.1522727,
                "pitch": 62,
                "velocity": 40,
                "duration": 0.3,
                "tempo": 120.0
            },
            {
                "start_time": 21.1840909,
                "end_time": 21.3159091,
                "pitch": 57,
                "velocity": 40,
                "duration": 0.1318182,
                "tempo": 120.0
            },
            {
                "start_time": 21.3318182,
                "end_time": 21.5477273,
                "pitch": 57,
                "velocity": 40,
                "duration": 0.2159091,
                "tempo": 120.0
            },
            {
                "start_time": 21.5818182,
                "end_time": 21.6318182,
                "pitch": 57,
                "velocity": 40,
                "duration": 0.05,
                "tempo": 120.0
            },
            {
                "start_time": 21.65,
                "end_time": 21.7159091,
                "pitch": 57,
                "velocity": 40,
                "duration": 0.0659091,
                "tempo": 120.0
            },
            {
                "start_time": 21.7340909,
                "end_time": 21.8,
                "pitch": 59,
                "velocity": 40,
                "duration": 0.0659091,
                "tempo": 120.0
            },
            {
                "start_time": 21.8181818,
                "end_time": 21.8840909,
                "pitch": 62,
                "velocity": 40,
                "duration": 0.0659091,
                "tempo": 120.0
            },
            {
                "start_time": 21.9,
                "end_time": 21.95,
                "pitch": 64,
                "velocity": 40,
                "duration": 0.05,
                "tempo": 120.0
            },
            {
                "start_time": 21.9840909,
                "end_time": 22.0340909,
                "pitch": 62,
                "velocity": 40,
                "duration": 0.05,
                "tempo": 120.0
            },
            {
                "start_time": 22.05,
                "end_time": 22.1181818,
                "pitch": 59,
                "velocity": 40,
                "duration": 0.0681818,
                "tempo": 120.0
            },
            {
                "start_time": 22.1340909,
                "end_time": 22.2,
                "pitch": 59,
                "velocity": 40,
                "duration": 0.0659091,
                "tempo": 120.0
            },
            {
                "start_time": 22.2181818,
                "end_time": 22.2840909,
                "pitch": 62,
                "velocity": 40,
                "duration": 0.0659091,
                "tempo": 120.0
            },
            {
                "start_time": 22.3,
                "end_time": 22.35,
                "pitch": 59,
                "velocity": 40,
                "duration": 0.05,
                "tempo": 120.0
            },
            {
                "start_time": 22.3840909,
                "end_time": 22.4363636,
                "pitch": 64,
                "velocity": 40,
                "duration": 0.0522727,
                "tempo": 120.0
            },
            {
                "start_time": 22.4522727,
                "end_time": 22.5204545,
                "pitch": 62,
                "velocity": 40,
                "duration": 0.0681818,
                "tempo": 120.0
            },
            {
                "start_time": 22.5386364,
                "end_time": 22.6068182,
                "pitch": 59,
                "velocity": 40,
                "duration": 0.0681818,
                "tempo": 120.0
            },
            {
                "start_time": 22.6227273,
                "end_time": 22.8454545,
                "pitch": 59,
                "velocity": 40,
                "duration": 0.2227273,
                "tempo": 120.0
            },
            {
                "start_time": 22.8613636,
                "end_time": 23.1045455,
                "pitch": 59,
                "velocity": 40,
                "duration": 0.2431818,
                "tempo": 120.0
            }
        ]
    }
}