{
    "mood": "happy",
    "instruments": {
        "Oboe": [
            {
                "start_time": 0.3068182,
                "end_time": 0.3977273,
                "pitch": 71,
                "velocity": 25,
                "duration": 0.0909091,
                "tempo": 120.0
            },
            {
                "start_time": 0.4113636,
                "end_time": 0.5,
                "pitch": 69,
                "velocity": 25,
                "duration": 0.0886364,
                "tempo": 120.0
            },
            {
                "start_time": 0.5227273,
                "end_time": 0.7659091,
                "pitch": 64,
                "velocity": 25,
                "duration": 0.2431818,
                "tempo": 120.0
            },
            {
                "start_time": 0.8022727,
                "end_time": 1.0454545,
                "pitch": 61,
                "velocity": 25,
                "duration": 0.2431818,
                "tempo": 120.0
            },
            {
                "start_time": 1.3613636,
                "end_time": 1.6068182,
                "pitch": 61,
                "velocity": 25,
                "duration": 0.2454545,
                "tempo": 120.0
            },
            {
                "start_time": 1.6409091,
                "end_time": 1.8863636,
                "pitch": 62,
                "velocity": 25,
                "duration": 0.2454545,
                "tempo": 120.0
            },
            {
                "start_time": 2.2,
                "end_time": 2.4454545,
                "pitch": 62,
                "velocity": 25,
                "duration": 0.2454545,
                "tempo": 120.0
            },
            {
                "start_time": 2.4795455,
                "end_time": 2.725,
                "pitch": 62,
                "velocity": 25,
                "duration": 0.2454545,
                "tempo": 120.0
            },
            {
                "start_time": 2.7590909,
                "end_time": 6.0,
                "pitch": 61,
                "velocity": 25,
                "duration": 3.2409091,
                "tempo": 120.0
            }
        ],
        "Acoustic Bass": [
            {
                "start_time": 0.3068182,
                "end_time": 0.3977273,
                "pitch": 45,
                "velocity": 32,
                "duration": 0.0909091,
                "tempo": 120.0
            },
            {
                "start_time": 0.4113636,
                "end_time": 0.5,
                "pitch": 45,
                "velocity": 32,
                "duration": 0.0886364,
                "tempo": 120.0
            },
            {
                "start_time": 0.5227273,
                "end_time": 0.7659091,
                "pitch": 45,
                "velocity": 32,
                "duration": 0.2431818,
                "tempo": 120.0
            },
            {
                "start_time": 0.8022727,
                "end_time": 1.0454545,
                "pitch": 45,
                "velocity": 32,
                "duration": 0.2431818,
                "tempo": 120.0
            },
            {
                "start_time": 1.3613636,
                "end_time": 1.6068182,
                "pitch": 45,
                "velocity": 32,
                "duration": 0.2454545,
                "tempo": 120.0
            },
            {
                "start_time": 1.6409091,
                "end_time": 1.8863636,
                "pitch": 43,
                "velocity": 32,
                "duration": 0.2454545,
                "tempo": 120.0
            },
            {
                "start_time": 2.2,
                "end_time": 2.4454545,
                "pitch": 43,
                "velocity": 32,
                "duration": 0.2454545,
                "tempo": 120.0
            },
            {
                "start_time": 2.4795455,
                "end_time": 2.725,
                "pitch": 45,
                "velocity": 32,
                "duration": 0.2454545,
                "tempo": 120.0
            },
            {
                "start_time": 2.7590909,
                "end_time": 6.0,
                "pitch": 45,
                "velocity": 32,
                "duration": 3.2409091,
                "tempo": 120.0
            }
        ],
        "Harpsichord": [
            {
                "start_time": 0.3068182,
                "end_time": 0.3977273,
                "pitch": 64,
                "velocity": 20,
                "duration": 0.0909091,
                "tempo": 120.0
            },
            {
                "start_time": 0.4113636,
                "end_time": 0.5,
                "pitch": 59,
                "velocity": 20,
                "duration": 0.0886364,
                "tempo": 120.0
            },
            {
                "start_time": 0.5227273,
                "end_time": 0.7659091,
                "pitch": 68,
                "velocity": 20,
                "duration": 0.2431818,
                "tempo": 120.0
            },
            {
                "start_time": 0.8022727,
                "end_time": 1.0454545,
                "pitch": 64,
                "velocity": 20,
                "duration": 0.2431818,
                "tempo": 120.0
            },
            {
                "start_time": 1.3613636,
                "end_time": 1.6068182,
                "pitch": 64,
                "velocity": 20,
                "duration": 0.2454545,
                "tempo": 120.0
            },
            {
                "start_time": 1.6409091,
                "end_time": 1.8863636,
                "pitch": 67,
                "velocity": 20,
                "duration": 0.2454545,
                "tempo": 120.0
            },
            {
                "start_time": 2.2,
                "end_time": 2.4454545,
                "pitch": 67,
                "velocity": 20,
                "duration": 0.2454545,
                "tempo": 120.0
            },
            {
                "start_time": 2.4795455,
                "end_time": 2.725,
                "pitch": 66,
                "velocity": 20,
                "duration": 0.2454545,
                "tempo": 120.0
            },
            {
                "start_time": 2.7590909,
                "end_time": 6.0,
                "pitch": 64,
                "velocity": 20,
                "duration": 3.2409091,
                "tempo": 120.0
            }
        ],
        "Church Organ": [
            {
                "start_time": 0.3068182,
                "end_time": 0.3977273,
                "pitch": 45,
                "velocity": 20,
                "duration": 0.0909091,
                "tempo": 120.0
            },
            {
                "start_time": 0.4113636,
                "end_time": 0.5,
                "pitch": 45,
                "velocity": 20,
                "duration": 0.0886364,
                "tempo": 120.0
            },
            {
                "start_time": 0.5227273,
                "end_time": 0.7659091,
                "pitch": 45,
                "velocity": 20,
                "duration": 0.2431818,
                "tempo": 120.0
            },
            {
                "start_time": 0.8022727,
                "end_time": 1.0454545,
                "pitch": 45,
                "velocity": 20,
                "duration": 0.2431818,
                "tempo": 120.0
            },
            {
                "start_time": 1.3613636,
                "end_time": 1.6068182,
                "pitch": 45,
                "velocity": 20,
                "duration": 0.2454545,
                "tempo": 120.0
            },
            {
                "start_time": 1.6409091,
                "end_time": 1.8863636,
                "pitch": 43,
                "velocity": 20,
                "duration": 0.2454545,
                "tempo": 120.0
            },
            {
                "start_time": 2.2,
                "end_time": 2.4454545,
                "pitch": 43,
                "velocity": 20,
                "duration": 0.2454545,
                "tempo": 120.0
            },
            {
                "start_time": 2.4795455,
                "end_time": 2.725,
                "pitch": 45,
                "velocity": 20,
                "duration": 0.2454545,
                "tempo": 120.0
            },
            {
                "start_time": 2.7590909,
                "end_time": 6.0,
                "pitch": 45,
                "velocity": 20,
                "duration": 3.2409091,
                "tempo": 120.0
            }
        ]
    }
}