{
    "mood": "happy",
    "instruments": {
        "Oboe": [
            {
                "start_time": 0.0,
                "end_time": 0.3409091,
                "pitch": 67,
                "velocity": 40,
                "duration": 0.3409091,
                "tempo": 120.0
            },
            {
                "start_time": 0.3409091,
                "end_time": 0.4136364,
                "pitch": 67,
                "velocity": 40,
                "duration": 0.0727273,
                "tempo": 120.0
            },
            {
                "start_time": 0.4136364,
                "end_time": 0.4840909,
                "pitch": 67,
                "velocity": 40,
                "duration": 0.0704545,
                "tempo": 120.0
            },
            {
                "start_time": 0.5,
                "end_time": 0.975,
                "pitch": 70,
                "velocity": 40,
                "duration": 0.475,
                "tempo": 120.0
            },
            {
                "start_time": 0.9954545,
                "end_time": 1.1431818,
                "pitch": 70,
                "velocity": 40,
                "duration": 0.1477273,
                "tempo": 120.0
            },
            {
                "start_time": 1.1613636,
                "end_time": 1.4681818,
                "pitch": 63,
                "velocity": 40,
                "duration": 0.3068182,
                "tempo": 120.0
            },
            {
                "start_time": 1.4863636,
                "end_time": 1.7954545,
                "pitch": 65,
                "velocity": 40,
                "duration": 0.3090909,
                "tempo": 120.0
            },
            {
                "start_time": 1.8136364,
                "end_time": 2.1409091,
                "pitch": 67,
                "velocity": 40,
                "duration": 0.3272727,
                "tempo": 120.0
            },
            {
                "start_time": 2.1613636,
                "end_time": 2.4886364,
                "pitch": 63,
                "velocity": 40,
                "duration": 0.3272727,
                "tempo": 120.0
            },
            {
                "start_time": 2.5068182,
                "end_time": 2.8340909,
                "pitch": 65,
                "velocity": 40,
                "duration": 0.3272727,
                "tempo": 120.0
            },
            {
                "start_time": 2.8545455,
                "end_time": 3.0840909,
                "pitch": 65,
                "velocity": 40,
                "duration": 0.2295455,
                "tempo": 120.0
            },
            {
                "start_time": 3.1227273,
                "end_time": 3.1818182,
                "pitch": 65,
                "velocity": 40,
                "duration": 0.0590909,
                "tempo": 120.0
            },
            {
                "start_time": 3.2,
                "end_time": 3.5272727,
                "pitch": 65,
                "velocity": 40,
                "duration": 0.3272727,
                "tempo": 120.0
            },
            {
                "start_time": 3.5454545,
                "end_time": 3.7,
                "pitch": 67,
                "velocity": 40,
                "duration": 0.1545455,
                "tempo": 120.0
            },
            {
                "start_time": 3.7204545,
                "end_time": 3.8727273,
                "pitch": 65,
                "velocity": 40,
                "duration": 0.1522727,
                "tempo": 120.0
            },
            {
                "start_time": 3.8931818,
                "end_time": 4.0454545,
                "pitch": 63,
                "velocity": 40,
                "duration": 0.1522727,
                "tempo": 120.0
            },
            {
                "start_time": 4.0636364,
                "end_time": 4.1204545,
                "pitch": 63,
                "velocity": 40,
                "duration": 0.0568182,
                "tempo": 120.0
            },
            {
                "start_time": 4.1590909,
                "end_time": 4.2159091,
                "pitch": 65,
                "velocity": 40,
                "duration": 0.0568182,
                "tempo": 120.0
            },
            {
                "start_time": 4.2363636,
                "end_time": 4.3886364,
                "pitch": 67,
                "velocity": 40,
                "duration": 0.1522727,
                "tempo": 120.0
            },
            {
                "start_time": 4.4068182,
                "end_time": 4.5590909,
                "pitch": 63,
                "velocity": 40,
                "duration": 0.1522727,
                "tempo": 120.0
            },
            {
                "start_time": 4.5795455,
                "end_time": 5.0795455,
                "pitch": 65,
                "velocity": 40,
                "duration": 0.5,
                "tempo": 120.0
            },
            {
                "start_time": 5.2704545,
                "end_time": 5.7295455,
                "pitch": 67,
                "velocity": 40,
                "duration": 0.4590909,
                "tempo": 120.0
            },
            {
                "start_time": 5.7295455,
                "end_time": 5.8227273,
                "pitch": 67,
                "velocity": 40,
                "duration": 0.0931818,
                "tempo": 120.0
            },
            {
                "start_time": 5.8227273,
                "end_time": 5.9386364,
                "pitch": 67,
                "velocity": 40,
                "duration": 0.1159091,
                "tempo": 120.0
            },
            {
                "start_time": 5.9568182,
                "end_time": 6.4568182,
                "pitch": 70,
                "velocity": 40,
                "duration": 0.5,
                "tempo": 120.0
            },
            {
                "start_time": 6.4772727,
                "end_time": 6.6295455,
                "pitch": 70,
                "velocity": 40,
                "duration": 0.1522727,
                "tempo": 120.0
            },
            {
                "start_time": 6.65,
                "end_time": 6.9727273,
                "pitch": 63,
                "velocity": 40,
                "duration": 0.3227273,
                "tempo": 120.0
            },
            {
                "start_time": 6.9931818,
                "end_time": 7.3159091,
                "pitch": 65,
                "velocity": 40,
                "duration": 0.3227273,
                "tempo": 120.0
            },
            {
                "start_time": 7.3363636,
                "end_time": 7.6636364,
                "pitch": 67,
                "velocity": 40,
                "duration": 0.3272727,
                "tempo": 120.0
            },
            {
                "start_time": 7.6818182,
                "end_time": 8.0090909,
                "pitch": 63,
                "velocity": 40,
                "duration": 0.3272727,
                "tempo": 120.0
            },
            {
                "start_time": 8.0272727,
                "end_time": 8.3522727,
                "pitch": 65,
                "velocity": 40,
                "duration": 0.325,
                "tempo": 120.0
            },
            {
                "start_time": 8.3704545,
                "end_time": 8.6,
                "pitch": 65,
                "velocity": 40,
                "duration": 0.2295455,
                "tempo": 120.0
            },
            {
                "start_time": 8.6386364,
                "end_time": 8.6954545,
                "pitch": 65,
                "velocity": 40,
                "duration": 0.0568182,
                "tempo": 120.0
            },
            {
                "start_time": 8.7136364,
                "end_time": 9.0386364,
                "pitch": 65,
                "velocity": 40,
                "duration": 0.325,
                "tempo": 120.0
            },
            {
                "start_time": 9.0568182,
                "end_time": 9.2090909,
                "pitch": 67,
                "velocity": 40,
                "duration": 0.1522727,
                "tempo": 120.0
            },
            {
                "start_time": 9.2272727,
                "end_time": 9.3818182,
                "pitch": 65,
                "velocity": 40,
                "duration": 0.1545455,
                "tempo": 120.0
            },
            {
                "start_time": 9.4,
                "end_time": 9.5522727,
                "pitch": 63,
                "velocity": 40,
                "duration": 0.1522727,
                "tempo": 120.0
            },
            {
                "start_time": 9.5704545,
                "end_time": 9.6295455,
                "pitch": 63,
                "velocity": 40,
                "duration": 0.0590909,
                "tempo": 120.0
            },
            {
                "start_time": 9.6659091,
                "end_time": 9.7227273,
                "pitch": 65,
                "velocity": 40,
                "duration": 0.0568182,
                "tempo": 120.0
            },
            {
                "start_time": 9.7431818,
                "end_time": 9.8954545,
                "pitch": 67,
                "velocity": 40,
                "duration": 0.1522727,
                "tempo": 120.0
            },
            {
                "start_time": 9.9136364,
                "end_time": 10.0659091,
                "pitch": 65,
                "velocity": 40,
                "duration": 0.1522727,
                "tempo": 120.0
            },
            {
                "start_time": 10.0863636,
                "end_time": 10.5863636,
                "pitch": 63,
                "velocity": 40,
                "duration": 0.5,
                "tempo": 120.0
            },
            {
                "start_time": 10.7795455,
                "end_time": 11.0113636,
                "pitch": 62,
                "velocity": 40,
                "duration": 0.2318182,
                "tempo": 120.0
            },
            {
                "start_time": 11.05,
                "end_time": 11.1863636,
                "pitch": 59,
                "velocity": 40,
                "duration": 0.1363636,
                "tempo": 120.0
            },
            {
                "start_time": 11.225,
                "end_time": 11.2840909,
                "pitch": 59,
                "velocity": 40,
                "duration": 0.0590909,
                "tempo": 120.0
            },
            {
                "start_time": 11.3022727,
                "end_time": 11.4931818,
                "pitch": 62,
                "velocity": 40,
                "duration": 0.1909091,
                "tempo": 120.0
            },
            {
                "start_time": 11.525,
                "end_time": 11.6318182,
                "pitch": 59,
                "velocity": 40,
                "duration": 0.1068182,
                "tempo": 120.0
            },
            {
                "start_time": 11.6636364,
                "end_time": 11.7090909,
                "pitch": 59,
                "velocity": 40,
                "duration": 0.0454545,
                "tempo": 120.0
            },
            {
                "start_time": 11.725,
                "end_time": 11.7681818,
                "pitch": 57,
                "velocity": 40,
                "duration": 0.0431818,
                "tempo": 120.0
            },
            {
                "start_time": 11.7954545,
                "end_time": 11.8386364,
                "pitch": 57,
                "velocity": 40,
                "duration": 0.0431818,
                "tempo": 120.0
            },
            {
                "start_time": 11.8522727,
                "end_time": 11.8931818,
                "pitch": 57,
                "velocity": 40,
                "duration": 0.0409091,
                "tempo": 120.0
            },
            {
                "start_time": 11.9227273,
                "end_time": 12.0204545,
                "pitch": 62,
                "velocity": 40,
                "duration": 0.0977273,
                "tempo": 120.0
            },
            {
                "start_time": 12.0477273,
                "end_time": 12.0909091,
                "pitch": 62,
                "velocity": 40,
                "duration": 0.0431818,
                "tempo": 120.0
            },
            {
                "start_time": 12.1045455,
                "end_time": 12.275,
                "pitch": 59,
                "velocity": 40,
                "duration": 0.1704545,
                "tempo": 120.0
            },
            {
                "start_time": 12.3045455,
                "end_time": 12.4772727,
                "pitch": 55,
                "velocity": 40,
                "duration": 0.1727273,
                "tempo": 120.0
            },
            {
                "start_time": 12.4909091,
                "end_time": 12.6613636,
                "pitch": 62,
                "velocity": 40,
                "duration": 0.1704545,
                "tempo": 120.0
            },
            {
                "start_time": 12.6909091,
                "end_time": 12.7909091,
                "pitch": 59,
                "velocity": 40,
                "duration": 0.1,
                "tempo": 120.0
            },
            {
                "start_time": 12.8204545,
                "end_time": 12.8636364,
                "pitch": 59,
                "velocity": 40,
                "duration": 0.0431818,
                "tempo": 120.0
            },
            {
                "start_time": 12.8772727,
                "end_time": 13.05,
                "pitch": 62,
                "velocity": 40,
                "duration": 0.1727273,
                "tempo": 120.0
            },
            {
                "start_time": 13.0772727,
                "end_time": 13.1772727,
                "pitch": 59,
                "velocity": 40,
                "duration": 0.1,
                "tempo": 120.0
            },
            {
                "start_time": 13.2068182,
                "end_time": 13.25,
                "pitch": 59,
                "velocity": 40,
                "duration": 0.0431818,
                "tempo": 120.0
            },
            {
                "start_time": 13.2636364,
                "end_time": 13.3068182,
                "pitch": 57,
                "velocity": 40,
                "duration": 0.0431818,
                "tempo": 120.0
            },
            {
                "start_time": 13.3363636,
                "end_time": 13.3818182,
                "pitch": 57,
                "velocity": 40,
                "duration": 0.0454545,
                "tempo": 120.0
            },
            {
                "start_time": 13.3954545,
                "end_time": 13.4386364,
                "pitch": 57,
                "velocity": 40,
                "duration": 0.0431818,
                "tempo": 120.0
            },
            {
                "start_time": 13.4681818,
                "end_time": 13.5704545,
                "pitch": 62,
                "velocity": 40,
                "duration": 0.1022727,
                "tempo": 120.0
            },
            {
                "start_time": 13.6,
                "end_time": 13.6454545,
                "pitch": 62,
                "velocity": 40,
                "duration": 0.0454545,
                "tempo": 120.0
            },
            {
                "start_time": 13.6590909,
                "end_time": 13.8272727,
                "pitch": 55,
                "velocity": 40,
                "duration": 0.1681818,
                "tempo": 120.0
            },
            {
                "start_time": 14.0386364,
                "end_time": 14.2068182,
                "pitch": 67,
                "velocity": 40,
                "duration": 0.1681818,
                "tempo": 120.0
            },
            {
                "start_time": 14.2340909,
                "end_time": 14.3318182,
                "pitch": 64,
                "velocity": 40,
                "duration": 0.0977273,
                "tempo": 120.0
            },
            {
                "start_time": 14.3590909,
                "end_time": 14.4022727,
                "pitch": 64,
                "velocity": 40,
                "duration": 0.0431818,
                "tempo": 120.0
            },
            {
                "start_time": 14.4159091,
                "end_time": 14.5886364,
                "pitch": 67,
                "velocity": 40,
                "duration": 0.1727273,
                "tempo": 120.0
            },
            {
                "start_time": 14.6159091,
                "end_time": 14.7159091,
                "pitch": 64,
                "velocity": 40,
                "duration": 0.1,
                "tempo": 120.0
            },
            {
                "start_time": 14.7454545,
                "end_time": 14.7886364,
                "pitch": 64,
                "velocity": 40,
                "duration": 0.0431818,
                "tempo": 120.0
            },
            {
                "start_time": 14.8022727,
                "end_time": 14.8454545,
                "pitch": 62,
                "velocity": 40,
                "duration": 0.0431818,
                "tempo": 120.0
            },
            {
                "start_time": 14.875,
                "end_time": 14.9204545,
                "pitch": 62,
                "velocity": 40,
                "duration": 0.0454545,
                "tempo": 120.0
            },
            {
                "start_time": 14.9340909,
                "end_time": 14.9772727,
                "pitch": 62,
                "velocity": 40,
                "duration": 0.0431818,
                "tempo": 120.0
            },
            {
                "start_time": 15.0068182,
                "end_time": 15.1090909,
                "pitch": 67,
                "velocity": 40,
                "duration": 0.1022727,
                "tempo": 120.0
            },
            {
                "start_time": 15.1386364,
                "end_time": 15.1840909,
                "pitch": 67,
                "velocity": 40,
                "duration": 0.0454545,
                "tempo": 120.0
            },
            {
                "start_time": 15.1977273,
                "end_time": 15.3704545,
                "pitch": 64,
                "velocity": 40,
                "duration": 0.1727273,
                "tempo": 120.0
            },
            {
                "start_time": 15.4,
                "end_time": 15.5704545,
                "pitch": 60,
                "velocity": 40,
                "duration": 0.1704545,
                "tempo": 120.0
            },
            {
                "start_time": 15.5840909,
                "end_time": 15.7568182,
                "pitch": 67,
                "velocity": 40,
                "duration": 0.1727273,
                "tempo": 120.0
            },
            {
                "start_time": 15.7863636,
                "end_time": 15.8863636,
                "pitch": 64,
                "velocity": 40,
                "duration": 0.1,
                "tempo": 120.0
            },
            {
                "start_time": 15.9136364,
                "end_time": 15.9568182,
                "pitch": 64,
                "velocity": 40,
                "duration": 0.0431818,
                "tempo": 120.0
            },
            {
                "start_time": 15.9727273,
                "end_time": 16.1431818,
                "pitch": 67,
                "velocity": 40,
                "duration": 0.1704545,
                "tempo": 120.0
            },
            {
                "start_time": 16.1727273,
                "end_time": 16.2727273,
                "pitch": 64,
                "velocity": 40,
                "duration": 0.1,
                "tempo": 120.0
            },
            {
                "start_time": 16.3022727,
                "end_time": 16.3431818,
                "pitch": 64,
                "velocity": 40,
                "duration": 0.0409091,
                "tempo": 120.0
            },
            {
                "start_time": 16.3590909,
                "end_time": 16.4022727,
                "pitch": 62,
                "velocity": 40,
                "duration": 0.0431818,
                "tempo": 120.0
            },
            {
                "start_time": 16.4295455,
                "end_time": 16.4727273,
                "pitch": 62,
                "velocity": 40,
                "duration": 0.0431818,
                "tempo": 120.0
            },
            {
                "start_time": 16.4886364,
                "end_time": 16.5295455,
                "pitch": 62,
                "velocity": 40,
                "duration": 0.0409091,
                "tempo": 120.0
            },
            {
                "start_time": 16.5590909,
                "end_time": 16.6590909,
                "pitch": 67,
                "velocity": 40,
                "duration": 0.1,
                "tempo": 120.0
            },
            {
                "start_time": 16.6886364,
                "end_time": 16.7318182,
                "pitch": 67,
                "velocity": 40,
                "duration": 0.0431818,
                "tempo": 120.0
            },
            {
                "start_time": 16.7454545,
                "end_time": 17.1181818,
                "pitch": 60,
                "velocity": 40,
                "duration": 0.3727273,
                "tempo": 120.0
            }
        ],
        "Flute": [
            {
                "start_time": 0.0,
                "end_time": 0.4840909,
                "pitch": 51,
                "velocity": 40,
                "duration": 0.4840909,
                "tempo": 120.0
            },
            {
                "start_time": 0.5,
                "end_time": 0.975,
                "pitch": 51,
                "velocity": 40,
                "duration": 0.475,
                "tempo": 120.0
            },
            {
                "start_time": 0.9954545,
                "end_time": 1.1431818,
                "pitch": 51,
                "velocity": 40,
                "duration": 0.1477273,
                "tempo": 120.0
            },
            {
                "start_time": 1.1613636,
                "end_time": 1.4681818,
                "pitch": 51,
                "velocity": 40,
                "duration": 0.3068182,
                "tempo": 120.0
            },
            {
                "start_time": 1.4863636,
                "end_time": 1.7954545,
                "pitch": 51,
                "velocity": 40,
                "duration": 0.3090909,
                "tempo": 120.0
            },
            {
                "start_time": 1.8136364,
                "end_time": 2.1409091,
                "pitch": 51,
                "velocity": 40,
                "duration": 0.3272727,
                "tempo": 120.0
            },
            {
                "start_time": 2.1613636,
                "end_time": 2.4886364,
                "pitch": 51,
                "velocity": 40,
                "duration": 0.3272727,
                "tempo": 120.0
            },
            {
                "start_time": 2.5068182,
                "end_time": 2.8340909,
                "pitch": 53,
                "velocity": 40,
                "duration": 0.3272727,
                "tempo": 120.0
            },
            {
                "start_time": 2.8545455,
                "end_time": 3.1818182,
                "pitch": 53,
                "velocity": 40,
                "duration": 0.3272727,
                "tempo": 120.0
            },
            {
                "start_time": 3.2,
                "end_time": 3.5272727,
                "pitch": 53,
                "velocity": 40,
                "duration": 0.3272727,
                "tempo": 120.0
            },
            {
                "start_time": 3.5454545,
                "end_time": 3.7,
                "pitch": 53,
                "velocity": 40,
                "duration": 0.1545455,
                "tempo": 120.0
            },
            {
                "start_time": 3.7204545,
                "end_time": 3.8727273,
                "pitch": 53,
                "velocity": 40,
                "duration": 0.1522727,
                "tempo": 120.0
            },
            {
                "start_time": 3.8931818,
                "end_time": 4.1204545,
                "pitch": 51,
                "velocity": 40,
                "duration": 0.2272727,
                "tempo": 120.0
            },
            {
                "start_time": 4.1590909,
                "end_time": 4.2159091,
                "pitch": 51,
                "velocity": 40,
                "duration": 0.0568182,
                "tempo": 120.0
            },
            {
                "start_time": 4.2363636,
                "end_time": 4.5590909,
                "pitch": 51,
                "velocity": 40,
                "duration": 0.3227273,
                "tempo": 120.0
            },
            {
                "start_time": 4.5795455,
                "end_time": 5.2522727,
                "pitch": 53,
                "velocity": 40,
                "duration": 0.6727273,
                "tempo": 120.0
            },
            {
                "start_time": 5.2704545,
                "end_time": 5.9386364,
                "pitch": 51,
                "velocity": 40,
                "duration": 0.6681818,
                "tempo": 120.0
            },
            {
                "start_time": 5.9568182,
                "end_time": 6.4568182,
                "pitch": 51,
                "velocity": 40,
                "duration": 0.5,
                "tempo": 120.0
            },
            {
                "start_time": 6.4772727,
                "end_time": 6.6295455,
                "pitch": 51,
                "velocity": 40,
                "duration": 0.1522727,
                "tempo": 120.0
            },
            {
                "start_time": 6.65,
                "end_time": 6.9727273,
                "pitch": 51,
                "velocity": 40,
                "duration": 0.3227273,
                "tempo": 120.0
            },
            {
                "start_time": 6.9931818,
                "end_time": 7.3159091,
                "pitch": 51,
                "velocity": 40,
                "duration": 0.3227273,
                "tempo": 120.0
            },
            {
                "start_time": 7.3363636,
                "end_time": 7.6636364,
                "pitch": 51,
                "velocity": 40,
                "duration": 0.3272727,
                "tempo": 120.0
            },
            {
                "start_time": 7.6818182,
                "end_time": 8.0090909,
                "pitch": 51,
                "velocity": 40,
                "duration": 0.3272727,
                "tempo": 120.0
            },
            {
                "start_time": 8.0272727,
                "end_time": 8.3522727,
                "pitch": 53,
                "velocity": 40,
                "duration": 0.325,
                "tempo": 120.0
            },
            {
                "start_time": 8.3704545,
                "end_time": 8.6954545,
                "pitch": 53,
                "velocity": 40,
                "duration": 0.325,
                "tempo": 120.0
            },
            {
                "start_time": 8.7136364,
                "end_time": 9.0386364,
                "pitch": 53,
                "velocity": 40,
                "duration": 0.325,
                "tempo": 120.0
            },
            {
                "start_time": 9.0568182,
                "end_time": 9.2090909,
                "pitch": 53,
                "velocity": 40,
                "duration": 0.1522727,
                "tempo": 120.0
            },
            {
                "start_time": 9.2272727,
                "end_time": 9.3818182,
                "pitch": 53,
                "velocity": 40,
                "duration": 0.1545455,
                "tempo": 120.0
            },
            {
                "start_time": 9.4,
                "end_time": 9.6295455,
                "pitch": 51,
                "velocity": 40,
                "duration": 0.2295455,
                "tempo": 120.0
            },
            {
                "start_time": 9.6659091,
                "end_time": 9.7227273,
                "pitch": 51,
                "velocity": 40,
                "duration": 0.0568182,
                "tempo": 120.0
            },
            {
                "start_time": 9.7431818,
                "end_time": 10.0659091,
                "pitch": 51,
                "velocity": 40,
                "duration": 0.3227273,
                "tempo": 120.0
            },
            {
                "start_time": 10.0863636,
                "end_time": 10.5863636,
                "pitch": 51,
                "velocity": 40,
                "duration": 0.5,
                "tempo": 120.0
            },
            {
                "start_time": 10.7795455,
                "end_time": 11.2454545,
                "pitch": 55,
                "velocity": 40,
                "duration": 0.4659091,
                "tempo": 120.0
            },
            {
                "start_time": 11.2454545,
                "end_time": 11.2840909,
                "pitch": 55,
                "velocity": 40,
                "duration": 0.0386364,
                "tempo": 120.0
            },
            {
                "start_time": 11.3022727,
                "end_time": 11.6795455,
                "pitch": 55,
                "velocity": 40,
                "duration": 0.3772727,
                "tempo": 120.0
            },
            {
                "start_time": 11.6795455,
                "end_time": 11.7090909,
                "pitch": 55,
                "velocity": 40,
                "duration": 0.0295455,
                "tempo": 120.0
            },
            {
                "start_time": 11.725,
                "end_time": 12.0909091,
                "pitch": 50,
                "velocity": 40,
                "duration": 0.3659091,
                "tempo": 120.0
            },
            {
                "start_time": 12.1045455,
                "end_time": 12.4477273,
                "pitch": 55,
                "velocity": 40,
                "duration": 0.3431818,
                "tempo": 120.0
            },
            {
                "start_time": 12.4477273,
                "end_time": 12.4772727,
                "pitch": 55,
                "velocity": 40,
                "duration": 0.0295455,
                "tempo": 120.0
            },
            {
                "start_time": 12.4909091,
                "end_time": 12.8340909,
                "pitch": 55,
                "velocity": 40,
                "duration": 0.3431818,
                "tempo": 120.0
            },
            {
                "start_time": 12.8340909,
                "end_time": 12.8636364,
                "pitch": 55,
                "velocity": 40,
                "duration": 0.0295455,
                "tempo": 120.0
            },
            {
                "start_time": 12.8772727,
                "end_time": 13.2204545,
                "pitch": 55,
                "velocity": 40,
                "duration": 0.3431818,
                "tempo": 120.0
            },
            {
                "start_time": 13.2204545,
                "end_time": 13.25,
                "pitch": 55,
                "velocity": 40,
                "duration": 0.0295455,
                "tempo": 120.0
            },
            {
                "start_time": 13.2636364,
                "end_time": 13.6454545,
                "pitch": 50,
                "velocity": 40,
                "duration": 0.3818182,
                "tempo": 120.0
            },
            {
                "start_time": 13.6590909,
                "end_time": 13.9545455,
                "pitch": 55,
                "velocity": 40,
                "duration": 0.2954545,
                "tempo": 120.0
            },
            {
                "start_time": 14.0386364,
                "end_time": 14.4022727,
                "pitch": 60,
                "velocity": 40,
                "duration": 0.3636364,
                "tempo": 120.0
            },
            {
                "start_time": 14.4159091,
                "end_time": 14.7886364,
                "pitch": 60,
                "velocity": 40,
                "duration": 0.3727273,
                "tempo": 120.0
            },
            {
                "start_time": 14.8022727,
                "end_time": 15.1545455,
                "pitch": 55,
                "velocity": 40,
                "duration": 0.3522727,
                "tempo": 120.0
            },
            {
                "start_time": 15.1545455,
                "end_time": 15.1840909,
                "pitch": 55,
                "velocity": 40,
                "duration": 0.0295455,
                "tempo": 120.0
            },
            {
                "start_time": 15.1977273,
                "end_time": 15.5704545,
                "pitch": 60,
                "velocity": 40,
                "duration": 0.3727273,
                "tempo": 120.0
            },
            {
                "start_time": 15.5840909,
                "end_time": 15.9568182,
                "pitch": 60,
                "velocity": 40,
                "duration": 0.3727273,
                "tempo": 120.0
            },
            {
                "start_time": 15.9727273,
                "end_time": 16.3431818,
                "pitch": 60,
                "velocity": 40,
                "duration": 0.3704545,
                "tempo": 120.0
            },
            {
                "start_time": 16.3590909,
                "end_time": 16.7022727,
                "pitch": 55,
                "velocity": 40,
                "duration": 0.3431818,
                "tempo": 120.0
            },
            {
                "start_time": 16.7022727,
                "end_time": 16.7318182,
                "pitch": 55,
                "velocity": 40,
                "duration": 0.0295455,
                "tempo": 120.0
            },
            {
                "start_time": 16.7454545,
                "end_time": 17.1181818,
                "pitch": 48,
                "velocity": 40,
                "duration": 0.3727273,
                "tempo": 120.0
            }
        ],
        "Violin": [
            {
                "start_time": 0.0136364,
                "end_time": 0.0272727,
                "pitch": 48,
                "velocity": 16,
                "duration": 0.0136364,
                "tempo": 120.0
            },
            {
                "start_time": 0.0545455,
                "end_time": 0.55,
                "pitch": 51,
                "velocity": 16,
                "duration": 0.4954545,
                "tempo": 120.0
            },
            {
                "start_time": 0.5886364,
                "end_time": 1.05,
                "pitch": 51,
                "velocity": 16,
                "duration": 0.4613636,
                "tempo": 120.0
            },
            {
                "start_time": 1.0863636,
                "end_time": 1.2159091,
                "pitch": 51,
                "velocity": 16,
                "duration": 0.1295455,
                "tempo": 120.0
            },
            {
                "start_time": 1.2522727,
                "end_time": 1.5409091,
                "pitch": 51,
                "velocity": 16,
                "duration": 0.2886364,
                "tempo": 120.0
            },
            {
                "start_time": 1.5772727,
                "end_time": 1.8727273,
                "pitch": 51,
                "velocity": 16,
                "duration": 0.2954545,
                "tempo": 120.0
            },
            {
                "start_time": 1.9113636,
                "end_time": 2.2181818,
                "pitch": 51,
                "velocity": 16,
                "duration": 0.3068182,
                "tempo": 120.0
            },
            {
                "start_time": 2.2568182,
                "end_time": 2.5659091,
                "pitch": 51,
                "velocity": 16,
                "duration": 0.3090909,
                "tempo": 120.0
            },
            {
                "start_time": 2.6045455,
                "end_time": 2.9113636,
                "pitch": 53,
                "velocity": 16,
                "duration": 0.3068182,
                "tempo": 120.0
            },
            {
                "start_time": 2.95,
                "end_time": 3.2568182,
                "pitch": 53,
                "velocity": 16,
                "duration": 0.3068182,
                "tempo": 120.0
            },
            {
                "start_time": 3.2954545,
                "end_time": 3.6045455,
                "pitch": 53,
                "velocity": 16,
                "duration": 0.3090909,
                "tempo": 120.0
            },
            {
                "start_time": 3.6431818,
                "end_time": 3.7772727,
                "pitch": 53,
                "velocity": 16,
                "duration": 0.1340909,
                "tempo": 120.0
            },
            {
                "start_time": 3.8159091,
                "end_time": 3.95,
                "pitch": 53,
                "velocity": 16,
                "duration": 0.1340909,
                "tempo": 120.0
            },
            {
                "start_time": 3.9886364,
                "end_time": 4.2159091,
                "pitch": 51,
                "velocity": 16,
                "duration": 0.2272727,
                "tempo": 120.0
            },
            {
                "start_time": 4.2363636,
                "end_time": 4.2931818,
                "pitch": 51,
                "velocity": 16,
                "duration": 0.0568182,
                "tempo": 120.0
            },
            {
                "start_time": 4.3318182,
                "end_time": 4.6363636,
                "pitch": 51,
                "velocity": 16,
                "duration": 0.3045455,
                "tempo": 120.0
            },
            {
                "start_time": 4.675,
                "end_time": 5.3272727,
                "pitch": 53,
                "velocity": 16,
                "duration": 0.6522727,
                "tempo": 120.0
            },
            {
                "start_time": 5.3659091,
                "end_time": 6.0159091,
                "pitch": 51,
                "velocity": 16,
                "duration": 0.65,
                "tempo": 120.0
            },
            {
                "start_time": 6.0522727,
                "end_time": 6.5340909,
                "pitch": 51,
                "velocity": 16,
                "duration": 0.4818182,
                "tempo": 120.0
            },
            {
                "start_time": 6.5727273,
                "end_time": 6.7068182,
                "pitch": 51,
                "velocity": 16,
                "duration": 0.1340909,
                "tempo": 120.0
            },
            {
                "start_time": 6.7454545,
                "end_time": 7.05,
                "pitch": 51,
                "velocity": 16,
                "duration": 0.3045455,
                "tempo": 120.0
            },
            {
                "start_time": 7.0886364,
                "end_time": 7.3931818,
                "pitch": 51,
                "velocity": 16,
                "duration": 0.3045455,
                "tempo": 120.0
            },
            {
                "start_time": 7.4318182,
                "end_time": 7.7386364,
                "pitch": 51,
                "velocity": 16,
                "duration": 0.3068182,
                "tempo": 120.0
            },
            {
                "start_time": 7.7772727,
                "end_time": 8.0863636,
                "pitch": 51,
                "velocity": 16,
                "duration": 0.3090909,
                "tempo": 120.0
            },
            {
                "start_time": 8.1227273,
                "end_time": 8.4272727,
                "pitch": 53,
                "velocity": 16,
                "duration": 0.3045455,
                "tempo": 120.0
            },
            {
                "start_time": 8.4659091,
                "end_time": 8.7704545,
                "pitch": 53,
                "velocity": 16,
                "duration": 0.3045455,
                "tempo": 120.0
            },
            {
                "start_time": 8.8090909,
                "end_time": 9.1136364,
                "pitch": 53,
                "velocity": 16,
                "duration": 0.3045455,
                "tempo": 120.0
            },
            {
                "start_time": 9.1522727,
                "end_time": 9.2863636,
                "pitch": 53,
                "velocity": 16,
                "duration": 0.1340909,
                "tempo": 120.0
            },
            {
                "start_time": 9.3227273,
                "end_time": 9.4568182,
                "pitch": 53,
                "velocity": 16,
                "duration": 0.1340909,
                "tempo": 120.0
            },
            {
                "start_time": 9.4954545,
                "end_time": 9.7227273,
                "pitch": 51,
                "velocity": 16,
                "duration": 0.2272727,
                "tempo": 120.0
            },
            {
                "start_time": 9.7431818,
                "end_time": 9.8,
                "pitch": 51,
                "velocity": 16,
                "duration": 0.0568182,
                "tempo": 120.0
            },
            {
                "start_time": 9.8386364,
                "end_time": 10.1431818,
                "pitch": 51,
                "velocity": 16,
                "duration": 0.3045455,
                "tempo": 120.0
            },
            {
                "start_time": 10.1818182,
                "end_time": 10.6636364,
                "pitch": 51,
                "velocity": 16,
                "duration": 0.4818182,
                "tempo": 120.0
            },
            {
                "start_time": 10.875,
                "end_time": 11.3568182,
                "pitch": 55,
                "velocity": 16,
                "duration": 0.4818182,
                "tempo": 120.0
            },
            {
                "start_time": 11.3863636,
                "end_time": 11.7681818,
                "pitch": 55,
                "velocity": 16,
                "duration": 0.3818182,
                "tempo": 120.0
            },
            {
                "start_time": 11.7954545,
                "end_time": 12.1477273,
                "pitch": 50,
                "velocity": 16,
                "duration": 0.3522727,
                "tempo": 120.0
            },
            {
                "start_time": 12.175,
                "end_time": 12.5340909,
                "pitch": 55,
                "velocity": 16,
                "duration": 0.3590909,
                "tempo": 120.0
            },
            {
                "start_time": 12.5613636,
                "end_time": 12.9204545,
                "pitch": 55,
                "velocity": 16,
                "duration": 0.3590909,
                "tempo": 120.0
            },
            {
                "start_time": 12.95,
                "end_time": 13.3068182,
                "pitch": 55,
                "velocity": 16,
                "duration": 0.3568182,
                "tempo": 120.0
            },
            {
                "start_time": 13.3363636,
                "end_time": 13.7022727,
                "pitch": 50,
                "velocity": 16,
                "duration": 0.3659091,
                "tempo": 120.0
            },
            {
                "start_time": 13.7295455,
                "end_time": 14.025,
                "pitch": 55,
                "velocity": 16,
                "duration": 0.2954545,
                "tempo": 120.0
            },
            {
                "start_time": 14.1090909,
                "end_time": 14.4590909,
                "pitch": 60,
                "velocity": 16,
                "duration": 0.35,
                "tempo": 120.0
            },
            {
                "start_time": 14.4886364,
                "end_time": 14.8454545,
                "pitch": 60,
                "velocity": 16,
                "duration": 0.3568182,
                "tempo": 120.0
            },
            {
                "start_time": 14.875,
                "end_time": 15.2409091,
                "pitch": 55,
                "velocity": 16,
                "duration": 0.3659091,
                "tempo": 120.0
            },
            {
                "start_time": 15.2704545,
                "end_time": 15.6272727,
                "pitch": 60,
                "velocity": 16,
                "duration": 0.3568182,
                "tempo": 120.0
            },
            {
                "start_time": 15.6568182,
                "end_time": 16.0159091,
                "pitch": 60,
                "velocity": 16,
                "duration": 0.3590909,
                "tempo": 120.0
            },
            {
                "start_time": 16.0431818,
                "end_time": 16.4022727,
                "pitch": 60,
                "velocity": 16,
                "duration": 0.3590909,
                "tempo": 120.0
            },
            {
                "start_time": 16.4295455,
                "end_time": 16.7886364,
                "pitch": 55,
                "velocity": 16,
                "duration": 0.3590909,
                "tempo": 120.0
            },
            {
                "start_time": 16.8159091,
                "end_time": 17.1704545,
                "pitch": 48,
                "velocity": 16,
                "duration": 0.3545455,
                "tempo": 120.0
            }
        ]
    }
}