{
    "mood": "happy",
    "instruments": {
        "Church Organ": [
            {
                "start_time": 0.0,
                "end_time": 0.275,
                "pitch": 64,
                "velocity": 80,
                "duration": 0.275,
                "tempo": 120.0
            },
            {
                "start_time": 0.2909091,
                "end_time": 0.3613636,
                "pitch": 64,
                "velocity": 80,
                "duration": 0.0704545,
                "tempo": 120.0
            },
            {
                "start_time": 0.3772727,
                "end_time": 0.4590909,
                "pitch": 64,
                "velocity": 80,
                "duration": 0.0818182,
                "tempo": 120.0
            },
            {
                "start_time": 2.0795455,
                "end_time": 2.1840909,
                "pitch": 63,
                "velocity": 80,
                "duration": 0.1045455,
                "tempo": 120.0
            },
            {
                "start_time": 2.3704545,
                "end_time": 2.4795455,
                "pitch": 63,
                "velocity": 80,
                "duration": 0.1090909,
                "tempo": 120.0
            },
            {
                "start_time": 4.1,
                "end_time": 4.4181818,
                "pitch": 62,
                "velocity": 80,
                "duration": 0.3181818,
                "tempo": 120.0
            },
            {
                "start_time": 4.4340909,
                "end_time": 4.5522727,
                "pitch": 62,
                "velocity": 80,
                "duration": 0.1181818,
                "tempo": 120.0
            },
            {
                "start_time": 6.0295455,
                "end_time": 6.1477273,
                "pitch": 61,
                "velocity": 80,
                "duration": 0.1181818,
                "tempo": 120.0
            },
            {
                "start_time": 6.2636364,
                "end_time": 6.3818182,
                "pitch": 61,
                "velocity": 80,
                "duration": 0.1181818,
                "tempo": 120.0
            },
            {
                "start_time": 6.4977273,
                "end_time": 6.5818182,
                "pitch": 61,
                "velocity": 80,
                "duration": 0.0840909,
                "tempo": 120.0
            },
            {
                "start_time": 7.7590909,
                "end_time": 8.0840909,
                "pitch": 64,
                "velocity": 80,
                "duration": 0.325,
                "tempo": 120.0
            },
            {
                "start_time": 8.1,
                "end_time": 8.1863636,
                "pitch": 64,
                "velocity": 80,
                "duration": 0.0863636,
                "tempo": 120.0
            },
            {
                "start_time": 8.2386364,
                "end_time": 8.3227273,
                "pitch": 64,
                "velocity": 80,
                "duration": 0.0840909,
                "tempo": 120.0
            },
            {
                "start_time": 9.6977273,
                "end_time": 9.7795455,
                "pitch": 63,
                "velocity": 80,
                "duration": 0.0818182,
                "tempo": 120.0
            },
            {
                "start_time": 9.925,
                "end_time": 10.0068182,
                "pitch": 63,
                "velocity": 80,
                "duration": 0.0818182,
                "tempo": 120.0
            },
            {
                "start_time": 11.4295455,
                "end_time": 11.7477273,
                "pitch": 62,
                "velocity": 80,
                "duration": 0.3181818,
                "tempo": 120.0
            },
            {
                "start_time": 11.7636364,
                "end_time": 11.8477273,
                "pitch": 62,
                "velocity": 80,
                "duration": 0.0840909,
                "tempo": 120.0
            },
            {
                "start_time": 13.35,
                "end_time": 13.4272727,
                "pitch": 61,
                "velocity": 80,
                "duration": 0.0772727,
                "tempo": 120.0
            },
            {
                "start_time": 13.5681818,
                "end_time": 13.6477273,
                "pitch": 61,
                "velocity": 80,
                "duration": 0.0795455,
                "tempo": 120.0
            },
            {
                "start_time": 13.8022727,
                "end_time": 13.8886364,
                "pitch": 61,
                "velocity": 80,
                "duration": 0.0863636,
                "tempo": 120.0
            },
            {
                "start_time": 15.0545455,
                "end_time": 16.8477273,
                "pitch": 62,
                "velocity": 80,
                "duration": 1.7931818,
                "tempo": 120.0
            },
            {
                "start_time": 17.0977273,
                "end_time": 17.1818182,
                "pitch": 66,
                "velocity": 80,
                "duration": 0.0840909,
                "tempo": 120.0
            },
            {
                "start_time": 17.1977273,
                "end_time": 17.3159091,
                "pitch": 62,
                "velocity": 80,
                "duration": 0.1181818,
                "tempo": 120.0
            },
            {
                "start_time": 17.3318182,
                "end_time": 17.4181818,
                "pitch": 59,
                "velocity": 80,
                "duration": 0.0863636,
                "tempo": 120.0
            },
            {
                "start_time": 17.4340909,
                "end_time": 17.5545455,
                "pitch": 62,
                "velocity": 80,
                "duration": 0.1204545,
                "tempo": 120.0
            },
            {
                "start_time": 17.5704545,
                "end_time": 17.6568182,
                "pitch": 59,
                "velocity": 80,
                "duration": 0.0863636,
                "tempo": 120.0
            },
            {
                "start_time": 17.675,
                "end_time": 17.7590909,
                "pitch": 52,
                "velocity": 80,
                "duration": 0.0840909,
                "tempo": 120.0
            },
            {
                "start_time": 17.8113636,
                "end_time": 18.6772727,
                "pitch": 55,
                "velocity": 80,
                "duration": 0.8659091,
                "tempo": 120.0
            },
            {
                "start_time": 18.6931818,
                "end_time": 20.5045455,
                "pitch": 62,
                "velocity": 80,
                "duration": 1.8113636,
                "tempo": 120.0
            },
            {
                "start_time": 20.5227273,
                "end_time": 20.6068182,
                "pitch": 52,
                "velocity": 80,
                "duration": 0.0840909,
                "tempo": 120.0
            },
            {
                "start_time": 20.625,
                "end_time": 20.7454545,
                "pitch": 55,
                "velocity": 80,
                "duration": 0.1204545,
                "tempo": 120.0
            },
            {
                "start_time": 20.7613636,
                "end_time": 20.8477273,
                "pitch": 58,
                "velocity": 80,
                "duration": 0.0863636,
                "tempo": 120.0
            },
            {
                "start_time": 20.8636364,
                "end_time": 20.95,
                "pitch": 61,
                "velocity": 80,
                "duration": 0.0863636,
                "tempo": 120.0
            },
            {
                "start_time": 21.0022727,
                "end_time": 21.0840909,
                "pitch": 55,
                "velocity": 80,
                "duration": 0.0818182,
                "tempo": 120.0
            },
            {
                "start_time": 21.1022727,
                "end_time": 21.1863636,
                "pitch": 58,
                "velocity": 80,
                "duration": 0.0840909,
                "tempo": 120.0
            },
            {
                "start_time": 21.2022727,
                "end_time": 21.3181818,
                "pitch": 61,
                "velocity": 80,
                "duration": 0.1159091,
                "tempo": 120.0
            },
            {
                "start_time": 21.3363636,
                "end_time": 21.4204545,
                "pitch": 64,
                "velocity": 80,
                "duration": 0.0840909,
                "tempo": 120.0
            },
            {
                "start_time": 21.4363636,
                "end_time": 21.55,
                "pitch": 58,
                "velocity": 80,
                "duration": 0.1136364,
                "tempo": 120.0
            },
            {
                "start_time": 21.5659091,
                "end_time": 21.6477273,
                "pitch": 61,
                "velocity": 80,
                "duration": 0.0818182,
                "tempo": 120.0
            },
            {
                "start_time": 21.6659091,
                "end_time": 21.7477273,
                "pitch": 64,
                "velocity": 80,
                "duration": 0.0818182,
                "tempo": 120.0
            },
            {
                "start_time": 21.7954545,
                "end_time": 21.8772727,
                "pitch": 67,
                "velocity": 80,
                "duration": 0.0818182,
                "tempo": 120.0
            },
            {
                "start_time": 21.8931818,
                "end_time": 21.9772727,
                "pitch": 63,
                "velocity": 80,
                "duration": 0.0840909,
                "tempo": 120.0
            },
            {
                "start_time": 21.9931818,
                "end_time": 22.1113636,
                "pitch": 67,
                "velocity": 80,
                "duration": 0.1181818,
                "tempo": 120.0
            },
            {
                "start_time": 22.1272727,
                "end_time": 22.2113636,
                "pitch": 70,
                "velocity": 80,
                "duration": 0.0840909,
                "tempo": 120.0
            },
            {
                "start_time": 22.2272727,
                "end_time": 22.3454545,
                "pitch": 73,
                "velocity": 80,
                "duration": 0.1181818,
                "tempo": 120.0
            },
            {
                "start_time": 22.3613636,
                "end_time": 23.2272727,
                "pitch": 66,
                "velocity": 80,
                "duration": 0.8659091,
                "tempo": 120.0
            },
            {
                "start_time": 23.2431818,
                "end_time": 23.9409091,
                "pitch": 74,
                "velocity": 80,
                "duration": 0.6977273,
                "tempo": 120.0
            },
            {
                "start_time": 23.9568182,
                "end_time": 24.0409091,
                "pitch": 74,
                "velocity": 80,
                "duration": 0.0840909,
                "tempo": 120.0
            },
            {
                "start_time": 24.0568182,
                "end_time": 24.1409091,
                "pitch": 74,
                "velocity": 80,
                "duration": 0.0840909,
                "tempo": 120.0
            },
            {
                "start_time": 24.3909091,
                "end_time": 24.5090909,
                "pitch": 62,
                "velocity": 80,
                "duration": 0.1181818,
                "tempo": 120.0
            },
            {
                "start_time": 24.7545455,
                "end_time": 24.8340909,
                "pitch": 62,
                "velocity": 80,
                "duration": 0.0795455,
                "tempo": 120.0
            },
            {
                "start_time": 25.0727273,
                "end_time": 25.5340909,
                "pitch": 64,
                "velocity": 80,
                "duration": 0.4613636,
                "tempo": 120.0
            },
            {
                "start_time": 25.5522727,
                "end_time": 25.8704545,
                "pitch": 64,
                "velocity": 80,
                "duration": 0.3181818,
                "tempo": 120.0
            },
            {
                "start_time": 25.8863636,
                "end_time": 28.025,
                "pitch": 62,
                "velocity": 80,
                "duration": 2.1386364,
                "tempo": 120.0
            },
            {
                "start_time": 28.0409091,
                "end_time": 28.1204545,
                "pitch": 62,
                "velocity": 80,
                "duration": 0.0795455,
                "tempo": 120.0
            },
            {
                "start_time": 28.3636364,
                "end_time": 28.4818182,
                "pitch": 62,
                "velocity": 80,
                "duration": 0.1181818,
                "tempo": 120.0
            },
            {
                "start_time": 28.7318182,
                "end_time": 29.1613636,
                "pitch": 64,
                "velocity": 80,
                "duration": 0.4295455,
                "tempo": 120.0
            },
            {
                "start_time": 29.1772727,
                "end_time": 29.5136364,
                "pitch": 64,
                "velocity": 80,
                "duration": 0.3363636,
                "tempo": 120.0
            },
            {
                "start_time": 29.625,
                "end_time": 31.4386364,
                "pitch": 62,
                "velocity": 80,
                "duration": 1.8136364,
                "tempo": 120.0
            },
            {
                "start_time": 31.6886364,
                "end_time": 31.7727273,
                "pitch": 66,
                "velocity": 80,
                "duration": 0.0840909,
                "tempo": 120.0
            },
            {
                "start_time": 31.7886364,
                "end_time": 31.9068182,
                "pitch": 62,
                "velocity": 80,
                "duration": 0.1181818,
                "tempo": 120.0
            },
            {
                "start_time": 31.9227273,
                "end_time": 32.0090909,
                "pitch": 59,
                "velocity": 80,
                "duration": 0.0863636,
                "tempo": 120.0
            },
            {
                "start_time": 32.025,
                "end_time": 32.1113636,
                "pitch": 62,
                "velocity": 80,
                "duration": 0.0863636,
                "tempo": 120.0
            },
            {
                "start_time": 32.1613636,
                "end_time": 32.2477273,
                "pitch": 59,
                "velocity": 80,
                "duration": 0.0863636,
                "tempo": 120.0
            },
            {
                "start_time": 32.2659091,
                "end_time": 32.35,
                "pitch": 52,
                "velocity": 80,
                "duration": 0.0840909,
                "tempo": 120.0
            },
            {
                "start_time": 32.3681818,
                "end_time": 33.2772727,
                "pitch": 55,
                "velocity": 80,
                "duration": 0.9090909,
                "tempo": 120.0
            },
            {
                "start_time": 33.2931818,
                "end_time": 35.0954545,
                "pitch": 62,
                "velocity": 80,
                "duration": 1.8022727,
                "tempo": 120.0
            },
            {
                "start_time": 35.1136364,
                "end_time": 35.1977273,
                "pitch": 52,
                "velocity": 80,
                "duration": 0.0840909,
                "tempo": 120.0
            },
            {
                "start_time": 35.2159091,
                "end_time": 35.3,
                "pitch": 55,
                "velocity": 80,
                "duration": 0.0840909,
                "tempo": 120.0
            },
            {
                "start_time": 35.3522727,
                "end_time": 35.4386364,
                "pitch": 58,
                "velocity": 80,
                "duration": 0.0863636,
                "tempo": 120.0
            },
            {
                "start_time": 35.4545455,
                "end_time": 35.5409091,
                "pitch": 61,
                "velocity": 80,
                "duration": 0.0863636,
                "tempo": 120.0
            },
            {
                "start_time": 35.5568182,
                "end_time": 35.6704545,
                "pitch": 55,
                "velocity": 80,
                "duration": 0.1136364,
                "tempo": 120.0
            },
            {
                "start_time": 35.6863636,
                "end_time": 35.7659091,
                "pitch": 58,
                "velocity": 80,
                "duration": 0.0795455,
                "tempo": 120.0
            },
            {
                "start_time": 35.7818182,
                "end_time": 35.8931818,
                "pitch": 61,
                "velocity": 80,
                "duration": 0.1113636,
                "tempo": 120.0
            },
            {
                "start_time": 35.9090909,
                "end_time": 35.9886364,
                "pitch": 64,
                "velocity": 80,
                "duration": 0.0795455,
                "tempo": 120.0
            },
            {
                "start_time": 36.0045455,
                "end_time": 36.0909091,
                "pitch": 58,
                "velocity": 80,
                "duration": 0.0863636,
                "tempo": 120.0
            },
            {
                "start_time": 36.1409091,
                "end_time": 36.2272727,
                "pitch": 61,
                "velocity": 80,
                "duration": 0.0863636,
                "tempo": 120.0
            },
            {
                "start_time": 36.2454545,
                "end_time": 36.3295455,
                "pitch": 64,
                "velocity": 80,
                "duration": 0.0840909,
                "tempo": 120.0
            },
            {
                "start_time": 36.3477273,
                "end_time": 36.4659091,
                "pitch": 67,
                "velocity": 80,
                "duration": 0.1181818,
                "tempo": 120.0
            },
            {
                "start_time": 36.4840909,
                "end_time": 36.5681818,
                "pitch": 63,
                "velocity": 80,
                "duration": 0.0840909,
                "tempo": 120.0
            },
            {
                "start_time": 36.5840909,
                "end_time": 36.7022727,
                "pitch": 67,
                "velocity": 80,
                "duration": 0.1181818,
                "tempo": 120.0
            },
            {
                "start_time": 36.7181818,
                "end_time": 36.8022727,
                "pitch": 70,
                "velocity": 80,
                "duration": 0.0840909,
                "tempo": 120.0
            },
            {
                "start_time": 36.8181818,
                "end_time": 36.9022727,
                "pitch": 73,
                "velocity": 80,
                "duration": 0.0840909,
                "tempo": 120.0
            },
            {
                "start_time": 36.9522727,
                "end_time": 37.8181818,
                "pitch": 66,
                "velocity": 80,
                "duration": 0.8659091,
                "tempo": 120.0
            },
            {
                "start_time": 37.8340909,
                "end_time": 38.4909091,
                "pitch": 74,
                "velocity": 80,
                "duration": 0.6568182,
                "tempo": 120.0
            },
            {
                "start_time": 38.5431818,
                "end_time": 38.6272727,
                "pitch": 74,
                "velocity": 80,
                "duration": 0.0840909,
                "tempo": 120.0
            },
            {
                "start_time": 38.6454545,
                "end_time": 38.7318182,
                "pitch": 74,
                "velocity": 80,
                "duration": 0.0863636,
                "tempo": 120.0
            },
            {
                "start_time": 38.9727273,
                "end_time": 39.0840909,
                "pitch": 62,
                "velocity": 80,
                "duration": 0.1113636,
                "tempo": 120.0
            },
            {
                "start_time": 39.3295455,
                "end_time": 39.4136364,
                "pitch": 62,
                "velocity": 80,
                "duration": 0.0840909,
                "tempo": 120.0
            },
            {
                "start_time": 39.6636364,
                "end_time": 40.0909091,
                "pitch": 64,
                "velocity": 80,
                "duration": 0.4272727,
                "tempo": 120.0
            },
            {
                "start_time": 40.1431818,
                "end_time": 40.4613636,
                "pitch": 64,
                "velocity": 80,
                "duration": 0.3181818,
                "tempo": 120.0
            },
            {
                "start_time": 40.4772727,
                "end_time": 42.6022727,
                "pitch": 62,
                "velocity": 80,
                "duration": 2.125,
                "tempo": 120.0
            },
            {
                "start_time": 42.6204545,
                "end_time": 42.7045455,
                "pitch": 62,
                "velocity": 80,
                "duration": 0.0840909,
                "tempo": 120.0
            },
            {
                "start_time": 42.9568182,
                "end_time": 43.0772727,
                "pitch": 62,
                "velocity": 80,
                "duration": 0.1204545,
                "tempo": 120.0
            },
            {
                "start_time": 43.3340909,
                "end_time": 43.7522727,
                "pitch": 64,
                "velocity": 80,
                "duration": 0.4181818,
                "tempo": 120.0
            },
            {
                "start_time": 43.7681818,
                "end_time": 44.0704545,
                "pitch": 64,
                "velocity": 80,
                "duration": 0.3022727,
                "tempo": 120.0
            },
            {
                "start_time": 44.2159091,
                "end_time": 44.3022727,
                "pitch": 54,
                "velocity": 80,
                "duration": 0.0863636,
                "tempo": 120.0
            },
            {
                "start_time": 44.3181818,
                "end_time": 44.4409091,
                "pitch": 57,
                "velocity": 80,
                "duration": 0.1227273,
                "tempo": 120.0
            },
            {
                "start_time": 44.4590909,
                "end_time": 44.5477273,
                "pitch": 64,
                "velocity": 80,
                "duration": 0.0886364,
                "tempo": 120.0
            },
            {
                "start_time": 44.5636364,
                "end_time": 44.6863636,
                "pitch": 68,
                "velocity": 80,
                "duration": 0.1227273,
                "tempo": 120.0
            },
            {
                "start_time": 44.7045455,
                "end_time": 44.7863636,
                "pitch": 64,
                "velocity": 80,
                "duration": 0.0818182,
                "tempo": 120.0
            },
            {
                "start_time": 44.8022727,
                "end_time": 44.8840909,
                "pitch": 68,
                "velocity": 80,
                "duration": 0.0818182,
                "tempo": 120.0
            },
            {
                "start_time": 44.9340909,
                "end_time": 45.0159091,
                "pitch": 57,
                "velocity": 80,
                "duration": 0.0818182,
                "tempo": 120.0
            },
            {
                "start_time": 45.0318182,
                "end_time": 45.1136364,
                "pitch": 64,
                "velocity": 80,
                "duration": 0.0818182,
                "tempo": 120.0
            },
            {
                "start_time": 45.1295455,
                "end_time": 45.2409091,
                "pitch": 68,
                "velocity": 80,
                "duration": 0.1113636,
                "tempo": 120.0
            },
            {
                "start_time": 45.2568182,
                "end_time": 45.3363636,
                "pitch": 64,
                "velocity": 80,
                "duration": 0.0795455,
                "tempo": 120.0
            },
            {
                "start_time": 45.3522727,
                "end_time": 45.4659091,
                "pitch": 57,
                "velocity": 80,
                "duration": 0.1136364,
                "tempo": 120.0
            },
            {
                "start_time": 45.4818182,
                "end_time": 45.5613636,
                "pitch": 54,
                "velocity": 80,
                "duration": 0.0795455,
                "tempo": 120.0
            },
            {
                "start_time": 45.5772727,
                "end_time": 45.6613636,
                "pitch": 52,
                "velocity": 80,
                "duration": 0.0840909,
                "tempo": 120.0
            },
            {
                "start_time": 45.7113636,
                "end_time": 45.7954545,
                "pitch": 56,
                "velocity": 80,
                "duration": 0.0840909,
                "tempo": 120.0
            },
            {
                "start_time": 45.8113636,
                "end_time": 45.8954545,
                "pitch": 62,
                "velocity": 80,
                "duration": 0.0840909,
                "tempo": 120.0
            },
            {
                "start_time": 45.9113636,
                "end_time": 46.0295455,
                "pitch": 66,
                "velocity": 80,
                "duration": 0.1181818,
                "tempo": 120.0
            },
            {
                "start_time": 46.0454545,
                "end_time": 46.1318182,
                "pitch": 54,
                "velocity": 80,
                "duration": 0.0863636,
                "tempo": 120.0
            },
            {
                "start_time": 46.1477273,
                "end_time": 46.2681818,
                "pitch": 57,
                "velocity": 80,
                "duration": 0.1204545,
                "tempo": 120.0
            },
            {
                "start_time": 46.2840909,
                "end_time": 46.3704545,
                "pitch": 64,
                "velocity": 80,
                "duration": 0.0863636,
                "tempo": 120.0
            },
            {
                "start_time": 46.3886364,
                "end_time": 46.4727273,
                "pitch": 68,
                "velocity": 80,
                "duration": 0.0840909,
                "tempo": 120.0
            },
            {
                "start_time": 46.525,
                "end_time": 46.6090909,
                "pitch": 64,
                "velocity": 80,
                "duration": 0.0840909,
                "tempo": 120.0
            },
            {
                "start_time": 46.625,
                "end_time": 46.7090909,
                "pitch": 68,
                "velocity": 80,
                "duration": 0.0840909,
                "tempo": 120.0
            },
            {
                "start_time": 46.725,
                "end_time": 46.8431818,
                "pitch": 57,
                "velocity": 80,
                "duration": 0.1181818,
                "tempo": 120.0
            },
            {
                "start_time": 46.8590909,
                "end_time": 46.9431818,
                "pitch": 64,
                "velocity": 80,
                "duration": 0.0840909,
                "tempo": 120.0
            },
            {
                "start_time": 46.9590909,
                "end_time": 47.0727273,
                "pitch": 68,
                "velocity": 80,
                "duration": 0.1136364,
                "tempo": 120.0
            },
            {
                "start_time": 47.0909091,
                "end_time": 47.1727273,
                "pitch": 64,
                "velocity": 80,
                "duration": 0.0818182,
                "tempo": 120.0
            },
            {
                "start_time": 47.1886364,
                "end_time": 47.2704545,
                "pitch": 57,
                "velocity": 80,
                "duration": 0.0818182,
                "tempo": 120.0
            },
            {
                "start_time": 47.3181818,
                "end_time": 47.4,
                "pitch": 54,
                "velocity": 80,
                "duration": 0.0818182,
                "tempo": 120.0
            },
            {
                "start_time": 47.4159091,
                "end_time": 47.5,
                "pitch": 53,
                "velocity": 80,
                "duration": 0.0840909,
                "tempo": 120.0
            },
            {
                "start_time": 47.5181818,
                "end_time": 47.6340909,
                "pitch": 57,
                "velocity": 80,
                "duration": 0.1159091,
                "tempo": 120.0
            },
            {
                "start_time": 47.65,
                "end_time": 47.7340909,
                "pitch": 63,
                "velocity": 80,
                "duration": 0.0840909,
                "tempo": 120.0
            },
            {
                "start_time": 47.7522727,
                "end_time": 47.8681818,
                "pitch": 67,
                "velocity": 80,
                "duration": 0.1159091,
                "tempo": 120.0
            },
            {
                "start_time": 47.8840909,
                "end_time": 47.9681818,
                "pitch": 52,
                "velocity": 80,
                "duration": 0.0840909,
                "tempo": 120.0
            },
            {
                "start_time": 47.9863636,
                "end_time": 48.0681818,
                "pitch": 55,
                "velocity": 80,
                "duration": 0.0818182,
                "tempo": 120.0
            },
            {
                "start_time": 48.1181818,
                "end_time": 48.2022727,
                "pitch": 62,
                "velocity": 80,
                "duration": 0.0840909,
                "tempo": 120.0
            },
            {
                "start_time": 48.2204545,
                "end_time": 48.3022727,
                "pitch": 66,
                "velocity": 80,
                "duration": 0.0818182,
                "tempo": 120.0
            },
            {
                "start_time": 48.3204545,
                "end_time": 48.4318182,
                "pitch": 62,
                "velocity": 80,
                "duration": 0.1113636,
                "tempo": 120.0
            },
            {
                "start_time": 48.4477273,
                "end_time": 48.5272727,
                "pitch": 66,
                "velocity": 80,
                "duration": 0.0795455,
                "tempo": 120.0
            },
            {
                "start_time": 48.5431818,
                "end_time": 48.6545455,
                "pitch": 55,
                "velocity": 80,
                "duration": 0.1113636,
                "tempo": 120.0
            },
            {
                "start_time": 48.6704545,
                "end_time": 48.7522727,
                "pitch": 62,
                "velocity": 80,
                "duration": 0.0818182,
                "tempo": 120.0
            },
            {
                "start_time": 48.7681818,
                "end_time": 48.8522727,
                "pitch": 52,
                "velocity": 80,
                "duration": 0.0840909,
                "tempo": 120.0
            },
            {
                "start_time": 48.9045455,
                "end_time": 48.9886364,
                "pitch": 55,
                "velocity": 80,
                "duration": 0.0840909,
                "tempo": 120.0
            },
            {
                "start_time": 49.0068182,
                "end_time": 49.0909091,
                "pitch": 62,
                "velocity": 80,
                "duration": 0.0840909,
                "tempo": 120.0
            },
            {
                "start_time": 49.1090909,
                "end_time": 49.2295455,
                "pitch": 66,
                "velocity": 80,
                "duration": 0.1204545,
                "tempo": 120.0
            },
            {
                "start_time": 49.2454545,
                "end_time": 49.3318182,
                "pitch": 50,
                "velocity": 80,
                "duration": 0.0863636,
                "tempo": 120.0
            },
            {
                "start_time": 49.3477273,
                "end_time": 49.4681818,
                "pitch": 54,
                "velocity": 80,
                "duration": 0.1204545,
                "tempo": 120.0
            },
            {
                "start_time": 49.4863636,
                "end_time": 49.5704545,
                "pitch": 60,
                "velocity": 80,
                "duration": 0.0840909,
                "tempo": 120.0
            },
            {
                "start_time": 49.5886364,
                "end_time": 49.675,
                "pitch": 64,
                "velocity": 80,
                "duration": 0.0863636,
                "tempo": 120.0
            },
            {
                "start_time": 49.725,
                "end_time": 49.8068182,
                "pitch": 52,
                "velocity": 80,
                "duration": 0.0818182,
                "tempo": 120.0
            },
            {
                "start_time": 49.8227273,
                "end_time": 49.9045455,
                "pitch": 55,
                "velocity": 80,
                "duration": 0.0818182,
                "tempo": 120.0
            },
            {
                "start_time": 49.9204545,
                "end_time": 50.0363636,
                "pitch": 62,
                "velocity": 80,
                "duration": 0.1159091,
                "tempo": 120.0
            },
            {
                "start_time": 50.0522727,
                "end_time": 50.1340909,
                "pitch": 66,
                "velocity": 80,
                "duration": 0.0818182,
                "tempo": 120.0
            },
            {
                "start_time": 50.15,
                "end_time": 50.2613636,
                "pitch": 62,
                "velocity": 80,
                "duration": 0.1113636,
                "tempo": 120.0
            },
            {
                "start_time": 50.2772727,
                "end_time": 50.3568182,
                "pitch": 65,
                "velocity": 80,
                "duration": 0.0795455,
                "tempo": 120.0
            },
            {
                "start_time": 50.3727273,
                "end_time": 50.4545455,
                "pitch": 55,
                "velocity": 80,
                "duration": 0.0818182,
                "tempo": 120.0
            },
            {
                "start_time": 50.5022727,
                "end_time": 50.5818182,
                "pitch": 62,
                "velocity": 80,
                "duration": 0.0795455,
                "tempo": 120.0
            },
            {
                "start_time": 50.5977273,
                "end_time": 50.6818182,
                "pitch": 52,
                "velocity": 80,
                "duration": 0.0840909,
                "tempo": 120.0
            },
            {
                "start_time": 50.7,
                "end_time": 50.8204545,
                "pitch": 66,
                "velocity": 80,
                "duration": 0.1204545,
                "tempo": 120.0
            },
            {
                "start_time": 50.8363636,
                "end_time": 50.9227273,
                "pitch": 55,
                "velocity": 80,
                "duration": 0.0863636,
                "tempo": 120.0
            },
            {
                "start_time": 50.9386364,
                "end_time": 51.0590909,
                "pitch": 62,
                "velocity": 80,
                "duration": 0.1204545,
                "tempo": 120.0
            },
            {
                "start_time": 51.0772727,
                "end_time": 51.1590909,
                "pitch": 51,
                "velocity": 80,
                "duration": 0.0818182,
                "tempo": 120.0
            },
            {
                "start_time": 51.1772727,
                "end_time": 51.2590909,
                "pitch": 55,
                "velocity": 80,
                "duration": 0.0818182,
                "tempo": 120.0
            },
            {
                "start_time": 51.3113636,
                "end_time": 51.3931818,
                "pitch": 61,
                "velocity": 80,
                "duration": 0.0818182,
                "tempo": 120.0
            },
            {
                "start_time": 51.4113636,
                "end_time": 51.4931818,
                "pitch": 65,
                "velocity": 80,
                "duration": 0.0818182,
                "tempo": 120.0
            },
            {
                "start_time": 51.5113636,
                "end_time": 51.6227273,
                "pitch": 50,
                "velocity": 80,
                "duration": 0.1113636,
                "tempo": 120.0
            },
            {
                "start_time": 51.6386364,
                "end_time": 51.7181818,
                "pitch": 53,
                "velocity": 80,
                "duration": 0.0795455,
                "tempo": 120.0
            },
            {
                "start_time": 51.7340909,
                "end_time": 51.8477273,
                "pitch": 60,
                "velocity": 80,
                "duration": 0.1136364,
                "tempo": 120.0
            },
            {
                "start_time": 51.8636364,
                "end_time": 51.9431818,
                "pitch": 64,
                "velocity": 80,
                "duration": 0.0795455,
                "tempo": 120.0
            },
            {
                "start_time": 51.9590909,
                "end_time": 52.0431818,
                "pitch": 60,
                "velocity": 80,
                "duration": 0.0840909,
                "tempo": 120.0
            },
            {
                "start_time": 52.0931818,
                "end_time": 52.175,
                "pitch": 53,
                "velocity": 80,
                "duration": 0.0818182,
                "tempo": 120.0
            },
            {
                "start_time": 52.1931818,
                "end_time": 52.2772727,
                "pitch": 60,
                "velocity": 80,
                "duration": 0.0840909,
                "tempo": 120.0
            },
            {
                "start_time": 52.2931818,
                "end_time": 52.4090909,
                "pitch": 64,
                "velocity": 80,
                "duration": 0.1159091,
                "tempo": 120.0
            },
            {
                "start_time": 52.4272727,
                "end_time": 52.5113636,
                "pitch": 60,
                "velocity": 80,
                "duration": 0.0840909,
                "tempo": 120.0
            },
            {
                "start_time": 52.5295455,
                "end_time": 52.65,
                "pitch": 53,
                "velocity": 80,
                "duration": 0.1204545,
                "tempo": 120.0
            },
            {
                "start_time": 52.6659091,
                "end_time": 52.7522727,
                "pitch": 60,
                "velocity": 80,
                "duration": 0.0863636,
                "tempo": 120.0
            },
            {
                "start_time": 52.7681818,
                "end_time": 52.8545455,
                "pitch": 64,
                "velocity": 80,
                "duration": 0.0863636,
                "tempo": 120.0
            },
            {
                "start_time": 52.9068182,
                "end_time": 52.9886364,
                "pitch": 48,
                "velocity": 80,
                "duration": 0.0818182,
                "tempo": 120.0
            },
            {
                "start_time": 53.0068182,
                "end_time": 53.0886364,
                "pitch": 52,
                "velocity": 80,
                "duration": 0.0818182,
                "tempo": 120.0
            },
            {
                "start_time": 53.1068182,
                "end_time": 53.2227273,
                "pitch": 58,
                "velocity": 80,
                "duration": 0.1159091,
                "tempo": 120.0
            },
            {
                "start_time": 53.2409091,
                "end_time": 53.3227273,
                "pitch": 62,
                "velocity": 80,
                "duration": 0.0818182,
                "tempo": 120.0
            },
            {
                "start_time": 53.3409091,
                "end_time": 53.4522727,
                "pitch": 50,
                "velocity": 80,
                "duration": 0.1113636,
                "tempo": 120.0
            },
            {
                "start_time": 53.4681818,
                "end_time": 53.5477273,
                "pitch": 53,
                "velocity": 80,
                "duration": 0.0795455,
                "tempo": 120.0
            },
            {
                "start_time": 53.5636364,
                "end_time": 53.6431818,
                "pitch": 60,
                "velocity": 80,
                "duration": 0.0795455,
                "tempo": 120.0
            },
            {
                "start_time": 53.6931818,
                "end_time": 53.7727273,
                "pitch": 64,
                "velocity": 80,
                "duration": 0.0795455,
                "tempo": 120.0
            },
            {
                "start_time": 53.7886364,
                "end_time": 53.8727273,
                "pitch": 60,
                "velocity": 80,
                "duration": 0.0840909,
                "tempo": 120.0
            },
            {
                "start_time": 53.8886364,
                "end_time": 54.0045455,
                "pitch": 64,
                "velocity": 80,
                "duration": 0.1159091,
                "tempo": 120.0
            },
            {
                "start_time": 54.0227273,
                "end_time": 54.1068182,
                "pitch": 53,
                "velocity": 80,
                "duration": 0.0840909,
                "tempo": 120.0
            },
            {
                "start_time": 54.1227273,
                "end_time": 54.2386364,
                "pitch": 60,
                "velocity": 80,
                "duration": 0.1159091,
                "tempo": 120.0
            },
            {
                "start_time": 54.2568182,
                "end_time": 54.3409091,
                "pitch": 53,
                "velocity": 80,
                "duration": 0.0840909,
                "tempo": 120.0
            },
            {
                "start_time": 54.3568182,
                "end_time": 54.4409091,
                "pitch": 60,
                "velocity": 80,
                "duration": 0.0840909,
                "tempo": 120.0
            },
            {
                "start_time": 54.4909091,
                "end_time": 54.575,
                "pitch": 64,
                "velocity": 80,
                "duration": 0.0840909,
                "tempo": 120.0
            },
            {
                "start_time": 54.5909091,
                "end_time": 54.675,
                "pitch": 60,
                "velocity": 80,
                "duration": 0.0840909,
                "tempo": 120.0
            },
            {
                "start_time": 54.6909091,
                "end_time": 54.8045455,
                "pitch": 64,
                "velocity": 80,
                "duration": 0.1136364,
                "tempo": 120.0
            },
            {
                "start_time": 54.8227273,
                "end_time": 54.9045455,
                "pitch": 60,
                "velocity": 80,
                "duration": 0.0818182,
                "tempo": 120.0
            },
            {
                "start_time": 54.9204545,
                "end_time": 55.0340909,
                "pitch": 53,
                "velocity": 80,
                "duration": 0.1136364,
                "tempo": 120.0
            },
            {
                "start_time": 55.05,
                "end_time": 55.1318182,
                "pitch": 64,
                "velocity": 80,
                "duration": 0.0818182,
                "tempo": 120.0
            },
            {
                "start_time": 55.1477273,
                "end_time": 55.2318182,
                "pitch": 48,
                "velocity": 80,
                "duration": 0.0840909,
                "tempo": 120.0
            },
            {
                "start_time": 55.2818182,
                "end_time": 55.3659091,
                "pitch": 52,
                "velocity": 80,
                "duration": 0.0840909,
                "tempo": 120.0
            },
            {
                "start_time": 55.3818182,
                "end_time": 55.4659091,
                "pitch": 58,
                "velocity": 80,
                "duration": 0.0840909,
                "tempo": 120.0
            },
            {
                "start_time": 55.4840909,
                "end_time": 55.6,
                "pitch": 62,
                "velocity": 80,
                "duration": 0.1159091,
                "tempo": 120.0
            },
            {
                "start_time": 55.6159091,
                "end_time": 55.7022727,
                "pitch": 52,
                "velocity": 80,
                "duration": 0.0863636,
                "tempo": 120.0
            },
            {
                "start_time": 55.7204545,
                "end_time": 55.8386364,
                "pitch": 58,
                "velocity": 80,
                "duration": 0.1181818,
                "tempo": 120.0
            },
            {
                "start_time": 55.8568182,
                "end_time": 55.9431818,
                "pitch": 62,
                "velocity": 80,
                "duration": 0.0863636,
                "tempo": 120.0
            },
            {
                "start_time": 55.9590909,
                "end_time": 56.0454545,
                "pitch": 48,
                "velocity": 80,
                "duration": 0.0863636,
                "tempo": 120.0
            },
            {
                "start_time": 56.0954545,
                "end_time": 56.1795455,
                "pitch": 50,
                "velocity": 80,
                "duration": 0.0840909,
                "tempo": 120.0
            },
            {
                "start_time": 56.1954545,
                "end_time": 56.2795455,
                "pitch": 53,
                "velocity": 80,
                "duration": 0.0840909,
                "tempo": 120.0
            },
            {
                "start_time": 56.2977273,
                "end_time": 56.4136364,
                "pitch": 60,
                "velocity": 80,
                "duration": 0.1159091,
                "tempo": 120.0
            },
            {
                "start_time": 56.4295455,
                "end_time": 56.5136364,
                "pitch": 64,
                "velocity": 80,
                "duration": 0.0840909,
                "tempo": 120.0
            },
            {
                "start_time": 56.5318182,
                "end_time": 56.6431818,
                "pitch": 60,
                "velocity": 80,
                "duration": 0.1113636,
                "tempo": 120.0
            },
            {
                "start_time": 56.6590909,
                "end_time": 56.7386364,
                "pitch": 53,
                "velocity": 80,
                "duration": 0.0795455,
                "tempo": 120.0
            },
            {
                "start_time": 56.7545455,
                "end_time": 56.8340909,
                "pitch": 60,
                "velocity": 80,
                "duration": 0.0795455,
                "tempo": 120.0
            },
            {
                "start_time": 56.8818182,
                "end_time": 56.9613636,
                "pitch": 64,
                "velocity": 80,
                "duration": 0.0795455,
                "tempo": 120.0
            },
            {
                "start_time": 56.9772727,
                "end_time": 57.0636364,
                "pitch": 52,
                "velocity": 80,
                "duration": 0.0863636,
                "tempo": 120.0
            },
            {
                "start_time": 57.0795455,
                "end_time": 57.2,
                "pitch": 55,
                "velocity": 80,
                "duration": 0.1204545,
                "tempo": 120.0
            },
            {
                "start_time": 57.2181818,
                "end_time": 57.3022727,
                "pitch": 60,
                "velocity": 80,
                "duration": 0.0840909,
                "tempo": 120.0
            },
            {
                "start_time": 57.3204545,
                "end_time": 57.4409091,
                "pitch": 65,
                "velocity": 80,
                "duration": 0.1204545,
                "tempo": 120.0
            },
            {
                "start_time": 57.4568182,
                "end_time": 57.5409091,
                "pitch": 52,
                "velocity": 80,
                "duration": 0.0840909,
                "tempo": 120.0
            },
            {
                "start_time": 57.5568182,
                "end_time": 57.6409091,
                "pitch": 55,
                "velocity": 80,
                "duration": 0.0840909,
                "tempo": 120.0
            },
            {
                "start_time": 57.6909091,
                "end_time": 57.775,
                "pitch": 60,
                "velocity": 80,
                "duration": 0.0840909,
                "tempo": 120.0
            },
            {
                "start_time": 57.7909091,
                "end_time": 57.875,
                "pitch": 65,
                "velocity": 80,
                "duration": 0.0840909,
                "tempo": 120.0
            },
            {
                "start_time": 57.8909091,
                "end_time": 58.0045455,
                "pitch": 53,
                "velocity": 80,
                "duration": 0.1136364,
                "tempo": 120.0
            },
            {
                "start_time": 58.0204545,
                "end_time": 58.1,
                "pitch": 57,
                "velocity": 80,
                "duration": 0.0795455,
                "tempo": 120.0
            },
            {
                "start_time": 58.1159091,
                "end_time": 58.2272727,
                "pitch": 63,
                "velocity": 80,
                "duration": 0.1113636,
                "tempo": 120.0
            },
            {
                "start_time": 58.2431818,
                "end_time": 58.3227273,
                "pitch": 67,
                "velocity": 80,
                "duration": 0.0795455,
                "tempo": 120.0
            },
            {
                "start_time": 58.3386364,
                "end_time": 58.425,
                "pitch": 63,
                "velocity": 80,
                "duration": 0.0863636,
                "tempo": 120.0
            },
            {
                "start_time": 58.475,
                "end_time": 58.5613636,
                "pitch": 57,
                "velocity": 80,
                "duration": 0.0863636,
                "tempo": 120.0
            },
            {
                "start_time": 58.5795455,
                "end_time": 58.6636364,
                "pitch": 53,
                "velocity": 80,
                "duration": 0.0840909,
                "tempo": 120.0
            },
            {
                "start_time": 58.6818182,
                "end_time": 58.8,
                "pitch": 57,
                "velocity": 80,
                "duration": 0.1181818,
                "tempo": 120.0
            },
            {
                "start_time": 58.8181818,
                "end_time": 58.9022727,
                "pitch": 54,
                "velocity": 80,
                "duration": 0.0840909,
                "tempo": 120.0
            },
            {
                "start_time": 58.9181818,
                "end_time": 59.0363636,
                "pitch": 57,
                "velocity": 80,
                "duration": 0.1181818,
                "tempo": 120.0
            },
            {
                "start_time": 59.0522727,
                "end_time": 59.1363636,
                "pitch": 64,
                "velocity": 80,
                "duration": 0.0840909,
                "tempo": 120.0
            },
            {
                "start_time": 59.1522727,
                "end_time": 59.2363636,
                "pitch": 68,
                "velocity": 80,
                "duration": 0.0840909,
                "tempo": 120.0
            },
            {
                "start_time": 59.2863636,
                "end_time": 59.3704545,
                "pitch": 64,
                "velocity": 80,
                "duration": 0.0840909,
                "tempo": 120.0
            },
            {
                "start_time": 59.3863636,
                "end_time": 59.4704545,
                "pitch": 68,
                "velocity": 80,
                "duration": 0.0840909,
                "tempo": 120.0
            },
            {
                "start_time": 59.4863636,
                "end_time": 59.6045455,
                "pitch": 57,
                "velocity": 80,
                "duration": 0.1181818,
                "tempo": 120.0
            },
            {
                "start_time": 59.6204545,
                "end_time": 59.7045455,
                "pitch": 64,
                "velocity": 80,
                "duration": 0.0840909,
                "tempo": 120.0
            },
            {
                "start_time": 59.7204545,
                "end_time": 59.8318182,
                "pitch": 68,
                "velocity": 80,
                "duration": 0.1113636,
                "tempo": 120.0
            },
            {
                "start_time": 59.8477273,
                "end_time": 59.9295455,
                "pitch": 64,
                "velocity": 80,
                "duration": 0.0818182,
                "tempo": 120.0
            },
            {
                "start_time": 59.9454545,
                "end_time": 60.025,
                "pitch": 57,
                "velocity": 80,
                "duration": 0.0795455,
                "tempo": 120.0
            },
            {
                "start_time": 60.0727273,
                "end_time": 60.1522727,
                "pitch": 54,
                "velocity": 80,
                "duration": 0.0795455,
                "tempo": 120.0
            },
            {
                "start_time": 60.1681818,
                "end_time": 60.2545455,
                "pitch": 52,
                "velocity": 80,
                "duration": 0.0863636,
                "tempo": 120.0
            },
            {
                "start_time": 60.2704545,
                "end_time": 60.3909091,
                "pitch": 56,
                "velocity": 80,
                "duration": 0.1204545,
                "tempo": 120.0
            },
            {
                "start_time": 60.4068182,
                "end_time": 60.4931818,
                "pitch": 62,
                "velocity": 80,
                "duration": 0.0863636,
                "tempo": 120.0
            },
            {
                "start_time": 60.5113636,
                "end_time": 60.6295455,
                "pitch": 66,
                "velocity": 80,
                "duration": 0.1181818,
                "tempo": 120.0
            },
            {
                "start_time": 60.6477273,
                "end_time": 60.7318182,
                "pitch": 54,
                "velocity": 80,
                "duration": 0.0840909,
                "tempo": 120.0
            },
            {
                "start_time": 60.7477273,
                "end_time": 60.8318182,
                "pitch": 57,
                "velocity": 80,
                "duration": 0.0840909,
                "tempo": 120.0
            },
            {
                "start_time": 60.8818182,
                "end_time": 60.9659091,
                "pitch": 64,
                "velocity": 80,
                "duration": 0.0840909,
                "tempo": 120.0
            },
            {
                "start_time": 60.9818182,
                "end_time": 61.0659091,
                "pitch": 68,
                "velocity": 80,
                "duration": 0.0840909,
                "tempo": 120.0
            },
            {
                "start_time": 61.0818182,
                "end_time": 61.1931818,
                "pitch": 64,
                "velocity": 80,
                "duration": 0.1113636,
                "tempo": 120.0
            },
            {
                "start_time": 61.2090909,
                "end_time": 61.2909091,
                "pitch": 68,
                "velocity": 80,
                "duration": 0.0818182,
                "tempo": 120.0
            },
            {
                "start_time": 61.3068182,
                "end_time": 61.4181818,
                "pitch": 57,
                "velocity": 80,
                "duration": 0.1113636,
                "tempo": 120.0
            },
            {
                "start_time": 61.4340909,
                "end_time": 61.5136364,
                "pitch": 64,
                "velocity": 80,
                "duration": 0.0795455,
                "tempo": 120.0
            },
            {
                "start_time": 61.5295455,
                "end_time": 61.6159091,
                "pitch": 68,
                "velocity": 80,
                "duration": 0.0863636,
                "tempo": 120.0
            },
            {
                "start_time": 61.6659091,
                "end_time": 61.7522727,
                "pitch": 64,
                "velocity": 80,
                "duration": 0.0863636,
                "tempo": 120.0
            },
            {
                "start_time": 61.7681818,
                "end_time": 61.8545455,
                "pitch": 57,
                "velocity": 80,
                "duration": 0.0863636,
                "tempo": 120.0
            },
            {
                "start_time": 61.8704545,
                "end_time": 61.9909091,
                "pitch": 54,
                "velocity": 80,
                "duration": 0.1204545,
                "tempo": 120.0
            },
            {
                "start_time": 62.0090909,
                "end_time": 62.0909091,
                "pitch": 53,
                "velocity": 80,
                "duration": 0.0818182,
                "tempo": 120.0
            },
            {
                "start_time": 62.1090909,
                "end_time": 62.225,
                "pitch": 57,
                "velocity": 80,
                "duration": 0.1159091,
                "tempo": 120.0
            },
            {
                "start_time": 62.2431818,
                "end_time": 62.325,
                "pitch": 63,
                "velocity": 80,
                "duration": 0.0818182,
                "tempo": 120.0
            },
            {
                "start_time": 62.3431818,
                "end_time": 62.4272727,
                "pitch": 67,
                "velocity": 80,
                "duration": 0.0840909,
                "tempo": 120.0
            },
            {
                "start_time": 62.4772727,
                "end_time": 62.5590909,
                "pitch": 52,
                "velocity": 80,
                "duration": 0.0818182,
                "tempo": 120.0
            },
            {
                "start_time": 62.5772727,
                "end_time": 62.6613636,
                "pitch": 55,
                "velocity": 80,
                "duration": 0.0840909,
                "tempo": 120.0
            },
            {
                "start_time": 62.6772727,
                "end_time": 62.7931818,
                "pitch": 62,
                "velocity": 80,
                "duration": 0.1159091,
                "tempo": 120.0
            },
            {
                "start_time": 62.8113636,
                "end_time": 62.8954545,
                "pitch": 66,
                "velocity": 80,
                "duration": 0.0840909,
                "tempo": 120.0
            },
            {
                "start_time": 62.9113636,
                "end_time": 63.0227273,
                "pitch": 62,
                "velocity": 80,
                "duration": 0.1113636,
                "tempo": 120.0
            },
            {
                "start_time": 63.0386364,
                "end_time": 63.1181818,
                "pitch": 66,
                "velocity": 80,
                "duration": 0.0795455,
                "tempo": 120.0
            },
            {
                "start_time": 63.1340909,
                "end_time": 63.2159091,
                "pitch": 55,
                "velocity": 80,
                "duration": 0.0818182,
                "tempo": 120.0
            },
            {
                "start_time": 63.2636364,
                "end_time": 63.3431818,
                "pitch": 62,
                "velocity": 80,
                "duration": 0.0795455,
                "tempo": 120.0
            },
            {
                "start_time": 63.3590909,
                "end_time": 63.4431818,
                "pitch": 52,
                "velocity": 80,
                "duration": 0.0840909,
                "tempo": 120.0
            },
            {
                "start_time": 63.4613636,
                "end_time": 63.5818182,
                "pitch": 55,
                "velocity": 80,
                "duration": 0.1204545,
                "tempo": 120.0
            },
            {
                "start_time": 63.5977273,
                "end_time": 63.6840909,
                "pitch": 62,
                "velocity": 80,
                "duration": 0.0863636,
                "tempo": 120.0
            },
            {
                "start_time": 63.7,
                "end_time": 63.8204545,
                "pitch": 66,
                "velocity": 80,
                "duration": 0.1204545,
                "tempo": 120.0
            },
            {
                "start_time": 63.8386364,
                "end_time": 63.9227273,
                "pitch": 50,
                "velocity": 80,
                "duration": 0.0840909,
                "tempo": 120.0
            },
            {
                "start_time": 63.9409091,
                "end_time": 64.025,
                "pitch": 54,
                "velocity": 80,
                "duration": 0.0840909,
                "tempo": 120.0
            },
            {
                "start_time": 64.0772727,
                "end_time": 64.1636364,
                "pitch": 60,
                "velocity": 80,
                "duration": 0.0863636,
                "tempo": 120.0
            },
            {
                "start_time": 64.1795455,
                "end_time": 64.2659091,
                "pitch": 64,
                "velocity": 80,
                "duration": 0.0863636,
                "tempo": 120.0
            },
            {
                "start_time": 64.2818182,
                "end_time": 64.3931818,
                "pitch": 52,
                "velocity": 80,
                "duration": 0.1113636,
                "tempo": 120.0
            },
            {
                "start_time": 64.4090909,
                "end_time": 64.4863636,
                "pitch": 55,
                "velocity": 80,
                "duration": 0.0772727,
                "tempo": 120.0
            },
            {
                "start_time": 64.5022727,
                "end_time": 64.6113636,
                "pitch": 62,
                "velocity": 80,
                "duration": 0.1090909,
                "tempo": 120.0
            },
            {
                "start_time": 64.6272727,
                "end_time": 64.7045455,
                "pitch": 66,
                "velocity": 80,
                "duration": 0.0772727,
                "tempo": 120.0
            },
            {
                "start_time": 64.7204545,
                "end_time": 64.8045455,
                "pitch": 62,
                "velocity": 80,
                "duration": 0.0840909,
                "tempo": 120.0
            },
            {
                "start_time": 64.8545455,
                "end_time": 64.9386364,
                "pitch": 65,
                "velocity": 80,
                "duration": 0.0840909,
                "tempo": 120.0
            },
            {
                "start_time": 64.9545455,
                "end_time": 65.0386364,
                "pitch": 55,
                "velocity": 80,
                "duration": 0.0840909,
                "tempo": 120.0
            },
            {
                "start_time": 65.0545455,
                "end_time": 65.1727273,
                "pitch": 62,
                "velocity": 80,
                "duration": 0.1181818,
                "tempo": 120.0
            },
            {
                "start_time": 65.1886364,
                "end_time": 65.275,
                "pitch": 52,
                "velocity": 80,
                "duration": 0.0863636,
                "tempo": 120.0
            },
            {
                "start_time": 65.2909091,
                "end_time": 65.4113636,
                "pitch": 66,
                "velocity": 80,
                "duration": 0.1204545,
                "tempo": 120.0
            },
            {
                "start_time": 65.4295455,
                "end_time": 65.5136364,
                "pitch": 55,
                "velocity": 80,
                "duration": 0.0840909,
                "tempo": 120.0
            },
            {
                "start_time": 65.5318182,
                "end_time": 65.6159091,
                "pitch": 62,
                "velocity": 80,
                "duration": 0.0840909,
                "tempo": 120.0
            },
            {
                "start_time": 65.6681818,
                "end_time": 65.7522727,
                "pitch": 51,
                "velocity": 80,
                "duration": 0.0840909,
                "tempo": 120.0
            },
            {
                "start_time": 65.7681818,
                "end_time": 65.8522727,
                "pitch": 55,
                "velocity": 80,
                "duration": 0.0840909,
                "tempo": 120.0
            },
            {
                "start_time": 65.8681818,
                "end_time": 65.9863636,
                "pitch": 61,
                "velocity": 80,
                "duration": 0.1181818,
                "tempo": 120.0
            },
            {
                "start_time": 66.0022727,
                "end_time": 66.0863636,
                "pitch": 65,
                "velocity": 80,
                "duration": 0.0840909,
                "tempo": 120.0
            },
            {
                "start_time": 66.1022727,
                "end_time": 66.2136364,
                "pitch": 50,
                "velocity": 80,
                "duration": 0.1113636,
                "tempo": 120.0
            },
            {
                "start_time": 66.2318182,
                "end_time": 66.3113636,
                "pitch": 53,
                "velocity": 80,
                "duration": 0.0795455,
                "tempo": 120.0
            },
            {
                "start_time": 66.3272727,
                "end_time": 66.4068182,
                "pitch": 60,
                "velocity": 80,
                "duration": 0.0795455,
                "tempo": 120.0
            },
            {
                "start_time": 66.4545455,
                "end_time": 66.5340909,
                "pitch": 64,
                "velocity": 80,
                "duration": 0.0795455,
                "tempo": 120.0
            },
            {
                "start_time": 66.55,
                "end_time": 66.6363636,
                "pitch": 60,
                "velocity": 80,
                "duration": 0.0863636,
                "tempo": 120.0
            },
            {
                "start_time": 66.6522727,
                "end_time": 66.7727273,
                "pitch": 53,
                "velocity": 80,
                "duration": 0.1204545,
                "tempo": 120.0
            },
            {
                "start_time": 66.7886364,
                "end_time": 66.875,
                "pitch": 60,
                "velocity": 80,
                "duration": 0.0863636,
                "tempo": 120.0
            },
            {
                "start_time": 66.8931818,
                "end_time": 67.0113636,
                "pitch": 64,
                "velocity": 80,
                "duration": 0.1181818,
                "tempo": 120.0
            },
            {
                "start_time": 67.0295455,
                "end_time": 67.1159091,
                "pitch": 60,
                "velocity": 80,
                "duration": 0.0863636,
                "tempo": 120.0
            },
            {
                "start_time": 67.1318182,
                "end_time": 67.2181818,
                "pitch": 53,
                "velocity": 80,
                "duration": 0.0863636,
                "tempo": 120.0
            },
            {
                "start_time": 67.2681818,
                "end_time": 67.3545455,
                "pitch": 60,
                "velocity": 80,
                "duration": 0.0863636,
                "tempo": 120.0
            },
            {
                "start_time": 67.3727273,
                "end_time": 67.4568182,
                "pitch": 64,
                "velocity": 80,
                "duration": 0.0840909,
                "tempo": 120.0
            },
            {
                "start_time": 67.475,
                "end_time": 67.5840909,
                "pitch": 48,
                "velocity": 80,
                "duration": 0.1090909,
                "tempo": 120.0
            },
            {
                "start_time": 67.6,
                "end_time": 67.6772727,
                "pitch": 52,
                "velocity": 80,
                "duration": 0.0772727,
                "tempo": 120.0
            },
            {
                "start_time": 67.6931818,
                "end_time": 67.8022727,
                "pitch": 58,
                "velocity": 80,
                "duration": 0.1090909,
                "tempo": 120.0
            },
            {
                "start_time": 67.8181818,
                "end_time": 67.8977273,
                "pitch": 62,
                "velocity": 80,
                "duration": 0.0795455,
                "tempo": 120.0
            },
            {
                "start_time": 67.9136364,
                "end_time": 67.9954545,
                "pitch": 50,
                "velocity": 80,
                "duration": 0.0818182,
                "tempo": 120.0
            },
            {
                "start_time": 68.0454545,
                "end_time": 68.1295455,
                "pitch": 53,
                "velocity": 80,
                "duration": 0.0840909,
                "tempo": 120.0
            },
            {
                "start_time": 68.1477273,
                "end_time": 68.2295455,
                "pitch": 60,
                "velocity": 80,
                "duration": 0.0818182,
                "tempo": 120.0
            },
            {
                "start_time": 68.2477273,
                "end_time": 68.3636364,
                "pitch": 64,
                "velocity": 80,
                "duration": 0.1159091,
                "tempo": 120.0
            },
            {
                "start_time": 68.3818182,
                "end_time": 68.4659091,
                "pitch": 60,
                "velocity": 80,
                "duration": 0.0840909,
                "tempo": 120.0
            },
            {
                "start_time": 68.4840909,
                "end_time": 68.6022727,
                "pitch": 64,
                "velocity": 80,
                "duration": 0.1181818,
                "tempo": 120.0
            },
            {
                "start_time": 68.6204545,
                "end_time": 68.7068182,
                "pitch": 53,
                "velocity": 80,
                "duration": 0.0863636,
                "tempo": 120.0
            },
            {
                "start_time": 68.7227273,
                "end_time": 68.8090909,
                "pitch": 60,
                "velocity": 80,
                "duration": 0.0863636,
                "tempo": 120.0
            },
            {
                "start_time": 68.8590909,
                "end_time": 68.9431818,
                "pitch": 53,
                "velocity": 80,
                "duration": 0.0840909,
                "tempo": 120.0
            },
            {
                "start_time": 68.9590909,
                "end_time": 69.0431818,
                "pitch": 60,
                "velocity": 80,
                "duration": 0.0840909,
                "tempo": 120.0
            },
            {
                "start_time": 69.0613636,
                "end_time": 69.1772727,
                "pitch": 64,
                "velocity": 80,
                "duration": 0.1159091,
                "tempo": 120.0
            },
            {
                "start_time": 69.1931818,
                "end_time": 69.2772727,
                "pitch": 60,
                "velocity": 80,
                "duration": 0.0840909,
                "tempo": 120.0
            },
            {
                "start_time": 69.2954545,
                "end_time": 69.4068182,
                "pitch": 64,
                "velocity": 80,
                "duration": 0.1113636,
                "tempo": 120.0
            },
            {
                "start_time": 69.4227273,
                "end_time": 69.5022727,
                "pitch": 60,
                "velocity": 80,
                "duration": 0.0795455,
                "tempo": 120.0
            },
            {
                "start_time": 69.5181818,
                "end_time": 69.5977273,
                "pitch": 53,
                "velocity": 80,
                "duration": 0.0795455,
                "tempo": 120.0
            },
            {
                "start_time": 69.6454545,
                "end_time": 69.725,
                "pitch": 64,
                "velocity": 80,
                "duration": 0.0795455,
                "tempo": 120.0
            },
            {
                "start_time": 69.7431818,
                "end_time": 69.825,
                "pitch": 48,
                "velocity": 80,
                "duration": 0.0818182,
                "tempo": 120.0
            },
            {
                "start_time": 69.8431818,
                "end_time": 69.9590909,
                "pitch": 52,
                "velocity": 80,
                "duration": 0.1159091,
                "tempo": 120.0
            },
            {
                "start_time": 69.9772727,
                "end_time": 70.0590909,
                "pitch": 58,
                "velocity": 80,
                "duration": 0.0818182,
                "tempo": 120.0
            },
            {
                "start_time": 70.0772727,
                "end_time": 70.1931818,
                "pitch": 62,
                "velocity": 80,
                "duration": 0.1159091,
                "tempo": 120.0
            },
            {
                "start_time": 70.2113636,
                "end_time": 70.2977273,
                "pitch": 52,
                "velocity": 80,
                "duration": 0.0863636,
                "tempo": 120.0
            },
            {
                "start_time": 70.3159091,
                "end_time": 70.4022727,
                "pitch": 58,
                "velocity": 80,
                "duration": 0.0863636,
                "tempo": 120.0
            },
            {
                "start_time": 70.4545455,
                "end_time": 70.5431818,
                "pitch": 62,
                "velocity": 80,
                "duration": 0.0886364,
                "tempo": 120.0
            },
            {
                "start_time": 70.5613636,
                "end_time": 70.6477273,
                "pitch": 48,
                "velocity": 80,
                "duration": 0.0863636,
                "tempo": 120.0
            },
            {
                "start_time": 70.6659091,
                "end_time": 70.775,
                "pitch": 50,
                "velocity": 80,
                "duration": 0.1090909,
                "tempo": 120.0
            },
            {
                "start_time": 70.7909091,
                "end_time": 70.8704545,
                "pitch": 53,
                "velocity": 80,
                "duration": 0.0795455,
                "tempo": 120.0
            },
            {
                "start_time": 70.8840909,
                "end_time": 70.9954545,
                "pitch": 60,
                "velocity": 80,
                "duration": 0.1113636,
                "tempo": 120.0
            },
            {
                "start_time": 71.0090909,
                "end_time": 71.0886364,
                "pitch": 64,
                "velocity": 80,
                "duration": 0.0795455,
                "tempo": 120.0
            },
            {
                "start_time": 71.1045455,
                "end_time": 71.1886364,
                "pitch": 60,
                "velocity": 80,
                "duration": 0.0840909,
                "tempo": 120.0
            },
            {
                "start_time": 71.2386364,
                "end_time": 71.3204545,
                "pitch": 53,
                "velocity": 80,
                "duration": 0.0818182,
                "tempo": 120.0
            },
            {
                "start_time": 71.3386364,
                "end_time": 71.4227273,
                "pitch": 60,
                "velocity": 80,
                "duration": 0.0840909,
                "tempo": 120.0
            },
            {
                "start_time": 71.4386364,
                "end_time": 71.5545455,
                "pitch": 64,
                "velocity": 80,
                "duration": 0.1159091,
                "tempo": 120.0
            },
            {
                "start_time": 71.5727273,
                "end_time": 71.6568182,
                "pitch": 52,
                "velocity": 80,
                "duration": 0.0840909,
                "tempo": 120.0
            },
            {
                "start_time": 71.675,
                "end_time": 71.7954545,
                "pitch": 55,
                "velocity": 80,
                "duration": 0.1204545,
                "tempo": 120.0
            },
            {
                "start_time": 71.8113636,
                "end_time": 71.8977273,
                "pitch": 60,
                "velocity": 80,
                "duration": 0.0863636,
                "tempo": 120.0
            },
            {
                "start_time": 71.9136364,
                "end_time": 72.0,
                "pitch": 65,
                "velocity": 80,
                "duration": 0.0863636,
                "tempo": 120.0
            },
            {
                "start_time": 72.0522727,
                "end_time": 72.1340909,
                "pitch": 52,
                "velocity": 80,
                "duration": 0.0818182,
                "tempo": 120.0
            },
            {
                "start_time": 72.1522727,
                "end_time": 72.2363636,
                "pitch": 55,
                "velocity": 80,
                "duration": 0.0840909,
                "tempo": 120.0
            },
            {
                "start_time": 72.2522727,
                "end_time": 72.3681818,
                "pitch": 60,
                "velocity": 80,
                "duration": 0.1159091,
                "tempo": 120.0
            },
            {
                "start_time": 72.3863636,
                "end_time": 72.4704545,
                "pitch": 65,
                "velocity": 80,
                "duration": 0.0840909,
                "tempo": 120.0
            },
            {
                "start_time": 72.4863636,
                "end_time": 72.5977273,
                "pitch": 53,
                "velocity": 80,
                "duration": 0.1113636,
                "tempo": 120.0
            },
            {
                "start_time": 72.6136364,
                "end_time": 72.6931818,
                "pitch": 57,
                "velocity": 80,
                "duration": 0.0795455,
                "tempo": 120.0
            },
            {
                "start_time": 72.7090909,
                "end_time": 72.7886364,
                "pitch": 63,
                "velocity": 80,
                "duration": 0.0795455,
                "tempo": 120.0
            },
            {
                "start_time": 72.8386364,
                "end_time": 72.9181818,
                "pitch": 67,
                "velocity": 80,
                "duration": 0.0795455,
                "tempo": 120.0
            },
            {
                "start_time": 72.9340909,
                "end_time": 73.0181818,
                "pitch": 63,
                "velocity": 80,
                "duration": 0.0840909,
                "tempo": 120.0
            },
            {
                "start_time": 73.0363636,
                "end_time": 73.1568182,
                "pitch": 57,
                "velocity": 80,
                "duration": 0.1204545,
                "tempo": 120.0
            },
            {
                "start_time": 73.1727273,
                "end_time": 73.2590909,
                "pitch": 53,
                "velocity": 80,
                "duration": 0.0863636,
                "tempo": 120.0
            },
            {
                "start_time": 73.275,
                "end_time": 73.3954545,
                "pitch": 57,
                "velocity": 80,
                "duration": 0.1204545,
                "tempo": 120.0
            }
        ],
        "Trumpet": [
            {
                "start_time": 0.0,
                "end_time": 0.275,
                "pitch": 57,
                "velocity": 51,
                "duration": 0.275,
                "tempo": 120.0
            },
            {
                "start_time": 0.2909091,
                "end_time": 0.3613636,
                "pitch": 57,
                "velocity": 51,
                "duration": 0.0704545,
                "tempo": 120.0
            },
            {
                "start_time": 0.3772727,
                "end_time": 0.4590909,
                "pitch": 57,
                "velocity": 51,
                "duration": 0.0818182,
                "tempo": 120.0
            },
            {
                "start_time": 2.0795455,
                "end_time": 2.1840909,
                "pitch": 57,
                "velocity": 51,
                "duration": 0.1045455,
                "tempo": 120.0
            },
            {
                "start_time": 2.3704545,
                "end_time": 2.4795455,
                "pitch": 57,
                "velocity": 51,
                "duration": 0.1090909,
                "tempo": 120.0
            },
            {
                "start_time": 4.1,
                "end_time": 4.4181818,
                "pitch": 55,
                "velocity": 51,
                "duration": 0.3181818,
                "tempo": 120.0
            },
            {
                "start_time": 4.4340909,
                "end_time": 4.5522727,
                "pitch": 55,
                "velocity": 51,
                "duration": 0.1181818,
                "tempo": 120.0
            },
            {
                "start_time": 6.0295455,
                "end_time": 6.1477273,
                "pitch": 55,
                "velocity": 51,
                "duration": 0.1181818,
                "tempo": 120.0
            },
            {
                "start_time": 6.2636364,
                "end_time": 6.3818182,
                "pitch": 55,
                "velocity": 51,
                "duration": 0.1181818,
                "tempo": 120.0
            },
            {
                "start_time": 6.4977273,
                "end_time": 6.5818182,
                "pitch": 55,
                "velocity": 51,
                "duration": 0.0840909,
                "tempo": 120.0
            },
            {
                "start_time": 7.7590909,
                "end_time": 8.0840909,
                "pitch": 57,
                "velocity": 51,
                "duration": 0.325,
                "tempo": 120.0
            },
            {
                "start_time": 8.1,
                "end_time": 8.1863636,
                "pitch": 57,
                "velocity": 51,
                "duration": 0.0863636,
                "tempo": 120.0
            },
            {
                "start_time": 8.2386364,
                "end_time": 8.3227273,
                "pitch": 57,
                "velocity": 51,
                "duration": 0.0840909,
                "tempo": 120.0
            },
            {
                "start_time": 9.6977273,
                "end_time": 9.7795455,
                "pitch": 57,
                "velocity": 51,
                "duration": 0.0818182,
                "tempo": 120.0
            },
            {
                "start_time": 9.925,
                "end_time": 10.0068182,
                "pitch": 57,
                "velocity": 51,
                "duration": 0.0818182,
                "tempo": 120.0
            },
            {
                "start_time": 11.4295455,
                "end_time": 11.7477273,
                "pitch": 55,
                "velocity": 51,
                "duration": 0.3181818,
                "tempo": 120.0
            },
            {
                "start_time": 11.7636364,
                "end_time": 11.8477273,
                "pitch": 55,
                "velocity": 51,
                "duration": 0.0840909,
                "tempo": 120.0
            },
            {
                "start_time": 13.35,
                "end_time": 13.4272727,
                "pitch": 55,
                "velocity": 51,
                "duration": 0.0772727,
                "tempo": 120.0
            },
            {
                "start_time": 13.5681818,
                "end_time": 13.6477273,
                "pitch": 55,
                "velocity": 51,
                "duration": 0.0795455,
                "tempo": 120.0
            },
            {
                "start_time": 13.8022727,
                "end_time": 13.8886364,
                "pitch": 55,
                "velocity": 51,
                "duration": 0.0863636,
                "tempo": 120.0
            },
            {
                "start_time": 15.0545455,
                "end_time": 15.2613636,
                "pitch": 40,
                "velocity": 51,
                "duration": 0.2068182,
                "tempo": 120.0
            },
            {
                "start_time": 15.2795455,
                "end_time": 15.3272727,
                "pitch": 40,
                "velocity": 51,
                "duration": 0.0477273,
                "tempo": 120.0
            },
            {
                "start_time": 15.4068182,
                "end_time": 15.5863636,
                "pitch": 40,
                "velocity": 51,
                "duration": 0.1795455,
                "tempo": 120.0
            },
            {
                "start_time": 15.6022727,
                "end_time": 15.6863636,
                "pitch": 40,
                "velocity": 51,
                "duration": 0.0840909,
                "tempo": 120.0
            },
            {
                "start_time": 15.7363636,
                "end_time": 15.8204545,
                "pitch": 50,
                "velocity": 51,
                "duration": 0.0840909,
                "tempo": 120.0
            },
            {
                "start_time": 15.8363636,
                "end_time": 15.9545455,
                "pitch": 52,
                "velocity": 51,
                "duration": 0.1181818,
                "tempo": 120.0
            },
            {
                "start_time": 15.9704545,
                "end_time": 16.0227273,
                "pitch": 40,
                "velocity": 51,
                "duration": 0.0522727,
                "tempo": 120.0
            },
            {
                "start_time": 16.0727273,
                "end_time": 16.125,
                "pitch": 40,
                "velocity": 51,
                "duration": 0.0522727,
                "tempo": 120.0
            },
            {
                "start_time": 16.2113636,
                "end_time": 16.3977273,
                "pitch": 40,
                "velocity": 51,
                "duration": 0.1863636,
                "tempo": 120.0
            },
            {
                "start_time": 16.4159091,
                "end_time": 16.4954545,
                "pitch": 40,
                "velocity": 51,
                "duration": 0.0795455,
                "tempo": 120.0
            },
            {
                "start_time": 16.5431818,
                "end_time": 16.6227273,
                "pitch": 50,
                "velocity": 51,
                "duration": 0.0795455,
                "tempo": 120.0
            },
            {
                "start_time": 16.6386364,
                "end_time": 16.7522727,
                "pitch": 52,
                "velocity": 51,
                "duration": 0.1136364,
                "tempo": 120.0
            },
            {
                "start_time": 16.7681818,
                "end_time": 16.8477273,
                "pitch": 40,
                "velocity": 51,
                "duration": 0.0795455,
                "tempo": 120.0
            },
            {
                "start_time": 16.8636364,
                "end_time": 17.0818182,
                "pitch": 40,
                "velocity": 51,
                "duration": 0.2181818,
                "tempo": 120.0
            },
            {
                "start_time": 17.0977273,
                "end_time": 17.1477273,
                "pitch": 40,
                "velocity": 51,
                "duration": 0.05,
                "tempo": 120.0
            },
            {
                "start_time": 17.1977273,
                "end_time": 17.4181818,
                "pitch": 40,
                "velocity": 51,
                "duration": 0.2204545,
                "tempo": 120.0
            },
            {
                "start_time": 17.4340909,
                "end_time": 17.4863636,
                "pitch": 40,
                "velocity": 51,
                "duration": 0.0522727,
                "tempo": 120.0
            },
            {
                "start_time": 17.5704545,
                "end_time": 17.6568182,
                "pitch": 50,
                "velocity": 51,
                "duration": 0.0863636,
                "tempo": 120.0
            },
            {
                "start_time": 17.675,
                "end_time": 17.7590909,
                "pitch": 52,
                "velocity": 51,
                "duration": 0.0840909,
                "tempo": 120.0
            },
            {
                "start_time": 17.8113636,
                "end_time": 17.9954545,
                "pitch": 37,
                "velocity": 51,
                "duration": 0.1840909,
                "tempo": 120.0
            },
            {
                "start_time": 18.0113636,
                "end_time": 18.1272727,
                "pitch": 49,
                "velocity": 51,
                "duration": 0.1159091,
                "tempo": 120.0
            },
            {
                "start_time": 18.1454545,
                "end_time": 18.2295455,
                "pitch": 37,
                "velocity": 51,
                "duration": 0.0840909,
                "tempo": 120.0
            },
            {
                "start_time": 18.2454545,
                "end_time": 18.3568182,
                "pitch": 38,
                "velocity": 51,
                "duration": 0.1113636,
                "tempo": 120.0
            },
            {
                "start_time": 18.3727273,
                "end_time": 18.4522727,
                "pitch": 50,
                "velocity": 51,
                "duration": 0.0795455,
                "tempo": 120.0
            },
            {
                "start_time": 18.4681818,
                "end_time": 18.55,
                "pitch": 39,
                "velocity": 51,
                "duration": 0.0818182,
                "tempo": 120.0
            },
            {
                "start_time": 18.5977273,
                "end_time": 18.6772727,
                "pitch": 51,
                "velocity": 51,
                "duration": 0.0795455,
                "tempo": 120.0
            },
            {
                "start_time": 18.6931818,
                "end_time": 18.9159091,
                "pitch": 40,
                "velocity": 51,
                "duration": 0.2227273,
                "tempo": 120.0
            },
            {
                "start_time": 18.9318182,
                "end_time": 18.9840909,
                "pitch": 40,
                "velocity": 51,
                "duration": 0.0522727,
                "tempo": 120.0
            },
            {
                "start_time": 19.0340909,
                "end_time": 19.2545455,
                "pitch": 40,
                "velocity": 51,
                "duration": 0.2204545,
                "tempo": 120.0
            },
            {
                "start_time": 19.2727273,
                "end_time": 19.3227273,
                "pitch": 40,
                "velocity": 51,
                "duration": 0.05,
                "tempo": 120.0
            },
            {
                "start_time": 19.4068182,
                "end_time": 19.4886364,
                "pitch": 50,
                "velocity": 51,
                "duration": 0.0818182,
                "tempo": 120.0
            },
            {
                "start_time": 19.5068182,
                "end_time": 19.5886364,
                "pitch": 52,
                "velocity": 51,
                "duration": 0.0818182,
                "tempo": 120.0
            },
            {
                "start_time": 19.6068182,
                "end_time": 19.6863636,
                "pitch": 40,
                "velocity": 51,
                "duration": 0.0795455,
                "tempo": 120.0
            },
            {
                "start_time": 19.7340909,
                "end_time": 19.7818182,
                "pitch": 40,
                "velocity": 51,
                "duration": 0.0477273,
                "tempo": 120.0
            },
            {
                "start_time": 19.8295455,
                "end_time": 20.0386364,
                "pitch": 40,
                "velocity": 51,
                "duration": 0.2090909,
                "tempo": 120.0
            },
            {
                "start_time": 20.0545455,
                "end_time": 20.1045455,
                "pitch": 40,
                "velocity": 51,
                "duration": 0.05,
                "tempo": 120.0
            },
            {
                "start_time": 20.1886364,
                "end_time": 20.2704545,
                "pitch": 50,
                "velocity": 51,
                "duration": 0.0818182,
                "tempo": 120.0
            },
            {
                "start_time": 20.2886364,
                "end_time": 20.3727273,
                "pitch": 52,
                "velocity": 51,
                "duration": 0.0840909,
                "tempo": 120.0
            },
            {
                "start_time": 20.3886364,
                "end_time": 20.5045455,
                "pitch": 40,
                "velocity": 51,
                "duration": 0.1159091,
                "tempo": 120.0
            },
            {
                "start_time": 20.5227273,
                "end_time": 20.7454545,
                "pitch": 40,
                "velocity": 51,
                "duration": 0.2227273,
                "tempo": 120.0
            },
            {
                "start_time": 20.7613636,
                "end_time": 20.8136364,
                "pitch": 40,
                "velocity": 51,
                "duration": 0.0522727,
                "tempo": 120.0
            },
            {
                "start_time": 20.8636364,
                "end_time": 21.0840909,
                "pitch": 40,
                "velocity": 51,
                "duration": 0.2204545,
                "tempo": 120.0
            },
            {
                "start_time": 21.1022727,
                "end_time": 21.1522727,
                "pitch": 40,
                "velocity": 51,
                "duration": 0.05,
                "tempo": 120.0
            },
            {
                "start_time": 21.2022727,
                "end_time": 21.3181818,
                "pitch": 50,
                "velocity": 51,
                "duration": 0.1159091,
                "tempo": 120.0
            },
            {
                "start_time": 21.3363636,
                "end_time": 21.4204545,
                "pitch": 52,
                "velocity": 51,
                "duration": 0.0840909,
                "tempo": 120.0
            },
            {
                "start_time": 21.4363636,
                "end_time": 21.6477273,
                "pitch": 37,
                "velocity": 51,
                "duration": 0.2113636,
                "tempo": 120.0
            },
            {
                "start_time": 21.6659091,
                "end_time": 21.7477273,
                "pitch": 49,
                "velocity": 51,
                "duration": 0.0818182,
                "tempo": 120.0
            },
            {
                "start_time": 21.7954545,
                "end_time": 21.8772727,
                "pitch": 37,
                "velocity": 51,
                "duration": 0.0818182,
                "tempo": 120.0
            },
            {
                "start_time": 21.8931818,
                "end_time": 21.9772727,
                "pitch": 38,
                "velocity": 51,
                "duration": 0.0840909,
                "tempo": 120.0
            },
            {
                "start_time": 21.9931818,
                "end_time": 22.1113636,
                "pitch": 50,
                "velocity": 51,
                "duration": 0.1181818,
                "tempo": 120.0
            },
            {
                "start_time": 22.1272727,
                "end_time": 22.2113636,
                "pitch": 39,
                "velocity": 51,
                "duration": 0.0840909,
                "tempo": 120.0
            },
            {
                "start_time": 22.2272727,
                "end_time": 22.3454545,
                "pitch": 51,
                "velocity": 51,
                "duration": 0.1181818,
                "tempo": 120.0
            },
            {
                "start_time": 22.3613636,
                "end_time": 22.5454545,
                "pitch": 40,
                "velocity": 51,
                "duration": 0.1840909,
                "tempo": 120.0
            },
            {
                "start_time": 22.5954545,
                "end_time": 22.6454545,
                "pitch": 40,
                "velocity": 51,
                "duration": 0.05,
                "tempo": 120.0
            },
            {
                "start_time": 22.6954545,
                "end_time": 22.9090909,
                "pitch": 40,
                "velocity": 51,
                "duration": 0.2136364,
                "tempo": 120.0
            },
            {
                "start_time": 22.925,
                "end_time": 22.9727273,
                "pitch": 40,
                "velocity": 51,
                "duration": 0.0477273,
                "tempo": 120.0
            },
            {
                "start_time": 23.0204545,
                "end_time": 23.1318182,
                "pitch": 50,
                "velocity": 51,
                "duration": 0.1113636,
                "tempo": 120.0
            },
            {
                "start_time": 23.1477273,
                "end_time": 23.2272727,
                "pitch": 52,
                "velocity": 51,
                "duration": 0.0795455,
                "tempo": 120.0
            },
            {
                "start_time": 23.2431818,
                "end_time": 23.2954545,
                "pitch": 40,
                "velocity": 51,
                "duration": 0.0522727,
                "tempo": 120.0
            },
            {
                "start_time": 23.3818182,
                "end_time": 23.4318182,
                "pitch": 40,
                "velocity": 51,
                "duration": 0.05,
                "tempo": 120.0
            },
            {
                "start_time": 23.4840909,
                "end_time": 23.7068182,
                "pitch": 40,
                "velocity": 51,
                "duration": 0.2227273,
                "tempo": 120.0
            },
            {
                "start_time": 23.7227273,
                "end_time": 23.7727273,
                "pitch": 40,
                "velocity": 51,
                "duration": 0.05,
                "tempo": 120.0
            },
            {
                "start_time": 23.8227273,
                "end_time": 23.9409091,
                "pitch": 50,
                "velocity": 51,
                "duration": 0.1181818,
                "tempo": 120.0
            },
            {
                "start_time": 23.9568182,
                "end_time": 24.0409091,
                "pitch": 52,
                "velocity": 51,
                "duration": 0.0840909,
                "tempo": 120.0
            },
            {
                "start_time": 24.0568182,
                "end_time": 24.1409091,
                "pitch": 40,
                "velocity": 51,
                "duration": 0.0840909,
                "tempo": 120.0
            },
            {
                "start_time": 24.1909091,
                "end_time": 24.375,
                "pitch": 40,
                "velocity": 51,
                "duration": 0.1840909,
                "tempo": 120.0
            },
            {
                "start_time": 24.3909091,
                "end_time": 24.475,
                "pitch": 40,
                "velocity": 51,
                "duration": 0.0840909,
                "tempo": 120.0
            },
            {
                "start_time": 24.525,
                "end_time": 24.7386364,
                "pitch": 40,
                "velocity": 51,
                "duration": 0.2136364,
                "tempo": 120.0
            },
            {
                "start_time": 24.7545455,
                "end_time": 24.8022727,
                "pitch": 40,
                "velocity": 51,
                "duration": 0.0477273,
                "tempo": 120.0
            },
            {
                "start_time": 24.85,
                "end_time": 24.9295455,
                "pitch": 50,
                "velocity": 51,
                "duration": 0.0795455,
                "tempo": 120.0
            },
            {
                "start_time": 24.9772727,
                "end_time": 25.0568182,
                "pitch": 52,
                "velocity": 51,
                "duration": 0.0795455,
                "tempo": 120.0
            },
            {
                "start_time": 25.0727273,
                "end_time": 25.2954545,
                "pitch": 37,
                "velocity": 51,
                "duration": 0.2227273,
                "tempo": 120.0
            },
            {
                "start_time": 25.3136364,
                "end_time": 25.3977273,
                "pitch": 49,
                "velocity": 51,
                "duration": 0.0840909,
                "tempo": 120.0
            },
            {
                "start_time": 25.4159091,
                "end_time": 25.5340909,
                "pitch": 37,
                "velocity": 51,
                "duration": 0.1181818,
                "tempo": 120.0
            },
            {
                "start_time": 25.5522727,
                "end_time": 25.6363636,
                "pitch": 38,
                "velocity": 51,
                "duration": 0.0840909,
                "tempo": 120.0
            },
            {
                "start_time": 25.6522727,
                "end_time": 25.7363636,
                "pitch": 50,
                "velocity": 51,
                "duration": 0.0840909,
                "tempo": 120.0
            },
            {
                "start_time": 25.7863636,
                "end_time": 25.8704545,
                "pitch": 39,
                "velocity": 51,
                "duration": 0.0840909,
                "tempo": 120.0
            },
            {
                "start_time": 25.8863636,
                "end_time": 25.9704545,
                "pitch": 51,
                "velocity": 51,
                "duration": 0.0840909,
                "tempo": 120.0
            },
            {
                "start_time": 25.9863636,
                "end_time": 26.1954545,
                "pitch": 40,
                "velocity": 51,
                "duration": 0.2090909,
                "tempo": 120.0
            },
            {
                "start_time": 26.2113636,
                "end_time": 26.2590909,
                "pitch": 40,
                "velocity": 51,
                "duration": 0.0477273,
                "tempo": 120.0
            },
            {
                "start_time": 26.3386364,
                "end_time": 26.5181818,
                "pitch": 40,
                "velocity": 51,
                "duration": 0.1795455,
                "tempo": 120.0
            },
            {
                "start_time": 26.5681818,
                "end_time": 26.6181818,
                "pitch": 40,
                "velocity": 51,
                "duration": 0.05,
                "tempo": 120.0
            },
            {
                "start_time": 26.6681818,
                "end_time": 26.7522727,
                "pitch": 50,
                "velocity": 51,
                "duration": 0.0840909,
                "tempo": 120.0
            },
            {
                "start_time": 26.7681818,
                "end_time": 26.8863636,
                "pitch": 52,
                "velocity": 51,
                "duration": 0.1181818,
                "tempo": 120.0
            },
            {
                "start_time": 26.9022727,
                "end_time": 26.9545455,
                "pitch": 40,
                "velocity": 51,
                "duration": 0.0522727,
                "tempo": 120.0
            },
            {
                "start_time": 27.0045455,
                "end_time": 27.0568182,
                "pitch": 40,
                "velocity": 51,
                "duration": 0.0522727,
                "tempo": 120.0
            },
            {
                "start_time": 27.1431818,
                "end_time": 27.3295455,
                "pitch": 40,
                "velocity": 51,
                "duration": 0.1863636,
                "tempo": 120.0
            },
            {
                "start_time": 27.3818182,
                "end_time": 27.4318182,
                "pitch": 40,
                "velocity": 51,
                "duration": 0.05,
                "tempo": 120.0
            },
            {
                "start_time": 27.4818182,
                "end_time": 27.5659091,
                "pitch": 50,
                "velocity": 51,
                "duration": 0.0840909,
                "tempo": 120.0
            },
            {
                "start_time": 27.5818182,
                "end_time": 27.7,
                "pitch": 52,
                "velocity": 51,
                "duration": 0.1181818,
                "tempo": 120.0
            },
            {
                "start_time": 27.7159091,
                "end_time": 27.8,
                "pitch": 40,
                "velocity": 51,
                "duration": 0.0840909,
                "tempo": 120.0
            },
            {
                "start_time": 27.8159091,
                "end_time": 28.025,
                "pitch": 40,
                "velocity": 51,
                "duration": 0.2090909,
                "tempo": 120.0
            },
            {
                "start_time": 28.0409091,
                "end_time": 28.0886364,
                "pitch": 40,
                "velocity": 51,
                "duration": 0.0477273,
                "tempo": 120.0
            },
            {
                "start_time": 28.1681818,
                "end_time": 28.3477273,
                "pitch": 40,
                "velocity": 51,
                "duration": 0.1795455,
                "tempo": 120.0
            },
            {
                "start_time": 28.3636364,
                "end_time": 28.4477273,
                "pitch": 40,
                "velocity": 51,
                "duration": 0.0840909,
                "tempo": 120.0
            },
            {
                "start_time": 28.4977273,
                "end_time": 28.5818182,
                "pitch": 50,
                "velocity": 51,
                "duration": 0.0840909,
                "tempo": 120.0
            },
            {
                "start_time": 28.5977273,
                "end_time": 28.7159091,
                "pitch": 52,
                "velocity": 51,
                "duration": 0.1181818,
                "tempo": 120.0
            },
            {
                "start_time": 28.7318182,
                "end_time": 28.9204545,
                "pitch": 37,
                "velocity": 51,
                "duration": 0.1886364,
                "tempo": 120.0
            },
            {
                "start_time": 28.9727273,
                "end_time": 29.0568182,
                "pitch": 49,
                "velocity": 51,
                "duration": 0.0840909,
                "tempo": 120.0
            },
            {
                "start_time": 29.075,
                "end_time": 29.1613636,
                "pitch": 37,
                "velocity": 51,
                "duration": 0.0863636,
                "tempo": 120.0
            },
            {
                "start_time": 29.1772727,
                "end_time": 29.2886364,
                "pitch": 38,
                "velocity": 51,
                "duration": 0.1113636,
                "tempo": 120.0
            },
            {
                "start_time": 29.3045455,
                "end_time": 29.3863636,
                "pitch": 50,
                "velocity": 51,
                "duration": 0.0818182,
                "tempo": 120.0
            },
            {
                "start_time": 29.4022727,
                "end_time": 29.5136364,
                "pitch": 39,
                "velocity": 51,
                "duration": 0.1113636,
                "tempo": 120.0
            },
            {
                "start_time": 29.5295455,
                "end_time": 29.6090909,
                "pitch": 51,
                "velocity": 51,
                "duration": 0.0795455,
                "tempo": 120.0
            },
            {
                "start_time": 29.625,
                "end_time": 29.8477273,
                "pitch": 40,
                "velocity": 51,
                "duration": 0.2227273,
                "tempo": 120.0
            },
            {
                "start_time": 29.8636364,
                "end_time": 29.9159091,
                "pitch": 40,
                "velocity": 51,
                "duration": 0.0522727,
                "tempo": 120.0
            },
            {
                "start_time": 29.9659091,
                "end_time": 30.1886364,
                "pitch": 40,
                "velocity": 51,
                "duration": 0.2227273,
                "tempo": 120.0
            },
            {
                "start_time": 30.2045455,
                "end_time": 30.2545455,
                "pitch": 40,
                "velocity": 51,
                "duration": 0.05,
                "tempo": 120.0
            },
            {
                "start_time": 30.3386364,
                "end_time": 30.4227273,
                "pitch": 50,
                "velocity": 51,
                "duration": 0.0840909,
                "tempo": 120.0
            },
            {
                "start_time": 30.4386364,
                "end_time": 30.5227273,
                "pitch": 52,
                "velocity": 51,
                "duration": 0.0840909,
                "tempo": 120.0
            },
            {
                "start_time": 30.5727273,
                "end_time": 30.6227273,
                "pitch": 40,
                "velocity": 51,
                "duration": 0.05,
                "tempo": 120.0
            },
            {
                "start_time": 30.6727273,
                "end_time": 30.7227273,
                "pitch": 40,
                "velocity": 51,
                "duration": 0.05,
                "tempo": 120.0
            },
            {
                "start_time": 30.7727273,
                "end_time": 30.9909091,
                "pitch": 40,
                "velocity": 51,
                "duration": 0.2181818,
                "tempo": 120.0
            },
            {
                "start_time": 31.0068182,
                "end_time": 31.0545455,
                "pitch": 40,
                "velocity": 51,
                "duration": 0.0477273,
                "tempo": 120.0
            },
            {
                "start_time": 31.1340909,
                "end_time": 31.2136364,
                "pitch": 50,
                "velocity": 51,
                "duration": 0.0795455,
                "tempo": 120.0
            },
            {
                "start_time": 31.2295455,
                "end_time": 31.3113636,
                "pitch": 52,
                "velocity": 51,
                "duration": 0.0818182,
                "tempo": 120.0
            },
            {
                "start_time": 31.3590909,
                "end_time": 31.4386364,
                "pitch": 40,
                "velocity": 51,
                "duration": 0.0795455,
                "tempo": 120.0
            },
            {
                "start_time": 31.4545455,
                "end_time": 31.6727273,
                "pitch": 40,
                "velocity": 51,
                "duration": 0.2181818,
                "tempo": 120.0
            },
            {
                "start_time": 31.6886364,
                "end_time": 31.7386364,
                "pitch": 40,
                "velocity": 51,
                "duration": 0.05,
                "tempo": 120.0
            },
            {
                "start_time": 31.7886364,
                "end_time": 32.0090909,
                "pitch": 40,
                "velocity": 51,
                "duration": 0.2204545,
                "tempo": 120.0
            },
            {
                "start_time": 32.025,
                "end_time": 32.0772727,
                "pitch": 40,
                "velocity": 51,
                "duration": 0.0522727,
                "tempo": 120.0
            },
            {
                "start_time": 32.1613636,
                "end_time": 32.2477273,
                "pitch": 50,
                "velocity": 51,
                "duration": 0.0863636,
                "tempo": 120.0
            },
            {
                "start_time": 32.2659091,
                "end_time": 32.35,
                "pitch": 52,
                "velocity": 51,
                "duration": 0.0840909,
                "tempo": 120.0
            },
            {
                "start_time": 32.3681818,
                "end_time": 32.5818182,
                "pitch": 37,
                "velocity": 51,
                "duration": 0.2136364,
                "tempo": 120.0
            },
            {
                "start_time": 32.5977273,
                "end_time": 32.7113636,
                "pitch": 49,
                "velocity": 51,
                "duration": 0.1136364,
                "tempo": 120.0
            },
            {
                "start_time": 32.7272727,
                "end_time": 32.8090909,
                "pitch": 37,
                "velocity": 51,
                "duration": 0.0818182,
                "tempo": 120.0
            },
            {
                "start_time": 32.825,
                "end_time": 32.9090909,
                "pitch": 38,
                "velocity": 51,
                "duration": 0.0840909,
                "tempo": 120.0
            },
            {
                "start_time": 32.9590909,
                "end_time": 33.0431818,
                "pitch": 50,
                "velocity": 51,
                "duration": 0.0840909,
                "tempo": 120.0
            },
            {
                "start_time": 33.0590909,
                "end_time": 33.1431818,
                "pitch": 39,
                "velocity": 51,
                "duration": 0.0840909,
                "tempo": 120.0
            },
            {
                "start_time": 33.1590909,
                "end_time": 33.2772727,
                "pitch": 51,
                "velocity": 51,
                "duration": 0.1181818,
                "tempo": 120.0
            },
            {
                "start_time": 33.2931818,
                "end_time": 33.5113636,
                "pitch": 40,
                "velocity": 51,
                "duration": 0.2181818,
                "tempo": 120.0
            },
            {
                "start_time": 33.5272727,
                "end_time": 33.5772727,
                "pitch": 40,
                "velocity": 51,
                "duration": 0.05,
                "tempo": 120.0
            },
            {
                "start_time": 33.6272727,
                "end_time": 33.8454545,
                "pitch": 40,
                "velocity": 51,
                "duration": 0.2181818,
                "tempo": 120.0
            },
            {
                "start_time": 33.8613636,
                "end_time": 33.9136364,
                "pitch": 40,
                "velocity": 51,
                "duration": 0.0522727,
                "tempo": 120.0
            },
            {
                "start_time": 33.9636364,
                "end_time": 34.0795455,
                "pitch": 50,
                "velocity": 51,
                "duration": 0.1159091,
                "tempo": 120.0
            },
            {
                "start_time": 34.0954545,
                "end_time": 34.1795455,
                "pitch": 52,
                "velocity": 51,
                "duration": 0.0840909,
                "tempo": 120.0
            },
            {
                "start_time": 34.1977273,
                "end_time": 34.2454545,
                "pitch": 40,
                "velocity": 51,
                "duration": 0.0477273,
                "tempo": 120.0
            },
            {
                "start_time": 34.325,
                "end_time": 34.3727273,
                "pitch": 40,
                "velocity": 51,
                "duration": 0.0477273,
                "tempo": 120.0
            },
            {
                "start_time": 34.4204545,
                "end_time": 34.6272727,
                "pitch": 40,
                "velocity": 51,
                "duration": 0.2068182,
                "tempo": 120.0
            },
            {
                "start_time": 34.6454545,
                "end_time": 34.6954545,
                "pitch": 40,
                "velocity": 51,
                "duration": 0.05,
                "tempo": 120.0
            },
            {
                "start_time": 34.7454545,
                "end_time": 34.8613636,
                "pitch": 50,
                "velocity": 51,
                "duration": 0.1159091,
                "tempo": 120.0
            },
            {
                "start_time": 34.8795455,
                "end_time": 34.9613636,
                "pitch": 52,
                "velocity": 51,
                "duration": 0.0818182,
                "tempo": 120.0
            },
            {
                "start_time": 34.9795455,
                "end_time": 35.0954545,
                "pitch": 40,
                "velocity": 51,
                "duration": 0.1159091,
                "tempo": 120.0
            },
            {
                "start_time": 35.1136364,
                "end_time": 35.3,
                "pitch": 40,
                "velocity": 51,
                "duration": 0.1863636,
                "tempo": 120.0
            },
            {
                "start_time": 35.3522727,
                "end_time": 35.4045455,
                "pitch": 40,
                "velocity": 51,
                "duration": 0.0522727,
                "tempo": 120.0
            },
            {
                "start_time": 35.4545455,
                "end_time": 35.6704545,
                "pitch": 40,
                "velocity": 51,
                "duration": 0.2159091,
                "tempo": 120.0
            },
            {
                "start_time": 35.6863636,
                "end_time": 35.7340909,
                "pitch": 40,
                "velocity": 51,
                "duration": 0.0477273,
                "tempo": 120.0
            },
            {
                "start_time": 35.7818182,
                "end_time": 35.8931818,
                "pitch": 50,
                "velocity": 51,
                "duration": 0.1113636,
                "tempo": 120.0
            },
            {
                "start_time": 35.9090909,
                "end_time": 35.9886364,
                "pitch": 52,
                "velocity": 51,
                "duration": 0.0795455,
                "tempo": 120.0
            },
            {
                "start_time": 36.0045455,
                "end_time": 36.2272727,
                "pitch": 37,
                "velocity": 51,
                "duration": 0.2227273,
                "tempo": 120.0
            },
            {
                "start_time": 36.2454545,
                "end_time": 36.3295455,
                "pitch": 49,
                "velocity": 51,
                "duration": 0.0840909,
                "tempo": 120.0
            },
            {
                "start_time": 36.3477273,
                "end_time": 36.4659091,
                "pitch": 37,
                "velocity": 51,
                "duration": 0.1181818,
                "tempo": 120.0
            },
            {
                "start_time": 36.4840909,
                "end_time": 36.5681818,
                "pitch": 38,
                "velocity": 51,
                "duration": 0.0840909,
                "tempo": 120.0
            },
            {
                "start_time": 36.5840909,
                "end_time": 36.7022727,
                "pitch": 50,
                "velocity": 51,
                "duration": 0.1181818,
                "tempo": 120.0
            },
            {
                "start_time": 36.7181818,
                "end_time": 36.8022727,
                "pitch": 39,
                "velocity": 51,
                "duration": 0.0840909,
                "tempo": 120.0
            },
            {
                "start_time": 36.8181818,
                "end_time": 36.9022727,
                "pitch": 51,
                "velocity": 51,
                "duration": 0.0840909,
                "tempo": 120.0
            },
            {
                "start_time": 36.9522727,
                "end_time": 37.1363636,
                "pitch": 40,
                "velocity": 51,
                "duration": 0.1840909,
                "tempo": 120.0
            },
            {
                "start_time": 37.1522727,
                "end_time": 37.2363636,
                "pitch": 40,
                "velocity": 51,
                "duration": 0.0840909,
                "tempo": 120.0
            },
            {
                "start_time": 37.2863636,
                "end_time": 37.4977273,
                "pitch": 40,
                "velocity": 51,
                "duration": 0.2113636,
                "tempo": 120.0
            },
            {
                "start_time": 37.5159091,
                "end_time": 37.5636364,
                "pitch": 40,
                "velocity": 51,
                "duration": 0.0477273,
                "tempo": 120.0
            },
            {
                "start_time": 37.6113636,
                "end_time": 37.6909091,
                "pitch": 50,
                "velocity": 51,
                "duration": 0.0795455,
                "tempo": 120.0
            },
            {
                "start_time": 37.7386364,
                "end_time": 37.8181818,
                "pitch": 52,
                "velocity": 51,
                "duration": 0.0795455,
                "tempo": 120.0
            },
            {
                "start_time": 37.8340909,
                "end_time": 37.8840909,
                "pitch": 40,
                "velocity": 51,
                "duration": 0.05,
                "tempo": 120.0
            },
            {
                "start_time": 37.9340909,
                "end_time": 38.0181818,
                "pitch": 40,
                "velocity": 51,
                "duration": 0.0840909,
                "tempo": 120.0
            },
            {
                "start_time": 38.0681818,
                "end_time": 38.2863636,
                "pitch": 40,
                "velocity": 51,
                "duration": 0.2181818,
                "tempo": 120.0
            },
            {
                "start_time": 38.3022727,
                "end_time": 38.3545455,
                "pitch": 40,
                "velocity": 51,
                "duration": 0.0522727,
                "tempo": 120.0
            },
            {
                "start_time": 38.4045455,
                "end_time": 38.4909091,
                "pitch": 50,
                "velocity": 51,
                "duration": 0.0863636,
                "tempo": 120.0
            },
            {
                "start_time": 38.5431818,
                "end_time": 38.6272727,
                "pitch": 52,
                "velocity": 51,
                "duration": 0.0840909,
                "tempo": 120.0
            },
            {
                "start_time": 38.6454545,
                "end_time": 38.7318182,
                "pitch": 40,
                "velocity": 51,
                "duration": 0.0863636,
                "tempo": 120.0
            },
            {
                "start_time": 38.7477273,
                "end_time": 38.9568182,
                "pitch": 40,
                "velocity": 51,
                "duration": 0.2090909,
                "tempo": 120.0
            },
            {
                "start_time": 38.9727273,
                "end_time": 39.0204545,
                "pitch": 40,
                "velocity": 51,
                "duration": 0.0477273,
                "tempo": 120.0
            },
            {
                "start_time": 39.1,
                "end_time": 39.2795455,
                "pitch": 40,
                "velocity": 51,
                "duration": 0.1795455,
                "tempo": 120.0
            },
            {
                "start_time": 39.3295455,
                "end_time": 39.3795455,
                "pitch": 40,
                "velocity": 51,
                "duration": 0.05,
                "tempo": 120.0
            },
            {
                "start_time": 39.4295455,
                "end_time": 39.5136364,
                "pitch": 50,
                "velocity": 51,
                "duration": 0.0840909,
                "tempo": 120.0
            },
            {
                "start_time": 39.5295455,
                "end_time": 39.6477273,
                "pitch": 52,
                "velocity": 51,
                "duration": 0.1181818,
                "tempo": 120.0
            },
            {
                "start_time": 39.6636364,
                "end_time": 39.8863636,
                "pitch": 37,
                "velocity": 51,
                "duration": 0.2227273,
                "tempo": 120.0
            },
            {
                "start_time": 39.9045455,
                "end_time": 39.9886364,
                "pitch": 49,
                "velocity": 51,
                "duration": 0.0840909,
                "tempo": 120.0
            },
            {
                "start_time": 40.0068182,
                "end_time": 40.0909091,
                "pitch": 37,
                "velocity": 51,
                "duration": 0.0840909,
                "tempo": 120.0
            },
            {
                "start_time": 40.1431818,
                "end_time": 40.2272727,
                "pitch": 38,
                "velocity": 51,
                "duration": 0.0840909,
                "tempo": 120.0
            },
            {
                "start_time": 40.2431818,
                "end_time": 40.3272727,
                "pitch": 50,
                "velocity": 51,
                "duration": 0.0840909,
                "tempo": 120.0
            },
            {
                "start_time": 40.3431818,
                "end_time": 40.4613636,
                "pitch": 39,
                "velocity": 51,
                "duration": 0.1181818,
                "tempo": 120.0
            },
            {
                "start_time": 40.4772727,
                "end_time": 40.5613636,
                "pitch": 51,
                "velocity": 51,
                "duration": 0.0840909,
                "tempo": 120.0
            },
            {
                "start_time": 40.5772727,
                "end_time": 40.7909091,
                "pitch": 40,
                "velocity": 51,
                "duration": 0.2136364,
                "tempo": 120.0
            },
            {
                "start_time": 40.8068182,
                "end_time": 40.8568182,
                "pitch": 40,
                "velocity": 51,
                "duration": 0.05,
                "tempo": 120.0
            },
            {
                "start_time": 40.9363636,
                "end_time": 41.1181818,
                "pitch": 40,
                "velocity": 51,
                "duration": 0.1818182,
                "tempo": 120.0
            },
            {
                "start_time": 41.1363636,
                "end_time": 41.2181818,
                "pitch": 40,
                "velocity": 51,
                "duration": 0.0818182,
                "tempo": 120.0
            },
            {
                "start_time": 41.2704545,
                "end_time": 41.3522727,
                "pitch": 50,
                "velocity": 51,
                "duration": 0.0818182,
                "tempo": 120.0
            },
            {
                "start_time": 41.3704545,
                "end_time": 41.4863636,
                "pitch": 52,
                "velocity": 51,
                "duration": 0.1159091,
                "tempo": 120.0
            },
            {
                "start_time": 41.5045455,
                "end_time": 41.5545455,
                "pitch": 40,
                "velocity": 51,
                "duration": 0.05,
                "tempo": 120.0
            },
            {
                "start_time": 41.6045455,
                "end_time": 41.6545455,
                "pitch": 40,
                "velocity": 51,
                "duration": 0.05,
                "tempo": 120.0
            },
            {
                "start_time": 41.7386364,
                "end_time": 41.9204545,
                "pitch": 40,
                "velocity": 51,
                "duration": 0.1818182,
                "tempo": 120.0
            },
            {
                "start_time": 41.9386364,
                "end_time": 42.0181818,
                "pitch": 40,
                "velocity": 51,
                "duration": 0.0795455,
                "tempo": 120.0
            },
            {
                "start_time": 42.0659091,
                "end_time": 42.1454545,
                "pitch": 50,
                "velocity": 51,
                "duration": 0.0795455,
                "tempo": 120.0
            },
            {
                "start_time": 42.1613636,
                "end_time": 42.275,
                "pitch": 52,
                "velocity": 51,
                "duration": 0.1136364,
                "tempo": 120.0
            },
            {
                "start_time": 42.2909091,
                "end_time": 42.3704545,
                "pitch": 40,
                "velocity": 51,
                "duration": 0.0795455,
                "tempo": 120.0
            },
            {
                "start_time": 42.3863636,
                "end_time": 42.6022727,
                "pitch": 40,
                "velocity": 51,
                "duration": 0.2159091,
                "tempo": 120.0
            },
            {
                "start_time": 42.6204545,
                "end_time": 42.6704545,
                "pitch": 40,
                "velocity": 51,
                "duration": 0.05,
                "tempo": 120.0
            },
            {
                "start_time": 42.7204545,
                "end_time": 42.9386364,
                "pitch": 40,
                "velocity": 51,
                "duration": 0.2181818,
                "tempo": 120.0
            },
            {
                "start_time": 42.9568182,
                "end_time": 43.0090909,
                "pitch": 40,
                "velocity": 51,
                "duration": 0.0522727,
                "tempo": 120.0
            },
            {
                "start_time": 43.0931818,
                "end_time": 43.1795455,
                "pitch": 50,
                "velocity": 51,
                "duration": 0.0863636,
                "tempo": 120.0
            },
            {
                "start_time": 43.1954545,
                "end_time": 43.2818182,
                "pitch": 52,
                "velocity": 51,
                "duration": 0.0863636,
                "tempo": 120.0
            },
            {
                "start_time": 43.3340909,
                "end_time": 43.5181818,
                "pitch": 37,
                "velocity": 51,
                "duration": 0.1840909,
                "tempo": 120.0
            },
            {
                "start_time": 43.5340909,
                "end_time": 43.65,
                "pitch": 49,
                "velocity": 51,
                "duration": 0.1159091,
                "tempo": 120.0
            },
            {
                "start_time": 43.6681818,
                "end_time": 43.7522727,
                "pitch": 37,
                "velocity": 51,
                "duration": 0.0840909,
                "tempo": 120.0
            },
            {
                "start_time": 43.7681818,
                "end_time": 43.8795455,
                "pitch": 38,
                "velocity": 51,
                "duration": 0.1113636,
                "tempo": 120.0
            },
            {
                "start_time": 43.8954545,
                "end_time": 43.975,
                "pitch": 50,
                "velocity": 51,
                "duration": 0.0795455,
                "tempo": 120.0
            },
            {
                "start_time": 43.9909091,
                "end_time": 44.0704545,
                "pitch": 39,
                "velocity": 51,
                "duration": 0.0795455,
                "tempo": 120.0
            },
            {
                "start_time": 44.1204545,
                "end_time": 44.2,
                "pitch": 51,
                "velocity": 51,
                "duration": 0.0795455,
                "tempo": 120.0
            },
            {
                "start_time": 44.2159091,
                "end_time": 44.3022727,
                "pitch": 42,
                "velocity": 51,
                "duration": 0.0863636,
                "tempo": 120.0
            },
            {
                "start_time": 45.0318182,
                "end_time": 45.1136364,
                "pitch": 52,
                "velocity": 51,
                "duration": 0.0818182,
                "tempo": 120.0
            },
            {
                "start_time": 45.1295455,
                "end_time": 45.2409091,
                "pitch": 54,
                "velocity": 51,
                "duration": 0.1113636,
                "tempo": 120.0
            },
            {
                "start_time": 45.2568182,
                "end_time": 45.3363636,
                "pitch": 47,
                "velocity": 51,
                "duration": 0.0795455,
                "tempo": 120.0
            },
            {
                "start_time": 45.3522727,
                "end_time": 45.4659091,
                "pitch": 47,
                "velocity": 51,
                "duration": 0.1136364,
                "tempo": 120.0
            },
            {
                "start_time": 45.4818182,
                "end_time": 45.5613636,
                "pitch": 49,
                "velocity": 51,
                "duration": 0.0795455,
                "tempo": 120.0
            },
            {
                "start_time": 45.5772727,
                "end_time": 45.6613636,
                "pitch": 45,
                "velocity": 51,
                "duration": 0.0840909,
                "tempo": 120.0
            },
            {
                "start_time": 45.7113636,
                "end_time": 45.7954545,
                "pitch": 47,
                "velocity": 51,
                "duration": 0.0840909,
                "tempo": 120.0
            },
            {
                "start_time": 45.8113636,
                "end_time": 45.8954545,
                "pitch": 40,
                "velocity": 51,
                "duration": 0.0840909,
                "tempo": 120.0
            },
            {
                "start_time": 45.9113636,
                "end_time": 46.0295455,
                "pitch": 42,
                "velocity": 51,
                "duration": 0.1181818,
                "tempo": 120.0
            },
            {
                "start_time": 46.9590909,
                "end_time": 47.1727273,
                "pitch": 42,
                "velocity": 51,
                "duration": 0.2136364,
                "tempo": 120.0
            },
            {
                "start_time": 47.1886364,
                "end_time": 47.5,
                "pitch": 42,
                "velocity": 51,
                "duration": 0.3113636,
                "tempo": 120.0
            },
            {
                "start_time": 47.5181818,
                "end_time": 47.8681818,
                "pitch": 41,
                "velocity": 51,
                "duration": 0.35,
                "tempo": 120.0
            },
            {
                "start_time": 47.8840909,
                "end_time": 48.2022727,
                "pitch": 40,
                "velocity": 51,
                "duration": 0.3181818,
                "tempo": 120.0
            },
            {
                "start_time": 48.2204545,
                "end_time": 48.3022727,
                "pitch": 40,
                "velocity": 51,
                "duration": 0.0818182,
                "tempo": 120.0
            },
            {
                "start_time": 48.7681818,
                "end_time": 48.8522727,
                "pitch": 40,
                "velocity": 51,
                "duration": 0.0840909,
                "tempo": 120.0
            },
            {
                "start_time": 48.9045455,
                "end_time": 48.9886364,
                "pitch": 40,
                "velocity": 51,
                "duration": 0.0840909,
                "tempo": 120.0
            },
            {
                "start_time": 49.0068182,
                "end_time": 49.2295455,
                "pitch": 40,
                "velocity": 51,
                "duration": 0.2227273,
                "tempo": 120.0
            },
            {
                "start_time": 49.2454545,
                "end_time": 49.3318182,
                "pitch": 40,
                "velocity": 51,
                "duration": 0.0863636,
                "tempo": 120.0
            },
            {
                "start_time": 49.3477273,
                "end_time": 49.5704545,
                "pitch": 40,
                "velocity": 51,
                "duration": 0.2227273,
                "tempo": 120.0
            },
            {
                "start_time": 49.5886364,
                "end_time": 49.675,
                "pitch": 40,
                "velocity": 51,
                "duration": 0.0863636,
                "tempo": 120.0
            },
            {
                "start_time": 49.725,
                "end_time": 49.8068182,
                "pitch": 50,
                "velocity": 51,
                "duration": 0.0818182,
                "tempo": 120.0
            },
            {
                "start_time": 49.8227273,
                "end_time": 49.9045455,
                "pitch": 52,
                "velocity": 51,
                "duration": 0.0818182,
                "tempo": 120.0
            },
            {
                "start_time": 49.9204545,
                "end_time": 50.0363636,
                "pitch": 40,
                "velocity": 51,
                "duration": 0.1159091,
                "tempo": 120.0
            },
            {
                "start_time": 50.0522727,
                "end_time": 50.2613636,
                "pitch": 40,
                "velocity": 51,
                "duration": 0.2090909,
                "tempo": 120.0
            },
            {
                "start_time": 50.2772727,
                "end_time": 50.3568182,
                "pitch": 40,
                "velocity": 51,
                "duration": 0.0795455,
                "tempo": 120.0
            },
            {
                "start_time": 50.3727273,
                "end_time": 50.4545455,
                "pitch": 50,
                "velocity": 51,
                "duration": 0.0818182,
                "tempo": 120.0
            },
            {
                "start_time": 50.5022727,
                "end_time": 50.5818182,
                "pitch": 52,
                "velocity": 51,
                "duration": 0.0795455,
                "tempo": 120.0
            },
            {
                "start_time": 50.5977273,
                "end_time": 50.8204545,
                "pitch": 40,
                "velocity": 51,
                "duration": 0.2227273,
                "tempo": 120.0
            },
            {
                "start_time": 50.8363636,
                "end_time": 50.9227273,
                "pitch": 40,
                "velocity": 51,
                "duration": 0.0863636,
                "tempo": 120.0
            },
            {
                "start_time": 50.9386364,
                "end_time": 51.1590909,
                "pitch": 40,
                "velocity": 51,
                "duration": 0.2204545,
                "tempo": 120.0
            },
            {
                "start_time": 51.1772727,
                "end_time": 51.2590909,
                "pitch": 40,
                "velocity": 51,
                "duration": 0.0818182,
                "tempo": 120.0
            },
            {
                "start_time": 51.3113636,
                "end_time": 51.3931818,
                "pitch": 50,
                "velocity": 51,
                "duration": 0.0818182,
                "tempo": 120.0
            },
            {
                "start_time": 51.4113636,
                "end_time": 51.4931818,
                "pitch": 52,
                "velocity": 51,
                "duration": 0.0818182,
                "tempo": 120.0
            },
            {
                "start_time": 51.5113636,
                "end_time": 51.8477273,
                "pitch": 50,
                "velocity": 51,
                "duration": 0.3363636,
                "tempo": 120.0
            },
            {
                "start_time": 51.8636364,
                "end_time": 51.9431818,
                "pitch": 50,
                "velocity": 51,
                "duration": 0.0795455,
                "tempo": 120.0
            },
            {
                "start_time": 52.4272727,
                "end_time": 52.5113636,
                "pitch": 55,
                "velocity": 51,
                "duration": 0.0840909,
                "tempo": 120.0
            },
            {
                "start_time": 52.5295455,
                "end_time": 52.65,
                "pitch": 57,
                "velocity": 51,
                "duration": 0.1204545,
                "tempo": 120.0
            },
            {
                "start_time": 52.6659091,
                "end_time": 52.7522727,
                "pitch": 40,
                "velocity": 51,
                "duration": 0.0863636,
                "tempo": 120.0
            },
            {
                "start_time": 52.7681818,
                "end_time": 52.8545455,
                "pitch": 40,
                "velocity": 51,
                "duration": 0.0863636,
                "tempo": 120.0
            },
            {
                "start_time": 52.9068182,
                "end_time": 52.9886364,
                "pitch": 48,
                "velocity": 51,
                "duration": 0.0818182,
                "tempo": 120.0
            },
            {
                "start_time": 53.0068182,
                "end_time": 53.0886364,
                "pitch": 60,
                "velocity": 51,
                "duration": 0.0818182,
                "tempo": 120.0
            },
            {
                "start_time": 53.1068182,
                "end_time": 53.3227273,
                "pitch": 48,
                "velocity": 51,
                "duration": 0.2159091,
                "tempo": 120.0
            },
            {
                "start_time": 53.3409091,
                "end_time": 53.5477273,
                "pitch": 50,
                "velocity": 51,
                "duration": 0.2068182,
                "tempo": 120.0
            },
            {
                "start_time": 53.5636364,
                "end_time": 53.7727273,
                "pitch": 62,
                "velocity": 51,
                "duration": 0.2090909,
                "tempo": 120.0
            },
            {
                "start_time": 53.7886364,
                "end_time": 54.0045455,
                "pitch": 50,
                "velocity": 51,
                "duration": 0.2159091,
                "tempo": 120.0
            },
            {
                "start_time": 54.0227273,
                "end_time": 54.2386364,
                "pitch": 62,
                "velocity": 51,
                "duration": 0.2159091,
                "tempo": 120.0
            },
            {
                "start_time": 54.2568182,
                "end_time": 54.4409091,
                "pitch": 50,
                "velocity": 51,
                "duration": 0.1840909,
                "tempo": 120.0
            },
            {
                "start_time": 54.4909091,
                "end_time": 54.675,
                "pitch": 62,
                "velocity": 51,
                "duration": 0.1840909,
                "tempo": 120.0
            },
            {
                "start_time": 54.6909091,
                "end_time": 54.9045455,
                "pitch": 50,
                "velocity": 51,
                "duration": 0.2136364,
                "tempo": 120.0
            },
            {
                "start_time": 54.9204545,
                "end_time": 55.1318182,
                "pitch": 62,
                "velocity": 51,
                "duration": 0.2113636,
                "tempo": 120.0
            },
            {
                "start_time": 55.1477273,
                "end_time": 55.3659091,
                "pitch": 48,
                "velocity": 51,
                "duration": 0.2181818,
                "tempo": 120.0
            },
            {
                "start_time": 55.3818182,
                "end_time": 55.4659091,
                "pitch": 60,
                "velocity": 51,
                "duration": 0.0840909,
                "tempo": 120.0
            },
            {
                "start_time": 55.4840909,
                "end_time": 55.6,
                "pitch": 48,
                "velocity": 51,
                "duration": 0.1159091,
                "tempo": 120.0
            },
            {
                "start_time": 55.6159091,
                "end_time": 55.7022727,
                "pitch": 48,
                "velocity": 51,
                "duration": 0.0863636,
                "tempo": 120.0
            },
            {
                "start_time": 55.7204545,
                "end_time": 55.8386364,
                "pitch": 60,
                "velocity": 51,
                "duration": 0.1181818,
                "tempo": 120.0
            },
            {
                "start_time": 55.8568182,
                "end_time": 55.9431818,
                "pitch": 48,
                "velocity": 51,
                "duration": 0.0863636,
                "tempo": 120.0
            },
            {
                "start_time": 55.9590909,
                "end_time": 56.0454545,
                "pitch": 48,
                "velocity": 51,
                "duration": 0.0863636,
                "tempo": 120.0
            },
            {
                "start_time": 56.0954545,
                "end_time": 56.2795455,
                "pitch": 50,
                "velocity": 51,
                "duration": 0.1840909,
                "tempo": 120.0
            },
            {
                "start_time": 56.2977273,
                "end_time": 56.4136364,
                "pitch": 62,
                "velocity": 51,
                "duration": 0.1159091,
                "tempo": 120.0
            },
            {
                "start_time": 56.4295455,
                "end_time": 56.5136364,
                "pitch": 50,
                "velocity": 51,
                "duration": 0.0840909,
                "tempo": 120.0
            },
            {
                "start_time": 56.5318182,
                "end_time": 56.6431818,
                "pitch": 50,
                "velocity": 51,
                "duration": 0.1113636,
                "tempo": 120.0
            },
            {
                "start_time": 56.6590909,
                "end_time": 56.7386364,
                "pitch": 62,
                "velocity": 51,
                "duration": 0.0795455,
                "tempo": 120.0
            },
            {
                "start_time": 56.7545455,
                "end_time": 56.8340909,
                "pitch": 50,
                "velocity": 51,
                "duration": 0.0795455,
                "tempo": 120.0
            },
            {
                "start_time": 56.8818182,
                "end_time": 56.9613636,
                "pitch": 50,
                "velocity": 51,
                "duration": 0.0795455,
                "tempo": 120.0
            },
            {
                "start_time": 56.9772727,
                "end_time": 57.2,
                "pitch": 52,
                "velocity": 51,
                "duration": 0.2227273,
                "tempo": 120.0
            },
            {
                "start_time": 57.2181818,
                "end_time": 57.3022727,
                "pitch": 64,
                "velocity": 51,
                "duration": 0.0840909,
                "tempo": 120.0
            },
            {
                "start_time": 57.3204545,
                "end_time": 57.4409091,
                "pitch": 52,
                "velocity": 51,
                "duration": 0.1204545,
                "tempo": 120.0
            },
            {
                "start_time": 57.4568182,
                "end_time": 57.5409091,
                "pitch": 52,
                "velocity": 51,
                "duration": 0.0840909,
                "tempo": 120.0
            },
            {
                "start_time": 57.5568182,
                "end_time": 57.6409091,
                "pitch": 64,
                "velocity": 51,
                "duration": 0.0840909,
                "tempo": 120.0
            },
            {
                "start_time": 57.6909091,
                "end_time": 57.775,
                "pitch": 52,
                "velocity": 51,
                "duration": 0.0840909,
                "tempo": 120.0
            },
            {
                "start_time": 57.7909091,
                "end_time": 57.875,
                "pitch": 52,
                "velocity": 51,
                "duration": 0.0840909,
                "tempo": 120.0
            },
            {
                "start_time": 57.8909091,
                "end_time": 58.1,
                "pitch": 41,
                "velocity": 51,
                "duration": 0.2090909,
                "tempo": 120.0
            },
            {
                "start_time": 58.1159091,
                "end_time": 58.3227273,
                "pitch": 53,
                "velocity": 51,
                "duration": 0.2068182,
                "tempo": 120.0
            },
            {
                "start_time": 58.3386364,
                "end_time": 58.5613636,
                "pitch": 41,
                "velocity": 51,
                "duration": 0.2227273,
                "tempo": 120.0
            },
            {
                "start_time": 58.5795455,
                "end_time": 58.8,
                "pitch": 53,
                "velocity": 51,
                "duration": 0.2204545,
                "tempo": 120.0
            },
            {
                "start_time": 58.8181818,
                "end_time": 58.9022727,
                "pitch": 42,
                "velocity": 51,
                "duration": 0.0840909,
                "tempo": 120.0
            },
            {
                "start_time": 59.6204545,
                "end_time": 59.7045455,
                "pitch": 52,
                "velocity": 51,
                "duration": 0.0840909,
                "tempo": 120.0
            },
            {
                "start_time": 59.7204545,
                "end_time": 59.8318182,
                "pitch": 54,
                "velocity": 51,
                "duration": 0.1113636,
                "tempo": 120.0
            },
            {
                "start_time": 59.8477273,
                "end_time": 59.9295455,
                "pitch": 47,
                "velocity": 51,
                "duration": 0.0818182,
                "tempo": 120.0
            },
            {
                "start_time": 59.9454545,
                "end_time": 60.025,
                "pitch": 47,
                "velocity": 51,
                "duration": 0.0795455,
                "tempo": 120.0
            },
            {
                "start_time": 60.0727273,
                "end_time": 60.1522727,
                "pitch": 49,
                "velocity": 51,
                "duration": 0.0795455,
                "tempo": 120.0
            },
            {
                "start_time": 60.1681818,
                "end_time": 60.2545455,
                "pitch": 45,
                "velocity": 51,
                "duration": 0.0863636,
                "tempo": 120.0
            },
            {
                "start_time": 60.2704545,
                "end_time": 60.3909091,
                "pitch": 47,
                "velocity": 51,
                "duration": 0.1204545,
                "tempo": 120.0
            },
            {
                "start_time": 60.4068182,
                "end_time": 60.4931818,
                "pitch": 40,
                "velocity": 51,
                "duration": 0.0863636,
                "tempo": 120.0
            },
            {
                "start_time": 60.5113636,
                "end_time": 60.6295455,
                "pitch": 42,
                "velocity": 51,
                "duration": 0.1181818,
                "tempo": 120.0
            },
            {
                "start_time": 61.5295455,
                "end_time": 61.7522727,
                "pitch": 42,
                "velocity": 51,
                "duration": 0.2227273,
                "tempo": 120.0
            },
            {
                "start_time": 61.7681818,
                "end_time": 62.0909091,
                "pitch": 42,
                "velocity": 51,
                "duration": 0.3227273,
                "tempo": 120.0
            },
            {
                "start_time": 62.1090909,
                "end_time": 62.4272727,
                "pitch": 41,
                "velocity": 51,
                "duration": 0.3181818,
                "tempo": 120.0
            },
            {
                "start_time": 62.4772727,
                "end_time": 62.7931818,
                "pitch": 40,
                "velocity": 51,
                "duration": 0.3159091,
                "tempo": 120.0
            },
            {
                "start_time": 62.8113636,
                "end_time": 62.8954545,
                "pitch": 40,
                "velocity": 51,
                "duration": 0.0840909,
                "tempo": 120.0
            },
            {
                "start_time": 63.3590909,
                "end_time": 63.4431818,
                "pitch": 40,
                "velocity": 51,
                "duration": 0.0840909,
                "tempo": 120.0
            },
            {
                "start_time": 63.4613636,
                "end_time": 63.5818182,
                "pitch": 40,
                "velocity": 51,
                "duration": 0.1204545,
                "tempo": 120.0
            },
            {
                "start_time": 63.5977273,
                "end_time": 63.8204545,
                "pitch": 40,
                "velocity": 51,
                "duration": 0.2227273,
                "tempo": 120.0
            },
            {
                "start_time": 63.8386364,
                "end_time": 63.9227273,
                "pitch": 40,
                "velocity": 51,
                "duration": 0.0840909,
                "tempo": 120.0
            },
            {
                "start_time": 63.9409091,
                "end_time": 64.1636364,
                "pitch": 40,
                "velocity": 51,
                "duration": 0.2227273,
                "tempo": 120.0
            },
            {
                "start_time": 64.1795455,
                "end_time": 64.2659091,
                "pitch": 40,
                "velocity": 51,
                "duration": 0.0863636,
                "tempo": 120.0
            },
            {
                "start_time": 64.2818182,
                "end_time": 64.3931818,
                "pitch": 50,
                "velocity": 51,
                "duration": 0.1113636,
                "tempo": 120.0
            },
            {
                "start_time": 64.4090909,
                "end_time": 64.4863636,
                "pitch": 52,
                "velocity": 51,
                "duration": 0.0772727,
                "tempo": 120.0
            },
            {
                "start_time": 64.5022727,
                "end_time": 64.6113636,
                "pitch": 40,
                "velocity": 51,
                "duration": 0.1090909,
                "tempo": 120.0
            },
            {
                "start_time": 64.6272727,
                "end_time": 64.8045455,
                "pitch": 40,
                "velocity": 51,
                "duration": 0.1772727,
                "tempo": 120.0
            },
            {
                "start_time": 64.8545455,
                "end_time": 64.9386364,
                "pitch": 40,
                "velocity": 51,
                "duration": 0.0840909,
                "tempo": 120.0
            },
            {
                "start_time": 64.9545455,
                "end_time": 65.0386364,
                "pitch": 50,
                "velocity": 51,
                "duration": 0.0840909,
                "tempo": 120.0
            },
            {
                "start_time": 65.0545455,
                "end_time": 65.1727273,
                "pitch": 52,
                "velocity": 51,
                "duration": 0.1181818,
                "tempo": 120.0
            },
            {
                "start_time": 65.1886364,
                "end_time": 65.4113636,
                "pitch": 40,
                "velocity": 51,
                "duration": 0.2227273,
                "tempo": 120.0
            },
            {
                "start_time": 65.4295455,
                "end_time": 65.5136364,
                "pitch": 40,
                "velocity": 51,
                "duration": 0.0840909,
                "tempo": 120.0
            },
            {
                "start_time": 65.5318182,
                "end_time": 65.7522727,
                "pitch": 40,
                "velocity": 51,
                "duration": 0.2204545,
                "tempo": 120.0
            },
            {
                "start_time": 65.7681818,
                "end_time": 65.8522727,
                "pitch": 40,
                "velocity": 51,
                "duration": 0.0840909,
                "tempo": 120.0
            },
            {
                "start_time": 65.8681818,
                "end_time": 65.9863636,
                "pitch": 50,
                "velocity": 51,
                "duration": 0.1181818,
                "tempo": 120.0
            },
            {
                "start_time": 66.0022727,
                "end_time": 66.0863636,
                "pitch": 52,
                "velocity": 51,
                "duration": 0.0840909,
                "tempo": 120.0
            },
            {
                "start_time": 66.1022727,
                "end_time": 66.4068182,
                "pitch": 50,
                "velocity": 51,
                "duration": 0.3045455,
                "tempo": 120.0
            },
            {
                "start_time": 66.4545455,
                "end_time": 66.5340909,
                "pitch": 50,
                "velocity": 51,
                "duration": 0.0795455,
                "tempo": 120.0
            },
            {
                "start_time": 67.0295455,
                "end_time": 67.1159091,
                "pitch": 55,
                "velocity": 51,
                "duration": 0.0863636,
                "tempo": 120.0
            },
            {
                "start_time": 67.1318182,
                "end_time": 67.2181818,
                "pitch": 57,
                "velocity": 51,
                "duration": 0.0863636,
                "tempo": 120.0
            },
            {
                "start_time": 67.2681818,
                "end_time": 67.3545455,
                "pitch": 40,
                "velocity": 51,
                "duration": 0.0863636,
                "tempo": 120.0
            },
            {
                "start_time": 67.3727273,
                "end_time": 67.4568182,
                "pitch": 40,
                "velocity": 51,
                "duration": 0.0840909,
                "tempo": 120.0
            },
            {
                "start_time": 67.475,
                "end_time": 67.5840909,
                "pitch": 48,
                "velocity": 51,
                "duration": 0.1090909,
                "tempo": 120.0
            },
            {
                "start_time": 67.6,
                "end_time": 67.6772727,
                "pitch": 60,
                "velocity": 51,
                "duration": 0.0772727,
                "tempo": 120.0
            },
            {
                "start_time": 67.6931818,
                "end_time": 67.8977273,
                "pitch": 48,
                "velocity": 51,
                "duration": 0.2045455,
                "tempo": 120.0
            },
            {
                "start_time": 67.9136364,
                "end_time": 68.1295455,
                "pitch": 50,
                "velocity": 51,
                "duration": 0.2159091,
                "tempo": 120.0
            },
            {
                "start_time": 68.1477273,
                "end_time": 68.3636364,
                "pitch": 62,
                "velocity": 51,
                "duration": 0.2159091,
                "tempo": 120.0
            },
            {
                "start_time": 68.3818182,
                "end_time": 68.6022727,
                "pitch": 50,
                "velocity": 51,
                "duration": 0.2204545,
                "tempo": 120.0
            },
            {
                "start_time": 68.6204545,
                "end_time": 68.8090909,
                "pitch": 62,
                "velocity": 51,
                "duration": 0.1886364,
                "tempo": 120.0
            },
            {
                "start_time": 68.8590909,
                "end_time": 69.0431818,
                "pitch": 50,
                "velocity": 51,
                "duration": 0.1840909,
                "tempo": 120.0
            },
            {
                "start_time": 69.0613636,
                "end_time": 69.2772727,
                "pitch": 62,
                "velocity": 51,
                "duration": 0.2159091,
                "tempo": 120.0
            },
            {
                "start_time": 69.2954545,
                "end_time": 69.5022727,
                "pitch": 50,
                "velocity": 51,
                "duration": 0.2068182,
                "tempo": 120.0
            },
            {
                "start_time": 69.5181818,
                "end_time": 69.725,
                "pitch": 62,
                "velocity": 51,
                "duration": 0.2068182,
                "tempo": 120.0
            },
            {
                "start_time": 69.7431818,
                "end_time": 69.9590909,
                "pitch": 48,
                "velocity": 51,
                "duration": 0.2159091,
                "tempo": 120.0
            },
            {
                "start_time": 69.9772727,
                "end_time": 70.0590909,
                "pitch": 60,
                "velocity": 51,
                "duration": 0.0818182,
                "tempo": 120.0
            },
            {
                "start_time": 70.0772727,
                "end_time": 70.1931818,
                "pitch": 48,
                "velocity": 51,
                "duration": 0.1159091,
                "tempo": 120.0
            },
            {
                "start_time": 70.2113636,
                "end_time": 70.2977273,
                "pitch": 48,
                "velocity": 51,
                "duration": 0.0863636,
                "tempo": 120.0
            },
            {
                "start_time": 70.3159091,
                "end_time": 70.4022727,
                "pitch": 60,
                "velocity": 51,
                "duration": 0.0863636,
                "tempo": 120.0
            },
            {
                "start_time": 70.4545455,
                "end_time": 70.5431818,
                "pitch": 48,
                "velocity": 51,
                "duration": 0.0886364,
                "tempo": 120.0
            },
            {
                "start_time": 70.5613636,
                "end_time": 70.6477273,
                "pitch": 48,
                "velocity": 51,
                "duration": 0.0863636,
                "tempo": 120.0
            },
            {
                "start_time": 70.6659091,
                "end_time": 70.8704545,
                "pitch": 50,
                "velocity": 51,
                "duration": 0.2045455,
                "tempo": 120.0
            },
            {
                "start_time": 70.8840909,
                "end_time": 70.9954545,
                "pitch": 62,
                "velocity": 51,
                "duration": 0.1113636,
                "tempo": 120.0
            },
            {
                "start_time": 71.0090909,
                "end_time": 71.0886364,
                "pitch": 50,
                "velocity": 51,
                "duration": 0.0795455,
                "tempo": 120.0
            },
            {
                "start_time": 71.1045455,
                "end_time": 71.1886364,
                "pitch": 50,
                "velocity": 51,
                "duration": 0.0840909,
                "tempo": 120.0
            },
            {
                "start_time": 71.2386364,
                "end_time": 71.3204545,
                "pitch": 62,
                "velocity": 51,
                "duration": 0.0818182,
                "tempo": 120.0
            },
            {
                "start_time": 71.3386364,
                "end_time": 71.4227273,
                "pitch": 50,
                "velocity": 51,
                "duration": 0.0840909,
                "tempo": 120.0
            },
            {
                "start_time": 71.4386364,
                "end_time": 71.5545455,
                "pitch": 50,
                "velocity": 51,
                "duration": 0.1159091,
                "tempo": 120.0
            },
            {
                "start_time": 71.5727273,
                "end_time": 71.7954545,
                "pitch": 52,
                "velocity": 51,
                "duration": 0.2227273,
                "tempo": 120.0
            },
            {
                "start_time": 71.8113636,
                "end_time": 71.8977273,
                "pitch": 64,
                "velocity": 51,
                "duration": 0.0863636,
                "tempo": 120.0
            },
            {
                "start_time": 71.9136364,
                "end_time": 72.0,
                "pitch": 52,
                "velocity": 51,
                "duration": 0.0863636,
                "tempo": 120.0
            },
            {
                "start_time": 72.0522727,
                "end_time": 72.1340909,
                "pitch": 52,
                "velocity": 51,
                "duration": 0.0818182,
                "tempo": 120.0
            },
            {
                "start_time": 72.1522727,
                "end_time": 72.2363636,
                "pitch": 64,
                "velocity": 51,
                "duration": 0.0840909,
                "tempo": 120.0
            },
            {
                "start_time": 72.2522727,
                "end_time": 72.3681818,
                "pitch": 52,
                "velocity": 51,
                "duration": 0.1159091,
                "tempo": 120.0
            },
            {
                "start_time": 72.3863636,
                "end_time": 72.4704545,
                "pitch": 52,
                "velocity": 51,
                "duration": 0.0840909,
                "tempo": 120.0
            },
            {
                "start_time": 72.4863636,
                "end_time": 72.6931818,
                "pitch": 41,
                "velocity": 51,
                "duration": 0.2068182,
                "tempo": 120.0
            },
            {
                "start_time": 72.7090909,
                "end_time": 72.9181818,
                "pitch": 53,
                "velocity": 51,
                "duration": 0.2090909,
                "tempo": 120.0
            },
            {
                "start_time": 72.9340909,
                "end_time": 73.1568182,
                "pitch": 41,
                "velocity": 51,
                "duration": 0.2227273,
                "tempo": 120.0
            },
            {
                "start_time": 73.1727273,
                "end_time": 73.3954545,
                "pitch": 53,
                "velocity": 51,
                "duration": 0.2227273,
                "tempo": 120.0
            }
        ]
    }
}