{
    "mood": "happy",
    "instruments": {
        "Acoustic Bass": [
            {
                "start_time": 0.3704545,
                "end_time": 0.5386364,
                "pitch": 40,
                "velocity": 64,
                "duration": 0.1681818,
                "tempo": 120.0
            },
            {
                "start_time": 0.5386364,
                "end_time": 0.7068182,
                "pitch": 36,
                "velocity": 64,
                "duration": 0.1681818,
                "tempo": 120.0
            },
            {
                "start_time": 0.7068182,
                "end_time": 0.8727273,
                "pitch": 40,
                "velocity": 64,
                "duration": 0.1659091,
                "tempo": 120.0
            },
            {
                "start_time": 0.8727273,
                "end_time": 1.0409091,
                "pitch": 33,
                "velocity": 64,
                "duration": 0.1681818,
                "tempo": 120.0
            },
            {
                "start_time": 1.0409091,
                "end_time": 1.2113636,
                "pitch": 40,
                "velocity": 64,
                "duration": 0.1704545,
                "tempo": 120.0
            },
            {
                "start_time": 1.2113636,
                "end_time": 1.3818182,
                "pitch": 36,
                "velocity": 64,
                "duration": 0.1704545,
                "tempo": 120.0
            },
            {
                "start_time": 1.3818182,
                "end_time": 1.55,
                "pitch": 40,
                "velocity": 64,
                "duration": 0.1681818,
                "tempo": 120.0
            },
            {
                "start_time": 1.55,
                "end_time": 1.7181818,
                "pitch": 31,
                "velocity": 64,
                "duration": 0.1681818,
                "tempo": 120.0
            },
            {
                "start_time": 1.7181818,
                "end_time": 1.8863636,
                "pitch": 38,
                "velocity": 64,
                "duration": 0.1681818,
                "tempo": 120.0
            },
            {
                "start_time": 1.8863636,
                "end_time": 2.0522727,
                "pitch": 35,
                "velocity": 64,
                "duration": 0.1659091,
                "tempo": 120.0
            },
            {
                "start_time": 2.0522727,
                "end_time": 2.2204545,
                "pitch": 38,
                "velocity": 64,
                "duration": 0.1681818,
                "tempo": 120.0
            },
            {
                "start_time": 2.2204545,
                "end_time": 2.3886364,
                "pitch": 31,
                "velocity": 64,
                "duration": 0.1681818,
                "tempo": 120.0
            },
            {
                "start_time": 2.3886364,
                "end_time": 2.5568182,
                "pitch": 38,
                "velocity": 64,
                "duration": 0.1681818,
                "tempo": 120.0
            },
            {
                "start_time": 2.5568182,
                "end_time": 2.725,
                "pitch": 35,
                "velocity": 64,
                "duration": 0.1681818,
                "tempo": 120.0
            },
            {
                "start_time": 2.725,
                "end_time": 2.8909091,
                "pitch": 38,
                "velocity": 64,
                "duration": 0.1659091,
                "tempo": 120.0
            },
            {
                "start_time": 2.8909091,
                "end_time": 3.0590909,
                "pitch": 29,
                "velocity": 64,
                "duration": 0.1681818,
                "tempo": 120.0
            },
            {
                "start_time": 3.0590909,
                "end_time": 3.2272727,
                "pitch": 36,
                "velocity": 64,
                "duration": 0.1681818,
                "tempo": 120.0
            },
            {
                "start_time": 3.2272727,
                "end_time": 3.3954545,
                "pitch": 33,
                "velocity": 64,
                "duration": 0.1681818,
                "tempo": 120.0
            },
            {
                "start_time": 3.3954545,
                "end_time": 3.5636364,
                "pitch": 36,
                "velocity": 64,
                "duration": 0.1681818,
                "tempo": 120.0
            },
            {
                "start_time": 3.5636364,
                "end_time": 3.7318182,
                "pitch": 29,
                "velocity": 64,
                "duration": 0.1681818,
                "tempo": 120.0
            },
            {
                "start_time": 3.7318182,
                "end_time": 3.9,
                "pitch": 36,
                "velocity": 64,
                "duration": 0.1681818,
                "tempo": 120.0
            },
            {
                "start_time": 3.9,
                "end_time": 4.0681818,
                "pitch": 33,
                "velocity": 64,
                "duration": 0.1681818,
                "tempo": 120.0
            },
            {
                "start_time": 4.0681818,
                "end_time": 4.2363636,
                "pitch": 36,
                "velocity": 64,
                "duration": 0.1681818,
                "tempo": 120.0
            },
            {
                "start_time": 4.2363636,
                "end_time": 4.4022727,
                "pitch": 31,
                "velocity": 64,
                "duration": 0.1659091,
                "tempo": 120.0
            },
            {
                "start_time": 4.4022727,
                "end_time": 4.5681818,
                "pitch": 38,
                "velocity": 64,
                "duration": 0.1659091,
                "tempo": 120.0
            },
            {
                "start_time": 4.5681818,
                "end_time": 4.7318182,
                "pitch": 35,
                "velocity": 64,
                "duration": 0.1636364,
                "tempo": 120.0
            },
            {
                "start_time": 4.7318182,
                "end_time": 4.8977273,
                "pitch": 38,
                "velocity": 64,
                "duration": 0.1659091,
                "tempo": 120.0
            },
            {
                "start_time": 4.8977273,
                "end_time": 5.0659091,
                "pitch": 31,
                "velocity": 64,
                "duration": 0.1681818,
                "tempo": 120.0
            },
            {
                "start_time": 5.0659091,
                "end_time": 5.2340909,
                "pitch": 38,
                "velocity": 64,
                "duration": 0.1681818,
                "tempo": 120.0
            },
            {
                "start_time": 5.2340909,
                "end_time": 5.4022727,
                "pitch": 35,
                "velocity": 64,
                "duration": 0.1681818,
                "tempo": 120.0
            },
            {
                "start_time": 5.4022727,
                "end_time": 5.5704545,
                "pitch": 38,
                "velocity": 64,
                "duration": 0.1681818,
                "tempo": 120.0
            },
            {
                "start_time": 5.5704545,
                "end_time": 5.7340909,
                "pitch": 33,
                "velocity": 64,
                "duration": 0.1636364,
                "tempo": 120.0
            },
            {
                "start_time": 6.0659091,
                "end_time": 6.2318182,
                "pitch": 31,
                "velocity": 64,
                "duration": 0.1659091,
                "tempo": 120.0
            },
            {
                "start_time": 6.4022727,
                "end_time": 6.5704545,
                "pitch": 31,
                "velocity": 64,
                "duration": 0.1681818,
                "tempo": 120.0
            },
            {
                "start_time": 6.7409091,
                "end_time": 6.9113636,
                "pitch": 31,
                "velocity": 64,
                "duration": 0.1704545,
                "tempo": 120.0
            },
            {
                "start_time": 6.9113636,
                "end_time": 7.0772727,
                "pitch": 33,
                "velocity": 64,
                "duration": 0.1659091,
                "tempo": 120.0
            },
            {
                "start_time": 7.2431818,
                "end_time": 7.4090909,
                "pitch": 31,
                "velocity": 64,
                "duration": 0.1659091,
                "tempo": 120.0
            },
            {
                "start_time": 7.4090909,
                "end_time": 7.4909091,
                "pitch": 31,
                "velocity": 64,
                "duration": 0.0818182,
                "tempo": 120.0
            },
            {
                "start_time": 7.4909091,
                "end_time": 7.575,
                "pitch": 31,
                "velocity": 64,
                "duration": 0.0840909,
                "tempo": 120.0
            },
            {
                "start_time": 7.575,
                "end_time": 7.7409091,
                "pitch": 33,
                "velocity": 64,
                "duration": 0.1659091,
                "tempo": 120.0
            }
        ],
        "Electric Piano 1": [
            {
                "start_time": 0.0977273,
                "end_time": 0.1772727,
                "pitch": 56,
                "velocity": 51,
                "duration": 0.0795455,
                "tempo": 120.0
            },
            {
                "start_time": 0.2022727,
                "end_time": 0.3363636,
                "pitch": 57,
                "velocity": 51,
                "duration": 0.1340909,
                "tempo": 120.0
            },
            {
                "start_time": 0.3704545,
                "end_time": 0.5045455,
                "pitch": 64,
                "velocity": 51,
                "duration": 0.1340909,
                "tempo": 120.0
            },
            {
                "start_time": 0.5386364,
                "end_time": 0.6727273,
                "pitch": 62,
                "velocity": 51,
                "duration": 0.1340909,
                "tempo": 120.0
            },
            {
                "start_time": 0.7068182,
                "end_time": 0.8386364,
                "pitch": 64,
                "velocity": 51,
                "duration": 0.1318182,
                "tempo": 120.0
            },
            {
                "start_time": 0.8727273,
                "end_time": 1.0068182,
                "pitch": 60,
                "velocity": 51,
                "duration": 0.1340909,
                "tempo": 120.0
            },
            {
                "start_time": 1.0409091,
                "end_time": 1.1772727,
                "pitch": 64,
                "velocity": 51,
                "duration": 0.1363636,
                "tempo": 120.0
            },
            {
                "start_time": 1.2113636,
                "end_time": 1.3477273,
                "pitch": 59,
                "velocity": 51,
                "duration": 0.1363636,
                "tempo": 120.0
            },
            {
                "start_time": 1.3818182,
                "end_time": 1.5159091,
                "pitch": 64,
                "velocity": 51,
                "duration": 0.1340909,
                "tempo": 120.0
            },
            {
                "start_time": 1.55,
                "end_time": 1.6840909,
                "pitch": 57,
                "velocity": 51,
                "duration": 0.1340909,
                "tempo": 120.0
            },
            {
                "start_time": 1.7181818,
                "end_time": 1.8522727,
                "pitch": 52,
                "velocity": 51,
                "duration": 0.1340909,
                "tempo": 120.0
            },
            {
                "start_time": 1.8863636,
                "end_time": 2.0204545,
                "pitch": 59,
                "velocity": 51,
                "duration": 0.1340909,
                "tempo": 120.0
            },
            {
                "start_time": 2.0522727,
                "end_time": 2.1863636,
                "pitch": 64,
                "velocity": 51,
                "duration": 0.1340909,
                "tempo": 120.0
            },
            {
                "start_time": 2.2204545,
                "end_time": 2.3545455,
                "pitch": 60,
                "velocity": 51,
                "duration": 0.1340909,
                "tempo": 120.0
            },
            {
                "start_time": 2.3886364,
                "end_time": 2.5227273,
                "pitch": 64,
                "velocity": 51,
                "duration": 0.1340909,
                "tempo": 120.0
            },
            {
                "start_time": 2.5568182,
                "end_time": 2.6909091,
                "pitch": 60,
                "velocity": 51,
                "duration": 0.1340909,
                "tempo": 120.0
            },
            {
                "start_time": 2.725,
                "end_time": 2.8590909,
                "pitch": 64,
                "velocity": 51,
                "duration": 0.1340909,
                "tempo": 120.0
            },
            {
                "start_time": 2.8909091,
                "end_time": 3.2772727,
                "pitch": 65,
                "velocity": 51,
                "duration": 0.3863636,
                "tempo": 120.0
            },
            {
                "start_time": 3.3954545,
                "end_time": 3.5318182,
                "pitch": 57,
                "velocity": 51,
                "duration": 0.1363636,
                "tempo": 120.0
            },
            {
                "start_time": 3.5636364,
                "end_time": 4.0681818,
                "pitch": 57,
                "velocity": 51,
                "duration": 0.5045455,
                "tempo": 120.0
            },
            {
                "start_time": 4.4022727,
                "end_time": 4.5340909,
                "pitch": 67,
                "velocity": 51,
                "duration": 0.1318182,
                "tempo": 120.0
            },
            {
                "start_time": 4.5681818,
                "end_time": 4.7,
                "pitch": 69,
                "velocity": 51,
                "duration": 0.1318182,
                "tempo": 120.0
            },
            {
                "start_time": 4.7318182,
                "end_time": 4.8659091,
                "pitch": 67,
                "velocity": 51,
                "duration": 0.1340909,
                "tempo": 120.0
            },
            {
                "start_time": 4.8977273,
                "end_time": 5.0318182,
                "pitch": 65,
                "velocity": 51,
                "duration": 0.1340909,
                "tempo": 120.0
            },
            {
                "start_time": 5.0659091,
                "end_time": 5.3181818,
                "pitch": 64,
                "velocity": 51,
                "duration": 0.2522727,
                "tempo": 120.0
            },
            {
                "start_time": 5.4022727,
                "end_time": 5.5363636,
                "pitch": 64,
                "velocity": 51,
                "duration": 0.1340909,
                "tempo": 120.0
            },
            {
                "start_time": 5.5704545,
                "end_time": 6.5704545,
                "pitch": 61,
                "velocity": 51,
                "duration": 1.0,
                "tempo": 120.0
            },
            {
                "start_time": 7.2431818,
                "end_time": 7.375,
                "pitch": 59,
                "velocity": 51,
                "duration": 0.1318182,
                "tempo": 120.0
            },
            {
                "start_time": 7.4090909,
                "end_time": 7.475,
                "pitch": 59,
                "velocity": 51,
                "duration": 0.0659091,
                "tempo": 120.0
            },
            {
                "start_time": 7.4909091,
                "end_time": 7.5568182,
                "pitch": 59,
                "velocity": 51,
                "duration": 0.0659091,
                "tempo": 120.0
            },
            {
                "start_time": 7.575,
                "end_time": 7.7068182,
                "pitch": 61,
                "velocity": 51,
                "duration": 0.1318182,
                "tempo": 120.0
            }
        ],
        "Electric Guitar (clean)": [
            {
                "start_time": 0.0,
                "end_time": 0.4045455,
                "pitch": 45,
                "velocity": 4,
                "duration": 0.4045455,
                "tempo": 120.0
            },
            {
                "start_time": 0.4045455,
                "end_time": 0.7386364,
                "pitch": 29,
                "velocity": 4,
                "duration": 0.3340909,
                "tempo": 120.0
            },
            {
                "start_time": 0.7386364,
                "end_time": 1.075,
                "pitch": 45,
                "velocity": 4,
                "duration": 0.3363636,
                "tempo": 120.0
            },
            {
                "start_time": 1.075,
                "end_time": 1.2454545,
                "pitch": 29,
                "velocity": 4,
                "duration": 0.1704545,
                "tempo": 120.0
            },
            {
                "start_time": 1.2454545,
                "end_time": 1.4159091,
                "pitch": 37,
                "velocity": 4,
                "duration": 0.1704545,
                "tempo": 120.0
            },
            {
                "start_time": 1.4159091,
                "end_time": 1.5840909,
                "pitch": 29,
                "velocity": 4,
                "duration": 0.1681818,
                "tempo": 120.0
            },
            {
                "start_time": 1.5840909,
                "end_time": 1.7522727,
                "pitch": 45,
                "velocity": 4,
                "duration": 0.1681818,
                "tempo": 120.0
            },
            {
                "start_time": 1.7522727,
                "end_time": 2.0863636,
                "pitch": 29,
                "velocity": 4,
                "duration": 0.3340909,
                "tempo": 120.0
            },
            {
                "start_time": 2.0863636,
                "end_time": 2.4227273,
                "pitch": 45,
                "velocity": 4,
                "duration": 0.3363636,
                "tempo": 120.0
            },
            {
                "start_time": 2.4227273,
                "end_time": 2.925,
                "pitch": 37,
                "velocity": 4,
                "duration": 0.5022727,
                "tempo": 120.0
            },
            {
                "start_time": 2.925,
                "end_time": 3.0931818,
                "pitch": 45,
                "velocity": 4,
                "duration": 0.1681818,
                "tempo": 120.0
            },
            {
                "start_time": 3.0931818,
                "end_time": 3.4272727,
                "pitch": 29,
                "velocity": 4,
                "duration": 0.3340909,
                "tempo": 120.0
            },
            {
                "start_time": 3.4272727,
                "end_time": 3.7659091,
                "pitch": 45,
                "velocity": 4,
                "duration": 0.3386364,
                "tempo": 120.0
            },
            {
                "start_time": 3.7659091,
                "end_time": 3.9340909,
                "pitch": 29,
                "velocity": 4,
                "duration": 0.1681818,
                "tempo": 120.0
            },
            {
                "start_time": 3.9340909,
                "end_time": 4.1022727,
                "pitch": 37,
                "velocity": 4,
                "duration": 0.1681818,
                "tempo": 120.0
            },
            {
                "start_time": 4.1022727,
                "end_time": 4.2681818,
                "pitch": 29,
                "velocity": 4,
                "duration": 0.1659091,
                "tempo": 120.0
            },
            {
                "start_time": 4.2681818,
                "end_time": 4.3181818,
                "pitch": 45,
                "velocity": 4,
                "duration": 0.05,
                "tempo": 120.0
            },
            {
                "start_time": 4.3181818,
                "end_time": 4.3340909,
                "pitch": 29,
                "velocity": 4,
                "duration": 0.0159091,
                "tempo": 120.0
            },
            {
                "start_time": 4.3340909,
                "end_time": 4.4340909,
                "pitch": 40,
                "velocity": 4,
                "duration": 0.1,
                "tempo": 120.0
            },
            {
                "start_time": 4.4340909,
                "end_time": 4.7659091,
                "pitch": 24,
                "velocity": 4,
                "duration": 0.3318182,
                "tempo": 120.0
            },
            {
                "start_time": 4.7659091,
                "end_time": 5.1,
                "pitch": 40,
                "velocity": 4,
                "duration": 0.3340909,
                "tempo": 120.0
            },
            {
                "start_time": 5.1,
                "end_time": 5.6022727,
                "pitch": 32,
                "velocity": 4,
                "duration": 0.5022727,
                "tempo": 120.0
            },
            {
                "start_time": 5.6022727,
                "end_time": 5.7681818,
                "pitch": 41,
                "velocity": 4,
                "duration": 0.1659091,
                "tempo": 120.0
            },
            {
                "start_time": 5.7681818,
                "end_time": 6.1,
                "pitch": 24,
                "velocity": 4,
                "duration": 0.3318182,
                "tempo": 120.0
            },
            {
                "start_time": 6.1,
                "end_time": 6.2659091,
                "pitch": 40,
                "velocity": 4,
                "duration": 0.1659091,
                "tempo": 120.0
            },
            {
                "start_time": 6.2659091,
                "end_time": 6.4363636,
                "pitch": 24,
                "velocity": 4,
                "duration": 0.1704545,
                "tempo": 120.0
            },
            {
                "start_time": 6.4363636,
                "end_time": 6.6045455,
                "pitch": 40,
                "velocity": 4,
                "duration": 0.1681818,
                "tempo": 120.0
            },
            {
                "start_time": 6.6045455,
                "end_time": 6.775,
                "pitch": 32,
                "velocity": 4,
                "duration": 0.1704545,
                "tempo": 120.0
            },
            {
                "start_time": 6.775,
                "end_time": 7.1090909,
                "pitch": 63,
                "velocity": 4,
                "duration": 0.3340909,
                "tempo": 120.0
            },
            {
                "start_time": 7.1090909,
                "end_time": 7.275,
                "pitch": 47,
                "velocity": 4,
                "duration": 0.1659091,
                "tempo": 120.0
            },
            {
                "start_time": 7.275,
                "end_time": 7.4409091,
                "pitch": 55,
                "velocity": 4,
                "duration": 0.1659091,
                "tempo": 120.0
            },
            {
                "start_time": 7.4409091,
                "end_time": 7.6068182,
                "pitch": 63,
                "velocity": 4,
                "duration": 0.1659091,
                "tempo": 120.0
            },
            {
                "start_time": 7.6068182,
                "end_time": 7.7409091,
                "pitch": 71,
                "velocity": 4,
                "duration": 0.1340909,
                "tempo": 120.0
            }
        ]
    }
}