{
    "mood": "happy",
    "instruments": {
        "Vibraphone": [
            {
                "start_time": 0.0,
                "end_time": 0.1659091,
                "pitch": 57,
                "velocity": 64,
                "duration": 0.1659091,
                "tempo": 120.0
            },
            {
                "start_time": 0.1840909,
                "end_time": 0.3659091,
                "pitch": 60,
                "velocity": 64,
                "duration": 0.1818182,
                "tempo": 120.0
            },
            {
                "start_time": 0.3840909,
                "end_time": 0.5659091,
                "pitch": 65,
                "velocity": 64,
                "duration": 0.1818182,
                "tempo": 120.0
            },
            {
                "start_time": 0.5840909,
                "end_time": 0.9659091,
                "pitch": 64,
                "velocity": 64,
                "duration": 0.3818182,
                "tempo": 120.0
            },
            {
                "start_time": 0.9840909,
                "end_time": 1.1659091,
                "pitch": 57,
                "velocity": 64,
                "duration": 0.1818182,
                "tempo": 120.0
            },
            {
                "start_time": 1.1840909,
                "end_time": 1.3659091,
                "pitch": 60,
                "velocity": 64,
                "duration": 0.1818182,
                "tempo": 120.0
            },
            {
                "start_time": 1.3840909,
                "end_time": 2.1681818,
                "pitch": 62,
                "velocity": 64,
                "duration": 0.7840909,
                "tempo": 120.0
            },
            {
                "start_time": 2.1863636,
                "end_time": 2.5704545,
                "pitch": 57,
                "velocity": 64,
                "duration": 0.3840909,
                "tempo": 120.0
            },
            {
                "start_time": 2.5863636,
                "end_time": 2.9704545,
                "pitch": 57,
                "velocity": 64,
                "duration": 0.3840909,
                "tempo": 120.0
            },
            {
                "start_time": 2.9863636,
                "end_time": 3.1613636,
                "pitch": 55,
                "velocity": 64,
                "duration": 0.175,
                "tempo": 120.0
            },
            {
                "start_time": 3.3681818,
                "end_time": 3.5568182,
                "pitch": 60,
                "velocity": 64,
                "duration": 0.1886364,
                "tempo": 120.0
            },
            {
                "start_time": 3.5727273,
                "end_time": 3.7613636,
                "pitch": 57,
                "velocity": 64,
                "duration": 0.1886364,
                "tempo": 120.0
            },
            {
                "start_time": 3.7795455,
                "end_time": 3.9613636,
                "pitch": 60,
                "velocity": 64,
                "duration": 0.1818182,
                "tempo": 120.0
            },
            {
                "start_time": 3.9795455,
                "end_time": 4.1613636,
                "pitch": 55,
                "velocity": 64,
                "duration": 0.1818182,
                "tempo": 120.0
            },
            {
                "start_time": 4.1795455,
                "end_time": 4.3659091,
                "pitch": 60,
                "velocity": 64,
                "duration": 0.1863636,
                "tempo": 120.0
            },
            {
                "start_time": 4.3840909,
                "end_time": 4.5727273,
                "pitch": 53,
                "velocity": 64,
                "duration": 0.1886364,
                "tempo": 120.0
            },
            {
                "start_time": 4.5886364,
                "end_time": 4.7681818,
                "pitch": 60,
                "velocity": 64,
                "duration": 0.1795455,
                "tempo": 120.0
            },
            {
                "start_time": 4.7863636,
                "end_time": 5.5659091,
                "pitch": 57,
                "velocity": 64,
                "duration": 0.7795455,
                "tempo": 120.0
            },
            {
                "start_time": 5.5818182,
                "end_time": 5.7568182,
                "pitch": 33,
                "velocity": 64,
                "duration": 0.175,
                "tempo": 120.0
            },
            {
                "start_time": 5.7727273,
                "end_time": 5.9613636,
                "pitch": 45,
                "velocity": 64,
                "duration": 0.1886364,
                "tempo": 120.0
            },
            {
                "start_time": 5.9795455,
                "end_time": 6.1681818,
                "pitch": 33,
                "velocity": 64,
                "duration": 0.1886364,
                "tempo": 120.0
            },
            {
                "start_time": 6.1840909,
                "end_time": 6.3681818,
                "pitch": 45,
                "velocity": 64,
                "duration": 0.1840909,
                "tempo": 120.0
            },
            {
                "start_time": 6.3840909,
                "end_time": 6.5681818,
                "pitch": 57,
                "velocity": 64,
                "duration": 0.1840909,
                "tempo": 120.0
            },
            {
                "start_time": 6.5840909,
                "end_time": 6.7727273,
                "pitch": 60,
                "velocity": 64,
                "duration": 0.1886364,
                "tempo": 120.0
            },
            {
                "start_time": 6.7886364,
                "end_time": 6.9772727,
                "pitch": 65,
                "velocity": 64,
                "duration": 0.1886364,
                "tempo": 120.0
            },
            {
                "start_time": 6.9954545,
                "end_time": 7.3818182,
                "pitch": 64,
                "velocity": 64,
                "duration": 0.3863636,
                "tempo": 120.0
            },
            {
                "start_time": 7.3977273,
                "end_time": 7.5818182,
                "pitch": 57,
                "velocity": 64,
                "duration": 0.1840909,
                "tempo": 120.0
            },
            {
                "start_time": 7.5977273,
                "end_time": 7.7818182,
                "pitch": 60,
                "velocity": 64,
                "duration": 0.1840909,
                "tempo": 120.0
            },
            {
                "start_time": 7.7977273,
                "end_time": 8.5840909,
                "pitch": 62,
                "velocity": 64,
                "duration": 0.7863636,
                "tempo": 120.0
            },
            {
                "start_time": 8.6,
                "end_time": 8.9863636,
                "pitch": 57,
                "velocity": 64,
                "duration": 0.3863636,
                "tempo": 120.0
            },
            {
                "start_time": 9.0022727,
                "end_time": 9.3886364,
                "pitch": 57,
                "velocity": 64,
                "duration": 0.3863636,
                "tempo": 120.0
            },
            {
                "start_time": 9.4045455,
                "end_time": 9.5795455,
                "pitch": 55,
                "velocity": 64,
                "duration": 0.175,
                "tempo": 120.0
            },
            {
                "start_time": 9.7886364,
                "end_time": 9.9772727,
                "pitch": 60,
                "velocity": 64,
                "duration": 0.1886364,
                "tempo": 120.0
            },
            {
                "start_time": 9.9931818,
                "end_time": 10.1818182,
                "pitch": 57,
                "velocity": 64,
                "duration": 0.1886364,
                "tempo": 120.0
            },
            {
                "start_time": 10.1977273,
                "end_time": 10.3840909,
                "pitch": 60,
                "velocity": 64,
                "duration": 0.1863636,
                "tempo": 120.0
            },
            {
                "start_time": 10.4,
                "end_time": 10.5840909,
                "pitch": 55,
                "velocity": 64,
                "duration": 0.1840909,
                "tempo": 120.0
            },
            {
                "start_time": 10.6022727,
                "end_time": 10.7886364,
                "pitch": 60,
                "velocity": 64,
                "duration": 0.1863636,
                "tempo": 120.0
            },
            {
                "start_time": 10.8068182,
                "end_time": 10.9954545,
                "pitch": 53,
                "velocity": 64,
                "duration": 0.1886364,
                "tempo": 120.0
            },
            {
                "start_time": 11.0113636,
                "end_time": 11.1909091,
                "pitch": 60,
                "velocity": 64,
                "duration": 0.1795455,
                "tempo": 120.0
            },
            {
                "start_time": 11.2090909,
                "end_time": 11.9886364,
                "pitch": 57,
                "velocity": 64,
                "duration": 0.7795455,
                "tempo": 120.0
            },
            {
                "start_time": 12.1954545,
                "end_time": 12.3840909,
                "pitch": 57,
                "velocity": 64,
                "duration": 0.1886364,
                "tempo": 120.0
            },
            {
                "start_time": 12.4022727,
                "end_time": 12.5909091,
                "pitch": 55,
                "velocity": 64,
                "duration": 0.1886364,
                "tempo": 120.0
            },
            {
                "start_time": 12.6068182,
                "end_time": 12.7909091,
                "pitch": 52,
                "velocity": 64,
                "duration": 0.1840909,
                "tempo": 120.0
            },
            {
                "start_time": 13.0090909,
                "end_time": 13.1954545,
                "pitch": 57,
                "velocity": 64,
                "duration": 0.1863636,
                "tempo": 120.0
            },
            {
                "start_time": 13.2113636,
                "end_time": 13.3954545,
                "pitch": 63,
                "velocity": 64,
                "duration": 0.1840909,
                "tempo": 120.0
            },
            {
                "start_time": 13.4136364,
                "end_time": 13.5977273,
                "pitch": 57,
                "velocity": 64,
                "duration": 0.1840909,
                "tempo": 120.0
            },
            {
                "start_time": 13.6136364,
                "end_time": 13.7977273,
                "pitch": 60,
                "velocity": 64,
                "duration": 0.1840909,
                "tempo": 120.0
            },
            {
                "start_time": 13.8159091,
                "end_time": 14.1977273,
                "pitch": 62,
                "velocity": 64,
                "duration": 0.3818182,
                "tempo": 120.0
            },
            {
                "start_time": 14.2159091,
                "end_time": 14.4,
                "pitch": 64,
                "velocity": 64,
                "duration": 0.1840909,
                "tempo": 120.0
            },
            {
                "start_time": 14.4159091,
                "end_time": 14.6022727,
                "pitch": 62,
                "velocity": 64,
                "duration": 0.1863636,
                "tempo": 120.0
            },
            {
                "start_time": 14.6181818,
                "end_time": 14.8022727,
                "pitch": 64,
                "velocity": 64,
                "duration": 0.1840909,
                "tempo": 120.0
            },
            {
                "start_time": 14.8181818,
                "end_time": 15.0045455,
                "pitch": 67,
                "velocity": 64,
                "duration": 0.1863636,
                "tempo": 120.0
            },
            {
                "start_time": 15.0204545,
                "end_time": 15.4136364,
                "pitch": 64,
                "velocity": 64,
                "duration": 0.3931818,
                "tempo": 120.0
            },
            {
                "start_time": 15.4318182,
                "end_time": 15.5136364,
                "pitch": 64,
                "velocity": 64,
                "duration": 0.0818182,
                "tempo": 120.0
            },
            {
                "start_time": 15.5295455,
                "end_time": 15.6113636,
                "pitch": 62,
                "velocity": 64,
                "duration": 0.0818182,
                "tempo": 120.0
            },
            {
                "start_time": 15.6272727,
                "end_time": 15.7090909,
                "pitch": 60,
                "velocity": 64,
                "duration": 0.0818182,
                "tempo": 120.0
            },
            {
                "start_time": 15.725,
                "end_time": 15.8068182,
                "pitch": 62,
                "velocity": 64,
                "duration": 0.0818182,
                "tempo": 120.0
            },
            {
                "start_time": 15.8227273,
                "end_time": 15.9090909,
                "pitch": 57,
                "velocity": 64,
                "duration": 0.0863636,
                "tempo": 120.0
            },
            {
                "start_time": 15.925,
                "end_time": 16.0113636,
                "pitch": 60,
                "velocity": 64,
                "duration": 0.0863636,
                "tempo": 120.0
            },
            {
                "start_time": 16.2340909,
                "end_time": 16.4136364,
                "pitch": 57,
                "velocity": 64,
                "duration": 0.1795455,
                "tempo": 120.0
            },
            {
                "start_time": 16.4295455,
                "end_time": 16.6090909,
                "pitch": 60,
                "velocity": 64,
                "duration": 0.1795455,
                "tempo": 120.0
            },
            {
                "start_time": 16.625,
                "end_time": 16.8068182,
                "pitch": 57,
                "velocity": 64,
                "duration": 0.1818182,
                "tempo": 120.0
            },
            {
                "start_time": 16.8227273,
                "end_time": 17.0022727,
                "pitch": 59,
                "velocity": 64,
                "duration": 0.1795455,
                "tempo": 120.0
            },
            {
                "start_time": 17.0181818,
                "end_time": 17.4227273,
                "pitch": 55,
                "velocity": 64,
                "duration": 0.4045455,
                "tempo": 120.0
            },
            {
                "start_time": 17.4409091,
                "end_time": 17.6204545,
                "pitch": 62,
                "velocity": 64,
                "duration": 0.1795455,
                "tempo": 120.0
            },
            {
                "start_time": 17.6363636,
                "end_time": 18.2181818,
                "pitch": 64,
                "velocity": 64,
                "duration": 0.5818182,
                "tempo": 120.0
            },
            {
                "start_time": 18.2340909,
                "end_time": 18.3181818,
                "pitch": 62,
                "velocity": 64,
                "duration": 0.0840909,
                "tempo": 120.0
            },
            {
                "start_time": 18.3340909,
                "end_time": 18.4181818,
                "pitch": 60,
                "velocity": 64,
                "duration": 0.0840909,
                "tempo": 120.0
            },
            {
                "start_time": 18.4340909,
                "end_time": 18.8136364,
                "pitch": 57,
                "velocity": 64,
                "duration": 0.3795455,
                "tempo": 120.0
            },
            {
                "start_time": 19.4272727,
                "end_time": 19.6159091,
                "pitch": 69,
                "velocity": 64,
                "duration": 0.1886364,
                "tempo": 120.0
            },
            {
                "start_time": 19.6318182,
                "end_time": 20.0181818,
                "pitch": 69,
                "velocity": 64,
                "duration": 0.3863636,
                "tempo": 120.0
            },
            {
                "start_time": 20.0340909,
                "end_time": 20.2136364,
                "pitch": 63,
                "velocity": 64,
                "duration": 0.1795455,
                "tempo": 120.0
            },
            {
                "start_time": 20.2295455,
                "end_time": 20.4181818,
                "pitch": 62,
                "velocity": 64,
                "duration": 0.1886364,
                "tempo": 120.0
            },
            {
                "start_time": 20.4363636,
                "end_time": 20.5204545,
                "pitch": 59,
                "velocity": 64,
                "duration": 0.0840909,
                "tempo": 120.0
            },
            {
                "start_time": 20.5386364,
                "end_time": 20.6227273,
                "pitch": 60,
                "velocity": 64,
                "duration": 0.0840909,
                "tempo": 120.0
            },
            {
                "start_time": 20.6409091,
                "end_time": 20.825,
                "pitch": 57,
                "velocity": 64,
                "duration": 0.1840909,
                "tempo": 120.0
            },
            {
                "start_time": 20.8409091,
                "end_time": 21.025,
                "pitch": 64,
                "velocity": 64,
                "duration": 0.1840909,
                "tempo": 120.0
            },
            {
                "start_time": 21.0409091,
                "end_time": 21.4272727,
                "pitch": 67,
                "velocity": 64,
                "duration": 0.3863636,
                "tempo": 120.0
            },
            {
                "start_time": 21.4431818,
                "end_time": 21.5272727,
                "pitch": 62,
                "velocity": 64,
                "duration": 0.0840909,
                "tempo": 120.0
            },
            {
                "start_time": 21.5431818,
                "end_time": 21.6272727,
                "pitch": 60,
                "velocity": 64,
                "duration": 0.0840909,
                "tempo": 120.0
            },
            {
                "start_time": 21.6431818,
                "end_time": 22.0272727,
                "pitch": 62,
                "velocity": 64,
                "duration": 0.3840909,
                "tempo": 120.0
            },
            {
                "start_time": 22.0454545,
                "end_time": 22.2295455,
                "pitch": 64,
                "velocity": 64,
                "duration": 0.1840909,
                "tempo": 120.0
            },
            {
                "start_time": 22.2454545,
                "end_time": 22.3295455,
                "pitch": 60,
                "velocity": 64,
                "duration": 0.0840909,
                "tempo": 120.0
            },
            {
                "start_time": 22.3454545,
                "end_time": 22.4295455,
                "pitch": 57,
                "velocity": 64,
                "duration": 0.0840909,
                "tempo": 120.0
            },
            {
                "start_time": 22.4454545,
                "end_time": 22.6295455,
                "pitch": 60,
                "velocity": 64,
                "duration": 0.1840909,
                "tempo": 120.0
            },
            {
                "start_time": 22.6454545,
                "end_time": 22.8295455,
                "pitch": 57,
                "velocity": 64,
                "duration": 0.1840909,
                "tempo": 120.0
            },
            {
                "start_time": 22.8454545,
                "end_time": 23.0295455,
                "pitch": 59,
                "velocity": 64,
                "duration": 0.1840909,
                "tempo": 120.0
            },
            {
                "start_time": 23.0454545,
                "end_time": 23.225,
                "pitch": 60,
                "velocity": 64,
                "duration": 0.1795455,
                "tempo": 120.0
            },
            {
                "start_time": 23.2409091,
                "end_time": 23.6318182,
                "pitch": 62,
                "velocity": 64,
                "duration": 0.3909091,
                "tempo": 120.0
            },
            {
                "start_time": 23.6477273,
                "end_time": 23.8431818,
                "pitch": 65,
                "velocity": 64,
                "duration": 0.1954545,
                "tempo": 120.0
            },
            {
                "start_time": 23.8590909,
                "end_time": 24.0386364,
                "pitch": 62,
                "velocity": 64,
                "duration": 0.1795455,
                "tempo": 120.0
            },
            {
                "start_time": 24.0568182,
                "end_time": 24.2363636,
                "pitch": 67,
                "velocity": 64,
                "duration": 0.1795455,
                "tempo": 120.0
            },
            {
                "start_time": 24.2522727,
                "end_time": 24.6363636,
                "pitch": 64,
                "velocity": 64,
                "duration": 0.3840909,
                "tempo": 120.0
            },
            {
                "start_time": 24.6522727,
                "end_time": 24.7363636,
                "pitch": 60,
                "velocity": 64,
                "duration": 0.0840909,
                "tempo": 120.0
            },
            {
                "start_time": 24.7522727,
                "end_time": 24.8363636,
                "pitch": 62,
                "velocity": 64,
                "duration": 0.0840909,
                "tempo": 120.0
            },
            {
                "start_time": 24.8522727,
                "end_time": 25.0363636,
                "pitch": 64,
                "velocity": 64,
                "duration": 0.1840909,
                "tempo": 120.0
            },
            {
                "start_time": 25.0522727,
                "end_time": 25.2318182,
                "pitch": 76,
                "velocity": 64,
                "duration": 0.1795455,
                "tempo": 120.0
            },
            {
                "start_time": 25.2477273,
                "end_time": 25.4272727,
                "pitch": 64,
                "velocity": 64,
                "duration": 0.1795455,
                "tempo": 120.0
            },
            {
                "start_time": 25.4431818,
                "end_time": 25.6295455,
                "pitch": 76,
                "velocity": 64,
                "duration": 0.1863636,
                "tempo": 120.0
            },
            {
                "start_time": 25.6454545,
                "end_time": 25.8295455,
                "pitch": 57,
                "velocity": 64,
                "duration": 0.1840909,
                "tempo": 120.0
            },
            {
                "start_time": 25.8477273,
                "end_time": 26.0363636,
                "pitch": 60,
                "velocity": 64,
                "duration": 0.1886364,
                "tempo": 120.0
            },
            {
                "start_time": 26.0522727,
                "end_time": 26.2409091,
                "pitch": 65,
                "velocity": 64,
                "duration": 0.1886364,
                "tempo": 120.0
            },
            {
                "start_time": 26.2568182,
                "end_time": 26.6522727,
                "pitch": 64,
                "velocity": 64,
                "duration": 0.3954545,
                "tempo": 120.0
            },
            {
                "start_time": 26.6681818,
                "end_time": 26.8477273,
                "pitch": 57,
                "velocity": 64,
                "duration": 0.1795455,
                "tempo": 120.0
            },
            {
                "start_time": 26.8659091,
                "end_time": 27.0454545,
                "pitch": 60,
                "velocity": 64,
                "duration": 0.1795455,
                "tempo": 120.0
            },
            {
                "start_time": 27.0613636,
                "end_time": 27.8568182,
                "pitch": 62,
                "velocity": 64,
                "duration": 0.7954545,
                "tempo": 120.0
            },
            {
                "start_time": 27.875,
                "end_time": 28.2568182,
                "pitch": 57,
                "velocity": 64,
                "duration": 0.3818182,
                "tempo": 120.0
            },
            {
                "start_time": 28.275,
                "end_time": 28.6613636,
                "pitch": 57,
                "velocity": 64,
                "duration": 0.3863636,
                "tempo": 120.0
            },
            {
                "start_time": 28.6772727,
                "end_time": 28.8568182,
                "pitch": 55,
                "velocity": 64,
                "duration": 0.1795455,
                "tempo": 120.0
            },
            {
                "start_time": 29.0681818,
                "end_time": 29.2545455,
                "pitch": 60,
                "velocity": 64,
                "duration": 0.1863636,
                "tempo": 120.0
            },
            {
                "start_time": 29.2704545,
                "end_time": 29.4545455,
                "pitch": 57,
                "velocity": 64,
                "duration": 0.1840909,
                "tempo": 120.0
            },
            {
                "start_time": 29.4727273,
                "end_time": 29.6545455,
                "pitch": 60,
                "velocity": 64,
                "duration": 0.1818182,
                "tempo": 120.0
            },
            {
                "start_time": 29.6727273,
                "end_time": 29.8545455,
                "pitch": 55,
                "velocity": 64,
                "duration": 0.1818182,
                "tempo": 120.0
            },
            {
                "start_time": 29.8727273,
                "end_time": 30.0568182,
                "pitch": 60,
                "velocity": 64,
                "duration": 0.1840909,
                "tempo": 120.0
            },
            {
                "start_time": 30.0727273,
                "end_time": 30.2568182,
                "pitch": 53,
                "velocity": 64,
                "duration": 0.1840909,
                "tempo": 120.0
            },
            {
                "start_time": 30.2727273,
                "end_time": 30.4477273,
                "pitch": 60,
                "velocity": 64,
                "duration": 0.175,
                "tempo": 120.0
            },
            {
                "start_time": 30.4636364,
                "end_time": 31.0977273,
                "pitch": 57,
                "velocity": 64,
                "duration": 0.6340909,
                "tempo": 120.0
            },
            {
                "start_time": 31.1113636,
                "end_time": 31.2931818,
                "pitch": 33,
                "velocity": 64,
                "duration": 0.1818182,
                "tempo": 120.0
            },
            {
                "start_time": 31.3113636,
                "end_time": 31.4954545,
                "pitch": 45,
                "velocity": 64,
                "duration": 0.1840909,
                "tempo": 120.0
            },
            {
                "start_time": 31.5113636,
                "end_time": 31.6954545,
                "pitch": 33,
                "velocity": 64,
                "duration": 0.1840909,
                "tempo": 120.0
            },
            {
                "start_time": 31.7113636,
                "end_time": 31.8954545,
                "pitch": 45,
                "velocity": 64,
                "duration": 0.1840909,
                "tempo": 120.0
            },
            {
                "start_time": 31.9113636,
                "end_time": 32.0954545,
                "pitch": 64,
                "velocity": 64,
                "duration": 0.1840909,
                "tempo": 120.0
            },
            {
                "start_time": 32.1113636,
                "end_time": 32.1954545,
                "pitch": 62,
                "velocity": 64,
                "duration": 0.0840909,
                "tempo": 120.0
            },
            {
                "start_time": 32.2113636,
                "end_time": 32.2954545,
                "pitch": 60,
                "velocity": 64,
                "duration": 0.0840909,
                "tempo": 120.0
            },
            {
                "start_time": 32.3113636,
                "end_time": 32.4909091,
                "pitch": 62,
                "velocity": 64,
                "duration": 0.1795455,
                "tempo": 120.0
            },
            {
                "start_time": 32.5090909,
                "end_time": 32.5909091,
                "pitch": 57,
                "velocity": 64,
                "duration": 0.0818182,
                "tempo": 120.0
            },
            {
                "start_time": 32.9045455,
                "end_time": 32.9886364,
                "pitch": 57,
                "velocity": 64,
                "duration": 0.0840909,
                "tempo": 120.0
            },
            {
                "start_time": 33.0045455,
                "end_time": 33.0886364,
                "pitch": 55,
                "velocity": 64,
                "duration": 0.0840909,
                "tempo": 120.0
            },
            {
                "start_time": 33.1045455,
                "end_time": 33.1886364,
                "pitch": 57,
                "velocity": 64,
                "duration": 0.0840909,
                "tempo": 120.0
            },
            {
                "start_time": 33.2045455,
                "end_time": 33.2886364,
                "pitch": 59,
                "velocity": 64,
                "duration": 0.0840909,
                "tempo": 120.0
            },
            {
                "start_time": 33.3045455,
                "end_time": 33.3886364,
                "pitch": 60,
                "velocity": 64,
                "duration": 0.0840909,
                "tempo": 120.0
            },
            {
                "start_time": 33.4045455,
                "end_time": 33.4886364,
                "pitch": 62,
                "velocity": 64,
                "duration": 0.0840909,
                "tempo": 120.0
            },
            {
                "start_time": 33.5045455,
                "end_time": 33.5886364,
                "pitch": 55,
                "velocity": 64,
                "duration": 0.0840909,
                "tempo": 120.0
            },
            {
                "start_time": 33.6045455,
                "end_time": 33.6886364,
                "pitch": 57,
                "velocity": 64,
                "duration": 0.0840909,
                "tempo": 120.0
            },
            {
                "start_time": 33.8045455,
                "end_time": 33.8886364,
                "pitch": 55,
                "velocity": 64,
                "duration": 0.0840909,
                "tempo": 120.0
            },
            {
                "start_time": 33.9045455,
                "end_time": 33.9886364,
                "pitch": 57,
                "velocity": 64,
                "duration": 0.0840909,
                "tempo": 120.0
            },
            {
                "start_time": 34.1045455,
                "end_time": 34.1886364,
                "pitch": 57,
                "velocity": 64,
                "duration": 0.0840909,
                "tempo": 120.0
            },
            {
                "start_time": 34.2045455,
                "end_time": 34.2886364,
                "pitch": 59,
                "velocity": 64,
                "duration": 0.0840909,
                "tempo": 120.0
            },
            {
                "start_time": 34.4022727,
                "end_time": 34.4840909,
                "pitch": 62,
                "velocity": 64,
                "duration": 0.0818182,
                "tempo": 120.0
            },
            {
                "start_time": 34.5,
                "end_time": 34.5818182,
                "pitch": 64,
                "velocity": 64,
                "duration": 0.0818182,
                "tempo": 120.0
            },
            {
                "start_time": 34.6954545,
                "end_time": 34.8840909,
                "pitch": 64,
                "velocity": 64,
                "duration": 0.1886364,
                "tempo": 120.0
            },
            {
                "start_time": 34.9022727,
                "end_time": 34.9886364,
                "pitch": 67,
                "velocity": 64,
                "duration": 0.0863636,
                "tempo": 120.0
            },
            {
                "start_time": 35.1068182,
                "end_time": 35.2909091,
                "pitch": 67,
                "velocity": 64,
                "duration": 0.1840909,
                "tempo": 120.0
            },
            {
                "start_time": 35.3068182,
                "end_time": 35.3909091,
                "pitch": 67,
                "velocity": 64,
                "duration": 0.0840909,
                "tempo": 120.0
            },
            {
                "start_time": 35.5068182,
                "end_time": 35.5931818,
                "pitch": 64,
                "velocity": 64,
                "duration": 0.0863636,
                "tempo": 120.0
            },
            {
                "start_time": 35.6090909,
                "end_time": 35.7977273,
                "pitch": 62,
                "velocity": 64,
                "duration": 0.1886364,
                "tempo": 120.0
            },
            {
                "start_time": 35.8159091,
                "end_time": 36.0022727,
                "pitch": 64,
                "velocity": 64,
                "duration": 0.1863636,
                "tempo": 120.0
            },
            {
                "start_time": 36.0181818,
                "end_time": 36.1022727,
                "pitch": 64,
                "velocity": 64,
                "duration": 0.0840909,
                "tempo": 120.0
            },
            {
                "start_time": 36.1181818,
                "end_time": 36.2022727,
                "pitch": 62,
                "velocity": 64,
                "duration": 0.0840909,
                "tempo": 120.0
            },
            {
                "start_time": 36.3181818,
                "end_time": 36.5022727,
                "pitch": 55,
                "velocity": 64,
                "duration": 0.1840909,
                "tempo": 120.0
            },
            {
                "start_time": 36.5181818,
                "end_time": 36.7022727,
                "pitch": 57,
                "velocity": 64,
                "duration": 0.1840909,
                "tempo": 120.0
            },
            {
                "start_time": 36.7181818,
                "end_time": 37.0931818,
                "pitch": 69,
                "velocity": 64,
                "duration": 0.375,
                "tempo": 120.0
            },
            {
                "start_time": 37.1113636,
                "end_time": 37.5045455,
                "pitch": 67,
                "velocity": 64,
                "duration": 0.3931818,
                "tempo": 120.0
            },
            {
                "start_time": 37.5204545,
                "end_time": 37.9068182,
                "pitch": 65,
                "velocity": 64,
                "duration": 0.3863636,
                "tempo": 120.0
            },
            {
                "start_time": 37.9227273,
                "end_time": 38.3,
                "pitch": 64,
                "velocity": 64,
                "duration": 0.3772727,
                "tempo": 120.0
            },
            {
                "start_time": 38.3159091,
                "end_time": 38.5045455,
                "pitch": 62,
                "velocity": 64,
                "duration": 0.1886364,
                "tempo": 120.0
            },
            {
                "start_time": 38.5204545,
                "end_time": 38.6068182,
                "pitch": 64,
                "velocity": 64,
                "duration": 0.0863636,
                "tempo": 120.0
            },
            {
                "start_time": 38.625,
                "end_time": 39.9136364,
                "pitch": 65,
                "velocity": 64,
                "duration": 1.2886364,
                "tempo": 120.0
            },
            {
                "start_time": 39.9295455,
                "end_time": 40.1136364,
                "pitch": 64,
                "velocity": 64,
                "duration": 0.1840909,
                "tempo": 120.0
            },
            {
                "start_time": 40.1295455,
                "end_time": 40.2136364,
                "pitch": 65,
                "velocity": 64,
                "duration": 0.0840909,
                "tempo": 120.0
            },
            {
                "start_time": 40.2295455,
                "end_time": 41.4954545,
                "pitch": 67,
                "velocity": 64,
                "duration": 1.2659091,
                "tempo": 120.0
            },
            {
                "start_time": 41.5136364,
                "end_time": 41.7022727,
                "pitch": 65,
                "velocity": 64,
                "duration": 0.1886364,
                "tempo": 120.0
            },
            {
                "start_time": 41.7181818,
                "end_time": 41.8045455,
                "pitch": 67,
                "velocity": 64,
                "duration": 0.0863636,
                "tempo": 120.0
            },
            {
                "start_time": 41.8204545,
                "end_time": 42.1068182,
                "pitch": 69,
                "velocity": 64,
                "duration": 0.2863636,
                "tempo": 120.0
            },
            {
                "start_time": 42.1227273,
                "end_time": 42.2068182,
                "pitch": 65,
                "velocity": 64,
                "duration": 0.0840909,
                "tempo": 120.0
            },
            {
                "start_time": 42.2227273,
                "end_time": 42.3068182,
                "pitch": 67,
                "velocity": 64,
                "duration": 0.0840909,
                "tempo": 120.0
            },
            {
                "start_time": 42.3227273,
                "end_time": 42.4090909,
                "pitch": 69,
                "velocity": 64,
                "duration": 0.0863636,
                "tempo": 120.0
            },
            {
                "start_time": 42.5295455,
                "end_time": 42.7181818,
                "pitch": 60,
                "velocity": 64,
                "duration": 0.1886364,
                "tempo": 120.0
            },
            {
                "start_time": 42.7340909,
                "end_time": 42.9090909,
                "pitch": 65,
                "velocity": 64,
                "duration": 0.175,
                "tempo": 120.0
            },
            {
                "start_time": 42.925,
                "end_time": 43.1,
                "pitch": 69,
                "velocity": 64,
                "duration": 0.175,
                "tempo": 120.0
            },
            {
                "start_time": 43.1159091,
                "end_time": 43.2022727,
                "pitch": 71,
                "velocity": 64,
                "duration": 0.0863636,
                "tempo": 120.0
            },
            {
                "start_time": 43.2204545,
                "end_time": 43.3090909,
                "pitch": 72,
                "velocity": 64,
                "duration": 0.0886364,
                "tempo": 120.0
            },
            {
                "start_time": 43.3272727,
                "end_time": 43.4136364,
                "pitch": 71,
                "velocity": 64,
                "duration": 0.0863636,
                "tempo": 120.0
            },
            {
                "start_time": 43.4318182,
                "end_time": 43.5204545,
                "pitch": 69,
                "velocity": 64,
                "duration": 0.0886364,
                "tempo": 120.0
            },
            {
                "start_time": 43.5363636,
                "end_time": 43.7181818,
                "pitch": 71,
                "velocity": 64,
                "duration": 0.1818182,
                "tempo": 120.0
            },
            {
                "start_time": 43.7340909,
                "end_time": 43.9136364,
                "pitch": 69,
                "velocity": 64,
                "duration": 0.1795455,
                "tempo": 120.0
            },
            {
                "start_time": 43.9295455,
                "end_time": 44.1136364,
                "pitch": 68,
                "velocity": 64,
                "duration": 0.1840909,
                "tempo": 120.0
            },
            {
                "start_time": 44.1295455,
                "end_time": 44.3136364,
                "pitch": 64,
                "velocity": 64,
                "duration": 0.1840909,
                "tempo": 120.0
            },
            {
                "start_time": 44.3295455,
                "end_time": 44.5090909,
                "pitch": 62,
                "velocity": 64,
                "duration": 0.1795455,
                "tempo": 120.0
            },
            {
                "start_time": 44.525,
                "end_time": 44.7045455,
                "pitch": 60,
                "velocity": 64,
                "duration": 0.1795455,
                "tempo": 120.0
            }
        ],
        "Electric Guitar (clean)": [
            {
                "start_time": 0.0,
                "end_time": 0.1659091,
                "pitch": 33,
                "velocity": 51,
                "duration": 0.1659091,
                "tempo": 120.0
            },
            {
                "start_time": 0.1840909,
                "end_time": 0.3659091,
                "pitch": 33,
                "velocity": 51,
                "duration": 0.1818182,
                "tempo": 120.0
            },
            {
                "start_time": 0.3840909,
                "end_time": 0.5659091,
                "pitch": 33,
                "velocity": 51,
                "duration": 0.1818182,
                "tempo": 120.0
            },
            {
                "start_time": 0.5840909,
                "end_time": 0.7659091,
                "pitch": 48,
                "velocity": 51,
                "duration": 0.1818182,
                "tempo": 120.0
            },
            {
                "start_time": 0.7840909,
                "end_time": 0.9659091,
                "pitch": 31,
                "velocity": 51,
                "duration": 0.1818182,
                "tempo": 120.0
            },
            {
                "start_time": 0.9840909,
                "end_time": 1.1659091,
                "pitch": 33,
                "velocity": 51,
                "duration": 0.1818182,
                "tempo": 120.0
            },
            {
                "start_time": 1.1840909,
                "end_time": 1.3659091,
                "pitch": 36,
                "velocity": 51,
                "duration": 0.1818182,
                "tempo": 120.0
            },
            {
                "start_time": 1.3840909,
                "end_time": 1.7659091,
                "pitch": 33,
                "velocity": 51,
                "duration": 0.3818182,
                "tempo": 120.0
            },
            {
                "start_time": 1.7840909,
                "end_time": 2.1681818,
                "pitch": 33,
                "velocity": 51,
                "duration": 0.3840909,
                "tempo": 120.0
            },
            {
                "start_time": 2.1863636,
                "end_time": 2.3704545,
                "pitch": 48,
                "velocity": 51,
                "duration": 0.1840909,
                "tempo": 120.0
            },
            {
                "start_time": 2.3863636,
                "end_time": 2.5704545,
                "pitch": 31,
                "velocity": 51,
                "duration": 0.1840909,
                "tempo": 120.0
            },
            {
                "start_time": 2.5863636,
                "end_time": 2.7704545,
                "pitch": 33,
                "velocity": 51,
                "duration": 0.1840909,
                "tempo": 120.0
            },
            {
                "start_time": 2.7863636,
                "end_time": 2.9704545,
                "pitch": 48,
                "velocity": 51,
                "duration": 0.1840909,
                "tempo": 120.0
            },
            {
                "start_time": 2.9863636,
                "end_time": 3.1613636,
                "pitch": 33,
                "velocity": 51,
                "duration": 0.175,
                "tempo": 120.0
            },
            {
                "start_time": 3.1772727,
                "end_time": 3.3522727,
                "pitch": 28,
                "velocity": 51,
                "duration": 0.175,
                "tempo": 120.0
            },
            {
                "start_time": 3.3681818,
                "end_time": 3.5568182,
                "pitch": 28,
                "velocity": 51,
                "duration": 0.1886364,
                "tempo": 120.0
            },
            {
                "start_time": 3.5727273,
                "end_time": 3.7613636,
                "pitch": 47,
                "velocity": 51,
                "duration": 0.1886364,
                "tempo": 120.0
            },
            {
                "start_time": 3.7795455,
                "end_time": 3.9613636,
                "pitch": 28,
                "velocity": 51,
                "duration": 0.1818182,
                "tempo": 120.0
            },
            {
                "start_time": 3.9795455,
                "end_time": 4.1613636,
                "pitch": 26,
                "velocity": 51,
                "duration": 0.1818182,
                "tempo": 120.0
            },
            {
                "start_time": 4.1795455,
                "end_time": 4.3659091,
                "pitch": 28,
                "velocity": 51,
                "duration": 0.1863636,
                "tempo": 120.0
            },
            {
                "start_time": 4.3840909,
                "end_time": 4.5727273,
                "pitch": 47,
                "velocity": 51,
                "duration": 0.1886364,
                "tempo": 120.0
            },
            {
                "start_time": 4.5886364,
                "end_time": 4.7681818,
                "pitch": 28,
                "velocity": 51,
                "duration": 0.1795455,
                "tempo": 120.0
            },
            {
                "start_time": 4.7863636,
                "end_time": 4.9659091,
                "pitch": 33,
                "velocity": 51,
                "duration": 0.1795455,
                "tempo": 120.0
            },
            {
                "start_time": 4.9818182,
                "end_time": 5.1704545,
                "pitch": 33,
                "velocity": 51,
                "duration": 0.1886364,
                "tempo": 120.0
            },
            {
                "start_time": 5.1863636,
                "end_time": 5.375,
                "pitch": 48,
                "velocity": 51,
                "duration": 0.1886364,
                "tempo": 120.0
            },
            {
                "start_time": 5.3909091,
                "end_time": 5.5659091,
                "pitch": 31,
                "velocity": 51,
                "duration": 0.175,
                "tempo": 120.0
            },
            {
                "start_time": 5.5818182,
                "end_time": 5.7568182,
                "pitch": 33,
                "velocity": 51,
                "duration": 0.175,
                "tempo": 120.0
            },
            {
                "start_time": 5.7727273,
                "end_time": 5.9613636,
                "pitch": 55,
                "velocity": 51,
                "duration": 0.1886364,
                "tempo": 120.0
            },
            {
                "start_time": 5.9795455,
                "end_time": 6.1681818,
                "pitch": 55,
                "velocity": 51,
                "duration": 0.1886364,
                "tempo": 120.0
            },
            {
                "start_time": 6.1840909,
                "end_time": 6.3681818,
                "pitch": 57,
                "velocity": 51,
                "duration": 0.1840909,
                "tempo": 120.0
            },
            {
                "start_time": 6.3840909,
                "end_time": 6.5681818,
                "pitch": 33,
                "velocity": 51,
                "duration": 0.1840909,
                "tempo": 120.0
            },
            {
                "start_time": 6.5840909,
                "end_time": 6.7727273,
                "pitch": 33,
                "velocity": 51,
                "duration": 0.1886364,
                "tempo": 120.0
            },
            {
                "start_time": 6.7886364,
                "end_time": 6.9772727,
                "pitch": 33,
                "velocity": 51,
                "duration": 0.1886364,
                "tempo": 120.0
            },
            {
                "start_time": 6.9954545,
                "end_time": 7.1795455,
                "pitch": 48,
                "velocity": 51,
                "duration": 0.1840909,
                "tempo": 120.0
            },
            {
                "start_time": 7.1977273,
                "end_time": 7.3818182,
                "pitch": 31,
                "velocity": 51,
                "duration": 0.1840909,
                "tempo": 120.0
            },
            {
                "start_time": 7.3977273,
                "end_time": 7.5818182,
                "pitch": 33,
                "velocity": 51,
                "duration": 0.1840909,
                "tempo": 120.0
            },
            {
                "start_time": 7.5977273,
                "end_time": 7.7818182,
                "pitch": 36,
                "velocity": 51,
                "duration": 0.1840909,
                "tempo": 120.0
            },
            {
                "start_time": 7.7977273,
                "end_time": 8.1840909,
                "pitch": 33,
                "velocity": 51,
                "duration": 0.3863636,
                "tempo": 120.0
            },
            {
                "start_time": 8.2,
                "end_time": 8.5840909,
                "pitch": 33,
                "velocity": 51,
                "duration": 0.3840909,
                "tempo": 120.0
            },
            {
                "start_time": 8.6,
                "end_time": 8.7863636,
                "pitch": 48,
                "velocity": 51,
                "duration": 0.1863636,
                "tempo": 120.0
            },
            {
                "start_time": 8.8022727,
                "end_time": 8.9863636,
                "pitch": 31,
                "velocity": 51,
                "duration": 0.1840909,
                "tempo": 120.0
            },
            {
                "start_time": 9.0022727,
                "end_time": 9.1886364,
                "pitch": 33,
                "velocity": 51,
                "duration": 0.1863636,
                "tempo": 120.0
            },
            {
                "start_time": 9.2045455,
                "end_time": 9.3886364,
                "pitch": 48,
                "velocity": 51,
                "duration": 0.1840909,
                "tempo": 120.0
            },
            {
                "start_time": 9.4045455,
                "end_time": 9.5795455,
                "pitch": 33,
                "velocity": 51,
                "duration": 0.175,
                "tempo": 120.0
            },
            {
                "start_time": 9.5954545,
                "end_time": 9.7727273,
                "pitch": 28,
                "velocity": 51,
                "duration": 0.1772727,
                "tempo": 120.0
            },
            {
                "start_time": 9.7886364,
                "end_time": 9.9772727,
                "pitch": 28,
                "velocity": 51,
                "duration": 0.1886364,
                "tempo": 120.0
            },
            {
                "start_time": 9.9931818,
                "end_time": 10.1818182,
                "pitch": 47,
                "velocity": 51,
                "duration": 0.1886364,
                "tempo": 120.0
            },
            {
                "start_time": 10.1977273,
                "end_time": 10.3840909,
                "pitch": 28,
                "velocity": 51,
                "duration": 0.1863636,
                "tempo": 120.0
            },
            {
                "start_time": 10.4,
                "end_time": 10.5840909,
                "pitch": 26,
                "velocity": 51,
                "duration": 0.1840909,
                "tempo": 120.0
            },
            {
                "start_time": 10.6022727,
                "end_time": 10.7886364,
                "pitch": 28,
                "velocity": 51,
                "duration": 0.1863636,
                "tempo": 120.0
            },
            {
                "start_time": 10.8068182,
                "end_time": 10.9954545,
                "pitch": 47,
                "velocity": 51,
                "duration": 0.1886364,
                "tempo": 120.0
            },
            {
                "start_time": 11.0113636,
                "end_time": 11.1909091,
                "pitch": 28,
                "velocity": 51,
                "duration": 0.1795455,
                "tempo": 120.0
            },
            {
                "start_time": 11.2090909,
                "end_time": 11.3886364,
                "pitch": 33,
                "velocity": 51,
                "duration": 0.1795455,
                "tempo": 120.0
            },
            {
                "start_time": 11.4045455,
                "end_time": 11.5931818,
                "pitch": 33,
                "velocity": 51,
                "duration": 0.1886364,
                "tempo": 120.0
            },
            {
                "start_time": 11.6090909,
                "end_time": 11.7977273,
                "pitch": 48,
                "velocity": 51,
                "duration": 0.1886364,
                "tempo": 120.0
            },
            {
                "start_time": 11.8136364,
                "end_time": 11.9886364,
                "pitch": 31,
                "velocity": 51,
                "duration": 0.175,
                "tempo": 120.0
            },
            {
                "start_time": 12.0045455,
                "end_time": 12.1795455,
                "pitch": 33,
                "velocity": 51,
                "duration": 0.175,
                "tempo": 120.0
            },
            {
                "start_time": 12.1954545,
                "end_time": 12.3840909,
                "pitch": 52,
                "velocity": 51,
                "duration": 0.1886364,
                "tempo": 120.0
            },
            {
                "start_time": 12.4022727,
                "end_time": 12.5909091,
                "pitch": 50,
                "velocity": 51,
                "duration": 0.1886364,
                "tempo": 120.0
            },
            {
                "start_time": 12.6068182,
                "end_time": 12.7909091,
                "pitch": 48,
                "velocity": 51,
                "duration": 0.1840909,
                "tempo": 120.0
            },
            {
                "start_time": 12.8090909,
                "end_time": 12.9931818,
                "pitch": 29,
                "velocity": 51,
                "duration": 0.1840909,
                "tempo": 120.0
            },
            {
                "start_time": 13.0090909,
                "end_time": 13.1954545,
                "pitch": 29,
                "velocity": 51,
                "duration": 0.1863636,
                "tempo": 120.0
            },
            {
                "start_time": 13.2113636,
                "end_time": 13.3954545,
                "pitch": 48,
                "velocity": 51,
                "duration": 0.1840909,
                "tempo": 120.0
            },
            {
                "start_time": 13.4136364,
                "end_time": 13.5977273,
                "pitch": 29,
                "velocity": 51,
                "duration": 0.1840909,
                "tempo": 120.0
            },
            {
                "start_time": 13.6136364,
                "end_time": 13.7977273,
                "pitch": 28,
                "velocity": 51,
                "duration": 0.1840909,
                "tempo": 120.0
            },
            {
                "start_time": 13.8159091,
                "end_time": 13.9977273,
                "pitch": 29,
                "velocity": 51,
                "duration": 0.1818182,
                "tempo": 120.0
            },
            {
                "start_time": 14.0159091,
                "end_time": 14.1977273,
                "pitch": 48,
                "velocity": 51,
                "duration": 0.1818182,
                "tempo": 120.0
            },
            {
                "start_time": 14.2159091,
                "end_time": 14.4,
                "pitch": 29,
                "velocity": 51,
                "duration": 0.1840909,
                "tempo": 120.0
            },
            {
                "start_time": 14.4159091,
                "end_time": 14.6022727,
                "pitch": 28,
                "velocity": 51,
                "duration": 0.1863636,
                "tempo": 120.0
            },
            {
                "start_time": 14.6181818,
                "end_time": 14.8022727,
                "pitch": 47,
                "velocity": 51,
                "duration": 0.1840909,
                "tempo": 120.0
            },
            {
                "start_time": 14.8181818,
                "end_time": 15.0045455,
                "pitch": 35,
                "velocity": 51,
                "duration": 0.1863636,
                "tempo": 120.0
            },
            {
                "start_time": 15.0204545,
                "end_time": 15.2090909,
                "pitch": 47,
                "velocity": 51,
                "duration": 0.1886364,
                "tempo": 120.0
            },
            {
                "start_time": 15.225,
                "end_time": 15.4136364,
                "pitch": 33,
                "velocity": 51,
                "duration": 0.1886364,
                "tempo": 120.0
            },
            {
                "start_time": 15.4318182,
                "end_time": 15.6113636,
                "pitch": 47,
                "velocity": 51,
                "duration": 0.1795455,
                "tempo": 120.0
            },
            {
                "start_time": 15.6272727,
                "end_time": 15.8068182,
                "pitch": 31,
                "velocity": 51,
                "duration": 0.1795455,
                "tempo": 120.0
            },
            {
                "start_time": 15.8227273,
                "end_time": 16.0113636,
                "pitch": 47,
                "velocity": 51,
                "duration": 0.1886364,
                "tempo": 120.0
            },
            {
                "start_time": 16.0295455,
                "end_time": 16.2159091,
                "pitch": 36,
                "velocity": 51,
                "duration": 0.1863636,
                "tempo": 120.0
            },
            {
                "start_time": 16.2340909,
                "end_time": 16.4136364,
                "pitch": 35,
                "velocity": 51,
                "duration": 0.1795455,
                "tempo": 120.0
            },
            {
                "start_time": 16.4295455,
                "end_time": 16.6090909,
                "pitch": 48,
                "velocity": 51,
                "duration": 0.1795455,
                "tempo": 120.0
            },
            {
                "start_time": 16.625,
                "end_time": 16.8068182,
                "pitch": 33,
                "velocity": 51,
                "duration": 0.1818182,
                "tempo": 120.0
            },
            {
                "start_time": 16.8227273,
                "end_time": 17.0022727,
                "pitch": 31,
                "velocity": 51,
                "duration": 0.1795455,
                "tempo": 120.0
            },
            {
                "start_time": 17.0181818,
                "end_time": 17.2113636,
                "pitch": 31,
                "velocity": 51,
                "duration": 0.1931818,
                "tempo": 120.0
            },
            {
                "start_time": 17.2295455,
                "end_time": 17.4227273,
                "pitch": 48,
                "velocity": 51,
                "duration": 0.1931818,
                "tempo": 120.0
            },
            {
                "start_time": 17.4409091,
                "end_time": 17.6204545,
                "pitch": 36,
                "velocity": 51,
                "duration": 0.1795455,
                "tempo": 120.0
            },
            {
                "start_time": 17.6363636,
                "end_time": 17.8159091,
                "pitch": 38,
                "velocity": 51,
                "duration": 0.1795455,
                "tempo": 120.0
            },
            {
                "start_time": 17.8318182,
                "end_time": 18.0159091,
                "pitch": 38,
                "velocity": 51,
                "duration": 0.1840909,
                "tempo": 120.0
            },
            {
                "start_time": 18.0340909,
                "end_time": 18.2181818,
                "pitch": 45,
                "velocity": 51,
                "duration": 0.1840909,
                "tempo": 120.0
            },
            {
                "start_time": 18.2340909,
                "end_time": 18.4181818,
                "pitch": 38,
                "velocity": 51,
                "duration": 0.1840909,
                "tempo": 120.0
            },
            {
                "start_time": 18.4340909,
                "end_time": 18.6181818,
                "pitch": 48,
                "velocity": 51,
                "duration": 0.1840909,
                "tempo": 120.0
            },
            {
                "start_time": 18.6340909,
                "end_time": 19.0113636,
                "pitch": 45,
                "velocity": 51,
                "duration": 0.3772727,
                "tempo": 120.0
            },
            {
                "start_time": 19.0272727,
                "end_time": 19.2113636,
                "pitch": 38,
                "velocity": 51,
                "duration": 0.1840909,
                "tempo": 120.0
            },
            {
                "start_time": 19.2272727,
                "end_time": 19.4113636,
                "pitch": 29,
                "velocity": 51,
                "duration": 0.1840909,
                "tempo": 120.0
            },
            {
                "start_time": 19.4272727,
                "end_time": 19.6159091,
                "pitch": 29,
                "velocity": 51,
                "duration": 0.1886364,
                "tempo": 120.0
            },
            {
                "start_time": 19.6318182,
                "end_time": 19.8204545,
                "pitch": 48,
                "velocity": 51,
                "duration": 0.1886364,
                "tempo": 120.0
            },
            {
                "start_time": 19.8386364,
                "end_time": 20.0181818,
                "pitch": 29,
                "velocity": 51,
                "duration": 0.1795455,
                "tempo": 120.0
            },
            {
                "start_time": 20.0340909,
                "end_time": 20.2136364,
                "pitch": 28,
                "velocity": 51,
                "duration": 0.1795455,
                "tempo": 120.0
            },
            {
                "start_time": 20.2295455,
                "end_time": 20.4181818,
                "pitch": 29,
                "velocity": 51,
                "duration": 0.1886364,
                "tempo": 120.0
            },
            {
                "start_time": 20.4363636,
                "end_time": 20.6227273,
                "pitch": 48,
                "velocity": 51,
                "duration": 0.1863636,
                "tempo": 120.0
            },
            {
                "start_time": 20.6409091,
                "end_time": 20.825,
                "pitch": 29,
                "velocity": 51,
                "duration": 0.1840909,
                "tempo": 120.0
            },
            {
                "start_time": 20.8409091,
                "end_time": 21.025,
                "pitch": 28,
                "velocity": 51,
                "duration": 0.1840909,
                "tempo": 120.0
            },
            {
                "start_time": 21.0409091,
                "end_time": 21.225,
                "pitch": 47,
                "velocity": 51,
                "duration": 0.1840909,
                "tempo": 120.0
            },
            {
                "start_time": 21.2431818,
                "end_time": 21.4272727,
                "pitch": 35,
                "velocity": 51,
                "duration": 0.1840909,
                "tempo": 120.0
            },
            {
                "start_time": 21.4431818,
                "end_time": 21.6272727,
                "pitch": 47,
                "velocity": 51,
                "duration": 0.1840909,
                "tempo": 120.0
            },
            {
                "start_time": 21.6431818,
                "end_time": 21.8272727,
                "pitch": 33,
                "velocity": 51,
                "duration": 0.1840909,
                "tempo": 120.0
            },
            {
                "start_time": 21.8431818,
                "end_time": 22.0272727,
                "pitch": 47,
                "velocity": 51,
                "duration": 0.1840909,
                "tempo": 120.0
            },
            {
                "start_time": 22.0454545,
                "end_time": 22.2295455,
                "pitch": 31,
                "velocity": 51,
                "duration": 0.1840909,
                "tempo": 120.0
            },
            {
                "start_time": 22.2454545,
                "end_time": 22.4295455,
                "pitch": 47,
                "velocity": 51,
                "duration": 0.1840909,
                "tempo": 120.0
            },
            {
                "start_time": 22.4454545,
                "end_time": 22.6295455,
                "pitch": 33,
                "velocity": 51,
                "duration": 0.1840909,
                "tempo": 120.0
            },
            {
                "start_time": 22.6454545,
                "end_time": 22.8295455,
                "pitch": 33,
                "velocity": 51,
                "duration": 0.1840909,
                "tempo": 120.0
            },
            {
                "start_time": 22.8454545,
                "end_time": 23.0295455,
                "pitch": 48,
                "velocity": 51,
                "duration": 0.1840909,
                "tempo": 120.0
            },
            {
                "start_time": 23.0454545,
                "end_time": 23.225,
                "pitch": 33,
                "velocity": 51,
                "duration": 0.1795455,
                "tempo": 120.0
            },
            {
                "start_time": 23.2409091,
                "end_time": 23.4227273,
                "pitch": 35,
                "velocity": 51,
                "duration": 0.1818182,
                "tempo": 120.0
            },
            {
                "start_time": 23.4386364,
                "end_time": 23.6318182,
                "pitch": 35,
                "velocity": 51,
                "duration": 0.1931818,
                "tempo": 120.0
            },
            {
                "start_time": 23.6477273,
                "end_time": 23.8431818,
                "pitch": 47,
                "velocity": 51,
                "duration": 0.1954545,
                "tempo": 120.0
            },
            {
                "start_time": 23.8590909,
                "end_time": 24.0386364,
                "pitch": 35,
                "velocity": 51,
                "duration": 0.1795455,
                "tempo": 120.0
            },
            {
                "start_time": 24.0568182,
                "end_time": 24.2363636,
                "pitch": 36,
                "velocity": 51,
                "duration": 0.1795455,
                "tempo": 120.0
            },
            {
                "start_time": 24.2522727,
                "end_time": 24.4363636,
                "pitch": 36,
                "velocity": 51,
                "duration": 0.1840909,
                "tempo": 120.0
            },
            {
                "start_time": 24.4522727,
                "end_time": 24.6363636,
                "pitch": 48,
                "velocity": 51,
                "duration": 0.1840909,
                "tempo": 120.0
            },
            {
                "start_time": 24.6522727,
                "end_time": 24.8363636,
                "pitch": 38,
                "velocity": 51,
                "duration": 0.1840909,
                "tempo": 120.0
            },
            {
                "start_time": 24.8522727,
                "end_time": 25.0363636,
                "pitch": 50,
                "velocity": 51,
                "duration": 0.1840909,
                "tempo": 120.0
            },
            {
                "start_time": 25.0522727,
                "end_time": 25.2318182,
                "pitch": 40,
                "velocity": 51,
                "duration": 0.1795455,
                "tempo": 120.0
            },
            {
                "start_time": 25.2477273,
                "end_time": 25.6295455,
                "pitch": 52,
                "velocity": 51,
                "duration": 0.3818182,
                "tempo": 120.0
            },
            {
                "start_time": 25.6454545,
                "end_time": 25.8295455,
                "pitch": 33,
                "velocity": 51,
                "duration": 0.1840909,
                "tempo": 120.0
            },
            {
                "start_time": 25.8477273,
                "end_time": 26.0363636,
                "pitch": 33,
                "velocity": 51,
                "duration": 0.1886364,
                "tempo": 120.0
            },
            {
                "start_time": 26.0522727,
                "end_time": 26.2409091,
                "pitch": 33,
                "velocity": 51,
                "duration": 0.1886364,
                "tempo": 120.0
            },
            {
                "start_time": 26.2568182,
                "end_time": 26.4454545,
                "pitch": 48,
                "velocity": 51,
                "duration": 0.1886364,
                "tempo": 120.0
            },
            {
                "start_time": 26.4636364,
                "end_time": 26.6522727,
                "pitch": 31,
                "velocity": 51,
                "duration": 0.1886364,
                "tempo": 120.0
            },
            {
                "start_time": 26.6681818,
                "end_time": 26.8477273,
                "pitch": 33,
                "velocity": 51,
                "duration": 0.1795455,
                "tempo": 120.0
            },
            {
                "start_time": 26.8659091,
                "end_time": 27.0454545,
                "pitch": 36,
                "velocity": 51,
                "duration": 0.1795455,
                "tempo": 120.0
            },
            {
                "start_time": 27.0613636,
                "end_time": 27.4545455,
                "pitch": 33,
                "velocity": 51,
                "duration": 0.3931818,
                "tempo": 120.0
            },
            {
                "start_time": 27.4704545,
                "end_time": 27.8568182,
                "pitch": 33,
                "velocity": 51,
                "duration": 0.3863636,
                "tempo": 120.0
            },
            {
                "start_time": 27.875,
                "end_time": 28.0568182,
                "pitch": 48,
                "velocity": 51,
                "duration": 0.1818182,
                "tempo": 120.0
            },
            {
                "start_time": 28.075,
                "end_time": 28.2568182,
                "pitch": 31,
                "velocity": 51,
                "duration": 0.1818182,
                "tempo": 120.0
            },
            {
                "start_time": 28.275,
                "end_time": 28.4590909,
                "pitch": 33,
                "velocity": 51,
                "duration": 0.1840909,
                "tempo": 120.0
            },
            {
                "start_time": 28.475,
                "end_time": 28.6613636,
                "pitch": 48,
                "velocity": 51,
                "duration": 0.1863636,
                "tempo": 120.0
            },
            {
                "start_time": 28.6772727,
                "end_time": 28.8568182,
                "pitch": 33,
                "velocity": 51,
                "duration": 0.1795455,
                "tempo": 120.0
            },
            {
                "start_time": 28.8727273,
                "end_time": 29.0522727,
                "pitch": 28,
                "velocity": 51,
                "duration": 0.1795455,
                "tempo": 120.0
            },
            {
                "start_time": 29.0681818,
                "end_time": 29.2545455,
                "pitch": 28,
                "velocity": 51,
                "duration": 0.1863636,
                "tempo": 120.0
            },
            {
                "start_time": 29.2704545,
                "end_time": 29.4545455,
                "pitch": 47,
                "velocity": 51,
                "duration": 0.1840909,
                "tempo": 120.0
            },
            {
                "start_time": 29.4727273,
                "end_time": 29.6545455,
                "pitch": 28,
                "velocity": 51,
                "duration": 0.1818182,
                "tempo": 120.0
            },
            {
                "start_time": 29.6727273,
                "end_time": 29.8545455,
                "pitch": 26,
                "velocity": 51,
                "duration": 0.1818182,
                "tempo": 120.0
            },
            {
                "start_time": 29.8727273,
                "end_time": 30.0568182,
                "pitch": 28,
                "velocity": 51,
                "duration": 0.1840909,
                "tempo": 120.0
            },
            {
                "start_time": 30.0727273,
                "end_time": 30.2568182,
                "pitch": 47,
                "velocity": 51,
                "duration": 0.1840909,
                "tempo": 120.0
            },
            {
                "start_time": 30.2727273,
                "end_time": 30.4477273,
                "pitch": 28,
                "velocity": 51,
                "duration": 0.175,
                "tempo": 120.0
            },
            {
                "start_time": 30.4636364,
                "end_time": 30.6272727,
                "pitch": 33,
                "velocity": 51,
                "duration": 0.1636364,
                "tempo": 120.0
            },
            {
                "start_time": 30.6386364,
                "end_time": 30.7863636,
                "pitch": 33,
                "velocity": 51,
                "duration": 0.1477273,
                "tempo": 120.0
            },
            {
                "start_time": 30.8,
                "end_time": 30.9431818,
                "pitch": 48,
                "velocity": 51,
                "duration": 0.1431818,
                "tempo": 120.0
            },
            {
                "start_time": 30.9568182,
                "end_time": 31.0977273,
                "pitch": 31,
                "velocity": 51,
                "duration": 0.1409091,
                "tempo": 120.0
            },
            {
                "start_time": 31.1113636,
                "end_time": 31.2931818,
                "pitch": 33,
                "velocity": 51,
                "duration": 0.1818182,
                "tempo": 120.0
            },
            {
                "start_time": 31.3113636,
                "end_time": 31.4954545,
                "pitch": 55,
                "velocity": 51,
                "duration": 0.1840909,
                "tempo": 120.0
            },
            {
                "start_time": 31.5113636,
                "end_time": 31.6954545,
                "pitch": 55,
                "velocity": 51,
                "duration": 0.1840909,
                "tempo": 120.0
            },
            {
                "start_time": 31.7113636,
                "end_time": 31.8954545,
                "pitch": 57,
                "velocity": 51,
                "duration": 0.1840909,
                "tempo": 120.0
            },
            {
                "start_time": 31.9113636,
                "end_time": 32.0954545,
                "pitch": 41,
                "velocity": 51,
                "duration": 0.1840909,
                "tempo": 120.0
            },
            {
                "start_time": 32.1113636,
                "end_time": 32.2954545,
                "pitch": 53,
                "velocity": 51,
                "duration": 0.1840909,
                "tempo": 120.0
            },
            {
                "start_time": 32.3113636,
                "end_time": 32.4909091,
                "pitch": 40,
                "velocity": 51,
                "duration": 0.1795455,
                "tempo": 120.0
            },
            {
                "start_time": 32.5090909,
                "end_time": 32.6886364,
                "pitch": 53,
                "velocity": 51,
                "duration": 0.1795455,
                "tempo": 120.0
            },
            {
                "start_time": 32.7045455,
                "end_time": 32.8886364,
                "pitch": 39,
                "velocity": 51,
                "duration": 0.1840909,
                "tempo": 120.0
            },
            {
                "start_time": 32.9045455,
                "end_time": 33.0886364,
                "pitch": 53,
                "velocity": 51,
                "duration": 0.1840909,
                "tempo": 120.0
            },
            {
                "start_time": 33.1045455,
                "end_time": 33.2886364,
                "pitch": 38,
                "velocity": 51,
                "duration": 0.1840909,
                "tempo": 120.0
            },
            {
                "start_time": 33.3045455,
                "end_time": 33.4886364,
                "pitch": 53,
                "velocity": 51,
                "duration": 0.1840909,
                "tempo": 120.0
            },
            {
                "start_time": 33.5045455,
                "end_time": 33.6886364,
                "pitch": 41,
                "velocity": 51,
                "duration": 0.1840909,
                "tempo": 120.0
            },
            {
                "start_time": 33.7045455,
                "end_time": 33.8886364,
                "pitch": 53,
                "velocity": 51,
                "duration": 0.1840909,
                "tempo": 120.0
            },
            {
                "start_time": 33.9045455,
                "end_time": 34.0886364,
                "pitch": 40,
                "velocity": 51,
                "duration": 0.1840909,
                "tempo": 120.0
            },
            {
                "start_time": 34.1045455,
                "end_time": 34.2886364,
                "pitch": 53,
                "velocity": 51,
                "duration": 0.1840909,
                "tempo": 120.0
            },
            {
                "start_time": 34.3045455,
                "end_time": 34.4840909,
                "pitch": 39,
                "velocity": 51,
                "duration": 0.1795455,
                "tempo": 120.0
            },
            {
                "start_time": 34.5,
                "end_time": 34.6795455,
                "pitch": 53,
                "velocity": 51,
                "duration": 0.1795455,
                "tempo": 120.0
            },
            {
                "start_time": 34.6954545,
                "end_time": 34.8840909,
                "pitch": 38,
                "velocity": 51,
                "duration": 0.1886364,
                "tempo": 120.0
            },
            {
                "start_time": 34.9022727,
                "end_time": 35.0909091,
                "pitch": 53,
                "velocity": 51,
                "duration": 0.1886364,
                "tempo": 120.0
            },
            {
                "start_time": 35.1068182,
                "end_time": 35.2909091,
                "pitch": 40,
                "velocity": 51,
                "duration": 0.1840909,
                "tempo": 120.0
            },
            {
                "start_time": 35.3068182,
                "end_time": 35.4909091,
                "pitch": 52,
                "velocity": 51,
                "duration": 0.1840909,
                "tempo": 120.0
            },
            {
                "start_time": 35.5068182,
                "end_time": 35.6954545,
                "pitch": 39,
                "velocity": 51,
                "duration": 0.1886364,
                "tempo": 120.0
            },
            {
                "start_time": 35.7136364,
                "end_time": 35.9,
                "pitch": 52,
                "velocity": 51,
                "duration": 0.1863636,
                "tempo": 120.0
            },
            {
                "start_time": 35.9181818,
                "end_time": 36.1022727,
                "pitch": 38,
                "velocity": 51,
                "duration": 0.1840909,
                "tempo": 120.0
            },
            {
                "start_time": 36.1181818,
                "end_time": 36.3022727,
                "pitch": 52,
                "velocity": 51,
                "duration": 0.1840909,
                "tempo": 120.0
            },
            {
                "start_time": 36.3181818,
                "end_time": 36.5022727,
                "pitch": 36,
                "velocity": 51,
                "duration": 0.1840909,
                "tempo": 120.0
            },
            {
                "start_time": 36.5181818,
                "end_time": 36.7022727,
                "pitch": 52,
                "velocity": 51,
                "duration": 0.1840909,
                "tempo": 120.0
            },
            {
                "start_time": 36.7181818,
                "end_time": 36.8977273,
                "pitch": 33,
                "velocity": 51,
                "duration": 0.1795455,
                "tempo": 120.0
            },
            {
                "start_time": 36.9136364,
                "end_time": 37.0931818,
                "pitch": 48,
                "velocity": 51,
                "duration": 0.1795455,
                "tempo": 120.0
            },
            {
                "start_time": 37.1113636,
                "end_time": 37.2977273,
                "pitch": 35,
                "velocity": 51,
                "duration": 0.1863636,
                "tempo": 120.0
            },
            {
                "start_time": 37.3159091,
                "end_time": 37.5045455,
                "pitch": 48,
                "velocity": 51,
                "duration": 0.1886364,
                "tempo": 120.0
            },
            {
                "start_time": 37.5204545,
                "end_time": 37.7068182,
                "pitch": 36,
                "velocity": 51,
                "duration": 0.1863636,
                "tempo": 120.0
            },
            {
                "start_time": 37.7227273,
                "end_time": 37.9068182,
                "pitch": 48,
                "velocity": 51,
                "duration": 0.1840909,
                "tempo": 120.0
            },
            {
                "start_time": 37.9227273,
                "end_time": 38.1045455,
                "pitch": 38,
                "velocity": 51,
                "duration": 0.1818182,
                "tempo": 120.0
            },
            {
                "start_time": 38.1204545,
                "end_time": 38.3,
                "pitch": 48,
                "velocity": 51,
                "duration": 0.1795455,
                "tempo": 120.0
            },
            {
                "start_time": 38.3159091,
                "end_time": 38.5045455,
                "pitch": 38,
                "velocity": 51,
                "duration": 0.1886364,
                "tempo": 120.0
            },
            {
                "start_time": 38.5204545,
                "end_time": 38.7090909,
                "pitch": 45,
                "velocity": 51,
                "duration": 0.1886364,
                "tempo": 120.0
            },
            {
                "start_time": 38.7272727,
                "end_time": 38.9090909,
                "pitch": 38,
                "velocity": 51,
                "duration": 0.1818182,
                "tempo": 120.0
            },
            {
                "start_time": 38.9272727,
                "end_time": 39.0090909,
                "pitch": 45,
                "velocity": 51,
                "duration": 0.0818182,
                "tempo": 120.0
            },
            {
                "start_time": 39.0272727,
                "end_time": 39.1090909,
                "pitch": 45,
                "velocity": 51,
                "duration": 0.0818182,
                "tempo": 120.0
            },
            {
                "start_time": 39.1272727,
                "end_time": 39.3022727,
                "pitch": 45,
                "velocity": 51,
                "duration": 0.175,
                "tempo": 120.0
            },
            {
                "start_time": 39.3181818,
                "end_time": 39.4931818,
                "pitch": 45,
                "velocity": 51,
                "duration": 0.175,
                "tempo": 120.0
            },
            {
                "start_time": 39.5090909,
                "end_time": 39.7022727,
                "pitch": 45,
                "velocity": 51,
                "duration": 0.1931818,
                "tempo": 120.0
            },
            {
                "start_time": 39.7181818,
                "end_time": 39.8068182,
                "pitch": 38,
                "velocity": 51,
                "duration": 0.0886364,
                "tempo": 120.0
            },
            {
                "start_time": 39.825,
                "end_time": 39.9136364,
                "pitch": 38,
                "velocity": 51,
                "duration": 0.0886364,
                "tempo": 120.0
            },
            {
                "start_time": 39.9295455,
                "end_time": 40.1136364,
                "pitch": 40,
                "velocity": 51,
                "duration": 0.1840909,
                "tempo": 120.0
            },
            {
                "start_time": 40.1295455,
                "end_time": 40.3136364,
                "pitch": 47,
                "velocity": 51,
                "duration": 0.1840909,
                "tempo": 120.0
            },
            {
                "start_time": 40.3295455,
                "end_time": 40.5136364,
                "pitch": 40,
                "velocity": 51,
                "duration": 0.1840909,
                "tempo": 120.0
            },
            {
                "start_time": 40.5295455,
                "end_time": 40.6136364,
                "pitch": 47,
                "velocity": 51,
                "duration": 0.0840909,
                "tempo": 120.0
            },
            {
                "start_time": 40.6295455,
                "end_time": 40.7136364,
                "pitch": 47,
                "velocity": 51,
                "duration": 0.0840909,
                "tempo": 120.0
            },
            {
                "start_time": 40.7295455,
                "end_time": 40.9045455,
                "pitch": 47,
                "velocity": 51,
                "duration": 0.175,
                "tempo": 120.0
            },
            {
                "start_time": 40.9204545,
                "end_time": 41.0954545,
                "pitch": 47,
                "velocity": 51,
                "duration": 0.175,
                "tempo": 120.0
            },
            {
                "start_time": 41.1136364,
                "end_time": 41.2954545,
                "pitch": 47,
                "velocity": 51,
                "duration": 0.1818182,
                "tempo": 120.0
            },
            {
                "start_time": 41.3136364,
                "end_time": 41.3954545,
                "pitch": 40,
                "velocity": 51,
                "duration": 0.0818182,
                "tempo": 120.0
            },
            {
                "start_time": 41.4136364,
                "end_time": 41.4954545,
                "pitch": 40,
                "velocity": 51,
                "duration": 0.0818182,
                "tempo": 120.0
            },
            {
                "start_time": 41.5136364,
                "end_time": 41.7022727,
                "pitch": 41,
                "velocity": 51,
                "duration": 0.1886364,
                "tempo": 120.0
            },
            {
                "start_time": 41.7181818,
                "end_time": 41.9068182,
                "pitch": 48,
                "velocity": 51,
                "duration": 0.1886364,
                "tempo": 120.0
            },
            {
                "start_time": 41.9227273,
                "end_time": 42.1068182,
                "pitch": 41,
                "velocity": 51,
                "duration": 0.1840909,
                "tempo": 120.0
            },
            {
                "start_time": 42.1227273,
                "end_time": 42.2068182,
                "pitch": 48,
                "velocity": 51,
                "duration": 0.0840909,
                "tempo": 120.0
            },
            {
                "start_time": 42.2227273,
                "end_time": 42.3068182,
                "pitch": 48,
                "velocity": 51,
                "duration": 0.0840909,
                "tempo": 120.0
            },
            {
                "start_time": 42.3227273,
                "end_time": 42.5113636,
                "pitch": 41,
                "velocity": 51,
                "duration": 0.1886364,
                "tempo": 120.0
            },
            {
                "start_time": 42.5295455,
                "end_time": 42.7181818,
                "pitch": 48,
                "velocity": 51,
                "duration": 0.1886364,
                "tempo": 120.0
            },
            {
                "start_time": 42.7340909,
                "end_time": 42.9090909,
                "pitch": 41,
                "velocity": 51,
                "duration": 0.175,
                "tempo": 120.0
            },
            {
                "start_time": 42.925,
                "end_time": 43.0045455,
                "pitch": 48,
                "velocity": 51,
                "duration": 0.0795455,
                "tempo": 120.0
            },
            {
                "start_time": 43.0204545,
                "end_time": 43.1,
                "pitch": 48,
                "velocity": 51,
                "duration": 0.0795455,
                "tempo": 120.0
            },
            {
                "start_time": 43.1159091,
                "end_time": 43.9136364,
                "pitch": 47,
                "velocity": 51,
                "duration": 0.7977273,
                "tempo": 120.0
            },
            {
                "start_time": 43.9295455,
                "end_time": 44.7045455,
                "pitch": 47,
                "velocity": 51,
                "duration": 0.775,
                "tempo": 120.0
            }
        ],
        "Acoustic Bass": [
            {
                "start_time": 0.5840909,
                "end_time": 0.7659091,
                "pitch": 52,
                "velocity": 40,
                "duration": 0.1818182,
                "tempo": 120.0
            },
            {
                "start_time": 2.1863636,
                "end_time": 2.3704545,
                "pitch": 52,
                "velocity": 40,
                "duration": 0.1840909,
                "tempo": 120.0
            },
            {
                "start_time": 2.7863636,
                "end_time": 2.9704545,
                "pitch": 52,
                "velocity": 40,
                "duration": 0.1840909,
                "tempo": 120.0
            },
            {
                "start_time": 3.5727273,
                "end_time": 3.7613636,
                "pitch": 55,
                "velocity": 40,
                "duration": 0.1886364,
                "tempo": 120.0
            },
            {
                "start_time": 4.3840909,
                "end_time": 4.5727273,
                "pitch": 55,
                "velocity": 40,
                "duration": 0.1886364,
                "tempo": 120.0
            },
            {
                "start_time": 5.1863636,
                "end_time": 5.375,
                "pitch": 52,
                "velocity": 40,
                "duration": 0.1886364,
                "tempo": 120.0
            },
            {
                "start_time": 5.7727273,
                "end_time": 5.9613636,
                "pitch": 62,
                "velocity": 40,
                "duration": 0.1886364,
                "tempo": 120.0
            },
            {
                "start_time": 5.9795455,
                "end_time": 6.1681818,
                "pitch": 62,
                "velocity": 40,
                "duration": 0.1886364,
                "tempo": 120.0
            },
            {
                "start_time": 6.1840909,
                "end_time": 6.3681818,
                "pitch": 64,
                "velocity": 40,
                "duration": 0.1840909,
                "tempo": 120.0
            },
            {
                "start_time": 6.9954545,
                "end_time": 7.1795455,
                "pitch": 52,
                "velocity": 40,
                "duration": 0.1840909,
                "tempo": 120.0
            },
            {
                "start_time": 8.6,
                "end_time": 8.7863636,
                "pitch": 52,
                "velocity": 40,
                "duration": 0.1863636,
                "tempo": 120.0
            },
            {
                "start_time": 9.2045455,
                "end_time": 9.3886364,
                "pitch": 52,
                "velocity": 40,
                "duration": 0.1840909,
                "tempo": 120.0
            },
            {
                "start_time": 9.9931818,
                "end_time": 10.1818182,
                "pitch": 55,
                "velocity": 40,
                "duration": 0.1886364,
                "tempo": 120.0
            },
            {
                "start_time": 10.8068182,
                "end_time": 10.9954545,
                "pitch": 55,
                "velocity": 40,
                "duration": 0.1886364,
                "tempo": 120.0
            },
            {
                "start_time": 11.6090909,
                "end_time": 11.7977273,
                "pitch": 52,
                "velocity": 40,
                "duration": 0.1886364,
                "tempo": 120.0
            },
            {
                "start_time": 12.1954545,
                "end_time": 12.3840909,
                "pitch": 60,
                "velocity": 40,
                "duration": 0.1886364,
                "tempo": 120.0
            },
            {
                "start_time": 12.4022727,
                "end_time": 12.5909091,
                "pitch": 59,
                "velocity": 40,
                "duration": 0.1886364,
                "tempo": 120.0
            },
            {
                "start_time": 12.6068182,
                "end_time": 12.7909091,
                "pitch": 55,
                "velocity": 40,
                "duration": 0.1840909,
                "tempo": 120.0
            },
            {
                "start_time": 13.2113636,
                "end_time": 13.3954545,
                "pitch": 52,
                "velocity": 40,
                "duration": 0.1840909,
                "tempo": 120.0
            },
            {
                "start_time": 14.0159091,
                "end_time": 14.1977273,
                "pitch": 52,
                "velocity": 40,
                "duration": 0.1818182,
                "tempo": 120.0
            },
            {
                "start_time": 14.6181818,
                "end_time": 14.8022727,
                "pitch": 52,
                "velocity": 40,
                "duration": 0.1840909,
                "tempo": 120.0
            },
            {
                "start_time": 15.0204545,
                "end_time": 15.2090909,
                "pitch": 52,
                "velocity": 40,
                "duration": 0.1886364,
                "tempo": 120.0
            },
            {
                "start_time": 15.4318182,
                "end_time": 15.6113636,
                "pitch": 52,
                "velocity": 40,
                "duration": 0.1795455,
                "tempo": 120.0
            },
            {
                "start_time": 15.8227273,
                "end_time": 16.0113636,
                "pitch": 52,
                "velocity": 40,
                "duration": 0.1886364,
                "tempo": 120.0
            },
            {
                "start_time": 16.4295455,
                "end_time": 16.6090909,
                "pitch": 52,
                "velocity": 40,
                "duration": 0.1795455,
                "tempo": 120.0
            },
            {
                "start_time": 17.2295455,
                "end_time": 17.4227273,
                "pitch": 52,
                "velocity": 40,
                "duration": 0.1931818,
                "tempo": 120.0
            },
            {
                "start_time": 18.0340909,
                "end_time": 18.2181818,
                "pitch": 54,
                "velocity": 40,
                "duration": 0.1840909,
                "tempo": 120.0
            },
            {
                "start_time": 18.4340909,
                "end_time": 18.6181818,
                "pitch": 52,
                "velocity": 40,
                "duration": 0.1840909,
                "tempo": 120.0
            },
            {
                "start_time": 18.6340909,
                "end_time": 19.0113636,
                "pitch": 54,
                "velocity": 40,
                "duration": 0.3772727,
                "tempo": 120.0
            },
            {
                "start_time": 19.6318182,
                "end_time": 19.8204545,
                "pitch": 52,
                "velocity": 40,
                "duration": 0.1886364,
                "tempo": 120.0
            },
            {
                "start_time": 20.4363636,
                "end_time": 20.6227273,
                "pitch": 52,
                "velocity": 40,
                "duration": 0.1863636,
                "tempo": 120.0
            },
            {
                "start_time": 21.0409091,
                "end_time": 21.225,
                "pitch": 52,
                "velocity": 40,
                "duration": 0.1840909,
                "tempo": 120.0
            },
            {
                "start_time": 21.4431818,
                "end_time": 21.6272727,
                "pitch": 52,
                "velocity": 40,
                "duration": 0.1840909,
                "tempo": 120.0
            },
            {
                "start_time": 21.8431818,
                "end_time": 22.0272727,
                "pitch": 52,
                "velocity": 40,
                "duration": 0.1840909,
                "tempo": 120.0
            },
            {
                "start_time": 22.2454545,
                "end_time": 22.4295455,
                "pitch": 52,
                "velocity": 40,
                "duration": 0.1840909,
                "tempo": 120.0
            },
            {
                "start_time": 22.8454545,
                "end_time": 23.0295455,
                "pitch": 52,
                "velocity": 40,
                "duration": 0.1840909,
                "tempo": 120.0
            },
            {
                "start_time": 23.6477273,
                "end_time": 23.8431818,
                "pitch": 54,
                "velocity": 40,
                "duration": 0.1954545,
                "tempo": 120.0
            },
            {
                "start_time": 24.4522727,
                "end_time": 24.6363636,
                "pitch": 55,
                "velocity": 40,
                "duration": 0.1840909,
                "tempo": 120.0
            },
            {
                "start_time": 24.8522727,
                "end_time": 25.0363636,
                "pitch": 57,
                "velocity": 40,
                "duration": 0.1840909,
                "tempo": 120.0
            },
            {
                "start_time": 25.2477273,
                "end_time": 25.6295455,
                "pitch": 59,
                "velocity": 40,
                "duration": 0.3818182,
                "tempo": 120.0
            },
            {
                "start_time": 26.2568182,
                "end_time": 26.4454545,
                "pitch": 52,
                "velocity": 40,
                "duration": 0.1886364,
                "tempo": 120.0
            },
            {
                "start_time": 27.875,
                "end_time": 28.0568182,
                "pitch": 52,
                "velocity": 40,
                "duration": 0.1818182,
                "tempo": 120.0
            },
            {
                "start_time": 28.475,
                "end_time": 28.6613636,
                "pitch": 52,
                "velocity": 40,
                "duration": 0.1863636,
                "tempo": 120.0
            },
            {
                "start_time": 29.2704545,
                "end_time": 29.4545455,
                "pitch": 55,
                "velocity": 40,
                "duration": 0.1840909,
                "tempo": 120.0
            },
            {
                "start_time": 30.0727273,
                "end_time": 30.2568182,
                "pitch": 55,
                "velocity": 40,
                "duration": 0.1840909,
                "tempo": 120.0
            },
            {
                "start_time": 30.8,
                "end_time": 30.9431818,
                "pitch": 52,
                "velocity": 40,
                "duration": 0.1431818,
                "tempo": 120.0
            },
            {
                "start_time": 31.3113636,
                "end_time": 31.4954545,
                "pitch": 62,
                "velocity": 40,
                "duration": 0.1840909,
                "tempo": 120.0
            },
            {
                "start_time": 31.5113636,
                "end_time": 31.6954545,
                "pitch": 62,
                "velocity": 40,
                "duration": 0.1840909,
                "tempo": 120.0
            },
            {
                "start_time": 31.7113636,
                "end_time": 31.8954545,
                "pitch": 64,
                "velocity": 40,
                "duration": 0.1840909,
                "tempo": 120.0
            },
            {
                "start_time": 32.1113636,
                "end_time": 32.2954545,
                "pitch": 60,
                "velocity": 40,
                "duration": 0.1840909,
                "tempo": 120.0
            },
            {
                "start_time": 32.5090909,
                "end_time": 32.6886364,
                "pitch": 60,
                "velocity": 40,
                "duration": 0.1795455,
                "tempo": 120.0
            },
            {
                "start_time": 32.9045455,
                "end_time": 33.0886364,
                "pitch": 60,
                "velocity": 40,
                "duration": 0.1840909,
                "tempo": 120.0
            },
            {
                "start_time": 33.3045455,
                "end_time": 33.4886364,
                "pitch": 60,
                "velocity": 40,
                "duration": 0.1840909,
                "tempo": 120.0
            },
            {
                "start_time": 33.7045455,
                "end_time": 33.8886364,
                "pitch": 60,
                "velocity": 40,
                "duration": 0.1840909,
                "tempo": 120.0
            },
            {
                "start_time": 34.1045455,
                "end_time": 34.2886364,
                "pitch": 60,
                "velocity": 40,
                "duration": 0.1840909,
                "tempo": 120.0
            },
            {
                "start_time": 34.5,
                "end_time": 34.6795455,
                "pitch": 60,
                "velocity": 40,
                "duration": 0.1795455,
                "tempo": 120.0
            },
            {
                "start_time": 34.9022727,
                "end_time": 35.0909091,
                "pitch": 60,
                "velocity": 40,
                "duration": 0.1886364,
                "tempo": 120.0
            },
            {
                "start_time": 35.3068182,
                "end_time": 35.4909091,
                "pitch": 59,
                "velocity": 40,
                "duration": 0.1840909,
                "tempo": 120.0
            },
            {
                "start_time": 35.7136364,
                "end_time": 35.9,
                "pitch": 59,
                "velocity": 40,
                "duration": 0.1863636,
                "tempo": 120.0
            },
            {
                "start_time": 36.1181818,
                "end_time": 36.3022727,
                "pitch": 59,
                "velocity": 40,
                "duration": 0.1840909,
                "tempo": 120.0
            },
            {
                "start_time": 36.5181818,
                "end_time": 36.7022727,
                "pitch": 59,
                "velocity": 40,
                "duration": 0.1840909,
                "tempo": 120.0
            },
            {
                "start_time": 36.9136364,
                "end_time": 37.0931818,
                "pitch": 57,
                "velocity": 40,
                "duration": 0.1795455,
                "tempo": 120.0
            },
            {
                "start_time": 37.3159091,
                "end_time": 37.5045455,
                "pitch": 57,
                "velocity": 40,
                "duration": 0.1886364,
                "tempo": 120.0
            },
            {
                "start_time": 37.7227273,
                "end_time": 37.9068182,
                "pitch": 57,
                "velocity": 40,
                "duration": 0.1840909,
                "tempo": 120.0
            },
            {
                "start_time": 38.1204545,
                "end_time": 38.3,
                "pitch": 57,
                "velocity": 40,
                "duration": 0.1795455,
                "tempo": 120.0
            },
            {
                "start_time": 38.5204545,
                "end_time": 38.7090909,
                "pitch": 53,
                "velocity": 40,
                "duration": 0.1886364,
                "tempo": 120.0
            },
            {
                "start_time": 38.9272727,
                "end_time": 39.0090909,
                "pitch": 53,
                "velocity": 40,
                "duration": 0.0818182,
                "tempo": 120.0
            },
            {
                "start_time": 39.0272727,
                "end_time": 39.1090909,
                "pitch": 53,
                "velocity": 40,
                "duration": 0.0818182,
                "tempo": 120.0
            },
            {
                "start_time": 39.1272727,
                "end_time": 39.3022727,
                "pitch": 53,
                "velocity": 40,
                "duration": 0.175,
                "tempo": 120.0
            },
            {
                "start_time": 39.3181818,
                "end_time": 39.4931818,
                "pitch": 53,
                "velocity": 40,
                "duration": 0.175,
                "tempo": 120.0
            },
            {
                "start_time": 39.5090909,
                "end_time": 39.7022727,
                "pitch": 53,
                "velocity": 40,
                "duration": 0.1931818,
                "tempo": 120.0
            },
            {
                "start_time": 40.1295455,
                "end_time": 40.3136364,
                "pitch": 55,
                "velocity": 40,
                "duration": 0.1840909,
                "tempo": 120.0
            },
            {
                "start_time": 40.5295455,
                "end_time": 40.6136364,
                "pitch": 55,
                "velocity": 40,
                "duration": 0.0840909,
                "tempo": 120.0
            },
            {
                "start_time": 40.6295455,
                "end_time": 40.7136364,
                "pitch": 55,
                "velocity": 40,
                "duration": 0.0840909,
                "tempo": 120.0
            },
            {
                "start_time": 40.7295455,
                "end_time": 40.9045455,
                "pitch": 55,
                "velocity": 40,
                "duration": 0.175,
                "tempo": 120.0
            },
            {
                "start_time": 40.9204545,
                "end_time": 41.0954545,
                "pitch": 55,
                "velocity": 40,
                "duration": 0.175,
                "tempo": 120.0
            },
            {
                "start_time": 41.1136364,
                "end_time": 41.2954545,
                "pitch": 55,
                "velocity": 40,
                "duration": 0.1818182,
                "tempo": 120.0
            },
            {
                "start_time": 41.7181818,
                "end_time": 41.9068182,
                "pitch": 53,
                "velocity": 40,
                "duration": 0.1886364,
                "tempo": 120.0
            },
            {
                "start_time": 42.1227273,
                "end_time": 42.2068182,
                "pitch": 53,
                "velocity": 40,
                "duration": 0.0840909,
                "tempo": 120.0
            },
            {
                "start_time": 42.2227273,
                "end_time": 42.3068182,
                "pitch": 53,
                "velocity": 40,
                "duration": 0.0840909,
                "tempo": 120.0
            },
            {
                "start_time": 42.5295455,
                "end_time": 42.7181818,
                "pitch": 53,
                "velocity": 40,
                "duration": 0.1886364,
                "tempo": 120.0
            },
            {
                "start_time": 42.925,
                "end_time": 43.0045455,
                "pitch": 53,
                "velocity": 40,
                "duration": 0.0795455,
                "tempo": 120.0
            },
            {
                "start_time": 43.0204545,
                "end_time": 43.1,
                "pitch": 53,
                "velocity": 40,
                "duration": 0.0795455,
                "tempo": 120.0
            },
            {
                "start_time": 43.1159091,
                "end_time": 43.9136364,
                "pitch": 57,
                "velocity": 40,
                "duration": 0.7977273,
                "tempo": 120.0
            },
            {
                "start_time": 43.9295455,
                "end_time": 44.7045455,
                "pitch": 56,
                "velocity": 40,
                "duration": 0.775,
                "tempo": 120.0
            }
        ]
    }
}