{
    "mood": "happy",
    "instruments": {
        "Clarinet": [
            {
                "start_time": 0.6113636,
                "end_time": 0.7931818,
                "pitch": 59,
                "velocity": 64,
                "duration": 0.1818182,
                "tempo": 120.0
            },
            {
                "start_time": 0.8113636,
                "end_time": 0.8931818,
                "pitch": 55,
                "velocity": 64,
                "duration": 0.0818182,
                "tempo": 120.0
            },
            {
                "start_time": 0.9113636,
                "end_time": 1.0931818,
                "pitch": 59,
                "velocity": 64,
                "duration": 0.1818182,
                "tempo": 120.0
            },
            {
                "start_time": 1.1113636,
                "end_time": 1.1931818,
                "pitch": 55,
                "velocity": 64,
                "duration": 0.0818182,
                "tempo": 120.0
            },
            {
                "start_time": 1.2113636,
                "end_time": 1.2931818,
                "pitch": 57,
                "velocity": 64,
                "duration": 0.0818182,
                "tempo": 120.0
            },
            {
                "start_time": 1.3113636,
                "end_time": 1.3931818,
                "pitch": 59,
                "velocity": 64,
                "duration": 0.0818182,
                "tempo": 120.0
            },
            {
                "start_time": 1.4113636,
                "end_time": 1.6,
                "pitch": 60,
                "velocity": 64,
                "duration": 0.1886364,
                "tempo": 120.0
            },
            {
                "start_time": 1.6159091,
                "end_time": 1.8045455,
                "pitch": 64,
                "velocity": 64,
                "duration": 0.1886364,
                "tempo": 120.0
            },
            {
                "start_time": 1.8227273,
                "end_time": 2.2068182,
                "pitch": 52,
                "velocity": 64,
                "duration": 0.3840909,
                "tempo": 120.0
            },
            {
                "start_time": 2.225,
                "end_time": 2.4068182,
                "pitch": 54,
                "velocity": 64,
                "duration": 0.1818182,
                "tempo": 120.0
            },
            {
                "start_time": 2.425,
                "end_time": 2.6068182,
                "pitch": 54,
                "velocity": 64,
                "duration": 0.1818182,
                "tempo": 120.0
            },
            {
                "start_time": 2.625,
                "end_time": 2.675,
                "pitch": 54,
                "velocity": 64,
                "duration": 0.05,
                "tempo": 120.0
            },
            {
                "start_time": 2.6931818,
                "end_time": 2.7431818,
                "pitch": 55,
                "velocity": 64,
                "duration": 0.05,
                "tempo": 120.0
            },
            {
                "start_time": 2.7613636,
                "end_time": 2.8113636,
                "pitch": 54,
                "velocity": 64,
                "duration": 0.05,
                "tempo": 120.0
            },
            {
                "start_time": 2.8295455,
                "end_time": 2.9159091,
                "pitch": 52,
                "velocity": 64,
                "duration": 0.0863636,
                "tempo": 120.0
            },
            {
                "start_time": 2.9318182,
                "end_time": 3.0181818,
                "pitch": 50,
                "velocity": 64,
                "duration": 0.0863636,
                "tempo": 120.0
            },
            {
                "start_time": 3.0340909,
                "end_time": 3.8136364,
                "pitch": 62,
                "velocity": 64,
                "duration": 0.7795455,
                "tempo": 120.0
            },
            {
                "start_time": 3.8295455,
                "end_time": 4.0136364,
                "pitch": 59,
                "velocity": 64,
                "duration": 0.1840909,
                "tempo": 120.0
            },
            {
                "start_time": 4.0295455,
                "end_time": 4.1136364,
                "pitch": 55,
                "velocity": 64,
                "duration": 0.0840909,
                "tempo": 120.0
            },
            {
                "start_time": 4.1295455,
                "end_time": 4.3113636,
                "pitch": 59,
                "velocity": 64,
                "duration": 0.1818182,
                "tempo": 120.0
            },
            {
                "start_time": 4.3272727,
                "end_time": 4.4090909,
                "pitch": 55,
                "velocity": 64,
                "duration": 0.0818182,
                "tempo": 120.0
            },
            {
                "start_time": 4.4272727,
                "end_time": 4.5068182,
                "pitch": 57,
                "velocity": 64,
                "duration": 0.0795455,
                "tempo": 120.0
            },
            {
                "start_time": 4.525,
                "end_time": 4.6068182,
                "pitch": 59,
                "velocity": 64,
                "duration": 0.0818182,
                "tempo": 120.0
            },
            {
                "start_time": 4.6227273,
                "end_time": 4.8090909,
                "pitch": 60,
                "velocity": 64,
                "duration": 0.1863636,
                "tempo": 120.0
            },
            {
                "start_time": 4.8272727,
                "end_time": 5.0159091,
                "pitch": 62,
                "velocity": 64,
                "duration": 0.1886364,
                "tempo": 120.0
            },
            {
                "start_time": 5.0318182,
                "end_time": 5.4159091,
                "pitch": 64,
                "velocity": 64,
                "duration": 0.3840909,
                "tempo": 120.0
            },
            {
                "start_time": 5.4340909,
                "end_time": 5.5159091,
                "pitch": 62,
                "velocity": 64,
                "duration": 0.0818182,
                "tempo": 120.0
            },
            {
                "start_time": 5.5340909,
                "end_time": 5.6181818,
                "pitch": 62,
                "velocity": 64,
                "duration": 0.0840909,
                "tempo": 120.0
            },
            {
                "start_time": 5.8363636,
                "end_time": 5.9181818,
                "pitch": 62,
                "velocity": 64,
                "duration": 0.0818182,
                "tempo": 120.0
            },
            {
                "start_time": 5.9340909,
                "end_time": 6.0159091,
                "pitch": 62,
                "velocity": 64,
                "duration": 0.0818182,
                "tempo": 120.0
            },
            {
                "start_time": 6.2272727,
                "end_time": 7.0136364,
                "pitch": 55,
                "velocity": 64,
                "duration": 0.7863636,
                "tempo": 120.0
            },
            {
                "start_time": 7.0295455,
                "end_time": 7.2181818,
                "pitch": 59,
                "velocity": 64,
                "duration": 0.1886364,
                "tempo": 120.0
            },
            {
                "start_time": 7.2363636,
                "end_time": 7.3204545,
                "pitch": 55,
                "velocity": 64,
                "duration": 0.0840909,
                "tempo": 120.0
            },
            {
                "start_time": 7.3386364,
                "end_time": 7.5227273,
                "pitch": 59,
                "velocity": 64,
                "duration": 0.1840909,
                "tempo": 120.0
            },
            {
                "start_time": 7.5386364,
                "end_time": 7.6204545,
                "pitch": 55,
                "velocity": 64,
                "duration": 0.0818182,
                "tempo": 120.0
            },
            {
                "start_time": 7.6363636,
                "end_time": 7.7181818,
                "pitch": 57,
                "velocity": 64,
                "duration": 0.0818182,
                "tempo": 120.0
            },
            {
                "start_time": 7.7340909,
                "end_time": 7.8159091,
                "pitch": 59,
                "velocity": 64,
                "duration": 0.0818182,
                "tempo": 120.0
            },
            {
                "start_time": 7.8340909,
                "end_time": 8.0204545,
                "pitch": 60,
                "velocity": 64,
                "duration": 0.1863636,
                "tempo": 120.0
            },
            {
                "start_time": 8.0386364,
                "end_time": 8.2272727,
                "pitch": 64,
                "velocity": 64,
                "duration": 0.1886364,
                "tempo": 120.0
            },
            {
                "start_time": 8.2431818,
                "end_time": 8.6295455,
                "pitch": 52,
                "velocity": 64,
                "duration": 0.3863636,
                "tempo": 120.0
            },
            {
                "start_time": 8.6454545,
                "end_time": 8.8295455,
                "pitch": 54,
                "velocity": 64,
                "duration": 0.1840909,
                "tempo": 120.0
            },
            {
                "start_time": 8.8454545,
                "end_time": 9.0295455,
                "pitch": 54,
                "velocity": 64,
                "duration": 0.1840909,
                "tempo": 120.0
            },
            {
                "start_time": 9.0454545,
                "end_time": 9.0977273,
                "pitch": 54,
                "velocity": 64,
                "duration": 0.0522727,
                "tempo": 120.0
            },
            {
                "start_time": 9.1136364,
                "end_time": 9.1659091,
                "pitch": 55,
                "velocity": 64,
                "duration": 0.0522727,
                "tempo": 120.0
            },
            {
                "start_time": 9.1840909,
                "end_time": 9.2340909,
                "pitch": 54,
                "velocity": 64,
                "duration": 0.05,
                "tempo": 120.0
            },
            {
                "start_time": 9.2522727,
                "end_time": 9.3363636,
                "pitch": 52,
                "velocity": 64,
                "duration": 0.0840909,
                "tempo": 120.0
            },
            {
                "start_time": 9.3545455,
                "end_time": 9.4409091,
                "pitch": 50,
                "velocity": 64,
                "duration": 0.0863636,
                "tempo": 120.0
            },
            {
                "start_time": 9.4568182,
                "end_time": 10.2272727,
                "pitch": 62,
                "velocity": 64,
                "duration": 0.7704545,
                "tempo": 120.0
            },
            {
                "start_time": 10.2431818,
                "end_time": 10.4295455,
                "pitch": 59,
                "velocity": 64,
                "duration": 0.1863636,
                "tempo": 120.0
            },
            {
                "start_time": 10.4477273,
                "end_time": 10.5318182,
                "pitch": 55,
                "velocity": 64,
                "duration": 0.0840909,
                "tempo": 120.0
            },
            {
                "start_time": 10.55,
                "end_time": 10.7340909,
                "pitch": 59,
                "velocity": 64,
                "duration": 0.1840909,
                "tempo": 120.0
            },
            {
                "start_time": 10.75,
                "end_time": 10.8318182,
                "pitch": 55,
                "velocity": 64,
                "duration": 0.0818182,
                "tempo": 120.0
            },
            {
                "start_time": 10.8477273,
                "end_time": 10.9295455,
                "pitch": 57,
                "velocity": 64,
                "duration": 0.0818182,
                "tempo": 120.0
            },
            {
                "start_time": 10.9477273,
                "end_time": 11.0272727,
                "pitch": 59,
                "velocity": 64,
                "duration": 0.0795455,
                "tempo": 120.0
            },
            {
                "start_time": 11.0454545,
                "end_time": 11.2318182,
                "pitch": 60,
                "velocity": 64,
                "duration": 0.1863636,
                "tempo": 120.0
            },
            {
                "start_time": 11.25,
                "end_time": 11.4386364,
                "pitch": 62,
                "velocity": 64,
                "duration": 0.1886364,
                "tempo": 120.0
            },
            {
                "start_time": 11.4545455,
                "end_time": 11.8409091,
                "pitch": 64,
                "velocity": 64,
                "duration": 0.3863636,
                "tempo": 120.0
            },
            {
                "start_time": 11.8590909,
                "end_time": 11.9409091,
                "pitch": 62,
                "velocity": 64,
                "duration": 0.0818182,
                "tempo": 120.0
            },
            {
                "start_time": 11.9590909,
                "end_time": 12.0431818,
                "pitch": 62,
                "velocity": 64,
                "duration": 0.0840909,
                "tempo": 120.0
            },
            {
                "start_time": 12.2613636,
                "end_time": 12.3431818,
                "pitch": 62,
                "velocity": 64,
                "duration": 0.0818182,
                "tempo": 120.0
            },
            {
                "start_time": 12.3590909,
                "end_time": 12.4409091,
                "pitch": 62,
                "velocity": 64,
                "duration": 0.0818182,
                "tempo": 120.0
            },
            {
                "start_time": 12.6522727,
                "end_time": 13.4386364,
                "pitch": 55,
                "velocity": 64,
                "duration": 0.7863636,
                "tempo": 120.0
            }
        ],
        "Acoustic Grand Piano": [
            {
                "start_time": 0.0,
                "end_time": 0.1840909,
                "pitch": 26,
                "velocity": 51,
                "duration": 0.1840909,
                "tempo": 120.0
            },
            {
                "start_time": 0.2,
                "end_time": 0.3886364,
                "pitch": 28,
                "velocity": 51,
                "duration": 0.1886364,
                "tempo": 120.0
            },
            {
                "start_time": 0.4045455,
                "end_time": 0.5931818,
                "pitch": 30,
                "velocity": 51,
                "duration": 0.1886364,
                "tempo": 120.0
            },
            {
                "start_time": 0.6113636,
                "end_time": 0.7931818,
                "pitch": 35,
                "velocity": 51,
                "duration": 0.1818182,
                "tempo": 120.0
            },
            {
                "start_time": 0.8113636,
                "end_time": 0.9931818,
                "pitch": 31,
                "velocity": 51,
                "duration": 0.1818182,
                "tempo": 120.0
            },
            {
                "start_time": 1.0113636,
                "end_time": 1.1931818,
                "pitch": 35,
                "velocity": 51,
                "duration": 0.1818182,
                "tempo": 120.0
            },
            {
                "start_time": 1.2113636,
                "end_time": 1.3931818,
                "pitch": 31,
                "velocity": 51,
                "duration": 0.1818182,
                "tempo": 120.0
            },
            {
                "start_time": 1.4113636,
                "end_time": 1.6,
                "pitch": 36,
                "velocity": 51,
                "duration": 0.1886364,
                "tempo": 120.0
            },
            {
                "start_time": 1.6159091,
                "end_time": 1.6681818,
                "pitch": 35,
                "velocity": 51,
                "duration": 0.0522727,
                "tempo": 120.0
            },
            {
                "start_time": 1.6840909,
                "end_time": 1.7363636,
                "pitch": 33,
                "velocity": 51,
                "duration": 0.0522727,
                "tempo": 120.0
            },
            {
                "start_time": 1.7522727,
                "end_time": 1.8045455,
                "pitch": 31,
                "velocity": 51,
                "duration": 0.0522727,
                "tempo": 120.0
            },
            {
                "start_time": 1.8227273,
                "end_time": 2.2068182,
                "pitch": 33,
                "velocity": 51,
                "duration": 0.3840909,
                "tempo": 120.0
            },
            {
                "start_time": 2.225,
                "end_time": 2.4068182,
                "pitch": 33,
                "velocity": 51,
                "duration": 0.1818182,
                "tempo": 120.0
            },
            {
                "start_time": 2.425,
                "end_time": 2.6068182,
                "pitch": 30,
                "velocity": 51,
                "duration": 0.1818182,
                "tempo": 120.0
            },
            {
                "start_time": 2.625,
                "end_time": 2.8113636,
                "pitch": 33,
                "velocity": 51,
                "duration": 0.1863636,
                "tempo": 120.0
            },
            {
                "start_time": 2.8295455,
                "end_time": 3.0181818,
                "pitch": 30,
                "velocity": 51,
                "duration": 0.1886364,
                "tempo": 120.0
            },
            {
                "start_time": 3.0340909,
                "end_time": 3.2159091,
                "pitch": 31,
                "velocity": 51,
                "duration": 0.1818182,
                "tempo": 120.0
            },
            {
                "start_time": 3.2318182,
                "end_time": 3.2795455,
                "pitch": 31,
                "velocity": 51,
                "duration": 0.0477273,
                "tempo": 120.0
            },
            {
                "start_time": 3.2977273,
                "end_time": 3.3454545,
                "pitch": 33,
                "velocity": 51,
                "duration": 0.0477273,
                "tempo": 120.0
            },
            {
                "start_time": 3.3613636,
                "end_time": 3.4113636,
                "pitch": 35,
                "velocity": 51,
                "duration": 0.05,
                "tempo": 120.0
            },
            {
                "start_time": 3.4272727,
                "end_time": 3.8136364,
                "pitch": 26,
                "velocity": 51,
                "duration": 0.3863636,
                "tempo": 120.0
            },
            {
                "start_time": 3.8295455,
                "end_time": 4.0136364,
                "pitch": 35,
                "velocity": 51,
                "duration": 0.1840909,
                "tempo": 120.0
            },
            {
                "start_time": 4.0295455,
                "end_time": 4.2136364,
                "pitch": 31,
                "velocity": 51,
                "duration": 0.1840909,
                "tempo": 120.0
            },
            {
                "start_time": 4.2295455,
                "end_time": 4.4090909,
                "pitch": 35,
                "velocity": 51,
                "duration": 0.1795455,
                "tempo": 120.0
            },
            {
                "start_time": 4.4272727,
                "end_time": 4.6068182,
                "pitch": 31,
                "velocity": 51,
                "duration": 0.1795455,
                "tempo": 120.0
            },
            {
                "start_time": 4.6227273,
                "end_time": 4.8090909,
                "pitch": 36,
                "velocity": 51,
                "duration": 0.1863636,
                "tempo": 120.0
            },
            {
                "start_time": 4.8272727,
                "end_time": 4.8795455,
                "pitch": 35,
                "velocity": 51,
                "duration": 0.0522727,
                "tempo": 120.0
            },
            {
                "start_time": 4.8954545,
                "end_time": 4.9477273,
                "pitch": 36,
                "velocity": 51,
                "duration": 0.0522727,
                "tempo": 120.0
            },
            {
                "start_time": 4.9636364,
                "end_time": 5.0159091,
                "pitch": 38,
                "velocity": 51,
                "duration": 0.0522727,
                "tempo": 120.0
            },
            {
                "start_time": 5.0318182,
                "end_time": 5.4159091,
                "pitch": 40,
                "velocity": 51,
                "duration": 0.3840909,
                "tempo": 120.0
            },
            {
                "start_time": 5.4340909,
                "end_time": 5.6181818,
                "pitch": 38,
                "velocity": 51,
                "duration": 0.1840909,
                "tempo": 120.0
            },
            {
                "start_time": 5.6340909,
                "end_time": 5.6840909,
                "pitch": 26,
                "velocity": 51,
                "duration": 0.05,
                "tempo": 120.0
            },
            {
                "start_time": 5.7022727,
                "end_time": 5.7522727,
                "pitch": 28,
                "velocity": 51,
                "duration": 0.05,
                "tempo": 120.0
            },
            {
                "start_time": 5.7681818,
                "end_time": 5.8181818,
                "pitch": 30,
                "velocity": 51,
                "duration": 0.05,
                "tempo": 120.0
            },
            {
                "start_time": 5.8363636,
                "end_time": 6.0159091,
                "pitch": 38,
                "velocity": 51,
                "duration": 0.1795455,
                "tempo": 120.0
            },
            {
                "start_time": 6.0318182,
                "end_time": 6.0818182,
                "pitch": 26,
                "velocity": 51,
                "duration": 0.05,
                "tempo": 120.0
            },
            {
                "start_time": 6.0977273,
                "end_time": 6.1454545,
                "pitch": 28,
                "velocity": 51,
                "duration": 0.0477273,
                "tempo": 120.0
            },
            {
                "start_time": 6.1613636,
                "end_time": 6.2113636,
                "pitch": 30,
                "velocity": 51,
                "duration": 0.05,
                "tempo": 120.0
            },
            {
                "start_time": 6.2272727,
                "end_time": 6.4159091,
                "pitch": 31,
                "velocity": 51,
                "duration": 0.1886364,
                "tempo": 120.0
            },
            {
                "start_time": 6.4318182,
                "end_time": 6.6204545,
                "pitch": 26,
                "velocity": 51,
                "duration": 0.1886364,
                "tempo": 120.0
            },
            {
                "start_time": 6.6386364,
                "end_time": 6.8181818,
                "pitch": 31,
                "velocity": 51,
                "duration": 0.1795455,
                "tempo": 120.0
            },
            {
                "start_time": 6.8340909,
                "end_time": 6.8840909,
                "pitch": 26,
                "velocity": 51,
                "duration": 0.05,
                "tempo": 120.0
            },
            {
                "start_time": 6.9,
                "end_time": 6.9477273,
                "pitch": 28,
                "velocity": 51,
                "duration": 0.0477273,
                "tempo": 120.0
            },
            {
                "start_time": 6.9659091,
                "end_time": 7.0136364,
                "pitch": 30,
                "velocity": 51,
                "duration": 0.0477273,
                "tempo": 120.0
            },
            {
                "start_time": 7.0295455,
                "end_time": 7.2181818,
                "pitch": 35,
                "velocity": 51,
                "duration": 0.1886364,
                "tempo": 120.0
            },
            {
                "start_time": 7.2363636,
                "end_time": 7.4227273,
                "pitch": 31,
                "velocity": 51,
                "duration": 0.1863636,
                "tempo": 120.0
            },
            {
                "start_time": 7.4409091,
                "end_time": 7.6204545,
                "pitch": 35,
                "velocity": 51,
                "duration": 0.1795455,
                "tempo": 120.0
            },
            {
                "start_time": 7.6363636,
                "end_time": 7.8159091,
                "pitch": 31,
                "velocity": 51,
                "duration": 0.1795455,
                "tempo": 120.0
            },
            {
                "start_time": 7.8340909,
                "end_time": 8.0204545,
                "pitch": 36,
                "velocity": 51,
                "duration": 0.1863636,
                "tempo": 120.0
            },
            {
                "start_time": 8.0386364,
                "end_time": 8.0886364,
                "pitch": 35,
                "velocity": 51,
                "duration": 0.05,
                "tempo": 120.0
            },
            {
                "start_time": 8.1068182,
                "end_time": 8.1590909,
                "pitch": 33,
                "velocity": 51,
                "duration": 0.0522727,
                "tempo": 120.0
            },
            {
                "start_time": 8.175,
                "end_time": 8.2272727,
                "pitch": 31,
                "velocity": 51,
                "duration": 0.0522727,
                "tempo": 120.0
            },
            {
                "start_time": 8.2431818,
                "end_time": 8.6295455,
                "pitch": 33,
                "velocity": 51,
                "duration": 0.3863636,
                "tempo": 120.0
            },
            {
                "start_time": 8.6454545,
                "end_time": 8.8295455,
                "pitch": 33,
                "velocity": 51,
                "duration": 0.1840909,
                "tempo": 120.0
            },
            {
                "start_time": 8.8454545,
                "end_time": 9.0295455,
                "pitch": 30,
                "velocity": 51,
                "duration": 0.1840909,
                "tempo": 120.0
            },
            {
                "start_time": 9.0454545,
                "end_time": 9.2340909,
                "pitch": 33,
                "velocity": 51,
                "duration": 0.1886364,
                "tempo": 120.0
            },
            {
                "start_time": 9.2522727,
                "end_time": 9.4409091,
                "pitch": 30,
                "velocity": 51,
                "duration": 0.1886364,
                "tempo": 120.0
            },
            {
                "start_time": 9.4568182,
                "end_time": 9.6409091,
                "pitch": 31,
                "velocity": 51,
                "duration": 0.1840909,
                "tempo": 120.0
            },
            {
                "start_time": 9.6590909,
                "end_time": 9.7090909,
                "pitch": 31,
                "velocity": 51,
                "duration": 0.05,
                "tempo": 120.0
            },
            {
                "start_time": 9.725,
                "end_time": 9.7772727,
                "pitch": 33,
                "velocity": 51,
                "duration": 0.0522727,
                "tempo": 120.0
            },
            {
                "start_time": 9.7931818,
                "end_time": 9.8431818,
                "pitch": 35,
                "velocity": 51,
                "duration": 0.05,
                "tempo": 120.0
            },
            {
                "start_time": 9.8590909,
                "end_time": 10.2272727,
                "pitch": 26,
                "velocity": 51,
                "duration": 0.3681818,
                "tempo": 120.0
            },
            {
                "start_time": 10.2431818,
                "end_time": 10.4295455,
                "pitch": 35,
                "velocity": 51,
                "duration": 0.1863636,
                "tempo": 120.0
            },
            {
                "start_time": 10.4477273,
                "end_time": 10.6363636,
                "pitch": 31,
                "velocity": 51,
                "duration": 0.1886364,
                "tempo": 120.0
            },
            {
                "start_time": 10.6522727,
                "end_time": 10.8318182,
                "pitch": 35,
                "velocity": 51,
                "duration": 0.1795455,
                "tempo": 120.0
            },
            {
                "start_time": 10.8477273,
                "end_time": 11.0272727,
                "pitch": 31,
                "velocity": 51,
                "duration": 0.1795455,
                "tempo": 120.0
            },
            {
                "start_time": 11.0454545,
                "end_time": 11.2318182,
                "pitch": 36,
                "velocity": 51,
                "duration": 0.1863636,
                "tempo": 120.0
            },
            {
                "start_time": 11.25,
                "end_time": 11.3,
                "pitch": 35,
                "velocity": 51,
                "duration": 0.05,
                "tempo": 120.0
            },
            {
                "start_time": 11.3181818,
                "end_time": 11.3704545,
                "pitch": 36,
                "velocity": 51,
                "duration": 0.0522727,
                "tempo": 120.0
            },
            {
                "start_time": 11.3863636,
                "end_time": 11.4386364,
                "pitch": 38,
                "velocity": 51,
                "duration": 0.0522727,
                "tempo": 120.0
            },
            {
                "start_time": 11.4545455,
                "end_time": 11.8409091,
                "pitch": 40,
                "velocity": 51,
                "duration": 0.3863636,
                "tempo": 120.0
            },
            {
                "start_time": 11.8590909,
                "end_time": 12.0431818,
                "pitch": 38,
                "velocity": 51,
                "duration": 0.1840909,
                "tempo": 120.0
            },
            {
                "start_time": 12.0590909,
                "end_time": 12.1090909,
                "pitch": 26,
                "velocity": 51,
                "duration": 0.05,
                "tempo": 120.0
            },
            {
                "start_time": 12.1272727,
                "end_time": 12.1772727,
                "pitch": 28,
                "velocity": 51,
                "duration": 0.05,
                "tempo": 120.0
            },
            {
                "start_time": 12.1931818,
                "end_time": 12.2431818,
                "pitch": 30,
                "velocity": 51,
                "duration": 0.05,
                "tempo": 120.0
            },
            {
                "start_time": 12.2613636,
                "end_time": 12.4409091,
                "pitch": 38,
                "velocity": 51,
                "duration": 0.1795455,
                "tempo": 120.0
            },
            {
                "start_time": 12.4568182,
                "end_time": 12.5068182,
                "pitch": 26,
                "velocity": 51,
                "duration": 0.05,
                "tempo": 120.0
            },
            {
                "start_time": 12.5227273,
                "end_time": 12.5704545,
                "pitch": 28,
                "velocity": 51,
                "duration": 0.0477273,
                "tempo": 120.0
            },
            {
                "start_time": 12.5863636,
                "end_time": 12.6363636,
                "pitch": 30,
                "velocity": 51,
                "duration": 0.05,
                "tempo": 120.0
            },
            {
                "start_time": 12.6522727,
                "end_time": 12.8409091,
                "pitch": 31,
                "velocity": 51,
                "duration": 0.1886364,
                "tempo": 120.0
            },
            {
                "start_time": 12.8568182,
                "end_time": 13.0454545,
                "pitch": 26,
                "velocity": 51,
                "duration": 0.1886364,
                "tempo": 120.0
            },
            {
                "start_time": 13.0636364,
                "end_time": 13.2431818,
                "pitch": 31,
                "velocity": 51,
                "duration": 0.1795455,
                "tempo": 120.0
            },
            {
                "start_time": 13.2590909,
                "end_time": 13.3090909,
                "pitch": 26,
                "velocity": 51,
                "duration": 0.05,
                "tempo": 120.0
            },
            {
                "start_time": 13.325,
                "end_time": 13.3727273,
                "pitch": 28,
                "velocity": 51,
                "duration": 0.0477273,
                "tempo": 120.0
            },
            {
                "start_time": 13.3909091,
                "end_time": 13.4386364,
                "pitch": 30,
                "velocity": 51,
                "duration": 0.0477273,
                "tempo": 120.0
            }
        ],
        "Oboe": [
            {
                "start_time": 0.6113636,
                "end_time": 0.7931818,
                "pitch": 55,
                "velocity": 40,
                "duration": 0.1818182,
                "tempo": 120.0
            },
            {
                "start_time": 0.8113636,
                "end_time": 0.8931818,
                "pitch": 50,
                "velocity": 40,
                "duration": 0.0818182,
                "tempo": 120.0
            },
            {
                "start_time": 0.9113636,
                "end_time": 1.0931818,
                "pitch": 55,
                "velocity": 40,
                "duration": 0.1818182,
                "tempo": 120.0
            },
            {
                "start_time": 1.1113636,
                "end_time": 1.1931818,
                "pitch": 50,
                "velocity": 40,
                "duration": 0.0818182,
                "tempo": 120.0
            },
            {
                "start_time": 1.2113636,
                "end_time": 1.2931818,
                "pitch": 54,
                "velocity": 40,
                "duration": 0.0818182,
                "tempo": 120.0
            },
            {
                "start_time": 1.3113636,
                "end_time": 1.3931818,
                "pitch": 55,
                "velocity": 40,
                "duration": 0.0818182,
                "tempo": 120.0
            },
            {
                "start_time": 1.4113636,
                "end_time": 1.6,
                "pitch": 57,
                "velocity": 40,
                "duration": 0.1886364,
                "tempo": 120.0
            },
            {
                "start_time": 1.6159091,
                "end_time": 1.8045455,
                "pitch": 60,
                "velocity": 40,
                "duration": 0.1886364,
                "tempo": 120.0
            },
            {
                "start_time": 1.8227273,
                "end_time": 2.2068182,
                "pitch": 48,
                "velocity": 40,
                "duration": 0.3840909,
                "tempo": 120.0
            },
            {
                "start_time": 2.225,
                "end_time": 2.4068182,
                "pitch": 50,
                "velocity": 40,
                "duration": 0.1818182,
                "tempo": 120.0
            },
            {
                "start_time": 2.425,
                "end_time": 2.6068182,
                "pitch": 50,
                "velocity": 40,
                "duration": 0.1818182,
                "tempo": 120.0
            },
            {
                "start_time": 2.625,
                "end_time": 2.675,
                "pitch": 50,
                "velocity": 40,
                "duration": 0.05,
                "tempo": 120.0
            },
            {
                "start_time": 2.6931818,
                "end_time": 2.7431818,
                "pitch": 52,
                "velocity": 40,
                "duration": 0.05,
                "tempo": 120.0
            },
            {
                "start_time": 2.7613636,
                "end_time": 2.8113636,
                "pitch": 50,
                "velocity": 40,
                "duration": 0.05,
                "tempo": 120.0
            },
            {
                "start_time": 2.8295455,
                "end_time": 2.9159091,
                "pitch": 48,
                "velocity": 40,
                "duration": 0.0863636,
                "tempo": 120.0
            },
            {
                "start_time": 2.9318182,
                "end_time": 3.0181818,
                "pitch": 47,
                "velocity": 40,
                "duration": 0.0863636,
                "tempo": 120.0
            },
            {
                "start_time": 3.0340909,
                "end_time": 3.8136364,
                "pitch": 57,
                "velocity": 40,
                "duration": 0.7795455,
                "tempo": 120.0
            },
            {
                "start_time": 3.8295455,
                "end_time": 4.0136364,
                "pitch": 55,
                "velocity": 40,
                "duration": 0.1840909,
                "tempo": 120.0
            },
            {
                "start_time": 4.0295455,
                "end_time": 4.1136364,
                "pitch": 50,
                "velocity": 40,
                "duration": 0.0840909,
                "tempo": 120.0
            },
            {
                "start_time": 4.1295455,
                "end_time": 4.3113636,
                "pitch": 55,
                "velocity": 40,
                "duration": 0.1818182,
                "tempo": 120.0
            },
            {
                "start_time": 4.3272727,
                "end_time": 4.4090909,
                "pitch": 50,
                "velocity": 40,
                "duration": 0.0818182,
                "tempo": 120.0
            },
            {
                "start_time": 4.4272727,
                "end_time": 4.5068182,
                "pitch": 54,
                "velocity": 40,
                "duration": 0.0795455,
                "tempo": 120.0
            },
            {
                "start_time": 4.525,
                "end_time": 4.6068182,
                "pitch": 55,
                "velocity": 40,
                "duration": 0.0818182,
                "tempo": 120.0
            },
            {
                "start_time": 4.6227273,
                "end_time": 4.8090909,
                "pitch": 57,
                "velocity": 40,
                "duration": 0.1863636,
                "tempo": 120.0
            },
            {
                "start_time": 4.8272727,
                "end_time": 5.0159091,
                "pitch": 57,
                "velocity": 40,
                "duration": 0.1886364,
                "tempo": 120.0
            },
            {
                "start_time": 5.0318182,
                "end_time": 5.4159091,
                "pitch": 60,
                "velocity": 40,
                "duration": 0.3840909,
                "tempo": 120.0
            },
            {
                "start_time": 5.6340909,
                "end_time": 5.6840909,
                "pitch": 50,
                "velocity": 40,
                "duration": 0.05,
                "tempo": 120.0
            },
            {
                "start_time": 5.7022727,
                "end_time": 5.7522727,
                "pitch": 52,
                "velocity": 40,
                "duration": 0.05,
                "tempo": 120.0
            },
            {
                "start_time": 5.7681818,
                "end_time": 5.8181818,
                "pitch": 54,
                "velocity": 40,
                "duration": 0.05,
                "tempo": 120.0
            },
            {
                "start_time": 6.0318182,
                "end_time": 6.0818182,
                "pitch": 50,
                "velocity": 40,
                "duration": 0.05,
                "tempo": 120.0
            },
            {
                "start_time": 6.0977273,
                "end_time": 6.1454545,
                "pitch": 52,
                "velocity": 40,
                "duration": 0.0477273,
                "tempo": 120.0
            },
            {
                "start_time": 6.1613636,
                "end_time": 6.2113636,
                "pitch": 54,
                "velocity": 40,
                "duration": 0.05,
                "tempo": 120.0
            },
            {
                "start_time": 6.2272727,
                "end_time": 7.0136364,
                "pitch": 55,
                "velocity": 40,
                "duration": 0.7863636,
                "tempo": 120.0
            },
            {
                "start_time": 7.0295455,
                "end_time": 7.2181818,
                "pitch": 55,
                "velocity": 40,
                "duration": 0.1886364,
                "tempo": 120.0
            },
            {
                "start_time": 7.2363636,
                "end_time": 7.3204545,
                "pitch": 50,
                "velocity": 40,
                "duration": 0.0840909,
                "tempo": 120.0
            },
            {
                "start_time": 7.3386364,
                "end_time": 7.5227273,
                "pitch": 55,
                "velocity": 40,
                "duration": 0.1840909,
                "tempo": 120.0
            },
            {
                "start_time": 7.5386364,
                "end_time": 7.6204545,
                "pitch": 50,
                "velocity": 40,
                "duration": 0.0818182,
                "tempo": 120.0
            },
            {
                "start_time": 7.6363636,
                "end_time": 7.7181818,
                "pitch": 54,
                "velocity": 40,
                "duration": 0.0818182,
                "tempo": 120.0
            },
            {
                "start_time": 7.7340909,
                "end_time": 7.8159091,
                "pitch": 55,
                "velocity": 40,
                "duration": 0.0818182,
                "tempo": 120.0
            },
            {
                "start_time": 7.8340909,
                "end_time": 8.0204545,
                "pitch": 57,
                "velocity": 40,
                "duration": 0.1863636,
                "tempo": 120.0
            },
            {
                "start_time": 8.0386364,
                "end_time": 8.2272727,
                "pitch": 60,
                "velocity": 40,
                "duration": 0.1886364,
                "tempo": 120.0
            },
            {
                "start_time": 8.2431818,
                "end_time": 8.6295455,
                "pitch": 48,
                "velocity": 40,
                "duration": 0.3863636,
                "tempo": 120.0
            },
            {
                "start_time": 8.6454545,
                "end_time": 8.8295455,
                "pitch": 50,
                "velocity": 40,
                "duration": 0.1840909,
                "tempo": 120.0
            },
            {
                "start_time": 8.8454545,
                "end_time": 9.0295455,
                "pitch": 50,
                "velocity": 40,
                "duration": 0.1840909,
                "tempo": 120.0
            },
            {
                "start_time": 9.0454545,
                "end_time": 9.0977273,
                "pitch": 50,
                "velocity": 40,
                "duration": 0.0522727,
                "tempo": 120.0
            },
            {
                "start_time": 9.1136364,
                "end_time": 9.1659091,
                "pitch": 52,
                "velocity": 40,
                "duration": 0.0522727,
                "tempo": 120.0
            },
            {
                "start_time": 9.1840909,
                "end_time": 9.2340909,
                "pitch": 50,
                "velocity": 40,
                "duration": 0.05,
                "tempo": 120.0
            },
            {
                "start_time": 9.2522727,
                "end_time": 9.3363636,
                "pitch": 48,
                "velocity": 40,
                "duration": 0.0840909,
                "tempo": 120.0
            },
            {
                "start_time": 9.3545455,
                "end_time": 9.4409091,
                "pitch": 47,
                "velocity": 40,
                "duration": 0.0863636,
                "tempo": 120.0
            },
            {
                "start_time": 9.4568182,
                "end_time": 10.2272727,
                "pitch": 57,
                "velocity": 40,
                "duration": 0.7704545,
                "tempo": 120.0
            },
            {
                "start_time": 10.2431818,
                "end_time": 10.4295455,
                "pitch": 55,
                "velocity": 40,
                "duration": 0.1863636,
                "tempo": 120.0
            },
            {
                "start_time": 10.4477273,
                "end_time": 10.5318182,
                "pitch": 50,
                "velocity": 40,
                "duration": 0.0840909,
                "tempo": 120.0
            },
            {
                "start_time": 10.55,
                "end_time": 10.7340909,
                "pitch": 55,
                "velocity": 40,
                "duration": 0.1840909,
                "tempo": 120.0
            },
            {
                "start_time": 10.75,
                "end_time": 10.8318182,
                "pitch": 50,
                "velocity": 40,
                "duration": 0.0818182,
                "tempo": 120.0
            },
            {
                "start_time": 10.8477273,
                "end_time": 10.9295455,
                "pitch": 54,
                "velocity": 40,
                "duration": 0.0818182,
                "tempo": 120.0
            },
            {
                "start_time": 10.9477273,
                "end_time": 11.0272727,
                "pitch": 55,
                "velocity": 40,
                "duration": 0.0795455,
                "tempo": 120.0
            },
            {
                "start_time": 11.0454545,
                "end_time": 11.2318182,
                "pitch": 57,
                "velocity": 40,
                "duration": 0.1863636,
                "tempo": 120.0
            },
            {
                "start_time": 11.25,
                "end_time": 11.4386364,
                "pitch": 57,
                "velocity": 40,
                "duration": 0.1886364,
                "tempo": 120.0
            },
            {
                "start_time": 11.4545455,
                "end_time": 11.8409091,
                "pitch": 60,
                "velocity": 40,
                "duration": 0.3863636,
                "tempo": 120.0
            },
            {
                "start_time": 12.0590909,
                "end_time": 12.1090909,
                "pitch": 50,
                "velocity": 40,
                "duration": 0.05,
                "tempo": 120.0
            },
            {
                "start_time": 12.1272727,
                "end_time": 12.1772727,
                "pitch": 52,
                "velocity": 40,
                "duration": 0.05,
                "tempo": 120.0
            },
            {
                "start_time": 12.1931818,
                "end_time": 12.2431818,
                "pitch": 54,
                "velocity": 40,
                "duration": 0.05,
                "tempo": 120.0
            },
            {
                "start_time": 12.4568182,
                "end_time": 12.5068182,
                "pitch": 50,
                "velocity": 40,
                "duration": 0.05,
                "tempo": 120.0
            },
            {
                "start_time": 12.5227273,
                "end_time": 12.5704545,
                "pitch": 52,
                "velocity": 40,
                "duration": 0.0477273,
                "tempo": 120.0
            },
            {
                "start_time": 12.5863636,
                "end_time": 12.6363636,
                "pitch": 54,
                "velocity": 40,
                "duration": 0.05,
                "tempo": 120.0
            },
            {
                "start_time": 12.6522727,
                "end_time": 13.4386364,
                "pitch": 55,
                "velocity": 40,
                "duration": 0.7863636,
                "tempo": 120.0
            }
        ]
    }
}